<?xml version="1.0" encoding="utf-8"?>
<!-- Generator: Adobe Illustrator 19.0.0, SVG Export Plug-In . SVG Version: 6.00 Build 0)  -->
<!DOCTYPE svg PUBLIC "-//W3C//DTD SVG 1.1//EN" "http://www.w3.org/Graphics/SVG/1.1/DTD/svg11.dtd">
<svg version="1.1" xmlns="http://www.w3.org/2000/svg" xmlns:xlink="http://www.w3.org/1999/xlink" x="0px" y="0px" width="648px"
	 height="432px" viewBox="0 0 648 432" style="enable-background:new 0 0 648 432;" xml:space="preserve">
<g id="Layer_2">
	<rect id="XMLID_3_" x="0" style="fill:#B8D4DD;" width="648" height="382.245"/>
</g>
<g id="Layer_1">
	
		<rect id="XMLID_85_" x="470.487" y="340.514" style="fill:#A5754E;stroke:#513E2D;stroke-linecap:round;stroke-linejoin:round;stroke-miterlimit:10;" width="14.42" height="91.486"/>
	<path id="XMLID_84_" style="fill:#BC8D69;stroke:#6D513A;stroke-linecap:round;stroke-linejoin:round;stroke-miterlimit:10;" d="
		M436.993,177.419c32.78,1.49,29.8,2.98,41.72,38.74s-6.877,200.987-6.877,200.987s-64.931-5.481-85.791,4.95
		c-20.86,10.43-171.583,9.899-171.583,9.899s74.908-42.205,73.418-51.145c-1.49-8.94,26.933-130.421,26.933-136.381
		s29.8-68.54,29.8-68.54L436.993,177.419z"/>
	<path id="XMLID_56_" style="fill:#64A549;stroke:#2F681A;stroke-linecap:round;stroke-linejoin:round;stroke-miterlimit:10;" d="
		M283.933,217.828c22.395-17.793,49.391-21.474,61.356-22.702c11.964-1.227,37.427,0.92,52.459,29.757s13.191,70.252,14.419,78.535
		c1.227,8.283,6.971,47.783,1.756,63.735c-5.215,15.952-117.071,13.778-129.342-13.526S283.933,217.828,283.933,217.828z"/>
	
		<rect id="XMLID_1_" y="311.407" style="fill:#D8CEA3;stroke:#6D513A;stroke-linecap:round;stroke-linejoin:round;stroke-miterlimit:10;" width="648" height="120.593"/>
	<path id="XMLID_2_" style="fill:#E8BB95;stroke:#75432E;stroke-linecap:round;stroke-linejoin:round;stroke-miterlimit:10;" d="
		M227.66,212.568c-24.748,50.32,13.199,121.263,51.145,101.465c34.647-25.572,15.396-48.334,15.396-48.334l-8.797-11.884
		c-13.199,37.946-32.997,37.946-34.647,7.424c-4.95-38.771,5.774-36.296,5.774-36.296L227.66,212.568z"/>
	<path id="XMLID_63_" style="fill:#E8BB95;stroke:#75432E;stroke-linecap:round;stroke-linejoin:round;stroke-miterlimit:10;" d="
		M328.109,207.704c0.614-9.51-3.375-24.849-3.375-24.849c7.056-5.215,31.905-8.59,31.905-8.59
		c5.522,14.725,8.897,29.451,8.897,29.451c-4.602,23.622-29.757,22.395-34.359,20.861
		C326.575,223.043,321.053,216.294,328.109,207.704z"/>
	<path id="XMLID_66_" style="fill:#E0A469;stroke:#755A3B;stroke-linecap:round;stroke-linejoin:round;stroke-miterlimit:10;" d="
		M236.076,206.17c5.829-10.124,11.964-9.51,17.18-8.283c4.295-10.124,17.18-1.841,17.18-1.841c-9.817,2.454-9.51,8.59-5.522,11.658
		c-7.363,0.307,0.307,15.339,7.669,3.681c-1.841,11.351,12.578,8.897,10.124-0.614c3.988,3.681,10.124-0.92,6.136-6.136
		c4.295,0.92,3.681-2.454,3.681-2.454c8.897,5.522,9.203,10.124,9.203,15.646s0,6.136,0.92,9.203
		c0.92,3.068,5.522,14.419-2.761,22.702c-8.283,8.283-13.805,15.032-16.259,17.18c-2.454,2.147-13.191,1.841-22.088,2.454
		c-8.897,0.614-12.578,3.068-18.407-2.147c-5.829-5.215-0.307-8.897-5.215-10.124s-16.259-2.147-11.044-19.327
		C232.087,220.589,236.076,206.17,236.076,206.17z"/>
	<path id="XMLID_68_" style="fill:#E8BB95;stroke:#75432E;stroke-linecap:round;stroke-linejoin:round;stroke-miterlimit:10;" d="
		M226.565,209.851c6.715-10.493,14.725-10.124,19.634-4.602c4.908,5.522-1.534,30.371-12.885,33.746
		C221.964,242.37,216.749,225.19,226.565,209.851z"/>
	<path id="XMLID_52_" style="fill:#E8BB95;stroke:#75432E;stroke-linecap:round;stroke-linejoin:round;stroke-miterlimit:10;" d="
		M304.735,57.485c-11.715,8.054-27.457,29.653-18.304,65.53c-10.617,1.464-38.439,38.439,9.884,58.208
		c5.857,6.224,32.582,19.769,52.717,2.929c33.68,0,44.663-39.538,44.663-41.734s1.83-72.486,1.83-72.486
		C370.631,53.092,309.86,52.726,304.735,57.485z"/>
	<path id="XMLID_48_" style="fill:#8C613E;stroke:#563E28;stroke-linecap:round;stroke-linejoin:round;stroke-miterlimit:10;" d="
		M386.373,79.451c-5.125,13.179-10.617,7.688-13.179-2.197c-5.125,17.206-15.742-4.759-12.813-11.715
		c-19.769,20.867-45.761,13.545-30.751,0c-31.484,14.277-76.146,16.108-45.395-5.491c-12.081,0-17.206-7.688-2.563-15.742
		c14.644-8.054,35.511-11.349,47.592-5.857c-12.081-9.884-7.322-12.813,15.01-10.983c22.331,1.83,34.412,20.501,36.609,23.796
		c-3.661-11.715-3.295-19.403,1.464-15.742c4.759,3.661,14.277,23.796,15.742,28.555c2.929-15.01,16.84-11.715,7.322,5.125
		c6.59-2.563,17.572,5.491,4.027,5.491c11.349,18.671-10.617,44.297-10.617,44.297c-3.661-1.83-11.349-1.83-11.349-1.83
		c2.197,20.135-13.911,25.992-11.715,1.464c-4.027,11.715-10.983,4.027-5.857-5.857s17.206-27.091,16.84-28.189
		S386.373,79.451,386.373,79.451z"/>
	<path id="XMLID_53_" style="fill:#E8BB95;stroke:#75432E;stroke-linecap:round;stroke-linejoin:round;stroke-miterlimit:10;" d="
		M387.105,118.622c9.884-20.135,28.149-7.815,24.894,11.715c-3.295,19.769-26.358,23.064-28.555,14.644"/>
	<path id="XMLID_55_" style="fill:#E8BB95;stroke:#75432E;stroke-linecap:round;stroke-linejoin:round;stroke-miterlimit:10;" d="
		M319.519,119.966c-11.351,6.136-7.669,11.658-0.614,17.793"/>
	
		<ellipse id="XMLID_54_" transform="matrix(0.9947 0.1033 -0.1033 0.9947 13.9165 -35.3597)" style="fill:#231F20;stroke:#231F20;stroke-linecap:round;stroke-linejoin:round;stroke-miterlimit:10;" cx="348.51" cy="116.744" rx="2.914" ry="8.13"/>
	
		<ellipse id="XMLID_57_" transform="matrix(0.9947 0.1033 -0.1033 0.9947 13.332 -30.8165)" style="fill:#231F20;stroke:#231F20;stroke-linecap:round;stroke-linejoin:round;stroke-miterlimit:10;" cx="304.334" cy="113.37" rx="2.914" ry="8.13"/>
	<path id="XMLID_58_" style="fill:none;stroke:#231F20;stroke-linecap:round;stroke-linejoin:round;stroke-miterlimit:10;" d="
		M296.511,90.822c5.215-5.215,10.737-5.522,13.191-0.614"/>
	<path id="XMLID_59_" style="fill:none;stroke:#231F20;stroke-linecap:round;stroke-linejoin:round;stroke-miterlimit:10;" d="
		M344.675,90.515c4.908-3.375,10.737-1.227,14.725,5.215"/>
	<path id="XMLID_60_" style="fill:#E8BB95;stroke:#75432E;stroke-linecap:round;stroke-linejoin:round;stroke-miterlimit:10;" d="
		M341.914,133.464c-9.51,7.669-11.351,21.474-3.068,31.905"/>
	<path id="XMLID_61_" style="fill:#E8BB95;stroke:#75432E;stroke-linecap:round;stroke-linejoin:round;stroke-miterlimit:10;" d="
		M300.499,137.145c7.363,14.419,1.227,20.247,0.307,23.315"/>
	<path id="XMLID_62_" style="fill:none;stroke:#231F20;stroke-linecap:round;stroke-linejoin:round;stroke-miterlimit:10;" d="
		M304.18,150.337c10.43,7.976,24.849,5.522,29.144,0.92"/>
	<path id="XMLID_64_" style="fill:#E8BB95;stroke:#75432E;stroke-linecap:round;stroke-linejoin:round;stroke-miterlimit:10;" d="
		M367.376,279.49c-20.247,26.69-56.14,41.722-68.105-8.897c8.897-28.224,7.056-32.212-3.988-38.04s-25.156-6.442-28.224,8.59
		c-3.375,15.032,11.351,23.008,11.351,23.008c-2.147,13.191,3.375,14.725,7.363,19.02c-2.761,38.347,38.347,49.391,51.845,48.778
		s54.606-7.363,60.742-48.164C374.432,279.183,367.376,279.49,367.376,279.49z"/>
	<path id="XMLID_70_" style="fill:#5E3615;stroke:#755A3B;stroke-linecap:round;stroke-linejoin:round;stroke-miterlimit:10;" d="
		M248.04,251.573c3.068-4.295,7.363-5.215,8.283-4.602c0.92,0.614,4.908,3.068,3.988,5.522c-0.92,2.454-2.454,4.295-4.295,5.215
		c-1.841,0.92-3.681,0.92-5.829,0.614C248.04,258.016,248.04,251.573,248.04,251.573z"/>
	<path id="XMLID_69_" style="fill:#5E3615;stroke:#755A3B;stroke-linecap:round;stroke-linejoin:round;stroke-miterlimit:10;" d="
		M243.745,237.462c-2.147,0.92-4.908,1.227-4.602,4.908c0.307,3.681,3.068,2.761,3.988,2.761s5.215-0.92,4.908-2.147
		C247.733,241.756,243.745,237.462,243.745,237.462z"/>
	<path id="XMLID_71_" style="fill:#5E3615;stroke:#755A3B;stroke-linecap:round;stroke-linejoin:round;stroke-miterlimit:10;" d="
		M267.98,221.509c-1.841,0-2.761,2.454-3.068,3.375c-0.307,0.92,4.602,2.147,5.522,1.841c0.92-0.307,2.147-0.92,1.841-2.147
		C271.969,223.35,267.98,221.509,267.98,221.509z"/>
	<path id="XMLID_73_" style="fill:#E0A469;stroke:#755A3B;stroke-linecap:round;stroke-linejoin:round;stroke-miterlimit:10;" d="
		M291.296,220.895c-1.841-0.307-4.602,4.295-4.602,4.295"/>
	<path id="XMLID_65_" style="fill:#64A549;stroke:#2F681A;stroke-linecap:round;stroke-linejoin:round;stroke-miterlimit:10;" d="
		M363.97,248.302c-0.859,14.086-7.621,34.266-7.621,34.266c30.894,17.558,57.855,3.835,58.217,2.935
		c-3.078-60.428-19.183-68.479-22.802-69.621"/>
	<path id="XMLID_74_" style="fill:#E0A469;stroke:#755A3B;stroke-linecap:round;stroke-linejoin:round;stroke-miterlimit:10;" d="
		M254.789,212.919c2.761,2.454,1.841,7.363,1.841,7.363"/>
	<path id="XMLID_75_" style="fill:#E0A469;stroke:#755A3B;stroke-linecap:round;stroke-linejoin:round;stroke-miterlimit:10;" d="
		M256.016,240.223c2.761-2.454,6.442-0.614,6.442-0.614"/>
	<path id="XMLID_76_" style="fill:#E0A469;stroke:#755A3B;stroke-linecap:round;stroke-linejoin:round;stroke-miterlimit:10;" d="
		M260.311,262.004c0.307,4.602,2.761,7.363,2.761,7.363"/>
	<path id="XMLID_77_" style="fill:#E0A469;stroke:#755A3B;stroke-linecap:round;stroke-linejoin:round;stroke-miterlimit:10;" d="
		M266.447,264.151c0.307,3.068,0.92,5.215,0.92,5.215"/>
</g>
</svg>
