<?xml version="1.0" encoding="utf-8"?>
<!-- Generator: Adobe Illustrator 19.0.0, SVG Export Plug-In . SVG Version: 6.00 Build 0)  -->
<!DOCTYPE svg PUBLIC "-//W3C//DTD SVG 1.1//EN" "http://www.w3.org/Graphics/SVG/1.1/DTD/svg11.dtd">
<svg version="1.1" xmlns="http://www.w3.org/2000/svg" xmlns:xlink="http://www.w3.org/1999/xlink" x="0px" y="0px" width="648px"
	 height="432px" viewBox="0 0 648 432" style="enable-background:new 0 0 648 432;" xml:space="preserve">
<g id="Layer_2">
	<rect id="XMLID_1_" style="fill:#BDDDEF;" width="648" height="432"/>
</g>
<g id="Layer_3">
	<rect id="XMLID_2_" y="203.562" style="fill:#B9D197;stroke:#839B5C;stroke-miterlimit:10;" width="648" height="228.438"/>
</g>
<g id="Layer_1">
	<g id="XMLID_140_">
		<path id="XMLID_28_" style="fill:#603B31;stroke:#3F261E;stroke-linecap:round;stroke-linejoin:round;stroke-miterlimit:10;" d="
			M479.74,272.041c-38.587,4.63-88.7,12.747-59.488,24.432s36.117,17.528,19.652,20.714c-16.465,3.187-53.114-3.718-48.334,6.905
			c4.78,10.623-24.964,1.062-43.022,14.341c-18.059,13.278-66.924,19.121-50.989,26.557c15.934,7.436-79.671,5.843-45.678,28.682
			s115.788,16.996,137.034,14.341s-2.125-13.278,14.872-12.747s24.432,21.246,73.297,19.121
			c48.865-2.125,23.901-13.278,38.242-19.652c14.341-6.374,43.022-5.843,66.924-13.279c23.901-7.436,33.462-25.495,11.685-33.993
			c-21.777-8.498-46.74-15.934-33.462-22.839c13.278-6.905,16.91-29.076-4.249-43.553
			C546.133,274.165,506.297,268.854,479.74,272.041z"/>
		<path id="XMLID_27_" style="fill:none;stroke:#99614B;stroke-linecap:round;stroke-linejoin:round;stroke-miterlimit:10;" d="
			M493.55,293.552c0,2.787-4.637,2.39-10.357,2.39c-5.72,0-10.357,0.397-10.357-2.39s4.637-5.046,10.357-5.046
			C488.913,288.506,493.55,290.765,493.55,293.552z"/>
		<path id="XMLID_29_" style="fill:none;stroke:#99614B;stroke-linecap:round;stroke-linejoin:round;stroke-miterlimit:10;" d="
			M285.343,378.8c-19.121,3.718-41.96,7.436-18.59,14.872c23.37,7.436,35.586,7.967,35.586,7.967"/>
		<path id="XMLID_31_" style="fill:none;stroke:#99614B;stroke-linecap:round;stroke-linejoin:round;stroke-miterlimit:10;" d="
			M452.121,404.294c14.341,2.125,33.993,2.656,38.242-1.593s-5.311-5.843,3.187-9.561c8.498-3.718,20.714-6.905,23.901-7.436"/>
		<path id="XMLID_32_" style="fill:none;stroke:#99614B;stroke-linecap:round;stroke-linejoin:round;stroke-miterlimit:10;" d="
			M531.792,369.77c-12.216-0.531-35.586,10.623-35.586,10.623"/>
		<path id="XMLID_30_" style="fill:none;stroke:#99614B;stroke-linecap:round;stroke-linejoin:round;stroke-miterlimit:10;" d="
			M446.278,283.195c-7.967,2.656-19.121,8.498-4.78,12.216c14.341,3.718,24.432,6.905,23.37,11.685"/>
		<path id="XMLID_85_" style="fill:none;stroke:#99614B;stroke-linecap:round;stroke-linejoin:round;stroke-miterlimit:10;" d="
			M349.141,354.98c11.985,3.995,36.621,4.661,39.285-1.998c2.663-6.658-5.327-11.319-5.327-11.319"/>
		<path id="XMLID_88_" style="fill:none;stroke:#99614B;stroke-linecap:round;stroke-linejoin:round;stroke-miterlimit:10;" d="
			M397.082,346.99c3.995,7.324,4.661,12.651-2.663,13.983"/>
		<path id="XMLID_89_" style="fill:none;stroke:#99614B;stroke-linecap:round;stroke-linejoin:round;stroke-miterlimit:10;" d="
			M407.069,325.683c18.644-0.666,23.305,1.332,37.953-1.998"/>
		<path id="XMLID_90_" style="fill:none;stroke:#99614B;stroke-linecap:round;stroke-linejoin:round;stroke-miterlimit:10;" d="
			M553.555,317.693c-13.317,6.658-25.968,17.312,1.332,23.305"/>
	</g>
	<g id="XMLID_91_">
		<path id="XMLID_62_" style="fill:#603B31;stroke:#3F261E;stroke-linecap:round;stroke-linejoin:round;stroke-miterlimit:10;" d="
			M347.933,321.064c0.176,7.081,1,21.264,1,21.264c12.338,9.475,27.05,7.259,31.895,4.16c-4.943-17.184-10.631-27.796-10.631-27.796
			L347.933,321.064z"/>
		<path id="XMLID_49_" style="fill:#603B31;stroke:#3F261E;stroke-linecap:round;stroke-linejoin:round;stroke-miterlimit:10;" d="
			M222.598,285.804c0.453,6.793,1.812,20.379,1.812,20.379c12.228,8.605,26.267,5.887,30.796,2.717
			c-5.435-16.304-11.322-26.267-11.322-26.267L222.598,285.804z"/>
		<g id="XMLID_61_">
			
				<path id="XMLID_120_" style="fill:#F4E9E4;stroke:#4C3A31;stroke-linecap:round;stroke-linejoin:round;stroke-miterlimit:10;" d="
				M223.298,268.549c6.183,4.122,4.637,7.214,9.79,2.576c5.152-4.637,0-2.576,8.244-1.031c0.713,0.134,1.339,0.272,1.929,0.413
				c-5.824-17.4-12.059-36.886-12.059-43.124c0-9.51-22.644-1.812-22.644-1.812c2.652,9.945,5.843,26.466,8.415,40.99
				C218.393,265.712,220.198,266.481,223.298,268.549z"/>
			<path id="XMLID_128_" style="fill:#603B31;stroke:#301913;stroke-miterlimit:10;" d="M225.315,287.616
				c0.906,2.717,10.869,13.586,12.228,13.586c-1.359-4.982,0.906-6.34,0-7.699c1.812,2.264,11.322,11.322,10.416,5.887
				c-0.906-5.435-10.869-18.568-5.435-13.586c5.435,4.982,8.605,8.152,8.605,8.152c-1.87-5.766-4.812-14.32-7.868-23.449
				c-0.59-0.141-1.216-0.28-1.929-0.413c-8.244-1.546-3.091-3.607-8.244,1.031c-5.152,4.637-3.607,1.546-9.79-2.576
				c-3.101-2.067-4.905-2.837-6.324-1.987c2.699,15.239,4.718,28.279,4.718,29.206C224.862,292.597,225.315,287.616,225.315,287.616
				z"/>
		</g>
		<path id="XMLID_48_" style="fill:#603B31;stroke:#301913;stroke-miterlimit:10;" d="M229.997,252.576
			c-3.265-2.177-6.183,4.637-2.061,6.183S233.088,254.637,229.997,252.576z"/>
		<path id="XMLID_50_" style="fill:#F4E9E4;stroke:#4C3A31;stroke-linecap:round;stroke-linejoin:round;stroke-miterlimit:10;" d="
			M193.614,85.18c12.681-22.191,25.361-35.777,32.154-34.419c6.793,1.359,35.324,28.984,46.193,38.042
			C215.805,95.596,193.614,85.18,193.614,85.18z"/>
		<path id="XMLID_43_" style="fill:#DB8F83;stroke:#6D2F21;stroke-linecap:round;stroke-linejoin:round;stroke-miterlimit:10;" d="
			M174.14,203.834c-6.793,38.947,57.515,54.798,79.706,9.058c-35.777-35.777-71.102-32.154-72.913-31.248
			c-1.812,0.906-8.152,24.002-8.152,24.002"/>
		<g id="XMLID_56_">
			<path id="XMLID_58_" style="fill:#F4E9E4;stroke:#4C3A31;stroke-linecap:round;stroke-linejoin:round;stroke-miterlimit:10;" d="
				M400.764,143.078c3.623-21.738-23.55-64.761-33.06-69.29c-9.51-4.529-19.021,8.605-28.984,29.89l-6.793,71.102
				c-1.811,17.209,13.133,75.178,17.662,88.311c3.214,9.32,0.259,30.962-2.484,48.799c1.907,0.197,4.284,0.866,6.931-1.428
				c5.077-4.4,1.693-10.832,7.108-7.447c5.416,3.385,3.046,7.108,6.093,8.124c2.209,0.736,3.885-1.013,5.8-1.776
				c-1.143-9.498-6.065-55.618-0.805-91.56C397.141,196.518,397.141,164.816,400.764,143.078z"/>
			<path id="XMLID_126_" style="fill:#603B31;stroke:#301913;stroke-miterlimit:10;" d="M367.237,311.139
				c-3.046-1.015-0.677-4.739-6.093-8.124c-5.416-3.385-2.031,3.046-7.108,7.447c-2.647,2.294-5.025,1.625-6.931,1.428
				c-1.122,7.298-2.21,13.962-2.824,18.88c0,0,6.667-8.806,6.667-7.9c0,0.906,1.449,2.96,5.331,9.311l4.94-8.822
				c0,0,4.487,1.428,4.94,10.939c0,0,2.523-10.239,3.882-13.409c0,0,4.457,9.679,9.439,10.585c0,0-5.435-14.039-6.34-21.285
				c-0.029-0.233-0.063-0.511-0.101-0.827C371.122,310.126,369.446,311.875,367.237,311.139z"/>
		</g>
		<path id="XMLID_70_" style="fill:#603B31;" d="M360.129,284.398c-2.434-4.706-7.447,8.124-2.031,9.816
			C363.514,295.907,365.206,294.215,360.129,284.398z"/>
		<path id="XMLID_71_" style="fill:#603B31;" d="M366.56,297.938c-2.271-1.514-2.031,5.416,0,5.077S367.576,298.615,366.56,297.938z
			"/>
		<path id="XMLID_44_" style="fill:#DB8F83;stroke:#6D2F21;stroke-linecap:round;stroke-linejoin:round;stroke-miterlimit:10;" d="
			M204.936,230.1c-5.887,17.662,11.775,27.625,11.322,3.623"/>
		<path id="XMLID_41_" style="fill:#DB8F83;stroke:#6D2F21;stroke-linecap:round;stroke-linejoin:round;stroke-miterlimit:10;" d="
			M187.727,221.949c-7.699,8.152-11.775,20.832-4.982,23.55c6.793,2.717,11.775-14.492,10.416-14.039"/>
		<path id="XMLID_45_" style="fill:#DB8F83;stroke:#6D2F21;stroke-linecap:round;stroke-linejoin:round;stroke-miterlimit:10;" d="
			M226.674,229.195c-1.812,12.681,4.529,17.209,8.152,16.756c3.623-0.453,4.076-11.775,0.906-16.756"/>
		<path id="XMLID_40_" style="fill:#F4E9E4;stroke:#4C3A31;stroke-linecap:round;stroke-linejoin:round;stroke-miterlimit:10;" d="
			M160.101,96.955c-14.039,17.209-49.816,38.495-58.421,64.761s-5.435,29.89-5.887,39.4c1.812-24.002,23.097-53.892,62.95-82.424
			C161.007,99.219,160.101,96.955,160.101,96.955z"/>
		<path id="XMLID_46_" style="fill:#DB8F83;stroke:#6D2F21;stroke-linecap:round;stroke-linejoin:round;stroke-miterlimit:10;" d="
			M202.219,207.457c-6.34,7.246-8.605,16.304-2.717,18.115c5.887,1.812,8.152-9.51,8.152-14.039"/>
		<path id="XMLID_33_" style="fill:none;stroke:#231F20;stroke-linecap:round;stroke-linejoin:round;stroke-miterlimit:10;" d="
			M601.902,332.591"/>
		<path id="XMLID_34_" style="fill:#F4E9E4;stroke:#4C3A31;stroke-linecap:round;stroke-linejoin:round;stroke-miterlimit:10;" d="
			M378.388,53.026c-16.756,14.492-30.796,23.55-40.759,25.361s-70.196,9.058-112.766-3.17c-36.23-5.435-51.175,3.17-52.534,2.717
			c-1.359-0.453-4.982,112.313-4.982,112.313c14.945,6.34,24.455,4.076,43.476,11.775s77.895,29.89,92.387,41.665
			c14.492,11.775,37.589,15.851,37.589,15.851c14.039-11.322,29.89-31.248,28.531-57.062s6.793-40.306,11.775-45.288
			c4.982-4.982,34.053-22.337,35.411-24.149C417.875,131.227,378.388,53.026,378.388,53.026z"/>
		<path id="XMLID_36_" style="fill:#F4E9E4;stroke:#4C3A31;stroke-linecap:round;stroke-linejoin:round;stroke-miterlimit:10;" d="
			M362.084,176.208c6.34-7.699,19.021-17.209,17.662-17.209"/>
		<path id="XMLID_37_" style="fill:#F4E9E4;stroke:#4C3A31;stroke-linecap:round;stroke-linejoin:round;stroke-miterlimit:10;" d="
			M230.75,87.897c-14.945-1.359-31.701-17.662-40.306-22.191c-8.605-4.529-18.568-12.681-28.984,9.058
			c-10.416,21.738-14.945,108.237-24.455,120.918c-24.002,3.623-21.285,5.887-11.775,25.361s26.72,59.327,28.078,67.479
			c1.359,8.152-0.453,16.756-0.453,16.756c4.529-2.717,6.34-10.416,6.34-10.416c2.717,5.435,12.228,11.322,13.586,12.228
			c-1.359-5.435-0.906-9.51-0.906-9.51c0.906,1.812,11.322,9.51,11.322,9.51c-1.359-6.34-2.717-11.775-3.17-13.133
			c3.623,3.623,4.529,6.34,4.529,6.34c-13.133-25.814-29.89-76.536-29.89-76.536c25.814,0.906,29.437-7.699,29.437-7.699
			c3.17-9.51,17.662-55.251,26.267-65.667"/>
		<path id="XMLID_35_" style="fill:#603B31;stroke:#3F261E;stroke-linecap:round;stroke-linejoin:round;stroke-miterlimit:10;" d="
			M155.572,295.768c0.453,6.793,1.812,20.379,1.812,20.379c12.228,8.605,26.267,5.887,30.796,2.717
			c-5.435-16.304-11.322-26.267-11.322-26.267L155.572,295.768z"/>
		<path id="XMLID_57_" style="fill:#603B31;stroke:#3F261E;stroke-linecap:round;stroke-linejoin:round;stroke-miterlimit:10;" d="
			M300.649,332.003c0.176,7.081,1,21.264,1,21.264c12.338,9.475,27.05,7.259,31.895,4.16c-4.943-17.184-10.631-27.796-10.631-27.796
			L300.649,332.003z"/>
		<path id="XMLID_69_" style="fill:#C1B581;stroke:#4C3A31;stroke-linecap:round;stroke-linejoin:round;stroke-miterlimit:10;" d="
			M430.178,45.44c0.519-13.732-2.949-18.719-6.762-18.976c-3.813-0.257-8.861,10.203-8.054,18.472
			C419.963,50.038,430.178,45.44,430.178,45.44z"/>
		<path id="XMLID_38_" style="fill:none;stroke:#231F20;stroke-linecap:round;stroke-linejoin:round;stroke-miterlimit:10;" d="
			M159.195,260.443c-3.17,2.264-8.605,8.605-2.717,7.699C162.366,267.236,159.195,260.443,159.195,260.443z"/>
		<path id="XMLID_52_" style="fill:#F4E9E4;stroke:#4C3A31;stroke-linecap:round;stroke-linejoin:round;stroke-miterlimit:10;" d="
			M420.958,47.591c9.058-4.529,14.945-9.51,24.908,0.906s29.437,4.529,28.531,12.228s-23.55,15.398-37.136,9.963
			C423.675,65.253,420.958,47.591,420.958,47.591z"/>
		<path id="XMLID_42_" style="fill:#8E5547;stroke:#633629;stroke-linecap:round;stroke-linejoin:round;stroke-miterlimit:10;" d="
			M92.17,178.925c-9.51,7.246-17.209,20.832-14.945,29.89c1.359-6.34,8.152-14.039,8.152-14.039
			c-4.982,16.756-5.258,26.365,4.982,41.212c9.058,13.133,9.058,20.379,9.058,20.379c13.133-19.021,19.927-51.628,5.435-71.102
			c9.51,6.793,10.869,21.738,10.869,21.738C114.361,179.831,103.492,176.661,92.17,178.925z"/>
		<path id="XMLID_51_" style="fill:#F4E9E4;stroke:#4C3A31;stroke-linecap:round;stroke-linejoin:round;stroke-miterlimit:10;" d="
			M366.16,67.518c-8.605,16.756-8.605,43.023,7.699,48.005c16.304,4.982,26.267,9.51,28.531,14.039
			c2.264,4.529,5.887,15.851,13.133,18.568c7.246,2.717,24.908,3.17,29.89-4.982c4.076,3.623,7.246,4.529,9.058,0.453
			c1.812-4.076,0.906-10.869,3.623-14.945c2.717-4.076,2.717-11.775,0.906-14.492c-1.812-2.717-9.058,0.453-9.058,0.453
			s-9.51-6.793-8.152-16.756c1.359-9.963,5.435-24.455,3.17-30.796c-2.264-6.34-21.285-32.154-39.4-31.701
			C387.445,35.816,371.594,43.968,366.16,67.518z"/>
		<path id="XMLID_131_" style="fill:#8E5547;" d="M399.876,60.967c12.157,5.299,14.963,7.793,17.457,23.068
			c2.494,15.275,2.494,20.262-13.093,23.691c-15.586,3.429-16.21,9.04-27.12,0.312s-13.716-8.728-13.404-21.197
			C364.027,74.371,388.653,51.927,399.876,60.967z"/>
		<path id="XMLID_68_" style="fill:#C1B581;stroke:#4C3A31;stroke-linecap:round;stroke-linejoin:round;stroke-miterlimit:10;" d="
			M397.604,42.105c-3.294-13.368-8.137-17.243-12.012-16.468c-3.875,0.775-6.006,12.206-2.906,19.955
			C388.692,49.273,397.604,42.105,397.604,42.105z"/>
		<path id="XMLID_47_" style="fill:#F4E9E4;stroke:#4C3A31;stroke-linecap:round;stroke-linejoin:round;stroke-miterlimit:10;" d="
			M391.521,46.233c-14.945-9.963-17.209,0.453-28.531,0.453s-34.419-10.869-39.4-7.699c-4.982,3.17-0.906,27.625,23.097,29.89
			c22.644,1.812,38.042-12.228,38.042-12.228"/>
		
			<ellipse id="XMLID_53_" style="fill:#231F20;stroke:#231F20;stroke-linecap:round;stroke-linejoin:round;stroke-miterlimit:10;" cx="403.522" cy="86.991" rx="1.585" ry="6.34"/>
		
			<ellipse id="XMLID_55_" style="fill:#231F20;stroke:#231F20;stroke-linecap:round;stroke-linejoin:round;stroke-miterlimit:10;" cx="432.506" cy="89.256" rx="1.585" ry="6.34"/>
		<g id="XMLID_39_">
			<path id="XMLID_66_" style="fill:#F4E9E4;stroke:#4C3A31;stroke-linecap:round;stroke-linejoin:round;stroke-miterlimit:10;" d="
				M284.642,185.719c-1.812,17.209,13.133,75.177,17.662,88.311c2.499,7.247,3.063,21.389,1.777,35.045
				c2.469-0.784,4.6,0.449,5.971,2.994c2.47,4.587-3.529,7.057,2.117,10.233s8.469,0.706,10.939,1.059
				c0.78,0.111,1.876-0.093,3.066-0.271c-0.134-0.692-0.244-1.352-0.321-1.96c-0.906-7.246-6.34-55.251-0.906-92.387
				c24.908-21.285,24.908-52.987,28.531-74.725s-23.55-64.761-33.06-69.29c-23.441,8.122-33.23,52.433-34.261,53.979"/>
			<path id="XMLID_123_" style="fill:#603B31;stroke:#301913;stroke-miterlimit:10;" d="M323.108,323.36
				c-2.47-0.353-5.293,2.117-10.939-1.059s0.353-5.646-2.117-10.233c-1.37-2.545-3.502-3.778-5.971-2.994
				c-1.045,11.091-3.309,21.863-6.759,28.358c0,0,6.34-4.529,6.34-3.623c0,0.906,1.359,2.264,0.453,10.416l6.34-10.869
				c0,0,0.906,2.717,1.359,12.228c0,0,5.435-11.322,6.793-14.492c0,0,8.605,10.416,13.586,11.322c0,0-4.558-11.777-6.02-19.325
				C324.984,323.266,323.888,323.471,323.108,323.36z"/>
		</g>
		<path id="XMLID_54_" style="fill:#603B31;" d="M314.993,297.6c-5.293,2.47-7.057,6.352-1.764,6.705S314.993,297.6,314.993,297.6z"
			/>
		<path id="XMLID_59_" style="fill:#603B31;" d="M316.404,281.721c-1.468,0.979-1.059,5.999,1.059,5.293
			C319.58,286.309,317.463,281.015,316.404,281.721z"/>
		<path id="XMLID_60_" style="fill:none;stroke:#231F20;stroke-linecap:round;stroke-linejoin:round;stroke-miterlimit:10;" d="
			M414.502,116.225c1.411-2.117,4.433-6.326,6.704-5.293c3.882,1.764,10.939,5.646,11.645,7.763"/>
		<path id="XMLID_63_" style="fill:none;stroke:#231F20;stroke-linecap:round;stroke-linejoin:round;stroke-miterlimit:10;" d="
			M401.092,119.407c-1.55,6.781,6.2,22.668,15.306,22.861c9.106,0.194,20.343-6.781,24.411-4.844"/>
		<path id="XMLID_65_" style="fill:none;stroke:#231F20;stroke-linecap:round;stroke-linejoin:round;stroke-miterlimit:10;" d="
			M437.515,137.231c3.487,1.937,7.899,5.917,7.899,5.917"/>
		<path id="XMLID_64_" style="fill:#231F20;stroke:#231F20;stroke-linecap:round;stroke-linejoin:round;stroke-miterlimit:10;" d="
			M418.528,119.407c2.906-2.906,6.006-1.744,8.331,4.069C423.759,120.182,418.528,119.407,418.528,119.407z"/>
		<path id="XMLID_67_" style="fill:none;stroke:#231F20;stroke-linecap:round;stroke-linejoin:round;stroke-miterlimit:10;" d="
			M454.37,118.245c-3.1-1.937-4.428-3.628-4.428-3.628"/>
		<g id="XMLID_121_">
			<path id="XMLID_124_" style="fill:#603B31;" d="M183.649,298.482c0.304,0.616,0.607,1.223,0.907,1.814
				C184.556,300.296,184.33,299.616,183.649,298.482z"/>
			<path id="XMLID_125_" style="fill:#603B31;stroke:#301913;stroke-miterlimit:10;" d="M160.101,281.275
				c-6.34,1.812-1.811-5.887-9.51-5.887c-0.593,0-1.104,0.05-1.578,0.123c2.317,6.035,3.918,10.747,4.296,13.01
				c1.359,8.152-0.453,16.756-0.453,16.756c4.529-2.717,6.34-10.416,6.34-10.416c2.717,5.435,12.228,11.322,13.586,12.228
				c-1.359-5.435-0.906-9.51-0.906-9.51c0.906,1.812,11.322,9.51,11.322,9.51c-1.359-6.34-2.717-11.775-3.17-13.133
				c1.81,1.81,2.942,3.394,3.621,4.526c-4.281-8.671-8.89-19.745-13.145-30.699c-1.526,1.978-2.88,4.669-4.063,6.246
				C163.724,277.652,166.441,279.464,160.101,281.275z"/>
		</g>
		<path id="XMLID_122_" style="fill:#8E5547;" d="M152.194,169.621c11.851,1.546,24.732,2.576,31.43-18.034
			s17.003-26.793,25.762-35.552c8.759-8.759,15.457-14.427,9.79-22.156c-5.668-7.729-8.759-13.912-19.064-21.125
			s-22.303-17.971-34.253-4.693c-11.339,12.599-18.111,87.722-20.878,100.014C144.514,170.148,152.194,169.621,152.194,169.621z"/>
		<path id="XMLID_127_" style="fill:#8E5547;" d="M176.055,179.424c-11.949,3.89-34.29,17.768-17.457,24.626
			s16.21,10.91,21.509,1.559C185.407,196.257,189.46,175.059,176.055,179.424z"/>
		<path id="XMLID_119_" style="fill:#8E5547;" d="M256.793,113.026c-31.731,1.22-42.083,18.704-33.355,40.836
			s-4.676,30.861,16.21,35.537c20.886,4.676,27.12,3.429,33.978-8.417s20.262-14.028,9.352-19.639
			c-10.91-5.611-17.145,7.793-13.716-14.651C272.691,124.248,264.898,112.714,256.793,113.026z"/>
		<path id="XMLID_129_" style="fill:#8E5547;" d="M340.647,124.56c-14.165-0.944-34.602,7.17-25.25,29.614
			c9.352,22.444,9.04,32.731,14.963,39.901s7.17,6.235,10.287,3.741c3.117-2.494,6.93-7.703,7.481-10.91
			c6.858-39.901,5.04-41.197,4.052-46.136C350.623,132.976,345.323,124.871,340.647,124.56z"/>
		<path id="XMLID_130_" style="fill:#8E5547;" d="M406.545,38.543c-7.001,1.195,0.416,14.132,9.144,18.288
			c8.728,4.156,17.872,11.222,19.535,7.066c1.663-4.156,3.432-6.299,1.719-8.013C436.023,54.965,423.586,35.633,406.545,38.543z"/>
	</g>
</g>
</svg>
