<?xml version="1.0" encoding="utf-8"?>
<!-- Generator: Adobe Illustrator 19.0.0, SVG Export Plug-In . SVG Version: 6.00 Build 0)  -->
<!DOCTYPE svg PUBLIC "-//W3C//DTD SVG 1.1//EN" "http://www.w3.org/Graphics/SVG/1.1/DTD/svg11.dtd">
<svg version="1.1" id="Layer_1" xmlns="http://www.w3.org/2000/svg" xmlns:xlink="http://www.w3.org/1999/xlink" x="0px" y="0px"
	 width="648px" height="432px" viewBox="-215 325 648 432" style="enable-background:new -215 325 648 432;" xml:space="preserve">
<g id="Layer_2">
	<rect id="XMLID_1_" x="-215" y="325" style="fill:#D7E4F2;" width="648" height="432"/>
</g>
<rect x="-215" y="506.129" style="fill:#C4D6B0;stroke:#778763;stroke-linecap:round;stroke-linejoin:round;stroke-miterlimit:10;" width="647.813" height="43.484"/>
<rect x="-215" y="549.613" style="fill:#9AA0A0;stroke:#231F20;stroke-linecap:round;stroke-linejoin:round;stroke-miterlimit:10;" width="647.813" height="20.387"/>
<rect x="-215" y="570" style="fill:#454949;stroke:#231F20;stroke-linecap:round;stroke-linejoin:round;stroke-miterlimit:10;" width="647.813" height="187"/>
<rect x="-215" y="569.613" style="fill:#7C7F7F;stroke:#231F20;stroke-linecap:round;stroke-linejoin:round;stroke-miterlimit:10;" width="647.813" height="20.387"/>
<g id="Layer_1_1_">
	<g id="XMLID_43_">
		<path id="XMLID_71_" style="fill:#54463F;stroke:#352B26;stroke-linecap:round;stroke-linejoin:round;stroke-miterlimit:10;" d="
			M113.8,513.5c3.3-6.1,30.6-18.2,38.4-15.7c7.9,2.4,13.3,16.6,13.3,16.6L113.8,513.5z"/>
		<path id="XMLID_63_" style="fill:#E8A679;stroke:#7A2D1E;stroke-linecap:round;stroke-linejoin:round;stroke-miterlimit:10;" d="
			M133.8,440.3c0-7-18.5,5.1-20.9,14.8s-10,11.2-10,11.2c-1.5,3.3,3,7.3,3,7.3s5.7,24.5,13.3,26c7.6,1.5,15.4,7,15.4,7l15.7-7.6
			c-1.2-5.4-2.4-21.5-2.4-21.5c5.1-1.8,5.1-27.2,2.7-29S133.8,440.6,133.8,440.3z"/>
		<path id="XMLID_66_" style="fill:#7C4332;stroke:#492417;stroke-linecap:round;stroke-linejoin:round;stroke-miterlimit:10;" d="
			M121.1,443.9c-1.8-7.6,4.8-10.6,8.8-11.5c3.9-0.9,18.2,2.1,23.6,8.5s9.7,10.9,9.1,15.1s0.6,12.1-4.8,17.9
			c-5.4,5.7-9.4,10.6-9.4,10.6l-4.5-14.8l0.9-12.1c0.6-2.7,1.2-5.4,1.2-5.4C142.3,450.6,132,443,121.1,443.9z"/>
		<path id="XMLID_58_" style="fill:#423C3D;stroke:#231F20;stroke-linecap:round;stroke-linejoin:round;stroke-miterlimit:10;" d="
			M30.6,518.3c5.5-17.8,9.2-22.6,19.2-25.2c9.2-2.2,13.3,3.3,13.3,3.3s-18.9,3.7-18.1,20C37.7,518,30.6,518.3,30.6,518.3z"/>
		<path id="XMLID_68_" style="fill:none;stroke:#231F20;stroke-linecap:round;stroke-linejoin:round;stroke-miterlimit:10;" d="
			M121.1,450.9c2.1-1.5,5.7-0.9,7,3"/>
		
			<ellipse id="XMLID_67_" transform="matrix(0.1279 -0.9918 0.9918 0.1279 -352.7399 522.6362)" style="fill:none;stroke:#231F20;stroke-linecap:round;stroke-linejoin:round;stroke-miterlimit:10;" cx="120.811" cy="461.893" rx="2.8" ry="0.4"/>
		<path id="XMLID_64_" style="fill:#7C4332;stroke:#492417;stroke-linecap:round;stroke-linejoin:round;stroke-miterlimit:10;" d="
			M127.5,478.4c-7-7.9-15.4-6.7-18.2-4.5c-5.7-2.4-7.6,1.2-8.2,3.9s-0.3,4.5,1.5,6.1c-7.3,7.3-6.1,12.7-2.7,16
			c0,8.8,12.1,9.4,14.5,4.2c7.3,5.1,12.7,3.9,14.2,1.8c4.5,1.5,4.8-8.2,4.8-8.2c4.5-1.5,10.9-11.2,10.9-11.2
			c-0.3-3.3,3.9-21.5,3.9-21.5l-4.5-2.1l-5.7,13C136.2,476.6,127.5,478.4,127.5,478.4z"/>
		<path id="XMLID_65_" style="fill:none;stroke:#231F20;stroke-linecap:round;stroke-linejoin:round;stroke-miterlimit:10;" d="
			M118.7,479.9c-0.9,4.2-7.3,3.6-7.3,3.6c-4.5,3-8.8,0.3-8.8,0.3"/>
		<path id="XMLID_70_" style="fill:#E8A679;stroke:#7A2D1E;stroke-linecap:round;stroke-linejoin:round;stroke-miterlimit:10;" d="
			M63,488.4c-8.2-3.6-20.6,2.4-19.1,6.4c1.5,3.9,5.4,7,10.9,6.7c5.4-0.3,2.7,3.9,6.4,6.4s5.4,1.2,5.4,1.2l3,7.9l9.7-0.9
			C79.4,515.9,67.6,489.6,63,488.4z"/>
		<path id="XMLID_60_" style="fill:#595053;stroke:#231F20;stroke-linecap:round;stroke-linejoin:round;stroke-miterlimit:10;" d="
			M179.3,450.3c-12.2,3.3-16.3,15.9-5.9,27.4c0.4,10,0,11.5,0,11.5s-11.5,6.3-12.2,29.2c20.3,4.1,30,0,30-1.1
			C191.2,516.1,179.3,450.3,179.3,450.3z"/>
		<path id="XMLID_61_" style="fill:#595053;stroke:#231F20;stroke-linecap:round;stroke-linejoin:round;stroke-miterlimit:10;" d="
			M329.2,459.9c-10.7-3.7-36.6,16.6-35.1,55.5c35.5,4.4,53.6,2.6,53.6,0.4C347.7,513.5,329.2,459.9,329.2,459.9z"/>
		<path id="XMLID_62_" style="fill:#E8A679;stroke:#7A2D1E;stroke-linecap:round;stroke-linejoin:round;stroke-miterlimit:10;" d="
			M145.6,466.3c6.4-5.1,9.4-0.9,8.5,4.2c-0.9,5.1-6.7,8.2-10.3,5.4"/>
		
			<path id="XMLID_57_" style="opacity:0.55;fill:#8EDBED;stroke:#13273F;stroke-linecap:round;stroke-linejoin:round;stroke-miterlimit:10;enable-background:new    ;" d="
			M15.5,494.6C8.9,500-0.6,506.1-0.6,519.9c167.1,6.6,195.8,5.4,195.8,5.4s-6.1-32.4-7.3-30.6C186.7,496.4,15.5,494.6,15.5,494.6z"
			/>
		
			<path id="XMLID_50_" style="opacity:0.55;fill:#8EDBED;stroke:#13273F;stroke-linecap:round;stroke-linejoin:round;stroke-miterlimit:10;enable-background:new    ;" d="
			M190.1,494.6c-6.6,5.4,2.2,11.5,2.2,25.3c167.1,6.6,165.2,5.4,165.2,5.4s-6.1-32.4-7.3-30.6C349,496.4,190.1,494.6,190.1,494.6z"
			/>
		<path id="XMLID_42_" style="fill:#BC4242;stroke:#631111;stroke-linecap:round;stroke-linejoin:round;stroke-miterlimit:10;" d="
			M-4.9,513.5c-30.7,0.6-106.2,17.7-120.4,25.6c-16.5,8.7-34.7,44.9-24.4,76.4c117.3,0,523.7,0,523.7,0
			c22.1-46.5-10.2-103.2-10.2-103.2C186.6,512.4-3.7,512.3-4.9,513.5z"/>
		<path id="XMLID_74_" style="fill:#BC4242;stroke:#631111;stroke-linecap:round;stroke-linejoin:round;stroke-miterlimit:10;" d="
			M191.2,517.2c2.5,23.2,0.7,95.9,0.7,95.9"/>
		
			<ellipse id="XMLID_47_" transform="matrix(-0.4834 0.8754 -0.8754 -0.4834 314.0027 954.9702)" style="fill:#EDB63B;stroke:#592D1E;stroke-linecap:round;stroke-linejoin:round;stroke-miterlimit:10;" cx="-124.777" cy="570.136" rx="23" ry="9.4"/>
		<path id="XMLID_53_" style="fill:#BC4242;stroke:#631111;stroke-linecap:round;stroke-linejoin:round;stroke-miterlimit:10;" d="
			M9,527c1.2,9,1.2,55.5,1.2,55.5"/>
		<path id="XMLID_52_" style="fill:#595053;stroke:#231F20;stroke-linecap:round;stroke-linejoin:round;stroke-miterlimit:10;" d="
			M7.8,516.9c4.2-26.3,47.7-93.1,47.7-93.1S38.8,425.6,37,425s-42.4,71-47.1,88.9C-2.4,523.4,7.8,516.9,7.8,516.9z"/>
		<path id="XMLID_55_" style="fill:#595053;stroke:#231F20;stroke-linecap:round;stroke-linejoin:round;stroke-miterlimit:10;" d="
			M170.7,422.6c6.6,32.2,9,92.5,11.3,95.5c2.4,3,20.9,3.6,20.3,1.8c-0.6-1.8-13.1-94.9-13.1-94.9L170.7,422.6z"/>
		
			<ellipse id="XMLID_51_" style="fill:#595053;stroke:#231F20;stroke-linecap:round;stroke-linejoin:round;stroke-miterlimit:10;" cx="6.6" cy="519.9" rx="23.9" ry="19.1"/>
		<path id="XMLID_56_" style="fill:#595053;stroke:#231F20;stroke-linecap:round;stroke-linejoin:round;stroke-miterlimit:10;" d="
			M313.4,427.9c11.3,20.9,21.5,90.1,21.5,90.1c3,0.6,27.5-1.2,27.5-1.2c-3-29.2-28.6-83.6-28.6-83.6L313.4,427.9z"/>
		<path id="XMLID_69_" style="fill:#EA7B3D;stroke:#592D1E;stroke-linecap:round;stroke-linejoin:round;stroke-miterlimit:10;" d="
			M367.2,533.1c-6.9-1.4-11,1.8-10.6,6c0.4,4.2,8.3,43.3,8.3,43.3l12-0.5L367.2,533.1z"/>
		
			<polygon id="XMLID_72_" style="fill:#BC4242;stroke:#631111;stroke-linecap:round;stroke-linejoin:round;stroke-miterlimit:10;" points="
			146.8,531.7 147.7,540.9 180.8,541.4 179.9,531.2 		"/>
		<path id="XMLID_44_" style="fill:#6D6467;stroke:#231F20;stroke-linecap:round;stroke-linejoin:round;stroke-miterlimit:10;" d="
			M335.5,620.1c0,9.6-10.4,18.5-14.9,26.3h33.6h10.2c7,0,12.8-5.8,12.8-12.8V621c0-7-5.8-12.8-12.8-12.8h-5.2
			c-5.5-26.6-29.1-46.6-57.3-46.6s-51.8,20-57.3,46.6H22.1c-5.5-26.6-29.1-46.6-57.3-46.6s-51.8,20-57.3,46.6h-57
			c-7,0-12.8,5.8-12.8,12.8v12.6c0,7,5.8,12.8,12.8,12.8h62.1h29.2c-4.5-7.7-0.6-14.3-0.6-23.8c39.2,0,58.1-2.4,56.4-2.4
			c0,9.6-7.9,18.5-12.3,26.3h31.8h232.6h32.7c-4.5-7.7-10.4-16.7-10.4-26.3"/>
		<path id="XMLID_54_" style="fill:#595053;stroke:#231F20;stroke-linecap:round;stroke-linejoin:round;stroke-miterlimit:10;" d="
			M39.4,432.1c103.2-3.6,249.5-4.8,297.8,2.4c3.6-7.2-68.6-25.8-159.4-25.1c-70.4,0.6-88.3,1.8-88.3,1.8S15,420.8,39.4,432.1z"/>
		
			<circle id="XMLID_45_" style="fill:#302D2E;stroke:#231F20;stroke-linecap:round;stroke-linejoin:round;stroke-miterlimit:10;" cx="-35.2" cy="620.1" r="47.9"/>
		
			<circle id="XMLID_46_" style="fill:#A09097;stroke:#231F20;stroke-linecap:round;stroke-linejoin:round;stroke-miterlimit:10;" cx="-35.2" cy="620.1" r="32.3"/>
		
			<circle id="XMLID_75_" style="fill:#302D2E;stroke:#231F20;stroke-linecap:round;stroke-linejoin:round;stroke-miterlimit:10;" cx="301.9" cy="620.1" r="47.9"/>
		
			<circle id="XMLID_73_" style="fill:#A09097;stroke:#231F20;stroke-linecap:round;stroke-linejoin:round;stroke-miterlimit:10;" cx="301.9" cy="620.1" r="32.3"/>
		<path id="XMLID_48_" style="fill:none;stroke:#FFFFFF;stroke-linecap:round;stroke-linejoin:round;stroke-miterlimit:10;" d="
			M206.2,489"/>
		<path id="XMLID_3_" style="fill:none;stroke:#FFFFFF;stroke-linecap:round;stroke-linejoin:round;stroke-miterlimit:10;" d="
			M249.1,441.7"/>
	</g>
</g>
<path style="fill:#E4EDED;stroke:#787F7F;stroke-linecap:round;stroke-linejoin:round;stroke-miterlimit:10;" d="M-131.715,712.156
	h-50.891c-2.2,0-4.699-1.207-5.553-2.683l-2.61-4.509c-0.854-1.476,0.247-2.683,2.447-2.683h50.891c2.2,0,4.699,1.207,5.553,2.683
	l2.61,4.509C-128.414,710.948-129.515,712.156-131.715,712.156z"/>
<path style="fill:#E4EDED;stroke:#787F7F;stroke-linecap:round;stroke-linejoin:round;stroke-miterlimit:10;" d="M-13.115,712.156
	h-50.891c-2.2,0-4.699-1.207-5.553-2.683l-2.61-4.509c-0.854-1.476,0.247-2.683,2.447-2.683h50.891c2.2,0,4.699,1.207,5.553,2.683
	l2.61,4.509C-9.814,710.948-10.915,712.156-13.115,712.156z"/>
<path style="fill:#E4EDED;stroke:#787F7F;stroke-linecap:round;stroke-linejoin:round;stroke-miterlimit:10;" d="M102.577,712.156
	H51.686c-2.2,0-4.699-1.207-5.553-2.683l-2.61-4.509c-0.854-1.476,0.247-2.683,2.447-2.683H96.86c2.2,0,4.699,1.207,5.553,2.683
	l2.61,4.509C105.878,710.948,104.777,712.156,102.577,712.156z"/>
<path style="fill:#E4EDED;stroke:#787F7F;stroke-linecap:round;stroke-linejoin:round;stroke-miterlimit:10;" d="M227.538,712.156
	h-50.891c-2.2,0-4.699-1.207-5.553-2.683l-2.61-4.509c-0.854-1.476,0.247-2.683,2.447-2.683h50.891c2.2,0,4.699,1.207,5.553,2.683
	l2.61,4.509C230.839,710.948,229.738,712.156,227.538,712.156z"/>
<path style="fill:#E4EDED;stroke:#787F7F;stroke-linecap:round;stroke-linejoin:round;stroke-miterlimit:10;" d="M355.86,712.156
	h-50.891c-2.2,0-4.699-1.207-5.553-2.683l-2.61-4.509c-0.854-1.476,0.247-2.683,2.447-2.683h50.891c2.2,0,4.699,1.207,5.553,2.683
	l2.61,4.509C359.161,710.948,358.06,712.156,355.86,712.156z"/>
</svg>
