<?xml version="1.0" encoding="utf-8"?>
<!-- Generator: Adobe Illustrator 19.0.0, SVG Export Plug-In . SVG Version: 6.00 Build 0)  -->
<!DOCTYPE svg PUBLIC "-//W3C//DTD SVG 1.1//EN" "http://www.w3.org/Graphics/SVG/1.1/DTD/svg11.dtd">
<svg version="1.1" xmlns="http://www.w3.org/2000/svg" xmlns:xlink="http://www.w3.org/1999/xlink" x="0px" y="0px" width="648px"
	 height="432px" viewBox="0 0 648 432" style="enable-background:new 0 0 648 432;" xml:space="preserve">
<symbol  id="brick1" viewBox="-7.221 -2.927 14.442 5.854">
	
		<polygon id="XMLID_113_" style="fill:#935841;stroke:#7C412E;stroke-linecap:round;stroke-linejoin:round;stroke-miterlimit:10;" points="
		6.721,-2.427 -6.721,-2.427 -6.721,2.427 6.721,2.427 	"/>
</symbol>
<symbol  id="schoolwindows_3_" viewBox="-65.912 -69.553 139.106 139.298">
	
		<polygon id="XMLID_205_" style="fill:#ABE2EF;stroke:#719EA5;stroke-linecap:round;stroke-linejoin:round;stroke-miterlimit:10;" points="
		32.973,-69.053 -32.052,-69.053 -32.052,69.052 32.973,69.052 	"/>
	
		<polygon id="XMLID_204_" style="fill:#EAE3D3;stroke:#A09070;stroke-linecap:round;stroke-linejoin:round;stroke-miterlimit:10;" points="
		32.973,33.367 -32.052,33.367 -32.052,37.41 32.973,37.41 	"/>
	
		<polygon id="XMLID_203_" style="fill:#EAE3D3;stroke:#A09070;stroke-linecap:round;stroke-linejoin:round;stroke-miterlimit:10;" points="
		32.973,-46.891 -32.052,-46.891 -32.052,-42.848 32.973,-42.848 	"/>
	
		<polygon id="XMLID_202_" style="fill:#EAE3D3;stroke:#A09070;stroke-linecap:round;stroke-linejoin:round;stroke-miterlimit:10;" points="
		-46.294,-69.053 -27.367,-69.053 -27.367,69.052 -46.294,69.052 	"/>
	
		<polygon id="XMLID_201_" style="fill:#EAE3D3;stroke:#A09070;stroke-linecap:round;stroke-linejoin:round;stroke-miterlimit:10;" points="
		27.363,-69.053 46.289,-69.053 46.289,69.052 27.363,69.052 	"/>
	<path id="XMLID_200_" style="fill:none;stroke:#FFFFFF;stroke-linecap:round;stroke-linejoin:round;stroke-miterlimit:10;" d="
		M-12.72,29.129c-3.662-3.662-9.031-9.096-9.031-9.096"/>
	<path id="XMLID_177_" style="fill:none;stroke:#FFFFFF;stroke-linecap:round;stroke-linejoin:round;stroke-miterlimit:10;" d="
		M-7.578,27.897C-11.24,24.235-21.18,14.556-21.18,14.556"/>
	<path id="XMLID_176_" style="fill:none;stroke:#FFFFFF;stroke-linecap:round;stroke-linejoin:round;stroke-miterlimit:10;" d="
		M16.997,29.129c-3.662-3.662-9.031-9.096-9.031-9.096"/>
	<path id="XMLID_175_" style="fill:none;stroke:#FFFFFF;stroke-linecap:round;stroke-linejoin:round;stroke-miterlimit:10;" d="
		M22.14,27.897C18.477,24.235,8.537,14.556,8.537,14.556"/>
	<path id="XMLID_174_" style="fill:none;stroke:#FFFFFF;stroke-linecap:round;stroke-linejoin:round;stroke-miterlimit:10;" d="
		M16.997,57.536c-3.662-3.662-9.031-9.096-9.031-9.096"/>
	<path id="XMLID_173_" style="fill:none;stroke:#FFFFFF;stroke-linecap:round;stroke-linejoin:round;stroke-miterlimit:10;" d="
		M22.14,56.305C18.477,52.642,8.537,42.964,8.537,42.964"/>
	<path id="XMLID_172_" style="fill:none;stroke:#FFFFFF;stroke-linecap:round;stroke-linejoin:round;stroke-miterlimit:10;" d="
		M-10.434,57.536c-3.662-3.662-9.031-9.096-9.031-9.096"/>
	<path id="XMLID_171_" style="fill:none;stroke:#FFFFFF;stroke-linecap:round;stroke-linejoin:round;stroke-miterlimit:10;" d="
		M-5.292,56.305c-3.662-3.662-13.603-13.341-13.603-13.341"/>
	<path id="XMLID_170_" style="fill:none;stroke:#FFFFFF;stroke-linecap:round;stroke-linejoin:round;stroke-miterlimit:10;" d="
		M-11.256-51.469c-3.662-3.662-9.031-9.096-9.031-9.096"/>
	<path id="XMLID_169_" style="fill:none;stroke:#FFFFFF;stroke-linecap:round;stroke-linejoin:round;stroke-miterlimit:10;" d="
		M-6.114-52.7c-3.662-3.662-13.603-13.341-13.603-13.341"/>
	<path id="XMLID_168_" style="fill:none;stroke:#FFFFFF;stroke-linecap:round;stroke-linejoin:round;stroke-miterlimit:10;" d="
		M-12.323-24.886c-3.662-3.662-9.031-9.096-9.031-9.096"/>
	<path id="XMLID_167_" style="fill:none;stroke:#FFFFFF;stroke-linecap:round;stroke-linejoin:round;stroke-miterlimit:10;" d="
		M-7.244-26.884c-3.662-3.662-13.603-13.341-13.603-13.341"/>
	<path id="XMLID_166_" style="fill:none;stroke:#FFFFFF;stroke-linecap:round;stroke-linejoin:round;stroke-miterlimit:10;" d="
		M16.175-51.469c-3.662-3.662-9.031-9.096-9.031-9.096"/>
	<path id="XMLID_165_" style="fill:none;stroke:#FFFFFF;stroke-linecap:round;stroke-linejoin:round;stroke-miterlimit:10;" d="
		M21.318-52.7C17.655-56.363,7.715-66.041,7.715-66.041"/>
	<path id="XMLID_164_" style="fill:none;stroke:#FFFFFF;stroke-linecap:round;stroke-linejoin:round;stroke-miterlimit:10;" d="
		M16.958-23.422c-3.662-3.662-9.031-9.096-9.031-9.096"/>
	<path id="XMLID_163_" style="fill:none;stroke:#FFFFFF;stroke-linecap:round;stroke-linejoin:round;stroke-miterlimit:10;" d="
		M21.164-26.884C17.501-30.546,7.561-40.225,7.561-40.225"/>
	
		<polygon id="XMLID_162_" style="fill:#EAE3D3;stroke:#A09070;stroke-linecap:round;stroke-linejoin:round;stroke-miterlimit:10;" points="
		-1.561,-69.006 -1.561,69.245 2.482,69.245 2.482,-69.006 	"/>
	<polygon id="XMLID_161_" style="fill:#AA765F;" points="59.787,-17.152 -54.798,-17.152 -54.798,5.87 59.787,5.87 	"/>
	
		<polygon id="XMLID_160_" style="fill:#EAE3D3;stroke:#A09070;stroke-linecap:round;stroke-linejoin:round;stroke-miterlimit:10;" points="
		-65.412,11.296 -65.412,5.171 72.693,5.171 72.693,11.296 	"/>
	
		<polygon id="XMLID_159_" style="fill:#EAE3D3;stroke:#A09070;stroke-linecap:round;stroke-linejoin:round;stroke-miterlimit:10;" points="
		-65.412,-15.921 -65.412,-22.047 72.693,-22.047 72.693,-15.921 	"/>
</symbol>
<g id="Layer_7">
	<rect id="XMLID_14_" y="264.141" style="fill:#C2D39F;" width="648" height="97.79"/>
	<rect id="XMLID_31_" y="0" style="fill:#B9D9EF;" width="648" height="144.008"/>
</g>
<g id="Layer_2">
	
		<rect id="XMLID_4_" y="100.75" style="fill:#AA765F;stroke:#5E4132;stroke-linecap:round;stroke-linejoin:round;stroke-miterlimit:10;" width="648" height="190.936"/>
	
		<use xlink:href="#brick1"  width="14.442" height="5.854" id="XMLID_143_" x="-7.221" y="-2.927" transform="matrix(1 0 0 -1 581.3123 244.1025)" style="overflow:visible;"/>
	
		<use xlink:href="#brick1"  width="14.442" height="5.854" id="XMLID_146_" x="-7.221" y="-2.927" transform="matrix(1 0 0 -1 573.744 256.7164)" style="overflow:visible;"/>
	
		<use xlink:href="#brick1"  width="14.442" height="5.854" id="XMLID_119_" x="-7.221" y="-2.927" transform="matrix(1 0 0 -1 581.943 162.7427)" style="overflow:visible;"/>
	
		<rect id="XMLID_5_" y="280.586" style="fill:#EAE3D3;stroke:#999387;stroke-linecap:round;stroke-linejoin:round;stroke-miterlimit:10;" width="648" height="13.849"/>
	
		<use xlink:href="#brick1"  width="14.442" height="5.854" id="XMLID_152_" x="-7.221" y="-2.927" transform="matrix(1 0 0 -1 16.1689 157.7296)" style="overflow:visible;"/>
	
		<use xlink:href="#brick1"  width="14.442" height="5.854" id="XMLID_154_" x="-7.221" y="-2.927" transform="matrix(1 0 0 -1 9.3071 241.2643)" style="overflow:visible;"/>
	
		<use xlink:href="#brick1"  width="14.442" height="5.854" id="XMLID_178_" x="-7.221" y="-2.927" transform="matrix(1 0 0 -1 15.8706 251.7061)" style="overflow:visible;"/>
	
		<use xlink:href="#brick1"  width="14.442" height="5.854" id="XMLID_179_" x="-7.221" y="-2.927" transform="matrix(1 0 0 -1 11.6938 269.9048)" style="overflow:visible;"/>
	
		<use xlink:href="#brick1"  width="14.442" height="5.854" id="XMLID_180_" x="-7.221" y="-2.927" transform="matrix(1 0 0 -1 110.0002 264.6665)" style="overflow:visible;"/>
	
		<use xlink:href="#brick1"  width="14.442" height="5.854" id="XMLID_153_" x="-7.221" y="-2.927" transform="matrix(0.9092 0 0 -1 5.7863 165.4864)" style="overflow:visible;"/>
	
		<rect id="XMLID_9_" y="121.704" style="fill:#EAE3D3;stroke:#696358;stroke-linecap:round;stroke-linejoin:round;stroke-miterlimit:10;" width="648" height="12.195"/>
	
		<rect id="XMLID_103_" y="94.373" style="fill:#EAE3D3;stroke:#696358;stroke-linecap:round;stroke-linejoin:round;stroke-miterlimit:10;" width="648" height="17.978"/>
	
		<use xlink:href="#schoolwindows_3_"  width="139.106" height="139.298" id="XMLID_10_" x="-65.912" y="-69.553" transform="matrix(1 0 0 -1 315.009 211.2124)" style="overflow:visible;"/>
	<g id="schoolwindows_2_">
		
			<rect id="XMLID_147_" x="585.766" y="142.16" style="fill:#EAE3D3;stroke:#A09070;stroke-linecap:round;stroke-linejoin:round;stroke-miterlimit:10;" width="18.927" height="138.106"/>
		
			<polyline id="XMLID_86_" style="fill:#ABE2EF;stroke:#719EA5;stroke-linecap:round;stroke-linejoin:round;stroke-miterlimit:10;" points="
			648,189.741 648,178.161 600.008,178.161 600.008,200.231 648,200.231 648,189.741 		"/>
		
			<polyline id="XMLID_89_" style="fill:#ABE2EF;stroke:#719EA5;stroke-linecap:round;stroke-linejoin:round;stroke-miterlimit:10;" points="
			648,269.218 648,258.103 600.008,258.103 600.008,280.266 648,280.266 648,269.218 		"/>
		
			<polyline id="XMLID_87_" style="fill:#ABE2EF;stroke:#719EA5;stroke-linecap:round;stroke-linejoin:round;stroke-miterlimit:10;" points="
			648,243.25 648,233.259 600.008,233.259 600.008,254.061 648,254.061 648,243.25 		"/>
		
			<polyline id="XMLID_2_" style="fill:#ABE2EF;stroke:#719EA5;stroke-linecap:round;stroke-linejoin:round;stroke-miterlimit:10;" points="
			648,161.018 648,142.16 600.008,142.16 600.008,173.803 648,173.803 648,161.018 		"/>
		<path id="XMLID_145_" style="fill:none;stroke:#FFFFFF;stroke-linecap:round;stroke-linejoin:round;stroke-miterlimit:10;" d="
			M619.34,182.084c-3.662,3.662-9.031,9.096-9.031,9.096"/>
		<path id="XMLID_144_" style="fill:none;stroke:#FFFFFF;stroke-linecap:round;stroke-linejoin:round;stroke-miterlimit:10;" d="
			M624.482,183.315c-3.662,3.662-13.603,13.341-13.603,13.341"/>
		<path id="XMLID_138_" style="fill:none;stroke:#FFFFFF;stroke-linecap:round;stroke-linejoin:round;stroke-miterlimit:10;" d="
			M621.626,153.676c-3.662,3.662-9.031,9.096-9.031,9.096"/>
		<path id="XMLID_137_" style="fill:none;stroke:#FFFFFF;stroke-linecap:round;stroke-linejoin:round;stroke-miterlimit:10;" d="
			M626.768,154.908c-3.662,3.662-13.603,13.341-13.603,13.341"/>
		<path id="XMLID_136_" style="fill:none;stroke:#FFFFFF;stroke-linecap:round;stroke-linejoin:round;stroke-miterlimit:10;" d="
			M620.804,262.681c-3.662,3.662-9.031,9.096-9.031,9.096"/>
		<path id="XMLID_135_" style="fill:none;stroke:#FFFFFF;stroke-linecap:round;stroke-linejoin:round;stroke-miterlimit:10;" d="
			M625.946,263.913c-3.662,3.662-13.603,13.341-13.603,13.341"/>
		<path id="XMLID_134_" style="fill:none;stroke:#FFFFFF;stroke-linecap:round;stroke-linejoin:round;stroke-miterlimit:10;" d="
			M619.736,236.099c-3.662,3.662-9.031,9.096-9.031,9.096"/>
		<path id="XMLID_121_" style="fill:none;stroke:#FFFFFF;stroke-linecap:round;stroke-linejoin:round;stroke-miterlimit:10;" d="
			M624.816,238.096c-3.662,3.662-13.603,13.341-13.603,13.341"/>
		
			<rect id="XMLID_88_" x="630.499" y="141.967" style="fill:#EAE3D3;stroke:#A09070;stroke-linecap:round;stroke-linejoin:round;stroke-miterlimit:10;" width="4.043" height="138.251"/>
		
			<rect id="XMLID_155_" x="600.008" y="173.803" style="fill:#EAE3D3;stroke:#A09070;stroke-linecap:round;stroke-linejoin:round;stroke-miterlimit:10;" width="47.992" height="4.043"/>
		
			<rect id="XMLID_156_" x="600.008" y="254.061" style="fill:#EAE3D3;stroke:#A09070;stroke-linecap:round;stroke-linejoin:round;stroke-miterlimit:10;" width="47.992" height="4.043"/>
		<rect id="XMLID_157_" x="577.262" y="206.041" style="fill:#AA765F;" width="22.746" height="21.092"/>
		<rect id="XMLID_158_" x="600.008" y="206.041" style="fill:#AA765F;" width="47.992" height="21.092"/>
	</g>
	
		<use xlink:href="#schoolwindows_3_"  width="139.106" height="139.298" id="XMLID_12_" x="-65.912" y="-69.553" transform="matrix(1 0 0 -1 189.478 211.2124)" style="overflow:visible;"/>
	
		<use xlink:href="#schoolwindows_3_"  width="139.106" height="139.298" id="XMLID_13_" x="-65.912" y="-69.553" transform="matrix(1 0 0 -1 61.6284 211.2124)" style="overflow:visible;"/>
	
		<use xlink:href="#brick1"  width="14.442" height="5.854" id="XMLID_140_" x="-7.221" y="-2.927" transform="matrix(1 0 0 -1 334.4958 221.2756)" style="overflow:visible;"/>
	
		<use xlink:href="#brick1"  width="14.442" height="5.854" id="XMLID_148_" x="-7.221" y="-2.927" transform="matrix(1 0 0 -1 191.2935 225.7507)" style="overflow:visible;"/>
	
		<use xlink:href="#brick1"  width="14.442" height="5.854" id="XMLID_149_" x="-7.221" y="-2.927" transform="matrix(1 0 0 -1 33.1742 206.657)" style="overflow:visible;"/>
	
		<use xlink:href="#brick1"  width="14.442" height="5.854" id="XMLID_150_" x="-7.221" y="-2.927" transform="matrix(1 0 0 -1 85.0851 212.0271)" style="overflow:visible;"/>
	
		<use xlink:href="#brick1"  width="14.442" height="5.854" id="XMLID_151_" x="-7.221" y="-2.927" transform="matrix(1 0 0 -1 57.9363 222.7673)" style="overflow:visible;"/>
	<g id="schoolwindows">
	</g>
	<g id="schoolwindows_1_">
		<path id="XMLID_133_" style="fill:none;stroke:#FFFFFF;stroke-linecap:round;stroke-linejoin:round;stroke-miterlimit:10;" d="
			M491.647,123.917c-6.693,6.693-16.505,16.624-16.505,16.624"/>
		<path id="XMLID_20_" style="fill:none;stroke:#FFFFFF;stroke-linecap:round;stroke-linejoin:round;stroke-miterlimit:10;" d="
			M501.046,126.168c-6.693,6.693-24.861,24.383-24.861,24.383"/>
	</g>
	
		<rect id="XMLID_8_" y="138.704" style="fill:#EAE3D3;stroke:#696358;stroke-linecap:round;stroke-linejoin:round;stroke-miterlimit:10;" width="648" height="12.195"/>
	
		<use xlink:href="#brick1"  width="14.442" height="5.854" id="XMLID_141_" x="-7.221" y="-2.927" transform="matrix(1 0 0 -1 629.2452 211.937)" style="overflow:visible;"/>
	
		<rect id="XMLID_6_" y="276.51" style="fill:#D8D0C0;stroke:#696358;stroke-linecap:round;stroke-linejoin:round;stroke-miterlimit:10;" width="648" height="4.076"/>
	
		<rect id="XMLID_7_" y="212.598" style="fill:#EAE3D3;stroke:#999387;stroke-linecap:round;stroke-linejoin:round;stroke-miterlimit:10;" width="648" height="8.327"/>
	
		<use xlink:href="#brick1"  width="14.442" height="5.854" id="XMLID_91_" x="-7.221" y="-2.927" transform="matrix(1 0 0 -1 252.7518 173.2916)" style="overflow:visible;"/>
	
		<use xlink:href="#brick1"  width="14.442" height="5.854" id="XMLID_122_" x="-7.221" y="-2.927" transform="matrix(1 0 0 -1 247.5643 165.5104)" style="overflow:visible;"/>
	
		<use xlink:href="#brick1"  width="14.442" height="5.854" id="XMLID_95_" x="-7.221" y="-2.927" transform="matrix(1 0 0 -1 130.558 166.6632)" style="overflow:visible;"/>
	
		<use xlink:href="#brick1"  width="14.442" height="5.854" id="XMLID_90_" x="-7.221" y="-2.927" transform="matrix(1 0 0 -1 129.6935 238.9996)" style="overflow:visible;"/>
	
		<use xlink:href="#brick1"  width="14.442" height="5.854" id="XMLID_123_" x="-7.221" y="-2.927" transform="matrix(1 0 0 -1 251.8872 241.5933)" style="overflow:visible;"/>
	
		<use xlink:href="#brick1"  width="14.442" height="5.854" id="XMLID_124_" x="-7.221" y="-2.927" transform="matrix(1 0 0 -1 374.3691 246.7808)" style="overflow:visible;"/>
	
		<use xlink:href="#brick1"  width="14.442" height="5.854" id="XMLID_125_" x="-7.221" y="-2.927" transform="matrix(1 0 0 -1 382.4385 253.9856)" style="overflow:visible;"/>
	
		<use xlink:href="#brick1"  width="14.442" height="5.854" id="XMLID_93_" x="-7.221" y="-2.927" transform="matrix(1 0 0 -1 121.0477 246.069)" style="overflow:visible;"/>
	
		<use xlink:href="#brick1"  width="14.442" height="5.854" id="XMLID_94_" x="-7.221" y="-2.927" transform="matrix(1 0 0 -1 130.8462 253.562)" style="overflow:visible;"/>
	
		<use xlink:href="#brick1"  width="14.442" height="5.854" id="XMLID_96_" x="-7.221" y="-2.927" transform="matrix(1 0 0 -1 121.0477 174.4444)" style="overflow:visible;"/>
	
		<use xlink:href="#brick1"  width="14.442" height="5.854" id="XMLID_120_" x="-7.221" y="-2.927" transform="matrix(1 0 0 -1 142.2162 209.1608)" style="overflow:visible;"/>
	
		<use xlink:href="#brick1"  width="14.442" height="5.854" id="XMLID_130_" x="-7.221" y="-2.927" transform="matrix(1 0 0 -1 218.8462 209.1608)" style="overflow:visible;"/>
	
		<use xlink:href="#brick1"  width="14.442" height="5.854" id="XMLID_131_" x="-7.221" y="-2.927" transform="matrix(1 0 0 -1 342.9092 206.5761)" style="overflow:visible;"/>
	
		<use xlink:href="#brick1"  width="14.442" height="5.854" id="XMLID_118_" x="-7.221" y="-2.927" transform="matrix(1 0 0 -1 372.5519 164.3195)" style="overflow:visible;"/>
	
		<use xlink:href="#brick1"  width="14.442" height="5.854" id="XMLID_139_" x="-7.221" y="-2.927" transform="matrix(1 0 0 -1 578.7896 208.4682)" style="overflow:visible;"/>
	
		<use xlink:href="#brick1"  width="14.442" height="5.854" id="XMLID_142_" x="-7.221" y="-2.927" transform="matrix(1 0 0 -1 604.9634 226.1277)" style="overflow:visible;"/>
	
		<use xlink:href="#brick1"  width="14.442" height="5.854" id="XMLID_132_" x="-7.221" y="-2.927" transform="matrix(1 0 0 -1 289.0624 226.3917)" style="overflow:visible;"/>
	
		<rect id="XMLID_102_" x="368.705" y="197.355" style="fill:#935841;stroke:#7C412E;stroke-linecap:round;stroke-linejoin:round;stroke-miterlimit:10;" width="13.442" height="4.854"/>
	
		<rect id="XMLID_106_" x="375.516" y="189.9" style="fill:#935841;stroke:#7C412E;stroke-linecap:round;stroke-linejoin:round;stroke-miterlimit:10;" width="13.442" height="4.854"/>
	
		<rect id="XMLID_116_" x="0.17" y="199.916" style="fill:#EAE3D3;stroke:#A09070;stroke-linecap:round;stroke-linejoin:round;stroke-miterlimit:10;" width="397.27" height="6.125"/>
	
		<rect id="XMLID_115_" x="0.17" y="227.133" style="fill:#EAE3D3;stroke:#A09070;stroke-linecap:round;stroke-linejoin:round;stroke-miterlimit:10;" width="397.27" height="6.125"/>
</g>
<g id="Layer_4">
	
		<polygon id="XMLID_37_" style="fill:#B1B9BA;stroke:#525759;stroke-linecap:round;stroke-linejoin:round;stroke-miterlimit:10;" points="
		587.497,355.68 375.239,355.68 421.229,290.676 548.583,290.676 	"/>
	
		<rect id="XMLID_39_" y="375.808" style="fill:#A5ADAF;stroke:#525759;stroke-linecap:round;stroke-linejoin:round;stroke-miterlimit:10;" width="648" height="5.83"/>
	
		<rect id="XMLID_40_" y="381.638" style="fill:#777D7F;stroke:#525759;stroke-linecap:round;stroke-linejoin:round;stroke-miterlimit:10;" width="648" height="10.17"/>
	
		<rect id="XMLID_41_" y="391.289" style="fill:#494040;stroke:#231F20;stroke-linecap:round;stroke-linejoin:round;stroke-miterlimit:10;" width="648" height="40.711"/>
	
		<line id="XMLID_78_" style="fill:#B1B9BA;stroke:#525759;stroke-linecap:round;stroke-linejoin:round;stroke-miterlimit:10;" x1="478.5" y1="285.5" x2="480" y2="353"/>
	
		<line id="XMLID_79_" style="fill:#B1B9BA;stroke:#525759;stroke-linecap:round;stroke-linejoin:round;stroke-miterlimit:10;" x1="408.5" y1="309" x2="560" y2="309"/>
	
		<rect id="XMLID_38_" y="353.605" style="fill:#B1B9BA;stroke:#525759;stroke-linecap:round;stroke-linejoin:round;stroke-miterlimit:10;" width="648" height="22.203"/>
	
		<line id="XMLID_80_" style="fill:#B1B9BA;stroke:#525759;stroke-linecap:round;stroke-linejoin:round;stroke-miterlimit:10;" x1="392.381" y1="331.448" x2="573" y2="331.5"/>
	
		<line id="XMLID_81_" style="fill:#B1B9BA;stroke:#525759;stroke-linecap:round;stroke-linejoin:round;stroke-miterlimit:10;" x1="535" y1="353.5" x2="547.5" y2="376"/>
	
		<line id="XMLID_82_" style="fill:#B1B9BA;stroke:#525759;stroke-linecap:round;stroke-linejoin:round;stroke-miterlimit:10;" x1="419" y1="353.5" x2="404" y2="376.5"/>
	
		<line id="XMLID_83_" style="fill:#B1B9BA;stroke:#525759;stroke-linecap:round;stroke-linejoin:round;stroke-miterlimit:10;" x1="623" y1="353.5" x2="643.5" y2="376"/>
</g>
<g id="Layer_3">
	
		<polygon id="XMLID_11_" style="fill:#AA765F;stroke:#5E4132;stroke-linecap:round;stroke-linejoin:round;stroke-miterlimit:10;" points="
		551.314,294.433 412.315,294.433 412.315,50.033 481.485,17.095 549.996,58.597 	"/>
	
		<rect id="XMLID_26_" x="440.861" y="115.149" style="fill:#ABE2EF;stroke:#719EA5;stroke-linecap:round;stroke-linejoin:round;stroke-miterlimit:10;" width="72.54" height="46.628"/>
	
		<rect id="XMLID_22_" x="415.768" y="157.67" style="fill:#EAE3D3;stroke:#696358;stroke-linecap:round;stroke-linejoin:round;stroke-miterlimit:10;" width="125.006" height="10.493"/>
	
		<rect id="XMLID_21_" x="417.982" y="208.301" style="fill:#EAE3D3;stroke:#696358;stroke-linecap:round;stroke-linejoin:round;stroke-miterlimit:10;" width="124.229" height="86.237"/>
	
		<rect id="XMLID_15_" x="395.846" y="55.962" style="fill:#EAE3D3;stroke:#696358;stroke-linecap:round;stroke-linejoin:round;stroke-miterlimit:10;" width="25.033" height="241.107"/>
	
		<rect id="XMLID_107_" x="411.251" y="55.962" style="fill:#D8D0C0;stroke:#696358;stroke-linecap:round;stroke-linejoin:round;stroke-miterlimit:10;" width="9.628" height="241.107"/>
	
		<rect id="XMLID_17_" x="538.138" y="55.962" style="fill:#EAE3D3;stroke:#696358;stroke-linecap:round;stroke-linejoin:round;stroke-miterlimit:10;" width="25.033" height="241.107"/>
	
		<rect id="XMLID_117_" x="538.014" y="55.962" style="fill:#D8D0C0;stroke:#696358;stroke-linecap:round;stroke-linejoin:round;stroke-miterlimit:10;" width="9.628" height="241.107"/>
	
		<rect id="XMLID_18_" x="429.911" y="221.086" style="fill:#ABE2EF;stroke:#719EA5;stroke-linecap:round;stroke-linejoin:round;stroke-miterlimit:10;" width="100.37" height="73.452"/>
	
		<rect id="XMLID_33_" x="429.554" y="254.618" style="fill:#EAE3D3;stroke:#696358;stroke-linecap:round;stroke-linejoin:round;stroke-miterlimit:10;" width="101.154" height="5.475"/>
	
		<polygon id="XMLID_23_" style="fill:#EAE3D3;stroke:#696358;stroke-linecap:round;stroke-linejoin:round;stroke-miterlimit:10;" points="
		579.824,62.305 480.857,10.3 480.397,11.176 479.937,10.3 380.97,62.305 388.631,76.884 480.397,28.663 572.164,76.884 	"/>
	
		<rect id="XMLID_27_" x="437.428" y="108.359" style="fill:#EAE3D3;stroke:#696358;stroke-linecap:round;stroke-linejoin:round;stroke-miterlimit:10;" width="81.686" height="10.075"/>
	
		<rect id="XMLID_24_" x="433.105" y="108.398" style="fill:#EAE3D3;stroke:#696358;stroke-linecap:round;stroke-linejoin:round;stroke-miterlimit:10;" width="13.687" height="49.272"/>
	
		<rect id="XMLID_25_" x="510.663" y="108.398" style="fill:#EAE3D3;stroke:#696358;stroke-linecap:round;stroke-linejoin:round;stroke-miterlimit:10;" width="13.687" height="49.272"/>
	
		<rect id="XMLID_28_" x="475.903" y="219.717" style="fill:#EAE3D3;stroke:#696358;stroke-linecap:round;stroke-linejoin:round;stroke-miterlimit:10;" width="5.475" height="75.277"/>
	<path id="XMLID_32_" style="fill:none;stroke:#FFFFFF;stroke-linecap:round;stroke-linejoin:round;stroke-miterlimit:10;" d="
		M462.092,225.832c-1.251,0.938-21.892,24.081-21.892,24.081"/>
	<path id="XMLID_19_" style="fill:none;stroke:#FFFFFF;stroke-linecap:round;stroke-linejoin:round;stroke-miterlimit:10;" d="
		M467.363,230.568c-1.251,0.938-14.386,16.262-14.386,16.262"/>
	<path id="XMLID_84_" style="fill:none;stroke:#FFFFFF;stroke-linecap:round;stroke-linejoin:round;stroke-miterlimit:10;" d="
		M461.454,265.228c-1.155,0.866-20.213,22.234-20.213,22.234"/>
	<path id="XMLID_77_" style="fill:none;stroke:#FFFFFF;stroke-linecap:round;stroke-linejoin:round;stroke-miterlimit:10;" d="
		M466.322,269.601c-1.155,0.866-13.283,15.015-13.283,15.015"/>
	<path id="XMLID_114_" style="fill:none;stroke:#FFFFFF;stroke-linecap:round;stroke-linejoin:round;stroke-miterlimit:10;" d="
		M510.699,265.228c-1.155,0.866-20.213,22.234-20.213,22.234"/>
	<path id="XMLID_105_" style="fill:none;stroke:#FFFFFF;stroke-linecap:round;stroke-linejoin:round;stroke-miterlimit:10;" d="
		M515.566,269.601c-1.155,0.866-13.283,15.015-13.283,15.015"/>
	<path id="XMLID_97_" style="fill:none;stroke:#FFFFFF;stroke-linecap:round;stroke-linejoin:round;stroke-miterlimit:10;" d="
		M514.98,225.832c-1.251,0.938-21.892,24.081-21.892,24.081"/>
	<path id="XMLID_35_" style="fill:none;stroke:#FFFFFF;stroke-linecap:round;stroke-linejoin:round;stroke-miterlimit:10;" d="
		M520.251,230.568c-1.251,0.938-14.386,16.262-14.386,16.262"/>
	<path id="XMLID_76_" style="fill:none;stroke:#FFFFFF;stroke-linecap:round;stroke-linejoin:round;stroke-miterlimit:10;" d="
		M487.28,127.651c-1.251,0.938-21.892,24.081-21.892,24.081"/>
	<path id="XMLID_59_" style="fill:none;stroke:#FFFFFF;stroke-linecap:round;stroke-linejoin:round;stroke-miterlimit:10;" d="
		M492.551,132.387c-1.251,0.938-14.386,16.262-14.386,16.262"/>
</g>
<g id="Layer_8">
	<path id="XMLID_34_" style="fill:#C2D39F;stroke:#8B9B64;stroke-linecap:round;stroke-linejoin:round;stroke-miterlimit:10;" d="
		M352.399,321.431l-2.017-9.679c3.63,2.42,5.243,7.663,5.243,7.663c0-1.613,8.469-12.503,8.469-12.503
		c-2.017,3.226-3.63,12.099-3.63,12.099l6.453-2.017l-4.436,6.453"/>
	<path id="XMLID_98_" style="fill:#C2D39F;stroke:#8B9B64;stroke-linecap:round;stroke-linejoin:round;stroke-miterlimit:10;" d="
		M593.98,299.652c1.613-6.05-1.613-12.503-1.613-12.503c4.033,2.823,5.243,10.083,5.243,10.083c0-1.21,3.63-9.276,3.63-9.276v9.679"
		/>
	<path id="XMLID_99_" style="fill:#C2D39F;stroke:#8B9B64;stroke-linecap:round;stroke-linejoin:round;stroke-miterlimit:10;" d="
		M37.82,327.48c0-2.42-2.823-9.679-2.823-9.679c4.436,3.226,5.646,6.856,5.646,6.856l6.856-10.083
		c-2.823,6.05-2.823,11.293-2.823,11.293l6.856-5.646l-2.017,7.26"/>
	<path id="XMLID_100_" style="fill:#C2D39F;stroke:#8B9B64;stroke-linecap:round;stroke-linejoin:round;stroke-miterlimit:10;" d="
		M70.084,302.475c-0.403-4.033-3.226-12.906-3.226-12.906c3.63,3.63,5.243,8.469,5.243,8.469l5.243-7.663l-1.613,8.066"/>
	<path id="XMLID_101_" style="fill:#C2D39F;stroke:#8B9B64;stroke-linecap:round;stroke-linejoin:round;stroke-miterlimit:10;" d="
		M616.162,334.337c-1.21-8.066-4.84-10.486-4.84-10.486c6.453,2.823,7.26,5.646,7.26,5.646c-0.403-2.42,5.646-19.359,4.84-11.293
		c-0.807,8.066-1.21,15.729-1.21,13.309c0-2.42,6.453-5.243,6.453-5.243l-3.226,7.663"/>
	
		<use xlink:href="#brick1"  width="14.442" height="5.854" id="XMLID_30_" x="-7.221" y="-2.927" transform="matrix(1 0 0 -1 461.1939 182.5838)" style="overflow:visible;"/>
	
		<use xlink:href="#brick1"  width="14.442" height="5.854" id="XMLID_108_" x="-7.221" y="-2.927" transform="matrix(1 0 0 -1 452.2599 189.7886)" style="overflow:visible;"/>
	
		<use xlink:href="#brick1"  width="14.442" height="5.854" id="XMLID_109_" x="-7.221" y="-2.927" transform="matrix(1 0 0 -1 469.5515 189.7886)" style="overflow:visible;"/>
	
		<use xlink:href="#brick1"  width="14.442" height="5.854" id="XMLID_110_" x="-7.221" y="-2.927" transform="matrix(1 0 0 -1 519.4088 199.5872)" style="overflow:visible;"/>
	
		<use xlink:href="#brick1"  width="14.442" height="5.854" id="XMLID_111_" x="-7.221" y="-2.927" transform="matrix(1 0 0 -1 509.0339 192.6705)" style="overflow:visible;"/>
	
		<use xlink:href="#brick1"  width="14.442" height="5.854" id="XMLID_112_" x="-7.221" y="-2.927" transform="matrix(1 0 0 -1 523.9435 97.0566)" style="overflow:visible;"/>
	
		<use xlink:href="#brick1"  width="14.442" height="5.854" id="XMLID_126_" x="-7.221" y="-2.927" transform="matrix(1 0 0 -1 507.0686 101.626)" style="overflow:visible;"/>
	
		<use xlink:href="#brick1"  width="14.442" height="5.854" id="XMLID_127_" x="-7.221" y="-2.927" transform="matrix(1 0 0 -1 458.392 51.7303)" style="overflow:visible;"/>
	
		<use xlink:href="#brick1"  width="14.442" height="5.854" id="XMLID_128_" x="-7.221" y="-2.927" transform="matrix(1 0 0 -1 462.9614 59.2997)" style="overflow:visible;"/>
	
		<use xlink:href="#brick1"  width="14.442" height="5.854" id="XMLID_129_" x="-7.221" y="-2.927" transform="matrix(1 0 0 -1 474.3156 50.7163)" style="overflow:visible;"/>
</g>
<g id="Layer_5">
	
		<rect id="XMLID_49_" x="563.267" y="199.916" style="fill:#EAE3D3;stroke:#A09070;stroke-linecap:round;stroke-linejoin:round;stroke-miterlimit:10;" width="84.733" height="6.125"/>
	
		<rect id="XMLID_85_" x="563.267" y="227.351" style="fill:#EAE3D3;stroke:#A09070;stroke-linecap:round;stroke-linejoin:round;stroke-miterlimit:10;" width="84.733" height="6.125"/>
	<g id="XMLID_16_">
		<path id="XMLID_71_" style="fill:#54463F;stroke:#352B26;stroke-linecap:round;stroke-linejoin:round;stroke-miterlimit:10;" d="
			M183.832,320.962c1.948-3.542,17.889-10.627,22.494-9.21s7.793,9.741,7.793,9.741L183.832,320.962z"/>
		<path id="XMLID_63_" style="fill:#E8A679;stroke:#7A2D1E;stroke-linecap:round;stroke-linejoin:round;stroke-miterlimit:10;" d="
			M195.522,278.1c0-4.108-10.804,3.011-12.221,8.679s-5.845,6.553-5.845,6.553c-0.886,1.948,1.771,4.251,1.771,4.251
			s3.365,14.346,7.793,15.232c4.428,0.886,9.033,4.074,9.033,4.074l9.21-4.428c-0.708-3.188-1.417-12.575-1.417-12.575
			c3.011-1.063,3.011-15.94,1.594-17.003C204.024,281.819,195.522,278.277,195.522,278.1z"/>
		<path id="XMLID_66_" style="fill:#7C4332;stroke:#492417;stroke-linecap:round;stroke-linejoin:round;stroke-miterlimit:10;" d="
			M188.083,280.225c-1.063-4.428,2.834-6.199,5.136-6.73c2.303-0.531,10.627,1.24,13.815,4.959s5.668,6.376,5.313,8.856
			s0.354,7.085-2.834,10.45c-3.188,3.365-5.491,6.199-5.491,6.199l-2.657-8.679l0.531-7.085c0.354-1.594,0.708-3.188,0.708-3.188
			C200.481,284.121,194.459,279.694,188.083,280.225z"/>
		<path id="XMLID_58_" style="fill:#423C3D;stroke:#231F20;stroke-linecap:round;stroke-linejoin:round;stroke-miterlimit:10;" d="
			M135.122,323.794c3.248-10.394,5.414-13.209,11.261-14.725c5.414-1.299,7.796,1.949,7.796,1.949s-11.044,2.165-10.611,11.694
			C139.237,323.577,135.122,323.794,135.122,323.794z"/>
		<path id="XMLID_68_" style="fill:none;stroke:#231F20;stroke-linecap:round;stroke-linejoin:round;stroke-miterlimit:10;" d="
			M188.083,284.299c1.24-0.886,3.365-0.531,4.074,1.771"/>
		
			<ellipse id="XMLID_67_" transform="matrix(0.9918 0.1279 -0.1279 0.9918 38.7403 -21.6492)" style="fill:none;stroke:#231F20;stroke-linecap:round;stroke-linejoin:round;stroke-miterlimit:10;" cx="187.906" cy="290.763" rx="0.263" ry="1.642"/>
		<path id="XMLID_64_" style="fill:#7C4332;stroke:#492417;stroke-linecap:round;stroke-linejoin:round;stroke-miterlimit:10;" d="
			M191.803,300.416c-4.074-4.605-9.033-3.897-10.627-2.657c-3.365-1.417-4.428,0.708-4.782,2.302
			c-0.354,1.594-0.177,2.657,0.886,3.542c-4.251,4.251-3.542,7.439-1.594,9.387c0,5.136,7.085,5.491,8.502,2.48
			c4.251,3.011,7.439,2.303,8.324,1.063c2.657,0.886,2.834-4.782,2.834-4.782c2.657-0.886,6.376-6.553,6.376-6.553
			c-0.177-1.948,2.303-12.575,2.303-12.575l-2.657-1.24l-3.365,7.616C196.939,299.354,191.803,300.416,191.803,300.416z"/>
		<path id="XMLID_65_" style="fill:none;stroke:#231F20;stroke-linecap:round;stroke-linejoin:round;stroke-miterlimit:10;" d="
			M186.666,301.302c-0.531,2.48-4.251,2.125-4.251,2.125c-2.657,1.771-5.136,0.177-5.136,0.177"/>
		<path id="XMLID_70_" style="fill:#E8A679;stroke:#7A2D1E;stroke-linecap:round;stroke-linejoin:round;stroke-miterlimit:10;" d="
			M154.077,306.261c-4.782-2.125-12.044,1.417-11.158,3.719c0.886,2.302,3.188,4.074,6.376,3.897s1.594,2.303,3.719,3.719
			c2.125,1.417,3.188,0.708,3.188,0.708l1.771,4.605l5.668-0.531C163.641,322.379,156.734,306.97,154.077,306.261z"/>
		<path id="XMLID_60_" style="fill:#595053;stroke:#231F20;stroke-linecap:round;stroke-linejoin:round;stroke-miterlimit:10;" d="
			M222.175,283.949c-7.146,1.949-9.528,9.312-3.465,16.025c0.217,5.847,0,6.713,0,6.713s-6.713,3.681-7.146,17.107
			c11.91,2.382,17.54,0,17.54-0.65C229.104,322.495,222.175,283.949,222.175,283.949z"/>
		<path id="XMLID_61_" style="fill:#595053;stroke:#231F20;stroke-linecap:round;stroke-linejoin:round;stroke-miterlimit:10;" d="
			M309.877,289.579c-6.28-2.165-21.438,9.745-20.572,32.482c20.789,2.599,31.4,1.516,31.4,0.217S309.877,289.579,309.877,289.579z"
			/>
		<path id="XMLID_62_" style="fill:#E8A679;stroke:#7A2D1E;stroke-linecap:round;stroke-linejoin:round;stroke-miterlimit:10;" d="
			M202.43,293.332c3.719-3.011,5.491-0.531,4.959,2.48c-0.531,3.011-3.897,4.782-6.022,3.188"/>
		
			<path id="XMLID_57_" style="opacity:0.55;fill:#8EDBED;stroke:#13273F;stroke-linecap:round;stroke-linejoin:round;stroke-miterlimit:10;" d="
			M126.273,309.893c-3.843,3.144-9.413,6.75-9.413,14.785c97.82,3.843,114.589,3.144,114.589,3.144s-3.569-18.978-4.268-17.93
			S126.273,309.893,126.273,309.893z"/>
		
			<path id="XMLID_50_" style="opacity:0.55;fill:#8EDBED;stroke:#13273F;stroke-linecap:round;stroke-linejoin:round;stroke-miterlimit:10;" d="
			M228.487,309.893c-3.843,3.144,1.306,6.75,1.306,14.785c97.82,3.843,96.685,3.144,96.685,3.144s-3.569-18.978-4.268-17.93
			C321.512,310.941,228.487,309.893,228.487,309.893z"/>
		<path id="XMLID_42_" style="fill:#BC4242;stroke:#631111;stroke-linecap:round;stroke-linejoin:round;stroke-miterlimit:10;" d="
			M114.322,320.977c-17.96,0.359-62.177,10.389-70.475,14.999c-9.681,5.071-20.283,26.276-14.29,44.715
			c68.686,0,306.551,0,306.551,0c12.907-27.198-5.993-60.388-5.993-60.388C226.394,320.303,115.013,320.286,114.322,320.977z"/>
		<path id="XMLID_74_" style="fill:#BC4242;stroke:#631111;stroke-linecap:round;stroke-linejoin:round;stroke-miterlimit:10;" d="
			M229.104,323.144c1.469,13.593,0.391,56.157,0.391,56.157"/>
		
			<ellipse id="XMLID_47_" transform="matrix(-0.8754 -0.4834 0.4834 -0.8754 -88.3811 685.4202)" style="fill:#EDB63B;stroke:#592D1E;stroke-linecap:round;stroke-linejoin:round;stroke-miterlimit:10;" cx="44.147" cy="354.101" rx="5.492" ry="13.45"/>
		<path id="XMLID_53_" style="fill:#BC4242;stroke:#631111;stroke-linecap:round;stroke-linejoin:round;stroke-miterlimit:10;" d="
			M122.449,328.871c0.699,5.24,0.699,32.49,0.699,32.49"/>
		<path id="XMLID_52_" style="fill:#595053;stroke:#231F20;stroke-linecap:round;stroke-linejoin:round;stroke-miterlimit:10;" d="
			M121.751,322.932c2.445-15.372,27.949-54.5,27.949-54.5s-9.782,1.048-10.83,0.699s-24.804,41.574-27.599,52.054
			C115.812,326.775,121.751,322.932,121.751,322.932z"/>
		<path id="XMLID_55_" style="fill:#595053;stroke:#231F20;stroke-linecap:round;stroke-linejoin:round;stroke-miterlimit:10;" d="
			M217.125,267.733c3.843,18.865,5.24,54.15,6.638,55.897s12.227,2.096,11.878,1.048c-0.349-1.048-7.686-55.548-7.686-55.548
			L217.125,267.733z"/>
		
			<ellipse id="XMLID_51_" style="fill:#595053;stroke:#231F20;stroke-linecap:round;stroke-linejoin:round;stroke-miterlimit:10;" cx="121.052" cy="324.679" rx="13.974" ry="11.179"/>
		<path id="XMLID_56_" style="fill:#595053;stroke:#231F20;stroke-linecap:round;stroke-linejoin:round;stroke-miterlimit:10;" d="
			M300.622,270.878c6.638,12.227,12.577,52.753,12.577,52.753c1.747,0.349,16.07-0.699,16.07-0.699
			c-1.747-17.118-16.769-48.91-16.769-48.91L300.622,270.878z"/>
		<path id="XMLID_69_" style="fill:#EA7B3D;stroke:#592D1E;stroke-linecap:round;stroke-linejoin:round;stroke-miterlimit:10;" d="
			M332.133,332.427c-4.041-0.808-6.465,1.078-6.196,3.502c0.269,2.424,4.849,25.323,4.849,25.323l7.004-0.269L332.133,332.427z"/>
		
			<polygon id="XMLID_72_" style="fill:#BC4242;stroke:#631111;stroke-linecap:round;stroke-linejoin:round;stroke-miterlimit:10;" points="
			203.095,331.619 203.634,337.007 223.03,337.276 222.491,331.35 		"/>
		<path id="XMLID_44_" style="fill:#6D6467;stroke:#231F20;stroke-linecap:round;stroke-linejoin:round;stroke-miterlimit:10;" d="
			M313.576,383.371c0,5.601-6.117,10.848-8.733,15.372h19.667h5.992c4.126,0,7.501-3.375,7.501-7.501v-7.357
			c0-4.126-3.375-7.501-7.501-7.501h-3.061c-3.226-15.557-17.007-27.25-33.521-27.25s-30.295,11.693-33.521,27.25h-130.28
			c-3.226-15.557-17.007-27.25-33.521-27.25s-30.295,11.693-33.521,27.25H29.685c-4.126,0-7.501,3.375-7.501,7.501v7.357
			c0,4.126,3.375,7.501,7.501,7.501h36.322H83.11c-2.616-4.524-0.38-8.357-0.38-13.958c22.968,0,33.995-1.414,33.032-1.414
			c0,5.601-4.598,10.848-7.214,15.372h18.638H263.33h19.112c-2.616-4.524-6.075-9.77-6.075-15.372"/>
		<path id="XMLID_54_" style="fill:#595053;stroke:#231F20;stroke-linecap:round;stroke-linejoin:round;stroke-miterlimit:10;" d="
			M140.267,273.323c60.439-2.096,146.031-2.795,174.329,1.397c2.096-4.192-40.177-15.123-93.278-14.673
			c-41.224,0.349-51.705,1.048-51.705,1.048S125.943,266.685,140.267,273.323z"/>
		
			<circle id="XMLID_45_" style="fill:#302D2E;stroke:#231F20;stroke-linecap:round;stroke-linejoin:round;stroke-miterlimit:10;" cx="96.597" cy="383.371" r="28.05"/>
		
			<circle id="XMLID_46_" style="fill:#A09097;stroke:#231F20;stroke-linecap:round;stroke-linejoin:round;stroke-miterlimit:10;" cx="96.597" cy="383.371" r="18.91"/>
		
			<circle id="XMLID_75_" style="fill:#302D2E;stroke:#231F20;stroke-linecap:round;stroke-linejoin:round;stroke-miterlimit:10;" cx="293.92" cy="383.371" r="28.05"/>
		
			<circle id="XMLID_73_" style="fill:#A09097;stroke:#231F20;stroke-linecap:round;stroke-linejoin:round;stroke-miterlimit:10;" cx="293.92" cy="383.371" r="18.91"/>
		<path id="XMLID_48_" style="fill:none;stroke:#FFFFFF;stroke-linecap:round;stroke-linejoin:round;stroke-miterlimit:10;" d="
			M237.885,306.609"/>
		<path id="XMLID_43_" style="fill:none;stroke:#FFFFFF;stroke-linecap:round;stroke-linejoin:round;stroke-miterlimit:10;" d="
			M263.029,278.951"/>
	</g>
</g>
<g id="Layer_11">
	
		<rect id="XMLID_29_" x="426.5" y="67" style="fill:#EAE3D3;stroke:#696358;stroke-linecap:round;stroke-linejoin:round;stroke-miterlimit:10;" width="107" height="24.531"/>
	<g id="XMLID_104_">
		<path id="XMLID_181_" style="fill:#423B30;" d="M437.871,84.128c0.946,0.484,2.399,0.969,3.899,0.969
			c1.615,0,2.469-0.669,2.469-1.684c0-0.969-0.738-1.522-2.607-2.192c-2.584-0.9-4.268-2.33-4.268-4.591
			c0-2.653,2.215-4.683,5.883-4.683c1.753,0,3.046,0.369,3.968,0.784l-0.784,2.838c-0.623-0.3-1.73-0.738-3.253-0.738
			s-2.261,0.692-2.261,1.5c0,0.992,0.877,1.431,2.884,2.192c2.745,1.015,4.037,2.446,4.037,4.637c0,2.607-2.007,4.822-6.275,4.822
			c-1.776,0-3.529-0.462-4.406-0.946L437.871,84.128z"/>
		<path id="XMLID_183_" style="fill:#423B30;" d="M461.637,87.312c-0.646,0.323-2.1,0.669-3.992,0.669
			c-5.375,0-8.144-3.346-8.144-7.775c0-5.306,3.783-8.259,8.49-8.259c1.822,0,3.207,0.369,3.83,0.692l-0.716,2.792
			c-0.715-0.3-1.707-0.577-2.953-0.577c-2.791,0-4.96,1.685-4.96,5.145c0,3.115,1.846,5.076,4.983,5.076
			c1.062,0,2.238-0.23,2.93-0.508L461.637,87.312z"/>
		<path id="XMLID_185_" style="fill:#423B30;" d="M467.475,72.2v5.976h5.791V72.2h3.507v15.55h-3.507v-6.506h-5.791v6.506h-3.53
			V72.2H467.475z"/>
		<path id="XMLID_187_" style="fill:#423B30;" d="M494.078,79.814c0,5.099-3.092,8.19-7.637,8.19c-4.614,0-7.313-3.484-7.313-7.914
			c0-4.66,2.976-8.144,7.567-8.144C491.471,71.947,494.078,75.522,494.078,79.814z M482.842,80.021c0,3.045,1.431,5.191,3.784,5.191
			c2.376,0,3.737-2.261,3.737-5.284c0-2.792-1.338-5.191-3.761-5.191C484.227,74.738,482.842,76.999,482.842,80.021z"/>
		<path id="XMLID_190_" style="fill:#423B30;" d="M510.622,79.814c0,5.099-3.092,8.19-7.637,8.19c-4.614,0-7.313-3.484-7.313-7.914
			c0-4.66,2.977-8.144,7.567-8.144C508.015,71.947,510.622,75.522,510.622,79.814z M499.387,80.021c0,3.045,1.43,5.191,3.783,5.191
			c2.376,0,3.737-2.261,3.737-5.284c0-2.792-1.338-5.191-3.761-5.191C500.771,74.738,499.387,76.999,499.387,80.021z"/>
		<path id="XMLID_193_" style="fill:#423B30;" d="M512.931,72.2h3.53v12.597h6.183v2.953h-9.713V72.2z"/>
	</g>
</g>
</svg>
