<?xml version="1.0" encoding="utf-8"?>
<!-- Generator: Adobe Illustrator 19.0.0, SVG Export Plug-In . SVG Version: 6.00 Build 0)  -->
<!DOCTYPE svg PUBLIC "-//W3C//DTD SVG 1.1//EN" "http://www.w3.org/Graphics/SVG/1.1/DTD/svg11.dtd">
<svg version="1.1" id="Layer_1" xmlns="http://www.w3.org/2000/svg" xmlns:xlink="http://www.w3.org/1999/xlink" x="0px" y="0px"
	 width="648px" height="432px" viewBox="0 0 648 432" style="enable-background:new 0 0 648 432;" xml:space="preserve">
<g id="Layer_2">
	<rect id="XMLID_1_" style="fill:#BDDDEF;" width="648" height="432"/>
</g>
<g id="Layer_3">
	<rect id="XMLID_2_" y="203.562" style="fill:#B9D197;stroke:#839B5C;stroke-miterlimit:10;" width="648" height="228.438"/>
	<g>
		
			<path id="XMLID_172_" style="fill:none;stroke:#231F20;stroke-width:2;stroke-linecap:round;stroke-linejoin:round;stroke-miterlimit:10;" d="
			M292.445,229.418c17.713-11.665,24.194,37.587,4.752,41.043c-19.442,3.456-14.689-30.675-12.097-33.699"/>
		<path id="XMLID_122_" style="fill:#E2BAA6;stroke:#84553A;stroke-linecap:round;stroke-linejoin:round;stroke-miterlimit:10;" d="
			M244.499,324.809c12.527,12.895,32.791,52.686,33.896,51.949c4.79-4.053,6.263-20.264,6.263-20.264
			c-1.105-0.737-23.312-50.108-23.312-50.108L244.499,324.809z"/>
		<path id="XMLID_116_" style="fill:#E2BAA6;stroke:#84553A;stroke-linecap:round;stroke-linejoin:round;stroke-miterlimit:10;" d="
			M276.921,213.158c3.316,4.053,17.316,12.158,17.316,12.158l-11.053,11.79l-14.737-15.474L276.921,213.158z"/>
		<path id="XMLID_117_" style="fill:#E2BAA6;stroke:#84553A;stroke-linecap:round;stroke-linejoin:round;stroke-miterlimit:10;" d="
			M294.974,220.158c-8.421-2.406-10.316,14.001-4.79,13.632S302.711,222.369,294.974,220.158z"/>
		<path id="XMLID_120_" style="fill:#E2BAA6;stroke:#84553A;stroke-linecap:round;stroke-linejoin:round;stroke-miterlimit:10;" d="
			M135.442,289.808c-6.263,8.842-35.001,34.633-35.001,34.633c-0.737,13.264,11.053,14.737,11.053,14.737
			s36.107-21.738,39.054-27.264C153.495,306.387,135.442,289.808,135.442,289.808z"/>
		<path id="XMLID_119_" style="fill:#E2BAA6;stroke:#84553A;stroke-linecap:round;stroke-linejoin:round;stroke-miterlimit:10;" d="
			M297.922,223.843c8.814-3.39,14.001,14.737,2.211,21.738s-21.001,0.737-18.422-7.369S288.342,227.527,297.922,223.843z"/>
		<path id="XMLID_118_" style="fill:#69718E;stroke:#2F354F;stroke-linecap:round;stroke-linejoin:round;stroke-miterlimit:10;" d="
			M175.97,216.489c-21.908,47.131-33.696,66.286-47.896,78.845c7.324,25.259,26.97,20.347,26.97,20.347
			c24.557-22.593,37.874-53.138,37.874-53.138c7-1.105,11.053-2.211,11.053-2.211c26.159,55.265,39.791,71.476,39.791,71.476
			c18.053-5.527,26.527-17.316,26.527-17.316c-34.264-67.055-37.212-83.635-37.212-83.635L175.97,216.489z"/>
		<path id="XMLID_121_" style="fill:#69718E;stroke:#2F354F;stroke-linecap:round;stroke-linejoin:round;stroke-miterlimit:10;" d="
			M212.813,257.754c-3.684,1.842-8.842,2.579-8.842,2.579"/>
		<path id="XMLID_114_" style="fill:#C65F32;stroke:#6D300F;stroke-linecap:round;stroke-linejoin:round;stroke-miterlimit:10;" d="
			M232.474,124.76c15.234,13.541,51.813,89.653,53.655,90.758c-10.851,9.011-13.768,19.275-13.768,19.275
			c-21.738-15.106-39.618-46.144-40.02-47.41C224.267,161.975,223.631,117.391,232.474,124.76z"/>
		<path id="XMLID_104_" style="fill:#C65F32;stroke:#6D300F;stroke-linecap:round;stroke-linejoin:round;stroke-miterlimit:10;" d="
			M205.445,113.328c-22.475,7.737-35.001,18.053-35.001,18.053c6.632,38.317,3.684,72.582,0,92.477
			c32.422,31.317,59.686,16.948,64.844,12.158c16.948-58.95,5.895-90.635,1.842-96.898"/>
		<path id="XMLID_110_" style="fill:#E2BAA6;stroke:#84553A;stroke-linecap:round;stroke-linejoin:round;stroke-miterlimit:10;" d="
			M200.655,103.011c0,1.474-0.737,18.422-0.737,18.422c-2.579,4.79-0.737,8.106,5.895,13.264c6.632,5.158,25.422,1.105,19.895-9.948
			c-1.105-12.895,0.368-15.474,0.368-15.474L200.655,103.011z"/>
		<path id="XMLID_107_" style="fill:#E2BAA6;stroke:#84553A;stroke-linecap:round;stroke-linejoin:round;stroke-miterlimit:10;" d="
			M184.444,79.063c-0.737,24.317,14.001,35.37,36.475,35.37s33.159-30.949,27.633-69.266c-10.316-19.159-43.107-25.79-53.423-14.369
			c-10.316,11.421-11.421,29.475-11.421,29.475C167.496,49.957,164.548,80.169,184.444,79.063z"/>
		<path id="XMLID_108_" style="fill:#B5974D;stroke:#66471F;stroke-linecap:round;stroke-linejoin:round;stroke-miterlimit:10;" d="
			M181.128,42.22c-1.842,11.421-1.105,22.843,5.527,18.053s13.264-21.738,13.264-21.738c0.368,12.895,16.948,24.317,12.895-0.368
			c16.58,25.422,35.37,32.791,26.159,3.316c15.474,16.58,18.422,10.316,18.422,3.684c9.948,0.737-9.579-39.054-45.686-24.317
			C214.656,9.429,184.075,19.745,181.128,42.22z"/>
		<path id="XMLID_115_" style="fill:#E2BAA6;stroke:#84553A;stroke-linecap:round;stroke-linejoin:round;stroke-miterlimit:10;" d="
			M126.968,194.383c-12.158,19.527-21.369,46.423-12.895,49.739c8.474,3.316,16.58-23.58,16.211-24.685
			c1.474,17.316,8.842,14.369,7.737,1.842c-1.105-12.527,0-14.369,0-14.369L126.968,194.383z"/>
		<path id="XMLID_109_" style="fill:#B5974D;stroke:#66471F;stroke-linecap:round;stroke-linejoin:round;stroke-miterlimit:10;" d="
			M248.183,34.851c5.158,3.316,9.211,10.316,9.211,10.316"/>
		<path id="XMLID_125_" style="fill:#D3E3EA;stroke:#4D565B;stroke-linecap:round;stroke-linejoin:round;stroke-miterlimit:10;" d="
			M408.642,293.139c-1.474-23.211,24.317-30.212,28.369-14.737C438.854,292.034,408.642,293.139,408.642,293.139z"/>
		<path id="XMLID_170_" style="fill:#C65F32;stroke:#6D300F;stroke-linecap:round;stroke-linejoin:round;stroke-miterlimit:10;" d="
			M170.882,131.355c-23.211,22.475-49.441,68.924-49.441,68.924c14.737,17.685,26.159,12.527,26.159,12.527
			c9.846-24.354,40.735-53.351,41.365-53.351"/>
		<path id="XMLID_123_" style="fill:#D3793C;stroke:#7C3E25;stroke-linecap:round;stroke-linejoin:round;stroke-miterlimit:10;" d="
			M104.392,320.705c-11.014,6.058-12.116,11.014-12.116,11.014c1.105,24.317,13.691,29.934,19.217,33.618
			c5.527,3.684,28.001,3.316,25.054-2.947c-2.947-6.263-12.527-9.579-12.527-9.579c-1.474-11.053-4.79-18.053-4.79-18.053
			C111.494,338.073,101.077,330.652,104.392,320.705z"/>
		<path id="XMLID_124_" style="fill:#D3793C;stroke:#7C3E25;stroke-linecap:round;stroke-linejoin:round;stroke-miterlimit:10;" d="
			M276.921,359.442c2.947-6.263,4.585-17.54,8.474-27.264c5.69-14.227,19.913-12.288,21.386-1.972
			c1.474,10.316-16.965,45.816-23.966,47.658C275.816,379.706,273.237,373.074,276.921,359.442z"/>
		<path id="XMLID_126_" style="fill:#D3E3EA;stroke:#4D565B;stroke-linecap:round;stroke-linejoin:round;stroke-miterlimit:10;" d="
			M509.035,314.861c-15.106-32.791-70.003-44.581-92.477-28.369c-22.474,16.211-22.474,47.897-23.58,49.002
			c-9.948,4.053-17.685,5.158-20.264,6.632c-2.579,1.474-5.527,14.369-8.842,21.001c-3.316,6.632,6.263,14.737,14.369,8.842
			s9.948-13.264,9.948-13.264c13.632,0.737,24.317-2.211,30.212-10.316c12.527,38.317,82.161,56.002,110.899,28.738
			C525.246,331.441,509.035,314.861,509.035,314.861z"/>
		<path id="XMLID_128_" style="fill:#D3E3EA;stroke:#4D565B;stroke-linecap:round;stroke-linejoin:round;stroke-miterlimit:10;" d="
			M416.558,324.072c-0.737,8.474,1.842,24.317,1.842,24.317"/>
		<path id="XMLID_129_" style="fill:#D3E3EA;stroke:#4D565B;stroke-linecap:round;stroke-linejoin:round;stroke-miterlimit:10;" d="
			M371.609,364.232c-0.737,4.053-5.755,5.869-5.755,5.869"/>
		<path id="XMLID_130_" style="fill:#D3E3EA;stroke:#4D565B;stroke-linecap:round;stroke-linejoin:round;stroke-miterlimit:10;" d="
			M377.872,366.442c-0.368,4.053-3.316,7.369-3.316,7.369"/>
		<path id="XMLID_127_" style="fill:#D3E3EA;stroke:#4D565B;stroke-linecap:round;stroke-linejoin:round;stroke-miterlimit:10;" d="
			M462.98,352.442c-3.316,13.632-1.842,39.054,4.053,41.633c5.895,2.579,17.316-1.105,17.316-1.105
			c-5.895,9.579-2.579,19.159,5.895,18.422s14.369-12.158,15.843-17.316c1.474-5.158-4.421-16.211-13.632-15.474
			c0.368-16.58-0.737-30.948-4.421-32.422"/>
		<path id="XMLID_131_" style="fill:#D3E3EA;stroke:#4D565B;stroke-linecap:round;stroke-linejoin:round;stroke-miterlimit:10;" d="
			M519.351,380.811c5.895,13.264,18.79,40.159,33.896,36.843c7,3.316,11.053-0.737,10.685-1.842
			c5.895,1.474,8.842-5.527,6.632-8.474c-2.211-2.947-8.474-4.79-8.474-4.79c-12.158-26.527-16.211-35.37-16.211-35.37
			L519.351,380.811z"/>
		<path id="XMLID_137_" style="fill:#D3E3EA;stroke:#4D565B;stroke-linecap:round;stroke-linejoin:round;stroke-miterlimit:10;" d="
			M549.194,314.861c-2.579-10.316-13.264-13.632-7.737-17.685c5.527-4.053,14.001-2.211,17.316,2.211
			c3.316,4.421,1.842,20.264,1.842,20.264L549.194,314.861z"/>
		<path id="XMLID_133_" style="fill:#D3E3EA;stroke:#4D565B;stroke-linecap:round;stroke-linejoin:round;stroke-miterlimit:10;" d="
			M550.299,408.444c4.79,4.421,2.948,9.211,2.948,9.211"/>
		<path id="XMLID_113_" style="fill:#D3E3EA;stroke:#4D565B;stroke-linecap:round;stroke-linejoin:round;stroke-miterlimit:10;" d="
			M558.405,407.707c4.053-0.737,5.526,8.106,5.526,8.106"/>
		<path id="XMLID_135_" style="fill:#D3E3EA;stroke:#4D565B;stroke-linecap:round;stroke-linejoin:round;stroke-miterlimit:10;" d="
			M488.771,402.18c-1.105,2.579-5.895,6.263-5.895,6.263"/>
		<path id="XMLID_146_" style="fill:#C9631F;stroke:#6D3D19;stroke-linecap:round;stroke-linejoin:round;stroke-miterlimit:10;" d="
			M499.682,326.851c-13.827,11.138-12.291,46.858,9.986,52.619s29.958-4.993,29.958-4.993L499.682,326.851z"/>
		<path id="XMLID_136_" style="fill:#D3E3EA;stroke:#4D565B;stroke-linecap:round;stroke-linejoin:round;stroke-miterlimit:10;" d="
			M495.403,404.023c-0.737,4.053-3.735,6.506-3.735,6.506"/>
		<path id="XMLID_134_" style="fill:#D3E3EA;stroke:#4D565B;stroke-linecap:round;stroke-linejoin:round;stroke-miterlimit:10;" d="
			M503.517,312.945c11.422-9.948,30.203-11.347,43.098-3.61c16.948,2.579,24.244,19.313,22.771,31.839
			c-1.474,12.527-5.576,18.123-5.576,18.123s-6.878,14.882-23.826,18.198c-16.948,3.316-41.633-2.947-45.686-28.001
			C490.245,324.441,503.517,312.945,503.517,312.945z"/>
		<path id="XMLID_138_" style="fill:#D3E3EA;stroke:#4D565B;stroke-linecap:round;stroke-linejoin:round;stroke-miterlimit:10;" d="
			M507.929,317.809c-3.684-13.264-9.579-9.948-12.895-8.106c-3.316,1.842-14.001,1.105-15.106,6.632
			c-1.105,5.527,14.737,11.053,21.001,9.948"/>
		<path id="XMLID_143_" style="fill:#D3E3EA;stroke:#4D565B;stroke-linecap:round;stroke-linejoin:round;stroke-miterlimit:10;" d="
			M516.035,348.02c-5.895,8.106-7.369,22.474,4.421,23.948c11.79,1.474,20.632-1.105,20.632-14.737
			c6.632,2.211,10.316-3.684,10.316-3.684c1.842,13.632,10.834,14.046,14.519,11.099c3.684-2.947,10.903-19.941-5.308-27.31"/>
		<path id="XMLID_141_" style="fill:#D3E3EA;stroke:#4D565B;stroke-linecap:round;stroke-linejoin:round;stroke-miterlimit:10;" d="
			M531.141,343.231c5.158-8.106,17.316-12.158,23.211-4.79"/>
		<path id="XMLID_142_" style="fill:#D3E3EA;stroke:#4D565B;stroke-linecap:round;stroke-linejoin:round;stroke-miterlimit:10;" d="
			M525.246,337.704c7.369-12.158,23.211-13.632,30.212-2.947"/>
		
			<ellipse id="XMLID_139_" style="fill:#231F20;stroke:#231F20;stroke-linecap:round;stroke-linejoin:round;stroke-miterlimit:10;" cx="516.219" cy="338.625" rx="2.026" ry="3.869"/>
		<path id="XMLID_140_" style="fill:#231F20;stroke:#231F20;stroke-linecap:round;stroke-linejoin:round;stroke-miterlimit:10;" d="
			M536.299,338.81c4.79-4.79,12.527-4.79,14-2.211c1.105,4.053-5.158,8.106-5.158,8.106S535.194,342.862,536.299,338.81z"/>
		
			<ellipse id="XMLID_144_" style="fill:#231F20;stroke:#231F20;stroke-linecap:round;stroke-linejoin:round;stroke-miterlimit:10;" cx="559.326" cy="331.625" rx="2.395" ry="4.237"/>
		<path id="XMLID_147_" style="fill:#E2BAA6;stroke:#84553A;stroke-linecap:round;stroke-linejoin:round;stroke-miterlimit:10;" d="
			M227.332,79.76c4.967,2.614,3.66,8.104,0.784,9.15"/>
		<path id="XMLID_148_" style="fill:none;stroke:#231F20;stroke-linecap:round;stroke-linejoin:round;stroke-miterlimit:10;" d="
			M210.862,91.524c5.229,6.013,16.209,8.627,23.006,3.921"/>
		
			<ellipse id="XMLID_145_" style="fill:#231F20;stroke:#231F20;stroke-linecap:round;stroke-linejoin:round;stroke-miterlimit:10;" cx="212.561" cy="74.269" rx="1.176" ry="5.229"/>
		
			<ellipse id="XMLID_150_" style="fill:#231F20;stroke:#231F20;stroke-linecap:round;stroke-linejoin:round;stroke-miterlimit:10;" cx="239.227" cy="75.054" rx="1.176" ry="5.229"/>
		<path id="XMLID_151_" style="fill:none;stroke:#231F20;stroke-linecap:round;stroke-linejoin:round;stroke-miterlimit:10;" d="
			M206.417,62.766c4.444-4.706,8.889-3.921,10.98-1.569"/>
		<path id="XMLID_152_" style="fill:none;stroke:#231F20;stroke-linecap:round;stroke-linejoin:round;stroke-miterlimit:10;" d="
			M236.221,62.244c3.66-4.967,7.843-0.784,7.843,3.399"/>
		<path id="XMLID_112_" style="fill:#C65F32;stroke:#6D300F;stroke-linecap:round;stroke-linejoin:round;stroke-miterlimit:10;" d="
			M187.097,121.896c-0.63-18.281,12.499-13.85,20.944-7.432c5.043,3.152,9.121,23.309,5.743,26.012
			c-5.612,4.49-17.566-8.108-17.566-8.108"/>
		<path id="XMLID_169_" style="fill:#C65F32;stroke:#6D300F;stroke-linecap:round;stroke-linejoin:round;stroke-miterlimit:10;" d="
			M225.096,114.066c10.717,2.522,12.608,17.02,6.304,24.585c-6.304,7.565-14.255-0.626-12.21-2.567
			C229.631,126.175,225.096,114.066,225.096,114.066z"/>
		<path id="XMLID_149_" style="fill:none;stroke:#231F20;stroke-linecap:round;stroke-linejoin:round;stroke-miterlimit:10;" d="
			M189.596,131.717"/>
		<path id="XMLID_171_" style="fill:#C65F32;stroke:#6D300F;stroke-linecap:round;stroke-linejoin:round;stroke-miterlimit:10;" d="
			M217.5,137.773c3.782,20.803,8.028,62.025-4.58,104.261"/>
		<path id="XMLID_173_" style="fill:#D3E3EA;stroke:#4D565B;stroke-linecap:round;stroke-linejoin:round;stroke-miterlimit:10;" d="
			M482.108,381.495c5.616-2.592,10.347-2.894,10.347-2.894"/>
		
			<path id="XMLID_175_" style="fill:none;stroke:#231F20;stroke-width:2;stroke-linecap:round;stroke-linejoin:round;stroke-miterlimit:10;" d="
			M287.26,268.302c9.505,61.781,162.445,106.713,212.562,105.417"/>
		<path id="XMLID_174_" style="fill:#C65F32;stroke:#6D300F;stroke-linecap:round;stroke-linejoin:round;stroke-miterlimit:10;" d="
			M185.07,211.416c8.783-0.338,21.62-10.81,21.62-10.81l1.351,5.743"/>
		
			<polyline id="XMLID_176_" style="fill:#C65F32;stroke:#6D300F;stroke-linecap:round;stroke-linejoin:round;stroke-miterlimit:10;" points="
			225.946,207.363 228.986,202.296 239.121,218.173 		"/>
	</g>
</g>
</svg>
