<?xml version="1.0" encoding="utf-8"?>
<!-- Generator: Adobe Illustrator 19.0.0, SVG Export Plug-In . SVG Version: 6.00 Build 0)  -->
<!DOCTYPE svg PUBLIC "-//W3C//DTD SVG 1.1//EN" "http://www.w3.org/Graphics/SVG/1.1/DTD/svg11.dtd">
<svg version="1.1" xmlns="http://www.w3.org/2000/svg" xmlns:xlink="http://www.w3.org/1999/xlink" x="0px" y="0px" width="648px"
	 height="432px" viewBox="0 0 648 432" style="enable-background:new 0 0 648 432;" xml:space="preserve">
<symbol  id="flower1" viewBox="-10.577 -10.167 21.155 20.335">
	<path id="XMLID_97_" style="fill:#F5FDFF;stroke:#72868C;stroke-linecap:round;stroke-linejoin:round;stroke-miterlimit:10;" d="
		M-1.77,0.269c-6.364,12.492,2.828,12.728,2.357-0.471C6.244,8.047,17.322-0.674,3.18-1.381c6.364-4.478,5.185-13.435-3.3-2.121
		c-1.414-7.307-8.014-9.428-2.357,0.943C-10.019-5.623-15.205,4.747-1.77,0.269z"/>
</symbol>
<g id="Layer_7">
	<rect id="XMLID_92_" y="0" style="fill:#EFDAED;" width="648" height="401.536"/>
	
		<rect id="XMLID_91_" y="341.223" style="fill:#D6CB9D;stroke:#827643;stroke-linecap:round;stroke-linejoin:round;stroke-miterlimit:10;" width="648" height="90.777"/>
</g>
<g id="Layer_2">
	<path id="XMLID_4_" style="fill:#DDB899;stroke:#663A2B;stroke-linecap:round;stroke-linejoin:round;stroke-miterlimit:10;" d="
		M69.915,70.83c12.577-7.294,30.939-6.791,34.46,3.521c3.521,10.313,1.006,19.368,2.012,22.135c1.006,2.767,6.54,7.043,6.791,8.552
		c0.252,1.509-2.515,5.031-2.515,5.031c-0.252,4.779,2.515,24.65-22.135,21.129c-0.252,11.571-1.258,16.853-1.258,16.853
		s-23.393,1.006-24.902,0.252C60.86,147.548,49.289,77.873,69.915,70.83z"/>
	<path id="XMLID_6_" style="fill:none;stroke:#231F20;stroke-linecap:round;stroke-linejoin:round;stroke-miterlimit:10;" d="
		M98.842,113.59c3.018,6.037,11.319,4.779,11.319,4.779"/>
	<path id="XMLID_18_" style="fill:#D3AA42;stroke:#564E36;stroke-linecap:round;stroke-linejoin:round;stroke-miterlimit:10;" d="
		M78.97,397.321c-1.006,2.515-2.515,11.571-2.515,11.571s32.362,5.87,37.73,3.018c8.049-4.276,5.031-7.546,1.006-8.552
		c-3.058-0.764-13.834-2.012-13.583-2.264c5.031,2.264,2.767,5.031-0.252,5.534C98.339,407.131,79.222,400.843,78.97,397.321z"/>
	<path id="XMLID_5_" style="fill:#4C3724;stroke:#876F57;stroke-linecap:round;stroke-linejoin:round;stroke-miterlimit:10;" d="
		M83.247,79.885c2.264,11.319,2.767,27.166-10.061,38.736c4.025,14.841,8.804,22.387,8.804,22.387
		c-8.049-0.755-14.086-6.791-14.086-6.791c1.761,18.11,6.288,25.657,6.288,25.657c-19.62,0.503-24.902-13.08-24.902-22.387
		c-3.773,10.313-3.521,14.086-3.521,14.086c-6.54-4.779-6.791-20.877,0.755-32.448c-8.049,6.288-9.558,5.785-9.558,5.785
		c9.055-9.307,9.307-17.607,9.81-23.896c0.503-6.288-1.258-31.945,22.638-40.246s44.019,3.27,43.515,22.135
		c-4.025,1.006-15.092-8.804-15.092-8.804c4.025,4.276,5.031,12.325,5.031,12.325C94.062,88.185,83.247,79.885,83.247,79.885z"/>
	<path id="XMLID_15_" style="fill:#DDB899;stroke:#663A2B;stroke-linecap:round;stroke-linejoin:round;stroke-miterlimit:10;" d="
		M96.578,363.112c-3.521,15.344-6.54,33.203-6.54,33.203c12.828,6.54,18.614,5.282,18.865,7.294
		c0.252,2.012-10.816,5.785-24.902,1.509c-14.086-4.276-9.307-12.074-9.81-13.583c-0.503-1.509,6.791-31.693,6.791-31.693
		L96.578,363.112z"/>
	<path id="XMLID_7_" style="fill:#4C3724;stroke:#876F57;stroke-linecap:round;stroke-linejoin:round;stroke-miterlimit:10;" d="
		M72.934,98.75c-0.252,4.779-3.521,19.62-7.798,24.399c6.288-2.264,8.049-4.528,8.049-4.528"/>
	
		<ellipse id="XMLID_8_" transform="matrix(0.9929 -0.1194 0.1194 0.9929 -10.9081 12.3577)" style="fill:#231F20;stroke:#231F20;stroke-linecap:round;stroke-linejoin:round;stroke-miterlimit:10;" cx="97.71" cy="97.241" rx="1.132" ry="4.025"/>
	<path id="XMLID_16_" style="fill:#DDB899;stroke:#663A2B;stroke-linecap:round;stroke-linejoin:round;stroke-miterlimit:10;" d="
		M61.615,363.867c0.503,11.319-3.521,45.025-3.521,45.025c29.178,12.325,40.497,3.521,40.749,2.767
		c0.252-0.755-19.62-9.558-19.871-10.816c5.534-27.166,6.288-34.209,6.288-34.209L61.615,363.867z"/>
	<path id="XMLID_14_" style="fill:#55998F;stroke:#1B423D;stroke-linecap:round;stroke-linejoin:round;stroke-miterlimit:10;" d="
		M86.768,371.162c-1.006,4.528-19.117,6.791-26.663-2.012c3.773-25.657-3.018-52.319-5.785-69.172
		c-2.767-16.853-6.791-30.184,2.264-50.307c30.184-3.773,48.546,12.325,48.546,12.325c0.755,26.16-1.258,54.331-3.27,72.19
		s-4.528,33.203-4.528,33.203c-3.018,2.012-9.81-1.006-9.81-1.006L86.768,371.162z"/>
	<path id="XMLID_9_" style="fill:#FFFFFF;stroke:#7A676C;stroke-linecap:round;stroke-linejoin:round;stroke-miterlimit:10;" d="
		M67.148,144.529c-8.804,12.577-11.822,21.632-9.055,37.982c2.767,16.35,8.049,39.491,8.301,42.258
		c-14.086,25.153-14.086,31.945-14.086,31.945c23.141,18.614,50.558,10.816,55.086,9.307c-3.27-42.509-1.509-54.583-1.006-57.098
		c0.503-2.515,9.307-19.62,9.055-25.153c-0.252-5.534-22.89-34.209-27.669-35.969S67.4,145.032,67.148,144.529z"/>
	<path id="XMLID_12_" style="fill:#BEACCC;stroke:#473751;stroke-linecap:round;stroke-linejoin:round;stroke-miterlimit:10;" d="
		M108.148,174.462c-0.503,10.564-6.288,60.368-3.773,62.381c2.515,2.012,5.031,3.27,7.798-0.755
		c2.767-4.025,29.43-39.491,33.957-54.583C148.645,165.91,116.449,157.357,108.148,174.462z"/>
	<path id="XMLID_11_" style="fill:#DDB899;stroke:#663A2B;stroke-linecap:round;stroke-linejoin:round;stroke-miterlimit:10;" d="
		M94.566,179.492c13.331,20.123,31.693,23.644,45.528,16.098c1.006-3.521,2.012-5.534,2.012-5.534
		c5.031,3.521,5.534,15.344-8.049,18.865c-20.877,11.822-46.534,3.521-56.344-13.583C83.498,179.995,94.566,179.492,94.566,179.492z
		"/>
	<path id="XMLID_10_" style="fill:#FFFFFF;stroke:#7A676C;stroke-linecap:round;stroke-linejoin:round;stroke-miterlimit:10;" d="
		M70.67,156.1c4.779-5.031,12.577-5.534,16.601,0c4.025,5.534,12.828,25.405,12.828,25.405
		c-7.798,18.11-20.626,16.601-24.902,17.356c-7.294-21.129-11.571-28.675-11.571-28.675"/>
	<path id="XMLID_26_" style="fill:#8C60B2;stroke:#44245B;stroke-linecap:round;stroke-linejoin:round;stroke-miterlimit:10;" d="
		M120.646,129.913c-2.654-7.721-10.134-8.445-6.274-0.241c-5.791-0.965-9.169,1.93-2.654,3.861
		c-8.928-0.724-0.241,9.169,1.689,10.134c1.93,0.965,7.721-3.619,7.721-4.343C121.129,138.599,120.646,129.913,120.646,129.913z"/>
	<path id="XMLID_13_" style="fill:#55998F;stroke:#1B423D;stroke-linecap:round;stroke-linejoin:round;stroke-miterlimit:10;" d="
		M103.118,275.327c-1.761,2.767-6.037,7.546-6.037,7.546c-3.521,59.111-9.558,83.509-9.558,83.509"/>
	<path id="XMLID_17_" style="fill:#D3AA42;stroke:#564E36;stroke-linecap:round;stroke-linejoin:round;stroke-miterlimit:10;" d="
		M58.596,404.616c-0.755,3.018-2.012,10.061-2.012,10.061c25.405,8.301,42.509,5.785,47.792,4.025s7.798-7.043,2.012-8.804
		s-13.544-1.765-14.047-2.519c4.779,3.521,2.979,5.538-7.585,5.286C74.191,412.413,59.099,404.364,58.596,404.616z"/>
	<path id="XMLID_19_" style="fill:#7DA86C;stroke:#436B36;stroke-linecap:round;stroke-linejoin:round;stroke-miterlimit:10;" d="
		M108.823,141.736c-9.41,0.483-12.064,7.239-2.654,8.928c-6.756,2.172-3.861,5.308-3.861,5.308c2.654-0.483,7.963,0,7.963,0
		c-5.067,1.448-9.893,10.375-9.893,10.375c2.172,0.483,9.652,0,9.652,0c-4.826,4.826-5.791,17.132,5.55,7.721
		c0.483,5.308,2.172,6.032,2.172,6.032c1.689-3.137,4.826-6.997,4.826-6.997c-1.206,5.791,1.448,14.236,1.448,14.236
		c4.102-5.308,7.239-13.03,7.239-13.03c0.241,2.654,0.724,6.274,0.965,7.239c2.172-1.689,3.861-5.791,3.861-5.791
		c1.93,15.684,6.997,7.48,7.239,3.137c9.41,6.997,9.893,10.617,9.893,10.617c2.413-8.928-0.241-13.995-0.241-13.995
		c2.895,2.413,6.274,1.448,6.032,0.483c4.343,3.378,4.585,10.858,5.067,9.652c0.483-1.206,3.378-8.686-1.448-14.719
		c6.756-3.137,3.619-8.204,1.206-10.134c8.204-4.343,6.756-9.652,3.619-11.823c3.264-4.026-4.585-18.821-8.445-18.821
		c3.661-4.451,1.562-8.999-6.032-3.378c-3.378-6.515-7.721-2.895-7.721-2.895c-3.137-2.172-8.928,3.137-8.928,3.137l-5.791,2.172
		c-4.102-5.308-11.099-4.584-12.306-0.483c-1.206,4.102,0.241,9.169,0.241,9.169C114.614,134.497,108.823,135.704,108.823,141.736z"
		/>
	<path id="XMLID_21_" style="fill:#8C60B2;stroke:#44245B;stroke-linecap:round;stroke-linejoin:round;stroke-miterlimit:10;" d="
		M134.882,123.88c-1.689-12.306,11.582-14.236,7.963-1.93c4.102-4.102,10.617,0.241,1.448,5.308c7.721-0.965,7.48,8.686-0.483,5.55
		c5.308,8.686-2.172,9.169-4.585,2.654c-4.343,11.823-9.652,7.721-6.032,0.965c-10.134,0.724-8.686-7.239-2.172-7.239
		C117.751,120.744,129.332,114.229,134.882,123.88z"/>
	<path id="XMLID_20_" style="fill:#8C60B2;stroke:#44245B;stroke-linecap:round;stroke-linejoin:round;stroke-miterlimit:10;" d="
		M157.322,134.497c1.206-7.239,7.48-14.719,9.893-10.375c2.413,4.343-5.55,10.858-5.55,10.858c8.928-1.206,11.341,4.584,6.756,6.515
		c-4.585,1.93-6.997-0.724-6.997-0.724c6.515,8.445,1.689,13.512-0.965,10.134s-3.137-8.204-3.137-8.204
		c-1.93,6.274-11.341,6.515-2.895-4.102C143.81,136.186,147.912,122.915,157.322,134.497z"/>
	<path id="XMLID_23_" style="fill:#8C60B2;stroke:#44245B;stroke-linecap:round;stroke-linejoin:round;stroke-miterlimit:10;" d="
		M141.638,154.283c-3.861-5.067-0.483-14.477,4.102-1.689c1.93-10.375,11.823-10.375,5.308,0.965c9.41-5.067,15.201,10.375,0,6.032
		c4.102,6.274-6.515,18.579-6.756,0C136.812,165.865,126.678,157.902,141.638,154.283z"/>
	<path id="XMLID_22_" style="fill:#8C60B2;stroke:#44245B;stroke-linecap:round;stroke-linejoin:round;stroke-miterlimit:10;" d="
		M119.198,148.009c-3.619-11.823-10.375-9.652-6.515,0.483c-9.169-5.067-17.373,5.55-0.724,6.032
		c-9.41,9.652,0.241,17.373,4.585,4.585c3.619,6.997,8.204,8.686,6.032-0.241c7.963,0,10.617-5.308,2.172-6.274
		C135.847,146.079,127.161,136.186,119.198,148.009z"/>
	<path id="XMLID_24_" style="fill:#8C60B2;stroke:#44245B;stroke-linecap:round;stroke-linejoin:round;stroke-miterlimit:10;" d="
		M137.536,172.862c2.654-7.239,11.823-6.274,4.102,0.965c7.963-0.965,11.341,7.48,0.724,4.585
		c2.413,10.858-7.963,15.684-6.515,1.448c-7.239,7.721-13.03,5.55-3.619-2.172c-10.134-0.241-7.48-18.579,1.206-4.343
		C133.917,166.106,135.606,161.522,137.536,172.862z"/>
	<path id="XMLID_28_" style="fill:#DDB899;stroke:#663A2B;stroke-linecap:round;stroke-linejoin:round;stroke-miterlimit:10;" d="
		M81.039,127.216c3.531,3.237,7.49,3.982,7.49,3.982"/>
	<path id="XMLID_93_" style="fill:#7DA86C;stroke:#436B36;stroke-linecap:round;stroke-linejoin:round;stroke-miterlimit:10;" d="
		M159.011,130.154c3.661-4.451,1.562-8.999-6.032-3.378c-0.454-8.071-7.721-2.895-7.721-2.895"/>
</g>
<g id="Layer_3">
	<path id="XMLID_36_" style="fill:#3A2A30;stroke:#75283E;stroke-linecap:round;stroke-linejoin:round;stroke-miterlimit:10;" d="
		M250.472,347.059c-4.478,11.314-15.32,42.19-16.499,53.504c13.671,4.714,17.206,2.828,16.97,5.657
		c-0.236,2.828-14.849,6.128-25.22,1.414c3.3-44.547,2.593-61.046,2.593-61.046L250.472,347.059z"/>
	<path id="XMLID_32_" style="fill:#CEAD63;stroke:#634F1E;stroke-linecap:round;stroke-linejoin:round;stroke-miterlimit:10;" d="
		M205.454,172.642c-9.428,1.886-14.613,13.435-16.263,20.742c-1.65,7.307-1.414,44.311-9.428,63.874
		c6.128-4.007,10.371-12.021,10.371-12.021c-6.835,23.806-7.307,41.954,28.048,57.039c12.963-36.298,14.849-116.907,14.849-116.907"
		/>
	<path id="XMLID_25_" style="fill:#E2A688;stroke:#7F563B;stroke-linecap:round;stroke-linejoin:round;stroke-miterlimit:10;" d="
		M244.337,171.939c4.413,6.473,1.765,12.946,5.59,15.888c3.825,2.942,7.062,2.06,7.65,4.708c0.588,2.648,0.883,9.121-1.471,14.712
		c-1.765,10.592-6.767,14.123-9.121,15.006s-10.298,2.06-10.298,2.06c-1.471,6.767,0,8.827,0,8.827l19.713,8.238
		c0,0-15.006,12.652-15.594,11.769s-18.853-14.98-18.853-14.98c2.06-8.238,5.057-13.501,0.236-21.92
		c-0.877-1.532-17.867-7.529-12.277-36.658S240.806,157.815,244.337,171.939z"/>
	<path id="XMLID_34_" style="fill:#DFF1F2;stroke:#4C5C5E;stroke-linecap:round;stroke-linejoin:round;stroke-miterlimit:10;" d="
		M243.271,402.899c11.314,1.414,15.834,3.164,15.007,5.287c-1.813,4.654-15.676,6.16-34.297-0.204
		c18.856,0.943,24.984,0.471,25.22-1.414C249.436,404.683,243.271,402.899,243.271,402.899z"/>
	<path id="XMLID_29_" style="fill:none;stroke:#231F20;stroke-linecap:round;stroke-linejoin:round;stroke-miterlimit:10;" d="
		M242.571,203.127c3.237,3.237,9.121,4.708,14.123,2.942"/>
	<path id="XMLID_37_" style="fill:#DFF1F2;stroke:#4C5C5E;stroke-linecap:round;stroke-linejoin:round;stroke-miterlimit:10;" d="
		M206.161,407.869c-2.828,3.064-2.828,6.364-2.828,6.364c8.014,6.128,29.462,4.316,35.443,3.229
		c2.675-0.486,10.535-4.429,5.35-6.079c-5.185-1.65-13.86-2.675-13.86-2.675c1.65,3.771,0.811,1.95-6.19,3.168
		C213.232,413.762,206.161,407.869,206.161,407.869z"/>
	<path id="XMLID_38_" style="fill:#3A2A30;stroke:#75283E;stroke-linecap:round;stroke-linejoin:round;stroke-miterlimit:10;" d="
		M236.095,348.238c-5.185,15.32-20.506,56.332-20.506,56.332c16.499,4.478,18.633,4.198,20.755,6.084s-21.462,7.115-30.182-0.663
		c8.721-41.954,8.721-65.289,8.721-65.289C233.266,334.567,236.095,348.238,236.095,348.238z"/>
	<path id="XMLID_27_" style="fill:#E2A688;stroke:#7F563B;stroke-linecap:round;stroke-linejoin:round;stroke-miterlimit:10;" d="
		M216.532,194.326c-9.428-5.892-15.32-0.236-10.371,8.485c4.95,8.721,10.371,4.714,11.785,2.593"/>
	<path id="XMLID_31_" style="fill:#CEAD63;stroke:#634F1E;stroke-linecap:round;stroke-linejoin:round;stroke-miterlimit:10;" d="
		M205.69,186.312c0.471,2.357,4.243,12.021,11.549,12.963c-0.707-6.6-1.414-16.97-1.414-16.97
		c8.957,4.478,20.506-11.314,20.977-13.671c8.249,9.664,10.606,10.135,11.549,10.606c0.943,0.471,2.121,4.95,2.121,4.95
		c5.657-9.664,4.243-27.812-13.906-26.87c-17.677-6.835-33.941,2.828-34.176,15.792"/>
	<path id="XMLID_35_" style="fill:#CE577F;stroke:#75283E;stroke-linecap:round;stroke-linejoin:round;stroke-miterlimit:10;" d="
		M261.786,255.136c0,0-2.593,47.847,7.307,90.508c-1.414,4.714-41.719,18.62-70.474-4.478c0,0,15.085-49.497,20.506-65.053
		c1.957-9.256-1.879-30.178,2.654-32.619"/>
	<path id="XMLID_40_" style="fill:#DFF1F2;stroke:#4C5C5E;stroke-linecap:round;stroke-linejoin:round;stroke-miterlimit:10;" d="
		M247.644,273.757c6.6,15.556,22.391,49.261,28.755,54.446c6.128,4.95,5.185-5.185,5.657-9.664s5.421-48.083,3.535-52.797
		S247.644,273.757,247.644,273.757z"/>
	<path id="XMLID_33_" style="fill:#E2A688;stroke:#7F563B;stroke-linecap:round;stroke-linejoin:round;stroke-miterlimit:10;" d="
		M214.41,239.345c-7.071,6.835-19.563,39.833,15.556,50.911c17.677,4.714,32.055,1.65,32.055,1.65
		c8.249,8.957,22.627,4.478,22.391-1.886c-0.236-6.364-10.371-2.593-16.97-5.657c6.835-6.364,4.478-8.721-0.471-5.892
		c-4.95,2.828-7.071,4.714-7.071,4.714c-6.6,0.471-30.405-3.064-32.762-16.263c-2.357-13.199,1.886-17.206,1.886-17.206
		L214.41,239.345z"/>
	<path id="XMLID_30_" style="fill:#CE577F;stroke:#75283E;stroke-linecap:round;stroke-linejoin:round;stroke-miterlimit:10;" d="
		M237.273,246.887c-2.593-3.064-16.735-12.492-17.442-12.492s-8.721,4.714-10.842,8.014c12.021,4.714,19.092,12.021,20.034,16.028"
		/>
	
		<use xlink:href="#flower1"  width="21.155" height="20.335" id="XMLID_50_" x="-10.577" y="-10.167" transform="matrix(-0.8126 0.0639 0.0639 0.8126 263.0845 228.0641)" style="overflow:visible;"/>
	<path id="XMLID_39_" style="fill:#7DA86C;stroke:#436B36;stroke-linecap:round;stroke-linejoin:round;stroke-miterlimit:10;" d="
		M244.344,239.816c-5.421-11.785,4.95-14.378,8.721-5.421c-1.414-11.785,4.243-15.792,5.892-4.714
		c2.121-6.6,4.243-0.707,4.243-0.707c6.364-16.028,13.435-10.371,11.785-4.007c7.071-8.957,8.721,2.828,2.593,7.307
		c13.671-9.899,20.27,4.243,9.664,7.307c11.314-2.121,11.549,9.664,2.593,10.842c16.97-1.65,10.842,11.078,3.064,9.664
		c5.657,8.485,1.414,12.963-6.364,10.371c-1.178,6.128-10.135,12.963-14.142,1.886c-4.007,3.535-6.364-0.471-6.364-0.471
		c-2.828,7.778-7.778,7.778-10.135,2.593c-5.185,8.014-11.785,3.771-10.135-4.478c-8.014,5.421-11.078,0.471-4.95-5.185
		c-10.135,0.471-8.014-9.192-2.828-9.428C232.088,247.358,227.845,238.873,244.344,239.816z"/>
	<path id="XMLID_41_" style="fill:#E2A688;stroke:#7F563B;stroke-linecap:round;stroke-linejoin:round;stroke-miterlimit:10;" d="
		M283.706,295.912c3.889-4.52,4.478,11.785-0.707,14.378C277.813,312.883,274.985,306.047,283.706,295.912z"/>
	
		<use xlink:href="#flower1"  width="21.155" height="20.335" id="XMLID_43_" x="-10.577" y="-10.167" transform="matrix(1 0 0 -1 275.8122 238.6706)" style="overflow:visible;"/>
	
		<use xlink:href="#flower1"  width="21.155" height="20.335" id="XMLID_46_" x="-10.577" y="-10.167" transform="matrix(0.4289 0.6931 0.6931 -0.4289 256.7206 240.7919)" style="overflow:visible;"/>
	
		<use xlink:href="#flower1"  width="21.155" height="20.335" id="XMLID_47_" x="-10.577" y="-10.167" transform="matrix(0.4289 0.6931 0.6931 -0.4289 242.343 254.2267)" style="overflow:visible;"/>
	
		<use xlink:href="#flower1"  width="21.155" height="20.335" id="XMLID_48_" x="-10.577" y="-10.167" transform="matrix(-0.4792 0.6593 0.6593 0.4792 278.8763 259.4121)" style="overflow:visible;"/>
	
		<use xlink:href="#flower1"  width="21.155" height="20.335" id="XMLID_49_" x="-10.577" y="-10.167" transform="matrix(-0.8126 0.0639 0.0639 0.8126 256.9563 265.3046)" style="overflow:visible;"/>
	
		<ellipse id="XMLID_45_" transform="matrix(0.9811 -0.1936 0.1936 0.9811 -32.1467 50.0964)" style="fill:#231F20;stroke:#231F20;stroke-linecap:round;stroke-linejoin:round;stroke-miterlimit:10;" cx="240.176" cy="189.483" rx="0.722" ry="4.422"/>
	<path id="XMLID_52_" style="fill:none;stroke:#231F20;stroke-linecap:round;stroke-linejoin:round;stroke-miterlimit:10;" d="
		M240.537,178.021c-3.068-0.902-5.956,1.624-6.317,4.873"/>
</g>
<g id="Layer_4">
	<g id="XMLID_2_">
		<path id="XMLID_66_" style="fill:#895F42;stroke:#492A1F;stroke-linecap:round;stroke-linejoin:round;stroke-miterlimit:10;" d="
			M393.834,381.314c15.594,7.934,25.443,11.49,21.339,14.5c-4.104,3.009-31.188,2.736-31.188,2.736l-16.415-15.047L393.834,381.314z
			"/>
		<path id="XMLID_65_" style="fill:#895F42;stroke:#492A1F;stroke-linecap:round;stroke-linejoin:round;stroke-miterlimit:10;" d="
			M373.589,387.333c23.255,6.292,29.273,10.396,28.726,13.679c-0.547,3.283-41.311,9.028-56.632,1.368
			c2.736-9.302,1.094-9.028,1.094-9.028L373.589,387.333z"/>
		<path id="XMLID_63_" style="fill:#AD9C76;stroke:#423A26;stroke-linecap:round;stroke-linejoin:round;stroke-miterlimit:10;" d="
			M397.938,249.995c-2.736,62.924,0.821,135.15,0.821,135.15c-14.226,0.821-19.151,3.009-19.151,3.009
			c-1.094-1.642-2.736-123.659-2.736-123.659L397.938,249.995z"/>
		<path id="XMLID_64_" style="fill:#AD9C76;stroke:#423A26;stroke-linecap:round;stroke-linejoin:round;stroke-miterlimit:10;" d="
			M348.693,236.863c-4.924,19.972-1.915,41.585,4.924,64.566c6.84,22.981-9.575,88.367-10.67,95.48
			c20.792,7.387,35.566-7.934,42.405-6.566c-2.462-48.698,6.292-132.141,6.019-134.603
			C391.098,253.278,348.693,236.863,348.693,236.863z"/>
		<path id="XMLID_55_" style="fill:#DB8165;stroke:#4C1C09;stroke-linecap:round;stroke-linejoin:round;stroke-miterlimit:10;" d="
			M380.155,137.005c-13.05,1.591-15.594,4.104-19.698,15.594c-4.104,11.49-0.821,25.99-3.009,46.236s-12.311,34.198-13.953,45.415
			c6.84,15.047,42.953,24.075,56.632,14.773c9.028-45.962,15.594-67.575,13.953-81.528S402.589,134.269,380.155,137.005z"/>
		<path id="XMLID_56_" style="fill:#BF8B67;stroke:#6D462C;stroke-linecap:round;stroke-linejoin:round;stroke-miterlimit:10;" d="
			M403.683,124.42c-1.642,5.198-6.566,21.339-6.566,21.339c4.924,5.745,8.207,9.575,1.641,8.207
			c-6.566-1.368-20.519-13.953-24.896-13.953c3.283-19.151,6.292-30.094,6.292-30.641S403.683,124.42,403.683,124.42z"/>
		<path id="XMLID_53_" style="fill:#BF8B67;stroke:#6D462C;stroke-linecap:round;stroke-linejoin:round;stroke-miterlimit:10;" d="
			M406.692,67.241c8.09,4.623,8.755,14.226,7.113,24.349c8.755,9.302,7.66,10.943,7.66,10.943l-5.198,5.198
			c-1.368,22.707-2.736,19.972-2.736,19.972c-7.66,2.462-28.453-3.009-33.924-10.943c-0.547-7.66-6.566-31.188-6.019-37.207
			C374.136,73.534,404.777,66.147,406.692,67.241z"/>
		<path id="XMLID_54_" style="fill:#212428;stroke:#526989;stroke-linecap:round;stroke-linejoin:round;stroke-miterlimit:10;" d="
			M376.051,91.316c2.189,1.915,7.66,5.472,7.66,5.472c-1.368-7.387-2.189-19.972-2.189-19.972c7.387-3.83,28.726-6.019,35.839-3.283
			c0.274-3.283-5.745-7.113-5.745-7.113c7.934,0.821,10.396,4.104,10.396,4.104c-13.406-15.321-39.396-23.802-56.905-1.094
			c1.641-6.84,1.915-10.67,1.915-10.67c-4.924,6.292-5.472,10.67-4.924,11.49c-12.311,10.943-4.924,26.538-1.915,30.094
			c3.009,3.557,16.372,24.211,16.372,24.211l3.052-7.796L376.051,91.316z"/>
		<path id="XMLID_51_" style="fill:#BF8B67;stroke:#6D462C;stroke-linecap:round;stroke-linejoin:round;stroke-miterlimit:10;" d="
			M380.428,94.326c-10.123-11.217-15.868,0.821-13.953,7.387c1.915,6.566,10.67,9.028,14.226,2.462"/>
		<path id="XMLID_58_" style="fill:#A1C163;stroke:#4E6628;stroke-linecap:round;stroke-linejoin:round;stroke-miterlimit:10;" d="
			M472.079,174.212c6.566,0,18.33-3.83,21.613-7.113c12.585,7.113,16.141,9.028,16.141,9.028c-4.377,2.736-21.613,11.217-29,11.217
			S463.05,182.146,472.079,174.212z"/>
		<path id="XMLID_61_" style="fill:#A1C163;stroke:#4E6628;stroke-linecap:round;stroke-linejoin:round;stroke-miterlimit:10;" d="
			M469.642,174.276c5.472,0,15.868-5.198,18.877-7.113c15.594,9.028,15.594,9.028,15.594,9.028s-20.792,9.028-22.16,9.302
			c-1.368,0.274-13.953-6.019-13.953-6.019L469.642,174.276z"/>
		<path id="XMLID_60_" style="fill:#F4EBD3;stroke:#7C541F;stroke-linecap:round;stroke-linejoin:round;stroke-miterlimit:10;" d="
			M461.956,181.872c-9.199,14.42-26.984,41.945-42.678,56.909c-1.899,1.811-5.053,0.645-5.35-1.963
			c-4.33-37.893-2.732-50.68-2.471-51.981c0.274-1.368-1.4-24.843-1.4-24.843S474.267,140.014,461.956,181.872z"/>
		<path id="XMLID_70_" style="fill:#7DA86C;stroke:#436B36;stroke-linecap:round;stroke-linejoin:round;stroke-miterlimit:10;" d="
			M421.667,133c-2.667-7.333,0.333-8.333,3.667-5c-5.333-9.333,3.667-11.667,7-5.667c8-2.333,20.667-0.667,20.667-0.667
			c2-7,11.667-9.667,7.333,0c4.667-2.333,8-3,8-3l-2,5.667c4.667-4,9.333-2,5.667,3c6,0.333,3.333,7.667,1.667,9
			c-1.667,1.333,5.667,12.333,5.667,12.333c7.333,1.667,10,7,0,8C487.333,160,491,165,483,164.333
			c-2.333,3.667-11.333,10.333-13.333,10c-2-0.333-9,6.333-10.333-2C432,169.333,431,175.667,429,170c-4.667,7.333-9.667,3-6-2.333
			c-5.333,1.667-13.333,3.333-6.333-7.333c-11.333,3.667-9.333-2.333-3.667-4c-8.333-2.333-2.667-7-2-8.333
			c-6.667-7,2-12.333,5.333-7C417.333,136.333,421.667,133,421.667,133z"/>
		<path id="XMLID_59_" style="fill:#BF8B67;stroke:#6D462C;stroke-linecap:round;stroke-linejoin:round;stroke-miterlimit:10;" d="
			M399.579,167.099c10.67,13.406,38.302,17.783,60.735,11.217c8.207-8.207,15.047-9.849,17.783-6.84
			c2.736,3.009-6.292,6.566-6.292,6.566c20.245,11.764,24.896,6.019,22.434,12.311c-2.462,6.292-23.255,10.123-29.547-3.83
			c-21.887,13.679-61.283,20.245-73.867-1.094C393.287,170.382,399.579,167.099,399.579,167.099z"/>
		<path id="XMLID_57_" style="fill:#DB8165;stroke:#4C1C09;stroke-linecap:round;stroke-linejoin:round;stroke-miterlimit:10;" d="
			M370.853,147.401c11.217-10.396,22.16-5.198,32.283,14.226c6.566,9.028,6.84,10.123,6.84,10.123s-10.943,17.783-19.698,18.604
			c-23.255-20.519-21.887-23.528-21.887-23.528"/>
		<path id="XMLID_62_" style="fill:#BF8B67;stroke:#6D462C;stroke-linecap:round;stroke-linejoin:round;stroke-miterlimit:10;" d="
			M446.909,204.58c-0.173,0.008-1.735,1.58-1.915,1.641c-12.858,4.377-19.604,7.332-14.226,12.038
			c4.377,3.83,9.575,1.641,11.764,0.274C449.694,214.056,458.673,204.033,446.909,204.58z"/>
		<path id="XMLID_68_" style="fill:none;stroke:#231F20;stroke-linecap:round;stroke-linejoin:round;stroke-miterlimit:10;" d="
			M401.494,108.826c2.736,4.651,13.953,5.198,13.953,5.198"/>
		<path id="XMLID_69_" style="fill:none;stroke:#231F20;stroke-linecap:round;stroke-linejoin:round;stroke-miterlimit:10;" d="
			M406.419,79.826c-3.009-2.189-7.387,0.547-7.66,3.283"/>
		
			<ellipse id="XMLID_67_" style="fill:#231F20;stroke:#231F20;stroke-linecap:round;stroke-linejoin:round;stroke-miterlimit:10;" cx="403.839" cy="91.213" rx="1.003" ry="4.098"/>
		<path id="XMLID_72_" style="fill:#FFD44A;stroke:#7C541F;stroke-linecap:round;stroke-linejoin:round;stroke-miterlimit:10;" d="
			M437,118.667c0.667-13.667,8-8,5.667-1c6-8.333,12.667-7.333,6,1c10-7,13.667,5,3.667,5.667c8.667,2.667,8.333,7-2,3.667
			c8.667,6.333,3.333,16.333-3.667,5c3.667,7.667-5.667,10.333-5.667,1c-6.333,11.333-12,4.333-4-2.667c-15-3-9.333-9.333-2-6
			C426,115.667,431,108.333,437,118.667z"/>
		<path id="XMLID_73_" style="fill:#FFD44A;stroke:#7C541F;stroke-linecap:round;stroke-linejoin:round;stroke-miterlimit:10;" d="
			M463.667,136c-1.667-8.667,3.667-7.667,3.667,0c5.333-9.333,13.667-13,5-2.667c9.333-3.333,11.333,1,4.667,4
			c10.333,0.667,9.667,4.667,1.667,7C486,146,486.333,154,478.333,151c-0.333,6.667-4.667,4.667-5.667-2C470,159,466,158,467,150
			c-5.667,5-6.333,3.333-3.333-1.333c-10,3-10.333-1-2.333-5.667c-7.333,0.667-6-4-1.667-3C454.667,133.667,463.667,136,463.667,136
			z"/>
		<path id="XMLID_75_" style="fill:#FFD44A;stroke:#7C541F;stroke-linecap:round;stroke-linejoin:round;stroke-miterlimit:10;" d="
			M427.602,144.114c4.687,5.115,2.059,9.466-1.1,4.334c3.149,5.249-5.147,11.512-3.603,1.023c-4.875,6.078-8,4.001-4.773-0.755
			c-7.193,3.812-8.395,0.859-4-4c-5.596,1.906-9.116-3.312-2.524-4.601c-2.524-4.601,1.201-5.047,4.618-0.996
			c-2.336-7.794,0.754-8.773,3.382-3.005c1.733-5.683,2.866-4.841,2.781-0.481c5.459-6.129,7.33-3.589,3.897,2.832
			c4.635-3.468,5.665,0.205,2.352,1.322C434.589,141.967,427.602,144.114,427.602,144.114z"/>
		<path id="XMLID_74_" style="fill:#FFD44A;stroke:#7C541F;stroke-linecap:round;stroke-linejoin:round;stroke-miterlimit:10;" d="
			M442,158.333c0-10.333,7.333-5.333,4.667,0c6.333-8.667,10-1.667,3.333,3.667c9.667-7,15.667-2.333,5.333,2
			c7.667-2,11,2.333,1.667,3.667c7,1.333,8.667,4,2.333,4.667c1.333,2.667-2.333,6.667-5,1.333c-1,8.667-5.333,3.333-5.667,0.667
			c-2.667,7.333-5.333,0-5.333,0c-4.333,9.667-6.333,5.333-6.667,0c-7,4.333-6.333-3-1.333-5c-10-3-6-10.333-0.667-4.667
			C430,156,437,154.667,438,159C438.667,151.667,442,158.333,442,158.333z"/>
		<path id="XMLID_3_" style="fill:#D5ED98;stroke:#75913D;stroke-linecap:round;stroke-linejoin:round;stroke-miterlimit:10;" d="
			M485.923,175.421c2.183,1.507,2.774,3.745,1.321,5c-1.453,1.255-4.401,1.051-6.584-0.455s-2.774-3.745-1.321-5
			C480.792,173.711,483.74,173.915,485.923,175.421z"/>
		<path id="XMLID_96_" style="fill:#D5ED98;" d="M490.263,170.218c1.381,0.953,1.755,2.369,0.835,3.162
			c-0.919,0.794-2.783,0.665-4.164-0.288c-1.381-0.953-1.755-2.369-0.835-3.162S488.882,169.265,490.263,170.218z"/>
		<g id="XMLID_44_">
			<path id="XMLID_98_" style="fill:#4D601E;" d="M488.732,170.082l-1.338,0.885l0.46,0.604c0.074-0.059,0.143-0.116,0.272-0.201
				c0.27-0.179,0.578-0.323,0.88-0.392c0.378-0.092,0.804-0.069,1.097,0.184c0.452,0.392,0.246,1.045-0.515,1.549
				c-0.383,0.253-0.777,0.406-1.017,0.455l-0.121-0.286c0.204-0.046,0.561-0.174,0.879-0.385c0.448-0.296,0.639-0.716,0.329-0.984
				c-0.305-0.256-0.821-0.241-1.522,0.223c-0.199,0.132-0.342,0.249-0.461,0.343l-0.885-1.113l1.678-1.11L488.732,170.082z"/>
		</g>
	</g>
</g>
<g id="Layer_6">
	<path id="XMLID_88_" style="fill:#E5AD88;stroke:#7A5132;stroke-linecap:round;stroke-linejoin:round;stroke-miterlimit:10;" d="
		M534.799,202.078c-12.882,0.204-17.79-0.613-24.946,1.636c-7.157,2.249-8.997,7.566-1.636,7.77
		c7.361,0.204,23.719-3.681,28.218-2.658C540.934,209.848,534.799,202.078,534.799,202.078z"/>
	<path id="XMLID_89_" style="fill:#E5AD88;stroke:#7A5132;stroke-linecap:round;stroke-linejoin:round;stroke-miterlimit:10;" d="
		M527.029,205.759c-9.815,1.84-13.496,5.521-5.112,5.93s13.291-1.227,13.904-4.499"/>
	<path id="XMLID_76_" style="fill:#E5AD88;stroke:#7A5132;stroke-linecap:round;stroke-linejoin:round;stroke-miterlimit:10;" d="
		M568,61.667c-9.006,0-12.667,16.333-11.333,27c-1,6.667-7.333,11-7.333,11c2,3.667,5.667,6,5.667,6c0,2,0.667,5.667,0.667,5.667
		c2.333,17.333,20.667,16.333,28.333,10C585.333,130,583.667,133,583.667,133c-6.333,7-10,13.667-2.667,11s18.333-14.667,22-14.667
		c-4-11-1.667-14.333-1.333-20c0.333-5.667-2.333-44.667-5-45.333C594,63.333,569.333,61.667,568,61.667z"/>
	<path id="XMLID_71_" style="fill:#A0483A;stroke:#662719;stroke-linecap:round;stroke-linejoin:round;stroke-miterlimit:10;" d="
		M575.667,67.333C573,75,574.333,87,587.333,90.333c2-2.667,5.333-2.333,5.333-2.333c-5,10-5,17.667-5,17.667
		c10.667,10.333,13,10.667,13,10.667C611,108.333,621.333,93,614,73s-26-20.333-35.667-16.333c-11-11-28.333,0.667-26.667,6
		c3.333-1,5.333-0.333,5.333-0.333c-11.333,9.333-8,13.333-6.667,18c3.333-2.667,15.333-12.667,15.333-12.667
		c-1.333,2.667-5.667,12-5.667,12C565.667,78,575.667,67.333,575.667,67.333z"/>
	<path id="XMLID_78_" style="fill:none;stroke:#231F20;stroke-linecap:round;stroke-linejoin:round;stroke-miterlimit:10;" d="
		M567.516,106.587c-1.84,3.885-6.952,5.725-12.064,3.681"/>
	<path id="XMLID_86_" style="fill:#5C7A49;stroke:#2E491D;stroke-linecap:round;stroke-linejoin:round;stroke-miterlimit:10;" d="
		M585.919,156.07c-13.905,23.106-21.879,40.691-58.481,44.576c6.339,5.316,6.748,9.61,6.748,9.61
		c16.358,0,41.918,2.045,50.097-8.997C592.462,190.218,585.919,156.07,585.919,156.07z"/>
	<path id="XMLID_77_" style="fill:#E5AD88;stroke:#7A5132;stroke-linecap:round;stroke-linejoin:round;stroke-miterlimit:10;" d="
		M583.874,93.091c3.067-11.655,13.496-7.361,10.224,1.227c-3.272,8.588-8.793,10.428-10.837,9.202"/>
	<path id="XMLID_80_" style="fill:none;stroke:#231F20;stroke-linecap:round;stroke-linejoin:round;stroke-miterlimit:10;" d="
		M563.426,75.711c5.112-1.636,9.406,5.316,9.815,6.134"/>
	
		<ellipse id="XMLID_79_" style="fill:#231F20;stroke:#231F20;stroke-linecap:round;stroke-linejoin:round;stroke-miterlimit:10;" cx="565.164" cy="87.979" rx="0.92" ry="3.681"/>
	<path id="XMLID_84_" style="fill:#F4EBD3;stroke:#7C541F;stroke-linecap:round;stroke-linejoin:round;stroke-miterlimit:10;" d="
		M580.194,261.377c-0.613,11.042,1.431,48.257,4.499,57.458c29.854,13.087,38.646-1.022,38.646-1.022
		c7.975-38.646,8.588-56.027,7.566-57.458C629.882,258.923,580.194,261.377,580.194,261.377z"/>
	<path id="XMLID_82_" style="fill:#E5AD88;stroke:#7A5132;stroke-linecap:round;stroke-linejoin:round;stroke-miterlimit:10;" d="
		M588.782,115.993c-1.431,2.249-5.521,6.134-5.521,6.134"/>
	<path id="XMLID_81_" style="fill:#5C7A49;stroke:#2E491D;stroke-linecap:round;stroke-linejoin:round;stroke-miterlimit:10;" d="
		M585.305,128.875c-10.224,8.384-24.946,27.196-24.946,37.011s6.952,21.061,15.336,28.831c1.636,13.905,3.067,20.857,5.725,32.308
		c-8.997,40.487-4.09,41.918-4.09,41.918c29.24,15.54,56.027-1.636,56.027-1.636c2.863-36.397-10.633-48.87-10.837-49.893
		c0.613-39.464-1.84-50.506-1.636-61.139C621.089,145.642,607.185,115.788,585.305,128.875z"/>
	<path id="XMLID_83_" style="fill:#5C7A49;stroke:#2E491D;stroke-linecap:round;stroke-linejoin:round;stroke-miterlimit:10;" d="
		M606.776,139.303c-13.087-5.725-18.812-4.703-24.946,9.815c-6.134,14.518-16.358,34.352-44.781,26.787
		c-0.818,7.157-6.134,12.678-6.134,12.678c28.831,15.131,67.273,1.84,73.817-25.355"/>
	<path id="XMLID_85_" style="fill:#E5AD88;stroke:#7A5132;stroke-linecap:round;stroke-linejoin:round;stroke-miterlimit:10;" d="
		M538.276,178.563c-10.837-15.54-17.176-18.608-21.061-14.518c-3.885,4.09,7.566,9.406,7.566,9.406
		c-14.109,0.818-28.218,15.949-22.084,21.266c6.134,5.316,32.716-8.179,32.716-8.179L538.276,178.563z"/>
	<path id="XMLID_87_" style="fill:#A0483A;stroke:#662719;stroke-linecap:round;stroke-linejoin:round;stroke-miterlimit:10;" d="
		M607.594,103.315c4.441-7.994,25.151-8.179,25.56,18.199c-3.885-5.521-13.735,2.832-21.675-2.249
		C606.367,115.993,602.482,112.517,607.594,103.315z"/>
</g>
<g id="Layer_5">
	
		<polygon id="XMLID_94_" style="fill:#E0D8CA;stroke:#87837B;stroke-linecap:round;stroke-linejoin:round;stroke-miterlimit:10;" points="
		568.179,315.828 568.179,223.618 458.181,223.618 458.181,315.828 458.181,417.492 568.179,417.492 648,417.492 648,315.828 	"/>
	
		<rect id="XMLID_90_" x="453.781" y="210.936" style="fill:#82675D;stroke:#3F3029;stroke-linecap:round;stroke-linejoin:round;stroke-miterlimit:10;" width="120.61" height="18.376"/>
</g>
</svg>
