<?xml version="1.0" encoding="utf-8"?>
<!-- Generator: Adobe Illustrator 19.0.0, SVG Export Plug-In . SVG Version: 6.00 Build 0)  -->
<!DOCTYPE svg PUBLIC "-//W3C//DTD SVG 1.1//EN" "http://www.w3.org/Graphics/SVG/1.1/DTD/svg11.dtd">
<svg version="1.1" id="Layer_1" xmlns="http://www.w3.org/2000/svg" xmlns:xlink="http://www.w3.org/1999/xlink" x="0px" y="0px"
	 width="648px" height="432px" viewBox="-215 325 648 432" style="enable-background:new -215 325 648 432;" xml:space="preserve">
<g id="Layer_2">
	<rect id="XMLID_1_" x="-215" y="325" style="fill:#C1B699;" width="648" height="432"/>
</g>
<g id="Layer_3">
	<g id="XMLID_4_">
		
			<rect id="XMLID_15_" x="-158.6" y="386.2" style="fill:#E2D9C5;stroke:#8E856F;stroke-linecap:round;stroke-linejoin:round;stroke-miterlimit:10;" width="527" height="311.5"/>
		
			<rect id="XMLID_16_" x="-136" y="405.3" style="fill:#BFE9EF;stroke:#8E856F;stroke-linecap:round;stroke-linejoin:round;stroke-miterlimit:10;" width="481.7" height="273.2"/>
		
			<rect id="XMLID_17_" x="-136" y="640.2" style="fill:#BCAD8F;stroke:#8E856F;stroke-linecap:round;stroke-linejoin:round;stroke-miterlimit:10;" width="481.7" height="38.3"/>
		<path id="XMLID_3_" style="fill:#8A7496;stroke:#5E4E68;stroke-linecap:round;stroke-linejoin:round;stroke-miterlimit:10;" d="
			M-51.6,394.8C-49.5,423.6-60,533-107,548.5c0,3.5-5.1,3.1-1.2,10.9c6.4,12.7,1.2,127.3,1.2,127.3l-39.3-1.4V397.6L-51.6,394.8z"/>
		<path id="XMLID_2_" style="fill:#5E4E68;stroke:#5E4E68;stroke-linecap:round;stroke-linejoin:round;stroke-miterlimit:10;" d="
			M-141.4,549.1c7.7,1.4,34.4,0,34.4,0v9.8c0,0-25.3,3.5-30.2,0C-142.1,555.4-141.4,549.1-141.4,549.1z"/>
		<path id="XMLID_117_" style="fill:#8A7496;stroke:#5E4E68;stroke-linecap:round;stroke-linejoin:round;stroke-miterlimit:10;" d="
			M266.7,394.8c-2.1,28.8,8.4,138.2,55.4,153.7c0,3.5,5.1,3.1,1.2,10.9c-6.4,12.7-13.4,128.3-13.4,128.3l51.6-2.4V397.6L266.7,394.8
			z"/>
		<path id="XMLID_116_" style="fill:#5E4E68;stroke:#5E4E68;stroke-linecap:round;stroke-linejoin:round;stroke-miterlimit:10;" d="
			M356.5,549.1c-7.7,1.4-34.4,0-34.4,0v9.8c0,0,25.3,3.5,30.2,0S356.5,549.1,356.5,549.1z"/>
		<path id="XMLID_115_" style="fill:none;stroke:#5E4E68;stroke-linecap:round;stroke-linejoin:round;stroke-miterlimit:10;" d="
			M-116.2,597.2c1,40,0.5,91.3,0.5,91.3"/>
		<path id="XMLID_118_" style="fill:none;stroke:#5E4E68;stroke-linecap:round;stroke-linejoin:round;stroke-miterlimit:10;" d="
			M288.4,395.7c-3.7,25.9,0.7,85.7,19.2,108.6"/>
		<g id="XMLID_105_">
			
				<path id="XMLID_110_" style="fill:#E2D9C5;stroke:#5B5445;stroke-linecap:round;stroke-linejoin:round;stroke-miterlimit:10;" d="
				M-158.6,386.2v311.5h527V386.2H-158.6z M345.7,678.5H-136V405.3h481.7V678.5z"/>
		</g>
		<path id="XMLID_112_" style="fill:none;stroke:#5E4E68;stroke-linecap:round;stroke-linejoin:round;stroke-miterlimit:10;" d="
			M-76.3,437.9c-4.7,43.1-42,112.1-43.6,114.2"/>
		<path id="XMLID_113_" style="fill:none;stroke:#5E4E68;stroke-linecap:round;stroke-linejoin:round;stroke-miterlimit:10;" d="
			M-112.6,467.4c-6.7,56.1-15.1,85.6-15.1,85.6"/>
		<path id="XMLID_114_" style="fill:none;stroke:#5E4E68;stroke-linecap:round;stroke-linejoin:round;stroke-miterlimit:10;" d="
			M-126.6,557.7c-1,21.8,0,69,0,69"/>
		<path id="XMLID_119_" style="fill:none;stroke:#5E4E68;stroke-linecap:round;stroke-linejoin:round;stroke-miterlimit:10;" d="
			M312.8,462.2c6.7,25.9,19.2,80.6,25.9,87.2"/>
		<path id="XMLID_120_" style="fill:none;stroke:#5E4E68;stroke-linecap:round;stroke-linejoin:round;stroke-miterlimit:10;" d="
			M335,558.3c1.5,42.1,2.2,89.4,2.2,89.4"/>
		<path id="XMLID_103_" style="fill:#D88850;stroke:#7A4A26;stroke-linecap:round;stroke-linejoin:round;stroke-miterlimit:10;" d="
			M158.2,627.9c9.9-2.3,18.6,6.4,18.6,12.5c-2.7,5.3-41,3.4-42.9,1.1C132,639.2,158.2,627.9,158.2,627.9z"/>
		<path id="XMLID_47_" style="fill:#D88850;stroke:#7A4A26;stroke-linecap:round;stroke-linejoin:round;stroke-miterlimit:10;" d="
			M141.7,631.9c9.9-2.3,18.6,6.4,18.6,12.5c-2.7,5.3-41,3.4-42.9,1.1C115.5,643.2,141.7,631.9,141.7,631.9z"/>
		<path id="XMLID_45_" style="fill:#D88850;stroke:#7A4A26;stroke-linecap:round;stroke-linejoin:round;stroke-miterlimit:10;" d="
			M217.7,578.1c-2.1,14.2-6.9,24.2-14.5,37.1s-8.2,18.5-8,20.7s3.4,6.7-1.7,10.6c-5.1,3.9-12.1,1.3-13.4,0.7s0.4-29.8,0.4-29.8
			S211.4,573.1,217.7,578.1z"/>
		<path id="XMLID_44_" style="fill:#D88850;stroke:#7A4A26;stroke-linecap:round;stroke-linejoin:round;stroke-miterlimit:10;" d="
			M100.7,609.1c-30.7,22.4-40.6,30.7-31.4,46.1c9,15,21.9,18,52.3,12.3c30.3-5.7,39.8-6.4,47.8-3.4s12.5-3.4,9.5-6.8
			c-3-3.4-15.2-8.7-30-5.7s-27.7,9.5-40.6,9.5s-27.7-2.5-30-12.3c-2.3-9.9,14.4-21,23.5-24.8C111,620.1,100.7,609.1,100.7,609.1z"/>
		<path id="XMLID_43_" style="fill:#D88850;stroke:#7A4A26;stroke-linecap:round;stroke-linejoin:round;stroke-miterlimit:10;" d="
			M195.2,531.4c-6.4,6.8-20.1,15.9-26.2,19c-6.1,3-53.5,14-55.4,44s30.7,40.6,31.5,40.2c2.3,0,35.7-3,44.8-17.1s19.3-26.9,19.3-26.9
			c-1.5,4.6-2.3,9.1-2.3,9.1c7.2-5.7,14.4-20.1,14.4-23.9c3,9.1-2.7,11.8,0,10.6c5.7-4.9,4.2-17.1,4.2-17.1c3.4,3.4,5.7,3.4,5.7,3.4
			c-4.6-6.8-9.1-18.6-2.3-29.2C226.3,534,195.2,531.4,195.2,531.4z"/>
		<path id="XMLID_46_" style="fill:#D88850;stroke:#7A4A26;stroke-linecap:round;stroke-linejoin:round;stroke-miterlimit:10;" d="
			M129.5,580.7c19.7-7.2,36.4,6.1,31.1,26.9c-5.3,20.9-11.4,25.8-19.7,29.6c-8.3,3.8-14,9.1-23.5,8.3s-18.6-7.6-17.8-28.4
			c0.8-20.8,17.4-31.5,17.4-31.5"/>
		<path id="XMLID_42_" style="fill:#D69B74;stroke:#845230;stroke-linecap:round;stroke-linejoin:round;stroke-miterlimit:10;" d="
			M65.8,578.4c16.3,7.2,48.5-12.1,56.1-19.3c8.3-7.6,19.7-19.7,34.9-22.8c15.2-3,23.5,2.7,22,9.5s-22,13.7-29.2,15.9
			c-7.2,2.3-17.8,7.2-17.8,7.2c-14,26.6-48.9,46.3-70.5,30.3C61.3,579.9,65.8,578.4,65.8,578.4z"/>
		<path id="XMLID_39_" style="fill:#6075A8;stroke:#2E3856;stroke-linecap:round;stroke-linejoin:round;stroke-miterlimit:10;" d="
			M35.9,565.5c15.6,2.7,39.8,12.9,39.8,12.9s-9.9,30-16.3,33.4c-11-3-24.7-5.3-24.7-5.3"/>
		<path id="XMLID_36_" style="fill:#6075A8;stroke:#2E3856;stroke-linecap:round;stroke-linejoin:round;stroke-miterlimit:10;" d="
			M43.3,564c-25.4-6.8-45.1-4.7-48.9-1.6c-3.8,3-43.6,74.8-43.6,81.3s77.4,10.2,78.9,8.3s15.2-46.7,14.4-53.1"/>
		<path id="XMLID_35_" style="fill:#D69B74;stroke:#845230;stroke-linecap:round;stroke-linejoin:round;stroke-miterlimit:10;" d="
			M0.6,568.5c5.7,16.3,11.4,17.4,20.5,16.3s8.7-12.9,8.7-15.2C29.8,567.3,0.6,568.5,0.6,568.5z"/>
		<path id="XMLID_40_" style="fill:#D69B74;stroke:#845230;stroke-linecap:round;stroke-linejoin:round;stroke-miterlimit:10;" d="
			M-44.2,593.9c-19.7,10.6-31.5,32.6-31.1,44c0.4,11.4,21.6,32.2,74,17.8c17.4,1.1,43.6,10.2,49.7-3.8C40.4,636.3,26,635.6,20,636
			c-6.1,0.4-25.4,10.2-25.4,10.2c-13.3,1.1-46.7-4.9-44.4-15.6c2.3-10.6,22.4-19.7,22.4-19.7L-44.2,593.9z"/>
		<path id="XMLID_38_" style="fill:#6075A8;stroke:#2E3856;stroke-linecap:round;stroke-linejoin:round;stroke-miterlimit:10;" d="
			M-2.8,564.4c-26.9,4.9-52.3,30.7-52,33.4c7.2,11.4,26.9,22,26.9,22l11.8-9.1"/>
		<path id="XMLID_22_" style="fill:#D69B74;stroke:#845230;stroke-linecap:round;stroke-linejoin:round;stroke-miterlimit:10;" d="
			M31.7,476.4c15.6,12.1,14.4,20.8,15.6,33.5c4,12.7,17.3,14.4,9.8,39.2c-7.5,24.8-28.8,27.1-48.5,24.2c-19.6-2.9-34.6-15-39.8-28.8
			c-5.2-13.8-8.7-46.7-8.7-46.7S9.2,450.4,31.7,476.4z"/>
		<path id="XMLID_27_" style="fill:#704223;stroke:#4C280F;stroke-linecap:round;stroke-linejoin:round;stroke-miterlimit:10;" d="
			M-30.6,516.2c6.9,12.1,8.1,23.7,2.3,21.3c-6.9-2.3-21.3-19.6-21.3-42.1c0-5.8,5.8,4.6,5.8,4.6c-0.6-33.5,14.4-42.7,18.5-42.7
			c4,0,1.2,6.3,1.2,6.3c4.6-10.4,9.2-11.5,9.2-9.2c-1.2,5.8-1.2,5.8-1.2,5.8c10.4-14.4,32.9-11.5,31.2-9.2c-1.7,2.3-5.8,4.6-5.8,4.6
			c8.1-3.5,40.4-8.7,24.2,9.8c23.1-4,24.8,17.3,12.7,17.3c4.6,9.8-10.4,19-15.6,1.7c-12.1,6.3-27.7-6.9-27.7-6.9
			c0.6,9.2-8.1,14.4-17.9,11c-2.3,12.7-2.3,12.1-15.6,13.3C-21.9,512.7-30.6,516.2-30.6,516.2z"/>
		<path id="XMLID_28_" style="fill:none;stroke:#231F20;stroke-linecap:round;stroke-linejoin:round;stroke-miterlimit:10;" d="
			M247.5,559.5"/>
		<path id="XMLID_29_" style="fill:#D69B74;stroke:#845230;stroke-linecap:round;stroke-linejoin:round;stroke-miterlimit:10;" d="
			M-30,532.9c-18.5-8.1-18.5,6.3-13.8,13.3c4.6,6.9,15.6,11.5,21.9,1.2"/>
		<path id="XMLID_31_" style="fill:#D69B74;stroke:#845230;stroke-linecap:round;stroke-linejoin:round;stroke-miterlimit:10;" d="
			M29.4,523.8c9.1,3.4,10.6,7.6,3.8,14.8"/>
		<path id="XMLID_54_" style="fill:#D88850;stroke:#7A4A26;stroke-linecap:round;stroke-linejoin:round;stroke-miterlimit:10;" d="
			M188.4,637.4c2.4,4.7,0.2,11,0.2,11"/>
		<path id="XMLID_32_" style="fill:none;stroke:#231F20;stroke-linecap:round;stroke-linejoin:round;stroke-miterlimit:10;" d="
			M9.3,503.7c-5.7-1.9-14,2.7-14.4,6.8"/>
		<path id="XMLID_33_" style="fill:none;stroke:#231F20;stroke-linecap:round;stroke-linejoin:round;stroke-miterlimit:10;" d="
			M30.2,499.5c2.7-3.8,8.3-1.9,11,1.5"/>
		<path id="XMLID_34_" style="fill:none;stroke:#231F20;stroke-linecap:round;stroke-linejoin:round;stroke-miterlimit:10;" d="
			M12,546.9c11.8,10.6,24.3,3.8,26.6,1.9"/>
		<path id="XMLID_48_" style="fill:#D88850;stroke:#7A4A26;stroke-linecap:round;stroke-linejoin:round;stroke-miterlimit:10;" d="
			M144.5,638.9c3.4,1.1,6,3.7,4.8,8.2"/>
		<path id="XMLID_49_" style="fill:#D88850;stroke:#7A4A26;stroke-linecap:round;stroke-linejoin:round;stroke-miterlimit:10;" d="
			M151.7,637.8c3.4,1.1,6,3.7,4.8,8.2"/>
		<path id="XMLID_50_" style="fill:#D88850;stroke:#7A4A26;stroke-linecap:round;stroke-linejoin:round;stroke-miterlimit:10;" d="
			M170.2,591.5c0.4,5.8-0.7,21.4-3.4,30c-2.6,8.6-7.1,22.4-1.9,26.7c5.2,3.9,13.4,4.3,15.1-0.9c1.7-5.2,0.7-8.8,0.7-8.8
			c1.9-4.7,12.1-26.7,14.7-32.2s7.6-19,5.8-30.2c-1.9-11.2-3.5-32.2-17.5-24.2"/>
		<path id="XMLID_57_" style="fill:#D88850;stroke:#7A4A26;stroke-linecap:round;stroke-linejoin:round;stroke-miterlimit:10;" d="
			M235.8,481c11.2-5.2,20.9-15.1,22.4-16.4c4.1,3.4,8.6,22.2-6.3,37.5C238,486.8,235.8,481,235.8,481z"/>
		<path id="XMLID_51_" style="fill:#D88850;stroke:#7A4A26;stroke-linecap:round;stroke-linejoin:round;stroke-miterlimit:10;" d="
			M169.1,642.4c2.2,2.8,0,7.6,0,7.6"/>
		<path id="XMLID_52_" style="fill:#D88850;stroke:#7A4A26;stroke-linecap:round;stroke-linejoin:round;stroke-miterlimit:10;" d="
			M175.4,642.4c1.7,4.1,0,8.8,0,8.8"/>
		<path id="XMLID_53_" style="fill:#D88850;stroke:#7A4A26;stroke-linecap:round;stroke-linejoin:round;stroke-miterlimit:10;" d="
			M210.2,547c-7.3-0.4-24.4-11.4-34.5-19.8c0,0,4.5-1.5,5.8-2.6c0,0-3.5-0.7-6-1.3c0,0,13.2-16,16.2-21.6
			c7.6-14.5,10.4-24.2,30.8-25.7c20.3-1.5,27.4,8.8,31.1,18.1c3.7,9.3,8.9,17.3,14.7,20.5c-3.5,1.5-6,2.1-6,2.1
			c4.7,1.7,7.5,1.7,7.5,1.7c-5.2,5.4-19.9,23.7-27.6,27.6c-7.6,3.9-17,3.9-22.4,3"/>
		
			<ellipse id="XMLID_30_" transform="matrix(-0.2443 -0.9697 0.9697 -0.2443 -501.2252 661.6183)" style="fill:#231F20;stroke:#231F20;stroke-linecap:round;stroke-linejoin:round;stroke-miterlimit:10;" cx="7.191" cy="526.115" rx="6" ry="1.3"/>
		
			<ellipse id="XMLID_37_" transform="matrix(-0.2443 -0.9697 0.9697 -0.2443 -455.2031 681.643)" style="fill:#231F20;stroke:#231F20;stroke-linecap:round;stroke-linejoin:round;stroke-miterlimit:10;" cx="38.005" cy="518.194" rx="6" ry="1.3"/>
		<path id="XMLID_41_" style="fill:#D69B74;stroke:#845230;stroke-linecap:round;stroke-linejoin:round;stroke-miterlimit:10;" d="
			M142.1,559c8.7-4.9,23.9-6.4,20.1,1.5c-3.8,8-30.3,11.8-34.9,7.2"/>
		<path id="XMLID_55_" style="fill:#D88850;stroke:#7A4A26;stroke-linecap:round;stroke-linejoin:round;stroke-miterlimit:10;" d="
			M205.6,485.1c-12.1-0.2-36.2-3.4-39.1-4.7c-1.9,22.9,22.4,32.2,22.4,32.2"/>
		<path id="XMLID_58_" style="fill:none;stroke:#231F20;stroke-linecap:round;stroke-linejoin:round;stroke-miterlimit:10;" d="
			M209.1,521.3c5.6,3.4,9.9-0.7,10.8-3.4"/>
		<path id="XMLID_59_" style="fill:none;stroke:#231F20;stroke-linecap:round;stroke-linejoin:round;stroke-miterlimit:10;" d="
			M238.2,514c3.4,3,6,4.5,8.9-2.6"/>
		<path id="XMLID_60_" style="fill:#BC705E;stroke:#6B4034;stroke-linecap:round;stroke-linejoin:round;stroke-miterlimit:10;" d="
			M228,525.9c1.9-0.9,7.8-1.3,7.8-1.3c-0.9,1.9-3.7,4.1-3.7,4.1L228,525.9z"/>
		<path id="XMLID_56_" style="fill:none;stroke:#231F20;stroke-linecap:round;stroke-linejoin:round;stroke-miterlimit:10;" d="
			M222.7,530.2c-2.1,3.7,9.3,7.3,9.3-1.5c3.9,6.9,8.8,3.7,8.9-2.4"/>
		<path id="XMLID_62_" style="fill:none;stroke:#231F20;stroke-linecap:round;stroke-linejoin:round;stroke-miterlimit:10;" d="
			M218.5,499.1c-3.7-2.2-7.6,1.5-8.6,3.9"/>
		<path id="XMLID_63_" style="fill:none;stroke:#231F20;stroke-linecap:round;stroke-linejoin:round;stroke-miterlimit:10;" d="
			M234.5,495.9c2.1-2.8,7.8-0.4,9.1,2.2"/>
		
			<circle id="XMLID_61_" style="fill:#C44339;stroke:#841F14;stroke-linecap:round;stroke-linejoin:round;stroke-miterlimit:10;" cx="247.4" cy="631.3" r="22.3"/>
	</g>
</g>
</svg>
