<?xml version="1.0" encoding="utf-8"?>
<!-- Generator: Adobe Illustrator 19.0.0, SVG Export Plug-In . SVG Version: 6.00 Build 0)  -->
<!DOCTYPE svg PUBLIC "-//W3C//DTD SVG 1.1//EN" "http://www.w3.org/Graphics/SVG/1.1/DTD/svg11.dtd">
<svg version="1.1" xmlns="http://www.w3.org/2000/svg" xmlns:xlink="http://www.w3.org/1999/xlink" x="0px" y="0px" width="648px"
	 height="432px" viewBox="0 0 648 432" style="enable-background:new 0 0 648 432;" xml:space="preserve">
<symbol  id="bush1" viewBox="-18.159 -58.084 36.317 116.167">
	<path id="XMLID_59_" style="fill:#428E42;stroke:#1F591F;stroke-linecap:round;stroke-linejoin:round;stroke-miterlimit:10;" d="
		M-9.942-49.213c-10.851,10.231-8.681,20.151-3.1,17.361c-6.51,14.261-3.72,13.951,1.24,12.711c-4.96,9.921-3.72,11.161,0.31,10.851
		c-7.44,8.991-3.1,13.331,0.62,8.991c-5.89,13.951-7.13,26.352,4.03,22.941c-8.371,14.571-2.48,16.121,0.31,14.571
		c-6.82,19.841,3.1,22.631,6.2,16.431c1.86,4.96,5.89,3.1,4.34-1.55c5.58,9.301,10.231-7.44,4.34-17.981
		c6.51,1.24,5.89-5.27,1.86-13.021c5.27,3.41,6.82-14.261,1.24-21.701c2.79-0.31,5.89-2.79-3.1-17.361
		C17.65-6.43,21.99-29.992,11.759-40.533c8.061,2.48-3.41-9.611-3.41-9.611L-9.942-49.213z"/>
	<path id="XMLID_57_" style="fill:#CC724A;stroke:#A0532D;stroke-linecap:round;stroke-linejoin:round;stroke-miterlimit:10;" d="
		M12.689-48.283c0-5.137-6.107-9.301-13.641-9.301s-13.641,4.164-13.641,9.301s6.107,3.1,13.641,3.1S12.689-43.146,12.689-48.283z"
		/>
</symbol>
<symbol  id="window2" viewBox="-29.253 -38.433 58.506 76.865">
	
		<polygon id="XMLID_68_" style="fill:#8E6350;stroke:#51372A;stroke-linecap:round;stroke-linejoin:round;stroke-miterlimit:10;" points="
		28.753,-37.934 -28.753,-37.934 -28.753,37.932 28.753,37.932 	"/>
	
		<polygon id="XMLID_67_" style="fill:#84EFE8;stroke:#51372A;stroke-linecap:round;stroke-linejoin:round;stroke-miterlimit:10;" points="
		22.398,-31.665 -22.398,-31.665 -22.398,31.663 22.398,31.663 	"/>
	
		<polygon id="XMLID_33_" style="fill:#8E6350;stroke:#51372A;stroke-linecap:round;stroke-linejoin:round;stroke-miterlimit:10;" points="
		22.244,9.271 22.244,14.727 2.728,14.727 2.728,31.663 -2.728,31.663 -2.728,14.727 -22.243,14.727 -22.243,9.271 -2.728,9.271 
		-2.728,-9.765 -22.243,-9.765 -22.243,-15.22 -2.728,-15.22 -2.728,-31.665 2.728,-31.665 2.728,-15.22 22.244,-15.22 
		22.244,-9.765 2.728,-9.765 2.728,9.271 	"/>
</symbol>
<g id="Layer_2">
	<rect id="XMLID_1_" x="0" y="0" style="fill:#D5EEF7;" width="648" height="432"/>
</g>
<g id="Layer_3">
	<rect id="XMLID_2_" x="0" y="220.152" style="fill:#BAD390;stroke:#617C48;stroke-miterlimit:10;" width="648" height="211.848"/>
	<path id="XMLID_174_" style="fill:#BAD390;stroke:#617C48;stroke-miterlimit:10;" d="M210.06,160.954
		c-2.838-7.805-4.257-14.901-4.257-14.901c7.096,2.838,9.224,10.644,9.224,10.644l8.515-13.482l-2.129,13.482l10.644-3.548
		l-4.967,6.386"/>
	
		<rect id="XMLID_48_" x="166.073" y="127.425" style="fill:#C4A28C;stroke:#664A34;stroke-linecap:round;stroke-linejoin:round;stroke-miterlimit:10;" width="325.573" height="189.211"/>
	
		<polygon id="XMLID_52_" style="fill:#CCD5DB;stroke:#909799;stroke-linecap:round;stroke-linejoin:round;stroke-miterlimit:10;" points="
		519.702,341.539 131.497,341.539 166.914,316.341 492.618,316.341 	"/>
	
		<rect id="XMLID_51_" x="131.351" y="341.762" style="fill:#A8AFB2;stroke:#757A7C;stroke-linecap:round;stroke-linejoin:round;stroke-miterlimit:10;" width="388.299" height="9.214"/>
	
		<rect id="XMLID_50_" x="278.572" y="355.33" style="fill:#A8AFB2;stroke:#757A7C;stroke-linecap:round;stroke-linejoin:round;stroke-miterlimit:10;" width="96.876" height="9.214"/>
	
		<polygon id="XMLID_49_" style="fill:#CCD5DB;stroke:#909799;stroke-linecap:round;stroke-linejoin:round;stroke-miterlimit:10;" points="
		375.448,355.478 278.572,355.478 291.527,346.263 364.222,346.263 	"/>
	
		<use xlink:href="#window2"  width="58.506" height="76.865" id="XMLID_53_" x="-29.253" y="-38.433" transform="matrix(1.2384 0 0 -1.2384 219.8505 220.726)" style="overflow:visible;"/>
	
		<use xlink:href="#window2"  width="58.506" height="76.865" id="XMLID_55_" x="-29.253" y="-38.433" transform="matrix(1.2384 0 0 -1.2384 443.6841 220.726)" style="overflow:visible;"/>
	
		<rect id="XMLID_54_" x="303.566" y="205.84" style="fill:#8E6350;stroke:#51372A;stroke-linecap:round;stroke-linejoin:round;stroke-miterlimit:10;" width="59.126" height="110.423"/>
	
		<use xlink:href="#bush1"  width="36.317" height="116.167" id="XMLID_56_" x="-18.159" y="-58.084" transform="matrix(1.2384 0 0 -1.2384 280.0575 252.6293)" style="overflow:visible;"/>
	
		<use xlink:href="#bush1"  width="36.317" height="116.167" id="XMLID_64_" x="-18.159" y="-58.084" transform="matrix(-1.2384 0 0 -1.2384 386.4073 252.6293)" style="overflow:visible;"/>
	<path id="XMLID_65_" style="fill:#CCD5DB;stroke:#909799;stroke-linecap:round;stroke-linejoin:round;stroke-miterlimit:10;" d="
		M373.674,361.567l36.858,70.114H246.976c0,0,31.867-67.81,33.402-69.73L373.674,361.567z"/>
	
		<rect id="XMLID_71_" x="205.895" y="47.509" style="fill:#B2AAAD;stroke:#898083;stroke-linecap:round;stroke-linejoin:round;stroke-miterlimit:10;" width="39.929" height="52.215"/>
	
		<rect id="XMLID_72_" x="200.101" y="36.544" style="fill:#CEC8CB;stroke:#898083;stroke-linecap:round;stroke-linejoin:round;stroke-miterlimit:10;" width="51.516" height="15.932"/>
	
		<line id="XMLID_66_" style="fill:#CCD5DB;stroke:#909799;stroke-linecap:round;stroke-linejoin:round;stroke-miterlimit:10;" x1="272.315" y1="378.46" x2="382.12" y2="378.46"/>
	
		<line id="XMLID_70_" style="fill:#CCD5DB;stroke:#909799;stroke-linecap:round;stroke-linejoin:round;stroke-miterlimit:10;" x1="256.958" y1="409.559" x2="399.014" y2="409.559"/>
	<path id="XMLID_61_" style="fill:#BF6D4C;stroke:#75412A;stroke-linecap:round;stroke-linejoin:round;stroke-miterlimit:10;" d="
		M138.706,136.198h373.568C372.522,37.911,336.048,17.946,336.048,17.946L138.706,136.198z"/>
	
		<ellipse id="XMLID_3_" style="fill:#E2D779;stroke:#8E8335;stroke-linecap:round;stroke-linejoin:round;stroke-miterlimit:10;" cx="312.978" cy="266.794" rx="4.308" ry="4.092"/>
	<path id="XMLID_4_" style="fill:#83F2EF;stroke:#51372A;stroke-linecap:round;stroke-linejoin:round;stroke-miterlimit:10;" d="
		M336.67,245.04h-5.6c-8.089,0-14.646-6.557-14.646-14.646v0c0-8.089,6.557-14.646,14.646-14.646h5.6
		c8.089,0,14.646,6.557,14.646,14.646v0C351.317,238.482,344.759,245.04,336.67,245.04z"/>
	<path id="XMLID_5_" style="fill:#BAD390;stroke:#617C48;stroke-miterlimit:10;" d="M68.084,243.103
		c-1.319-8.576-3.299-14.514-3.299-14.514c5.278,4.618,7.257,15.833,7.257,13.854s7.257-8.576,7.257-8.576l-1.319,11.875"/>
	<path id="XMLID_6_" style="fill:#BAD390;stroke:#617C48;stroke-miterlimit:10;" d="M196.729,396.157
		c0-5.278-3.299-15.833-3.299-15.833c5.937,7.257,9.236,15.174,9.236,15.174l7.917-8.576l-4.618,13.194"/>
	<path id="XMLID_7_" style="fill:#BAD390;stroke:#617C48;stroke-miterlimit:10;" d="M547.698,291.922
		c-0.66-4.618-8.576-19.132-8.576-19.132c9.236,4.618,11.875,20.451,11.875,15.833s7.917-11.875,7.917-11.875l-5.278,15.833"/>
	<path id="XMLID_8_" style="fill:#BAD390;stroke:#617C48;stroke-miterlimit:10;" d="M483.046,395.497
		c-1.319-9.236-2.639-13.854-2.639-13.854c9.236,5.278,10.555,11.875,10.555,11.875l10.555-10.555l-3.958,13.854"/>
	<path id="XMLID_9_" style="fill:#BAD390;stroke:#617C48;stroke-miterlimit:10;" d="M583.323,227.269
		c-1.319-7.257-4.618-16.493-4.618-16.493c6.597,4.618,8.576,11.875,8.576,11.875l9.896-11.215l-4.618,14.514"/>
	<path id="XMLID_10_" style="fill:#BAD390;stroke:#617C48;stroke-miterlimit:10;" d="M45.653,375.046
		c-1.979-4.618-4.618-14.514-4.618-14.514c6.597,3.299,7.917,9.236,7.917,9.236l5.278-6.597l-1.979,10.555l9.236-3.299l-5.278,6.597
		"/>
	<path id="XMLID_11_" style="fill:#BAD390;stroke:#617C48;stroke-miterlimit:10;" d="M601.136,364.491
		c-0.66-3.958-11.215-17.812-11.215-17.812c10.555,4.618,13.194,13.194,13.854,9.896c0.66-3.299,8.576-11.215,8.576-11.215
		l-2.639,12.535l8.576-3.958l-5.278,9.896"/>
</g>
</svg>
