<?xml version="1.0" encoding="utf-8"?>
<!-- Generator: Adobe Illustrator 19.0.0, SVG Export Plug-In . SVG Version: 6.00 Build 0)  -->
<!DOCTYPE svg PUBLIC "-//W3C//DTD SVG 1.1//EN" "http://www.w3.org/Graphics/SVG/1.1/DTD/svg11.dtd">
<svg version="1.1" xmlns="http://www.w3.org/2000/svg" xmlns:xlink="http://www.w3.org/1999/xlink" x="0px" y="0px" width="648px"
	 height="432px" viewBox="0 0 648 432" style="enable-background:new 0 0 648 432;" xml:space="preserve">
<g id="Layer_6">
	<rect id="XMLID_96_" x="0" style="fill:#EFEAB4;" width="278.479" height="308.751"/>
	<rect id="XMLID_99_" x="296.516" style="fill:#C2BBC4;" width="351.484" height="307.075"/>
</g>
<g id="Layer_2">
	
		<rect id="XMLID_2_" y="353.108" style="fill:#514C49;stroke:#231F20;stroke-linecap:round;stroke-linejoin:round;stroke-miterlimit:10;" width="648" height="78.892"/>
	
		<rect id="XMLID_3_" y="368.126" style="fill:#848C91;stroke:#5A6166;stroke-linecap:round;stroke-linejoin:round;stroke-miterlimit:10;" width="648" height="20.757"/>
	
		<rect id="XMLID_11_" x="272.417" y="0" style="fill:#A5A29A;stroke:#969283;stroke-linecap:round;stroke-linejoin:round;stroke-miterlimit:10;" width="28.058" height="305.626"/>
	
		<rect id="XMLID_4_" y="358.681" style="fill:#A0A7AA;stroke:#5A6166;stroke-linecap:round;stroke-linejoin:round;stroke-miterlimit:10;" width="648" height="9.445"/>
	
		<rect id="XMLID_5_" y="305.51" style="fill:#BFC2C4;stroke:#929596;stroke-linecap:round;stroke-linejoin:round;stroke-miterlimit:10;" width="648" height="55.554"/>
	
		<rect id="XMLID_7_" x="248.533" y="0" style="fill:#D3D0C5;stroke:#969283;stroke-linecap:round;stroke-linejoin:round;stroke-miterlimit:10;" width="29.783" height="305.626"/>
	
		<rect id="XMLID_8_" x="40.063" y="54.547" style="fill:#C1BFB2;stroke:#686652;stroke-linecap:round;stroke-linejoin:round;stroke-miterlimit:10;" width="140.268" height="251.079"/>
	
		<rect id="XMLID_9_" y="87.64" style="fill:#A4DBED;stroke:#686652;stroke-linecap:round;stroke-linejoin:round;stroke-miterlimit:10;" width="22.566" height="137.41"/>
	
		<rect id="XMLID_10_" x="425.655" y="24.331" style="fill:#A4DBED;stroke:#686652;stroke-linecap:round;stroke-linejoin:round;stroke-miterlimit:10;" width="222.345" height="187.05"/>
	
		<ellipse id="XMLID_12_" style="fill:#3F3B3A;stroke:#231F20;stroke-linecap:round;stroke-linejoin:round;stroke-miterlimit:10;" cx="570.619" cy="408.863" rx="6.115" ry="1.799"/>
	
		<rect id="XMLID_6_" x="241.482" y="268.935" style="fill:#EFEDE6;stroke:#969283;stroke-linecap:round;stroke-linejoin:round;stroke-miterlimit:10;" width="43.885" height="36.691"/>
	
		<ellipse id="XMLID_13_" style="fill:#3F3B3A;stroke:#231F20;stroke-linecap:round;stroke-linejoin:round;stroke-miterlimit:10;" cx="387.165" cy="413.18" rx="3.957" ry="1.799"/>
	
		<ellipse id="XMLID_14_" style="fill:#3F3B3A;stroke:#231F20;stroke-linecap:round;stroke-linejoin:round;stroke-miterlimit:10;" cx="134.288" cy="400.23" rx="5.036" ry="1.079"/>
	<path id="XMLID_16_" style="fill:#514C49;stroke:#7C7672;stroke-linecap:round;stroke-linejoin:round;stroke-miterlimit:10;" d="
		M55.871,418.576c5.036-4.317,12.23-1.439,15.108,0.719"/>
	<path id="XMLID_17_" style="fill:#514C49;stroke:#7C7672;stroke-linecap:round;stroke-linejoin:round;stroke-miterlimit:10;" d="
		M166.662,427.209c5.036-2.878,7.914-1.439,10.072,0"/>
	<path id="XMLID_18_" style="fill:#514C49;stroke:#7C7672;stroke-linecap:round;stroke-linejoin:round;stroke-miterlimit:10;" d="
		M237.885,404.906c5.036-3.597,13.669,0,13.669,0"/>
	<path id="XMLID_19_" style="fill:#514C49;stroke:#7C7672;stroke-linecap:round;stroke-linejoin:round;stroke-miterlimit:10;" d="
		M251.554,409.942c5.755-2.878,11.511,0.719,11.511,0.719"/>
	<path id="XMLID_20_" style="fill:#514C49;stroke:#7C7672;stroke-linecap:round;stroke-linejoin:round;stroke-miterlimit:10;" d="
		M459.468,417.856c3.597-2.158,8.633-1.439,10.072,0"/>
	<path id="XMLID_21_" style="fill:#514C49;stroke:#7C7672;stroke-linecap:round;stroke-linejoin:round;stroke-miterlimit:10;" d="
		M477.453,412.82c5.036-3.597,9.353,0,10.791,0"/>
	<path id="XMLID_22_" style="fill:#514C49;stroke:#7C7672;stroke-linecap:round;stroke-linejoin:round;stroke-miterlimit:10;" d="
		M593.281,422.892c3.597-2.158,14.388,0.719,14.388,0.719"/>
	<path id="XMLID_23_" style="fill:#514C49;stroke:#7C7672;stroke-linecap:round;stroke-linejoin:round;stroke-miterlimit:10;" d="
		M622.777,419.295c-3.597-3.597-12.23,0-12.23,0"/>
	<path id="XMLID_24_" style="fill:#514C49;stroke:#7C7672;stroke-linecap:round;stroke-linejoin:round;stroke-miterlimit:10;" d="
		M599.755,414.259c3.597-1.439,10.072,0,10.072,0"/>
	<path id="XMLID_15_" style="fill:none;stroke:#5A6166;stroke-linecap:round;stroke-linejoin:round;stroke-miterlimit:10;" d="
		M35.744,389.032c0.543-2.173,0-20.103,0-20.103l112.469-63.57"/>
	
		<polyline id="XMLID_25_" style="fill:none;stroke:#5A6166;stroke-linecap:round;stroke-linejoin:round;stroke-miterlimit:10;" points="
		223.193,388.488 223.193,368.385 290.023,305.902 	"/>
	
		<polyline id="XMLID_26_" style="fill:none;stroke:#5A6166;stroke-linecap:round;stroke-linejoin:round;stroke-miterlimit:10;" points="
		397.602,305.902 435.635,368.385 435.635,388.488 	"/>
	
		<polyline id="XMLID_27_" style="fill:none;stroke:#5A6166;stroke-linecap:round;stroke-linejoin:round;stroke-miterlimit:10;" points="
		543.215,305.359 614.934,369.472 614.934,389.032 	"/>
	
		<polygon id="XMLID_28_" style="fill:#B0C4A5;stroke:#607258;stroke-linecap:round;stroke-linejoin:round;stroke-miterlimit:10;" points="
		449.521,89.832 336.898,77.483 336.898,0.536 449.521,0.536 	"/>
	
		<rect id="XMLID_29_" x="449.302" y="0" style="fill:#D3D0C5;stroke:#969283;stroke-linecap:round;stroke-linejoin:round;stroke-miterlimit:10;" width="18.797" height="89.819"/>
	<path id="XMLID_31_" style="fill:#C17CB1;stroke:#5B2D4E;stroke-linecap:round;stroke-linejoin:round;stroke-miterlimit:10;" d="
		M184.106,0l29.128,37.048l1.324,33.099c-13.24,25.156-39.057,9.93-39.057-6.62c-11.254,38.395-50.311,16.55-48.987-3.31
		c-5.296,40.381-52.959,24.494-48.987,1.324c-7.944,40.381-49.649,26.48-48.987,2.648C7.355,88.683,0,81.401,0,81.401
		C0,21.822,0,0,0,0S184.106,0.023,184.106,0z"/>
	
		<line id="XMLID_32_" style="fill:#C17CB1;stroke:#5B2D4E;stroke-linecap:round;stroke-linejoin:round;stroke-miterlimit:10;" x1="196.683" y1="34.4" x2="0" y2="34.4"/>
	<g id="Layer_3">
		<path id="XMLID_34_" style="fill:#597AAA;stroke:#33435E;stroke-linecap:round;stroke-linejoin:round;stroke-miterlimit:10;" d="
			M442.496,215.128c0-24.351-23.231-44.091-51.887-44.091s-51.887,19.74-51.887,44.091c0,2.326,0.215,4.609,0.624,6.838v70.384
			h-0.086v38.92h21.508V298.76h59.684v32.509h21.508V298.76v-6.41V221.44C442.306,219.378,442.496,217.272,442.496,215.128z"/>
		<path id="XMLID_33_" style="fill:#597AAA;stroke:#33435E;stroke-linecap:round;stroke-linejoin:round;stroke-miterlimit:10;" d="
			M350.77,212.979c1.49,0,81.18,0,81.18,0C431.95,169.411,350.77,169.783,350.77,212.979z"/>
		
			<rect id="XMLID_30_" x="377.209" y="190.264" style="fill:#597AAA;stroke:#33435E;stroke-linecap:round;stroke-linejoin:round;stroke-miterlimit:10;" width="29.791" height="4.841"/>
		
			<rect id="XMLID_35_" x="357.845" y="240.163" style="fill:#EDE6C8;stroke:#847C6F;stroke-linecap:round;stroke-linejoin:round;stroke-miterlimit:10;" width="67.029" height="32.397"/>
		
			<polyline id="XMLID_36_" style="fill:#EDE6C8;stroke:#847C6F;stroke-linecap:round;stroke-linejoin:round;stroke-miterlimit:10;" points="
			357.845,240.908 391.732,259.155 424.875,240.163 		"/>
	</g>
</g>
<g id="Layer_4">
	<path id="XMLID_77_" style="fill:#211F1F;stroke:#5E5A5B;stroke-linecap:round;stroke-linejoin:round;stroke-miterlimit:10;" d="
		M127.339,316.954c-6.233,8.051-5.973,11.946-5.973,11.946c14.024,12.985,24.931,14.283,30.385,10.648
		c5.454-3.636-14.803-6.233-16.621-16.361C133.052,318.253,127.339,316.954,127.339,316.954z"/>
	<path id="XMLID_100_" style="fill:#664639;stroke:#422A1F;stroke-linecap:round;stroke-linejoin:round;stroke-miterlimit:10;" d="
		M136.947,322.668c0,0-0.673,0.928-0.153,3.266c0.519,2.337-4.781,0.889-12.053-6.382c2.597-5.194,19.218-36.877,31.164-51.94
		c0,0,10.648,6.492,7.272,12.985c-3.376,6.492-22.074,30.904-23.113,34.8C137.22,320.178,136.947,322.668,136.947,322.668z"/>
	<path id="XMLID_76_" style="fill:#664639;stroke:#422A1F;stroke-linecap:round;stroke-linejoin:round;stroke-miterlimit:10;" d="
		M142.141,213.854c-2.597,8.051-2.857,23.373-2.857,23.373c4.415,22.854,42.591,97.907,46.746,102.322
		c8.57-1.818,8.31-6.233,9.349-9.869c1.039-3.636,15.063-6.233,4.934-7.791c-10.128-1.558-12.985-5.454-12.985-5.454
		c-10.907-27.788-16.621-45.967-16.621-45.967c9.349-26.23,11.167-53.238,10.907-55.316
		C180.837,208.919,142.141,213.854,142.141,213.854z"/>
	<path id="XMLID_74_" style="fill:#664639;stroke:#422A1F;stroke-linecap:round;stroke-linejoin:round;stroke-miterlimit:10;" d="
		M170.449,233.591c-5.713,2.597-9.349,6.233-9.349,6.233c8.31,27.009,9.609,30.645,9.609,30.645"/>
	<path id="XMLID_51_" style="fill:#B27F62;stroke:#774428;stroke-linecap:round;stroke-linejoin:round;stroke-miterlimit:10;" d="
		M184.986,172.83c6.901,20.549,9.814,30.21,20.702,40.485c6.441,5.061,8.434,16.255,6.287,20.856
		c-2.147,4.601-8.588,6.134-9.201-2.76c-3.834-6.594-3.374-10.888-3.067-13.342c-14.262-11.041-22.543-25.303-23.003-26.99
		S175.632,169.916,184.986,172.83z"/>
	<path id="XMLID_80_" style="fill:#211F1F;stroke:#5E5A5B;stroke-linecap:round;stroke-linejoin:round;stroke-miterlimit:10;" d="
		M195.829,326.186c4.23-4.719,4.194-8.613,12.126-14.021c5.733-3.909,5.398,10.432,0.758,15.916
		c-5.713,6.752-9.248,10.061-13.143,11.62c-2.663,1.065-11.617,2.705-9.539-0.152C188.108,336.692,195.829,326.186,195.829,326.186z
		"/>
	<path id="XMLID_52_" style="fill:#B27F62;stroke:#774428;stroke-linecap:round;stroke-linejoin:round;stroke-miterlimit:10;" d="
		M204.921,217.915c1.994,3.68,1.073,9.968,4.294,9.661s3.987-3.68,0.92-8.894"/>
	<path id="XMLID_43_" style="fill:#EDF7F9;stroke:#889799;stroke-linecap:round;stroke-linejoin:round;stroke-miterlimit:10;" d="
		M156.041,146.138c-8.555,2.471-15.159,6.491-15.159,6.491c4.753,24.714,2.802,53.774-1,64.04
		c26.806,10.456,42.775,1.901,42.775,1.901c-0.951-47.147-1.711-39.163-1.711-39.163c3.802-0.76,6.274-7.224,6.274-7.224
		C178.284,151.271,175.813,147.279,156.041,146.138z"/>
	<path id="XMLID_55_" style="fill:#B27F62;stroke:#774428;stroke-linecap:round;stroke-linejoin:round;stroke-miterlimit:10;" d="
		M97.576,237.237c7.514-4.907,23.463-20.242,24.383-20.549c2.76-0.613,5.827,7.514,5.827,7.514l-25.15,21.929L97.576,237.237z"/>
	<path id="XMLID_72_" style="fill:#72593B;stroke:#352816;stroke-linecap:round;stroke-linejoin:round;stroke-miterlimit:10;" d="
		M42.063,307.932c-3.527-2.3-5.214-0.92-6.594,0.767c-1.38,1.687-13.77,13.567-7.207,17.942c2.3,1.534,5.981-6.134,14.568-13.495
		C41.756,309.772,42.063,307.932,42.063,307.932z"/>
	<path id="XMLID_48_" style="fill:#B27F62;stroke:#774428;stroke-linecap:round;stroke-linejoin:round;stroke-miterlimit:10;" d="
		M130.24,168.23c-9.048,8.741-20.396,31.437-8.894,50.299c3.374,2.454-1.227,10.735,1.073,14.875c2.3,4.14,9.508,2.147,9.201-7.668
		c-0.307-9.814-3.68-9.661-3.68-9.661c-1.687-10.888-1.38-23.463,10.121-36.958C132.08,169.763,130.24,168.23,130.24,168.23z"/>
	<path id="XMLID_49_" style="fill:#EDF7F9;stroke:#889799;stroke-linecap:round;stroke-linejoin:round;stroke-miterlimit:10;" d="
		M148.057,148.99c-11.217,3.802-18.441,16.54-22.053,20.912c2.852,8.555,13.118,12.357,13.118,12.357
		c3.802-6.464,8.365-13.308,8.365-13.308"/>
	<path id="XMLID_50_" style="fill:#EDF7F9;stroke:#889799;stroke-linecap:round;stroke-linejoin:round;stroke-miterlimit:10;" d="
		M177.778,164.396c1.687,4.601,3.167,15.012,3.167,15.012"/>
	<path id="XMLID_54_" style="fill:#B27F62;stroke:#774428;stroke-linecap:round;stroke-linejoin:round;stroke-miterlimit:10;" d="
		M128.706,214.695c4.173-1.113,6.441,7.668,5.214,9.968s-3.834,3.987-5.214,1.073C127.326,222.822,126.406,215.308,128.706,214.695z
		"/>
	<path id="XMLID_69_" style="fill:#B27F62;stroke:#774428;stroke-linecap:round;stroke-linejoin:round;stroke-miterlimit:10;" d="
		M52.031,303.638c-4.14,2.607-11.961,3.374-11.961,3.374c-1.073,2.607,0.153,6.441,1.687,7.361
		c4.601,0.92,13.802-2.147,13.802-2.147L52.031,303.638z"/>
	<path id="XMLID_73_" style="fill:#B27F62;stroke:#774428;stroke-linecap:round;stroke-linejoin:round;stroke-miterlimit:10;" d="
		M88.068,315.753c9.354,20.089,15.948,32.05,15.948,32.05c5.981-3.374,6.594-7.974,6.594-7.974
		c-11.501-25.456-11.348-28.983-11.348-28.983L88.068,315.753z"/>
	<path id="XMLID_75_" style="fill:#72593B;stroke:#352816;stroke-linecap:round;stroke-linejoin:round;stroke-miterlimit:10;" d="
		M102.085,344.137c-0.842,2.267,0.14,3.652,2.246,4.156s15.721-10.831,13.615-19.142
		C117.104,324.617,111.349,328.773,102.085,344.137z"/>
	<path id="XMLID_53_" style="fill:#B27F62;stroke:#774428;stroke-linecap:round;stroke-linejoin:round;stroke-miterlimit:10;" d="
		M119.965,219.909c3.067-1.687,5.981-0.153,5.367,3.22c-0.92,3.22-4.14,1.073-4.14-1.687"/>
	<path id="XMLID_70_" style="fill:#B29C77;stroke:#44361D;stroke-linecap:round;stroke-linejoin:round;stroke-miterlimit:10;" d="
		M68.899,284.316c-2.607,5.061-8.128,12.728-8.128,12.728c-2.147,1.227-13.035,4.754-13.035,4.754
		c0.153,6.901,6.901,14.568,6.901,14.568c9.968-1.687,14.875-4.447,16.255-5.367s7.514-8.894,7.514-8.894s1.227,0.307,1.687,0.153
		c3.527,8.894,7.514,17.329,7.514,17.329c7.821,0.153,14.722-7.514,14.722-7.514c-3.067-8.741-8.741-24.536-9.354-24.843
		S68.899,284.316,68.899,284.316z"/>
	<path id="XMLID_61_" style="fill:#B27F62;stroke:#774428;stroke-linecap:round;stroke-linejoin:round;stroke-miterlimit:10;" d="
		M64.452,251.039c-11.808,6.594-24.843,10.735-24.843,10.735c-9.814-3.374-18.718,0.723-17.337,3.023s9.519,2.49,12.126,3.411
		c2.607,0.92,5.982,0.839,6.442,0.379c9.354,0.153,27.599-9.266,28.212-10.033S64.452,251.039,64.452,251.039z"/>
	<path id="XMLID_58_" style="fill:#351F16;stroke:#825E4E;stroke-linecap:round;stroke-linejoin:round;stroke-miterlimit:10;" d="
		M67.213,224.203c-7.054,5.827-13.495-1.227-10.121-9.201c-5.367-5.214,0.46-10.274,2.914-9.508
		c-4.294-11.348,12.881-17.329,14.262-9.201c6.441-13.035,17.329-3.374,14.875,1.38c6.287-2.147,7.668,5.981,5.061,7.821
		c7.054-1.227-1.227,9.968-1.227,9.968L67.213,224.203z"/>
	<path id="XMLID_66_" style="fill:#9FC99F;stroke:#4A754C;stroke-linecap:round;stroke-linejoin:round;stroke-miterlimit:10;" d="
		M81.934,240.764c-6.747,0.153-7.361,3.374-9.814,5.521s2.76,18.862-0.153,25.61s-5.367,12.268-5.367,12.268
		c9.201,8.894,20.396,10.581,27.296,5.214c9.048-17.022,6.287-36.497,5.061-37.878c4.14-2.76,9.814-5.674,9.814-5.674
		c-3.68-7.821-8.588-12.728-8.588-12.728c-3.527,3.68-7.054,5.521-10.581,6.134C86.075,239.844,81.934,240.764,81.934,240.764z"/>
	<path id="XMLID_71_" style="fill:#B29C77;stroke:#44361D;stroke-linecap:round;stroke-linejoin:round;stroke-miterlimit:10;" d="
		M84.234,302.105c-2.454,0.153-4.14,0.153-4.14,0.153"/>
	<path id="XMLID_68_" style="fill:#B27F62;stroke:#774428;stroke-linecap:round;stroke-linejoin:round;stroke-miterlimit:10;" d="
		M38.536,263.46c-5.981-3.067-9.354-1.38-7.361-0.46s5.214,1.84,5.214,1.84"/>
	<path id="XMLID_57_" style="fill:#B27F62;stroke:#774428;stroke-linecap:round;stroke-linejoin:round;stroke-miterlimit:10;" d="
		M80.094,243.065c0.307-3.374,0.46-7.974,0.46-7.974c3.067-1.687,7.821-0.92,7.821-0.92v9.201
		C86.381,246.745,80.094,243.065,80.094,243.065z"/>
	<path id="XMLID_56_" style="fill:#B27F62;stroke:#774428;stroke-linecap:round;stroke-linejoin:round;stroke-miterlimit:10;" d="
		M67.826,221.749c-6.134-1.073-6.287,11.808,2.76,8.128c7.668,14.568,31.13,4.754,26.683-9.508
		c-4.447-14.262-11.961-18.249-20.856-15.795C67.366,207.641,66.599,213.468,67.826,221.749z"/>
	<path id="XMLID_40_" style="fill:#B27F62;stroke:#774428;stroke-linecap:round;stroke-linejoin:round;stroke-miterlimit:10;" d="
		M152.66,151.608c0.211-1.055,1.055-18.774,1.055-18.774c4.219,1.266,14.344,4.641,14.133,5.274
		c-0.211,0.633,0.633,14.555,0.633,14.555C171.856,160.468,156.457,158.57,152.66,151.608z"/>
	<path id="XMLID_60_" style="fill:#B27F62;stroke:#774428;stroke-linecap:round;stroke-linejoin:round;stroke-miterlimit:10;" d="
		M88.222,220.215c0.613,1.227,0,2.76-0.46,3.374"/>
	
		<ellipse id="XMLID_59_" transform="matrix(0.9468 -0.3217 0.3217 0.9468 -66.6146 37.48)" style="fill:none;stroke:#231F20;stroke-linecap:round;stroke-linejoin:round;stroke-miterlimit:10;" cx="80.094" cy="220.292" rx="0.46" ry="2.07"/>
	
		<ellipse id="XMLID_62_" transform="matrix(0.9468 -0.3217 0.3217 0.9468 -64.7032 40.4586)" style="fill:none;stroke:#231F20;stroke-linecap:round;stroke-linejoin:round;stroke-miterlimit:10;" cx="90.062" cy="215.998" rx="0.46" ry="2.07"/>
	<path id="XMLID_67_" style="fill:#9FC99F;stroke:#4A754C;stroke-linecap:round;stroke-linejoin:round;stroke-miterlimit:10;" d="
		M77.18,242.605c-6.901,2.454-8.741,3.374-16.715,9.508c2.76,8.741,7.974,9.201,7.974,9.201c1.994-1.687,7.514-5.827,7.514-5.827"/>
	<path id="XMLID_63_" style="fill:none;stroke:#231F20;stroke-linecap:round;stroke-linejoin:round;stroke-miterlimit:10;" d="
		M78.254,213.008c-2.607-0.153-3.374,2.3-3.22,3.374"/>
	<path id="XMLID_64_" style="fill:none;stroke:#231F20;stroke-linecap:round;stroke-linejoin:round;stroke-miterlimit:10;" d="
		M86.995,210.248c0.92-1.227,2.76-1.227,3.527-0.46"/>
	<path id="XMLID_65_" style="fill:none;stroke:#231F20;stroke-linecap:round;stroke-linejoin:round;stroke-miterlimit:10;" d="
		M82.701,228.036c2.76,1.534,5.674,1.073,8.281-0.767"/>
	<path id="XMLID_38_" style="fill:#B27F62;stroke:#774428;stroke-linecap:round;stroke-linejoin:round;stroke-miterlimit:10;" d="
		M151.183,125.873c-0.633,9.282,5.906,18.774,18.563,20.251c8.649,0.844,16.032-13.922,14.344-29.11
		c1.055-10.547-27.634-21.727-32.274,2.531"/>
	<path id="XMLID_37_" style="fill:#B27F62;stroke:#774428;stroke-linecap:round;stroke-linejoin:round;stroke-miterlimit:10;" d="
		M152.66,121.022c-4.641-7.172-7.172-3.586-7.594,0.844c-0.422,4.43,4.852,9.071,8.86,6.117"/>
	<path id="XMLID_39_" style="fill:#351F16;stroke:#825E4E;stroke-linecap:round;stroke-linejoin:round;stroke-miterlimit:10;" d="
		M150.972,119.334c-3.375-8.016-3.164-21.727,1.477-13.5c2.109-10.969,7.383-7.805,7.383-7.805
		c3.586-11.602,17.719-7.383,13.711-0.211c8.016-5.274,15.399,0.844,8.438,5.695c10.547,4.219,9.492,7.383,4.641,9.071
		c3.797,3.586,0.422,6.117-2.32,6.539c-1.898-2.531-1.688-7.172-1.688-7.172c-1.266,1.477-5.906-1.898-6.117-3.797
		c-0.633,1.688-7.172,2.109-8.438-1.688c-2.32,5.063-6.117,4.852-8.016,2.531c0,4.852-4.219,6.328-4.219,6.328
		c-0.422,0.633-0.422,7.594-0.422,7.594L150.972,119.334z"/>
	<path id="XMLID_42_" style="fill:#B27F62;stroke:#774428;stroke-linecap:round;stroke-linejoin:round;stroke-miterlimit:10;" d="
		M175.316,129.661c0.422,2.953-2.52,3.835-4.304,3.173"/>
	
		<ellipse id="XMLID_41_" transform="matrix(0.9989 0.0462 -0.0462 0.9989 5.9077 -7.5674)" style="fill:#231F20;stroke:#231F20;stroke-linecap:round;stroke-linejoin:round;stroke-miterlimit:10;" cx="166.66" cy="124.018" rx="0.657" ry="2.246"/>
	
		<ellipse id="XMLID_44_" transform="matrix(0.9989 0.0462 -0.0462 0.9989 5.9449 -8.0781)" style="fill:#231F20;stroke:#231F20;stroke-linecap:round;stroke-linejoin:round;stroke-miterlimit:10;" cx="177.726" cy="124.566" rx="0.657" ry="2.246"/>
	<path id="XMLID_45_" style="fill:none;stroke:#231F20;stroke-linecap:round;stroke-linejoin:round;stroke-miterlimit:10;" d="
		M165.674,135.249c3.178,5.04,9.094,3.397,9.533,3.287"/>
	<path id="XMLID_46_" style="fill:none;stroke:#231F20;stroke-linecap:round;stroke-linejoin:round;stroke-miterlimit:10;" d="
		M169.618,116.074c-2.63-0.548-4.712,2.082-4.712,2.082"/>
	<path id="XMLID_47_" style="fill:none;stroke:#231F20;stroke-linecap:round;stroke-linejoin:round;stroke-miterlimit:10;" d="
		M177.507,116.732c2.849-0.767,3.616,2.411,3.616,2.411"/>
</g>
<g id="Layer_5">
	<path id="XMLID_97_" style="fill:#231F20;stroke:#231F20;stroke-linecap:round;stroke-linejoin:round;stroke-miterlimit:10;" d="
		M618.699,327.283c-4.723,3.411-17.484,6.687-8.825,8.786c8.659,2.099,17.252-3.525,20.138-6.937
		c2.886-3.411,3.381-11.821,3.381-11.821s-4.723-2.362-5.248-2.362S618.699,327.283,618.699,327.283z"/>
	<path id="XMLID_95_" style="fill:#D8E5E5;stroke:#586060;stroke-linecap:round;stroke-linejoin:round;stroke-miterlimit:10;" d="
		M544.703,216.551c0.012,0.445,0.025,0.881,0.039,1.311c0.618,18.834,3.566,23.367,12.032,35.425
		c8.659,12.333,25.977,24.403,39.097,36.998c13.12,12.595,21.779,28.339,21.254,32.8c-0.525,4.461-3.936,8.134,0.262,6.822
		c4.198-1.312,13.907-6.822,12.857-14.432c-18.105-17.581-51.43-66.649-56.153-74.259c-4.723-7.61-7.347-23.616-7.347-23.616
		l-22.017-0.168L544.703,216.551z"/>
	<path id="XMLID_92_" style="fill:#F7F3E7;stroke:#B7B19C;stroke-linecap:round;stroke-linejoin:round;stroke-miterlimit:10;" d="
		M479.486,202.264c0.412,0,27.037-21.959,35.546-25.802c8.524,11.177,11.117,15.783,11.117,15.783
		c-8.921,6.862-34.311,24.978-34.311,24.978L479.486,202.264z"/>
	<path id="XMLID_94_" style="fill:#D8E5E5;stroke:#586060;stroke-linecap:round;stroke-linejoin:round;stroke-miterlimit:10;" d="
		M554.674,235.968c-4.986,22.566-25.19,92.102-28.864,94.726c-3.674,2.624-11.283,0.262-8.922,5.248s-2.099,3.936-2.099,3.936
		c5.51,7.085,12.858,11.283,12.858,11.283c7.61-20.467,46.707-101.023,46.707-101.023c9.971-11.283,7.085-26.502,1.05-30.963"/>
	<path id="XMLID_84_" style="fill:#DDA88E;stroke:#5B3824;stroke-linecap:round;stroke-linejoin:round;stroke-miterlimit:10;" d="
		M545.741,148.313c2.297-2.297,8.04-4.977,8.04-4.977c4.594,7.465,9.571,14.739,9.571,14.739
		c-9.38,6.508-14.548,15.122-18.376,15.505c-3.828,0.383-5.36,0.191-4.403-1.914c0.957-2.106,10.528-14.931,9.762-15.314
		S545.741,148.313,545.741,148.313z"/>
	<path id="XMLID_89_" style="fill:#DBC765;stroke:#686030;stroke-linecap:round;stroke-linejoin:round;stroke-miterlimit:10;" d="
		M560.48,156.353c-4.211,0.574-8.614,6.317-10.911,9.38c-2.297,3.063-8.04,5.934-7.848,3.063c-8.997,10.337-7.657,17.802,0,21.439
		c0.957,28.139,2.297,31.776,2.297,31.776c10.145,3.063,18.376-3.063,18.376-3.063s5.934-47.664,5.36-48.429
		C567.18,169.752,560.48,156.353,560.48,156.353z"/>
	<path id="XMLID_88_" style="fill:#BBA3CE;stroke:#6E547F;stroke-linecap:round;stroke-linejoin:round;stroke-miterlimit:10;" d="
		M564.5,156.161c-5.168-1.34-12.634,5.168-15.314,10.145c-2.68,4.977-4.02,13.782-3.254,18.759
		c0.766,4.977,4.977,42.113,4.977,42.113c18.759,5.551,25.076-6.891,25.076-6.891c-7.848-12.251-7.465-17.419-5.934-22.97
		C571.583,191.766,577.708,167.838,564.5,156.161z"/>
	<path id="XMLID_90_" style="fill:#BBA3CE;stroke:#6E547F;stroke-linecap:round;stroke-linejoin:round;stroke-miterlimit:10;" d="
		M564.692,160.947c-7.083-1.531-11.485,5.36-12.634,9.762c-1.148,4.403-4.02,22.779-21.056,26.225
		c-1.531,7.274,2.488,10.337,2.488,10.337c17.036-2.297,32.35-20.291,31.584-32.541"/>
	<path id="XMLID_93_" style="fill:#F7F3E7;stroke:#B7B19C;stroke-linecap:round;stroke-linejoin:round;stroke-miterlimit:10;" d="
		M480.035,202.676l25.665-4.941c0,0,9.333-21.547,9.333-21.273"/>
	<path id="XMLID_91_" style="fill:#DDA88E;stroke:#5B3824;stroke-linecap:round;stroke-linejoin:round;stroke-miterlimit:10;" d="
		M533.203,198.657c-2.584-0.383-9.571-2.68-9.571-2.68c-6.987-6.987-14.357-5.838-16.558-4.116
		c-2.201,1.723-5.934,4.403-2.393,7.274s12.442,0.67,15.888,1.627c3.446,0.957,10.528,5.838,13.974,3.828
		S533.203,198.657,533.203,198.657z"/>
	<path id="XMLID_79_" style="fill:#DDA88E;stroke:#5B3824;stroke-linecap:round;stroke-linejoin:round;stroke-miterlimit:10;" d="
		M536.744,108.689c-6.7,5.36-9.762,16.271-4.786,23.736c-2.68,3.637-3.063,6.317-0.766,7.848c2.297,1.723,3.446,7.657,8.04,9.762
		c4.594,2.106,12.06-0.957,14.548-6.125s1.723-9.38,1.723-10.72C555.503,131.851,549.761,106.009,536.744,108.689z"/>
	<path id="XMLID_82_" style="fill:#D1C9B8;stroke:#777164;stroke-linecap:round;stroke-linejoin:round;stroke-miterlimit:10;" d="
		M556.078,131.085c1.149,4.211,0.383,7.465-3.828,7.274s-5.36,2.488-3.254,4.977c2.106,2.488,5.743,7.465,12.251,2.68
		c6.125,0.191,8.04-5.168,7.657-8.805c6.125-2.106,6.508-9.762,3.828-11.677c-2.68-1.914-7.657-8.614-7.657-8.614
		c-0.766-12.442-9.38-12.634-12.059-11.868c-7.848-11.677-38.284,2.488-29.287,15.505c0.383-3.637,2.488-7.657,2.488-7.657
		c-1.531,7.465,4.977,14.739,15.505,12.059c-3.063-1.149-7.274-6.7-7.274-6.7c9.571,8.423,10.528,7.465,13.782,6.7
		c3.254-0.766,4.211-2.488,6.7-1.531C557.418,124.386,556.078,131.085,556.078,131.085z"/>
	
		<ellipse id="XMLID_83_" transform="matrix(0.9514 -0.3079 0.3079 0.9514 -13.9242 171.636)" style="fill:none;stroke:#231F20;stroke-linecap:round;stroke-linejoin:round;stroke-miterlimit:10;" cx="536.891" cy="129.939" rx="0.479" ry="2.01"/>
	<path id="XMLID_85_" style="fill:none;stroke:#231F20;stroke-linecap:round;stroke-linejoin:round;stroke-miterlimit:10;" d="
		M539.998,140.656c-1.149,2.106-5.36,4.02-5.36,4.02"/>
	<path id="XMLID_81_" style="fill:#DDA88E;stroke:#5B3824;stroke-linecap:round;stroke-linejoin:round;stroke-miterlimit:10;" d="
		M551.675,126.491c4.211-4.977,7.465-1.531,6.891,2.297c-0.844,5.628-3.637,6.125-6.7,4.403"/>
	<path id="XMLID_86_" style="fill:#D1C9B8;stroke:#777164;stroke-linecap:round;stroke-linejoin:round;stroke-miterlimit:10;" d="
		M565.84,130.32c3.063,2.871,3.063,6.891,3.063,6.891"/>
	<path id="XMLID_87_" style="fill:#D1C9B8;stroke:#777164;stroke-linecap:round;stroke-linejoin:round;stroke-miterlimit:10;" d="
		M557.609,141.422c3.063,1.531,3.637,4.02,3.637,4.02"/>
	<path id="XMLID_98_" style="fill:#231F20;stroke:#231F20;stroke-linecap:round;stroke-linejoin:round;stroke-miterlimit:10;" d="
		M517.938,340.665c-7.347-7.61-10.869-14.341-13.23-11.98c-2.362,2.362,0.635,12.242,7.458,18.015
		c6.822,5.773,12.595,8.397,14.694,7.347s0.787-4.198,0.525-5.248C527.122,347.75,517.938,340.665,517.938,340.665z"/>
</g>
</svg>
