<?xml version="1.0" encoding="utf-8"?>
<!-- Generator: Adobe Illustrator 19.0.0, SVG Export Plug-In . SVG Version: 6.00 Build 0)  -->
<!DOCTYPE svg PUBLIC "-//W3C//DTD SVG 1.1//EN" "http://www.w3.org/Graphics/SVG/1.1/DTD/svg11.dtd">
<svg version="1.1" xmlns="http://www.w3.org/2000/svg" xmlns:xlink="http://www.w3.org/1999/xlink" x="0px" y="0px" width="648px"
	 height="432px" viewBox="0 0 648 432" style="enable-background:new 0 0 648 432;" xml:space="preserve">
<g id="Layer_2">
	<rect id="XMLID_1_" x="0" y="0" style="fill:#BFE0EF;" width="648" height="432"/>
</g>
<g id="Layer_3">
	<rect id="XMLID_2_" x="0" y="220.152" style="fill:#BAD390;stroke:#617C48;stroke-miterlimit:10;" width="648" height="211.848"/>
	<path id="XMLID_5_" style="fill:#BAD390;stroke:#617C48;stroke-miterlimit:10;" d="M68.084,243.103
		c-1.319-8.576-3.299-14.514-3.299-14.514c5.278,4.618,7.257,15.833,7.257,13.854s7.257-8.576,7.257-8.576l-1.319,11.875"/>
	<path id="XMLID_6_" style="fill:#BAD390;stroke:#617C48;stroke-miterlimit:10;" d="M196.729,396.157
		c0-5.278-3.299-15.833-3.299-15.833c5.937,7.257,9.236,15.174,9.236,15.174l7.917-8.576l-4.618,13.194"/>
	<path id="XMLID_7_" style="fill:#BAD390;stroke:#617C48;stroke-miterlimit:10;" d="M547.698,291.922
		c-0.66-4.618-8.576-19.132-8.576-19.132c9.236,4.618,11.875,20.451,11.875,15.833s7.917-11.875,7.917-11.875l-5.278,15.833"/>
	<path id="XMLID_8_" style="fill:#BAD390;stroke:#617C48;stroke-miterlimit:10;" d="M483.046,395.497
		c-1.319-9.236-2.639-13.854-2.639-13.854c9.236,5.278,10.555,11.875,10.555,11.875l10.555-10.555l-3.958,13.854"/>
	<path id="XMLID_9_" style="fill:#BAD390;stroke:#617C48;stroke-miterlimit:10;" d="M583.323,227.269
		c-1.319-7.257-4.618-16.493-4.618-16.493c6.597,4.618,8.576,11.875,8.576,11.875l9.896-11.215l-4.618,14.514"/>
	<path id="XMLID_10_" style="fill:#BAD390;stroke:#617C48;stroke-miterlimit:10;" d="M45.653,375.046
		c-1.979-4.618-4.618-14.514-4.618-14.514c6.597,3.299,7.917,9.236,7.917,9.236l5.278-6.597l-1.979,10.555l9.236-3.299l-5.278,6.597
		"/>
	<path id="XMLID_11_" style="fill:#BAD390;stroke:#617C48;stroke-miterlimit:10;" d="M601.136,364.491
		c-0.66-3.958-11.215-17.812-11.215-17.812c10.555,4.618,13.194,13.194,13.854,9.896c0.66-3.299,8.576-11.215,8.576-11.215
		l-2.639,12.535l8.576-3.958l-5.278,9.896"/>
	<g id="XMLID_121_">
		<path id="XMLID_72_" style="fill:#4C4547;stroke:#231F20;stroke-linecap:round;stroke-linejoin:round;stroke-miterlimit:10;" d="
			M288.997,350.822c6.053,9.684,3.632,24.816,3.632,24.816c14.526,4.842,25.421-1.211,25.421-1.211
			c-6.658-16.947-17.553-29.053-17.553-29.053L288.997,350.822z"/>
		<path id="XMLID_71_" style="fill:#7F5345;stroke:#4C2C20;stroke-linecap:round;stroke-linejoin:round;stroke-miterlimit:10;" d="
			M244.812,291.506c22.395,19.368,46,71.421,46,71.421c2.421-5.447,1.816-9.684,1.816-9.684c9.684,10.895,17.553,11.5,17.553,11.5
			c-5.447-5.447-10.289-14.526-10.289-14.526c6.053,6.658,12.711,9.079,12.711,9.079c-19.974-33.289-32.684-61.132-32.684-61.132
			c36.316-9.684,42.368-30.263,42.368-30.263l-42.974-23.605L244.812,291.506z"/>
		<path id="XMLID_70_" style="fill:#4C4547;stroke:#231F20;stroke-linecap:round;stroke-linejoin:round;stroke-miterlimit:10;" d="
			M158.865,335.69c-14.526,1.211-24.816,3.026-24.816,3.026c-4.842,10.895,0.42,22.688,4.237,22.395
			c15.737-1.211,24.816-15.737,24.816-15.737L158.865,335.69z"/>
		<path id="XMLID_100_" style="fill:#BC689E;stroke:#4F273F;stroke-linecap:round;stroke-linejoin:round;stroke-miterlimit:10;" d="
			M417.55,149.218c12.996,7.286,35.838,13.39,36.626,12.799c0.591-0.197-7.089,8.861-7.089,8.861
			c-1.378,0-33.278-13.193-33.475-16.738C413.414,150.596,417.55,149.218,417.55,149.218z"/>
		<path id="XMLID_74_" style="fill:#4C4547;stroke:#231F20;stroke-linecap:round;stroke-linejoin:round;stroke-miterlimit:10;" d="
			M368.299,357.48c-17.282,10.35-18.329,13.8-18.329,13.8c-3.666,6.9,3.666,20.125,5.237,20.7
			c2.618-0.575,20.947-19.55,20.947-19.55L368.299,357.48z"/>
		<path id="XMLID_61_" style="fill:#512A1E;stroke:#AF8272;stroke-linecap:round;stroke-linejoin:round;stroke-miterlimit:10;" d="
			M272.655,176.506c-13.316-38.132-75.658-41.763-95.026-37.526c24.211-0.605,33.895,7.263,33.895,7.263
			c-37.526,4.237-55.079,14.526-66.579,26.026c-11.5,11.5-61.132,103.5-108.947,108.947c35.711,1.816,47.816-5.447,47.816-5.447
			c-20.579,12.711-97.447,3.632-50.842,16.342c46.605,12.711,81.711,15.132,106.526-16.947s33.289-65.974,73.237-79.895
			s44.789-1.816,46.605-4.237S272.655,176.506,272.655,176.506z"/>
		<path id="XMLID_4_" style="fill:#512A1E;stroke:#AF8272;stroke-linecap:round;stroke-linejoin:round;stroke-miterlimit:10;" d="
			M264.181,180.743c-26.632-24.816-70.211-23.605-92-8.474"/>
		<path id="XMLID_3_" style="fill:#512A1E;stroke:#AF8272;stroke-linecap:round;stroke-linejoin:round;stroke-miterlimit:10;" d="
			M192.155,178.322c20.579-7.263,61.132-6.658,76.263,12.711"/>
		<path id="XMLID_69_" style="fill:#7F5345;stroke:#4C2C20;stroke-linecap:round;stroke-linejoin:round;stroke-miterlimit:10;" d="
			M288.391,168.032c24.211-5.447,32.684,6.053,77.474,20.579s70.211-14.526,70.211-14.526c30.868,1.816,41.763,64.763,41.763,64.763
			c0.605,8.474,4.549,31.185,4.549,31.185c-13.044,20.068-32.858,34.808-34.673,35.414c-1.816,0.605-141.165-3.046-178.691-41.783
			C239.365,210.401,288.391,168.032,288.391,168.032z"/>
		<path id="XMLID_66_" style="fill:#7F5345;stroke:#4C2C20;stroke-linecap:round;stroke-linejoin:round;stroke-miterlimit:10;" d="
			M313.813,175.901c-20.579-19.368-44.789-7.263-62.342,7.263s-41.158,47.816-22.395,95.632
			c-16.947,2.421-27.842-4.842-32.079,0.605c-4.237,5.447-24.816,48.421-41.158,53.263c-6.053,3.026-9.079,6.053-10.895,4.842
			c4.842,2.421,13.316,2.421,13.316,2.421c-6.658,4.842-8.474,12.105-8.474,12.105c6.658-1.816,10.895-5.447,10.895-5.447
			s-0.605,3.632-0.605,5.447c15.737-15.132,35.94-37.344,50.237-55.079c12.711-0.605,36.921,8.474,52.658,0
			c15.737-8.474,46-42.368,46.605-71.421"/>
		<path id="XMLID_73_" style="fill:#7F5345;stroke:#4C2C20;stroke-linecap:round;stroke-linejoin:round;stroke-miterlimit:10;" d="
			M421.549,303.006c-19.974,27.842-61.737,57.5-68.395,60.526c9.684,0,14.526-1.211,14.526-1.211
			c-6.053,8.474-5.447,19.974-5.447,19.974c5.447-4.842,9.079-7.868,9.079-7.868c-0.605,1.816-1.816,10.895-1.816,10.895
			c24.816-24.816,84.987-87.798,86.802-87.193s-13.566,9.72-11.75,6.693C446.365,301.796,421.549,303.006,421.549,303.006z"/>
		<path id="XMLID_75_" style="fill:#7F5345;stroke:#4C2C20;stroke-linecap:round;stroke-linejoin:round;stroke-miterlimit:10;" d="
			M424.576,186.19c52.053-53.263,92.605-90.184,105.921-94.421c13.316-4.237,33.289,49.632,29.053,62.947
			c-4.237,13.316-29.053,6.658-29.053,6.658c-20.579,26.026-61.132,105.921-62.947,108.342"/>
		<path id="XMLID_77_" style="fill:#7F5345;stroke:#4C2C20;stroke-linecap:round;stroke-linejoin:round;stroke-miterlimit:10;" d="
			M537.76,89.348c13.921-4.237,27.842,3.632,36.316,23s15.737,39.342,21.184,44.789c5.447,5.447,18.158,17.553,16.947,24.816
			c-1.211,7.263-10.289,21.789-25.421,18.763c-15.132-3.026-12.105-11.5-16.947-16.947s-9.079-12.711-12.105-13.316
			c-3.026-0.605-14.526,4.842-23.605,1.816c-9.079-3.026-25.421-21.184-25.421-39.947c3.632-7.263,16.947-23.605,16.947-23.605"/>
		<path id="XMLID_86_" style="fill:#4C4547;stroke:#231F20;stroke-linecap:round;stroke-linejoin:round;stroke-miterlimit:10;" d="
			M475.924,339.784c-1.445,14.084,0.081,26.728,0.081,26.728c11.195,10.112,20.82,1.214,23.348-0.953
			c2.528-2.167-1.5-17.309-6.194-25.254C488.463,332.36,475.924,339.784,475.924,339.784z"/>
		<path id="XMLID_79_" style="fill:#7F5345;stroke:#4C2C20;stroke-linecap:round;stroke-linejoin:round;stroke-miterlimit:10;" d="
			M571.847,86.518c16.612-2.528,34.308-7.584,34.308-7.584c-7.945,16.251-36.475,25.28-44.059,23.835
			C554.512,101.324,550.901,88.685,571.847,86.518z"/>
		<path id="XMLID_80_" style="fill:#512A1E;stroke:#AF8272;stroke-linecap:round;stroke-linejoin:round;stroke-miterlimit:10;" d="
			M566.43,82.184c16.251,2.528,26.363,13.723,36.836,11.918c-6.5,4.334-22.752,1.806-22.752,1.806
			c12.279,5.778,16.251,24.196,16.251,24.196c-9.028-4.695-18.418-10.834-18.418-10.834c2.528,9.028-5.778,16.251-5.778,16.251
			c-14.084-11.918-17.696-36.114-15.529-39.003C559.207,83.629,566.43,82.184,566.43,82.184z"/>
		<path id="XMLID_78_" style="fill:#512A1E;stroke:#AF8272;stroke-linecap:round;stroke-linejoin:round;stroke-miterlimit:10;" d="
			M556.201,82.298c-15.516-36.526-49.359-10.587-58.026-9.504c9.39,4.695,10.024,5.302,10.024,5.302
			c-18.418,0.722-44.694,11.311-64.556,4.81c16.612,13.723,24.919,16.251,24.919,16.251c-28.891-0.361-53.448,17.696-55.615,17.696
			c30.697,1.083,38.281,7.945,38.281,7.945c-15.89,1.806-34.669,4.334-36.114,2.889c15.89,24.196,35.03,32.141,35.03,32.141
			s32.502-29.613,40.447-33.225c0.722-2.167-1.806-2.528-1.806-2.528c5.778-2.167,11.556-3.25,11.556-3.25
			c-3.611-1.445-6.139-2.167-6.139-2.167c4.695-3.25,30.697-16.612,33.225-20.946s0-3.973,0-3.973
			c4.695-1.806,18.418-3.611,25.28-3.25C559.568,87.601,556.201,82.298,556.201,82.298z"/>
		<path id="XMLID_81_" style="fill:#BC689E;stroke:#4F273F;stroke-linecap:round;stroke-linejoin:round;stroke-miterlimit:10;" d="
			M597.488,155.134c-18.418,4.695-29.974,19.501-31.058,26.724c2.167,9.39,7.584,13.723,7.584,13.723
			c4.334-14.084,17.335-26.724,31.419-29.974C600.377,158.023,597.488,155.134,597.488,155.134z"/>
		<path id="XMLID_112_" style="fill:none;stroke:#231F20;stroke-linecap:round;stroke-linejoin:round;stroke-miterlimit:10;" d="
			M596.043,176.441c5.056,5.056,3.25,10.112,3.25,10.112"/>
		
			<ellipse id="XMLID_84_" transform="matrix(0.8665 0.4992 -0.4992 0.8665 139.5572 -259.5081)" style="fill:#231F20;stroke:#231F20;stroke-linecap:round;stroke-linejoin:round;stroke-miterlimit:10;" cx="554.873" cy="131.118" rx="1.445" ry="5.236"/>
		<path id="XMLID_76_" style="fill:#7F5345;stroke:#4C2C20;stroke-linecap:round;stroke-linejoin:round;stroke-miterlimit:10;" d="
			M544.4,94.102c9.028-14.084,32.141-21.668,39.364-26.724c-6.139,23.474-23.113,29.974-27.447,29.974"/>
		<path id="XMLID_87_" style="fill:#7F5345;stroke:#4C2C20;stroke-linecap:round;stroke-linejoin:round;stroke-miterlimit:10;" d="
			M442.338,209.141c17.335,23.835,18.779,59.227,18.057,64.644c-2.528,7.223-25.641,26.002-25.641,26.002
			c40.809,9.751,38.642,7.945,46.587,11.918c7.945,3.973,17.335,35.392,19.501,38.281c-6.5,3.25-9.39-4.695-9.39-4.695
			c0.361,6.5-2.528,14.807-2.528,14.807c-5.417-5.056-6.5-12.64-6.5-12.64c-1.806,3.25-9.751,12.279-9.751,12.279
			c3.973-11.918-7.223-32.141-7.223-32.141c-35.03,4.695-66.289-1.017-70.261-4.99c-3.973-3.973,0.402-41.583,4.014-49.167"/>
		<path id="XMLID_88_" style="fill:#D8B16C;stroke:#93692C;stroke-linecap:round;stroke-linejoin:round;stroke-miterlimit:10;" d="
			M316.883,170.302c7.945-0.722,23.835,6.862,41.17,11.918c17.335,5.056,38.642,4.334,38.642,4.334
			c2.528-3.611-10.112-4.334-3.25-10.473c6.862-6.139,9.39-6.862,13.723-2.167c4.334,4.695,6.5,14.084,7.223,15.168
			c2.528,22.029,7.945,44.781-24.196,59.227c-31.419,13.723-72.228,1.445-71.866-27.085
			C318.689,191.97,316.883,169.941,316.883,170.302z"/>
		<path id="XMLID_104_" style="fill:#4F4037;stroke:#3F3228;stroke-linecap:round;stroke-linejoin:round;stroke-miterlimit:10;" d="
			M364.777,224.438c-5.907,7.68-20.479,24.614-20.479,24.614c0.985,14.965,12.406,24.614,17.328,24.22s-4.529-21.464-4.529-21.464
			l20.479-22.251L364.777,224.438z"/>
		<path id="XMLID_89_" style="fill:#B75E37;stroke:#512B18;stroke-linecap:round;stroke-linejoin:round;stroke-miterlimit:10;" d="
			M355.164,72.072c-16.612-10.112-29.974-4.695-38.281,2.528c-8.306,7.223-25.641,9.028-25.641,9.028
			c20.224,10.834,26.002,12.279,36.836,7.584s27.446-11.918,28.891-13.723c1.445-1.806-1.083-3.973-1.083-3.973L355.164,72.072z"/>
		<path id="XMLID_102_" style="fill:#49684F;stroke:#27422D;stroke-linecap:round;stroke-linejoin:round;stroke-miterlimit:10;" d="
			M340.753,155.716c-12.799,14.375-11.027,24.811-1.969,31.309c9.058,6.498,16.344,11.618,16.344,11.618
			c8.073,12.209,12.996,12.209,12.012,16.935c-0.985,4.726-4.923,10.83-4.923,10.83c4.923,7.483,15.556,6.892,15.556,6.892
			c5.907-5.514,12.209-14.965,12.602-18.116c0.394-3.151-12.602-29.143-22.054-36.429c-3.348-6.301-3.938-10.633-3.938-10.633
			L340.753,155.716z"/>
		<path id="XMLID_103_" style="fill:#49684F;stroke:#27422D;stroke-linecap:round;stroke-linejoin:round;stroke-miterlimit:10;" d="
			M360.839,174.226c7.286,4.923,7.286,4.923,7.286,4.923"/>
		<path id="XMLID_99_" style="fill:#D1A584;stroke:#7C4B38;stroke-linecap:round;stroke-linejoin:round;stroke-miterlimit:10;" d="
			M380.727,129.133c3.938,13.981,18.116,19.888,22.251,19.888c7.483-5.12,15.162-2.757,16.935,1.969
			c1.772,4.726-1.181,6.301-1.181,6.301l-25.402-2.166c0,0-17.525-3.938-19.494-14.178
			C371.866,130.708,380.727,129.133,380.727,129.133z"/>
		<path id="XMLID_85_" style="fill:#BC689E;stroke:#4F273F;stroke-linecap:round;stroke-linejoin:round;stroke-miterlimit:10;" d="
			M566.43,189.803c-20.946,16.251-97.466,39.189-151.637-27.983c-5.056-0.722-6.399-0.853-7.483-1.575
			c20.585,54.893,108.56,79.757,163.092,34.614C568.596,190.525,566.43,189.803,566.43,189.803z"/>
		<path id="XMLID_96_" style="fill:#EAC1CE;stroke:#99737E;stroke-linecap:round;stroke-linejoin:round;stroke-miterlimit:10;" d="
			M351.781,118.105c3.741-14.572,22.645-14.572,26.583-5.71s5.317,20.282,5.317,20.282c-0.591-0.197-3.348,2.166-3.348,2.166
			c-1.378,10.83-15.162,37.413-15.162,37.413c-16.147,1.181-26.386-9.255-27.174-14.572
			C349.811,129.526,350.993,124.407,351.781,118.105z"/>
		<path id="XMLID_93_" style="fill:#D1A584;stroke:#7C4B38;stroke-linecap:round;stroke-linejoin:round;stroke-miterlimit:10;" d="
			M363.92,92.67c-0.394,1.378-4.252,15.506-4.252,15.506c8.664,5.907,15.006,4.752,15.006,4.752
			c1.181-3.151,3.493-12.348,3.296-12.939C377.773,99.399,373.569,80.265,363.92,92.67z"/>
		
			<ellipse id="XMLID_82_" style="fill:#E5B445;stroke:#896B22;stroke-linecap:round;stroke-linejoin:round;stroke-miterlimit:10;" cx="571.666" cy="187.817" rx="9.57" ry="9.209"/>
		<path id="XMLID_92_" style="fill:#D1A584;stroke:#7C4B38;stroke-linecap:round;stroke-linejoin:round;stroke-miterlimit:10;" d="
			M396.382,63.71c2.355,9.419,0.523,16.483,0.785,18.053c1.57,2.616,2.878,4.971,0.262,6.802
			c-0.785,4.186-2.765,16.457-5.233,16.483c-5.758,0.061-23.283-1.12-26.163-17.268C364.986,68.942,383.3,49.32,396.382,63.71z"/>
		<path id="XMLID_91_" style="fill:#B75E37;stroke:#512B18;stroke-linecap:round;stroke-linejoin:round;stroke-miterlimit:10;" d="
			M393.806,52.571c-19.863-8.667-33.586-2.167-38.281,9.028s-6.862,23.113,6.5,33.947c5.417-7.223,7.945-7.945,7.945-7.945
			c-2.528-7.584,3.973-12.279,3.973-12.279c2.528-1.445,9.028-9.028,9.028-9.028c-2.528,5.056-4.334,7.945-4.334,7.945
			c9.751-0.722,14.446-5.056,14.084-9.751c3.611,4.334,3.611,8.667,3.611,8.667C400.306,70.989,407.168,59.432,393.806,52.571z"/>
		<path id="XMLID_90_" style="fill:#D1A584;stroke:#7C4B38;stroke-linecap:round;stroke-linejoin:round;stroke-miterlimit:10;" d="
			M374.666,79.146c-7.064-8.634-9.68-0.262-9.157,2.878c0.523,3.14,2.616,7.326,7.849,6.018"/>
		<path id="XMLID_95_" style="fill:none;stroke:#231F20;stroke-linecap:round;stroke-linejoin:round;stroke-miterlimit:10;" d="
			M386.437,91.128c4.135,4.332,8.664,4.332,8.664,4.332"/>
		
			<ellipse id="XMLID_94_" transform="matrix(0.984 0.1781 -0.1781 0.984 20.5761 -68.1678)" style="fill:none;stroke:#231F20;stroke-linecap:round;stroke-linejoin:round;stroke-miterlimit:10;" cx="389.883" cy="80.495" rx="0.39" ry="2.71"/>
		<path id="XMLID_98_" style="fill:#D1A584;stroke:#7C4B38;stroke-linecap:round;stroke-linejoin:round;stroke-miterlimit:10;" d="
			M374.032,127.754c4.529,19.297,10.436,24.22,28.159,25.599c6.892-5.514,11.224-5.907,14.965-0.788
			c3.741,5.12,3.938,10.239-3.348,9.649c-7.286-0.591-9.452-3.741-9.452-3.741c-3.151,3.741-40.564,2.757-42.927-24.22
			C368.518,127.163,374.032,127.754,374.032,127.754z"/>
		<path id="XMLID_97_" style="fill:#EAC1CE;stroke:#99737E;stroke-linecap:round;stroke-linejoin:round;stroke-miterlimit:10;" d="
			M358.279,112.001c10.24-1.575,11.224-2.56,13.981,5.71s4.923,14.572,4.923,14.572c-8.27,2.757-15.162,7.877-15.162,7.877
			c-0.197-1.181-5.12-15.95-5.12-15.95"/>
	</g>
</g>
</svg>
