<?xml version="1.0" encoding="utf-8"?>
<!-- Generator: Adobe Illustrator 19.0.0, SVG Export Plug-In . SVG Version: 6.00 Build 0)  -->
<!DOCTYPE svg PUBLIC "-//W3C//DTD SVG 1.1//EN" "http://www.w3.org/Graphics/SVG/1.1/DTD/svg11.dtd">
<svg version="1.1" id="Layer_1" xmlns="http://www.w3.org/2000/svg" xmlns:xlink="http://www.w3.org/1999/xlink" x="0px" y="0px"
	 width="648px" height="432px" viewBox="0 0 648 432" style="enable-background:new 0 0 648 432;" xml:space="preserve">
<symbol  id="window1" viewBox="-7.435 -9.532 14.87 19.064">
	
		<polygon id="XMLID_6_" style="fill:#B7B3A7;stroke:#6D6B62;stroke-linecap:round;stroke-linejoin:round;stroke-miterlimit:10;" points="
		6.935,-9.032 -6.935,-8.505 -6.935,9.032 6.935,8.505 	"/>
	
		<polygon id="XMLID_5_" style="fill:#66645D;stroke:#6D6B62;stroke-linecap:round;stroke-linejoin:round;stroke-miterlimit:10;" points="
		4.241,-6.249 -4.241,-5.884 -4.241,6.249 4.241,5.884 	"/>
</symbol>
<g id="Layer_2">
	<rect id="XMLID_1_" style="fill:#C7E3EF;" width="648" height="432"/>
	<rect id="XMLID_4_" y="317.69" style="fill:#C6DBB4;stroke:#495E3B;stroke-miterlimit:10;" width="648" height="114.31"/>
</g>
<g id="XMLID_9_">
	<path id="XMLID_11_" style="fill:#CEB341;stroke:#875B1A;stroke-linecap:round;stroke-linejoin:round;stroke-miterlimit:10;" d="
		M115.284,277.06c-33.142,5.236-37.714,19.105-44.571,30.721c3.429-0.066,3.429-0.066,3.429-0.066
		c-3.429,8.105-18.285,29.063-18.285,29.063c10.286-4.793,13.714-8.304,13.714-8.304c-14.857,16.365-22.857,24.558-22.857,24.558
		c11.428-4.815,11.428-4.815,11.428-4.815c-6.857,8.171-11.428,12.853-11.428,12.853c24,1.831,38.856-1.902,38.856-1.902
		c-8,4.748-8,4.748-8,4.748c1.522,3.029,11.655,0.291,18.259-1.877c3.315-1.088,5.741-2.033,5.741-2.033l41.142,2.647
		c0,0-1.143-72.323-8-80.228S115.284,277.06,115.284,277.06z"/>
	
		<polygon id="XMLID_12_" style="fill:#D16262;stroke:#933232;stroke-linecap:round;stroke-linejoin:round;stroke-miterlimit:10;" points="
		107.021,209.57 109.531,369.226 296.077,380.739 295.593,187.677 230.828,117.229 178.14,113.926 134.993,150.225 	"/>
	<path id="XMLID_13_" style="fill:#8C3E3E;stroke:#6D2020;stroke-linecap:round;stroke-linejoin:round;stroke-miterlimit:10;" d="
		M296.481,188.998c3.428-0.066,286.527,18.907,286.527,18.907l2.51,152.092l-289.44,20.742L296.481,188.998z"/>
	
		<line id="XMLID_14_" style="fill:#CEB341;stroke:#875B1A;stroke-linecap:round;stroke-linejoin:round;stroke-miterlimit:10;" x1="82.142" y1="324.784" x2="72.999" y2="337.593"/>
	
		<line id="XMLID_15_" style="fill:#CEB341;stroke:#875B1A;stroke-linecap:round;stroke-linejoin:round;stroke-miterlimit:10;" x1="90.524" y1="318.494" x2="84.148" y2="333.833"/>
	
		<line id="XMLID_16_" style="fill:#CEB341;stroke:#875B1A;stroke-linecap:round;stroke-linejoin:round;stroke-miterlimit:10;" x1="93.313" y1="330.052" x2="89.727" y2="345.337"/>
	
		<line id="XMLID_17_" style="fill:#CEB341;stroke:#875B1A;stroke-linecap:round;stroke-linejoin:round;stroke-miterlimit:10;" x1="108.058" y1="292.928" x2="106.862" y2="306.966"/>
	
		<line id="XMLID_18_" style="fill:#CEB341;stroke:#875B1A;stroke-linecap:round;stroke-linejoin:round;stroke-miterlimit:10;" x1="98.46" y1="301.08" x2="100.453" y2="311.852"/>
	
		<polygon id="XMLID_19_" style="fill:#D6D3C8;stroke:#6D6B62;stroke-linecap:round;stroke-linejoin:round;stroke-miterlimit:10;" points="
		222.429,237.728 157.353,237.792 157.353,180.831 222.429,180.766 	"/>
	
		<polygon id="XMLID_20_" style="fill:#66645D;stroke:#6D6B62;stroke-linecap:round;stroke-linejoin:round;stroke-miterlimit:10;" points="
		215.125,230.351 164.658,230.509 164.658,188.208 215.125,188.05 	"/>
	
		<polygon id="XMLID_22_" style="fill:#D6D3C8;stroke:#6D6B62;stroke-linecap:round;stroke-linejoin:round;stroke-miterlimit:10;" points="
		235.447,376.223 146.195,371.903 146.195,284.976 235.447,289.296 	"/>
	
		<polygon id="XMLID_21_" style="fill:#D16262;stroke:#933232;stroke-linecap:round;stroke-linejoin:round;stroke-miterlimit:10;" points="
		225.428,376.337 156.213,371.693 156.213,295.111 224.95,297.864 	"/>
	
		<polygon id="XMLID_23_" style="fill:#D6D3C8;stroke:#6D6B62;stroke-linecap:round;stroke-linejoin:round;stroke-miterlimit:10;" points="
		184.965,295.211 184.528,374.578 193.275,374.668 194.149,295.283 	"/>
	
		<use xlink:href="#window1"  width="14.87" height="19.064" id="XMLID_24_" x="-7.435" y="-9.532" transform="matrix(1.9106 -0.1052 0 -1.9378 364.5169 306.8251)" style="overflow:visible;"/>
	
		<use xlink:href="#window1"  width="14.87" height="19.064" id="XMLID_29_" x="-7.435" y="-9.532" transform="matrix(1.9106 -0.1052 0 -1.9378 454.4456 304.4878)" style="overflow:visible;"/>
	
		<use xlink:href="#window1"  width="14.87" height="19.064" id="XMLID_179_" x="-7.435" y="-9.532" transform="matrix(1.9106 -0.1052 0 -1.9378 527.2238 301.3955)" style="overflow:visible;"/>
	<path id="XMLID_27_" style="fill:#92979B;stroke:#5B5F63;stroke-linecap:round;stroke-linejoin:round;stroke-miterlimit:10;" d="
		M177.583,107.942c-1.611,1.65-44.622,38.922-45.696,40.561c-0.578,0.882-16.859,26.628-27.063,41.091
		c-5.767,16.16-12.315,60.197-12.315,60.197l13.747-1.833l8.329-51.866l27.063-41.537l41.915-38.099L177.583,107.942z"/>
	<path id="XMLID_31_" style="fill:#282526;stroke:#84797C;stroke-linecap:round;stroke-linejoin:round;stroke-miterlimit:10;" d="
		M179.801,107.899c3.221-0.062,323.726,8.286,322.115,8.317c-1.611,0.031,49.347,36.961,48.811,36.432s40.307,55.163,40.307,55.163
		l5.358,40.181l-303.183,2.714l-5.497-46.185l-38.653-57.51L179.801,107.899z"/>
	
		<line id="XMLID_33_" style="fill:#282526;stroke:#84797C;stroke-linecap:round;stroke-linejoin:round;stroke-miterlimit:10;" x1="264" y1="145" x2="538" y2="152"/>
	<path id="XMLID_34_" style="fill:#282526;stroke:#84797C;stroke-linecap:round;stroke-linejoin:round;stroke-miterlimit:10;" d="
		M300.54,205.801c1.611,0.508,281.346,0.916,281.346,0.916"/>
	<path id="XMLID_3_" style="fill:#CEB341;stroke:#F4E76C;stroke-linecap:round;stroke-linejoin:round;stroke-miterlimit:10;" d="
		M597.946,353.762"/>
	<path id="XMLID_2_" style="fill:#CEB341;stroke:#F4E76C;stroke-linecap:round;stroke-linejoin:round;stroke-miterlimit:10;" d="
		M608.047,333.774"/>
	<path id="XMLID_7_" style="fill:#CEB341;stroke:#F4E76C;stroke-linecap:round;stroke-linejoin:round;stroke-miterlimit:10;" d="
		M659,258.973"/>
	<path id="XMLID_30_" style="fill:#92979B;stroke:#5B5F63;stroke-linecap:round;stroke-linejoin:round;stroke-miterlimit:10;" d="
		M177.583,107.05l-2.218,10.742l66.547,32.589l37.266,51.434c0,0,4.452,51.667,5.783,51.641c1.331-0.026,13.747,0,13.747,0
		l-6.22-51.453l-39.041-57.641L177.583,107.05z"/>
	
		<polygon id="XMLID_176_" style="fill:#D6D3C8;stroke:#6D6B62;stroke-linecap:round;stroke-linejoin:round;stroke-miterlimit:10;" points="
		174.938,327.003 174.093,352.315 180.216,352.066 180.601,327.216 	"/>
	
		<polygon id="XMLID_181_" style="fill:#D6D3C8;stroke:#6D6B62;stroke-linecap:round;stroke-linejoin:round;stroke-miterlimit:10;" points="
		199.243,329.375 198.85,354.494 204.973,354.245 204.914,329.584 	"/>
</g>
</svg>
