<?xml version="1.0" encoding="utf-8"?>
<!-- Generator: Adobe Illustrator 19.0.0, SVG Export Plug-In . SVG Version: 6.00 Build 0)  -->
<!DOCTYPE svg PUBLIC "-//W3C//DTD SVG 1.1//EN" "http://www.w3.org/Graphics/SVG/1.1/DTD/svg11.dtd">
<svg version="1.1" id="Layer_1" xmlns="http://www.w3.org/2000/svg" xmlns:xlink="http://www.w3.org/1999/xlink" x="0px" y="0px"
	 width="648px" height="432px" viewBox="-215 325 648 432" style="enable-background:new -215 325 648 432;" xml:space="preserve">
<g id="Layer_2">
	<rect id="XMLID_1_" x="-215" y="325" style="fill:#BCD1A3;" width="648" height="432"/>
</g>
<g id="Layer_1_1_">
	<g id="XMLID_76_">
		<path id="XMLID_27_" style="fill:#2D2928;stroke:#5E5756;stroke-linecap:round;stroke-linejoin:round;stroke-miterlimit:10;" d="
			M210.5,673.1c1.3,10.3,4.7,28.8,4.7,28.8c15.5,11.2,34.9,2.6,34.9,2.6c-6.5-14.6-14.6-29.3-14.6-29.3L210.5,673.1z"/>
		<path id="XMLID_25_" style="fill:#916556;stroke:#6B402F;stroke-linecap:round;stroke-linejoin:round;stroke-miterlimit:10;" d="
			M232,539.3c-1.3,32.7-7.7,68-3.9,92.1c3.9,24.1,9.9,50.3,15.1,54.6c-14.2-0.4-14.2-7.3-14.2-7.3c3,7.3,6.9,12.5,6.9,12.5
			c-7.3-3.9-14.2-12.5-14.2-12.5c-0.9,3-2.6,10.3-2.6,10.3c-0.4-1.7-4.3-10.8-4.3-10.8c0,3.4-4.7,9.9-4.7,9.9
			c1.3-9-12-86.1-15.1-95.5C191.9,583.2,231.1,539.7,232,539.3z"/>
		<path id="XMLID_15_" style="fill:#916556;stroke:#6B402F;stroke-linecap:round;stroke-linejoin:round;stroke-miterlimit:10;" d="
			M6.7,411.7C18.4,391,34.3,381.5,40.3,385c6,3.4,28.8,34.4,27.1,36.6C65.7,423.7,3.7,423.3,6.7,411.7z"/>
		<path id="XMLID_5_" style="fill:#916556;stroke:#6B402F;stroke-linecap:round;stroke-linejoin:round;stroke-miterlimit:10;" d="
			M344.6,390.5c15.7-0.4,20,9.6,33.2,10.7c13.2,1.1,15.4-2.9,15.7,2.1s-17.1,26.8-37.5,22.5C336.4,419.8,344.6,390.5,344.6,390.5z"
			/>
		<path id="XMLID_19_" style="fill:#2D2928;stroke:#5E5756;stroke-linecap:round;stroke-linejoin:round;stroke-miterlimit:10;" d="
			M17.5,649.2c0,14.6,2.6,30.1,2.6,30.1c8.2,4.7,19.8,13.3,40.9-2.2c-12.9-31-12-30.5-12-30.5"/>
		<path id="XMLID_29_" style="fill:#916556;stroke:#6B402F;stroke-linecap:round;stroke-linejoin:round;stroke-miterlimit:10;" d="
			M170.3,416.4c18.9-21.9,23.7-17.6,29.3-12.5c5.6,5.2,18.5,28,17.2,30.5C215.4,437,167.7,441.8,170.3,416.4z"/>
		<path id="XMLID_16_" style="fill:#916556;stroke:#6B402F;stroke-linecap:round;stroke-linejoin:round;stroke-miterlimit:10;" d="
			M11.9,513.6c-5.2,9-18.9,8.6-22.4,14.6s9,50.3,18.5,68.8s5.6,62.4,6,63.7c7.7-1.3,12.5-7.7,12.5-7.7c5.2,8.6,17.2,14.2,17.2,14.2
			c-1.3-6-2.2-9.5-2.2-9.5c2.2,1.3,8.6,8.6,8.6,8.6c1.7-3.4,0.9-11.2,0.9-11.2c2.6,2.2,9,6.5,9,6.5c-16.8-28-32.7-111-32.7-115.7
			c21.9,8.6,46.5-7.3,49.9-9"/>
		<path id="XMLID_14_" style="fill:#CCA683;stroke:#6B402F;stroke-linecap:round;stroke-linejoin:round;stroke-miterlimit:10;" d="
			M333.4,382c-1-8.7-4.9-26.7,0.8-22.9c5.7,3.9,16.2,22.6,14.9,32.4C347.7,401.2,333.4,382,333.4,382z"/>
		<path id="XMLID_4_" style="fill:#916556;stroke:#6B402F;stroke-linecap:round;stroke-linejoin:round;stroke-miterlimit:10;" d="
			M325.5,481.6c-44.4,12.3-63.5,26-73.1,37.6c-9.6,11.6-48.5,77.9-59.4,83.3c-10.9,5.5-49.1-11.7-71-17.8
			C80.7,573.3,1.1,557.4-23.5,543c-24.6-14.4-13.7-135.2,0.7-138c14.3-2.7,51.9,4.8,77.9,7.5c26,2.7,98.3,8.9,116.1,6.1
			c17.8-2.7,80.6,8.9,99,1.4s62.2,3.4,62.2,3.4L325.5,481.6z"/>
		<path id="XMLID_20_" style="fill:#D19384;stroke:#75382D;stroke-linecap:round;stroke-linejoin:round;stroke-miterlimit:10;" d="
			M-15.1,549.8c-10.3,26.2,4.9,61.7,47.9,64.3c35.7,3,45.9-35.2,45.9-40.8C33.9,567.6,38.7,518.2-15.1,549.8z"/>
		<path id="XMLID_6_" style="fill:#916556;stroke:#6B402F;stroke-linecap:round;stroke-linejoin:round;stroke-miterlimit:10;" d="
			M264.6,403c-10.7,10.7-25,54.7-1.1,77.9c25,4.3,25.7,0.7,35.4,4.6c9.6,3.9,20,6.4,23.9,15s19.6,6.1,23.2,4.3
			c3.6-1.8,9.6-13.9,9.6-13.9c1.8,2.1,5.4,0.4,5.4,0.4s10.4-10,12.1-15c1.8-5-0.4-13.2-0.4-13.2c2.1-7.9-3.2-7.9-7.1-7.1
			c-6.8-4.3-8.2-5.4-8.2-5.4c6.8-12.9,7.5-42.2-6.1-59.7c-16.4-21.1-65-21.8-76.4-5.7C264.2,400.1,264.6,403,264.6,403z"/>
		<path id="XMLID_7_" style="fill:#916556;stroke:#6B402F;stroke-linecap:round;stroke-linejoin:round;stroke-miterlimit:10;" d="
			M282.4,383c-10.7-6.1-10.4,0.4-21.8-0.4c-11.4-0.7-36.1-19.6-41.1-8.2s13.9,57.2,54.7,28.6"/>
		<path id="XMLID_10_" style="fill:#CCA683;stroke:#6B402F;stroke-linecap:round;stroke-linejoin:round;stroke-miterlimit:10;" d="
			M280.4,382c0,0-4.9-24.7-1.3-25.7s14.1,2.1,21.3,24.4C295.6,390,280.4,382,280.4,382z"/>
		<path id="XMLID_22_" style="fill:#D19384;stroke:#75382D;stroke-linecap:round;stroke-linejoin:round;stroke-miterlimit:10;" d="
			M20.4,606.5c-6.9,10.3-2.2,19.8,4.3,20.2c6.5,0.4,9.9-14.2,7.3-21.1"/>
		<path id="XMLID_23_" style="fill:#D19384;stroke:#75382D;stroke-linecap:round;stroke-linejoin:round;stroke-miterlimit:10;" d="
			M49.2,595.2C51.8,612,56.9,618,63.8,615s0.4-18.1-1.7-23.2"/>
		<path id="XMLID_9_" style="fill:none;stroke:#231F20;stroke-linecap:round;stroke-linejoin:round;stroke-miterlimit:10;" d="
			M322.1,461.6c5.4-7.1,8.6-6.4,18.6,2.9"/>
		<path id="XMLID_8_" style="fill:#231F20;stroke:#231F20;stroke-linecap:round;stroke-linejoin:round;stroke-miterlimit:10;" d="
			M327.8,463c2.9-0.4,9.3,5.7,10,9.3C334.2,468.4,327.4,462.6,327.8,463z"/>
		<path id="XMLID_11_" style="fill:none;stroke:#231F20;stroke-linecap:round;stroke-linejoin:round;stroke-miterlimit:10;" d="
			M311,475.1c0.4,1.8,5.4,17.1,13.6,17.5s13.9-1.4,19.3-3.6c5.4-2.1,9.6-1.8,11.8,1.8"/>
		<path id="XMLID_12_" style="fill:none;stroke:#231F20;stroke-linecap:round;stroke-linejoin:round;stroke-miterlimit:10;" d="
			M306.7,476.7c3.5-2.5,7-2.3,7.8-2.3"/>
		<path id="XMLID_17_" style="fill:#916556;stroke:#6B402F;stroke-linecap:round;stroke-linejoin:round;stroke-miterlimit:10;" d="
			M-59.1,561.4c6,3.4,12.5,5.2,12.5,5.2"/>
		<path id="XMLID_18_" style="fill:#2D2928;stroke:#5E5756;stroke-linecap:round;stroke-linejoin:round;stroke-miterlimit:10;" d="
			M-56.5,669.4c0,14.6,0,27.5,0,27.5c8.2,4.7,23.2,17.6,44.3,2.2c-12.9-31-7.7-24.1-7.7-24.1"/>
		<path id="XMLID_21_" style="fill:#D19384;stroke:#75382D;stroke-linecap:round;stroke-linejoin:round;stroke-miterlimit:10;" d="
			M-6.9,577.3c-6.5,6-10.8,17.2-3.4,22.8c7.3,5.6,14.6-12,14.6-12"/>
		<path id="XMLID_26_" style="fill:#2D2928;stroke:#5E5756;stroke-linecap:round;stroke-linejoin:round;stroke-miterlimit:10;" d="
			M155.2,700.4c-1.7,15.1-1.3,28-1.3,28c5.2,7.7,31,11.2,39.2,2.2c-8.6-25-12.9-32.3-12.9-32.3L155.2,700.4z"/>
		<path id="XMLID_24_" style="fill:#916556;stroke:#6B402F;stroke-linecap:round;stroke-linejoin:round;stroke-miterlimit:10;" d="
			M143.6,430.2c13.3-10.3,31-38.3,47.8-1.3s24.1,75.7,18.9,96.8c-5.2,21.1-29.7,69.3-30.1,92.5s0,82.2,7.7,93.4
			c-12-2.2-16.4-10.8-16.4-10.8c1.7,8.2,0,12.5,0,12.5c-3.4-1.7-7.7-13.3-7.7-13.3c-3.9,7.7-12.5,12.9-12.5,12.9
			c3.9-13.3-0.9-22.8-0.9-36.6c0-13.8,1.3-58.9,0-69.7s0-31.8-6.5-48.2c-6.5-16.4-13.3-61.5-12-71"/>
		
			<ellipse id="XMLID_28_" style="fill:#231F20;stroke:#231F20;stroke-linecap:round;stroke-linejoin:round;stroke-miterlimit:10;" cx="299.2" cy="434.9" rx="1.7" ry="8.8"/>
		
			<ellipse id="XMLID_31_" style="fill:#231F20;stroke:#231F20;stroke-linecap:round;stroke-linejoin:round;stroke-miterlimit:10;" cx="343.5" cy="434.3" rx="1.7" ry="8.8"/>
		
			<ellipse id="XMLID_30_" style="fill:#EFCD3F;stroke:#C6801A;stroke-linecap:round;stroke-linejoin:round;stroke-miterlimit:10;" cx="252.2" cy="604.1" rx="8.1" ry="7.1"/>
		<path id="XMLID_32_" style="fill:#657999;stroke:#293244;stroke-linecap:round;stroke-linejoin:round;stroke-miterlimit:10;" d="
			M223.4,418.5c3.7,0.6,21.2,0.9,21.2,0.9c-3.7,2.2-30.4,62.4,14.4,104.5c-13.5,13.5-23.1,13.8-23.1,13.8
			c-18.8-15.4-31.7-55.6-28.9-80.5C209.8,432.3,223.4,418.5,223.4,418.5z"/>
		<path id="XMLID_33_" style="fill:#EFCD3F;stroke:#C6801A;stroke-linecap:round;stroke-linejoin:round;stroke-miterlimit:10;" d="
			M283.4,557.3c0-17.7-13.6-32.1-30.3-32.1c-16.7,0-30.3,14.4-30.3,32.1c0,7.4,2.3,14.2,6.3,19.6l-9.4,16.8
			c20,17.5,53.8,11.4,61.5,0.3c-3.8-6-6.3-10.1-7.8-12.9C279.6,575.2,283.4,566.7,283.4,557.3z"/>
		<path id="XMLID_36_" style="fill:#512F26;stroke:#6B402F;stroke-linecap:round;stroke-linejoin:round;stroke-miterlimit:10;" d="
			M-147.7,571.5c-11.7,6.7-21.3,28-12.1,44.4c0.8-4.6,2.1-13.4,2.1-13.4c0.8,28.5,38.1,65.3,68.6,25.5c-10.9,5.4-10.9,5.4-10.9,5.4
			c3.3-2.5,10.9-10.5,10.9-15.9c-11.7,11.3-22.6,11.3-26.4,6.3s-2.1-26.4-9.6-35.2c12.6,2.9,12.6,6.3,12.6,6.3
			C-126.4,569-148.1,571.1-147.7,571.5z"/>
		<path id="XMLID_35_" style="fill:#916556;stroke:#6B402F;stroke-linecap:round;stroke-linejoin:round;stroke-miterlimit:10;" d="
			M-47.3,443.5c-15.9,34.3-40.6,63.2-55.7,74.1c-15.1,10.9-57.8,43.9-46.9,75.8c1.3-21.3,16.7-39.3,25.1-46.9
			c8.4-7.6,65.7-34.7,76.6-64.9S-47.3,443.5-47.3,443.5z"/>
		<path id="XMLID_13_" style="fill:#916556;stroke:#6B402F;stroke-linecap:round;stroke-linejoin:round;stroke-miterlimit:10;" d="
			M35.6,427.1c-20.7-23.2-41.7-45.2-56.8-34c-15.1,11.2-48.6,68-40.9,141.1c-5.2,9-18.9,8.6-22.4,14.6c-3.4,6,9,50.3,18.5,68.8
			c9.5,18.5,5.6,62.4,6,63.7c7.7-1.3,12.5-7.7,12.5-7.7c5.2,8.6,17.2,14.2,17.2,14.2c-1.3-6-2.2-9.5-2.2-9.5
			c2.2,1.3,8.6,8.6,8.6,8.6c1.7-3.4,0.9-11.2,0.9-11.2c2.6,2.2,9,6.5,9,6.5c-16.8-28-32.7-111-32.7-115.7c21.9,8.6,46.5-7.3,49.9-9
			c3.4-1.7,36.6-55.5,35.7-102.8"/>
	</g>
</g>
</svg>
