<?xml version="1.0" encoding="utf-8"?>
<!-- Generator: Adobe Illustrator 19.0.0, SVG Export Plug-In . SVG Version: 6.00 Build 0)  -->
<!DOCTYPE svg PUBLIC "-//W3C//DTD SVG 1.1//EN" "http://www.w3.org/Graphics/SVG/1.1/DTD/svg11.dtd">
<svg version="1.1" xmlns="http://www.w3.org/2000/svg" xmlns:xlink="http://www.w3.org/1999/xlink" x="0px" y="0px" width="648px"
	 height="432px" viewBox="0 0 648 432" style="enable-background:new 0 0 648 432;" xml:space="preserve">
<g id="Layer_2">
	<rect id="XMLID_1_" x="0" y="0" style="fill:#EEDDF2;" width="648" height="432"/>
</g>
<g id="Layer_1">
	<g id="XMLID_96_">
		<path id="XMLID_119_" style="fill:#C7CDD1;stroke:#7B8287;stroke-linecap:round;stroke-linejoin:round;stroke-miterlimit:10;" d="
			M433.211,169.644c24.276-17.415,30.081-38.524,26.386-44.857c-3.694-6.333-17.943-27.97-34.83-18.998
			c-16.887,8.971-12.138,32.719-12.138,32.719c-31.136-24.803-28.497-74.41,4.75-78.632c-11.61-0.528-11.61-3.694-11.61-3.694
			c21.637-13.193,50.662-10.555,71.244,5.805c-11.61-18.998-11.61-18.998-11.61-18.998c30.608,0.528,63.855,28.497,55.412,70.188
			c6.333-17.415,7.388-19.526,7.388-19.526c13.721,21.637-0.528,65.438-29.025,78.632c17.943-3.694,29.025-8.971,29.025-8.971
			c-20.581,24.803-60.689,37.469-60.689,37.469L433.211,169.644z"/>
		<path id="XMLID_99_" style="fill:#C7CDD1;stroke:#7B8287;stroke-linecap:round;stroke-linejoin:round;stroke-miterlimit:10;" d="
			M222.438,251.434c-19.312,20.152-10.076,55.418,1.679,68.853c11.755,13.435,47.032,20.077,57.108,29.314
			s5.662-22.836-1.055-29.553C273.452,313.33,222.438,251.434,222.438,251.434z"/>
		<path id="XMLID_103_" style="fill:#C7CDD1;stroke:#7B8287;stroke-linecap:round;stroke-linejoin:round;stroke-miterlimit:10;" d="
			M381.974,286.7c-8.397,34.426-16.608,57.742-23.173,61.845c-12.666,7.916-15.234,21.109-2.639,21.109
			c12.595,0,31.689-23.338,31.689-23.338s48.701-59.616,47.021-62.975C433.194,279.982,381.974,286.7,381.974,286.7z"/>
		<path id="XMLID_102_" style="fill:#C7CDD1;stroke:#7B8287;stroke-linecap:round;stroke-linejoin:round;stroke-miterlimit:10;" d="
			M284.573,183.421c26.03,5.038,64.654-7.557,74.73-10.076s63.815-31.907,105.798,1.679s23.511,78.089,23.511,78.089
			c25.19-0.84,23.511,7.557,23.511,12.595s-1.679,46.182,4.198,48.701c5.878,2.519,26.03,12.595,19.312,17.633
			c-4.388,3.291-13.433,3.716-19.179,3.614c-3.716-0.065-7.321-1.252-10.386-3.355c-17.754-12.186-31.731-38.044-31.731-38.044
			c-19.312,6.717-46.182,20.152-68.013-2.519c-100.199,59.043-148.211,6.6-148.949-16.298
			c-20.152-6.717-45.853-25.685-49.212-34.921C204.805,231.282,285.413,184.26,284.573,183.421z"/>
		<path id="XMLID_3_" style="fill:#C7CDD1;stroke:#7B8287;stroke-linecap:round;stroke-linejoin:round;stroke-miterlimit:10;" d="
			M395.409,232.121c-7.557,45.342,14.274,60.456,14.274,60.456"/>
		<path id="XMLID_114_" style="fill:#C7CDD1;stroke:#7B8287;stroke-linecap:round;stroke-linejoin:round;stroke-miterlimit:10;" d="
			M188.564,145.229c-0.731-29.239,19.005-54.457,25.949-58.478c9.503-2.558,0.365,54.457,0.365,54.457L188.564,145.229z"/>
		<path id="XMLID_106_" style="fill:#C7CDD1;stroke:#7B8287;stroke-linecap:round;stroke-linejoin:round;stroke-miterlimit:10;" d="
			M517.161,323.645c2.519,8.397,14.274,9.236,14.274,9.236"/>
		<path id="XMLID_107_" style="fill:#C7CDD1;stroke:#7B8287;stroke-linecap:round;stroke-linejoin:round;stroke-miterlimit:10;" d="
			M494.49,280.822c-5.878,7.557-20.152,13.435-20.152,13.435"/>
		<path id="XMLID_110_" style="fill:#C7CDD1;stroke:#7B8287;stroke-linecap:round;stroke-linejoin:round;stroke-miterlimit:10;" d="
			M311.001,298.733c2.558,1.096,14.254,0,14.254,0"/>
		<path id="XMLID_2_" style="fill:#9C5EA5;stroke:#523056;stroke-linecap:round;stroke-linejoin:round;stroke-miterlimit:10;" d="
			M209.031,235.869c3.289,14.254,25.949,37.645,25.949,37.645s61.036-57.016,52.995-79.31c-7.31-9.137-24.853-4.386-24.853-4.386
			L209.031,235.869z"/>
		<path id="XMLID_111_" style="fill:#C7CDD1;stroke:#7B8287;stroke-linecap:round;stroke-linejoin:round;stroke-miterlimit:10;" d="
			M257.64,144.863c12.427,0,23.391-3.655,23.391-3.655c-5.117,4.751-13.523,13.888-13.523,13.888
			c16.812,2.193,31.066,21.929,31.066,21.929c-12.792-1.096-21.929,0-21.929,0c12.427,4.386,14.254,38.376,14.254,38.376
			c-16.081-2.924-25.584-10.234-25.584-10.234c1.827,4.386,2.924,17.543,2.924,17.543c-7.31-1.827-16.812-4.02-16.812-4.02
			l-2.558,19.005c-4.751-3.655-8.772-5.482-9.503-6.579c-0.365,11.696-0.731,15.716-0.731,15.716
			c-5.848-3.655-9.137-7.675-9.137-7.675c-12.792,11.696-48.61,20.102-56.285,22.295c-7.675,2.193-43.858-35.818-46.782-49.341
			c-2.924-13.523-1.462-28.142-1.462-28.142c16.081-7.31,38.741-9.868,38.741-9.868c0.365-25.218,23.391-45.686,53.361-43.858
			C246.676,131.34,257.64,144.863,257.64,144.863z"/>
		<path id="XMLID_112_" style="fill:#C7CDD1;stroke:#7B8287;stroke-linecap:round;stroke-linejoin:round;stroke-miterlimit:10;" d="
			M218.168,139.016c5.848-23.026,33.625-55.919,39.838-54.823c6.213,1.096,9.868,48.61-1.827,64.691"/>
		<path id="XMLID_115_" style="fill:#231F20;stroke:#231F20;stroke-linecap:round;stroke-linejoin:round;stroke-miterlimit:10;" d="
			M140.685,182.874c-17.543-2.924-22.295,3.655-22.295,3.655c-3.655,11.696,5.136,21.112,6.944,21.564
			C132.644,209.92,149.091,194.204,140.685,182.874z"/>
		<path id="XMLID_108_" style="fill:#C7CDD1;stroke:#7B8287;stroke-linecap:round;stroke-linejoin:round;stroke-miterlimit:10;" d="
			M278.057,231.121c-19.943,9.602-42.185,37.946-52.261,57.258c-10.076,19.312-25.209,62.206-47.021,56.258
			c-18.473-5.038-22.671,3.359-18.473,10.916c7.486,13.474,21.831,10.076,28.549,10.076s110.836-49.54,131.828-76.41"/>
		<path id="XMLID_109_" style="fill:#C7CDD1;stroke:#7B8287;stroke-linecap:round;stroke-linejoin:round;stroke-miterlimit:10;" d="
			M180.157,357.576c-10.234-8.041-18.274-2.193-18.64-1.096"/>
		
			<circle id="XMLID_113_" style="fill:#E5D64C;stroke:#87581A;stroke-linecap:round;stroke-linejoin:round;stroke-miterlimit:10;" cx="149.822" cy="242.448" r="31.432"/>
		<path id="XMLID_127_" style="fill:#C7CDD1;" d="M128.701,210.583c0,4.564-5.868,10.758,25.102,12.714
			c23.146,0.652,32.926-5.216,37.49-18.908C194.226,191.35,128.701,210.583,128.701,210.583z"/>
		<path id="XMLID_117_" style="fill:none;stroke:#231F20;stroke-linecap:round;stroke-linejoin:round;stroke-miterlimit:10;" d="
			M130.086,218.691c11.696,5.117,34.356,5.848,40.934,4.751c6.579-1.096,17.178-13.888,17.543-14.985
			c7.31-1.462,10.965,2.558,10.965,2.558"/>
		
			<ellipse id="XMLID_116_" transform="matrix(0.993 0.1184 -0.1184 0.993 22.5325 -22.6931)" style="fill:#231F20;stroke:#231F20;stroke-linecap:round;stroke-linejoin:round;stroke-miterlimit:10;" cx="202.269" cy="178.305" rx="2.322" ry="9.076"/>
		<path id="XMLID_120_" style="fill:#C7CDD1;stroke:#7B8287;stroke-linecap:round;stroke-linejoin:round;stroke-miterlimit:10;" d="
			M278.059,333.768c3.166,7.916,8.971,8.444,8.971,8.444"/>
		<path id="XMLID_121_" style="fill:#C7CDD1;stroke:#7B8287;stroke-linecap:round;stroke-linejoin:round;stroke-miterlimit:10;" d="
			M364.607,356.46c-5.805,3.166-8.444,13.193-8.444,13.193"/>
	</g>
</g>
</svg>
