<?xml version="1.0" encoding="utf-8"?>
<!-- Generator: Adobe Illustrator 19.0.0, SVG Export Plug-In . SVG Version: 6.00 Build 0)  -->
<!DOCTYPE svg PUBLIC "-//W3C//DTD SVG 1.1//EN" "http://www.w3.org/Graphics/SVG/1.1/DTD/svg11.dtd">
<svg version="1.1" xmlns="http://www.w3.org/2000/svg" xmlns:xlink="http://www.w3.org/1999/xlink" x="0px" y="0px" width="648px"
	 height="432px" viewBox="0 0 648 432" style="enable-background:new 0 0 648 432;" xml:space="preserve">
<symbol  id="butterfly1" viewBox="-33.068 -26.007 66.135 52.015">
	<path id="XMLID_134_" style="fill:#E2800A;stroke:#844C02;stroke-linecap:round;stroke-linejoin:round;stroke-miterlimit:10;" d="
		M3.037-0.581c8.218,13.398,10.718,19.115,6.967,24.295s-24.653,0-19.829-26.975C-24.832,2.278-31.977,1.92-32.513-2.903
		c-0.536-4.823,2.68-10.183,18.043-9.111c3.751-15.72,13.219-20.722,14.291,1.608c33.406-4.109,33.406,6.61,32.513,10.54
		c-0.893,3.93-10.897,6.788-27.511-1.25C3.573-0.938,3.394-0.402,3.037-0.581z"/>
	<path id="XMLID_94_" style="fill:#231F20;stroke:#231F20;stroke-linecap:round;stroke-linejoin:round;stroke-miterlimit:10;" d="
		M4.666-0.335C0.007-0.728-13.658-9.246-14.492-13.153C0.038-5.555,4.666-0.335,4.666-0.335z"/>
</symbol>
<g id="Layer_2">
	<rect id="XMLID_4_" x="0" y="0" style="fill:#C5E0EF;" width="648" height="327.219"/>
	<rect id="XMLID_1_" x="0" y="324.672" style="fill:#C7E29C;stroke:#516629;stroke-miterlimit:10;" width="648" height="107.328"/>
</g>
<g id="Layer_1">
	<path id="XMLID_49_" style="fill:#4E63AF;stroke:#242A47;stroke-linecap:round;stroke-linejoin:round;stroke-miterlimit:10;" d="
		M181.197,250.188c8.945,1.325,10.889,6.006,7.951,11.926c-3.033,6.11-20.54,47.706-37.436,38.098
		C136.473,286.961,167.615,260.126,181.197,250.188z"/>
	<path id="XMLID_44_" style="fill:#E5B283;stroke:#AD7E4E;stroke-linecap:round;stroke-linejoin:round;stroke-miterlimit:10;" d="
		M247.455,269.734c-19.215,11.926-43.068,8.945-53.338-2.982c-10.27,4.307-9.607,12.589-9.607,12.589
		c11.595,12.258,23.853,26.172,45.387,21.534c21.534-4.638,31.141-13.914,31.141-13.914L247.455,269.734z"/>
	<path id="XMLID_23_" style="fill:#E5B283;stroke:#AD7E4E;stroke-linecap:round;stroke-linejoin:round;stroke-miterlimit:10;" d="
		M245.273,73.041c0,5.71,3.059,6.526,8.361,4.487c5.302-2.039,4.894-9.381,4.079-9.381S245.273,73.041,245.273,73.041z"/>
	<path id="XMLID_19_" style="fill:#E5B283;stroke:#AD7E4E;stroke-linecap:round;stroke-linejoin:round;stroke-miterlimit:10;" d="
		M259.344,67.331c32.63,26.308,53.839,52.615,53.839,52.615c1.02-0.204,17.131,0.408,17.131,0.408
		c-10.605-16.315-60.773-64.851-61.384-64.851C268.317,55.503,259.956,66.311,259.344,67.331z"/>
	<path id="XMLID_48_" style="fill:#FFF9F3;stroke:#7A6959;stroke-linecap:round;stroke-linejoin:round;stroke-miterlimit:10;" d="
		M181.197,257.807c-5.301,4.969-9.939,16.896-2.982,20.209c0.994,7.951,12.258,4.969,11.595,3.975
		c-1.656-5.963,3.313-12.589,7.951-13.252c2.982-5.632-3.975-7.951-5.632-7.951C188.817,252.838,181.197,257.807,181.197,257.807z"
		/>
	<path id="XMLID_43_" style="fill:#E5B283;stroke:#AD7E4E;stroke-linecap:round;stroke-linejoin:round;stroke-miterlimit:10;" d="
		M288.866,308.163c16.564,27.166,46.38,70.565,46.38,70.565c10.933,4.969,15.902-6.294,15.902-6.294
		c-15.571-26.172-41.411-76.197-41.411-76.197L288.866,308.163z"/>
	<path id="XMLID_120_" style="fill:#FFF9F3;stroke:#7A6959;stroke-linecap:round;stroke-linejoin:round;stroke-miterlimit:10;" d="
		M184.324,267.294c-2.86,2.383-6.109,10.722-6.109,10.722"/>
	<path id="XMLID_40_" style="fill:#646D8E;stroke:#31364F;stroke-linecap:round;stroke-linejoin:round;stroke-miterlimit:10;" d="
		M269.983,237.93c-12.258,8.614-39.755,25.509-39.755,25.509c5.632,14.908,28.822,35.779,28.822,35.779
		c9.939-10.27,15.902-19.546,15.902-19.546l13.914,36.773c16.233-2.319,34.785-15.571,35.117-16.564
		c-8.282-17.558-17.89-35.117-17.89-35.117L269.983,237.93z"/>
	<path id="XMLID_15_" style="fill:#FFF9F3;stroke:#7A6959;stroke-linecap:round;stroke-linejoin:round;stroke-miterlimit:10;" d="
		M336.228,154.615c17.946,25.492,20.393,73.824-29.163,114.203c-18.558,3.059-46.497-31.202-47.109-38.748
		c22.229-20.597,32.63-32.833,32.63-32.833C273.62,177.864,336.228,154.615,336.228,154.615z"/>
	<path id="XMLID_17_" style="fill:#E5B283;stroke:#AD7E4E;stroke-linecap:round;stroke-linejoin:round;stroke-miterlimit:10;" d="
		M307.473,169.095c5.506,14.887,18.558,26.715,25.084,20.801c6.526-5.914,3.263-25.696,1.428-27.123
		S307.473,169.095,307.473,169.095z"/>
	<path id="XMLID_47_" style="fill:#FFF9F3;stroke:#7A6959;stroke-linecap:round;stroke-linejoin:round;stroke-miterlimit:10;" d="
		M343.86,386.679c-5.301,5.301-7.951-2.982-7.951-2.982c-10.27-2.982-5.275-12.694,0.949-16.779c6.298-4.133,13.12-5.632,14.777,0
		c4.307,3.313,8.789,4.853,6.47,8.828C355.787,379.722,343.86,386.679,343.86,386.679z"/>
	<path id="XMLID_8_" style="fill:#E5B283;stroke:#AD7E4E;stroke-linecap:round;stroke-linejoin:round;stroke-miterlimit:10;" d="
		M274.813,133.277c10.311-27.496,28.641-38.38,48.118-26.35c8.02,6.874,14.321,18.331,21.768,26.35s-0.573,29.214-13.175,34.943
		s-30.36,12.602-42.389,0.573C277.104,156.763,274.813,133.277,274.813,133.277z"/>
	<path id="XMLID_7_" style="fill:#824C23;stroke:#4C2C10;stroke-linecap:round;stroke-linejoin:round;stroke-miterlimit:10;" d="
		M267.366,126.975c-4.583-14.321,1.718-19.476,2.864-15.466c-0.573-16.039,8.02-15.466,9.165-3.437
		c1.146-19.476,8.02-13.748,8.02-13.748c5.728-17.758,8.02-10.884,7.447-2.864c11.457-21.195,23.486-13.175,14.894-1.146
		c18.331-8.02,20.622,10.311,7.447,17.185c-13.175,6.874-22.34,3.437-22.34,3.437l-14.894,20.622c0,0-2.291,21.768-4.01,20.622
		C274.24,151.034,267.366,126.975,267.366,126.975z"/>
	<path id="XMLID_10_" style="fill:#E5B283;stroke:#AD7E4E;stroke-linecap:round;stroke-linejoin:round;stroke-miterlimit:10;" d="
		M318.078,128.715c4.01,4.583,9.585,1.224,5.999,11.435"/>
	
		<ellipse id="XMLID_9_" transform="matrix(0.8011 -0.5986 0.5986 0.8011 -20.3528 206.7935)" style="fill:#231F20;stroke:#231F20;stroke-linecap:round;stroke-linejoin:round;stroke-miterlimit:10;" cx="300.947" cy="134.018" rx="1.224" ry="4.079"/>
	
		<ellipse id="XMLID_12_" transform="matrix(0.8011 -0.5986 0.5986 0.8011 -9.4614 217.9487)" style="fill:#231F20;stroke:#231F20;stroke-linecap:round;stroke-linejoin:round;stroke-miterlimit:10;" cx="323.176" cy="123.209" rx="1.224" ry="4.079"/>
	<path id="XMLID_13_" style="fill:none;stroke:#231F20;stroke-linecap:round;stroke-linejoin:round;stroke-miterlimit:10;" d="
		M297.072,119.131c-2.447,1.02-6.118,4.487-5.302,7.953"/>
	<path id="XMLID_21_" style="fill:#E5B283;stroke:#AD7E4E;stroke-linecap:round;stroke-linejoin:round;stroke-miterlimit:10;" d="
		M194.901,83.442c-0.408-7.138,2.039-9.381,8.157-7.75s6.526,7.342,6.526,7.342L194.901,83.442z"/>
	<path id="XMLID_11_" style="fill:none;stroke:#231F20;stroke-linecap:round;stroke-linejoin:round;stroke-miterlimit:10;" d="
		M313.999,112.401"/>
	<path id="XMLID_14_" style="fill:#C67761;stroke:#231F20;stroke-linecap:round;stroke-linejoin:round;stroke-miterlimit:10;" d="
		M333.169,137.077c-2.651,7.75-12.644,19.578-24.88,13.052c5.589,11.452,18.756,11.581,24.268,4.079
		C329.702,150.333,329.498,146.866,333.169,137.077z"/>
	<path id="XMLID_24_" style="fill:#896347;stroke:#513925;stroke-linecap:round;stroke-linejoin:round;stroke-miterlimit:10;" d="
		M108.433,127.9l199.244-86.876c3.059-0.204,3.875,2.855,1.835,4.079c-69.134,29.163-199.04,88.1-199.04,88.1
		C105.374,131.774,108.433,127.9,108.433,127.9z"/>
	<path id="XMLID_16_" style="fill:none;stroke:#231F20;stroke-linecap:round;stroke-linejoin:round;stroke-miterlimit:10;" d="
		M310.328,147.07c-2.855,2.447-3.671,6.118-3.671,6.118"/>
	<path id="XMLID_20_" style="fill:#E5B283;stroke:#AD7E4E;stroke-linecap:round;stroke-linejoin:round;stroke-miterlimit:10;" d="
		M297.888,199.481c-7.138-15.907-71.173-97.889-76.883-99.928c-13.664,0.612-21.209,6.73-22.433,6.526
		c-7.546-2.243-10.401-9.381-10.809-13.256c-0.408-3.875,3.059-13.868,6.118-12.032c3.059,1.835,5.098,3.059,5.098,3.059
		c3.467-4.69,12.848-5.098,18.966,0c6.118,5.098,9.381,6.934,9.381,6.934c27.123,16.315,86.264,95.237,86.264,95.237
		L297.888,199.481z"/>
	<path id="XMLID_25_" style="fill:none;stroke:#F8FEFF;stroke-linecap:round;stroke-linejoin:round;stroke-miterlimit:10;" d="
		M110.472,132.794c-1.428,18.966-12.236,31.814-19.578,36.708c-7.342,4.894-19.784,11.446-34.083,32.894
		c-10.328,15.492-6.209,78.933,54.592,75.248c48.69-2.951,34.54-33.478,49.428-57.543c14.887-24.064,33.662-33.469,41.208-51.823
		s-9.993-62.812-19.374-67.298"/>
	<path id="XMLID_27_" style="fill:none;stroke:#F8FEFF;stroke-linecap:round;stroke-linejoin:round;stroke-miterlimit:10;" d="
		M118.927,130.13c7.018,17.107,36.847,58.341,61.411,64.482"/>
	<path id="XMLID_28_" style="fill:none;stroke:#F8FEFF;stroke-linecap:round;stroke-linejoin:round;stroke-miterlimit:10;" d="
		M133.841,123.111c7.896,20.178,40.356,49.129,62.727,55.27"/>
	<path id="XMLID_18_" style="fill:#FFF9F3;stroke:#7A6959;stroke-linecap:round;stroke-linejoin:round;stroke-miterlimit:10;" d="
		M297.48,202.132l-24.064-24.064c0,0,6.526-11.42,19.782-22.025c10.605,8.157,19.578,23.656,24.064,31.61"/>
	<path id="XMLID_29_" style="fill:none;stroke:#F8FEFF;stroke-linecap:round;stroke-linejoin:round;stroke-miterlimit:10;" d="
		M152.265,114.338c17.107,22.371,36.847,34.654,51.761,39.04"/>
	<path id="XMLID_30_" style="fill:none;stroke:#F8FEFF;stroke-linecap:round;stroke-linejoin:round;stroke-miterlimit:10;" d="
		M169.372,106.443c10.089,16.669,29.39,23.687,29.39,23.687"/>
	<path id="XMLID_31_" style="fill:none;stroke:#F8FEFF;stroke-linecap:round;stroke-linejoin:round;stroke-miterlimit:10;" d="
		M106.206,150.747c6.58,34.654,43.865,53.954,60.534,58.341"/>
	<path id="XMLID_22_" style="fill:#E5B283;stroke:#AD7E4E;stroke-linecap:round;stroke-linejoin:round;stroke-miterlimit:10;" d="
		M268.521,52.24c-15.907,1.224-24.064,4.487-26.919,2.855s-7.342,11.216-1.428,16.519c5.914,5.302,10.809,2.855,10.605,2.243
		c2.039-2.447,15.091-5.302,18.354-8.769C272.396,61.621,269.133,52.24,268.521,52.24z"/>
	<path id="XMLID_32_" style="fill:none;stroke:#F8FEFF;stroke-linecap:round;stroke-linejoin:round;stroke-miterlimit:10;" d="
		M90.894,169.502c9.609,36.515,49.965,60.641,63.564,63.711"/>
	<path id="XMLID_33_" style="fill:none;stroke:#F8FEFF;stroke-linecap:round;stroke-linejoin:round;stroke-miterlimit:10;" d="
		M70.675,185.4c8.773,39.479,47.375,57.464,80.274,64.482"/>
	<path id="XMLID_34_" style="fill:none;stroke:#F8FEFF;stroke-linecap:round;stroke-linejoin:round;stroke-miterlimit:10;" d="
		M56.811,202.397c9.039,34.326,54.659,67.664,78.785,68.98"/>
	<path id="XMLID_35_" style="fill:none;stroke:#F8FEFF;stroke-linecap:round;stroke-linejoin:round;stroke-miterlimit:10;" d="
		M52.69,226.634c14.914,31.583,29.39,37.724,53.516,50.445"/>
	<path id="XMLID_36_" style="fill:none;stroke:#F8FEFF;stroke-linecap:round;stroke-linejoin:round;stroke-miterlimit:10;" d="
		M186.48,105.127c-17.546,16.23-73.694,49.129-87.292,56.586"/>
	<path id="XMLID_37_" style="fill:none;stroke:#F8FEFF;stroke-linecap:round;stroke-linejoin:round;stroke-miterlimit:10;" d="
		M74.623,181.891c25.003-0.439,72.378-18.862,120.191-62.289"/>
	<path id="XMLID_38_" style="fill:none;stroke:#F8FEFF;stroke-linecap:round;stroke-linejoin:round;stroke-miterlimit:10;" d="
		M54.006,208.649c8.773-7.457,29.39-8.334,40.356-11.405c10.966-3.071,48.624-15.752,65.798-25.881
		c17.107-10.089,39.917-32.46,40.795-33.776"/>
	<path id="XMLID_26_" style="fill:none;stroke:#F8FEFF;stroke-linecap:round;stroke-linejoin:round;stroke-miterlimit:10;" d="
		M192.182,182.768c-17.985,10.089-49.568,25.003-66.675,29.39s-62.727,14.037-69.746,27.635"/>
	<path id="XMLID_39_" style="fill:none;stroke:#F8FEFF;stroke-linecap:round;stroke-linejoin:round;stroke-miterlimit:10;" d="
		M66.727,261.287c8.773-14.476,35.092-26.319,63.605-30.706s29.39-8.334,29.39-8.334"/>
	<path id="XMLID_41_" style="fill:none;stroke:#F8FEFF;stroke-linecap:round;stroke-linejoin:round;stroke-miterlimit:10;" d="
		M81.641,273.57c13.16-17.985,61.85-28.074,70.623-30.267"/>
	<path id="XMLID_42_" style="fill:none;stroke:#F8FEFF;stroke-linecap:round;stroke-linejoin:round;stroke-miterlimit:10;" d="
		M96.556,277.518c11.405-11.405,47.375-17.985,51.322-17.985"/>
	
		<polyline id="XMLID_45_" style="fill:#646D8E;stroke:#31364F;stroke-linecap:round;stroke-linejoin:round;stroke-miterlimit:10;" points="
		289.86,280.666 277.271,276.359 274.29,280.998 	"/>
	<path id="XMLID_121_" style="fill:#4E63AF;stroke:#242A47;stroke-linecap:round;stroke-linejoin:round;stroke-miterlimit:10;" d="
		M338.883,385.215c2.04,8.076,9.111,15.152,9.111,15.152c13.339-7.315,44.316-28.236,44.252-35.398s-13.514-9.166-22.132-4.093
		c-8.618,5.073-13.71,7.095-19.864,11.434C344.096,376.648,338.883,385.215,338.883,385.215z"/>
	<path id="XMLID_78_" style="fill:#DBD8D5;stroke:#7A6959;stroke-linecap:round;stroke-linejoin:round;stroke-miterlimit:10;" d="
		M388.268,363.829c-8.448,0.957-19.904,16.513-23.265,19.853c-3.361,3.34-21.666,13.229-15.481,18.901
		c6.185,5.672,30.704-15.997,36.441-21.882C391.701,374.817,398.214,362.703,388.268,363.829z"/>
	
		<use xlink:href="#butterfly1"  width="66.135" height="52.015" id="XMLID_90_" x="-33.068" y="-26.007" transform="matrix(1 0 0 -1 460.7271 132.3059)" style="overflow:visible;"/>
	<path id="XMLID_106_" style="fill:#F4D037;stroke:#844C02;stroke-miterlimit:10;" d="M544.536,125.55
		c-2.253-8.973-2.759-12.722-0.496-15.639c2.264-2.918,11.154,1.964,6.022,18.328c7.395-2.243,10.588-1.452,10.304,1.586
		c-0.285,3.037-2.326,6.109-9.159,4.219c-3.416,9.462-8.247,11.813-6.29-2.137c-15.563-0.11-14.391-6.765-13.557-9.134
		s5.672-3.347,12.31,2.968C544.254,125.729,544.393,125.411,544.536,125.55z"/>
	
		<path id="XMLID_2_" style="fill:#231F20;stroke:#231F20;stroke-width:0.5382;stroke-linecap:round;stroke-linejoin:round;stroke-miterlimit:10;" d="
		M543.825,125.268c2.065,0.616,7.316,6.993,7.266,9.485C545.348,128.878,543.825,125.268,543.825,125.268z"/>
	
		<path id="XMLID_99_" style="fill:#FFDA71;stroke:#D3953C;stroke-width:1.098;stroke-linecap:round;stroke-linejoin:round;stroke-miterlimit:10;" d="
		M524.025,56.831c3.026-16.99,3.29-23.836-2.622-27.626c-5.912-3.791-25.198,9.886-9.45,35.523
		c-17.558,0.357-24.719,3.588-23.332,8.733c1.386,5.145,6.822,9.333,22.095,2.077c10.139,14.564,21.822,15.879,13.963-7.374
		c35.792-9.197,31.494-20.152,29.005-23.811c-2.489-3.659-13.86-2.568-27.618,12.311C524.716,56.982,524.318,56.506,524.025,56.831z
		"/>
	
		<path id="XMLID_97_" style="fill:#231F20;stroke:#231F20;stroke-width:1.098;stroke-linecap:round;stroke-linejoin:round;stroke-miterlimit:10;" d="
		M525.592,55.926c-4.604,2.271-15.155,16.457-14.441,20.785C522.955,63.118,525.592,55.926,525.592,55.926z"/>
</g>
</svg>
