<?xml version="1.0" encoding="utf-8"?>
<!-- Generator: Adobe Illustrator 19.0.0, SVG Export Plug-In . SVG Version: 6.00 Build 0)  -->
<!DOCTYPE svg PUBLIC "-//W3C//DTD SVG 1.1//EN" "http://www.w3.org/Graphics/SVG/1.1/DTD/svg11.dtd">
<svg version="1.1" id="Layer_1" xmlns="http://www.w3.org/2000/svg" xmlns:xlink="http://www.w3.org/1999/xlink" x="0px" y="0px"
	 width="648px" height="432px" viewBox="0 0 648 432" style="enable-background:new 0 0 648 432;" xml:space="preserve">
<g id="Layer_2">
	<rect id="XMLID_4_" style="fill:#C5E0EF;" width="648" height="327.219"/>
	<rect id="XMLID_1_" y="324.672" style="fill:#C7E29C;stroke:#516629;stroke-miterlimit:10;" width="648" height="107.328"/>
</g>
<g id="XMLID_142_">
	<path id="XMLID_54_" style="fill:#BCB380;stroke:#726B3B;stroke-linecap:round;stroke-linejoin:round;stroke-miterlimit:10;" d="
		M293.772,317.01C293.156,320.089,277.76,432,277.76,432h100.384l-8.622-112.527L293.772,317.01z"/>
	<path id="XMLID_57_" style="fill:#BCB380;stroke:#726B3B;stroke-linecap:round;stroke-linejoin:round;stroke-miterlimit:10;" d="
		M345.503,361.351c-3.695,3.079-10.469,9.238-10.469,9.238L330.107,432"/>
	<path id="XMLID_45_" style="fill:#D7EBF2;stroke:#5D6A6D;stroke-linecap:round;stroke-linejoin:round;stroke-miterlimit:10;" d="
		M327.353,173.565c-17.008,0-36.993,8.185-40.727,24.363s7.954,86.398,7.54,85.569c-2.074,17.423-3.319,39.41-3.319,39.41
		c31.113,16.179,71.352,18.253,82.138,4.148c2.904-98.317,4.563-83.797,4.563-83.797s22.401-4.563,30.698-20.327
		C383.356,177.713,358.051,172.32,327.353,173.565z"/>
	<path id="XMLID_51_" style="fill:#D1A180;stroke:#5B3A29;stroke-linecap:round;stroke-linejoin:round;stroke-miterlimit:10;" d="
		M405.252,229.171c7.811,16.598,10.928,61.365-15.622,68.832s-29.091-2.476-24.942-5.795c4.148-3.319,26.965-9.126,26.965-9.126
		l-9.833-39.754C381.82,243.328,397.752,239.063,405.252,229.171z"/>
	<path id="XMLID_41_" style="fill:#D1A180;stroke:#5B3A29;stroke-linecap:round;stroke-linejoin:round;stroke-miterlimit:10;" d="
		M322.79,164.853c0,1.245-0.83,19.497-0.83,19.497c16.179,17.838,29.454-0.415,29.454-0.415l-2.489-20.742L322.79,164.853z"/>
	<path id="XMLID_33_" style="fill:#D1A180;stroke:#5B3A29;stroke-linecap:round;stroke-linejoin:round;stroke-miterlimit:10;" d="
		M329.755,70.33c16.796,0.763,28.248,12.215,32.829,33.592c4.581,21.377,10.688,22.14,9.925,32.829
		c-0.763,10.688-4.581,29.775-29.775,34.356c-25.194,4.581-43.517-19.087-43.517-25.194c-17.56,3.817-28.248-21.377-7.635-24.431
		c-8.398-33.592,4.581-45.044,6.871-45.808C300.744,74.91,329.755,70.33,329.755,70.33z"/>
	<path id="XMLID_28_" style="fill:#A39248;stroke:#F2E7AD;stroke-linecap:round;stroke-linejoin:round;stroke-miterlimit:10;" d="
		M290.819,88.653c8.039,4.654,12.795,9.074,15.438,12.09c2.126,2.426,2.885,3.943,2.885,3.943c-7.635-4.581-8.398-1.527-8.398-1.527
		c2.29,6.871,3.817,17.56,3.817,17.56c-6.108-6.108-6.108-6.108-6.108-6.108c-1.527,10.688,0,17.56,0,17.56
		C281.657,119.955,281.657,94.76,290.819,88.653z"/>
	<path id="XMLID_36_" style="fill:#C6473E;stroke:#601C13;stroke-linecap:round;stroke-linejoin:round;stroke-miterlimit:10;" d="
		M321.357,67.276c-12.215,6.108-35.119,26.721-35.883,38.936c-15.269-56.496-19.85-71.002-19.85-71.002
		C277.077,41.318,321.357,67.276,321.357,67.276z"/>
	<path id="XMLID_34_" style="fill:#A39248;stroke:#F2E7AD;stroke-linecap:round;stroke-linejoin:round;stroke-miterlimit:10;" d="
		M302.271,82.545c7.635-20.613,30.538-26.721,30.538-26.721c-3.054,5.344-6.108,12.215-6.108,12.215
		c12.215-6.871,25.194-10.688,35.883-9.925c-9.925,9.162-12.979,12.215-12.979,12.215c15.269-1.527,21.377,12.215,21.377,12.215
		c-18.323,1.527-30.538-2.29-30.538-2.29c0.763,4.581,0.763,4.581,0.763,4.581C319.067,87.126,302.271,82.545,302.271,82.545z"/>
	<path id="XMLID_35_" style="fill:#FCDF90;stroke:#C49C37;stroke-linecap:round;stroke-linejoin:round;stroke-miterlimit:10;" d="
		M260.667,25.42c1.227-18.404,13.496-21.472,9.202-0.613c10.429-9.816,22.698,6.135,4.908,7.362c17.177,0.613,22.085,17.177,0,6.748
		c7.975,17.177,4.294,22.698-3.681,8.589c-4.908,17.791-12.269,16.564-9.816-0.613c-10.429,7.975-24.539,3.681-1.84-6.748
		c-17.177,1.227-30.06-9.202-1.227-6.135C242.876,20.512,242.263,10.697,260.667,25.42z"/>
	<path id="XMLID_38_" style="fill:none;stroke:#231F20;stroke-linecap:round;stroke-linejoin:round;stroke-miterlimit:10;" d="
		M313.663,103.872c2.074-4.563,7.882-9.126,12.03-7.882"/>
	<path id="XMLID_39_" style="fill:none;stroke:#231F20;stroke-linecap:round;stroke-linejoin:round;stroke-miterlimit:10;" d="
		M344.776,91.842c2.489-3.734,6.637-4.563,9.956-1.659"/>
	<path id="XMLID_40_" style="fill:none;stroke:#231F20;stroke-linecap:round;stroke-linejoin:round;stroke-miterlimit:10;" d="
		M345.191,116.317c8.297,2.904,7.467,7.052,6.637,10.786"/>
	
		<ellipse id="XMLID_37_" transform="matrix(0.9466 -0.3223 0.3223 0.9466 -20.165 111.2597)" style="fill:#231F20;stroke:#231F20;stroke-linecap:round;stroke-linejoin:round;stroke-miterlimit:10;" cx="325.901" cy="116.525" rx="1.452" ry="5.6"/>
	
		<ellipse id="XMLID_42_" transform="matrix(0.9466 -0.3223 0.3223 0.9466 -16.4982 120.1312)" style="fill:#231F20;stroke:#231F20;stroke-linecap:round;stroke-linejoin:round;stroke-miterlimit:10;" cx="354.525" cy="109.887" rx="1.452" ry="5.6"/>
	<path id="XMLID_43_" style="fill:none;stroke:#231F20;stroke-linecap:round;stroke-linejoin:round;stroke-miterlimit:10;" d="
		M328.183,137.889c13.69,4.148,24.89,4.978,31.943-2.489"/>
	<path id="XMLID_46_" style="fill:#D7EBF2;stroke:#5D6A6D;stroke-linecap:round;stroke-linejoin:round;stroke-miterlimit:10;" d="
		M366.763,200.115c7.052,11.201,9.541,33.187,9.541,33.187"/>
	<path id="XMLID_48_" style="fill:#D1A180;stroke:#5B3A29;stroke-linecap:round;stroke-linejoin:round;stroke-miterlimit:10;" d="
		M277.158,215.464c-8.297,7.882-24.061,56.418,24.061,71.352c17.423,2.074,19.083,1.659,19.083,1.659
		c28.624,16.594,60.566,3.319,61.396,0.415s-1.659-4.563-2.904-4.978c-1.245-0.415-71.352-8.297-71.352-8.297
		c-10.786-8.297-12.86-36.091-7.467-49.366C288.773,223.76,277.158,215.464,277.158,215.464z"/>
	
		<ellipse id="XMLID_44_" style="fill:#BF5858;stroke:#6D2424;stroke-linecap:round;stroke-linejoin:round;stroke-miterlimit:10;" cx="351.206" cy="274.785" rx="50.818" ry="12.445"/>
	<path id="XMLID_49_" style="fill:#D1A180;stroke:#5B3A29;stroke-linecap:round;stroke-linejoin:round;stroke-miterlimit:10;" d="
		M323.619,288.06c7.467-11.615,21.157-9.956,25.72-8.712c4.563,1.245,2.904,8.297-11.615,8.712"/>
	<path id="XMLID_50_" style="fill:#D1A180;stroke:#5B3A29;stroke-linecap:round;stroke-linejoin:round;stroke-miterlimit:10;" d="
		M398.705,281.008c-9.541-4.148-23.231-0.415-17.423,4.148c5.808,4.563,16.179,0.415,17.423-0.415"/>
	<path id="XMLID_53_" style="fill:#725041;stroke:#4F3325;stroke-linecap:round;stroke-linejoin:round;stroke-miterlimit:10;" d="
		M328.183,218.367c-1.245,14.519-2.904,48.121-2.904,49.366c0,1.245,18.668,7.052,18.668,7.052s10.786,0,12.445,0
		c1.659,0,29.039-2.074,29.039-2.074l3.319-47.706l-2.489-2.904L328.183,218.367z"/>
	
		<polygon id="XMLID_52_" style="fill:#DBC9A1;stroke:#4F3325;stroke-linecap:round;stroke-linejoin:round;stroke-miterlimit:10;" points="
		352.658,228.738 349.339,271.052 385.43,268.148 388.749,227.079 	"/>
	<path id="XMLID_55_" style="fill:#DBC9A1;stroke:#4F3325;stroke-linecap:round;stroke-linejoin:round;stroke-miterlimit:10;" d="
		M351.414,243.258c1.245,0,35.676-1.245,35.676-1.245"/>
	<path id="XMLID_47_" style="fill:#D7EBF2;stroke:#5D6A6D;stroke-linecap:round;stroke-linejoin:round;stroke-miterlimit:10;" d="
		M308.685,176.884c-20.327,6.223-27.794,20.327-39.41,45.217c15.764,17.008,32.772,15.349,32.772,15.349l6.223-14.519"/>
	<path id="XMLID_56_" style="fill:#DBC9A1;stroke:#4F3325;stroke-linecap:round;stroke-linejoin:round;stroke-miterlimit:10;" d="
		M350.584,257.777c1.245,0,35.676-1.245,35.676-1.245"/>
</g>
</svg>
