<?xml version="1.0" encoding="utf-8"?>
<!-- Generator: Adobe Illustrator 19.0.0, SVG Export Plug-In . SVG Version: 6.00 Build 0)  -->
<!DOCTYPE svg PUBLIC "-//W3C//DTD SVG 1.1//EN" "http://www.w3.org/Graphics/SVG/1.1/DTD/svg11.dtd">
<svg version="1.1" id="Layer_1" xmlns="http://www.w3.org/2000/svg" xmlns:xlink="http://www.w3.org/1999/xlink" x="0px" y="0px"
	 width="648px" height="432px" viewBox="0 0 648 432" style="enable-background:new 0 0 648 432;" xml:space="preserve">
<symbol  id="candle" viewBox="-2.415 -13.934 4.83 27.868">
	<path id="XMLID_13_" style="fill:#DB82C4;stroke:#87356E;stroke-linecap:round;stroke-linejoin:round;stroke-miterlimit:10;" d="
		M0-13.434L0-13.434c-1.053,0-1.915,0.862-1.915,1.915v23.038c0,1.053,0.862,1.915,1.915,1.915l0,0c1.053,0,1.915-0.862,1.915-1.915
		v-23.038C1.915-12.573,1.053-13.434,0-13.434z"/>
</symbol>
<g id="Layer_2">
	<rect id="XMLID_1_" style="fill:#CBE6EF;" width="648" height="432"/>
	<rect id="XMLID_2_" y="284.459" style="fill:#D4D8D0;stroke:#797C75;stroke-miterlimit:10;" width="648" height="147.541"/>
	<path id="XMLID_12_" style="fill:#211F1F;stroke:#5E5A5B;stroke-linecap:round;stroke-linejoin:round;stroke-miterlimit:10;" d="
		M337.21,367.811c-9.94,12.839-9.526,19.052-9.526,19.052c22.365,20.709,39.76,22.779,48.458,16.981s-23.608-9.94-26.507-26.093
		C346.322,369.881,337.21,367.811,337.21,367.811z"/>
	<path id="XMLID_11_" style="fill:#664639;stroke:#422A1F;stroke-linecap:round;stroke-linejoin:round;stroke-miterlimit:10;" d="
		M357.504,365.325c1.657-6.213,31.477-45.145,36.861-55.499c5.385-10.354-11.596-20.708-11.596-20.708
		c-19.052,24.022-45.559,74.551-49.701,82.834c11.597,11.597,18.841,13.483,18.66,9.669c-0.237-4.984,5.459-15.902,5.459-15.902
		L357.504,365.325z"/>
	<path id="XMLID_10_" style="fill:#664639;stroke:#422A1F;stroke-linecap:round;stroke-linejoin:round;stroke-miterlimit:10;" d="
		M360.818,203.385c-4.142,12.839-4.556,37.275-4.556,37.275c7.041,36.447,67.924,156.142,74.551,163.183
		c13.668-2.899,13.253-9.94,14.91-15.738s24.022-9.94,7.869-12.425s-20.709-8.698-20.709-8.698
		c-17.395-44.316-26.507-73.308-26.507-73.308c14.91-41.831,17.809-84.905,17.395-88.218
		C422.529,195.515,360.818,203.385,360.818,203.385z"/>
	<path id="XMLID_9_" style="fill:#664639;stroke:#422A1F;stroke-linecap:round;stroke-linejoin:round;stroke-miterlimit:10;" d="
		M405.962,234.862c-9.112,4.142-14.91,9.94-14.91,9.94c13.253,43.074,15.324,48.872,15.324,48.872"/>
	<path id="XMLID_51_" style="fill:#B27F62;stroke:#774428;stroke-linecap:round;stroke-linejoin:round;stroke-miterlimit:10;" d="
		M429.146,137.96c11.005,32.772,15.652,48.179,33.016,64.565c10.272,8.071,13.451,25.924,10.027,33.261
		c-3.424,7.337-13.696,9.783-14.674-4.402c-6.114-10.516-5.38-17.364-4.891-21.277c-22.745-17.609-35.951-40.353-36.685-43.043
		C415.206,164.373,414.228,133.313,429.146,137.96z"/>
	<path id="XMLID_8_" style="fill:#211F1F;stroke:#5E5A5B;stroke-linecap:round;stroke-linejoin:round;stroke-miterlimit:10;" d="
		M446.439,382.533c6.747-7.527,6.689-13.736,19.339-22.361c9.143-6.234,8.608,16.638,1.209,25.383
		c-9.112,10.768-14.749,16.046-20.961,18.531c-4.247,1.699-18.527,4.313-15.213-0.243
		C434.126,399.288,446.439,382.533,446.439,382.533z"/>
	<path id="XMLID_52_" style="fill:#B27F62;stroke:#774428;stroke-linecap:round;stroke-linejoin:round;stroke-miterlimit:10;" d="
		M460.94,209.862c3.179,5.87,1.712,15.897,6.848,15.408s6.359-5.87,1.467-14.185"/>
	<path id="XMLID_43_" style="fill:#EDF7F9;stroke:#889799;stroke-linecap:round;stroke-linejoin:round;stroke-miterlimit:10;" d="
		M382.985,95.392c-13.644,3.941-24.176,10.351-24.176,10.351c7.58,39.415,4.469,85.76-1.595,102.132
		c42.75,16.675,68.218,3.032,68.218,3.032c-1.516-75.191-2.729-62.457-2.729-62.457c6.064-1.213,10.005-11.521,10.005-11.521
		C418.458,103.578,414.517,97.211,382.985,95.392z"/>
	<path id="XMLID_55_" style="fill:#B27F62;stroke:#774428;stroke-linecap:round;stroke-linejoin:round;stroke-miterlimit:10;" d="
		M289.744,240.677c11.984-7.826,37.418-32.283,38.886-32.772c4.402-0.978,9.293,11.984,9.293,11.984l-40.109,34.973L289.744,240.677
		z"/>
	<path id="XMLID_7_" style="fill:#72593B;stroke:#352816;stroke-linecap:round;stroke-linejoin:round;stroke-miterlimit:10;" d="
		M201.212,353.422c-5.625-3.668-8.315-1.467-10.516,1.223s-21.96,21.637-11.495,28.614c3.668,2.446,9.538-9.783,23.234-21.522
		C200.723,356.356,201.212,353.422,201.212,353.422z"/>
	<path id="XMLID_48_" style="fill:#B27F62;stroke:#774428;stroke-linecap:round;stroke-linejoin:round;stroke-miterlimit:10;" d="
		M341.837,130.623c-14.429,13.94-32.527,50.136-14.185,80.217c5.38,3.913-1.957,17.12,1.712,23.723
		c3.668,6.603,15.163,3.424,14.674-12.228s-5.87-15.408-5.87-15.408c-2.69-17.364-2.201-37.418,16.141-58.94
		C344.771,133.069,341.837,130.623,341.837,130.623z"/>
	<path id="XMLID_49_" style="fill:#EDF7F9;stroke:#889799;stroke-linecap:round;stroke-linejoin:round;stroke-miterlimit:10;" d="
		M370.251,99.94c-17.888,6.064-29.409,26.377-35.17,33.351c4.548,13.644,20.92,19.707,20.92,19.707
		c6.064-10.308,13.34-21.223,13.34-21.223"/>
	<path id="XMLID_50_" style="fill:#EDF7F9;stroke:#889799;stroke-linecap:round;stroke-linejoin:round;stroke-miterlimit:10;" d="
		M417.652,124.509c2.69,7.337,5.051,23.941,5.051,23.941"/>
	<path id="XMLID_54_" style="fill:#B27F62;stroke:#774428;stroke-linecap:round;stroke-linejoin:round;stroke-miterlimit:10;" d="
		M339.391,204.726c6.654-1.775,10.272,12.228,8.315,15.897c-1.957,3.668-6.114,6.359-8.315,1.712
		C337.19,217.688,335.722,205.704,339.391,204.726z"/>
	<path id="XMLID_69_" style="fill:#B27F62;stroke:#774428;stroke-linecap:round;stroke-linejoin:round;stroke-miterlimit:10;" d="
		M217.109,346.574c-6.603,4.158-19.076,5.38-19.076,5.38c-1.712,4.158,0.245,10.272,2.69,11.739
		c7.337,1.467,22.011-3.424,22.011-3.424L217.109,346.574z"/>
	<path id="XMLID_6_" style="fill:#B27F62;stroke:#774428;stroke-linecap:round;stroke-linejoin:round;stroke-miterlimit:10;" d="
		M274.581,365.894c14.918,32.038,25.435,51.114,25.435,51.114c9.538-5.38,10.516-12.717,10.516-12.717
		c-18.342-40.598-18.098-46.223-18.098-46.223L274.581,365.894z"/>
	<path id="XMLID_5_" style="fill:#72593B;stroke:#352816;stroke-linecap:round;stroke-linejoin:round;stroke-miterlimit:10;" d="
		M296.936,411.162c-1.343,3.615,0.224,5.825,3.582,6.628s25.072-17.273,21.714-30.529
		C320.888,380.031,311.71,386.659,296.936,411.162z"/>
	<path id="XMLID_53_" style="fill:#B27F62;stroke:#774428;stroke-linecap:round;stroke-linejoin:round;stroke-miterlimit:10;" d="
		M325.451,213.041c4.891-2.69,9.538-0.245,8.56,5.136c-1.467,5.136-6.603,1.712-6.603-2.69"/>
	<path id="XMLID_4_" style="fill:#B29C77;stroke:#44361D;stroke-linecap:round;stroke-linejoin:round;stroke-miterlimit:10;" d="
		M244.011,315.759c-4.158,8.071-12.962,20.299-12.962,20.299c-3.424,1.957-20.788,7.582-20.788,7.582
		c0.245,11.005,11.005,23.234,11.005,23.234c15.897-2.69,23.723-7.092,25.924-8.56s11.984-14.185,11.984-14.185
		s1.957,0.489,2.69,0.245c5.625,14.185,11.984,27.636,11.984,27.636c12.473,0.245,23.478-11.984,23.478-11.984
		c-4.891-13.94-13.94-39.13-14.918-39.619C281.429,319.916,244.011,315.759,244.011,315.759z"/>
	<path id="XMLID_61_" style="fill:#B27F62;stroke:#774428;stroke-linecap:round;stroke-linejoin:round;stroke-miterlimit:10;" d="
		M236.918,262.688c-18.831,10.516-39.619,17.12-39.619,17.12c-15.652-5.38-29.851,1.153-27.65,4.822
		c2.201,3.668,15.181,3.972,19.339,5.439s9.54,1.338,10.274,0.604c14.918,0.245,44.015-14.778,44.993-16.001
		C245.233,273.449,236.918,262.688,236.918,262.688z"/>
	<path id="XMLID_58_" style="fill:#351F16;stroke:#825E4E;stroke-linecap:round;stroke-linejoin:round;stroke-miterlimit:10;" d="
		M241.32,219.889c-11.25,9.293-21.522-1.957-16.141-14.674c-8.56-8.315,0.734-16.386,4.647-15.163
		c-6.848-18.098,20.543-27.636,22.745-14.674c10.272-20.788,27.636-5.38,23.723,2.201c10.027-3.424,12.228,9.538,8.071,12.473
		c11.25-1.957-1.957,15.897-1.957,15.897L241.32,219.889z"/>
	<path id="XMLID_66_" style="fill:#9FC99F;stroke:#4A754C;stroke-linecap:round;stroke-linejoin:round;stroke-miterlimit:10;" d="
		M264.799,246.302c-10.761,0.245-11.739,5.38-15.652,8.804c-3.913,3.424,4.402,30.081-0.245,40.842
		c-4.647,10.761-8.56,19.565-8.56,19.565c14.674,14.185,32.527,16.875,43.533,8.315c14.429-27.147,10.027-58.206,8.071-60.407
		c6.603-4.402,15.652-9.049,15.652-9.049c-5.87-12.473-13.696-20.299-13.696-20.299c-5.625,5.87-11.25,8.804-16.875,9.783
		S264.799,246.302,264.799,246.302z"/>
	<path id="XMLID_3_" style="fill:#B29C77;stroke:#44361D;stroke-linecap:round;stroke-linejoin:round;stroke-miterlimit:10;" d="
		M268.467,344.128c-3.913,0.245-6.603,0.245-6.603,0.245"/>
	<path id="XMLID_68_" style="fill:#B27F62;stroke:#774428;stroke-linecap:round;stroke-linejoin:round;stroke-miterlimit:10;" d="
		M195.587,282.498c-9.538-4.891-14.918-2.201-11.739-0.734s8.315,2.935,8.315,2.935"/>
	<path id="XMLID_57_" style="fill:#B27F62;stroke:#774428;stroke-linecap:round;stroke-linejoin:round;stroke-miterlimit:10;" d="
		M261.864,249.971c0.489-5.38,0.734-12.717,0.734-12.717c4.891-2.69,12.473-1.467,12.473-1.467v14.674
		C271.891,255.84,261.864,249.971,261.864,249.971z"/>
	<path id="XMLID_56_" style="fill:#B27F62;stroke:#774428;stroke-linecap:round;stroke-linejoin:round;stroke-miterlimit:10;" d="
		M242.299,215.976c-9.783-1.712-10.027,18.831,4.402,12.962c12.228,23.234,49.647,7.582,42.554-15.163s-19.076-29.103-33.261-25.19
		C241.565,193.476,240.342,202.77,242.299,215.976z"/>
	<path id="XMLID_40_" style="fill:#B27F62;stroke:#774428;stroke-linecap:round;stroke-linejoin:round;stroke-miterlimit:10;" d="
		M377.593,104.116c0.336-1.682,1.682-29.941,1.682-29.941c6.728,2.018,22.876,7.401,22.54,8.41
		c-0.336,1.009,1.009,23.213,1.009,23.213C408.206,118.245,383.648,115.217,377.593,104.116z"/>
	<path id="XMLID_60_" style="fill:#B27F62;stroke:#774428;stroke-linecap:round;stroke-linejoin:round;stroke-miterlimit:10;" d="
		M274.826,213.53c0.978,1.957,0,4.402-0.734,5.38"/>
	
		<ellipse id="XMLID_59_" transform="matrix(-0.3217 -0.9468 0.9468 -0.3217 143.7979 530.3156)" style="fill:#231F20;stroke:#231F20;stroke-linecap:round;stroke-linejoin:round;stroke-miterlimit:10;" cx="261.85" cy="213.651" rx="3.302" ry="0.734"/>
	
		<ellipse id="XMLID_62_" transform="matrix(-0.3217 -0.9468 0.9468 -0.3217 171.292 536.3166)" style="fill:#231F20;stroke:#231F20;stroke-linecap:round;stroke-linejoin:round;stroke-miterlimit:10;" cx="277.747" cy="206.804" rx="3.302" ry="0.734"/>
	<path id="XMLID_67_" style="fill:#9FC99F;stroke:#4A754C;stroke-linecap:round;stroke-linejoin:round;stroke-miterlimit:10;" d="
		M257.217,249.237c-11.005,3.913-13.94,5.38-26.658,15.163c4.402,13.94,12.717,14.674,12.717,14.674
		c3.179-2.69,11.984-9.293,11.984-9.293"/>
	<path id="XMLID_63_" style="fill:none;stroke:#231F20;stroke-linecap:round;stroke-linejoin:round;stroke-miterlimit:10;" d="
		M258.929,202.036c-4.158-0.245-5.38,3.668-5.136,5.38"/>
	<path id="XMLID_64_" style="fill:none;stroke:#231F20;stroke-linecap:round;stroke-linejoin:round;stroke-miterlimit:10;" d="
		M272.869,197.634c1.467-1.957,4.402-1.957,5.625-0.734"/>
	<path id="XMLID_65_" style="fill:none;stroke:#231F20;stroke-linecap:round;stroke-linejoin:round;stroke-miterlimit:10;" d="
		M266.021,226.003c4.402,2.446,9.049,1.712,13.206-1.223"/>
	<path id="XMLID_38_" style="fill:#B27F62;stroke:#774428;stroke-linecap:round;stroke-linejoin:round;stroke-miterlimit:10;" d="
		M375.238,63.073c-1.009,14.802,9.42,29.941,29.604,32.296c13.793,1.346,25.568-22.203,22.876-46.425
		c1.682-16.821-44.07-34.651-51.471,4.037"/>
	<path id="XMLID_37_" style="fill:#B27F62;stroke:#774428;stroke-linecap:round;stroke-linejoin:round;stroke-miterlimit:10;" d="
		M377.593,55.335c-7.401-11.438-11.438-5.719-12.111,1.346s7.738,14.466,14.129,9.756"/>
	<path id="XMLID_39_" style="fill:#351F16;stroke:#825E4E;stroke-linecap:round;stroke-linejoin:round;stroke-miterlimit:10;" d="
		M374.901,52.644c-5.383-12.784-5.046-34.651,2.355-21.531c3.364-17.494,11.775-12.447,11.775-12.447
		c5.719-18.503,28.259-11.775,21.867-0.336c12.784-8.41,24.558,1.346,13.457,9.083c16.821,6.728,15.139,11.775,7.401,14.466
		c6.055,5.719,0.673,9.756-3.701,10.429c-3.028-4.037-2.691-11.438-2.691-11.438c-2.018,2.355-9.42-3.028-9.756-6.055
		c-1.009,2.691-11.438,3.364-13.457-2.691c-3.701,8.074-9.756,7.738-12.784,4.037c0,7.738-6.728,10.092-6.728,10.092
		c-0.673,1.009-0.673,12.111-0.673,12.111L374.901,52.644z"/>
	<path id="XMLID_42_" style="fill:#B27F62;stroke:#774428;stroke-linecap:round;stroke-linejoin:round;stroke-miterlimit:10;" d="
		M413.724,69.114c0.673,4.71-4.019,6.116-6.864,5.061"/>
	
		<ellipse id="XMLID_41_" transform="matrix(0.0462 -0.9989 0.9989 0.0462 321.3824 456.8155)" style="fill:#231F20;stroke:#231F20;stroke-linecap:round;stroke-linejoin:round;stroke-miterlimit:10;" cx="399.907" cy="60.113" rx="3.582" ry="1.048"/>
	
		<ellipse id="XMLID_44_" transform="matrix(0.0462 -0.9989 0.9989 0.0462 337.3435 475.2777)" style="fill:#231F20;stroke:#231F20;stroke-linecap:round;stroke-linejoin:round;stroke-miterlimit:10;" cx="417.556" cy="60.986" rx="3.582" ry="1.048"/>
	<path id="XMLID_45_" style="fill:none;stroke:#231F20;stroke-linecap:round;stroke-linejoin:round;stroke-miterlimit:10;" d="
		M398.347,78.026c5.068,8.038,14.504,5.417,15.203,5.242"/>
	<path id="XMLID_46_" style="fill:none;stroke:#231F20;stroke-linecap:round;stroke-linejoin:round;stroke-miterlimit:10;" d="
		M404.638,47.446c-4.194-0.874-7.514,3.32-7.514,3.32"/>
	<path id="XMLID_47_" style="fill:none;stroke:#231F20;stroke-linecap:round;stroke-linejoin:round;stroke-miterlimit:10;" d="
		M417.219,48.494c4.543-1.223,5.767,3.844,5.767,3.844"/>
</g>
<g id="Layer_1_1_" style="display:none;">
	
		<path id="XMLID_91_" style="display:inline;fill:#F7F3E8;stroke:#7F7B70;stroke-linecap:round;stroke-linejoin:round;stroke-miterlimit:10;" d="
		M235.164,218.175c-18.779,3.706-26.512,7.196-26.891,8.332c-0.379,1.136,2.272,96.581,2.272,96.581
		c48.48,8.711,81.81,9.847,81.81,9.847l-3.03-116.276C259.026,211.736,235.164,218.175,235.164,218.175z"/>
	
		<path id="XMLID_78_" style="display:inline;fill:#BF5A32;stroke:#F29E75;stroke-linecap:round;stroke-linejoin:round;stroke-miterlimit:10;" d="
		M255.601,194.455c-15.711-7.856-26.78,9.998-26.78,9.998c10.712-3.571,16.425-2.499,16.425-2.499
		c-11.069,3.571-11.184,12.614-6.542,27.611c7.856-10.712,17.254-16.185,17.254-16.185c0.357,3.214,7.856,13.926,7.856,13.926
		s16.6-4.737,16.6-6.522S287,206.515,287,206.515L255.601,194.455z"/>
	
		<path id="XMLID_74_" style="display:inline;fill:#F4CBA8;stroke:#663019;stroke-linecap:round;stroke-linejoin:round;stroke-miterlimit:10;" d="
		M254.503,228.376c-17.854,17.496-34.459,42.165-14.336,50.946c5.356-1.785,8.623-16.311,8.623-16.311
		c0.714-8.57,17.496-22.138,17.854-23.567C267.001,238.017,254.503,228.376,254.503,228.376z"/>
	
		<path id="XMLID_93_" style="display:inline;fill:#FCB6D2;stroke:#9E4764;stroke-linecap:round;stroke-linejoin:round;stroke-miterlimit:10;" d="
		M253.344,154.924c-9.847-28.785-9.09-60.6-9.09-60.6c35.981,22.725,42.041,38.254,42.041,38.254L253.344,154.924z"/>
	
		<path id="XMLID_76_" style="display:inline;fill:#F4CBA8;stroke:#663019;stroke-linecap:round;stroke-linejoin:round;stroke-miterlimit:10;" d="
		M330.202,227.305c18.568,12.497,31.779,32.85,21.424,46.062c-4.642,6.07-17.854-15.711-17.854-15.711l-14.64-20.71L330.202,227.305
		z"/>
	
		<path id="XMLID_79_" style="display:inline;fill:#BF5A32;stroke:#F29E75;stroke-linecap:round;stroke-linejoin:round;stroke-miterlimit:10;" d="
		M317.731,196.24c13.212-4.285,28.566,4.999,26.066,17.139c-5.356-5.713-10.355-7.856-10.355-7.856
		c10.712,9.641,7.141,19.639,7.141,19.639c-10.355-8.213-13.926-11.069-13.926-11.069c2.499,8.213-10.355,24.638-10.712,23.21
		c-0.357-1.428-16.068-17.496-16.068-17.496l2.5-15.354L317.731,196.24z"/>
	
		<path id="XMLID_92_" style="display:inline;fill:#EACB7D;stroke:#FFF5D7;stroke-linecap:round;stroke-linejoin:round;stroke-miterlimit:10;" d="
		M240.088,86.37c-1.894-3.787-6.06-12.12-6.06-12.12s3.787-6.06,4.924-1.136s4.166,10.605,4.166,10.605l-0.379-7.575
		c0,0,5.302-0.757,4.924,0.379s-1.136,8.332-1.136,8.332s4.545-14.014,5.681-12.877c1.136,1.136,4.924,6.439,4.924,6.439
		s-6.817,7.575-6.817,8.711s8.711,0,8.711,0s0.379,4.924-0.379,6.06c-0.757,1.136-4.924-0.379-4.924-0.379l-1.894-1.136l5.302,8.711
		c0,0-5.302,6.817-5.681,5.302s-3.787-6.817-3.787-6.817l0.757,7.196c0,0-5.681,0.379-6.817,1.136s-0.379-9.09-0.379-9.09
		l-5.302,7.575l-4.545-5.681l6.817-5.681l-9.09-3.787l6.439-0.757c0,0,5.302,3.03,4.166,1.136s-9.09-9.09-9.09-9.09L240.088,86.37z"
		/>
	
		<path id="XMLID_73_" style="display:inline;fill:#E87EA4;stroke:#753245;stroke-linecap:round;stroke-linejoin:round;stroke-miterlimit:10;" d="
		M283.783,220.521c-19.996-11.426-35.707,8.213-36.421,10.355c13.569,12.855,19.996,15.354,19.996,15.354
		c-2.857,52.132-0.357,72.842-0.357,72.842c36.778,9.284,50.291,0.698,50.291,0.698c6.784-43.92,1.842-75.683,1.842-75.683
		c9.284-8.927,16.782-14.283,16.782-14.283c-22.852-15.354-26.423-15.711-33.565-8.57
		C292.71,222.663,283.783,220.521,283.783,220.521z"/>
	
		<path id="XMLID_71_" style="display:inline;fill:#F4CBA8;stroke:#663019;stroke-linecap:round;stroke-linejoin:round;stroke-miterlimit:10;" d="
		M281.64,227.305c-0.357-4.999,0.357-15.354,0.357-15.354c4.285-2.499,20.71-1.785,20.71,0s0.714,16.425,0.357,17.854
		C302.708,231.233,285.925,243.373,281.64,227.305z"/>
	
		<path id="XMLID_75_" style="display:inline;fill:#F4CBA8;stroke:#663019;stroke-linecap:round;stroke-linejoin:round;stroke-miterlimit:10;" d="
		M244.505,252.657c1.071,13.569,14.283,5.713,22.853-9.284c7.498-13.212,11.783-19.639,18.211-17.496s20.353,12.14,7.141,19.282
		c-2.308-0.571-4.285-4.285-4.285-4.285c-4.999,13.212-14.64,11.069-17.496,9.641c-4.642,32.136-25.797,36.35-36.615,25.149"/>
	
		<path id="XMLID_83_" style="display:inline;fill:#F4CBA8;stroke:#663019;stroke-linecap:round;stroke-linejoin:round;stroke-miterlimit:10;" d="
		M343.907,262.423c-8.506-5.762-15.366-16.738-15.366-16.738c-3.567-15.091-16.738-23.872-22.5-12.347s0.549,12.347,4.665,10.976
		c-0.274,4.39,8.78,11.524,13.994,9.878c12.347,30.731,24.146,23.049,27.988,17.835"/>
	
		<path id="XMLID_77_" style="display:inline;fill:#BF5A32;stroke:#F29E75;stroke-linecap:round;stroke-linejoin:round;stroke-miterlimit:10;" d="
		M253.075,148.035c-15.354,16.425-10.355,58.56,23.567,60.702c32.136,2.499,44.277-53.203,44.277-53.203"/>
	
		<path id="XMLID_70_" style="display:inline;fill:#F4CBA8;stroke:#663019;stroke-linecap:round;stroke-linejoin:round;stroke-miterlimit:10;" d="
		M323.602,160.077c5.755,30.893-11.49,57.267-28.536,58.445c-15.565,1.075-37.706-16.568-35.921-39.421
		c1.785-22.852,6.427-31.779,11.783-34.993C276.284,140.894,316.818,123.655,323.602,160.077z"/>
	
		<path id="XMLID_72_" style="display:inline;fill:#BF5A32;stroke:#F29E75;stroke-linecap:round;stroke-linejoin:round;stroke-miterlimit:10;" d="
		M254.86,158.033c0.357,13.212,9.998,18.211,13.569,19.996c-3.571-9.641,6.07-25.352,6.07-25.352
		c-1.785,4.642-1.428,14.64-1.428,14.64c2.857-3.928,12.14-18.568,12.14-18.568c3.571,10.355,12.855,19.282,12.855,19.282
		c-1.428-15.711-3.571-22.495-3.571-22.495c9.641,2.857,22.138,18.211,22.138,18.211c0-9.284-1.428-11.069-1.428-11.069
		c4.999,7.498,11.426,23.21,14.64,27.137c0.357-12.14-1.071-18.211-1.071-18.211c5.713,8.927,4.999,17.496,4.999,17.496
		c10.355-21.067-1.428-35.707-12.14-43.205c7.498,0.357,9.998,1.785,9.998,1.785c-19.996-18.211-49.276-14.997-64.273,1.785
		c-8.57-1.428-14.64,8.927-14.64,8.927"/>
	
		<path id="XMLID_80_" style="display:inline;fill:#F4CBA8;stroke:#663019;stroke-linecap:round;stroke-linejoin:round;stroke-miterlimit:10;" d="
		M262.359,175.887c-8.57-13.926-15.149-6.545-12.292,2.025c2.857,8.57,9.793,9.044,13.364,6.545"/>
	
		<path id="XMLID_81_" style="display:inline;fill:#F4CBA8;stroke:#663019;stroke-linecap:round;stroke-linejoin:round;stroke-miterlimit:10;" d="
		M297.709,176.244c-0.714,7.498,1.071,8.927,2.142,11.426s-2.499,5.713-2.499,5.713"/>
	
		<ellipse id="XMLID_82_" transform="matrix(0.133 -0.9911 0.9911 0.133 67.5241 433.854)" style="display:inline;fill:#231F20;stroke:#231F20;stroke-linecap:round;stroke-linejoin:round;stroke-miterlimit:10;" cx="281.744" cy="178.332" rx="5.076" ry="1.115"/>
	
		<ellipse id="XMLID_84_" transform="matrix(0.133 -0.9911 0.9911 0.133 88.5932 459.5876)" style="display:inline;fill:#231F20;stroke:#231F20;stroke-linecap:round;stroke-linejoin:round;stroke-miterlimit:10;" cx="306.987" cy="179.156" rx="5.076" ry="1.115"/>
	
		<path id="XMLID_85_" style="display:inline;fill:#6B4234;stroke:#231F20;stroke-linecap:round;stroke-linejoin:round;stroke-miterlimit:10;" d="
		M281.072,196.021c-0.823,10.152,4.39,18.933,16.463,16.189c1.372-9.055,3.841-12.622,3.841-12.622
		C287.657,202.058,281.072,196.021,281.072,196.021z"/>
	
		<path id="XMLID_86_" style="display:inline;fill:none;stroke:#231F20;stroke-linecap:round;stroke-linejoin:round;stroke-miterlimit:10;" d="
		M305.767,197.668c-2.195,1.646-4.39,1.921-4.39,1.921"/>
	
		<path id="XMLID_87_" style="display:inline;fill:none;stroke:#231F20;stroke-linecap:round;stroke-linejoin:round;stroke-miterlimit:10;" d="
		M277.779,197.942c1.646-1.921,6.311-3.567,6.311-3.567"/>
	
		<path id="XMLID_88_" style="display:inline;fill:none;stroke:#231F20;stroke-linecap:round;stroke-linejoin:round;stroke-miterlimit:10;" d="
		M277.779,166.936c1.372-2.195,5.762-3.567,8.78-2.469"/>
	
		<path id="XMLID_89_" style="display:inline;fill:none;stroke:#231F20;stroke-linecap:round;stroke-linejoin:round;stroke-miterlimit:10;" d="
		M306.316,165.29c2.744-2.195,6.037,0.823,7.408,2.469"/>
	
		<path id="XMLID_90_" style="display:inline;fill:#CC8971;stroke:#CC8971;stroke-linecap:round;stroke-linejoin:round;stroke-miterlimit:10;" d="
		M283.542,205.625c5.488-3.841,11.25,1.646,10.152,5.762c-7.408,0.823-9.604-4.665-9.604-4.665"/>
	
		<path id="XMLID_103_" style="display:inline;fill:#EF8F41;stroke:#9B612C;stroke-linecap:round;stroke-linejoin:round;stroke-miterlimit:10;" d="
		M391.796,38.754c-15.103,6.663-23.099,16.88-14.659,24.432s21.767,16.88,15.992,26.209s-37.314,8.884-32.872,27.097
		c0.888,5.775,16.88,11.994,0.444,23.099c6.219,0.444,8.44-1.777,8.44-1.777l-0.444,7.552c11.55-11.55,7.107-22.211,1.333-28.43
		s1.333-13.327,18.213-16.436c16.88-3.11,15.548-14.659,11.994-22.655s-21.767-17.769-18.213-24.432s16.436-7.996,16.436-7.996
		l-9.329-0.888L391.796,38.754z"/>
	
		<path id="XMLID_152_" style="display:inline;fill:#F2DD46;stroke:#FFF19F;stroke-linecap:round;stroke-linejoin:round;stroke-miterlimit:10;" d="
		M242.286,7.835c-5.046,6.117-6.365,11.56-1.266,11.859s12.625-0.085,12.067,4.489s-13.997,12.614-8.436,17.464
		c1.543,1.673,9.569-0.428,4.857,7.499c2.722-1.468,3.213-2.776,3.213-2.776l1.339,2.605c2.554-6.805-1.482-9.166-5.183-9.718
		c-3.701-0.551-2.13-4.739,4.386-10.145s3.617-8.868,0.497-10.581c-3.12-1.713-12.805-0.208-12.648-3.326
		c0.157-3.119,5.34-6.902,5.34-6.902l-4.128,2.128L242.286,7.835z"/>
	<g id="XMLID_124_" style="display:inline;">
		<path id="XMLID_107_" style="fill:#BC7FD6;stroke:#9766B2;stroke-linecap:round;stroke-linejoin:round;stroke-miterlimit:10;" d="
			M205.506,110.455c-0.969,8.399-14.214,10.984-12.276,20.029s8.399,8.076,15.829,6.784c-1.938-1.292-3.877-2.584-3.877-2.584
			l4.846-5.492c-6.784,1.615-14.537,3.23-11.307-3.23c3.23-6.461,8.837-3.772,9.483-10.233
			C208.851,109.267,205.506,110.455,205.506,110.455z"/>
		<path id="XMLID_104_" style="fill:#E38FFF;stroke:#AC5ECC;stroke-linecap:round;stroke-linejoin:round;stroke-miterlimit:10;" d="
			M190.322,90.103c-2.261,12.276-2.261,15.183,8.399,15.829c10.661,0.646,13.891,10.338,7.107,14.214
			c4.523-13.568-24.229-4.523-22.29-17.445C185.008,92.902,190.322,90.103,190.322,90.103z"/>
		<path id="XMLID_105_" style="fill:#BC7FD6;stroke:#9766B2;stroke-linecap:round;stroke-linejoin:round;stroke-miterlimit:10;" d="
			M183.861,72.012c10.015,3.554,7.107,12.922,1.615,16.799c-5.492,3.877-4.846,15.183-0.323,19.06
			c-1.938-9.368,3.23-9.691,7.107-14.214c3.877-4.523,10.338-11.953,1.938-21.967C187.738,68.135,183.861,72.012,183.861,72.012z"/>
		<path id="XMLID_102_" style="fill:#E38FFF;stroke:#AC5ECC;stroke-linecap:round;stroke-linejoin:round;stroke-miterlimit:10;" d="
			M168.355,74.596c7.43-7.753,28.428-14.214,29.721,3.23c-8.076-7.753-23.583,3.877-23.583,3.877c0-2.584,0-5.815,0-5.815
			L168.355,74.596z"/>
	</g>
	<g id="XMLID_126_" style="display:inline;">
		<path id="XMLID_151_" style="fill:#807FD6;stroke:#7466B2;stroke-linecap:round;stroke-linejoin:round;stroke-miterlimit:10;" d="
			M297.819,49.343c-1.59,4.295-8.891,3.952-9.034,8.96s3.381,5.329,7.457,5.604c-0.854-0.929-1.707-1.858-1.707-1.858l3.256-2.267
			c-3.777-0.022-8.064-0.169-5.534-3.153s5.135-0.849,6.305-4.165S297.819,49.343,297.819,49.343z"/>
		<path id="XMLID_129_" style="fill:#9C8FFF;stroke:#845ECC;stroke-linecap:round;stroke-linejoin:round;stroke-miterlimit:10;" d="
			M292.447,36.683c-2.768,6.168-3.142,7.698,2.385,9.408c5.526,1.71,5.98,7.225,1.912,8.392c4.124-6.558-12.167-5.494-9.486-12.044
			C289.291,37.472,292.447,36.683,292.447,36.683z"/>
		<path id="XMLID_128_" style="fill:#807FD6;stroke:#7466B2;stroke-linecap:round;stroke-linejoin:round;stroke-miterlimit:10;" d="
			M291.373,26.334c4.812,3.157,2.078,7.713-1.309,9.046c-3.388,1.334-4.501,7.366-2.62,9.987c0.184-5.178,2.946-4.684,5.567-6.565
			s6.976-4.96,3.844-11.309C293.911,24.792,291.373,26.334,291.373,26.334z"/>
		<path id="XMLID_127_" style="fill:#9C8FFF;stroke:#845ECC;stroke-linecap:round;stroke-linejoin:round;stroke-miterlimit:10;" d="
			M282.882,25.7c4.906-3.124,16.785-3.825,15.222,5.52c-3.253-5.118-12.906-0.992-12.906-0.992c0.332-1.36,0.747-3.06,0.747-3.06
			L282.882,25.7z"/>
	</g>
	<g id="XMLID_153_" style="display:inline;">
		<path id="XMLID_157_" style="fill:#807FD6;stroke:#7466B2;stroke-linecap:round;stroke-linejoin:round;stroke-miterlimit:10;" d="
			M148.898,35.417c-0.976,4.474,5.358,8.121,2.778,12.417s-5.721,2.666-9.302,0.7c1.22-0.322,2.44-0.645,2.44-0.645l-1.52-3.664
			c3.193,2.018,6.883,4.205,6.361,0.327c-0.522-3.877-3.867-3.483-3.065-6.907S148.898,35.417,148.898,35.417z"/>
		<path id="XMLID_156_" style="fill:#9C8FFF;stroke:#845ECC;stroke-linecap:round;stroke-linejoin:round;stroke-miterlimit:10;" d="
			M160.248,27.65c-0.994,6.687-1.504,8.177-7.08,6.639c-5.576-1.539-8.932,2.861-6.135,6.038c0.062-7.746,13.209,1.932,14.482-5.03
			C162.481,30.017,160.248,27.65,160.248,27.65z"/>
		<path id="XMLID_155_" style="fill:#807FD6;stroke:#7466B2;stroke-linecap:round;stroke-linejoin:round;stroke-miterlimit:10;" d="
			M166.732,19.513c-5.755,0.065-5.908,5.375-3.774,8.325s-0.18,8.631-3.177,9.824c2.636-4.461,0.044-5.533-1.149-8.53
			s-3.201-7.938,2.859-11.597C165.425,16.846,166.732,19.513,166.732,19.513z"/>
		<path id="XMLID_154_" style="fill:#9C8FFF;stroke:#845ECC;stroke-linecap:round;stroke-linejoin:round;stroke-miterlimit:10;" d="
			M174.225,23.557c-2.448-5.276-12.075-12.27-15.797-3.557c5.498-2.557,11.405,6.122,11.405,6.122c0.453-1.324,1.02-2.98,1.02-2.98
			L174.225,23.557z"/>
	</g>
	
		<path id="XMLID_110_" style="display:inline;fill:#EF9EE9;stroke:#FFDEFE;stroke-linecap:round;stroke-linejoin:round;stroke-miterlimit:10;" d="
		M334.124,82.969c-1.117,0.838-3.629,9.493-3.629,9.493l3.071,2.792c0,0,5.863-6.142,5.584-6.98
		C338.871,87.436,334.124,82.969,334.124,82.969z"/>
	
		<circle id="XMLID_117_" style="display:inline;fill:#F7E67F;stroke:#FFF2D4;stroke-linecap:round;stroke-linejoin:round;stroke-miterlimit:10;" cx="366.371" cy="63.006" r="2.932"/>
	
		<circle id="XMLID_119_" style="display:inline;fill:#F7E67F;stroke:#FFF2D4;stroke-linecap:round;stroke-linejoin:round;stroke-miterlimit:10;" cx="202.855" cy="48.146" r="2.932"/>
	
		<path id="XMLID_118_" style="display:inline;fill:#F9A048;stroke:#FFD6AE;stroke-linecap:round;stroke-linejoin:round;stroke-miterlimit:10;" d="
		M330.849,16.596c-0.558,0.838-5.305,12.564-5.305,12.564l3.909,4.467l8.655-11.447L330.849,16.596z"/>
	
		<path id="XMLID_120_" style="display:inline;fill:#EF9EE9;stroke:#FFDEFE;stroke-linecap:round;stroke-linejoin:round;stroke-miterlimit:10;" d="
		M205.138,18.196l1.117,10.051c0,0,6.98,1.396,6.701,0c-0.279-1.396-3.35-10.051-3.35-10.051H205.138z"/>
	
		<path id="XMLID_121_" style="display:inline;fill:#F9A048;stroke:#FFD6AE;stroke-linecap:round;stroke-linejoin:round;stroke-miterlimit:10;" d="
		M134.298,120.455c3.35-2.513,7.259-4.746,8.097-4.467s11.447,12.843,7.538,13.96c-3.909,1.117-5.025,1.675-5.025,1.675
		C143.232,126.039,134.298,120.455,134.298,120.455z"/>
	
		<ellipse id="XMLID_122_" style="display:inline;fill:#F7E67F;stroke:#FFF2D4;stroke-linecap:round;stroke-linejoin:round;stroke-miterlimit:10;" cx="308.091" cy="100.064" rx="2.419" ry="2.217"/>
	
		<ellipse id="XMLID_123_" style="display:inline;fill:#F7E67F;stroke:#FFF2D4;stroke-linecap:round;stroke-linejoin:round;stroke-miterlimit:10;" cx="231.495" cy="171.016" rx="2.419" ry="2.217"/>
	
		<polygon id="XMLID_95_" style="display:inline;fill:#C6AF8D;stroke:#84724C;stroke-linecap:round;stroke-linejoin:round;stroke-miterlimit:10;" points="
		190.308,316.428 190.073,432 319.71,432 	"/>
	
		<polygon id="XMLID_96_" style="display:inline;fill:#E5D2B1;stroke:#84724C;stroke-linecap:round;stroke-linejoin:round;stroke-miterlimit:10;" points="
		190.308,317.01 480.774,314.1 640.964,432 522.746,432 318.665,432 	"/>
	
		<path id="XMLID_97_" style="display:inline;fill:#C6AF8D;stroke:#84724C;stroke-linecap:round;stroke-linejoin:round;stroke-miterlimit:10;" d="
		M200.265,343.793c15.135,27.941,58.149,69.263,58.149,69.263"/>
	
		<path id="XMLID_98_" style="display:inline;fill:#C6AF8D;stroke:#84724C;stroke-linecap:round;stroke-linejoin:round;stroke-miterlimit:10;" d="
		M204.278,376.966C211.846,414.803,224.317,432,224.317,432"/>
	
		<ellipse id="XMLID_94_" style="display:inline;fill:#DAE9EF;stroke:#344851;stroke-linecap:round;stroke-linejoin:round;stroke-miterlimit:10;" cx="387.596" cy="361.906" rx="101.576" ry="30.851"/>
	
		<ellipse id="XMLID_99_" style="display:inline;fill:#DAE9EF;stroke:#344851;stroke-linecap:round;stroke-linejoin:round;stroke-miterlimit:10;" cx="387.596" cy="361.906" rx="76.661" ry="23.284"/>
	
		<path id="XMLID_100_" style="display:inline;fill:#77503F;stroke:#3A2419;stroke-linecap:round;stroke-linejoin:round;stroke-miterlimit:10;" d="
		M459.37,360.167c0,11.252-30.379,16.866-70.725,16.866s-73.053-9.121-73.053-20.373c0-7.595-3.493-34.329-5.821-71.001
		c10.638-9.404,65.762-3.493,78.874-3.493c14.241,0,61.236-4.87,72.471,5.821C461.699,331.644,459.37,352.886,459.37,360.167z"/>
	
		<ellipse id="XMLID_101_" style="display:inline;fill:#8E6252;stroke:#3A2419;stroke-linecap:round;stroke-linejoin:round;stroke-miterlimit:10;" cx="385.444" cy="287.987" rx="76.255" ry="23.284"/>
	
		<use xlink:href="#candle"  width="4.83" height="27.868" id="XMLID_130_" x="-2.415" y="-13.934" transform="matrix(1.0493 0 0 -1.0493 359.9131 282.7866)" style="display:inline;overflow:visible;"/>
	
		<use xlink:href="#candle"  width="4.83" height="27.868" id="XMLID_135_" x="-2.415" y="-13.934" transform="matrix(1.0493 0 0 -1.0493 342.505 268.0208)" style="display:inline;overflow:visible;"/>
	
		<use xlink:href="#candle"  width="4.83" height="27.868" id="XMLID_136_" x="-2.415" y="-13.934" transform="matrix(1.0493 0 0 -1.0493 373.4355 263.5133)" style="display:inline;overflow:visible;"/>
	
		<use xlink:href="#candle"  width="4.83" height="27.868" id="XMLID_137_" x="-2.415" y="-13.934" transform="matrix(1.0493 0 0 -1.0493 403.4333 261.3374)" style="display:inline;overflow:visible;"/>
	
		<use xlink:href="#candle"  width="4.83" height="27.868" id="XMLID_138_" x="-2.415" y="-13.934" transform="matrix(1.0493 0 0 -1.0493 390.5327 286.0506)" style="display:inline;overflow:visible;"/>
	
		<use xlink:href="#candle"  width="4.83" height="27.868" id="XMLID_139_" x="-2.415" y="-13.934" transform="matrix(1.0493 0 0 -1.0493 420.6859 284.3409)" style="display:inline;overflow:visible;"/>
	
		<use xlink:href="#candle"  width="4.83" height="27.868" id="XMLID_140_" x="-2.415" y="-13.934" transform="matrix(1.0493 0 0 -1.0493 431.4105 265.0676)" style="display:inline;overflow:visible;"/>
	
		<path id="XMLID_131_" style="display:inline;fill:#ED8D24;stroke:#F4CE62;stroke-linecap:round;stroke-linejoin:round;stroke-miterlimit:10;" d="
		M360.106,253.086c-1.846-4.769-4.492,11.111-0.236,10.638C364.125,263.252,362.943,260.415,360.106,253.086z"/>
	
		<path id="XMLID_134_" style="display:inline;fill:#ED8D24;stroke:#F4CE62;stroke-linecap:round;stroke-linejoin:round;stroke-miterlimit:10;" d="
		M342.95,242.058c-5.292,4.811-4.041,8.549-0.466,8.082S346.37,238.95,342.95,242.058z"/>
	
		<path id="XMLID_142_" style="display:inline;fill:#ED8D24;stroke:#F4CE62;stroke-linecap:round;stroke-linejoin:round;stroke-miterlimit:10;" d="
		M372.793,238.328c-1.914-5.232-3.575,8.238-0.155,7.461C376.679,245.322,375.124,244.701,372.793,238.328z"/>
	
		<path id="XMLID_141_" style="display:inline;fill:#ED8D24;stroke:#F4CE62;stroke-linecap:round;stroke-linejoin:round;stroke-miterlimit:10;" d="
		M390.823,261.332c-2.87-4.942-2.642,7.461-0.155,7.927C393.154,269.725,393.62,266.15,390.823,261.332z"/>
	
		<path id="XMLID_143_" style="display:inline;fill:#ED8D24;stroke:#F4CE62;stroke-linecap:round;stroke-linejoin:round;stroke-miterlimit:10;" d="
		M403.568,238.484c-1.424-4.142-2.798,6.528-0.311,5.285C405.744,242.525,405.278,243.457,403.568,238.484z"/>
	
		<path id="XMLID_144_" style="display:inline;fill:#ED8D24;stroke:#F4CE62;stroke-linecap:round;stroke-linejoin:round;stroke-miterlimit:10;" d="
		M421.598,261.487c-0.679-4.752-5.751,7.461-1.865,6.839C421.751,268.003,422.375,266.927,421.598,261.487z"/>
	
		<path id="XMLID_145_" style="display:inline;fill:#ED8D24;stroke:#F4CE62;stroke-linecap:round;stroke-linejoin:round;stroke-miterlimit:10;" d="
		M431.079,239.416c-1.257-4.713-4.041,6.839-1.243,7.15C432.633,246.877,432.944,246.41,431.079,239.416z"/>
</g>
</svg>
