<?xml version="1.0" encoding="utf-8"?>
<!-- Generator: Adobe Illustrator 19.0.0, SVG Export Plug-In . SVG Version: 6.00 Build 0)  -->
<!DOCTYPE svg PUBLIC "-//W3C//DTD SVG 1.1//EN" "http://www.w3.org/Graphics/SVG/1.1/DTD/svg11.dtd">
<svg version="1.1" id="Layer_1" xmlns="http://www.w3.org/2000/svg" xmlns:xlink="http://www.w3.org/1999/xlink" x="0px" y="0px"
	 width="648px" height="432px" viewBox="0 0 648 432" style="enable-background:new 0 0 648 432;" xml:space="preserve">
<g id="Layer_2">
	<rect id="XMLID_1_" style="fill:#BDDDEF;" width="648" height="432"/>
	
		<rect id="XMLID_91_" y="341.223" style="fill:#D6CB9D;stroke:#827643;stroke-linecap:round;stroke-linejoin:round;stroke-miterlimit:10;" width="648" height="90.777"/>
</g>
<g id="XMLID_20_">
	<path id="XMLID_45_" style="fill:#895F42;stroke:#492A1F;stroke-linecap:round;stroke-linejoin:round;stroke-miterlimit:10;" d="
		M240.373,386.059c17.428,8.867,28.436,12.842,23.849,16.205c-4.586,3.363-34.857,3.058-34.857,3.058l-18.346-16.817
		L240.373,386.059z"/>
	<path id="XMLID_43_" style="fill:#895F42;stroke:#492A1F;stroke-linecap:round;stroke-linejoin:round;stroke-miterlimit:10;" d="
		M217.746,392.786c25.99,7.032,32.716,11.619,32.105,15.288s-46.17,10.09-63.292,1.529c3.058-10.396,1.223-10.09,1.223-10.09
		L217.746,392.786z"/>
	<path id="XMLID_42_" style="fill:#AD9C76;stroke:#423A26;stroke-linecap:round;stroke-linejoin:round;stroke-miterlimit:10;" d="
		M244.959,239.294c-3.058,70.325,0.917,151.046,0.917,151.046c-15.9,0.917-21.403,3.363-21.403,3.363
		c-1.223-1.835-3.058-138.204-3.058-138.204L244.959,239.294z"/>
	<path id="XMLID_41_" style="fill:#AD9C76;stroke:#423A26;stroke-linecap:round;stroke-linejoin:round;stroke-miterlimit:10;" d="
		M189.922,224.618c-5.504,22.321-2.14,46.476,5.504,72.159s-10.702,98.761-11.925,106.71c23.238,8.256,39.749-8.867,47.393-7.338
		c-2.752-54.425,7.032-147.682,6.727-150.434C237.315,242.963,189.922,224.618,189.922,224.618z"/>
	<path id="XMLID_40_" style="fill:#DB8165;stroke:#4C1C09;stroke-linecap:round;stroke-linejoin:round;stroke-miterlimit:10;" d="
		M225.085,113.015c-14.584,1.779-17.428,4.586-22.015,17.428c-4.586,12.842-0.917,29.047-3.363,51.673
		c-2.446,22.626-13.759,38.22-15.594,50.756c7.644,16.817,48.004,26.907,63.292,16.511c10.09-51.368,17.428-75.523,15.594-91.117
		S250.157,109.958,225.085,113.015z"/>
	<path id="XMLID_39_" style="fill:#BF8B67;stroke:#6D462C;stroke-linecap:round;stroke-linejoin:round;stroke-miterlimit:10;" d="
		M251.38,98.95c-1.835,5.809-7.338,23.849-7.338,23.849c5.504,6.421,9.173,10.702,1.835,9.173
		c-7.338-1.529-22.932-15.594-27.824-15.594c3.669-21.403,7.032-33.634,7.032-34.245S251.38,98.95,251.38,98.95z"/>
	<path id="XMLID_38_" style="fill:#BF8B67;stroke:#6D462C;stroke-linecap:round;stroke-linejoin:round;stroke-miterlimit:10;" d="
		M254.743,35.046c9.042,5.167,9.784,15.9,7.95,27.213c9.784,10.396,8.561,12.23,8.561,12.23l-5.809,5.809
		c-1.529,25.378-3.058,22.321-3.058,22.321c-8.561,2.752-31.799-3.363-37.914-12.23c-0.612-8.561-7.338-34.857-6.727-41.583
		C218.358,42.079,252.603,33.823,254.743,35.046z"/>
	<path id="XMLID_37_" style="fill:#212428;stroke:#526989;stroke-linecap:round;stroke-linejoin:round;stroke-miterlimit:10;" d="
		M220.498,61.953c2.446,2.14,8.561,6.115,8.561,6.115c-1.529-8.256-2.446-22.321-2.446-22.321
		c8.256-4.281,32.105-6.727,40.055-3.669c0.306-3.669-6.421-7.95-6.421-7.95c8.867,0.917,11.619,4.586,11.619,4.586
		c-14.982-17.123-44.029-26.601-63.598-1.223c1.835-7.644,2.14-11.925,2.14-11.925c-5.504,7.032-6.115,11.925-5.504,12.842
		c-13.759,12.23-5.504,29.659-2.14,33.634c3.363,3.975,18.298,27.058,18.298,27.058l3.411-8.713L220.498,61.953z"/>
	<path id="XMLID_36_" style="fill:#BF8B67;stroke:#6D462C;stroke-linecap:round;stroke-linejoin:round;stroke-miterlimit:10;" d="
		M225.39,65.317c-11.313-12.536-17.734,0.917-15.594,8.256c2.14,7.338,11.925,10.09,15.9,2.752"/>
	<path id="XMLID_35_" style="fill:#A1C163;stroke:#4E6628;stroke-linecap:round;stroke-linejoin:round;stroke-miterlimit:10;" d="
		M327.82,154.599c7.338,0,20.486-4.281,24.155-7.95c14.065,7.95,18.04,10.09,18.04,10.09c-4.892,3.058-24.155,12.536-32.411,12.536
		S317.73,163.466,327.82,154.599z"/>
	<path id="XMLID_34_" style="fill:#A1C163;stroke:#4E6628;stroke-linecap:round;stroke-linejoin:round;stroke-miterlimit:10;" d="
		M325.097,154.67c6.115,0,17.734-5.809,21.097-7.95c17.428,10.09,17.428,10.09,17.428,10.09s-23.238,10.09-24.767,10.396
		s-15.594-6.727-15.594-6.727L325.097,154.67z"/>
	<path id="XMLID_33_" style="fill:#F4EBD3;stroke:#7C541F;stroke-linecap:round;stroke-linejoin:round;stroke-miterlimit:10;" d="
		M316.507,163.16c-10.281,16.116-30.158,46.879-47.697,63.602c-2.123,2.024-5.647,0.72-5.98-2.194
		c-4.839-42.35-3.053-56.641-2.762-58.094c0.306-1.529-1.564-27.765-1.564-27.765S330.266,116.379,316.507,163.16z"/>
	<path id="XMLID_32_" style="fill:#7DA86C;stroke:#436B36;stroke-linecap:round;stroke-linejoin:round;stroke-miterlimit:10;" d="
		M271.479,108.539c-2.98-8.196,0.373-9.313,4.098-5.588c-5.961-10.431,4.098-13.039,7.823-6.333
		c8.941-2.608,23.097-0.745,23.097-0.745c2.235-7.823,13.039-10.804,8.196,0c5.216-2.608,8.941-3.353,8.941-3.353l-2.235,6.333
		c5.216-4.47,10.431-2.235,6.333,3.353c6.706,0.373,3.725,8.568,1.863,10.059c-1.863,1.49,6.333,13.784,6.333,13.784
		c8.196,1.863,11.176,7.823,0,8.941c8.941,3.725,13.039,9.313,4.098,8.568c-2.608,4.098-12.666,11.549-14.902,11.176
		c-2.235-0.373-10.059,7.078-11.549-2.235c-30.548-3.353-31.666,3.725-33.901-2.608c-5.216,8.196-10.804,3.353-6.706-2.608
		c-5.961,1.863-14.902,3.725-7.078-8.196c-12.666,4.098-10.431-2.608-4.098-4.47c-9.313-2.608-2.98-7.823-2.235-9.313
		c-7.451-7.823,2.235-13.784,5.961-7.823C266.636,112.265,271.479,108.539,271.479,108.539z"/>
	<path id="XMLID_31_" style="fill:#BF8B67;stroke:#6D462C;stroke-linecap:round;stroke-linejoin:round;stroke-miterlimit:10;" d="
		M246.794,146.649c11.925,14.982,42.806,19.874,67.879,12.536c9.173-9.173,16.817-11.007,19.874-7.644
		c3.058,3.363-7.032,7.338-7.032,7.338c22.626,13.148,27.824,6.727,25.072,13.759c-2.752,7.032-25.99,11.313-33.022-4.281
		c-24.461,15.288-68.49,22.626-82.555-1.223C239.761,150.318,246.794,146.649,246.794,146.649z"/>
	<path id="XMLID_30_" style="fill:#DB8165;stroke:#4C1C09;stroke-linecap:round;stroke-linejoin:round;stroke-miterlimit:10;" d="
		M214.689,124.634c12.536-11.619,24.767-5.809,36.08,15.9c7.338,10.09,7.644,11.313,7.644,11.313s-12.23,19.874-22.015,20.792
		c-25.99-22.932-24.461-26.295-24.461-26.295"/>
	<path id="XMLID_29_" style="fill:#BF8B67;stroke:#6D462C;stroke-linecap:round;stroke-linejoin:round;stroke-miterlimit:10;" d="
		M299.69,188.538c-0.193,0.009-1.939,1.766-2.14,1.835c-14.371,4.892-21.909,8.195-15.9,13.453
		c4.892,4.281,10.702,1.835,13.148,0.306C302.802,199.129,312.838,187.927,299.69,188.538z"/>
	<path id="XMLID_28_" style="fill:none;stroke:#231F20;stroke-linecap:round;stroke-linejoin:round;stroke-miterlimit:10;" d="
		M248.934,81.522c3.058,5.198,15.594,5.809,15.594,5.809"/>
	<path id="XMLID_27_" style="fill:none;stroke:#231F20;stroke-linecap:round;stroke-linejoin:round;stroke-miterlimit:10;" d="
		M254.438,49.111c-3.363-2.446-8.256,0.612-8.561,3.669"/>
	
		<ellipse id="XMLID_26_" style="fill:#231F20;stroke:#231F20;stroke-linecap:round;stroke-linejoin:round;stroke-miterlimit:10;" cx="251.554" cy="61.838" rx="1.122" ry="4.579"/>
	<path id="XMLID_25_" style="fill:#FFD44A;stroke:#7C541F;stroke-linecap:round;stroke-linejoin:round;stroke-miterlimit:10;" d="
		M288.616,92.52c0.745-15.274,8.941-8.941,6.333-1.118c6.706-9.313,14.156-8.196,6.706,1.118c11.176-7.823,15.274,5.588,4.098,6.333
		c9.686,2.98,9.313,7.823-2.235,4.098c9.686,7.078,3.725,18.254-4.098,5.588c4.098,8.568-6.333,11.549-6.333,1.118
		c-7.078,12.666-13.411,4.843-4.47-2.98c-16.764-3.353-10.431-10.431-2.235-6.706C276.322,89.167,281.91,80.972,288.616,92.52z"/>
	<path id="XMLID_24_" style="fill:#FFD44A;stroke:#7C541F;stroke-linecap:round;stroke-linejoin:round;stroke-miterlimit:10;" d="
		M318.419,111.892c-1.863-9.686,4.098-8.568,4.098,0c5.961-10.431,15.274-14.529,5.588-2.98c10.431-3.725,12.666,1.118,5.216,4.47
		c11.549,0.745,10.804,5.216,1.863,7.823c8.196,1.863,8.568,10.804-0.373,7.451c-0.373,7.451-5.216,5.216-6.333-2.235
		c-2.98,11.176-7.451,10.059-6.333,1.118c-6.333,5.588-7.078,3.725-3.725-1.49c-11.176,3.353-11.549-1.118-2.608-6.333
		c-8.196,0.745-6.706-4.47-1.863-3.353C308.36,109.285,318.419,111.892,318.419,111.892z"/>
	<path id="XMLID_23_" style="fill:#FFD44A;stroke:#7C541F;stroke-linecap:round;stroke-linejoin:round;stroke-miterlimit:10;" d="
		M278.112,120.96c5.238,5.717,2.302,10.58-1.229,4.843c3.52,5.866-5.753,12.867-4.027,1.143c-5.448,6.793-8.94,4.471-5.334-0.844
		c-8.039,4.26-9.382,0.96-4.471-4.47c-6.255,2.13-10.188-3.702-2.821-5.142c-2.821-5.142,1.342-5.641,5.161-1.113
		c-2.61-8.71,0.843-9.804,3.779-3.358c1.937-6.351,3.204-5.411,3.108-0.538c6.101-6.85,8.192-4.011,4.356,3.165
		c5.18-3.876,6.332,0.23,2.629,1.477C285.921,118.561,278.112,120.96,278.112,120.96z"/>
	<path id="XMLID_22_" style="fill:#FFD44A;stroke:#7C541F;stroke-linecap:round;stroke-linejoin:round;stroke-miterlimit:10;" d="
		M294.204,136.852c0-11.549,8.196-5.961,5.216,0c7.078-9.686,11.176-1.863,3.725,4.098c10.804-7.823,17.509-2.608,5.961,2.235
		c8.568-2.235,12.294,2.608,1.863,4.098c7.823,1.49,9.686,4.47,2.608,5.216c1.49,2.98-2.608,7.451-5.588,1.49
		c-1.118,9.686-5.961,3.725-6.333,0.745c-2.98,8.196-5.961,0-5.961,0c-4.843,10.804-7.078,5.961-7.451,0
		c-7.823,4.843-7.078-3.353-1.49-5.588c-11.176-3.353-6.706-11.549-0.745-5.216c-5.216-9.686,2.608-11.176,3.725-6.333
		C290.478,129.402,294.204,136.852,294.204,136.852z"/>
	<path id="XMLID_21_" style="fill:#D5ED98;stroke:#75913D;stroke-linecap:round;stroke-linejoin:round;stroke-miterlimit:10;" d="
		M343.292,155.95c2.44,1.684,3.101,4.186,1.476,5.589c-1.624,1.403-4.919,1.175-7.359-0.509c-2.44-1.684-3.101-4.186-1.476-5.589
		C337.558,154.039,340.853,154.267,343.292,155.95z"/>
	<path id="XMLID_96_" style="fill:#D5ED98;" d="M348.143,150.134c1.543,1.065,1.961,2.647,0.934,3.534
		c-1.027,0.887-3.111,0.743-4.654-0.322s-1.961-2.647-0.934-3.534C344.516,148.926,346.6,149.07,348.143,150.134z"/>
	<g id="XMLID_44_">
		<path id="XMLID_98_" style="fill:#4D601E;" d="M346.433,149.982l-1.495,0.989l0.514,0.675c0.083-0.066,0.159-0.129,0.305-0.225
			c0.301-0.2,0.646-0.361,0.983-0.438c0.422-0.103,0.898-0.077,1.226,0.206c0.505,0.438,0.275,1.168-0.575,1.731
			c-0.428,0.283-0.869,0.454-1.136,0.509l-0.135-0.32c0.228-0.052,0.626-0.195,0.982-0.43c0.501-0.331,0.714-0.8,0.368-1.1
			c-0.341-0.286-0.918-0.27-1.702,0.249c-0.223,0.148-0.382,0.278-0.515,0.383l-0.989-1.244l1.875-1.24L346.433,149.982z"/>
	</g>
</g>
<path id="XMLID_19_" style="fill:#E5AD88;stroke:#7A5132;stroke-linecap:round;stroke-linejoin:round;stroke-miterlimit:10;" d="
	M397.918,185.742c-14.397,0.229-19.882-0.686-27.88,1.828c-7.998,2.514-10.055,8.456-1.828,8.684
	c8.227,0.229,26.509-4.113,31.537-2.971S397.918,185.742,397.918,185.742z"/>
<path id="XMLID_18_" style="fill:#E5AD88;stroke:#7A5132;stroke-linecap:round;stroke-linejoin:round;stroke-miterlimit:10;" d="
	M389.234,189.856c-10.969,2.057-15.083,6.17-5.713,6.627c9.37,0.457,14.854-1.371,15.54-5.028"/>
<path id="XMLID_17_" style="fill:#E5AD88;stroke:#7A5132;stroke-linecap:round;stroke-linejoin:round;stroke-miterlimit:10;" d="
	M435.023,28.816c-10.065,0-14.156,18.254-12.666,30.176c-1.118,7.451-8.196,12.294-8.196,12.294
	c2.235,4.098,6.333,6.706,6.333,6.706c0,2.235,0.745,6.333,0.745,6.333c2.608,19.372,23.097,18.254,31.666,11.176
	c1.49,9.686-0.373,13.039-0.373,13.039c-7.078,7.823-11.176,15.274-2.98,12.294c8.196-2.98,20.49-16.392,24.588-16.392
	c-4.47-12.294-1.863-16.019-1.49-22.352c0.373-6.333-2.608-49.92-5.588-50.665C464.081,30.679,436.513,28.816,435.023,28.816z"/>
<path id="XMLID_16_" style="fill:#A0483A;stroke:#662719;stroke-linecap:round;stroke-linejoin:round;stroke-miterlimit:10;" d="
	M443.592,35.149c-2.98,8.568-1.49,21.98,13.039,25.705c2.235-2.98,5.961-2.608,5.961-2.608c-5.588,11.176-5.588,19.745-5.588,19.745
	c11.921,11.549,14.529,11.921,14.529,11.921c11.549-8.941,23.097-26.078,14.902-48.43c-8.196-22.352-29.058-22.725-39.862-18.254
	c-12.294-12.294-31.666,0.745-29.803,6.706c3.725-1.118,5.961-0.373,5.961-0.373c-12.666,10.431-8.941,14.902-7.451,20.117
	c3.725-2.98,17.137-14.156,17.137-14.156c-1.49,2.98-6.333,13.411-6.333,13.411C432.416,47.071,443.592,35.149,443.592,35.149z"/>
<path id="XMLID_15_" style="fill:none;stroke:#231F20;stroke-linecap:round;stroke-linejoin:round;stroke-miterlimit:10;" d="
	M434.482,79.02c-2.057,4.342-7.77,6.399-13.483,4.114"/>
<path id="XMLID_14_" style="fill:#5C7A49;stroke:#2E491D;stroke-linecap:round;stroke-linejoin:round;stroke-miterlimit:10;" d="
	M455.05,134.323c-15.54,25.824-24.452,45.477-65.359,49.819c7.084,5.942,7.541,10.741,7.541,10.741
	c18.282,0,46.848,2.285,55.989-10.055C462.363,172.487,455.05,134.323,455.05,134.323z"/>
<path id="XMLID_13_" style="fill:#E5AD88;stroke:#7A5132;stroke-linecap:round;stroke-linejoin:round;stroke-miterlimit:10;" d="
	M452.764,63.937c3.428-13.026,15.083-8.227,11.426,1.371c-3.656,9.598-9.827,11.655-12.112,10.284"/>
<path id="XMLID_12_" style="fill:none;stroke:#231F20;stroke-linecap:round;stroke-linejoin:round;stroke-miterlimit:10;" d="
	M429.912,44.512c5.713-1.828,10.512,5.942,10.969,6.856"/>
<ellipse id="XMLID_11_" style="fill:#231F20;stroke:#231F20;stroke-linecap:round;stroke-linejoin:round;stroke-miterlimit:10;" cx="431.854" cy="58.224" rx="1.028" ry="4.114"/>
<path id="XMLID_10_" style="fill:#F4EBD3;stroke:#7C541F;stroke-linecap:round;stroke-linejoin:round;stroke-miterlimit:10;" d="
	M448.651,252.015c-0.686,12.341,1.6,53.933,5.028,64.216c33.365,14.626,43.192-1.143,43.192-1.143
	c8.913-43.192,9.598-62.617,8.456-64.216C504.183,249.273,448.651,252.015,448.651,252.015z"/>
<path id="XMLID_9_" style="fill:#E5AD88;stroke:#7A5132;stroke-linecap:round;stroke-linejoin:round;stroke-miterlimit:10;" d="
	M458.249,89.532c-1.6,2.514-6.17,6.856-6.17,6.856"/>
<path id="XMLID_8_" style="fill:#5C7A49;stroke:#2E491D;stroke-linecap:round;stroke-linejoin:round;stroke-miterlimit:10;" d="
	M454.364,103.929c-11.426,9.37-27.88,30.394-27.88,41.364c0,10.969,7.77,23.538,17.14,32.222c1.828,15.54,3.428,23.31,6.399,36.107
	c-10.055,45.248-4.571,46.848-4.571,46.848c32.679,17.368,62.617-1.828,62.617-1.828c3.199-40.678-11.883-54.618-12.112-55.761
	c0.686-44.106-2.057-56.446-1.828-68.33C494.357,122.668,478.817,89.303,454.364,103.929z"/>
<path id="XMLID_7_" style="fill:#5C7A49;stroke:#2E491D;stroke-linecap:round;stroke-linejoin:round;stroke-miterlimit:10;" d="
	M478.36,115.584c-14.626-6.399-21.025-5.256-27.88,10.969s-18.282,38.393-50.048,29.937c-0.914,7.998-6.856,14.169-6.856,14.169
	c32.222,16.911,75.186,2.057,82.499-28.337"/>
<path id="XMLID_6_" style="fill:#E5AD88;stroke:#7A5132;stroke-linecap:round;stroke-linejoin:round;stroke-miterlimit:10;" d="
	M401.803,159.461c-12.112-17.368-19.196-20.796-23.538-16.225c-4.342,4.571,8.456,10.512,8.456,10.512
	c-15.768,0.914-31.537,17.825-24.681,23.767c6.856,5.942,36.564-9.141,36.564-9.141L401.803,159.461z"/>
<path id="XMLID_5_" style="fill:#A0483A;stroke:#662719;stroke-linecap:round;stroke-linejoin:round;stroke-miterlimit:10;" d="
	M479.274,75.363c4.963-8.934,28.109-9.141,28.566,20.339c-4.342-6.17-15.351,3.165-24.224-2.514
	C477.903,89.532,473.561,85.647,479.274,75.363z"/>
<polygon id="XMLID_4_" style="fill:#E0D8CA;stroke:#87837B;stroke-linecap:round;stroke-linejoin:round;stroke-miterlimit:10;" points="
	435.223,305.534 435.223,209.815 312.287,209.815 312.287,305.534 312.287,411.065 435.223,411.065 648,411.065 648,305.534 "/>
<rect id="XMLID_3_" x="307.37" y="195.642" style="fill:#82675D;stroke:#3F3029;stroke-linecap:round;stroke-linejoin:round;stroke-miterlimit:10;" width="134.795" height="20.537"/>
</svg>
