<?xml version="1.0" encoding="utf-8"?>
<!-- Generator: Adobe Illustrator 19.0.0, SVG Export Plug-In . SVG Version: 6.00 Build 0)  -->
<!DOCTYPE svg PUBLIC "-//W3C//DTD SVG 1.1//EN" "http://www.w3.org/Graphics/SVG/1.1/DTD/svg11.dtd">
<svg version="1.1" id="Layer_1" xmlns="http://www.w3.org/2000/svg" xmlns:xlink="http://www.w3.org/1999/xlink" x="0px" y="0px"
	 width="648px" height="432px" viewBox="0 0 648 432" style="enable-background:new 0 0 648 432;" xml:space="preserve">
<symbol  id="flower3" viewBox="-9.037 -9.564 18.074 19.129">
	<path id="XMLID_11_" style="fill:#BC4E4B;stroke:#68211D;stroke-linecap:round;stroke-linejoin:round;stroke-miterlimit:10;" d="
		M-5.967,0.259c-5.426,4.522,1.769,11.632,3.618,4.974c1.809,7.688,7.687,1.809,4.522-0.452c7.648,6.206,7.235-3.618,2.713-4.07
		c8.14-4.974,0.452-8.592-1.809-4.974c-1.357-7.687-6.783-4.974-5.426,0C-9.584-7.428-10.037-1.097-5.967,0.259z"/>
</symbol>
<g id="Layer_2">
	<rect id="XMLID_1_" x="0.661" y="-0.103" style="fill:#D5EEF7;" width="645.966" height="426.064"/>
</g>
<g id="Layer_3">
	<rect id="XMLID_2_" y="260.854" style="fill:#BAD390;stroke:#617C48;stroke-miterlimit:10;" width="648" height="171.146"/>
</g>
<path style="fill:#5B8947;stroke:#467736;stroke-linecap:round;stroke-linejoin:round;stroke-miterlimit:10;" d="M186.21,178.898
	c-5.523,14.87,4.673,33.563,13.17,26.765c12.745,4.248,9.771-16.144,16.144-5.523c6.373,10.621,15.294-3.824,15.294-3.824
	c8.072,16.144,21.242,7.647,21.242,7.647c12.745,23.366,23.366,8.922,23.366,8.922c10.196,17.843,33.563,0.425,36.112-7.647
	c16.569,8.922,27.615-4.673,27.615-4.673c10.621,12.321,20.817,11.896,27.19,1.275c5.098,19.543,19.289,8.032,19.289,8.032
	c12.32,22.092,33.835,10.863,35.11,4.915c14.938,17.887,20.893-4.682,17.722-4.782c16.151,11.586,41.853-6.439,40.154-25.982
	c-1.699-19.543-2.665-52.708-21.783-58.656c-19.118-5.948-189.906,0.425-189.906,0.425S190.459,159.78,186.21,178.898z"/>
<g id="Layer_1_1_" style="display:none;">
	
		<path id="XMLID_122_" style="display:inline;fill:#B29586;stroke:#705749;stroke-linecap:round;stroke-linejoin:round;stroke-miterlimit:10;" d="
		M380.137,95.466c10.813-22.641,0.676-73.667-1.69-75.356c14.531,1.352,25.006,23.654,21.289,42.24
		c3.717-6.083,6.083-5.069,6.083-5.069c-2.365,15.544-8.11,32.44-8.11,32.44C400.075,88.708,394.33,110.335,380.137,95.466z"/>
	
		<path id="XMLID_102_" style="display:inline;fill:#B29586;stroke:#705749;stroke-linecap:round;stroke-linejoin:round;stroke-miterlimit:10;" d="
		M248.153,234.529c-11.489,31.427-22.979,77.384-31.765,83.804c-9.124-2.703-16.558,9.8-12.841,12.503s9.8,10.138,22.979,2.365
		c13.179-7.434,22.303-16.558,22.979-17.91s32.778-64.543,30.413-76.032C277.552,227.771,248.153,234.529,248.153,234.529z"/>
	
		<path id="XMLID_104_" style="display:inline;fill:#B29586;stroke:#705749;stroke-linecap:round;stroke-linejoin:round;stroke-miterlimit:10;" d="
		M272.341,202.587c4.055-15.206,10.813-29.399,15.544-33.116s14.531-5.745,18.248-8.786c17.91-21.965,40.213-57.784,55.419-68.26
		s33.162-14.015,53.437-1.85c20.275,12.165,18.54,62,18.54,62c-5.407,20.275-34.806,33.116-34.806,33.116
		c-8.786,26.358-26.696,54.743-26.696,54.743s-34.468,38.861-67.246,33.116C286.533,258.344,272.341,202.587,272.341,202.587z"/>
	
		<path id="XMLID_103_" style="display:inline;fill:#B29586;stroke:#705749;stroke-linecap:round;stroke-linejoin:round;stroke-miterlimit:10;" d="
		M408.523,87.356c27.372,11.65,31.467,52.465,26.736,73.823c13.179-3.883,17.567-5.373,17.229,3.04s-9.497,63.259-11.862,68.761
		c1.014,17.798,1.909,19.944-7.434,23.3c-8.11,2.912-23.654,3.56-24.668-4.207s5.407-13.592,12.165-13.268
		c5.407-29.772,4.393-47.571,4.393-47.571c-23.654,1.294-26.628-6.535-26.628-6.535"/>
	
		<path id="XMLID_105_" style="display:inline;fill:#B29586;stroke:#705749;stroke-linecap:round;stroke-linejoin:round;stroke-miterlimit:10;" d="
		M403.116,147.844c0.676,16.558-4.393,37.847-4.393,37.847"/>
	
		<path id="XMLID_107_" style="display:inline;fill:#B29586;stroke:#705749;stroke-linecap:round;stroke-linejoin:round;stroke-miterlimit:10;" d="
		M417.647,243.983c-4.055-0.324-7.434,6.472-4.731,12.297"/>
	
		<path id="XMLID_108_" style="display:inline;fill:#B29586;stroke:#705749;stroke-linecap:round;stroke-linejoin:round;stroke-miterlimit:10;" d="
		M430.15,244.63c-6.758-2.265-7.434,10.355-4.393,13.915"/>
	
		<path id="XMLID_109_" style="display:inline;fill:#B29586;stroke:#705749;stroke-linecap:round;stroke-linejoin:round;stroke-miterlimit:10;" d="
		M374.393,201.235c2.027,14.869,14.193,43.592,17.572,55.419s-12.165,44.606-16.22,64.205c-4.055,19.599-3.041,22.641-6.758,26.358
		s-20.951,12.503-25.006,6.083c-4.055-6.421,3.379-19.937,5.069-21.965s14.869-47.309,14.531-50.012
		c-19.262-12.503-29.399-20.275-34.13-36.158"/>
	
		<path id="XMLID_110_" style="display:inline;fill:#B29586;stroke:#705749;stroke-linecap:round;stroke-linejoin:round;stroke-miterlimit:10;" d="
		M377.096,278.619c-6.083,5.069-13.517,2.703-13.517,2.703"/>
	
		<path id="XMLID_106_" style="display:inline;fill:#B29586;stroke:#705749;stroke-linecap:round;stroke-linejoin:round;stroke-miterlimit:10;" d="
		M323.705,189.746c4.055-12.165,3.717-24.668,10.476-22.979c6.758,1.69,27.71,8.448,30.751,12.165"/>
	
		<path id="XMLID_114_" style="display:inline;fill:#7095BA;stroke:#384554;stroke-linecap:round;stroke-linejoin:round;stroke-miterlimit:10;" d="
		M229.087,326.942l12.841,35.82c57.109,20.951,105.769-0.676,105.769-0.676c4.393-10.138,13.179-33.792,13.179-33.792
		L229.087,326.942z"/>
	<path id="XMLID_115_" style="display:inline;fill:#BAD390;stroke:#617C48;stroke-miterlimit:10;" d="M223.68,381.009
		c-4.393-6.083-20.951-19.937-20.951-19.937c12.165,0.676,20.951,10.476,20.951,10.476c-8.11-10.138-16.22-26.02-16.22-26.02
		c16.896,6.421,26.358,21.965,26.358,21.965c-1.014-13.855-16.558-39.875-16.558-39.875c16.558,5.745,25.682,26.696,27.034,28.047
		c1.69-6.758,11.489-10.813,11.489-10.813c-4.393,8.11-8.11,19.261-6.421,17.91c1.69-1.352,12.503-7.096,12.503-7.096l-7.434,21.627
		"/>
	<path id="XMLID_117_" style="display:inline;fill:#BAD390;stroke:#617C48;stroke-miterlimit:10;" d="M298.361,391.823
		c0.338-9.8-6.421-27.034-6.421-27.034c8.448,8.786,11.151,16.896,11.151,16.896c1.352-4.393,7.772-7.772,7.772-7.772
		c-3.717,8.448-4.393,13.855-3.379,12.503s10.138-9.8,10.138-9.8l-2.365,15.206"/>
	<path id="XMLID_118_" style="display:inline;fill:#BAD390;stroke:#617C48;stroke-miterlimit:10;" d="M340.263,375.941
		c0.676-8.448-5.407-28.723-5.407-28.723c5.745,8.786,7.772,12.165,7.772,12.165c3.379-11.827,11.489-20.613,11.489-20.613
		c-1.69,9.124,1.352,12.165,1.352,12.165c8.448-10.138,22.641-10.138,22.641-10.138c-8.11,9.8-16.22,22.641-16.22,22.641
		c14.531-7.772,20.613-10.476,20.613-10.476c-6.42,10.476-10.476,14.868-11.489,16.22c-0.338,0.676,18.924-4.731,18.924-4.731
		l-12.165,15.206"/>
	<path id="XMLID_119_" style="display:inline;fill:#BAD390;stroke:#617C48;stroke-miterlimit:10;" d="M435.557,268.482
		c3.717-12.841,0.338-23.317,0.338-23.317c5.407,7.096,7.772,12.503,7.772,12.503c0.338-8.11,12.165-12.165,12.165-12.165
		c-4.731,5.407-10.138,18.924-9.124,17.91s15.544-7.434,14.531-6.421c-1.014,1.014-9.462,12.503-9.462,12.503"/>
	<path id="XMLID_120_" style="display:inline;fill:#BAD390;stroke:#617C48;stroke-miterlimit:10;" d="M195.971,331.335
		c-4.731-8.448-13.179-14.531-13.179-14.531c10.476,1.014,13.855,7.434,13.855,7.434c-1.014-7.434-14.531-21.627-5.745-18.248
		c8.786,3.379,14.193,16.558,14.193,16.558"/>
	
		<path id="XMLID_100_" style="display:inline;fill:#B29586;stroke:#705749;stroke-linecap:round;stroke-linejoin:round;stroke-miterlimit:10;" d="
		M263.715,198.135c-9.85,8.84-27.025,25.762-21.974,35.107s6.567,31.571,14.144,34.855c7.577,3.283,46.978,14.396,56.828,9.598
		c9.85-4.799,10.355-13.386,15.659-25.004s14.902-32.329,6.819-41.927c-8.082-9.598-32.834-16.922-48.746-16.164
		C270.534,195.356,263.715,198.135,263.715,198.135z"/>
	
		<ellipse id="XMLID_87_" transform="matrix(-0.2198 -0.9755 0.9755 -0.2198 128.9093 609.6213)" style="display:inline;stroke:#000000;stroke-linecap:round;stroke-linejoin:round;stroke-miterlimit:10;" cx="308.227" cy="253.263" rx="5.293" ry="1.537"/>
	
		<ellipse id="XMLID_112_" style="display:inline;fill:#A5AAAF;stroke:#6D7175;stroke-linecap:round;stroke-linejoin:round;stroke-miterlimit:10;" cx="294.981" cy="326.773" rx="65.557" ry="17.403"/>
	
		<path id="XMLID_111_" style="display:inline;fill:#C4655B;stroke:#7F2F22;stroke-linecap:round;stroke-linejoin:round;stroke-miterlimit:10;" d="
		M266.411,292.71c-1.014,11.827-0.722,19.291,9.462,19.599c11.151,0.338,14.869-8.11,14.869-12.841
		c0-4.731-12.503-14.531-14.193-14.193S266.411,292.71,266.411,292.71z"/>
	
		<path id="XMLID_116_" style="display:inline;fill:#9B5C43;stroke:#4F2715;stroke-linecap:round;stroke-linejoin:round;stroke-miterlimit:10;" d="
		M229.425,327.618c-0.338-7.096,8.11-6.083,8.11-6.083c-2.365-7.096,2.028-10.476,6.083-9.124c4.393-7.772,7.434-2.365,7.434-2.365
		c4.055-5.745,14.193-2.703,12.503,2.365c5.069-1.69,5.407,9.124,5.407,9.124c8.11-4.393,14.193,3.717,14.193,3.717
		c5.745-6.083,13.855,3.041,13.179,4.393c5.745-8.448,8.786,2.028,8.786,2.028c2.703-7.772,11.151-4.393,11.151-4.393
		c2.365-6.42,9.462-2.703,9.462-2.703c2.365-4.731,15.544-2.028,15.544-2.028c3.041-5.069,8.11,1.69,8.11,1.69
		c1.014,0.676,3.041,8.448,3.041,8.448l4.731-0.338C330.463,349.245,241.928,347.893,229.425,327.618z"/>
	
		<path id="XMLID_113_" style="display:inline;fill:#C4655B;stroke:#7F2F22;stroke-linecap:round;stroke-linejoin:round;stroke-miterlimit:10;" d="
		M276.548,303.862c-1.014-8.448,0.338-13.179,0.338-13.179"/>
	
		<ellipse id="XMLID_89_" transform="matrix(-0.2198 -0.9755 0.9755 -0.2198 76.1801 558.5745)" style="display:inline;stroke:#000000;stroke-linecap:round;stroke-linejoin:round;stroke-miterlimit:10;" cx="261.45" cy="248.825" rx="5.293" ry="1.537"/>
	
		<path id="XMLID_88_" style="display:inline;fill:#B29586;stroke:#705749;stroke-linecap:round;stroke-linejoin:round;stroke-miterlimit:10;" d="
		M256.509,256.863c-4.097,8.878-11.268,20.487-8.878,28.682s7.512,15.024,12.634,14c5.122-1.024,14.682-10.585,14.682-10.585
		c13.658,14.341,15.024,14.341,21.17,15.024c6.146,0.683,20.146-3.415,21.853-10.244c1.707-6.829-1.024-21.17-8.536-26.292"/>
	
		<path id="XMLID_91_" style="display:inline;fill:#3D342F;stroke:#211C19;stroke-linecap:round;stroke-linejoin:round;stroke-miterlimit:10;" d="
		M269.484,269.156c-4.097,3.073,2.332,10.283,7.795,9.942s14.399-5.503,12.692-8.234
		C288.264,268.131,273.545,266.11,269.484,269.156z"/>
	
		<path id="XMLID_92_" style="display:inline;fill:#3D342F;stroke:#211C19;stroke-linecap:round;stroke-linejoin:round;stroke-miterlimit:10;" d="
		M276.462,278.847c-0.683,6.829-0.574,10.046-0.574,10.046"/>
	
		<circle id="XMLID_90_" style="display:inline;stroke:#000000;stroke-linecap:round;stroke-linejoin:round;stroke-miterlimit:10;" cx="297.996" cy="281.277" r="1.195"/>
	
		<circle id="XMLID_93_" style="display:inline;stroke:#000000;stroke-linecap:round;stroke-linejoin:round;stroke-miterlimit:10;" cx="293.728" cy="290.326" r="1.366"/>
	
		<circle id="XMLID_96_" style="display:inline;stroke:#000000;stroke-linecap:round;stroke-linejoin:round;stroke-miterlimit:10;" cx="261.631" cy="278.375" r="1.366"/>
	
		<circle id="XMLID_97_" style="display:inline;stroke:#000000;stroke-linecap:round;stroke-linejoin:round;stroke-miterlimit:10;" cx="252.753" cy="282.131" r="1.366"/>
	
		<circle id="XMLID_98_" style="display:inline;stroke:#000000;stroke-linecap:round;stroke-linejoin:round;stroke-miterlimit:10;" cx="259.582" cy="287.936" r="1.366"/>
	
		<circle id="XMLID_95_" style="display:inline;stroke:#000000;stroke-linecap:round;stroke-linejoin:round;stroke-miterlimit:10;" cx="304.995" cy="287.594" r="1.366"/>
	
		<path id="XMLID_99_" style="display:inline;fill:#B29586;stroke:#705749;stroke-linecap:round;stroke-linejoin:round;stroke-miterlimit:10;" d="
		M269.271,254.458c9.598-6.819,16.164-7.83,28.288,2.021"/>
	
		<path id="XMLID_101_" style="display:inline;fill:#B29586;stroke:#705749;stroke-linecap:round;stroke-linejoin:round;stroke-miterlimit:10;" d="
		M262.704,205.712c-5.557,7.577-4.799,17.68-16.417,14.649s-14.144-23.489-8.587-25.004c5.557-1.515,11.618-3.789,22.984-7.83
		c5.051-2.273,10.608,12.123,10.608,12.123"/>
	
		<path id="XMLID_94_" style="display:inline;fill:#B29586;stroke:#705749;stroke-linecap:round;stroke-linejoin:round;stroke-miterlimit:10;" d="
		M335.95,202.934c-12.312-3.821-23.489,1.263-19.195,11.871s6.062,21.974,11.618,22.731s8.587-5.557,14.144-12.123
		C348.073,218.845,357.923,209.753,335.95,202.934z"/>
	
		<path id="XMLID_124_" style="display:inline;fill:#9B5C43;stroke:#4F2715;stroke-linecap:round;stroke-linejoin:round;stroke-miterlimit:10;" d="
		M246.019,331.652c-5.478-6.973,6.973-10.708,5.727-1.494"/>
	
		<path id="XMLID_125_" style="display:inline;fill:#9B5C43;stroke:#4F2715;stroke-linecap:round;stroke-linejoin:round;stroke-miterlimit:10;" d="
		M254.983,324.928c2.49-7.471,13.198,0,7.471,5.728"/>
	
		<path id="XMLID_126_" style="display:inline;fill:#9B5C43;stroke:#4F2715;stroke-linecap:round;stroke-linejoin:round;stroke-miterlimit:10;" d="
		M282.376,333.644c-2.49-6.475-13.198,0.498-7.72,4.482"/>
	
		<path id="XMLID_127_" style="display:inline;fill:#9B5C43;stroke:#4F2715;stroke-linecap:round;stroke-linejoin:round;stroke-miterlimit:10;" d="
		M283.372,337.13c3.735-4.482,7.72-0.996,7.222,1.992"/>
	
		<path id="XMLID_128_" style="display:inline;fill:#9B5C43;stroke:#4F2715;stroke-linecap:round;stroke-linejoin:round;stroke-miterlimit:10;" d="
		M331.682,331.154c-5.728-4.98-10.708,0.498-7.969,3.984"/>
	
		<path id="XMLID_129_" style="display:inline;fill:#9B5C43;stroke:#4F2715;stroke-linecap:round;stroke-linejoin:round;stroke-miterlimit:10;" d="
		M311.76,335.885c1.743-6.226,9.214-5.229,7.969-0.498"/>
	<path id="XMLID_3_" style="display:inline;fill:#BAD390;stroke:#617C48;stroke-miterlimit:10;" d="M71.884,245.868
		c-0.795-8.741-11.125-23.84-11.125-23.84c16.688,7.947,17.483,19.072,17.483,19.072l8.741-16.688l-3.179,24.635"/>
	<path id="XMLID_4_" style="display:inline;fill:#BAD390;stroke:#617C48;stroke-miterlimit:10;" d="M115.447,394.646
		c-2.474-9.896-10.721-23.916-9.896-24.741c10.721,9.896,15.669,17.319,15.669,17.319l8.247-16.494l-0.825,25.565"/>
	<path id="XMLID_5_" style="display:inline;fill:#BAD390;stroke:#617C48;stroke-miterlimit:10;" d="M507.84,345.493
		c0.871-11.319-6.965-27.861-6.965-27.861c12.189,11.319,15.672,20.025,15.672,20.025c1.741-7.836,20.896-19.155,20.896-19.155
		l-13.931,31.344"/>
	<path id="XMLID_6_" style="display:inline;fill:#BAD390;stroke:#617C48;stroke-miterlimit:10;" d="M566.96,183.578
		c-2.078-10.392-4.157-17.666-4.157-17.666c9.353,6.235,10.392,14.548,10.392,14.548c3.117-7.274,13.509-12.47,13.509-12.47
		c-4.157,8.313-6.235,15.588-6.235,15.588c3.118-4.157,11.431-8.313,11.431-8.313l-6.235,10.392"/>
	<path id="XMLID_8_" style="display:inline;fill:#BAD390;stroke:#617C48;stroke-miterlimit:10;" d="M187.661,167.991l3.118-7.274
		c0,0-7.274,4.157-11.431,6.235s6.235-9.353,8.313-13.509c0,0-11.431,5.196-14.548,11.431c0,0,0-9.353-8.313-15.588
		c0,0,1.039,7.274,1.039,15.588c-7.274-7.274-16.627-9.353-16.627-9.353l3.118,14.548"/>
	<path id="XMLID_7_" style="display:inline;fill:#BAD390;stroke:#617C48;stroke-miterlimit:10;" d="M77.172,127.603
		c-2.829-9.43-4.715-16.975-4.715-16.975c7.544,8.487,9.43,12.26,9.43,12.26l9.43-7.544l-2.829,11.316"/>
	<path id="XMLID_9_" style="display:inline;fill:#BAD390;stroke:#617C48;stroke-miterlimit:10;" d="M509.831,123.715
		c-1.886-7.544-2.633-5.543-3.576-8.372c4.715,2.829,8.534,3.865,8.534,3.865c2.829-5.658-2.876-15.181-2.876-15.181
		c10.373,10.373,9.43,16.032,9.43,16.032l12.26-5.658l-6.601,9.43"/>
	<path id="XMLID_10_" style="display:inline;fill:#BAD390;stroke:#617C48;stroke-miterlimit:10;" d="M253.366,124.975
		c-1.236-7.415-2.472-12.358-2.472-12.358c4.943,3.707,6.179,7.415,6.179,7.415c0.618-3.707,4.943-16.065,4.943-16.065
		c1.236,6.179,1.854,14.212,1.854,14.212l8.033-4.325l-4.943,12.976"/>
</g>
<g id="Layer_4">
	<path id="XMLID_52_" style="fill:#896659;stroke:#4C372E;stroke-linecap:round;stroke-linejoin:round;stroke-miterlimit:10;" d="
		M263.466,181.918c10.685,14.06,26.433,28.683,36.556,35.993c10.123,7.311,7.311,3.937,14.06,18.559
		c6.749,14.622,16.309,17.434,10.123,28.12c-6.186,10.685-9.56,11.248-12.372,26.995c-2.812,15.746-2.812,18.559-4.499,34.306
		c-1.687,15.747,3.374,17.434-3.937,25.871s-4.043,5.695-14.729,5.695s-17.328,3.866-28.576,3.866
		c-11.248,0-8.436-1.687-17.996,3.937c-9.561,5.624-23.059,12.935-30.37,16.309c-7.311,3.374,2.25,6.186,19.684,3.937
		c17.434-2.25,10.123-7.311,38.805-6.186c37.719,1.479,38.243-0.562,47.241,6.186c8.998,6.749,16.309,11.248,25.871,17.997
		c9.56,6.749,9.56,9.56,24.746,12.935c15.184,3.374,16.309,3.937,24.746,3.937s14.06,8.436,10.685-1.125
		c-3.374-9.56-11.81-7.873-20.809-16.871c-8.998-8.998-15.184-6.186-11.81-12.372s5.061-10.685,11.248-9.56
		c6.187,1.125,11.248,5.624,17.996,5.624s11.81-1.125,17.434,0c5.624,1.125,8.293,0.76,8.293,0.76l30.263,5.725
		c-20.03-14.06-40.721-29.352-55.344-31.04c-14.622-1.687-19.089,0.573-26.963-8.987c-7.873-9.56-9.115-15.386-11.927-33.945
		c-2.812-18.559-2.25-33.744,3.937-47.804c6.186-14.06-8.104-16.817,13.267-35.376s45.446-47.417,43.759-63.727
		s-30.031-9.44-34.53-10.565c-12.372,17.997-8.436,28.12-17.434,32.619s-24.183,31.494-29.807,31.494
		c-6.186-0.562-17.434-6.749-16.871-17.434c0.562-10.685,14.06-48.928,10.123-53.427s-18.559-1.687-20.247,0
		s5.061,24.183,0.562,30.932c-4.499,6.749-1.687,8.998-7.873,10.123s-15.157-8.358-19.094-16.793
		c-3.937-8.436-13.342-19.662-13.342-19.662S264.029,182.48,263.466,181.918z"/>
	<path id="XMLID_24_" style="fill:#80BC69;stroke:#467736;stroke-linecap:round;stroke-linejoin:round;stroke-miterlimit:10;" d="
		M505.459,162.469c4.199-2.099,10.099-18.402-6.173-21.551c3.674-1.574,7.583-7.751-0.815-13.001
		c8.635-0.862,10.008-12.117,0.674-13.49c0,0,9.573-2.915,8.51-6.314c1.406-6.068-2.492-11.651-11.53-8.785
		c0,0,7.961-7.138,6.039-12.079c-3.345-8.601-12.472-3.16-18.563-2.667c0,0,0.445,0.471,5.661-4.196
		c9.608-12.903-6.589-20.04-18.348-15.049c0,0,4.348-2.521,6.544-6.913c2.196-6.863-4.667-11.53-14.942-6.733
		c0,0,1.41-2.751,3.106-5.658c2.827-4.847-1.99-10.631-7.243-8.655c-1.848,0.695-4.034,1.915-6.641,3.87l2.66-6.158
		c0,0,0.314-10.411-12.007-7.012c7.348-8.398-9.504-19.121-15.719-11.046c0,0-7.521-12.597-14.87,0c0,0-7.415-6.86-14.87,2.974
		l-0.874,3.019c-0.837-3.02-3.555-11.832-9.747-8.117c-4.723-9.448-17.318-14.396-26.765-1.275c-1.05-7.348-6.672-7.323-14.02,2.124
		c0-9.347-14.445-10.621-16.569-0.425c-4.248-6.373-14.445-1.275-13.404,6.44c0,0-5.248-7.873-7.348-7.873
		c0,0-2.864,2.557-6.013,7.806c0,0,0.24-5.706-5.534-5.706s-9.448,5.774-9.448,5.774s-0.525-4.199-3.149-7.348
		c0,0-5.503,4.816-7.877,8.6h-1.179c-0.199-2.168-0.699-5.333-1.966-7.55c-1.759-3.957-5.725-0.578-6.967,7.744
		c-1.974,0.926-9.832,5.212-6.873,13.598c-6.749-4.499-18.559-3.374-8.436,6.749c-5.335-3.679-19.122-3.937-12.372,15.184
		c-7.311-7.311-15.184-9.56-7.873,10.685c0,0-15.184-5.061-10.123,6.749c0,0-8.998-2.812-2.25,10.685
		c-15.747-11.248-36.556-6.186-16.872,12.935c-17.996-2.249-24.183,1.687-11.81,14.06c-6.186-0.562-20.247,2.25-6.749,16.309
		c-12.935,4.499-22.496,17.434-3.374,22.496c-5.624,1.125-10.685,12.372-1.687,14.06c0,0-6.186-1.125-6.186,12.372
		c2.25,21.372,21.934,10.123,30.37-2.25c0,0,3.374,7.873,8.436,3.937c1.125,11.81,17.434,9.56,26.995-10.123
		c0,0,2.812,10.123,12.372-1.125c-5.624,23.621,9.561,25.871,23.621,14.06c0,0,4.499,16.872,12.935,7.873
		c0.562,12.372,16.309,12.935,14.06-6.186c0,0,11.81,6.749,7.873-14.06c0.562,1.687,8.998,15.184,17.996-2.812
		c0,0,3.374,2.249,11.248-5.624c-7.311,13.497-1.687,25.308,8.436,4.499c0,1.687,9.561,10.685,11.248-2.812
		c2.812,14.622,22.496,28.683,19.684,0c1.125,2.25,6.186,16.309,12.372,2.812c0,0,0,10.123,12.935-3.937
		c-3.374,26.433,6.749,33.744,15.184,15.184c0,13.285,12.526,18.383,17.746,4.062c0.139,0.028,0.096,0.02,0.235,0.048
		c-0.337,11.245,4.098,15.561,10.701,15.011c0.515,14.431,5.751,14.682,7.489,1.638c0.62,0.562,1.154,1.047,1.608,1.457
		c0.861,2.162,2.308,4.271,4.747,4.778l2.599,1.132c0.735-0.727,5.939-6.697,5.49-5.765c-0.714,1.487,1.127,6.854,1.727,7.526
		c3.647,4.085,5.97,8.232,12.17,6.758c4.392-1.044,12.42-2.087,8.746-15.21c0,0,8.613,6.473,14.387,6.473s9.543-18.653-1.301-24.726
		C508.268,183.501,523.099,168.276,505.459,162.469z"/>
	<path id="XMLID_54_" style="fill:#896659;stroke:#4C372E;stroke-linecap:round;stroke-linejoin:round;stroke-miterlimit:10;" d="
		M348.388,253.342c-8.436,10.123-22.496,26.995-23.059,42.742c-0.563,15.747-1.125,34.306-3.374,42.18
		c-2.25,7.873-8.998,17.434-9.56,19.122"/>
	<path id="XMLID_53_" style="fill:#896659;stroke:#4C372E;stroke-linecap:round;stroke-linejoin:round;stroke-miterlimit:10;" d="
		M347.826,276.4c-7.873,14.06-9.56,30.932-8.436,34.869c1.125,3.937-2.812,34.869-2.812,34.869"/>
	<path id="XMLID_56_" style="fill:#896659;stroke:#4C372E;stroke-linecap:round;stroke-linejoin:round;stroke-miterlimit:10;" d="
		M325.33,296.084c8.998,0.562,14.622,2.812,14.622,2.812"/>
	<path id="XMLID_57_" style="fill:#896659;stroke:#4C372E;stroke-linecap:round;stroke-linejoin:round;stroke-miterlimit:10;" d="
		M388.318,194.29c-7.311,11.81-27.558,28.12-30.932,33.182"/>
	<path id="XMLID_55_" style="fill:#896659;stroke:#4C372E;stroke-linecap:round;stroke-linejoin:round;stroke-miterlimit:10;" d="
		M361.886,213.974c10.123,3.937,11.248,10.685,11.248,10.685l11.81,3.374"/>
	<path id="XMLID_59_" style="fill:#896659;stroke:#4C372E;stroke-linecap:round;stroke-linejoin:round;stroke-miterlimit:10;" d="
		M402.379,194.852c-2.812,5.624-17.997,22.496-21.372,25.308"/>
	<path id="XMLID_58_" style="fill:#896659;stroke:#4C372E;stroke-linecap:round;stroke-linejoin:round;stroke-miterlimit:10;" d="
		M297.21,204.413c9.56,8.436,14.06,6.186,20.809,16.871c6.749,10.685,12.372,22.496,16.309,24.746"/>
	<path id="XMLID_60_" style="fill:#896659;stroke:#4C372E;stroke-linecap:round;stroke-linejoin:round;stroke-miterlimit:10;" d="
		M329.829,377.069c16.309-14.622,25.871-14.06,30.37-7.311c4.499,6.749,9.56,23.059,9.56,23.059"/>
	<path id="XMLID_61_" style="fill:#896659;stroke:#4C372E;stroke-linecap:round;stroke-linejoin:round;stroke-miterlimit:10;" d="
		M344.451,374.257c2.25,10.123,9.56,23.621,15.184,26.995c5.624,3.374,14.622,5.061,16.309,6.749"/>
	<path id="XMLID_63_" style="fill:#896659;stroke:#4C372E;stroke-linecap:round;stroke-linejoin:round;stroke-miterlimit:10;" d="
		M351.762,373.695c1.687,6.186,6.186,16.309,6.186,16.309"/>
	<path id="XMLID_44_" style="fill:#80BC69;stroke:#467736;stroke-linecap:round;stroke-linejoin:round;stroke-miterlimit:10;" d="
		M251.103,122.303c-14.06-18.56-17.996-7.873-10.123,2.812c-19.684-9.561-21.934,8.436-4.499,8.436
		c-15.184,5.624-8.998,25.871,9.561,7.311c6.186,7.311,15.184,1.125,12.935-6.749"/>
	<path id="XMLID_47_" style="fill:#80BC69;stroke:#467736;stroke-linecap:round;stroke-linejoin:round;stroke-miterlimit:10;" d="
		M264.039,157.734c-11.248,6.749-6.749,21.372,5.624,4.499"/>
	<path id="XMLID_49_" style="fill:#80BC69;stroke:#467736;stroke-linecap:round;stroke-linejoin:round;stroke-miterlimit:10;" d="
		M323.652,135.8c-11.248,6.749-15.184,22.496,0,8.998"/>
	<path id="XMLID_50_" style="fill:#80BC69;stroke:#467736;stroke-linecap:round;stroke-linejoin:round;stroke-miterlimit:10;" d="
		M328.152,134.113c-3.937,13.497,7.311,24.746,10.685,1.125"/>
	<path id="XMLID_51_" style="fill:#80BC69;stroke:#467736;stroke-linecap:round;stroke-linejoin:round;stroke-miterlimit:10;" d="
		M383.267,63.252c-10.123-20.809-22.496-10.685-7.873,5.061c-17.997-7.873-11.81,7.311-2.25,7.311
		c-22.496,12.935,7.873,19.122,14.622,5.061"/>
	<path id="XMLID_46_" style="fill:#80BC69;stroke:#467736;stroke-linecap:round;stroke-linejoin:round;stroke-miterlimit:10;" d="
		M408.012,136.364c1.687,14.622,14.06,17.434,10.685,3.937c17.434,7.873,21.934-2.812,6.186-14.06"/>
	
		<use xlink:href="#flower3"  width="18.074" height="19.129" id="XMLID_21_" x="-9.037" y="-9.564" transform="matrix(0.9791 0 0 -0.9791 369.7357 127.8094)" style="overflow:visible;"/>
	
		<use xlink:href="#flower3"  width="18.074" height="19.129" id="XMLID_20_" x="-9.037" y="-9.564" transform="matrix(0.9791 0 0 -0.9791 429.5714 163.6309)" style="overflow:visible;"/>
	
		<use xlink:href="#flower3"  width="18.074" height="19.129" id="XMLID_13_" x="-9.037" y="-9.564" transform="matrix(0.9791 0 0 -0.9791 473.8356 127.8861)" style="overflow:visible;"/>
	
		<use xlink:href="#flower3"  width="18.074" height="19.129" id="XMLID_19_" x="-9.037" y="-9.564" transform="matrix(0.8988 -0.3885 -0.3885 -0.8988 285.6092 135.3358)" style="overflow:visible;"/>
	
		<use xlink:href="#flower3"  width="18.074" height="19.129" id="XMLID_18_" x="-9.037" y="-9.564" transform="matrix(-0.4247 0.8823 0.8823 0.4247 216.0945 100.8021)" style="overflow:visible;"/>
	
		<use xlink:href="#flower3"  width="18.074" height="19.129" id="XMLID_17_" x="-9.037" y="-9.564" transform="matrix(-0.3112 0.6465 0.6465 0.3112 197.2107 161.8574)" style="overflow:visible;"/>
	
		<use xlink:href="#flower3"  width="18.074" height="19.129" id="XMLID_16_" x="-9.037" y="-9.564" transform="matrix(-0.322 0.669 0.669 0.322 358.3778 41.4248)" style="overflow:visible;"/>
	
		<use xlink:href="#flower3"  width="18.074" height="19.129" id="XMLID_15_" x="-9.037" y="-9.564" transform="matrix(-0.9559 -0.3618 -0.3618 0.9559 416.3792 58.692)" style="overflow:visible;"/>
	
		<use xlink:href="#flower3"  width="18.074" height="19.129" id="XMLID_14_" x="-9.037" y="-9.564" transform="matrix(-0.7312 -0.2767 -0.2767 0.7312 431.8763 103.4114)" style="overflow:visible;"/>
	
		<use xlink:href="#flower3"  width="18.074" height="19.129" id="XMLID_12_" x="-9.037" y="-9.564" transform="matrix(-0.7312 -0.2767 -0.2767 0.7312 309.6038 36.2981)" style="overflow:visible;"/>
	<path id="XMLID_70_" style="fill:#BC975C;stroke:#AD8E51;stroke-linecap:round;stroke-linejoin:round;stroke-miterlimit:10;" d="
		M277.411,72.699c-7.123-4.499-9.373-3.374-9.373-3.374c1.125,6.748,4.874,8.248,4.874,8.248c-7.873-5.999-9.373-6.373-9.373-6.373
		c0.75,1.5,1.5,3.749,1.5,3.749c-7.498-4.874-9.373-2.999-9.373-2.999c1.125,4.124,3.374,6.373,3.374,6.373
		c-6.748-1.125-8.248,0.75-8.248,0.75c1.875,2.249,5.999,5.624,5.999,5.624c-11.247-2.249-14.246,3.374-14.246,3.374
		c6.373,3.374,13.122,4.124,13.122,4.124c-5.249,1.5-10.497,8.248-10.497,8.248c5.624,0.375,25.12-1.5,25.12-1.5
		c2.624,1.875,40.866-1.5,40.866-1.5c4.124,2.999,17.246,4.124,17.246,4.124c-1.875-5.249-9.373-9.748-9.373-9.748
		c5.999,0.75,10.497-0.375,10.497-0.375c-1.125-1.125-7.873-4.124-7.873-4.124c4.499-1.5,7.123-8.248,7.123-8.248
		c-3.749-2.624-17.246,1.5-17.246,1.5c4.124-6.373,4.124-6.373,4.124-6.373c-5.249,0-8.623,5.249-8.623,5.249
		c-0.375-1.5,6.748-11.622,6.748-11.622c-2.624-0.375-16.871,5.624-16.871,5.624L277.411,72.699z"/>
	<path id="XMLID_80_" style="fill:none;stroke:#FFA543;stroke-linecap:round;stroke-linejoin:round;stroke-miterlimit:10;" d="
		M286.774,78.289c1.579,2.238,3.027,5.002,3.027,5.002c-1.712,3.16-5.529,7.503-5.529,7.503"/>
	<path id="XMLID_81_" style="fill:#60AEEF;stroke:#3D6EA0;stroke-linecap:round;stroke-linejoin:round;stroke-miterlimit:10;" d="
		M282.814,77.134c2.896,6.976,10.926,2.501,8.688-2.633"/>
	<path id="XMLID_72_" style="fill:#60AEEF;stroke:#3D6EA0;stroke-linecap:round;stroke-linejoin:round;stroke-miterlimit:10;" d="
		M271.412,55.828c-4.499-2.999-4.874-4.499-4.874-4.499c1.5-3.374,4.874-5.624,4.874-5.624c6.748-2.624,15.229-4.624,15.229-4.624
		c0,6.748-1.358,13.248-3.982,13.998c14.246,8.998,26.619,6.373,26.619,6.373c-1.5,7.498-13.497,16.871-18.371,16.871
		C286.034,78.322,264.289,73.823,271.412,55.828z"/>
	<path id="XMLID_73_" style="fill:#60AEEF;stroke:#3D6EA0;stroke-linecap:round;stroke-linejoin:round;stroke-miterlimit:10;" d="
		M277.559,60.957c5.529,11.453,19.877,9.083,24.616,0.658"/>
	<path id="XMLID_74_" style="fill:#60AEEF;stroke:#3D6EA0;stroke-linecap:round;stroke-linejoin:round;stroke-miterlimit:10;" d="
		M309.02,62.274c4.344-3.685,14.217-16.06,14.217-16.06c4.87,1.975,8.82,5.002,8.82,5.002
		C322.974,55.429,309.02,62.274,309.02,62.274z"/>
	<path id="XMLID_75_" style="fill:#8C8588;stroke:#564F51;stroke-linecap:round;stroke-linejoin:round;stroke-miterlimit:10;" d="
		M270.581,45.556c-3.027,1.185-9.215,0.263-9.215,0.263c3.291,5.134,7.503,8.03,7.503,8.03S272.03,47.925,270.581,45.556z"/>
	<path id="XMLID_77_" style="fill:none;stroke:#FFA543;stroke-linecap:round;stroke-linejoin:round;stroke-miterlimit:10;" d="
		M295.33,78.597c1.579,2.238,3.027,5.002,3.027,5.002c-1.712,3.16-5.529,7.503-5.529,7.503"/>
	<path id="XMLID_76_" style="fill:none;stroke:#231F20;stroke-linecap:round;stroke-linejoin:round;stroke-miterlimit:10;" d="
		M265.711,51.085c2.633,0.527,3.818,1.843,7.372,0"/>
	
		<ellipse id="XMLID_71_" transform="matrix(0.476 -0.8794 0.8794 0.476 101.3577 269.6404)" style="fill:none;stroke:#231F20;stroke-linecap:round;stroke-linejoin:round;stroke-miterlimit:10;" cx="276.957" cy="49.762" rx="1.054" ry="0.198"/>
	<path id="XMLID_78_" style="fill:#60AEEF;stroke:#3D6EA0;stroke-linecap:round;stroke-linejoin:round;stroke-miterlimit:10;" d="
		M289.537,76.886c2.896,6.976,10.926,2.501,8.688-2.633"/>
	<path id="XMLID_82_" style="fill:#D3B072;stroke:#AD8E51;stroke-linecap:round;stroke-linejoin:round;stroke-miterlimit:10;" d="
		M276.374,90.707c-3.423-3.16-5.924-9.741-5.924-9.741s9.478,1.712,12.638,7.109c0.395-5.134,0.658-6.451,0.658-6.451
		c2.633,2.106,5.002,9.741,5.002,9.741c1.712-4.081,5.529-6.714,5.529-6.714c-1.054,1.975-2.106,6.582-2.106,6.582
		c1.712-2.764,10.399-6.055,10.399-6.055c-1.448,2.238-4.344,5.397-4.344,5.397c0.79-0.395,9.215-4.212,9.215-4.212
		c-0.79,1.712-2.896,4.607-2.896,4.607c2.501-2.633,13.163-5.529,13.163-5.529c-2.633,5.397-7.24,9.083-7.24,9.083
		c5.66,0.527,13.032,8.424,13.032,8.424c-2.764,1.185-10.268,0.263-10.399-0.131c0.658,1.185,1.579,9.609,1.185,9.609
		c-4.608-1.448-7.372-7.899-7.372-7.899c-0.131,3.423-1.579,7.372-1.579,7.372c-3.027-2.238-5.529-7.503-5.529-7.503
		c0.79,8.161-3.16,13.032-4.081,12.9c-0.921-0.131-6.318-21.326-6.976-13.163c-0.658,8.161-3.818,11.584-4.081,11.19
		c-0.527-0.79-3.16-10.794-3.16-10.794c-1.975,3.16-8.951,9.873-8.951,9.873c-1.975-4.476,0-10.663,0-10.663
		c-3.291,4.081-7.766,10.531-8.424,6.845c-0.658-3.685,0.395-6.976,1.054-7.24c-3.818,3.423-8.03-1.185-8.03-1.185
		c2.106-5.529,13.296-5.66,9.083-8.03c-4.212-2.369-8.557-5.002-8.557-5.002c1.185-2.37,5.924-3.818,9.478-2.501
		c3.554,1.316,4.344,0.263,5.134-0.131C273.083,86.101,276.374,90.707,276.374,90.707z"/>
	<path id="XMLID_62_" style="fill:#BAD390;stroke:#617C48;stroke-linecap:round;stroke-linejoin:round;stroke-miterlimit:10;" d="
		M250.827,387.192c0.661-8.593-1.983-19.83-1.983-19.83c4.628,4.628,5.288,15.204,5.288,15.204
		c1.322-6.61,9.254-15.204,9.254-15.204c-1.322,2.645-3.305,15.864-3.305,15.864l10.576-9.916l-4.628,13.882"/>
	<path id="XMLID_64_" style="fill:#BAD390;stroke:#617C48;stroke-linecap:round;stroke-linejoin:round;stroke-miterlimit:10;" d="
		M212.288,366.946c-1.125-3.937-1.687-7.311-1.687-7.311c4.499,3.374,6.186,7.311,6.186,7.311l6.186-10.123l-1.687,10.123
		l6.186-2.812l-3.937,6.186"/>
	<path id="XMLID_28_" style="fill:#BAD390;stroke:#617C48;stroke-linecap:round;stroke-linejoin:round;stroke-miterlimit:10;" d="
		M102.07,263.152c-1.17-5.474-1.755-10.166-1.755-10.166c4.681,4.692,6.436,10.166,6.436,10.166l6.436-14.075l-1.755,14.075
		l6.436-3.909l-4.096,8.601"/>
	<path id="XMLID_65_" style="fill:#BAD390;stroke:#617C48;stroke-linecap:round;stroke-linejoin:round;stroke-miterlimit:10;" d="
		M416.241,329.716c-2.25-2.812-2.812-7.873-2.812-7.873c3.937,2.812,6.186,6.749,6.186,6.749l3.374-5.624l-0.562,6.186"/>
	<path id="XMLID_67_" style="fill:#BAD390;stroke:#617C48;stroke-linecap:round;stroke-linejoin:round;stroke-miterlimit:10;" d="
		M403.017,313.698c-1.125-9.56-3.374-12.372-3.374-12.372c4.499,3.937,6.186,9.56,6.186,9.56c1.687-5.624,5.061-8.436,5.061-8.436
		c-1.125,3.937-1.687,10.123-1.687,10.123l0.329-0.412l4.17-5.212c-1.125,7.311-1.125,7.311-1.125,7.311"/>
	<path id="XMLID_27_" style="fill:#BAD390;stroke:#617C48;stroke-linecap:round;stroke-linejoin:round;stroke-miterlimit:10;" d="
		M404.128,390.502c-1.768-15.029-5.304-19.448-5.304-19.448c7.072,6.189,9.724,15.028,9.724,15.028
		c2.652-8.841,7.956-13.261,7.956-13.261c-1.768,6.189-2.652,15.913-2.652,15.913l0.517-0.648l6.555-8.193
		c-1.768,11.492-1.768,11.492-1.768,11.492"/>
	<path id="XMLID_66_" style="fill:#BAD390;stroke:#617C48;stroke-linecap:round;stroke-linejoin:round;stroke-miterlimit:10;" d="
		M285.962,309.019c-1.687-3.937-5.061-10.685-5.061-10.685c4.499,3.374,5.624,7.311,5.624,7.311c0-3.937-5.061-14.06-5.061-14.06
		c8.436,7.311,7.873,11.248,7.873,11.248c0-2.25,2.25-10.123,2.25-10.123c0.562,5.624,1.125,10.685,1.125,10.685
		c0.562-3.374,10.123-10.123,10.123-10.123c-2.812,2.25-6.186,10.123-6.186,10.123l5.624-3.937l-2.25,10.123"/>
	<path id="XMLID_26_" style="fill:#BAD390;stroke:#617C48;stroke-linecap:round;stroke-linejoin:round;stroke-miterlimit:10;" d="
		M517.48,357.191c-1.687-3.937-5.061-10.685-5.061-10.685c4.499,3.374,5.624,7.311,5.624,7.311c0-3.937-5.061-14.06-5.061-14.06
		c8.436,7.311,7.873,11.248,7.873,11.248c0-2.25,2.25-10.123,2.25-10.123c0.562,5.624,1.125,10.685,1.125,10.685
		c0.562-3.374,10.123-10.123,10.123-10.123c-2.812,2.25-6.186,10.123-6.186,10.123l5.624-3.937l-2.25,10.123"/>
	<path id="XMLID_22_" style="fill:#80BC69;stroke:#467736;stroke-linecap:round;stroke-linejoin:round;stroke-miterlimit:10;" d="
		M454.221,158.235c13.315-11.235,23.718-1.248,9.986,4.994c15.396,3.329,1.665,16.644-7.906,7.489"/>
	<path id="XMLID_25_" style="fill:#80BC69;stroke:#467736;stroke-linecap:round;stroke-linejoin:round;stroke-miterlimit:10;" d="
		M454.221,91.659c13.731-12.483,22.885,5.41,6.242,8.738"/>
	<path id="XMLID_23_" style="fill:#BAD390;stroke:#617C48;stroke-linecap:round;stroke-linejoin:round;stroke-miterlimit:10;" d="
		M54.607,356.551c-1.393-4.877-5.922-15.675-5.922-15.675c5.225,5.922,7.315,10.45,7.315,10.45l5.225-7.664l-2.438,11.844"/>
	<path id="XMLID_29_" style="fill:#BAD390;stroke:#617C48;stroke-linecap:round;stroke-linejoin:round;stroke-miterlimit:10;" d="
		M117.254,412.419c0-4.421-6.832-15.675-6.832-15.675c7.235,5.225,11.656,10.852,11.656,10.852
		c-0.804-6.431-2.813-10.852-2.813-10.852c4.823,3.215,6.029,14.067,6.431,12.46c0.804-3.617,10.45-10.852,10.45-10.852
		c-3.215,4.823-5.627,13.263-5.627,12.862c0-0.401,6.832-3.617,6.832-3.617l-5.225,8.039"/>
	<path id="XMLID_30_" style="fill:#BAD390;stroke:#617C48;stroke-linecap:round;stroke-linejoin:round;stroke-miterlimit:10;" d="
		M584.695,417.242c-1.205-6.029-7.235-18.087-7.235-18.087c8.44,5.627,9.646,11.656,9.646,11.656
		c-0.401-6.832-1.205-12.46-1.205-12.46c4.019,4.421,5.627,12.058,5.225,12.862c1.608-4.421,9.646-8.843,9.646-8.843l-6.431,12.058"
		/>
	<path id="XMLID_31_" style="fill:#BAD390;stroke:#617C48;stroke-linecap:round;stroke-linejoin:round;stroke-miterlimit:10;" d="
		M581.078,298.271c0.401-3.215-2.009-10.852-2.009-10.852c5.225,2.412,5.627,7.235,5.627,7.235c0.402-2.009,7.636-8.44,7.636-8.44
		l-4.421,9.646l6.029-2.009l-3.617,6.029"/>
	<path id="XMLID_32_" style="fill:#BAD390;stroke:#617C48;stroke-linecap:round;stroke-linejoin:round;stroke-miterlimit:10;" d="
		M483.846,264.972c-0.564-5.648-3.953-11.296-3.953-11.296l7.342,6.212l2.823-11.296c0,0,0.564,14.685,1.694,12.99
		c1.13-1.695,6.778-5.083,6.778-5.083s-1.13,5.648-2.259,6.778"/>
	
		<polyline id="XMLID_33_" style="fill:#BAD390;stroke:#617C48;stroke-linecap:round;stroke-linejoin:round;stroke-miterlimit:10;" points="
		219.026,265.573 216.631,253.357 222.019,260.02 227.408,250.024 225.612,263.351 233.396,256.688 230.402,265.573 	"/>
	<path id="XMLID_36_" style="fill:#80BC69;stroke:#467736;stroke-linecap:round;stroke-linejoin:round;stroke-miterlimit:10;" d="
		M495.153,98.993"/>
</g>
</svg>
