<svg id="Layer_6_copy" data-name="Layer 6 copy" xmlns="http://www.w3.org/2000/svg" viewBox="0 0 98.731 82.3" width="98.731" height="82.3">
    <defs>
        <style>
            .cls-1{fill:#eac08c}.cls-2{fill:#619cf2;stroke:#619cf2}.cls-10,.cls-11,.cls-2,.cls-3,.cls-4,.cls-5,.cls-6,.cls-7,.cls-8,.cls-9{stroke-miterlimit:10;stroke-width:.04px}.cls-3{fill:#033f87;stroke:#033f87}.cls-4{fill:#bf966a;stroke:#bf966a}.cls-5{fill:#8e6b44;stroke:#8e6b44}.cls-6{fill:#cea574;stroke:#cea574}.cls-7{fill:#e0b882;stroke:#e0b882}.cls-8{fill:#f28b7c;stroke:#f28b7c}.cls-9{fill:#eb5f44;stroke:#eb5f44}.cls-10{fill:#024cb7;stroke:#004bc4}.cls-11{fill:#a52604;stroke:#a52604}
        </style>
    </defs>
    <title>
        ping pong paddles
    </title>
    <path d="M77.8 50.54l.01.11h-.01v-.11zM67.17 76.68a1.71 1.71 0 0 1-.09.3c-.01-.05-.01-.11-.02-.16a.21.21 0 0 0 .11-.14zm-.8-2.31a.57.57 0 0 1-.11-.11v-.01a.57.57 0 0 1 .11.12zm-.83-31.09c.02-.01.05-.01.07-.02a.3.3 0 0 0-.08.04.02.02 0 0 0 .01-.02zm-.95.4h.02l-.01.01a.01.01 0 0 0-.01-.01zm-3.21 1.31a.142.142 0 0 0-.06.02l.08-.06a.076.076 0 0 0-.02.04zm.21-3.84c-.8-.42-1.6-.85-2.39-1.28.7.34 1.44.72 2.18 1.12.46.25.93.51 1.37.77-.38-.2-.77-.41-1.16-.61zm-3.68-1.05a.17.17 0 0 0-.05-.02.41.41 0 0 1 .04-.09.866.866 0 0 0 .01.11zm-.64 2.46a.02.02 0 0 0 .02.01.133.133 0 0 1-.03.05.127.127 0 0 0 .01-.06z"/>
    <path class="cls-1" d="M55.56 59.96c.09-.13.18-.27.27-.41s.16-.26.23-.38c2.18 2.8 4.17 5.46 5.96 7.92.66.91 1.29 1.79 1.9 2.64a27.413 27.413 0 0 1 1.66 2.47 6.143 6.143 0 0 1 .49 1.21.97.97 0 0 0-.42-.16.277.277 0 0 0-.09-.01c-.69-.94-1.74-2.38-3.04-4.13-1.2-1.59-2.58-3.48-4.11-5.45-.92-1.19-1.87-2.44-2.85-3.7z"/>
    <path class="cls-1" d="M54.93 59.13c.16-.21.35-.44.55-.71.2.25.39.5.58.74v.01c-.07.12-.15.25-.23.38s-.18.28-.27.41c-.21-.28-.42-.55-.63-.83z"/>
    <path class="cls-1" d="M54.83 58.91c.15-.24.29-.49.44-.76l.21.27c-.2.27-.39.5-.55.71a1.092 1.092 0 0 1-.13-.17c.01-.02.02-.03.03-.05z"/>
    <path class="cls-1" d="M54.78 58.93c.13-.24.28-.52.45-.83a.1.1 0 0 1 .04.05c-.15.27-.29.52-.44.76-.01.02-.02.03-.03.05a.053.053 0 0 1-.02-.03z"/>
    <path class="cls-1" d="M53.76 57.62c.16-.26.32-.53.48-.79.33.43.66.85.99 1.27-.17.31-.32.59-.45.83-.34-.43-.68-.87-1.02-1.31z"/>
    <path class="cls-1" d="M53.63 57.45l-.34-.43c.16-.25.32-.51.49-.76.16.19.31.38.46.57-.16.26-.32.53-.48.79-.04-.06-.09-.11-.13-.17z"/>
    <path class="cls-1" d="M52.99 56.64l.48-.77c.11.13.21.26.31.39-.17.25-.33.51-.49.76-.1-.13-.2-.25-.3-.38zm1.26-10.65c-.57.71-1.19 1.47-1.84 2.27a19.144 19.144 0 0 1 1.84-3.49c.75-.97 1.46-1.91 2.1-2.78h.01c.06-.08.11-.16.16-.23q.45-.6.84-1.14c.15-.2.29-.4.43-.59.02.01.04.03.07.05-.04.1-.12.29-.2.54a8.578 8.578 0 0 0-.32 1.4c-.01.04-.01.07-.02.11l-.03.2c-.04.05-.09.1-.13.16-.74.88-1.74 2.08-2.91 3.5z"/>
    <path class="cls-1" d="M52.99 56.64c-.23-.29-.47-.59-.71-.89.16-.26.32-.52.47-.78l.12.15.6.75z"/>
    <path class="cls-2" d="M76.7 1.6a.292.292 0 0 0-.09.02h.16c.08 0 .16.01.23.01v-.01a.736.736 0 0 0-.3-.02z"/>
    <path class="cls-2" d="M95.15 13.78a15.915 15.915 0 0 0-1.41-3.29 16.29 16.29 0 0 0-4.3-4.95 22.266 22.266 0 0 0-8.43-3.88 1.74 1.74 0 0 0-.22-.05 28.306 28.306 0 0 0-19.15 3.03 33.054 33.054 0 0 0-8.27 6.52c-.39.42-.77.85-1.13 1.29.26-.27.54-.54.83-.82v-.01a.728.728 0 0 1 .49-.46h.01a37.4 37.4 0 0 1 3.74-3.12l.03-.03a.47.47 0 0 1 .12-.09.265.265 0 0 1 .06-.05c.35-.25.72-.51 1.09-.76a.72.72 0 0 1 .53-.35q.51-.33 1.05-.66a.758.758 0 0 1 .51-.32h.04a29.226 29.226 0 0 1 15.4-4.18h.02a.607.607 0 0 1 .32-.13.73.73 0 0 1 .52.15c.02.01.04.01.06.02a22.9 22.9 0 0 1 3.98.54.406.406 0 0 1 .21.05 19.115 19.115 0 0 1 11.39 7.66.933.933 0 0 1 .29.41 20.735 20.735 0 0 1 1.6 2.75 23.17 23.17 0 0 1 1.12 2.55v-.02c-.18-.62-.3-1.23-.5-1.8z"/>
    <path class="cls-3" d="M97.81 16.36a21.5 21.5 0 0 0-5.35-9.67 22.226 22.226 0 0 0-9.66-5.6 29.345 29.345 0 0 0-21.75 2.45 34.124 34.124 0 0 0-8.65 6.72c-.47.51-.93 1.02-1.36 1.54-.59.68-1.15 1.39-1.67 2.12.13.17.25.35.38.53.15.21.29.42.44.64.48-.69 1-1.39 1.57-2.06a1.553 1.553 0 0 1 .08-.23.763.763 0 0 1 .37-.32l.03-.03c.36-.44.74-.87 1.13-1.29a33.054 33.054 0 0 1 8.27-6.52 28.306 28.306 0 0 1 19.15-3.03 1.74 1.74 0 0 1 .22.05 22.266 22.266 0 0 1 8.43 3.88 16.29 16.29 0 0 1 4.3 4.95 15.915 15.915 0 0 1 1.41 3.29c.2.57.32 1.18.5 1.8v.02a.037.037 0 0 1 .01.03c.13.59.27 1.19.36 1.81a26.1 26.1 0 0 1 .09 7.85 30.12 30.12 0 0 1-.82 3.86 32.52 32.52 0 0 1-1.43 3.94c-.27.63-.57 1.25-.88 1.85a30.124 30.124 0 0 1-3.3 5.13 21.273 21.273 0 0 1-2.72 2.88c-.98.81-2.12 1.57-3.16 2.31-1.03.7-2.05 1.36-3.08 1.94a.208.208 0 0 1-.1.06.238.238 0 0 1-.13.07l-.06.03a13.326 13.326 0 0 1-1.96 1.02c-.06.03-.11.05-.17.08-.59-.33-1.22-.68-1.9-1.05-1.88-1.03-4.08-2.22-6.43-3.49-1.19-.64-2.43-1.3-3.68-1.97-.09-.05-.19-.1-.28-.15-1.14-.61-2.29-1.22-3.44-1.84-.31-.16-.61-.32-.92-.48a.818.818 0 0 1-.37-.19l-.01-.01a.01.01 0 0 1-.01-.01c-.36-.19-.72-.37-1.07-.56h-.02a.7.7 0 0 1-.36-.19.042.042 0 0 1-.04-.03c-.01.01-.01 0-.01 0-.23-.12-.45-.23-.67-.35a.538.538 0 0 0-.13-.07c-.65-.34-1.3-.68-1.94-1.02s-1.25-.66-1.87-.98c-.31-.16-.62-.32-.92-.48-.02.14-.05.29-.07.43.26.14.52.29.78.43q.976.526 1.98 1.05c.56.31 1.13.61 1.71.92a1.863 1.863 0 0 0 .2.1c1.16.63 2.33 1.25 3.51 1.88 1.13.6 2.27 1.19 3.39 1.77a2.21 2.21 0 0 0 .34.18c1.26.67 2.5 1.32 3.7 1.95 2.38 1.23 4.6 2.37 6.5 3.35.64.32 1.25.63 1.81.91-.25.11-.49.22-.74.32-.07.03-.15.06-.22.09q-.69-.374-1.47-.81c-1.88-1.03-4.08-2.22-6.43-3.49q-1.664-.9-3.42-1.83c-.14-.08-.28-.15-.42-.22-1.17-.63-2.37-1.27-3.56-1.91-1.1-.58-2.21-1.16-3.3-1.73-.09-.05-.18-.1-.28-.15-.49-.25-.98-.51-1.46-.76-.81-.42-1.6-.84-2.38-1.25-.13-.06-.25-.13-.37-.19-.03.14-.06.29-.1.43.08.04.17.09.26.14.81.43 1.64.87 2.48 1.33l1.23.66c.12.05.23.12.35.18.29.15.58.31.87.46a.2.2 0 0 0 .08.04c.7.34 1.44.72 2.18 1.12.46.25.93.51 1.37.77l.01.01q1.186.616 2.34 1.23c.15.08.31.16.46.24a.106.106 0 0 1 .05.02c1.16.61 2.3 1.21 3.41 1.79 1.77.92 3.46 1.78 4.99 2.58a.037.037 0 0 0 .03.01c1.3.71 2.14 1.2 2.65 1.51.49.3.7.44.74.47v.01h.01l.08 1.02c-.01 0-.01.01-.02.01l.09 1.26c.09-.04.19-.07.28-.11.25-.1.49-.2.73-.31.1-.04.2-.08.29-.12.44-.2.88-.4 1.32-.62a.105.105 0 0 0 .05-.02.01.01 0 0 0 .01-.01h.02c.35-.17.7-.34 1.04-.52a.21.21 0 0 0 .06-.04 32.82 32.82 0 0 0 13.6-12.87 29.152 29.152 0 0 0 3.42-10.08 26.6 26.6 0 0 0-.6-10.86zM78.52 50.24q-.36.166-.72.3l.01.11h-.01v-.11l-.03-.63-.02-.4a1.1 1.1 0 0 0 .15-.08h.05a5.314 5.314 0 0 0 .5-.21l.02.23v.03l.01.05v.02l.01.1.07.57c-.01.01-.03.01-.04.02zm19.04-23.15a28.12 28.12 0 0 1-3.4 9.73 32.012 32.012 0 0 1-14.01 12.67.61.61 0 0 1-.12.05c-.09.05-.19.1-.28.14-.25.12-.49.24-.74.34a.607.607 0 0 1-.14.07c-.02.01-.03.01-.05.02l-.01-.07-.02-.3-.01-.08v-.05l-.05-.51a2.046 2.046 0 0 0 .22-.09 1.547 1.547 0 0 0 .19-.08 33.882 33.882 0 0 0 5.15-2.95c1.08-.76 2.16-1.45 3.25-2.34a21.87 21.87 0 0 0 2.87-2.98 31.883 31.883 0 0 0 4.36-7.17 30.248 30.248 0 0 0 2.26-8.07 26.865 26.865 0 0 0-.16-8.12c-.1-.66-.26-1.3-.4-1.94-.17-.61-.32-1.24-.54-1.84-.09-.29-.2-.57-.31-.84a23.457 23.457 0 0 1 1.43 3.88 25.164 25.164 0 0 1 .51 10.53z"/>
    <path class="cls-1" d="M52.28 55.75c-.84-1.06-1.67-2.12-2.49-3.15.17-.23.35-.46.52-.68.83 1.08 1.65 2.05 2.44 3.05-.15.26-.31.52-.47.78z"/>
    <path class="cls-4" d="M55.93 57.01c.12.14.22.28.32.41l.17-.23q.66-.884 1.41-1.95c-.12-.09-.25-.18-.39-.28a10.2 10.2 0 0 0-1.51 2.05zm1.26-2.23c-.36-.27-.76-.56-1.16-.86-.37.59-.74 1.19-1.1 1.78q.5.63.96 1.26c.02-.03.03-.05.05-.08.37-.64.79-1.35 1.25-2.1zm1.06-15.41c-.12-.06-.23-.13-.35-.18l-1.23-.66c-.84-.46-1.67-.9-2.48-1.33-.09-.05-.18-.1-.26-.14a22.4 22.4 0 0 1-.54 2.03 29.027 29.027 0 0 1-1.8 4.44c-.02.04-.04.09-.06.13-.45.95-1.02 1.85-1.35 2.69a3.893 3.893 0 0 1-.04.5 4.757 4.757 0 0 1 .03 1.45c.44-.56.89-1.12 1.34-1.68.85-1.05 1.72-2.1 2.55-3.08.58-.69 1.14-1.35 1.67-1.96h.01a.375.375 0 0 0 .06-.07c.01-.01.02-.03.03-.04.38-.43.74-.84 1.08-1.21.16-.18.32-.35.46-.51.17-.18.33-.34.48-.5.12.05.24.11.36.16h.01q.436.21.9.42c-.29-.15-.58-.31-.87-.46zm-3.13 13.87c-.3-.24-.6-.47-.89-.69a12.55 12.55 0 0 1-2.02-1.78 1.775 1.775 0 0 1-.16-1.14c-.29.4-.6.79-.9 1.2.04.06.09.12.13.18.7.93 1.46 1.88 2.18 2.8.14.17.28.35.41.52l.31.4c.11.13.21.27.31.4.34-.54.68-1.07 1.01-1.61-.13-.09-.25-.19-.38-.28zm-.87-8.47c-.64.81-1.3 1.65-1.97 2.48-.63.78-1.27 1.56-1.9 2.31a7.274 7.274 0 0 0 .4.72c.56-.7 1.11-1.37 1.63-2.02a19.143 19.143 0 0 1 1.84-3.49z"/>
    <path class="cls-1" d="M50.14 46.85a1.892 1.892 0 0 0-.05-.23v-.01a1.338 1.338 0 0 1 .09-.26 3.9 3.9 0 0 1-.04.5zm-.63-4.55c.1-.21.21-.42.32-.64a19.605 19.605 0 0 0 2.34-3.42c-.03.14-.08.29-.12.43-.15.49-.32.98-.51 1.45-.22.35-.44.68-.65 1.02-.34.53-.65 1.06-.92 1.57a4.24 4.24 0 0 1-.46-.41zm-.14 9.76c.18-.23.35-.45.53-.67a.5.5 0 0 1 .07.08.022.022 0 0 1 .02.02c.07.11.15.21.22.31a1.06 1.06 0 0 0 .1.12c-.17.22-.35.45-.52.68-.14-.18-.29-.36-.42-.54z"/>
    <path class="cls-1" d="M49.66 43.33c-.09-.23-.19-.47-.29-.72.04-.1.09-.2.14-.31a4.24 4.24 0 0 0 .46.41c-.11.21-.21.41-.31.62zm-.83 8.06l.54-.63c.18.22.36.43.53.63-.18.22-.35.44-.53.67h-.01c-.18-.23-.35-.45-.53-.67z"/>
    <path class="cls-1" d="M49.37 44.01c-.09-.22-.19-.45-.3-.68q.136-.344.3-.72c.1.25.2.49.29.72-.11.23-.21.46-.29.68z"/>
    <path class="cls-1" d="M49.19 44.47c-.1-.2-.21-.4-.31-.59.06-.18.12-.36.19-.55.11.23.21.46.3.68-.07.16-.13.31-.18.46zm.18 6.29l-.54.63a.01.01 0 0 0-.01-.01c.16-.23.31-.47.46-.72a.9.9 0 0 0 .09.1z"/>
    <path class="cls-1" d="M48.55 46.34a6.15 6.15 0 0 1 .12-1.61 7.02 7.02 0 0 1 .21-.85c.1.19.21.39.31.59-.04.12-.08.24-.11.36a5.913 5.913 0 0 0-.23 1.09 5.01 5.01 0 0 0-.2.69c-.03-.09-.07-.18-.1-.27zm.22 4.97l-.47-.59c.16-.21.32-.43.49-.65.16.2.33.4.49.59-.15.25-.3.49-.46.72a.3.3 0 0 0-.05-.07z"/>
    <path class="cls-1" d="M48.59 46.85a4.058 4.058 0 0 1-.04-.51c.03.09.07.18.1.27v.01a1.948 1.948 0 0 0-.06.23zm-.64 3.43a7.28 7.28 0 0 0 .4-.72c.15.17.29.34.44.51-.17.22-.33.44-.49.65z"/>
    <path d="M41.44 42.57a.02.02 0 0 0 .02-.01.127.127 0 0 0 .01.06.133.133 0 0 1-.03-.05z"/>
    <path class="cls-1" d="M41.07 40.62c-.08-.25-.16-.44-.2-.54.03-.02.05-.04.07-.05.14.19.28.39.43.59q.39.54.84 1.14c.05.07.1.15.16.23h.01c1.18 1.6 2.6 3.44 4.07 5.26.63.78 1.27 1.56 1.9 2.31a7.28 7.28 0 0 1-.4.72c-1.25-1.56-2.44-3.01-3.47-4.29a467.29 467.29 0 0 0-2.91-3.5c-.04-.06-.09-.11-.13-.16l-.03-.2c-.01-.04-.01-.07-.02-.11a8.578 8.578 0 0 0-.32-1.4z"/>
    <path d="M40.87 40.08a.17.17 0 0 0-.05.02.866.866 0 0 0 .01-.11.41.41 0 0 1 .04.09zm-1.32-.37a.826.826 0 0 1-.13.07c.05-.03.09-.05.13-.07zm-2.14 5.3a.142.142 0 0 0-.06-.02.076.076 0 0 0-.02-.04zm-.27-3.86c-.39.2-.78.41-1.16.61.44-.26.91-.52 1.37-.77.74-.4 1.48-.78 2.18-1.12-.79.43-1.59.86-2.39 1.28zm.28-.29c-.39.2-.78.41-1.16.61.44-.26.91-.52 1.37-.77.61-.33 1.21-.64 1.79-.92-.66.37-1.33.73-2 1.08zm-3.3 2.82h.02a.01.01 0 0 0-.01.01zm-.65-.69a.02.02 0 0 0 .01.02.3.3 0 0 0-.08-.04c.02.01.05.01.07.02zm-.27.31a.3.3 0 0 0-.08-.04c.02.01.05.01.07.02a.02.02 0 0 0 .01.02z"/>
    <path class="cls-1" d="M33.08 73.25a.97.97 0 0 0-.42.16 6.143 6.143 0 0 1 .49-1.21 27.413 27.413 0 0 1 1.66-2.47c.61-.85 1.24-1.73 1.9-2.64 1.79-2.46 3.78-5.12 5.96-7.92.07.12.15.25.23.38s.18.28.27.41c-.98 1.26-1.93 2.51-2.85 3.7-1.53 1.97-2.91 3.86-4.11 5.45-1.3 1.75-2.35 3.19-3.04 4.13a.277.277 0 0 0-.09.01z"/>
    <path d="M32.47 74.26a.17.17 0 0 1-.06.06c.02-.03.05-.07.08-.12a.037.037 0 0 0-.01.03c0 .01-.01.01-.01.02v.01zm-.82 2.72a1.71 1.71 0 0 1-.09-.3.21.21 0 0 0 .11.14c-.01.05-.01.11-.02.16z"/>
    <path class="cls-5" d="M58.43 55.67a3.49 3.49 0 0 1 .62-.47 3.213 3.213 0 0 1 1.62-.46c.67-.03 1.36-.05 2.05-.07a60.8 60.8 0 0 0 8.67-.96 33.45 33.45 0 0 0 6.2-1.79l-.09-1.26a47.06 47.06 0 0 1-14.82 2.79c-.69.02-1.38.05-2.05.07a4.456 4.456 0 0 0-1.95.51c.1-.14.2-.28.3-.43a.01.01 0 0 1 .01-.01 6.908 6.908 0 0 1 2.15-.95 29.492 29.492 0 0 1 4.33-.44 46.7 46.7 0 0 0 5.66-.71 35.168 35.168 0 0 0 6.3-1.86v-.01c-.04-.03-.25-.17-.74-.47a33.78 33.78 0 0 1-4.49 1.5h-.03c-.39.11-.77.2-1.15.28-2.02.44-3.91.69-5.59.89a28.076 28.076 0 0 0-4.34.63 6.637 6.637 0 0 0-1.96.93c.64-.92 1.29-1.89 1.93-2.86.39-.59.77-1.19 1.14-1.77 1.11-1.74 2.15-3.42 2.96-4.82.07-.11.13-.22.19-.32.03-.05.06-.11.09-.16-.04-.02-.07-.05-.11-.07h-.01v-.01a.01.01 0 0 1-.01-.01 8.9 8.9 0 0 0-.32-.21c-.64-.43-1.41-.9-2.23-1.38l-.01-.01c-.38-.2-.77-.41-1.16-.61-.8-.42-1.6-.85-2.39-1.28a.2.2 0 0 1-.08-.04q-.464-.21-.9-.42h-.01c-.12-.05-.24-.11-.36-.16-.15.16-.31.32-.48.5-.14.16-.3.33-.46.51-.34.37-.7.78-1.08 1.21-.01.01-.02.03-.03.04a.375.375 0 0 1-.06.07h-.01c-.53.61-1.09 1.27-1.67 1.96-.83.98-1.7 2.03-2.55 3.08-.45.56-.9 1.12-1.34 1.68a4.757 4.757 0 0 0-.03-1.45 1.887 1.887 0 0 0-.05-.23v-.01a1.34 1.34 0 0 1 .09-.26c.33-.84.9-1.74 1.35-2.69.02-.04.04-.09.06-.13a29.027 29.027 0 0 0 1.8-4.44c.21-.66.39-1.34.54-2.03.04-.14.07-.29.1-.43.05-.2.09-.41.13-.61.02-.14.05-.29.07-.43s.05-.3.07-.45a.51.51 0 0 0 .03-.17c.03-.16.05-.31.07-.47a.02.02 0 0 0 .01-.02c.03-.2.05-.4.07-.6a.06.06 0 0 0 .01-.04.712.712 0 0 0 .01-.14.02.02 0 0 0 .01-.02c.01-.14.03-.27.03-.4a.035.035 0 0 0 .01-.02.664.664 0 0 0 .01-.14.615.615 0 0 0 .01-.14.984.984 0 0 0 .02-.17c0-.04.01-.08.01-.12a2.435 2.435 0 0 0 .01-.27.035.035 0 0 0 .01-.02.565.565 0 0 0 0-.13.037.037 0 0 0 .01-.03v-.12a.075.075 0 0 0 .01-.05c0-.07.01-.13.01-.2a.032.032 0 0 1 0-.03 1.53 1.53 0 0 0 .028-.2 2.283 2.283 0 0 0-.207.126.747.747 0 0 0-.12.07c-.01 0-.01.01-.02.01-.31.17-.65.36-1.01.55a.3.3 0 0 1-.11.06c-.06.83-.15 1.64-.29 2.45-.02.13-.04.27-.07.4-.03.18-.06.36-.1.54 0 .02-.01.04-.01.06s-.01.03-.01.04l-.12.39a2.608 2.608 0 0 0-.1.25 44.07 44.07 0 0 1-2.21 4.2c-.16.29-.32.58-.47.87a19.606 19.606 0 0 0 2.34-3.42c-.03.14-.08.29-.12.43-.15.49-.32.98-.51 1.45a27.574 27.574 0 0 1-1.2 2.79.252.252 0 0 1-.04.07l-.45.9c-.1.19-.21.39-.31.59-.06.11-.12.22-.17.33a.636.636 0 0 0-.08.14c-.15.31-.31.63-.44.98a5 5 0 0 0-.2.69v.01a1.943 1.943 0 0 0-.06.23 4.757 4.757 0 0 0-.03 1.45c-.44-.56-.89-1.12-1.34-1.68-.85-1.05-1.72-2.1-2.55-3.08-.58-.69-1.14-1.35-1.67-1.96a.522.522 0 0 1-.1-.11c-.38-.43-.74-.84-1.08-1.21-.16-.18-.32-.35-.46-.51-.17-.18-.33-.34-.48-.5-.12.05-.24.11-.36.16h-.01c-.26.13-.54.26-.82.38-.03.01-.05.03-.08.04a.2.2 0 0 1-.08.04c-.79.43-1.59.86-2.39 1.28-.39.2-.78.41-1.16.61l-.01.01c-.82.48-1.59.95-2.23 1.38a8.9 8.9 0 0 0-.32.21.01.01 0 0 1-.01.01v.01h-.01c-.04.02-.07.05-.11.07.03.05.06.11.09.16.06.1.12.21.19.32.81 1.4 1.85 3.08 2.96 4.82.37.58.75 1.18 1.14 1.77.64.97 1.29 1.94 1.93 2.86a6.637 6.637 0 0 0-1.96-.93 28.076 28.076 0 0 0-4.34-.63c-1.68-.2-3.57-.45-5.59-.89-.38-.08-.76-.17-1.15-.28h-.03a33.78 33.78 0 0 1-4.49-1.5c-.2.12-.36.22-.47.29l-.02.29a35.316 35.316 0 0 0 6.05 1.76 46.7 46.7 0 0 0 5.66.71 29.492 29.492 0 0 1 4.33.44 6.908 6.908 0 0 1 2.15.95.01.01 0 0 1 .01.01c.1.15.2.29.3.43a4.456 4.456 0 0 0-1.95-.51c-.67-.02-1.36-.05-2.05-.07a47.06 47.06 0 0 1-14.82-2.79l-.09 1.26a33.45 33.45 0 0 0 6.2 1.79 60.8 60.8 0 0 0 8.67.96c.69.02 1.38.04 2.05.07a3.213 3.213 0 0 1 1.62.46 7.34 7.34 0 0 1 2.26 2.72c.02.04.05.08.07.12-2.27 2.99-4.33 5.81-6.18 8.42-.64.92-1.27 1.82-1.87 2.68-.17.25-.35.5-.51.75-.13.18-.26.37-.39.56a.606.606 0 0 1-.07.1c-.63.91-1.29 1.88-1.37 2.09-.16.43-.51 3.08-.06 4.04a.21.21 0 0 0 .11.14c-.01.05-.01.11-.02.16a3.642 3.642 0 0 0 .14.35 3.82 3.82 0 0 0 .76 1.08c.31.31.57.52.87.77.57.46 1.13.86 1.66 1.22a15.54 15.54 0 0 0 2.89 1.53 4.926 4.926 0 0 0 1.2.33 5.484 5.484 0 0 0 .91 0 4.387 4.387 0 0 0 .6-.09c.07-.01.11-.02.11-.02l.02-.01s.04-.01.14-.03c0-.01.01-.01.02-.01l.05-.01.08-.02c.03-.01.07-.03.11-.04a2.537 2.537 0 0 0 .34-.13 3.8 3.8 0 0 0 1.55-1.5c.95-1.48 2.27-3.64 3.91-6.43.72-1.21 1.5-2.55 2.36-3.99.85 1.44 1.63 2.78 2.35 3.99 1.64 2.79 2.96 4.95 3.91 6.43a3.8 3.8 0 0 0 1.55 1.5 2.537 2.537 0 0 0 .34.13c.04.01.08.03.11.04l.08.02.05.01c.01 0 .02 0 .02.01.1.02.14.03.14.03l.02.01s.04.01.11.02a4.387 4.387 0 0 0 .6.09 5.484 5.484 0 0 0 .91 0 4.926 4.926 0 0 0 1.2-.33 15.54 15.54 0 0 0 2.89-1.53c.53-.36 1.09-.76 1.66-1.22.3-.25.56-.46.87-.77a3.82 3.82 0 0 0 .76-1.08 3.626 3.626 0 0 0 .14-.35c-.01-.05-.01-.11-.02-.16a.21.21 0 0 0 .11-.14c.45-.96.1-3.61-.06-4.04-.08-.21-.74-1.18-1.37-2.09a.6.6 0 0 1-.07-.1c-.13-.19-.26-.38-.39-.56-.16-.25-.34-.5-.51-.75-.6-.86-1.23-1.76-1.87-2.68-1.85-2.61-3.91-5.43-6.18-8.42.02-.04.05-.08.07-.12a9.725 9.725 0 0 1 1.64-2.245zm6.18-11.99l-.01.01a145.64 145.64 0 0 0-4.37 6.28c-1.08 1.65-2.13 3.31-3.04 4.81a94.3 94.3 0 0 0-1.25 2.1c-.02.03-.03.05-.05.08q-.464-.63-.96-1.26c.36-.59.73-1.19 1.1-1.78a1.856 1.856 0 0 1 .11-.19c.9-1.45 1.77-2.91 2.65-4.38.86-1.46 1.74-2.89 2.59-4.36a.142.142 0 0 0-.06.02l.08-.06a.076.076 0 0 0-.02.04c.1-.05.21-.09.31-.13s.18-.07.27-.11c.88-.35 1.76-.71 2.63-1.07h.02zM54.49 55.13c-.1-.13-.2-.27-.31-.4l-.31-.4c-.13-.17-.27-.35-.41-.52-.72-.92-1.48-1.87-2.18-2.8-.04-.06-.09-.12-.13-.18.3-.41.61-.8.9-1.2.91-1.21 1.76-2.35 2.53-3.38 1.09-1.46 2.01-2.71 2.68-3.63a.127.127 0 0 0 .01-.06.02.02 0 0 0 .02.01 31.364 31.364 0 0 0 1.55.89c.18.1.35.19.53.29.45.24.9.45 1.31.65.23.1.45.2.65.29a.49.49 0 0 1-.11.04l-.05.01-.03.05c-.95 1.42-1.86 2.86-2.79 4.29s-1.86 2.86-2.76 4.3c-.03.05-.06.09-.09.14-.33.54-.67 1.07-1.01 1.61zm6.42-13.26c1.24.68 2.51 1.29 3.57 1.76-.94.31-1.87.63-2.8.94a.752.752 0 0 1-.12-.07c-.66-.43-1.56-.98-2.48-1.47-.44-.24-.88-.47-1.3-.67a2.556 2.556 0 0 0 .05-.27c.02-.11.03-.22.04-.32a.77.77 0 0 0 .02-.15 8.47 8.47 0 0 0 .05-.96c-.01-.24-.02-.44-.03-.55.89.56 1.93 1.18 3 1.76zm-8.63 5.38c.67-.83 1.33-1.67 1.97-2.48.75-.97 1.46-1.91 2.1-2.78h.01c.06-.08.11-.16.16-.23q.45-.6.84-1.14c.15-.2.29-.4.43-.59.02.01.04.03.07.05a.408.408 0 0 1 .04-.09.865.865 0 0 0 .01.11.17.17 0 0 0-.05-.02c-.04.1-.12.29-.2.54a8.58 8.58 0 0 0-.32 1.4c-.01.04-.01.07-.02.11l-.03.2c-.04.05-.09.1-.13.16-.74.88-1.74 2.08-2.91 3.5-.57.71-1.19 1.47-1.84 2.27-.52.65-1.07 1.32-1.63 2.02a7.274 7.274 0 0 1-.4-.72c.63-.75 1.27-1.53 1.9-2.31zm-14.46-5.38c1.07-.58 2.11-1.2 3-1.76-.01.11-.02.31-.03.55a8.47 8.47 0 0 0 .05.96.77.77 0 0 0 .02.15c.01.1.02.21.04.32a2.556 2.556 0 0 0 .05.27c-.42.2-.86.43-1.3.67-.92.49-1.82 1.04-2.48 1.47a.752.752 0 0 1-.12.07c-.93-.31-1.86-.63-2.8-.94 1.06-.47 2.33-1.08 3.57-1.76zm6.83 13.92c-.13-.22-.27-.44-.41-.66-.37-.58-.74-1.17-1.1-1.75-.9-1.44-1.83-2.87-2.76-4.3s-1.84-2.87-2.79-4.29l-.03-.05-.05-.01a.49.49 0 0 1-.11-.04c.2-.09.42-.19.65-.29.41-.2.86-.41 1.31-.65.18-.1.35-.19.53-.29.39-.21.78-.43 1.15-.65.14-.08.27-.16.4-.24a.02.02 0 0 0 .02-.01.127.127 0 0 0 .01.06c.67.92 1.59 2.17 2.68 3.63 1.02 1.36 2.17 2.92 3.43 4.58l.32.41c.12.16.24.31.36.47.05.06.09.12.14.18a.053.053 0 0 0 .02.03c.17.22.35.45.52.68.15.18.29.36.43.55.82 1.06 1.66 2.15 2.51 3.25l.69.9c.1.13.19.25.3.38.05.08.11.15.17.23.1.13.2.25.3.38.34.44.69.87 1.04 1.31a.053.053 0 0 0 .02.03.55.55 0 0 0 .07.09c.23.29.45.58.68.86.94 1.19 1.86 2.36 2.75 3.48 1.55 1.96 3.04 3.75 4.29 5.31.04.06.09.11.13.16 1.28 1.58 2.37 2.86 3.09 3.72a1.594 1.594 0 0 0-.61.22l-.66.44-.66.42c-.44.27-.89.53-1.34.78-.91.5-1.85.96-2.78 1.41l-.02.01a7.85 7.85 0 0 0-.76.52 4.41 4.41 0 0 0-.64.58q-1.98-3.434-4.04-6.84c-.83-1.41-1.68-2.8-2.53-4.19l-.66-1.08c-.31-.5-.63-1.01-.94-1.52-.13-.22-.27-.44-.4-.66l-.3-.48c-.16-.27-.33-.54-.49-.81-.04-.07-.09-.15-.14-.22-.84-1.39-1.71-2.76-2.58-4.14l-.42-.66c-.16-.26-.32-.51-.49-.77a6.73 6.73 0 0 0-.22-.35v-.01l-.08-.11zM33.15 72.2a27.416 27.416 0 0 1 1.66-2.47c.61-.85 1.24-1.73 1.9-2.64 1.79-2.46 3.78-5.12 5.96-7.92.07.12.15.25.23.38s.18.28.27.41c-.98 1.26-1.93 2.51-2.85 3.7-1.53 1.97-2.91 3.86-4.11 5.45-1.3 1.75-2.35 3.19-3.04 4.13a.277.277 0 0 0-.09.01.97.97 0 0 0-.42.16 6.143 6.143 0 0 1 .49-1.21zm10.43-11.62c.11.17.21.33.32.49.65 1 1.27 1.97 1.86 2.92.2.33.4.65.6.97.24.38.46.75.69 1.12.1.18.21.35.31.51-.85 1.4-1.7 2.79-2.53 4.2q-2.054 3.406-4.04 6.84a4.41 4.41 0 0 0-.64-.58 7.85 7.85 0 0 0-.76-.52l-.02-.01c-.93-.45-1.87-.91-2.78-1.41-.45-.25-.9-.51-1.34-.78l-.66-.42-.66-.44a1.594 1.594 0 0 0-.61-.22c.72-.86 1.81-2.14 3.09-3.72.04-.05.09-.1.13-.16 1.25-1.56 2.74-3.35 4.29-5.31.89-1.12 1.81-2.29 2.75-3.48zm-2.51 18.57c-.03.15-.07.36-.09.54l-.07.55-.13 1.11c-.07.02-.13.03-.15.04a3.852 3.852 0 0 1-2.37-.21 14.856 14.856 0 0 1-2.7-1.49c-.51-.35-1.04-.74-1.58-1.19-.25-.22-.56-.48-.78-.72a3.023 3.023 0 0 1-.58-.83 3.57 3.57 0 0 1-.28-1.49 4.966 4.966 0 0 1 .06-.76c.02-.15.05-.29.07-.44a.17.17 0 0 1-.06.06c.02-.03.05-.07.08-.12v-.01a1.684 1.684 0 0 1 .04-.22v-.02a.078.078 0 0 0 .04-.04.873.873 0 0 1 .3-.25.245.245 0 0 1 .16-.06.292.292 0 0 1 .09-.02 1.016 1.016 0 0 1 .62.2c.2.12.42.31.63.45.21.16.43.32.65.46q.66.42 1.35.81c.91.52 1.83 1.01 2.78 1.46a5.82 5.82 0 0 1 1.32 1 .61.61 0 0 1 .08.08.323.323 0 0 1 .08.09 1.07 1.07 0 0 1 .14.16 1.242 1.242 0 0 1 .3.86zm5.06-5.69c-1.61 2.79-2.91 4.97-3.82 6.41a4.885 4.885 0 0 1-1.17 1.3.038.038 0 0 0-.02.02c.05-.3.1-.6.15-.89l.22-1.09a1.97 1.97 0 0 0-.6-1.46q2.236-3.314 4.39-6.68 1.246-1.904 2.46-3.84c.34.57.68 1.13 1 1.68-.96 1.66-1.82 3.18-2.61 4.55zm11.11 5.75l.22 1.09c.05.29.1.59.15.89a.038.038 0 0 0-.02-.02 4.885 4.885 0 0 1-1.17-1.3c-.91-1.44-2.21-3.62-3.82-6.41-.79-1.37-1.65-2.89-2.61-4.55l-.62-1.09c-.32-.54-.64-1.09-.97-1.66-.12-.21-.25-.42-.38-.64l-.3-.51c-.22-.36-.43-.73-.66-1.1-.1-.17-.21-.35-.32-.53-.58-.96-1.2-1.95-1.85-2.95-.18-.28-.36-.55-.54-.83-.07-.11-.14-.21-.21-.32l-.03-.06v-.01c-.05-.09-.1-.18-.16-.28-.13-.24-.28-.52-.45-.83q-.3-.524-.66-1.14c-.02-.03-.03-.05-.05-.08-1.11-1.93-2.67-4.44-4.29-6.91a145.64 145.64 0 0 0-4.37-6.28l-.01-.01h.02c.87.36 1.75.72 2.63 1.07.09.04.18.07.27.11s.21.08.31.13a.076.076 0 0 0-.02-.04l.08.06a.142.142 0 0 0-.06-.02c.85 1.47 1.73 2.9 2.59 4.36.88 1.47 1.75 2.93 2.65 4.38.4.66.81 1.31 1.21 1.97.23.38.46.75.69 1.13.16.26.32.53.48.79.14.23.28.45.42.67.84 1.39 1.7 2.78 2.58 4.15.01.02.03.04.04.06.21.34.43.68.65 1.02l.3.48c.13.21.27.42.4.64l.96 1.53c.23.36.45.71.67 1.06q1.22 1.936 2.46 3.84 2.16 3.36 4.39 6.68a1.968 1.968 0 0 0-.6 1.46zm8.92-5.3a.078.078 0 0 0 .04.04v.02a1.7 1.7 0 0 1 .04.22v.01a.03.03 0 0 1 .01.02v.01c0 .01.01.01.01.02a.567.567 0 0 1 .11.12.573.573 0 0 1-.11-.11c.02.15.05.29.07.44a4.966 4.966 0 0 1 .06.76 3.57 3.57 0 0 1-.28 1.49 3.023 3.023 0 0 1-.58.83c-.22.24-.53.5-.78.72-.54.45-1.07.84-1.58 1.19a14.856 14.856 0 0 1-2.7 1.49 3.852 3.852 0 0 1-2.37.21c-.02-.01-.08-.02-.15-.04l-.13-1.11-.07-.55c-.02-.18-.06-.39-.09-.54a1.242 1.242 0 0 1 .3-.86 1.07 1.07 0 0 1 .14-.16.323.323 0 0 1 .08-.09.61.61 0 0 1 .08-.08 5.82 5.82 0 0 1 1.32-1c.95-.45 1.87-.94 2.78-1.46q.69-.39 1.35-.81c.22-.14.44-.3.65-.46.21-.14.43-.33.63-.45a1.015 1.015 0 0 1 .62-.2.292.292 0 0 1 .09.02.245.245 0 0 1 .16.06.873.873 0 0 1 .3.25zm-4.14-6.82c.66.91 1.29 1.79 1.9 2.64a27.416 27.416 0 0 1 1.66 2.47 6.143 6.143 0 0 1 .49 1.21.97.97 0 0 0-.42-.16.277.277 0 0 0-.09-.01c-.69-.94-1.74-2.38-3.04-4.13-1.2-1.59-2.58-3.48-4.11-5.45-.92-1.19-1.87-2.44-2.85-3.7-.21-.28-.42-.55-.63-.83a1.094 1.094 0 0 1-.13-.17.053.053 0 0 1-.02-.03c-.34-.43-.68-.87-1.02-1.31-.04-.06-.09-.11-.13-.17l-.34-.43c-.1-.13-.2-.25-.3-.38-.23-.29-.47-.59-.71-.89-.84-1.06-1.67-2.12-2.49-3.15-.14-.18-.29-.36-.42-.54h-.01c-.18-.23-.35-.45-.53-.67a.01.01 0 0 0-.01-.01.3.3 0 0 0-.05-.07l-.47-.59-.35-.44c-1.25-1.56-2.44-3.01-3.47-4.29a467.29 467.29 0 0 0-2.91-3.5c-.04-.06-.09-.11-.13-.16l-.03-.2c-.01-.04-.01-.07-.02-.11a8.58 8.58 0 0 0-.32-1.4c-.08-.25-.16-.44-.2-.54a.17.17 0 0 0-.05.02.865.865 0 0 0 .01-.11.408.408 0 0 1 .04.09c.03-.02.05-.04.07-.05.14.19.28.39.43.59q.39.54.84 1.14c.05.07.1.15.16.23h.01c1.18 1.6 2.6 3.44 4.07 5.26.63.78 1.27 1.56 1.9 2.31.15.17.29.34.44.51.16.2.33.4.49.59a.907.907 0 0 0 .09.1c.18.22.36.43.53.63a.506.506 0 0 1 .07.08.022.022 0 0 1 .02.02c.07.11.15.21.22.31a1.064 1.064 0 0 0 .1.12c.83 1.08 1.65 2.05 2.44 3.05l.12.15.6.75c.11.13.21.26.31.39.16.19.31.38.46.57.33.43.66.85.99 1.27a.1.1 0 0 1 .04.05l.21.27c.2.25.39.5.58.74v.01c2.18 2.8 4.17 5.46 5.96 7.92zm-5.6-9.9l-.17.23c-.1-.13-.2-.27-.32-.41a10.2 10.2 0 0 1 1.51-2.05c.14.1.27.19.39.28q-.75 1.066-1.41 1.95z"/>
    <path class="cls-5" d="M21.56 49.45a2.822 2.822 0 0 0-.26.17v.01l.24.09z"/>
    <path class="cls-6" d="M62.2 48.75c-.37.58-.75 1.18-1.14 1.77-.64.97-1.29 1.94-1.93 2.86a6.637 6.637 0 0 1 1.96-.93 28.076 28.076 0 0 1 4.34-.63c1.68-.2 3.57-.45 5.59-.89.38-.08.76-.17 1.15-.28-3.43.43-9.13.72-9.97-1.9z"/>
    <path class="cls-6" d="M65.47 52.2a29.492 29.492 0 0 0-4.33.44 6.908 6.908 0 0 0-2.15.95.01.01 0 0 0-.01.01c-.1.15-.2.29-.3.43a4.456 4.456 0 0 1 1.95-.51c.67-.02 1.36-.05 2.05-.07a47.06 47.06 0 0 0 14.82-2.79l-.07-1.03a35.168 35.168 0 0 1-6.3 1.86 46.7 46.7 0 0 1-5.66.71zm-2.26 25.67c-3.93 2.6-4.77.98-4.95.09a.61.61 0 0 0-.08.08.323.323 0 0 0-.08.09 1.07 1.07 0 0 0-.14.16 1.242 1.242 0 0 0-.3.86c.03.15.07.36.09.54l.07.55.13 1.11c.07.02.13.03.15.04a3.852 3.852 0 0 0 2.37-.21 14.856 14.856 0 0 0 2.7-1.49c.51-.35 1.04-.74 1.58-1.19.25-.22.56-.48.78-.72a3.023 3.023 0 0 0 .58-.83 3.57 3.57 0 0 0 .28-1.49 20.92 20.92 0 0 1-3.18 2.41zm-7.07-24.14a1.856 1.856 0 0 0-.11.19c.4.3.8.59 1.16.86.91-1.5 1.96-3.16 3.04-4.81 1.51-2.29 3.08-4.54 4.37-6.28a.01.01 0 0 0-.01-.01c-.87.36-1.75.72-2.63 1.07-.09.04-.18.07-.27.11s-.21.08-.31.13c-.85 1.47-1.73 2.9-2.59 4.36-.88 1.47-1.75 2.93-2.65 4.38zm4.54-9.33c-.41-.2-.86-.41-1.31-.65-.54.96-2.55 4.48-5.14 8.8.29.22.59.45.89.69z"/>
    <path class="cls-6" d="M57.24 79.21a1.968 1.968 0 0 1 .6-1.46q-2.23-3.314-4.39-6.68-1.244-1.904-2.46-3.84c-.22-.35-.44-.7-.67-1.06l-.96-1.53c-.13-.22-.27-.43-.4-.64l-.3-.48c-.22-.34-.44-.68-.65-1.02-.01-.02-.03-.04-.04-.06-.88-1.37-1.74-2.76-2.58-4.15-.14-.22-.28-.44-.42-.67-.16-.26-.32-.53-.48-.79-.23-.38-.46-.75-.69-1.13-.4-.66-.81-1.31-1.21-1.97-.9-1.45-1.77-2.91-2.65-4.38-.86-1.46-1.74-2.89-2.59-4.36-.1-.05-.21-.09-.31-.13s-.18-.07-.27-.11c-.88-.35-1.76-.71-2.63-1.07a.01.01 0 0 0-.01.01c1.29 1.74 2.86 3.99 4.37 6.28 1.62 2.47 3.18 4.98 4.29 6.91.02.03.03.05.05.08q.36.616.66 1.14c.17.31.32.59.45.83.06.1.11.19.16.28v.01l.03.06c.07.11.14.21.21.32.18.28.36.55.54.83a106.197 106.197 0 0 1 2.17 3.48c.23.37.44.74.66 1.1l.3.51c.13.22.26.43.38.64.33.57.65 1.12.97 1.66l.62 1.09c.96 1.66 1.82 3.18 2.61 4.55 1.61 2.79 2.91 4.97 3.82 6.41a4.885 4.885 0 0 0 1.17 1.3.038.038 0 0 1 .02.02c-.05-.3-.1-.6-.15-.89zm-7.87-35.2a5.43 5.43 0 0 0-.29.82 5.91 5.91 0 0 0-.23 1.09c.13-.35.29-.67.44-.98a.636.636 0 0 1 .08-.14c.05-.11.11-.22.17-.33.1-.2.21-.4.31-.59l.45-.9a.252.252 0 0 0 .04-.07 27.574 27.574 0 0 0 1.2-2.79c-.22.35-.44.68-.65 1.02-.34.53-.65 1.06-.92 1.57-.11.21-.21.41-.31.62-.11.23-.21.46-.29.68zm-4.43 11.35l.12.19.2.32.48.77.42.66 2.57 4.08.64 1.01.29.47.41.66.94 1.49.67 1.07 6.9 10.97a7.85 7.85 0 0 1 .76-.52l.02-.01c.93-.45 1.87-.91 2.78-1.41.45-.25.9-.51 1.34-.78l.66-.42.66-.44a1.594 1.594 0 0 1 .61-.22c-.72-.86-1.81-2.14-3.09-3.72.4 1.08.91 3.46-1.86 4.22-1.33.37-4.55-3.6-8.09-8.79-.23-.34-.46-.69-.7-1.05-.31-.46-.63-.93-.95-1.41-.14-.22-.28-.44-.43-.67-.1-.15-.19-.3-.29-.45-.21-.32-.42-.65-.63-.98-.85-1.33-1.7-2.68-2.52-4-.13-.22-.27-.44-.4-.65-.16-.26-.32-.52-.47-.78-.05-.08-.1-.16-.15-.23-.07-.12-.14-.24-.21-.35-.12-.2-.23-.39-.35-.58a401.95 401.95 0 0 1-5.91-10.06c-.45.24-.9.45-1.31.65l6.5 10.33z"/>
    <path class="cls-6" d="M48.56 48.3a4.757 4.757 0 0 1 .03-1.45 4.054 4.054 0 0 1-.04-.51 6.15 6.15 0 0 1 .12-1.61 7.02 7.02 0 0 1 .21-.85c.06-.18.12-.36.19-.55q.136-.344.3-.72c.04-.1.09-.2.14-.31.1-.21.21-.42.32-.64-.15.18-.31.34-.46.5a1.918 1.918 0 0 1-.15.14 4.242 4.242 0 0 1-.46.41 3.9 3.9 0 0 1-.33.27 4.77 4.77 0 0 1-1.23.68 3.03 3.03 0 0 1-2.53-.12c.83.98 1.7 2.03 2.55 3.08.45.56.9 1.12 1.34 1.68zm-3.28 22.77q-2.16 3.36-4.39 6.68a1.97 1.97 0 0 1 .6 1.46l-.22 1.09c-.05.29-.1.59-.15.89a.038.038 0 0 1 .02-.02 4.885 4.885 0 0 0 1.17-1.3c.91-1.44 2.21-3.62 3.82-6.41.79-1.37 1.65-2.89 2.61-4.55-.32-.55-.66-1.11-1-1.68q-1.214 1.936-2.46 3.84zm-11.96 2.18a1.594 1.594 0 0 1 .61.22l.66.44.66.42c.44.27.89.53 1.34.78.91.5 1.85.96 2.78 1.41l.02.01a7.85 7.85 0 0 1 .76.52l6.9-10.97c-.23-.37-.45-.74-.69-1.12-3.54 5.19-6.76 9.16-8.09 8.79-2.77-.76-2.26-3.14-1.86-4.22-1.28 1.58-2.37 2.86-3.09 3.72z"/>
    <path class="cls-6" d="M40.63 78.13a.323.323 0 0 0-.08-.09.61.61 0 0 0-.08-.08c-.18.89-1.02 2.51-4.95-.09a20.92 20.92 0 0 1-3.18-2.41 3.57 3.57 0 0 0 .28 1.49 3.023 3.023 0 0 0 .58.83c.22.24.53.5.78.72.54.45 1.07.84 1.58 1.19a14.856 14.856 0 0 0 2.7 1.49 3.852 3.852 0 0 0 2.37.21c.02-.01.08-.02.15-.04l.13-1.11.07-.55c.02-.18.06-.39.09-.54a1.242 1.242 0 0 0-.3-.86 1.07 1.07 0 0 0-.14-.16zM33.3 51.82a28.076 28.076 0 0 1 4.34.63 6.637 6.637 0 0 1 1.96.93c-.64-.92-1.29-1.89-1.93-2.86-.39-.59-.77-1.19-1.14-1.77-.84 2.62-6.54 2.33-9.97 1.9.39.11.77.2 1.15.28 2.02.44 3.91.69 5.59.89z"/>
    <path class="cls-6" d="M38.1 53.52a4.456 4.456 0 0 1 1.95.51c-.1-.14-.2-.28-.3-.43a.01.01 0 0 0-.01-.01 6.908 6.908 0 0 0-2.15-.95 29.492 29.492 0 0 0-4.33-.44 46.7 46.7 0 0 1-5.66-.71 35.316 35.316 0 0 1-6.05-1.76l-.04.64c-.01 0-.01-.01-.02-.01l.05-.64-.24-.09-.07 1.03a47.06 47.06 0 0 0 14.82 2.79c.69.02 1.38.05 2.05.07z"/>
    <path class="cls-7" d="M77.44 49.63h-.01l.07 1.03c.01 0 .01-.01.02-.01zm-3.43-2c-1.53-.8-3.22-1.66-4.99-2.58-1.11-.58-2.25-1.18-3.41-1.79a.3.3 0 0 0-.08.04.02.02 0 0 0 .01-.02c.02-.01.05-.01.07-.02a.106.106 0 0 0-.05-.02c-.15-.08-.31-.16-.46-.24q-1.154-.614-2.34-1.23c.82.48 1.59.95 2.23 1.38.11.07.22.14.32.21a.01.01 0 0 0 .01.01v.01h.01c.04.02.07.05.11.07-.03.05-.06.11-.09.16-.06.1-.12.21-.19.32-.81 1.4-1.85 3.08-2.96 4.82.84 2.62 6.54 2.33 9.97 1.9h.03a33.78 33.78 0 0 0 4.49-1.5c-.51-.31-1.35-.8-2.65-1.51a.037.037 0 0 1-.03-.01zm-7.75 26.63v-.01c0-.01-.01-.01-.01-.02v-.01a.03.03 0 0 0-.01-.02v-.01a1.7 1.7 0 0 0-.04-.22v-.02a.078.078 0 0 1-.04-.04.873.873 0 0 0-.3-.25.245.245 0 0 0-.16-.06.292.292 0 0 0-.09-.02 1.015 1.015 0 0 0-.62.2c-.2.12-.42.31-.63.45-.21.16-.43.32-.65.46q-.66.42-1.35.81c-.91.52-1.83 1.01-2.78 1.46a5.82 5.82 0 0 0-1.32 1c.18.89 1.02 2.51 4.95-.09a20.92 20.92 0 0 0 3.18-2.41 4.966 4.966 0 0 0-.06-.76c-.02-.15-.05-.29-.07-.44z"/>
    <path class="cls-7" d="M61.56 44.5a.752.752 0 0 0 .12.07c.93-.31 1.86-.63 2.8-.94-1.06-.47-2.33-1.08-3.57-1.76-1.07-.58-2.11-1.2-3-1.76.01.11.02.31.03.55a8.47 8.47 0 0 1-.05.96.77.77 0 0 1-.02.15c-.01.1-.02.21-.04.32a2.556 2.556 0 0 1-.05.27c.42.2.86.43 1.3.67.92.49 1.82 1.04 2.48 1.47zm-5.97 8.88c.9-1.44 1.83-2.87 2.76-4.3s1.84-2.87 2.79-4.29l.03-.05.05-.01a.49.49 0 0 0 .11-.04c-.2-.09-.42-.19-.65-.29l-5.56 8.84c.13.09.25.19.38.28.03-.05.06-.09.09-.14zm-3.38-2.61a12.55 12.55 0 0 0 2.02 1.78c2.59-4.32 4.6-7.84 5.14-8.8-.18-.1-.35-.19-.53-.29-.39-.21-.78-.43-1.15-.65-.14-.08-.27-.16-.4-.24a.134.134 0 0 1-.03.05c-.67.92-1.59 2.17-2.68 3.63-.77 1.03-1.62 2.17-2.53 3.38a1.775 1.775 0 0 0 .16 1.14zm2.19 8.86a.053.053 0 0 1-.02-.03c-.35-.44-.7-.87-1.04-1.31-.1-.13-.2-.25-.3-.38-.06-.08-.12-.15-.17-.23-.11-.13-.2-.25-.3-.38l-.69-.9c-.85-1.1-1.69-2.19-2.51-3.25-.14-.19-.28-.37-.43-.55-.17-.23-.35-.46-.52-.68a.053.053 0 0 1-.02-.03c-.05-.06-.09-.12-.14-.18-.12-.16-.24-.31-.36-.47l-.32-.41c-1.26-1.66-2.41-3.22-3.43-4.58-1.09-1.46-2.01-2.71-2.68-3.63a.134.134 0 0 1-.03-.05c-.13.08-.26.16-.4.24-.37.22-.76.44-1.15.65-.18.1-.35.19-.53.29.59 1.05 2.95 5.18 5.91 10.06.12.19.23.38.35.58.07.11.14.23.21.35.05.07.1.15.15.23.15.26.31.52.47.78.13.21.27.43.4.65.82 1.32 1.67 2.67 2.52 4 .21.33.42.66.63.98.1.15.19.3.29.45.15.23.29.45.43.67.32.48.64.95.95 1.41.24.36.47.71.7 1.05 3.54 5.19 6.76 9.16 8.09 8.79 2.77-.76 2.26-3.14 1.86-4.22-.04-.05-.09-.1-.13-.16-1.25-1.56-2.74-3.35-4.29-5.31-.89-1.12-1.81-2.29-2.75-3.48-.23-.28-.45-.57-.68-.86a.55.55 0 0 1-.07-.09zm-2.72 6.45l-.67-1.07-.94-1.49-.41-.66-.29-.47-.64-1.01-2.57-4.08-.42-.66-.48-.77-.2-.32-.12-.19-.39-.63-6.5-10.33c-.23.1-.45.2-.65.29a.49.49 0 0 0 .11.04l.05.01.03.05c.95 1.42 1.86 2.86 2.79 4.29s1.86 2.86 2.76 4.3c.36.58.73 1.17 1.1 1.75.14.22.28.44.41.66l.08.11v.01c.08.12.15.23.22.35.17.26.33.51.49.77l.42.66c.87 1.38 1.74 2.75 2.58 4.14.05.07.1.15.14.22.16.27.33.54.49.81l.3.48c.13.22.27.44.4.66.31.51.63 1.02.94 1.52l.66 1.08c.85 1.39 1.7 2.78 2.53 4.19q2.056 3.406 4.04 6.84a4.41 4.41 0 0 1 .64-.58zM40.15 77.05a4.41 4.41 0 0 1 .64.58q1.98-3.434 4.04-6.84c.83-1.41 1.68-2.8 2.53-4.2-.1-.16-.21-.33-.31-.51zm.37-37.64c.12-.05.24-.11.36-.16.15.16.31.32.48.5.14.16.3.33.46.51.34.37.7.78 1.08 1.21a.522.522 0 0 0 .1.11c.53.61 1.09 1.27 1.67 1.96a3.03 3.03 0 0 0 2.53.12 4.77 4.77 0 0 0 1.23-.68 3.9 3.9 0 0 0 .33-.27 4.242 4.242 0 0 0 .46-.41 1.918 1.918 0 0 0 .15-.14c.15-.16.31-.32.46-.5.15-.29.31-.58.47-.87a44.07 44.07 0 0 0 2.21-4.2 2.608 2.608 0 0 1 .1-.25l.12-.39c0-.01.01-.03.01-.04s.01-.04.01-.06c.04-.18.07-.36.1-.54.03-.13.05-.27.07-.4.14-.81.23-1.62.29-2.45-.68.38-1.43.8-2.24 1.25-.06.03-.12.07-.19.1-.11.06-.23.13-.35.19-.23.13-.47.26-.72.4a3.814 3.814 0 0 0-.34.18c-1.02.55-2.11 1.14-3.25 1.76a.053.053 0 0 0-.03.02c-.25.13-.51.27-.77.41-.17.1-.34.19-.52.29a857.552 857.552 0 0 0-3.97 2.13c-.12.05-.23.12-.35.18-.26.14-.53.28-.79.42.28-.12.56-.25.82-.38h.01zm-4.11 30.12c-.4 1.08-.91 3.46 1.86 4.22 1.33.37 4.55-3.6 8.09-8.79-.2-.32-.4-.64-.6-.97-.59-.95-1.21-1.92-1.86-2.92-.11-.16-.21-.32-.32-.49-.94 1.19-1.86 2.36-2.75 3.48-1.55 1.96-3.04 3.75-4.29 5.31-.04.06-.09.11-.13.16z"/>
    <path class="cls-7" d="M37.05 44.57a.752.752 0 0 0 .12-.07c.66-.43 1.56-.98 2.48-1.47.44-.24.88-.47 1.3-.67a2.556 2.556 0 0 1-.05-.27c-.02-.11-.03-.22-.04-.32a.77.77 0 0 1-.02-.15 8.47 8.47 0 0 1-.05-.96c.01-.24.02-.44.03-.55-.89.56-1.93 1.18-3 1.76-1.24.68-2.51 1.29-3.57 1.76.94.31 1.87.63 2.8.94zm2.1 32.39c-.95-.45-1.87-.94-2.78-1.46q-.69-.39-1.35-.81c-.22-.14-.44-.3-.65-.46-.21-.14-.43-.33-.63-.45a1.016 1.016 0 0 0-.62-.2.292.292 0 0 0-.09.02.245.245 0 0 0-.16.06.873.873 0 0 0-.3.25.078.078 0 0 1-.04.04v.02a1.684 1.684 0 0 0-.04.22v.01a.037.037 0 0 0-.01.03c0 .01-.01.01-.01.02v.01c-.02.15-.05.29-.07.44a4.966 4.966 0 0 0-.06.76 20.92 20.92 0 0 0 3.18 2.41c3.93 2.6 4.77.98 4.95.09a5.82 5.82 0 0 0-1.32-1z"/>
    <path class="cls-7" d="M36.53 48.75c-1.11-1.74-2.15-3.42-2.96-4.82-.07-.11-.13-.22-.19-.32-.03-.05-.06-.11-.09-.16.04-.02.07-.05.11-.07h.01v-.01a.01.01 0 0 0 .01-.01c.1-.07.21-.14.32-.21.64-.43 1.41-.9 2.23-1.38q-1.184.616-2.34 1.23c-.15.08-.31.16-.46.24a.106.106 0 0 0-.05.02c.02.01.05.01.07.02a.02.02 0 0 0 .01.02.3.3 0 0 0-.08-.04c-1.16.61-2.3 1.21-3.41 1.79-1.77.92-3.46 1.78-4.99 2.58a.037.037 0 0 1-.03.01c-1.3.71-2.14 1.2-2.65 1.51a33.78 33.78 0 0 0 4.49 1.5h.03c3.43.43 9.13.72 9.97-1.9zm-14.97.7l-.02.27-.05.64c.01 0 .01.01.02.01l.04-.64.02-.29.01-.1h-.01zm-.35 1.2c.01 0 .01.01.02.01l.07-1.03h-.01z"/>
    <path d="M21.21 50.25v.11h-.01l.01-.11zm-.28.29v.11h-.01l.01-.11z"/>
    <path class="cls-8" d="M46.29 12.21a.038.038 0 0 0-.02.02l.12.12h.01a.76.76 0 0 0-.11-.14z"/>
    <path class="cls-8" d="M45.92 11.88q.18.166.33.33h.04l-.39-.45a.253.253 0 0 1 .02.12zm-1.32-1.24c.13.11.26.23.38.35a.42.42 0 0 1 .16-.01.142.142 0 0 1 .06.02c-.2-.22-.41-.44-.62-.66a1.01 1.01 0 0 1 .02.3zm-2.73-2.29v.01c.16.13.31.25.47.37a.533.533 0 0 1 .22-.02.74.74 0 0 1 .63.71c.18.14.35.29.52.43a.627.627 0 0 1 .27-.03.29.29 0 0 1 .09.02 29.49 29.49 0 0 0-2.37-2.09.78.78 0 0 1 .17.6zm-1.38-1.04a.435.435 0 0 1-.01.05c.12.08.24.16.35.25a.63.63 0 0 1 .42-.1.642.642 0 0 1 .3.11c-.42-.34-.86-.67-1.3-.98a.8.8 0 0 1 .24.67zm-22.55-5.7a1.74 1.74 0 0 0-.22.05 22.266 22.266 0 0 0-8.43 3.88 16.29 16.29 0 0 0-4.3 4.95 15.912 15.912 0 0 0-1.41 3.29c-.2.57-.32 1.18-.5 1.8v.02a24.292 24.292 0 0 1 3.08-5.81 19.5 19.5 0 0 1 3.23-3.5 18.866 18.866 0 0 1 7.69-3.96.886.886 0 0 1 .49-.29c0-.01.01-.01.02-.01a.65.65 0 0 1 .48-.14.69.69 0 0 1 .33.14 22.95 22.95 0 0 1 3.12-.38.866.866 0 0 1 .49-.32.634.634 0 0 0-.21.3.86.86 0 0 1 .16-.01 27.794 27.794 0 0 1 3.17.04s.01-.01.01 0a.5.5 0 0 1 .34-.07.7.7 0 0 1 .32.13c.72.07 1.44.17 2.14.29a.73.73 0 0 1 .52-.15.673.673 0 0 1 .53.36 29.75 29.75 0 0 1 3.79 1.1 30.227 30.227 0 0 1 3.01 1.28.94.94 0 0 1 .44-.26.765.765 0 0 0-.24.36q.646.316 1.26.66a.875.875 0 0 0 .06-.1c0 .02-.01.05-.01.08a.06.06 0 0 1-.01.04l.48.27.01-.01h.01a.052.052 0 0 1 .04-.02.676.676 0 0 1 .48-.13.736.736 0 0 1 .63.74v.01c.01.04.02.08.03.13.13.08.27.16.39.24a.747.747 0 0 1 .51-.14.732.732 0 0 1 .25.08 29.687 29.687 0 0 0-3.03-1.91 28.306 28.306 0 0 0-19.15-3.03z"/>
    <path class="cls-9" d="M78.49 49.65l.03.59c.01-.01.03-.01.04-.02zm-28.81-16.4c-.1.06-.2.11-.31.17-.25.13-.5.27-.76.41-.1.06-.2.11-.31.17-.77.42-1.58.86-2.42 1.31a.138.138 0 0 1-.04.03c-.28.15-.58.31-.87.47-.13.07-.26.14-.4.21-.26.14-.52.29-.78.43-1.2.64-2.43 1.3-3.69 1.97a1.863 1.863 0 0 1-.2.1c-1.16.63-2.33 1.25-3.51 1.88-1.13.6-2.27 1.19-3.39 1.77a2.21 2.21 0 0 1-.34.18c-1.26.67-2.5 1.32-3.7 1.95-2.38 1.23-4.6 2.37-6.5 3.35-.64.32-1.25.63-1.81.91.25.11.49.22.74.32.07.03.15.06.22.09q.69-.374 1.47-.81c1.88-1.03 4.08-2.22 6.43-3.49q1.666-.9 3.42-1.83c.14-.08.28-.15.42-.22 1.17-.63 2.37-1.27 3.56-1.91 1.1-.58 2.21-1.16 3.3-1.73.09-.05.18-.1.28-.15 1.31-.68 2.6-1.36 3.84-2.01.13-.06.25-.13.37-.19.16-.08.31-.16.46-.24.29-.15.57-.29.84-.44 1.06-.54 2.07-1.06 3.02-1.55a3.9 3.9 0 0 1 .35-.18c.26-.14.5-.26.75-.39.12-.06.24-.12.35-.18.13-.07.25-.13.37-.19.86-.44 1.66-.84 2.38-1.2.02-.33.04-.67.05-1l-3.05 1.7c-.18.1-.36.19-.54.29zm-28.9 16.18a5.314 5.314 0 0 1-.5-.21l-.02.23v.03l-.01.05v.02l-.01.1-.07.57c.01.01.03.01.04.02q.36.166.72.3l.03-.63.02-.4a1.2 1.2 0 0 1-.16-.08h-.04zm31.03-27.88a.2.2 0 0 0 .01-.07.053.053 0 0 1-.02.03 26.736 26.736 0 0 0-.85-2.177c-.14-.317-.3-.624-.46-.933s-.3-.613-.48-.92a.2.2 0 0 0 .01-.07v-.01a.92.92 0 0 0-.53-.84l-.12-.21c-.24-.38-.48-.76-.75-1.15l-.08-.11c-.42-.6-.87-1.21-1.35-1.8a.09.09 0 0 0 .01-.05v-.04l-.03.06a.176.176 0 0 1-.04-.05.822.822 0 0 0-.72-.86h-.02l-.12-.12a.038.038 0 0 1 .02-.02h-.04q-.15-.164-.33-.33a.253.253 0 0 0-.02-.12c.01-.01 0-.01 0-.01a.883.883 0 0 0-.7-.75.142.142 0 0 0-.06-.02.42.42 0 0 0-.16.01 6.3 6.3 0 0 0-.38-.35 1.01 1.01 0 0 0-.02-.3.733.733 0 0 0-.51-.5.29.29 0 0 0-.09-.02.627.627 0 0 0-.27.03c-.17-.14-.34-.29-.52-.43a.74.74 0 0 0-.63-.71.533.533 0 0 0-.22.02c-.16-.12-.31-.24-.47-.37v-.01a.78.78 0 0 0-.17-.6l-.03-.03a.375.375 0 0 0-.07-.06.176.176 0 0 0-.05-.04.642.642 0 0 0-.3-.11.63.63 0 0 0-.42.1c-.11-.09-.23-.17-.35-.25a.435.435 0 0 0 .01-.05.8.8 0 0 0-.24-.67.38.38 0 0 0-.13-.09.732.732 0 0 0-.25-.08.747.747 0 0 0-.51.14c-.12-.08-.26-.16-.39-.24-.01-.05-.02-.09-.03-.13v-.01a.736.736 0 0 0-.63-.74.676.676 0 0 0-.48.13c-.01.01-.03.01-.04.02h-.01l-.01.01-.48-.27a.06.06 0 0 0 .01-.04c0-.03.01-.06.01-.08a.875.875 0 0 1-.06.1q-.614-.344-1.26-.66a.765.765 0 0 1 .24-.36.94.94 0 0 0-.44.26 30.227 30.227 0 0 0-3.01-1.28 29.75 29.75 0 0 0-3.79-1.1.673.673 0 0 0-.53-.36.73.73 0 0 0-.52.15c-.7-.12-1.42-.22-2.14-.29a.7.7 0 0 0-.32-.13.5.5 0 0 0-.34.07c0-.01-.01 0-.01 0a27.794 27.794 0 0 0-3.17-.04.86.86 0 0 0-.16.01.634.634 0 0 1 .21-.3.866.866 0 0 0-.49.32 22.95 22.95 0 0 0-3.12.38.69.69 0 0 0-.33-.14.65.65 0 0 0-.48.14c-.01 0-.02 0-.02.01a.886.886 0 0 0-.49.29 18.866 18.866 0 0 0-7.69 3.96 19.5 19.5 0 0 0-3.23 3.5 24.3 24.3 0 0 0-3.085 5.827v.014c-.13.59-.27 1.19-.36 1.81-.11.63-.19 1.27-.25 1.91.01.01.01.01 0 .01a1.188 1.188 0 0 0-.07.27 1.017 1.017 0 0 0 .03.35c-.03.46-.05.93-.05 1.4a.845.845 0 0 0-.06.24.878.878 0 0 0 .07.46c0 .36.01.72.04 1.08a.292.292 0 0 0-.02.09.824.824 0 0 0 .04.35.048.048 0 0 0 .01.04c.04.55.1 1.1.17 1.65a30.12 30.12 0 0 0 .82 3.86 32.52 32.52 0 0 0 1.43 3.94 30.914 30.914 0 0 0 4.176 6.98 21.273 21.273 0 0 0 2.72 2.88c.98.81 2.12 1.57 3.16 2.31a37.982 37.982 0 0 0 5.5 3.2c.59-.33 1.22-.68 1.9-1.05 1.88-1.03 4.08-2.22 6.43-3.49 1.19-.64 2.43-1.3 3.68-1.97.09-.05.19-.1.28-.15 1.14-.61 2.29-1.22 3.44-1.84s2.33-1.22 3.48-1.82a.538.538 0 0 1 .13-.07c1.3-.68 2.57-1.35 3.81-2 .31-.16.62-.32.92-.48.12-.06.24-.12.36-.19.3-.15.6-.3.89-.46a.168.168 0 0 0 .06-.03c.74-.38 1.45-.74 2.14-1.1.11-.05.21-.11.31-.16.27-.14.53-.27.79-.4.11-.06.21-.11.31-.16h.01c.24-.14.48-.26.72-.38 1.2-.61 2.27-1.15 3.18-1.6a28.074 28.074 0 0 0-.15-3.66 27.59 27.59 0 0 0-1.31-5.9z"/>
    <path class="cls-9" d="M19.59 48.93a33.882 33.882 0 0 1-5.15-2.95c-1.08-.76-2.16-1.45-3.25-2.34a21.87 21.87 0 0 1-2.87-2.98 31.883 31.883 0 0 1-4.36-7.17 30.248 30.248 0 0 1-2.26-8.07 26.865 26.865 0 0 1 .16-8.12c.1-.66.26-1.3.4-1.94.17-.61.32-1.24.54-1.84.09-.29.2-.57.31-.84a23.457 23.457 0 0 0-1.43 3.88 25.164 25.164 0 0 0-.51 10.53 28.12 28.12 0 0 0 3.4 9.73 32.012 32.012 0 0 0 14.01 12.67.61.61 0 0 0 .12.05c.09.05.19.1.28.14.25.12.49.24.74.34a.607.607 0 0 0 .14.07c.02.01.03.01.05.02l.01-.07.02-.3.01-.08v-.05l.05-.51a2.046 2.046 0 0 1-.22-.09 1.547 1.547 0 0 1-.19-.08z"/>
    <path class="cls-10" d="M54.24 25.41h.01c.05.26.09.51.12.77.05.29.09.59.12.88.04.35.07.69.09 1.03v.01c.02.21.04.41.05.62 0 .04.01.07.01.11v.06c0 .05.01.1.01.15v.07a.614.614 0 0 1 .01.13 2.172 2.172 0 0 1 .01.25v.06a2.45 2.45 0 0 1 .01.27v.09a2.253 2.253 0 0 0 .01.3v.51a.486.486 0 0 1-.01.12.965.965 0 0 1 0 .17c0 .17-.01.34-.01.51a.57.57 0 0 1-.01.13.95.95 0 0 1-.1-.17c0 .03.01.06.01.1a.2.2 0 0 0 .03.11v.01a.335.335 0 0 0 .05.14.032.032 0 0 0 0 .03c0 .07-.01.13-.01.2a.09.09 0 0 1-.01.05v.12a.037.037 0 0 1-.01.03.565.565 0 0 1 0 .13.02.02 0 0 1-.01.02 2.435 2.435 0 0 1-.01.27c0 .04-.01.08-.01.12a.984.984 0 0 1-.02.17 323.67 323.67 0 0 0-.02.28.02.02 0 0 1-.01.02c0 .13-.02.26-.03.4a.03.03 0 0 1-.01.02.712.712 0 0 1-.01.14.076.076 0 0 1-.01.04c-.02.2-.04.4-.07.6a.02.02 0 0 1-.01.02c-.02.16-.04.31-.07.47a.51.51 0 0 1-.03.17c-.02.15-.04.3-.07.45.3.16.61.32.92.48.62.32 1.24.65 1.87.98s1.29.68 1.94 1.02a.538.538 0 0 1 .13.07c.22.12.44.23.67.35 0 0 0 .01.01 0a.138.138 0 0 0 .04.03.7.7 0 0 0 .36.19h.02c.35.19.71.37 1.07.56a.01.01 0 0 0 .01.01l.01.01a.818.818 0 0 0 .37.19c.31.16.61.32.92.48 1.15.62 2.3 1.23 3.44 1.84.09.05.19.1.28.15 1.25.67 2.49 1.33 3.68 1.97 2.35 1.27 4.55 2.46 6.43 3.49.68.37 1.31.72 1.9 1.05.06-.03.11-.05.17-.08a.843.843 0 0 0 .42.05.868.868 0 0 0 .74-.63c.27-.14.53-.28.8-.44l.06-.03a.238.238 0 0 0 .13-.07.208.208 0 0 0 .1-.06 43.51 43.51 0 0 0 3.08-1.94c1.04-.74 2.18-1.5 3.16-2.31a21.273 21.273 0 0 0 2.72-2.88 30.124 30.124 0 0 0 3.3-5.13c.31-.6.61-1.22.88-1.85a32.52 32.52 0 0 0 1.43-3.94 30.12 30.12 0 0 0 .82-3.86 26.1 26.1 0 0 0-.09-7.85c-.09-.62-.23-1.22-.36-1.81a.037.037 0 0 0-.01-.03 23.17 23.17 0 0 0-1.12-2.55 20.735 20.735 0 0 0-1.6-2.75.933.933 0 0 0-.29-.41 19.115 19.115 0 0 0-11.363-7.653l-.026-.006a.406.406 0 0 0-.21-.05 22.9 22.9 0 0 0-3.98-.54c-.02-.01-.04-.01-.06-.02v.01c-.07 0-.15-.01-.23-.01h-.16a.292.292 0 0 1 .09-.02.736.736 0 0 1 .3.02.73.73 0 0 0-.52-.15.607.607 0 0 0-.32.13h-.02a29.226 29.226 0 0 0-15.4 4.18h-.04a.758.758 0 0 0-.51.32q-.54.33-1.05.66a.72.72 0 0 0-.53.35c-.37.25-.74.51-1.09.76a.265.265 0 0 0-.06.05l-.12.09-.03.03a37.4 37.4 0 0 0-3.74 3.12h-.01a.728.728 0 0 0-.49.46v.01c-.29.28-.57.55-.83.82l-.03.03a.763.763 0 0 0-.37.32 1.553 1.553 0 0 0-.08.23c-.57.67-1.09 1.37-1.57 2.06.08.12.15.23.22.34a.8.8 0 0 0-.06.42c0 .02.01.03.01.05a.428.428 0 0 0 .05.16v.01a.742.742 0 0 0 .666.47l.125.22a.786.786 0 0 0-.15 0 .745.745 0 0 0-.16.04.586.586 0 0 0-.17.1.778.778 0 0 0-.29.7c0 .02.01.03.01.05a.428.428 0 0 0 .05.16v.01a.736.736 0 0 0 .74.46.717.717 0 0 0 .556-.412q.2.393.384.786a.8.8 0 0 0 0 .12c0 .02.01.03.01.05a.428.428 0 0 0 .05.16v.01a.8.8 0 0 0 .22.3q.118.27.228.545a.788.788 0 0 0-.08.06.778.778 0 0 0-.29.7c0 .02.01.03.01.05a.428.428 0 0 0 .05.16v.01a.736.736 0 0 0 .74.46.65.65 0 0 0 .1-.02l.18.545a.642.642 0 0 0-.455.006.586.586 0 0 0-.17.1.778.778 0 0 0-.29.7c0 .02.01.03.01.05a.428.428 0 0 0 .05.16v.01a.736.736 0 0 0 .74.46.7.7 0 0 0 .465-.27q.28 1.054.474 2.117a1.444 1.444 0 0 1 .038.284z"/>
    <path class="cls-10" d="M97.05 16.56a23.457 23.457 0 0 0-1.43-3.88c.11.27.22.55.31.84.22.6.37 1.23.54 1.84.14.64.3 1.28.4 1.94a26.865 26.865 0 0 1 .16 8.12 30.248 30.248 0 0 1-2.26 8.07 31.883 31.883 0 0 1-4.36 7.17 21.87 21.87 0 0 1-2.87 2.98c-1.09.89-2.17 1.58-3.25 2.34a33.882 33.882 0 0 1-5.15 2.95 1.547 1.547 0 0 1-.19.08 2.046 2.046 0 0 1-.22.09l.05.51v.05l.01.08.02.3.01.07c.02-.01.03-.01.05-.02a.607.607 0 0 0 .14-.07c.25-.1.49-.22.74-.34.09-.04.19-.09.28-.14a.61.61 0 0 0 .12-.05 32.012 32.012 0 0 0 14.01-12.67 28.12 28.12 0 0 0 3.4-9.73 25.164 25.164 0 0 0-.51-10.53zM78.48 49.55v-.02l-.01-.05v-.03l-.02-.23a5.314 5.314 0 0 1-.5.21h-.05a1.1 1.1 0 0 1-.15.08l.02.4.03.63q.36-.134.72-.3l-.03-.59zm-2.21-1.9c-1.9-.98-4.12-2.12-6.5-3.35-1.2-.63-2.44-1.28-3.7-1.95a2.21 2.21 0 0 1-.34-.18c-1.12-.58-2.26-1.17-3.39-1.77-1.18-.63-2.35-1.25-3.51-1.88a1.863 1.863 0 0 1-.2-.1c-.58-.31-1.15-.61-1.71-.92q-1.01-.53-1.98-1.05c-.26-.14-.52-.29-.78-.43-.04.2-.08.41-.13.61.12.06.24.13.37.19.78.41 1.57.83 2.38 1.25.48.25.97.51 1.46.76.1.05.19.1.28.15 1.09.57 2.2 1.15 3.3 1.73 1.19.64 2.39 1.28 3.56 1.91.14.07.28.14.42.22q1.756.93 3.42 1.83c2.35 1.27 4.55 2.46 6.43 3.49q.78.436 1.47.81c.07-.03.15-.06.22-.09.25-.1.49-.21.74-.32-.56-.28-1.17-.59-1.81-.91z"/>
    <path class="cls-11" d="M54.69 30.21a2.253 2.253 0 0 1-.01-.3v-.09a2.45 2.45 0 0 0-.01-.27v-.06a2.172 2.172 0 0 0-.01-.25.614.614 0 0 0-.01-.13v-.07c0-.05-.01-.1-.01-.15v-.06c0-.04-.01-.07-.01-.11-.01-.21-.03-.41-.05-.62v-.01c-.02-.34-.05-.68-.09-1.03-.03-.29-.07-.59-.12-.88-.03-.26-.07-.51-.12-.77h-.01v-.03a9.674 9.674 0 0 0-.245-1.66 23.525 23.525 0 0 0-2.22-5.872 28.284 28.284 0 0 0-.85-1.567c-.23-.41-.48-.81-.73-1.19-.15-.22-.29-.43-.44-.64l-.234-.32-.14-.2a39.32 39.32 0 0 0-3.04-3.66 34.124 34.124 0 0 0-8.65-6.72A29.345 29.345 0 0 0 15.94 1.1a22.226 22.226 0 0 0-9.66 5.6 21.5 21.5 0 0 0-5.35 9.67 26.6 26.6 0 0 0-.6 10.86A29.15 29.15 0 0 0 3.74 37.3a32.82 32.82 0 0 0 13.6 12.87.21.21 0 0 0 .06.04c.34.18.69.35 1.04.52h.02a.01.01 0 0 0 .01.01.105.105 0 0 0 .05.02c.44.22.88.42 1.32.62.09.04.19.08.29.12.24.11.48.21.73.31.09.04.19.07.28.11l.09-1.26c-.01 0-.01-.01-.02-.01l.08-1.02h.01v-.01a2.822 2.822 0 0 1 .26-.17l.01-.11h.01l-.01.1c.11-.07.27-.17.47-.29.51-.31 1.35-.8 2.65-1.51a.037.037 0 0 0 .03-.01c1.53-.8 3.22-1.66 4.99-2.58 1.11-.58 2.25-1.18 3.41-1.79a.106.106 0 0 1 .05-.02c.15-.08.31-.16.46-.24q1.156-.614 2.34-1.23l.01-.01c.44-.26.91-.52 1.37-.77.74-.4 1.48-.78 2.18-1.12a.2.2 0 0 0 .08-.04c.03-.01.05-.03.08-.04.26-.14.53-.28.79-.42.12-.06.23-.13.35-.18a857.552 857.552 0 0 1 3.97-2.13c.18-.1.35-.19.52-.29.26-.14.52-.28.77-.41a.053.053 0 0 1 .03-.02c1.14-.62 2.23-1.21 3.25-1.76a3.814 3.814 0 0 1 .34-.18c.25-.14.49-.27.72-.4.12-.06.24-.13.35-.19.07-.03.13-.07.19-.1.81-.45 1.56-.87 2.24-1.25a.3.3 0 0 0 .11-.06c.36-.19.7-.38 1.01-.55.01 0 .01-.01.02-.01a.747.747 0 0 1 .12-.07.777.777 0 0 1 .127-.067l.02-.01.063-.033v-.65a.965.965 0 0 0 0-.17.486.486 0 0 0 .01-.12v-.51zm-34.74 19.4v.05l-.01.08-.02.3-.01.07c-.02-.01-.03-.01-.05-.02a.607.607 0 0 1-.14-.07c-.25-.1-.49-.22-.74-.34-.09-.04-.19-.09-.28-.14a.61.61 0 0 1-.12-.05A32.012 32.012 0 0 1 4.57 36.82a28.12 28.12 0 0 1-3.4-9.73 25.164 25.164 0 0 1 .51-10.53 23.457 23.457 0 0 1 1.43-3.88c-.11.27-.22.55-.31.84-.22.6-.37 1.23-.54 1.84-.14.64-.3 1.28-.4 1.94a26.865 26.865 0 0 0-.16 8.12 30.248 30.248 0 0 0 2.26 8.07 31.883 31.883 0 0 0 4.36 7.17 21.87 21.87 0 0 0 2.87 2.98c1.09.89 2.17 1.58 3.25 2.34a33.882 33.882 0 0 0 5.15 2.95 1.547 1.547 0 0 0 .19.08 2.046 2.046 0 0 0 .22.09zm1.01.3l-.03.63v.11h-.01l.01-.11q-.36-.134-.72-.3c-.01-.01-.03-.01-.04-.02l.07-.57.01-.1v-.02l.01-.05v-.03l.02-.23a5.314 5.314 0 0 0 .5.21h.04a1.2 1.2 0 0 0 .16.08zm.25.45h-.01l.01-.11v.11zm12.19-7.39c.02.01.05.01.07.02a.02.02 0 0 0 .01.02.3.3 0 0 0-.08-.04zm4.02-2.11c-.39.2-.78.41-1.16.61.44-.26.91-.52 1.37-.77.61-.33 1.21-.64 1.79-.92-.66.37-1.33.73-2 1.08zm15.8-8.6a281.21 281.21 0 0 0-2.75 1.39c-.11.06-.23.12-.35.18-.25.13-.49.25-.75.39a3.9 3.9 0 0 0-.35.18c-.95.49-1.96 1.01-3.02 1.55-.27.15-.55.29-.84.44-.15.08-.3.16-.46.24-.12.06-.24.13-.37.19-1.24.65-2.53 1.33-3.84 2.01-.1.05-.19.1-.28.15-1.09.57-2.2 1.15-3.3 1.73-1.19.64-2.39 1.28-3.56 1.91-.14.07-.28.14-.42.22q-1.754.93-3.42 1.83c-2.35 1.27-4.55 2.46-6.43 3.49q-.78.436-1.47.81c-.07-.03-.15-.06-.22-.09-.25-.1-.49-.21-.74-.32.56-.28 1.17-.59 1.81-.91 1.9-.98 4.12-2.12 6.5-3.35 1.2-.63 2.44-1.28 3.7-1.95a2.21 2.21 0 0 0 .34-.18c1.12-.58 2.26-1.17 3.39-1.77 1.18-.63 2.35-1.25 3.51-1.88a1.863 1.863 0 0 0 .2-.1c1.26-.67 2.49-1.33 3.69-1.97.26-.14.52-.29.78-.43.14-.07.27-.14.4-.21.29-.16.59-.32.87-.47a.138.138 0 0 0 .04-.03c.84-.45 1.65-.89 2.42-1.31.11-.06.21-.11.31-.17.26-.14.51-.28.76-.41.11-.06.21-.11.31-.17.18-.1.36-.19.54-.29l3.05-1.7c-.01.33-.03.67-.05 1zm.05-1.15c-.91.45-1.98.99-3.18 1.6-.24.12-.48.24-.72.38h-.01c-.1.05-.2.1-.31.16-.26.13-.52.26-.79.4-.1.05-.2.11-.31.16-.69.36-1.4.72-2.14 1.1a.168.168 0 0 1-.06.03c-.29.16-.59.31-.89.46-.12.07-.24.13-.36.19-.3.16-.61.32-.92.48-1.24.65-2.51 1.32-3.81 2a.538.538 0 0 0-.13.07c-1.15.6-2.32 1.21-3.48 1.82s-2.3 1.23-3.44 1.84c-.09.05-.19.1-.28.15-1.25.67-2.49 1.33-3.68 1.97-2.35 1.27-4.55 2.46-6.43 3.49-.68.37-1.31.72-1.9 1.05a37.982 37.982 0 0 1-5.5-3.2c-1.04-.74-2.18-1.5-3.16-2.31a21.273 21.273 0 0 1-2.72-2.88 30.914 30.914 0 0 1-4.18-6.98 32.52 32.52 0 0 1-1.43-3.94 30.12 30.12 0 0 1-.82-3.86c-.07-.55-.13-1.1-.17-1.65a.075.075 0 0 1-.01-.04.824.824 0 0 1-.04-.35.292.292 0 0 1 .02-.09c-.03-.36-.04-.72-.04-1.08a.878.878 0 0 1-.07-.46.845.845 0 0 1 .06-.24c0-.47.02-.94.05-1.4a1.017 1.017 0 0 1-.03-.35 1.188 1.188 0 0 1 .07-.27c.01 0 .01 0 0-.01.06-.64.14-1.28.25-1.91.09-.62.23-1.22.36-1.81a.037.037 0 0 1 .01-.03v-.02c.18-.62.3-1.23.5-1.8a15.912 15.912 0 0 1 1.41-3.29 16.29 16.29 0 0 1 4.3-4.95 22.266 22.266 0 0 1 8.43-3.88 1.74 1.74 0 0 1 .22-.05 28.306 28.306 0 0 1 19.15 3.03 29.687 29.687 0 0 1 3.03 1.91.38.38 0 0 1 .13.09c.44.31.88.64 1.3.98a.176.176 0 0 1 .05.04.375.375 0 0 1 .07.06l.03.03a29.49 29.49 0 0 1 2.37 2.09.733.733 0 0 1 .51.5c.21.22.42.44.62.66a.883.883 0 0 1 .7.75s.01 0 0 .01l.39.45a.76.76 0 0 1 .11.14h.01a.822.822 0 0 1 .72.86.176.176 0 0 0 .04.05l.03-.06v.04a.09.09 0 0 1-.01.05c.48.59.93 1.2 1.35 1.8l.08.11c.27.39.51.77.75 1.15l.12.21a.92.92 0 0 1 .53.84v.01a.2.2 0 0 1-.01.07c.14.24.26.48.38.72.25.48.48.96.7 1.46.26.61.5 1.23.71 1.85a.053.053 0 0 0 .02-.03.2.2 0 0 1-.01.07 27.59 27.59 0 0 1 1.31 5.9 28.074 28.074 0 0 1 .15 3.66zm1.294.4a.237.237 0 0 1 0-.026l.013.022z"/>
</svg>