<svg id="Layer_3" xmlns="http://www.w3.org/2000/svg" viewBox="0 0 100 100" width="100" height="100">
    <style>
        .st0{fill:#fff}.st1{fill:#f0bdf4}.st2{fill:#c94635}.st3{fill:#f7887f;stroke:#f7887f;stroke-width:.04;stroke-miterlimit:10}.st4{fill:#eb5f44;stroke:#eb5f44}.st4,.st5{stroke-width:.04;stroke-miterlimit:10}.st5{fill:#dd594b;stroke:#dd594b}.st6{fill:#c94a39;stroke:#c94a39}.st6,.st7{stroke-width:.04;stroke-miterlimit:10}.st7{fill:#bc56c1;stroke:#bc56c1}.st8{fill:#aa2704;stroke:#aa2704}.st8,.st9{stroke-width:.04;stroke-miterlimit:10}.st9{fill:#ce5ed1;stroke:#ce5ed1}.st10{fill:#aa4baf;stroke:#aa4baf}.st10,.st11{stroke-width:.04;stroke-miterlimit:10}.st11{fill:#8e2c93;stroke:#8e2c93}.st12{fill:#e0bb22;stroke:#e0bb22}.st12,.st13{stroke-width:.04;stroke-miterlimit:10}.st13{fill:#f7e8ad;stroke:#f7e8ad}.st14{fill:#fcd329;stroke:#fcd329}.st14,.st15{stroke-width:.04;stroke-miterlimit:10}.st15{fill:#bf8f08;stroke:#bf8f08}.st16{fill:#98e069}.st17{fill:#77bc4a;stroke:#77bc4a;stroke-miterlimit:10}.st18{fill:#8fbfef;stroke:#8fbfef}.st18,.st19{stroke-width:.04;stroke-miterlimit:10}.st19{fill:#619cf2;stroke:#619cf2}.st20{fill:#71b247;stroke:#71b247}.st20,.st21{stroke-width:.04;stroke-miterlimit:10}.st21{fill:#5094d8;stroke:#5094d8}.st22{fill:#4985ce;stroke:#4985ce}.st22,.st23{stroke-width:.04;stroke-miterlimit:10}.st23{fill:#60a037;stroke:#60a037}.st24{fill:#3b6d1b;stroke:#3b6d1b}.st24,.st25{stroke-width:.04;stroke-miterlimit:10}.st25{fill:#0b4599;stroke:#0b4599}.st26{fill:#999;stroke:#999}.st26,.st27{stroke-width:.04;stroke-miterlimit:10}.st27{fill:#ccc;stroke:#ccc}.st28{fill:#666;stroke:#666}.st28,.st29{stroke-width:.04;stroke-miterlimit:10}.st29{fill:#64a03d;stroke:#64a03d}
    </style>
    <g id="XMLID_3_">
        <path class="st0" d="M90.9 41.72c.02.02.04.05.06.07 1.14 1.27 2.24 2.43 3.16 3.43.93 1.01 1.74 1.81 2.29 2.39l.25.25-.77-.12-5.3-6.04.31.02zm-2.82-3.21c.95 1.1 1.9 2.19 2.82 3.21l-.31-.02-2.83-3.22.31.03h.01z"/>
        <path class="st0" d="M87.76 38.48l-3.22-3.67c.15.02.29.03.43.05h.01c.79.95 1.62 1.92 2.45 2.9.22.25.43.5.64.75l-.31-.03zm-8.7-11.09c.49.63 1.15 1.56 2.01 2.63.11.13.22.27.33.41l-.83-.13-5.26-6c.19-.18.39-.38.59-.58l2.71 3.07.01.01.44.59zm2.42 6.69c.1.12.21.22.33.31a1.904 1.904 0 0 0 .83.32c.25.03.48.09.71.18.21.08.43.18.61.29.01 0 .02.02.02.02l.01.01 1.21 1.32.44 2.94.01.06.04.05 2.82 3.33.06.06.07.01c.19.03.37.04.57.04.1 0 .19 0 .3-.02.1-.01.22-.05.28-.07.29-.06.64-.08.97-.09l1.46 1.52.24 1.45.01.04.02.02c.35.3.8.43 1.23.42l1.3 1.32.87.13.56.63-.24-.04h-.03l-1.71-.18-1.1-1.18-.08-.08-.1-.02-.97-.19-.4-.46-.09-1.42-.01-.1-.07-.09-.64-.76-.14-.16-.22.05-1.5.39c-.03.01-.08.02-.11.03h-.02c-.01 0-.03-.01-.06-.02-.09-.02-.2-.07-.3-.12-.2-.09-.39-.22-.58-.34l-2.05-2.44-.51-.62-.24-.31-.1-.14c-.02-.04-.08-.13-.08-.14-.16-.32-.21-.89-.22-1.35v-.08l-.31-1.95-.03-.19-.16-.13-.46-.38-.06-.04-.1-.08-.15-.09c-.1-.06-.2-.11-.3-.16-.4-.2-.81-.34-1.27-.42-.13-.02-.21-.02-.32-.04-.06-.01-.12-.02-.17-.04a.84.84 0 0 1-.31-.19c-.1-.09-.19-.21-.27-.35-.04-.06-.07-.14-.1-.21-.02-.05-.05-.11-.06-.15l-.12-1.79-.01-.2-.14-.14-1.19-1.18-.14-.14-.2-.01-1.64-.08-2.12-2.35-.19-.21-.44-.48v-.01l-.78-.85-.02-.02-.33-.37c.07-.35.29-.61.44-.75h.01l.49.53.04.04.04.04c.12.13.23.25.34.38.09.09.18.19.26.29l.08.08a.7.7 0 0 0 .08.1c.83.93 1.66 1.86 2.5 2.77l.04.03.05.01 1.55.23 1.71 1.66.1 1.86v.04l.02.04c.07.15.15.26.24.38z"/>
        <path class="st1" d="M73.11 6.83c1.3-.56 4.58 3.15 4.96 3.59-3.02-3-6.32-3-4.96-3.59z"/>
        <path class="st0" d="M80.2 71.22c.62 1.26 1.24 2.42 1.75 3.42.43.82.8 1.54 1.09 2.08.02.04.04.07.06.11.29.54.5.92.58 1.06l-.09-.22.65 1.13 3.15 1.18c.04.07.07.14.11.21.08.15.15.28.22.39l-4.36-1.07-5.92-12.04-3.04-6.13-1.52-3.06-.61-1.23c.33-.05.73-.11 1.18-.2.24.58.7 1.63 1.3 2.96.47 1.02 1.02 2.21 1.61 3.48.6 1.27 1.25 2.63 1.89 3.98.67 1.34 1.33 2.69 1.95 3.95z"/>
        <path class="st2" d="M70.51 35.95c-.11.27-.24.54-.38.81-.3.03-.6.1-.89.22.49-.71.95-.96 1.27-1.03z"/>
        <path class="st1" d="M67.63 18.67c-.46.11 4.38-2.72 5.36-5.02 0 0-.41 3.85-5.36 5.02z"/>
        <path class="st3" d="M69.51 44.16s4.97 2.33 4.97-2.93c0 0-.8 4.02-4.97 2.93zm.55-9.64c-2.5.16-4.32 1.83-4.91 2.45 1.55-1.4 7.83-2.64 4.91-2.45z"/>
        <path class="st4" d="M80.45 39.86c-.46-.8-.97-1.51-1.55-2.21-.6-.68-1.31-1.28-2.09-1.8-.8-.49-1.66-.91-2.59-1.18-.02 0-.03-.01-.05-.01-.2.62-.42 1.26-.69 1.92.28.28.8 1.04.58 2.68.03.07.05.15.07.22.08.31.1.56.11.72 0 .17.01.26.01.26l-.11.01s.07.03.09.07c.02.04.01.09.01.17 0 .14-.03.43-.11.73-.15.6-.56 1.47-1.47 2.11-.45.31-1.01.54-1.64.63-.16.02-.3.03-.49.03-.15-.01-.27 0-.46-.03a4.24 4.24 0 0 1-1-.28c-.08-.03-.16-.07-.23-.12-.24-.12-.46-.27-.67-.44-.13-.11-.25-.22-.36-.35a1.81 1.81 0 0 1-.25-.3c-.04-.05-.08-.09-.11-.14-.09-.14-.17-.28-.24-.43-.12-.23-.21-.48-.27-.73-.08-.3-.13-.62-.13-.96.01-.28.06-.73.17-1.07.12-.35.28-.68.48-.99.17-.24.36-.46.57-.63.01-.01.01-.02.03-.02.31-.3.65-.53 1.02-.69.05-.02.11-.04.16-.05.49-.71.95-.96 1.27-1.03.27-.58.49-1.15.67-1.69-.93.02-1.87.16-2.77.43-.95.31-1.81.73-2.68 1.3-.76.53-1.46 1.16-2.07 1.87.08.12.05.46-.18 1.18.11-.19.22-.37.32-.52.32-.48.55-.77.65-.87-.08.11-.3.42-.58.91-.36.64-.79 1.6-1.07 2.82a10.104 10.104 0 0 0-.16 3.61c.02.2.05.4.09.6l.03.17c.04.25.1.5.17.74l.12.39c.05.15.1.29.15.43l.01.01c.42.33 11.63 8.98 18.49-3.26-.1-1.38-.49-2.87-1.25-4.21zm-10.39-5.34c2.92-.19-3.36 1.05-4.91 2.45.59-.62 2.41-2.29 4.91-2.45zm-.55 9.64c4.17 1.09 4.97-2.93 4.97-2.93 0 5.26-4.97 2.93-4.97 2.93z"/>
        <path class="st5" d="M81.7 44.07c-6.86 12.24-18.07 3.59-18.49 3.26.06.18.13.35.21.53.03.07.06.14.1.2.31.66.69 1.31 1.16 1.9.49.65 1.07 1.25 1.71 1.74.62.53 1.32.91 2.02 1.25.35.16.71.28 1.05.42.36.09.71.21 1.06.28.67.14 1.38.2 1.99.21 1.25.01 2.28-.2 2.98-.42.4-.11.69-.22.87-.29-.08.04-.16.08-.27.13 1.28-.48 2.64-1.29 3.76-2.58.01-.02.03-.04.04-.07.42-.58.83-1.28 1.15-2.11.45-1.14.75-2.52.69-4.04-.01-.13-.01-.27-.03-.41z"/>
        <path class="st6" d="M73.48 36.58c-.15.35-.3.71-.47 1.07.58.52.9 1.12 1.05 1.61.22-1.64-.3-2.4-.58-2.68zm-.28 4.18c.03.41-.02.82-.11 1.17.16-.24.26-.49.32-.69.07-.26.1-.4.11-.57.01-.07 0-.13.02-.17.03-.04.1-.05.1-.05l-.11.01s0-.07-.01-.21c-.01-.13-.04-.33-.11-.57-.11-.36-.35-.84-.78-1.26-.06.12-.12.25-.19.37.05.05.1.11.14.17.36.55.58 1.19.62 1.8zm2.89 12.52c-.03.02-.07.03-.11.05-.01 0-.01.01-.02.01-.06.02-.11.04-.17.06-.08.04-.17.08-.27.12-.69.26-1.72.58-3.01.62a10.7 10.7 0 0 1-2.06-.14c-.37-.05-.73-.16-1.11-.24-.36-.13-.74-.25-1.11-.42-.73-.34-1.47-.73-2.13-1.27a9.746 9.746 0 0 1-3-3.79c-.04-.08-.07-.16-.11-.24-.07-.17-.14-.33-.2-.5-.05-.14-.1-.27-.13-.41-.05-.13-.09-.27-.12-.4a4.86 4.86 0 0 1-.18-.73l-.06-.34c-.02-.14-.05-.28-.06-.42-.09-.65-.09-1.29-.06-1.89.06-.74.18-1.42.35-2.04.25-.93.61-1.69.95-2.27.23-.72.26-1.06.18-1.18-.04.04-.08.09-.12.14-.61.79-1.11 1.65-1.48 2.56-.36.92-.57 1.88-.67 2.83-.07.78-.04 1.55.06 2.3l.09.55c.01.06.03.13.05.19.05.25.11.49.18.73.04.13.09.26.13.39l.15.39c.1.26.21.51.33.74.02.05.04.09.06.13.19.39.48.84.7 1.18.25.4.52.73.77 1.08 1.07 1.36 2.45 2.31 3.83 2.92 1.38.61 2.78.84 4.01.85s2.29-.24 3.13-.5c.42-.14.79-.27 1.09-.42.31-.14.57-.26.78-.4.22-.13.37-.24.49-.28.14-.05.21.01.21 0l-.07-.1s.2-.16.58-.45c.2-.13.41-.33.66-.57.26-.23.52-.53.8-.86.14-.17.28-.36.43-.56-1.12 1.29-2.48 2.1-3.76 2.58z"/>
        <path class="st7" d="M81.29 14l-.04-.04-.03-.08c-.16-.36-.36-.74-.56-1.1-.12-.2-.24-.41-.36-.61-5.55 11.06-15.72 9.85-18.7 9.32.4.56.84 1.1 1.31 1.61.49.55 1.02 1.08 1.57 1.57.56.48 1.15.95 1.76 1.32l.04.02.02.03c.24.27.59.43.94.44.36.02.72-.11.99-.35l.01-.02.03-.01c1.27-.77 2.51-1.61 3.71-2.51.2-.14.39-.28.59-.44.15-.1.29-.21.44-.33.11-.08.21-.16.32-.25.2-.15.4-.31.59-.47l.42-.33c.07-.06.15-.12.22-.18v-.01c.89-.72 1.74-1.51 2.53-2.33.89-.89 1.73-1.81 2.51-2.79-.45.66-.93 1.29-1.43 1.91l2.89-3.11s.25-.55.32-1.15c-.02-.04-.06-.08-.09-.11z"/>
        <path class="st8" d="M72.12 42.08c-.21.63-.52 1-.59 1.07-.19.06-.4.1-.61.12-.11.01-.26.02-.34.01-.14-.01-.31-.01-.4-.03a2.92 2.92 0 0 1-.68-.2c-.01-.01-.03-.01-.04-.02-.22-.1-.44-.23-.63-.4-.14-.1-.26-.23-.37-.36a2.56 2.56 0 0 1-.2-.26c-.01-.02-.03-.04-.04-.07-.12-.2-.22-.42-.28-.65-.09-.27-.13-.55-.13-.81v-.12c.02-.28.04-.47.11-.71a2.804 2.804 0 0 1 .95-1.41c.13-.02.29-.03.45-.02.08-.13.16-.26.23-.39.09-.14.18-.29.26-.44.11-.21.22-.42.32-.63-.3.03-.6.1-.89.22-.05.01-.11.03-.16.05-.37.16-.71.39-1.02.69-.02 0-.02.01-.03.02-.21.17-.4.39-.57.63-.2.31-.36.64-.48.99-.11.34-.16.79-.17 1.07 0 .34.05.66.13.96.06.25.15.5.27.73.07.15.15.29.24.43.03.05.07.09.11.14.07.11.16.21.25.3.11.13.23.24.36.35.21.17.43.32.67.44.07.05.15.09.23.12.33.13.64.23 1 .28.19.03.31.02.46.03.19 0 .33-.01.49-.03.63-.09 1.19-.32 1.64-.63.91-.64 1.32-1.51 1.47-2.11.08-.3.11-.59.11-.73 0-.08.01-.13-.01-.17-.02-.04-.09-.07-.09-.07l.11-.01s-.01-.09-.01-.26c-.01-.16-.03-.41-.11-.72-.02-.07-.04-.15-.07-.22a3.61 3.61 0 0 0-1.05-1.61c-.11.25-.24.51-.38.77.43.42.67.9.78 1.26.07.24.1.44.11.57.01.14.01.21.01.21l.11-.01s-.07.01-.1.05c-.02.04-.01.1-.02.17-.01.17-.04.31-.11.57-.06.2-.16.45-.32.69.09-.35.14-.76.11-1.17a3.81 3.81 0 0 0-.62-1.8 1.15 1.15 0 0 0-.14-.17c-.17.32-.36.65-.55.97.19.34.32.72.35 1.08.05.46 0 .89-.12 1.24z"/>
        <path class="st8" d="M63.87 38.56c.28-.49.5-.8.58-.91-.1.1-.33.39-.65.87-.1.15-.21.33-.32.52-.34.58-.7 1.34-.95 2.27-.17.62-.29 1.3-.35 2.04-.03.6-.03 1.24.06 1.89.01.14.04.28.06.42l.06.34c.04.24.1.49.18.73.03.13.07.27.12.4.03.14.08.27.13.41.06.17.13.33.2.5.04.08.07.16.11.24a9.746 9.746 0 0 0 3 3.79c.66.54 1.4.93 2.13 1.27.37.17.75.29 1.11.42.38.08.74.19 1.11.24.75.13 1.41.15 2.06.14 1.29-.04 2.32-.36 3.01-.62.1-.04.19-.08.27-.12.06-.02.11-.04.17-.06.01 0 .01-.01.02-.01.04-.02.08-.03.11-.05.11-.05.19-.09.27-.13-.18.07-.47.18-.87.29-.7.22-1.73.43-2.98.42-.61-.01-1.32-.07-1.99-.21-.35-.07-.7-.19-1.06-.28-.34-.14-.7-.26-1.05-.42-.7-.34-1.4-.72-2.02-1.25a9.094 9.094 0 0 1-1.71-1.74c-.47-.59-.85-1.24-1.16-1.9-.04-.06-.07-.13-.1-.2a5.83 5.83 0 0 1-.21-.53l-.01-.01c-.05-.14-.1-.28-.15-.43l-.12-.39a6.11 6.11 0 0 1-.17-.74l-.03-.17c-.04-.2-.07-.4-.09-.6a10.085 10.085 0 0 1 .16-3.61c.28-1.22.71-2.18 1.07-2.82z"/>
        <path class="st8" d="M81.35 39.31c-.44-.78-1-1.6-1.64-2.37-.65-.76-1.44-1.43-2.3-2.02-.88-.55-1.84-1.02-2.87-1.33-.02-.01-.04-.01-.06-.02-.02.07-.04.15-.06.23-.08.28-.16.57-.25.86.02 0 .03.01.05.01.93.27 1.79.69 2.59 1.18.78.52 1.49 1.12 2.09 1.8.58.7 1.09 1.41 1.55 2.21.76 1.34 1.15 2.83 1.25 4.21.02.14.02.28.03.41a9.96 9.96 0 0 1-.69 4.04 9.29 9.29 0 0 1-1.15 2.11c-.01.03-.03.05-.04.07-.15.2-.29.39-.43.56-.28.33-.54.63-.8.86-.25.24-.46.44-.66.57-.38.29-.58.45-.58.45l.07.1c0 .01-.07-.05-.21 0-.12.04-.27.15-.49.28-.21.14-.47.26-.78.4-.3.15-.67.28-1.09.42-.84.26-1.9.51-3.13.5s-2.63-.24-4.01-.85-2.76-1.56-3.83-2.92c-.25-.35-.52-.68-.77-1.08-.22-.34-.51-.79-.7-1.18-.02-.04-.04-.08-.06-.13-.12-.23-.23-.48-.33-.74l-.15-.39c-.04-.13-.09-.26-.13-.39-.07-.24-.13-.48-.18-.73-.02-.06-.04-.13-.05-.19l-.09-.55c-.1-.75-.13-1.52-.06-2.3.1-.95.31-1.91.67-2.83.37-.91.87-1.77 1.48-2.56.04-.05.08-.1.12-.14.61-.71 1.31-1.34 2.07-1.87.87-.57 1.73-.99 2.68-1.3.9-.27 1.84-.41 2.77-.43.13-.4.26-.78.36-1.15-.07-.01-.13-.01-.2-.01-1.1 0-2.2.16-3.27.47-1.06.32-2.11.84-3.01 1.43-.91.64-1.74 1.4-2.44 2.27-.68.88-1.24 1.84-1.65 2.86-.39 1.03-.63 2.1-.73 3.17-.08.99-.02 1.97.14 2.92.01.08.03.16.04.24l.12.49c.06.24.13.47.21.7.04.14.08.27.14.4.04.13.09.25.15.38.09.25.2.5.32.74.03.07.07.13.1.2.24.45.47.8.75 1.25.25.38.56.77.85 1.14 1.21 1.49 2.76 2.52 4.28 3.17 1.14.48 2.28.73 3.35.81.32.04.64.05.95.05h.11c.39-.01.76-.03 1.11-.08.88-.1 1.65-.31 2.3-.52.29-.1.55-.2.79-.3.02-.01.05-.02.07-.03.12-.05.23-.1.34-.16.35-.16.64-.31.84-.44.21-.14.38-.22.47-.31.09-.08.12-.2.12-.2l.07.1s.22-.17.64-.47c.21-.15.45-.37.72-.62.2-.16.39-.36.59-.59.1-.11.2-.22.3-.34.03-.03.05-.06.08-.1.2-.24.41-.51.61-.8.41-.58.8-1.26 1.12-2.05.51-1.25.86-2.76.82-4.42-.04-1.66-.43-3.45-1.39-5.15z"/>
        <path class="st9" d="M79.99 11.72c-.23-.35-.48-.68-.74-1.01-.13-.15-.26-.31-.4-.48-.14-.17-.27-.3-.42-.46-.56-.6-1.19-1.16-1.84-1.69a23.62 23.62 0 0 0-2.03-1.46l-.06-.04-.06-.07c-.22-.23-.53-.37-.86-.38-.33-.01-.67.11-.92.34l-.05.04-.06.04c-1.25.68-2.49 1.48-3.68 2.3-.45.3-.9.62-1.33.95.42.38.82.77 1.18 1.17.24-.17.49-.34.74-.5.16-.13.35-.23.58-.29.12-.03.26-.05.43-.03.13.01.3.07.44.19.22.11.39.24.58.38.2.15.4.33.57.53.04.05.1.12.12.16l.11.17c.07.11.14.22.19.34.06.12.1.24.14.36s.07.22.1.35c.07.12.09.24.08.35-.01.14-.05.25-.1.36-.09.19-.22.34-.36.46-.03.18-.17.27-.26.4l-.31.35-.14.15-.49.54c-.02.02-.03.03-.04.05-.16.17-.31.33-.48.48-.09.1-.18.19-.28.28-.12.12-.24.23-.37.34-.05.06-.11.11-.17.16-.15.13-.24.2-.36.29l-.01.01-.37.29c-.24.19-.49.37-.73.55-.48.37-.99.71-1.49 1.06-.17.13-.35.24-.58.29-.11.03-.24.05-.38.03a.752.752 0 0 1-.37-.18c-.1-.04-.18-.08-.27-.14-.11-.07-.22-.14-.32-.22a4.34 4.34 0 0 1-.53-.52c-.08-.1-.15-.18-.23-.29-.07-.1-.14-.2-.21-.31-.06-.1-.12-.21-.18-.33-.04-.1-.08-.18-.11-.3a.66.66 0 0 1-.12-.39c0-.13.03-.25.07-.36.08-.22.22-.39.37-.54.34-.46.71-.9 1.1-1.32-.64-1.22.05-2.09.24-2.29l-.19-.16c-1 .85-1.96 1.78-2.87 2.74-.99 1.05-1.94 2.17-2.78 3.33l-.04.05-.03.03c-.28.24-.48.58-.53.95.37-.1.94.26 1.07.34-.12-.26-.16-.54-.13-.82.05-.43.27-.83.6-1.09-.31.29-.5.69-.51 1.1-.02.41.13.81.4 1.1l.01.01.01.02c.32.66.74 1.28 1.17 1.89l.09.12h.01c2.98.53 13.15 1.74 18.7-9.32-.11-.15-.21-.3-.31-.45zm-9.22-1.89c-.87-.26 1.35-.6 1.84 1.65-.11-.15-1.03-1.4-1.84-1.65zm-3.14 8.84c-.46.11 4.38-2.72 5.36-5.02 0 0-.41 3.85-5.36 5.02zm5.48-11.84c1.3-.56 4.58 3.15 4.96 3.59-3.02-3-6.32-3-4.96-3.59z"/>
        <path class="st10" d="M70.77 9.83c.81.25 1.73 1.5 1.84 1.65-.49-2.25-2.71-1.91-1.84-1.65zm-4.41 3.04c-.33-.34-.67-.67-1.04-.99-.19.2-.88 1.07-.24 2.29.4-.45.83-.88 1.28-1.3zm15.02 1.24c-.07.6-.32 1.15-.32 1.15l-2.89 3.11a28.735 28.735 0 0 1-3.51 3.64l-.06.06c-.18.16-.37.32-.56.48-.2.17-.4.33-.61.49l-.33.27c-.15.11-.3.22-.44.33v.01c-.2.15-.4.3-.6.44-.14.11-.28.22-.42.32-1 .74-2.03 1.45-3.1 2.1-.01 0-.01.01-.02.02-.36.3-.83.46-1.3.43a1.82 1.82 0 0 1-1.22-.57l-.02-.02c-.66-.4-1.23-.88-1.79-1.38a17.38 17.38 0 0 1-1.57-1.64c-.51-.63-1.01-1.27-1.45-1.95-.38-.59-.72-1.19-.99-1.84v-.01h-.01v-.01c-.09-.12-.17-.24-.22-.38-.13-.08-.7-.44-1.07-.34-.01.01-.01.03-.01.04-.05.38.06.78.31 1.08l.04.04.02.06c.15.36.35.74.56 1.1a19.8 19.8 0 0 0 2.22 3.06c.56.63 1.15 1.23 1.79 1.78.32.27.65.53.98.77.34.24.69.49 1.03.67l.06.03.05.06c.25.27.61.42.98.42s.73-.15 1-.4l.02-.02.05-.03c1.21-.78 2.41-1.62 3.58-2.48.2-.14.39-.28.58-.43.2-.14.4-.29.59-.44l.45-.33c.11-.09.23-.18.34-.27.21-.16.42-.32.62-.5.22-.16.44-.33.65-.51.07-.06.15-.12.22-.18a44.094 44.094 0 0 0 4.65-4.55l.71-.83c.23-.27.43-.57.72-.8l.05-.06c.3-.27.48-.66.51-1.05.03-.34-.07-.68-.27-.94z"/>
        <path class="st11" d="M81.93 13.55c.01.02.01.03.02.05l-.07-.12c.02.02.04.04.05.07-.16-.42-.34-.8-.53-1.17-.2-.4-.42-.78-.65-1.15-.23-.38-.48-.74-.74-1.1-.14-.18-.27-.36-.41-.52-.12-.17-.28-.35-.42-.51-.59-.67-1.22-1.28-1.89-1.86-.64-.56-1.29-1.07-2.01-1.56-.42-.48-1.05-.74-1.66-.75-.59-.02-1.19.18-1.64.55l-.03.02c-1.32.72-2.55 1.51-3.77 2.36-.52.37-1.04.76-1.55 1.15.31.25.62.51.91.79.43-.33.88-.65 1.33-.95 1.19-.82 2.43-1.62 3.68-2.3l.06-.04.05-.04c.25-.23.59-.35.92-.34.33.01.64.15.86.38l.06.07.06.04c.69.44 1.38.94 2.03 1.46.65.53 1.28 1.09 1.84 1.69.15.16.28.29.42.46.14.17.27.33.4.48.26.33.51.66.74 1.01.1.15.2.3.31.45.12.2.24.41.36.61.2.36.4.74.56 1.1l.03.08.04.04c.03.03.07.07.09.11.2.26.3.6.27.94-.03.39-.21.78-.51 1.05l-.05.06c-.29.23-.49.53-.72.8l-.71.83a44.094 44.094 0 0 1-4.65 4.55c-.07.06-.15.12-.22.18-.21.18-.43.35-.65.51-.2.18-.41.34-.62.5-.11.09-.23.18-.34.27l-.45.33c-.19.15-.39.3-.59.44-.19.15-.38.29-.58.43-1.17.86-2.37 1.7-3.58 2.48l-.05.03-.02.02c-.27.25-.63.4-1 .4s-.73-.15-.98-.42l-.05-.06-.06-.03c-.34-.18-.69-.43-1.03-.67-.33-.24-.66-.5-.98-.77-.64-.55-1.23-1.15-1.79-1.78a19.8 19.8 0 0 1-2.22-3.06c-.21-.36-.41-.74-.56-1.1l-.02-.06-.04-.04c-.25-.3-.36-.7-.31-1.08 0-.01 0-.03.01-.04.05-.37.25-.71.53-.95l.03-.03.04-.05c.84-1.16 1.79-2.28 2.78-3.33.91-.96 1.87-1.89 2.87-2.74-.28-.25-.57-.49-.88-.72-.97.88-1.87 1.82-2.72 2.79-.98 1.13-1.9 2.27-2.73 3.53l-.01.01c-.39.38-.64.91-.69 1.46-.05.57.13 1.16.52 1.59.18.41.37.75.58 1.11.23.37.46.74.71 1.09.5.71 1.04 1.4 1.6 2.06.56.67 1.17 1.29 1.81 1.88.32.3.65.59.99.86s.66.51 1.05.75l-.06-.06.11.09c-.02-.01-.03-.02-.05-.03.39.43.95.68 1.52.71.58.03 1.15-.16 1.6-.52 1.26-.74 2.45-1.55 3.62-2.39a.405.405 0 0 1-.05-.09l.22-.19.27-.24c.05.03.09.05.13.1.08-.05.15-.11.22-.17.16-.11.32-.23.47-.36.11-.07.22-.16.33-.25.22-.16.43-.33.64-.5.18-.14.36-.28.53-.44.04-.03.08-.06.12-.1.23-.17.46-.37.69-.56.94-.79 1.82-1.64 2.65-2.53.15-.16.3-.32.45-.49l.09-.09c.13-.14.26-.28.37-.42.38-.41.73-.83 1.08-1.26l.7-.86c.22-.3.46-.57.61-.93.4-.36.68-.87.75-1.43.07-.54-.08-1.13-.44-1.57z"/>
        <path class="st11" d="M64.43 16.01h.01l.03-.04c.8-.84 1.66-1.65 2.55-2.4-.21-.23-.43-.47-.66-.7-.45.42-.88.85-1.28 1.3-.39.42-.76.86-1.1 1.32-.15.15-.29.32-.37.54-.04.11-.07.23-.07.36 0 .12.03.27.12.39-.01-.01-.01-.03-.02-.05l.06.1c-.02-.02-.03-.03-.04-.05.03.12.07.2.11.3.06.12.12.23.18.33.07.11.14.21.21.31.08.11.15.19.23.29.16.19.34.36.53.52.1.08.21.15.32.22.09.06.17.1.27.14l-.04-.04.12.08c-.03-.01-.06-.02-.08-.04.11.1.25.16.37.18.14.02.27 0 .38-.03.23-.05.41-.16.58-.29.5-.35 1.01-.69 1.49-1.06.24-.18.49-.36.73-.55l.37-.29.01-.01c.12-.09.21-.16.36-.29.06-.05.12-.1.17-.16.13-.11.25-.22.37-.34.1-.09.19-.18.28-.28.17-.15.32-.31.48-.48.01-.02.02-.03.04-.05l.49-.54.14-.15.31-.35c.09-.13.23-.22.26-.4.14-.12.27-.27.36-.46.05-.11.09-.22.1-.36a.58.58 0 0 0-.08-.35c0 .02.01.03.01.05l-.08-.15c.03.03.05.07.07.1-.03-.13-.06-.23-.1-.35s-.08-.24-.14-.36c-.05-.12-.12-.23-.19-.34l-.11-.17c-.02-.04-.08-.11-.12-.16-.17-.2-.37-.38-.57-.53-.19-.14-.36-.27-.58-.38.03.02.05.05.08.08l-.16-.12c.03.01.06.03.08.04a.802.802 0 0 0-.44-.19c-.17-.02-.31 0-.43.03-.23.06-.42.16-.58.29-.25.16-.5.33-.74.5.25.25.47.49.69.75.2-.14.39-.28.59-.41l.04-.03.02-.01a.56.56 0 0 1 .24-.16c.04-.02.07-.02.07-.02s-.04-.01-.08-.06l.08.06.08.06a3.535 3.535 0 0 1 1.03.64c.04.04.06.06.1.11l.1.11c.06.08.12.16.17.25.06.08.11.17.15.26.04.09.08.2.1.27l.07.26c.01-.01.01-.01.01-.02l.01.07-.02-.04c0 .01 0 .03-.01.04-.04.11-.12.22-.21.32l-.03.02c-.17.05-.23.2-.35.29l-.32.33-.03.03-.56.53-.07.06c-.14.13-.28.25-.42.38l-.29.26-.38.32c-.09.07-.18.15-.28.23-.06.05-.17.14-.26.21-.03.02-.06.04-.08.06l-.37.29c-.24.18-.47.38-.71.57-.48.39-.94.8-1.41 1.2l-.02.01a.69.69 0 0 1-.29.2c-.11.05-.18.02-.16.04l-.13-.09c-.07-.02-.17-.07-.26-.12-.08-.05-.17-.1-.26-.17-.17-.12-.32-.26-.46-.42-.07-.08-.14-.18-.2-.26-.06-.09-.12-.17-.17-.27-.05-.09-.1-.18-.14-.28-.03-.09-.07-.2-.08-.26l-.07-.14c.01 0 0-.07.05-.16.05-.1.14-.19.23-.27z"/>
        <path class="st11" d="M61.17 21.4c.44.68.94 1.32 1.45 1.95.49.58 1.01 1.13 1.57 1.64.56.5 1.13.98 1.79 1.38l.02.02c.31.34.76.54 1.22.57.47.03.94-.13 1.3-.43.01-.01.01-.02.02-.02a41.098 41.098 0 0 0 3.52-2.42c.2-.14.4-.29.6-.44v-.01c.14-.11.29-.22.44-.33l.33-.27c.21-.16.41-.32.61-.49.19-.16.38-.32.56-.48l.06-.06c1.28-1.11 2.45-2.33 3.51-3.64.5-.62.98-1.25 1.43-1.91-.78.98-1.62 1.9-2.51 2.79-.79.82-1.64 1.61-2.53 2.33v.01c-.07.06-.15.12-.22.18l-.42.33c-.19.16-.39.32-.59.47-.11.09-.21.17-.32.25-.15.12-.29.23-.44.33-.2.16-.39.3-.59.44-1.2.9-2.44 1.74-3.71 2.51l-.03.01-.01.02c-.27.24-.63.37-.99.35-.35-.01-.7-.17-.94-.44l-.02-.03-.04-.02c-.61-.37-1.2-.84-1.76-1.32-.55-.49-1.08-1.02-1.57-1.57-.47-.51-.91-1.05-1.31-1.61h-.01l-.09-.12c-.43-.61-.85-1.23-1.17-1.89l-.01-.02-.01-.01c-.27-.29-.42-.69-.4-1.1.01-.41.2-.81.51-1.1-.33.26-.55.66-.6 1.09-.03.28.01.56.13.82.05.14.13.26.22.38v.01h.01v.01c.27.65.61 1.25.99 1.84z"/>
        <path class="st0" d="M46.78 68.58c.27.39.63.71 1.01.97.35.24.72.41 1.13.52l.08 5.72.13 5.86c.04 1.96.12 3.91.19 5.87.06 1.91.18 3.83.27 5.74v.03l.87 2.13-1.81-2.09-.2-10.94-.26-11.2-.01-.34-.28-.16c-.84-.5-1.57-1.14-2.04-1.94-.24-.4-.41-.83-.54-1.3-.06-.23-.11-.47-.16-.73-.06-.26-.08-.52-.26-.9-.11-.19-.3-.46-.72-.52l-.21-.02c-.04 0-.09 0-.13-.01a.947.947 0 0 1-.44-.21c-.13-.12-.24-.28-.33-.46a1.31 1.31 0 0 1-.09-.28l-.02-.11-.02-.19c0-.01 0-.03-.01-.04l.79-.01c.09.15.19.3.32.43.22.23.54.39.86.38.16.01.31.02.44.09.12.07.24.18.32.3.08.12.16.24.23.38v.01c.03.1.07.26.11.48v.01c0 .44.07.87.2 1.29.13.44.32.86.58 1.24z"/>
        <path class="st12" d="M55.46 53.4c1.73-.89 1.79-2.2 1.72-2.76-.54.14-1.09.26-1.65.36.06.35.09.89-.16 1.32-.17.27-.42.46-.75.53-.1.02-.39.08-1.6.1 1.03.51 2.44.45 2.44.45zm-7.64-1.07c-.98-.79.78-4.42.78-4.42-2.06 1.87-1.76 3.63-1.76 3.63l.98.79zm16.96 7.06s-15.79 2.94-26.18.09c0 0-.3.59 1.18.79 1.47.19 1.47 1.76 1.47 1.76s1.17.49 2.55.1c1.37-.39 18.14.2 18.14.2s.29-.49.29-.98 1.67-.98 2.16-1.08c.49-.1.39-.88.39-.88z"/>
        <path class="st13" d="M63.11 57.33s1.47.68 1.28 0c-.2-.69-1.28 0-1.28 0zm-2.35-2.26s1.47.69 1.27 0c-.19-.69-1.27 0-1.27 0zm-1.86-2.45s1.47.69 1.27 0-1.27 0-1.27 0zm-10.3-5.88c-.57.68 3.66 0 3.66 0s-3.1-.69-3.66 0zm-5.69 5.88c-.19.69 1.28 0 1.28 0s-1.08-.69-1.28 0zm-1.66 2.35c-.2.69 1.27 0 1.27 0s-1.08-.68-1.27 0zm-2.54 2.16c-.19.69 1.28 0 1.28 0s-1.08-.69-1.28 0z"/>
        <path class="st14" d="M65.35 57.44c-.07-.45-.27-.81-.48-.88-.12-.06-.21-.04-.61-.05-.31-.02-.83-.12-1.17-.56-.32-.41-.3-.9-.31-1.14.01-.12-.02-.23-.03-.29-.09-.02-.29-.06-.48-.09-.13-.02-.34-.07-.51-.14-.1-.04-.2-.08-.32-.17a.93.93 0 0 1-.19-.17c-.03-.04-.07-.09-.1-.16-.02-.06-.05-.08-.07-.2l-.01-.05-.01-.04-.12-.51-.07-.3-.03-.15-.01-.02v-.02l-.02-.05c-.02-.07-.03-.09-.04-.09s-.01 0-.01-.01c-.02-.03-.05-.06-.08-.09a.958.958 0 0 0-.32-.14c-.14-.03-.31-.05-.47-.05-.1 0-.13 0-.27.01-.06 0-.06.01-.19.01-.1-.01-.22-.02-.29-.04a1.58 1.58 0 0 1-.83-.5c-.11-.1-.19-.22-.26-.33-.07-.12-.12-.2-.18-.35l-.02-.04c-.07-.1-.14-.21-.19-.31-.16.04-.32.09-.48.12.07.56.01 1.87-1.72 2.76 0 0-1.41.06-2.44-.45-.3.01-.66.01-1.09.01-1.32 0-2.62-.03-2.62-.03-.05 0-.6-.02-.96-.5-.24-.33-.32-.76-.23-1.29.01-.1.04-.21.07-.32l.13-.53.1-.38.04-.14.01-.03c.01-.06.02-.12.04-.18 0-.03.01-.05.02-.07.06-.33.13-.58.19-.78v-.02c0-.03.01-.06.02-.09.02-.08.04-.15.07-.21.06-.12.13-.25.23-.36.01-.01.02-.03.04-.04.25-.29.65-.52 1.23-.52h3.22c.15.01.49.07.86.51.59-.07 1.17-.18 1.73-.31-.14-.31-.26-.55-.41-.75-.18-.25-.4-.44-.66-.55-.12-.06-.27-.1-.36-.11l-.55-.01-2.32-.03-2.32-.03h-.56c-.09 0-.26.04-.39.09-.27.12-.52.31-.72.57-.21.25-.33.54-.51.9 0 .01-.01.01-.01.02-.11.24-.24.48-.37.71-.06.11-.12.23-.18.34s-.12.22-.18.32c-.08.13-.15.26-.23.39l-.21.36c-.15.27-.31.53-.48.79-.03.05-.06.09-.09.14a1.6 1.6 0 0 1-.11.19c-.04.06-.09.12-.14.18-.1.12-.22.23-.35.33-.25.19-.58.31-.9.34l-.04.01-.05-.01c-.1-.01-.23-.02-.35-.01-.12 0-.24.02-.35.04-.23.05-.42.13-.54.25-.06.07-.11.13-.13.22-.03.06-.06.23-.09.36l-.19.82c-.05.22-.13.24-.19.32-.07.06-.13.1-.19.14-.13.06-.24.1-.35.13-.22.07-.43.09-.6.12-.17.03-.29.09-.29.1-.02.01-.06.15-.07.31-.02.17.01.33-.04.62-.04.25-.17.54-.41.73-.49.37-1.05.27-1.31.3-.27.04-.49.18-.62.41-.13.25-.18.57-.18.92l-.02 2.25v.02c.03.09.07.2.12.3.05.11.12.22.2.32.16.19.34.32.57.38.06.01.11.03.17.04l.22.01c.07.01.16.01.31.05.13.03.24.07.35.14.23.14.41.37.5.6.04.12.07.23.08.35.01.06.01.12.01.18.06.13.17.29.28.37.15.1.18.12.42.11.16-.01.32 0 .49.03h.04c.58-.04 1.4-.13 2.39-.19 1.98-.13 4.61-.21 7.25-.21 2.64 0 5.27.08 7.25.21.99.06 1.82.15 2.39.19.17.01.32.03.44.04.28-.1.54-.12.77-.14h.09l.08-.01c.07-.01.01 0 .06-.02.05-.01.1-.04.16-.09.07-.06.15-.16.22-.26-.03-.13-.03-.26-.01-.42.04-.26.2-.53.4-.69.39-.33.84-.34 1.07-.38.06-.01.14-.02.19-.03.04-.01.08-.02.11-.03.09-.03.17-.06.25-.11.14-.08.25-.21.34-.36.04-.08.07-.16.1-.24.01-.05.02-.19.04-.32.02-.25.03-.51.04-.77 0-.51-.02-1.04-.1-1.52zm-.96-.11c.19.68-1.28 0-1.28 0s1.08-.69 1.28 0zm-2.36-2.26c.2.69-1.27 0-1.27 0s1.08-.69 1.27 0zm-1.86-2.45c.2.69-1.27 0-1.27 0s1.07-.69 1.27 0zM48.6 46.74c.56-.69 3.66 0 3.66 0s-4.23.68-3.66 0zm0 1.17s-1.76 3.63-.78 4.42l-.98-.79s-.3-1.76 1.76-3.63zm-4.41 4.71s-1.47.69-1.28 0c.2-.69 1.28 0 1.28 0zm-2.94 2.35c.19-.68 1.27 0 1.27 0s-1.47.69-1.27 0zm-1.26 2.16s-1.47.69-1.28 0c.2-.69 1.28 0 1.28 0zm24.4 3.14c-.49.1-2.16.59-2.16 1.08 0 .49-.29.98-.29.98s-16.77-.59-18.14-.2c-1.38.39-2.55-.1-2.55-.1s0-1.57-1.47-1.76c-1.48-.2-1.18-.79-1.18-.79 10.39 2.85 26.18-.09 26.18-.09s.1.78-.39.88z"/>
        <path class="st15" d="M66.54 57.24c-.05-.3-.14-.65-.31-.97a1.88 1.88 0 0 0-.87-.82c-.39-.19-.87-.15-1.01-.16-.21-.02-.28-.07-.28-.08-.02-.04-.06-.13-.06-.42 0-.16-.01-.34-.05-.53s-.14-.5-.41-.71c-.54-.35-.81-.27-1.05-.34a.773.773 0 0 1-.24-.07l.02.11c-.01-.01-.02-.02-.02-.03-.02-.04-.04-.05-.05-.07-.01-.01-.01-.02-.01-.02h.02c.01 0 .03.01.04.01l-.1-.42-.06-.3-.04-.15-.03-.13-.02-.08c-.01-.05-.12-.31-.22-.45s-.22-.25-.35-.35c-.26-.19-.54-.3-.8-.36s-.51-.08-.76-.08c-.1 0-.28.02-.34.03-.04 0-.14.01-.12 0h-.01c-.05-.02-.13-.05-.21-.14a.983.983 0 0 1-.12-.15c-.03-.05-.08-.13-.09-.16l-.03-.08-.02-.03c-.03-.04-.05-.09-.08-.13-.39.13-.79.25-1.2.36.05.1.12.21.19.31l.02.04c.06.15.11.23.18.35.07.11.15.23.26.33.19.22.48.42.83.5.07.02.19.03.29.04.13 0 .13-.01.19-.01.14-.01.17-.01.27-.01.16 0 .33.02.47.05.13.03.25.09.32.14.03.03.06.06.08.09 0 .01 0 .01.01.01s.02.02.04.09l.02.05v.02l.01.02.03.15.07.3.12.51v-.04l.01.04v.04l.01.05c.02.12.05.14.07.2.03.07.07.12.1.16.07.08.13.13.19.17.12.09.22.13.32.17.17.07.38.12.51.14.19.03.39.07.48.09-.01-.06-.01-.07.03 0v.01c-.01 0-.02 0-.03-.01.01.06.04.17.03.29.01.24-.01.73.31 1.14.34.44.86.54 1.17.56.4.01.49-.01.61.05.21.07.41.43.48.88.08.48.1 1.01.1 1.52-.01.26-.02.52-.04.77-.02.13-.03.27-.04.32-.03.08-.06.16-.1.24-.09.15-.2.28-.34.36-.08.05-.16.08-.25.11-.03.01-.07.02-.11.03-.05.01-.13.02-.19.03-.23.04-.68.05-1.07.38-.2.16-.36.43-.4.69-.02.16-.02.29.01.42.02-.05.05-.09.07-.13v.43c-.03-.11-.06-.21-.07-.3-.07.1-.15.2-.22.26-.06.05-.11.08-.16.09-.05.02.01.01-.06.02l-.08.01h-.09c-.23.02-.49.04-.77.14.18.02.31.04.38.04.69-.04 1.39-.11 2.09-.18.02-.02.03-.05.04-.07v-.45c.01.01-.01-.08 0-.08h.01c.03-.04.17-.08.47-.1l.21-.03.29-.07c.17-.05.34-.13.5-.22.33-.19.6-.48.78-.81.09-.16.16-.33.21-.51.05-.22.06-.36.08-.5.02-.29.04-.58.05-.87.01-.57-.02-1.14-.11-1.74zm-4.24-3.88c0-.03-.01-.05-.01-.06l.01.02v.04zm-13.15-2.28l.17-.67.1-.38.04-.15v-.01l.02-.09.02-.08.03-.09.2-.73.02-.06s.06-.13.2-.27c.15-.18.43-.39.84-.39h.03c.14.01.28.01.42.02.87.01 1.78-.04 2.64-.12.17-.02.34-.04.51-.08-.37-.44-.71-.5-.86-.51h-3.22c-.58 0-.98.23-1.23.52-.02.01-.03.03-.04.04-.1.11-.17.24-.23.36-.03.06-.05.13-.07.21-.01.03-.02.06-.02.09v.02c-.06.2-.13.45-.19.78-.01.02-.02.04-.02.07-.02.06-.03.12-.04.18l-.01.03-.04.14-.1.38-.13.53c-.03.11-.06.22-.07.32-.09.53-.01.96.23 1.29.36.48.91.5.96.5 0 0 1.3.03 2.62.03.43 0 .79 0 1.09-.01 1.21-.02 1.5-.08 1.6-.1.33-.07.58-.26.75-.53.25-.43.22-.97.16-1.32-.33.06-.66.11-.99.16.04.23.05.52-.03.65-.02.02-.03.04-.1.06-.16.03-.7.09-2.48.09-1.3 0-2.58-.03-2.58-.03-.01 0-.14-.01-.2-.1-.04-.05-.11-.21-.03-.57 0-.05.01-.11.03-.18z"/>
        <path class="st15" d="M61.54 62.83c-.12-.01-.27-.03-.44-.04-.57-.04-1.4-.13-2.39-.19-1.98-.13-4.61-.21-7.25-.21-2.64 0-5.27.08-7.25.21-.99.06-1.81.15-2.39.19h-.04a2.05 2.05 0 0 0-.49-.03c-.24.01-.27-.01-.42-.11-.11-.08-.22-.24-.28-.37 0 .03 0 .06-.01.1l-.02-.13c.02.01.02.02.03.03 0-.06 0-.12-.01-.18-.01-.12-.04-.23-.08-.35-.09-.23-.27-.46-.5-.6a1.07 1.07 0 0 0-.35-.14c-.15-.04-.24-.04-.31-.05l-.22-.01c-.06-.01-.11-.03-.17-.04-.23-.06-.41-.19-.57-.38-.08-.1-.15-.21-.2-.32-.05-.1-.09-.21-.12-.3v-.02l.02-2.25c0-.35.05-.67.18-.92.13-.23.35-.37.62-.41.26-.03.82.07 1.31-.3.24-.19.37-.48.41-.73.05-.29.02-.45.04-.62.01-.16.05-.3.07-.31 0-.01.12-.07.29-.1.17-.03.38-.05.6-.12.11-.03.22-.07.35-.13.06-.04.12-.08.19-.14.06-.08.14-.1.19-.32l.19-.82c.03-.13.06-.3.09-.36.02-.09.07-.15.13-.22.12-.12.31-.2.54-.25.11-.02.23-.04.35-.04.12-.01.25 0 .35.01l.05.01.04-.01c.32-.03.65-.15.9-.34.13-.1.25-.21.35-.33.05-.06.1-.12.14-.18.04-.06.07-.11.11-.19.03-.05.06-.09.09-.14.17-.26.33-.52.48-.79l.21-.36c.08-.13.15-.26.23-.39.06-.1.12-.21.18-.32s.12-.23.18-.34c.13-.23.26-.47.37-.71 0-.01.01-.01.01-.02.18-.36.3-.65.51-.9.2-.26.45-.45.72-.57.13-.05.3-.09.39-.09h.56l2.32.03 2.32.03.55.01c.09.01.24.05.36.11.26.11.48.3.66.55.15.2.27.44.41.75.4-.08.78-.18 1.16-.3-.01-.01-.01-.03-.02-.04-.15-.31-.33-.73-.63-1.11a2.89 2.89 0 0 0-1.13-.88c-.24-.1-.46-.17-.76-.18h-.6l-2.32.03-2.32.03-.59.01c-.3.02-.51.09-.73.19-.44.2-.8.51-1.07.87-.28.36-.45.78-.59 1.11-.02.05-.05.1-.08.15-.11.24-.23.48-.36.72-.02.05-.04.09-.07.14-.09.17-.18.33-.28.5a6.955 6.955 0 0 1-.43.76c-.13.24-.28.48-.43.72l-.01.02-.02.03s0 .01-.01.02c0 .02-.03.06-.05.09l-.09.12c-.06.07-.13.14-.2.19-.14.11-.3.17-.46.2H44c-.14-.02-.26-.02-.4-.01-.16.01-.32.03-.49.06-.32.07-.67.2-.94.49-.13.14-.24.32-.3.5-.07.2-.08.31-.11.45l-.17.77h.01c-.01.01-.01.03-.02.05l.01-.05h-.01c-.05.03-.11.06-.19.07-.14.05-.32.07-.53.1-.19.05-.47.07-.74.35-.23.29-.24.56-.26.77-.02.21-.01.44-.03.53-.03.12-.07.21-.13.25-.06.05-.18.09-.33.11-.16.01-.32-.01-.58.02-.49.05-.99.36-1.23.8-.24.43-.29.9-.3 1.3l-.06 2.3v.05l.01.04a2.55 2.55 0 0 0 .48 1.06c.25.32.6.59 1 .7.1.03.21.06.31.07l.26.03c.09 0 .16.02.17.03.03 0 .07.02.09.04.05.03.08.07.11.13.01.04.02.08.02.13.01.04 0 .11 0 .12l-.02.12.05.12c.05.11.1.21.15.31.39.04 1.29.11 2.6.18-.01-.01-.02-.01-.03-.02.27.03.57.05.91.08.07 0 .13.01.2.01.22.02.45.04.7.05 1.98.13 4.61.21 7.25.22 2.64-.01 5.27-.09 7.25-.22.99-.05 1.82-.14 2.39-.19.06 0 .11-.01.16-.02h.01c.47-.04.74-.07.74-.07s-.03-.01-.09-.02c-.19.02-.38.04-.57.05.06-.04.13-.07.19-.09z"/>
        <path class="st16" d="M23.89 9.87s10.1-1.38 10.69-.49c.59.88-10.69.49-10.69.49z"/>
        <path class="st17" d="M34.13 13.28c.07.02.13.05.19.07l-.15-.12c-.01.02-.02.03-.04.05z"/>
        <path class="st17" d="M40.13 14.36l-1.27-1.81-.03-.04-.74-.84-.46-.53-.09-.1h-.01l-.31-.32-.33-.33-.46-.46-.39-.4c-.1-.09-.2-.17-.3-.23a2.09 2.09 0 0 0-.45-.22 3.29 3.29 0 0 0-.93-.2c-.27-.01-.73.02-1.08.02l-1.13.03-2.26.05c-1.5.03-3.01.08-4.52.09h-.56l-.26.01c-.09 0-.2 0-.27.01-.27.03-.62.1-.92.2-.31.11-.61.24-.9.41-.27.15-.55.34-.75.51l-.89 1.11-.23.28c-.03.04-.11.16-.17.25-.12.19-.24.38-.35.58-.22.4-.42.81-.56 1.23a4.183 4.183 0 0 0-.22 1.13l.39 2.78c1.28 2.35 3.94 6.26 7.91 7.09.16-1.42.44-2.84.85-4.19.15-.48.32-.95.5-1.42-.46-.99-.22-2.09-.08-2.54-.17-.64-.14-1.34.02-1.88.19-.65.49-1.14.87-1.55.76-.8 1.69-1.08 2.31-1.13.31-.03.56-.02.73 0l.25.03v.11s.03-.06.07-.08c.05-.01.1.01.18.02.13.03.42.1.7.22a.3.3 0 0 1 .08.04c.19.08.4.19.61.34.12.09.24.19.36.31.1.08.2.19.28.3.19.21.36.44.5.72l.03.06c.24.49.39 1.08.38 1.72-.01.16-.02.3-.05.49-.03.14-.04.27-.1.45-.1.35-.24.64-.43.94-.14.23-.32.44-.53.64-.6 2.08-2.64 2.58-3.24 2.67-.06.16-.12.33-.17.5-.31 1.04-.52 2.08-.66 3.15 2.13-.51 4.54-1.93 7.2-4.7l.45-1.79.24-.97c.07-.31.18-.65.24-.94.09-.61.05-1.28-.28-1.8l-1.05-1.66-.38-.49-.52-.67-.12-.16-.16-.18-.31-.35-.41-.47.44.44.33.33.17.16h.01l.13.15.56.63.42.47v.01h.01c.39.54.76 1.08 1.15 1.62.28.42.39.9.41 1.37.15-.43.38-.94.64-1.06-.02-.06-.06-.11-.09-.16zM23.89 9.87s10.1-1.38 10.69-.49c.59.88-10.69.49-10.69.49z"/>
        <path class="st18" d="M35.46 34.97c-.88-.59-6.08 0-6.08 0s6.96.59 6.08 0zm-13.16 4.5c.57-.7 3.69-4.59 3.06-4.5-.65.09-2.58 3.72-3.06 4.5z"/>
        <path class="st19" d="M32.17 37.13c-.08.02-.19.06-.32.11-.07.03-.14.06-.22.1-.07.03-.14.07-.21.12-.17.1-.35.24-.52.41-.23.24-.45.54-.61.92-.01.01-.01.03-.02.04-.16.39-.24.87-.21 1.31 0 .02 0 .05.01.07.01-.09.03-.19.06-.28.07-.28.18-.56.34-.82.16-.29.36-.57.6-.82.01-.01.02-.02.03-.02.16-.16.33-.3.51-.41.13-.1.27-.18.42-.24.13-.08.26-.13.4-.17.1-.05.19-.08.29-.1.19-.05.39-.09.58-.1.21-.02.41-.02.6-.01-.25-.1-.49-.15-.69-.17-.02-.01-.04-.01-.06-.01-.26-.03-.41-.03-.57-.01-.08 0-.13.02-.17.01-.05-.02-.07-.07-.07-.07l.03.09-.11.03c-.03 0-.06.01-.09.02zm-6.84 16.29c.21.11.47.15.75.16-.52-.14-1-.34-1.2-.42.12.09.27.18.45.26z"/>
        <path class="st19" d="M41.21 43.33c-.22-.41-.45-.83-.69-1.26-.92-1.71-1.9-3.51-2.91-5.37l-.38-.71-.19-.35a1.852 1.852 0 0 0-1.12-.94c-.31-.12-.92-.09-1.46-.12l-1.66-.06-.73-.03c-.31-.02-.62-.03-.94-.04-.13-.01-.27-.02-.41-.02l-.52-.03-.74-.03c-.35-.02-.7-.04-1.04-.05-.79-.04-1.58-.08-2.37-.11a2.07 2.07 0 0 0-1.79.87l-.46.7c-.59.95-1.18 1.91-1.77 2.85-.57.96-1.14 1.9-1.7 2.84-.28.47-.56.93-.83 1.4 0 0 3.89 13.68 19.37 4.96a29.42 29.42 0 0 1-2.85-2.02c-.21-.18-.42-.36-.62-.55-2.88.7-3.99-1.45-4.21-1.95v-.01c-.18-.08-.35-.19-.5-.31a3.42 3.42 0 0 1-.87-.91 3.66 3.66 0 0 1-.63-1.83c-.04-.67.08-1.24.3-1.75.1-.22.22-.42.35-.6.21-.31.45-.56.7-.76.19-.15.38-.28.56-.37.07-.04.14-.07.2-.1.09-.04.17-.08.24-.1.16-.07.3-.1.4-.13.01 0 .03-.01.04-.01l.26-.06.03.09c.01-.02.02-.06.04-.09.04-.02.1-.02.17-.03.08-.02.2-.03.35-.04.12 0 .26 0 .39.01.62.03 1.55.28 2.34 1.05.39.39.73.9.93 1.5v.02l.01.01c.04.15.07.27.11.45.02.14.04.27.05.46.02.36-.02.68-.09 1.03-.05.23-.13.45-.24.67.38.41.77.8 1.17 1.16v.01c.23.23.48.44.72.65.7.57 1.42 1.1 2.17 1.59.02-.21 0-.42-.06-.62-.1-.39-.41-.82-.6-1.23-.21-.41-.42-.81-.63-1.2-.4-.78-.79-1.52-1.15-2.2-.35-.68-.67-1.31-.96-1.87-.29-.54-.5-1.06-.76-1.41-.32-.38-.65-.56-.86-.66.02 0 .04 0 .06.01.23.09.56.26.86.6.31.35.53.85.86 1.38.31.54.67 1.15 1.05 1.82.38.67.79 1.39 1.22 2.16.22.38.44.78.67 1.18.22.42.49.76.66 1.3.09.32.11.67.06 1 .02.01.04.03.06.04.24 0 .61-.21.59-1.42l-.25-.46zM22.3 39.47c.48-.78 2.41-4.41 3.06-4.5.63-.09-2.49 3.8-3.06 4.5zm7.08-4.5s5.2-.59 6.08 0c.88.59-6.08 0-6.08 0z"/>
        <path class="st20" d="M31.05 24.58c-.13.94-.2 1.89-.22 2.88l.03.82c.72.11 1.44-.01 2.14-.21.22-.06.42-.12.63-.2.21-.07.39-.16.59-.26l1.18-.57.02-.01v-.01h.01c.48-.37.91-.85 1.22-1.37.35-.54.48-1.13.63-1.79.29-1.29.63-2.57.94-3.85l.03-.13c-2.66 2.77-5.07 4.19-7.2 4.7zm-3.65 2.83c.02-.9.08-1.82.19-2.75-3.97-.83-6.63-4.74-7.91-7.09l.48 3.38 5.4 6.27s1.01.34 1.85.56c-.01-.09-.01-.17-.01-.26-.71-.23-1.43-.46-2.14-.69.71.2 1.43.4 2.14.59v-.01z"/>
        <path class="st21" d="M19.5 42.87c-.05.08-.1.17-.14.24-.08.67.03 2.01 1.49 3.92 1.99 2.61 3.64 5.56 3.89 6.02.04.04.09.07.14.11.2.08.68.28 1.2.42h.01c.25.01.52 0 .81 0H29c1.54.02 3.33.04 5.25.06.44 0 .87-.16 1.22-.44.35-.26.55-.71.82-1.14.53-.87 1.06-1.74 1.59-2.62.33-.54.66-1.08.99-1.61-15.48 8.72-19.37-4.96-19.37-4.96z"/>
        <path class="st22" d="M41.7 44.4c-.04-.18-.08-.3-.17-.47l-.07-.14c.02 1.21-.35 1.42-.59 1.42.23.14.46.27.69.4a1.777 1.777 0 0 0 .14-1.21zm-6.3.86a24.91 24.91 0 0 1-1.63-1.62c-.06.02-.11.03-.17.04-.33.06-.74.08-1.11.04a4.39 4.39 0 0 1-1.06-.29l-.24-.12c.22.5 1.33 2.65 4.21 1.95zm2.9 4.44c-.54.87-1.08 1.74-1.61 2.6-.26.41-.49.91-.94 1.25-.43.34-.97.52-1.5.52-1.93-.05-3.71-.15-5.25-.2-.77-.04-1.48-.08-2.1-.11-.61-.03-1.19-.03-1.61-.26-.41-.21-.66-.47-.8-.67a.72.72 0 0 1-.12-.19c.07.1.18.25.37.41-.25-.46-1.9-3.41-3.89-6.02-1.46-1.91-1.57-3.25-1.49-3.92-.08.15-.15.28-.2.4-.07.21-.12.43-.12.64-.01.46.08.82.34 1.23.26.45.52.9.77 1.34.52.88 1.01 1.75 1.48 2.6l.12.21c.43.78.85 1.54 1.26 2.27.21.4.43.8.64 1.18.1.19.2.37.3.56.08.14.18.27.29.38.23.23.51.39.81.48l.22.06c.08.01.12.02.23.02.2.01.38.02.57.02.77.03 1.51.05 2.2.08 1.03.05 1.96.08 2.78.12.01 0 .01-.01.02 0 .04-.01.09-.01.13.01.22 0 .43.01.63.02.99.04 1.77.07 2.3.1.53-.02.81.15.81.11 0 0 .24.02.67-.12.21-.07.46-.19.71-.4.26-.21.42-.47.68-.94.75-1.29 1.74-3 2.91-5.03-.21-.12-.43-.24-.64-.37-.32.54-.64 1.08-.97 1.62z"/>
        <path class="st23" d="M40.22 14.52c-.26.12-.49.63-.64 1.06.02.22.01.44-.02.66-.06.36-.13.65-.21.98l-.22.97-.46 1.93c-.3 1.28-.59 2.57-.92 3.85-.14.62-.32 1.34-.71 1.92a5.44 5.44 0 0 1-1.4 1.51l-.03.01-1.22.56c-.2.09-.43.19-.64.25-.22.07-.44.13-.66.18-.44.11-.89.18-1.35.2-.29.01-.58-.01-.86-.06.02.34.05.69.09 1.04l.14.03c.11.02.27.05.36.05.18.02.41.03.64.01.45-.02.92-.11 1.38-.23.23-.06.46-.14.68-.21l.33-.13.31-.15c.44-.21.89-.41 1.33-.61.23-.16.5-.4.72-.63.23-.25.44-.52.62-.8.17-.29.33-.58.44-.89.1-.29.2-.68.3-1.04l1.18-4.37.55-2.19.28-1.09c.07-.36.19-.77.23-1.07.08-.6.02-1.24-.24-1.74zm-8.03-1.4c.33-.06.67-.08.99-.05.08 0 .15.01.22.03.26.03.51.09.73.18.02-.02.03-.03.04-.05a2.7 2.7 0 0 0-.49-.3c-.04-.02-.08-.03-.11-.05-.18-.07-.3-.11-.43-.14-.07-.02-.13-.02-.17-.05-.03-.04-.03-.1-.03-.1l-.01.1s-.07-.01-.2-.02c-.05 0-.11-.01-.18-.01-.11.01-.25.01-.41.04-.48.06-1.2.31-1.77.95-.27.31-.51.74-.63 1.17 0 .02-.01.03-.01.05.04-.08.09-.15.14-.23.34-.51.85-.94 1.44-1.24.28-.13.58-.22.88-.28zm-6.63 14.1l-5.4-6.27-.48-3.38-.39-2.78v.11l.02 1.44.02.55.03.91.11 2.93c0 .09-.02.16-.16.3l.19.24.02.01c.17.15.52.47.96.9.63.62 1.41 1.49 2.15 2.39.73.91 1.42 1.85 1.9 2.59.23.37.42.68.54.91.19.01.36.09.55.12l.74.2 1.09.29c-.02-.29-.03-.6-.04-.9-.84-.22-1.85-.56-1.85-.56z"/>
        <path class="st24" d="M40.82 13.91L39.6 12l-.02-.02-.01-.02-.72-.9-.47-.6-.03-.03-.02-.02-.31-.35-.3-.35h-.01l-.42-.48-.44-.49c-.06-.06-.12-.13-.19-.18-.28-.25-.62-.45-.94-.58a4.65 4.65 0 0 0-1.26-.31c-.49-.03-.78-.02-1.19-.02l-1.13-.01h-2.26c-1.5.01-3.01-.01-4.52.02h-.56l-.31.01c-.1.01-.18 0-.29.02-.48.04-.87.14-1.28.27-.41.13-.79.31-1.16.52-.37.21-.69.42-1.05.74-.03.02-.05.05-.07.07l-.01.01-.9 1.16-.22.29c-.11.16-.17.25-.24.37-.14.22-.27.45-.39.68-.24.46-.45.95-.61 1.47-.07.25-.14.52-.18.8-.04.27-.06.59-.05.84.01.5.06 1.01.1 1.5l.16 1.47c.11.96.25 1.92.39 2.87.01-.01.03-.01.04-.02.2-.08.42.01.5.2l.08.1c.14-.14.16-.21.16-.3l-.11-2.93-.03-.91-.02-.55-.02-1.44v-.11a4.183 4.183 0 0 1 .22-1.13c.14-.42.34-.83.56-1.23a9.02 9.02 0 0 1 .52-.83l.23-.28.89-1.11c.2-.17.48-.36.75-.51.29-.17.59-.3.9-.41.3-.1.65-.17.92-.2.07-.01.18-.01.27-.01l.26-.01h.56c1.51-.01 3.02-.06 4.52-.09l2.26-.05 1.13-.03c.35 0 .81-.03 1.08-.02.31.02.64.09.93.2.17.06.31.13.45.22.1.06.2.14.3.23l.39.4.46.46.33.33.31.32h.01l.09.1.46.53.74.84.03.04 1.27 1.81c.03.05.07.1.09.16.26.5.32 1.14.24 1.74-.04.3-.16.71-.23 1.07l-.28 1.09-.55 2.19-1.18 4.37c-.1.36-.2.75-.3 1.04-.11.31-.27.6-.44.89-.18.28-.39.55-.62.8-.22.23-.49.47-.72.63-.44.2-.89.4-1.33.61l-.31.15-.33.13c-.22.07-.45.15-.68.21-.46.12-.93.21-1.38.23-.23.02-.46.01-.64-.01-.09 0-.25-.03-.36-.05l-.14-.03c.04.42.09.83.16 1.25.04.01.1.02.16.03.32.03.6.04.88.02.56-.02 1.1-.12 1.63-.25.26-.07.52-.14.78-.23l.39-.14.38-.17c.46-.21.92-.44 1.37-.66l.03-.01a.21.21 0 0 0 .06-.04c.37-.27.65-.54.93-.86.28-.3.53-.64.74-1 .22-.35.39-.74.51-1.15.12-.43.19-.77.27-1.15l.95-4.41.51-2.21.25-1.1c.09-.38.19-.69.27-1.13.11-.81.06-1.69-.42-2.46z"/>
        <path class="st24" d="M33.09 28.4c.22-.05.44-.11.66-.18.21-.06.44-.16.64-.25l1.22-.56.03-.01a5.44 5.44 0 0 0 1.4-1.51c.39-.58.57-1.3.71-1.92.33-1.28.62-2.57.92-3.85l.46-1.93.22-.97c.08-.33.15-.62.21-.98.03-.22.04-.44.02-.66-.02-.47-.13-.95-.41-1.37-.39-.54-.76-1.08-1.15-1.62h-.01v-.01l-.42-.47-.56-.63-.13-.15h-.01l-.17-.16c-.02.01-.03.03-.05.05l.16.18.12.16.52.67.38.49 1.05 1.66c.33.52.37 1.19.28 1.8-.06.29-.17.63-.24.94l-.24.97-.45 1.79-.03.13c-.31 1.28-.65 2.56-.94 3.85-.15.66-.28 1.25-.63 1.79-.31.52-.74 1-1.22 1.37h-.01v.01l-.02.01-1.18.57c-.2.1-.38.19-.59.26-.21.08-.41.14-.63.2-.7.2-1.42.32-2.14.21.01.08.01.17.02.26.28.05.57.07.86.06.46-.02.91-.09 1.35-.2z"/>
        <path class="st24" d="M31.06 14.75c.2-.18.43-.33.68-.44a2.818 2.818 0 0 1 1.37-.28c.14.01.29.02.42.05.18.02.34.07.5.12.1.04.2.08.29.13.03.01.05.03.07.04.32.17.55.35.7.49.09.09.15.15.18.19.04.21.06.42.05.65-.01.11-.03.26-.05.34-.03.14-.05.3-.09.39-.07.22-.19.46-.32.68-.29.43-.7.8-1.2 1.02-.22.11-.47.18-.72.21-.17.34-.32.69-.47 1.04.56 0 1.1-.13 1.6-.36.4-.2.76-.45 1.05-.76.21-.2.39-.41.53-.64.19-.3.33-.59.43-.94.06-.18.07-.31.1-.45.03-.19.04-.33.05-.49.01-.64-.14-1.23-.38-1.72l-.03-.06c-.14-.28-.31-.51-.5-.72-.08-.11-.18-.22-.28-.3a3.31 3.31 0 0 0-.36-.31c-.21-.15-.42-.26-.61-.34a.3.3 0 0 0-.08-.04c-.28-.12-.57-.19-.7-.22-.08-.01-.13-.03-.18-.02-.04.02-.07.08-.07.08v-.11l-.25-.03a3.49 3.49 0 0 0-.73 0c-.62.05-1.55.33-2.31 1.13-.38.41-.68.9-.87 1.55-.16.54-.19 1.24-.02 1.88 0 .02 0 .04.01.06.1.39.27.77.51 1.12l.01.02h.01c.03.01.07.01.09.01.14-.32.29-.63.44-.94.05-.09.09-.19.15-.28.01-.01.01-.02.01-.03 0-.04.01-.09.02-.14.06-.23.11-.39.2-.57.09-.19.19-.39.33-.57.12-.16.25-.31.41-.43l.01-.01zm-1.19-.11c-.05.08-.1.15-.14.23 0-.02.01-.03.01-.05.12-.43.36-.86.63-1.17.57-.64 1.29-.89 1.77-.95.16-.03.3-.03.41-.04.07 0 .13.01.18.01.13.01.2.02.2.02l.01-.1s0 .06.03.1c.04.03.1.03.17.05.13.03.25.07.43.14.03.02.07.03.11.05.15.07.32.17.49.3l.15.12c-.06-.02-.12-.05-.19-.07a2.79 2.79 0 0 0-.73-.18.78.78 0 0 0-.22-.03 3.68 3.68 0 0 0-.99.05c-.3.06-.6.15-.88.28-.59.3-1.1.73-1.44 1.24zM27.4 27.42c-.71-.19-1.43-.39-2.14-.59.71.23 1.43.46 2.14.69v-.1z"/>
        <path class="st24" d="M26.36 28.39l-.74-.2c-.19-.03-.36-.11-.55-.12-.12-.23-.31-.54-.54-.91-.48-.74-1.17-1.68-1.9-2.59-.74-.9-1.52-1.77-2.15-2.39a28 28 0 0 0-.96-.9l-.02-.01c-.05-.04-.08-.06-.09-.07.06.12.33.6.74 1.25.48.73 1.16 1.68 1.89 2.57.08-.06.14-.11.17-.13-.03.03-.08.09-.15.16.74.91 1.51 1.77 2.14 2.39.26.25.49.47.67.63-.09.01-.17.05-.23.12-.01.01-.02.02-.02.03.13-.06.29-.02.4.1.12.14.1.35-.03.48l-.15.13c.16.08.34.11.51.18l.73.23 1.46.47-.09-1.13-1.09-.29z"/>
        <path class="st25" d="M40.75 44.17c-.17-.54-.44-.88-.66-1.3-.23-.4-.45-.8-.67-1.18-.43-.77-.84-1.49-1.22-2.16-.38-.67-.74-1.28-1.05-1.82-.33-.53-.55-1.03-.86-1.38-.3-.34-.63-.51-.86-.6-.02-.01-.04-.01-.06-.01.21.1.54.28.86.66.26.35.47.87.76 1.41.29.56.61 1.19.96 1.87.36.68.75 1.42 1.15 2.2.21.39.42.79.63 1.2.19.41.5.84.6 1.23.06.2.08.41.06.62.14.09.28.18.42.26.05-.33.03-.68-.06-1zm-5.19-6.81a3.674 3.674 0 0 0-2.34-1.05c-.13-.01-.27-.01-.39-.01-.15.01-.27.02-.35.04-.07.01-.13.01-.17.03-.02.03-.03.07-.04.09l-.03-.09-.26.06c-.01 0-.03.01-.04.01-.1.03-.24.06-.4.13-.07.02-.15.06-.24.1-.06.03-.13.06-.2.1-.18.09-.37.22-.56.37-.25.2-.49.45-.7.76-.13.18-.25.38-.35.6-.22.51-.34 1.08-.3 1.75.03.58.24 1.27.63 1.83.23.35.52.66.87.91.15.12.32.23.5.31v.01l.24.12c.34.14.7.24 1.06.29.37.04.78.02 1.11-.04.06-.01.11-.02.17-.04-.27-.29-.53-.59-.79-.89-.4.02-.79-.05-1.17-.2a2.64 2.64 0 0 1-.76-.48c-.07-.17-.12-.39-.14-.62a3.1 3.1 0 0 1 0-.61c.03-.21.05-.43.13-.65.01-.02.01-.04.02-.06.1-.34.3-.67.54-.95.05-.06.11-.12.17-.18a2.606 2.606 0 0 1 .72-.52c.14-.08.28-.14.42-.18.02-.01.05-.01.07-.02.28-.08.56-.13.82-.13.14-.01.29 0 .42.02.62.08 1.02.3 1.14.37.01 0 .01.01.01.01l.01.01c.09.18.17.36.23.57.03.1.06.25.08.33.01.14.04.3.03.4.02.23-.02.5-.07.75-.01.03-.01.05-.02.08.23.28.46.55.7.81.11-.22.19-.44.24-.67.07-.35.11-.67.09-1.03-.01-.19-.03-.32-.05-.46-.04-.18-.07-.3-.11-.45l-.01-.01v-.02c-.2-.6-.54-1.11-.93-1.5zm-2.26-.11c-.19.01-.39.05-.58.1-.1.02-.19.05-.29.1-.14.04-.27.09-.4.17-.15.06-.29.14-.42.24-.18.11-.35.25-.51.41-.01 0-.02.01-.03.02-.24.25-.44.53-.6.82-.16.26-.27.54-.34.82a1.4 1.4 0 0 0-.06.28c-.01-.02-.01-.05-.01-.07-.03-.44.05-.92.21-1.31.01-.01.01-.03.02-.04.16-.38.38-.68.61-.92.17-.17.35-.31.52-.41.07-.05.14-.09.21-.12.08-.04.15-.07.22-.1.13-.05.24-.09.32-.11.03-.01.06-.02.09-.02l.11-.03-.03-.09s.02.05.07.07c.04.01.09-.01.17-.01.16-.02.31-.02.57.01.02 0 .04 0 .06.01.2.02.44.07.69.17a4.05 4.05 0 0 0-.6.01z"/>
        <path class="st25" d="M43.06 44.13a2.99 2.99 0 0 0-.27-.83c-.12-.21-.23-.43-.35-.64-.22-.42-.45-.84-.68-1.26-.94-1.71-1.92-3.51-2.93-5.37l-.39-.69-.2-.35a3.193 3.193 0 0 0-1.95-1.56c-.17-.04-.32-.08-.51-.1-.11-.01-.17-.01-.24-.02h-.23l-.82-.01c-.55-.01-1.11-.02-1.66-.02h-1.16c-.3-.01-.6-.01-.91-.01h-.89c-.25 0-.49-.01-.73 0-.34-.01-.67-.01-1-.01-.69 0-1.37-.01-2.06-.01-.68-.01-1.34.22-1.87.63-.26.2-.49.44-.67.73l-.44.74c-.58.96-1.16 1.92-1.73 2.88-.59.95-1.17 1.88-1.74 2.81l-.87 1.38c-.14.21-.31.45-.44.76-.12.29-.2.6-.23.91-.02.31 0 .63.07.93.07.31.2.62.32.85.24.47.48.92.71 1.38.46.91.93 1.79 1.38 2.65.04.07.07.14.11.2.18.33.35.66.52.98.14.27.28.53.42.79.1.18.2.35.29.53.22.4.43.79.65 1.18.11.2.22.4.33.59.03-.05.06-.08.07-.09-.01.02-.03.06-.06.11.14.22.31.43.49.6.37.37.83.63 1.32.77.12.04.24.06.36.09.13.02.28.03.36.03.21.01.41.01.61.02l2.2.03h.28c.14-.14.29-.28.44-.41-.09.14-.18.28-.28.41.42.01.82.01 1.21.01.4 0 .78.01 1.14.01h.78c.99.01 1.76.02 2.29.02.53.04.82-.11.82-.07h.24c.15 0 .39-.02.69-.1.29-.09.65-.24 1-.51.37-.26.7-.74.93-1.13.83-1.27 1.92-2.96 3.21-4.96-.37-.17-.72-.35-1.08-.55-1.17 2.03-2.16 3.74-2.91 5.03-.26.47-.42.73-.68.94-.25.21-.5.33-.71.4-.43.14-.67.12-.67.12 0 .04-.28-.13-.81-.11-.53-.03-1.31-.06-2.3-.1-.2-.01-.41-.02-.63-.02-.04-.01-.08-.01-.13-.01-.01-.01-.01 0-.02 0-.82-.04-1.75-.07-2.78-.12-.69-.03-1.43-.05-2.2-.08-.19 0-.37-.01-.57-.02-.11 0-.15-.01-.23-.02l-.22-.06c-.3-.09-.58-.25-.81-.48a1.82 1.82 0 0 1-.29-.38c-.1-.19-.2-.37-.3-.56-.21-.38-.43-.78-.64-1.18-.41-.73-.83-1.49-1.26-2.27l-.12-.21c-.47-.85-.96-1.72-1.48-2.6-.25-.44-.51-.89-.77-1.34-.26-.41-.35-.77-.34-1.23 0-.21.05-.43.12-.64.05-.12.12-.25.2-.4.04-.07.09-.16.14-.24.27-.47.55-.93.83-1.4.56-.94 1.13-1.88 1.7-2.84.59-.94 1.18-1.9 1.77-2.85l.46-.7a2.07 2.07 0 0 1 1.79-.87c.79.03 1.58.07 2.37.11.34.01.69.03 1.04.05l.74.03.52.03c.14 0 .28.01.41.02.32.01.63.02.94.04l.73.03 1.66.06c.54.03 1.15 0 1.46.12a1.852 1.852 0 0 1 1.12.94l.19.35.38.71c1.01 1.86 1.99 3.66 2.91 5.37.24.43.47.85.69 1.26l.25.46.07.14c.09.17.13.29.17.47a1.777 1.777 0 0 1-.14 1.21c.39.22.78.42 1.19.61a3.18 3.18 0 0 0 .31-2.09z"/>
        <path class="st25" d="M26.9 53.58c-.29 0-.56.01-.81 0h-.01c-.28-.01-.54-.05-.75-.16-.18-.08-.33-.17-.45-.26-.05-.04-.1-.07-.14-.11-.19-.16-.3-.31-.37-.41.02.05.06.12.12.19.14.2.39.46.8.67.42.23 1 .23 1.61.26.62.03 1.33.07 2.1.11 1.54.05 3.32.15 5.25.2.53 0 1.07-.18 1.5-.52.45-.34.68-.84.94-1.25.53-.86 1.07-1.73 1.61-2.6.33-.54.65-1.08.97-1.62-.13-.08-.27-.16-.4-.25-.33.53-.66 1.07-.99 1.61-.53.88-1.06 1.75-1.59 2.62-.27.43-.47.88-.82 1.14-.35.28-.78.44-1.22.44-1.92-.02-3.71-.04-5.25-.06h-2.1z"/>
        <path class="st0" d="M17.95 56.81l.58-1 1.68-2.96.42-.75c.12.13.3.33.5.57l-2.96 4.86-.22-.72zm-.77-33.41l1.05-1.06.38-.4c.1.11.28.31.51.56-.46.51-2.18 2.17-4.33 4.22l-.01-.88.31-.31 2.09-2.13zm-2.61 39.2c.19-.3.37-.61.55-.91l1.22-2.11.19.64-1.79 2.94-.17-.56zm-3.71-32.86l.78-.78.01.74-1.72 1.63-.03-.66c.33-.31.65-.62.96-.93zM13.5 65.2l-4.95 8.12.19 2.93c-.23-1.04-.45-2.07-.65-3.11 1.13-1.9 2.3-3.78 3.48-5.66.59-.94 1.18-1.88 1.76-2.83l.17.55z"/>
        <path class="st26" d="M95.53 43.29a386.6 386.6 0 0 1-2.54-3.14c-.32-.38-.63-.77-.94-1.16l-.55-.1 1 1.25 2.54 3.14 2.26 2.78-.52 1.71v.01c.09.14.18.25.25.35l.65-2.23c-.72-.87-1.43-1.74-2.15-2.61zm-4.82-4.68l-.76-.97-.16-.19.03-.16-.15.65.5.93.9-.05-.21-.03zM90 35.96l-2.92-3.46-.48-.01 2.82 3.53.58-.03zM88.44 75.7l-1.15-2.23-.09-.18.04-.2.3-1.48v-.02l-.01-.01c-.03-.05-.05-.1-.09-.14a.728.728 0 0 0-.24-.22c-.05-.03-.1-.06-.16-.09l-.25-.11-.5-.21-.05-.02-.04-.03c-.11-.08-.16-.13-.24-.2a1.627 1.627 0 0 1-.45-.8c-.05-.22-.04-.47.03-.67l.1-.38c.11-.43.21-.9.29-1.35l-.98-1.82h-.01l-1.99-.91-.08-.03-.05-.05c-.12-.11-.17-.18-.24-.28-.07-.09-.12-.19-.17-.29a1.76 1.76 0 0 1-.14-.68c0-.24.06-.46.14-.65l.19-.44.64-1.53-1.6-3.61-1.52-.1-.88-.06.51-.71 1.39-1.95-.55-1.46-.4-1.06c-.03.04-.05.07-.08.1-.1.12-.2.23-.3.34-.2.23-.39.43-.59.59-.27.25-.51.47-.72.62-.42.3-.64.47-.64.47l-.07-.1s-.03.12-.12.2c-.09.09-.26.17-.47.31-.2.13-.49.28-.84.44-.11.06-.22.11-.34.16.11.18.26.45.45.78.04.08.09.16.13.25 1.29-.56 2.59-1.38 3.58-2.57l-.09-.26.11.24.02.05.28.64.01.01-.01.02c-.69 1.03-1.35 2.08-2.05 3.1l2.8.35.11.02.05.1 1.21 2.8.04.09-.05.1c-.27.54-.52 1.12-.71 1.69-.1.29-.18.59-.23.88-.02.14-.04.28-.03.42 0 .14.01.23.07.37.2.51.69.81 1.26 1.09.13.06.31.19.42.26.1.06.24.13.37.19.28.11.57.2.86.27l.12.03.05.11.64 1.62.03.08-.03.07c-.13.39-.24.78-.34 1.17-.09.39-.18.8-.17 1.16 0 .08.03.16.03.17.07.09.11.14.19.21.14.13.3.26.46.38.32.24.66.47 1 .69l.02.02.01.01c.09.1.13.18.17.28.04.09.06.18.08.28.05.18.06.37.05.56 0 .35-.07.7-.17 1.03l.91 1.93.48 1.02.15.29.55 1.01s-.11.44-.33 1.37c-.22.93-.81.86-.81.86.07.2.14.38.19.53l.22.05c.2-.08.41-.19.5-.25v-.01c.01-.05.02-.14.03-.21.04-.21.08-.39.13-.57.17-.65.36-1.27.56-1.9-.09-.32-.21-.66-.33-.92l-.57-1.12zM75.95 54.89c-.24.1-.5.2-.79.3-.65.21-1.42.42-2.3.52-.35.05-.72.07-1.11.08h-.11l.1.19.38.77.15.3c.33-.05.73-.11 1.18-.2a.076.076 0 0 1-.02-.04l-.04-.09c-.04-.09-.07-.17-.09-.23.05.08.12.2.2.35.83-.16 1.83-.43 2.85-.85-.03-.09-.06-.17-.09-.25-.13-.36-.24-.65-.31-.85zm-3.1-24.96c.16-.26.36-.5.58-.56.01-.1.01-.2.01-.29.03-.51.04-.9.06-1.17.01-.1.02-.18.04-.24l-.34-.39-.22-.26c.01.27.02.41.02.41l-.09.02s.05.13.07.38c0 .25-.03.62-.05 1.11 0 .29-.03.62-.08.99zm.36-3.89l.25.28.03.03c.07-.35.29-.61.44-.75h.01l.01-.02c.08-.08.14-.12.14-.12.32-.29.75-.7 1.22-1.16.19-.18.39-.38.59-.58 1.01-.99 2.11-2.08 2.77-2.74l1.84 1.99-.49 1.31 4.11 5.21-.6 1.65 1.1 1.21.35-.07-.18-.22-.85-.98-.23-.26.11-.32.57-1.54-3.94-4.99-.16-.2.08-.23.37-1.06-1.63-1.95-.35-.42c-.15.17-.3.33-.45.49-.83.89-1.71 1.74-2.65 2.53-.23.19-.46.39-.69.56-.04.04-.08.07-.12.1-.17.16-.35.3-.53.44-.21.17-.42.34-.64.5-.11.09-.22.18-.33.25-.15.13-.31.25-.47.36-.07.06-.14.12-.22.17.09.05.17.13.25.21.1.11.19.22.29.32zm-2.62-11.36l.07-.06c-.23-.35-.47-.69-.74-1.04-.05.18-.15.4-.36.59.22.3.42.59.61.89.14-.13.28-.25.42-.38z"/>
        <path class="st26" d="M72.01 37.97c.14-.26.27-.52.37-.77.45-.95.79-1.86 1.06-2.71.1-.3.19-.6.27-.89.02-.07.04-.14.05-.21.11-.4.21-.78.3-1.15.1-.43.14-.84.21-1.22.04-.25.08-.48.11-.71.07-.46.11-.87.11-1.24.01-.09.01-.18.01-.27l-.11-.13-.54-.64c-.01.26-.03.62-.05 1.07 0 .1 0 .21-.02.32-.02.45-.09.97-.19 1.57-.06.37-.1.77-.19 1.19-.09.35-.18.71-.28 1.09l-.06.24c-.08.28-.16.57-.26.86-.24.81-.56 1.68-.97 2.58-.11.26-.23.53-.37.8-.02.04-.04.09-.07.13-.13.28-.28.56-.45.84-.2.37-.43.75-.68 1.13a22.384 22.384 0 0 1-1.8 2.42c.11.13.23.26.37.36.36-.41.7-.82 1.01-1.24.33-.42.64-.85.92-1.28.23-.34.44-.68.64-1.01.18-.3.34-.59.49-.88.05-.09.09-.17.12-.25zM69.5 15.64l.38-.32c-.21-.31-.42-.63-.66-.94-.37-.53-.79-1.06-1.25-1.57-.21-.25-.44-.5-.68-.75-.38-.4-.78-.79-1.2-1.16-.28-.26-.57-.5-.87-.74-.46-.38-.94-.74-1.44-1.08-2.69-1.82-6.06-3.17-9.74-3.61-3.71-.42-7.73.11-11.44 1.79-1.28.56-2.5 1.29-3.67 2.12-.31.22-.61.45-.91.68l.31.35c.29-.22.58-.43.88-.63 1.15-.81 2.34-1.51 3.59-2.04 3.63-1.6 7.59-2.1 11.15-1.69 3.65.44 6.89 1.74 9.53 3.5.46.31.9.63 1.32.97.3.23.59.47.87.73.43.37.84.76 1.22 1.16.24.24.46.48.67.72.41.46.8.93 1.15 1.4.28.37.54.74.79 1.11z"/>
        <path class="st26" d="M68.55 40.54c-.19.25-.4.5-.61.75.06.23.16.45.28.65.27-.31.52-.63.77-.95-.19-.16-.34-.33-.44-.45zm-8.01 6.41c-.54.25-1.09.48-1.67.69-.01.2-.01.47.06.77.63-.22 1.24-.48 1.82-.76-.08-.23-.15-.46-.21-.7zM51.5 70.78c.02.15.06.51.1 1.03.03.37.07.83.11 1.37.04.46.08.98.1 1.54.05 1.04.13 2.22.18 3.49.01.21.01.42.02.63.06 1.5.08 3.11.11 4.71v.02c0 1.22.01 2.45-.01 3.62 0 .37 0 .73-.01 1.08-.01 1.51-.08 2.92-.12 4.12-.03 1.19-.12 2.17-.15 2.88l.55-.6V70.25l-.88.05v.48z"/>
        <path class="st26" d="M49.32 50.41c.59.05 1.19.06 1.77.1.04 0 .09.01.13 0 .44.03.9-.03 1.34-.04.5-.04.99-.02 1.47-.1.1-.01.21-.02.31-.04.34-.04.67-.09 1-.15.64-.11 1.26-.25 1.88-.4.4-.1.8-.22 1.19-.34.27-.09.54-.18.81-.29.62-.21 1.23-.45 1.82-.72-.06-.13-.11-.25-.15-.38-.59.27-1.21.53-1.85.74-.27.12-.55.21-.83.3-.39.12-.78.24-1.19.34-.58.15-1.18.28-1.79.39-.33.06-.66.11-1 .15-.05.01-.1.01-.15.02-.47.08-.95.07-1.43.11-.48.01-.96.08-1.46.04-.07 0-.13-.01-.2-.01-.51-.03-1.04-.05-1.57-.1l-.1.38zm.41-1.53l-.2.73c.47.04.93.06 1.4.08.01-.28.08-.55.16-.75-.45-.02-.91-.03-1.36-.06zm8.98 14.29c-1.98.13-4.61.21-7.25.22-2.64-.01-5.27-.09-7.25-.22-.25-.01-.48-.03-.7-.05-.07 0-.13-.01-.2-.01-.31-.02-.61-.03-.88-.06.29.22.49.6.5.93l.79-.01a3.02 3.02 0 0 1-.18-.36c.06.12.13.24.21.36l16.37-.25c.05-.16.09-.33.11-.5.01.17 0 .33-.03.5-.02.16-.06.31-.11.46-.12.31-.33.65-.74.72l-.25.02a.856.856 0 0 0-.57.23c-.2.17-.34.44-.41.7v.01c-.02.5-.07.99-.22 1.48-.13.49-.36.95-.62 1.38-.27.44-.62.82-1.02 1.14-.35.28-.73.51-1.17.67.05 1.04.1 2.09.12 3.12v.09l-.04.04c-.47.46-.94.93-1.42 1.37.02.48.04.96.04 1.44-.01-.09-.03-.18-.04-.27v.56l-.68.62-.16.22v.73c.16 1.17.29 2.35.41 3.52.34.28.68.57 1.01.86l.11.09-.04.14c-.19.74-.38 1.54-.36 2.27.01.17.05.3.14.44.08.14.22.28.35.48.14.2.2.51.14.74-.04.23-.13.44-.23.62-.11.2-.21.35-.34.53-.12.17-.24.32-.34.47-.19.3-.26.65-.27 1.03-.01.77.14 1.55.27 2.33.08.3.16.6.24.91l.44-.48-.41-2.48-.01-.07v-.05c0-.21.02-.37.05-.56.03-.18.07-.37.15-.57.08-.2.19-.44.45-.66.03-.02.07-.05.11-.07l.01-.01.01-.01h.01v-.01h.02v-.01s.01 0 .01-.01v-.01c.07-.12.14-.38.16-.62.02-.25.02-.51-.02-.75a1.78 1.78 0 0 0-.22-.65l-.12-.25c-.05-.12-.1-.26-.12-.38-.04-.22-.04-.44-.02-.63.03-.4.15-.75.28-1.07.07-.17.15-.33.23-.49l-.99-1.02-.15-.16-.01-.2-.33-3.67-.03-.36.31-.17.82-.45-.07-1.62-.02-.26.2-.15 1.06-.82-.11-2.81-.13-.2.29-.27c.4-.37.77-.61 1.12-.96.35-.34.65-.71.88-1.12.24-.41.4-.86.52-1.33.05-.23.1-.48.14-.73.06-.26.07-.52.24-.89.08-.18.32-.46.63-.52.07-.02.13-.03.2-.03 0 0 .05-.01.08-.01.06 0 .13-.01.15-.02.12-.02.29-.1.41-.22.13-.11.24-.27.32-.45.08-.19.11-.33.11-.56-.01-.1.01-.21.05-.33.09-.29.3-.6.56-.75-.05.01-.1.02-.16.02-.57.05-1.4.14-2.39.19zM45.52 49.31c-1.05-.3-2.08-.68-3.1-1.12-.24-.1-.48-.21-.71-.33-.38-.18-.75-.38-1.11-.59-.21-.12-.42-.24-.62-.36-.13-.09-.26-.17-.39-.24-.86-.57-1.69-1.18-2.49-1.84-.68-.58-1.32-1.2-1.92-1.86-.22-.24-.44-.48-.64-.73-.58-.68-1.11-1.39-1.6-2.12-.04-.04-.07-.09-.1-.13-.27-.41-.53-.83-.76-1.26-.11.08-.21.17-.31.27-.06.06-.12.12-.17.18.2.34.4.67.62 1 .13.19.26.37.4.55a24.538 24.538 0 0 0 2.08 2.55c.6.64 1.24 1.25 1.91 1.82.88.71 1.79 1.37 2.74 1.97l.39.24c.21.13.42.25.63.36.36.21.73.4 1.1.58l.6.27c1.06.45 2.14.85 3.23 1.15.08-.12.15-.24.22-.36z"/>
        <path class="st26" d="M32.91 38.3c-.14.04-.28.1-.42.18.23.43.48.84.75 1.25l.07.1c.13-.08.28-.14.47-.16l-.22-.31c-.23-.35-.45-.7-.65-1.06zm-.44-22.67c.12-.2.24-.4.37-.59.22-.33.45-.65.69-.96-.13-.03-.28-.04-.42-.05s-.29-.01-.43.01c-.16.21-.31.43-.46.65-.38.58-.74 1.18-1.06 1.8.54-.53.96-.78 1.3-.85l.01-.01zm.84.26c.08-.13.16-.26.25-.39.27-.39.54-.76.83-1.13-.02-.01-.04-.03-.07-.04-.09-.05-.19-.09-.29-.13-.27.36-.54.73-.79 1.1-.08.13-.16.25-.24.38-.51.83-.97 1.69-1.36 2.57-.14.3-.27.6-.39.91-.26.64-.49 1.3-.7 1.96-.36 1.2-.6 2.42-.74 3.66-.09.7-.14 1.4-.17 2.11l.32 1.36c0-.06 0-.12-.01-.18-.01-.22-.01-.44-.02-.66.02-.87.08-1.76.2-2.66.15-1.2.39-2.42.74-3.57.21-.65.44-1.29.71-1.92.12-.32.26-.63.4-.93.39-.85.83-1.66 1.33-2.44zm-3.44 17.38c-.11-.43-.21-.86-.29-1.3l-.95-1.42c.12.91.28 1.82.51 2.72.24-.01.48 0 .73 0zm-1.61 23.01c-.18.24-.38.47-.57.7-.03.03-.07.04-.1.04-.52-.04-1.03-.08-1.55-.17l-.92-.04-.02-.01c-.27.44-.79 1.31-1.49 2.44v.01c.25.56.41 1.13.52 1.72v.01c.01.03 0 .05-.01.07-.19.28-.4.54-.62.79l-1.33-.31-.21.33c.1-.02.21-.02.31.01l1.57.46.95-1.17-.49-1.91-.01-.02a.587.587 0 0 1 .08-.47l.74-1.14.02-.03c.12-.19.33-.28.54-.25l2.29.28 1.07-1.05.86-.83c-.39 0-.79 0-1.21-.01-.13.19-.27.37-.42.55zm-6.64-4.41c-.14-.26-.28-.52-.42-.79l-.16.29-.41.73c.12.13.3.33.5.57.27.3.56.66.8 1.03.19.29.37.65.59.99l.37-.52c-.11-.19-.22-.39-.33-.59-.22-.39-.43-.78-.65-1.18-.09-.18-.19-.35-.29-.53z"/>
        <path class="st26" d="M19.94 64.97l-.54.84c-.03.05-.06.09-.1.14.02.03.06.1.1.2.05.14.09.32.12.5v.05c.02.16.03.33.02.46-.01.12-.03.2-.04.23v.01h-.01l-.51.19-1.04.37c-.19.28-.37.55-.55.82-.09.13-.18.25-.26.38l-.06.09.2.84-.95.26-.01.01c-.02.04-.04.06-.07.1 0 0 0 .01-.01.01-.12.3-.47 1.1-.6 1.59-.07.24-.16.43-.24.58-.14.23-.26.35-.26.35l-.79.41-.01.01-.25.13c-.35.47-.61.82-.77 1.05l-.64 1.25-.46.07h.05s-.14.06-.36.12c-.21.06-.49.11-.78.16-.29.03-.58.06-.8.06-.19-.01-.32-.02-.36-.02v-.01l3.61-5.76 1.29-2.06 1.78-2.84 1.67-2.67 4.73-7.54c.42.41 1 .7 1.93.7 1.02 0 2.18.03 3.05.19.16-.17.32-.35.5-.51h-.28l-2.2-.03c-.2-.01-.4-.01-.61-.02-.08 0-.23-.01-.36-.03-.12-.03-.24-.05-.36-.09-.49-.14-.95-.4-1.32-.77-.18-.17-.35-.38-.49-.6-.06.12-.17.32-.32.59-.35.65-.93 1.72-1.68 3.03-.65 1.11-1.38 2.42-2.22 3.79-.18.29-.35.58-.53.88-.54.88-1.09 1.78-1.64 2.7-.14.24-.29.48-.43.72-.46.72-.91 1.44-1.36 2.14-.44.69-.87 1.37-1.29 2.03-.01.02-.03.05-.04.07-.86 1.36-1.71 2.6-2.41 3.67-.95 1.42-1.71 2.51-2.11 3.08l3.64-.39 1.52-2.23.42-.61c.07-.11.18-.18.29-.22l.04-.01c.1-.03.23-.08.34-.13.12-.05.22-.1.32-.16.02-.01.04-.03.06-.04v-.01c.07-.04.12-.09.16-.13.02-.03.04-.06.04-.07.02-.04 0 .01.03-.08.04-.14.11-.34.16-.47.05-.16.11-.3.18-.45.13-.29.26-.56.41-.84.01-.02.02-.05.04-.07.1-.13.15-.18.23-.25.08-.07.15-.13.24-.19.11-.07.23-.14.35-.18h.01c.06-.03.12-.05.19-.07a.93.93 0 0 1 .29-.05c.02-.11.03-.27.03-.41 0-.22-.03-.48-.06-.7-.05-.35.17-.67.5-.76h.01l.81-.21 1-.26-.19-2.81c0-.04 0-.08.01-.12zm1.62-39.56l.48-.39c-.73-.89-1.41-1.84-1.89-2.57-.41-.65-.68-1.13-.74-1.25.01.01.04.03.09.07l-.19-.24c-.01.02-.03.04-.05.06 0 .02-.01.04-.01.05-.01.03-.02.05-.03.08-.1.25-.3.4-.47.58l-.14.14c.1.11.28.31.51.56.61.66 1.57 1.75 2.44 2.91zM6.81 39.29c-.51.44-1 .85-1.45 1.24-1.44 1.23-2.56 2.13-3.03 2.5v.04l.47.16 3.99-3.55 2.29-2.02-.04-.32c-.13.11-.25.22-.37.33-.64.57-1.27 1.11-1.86 1.62z"/>
        <path class="st26" d="M9.76 37.77c-.04-.2.04-.4.18-.53l.01-.01.76-.72 2.37-2.24a.63.63 0 0 1 .5-.17l.38.03v.01l.28.02 1.03-.95.01-.01c.12-.11.27-.16.42-.16l1.23.03 1.57-1.24.02-.02c.13-.1.3-.13.45-.1l1.09.26 3.53-2.93.94-.77c.03-.02.05-.04.08-.04l.01-.01c0-.01.01-.02.02-.03.06-.07.14-.11.23-.12-.18-.16-.41-.38-.67-.63-.63-.62-1.4-1.48-2.14-2.39-.1.1-.24.25-.43.44-.52.53-1.35 1.38-2.4 2.4-.93.88-1.99 1.94-3.16 3.03-.7.65-1.43 1.33-2.17 2.01-.35.34-.71.66-1.07 1.01h-.01l-.42.39c-.54.48-1.08.96-1.61 1.44-.59.53-1.18 1.06-1.75 1.57l.06.3.11.56.06.27.18.87c.01.04 0 .07-.02.09l-.02.02c-.58.68-1.18 1.34-1.81 1.97-.04.05-.1.07-.16.08-.58.03-1.16.06-1.74.07-.52.37-1.04.74-1.59 1.08l-.86.73.61.21 1.69-1.42c.1-.08.23-.12.35-.11h.02l1.38.14c.92-.83 1.85-1.64 2.79-2.45l-.33-1.98zm4.16-4.41l8.17-7.24c.51.73.96 1.46 1.24 2.11.19-.15.39-.29.59-.43-.18.19-.35.38-.54.56a52.958 52.958 0 0 1-3.19 2.99.23.23 0 0 1-.19.06l-1.48-.21c-.54.49-1.1.96-1.66 1.43l-.01.01c-.02.02-.06.02-.09.02-.39-.06-.8-.12-1.2-.19l-1.3 1.14-.32.07-.5.12.48-.44z"/>
        <path class="st27" d="M95.89 47.74l.56.63.48.09.08-.25c-.09-.1-.21-.21-.35-.35l-.77-.12zm.67-.26c.08.11.15.2.22.29l.52-1.71-2.26-2.78-1.79-.06c.46.58.89 1.13 1.3 1.64.86 1.06 1.52 1.99 2.01 2.62zm-5.86-7.39l1.8.05-1-1.25-.43-.07-.9.05-.5-.93.15-.65.01-.1.08-.56.09-.64-.58.03-2.09.11.86.98c.85 1 1.7 2 2.51 2.98zm-2.78 1.46l.86 1.04c.14.03.29.04.43.04.09 0 .17 0 .25-.01.07 0 .13-.03.24-.05.4-.07.75-.07 1.13-.07h.07l.05.06 1.49 1.64.03.03v.04l.18 1.48c.29.26.69.41 1.09.43h.03l.01.01 1.24 1.42.87.13-5.3-6.04-2.67-.15zm.59 35.76l-1-1.81-1.79-.53c.29.71.56 1.38.8 2 .52 1.28.9 2.37 1.19 3.13 0 0 .59.07.81-.86.22-.93.33-1.37.33-1.37l-.55-1.01.21.45zm-3.97-42.5l-.32-.03c.02.01.03.02.05.03l.02.01.03.03 1.3 1.39.05.06.01.08.27 1.95 1.81.15-3.22-3.67zm.15 33.84l-1.98-.58c.66 1.44 1.3 2.88 1.88 4.25l2.04.59c.01-.1.01-.21.01-.32 0-.17-.02-.34-.06-.49a.826.826 0 0 0-.08-.22.53.53 0 0 0-.08-.15v-.01h-.01c-.35-.22-.7-.43-1.03-.67a8.65 8.65 0 0 1-.51-.39c-.08-.07-.18-.17-.24-.24a.84.84 0 0 1-.13-.41c-.02-.47.08-.87.17-1.28.01-.03.01-.05.02-.08zm-.74 4.8c-.01-.04-.03-.07-.05-.11l-.92-.17-1.53-.29c.27.58.52 1.13.75 1.64.66 1.46 1.15 2.59 1.37 3.11.01.02.01.03.02.04l.65 1.13 3.15 1.18c-.39-.69-.92-1.61-1.49-2.72-.58-1.12-1.24-2.41-1.95-3.81zm-2.51-5.28c-.33-.71-.65-1.42-.96-2.13l-2.58-.6c.27.53.54 1.07.8 1.61.45.95.9 1.89 1.33 2.8l2.44.51c-.35-.72-.69-1.46-1.03-2.19zm-3.13-41.79s.33.32.89.89c.55.58 1.37 1.38 2.29 2.38.77.83 1.65 1.77 2.57 2.78l2.54.06.48.01-.27-.32-.44.02-1.09.06-.3.02-.35.07-1.1-1.21.6-1.65-4.11-5.21.49-1.31-1.84-1.99c-.66.66-1.76 1.75-2.77 2.74l2.71 3.07c-.19-.27-.3-.41-.3-.41zm3.14 35.74c.21-.57.44-1.11.72-1.65l-1.08-2.63-2.9-.46-.23-.04.13-.19c.77-1.07 1.56-2.1 2.34-3.16l-.25-.67c-.99 1.19-2.29 2.01-3.58 2.57.38.69.9 1.6 1.47 2.69.79 1.49 1.7 3.3 2.64 5.25l.48.09c-.02-.12-.04-.24-.04-.34 0-.18.02-.35.05-.51.06-.33.15-.64.25-.95zm-4.01-3.26c-.46-1.15-.81-2.14-1.09-2.87-1.02.42-2.02.69-2.85.85.3.55.84 1.56 1.5 2.84.19.36.38.73.58 1.13l2.86.5c-.37-.87-.7-1.7-1-2.45zm-3.48-33.27c.19.19.36.36.55.54.25.26.51.51.76.75.91.9 1.81 1.8 2.69 2.71l1.56.18h.06l.04.04.43.4.52.09-5.26-6c-.47.46-.9.87-1.22 1.16 0 0-.06.04-.14.12l-.01.02.49.53c-.16-.18-.31-.36-.47-.54zm-1.11 4.34c-.03.25-.08.53-.12.82-.06.35-.1.74-.19 1.14-.1.4-.21.81-.32 1.26v.01c-.1.36-.21.72-.34 1.11-.26.78-.57 1.61-.99 2.47-.11.25-.23.5-.38.76-.01.04-.04.08-.06.13-.12.23-.25.46-.39.7-.18.29-.36.58-.56.88-.29.44-.6.89-.95 1.33.1.12.25.29.44.45.34-.45.65-.9.94-1.35.25-.37.47-.74.68-1.11.16-.28.31-.55.45-.83.01-.01.02-.03.02-.04.15-.28.28-.55.39-.82h.01c.39-.87.71-1.72.95-2.51v-.01c.11-.31.2-.62.28-.91.02-.07.03-.14.05-.2.09-.39.19-.75.28-1.1.08-.41.13-.81.19-1.17.1-.59.18-1.12.2-1.57-.22.06-.42.3-.58.56zm-19.1 46.95v-.56c-.05-.27-.08-.54-.12-.81l.07 1.13-.63.86.68-.62zm-.18 15.14c-.22-.77-.4-1.55-.45-2.37-.02-.4.03-.87.27-1.24l-1.01-.96v7.22l1.55-1.71-.36-.93v-.01zm-.62-9.86l-.01-.07c-.05-1.06-.1-2.11-.12-3.17l-.44-.38v5.28l1.19 1.13c.04-.66.2-1.26.37-1.88-.31-.28-.62-.56-.93-.85l-.06-.06zm3.51-33.79c-.54.13-1.08.24-1.64.33-.28.04-.56.09-.85.12-.07.01-.13.01-.2.02-.84.07-1.68.12-2.57.11-.04 0-.07 0-.11-.01-.08.2-.15.47-.16.75.09.01.19.01.28.02.94 0 1.9-.05 2.82-.14.02 0 .04 0 .06-.01.34-.04.68-.09 1.01-.15.58-.09 1.15-.21 1.71-.36.4-.1.8-.21 1.19-.33.32-.1.63-.2.93-.31-.07-.3-.07-.57-.06-.77-.4.15-.82.29-1.24.41-.38.12-.78.23-1.17.32zm-5.33 30.47c.01-.99.05-1.95.08-2.83l-1.77-1.85.04 1.62.05 3.13 1.58 1.86c0-.66.01-1.31.02-1.93zm.29 13.56c-.05-1.21-.15-2.61-.19-4.12-.04-1.09-.07-2.24-.09-3.4l-1.54-1.82c.02 1.49.02 2.97.03 4.45.01 1.84-.03 3.68-.04 5.52v.26l.87 2.13.16.19.83.07.2-.22c0-.05-.01-.1-.01-.15-.05-.7-.16-1.71-.22-2.91zM44.9 64.67c.15-.01.33 0 .48.08.15.07.21.19.31.32.2.26.31.54.31.86a.988.988 0 0 0-.11-.37c.03.1.07.26.11.48v-.05c0 .04 0 .09.02.13-.01.02 0 .05.01.08.01.07.02.13.04.2.06.29.19.58.29.85.13.41.39.79.65 1.14.26.34.61.62.97.85.35.23.78.4 1.17.47l.18.04v.16l.02.92 1.99 1.99c.03-.38.05-.72.07-1.01.04-.7.08-1.1.08-1.1s0 .02.01.07v-.48l.88-.05v3.6l1.21 1.21.01-.01c.41-.49.84-.96 1.27-1.44-.11-1.07-.18-2.14-.26-3.22l-.01-.17.18-.07c.4-.14.82-.39 1.17-.68.36-.29.69-.62.94-1.01.24-.38.46-.8.59-1.25.14-.44.21-.91.27-1.38v-.03c.12-.35.29-.66.59-.89.14-.11.31-.19.49-.23.09-.01.18-.02.27-.01h.24c.26-.01.5-.25.63-.54.06-.13.11-.27.15-.41l-16.37.25c.27.4.66.74 1.15.7zm-2.47-1.62c.27.03.57.04.88.06-.34-.03-.64-.05-.91-.08.01.01.02.01.03.02zm27.49-49.47a23.522 23.522 0 0 0-1.83-2.15 21.89 21.89 0 0 0-2.08-1.92c-.55-.45-1.13-.89-1.75-1.3-2.83-1.87-6.37-3.26-10.21-3.71-.48-.08-.99-.06-1.49-.1-.49-.01-1.03-.08-1.48-.04-1 .07-2.02.06-3.02.26-2.04.25-4.04.91-5.99 1.73-1.4.61-2.73 1.4-3.99 2.3-.27.19-.53.38-.79.58l.42.48h.01c.29-.22.57-.44.87-.65 1.21-.87 2.48-1.63 3.83-2.21 3.78-1.71 7.91-2.24 11.65-1.81 3.79.47 7.19 1.85 9.94 3.7.53.37 1.04.75 1.52 1.15.3.24.59.49.87.76.42.37.82.76 1.2 1.16.24.25.46.5.68.75.47.53.89 1.07 1.28 1.61.21-.19.31-.41.36-.59zM45.73 48.91c.1-.17.19-.33.28-.5.03-.05.05-.09.07-.14-1.11-.29-2.2-.68-3.28-1.14-.16-.07-.32-.14-.48-.22-.39-.18-.78-.38-1.16-.6-.21-.11-.42-.23-.62-.35-.13-.08-.26-.16-.38-.23-.86-.54-1.68-1.14-2.48-1.77-.62-.53-1.22-1.09-1.78-1.69v-.01c-.24-.24-.46-.49-.67-.74-.52-.59-1-1.21-1.45-1.85-.19.02-.34.08-.47.16.49.73 1.02 1.43 1.59 2.1.2.25.42.5.64.74.58.64 1.2 1.25 1.86 1.81.78.64 1.59 1.24 2.43 1.79.13.08.26.17.39.25.2.12.41.25.61.36.37.22.75.42 1.13.6.21.11.42.21.64.3 1.03.44 2.08.83 3.13 1.13zM30.04 29.34c-.03-.34-.06-.69-.08-1.04v-.05l-.32-1.36c-.01.21-.02.42-.02.63 0 .16.01.31.02.47 0 .07 0 .14.01.21.01.35.03.71.06 1.06.03.42.08.84.13 1.26.12.93.29 1.85.53 2.75h.39c-.25-.88-.44-1.76-.57-2.66-.06-.42-.11-.84-.15-1.27z"/>
        <path class="st27" d="M31.15 16.5a24.562 24.562 0 0 0-.97 2.06c-.3.72-.57 1.45-.81 2.2-.39 1.33-.65 2.66-.8 4.03-.1.87-.15 1.76-.17 2.67 0 .08 0 .15.01.23v.14c.01.37.03.74.06 1.11.03.4.06.8.11 1.2.02.14.03.27.05.41l.95 1.42c-.11-.53-.19-1.06-.26-1.6-.05-.41-.09-.83-.12-1.24-.03-.36-.06-.72-.07-1.08 0-.06-.01-.12-.01-.18 0-.12-.01-.23-.01-.35.02-.9.09-1.81.2-2.71.15-1.29.4-2.58.77-3.83.21-.68.45-1.35.72-2.01.12-.3.25-.61.39-.91.37-.83.8-1.64 1.27-2.42-.34.07-.76.32-1.3.85l-.01.01zm-7.66 42.93c-.4.63-.84 1.34-1.32 2.1l1.33.31c.11-.3.24-.59.4-.85-.16-.56-.26-1.14-.3-1.73-.04.05-.07.11-.11.17z"/>
        <path class="st27" d="M23.04 55.35l-4.73 7.54.89 2.31c.7-1.03 1.39-2.05 2.05-3.02.73-1.07 1.42-2.06 2.01-2.91 1.12-1.58 1.91-2.65 2.01-2.78-.02.04-.08.14-.17.31l.02.01.92.04-.34-.06c.62-.06 1.23-.04 1.84-.01.16-.18.31-.36.48-.54-.87-.16-2.03-.19-3.05-.19-.93 0-1.51-.29-1.93-.7zm-7.4-24.91c1.19-1.07 2.34-2.02 3.3-2.86a92.48 92.48 0 0 1 2.62-2.17c-.87-1.16-1.83-2.25-2.44-2.91-.46.51-2.18 2.17-4.33 4.22l.07 4.41.78-.69zm3.64 36.25c-.02-.19-.04-.38-.02-.52.01-.08.01-.15.02-.19-.08.11-.15.23-.23.34l-.04.07c-.36.53-.72 1.05-1.07 1.57l1.04-.37.51-.19c-.01-.04-.05-.11-.09-.22-.05-.13-.09-.31-.12-.49zm-1.11-9.16l.76 2.5c.57-.89 1.13-1.7 1.61-2.44.86-1.28 1.56-2.29 1.98-2.9-.22-.34-.4-.7-.59-.99-.24-.37-.53-.73-.8-1.03l-2.96 4.86zm-1.85 12.82l.95-.26-.2-.84c-.26.38-.51.75-.75 1.1zm-1.58-7.19l.71 2.33c.61-.96 1.22-1.93 1.81-2.86l-.73-2.41-1.79 2.94zm.12 5.24l.85 2.2c.33-.53.68-1.1 1.06-1.68.22-.33.44-.67.67-1.02l-.8-2.34-1.78 2.84zm.87 2.8c-.22.31-.42.59-.61.87-.24.34-.47.66-.67.95-.14.19-.26.36-.37.52l.25-.13.01-.01.79-.41s.12-.12.26-.35c.08-.15.17-.34.24-.58.13-.49.48-1.29.6-1.59-.16.24-.32.47-.48.69l-.02.04zm-1.47-37.59l1.3-1.14c-.09-.02-.17-.03-.26-.05.48-.02.94-.02 1.41-.02.53-.54 1.04-1.09 1.58-1.62a.23.23 0 0 1 .19-.06l1.48.19c1.09-.94 2.2-1.85 3.37-2.68-.28-.65-.73-1.38-1.24-2.11l-8.17 7.24.02.32.32-.07zm-2.54.33l-.07-4.24-1.72 1.63.2 4.09c.52-.48 1.06-.98 1.59-1.48zm1.85 36.52l-3.61 5.76c.02-.01.15-.06.34-.11.21-.07.5-.12.78-.16.29-.04.58-.06.81-.06.14 0 .25.01.32.02l.46-.07.64-1.25c-.11.14-.17.23-.2.26.04-.06.19-.33.45-.75.04-.07.08-.15.12-.23.04-.06.08-.13.12-.19.16-.27.35-.58.56-.93l-.79-2.29zM9.19 38.7c0-.17.01-.34.02-.5l-.11-.56-.06-.3.04.32.11 1.04zm3.64 31.1c.45-.73.9-1.48 1.37-2.24l-.7-2.36-4.95 8.12.19 2.93v.01c.04.17.07.35.11.52.34-.63.96-1.77 1.77-3.19.65-1.11 1.38-2.42 2.21-3.79zM3.25 43.38l.86-.73c-.09.06-.17.12-.26.17.52-.58 1.09-1.1 1.65-1.63.03-.03.07-.04.1-.05h.03c.37-.04.74-.07 1.11-.1l.05-1.36-3.99 3.55.45.15zm-.51-5.28l-.4 4.86c.44-.47 1.43-1.47 2.74-2.75.75-.72 1.6-1.56 2.52-2.44l-.15-4.1c-2.66 2.51-4.71 4.43-4.71 4.43zm-.41 4.97v-.04c-.01.02-.02.02-.03.03l.03.01z"/>
        <path class="st0" d="M2.3 37.86c1.39-1.36 2.83-2.67 4.25-4 .29-.27.59-.54.88-.83l.02.64c-2.66 2.51-4.71 4.43-4.71 4.43l-.4 4.86-.09.09-.27-.1c.09-1.7.18-3.4.32-5.09z"/>
        <path class="st28" d="M81.93 13.55c-.01-.03-.03-.05-.05-.07l.07.12c-.01-.02-.01-.03-.02-.05zm-3.97 43.79l.23.04 2.9.46 1.08 2.63a14.2 14.2 0 0 0-.72 1.65c-.1.31-.19.62-.25.95-.03.16-.05.33-.05.51 0 .1.02.22.04.34.02.07.04.14.07.2.05.15.16.34.26.47.11.14.24.26.37.37.27.22.58.36.85.5.15.08.23.13.38.23.17.11.31.17.47.23.27.1.53.18.8.25l.59 1.44c-.11.34-.21.69-.29 1.04-.01.03-.01.05-.02.08-.09.41-.19.81-.17 1.28.01.12.03.25.13.41.06.07.16.17.24.24.17.14.34.27.51.39.33.24.68.45 1.03.67h.01v.01c.03.03.06.1.08.15.04.07.06.14.08.22.04.15.06.32.06.49 0 .11 0 .22-.01.32-.02.23-.07.46-.13.69l-.02.05.03.04.33.59.67 1.22 1 1.81-.21-.45-.15-.29-.48-1.02-.91-1.93c.1-.33.17-.68.17-1.03.01-.19 0-.38-.05-.56-.02-.1-.04-.19-.08-.28a.842.842 0 0 0-.17-.28l-.01-.01-.02-.02c-.34-.22-.68-.45-1-.69-.16-.12-.32-.25-.46-.38-.08-.07-.12-.12-.19-.21 0-.01-.03-.09-.03-.17-.01-.36.08-.77.17-1.16.1-.39.21-.78.34-1.17l.03-.07-.03-.08-.64-1.62-.05-.11-.12-.03c-.29-.07-.58-.16-.86-.27a4.2 4.2 0 0 1-.37-.19c-.11-.07-.29-.2-.42-.26-.57-.28-1.06-.58-1.26-1.09a.812.812 0 0 1-.07-.37c-.01-.14.01-.28.03-.42.05-.29.13-.59.23-.88.19-.57.44-1.15.71-1.69l.05-.1-.04-.09-1.21-2.8-.05-.1-.11-.02-2.8-.35c.7-1.02 1.36-2.07 2.05-3.1l.01-.02-.01-.01-.28-.64-.02-.05-.11-.24.09.26.25.67c-.78 1.06-1.57 2.09-2.34 3.16l-.13.19zm20.59-11.83c-1.9-2.48-3.81-4.95-5.74-7.41l-.13-.16-.21-.04-.97-.19-.45-.59.19-1.27.04-.27-.18-.21-3.56-4.2-.2-.23-.3.02-1.55.09-.45-.49.51-1.51.1-.31-.19-.23-4.12-4.93.33-1.05.08-.26-.17-.17-2.35-2.5c-.11.14-.24.28-.37.42l-.09.09.35.42 1.63 1.95-.37 1.06-.08.23.16.2 3.94 4.99-.57 1.54-.11.32.23.26.85.98.18.22.3-.02 1.09-.06.44-.02.27.32L90 35.96v.03l-.09.64-.08.56-.01.1-.03.16.16.19.76.97.15.18.21.03.43.07.55.1c.31.39.62.78.94 1.16.84 1.05 1.69 2.1 2.54 3.14.72.87 1.43 1.74 2.15 2.61l-.65 2.23c-.07-.1-.16-.21-.25-.35v-.01c-.07-.09-.14-.18-.22-.29-.49-.63-1.15-1.56-2.01-2.62-.41-.51-.84-1.06-1.3-1.64-.51-.64-1.05-1.32-1.62-2.01-.3-.37-.61-.74-.93-1.12-.81-.98-1.66-1.98-2.51-2.98l-.86-.98c-.9-1.04-1.8-2.07-2.67-3.04l-.6-.66c-.92-1.01-1.8-1.95-2.57-2.78-.92-1-1.74-1.8-2.29-2.38-.56-.57-.89-.89-.89-.89s.11.14.3.41l.01.01.44.59c.49.63 1.15 1.56 2.01 2.63.11.13.22.27.33.41.77.97 1.64 2.08 2.59 3.23.32.39.65.79.98 1.2h.01c.79.95 1.62 1.92 2.45 2.9.22.25.43.5.64.75h.01c.95 1.1 1.9 2.19 2.82 3.21.02.02.04.05.06.07 1.14 1.27 2.24 2.43 3.16 3.43.93 1.01 1.74 1.81 2.29 2.39l.25.25c.14.14.26.25.35.35l-.08.25-.48-.09-.24-.04h-.03l-1.71-.18-1.1-1.18-.08-.08-.1-.02-.97-.19-.4-.46-.09-1.42-.01-.1-.07-.09-.64-.76-.14-.16-.22.05-1.5.39c-.03.01-.08.02-.11.03h-.02c-.01 0-.03-.01-.06-.02-.09-.02-.2-.07-.3-.12-.2-.09-.39-.22-.58-.34l-2.05-2.44-.51-.62-.24-.31-.1-.14c-.02-.04-.08-.13-.08-.14-.16-.32-.21-.89-.22-1.35v-.08l-.31-1.95-.03-.19-.16-.13-.46-.38-.06-.04-.1-.08-.15-.09c-.1-.06-.2-.11-.3-.16-.4-.2-.81-.34-1.27-.42-.13-.02-.21-.02-.32-.04-.06-.01-.12-.02-.17-.04a.84.84 0 0 1-.31-.19c-.1-.09-.19-.21-.27-.35-.04-.06-.07-.14-.1-.21-.02-.05-.05-.11-.06-.15l-.12-1.79-.01-.2-.14-.14-1.19-1.18-.14-.14-.2-.01-1.64-.08-2.12-2.35-.19-.21-.44-.48v-.01l-.78-.85-.02-.02-.33-.37-.03-.03-.25-.28c-.1-.1-.19-.21-.29-.32-.08-.08-.16-.16-.25-.21-.04-.05-.08-.07-.13-.1l-.27.24-.22.19c.01.03.03.06.05.09.05.11.12.2.19.29l.01.01.06 1.2.09-.01s-.06.13-.1.38c-.03.25-.04.62-.07 1.11 0 .49-.09 1.07-.2 1.75-.06.34-.1.71-.18 1.1-.1.38-.21.79-.32 1.22-.01.04-.02.08-.04.13-.1.37-.23.75-.36 1.15-.18.54-.4 1.11-.67 1.69-.11.27-.24.54-.38.81-.1.21-.21.42-.32.63-.08.15-.17.3-.26.44-.07.13-.15.26-.23.39-.12.21-.25.41-.39.61-.34.51-.71 1.02-1.12 1.53v.12c0 .26.04.54.13.81.21-.25.42-.5.61-.75.35-.44.66-.89.95-1.33.2-.3.38-.59.56-.88.14-.24.27-.47.39-.7.02-.05.05-.09.06-.13.15-.26.27-.51.38-.76.42-.86.73-1.69.99-2.47.13-.39.24-.75.34-1.11v-.01c.11-.45.22-.86.32-1.26.09-.4.13-.79.19-1.14.04-.29.09-.57.12-.82.05-.37.08-.7.08-.99.02-.49.05-.86.05-1.11-.02-.25-.07-.38-.07-.38l.09-.02s-.01-.14-.02-.41l.22.26.34.39c-.02.06-.03.14-.04.24-.02.27-.03.66-.06 1.17 0 .09 0 .19-.01.29-.02.45-.1.98-.2 1.57-.06.36-.11.76-.19 1.17-.09.35-.19.71-.28 1.1-.02.06-.03.13-.05.2-.08.29-.17.6-.28.91v.01c-.24.79-.56 1.64-.95 2.51h-.01c-.11.27-.24.54-.39.82 0 .01-.01.03-.02.04-.14.28-.29.55-.45.83-.21.37-.43.74-.68 1.11-.29.45-.6.9-.94 1.35-.25.32-.5.64-.77.95.01.03.03.05.04.07.06.09.13.18.2.26a22.384 22.384 0 0 0 1.8-2.42c.25-.38.48-.76.68-1.13.17-.28.32-.56.45-.84.03-.04.05-.09.07-.13.14-.27.26-.54.37-.8.41-.9.73-1.77.97-2.58.1-.29.18-.58.26-.86l.06-.24c.1-.38.19-.74.28-1.09.09-.42.13-.82.19-1.19.1-.6.17-1.12.19-1.57.02-.11.02-.22.02-.32.02-.45.04-.81.05-1.07l.54.64.11.13c0 .09 0 .18-.01.27 0 .37-.04.78-.11 1.24-.03.23-.07.46-.11.71-.07.38-.11.79-.21 1.22-.09.37-.19.75-.3 1.15-.01.07-.03.14-.05.21-.08.29-.17.59-.27.89a21.5 21.5 0 0 1-1.06 2.71c-.1.25-.23.51-.37.77-.03.08-.07.16-.12.25-.15.29-.31.58-.49.88-.2.33-.41.67-.64 1.01-.28.43-.59.86-.92 1.28-.31.42-.65.83-1.01 1.24.19.17.41.3.63.4.01.01.03.01.04.02.71-.83 1.35-1.68 1.9-2.53.17-.25.33-.51.49-.76.19-.32.38-.65.55-.97.07-.12.13-.25.19-.37.14-.26.27-.52.38-.77.17-.36.32-.72.47-1.07.27-.66.49-1.3.69-1.92.09-.29.17-.58.25-.86a69.882 69.882 0 0 0 .36-1.41c.1-.45.14-.88.21-1.27.09-.58.16-1.09.19-1.53l1.6 1.86.13.16.21.01 1.63.11.91.91.09 1.65.01.05.01.04c.04.15.07.25.12.36.05.11.1.22.16.32.12.21.26.42.45.6a1.964 1.964 0 0 0 1.1.53c.08.01.21.02.27.04a3.598 3.598 0 0 1 1.21.43l.1.06.02.01.01.01.05.04.32.24.3 1.74c.01.28.04.54.09.8.05.3.12.6.3.93.07.12.09.13.13.2l.15.18.27.33.54.61 2.19 2.41.04.04.03.02c.24.15.47.28.73.4.13.05.26.11.42.16.09.02.18.03.3.03.2-.02.2-.04.28-.06l1.27-.35.45.51.1 1.39.01.11.07.08.53.65.07.09.12.03.98.2 1.09 1.22.09.09.13.02 1.83.25 1.05.22.35.08.11-.35 1.03-3.11.07-.23-.15-.2z"/>
        <path class="st28" d="M74.47 26.17c.02.01.03.03.04.04.12.13.23.25.34.38.09.09.18.19.26.29l.08.08a.7.7 0 0 0 .08.1c.83.93 1.66 1.86 2.5 2.77l.04.03.05.01 1.55.23 1.71 1.66.1 1.86v.04l.02.04c.07.15.15.26.24.38.1.12.21.22.33.31a1.904 1.904 0 0 0 .83.32c.25.03.48.09.71.18.21.08.43.18.61.29.01 0 .02.02.02.02l.01.01 1.21 1.32.44 2.94.01.06.04.05 2.82 3.33.06.06.07.01c.19.03.37.04.57.04.1 0 .19 0 .3-.02.1-.01.22-.05.28-.07.29-.06.64-.08.97-.09l1.46 1.52.24 1.45.01.04.02.02c.35.3.8.43 1.23.42l1.3 1.32-1.24-1.42-.01-.01h-.03c-.4-.02-.8-.17-1.09-.43l-.18-1.48v-.04l-.03-.03-1.49-1.64-.05-.06h-.07c-.38 0-.73 0-1.13.07-.11.02-.17.05-.24.05-.08.01-.16.01-.25.01-.14 0-.29-.01-.43-.04l-.86-1.04-1.83-2.21-.14-1.01-.27-1.95-.01-.08-.05-.06-1.3-1.39-.03-.03-.02-.01c-.02-.01-.03-.02-.05-.03l-.01-.01c-.23-.14-.45-.24-.7-.32-.25-.1-.54-.17-.8-.2-.14-.02-.23-.04-.34-.08-.1-.03-.2-.09-.29-.15-.17-.11-.32-.3-.41-.47l-.12-1.9-.01-.08-.06-.06-1.43-1.3-.43-.4-.04-.04h-.06l-1.56-.18c-.88-.91-1.78-1.81-2.69-2.71-.25-.24-.51-.49-.76-.75-.19-.18-.36-.35-.55-.54.16.18.31.36.47.54.02.01.03.03.04.04zm-1.02 30.68c.24.58.7 1.63 1.3 2.96.47 1.02 1.02 2.21 1.61 3.48.6 1.27 1.25 2.63 1.89 3.98.67 1.34 1.33 2.69 1.95 3.95.62 1.26 1.24 2.42 1.75 3.42.43.82.8 1.54 1.09 2.08.02.04.04.07.06.11.29.54.5.92.58 1.06l-.09-.22c-.01-.01-.01-.02-.02-.04-.22-.52-.71-1.65-1.37-3.11-.23-.51-.48-1.06-.75-1.64-.27-.59-.55-1.21-.86-1.85-.18-.39-.37-.78-.56-1.18-.43-.91-.88-1.85-1.33-2.8-.26-.54-.53-1.08-.8-1.61-.39-.8-.78-1.58-1.15-2.33-.41-.81-.8-1.58-1.17-2.3-.2-.4-.39-.77-.58-1.13-.66-1.28-1.2-2.29-1.5-2.84-.08-.15-.15-.27-.2-.35.02.06.05.14.09.23l.04.09c0 .01.01.03.02.04zm-.73-44.22c-.02-.03-.04-.07-.07-.1l.08.15c0-.02-.01-.03-.01-.05z"/>
        <path class="st28" d="M90.07 76.29l-.59-1.12-1.07-2.06.28-1.41.02-.11-.01-.1c-.03-.12-.04-.16-.07-.23-.02-.06-.05-.12-.07-.18-.06-.11-.13-.22-.2-.32-.16-.21-.35-.38-.56-.51-.1-.06-.21-.11-.31-.16l-.25-.11-.44-.18-.04-.04c-.03-.03-.06-.06-.08-.09a.398.398 0 0 1-.07-.15.243.243 0 0 1 0-.12l.12-.4c.14-.56.24-1.09.33-1.64l.03-.19L87 67l-1.19-2.15-.09-.16-.17-.08-2.07-.92-.03-.04c-.02-.03-.04-.07-.06-.11-.03-.07-.05-.15-.05-.23s.02-.17.06-.26l.18-.42.72-1.73.09-.22-.09-.21-1.86-4.09-.12-.28-.31-.02-.96-.05.99-1.44.14-.21-.09-.22-1.29-3.23c-.2.29-.41.56-.61.8l.4 1.06.55 1.46-1.39 1.95-.51.71.88.06 1.52.1 1.6 3.61-.64 1.53-.19.44c-.08.19-.14.41-.14.65 0 .23.05.47.14.68.05.1.1.2.17.29.07.1.12.17.24.28l.05.05.08.03 1.99.91h.01l.98 1.82c-.08.45-.18.92-.29 1.35l-.1.38c-.07.2-.08.45-.03.67a1.627 1.627 0 0 0 .45.8c.08.07.13.12.24.2l.04.03.05.02.5.21.25.11c.06.03.11.06.16.09.1.06.18.13.24.22.04.04.06.09.09.14l.01.01v.02l-.3 1.48-.04.2.09.18 1.15 2.23.57 1.12c.12.26.24.6.33.92-.2.63-.39 1.25-.56 1.9-.05.18-.09.36-.13.57-.01.07-.02.16-.03.21v.01c-.09.06-.3.17-.5.25l-.22-.05c-.05-.15-.12-.33-.19-.53-.29-.76-.67-1.85-1.19-3.13-.24-.62-.51-1.29-.8-2-.16-.37-.32-.76-.49-1.15-.2-.49-.42-.99-.64-1.5-.58-1.37-1.22-2.81-1.88-4.25-.06-.13-.12-.27-.18-.4-.6-1.31-1.21-2.6-1.82-3.84-.94-1.95-1.85-3.76-2.64-5.25-.57-1.09-1.09-2-1.47-2.69-.04-.09-.09-.17-.13-.25-.19-.33-.34-.6-.45-.78-.02.01-.05.02-.07.03.07.2.18.49.31.85.03.08.06.16.09.25.28.73.63 1.72 1.09 2.87.3.75.63 1.58 1 2.45.61 1.47 1.3 3.09 2.04 4.73.31.71.63 1.42.96 2.13.34.73.68 1.47 1.03 2.19.48 1.02.97 2.03 1.43 2.98.02.04.04.07.05.11.71 1.4 1.37 2.69 1.95 3.81.57 1.11 1.1 2.03 1.49 2.72.04.07.07.14.11.21.08.15.15.28.22.39l-4.36-1.07-5.92-12.04-3.04-6.13-1.52-3.06-.61-1.23-.15-.3-.38-.77-.1-.19c-.31 0-.63-.01-.95-.05.01.08.05.15.09.23l.18.39.37.77.74 1.54 1.47 3.09 2.95 6.17 5.94 12.32.12.25.26.06 5.18 1.31.16.04.15-.05c.22-.06.39-.13.59-.23.19-.09.39-.19.61-.41.1-.1.25-.27.3-.56.02-.19.02-.2.03-.24.03-.14.07-.32.11-.48.18-.67.38-1.35.59-2.03l.06-.17-.05-.17c-.14-.43-.26-.82-.47-1.28zM72.18 13.03c0 .01 0 .01-.01.02v.01l.02.04-.01-.07zm-1.27-2.69c-.02-.01-.05-.03-.08-.04l.16.12c-.03-.03-.05-.06-.08-.08zm-2.63 2.22c-.22-.25-.44-.5-.68-.75-.38-.4-.78-.79-1.2-1.16-.28-.27-.57-.52-.87-.76-.48-.4-.99-.78-1.52-1.15a22.926 22.926 0 0 0-9.94-3.7c-3.74-.43-7.87.1-11.65 1.81-1.35.58-2.62 1.34-3.83 2.21-.3.21-.58.43-.87.65l.3.35c.3-.23.6-.46.91-.68 1.17-.83 2.39-1.56 3.67-2.12a21.92 21.92 0 0 1 11.44-1.79c3.68.44 7.05 1.79 9.74 3.61.5.34.98.7 1.44 1.08.3.24.59.48.87.74.42.37.82.76 1.2 1.16.24.25.47.5.68.75.46.51.88 1.04 1.25 1.57.24.31.45.63.66.94l.29-.26c-.19-.3-.39-.59-.61-.89-.39-.54-.81-1.08-1.28-1.61z"/>
        <path class="st28" d="M68.96 16.08c.09-.07.2-.16.26-.21.1-.08.19-.16.28-.23-.25-.37-.51-.74-.79-1.11-.35-.47-.74-.94-1.15-1.4-.21-.24-.43-.48-.67-.72-.38-.4-.79-.79-1.22-1.16-.28-.26-.57-.5-.87-.73-.42-.34-.86-.66-1.32-.97a21.915 21.915 0 0 0-9.53-3.5c-3.56-.41-7.52.09-11.15 1.69-1.25.53-2.44 1.23-3.59 2.04-.3.2-.59.41-.88.63l.02.02.03.03.47.6c1.34-1.03 2.76-1.92 4.28-2.59A20.98 20.98 0 0 1 53.9 6.81c3.45.41 6.64 1.66 9.18 3.34.41.27.8.55 1.17.85.31.23.6.47.88.72l.19.16c.37.32.71.65 1.04.99.23.23.45.47.66.7.73.81 1.36 1.65 1.91 2.47.01.01.02.03.03.04zm-3.45 2.81c.02.02.05.03.08.04l-.12-.08.04.04zm-.15 9.24c.02.01.03.02.05.03l-.11-.09.06.06zm-1.72-11.4c.01.02.01.04.02.05.01.02.02.03.04.05l-.06-.1zm-.72 45.58c.01.09.04.19.07.3v-.43c-.02.04-.05.08-.07.13zm-.14-7.79c-.04-.07-.04-.06-.03 0 .01.01.02.01.03.01v-.01zm-.49-1.22c0 .01.01.03.01.06v-.04l-.01-.02zm-.01-.05l-.02-.11c-.01 0-.03-.01-.04-.01h-.02s0 .01.01.02c.01.02.03.03.05.07 0 .01.01.02.02.03zm-.93 9.67c.19-.01.38-.03.57-.05-.07 0-.2-.02-.38-.04-.06.02-.13.05-.19.09zm-.28-9.38v-.04l-.01-.04v.04l.01.04zm-3.79 15.18c.26-.43.49-.89.62-1.38.15-.49.2-.98.22-1.48v-.01c.07-.26.21-.53.41-.7a.856.856 0 0 1 .57-.23l.25-.02c.41-.07.62-.41.74-.72.05-.15.09-.3.11-.46.03-.17.04-.33.03-.5-.02.17-.06.34-.11.5-.04.14-.09.28-.15.41-.13.29-.37.53-.63.54h-.24c-.09-.01-.18 0-.27.01-.18.04-.35.12-.49.23-.3.23-.47.54-.59.89v.03c-.06.47-.13.94-.27 1.38-.13.45-.35.87-.59 1.25-.25.39-.58.72-.94 1.01-.35.29-.77.54-1.17.68l-.18.07.01.17c.08 1.08.15 2.15.26 3.22-.43.48-.86.95-1.27 1.44l-.01.01-.02.02v.04l.06.39c.04.27.07.54.12.81.01.09.03.18.04.27 0-.48-.02-.96-.04-1.44.48-.44.95-.91 1.42-1.37l.04-.04v-.09c-.02-1.03-.07-2.08-.12-3.12.44-.16.82-.39 1.17-.67.4-.32.75-.7 1.02-1.14zM51.2 48.95c.89.01 1.73-.04 2.57-.11.07-.01.13-.01.2-.02.29-.03.57-.08.85-.12a21.62 21.62 0 0 0 2.81-.65c.42-.12.84-.26 1.24-.41.58-.21 1.13-.44 1.67-.69l-.12-.49c-.01-.08-.03-.16-.04-.24-.98.46-2.01.85-3.1 1.15-.38.12-.76.22-1.16.3-.56.13-1.14.24-1.73.31-.17.04-.34.06-.51.08-.86.08-1.77.13-2.64.12-.14-.01-.28-.01-.42-.02h-.03c-.41 0-.69.21-.84.39-.14.14-.2.27-.2.27l-.02.06c.45.03.91.04 1.36.06.04.01.07.01.11.01z"/>
        <path class="st28" d="M49.5 49.7l-.02.08-.02.09v.01l-.04.15c.53.05 1.06.07 1.57.1.07 0 .13.01.2.01.5.04.98-.03 1.46-.04.48-.04.96-.03 1.43-.11.05-.01.1-.01.15-.02.34-.04.67-.09 1-.15a24.61 24.61 0 0 0 2.98-.73c.28-.09.56-.18.83-.3.64-.21 1.26-.47 1.85-.74-.06-.13-.1-.26-.14-.4-.58.28-1.19.54-1.82.76-.3.11-.61.21-.93.31-.39.12-.79.23-1.19.33-.56.15-1.13.27-1.71.36-.33.06-.67.11-1.01.15-.02.01-.04.01-.06.01-.92.09-1.88.14-2.82.14-.09-.01-.19-.01-.28-.02-.47-.02-.93-.04-1.4-.08l-.03.09z"/>
        <path class="st28" d="M49.15 51.08c-.02.07-.03.13-.03.18.65.05 1.29.06 1.93.1.55.05 1.04-.03 1.56-.04.51-.04 1.02-.03 1.52-.11.14-.02.27-.03.41-.05.33-.05.66-.1.99-.16.56-.1 1.11-.22 1.65-.36.16-.03.32-.08.48-.12.41-.11.81-.23 1.2-.36.87-.29 1.7-.62 2.5-.99-.12-.24-.23-.49-.32-.74-.59.27-1.2.51-1.82.72-.27.11-.54.2-.81.29-.39.12-.79.24-1.19.34-.62.15-1.24.29-1.88.4-.33.06-.66.11-1 .15-.1.02-.21.03-.31.04-.48.08-.97.06-1.47.1-.44.01-.9.07-1.34.04-.04.01-.09 0-.13 0-.58-.04-1.18-.05-1.77-.1l-.17.67zm-2.14 17.31c-.26-.35-.52-.73-.65-1.14-.1-.27-.23-.56-.29-.85a.51.51 0 0 1-.04-.2c-.01-.03-.02-.06-.01-.08-.02-.04-.02-.09-.02-.13v.06c0 .44.07.87.2 1.29.13.44.32.86.58 1.24.27.39.63.71 1.01.97.35.24.72.41 1.13.52l.08 5.72.13 5.86c.04 1.96.12 3.91.19 5.87.06 1.91.18 3.83.27 5.74v-.23c.01-1.84.05-3.68.04-5.52-.01-1.48-.01-2.96-.03-4.45 0-.47-.01-.95-.02-1.42l-.05-2.73-.05-3.13-.04-1.62-.09-3.33-.02-.92v-.16l-.18-.04c-.39-.07-.82-.24-1.17-.47-.36-.23-.71-.51-.97-.85zM46 65.93c0-.32-.11-.6-.31-.86-.1-.13-.16-.25-.31-.32a.905.905 0 0 0-.48-.08c-.49.04-.88-.3-1.15-.7-.08-.12-.15-.24-.21-.36.05.12.11.24.18.36.09.15.19.3.32.43.22.23.54.39.86.38.16.01.31.02.44.09.12.07.24.18.32.3.08.12.16.24.23.38v.01c.06.12.1.24.11.37zm-3.4-18.15c-.22-.09-.43-.19-.64-.3-.38-.18-.76-.38-1.13-.6-.2-.11-.41-.24-.61-.36-.13-.08-.26-.17-.39-.25-.84-.55-1.65-1.15-2.43-1.79-.66-.56-1.28-1.17-1.86-1.81-.22-.24-.44-.49-.64-.74-.57-.67-1.1-1.37-1.59-2.1l-.07-.1c-.27-.41-.52-.82-.75-1.25a2.5 2.5 0 0 0-.41.25c.23.43.49.85.76 1.26.03.04.06.09.1.13.49.73 1.02 1.44 1.6 2.12.2.25.42.49.64.73.6.66 1.24 1.28 1.92 1.86.8.66 1.63 1.27 2.49 1.84.13.07.26.15.39.24.2.12.41.24.62.36.36.21.73.41 1.11.59.23.12.47.23.71.33 1.02.44 2.05.82 3.1 1.12.08-.13.15-.27.21-.4-1.05-.3-2.1-.69-3.13-1.13zm-1 5.54h-.01l-.01.05c.01-.02.01-.04.02-.05z"/>
        <path class="st28" d="M62.01 62.89s-.27.03-.74.07h-.01c-.26.15-.47.46-.56.75-.04.12-.06.23-.05.33 0 .23-.03.37-.11.56-.08.18-.19.34-.32.45a.83.83 0 0 1-.41.22c-.02.01-.09.02-.15.02-.03 0-.08.01-.08.01-.07 0-.13.01-.2.03-.31.06-.55.34-.63.52-.17.37-.18.63-.24.89-.04.25-.09.5-.14.73-.12.47-.28.92-.52 1.33-.23.41-.53.78-.88 1.12-.35.35-.72.59-1.12.96l-.29.27.13.2.11 2.81-1.06.82-.2.15.02.26.07 1.62-.82.45-.31.17.03.36.33 3.67.01.2.15.16.99 1.02c-.08.16-.16.32-.23.49-.13.32-.25.67-.28 1.07-.02.19-.02.41.02.63.02.12.07.26.12.38l.12.25c.11.18.18.4.22.65.04.24.04.5.02.75-.02.24-.09.5-.16.62v.01c0 .01-.01.01-.01.01v.01h-.02v.01h-.01l-.01.01-.01.01c-.04.02-.08.05-.11.07-.26.22-.37.46-.45.66-.08.2-.12.39-.15.57-.03.19-.05.35-.05.56v.05l.01.07.41 2.48-.44.48c-.08-.31-.16-.61-.24-.91-.13-.78-.28-1.56-.27-2.33.01-.38.08-.73.27-1.03.1-.15.22-.3.34-.47.13-.18.23-.33.34-.53.1-.18.19-.39.23-.62.06-.23 0-.54-.14-.74-.13-.2-.27-.34-.35-.48a.85.85 0 0 1-.14-.44c-.02-.73.17-1.53.36-2.27l.04-.14-.11-.09c-.33-.29-.67-.58-1.01-.86-.12-1.17-.25-2.35-.41-3.52-.03-.24-.06-.47-.1-.71 0 .39 0 .79.01 1.18.02 1.06.07 2.11.12 3.17l.01.07.06.06c.31.29.62.57.93.85-.17.62-.33 1.22-.37 1.88-.01.13-.02.27-.02.41.01.22.08.48.21.68.13.19.28.34.37.47.08.13.1.24.08.4-.03.16-.09.33-.18.49-.07.16-.19.34-.29.49-.11.15-.23.31-.34.5 0 .01-.01.01-.01.02-.24.37-.29.84-.27 1.24.05.82.23 1.6.45 2.37v.01l.36.93-1.55 1.71-.55.6c.03-.71.12-1.69.15-2.88.04-1.2.11-2.61.12-4.12.01-.35.01-.71.01-1.08.02-1.17.01-2.4.01-3.62v-.02c-.03-1.6-.05-3.21-.11-4.71-.01-.21-.01-.42-.02-.63-.05-1.27-.13-2.45-.18-3.49-.02-.56-.06-1.08-.1-1.54-.04-.54-.08-1-.11-1.37-.04-.52-.08-.88-.1-1.03-.01-.05-.01-.07-.01-.07s-.04.4-.08 1.1c-.02.29-.04.63-.07 1.01-.03.55-.07 1.19-.09 1.91-.01.4-.02.83-.04 1.28-.03.88-.07 1.84-.08 2.83-.01.62-.02 1.27-.02 1.93 0 .92 0 1.86.01 2.79.01.44.02.88.02 1.32.02 1.16.05 2.31.09 3.4.04 1.51.14 2.91.19 4.12.06 1.2.17 2.21.22 2.91 0 .05.01.1.01.15l-.2.22-.83-.07-.16-.19-1.81-2.09-.2-10.94-.26-11.2-.01-.34-.28-.16c-.84-.5-1.57-1.14-2.04-1.94-.24-.4-.41-.83-.54-1.3-.06-.23-.11-.47-.16-.73-.06-.26-.08-.52-.26-.9-.11-.19-.3-.46-.72-.52l-.21-.02c-.04 0-.09 0-.13-.01a.947.947 0 0 1-.44-.21c-.13-.12-.24-.28-.33-.46a1.31 1.31 0 0 1-.09-.28l-.02-.11-.02-.19c0-.01 0-.03-.01-.04-.01-.33-.21-.71-.5-.93-1.31-.07-2.21-.14-2.6-.18.11.19.25.36.44.52.24.25.75.38 1.04.34.2 0 .4.04.5.11.1.06.11.09.13.23l.01.2c0 .1.02.2.04.27.03.17.08.32.14.47.13.3.32.58.57.82.26.23.59.41.94.48.09.02.18.03.26.03l.05.01c.05.11.1.35.14.57.04.26.09.53.16.8.13.55.33 1.1.62 1.6.52.91 1.28 1.64 2.11 2.21l.11 10.88.16 11.2v.25l.17.2 2.32 2.69.19.22.29.02 1.46.12.35.03.23-.26 3.42-3.8.22-.25-.06-.33-.5-2.73c.01-.21.05-.46.11-.61a.14.14 0 0 1 .04-.08l-.01.06-.01.11-.01.22.08-.27c.04-.02.05-.24.12-.29.07-.07.15-.15.21-.23l.1-.17c.22-.41.27-.77.31-1.13.03-.37.02-.73-.05-1.09-.06-.36-.18-.73-.39-1.08 0 0-.06-.11-.08-.16 0-.03 0-.03-.01-.06a1.33 1.33 0 0 1-.01-.29c.01-.21.08-.46.18-.7.09-.24.23-.5.36-.7l.28-.44-.35-.34-1.23-1.2-.34-3.1.78-.44.3-.17-.03-.32-.13-1.71 1-.83.19-.16-.02-.23-.25-2.93c.41-.2.81-.52 1.14-.83.41-.38.78-.82 1.07-1.31.3-.49.5-1.03.65-1.57.07-.27.12-.54.17-.79.05-.23.1-.48.15-.59l.06-.01c.07 0 .13 0 .24-.02.39-.07.7-.23.97-.46a2.483 2.483 0 0 0 .81-1.76c.02-.15.03-.13.11-.19.09-.05.29-.09.5-.09l.21-.01c.07 0 .25-.04.33-.07.2-.06.37-.17.52-.28.27-.23.44-.45.6-.76-.7.07-1.4.14-2.09.18.06.01.09.02.09.02zm-21.42-.61c-.01-.01-.01-.02-.03-.03l.02.13c.01-.04.01-.07.01-.1zm.4-13.28c.23.12.48.23.72.34 1.03.43 2.07.81 3.12 1.12.01-.01.01-.02.01-.02l.02-.03.01-.02c.15-.24.3-.48.43-.72-1.09-.3-2.17-.7-3.23-1.15l-.6-.27c-.37-.18-.74-.37-1.1-.58-.21-.11-.42-.23-.63-.36l-.39-.24c-.95-.6-1.86-1.26-2.74-1.97a23.463 23.463 0 0 1-2.59-2.58c-.49-.57-.96-1.17-1.4-1.79-.14-.18-.27-.36-.4-.55-.22-.33-.42-.66-.62-1-.24.28-.44.61-.54.95.12.19.25.38.37.57.49.71 1.01 1.39 1.55 2.05.26.3.52.6.79.89.52.56 1.06 1.11 1.63 1.62.2.19.41.37.62.55.92.73 1.86 1.41 2.85 2.02.13.09.27.17.4.25.21.13.43.25.64.37.36.2.71.38 1.08.55zm-3.7-39.77c.26-.2.52-.39.79-.58 1.26-.9 2.59-1.69 3.99-2.3 1.95-.82 3.95-1.48 5.99-1.73 1-.2 2.02-.19 3.02-.26.45-.04.99.03 1.48.04.5.04 1.01.02 1.49.1 3.84.45 7.38 1.84 10.21 3.71.62.41 1.2.85 1.75 1.3a21.89 21.89 0 0 1 2.08 1.92 23.522 23.522 0 0 1 1.83 2.15c.27.35.51.69.74 1.04l.56-.53c-.52-.79-1.13-1.59-1.81-2.37-.22-.26-.44-.5-.69-.75-.36-.4-.76-.79-1.18-1.17-.29-.28-.6-.54-.91-.79-.6-.52-1.25-1-1.93-1.46a24.333 24.333 0 0 0-10.59-3.9c-3.97-.45-8.37.1-12.4 1.88-1.79.77-3.47 1.82-5.05 3.03.07.05.13.12.19.18l.44.49zm-.62 1.99c.02-.02.03-.04.05-.05l-.33-.33-.44-.44.41.47.31.35z"/>
        <path class="st28" d="M33.8 38.15c-.26 0-.54.05-.82.13-.02.01-.05.01-.07.02.2.36.42.71.65 1.06l.22.31c.45.64.93 1.26 1.45 1.85.21.25.43.5.67.74v.01c.56.6 1.16 1.16 1.78 1.69.8.63 1.62 1.23 2.48 1.77.12.07.25.15.38.23.2.12.41.24.62.35.38.22.77.42 1.16.6.16.08.32.15.48.22 1.08.46 2.17.85 3.28 1.14.13-.24.25-.48.36-.72-1.12-.29-2.23-.7-3.31-1.16-.13-.06-.26-.11-.38-.17-.41-.19-.8-.39-1.19-.61-.23-.13-.46-.26-.69-.4-.02-.01-.04-.03-.06-.04-.14-.08-.28-.17-.42-.26-.75-.49-1.47-1.02-2.17-1.59-.24-.21-.49-.42-.72-.65v-.01c-.4-.36-.79-.75-1.17-1.16-.24-.26-.47-.53-.7-.81-.48-.58-.93-1.18-1.36-1.8-.16-.24-.32-.49-.47-.74zm-.49-22.26c-.5.78-.94 1.59-1.33 2.44-.14.3-.28.61-.4.93-.27.63-.5 1.27-.71 1.92a21.55 21.55 0 0 0-.74 3.57c-.12.9-.18 1.79-.2 2.66.01.22.01.44.02.66.01.06.01.12.01.18v.05c.02.35.05.7.08 1.04.04.43.09.85.15 1.27.13.9.32 1.78.57 2.66.31 0 .61 0 .91.01-.24-.8-.42-1.63-.54-2.45-.07-.42-.12-.83-.16-1.25-.04-.35-.07-.7-.09-1.04-.01-.09-.01-.18-.02-.26l-.03-.82c.02-.99.09-1.94.22-2.88.14-1.07.35-2.11.66-3.15.05-.17.11-.34.17-.5.18-.53.38-1.04.59-1.55.15-.35.3-.7.47-1.04.39-.82.83-1.61 1.33-2.36.26-.38.53-.76.82-1.12a3.29 3.29 0 0 0-.7-.49c-.29.37-.56.74-.83 1.13-.09.13-.17.26-.25.39z"/>
        <path class="st28" d="M32.46 15.64c-.47.78-.9 1.59-1.27 2.42-.14.3-.27.61-.39.91-.27.66-.51 1.33-.72 2.01-.37 1.25-.62 2.54-.77 3.83-.11.9-.18 1.81-.2 2.71 0 .12.01.23.01.35 0 .06.01.12.01.18.01.36.04.72.07 1.08.03.41.07.83.12 1.24.07.54.15 1.07.26 1.6.08.44.18.87.29 1.3h.5c-.24-.9-.41-1.82-.53-2.75-.05-.42-.1-.84-.13-1.26-.03-.35-.05-.71-.06-1.06-.01-.07-.01-.14-.01-.21-.01-.16-.02-.31-.02-.47 0-.21.01-.42.02-.63.03-.71.08-1.41.17-2.11.14-1.24.38-2.46.74-3.66.21-.66.44-1.32.7-1.96.12-.31.25-.61.39-.91.39-.88.85-1.74 1.36-2.57.08-.13.16-.25.24-.38.25-.37.52-.74.79-1.1-.16-.05-.32-.1-.5-.12-.24.31-.47.63-.69.96-.13.19-.25.39-.37.59l-.01.01z"/>
        <path class="st28" d="M27.45 28.68l.09 1.13h.01c.12 1.17.31 2.32.59 3.45.33 0 .66 0 1 .01-.23-.9-.39-1.81-.51-2.72-.02-.14-.03-.27-.05-.41-.05-.4-.08-.8-.11-1.2-.03-.37-.05-.74-.06-1.11v-.14c-.01-.08-.01-.15-.01-.23.02-.91.07-1.8.17-2.67.15-1.37.41-2.7.8-4.03a27.49 27.49 0 0 1 1.21-3.11c.18-.39.37-.77.57-1.15l.01-.01c.32-.62.68-1.22 1.06-1.8.15-.22.3-.44.46-.65-.32.03-.65.13-.94.27-.25.11-.48.26-.68.44l-.01.01c-.34.56-.66 1.13-.96 1.71 0 .01 0 .02-.01.03-.06.09-.1.19-.15.28-.15.31-.3.62-.44.94-.02 0-.06 0-.09-.01h-.01c.01.03.03.06.06.09-.18.41-.35.83-.51 1.25-.18.47-.35.94-.5 1.42a23.58 23.58 0 0 0-.85 4.19c-.11.93-.17 1.85-.19 2.75v.11c0 .09 0 .17.01.26.01.3.02.61.04.9zm.14 28.34c.03 0 .07-.01.1-.04.19-.23.39-.46.57-.7.15-.18.29-.36.42-.55.1-.13.19-.27.28-.41-.15.13-.3.27-.44.41-.18.16-.34.34-.5.51-.17.18-.32.36-.48.54-.61-.03-1.22-.05-1.84.01l.34.06c.52.09 1.03.13 1.55.17zm-9.11-26.3a.23.23 0 0 0-.19.06c-.54.53-1.05 1.08-1.58 1.62-.47 0-.93 0-1.41.02.09.02.17.03.26.05.4.07.81.13 1.2.19.03 0 .07 0 .09-.02l.01-.01c.56-.47 1.12-.94 1.66-1.43l1.48.21c.06.01.14-.01.19-.06 1.1-.96 2.17-1.94 3.19-2.99.19-.18.36-.37.54-.56-.2.14-.4.28-.59.43-1.17.83-2.28 1.74-3.37 2.68l-1.48-.19z"/>
        <path class="st28" d="M29.03 56.57l-1.07 1.05-2.29-.28a.542.542 0 0 0-.54.25l-.02.03-.74 1.14c-.09.13-.12.3-.08.47l.01.02.49 1.91-.95 1.17-1.57-.46a.65.65 0 0 0-.31-.01l.21-.33c.48-.76.92-1.47 1.32-2.1.04-.06.07-.12.11-.17.04.59.14 1.17.3 1.73-.16.26-.29.55-.4.85.22-.25.43-.51.62-.79.01-.02.02-.04.01-.07v-.01a7.57 7.57 0 0 0-.52-1.72v-.01c.7-1.13 1.22-2 1.49-2.44.09-.17.15-.27.17-.31-.1.13-.89 1.2-2.01 2.78-.59.85-1.28 1.84-2.01 2.91-.66.97-1.35 1.99-2.05 3.02-.07.11-.15.22-.22.33l-1.54 2.37c-.23.35-.45.69-.67 1.02-.38.58-.73 1.15-1.06 1.68-.3.46-.57.9-.83 1.31-.18.3-.36.58-.52.84-.21.35-.4.66-.56.93-.04.06-.08.13-.12.19-.04.08-.08.16-.12.23-.26.42-.41.69-.45.75.03-.03.09-.12.2-.26.16-.23.42-.58.77-1.05.11-.16.23-.33.37-.52.2-.29.43-.61.67-.95.19-.28.39-.56.61-.87l.02-.04c.16-.22.32-.45.48-.69.01 0 .01-.01.01-.01.03-.04.05-.06.07-.1l.01-.01c.24-.35.49-.72.75-1.1l.06-.09c.08-.13.17-.25.26-.38.18-.27.36-.54.55-.82.35-.52.71-1.04 1.07-1.57l.04-.07c.08-.11.15-.23.23-.34-.01.04-.01.11-.02.19-.02.14 0 .33.02.52.03.18.07.36.12.49.04.11.08.18.09.22h.01v-.01c.01-.03.03-.11.04-.23.01-.13 0-.3-.02-.46v-.05a3.06 3.06 0 0 0-.12-.5c-.04-.1-.08-.17-.1-.2.04-.05.07-.09.1-.14l.54-.84c-.01.04-.01.08-.01.12l.19 2.81-1 .26-.81.21h-.01c-.33.09-.55.41-.5.76.03.22.06.48.06.7 0 .14-.01.3-.03.41-.1 0-.2.02-.29.05-.07.02-.13.04-.19.07h-.01c-.12.04-.24.11-.35.18-.09.06-.16.12-.24.19-.08.07-.13.12-.23.25-.02.02-.03.05-.04.07-.15.28-.28.55-.41.84-.07.15-.13.29-.18.45-.05.13-.12.33-.16.47-.03.09-.01.04-.03.08 0 .01-.02.04-.04.07-.04.04-.09.09-.16.13v.01c-.02.01-.04.03-.06.04-.1.06-.2.11-.32.16-.11.05-.24.1-.34.13l-.04.01c-.11.04-.22.11-.29.22l-.42.61-1.52 2.23-3.64.39c.4-.57 1.16-1.66 2.11-3.08.7-1.07 1.55-2.31 2.41-3.67.01-.02.03-.05.04-.07.42-.66.85-1.34 1.29-2.03.45-.7.9-1.42 1.36-2.14.14-.24.29-.48.43-.72.55-.92 1.1-1.82 1.64-2.7.18-.3.35-.59.53-.88.84-1.37 1.57-2.68 2.22-3.79.75-1.31 1.33-2.38 1.68-3.03.15-.27.26-.47.32-.59.03-.05.05-.09.06-.11-.01.01-.04.04-.07.09l-.37.52c-.42.61-1.12 1.62-1.98 2.9-.48.74-1.04 1.55-1.61 2.44-.27.4-.53.81-.8 1.23-.28.45-.57.9-.87 1.37-.59.93-1.2 1.9-1.81 2.86v.01h-.01c-.42.69-.83 1.38-1.24 2.06-.47.76-.92 1.51-1.37 2.24-.83 1.37-1.56 2.68-2.21 3.79-.81 1.42-1.43 2.56-1.77 3.19-.04-.17-.07-.35-.11-.52v-.01c-.23-1.04-.45-2.07-.65-3.11 1.13-1.9 2.3-3.78 3.48-5.66.59-.94 1.18-1.88 1.76-2.83.42-.68.83-1.37 1.24-2.05.19-.3.37-.61.55-.91l1.22-2.11 1.61-2.77.58-1 1.68-2.96.42-.75.41-.73.16-.29c-.17-.32-.34-.65-.52-.98-.01.02-.02.03-.03.05l-.45.73-.89 1.44-1.78 2.9-3.49 5.83c-1.14 1.96-2.27 3.92-3.36 5.91-1.09 1.98-2.2 3.96-3.34 5.92h-.01a.42.42 0 0 0-.04.27c.31 1.42.57 2.85.85 4.27.04.2.22.34.43.33h.01l4.25-.28c.14-.01.27-.08.36-.19l.01-.02 1.19-1.59.88-1.18a3.515 3.515 0 0 0 .78-.33c.17-.1.33-.21.49-.37.07-.09.15-.17.22-.29.06-.08.13-.28.15-.33.04-.15.08-.23.14-.37l.17-.38c.11-.24.23-.48.36-.71.01 0 .02-.02.03-.02.03-.03.05-.05.08-.06.06-.04.12-.07.18-.08.03-.01.07-.01.1-.01.01-.01.03-.01.05-.01h.16l.03-.01.05-.01c.01 0 .03 0 .11-.02.13-.04.29-.14.36-.21.14-.12.23-.26.27-.37.19-.45.18-.75.2-1.07 0-.1 0-.19-.01-.28l1.84-.44c.32-.08.54-.36.54-.69v-.04l-.22-3.18 1.06-1.84 1.49.41h.01c.26.07.55-.01.72-.24l1.38-1.83.02-.02a.63.63 0 0 0 .1-.55l-.56-1.97.37-.63 2.15.16.03.01c.15.01.3-.05.41-.17l2.5-2.79c-.36 0-.74-.01-1.14-.01l-.86.83zM18.04 70.23h-.02c.01-.01.01-.01.02-.01v.01z"/>
        <path class="st28" d="M11.08 75.95c-.28.04-.57.09-.78.16-.19.05-.32.1-.34.11v.01c.04 0 .17.01.36.02.22 0 .51-.03.8-.06.29-.05.57-.1.78-.16.22-.06.36-.12.36-.12h-.05a2.33 2.33 0 0 0-.32-.02c-.23 0-.52.02-.81.06zM9.19 38.7c-.01.19-.01.39-.01.59-.64.55-1.26 1.12-1.86 1.72l-.58.03c-.37.03-.74.06-1.11.1H5.6c-.03.01-.07.02-.1.05-.56.53-1.13 1.05-1.65 1.63.09-.05.17-.11.26-.17.55-.34 1.07-.71 1.59-1.08.58-.01 1.16-.04 1.74-.07.06-.01.12-.03.16-.08.63-.63 1.23-1.29 1.81-1.97l.02-.02c.02-.02.03-.05.02-.09l-.18-.87-.06-.27c-.01.16-.02.33-.02.5z"/>
        <path class="st28" d="M7.82 43.18l.02-.02c1.1-.89 2.19-1.81 3.28-2.73.15-.12.23-.32.2-.53v-.01l-.3-1.98 2.72-2.51.66.06c.17.02.35-.04.49-.17l1.06-.98 1.18-.03h.03c.13 0 .26-.05.36-.14l1.49-1.31 1.07.21h.03c.14.03.3-.01.42-.12l4.31-3.99.15-.13c.13-.13.15-.34.03-.48-.11-.12-.27-.16-.4-.1l-.01.01c-.03 0-.05.02-.08.04l-.94.77-3.53 2.93-1.09-.26c-.15-.03-.32 0-.45.1l-.02.02-1.57 1.24-1.23-.03c-.15 0-.3.05-.42.16l-.01.01-1.03.95-.28-.02v-.01l-.38-.03a.63.63 0 0 0-.5.17l-2.37 2.24-.76.72-.01.01c-.14.13-.22.33-.18.53l.33 1.98c-.94.81-1.87 1.62-2.79 2.45l-1.38-.14H5.9a.506.506 0 0 0-.35.11l-1.69 1.42-.61-.21-.45-.15-.47-.16-.03-.01c.01-.01.02-.01.03-.03.47-.37 1.59-1.27 3.03-2.5.45-.39.94-.8 1.45-1.24.59-.51 1.22-1.05 1.86-1.62.12-.11.24-.22.37-.33.57-.51 1.16-1.04 1.75-1.57.53-.48 1.07-.96 1.61-1.44l.42-.39h.01c.36-.35.72-.67 1.07-1.01.74-.68 1.47-1.36 2.17-2.01 1.17-1.09 2.23-2.15 3.16-3.03 1.05-1.02 1.88-1.87 2.4-2.4.19-.19.33-.34.43-.44.07-.07.12-.13.15-.16-.03.02-.09.07-.17.13l-.48.39c-.58.46-1.5 1.21-2.62 2.17-.96.84-2.11 1.79-3.3 2.86l-.78.69c-.96.86-1.96 1.75-2.96 2.65-.06.06-.12.11-.18.16-.53.5-1.07 1-1.59 1.48-.65.61-1.29 1.2-1.9 1.77-.21.2-.42.39-.63.58-.92.88-1.77 1.72-2.52 2.44-1.31 1.28-2.3 2.28-2.74 2.75l-.09.09-.27-.1c.09-1.7.18-3.4.32-5.09 1.39-1.36 2.83-2.67 4.25-4 .29-.27.59-.54.88-.83.43-.4.86-.81 1.29-1.22.39-.38.79-.76 1.18-1.14.33-.31.65-.62.96-.93l.78-.78 3.14-3.12.31-.31 2.09-2.13 1.05-1.06.38-.4.14-.14c.17-.18.37-.33.47-.58.01-.03.02-.05.03-.08 0-.01.01-.03.01-.05.02-.02.04-.04.05-.06l-.08-.1a.383.383 0 0 0-.5-.2c-.01.01-.03.01-.04.02-.22.1-.37.28-.54.44l-.55.51-1.08 1.03-2.17 2.05-4.28 4.15c-.72.68-1.41 1.4-2.12 2.1-.7.7-1.4 1.41-2.09 2.13-1.39 1.43-2.75 2.87-4.17 4.27-.06.06-.1.14-.11.24-.09 1.84-.25 3.69-.4 5.53-.01.17.08.33.24.39h.02l2.36.92c.14.05.3.03.42-.06l.01-.01L6 43.09l1.42.19c.14.02.28-.01.4-.1z"/>
        <path class="st29" d="M34.07 19.02c-.5.23-1.04.36-1.6.36-.21.51-.41 1.02-.59 1.55.6-.09 2.64-.59 3.24-2.67-.29.31-.65.56-1.05.76zm-4.69-1.33c-.24-.35-.41-.73-.51-1.12-.01-.02-.01-.04-.01-.06-.14.45-.38 1.55.08 2.54.16-.42.33-.84.51-1.25a.236.236 0 0 1-.06-.09l-.01-.02z"/>
    </g>
</svg>