<?xml version="1.0" standalone="no"?>
<!DOCTYPE svg PUBLIC "-//W3C//DTD SVG 1.1//EN" "http://www.w3.org/Graphics/SVG/1.1/DTD/svg11.dtd">
<svg width="100%" height="100%" viewBox="0 0 500 500" version="1.1" xmlns="http://www.w3.org/2000/svg" xmlns:xlink="http://www.w3.org/1999/xlink" xml:space="preserve" style="fill-rule:evenodd;clip-rule:evenodd;stroke-miterlimit:10;">
    <g transform="matrix(0.937281,0,0,0.937281,0,0)">
        <g id="Layer1">
            <g id="Layer 3">
                <rect x="0" y="0" width="533.458" height="533.458" style="fill:rgb(255,210,228);fill-rule:nonzero;"/>
                <path d="M152.815,424.293C162.966,421.84 249.961,298.742 249.961,298.742C251.879,296.115 254.62,294.205 257.748,293.314C260.788,292.449 263.982,292.284 267.09,292.856C275.433,294.39 290.717,299.883 296.832,319.523" style="fill:none;stroke-width:5.33px;stroke:rgb(102,101,140);"/>
                <path d="M418.547,117.182C422.292,118.91 426.898,117.896 430.503,114.55C434.109,111.204 436.616,105.616 437.013,100.044C437.288,96.179 436.554,92.313 434.778,89.601C433.003,86.889 430.155,85.445 427.283,86.123C424.412,86.801 421.628,89.718 420.57,93.465" style="fill:rgb(240,202,162);fill-rule:nonzero;stroke-width:2.13px;stroke:rgb(194,152,107);"/>
                <path d="M406.458,52.644C406.458,52.644 395.992,46.955 398.958,46.644C405.698,45.938 418.972,52.333 422.458,58.144C432.958,75.644 435.765,91.79 424.958,118.644L406.458,52.644Z" style="fill:rgb(148,114,86);fill-rule:nonzero;stroke-width:3.2px;stroke:rgb(86,64,48);"/>
                <path d="M399.997,168.293C399.997,168.293 404.992,170.999 410.197,175.796C416.109,181.245 419.77,188.713 420.688,196.7L422.37,211.333C422.37,211.333 439.531,236.579 441.328,249.158L420.663,263.535L391.611,235.98L399.997,168.293Z" style="fill:rgb(189,224,221);fill-rule:nonzero;stroke-width:2.77px;stroke:rgb(135,160,158);"/>
                <path d="M450.313,266.729C450.313,266.729 470.612,308.57 447.654,318.516C443.685,320.235 439.102,319.747 435.672,317.112C431.47,313.884 426.922,307.829 429.672,297.478C429.672,297.478 423.977,288.692 422.37,280.706L450.313,266.729Z" style="fill:rgb(240,202,162);fill-rule:nonzero;stroke-width:2.13px;stroke:rgb(194,152,107);"/>
                <path d="M424.479,276.909C424.479,276.909 428.35,289.89 449.515,284.699C449.515,284.699 453.508,297.078 461.095,295.081C468.683,293.085 461.432,264.818 446.488,257.787L424.479,276.909Z" style="fill:rgb(240,202,162);fill-rule:nonzero;stroke-width:2.13px;stroke:rgb(194,152,107);"/>
                <clipPath id="_clip1">
                    <path d="M395.9,271.845L422.304,224.988L459.753,246.09L433.349,292.948L395.9,271.845Z"/>
                </clipPath>
                <g clip-path="url(#_clip1)">
                    <path d="M451.461,251.383C452.754,253.303 452.838,255.752 451.667,257.582C449.657,260.723 445.328,265.825 436.17,271.995C427.176,278.056 420.942,280.151 417.293,280.841C415.081,281.26 412.756,280.202 411.415,278.213L402.793,265.417C401.783,263.919 402.496,261.952 404.164,261.649C407.788,260.993 414.078,258.929 423.215,252.771C432.446,246.552 436.771,241.418 438.761,238.282C439.66,236.864 441.737,236.951 442.736,238.436L451.461,251.383Z" style="fill:rgb(180,211,207);fill-rule:nonzero;stroke-width:2.98px;stroke:rgb(135,160,158);"/>
                </g>
                <clipPath id="_clip2">
                    <rect x="285.462" y="405.032" width="88.794" height="83.579"/>
                </clipPath>
                <g clip-path="url(#_clip2)">
                    <path d="M318.65,406.273C305.437,415.077 294.729,427.564 287.916,441.898C285.823,446.303 286.286,451.499 289.023,455.535C290.305,457.424 291.676,459.27 292.789,460.389C312.614,480.316 341.967,490.125 369.81,486.764C372.476,486.441 373.908,483.457 372.554,481.137C371.868,479.959 371.116,478.861 370.43,478.235C365.723,473.929 360.046,470.862 354.505,467.702C348.964,464.542 343.413,461.172 339.152,456.425C334.89,451.678 332.032,445.299 332.876,438.976L318.65,406.273Z" style="fill:rgb(240,203,161);fill-rule:nonzero;"/>
                    <path d="M318.045,405.239C309.524,410.988 302.04,418.087 295.898,426.336C292.614,430.745 289.693,435.463 287.303,440.418C285.312,444.548 284.77,448.96 286.501,453.309C288.38,458.028 292.345,461.837 296.078,465.128C299.698,468.319 303.584,471.224 307.665,473.799C316.281,479.241 325.808,483.272 335.694,485.735C345.735,488.238 356.202,489.157 366.518,488.297C369.768,488.026 373.605,487.755 374.198,483.772C374.82,479.601 370.228,476.314 367.339,474.185C358.058,467.347 346.167,463.536 338.87,454.217C337.09,451.942 335.649,449.384 334.79,446.619C334.351,445.207 334.059,443.771 333.965,442.292C333.89,441.107 334.24,439.801 334.032,438.658C333.858,437.711 333.168,436.664 332.789,435.794C328.421,425.752 324.052,415.711 319.684,405.669C319.071,404.258 317.006,405.477 317.615,406.878C321.093,414.871 324.57,422.865 328.048,430.858C328.916,432.855 329.785,434.851 330.652,436.848C330.99,437.622 331.741,438.718 331.837,439.569C331.906,440.194 331.519,441.462 331.569,442.292C331.622,443.182 331.733,444.077 331.899,444.955C332.332,447.242 333.174,449.461 334.257,451.518C336.376,455.541 339.536,458.9 343.08,461.704C351.11,468.061 361.09,471.586 368.789,478.376C370.827,480.172 373.858,484.238 369.699,485.492C367.431,486.176 364.629,486.069 362.273,486.156C357.548,486.327 352.808,486.135 348.112,485.585C329.034,483.354 310.529,475.201 296.365,462.168C291.948,458.103 287.248,452.946 287.863,446.494C288.373,441.131 292.505,435.485 295.44,431.116C301.755,421.717 309.874,413.637 319.254,407.308C320.526,406.45 319.328,404.373 318.045,405.239" style="fill:rgb(194,152,107);fill-rule:nonzero;"/>
                </g>
                <clipPath id="_clip3">
                    <path d="M390.499,456.831L443.239,391.872L507.87,444.346L455.13,509.305L390.499,456.831Z"/>
                </clipPath>
                <g clip-path="url(#_clip3)">
                    <path d="M411.171,433.331C410.131,448.524 413.427,464.197 420.465,478.181C422.629,482.478 426.921,485.402 431.668,485.933C433.89,486.181 436.132,486.338 437.658,486.226C464.843,484.233 489.863,468.918 503.801,446.439C505.135,444.285 503.678,441.365 501.079,440.898C499.761,440.661 498.465,440.522 497.574,440.63C491.449,441.37 485.705,443.598 479.97,445.667C474.235,447.737 468.332,449.682 462.13,449.82C455.928,449.956 449.298,448.043 444.91,443.455L411.171,433.331Z" style="fill:rgb(240,203,161);fill-rule:nonzero;"/>
                    <path d="M410.012,433.124C409.396,442.967 410.441,452.899 413.171,462.571C414.631,467.742 416.545,472.841 418.957,477.7C420.967,481.75 424.057,484.917 428.448,486.381C433.214,487.968 438.514,487.46 443.276,486.795C447.894,486.15 452.449,485.131 456.864,483.763C466.189,480.876 474.966,476.436 482.742,470.751C490.641,464.977 497.569,457.896 503.031,449.809C504.752,447.262 506.822,444.284 504.094,441.35C501.238,438.277 495.969,439.572 492.606,440.349C481.806,442.846 471.796,449.152 460.256,448.639C457.439,448.513 454.605,447.961 451.957,446.854C450.604,446.288 449.321,445.601 448.12,444.741C447.16,444.051 446.358,442.976 445.35,442.411C444.514,441.943 443.295,441.79 442.397,441.521C432.038,438.412 421.678,435.304 411.318,432.195C409.862,431.757 409.579,434.034 411.024,434.467C419.271,436.941 427.517,439.417 435.764,441.891C437.824,442.509 439.884,443.127 441.943,443.746C442.742,443.985 444.036,444.124 444.751,444.588C445.276,444.93 446.026,446.008 446.697,446.494C447.417,447.013 448.175,447.494 448.953,447.924C450.978,449.043 453.194,449.82 455.428,450.319C459.798,451.295 464.273,451.092 468.546,450.26C478.231,448.376 486.884,443.289 496.708,441.919C499.307,441.556 504.252,441.891 502.751,445.722C501.933,447.81 500.186,449.793 498.854,451.57C496.18,455.135 493.216,458.482 490.002,461.573C476.944,474.128 459.649,482.547 441.158,484.726C435.391,485.406 428.611,485.606 423.988,481.106C420.143,477.365 418.231,470.798 416.596,465.907C413.079,455.387 411.653,444.374 412.33,433.538C412.422,432.069 410.104,431.641 410.012,433.124" style="fill:rgb(194,152,107);fill-rule:nonzero;"/>
                </g>
                <path d="M365.255,421.671C365.255,421.671 411.252,374.877 422.28,324.873C422.784,322.589 421.122,320.392 418.788,320.234L341.894,315.048L333.508,368.36C333.508,368.36 322.127,391.122 312.543,403.701C312.543,403.701 328.117,433.052 365.255,421.671Z" style="fill:rgb(234,249,248);fill-rule:nonzero;stroke-width:2.77px;stroke:rgb(135,160,158);"/>
                <path d="M331.445,374.383C331.445,374.383 347.08,356.068 366.287,356.108" style="fill:rgb(234,249,248);fill-rule:nonzero;"/>
                <path d="M331.347,374.298C331.347,374.298 332.885,372.264 335.596,369.573C336.282,368.91 337.009,368.169 337.831,367.444C338.63,366.691 339.523,365.956 340.455,365.201C341.366,364.419 342.392,363.72 343.395,362.951C344.43,362.23 345.498,361.511 346.585,360.82C347.702,360.18 348.78,359.458 349.923,358.889C351.059,358.308 352.161,357.684 353.323,357.293C354.475,356.883 355.579,356.457 356.697,356.274C357.803,356.063 358.819,355.765 359.812,355.739C360.791,355.656 361.687,355.615 362.474,355.58C363.269,355.599 363.963,355.684 364.527,355.74C365.657,355.861 366.287,355.979 366.287,355.979L366.286,356.239C366.286,356.239 365.655,356.426 364.577,356.671C364.039,356.805 363.387,356.912 362.652,357.09C361.921,357.307 361.103,357.552 360.213,357.78C359.99,357.837 359.764,357.895 359.532,357.955C359.306,358.037 359.076,358.12 358.841,358.205C358.372,358.363 357.886,358.525 357.387,358.693C356.382,358.992 355.362,359.437 354.284,359.825C353.189,360.167 352.107,360.667 350.968,361.089C349.822,361.499 348.745,362.116 347.614,362.628C346.521,363.21 345.438,363.824 344.381,364.444C343.355,365.113 342.302,365.716 341.357,366.409C340.876,366.745 340.404,367.075 339.941,367.398C339.488,367.736 339.046,368.067 338.615,368.39C337.739,369.02 336.957,369.673 336.218,370.259C333.303,372.655 331.543,374.469 331.543,374.469L331.347,374.298Z" style="fill:rgb(168,193,191);fill-rule:nonzero;"/>
                <path d="M348.865,415.282C348.865,415.282 387.532,393.518 408.14,348.293" style="fill:rgb(234,249,248);fill-rule:nonzero;"/>
                <path d="M348.8,415.169C348.8,415.169 353.665,412.245 360.265,406.905C361.94,405.606 363.658,404.079 365.51,402.511C367.308,400.881 369.24,399.202 371.143,397.364C373.033,395.512 375.023,393.638 376.897,391.588C377.848,390.578 378.807,389.561 379.769,388.539C380.688,387.479 381.611,386.414 382.534,385.349C384.416,383.252 386.111,381 387.814,378.817C388.238,378.27 388.661,377.726 389.082,377.185C389.481,376.627 389.878,376.071 390.273,375.52C391.062,374.417 391.842,373.329 392.609,372.258C394.228,370.175 395.535,367.987 396.949,366.025C397.626,365.025 398.332,364.081 398.931,363.115C399.535,362.151 400.118,361.22 400.679,360.325C401.78,358.525 402.901,356.931 403.755,355.44C404.604,353.946 405.359,352.647 406,351.585C407.257,349.447 408.022,348.239 408.022,348.239L408.258,348.347C408.258,348.347 407.766,349.679 406.822,351.987C406.363,353.147 405.782,354.547 405.099,356.15C404.787,356.967 404.32,357.765 403.889,358.64C403.441,359.507 402.97,360.418 402.478,361.369C401.978,362.318 401.458,363.306 400.92,364.33C400.363,365.342 399.699,366.335 399.063,367.386C398.41,368.427 397.739,369.496 397.053,370.588C396.704,371.131 396.368,371.691 395.986,372.227C395.598,372.758 395.205,373.295 394.81,373.836C394.003,374.905 393.182,375.992 392.351,377.093C391.932,377.641 391.525,378.203 391.084,378.742C390.63,379.271 390.174,379.803 389.716,380.338C387.873,382.463 386.082,384.686 384.089,386.732C383.118,387.776 382.147,388.821 381.18,389.861C380.172,390.861 379.167,391.856 378.171,392.844C376.207,394.848 374.133,396.672 372.163,398.474C371.191,399.388 370.164,400.209 369.189,401.044C368.203,401.867 367.26,402.697 366.296,403.45C364.359,404.944 362.563,406.398 360.818,407.627C353.944,412.685 348.93,415.394 348.93,415.394L348.8,415.169Z" style="fill:rgb(168,193,191);fill-rule:nonzero;"/>
                <path d="M322.755,392.721C322.755,392.721 370.446,379.541 391.611,348.293" style="fill:rgb(234,249,248);fill-rule:nonzero;"/>
                <path d="M322.72,392.596C322.72,392.596 327.708,391.073 334.903,388.048C336.702,387.296 338.635,386.445 340.664,385.512C342.689,384.572 344.822,383.577 346.992,382.478C349.168,381.388 351.389,380.212 353.615,378.965C355.843,377.722 358.068,376.394 360.262,375.022C362.438,373.623 364.601,372.204 366.649,370.698C367.681,369.956 368.689,369.202 369.678,368.448C370.679,367.709 371.644,366.951 372.579,366.188C373.544,365.462 374.452,364.699 375.354,363.969C376.266,363.249 377.127,362.51 377.97,361.795C378.824,361.091 379.63,360.379 380.389,359.668C381.167,358.976 381.927,358.314 382.609,357.631C383.295,356.952 383.99,356.334 384.609,355.707C385.227,355.076 385.813,354.478 386.363,353.916C387.461,352.785 388.361,351.746 389.158,350.93C390.622,349.197 391.503,348.22 391.503,348.22L391.719,348.366C391.719,348.366 391.086,349.511 389.888,351.481C389.247,352.434 388.49,353.616 387.523,354.899C386.548,356.174 385.435,357.611 384.104,359.078C383.462,359.834 382.745,360.573 382.007,361.345C381.269,362.118 380.484,362.894 379.652,363.664C378.836,364.455 377.978,365.244 377.065,366.008C376.172,366.797 375.228,367.565 374.249,368.32C373.272,369.079 372.26,369.824 371.217,370.551C370.194,371.305 369.112,372.003 368.025,372.707C365.854,374.122 363.607,375.485 361.336,376.803C359.06,378.111 356.759,379.371 354.459,380.542C352.163,381.718 349.877,382.821 347.644,383.837C345.411,384.855 343.236,385.802 341.149,386.637C339.062,387.473 337.078,388.231 335.234,388.896C327.861,391.571 322.79,392.846 322.79,392.846L322.72,392.596Z" style="fill:rgb(168,193,191);fill-rule:nonzero;"/>
                <path d="M298.687,273.034C298.687,273.034 312.117,309.103 290.629,306.417C290.629,306.417 289.571,328.455 274.606,324.234C259.641,320.013 240.263,301.111 269.953,261.139L298.687,273.034Z" style="fill:rgb(240,202,162);fill-rule:nonzero;stroke-width:2.13px;stroke:rgb(194,152,107);"/>
                <path d="M109.951,356.754C106.046,359.032 102.791,362.937 100.839,367.494C97.91,374.328 98.886,382.464 102.14,389.299C106.696,398.086 115.158,404.269 124.596,406.873C161.371,399.713 158.442,367.819 141.194,356.429C133.383,351.221 120.691,350.245 109.951,356.754Z" style="fill:rgb(249,230,0);fill-rule:nonzero;stroke-width:2.56px;stroke:rgb(192,176,48);"/>
                <path d="M71.223,408.826C80.661,407.85 90.099,407.85 99.537,406.222C110.602,404.27 121.342,400.364 132.732,398.737C142.495,397.434 158.442,402.968 163.975,415.008C168.857,425.424 165.277,441.371 158.442,449.506C152.259,456.992 142.821,464.802 121.342,468.708C121.342,468.708 65.365,480.097 33.471,438.766C27.613,430.956 28.264,426.725 32.495,421.843C42.258,411.104 65.69,409.15 71.223,408.826Z" style="fill:rgb(249,230,0);fill-rule:nonzero;stroke-width:2.56px;stroke:rgb(192,176,48);"/>
                <path d="M62.761,436.488C59.507,433.234 61.785,427.701 66.341,427.376C76.104,426.725 81.311,426.074 88.471,424.121C95.306,422.168 101.814,419.239 108.974,417.612C115.809,415.659 123.294,415.009 130.128,417.287C132.732,418.263 135.01,419.565 137.288,421.192C142.821,425.748 143.797,434.21 139.566,440.068C137.613,442.671 135.661,444.95 133.383,446.902C126.223,453.086 116.46,456.666 107.022,456.34C98.885,456.015 90.749,454.062 83.264,450.157C73.175,444.95 66.992,440.393 62.761,436.488Z" style="fill:rgb(249,230,0);fill-rule:nonzero;stroke-width:2.56px;stroke:rgb(192,176,48);"/>
                <path d="M141.523,379.342C139.912,379.191 138.825,376.747 139.094,373.884C139.363,371.021 140.887,368.822 142.498,368.974C144.108,369.125 145.195,371.569 144.926,374.432C144.657,377.295 143.134,379.493 141.523,379.342" style="fill:rgb(35,31,32);fill-rule:nonzero;"/>
                <path d="M161.371,374.979C161.371,374.979 169.182,375.955 170.158,379.535C170.809,382.464 167.554,385.393 163.324,384.417C162.347,385.393 157.14,387.997 152.909,387.997C146.075,391.577 149.655,382.139 150.306,375.63C150.631,373.352 149.329,369.121 150.957,368.145C154.862,369.121 157.791,373.352 161.371,374.979Z" style="fill:rgb(250,175,64);fill-rule:nonzero;stroke-width:2.56px;stroke:rgb(174,102,40);"/>
                <path d="M149.33,384.092C153.561,386.696 159.419,385.719 163.324,384.743" style="fill:rgb(250,175,64);fill-rule:nonzero;"/>
                <path d="M148.354,385.393C152.91,387.997 158.443,387.671 163.65,386.369C165.928,385.718 164.952,382.464 162.674,383.115C158.443,384.091 153.886,384.742 149.981,382.464C148.354,381.488 146.727,384.417 148.354,385.393" style="fill:rgb(174,102,40);fill-rule:nonzero;"/>
                <path d="M76.43,454.713C83.979,454.713 90.099,460.833 90.099,468.382C90.099,475.931 83.979,482.05 76.43,482.05C68.881,482.05 62.761,475.931 62.761,468.382C62.761,460.833 68.881,454.713 76.43,454.713" style="fill:rgb(19,120,60);fill-rule:nonzero;"/>
                <path d="M76.43,454.713C83.979,454.713 90.099,460.833 90.099,468.382C90.099,475.931 83.979,482.05 76.43,482.05C68.881,482.05 62.761,475.931 62.761,468.382C62.761,460.833 68.881,454.713 76.43,454.713Z" style="fill:none;stroke-width:2.56px;stroke:rgb(55,179,74);"/>
                <path d="M76.43,463.175C79.306,463.175 81.637,465.506 81.637,468.382C81.637,471.258 79.306,473.589 76.43,473.589C73.554,473.589 71.223,471.258 71.223,468.382C71.223,465.506 73.554,463.175 76.43,463.175" style="fill:rgb(55,179,74);fill-rule:nonzero;"/>
                <path d="M140.868,449.832C149.675,449.832 156.815,456.972 156.815,465.779C156.815,474.586 149.675,481.726 140.868,481.726C132.061,481.726 124.921,474.586 124.921,465.779C124.921,456.972 132.061,449.832 140.868,449.832" style="fill:rgb(19,120,60);fill-rule:nonzero;"/>
                <path d="M140.868,449.832C149.675,449.832 156.815,456.972 156.815,465.779C156.815,474.586 149.675,481.726 140.868,481.726C132.061,481.726 124.921,474.586 124.921,465.779C124.921,456.972 132.061,449.832 140.868,449.832Z" style="fill:none;stroke-width:2.56px;stroke:rgb(55,179,74);"/>
                <path d="M140.868,459.595C144.283,459.595 147.051,462.363 147.051,465.778C147.051,469.193 144.283,471.962 140.868,471.962C137.453,471.962 134.685,469.193 134.685,465.778C134.685,462.363 137.453,459.595 140.868,459.595" style="fill:rgb(55,179,74);fill-rule:nonzero;"/>
                <path d="M296.832,311.038C300.966,311.038 304.317,314.389 304.317,318.523C304.317,322.657 300.966,326.009 296.832,326.009C292.698,326.009 289.347,322.657 289.347,318.523C289.347,314.389 292.698,311.038 296.832,311.038" style="fill:rgb(237,49,73);fill-rule:nonzero;"/>
                <path d="M296.832,311.038C300.966,311.038 304.317,314.389 304.317,318.523C304.317,322.657 300.966,326.009 296.832,326.009C292.698,326.009 289.347,322.657 289.347,318.523C289.347,314.389 292.698,311.038 296.832,311.038Z" style="fill:none;stroke-width:2.56px;stroke:rgb(163,29,41);"/>
                <clipPath id="_clip4">
                    <rect x="293.614" y="387.743" width="76.924" height="59.145"/>
                </clipPath>
                <g clip-path="url(#_clip4)">
                    <path d="M367.084,419.675C341.759,412.214 326.444,397.027 320.933,390.708C319.547,389.12 317.187,388.842 315.458,390.048C315.458,390.048 303.465,396.128 295.396,412.735C294.884,414.156 295.265,415.741 296.375,416.766C302.68,422.589 331.268,443.395 350.731,445.316C356.157,445.851 365.957,432.437 368.775,423.697C369.322,422.003 368.791,420.178 367.084,419.675" style="fill:rgb(218,234,232);fill-rule:nonzero;"/>
                    <path d="M367.084,419.675C341.759,412.214 326.444,397.027 320.933,390.708C319.547,389.12 317.187,388.842 315.458,390.048C315.458,390.048 303.465,396.128 295.396,412.735C294.884,414.156 295.265,415.741 296.375,416.766C302.68,422.589 331.268,443.395 350.731,445.316C356.157,445.851 365.957,432.437 368.775,423.697C369.322,422.003 368.791,420.178 367.084,419.675Z" style="fill:none;stroke-width:3.32px;stroke:rgb(135,160,158);"/>
                </g>
                <path d="M316.736,286.296C316.736,286.296 312.34,315.31 330.663,340.95C335.725,348.033 342.516,353.706 350.249,357.706L375.067,370.543C376.18,371.118 377.152,371.918 377.928,372.902C382.306,378.454 396.279,398.803 395.605,431.654L444.308,417.316C444.308,417.316 452.71,377.943 421.562,333.018C421.562,333.018 430.158,287.494 422.37,269.524L316.736,286.296Z" style="fill:rgb(234,249,248);fill-rule:nonzero;stroke-width:2.77px;stroke:rgb(135,160,158);"/>
                <path d="M403.192,311.455C403.192,311.455 422.71,329.848 434.315,354.994" style="fill:rgb(234,249,248);fill-rule:nonzero;"/>
                <path d="M403.282,311.361C403.282,311.361 405.837,313.569 409.35,317.211C410.239,318.112 411.171,319.116 412.163,320.176C413.152,321.237 414.152,322.395 415.198,323.584C416.212,324.799 417.301,326.023 418.332,327.33C419.382,328.62 420.444,329.937 421.46,331.29C422.511,332.617 423.509,333.985 424.498,335.33C425.512,336.657 426.428,338.021 427.289,339.358C428.157,340.69 428.911,342.033 429.587,343.326C429.929,343.97 430.262,344.595 430.584,345.201C430.874,345.824 431.154,346.426 431.422,347.004C431.954,348.162 432.422,349.231 432.814,350.187C433.177,351.159 433.483,352.009 433.721,352.714C434.203,354.121 434.434,354.94 434.434,354.94L434.198,355.049C434.198,355.049 433.691,354.357 432.882,353.121C432.475,352.504 431.997,351.749 431.461,350.881C430.908,350.021 430.258,349.066 429.597,348.002C428.94,346.936 428.202,345.799 427.418,344.599C426.648,343.392 425.837,342.119 424.997,340.802C423.359,338.145 421.671,335.259 419.773,332.508C418.849,331.115 417.876,329.755 416.913,328.42C415.969,327.069 414.964,325.798 414.029,324.536C412.101,322.06 410.286,319.754 408.662,317.832C405.432,313.972 403.102,311.549 403.102,311.549L403.282,311.361Z" style="fill:rgb(168,193,191);fill-rule:nonzero;"/>
                <path d="M418.754,415.282C418.754,415.282 437.86,363.154 423.307,335.715" style="fill:rgb(234,249,248);fill-rule:nonzero;"/>
                <path d="M418.631,415.237C418.631,415.237 420.261,410.405 422.091,402.994C422.553,401.143 423.017,399.129 423.484,396.995C423.932,394.857 424.424,392.609 424.848,390.266C425.295,387.928 425.684,385.501 426.049,383.032C426.404,380.561 426.709,378.046 426.944,375.527C427.158,373.006 427.349,370.485 427.392,368.001C427.44,366.76 427.432,365.53 427.44,364.316C427.467,363.101 427.418,361.905 427.392,360.728C427.357,358.373 427.233,356.106 427.091,353.957C426.918,351.812 426.688,349.79 426.403,347.933C426.091,346.085 425.806,344.377 425.41,342.901C425.088,341.399 424.66,340.136 424.36,339.067C424.053,338 423.676,337.215 423.499,336.642C423.298,336.077 423.192,335.775 423.192,335.775L423.421,335.653C423.421,335.653 423.59,335.926 423.906,336.438C424.21,336.957 424.706,337.702 425.204,338.716C425.705,339.728 426.336,340.96 426.862,342.451C427.158,343.186 427.444,343.979 427.685,344.831C427.927,345.683 428.254,346.568 428.442,347.521C428.647,348.471 428.917,349.456 429.094,350.489C429.252,351.524 429.465,352.592 429.593,353.698C429.884,355.908 430.059,358.253 430.1,360.677C430.107,363.101 430.054,365.604 429.824,368.13C429.634,370.659 429.347,373.215 429.011,375.76C428.674,378.306 428.268,380.839 427.814,383.321C427.351,385.8 426.864,388.233 426.324,390.571C425.279,395.254 424.083,399.568 422.969,403.235C420.753,410.574 418.875,415.326 418.875,415.326L418.631,415.237Z" style="fill:rgb(168,193,191);fill-rule:nonzero;"/>
                <path d="M441.328,409.691C441.328,409.691 442.646,371.808 429.672,345.951" style="fill:rgb(234,249,248);fill-rule:nonzero;"/>
                <path d="M441.198,409.687C441.198,409.687 441.203,405.603 440.754,399.501C440.631,397.976 440.516,396.325 440.329,394.584C440.167,392.841 439.98,391.006 439.751,389.112C439.561,387.214 439.239,385.268 438.977,383.285C438.672,381.308 438.326,379.305 437.975,377.307C437.545,375.323 437.201,373.322 436.706,371.39C436.182,369.465 435.831,367.532 435.282,365.718C434.783,363.893 434.424,362.091 433.932,360.429C433.703,359.592 433.48,358.778 433.266,357.99C433.059,357.198 432.883,356.424 432.634,355.71C432.174,354.267 431.783,352.929 431.436,351.739C431.282,351.134 431.061,350.602 430.888,350.095C430.718,349.586 430.562,349.118 430.42,348.695C429.845,347.005 429.556,346.009 429.556,346.009L429.788,345.892C429.788,345.892 430.345,346.753 431.254,348.316C431.704,349.097 432.3,350.032 432.843,351.166C433.374,352.304 433.975,353.593 434.595,355.016C435.23,356.435 435.739,358.033 436.342,359.706C436.489,360.126 436.638,360.551 436.788,360.982C436.913,361.419 437.04,361.862 437.169,362.31C437.427,363.204 437.658,364.128 437.91,365.063C438.403,366.936 438.718,368.911 439.093,370.904C439.453,372.9 439.71,374.943 440.028,376.974C440.287,379.013 440.54,381.052 440.752,383.062C440.922,385.076 441.15,387.05 441.252,388.971C441.383,390.889 441.509,392.742 441.552,394.504C441.629,396.263 441.638,397.929 441.662,399.464C441.725,405.607 441.458,409.694 441.458,409.694L441.198,409.687Z" style="fill:rgb(168,193,191);fill-rule:nonzero;"/>
                <path d="M415.169,324.602C418.237,314.153 419.048,303.047 417.533,292.263" style="fill:rgb(234,249,248);fill-rule:nonzero;"/>
                <path d="M415.043,324.567C415.043,324.567 415.145,324.066 415.324,323.188C415.497,322.305 415.752,321.068 415.982,319.558C416.233,318.054 416.436,316.287 416.654,314.404C416.843,312.515 416.972,310.498 417.032,308.482C417.029,307.473 417.059,306.466 417.007,305.475C416.979,304.484 416.92,303.512 416.918,302.572C416.9,300.692 416.976,298.933 417.028,297.414C417.099,295.895 417.164,294.616 417.246,293.712C417.317,292.809 417.403,292.281 417.403,292.281L417.661,292.245C417.661,292.245 418.548,294.186 419.103,297.263C419.257,298.03 419.371,298.867 419.463,299.756C419.581,300.644 419.605,301.586 419.626,302.559C419.607,304.509 419.334,306.578 419.106,308.634C418.848,310.69 418.52,312.732 418.144,314.63C417.936,315.575 417.767,316.494 417.536,317.35C417.318,318.209 417.107,319.018 416.886,319.758C416.464,321.24 416.07,322.473 415.767,323.312C415.466,324.155 415.293,324.637 415.293,324.637L415.043,324.567Z" style="fill:rgb(168,193,191);fill-rule:nonzero;"/>
                <path d="M315.738,289.988C327.395,296.327 370.047,314.683 428.88,283.33C430.348,282.548 431.312,281.058 431.43,279.399C431.996,271.426 431.906,246.432 413.774,212.619C413.774,212.619 417.558,203.701 405.388,174.881C405.388,174.881 403.909,166.503 411.234,158.24C413.985,155.137 414.25,150.512 411.725,147.223C406.889,140.921 392.366,134.098 350.28,138.342C350.28,138.342 326.918,128.559 314.887,148.925C311.488,154.678 316.652,166.142 320.928,170.089L325.72,219.055C325.72,219.055 315.811,232.386 316.273,259.341C316.273,259.341 313.016,268.232 312.588,284.548C312.529,286.809 313.751,288.907 315.738,289.988" style="fill:rgb(189,224,221);fill-rule:nonzero;"/>
                <path d="M315.738,289.988C327.395,296.327 370.047,314.683 428.88,283.33C430.348,282.548 431.312,281.058 431.43,279.399C431.996,271.426 431.906,246.432 413.774,212.619C413.774,212.619 417.558,203.701 405.388,174.881C405.388,174.881 403.909,166.503 411.234,158.24C413.985,155.137 414.25,150.512 411.725,147.223C406.889,140.921 392.366,134.098 350.28,138.342C350.28,138.342 326.918,128.559 314.887,148.925C311.488,154.678 316.652,166.142 320.928,170.089L325.72,219.055C325.72,219.055 315.811,232.386 316.273,259.341C316.273,259.341 313.016,268.232 312.588,284.548C312.529,286.809 313.751,288.907 315.738,289.988Z" style="fill:none;stroke-width:2.77px;stroke:rgb(135,160,158);"/>
                <path d="M385.222,165.298C385.222,165.298 386.733,158.11 392.167,153.717C392.167,153.717 395.84,147.245 375.356,148.085L375.356,166.496L385.222,165.298Z" style="fill:rgb(127,165,160);fill-rule:nonzero;stroke-width:2.77px;stroke:rgb(135,160,158);"/>
                <clipPath id="_clip5">
                    <path d="M377.039,437.844L425.886,383.688L468.643,422.254L419.797,476.41L377.039,437.844Z"/>
                </clipPath>
                <g clip-path="url(#_clip5)">
                    <path d="M446.776,406.941C425.301,419.905 404.597,420.785 396.53,420.544C394.502,420.484 392.802,421.965 392.576,423.968C392.576,423.968 389.356,436.376 396.238,452.885C396.939,454.173 398.327,454.938 399.774,454.825C407.986,454.182 441.182,447.623 454.929,435.173C458.761,431.703 455.287,416.057 450.758,408.373C449.88,406.884 448.224,406.068 446.776,406.941" style="fill:rgb(218,234,232);fill-rule:nonzero;"/>
                    <path d="M446.776,406.941C425.301,419.905 404.597,420.785 396.53,420.544C394.502,420.484 392.802,421.965 392.576,423.968C392.576,423.968 389.356,436.376 396.238,452.885C396.939,454.173 398.327,454.938 399.774,454.825C407.986,454.182 441.182,447.623 454.929,435.173C458.761,431.703 455.287,416.057 450.758,408.373C449.88,406.884 448.224,406.068 446.776,406.941Z" style="fill:none;stroke-width:3.19px;stroke:rgb(135,160,158);"/>
                </g>
                <path d="M431.145,97.411C431.145,69.181 402.449,46.296 367.052,46.296C331.654,46.296 302.958,69.181 302.958,97.411C302.958,115.087 314.21,130.665 331.311,139.845L333.707,148.925L384.024,163.301C384.024,163.301 389.59,154.795 393.186,144.081C415.552,136.103 431.145,118.215 431.145,97.411" style="fill:rgb(240,202,162);fill-rule:nonzero;"/>
                <path d="M431.145,97.411C431.145,69.181 402.449,46.296 367.052,46.296C331.654,46.296 302.958,69.181 302.958,97.411C302.958,115.087 314.21,130.665 331.311,139.845L333.707,148.925L384.024,163.301C384.024,163.301 389.59,154.795 393.186,144.081C415.552,136.103 431.145,118.215 431.145,97.411Z" style="fill:none;stroke-width:2.13px;stroke:rgb(194,152,107);"/>
                <path d="M393.808,103.002C411.578,113.784 418.167,87.628 402.8,85.018" style="fill:rgb(240,202,162);fill-rule:nonzero;"/>
                <path d="M393.303,103.865C396.848,105.953 401.151,107.45 405.227,106.04C408.279,104.984 410.534,102.464 411.632,99.471C414.146,92.613 410.268,85.412 403.065,84.053C401.807,83.816 401.268,85.743 402.533,85.982C408.543,87.115 411.805,92.774 409.826,98.591C407.384,105.77 399.88,105.417 394.312,102.138C393.201,101.483 392.193,103.212 393.303,103.865" style="fill:rgb(194,152,107);fill-rule:nonzero;"/>
                <path d="M383.05,77.912C383.534,83.571 381.719,88.347 378.997,88.58C376.275,88.813 373.676,84.414 373.192,78.755C372.708,73.096 374.522,68.32 377.244,68.087C379.967,67.854 382.566,72.253 383.05,77.912" style="fill:rgb(35,31,32);fill-rule:nonzero;"/>
                <path d="M416.747,80.248C417.196,85.504 415.867,89.909 413.776,90.088C411.686,90.267 409.627,86.151 409.178,80.895C408.728,75.64 410.058,71.234 412.149,71.055C414.239,70.876 416.298,74.992 416.747,80.248" style="fill:rgb(35,31,32);fill-rule:nonzero;"/>
                <path d="M411.842,120.572C412.747,119.202 413.54,117.754 414.229,116.255C414.389,115.909 414.348,115.493 414.115,115.192C413.836,114.831 413.538,114.484 413.225,114.151C411.122,111.921 408.259,110.543 405.234,110.043C391.611,107.794 378.121,109.791 368.789,112.777C368.556,112.852 368.401,113.077 368.21,113.231C367.871,113.504 367.82,114.008 368.088,114.352C371.197,118.341 374.432,122.259 378.376,125.408C382.922,129.038 388.576,131.602 394.388,131.348C399.708,131.116 404.771,128.502 408.509,124.708C409.757,123.442 410.864,122.052 411.842,120.572" style="fill:rgb(53,33,32);fill-rule:nonzero;"/>
                <clipPath id="_clip6">
                    <path d="M368.789,112.776C368.555,112.851 368.401,113.077 368.21,113.231C367.87,113.504 367.819,114.009 368.087,114.351C371.197,118.34 374.431,122.259 378.376,125.408C382.922,129.038 388.576,131.602 394.387,131.348C399.708,131.116 404.771,128.501 408.509,124.708C409.757,123.441 410.864,122.052 411.842,120.571C412.747,119.201 413.54,117.753 414.229,116.255C414.389,115.908 414.348,115.493 414.115,115.192C413.835,114.831 413.538,114.484 413.225,114.151C411.122,111.92 408.258,110.543 405.234,110.043C401.158,109.37 397.092,109.077 393.148,109.077C383.909,109.077 375.329,110.684 368.789,112.776Z"/>
                </clipPath>
                <g clip-path="url(#_clip6)">
                    <path d="M398.954,132.333C397.2,126.587 392.673,121.726 387.027,119.644C381.018,117.429 373.929,118.431 368.76,122.209C372.32,127.47 377.728,131.459 383.815,133.262C388.808,134.741 394.218,134.737 399.227,133.324C399.145,132.991 399.054,132.661 398.954,132.333Z" style="fill:rgb(190,30,45);fill-rule:nonzero;stroke-width:2.13px;stroke:rgb(114,9,22);"/>
                </g>
                <path d="M411.842,120.572C412.747,119.202 413.54,117.754 414.229,116.255C414.389,115.909 414.348,115.493 414.115,115.192C413.836,114.831 413.538,114.484 413.225,114.151C411.122,111.921 408.259,110.543 405.234,110.043C391.611,107.794 378.121,109.791 368.789,112.777C368.556,112.852 368.401,113.077 368.21,113.231C367.871,113.504 367.82,114.008 368.088,114.352C371.197,118.341 374.432,122.259 378.376,125.408C382.922,129.038 388.576,131.602 394.388,131.348C399.708,131.116 404.771,128.502 408.509,124.708C409.757,123.442 410.864,122.052 411.842,120.572Z" style="fill:none;stroke-width:2.13px;stroke:rgb(194,152,107);"/>
                <path d="M408.957,59.313C412.839,61.842 415.854,65.678 417.392,70.048" style="fill:rgb(240,202,162);fill-rule:nonzero;"/>
                <path d="M408.452,60.176C412.131,62.657 414.887,66.151 416.427,70.313C416.87,71.51 418.804,70.993 418.356,69.782C416.624,65.103 413.599,61.239 409.461,58.449C408.391,57.727 407.389,59.459 408.452,60.176" style="fill:rgb(194,152,107);fill-rule:nonzero;"/>
                <path d="M316.336,148.925C317.041,146.305 319.73,144.397 322.22,143.15C324.841,141.837 327.869,141.596 330.697,142.363L354.872,148.925L376.505,152.625C381.884,153.545 386.34,157.312 388.143,162.463L390.086,168.015C400.586,181.64 406.042,199.056 405.254,216.232C419.09,236.525 425.34,261.896 422.419,286.292" style="fill:rgb(189,224,221);fill-rule:nonzero;"/>
                <path d="M316.336,148.925C316.525,148.067 316.921,147.238 317.449,146.516C317.978,145.791 318.615,145.143 319.304,144.566C319.995,143.988 320.739,143.477 321.513,143.018C321.906,142.788 322.294,142.567 322.707,142.374C323.134,142.166 323.555,142.005 323.994,141.851C325.745,141.258 327.643,141.061 329.507,141.277C329.975,141.325 330.437,141.41 330.899,141.507L332.191,141.792L334.771,142.363L339.93,143.512C341.644,143.914 343.321,144.453 345.022,144.904L355.212,147.67L355.091,147.644L376.682,151.337C377.231,151.455 377.566,151.496 378.101,151.649C378.607,151.777 379.091,151.928 379.549,152.101C380.482,152.437 381.385,152.858 382.236,153.367C383.953,154.363 385.463,155.696 386.712,157.236C387.314,158.023 387.891,158.835 388.344,159.719C388.814,160.576 389.205,161.545 389.504,162.416L391.313,167.585L391.115,167.221L393.059,169.867L394.881,172.597L396.579,175.405L398.151,178.285L399.595,181.23L400.909,184.236L402.093,187.295L403.143,190.402L404.059,193.551L404.838,196.736L405.48,199.953L405.981,203.195L406.341,206.455L406.558,209.729L406.629,213.01L406.553,216.292L406.328,215.5L408.866,219.414L411.221,223.439L413.391,227.566L415.374,231.786L417.166,236.09L418.767,240.468L420.173,244.912L421.383,249.414L422.394,253.964L423.234,258.55C423.417,260.095 423.512,261.65 423.653,263.194L423.837,267.846L423.813,272.492L423.579,277.123L423.115,281.727L422.419,286.292L422.604,281.69L422.597,277.097L422.398,272.519L421.993,267.964L421.385,263.441C421.126,261.942 420.822,260.454 420.605,258.955L419.844,254.472L418.858,250.034L417.678,245.642L416.306,241.307L414.745,237.036L412.996,232.839L411.063,228.724L408.948,224.701L406.653,220.778L404.18,216.965L403.946,216.603L403.956,216.173L404.029,213.009L403.96,209.844L403.752,206.684L403.404,203.536L402.919,200.406L402.3,197.3L401.547,194.223L400.662,191.181L399.648,188.18L398.505,185.226L397.236,182.324L395.842,179.48L394.325,176.7L392.687,173.991L390.93,171.358L389.056,168.808L388.922,168.627L388.859,168.444L387.05,163.275C386.755,162.421 386.458,161.694 386.052,160.947C385.674,160.203 385.185,159.523 384.682,158.86C383.63,157.567 382.363,156.444 380.918,155.608C380.203,155.179 379.444,154.826 378.66,154.544C378.264,154.394 377.876,154.276 377.498,154.178C377.158,154.067 376.585,153.978 376.244,153.9L354.653,150.206L354.591,150.196L354.531,150.18L344.341,147.414C342.645,146.944 340.926,146.56 339.244,146.04L334.212,144.423L331.697,143.611L330.442,143.206C330.051,143.085 329.655,142.971 329.252,142.891C327.642,142.547 325.941,142.556 324.31,142.941C323.907,143.04 323.492,143.156 323.112,143.299C322.711,143.441 322.313,143.62 321.928,143.799C321.151,144.172 320.39,144.582 319.667,145.052C318.242,145.995 316.913,147.236 316.336,148.925" style="fill:rgb(135,160,158);fill-rule:nonzero;"/>
                <clipPath id="_clip7">
                    <rect x="384.024" y="185.664" width="12.779" height="12.779"/>
                </clipPath>
                <g clip-path="url(#_clip7)">
                    <path d="M395.605,192.054C395.605,194.921 393.28,197.245 390.414,197.245C387.546,197.245 385.221,194.921 385.221,192.054C385.221,189.187 387.546,186.863 390.414,186.863C393.28,186.863 395.605,189.187 395.605,192.054" style="fill:rgb(130,131,136);fill-rule:nonzero;"/>
                    <path d="M395.605,192.054C395.605,194.921 393.28,197.245 390.414,197.245C387.546,197.245 385.221,194.921 385.221,192.054C385.221,189.187 387.546,186.863 390.414,186.863C393.28,186.863 395.605,189.187 395.605,192.054Z" style="fill:none;stroke-width:2.56px;stroke:rgb(73,75,81);"/>
                </g>
                <clipPath id="_clip8">
                    <rect x="390.969" y="218.21" width="12.779" height="12.779"/>
                </clipPath>
                <g clip-path="url(#_clip8)">
                    <path d="M402.55,224.6C402.55,227.466 400.226,229.791 397.359,229.791C394.491,229.791 392.167,227.466 392.167,224.6C392.167,221.733 394.491,219.409 397.359,219.409C400.226,219.409 402.55,221.733 402.55,224.6" style="fill:rgb(130,131,136);fill-rule:nonzero;"/>
                    <path d="M402.55,224.6C402.55,227.466 400.226,229.791 397.359,229.791C394.491,229.791 392.167,227.466 392.167,224.6C392.167,221.733 394.491,219.409 397.359,219.409C400.226,219.409 402.55,221.733 402.55,224.6Z" style="fill:none;stroke-width:2.56px;stroke:rgb(73,75,81);"/>
                </g>
                <clipPath id="_clip9">
                    <rect x="400.154" y="249.002" width="12.779" height="12.779"/>
                </clipPath>
                <g clip-path="url(#_clip9)">
                    <path d="M411.735,255.391C411.735,258.258 409.411,260.582 406.544,260.582C403.676,260.582 401.352,258.258 401.352,255.391C401.352,252.525 403.676,250.2 406.544,250.2C409.411,250.2 411.735,252.525 411.735,255.391" style="fill:rgb(130,131,136);fill-rule:nonzero;"/>
                    <path d="M411.735,255.391C411.735,258.258 409.411,260.582 406.544,260.582C403.676,260.582 401.352,258.258 401.352,255.391C401.352,252.525 403.676,250.2 406.544,250.2C409.411,250.2 411.735,252.525 411.735,255.391Z" style="fill:none;stroke-width:2.56px;stroke:rgb(73,75,81);"/>
                </g>
                <path d="M359.265,171.288C342.493,143.734 307.751,183.268 307.751,183.268C284.39,192.253 267.019,246.185 267.019,246.185L287.385,261.138L305.954,261.138L310.68,254.687C314.823,249.033 318.41,242.991 321.393,236.647L324.523,229.99L329.914,225.797C332.159,228.043 335.378,229.017 338.492,228.395L342.841,227.525C348.987,226.295 354.452,222.844 358.216,217.832C360.428,214.888 363.002,211.145 365.654,206.629" style="fill:rgb(189,224,221);fill-rule:nonzero;"/>
                <path d="M359.265,171.288L358.099,169.726L357.514,168.948L356.853,168.24C356.401,167.781 356.003,167.277 355.515,166.861L354.047,165.626C352.997,164.907 351.955,164.178 350.785,163.697C350.497,163.572 350.226,163.408 349.925,163.314L349.028,163.032L348.134,162.749L347.21,162.586C346.597,162.471 345.986,162.358 345.357,162.358C344.734,162.335 344.117,162.263 343.491,162.335C342.245,162.371 341.008,162.578 339.786,162.827L337.969,163.297L336.188,163.909C335.018,164.37 333.855,164.848 332.732,165.429C332.162,165.697 331.604,165.991 331.056,166.31C330.508,166.626 329.938,166.895 329.401,167.235C328.295,167.85 327.204,168.497 326.124,169.169C325.053,169.857 323.998,170.572 322.969,171.327C321.928,172.065 320.921,172.854 319.918,173.648C317.918,175.242 315.982,176.925 314.111,178.678C313.178,179.557 312.252,180.445 311.353,181.357C310.456,182.263 309.556,183.201 308.727,184.126L308.538,184.338L308.217,184.481L306.154,185.406L304.171,186.535L302.276,187.837C301.661,188.298 301.07,188.799 300.465,189.277C299.295,190.288 298.145,191.334 297.074,192.471C296.521,193.019 295.991,193.593 295.481,194.189C294.968,194.78 294.431,195.348 293.948,195.969L292.471,197.803L291.056,199.693C290.141,200.975 289.217,202.252 288.366,203.584C287.487,204.895 286.663,206.246 285.835,207.593C285.033,208.958 284.218,210.314 283.46,211.706C280.367,217.239 277.628,222.98 275.095,228.809C273.835,231.726 272.632,234.67 271.486,237.635C270.344,240.596 269.244,243.598 268.256,246.584L267.788,245.137L288.154,260.09L287.385,259.838L305.954,259.838L304.905,260.37L310.268,253.038C312.004,250.612 313.658,248.103 315.19,245.533C316.725,242.962 318.159,240.33 319.473,237.64C320.773,234.948 322.055,232.168 323.346,229.437L323.48,229.154L323.725,228.964L329.116,224.771L328.995,226.716L330.833,224.878C332.001,226.041 333.52,226.844 335.143,227.141C335.952,227.299 336.786,227.295 337.6,227.196C337.805,227.178 338.005,227.126 338.208,227.097L338.906,226.956C339.372,226.856 339.844,226.784 340.313,226.697L343.11,226.225C344.071,226.058 344.864,225.846 345.77,225.588C346.641,225.315 347.507,225.013 348.347,224.644C349.196,224.293 350.01,223.864 350.815,223.417C351.612,222.955 352.393,222.46 353.137,221.909C353.89,221.37 354.598,220.77 355.287,220.146C355.97,219.516 356.622,218.85 357.232,218.143C357.841,217.444 358.434,216.684 359.018,215.94C361.347,212.934 363.586,209.842 365.654,206.629C363.857,209.999 361.932,213.316 359.791,216.499C359.252,217.298 358.727,218.085 358.137,218.872C357.555,219.656 356.923,220.405 356.253,221.12C355.577,221.83 354.873,222.519 354.117,223.149C353.371,223.792 352.578,224.381 351.761,224.937C350.935,225.479 350.092,226.004 349.206,226.449C348.328,226.914 347.415,227.311 346.489,227.677C345.583,228.015 344.547,228.361 343.639,228.585C342.66,228.84 341.769,229.043 340.826,229.261C340.36,229.361 339.896,229.476 339.427,229.563L338.721,229.701C338.452,229.743 338.185,229.797 337.914,229.82C336.833,229.938 335.738,229.894 334.671,229.697C332.535,229.308 330.532,228.25 328.995,226.717L330.833,224.878L330.712,226.824L325.321,231.016L325.699,230.543C324.4,233.291 323.143,236.017 321.808,238.783C320.462,241.539 318.993,244.234 317.422,246.867C315.85,249.503 314.165,252.06 312.375,254.562L307.003,261.907L306.614,262.438L305.954,262.438L287.385,262.438L286.959,262.438L286.615,262.186L266.249,247.233L265.488,246.674L265.781,245.787C266.801,242.704 267.903,239.702 269.06,236.699C270.218,233.702 271.434,230.727 272.709,227.777C275.27,221.882 278.043,216.069 281.189,210.441C281.959,209.026 282.791,207.642 283.608,206.251C284.453,204.876 285.295,203.498 286.195,202.153C287.066,200.792 288.015,199.477 288.957,198.159L290.415,196.211L291.946,194.311C292.444,193.67 293.005,193.074 293.54,192.459C294.07,191.84 294.624,191.24 295.206,190.663C296.327,189.473 297.544,188.363 298.791,187.288C299.438,186.774 300.069,186.241 300.732,185.745L302.789,184.333L304.973,183.09L307.284,182.055L306.774,182.41C307.678,181.401 308.577,180.466 309.506,179.527C310.429,178.59 311.377,177.681 312.334,176.78C314.252,174.983 316.237,173.257 318.296,171.616C319.329,170.798 320.366,169.985 321.443,169.222C322.503,168.435 323.611,167.712 324.707,166.97C325.818,166.25 326.94,165.542 328.11,164.905C328.688,164.579 329.296,164.299 329.898,164.014C330.497,163.723 331.109,163.457 331.734,163.216C332.961,162.692 334.239,162.272 335.516,161.876L337.464,161.365L339.451,161.003C340.788,160.83 342.133,160.708 343.487,160.768C344.161,160.743 344.834,160.866 345.504,160.941C346.178,160.994 346.834,161.162 347.488,161.336L348.466,161.586L349.406,161.959L350.341,162.333C350.652,162.457 350.931,162.651 351.227,162.807C352.424,163.414 353.476,164.245 354.489,165.09L355.885,166.494C356.345,166.964 356.713,167.521 357.127,168.027L357.729,168.801L358.243,169.628L359.265,171.288Z" style="fill:rgb(135,160,158);fill-rule:nonzero;"/>
                <path d="M353.275,187.461L353.275,191.049C353.275,197.665 351.582,204.203 348.159,209.865C344.648,215.671 338.942,222.13 329.914,225.797" style="fill:rgb(189,224,221);fill-rule:nonzero;"/>
                <path d="M353.405,187.461C353.405,187.461 353.441,188.211 353.505,189.523C353.569,190.827 353.677,192.719 353.535,194.998C353.396,197.27 353.034,199.93 352.229,202.69C351.453,205.452 350.254,208.319 348.691,210.976C347.936,212.289 347.083,213.614 346.207,214.841C345.321,216.077 344.383,217.254 343.371,218.301C342.35,219.336 341.304,220.285 340.225,221.071C339.172,221.889 338.106,222.567 337.098,223.14C336.093,223.718 335.136,224.182 334.27,224.543C333.414,224.923 332.632,225.172 331.998,225.385C331.36,225.589 330.844,225.705 330.497,225.792C330.149,225.874 329.963,225.918 329.963,225.918L329.865,225.677C329.865,225.677 330.501,225.248 331.6,224.542C332.137,224.164 332.807,223.752 333.532,223.214C334.274,222.707 335.074,222.087 335.937,221.414C336.364,221.071 336.815,220.725 337.251,220.329C337.707,219.957 338.167,219.562 338.621,219.135C339.541,218.294 340.481,217.381 341.43,216.412C342.388,215.452 343.341,214.42 344.287,213.342C345.239,212.251 346.086,211.1 346.926,209.874C348.567,207.46 349.877,204.829 350.794,202.23C351.718,199.635 352.293,197.103 352.614,194.904C352.943,192.706 352.973,190.839 353.045,189.523C353.109,188.211 353.145,187.461 353.145,187.461L353.405,187.461Z" style="fill:rgb(135,160,158);fill-rule:nonzero;"/>
                <path d="M314.539,202.436L313.034,207.932C311.67,212.911 311.002,218.048 311.009,223.21C311.024,233.27 310.247,250.933 304.955,257.787" style="fill:rgb(189,224,221);fill-rule:nonzero;"/>
                <path d="M314.665,202.47C314.665,202.47 314.466,203.334 314.118,204.846C313.794,206.361 313.199,208.512 312.74,211.1C312.279,213.697 311.936,216.757 311.847,220.036C311.794,221.673 311.859,223.367 311.897,225.12C311.924,226.877 311.94,228.661 311.914,230.444C311.904,232.228 311.856,234.013 311.79,235.774C311.742,237.536 311.597,239.267 311.425,240.943C311.222,242.615 310.964,244.228 310.61,245.741C310.282,247.257 309.909,248.682 309.461,249.972C309.058,251.27 308.547,252.427 308.089,253.435C307.831,253.929 307.59,254.391 307.367,254.818C307.133,255.239 306.861,255.6 306.648,255.936C306.231,256.614 305.776,257.069 305.496,257.387C305.211,257.699 305.058,257.866 305.058,257.866L304.853,257.707C304.853,257.707 304.947,257.505 305.122,257.127C305.29,256.746 305.587,256.233 305.824,255.499C306.112,254.798 306.377,253.913 306.666,252.9C306.929,251.876 307.214,250.724 307.449,249.442C307.588,248.808 307.703,248.14 307.801,247.442C307.925,246.751 308.046,246.037 308.136,245.292C308.339,243.811 308.544,242.244 308.737,240.617C308.971,238.996 309.156,237.308 309.362,235.591C309.57,233.874 309.709,232.119 309.836,230.363C309.958,228.605 310.039,226.844 310.108,225.113C310.166,223.379 310.195,221.637 310.342,219.956C310.598,216.598 311.18,213.505 311.834,210.906C312.497,208.296 313.217,206.21 313.674,204.725C314.145,203.246 314.414,202.401 314.414,202.401L314.665,202.47Z" style="fill:rgb(135,160,158);fill-rule:nonzero;"/>
                <path d="M270.659,236.17C270.659,236.17 287.385,199.64 302.959,192.053" style="fill:rgb(189,224,221);fill-rule:nonzero;"/>
                <path d="M270.541,236.116C270.541,236.116 271.843,232.897 274.103,228.205C276.329,223.495 279.577,217.344 283.251,211.41C284.157,209.919 285.114,208.457 286.054,207.012C286.994,205.567 288.001,204.197 288.997,202.884C291.054,200.308 293.236,198.093 295.284,196.394C296.298,195.532 297.303,194.827 298.198,194.221C298.661,193.94 299.095,193.676 299.497,193.433C299.9,193.196 300.301,193.022 300.645,192.844C301.33,192.484 301.919,192.293 302.306,192.148C302.695,192.01 302.902,191.936 302.902,191.936L303.016,192.17C303.016,192.17 302.843,192.303 302.519,192.552C302.199,192.805 301.709,193.129 301.146,193.63C300.562,194.095 299.896,194.713 299.139,195.415C298.396,196.139 297.578,196.966 296.716,197.903C295.857,198.84 294.951,199.88 294.013,200.998C293.092,202.134 292.121,203.331 291.116,204.57C290.097,205.803 289.081,207.11 288.033,208.433C286.995,209.764 285.979,211.15 284.988,212.555C281.028,218.185 277.51,224.14 274.924,228.634C272.359,233.143 270.777,236.225 270.777,236.225L270.541,236.116Z" style="fill:rgb(135,160,158);fill-rule:nonzero;"/>
                <path d="M320.929,206.629L321.187,223.335C321.322,232.039 319.04,240.61 314.595,248.095L310.68,254.687" style="fill:rgb(189,224,221);fill-rule:nonzero;"/>
                <path d="M321.059,206.627C321.059,206.627 321.241,209.77 321.514,214.484C321.644,216.841 321.802,219.591 321.929,222.538C321.955,223.28 321.981,224.034 322.008,224.797C322.008,225.563 322.019,226.367 321.982,227.151C321.942,228.73 321.785,230.329 321.582,231.924C321.386,233.522 321.068,235.101 320.737,236.656C320.39,238.208 319.951,239.715 319.433,241.141C318.883,242.554 318.297,243.901 317.616,245.114C316.971,246.343 316.269,247.454 315.588,248.452C312.9,252.353 310.792,254.754 310.792,254.754L310.568,254.621C310.568,254.621 310.839,253.867 311.383,252.59C311.918,251.309 312.752,249.511 313.796,247.398C314.295,246.354 314.837,245.229 315.353,244.018C315.874,242.809 316.383,241.521 316.899,240.185C317.408,238.847 317.92,237.457 318.385,236.021C318.836,234.581 319.229,233.093 319.53,231.584C319.818,230.074 320.065,228.549 320.197,227.036C320.28,226.276 320.314,225.543 320.361,224.794C320.382,224.039 320.402,223.294 320.422,222.562C320.458,219.612 320.53,216.858 320.588,214.498C320.715,209.778 320.799,206.631 320.799,206.631L321.059,206.627Z" style="fill:rgb(135,160,158);fill-rule:nonzero;"/>
                <path d="M278.63,230.989C278.63,230.989 280.796,244.642 295.172,254.688" style="fill:rgb(189,224,221);fill-rule:nonzero;"/>
                <path d="M278.758,230.966C278.758,230.966 279.218,232.754 280.354,235.256C280.626,235.884 280.976,236.542 281.326,237.24C281.72,237.919 282.068,238.664 282.53,239.382C282.75,239.745 282.974,240.115 283.201,240.489C283.447,240.85 283.696,241.216 283.947,241.585C284.427,242.334 285.009,243.031 285.549,243.751C286.105,244.461 286.726,245.119 287.312,245.779C287.929,246.415 288.559,247.015 289.116,247.64C289.683,248.258 290.261,248.826 290.751,249.427C290.999,249.726 291.248,250.009 291.509,250.262C291.756,250.533 291.994,250.795 292.222,251.046C292.689,251.541 293.065,252.061 293.463,252.451C293.843,252.863 294.171,253.232 294.434,253.549C294.964,254.178 295.246,254.581 295.246,254.581L295.097,254.794C295.097,254.794 294.641,254.641 293.879,254.298C293.496,254.129 293.039,253.908 292.519,253.643C291.991,253.389 291.457,253.016 290.862,252.62C290.278,252.212 289.612,251.799 289.011,251.243C288.388,250.713 287.739,250.137 287.131,249.483C286.552,248.801 285.963,248.087 285.425,247.319C284.917,246.526 284.34,245.773 283.853,244.956C283.365,244.141 282.841,243.354 282.421,242.52C282.202,242.11 281.984,241.704 281.769,241.302C281.575,240.89 281.384,240.483 281.196,240.082C280.436,238.486 279.891,236.927 279.486,235.58C278.66,232.888 278.502,231.011 278.502,231.011L278.758,230.966Z" style="fill:rgb(135,160,158);fill-rule:nonzero;"/>
                <clipPath id="_clip10">
                    <rect x="255.588" y="231.396" width="60.047" height="47.99"/>
                </clipPath>
                <g clip-path="url(#_clip10)">
                    <path d="M305.942,274.222C304.783,276.531 302.447,277.955 300.026,277.819C295.869,277.586 288.533,276.171 277.513,270.646C266.689,265.22 261.234,260.304 258.563,257.133C256.943,255.212 256.697,252.371 257.898,249.976L265.618,234.577C266.521,232.773 268.825,232.389 270.034,233.845C272.659,237.01 278.113,241.997 289.111,247.509C300.219,253.078 307.583,254.471 311.723,254.688C313.596,254.785 314.649,256.853 313.753,258.639L305.942,274.222Z" style="fill:rgb(180,211,207);fill-rule:nonzero;stroke-width:3.32px;stroke:rgb(135,160,158);"/>
                </g>
                <path d="M421.504,63.102C421.504,63.102 421.874,63.481 422.451,64.201C422.735,64.565 423.077,65.008 423.442,65.538C423.822,66.058 424.201,66.677 424.627,67.345C425.025,68.028 425.475,68.761 425.884,69.572C426.327,70.367 426.713,71.243 427.13,72.143C427.54,73.046 427.903,74.004 428.294,74.97C428.627,75.955 429.013,76.944 429.314,77.958C429.606,78.974 429.962,79.977 430.198,80.993C430.444,82.005 430.715,82.998 430.893,83.975C431.042,84.957 431.21,85.902 431.325,86.805C431.415,87.71 431.476,88.569 431.529,89.36C431.594,90.15 431.608,90.877 431.599,91.523C431.603,92.167 431.596,92.728 431.577,93.191C431.556,94.115 431.52,94.641 431.52,94.641L431.395,94.647C431.395,94.647 431.287,94.127 431.138,93.218C431.055,92.765 430.971,92.214 430.886,91.582C430.814,90.949 430.669,90.242 430.535,89.471C430.409,88.699 430.273,87.863 430.129,86.979C429.942,86.103 429.793,85.173 429.613,84.215C429.47,83.25 429.228,82.272 429.052,81.263C428.878,80.252 428.584,79.253 428.354,78.237C428.103,77.227 427.767,76.241 427.482,75.255C427.141,74.29 426.825,73.329 426.462,72.423C425.745,70.605 424.975,68.949 424.247,67.562C423.866,66.879 423.528,66.243 423.183,65.708C422.854,65.163 422.542,64.704 422.282,64.328C421.754,63.581 421.412,63.186 421.412,63.186L421.504,63.102Z" style="fill:rgb(86,64,48);fill-rule:nonzero;"/>
                <path d="M419.657,64.269L415.106,56.895C410.264,49.051 402.8,43.124 393.997,40.391C378.215,35.492 351.178,32.024 319.391,48.401C317.718,49.262 316.388,50.712 315.765,52.487C315.398,53.535 315.458,54.144 315.458,54.144C313.551,54.382 311.458,54.144 309.484,56.325C299.783,67.042 281.924,107.257 316.729,130.437C319.291,132.144 313.35,110.464 321.971,89.584C321.971,89.584 331.1,80.029 326.458,58.811C326.458,58.811 349.864,60.5 383.647,54.717C393.195,53.083 406.378,50.654 419.028,64.745C419.349,65.103 419.909,64.678 419.657,64.269Z" style="fill:rgb(148,114,86);fill-rule:nonzero;stroke-width:3.2px;stroke:rgb(86,64,48);"/>
                <path d="M326.962,51.024C326.962,51.024 332.014,51.088 339.58,50.799C341.471,50.721 343.519,50.63 345.682,50.499C347.844,50.363 350.126,50.241 352.478,50.039C354.833,49.859 357.261,49.624 359.719,49.336C362.178,49.056 364.668,48.713 367.138,48.295C369.624,47.883 372.025,47.354 374.467,46.787C376.871,46.205 379.327,45.717 381.682,45.324C384.048,44.953 386.364,44.697 388.582,44.628C390.793,44.511 392.914,44.623 394.852,44.865C396.795,45.083 398.547,45.587 400.04,46.121C401.539,46.661 402.749,47.348 403.705,47.944C404.65,48.56 405.369,49.066 405.822,49.462C406.282,49.843 406.528,50.046 406.528,50.046L406.388,50.242C406.388,50.242 406.11,50.092 405.589,49.811C405.073,49.526 404.306,49.127 403.31,48.69C402.802,48.494 402.259,48.238 401.633,48.055C401.326,47.951 401.006,47.844 400.675,47.733C400.337,47.645 399.986,47.555 399.624,47.462C398.172,47.122 396.517,46.84 394.677,46.777C392.842,46.711 390.846,46.734 388.727,46.945C387.67,47.022 386.58,47.185 385.469,47.3C384.359,47.48 383.219,47.585 382.065,47.795C379.739,48.12 377.384,48.546 374.922,48.989C372.493,49.417 369.94,49.89 367.424,50.194C364.9,50.529 362.371,50.786 359.88,50.98C357.39,51.182 354.938,51.331 352.564,51.427C350.191,51.538 347.897,51.605 345.722,51.628C343.546,51.657 341.49,51.65 339.593,51.639C332.003,51.568 326.954,51.264 326.954,51.264L326.962,51.024Z" style="fill:rgb(86,64,48);fill-rule:nonzero;"/>
                <path d="M342.136,44.288C342.136,44.288 345.285,44.034 349.98,43.466C351.151,43.309 352.42,43.138 353.762,42.958C355.1,42.76 356.513,42.569 357.966,42.322C360.874,41.846 363.96,41.257 366.983,40.489C368.508,40.101 369.952,39.656 371.45,39.167C372.909,38.672 374.437,38.245 375.892,37.882C377.36,37.544 378.809,37.286 380.209,37.166C381.601,37.011 382.953,37.01 384.193,37.106C385.436,37.183 386.572,37.459 387.536,37.761C388.505,38.07 389.291,38.48 389.909,38.838C390.522,39.209 390.978,39.529 391.269,39.773C391.563,40.01 391.719,40.137 391.719,40.137L391.594,40.341C391.594,40.341 391.409,40.271 391.061,40.139C390.718,40.002 390.207,39.824 389.563,39.625C388.912,39.445 388.13,39.232 387.217,39.128C386.307,39.017 385.283,38.955 384.155,39.025C383.03,39.097 381.811,39.225 380.518,39.467C379.229,39.705 377.864,39.988 376.45,40.319C375.019,40.613 373.588,40.97 372.06,41.331C370.565,41.68 368.966,42.08 367.404,42.362C364.263,42.971 361.11,43.388 358.151,43.701C355.193,44.022 352.425,44.198 350.053,44.317C345.31,44.56 342.145,44.528 342.145,44.528L342.136,44.288Z" style="fill:rgb(86,64,48);fill-rule:nonzero;"/>
                <path d="M308.555,66.215C308.555,66.215 307.975,67.034 307.117,68.572C306.257,70.105 305.121,72.353 304.054,75.164C302.969,77.965 302.008,81.345 301.372,85.018C301.097,86.861 300.854,88.773 300.814,90.724C300.748,91.697 300.814,92.68 300.807,93.663C300.881,94.645 300.905,95.633 301.034,96.611C301.163,97.589 301.268,98.569 301.48,99.528L301.761,100.966C301.887,101.437 302.011,101.906 302.136,102.374C302.638,104.24 303.251,106.041 303.944,107.743C304.616,109.452 305.335,111.08 306.098,112.591C306.284,112.971 306.467,113.347 306.647,113.717C306.852,114.074 307.053,114.427 307.251,114.773C307.647,115.466 307.988,116.165 308.391,116.789C309.201,118.035 309.871,119.237 310.597,120.214C311.294,121.211 311.865,122.119 312.405,122.813C313.464,124.218 314.045,125.06 314.045,125.06L313.872,125.227C313.872,125.227 313.093,124.578 311.773,123.372C311.082,122.796 310.356,121.992 309.497,121.085C308.617,120.193 307.761,119.072 306.8,117.863C306.319,117.257 305.894,116.573 305.412,115.891C305.182,115.543 304.947,115.189 304.709,114.829C304.493,114.455 304.275,114.075 304.053,113.69C303.611,112.919 303.138,112.134 302.763,111.276C302.371,110.426 301.935,109.572 301.615,108.651C300.941,106.826 300.332,104.9 299.948,102.893C299.848,102.393 299.748,101.891 299.648,101.387L299.431,99.858C299.262,98.841 299.203,97.807 299.121,96.777C299.033,95.748 299.052,94.714 299.022,93.688C299.073,92.663 299.053,91.639 299.165,90.631C299.298,88.609 299.636,86.644 300.005,84.761C300.43,82.888 300.876,81.086 301.467,79.432C302.026,77.768 302.648,76.232 303.278,74.841C304.531,72.055 305.812,69.857 306.77,68.364C307.724,66.868 308.362,66.073 308.362,66.073L308.555,66.215Z" style="fill:rgb(86,64,48);fill-rule:nonzero;"/>
                <path d="M316.553,73.217C316.553,73.217 314.752,75.765 312.83,79.984C312.349,81.037 311.876,82.198 311.417,83.437C310.975,84.682 310.515,85.996 310.147,87.384C309.75,88.764 309.458,90.218 309.195,91.693C308.981,93.176 308.786,94.686 308.755,96.2C308.69,97.712 308.771,99.221 308.92,100.691C309.026,101.421 309.132,102.145 309.236,102.86C309.387,103.566 309.494,104.27 309.671,104.947C309.974,106.313 310.346,107.611 310.722,108.842C310.936,109.451 311.143,110.043 311.343,110.615C311.573,111.18 311.795,111.726 312.008,112.25C312.471,113.282 312.904,114.238 313.335,115.064C313.787,115.876 314.133,116.627 314.487,117.202C315.178,118.364 315.55,119.067 315.55,119.067L315.366,119.221C315.366,119.221 314.78,118.699 313.796,117.716C313.292,117.234 312.783,116.565 312.154,115.822C311.825,115.459 311.562,115.014 311.243,114.57C310.943,114.114 310.579,113.66 310.3,113.127C310.004,112.602 309.696,112.054 309.377,111.488C309.108,110.894 308.831,110.28 308.545,109.648C308.01,108.368 307.563,106.966 307.229,105.485C307.067,104.744 306.983,103.976 306.855,103.207C306.764,102.434 306.722,101.645 306.677,100.855C306.654,99.27 306.659,97.663 306.839,96.074C306.966,94.48 307.26,92.911 307.573,91.38C307.935,89.86 308.326,88.375 308.817,86.976C309.748,84.162 310.943,81.669 312.065,79.603C314.317,75.462 316.362,73.071 316.362,73.071L316.553,73.217Z" style="fill:rgb(86,64,48);fill-rule:nonzero;"/>
                <path d="M318.957,117.519C313.409,118.466 307.451,116.554 303.49,112.556C299.528,108.559 297.671,102.583 298.669,97.044C299.361,93.202 301.421,89.56 304.572,87.256C307.724,84.953 311.978,84.105 315.681,85.342C319.383,86.579 322.35,89.992 322.75,93.875" style="fill:rgb(240,202,162);fill-rule:nonzero;stroke-width:2.13px;stroke:rgb(194,152,107);"/>
                <path d="M366.905,59.369C368.71,54.294 373.264,50.622 378.624,49.992C379.887,49.844 379.902,47.842 378.624,47.992C372.315,48.733 367.108,52.842 364.976,58.837C364.544,60.052 366.476,60.575 366.905,59.369" style="fill:rgb(194,152,107);fill-rule:nonzero;"/>
            </g>
        </g>
    </g>
</svg>
