<?xml version="1.0" encoding="utf-8"?>
<!-- Generator: Adobe Illustrator 18.1.1, SVG Export Plug-In . SVG Version: 6.00 Build 0)  -->
<svg version="1.1" id="Layer_1" xmlns="http://www.w3.org/2000/svg" xmlns:xlink="http://www.w3.org/1999/xlink" x="0px" y="0px"
	 width="500px" height="500px" viewBox="0 0 500 500" enable-background="new 0 0 500 500" xml:space="preserve">
<symbol  id="New_Symbol_13" viewBox="-47.1 -30.8 94.2 61.6">
	<g>
		<path fill="#E6E7E8" d="M-47.1,0.8c0,0,0.3,0.2,0.8,0.6c0.5,0.4,1.2,0.9,2.2,1.6c0.9,0.7,2.1,1.5,3.4,2.4c1.3,0.9,2.9,1.9,4.6,3
			c1.7,1,3.5,2.2,5.5,3.3c1,0.6,2,1.1,3.1,1.7c1.1,0.5,2.2,1.1,3.3,1.7c1.1,0.6,2.3,1.1,3.4,1.7c1.2,0.6,2.3,1.1,3.5,1.6
			c1.2,0.5,2.4,1.1,3.6,1.6c1.2,0.5,2.5,1,3.7,1.5c1.2,0.5,2.5,1,3.7,1.4c1.2,0.5,2.5,0.9,3.7,1.4c2.5,0.8,4.9,1.6,7.3,2.3
			c1.2,0.3,2.4,0.6,3.6,0.9c0.6,0.1,1.2,0.3,1.7,0.4c0.6,0.1,1.1,0.2,1.7,0.4c2.2,0.4,4.3,0.9,6.3,1.2c2,0.3,3.8,0.6,5.4,0.8
			c1.6,0.2,3,0.3,4.2,0.4c2.3,0.2,3.6,0.3,3.6,0.3l0-0.2c0,0-1.3-0.3-3.6-0.8c-1.1-0.3-2.5-0.5-4.1-0.9c-1.6-0.4-3.3-0.8-5.3-1.2
			c-1-0.2-2-0.5-3-0.7c-1-0.3-2.1-0.5-3.2-0.8C10,25.7,7.7,25,5.3,24.4C2.9,23.8,0.5,23-2,22.3c-1.2-0.4-2.5-0.8-3.7-1.2
			c-1.3-0.4-2.5-0.8-3.7-1.3c-1.2-0.5-2.5-0.9-3.7-1.4c-1.2-0.5-2.4-1-3.6-1.5c-1.2-0.5-2.4-1-3.5-1.5c-1.2-0.5-2.3-1-3.4-1.5
			c-1.1-0.5-2.2-1.1-3.3-1.6c-1.1-0.5-2.1-1.1-3.1-1.6c-2-1-3.9-2.1-5.6-3c-1.7-1-3.3-1.9-4.6-2.8C-41.9,4.1-43,3.3-44,2.7
			c-1-0.6-1.7-1.2-2.2-1.5C-46.7,0.9-47,0.7-47,0.7L-47.1,0.8z"/>
	</g>
	<g>
		<path fill="#E6E7E8" d="M-44.5-0.6c0,0,1.2,0.8,3.5,2c1.1,0.6,2.5,1.3,4.1,2.1c1.6,0.8,3.5,1.6,5.5,2.5c1,0.5,2.1,0.8,3.2,1.3
			c1.1,0.4,2.2,0.9,3.4,1.3c2.4,0.8,4.9,1.7,7.5,2.5c2.6,0.8,5.4,1.5,8.2,2.3c1.4,0.4,2.8,0.7,4.3,1c1.4,0.3,2.9,0.6,4.3,0.9
			c2.9,0.5,5.8,1,8.7,1.5c2.9,0.4,5.7,0.7,8.5,1c2.8,0.2,5.4,0.3,7.9,0.4c2.5,0.1,4.9,0,7.1-0.1c2.2-0.1,4.2-0.1,6-0.3
			c1.8-0.2,3.3-0.3,4.6-0.5c2.6-0.3,4-0.5,4-0.5l0-0.2c0,0-1.5,0-4,0c-1.3,0-2.8,0-4.6,0c-1.8,0.1-3.8-0.1-6-0.2
			c-1.1,0-2.2-0.1-3.4-0.1c-1.2,0-2.4,0-3.6-0.2c-2.5-0.2-5.1-0.3-7.9-0.5c-2.7-0.2-5.5-0.5-8.4-0.8c-2.8-0.4-5.7-0.7-8.6-1.2
			c-1.4-0.3-2.9-0.5-4.3-0.8C-6,12.6-7.4,12.3-8.8,12c-2.8-0.6-5.6-1.3-8.2-2c-1.3-0.4-2.6-0.7-3.9-1.1c-1.3-0.4-2.5-0.8-3.7-1.2
			c-1.2-0.4-2.3-0.8-3.5-1.2c-1.1-0.4-2.2-0.8-3.2-1.2c-2-0.8-3.9-1.5-5.5-2.3c-1.6-0.7-3-1.4-4.2-1.9c-2.3-1.1-3.5-1.9-3.5-1.9
			L-44.5-0.6z"/>
	</g>
	<g>
		<path fill="#E6E7E8" d="M-45.3-4c0,0,1.4,0.5,3.8,1.2c1.2,0.3,2.7,0.8,4.5,1.2c1.7,0.4,3.7,0.8,5.9,1.3c1.1,0.2,2.2,0.4,3.4,0.6
			c1.2,0.2,2.4,0.4,3.6,0.6c2.5,0.3,5.1,0.7,7.9,0.8c2.7,0.3,5.6,0.4,8.5,0.5c1.4,0.1,2.9,0.1,4.4,0.1c1.5,0,2.9,0,4.4,0
			C4,2.1,6.9,1.9,9.8,1.8c2.9-0.3,5.7-0.6,8.5-0.8c2.7-0.4,5.4-0.9,7.8-1.3c2.5-0.4,4.8-1.1,6.9-1.6c2.1-0.5,4.1-1,5.8-1.6
			c1.7-0.5,3.2-1,4.4-1.4c2.4-0.8,3.8-1.3,3.8-1.3L47-6.4c0,0-1.4,0.3-4,0.8c-1.3,0.3-2.8,0.6-4.5,1c-1.7,0.4-3.7,0.7-5.9,1.1
			c-1.1,0.2-2.2,0.4-3.4,0.6c-1.2,0.2-2.3,0.5-3.6,0.6C23.3-2,20.7-1.5,18-1.1c-2.7,0.3-5.5,0.7-8.4,1C6.8,0.1,3.9,0.4,1,0.6
			c-1.5,0-2.9,0.1-4.4,0.1c-1.5,0.1-2.9,0.1-4.3,0.1c-2.9,0-5.7,0-8.4-0.2c-1.4-0.1-2.7-0.1-4-0.3C-21.5,0.1-22.7,0-24-0.1
			c-1.3-0.1-2.5-0.3-3.6-0.4C-28.8-0.7-29.9-0.8-31-1c-2.2-0.4-4.1-0.7-5.9-1.1c-1.8-0.3-3.3-0.7-4.5-1c-2.5-0.6-3.9-1.1-3.9-1.1
			L-45.3-4z"/>
	</g>
	<g>
		<path fill="#E6E7E8" d="M-47.1-8c0,0,1.5,0.2,4,0.4c1.3,0,2.8,0.2,4.6,0.1c1.8,0,3.8,0,6-0.1c1.1,0,2.2-0.1,3.4-0.2
			c1.2-0.1,2.4-0.1,3.7-0.3c2.5-0.2,5.2-0.5,7.9-0.9c2.7-0.3,5.5-0.9,8.4-1.4c1.4-0.2,2.8-0.6,4.3-0.9c1.4-0.3,2.9-0.7,4.3-1
			C2.4-13,5.2-13.8,8-14.6c2.8-0.9,5.5-1.8,8.1-2.7c2.6-1,5-2,7.4-3c2.3-0.9,4.4-2.1,6.4-3.1c2-1,3.8-1.9,5.3-2.8
			c1.6-0.9,2.9-1.7,4-2.4c2.2-1.3,3.4-2.1,3.4-2.1l-0.1-0.2c0,0-1.4,0.6-3.7,1.7c-1.2,0.5-2.6,1.2-4.2,2c-1.6,0.8-3.5,1.5-5.5,2.4
			c-1,0.4-2.1,0.9-3.1,1.3c-1.1,0.5-2.2,1-3.4,1.4c-2.3,0.9-4.8,1.9-7.3,2.9c-2.6,0.9-5.2,1.9-7.9,2.8c-2.7,0.8-5.5,1.7-8.3,2.6
			c-1.4,0.4-2.8,0.7-4.2,1.1c-1.4,0.4-2.8,0.7-4.2,1c-2.8,0.6-5.6,1.2-8.3,1.6c-1.3,0.2-2.7,0.5-4,0.6c-1.3,0.2-2.6,0.3-3.8,0.5
			c-1.2,0.2-2.5,0.3-3.6,0.4c-1.2,0.1-2.3,0.2-3.4,0.3c-2.2,0.1-4.2,0.3-6,0.3C-40.2-8-41.7-8-43-8c-2.6-0.1-4-0.2-4-0.2L-47.1-8z"
			/>
	</g>
	<g>
		<path fill="#E6E7E8" d="M-44.2-11.5c0,0,2.3-0.2,5.8-0.8c0.9-0.2,1.8-0.3,2.8-0.5c1-0.2,2-0.4,3.1-0.7c2.1-0.5,4.4-1.1,6.6-1.7
			c1.1-0.3,2.2-0.7,3.3-1c1.1-0.3,2.2-0.7,3.2-1.1c1-0.4,2-0.8,2.9-1.2c0.9-0.4,1.8-0.8,2.6-1.2c1.6-0.8,2.8-1.5,3.7-2.1
			c0.9-0.5,1.4-0.9,1.4-0.9l-0.1-0.2c0,0-0.6,0.1-1.6,0.4c-0.5,0.1-1.1,0.3-1.8,0.5c-0.7,0.2-1.4,0.5-2.3,0.7
			c-0.8,0.3-1.7,0.6-2.7,0.9c-0.9,0.3-1.9,0.7-2.9,1.1c-1,0.4-2.1,0.8-3.1,1.2c-1.1,0.4-2.1,0.8-3.2,1.2c-2.2,0.8-4.4,1.5-6.4,2.1
			c-1,0.3-2,0.6-3,0.9c-1,0.3-1.9,0.5-2.7,0.7c-3.4,0.9-5.7,1.2-5.7,1.2L-44.2-11.5z"/>
	</g>
</symbol>
<symbol  id="New_Symbol_6" viewBox="-0.5 -1.1 1 2.2">
	<path fill="#6B7096" d="M-0.5,0c0-0.6,0.2-1.1,0.5-1.1S0.5-0.6,0.5,0S0.3,1.1,0,1.1S-0.5,0.6-0.5,0z"/>
</symbol>
<g>
	<defs>
		<rect id="SVGID_1_" x="0.4" y="0.4" width="499.2" height="499.2"/>
	</defs>
	<clipPath id="SVGID_2_">
		<use xlink:href="#SVGID_1_"  overflow="visible"/>
	</clipPath>
	<g clip-path="url(#SVGID_2_)">
		<rect x="0.4" y="0.4" fill="#6CD8C4" width="499.2" height="499.2"/>
		<g>
			<polygon fill="#5BB5A4" stroke="#469E8D" stroke-width="2.4962" stroke-miterlimit="10" points="451.4,484.9 40.7,484.9 
				40.7,560.1 458.7,560.1 			"/>
			<polygon fill="#77E5D0" stroke="#3D8E7E" stroke-width="2.8247" stroke-miterlimit="10" points="451.4,404.9 40.7,404.9 
				40.7,493.9 458.7,493.9 			"/>
		</g>
		<g>
			<path fill="#231F20" d="M262,301.4c0,0,0.6-0.1,1.7-0.2c0.5-0.1,1.2-0.1,2-0.1c0.8,0,1.7,0,2.6,0c1,0,2,0.1,3.1,0.2
				c1.1,0.2,2.2,0.3,3.4,0.5c1.2,0.2,2.4,0.5,3.6,0.9c1.2,0.3,2.4,0.8,3.6,1.2l1.8,0.7c0.6,0.3,1.1,0.5,1.7,0.8
				c0.6,0.3,1.1,0.5,1.7,0.8c0.5,0.3,1.1,0.6,1.6,0.9c1,0.6,2,1.2,2.9,1.8c0.9,0.6,1.7,1.2,2.5,1.8c0.8,0.6,1.4,1.2,2,1.7
				c0.6,0.5,1.1,1,1.4,1.4c0.8,0.8,1.2,1.3,1.2,1.3s-0.6-0.3-1.6-0.8c-1-0.5-2.4-1.2-4-2c-1.7-0.8-3.6-1.7-5.7-2.7
				c-1-0.5-2.1-0.9-3.2-1.4c-0.6-0.2-1.1-0.5-1.7-0.7l-1.7-0.7c-1.1-0.4-2.3-0.9-3.4-1.3c-0.6-0.2-1.1-0.4-1.7-0.6
				c-0.6-0.2-1.1-0.4-1.6-0.5c-1.1-0.4-2.1-0.7-3.1-1c-1-0.2-2-0.6-2.9-0.8c-0.9-0.2-1.7-0.5-2.4-0.6c-0.7-0.2-1.4-0.4-1.9-0.5
				C262.6,301.6,262,301.4,262,301.4z"/>
		</g>
		<g>
			<path fill="#231F20" d="M240.1,317.3c0,0,1-0.4,2.7-1c0.8-0.3,1.9-0.6,3.1-0.9c1.2-0.4,2.6-0.6,4.2-0.9c1.5-0.3,3.2-0.4,5-0.5
				c1.8,0,3.7-0.2,5.7,0c2,0.1,4,0.3,6,0.6c1,0.1,2,0.4,3.1,0.6l1.5,0.3l1.5,0.4c1,0.3,2,0.5,3,0.9c1,0.3,2,0.7,2.9,1
				c1,0.3,1.9,0.7,2.8,1.1c0.9,0.4,1.9,0.8,2.7,1.2c0.9,0.4,1.8,0.8,2.6,1.3c0.8,0.4,1.6,0.9,2.4,1.4c0.8,0.5,1.5,0.9,2.2,1.3
				c0.7,0.5,1.4,0.9,2,1.4c1.3,0.8,2.4,1.8,3.4,2.5c0.5,0.4,1,0.7,1.4,1.1c0.4,0.4,0.8,0.7,1.1,1c1.3,1.2,2.1,1.9,2.1,1.9
				s-0.9-0.5-2.5-1.4c-0.8-0.5-1.7-1-2.8-1.6c-1.1-0.6-2.3-1.3-3.7-2c-1.4-0.7-2.8-1.4-4.4-2.1c-0.8-0.4-1.6-0.8-2.4-1.1
				c-0.9-0.3-1.7-0.7-2.6-1.1c-0.9-0.4-1.8-0.7-2.7-1c-0.5-0.2-0.9-0.3-1.4-0.5c-0.5-0.2-0.9-0.4-1.4-0.5c-0.9-0.3-1.9-0.6-2.8-0.9
				c-1-0.3-1.9-0.5-2.9-0.8l-1.4-0.4l-1.5-0.3c-1-0.2-1.9-0.5-2.9-0.6c-1-0.1-1.9-0.3-2.9-0.5c-1-0.2-1.9-0.2-2.8-0.4
				c-0.5-0.1-0.9-0.1-1.4-0.2c-0.5,0-0.9-0.1-1.4-0.1c-0.9-0.1-1.8-0.1-2.7-0.2c-0.9,0-1.7,0-2.5,0c-0.4,0-0.8,0-1.2,0
				c-0.4,0-0.8,0-1.2,0c-1.5,0.1-2.9,0.1-4.1,0.2c-1.2,0.1-2.3,0.2-3.2,0.3C241.2,317.2,240.1,317.3,240.1,317.3z"/>
		</g>
		<path fill="#FF9E50" stroke="#A35E2B" stroke-width="1.418" stroke-miterlimit="10" d="M308.5,393.2c0,0,14.9-17.7,40-3.8
			s29.1,55.8,18.2,58.6c-16.3,4.2-30.7-32.5-43.1-32.5s-10.7,5.8-27.3,4.1L308.5,393.2z"/>
		<path fill="#FF9E50" stroke="#A35E2B" stroke-width="1.418" stroke-miterlimit="10" d="M294.7,363.7c0,0,13.9,8.1,15.3,12.9
			c0,0,4.5,17.6,1.3,38.8l4.2,2.8l8.2-0.3c2.5-0.1,4.9,0.6,6.9,2.1c3.6,2.6,9.3,7.5,11.7,13.6c0.6,1.6,0.5,3.3-0.3,4.8l0,0
			c-0.5,0.9-1.3,1.6-2.3,2c-2.1,0.7-6.1,1.7-9.8,0.7l-1.5,0.6c-2.4,1-5.1,1-7.5-0.1c-2.5-1.1-5.9-2.9-8.7-5.5l-11.5-4.9l-13.2-34.8
			L294.7,363.7z"/>
		<g>
			<path fill="#A35E2B" d="M323.7,428.6c0,0,0.4,0.8,0.9,2c0.6,1.2,1.2,2.9,2.1,4.3c0.4,0.8,1,1.4,1.4,2.1c0.4,0.7,0.8,1.4,1.1,2
				c0.6,1.2,0.8,2.1,0.8,2.1l-0.1,0.1c0,0-0.8-0.6-1.6-1.6c-0.4-0.5-0.9-1.1-1.4-1.8c-0.5-0.7-0.8-1.6-1.2-2.4
				c-0.7-1.7-1.2-3.4-1.5-4.7c-0.4-1.3-0.6-2.1-0.6-2.1L323.7,428.6z"/>
		</g>
		<path fill="#FF9E50" stroke="#A35E2B" stroke-width="1.418" stroke-miterlimit="10" d="M290.8,353.9c0.3,0.3,0.5,0.5,0.8,0.8
			c3.9,4.1,6.7,9.1,8.4,14.5c8.3,26.8,4.1,55.6,4.1,55.6c3.1,6.3,4,11.8,4.2,15.1c0.2,2.5-0.3,5-1.3,7.3c-6.4,14.2-30,20.5-30,20.5
			c-1.9,2.8-5.7,4.2-5.7,4.2c-5.9,12.3-20.1,16-20.1,16c-12.8,3.2-15.4-0.1-15.4-0.1c-3.3,1.9-8.1,0-8.1,0c-3.3-2.1-5.1-8.1-5.1-8.1
			s-9.9-1-17.5-2.9c0,0-49.7,0.2-68.4-14.5c-2.6-2-4.1-5.1-4.1-8.4c0-6.4,2.5-18.6,17-36.1c3.5-4.2,6.7-8.8,9.7-13.6l0.6-12.8
			c0.2-4.3,0.9-8.6,2.1-12.7c1.9-6.4,5.6-15.2,11.9-20.7l83-14.7C269.2,341.2,282,345,290.8,353.9z"/>
		<g>
			<path fill="#A35E2B" d="M222.9,479.7c-1-1.1-1.8-2.4-2.2-3.8c-0.2-0.7-0.4-1.5-0.5-2.2c-0.1-0.4-0.1-0.8-0.1-1.1
				c0-0.4,0-0.8,0-1.1l0,0l0,0c0.1-0.6,0.3-1,0.5-1.5c0.2-0.4,0.4-0.9,0.7-1.3c0.3-0.4,0.5-0.8,0.8-1.2c0.3-0.4,0.6-0.8,0.9-1.1
				c0.3-0.3,0.6-0.7,1-1c0.3-0.3,0.7-0.7,1-1c0.7-0.6,1.4-1.2,2.2-1.8c0.7-0.6,1.5-1.1,2.3-1.6c0.4-0.3,0.8-0.5,1.2-0.7l1.2-0.7
				c0.8-0.4,1.6-0.9,2.5-1.3l2.5-1.2l-0.3,0.3c0.8-1.2,1.5-2.3,2.4-3.4c0.8-1.1,1.7-2.2,2.6-3.2c0.9-1,1.8-2.1,2.8-3.1
				c0.5-0.5,1-1,1.5-1.4c0.5-0.5,1.1-0.9,1.6-1.3c1.2-0.9,2.4-1.6,3.7-2.1c1.3-0.5,2.7-0.9,4.1-1.1c1.4-0.2,2.8-0.2,4.3-0.1l4.1,0.5
				l-0.3,0c0.5-0.2,1.1-0.4,1.6-0.6c0.5-0.2,1-0.5,1.6-0.7c0.5-0.3,1-0.6,1.5-0.9c0.5-0.3,1-0.6,1.4-1c0.4-0.4,0.9-0.7,1.3-1.1
				c0.4-0.4,0.9-0.8,1.3-1.2l1.2-1.3l1.1-1.4c0.4-0.4,0.6-1,1-1.4c0.3-0.5,0.7-0.9,0.9-1.5l0.9-1.5l0.7-1.6l0.4-0.8
				c0.1-0.3,0.2-0.6,0.3-0.8l0.6-1.7c0.2-0.6,0.3-1.1,0.4-1.7l0.4-1.7l-0.2,1.8c-0.1,0.6-0.1,1.2-0.2,1.8l-0.4,1.8
				c-0.1,0.3-0.1,0.6-0.2,0.9l-0.3,0.9l-0.6,1.7l-0.7,1.7c-0.2,0.6-0.5,1.1-0.9,1.6c-0.4,0.5-0.6,1-1,1.5l-1.1,1.4l-1.3,1.3
				c-0.4,0.4-0.9,0.8-1.3,1.2c-0.4,0.4-1,0.8-1.4,1.1c-0.5,0.4-1,0.7-1.5,1c-0.5,0.3-1.1,0.6-1.6,0.9c-0.5,0.3-1.1,0.6-1.7,0.8
				c-0.6,0.2-1.1,0.5-1.8,0.6l-0.1,0l-0.1,0l-4.1-0.5c-1.3-0.1-2.6-0.1-3.9,0.1c-1.3,0.2-2.6,0.5-3.8,1c-0.6,0.3-1.2,0.5-1.8,0.9
				c-0.6,0.3-1.1,0.7-1.6,1.1c-0.5,0.4-1,0.8-1.5,1.3c-0.5,0.4-1,0.9-1.5,1.4c-1,0.9-1.9,2-2.7,3c-0.9,1-1.7,2.1-2.5,3.2
				c-0.8,1.1-1.6,2.2-2.3,3.3l-0.1,0.2l-0.2,0.1l-2.5,1.2c-0.8,0.4-1.6,0.9-2.4,1.3l-1.2,0.7c-0.4,0.2-0.8,0.5-1.2,0.7
				c-0.7,0.5-1.5,1-2.2,1.6c-0.7,0.5-1.4,1.1-2.1,1.7c-0.3,0.3-0.7,0.6-1,0.9c-0.3,0.3-0.6,0.6-0.9,1c-0.6,0.7-1.1,1.4-1.6,2.1
				c-0.3,0.4-0.5,0.7-0.7,1.1c-0.2,0.4-0.4,0.8-0.5,1.1l0-0.1c0,0.3-0.1,0.7-0.1,1c0,0.4-0.1,0.7,0,1.1c0,0.7,0.1,1.4,0.2,2.1
				c0.1,0.7,0.4,1.4,0.6,2.1C222.1,478.5,222.4,479.2,222.9,479.7z"/>
		</g>
		<g>
			<path fill="#A35E2B" d="M294.6,405.1c0,0,0.9,1.6,2.1,4c1.3,2.4,3,5.6,4.6,8.8c0.8,1.6,1.7,3.2,2.4,4.7c0.3,0.8,0.7,1.5,1,2.2
				c0.3,0.7,0.6,1.4,0.8,2.1c0.5,1.3,0.8,2.4,1,3.2c0.2,0.8,0.3,1.2,0.3,1.2l-0.1,0c0,0-0.2-0.4-0.6-1.1c-0.4-0.7-0.9-1.7-1.6-2.9
				c-0.3-0.6-0.7-1.3-1-1.9c-0.4-0.7-0.7-1.4-1.1-2.2c-0.7-1.5-1.4-3.2-2.1-4.9c-2.9-6.6-5.9-13.3-5.9-13.3L294.6,405.1z"/>
		</g>
		<g>
			<path fill="#A35E2B" d="M292,383.3c0,0,0.9,2,2.2,5.1c1.3,3.1,2.9,7.3,4.3,11.6c0.3,1.1,0.7,2.1,1,3.2c0.3,1.1,0.6,2.1,0.8,3.1
				c0.2,1,0.4,2,0.5,3c0.1,0.5,0.1,1,0.2,1.4c0,0.5,0.1,0.9,0.1,1.3c0,0.4,0,0.8,0.1,1.2c0,0.4,0,0.8-0.1,1.1c0,0.7,0,1.3-0.2,1.8
				c-0.2,1-0.3,1.5-0.3,1.5l-0.1,0c0,0,0-0.6,0-1.5c0-0.5-0.1-1.1-0.1-1.7c0-0.3-0.1-0.7-0.1-1.1c-0.1-0.4-0.1-0.8-0.2-1.2
				c-0.1-0.8-0.3-1.7-0.5-2.6c-0.1-0.5-0.2-0.9-0.3-1.4c-0.1-0.5-0.2-1-0.3-1.5c-0.2-1-0.4-2.1-0.7-3.1c-0.2-1.1-0.5-2.1-0.8-3.2
				c-0.6-2.2-1.2-4.3-1.8-6.3c-0.6-2-1.2-3.8-1.8-5.4c-1.1-3.2-1.9-5.3-1.9-5.3L292,383.3z"/>
		</g>
		<g>
			<path fill="#A35E2B" d="M274.3,377.6c0,0,0.9,2.3,2.2,5.7c0.7,1.7,1.5,3.7,2.3,5.8c0.8,2.2,1.4,4.6,1.7,7.1
				c0.2,1.2,0.2,2.5,0.3,3.7c0,1.2-0.1,2.4-0.2,3.6c-0.2,1.2-0.3,2.3-0.5,3.3c-0.2,1-0.5,2-0.7,2.9c-0.3,0.9-0.5,1.7-0.8,2.4
				c-0.3,0.7-0.5,1.3-0.7,1.8c-0.4,1-0.7,1.5-0.7,1.5l-0.1,0c0,0,0.1-0.6,0.4-1.6c0.1-0.5,0.3-1.1,0.4-1.9c0.2-0.7,0.3-1.5,0.5-2.4
				c0.2-0.9,0.3-1.9,0.5-2.9c0.1-1,0.3-2.1,0.4-3.2c0.3-2.2,0.4-4.6,0.2-7c-0.2-2.4-0.7-4.8-1.3-6.9c-0.7-2.2-1.4-4.2-2-5.9
				c-1.1-3.5-1.9-5.8-1.9-5.8L274.3,377.6z"/>
		</g>
		<g>
			<path fill="#A35E2B" d="M267.4,440.9c0,0,1.1-0.6,2.8-1.6c1.6-1.1,3.8-2.5,5.7-4.1c1-0.8,1.9-1.7,2.8-2.5
				c0.9-0.8,1.8-1.5,2.5-2.1c0.4-0.3,0.7-0.6,1-0.8c0.3-0.3,0.6-0.5,0.8-0.7c0.4-0.4,0.7-0.5,0.7-0.5l0.1,0.1c0,0-0.2,0.3-0.5,0.8
				c-0.3,0.5-0.8,1.2-1.4,2c-0.3,0.4-0.7,0.8-1.1,1.2c-0.4,0.4-0.8,0.8-1.3,1.2c-0.9,0.8-2,1.6-3.1,2.3c-2.2,1.5-4.4,2.8-6.2,3.7
				c-1.7,0.9-3,1.3-3,1.3L267.4,440.9z"/>
		</g>
		<g>
			<path fill="#A35E2B" d="M235.7,487.8l-0.2-6.4c0-0.5,0-1.1,0-1.6c0-0.5,0-1.1,0.1-1.6c0.1-1.1,0.3-2.2,0.6-3.2
				c0.3-1.1,0.7-2.1,1.2-3.1c0.5-1,1.1-2,1.7-2.8c0.6-0.9,1.3-1.7,1.9-2.6c0.7-0.8,1.3-1.7,2-2.5l-0.1,0.2c0.4-1.3,0.9-2.6,1.4-3.9
				l0.1,0c-0.1,1.4-0.3,2.8-0.5,4.1l0,0.1l-0.1,0.1c-0.6,0.9-1.2,1.8-1.8,2.7c-0.6,0.9-1.2,1.8-1.9,2.6c-0.7,0.9-1.3,1.6-1.8,2.6
				c-0.5,0.9-1,1.8-1.3,2.8c-0.3,1-0.6,2-0.8,3c-0.2,1-0.2,2.1-0.2,3.2l-0.3,6.4L235.7,487.8z"/>
		</g>
		<g>
			<path fill="#A35E2B" d="M227.7,487.8c0,0-0.1-1.4-0.2-3.4c-0.1-2-0.2-4.8-0.3-7.5c0-0.7-0.1-1.4,0-2.1c0-0.7,0.1-1.4,0.3-2.1
				c0.4-1.3,1-2.4,1.6-3.3c0.6-0.9,1.3-1.5,1.8-1.8c0.5-0.4,0.7-0.6,0.7-0.6l0.1,0.1c0,0-0.2,0.3-0.5,0.8c-0.3,0.5-0.8,1.2-1.2,2.1
				c-0.4,0.9-0.8,1.9-1.1,3.1c-0.2,0.6-0.3,1.2-0.4,1.8c-0.1,0.6-0.1,1.3-0.2,2c-0.1,2.7-0.2,5.5-0.3,7.5c-0.1,2-0.2,3.4-0.2,3.4
				L227.7,487.8z"/>
		</g>
		<g>
			<path fill="#A35E2B" d="M245.9,489.3l1.4-5.4l0.7-2.7c0.1-0.5,0.3-0.9,0.4-1.4c0.2-0.5,0.3-0.9,0.5-1.3c0.8-1.8,1.7-3.5,2.9-5
				c0.6-0.7,1.4-1.4,2.1-2c0.7-0.6,1.4-1.2,2.2-1.8l0,0c0.5-0.5,1.1-1,1.7-1.4l0.1,0.1c-0.4,0.6-0.8,1.3-1.2,1.9l0,0
				c-0.6,0.7-1.2,1.4-1.9,2.1c-0.7,0.7-1.2,1.3-1.8,2c-1.2,1.4-2.3,2.8-3.1,4.5c-0.4,0.8-0.8,1.6-1.1,2.5l-0.9,2.7l-1.9,5.3
				L245.9,489.3z"/>
		</g>
		<g>
			<path fill="#A35E2B" d="M161.3,417.7c0.4,1.1,0.8,2.3,1.3,3.4c0.5,1.1,0.9,2.2,1.5,3.3c0.5,1.1,1.1,2.1,1.7,3.1
				c0.6,1,1.1,2.1,1.7,3.1c1.2,2,2.6,3.9,4.3,5.5c0.8,0.8,1.7,1.5,2.7,2.1c1,0.6,2,1.1,3.1,1.4l0.8,0.2l0.9,0.2l1.8,0.4l3.5,0.8
				l3.5,0.8c1.2,0.3,2.4,0.7,3.5,1.1c1.2,0.4,2.3,0.9,3.4,1.4c1.1,0.5,2.2,1.1,3.2,1.7l6.3,3.4l-0.3-0.1c1.3,0,2.5,0.1,3.8,0.2
				c1.3,0.1,2.5,0.2,3.7,0.4c1.2,0.2,2.5,0.4,3.7,0.7c0.6,0.1,1.2,0.3,1.8,0.4c0.6,0.1,1.2,0.3,1.8,0.5c0.6,0.2,1.2,0.4,1.8,0.6
				c0.6,0.3,1.2,0.4,1.8,0.7c1.2,0.6,2.2,1.4,3.1,2.3c0.9,0.9,1.7,1.9,2.5,2.8l2.4,2.8l-2.8-2.5c-0.9-0.8-1.8-1.7-2.8-2.4
				c-1-0.7-2-1.3-3.1-1.8l-1.7-0.7c-0.6-0.2-1.1-0.4-1.7-0.6c-0.6-0.2-1.2-0.4-1.8-0.5c-0.6-0.1-1.2-0.3-1.8-0.4
				c-1.2-0.3-2.4-0.5-3.6-0.6c-1.2-0.2-2.4-0.3-3.7-0.4c-1.2-0.1-2.5-0.2-3.7-0.1l-0.2,0l-0.2-0.1l-6.3-3.4
				c-1.1-0.6-2.1-1.1-3.2-1.6c-1.1-0.5-2.2-0.9-3.3-1.3c-1.1-0.4-2.2-0.7-3.4-1l-3.5-0.8l-3.5-0.8l-1.8-0.4l-0.9-0.2L177,441
				c-1.2-0.4-2.4-0.9-3.4-1.6c-1.1-0.7-2-1.5-2.9-2.3c-1.8-1.7-3.3-3.7-4.5-5.8c-0.6-1.1-1.2-2.1-1.8-3.2c-0.5-1.1-0.9-2.3-1.3-3.4
				C162.3,422.4,161.7,420.1,161.3,417.7z"/>
		</g>
		<g>
			<path fill="#A35E2B" d="M217.9,458.9c0,0,0.6,0.2,1.5,0.5c0.9,0.3,2,0.8,3.1,1.4c0.6,0.3,1.1,0.5,1.6,0.9
				c0.5,0.4,0.9,0.8,1.2,1.2c0.6,0.8,0.7,1.5,0.7,1.5l-0.1,0.1c0,0-0.2-0.1-0.4-0.2c-0.2-0.1-0.6-0.3-1-0.5
				c-0.4-0.2-0.8-0.5-1.3-0.8c-0.4-0.3-0.9-0.8-1.3-1.1c-1-0.7-2-1.4-2.8-1.9c-0.8-0.5-1.3-0.8-1.3-0.8L217.9,458.9z"/>
		</g>
		<g>
			<path fill="#A35E2B" d="M216.2,469.6c0,0,0.3,0.1,0.7,0.2c0.4,0.1,1,0.2,1.6,0.2c0.3,0,0.6,0,0.8,0c0.2,0.1,0.5,0.2,0.7,0.3
				c0.2,0.1,0.4,0.2,0.5,0.4c0.1,0.1,0.2,0.2,0.2,0.2l0,0.1c0,0-0.3,0.3-0.8,0.4c-0.2,0.1-0.5,0.1-0.8,0c-0.3-0.1-0.6-0.3-0.8-0.4
				c-0.6-0.3-1.1-0.6-1.4-0.9c-0.4-0.3-0.6-0.5-0.6-0.5L216.2,469.6z"/>
		</g>
		<g>
			<path fill="#A35E2B" d="M161.3,430.8c0,0,0.9,0.9,2.3,2.1c0.7,0.6,1.6,1.3,2.5,2c0.9,0.7,2,1.4,3.1,2c0.6,0.3,1.1,0.6,1.6,0.8
				c0.6,0.2,1.1,0.5,1.6,0.7c0.5,0.2,1,0.5,1.5,0.6c0.5,0.2,0.9,0.4,1.4,0.5c0.4,0.1,0.8,0.3,1.2,0.4c0.4,0.1,0.7,0.2,0.9,0.3
				c0.5,0.2,0.8,0.3,0.8,0.3l0,0.1c0,0-0.3,0-0.9,0.1c-0.3,0-0.6,0-1,0c-0.4,0-0.8-0.1-1.3-0.2c-0.5,0-1-0.2-1.5-0.3
				c-0.5-0.1-1.1-0.3-1.6-0.6c-0.6-0.2-1.1-0.5-1.6-0.9c-0.6-0.3-1.1-0.7-1.6-1c-1.1-0.7-2.1-1.5-3-2.3c-0.9-0.8-1.7-1.6-2.3-2.2
				c-1.3-1.4-2.1-2.4-2.1-2.4L161.3,430.8z"/>
		</g>
		<g>
			<path fill="#A35E2B" d="M171.1,365.4c0,0-0.3,0.5-0.8,1.5c-0.2,0.5-0.5,1.1-0.8,1.8c-0.3,0.7-0.6,1.5-0.9,2.4
				c-0.6,1.8-1.1,3.9-1.6,6.2c-0.2,1.1-0.4,2.3-0.6,3.6c-0.1,1.2-0.3,2.5-0.4,3.7c0,1.2-0.2,2.5-0.2,3.7c0,1.2-0.1,2.4,0,3.6
				c0,1.2,0,2.3,0,3.4c0,1.1,0.1,2.1,0.1,3c0,0.9,0,1.8,0.1,2.6c0,0.8,0.1,1.4,0.1,2c0,1.1,0,1.7,0,1.7l-0.1,0c0,0-0.2-0.6-0.4-1.7
				c-0.1-0.5-0.3-1.2-0.4-2c-0.2-0.8-0.3-1.6-0.4-2.6c-0.1-0.9-0.2-2-0.3-3c-0.1-1.1-0.1-2.2-0.1-3.4c0-1.2,0.1-2.4,0.1-3.7
				c0-1.2,0.2-2.5,0.4-3.8c0.1-1.3,0.4-2.5,0.5-3.7c0.2-1.2,0.5-2.4,0.8-3.6c0.3-1.1,0.6-2.3,0.9-3.3c0.3-1,0.7-2,1-2.9
				c0.4-0.9,0.7-1.7,1-2.4c0.3-0.7,0.6-1.3,0.9-1.8c0.5-1,0.9-1.5,0.9-1.5L171.1,365.4z"/>
		</g>
		<g>
			<path fill="#A35E2B" d="M171.1,379.6c0,0,0.4,3.2,1.3,7.9c0.9,4.7,2.3,10.9,4.4,16.9c0.5,1.5,1.1,3,1.7,4.4
				c0.6,1.4,1.2,2.8,1.9,4.1c0.6,1.3,1.3,2.6,2,3.8c0.7,1.2,1.4,2.3,2,3.2c0.3,0.5,0.7,0.9,1,1.4c0.3,0.4,0.6,0.8,1,1.2
				c0.6,0.7,1.2,1.3,1.7,1.8c0.5,0.5,0.9,0.8,1.2,1.1c0.3,0.2,0.4,0.4,0.4,0.4l-0.1,0.1c0,0-0.2-0.1-0.5-0.3
				c-0.3-0.2-0.8-0.5-1.4-0.9c-0.3-0.2-0.6-0.4-0.9-0.7c-0.3-0.3-0.7-0.6-1-0.9c-0.4-0.3-0.7-0.7-1.1-1.1c-0.4-0.4-0.8-0.8-1.2-1.3
				c-0.8-0.9-1.6-2-2.3-3.2c-0.4-0.6-0.8-1.2-1.1-1.8c-0.4-0.6-0.7-1.3-1-2c-1.3-2.7-2.4-5.8-3.4-8.8c-1.9-6.1-3.2-12.4-3.9-17.2
				c-0.7-4.8-0.9-7.9-0.9-7.9L171.1,379.6z"/>
		</g>
		<g>
			<path fill="#A35E2B" d="M258.3,356.5c0,0,0.8,0.4,1.8,1c1.1,0.6,2.5,1.6,3.8,2.7c0.7,0.5,1.3,1.1,1.9,1.7c0.5,0.6,1,1.3,1.3,1.8
				c0.3,0.6,0.5,1.1,0.5,1.5c0.1,0.4,0.1,0.6,0.1,0.6l-0.1,0.1c0,0-0.2-0.2-0.4-0.4c-0.1-0.1-0.3-0.3-0.4-0.5
				c-0.2-0.2-0.4-0.4-0.6-0.6c-0.2-0.2-0.4-0.4-0.7-0.7c-0.3-0.2-0.5-0.5-0.7-0.8c-0.5-0.6-1-1.2-1.6-1.8c-1.1-1.2-2.4-2.3-3.3-3.1
				c-1-0.8-1.6-1.3-1.6-1.3L258.3,356.5z"/>
		</g>
		<g>
			<path fill="#A35E2B" d="M276.6,347.1c0,0,1.6,0.7,3.8,2.1c1.1,0.7,2.4,1.5,3.7,2.5c0.7,0.5,1.3,1,2,1.6c0.7,0.6,1.3,1.1,2,1.7
				c0.6,0.6,1.3,1.2,1.9,1.9c0.6,0.6,1.2,1.3,1.7,1.9c0.5,0.7,1,1.3,1.4,2c0.4,0.7,0.8,1.3,1,1.9c0.3,0.6,0.5,1.2,0.7,1.7
				c0.2,0.5,0.3,1,0.4,1.4c0.2,0.8,0.3,1.2,0.3,1.2l-0.1,0c0,0-0.2-0.4-0.6-1c-0.2-0.3-0.4-0.7-0.7-1.2c-0.3-0.4-0.6-0.9-0.9-1.5
				c-0.2-0.3-0.3-0.6-0.6-0.8c-0.2-0.3-0.4-0.6-0.6-0.9c-0.4-0.6-0.9-1.2-1.4-1.8c-0.4-0.7-1-1.3-1.5-2c-0.5-0.7-1.1-1.3-1.7-1.9
				c-0.6-0.6-1.2-1.2-1.8-1.8c-0.6-0.6-1.2-1.1-1.9-1.7c-1.2-1.1-2.4-2-3.5-2.7c-2.1-1.5-3.6-2.4-3.6-2.4L276.6,347.1z"/>
		</g>
		<g>
			<path fill="#A35E2B" d="M331.8,426.2c0,0,0.8,0.6,2,1.6c0.6,0.5,1.3,1,2,1.6c0.7,0.6,1.5,1.3,2.1,2.1c0.7,0.8,1.4,1.5,1.9,2.3
				c0.5,0.8,0.9,1.6,1.3,2.3c0.7,1.4,0.9,2.4,0.9,2.4l-0.1,0.1c0,0-0.8-0.7-1.8-1.8c-0.5-0.6-1-1.3-1.5-2.1c-0.5-0.8-1-1.6-1.6-2.4
				c-0.6-0.8-1.2-1.6-1.8-2.2c-0.6-0.7-1.2-1.3-1.8-1.9c-1-1.1-1.7-1.8-1.7-1.8L331.8,426.2z"/>
		</g>
		<g>
			<path fill="#231F20" d="M185.3,361.2c0,0,0.3,2.2,1.2,5.4c0.2,0.8,0.5,1.6,0.8,2.5c0.3,0.9,0.7,1.8,1.1,2.8
				c0.4,0.9,0.8,1.9,1.3,2.9c0.2,0.5,0.5,1,0.7,1.4l0.8,1.4c0.5,1,1.2,1.8,1.8,2.7c0.6,0.9,1.3,1.7,1.9,2.5c0.6,0.9,1.3,1.6,1.8,2.3
				c0.6,0.8,1.2,1.4,1.7,2c0.6,0.6,1,1.2,1.5,1.7c0.5,0.5,0.9,0.9,1.2,1.3c0.7,0.7,1,1.1,1,1.1l-0.1,0.1c0,0-0.5-0.3-1.3-0.9
				c-0.4-0.3-0.9-0.6-1.4-1c-0.5-0.4-1.1-0.9-1.7-1.5c-0.6-0.6-1.3-1.2-1.9-1.9c-0.3-0.4-0.7-0.7-1-1.1c-0.3-0.4-0.7-0.8-1-1.2
				c-0.6-0.9-1.3-1.7-1.8-2.7c-0.6-1-1.2-1.9-1.6-2.9l-0.8-1.5c-0.2-0.5-0.5-1-0.7-1.5c-0.5-1-0.8-2-1.2-3c-0.4-1-0.7-1.9-1-2.9
				c-0.2-0.9-0.5-1.8-0.7-2.6c-0.8-3.2-0.9-5.5-0.9-5.5L185.3,361.2z"/>
		</g>
		<path fill="#916445" stroke="#3B2314" stroke-width="1.9969" stroke-miterlimit="10" d="M60.3,314.6c0,0-26.9,140.1,20.9,205.9
			c0,0-81,18-81-98C0.2,391.6,60.3,314.6,60.3,314.6z"/>
		<path fill="#FFF87D" stroke="#C1BE4F" stroke-width="2.7679" stroke-miterlimit="10" d="M65,283.4c3.4-3.6,10.7,43.5,8.9,75.5
			c0,0-14,4.2-34.5,3.3L65,283.4z"/>
		<path fill="#916445" stroke="#3B2314" stroke-width="1.9969" stroke-miterlimit="10" d="M156.5,192.8c12.8,5.5,36.8-0.9,16.6-30.4
			l-17.5,15.5L156.5,192.8z"/>
		<path fill="#FFF87D" stroke="#C1BE4F" stroke-width="2.7679" stroke-miterlimit="10" d="M-148.6,437.7c0,0,187.3,130.1,183,80.4
			c-8.5-98.3,18.5-186,34-223.3s-66-131.8-66-131.8S-80.8,203-148.6,437.7z"/>
		<path fill="#916445" stroke="#3B2314" stroke-width="1.9969" stroke-miterlimit="10" d="M178.6,164.8c19.9-39,2-87.9-40-109.4
			c-42-21.5-92.1-7.3-112,31.7c-9.5,18.6-10.4,39.5-4.1,58.5L7.7,161.9l37.5,64.8l36.7-24.1C153,219.6,172.3,177,178.6,164.8z"/>
		
			<ellipse transform="matrix(0.7488 0.6628 -0.6628 0.7488 146.4109 -74.6157)" fill="#231F20" cx="171.6" cy="155.8" rx="4.8" ry="12.6"/>
		<path fill="#FFF87D" stroke="#C1BE4F" stroke-width="2.7679" stroke-miterlimit="10" d="M-4.9,164.6c0,0,5.6-10.4,25-16.8
			c0.8-0.3,1.7,0.4,1.5,1.2c-0.7,5.2,13.1,32.2,52,60l-10.4,27.3C63.2,236.3-6.1,177-4.9,164.6z"/>
		<path fill="#916445" stroke="#3B2314" stroke-width="1.9969" stroke-miterlimit="10" d="M411,326c0,0,10.9,142.2-44.1,202.2
			c0,0,78.5,27.1,91.6-88.2C462,409.3,411,326,411,326z"/>
		<path fill="#A8E058" stroke="#73A02D" stroke-width="2.7679" stroke-miterlimit="10" d="M409.8,294.5c-3-4-15.6,42-17.4,74.1
			c0,0,13.4,5.8,33.9,7.1L409.8,294.5z"/>
		<path fill="#916445" stroke="#3B2314" stroke-width="1.9969" stroke-miterlimit="10" d="M327.1,190c-13.3,4-36.5-5.1-13.1-32
			l15.7,17.4L327.1,190z"/>
		<path fill="#A8E058" stroke="#73A02D" stroke-width="2.7679" stroke-miterlimit="10" d="M604.7,472c0,0-200.8,108.1-190.9,59.2
			c19.6-96.7,2.7-186.9-8.5-225.7s80.4-123.6,80.4-123.6S563.8,231.1,604.7,472z"/>
		<path fill="#916445" stroke="#3B2314" stroke-width="1.9969" stroke-miterlimit="10" d="M310.4,163.8
			c-15.4-41,7.9-87.6,52.1-104.2c44.1-16.6,92.4,3.2,107.7,44.1c7.3,19.5,5.8,40.4-2.5,58.6l12.8,17.9L436,240.4l-33.8-28.1
			c-17.4,3.2-34.8,1.1-49.9-5.4c6.3-9.2,13.9-23.5,10.7-35.9c0,0-12.2,12.9-29.6,24.6C323.3,187.4,315.2,176.6,310.4,163.8z"/>
		
			<ellipse transform="matrix(-0.8699 0.4932 -0.4932 -0.8699 669.3458 135.1136)" fill="#231F20" cx="316.9" cy="155.8" rx="4.8" ry="12.6"/>
		<path fill="#A8E058" stroke="#73A02D" stroke-width="2.7679" stroke-miterlimit="10" d="M492.8,184.4c0,0-4.4-11-22.9-19.6
			c-0.8-0.4-1.7,0.2-1.7,1c0.1,5.3-16.7,30.5-58.4,53.7l7.2,28.3C417,247.8,492.5,196.7,492.8,184.4z"/>
		
			<path fill="#916445" stroke="#3B2314" stroke-width="1.9969" stroke-linecap="round" stroke-linejoin="round" stroke-miterlimit="10" d="
			M139.6,178.9c0,0-3.1,9.6,7.4,18.2"/>
		<path fill="#916445" stroke="#3B2314" stroke-width="1.9969" stroke-miterlimit="10" d="M263,350.1c0,0,4.7,15.7,20.2,17.7h0
			c0,0,67.7,14.6,126.2-15.2l49.3-35.4l-35.6-44l-46.5,42.6c0,0-31.1,20-49.9,23.5c-18.8,3.6-34.8,3.5-34.8,3.5s-15.9-10.4-29-9.3
			c-5.7,0.5-12.1,6.6-19.1,5.8C220.7,336.8,263,350.1,263,350.1z"/>
		<path fill="#FF9E50" stroke="#A35E2B" stroke-width="1.418" stroke-miterlimit="10" d="M232.3,288c18.4,3.6,32.8,20.2,51.3,29.9
			c2.4,1.3,1.7,5-1,5.6c-0.6,0.1-1.4,0.2-2.3,0.3c-7.1,0.2-34.2-12.7-34.2-12.7S226.9,286.9,232.3,288z"/>
		<path fill="#FF9E50" stroke="#A35E2B" stroke-width="1.418" stroke-miterlimit="10" d="M187.5,287.8
			c-17.6,5.5-21.8,25.7-34.1,42.6c-1.6,2.2,0.7,5.2,3.4,4.6c0.6-0.2,1.3-0.4,2.1-0.8c6.4-3,24.9-26.6,24.9-26.6
			S192.8,286.2,187.5,287.8z"/>
		<path fill="#FF9E50" stroke="#A35E2B" stroke-width="1.418" stroke-miterlimit="10" d="M224.6,377.4c0,0,3.5,0,5.4,0
			c4.3,0,17-8.7,17-8.7c25.8-7,17.1-31.6,17.1-31.6l0.9,0.1c1.4,0.2,2.6-1.1,2.3-2.4c-1.7-9.5-7.6-15.5-7.6-15.5l1.7-0.1
			c0.8-0.1,1.3-0.9,1-1.7c-17.6-44.9-64-36.5-64-36.5c-33.9,8.8-36,39.7-35.2,53.3c0.2,3.8,1.4,7.5,3.4,10.8l5.5,8.8
			c0,4.7,1.1,9.2,1.1,9.2L224.6,377.4z"/>
		<g>
			<path fill="#A35E2B" d="M180.7,335c0,0,0.4,1.2,1.2,2.9c0.2,0.4,0.4,0.9,0.7,1.4c0.2,0.5,0.5,1,0.8,1.5c0.3,0.5,0.6,1,0.9,1.5
				c0.3,0.5,0.7,1,1.1,1.5c0.4,0.5,0.8,0.9,1.2,1.4c0.4,0.4,0.8,0.9,1.3,1.2c0.4,0.4,0.8,0.8,1.2,1.1c0.2,0.2,0.4,0.3,0.6,0.5
				c0.2,0.2,0.4,0.3,0.5,0.4c0.4,0.3,0.7,0.5,1,0.7c0.3,0.2,0.6,0.4,0.8,0.5c0.5,0.3,0.7,0.5,0.7,0.5l0,0.1c0,0-0.3,0-0.9-0.2
				c-0.3-0.1-0.6-0.1-1-0.2c-0.4-0.1-0.8-0.3-1.2-0.5c-0.5-0.2-0.9-0.5-1.4-0.8c-0.5-0.3-0.9-0.7-1.4-1.1c-0.5-0.4-0.8-0.9-1.2-1.4
				c-0.4-0.5-0.7-1-1.1-1.6c-0.3-0.6-0.7-1.1-1-1.6c-0.3-0.6-0.6-1.1-0.8-1.6c-0.5-1.1-0.9-2.1-1.2-3c-0.6-1.8-0.8-3-0.8-3
				L180.7,335z"/>
		</g>
		<g>
			<path fill="#A35E2B" d="M236.3,352.5c0,0,2.2-0.7,5.1-2.3c1.5-0.8,3.1-1.8,4.8-3.1c1.6-1.3,3.3-2.8,4.6-4.5
				c0.7-0.9,1.3-1.8,1.8-2.7c0.3-0.5,0.5-1,0.7-1.4c0.2-0.5,0.4-1,0.6-1.4c0.4-0.9,0.6-1.9,0.9-2.8c0.1-0.5,0.2-0.9,0.3-1.3
				c0.1-0.4,0.1-0.9,0.2-1.3c0.1-0.8,0.2-1.6,0.2-2.2c0-0.7,0.1-1.3,0.1-1.8c0-1,0-1.5,0-1.5l0.1,0c0,0,0.1,0.5,0.4,1.5
				c0.1,0.5,0.2,1.1,0.3,1.8c0.1,0.7,0.1,1.5,0.1,2.4c0,0.4-0.1,0.9-0.1,1.4c-0.1,0.5-0.1,0.9-0.2,1.4c-0.2,1-0.5,2-0.9,3
				c-0.2,0.5-0.5,1-0.7,1.5c-0.3,0.5-0.5,1-0.8,1.5c-0.6,1-1.3,1.9-2.1,2.8c-3,3.5-6.9,6-10,7.4c-3.1,1.4-5.3,2-5.3,2L236.3,352.5z"
				/>
		</g>
		<g>
			<path fill="#A35E2B" d="M168.3,333.5c0,1.1,0.1,2.2,0.2,3.3c0.1,1.1,0.3,2.2,0.5,3.2c0.1,0.5,0.2,1.1,0.3,1.6
				c0.1,0.5,0.2,1.1,0.4,1.6c0.2,0.5,0.3,1,0.5,1.5l0.6,1.5l0.7,1.5c0.2,0.5,0.5,0.9,0.8,1.4c0.3,0.5,0.5,0.9,0.8,1.4
				c0.3,0.4,0.6,0.9,0.9,1.3l1.1,1.2c0.3,0.4,0.8,0.7,1.2,1c0.4,0.3,0.8,0.7,1.3,0.9l1.3,0.8l0.4,0.2l0,0.4c0,0.7,0,1.4-0.1,2.2
				c0,0.7,0,1.4,0,2.2c0,0.7,0,1.4,0.1,2.2c0,0.4,0.1,0.7,0.1,1.1c0,0.4,0.1,0.7,0.1,1.1c0.1,0.7,0.2,1.4,0.3,2.1
				c0.2,0.7,0.3,1.4,0.5,2.1c0.1,0.3,0.2,0.7,0.4,1c0.2,0.3,0.3,0.7,0.5,1c0.2,0.3,0.4,0.6,0.6,0.9l0.7,0.8l-0.1,0.1
				c-0.3-0.2-0.6-0.5-0.9-0.7c-0.3-0.3-0.5-0.6-0.8-0.9c-0.3-0.3-0.4-0.6-0.6-0.9c-0.2-0.3-0.4-0.7-0.5-1c-0.2-0.3-0.3-0.7-0.4-1
				c-0.1-0.4-0.3-0.7-0.4-1.1c-0.2-0.7-0.4-1.5-0.5-2.2c-0.1-0.4-0.1-0.7-0.2-1.1c0-0.4-0.1-0.7-0.1-1.1c-0.1-0.7-0.1-1.5-0.2-2.2
				c0-1.5,0-3,0.1-4.5l0.3,0.6l-1.4-1c-0.5-0.3-0.9-0.7-1.3-1.1c-0.4-0.4-0.9-0.7-1.2-1.2l-1.1-1.3c-0.3-0.4-0.6-0.9-0.9-1.4
				c-0.3-0.5-0.6-1-0.8-1.4c-0.2-0.5-0.5-1-0.7-1.5l-0.6-1.5l-0.5-1.6c-0.2-0.5-0.3-1.1-0.4-1.6c-0.1-0.5-0.2-1.1-0.3-1.6
				c-0.1-0.5-0.2-1.1-0.3-1.6c-0.2-1.1-0.3-2.2-0.3-3.3c-0.1-1.1-0.1-2.2,0-3.3L168.3,333.5z"/>
		</g>
		<path fill="#231F20" stroke="#231F20" stroke-width="0.709" stroke-miterlimit="10" d="M200.1,300.3c0,0,10.5-3.9,16.6,0.5
			c0.1,0.1,0.3-0.1,0.2-0.2c-1.5-1.5-4.8-3.9-10.9-4.1C206,296.5,201.5,298.6,200.1,300.3z"/>
		<g>
			<path fill="#231F20" d="M221,302.1c0,0-0.3,0-0.7,0c-0.4,0-1-0.1-1.5-0.1c-0.3,0-0.6,0-0.8-0.1c-0.2-0.1-0.5-0.2-0.6-0.4
				c-0.4-0.3-0.5-0.7-0.5-0.7l0-0.1c0,0,0.4-0.2,0.8-0.3c0.2,0,0.5,0,0.7,0c0.2,0.1,0.5,0.3,0.7,0.4c0.5,0.3,1,0.5,1.4,0.7
				c0.4,0.2,0.6,0.4,0.6,0.4L221,302.1z"/>
		</g>
		<g>
			<path fill="#A35E2B" d="M167.3,314.4c0,0-0.2,1.3-0.2,3.2c0,0.5,0,1,0,1.5c0.1,0.5,0.1,1.1,0.1,1.7c0.1,1.2,0.4,2.4,0.7,3.6
				c0.1,0.6,0.4,1.2,0.6,1.7c0.3,0.5,0.5,1.1,0.8,1.6c0.3,0.5,0.5,1,0.9,1.4c0.3,0.4,0.6,0.8,0.9,1.1c0.3,0.3,0.6,0.6,0.9,0.9
				c0.3,0.3,0.6,0.4,0.8,0.6c0.4,0.3,0.7,0.6,0.7,0.6l-0.1,0.1c0,0-0.3-0.1-0.9-0.3c-0.3-0.1-0.6-0.2-1-0.4
				c-0.3-0.2-0.7-0.5-1.2-0.7c-0.4-0.3-0.8-0.7-1.2-1.1c-0.4-0.4-0.7-1-1.1-1.5c-0.3-0.6-0.5-1.2-0.8-1.8c-0.2-0.6-0.4-1.3-0.5-1.9
				c-0.3-1.3-0.4-2.6-0.4-3.8c0-1.2,0-2.4,0.1-3.3c0.2-1.9,0.5-3.2,0.5-3.2L167.3,314.4z"/>
		</g>
		<path fill="#F4BED8" stroke="#AF7197" stroke-width="1.418" stroke-miterlimit="10" d="M178.7,321.5c0,0,9.8,6.9,11.5-1.4
			l-5.7-4.3L178.7,321.5z"/>
		<g>
			<path fill="#A35E2B" d="M173.6,302.8c0,0,0-0.4,0.1-1.1c0.1-0.4,0.1-0.8,0.3-1.3c0.1-0.5,0.3-1,0.5-1.6c0.2-0.6,0.5-1.2,0.8-1.8
				c0.3-0.7,0.7-1.3,1.1-2c0.4-0.6,0.9-1.3,1.4-2c0.5-0.6,1-1.3,1.6-1.9c0.6-0.6,1.1-1.2,1.7-1.8c0.6-0.6,1.2-1.1,1.8-1.6
				c0.6-0.4,1.2-0.9,1.8-1.3c0.6-0.4,1.2-0.7,1.8-1c1.1-0.6,2.1-0.9,2.7-1.2c0.7-0.3,1.1-0.4,1.1-0.4l0.1,0.1c0,0-0.3,0.3-0.9,0.7
				c-0.3,0.2-0.6,0.5-1,0.8c-0.4,0.3-0.9,0.6-1.3,1c-0.5,0.4-1,0.7-1.6,1.1c-0.5,0.4-1.1,0.9-1.7,1.3c-0.6,0.4-1.2,0.9-1.8,1.4
				c-0.6,0.5-1.2,1-1.8,1.6c-0.6,0.5-1.1,1.1-1.7,1.7c-0.5,0.6-1,1.2-1.4,1.8c-0.4,0.6-0.8,1.2-1.2,1.8c-0.4,0.6-0.6,1.2-0.9,1.7
				c-0.2,0.6-0.5,1.1-0.6,1.5c-0.2,0.5-0.3,0.9-0.4,1.2c-0.2,0.7-0.2,1.1-0.2,1.1L173.6,302.8z"/>
		</g>
		<path fill="none" stroke="#231F20" stroke-width="1.418" stroke-miterlimit="10" d="M173.6,305.6c0,0,4.5-3,7.1-2.7l0-2.1
			C180.7,300.7,175.7,302.4,173.6,305.6z"/>
		<polygon fill="#FF9E50" points="234.4,387.3 228.2,365.6 178.5,350.1 168.1,376.2 199.8,397.8 		"/>
		<path fill="#FF9E50" d="M180.6,324.2c0,0,1.6-4.1,4.8-5.5c0,0,3,4.2,5.4,5.9l3.1-4.9l-5.3-4l-4.7-3.2l-8.5,8.9l1.7,4.4
			L180.6,324.2z"/>
		
			<use xlink:href="#New_Symbol_6"  width="1" height="2.2" x="-0.5" y="-1.1" transform="matrix(-0.2267 1.0955 1.1526 0.2385 197.9097 324.8747)" overflow="visible"/>
		
			<use xlink:href="#New_Symbol_6"  width="1" height="2.2" x="-0.5" y="-1.1" transform="matrix(6.452785e-02 1.1168 1.175 -6.788865e-02 200.0399 322.1346)" overflow="visible"/>
		
			<use xlink:href="#New_Symbol_6"  width="1" height="2.2" x="-0.5" y="-1.1" transform="matrix(-0.1914 1.1022 1.1596 0.2014 202.7697 319.7408)" overflow="visible"/>
		
			<use xlink:href="#New_Symbol_6"  width="1" height="2.2" id="XMLID_25_" x="-0.5" y="-1.1" transform="matrix(0.195 1.1016 1.159 -0.2051 196.8568 320.0457)" overflow="visible"/>
		
			<use xlink:href="#New_Symbol_6"  width="1" height="2.2" id="XMLID_27_" x="-0.5" y="-1.1" transform="matrix(4.615156e-02 1.1178 1.176 -4.855528e-02 202.7308 325.2206)" overflow="visible"/>
		
			<use xlink:href="#New_Symbol_6"  width="1" height="2.2" x="-0.5" y="-1.1" transform="matrix(-1.1142 -0.1001 -0.1054 1.1722 171.2224 322.1369)" overflow="visible"/>
		
			<use xlink:href="#New_Symbol_6"  width="1" height="2.2" x="-0.5" y="-1.1" transform="matrix(-1.1038 -0.1818 -0.1912 1.1613 173.1648 324.3741)" overflow="visible"/>
		
			<use xlink:href="#New_Symbol_6"  width="1" height="2.2" x="-0.5" y="-1.1" transform="matrix(-1.0935 -0.2361 -0.2484 1.1505 176.1546 327.2015)" overflow="visible"/>
		
			<use xlink:href="#New_Symbol_6"  width="1" height="2.2" x="-0.5" y="-1.1" transform="matrix(-1.0201 -0.4593 -0.4832 1.0732 176.8056 321.918)" overflow="visible"/>
		
			<use xlink:href="#New_Symbol_6"  width="1" height="2.2" x="-0.5" y="-1.1" transform="matrix(-1.0582 0.3629 0.3818 1.1133 170.6809 326.94)" overflow="visible"/>
		
			<path fill="#AF7664" stroke="#E59D8C" stroke-width="1.418" stroke-linecap="round" stroke-linejoin="round" stroke-miterlimit="10" d="
			M176.3,308.5c1.4,1.5,3.6,3.5,5.6,4l0.2,0.6c0.3,0.8,1.1,1.4,2,1.4l0,0c0.8,0,1.6-0.5,1.9-1.3l0.8-1.7c0,0,7.4-5,7.2-6.9
			s-4.4-5.5-9.5-5.1c-3.3,0.2-6.4,3.1-8.2,5.2C175.2,305.7,175.2,307.4,176.3,308.5z"/>
		
			<path fill="#AF7664" stroke="#E59D8C" stroke-width="1.418" stroke-linecap="round" stroke-linejoin="round" stroke-miterlimit="10" d="
			M186.7,311.4c0,0-2.8-6.1,0-6.6c2.8-0.5,6.8,0.8,6.8,0.8"/>
		
			<path fill="#AF7664" stroke="#E59D8C" stroke-width="1.418" stroke-linecap="round" stroke-linejoin="round" stroke-miterlimit="10" d="
			M181.9,312.5c0,0-1.6-3.1-1.9-5c-0.1-0.4-0.4-0.7-0.8-0.8c-0.8-0.2-2,0-3,1.9"/>
		<g>
			<path fill="#A35E2B" d="M178.6,329.8c0.1-1.1,0.3-2.2,0.6-3.3c0.3-1.1,0.6-2.2,1.1-3.2c0.1-0.3,0.3-0.5,0.4-0.8
				c0.2-0.2,0.3-0.5,0.5-0.7c0.3-0.5,0.7-0.9,1.1-1.4c0.2-0.2,0.4-0.4,0.6-0.6c0.2-0.2,0.4-0.4,0.7-0.6c0.2-0.2,0.5-0.4,0.7-0.5
				l0.8-0.5l0.6-0.3l0.4,0.6c0.4,0.6,0.8,1.2,1.2,1.7c0.4,0.6,0.9,1.1,1.4,1.6c0.5,0.5,1,1,1.5,1.5c0.5,0.5,1.1,0.9,1.7,1.3l0.9,0.6
				l0.9,0.6c0.6,0.4,1.2,0.7,1.9,1c0.7,0.3,1.3,0.6,2,0.8l1,0.3l1,0.3l0.5,0.1c0.1,0,0.3,0.1,0.5,0.1l1.1,0.1c0.4,0.1,0.7,0,1,0
				c0.3,0,0.7,0,1,0l1-0.1c0.3-0.1,0.7-0.2,1-0.3c0.3-0.1,0.6-0.2,1-0.4c0.3-0.1,0.6-0.3,0.9-0.5c0.6-0.3,1.2-0.7,1.7-1.2l0.8-0.7
				l0.7-0.8c0.5-0.5,0.9-1.1,1.3-1.7c0.4-0.6,0.7-1.2,1-1.8l0.3-0.6l0.6,0.2l1.7,0.6c0.6,0.2,1.1,0.4,1.7,0.5
				c0.6,0.2,1.2,0.3,1.7,0.4c0.6,0.1,1.2,0.2,1.8,0.1c-0.6,0.2-1.2,0.2-1.8,0.3c-0.6,0-1.2,0-1.8-0.1c-0.6,0-1.2-0.1-1.8-0.2
				c-0.6-0.1-1.2-0.2-1.8-0.3l0.9-0.4c-0.4,0.7-0.7,1.4-1.2,2c-0.4,0.6-0.9,1.2-1.4,1.8l-0.8,0.8l-0.9,0.8c-0.6,0.5-1.2,0.9-1.9,1.3
				c-0.3,0.2-0.7,0.4-1.1,0.5c-0.4,0.2-0.7,0.3-1.1,0.4c-0.4,0.1-0.8,0.2-1.1,0.3l-1.2,0.2c-0.4,0.1-0.8,0-1.2,0.1
				c-0.4,0-0.8,0-1.2,0l-1.1-0.1c-0.2,0-0.3,0-0.6-0.1l-0.6-0.1l-1.1-0.3l-1.1-0.4c-0.7-0.2-1.4-0.6-2.1-0.9c-0.7-0.3-1.4-0.7-2-1.1
				l-1-0.6l-0.9-0.7c-0.6-0.5-1.2-0.9-1.8-1.4c-0.6-0.5-1.1-1-1.6-1.6c-0.5-0.6-1-1.1-1.5-1.7c-0.5-0.6-0.9-1.2-1.3-1.9l0.9,0.3
				l-0.6,0.4c-0.2,0.1-0.4,0.3-0.6,0.5c-0.2,0.2-0.4,0.3-0.6,0.5c-0.2,0.2-0.4,0.4-0.5,0.6c-0.3,0.4-0.7,0.8-1,1.3
				c-0.2,0.2-0.3,0.4-0.4,0.7c-0.1,0.2-0.3,0.4-0.4,0.7c-0.6,0.9-1.1,1.9-1.6,2.8C179.5,327.7,179,328.7,178.6,329.8z"/>
		</g>
		
			<use xlink:href="#New_Symbol_13"  width="94.2" height="61.6" id="XMLID_24_" x="-47.1" y="-30.8" transform="matrix(0.709 2.629731e-03 2.629731e-03 -0.709 238.0585 315.3798)" overflow="visible"/>
		
			<use xlink:href="#New_Symbol_13"  width="94.2" height="61.6" x="-47.1" y="-30.8" transform="matrix(-0.6513 0.2801 -0.2801 -0.6513 142.7456 332.2453)" overflow="visible"/>
		<path fill="#916445" stroke="#3B2314" stroke-width="1.9969" stroke-miterlimit="10" d="M7.7,284c0,0,73,79.8,89.5,77.2
			c13.7-2.1,24.7-10.6,45.9-35.5c12.7-15,29.6-31.4,44.4-37.9c18.4-1.2,26.8-14.7,59,5.6l0,0c1.1,0.6,3,0.8,3.3-0.4
			c4.2-14.7-31.4-30-31.4-30c-6.3-3.8-13.9-4.8-20.9-2.8l-5.4,1.6c-26,7.5-51.1,17.8-74.9,30.6l-11.7,6.3L56.8,257L7.7,284z"/>
		<path fill="#FFF87D" stroke="#C1BE4F" stroke-width="2.7679" stroke-miterlimit="10" d="M-33.2,206
			c-30.3,30.2,31.7,104.7,91.9,144.7c0,0,38.3-26.5,56.6-86.5c0.6-2-0.3-4.2-2.3-5.2c-7.3-3.6-25.4-13-43.1-26
			C51.3,219.1-3.1,176-33.2,206z"/>
		<path fill="#A8E058" stroke="#73A02D" stroke-width="2.7679" stroke-miterlimit="10" d="M516.2,228.6
			C542.9,262,472.8,329,408.5,362c0,0-35-30.7-46.5-92.3c-0.4-2.1,0.8-4.2,2.8-4.9c7.6-2.7,26.7-10.1,45.7-21
			C430.7,232.2,489.7,195.4,516.2,228.6z"/>
		
			<path fill="#271D14" stroke="#59351B" stroke-width="2.0974" stroke-linecap="round" stroke-linejoin="round" stroke-miterlimit="10" d="
			M22,145.5c0,0,32.6,7.6,56.3-27.5l22-8.4l13.8,19c2.5,3.4,6.7,5.1,10.9,4.3c9.4-1.8,26.9-6.4,44.2-17.7c0,0,18.4,4.3,16.7,27.2
			c0,0,35.6-2,14.1-29.9c0,0,21.6-20.5-10-27c0,0,8.8-28-24.4-25.7c0,0-1.2-29.3-31.6-20.7c0,0-13.9-28.3-39.4-6.3
			c0,0-20.6-23-40.7,5.7c0,0-22.2-7.7-22.8,23.6C31.2,62.1,7.1,86.3,22,145.5z"/>
		<path fill="#916445" stroke="#3B2314" stroke-width="1.9969" stroke-miterlimit="10" d="M101.6,115c0,0,12.1-15.9-6.5-27.4
			c-19.8-12.2-50.2,16.7-33.3,41.8c1.6,2.4,3.6,4.5,5.7,6.4c2.5,2.2,7,6.7,9,11.5"/>
		<g>
			<path fill="#271D14" d="M34.1,97c0,0-6.4-23.6,8.9-32.4c0,0-3.7-22.6,22.9-16c0,0,9.9-16.4,31.2-8.2"/>
			<path fill="#59351B" d="M34,97c-0.8-2.9-1.2-5.9-1.4-8.9c-0.2-3-0.1-6.1,0.4-9c0.1-0.7,0.3-1.5,0.5-2.2c0.2-0.7,0.4-1.5,0.7-2.2
				c0.3-0.7,0.5-1.4,0.9-2.1c0.3-0.7,0.7-1.4,1.1-2c0.4-0.6,0.8-1.3,1.3-1.9c0.2-0.3,0.5-0.6,0.8-0.9c0.3-0.3,0.5-0.6,0.8-0.8
				c0.6-0.5,1.1-1.1,1.8-1.5c0.6-0.5,1.3-0.9,1.9-1.3l-0.3,0.6c-0.1-0.8-0.2-1.5-0.2-2.2c0-0.7,0-1.5,0-2.2c0.1-1.5,0.4-3,0.8-4.4
				c0.2-0.7,0.5-1.4,0.9-2.1c0.3-0.7,0.7-1.3,1.2-2c0.5-0.6,1-1.2,1.6-1.7c0.6-0.5,1.2-1,1.9-1.4l1-0.6l1.1-0.4
				c0.4-0.2,0.7-0.2,1.1-0.4c0.4-0.1,0.7-0.2,1.1-0.3c0.7-0.2,1.5-0.3,2.2-0.4c0.8-0.1,1.5-0.1,2.3-0.1c0.7,0,1.5,0,2.2,0.1
				c0.7,0.1,1.5,0.1,2.2,0.2c0.7,0.1,1.5,0.2,2.2,0.4l2.2,0.5l-1,0.4c0.4-0.7,0.9-1.3,1.4-1.9c0.5-0.6,1-1.1,1.5-1.7
				c0.5-0.5,1.1-1,1.7-1.5c0.6-0.5,1.2-1,1.8-1.4c0.6-0.4,1.3-0.8,1.9-1.2c0.7-0.3,1.3-0.7,2-1l2.1-0.8l2.2-0.6
				c0.7-0.2,1.5-0.2,2.2-0.4l1.1-0.1c0.4,0,0.8,0,1.1,0c0.7,0,1.5,0,2.2,0l2.2,0.3c0.4,0,0.7,0.1,1.1,0.1l1.1,0.3l2.1,0.6
				c0.7,0.2,1.4,0.5,2.1,0.8l2,0.8c0,0,0.1,0.1,0.1,0.1c0,0-0.1,0.1-0.1,0.1l0,0L95,39.9c-0.7-0.2-1.4-0.4-2.1-0.5L90.8,39l-1.1-0.2
				c-0.4,0-0.7,0-1.1-0.1l-2.1-0.1c-0.7,0-1.4,0.1-2.1,0.1c-0.4,0-0.7,0-1.1,0.1l-1,0.2c-0.7,0.1-1.4,0.2-2.1,0.4l-2,0.6l-1.9,0.8
				c-0.6,0.3-1.2,0.7-1.9,1c-0.6,0.3-1.2,0.8-1.8,1.2c-0.6,0.4-1.1,0.9-1.7,1.3c-0.5,0.5-1,0.9-1.5,1.4c-0.5,0.5-1,1-1.4,1.6
				c-0.4,0.5-0.9,1.1-1.2,1.6l0,0c-0.2,0.3-0.6,0.5-1,0.4L63.7,49c-0.7-0.2-1.4-0.3-2.1-0.4c-0.7-0.1-1.4-0.2-2.1-0.3
				c-0.7-0.1-1.4-0.1-2.1-0.1c-0.7,0-1.4,0-2.1,0.1c-0.7,0.1-1.4,0.1-2.1,0.3c-0.3,0.1-0.7,0.1-1,0.2c-0.3,0.1-0.7,0.2-1,0.3l-1,0.4
				l-0.9,0.5c-1.2,0.7-2.2,1.6-3.1,2.6c-0.4,0.5-0.8,1.1-1.1,1.7c-0.3,0.6-0.6,1.2-0.8,1.9c-0.4,1.3-0.7,2.7-0.8,4.1
				c-0.1,0.7-0.1,1.4-0.1,2.1c0,0.7,0,1.4,0.1,2.1c0,0.2-0.1,0.5-0.3,0.6l0,0c-0.6,0.4-1.3,0.7-1.8,1.2c-0.6,0.4-1.1,0.9-1.7,1.4
				c-0.3,0.2-0.5,0.5-0.8,0.8c-0.3,0.3-0.5,0.5-0.7,0.8c-0.5,0.6-0.9,1.2-1.3,1.8c-0.4,0.6-0.8,1.2-1.1,1.9c-0.4,0.6-0.6,1.3-0.9,2
				c-0.3,0.7-0.5,1.4-0.7,2.1c-0.2,0.7-0.4,1.4-0.5,2.2c-0.6,2.9-0.8,5.9-0.7,8.9c0.1,3,0.5,6,1.1,8.9c0,0,0,0.1-0.1,0.1
				C34.1,97.1,34.1,97,34,97z"/>
		</g>
		<g>
			<path fill="#271D14" d="M134.2,56.7c0,0,23.7-5,32.1,8.8c0,0,22.6-2.7,15.4,20.7c0,0,16.1,9.2,7.4,27.8"/>
			<path fill="#59351B" d="M134.1,56.6c2.9-0.6,5.8-0.9,8.8-1c2.9-0.1,5.9,0.1,8.8,0.6c2.9,0.5,5.8,1.4,8.4,2.9
				c0.6,0.4,1.3,0.8,1.9,1.2c0.6,0.4,1.2,0.9,1.8,1.4c0.5,0.5,1.1,1.1,1.5,1.7c0.5,0.6,0.9,1.2,1.3,1.8l-0.5-0.3
				c1.4-0.2,2.8-0.1,4.2,0c1.4,0.1,2.8,0.3,4.1,0.7c0.7,0.2,1.3,0.4,2,0.7c0.3,0.1,0.6,0.3,1,0.4c0.3,0.2,0.6,0.3,0.9,0.5
				c0.3,0.2,0.6,0.4,0.9,0.6c0.3,0.2,0.6,0.4,0.8,0.7c0.3,0.2,0.5,0.5,0.8,0.8c0.3,0.3,0.5,0.5,0.7,0.8c0.2,0.3,0.4,0.6,0.6,0.9
				c0.2,0.3,0.4,0.6,0.5,1c0.1,0.3,0.3,0.7,0.4,1l0.3,1c0.2,0.7,0.3,1.4,0.4,2.1c0.1,0.7,0.1,1.4,0.1,2.1c0,0.7-0.1,1.4-0.1,2.1
				c-0.1,0.7-0.2,1.4-0.3,2.1c-0.1,0.7-0.3,1.4-0.4,2l-0.5,2l-0.4-1.1c0.6,0.4,1.2,0.8,1.7,1.2c0.5,0.4,1.1,0.9,1.6,1.3
				c0.5,0.5,1,1,1.5,1.5c0.5,0.5,0.9,1.1,1.3,1.6l1.2,1.7l1,1.8c0.3,0.6,0.5,1.3,0.8,1.9c0.3,0.6,0.4,1.3,0.6,2
				c0.2,0.7,0.3,1.3,0.4,2c0.1,0.7,0.2,1.4,0.1,2l0,2l-0.3,2l-0.2,1l-0.3,1l-0.6,1.9c-0.2,0.6-0.5,1.2-0.8,1.8l-0.8,1.8
				c0,0-0.1,0.1-0.1,0c0,0-0.1-0.1,0-0.1l0,0l0.6-1.9c0.2-0.6,0.5-1.2,0.6-1.9l0.4-1.9l0.2-1l0.1-1l0.2-1.9l-0.1-1.9
				c0-0.6-0.1-1.3-0.3-1.9c-0.1-0.6-0.2-1.3-0.4-1.9c-0.2-0.6-0.3-1.2-0.6-1.8c-0.3-0.6-0.5-1.2-0.8-1.7l-1-1.6l-1.1-1.5l-1.3-1.4
				c-0.5-0.4-0.9-0.9-1.4-1.3c-0.5-0.4-1-0.8-1.5-1.2c-0.5-0.4-1-0.8-1.5-1.1l0,0c-0.4-0.2-0.5-0.7-0.4-1l0.5-1.9
				c0.2-0.6,0.3-1.3,0.4-1.9c0.1-0.6,0.2-1.3,0.3-1.9c0-0.6,0.1-1.3,0.1-1.9c0-0.6,0-1.3-0.1-1.9c0-0.6-0.2-1.3-0.3-1.9l-0.3-0.9
				c-0.1-0.3-0.2-0.6-0.3-0.9c-0.1-0.3-0.3-0.6-0.4-0.8c-0.1-0.3-0.3-0.5-0.5-0.8c-0.2-0.3-0.4-0.5-0.6-0.7
				c-0.2-0.2-0.4-0.5-0.7-0.7c-0.2-0.2-0.5-0.4-0.7-0.6c-0.2-0.2-0.5-0.4-0.8-0.6c-0.3-0.2-0.5-0.3-0.8-0.5
				c-0.3-0.2-0.6-0.3-0.9-0.4c-0.6-0.3-1.2-0.5-1.8-0.7c-1.2-0.4-2.5-0.6-3.9-0.7c-1.3-0.1-2.7-0.1-3.9,0c-0.2,0-0.4-0.1-0.5-0.2
				l0,0c-0.4-0.6-0.8-1.2-1.2-1.7c-0.4-0.6-0.9-1.1-1.4-1.6c-0.5-0.5-1-1-1.6-1.4c-0.6-0.5-1.2-0.8-1.8-1.2c-2.5-1.5-5.3-2.4-8.1-3
				c-2.9-0.6-5.8-0.8-8.7-0.8c-2.9,0-5.9,0.2-8.7,0.7c0,0-0.1,0-0.1-0.1C134.1,56.7,134.1,56.6,134.1,56.6z"/>
		</g>
		<g>
			<path fill="#271D14" d="M46.6,90.4c0,0,6.9-23.2,23-24c0,0,8.4-21.1,25.5-3.7c0,0,15.7-9.8,28,6.8"/>
			<path fill="#59351B" d="M46.5,90.4c0.9-2.8,2-5.5,3.3-8.2c1.3-2.6,2.9-5.2,4.7-7.5c1.8-2.3,4-4.4,6.5-6c0.6-0.4,1.3-0.8,2-1.1
				c0.7-0.3,1.4-0.6,2.1-0.9c0.7-0.2,1.4-0.4,2.2-0.6c0.7-0.2,1.5-0.2,2.3-0.3l-0.5,0.3c0.5-1.3,1.2-2.5,1.9-3.7
				c0.7-1.2,1.6-2.3,2.6-3.3c0.5-0.5,1-1,1.6-1.4c0.3-0.2,0.6-0.4,0.9-0.6c0.3-0.2,0.6-0.4,0.9-0.6c0.3-0.2,0.6-0.3,1-0.5
				c0.3-0.2,0.7-0.3,1-0.4c0.3-0.1,0.7-0.2,1-0.3c0.3-0.1,0.7-0.2,1.1-0.2c0.4-0.1,0.7-0.1,1.1-0.1c0.4,0,0.7,0,1.1,0
				c0.4,0,0.7,0,1.1,0.1l1.1,0.2c0.7,0.2,1.4,0.4,2,0.7c0.7,0.2,1.3,0.6,1.9,0.9c0.6,0.3,1.2,0.7,1.8,1.1c0.6,0.4,1.1,0.8,1.7,1.2
				c0.5,0.5,1.1,0.9,1.6,1.4l1.5,1.4L94.7,62c0.6-0.4,1.2-0.7,1.9-0.9c0.6-0.3,1.3-0.5,1.9-0.7c0.6-0.2,1.3-0.4,2-0.6
				c0.7-0.2,1.3-0.3,2-0.4l2.1-0.2l2.1,0c0.7,0.1,1.4,0.1,2.1,0.2c0.7,0.1,1.3,0.3,2,0.4c0.7,0.1,1.3,0.4,1.9,0.6
				c0.6,0.3,1.3,0.5,1.9,0.9l1.8,1l1.6,1.2l0.8,0.6l0.7,0.7l1.4,1.4c0.5,0.5,0.8,1.1,1.2,1.6l1.2,1.6c0,0,0,0.1,0,0.1
				c0,0-0.1,0-0.1,0l0,0l-1.3-1.5c-0.5-0.5-0.9-1-1.4-1.4l-1.5-1.3l-0.7-0.6l-0.8-0.5l-1.6-1.1l-1.7-0.8c-0.6-0.3-1.2-0.5-1.8-0.7
				c-0.6-0.2-1.2-0.4-1.8-0.5c-0.6-0.1-1.2-0.3-1.9-0.3c-0.6,0-1.3-0.1-1.9-0.1l-1.9,0.1l-1.9,0.3l-1.9,0.4
				c-0.6,0.2-1.2,0.3-1.8,0.6c-0.6,0.2-1.2,0.4-1.8,0.7c-0.6,0.3-1.2,0.6-1.7,0.8l0,0c-0.4,0.2-0.8,0.1-1.1-0.1L93.1,62
				c-0.5-0.4-1-0.9-1.5-1.3c-0.5-0.4-1-0.8-1.6-1.2c-0.5-0.3-1.1-0.7-1.6-1c-0.6-0.3-1.1-0.6-1.7-0.9c-0.6-0.3-1.2-0.4-1.8-0.6
				L84,56.7c-0.3-0.1-0.6-0.1-0.9-0.1c-0.3-0.1-0.6,0-0.9,0c-0.3,0-0.6,0-0.9,0.1c-0.3,0-0.6,0.1-0.9,0.2c-0.3,0.1-0.6,0.1-0.9,0.2
				c-0.3,0.1-0.6,0.2-0.9,0.3c-0.3,0.1-0.6,0.3-0.9,0.4c-0.3,0.1-0.6,0.3-0.8,0.5c-0.3,0.2-0.5,0.4-0.8,0.6c-0.5,0.4-1,0.8-1.5,1.3
				c-0.9,0.9-1.8,1.9-2.5,3c-0.7,1.1-1.4,2.3-1.9,3.4c-0.1,0.2-0.3,0.3-0.5,0.3l0,0c-0.7,0.1-1.4,0.1-2.1,0.2
				c-0.7,0.1-1.4,0.3-2.1,0.5c-0.7,0.2-1.4,0.5-2,0.8c-0.7,0.3-1.3,0.6-1.9,1c-2.5,1.5-4.6,3.5-6.5,5.7c-1.9,2.2-3.5,4.7-4.9,7.3
				c-1.4,2.6-2.6,5.3-3.5,8c0,0-0.1,0.1-0.1,0.1C46.6,90.5,46.5,90.4,46.5,90.4z"/>
		</g>
		
			<path fill="#271D13" stroke="#59351A" stroke-width="2.4962" stroke-linecap="round" stroke-linejoin="round" stroke-miterlimit="10" d="
			M300.3,116.6c0,0-3,20.3,3.3,23.5c6.2,3.3,14.3-24.4,15.5-34.5c0,0,25.4,27.3,36.2,22.3c10.8-5-2.7-24.5-2.7-24.5
			s20.9,30.5,56.8,22.7c0,0,3,33.4,16.1,28.9c13.1-4.5,4.1-28.1,4.1-28.1s22.1,8.4,26.1,7.1c0,0,20.9,15.3,27.2,11.2
			c6.3-4.1,0.7-25.4-8.9-33.2c0,0,7.4,4.7,10.2,3.7c2.8-0.9-0.5-20.3-16.3-28.2c0,0,14.2,7,17,4.7c2.9-2.3-3.9-16.6-22.6-23.6
			c0,0,10.3,1.3,11.4-0.4c2.3-3.7-6.7-25.4-64.6-28.5c0,0,22.2-7.7,19.4-15.1s-41.4,2.1-52.8,9.8c0,0,11.4-12.4,6.9-17.9
			s-35.3,15-49.6,35.2c0,0,5.2-18.9-1-23.1s-16.6,31.7-16.6,31.7s-2.8-12.5-9-12c-6.2,0.4-6.9,19.3-3.5,22.1c0,0-24.5,9.5-22.8,19.7
			c1.1,5.5,22.7-0.8,22.7-0.8S269,116,276.4,127.6C280.9,134.5,300.3,116.6,300.3,116.6z"/>
		<g>
			<path fill="#59351A" d="M400.5,60.5c2.6,1.4,5.1,3.2,7.3,5.2c1.1,1,2.2,2.1,3.2,3.3c0.2,0.3,0.5,0.6,0.7,0.9
				c0.2,0.3,0.4,0.6,0.6,1c0.4,0.7,0.8,1.4,1.1,2.1c0.3,0.7,0.5,1.5,0.7,2.3c0.1,0.4,0.1,0.8,0.1,1.2c0,0.4,0,0.8,0,1.2
				c-0.1,0.8-0.3,1.6-0.6,2.4c-0.3,0.8-0.8,1.5-1.2,2.1c-0.5,0.6-1,1.3-1.6,1.8c-0.6,0.6-1.2,1-1.8,1.5c-0.6,0.5-1.3,0.8-2,1.3
				l-2,1.1l-0.2-2.2c1,0.2,2,0.5,2.9,0.8c1,0.3,1.9,0.6,2.8,1c1.9,0.7,3.7,1.5,5.5,2.3c0.9,0.4,1.8,0.9,2.7,1.4
				c0.9,0.5,1.7,1.1,2.5,1.7c0.8,0.6,1.6,1.2,2.4,1.9c0.4,0.3,0.8,0.7,1.1,1c0.4,0.4,0.7,0.7,1.1,1.1c0.7,0.8,1.3,1.6,1.9,2.5
				c0.3,0.5,0.5,0.9,0.8,1.4c0.2,0.5,0.4,1,0.6,1.4l0.5,1.5l0.3,1.6c0.1,1,0.2,2.1,0.1,3.1l-0.1,0.8l-0.1,0.8
				c-0.1,0.5-0.2,1-0.3,1.5l-0.5,1.5c-0.2,0.5-0.4,0.9-0.6,1.4c-0.4,0.9-0.9,1.8-1.4,2.7c-0.5,0.9-1.1,1.7-1.7,2.5l-0.1-0.8
				c0.4,0.4,0.7,0.8,1,1.2c0.3,0.4,0.6,0.9,0.9,1.3c0.6,0.9,1.1,1.8,1.6,2.7c0.5,0.9,0.9,1.9,1.3,2.9c0.2,0.5,0.3,1,0.5,1.5
				c0.2,0.5,0.3,1,0.4,1.5c-0.2-0.5-0.4-1-0.6-1.4c-0.2-0.5-0.4-0.9-0.7-1.4c-0.5-0.9-1-1.8-1.5-2.7c-0.6-0.9-1.1-1.7-1.8-2.5
				c-0.3-0.4-0.6-0.8-1-1.2c-0.3-0.4-0.7-0.7-1-1c-0.2-0.2-0.3-0.5-0.1-0.8l0-0.1c0.5-0.8,1-1.6,1.4-2.5c0.4-0.9,0.9-1.7,1.2-2.6
				c0.2-0.4,0.3-0.9,0.5-1.3l0.4-1.4c0.1-0.4,0.2-0.9,0.2-1.4l0.1-0.7l0-0.7c0.1-0.9-0.1-1.8-0.2-2.7l-0.3-1.3l-0.4-1.3
				c-0.2-0.4-0.4-0.8-0.6-1.2c-0.2-0.4-0.5-0.8-0.7-1.2c-0.5-0.8-1.1-1.5-1.7-2.2c-0.3-0.3-0.6-0.7-1-1c-0.3-0.3-0.7-0.6-1-0.9
				c-0.7-0.6-1.5-1.2-2.2-1.7c-0.8-0.5-1.6-1-2.4-1.5c-0.8-0.5-1.7-0.9-2.5-1.3c-1.7-0.9-3.5-1.6-5.3-2.3c-0.9-0.3-1.8-0.7-2.7-0.9
				c-0.9-0.3-1.8-0.6-2.7-0.8l0,0c-0.6-0.2-1-0.8-0.8-1.5c0.1-0.3,0.3-0.6,0.6-0.8l1.9-1c0.6-0.4,1.2-0.7,1.8-1.1
				c0.6-0.4,1.2-0.8,1.7-1.3c0.5-0.4,1-1,1.4-1.4c0.4-0.5,0.8-1.1,1.1-1.7c0.3-0.6,0.5-1.2,0.6-1.9c0.1-0.3,0.1-0.6,0.1-1
				c0-0.3,0-0.7,0-1c-0.1-0.7-0.2-1.3-0.5-2c-0.2-0.7-0.5-1.3-0.8-1.9c-0.2-0.3-0.3-0.6-0.5-0.9c-0.2-0.3-0.4-0.6-0.6-0.9
				c-0.8-1.2-1.7-2.3-2.7-3.4c-1-1.1-2.1-2.1-3.2-3.1C402.8,62.3,401.7,61.4,400.5,60.5z"/>
		</g>
		<g>
			<path fill="#59351A" d="M438.3,103.6c1.4,1,2.9,1.9,4.4,2.7c1.5,0.9,3,1.6,4.6,2.3c1.6,0.7,3.1,1.3,4.8,1.8
				c1.6,0.4,3.3,0.8,4.9,0.8c1.6,0,3.2-0.3,4.6-1.1l0.1-0.1l0.1,0l0,0l0,0c-0.1,0.1,0,0-0.1,0l0.3-0.2c0.2-0.1,0.4-0.3,0.4-0.4
				c0.1-0.1,0.2-0.2,0.3-0.4l0.3-0.5c0.3-0.7,0.5-1.4,0.6-2.2c0.2-1.6,0.2-3.3,0-4.9c-0.2-1.7-0.5-3.3-0.9-4.9
				c-0.4-1.6-0.9-3.3-1.4-4.9c-0.5-1.6-1.1-3.2-1.8-4.8c-1.3-3.1-2.7-6.2-4.4-9.2c-0.8-1.5-1.7-2.9-2.6-4.4
				c-0.9-1.4-1.9-2.8-2.9-4.2c-1-1.3-2.1-2.7-3.2-3.9c-1.1-1.3-2.3-2.4-3.6-3.6l0,0c-0.3-0.3-0.3-0.7,0-1c0.2-0.2,0.4-0.3,0.6-0.2
				c1.7,0.4,3.4,0.8,5.1,1.3c1.7,0.5,3.3,1.1,5,1.7c0.8,0.3,1.6,0.7,2.4,1c0.8,0.4,1.6,0.7,2.4,1.2c0.4,0.2,0.8,0.4,1.1,0.6
				c0.4,0.2,0.8,0.4,1.1,0.7c0.4,0.3,0.7,0.5,1.1,0.8l1,0.8l-1.1-0.7c-0.4-0.2-0.7-0.4-1.1-0.7c-0.4-0.2-0.8-0.4-1.1-0.6
				c-0.4-0.2-0.8-0.4-1.2-0.6c-0.8-0.4-1.6-0.7-2.4-1c-0.8-0.3-1.6-0.6-2.4-0.8c-0.8-0.3-1.6-0.5-2.5-0.7c-0.8-0.2-1.7-0.5-2.5-0.7
				c-1.7-0.4-3.4-0.8-5-1.1l0.6-1.2c1.3,1.1,2.6,2.3,3.8,3.6c1.2,1.2,2.4,2.6,3.5,3.9c1.1,1.4,2.1,2.8,3.1,4.2
				c1,1.4,1.9,2.9,2.8,4.4c3.4,6,6.2,12.5,7.8,19.3c0.4,1.7,0.7,3.4,0.9,5.2c0.2,1.8,0.2,3.6-0.1,5.4c0,0.5-0.2,0.9-0.3,1.4
				c-0.2,0.4-0.3,0.9-0.6,1.3l-0.4,0.6c-0.2,0.2-0.4,0.4-0.6,0.6c-0.2,0.2-0.4,0.3-0.5,0.4l-0.3,0.2l-0.1,0.1l0,0l0,0l-0.1,0
				l-0.2,0.1c-1.7,0.9-3.6,1.1-5.4,1.1c-1.8-0.1-3.5-0.5-5.2-1.1c-1.7-0.6-3.2-1.3-4.8-2.1C443.8,107.7,440.9,105.8,438.3,103.6z"/>
		</g>
		<g>
			<path fill="#59351A" d="M406.8,42.9c0,0,0.6-0.1,1.7-0.3c1.1-0.1,2.6-0.3,4.5-0.3c0.9,0,2,0,3,0c1.1,0,2.2,0.1,3.4,0.2
				c1.2,0.2,2.4,0.3,3.6,0.5c1.2,0.2,2.5,0.5,3.7,0.8c0.6,0.2,1.2,0.3,1.8,0.5c0.6,0.2,1.2,0.4,1.8,0.6c1.2,0.3,2.3,0.9,3.4,1.4
				c1.1,0.5,2.1,1.1,3,1.7c0.5,0.3,0.9,0.6,1.3,0.9c0.4,0.3,0.8,0.6,1.2,0.9c0.7,0.6,1.4,1.1,2,1.7c0.5,0.6,1,1,1.4,1.5
				c0.7,0.8,1.1,1.3,1.1,1.3c0,0,0,0.1,0,0.1c0,0-0.1,0-0.1,0l0,0c0,0-0.6-0.3-1.5-0.9c-0.5-0.3-1-0.7-1.6-1.1
				c-0.6-0.4-1.4-0.8-2.2-1.3c-0.4-0.2-0.8-0.5-1.2-0.7c-0.4-0.2-0.9-0.5-1.4-0.7c-0.9-0.5-1.9-1-2.9-1.5c-1-0.5-2.1-1-3.2-1.5
				c-0.6-0.2-1.1-0.5-1.7-0.7c-0.6-0.2-1.2-0.4-1.7-0.6c-1.2-0.4-2.3-0.7-3.5-1c-1.2-0.3-2.3-0.5-3.5-0.7c-1.1-0.2-2.2-0.3-3.3-0.4
				c-1.1-0.1-2.1-0.2-3-0.2c-1.9-0.1-3.4-0.1-4.5,0c-1.1,0-1.7,0.1-1.7,0.1c-0.1,0-0.1,0-0.1-0.1C406.7,43,406.8,42.9,406.8,42.9z"
				/>
		</g>
		<g>
			<path fill="#59351A" d="M309,82.1c0,0,0-0.5,0.2-1.3c0.1-0.4,0.2-0.9,0.4-1.5c0.2-0.6,0.4-1.2,0.7-1.9c0.3-0.7,0.6-1.4,1-2.2
				c0.4-0.8,0.9-1.5,1.3-2.3c0.5-0.8,1-1.6,1.6-2.3c0.6-0.8,1.2-1.5,1.9-2.3c0.7-0.7,1.3-1.5,2-2.1c0.7-0.7,1.4-1.3,2.1-1.9
				c0.7-0.6,1.4-1.2,2-1.7c0.7-0.5,1.3-1,1.9-1.4c0.6-0.4,1.2-0.8,1.7-1.1c0.5-0.3,1-0.6,1.3-0.8c0.7-0.4,1.2-0.6,1.2-0.6
				s-0.3,0.4-0.9,1c-0.6,0.6-1.5,1.4-2.5,2.4c-0.5,0.5-1.1,1.1-1.7,1.6c-0.6,0.6-1.2,1.2-1.8,1.8c-0.7,0.6-1.2,1.3-1.9,2
				c-0.7,0.7-1.3,1.4-1.9,2.1c-0.7,0.7-1.2,1.4-1.8,2.1c-0.6,0.7-1.2,1.4-1.7,2.1c-0.5,0.7-1.1,1.4-1.5,2.1
				c-0.5,0.7-0.9,1.3-1.3,1.9c-0.4,0.6-0.7,1.2-1,1.7c-0.3,0.5-0.5,1-0.7,1.3C309.2,81.7,309,82.1,309,82.1z"/>
		</g>
		<path fill="#916445" stroke="#3B2314" stroke-width="1.9969" stroke-miterlimit="10" d="M392.5,123c0,0-10.2-17.2,9.5-26.5
			c21-9.9,48,22.3,28.4,45.3c-1.9,2.2-4.1,4-6.4,5.7c-2.7,1.9-7.7,5.9-10.2,10.4"/>
		<path fill="#916445" d="M367,126.3c0,0,27.3,7.1,42.4,0l4.1,18.3l-6.7,29.8L367,126.3z"/>
		<g>
			<g>
				<path fill="#231F20" d="M173,256.3c0,0,0.8-0.6,2.3-1.6c0.7-0.5,1.7-1,2.8-1.6c1.1-0.6,2.4-1.2,3.9-1.8c1.4-0.7,3.1-1.1,4.8-1.7
					c1.7-0.4,3.6-1,5.5-1.3c1.9-0.4,3.9-0.6,6-0.8c1-0.1,2.1-0.1,3.1-0.2l1.6-0.1l1.6,0c1,0,2.1,0,3.1,0.1c1,0.1,2.1,0.2,3.1,0.3
					c1,0.1,2,0.3,3,0.4c1,0.2,2,0.3,2.9,0.5c1,0.2,1.9,0.4,2.8,0.6c0.9,0.2,1.8,0.5,2.7,0.8c0.9,0.3,1.7,0.5,2.5,0.8
					c0.8,0.3,1.6,0.6,2.3,0.9c1.5,0.5,2.8,1.1,3.9,1.7c0.6,0.3,1.1,0.5,1.6,0.7c0.5,0.3,0.9,0.5,1.3,0.7c1.6,0.9,2.5,1.4,2.5,1.4
					s-1-0.3-2.7-0.8c-0.9-0.3-1.9-0.6-3.1-0.9c-1.2-0.3-2.5-0.7-4-1c-1.5-0.3-3.1-0.7-4.8-1c-0.9-0.2-1.7-0.4-2.6-0.5
					c-0.9-0.1-1.8-0.3-2.8-0.4c-0.9-0.2-1.9-0.3-2.9-0.4c-0.5-0.1-1-0.1-1.5-0.2c-0.5-0.1-1-0.1-1.5-0.1c-1-0.1-2-0.1-3-0.2
					c-1-0.1-2,0-3-0.1l-1.5-0.1l-1.5,0c-1,0-2,0-3,0.1c-1,0.1-2,0.1-2.9,0.2c-1,0.1-1.9,0.2-2.8,0.3c-0.5,0.1-0.9,0.1-1.4,0.2
					c-0.5,0.1-0.9,0.2-1.4,0.2c-0.9,0.1-1.8,0.3-2.6,0.4c-0.8,0.2-1.7,0.4-2.5,0.6c-0.4,0.1-0.8,0.2-1.2,0.3
					c-0.4,0.1-0.8,0.2-1.1,0.3c-1.5,0.4-2.8,0.8-4,1.2c-1.2,0.4-2.2,0.7-3,1.1C174,256,173,256.3,173,256.3z"/>
			</g>
			<g>
				<path fill="#231F20" d="M190.5,235.7c0,0,0.6-0.3,1.6-0.6c0.5-0.2,1.2-0.4,1.9-0.6c0.7-0.2,1.6-0.4,2.5-0.6c0.9-0.2,2-0.4,3-0.5
					c1.1-0.1,2.2-0.2,3.4-0.3c1.2,0,2.4,0,3.7,0c1.3,0.1,2.5,0.2,3.8,0.3l1.9,0.3c0.6,0.1,1.2,0.2,1.9,0.4c0.6,0.1,1.2,0.3,1.8,0.4
					c0.6,0.2,1.2,0.3,1.7,0.5c1.1,0.4,2.2,0.7,3.2,1.1c1,0.4,2,0.8,2.8,1.2c0.9,0.4,1.6,0.8,2.3,1.2c0.7,0.4,1.3,0.7,1.7,1
					c0.9,0.6,1.5,1,1.5,1s-0.6-0.1-1.7-0.4c-1.1-0.2-2.6-0.6-4.4-1c-1.8-0.4-3.9-0.8-6.1-1.3c-1.1-0.2-2.3-0.4-3.5-0.6
					c-0.6-0.1-1.2-0.2-1.8-0.3l-1.8-0.2c-1.2-0.2-2.4-0.3-3.6-0.4c-0.6-0.1-1.2-0.1-1.8-0.2c-0.6,0-1.2-0.1-1.7-0.1
					c-1.1-0.1-2.2-0.1-3.3-0.2c-1,0-2-0.1-3-0.1c-0.9,0-1.8,0-2.5,0c-0.7,0-1.4,0-2,0C191.1,235.7,190.5,235.7,190.5,235.7z"/>
			</g>
		</g>
	</g>
</g>
</svg>
