<?xml version="1.0" encoding="utf-8"?>
<!-- Generator: Adobe Illustrator 18.1.1, SVG Export Plug-In . SVG Version: 6.00 Build 0)  -->
<svg version="1.1" id="Layer_1" xmlns="http://www.w3.org/2000/svg" xmlns:xlink="http://www.w3.org/1999/xlink" x="0px" y="0px" width="500px" height="500px" viewBox="0 0 500 500" enable-background="new 0 0 500 500" xml:space="preserve"><clipPath id="SVGID_6_">
			<use xlink:href="#SVGID_5_" overflow="visible"/>
		</clipPath><clipPath id="SVGID_4_">
			<use xlink:href="#SVGID_3_" overflow="visible"/>
		</clipPath><clipPath id="SVGID_2_">
			<use xlink:href="#SVGID_1_" overflow="visible"/>
		</clipPath>
<symbol id="New_Symbol_2" viewBox="-5.8 -12.9 11.5 25.9">
	<g>
		<defs>
			<path id="SVGID_1_" d="M0-12.3C0-12.3,0-12.3,0-12.3C-1.8-9-3.2-5.5-4.2-1.9C-5,0.9-5.6,3.9-4.8,6.8c0.7,2.6,2.8,5,5.4,5.4
				c0.5,0.1,0.8-0.4,0.5-0.8c-2-2.5-2.9-5.9-2.6-9.1c1-2.7,1.8-5.4,2.4-8.2c0.8-1.6,1.7-3.1,2.5-4.7C2.3-11.3,1.2-11.8,0-12.3z"/>
		</defs>
		<use xlink:href="#SVGID_1_" overflow="visible" fill="#ECD19C"/>
		
		<g clip-path="url(#SVGID_2_)">
			<path fill="#ECD19C" stroke="#AA9165" stroke-miterlimit="10" d="M5.7-10.3C1.9-9.8-1.7-8-4.3-5.1"/>
			<path fill="#ECD19C" stroke="#AA9165" stroke-miterlimit="10" d="M2.3-6c-3.1,1.6-5.8,4-7.6,7"/>
			<path fill="#ECD19C" stroke="#AA9165" stroke-miterlimit="10" d="M1.4-3.3c-3,2.7-5.3,6.1-6.6,9.9"/>
			<path fill="#ECD19C" stroke="#AA9165" stroke-miterlimit="10" d="M-0.4,1.7c-2.5,3.2-4,7.2-4.2,11.3"/>
			<path fill="#ECD19C" stroke="#AA9165" stroke-miterlimit="10" d="M-0.3,4.3c-1.2,2.5-1.7,5.4-1.5,8.1"/>
		</g>
		<use xlink:href="#SVGID_1_" overflow="visible" fill="none" stroke="#AA9165" stroke-miterlimit="10"/>
	</g>
</symbol>
<symbol id="New_Symbol_3" viewBox="-12 -38.9 24 77.5">
	<g>
		<defs>
			<path id="SVGID_3_" d="M10.8,33.1c0.9-4.2,1-8.6,0.3-12.8c-0.1-0.9-0.4-1.8-0.8-2.6C8.3,13.2,6.6,8.6,5.2,3.9
				c0-2.4-0.3-4.7-0.9-7c-0.7-5.7-1-11.4-1-17.2c0.9-2.7,1.2-5.5,1.1-8.2c0-0.9-0.4-1.8-1.1-2.5c-0.5-0.5-1.1-0.9-1.7-1.1
				c-0.5-1.4-1-2.8-1.5-4.2c-2.5-0.7-5.1-0.8-7.7-0.5c0.1,2,1.1,3.8,2.3,5.5c1.2,1.7,2.6,3.2,3.5,5c1.2,7.3,1.7,14.7,1.3,22
				c-1.1,0.6-1.7,2-1.7,3.2C-2.4,0-2,1.2-1.5,2.3c0.2,0.5,0.4,1,0.6,1.6C-0.1,9.9,0,16-0.6,22c-4.8,4.6-8.5,10.2-11,16.4"/>
		</defs>
		<use xlink:href="#SVGID_3_" overflow="visible" fill="#F6F3EC"/>
		
		<path clip-path="url(#SVGID_4_)" fill="#89743B" stroke="#564826" stroke-miterlimit="10" d="M-8.9-35c0.4,1.4,1.1,2.7,1.9,3.9
			c1.2-0.8,2.7-1,4.1-0.5c1.4-1.2,3.9-3,4.6-3.2c-0.3-0.8-0.6-1.7-0.8-2.6c-3.4-0.7-6.9-1-10.4-1.1C-9.5-37.2-9.3-36.1-8.9-35z"/>
		<use xlink:href="#SVGID_3_" overflow="visible" fill="none" stroke="#7F766A" stroke-miterlimit="10"/>
	</g>
	<g>
		<path fill="#564826" d="M-6.6-37.7c0,0,0,0.3,0,0.8c0,0.5,0,1.1,0.1,1.7c0,0.3,0.1,0.6,0.2,0.9c0.1,0.3,0.2,0.5,0.4,0.7
			c0.3,0.4,0.6,0.6,0.6,0.6l0.1,0c0,0,0.1-0.4,0-0.8c0-0.2-0.1-0.5-0.1-0.7c-0.1-0.3-0.3-0.5-0.4-0.8C-6.2-36.5-6.5-37.7-6.6-37.7
			L-6.6-37.7z"/>
	</g>
</symbol>
<symbol id="New_Symbol_4" viewBox="-12.7 -50.1 25.3 100">
	<g>
		<defs>
			<path id="SVGID_5_" d="M2.1,49.6c4.5-4,7.7-9.4,9.1-15.3c1.4-5.7,1.1-11.8-0.8-17.4c-0.5,1.2-1.2,2.3-2.1,3.3
				c0.9-3.2,1.4-6.5,1.3-9.7C8.8,10.7,8,11,7.2,11.4c1.4-2.9,2.2-6.1,2.4-9.3c-1.1,0.1-2.1,0.5-3,1.2C7.6,1,8-1.6,7.9-4.1
				c-0.7,0.2-1.3,0.6-1.8,1C6.9-5.7,7.4-8.3,7.5-11c-0.1-2.3-1-4.7-2.5-6.5c-0.9-4-1.6-8-2.2-12.1C3.1-31.4,3.1-33.2,3-35
				c-0.4-2.2-1.7-4.3-3.6-5.5C-1-42.7-1.4-45-1.8-47.2c-1.9-0.6-3.8-0.8-5.8-0.7c0.1,0.4,0.1,0.8,0.2,1.2c-1-0.2-2-0.2-3-0.2
				c0.4,2.8,2,5.4,4.2,7.1c0.7,2.1,1.7,4,2.9,5.8c1.5,6.9,2.5,13.9,2.9,20.9c-0.5,4.5-1.5,9-3,13.4c-5.8,9-8.6,19.9-7.8,30.6"/>
		</defs>
		<use xlink:href="#SVGID_5_" overflow="visible" fill="#F6F3EC"/>
		
		<path clip-path="url(#SVGID_6_)" fill="#89743B" stroke="#564826" stroke-miterlimit="10" d="M-10.7-43.5
			c-0.6-1.1-1.1-2.3-1.4-3.6c3.4-2.1,7.5-2.9,11.4-2.4c0,1.6,0.3,3.3,0.9,4.8c-2,1-3.8,2.3-5.3,3.9c-1.2-0.2-2.5-0.2-3.7,0.1
			C-9.5-41.5-10.2-42.4-10.7-43.5z"/>
		<use xlink:href="#SVGID_5_" overflow="visible" fill="none" stroke="#7F766A" stroke-miterlimit="10"/>
	</g>
	<g>
		<path fill="#564826" d="M-7.2-46.8c0,0-0.1,0.3-0.2,0.7c-0.1,0.5-0.2,1.1-0.2,1.7c0,0.3,0,0.6,0,0.9c0.1,0.3,0.2,0.6,0.3,0.8
			c0.3,0.4,0.6,0.6,0.6,0.6l0.1,0c0,0,0.1-0.4,0.1-0.8c0-0.2,0-0.5-0.1-0.7c-0.1-0.3-0.2-0.5-0.3-0.8C-7-45-7-45.6-7.1-46.1
			C-7.1-46.5-7.1-46.8-7.2-46.8L-7.2-46.8z"/>
	</g>
</symbol>
<symbol id="New_Symbol_5" viewBox="-8.1 -3.3 16.1 6.6">
	<g>
		<path fill="#F6F3EC" d="M8.1,0.6C7.8,1.4,7.1,2,6.4,2.3S4.8,2.7,4,2.7c-0.6,0-1.1,0.1-1.7,0.1c-3.3-0.5-6.5-1.3-9.6-2.5
			c-0.4-0.2-0.4-0.7-0.1-0.9c3.7-2.5,8.8-2.9,12.9-1.1"/>
		<path fill="#7F766A" d="M8.1,0.6C7.8,1.1,7.4,1.5,6.9,1.7C6.7,1.8,6.5,1.9,6.2,2C6,2,5.7,2.1,5.5,2.1c-0.3,0-0.5,0-0.8,0
			c-0.3,0-0.5,0.1-0.8,0.1L2.3,2.3l0.1,0C0.4,2-1.6,1.6-3.5,1c-1-0.3-1.9-0.6-2.9-0.9l-0.7-0.3c0,0,0,0,0,0c0,0,0,0,0.1,0l0.3-0.2
			C-6.5-0.5-6.2-0.7-6-0.8c0.9-0.5,1.8-0.8,2.7-1.1c0.5-0.1,1-0.2,1.4-0.3c0.5-0.1,1-0.1,1.5-0.1c0.5,0,1,0,1.5,0
			c0.2,0,0.5,0.1,0.7,0.1c0.2,0,0.5,0,0.7,0c1,0.1,2,0.2,3,0.5C5.1-1.9,4.7-2.2,4.2-2.4C3.7-2.6,3.2-2.8,2.7-3
			c-0.5-0.2-1-0.3-1.6-0.3c-0.5,0-1.1,0-1.6,0C-1-3.3-1.5-3.2-2-3.1c-0.5,0.1-1,0.2-1.6,0.3c-1,0.3-2,0.7-3,1.2
			C-6.8-1.5-7-1.4-7.2-1.3l-0.3,0.2C-7.7-1-7.9-0.8-8-0.5c-0.2,0.5,0,1,0.5,1.3C-7.2,0.9-7,1-6.7,1c1,0.4,2,0.7,2.9,1
			c2,0.6,4,1,6.1,1.3l0,0l0,0L4,3.2c0.3,0,0.6,0,0.9-0.1c0.3,0,0.6-0.1,0.8-0.2c0.3-0.1,0.6-0.2,0.8-0.4C6.7,2.4,7,2.3,7.2,2.1
			C7.6,1.7,8,1.2,8.1,0.6z"/>
	</g>
	<g>
		<path fill="#F6F3EC" d="M-0.1-1.1c1,0,2,0,3,0C3.4-1.1,4-1,4.5-1c0.3,0.1,0.6,0.1,0.8,0.2C4.7-0.3,3.7-0.3,2.7-0.4
			C1.8-0.6,0.9-0.8,0.1-1.1s-1.8-0.5-2.7-0.5"/>
		<path fill="#B79CAE" d="M-0.1-1l2.7,0.2c0.1,0,0.2,0,0.3,0l0.3,0L4-0.7l0.3,0l0.1,0l0.2,0C4.8-0.6,5-0.5,5.2-0.4l0-0.6
			C4.7-0.8,4-0.7,3.4-0.8C2.7-0.9,2.1-1,1.5-1.2C0.2-1.5-1.3-1.9-2.7-1.6l0,0.1C-2-1.3-1.4-1.1-0.7-0.9c0.6,0.2,1.3,0.5,1.9,0.7
			C1.9,0,2.6,0.1,3.3,0.1C4,0,4.8,0,5.5-0.4l0.6-0.3L5.5-1C5.2-1.1,5-1.2,4.7-1.2l-0.2,0c-0.1,0-0.1,0-0.2,0L4-1.3l-0.7,0L3-1.3
			c-0.1,0-0.3,0-0.4,0L-0.1-1L-0.1-1z"/>
	</g>
</symbol>
<symbol id="New_Symbol_6" viewBox="-91.4 -59 175.7 117.9">
	<g>
		<g>
			<path fill="#478FA0" d="M-48.4-46.4c0,0,0.1,0,0.3-0.1c0.2-0.1,0.4-0.2,0.7-0.4c0.1-0.1,0.3-0.3,0.3-0.5c0.1-0.2,0-0.5-0.2-0.7
				c-0.3-0.4-0.8-0.7-1.4-0.9c-2.2-0.9-5.4-1.3-8.6-1.2c-1.6,0-3.2,0.1-4.7,0.5c-0.7,0.2-1.5,0.4-2.1,0.8c-0.3,0.2-0.6,0.5-0.8,0.9
				c-0.1,0.2-0.1,0.6,0,0.7c0.1,0.3,0.2,0.4,0.3,0.6c0.5,0.5,1.1,0.6,1.6,0.8c0.5,0.1,0.9,0.2,1.2,0.3c0.7,0.1,1.1,0.1,1.1,0.1
				l0-0.1c0,0-0.4-0.1-1-0.3c-0.3-0.1-0.7-0.3-1.1-0.5c-0.4-0.2-0.9-0.5-1.2-0.8c-0.1-0.1-0.1-0.2-0.1-0.2c0-0.1,0-0.1,0-0.2
				c0.1-0.1,0.3-0.3,0.5-0.4c0.5-0.3,1.2-0.5,1.9-0.7c1.4-0.4,2.9-0.6,4.5-0.7c0.8-0.1,1.6-0.1,2.3-0.1c0.8,0,1.5,0,2.2,0.1
				c1.4,0.1,2.8,0.3,3.9,0.7c0.5,0.2,1,0.4,1.3,0.8c0.1,0.1,0.2,0.4,0.2,0.5c0,0.2-0.1,0.3-0.3,0.4c-0.2,0.2-0.5,0.4-0.6,0.5
				C-48.3-46.5-48.4-46.4-48.4-46.4L-48.4-46.4z"/>
		</g>
		<g>
			<path fill="#478FA0" d="M-43-46.1c0,0,0.1-0.1,0.4-0.3c0.2-0.2,0.6-0.5,0.8-1.1c0.1-0.6-0.3-1.3-1-1.8c-0.7-0.5-1.5-0.8-2.4-1.2
				c-1.9-0.6-4.1-1.1-6.5-1.3c-2.4-0.3-5-0.3-7.7-0.2c-2.6,0.1-5.2,0.4-7.6,1c-1.2,0.4-2.4,0.7-3.4,1.5c-0.5,0.3-1,0.8-1.1,1.6
				c0,0.1,0,0.1,0,0.3l0,0.2c0,0.1,0.1,0.4,0.2,0.5c0.2,0.3,0.4,0.5,0.6,0.7c0.8,0.7,1.7,1,2.5,1.2c0.8,0.2,1.5,0.4,2,0.5
				c1.1,0.2,1.8,0.2,1.8,0.2l0-0.1c0,0-0.6-0.2-1.7-0.5c-0.5-0.2-1.2-0.4-1.9-0.7c-0.7-0.3-1.5-0.7-2.2-1.3
				c-0.2-0.1-0.3-0.3-0.4-0.5c0-0.1,0-0.1-0.1-0.2l0-0.2c0,0.1,0-0.1,0-0.1c0.1-0.3,0.4-0.7,0.8-0.9c0.8-0.5,1.9-0.9,3.1-1.2
				c2.3-0.6,4.8-1,7.4-1.2c2.6-0.2,5.2-0.2,7.6,0c2.4,0.2,4.6,0.5,6.5,1.1c0.9,0.3,1.7,0.6,2.4,1c0.7,0.4,1.1,1,1,1.5
				c-0.1,0.5-0.5,0.8-0.7,1C-43-46.2-43.1-46.1-43-46.1L-43-46.1z"/>
		</g>
		<g>
			<path fill="#478FA0" d="M-42.1-46.2c0,0,0.2-0.1,0.7-0.3c0.4-0.2,1.1-0.5,1.9-1c0.4-0.3,0.8-0.6,1-1.1c0.3-0.5,0.2-1.3-0.2-1.8
				c-0.8-1.1-2.3-1.6-3.7-2.2c-3-1-6.7-1.6-10.6-1.8c-3.9-0.3-8.1-0.3-12.3,0c-4.2,0.3-8.4,0.9-12.2,2c-1,0.3-1.9,0.7-2.8,1.1
				c-0.9,0.4-1.7,0.9-2.4,1.7c-0.3,0.4-0.6,0.9-0.6,1.5c0,0,0,0,0,0.1l0,0l0,0l0,0.1l0,0.2c0,0.1,0.1,0.3,0.1,0.4
				c0.1,0.3,0.3,0.5,0.4,0.7c0.7,0.7,1.5,1.1,2.2,1.4c1.5,0.6,2.9,0.9,4.2,1.2c1.3,0.2,2.4,0.4,3.3,0.5c1.8,0.2,2.9,0.2,2.9,0.2
				l0-0.1c0,0-1-0.1-2.8-0.4c-0.9-0.2-2-0.4-3.2-0.7c-1.2-0.3-2.6-0.7-4-1.3c-0.7-0.3-1.4-0.7-1.9-1.3c-0.1-0.1-0.2-0.3-0.3-0.4
				c0-0.1-0.1-0.1-0.1-0.2l0-0.3c0-0.3,0.2-0.6,0.4-0.9c1.1-1.1,2.9-1.8,4.7-2.4c3.7-1.2,7.8-1.8,12-2.2c4.1-0.4,8.3-0.5,12.2-0.2
				c3.9,0.2,7.6,0.7,10.5,1.6c1.5,0.5,2.9,1,3.6,2c0.4,0.5,0.4,1.1,0.2,1.6c-0.2,0.5-0.6,0.8-1,1.1c-0.7,0.5-1.4,0.9-1.8,1.1
				C-41.8-46.4-42.1-46.3-42.1-46.2L-42.1-46.2z"/>
		</g>
		<g>
			<path fill="#478FA0" d="M-44.2-44c0,0,0.4-0.1,1.1-0.3c0.7-0.2,1.8-0.5,3.1-1c1.3-0.5,2.9-1.1,4.5-2.3c0.8-0.6,1.6-1.3,1.9-2.5
				c0.4-1.2-0.3-2.4-1.2-3.2c-1.8-1.7-4.4-2.6-7-3.4c-2.7-0.8-5.5-1.3-8.5-1.7c-6-0.8-12.4-0.9-18.8-0.4c-3.2,0.2-6.4,0.6-9.5,1.3
				c-3.1,0.6-6.1,1.5-8.9,2.9c-1.4,0.7-2.7,1.6-3.6,3c-0.2,0.4-0.3,0.8-0.4,1.2l0,0.3c0,0.1,0,0.1,0,0.2l0,0.1l0,0.3l0.1,0.3
				c0.2,0.8,0.8,1.4,1.3,1.9c1.1,1,2.3,1.6,3.6,2.1c1.2,0.5,2.4,0.9,3.6,1.2c2.3,0.6,4.5,1,6.5,1.3c1.9,0.3,3.6,0.4,5,0.5
				C-69.9-42-68.8-42-68-42c0.8,0,1.2,0,1.2,0l0-0.1c0,0-0.4,0-1.1-0.1c-0.7-0.1-1.8-0.1-3.2-0.3c-2.8-0.3-6.8-0.8-11.3-2.2
				c-1.1-0.3-2.3-0.7-3.5-1.3c-1.1-0.5-2.3-1.1-3.2-2c-0.4-0.4-0.8-1-1-1.5c-0.2-0.6-0.1-1.1,0.2-1.7c0.6-1.1,1.9-1.9,3.2-2.6
				c2.6-1.3,5.6-2.2,8.6-2.8c3.1-0.7,6.2-1.1,9.4-1.4c6.3-0.5,12.8-0.5,18.7,0.2c3,0.3,5.8,0.9,8.4,1.6c2.6,0.7,5.1,1.7,6.9,3.2
				c0.9,0.8,1.4,1.9,1.1,2.9c-0.3,1-1.1,1.8-1.8,2.3c-1.5,1.2-3.1,1.8-4.4,2.3c-1.3,0.5-2.4,0.8-3.1,1C-43.8-44.2-44.2-44.1-44.2-44
				L-44.2-44z"/>
		</g>
	</g>
	<g>
		<path fill="#EAD8B9" stroke="#B29A76" stroke-miterlimit="10" d="M-30.4-47.9c0-0.4,0.1-0.7,0-1.1c-0.5,0.1-1,0.3-1.5,0.6
			c-1.2,0.7-2.4,1.4-3.5,2.3c-0.1,0-0.1,0-0.1-0.1c0.4-0.8,0.6-1.7,0.6-2.6c-0.1-1.4-0.7-2.7-1.8-3.8c-0.3,1.4-0.8,2.8-1.7,4
			c-1.1,1.5-2.7,2.7-4.7,3.2c-2.5,0.7-5.4,0.1-8,0.3c-0.3,0-0.4,0.3-0.3,0.5c0.5,0.6,0.9,1.3,1.2,2c0.4,0.8,1,1.6,2,2.1
			c2.2,1.2,4.6,2.1,7.2,2.4c3.8,0.4,7.9-0.6,10-3.2c-1-0.4-2.2-0.7-3.4-0.7C-32-43.4-30.7-45.6-30.4-47.9z"/>
		<g>
			<path fill="#B29A76" d="M-47.2-44c0,0,0.4,0.2,1.1,0.5c0.7,0.3,1.6,0.5,2.5,0.8c0.5,0.1,0.9,0.2,1.4,0.3c0.4,0,0.9,0,1.2-0.1
				c0.7-0.1,1.2-0.4,1.2-0.4l0-0.1c0,0-0.5-0.2-1.2-0.3c-0.3-0.1-0.7-0.1-1.2-0.2c-0.4,0-0.9,0-1.3,0c-0.9,0-1.8-0.2-2.5-0.3
				C-46.7-43.9-47.2-44.1-47.2-44L-47.2-44z"/>
		</g>
		<g>
			<path fill="#B29A76" d="M-46.4-42.1c0,0,0.4,0.3,1,0.6c0.6,0.4,1.4,0.8,2.3,1.1c0.4,0.2,0.9,0.3,1.3,0.4c0.4,0.1,0.8,0.1,1.2,0.1
				c0.7,0,1.2-0.2,1.2-0.2l0-0.1c0,0-0.4-0.2-1.1-0.5c-0.3-0.1-0.7-0.2-1.1-0.3c-0.4-0.1-0.9-0.1-1.3-0.2c-0.9-0.2-1.7-0.4-2.4-0.6
				C-46-42-46.4-42.1-46.4-42.1L-46.4-42.1z"/>
		</g>
		<g>
			<path fill="#B29A76" d="M-37.5-44.9c0,0,0.2,0,0.5,0c0.3,0,0.7-0.1,1.1-0.2c0.2-0.1,0.4-0.1,0.6-0.2c0.2-0.1,0.3-0.3,0.3-0.4
				c0.1-0.3,0.1-0.6,0.1-0.6l-0.1-0.1c0,0-0.3,0-0.6,0.1c-0.1,0-0.3,0.1-0.4,0.2c-0.1,0.1-0.2,0.2-0.4,0.4
				C-36.8-45.4-37.5-45-37.5-44.9L-37.5-44.9z"/>
		</g>
		<g>
			<path fill="#B29A76" d="M-37-41.5c0,0,0.2,0.1,0.6,0.2c0.4,0.1,0.9,0.1,1.4,0.1c0.3,0,0.5,0,0.7-0.1c0.2-0.1,0.4-0.2,0.5-0.4
				c0.3-0.3,0.3-0.6,0.3-0.6l-0.1-0.1c0,0-0.3,0-0.7,0c-0.2,0-0.4,0.1-0.5,0.1c-0.2,0.1-0.3,0.2-0.5,0.3c-0.4,0.2-0.8,0.3-1.2,0.4
				C-36.8-41.6-37-41.6-37-41.5L-37-41.5z"/>
		</g>
	</g>
	
		<use xlink:href="#New_Symbol_5" width="16.1" height="6.6" x="-8.1" y="-3.3" transform="matrix(0.8131 0 0 0.8131 -61.3797 -14.389)" overflow="visible"/>
	
		<use xlink:href="#New_Symbol_4" width="25.3" height="100" id="XMLID_47_" x="-12.7" y="-50.1" transform="matrix(1 0 0 1 50.6507 -1.6825)" overflow="visible"/>
	
		<use xlink:href="#New_Symbol_3" width="24" height="77.5" id="XMLID_46_" x="-12" y="-38.9" transform="matrix(1 0 0 1 -15.3357 -12.2795)" overflow="visible"/>
	<path fill="#F6F3EC" stroke="#7F766A" stroke-miterlimit="10" d="M-33.9,18.6c2.3,4,4.5,8,6.3,11.4c2.3,6.7,6.2,12.7,11.4,17.5
		c1.5,1.4,3.2,2.3,5.2,2.8c6.3,1.6,12.8,2.5,19.3,2.5c6.8,2.2,13.7,4,20.7,5.3c2.9,0.5,5.9,0.4,8.8-0.4c4.5-1.3,8.9-3.1,13.1-5.4
		c1.9-1,3.5-2.5,4.8-4.2c1.2-1.5,2.3-3.1,3.3-4.8c3-4.8,5.2-10.3,5.5-16c-1.7-0.9-3.4-1.8-5.1-2.7c-8.6-8.6-19.9-14.5-31.9-16.8
		c1.3-0.3,2.6-0.6,3.9-0.9c0.3-0.1,0.3-0.5,0-0.6C27.9,5.6,26,6,22.4,6.4c1-0.3,1.3-1.6,1.3-1.6C19,4.3,14.3,6,9.8,7.6
		c-5,1.8-10.1,3.4-15.4,4c-0.7,0.1-1.5,0.2-2.2,0.2c-6.2-1.1-11.9-4.2-16.4-8.6c-4.7-6.3-8.4-13.4-10.9-20.8c-0.3-2-1-3.9-2.1-5.6
		c-0.1-0.5-0.2-0.9-0.3-1.4c0.1-2.2-0.8-4.3-2.4-5.8c-2.5-2.4-5.8-8-5.8-8c-0.8-2.1-1.7-4.1-3.2-5.7c0,0-0.6-3.2-2.9-3
		c-1,0.1-1,3-1.2,3c-0.4,0-1-2.4-1.5-2.4c-0.6-0.6-1.9-2.2-3.2-2.2c-0.7,0-1.3,0.7-1.3,1.4l0.1,1.9c-1.2,1.1-2.2,2.4-2.9,3.9
		c-0.5,1.1-0.8,2.3-0.7,3.6c0.3,3.9,1.1,7.8,2.2,11.6c-1.8,3.2-2.4,7.1-1.8,10.7c0.2,1,0.6,2,1.2,2.7c3.4,4,7.7,7.1,12.5,9.1
		C-43.6,2.6-38.5,10.8-33.9,18.6z"/>
	<path fill="#F6F3EC" stroke="#7F766A" stroke-miterlimit="10" d="M64.2,33.9c-1.7,3.9-3.4,7.7-6.4,10.6c1-3.7,1.4-7.4,1.4-11.2
		c2.2-3.6,2.9-7.8,4.1-11.8c1.1-3.5,3.5-7.8,6.6-9.9c0.3-0.2,0.6,0,0.6,0.3c-0.1,0.8,0.2,1.6-0.2,2.5c1.9-1.6,3.5-2.4,6-2.1
		c-0.6,0.6-1.1,1.2-1.7,1.7c1.5-0.7,3.3-1,4.9-0.8c1.3,0.1,2.6,0.6,3.7,1.3c-6.8,2.6-12.8,7.6-16.4,13.9C65.8,30.1,65,32,64.2,33.9z
		"/>
	
		<use xlink:href="#New_Symbol_4" width="25.3" height="100" id="XMLID_44_" x="-12.7" y="-50.1" transform="matrix(1 0 0 1 53.8174 -3.2848)" overflow="visible"/>
	<g>
		<g>
			<path fill="#A8A194" d="M-25.7,28.9c0,0,0,0.3,0.1,0.9c0,0.5,0.1,1.3,0.3,2.3c0.1,0.5,0.2,1,0.3,1.5c0.1,0.5,0.3,1.1,0.5,1.7
				c0.4,1.1,0.9,2.3,1.5,3.4c0.3,0.6,0.6,1.1,0.9,1.7c0.3,0.5,0.7,1,1,1.5c0.4,0.5,0.7,0.9,1.1,1.3c0.4,0.4,0.8,0.8,1.1,1.1
				c0.4,0.3,0.7,0.6,1,0.8c0.3,0.2,0.6,0.4,0.8,0.6c0.5,0.3,0.8,0.4,0.8,0.4l0.1-0.1c0,0-0.2-0.2-0.6-0.6c-0.4-0.4-0.9-1-1.5-1.7
				c-0.6-0.7-1.3-1.5-2-2.4c-0.7-0.9-1.5-1.9-2.1-3c-0.6-1.1-1.2-2.2-1.6-3.3c-0.2-0.5-0.4-1.1-0.6-1.6c-0.2-0.5-0.3-1-0.4-1.4
				c-0.3-0.9-0.4-1.7-0.5-2.2C-25.6,29.2-25.6,28.9-25.7,28.9L-25.7,28.9z"/>
		</g>
		<g>
			<path fill="#A8A194" d="M-6,50.2c0,0,0.2-0.1,0.5-0.2c0.3-0.1,0.8-0.3,1.3-0.5c1.1-0.5,2.4-1.3,3.5-2.4c0.6-0.5,1.1-1.1,1.6-1.7
				c0.2-0.3,0.4-0.6,0.6-0.9c0.2-0.3,0.3-0.6,0.4-0.9c0.2-0.5,0.4-1,0.4-1.4c0.1-0.3,0.1-0.5,0.1-0.5l-0.1,0c0,0-0.1,0.2-0.3,0.4
				c-0.2,0.3-0.5,0.6-0.8,1.1c-0.3,0.4-0.7,1-1.1,1.5c-0.4,0.6-0.8,1.2-1.3,1.7c-1,1.1-2.2,2-3.1,2.6c-0.5,0.3-0.9,0.5-1.2,0.7
				C-5.8,50-6,50.1-6,50.2L-6,50.2z"/>
		</g>
		<g>
			<path fill="#A8A194" d="M41.2,22.4c-0.3-1-0.7-1.9-1.2-2.8c-0.5-0.9-1.1-1.7-1.8-2.5c-0.7-0.8-1.4-1.5-2.3-2.1
				c-0.8-0.6-1.7-1.2-2.7-1.6l-0.4-0.2l0,0.4l-0.2,2.2l0.6-0.1c-1.6-2.8-4.3-4.9-7.4-5.8l-0.7-0.2l0.1,0.7c0.2,1.3,0.3,2.6,0.5,3.9
				l0.8-0.5c-1.1-0.7-2.4-1.2-3.6-1.6c-1.2-0.4-2.5-0.7-3.8-0.9l-0.5-0.1l0.2,0.4c0.4,1,0.9,2.1,1.3,3.1l0.1,0
				c-0.3-1.1-0.6-2.2-0.9-3.2L19,11.9c1.2,0.3,2.5,0.7,3.6,1.2c1.2,0.5,2.3,1.1,3.4,1.7l0.9,0.5l-0.1-1c-0.2-1.3-0.4-2.6-0.6-3.9
				l-0.6,0.5c2.9,0.7,5.5,2.6,7.1,5.2l0.5,0.9l0.1-1l0.1-2.2l-0.4,0.2c0.5,0.2,0.9,0.4,1.3,0.7c0.4,0.2,0.9,0.5,1.3,0.8
				c0.8,0.6,1.6,1.2,2.3,2C39.3,18.8,40.4,20.5,41.2,22.4L41.2,22.4z"/>
		</g>
		<g>
			<path fill="#A8A194" d="M-41.3-13.9c0,0,0,0.1,0,0.3c0,0.2,0.1,0.4,0.2,0.7c0.1,0.3,0.2,0.7,0.3,1.1c0.2,0.4,0.4,0.9,0.6,1.4
				c0.5,1,1.3,2.1,2.1,3.1c0.9,1.1,1.9,2.1,3,3.1c1,1,2,2.1,2.9,3.1c0.9,1,1.6,2,2.2,2.9c0.3,0.4,0.5,0.9,0.7,1.3
				c0.2,0.4,0.3,0.7,0.5,1c0.1,0.3,0.2,0.5,0.3,0.7c0.1,0.2,0.1,0.2,0.1,0.2l0.1,0c0,0,0-0.1,0-0.3c0-0.2,0-0.4-0.1-0.7
				c0-0.3-0.1-0.7-0.3-1.1c-0.1-0.4-0.3-0.9-0.6-1.4c-0.5-1-1.2-2.1-2.1-3.2c-0.9-1-2-2-3.1-3c-1.1-1-2.1-2-3.1-2.9
				c-0.9-1-1.7-2-2.3-2.9c-0.3-0.5-0.5-0.9-0.7-1.3c-0.2-0.4-0.3-0.8-0.4-1.1c-0.1-0.3-0.2-0.5-0.2-0.7
				C-41.2-13.8-41.2-13.9-41.3-13.9L-41.3-13.9z"/>
		</g>
		<g>
			<path fill="#A8A194" d="M-50.2-33.4c0,0,0.5-0.1,1.2-0.3c0.4-0.1,0.8-0.2,1.2-0.4c0.4-0.1,1-0.3,1.5-0.5c0.3-0.1,0.5-0.3,0.7-0.6
				c0.2-0.2,0.4-0.5,0.4-0.8c0.2-0.6,0.1-1.1,0-1.5c-0.1-0.4-0.2-0.7-0.4-0.9c-0.1-0.2-0.2-0.3-0.2-0.3l-0.1,0c0,0-0.1,0.5-0.1,1.3
				c0,0.4-0.1,0.7-0.2,1.1c0,0.2-0.1,0.3-0.2,0.5c-0.1,0.2-0.2,0.3-0.4,0.5c-0.3,0.3-0.8,0.5-1.2,0.7c-0.4,0.2-0.8,0.4-1.2,0.6
				C-49.8-33.7-50.2-33.5-50.2-33.4L-50.2-33.4z"/>
		</g>
	</g>
	
		<use xlink:href="#New_Symbol_2" width="11.5" height="25.9" x="-5.8" y="-12.9" transform="matrix(0.8139 -0.2121 0.2121 0.8139 -54.1451 -0.2149)" overflow="visible"/>
	
		<use xlink:href="#New_Symbol_2" width="11.5" height="25.9" id="XMLID_42_" x="-5.8" y="-12.9" transform="matrix(1 0 0 1 -56.7217 0.7692)" overflow="visible"/>
	<g>
		<path fill="#A8A194" d="M-39.2-16.1c0,0,0-0.2,0-0.4c0-0.3,0-0.7,0.1-1.1c0.1-0.9,0.5-2.1,1-3.2c0.2-0.6,0.5-1.2,0.7-1.7
			c0.2-0.6,0.2-1.2,0.2-1.7c0-0.5-0.1-0.9-0.2-1.2c-0.1-0.3-0.2-0.4-0.2-0.4l-0.1,0c0,0,0,0.2-0.1,0.4c-0.1,0.3-0.1,0.6-0.3,1.1
			c-0.1,0.4-0.3,0.9-0.4,1.5c-0.1,0.6-0.3,1.2-0.5,1.8c-0.4,1.2-0.6,2.5-0.6,3.5c0,0.5,0.1,0.9,0.1,1.2
			C-39.3-16.2-39.3-16.1-39.2-16.1L-39.2-16.1z"/>
	</g>
	<g>
		<path fill="#7A7469" d="M-52-18.8c-0.1-0.9-0.6-1.7-1.4-2.2c-0.4-0.2-0.9-0.4-1.3-0.5c-0.5-0.1-1,0-1.4,0.1l-0.2,0l-0.1,0.2
			c-0.1,0.4-0.3,0.8-0.3,1.2c-0.1,0.4,0,0.8,0.1,1.3l0.1,0.3l0.2,0.1c0.6,0.2,1.3,0.3,1.9,0.2l0-0.1l-1.6-0.9l0.3,0.4
			c0-0.4,0-0.7,0.1-1.1c0-0.4,0.1-0.7,0.1-1.1l-0.3,0.3c0.3-0.1,0.7-0.2,1.1-0.2c0.4,0,0.8,0.1,1.1,0.2C-53-20.2-52.4-19.5-52-18.8
			L-52-18.8z"/>
	</g>
	<path fill="#EAC5DB" stroke="#A38297" stroke-miterlimit="10" d="M-57.7-41.8c0,0.8,0,1.6-0.1,2.4c-0.5-0.3-0.9-0.6-1.3-1
		c-0.3-0.3-0.3-0.7-0.2-1c0.3-0.8,0.8-1.5,1.5-1.9C-57.8-42.8-57.7-42.3-57.7-41.8z"/>
	<g>
		<path fill="#A38297" d="M-57.9-35.8c0,0,0.1-0.5,0.3-1.3c0.2-0.8,0.4-1.9,0.5-3c0.1-0.6,0.1-1.1,0.2-1.6c0-0.5-0.1-1-0.2-1.4
			c-0.2-0.8-0.4-1.4-0.4-1.4l-0.1,0c0,0-0.2,0.6-0.3,1.4c0,0.4-0.1,0.9-0.1,1.4c0,0.5,0.1,1.1,0.1,1.6C-57.9-38-58-35.8-57.9-35.8
			L-57.9-35.8z"/>
	</g>
	<g>
		<path fill="#A8A194" d="M-56.6-48c0,0,0.2,0.1,0.4,0.3c0.3,0.2,0.6,0.5,1,0.9c0.7,0.9,1.3,2.2,1.8,3.6c0.3,0.7,0.5,1.4,0.9,2.1
			c0.4,0.6,0.8,1.2,1.3,1.6c0.5,0.4,0.9,0.6,1.2,0.7c0.3,0.1,0.5,0.1,0.5,0.1l0-0.1c0,0-0.1-0.1-0.4-0.4c-0.2-0.2-0.5-0.6-0.8-1
			c-0.3-0.4-0.6-1-1-1.5c-0.3-0.6-0.7-1.2-1.1-1.9c-0.7-1.3-1.5-2.7-2.3-3.5c-0.4-0.4-0.8-0.7-1.1-0.8C-56.4-48.1-56.5-48.1-56.6-48
			L-56.6-48z"/>
	</g>
	<g>
		<path fill="#A8A194" d="M-21.6,10.9c0,0,0.2,0.2,0.5,0.4c0.4,0.2,0.9,0.6,1.6,0.8c0.7,0.2,1.6,0.3,2.5,0.3c0.9,0,1.9-0.2,2.9-0.4
			c1-0.2,1.9-0.5,2.8-0.7c0.9-0.3,1.7-0.5,2.4-0.7c0.3-0.1,0.7-0.2,0.9-0.2c0.3-0.1,0.5-0.1,0.7-0.1c0.4-0.1,0.7-0.1,0.7-0.1l0-0.1
			c0,0-1-0.3-2.5-0.2c-0.8,0.1-1.6,0.2-2.5,0.5c-0.9,0.3-1.8,0.6-2.7,0.9c-1.8,0.6-3.8,0.8-5.2,0.5c-0.7-0.1-1.3-0.4-1.6-0.6
			C-21.4,11-21.6,10.8-21.6,10.9L-21.6,10.9z"/>
	</g>
	
		<use xlink:href="#New_Symbol_5" width="16.1" height="6.6" id="XMLID_41_" x="-8.1" y="-3.3" transform="matrix(1 0 0 1 -58.4122 -11.5821)" overflow="visible"/>
	<g>
		<path fill="#A8A194" d="M-48.8-45.6c0,0-0.1,0.3-0.3,0.7c-0.2,0.4-0.3,1-0.4,1.7c0,0.3-0.1,0.6-0.1,0.9c0,0.3,0.1,0.6,0.2,0.8
			c0.2,0.5,0.4,0.7,0.4,0.7l0.1,0c0,0,0.2-0.3,0.3-0.8c0-0.2,0.1-0.5,0.1-0.7c0-0.3-0.1-0.6-0.1-0.9C-48.8-44.3-48.7-45.6-48.8-45.6
			L-48.8-45.6z"/>
	</g>
	
		<use xlink:href="#New_Symbol_3" width="24" height="77.5" id="XMLID_35_" x="-12" y="-38.9" transform="matrix(1 0 0 1 -12.169 -13.9743)" overflow="visible"/>
</symbol>
<g>
	<defs>
		<rect id="SVGID_7_" width="500" height="500"/>
	</defs>
	<clipPath id="SVGID_8_">
		<use xlink:href="#SVGID_7_" overflow="visible"/>
	</clipPath>
	<g clip-path="url(#SVGID_8_)">
		<polygon fill="#83B6D6" points="517.7,507.8 -94,531.4 -94,-79.3 517.7,-79.3 		"/>
		<path fill="#E6CBA2" stroke="#AD895E" stroke-width="3.2191" stroke-miterlimit="10" d="M538.7,107.2c15,36.8-40.3,24.3-50,36
			c-3.2,3.9-0.6,5.3,2,9.7c-51.6,4.2-90,2.6-138.7,11.2c-3.3,0.6-41.5,29.5-38.4,30.6c10,3.3,53.4-10.5,61-7.6
			c107.8,25.9,16.8,30.2-84.3,45.4c-58.2,8.7-120,21.1-136.2,31.4c-2.9,1.8-2,6.3,1.3,6.7c34.2,5,107.3,18.4,105.8,41.8
			c-1.1,17-60.4,21.9-70.6,34c-1.7,2-3.2,3.8-1.1,5.2c29.6,19.2,61.3,26.1,64,57.7c2.5,29.4,0.5,51.5-53.3,66.7
			C135.5,494.2,17.7,511.3-68.6,496c-1.9,14.5,61.2,36.2,61.2,36.2c-6.1,0.7-9.6,1-9.6,1l9.6,2.5v9.7h294.1l-9.7-9.4
			c75.9-1.5,153.4-3,209.5-4.1c50.2-1,83.5-1.6,83.5-1.6v-358l30,1.1C600,173.3,532,90.7,538.7,107.2z"/>
		<g>
			<g>
				<path fill="#478FA0" d="M209.8,305.4c0,0,0.1,0.1,0.4,0.2c0.3,0.1,0.7,0.3,1.1,0.7c0.2,0.2,0.4,0.5,0.5,0.8c0,0.1,0,0.2,0,0.3
					c0,0.1,0,0.2,0,0.3c0,0.2-0.2,0.4-0.3,0.6c-0.5,0.7-1.3,1.1-2.2,1.5c-3.6,1.5-8.8,2.1-13.9,2c-2.6-0.1-5.1-0.2-7.5-0.8
					c-1.2-0.3-2.3-0.7-3.4-1.4c-0.5-0.4-1.1-0.7-1.4-1.5c-0.1-0.2-0.1-0.4-0.1-0.6l0-0.1l0,0l0-0.1l0,0l0-0.1c0-0.1,0-0.1,0-0.2
					c0.1-0.5,0.4-0.7,0.6-0.9c0.4-0.4,0.9-0.7,1.3-0.9c0.4-0.2,0.8-0.3,1.2-0.4c0.8-0.2,1.4-0.3,2-0.4c1.1-0.2,1.8-0.2,1.8-0.2
					l0,0.2c0,0-0.6,0.2-1.6,0.6c-0.5,0.2-1.1,0.4-1.8,0.7c-0.7,0.3-1.4,0.7-1.9,1.3c-0.1,0.1-0.2,0.3-0.2,0.3c0,0,0,0.1,0,0.1l0,0.1
					l0,0c0,0.1,0-0.1,0-0.1l0,0l0,0c0,0,0,0.1,0.1,0.1c0.1,0.2,0.5,0.5,0.9,0.7c0.8,0.4,1.9,0.8,3,1.1c2.2,0.6,4.7,1,7.2,1.1
					c1.2,0.1,2.5,0.1,3.7,0.1c1.2,0,2.4-0.1,3.6-0.2c2.3-0.2,4.5-0.6,6.3-1.2c0.9-0.3,1.6-0.7,2.1-1.2c0.2-0.2,0.3-0.6,0.3-0.9
					c-0.1-0.3-0.2-0.5-0.4-0.7c-0.4-0.4-0.8-0.6-1-0.7c-0.3-0.1-0.4-0.2-0.4-0.2L209.8,305.4z"/>
			</g>
			<g>
				<path fill="#478FA0" d="M218.4,304.9c0,0,0.2,0.1,0.6,0.4c0.4,0.3,1,0.8,1.3,1.7c0.1,0.2,0,0.5,0,0.8c-0.1,0.3-0.2,0.5-0.3,0.8
					c-0.3,0.5-0.8,0.9-1.3,1.3c-1.1,0.8-2.4,1.4-3.9,1.9c-3,1-6.6,1.7-10.5,2.1c-3.9,0.4-8.1,0.6-12.3,0.4
					c-4.2-0.2-8.4-0.6-12.3-1.6c-1.9-0.6-3.8-1.2-5.4-2.3c-0.8-0.6-1.6-1.3-1.8-2.5c-0.1-0.6,0-1.1,0.3-1.6c0.3-0.4,0.6-0.8,0.9-1.1
					c1.4-1.1,2.8-1.6,4-2c1.2-0.4,2.3-0.6,3.2-0.8c0.9-0.2,1.6-0.3,2.1-0.3c0.5-0.1,0.7-0.1,0.7-0.1l0,0.2c0,0-1,0.3-2.8,0.8
					c-0.9,0.3-1.9,0.6-3.1,1.1c-1.1,0.5-2.4,1.1-3.5,2c-0.3,0.2-0.4,0.5-0.6,0.8c-0.1,0.1,0,0.1-0.1,0.2c0,0.1-0.1,0.1-0.1,0.2
					l0,0.2l0,0.1l0,0l0,0c0,0,0,0.1,0-0.1c0,0.1,0,0.1,0,0.2c0.1,0.5,0.6,1.1,1.3,1.5c1.4,0.9,3.1,1.5,5,2c3.7,1,7.8,1.6,11.9,1.9
					c4.1,0.3,8.3,0.3,12.2,0c3.9-0.3,7.5-0.9,10.5-1.8c1.5-0.5,2.8-1,3.8-1.7c1-0.7,1.7-1.6,1.6-2.5c-0.2-0.8-0.8-1.3-1.1-1.6
					c-0.4-0.3-0.6-0.4-0.6-0.4L218.4,304.9z"/>
			</g>
			<g>
				<path fill="#478FA0" d="M220,305.1c0,0,0.4,0.1,1.1,0.5c0.7,0.3,1.8,0.8,3,1.7c0.6,0.5,1.2,1,1.7,1.8c0.5,0.8,0.4,2-0.3,2.9
					c-0.6,0.9-1.6,1.5-2.6,2.1c-1,0.6-2.2,1-3.4,1.4c-2.4,0.8-5.1,1.4-8,1.9c-2.9,0.5-5.9,0.8-9.1,1c-6.3,0.4-13.1,0.4-19.9,0
					c-6.8-0.5-13.5-1.4-19.7-3.3c-1.5-0.5-3-1-4.4-1.7c-1.4-0.7-2.8-1.5-3.9-2.8c-0.5-0.6-1-1.5-0.9-2.4c0-0.1,0,0.1,0-0.1l0,0
					l0-0.1l0-0.1l0.1-0.3c0-0.1,0.1-0.4,0.2-0.6c0.2-0.5,0.5-0.7,0.7-1.1c1.1-1.1,2.4-1.7,3.5-2.2c2.4-1,4.7-1.5,6.7-1.9
					c2-0.4,3.8-0.6,5.3-0.7c1.5-0.1,2.6-0.2,3.4-0.3c0.8,0,1.2-0.1,1.2-0.1l0,0.2c0,0-0.4,0.1-1.2,0.2c-0.8,0.1-1.9,0.3-3.4,0.5
					c-1.4,0.3-3.2,0.6-5.2,1.1c-2,0.5-4.2,1.1-6.4,2.2c-1.1,0.5-2.2,1.1-3,2c-0.2,0.2-0.4,0.5-0.4,0.6c0,0.1-0.1,0.1-0.1,0.3
					l-0.1,0.4c0,0.5,0.3,1,0.7,1.4c0.4,0.5,0.9,0.9,1.5,1.2c0.6,0.4,1.2,0.7,1.9,1c1.3,0.6,2.8,1.1,4.2,1.6c3,0.9,6.1,1.7,9.4,2.2
					c3.2,0.6,6.6,1,9.9,1.3c6.7,0.6,13.4,0.7,19.7,0.4c3.1-0.2,6.2-0.5,9-0.9c2.9-0.4,5.5-0.9,7.9-1.7c1.2-0.4,2.3-0.8,3.3-1.3
					c1-0.5,1.9-1.1,2.5-1.9c0.6-0.8,0.7-1.8,0.3-2.5c-0.4-0.8-1-1.3-1.5-1.8c-1.2-0.9-2.2-1.4-2.9-1.7c-0.7-0.3-1.1-0.5-1.1-0.5
					L220,305.1z"/>
			</g>
			<g>
				<path fill="#478FA0" d="M216.6,301.5c0,0,0.6,0.2,1.8,0.4c1.2,0.3,2.9,0.8,5,1.5c2.1,0.8,4.7,1.8,7.3,3.6
					c0.3,0.2,0.6,0.5,0.9,0.8c0.3,0.3,0.6,0.6,0.9,0.9c0.6,0.6,1.1,1.4,1.3,2.3l0.1,0.3l0,0.4l0,0.4l0,0.1c0,0,0,0,0,0.1l0,0l0,0.2
					c0,0.4-0.1,0.9-0.3,1.4c-0.4,0.9-1,1.7-1.7,2.4c-1.4,1.4-3.2,2.4-5.1,3.3c-1.9,0.9-4,1.6-6.1,2.2c-4.3,1.3-8.9,2.1-13.7,2.7
					c-4.8,0.6-9.8,1-14.9,1.1c-5.1,0.1-10.3,0-15.4-0.4c-5.2-0.4-10.3-1-15.3-2c-5-1-9.9-2.4-14.3-4.6c-1.1-0.6-2.2-1.2-3.2-2
					c-1-0.8-1.9-1.7-2.6-2.8c-0.3-0.6-0.6-1.2-0.7-1.9l0-0.5l0-0.1l0-0.1c0,0,0,0,0-0.1l0-0.2c0-0.1,0-0.3,0-0.4l0.1-0.5
					c0.4-1.3,1.2-2.3,2.1-3.1c1.8-1.6,3.8-2.6,5.7-3.4c2-0.8,3.9-1.4,5.8-2c3.8-1,7.3-1.6,10.4-2c3.1-0.4,5.9-0.6,8.1-0.8
					c2.3-0.1,4-0.2,5.2-0.2c1.2,0,1.9,0,1.9,0l0,0.2c0,0-0.6,0-1.8,0.1c-1.2,0.1-3,0.2-5.2,0.5c-2.2,0.3-4.9,0.6-8,1.1
					c-3.1,0.5-6.5,1.3-10.2,2.3c-1.8,0.5-3.7,1.2-5.6,2c-1.8,0.8-3.7,1.8-5.2,3.3c-0.7,0.7-1.4,1.5-1.6,2.4l-0.1,0.3
					c0,0.1,0,0.3,0,0.4l0,0.2c0-0.1,0,0,0,0l0,0l0,0.1l0,0.3c0.1,0.5,0.2,0.9,0.5,1.3c0.5,0.9,1.3,1.6,2.2,2.3
					c0.9,0.7,1.9,1.3,2.9,1.8c4.2,2.2,9,3.5,13.9,4.6c4.9,1.1,10,1.8,15.1,2.2c10.2,0.9,20.5,0.8,30.1-0.3c4.8-0.6,9.4-1.4,13.6-2.5
					c2.1-0.6,4.1-1.3,6-2.1c1.9-0.8,3.6-1.8,5-3.1c0.7-0.6,1.3-1.4,1.6-2.2c0.2-0.4,0.3-0.8,0.3-1.3l0-0.2l0,0c0,0,0,0,0,0l0-0.1
					l0-0.3l0-0.3l-0.1-0.3c-0.2-0.8-0.7-1.5-1.2-2.1c-0.3-0.3-0.5-0.6-0.8-0.9c-0.3-0.3-0.6-0.5-0.9-0.8c-2.5-1.9-5.1-2.9-7.1-3.7
					c-2.1-0.8-3.8-1.3-5-1.6c-1.2-0.3-1.8-0.5-1.8-0.5L216.6,301.5z"/>
			</g>
		</g>
		<g>
			<path fill="#EAD8B9" stroke="#B29A76" stroke-width="1.6096" stroke-miterlimit="10" d="M238.8,307.8c0.1,0.6,0.1,1.2,0.1,1.7
				c-0.9-0.2-1.7-0.5-2.4-0.9c-2-1-3.9-2.3-5.6-3.6c-0.1-0.1-0.2,0-0.1,0.1c0.7,1.3,1,2.7,0.9,4.2c-0.1,2.2-1.2,4.4-3,6.1
				c-0.5-2.3-1.3-4.5-2.8-6.4c-1.7-2.3-4.3-4.3-7.5-5.1c-4.1-1.1-8.6-0.2-12.9-0.5c-0.4,0-0.7-0.4-0.4-0.8c0.8-1,1.5-2.1,2-3.3
				c0.6-1.4,1.7-2.6,3.1-3.4c3.5-2,7.5-3.5,11.6-3.9c6.1-0.7,12.7,1,16.2,5.1c-1.7,0.7-3.6,1.1-5.4,1.1
				C236.1,300.5,238.4,304.1,238.8,307.8z"/>
			<g>
				<path fill="#B29A76" d="M211.8,301.5c0,0,0.7-0.3,1.7-0.8c1.1-0.4,2.5-0.9,4-1.2c0.8-0.2,1.5-0.4,2.2-0.4c0.7,0,1.4,0,2,0.1
					c1.2,0.2,1.9,0.6,1.9,0.6l0,0.2c0,0-0.2,0.1-0.5,0.2c-0.3,0.1-0.8,0.2-1.3,0.3c-0.6,0.1-1.2,0.2-1.9,0.3c-0.7,0-1.4,0-2.2,0
					c-1.5,0.1-2.9,0.3-4.1,0.5c-1.1,0.2-1.8,0.4-1.8,0.4L211.8,301.5z"/>
			</g>
			<g>
				<path fill="#B29A76" d="M213,298.4c0,0,0.6-0.4,1.6-1c1-0.6,2.3-1.2,3.7-1.7c0.7-0.3,1.4-0.6,2.1-0.7c0.7-0.1,1.4-0.2,1.9-0.1
					c1.1,0.1,1.9,0.4,1.9,0.4l0,0.2c0,0-0.2,0.1-0.5,0.2c-0.3,0.1-0.7,0.3-1.3,0.5c-0.5,0.2-1.1,0.4-1.8,0.5
					c-0.7,0.1-1.4,0.2-2.1,0.3c-1.4,0.3-2.8,0.7-3.8,1c-1,0.3-1.7,0.6-1.7,0.6L213,298.4z"/>
			</g>
			<g>
				<path fill="#B29A76" d="M227.3,303.1c0,0,0.3,0,0.8,0c0.5,0,1.1,0.1,1.8,0.3c0.3,0.1,0.7,0.2,0.9,0.3c0.3,0.2,0.4,0.4,0.6,0.7
					c0.2,0.5,0.2,1,0.2,1l-0.1,0.1c0,0-0.5,0-0.9-0.1c-0.2-0.1-0.5-0.1-0.7-0.3c-0.2-0.2-0.4-0.4-0.6-0.6c-0.4-0.4-0.9-0.7-1.3-0.9
					c-0.4-0.2-0.7-0.4-0.7-0.4L227.3,303.1z"/>
			</g>
			<g>
				<path fill="#B29A76" d="M228.1,297.5c0,0,0.3-0.2,0.9-0.3c0.6-0.1,1.4-0.2,2.2-0.1c0.4,0.1,0.8,0.1,1.2,0.2
					c0.4,0.2,0.6,0.4,0.8,0.6c0.4,0.5,0.5,1,0.5,1l-0.1,0.1c0,0-0.5,0.1-1.1,0c-0.3,0-0.6-0.1-0.9-0.2c-0.3-0.1-0.6-0.4-0.9-0.5
					c-0.6-0.3-1.3-0.5-1.9-0.6c-0.5-0.1-0.9-0.1-0.9-0.1L228.1,297.5z"/>
			</g>
		</g>
		
			<use xlink:href="#New_Symbol_5" width="16.1" height="6.6" x="-8.1" y="-3.3" transform="matrix(1.3088 0 0 -1.3088 188.9179 253.9151)" overflow="visible"/>
		
			<use xlink:href="#New_Symbol_4" width="25.3" height="100" id="XMLID_40_" x="-12.7" y="-50.1" transform="matrix(1.6096 0 0 -1.6096 369.2384 233.4631)" overflow="visible"/>
		
			<use xlink:href="#New_Symbol_6" width="175.7" height="117.9" id="XMLID_25_" x="-91.4" y="-59" transform="matrix(1.6096 0 0 -1.6096 201.3508 184.3164)" overflow="visible"/>
		
			<use xlink:href="#New_Symbol_3" width="24" height="77.5" id="XMLID_39_" x="-12" y="-38.9" transform="matrix(1.6096 0 0 -1.6096 263.0289 250.5197)" overflow="visible"/>
		<path fill="#F6F3EC" stroke="#7F766A" stroke-width="1.6096" stroke-miterlimit="10" d="M233.1,200.9c3.8-6.5,7.2-12.8,10.2-18.4
			c3.6-10.7,10-20.5,18.3-28.2c2.3-2.2,5.2-3.7,8.3-4.5c10.1-2.6,20.6-4,31.1-4.1c10.9-3.5,22.1-6.4,33.4-8.5
			c4.7-0.9,9.5-0.7,14.1,0.6c7.3,2.1,14.4,5,21.1,8.6c3,1.7,5.7,4,7.8,6.7c1.9,2.5,3.6,5,5.3,7.7c4.8,7.8,8.3,16.6,8.8,25.7
			c-2.7,1.5-5.4,3-8.2,4.4c-13.9,13.8-32,23.3-51.3,27.1c2.1,0.5,4.2,0.9,6.2,1.4c0.5,0.1,0.5,0.8,0,0.9c-5.5,1.5-8.6,0.9-14.3,0.1
			c1.6,0.5,2.1,2.5,2.1,2.5c-7.7,0.9-15.2-1.9-22.5-4.4c-8.1-2.8-16.3-5.5-24.8-6.5c-1.2-0.1-2.4-0.3-3.5-0.3
			c-9.9,1.8-19.2,6.8-26.3,13.9c-7.6,10.1-13.5,21.5-17.5,33.5c-0.5,3.2-1.7,6.2-3.3,8.9c-0.2,0.8-0.4,1.4-0.6,2.2
			c0.1,3.5-1.3,6.9-3.8,9.3c-4,3.9-9.3,12.9-9.3,12.9c-1.3,3.3-2.8,6.6-5.1,9.2c0,0-0.9,5.2-4.7,4.8c-1.7-0.2-1.6-4.9-1.9-4.9
			c-0.6,0.1-1.7,3.9-2.4,3.8c-0.9,1-3,3.6-5.1,3.5c-1.2,0-2.1-1.1-2-2.3l0.2-3c-1.9-1.8-3.5-3.9-4.6-6.3c-0.8-1.8-1.2-3.8-1.1-5.7
			c0.6-6.3,1.8-12.6,3.6-18.6c-2.9-5.2-3.8-11.4-2.9-17.2c0.3-1.6,0.9-3.2,2-4.4c5.4-6.4,12.4-11.5,20.2-14.7
			C217.5,226.6,225.8,213.5,233.1,200.9z"/>
		<path fill="#F6F3EC" stroke="#7F766A" stroke-width="1.6096" stroke-miterlimit="10" d="M394,176.2c-4.5-5.1-9-10.1-15.1-13.1
			c3.3,5.1,5.9,10.7,7.7,16.5c5.2,4.4,8.3,10.6,12.1,16.1c3.4,4.8,9.3,10.2,15.1,11.9c0.5,0.1,0.9-0.3,0.7-0.8
			c-0.5-1.2-0.6-2.6-1.5-3.7c3.8,1.6,6.6,2,10.2,0.2c-1.1-0.6-2.3-1.2-3.4-1.8c2.7,0.3,5.5-0.1,8-1.2c1.9-0.9,3.7-2.2,5.1-3.8
			c-11.7-0.5-23.3-5.2-32-13.2C398.4,181.2,396.2,178.7,394,176.2z"/>
		
			<use xlink:href="#New_Symbol_4" width="25.3" height="100" id="XMLID_38_" x="-12.7" y="-50.1" transform="matrix(1.6096 0 0 -1.6096 374.3354 236.0422)" overflow="visible"/>
		<g>
			<g>
				<path fill="#A8A194" d="M246.3,184.3c0,0,0-0.5,0.1-1.4c0-0.4,0.1-1,0.2-1.6c0.1-0.6,0.2-1.3,0.3-2.1c0.1-0.8,0.3-1.6,0.5-2.4
					c0.2-0.9,0.5-1.7,0.8-2.7c0.3-0.9,0.7-1.8,1.1-2.8c0.4-0.9,0.9-1.9,1.3-2.8c0.5-0.9,1-1.8,1.5-2.7c0.5-0.9,1.1-1.7,1.7-2.5
					c0.6-0.7,1.2-1.5,1.8-2.1c0.3-0.3,0.6-0.6,0.9-0.9c0.3-0.3,0.6-0.5,0.9-0.8c0.6-0.5,1.1-0.9,1.7-1.3c0.5-0.4,1-0.7,1.4-0.9
					c0.8-0.5,1.2-0.7,1.2-0.7l0.1,0.1c0,0-0.3,0.4-1,1c-0.3,0.3-0.7,0.7-1.1,1.2c-0.4,0.4-0.9,1-1.4,1.5c-0.5,0.6-1,1.2-1.6,1.8
					c-0.6,0.7-1.1,1.4-1.7,2.1c-0.6,0.7-1.2,1.5-1.7,2.3c-0.6,0.8-1.1,1.6-1.7,2.5c-0.5,0.9-1,1.7-1.4,2.6c-0.5,0.9-0.8,1.8-1.2,2.6
					c-0.3,0.9-0.7,1.7-0.9,2.5c-0.3,0.8-0.5,1.6-0.7,2.3c-0.2,0.7-0.4,1.4-0.5,2c-0.1,0.6-0.2,1.1-0.3,1.6c-0.1,0.9-0.2,1.4-0.2,1.4
					L246.3,184.3z"/>
			</g>
			<g>
				<path fill="#A8A194" d="M278.1,149.9c0,0,0.3,0.1,0.8,0.3c0.5,0.2,1.2,0.5,2.1,0.9c0.4,0.2,0.9,0.4,1.3,0.7
					c0.5,0.2,0.9,0.6,1.4,0.9c1,0.7,2,1.4,2.9,2.3c0.9,0.9,1.8,1.7,2.6,2.7c0.3,0.5,0.7,0.9,0.9,1.4c0.3,0.5,0.5,0.9,0.7,1.4
					c0.4,0.9,0.6,1.6,0.7,2.2c0.1,0.5,0.1,0.9,0.1,0.9l-0.1,0.1c0,0-0.2-0.2-0.5-0.7c-0.3-0.4-0.8-1-1.3-1.8
					c-0.5-0.7-1.1-1.5-1.8-2.4c-0.3-0.4-0.7-0.9-1-1.4c-0.3-0.5-0.7-0.9-1.1-1.4c-0.8-0.9-1.7-1.7-2.5-2.4c-0.9-0.7-1.7-1.3-2.5-1.8
					c-0.8-0.5-1.4-0.9-1.9-1.1c-0.5-0.2-0.7-0.4-0.7-0.4L278.1,149.9z"/>
			</g>
			<g>
				<path fill="#A8A194" d="M354,194.6l-0.4,1.2l-0.4,1.2l-0.5,1.1l-0.6,1.1l-0.6,1.1l-0.7,1l-0.7,1l-0.8,1l-0.8,0.9l-0.9,0.9
					l-0.9,0.8l-1,0.8l-1,0.7l-1.1,0.7l-1.1,0.6l-1.1,0.6l-0.6,0.3l-0.1-0.7l-0.3-3.6l1,0.2c-0.3,0.6-0.7,1.1-1,1.6
					c-0.4,0.5-0.8,1-1.2,1.5c-0.8,1-1.8,1.9-2.8,2.6c-0.5,0.4-1,0.8-1.6,1.1c-0.5,0.3-1.1,0.7-1.7,1c-0.6,0.3-1.2,0.6-1.8,0.8
					c-0.6,0.2-1.2,0.5-1.8,0.6l-1.1,0.3l0.1-1.2c0.3-2.1,0.5-4.2,0.8-6.3l1.2,0.8c-1.8,1.1-3.8,1.9-5.8,2.6c-2,0.7-4.1,1.2-6.2,1.4
					l-0.8,0.1l0.3-0.7c0.3-0.8,0.7-1.7,1-2.5c0.4-0.8,0.7-1.7,1.1-2.5l0.2,0.1c-0.2,0.9-0.5,1.7-0.7,2.6c-0.2,0.9-0.5,1.7-0.7,2.6
					l-0.5-0.6c1-0.2,2-0.5,3-0.8c1-0.3,1.9-0.7,2.9-1c1.9-0.8,3.7-1.7,5.5-2.7l1.4-0.8l-0.2,1.7c-0.2,2.1-0.6,4.2-0.9,6.3l-1-0.9
					c0.6-0.2,1.1-0.3,1.7-0.5c0.6-0.2,1.1-0.4,1.7-0.7c0.5-0.3,1.1-0.5,1.6-0.8c0.5-0.3,1-0.6,1.5-1c1-0.7,1.9-1.5,2.7-2.4
					c0.4-0.4,0.8-0.9,1.2-1.4c0.4-0.5,0.7-1,1-1.5l0.9-1.4l0.1,1.6l0.2,3.6l-0.7-0.4l1.1-0.5l1.1-0.6l1-0.6l1-0.7l1-0.7l0.9-0.8
					l0.9-0.8l0.9-0.9l0.8-0.9l0.8-1l0.7-1l0.7-1l0.6-1.1l0.6-1.1l0.5-1.1l0.4-1.2L354,194.6z"/>
			</g>
			<g>
				<path fill="#A8A194" d="M221.2,253.1c0,0,0-0.1,0.1-0.4c0.1-0.3,0.1-0.7,0.3-1.2c0.1-0.5,0.3-1.1,0.6-1.8
					c0.1-0.3,0.3-0.7,0.4-1.1c0.2-0.4,0.4-0.7,0.6-1.1c0.8-1.6,2-3.3,3.5-5c1.4-1.7,3.1-3.4,4.8-5.1c1.7-1.7,3.2-3.4,4.6-5
					c0.7-0.8,1.4-1.6,2-2.4c0.6-0.8,1.1-1.5,1.6-2.2c0.2-0.4,0.4-0.7,0.6-1c0.2-0.3,0.4-0.7,0.5-1c0.3-0.6,0.6-1.2,0.8-1.7
					c0.2-0.5,0.3-0.9,0.4-1.1c0.1-0.3,0.1-0.4,0.1-0.4l0.2,0c0,0,0,0.1,0,0.4c0,0.3,0,0.7-0.1,1.2c-0.1,0.5-0.2,1.1-0.4,1.9
					c-0.2,0.7-0.5,1.5-0.9,2.3c-0.4,0.8-0.9,1.7-1.5,2.5c-0.6,0.9-1.3,1.7-2,2.6c-1.5,1.7-3.3,3.2-5,4.8c-1.7,1.6-3.5,3.1-4.9,4.7
					c-1.5,1.6-2.7,3.2-3.7,4.7c-0.2,0.4-0.4,0.7-0.6,1.1c-0.2,0.4-0.3,0.7-0.5,1c-0.3,0.6-0.5,1.2-0.7,1.7c-0.2,0.5-0.3,0.9-0.3,1.1
					c-0.1,0.3-0.1,0.4-0.1,0.4L221.2,253.1z"/>
			</g>
			<g>
				<path fill="#A8A194" d="M206.9,284.5c0,0,0.8,0.2,2,0.5c0.6,0.2,1.3,0.4,2,0.6c0.7,0.2,1.5,0.4,2.3,0.9c0.4,0.2,0.8,0.5,1.1,0.9
					c0.1,0.1,0.3,0.4,0.4,0.6c0.1,0.2,0.2,0.4,0.3,0.7c0.3,0.9,0.1,1.7,0,2.4c-0.2,0.6-0.4,1.1-0.6,1.4c-0.2,0.3-0.3,0.5-0.3,0.5
					l-0.2,0c0,0,0-0.2-0.1-0.6c0-0.4-0.1-0.9-0.1-1.4c-0.1-0.6-0.1-1.2-0.3-1.8c0-0.1-0.1-0.3-0.1-0.4c-0.1-0.2,0-0.2-0.2-0.4
					c-0.1-0.3-0.4-0.5-0.6-0.7c-0.5-0.4-1.3-0.8-2-1.1c-0.7-0.3-1.3-0.6-1.9-0.9c-1.1-0.5-1.8-0.9-1.8-0.9L206.9,284.5z"/>
			</g>
		</g>
		
			<use xlink:href="#New_Symbol_2" width="11.5" height="25.9" x="-5.8" y="-12.9" transform="matrix(1.3101 0.3414 0.3414 -1.3101 200.5626 231.1009)" overflow="visible"/>
		
			<use xlink:href="#New_Symbol_2" width="11.5" height="25.9" id="XMLID_37_" x="-5.8" y="-12.9" transform="matrix(1.6096 0 0 -1.6096 196.4153 229.517)" overflow="visible"/>
		<g>
			<path fill="#A8A194" d="M224.6,256.7c0,0,0,0.3-0.1,0.7c0,0.4,0,1.1,0.1,1.8c0.2,1.5,0.8,3.3,1.6,5.2c0.4,0.9,0.8,1.9,1.1,2.8
				c0.3,0.9,0.4,1.9,0.4,2.7c0,0.8-0.1,1.5-0.3,1.9c-0.1,0.5-0.3,0.7-0.3,0.7l-0.2,0c0,0-0.1-0.3-0.1-0.7c0-0.2-0.1-0.5-0.2-0.8
				c-0.1-0.3-0.2-0.6-0.3-1c-0.2-0.7-0.5-1.5-0.7-2.4c-0.2-0.9-0.4-1.9-0.7-2.8c-0.3-1-0.5-2-0.7-2.9c-0.2-1-0.3-1.9-0.3-2.6
				c0-0.8,0.1-1.4,0.2-1.9c0.1-0.4,0.2-0.7,0.2-0.7L224.6,256.7z"/>
		</g>
		<path fill="#EAC5DB" stroke="#A38297" stroke-width="1.6096" stroke-miterlimit="10" d="M194.8,298.1c0-1.3-0.1-2.5-0.2-3.8
			c-0.8,0.4-1.5,0.9-2.1,1.5c-0.4,0.4-0.5,1.1-0.3,1.6c0.5,1.2,1.3,2.3,2.5,3C194.8,299.7,194.8,298.9,194.8,298.1z"/>
		<g>
			<path fill="#A38297" d="M194.5,288.3c0,0,0.2,0.9,0.5,2.2c0.3,1.3,0.6,3.1,0.8,4.8c0.1,0.9,0.2,1.8,0.3,2.6
				c0,0.8-0.1,1.6-0.2,2.3c-0.3,1.3-0.7,2.2-0.7,2.2l-0.2,0c0,0-0.3-0.9-0.4-2.2c-0.1-0.7-0.1-1.4-0.1-2.2c0-0.8,0.1-1.7,0.1-2.6
				c0-1.8,0-3.5-0.1-4.8c-0.1-1.3-0.1-2.2-0.1-2.2L194.5,288.3z"/>
		</g>
		<g>
			<path fill="#A8A194" d="M196.6,308.1c0,0,0.1,0,0.2-0.1c0.1-0.1,0.3-0.2,0.5-0.3c0.4-0.3,1-0.8,1.5-1.5c1.1-1.4,2.1-3.5,3-5.8
				c0.4-1.1,0.9-2.3,1.4-3.3c0.6-1,1.3-1.9,2.1-2.5c0.4-0.3,0.7-0.6,1.1-0.8c0.3-0.2,0.7-0.3,0.9-0.4c0.5-0.2,0.8-0.2,0.8-0.2
				l0.1,0.1c0,0-0.1,0.1-0.2,0.2c-0.1,0.1-0.3,0.2-0.5,0.4c-0.2,0.2-0.4,0.4-0.6,0.7c-0.2,0.3-0.5,0.6-0.7,0.9
				c-0.5,0.7-1,1.5-1.6,2.5c-0.6,0.9-1.2,1.9-1.7,3c-0.5,1.1-1.1,2.2-1.7,3.1c-0.6,1-1.3,1.8-2,2.5c-0.7,0.7-1.3,1.1-1.8,1.3
				c-0.5,0.3-0.8,0.4-0.8,0.4L196.6,308.1z"/>
		</g>
		<g>
			<path fill="#A8A194" d="M252.9,213.2c0,0,0.1-0.1,0.2-0.2c0.1-0.1,0.3-0.3,0.6-0.5c0.3-0.2,0.7-0.4,1.1-0.6
				c0.4-0.2,1-0.4,1.5-0.6c1.2-0.3,2.6-0.5,4.1-0.5c1.5,0,3.1,0.3,4.7,0.6c1.5,0.4,3.1,0.7,4.5,1.1c1.4,0.4,2.7,0.8,3.8,1.1
				c0.6,0.1,1.1,0.3,1.5,0.4c0.5,0.1,0.9,0.2,1.2,0.2c0.3,0.1,0.6,0.1,0.8,0.1c0.2,0,0.3,0.1,0.3,0.1l0,0.2c0,0-0.4,0.1-1.1,0.2
				c-0.4,0.1-0.8,0.1-1.3,0.1c-0.5,0-1.1,0-1.7,0c-1.2-0.1-2.6-0.4-4-0.8c-1.4-0.4-2.9-1-4.4-1.5c-1.5-0.4-3-0.8-4.4-0.9
				c-1.4-0.1-2.8-0.1-3.9,0.1c-0.6,0.1-1.1,0.3-1.5,0.4c-0.4,0.2-0.8,0.3-1.1,0.5c-0.3,0.1-0.5,0.3-0.7,0.4
				c-0.2,0.1-0.2,0.2-0.2,0.2L252.9,213.2z"/>
		</g>
		
			<use xlink:href="#New_Symbol_5" width="16.1" height="6.6" id="XMLID_36_" x="-8.1" y="-3.3" transform="matrix(1.6096 0 0 -1.6096 193.6944 249.3972)" overflow="visible"/>
		<g>
			<path fill="#A8A194" d="M209.1,304.1c0,0-0.2-0.4-0.4-1.2c-0.2-0.7-0.5-1.7-0.6-2.7c-0.1-0.5-0.2-1-0.2-1.5
				c0-0.5,0.1-0.9,0.3-1.3c0.3-0.7,0.7-1.2,0.7-1.2l0.2,0c0,0,0.3,0.5,0.4,1.2c0.1,0.4,0.1,0.8,0.1,1.2c0,0.4-0.2,0.9-0.2,1.4
				c-0.1,0.9-0.1,1.9-0.1,2.6c0,0.7,0,1.2,0,1.2L209.1,304.1z"/>
		</g>
		
			<use xlink:href="#New_Symbol_3" width="24" height="77.5" id="XMLID_33_" x="-12" y="-38.9" transform="matrix(1.6096 0 0 -1.6096 268.1259 253.2476)" overflow="visible"/>
		
			<ellipse transform="matrix(-0.2518 0.9678 -0.9678 -0.2518 508.6117 140.7653)" fill="#231F20" cx="199.9" cy="267" rx="2.1" ry="3.9"/>
		
			<use xlink:href="#New_Symbol_6" width="175.7" height="117.9" id="XMLID_21_" x="-91.4" y="-59" transform="matrix(1.6096 0 0 -1.6096 274.2309 379.64)" overflow="visible"/>
	</g>
</g>
</svg>
