<?xml version="1.0" encoding="utf-8"?>
<!-- Generator: Adobe Illustrator 19.1.0, SVG Export Plug-In . SVG Version: 6.00 Build 0)  -->
<svg version="1.1" id="Layer_1" xmlns="http://www.w3.org/2000/svg" xmlns:xlink="http://www.w3.org/1999/xlink" x="0px" y="0px"
	 width="500px" height="500px" viewBox="0 0 500 500" style="enable-background:new 0 0 500 500;" xml:space="preserve">
<style type="text/css">
	.st0{clip-path:url(#SVGID_2_);}
	.st1{fill:#EDEDF9;}
	.st2{fill:#603A17;}
	.st3{fill:#3B2416;}
	.st4{fill:#895224;}
	.st5{fill:#F0CBA1;stroke:#C2986B;stroke-width:2;stroke-miterlimit:10;}
	.st6{fill:#DCEFF4;stroke:#9DBEC6;stroke-width:3;stroke-miterlimit:10;}
	.st7{fill:#7A94BB;}
	.st8{fill:#4A617C;}
	.st9{fill:#F0CBA1;}
	.st10{fill:#C2986B;}
	.st11{fill:#6EC2CB;stroke:#4C9EBC;stroke-width:2.1134;stroke-miterlimit:10;}
	.st12{fill:#C2E6EB;stroke:#4C9EBC;stroke-width:2.536;stroke-miterlimit:10;}
	.st13{fill:#EFF8F8;}
	.st14{fill:#9EC8EA;}
	.st15{fill:#EFF8F8;stroke:#9EC8EA;stroke-width:2.536;stroke-miterlimit:10;}
	.st16{fill:#BDE5F2;stroke:#9EC8EA;stroke-width:2.536;stroke-miterlimit:10;}
</style>
<g>
	<defs>
		<rect id="SVGID_1_" x="0" y="0" width="500" height="500"/>
	</defs>
	<clipPath id="SVGID_2_">
		<use xlink:href="#SVGID_1_"  style="overflow:visible;"/>
	</clipPath>
	<g class="st0">
		<rect x="0" y="0" class="st1" width="500" height="500"/>
		<g>
			<path class="st2" d="M325.284,174.309c-7.124-6.841-11.786-16.218-12.911-26.033c-9.814,12.241-22.997,21.75-37.698,27.228
				c-0.381,5.467,3.097,10.748,7.846,13.489c4.761,2.748,10.563,3.229,15.999,2.416c4.895-0.733,9.577-2.44,14.192-4.23
				c-2.023-4.784-3.012-10.007-2.873-15.2c4.809,2.426,10.377,3.338,15.711,2.582C325.46,174.478,325.372,174.394,325.284,174.309z"
				/>
			<g>
				<path class="st3" d="M325.991,173.602c-6.932-6.787-11.418-15.685-12.618-25.326c-0.093-0.744-1.094-1.464-1.707-0.707
					c-9.811,12.118-22.667,21.455-37.257,26.971c-0.432,0.163-0.716,0.491-0.734,0.964c-0.295,7.775,5.553,14.061,12.716,16.223
					c8.971,2.708,18.208-0.348,26.587-3.584c0.457-0.177,0.919-0.69,0.698-1.23c-1.953-4.789-2.91-9.759-2.837-14.934
					c-0.502,0.288-1.003,0.576-1.505,0.863c5.091,2.463,10.595,3.421,16.215,2.719c0.798-0.1,1.397-1.051,0.707-1.707
					C326.168,173.77,326.079,173.686,325.991,173.602c-0.932-0.887-2.349,0.525-1.414,1.414c0.088,0.084,0.177,0.168,0.265,0.253
					c0.236-0.569,0.471-1.138,0.707-1.707c-5.255,0.657-10.432-0.136-15.206-2.446c-0.675-0.326-1.493,0.063-1.505,0.863
					c-0.075,5.338,0.892,10.52,2.909,15.465c0.233-0.41,0.466-0.82,0.698-1.23c-7.315,2.826-15.182,5.62-23.132,4.161
					c-7.303-1.34-13.939-6.954-13.639-14.872c-0.245,0.321-0.489,0.643-0.734,0.964c14.91-5.637,28.104-15.09,38.139-27.485
					c-0.569-0.236-1.138-0.471-1.707-0.707c1.268,10.183,5.865,19.555,13.204,26.74
					C325.497,175.917,326.912,174.504,325.991,173.602z"/>
			</g>
		</g>
		<g>
			<path class="st2" d="M159.943,158.08c-1.414,5.523-3.729,10.816-6.863,15.578c7.08-1.899,13.481-6.368,17.661-12.399
				c-0.991,3.398-1.856,6.841-1.999,10.368c-0.174,4.309,0.844,8.827,3.672,12.083c3.719,4.281,9.972,5.641,15.579,4.793
				c3.37-0.51,6.566-1.699,9.651-3.174c-3.223-2.314-3.721-6.972-2.454-10.674c1.221-3.569,3.734-6.517,5.991-9.539
				c1.374-1.841,2.696-3.814,3.561-5.926c-11.723-11.158-27.335-18.199-43.474-19.502
				C161.951,145.833,161.476,152.092,159.943,158.08z"/>
			<g>
				<path class="st3" d="M158.978,157.815c-1.447,5.466-3.694,10.589-6.762,15.339c-0.479,0.742,0.313,1.699,1.129,1.469
					c7.432-2.096,13.779-6.573,18.259-12.858c-0.609-0.257-1.218-0.514-1.828-0.771c-2.414,8.4-3.964,19.27,3.999,25.329
					c7.243,5.511,16.807,3.417,24.374-0.131c0.544-0.255,0.682-1.188,0.202-1.571c-8.885-7.1,4.362-18.344,7.254-24.928
					c0.177-0.402,0.191-0.885-0.156-1.212c-12.075-11.358-27.663-18.361-44.181-19.795c-0.501-0.044-1.051,0.495-1,1
					C160.889,145.796,160.449,151.851,158.978,157.815c-0.308,1.25,1.62,1.783,1.929,0.532c1.512-6.127,2-12.377,1.36-18.66
					c-0.333,0.333-0.667,0.667-1,1c15.97,1.386,31.099,8.235,42.767,19.209c-0.052-0.404-0.104-0.808-0.156-1.212
					c-2.391,5.442-7.202,9.403-9.372,14.949c-1.647,4.211-1.293,9.427,2.431,12.403c0.067-0.524,0.135-1.047,0.202-1.571
					c-6.712,3.147-15.173,5.168-21.768,0.56c-7.691-5.374-5.873-15.823-3.667-23.499c0.33-1.147-1.197-1.655-1.828-0.771
					c-4.168,5.848-10.162,9.993-17.063,11.939c0.376,0.49,0.753,0.979,1.129,1.469c3.158-4.888,5.475-10.193,6.964-15.817
					C161.237,157.101,159.308,156.569,158.978,157.815z"/>
			</g>
		</g>
		<g>
			<g>
				<path class="st4" d="M180.815,178.778l1.019,0.724l-0.205,0.221l-0.792-0.9l-0.701-0.977c-0.201-0.347-0.413-0.689-0.606-1.043
					c-0.169-0.364-0.354-0.724-0.51-1.096c-0.301-0.749-0.551-1.518-0.742-2.304c-0.185-0.787-0.321-1.586-0.398-2.39
					c-0.154-1.609-0.121-3.231,0.048-4.835c0.088-0.802,0.208-1.599,0.352-2.393c0.154-0.796,0.333-1.568,0.536-2.369
					c0.199-0.756,0.421-1.52,0.653-2.298c0.235-0.762,0.46-1.525,0.722-2.273c0.267-0.745,0.507-1.497,0.8-2.227
					c0.277-0.734,0.575-1.458,0.871-2.181l0.88-2.162l0.843-2.17c0.264-0.729,0.527-1.46,0.776-2.201l0.365-1.118
					c0.1-0.378,0.215-0.756,0.337-1.137c0.016-0.054,0.072-0.085,0.126-0.069c0.041,0.012,0.069,0.051,0.073,0.091
					c0.054,0.802,0.012,1.602-0.027,2.408c-0.072,0.8-0.173,1.6-0.32,2.39c-0.142,0.791-0.33,1.571-0.527,2.347
					c-0.2,0.775-0.441,1.535-0.674,2.295c-0.246,0.755-0.499,1.505-0.78,2.242c-0.267,0.741-0.583,1.461-0.867,2.189l-0.88,2.168
					c-0.279,0.71-0.542,1.443-0.8,2.193c-0.238,0.71-0.455,1.461-0.647,2.201c-0.184,0.746-0.344,1.497-0.475,2.254
					c-0.254,1.514-0.38,3.051-0.328,4.583c0.032,0.765,0.096,1.529,0.209,2.288c0.12,0.757,0.296,1.504,0.523,2.238
					c0.119,0.365,0.267,0.719,0.399,1.082l0.496,1.043l0.596,0.994l0.695,0.934l0.012,0.016c0.049,0.067,0.036,0.161-0.031,0.21
					c-0.057,0.042-0.134,0.038-0.186-0.006l-0.956-0.805c-0.042-0.036-0.048-0.099-0.012-0.141
					C180.714,178.755,180.773,178.748,180.815,178.778z"/>
			</g>
			<g>
				<path class="st4" d="M162.393,160.105c0,0,0.154-0.299,0.424-0.822c0.267-0.529,0.645-1.261,1.046-2.179
					c0.416-0.907,0.83-1.995,1.269-3.153c0.418-1.168,0.806-2.43,1.136-3.703c0.14-0.644,0.305-1.279,0.403-1.919
					c0.117-0.635,0.206-1.263,0.333-1.861c0.242-1.198,0.536-2.306,0.775-3.27c0.255-0.961,0.47-1.773,0.649-2.344
					c0.17-0.572,0.304-0.903,0.304-0.903c0.021-0.055,0.082-0.082,0.137-0.061c0.031,0.012,0.053,0.038,0.063,0.067
					c0,0,0.427,1.358,0.436,3.43c0.015,0.518-0.012,1.077-0.064,1.666c-0.03,0.593-0.144,1.207-0.261,1.84
					c-0.285,1.259-0.783,2.55-1.249,3.835c-0.489,1.279-1.034,2.532-1.596,3.678c-0.296,0.566-0.558,1.123-0.86,1.625
					c-0.292,0.506-0.57,0.982-0.847,1.409c-0.538,0.86-1.022,1.565-1.374,2.031c-0.353,0.471-0.554,0.74-0.554,0.74
					c-0.033,0.044-0.096,0.053-0.14,0.02C162.382,160.202,162.371,160.148,162.393,160.105z"/>
			</g>
		</g>
		<g>
			<g>
				<path class="st4" d="M302.901,181.176c0,0-0.353,0.132-0.998,0.319c-0.648,0.196-1.587,0.401-2.745,0.525
					c-0.578,0.051-1.209,0.096-1.879,0.086c-0.671,0.007-1.377-0.069-2.106-0.162c-1.456-0.206-2.991-0.624-4.452-1.261
					c-0.705-0.304-1.442-0.695-2.121-1.086c-0.677-0.405-1.319-0.853-1.886-1.35c-0.554-0.51-1.062-1.036-1.468-1.596
					c-0.426-0.542-0.769-1.097-1.06-1.62c-0.287-0.526-0.503-1.031-0.679-1.48c-0.163-0.457-0.289-0.857-0.364-1.196
					c-0.161-0.673-0.188-1.069-0.188-1.069c-0.005-0.057,0.037-0.108,0.094-0.114c0.036-0.003,0.071,0.014,0.092,0.04
					c0,0,0.236,0.304,0.65,0.836c0.203,0.257,0.45,0.569,0.733,0.926c0.285,0.35,0.618,0.73,0.974,1.141
					c0.734,0.808,1.615,1.693,2.607,2.581c0.49,0.451,1.008,0.905,1.552,1.355c0.557,0.442,1.127,0.82,1.774,1.199
					c1.257,0.703,2.625,1.23,3.959,1.555c1.335,0.318,2.624,0.473,3.738,0.503c1.113,0.027,2.051-0.071,2.696-0.158
					c0.651-0.087,1.026-0.167,1.026-0.167c0.054-0.012,0.107,0.023,0.119,0.077c0.01,0.049-0.017,0.097-0.063,0.114L302.901,181.176
					z"/>
			</g>
			<g>
				<path class="st4" d="M300.058,174.574c0,0-0.176-0.181-0.485-0.498c-0.307-0.311-0.735-0.801-1.208-1.402
					c-0.981-1.186-2.058-2.956-2.914-4.853c-0.409-0.953-0.856-1.912-1.1-2.866c-0.098-0.481-0.19-0.948-0.204-1.401
					c-0.034-0.45-0.045-0.876-0.017-1.272c0.064-1.583,0.519-2.599,0.519-2.599c0.025-0.056,0.09-0.08,0.146-0.056
					c0.024,0.011,0.043,0.031,0.054,0.053c0,0,0.126,0.25,0.283,0.676c0.165,0.426,0.361,1.027,0.586,1.733
					c0.212,0.709,0.467,1.517,0.663,2.395c0.103,0.439,0.167,0.903,0.257,1.372c0.072,0.475,0.206,0.941,0.317,1.417
					c0.268,0.936,0.588,1.863,0.938,2.716c0.369,0.842,0.716,1.639,1.069,2.295c0.34,0.667,0.66,1.189,0.89,1.573
					c0.231,0.377,0.363,0.592,0.363,0.592c0.029,0.047,0.014,0.109-0.033,0.138C300.142,174.615,300.091,174.607,300.058,174.574z"
					/>
			</g>
			<g>
				<path class="st4" d="M312.51,165.917c0,0-0.196-0.176-0.538-0.483c-0.341-0.302-0.819-0.78-1.353-1.37
					c-0.274-0.292-0.553-0.623-0.846-0.978c-0.302-0.349-0.57-0.752-0.871-1.156c-0.574-0.826-1.138-1.743-1.654-2.695
					c-0.493-0.959-1.022-1.923-1.345-2.894c-0.137-0.491-0.269-0.968-0.319-1.437c-0.071-0.464-0.116-0.904-0.119-1.317
					c-0.062-1.645,0.316-2.732,0.316-2.732c0.02-0.057,0.082-0.087,0.139-0.067c0.026,0.009,0.047,0.028,0.06,0.05
					c0,0,0.145,0.25,0.334,0.682c0.197,0.431,0.439,1.043,0.721,1.761c0.268,0.722,0.589,1.545,0.859,2.445
					c0.14,0.449,0.244,0.926,0.374,1.407c0.113,0.488,0.288,0.962,0.441,1.448c0.352,0.953,0.757,1.891,1.187,2.751
					c0.449,0.847,0.873,1.647,1.29,2.301c0.405,0.666,0.779,1.184,1.048,1.563c0.27,0.373,0.424,0.586,0.424,0.586
					c0.033,0.045,0.022,0.108-0.023,0.14C312.598,165.952,312.545,165.948,312.51,165.917z"/>
			</g>
		</g>
		<path class="st5" d="M81.831,417.122c0,0-10.23-14.48-9.55-38.176c0.68-23.696,12.232-68.126,12.232-68.126l44.17,18.626
			l3.561,57.742L81.831,417.122z"/>
		<path class="st5" d="M308.91,338.383c0,0,21.763,82.231,56.953,102.129c5.59,3.161,12.39,3.406,18.192,0.655
			c10.95-5.192,28.978-18.063,30.659-46.922l-44.41-81.661l-51.021,3.109l-12.732,6.945L308.91,338.383z"/>
		<path class="st6" d="M378.254,279.619l-7.949,1.209c3.308,9.605,10.301,33.192,11.844,64.718h4.283l-6.492-61.227
			C379.761,282.637,379.169,281.035,378.254,279.619z"/>
		<g>
			<path class="st7" d="M359.494,494.589c-9.077-17.665-18.155-35.33-27.234-52.994c-9.282-36.205-15.842-73.107-19.612-110.277
				c21.606-2.032,42.917-7.205,63.057-15.287c-10.343-19.721-18.294-40.698-23.586-62.328
				c-5.156-15.278-11.282-30.533-21.019-42.757c-20.596-15.625-42.495-29.235-67.246-36.032
				c-36.268-9.96-76.635-3.469-108.177,16.924c-13.309,1.269-26.017,8.006-34.921,18.012c-9.522,20.249-19.046,40.497-28.57,60.745
				c-11.246,16.176-22.492,32.352-33.738,48.528c21.35,11.759,44.88,19.496,69.017,22.883c-1.016,21.462-0.376,43.002,1.931,64.364
				c1.891,9.593,4.112,19.12,6.661,28.559c0.105,24.083,3.106,48.153,8.933,71.521c73.532-0.002,147.064-0.002,220.597-0.002
				C363.556,502.494,361.525,498.542,359.494,494.589z"/>
			<g>
				<path class="st8" d="M360.487,494.009c-5.144-10.01-10.287-20.021-15.432-30.031c-2.496-4.858-4.993-9.716-7.49-14.573
					c-1.278-2.487-2.723-4.952-3.859-7.507c-1.189-2.678-1.657-5.809-2.351-8.648c-5.211-21.309-9.482-42.847-12.803-64.53
					c-1.903-12.425-3.478-24.897-4.754-37.402c-0.383,0.383-0.767,0.767-1.15,1.15c21.742-2.09,43.073-7.235,63.362-15.328
					c0.705-0.281,1.06-0.975,0.687-1.689c-7.619-14.586-13.96-29.811-18.868-45.52c-2.41-7.714-4.174-15.587-6.922-23.19
					c-2.517-6.965-5.311-13.851-8.695-20.444c-1.707-3.325-3.566-6.575-5.619-9.7c-1.833-2.791-3.639-5.69-6.32-7.706
					c-6.198-4.66-12.534-9.143-19.068-13.322c-12.643-8.086-26.087-15.037-40.366-19.745c-27.423-9.044-57.503-8.717-84.89,0.322
					c-6.65,2.195-13.139,4.898-19.376,8.083c-3.32,1.695-6.567,3.533-9.729,5.506c-2.788,1.74-6.584,1.648-9.749,2.498
					c-6.565,1.763-12.807,4.789-18.292,8.798c-2.787,2.038-5.405,4.308-7.775,6.82c-2.602,2.757-3.867,6.947-5.467,10.351
					c-7.352,15.633-14.705,31.266-22.058,46.898c-0.833,1.77-1.569,3.654-2.592,5.317c-1.197,1.946-2.631,3.785-3.936,5.662
					c-2.437,3.505-4.873,7.009-7.31,10.514c-4.967,7.144-9.934,14.289-14.901,21.433c-2.437,3.505-4.873,7.01-7.31,10.514
					c-0.348,0.501-0.1,1.293,0.413,1.573c21.505,11.779,45.023,19.538,69.291,22.999c-0.281-0.37-0.563-0.739-0.844-1.109
					c-0.51,11.063-0.607,22.141-0.249,33.211c0.176,5.451,0.458,10.899,0.849,16.339c0.382,5.316,0.544,10.843,1.562,16.079
					c1.026,5.277,2.205,10.529,3.456,15.757c0.569,2.377,1.158,4.75,1.768,7.116c0.811,3.145,1.2,5.991,1.266,9.237
					c0.215,10.594,0.99,21.178,2.321,31.69c1.506,11.894,3.711,23.683,6.593,35.32c0.121,0.488,0.614,0.844,1.109,0.844
					c57.229-0.002,114.457-0.002,171.686-0.002c16.304,0,32.607,0,48.911,0c0.908,0,1.385-0.967,0.993-1.73
					C364.548,501.913,362.518,497.961,360.487,494.009c-0.677-1.317-2.662-0.155-1.986,1.161c2.031,3.952,4.062,7.904,6.092,11.857
					c0.331-0.577,0.662-1.154,0.993-1.73c-57.229,0-114.457,0-171.686,0.001c-16.304,0-32.607,0.001-48.911,0.001
					c0.37,0.281,0.739,0.563,1.109,0.844c-5.151-20.797-8.114-42.092-8.76-63.51c-0.076-2.517,0.182-5.212-0.132-7.705
					c-0.311-2.465-1.284-4.988-1.891-7.401c-1.312-5.215-2.524-10.455-3.637-15.716c-2.29-10.825-2.738-22.09-3.187-33.127
					c-0.497-12.222-0.441-24.46,0.123-36.679c0.021-0.449-0.369-1.041-0.844-1.109c-24.077-3.433-47.405-11.079-68.742-22.767
					c0.138,0.524,0.275,1.049,0.413,1.573c9.559-13.75,19.118-27.499,28.677-41.249c2.367-3.404,4.765-6.65,6.531-10.406
					c1.751-3.722,3.501-7.444,5.252-11.166c3.571-7.593,7.143-15.186,10.714-22.779c3.55-7.548,6.735-15.449,10.713-22.78
					c1.74-3.207,5.433-5.931,8.311-8.068c2.695-2.001,5.572-3.756,8.583-5.238c3.156-1.553,6.467-2.784,9.872-3.67
					c3.176-0.827,6.782-0.661,9.56-2.406c6.036-3.793,12.386-7.093,18.958-9.854c26.236-11.026,56.047-13.72,83.725-6.899
					c14.498,3.573,28.249,9.677,41.143,17.145c6.306,3.653,12.42,7.631,18.385,11.817c3.107,2.18,6.297,4.339,9.247,6.728
					c2.98,2.414,5.113,6.169,7.103,9.419c3.969,6.482,7.186,13.4,9.982,20.459c2.836,7.161,4.977,14.376,7.045,21.78
					c4.186,14.99,9.657,29.62,16.299,43.694c1.65,3.497,3.379,6.955,5.169,10.382c0.229-0.563,0.458-1.126,0.687-1.689
					c-20.088,8.013-41.22,13.176-62.751,15.246c-0.569,0.055-1.218,0.485-1.15,1.15c2.255,22.085,5.455,44.071,9.641,65.872
					c2.114,11.011,4.475,21.975,7.082,32.88c0.642,2.687,1.299,5.37,1.971,8.05c0.703,2.803,1.569,5.016,2.891,7.588
					c2.572,5.005,5.145,10.01,7.717,15.015c5.901,11.482,11.801,22.964,17.701,34.447
					C359.178,496.487,361.163,495.324,360.487,494.009z"/>
			</g>
		</g>
		<g>
			<path class="st9" d="M196.551,156.75c-0.509-0.043-1.017-0.085-1.526-0.128c0,0,2.942,22.838,6.868,33.628
				c1.596,4.387,4.371,8.267,8.078,11.104c9.07,6.94,19.392,12.255,30.309,15.605c7.235-1.574,14.276-4.021,20.939-7.25
				c3.423-1.659,5.966-4.726,6.966-8.396c3.385-12.425,5.609-25.166,6.624-38.004C248.724,161.122,222.638,158.936,196.551,156.75z"
				/>
			<g>
				<path class="st10" d="M196.551,155.75c-0.509-0.043-1.017-0.085-1.526-0.128c-0.491-0.041-1.065,0.494-1,1
					c0.753,5.822,1.692,11.628,2.79,17.395c1.647,8.65,3.189,18.422,9.321,25.164c3.892,4.279,9.328,7.473,14.314,10.303
					c5.169,2.934,10.612,5.392,16.225,7.346c1.083,0.377,2.453,1.087,3.606,1.128c1.215,0.043,2.683-0.587,3.866-0.895
					c3.434-0.892,6.815-1.983,10.125-3.259c4.784-1.845,10.089-3.68,13.037-8.155c1.721-2.613,2.317-5.755,3.057-8.744
					c0.928-3.75,1.751-7.526,2.468-11.323c1.391-7.366,2.368-14.803,2.977-22.274c0.046-0.57-0.498-0.958-1-1
					C248.724,160.122,222.638,157.936,196.551,155.75c-1.283-0.107-1.275,1.893,0,2c26.087,2.186,52.173,4.373,78.259,6.559
					c-0.333-0.333-0.667-0.667-1-1c-1.023,12.561-3.074,25.123-6.463,37.272c-1.695,6.079-6.421,8.376-11.887,10.612
					c-2.57,1.051-5.187,1.985-7.84,2.803c-2.903,0.895-6.183,2.319-9.166,1.328c-5.48-1.82-10.784-4.144-15.844-6.925
					c-4.931-2.711-10.257-5.795-14.263-9.793c-6.208-6.193-7.737-15.575-9.358-23.844c-1.178-6.009-2.18-12.067-2.965-18.14
					c-0.333,0.333-0.667,0.667-1,1c0.509,0.043,1.017,0.085,1.526,0.128C197.834,157.857,197.827,155.857,196.551,155.75z"/>
			</g>
		</g>
		<g>
			<path class="st7" d="M296.653,409.561c9.439,23.172,24.744,43.928,44.091,59.793"/>
			<path class="st8" d="M296.746,409.521c0,0,0.483,1.069,1.328,2.94c0.41,0.942,0.952,2.063,1.586,3.34
				c0.617,1.285,1.335,2.724,2.173,4.268c0.802,1.562,1.739,3.216,2.742,4.957c0.983,1.752,2.112,3.547,3.247,5.42
				c1.196,1.836,2.397,3.754,3.731,5.627c1.282,1.908,2.702,3.763,4.081,5.644c1.459,1.822,2.878,3.673,4.385,5.405
				c1.465,1.767,2.981,3.44,4.423,5.079c1.457,1.626,2.861,3.204,4.23,4.665c1.363,1.467,2.651,2.859,3.88,4.105
				c0.605,0.634,1.185,1.241,1.737,1.818c0.565,0.565,1.101,1.101,1.604,1.605c1.013,1.006,1.895,1.883,2.622,2.605
				c1.473,1.428,2.294,2.276,2.294,2.276l-0.128,0.156c0,0-0.969-0.668-2.628-1.892c-0.414-0.308-0.884-0.634-1.374-1.016
				c-0.482-0.392-1.003-0.816-1.56-1.269c-1.117-0.904-2.385-1.919-3.687-3.117c-0.655-0.594-1.355-1.196-2.049-1.851
				c-0.684-0.666-1.39-1.354-2.117-2.062c-0.74-0.696-1.457-1.452-2.178-2.237c-0.725-0.78-1.466-1.578-2.22-2.389
				c-1.424-1.696-2.93-3.419-4.327-5.277c-1.452-1.814-2.812-3.745-4.208-5.645c-1.333-1.946-2.704-3.863-3.936-5.83
				c-1.284-1.932-2.433-3.905-3.577-5.793c-1.077-1.927-2.172-3.759-3.079-5.568c-0.933-1.794-1.802-3.496-2.54-5.099
				c-0.774-1.584-1.433-3.061-1.997-4.379c-0.581-1.31-1.075-2.455-1.443-3.413c-0.763-1.905-1.2-2.994-1.2-2.994L296.746,409.521z"
				/>
		</g>
		<g>
			<path class="st7" d="M262,416.092c19.798,29.979,50.72,52.425,85.359,61.959"/>
			<path class="st8" d="M262.083,416.034c0,0,0.981,1.368,2.697,3.763c0.434,0.594,0.892,1.271,1.433,1.973
				c0.549,0.696,1.143,1.448,1.777,2.251c0.634,0.803,1.308,1.658,2.019,2.558c0.734,0.883,1.538,1.785,2.358,2.741
				c0.833,0.945,1.664,1.961,2.591,2.953c0.934,0.985,1.899,2.003,2.892,3.05c0.976,1.062,2.032,2.101,3.125,3.148
				c1.091,1.049,2.181,2.146,3.334,3.214c2.358,2.081,4.739,4.291,7.341,6.325c2.519,2.132,5.261,4.065,7.939,6.074
				c2.79,1.854,5.523,3.789,8.372,5.449c2.784,1.762,5.644,3.288,8.374,4.827c1.373,0.755,2.753,1.442,4.088,2.145
				c1.335,0.704,2.648,1.378,3.952,1.981c1.297,0.62,2.559,1.223,3.78,1.806c1.221,0.584,2.435,1.069,3.584,1.579
				c1.152,0.503,2.256,0.985,3.306,1.444c1.067,0.419,2.079,0.816,3.03,1.189c1.901,0.755,3.565,1.402,4.956,1.876
				c2.773,0.977,4.355,1.574,4.355,1.574l-0.054,0.195c0,0-1.643-0.372-4.512-1.09c-0.716-0.185-1.519-0.356-2.375-0.604
				c-0.851-0.265-1.771-0.552-2.754-0.859c-0.984-0.307-2.032-0.634-3.136-0.978c-1.095-0.371-2.233-0.8-3.422-1.246
				c-1.184-0.457-2.438-0.887-3.701-1.417c-1.255-0.548-2.553-1.115-3.887-1.698c-0.665-0.297-1.35-0.574-2.023-0.899
				c-0.667-0.337-1.342-0.677-2.025-1.022c-1.361-0.697-2.769-1.377-4.17-2.127c-2.743-1.605-5.622-3.188-8.383-5.065
				c-2.833-1.762-5.544-3.799-8.307-5.751c-2.662-2.091-5.384-4.104-7.878-6.313c-2.577-2.11-4.93-4.394-7.257-6.543
				c-1.137-1.102-2.211-2.233-3.286-3.313c-0.534-0.543-1.063-1.081-1.585-1.612c-0.514-0.539-0.991-1.1-1.478-1.638
				c-0.966-1.082-1.906-2.135-2.815-3.154c-0.901-1.024-1.706-2.072-2.514-3.045c-0.795-0.985-1.574-1.914-2.284-2.822
				c-0.687-0.927-1.34-1.806-1.952-2.633c-0.612-0.826-1.185-1.598-1.715-2.313c-0.521-0.72-0.957-1.409-1.374-2.016
				c-1.644-2.445-2.583-3.842-2.583-3.842L262.083,416.034z"/>
		</g>
		<g>
			<path class="st7" d="M197.782,420.078c37.469,35.124,87.57,56.478,138.856,59.184"/>
			<path class="st8" d="M197.849,420.003c0,0,1.809,1.587,4.976,4.364c0.798,0.687,1.655,1.48,2.636,2.283
				c0.989,0.792,2.06,1.649,3.203,2.564c1.143,0.915,2.358,1.888,3.64,2.914c1.307,0.994,2.717,1.994,4.167,3.063
				c1.465,1.049,2.95,2.198,4.56,3.285c1.617,1.075,3.289,2.187,5.008,3.329c0.863,0.566,1.722,1.163,2.619,1.724
				c0.905,0.549,1.821,1.106,2.747,1.668c1.858,1.114,3.73,2.296,5.679,3.418c3.952,2.153,7.981,4.478,12.255,6.495
				c4.194,2.177,8.631,4.013,13.006,5.974c4.478,1.719,8.904,3.567,13.402,5.003c4.441,1.598,8.916,2.838,13.215,4.136
				c2.158,0.619,4.304,1.142,6.391,1.702c1.045,0.274,2.08,0.545,3.101,0.813c1.024,0.257,2.046,0.471,3.048,0.704
				c2.009,0.456,3.962,0.899,5.852,1.328c1.893,0.416,3.745,0.698,5.512,1.034c1.769,0.326,3.465,0.639,5.078,0.936
				c1.623,0.238,3.162,0.463,4.609,0.675c1.448,0.212,2.804,0.41,4.057,0.594c1.254,0.178,2.413,0.278,3.458,0.403
				c4.181,0.454,6.574,0.752,6.574,0.752l-0.011,0.202c0,0-2.405-0.065-6.623-0.245c-1.054-0.053-2.225-0.066-3.493-0.165
				c-1.266-0.121-2.636-0.252-4.099-0.392c-1.465-0.14-3.024-0.289-4.667-0.446c-1.639-0.196-3.354-0.458-5.146-0.73
				c-1.788-0.287-3.664-0.519-5.584-0.882c-1.917-0.377-3.9-0.767-5.937-1.168c-1.017-0.209-2.057-0.385-3.094-0.629
				c-1.033-0.262-2.079-0.527-3.136-0.794c-2.111-0.547-4.282-1.058-6.466-1.665c-4.325-1.359-8.83-2.65-13.273-4.366
				c-4.504-1.539-8.931-3.49-13.403-5.311c-4.377-2.044-8.811-3.963-12.998-6.22c-4.267-2.097-8.284-4.499-12.221-6.725
				c-1.942-1.159-3.805-2.376-5.654-3.525c-0.921-0.579-1.832-1.153-2.732-1.719c-0.892-0.579-1.741-1.199-2.596-1.785
				c-1.701-1.183-3.356-2.334-4.957-3.447c-1.592-1.124-3.06-2.309-4.507-3.392c-1.433-1.102-2.824-2.134-4.114-3.159
				c-1.265-1.057-2.465-2.059-3.592-3.001c-1.127-0.942-2.181-1.823-3.156-2.638c-0.965-0.825-1.804-1.635-2.588-2.338
				c-3.107-2.843-4.883-4.467-4.883-4.467L197.849,420.003z"/>
		</g>
		<g>
			<path class="st7" d="M151.698,494.516c-2.504-38.534-1.09-77.321,4.216-115.57"/>
			<path class="st8" d="M151.597,494.522c0,0-0.131-1.805-0.361-4.965c-0.124-1.579-0.243-3.499-0.37-5.703
				c-0.139-2.203-0.281-4.69-0.397-7.405c-0.142-2.714-0.247-5.655-0.348-8.768c-0.122-3.112-0.141-6.396-0.207-9.793
				c-0.016-3.397-0.057-6.909-0.012-10.476c0.005-3.568,0.102-7.192,0.168-10.817c0.112-3.623,0.194-7.249,0.365-10.815
				c0.123-3.568,0.364-7.074,0.566-10.468c0.303-3.387,0.524-6.667,0.886-9.763c0.17-1.549,0.335-3.056,0.495-4.513
				c0.186-1.454,0.366-2.86,0.538-4.209c0.334-2.699,0.728-5.162,1.062-7.346c0.323-2.185,0.629-4.087,0.927-5.646
				c0.552-3.124,0.905-4.903,0.905-4.903l0.2,0.028c0,0-0.122,1.811-0.4,4.967c-0.134,1.578-0.297,3.494-0.484,5.692
				c-0.203,2.195-0.384,4.676-0.603,7.38c-0.418,5.405-0.905,11.712-1.428,18.468c-0.248,3.379-0.504,6.87-0.765,10.418
				c-0.265,3.549-0.442,7.159-0.65,10.769c-0.142,3.612-0.314,7.224-0.393,10.783c-0.119,3.558-0.151,7.061-0.207,10.451
				c-0.012,3.39-0.04,6.668-0.013,9.777c0.015,3.109,0.037,6.048,0.103,8.761c0.04,2.714,0.113,5.2,0.19,7.403
				c0.066,2.204,0.131,4.126,0.211,5.708c0.141,3.165,0.222,4.973,0.222,4.973L151.597,494.522z"/>
		</g>
		<g>
			<path class="st7" d="M140.712,448.269c-4.887-30.268-6.52-61.061-4.861-91.677"/>
			<path class="st8" d="M140.612,448.284c0,0-0.245-1.416-0.672-3.895c-0.221-1.238-0.464-2.746-0.736-4.478
				c-0.281-1.731-0.585-3.686-0.886-5.822c-0.322-2.134-0.629-4.452-0.947-6.905c-0.335-2.451-0.594-5.047-0.901-7.728
				c-0.562-5.368-1.057-11.106-1.451-16.853c-0.177-2.874-0.38-5.749-0.503-8.582c-0.165-2.832-0.221-5.623-0.303-8.323
				c0.012-2.701-0.043-5.313,0.044-7.788c0.055-2.476,0.132-4.815,0.258-6.973c0.092-2.159,0.26-4.134,0.392-5.884
				c0.122-1.751,0.251-3.275,0.401-4.529c0.257-2.508,0.442-3.937,0.442-3.937l0.202,0.011c0,0,0.048,1.442,0.067,3.958
				c0.027,2.514,0.067,6.105,0.114,10.414c0.055,4.302,0.118,9.321,0.186,14.699c0.033,2.688,0.066,5.466,0.1,8.289
				c0.029,2.824,0.135,5.691,0.215,8.559c0.242,5.733,0.584,11.464,1.003,16.83c0.454,5.363,0.896,10.37,1.383,14.651
				c0.225,2.143,0.46,4.103,0.679,5.84c0.21,1.738,0.4,3.253,0.577,4.498c0.34,2.492,0.535,3.917,0.535,3.917L140.612,448.284z"/>
		</g>
		<g>
			<path class="st7" d="M148.709,214.905c-11.3,17.528-11.882,39.705-11.106,60.545c0.775,20.841,2.418,42.48-5.359,61.831"/>
			<path class="st8" d="M148.796,214.957c0,0-0.245,0.423-0.705,1.215c-0.442,0.801-1.187,1.931-1.903,3.477
				c-0.366,0.769-0.821,1.595-1.225,2.54c-0.397,0.947-0.826,1.972-1.285,3.066c-0.395,1.119-0.815,2.309-1.257,3.565
				c-0.379,1.276-0.779,2.617-1.167,4.023c-0.696,2.835-1.388,5.923-1.844,9.237c-0.513,3.304-0.841,6.82-1.072,10.461
				c-0.224,3.643-0.277,7.418-0.268,11.253c0.038,3.836,0.166,7.736,0.343,11.631c0.39,7.805,0.889,15.618,0.935,22.986
				c-0.037,3.681-0.079,7.247-0.359,10.622c-0.217,3.376-0.631,6.556-1.077,9.477c-0.252,1.457-0.521,2.848-0.789,4.167
				c-0.313,1.31-0.61,2.552-0.888,3.72c-0.331,1.153-0.641,2.232-0.928,3.23c-0.302,0.992-0.656,1.881-0.935,2.694
				c-0.547,1.63-1.121,2.858-1.474,3.706c-0.364,0.843-0.559,1.293-0.559,1.293l-0.188-0.075c0,0,0.144-0.467,0.415-1.343
				c0.251-0.881,0.731-2.133,1.127-3.795c0.461-1.64,0.911-3.657,1.414-5.969c0.203-1.165,0.42-2.405,0.648-3.713
				c0.176-1.314,0.361-2.696,0.555-4.139c0.302-2.895,0.596-6.033,0.727-9.368c0.157-3.332,0.225-6.855,0.206-10.503
				c0.021-7.295-0.237-15.106-0.446-22.927c-0.102-3.918-0.155-7.836-0.118-11.697c0.066-3.861,0.193-7.661,0.49-11.331
				c0.311-3.667,0.69-7.21,1.301-10.532c0.547-3.332,1.325-6.434,2.102-9.273c0.428-1.409,0.867-2.751,1.282-4.026
				c0.479-1.253,0.933-2.442,1.36-3.559c0.491-1.09,0.95-2.111,1.374-3.054c0.431-0.94,0.913-1.765,1.302-2.53
				c0.765-1.542,1.534-2.644,1.998-3.435c0.48-0.78,0.736-1.197,0.736-1.197L148.796,214.957z"/>
		</g>
		<path class="st11" d="M423.769,416.287c0.931,10.468-56.603,15.583-57.533,5.116l-17.769-95.569l75.93-6.751L423.769,416.287z"/>
		<path class="st12" d="M427.892,321.501l-82.44,7.33c-2.201,0.196-4.145-1.43-4.34-3.632l-0.254-2.861
			c-0.196-2.201,1.43-4.145,3.631-4.34l82.44-7.33c2.201-0.196,4.145,1.43,4.34,3.632l0.254,2.861
			C431.719,319.362,430.094,321.305,427.892,321.501z"/>
		<g>
			<path class="st9" d="M416.102,400.518c1.341,0.321,2.699,0.584,4.067,0.79c2.723,0.411,5.472-0.745,7.05-3.002
				c8.272-11.833,13.268-25.974,14.027-40.401c0.388-7.382-0.431-15.217-4.728-21.232c-2.669-3.736-7-6.458-11.459-7.145
				c-2.027-0.313-4.091,0.285-5.716,1.537c-4.6,3.543-9.201,7.085-13.803,10.627c-5.582,4.297-11.332,8.789-14.626,15.015
				c-5.753,10.875-2.256,25.181,6.504,33.82C402.535,395.573,409.089,398.839,416.102,400.518z"/>
			<g>
				<path class="st10" d="M415.836,401.482c2.777,0.639,5.694,1.402,8.455,0.323c2.992-1.17,4.561-4.008,6.174-6.611
					c3.771-6.084,6.722-12.694,8.74-19.561c3.586-12.2,6.099-29.21-2.283-40.077c-3.178-4.12-9.337-8.09-14.768-6.892
					c-3.438,0.759-6.353,3.878-9.066,5.966c-3.074,2.367-6.154,4.726-9.222,7.101c-5.27,4.079-10.65,8.474-13.815,14.471
					c-2.707,5.129-3.458,11.042-2.606,16.743C389.671,387.845,401.743,397.976,415.836,401.482c1.249,0.311,1.782-1.617,0.532-1.929
					c-11.448-2.848-21.674-10.042-25.622-21.522c-1.728-5.026-2.212-10.539-0.907-15.723c1.443-5.734,5.117-10.337,9.433-14.235
					c4.785-4.321,10.105-8.082,15.209-12.012c2.442-1.88,5.308-4.953,8.447-5.494c2.958-0.51,6.293,1.039,8.677,2.679
					c10.783,7.417,9.558,23.918,7.327,35.128c-1.364,6.856-3.658,13.523-6.806,19.765c-1.557,3.087-3.3,6.111-5.279,8.949
					c-2.735,3.923-6.327,3.421-10.481,2.465C415.115,399.265,414.58,401.193,415.836,401.482z"/>
			</g>
		</g>
		<g>
			<path class="st9" d="M348.218,348.115c1-1.012,2.147-1.889,3.392-2.568c5.026,8.233,10.314,16.593,12.625,25.984
				c1.512,6.143,1.565,12.877-0.463,18.789c-1.313,3.827-6.096,5.18-9.21,2.597c-3.543-2.939-6.51-6.574-8.632-10.661
				c-3.745-7.212-4.825-15.771-2.99-23.687c0.819-3.531,2.234-6.992,4.609-9.731C347.764,348.59,347.987,348.349,348.218,348.115z"
				/>
			<g>
				<path class="st10" d="M348.925,348.822c0.985-0.943,2.017-1.725,3.19-2.412c-0.456-0.12-0.912-0.239-1.368-0.359
					c4.668,7.641,9.591,15.362,12.072,24.049c1.174,4.11,1.727,8.375,1.44,12.648c-0.251,3.745-0.855,10.309-5.832,10.493
					c-3.922,0.145-7.608-5.17-9.548-8.008c-2.302-3.367-3.955-7.136-4.897-11.103C342.023,365.887,342.797,355.232,348.925,348.822
					c0.889-0.93-0.523-2.347-1.414-1.414c-5.147,5.384-6.781,13.525-6.391,20.757c0.412,7.643,3.251,14.983,8.144,20.872
					c1.961,2.36,4.546,5.506,7.744,6.091c2.459,0.45,5.061-0.517,6.61-2.48c1.965-2.491,2.358-6.413,2.606-9.469
					c0.335-4.134-0.107-8.328-1.134-12.341c-2.393-9.359-7.634-17.641-12.617-25.797c-0.281-0.46-0.894-0.637-1.368-0.359
					c-1.325,0.776-2.486,1.663-3.595,2.724C346.579,348.3,347.994,349.713,348.925,348.822z"/>
			</g>
		</g>
		<path class="st5" d="M304.679,151.804c0,0,35.863-10.446,37.328-38.324c1.634-31.098-31.518-26.635-33.188-13.172"/>
		<g>
			<ellipse class="st9" cx="245.902" cy="114.524" rx="83.583" ry="68.803"/>
			<g>
				<path class="st10" d="M328.485,114.524c-0.172,31.471-25.776,55.211-54.366,63.741c-31.183,9.303-68.371,2.792-91.892-20.569
					c-10.275-10.205-17.413-23.605-18.688-38.149c-1.255-14.322,3.142-28.465,11.606-40.004
					c19.504-26.592,55.775-36.774,87.336-31.458c29.387,4.95,58.844,24.752,64.946,55.546
					C328.138,107.222,328.465,110.864,328.485,114.524c0.007,1.287,2.007,1.289,2,0c-0.176-32.241-26.184-56.702-55.493-65.566
					c-32.036-9.689-70.321-2.909-94.406,21.208c-10.403,10.416-17.535,23.973-18.989,38.715
					c-1.473,14.938,3.122,29.879,12.007,41.887c20.056,27.107,56.713,37.499,89.047,32.185c30.348-4.987,60.865-25.755,66.822-57.61
					c0.668-3.57,0.993-7.189,1.013-10.82C330.492,113.237,328.492,113.236,328.485,114.524z"/>
			</g>
		</g>
		<path class="st5" d="M203.431,141.68c0,0,16.558,24.808,48.927,26.018c15.49,0.579,26.27-6.944,33.3-14.947"/>
		
			<ellipse transform="matrix(-0.9774 -0.2113 0.2113 -0.9774 422.8094 271.3468)" cx="225.904" cy="113.081" rx="5.565" ry="13.464"/>
		
			<ellipse transform="matrix(-0.9774 -0.2113 0.2113 -0.9774 535.7233 282.646)" cx="282.964" cy="112.698" rx="5.417" ry="13.104"/>
		<path class="st5" d="M171.368,145.689c0,0-37.589-10.948-39.124-40.168c-1.713-32.595,33.035-27.917,34.785-13.805"/>
		<path class="st5" d="M242.504,143.235c14.95,20.191,52.324-1.555,22.764-28.71"/>
		<g>
			<g>
				<path d="M291.519,39.248c4.304,5.648,4.888,12.653,2.266,19.176c-2.599,6.465-7.625,11.511-12.448,16.372
					c-0.491,0.495,0.274,1.26,0.765,0.765c5.151-5.192,10.484-10.618,13.027-17.635c2.386-6.582,1.601-13.612-2.676-19.224
					C292.036,38.156,291.096,38.694,291.519,39.248L291.519,39.248z"/>
			</g>
		</g>
		<g>
			<path class="st2" d="M191.627,93.97c1.077-3.844,2.68-7.465,5.156-10.622c3.667-4.673,8.959-7.86,14.53-9.919
				c4.533-1.676,9.278-2.661,14.042-3.512c-6.39,4.29-12.13,9.55-16.948,15.553c-3.037,3.784-5.837,8.344-5.121,13.17
				c3.167-0.129,6.309-2.068,8.702-4.325c3.083-2.909,5.666-6.495,9.429-8.446c4.165-2.16,9.466-2.162,13.757-3.722
				c-1.901,2.613-3.313,5.582-4.11,8.714c4.268,0.104,8.57-1.064,12.169-3.368c16.529-0.212,32.916-6.666,45.164-17.763
				c1.833,0.44,3.645,0.97,5.302,1.857c2.164,1.159,4.068,3.025,4.711,5.395c0.952,3.507-0.972,7.058-2.393,10.402
				c-1.619,3.81-2.385,8.943,1.754,11.141c5.12,0.483,10.453-0.994,14.569-4.073c-0.271,9.803,3.444,20.246,2.483,30.154
				c-0.159,1.636,1.86,2.527,2.931,1.28c5.204-6.06,9.981-12.495,12.569-19.994c3.363-9.743,2.102-21.846-5.743-28.52
				c-1.107-9.639-3.068-19.516-9.772-26.326c-4.971-5.049-12.257-7.719-19.313-7.083c-4.419-7.763-12.895-13.25-21.865-13.618
				c-2.195-1.776-4.49-3.43-6.87-4.95c-6.518-4.165-14.349-5.586-21.934-4.071c-6.609,1.32-13.009,3.689-18.856,7.032
				c-13.927,0.941-27.962,2.332-40.846,7.584c-7.988,3.256-15.535,8.291-21.229,14.724c-4.019,4.541-6.404,10.32-6.884,16.365
				c-0.679,8.543-0.439,17.159,0.72,25.65c3.573,2.158,7.145,4.319,10.716,6.481c0.166,3.34,0.332,6.679,0.499,10.019
				c0.212,4.247,0.454,8.621,2.274,12.465c1.784,3.769,5.484,6.944,9.632,6.873c-1.793-6.728-1.838-13.922-0.103-20.667
				c2.127,2.292,5.321,3.598,8.443,3.393C189.612,105.503,190.076,99.505,191.627,93.97z"/>
			<g>
				<path class="st3" d="M192.592,94.236c2.093-7.182,6.141-12.962,12.621-16.825c6.213-3.705,13.369-5.258,20.408-6.53
					c-0.257-0.609-0.514-1.218-0.771-1.828c-5.62,3.819-10.767,8.284-15.23,13.414c-3.927,4.514-8.024,9.842-7.334,16.173
					c0.055,0.5,0.415,1.051,1,1c6.279-0.549,9.967-5.38,14.152-9.479c2.536-2.484,5.259-4.06,8.709-4.906
					c3.095-0.759,6.264-1.114,9.293-2.144c-0.376-0.49-0.753-0.979-1.129-1.469c-1.931,2.751-3.325,5.712-4.211,8.953
					c-0.172,0.629,0.315,1.263,0.964,1.266c2.662,0.012,5.297-0.338,7.826-1.193c1.173-0.396,2.258-0.923,3.372-1.451
					c1.454-0.688,2.679-0.749,4.273-0.849c5.173-0.325,10.315-1.236,15.287-2.699c10.112-2.976,19.431-8.208,27.282-15.232
					c-0.324,0.086-0.649,0.171-0.973,0.257c5.895,1.465,11.136,4.832,8.878,11.685c-1.281,3.886-3.763,7.5-3.216,11.782
					c1.214,9.503,14.18,4.643,19.051,1.153c-0.502-0.288-1.003-0.576-1.505-0.863c-0.119,7.49,1.765,14.771,2.424,22.195
					c0.131,1.477,0.217,2.959,0.218,4.442c0.001,1.335-0.454,3.071-0.087,4.359c0.473,1.659,2.385,2.539,3.924,1.672
					c0.919-0.518,1.65-1.705,2.298-2.488c0.962-1.162,1.903-2.342,2.815-3.543c2.219-2.921,4.265-5.984,5.93-9.256
					c2.601-5.108,4.221-10.656,4.21-16.419c-0.01-5.253-1.324-10.645-4.377-14.98c-0.717-1.018-1.567-1.889-2.379-2.825
					c-0.879-1.014-0.892-1.59-1.069-2.914c-0.464-3.466-1.061-6.925-2.027-10.29c-3.317-11.556-12.004-20.936-24.583-21.509
					c-0.524-0.024-1.912,0.227-2.358,0.011c-0.552-0.267-0.752-0.822-1.109-1.339c-0.752-1.093-1.582-2.139-2.477-3.118
					c-1.902-2.08-4.133-3.885-6.558-5.321c-2.418-1.433-5.072-2.522-7.813-3.15c-1.062-0.243-2.133-0.346-3.203-0.525
					c-1.872-0.313-3.203-1.728-4.734-2.817c-5.406-3.844-11.257-6.484-17.951-6.856c-6.696-0.373-13.496,1.614-19.634,4.138
					c-3.216,1.323-6.115,3.376-9.618,3.632c-3.716,0.271-7.429,0.59-11.13,1.022c-7.285,0.851-14.546,2.126-21.544,4.359
					c-11.9,3.798-25.165,11.154-31.201,22.625c-3.559,6.764-3.731,14.454-3.67,21.936c0.034,4.126,0.28,8.25,0.74,12.351
					c0.141,1.26,0.019,2.722,0.848,3.698c0.501,0.59,1.806,1.091,2.473,1.495c1.099,0.664,2.198,1.329,3.297,1.994
					c1.304,0.789,3.817,1.696,4.495,3.04c0.29,0.576,0.103,2.079,0.136,2.732c0.06,1.214,0.121,2.429,0.182,3.643
					c0.191,3.821,0.232,7.722,1.095,11.467c1.349,5.853,5.49,11.42,11.948,11.603c0.663,0.019,1.12-0.653,0.964-1.266
					c-1.694-6.656-1.738-13.462-0.103-20.135c-0.557,0.147-1.114,0.294-1.671,0.441c2.494,2.489,5.621,3.776,9.15,3.686
					c0.57-0.015,0.959-0.448,1-1C190.613,105.515,191.096,99.798,192.592,94.236c0.335-1.244-1.594-1.775-1.929-0.532
					c-1.542,5.732-2.037,11.637-2.472,17.537c0.333-0.333,0.667-0.667,1-1c-2.999,0.077-5.62-0.989-7.736-3.1
					c-0.521-0.52-1.491-0.296-1.671,0.441c-1.718,7.013-1.677,14.202,0.103,21.198c0.321-0.422,0.643-0.844,0.964-1.266
					c-9.046-0.257-10.525-10.976-10.884-17.913c-0.102-1.963-0.196-3.927-0.294-5.89c-0.065-1.297,0.307-3.799-0.313-4.939
					c-0.557-1.025-2.325-1.638-3.294-2.224c-1.923-1.164-3.846-2.327-5.77-3.49c-0.903-0.546-1.442-0.798-1.75-1.798
					c-0.264-0.859-0.229-1.944-0.318-2.839c-0.205-2.053-0.358-4.111-0.457-6.172c-0.198-4.121-0.182-8.253,0.047-12.373
					c0.448-8.072,3.017-14.848,8.783-20.632c11.215-11.252,26.651-16.089,42.031-18.238c4.06-0.567,8.143-0.958,12.229-1.282
					c1.661-0.132,3.788,0.065,5.375-0.407c1.533-0.456,3.065-1.641,4.524-2.33c6.857-3.234,14.856-5.812,22.516-5.151
					c4.471,0.386,8.795,1.847,12.615,4.194c1.955,1.201,3.834,2.539,5.652,3.936c1.883,1.447,2.389,1.252,4.788,1.648
					c7.692,1.27,14.377,6.183,18.3,12.85c0.169,0.287,0.519,0.52,0.863,0.495c9.222-0.671,17.813,3.885,22.454,11.883
					c2.145,3.697,3.427,7.82,4.302,11.984c0.435,2.072,0.769,4.164,1.048,6.262c0.101,0.759,0.015,1.961,0.368,2.665
					c0.34,0.68,1.196,1.205,1.72,1.76c5.429,5.756,6.607,14.498,5.085,22.011c-0.882,4.351-2.704,8.446-4.969,12.246
					c-1.012,1.698-2.117,3.341-3.28,4.939c-0.786,1.08-1.603,2.137-2.439,3.179c-0.603,0.752-1.604,2.532-2.459,2.961
					c-1.86,0.933-1.376-1.685-1.351-2.882c0.025-1.181-0.007-2.364-0.077-3.543c-0.147-2.483-0.469-4.953-0.825-7.413
					c-0.797-5.505-1.822-10.978-1.733-16.563c0.011-0.709-0.878-1.313-1.505-0.863c-3.417,2.449-7.402,3.917-11.629,4.02
					c-2.131,0.052-3.653-0.665-4.266-2.839c-0.489-1.733-0.134-3.649,0.383-5.331c1.035-3.365,3.166-6.413,3.327-10.025
					c0.131-2.944-1.24-5.545-3.496-7.383c-1.206-0.982-2.574-1.676-4.02-2.229c-1.063-0.407-3.006-1.368-4.123-0.984
					c-1.313,0.45-2.925,2.461-4.019,3.313c-1.596,1.244-3.25,2.411-4.952,3.504c-6.659,4.274-14.037,7.377-21.747,9.156
					c-4.366,1.008-8.766,1.491-13.235,1.688c-1.934,0.085-3.483,1.444-5.299,2.117c-2.473,0.917-5.067,1.279-7.696,1.267
					c0.321,0.422,0.643,0.844,0.964,1.266c0.843-3.082,2.176-5.863,4.009-8.475c0.496-0.706-0.329-1.741-1.129-1.469
					c-5.473,1.861-11.533,1.688-16.311,5.317c-4.981,3.782-8.472,10.543-15.311,11.14c0.333,0.333,0.667,0.667,1,1
					c-0.691-6.34,3.891-11.649,7.885-16.036c4.078-4.479,8.68-8.42,13.688-11.823c0.957-0.651,0.35-2.03-0.771-1.828
					c-7.731,1.397-15.616,3.194-22.26,7.593c-6.217,4.115-10.098,10.063-12.166,17.159
					C190.302,94.942,192.232,95.471,192.592,94.236z"/>
			</g>
		</g>
		<g>
			<g>
				<path class="st4" d="M272.282,39.015c0,0,0.139,0.041,0.401,0.119c0.263,0.068,0.644,0.19,1.126,0.396
					c0.481,0.199,1.048,0.474,1.658,0.866c0.617,0.38,1.265,0.887,1.916,1.506c0.651,0.62,1.27,1.381,1.841,2.248
					c0.574,0.868,1.022,1.885,1.358,2.979c0.329,1.104,0.513,2.274,0.486,3.529c-0.019,0.542-0.069,1.215-0.184,1.807
					c-0.101,0.607-0.258,1.205-0.442,1.792c-0.754,2.348-2.057,4.495-3.611,6.185c-0.205,0.205-0.409,0.409-0.61,0.611
					c-0.198,0.187-0.378,0.36-0.6,0.544c-0.427,0.371-0.836,0.701-1.26,1.001c-0.833,0.615-1.658,1.132-2.437,1.567
					c-1.559,0.87-2.908,1.459-3.877,1.819c-0.957,0.379-1.523,0.553-1.523,0.553c-0.054,0.017-0.111-0.013-0.128-0.066
					c-0.013-0.04,0.002-0.084,0.032-0.109c0,0,0.457-0.378,1.275-0.991c0.805-0.612,1.955-1.487,3.334-2.537
					c0.672-0.53,1.388-1.109,2.113-1.744c0.358-0.319,0.728-0.659,1.078-0.992c0.184-0.18,0.371-0.361,0.559-0.544l0.529-0.541
					c1.43-1.475,2.813-3.242,3.617-5.288c0.197-0.51,0.37-1.029,0.493-1.559c0.139-0.538,0.206-1.016,0.269-1.614
					c0.088-1.032-0.001-2.123-0.234-3.122c-0.462-2.022-1.48-3.767-2.586-5.043c-0.561-0.633-1.134-1.169-1.691-1.581
					c-0.548-0.424-1.075-0.737-1.514-0.965c-0.436-0.234-0.805-0.389-1.064-0.48c-0.254-0.099-0.389-0.153-0.389-0.153
					c-0.051-0.02-0.077-0.078-0.057-0.13C272.18,39.026,272.233,39.001,272.282,39.015z"/>
			</g>
			<g>
				<path class="st4" d="M230.573,82.584c0,0,0.426-0.13,1.171-0.359c0.747-0.235,1.795-0.562,3.036-1.035
					c1.247-0.451,2.664-1.069,4.169-1.739c1.495-0.697,3.052-1.511,4.567-2.391c0.742-0.467,1.498-0.908,2.2-1.409
					c0.707-0.487,1.404-0.966,2.077-1.43c1.351-0.916,2.649-1.723,3.749-2.45c1.112-0.71,2.04-1.319,2.71-1.73
					c0.663-0.418,1.071-0.634,1.071-0.634c0.049-0.028,0.112-0.011,0.141,0.038c0.019,0.033,0.016,0.076-0.003,0.107
					c0,0-0.246,0.385-0.727,1.02c-0.477,0.638-1.215,1.502-2.192,2.448c-0.48,0.484-1.032,0.97-1.633,1.466
					c-0.587,0.515-1.263,0.982-1.96,1.469c-1.428,0.924-3.063,1.72-4.681,2.518c-1.633,0.772-3.295,1.47-4.878,2.051
					c-0.799,0.27-1.559,0.561-2.304,0.767c-0.74,0.22-1.439,0.422-2.093,0.579c-1.298,0.336-2.403,0.569-3.167,0.699
					c-0.768,0.133-1.206,0.209-1.206,0.209c-0.055,0.009-0.106-0.027-0.116-0.082C230.495,82.646,230.525,82.598,230.573,82.584z"/>
			</g>
			<g>
				<path class="st4" d="M227.519,69.388c0,0,0.546-0.197,1.467-0.588c0.924-0.391,2.221-1.004,3.727-1.829
					c1.504-0.829,3.21-1.879,5.012-3.047c1.79-1.206,3.7-2.492,5.61-3.778c0.956-0.652,1.931-1.282,2.893-1.908
					c0.959-0.631,1.946-1.19,2.909-1.722c0.983-0.497,1.955-0.942,2.908-1.293c0.949-0.363,1.869-0.647,2.728-0.872
					c0.863-0.216,1.662-0.372,2.378-0.467c0.709-0.118,1.345-0.128,1.857-0.161c1.034-0.02,1.617,0.023,1.617,0.023
					c0.056,0.004,0.098,0.053,0.094,0.109c-0.003,0.042-0.035,0.077-0.073,0.09c0,0-0.559,0.187-1.517,0.471
					c-0.471,0.187-1.052,0.344-1.696,0.603c-0.651,0.228-1.367,0.531-2.148,0.848c-0.773,0.342-1.605,0.714-2.475,1.134
					c-0.864,0.435-1.776,0.894-2.718,1.368c-0.947,0.483-1.927,0.982-2.921,1.49c-0.996,0.517-1.993,1.077-2.99,1.647
					c-1.993,1.161-3.985,2.322-5.853,3.41c-1.887,1.077-3.712,1.98-5.303,2.683c-1.594,0.701-2.955,1.204-3.919,1.517
					c-0.967,0.315-1.521,0.461-1.521,0.461c-0.053,0.017-0.109-0.013-0.126-0.065C227.442,69.463,227.472,69.408,227.519,69.388z"/>
			</g>
			<g>
				<path class="st4" d="M307.184,51.382c0,0,0.269,0.258,0.741,0.709c0.243,0.216,0.512,0.51,0.814,0.861
					c0.313,0.342,0.653,0.74,0.986,1.198c0.358,0.443,0.701,0.955,1.056,1.505c0.373,0.54,0.669,1.165,1.016,1.792
					c0.298,0.649,0.632,1.315,0.885,2.026c0.293,0.698,0.497,1.439,0.732,2.174c0.185,0.747,0.392,1.494,0.521,2.246
					c0.17,0.747,0.234,1.499,0.288,2.227c-0.007,0.729,0.002,1.437-0.114,2.099c-0.049,0.33-0.098,0.652-0.144,0.962
					c-0.06,0.308-0.148,0.602-0.216,0.884c-0.131,0.566-0.316,1.069-0.494,1.507c-0.17,0.44-0.335,0.814-0.509,1.109
					c-0.324,0.597-0.541,0.915-0.541,0.915c-0.032,0.047-0.097,0.06-0.144,0.028c-0.029-0.02-0.045-0.051-0.045-0.084l0-0.008
					c0,0-0.005-0.394,0.04-1.046c0.03-0.324,0.044-0.719,0.058-1.167c0.032-0.444,0.049-0.943,0.053-1.486
					c0.025-0.539,0.014-1.122,0.013-1.734c-0.012-0.61-0.025-1.253-0.038-1.918c-0.035-0.664-0.012-1.354-0.064-2.056
					c-0.01-0.707-0.138-1.412-0.222-2.127c-0.15-0.701-0.269-1.415-0.478-2.094c-0.169-0.693-0.42-1.346-0.639-1.991
					c-0.263-0.625-0.499-1.244-0.781-1.802c-0.269-0.566-0.533-1.099-0.821-1.567c-0.265-0.485-0.539-0.904-0.795-1.269
					c-0.246-0.371-0.469-0.696-0.676-0.95c-0.399-0.517-0.626-0.812-0.626-0.812c-0.034-0.044-0.026-0.107,0.018-0.141
					C307.093,51.345,307.149,51.349,307.184,51.382z"/>
			</g>
			<g>
				<path class="st4" d="M326.335,85.16c0,0,0.104,0.362,0.286,0.995c0.101,0.313,0.19,0.705,0.28,1.162
					c0.103,0.455,0.204,0.972,0.275,1.538c0.097,0.565,0.154,1.183,0.205,1.84c0.07,0.657,0.043,1.352,0.055,2.073
					c-0.035,0.718-0.048,1.467-0.143,2.22c-0.058,0.759-0.204,1.517-0.322,2.284c-0.162,0.756-0.308,1.521-0.515,2.259
					c-0.172,0.75-0.432,1.461-0.692,2.145c-0.311,0.662-0.601,1.31-0.977,1.87c-0.18,0.283-0.356,0.557-0.525,0.823
					c-0.181,0.259-0.378,0.494-0.554,0.727c-0.348,0.468-0.717,0.86-1.052,1.197c-0.33,0.34-0.628,0.624-0.902,0.833
					c-0.529,0.432-0.853,0.648-0.853,0.648c-0.048,0.032-0.112,0.019-0.144-0.029c-0.02-0.029-0.022-0.065-0.01-0.095l0.002-0.006
					c0,0,0.147-0.369,0.441-0.961c0.152-0.292,0.321-0.655,0.512-1.067c0.205-0.403,0.42-0.861,0.646-1.363
					c0.24-0.493,0.473-1.037,0.726-1.605c0.246-0.569,0.506-1.169,0.775-1.79c0.254-0.626,0.569-1.252,0.83-1.918
					c0.296-0.653,0.497-1.352,0.737-2.042c0.181-0.705,0.392-1.407,0.517-2.117c0.162-0.704,0.244-1.409,0.347-2.091
					c0.061-0.685,0.138-1.35,0.157-1.983c0.032-0.634,0.054-1.236,0.03-1.791c0.001-0.559-0.032-1.065-0.075-1.514
					c-0.032-0.45-0.066-0.846-0.117-1.173c-0.086-0.653-0.135-1.026-0.135-1.026c-0.007-0.055,0.031-0.105,0.086-0.113
					C326.276,85.081,326.322,85.113,326.335,85.16z"/>
			</g>
			<g>
				<path class="st4" d="M250.013,23.597l-1.896,0.297l-1.865,0.394l-1.843,0.491l-1.813,0.584l-1.779,0.674l-1.741,0.762
					l-1.699,0.847l-1.653,0.929l-1.608,0.999l-1.556,1.075l-1.499,1.15l-1.438,1.222l-1.373,1.292l-1.304,1.358l-1.23,1.422
					l-1.152,1.483c-0.096,0.124-0.221,0.212-0.357,0.262l-0.014,0.005c-2.481,0.905-4.927,1.9-7.327,2.992
					c-1.201,0.543-2.402,1.085-3.59,1.654c-1.198,0.548-2.391,1.107-3.574,1.686c-1.187,0.573-2.374,1.147-3.55,1.745
					c-1.184,0.585-2.348,1.206-3.526,1.81l-3.503,1.878l-3.507,1.911c-0.049,0.027-0.11,0.009-0.136-0.04
					c-0.023-0.042-0.012-0.094,0.022-0.124c1.005-0.885,2.067-1.696,3.12-2.525c1.073-0.798,2.163-1.577,3.276-2.323
					c1.11-0.75,2.253-1.449,3.395-2.151c1.157-0.675,2.322-1.34,3.505-1.972c1.193-0.612,2.393-1.21,3.605-1.785
					c1.228-0.54,2.459-1.071,3.705-1.567c1.25-0.485,2.509-0.946,3.769-1.399c1.263-0.446,2.533-0.871,3.807-1.283l-0.371,0.267
					l1.261-1.5l1.336-1.43l1.406-1.357l1.472-1.282l1.533-1.205l1.59-1.125l1.642-1.044l1.691-0.959l1.739-0.864l1.778-0.775
					l1.812-0.685l1.842-0.592l1.867-0.498l1.888-0.401l1.908-0.302l1.908-0.2c0.055-0.006,0.104,0.034,0.11,0.089
					C250.103,23.541,250.065,23.589,250.013,23.597z"/>
			</g>
			<g>
				<path class="st4" d="M243.616,49.745c1.264-0.469,2.514-0.969,3.743-1.497c1.228-0.542,2.441-1.113,3.639-1.713l1.777-0.934
					l1.75-0.98c1.157-0.669,2.297-1.365,3.418-2.088c1.115-0.734,2.21-1.494,3.285-2.281c1.068-0.797,2.117-1.617,3.138-2.469
					l1.506-1.307l1.459-1.357l1.437-1.376c0.461-0.476,0.939-0.935,1.417-1.394l-0.057,1.402c-0.68-0.821-1.39-1.62-2.132-2.392
					c-0.752-0.761-1.523-1.512-2.342-2.214c-0.809-0.714-1.658-1.388-2.533-2.041c-0.443-0.317-0.878-0.652-1.332-0.963l-1.38-0.921
					c-0.047-0.031-0.06-0.093-0.029-0.14c0.025-0.038,0.071-0.053,0.112-0.042c1.078,0.308,2.121,0.731,3.145,1.206
					c1.019,0.484,2.001,1.051,2.95,1.673c1.883,1.262,3.626,2.767,5.123,4.493c0.355,0.41,0.323,1.026-0.057,1.403
					c-0.487,0.479-0.974,0.959-1.477,1.421l-1.54,1.352c-1.058,0.865-2.136,1.702-3.225,2.522c-1.101,0.805-2.213,1.589-3.346,2.344
					c-1.14,0.744-2.296,1.46-3.468,2.146c-1.179,0.676-2.373,1.321-3.582,1.937c-1.214,0.605-2.452,1.161-3.696,1.695
					c-1.251,0.521-2.512,1.009-3.784,1.466c-1.281,0.446-2.563,0.857-3.855,1.236c-0.053,0.017-0.109-0.013-0.125-0.065
					C243.539,49.819,243.567,49.764,243.616,49.745z"/>
			</g>
			<g>
				<path class="st4" d="M174.488,63.152c0,0,0.274-0.712,0.753-1.958c0.222-0.629,0.553-1.371,0.955-2.218
					c0.197-0.426,0.406-0.879,0.626-1.356c0.237-0.469,0.509-0.948,0.78-1.456c0.281-0.503,0.547-1.044,0.871-1.574
					c0.33-0.527,0.671-1.073,1.022-1.633c0.337-0.571,0.731-1.125,1.147-1.682c0.413-0.559,0.818-1.145,1.262-1.715
					c0.924-1.111,1.845-2.294,2.91-3.382c1.009-1.143,2.163-2.174,3.278-3.251c1.183-0.998,2.338-2.038,3.575-2.938
					c1.189-0.968,2.482-1.746,3.702-2.546c0.632-0.364,1.267-0.698,1.891-1.02c0.619-0.331,1.233-0.639,1.858-0.882
					c0.615-0.26,1.214-0.512,1.793-0.757c0.585-0.229,1.171-0.399,1.72-0.589c1.096-0.39,2.132-0.651,3.055-0.855
					c0.459-0.104,0.889-0.202,1.286-0.292c0.4-0.078,0.777-0.113,1.11-0.164c1.339-0.193,2.102-0.265,2.102-0.265
					c0.055-0.005,0.104,0.035,0.11,0.091c0.004,0.045-0.022,0.086-0.061,0.102l-0.006,0.003c0,0-0.716,0.297-1.966,0.75
					c-0.627,0.219-1.373,0.529-2.221,0.89c-0.425,0.172-0.878,0.356-1.356,0.549c-0.467,0.216-0.958,0.444-1.47,0.681
					c-1.033,0.448-2.115,1.008-3.257,1.598c-1.15,0.572-2.304,1.287-3.532,1.955c-1.197,0.725-2.457,1.441-3.672,2.277
					c-1.258,0.776-2.416,1.729-3.622,2.627c-1.128,0.989-2.301,1.935-3.334,2.997c-1.09,1.007-2.04,2.114-2.998,3.155
					c-0.887,1.097-1.786,2.134-2.53,3.198c-0.38,0.527-0.75,1.04-1.107,1.536c-0.353,0.5-0.648,1.012-0.957,1.489
					c-0.3,0.482-0.6,0.939-0.863,1.384c-0.247,0.454-0.481,0.885-0.701,1.289c-0.449,0.806-0.828,1.52-1.091,2.135
					c-0.56,1.212-0.88,1.904-0.88,1.904c-0.023,0.05-0.083,0.072-0.133,0.049C174.491,63.257,174.469,63.201,174.488,63.152z"/>
			</g>
			<g>
				<path class="st4" d="M179.011,112.316c0,0,0.048-0.797,0.132-2.192c0.026-0.698,0.114-1.543,0.231-2.516
					c0.055-0.487,0.114-1.005,0.175-1.551c0.087-0.542,0.179-1.111,0.275-1.705c0.172-1.194,0.444-2.47,0.749-3.819
					c0.133-0.68,0.318-1.365,0.52-2.063c0.199-0.698,0.386-1.418,0.608-2.139c0.483-1.43,0.943-2.925,1.55-4.393
					c0.544-1.494,1.243-2.951,1.895-4.43c0.731-1.44,1.427-2.904,2.231-4.281c0.741-1.416,1.633-2.71,2.454-3.991
					c0.442-0.618,0.895-1.214,1.345-1.791c0.442-0.583,0.886-1.144,1.362-1.655c0.462-0.521,0.912-1.027,1.346-1.518
					c0.446-0.479,0.912-0.911,1.339-1.341c0.849-0.868,1.689-1.598,2.448-2.227c0.377-0.315,0.731-0.61,1.057-0.883
					c0.334-0.264,0.662-0.482,0.946-0.692c1.142-0.832,1.813-1.273,1.813-1.273c0.046-0.031,0.109-0.018,0.139,0.029
					c0.025,0.038,0.021,0.087-0.007,0.12l-0.003,0.004c0,0-0.523,0.618-1.469,1.642c-0.477,0.508-1.028,1.15-1.656,1.887
					c-0.318,0.362-0.657,0.748-1.014,1.154c-0.341,0.419-0.7,0.86-1.074,1.32c-0.766,0.902-1.541,1.921-2.362,2.995
					c-0.833,1.064-1.628,2.247-2.507,3.427c-0.837,1.211-1.73,2.445-2.553,3.758c-0.877,1.281-1.614,2.674-2.409,4.037
					c-0.702,1.411-1.453,2.803-2.053,4.238c-0.663,1.409-1.18,2.85-1.721,4.233c-0.467,1.406-0.958,2.758-1.316,4.072
					c-0.382,1.308-0.73,2.55-0.973,3.716c-0.132,0.581-0.258,1.138-0.378,1.668c-0.094,0.534-0.184,1.04-0.268,1.516
					c-0.177,0.951-0.317,1.786-0.386,2.483c-0.171,1.387-0.269,2.179-0.269,2.179c-0.007,0.055-0.057,0.094-0.112,0.087
					C179.046,112.415,179.008,112.368,179.011,112.316z"/>
			</g>
			<g>
				<path class="st4" d="M168.991,112.986l-0.09-15.808l0.003-15.806l0.264,0.632c-0.519-0.496-0.932-0.968-1.356-1.482
					c-0.414-0.509-0.814-1.028-1.18-1.572c-0.746-1.078-1.391-2.229-1.914-3.438c-0.533-1.205-0.948-2.468-1.204-3.767
					c-0.131-0.649-0.229-1.303-0.299-1.962c-0.06-0.659-0.099-1.32-0.076-1.981c-0.005-0.661,0.065-1.319,0.127-1.973
					c0.081-0.654,0.186-1.302,0.341-1.939c0.124-0.643,0.339-1.264,0.517-1.889c0.229-0.61,0.431-1.228,0.711-1.813
					c0.25-0.597,0.537-1.175,0.854-1.736c0.292-0.573,0.649-1.108,0.989-1.649c0.35-0.535,0.745-1.039,1.113-1.555
					c0.391-0.501,0.808-0.982,1.218-1.462c0.036-0.042,0.099-0.047,0.141-0.011c0.037,0.032,0.043,0.088,0.02,0.129l-0.913,1.645
					c-0.274,0.563-0.573,1.108-0.823,1.677c-0.235,0.575-0.526,1.12-0.725,1.705c-0.225,0.573-0.438,1.147-0.614,1.733
					c-0.207,0.575-0.325,1.175-0.487,1.758c-0.116,0.594-0.27,1.18-0.333,1.78c-0.095,0.595-0.138,1.194-0.184,1.79
					c-0.022,0.597-0.054,1.195-0.014,1.79c0.013,0.596,0.085,1.187,0.14,1.778c0.074,0.59,0.174,1.176,0.302,1.756
					c0.272,1.157,0.622,2.297,1.064,3.407c0.452,1.105,0.988,2.182,1.616,3.207c0.31,0.515,0.65,1.012,1.007,1.494
					c0.354,0.472,0.754,0.961,1.127,1.349l0.041,0.042c0.157,0.164,0.231,0.38,0.223,0.59l-0.657,15.793l-0.751,15.791
					c-0.003,0.055-0.049,0.098-0.105,0.095C169.033,113.082,168.991,113.038,168.991,112.986z"/>
			</g>
			<g>
				<path class="st4" d="M322.938,67.744c0,0,0.129,0.454,0.355,1.25c0.129,0.392,0.231,0.886,0.33,1.464
					c0.054,0.288,0.111,0.595,0.171,0.918c0.046,0.324,0.073,0.666,0.113,1.024c0.097,0.715,0.122,1.494,0.133,2.322
					c0.04,0.829-0.069,1.698-0.124,2.602c-0.128,0.895-0.226,1.831-0.455,2.757c-0.171,0.942-0.48,1.862-0.746,2.8
					c-0.339,0.911-0.647,1.84-1.059,2.711c-0.359,0.898-0.842,1.719-1.307,2.514c-0.533,0.75-1.027,1.495-1.622,2.099
					c-0.288,0.308-0.568,0.607-0.839,0.897c-0.281,0.279-0.585,0.518-0.858,0.762c-0.541,0.495-1.092,0.884-1.592,1.208
					c-0.49,0.335-0.927,0.606-1.319,0.785c-0.761,0.384-1.206,0.566-1.206,0.566c-0.052,0.021-0.112-0.004-0.133-0.056
					c-0.015-0.036-0.007-0.076,0.016-0.104l0.005-0.006c0,0,0.315-0.377,0.884-0.971c0.292-0.287,0.62-0.663,0.986-1.096
					c0.182-0.218,0.388-0.433,0.597-0.667c0.196-0.246,0.401-0.505,0.616-0.775c0.444-0.522,0.876-1.125,1.335-1.755
					c0.468-0.622,0.891-1.329,1.38-2.019c0.44-0.725,0.955-1.439,1.384-2.226c0.482-0.76,0.83-1.605,1.234-2.428
					c0.317-0.856,0.681-1.703,0.911-2.578c0.288-0.861,0.449-1.737,0.641-2.582c0.124-0.853,0.281-1.681,0.328-2.475
					c0.07-0.793,0.123-1.547,0.099-2.244c-0.003-0.348,0.004-0.685-0.008-1.002c-0.026-0.316-0.051-0.615-0.074-0.897
					c-0.04-0.564-0.087-1.061-0.166-1.469c-0.131-0.817-0.205-1.283-0.205-1.283c-0.009-0.055,0.028-0.106,0.083-0.115
					C322.876,67.665,322.924,67.696,322.938,67.744z"/>
			</g>
		</g>
		<g>
			<path class="st13" d="M200.071,319.083c-11.59-6.5-15.997-23.63-14.397-31.899c1.6-8.268,5.81-15.74,9.993-23.018
				c8.342-14.515,17.548-29.643,32.193-37.472c17.813-9.522,41.779-5.068,55.115,10.244c7.206,6.929-5.658,20.307-12.864,13.378
				c-8.891-10.162-24.868-13.118-36.744-6.798c-9.764,5.196-15.901,15.236-21.462,24.869c-2.789,4.83-5.595,9.789-6.662,15.276
				c-1.067,5.487-0.104,11.692,3.815,15.639C220.022,304.283,211.035,324.064,200.071,319.083z"/>
			<g>
				<path class="st14" d="M200.711,317.988c-8.666-5.034-13.476-15.768-14.036-25.507c-0.331-5.764,1.725-11.381,4.123-16.536
					c2.88-6.191,6.44-12.11,9.956-17.956c6.407-10.652,13.792-21.382,24.412-28.234c9.745-6.287,21.667-8.195,32.97-5.751
					c5.383,1.164,10.545,3.258,15.175,6.247c2.469,1.594,4.763,3.441,6.84,5.519c1.641,1.642,3.546,3.329,3.675,5.796
					c0.202,3.882-3.158,7.704-6.644,8.973c-5.103,1.858-8.014-3.457-11.703-5.989c-8.791-6.033-20.713-7.371-30.54-3.175
					c-10.887,4.648-17.624,15.199-23.348,25.026c-3.513,6.031-7.271,12.339-7.927,19.439c-0.301,3.259,0.11,6.629,1.389,9.652
					c1.077,2.545,2.505,4.126,4.702,5.647C217.417,306.445,209.551,321.723,200.711,317.988c-1.486-0.628-2.78,1.556-1.28,2.19
					c8.046,3.4,15.236-3.982,15.838-11.811c0.298-3.877-1.227-7.352-4.445-9.551c-6.098-4.166-5.301-13.375-3.035-19.458
					c2.533-6.798,6.709-13.335,10.714-19.362c3.84-5.779,8.423-11.293,14.497-14.821c11.132-6.465,26.307-4.221,35.253,4.994
					c3.04,3.131,6.657,4.283,10.782,2.326c3.572-1.694,6.579-5.28,7.206-9.233c0.776-4.886-2.989-8.268-6.354-11.21
					c-4.397-3.846-9.52-6.785-15.013-8.759c-11.011-3.957-23.538-3.892-34.337,0.722c-12.091,5.167-20.909,15.545-27.97,26.297
					c-3.894,5.929-7.474,12.101-10.88,18.322c-3.302,6.033-6.61,12.661-7.443,19.576c-1.127,9.355,2.835,20.129,9.08,27.032
					c1.769,1.955,3.828,3.611,6.106,4.935C200.845,320.999,202.124,318.808,200.711,317.988z"/>
			</g>
		</g>
		<path class="st15" d="M292.132,219.86c0,0,17.203-13.661,33.582,15.834c0,0,35.793,18.883,54.15,39.41
			c1.465,1.638,0.453,4.247-1.729,4.511c-9.511,1.152-30.001,4.59-40.047,13.545c-13.342,11.893-40.62,142.92-114.747,87.781
			c-62.081-46.179-14.306-90.93,2.861-104.254c6.069-4.711,11.968-9.636,17.751-14.694L292.132,219.86z"/>
		<path class="st16" d="M300.584,219.956c-1.618,0.162-2.526,0.631-2.526,0.631s17.934,9.682,22.071,11.916
			C311.505,220.795,304.236,219.591,300.584,219.956z"/>
		<path class="st6" d="M287.625,282.756l-53.022-2.717c-1.808-0.093-3.577,0.502-4.957,1.672
			c-16.802,14.248-56.181,53.81-1.856,94.279c64.912,48.355,93.37-77.655,104.82-88.381c8.621-8.076,32.523-11.227,40.693-12.257
			c0.262-0.033,0.504-0.107,0.723-0.215c1.842-0.904-3.721-3.811-7.873-3.007c-20.085,3.887-46.507,7.82-60.267,9.791
			C299.839,282.788,293.725,283.069,287.625,282.756z"/>
		<path class="st5" d="M81.831,417.122c2.104,6.133,8.551,9.647,14.862,8.157c11.209-2.645,28.538-8.83,39.127-22.849
			c14.403-19.068,37.348-83.675,41.997-99.516c0.744-2.536,2.201-4.796,4.201-6.524l7.143-5.697c0,0,8.053,3.068,14.94,3.73
			c3.547,0.341,7.071-0.819,9.818-3.09c6.837-5.651,22.546-20.726,26.999-46.277c0.485-2.785-0.498-5.648-2.617-7.52
			c-3.543-3.132-11.898-6.779-24.677-8.002c0,0-3.398-7.475-8.834-9.513s-21.066,4.077-39.143,25.822
			c-6.124,7.366-15.15,25.106-15.15,25.106s-21.336,46.341-36.966,64.009C98.924,351.471,66.092,371.23,81.831,417.122z"/>
		<path class="st9" d="M82.812,364.155c0,0-8.444,18.503,7.11,40.242v18.466c0,0-22.162-5.974-12.147-62.857L82.812,364.155z"/>
	</g>
</g>
</svg>
