<?xml version="1.0" encoding="utf-8"?>
<!-- Generator: Adobe Illustrator 19.1.0, SVG Export Plug-In . SVG Version: 6.00 Build 0)  -->
<svg version="1.1" id="Layer_1" xmlns="http://www.w3.org/2000/svg" xmlns:xlink="http://www.w3.org/1999/xlink" x="0px" y="0px"
	 viewBox="0 0 500 500" style="enable-background:new 0 0 500 500;" xml:space="preserve">
<style type="text/css">
	.st0{clip-path:url(#SVGID_2_);}
	.st1{fill:#98C87D;}
	.st2{fill:#FFFFFF;stroke:#756C50;stroke-width:1.867;stroke-miterlimit:10;}
	.st3{fill:#A19773;}
	.st4{fill:#00AAE2;stroke:#0076BE;stroke-width:1.867;stroke-miterlimit:10;}
	.st5{fill:#353434;stroke:#676464;stroke-width:1.867;stroke-miterlimit:10;}
	.st6{fill:#353434;}
	.st7{fill:#676464;}
	.st8{fill:#D4805D;stroke:#A65430;stroke-width:1.867;stroke-linecap:round;stroke-linejoin:round;stroke-miterlimit:10;}
	.st9{clip-path:url(#SVGID_4_);fill:#CCCCCC;stroke:#7C7774;stroke-width:1.867;stroke-miterlimit:10;}
	
		.st10{clip-path:url(#SVGID_6_);fill:#B47856;stroke:#DE9C79;stroke-width:1.867;stroke-linecap:round;stroke-linejoin:round;stroke-miterlimit:10;}
	.st11{fill:#FF9100;stroke:#995427;stroke-width:1.867;stroke-linecap:round;stroke-linejoin:round;stroke-miterlimit:10;}
	.st12{fill:none;stroke:#A65430;stroke-width:1.867;stroke-linecap:round;stroke-linejoin:round;stroke-miterlimit:10;}
	.st13{fill:#06093C;stroke:#004D6C;stroke-width:1.867;stroke-miterlimit:10;}
	.st14{fill:#004D6C;}
	.st15{fill:none;stroke:#C35F1A;stroke-width:1.867;stroke-linecap:round;stroke-linejoin:round;stroke-miterlimit:10;}
	.st16{fill:#D5711E;}
	.st17{fill:#C35F1A;}
	.st18{fill:#DF2229;stroke:#A41317;stroke-width:1.867;stroke-linejoin:round;stroke-miterlimit:10;}
	.st19{fill:#FFAE32;stroke:#CB770A;stroke-width:1.867;stroke-miterlimit:10;}
	.st20{fill:#F4D468;stroke:#CBA822;stroke-width:1.867;stroke-miterlimit:10;}
	.st21{fill:none;stroke:#D5711E;stroke-width:1.867;stroke-linecap:round;stroke-linejoin:round;stroke-miterlimit:10;}
</style>
<g>
	<defs>
		<rect id="SVGID_1_" width="500" height="500"/>
	</defs>
	<use xlink:href="#SVGID_1_"  style="overflow:visible;fill:#FFFFFF;"/>
	<clipPath id="SVGID_2_">
		<use xlink:href="#SVGID_1_"  style="overflow:visible;"/>
	</clipPath>
	<g class="st0">
		<rect x="-56.8" y="-62.3" class="st1" width="567.6" height="567.6"/>
		<path class="st2" d="M162.6,505.3h320.3L509.3,106c0.5-6.9-1.6-13.6-5.7-19.1l-5.4-7.1c-7.9-10.3-20-16.4-32.9-16.4H224.6
			c-11.8,0-21.7,9.1-22.8,21L162.6,505.3z"/>
		<g>
			<path class="st3" d="M453.9,443.3c0,0,0.6-9.4,1.6-25.9c0.5-8.2,1.1-18.2,1.9-29.7c0.4-5.7,0.7-11.8,1.1-18.3
				c0.5-6.4,1-13.2,1.5-20.2c4.2-56.4,9.8-131.7,15.3-206.9c0.7-9.4,1.4-18.8,2.1-28.2c0.3-4.7,0.7-9.4,1-14c0.2-2.3,0.3-4.7,0.5-7
				l0.1-0.9l0-0.4l0-0.4l0-1.7L479,88c0-0.5-0.2-1.1-0.3-1.6c-0.5-2.2-1.3-4.3-2.5-6.2c-1.2-1.9-2.7-3.6-4.4-5
				c-0.8-0.7-1.8-1.3-2.7-1.9l-1.5-0.7c-0.5-0.3-1-0.4-1.5-0.6c-2.1-0.7-4.2-1.2-6.4-1.2c-9.1,0-18.1,0-26.9,0
				c-35.4,0-68.4,0-96.7,0c-7.1,0-13.9,0-20.3,0c-6.4-0.1-12.6-0.1-18.3-0.2c-11.5-0.1-21.5-0.2-29.8-0.3
				c-16.5-0.2-25.9-0.3-25.9-0.3s9.4-0.1,25.9-0.3c8.3-0.1,18.3-0.2,29.8-0.3c5.7-0.1,11.9-0.1,18.3-0.2c6.4-0.1,13.2,0,20.3,0
				c28.3,0,61.3,0,96.7,0c8.8,0,17.8,0,26.9,0c2.4,0,4.7,0.5,7,1.3c0.6,0.2,1.1,0.4,1.7,0.7l1.6,0.8c1,0.6,2,1.3,2.9,2
				c1.9,1.5,3.5,3.3,4.7,5.4c1.3,2.1,2.2,4.3,2.7,6.7c0.1,0.6,0.3,1.2,0.3,1.8l0.2,1.8l0,1.7l0,0.4l0,0.5l-0.1,0.9
				c-0.2,2.3-0.3,4.7-0.5,7c-0.3,4.7-0.7,9.3-1,14c-0.7,9.4-1.4,18.8-2.1,28.2c-5.6,75.2-11.2,150.5-15.3,206.9
				c-0.5,7.1-1,13.8-1.5,20.2c-0.6,6.4-1.1,12.5-1.6,18.2c-1,11.5-1.8,21.4-2.5,29.7C454.8,433.9,453.9,443.3,453.9,443.3z"/>
		</g>
		<path class="st4" d="M426.4,171.7c20.8,6.2,23-14.2,23-22.4c0-1.2-1.4-1.9-2.3-1.1c-7.8,6.4-17.9,3-17.9,3s-5.1-20.5-17.7-21.9
			c-12.6-1.4-27.1,11.2-27.1,11.2c-1-1.5-2.1-2.8-3.2-3.9c-8.1-7.8-20.5-8.4-30.1-2.7c-10.4,6.2-16.6,16.4-16.6,16.4
			c-0.3-1.9-1.2-3.2-2.3-4.1c-2.1-1.8-5.1-2-7.6-1c-31.9,13.2-55.9,57.3-55.9,57.3s5.8,1.9,13.8-5.1c7.1-6.1,23.7-23.3,35.2-28.2
			c2.7-1.1,5.7-0.1,7,2.5c0.6,1.1,1.2,2.5,1.7,4c0.6,2,3.2,2.6,4.7,1.1c4.1-3.9,10.5-10.1,15.1-13.9c6.1-5.2,28.2-20.8,30.1,6.7
			c0.1,1.2,1.5,1.6,2.2,0.7c4.7-5.9,16.5-18.9,27.8-17C415.7,154.9,413.8,168,426.4,171.7z"/>
		<path class="st5" d="M420.8,182c0,0-2.8-8.6,11.2-11.2c0,0,2.1-1.1,3.6-4.7c0.8-1.9-1-5.1,1.5-7.7l3.3,3c0,0-1.9-13.3,4.7-16.8
			c0,0,0.9,13.3,6.5,17.5c0,0,0.7-4.4,3-4.4c0,0,7.5,27.5-11.9,29.4c-17.1,1.6-20.5-2.1-20.5-2.1L420.8,182z"/>
		<g>
			<path class="st6" d="M430.1,178.7c0,0,14.5,0.5,17-8.2"/>
			<path class="st7" d="M430.1,178.6c0,0,1.3,0,3.1-0.3c1.9-0.3,4.3-0.8,6.6-1.7c0.6-0.2,1.1-0.5,1.6-0.8c0.5-0.3,1-0.6,1.5-0.9
				c0.5-0.3,0.9-0.6,1.3-0.9c0.4-0.3,0.7-0.7,1-1c0.3-0.3,0.6-0.6,0.8-0.9c0.2-0.3,0.4-0.6,0.6-0.8c0.3-0.5,0.4-0.7,0.4-0.7l0.1,0
				c0,0,0,0.3-0.1,0.9c-0.1,0.3-0.1,0.6-0.3,1c-0.1,0.4-0.4,0.8-0.6,1.2c-0.3,0.4-0.6,0.9-1,1.3c-0.4,0.4-0.9,0.8-1.4,1.2
				c-1.1,0.7-2.3,1.2-3.5,1.6c-2.5,0.8-5,1.1-6.9,1.1c-1.9,0.1-3.2-0.1-3.2-0.1L430.1,178.6z"/>
		</g>
		<g>
			<path class="st6" d="M436.4,181c0,0,8.2,0.5,10.7-4.4"/>
			<path class="st7" d="M436.4,181c0,0,0.8,0,1.9-0.2c0.6-0.1,1.2-0.2,1.9-0.4c0.7-0.2,1.4-0.4,2.1-0.7c0.3-0.1,0.7-0.3,1-0.5
				c0.3-0.2,0.6-0.4,0.9-0.5c0.3-0.2,0.6-0.3,0.8-0.5c0.2-0.2,0.5-0.3,0.7-0.5c0.2-0.2,0.4-0.3,0.6-0.4c0.2-0.1,0.3-0.3,0.5-0.4
				c0.3-0.2,0.4-0.3,0.4-0.3l0.1,0.1c0,0,0,0.2-0.1,0.5c-0.1,0.2-0.1,0.4-0.2,0.6c-0.1,0.2-0.3,0.5-0.4,0.7
				c-0.2,0.3-0.4,0.5-0.7,0.7c-0.3,0.3-0.6,0.5-0.9,0.7c-0.3,0.2-0.7,0.3-1.1,0.5c-0.4,0.1-0.8,0.3-1.2,0.3
				c-0.8,0.2-1.5,0.3-2.3,0.4c-0.7,0.1-1.4,0.1-2,0.1c-1.2,0-1.9-0.1-1.9-0.1L436.4,181z"/>
		</g>
		<g>
			<path class="st6" d="M443.7,163.3c0,0-0.6,6.6-7.3,8.9c-1.4,0.5-2.9,0.5-4.3,0.4c-1.8-0.1-5,0.3-7.6,4"/>
			<path class="st7" d="M443.7,163.3c0,0,0,0.4-0.2,1.1c-0.1,0.7-0.4,1.7-0.9,2.8c-0.3,0.5-0.6,1.1-1,1.7c-0.2,0.3-0.4,0.6-0.7,0.8
				c-0.2,0.3-0.5,0.6-0.8,0.8c-0.3,0.3-0.6,0.5-0.9,0.7c-0.3,0.3-0.7,0.5-1,0.7c-0.3,0.2-0.7,0.4-1.1,0.5l-0.6,0.3
				c-0.2,0.1-0.4,0.1-0.6,0.2c-0.8,0.2-1.7,0.4-2.5,0.4c-0.8,0.1-1.7,0-2.3,0c-0.7,0-1.3,0.1-1.9,0.3c-0.6,0.2-1.2,0.4-1.6,0.7
				c-1,0.5-1.7,1.1-2.3,1.6c-0.3,0.2-0.4,0.4-0.6,0.5c-0.1,0.1-0.2,0.2-0.2,0.2l-0.1-0.1c0,0,0.2-0.4,0.5-1c0.2-0.3,0.4-0.7,0.8-1.1
				c0.3-0.4,0.7-0.8,1.3-1.2c0.5-0.4,1.1-0.7,1.8-1c0.7-0.3,1.5-0.4,2.3-0.5c0.9,0,1.6,0.1,2.3,0.1c0.7,0,1.5,0,2.2-0.2
				c0.2,0,0.3-0.1,0.5-0.1l0.5-0.2c0.4-0.1,0.7-0.3,1-0.4c0.3-0.2,0.7-0.3,1-0.5c0.3-0.2,0.6-0.4,0.9-0.6c0.3-0.2,0.6-0.4,0.8-0.7
				c0.3-0.2,0.5-0.5,0.7-0.7c0.4-0.5,0.8-1,1.1-1.5c0.6-1,0.9-1.9,1.1-2.6c0.2-0.7,0.2-1.1,0.2-1.1L443.7,163.3z"/>
		</g>
		<g>
			<g>
				<path class="st3" d="M485.1,191.9c0,0,1.2,0.7,2.7,2c0.8,0.6,1.7,1.4,2.6,2.2c1,0.8,1.9,1.8,2.9,2.7c0.5,0.5,0.9,1,1.4,1.4
					c0.5,0.5,0.9,1,1.3,1.4c0.9,0.9,1.6,1.8,2.3,2.6c1.3,1.6,2.1,2.7,2.1,2.7s-1.2-0.7-2.7-2c-0.8-0.6-1.7-1.4-2.6-2.2
					c-0.5-0.4-1-0.8-1.4-1.3c-0.5-0.5-1-0.9-1.5-1.4c-0.9-1-1.9-1.9-2.7-2.8c-0.9-0.9-1.6-1.8-2.3-2.6
					C485.8,193,485.1,191.9,485.1,191.9z"/>
			</g>
			<g>
				<path class="st3" d="M478.6,202.7c0,0,1.5,0.8,3.6,2.1c1.1,0.7,2.3,1.5,3.6,2.4c1.3,0.9,2.6,1.9,4,2.9c0.7,0.5,1.3,1,2,1.5
					c0.7,0.5,1.3,1,1.9,1.5c1.2,1,2.3,2,3.2,2.8c1.9,1.7,3,2.9,3,2.9s-1.5-0.8-3.6-2.1c-1.1-0.7-2.3-1.5-3.6-2.4
					c-0.6-0.5-1.3-0.9-2-1.4c-0.7-0.5-1.3-1-2-1.5c-1.3-1-2.6-2.1-3.8-3.1c-1.2-1-2.3-2-3.2-2.8C479.8,204,478.6,202.7,478.6,202.7z
					"/>
			</g>
			<g>
				<path class="st3" d="M469.5,324.5c0,0,1.5,0.8,3.6,2.1c1.1,0.7,2.3,1.5,3.6,2.4c1.3,0.9,2.6,1.9,4,2.9c0.7,0.5,1.3,1,2,1.5
					c0.7,0.5,1.3,1,1.9,1.5c1.2,1,2.3,2,3.2,2.8c1.9,1.7,3,2.9,3,2.9s-1.5-0.8-3.6-2.1c-1.1-0.7-2.3-1.5-3.6-2.4
					c-0.6-0.5-1.3-0.9-2-1.4c-0.7-0.5-1.3-1-2-1.5c-1.3-1-2.6-2.1-3.8-3.1c-1.2-1-2.3-2-3.2-2.8
					C470.6,325.7,469.5,324.5,469.5,324.5z"/>
			</g>
			<g>
				<path class="st3" d="M463.6,363c0,0,1.6,0.6,3.8,1.7c1.1,0.5,2.4,1.2,3.8,1.9c1.4,0.7,2.8,1.6,4.3,2.4c0.7,0.4,1.4,0.9,2.1,1.3
					c0.7,0.4,1.4,0.9,2,1.3c1.3,0.8,2.5,1.7,3.6,2.4c2.1,1.4,3.4,2.5,3.4,2.5s-1.6-0.6-3.8-1.7c-1.1-0.5-2.4-1.2-3.8-1.9
					c-0.7-0.4-1.4-0.7-2.1-1.1c-0.7-0.4-1.4-0.8-2.2-1.2c-1.4-0.9-2.9-1.7-4.2-2.6c-1.3-0.8-2.5-1.7-3.6-2.4
					C464.9,364.1,463.6,363,463.6,363z"/>
			</g>
			<g>
				<path class="st3" d="M468.7,356.1c0,0,1.3,0.4,3,1.3c0.9,0.4,1.9,0.9,3,1.5c1.1,0.6,2.2,1.3,3.3,1.9c0.6,0.4,1.1,0.7,1.6,1.1
					c0.5,0.3,1.1,0.7,1.6,1.1c1,0.7,1.9,1.4,2.7,2c1.6,1.2,2.5,2.1,2.5,2.1s-1.3-0.4-3-1.3c-0.9-0.4-1.9-0.9-3-1.5
					c-0.5-0.3-1.1-0.6-1.6-0.9c-0.6-0.3-1.1-0.7-1.7-1c-1.1-0.7-2.2-1.4-3.2-2.1c-1-0.7-1.9-1.4-2.7-2
					C469.6,357,468.7,356.1,468.7,356.1z"/>
			</g>
			<g>
				<path class="st3" d="M468.5,344.2c0,0,1.3,0.6,3.1,1.7c0.9,0.5,2,1.2,3.1,1.9c1.1,0.7,2.2,1.6,3.4,2.4c0.6,0.4,1.1,0.9,1.7,1.3
					c0.6,0.4,1.1,0.9,1.6,1.3c1,0.8,2,1.6,2.7,2.4c1.6,1.4,2.5,2.5,2.5,2.5s-1.3-0.6-3.1-1.7c-0.9-0.5-2-1.2-3.1-1.9
					c-0.5-0.4-1.1-0.7-1.7-1.2c-0.6-0.4-1.1-0.8-1.7-1.2c-1.1-0.9-2.2-1.7-3.3-2.5c-1-0.8-2-1.6-2.7-2.4
					C469.5,345.2,468.5,344.2,468.5,344.2z"/>
			</g>
			<g>
				<path class="st3" d="M468.5,385.8c0,0,1.3,0.6,3.1,1.7c0.9,0.5,2,1.2,3.1,1.9c1.1,0.7,2.2,1.6,3.4,2.4c0.6,0.4,1.1,0.9,1.7,1.3
					c0.6,0.4,1.1,0.9,1.6,1.3c1,0.8,2,1.6,2.7,2.4c1.6,1.4,2.5,2.5,2.5,2.5s-1.3-0.6-3.1-1.7c-0.9-0.5-2-1.2-3.1-1.9
					c-0.5-0.4-1.1-0.7-1.7-1.2c-0.6-0.4-1.1-0.8-1.7-1.2c-1.1-0.9-2.2-1.7-3.3-2.5c-1-0.8-2-1.6-2.7-2.4
					C469.5,386.8,468.5,385.8,468.5,385.8z"/>
			</g>
		</g>
		<path class="st8" d="M321.1,236.4c0,0,8.6-17.1,18-16.2s3.2,19.6,3.2,19.6l-11.8,2.5L321.1,236.4z"/>
		<g>
			<defs>
				<path id="SVGID_3_" d="M422.6,191.6c3.8-2.7,5.5-6.7,3.9-9l-0.3-0.5l-0.3-0.5c-1.6-2.4-5.8-2.3-9.8,0l-7.3,4.3
					c-5.5,3.2-10.9,6.6-16,10.1c-24.7,16.9-92.6,63.1-106.2,72.2c-10.1,6.8-14.5,12-16.2,14.8c-0.7,1.1,0,2.3,1.4,2.1
					c3.3-0.5,9.8-2.4,20-9c13.8-8.9,83.2-52.8,108.5-68.8c5.3-3.3,10.5-6.9,15.7-10.7L422.6,191.6z"/>
			</defs>
			<use xlink:href="#SVGID_3_"  style="overflow:visible;fill:#FFAC63;"/>
			<clipPath id="SVGID_4_">
				<use xlink:href="#SVGID_3_"  style="overflow:visible;"/>
			</clipPath>
			<path class="st9" d="M384.1,201.2l2.2,1.1c3.3,1.6,5.3,4.6,5.4,8.3l0,2.3l15,3.9l34.7-24.6l-19.3-29.4L378.8,189L384.1,201.2z"/>
			<use xlink:href="#SVGID_3_"  style="overflow:visible;fill:none;stroke:#AA6D3E;stroke-width:1.867;stroke-miterlimit:10;"/>
		</g>
		<g>
			<defs>
				<path id="SVGID_5_" d="M227.4,505.3h107c0,0,82.1-8.7,83.1-34.9c0.9-26.1-140-14.5-140-14.5L222,490L227.4,505.3z"/>
			</defs>
			<use xlink:href="#SVGID_5_"  style="overflow:visible;fill:#9E6441;"/>
			<clipPath id="SVGID_6_">
				<use xlink:href="#SVGID_5_"  style="overflow:visible;"/>
			</clipPath>
			<path class="st10" d="M222.7,497.2h105c0,0,80.6-7.6,81.5-30.5S271.9,454,271.9,454l-54.6,29.9L222.7,497.2z"/>
			
				<use xlink:href="#SVGID_5_"  style="overflow:visible;fill:none;stroke:#5F3319;stroke-width:1.867;stroke-linecap:round;stroke-linejoin:round;stroke-miterlimit:10;"/>
		</g>
		<path class="st8" d="M301.3,462.6c-5.9-1.2-5.9-4.6-5.9-4.6l-17.8,2.6c16-22.6,46.2-19.4,46.1-11
			C323.6,460.9,308.6,464.1,301.3,462.6z"/>
		<path class="st8" d="M212.1,314.1c0,0,16.6-1,15.2-13.8c-1.4-12.8-17.7-16.8-17.7-16.8l-10.7,15.3L212.1,314.1z"/>
		<path class="st8" d="M211.8,292.9c-7.3-44-54.3-72.8-105-64.4c-50.7,8.4-85.8,50.8-78.6,94.8c4.2,25.2,21.3,45.3,44.8,56.4
			l2.5,23.4l59.7,14.9c0,0,19.5-25,30.8-41.6C198.1,359.2,217.4,326.5,211.8,292.9z"/>
		<path class="st8" d="M248.4,482.5c0,0,56.2,6.5,74.8-150.3c0,0,8.8-4.5,12.6-18.5c3.7-14,3.3-35.7,3.3-35.7s8.4,5.6,13.1,0
			s-1.9-20.5-11.2-28.9c0,0-3.1-11.9-17.1-18.8c-6.1-3-13.5-1.7-18.2,3.2c-6.6,6.7-15.8,17.7-19.4,29.6c-2.7,8.9,2.3,20.7,10,34.5
			c0,0-13.9,82.9-36.4,123.3c-3.5,6.4-25.6,10.5-32.7,12l-15.9,3.4L248.4,482.5z"/>
		<path class="st11" d="M28.3,505.3c0,0,0-64.1,25.5-90.9c0,0,6.8-19.9,29.9-19.9c0,0,44.8-4.4,62.9,18.7c0,0,3.1,4.4,3.1,11.2
			c0,0,6.8,0.6,12.4,7.4c0,0,14.4,1.9,19.4,5c0,0,15.6-5,23.6-5.6c8.1-0.6,34.2-11.2,34.2-11.2s26.1,41.7,21.2,85.3H28.3z"/>
		<path class="st12" d="M192.6,325.7c0,0,5.4,8.3,16.5,1.4"/>
		<ellipse transform="matrix(0.9815 -0.1912 0.1912 0.9815 -50.6605 42.0619)" cx="192.6" cy="283.5" rx="4" ry="12.2"/>
		<path class="st12" d="M180.1,266.3c0,0,0.5-11,7.1-12.4"/>
		<path class="st13" d="M180.1,247.6C166,181,89.9,212.8,66.9,233.7c-15.8,5.9-22.4,7.7-31.7,17s-7.8,20.8-7.8,20.8
			c-8.9-5.4-20.9,4.1-20.9,4.1c2.5,4.4,10.6,3.1,10.6,3.1c-13.7,5.6-10.2,16.8-10.2,16.8l11.4-5.5c-20.8,18-6.8,35.8-6.8,35.8
			C9,341,42.6,372.1,42.6,372.1c20.5,27.4,43.6,19.3,43.6,19.3l-2.3-3.6c0,0,11.2,6.1,24.7-7.5l-8.4-7c0,0,8.9-1.9,8.9-8.4
			c0,0-27.1-18.8-2.8-35.1l21.3-25l7.8,11.5c0,0,5.4-2.3,5.9-6.5c0,0,0.5-9.6-2.3-14.4c0,0,13.6-17.3,10.7-41.6c0,0,2.8,21,6.5,21
			c0,0,7.9-1.4,3.3-36.9l5.6,18.2c0,0,5.1-4.7,2.3-15.4C167.4,240.8,172.3,249.4,180.1,247.6z"/>
		<g>
			<g>
				<path class="st14" d="M88,256.5c0,0,2.6,0.2,6.5,1c1.9,0.4,4.2,0.9,6.5,1.7c2.4,0.7,4.9,1.7,7.3,2.8c1.2,0.5,2.4,1.2,3.6,1.8
					c1.2,0.6,2.2,1.4,3.3,2.1c1,0.8,1.9,1.6,2.7,2.5c0.4,0.4,0.8,0.9,1.1,1.3c0.3,0.4,0.6,0.9,1,1.3c0.6,0.9,1,1.7,1.4,2.4
					c0.4,0.7,0.6,1.4,0.8,2c0.3,1.1,0.5,1.8,0.5,1.8c0,0.1,0,0.1-0.1,0.1c0,0-0.1,0-0.1,0l0,0c0,0-0.1-0.1-0.3-0.4
					c-0.2-0.3-0.4-0.7-0.7-1.1c-0.2-0.2-0.3-0.5-0.5-0.8c-0.2-0.3-0.4-0.6-0.6-0.9c-0.3-0.3-0.5-0.6-0.8-1c-0.3-0.3-0.6-0.7-0.9-1
					c-0.7-0.7-1.4-1.4-2.2-2.1c-0.4-0.4-0.8-0.7-1.3-1.1c-0.4-0.4-0.9-0.7-1.4-1.1c-0.9-0.7-1.9-1.5-3-2.2c-1-0.7-2.1-1.4-3.3-2
					c-4.5-2.5-9.5-4.2-13.2-5.3c-3.8-1.1-6.3-1.5-6.3-1.5c-0.1,0-0.1-0.1-0.1-0.1C87.9,256.6,88,256.5,88,256.5z"/>
			</g>
			<g>
				<path class="st14" d="M36,350.8c0,0,1.7,2,4.7,4.6c2.9,2.6,7,5.9,11.5,8.5c1.1,0.6,2.3,1.2,3.4,1.7c1.2,0.5,2.3,1,3.4,1.4
					c0.6,0.2,1.1,0.4,1.6,0.6c0.5,0.2,1.1,0.3,1.6,0.5c1,0.3,2,0.5,3,0.7c0.5,0.1,0.9,0.1,1.3,0.2c0.4,0.1,0.8,0.1,1.2,0.1
					c0.4,0.1,0.8,0.1,1.1,0.1c0.3,0,0.7,0,0.9,0.1c0.6,0,1,0,1.3,0c0.3,0,0.5,0,0.5,0h0c0.1,0,0.1,0,0.1,0.1c0,0,0,0.1-0.1,0.1
					c0,0-0.6,0.2-1.8,0.5c-0.6,0.1-1.3,0.3-2.1,0.4c-0.8,0.1-1.8,0.1-2.8,0.1c-0.5,0-1-0.1-1.6-0.1c-0.5-0.1-1.1-0.2-1.7-0.3
					c-1.1-0.2-2.3-0.6-3.5-1c-1.2-0.5-2.4-1-3.5-1.7c-1.2-0.6-2.3-1.3-3.4-2.1c-2.2-1.4-4.3-3.1-6.2-4.7c-1.9-1.6-3.5-3.2-4.9-4.7
					c-2.7-2.9-4.3-5-4.3-5c0,0,0-0.1,0-0.1C35.9,350.8,35.9,350.8,36,350.8z"/>
			</g>
			<g>
				<path class="st14" d="M42.3,332.5c0,0,1.4,1.5,3.7,3.5c1.2,0.9,2.6,2,4.2,3c0.8,0.5,1.7,1,2.5,1.4c0.9,0.4,1.8,0.9,2.7,1.2
					c0.9,0.3,1.9,0.7,2.8,0.9c0.5,0.1,0.9,0.2,1.4,0.4c0.5,0.1,0.9,0.2,1.4,0.2c0.5,0.1,0.9,0.2,1.3,0.3c0.4,0.1,0.9,0.1,1.3,0.1
					c0.8,0.1,1.6,0.2,2.4,0.2c0.8,0,1.4,0.1,2.1,0.1c0.6,0,1.1-0.1,1.6-0.1c0.9,0,1.4,0,1.4,0l0,0c0,0,0.1,0,0.1,0.1
					c0,0,0,0.1-0.1,0.1c0,0-0.5,0.2-1.4,0.5c-0.4,0.1-1,0.3-1.6,0.5c-0.6,0.1-1.3,0.2-2.1,0.3c-0.4,0-0.8,0.1-1.2,0.1
					c-0.4,0-0.9,0-1.3,0c-0.5,0-0.9,0-1.4-0.1c-0.5-0.1-1-0.2-1.4-0.3c-0.5-0.1-1-0.2-1.5-0.3c-0.5-0.2-1-0.3-1.5-0.5
					c-1-0.3-1.9-0.8-2.9-1.2c-1-0.4-1.9-1-2.8-1.5c-0.9-0.6-1.7-1.1-2.5-1.7c-0.8-0.6-1.5-1.1-2.2-1.7c-0.7-0.6-1.3-1.1-1.9-1.7
					c-2.2-2.1-3.5-3.8-3.5-3.8c0,0,0-0.1,0-0.1C42.2,332.5,42.3,332.5,42.3,332.5z"/>
			</g>
			<g>
				<path class="st14" d="M95.1,245.2c0,0,2.6-0.6,6.5-1c2-0.2,4.3-0.4,6.7-0.4c2.5,0,5.1,0.1,7.8,0.5c1.3,0.2,2.6,0.4,3.9,0.6
					c1.3,0.2,2.6,0.6,3.8,1c1.2,0.4,2.3,0.9,3.3,1.5c0.5,0.3,1,0.6,1.5,0.9c0.4,0.3,0.9,0.6,1.3,0.9c0.8,0.6,1.5,1.3,2.1,1.9
					c0.6,0.6,1,1.2,1.4,1.6c0.7,1,1,1.5,1,1.5c0,0.1,0,0.1,0,0.1c0,0-0.1,0-0.1,0l0,0c0,0-0.1-0.1-0.4-0.3c-0.2-0.2-0.6-0.5-1-0.9
					c-0.2-0.2-0.5-0.4-0.7-0.6c-0.3-0.2-0.6-0.4-0.9-0.6c-0.3-0.2-0.7-0.5-1-0.7c-0.4-0.2-0.8-0.5-1.2-0.7c-0.8-0.5-1.7-0.9-2.7-1.4
					c-0.5-0.2-1-0.4-1.5-0.6c-0.5-0.2-1.1-0.4-1.6-0.6c-1.1-0.4-2.3-0.8-3.5-1.2c-1.2-0.4-2.5-0.6-3.7-0.9c-5.1-1-10.3-1.1-14.2-1
					c-3.9,0.1-6.5,0.5-6.5,0.5c-0.1,0-0.1,0-0.1-0.1C95,245.2,95.1,245.2,95.1,245.2z"/>
			</g>
			<g>
				<path class="st14" d="M96.6,233.6c0,0,2.1-1.5,5.6-3.5c1.7-1,3.8-2,6-3c2.3-1,4.8-1.9,7.3-2.7c1.3-0.4,2.6-0.7,3.9-1
					c1.3-0.3,2.6-0.4,3.9-0.6c1.3-0.1,2.5-0.1,3.7,0.1c0.6,0.1,1.1,0.1,1.7,0.2c0.5,0.1,1.1,0.2,1.6,0.3c1,0.3,1.9,0.6,2.6,0.9
					c0.8,0.3,1.4,0.7,1.9,0.9c1,0.6,1.5,1,1.5,1c0,0,0.1,0.1,0,0.1c0,0-0.1,0-0.1,0l0,0c0,0-0.2,0-0.5-0.1c-0.3-0.1-0.7-0.2-1.3-0.4
					c-0.3-0.1-0.6-0.1-0.9-0.2c-0.3-0.1-0.7-0.2-1.1-0.2c-0.4-0.1-0.8-0.2-1.2-0.2c-0.4-0.1-0.9-0.1-1.4-0.2c-0.9-0.1-2-0.2-3.1-0.2
					c-0.5,0-1.1,0-1.7,0c-0.6,0-1.2,0.1-1.7,0.1c-1.2,0.1-2.4,0.2-3.7,0.3c-1.3,0.2-2.5,0.4-3.8,0.7c-5,1.1-9.9,3.1-13.4,4.8
					c-3.6,1.6-5.8,3-5.8,3c0,0-0.1,0-0.1,0C96.5,233.7,96.5,233.7,96.6,233.6z"/>
			</g>
		</g>
		<path class="st15" d="M74.8,395.6c17-3.1,59.9,14.1,74.9,28.8"/>
		<g>
			<path class="st16" d="M155.6,457.9c0,0,1.3-2.1,3.9-4.9c0.6-0.7,1.4-1.4,2.1-2.2c0.8-0.7,1.6-1.5,2.5-2.2
				c0.5-0.4,0.9-0.8,1.4-1.1c0.5-0.4,1-0.7,1.5-1.1c1-0.8,2-1.4,3.1-2.1c1-0.7,2.2-1.3,3.2-1.9c1.1-0.6,2.2-1.1,3.2-1.6
				c1.1-0.5,2.2-0.8,3.2-1.2c1-0.4,2-0.6,2.9-0.8c0.9-0.2,1.7-0.4,2.5-0.5c0.8-0.1,1.4-0.2,2-0.2c1.1-0.1,1.7-0.2,1.7-0.2
				c0.1,0,0.1,0,0.1,0.1c0,0,0,0.1-0.1,0.1l0,0c0,0-0.6,0.2-1.6,0.6c-0.5,0.2-1.1,0.4-1.8,0.6c-0.7,0.2-1.5,0.6-2.4,0.9
				c-0.9,0.3-1.8,0.6-2.8,1.1c-1,0.4-2,0.8-3,1.3c-1,0.5-2.1,0.9-3.2,1.4c-1.1,0.5-2.2,1-3.2,1.7c-1.1,0.6-2.1,1.2-3.1,1.9
				c-0.5,0.3-1,0.7-1.5,1c-0.5,0.4-0.9,0.7-1.4,1c-0.9,0.7-1.8,1.4-2.6,2.1c-0.8,0.7-1.6,1.3-2.2,2c-2.7,2.5-4.2,4.5-4.2,4.5
				c0,0-0.1,0-0.1,0C155.6,458,155.6,457.9,155.6,457.9z"/>
		</g>
		<g>
			<path class="st16" d="M162.6,490c0,0,0-0.3-0.1-1c0-0.7-0.1-1.6,0-2.8c0.1-1.2,0.2-2.7,0.4-4.4c0.1-0.8,0.3-1.7,0.5-2.7
				c0.2-0.9,0.5-1.9,0.8-2.9c0.3-1,0.7-2,1.1-3.1c0.4-1.1,1-2.1,1.5-3.2c0.6-1.1,1.2-2.1,1.9-3.2c0.7-1.1,1.5-2.1,2.3-3.1
				c0.8-1,1.8-2,2.7-3c0.4-0.5,1-1,1.5-1.4c0.5-0.5,1-0.9,1.6-1.4c1-1,2.2-1.7,3.4-2.5l1.7-1.2l1.8-1c2.5-1.4,4.9-2.7,7.4-3.9
				c2.4-1.3,4.8-2.5,7.1-3.8c2.3-1.2,4.5-2.5,6.6-3.6c2.1-1.2,4-2.3,5.8-3.4c1.8-1.1,3.4-2.1,4.8-3.1c1.4-0.9,2.6-1.8,3.6-2.5
				c2-1.4,3-2.4,3-2.4c0,0,0.1,0,0.1,0c0,0,0,0.1,0,0.1c0,0-0.2,0.3-0.7,0.8c-0.4,0.5-1.1,1.2-2,2c-0.9,0.8-2,1.8-3.4,2.9
				c-0.7,0.5-1.4,1.1-2.2,1.7c-0.8,0.6-1.6,1.2-2.4,1.8c-1.7,1.2-3.6,2.5-5.7,3.7c-1,0.7-2.1,1.3-3.2,1.9c-1.1,0.6-2.2,1.3-3.4,1.9
				c-2.3,1.2-4.7,2.5-7.2,3.7c-2.5,1.2-5,2.4-7.4,3.7l-1.8,1l-1.7,1.1c-1.1,0.8-2.3,1.5-3.3,2.4c-0.5,0.4-1,0.9-1.6,1.3
				c-0.5,0.4-1,0.8-1.5,1.3c-0.9,1-1.9,1.9-2.7,2.8c-0.8,1-1.6,2-2.3,3c-0.7,1.1-1.3,2.1-1.9,3.1c-0.5,1.1-1.1,2.1-1.6,3.1
				c-0.4,1-0.9,2-1.2,3c-0.3,1-0.6,1.9-0.9,2.8c-0.2,0.9-0.5,1.8-0.6,2.6c-0.3,1.7-0.5,3.1-0.6,4.3c-0.1,1.2-0.1,2.2-0.1,2.8
				c0,0.6,0,1,0,1C162.8,490.1,162.8,490.1,162.6,490C162.7,490.1,162.6,490.1,162.6,490z"/>
		</g>
		<g>
			<path class="st16" d="M116.3,497c0,0-0.4-4.6-0.5-11.4c0-1.7,0-3.6,0-5.5c0-2,0.1-4,0.3-6.2c0.1-2.1,0.3-4.4,0.5-6.6
				c0.2-2.2,0.5-4.5,0.9-6.8c0.2-1.1,0.4-2.3,0.6-3.4c0.2-1.1,0.4-2.2,0.7-3.3c0.5-2.2,1.1-4.4,1.8-6.4c0.4-1,0.8-2,1.2-3
				c0.4-1,0.9-1.9,1.3-2.8c0.5-0.9,0.9-1.7,1.5-2.5c0.5-0.8,1-1.6,1.6-2.2c1.1-1.4,2.2-2.6,3.2-3.5c0.6-0.5,1.1-0.9,1.5-1.3
				c0.5-0.4,1-0.6,1.4-0.9c0.8-0.6,1.6-0.8,2.1-1.1c0.5-0.2,0.8-0.3,0.8-0.3c0,0,0.1,0,0.1,0c0,0,0,0.1,0,0.1l0,0
				c0,0-0.2,0.2-0.7,0.4c-0.4,0.3-1.1,0.6-1.9,1.3c-0.4,0.3-0.8,0.6-1.2,1c-0.4,0.4-0.9,0.9-1.4,1.3c-0.5,0.5-0.9,1.1-1.4,1.7
				c-0.5,0.6-0.9,1.3-1.4,2c-0.9,1.4-1.8,3-2.6,4.7c-0.4,0.9-0.8,1.8-1.2,2.7c-0.4,1-0.7,1.9-1.1,2.9c-0.7,2-1.4,4.1-1.9,6.2
				c-0.3,1.1-0.6,2.2-0.8,3.3c-0.3,1.1-0.5,2.2-0.7,3.3c-0.4,2.2-0.8,4.5-1.1,6.7c-0.3,2.2-0.6,4.4-0.7,6.5
				c-0.2,2.1-0.3,4.2-0.5,6.1c-0.1,2-0.2,3.8-0.3,5.5c-0.2,6.8,0,11.4,0,11.4C116.5,497.1,116.4,497.1,116.3,497
				C116.3,497.1,116.3,497.1,116.3,497z"/>
		</g>
		<g>
			<path class="st16" d="M71.5,482.6c0-1.6,0.1-3.2,0.3-4.8c0.2-1.6,0.4-3.2,0.7-4.8c0.3-1.6,0.6-3.2,1-4.7c0.2-0.8,0.4-1.6,0.6-2.3
				c0.2-0.8,0.4-1.5,0.7-2.3l0.8-2.3l0.9-2.2c0.6-1.5,1.3-2.9,2-4.4l1.1-2.1l0.6-1.1l0.6-1l1.3-2.1c0.4-0.7,0.9-1.3,1.4-2
				c0.5-0.7,0.9-1.3,1.4-2l1.5-1.9c1-1.3,2.1-2.5,3.1-3.7c1.1-1.2,2.1-2.4,3.3-3.6l1.7-1.7l1.7-1.7c1.2-1.1,2.4-2.2,3.6-3.3
				c1.2-1.1,2.5-2.1,3.7-3.1c1.3-1,2.6-2,3.9-2.9c1.3-0.9,2.7-1.8,4.2-2.6c0.1-0.1,0.2-0.1,0.3-0.1c1.3-0.1,2.5-0.2,3.8-0.3
				c1.3,0,2.5,0,3.8,0c1.3,0,2.5,0.1,3.8,0.2c0.6,0,1.3,0.1,1.9,0.2c0.6,0.1,1.3,0.1,1.9,0.2c1.3,0.2,2.5,0.4,3.7,0.6
				c0.6,0.1,1.2,0.3,1.8,0.4c0.6,0.1,1.2,0.3,1.8,0.4l1.8,0.5l1.8,0.6c0.6,0.2,1.2,0.4,1.8,0.7l1.7,0.7c0,0,0.1,0.1,0,0.1
				c0,0-0.1,0.1-0.1,0.1l0,0l-1.8-0.5c-0.6-0.2-1.2-0.4-1.8-0.5l-1.8-0.4l-1.8-0.4c-0.6-0.1-1.2-0.2-1.8-0.3
				c-0.6-0.1-1.2-0.2-1.8-0.3c-1.2-0.1-2.5-0.3-3.7-0.4c-0.6-0.1-1.2-0.1-1.8-0.1c-0.6,0-1.2-0.1-1.9-0.1c-1.2,0-2.5-0.1-3.7,0
				c-1.2,0-2.5,0.1-3.7,0.1c-1.2,0.1-2.5,0.2-3.7,0.3l0.3-0.1c-1.3,0.7-2.7,1.6-4,2.5c-1.3,0.9-2.6,1.8-3.9,2.7
				c-1.3,1-2.5,1.9-3.7,2.9c-1.2,1-2.4,2.1-3.6,3.1l-1.8,1.6l-1.7,1.7c-1.1,1.1-2.2,2.3-3.3,3.4c-1,1.2-2.1,2.3-3.1,3.6l-1.5,1.9
				c-0.5,0.6-1,1.3-1.4,1.9c-0.5,0.6-1,1.3-1.4,1.9l-1.3,2l-0.6,1l-0.6,1l-1.2,2.1c-0.4,0.7-0.7,1.4-1.1,2.1c-0.4,0.7-0.7,1.4-1,2.2
				l-0.9,2.2l-0.8,2.2c-0.3,0.7-0.5,1.5-0.8,2.3c-0.2,0.8-0.5,1.5-0.7,2.3c-0.4,1.5-0.8,3.1-1.2,4.6c-0.3,1.6-0.6,3.1-0.8,4.7
				c-0.2,1.6-0.4,3.2-0.5,4.8C71.7,482.6,71.6,482.7,71.5,482.6C71.5,482.7,71.5,482.6,71.5,482.6z"/>
		</g>
		<g>
			<path class="st16" d="M78.6,429.7c1.4-1.9,2.9-3.8,4.5-5.5c0.4-0.4,0.8-0.9,1.2-1.3c0.4-0.4,0.8-0.9,1.3-1.3
				c0.8-0.8,1.8-1.6,2.7-2.4l1.4-1.1c0.5-0.4,1-0.7,1.5-1.1c0.5-0.4,1-0.7,1.5-1c0.5-0.3,1-0.7,1.5-1l1.6-0.9
				c0.5-0.3,1.1-0.5,1.7-0.8c0.6-0.2,1.1-0.5,1.7-0.7l1.7-0.6c0,0,0.1,0,0.1,0l0.1,0c1.8,0,3.7,0,5.5,0c1.8,0.1,3.7,0.2,5.5,0.4
				c1.8,0.2,3.7,0.5,5.5,0.8c0.5,0.1,0.9,0.2,1.4,0.3c0.4,0.1,0.9,0.2,1.3,0.3c0.9,0.2,1.8,0.5,2.6,0.8c0,0,0.1,0.1,0.1,0.1
				c0,0-0.1,0.1-0.1,0.1c-0.9-0.1-1.8-0.2-2.7-0.3l-2.7-0.2l-2.7-0.2l-2.7-0.1c-1.8-0.1-3.6-0.1-5.4-0.2c-1.8-0.1-3.6-0.2-5.4-0.3
				l0.2,0l-1.7,0.5c-0.6,0.1-1.1,0.4-1.6,0.6c-0.5,0.2-1.1,0.4-1.6,0.7l-1.6,0.8c-0.5,0.3-1,0.6-1.5,0.9c-0.5,0.3-1,0.6-1.5,0.9
				c-0.5,0.3-1,0.6-1.5,1l-1.4,1c-0.5,0.4-0.9,0.7-1.4,1.1c-0.5,0.4-0.9,0.7-1.4,1.1c-0.5,0.4-0.9,0.8-1.3,1.2
				c-0.4,0.4-0.9,0.8-1.3,1.2c-1.7,1.6-3.3,3.4-4.8,5.2c0,0-0.1,0-0.1,0C78.6,429.8,78.6,429.8,78.6,429.7z"/>
		</g>
		<g>
			<path class="st17" d="M90,400.8c1.6,1.9,3.2,3.7,4.8,5.5c1.7,1.8,3.3,3.5,5.1,5.2c0.9,0.8,1.8,1.7,2.7,2.5
				c0.9,0.8,1.8,1.6,2.8,2.3c0.5,0.4,1,0.7,1.4,1.1c0.5,0.4,1,0.7,1.5,1c0.5,0.3,1,0.7,1.5,0.9c0.5,0.2,1,0.6,1.6,0.7l0.8,0.3
				c0.3,0.1,0.6,0.1,0.9,0.2l1.8,0.4l3.6,0.9c2.4,0.6,4.7,1.2,7.1,1.9c2.4,0.7,4.7,1.4,7,2.2c2.3,0.8,4.6,1.6,6.9,3l-0.9-0.1
				c0.8-0.3,1.3-0.4,2-0.4c0.6-0.1,1.3-0.1,1.9-0.1c0.6,0,1.3,0,1.9,0.1c0.6,0.1,1.2,0.1,1.8,0.2c0.6,0.1,1.2,0.2,1.8,0.4
				c0.6,0.1,1.2,0.3,1.8,0.4l1.8,0.5l1.7,0.6c1.2,0.4,2.3,0.9,3.4,1.4l1.6,0.8c0.5,0.3,1.1,0.5,1.6,0.8c1.1,0.6,2.1,1.1,3.2,1.7
				c1,0.6,2,1.3,3.1,1.9c0,0,0.1,0.1,0,0.1c0,0-0.1,0.1-0.1,0c-1.1-0.5-2.2-1-3.3-1.5c-0.5-0.3-1.1-0.5-1.6-0.7l-1.6-0.7
				c-0.5-0.2-1.1-0.4-1.7-0.7l-1.7-0.6l-1.7-0.6c-0.6-0.2-1.1-0.4-1.7-0.6l-1.7-0.5l-1.7-0.4c-0.6-0.2-1.1-0.2-1.7-0.3
				c-0.6-0.1-1.1-0.2-1.7-0.3c-0.6-0.1-1.1-0.1-1.7-0.2c-0.6-0.1-1.1,0-1.7-0.1c-0.6,0-1.1,0-1.7,0.1c-0.5,0.1-1.1,0.2-1.5,0.3l0,0
				c-0.3,0.1-0.6,0.1-0.9-0.1c-1.9-1.2-4.2-2.1-6.4-3c-2.3-0.9-4.6-1.6-6.9-2.4c-2.3-0.7-4.7-1.4-7-2.1l-3.5-1l-1.8-0.5
				c-0.6-0.1-1.2-0.3-1.8-0.6c-0.6-0.2-1.2-0.5-1.7-0.8c-0.6-0.3-1.1-0.6-1.6-1c-0.5-0.3-1-0.7-1.5-1.1c-0.5-0.4-1-0.7-1.5-1.1
				c-0.9-0.8-1.9-1.6-2.7-2.5c-0.9-0.8-1.7-1.7-2.6-2.6c-1.7-1.8-3.3-3.6-4.9-5.4c-1.6-1.9-3.1-3.7-4.6-5.7c0,0,0-0.1,0-0.1
				C89.9,400.8,89.9,400.8,90,400.8z"/>
		</g>
		<path class="st12" d="M308.3,249.5c0,0,7.8-5.6,17.4-5.6c0,0,12.4,1.1,20.5,11.1"/>
		<path class="st12" d="M334.5,264.7c0,0,4.9,11.5,4.6,21.2"/>
		<path class="st8" d="M131.6,309.2c0,0-4.4-7-12.7-8.4c-7.2-1.2-14.1,2.6-18,8.7c-12.6,20.1,11.7,47.4,34.4,40.1"/>
		
			<ellipse transform="matrix(0.9971 -7.650486e-02 7.650486e-02 0.9971 -35.888 24.5329)" class="st18" cx="302.3" cy="480.7" rx="15.4" ry="5.6"/>
		
			<ellipse transform="matrix(0.997 -7.802393e-02 7.802393e-02 0.997 -36.4484 28.4839)" class="st4" cx="346.3" cy="480.7" rx="15.4" ry="5.6"/>
		
			<ellipse transform="matrix(0.9976 -6.924156e-02 6.924156e-02 0.9976 -31.4726 23.7813)" class="st19" cx="327.3" cy="465.9" rx="11.3" ry="4.1"/>
		
			<ellipse transform="matrix(0.8324 -0.5542 0.5542 0.8324 -46.3991 150.4342)" class="st19" cx="225.5" cy="151.9" rx="9.6" ry="3.3"/>
		
			<ellipse transform="matrix(0.9997 -2.354966e-02 2.354966e-02 0.9997 -2.9135 5.3047)" class="st19" cx="223.8" cy="126.4" rx="6.5" ry="3.2"/>
		
			<ellipse transform="matrix(-0.8257 0.5641 -0.5641 -0.8257 624.1871 -30.5779)" class="st19" cx="316.8" cy="81.1" rx="6.5" ry="3.2"/>
		
			<ellipse transform="matrix(-0.8985 0.439 -0.439 -0.8985 672.4092 45.5438)" class="st19" cx="330.9" cy="100.5" rx="9.2" ry="3.8"/>
		
			<ellipse transform="matrix(-0.9926 0.1217 -0.1217 -0.9926 669.7813 204.934)" class="st19" cx="328.6" cy="122.9" rx="6.9" ry="3.6"/>
		
			<ellipse transform="matrix(0.6121 -0.7908 0.7908 0.6121 -37.1261 260.862)" class="st19" cx="247.3" cy="168.3" rx="8.4" ry="3.3"/>
		<path class="st20" d="M289.3,79.5c-9-3.3-18.2-1.2-24.8,4.3c-1.4,1.2-4,4.8-3.3,6.5l0,0c5.9-5.4,13.2-7.6,19.8-5.2
			c10.5,3.9,15,18.3,9.9,32.2c-5.1,13.9-17.8,22-28.3,18.2c-10.5-3.9-15-18.3-9.9-32.2c1.2-3.2,2.8-6.1,4.6-8.6c0,0-1-0.9-2.7,0.5
			c-2,1.7-3.6,4.7-5.1,8.6c-6.9,18.9-0.4,38.8,14.6,44.3c15,5.5,32.8-5.4,39.7-24.3C310.9,104.8,304.3,85,289.3,79.5z"/>
		<path class="st21" d="M222,426.5c0,0,23.3,39.4,18.7,78.8"/>
	</g>
</g>
</svg>
