<?xml version="1.0" encoding="utf-8"?>
<!-- Generator: Adobe Illustrator 18.1.1, SVG Export Plug-In . SVG Version: 6.00 Build 0)  -->
<svg version="1.1" id="Layer_1" xmlns="http://www.w3.org/2000/svg" xmlns:xlink="http://www.w3.org/1999/xlink" x="0px" y="0px"
	 width="500px" height="500px" viewBox="0 0 500 500" enable-background="new 0 0 500 500" xml:space="preserve">
<symbol  id="New_Symbol_11" viewBox="-245.8 -271 491.7 541.9">
	<g>
		<path fill="#A86B3F" d="M194.8-230l-5.1-0.4l-41.7,30.9c-3.2,2.4-5.8,5.4-7.7,8.8c10.9,0.7,21.7,1.4,32.6,2.1
			c6.1,0.4,12.3,0.7,18-1.3c3.9-1.4,7.4-3.9,10.7-6.4c4.8-3.6,9.7-7.1,14.5-10.7c9.4,2.8,18.9,5.7,28.3,8.5
			c-5.1,10.1-25.2,29.7-44.7,48.1c-24.9,16.6-55,47.1-69.3,71.3c-1.3,116.2-2.6,232.5-4,348.7l-140.6-4.5
			C-12.8,145.4-11.4,39-10-80.5c-12.4-47.9-56.4-77.5-90.4-85c-15.4-3.4-38,2.8-53.7,4.5c-7.9,0.8-15.8-0.6-23-3.9
			c-19.8-9.2-45.7-28.6-67.3-39.6l28.4-7c0,0,16,11.3,35.6,20c4.1,1.8,11.8,1.7,21.4,0.7c-2.6-1.6-8.9-6.7-18.5-19.5
			c9-1.6,16.2-2,25.3-1.8c6.5,7.4,14.8,13.1,23.8,16.9c19.5-3,40.1-5.7,54-3.4c9.1,1.5,18.6,3.9,27.4,6.6c-3.4-2.8-6.3-5.2-6.3-5.2
			c-5.1-4.2-11.1-7.2-17.5-8.9l-5.9-1.5l-1.6,1.1c-2.4,1.7-5.7,1.6-8-0.2l-14-10.8l-11.6-10.1c-6.9-6-14.5-11.2-22.6-15.4l-7.1-3.7
			c-2.5-1.3-5.3-1.9-8.1-1.9c-3.7-0.1-7.2-1.5-9.8-4l-14.8-14h65.1c0,0,6.9,10.8,17.1,18.9c2.8,2.2,6.2,3.6,9.7,4
			c6.7,0.8,20.7,1.6,46-0.2c6.6-0.4,13.1,0.5,19.3,2.8l26.6,9.8c6.7,2.5,13.8,3.8,20.9,4c14.6,0.3,39.9,0.4,51.9-2.3
			c13.4-3.1,42.5-12.6,55.2-16.9c4.1-1.4,8.5-2.2,12.8-2.5l9.4-0.6l16.3-16.3c2.4-2.4,5.6-3.7,8.9-3.7h45L205-234.7
			C202.7-231.5,198.8-229.7,194.8-230z"/>
		<g>
			<path fill="#472813" d="M194.8-228.5c-0.9-0.1-1.9-0.2-2.8-0.2c-0.5,0-1.3,0-1.8-0.2c-0.7-0.3-0.3,0.1,0.2-0.2
				c-0.7,0.5-1.3,1-2,1.5c-3.5,2.6-7.1,5.2-10.6,7.8c-8.5,6.3-17,12.6-25.5,18.9c-4.2,3.1-8,6.2-10.8,10.9c-0.4-0.8-0.9-1.5-1.3-2.3
				c9.5,0.6,18.9,1.2,28.4,1.8c9.4,0.6,18.7,1.6,27.1-3.7c3.9-2.4,7.5-5.3,11.1-8c2-1.5,4-2.9,6-4.4c1.4-1.1,2.4-2.2,4.2-1.9
				c4.6,0.9,9.2,2.7,13.7,4.1c4.7,1.4,9.4,2.8,14.2,4.2c1,0.3,1.3,1.3,0.9,2.2c-2.3,4.4-5.6,8.4-8.9,12.1
				c-4.8,5.6-10,10.9-15.2,16.1c-6,6-12.2,11.9-18.4,17.8c-5.1,4.8-11.2,8.5-16.7,12.9c-11.6,9.3-22.4,19.7-32.4,30.8
				c-4.8,5.3-9.4,10.9-13.7,16.7c-2,2.7-3.9,5.4-5.8,8.3c-0.8,1.2-1.7,2.4-2.3,3.7c-0.9,1.9-0.6,4.3-0.6,6.4
				c-0.4,36.6-0.8,73.2-1.2,109.8c-0.4,36.6-0.8,73.2-1.2,109.8c-0.4,36.6-0.8,73.2-1.2,109.8c-0.1,4.5-0.1,9-0.2,13.5
				c0,0.8-0.7,1.5-1.5,1.5c-15.8-0.5-31.7-1-47.5-1.5c-25.2-0.8-50.5-1.6-75.7-2.4c-5.8-0.2-11.6-0.4-17.3-0.6
				c-0.8,0-1.5-0.7-1.5-1.5c0.5-46.9,1.1-93.8,1.7-140.6c0.6-46.1,1.1-92.1,1.7-138.2c0.1-11.9,0.3-23.8,0.4-35.7
				c0.1-6,0.1-12,0.2-18.1c0-2.9,0.1-5.7,0.1-8.6c0-3.1-0.3-5.7-1.2-8.6c-5.1-16.7-14.6-31.8-26.8-44.3
				c-11.2-11.5-24.7-20.9-39.3-27.6c-6.4-2.9-13.1-5.3-19.9-6.9c-8.7-2.1-17.7-1.5-26.6-0.3c-9.4,1.2-18.6,3.2-28,4.3
				c-10.4,1.2-19.9-1.6-29.1-6.3c-17.4-8.9-33.3-20.5-50.1-30.4c-4.1-2.4-8.2-4.8-12.5-6.9c-1.1-0.6-0.9-2.4,0.4-2.7
				c8.7-2.2,17.4-4.3,26.2-6.5c1.1-0.3,2.3-0.8,3.4-0.4c1.1,0.4,2.3,1.5,3.3,2.2c6.9,4.5,13.9,8.7,21.2,12.4c4.7,2.4,9.7,5.6,15,6.3
				c5.5,0.8,11.3,0.1,16.8-0.4c-0.3,0.9-0.5,1.9-0.8,2.8c-7.7-4.8-13.7-12.9-19-20c-0.6-0.7,0-2.1,0.9-2.2c4.5-0.8,9-1.4,13.5-1.6
				c2.2-0.1,4.5-0.2,6.7-0.2c1.7,0,4.8-0.6,6.3,0.2c1.4,0.8,2.8,2.9,4,4.1c1.7,1.7,3.6,3.2,5.5,4.7c3.4,2.6,7.2,4.8,11,6.7
				c2.4,1.2,3.5,1.1,6.2,0.7c2.5-0.4,5.1-0.7,7.6-1.1c4.6-0.6,9.3-1.2,13.9-1.7c8.5-0.8,17.2-1.4,25.8-0.5c10.4,1.2,20.7,4.1,30.7,7
				c-0.5,0.8-1,1.7-1.5,2.5c-6.1-5-12-10-19.7-12.6c-2.3-0.8-4.8-1.4-7.2-2c-0.6-0.1-1.7-0.2-2.2-0.6c1.3,1,1.1-0.6,0.7,0.1
				c-0.1,0.2-0.7,0.5-0.8,0.6c-0.6,0.4-1.2,0.8-1.8,1c-4.5,2-8-0.8-11.3-3.4c-3.4-2.6-6.9-5.3-10.3-7.9c-6.5-5-12.2-10.9-18.7-15.9
				c-5.8-4.4-12-8-18.4-11.3c-1.8-0.9-3.5-1.9-5.4-2.7c-4.1-1.8-8.6-1-12.8-2.7c-4.1-1.7-7.3-5.5-10.5-8.5c-3.1-2.9-6.1-5.8-9.2-8.6
				c-1-0.9-0.2-2.6,1.1-2.6c21,0,42,0,63,0c0.7,0,1.8-0.2,2.5,0.1c1.6,0.6,3.1,3.8,4.1,5.1c3.3,4.2,6.9,8.2,10.9,11.8
				c4.2,3.7,8.3,5.7,13.9,6.2c7.5,0.7,15,0.7,22.4,0.6c12.6-0.2,25.8-2.7,38.1,0.9c10,3,19.6,7.2,29.4,10.7
				c10.6,3.9,21.4,4.1,32.6,4.1c10.7,0,21.5-0.1,32.1-1.3c8.3-0.9,16.4-3.5,24.3-5.8c9.7-2.9,19.4-6,29-9.2c4-1.3,8-2.8,12.1-3.9
				c4.2-1.1,8.4-1.6,12.8-1.8c1.7-0.1,3.3-0.2,5-0.3c0.4,0,1.3-0.2,1.7-0.1c0.6,0.3-0.7,0.7-0.6,0.2c0.1-0.4,1.2-1.2,1.5-1.5
				c1.1-1.1,2.2-2.2,3.3-3.3c3.8-3.8,7.4-7.6,11.3-11.3c4.3-4,9.2-4.1,14.6-4.1c12.5,0,24.9,0,37.4,0c1,0,2,0,3,0
				c1.1,0,2,1.3,1.3,2.3c-8.1,11.3-16.2,22.5-24.2,33.8C204-230.8,200-228.3,194.8-228.5c-1.9-0.1-1.9-3.1,0-3
				c7.8,0.4,11.5-7.5,15.4-12.9c4.9-6.9,9.9-13.7,14.8-20.6c1.2-1.7,2.5-3.5,3.7-5.2c0.4,0.8,0.9,1.5,1.3,2.3c-7.6,0-15.2,0-22.8,0
				c-7.6,0-15.5-0.5-23.1,0c-5.2,0.4-8.6,4.8-12,8.3c-3.4,3.4-6.9,6.9-10.3,10.3c-2.4,2.4-6.4,1.7-9.6,1.9
				c-7.2,0.4-13.7,2.4-20.4,4.6c-14.5,4.8-29,9.6-43.8,13.5c-14.3,3.8-29.3,3.9-44,3.9c-8.5,0-17.2,0.2-25.5-1.5
				c-4.9-1-9.6-2.8-14.3-4.5c-8.7-3.2-17.4-7.2-26.4-9.5c-10.2-2.6-20.9-0.7-31.3-0.4c-7,0.2-13.9,0.3-20.9-0.1
				c-5.4-0.3-11-0.5-15.9-3.2c-6.9-3.9-12.7-10.9-17.4-17.2c-1-1.3-1.9-2.6-2.8-4c0.4,0.2,0.9,0.5,1.3,0.7c-19,0-38,0-57,0
				c-2.7,0-5.4,0-8,0c0.4-0.9,0.7-1.7,1.1-2.6c5,4.8,9.9,9.8,15.2,14.3c3.7,3.2,7.6,2.8,12.1,3.6c2.6,0.5,4.9,1.6,7.2,2.8
				c5.5,2.9,10.9,5.7,16.1,9.2c8.5,5.7,15.7,12.7,23.5,19.2c-0.4-0.3,0,0,0.3,0.3c0.7,0.5,1.3,1,2,1.5c1.8,1.4,3.7,2.8,5.5,4.3
				c3.3,2.5,7.7,7.5,12.1,5c0.8-0.5,1.6-1.4,2.5-1.5c0.7-0.1,1.7,0.3,2.4,0.5c2.7,0.7,5.4,1.3,8,2.2c8,2.8,14.1,8,20.6,13.3
				c1.2,1-0.1,2.9-1.5,2.5c-9-2.7-18.1-5.1-27.4-6.6c-8.2-1.3-16.7-0.9-24.9-0.2c-4.6,0.4-9.3,0.9-13.9,1.5
				c-2.6,0.3-5.2,0.7-7.7,1.1c-2.2,0.3-4.6,1.1-6.8,1c-1.6-0.1-3.2-1.2-4.6-1.8c-2-1-4-2.1-5.9-3.2c-3.4-2.1-6.6-4.5-9.6-7.2
				c-1.4-1.3-3.2-4-5-4.6c-1-0.4-2.9,0-4,0c-1.1,0-2.3,0-3.4,0.1c-5.5,0.2-11,0.8-16.5,1.7c0.3-0.7,0.6-1.5,0.9-2.2
				c5,6.7,10.7,14.4,18,19c1.3,0.8,0.7,2.6-0.8,2.8c-5,0.5-10,1-15,0.6c-4-0.3-7.2-1.5-10.8-3.2c-8.7-4.1-17.1-8.7-25.1-13.8
				c-2-1.3-4.2-2.5-6-4c-1.5-1.2,0.5,0.4,0.4-0.4c0,0-1.1,0.3-1.2,0.3c-4.8,1.2-9.5,2.4-14.3,3.5c-4.3,1.1-8.6,2.1-12.9,3.2
				c0.1-0.9,0.2-1.8,0.4-2.7c17.9,9.2,34.3,21,51.6,31.2c8.4,5,17.2,10.3,27,11.8c10.1,1.6,20.6-1.2,30.5-2.8
				c9.3-1.5,18.8-3,28.2-2.3c7.1,0.5,14.1,2.7,20.8,5.2c14.5,5.4,28,13.5,39.8,23.6c12.9,11,23.6,24.7,30.7,40.1
				c1.9,4.1,3.5,8.3,4.9,12.5c0.6,1.9,1.4,3.9,1.6,5.8c0.4,3.1-0.1,6.5-0.1,9.7c-0.1,12-0.3,24-0.4,36c-0.6,46.7-1.1,93.5-1.7,140.2
				c-0.6,47.1-1.2,94.2-1.7,141.3c-0.1,6.1-0.1,12.1-0.2,18.2c-0.5-0.5-1-1-1.5-1.5c15.8,0.5,31.7,1,47.5,1.5
				c25.2,0.8,50.5,1.6,75.7,2.4c5.8,0.2,11.6,0.4,17.3,0.6c-0.5,0.5-1,1-1.5,1.5c0.4-36.8,0.8-73.5,1.2-110.3
				c0.4-36.8,0.8-73.5,1.2-110.3c0.4-36.8,0.8-73.5,1.2-110.3c0.1-4.5,0.1-9,0.2-13.5c0-1.7-0.3-3.8,0.4-5.4c0.6-1.4,1.6-2.7,2.5-4
				c3.6-5.6,7.6-10.9,11.7-16c9.5-11.7,20-22.6,31.2-32.6c5.2-4.7,10.7-9.1,16.3-13.3c2.7-2,5.8-3.8,8.4-6.1
				c3.3-2.9,6.4-6.1,9.6-9.2c10.6-10.2,21.7-20.5,30.5-32.3c1.4-1.8,2.6-3.7,3.7-5.7c0.3,0.7,0.6,1.5,0.9,2.2
				c-4.7-1.4-9.4-2.8-14.2-4.2c-2.4-0.7-4.7-1.4-7.1-2.1c-1-0.3-2-0.6-3-0.9c-0.8-0.2-2.2-1-3-0.9c-1.9,0.2-4.2,2.8-5.8,3.9
				c-2,1.5-4,2.9-6,4.4c-3.6,2.6-7.1,5.4-11.1,7.4c-7.7,3.7-16.4,2.8-24.7,2.2c-9.6-0.6-19.3-1.2-28.9-1.9c-1.1-0.1-1.9-1.2-1.3-2.3
				c4.8-8.2,13.7-13.3,21.1-18.8c8.8-6.5,17.5-13,26.3-19.4c0.8-0.6,1.6-1.5,2.5-1.9c1.6-0.7,4.2,0.1,5.9,0.2
				C196.7-231.4,196.7-228.4,194.8-228.5z"/>
		</g>
	</g>
	<path fill="#331D0D" stroke="#683E1F" stroke-width="4" stroke-miterlimit="10" d="M-4.7,186.1c0-25.7,2.1-46.6,4.7-46.6
		s4.7,20.8,4.7,46.6S2.6,232.7,0,232.7S-4.7,211.8-4.7,186.1z"/>
	<g>
		<g>
			<path fill="#472813" d="M-43.5-188.3c0,0,0.4,0.3,1.1,0.8c0.7,0.5,1.8,1.2,3,2.3c0.6,0.5,1.3,1.1,2,1.8c0.7,0.7,1.5,1.4,2.3,2.2
				c0.8,0.8,1.6,1.7,2.5,2.6c0.8,1,1.7,2,2.6,3.1c1.7,2.2,3.4,4.6,5.1,7.4c1.7,2.7,3.2,5.7,4.7,8.8c1.4,3.1,2.7,6.5,3.8,9.9
				c1.1,3.5,2,7,2.8,10.6c0.7,3.7,1.3,7.3,1.7,10.9c0.4,3.6,0.7,7.2,0.9,10.6c0.2,3.5,0.4,6.8,0.5,10c0.1,3.2,0.2,6.2,0.3,9
				c0.1,2.8,0.1,5.3,0.2,7.6c0.1,2.3,0.1,4.3,0.2,5.9c0.1,3.3,0.2,5.1,0.2,5.1l0.3,0c0,0,0.2-1.9,0.6-5.1c0.2-1.6,0.3-3.6,0.5-5.9
				c0.2-2.3,0.3-4.8,0.5-7.6c0.1-2.8,0.2-5.8,0.2-9.1c0-3.2-0.1-6.6-0.3-10.1c-0.3-3.5-0.7-7.1-1.2-10.8c-0.6-3.6-1.3-7.4-2.1-11
				c-0.9-3.7-2-7.3-3.2-10.8c-1.3-3.5-2.7-6.9-4.2-10c-1.6-3.1-3.2-6.1-5-8.8c-1.8-2.7-3.7-5.1-5.4-7.3c-0.9-1.1-1.8-2.1-2.7-3
				c-0.9-0.9-1.8-1.8-2.6-2.6c-0.9-0.8-1.7-1.5-2.4-2.1c-0.7-0.6-1.5-1.2-2.1-1.7c-1.3-1-2.4-1.7-3.1-2.2c-0.7-0.5-1.1-0.8-1.1-0.8
				L-43.5-188.3z"/>
		</g>
		<g>
			<path fill="#683E1F" d="M-0.4,64.2c0,0,0.3-2.3,0.8-6.4c0.5-4.1,1.2-9.9,2-16.9c0.4-3.5,0.8-7.3,1.2-11.3c0.4-4,0.8-8.3,1.2-12.7
				C5.7,8.1,6.4-1.3,7-10.7c0.6-9.4,1.2-18.8,1.3-27.7c0-4.4,0-8.7-0.1-12.8c-0.1-4.1-0.4-7.9-0.7-11.4c-0.3-3.5-0.7-6.8-1.2-9.6
				C6-75.1,5.5-77.6,5-79.6c-0.2-1-0.5-1.9-0.7-2.7c-0.2-0.8-0.4-1.4-0.6-1.9c-0.4-1-0.6-1.6-0.6-1.6l-0.3,0.1c0,0,0.1,0.6,0.4,1.6
				c0.1,0.5,0.2,1.2,0.4,2c0.1,0.8,0.3,1.7,0.4,2.7c0.1,0.5,0.1,1,0.2,1.6c0.1,0.6,0.1,1.2,0.2,1.8c0.1,1.2,0.2,2.6,0.3,4
				c0.1,1.4,0.2,2.9,0.2,4.5c0,1.6,0.1,3.3,0.1,5C4.9-60.7,5-58.9,5-57c0,1.9,0,3.9,0,5.9c0,4,0,8.3-0.1,12.7
				c0,4.4-0.1,8.9-0.2,13.6c-0.1,4.6-0.2,9.3-0.4,14C4-1.5,3.5,7.9,3,16.7c-0.3,4.4-0.6,8.7-0.9,12.7c-0.3,4-0.6,7.8-0.8,11.4
				c-0.5,7-1,12.9-1.4,17c-0.4,4.1-0.6,6.4-0.6,6.4L-0.4,64.2z"/>
		</g>
		<g>
			<path fill="#683E1F" d="M16.8-91.1c0,0,0.1,1.4,0.2,4c0.1,1.3,0.1,2.8,0.2,4.6c0.1,1.8,0.1,3.7,0.1,5.9c0,2.2-0.1,4.5-0.1,7
				c-0.1,2.5-0.2,5.1-0.3,7.8c-0.1,2.7-0.3,5.5-0.5,8.3c-0.2,2.8-0.4,5.7-0.7,8.6c-0.3,2.9-0.5,5.8-0.8,8.6
				c-0.3,2.8-0.5,5.6-0.8,8.3c-0.2,2.7-0.4,5.3-0.4,7.8c0,1.2-0.1,2.5-0.1,3.6c0,1.2,0,2.3-0.1,3.4c0,2.2,0,4.2,0,6
				c0,1.8,0.1,3.3,0.2,4.6c0.1,2.5,0.3,4,0.3,4l0.3,0c0,0,0.3-1.4,0.6-4c0.3-2.5,0.8-6.1,1.3-10.4c0.5-4.3,1-9.4,1.4-14.8
				c0.2-2.7,0.3-5.5,0.4-8.4c0.1-2.9,0.2-5.8,0.4-8.7c0.1-2.9,0.2-5.8,0.3-8.7c0.1-2.9,0.1-5.7,0.2-8.4c0-2.7,0-5.4,0-7.9
				c-0.1-2.5-0.1-4.9-0.3-7c-0.1-2.2-0.2-4.2-0.4-5.9c-0.1-1.8-0.3-3.3-0.4-4.6c-0.3-2.5-0.5-4-0.5-4L16.8-91.1z"/>
		</g>
		<g>
			<path fill="#683E1F" d="M90.1-3.8c0,0-0.1-1.7-0.3-4.8c-0.2-3-0.4-7.4-0.7-12.6c-0.1-2.6-0.2-5.4-0.3-8.4c-0.1-3-0.1-6.1,0-9.4
				c0.1-3.2,0.2-6.6,0.4-10c0.2-3.4,0.6-6.8,1-10.3c0.4-3.5,0.8-6.9,1.3-10.3c0.4-3.4,0.9-6.7,1.4-9.9c0.9-6.4,2-12.3,3.4-17.2
				c0.7-2.5,1.4-4.7,2.1-6.7c0.7-2,1.5-3.6,2.1-5c0.7-1.4,1.2-2.4,1.6-3.1c0.4-0.7,0.6-1.1,0.6-1.1l-0.3-0.2c0,0-0.3,0.3-0.8,0.9
				c-0.5,0.6-1.3,1.6-2.2,2.8c-0.9,1.3-1.9,2.9-2.8,4.8c-1,1.9-1.9,4.2-2.9,6.6c-0.9,2.5-1.7,5.2-2.5,8.2c-0.7,2.9-1.4,6.1-1.9,9.3
				c-0.5,3.2-0.9,6.6-1.2,10c-0.3,3.4-0.5,6.9-0.8,10.4c-0.3,3.4-0.5,7-0.6,10.4c-0.1,3.4-0.1,6.8,0,10.1c0.1,6.5,0.6,12.6,1.1,17.8
				c0.5,5.2,0.9,9.5,1.3,12.5c0.3,3,0.5,4.7,0.5,4.7L90.1-3.8z"/>
		</g>
		<g>
			<path fill="#683E1F" d="M78.9-80.5c0,0,0.1-0.7,0.1-2c0-0.6,0.1-1.4,0.2-2.2c0.1-0.9,0.2-1.8,0.4-2.9c0.1-0.5,0.2-1.1,0.3-1.6
				c0.1-0.6,0.2-1.1,0.3-1.7c0.2-1.2,0.5-2.4,0.8-3.7c0.2-0.6,0.4-1.3,0.6-1.9c0.2-0.7,0.4-1.3,0.6-2c0.2-0.6,0.5-1.3,0.7-1.9
				c0.3-0.6,0.6-1.3,0.8-1.9c0.3-0.6,0.6-1.2,0.9-1.9c0.2-0.3,0.3-0.6,0.5-0.9l0.5-0.9c0.7-1.2,1.5-2.2,2.2-3.3
				c0.3-0.5,0.8-1,1.1-1.5c0.4-0.5,0.7-1,1.1-1.5c0.7-0.9,1.4-1.8,2.1-2.6c0.4-0.4,0.7-0.8,1-1.1c0.3-0.3,0.7-0.7,0.9-1
				c0.6-0.6,1.1-1.2,1.6-1.6c0.9-0.9,1.4-1.4,1.4-1.4l-0.2-0.3c0,0-0.7,0.2-1.9,0.7c-0.3,0.1-0.6,0.3-1,0.4
				c-0.3,0.2-0.7,0.4-1.1,0.6c-0.8,0.5-1.7,1-2.5,1.7c-0.4,0.4-0.9,0.7-1.4,1.1c-0.4,0.4-0.9,0.9-1.3,1.3c-0.2,0.2-0.5,0.4-0.7,0.7
				c-0.2,0.3-0.4,0.5-0.6,0.8c-0.4,0.5-0.9,1.1-1.3,1.6c-0.8,1.2-1.5,2.4-2.1,3.8c-0.3,0.7-0.6,1.3-0.9,2c-0.3,0.7-0.6,1.4-0.8,2.1
				c-0.2,0.7-0.5,1.4-0.7,2.1c-0.2,0.7-0.4,1.4-0.6,2.1c-0.2,0.7-0.4,1.4-0.5,2.1c-0.1,0.7-0.3,1.4-0.4,2c-0.2,1.4-0.4,2.7-0.5,3.9
				c-0.1,0.6-0.1,1.2-0.2,1.8c0,0.6,0,1.2-0.1,1.7c-0.1,1.1,0,2.1,0,3c0,0.9,0,1.6,0.1,2.3c0.1,1.3,0.1,2,0.1,2L78.9-80.5z"/>
		</g>
		<g>
			<path fill="#683E1F" d="M64.8-132.4c0,0,0.1-0.4,0.3-1.1c0.2-0.7,0.4-1.7,0.8-2.9c0.7-2.4,2-5.4,3.5-8.3c0.4-0.7,0.8-1.4,1.2-2.1
				c0.4-0.7,0.9-1.3,1.3-2c0.8-1.3,1.4-2.6,1.9-3.7c0.3-0.6,0.5-1.1,0.7-1.5c0.2-0.5,0.4-0.9,0.5-1.2c0.3-0.7,0.4-1.1,0.4-1.1
				l-0.2-0.2c0,0-1.7,0.7-3.5,2.6c-0.5,0.5-1,1-1.4,1.6c-0.5,0.6-0.9,1.2-1.3,1.9c-0.8,1.4-1.3,3.1-1.9,4.7
				c-0.3,0.8-0.6,1.6-0.8,2.4c-0.3,0.8-0.4,1.6-0.6,2.4c-0.2,0.8-0.3,1.5-0.4,2.3c-0.1,0.7-0.2,1.4-0.3,2c-0.1,1.3-0.2,2.3-0.2,3.1
				c0,0.7,0,1.2,0,1.2L64.8-132.4z"/>
		</g>
		<g>
			<path fill="#683E1F" d="M114.1-117.5c0,0,0.2-0.4,0.5-1.1c0.3-0.7,0.7-1.6,1.3-2.7c1.1-2.2,2.9-5,4.8-7.6c0.5-0.6,1-1.3,1.6-1.8
				c0.5-0.6,1.1-1.1,1.6-1.7c1-1.1,1.8-2.3,2.5-3.3c0.4-0.5,0.7-1,1-1.4c0.3-0.4,0.5-0.8,0.7-1.1c0.4-0.6,0.6-1.1,0.6-1.1l-0.2-0.3
				c0,0-1.8,0.4-3.9,1.9c-0.5,0.4-1.1,0.8-1.7,1.3c-0.6,0.5-1.1,1.1-1.6,1.7c-1,1.3-1.8,2.8-2.7,4.3c-0.4,0.8-0.8,1.5-1.2,2.3
				c-0.4,0.7-0.7,1.5-1,2.2c-0.3,0.7-0.6,1.4-0.8,2.1c-0.2,0.7-0.5,1.3-0.6,2c-0.4,1.2-0.6,2.3-0.8,3c-0.1,0.7-0.2,1.1-0.2,1.1
				L114.1-117.5z"/>
		</g>
		<g>
			<path fill="#683E1F" d="M51.5-142.4l0.3-4.2c0.1-1.4,0.2-2.8,0.4-4.1l0.6-4.1c0.2-1.4,0.5-2.7,0.8-4.1c0.1-0.7,0.3-1.4,0.4-2
				l0.5-2c0.4-1.3,0.7-2.7,1.1-4c0.5-1.3,0.9-2.6,1.4-3.9l1.6-3.8l1.9-3.6c0.7-1.2,1.4-2.3,2.2-3.5c0.8-1.1,1.6-2.2,2.5-3.3l1.3-1.5
				c0.4-0.5,0.9-1,1.4-1.5l1.5-1.4c0.5-0.5,1-0.9,1.5-1.3c1-0.9,2.1-1.7,3.2-2.5c0.6-0.4,1.1-0.7,1.7-1.1l0.9-0.5l0.9-0.5
				c1.2-0.7,2.4-1.2,3.7-1.7l0.3-0.1l0.2-0.3c5.1-7.2,10.3-14.4,16.1-20.9c2.9-3.2,6.1-6.3,9.5-8.8c1.7-1.2,3.5-2.4,5.4-3.1
				c1.9-0.8,3.8-1.3,5.8-1.3l0.7,0l0.2,0l0.2,0l0.4,0c0.5,0,1.2,0,1.8,0c1.2,0,2.3-0.1,3.5-0.2c2.3-0.2,4.5-0.7,6.7-1.2
				c2.2-0.6,4.3-1.2,6.5-1.8l1.6-0.5l1.6-0.6c0.6-0.2,1.1-0.5,1.6-0.7c0.5-0.2,1-0.5,1.5-0.7c2-1,4-2.2,5.8-3.5
				c1.9-1.3,3.6-2.6,5.3-4.1c1.7-1.4,3.4-2.9,5-4.5c1.6-1.5,3.2-3.1,4.7-4.7l-0.2-0.2l-5.2,4.1c-1.7,1.4-3.5,2.7-5.3,3.9
				c-1.8,1.3-3.6,2.5-5.5,3.6c-1.9,1.1-3.8,2.1-5.8,3c-0.5,0.2-1,0.4-1.5,0.6c-0.5,0.2-1,0.4-1.5,0.6l-1.5,0.5l-1.6,0.4
				c-2.1,0.5-4.2,1.1-6.4,1.5c-2.1,0.4-4.2,0.8-6.3,1c-1.1,0.1-2.1,0.1-3.1,0.1c-0.5,0-1,0-1.6-0.1l-0.8,0l-0.9,0
				c-2.5,0-4.9,0.7-7.1,1.6c-2.2,1-4.2,2.2-6,3.6c-3.7,2.8-6.8,6.1-9.7,9.5c-2.9,3.4-5.6,7-8.2,10.6c-2.6,3.6-5.1,7.3-7.6,10.9
				l0.5-0.4c-1.3,0.6-2.6,1.2-3.8,1.9l-0.9,0.5l-0.9,0.6c-0.6,0.4-1.2,0.8-1.8,1.2c-1.1,0.9-2.3,1.7-3.3,2.7
				c-0.5,0.5-1.1,0.9-1.6,1.4l-1.5,1.5c-0.5,0.5-1,1-1.4,1.6l-1.4,1.6c-0.9,1.1-1.6,2.3-2.5,3.5c-0.7,1.2-1.4,2.4-2.1,3.7l-1.8,3.8
				l-1.5,3.9c-0.5,1.3-0.8,2.7-1.3,4c-0.5,1.3-0.7,2.7-1,4.1l-0.5,2c-0.1,0.7-0.2,1.4-0.4,2.1c-0.2,1.4-0.5,2.8-0.7,4.1l-0.4,4.2
				c-0.2,1.4-0.2,2.8-0.3,4.2l-0.2,4.2L51.5-142.4z"/>
		</g>
		<g>
			<path fill="#683E1F" d="M37.8-204.2c0,0,0.2,0.2,0.6,0.6c0.4,0.4,1,1,1.6,1.8c0.6,0.8,1.3,1.9,1.8,3.3c0.6,1.3,1,2.9,1.3,4.7
				c0.6,3.5,0.6,7.7,0.4,12.3c-0.2,4.6-0.5,9.4-0.8,14.3c-0.1,2.4-0.3,4.9-0.4,7.2c-0.2,2.4-0.3,4.7-0.4,7c-0.1,2.3-0.1,4.5-0.1,6.6
				c0,2.1,0,4.1,0.1,5.9c0,1.8,0.1,3.5,0.2,5c0.1,1.5,0.2,2.8,0.3,3.8c0.2,2.1,0.3,3.4,0.3,3.4l0.3,0c0,0,0.2-1.2,0.5-3.3
				c0.2-1.1,0.3-2.3,0.5-3.8c0.2-1.5,0.3-3.1,0.5-5c0.2-1.8,0.3-3.8,0.4-5.9c0.2-2.1,0.2-4.3,0.3-6.6c0.1-2.3,0-4.6,0-7
				c0-2.4,0-4.8,0-7.3c0-4.9,0-9.7,0-14.3c0-4.6-0.2-8.9-1.1-12.6c-0.4-1.8-1-3.4-1.7-4.8c-0.7-1.4-1.5-2.4-2.2-3.3
				c-0.7-0.8-1.4-1.4-1.8-1.7c-0.4-0.4-0.7-0.5-0.7-0.5L37.8-204.2z"/>
		</g>
		<g>
			<path fill="#683E1F" d="M-10.6-193.3c0,0,0.2,0.2,0.5,0.5c0.3,0.3,0.9,0.8,1.4,1.5c0.6,0.6,1.3,1.5,2,2.4c0.3,0.5,0.7,1,1.1,1.6
				c0.4,0.6,0.7,1.2,1.1,1.8c0.7,1.3,1.4,2.8,2,4.4c0.6,1.6,1.2,3.3,1.7,5.1c1,3.6,1.6,7.6,2,11.5c0.2,2,0.3,4,0.4,6
				c0.1,2,0.2,3.9,0.3,5.9c0.2,1.9,0.4,3.7,0.7,5.5c0.1,0.9,0.3,1.7,0.4,2.5c0.2,0.8,0.3,1.6,0.5,2.4c0.3,1.5,0.8,2.9,1.1,4.1
				c0.4,1.2,0.8,2.2,1.1,3.1c0.3,0.8,0.7,1.5,0.9,1.9c0.2,0.4,0.3,0.7,0.3,0.7l0.3-0.1c0,0-0.1-1-0.4-2.8c-0.1-0.9-0.3-1.9-0.4-3.2
				c-0.1-0.6-0.1-1.3-0.2-1.9c-0.1-0.7-0.1-1.4-0.2-2.1c-0.1-1.5-0.2-3.1-0.4-4.8c-0.1-1.7-0.2-3.5-0.4-5.4
				c-0.2-1.9-0.4-3.8-0.7-5.8c-0.3-2-0.5-4-0.9-6c-0.3-2.1-0.7-4.1-1.2-6c-0.5-2-1-3.9-1.6-5.7c-0.6-1.8-1.3-3.6-2.1-5.2
				c-0.8-1.6-1.6-3.1-2.5-4.4c-0.4-0.6-0.9-1.2-1.3-1.8c-0.4-0.5-0.9-1.1-1.3-1.6c-0.4-0.5-0.8-0.9-1.2-1.3c-0.4-0.4-0.8-0.7-1.1-1
				c-0.6-0.6-1.2-1-1.6-1.3c-0.4-0.3-0.6-0.5-0.6-0.5L-10.6-193.3z"/>
		</g>
		<g>
			<path fill="#683E1F" d="M-27.3-190.5c0,0,0.9,1.1,2.5,3.1c0.7,1,1.6,2.2,2.7,3.6c1,1.4,2.1,3,3.2,4.9c0.6,0.9,1.2,1.8,1.7,2.9
				c0.6,1,1.2,2,1.7,3.1c0.5,1.1,1.2,2.2,1.7,3.4c0.5,1.2,1.1,2.3,1.6,3.6c0.5,1.2,1.1,2.5,1.5,3.7c0.5,1.3,1,2.6,1.4,3.9
				c0.9,2.6,1.7,5.4,2.4,8.1c0.7,2.8,1.2,5.5,1.6,8.3c0.2,1.4,0.4,2.7,0.5,4.1c0.1,1.4,0.3,2.7,0.4,4c0.3,2.6,0.4,5.2,0.6,7.6
				c0.2,2.5,0.3,4.8,0.6,7c0.3,2.2,0.7,4.2,1.1,5.9c0.5,1.7,1,3.2,1.5,4.4c0.2,0.6,0.5,1.1,0.8,1.5c0.2,0.4,0.4,0.8,0.6,1.1
				c0.4,0.6,0.6,0.9,0.6,0.9l0.3-0.2c0,0-0.1-0.3-0.3-1c-0.2-0.6-0.5-1.6-0.8-2.8c-0.3-1.2-0.5-2.7-0.8-4.4
				c-0.2-1.7-0.3-3.6-0.4-5.7c-0.1-2.1-0.1-4.4-0.1-6.9c0-2.5-0.1-5.1-0.3-7.8c-0.1-1.4-0.3-2.7-0.5-4.1c-0.2-1.4-0.5-2.8-0.8-4.2
				c-0.6-2.8-1.3-5.6-2.1-8.4c-0.8-2.8-1.8-5.5-2.8-8.2c-0.5-1.3-1.1-2.6-1.6-3.9c-0.6-1.3-1.2-2.5-1.7-3.8
				c-1.2-2.4-2.4-4.7-3.7-6.9c-0.6-1.1-1.3-2.1-1.9-3.1c-0.6-1-1.3-1.9-1.9-2.8c-1.2-1.8-2.5-3.3-3.5-4.7c-1.1-1.4-2.1-2.5-2.9-3.5
				c-1.7-1.8-2.7-2.9-2.7-2.9L-27.3-190.5z"/>
		</g>
		<g>
			<path fill="#683E1F" d="M16.7,230.9c0,0,0.3-0.5,0.9-1.4c0.3-0.5,0.6-1,1-1.7c0.4-0.7,0.8-1.4,1.2-2.2c0.4-0.8,0.9-1.7,1.3-2.7
				c0.5-0.9,0.9-2,1.3-3c0.4-1.1,0.9-2.2,1.3-3.3c0.4-1.1,0.8-2.3,1.2-3.5c0.7-2.4,1.5-4.7,1.9-7c0.2-1.1,0.3-2.3,0.4-3.3
				c0-0.5,0-1,0.1-1.5c0-0.5,0-1,0-1.5c0-0.9-0.1-1.8-0.2-2.5c-0.1-0.8-0.2-1.4-0.3-1.9c-0.2-1.1-0.4-1.7-0.4-1.7l-0.3,0
				c0,0-0.2,0.6-0.5,1.6c-0.1,0.5-0.3,1.2-0.5,1.9c-0.2,0.7-0.3,1.5-0.5,2.4c-0.4,1.8-0.8,3.8-1.2,6c-0.2,1.1-0.3,2.2-0.5,3.4
				c-0.1,1.2-0.4,2.3-0.6,3.5c-0.5,2.3-1.1,4.7-1.7,6.8c-0.6,2.2-1.3,4.2-1.9,5.9c-0.6,1.7-1.2,3.1-1.6,4.1c-0.4,1-0.6,1.5-0.6,1.5
				L16.7,230.9z"/>
		</g>
		<g>
			<path fill="#683E1F" d="M20.8,257.2c0,0,0.2-0.1,0.7-0.3c0.2-0.1,0.5-0.2,0.8-0.4c0.3-0.2,0.7-0.4,1-0.6c0.7-0.5,1.6-1.1,2.5-2
				c0.4-0.4,0.9-0.9,1.4-1.4c0.4-0.5,0.9-1.1,1.4-1.6c0.5-0.6,0.9-1.2,1.4-1.9c0.2-0.3,0.5-0.7,0.7-1c0.2-0.4,0.4-0.7,0.7-1.1
				c0.4-0.7,0.9-1.5,1.3-2.3c0.4-0.8,0.8-1.6,1.2-2.5c0.4-0.8,0.7-1.7,1.1-2.6c0.4-0.9,0.8-1.8,1.1-2.7c0.6-1.9,1.3-3.8,1.8-5.7
				c0.3-1,0.5-1.9,0.8-2.9c0.3-1,0.4-1.9,0.7-2.9c0.4-1.9,0.8-3.8,1-5.7c0.2-1.9,0.4-3.7,0.5-5.4c0-1.7,0.1-3.3,0-4.8
				c0-1.5-0.1-2.9-0.2-4.1c-0.1-1.2-0.2-2.3-0.3-3.1c-0.2-1.7-0.4-2.7-0.4-2.7h-0.3c0,0-0.2,1-0.5,2.7c-0.1,0.9-0.3,1.9-0.4,3.1
				c-0.1,0.6-0.1,1.2-0.2,1.9c-0.1,0.7-0.2,1.4-0.3,2.1c-0.2,1.5-0.4,3-0.6,4.7c-0.2,1.7-0.5,3.4-0.7,5.2c-0.2,1.8-0.4,3.7-0.7,5.6
				c-0.1,0.9-0.2,1.9-0.4,2.9c-0.2,0.9-0.4,1.9-0.6,2.8c-0.3,1.9-0.9,3.8-1.4,5.6c-0.2,0.9-0.6,1.8-0.9,2.7
				c-0.3,0.9-0.6,1.8-0.9,2.6c-0.4,0.8-0.7,1.7-1,2.5c-0.3,0.8-0.8,1.5-1.1,2.3c-0.2,0.4-0.4,0.7-0.5,1.1c-0.2,0.3-0.4,0.7-0.6,1
				c-0.4,0.7-0.8,1.3-1.2,1.9c-0.4,0.6-0.8,1.2-1.2,1.7c-0.4,0.5-0.8,1-1.2,1.4c-0.8,0.8-1.5,1.6-2.2,2.1c-0.3,0.3-0.6,0.5-0.9,0.7
				c-0.3,0.2-0.5,0.4-0.7,0.4c-0.4,0.2-0.6,0.3-0.6,0.3L20.8,257.2z"/>
		</g>
		<g>
			<path fill="#683E1F" d="M54.5,203.6c0,0,0.1,0.2,0.3,0.7c0.1,0.5,0.3,1.1,0.4,2c0.1,0.9,0.1,1.9,0.1,3.1c0,1.2-0.1,2.6-0.2,4.1
				c-0.3,3-0.8,6.5-1.4,10.2c-0.6,3.7-1.5,7.7-2.3,11.6c-0.9,3.9-2,7.8-2.8,11.5c-0.4,1.8-0.8,3.6-1.2,5.3c-0.3,1.7-0.7,3.3-1,4.8
				c-1.1,6-1.9,9.9-1.9,9.9l0.3,0.1c0,0,0.1-0.2,0.4-0.6c0.2-0.4,0.6-1,1-1.9c0.4-0.8,0.8-1.8,1.3-3c0.5-1.2,1-2.5,1.5-3.9
				c0.5-1.4,1-3,1.5-4.7c0.5-1.7,1-3.5,1.4-5.3c0.4-1.9,0.8-3.8,1.1-5.8c0.3-2,0.7-4,1-6c0.6-4,1.2-8,1.6-11.8
				c0.2-1.9,0.4-3.7,0.5-5.5c0.1-1.7,0.2-3.4,0.2-4.9c0-1.5,0-2.9-0.1-4.2c-0.1-1.2-0.2-2.3-0.4-3.2c-0.2-0.9-0.4-1.6-0.6-2
				c-0.2-0.4-0.3-0.7-0.3-0.7L54.5,203.6z"/>
		</g>
		<g>
			<path fill="#683E1F" d="M90.5,228.2c0,0-0.3,1.4-0.6,3.5c-0.2,1.1-0.3,2.3-0.4,3.7c-0.1,1.4-0.2,2.8-0.2,4.3c0,1.4-0.2,2.9,0,4.3
				c0.1,1.4,0.5,2.6,0.9,3.6c0.8,2.1,1.8,3.3,1.8,3.3l0.3-0.1c0,0,0.1-0.4,0.2-1c0.1-0.7,0.2-1.6,0.3-2.6c0-1.1,0.1-2.3-0.1-3.6
				c-0.2-1.3-0.6-2.7-0.7-4.1c-0.4-2.8-0.6-5.6-0.8-7.7c-0.1-2.1-0.2-3.6-0.2-3.6L90.5,228.2z"/>
		</g>
		<g>
			<path fill="#683E1F" d="M102.5,206.9c0,0,0.1,0.5,0.2,1.3c0.1,0.8,0.3,1.9,0.4,3.3c0.3,2.7,0.5,6.4,0.3,10
				c-0.1,0.9-0.1,1.8-0.2,2.7c-0.1,0.9-0.2,1.8-0.3,2.6c-0.1,1.7-0.1,3.3-0.1,4.6c0,0.7,0,1.3,0,1.9c0,0.6,0.1,1.1,0.1,1.5
				c0.1,0.8,0.1,1.3,0.1,1.3l0.3,0.1c0,0,1.2-1.6,2-4.4c0.2-0.7,0.4-1.4,0.6-2.2c0.2-0.8,0.3-1.7,0.4-2.6c0.1-1.8-0.1-3.7-0.3-5.6
				c-0.1-0.9-0.2-1.9-0.3-2.8c-0.1-0.9-0.3-1.8-0.4-2.7c-0.2-0.9-0.3-1.7-0.5-2.5c-0.2-0.8-0.4-1.5-0.6-2.2c-0.4-1.4-0.7-2.5-1-3.2
				c-0.3-0.8-0.4-1.2-0.4-1.2L102.5,206.9z"/>
		</g>
		<g>
			<path fill="#683E1F" d="M110.3,182.8c0,0,0.3,1.1,0.7,2.9c0.2,0.9,0.5,2.1,0.7,3.4c0.1,0.6,0.3,1.3,0.4,2.1
				c0.1,0.7,0.3,1.5,0.4,2.3c0.3,1.6,0.5,3.4,0.7,5.2c0.2,1.8,0.4,3.8,0.6,5.8c0.1,2,0.3,4.1,0.2,6.2c0.1,2.1,0,4.3-0.1,6.4
				c-0.2,2.2-0.2,4.3-0.5,6.4c-0.2,2.1-0.5,4.2-0.8,6.2c-0.3,2-0.5,3.9-0.8,5.8c-0.3,1.8-0.5,3.6-0.8,5.2c-0.1,0.8-0.2,1.6-0.4,2.3
				c-0.1,0.7-0.3,1.4-0.4,2.1c-0.2,1.3-0.4,2.4-0.6,3.4c-0.4,1.9-0.5,3-0.5,3l0.3,0.1c0,0,0.5-1,1.3-2.7c0.2-0.4,0.4-0.9,0.7-1.5
				c0.2-0.5,0.4-1.1,0.7-1.8c0.5-1.3,1-2.7,1.5-4.3c0.2-0.8,0.5-1.6,0.7-2.5c0.2-0.9,0.4-1.8,0.6-2.7c0.2-0.9,0.4-1.9,0.6-2.9
				c0.2-1,0.3-2,0.5-3c0.2-2.1,0.4-4.2,0.4-6.4c0.1-2.2,0.1-4.4,0.1-6.6c-0.1-2.2-0.1-4.4-0.3-6.6c-0.1-2.2-0.4-4.3-0.6-6.3
				c-0.1-1-0.3-2-0.4-3c-0.1-1-0.3-1.9-0.5-2.9c-0.4-1.9-0.7-3.6-1.1-5.2c-0.2-0.8-0.4-1.6-0.6-2.3c-0.2-0.7-0.4-1.4-0.6-2.1
				c-0.4-1.3-0.7-2.4-1-3.3c-0.6-1.8-0.9-2.8-0.9-2.8L110.3,182.8z"/>
		</g>
		<g>
			<path fill="#683E1F" d="M-170.2-200.9c0,0,0.4,0.4,1.1,1.2c0.8,0.8,1.8,1.9,3.3,3.4c0.7,0.7,1.5,1.5,2.4,2.4
				c0.9,0.8,1.9,1.7,2.9,2.7c2.1,1.9,4.5,4,7.3,6.1c2.8,2.1,5.9,4.3,9.4,6.3c3.5,2,7.4,3.7,11.6,5c4.2,1.3,8.6,2.3,13.1,3.1
				c4.5,0.8,9.1,1.5,13.6,2.2c4.5,0.7,9.1,1.5,13.4,2.5c1.1,0.2,2.2,0.5,3.2,0.8c1,0.3,2.2,0.6,3.1,1c2,0.7,4.1,1.4,6,2.2
				c4,1.6,7.7,3.2,11.3,4.9c3.6,1.7,6.8,3.4,9.8,5c1.5,0.9,2.9,1.6,4.2,2.5c0.7,0.4,1.3,0.8,1.9,1.2c0.6,0.4,1.2,0.8,1.8,1.2
				c2.3,1.5,4.2,3,5.7,4.3c0.4,0.3,0.7,0.6,1,0.9c0.3,0.3,0.6,0.6,0.9,0.9c0.3,0.3,0.5,0.5,0.8,0.8c0.2,0.3,0.4,0.5,0.6,0.7
				c0.7,0.8,1,1.3,1,1.3l0.3-0.2c0,0-0.3-0.5-0.8-1.5c-0.1-0.2-0.3-0.5-0.5-0.8c-0.2-0.3-0.4-0.6-0.7-0.9c-0.2-0.3-0.5-0.7-0.8-1
				c-0.3-0.4-0.6-0.7-1-1.1c-1.4-1.5-3.2-3.2-5.4-5c-1.1-0.9-2.3-1.8-3.6-2.7c-1.3-1-2.7-1.9-4.1-2.8c-1.5-1-3-1.9-4.6-2.8
				c-1.6-0.9-3.3-1.9-5.1-2.8c-3.5-1.9-7.4-3.6-11.5-5.2c-2-0.8-4.1-1.5-6.4-2.2c-1.1-0.4-2.1-0.6-3.3-0.9c-1.1-0.2-2.2-0.5-3.4-0.7
				c-4.5-0.9-9.1-1.5-13.7-2.1c-4.6-0.6-9.1-1.1-13.6-1.8c-4.4-0.7-8.8-1.5-12.9-2.7c-4.1-1.2-7.9-2.8-11.4-4.6
				c-3.5-1.8-6.6-3.8-9.4-5.8c-2.8-2-5.2-4-7.4-5.8c-1.1-0.9-2-1.8-3-2.6c-0.9-0.8-1.7-1.6-2.5-2.2c-1.5-1.3-2.6-2.5-3.4-3.2
				c-0.8-0.8-1.2-1.2-1.2-1.2L-170.2-200.9z"/>
		</g>
		<g>
			<path fill="#472813" d="M-37.4-241c3.7-0.3,7.5,0,11.2,0.7c3.7,0.7,7.2,1.9,10.7,3.3c6.9,2.9,13.4,6.7,19.8,10.6
				c3.2,2,6.5,3.8,9.5,6c3.1,2.1,5.9,4.5,8.5,7.1c2.5,2.7,4.7,5.7,6.5,8.9c1.8,3.2,3,6.7,4,10.2l0-0.2l0.7,5.5
				c0.2,1.8,0.4,3.6,0.3,5.4c0,0.4,0,0.9-0.1,1.3l-0.1,1.4l-0.2,2.8l-0.5,5.5c-0.4,3.7-0.7,7.4-1,11.1c-0.2,1.9-0.3,3.7-0.4,5.6
				c-0.1,1.9-0.2,3.7-0.2,5.6c-0.1,1.9-0.1,3.7-0.1,5.6c0,1.9,0,3.7,0.1,5.6c0.1,1.9,0.1,3.7,0.3,5.6c0.1,1.9,0.2,3.7,0.4,5.6
				c0.2,1.9,0.3,3.7,0.6,5.6c0.2,1.8,0.4,3.7,0.7,5.5c0.3,1.8,0.5,3.7,0.8,5.5c0.3,1.8,0.6,3.7,1,5.5l0.3,0
				c-0.1-1.9-0.2-3.7-0.4-5.6c-0.1-1.9-0.2-3.7-0.3-5.6c-0.1-1.8-0.2-3.7-0.3-5.5c-0.1-1.8-0.1-3.7-0.2-5.5
				c-0.1-1.8-0.1-3.7-0.1-5.5c0-1.8,0-3.7,0-5.5c0-1.8,0-3.7,0.1-5.5l0.2-5.5c0.1-3.7,0.4-7.4,0.7-11.1l0.8-11.1l0.4-5.6l0.2-2.8
				l0.1-1.4c0-0.5,0-1,0-1.5c0-2-0.2-3.8-0.5-5.7l-0.8-5.5l0-0.1l0-0.1c-1-3.7-2.5-7.3-4.4-10.7c-1.9-3.4-4.2-6.5-6.9-9.2
				c-2.7-2.7-5.7-5.1-8.9-7.2c-3.2-2.1-6.5-3.9-9.7-5.8c-6.5-3.8-13.1-7.5-20.2-10.2c-3.5-1.4-7.2-2.4-10.9-3.1
				c-3.7-0.6-7.5-0.8-11.3-0.4L-37.4-241z"/>
		</g>
		<g>
			<path fill="#472813" d="M147.8-199.7c0,0-0.4,0.3-1.1,1c-0.7,0.6-1.7,1.6-3,2.9c-2.5,2.5-6,6.2-10.1,10.8c-2,2.3-4.1,4.8-6.3,7.6
				c-2.2,2.7-4.3,5.9-5.9,9.4c-1.7,3.5-2.9,7.4-3.6,11.4c-0.8,3.9-1.5,7.9-2.2,12c-0.7,4-1.3,8-1.8,12c-0.6,4-1,7.9-1.4,11.7
				c-0.3,3.8-0.6,7.5-0.7,11c-0.1,1.8-0.1,3.5-0.2,5.1c0,1.6,0,3.2-0.1,4.8c0,3.1,0,5.9,0.1,8.3c0.1,2.5,0.2,4.6,0.3,6.4
				c0.2,3.6,0.4,5.6,0.4,5.6l0.3,0c0,0,0-0.5,0.1-1.5c0.1-1,0.1-2.3,0.2-4.1c0.2-3.5,0.5-8.6,0.9-14.7c0.2-3,0.5-6.3,0.7-9.8
				c0.3-3.5,0.6-7.1,0.9-10.9c0.3-3.8,0.7-7.7,1.1-11.6c0.4-4,0.9-8,1.4-12c0.6-4,1.2-8,1.8-11.9c0.6-3.9,1.6-7.6,3.1-11
				c1.5-3.4,3.4-6.5,5.5-9.3c2.1-2.8,4.1-5.4,6-7.8c3.8-4.7,7.2-8.5,9.6-11.1c1.2-1.3,2.2-2.3,2.9-3c0.7-0.7,1-1,1-1L147.8-199.7z"
				/>
		</g>
		<g>
			<path fill="#683E1F" d="M-124.8-192.7c0,0,0.3,0,0.8,0.1c0.5,0.1,1.2,0.2,2.2,0.4c1,0.2,2.1,0.3,3.5,0.4c1.3,0.1,2.9,0.2,4.5,0.3
				c1.7,0.1,3.5,0.1,5.3,0.1c1.9,0,3.9,0,6-0.1c4.1-0.1,8.5-0.3,12.9-0.3c2.2,0,4.3,0.1,6.5,0.3c2.1,0.2,4.2,0.4,6.2,0.7
				c2,0.3,3.9,0.5,5.7,0.9c1.8,0.3,3.5,0.8,5,1.2c0.8,0.2,1.5,0.5,2.2,0.7c0.7,0.2,1.3,0.5,2,0.7c1.2,0.5,2.3,0.9,3.1,1.3
				c0.9,0.4,1.5,0.8,2,1c0.5,0.2,0.7,0.4,0.7,0.4l0.2-0.3c0,0-0.2-0.2-0.6-0.6c-0.4-0.4-0.9-0.9-1.7-1.5c-0.4-0.3-0.8-0.7-1.3-1
				c-0.5-0.3-1-0.7-1.6-1.1c-0.6-0.4-1.2-0.7-1.9-1.1c-0.7-0.3-1.4-0.7-2.2-1c-1.6-0.7-3.3-1.3-5.2-1.8c-1.9-0.5-3.9-0.9-6-1.2
				c-2.1-0.3-4.3-0.3-6.5-0.4c-2.2,0-4.4,0.1-6.6,0.2c-4.4,0.2-8.8,0.6-12.9,1c-4.1,0.3-7.9,0.6-11.2,0.7c-1.6,0-3.1,0-4.5,0
				c-1.3,0-2.5-0.1-3.4-0.2c-1,0-1.7-0.1-2.2-0.2c-0.5,0-0.8-0.1-0.8-0.1L-124.8-192.7z"/>
		</g>
		<g>
			<path fill="#683E1F" d="M-51.7-169.6c0,0,0.2,0.2,0.5,0.5c0.3,0.3,0.7,0.8,1.3,1.3c0.6,0.5,1.3,1.2,2.3,1.9
				c0.9,0.7,2,1.4,3.2,2.1c1.2,0.7,2.6,1.3,4.1,1.9c1.5,0.6,3,1.2,4.6,1.8c1.6,0.7,3.2,1.4,4.7,2.2c0.8,0.4,1.5,0.9,2.3,1.3
				c0.7,0.5,1.5,1,2.2,1.5c1.5,1.1,2.7,2.2,4,3.5c1.2,1.3,2.2,2.5,3.2,3.8c0.9,1.3,1.8,2.6,2.5,3.9c0.7,1.3,1.4,2.6,2,3.8
				c1.2,2.5,2.1,4.5,2.8,6c0.7,1.5,1.2,2.3,1.2,2.3l0.3-0.1c0,0-0.1-0.9-0.4-2.5c-0.1-0.8-0.3-1.8-0.5-2.9c-0.2-1.1-0.5-2.4-0.9-3.7
				c-0.4-1.3-0.9-2.8-1.6-4.3c-0.7-1.5-1.5-3-2.6-4.5c-1.1-1.5-2.4-2.8-3.8-4.1c-1.4-1.2-3-2.4-4.6-3.4c-0.8-0.5-1.6-1-2.4-1.5
				c-0.8-0.4-1.7-0.9-2.5-1.3c-1.7-0.8-3.4-1.4-5-2c-1.6-0.5-3.2-1-4.7-1.5c-1.5-0.5-2.9-1-4.1-1.5c-1.2-0.6-2.3-1.1-3.3-1.7
				c-0.9-0.6-1.7-1.1-2.4-1.6c-0.6-0.5-1.1-0.9-1.4-1.2c-0.3-0.3-0.5-0.4-0.5-0.4L-51.7-169.6z"/>
		</g>
		<g>
			<path fill="#683E1F" d="M-107.1-232c0,0,2.8,2.7,7.1,6.8c2.1,2,4.6,4.4,7.3,6.9c1.3,1.3,2.7,2.5,4.1,3.9c0.7,0.7,1.5,1.4,2.4,2
				c0.9,0.6,2.1,1.1,3.3,1.2c1.2,0.1,2.4-0.2,3.3-0.4c0.5-0.1,0.9-0.2,1.4-0.3l0.7-0.1c0.3,0,0.4,0,0.6,0c1.6,0,3.3,0.3,4.9,0.8
				c1.6,0.5,3.1,1.2,4.6,1.9c0.4,0.2,0.7,0.4,1.1,0.5c0.4,0.2,0.7,0.4,1,0.6c0.7,0.4,1.4,0.7,2,1.1c1.3,0.7,2.5,1.3,3.6,1.8
				c1.1,0.5,2.1,0.9,3,1.1c0.8,0.2,1.5,0.4,2,0.5c0.5,0.1,0.7,0.1,0.7,0.1l0.1-0.3c0,0-0.2-0.1-0.6-0.3c-0.4-0.2-1-0.6-1.7-1
				c-0.7-0.4-1.6-1-2.5-1.7c-0.9-0.7-2-1.5-3.2-2.4c-0.6-0.4-1.2-0.9-1.9-1.4c-0.3-0.2-0.7-0.5-1-0.7c-0.4-0.2-0.7-0.5-1.1-0.7
				c-1.5-0.9-3.2-1.8-5.1-2.4c-1.9-0.6-4-0.9-6.2-0.6c-0.3,0-0.6,0.1-0.8,0.1l-0.8,0.2c-0.5,0.1-1,0.3-1.5,0.4
				c-0.9,0.3-1.7,0.5-2.4,0.5c-1.4,0-2.9-1-4.4-2.2c-1.5-1.2-2.9-2.4-4.4-3.6c-2.8-2.3-5.5-4.5-7.8-6.3c-4.6-3.7-7.6-6.1-7.6-6.1
				L-107.1-232z"/>
		</g>
		<g>
			<path fill="#683E1F" d="M-122.7-249c0,0,0.4,0.1,1.2,0.3c0.4,0.1,0.9,0.2,1.4,0.4c0.5,0.2,1.2,0.4,1.8,0.7c1.4,0.6,3,1.4,4.7,2.5
				c1.7,1.2,3.5,2.6,5.4,4.4c1.9,1.7,3.8,3.7,5.8,5.8c2.1,2.1,4.3,4.3,6.7,6.5c2.5,2.1,5.3,4.1,8.4,5.6c3.2,1.5,6.6,2.4,10,3.2
				c3.4,0.8,6.8,1.3,10,2c0.8,0.2,1.6,0.4,2.4,0.6c0.8,0.2,1.6,0.4,2.4,0.6c0.8,0.2,1.5,0.5,2.3,0.7c0.8,0.3,1.5,0.5,2.2,0.8
				c3,1,5.8,2.2,8.4,3.4c2.6,1.2,5,2.5,7.2,3.8c1.1,0.6,2.1,1.3,3.1,1.9c1,0.6,1.9,1.3,2.7,1.8c1.7,1.2,3.1,2.3,4.3,3.2
				c0.6,0.5,1.1,0.9,1.5,1.3c0.4,0.4,0.8,0.7,1.1,1c0.6,0.5,0.9,0.8,0.9,0.8l0.2-0.2c0,0-0.3-0.3-0.8-1c-0.5-0.6-1.3-1.6-2.3-2.7
				c-1-1.1-2.3-2.4-3.9-3.9c-1.6-1.4-3.4-3-5.6-4.5c-1.1-0.8-2.2-1.5-3.4-2.3c-1.2-0.7-2.5-1.5-3.8-2.2c-2.7-1.4-5.6-2.7-8.7-3.8
				c-0.8-0.2-1.6-0.5-2.4-0.7c-0.8-0.2-1.6-0.4-2.5-0.7c-0.8-0.2-1.6-0.4-2.4-0.5c-0.9-0.2-1.7-0.3-2.5-0.5c-3.4-0.6-6.8-1-10.1-1.6
				c-3.3-0.6-6.6-1.4-9.6-2.6c-3-1.3-5.7-3-8.2-5c-2.5-2-4.7-4.1-6.9-6.1c-2.1-2-4.2-3.9-6.2-5.6c-2-1.7-3.9-3.1-5.7-4.2
				c-1.8-1.1-3.5-1.9-4.9-2.4c-0.7-0.2-1.4-0.4-1.9-0.6c-0.6-0.1-1.1-0.2-1.5-0.3c-0.8-0.1-1.2-0.2-1.2-0.2L-122.7-249z"/>
		</g>
		<g>
			<path fill="#683E1F" d="M-82-233.5c0,0,0.8,0.1,2.2,0.3c0.7,0.1,1.6,0.2,2.6,0.4c1,0.1,2.1,0.3,3.3,0.6c1.2,0.2,2.5,0.5,3.9,0.8
				c1.4,0.3,2.8,0.6,4.3,1c1.5,0.4,3,0.8,4.5,1.2c1.5,0.4,3.1,1,4.6,1.5c1.5,0.6,3.1,1.1,4.5,1.7c1.5,0.6,2.9,1.2,4.3,1.8
				c2.8,1.1,5.5,2.1,7.8,2.9c1.1,0.4,2.2,0.8,3.1,1.2c0.9,0.3,1.8,0.6,2.4,0.9c1.4,0.5,2.2,0.7,2.2,0.7l0.2-0.3c0,0-0.6-0.6-1.8-1.5
				c-0.6-0.5-1.3-1-2.1-1.5c-0.8-0.6-1.8-1.2-2.9-1.8c-0.5-0.3-1.1-0.6-1.7-1c-0.6-0.3-1.2-0.6-1.9-0.9c-1.3-0.7-2.7-1.2-4.1-1.8
				c-1.5-0.5-3-1.1-4.6-1.5c-1.6-0.5-3.2-0.9-4.8-1.3c-1.6-0.4-3.2-0.8-4.8-1.1c-1.6-0.4-3.2-0.6-4.7-0.9c-1.5-0.2-3-0.5-4.4-0.7
				c-1.4-0.2-2.7-0.3-4-0.4c-1.2-0.1-2.4-0.2-3.4-0.2c-1-0.1-1.9-0.1-2.6-0.1c-1.4,0-2.3,0-2.3,0L-82-233.5z"/>
		</g>
		<g>
			<path fill="#683E1F" d="M-157.2-197.4c0,0,0.3,0.3,0.8,0.9c0.6,0.6,1.3,1.6,2.5,2.6c0.6,0.5,1.2,1.2,1.9,1.8
				c0.7,0.6,1.5,1.3,2.3,1.9c0.9,0.6,1.8,1.3,2.8,2c1,0.7,2.1,1.4,3.2,2.1c2.3,1.3,4.9,2.7,7.7,3.9c2.8,1.3,5.8,2.4,9,3.4
				c3.2,1,6.5,1.9,9.9,2.7c3.4,0.8,6.9,1.5,10.4,2.2c3.5,0.6,7,1.3,10.4,1.9c3.4,0.6,6.8,1.2,10,1.9c3.2,0.6,6.4,1.2,9.3,1.8
				c2.9,0.6,5.7,1.3,8.2,2c1.3,0.4,2.5,0.7,3.6,1.1c1.1,0.4,2.2,0.7,3.2,1.1c2,0.7,3.7,1.4,5.1,2c1.4,0.6,2.5,1.1,3.3,1.5
				c0.8,0.3,1.2,0.5,1.2,0.5l0.2-0.3c0,0-0.4-0.3-1-0.7c-0.7-0.5-1.7-1.2-3-2c-0.7-0.4-1.4-0.9-2.2-1.3c-0.8-0.4-1.7-0.9-2.7-1.4
				c-1-0.5-2-0.9-3.2-1.5c-1.1-0.5-2.3-1-3.6-1.4c-1.3-0.4-2.6-0.9-4-1.4c-1.4-0.4-2.8-0.9-4.3-1.2c-3-0.8-6.1-1.5-9.4-2.1
				c-3.3-0.6-6.7-1.1-10.2-1.5c-3.4-0.5-7-1-10.5-1.4c-3.5-0.5-6.9-1.1-10.3-1.8c-3.4-0.7-6.7-1.5-9.9-2.4c-3.2-0.9-6.2-1.9-9-3
				c-2.8-1.1-5.4-2.3-7.7-3.5c-1.1-0.6-2.2-1.3-3.3-1.9c-1-0.7-1.9-1.3-2.8-1.9c-0.9-0.6-1.6-1.3-2.4-1.8c-0.7-0.6-1.3-1.1-1.9-1.6
				c-1.2-1-2-1.9-2.6-2.5c-0.6-0.6-0.9-0.9-0.9-0.9L-157.2-197.4z"/>
		</g>
		<g>
			<path fill="#683E1F" d="M-114-182.7c0,0,0.7,0,2,0.1c1.3,0.1,3.1,0.2,5.2,0.4c2.2,0.2,4.7,0.5,7.3,0.8c2.7,0.3,5.5,0.8,8.3,1.3
				c1.4,0.3,2.8,0.6,4.2,0.9c1.4,0.3,2.7,0.7,4,0.9c2.6,0.6,5.1,0.9,7.2,1.3c1.1,0.2,2,0.3,2.9,0.4c0.9,0.1,1.6,0.2,2.3,0.3
				c1.3,0.1,2,0.2,2,0.2l0.1-0.3c0,0-2.5-1.6-6.6-3.1c-0.5-0.2-1.1-0.4-1.6-0.6c-0.6-0.2-1.1-0.4-1.7-0.5c-1.2-0.4-2.5-0.7-3.8-1
				c-2.7-0.5-5.6-0.8-8.5-1.1c-2.9-0.3-5.8-0.5-8.5-0.6c-1.4,0-2.7-0.1-3.9-0.1c-1.2,0-2.4,0-3.5,0c-2.2,0-4,0.1-5.3,0.2
				c-1.3,0.1-2,0.1-2,0.1L-114-182.7z"/>
		</g>
		<g>
			<path fill="#683E1F" d="M-209.2-190.6c0,0,1.1,0.9,3.1,2.5c2,1.6,4.9,3.8,8.4,6.3c1.8,1.3,3.7,2.6,5.8,4c2.1,1.4,4.3,2.8,6.7,4.1
				c1.2,0.7,2.4,1.3,3.7,2c1.3,0.7,2.6,1.3,3.9,1.9c2.6,1.2,5.4,2.3,8.2,3.2l2.1,0.7c0.7,0.2,1.4,0.4,2.2,0.5
				c1.4,0.4,2.9,0.6,4.3,0.9c2.9,0.5,5.8,0.7,8.6,0.7c2.8,0,5.5-0.3,8-0.8c2.5-0.4,4.9-1,7-1.6c2.1-0.6,4-1.3,5.7-1.9
				c1.7-0.6,3.1-1.2,4.3-1.7c1.2-0.5,2.1-0.9,2.7-1.2c0.6-0.3,0.9-0.5,0.9-0.5l-0.1-0.3c0,0-1.4,0.3-3.9,0.9c-1.2,0.3-2.7,0.6-4.5,1
				c-1.7,0.4-3.7,0.8-5.8,1.2c-2.1,0.4-4.4,0.7-6.8,1c-2.4,0.3-5,0.5-7.6,0.5c-2.6,0.1-5.4-0.1-8.1-0.4c-1.4-0.2-2.8-0.3-4.1-0.6
				c-0.7-0.1-1.4-0.3-2.1-0.4l-2.1-0.5c-2.7-0.7-5.4-1.7-8.1-2.7c-1.3-0.6-2.6-1.1-3.8-1.7c-1.2-0.6-2.5-1.2-3.7-1.8
				c-4.8-2.5-9.1-5.1-12.8-7.5c-1.8-1.2-3.5-2.3-4.9-3.3c-1.5-1-2.7-1.9-3.8-2.6c-2.1-1.4-3.3-2.3-3.3-2.3L-209.2-190.6z"/>
		</g>
		<g>
			<path fill="#683E1F" d="M-180.5-181.7c0,0,0.5,0.3,1.4,0.9c0.9,0.6,2.2,1.4,3.8,2.4c1.6,1,3.5,2,5.6,3.1c2.1,1.1,4.4,2,6.8,2.8
				c1.2,0.4,2.4,0.7,3.7,1c1.2,0.3,2.5,0.5,3.7,0.6c1.2,0.1,2.4,0,3.5-0.1c1.1-0.1,2.1-0.4,3.1-0.6c0.9-0.3,1.8-0.6,2.5-0.9
				c0.7-0.4,1.3-0.7,1.8-1c0.5-0.3,0.8-0.6,1.1-0.8c0.2-0.2,0.4-0.3,0.4-0.3l-0.1-0.3c0,0-0.6,0.1-1.7,0.3c-0.5,0.1-1.2,0.2-1.9,0.3
				c-0.4,0-0.7,0.1-1.1,0.1c-0.4,0-0.8,0-1.3,0.1c-0.9,0-1.8,0.1-2.8,0c-1,0-2-0.1-3.1-0.1c-1.1,0-2.2-0.1-3.4-0.2
				c-1.2-0.1-2.3-0.3-3.5-0.5c-2.3-0.5-4.6-1.3-6.8-2c-2.1-0.8-4.1-1.6-5.8-2.3c-3.4-1.5-5.6-2.5-5.6-2.5L-180.5-181.7z"/>
		</g>
		<g>
			<path fill="#683E1F" d="M105.9-138.5c0,0,0.4-1.8,1.2-4.9c0.2-0.8,0.4-1.7,0.7-2.6c0.3-0.9,0.6-1.9,0.9-3c0.3-1.1,0.7-2.2,1-3.4
				c0.4-1.2,0.9-2.4,1.4-3.7c0.5-1.3,0.9-2.6,1.5-4c0.6-1.4,1.2-2.8,1.9-4.2c0.3-0.7,0.6-1.5,1-2.2c0.4-0.7,0.7-1.4,1.1-2.2
				c0.8-1.5,1.5-3,2.3-4.5c1.7-3,3.4-6.1,5.5-9c1.9-3.1,4.2-5.9,6.4-8.8c2.4-2.8,4.6-5.6,7.2-8.2c2.4-2.6,5-5,7.5-7.4
				c1.2-1.2,2.5-2.2,3.8-3.3c0.6-0.5,1.2-1.1,1.8-1.6c0.6-0.5,1.2-1,1.8-1.5c1.2-1,2.4-1.9,3.5-2.9c1.1-0.9,2.3-1.7,3.4-2.6
				c1.1-0.8,2.2-1.6,3.2-2.3c1-0.7,2-1.3,3-2c0.9-0.6,1.8-1.2,2.6-1.8c0.8-0.5,1.6-1,2.3-1.4c2.8-1.7,4.3-2.7,4.3-2.7L175-229
				c0,0-1.7,0.7-4.7,1.9c-0.7,0.3-1.6,0.7-2.5,1.1c-0.9,0.4-1.8,0.9-2.8,1.5c-1,0.5-2.1,1.1-3.2,1.7c-1.1,0.6-2.2,1.4-3.4,2.1
				c-1.2,0.8-2.4,1.5-3.7,2.4c-1.2,0.9-2.5,1.8-3.8,2.8c-0.6,0.5-1.3,0.9-2,1.5c-0.6,0.5-1.3,1.1-1.9,1.6c-1.3,1.1-2.6,2.2-3.9,3.4
				c-2.5,2.5-5.1,5-7.5,7.8c-2.5,2.7-4.7,5.7-7,8.6c-2.1,3.1-4.3,6.1-6.2,9.2c-2,3.1-3.6,6.3-5.3,9.4c-0.8,1.6-1.5,3.1-2.2,4.6
				c-0.4,0.8-0.7,1.5-1.1,2.3c-0.3,0.7-0.6,1.5-0.9,2.3c-0.6,1.5-1.1,2.9-1.7,4.3c-0.5,1.4-0.9,2.8-1.4,4.1
				c-0.4,1.3-0.9,2.6-1.2,3.8c-0.3,1.2-0.6,2.4-0.9,3.5c-0.3,1.1-0.5,2.1-0.8,3.1c-0.2,0.9-0.4,1.8-0.5,2.6c-0.6,3.2-0.9,5-0.9,5
				L105.9-138.5z"/>
		</g>
		<g>
			<path fill="#683E1F" d="M50.6-208.6c0,0,0.1-0.1,0.3-0.4c0.2-0.2,0.5-0.6,0.8-1.1c0.4-0.4,0.8-1,1.4-1.5c0.6-0.5,1.3-1.1,2.1-1.6
				c0.8-0.5,1.7-1,2.8-1.4c1-0.4,2.1-0.7,3.3-0.9c2.4-0.5,5-0.6,7.7-0.6c1.3,0,2.7,0,4,0c1.3,0,2.7-0.1,4-0.2c2.6-0.3,5-1.1,6.9-2
				c0.5-0.2,0.9-0.5,1.3-0.7c0.4-0.2,0.8-0.5,1.2-0.7c0.7-0.5,1.3-1,1.7-1.4c0.5-0.4,0.8-0.8,1-1c0.2-0.2,0.3-0.4,0.3-0.4l-0.2-0.3
				c0,0-0.2,0.1-0.5,0.2c-0.3,0.1-0.7,0.3-1.3,0.5c-0.6,0.2-1.2,0.4-2,0.6c-0.8,0.2-1.6,0.5-2.6,0.7c-0.5,0.1-1,0.2-1.5,0.3
				c-0.5,0.1-1,0.2-1.6,0.3c-1.1,0.2-2.2,0.3-3.4,0.5c-1.2,0.2-2.5,0.4-3.7,0.5c-1.3,0.2-2.6,0.3-4,0.5c-2.7,0.3-5.4,0.6-8,1.4
				c-1.3,0.4-2.5,0.8-3.5,1.4c-1.1,0.6-2,1.2-2.8,1.9c-0.8,0.7-1.5,1.4-2,2c-0.5,0.6-1,1.2-1.3,1.7c-0.3,0.5-0.5,0.9-0.7,1.2
				c-0.2,0.3-0.2,0.4-0.2,0.4L50.6-208.6z"/>
		</g>
		<g>
			<path fill="#683E1F" d="M193.7-234.6c0,0,0.6-0.3,1.6-0.9c0.5-0.3,1.1-0.6,1.8-1.1c0.7-0.4,1.4-0.9,2.2-1.5
				c0.8-0.6,1.7-1.2,2.6-1.9c0.9-0.7,1.8-1.5,2.8-2.3c0.9-0.8,1.9-1.7,2.8-2.6c0.9-0.9,1.8-1.9,2.7-2.9c0.9-1,1.8-2,2.6-3
				c0.9-1,1.6-2.1,2.3-3.1c0.6-1.1,1.3-2.1,1.7-3.2c0.2-0.5,0.5-1,0.7-1.5c0.2-0.5,0.4-1,0.6-1.5c0.4-0.9,0.6-1.8,0.8-2.6
				c0.2-0.8,0.4-1.5,0.5-2.1c0.2-1.2,0.3-1.8,0.3-1.8l-0.3-0.1c0,0-0.4,0.5-1,1.5c-0.3,0.5-0.7,1.1-1.1,1.7
				c-0.2,0.3-0.4,0.7-0.7,1.1c-0.2,0.4-0.5,0.8-0.8,1.2c-0.5,0.8-1.1,1.7-1.7,2.6c-0.6,0.9-1.2,1.9-1.8,2.9c-0.6,1-1.2,2.1-1.9,3.2
				c-0.6,1.1-1.4,2.1-2.1,3.2c-0.8,1-1.5,2-2.4,3c-0.8,1-1.6,1.9-2.4,2.8c-0.8,0.9-1.6,1.7-2.4,2.5c-0.8,0.8-1.5,1.5-2.3,2.2
				c-0.7,0.7-1.4,1.2-2,1.7c-0.6,0.5-1.1,0.9-1.6,1.3c-0.9,0.7-1.4,1.1-1.4,1.1L193.7-234.6z"/>
		</g>
		<g>
			<path fill="#683E1F" d="M172.6-253.1c0,0,0.4-0.3,1-0.9c0.3-0.3,0.7-0.7,1.2-1.1c0.5-0.4,1-0.8,1.6-1.3c0.6-0.5,1.3-0.9,2-1.4
				c0.7-0.5,1.5-1,2.3-1.5c0.8-0.5,1.6-1,2.5-1.4c0.8-0.5,1.8-0.9,2.6-1.3c0.9-0.4,1.8-0.8,2.7-1.1c0.9-0.3,1.8-0.6,2.7-0.9
				c0.9-0.3,1.7-0.7,2.5-1c0.8-0.3,1.5-0.6,2.2-0.9c0.3-0.1,0.7-0.3,1-0.4c0.3-0.1,0.6-0.2,0.9-0.4c0.6-0.3,1.1-0.5,1.5-0.7
				c0.8-0.4,1.3-0.6,1.3-0.6l0-0.3c0,0-0.5-0.1-1.5-0.2c-0.5-0.1-1-0.1-1.7-0.1c-0.6,0-1.4,0-2.2,0.1c-0.4,0.1-0.8,0.1-1.2,0.2
				c-0.4,0.1-0.9,0.2-1.3,0.3c-0.9,0.2-1.8,0.5-2.7,0.8c-0.9,0.4-1.8,0.8-2.7,1.3c-0.9,0.5-1.8,1.1-2.7,1.6
				c-0.9,0.6-1.8,1.1-2.6,1.7c-0.9,0.6-1.6,1.2-2.4,1.8c-0.7,0.6-1.5,1.2-2.1,1.9c-0.6,0.6-1.3,1.2-1.8,1.8c-0.5,0.6-1,1.1-1.4,1.6
				c-0.4,0.5-0.8,0.9-1,1.3c-0.5,0.7-0.9,1.1-0.9,1.1L172.6-253.1z"/>
		</g>
		<g>
			<path fill="#683E1F" d="M194-246.3c0,0,0.3-0.1,0.8-0.3c0.5-0.2,1.2-0.4,2.1-0.8c0.4-0.2,0.9-0.4,1.4-0.6c0.5-0.2,1-0.5,1.5-0.8
				c1-0.6,2-1.4,3-2.2c1-0.8,2-1.6,2.8-2.5c0.4-0.5,0.7-1,0.9-1.5c0.3-0.5,0.5-1,0.6-1.4c0.6-1.8,0.5-3.3,0.5-3.3l-0.3-0.1
				c0,0-0.3,0.2-0.8,0.5c-0.5,0.3-1,0.9-1.7,1.5c-0.6,0.6-1.4,1.3-2,2.2c-0.3,0.4-0.6,0.9-0.9,1.4c-0.3,0.5-0.6,0.9-1,1.4
				c-1.5,1.8-3.2,3.4-4.6,4.5c-0.7,0.6-1.3,1-1.7,1.3c-0.4,0.3-0.7,0.5-0.7,0.5L194-246.3z"/>
		</g>
		<g>
			<path fill="#683E1F" d="M130.6-91.1c0,0,0.3-0.5,0.8-1.4c0.5-0.9,1.2-2.3,2.3-3.9c0.5-0.8,1.1-1.8,1.8-2.7c0.7-1,1.4-2,2.2-3.1
				c0.8-1.1,1.7-2.2,2.7-3.5c1-1.2,2-2.4,3.1-3.7c2.3-2.5,4.7-5.2,7.6-7.8c2.8-2.7,5.8-5.4,9.1-8.1c3.2-2.7,6.7-5.4,10.2-8.1
				c3.5-2.7,7.2-5.4,10.8-8c3.7-2.7,7.3-5.3,10.9-7.9c3.6-2.6,7.1-5.3,10.5-7.9c3.3-2.7,6.5-5.3,9.3-8c1.5-1.3,2.8-2.7,4.1-3.9
				c1.3-1.3,2.5-2.6,3.7-3.8c1.1-1.3,2.2-2.5,3.3-3.7c1-1.2,1.9-2.3,2.8-3.4c0.8-1.1,1.6-2.2,2.3-3.1c0.7-1,1.3-1.9,1.9-2.7
				c1.1-1.6,1.9-3,2.4-3.9c0.5-0.9,0.8-1.4,0.8-1.4l-0.3-0.2c0,0-0.4,0.4-1,1.3c-0.7,0.8-1.6,2.1-2.9,3.6c-0.6,0.7-1.3,1.6-2.1,2.5
				c-0.8,0.9-1.7,1.8-2.6,2.8c-0.9,1-2,2-3,3.1c-1.1,1.1-2.2,2.2-3.4,3.4c-2.5,2.3-5.1,4.8-8.1,7.3c-2.9,2.5-6.1,5.1-9.4,7.7
				c-3.3,2.7-6.7,5.4-10.2,8.1c-3.5,2.7-7.1,5.5-10.7,8.3c-3.6,2.8-7.2,5.5-10.6,8.3c-3.5,2.8-6.9,5.6-10,8.4
				c-3.2,2.8-6.2,5.6-8.9,8.5c-2.7,2.8-5.2,5.6-7.4,8.2c-1.1,1.3-2.1,2.6-3,3.8c-0.9,1.3-1.8,2.5-2.6,3.6c-0.8,1.2-1.5,2.2-2.1,3.3
				c-0.6,1-1.2,2-1.7,2.8c-1,1.7-1.7,3.1-2.2,4.1c-0.5,0.9-0.7,1.4-0.7,1.4L130.6-91.1z"/>
		</g>
		<g>
			<path fill="#683E1F" d="M123.1-151.9c0,0,0.3-0.3,0.8-0.8c0.5-0.5,1.2-1.3,2.2-2.2c0.5-0.4,1-1,1.7-1.5c0.6-0.5,1.3-1.1,2-1.7
				c0.8-0.6,1.6-1.1,2.4-1.8c0.9-0.6,1.8-1.2,2.8-1.8c2-1.2,4.2-2.4,6.6-3.5c2.4-1.1,5-2.2,7.7-3.3c5.4-2.1,11.3-3.9,17.3-5.7
				c3-0.9,6-1.9,8.9-2.9c2.9-1,5.8-2.1,8.5-3.3c2.7-1.2,5.3-2.5,7.6-4c2.4-1.4,4.4-2.9,6.3-4.4c0.9-0.8,1.8-1.5,2.6-2.3
				c0.8-0.8,1.5-1.5,2.2-2.2c0.6-0.7,1.2-1.4,1.8-2.1c0.5-0.6,1-1.3,1.4-1.8c0.8-1.1,1.3-2.1,1.7-2.7c0.4-0.6,0.6-1,0.6-1l-0.3-0.2
				c0,0-0.3,0.3-0.8,0.8c-0.5,0.5-1.2,1.4-2.2,2.3c-0.5,0.5-1,1-1.6,1.5c-0.6,0.5-1.3,1.1-2,1.7c-0.7,0.6-1.5,1.2-2.3,1.8
				c-0.9,0.6-1.7,1.2-2.7,1.9c-1.9,1.2-4,2.5-6.3,3.8c-2.3,1.2-4.8,2.4-7.4,3.6c-2.6,1.2-5.4,2.3-8.2,3.5c-2.8,1.1-5.7,2.2-8.6,3.2
				c-5.9,2.1-11.8,4.2-17.2,6.5c-2.7,1.2-5.3,2.3-7.7,3.6c-2.4,1.2-4.6,2.6-6.5,3.9c-1,0.7-1.9,1.3-2.7,2c-0.8,0.7-1.6,1.3-2.4,1.9
				c-0.7,0.6-1.4,1.2-2,1.8c-0.6,0.6-1.1,1.1-1.6,1.6c-1,1-1.6,1.8-2.1,2.4c-0.5,0.6-0.7,0.9-0.7,0.9L123.1-151.9z"/>
		</g>
		<g>
			<path fill="#683E1F" d="M131.6-114.4c0,0,0.2-0.4,0.6-1c0.4-0.7,0.9-1.7,1.8-2.8c0.4-0.6,0.8-1.3,1.4-2c0.5-0.7,1.1-1.4,1.7-2.2
				c0.7-0.8,1.4-1.6,2.1-2.4c0.8-0.8,1.6-1.7,2.5-2.5c1.8-1.7,3.8-3.5,6-5.2c2.2-1.8,4.7-3.5,7.2-5.2c5.2-3.4,11-6.6,16.9-9.5
				c3-1.5,6-2.9,8.9-4.4c2.9-1.4,5.8-2.9,8.6-4.4c2.7-1.5,5.3-3.1,7.7-4.7c1.2-0.8,2.3-1.6,3.5-2.4c1.1-0.8,2.1-1.6,3.1-2.4
				c1-0.8,1.9-1.6,2.8-2.3c0.8-0.8,1.7-1.5,2.4-2.2c0.7-0.7,1.4-1.4,2-2.1c0.6-0.6,1.1-1.3,1.6-1.8c1-1.1,1.6-2.1,2.1-2.7
				c0.5-0.6,0.7-1,0.7-1l-0.3-0.2c0,0-0.3,0.3-0.9,0.8c-0.6,0.5-1.4,1.3-2.5,2.2c-1.1,1-2.5,2-4,3.3c-0.8,0.6-1.7,1.2-2.6,1.9
				c-0.9,0.6-1.9,1.3-2.9,2c-2.1,1.3-4.3,2.8-6.7,4.2c-2.4,1.4-5,2.9-7.7,4.4c-2.7,1.5-5.5,3.1-8.3,4.7c-2.9,1.6-5.8,3.2-8.7,4.8
				c-5.8,3.2-11.6,6.7-16.7,10.3c-2.5,1.8-5,3.7-7.1,5.6c-2.2,1.9-4.1,3.8-5.9,5.6c-0.8,0.9-1.6,1.8-2.4,2.7c-0.7,0.9-1.4,1.7-2,2.5
				c-0.6,0.8-1.1,1.6-1.6,2.3c-0.5,0.7-0.9,1.4-1.3,2.1c-0.8,1.2-1.3,2.3-1.6,3c-0.4,0.7-0.6,1.1-0.6,1.1L131.6-114.4z"/>
		</g>
		<g>
			<path fill="#683E1F" d="M181.5-167.4c0,0,0.6-0.2,1.7-0.6c0.5-0.2,1.2-0.4,1.9-0.7c0.7-0.3,1.5-0.6,2.4-1.1
				c0.9-0.4,1.8-0.9,2.8-1.4c1-0.5,2-1.1,3.1-1.7c1-0.6,2.1-1.3,3.2-2c1.1-0.7,2.1-1.5,3.2-2.2c1-0.8,2.1-1.6,3.1-2.4
				c1-0.8,2-1.6,2.9-2.5c0.8-0.9,1.7-1.7,2.4-2.6c0.3-0.4,0.7-0.9,1-1.3c0.3-0.4,0.6-0.9,0.9-1.3c0.6-0.8,1-1.6,1.4-2.3
				c0.4-0.7,0.7-1.3,0.9-1.8c0.5-1.1,0.7-1.7,0.7-1.7l-0.3-0.2c0,0-0.5,0.4-1.4,1.2c-0.4,0.4-0.9,0.8-1.5,1.4
				c-0.6,0.5-1.2,1.1-1.9,1.8c-1.4,1.3-3,2.8-4.6,4.5c-0.8,0.8-1.6,1.7-2.5,2.6c-0.8,0.9-1.8,1.7-2.7,2.6c-1,0.8-1.9,1.7-2.9,2.4
				c-1,0.8-1.9,1.5-2.9,2.2c-1,0.7-1.9,1.4-2.8,2c-0.9,0.6-1.8,1.2-2.6,1.7c-0.8,0.5-1.6,1-2.2,1.3c-0.7,0.4-1.3,0.7-1.8,1
				c-1,0.5-1.6,0.8-1.6,0.8L181.5-167.4z"/>
		</g>
		<g>
			<path fill="#683E1F" d="M52.8-107.3c0,0-0.4,0.7-1.1,2c-0.7,1.3-1.8,3.3-3.1,5.8c-1.3,2.5-2.7,5.6-4.3,9.3
				c-1.5,3.6-3.1,7.8-4.6,12.4c-1.5,4.6-2.9,9.7-4.1,15.1C35-60,34.5-57.1,34-54.3c-0.1,0.7-0.2,1.4-0.3,2.2
				c-0.1,0.8-0.2,1.5-0.3,2.2c-0.2,1.5-0.3,3-0.5,4.5c-0.4,3-0.5,6.1-0.7,9.2c-0.3,3.1-0.2,6.3-0.3,9.5c-0.1,6.4,0.1,12.9,0.4,19.3
				c0.6,12.9,1.8,25.8,2.9,37.8c0.3,3,0.5,6,0.8,8.8c0.2,2.9,0.5,5.7,0.7,8.5c0.3,2.8,0.3,5.4,0.5,8c0.2,2.6,0.3,5.1,0.3,7.5
				c0.2,4.8,0.2,9.2,0.2,13.1c-0.1,3.9-0.3,7.3-0.4,10.1c-0.5,5.6-0.7,8.8-0.7,8.8l0.3,0.1c0,0,0.6-3.2,1.6-8.8
				c0.4-2.8,0.8-6.2,1.1-10.2c0.2-3.9,0.6-8.4,0.6-13.3c0.1-4.9-0.1-10.1-0.3-15.7c-0.2-5.6-0.7-11.4-1.2-17.4
				c-0.6-6-1.3-12.2-1.9-18.5C36.1,5.3,35.5-1.1,35-7.5c-0.4-6.4-0.8-12.8-0.8-19.1c0-3.2-0.1-6.3,0.1-9.4c0.2-3.1,0.2-6.1,0.5-9.1
				c0.1-1.5,0.3-3,0.4-4.5c0.1-0.7,0.1-1.5,0.2-2.2c0.1-0.7,0.2-1.4,0.3-2.2c0.4-2.9,0.9-5.7,1.4-8.4c1-5.4,2.3-10.5,3.7-15.1
				c1.4-4.6,2.8-8.8,4.3-12.4c1.4-3.6,2.8-6.8,4-9.3c1.2-2.6,2.2-4.5,2.9-5.9c0.7-1.3,1.1-2.1,1.1-2.1L52.8-107.3z"/>
		</g>
		<g>
			<path fill="#683E1F" d="M16.5,184.8c0,0,0.5-2.1,1.3-5.7c0.8-3.7,1.9-8.9,2.5-15.3c0.3-3.2,0.5-6.7,0.3-10.4
				c-0.2-3.7-0.8-7.6-1.9-11.6c-1.1-3.9-2.9-7.9-5.3-11.4c-2.4-3.7-6-6.4-8-9.8c-2.1-3.3-1.9-7.4-1.5-11.5c0.5-4.2,0.9-8.3,1.3-12.3
				c0.3-4,0.7-7.8,0.9-11.5c0.3-3.7,0.5-7.1,0.6-10.3c0.2-3.2,0.3-6.1,0.4-8.7c0.1-2.6,0.2-4.9,0.2-6.7c0.1-3.7,0.1-5.9,0.1-5.9
				l-0.3,0c0,0-0.4,2.1-0.9,5.8c-0.3,1.8-0.6,4.1-1,6.7c-0.3,2.6-0.7,5.5-1.1,8.7C3.6,77.9,3.2,81.3,2.8,85
				C2.3,88.6,2,92.4,1.6,96.4c-0.3,4-0.6,8.1-0.9,12.3c-0.1,2.1-0.2,4.3,0.1,6.6c0.3,2.3,1,4.6,2.3,6.6c1.3,2,2.8,3.5,4.3,5.1
				c0.8,0.8,1.5,1.5,2.2,2.3c0.7,0.8,1.3,1.5,1.9,2.4c2.4,3.3,4.2,6.9,5.4,10.7c1.2,3.7,1.9,7.5,2.2,11.1c0.3,3.6,0.3,7.1,0.1,10.2
				c-0.4,6.4-1.3,11.6-1.9,15.3c-0.6,3.7-1,5.8-1,5.8L16.5,184.8z"/>
		</g>
		<g>
			<path fill="#683E1F" d="M121.1-66.5c0,0-0.2,13.8-0.4,34.5c-0.1,10.3-0.2,22.4-0.4,35.3c-0.1,12.9-0.2,26.7-0.4,40.5
				c-0.1,13.8-0.3,27.6-0.4,40.5c0,6.5,0,12.7,0.1,18.6c0.1,5.9,0.2,11.5,0.3,16.7c0.1,5.2,0.3,9.9,0.4,14.1
				c0.1,4.2,0.2,7.9,0.4,10.9c0.2,6,0.4,9.5,0.4,9.5h0.3c0,0,0.2-3.4,0.4-9.5c0.1-3,0.3-6.7,0.4-10.9c0.1-4.2,0.3-8.9,0.4-14.1
				c0.1-5.2,0.2-10.8,0.3-16.7c0.1-5.9,0.1-12.2,0.1-18.6c-0.1-12.9-0.3-26.7-0.4-40.5c-0.1-13.8-0.2-27.6-0.4-40.5
				c-0.1-12.9-0.3-25-0.4-35.3c-0.2-20.7-0.4-34.5-0.4-34.5H121.1z"/>
		</g>
		<g>
			<path fill="#683E1F" d="M102.2-56.2c0,0-0.1,0.9-0.3,2.5c-0.1,1.6-0.5,4-0.6,7.1c-0.1,1.5-0.2,3.2-0.3,5.1
				c-0.1,1.8-0.2,3.8-0.2,6c0,2.1-0.1,4.4-0.1,6.8c0,2.4,0,4.9,0.1,7.5c0.2,5.3,0.4,11,0.8,17c0.4,6,1,12.3,1.7,18.9
				c1.4,13.1,3.2,27,4.9,40.9c0.8,6.9,1.6,13.9,2.3,20.7c0.6,6.8,1.2,13.6,1.6,20.1c0.5,6.5,0.7,12.8,0.8,18.8
				c0.2,6,0,11.6-0.1,16.9c-0.1,2.6-0.3,5.1-0.4,7.5c-0.2,2.4-0.4,4.6-0.6,6.7c-0.2,2.1-0.5,4.1-0.7,5.9c-0.2,1.8-0.5,3.5-0.7,5
				c-0.4,3-0.9,5.4-1.2,7c-0.3,1.6-0.4,2.5-0.4,2.5l0.3,0.1c0,0,0.2-0.8,0.7-2.4c0.4-1.6,1.1-3.9,1.8-6.9c0.3-1.5,0.8-3.2,1.1-5
				c0.3-1.8,0.7-3.8,1-5.9c0.3-2.1,0.6-4.4,1-6.8c0.3-2.4,0.5-4.9,0.8-7.5c0.2-2.6,0.4-5.4,0.5-8.2c0.1-2.8,0.2-5.8,0.2-8.8
				c0.1-6.1-0.2-12.4-0.6-19c-0.9-13.2-2.7-27.1-4.7-41c-1.9-13.9-4-27.7-5.6-40.7c-0.8-6.5-1.5-12.8-2-18.8
				c-0.6-6-0.9-11.6-1.2-16.9c-0.1-2.6-0.2-5.1-0.2-7.5c0-2.4,0-4.7-0.1-6.8c0-2.1,0.1-4.1,0.1-6c0-1.8,0.1-3.5,0.2-5.1
				c0.1-3.1,0.4-5.5,0.5-7.1c0.1-1.6,0.2-2.5,0.2-2.5L102.2-56.2z"/>
		</g>
		<g>
			<path fill="#683E1F" d="M25.2,2.4c0,0,0.1,0.7,0.4,2c0.3,1.3,0.6,3.2,0.9,5.6c0.3,2.4,0.5,5.4,0.5,8.8c0,3.4-0.1,7.3-0.4,11.5
				c-0.7,8.4-2.3,18.1-4.1,28.5c-1.8,10.4-3.8,21.6-4.1,33c-0.2,5.7,0.1,11.4,1,17c0.9,5.6,2.5,11,4.5,16c2.1,4.9,4.4,9.5,6.6,13.8
				c1.1,2.2,2.1,4.2,3,6.3c0.5,1,0.9,2,1.3,3c0.4,1,0.8,2,1.2,3c1.4,3.9,2.5,7.6,3,10.9c0.5,3.3,0.6,6.3,0.4,8.7
				c-0.1,2.4-0.6,4.3-0.9,5.6c-0.4,1.3-0.6,1.9-0.6,1.9l0.3,0.1c0,0,0.3-0.7,0.8-1.9c0.5-1.3,1.1-3.1,1.5-5.6c0.1-0.6,0.2-1.3,0.3-2
				c0.1-0.7,0.1-1.4,0.2-2.2c0-1.5,0-3.2-0.2-4.9c-0.3-3.5-1-7.4-2.3-11.5c-0.3-1-0.7-2.1-1.1-3.1c-0.4-1.1-0.8-2.1-1.2-3.2
				c-0.9-2.1-1.9-4.3-2.9-6.5c-2-4.4-4.3-8.9-6.3-13.8c-2-4.7-3.6-9.9-4.6-15.2c-1-5.3-1.4-10.9-1.4-16.4
				c0.1-11.1,1.8-22.3,3.3-32.7c0.8-5.2,1.6-10.3,2.1-15.1c0.6-4.8,1-9.4,1.3-13.6c0.2-4.2,0.2-8.1,0.1-11.6
				c-0.1-3.4-0.5-6.4-0.8-8.9c-0.4-2.4-0.7-4.4-1-5.6c-0.3-1.3-0.4-2-0.4-2L25.2,2.4z"/>
		</g>
		<g>
			<path fill="#683E1F" d="M49.7-50.3c0,0-0.4,1.1-1.1,3.2c-0.4,1-0.7,2.4-1.2,3.9c-0.5,1.5-0.9,3.4-1.4,5.4
				c-0.9,4.1-1.8,9.1-2.4,14.8c-0.6,5.8-0.9,12.3-0.8,19.5c0.1,7.2,0.6,14.9,1.6,23c0.9,8.1,2.2,16.7,3.5,25.5
				c1.3,8.8,2.8,17.9,3.8,27.2c1.1,9.3,1.8,18.7,1.8,28.2c0,9.4-0.4,19,0.5,28.5c0.5,4.7,1.4,9.4,2.7,13.9c1.4,4.5,3.2,8.7,4.9,12.8
				c1.8,4.1,3.6,8.1,5,12c0.4,1,0.7,2,1.1,3c0.4,1,0.6,2,0.9,3c0.3,1,0.6,1.9,0.9,2.9c0.3,1,0.5,2,0.8,2.9c2,7.8,3.1,15.4,3.4,22.4
				c0.3,7,0.1,13.5-0.6,19.2c-0.1,1.4-0.4,2.8-0.6,4.1c-0.2,1.3-0.4,2.6-0.6,3.8c-0.2,1.2-0.5,2.4-0.7,3.5c-0.2,1.1-0.5,2.2-0.7,3.2
				c-0.3,1-0.5,2-0.7,2.9c-0.3,0.9-0.5,1.7-0.7,2.5c-0.2,0.8-0.4,1.5-0.6,2.1c-0.2,0.6-0.4,1.2-0.6,1.8c-0.7,2.1-1.1,3.2-1.1,3.2
				l0.3,0.1c0,0,0.5-1.1,1.3-3.2c0.2-0.5,0.5-1.1,0.7-1.7c0.2-0.6,0.5-1.4,0.8-2.1c0.3-0.8,0.6-1.6,0.9-2.5c0.3-0.9,0.6-1.8,0.9-2.8
				c1.3-4,2.4-8.9,3.4-14.7c0.9-5.8,1.5-12.4,1.4-19.6c-0.2-7.2-1.1-15-2.9-23.1c-0.2-1-0.5-2-0.7-3c-0.3-1-0.6-2-0.9-3.1
				c-0.3-1-0.6-2.1-1-3.1c-0.4-1-0.7-2-1.1-3c-1.5-4.2-3.3-8.2-5-12.3c-1.8-4.1-3.6-8.2-4.9-12.4c-1.4-4.3-2.3-8.7-2.8-13.3
				c-1.1-9.2-0.8-18.6-1-28.2c-0.1-9.6-1-19.1-2.2-28.4c-1.2-9.3-2.8-18.4-4.2-27.2C48.3,36,47,27.5,45.9,19.4
				c-1.1-8.1-1.7-15.8-2-22.9c-0.3-7.1-0.1-13.6,0.4-19.4c0.5-5.8,1.3-10.7,2.2-14.8c0.5-2,0.8-3.8,1.3-5.4c0.4-1.6,0.8-2.9,1.1-3.9
				c0.7-2.1,1-3.3,1-3.3L49.7-50.3z"/>
		</g>
		<g>
			<path fill="#683E1F" d="M75,117.7c0,0,0.1-0.5,0.2-1.4c0.1-0.9,0.4-2.3,0.6-4.1c0.1-0.9,0.2-1.9,0.3-3c0.1-1.1,0.1-2.2,0.2-3.5
				c0-1.3,0-2.6,0-4c-0.1-1.4-0.1-2.9-0.2-4.4c-0.2-3.1-0.6-6.4-1.2-9.9c-0.5-3.5-1.3-7.1-2.1-10.9c-1.7-7.5-4-15.4-6.2-23.2
				c-1.1-3.9-2.1-7.9-3-11.7c-0.9-3.9-1.7-7.7-2.4-11.4c-0.7-3.7-1.3-7.3-1.7-10.7c-0.4-3.4-0.6-6.7-0.7-9.7c0-1.5,0-3,0-4.3
				c0.1-1.4,0.1-2.7,0.2-3.9c0.1-1.2,0.2-2.4,0.3-3.4c0.1-1.1,0.3-2,0.4-2.9c0.2-1.8,0.6-3.1,0.8-4.1c0.2-0.9,0.3-1.4,0.3-1.4
				l-0.3-0.1c0,0-0.2,0.5-0.5,1.4c-0.3,0.9-0.9,2.2-1.4,4c-0.2,0.9-0.6,1.8-0.8,2.9C57.5-1.2,57.3,0,57,1.2c-0.2,1.2-0.4,2.6-0.6,4
				c-0.1,1.4-0.3,2.9-0.3,4.5c-0.1,3.1-0.1,6.5,0.2,10c0.2,3.6,0.8,7.3,1.5,11.1c0.8,3.8,1.7,7.7,2.8,11.6c1.1,3.9,2.3,7.8,3.5,11.7
				c2.4,7.8,4.9,15.6,6.9,22.9c1,3.7,1.8,7.3,2.5,10.7c0.7,3.4,1.2,6.7,1.5,9.7c0.1,1.5,0.3,3,0.4,4.4c0.1,1.4,0.1,2.7,0.2,3.9
				c0,1.2,0,2.4,0,3.5c0,1.1-0.1,2-0.2,2.9c-0.1,1.8-0.3,3.2-0.4,4.1c-0.1,1-0.2,1.5-0.2,1.5L75,117.7z"/>
		</g>
		<g>
			<path fill="#683E1F" d="M73.4-43.2c0,0-0.1,0.8-0.3,2.3c-0.2,1.5-0.5,3.8-0.7,6.6c-0.2,2.9-0.4,6.4-0.4,10.4
				c-0.1,4,0.1,8.5,0.5,13.4c0.4,4.9,0.9,10.2,1.8,15.8c0.8,5.6,1.9,11.5,3.1,17.5c2.4,12.1,5.5,24.8,8.1,37.7
				c2.6,12.8,4.6,25.7,5.3,37.9c0.4,6,0.4,11.9,0.2,17.5c-0.3,5.6-0.8,10.8-1.6,15.6c-0.4,2.4-0.9,4.7-1.3,6.8
				c-0.5,2.2-1,4.2-1.6,6.1c-1.1,3.8-2.4,7-3.4,9.7c-1.1,2.6-2.1,4.7-2.8,6c-0.7,1.4-1.1,2.1-1.1,2.1l0.3,0.2c0,0,0.4-0.7,1.3-2
				c0.9-1.3,2-3.3,3.3-5.8c0.6-1.3,1.4-2.7,2.1-4.3c0.7-1.6,1.4-3.3,2.1-5.3c1.4-3.8,2.7-8.2,3.8-13c1-4.9,1.8-10.2,2.2-15.9
				c0.4-5.7,0.4-11.7,0.1-17.9c-0.4-6.2-1.2-12.6-2.3-18.9c-1.1-6.4-2.4-12.9-3.8-19.3c-2.9-12.8-6.2-25.5-8.8-37.5
				c-2.7-12-4.6-23.3-5.6-33c-0.5-4.9-0.7-9.4-0.8-13.4c-0.1-4,0-7.5,0.2-10.3c0.2-2.9,0.4-5.1,0.6-6.6c0.2-1.5,0.3-2.3,0.3-2.3
				L73.4-43.2z"/>
		</g>
		<g>
			<path fill="#683E1F" d="M86.6,197.1c0,0,0.4-0.7,1.1-1.9c0.4-0.6,0.8-1.3,1.3-2.2c0.5-0.9,1-1.8,1.6-2.9c0.6-1.1,1.2-2.2,1.8-3.5
				c0.6-1.2,1.2-2.6,1.8-4c1.2-2.8,2.4-5.8,3.5-8.9c1.1-3.1,2.2-6.1,3-9.1c0.3-1.5,0.7-2.9,0.8-4.3c0.1-0.7,0.2-1.4,0.3-2
				c0.1-0.7,0.1-1.3,0.2-1.9c0.1-1.2,0.2-2.3,0.2-3.3c0-1,0-1.9,0-2.6c0-1.4-0.1-2.3-0.1-2.3l-0.3,0c0,0-0.3,0.8-0.7,2.1
				c-0.2,0.7-0.5,1.5-0.7,2.4c-0.3,0.9-0.6,2-0.9,3.2c-0.6,2.3-1.4,5-2.1,7.9c-0.4,1.4-0.7,3-1,4.5c-0.3,1.5-0.7,3.1-1.1,4.6
				c-0.9,3.1-1.8,6.1-2.8,9c-1,2.8-2,5.5-2.9,7.7c-0.9,2.2-1.7,4.1-2.3,5.4c-0.6,1.3-0.9,2-0.9,2L86.6,197.1z"/>
		</g>
		<g>
			<path fill="#683E1F" d="M50.3,149c0,0,0.3,0.7,0.8,1.8c0.3,0.6,0.6,1.3,0.9,2.1c0.3,0.8,0.7,1.7,1.1,2.7c0.4,1,0.8,2.1,1.1,3.3
				c0.4,1.2,0.8,2.4,1.2,3.7c0.4,1.3,0.7,2.6,1.1,4c0.3,1.4,0.6,2.8,0.9,4.2c0.2,1.4,0.5,2.8,0.6,4.2c0.2,1.4,0.3,2.8,0.5,4.1
				c0.3,2.6,0.7,5.1,1,7.2c0.1,0.5,0.2,1,0.2,1.5c0.1,0.5,0.1,0.9,0.2,1.4c0.1,0.9,0.3,1.6,0.4,2.3c0.2,1.3,0.4,2,0.4,2l0.3,0
				c0,0,0.2-0.7,0.5-2c0.1-0.6,0.3-1.4,0.4-2.3c0.1-0.9,0.2-1.9,0.3-3c0-0.6,0.1-1.1,0.1-1.7c0-0.6,0-1.2,0-1.8c0-1.3-0.2-2.6-0.3-4
				c-0.2-1.4-0.5-2.8-0.8-4.2c-0.3-1.4-0.7-2.8-1.1-4.3c-0.4-1.4-0.8-2.8-1.3-4.2c-0.4-1.4-1-2.7-1.4-4c-0.5-1.3-1-2.5-1.5-3.7
				c-0.5-1.1-1-2.2-1.5-3.2c-0.5-1-1-1.9-1.4-2.6c-0.4-0.8-0.8-1.5-1.1-2c-0.7-1.1-1-1.7-1-1.7L50.3,149z"/>
		</g>
		<g>
			<path fill="#683E1F" d="M78.6-136.2c0,0,2.8-4.9,7.1-12.2c1.1-1.8,2.2-3.8,3.4-5.9c1.2-2.1,2.5-4.4,3.3-7.1
				c0.4-1.3,0.7-2.7,0.7-4.3c0-1.5-0.3-3.1-1.1-4.5c-0.2-0.4-0.5-0.7-0.7-1c-0.2-0.2-0.2-0.3-0.4-0.4c-0.1-0.1-0.3-0.3-0.4-0.4
				c-0.6-0.5-1.1-1-1.6-1.4c-0.5-0.4-0.9-0.9-1.2-1.3c-0.1-0.2-0.3-0.4-0.4-0.7l0,0l0,0c0-0.1,0,0.1,0,0l0-0.1l-0.1-0.3
				c0-0.1,0-0.2,0-0.3c-0.1-1,0.3-2.1,0.9-3.2c0.6-1.1,1.5-2.1,2.4-3.2c1.7-2.1,3.4-4.2,5.2-6.1c1.7-2,3.4-3.8,5-5.6
				c1.6-1.7,3.2-3.3,4.7-4.8c1.5-1.5,2.9-2.8,4.2-3.9c0.6-0.6,1.2-1.1,1.8-1.6c0.5-0.5,1.1-1,1.5-1.4c1.9-1.6,2.9-2.6,2.9-2.6
				l-0.2-0.3c0,0-0.3,0.2-0.9,0.5c-0.6,0.3-1.5,0.8-2.5,1.4c-1.1,0.6-2.4,1.4-3.8,2.4c-1.4,1-3,2.1-4.7,3.5
				c-1.7,1.3-3.5,2.8-5.2,4.5c-1.8,1.7-3.6,3.5-5.4,5.6c-1.7,2.1-3.5,4.2-5.1,6.6c-0.8,1.1-1.7,2.3-2.4,3.7c-0.7,1.4-1.3,3-1,4.9
				c0,0.2,0.1,0.5,0.2,0.7l0.1,0.2l0,0.1c0,0,0.1,0.2,0,0.1l0,0l0,0.1c0.2,0.4,0.4,0.8,0.7,1.2c0.5,0.7,1.1,1.2,1.7,1.7
				c1.2,0.9,2.1,1.6,2.8,2.6c1.3,2,1.2,4.6,0.5,7.1c-0.6,2.5-1.7,4.7-2.8,6.9c-1.1,2.2-2.1,4.2-3.1,6.1c-3.8,7.6-6.3,12.6-6.3,12.6
				L78.6-136.2z"/>
		</g>
	</g>
</symbol>
<symbol  id="New_Symbol_23" viewBox="-23 -28.4 45.9 57.3">
	<path fill="#83C6BA" stroke="#B1E8E0" stroke-width="2" stroke-miterlimit="10" d="M-2.3-11.7c-10,2-18.6,9.6-19.7,17.7
		c-0.1,0.4,0.4,0.8,0.8,0.6C-14.9,4.1-5.5-2.9,0-8.2C-2.4-2.6-4.8,6.1-4,12.2c0.8,6.1,4,13.4,9.3,15.6c0.6,0.2,1.3,0,1.1-0.6
		C3.1,15.7,0.8,3.1,4.1-7.5C7.2,1,13.5,11.9,20.8,17.3c0.5,0.4,1.2,0,1.2-0.7C21.4,9.3,12.4-6.8,6.4-9.8l6.9-11.4H-4.3L-2.3-11.7z"
		/>
	<path fill="#83C6BA" d="M-7.4-14.8c0.2,0,2.2,1.2,3.6,2.1c0.9,0.6,2,0.6,3,0.1C0.3-13.3,2-14,3-13.9c1.1,0.2,2.2,1.8,2.8,2.9
		c0.4,0.7,1.1,0.9,1.8,0.6l8.5-3.8l1.9-9.3l-7-5l-18.4,4V-14.8z"/>
</symbol>
<g>
	<defs>
		<rect id="SVGID_1_" x="-0.3" y="-0.3" width="500.6" height="500.6"/>
	</defs>
	<clipPath id="SVGID_2_">
		<use xlink:href="#SVGID_1_"  overflow="visible"/>
	</clipPath>
	<rect x="-9.4" y="-10.4" clip-path="url(#SVGID_2_)" fill="#B1E8E0" width="514.4" height="452.8"/>
	<rect x="-9.4" y="268.1" clip-path="url(#SVGID_2_)" fill="#83C6BA" width="514.4" height="285.4"/>
	<g clip-path="url(#SVGID_2_)">
		
			<use xlink:href="#New_Symbol_23"  width="45.9" height="57.3" id="XMLID_67_" x="-23" y="-28.4" transform="matrix(1.0289 0 0 -1.0289 186.7802 360.3282)" overflow="visible"/>
	</g>
	<g clip-path="url(#SVGID_2_)">
		
			<use xlink:href="#New_Symbol_23"  width="45.9" height="57.3" id="XMLID_66_" x="-23" y="-28.4" transform="matrix(1.0289 0 0 -1.0289 150.0838 411.8267)" overflow="visible"/>
	</g>
	<g clip-path="url(#SVGID_2_)">
		
			<use xlink:href="#New_Symbol_11"  width="491.7" height="541.9" id="XMLID_63_" x="-245.8" y="-271" transform="matrix(1.0289 0 0 -1.0289 226.405 264.1513)" overflow="visible"/>
	</g>
	<g transform="matrix(1 0 0 1 -7.629395e-06 0)" clip-path="url(#SVGID_2_)">
		
			<use xlink:href="#New_Symbol_23"  width="45.9" height="57.3" id="XMLID_62_" x="-23" y="-28.4" transform="matrix(-0.7558 0.5567 -0.5567 -0.7558 119.6601 367.0502)" overflow="visible"/>
	</g>
	<g transform="matrix(1 0 0 1 0 0)" clip-path="url(#SVGID_2_)">
		
			<use xlink:href="#New_Symbol_23"  width="45.9" height="57.3" id="XMLID_61_" x="-23" y="-28.4" transform="matrix(-0.8633 7.293950e-02 -7.293950e-02 -0.8633 449.8824 407.1296)" overflow="visible"/>
	</g>
	<g transform="matrix(1 0 0 1 3.051758e-05 0)" clip-path="url(#SVGID_2_)">
		
			<use xlink:href="#New_Symbol_23"  width="45.9" height="57.3" id="XMLID_58_" x="-23" y="-28.4" transform="matrix(0.9851 0.2969 0.2969 -0.9851 206.0518 499.1682)" overflow="visible"/>
	</g>
	<g clip-path="url(#SVGID_2_)">
		
			<use xlink:href="#New_Symbol_23"  width="45.9" height="57.3" id="XMLID_57_" x="-23" y="-28.4" transform="matrix(1.0289 0 0 -1.0289 179.1766 501.0172)" overflow="visible"/>
	</g>
	<g clip-path="url(#SVGID_2_)">
		<path fill="#FFFFFF" d="M270.1,201.5c0,0-9.9,5.9-10.6,20.4"/>
		<path fill="#231F20" d="M270.2,201.6c0,0-1.2,0.9-2.7,2.5c-0.4,0.4-0.7,0.9-1.1,1.4c-0.4,0.5-0.8,1-1.1,1.6
			c-0.2,0.3-0.4,0.6-0.6,0.9c-0.2,0.3-0.3,0.6-0.5,0.9c-0.4,0.6-0.6,1.3-1,1.9c-0.3,0.7-0.5,1.4-0.8,2c-0.2,0.7-0.4,1.4-0.6,2
			c-0.2,0.6-0.4,1.3-0.6,1.9c-0.1,0.3-0.2,0.6-0.3,0.9c-0.1,0.3-0.2,0.6-0.2,0.8c-0.1,0.5-0.3,1-0.4,1.4c-0.1,0.4-0.2,0.8-0.3,1.1
			c-0.2,0.6-0.3,1-0.3,1l-0.2,0c0,0-0.1-0.4-0.2-1c0-0.3-0.1-0.7-0.1-1.2c0-0.5,0-1,0-1.6c0-0.6,0.1-1.2,0.2-1.9
			c0.1-0.7,0.3-1.3,0.5-2c0.2-0.7,0.5-1.4,0.8-2.1c0.4-0.7,0.7-1.4,1.1-2c0.4-0.7,0.8-1.3,1.2-1.9c0.2-0.3,0.4-0.6,0.6-0.9
			c0.2-0.3,0.5-0.6,0.7-0.9c0.4-0.6,0.9-1.1,1.4-1.5c0.5-0.5,0.9-0.9,1.3-1.3c1.7-1.5,3.1-2.2,3.1-2.2L270.2,201.6z"/>
	</g>
	<path clip-path="url(#SVGID_2_)" fill="#83C6BA" d="M138.5,256c0,0-6.4-2.7-11.9-7.3c-1.6-1.4-3.3-2.6-4.7-3.7
		c1.2-1.6,2-3.4,1.8-5.4c0,0-3.1-4.3-3.3-7.5l1.4-0.3c0.1-6.4-1.6-12.6-4.2-17.7c3.5,3.5,7.9,8.9,10.2,15.3c0,0-2.4,6.3-0.3,6.9
		c0.7,0.2,1.4-1.1,2-2.9c0.4,1.1,0.7,2.6,0.7,4.6c0,0.4,0.3,0.8,0.8,0.8c1-0.1,2.6-1.8,1.7-6.9c-0.7-4-3.2-6-3.2-6s-3-8.7-9.3-15.6
		c0.4-0.8,0.6-1.3,0.6-1.3c-4.8-4.5-9.4-5.4-11.8-5.6c-0.7-0.4-1.3-0.7-2-0.9l-0.3-1.1c1.7-1.6,2.6-3.6,2.2-5.5
		c-0.7-3.5-5.3-5.5-10.3-4.4c-5,1.1-8.6,4.9-8,8.5c0.6,3.2,4.5,5.1,9,4.6l1,1.3c-1.3,2.2-0.5,6.8-2.4,11.3c1.7,1.2,3.3,1.6,4.9,1.7
		l0.9,3c0,0-6.6,4.7-10.7,6.2c0,0-6.3-2.4-6.9-0.3c-0.2,0.7,1.1,1.4,2.9,1.9c-1.1,0.4-2.5,0.7-4.6,0.7c-0.4,0-0.8,0.3-0.8,0.8
		c0.1,1,1.8,2.6,6.9,1.7c4-0.7,6-3.2,6-3.2l8.9-4.5c0.3,3.4,0.2,6.1,0,7.8c-1.9,2.1-4.6,6.7-6,16.3c0,0,2.1,0.6,4.6,0.7l4.7,18.2
		c0,0-3.3,3.3-9.9,3.6c-0.8,0-1.5,0.4-2,0.9c0,0-0.1,0.1-0.1,0.1c-0.6,0.7-0.2,1.8,0.7,2c2.4,0.4,6.8,0.9,9.8-0.3c0,0,6.5,0,7.5-1
		c0,0-0.5-5.1-2.9-7.3c0,0-2.2-6.2-2.4-13c0-1.3-0.1-2.7-0.3-3.9c1.2-0.5,2.3-1.2,3.1-2.3c0,0,0.1-0.7,0.3-1.7
		c0.8,1.4,1.7,3,2.9,4.7c0,0,0.7-0.4,1.6-1l20.5,10.8c0,0,0.2,4.9-4.2,10.3c-0.5,0.6-0.8,1.4-0.7,2.2c0,0.1,0,0.1,0,0.2
		c0.2,1,1.3,1.4,2.1,0.8c2-1.6,5.5-4.7,6.7-7.9c0,0,4.6-5.1,4.6-6.6C146.3,258.9,141.9,255.7,138.5,256z"/>
	<g clip-path="url(#SVGID_2_)">
		<path fill="#F0CAA2" d="M313.7,525.8c0.3,2.5,0.6,4.9,1,7.4c8.7,0,17.4,0,26.1,0c0.7-16,2.6-31.9,5.7-47.5
			c-11.2,0.1-22.3-1.6-32.9-5.1C311.9,495.6,312,510.8,313.7,525.8z"/>
		<g>
			<path fill="#C2986B" d="M312.6,525.8c0.3,2.6,0.6,5.1,1,7.7c0.1,0.5,0.6,0.8,1.1,0.8c8.7,0,17.4,0,26.1,0c0.6,0,1.1-0.5,1.1-1.1
				c0.7-15.9,2.6-31.6,5.7-47.2c0.1-0.7-0.3-1.4-1.1-1.4c-11.1,0.1-22.1-1.6-32.7-5c-0.7-0.2-1.3,0.4-1.4,1.1
				C310.8,495.6,310.9,510.8,312.6,525.8c0.2,1.4,2.4,1.4,2.2,0c-1.7-15-1.8-30.2-0.2-45.2c-0.5,0.4-0.9,0.7-1.4,1.1
				c10.8,3.5,21.9,5.2,33.2,5.1c-0.4-0.5-0.7-0.9-1.1-1.4c-3.1,15.8-5.1,31.7-5.7,47.8c0.4-0.4,0.7-0.7,1.1-1.1
				c-8.7,0-17.4,0-26.1,0c0.4,0.3,0.7,0.5,1.1,0.8c-0.4-2.4-0.7-4.7-0.9-7.1C314.6,524.4,312.4,524.4,312.6,525.8z"/>
		</g>
	</g>
	<g clip-path="url(#SVGID_2_)">
		<path fill="#F0CAA2" d="M450.9,533c1.1,1.9,2.1,3.8,3.2,5.7c6.9-0.1,13.7-0.5,20.5-1.2c-1.2-19-9.1-37.5-22-51.4
			c-5.8-6.2-13-12.2-17.1-19.4c-10.7,4.1-21.5,7.9-32.5,11.3C422.3,492.9,438.7,511.8,450.9,533z"/>
		<g>
			<path fill="#C2986B" d="M449.9,533.5c1.1,1.9,2.1,3.8,3.2,5.7c0.2,0.3,0.6,0.6,1,0.5c6.9-0.1,13.7-0.6,20.5-1.2
				c0.6-0.1,1.1-0.5,1.1-1.1c-0.9-13.7-5.1-27.1-12.2-38.8c-3.5-5.8-7.7-11-12.4-15.8c-5.2-5.3-10.8-10.3-14.6-16.8
				c-0.2-0.4-0.8-0.7-1.2-0.5c-10.7,4.1-21.5,7.9-32.5,11.3c-0.7,0.2-1.2,1.3-0.5,1.8C421.5,493.7,437.7,512.4,449.9,533.5
				c0.7,1.2,2.6,0.1,1.9-1.1c-12.3-21.3-28.7-40.1-48.1-55.2c-0.2,0.6-0.3,1.2-0.5,1.8c11-3.4,21.8-7.2,32.5-11.3
				c-0.4-0.2-0.8-0.3-1.2-0.5c3.4,5.8,8.2,10.4,12.8,15.1c4.9,5,9.5,10.1,13.3,16c7.5,11.7,11.9,25.2,12.8,39.1
				c0.4-0.4,0.7-0.7,1.1-1.1c-6.8,0.7-13.7,1.1-20.5,1.2c0.3,0.2,0.6,0.4,1,0.5c-1-1.9-2.1-3.8-3.2-5.7
				C451.1,531.2,449.2,532.3,449.9,533.5z"/>
		</g>
	</g>
	<g clip-path="url(#SVGID_2_)">
		<path fill="#404666" d="M327.5,343.3c33.5,1.7,67.2,19.9,98.9,9.3c0.8,10.8,1.6,21.7,2.4,32.5C440.1,407,458,426,471,446.9
			c-5.6,4.4-11.7,8.3-18.2,11.4c1.8,2,3.6,4.1,5.3,6.1c-8.1,5.4-17.3,9.3-26.9,11.3c0.3,0.5,0.6,1,0.9,1.4
			c-24.5,12-51.6,19.1-79,20.9c-1.1-2.5-2.2-4.9-3.4-7.4c-13,0.9-26.3-0.6-38.7-4.4c0.4-3.2,0.8-6.5,1.2-9.7
			c-4.7-0.5-9.3-1.4-13.8-2.5c3-28.1,27.1-122.4,27.3-130.9C326.4,343.2,326.9,343.2,327.5,343.3z"/>
		<g>
			<path fill="#6E7DAA" d="M327.5,344.4c32.9,1.8,66.2,20,99.2,9.3c-0.5-0.4-0.9-0.7-1.4-1.1c0.7,9.9,1.5,19.7,2.2,29.6
				c0.2,2.4,0.4,3.7,1.6,5.8c1,1.8,2,3.6,3,5.3c2.2,3.8,4.6,7.4,7.1,11.1c10,14.6,21.4,28.1,30.8,43.1c0.1-0.4,0.1-0.9,0.2-1.3
				c-5.6,4.4-11.6,8.1-18,11.2c-0.7,0.3-0.7,1.2-0.2,1.7c1.8,2,3.6,4.1,5.3,6.1c0.1-0.6,0.1-1.2,0.2-1.7
				c-8.1,5.4-17.1,9.2-26.6,11.2c-0.7,0.1-1,1-0.7,1.6c0.3,0.5,0.6,1,0.9,1.4c0.1-0.5,0.3-1,0.4-1.5c-24.5,11.9-51.2,18.9-78.4,20.8
				c0.3,0.2,0.6,0.4,1,0.5c-1.1-2.5-2.2-4.9-3.4-7.4c-0.1-0.3-0.6-0.6-1-0.5c-13,0.8-26-0.6-38.4-4.4c0.3,0.4,0.5,0.7,0.8,1.1
				c0.4-3.2,0.8-6.5,1.2-9.7c0.1-0.6-0.6-1-1.1-1.1c-4.6-0.5-9.1-1.4-13.5-2.5c0.3,0.4,0.5,0.7,0.8,1.1c2-18.3,6.6-36.5,10.6-54.5
				c4.5-20,9.2-40,13.6-60c1.2-5.3,2.9-10.9,3.1-16.4c-0.4,0.4-0.7,0.7-1.1,1.1C326.4,344.3,326.9,344.3,327.5,344.4
				c1.4,0.1,1.4-2.1,0-2.2c-0.6,0-1.1-0.1-1.7-0.1c-0.6,0-1.1,0.5-1.1,1.1c-0.1,4.5-1.6,9.2-2.5,13.6c-1.9,8.9-4,17.9-6,26.8
				c-4.9,21.3-9.9,42.7-14.2,64.1c-1.8,8.7-3.5,17.5-4.5,26.3c-0.1,0.5,0.4,1,0.8,1.1c4.6,1.2,9.3,2,14.1,2.6
				c-0.4-0.4-0.7-0.7-1.1-1.1c-0.4,3.2-0.8,6.5-1.2,9.7c-0.1,0.5,0.4,0.9,0.8,1.1c12.6,3.8,25.8,5.3,39,4.5c-0.3-0.2-0.6-0.4-1-0.5
				c1.1,2.5,2.2,4.9,3.4,7.4c0.1,0.3,0.6,0.6,1,0.5c27.6-1.9,54.7-9,79.6-21.1c0.5-0.3,0.7-1,0.4-1.5c-0.3-0.5-0.6-1-0.9-1.4
				c-0.2,0.5-0.4,1.1-0.7,1.6c9.7-2.1,18.9-6,27.1-11.5c0.6-0.4,0.7-1.2,0.2-1.7c-1.8-2-3.6-4.1-5.3-6.1c-0.1,0.6-0.1,1.2-0.2,1.7
				c6.5-3.2,12.7-7.1,18.4-11.6c0.4-0.3,0.4-1,0.2-1.3c-9.1-14.6-20.2-27.9-30-42c-2.4-3.5-4.8-7-7-10.7c-1.1-1.7-2.1-3.5-3.1-5.3
				c-1.3-2.3-2-4.1-2.2-6.7c-0.7-9.7-1.5-19.4-2.2-29.1c-0.1-0.7-0.7-1.3-1.4-1.1c-16.2,5.3-33.2,3.1-49.5-0.3
				c-16.3-3.5-32.4-8.1-49.1-9C326.1,342.1,326.1,344.3,327.5,344.4z"/>
		</g>
	</g>
	<g clip-path="url(#SVGID_2_)">
		
			<path fill="#F79838" stroke="#CC6632" stroke-width="1.7422" stroke-linecap="round" stroke-linejoin="round" stroke-miterlimit="10" d="
			M279.4,169.2c0,0-3.4,2.2-8.4,18.8c0,0,9.2,9.7,24.1,1.1c0,0-2,6.4-3.1,11.4c0,0,23.1,4.7,22.8-20.9L279.4,169.2z"/>
		
			<path fill="#F79838" stroke="#CC6632" stroke-width="1.7422" stroke-linecap="round" stroke-linejoin="round" stroke-miterlimit="10" d="
			M345.1,171.4c0,0,20-58.6,33.5-52.7c12.5,5.5,12.4,18.5,8,29.1c0,0,6.6,2,18,4.2c0,0-7.4,10.5-12.4,12.2c0,0,8.3,1.7,12.4,3.8
			c0,0-1.7,10.7-18.6,10.3l1.1,7.5C387.2,185.8,366.5,198.1,345.1,171.4z"/>
	</g>
	<g clip-path="url(#SVGID_2_)">
		<g>
			<path fill="#6E7DAA" d="M329.7,387.2c0,0-0.3,1.8-0.8,4.8c-0.5,3.1-1.1,7.5-1.6,12.8c-0.2,2.7-0.4,5.5-0.4,8.6
				c0,3,0.2,6.2,0.6,9.5c0.4,3.3,1,6.7,1.8,10.1c0.4,1.7,0.9,3.4,1.4,5.1c0.5,1.7,1,3.4,1.6,5.1c1.1,3.4,2.3,6.7,3.5,10
				c1.2,3.3,2.4,6.5,3.7,9.6c1.2,3.1,2.4,6.1,3.6,8.9c0.6,1.4,1.2,2.8,1.7,4.1c0.6,1.3,1.1,2.6,1.7,3.8c1.1,2.4,2.1,4.7,3,6.6
				c0.9,2,1.7,3.7,2.4,5.1c1.3,2.8,2.1,4.4,2.1,4.4l-0.2,0.1c0,0-1-1.5-2.6-4.2c-0.8-1.3-1.8-3-2.8-4.9c-1-1.9-2.2-4.1-3.4-6.5
				c-1.2-2.4-2.5-5-3.8-7.8c-1.3-2.8-2.5-5.8-3.8-8.9c-2.4-6.3-4.7-13-6.7-19.9c-0.5-1.7-1-3.4-1.5-5.1c-0.5-1.7-0.9-3.5-1.3-5.2
				c-0.7-3.5-1.3-6.9-1.5-10.3c-0.6-6.7-0.3-13,0.3-18.3c0.7-5.3,1.4-9.7,2-12.8c0.6-3.1,1-4.8,1-4.8L329.7,387.2z"/>
		</g>
		<g>
			<path fill="#6E7DAA" d="M312.1,474.2c0,0-0.1-0.5-0.3-1.5c-0.2-0.9-0.4-2.3-0.6-3.9c-0.1-0.8-0.2-1.7-0.3-2.6
				c-0.1-0.9-0.2-1.9-0.3-2.9c-0.1-2-0.2-4.2-0.3-6.4c0-2.2-0.1-4.3,0-6.4c0.1-1,0.2-2,0.3-2.9c0.1-0.9,0.3-1.8,0.5-2.6
				c0.7-3.2,1.5-5.2,1.5-5.2l0.2,0c0,0,0,0.6,0.1,1.5c0,1,0,2.3,0,3.9c-0.1,1.6-0.1,3.5-0.3,5.5c-0.1,1-0.2,2-0.3,3.1
				c-0.1,1-0.2,2.1-0.3,3.2c-0.1,2.1-0.2,4.3-0.2,6.3c0,2,0,3.9,0.1,5.5c0,1.6,0.1,2.9,0.2,3.9c0.1,0.9,0.1,1.5,0.1,1.5L312.1,474.2
				z"/>
		</g>
		<g>
			<path fill="#6E7DAA" d="M417.2,449.5c0,0,0.2,0.4,0.4,1.1c0.3,0.7,0.7,1.6,1.2,2.8c1.1,2.3,2.6,5.2,4.3,8.1
				c0.4,0.7,0.9,1.4,1.4,2.1c0.5,0.7,0.9,1.3,1.3,2c0.8,1.3,1.5,2.6,2.2,3.6c0.6,1.1,1.1,2,1.4,2.7c0.3,0.7,0.5,1.1,0.5,1.1
				l-0.2,0.1c0,0-1.5-1-3.2-2.9c-0.4-0.5-0.9-1-1.3-1.6c-0.5-0.6-0.9-1.2-1.3-1.9c-0.8-1.4-1.6-2.9-2.3-4.4c-0.7-1.5-1.4-3.1-2-4.5
				c-0.3-0.7-0.6-1.4-0.8-2.1c-0.2-0.7-0.5-1.3-0.6-1.9c-0.4-1.2-0.7-2.2-0.9-2.9c-0.2-0.7-0.3-1.1-0.3-1.1L417.2,449.5z"/>
		</g>
		<g>
			<path fill="#6E7DAA" d="M421.7,399.5c0,0,0.4,1.1,1,2.9c0.3,0.9,0.7,2.1,1.2,3.4c0.5,1.3,1,2.7,1.6,4.3c0.6,1.6,1.3,3.3,2.1,5
				c0.7,1.8,1.6,3.6,2.5,5.6c0.9,1.9,1.8,3.9,2.8,5.8c1,2,2.1,3.9,3.1,5.9c1.1,1.9,2.2,3.9,3.4,5.8c1.1,1.9,2.3,3.7,3.4,5.5
				c1.1,1.8,2.2,3.5,3.2,5.1c1,1.6,2,3.2,3,4.6c0.9,1.4,1.8,2.7,2.5,3.8c0.8,1.1,1.4,2.1,2,3c1.1,1.6,1.7,2.6,1.7,2.6l-0.2,0.1
				c0,0-0.8-0.8-2.2-2.3c-0.7-0.7-1.5-1.6-2.4-2.7c-0.9-1-1.9-2.2-2.9-3.6c-0.5-0.7-1.1-1.4-1.6-2.1c-0.5-0.7-1.1-1.5-1.7-2.3
				c-1.2-1.6-2.3-3.3-3.4-5.1c-1.1-1.8-2.2-3.7-3.3-5.7c-1.1-2-2.1-4-3.2-6c-1-2-2-4.1-2.9-6.1c-1-2-1.8-4-2.6-6
				c-0.8-2-1.6-3.9-2.3-5.7c-0.7-1.8-1.3-3.5-1.8-5.2c-0.6-1.6-1-3.1-1.4-4.4c-0.4-1.3-0.8-2.5-1-3.4c-0.5-1.9-0.8-3-0.8-3
				L421.7,399.5z"/>
		</g>
	</g>
	<path clip-path="url(#SVGID_2_)" fill="#F0CAA2" stroke="#C2986B" stroke-width="2.2131" stroke-miterlimit="10" d="M299,242.3
		c-8.2,17.6-20.7,26.1-20.7,26.1c-3.9-16.8-3.6-40-3.6-40c7.2-4.2,7.2-11.6,7.5-16.8c0.2-5,0.2-4.4,1.4-9.4c0.9-4,3.7-9.3,3.9-11.6
		c0.3-3.6-3.3-6.1-6.6-4.7c-8.3,3.7-10.7,13.3-10.7,13.3c-7.9-39.1-22.9-52.1-27.7-49.9c-3.6,1.6-1.3,12.4,4.8,22.6
		c6,10.2,7.2,22,7.2,22s-0.5,11.4-0.9,25.9l-12.8-1.6c0,0,6.5,8.1,12.5,13.6c-0.3,17.7-0.2,36.6,1.2,45.1c1.9,11,6.9,20.3,10.5,25.9
		c2.3,3.5,6.6,5.1,10.5,3.7c27.6-9.3,45.6-40.8,45.6-40.8L299,242.3z"/>
	<path clip-path="url(#SVGID_2_)" fill="#F0CAA2" stroke="#C2986B" stroke-width="2.2131" stroke-miterlimit="10" d="M251.3,187.4
		c-3.2,2-11.9,9.2-17.2,30.2c-0.6,2.6,0.8,5.2,3.3,6.1c8.6,3.1,27.5,8.2,31.8-3.6c5-13.5-11.4-28.8-15.7-32.5
		C252.9,187.1,252,187,251.3,187.4z"/>
	<g clip-path="url(#SVGID_2_)">
		<path fill="#8DC63F" d="M322.3,239.1c-1.3-14.2-1-28.5,1.1-42.6c-7.2,1.5-13.4,6.8-17.7,12.8c-4.8,6.8-7.9,14.6-11.8,22
			c-2.7,5.2-6,10.2-10.3,14.1c7.5,21,27.3,37.2,49.5,40C327.4,270.6,323.8,254.9,322.3,239.1z"/>
		<g>
			<path fill="#648C25" d="M323.4,239.1c-1.3-14.1-1-28.3,1.1-42.3c0.1-0.8-0.5-1.6-1.4-1.4c-23.4,5.4-25,34.9-40.4,49.2
				c-0.3,0.3-0.4,0.7-0.3,1.1c7.8,21.5,27.6,37.8,50.3,40.8c0.7,0.1,1.7-0.5,1.4-1.4C328.5,270.3,324.9,254.9,323.4,239.1
				c-0.1-1.4-2.4-1.4-2.2,0c1.6,16,5.1,31.6,10.8,46.6c0.5-0.5,0.9-0.9,1.4-1.4c-21.9-2.9-41.2-18.5-48.7-39.3
				c-0.1,0.4-0.2,0.7-0.3,1.1c8-7.5,12-17.6,16.9-27.1c4.8-9.4,11.6-19,22.5-21.5c-0.5-0.5-0.9-0.9-1.4-1.4
				c-2.1,14.2-2.5,28.6-1.1,42.9C321.3,240.5,323.5,240.5,323.4,239.1z"/>
		</g>
	</g>
	<g clip-path="url(#SVGID_2_)">
		<path fill="#8DC63F" d="M391.7,226.7c-2.2-3.5-4.4-7-6.7-10.4c-7.7-11.2-16.7-22.2-28.9-28c-12.3-5.9-28.5-5.3-37.9,4.4
			c-1.7,1.7-3,3.6-4.1,5.6c0-0.1,0-0.1-0.1-0.2c-0.1,0.3-0.2,0.6-0.3,0.9c-2.1,4-3.3,8.4-3.8,13c-2.2,8.6-3.7,17.4-4.5,26.3
			c-0.8,9.2-0.8,18.8,2.9,27.2c1.9,4.2,4.8,7.9,8.5,10.7c1.2,7.5,2.4,15.1,3.1,22.7c2.2,21.6,1.4,44.3-7.3,64.1
			c-0.6,1.3-0.4,2.8,0.5,3.9c0.6,0.8,1.4,1.4,2.1,2c4.8,3.6,11,4.4,17,4.9c32,2.4,64.5-2.8,94.2-14.8c1.6-0.6,2.6-2.2,2.6-3.9
			C428.3,310,415.3,265.2,391.7,226.7z"/>
		<g>
			<path fill="#648C25" d="M392.7,226.2c-7.6-12.3-16-25.1-27.8-33.8c-10.1-7.5-23.4-11.3-35.7-7.5c-6.9,2.1-12.5,6.7-16.1,12.9
				c0.7,0.1,1.3,0.2,2,0.3c0-0.1,0-0.1-0.1-0.2c-0.3-1.1-1.8-1-2.1,0c-1.1,3.3-2.6,6.2-3.4,9.6c-0.9,3.9-1.6,7.8-2.4,11.7
				c-1.5,7.5-2.6,15.1-3.1,22.7c-0.4,6.9-0.2,14,2,20.6c1,3,2.4,5.9,4.2,8.5c0.9,1.2,1.8,2.3,2.8,3.3c0.6,0.6,1.2,1.1,1.8,1.7
				c1,0.8,1,1.1,1.3,2.4c1.6,7.6,2.4,15.5,3.1,23.2c0.7,7.5,1,15,0.7,22.5c-0.3,7.3-1.1,14.7-2.7,21.8c-0.8,3.5-1.7,6.9-2.9,10.2
				c-0.6,1.9-1.4,3.7-2.1,5.5c-0.5,1.2-1,2.3-0.8,3.7c0.4,2.5,2.8,4.3,4.8,5.5c2.8,1.8,6.1,2.7,9.4,3.3c6.8,1.2,13.8,1.3,20.7,1.4
				c14.9,0.1,29.8-1.4,44.4-4.4c7.5-1.6,15-3.5,22.3-5.9c3.5-1.1,7-2.4,10.5-3.7c2.3-0.9,5.1-1.5,6.3-4c1.2-2.5,0.5-6,0.4-8.6
				c-0.2-3.8-0.4-7.7-0.7-11.5c-0.6-6.8-1.5-13.7-2.6-20.5C421.2,284.9,409.6,254,392.7,226.2c-0.7-1.2-2.7-0.1-1.9,1.1
				c14.2,23.3,24.6,48.9,30.8,75.6c3.1,13.4,5.1,27.1,5.9,40.8c0.2,3.4,0.4,6.8,0.4,10.2c0.1,2.3-0.4,3.6-2.6,4.5
				c-1.7,0.7-3.4,1.3-5.2,2c-6.7,2.4-13.4,4.6-20.3,6.3c-13.9,3.6-28.2,5.8-42.6,6.4c-7.1,0.3-14.2,0.3-21.3-0.1
				c-6.5-0.4-13.9-0.6-19.4-4.5c-2.1-1.5-3.6-3-2.5-5.7c0.5-1.3,1.1-2.6,1.6-4c1.2-3.2,2.2-6.4,3-9.7c1.6-6.4,2.6-13,3.1-19.6
				c1.1-13.8,0-27.6-1.9-41.2c-0.3-2.2-0.6-4.4-1-6.6c-0.3-1.7-0.2-4.1-0.9-5.7c-0.6-1.3-2.3-2.2-3.3-3.2c-1.3-1.3-2.4-2.7-3.4-4.2
				c-4.3-6.8-5.3-15.1-5.1-23c0.2-8.3,1.3-16.7,3-24.8c0.8-3.9,1.7-7.9,2.4-11.8c0.7-3.7,2.4-6.9,3.6-10.4c-0.7,0-1.4,0-2.1,0
				c0,0.1,0,0.1,0.1,0.2c0.3,0.9,1.5,1.1,2,0.3c8.4-14.5,27.2-16.3,41.2-9.3c15.5,7.7,25.7,23.4,34.6,37.7
				C391.5,228.5,393.5,227.4,392.7,226.2z"/>
		</g>
	</g>
	<path clip-path="url(#SVGID_2_)" fill="#F0CAA2" stroke="#C2986B" stroke-width="2.2131" stroke-miterlimit="10" d="M427.6,231.7
		c0,0,25.2,15.4,46.9,43.3c2.2,2.8,2.5,6.8,0.8,10c-4.2,8-15.8,25.4-47.7,57.9l-2.7,9.8c-0.7,2.4-0.9,4.9-0.7,7.3
		c0.6,7,1.2,22.8-4.7,32.2c-3.1,4.9-9.6,5.4-13.3,0.9c-1.3-1.6-2.8-3.8-4.2-6.7c-3.3-6.9-4.4-14.8-3.5-22.5l1.9-16.4
		c0,0-1.9,3.7-3,10.7c-1.1,7-3.5,9.2-5.9,9.2s-11-19.9,11.3-37.9l12.7-9.9c0,0,23.7-19.7,27.1-36.7l-40.8-29.6L427.6,231.7z"/>
	
		<path clip-path="url(#SVGID_2_)" fill="#8DC63F" stroke="#648C25" stroke-width="2.2131" stroke-linecap="round" stroke-linejoin="round" stroke-miterlimit="10" d="
		M392.8,196.9c-2-0.9-4-1.8-6-2.7c-9.2-3.9-20.9-6.5-28.5,0.1c-7.2,6.2-6.8,17.9-2.1,26.2c4.7,8.3,5.5,7.7,12.6,14.1
		c7.4,6.6,15.3,16.6,22.1,31.2c19.1-6,36.1-18.6,47.3-35.2C425.4,216.6,409.9,205.1,392.8,196.9z"/>
	<g clip-path="url(#SVGID_2_)">
		<g>
			<path fill="#CC6632" d="M391.4,171.5c0,0-2.4-0.1-5.8-1.2c-0.9-0.2-1.7-0.6-2.7-1c-0.5-0.2-0.9-0.4-1.4-0.7
				c-0.5-0.2-1-0.5-1.5-0.7c-0.5-0.3-1-0.5-1.5-0.8c-0.5-0.3-1-0.6-1.5-0.9c-1-0.6-1.9-1.4-2.9-2.1c-1-0.7-1.8-1.6-2.7-2.4
				c-0.9-0.8-1.6-1.7-2.4-2.6c-0.7-0.9-1.3-1.8-1.8-2.7c-0.6-0.9-0.9-1.8-1.3-2.6c-0.3-0.8-0.7-1.6-0.9-2.3
				c-0.2-0.7-0.3-1.3-0.5-1.8c-0.2-1-0.3-1.6-0.3-1.6c0-0.1,0-0.2,0.1-0.2c0.1,0,0.1,0,0.1,0.1l0,0c0,0,0.4,0.5,1,1.3
				c0.3,0.4,0.7,0.9,1,1.5c0.4,0.6,0.9,1.2,1.4,1.9c0.2,0.3,0.5,0.7,0.8,1.1c0.2,0.4,0.5,0.8,0.8,1.1c0.6,0.7,1.2,1.6,1.8,2.4
				c0.7,0.8,1.3,1.7,2,2.6c0.7,0.8,1.4,1.7,2.2,2.5c0.8,0.8,1.6,1.6,2.5,2.2c0.4,0.3,0.9,0.7,1.3,1c0.5,0.3,0.9,0.6,1.3,0.9
				c0.9,0.6,1.8,1.1,2.6,1.6c0.9,0.4,1.7,0.9,2.5,1.2c3.1,1.4,5.4,1.9,5.4,1.9c0.1,0,0.1,0.1,0.1,0.2
				C391.5,171.5,391.4,171.5,391.4,171.5z"/>
		</g>
		<g>
			<path fill="#CC6632" d="M393.3,156.6c0,0-0.6,0.1-1.5,0.2c-0.5,0.1-1.1,0.1-1.8,0.1c-0.7,0-1.5,0-2.3,0c-0.9,0-1.8-0.1-2.8-0.2
				c-0.5-0.1-1-0.2-1.5-0.2c-0.5-0.1-1-0.2-1.6-0.3c-0.5-0.1-1.1-0.3-1.6-0.4c-0.5-0.1-1.1-0.3-1.6-0.5c-1.1-0.3-2.2-0.8-3.2-1.3
				c-1.1-0.4-2.1-1.1-3.1-1.6c-1-0.6-1.9-1.2-2.8-1.9c-0.9-0.7-1.6-1.5-2.3-2.2c-0.7-0.7-1.2-1.5-1.7-2.2c-0.5-0.7-1-1.4-1.3-2
				c-0.3-0.6-0.6-1.2-0.8-1.7c-0.4-0.9-0.6-1.5-0.6-1.5c0-0.1,0-0.2,0.1-0.2c0,0,0.1,0,0.1,0l0,0c0,0,0.5,0.4,1.2,1
				c0.4,0.3,0.8,0.7,1.3,1.2c0.5,0.5,1.1,0.9,1.7,1.5c0.3,0.3,0.6,0.6,1,0.9c0.2,0.2,0.3,0.3,0.5,0.5c0.2,0.1,0.4,0.3,0.5,0.4
				c0.7,0.6,1.5,1.2,2.2,1.9c0.8,0.6,1.6,1.3,2.4,2c0.4,0.3,0.9,0.6,1.3,0.9c0.4,0.3,0.9,0.6,1.4,0.9c0.9,0.5,1.9,1.1,2.9,1.5
				c0.5,0.2,1,0.5,1.5,0.6c0.5,0.2,1,0.4,1.5,0.5c1,0.4,1.9,0.6,2.8,0.8c0.9,0.2,1.8,0.4,2.6,0.5c0.8,0.2,1.6,0.2,2.3,0.3
				c0.7,0.1,1.3,0.1,1.8,0.1c1,0,1.5,0,1.5,0c0.1,0,0.2,0.1,0.2,0.1C393.5,156.5,393.4,156.6,393.3,156.6z"/>
		</g>
		<g>
			<path fill="#CC6632" d="M382.3,182.2c0,0-2.3-0.8-5.4-2.9c-0.8-0.5-1.6-1.1-2.4-1.7c-0.4-0.3-0.8-0.7-1.2-1
				c-0.4-0.4-0.9-0.7-1.3-1.1c-0.4-0.4-0.8-0.8-1.3-1.2c-0.4-0.4-0.8-0.9-1.2-1.3c-0.8-0.9-1.6-1.9-2.3-2.9c-0.8-1-1.4-2-2.1-3.1
				c-0.7-1-1.2-2.1-1.8-3.2c-0.5-1.1-0.8-2.1-1.2-3.2c-0.4-1-0.5-2-0.7-2.9c-0.2-0.9-0.3-1.8-0.4-2.5c0-0.8-0.1-1.4-0.1-2
				c0-1.1,0-1.7,0-1.7c0-0.1,0.1-0.1,0.2-0.1c0.1,0,0.1,0,0.1,0.1l0,0c0,0,0.3,0.6,0.7,1.5c0.2,0.5,0.5,1.1,0.7,1.8
				c0.2,0.7,0.6,1.4,1,2.2c0.2,0.4,0.3,0.8,0.5,1.3c0.1,0.2,0.2,0.4,0.3,0.7c0.1,0.2,0.2,0.4,0.3,0.7c0.5,0.9,0.8,1.9,1.3,2.9
				c0.5,1,0.9,2,1.4,3.1c0.5,1,1,2.1,1.7,3.1c0.6,1,1.2,2,2,2.9c0.3,0.5,0.7,0.9,1,1.4c0.4,0.4,0.7,0.9,1.1,1.3
				c0.7,0.9,1.5,1.6,2.2,2.3c0.8,0.7,1.4,1.4,2.1,1.9c2.7,2.3,4.9,3.5,4.9,3.5c0.1,0,0.1,0.1,0.1,0.2
				C382.5,182.2,382.4,182.2,382.3,182.2z"/>
		</g>
	</g>
	<g clip-path="url(#SVGID_2_)">
		<path fill="#CC6632" d="M287.8,185.3c0,0,2-1.1,4.6-3.4c0.7-0.5,1.3-1.2,2-1.9c0.6-0.7,1.4-1.4,2-2.3c0.3-0.4,0.7-0.8,1-1.3
			c0.3-0.4,0.6-0.9,0.9-1.4c0.7-0.9,1.2-1.9,1.7-2.9c0.6-1,1-2,1.4-3c0.4-1,0.7-2.1,1.1-3c0.4-1,0.7-1.9,1-2.8
			c0.2-0.4,0.3-0.9,0.5-1.3c0.1-0.4,0.3-0.9,0.4-1.3c0.3-0.8,0.6-1.5,0.8-2.2c0.2-0.7,0.4-1.3,0.6-1.7c0.3-1,0.6-1.5,0.6-1.5l0,0
			c0-0.1,0.1-0.1,0.2-0.1c0,0,0.1,0.1,0.1,0.1c0,0,0.1,0.6,0.2,1.6c0,0.5,0.1,1.2,0.1,1.9c0,0.7-0.1,1.6-0.1,2.4
			c-0.1,0.9-0.2,1.9-0.4,2.9c-0.2,1-0.5,2.1-0.9,3.1c-0.5,1-0.9,2.1-1.5,3.1c-0.6,1-1.2,2.1-1.9,3c-0.7,1-1.4,2-2.1,2.9
			c-0.4,0.4-0.8,0.9-1.1,1.3c-0.4,0.4-0.8,0.8-1.2,1.2c-0.4,0.4-0.8,0.8-1.2,1.1c-0.4,0.4-0.8,0.7-1.2,1c-0.8,0.6-1.6,1.2-2.3,1.7
			c-2.9,2-5.1,2.8-5.1,2.8c-0.1,0-0.2,0-0.2-0.1C287.7,185.4,287.7,185.3,287.8,185.3z"/>
	</g>
	<g clip-path="url(#SVGID_2_)">
		<path fill="#CC6632" d="M299.5,192.9c0,0,1.7-1.7,3.6-4.7c0.5-0.7,0.9-1.6,1.5-2.5c0.4-0.9,1-1.8,1.4-2.9c0.2-0.5,0.4-1,0.7-1.5
			c0.2-0.5,0.4-1.1,0.6-1.6c0.4-1.1,0.7-2.2,1-3.4c0.3-1.1,0.5-2.3,0.7-3.4c0.2-1.1,0.2-2.3,0.4-3.3c0.1-1.1,0.2-2.1,0.4-3.1
			c0-0.2,0.1-0.5,0.1-0.7c0-0.2,0-0.5,0-0.7c0-0.5,0.1-0.9,0.1-1.4c0.1-0.9,0.2-1.7,0.3-2.4c0-0.7,0.1-1.4,0.2-1.9
			c0.1-1.1,0.2-1.7,0.2-1.7l0,0c0-0.1,0.1-0.1,0.2-0.1c0.1,0,0.1,0,0.1,0.1c0,0,0.2,0.6,0.5,1.6c0.2,0.5,0.3,1.2,0.5,1.9
			c0.2,0.7,0.3,1.6,0.4,2.5c0.1,0.9,0.3,1.9,0.2,3c0,1.1,0,2.2-0.2,3.4c-0.2,1.2-0.4,2.3-0.8,3.5c-0.4,1.2-0.7,2.4-1.1,3.5
			c-0.5,1.2-0.9,2.3-1.4,3.4c-0.3,0.6-0.5,1.1-0.8,1.6c-0.3,0.5-0.6,1-0.9,1.5c-0.3,0.5-0.6,1-0.9,1.5c-0.3,0.5-0.6,0.9-0.9,1.4
			c-0.6,0.8-1.2,1.7-1.8,2.4c-2.3,2.9-4.3,4.3-4.3,4.3c-0.1,0.1-0.2,0-0.2,0C299.4,193,299.4,192.9,299.5,192.9z"/>
	</g>
	<path clip-path="url(#SVGID_2_)" fill="#F0CAA2" stroke="#C2986B" stroke-width="2.2131" stroke-miterlimit="10" d="M379.9,125.2
		c-6.2-26.4-37.6-41.6-70.1-33.9S256,126.6,262.2,153c4.6,19.6,23,33,45.5,35.5l12.2,17.9c1.1,1.6,3.4,2.1,5,0.9
		c6.7-4.6,23.4-15.5,33.1-16.8c1-0.1,1.7-1.1,1.6-2.1l-1.4-13.2C375.1,162.7,384.2,143.7,379.9,125.2z"/>
	
		<ellipse transform="matrix(-0.9904 0.1385 -0.1385 -0.9904 651.8896 215.6395)" clip-path="url(#SVGID_2_)" fill="#231F20" cx="318.4" cy="130.5" rx="4.1" ry="10.6"/>
	
		<ellipse transform="matrix(-0.9904 0.1385 -0.1385 -0.9904 572.1684 223.2138)" clip-path="url(#SVGID_2_)" fill="#231F20" cx="278.3" cy="131.5" rx="3.4" ry="9.5"/>
	<path clip-path="url(#SVGID_2_)" fill="#F0CAA2" stroke="#C2986B" stroke-width="2.2131" stroke-miterlimit="10" d="M283.6,134.5
		c0,0-11.6,6.2-8.8,17.1c3.3,12.9,23.3,2.7,23.3,2.7"/>
	<path clip-path="url(#SVGID_2_)" fill="#F0CAA2" stroke="#C2986B" stroke-width="2.2131" stroke-miterlimit="10" d="M276.2,160.2
		c0,0,1.6,1.9-0.7,4.4c-3.1,3.5-8.1,6.6-8.1,6.6c-3.6,2.7,5.3,14.8,9,12.1c0,0,8.3-8.6,21.3-0.7"/>
	
		<path clip-path="url(#SVGID_2_)" fill="#7C0F1C" stroke="#C2986B" stroke-width="2.2131" stroke-linecap="round" stroke-linejoin="round" stroke-miterlimit="10" d="
		M268.9,173.6c0,0,5.9,0.2,7.2,4.4c0.7,2.1,0.1,2.8-0.5,3c-0.8,0.3-1.7-0.3-2-1.1c-0.3-0.7-0.9-3.7-0.3-5.1"/>
	
		<path clip-path="url(#SVGID_2_)" fill="#F79838" stroke="#CC6632" stroke-width="1.6101" stroke-linecap="round" stroke-linejoin="round" stroke-miterlimit="10" d="
		M260.8,143.6c0,0,3.3-7,4.5-15.5c4.9-35.3,76.7-41.6,76.7-41.6S299,65,267.3,88C255.6,96.4,248.9,115.4,260.8,143.6z"/>
	
		<path clip-path="url(#SVGID_2_)" fill="#F79838" stroke="#CC6632" stroke-width="1.6718" stroke-linecap="round" stroke-linejoin="round" stroke-miterlimit="10" d="
		M290.4,101.9c6.3,6.1,19.1,9.8,58.2,12.1c5.1,6.6,26.3,34.7,35.6,6.9c0,0,3.4-7.5,2.9-12.7c-0.8-10.2-9.1-27.1-25.5-32
		C305,59.2,292,90.4,289.6,98.6C289.3,99.8,289.6,101,290.4,101.9z"/>
	<g clip-path="url(#SVGID_2_)">
		<path fill="#CC6632" d="M379.3,130c0,0-0.1-1.5-0.4-4c-0.1-0.6-0.3-1.3-0.4-2.1c-0.1-0.4-0.2-0.8-0.2-1.2
			c-0.1-0.4-0.2-0.8-0.3-1.3c-0.3-0.8-0.6-1.8-0.9-2.7c-0.4-0.9-0.8-1.9-1.3-2.9c-0.2-0.5-0.5-1-0.8-1.5c-0.3-0.5-0.6-1-0.9-1.5
			c-0.3-0.5-0.7-1-1-1.5c-0.4-0.5-0.7-1-1.1-1.5c-0.4-0.5-0.9-0.9-1.3-1.4c-0.4-0.5-0.9-0.9-1.4-1.4c-0.5-0.4-1-0.9-1.5-1.3
			c-0.5-0.4-1-0.9-1.6-1.3c-0.6-0.4-1.1-0.8-1.7-1.2c-0.6-0.4-1.2-0.7-1.8-1.1c-0.6-0.3-1.2-0.7-1.8-1.1c-0.6-0.3-1.3-0.6-1.9-0.9
			c-0.6-0.3-1.3-0.6-2-0.9c-0.7-0.3-1.3-0.6-2-0.8c-1.4-0.5-2.7-1-4.1-1.4c-1.4-0.4-2.8-0.8-4.2-1.1c-1.4-0.4-2.8-0.6-4.2-0.9
			c-2.8-0.5-5.6-0.9-8.4-1.2c-2.7-0.3-5.4-0.6-7.9-0.8c-2.5-0.2-4.9-0.3-7.1-0.4c-2.2-0.1-4.2-0.2-6-0.2c-1.8,0-3.4,0-4.6,0
			c-2.6,0-4.1,0.1-4.1,0.1c-0.1,0-0.1,0-0.1-0.1c0-0.1,0-0.1,0.1-0.1c0,0,1.5-0.3,4-0.6c1.3-0.2,2.9-0.3,4.7-0.5
			c1.8-0.1,3.8-0.3,6.1-0.3c2.2-0.1,4.6-0.1,7.2,0c2.6,0.1,5.2,0.3,8,0.6c2.8,0.4,5.6,0.8,8.5,1.5c1.4,0.3,2.9,0.7,4.3,1.1
			c1.4,0.4,2.9,0.8,4.3,1.3c1.4,0.5,2.8,1,4.2,1.6c0.7,0.3,1.4,0.6,2,0.9c0.7,0.3,1.4,0.6,2,1c0.7,0.3,1.3,0.7,1.9,1
			c0.6,0.3,1.2,0.8,1.9,1.1c0.6,0.4,1.2,0.7,1.8,1.2c0.6,0.4,1.1,0.9,1.7,1.3c0.6,0.4,1.1,0.9,1.6,1.3c0.5,0.5,1,0.9,1.5,1.4
			c0.9,1,1.8,2,2.6,3c0.4,0.5,0.7,1,1.1,1.6c0.4,0.5,0.7,1,1,1.5c0.3,0.5,0.6,1.1,0.9,1.6c0.3,0.5,0.6,1,0.8,1.5c0.4,1,0.9,2,1.2,3
			c0.3,1,0.5,1.9,0.8,2.8c0.1,0.4,0.2,0.9,0.3,1.3c0.1,0.4,0.1,0.8,0.2,1.2c0.1,0.8,0.3,1.5,0.3,2.1c0.1,2.6,0.2,4.1,0.2,4.1
			c0,0.1,0,0.1-0.1,0.1C379.4,130.2,379.4,130.1,379.3,130z"/>
	</g>
	<g clip-path="url(#SVGID_2_)">
		<path fill="#CC6632" d="M382.6,124.5c0,0-0.1-1.3-0.4-3.6c-0.1-1.2-0.5-2.5-0.7-4.1c-0.1-0.8-0.4-1.6-0.7-2.5
			c-0.3-0.9-0.5-1.8-0.9-2.7c-0.4-0.9-0.7-1.9-1.2-2.8c-0.5-0.9-1-1.9-1.5-2.9c-0.6-0.9-1.2-1.9-1.9-2.9c-0.7-0.9-1.4-1.9-2.2-2.8
			c-0.8-0.9-1.6-1.9-2.6-2.7c-0.5-0.4-0.9-0.9-1.4-1.3c-0.5-0.4-1-0.8-1.5-1.2c-1-0.8-2.1-1.5-3.2-2.2c-1.1-0.7-2.2-1.3-3.4-1.9
			c-1.2-0.6-2.3-1.2-3.6-1.6c-0.6-0.2-1.2-0.5-1.8-0.7c-0.6-0.2-1.2-0.4-1.8-0.6c-1.2-0.4-2.5-0.7-3.6-1.1c-1.2-0.3-2.4-0.6-3.6-0.9
			c-2.4-0.6-4.7-1-6.9-1.3c-2.2-0.3-4.3-0.6-6.3-0.8c-3.9-0.4-7.2-0.5-9.5-0.6c-2.3-0.1-3.6,0-3.6,0c-0.1,0-0.1,0-0.1-0.1
			c0-0.1,0-0.1,0.1-0.1c0,0,1.3-0.3,3.6-0.5c1.2-0.1,2.6-0.2,4.2-0.3c1.6,0,3.5-0.1,5.5,0c1,0,2,0.1,3.1,0.2
			c1.1,0.1,2.2,0.2,3.3,0.3c1.1,0.1,2.3,0.3,3.5,0.5c1.2,0.2,2.4,0.4,3.6,0.7c1.2,0.3,2.5,0.7,3.7,1c1.2,0.4,2.5,0.8,3.7,1.3
			c0.6,0.2,1.2,0.5,1.9,0.7c0.6,0.3,1.2,0.5,1.8,0.8c1.2,0.5,2.4,1.2,3.6,1.8c1.2,0.7,2.3,1.3,3.5,2.1c1.1,0.8,2.2,1.5,3.2,2.4
			c0.5,0.4,1,0.8,1.5,1.3c0.5,0.5,0.9,0.9,1.4,1.4c1,0.9,1.8,1.9,2.6,2.8c0.8,0.9,1.5,2,2.2,3c0.7,1,1.2,2.1,1.8,3.1
			c0.5,1,1,2.1,1.4,3c0.4,1,0.7,2,1.1,2.9c0.4,0.9,0.5,1.9,0.8,2.8c0.2,0.9,0.5,1.7,0.6,2.5c0.2,1.6,0.5,3,0.6,4.2
			c0.2,2.3,0.3,3.6,0.3,3.6c0,0.1,0,0.1-0.1,0.1C382.6,124.6,382.6,124.6,382.6,124.5z"/>
	</g>
	<g clip-path="url(#SVGID_2_)">
		<path fill="#CC6632" d="M330.4,76c0,0,1.2,0,3.4,0.1c1.1,0,2.4,0.1,3.8,0.3c1.5,0.1,3.2,0.3,5,0.6c1.8,0.3,3.8,0.6,5.8,1
			c2.1,0.5,4.2,1,6.4,1.7c2.2,0.7,4.4,1.5,6.7,2.5c1.1,0.5,2.2,1,3.3,1.6c1.1,0.5,2.2,1.2,3.2,1.8c1.1,0.6,2.1,1.4,3.1,2.1l1.5,1.2
			c0.5,0.4,1,0.8,1.4,1.2c0.9,0.8,1.8,1.6,2.6,2.6c0.4,0.5,0.8,0.9,1.2,1.4c0.4,0.5,0.7,0.9,1.1,1.4c1.4,1.9,2.5,3.9,3.3,5.9
			c0.4,1,0.7,2,1.1,3c0.3,1,0.5,1.9,0.7,2.8c0.2,0.9,0.3,1.8,0.4,2.6c0.1,0.8,0.2,1.6,0.2,2.4c0,1.5,0.1,2.8,0,3.9
			c-0.2,2.2-0.3,3.4-0.3,3.4c0,0.1-0.1,0.1-0.1,0.1c-0.1,0-0.1,0-0.1-0.1l0,0c0,0-0.1-1.2-0.2-3.3c0-0.5-0.1-1.1-0.2-1.7
			c-0.1-0.6-0.2-1.3-0.3-2c-0.1-0.7-0.3-1.5-0.5-2.3c-0.2-0.8-0.3-1.6-0.6-2.5c-0.5-1.7-1.2-3.5-2-5.3c-0.2-0.4-0.5-0.9-0.7-1.4
			c-0.2-0.5-0.5-0.9-0.8-1.4c-0.6-0.9-1.1-1.9-1.8-2.7c-0.3-0.4-0.7-0.9-1-1.3c-0.3-0.5-0.7-0.9-1.1-1.3c-0.4-0.4-0.7-0.9-1.1-1.3
			c-0.4-0.4-0.8-0.8-1.2-1.2c-0.8-0.8-1.8-1.6-2.6-2.3c-1-0.7-1.9-1.5-2.9-2.1c-1-0.7-2-1.3-3.1-1.9c-1-0.6-2.1-1.1-3.2-1.6
			c-2.1-1-4.3-1.9-6.4-2.6c-2.1-0.8-4.2-1.3-6.3-1.9c-2-0.5-3.9-1-5.7-1.3c-1.8-0.4-3.4-0.6-4.9-0.8c-1.5-0.2-2.8-0.3-3.8-0.4
			c-2.1-0.2-3.3-0.2-3.3-0.2c-0.1,0-0.1-0.1-0.1-0.1C330.3,76.1,330.4,76,330.4,76z"/>
	</g>
	<g clip-path="url(#SVGID_2_)">
		<g>
			<path fill="#CC6632" d="M260.7,143.7c0,0-0.1-0.7-0.4-1.9c-0.1-0.6-0.2-1.3-0.4-2.1c-0.1-0.8-0.2-1.8-0.3-2.8
				c0-0.5-0.1-1.1-0.1-1.6c0-0.6,0-1.1,0-1.7c0-1.2,0-2.5,0.1-3.8c0.1-1.3,0.2-2.7,0.5-4c0.1-0.7,0.2-1.4,0.4-2.1
				c0.1-0.7,0.3-1.4,0.5-2c0.2-0.7,0.3-1.4,0.5-2c0.2-0.7,0.4-1.3,0.7-2c0.4-1.3,1-2.6,1.5-3.8c0.6-1.2,1.2-2.3,1.8-3.3
				c0.3-0.5,0.6-1,0.9-1.5c0.3-0.5,0.7-0.9,1-1.3c0.6-0.9,1.2-1.6,1.8-2.2c0.6-0.6,1.1-1.2,1.5-1.6c0.9-0.9,1.4-1.3,1.4-1.3
				c0,0,0.1,0,0.1,0c0,0,0,0.1,0,0.1c0,0-0.1,0.1-0.3,0.4c-0.2,0.3-0.4,0.7-0.8,1.2c-0.3,0.5-0.7,1.1-1.1,1.9
				c-0.4,0.7-0.9,1.5-1.4,2.4c-0.5,0.9-1,1.9-1.6,2.9c-0.5,1-1,2.2-1.6,3.3c-0.3,0.6-0.5,1.2-0.8,1.8c-0.3,0.6-0.6,1.2-0.8,1.8
				c-0.3,0.6-0.5,1.2-0.8,1.9c-0.3,0.6-0.4,1.3-0.7,1.9c-0.2,0.6-0.4,1.3-0.6,1.9c-0.2,0.7-0.3,1.3-0.5,2c-0.4,1.3-0.5,2.6-0.7,3.9
				c-0.2,1.3-0.3,2.5-0.4,3.7c0,0.6-0.1,1.2-0.1,1.7c0,0.6,0,1.1,0,1.6c0,1,0,2,0.1,2.8c0.1,0.8,0.2,1.6,0.3,2.2
				c0.1,1.2,0.2,1.9,0.2,1.9c0,0.1,0,0.1-0.1,0.1C260.8,143.7,260.8,143.7,260.7,143.7z"/>
		</g>
		<g>
			<path fill="#CC6632" d="M269.6,95.1c0,0-0.4,0.5-1.1,1.4c-0.3,0.4-0.7,1-1.2,1.7c-0.4,0.7-0.9,1.4-1.4,2.2
				c-0.2,0.4-0.5,0.8-0.7,1.3c-0.2,0.5-0.5,0.9-0.7,1.4c-0.5,1-1,2-1.5,3.1c-0.4,1.1-0.9,2.3-1.3,3.4c-0.4,1.2-0.8,2.4-1,3.6
				l-0.4,1.9c-0.1,0.6-0.1,1.2-0.2,1.9c-0.2,1.2-0.2,2.4-0.3,3.6c-0.1,1.2,0,2.3-0.1,3.4c0,0.5,0,1.1,0,1.6c0,0.5,0.1,1,0.1,1.5
				c0.1,0.9,0.1,1.8,0.2,2.6c0.1,0.8,0.2,1.4,0.3,2c0.1,1.1,0.2,1.8,0.2,1.8l0,0c0,0.1,0,0.1-0.1,0.1c0,0-0.1,0-0.1-0.1
				c0,0-0.3-0.6-0.7-1.7c-0.2-0.5-0.5-1.2-0.7-1.9c-0.3-0.8-0.4-1.7-0.6-2.6c-0.1-0.5-0.2-1-0.3-1.5c-0.1-0.5-0.1-1.1-0.1-1.6
				c-0.1-1.1-0.2-2.3-0.1-3.6c0.1-1.2,0.2-2.5,0.5-3.8c0.1-0.6,0.3-1.3,0.4-1.9l0.5-1.9c0.3-1.3,0.8-2.5,1.2-3.7
				c0.4-1.2,1-2.4,1.5-3.5c0.6-1.1,1.1-2.2,1.7-3.1c0.3-0.5,0.6-0.9,0.9-1.4c0.3-0.4,0.6-0.9,0.9-1.3c0.5-0.8,1.1-1.5,1.6-2.1
				c0.5-0.6,0.9-1.2,1.3-1.6c0.7-0.9,1.2-1.3,1.2-1.3c0,0,0.1,0,0.1,0C269.6,95,269.6,95.1,269.6,95.1z"/>
		</g>
	</g>
	<path clip-path="url(#SVGID_2_)" fill="#F0CAA2" stroke="#C2986B" stroke-width="2.2131" stroke-miterlimit="10" d="M358,123.4
		c0,0,6.8-15.4,19.5-9.9c13.7,5.8,13,39.8-13,42.9"/>
</g>
</svg>
