<?xml version="1.0" encoding="utf-8"?>
<!-- Generator: Adobe Illustrator 19.1.0, SVG Export Plug-In . SVG Version: 6.00 Build 0)  -->
<svg version="1.1" id="Layer_1" xmlns="http://www.w3.org/2000/svg" xmlns:xlink="http://www.w3.org/1999/xlink" x="0px" y="0px"
	 width="500px" height="500px" viewBox="0 0 500 500" style="enable-background:new 0 0 500 500;" xml:space="preserve">
<style type="text/css">
	.st0{clip-path:url(#SVGID_2_);}
	.st1{fill:#F4CA76;}
	.st2{fill:#C49A6C;stroke:#936B44;stroke-width:3;stroke-miterlimit:10;}
	.st3{fill:#404666;stroke:#6E7DAA;stroke-width:2;stroke-miterlimit:10;}
	.st4{fill:#6E7DAA;}
	.st5{fill:#C07F5F;stroke:#945535;stroke-width:2;stroke-linecap:round;stroke-linejoin:round;stroke-miterlimit:10;}
	.st6{fill:#4A5272;stroke:#6E7DAA;stroke-width:2;stroke-miterlimit:10;}
	.st7{fill:#231F20;}
	.st8{fill:none;stroke:#945535;stroke-width:2;stroke-linecap:round;stroke-linejoin:round;stroke-miterlimit:10;}
	.st9{fill:#0E1030;stroke:#3D4773;stroke-width:2;stroke-miterlimit:10;}
	.st10{fill:#0E1030;}
	.st11{fill:#3D4773;}
	.st12{fill:#61C5C1;stroke:#357C77;stroke-width:2;stroke-linecap:round;stroke-linejoin:round;stroke-miterlimit:10;}
	.st13{fill:#357C77;}
	.st14{fill:#F0CBA1;stroke:#C2986B;stroke-width:2;stroke-linecap:round;stroke-linejoin:round;stroke-miterlimit:10;}
	.st15{fill:#75D3CC;stroke:#357C77;stroke-width:2;stroke-linecap:round;stroke-linejoin:round;stroke-miterlimit:10;}
	.st16{fill:none;stroke:#357C77;stroke-width:2;stroke-linecap:round;stroke-linejoin:round;stroke-miterlimit:10;}
	.st17{fill:none;stroke:#C2986B;stroke-width:2;stroke-linecap:round;stroke-linejoin:round;stroke-miterlimit:10;}
	.st18{fill:#E3EEF0;stroke:#738184;stroke-width:2;stroke-miterlimit:10;}
	.st19{fill:#F7FBFC;stroke:#91A7A8;stroke-width:2.75;stroke-miterlimit:10;}
	.st20{clip-path:url(#SVGID_4_);fill:#EEF8FA;stroke:#A7BEC1;stroke-width:2;stroke-miterlimit:10;}
	.st21{clip-path:url(#SVGID_6_);fill:#8B5E3C;stroke:#C49576;stroke-width:1.8403;stroke-miterlimit:10;}
	.st22{clip-path:url(#SVGID_6_);}
	.st23{fill:none;stroke:#664635;stroke-width:2.7605;stroke-linecap:round;stroke-linejoin:round;stroke-miterlimit:10;}
	.st24{fill:#664635;}
	.st25{fill:#F9F9F2;stroke:#D3D2C1;stroke-width:1.8403;stroke-miterlimit:10;}
	.st26{fill:#D1D3D4;stroke:#808285;stroke-width:2;stroke-miterlimit:10;}
	.st27{clip-path:url(#SVGID_8_);fill:#513220;stroke:#C49576;stroke-width:2;stroke-miterlimit:10;}
	.st28{fill:none;stroke:#C49576;stroke-width:2;stroke-miterlimit:10;}
	.st29{clip-path:url(#SVGID_10_);fill:#EEF8FA;stroke:#A7BEC1;stroke-width:2;stroke-miterlimit:10;}
	.st30{clip-path:url(#SVGID_12_);fill:#8B5E3C;stroke:#C49576;stroke-width:1.8403;stroke-miterlimit:10;}
	.st31{clip-path:url(#SVGID_12_);}
	.st32{clip-path:url(#SVGID_14_);fill:#513220;stroke:#C49576;stroke-width:2;stroke-miterlimit:10;}
	.st33{fill:#CB802B;stroke:#AA631D;stroke-width:2;stroke-miterlimit:10;}
	.st34{fill:none;stroke:#AA631D;stroke-width:2;stroke-miterlimit:10;}
	.st35{fill:#AA631D;}
</style>
<g>
	<defs>
		<rect id="SVGID_1_" width="500" height="500"/>
	</defs>
	<clipPath id="SVGID_2_">
		<use xlink:href="#SVGID_1_"  style="overflow:visible;"/>
	</clipPath>
	<g class="st0">
		<rect class="st1" width="500" height="500"/>
		<rect x="-10.037" y="373.175" class="st2" width="522.43" height="141.393"/>
		<path class="st3" d="M185.955,324.764c0,0-4.498,1.946-7.998,0s-13-95.728-104.5-96.446l-45.5,19.614c0,0-20.456,8.473-31.5,25.93
			v121.735h164.5h36.576c6.617,0,13.216-0.711,19.667-2.186c8.499-1.944,18.733-5.286,21.257-10.427c0,0,2.5-5.561,2-12.613
			c-0.139-1.959-0.196-3.64-0.205-5.047c-0.029-4.314-0.754-8.593-2.066-12.703c-1.893-5.93-4.274-13.562-4.444-14.96
			c-0.285-2.343-3.074-14.415-11.259-18.843l-34.068-1.894L185.955,324.764z"/>
		<g>
			<path class="st4" d="M183.354,361.765c-0.5-0.959-0.867-1.974-1.193-3.004c-0.139-0.52-0.31-1.036-0.413-1.567
				c-0.119-0.528-0.24-1.056-0.312-1.593c-0.088-0.535-0.176-1.072-0.213-1.613c-0.044-0.541-0.121-1.083-0.112-1.627
				c0-0.543-0.031-1.09-0.005-1.634l0.096-1.633c0.042-0.544,0.137-1.082,0.203-1.625c0.059-0.545,0.156-1.082,0.284-1.614
				l0.353-1.604l0.471-1.573c0.144-0.53,0.316-1.051,0.527-1.556l0.585-1.54c0.187-0.519,0.453-0.998,0.692-1.492l0.738-1.473
				l-0.108,0.264c0.487-1.895,1.058-3.768,1.685-5.628c0.312-0.93,0.639-1.856,0.994-2.775c0.357-0.919,0.726-1.834,1.14-2.738
				l0.194,0.049c-0.071,0.992-0.186,1.972-0.314,2.949c-0.13,0.977-0.287,1.946-0.459,2.912c-0.342,1.932-0.739,3.85-1.222,5.746
				l-0.033,0.13l-0.075,0.135l-0.756,1.359c-0.239,0.459-0.537,0.893-0.757,1.362l-0.676,1.404
				c-0.237,0.465-0.436,0.945-0.608,1.435l-0.549,1.463l-0.432,1.5c-0.155,0.499-0.28,1.005-0.369,1.519
				c-0.096,0.512-0.221,1.021-0.294,1.538l-0.192,1.556c-0.059,0.52-0.061,1.044-0.095,1.567c-0.043,0.524-0.02,1.047-0.02,1.573
				c-0.01,0.527,0.031,1.05,0.072,1.575c0.025,0.527,0.099,1.048,0.17,1.571c0.055,0.526,0.179,1.039,0.271,1.561
				c0.231,1.029,0.507,2.059,0.913,3.035L183.354,361.765z"/>
		</g>
		<g>
			<path class="st4" d="M185.983,328.914c0,0-0.297,0.117-0.795,0.375c-0.493,0.267-1.186,0.666-1.965,1.219
				c-0.377,0.296-0.803,0.585-1.208,0.953c-0.418,0.349-0.85,0.726-1.272,1.142c-0.442,0.392-0.833,0.871-1.264,1.313
				c-0.398,0.477-0.804,0.958-1.185,1.457c-0.352,0.524-0.742,1.014-1.051,1.553c-0.303,0.542-0.636,1.045-0.938,1.548
				c-0.305,0.501-0.613,0.976-0.941,1.41c-0.295,0.453-0.572,0.886-0.854,1.274c-0.276,0.391-0.548,0.744-0.759,1.075
				c-0.225,0.324-0.43,0.605-0.609,0.833c-0.354,0.459-0.592,0.713-0.592,0.713l-0.186-0.074c0,0,0.02-0.34,0.118-0.919
				c0.105-0.576,0.24-1.416,0.6-2.349c0.169-0.471,0.359-0.982,0.597-1.505c0.249-0.518,0.548-1.046,0.872-1.584
				c0.701-1.045,1.616-2.038,2.525-3.014c0.464-0.481,0.951-0.939,1.426-1.389c0.51-0.417,0.973-0.863,1.486-1.223
				c0.495-0.379,0.981-0.734,1.472-1.026c0.473-0.316,0.962-0.553,1.392-0.797c0.888-0.445,1.65-0.761,2.199-0.937
				c0.55-0.174,0.875-0.24,0.875-0.24L185.983,328.914z"/>
		</g>
		<g>
			<path class="st4" d="M131.051,291.534c0,0,0.306,0.776,0.842,2.133c0.532,1.36,1.318,3.289,2.173,5.648
				c0.431,1.18,0.881,2.461,1.325,3.829c0.457,1.364,0.885,2.82,1.311,4.331c0.85,3.023,1.648,6.283,2.291,9.577
				c0.325,1.647,0.622,3.3,0.885,4.934c0.28,1.632,0.468,3.25,0.632,4.819c0.272,3.142,0.31,6.09,0.186,8.616
				c-0.12,2.525-0.372,4.621-0.655,6.07c-0.257,1.452-0.485,2.264-0.485,2.264l-0.198-0.025c0,0-0.006-0.835-0.018-2.296
				c-0.042-1.457-0.089-3.527-0.244-6.003c-0.146-2.475-0.387-5.358-0.661-8.443c-0.109-1.545-0.26-3.138-0.415-4.76
				c-0.149-1.622-0.372-3.262-0.603-4.902c-0.488-3.276-1.13-6.532-1.837-9.562c-0.348-1.517-0.727-2.973-1.092-4.353
				c-0.358-1.382-0.73-2.682-1.086-3.875c-0.707-2.391-1.378-4.368-1.827-5.755c-0.453-1.387-0.712-2.179-0.712-2.179
				L131.051,291.534z"/>
		</g>
		<path class="st5" d="M190.457,310.068c0,0-0.755-10.5-4.502-16.25c0,0-15.748-4-22.498-15s-10.5-15.75-10.5-15.75
			s-6.5-13.75,2-17.75s33.75,35,33.75,35l32.25,4l3.75,22.25l-20,8.5L190.457,310.068z"/>
		<path class="st6" d="M224.202,303.569c0,0-17.542,8.688-34.393,1.593l-0.431,0.185c-2.223,0.955-3.872,2.889-4.45,5.239
			c0,0-1.93,11.587-1.388,16.979c0.189,1.88,1.19,3.562,2.74,4.643c3.315,2.312,11.356,6.271,26.629,5.193
			c12.655-0.893,17.774-5.688,19.844-9.42c1.221-2.201,1.29-4.861,0.33-7.187l-4.485-13.569c-0.571-1.382-1.66-2.486-3.035-3.074
			L224.202,303.569z"/>
		<g>
			<g>
				<path class="st4" d="M201.555,313.339c0,0-0.18,1.463-0.45,3.658c-0.239,2.197-0.608,5.117-0.828,8.038
					c-0.121,1.459-0.122,2.924-0.201,4.276c-0.051,0.675-0.106,1.325-0.173,1.937c-0.061,0.614-0.112,1.19-0.154,1.719
					c-0.039,0.53-0.066,1.009-0.065,1.429c-0.002,0.42,0.033,0.768,0.089,1.042c0.069,0.26,0.162,0.437,0.266,0.538
					c0.123,0.088,0.189,0.135,0.189,0.135l-0.017,0.199c0,0-0.097,0.003-0.318-0.016c-0.209-0.037-0.504-0.213-0.751-0.517
					c-0.114-0.15-0.222-0.325-0.336-0.522c-0.082-0.194-0.192-0.413-0.271-0.643c-0.156-0.463-0.299-0.993-0.384-1.566
					c-0.098-0.575-0.16-1.196-0.182-1.847c-0.042-0.654-0.02-1.337,0.029-2.039c0.12-1.403,0.437-2.868,0.692-4.33
					c0.534-2.923,1.155-5.813,1.714-7.961c0.534-2.152,0.955-3.571,0.955-3.571L201.555,313.339z"/>
			</g>
			<g>
				<path class="st4" d="M222.575,310.716c0,0,0.678,1.315,1.604,3.33c0.949,2.007,2.098,4.731,3.168,7.503
					c0.524,1.389,1.107,2.769,1.487,4.125c0.179,0.68,0.327,1.348,0.408,1.998c0.1,0.644,0.155,1.266,0.165,1.849
					c0.023,0.579-0.019,1.126-0.086,1.61c-0.034,0.241-0.101,0.477-0.146,0.683c-0.076,0.215-0.149,0.406-0.233,0.575
					c-0.187,0.345-0.443,0.572-0.642,0.648c-0.214,0.06-0.31,0.075-0.31,0.075l-0.053-0.193c0,0,0.056-0.059,0.16-0.168
					c0.083-0.119,0.142-0.31,0.161-0.578c0.004-0.28-0.027-0.628-0.107-1.041c-0.078-0.413-0.193-0.878-0.33-1.392
					c-0.14-0.511-0.298-1.068-0.471-1.66c-0.18-0.588-0.354-1.217-0.531-1.871c-0.33-1.313-0.604-2.752-0.994-4.163
					c-0.76-2.829-1.667-5.628-2.311-7.743c-0.674-2.106-1.124-3.51-1.124-3.51L222.575,310.716z"/>
			</g>
			<g>
				<path class="st4" d="M214.394,314.363c0,0,0.52,1.385,1.204,3.494c0.709,2.104,1.532,4.943,2.271,7.821
					c0.358,1.441,0.777,2.879,0.996,4.27c0.098,0.697,0.168,1.377,0.173,2.032c0.024,0.651,0.006,1.275-0.051,1.855
					c-0.045,0.578-0.15,1.116-0.273,1.589c-0.062,0.235-0.156,0.462-0.225,0.661c-0.1,0.205-0.196,0.386-0.299,0.544
					c-0.226,0.32-0.507,0.517-0.713,0.568c-0.219,0.035-0.316,0.038-0.316,0.038l-0.031-0.198c0,0,0.062-0.052,0.179-0.148
					c0.096-0.108,0.177-0.291,0.227-0.555c0.036-0.278,0.047-0.627,0.015-1.046c-0.029-0.42-0.09-0.895-0.166-1.421
					c-0.079-0.524-0.171-1.096-0.275-1.703c-0.11-0.605-0.21-1.25-0.309-1.92c-0.174-1.342-0.279-2.804-0.502-4.251
					c-0.425-2.898-0.999-5.784-1.392-7.959c-0.424-2.17-0.707-3.617-0.707-3.617L214.394,314.363z"/>
			</g>
			<g>
				<path class="st4" d="M192.078,311.154c0,0-0.258,1.452-0.646,3.629c-0.357,2.181-0.882,5.077-1.259,7.981
					c-0.199,1.451-0.279,2.914-0.431,4.259c-0.088,0.671-0.177,1.318-0.277,1.925c-0.093,0.609-0.176,1.182-0.246,1.708
					c-0.067,0.528-0.12,1.004-0.142,1.424c-0.024,0.42-0.008,0.768,0.033,1.046c0.054,0.263,0.139,0.445,0.236,0.552
					c0.118,0.095,0.181,0.145,0.181,0.145l-0.027,0.198c0,0-0.097-0.002-0.317-0.033c-0.207-0.048-0.491-0.24-0.722-0.556
					c-0.105-0.156-0.204-0.336-0.308-0.539c-0.072-0.198-0.169-0.423-0.236-0.657c-0.131-0.471-0.245-1.007-0.299-1.584
					c-0.067-0.579-0.096-1.203-0.082-1.854c-0.006-0.655,0.052-1.336,0.138-2.034c0.196-1.395,0.59-2.84,0.924-4.287
					c0.691-2.89,1.466-5.743,2.14-7.858c0.649-2.121,1.146-3.514,1.146-3.514L192.078,311.154z"/>
			</g>
		</g>
		<polygon class="st5" points="116.957,229.036 107.207,265.752 92.124,268.897 64.957,256.949 41.957,250 36.457,204.818 		"/>
		<path class="st6" d="M118.696,259.94c-1.916,7.024-6.305,13.215-12.543,16.968c-3.264,1.963-7.196,3.41-11.696,3.41
			c-14,0-32-10-38.5-10s-31.5-5.5-33-20c0,0,6-13,17-16.5l0.819,2.32c0.901,2.552,1.679,5.161,2.033,7.844
			c0.352,2.672,3.615,7.816,22.751,9.752c5.225,0.529,10.306,1.981,15.039,4.256c8.174,3.93,21.947,8.541,29.918,0.106
			c1.989-2.105,2.377-5.263,0.94-7.778v0l4.75-17.25c0,0,6.25,3.25,6.75,11.25L118.696,259.94z"/>
		<g>
			<path class="st4" d="M40.145,250.098c0,0-0.229,0.076-0.612,0.262c-0.38,0.19-0.909,0.489-1.494,0.91
				c-0.581,0.431-1.207,0.989-1.829,1.626c-0.304,0.326-0.606,0.675-0.898,1.037c-0.27,0.385-0.581,0.738-0.82,1.152
				c-0.242,0.41-0.513,0.793-0.703,1.226c-0.21,0.414-0.417,0.822-0.617,1.217c-0.208,0.39-0.435,0.753-0.666,1.093
				c-0.205,0.355-0.415,0.684-0.626,0.984c-0.211,0.3-0.408,0.577-0.572,0.83c-0.175,0.249-0.335,0.465-0.478,0.64
				c-0.282,0.353-0.478,0.548-0.478,0.548l-0.19-0.063c0,0-0.025-0.269-0.007-0.727c0.026-0.455,0.05-1.119,0.257-1.863
				c0.093-0.376,0.212-0.779,0.356-1.199c0.147-0.419,0.363-0.837,0.588-1.266c0.223-0.43,0.554-0.821,0.866-1.223
				c0.306-0.407,0.663-0.79,1.004-1.178c0.324-0.401,0.724-0.743,1.075-1.106c0.375-0.343,0.757-0.669,1.136-0.967
				c0.394-0.283,0.756-0.574,1.147-0.787c0.373-0.236,0.752-0.416,1.094-0.588c1.392-0.661,2.425-0.754,2.425-0.754L40.145,250.098z
				"/>
		</g>
		<g>
			<path class="st4" d="M35.203,240.035c0,0-0.244,0.06-0.66,0.22c-0.414,0.161-0.993,0.421-1.649,0.795
				c-0.657,0.376-1.376,0.885-2.12,1.452c-0.363,0.298-0.735,0.607-1.095,0.94c-0.348,0.351-0.726,0.671-1.052,1.052
				c-0.328,0.378-0.676,0.729-0.96,1.135c-0.288,0.401-0.603,0.758-0.882,1.133c-0.296,0.359-0.6,0.689-0.909,0.992
				c-0.285,0.321-0.57,0.616-0.848,0.88c-0.277,0.264-0.539,0.505-0.761,0.729c-0.231,0.217-0.441,0.403-0.623,0.552
				c-0.361,0.3-0.6,0.456-0.6,0.456l-0.171-0.103c0,0,0.039-0.277,0.165-0.735c0.132-0.455,0.314-1.116,0.687-1.825
				c0.177-0.36,0.385-0.742,0.621-1.136c0.24-0.392,0.54-0.773,0.856-1.162c0.314-0.389,0.72-0.726,1.113-1.076
				c0.389-0.355,0.816-0.684,1.232-1.019c0.402-0.349,0.859-0.639,1.278-0.951c0.434-0.296,0.876-0.567,1.303-0.823
				c0.443-0.234,0.853-0.486,1.28-0.658c0.413-0.194,0.82-0.343,1.193-0.48c1.502-0.539,2.577-0.564,2.577-0.564L35.203,240.035z"/>
		</g>
		<g>
			<path class="st4" d="M50.889,255.814c0,0-0.035,0.871-0.2,2.164c-0.15,1.296-0.426,3.018-0.846,4.716
				c-0.214,0.846-0.339,1.731-0.624,2.507c-0.292,0.772-0.691,1.445-1.085,1.991c-0.769,1.107-1.588,1.647-1.588,1.647l-0.176-0.095
				c0,0-0.005-0.247,0.039-0.642c0.044-0.394,0.128-0.939,0.266-1.566c0.078-0.309,0.138-0.655,0.245-0.999
				c0.1-0.347,0.212-0.711,0.353-1.078c0.296-0.726,0.731-1.467,1.048-2.254c0.326-0.784,0.623-1.581,0.914-2.328
				c0.279-0.754,0.539-1.457,0.762-2.06c0.418-1.222,0.697-2.037,0.697-2.037L50.889,255.814z"/>
		</g>
		<g>
			<path class="st4" d="M65.221,259.629c0,0,0.254,0.573,0.429,1.489c0.197,0.913,0.291,2.175,0.177,3.436
				c-0.061,0.627-0.057,1.283-0.218,1.861c-0.189,0.566-0.469,1.059-0.785,1.435c-0.594,0.775-1.279,1.093-1.279,1.093l-0.177-0.093
				c0,0-0.038-0.189-0.053-0.482c-0.01-0.148-0.01-0.319-0.003-0.51c0.017-0.186,0.008-0.405,0.036-0.625
				c0.017-0.224,0.058-0.455,0.094-0.699c0.033-0.245,0.098-0.49,0.179-0.739c0.163-0.496,0.471-0.995,0.635-1.543
				c0.336-1.088,0.573-2.227,0.682-3.104c0.101-0.878,0.088-1.476,0.088-1.476L65.221,259.629z"/>
		</g>
		<g>
			<path class="st4" d="M110.458,261.525c0,0,0.49,0.367,1.116,1.031c0.637,0.656,1.418,1.619,2.012,2.731
				c0.286,0.556,0.661,1.106,0.815,1.7c0.151,0.59,0.131,1.185,0.034,1.676c-0.098,0.496-0.254,0.89-0.43,1.151
				c-0.156,0.262-0.281,0.395-0.281,0.395l-0.199-0.022c0,0-0.108-0.161-0.236-0.414c-0.068-0.127-0.129-0.276-0.205-0.441
				c-0.081-0.167-0.173-0.348-0.244-0.543c-0.063-0.194-0.183-0.399-0.248-0.616c-0.07-0.217-0.157-0.444-0.213-0.685
				c-0.038-0.245-0.09-0.501-0.114-0.773c-0.022-0.272-0.094-0.542-0.156-0.814c-0.152-0.537-0.344-1.069-0.536-1.572
				c-0.195-0.501-0.398-0.968-0.583-1.366c-0.381-0.791-0.681-1.305-0.681-1.305L110.458,261.525z"/>
		</g>
		<path class="st3" d="M116.124,239.936c0,0,5.362,1.943,5.848,7.996"/>
		<g>
			<path class="st7" d="M139.806,349.93c0,0,0.023,0.777,0.016,2.135c-0.014,1.358-0.062,3.299-0.186,5.626
				c-0.139,2.325-0.318,5.041-0.665,7.935c-0.148,1.45-0.354,2.942-0.551,4.46c-0.194,1.519-0.453,3.052-0.678,4.592
				c-0.256,1.535-0.512,3.07-0.764,4.582c-0.27,1.509-0.582,2.984-0.872,4.415c-0.342,1.419-0.704,2.783-1.075,4.068
				c-0.348,1.291-0.767,2.488-1.131,3.598c-0.372,1.107-0.711,2.122-1.065,3.005c-0.345,0.885-0.657,1.653-0.928,2.28
				c-0.521,1.261-0.854,1.968-0.854,1.968l-0.191-0.06c0,0,0.113-0.776,0.371-2.112c0.119-0.671,0.281-1.479,0.478-2.402
				c0.192-0.923,0.408-1.965,0.644-3.101c0.228-1.137,0.535-2.352,0.799-3.652c0.262-1.3,0.587-2.658,0.921-4.064
				c0.338-1.404,0.68-2.858,1.067-4.327c0.338-1.481,0.681-2.985,1.025-4.489c0.297-1.513,0.627-3.022,0.893-4.518
				c0.268-1.495,0.545-2.966,0.761-4.398c0.242-1.428,0.428-2.815,0.623-4.129c0.197-1.314,0.346-2.56,0.493-3.711
				c0.273-2.303,0.446-4.229,0.546-5.579c0.095-1.35,0.121-2.123,0.121-2.123L139.806,349.93z"/>
		</g>
		<g>
			<path class="st4" d="M35.279,302.036c0.886,1.744,1.607,3.564,2.209,5.425c0.295,0.932,0.565,1.875,0.781,2.831
				c0.227,0.954,0.392,1.922,0.532,2.896c0.115,0.978,0.194,1.958,0.2,2.952c0,0.999-0.13,1.999-0.354,2.973
				c-0.456,1.947-1.345,3.799-2.519,5.405c-2.252,3.171-4.487,6.352-6.63,9.589c-1.071,1.618-2.123,3.248-3.128,4.899
				c-0.994,1.649-1.98,3.332-2.713,5.033l-0.014-0.622c0.974,2.042,1.866,4.087,2.731,6.16c0.87,2.067,1.663,4.166,2.438,6.273
				c0.76,2.113,1.455,4.251,2.084,6.412c0.299,1.086,0.625,2.163,0.863,3.266c0.236,1.104,0.532,2.19,0.718,3.307
				c0.201,1.112,0.441,2.215,0.547,3.346c0.133,1.125,0.295,2.244,0.34,3.382l0.107,1.698c0.024,0.567,0,1.139,0.003,1.708
				c0.005,1.143-0.034,2.265-0.084,3.348c-0.067,2.201-0.005,4.413,0.161,6.622c0.128,2.215,0.398,4.421,0.672,6.637l-0.196,0.038
				c-0.59-2.157-1.048-4.352-1.419-6.568c-0.338-2.22-0.573-4.462-0.676-6.719c-0.053-1.146-0.028-2.252-0.092-3.338
				c-0.026-0.545-0.026-1.089-0.073-1.634l-0.176-1.633c-0.089-1.089-0.296-2.171-0.472-3.253c-0.16-1.083-0.425-2.155-0.622-3.236
				c-0.193-1.081-0.498-2.145-0.741-3.218c-0.255-1.071-0.574-2.129-0.836-3.2c-0.58-2.13-1.232-4.242-1.906-6.35
				c-0.7-2.099-1.42-4.195-2.217-6.263c-0.785-2.068-1.622-4.134-2.523-6.136l-0.148-0.329l0.135-0.293
				c0.854-1.856,1.89-3.513,2.942-5.171c1.058-1.65,2.157-3.265,3.273-4.866c2.238-3.198,4.539-6.345,6.892-9.451
				c1.171-1.499,2.052-3.199,2.545-5.03c0.241-0.915,0.395-1.853,0.425-2.8c0.025-0.953-0.022-1.917-0.103-2.875
				c-0.106-0.957-0.238-1.913-0.432-2.86c-0.183-0.949-0.42-1.888-0.682-2.819c-0.536-1.859-1.196-3.693-2.018-5.447L35.279,302.036
				z"/>
		</g>
		<g>
			<path class="st4" d="M21.221,322.501c0,0,0.44,1.276,0.979,3.225c0.275,0.974,0.58,2.116,0.857,3.352
				c0.276,1.236,0.56,2.56,0.793,3.898c0.13,0.667,0.241,1.338,0.351,2.002c0.125,0.661,0.205,1.321,0.247,1.963
				c0.046,0.64,0.026,1.269-0.019,1.861c-0.019,0.59-0.119,1.156-0.204,1.67c-0.067,0.514-0.219,0.985-0.335,1.395
				c-0.117,0.41-0.241,0.762-0.388,1.043c-0.265,0.564-0.448,0.86-0.448,0.86l-0.193-0.054c0,0-0.043-0.36-0.064-0.944
				c-0.001-0.289-0.029-0.642-0.069-1.047c-0.03-0.403-0.046-0.845-0.102-1.338c-0.055-0.491-0.069-1.014-0.133-1.576
				c-0.065-0.56-0.079-1.147-0.128-1.762c-0.041-1.225-0.006-2.555-0.105-3.88c-0.164-2.653-0.512-5.305-0.759-7.3
				c-0.268-1.992-0.475-3.32-0.475-3.32L21.221,322.501z"/>
		</g>
		<g>
			<path class="st4" d="M22.213,365.038c-0.597-0.866-1.257-1.692-1.956-2.477c-0.692-0.793-1.43-1.544-2.198-2.259
				c-0.372-0.371-0.784-0.697-1.18-1.04c-0.391-0.349-0.81-0.662-1.231-0.972c-0.416-0.316-0.833-0.63-1.281-0.899
				c-0.445-0.272-0.864-0.584-1.327-0.821l-1.374-0.73c-0.471-0.215-0.953-0.402-1.426-0.609c-0.467-0.224-0.967-0.355-1.458-0.507
				c-0.494-0.14-0.974-0.334-1.486-0.398l-1.51-0.277c-0.508-0.055-1.02-0.063-1.528-0.098l-0.763-0.043l-0.763,0.06l-1.522,0.115
				l0.319-1.267c1.243,0.858,2.426,1.748,3.608,2.662c1.178,0.913,2.343,1.845,3.482,2.809c1.148,0.954,2.27,1.942,3.374,2.951
				l1.61,1.566c0.552,0.506,1.028,1.092,1.541,1.639c0.509,0.551,1.01,1.109,1.482,1.696c0.474,0.585,0.953,1.162,1.4,1.769
				l1.308,1.844c0.43,0.617,0.793,1.288,1.191,1.927c0.404,0.636,0.739,1.317,1.059,2.004c0.323,0.685,0.675,1.349,0.898,2.08
				c0.24,0.72,0.512,1.422,0.68,2.158c0.148,0.744,0.288,1.482,0.406,2.216l-0.196,0.04c-0.287-0.689-0.553-1.373-0.81-2.052
				c-0.275-0.673-0.684-1.295-0.994-1.946c-0.297-0.659-0.747-1.246-1.119-1.866l-0.578-0.918c-0.201-0.301-0.434-0.584-0.644-0.88
				c-0.437-0.581-0.832-1.185-1.299-1.744l-1.377-1.688c-0.461-0.561-0.973-1.083-1.445-1.635c-0.466-0.557-0.965-1.089-1.47-1.615
				c-0.996-1.063-2.014-2.11-3.033-3.158c-1.048-1.02-2.073-2.067-3.157-3.056c-1.076-0.996-2.176-1.969-3.299-2.914
				c-1.122-0.941-2.269-1.876-3.428-2.745l-1.593-1.195l1.912-0.072l1.648-0.062l0.822-0.029l0.82,0.077
				c0.545,0.058,1.094,0.091,1.634,0.171l1.6,0.359c0.54,0.093,1.043,0.315,1.559,0.484c0.513,0.182,1.034,0.342,1.515,0.596
				c0.489,0.234,0.984,0.457,1.462,0.709l1.389,0.834c0.466,0.271,0.883,0.616,1.326,0.92c0.445,0.302,0.857,0.646,1.267,0.993
				c0.415,0.34,0.826,0.683,1.206,1.06c0.386,0.37,0.787,0.724,1.145,1.121c0.742,0.767,1.449,1.567,2.106,2.405
				c0.665,0.831,1.285,1.697,1.843,2.605L22.213,365.038z"/>
		</g>
		<path class="st5" d="M143.055,179.318c0-15.667,29.333-20.333,27.667,6.667c-0.744,12.048-8.921,19.716-17.75,24.513
			L143.055,179.318z"/>
		<ellipse class="st5" cx="92.124" cy="181.958" rx="73.333" ry="57.974"/>
		<path class="st8" d="M100.124,233.985c0,0-12,7.333-23.333-1.333c-5.437-4.158-5.657-10.157-4.415-15.273"/>
		<path class="st8" d="M134.457,200.318c10.667,12,2,32-20.333,17.333"/>
		<path class="st8" d="M116.124,226.318c0,0-10.667,9-17.333-5"/>
		
			<ellipse transform="matrix(0.9874 0.1582 -0.1582 0.9874 31.5163 -13.8052)" class="st7" cx="102.478" cy="191.075" rx="3.985" ry="9.833"/>
		
			<ellipse transform="matrix(0.9874 0.1582 -0.1582 0.9874 31.9836 -19.6944)" class="st7" cx="139.706" cy="191.066" rx="3.603" ry="8.891"/>
		<g>
			<path class="st9" d="M106.458,106.273c-24.436,0.816-43.135,11.545-43.135,11.545h-2.016c-5.844,0-11.543,1.819-16.307,5.203
				l-11.677,8.297c-6.5-2-14.75,0-14.75,0c-1.25,4.5,5.25,8.167,5.25,8.167c-7,0.167-10.5,7.167-10.5,7.167c1,1.333,6.25,0,6.25,0
				c-4.25,5.833-4.25,12.329-4.25,12.329c0.5,27.162,8.5,44.671,8.5,44.671l19.5-18.333c0,0,5.715-2.042,9.9-8.001
				c1.255-1.788,1.597-4.037,1.112-6.167c-0.493-2.164-0.678-5.853,0.988-11.499c1.48-5.017,2-4.833,2-4.833
				s8.298-1.567,14.402-6.211c10.149-3.28,18.05-4.289,18.05-4.289s-3.952,2.5-3.952,7c0,0,28,3.167,49-4.667c0,0-4,4.833-5,9
				c0,0,11.5,1.833,20.5-9c0,0-0.625,6.867,0.375,10.917c0,0,2.958,0.417,7.125-2.63c0,0,5.122,5.608,5.48,17.395
				c0.009,0.297,0.42,0.379,0.529,0.103c4.733-11.929,0.99-25.785,0.99-25.785c4.5-15.167-3-30.333-37-38.333
				C120.445,106.582,113.231,106.047,106.458,106.273z"/>
			<g>
				<g>
					<path class="st10" d="M156.324,145.651c0,0,12.144-22.446-12.511-32.306"/>
					<path class="st11" d="M156.235,145.605c0,0,0.272-0.555,0.652-1.57c0.371-1.016,0.867-2.487,1.24-4.297
						c0.201-0.901,0.341-1.891,0.463-2.935c0.085-1.048,0.178-2.15,0.137-3.289c-0.033-1.136-0.132-2.308-0.372-3.468
						c-0.207-1.166-0.572-2.312-1.007-3.418c-0.248-0.542-0.465-1.095-0.769-1.604c-0.144-0.258-0.277-0.521-0.428-0.772
						l-0.489-0.729c-0.657-0.96-1.391-1.84-2.149-2.647c-0.758-0.809-1.531-1.554-2.303-2.235c-0.367-0.361-0.78-0.649-1.159-0.954
						c-0.377-0.308-0.737-0.616-1.118-0.865c-0.742-0.526-1.415-1.032-2.056-1.417c-0.626-0.411-1.171-0.783-1.641-1.056
						c-0.933-0.555-1.461-0.911-1.461-0.911l0.074-0.186c0,0,0.613,0.141,1.677,0.455c0.543,0.132,1.171,0.372,1.891,0.66
						c0.729,0.268,1.519,0.65,2.369,1.101c0.852,0.444,1.741,1.004,2.636,1.664c0.907,0.648,1.786,1.441,2.626,2.333
						c0.799,0.929,1.585,1.933,2.204,3.065c0.655,1.109,1.172,2.315,1.598,3.541c0.402,1.234,0.718,2.495,0.865,3.755
						c0.18,1.255,0.21,2.501,0.172,3.696c-0.078,2.395-0.541,4.579-1.081,6.388c-0.529,1.815-1.15,3.261-1.607,4.256
						c-0.466,0.992-0.787,1.533-0.787,1.533L156.235,145.605z"/>
				</g>
				<g>
					<path class="st10" d="M67.49,123.151c0,0,45.667-18,73.5-1"/>
					<path class="st11" d="M67.454,123.058c0,0,4.384-1.829,11.214-3.853c1.709-0.499,3.566-1.024,5.546-1.522
						c1.976-0.517,4.082-0.969,6.265-1.419c2.186-0.438,4.456-0.842,6.776-1.177c2.32-0.333,4.687-0.627,7.066-0.809
						c2.376-0.219,4.765-0.318,7.12-0.368c1.178,0.001,2.348,0.001,3.504,0.037c1.155,0.072,2.298,0.101,3.419,0.206
						c2.237,0.244,4.4,0.528,6.419,0.977c1.005,0.245,1.995,0.421,2.927,0.704c0.931,0.285,1.839,0.525,2.692,0.82
						c0.851,0.301,1.659,0.608,2.426,0.9c0.757,0.32,1.463,0.653,2.13,0.949c1.344,0.573,2.429,1.261,3.347,1.754
						c1.773,1.118,2.738,1.809,2.738,1.809l-0.104,0.171c0,0-1.074-0.492-2.953-1.352c-0.48-0.186-1.011-0.393-1.589-0.618
						c-0.569-0.24-1.187-0.494-1.871-0.704c-0.679-0.223-1.393-0.476-2.155-0.712c-0.774-0.205-1.585-0.42-2.424-0.664
						c-1.701-0.415-3.548-0.831-5.525-1.158c-1.977-0.319-4.069-0.62-6.25-0.803c-1.087-0.124-2.2-0.181-3.323-0.277
						c-1.128-0.051-2.269-0.103-3.42-0.156c-2.306-0.043-4.653-0.04-7,0.081c-9.401,0.448-18.703,2.304-25.574,4.006
						c-6.878,1.725-11.326,3.364-11.326,3.364L67.454,123.058z"/>
				</g>
				<g>
					<path class="st10" d="M26.324,183.485c0,0-6.5-31.667,5.167-40"/>
					<path class="st11" d="M26.226,183.505c0,0-0.628-2.557-1.266-6.458c-0.653-3.897-1.236-9.157-1.191-14.475
						c0-1.329,0.053-2.661,0.139-3.975c0.069-1.316,0.254-2.606,0.459-3.854c0.252-1.24,0.565-2.432,0.971-3.53
						c0.402-1.1,0.857-2.117,1.373-3.009c0.499-0.899,1.07-1.662,1.603-2.302c0.286-0.304,0.554-0.589,0.801-0.852
						c0.27-0.241,0.537-0.443,0.765-0.632c0.445-0.391,0.873-0.604,1.136-0.772c0.271-0.157,0.416-0.241,0.416-0.241l0.116,0.163
						c0,0-0.11,0.123-0.316,0.354c-0.191,0.244-0.541,0.518-0.855,0.994c-0.165,0.225-0.347,0.474-0.545,0.746
						c-0.175,0.285-0.365,0.593-0.568,0.921c-0.378,0.672-0.763,1.446-1.116,2.323c-0.354,0.874-0.671,1.85-0.968,2.894
						c-0.132,0.528-0.268,1.07-0.406,1.625c-0.119,0.562-0.24,1.135-0.364,1.719c-0.244,1.172-0.454,2.395-0.64,3.651
						c-0.191,1.254-0.314,2.544-0.403,3.837c-0.355,5.182-0.024,10.419,0.286,14.33c0.338,3.915,0.767,6.505,0.767,6.505
						L26.226,183.505z"/>
				</g>
				<g>
					<path class="st10" d="M35.99,159.318c0,0-5.667,4-5.333,22.5"/>
					<path class="st11" d="M36.051,159.398c0,0-0.269,0.234-0.641,0.755c-0.19,0.252-0.392,0.584-0.612,0.965
						c-0.22,0.383-0.44,0.831-0.655,1.331c-0.212,0.5-0.424,1.051-0.613,1.644c-0.183,0.597-0.391,1.217-0.541,1.883
						c-0.183,0.653-0.306,1.348-0.44,2.049c-0.154,0.695-0.211,1.428-0.321,2.143c-0.101,0.717-0.129,1.45-0.181,2.162
						c-0.038,0.715-0.075,1.418-0.111,2.098c-0.074,0.678-0.145,1.334-0.212,1.956c-0.069,0.624-0.151,1.214-0.243,1.76
						c-0.169,1.092-0.305,2.011-0.462,2.656c-0.143,0.645-0.26,1.017-0.26,1.017l-0.2,0.004c0,0-0.116-0.368-0.257-1.017
						c-0.073-0.325-0.148-0.72-0.224-1.174c-0.064-0.455-0.169-0.968-0.196-1.531c-0.074-1.124-0.168-2.444-0.021-3.85
						c0.077-0.702,0.156-1.426,0.328-2.153c0.167-0.727,0.268-1.471,0.464-2.203c0.19-0.733,0.324-1.472,0.558-2.182
						c0.213-0.713,0.413-1.414,0.672-2.077c0.455-1.341,1.061-2.532,1.628-3.511c0.291-0.488,0.578-0.921,0.858-1.289
						c0.279-0.367,0.533-0.679,0.773-0.91c0.458-0.475,0.79-0.685,0.79-0.685L36.051,159.398z"/>
				</g>
				<g>
					<path class="st10" d="M54.657,143.485c0-5.267,11.167-5.101,22.167-3.434c11,1.667,22.667,0.768,22.667,0.768
						s-9.714,1.333-12.738,6.862"/>
					<path class="st11" d="M54.557,143.478c-0.038-0.988,0.443-2.04,1.246-2.667c0.779-0.666,1.732-1.05,2.681-1.347
						c1.917-0.572,3.906-0.754,5.877-0.845c3.954-0.158,7.891,0.195,11.796,0.671l2.91,0.347c0.964,0.084,1.92,0.185,2.892,0.24
						c1.936,0.142,3.88,0.198,5.822,0.219c1.943,0.01,3.886-0.027,5.827-0.075l2.911-0.073l2.895-0.111l0.209,1.955
						c-0.556,0.064-1.171,0.17-1.755,0.288c-0.59,0.118-1.179,0.253-1.764,0.4c-0.587,0.141-1.165,0.315-1.74,0.496
						c-0.572,0.19-1.144,0.381-1.701,0.609c-0.286,0.1-0.552,0.236-0.827,0.357c-0.274,0.124-0.552,0.242-0.813,0.389
						c-0.544,0.262-1.049,0.581-1.557,0.907c-0.261,0.155-0.482,0.355-0.728,0.532c-0.25,0.174-0.474,0.375-0.684,0.591
						c-0.207,0.217-0.46,0.405-0.632,0.654l-0.584,0.714l-0.175-0.096l0.431-0.85c0.133-0.298,0.356-0.528,0.535-0.796
						c0.183-0.267,0.383-0.52,0.61-0.746c0.223-0.23,0.43-0.487,0.673-0.697c0.479-0.432,0.982-0.84,1.516-1.2
						c0.259-0.196,0.534-0.362,0.811-0.524c0.278-0.162,0.55-0.339,0.838-0.479c0.567-0.304,1.144-0.588,1.736-0.834
						c0.592-0.244,1.189-0.48,1.797-0.682c0.604-0.215,1.22-0.391,1.84-0.553c0.627-0.163,1.231-0.307,1.904-0.426l0.209,1.955
						c-1.002,0.102-1.98,0.142-2.969,0.196c-0.986,0.047-1.972,0.086-2.959,0.077c-1.973,0.01-3.946-0.061-5.915-0.183
						c-1.97-0.109-3.937-0.263-5.899-0.478c-0.98-0.094-1.966-0.237-2.949-0.361l-2.906-0.461
						c-3.841-0.628-7.716-1.092-11.596-1.161c-1.934-0.012-3.887,0.068-5.755,0.523c-0.924,0.236-1.847,0.558-2.594,1.135
						c-0.77,0.558-1.243,1.427-1.268,2.408L54.557,143.478z"/>
				</g>
				<g>
					<path class="st10" d="M111.49,142.651c0,0,11.5-1.5,16-8.667"/>
					<path class="st11" d="M111.476,142.552c0,0,1.138-0.273,2.79-0.829c0.409-0.152,0.857-0.294,1.318-0.485
						c0.463-0.183,0.953-0.361,1.447-0.58c0.501-0.2,1.001-0.445,1.509-0.686c0.511-0.237,1.002-0.529,1.505-0.791
						c0.48-0.304,0.969-0.589,1.418-0.913c0.432-0.347,0.892-0.635,1.298-0.955c0.408-0.315,0.854-0.561,1.229-0.846
						c0.372-0.288,0.772-0.52,1.1-0.776c0.322-0.262,0.642-0.488,0.929-0.692c0.286-0.205,0.5-0.418,0.711-0.572
						c0.406-0.32,0.676-0.496,0.676-0.496l0.169,0.106c0,0-0.071,0.299-0.264,0.809c-0.1,0.251-0.209,0.575-0.396,0.903
						c-0.195,0.32-0.419,0.686-0.691,1.07c-0.266,0.389-0.625,0.738-0.991,1.13c-0.354,0.41-0.822,0.717-1.28,1.073
						c-0.468,0.342-1.014,0.588-1.548,0.866c-0.547,0.241-1.103,0.487-1.659,0.732c-0.567,0.209-1.12,0.447-1.683,0.626
						c-0.561,0.183-1.109,0.369-1.652,0.508c-1.071,0.319-2.098,0.504-2.972,0.66c-1.752,0.298-2.936,0.336-2.936,0.336
						L111.476,142.552z"/>
				</g>
			</g>
			<path class="st9" d="M154.6,156.783c0,0,10.057-4.465,11.175-14.503"/>
		</g>
		<path class="st5" d="M44.124,179.318c0-15.667-29.333-20.333-27.667,6.667c0.744,12.048,8.921,19.716,17.75,24.513"/>
		<g>
			<path class="st12" d="M309.826,324.764c0,0,4.498,1.946,7.998,0s13-95.728,104.5-96.446l45.5,19.614c0,0,20.456,8.473,31.5,25.93
				v121.735h-164.5h-36.576c-6.617,0-13.216-0.711-19.667-2.186c-8.5-1.944-18.733-5.286-21.257-10.427c0,0-2.5-5.561-2-12.613
				c0.139-1.959,0.196-3.64,0.205-5.047c0.029-4.314,0.754-8.593,2.066-12.703c1.893-5.93,4.274-13.562,4.444-14.96
				c0.285-2.343,3.074-14.415,11.259-18.843l34.068-1.894L309.826,324.764z"/>
			<g>
				<path class="st13" d="M312.247,361.677c0.407-0.976,0.682-2.006,0.913-3.035c0.092-0.522,0.215-1.035,0.271-1.561
					c0.071-0.523,0.145-1.044,0.17-1.571c0.041-0.525,0.081-1.048,0.072-1.575c0-0.526,0.023-1.049-0.02-1.573
					c-0.034-0.523-0.036-1.047-0.095-1.567l-0.192-1.556c-0.073-0.517-0.198-1.026-0.294-1.538c-0.089-0.514-0.214-1.02-0.369-1.519
					l-0.432-1.5l-0.549-1.463c-0.172-0.49-0.371-0.97-0.608-1.435l-0.676-1.404c-0.22-0.469-0.517-0.903-0.757-1.362l-0.756-1.359
					l-0.01-0.018c-0.043-0.078-0.076-0.164-0.098-0.246c-0.482-1.896-0.88-3.814-1.222-5.746c-0.172-0.966-0.329-1.935-0.459-2.912
					c-0.128-0.977-0.243-1.957-0.314-2.949c-0.004-0.056,0.038-0.105,0.094-0.109c0.043-0.003,0.082,0.022,0.1,0.059
					c0.413,0.904,0.783,1.819,1.14,2.738c0.355,0.919,0.681,1.845,0.994,2.775c0.627,1.859,1.198,3.733,1.685,5.628l-0.108-0.264
					l0.738,1.473c0.238,0.494,0.505,0.974,0.692,1.492l0.585,1.54c0.211,0.506,0.383,1.026,0.527,1.556l0.471,1.573l0.353,1.604
					c0.128,0.532,0.224,1.069,0.284,1.614c0.066,0.543,0.161,1.081,0.203,1.625l0.096,1.633c0.026,0.544-0.005,1.09-0.005,1.634
					c0.009,0.544-0.069,1.086-0.112,1.627c-0.037,0.542-0.125,1.078-0.213,1.613c-0.072,0.537-0.194,1.066-0.312,1.593
					c-0.103,0.531-0.274,1.046-0.413,1.567c-0.326,1.03-0.693,2.044-1.193,3.004c-0.026,0.049-0.086,0.068-0.135,0.042
					C312.246,361.783,312.228,361.725,312.247,361.677z"/>
			</g>
			<g>
				<path class="st13" d="M309.854,328.722c0,0,0.325,0.066,0.875,0.24c0.549,0.177,1.311,0.492,2.199,0.937
					c0.429,0.243,0.918,0.481,1.392,0.797c0.492,0.293,0.977,0.648,1.472,1.026c0.512,0.36,0.976,0.806,1.486,1.223
					c0.475,0.45,0.963,0.908,1.426,1.389c0.909,0.976,1.824,1.969,2.525,3.014c0.323,0.537,0.623,1.066,0.872,1.584
					c0.239,0.523,0.428,1.033,0.597,1.505c0.36,0.933,0.495,1.773,0.6,2.349c0.098,0.58,0.118,0.919,0.118,0.919
					c0.003,0.058-0.041,0.108-0.099,0.111c-0.032,0.002-0.062-0.011-0.083-0.033l-0.004-0.005c0,0-0.238-0.254-0.592-0.713
					c-0.179-0.228-0.384-0.51-0.609-0.833c-0.211-0.331-0.483-0.684-0.759-1.075c-0.282-0.388-0.559-0.821-0.854-1.274
					c-0.327-0.434-0.636-0.909-0.941-1.41c-0.302-0.503-0.635-1.006-0.938-1.548c-0.308-0.538-0.699-1.028-1.051-1.553
					c-0.381-0.499-0.787-0.98-1.185-1.457c-0.431-0.442-0.822-0.921-1.264-1.313c-0.423-0.416-0.854-0.793-1.272-1.142
					c-0.405-0.368-0.831-0.658-1.208-0.953c-0.779-0.553-1.472-0.952-1.965-1.219c-0.498-0.258-0.795-0.375-0.795-0.375
					c-0.052-0.02-0.077-0.078-0.057-0.13C309.759,328.738,309.808,328.713,309.854,328.722z"/>
			</g>
			<g>
				<path class="st13" d="M364.918,291.602c0,0-0.259,0.793-0.712,2.179c-0.448,1.387-1.119,3.363-1.827,5.755
					c-0.356,1.193-0.728,2.493-1.086,3.875c-0.364,1.38-0.744,2.836-1.092,4.353c-0.707,3.03-1.349,6.286-1.837,9.562
					c-0.231,1.64-0.454,3.28-0.603,4.902c-0.155,1.621-0.306,3.215-0.415,4.76c-0.274,3.085-0.515,5.968-0.661,8.443
					c-0.155,2.476-0.202,4.546-0.244,6.003c-0.011,1.461-0.018,2.296-0.018,2.296c0,0.056-0.046,0.101-0.102,0.1
					c-0.046,0-0.085-0.033-0.097-0.075c0,0-0.229-0.812-0.485-2.264c-0.282-1.449-0.535-3.546-0.655-6.07
					c-0.124-2.525-0.086-5.474,0.186-8.616c0.164-1.568,0.352-3.187,0.632-4.819c0.263-1.634,0.56-3.287,0.885-4.934
					c0.643-3.295,1.441-6.555,2.291-9.577c0.426-1.511,0.854-2.967,1.311-4.331c0.444-1.368,0.895-2.649,1.325-3.829
					c0.855-2.359,1.641-4.287,2.173-5.648c0.536-1.357,0.842-2.133,0.842-2.133c0.02-0.051,0.078-0.077,0.13-0.056
					C364.909,291.497,364.934,291.552,364.918,291.602z"/>
			</g>
			<path class="st14" d="M305.324,310.068c0,0,0.755-10.5,4.502-16.25c0,0,15.748-4,22.498-15s10.5-15.75,10.5-15.75
				s6.5-13.75-2-17.75s-33.75,35-33.75,35l-32.25,4l-3.75,22.25l20,8.5L305.324,310.068z"/>
			<path class="st15" d="M271.579,303.569c0,0,17.542,8.688,34.393,1.593l0.431,0.185c2.223,0.955,3.872,2.889,4.45,5.239
				c0,0,1.93,11.587,1.388,16.979c-0.189,1.88-1.19,3.562-2.74,4.643c-3.315,2.312-11.356,6.271-26.629,5.193
				c-12.655-0.893-17.774-5.688-19.844-9.42c-1.221-2.201-1.29-4.861-0.33-7.187l4.485-13.569c0.571-1.382,1.66-2.486,3.035-3.074
				L271.579,303.569z"/>
			<g>
				<g>
					<path class="st13" d="M294.421,313.298c0,0,0.421,1.418,0.955,3.571c0.559,2.148,1.18,5.039,1.714,7.961
						c0.256,1.462,0.572,2.927,0.692,4.33c0.049,0.702,0.07,1.385,0.029,2.039c-0.022,0.651-0.084,1.273-0.182,1.847
						c-0.085,0.573-0.228,1.103-0.384,1.566c-0.079,0.23-0.188,0.45-0.271,0.643c-0.114,0.197-0.223,0.371-0.336,0.522
						c-0.248,0.304-0.542,0.48-0.751,0.517c-0.221,0.019-0.318,0.016-0.318,0.016c-0.053-0.002-0.094-0.046-0.092-0.099
						c0.001-0.031,0.016-0.058,0.04-0.074l0.036-0.026c0,0,0.066-0.047,0.189-0.135c0.104-0.101,0.197-0.278,0.266-0.538
						c0.056-0.275,0.091-0.622,0.089-1.042c0.001-0.421-0.026-0.899-0.065-1.429c-0.042-0.528-0.093-1.105-0.154-1.719
						c-0.067-0.612-0.121-1.262-0.173-1.937c-0.079-1.351-0.08-2.816-0.201-4.276c-0.22-2.921-0.589-5.84-0.828-8.038
						c-0.27-2.195-0.45-3.658-0.45-3.658c-0.007-0.055,0.032-0.105,0.087-0.112C294.362,313.22,294.408,313.251,294.421,313.298z"/>
				</g>
				<g>
					<path class="st13" d="M273.391,310.793c0,0-0.45,1.404-1.124,3.51c-0.644,2.114-1.551,4.914-2.311,7.743
						c-0.391,1.411-0.665,2.85-0.994,4.163c-0.176,0.654-0.351,1.282-0.531,1.871c-0.174,0.592-0.332,1.148-0.472,1.66
						c-0.137,0.514-0.252,0.979-0.33,1.392c-0.08,0.413-0.11,0.76-0.107,1.041c0.019,0.268,0.078,0.459,0.161,0.578
						c0.105,0.11,0.16,0.168,0.16,0.168l0.031,0.032c0.036,0.038,0.035,0.099-0.003,0.135c-0.022,0.021-0.053,0.03-0.081,0.025
						c0,0-0.096-0.015-0.31-0.075c-0.199-0.075-0.455-0.303-0.642-0.648c-0.084-0.169-0.158-0.36-0.233-0.575
						c-0.045-0.206-0.112-0.442-0.146-0.683c-0.067-0.484-0.108-1.031-0.086-1.61c0.01-0.583,0.066-1.205,0.165-1.849
						c0.081-0.65,0.229-1.317,0.408-1.998c0.38-1.356,0.963-2.736,1.487-4.125c1.07-2.772,2.218-5.496,3.168-7.503
						c0.926-2.015,1.603-3.33,1.603-3.33c0.025-0.049,0.086-0.069,0.135-0.043C273.385,310.696,273.405,310.747,273.391,310.793z"/>
				</g>
				<g>
					<path class="st13" d="M281.579,314.417c0,0-0.283,1.447-0.707,3.617c-0.393,2.175-0.967,5.061-1.392,7.959
						c-0.223,1.447-0.328,2.909-0.502,4.251c-0.099,0.67-0.199,1.314-0.309,1.92c-0.104,0.608-0.196,1.179-0.275,1.703
						c-0.076,0.526-0.137,1.001-0.166,1.421c-0.031,0.419-0.021,0.768,0.016,1.046c0.05,0.264,0.131,0.447,0.227,0.555
						c0.117,0.097,0.179,0.148,0.179,0.148l0.034,0.028c0.041,0.034,0.046,0.094,0.013,0.135c-0.02,0.024-0.049,0.035-0.077,0.035
						c0,0-0.097-0.004-0.316-0.038c-0.206-0.051-0.487-0.248-0.713-0.568c-0.103-0.158-0.198-0.339-0.299-0.544
						c-0.068-0.199-0.162-0.426-0.225-0.661c-0.123-0.473-0.228-1.011-0.273-1.589c-0.058-0.58-0.075-1.204-0.051-1.855
						c0.005-0.655,0.074-1.335,0.172-2.032c0.219-1.391,0.638-2.83,0.996-4.27c0.739-2.878,1.562-5.717,2.271-7.821
						c0.685-2.109,1.204-3.494,1.204-3.494c0.019-0.052,0.077-0.078,0.129-0.059C281.563,314.322,281.589,314.37,281.579,314.417z"
						/>
				</g>
				<g>
					<path class="st13" d="M303.896,311.103c0,0,0.496,1.394,1.145,3.514c0.673,2.115,1.449,4.968,2.14,7.858
						c0.334,1.446,0.729,2.892,0.924,4.287c0.087,0.698,0.145,1.379,0.138,2.034c0.013,0.652-0.015,1.275-0.082,1.854
						c-0.054,0.577-0.169,1.114-0.299,1.584c-0.066,0.234-0.164,0.459-0.236,0.657c-0.104,0.203-0.202,0.383-0.308,0.539
						c-0.231,0.317-0.515,0.508-0.722,0.556c-0.22,0.031-0.317,0.033-0.317,0.033c-0.053,0.001-0.097-0.041-0.098-0.094
						c-0.001-0.031,0.013-0.058,0.035-0.076l0.035-0.028c0,0,0.063-0.051,0.181-0.145c0.098-0.107,0.182-0.288,0.236-0.552
						c0.041-0.277,0.057-0.626,0.033-1.046c-0.022-0.42-0.075-0.896-0.142-1.424c-0.07-0.525-0.153-1.098-0.246-1.708
						c-0.1-0.607-0.189-1.253-0.277-1.925c-0.152-1.345-0.232-2.808-0.431-4.259c-0.376-2.905-0.902-5.8-1.259-7.981
						c-0.388-2.177-0.646-3.629-0.646-3.629c-0.01-0.055,0.026-0.107,0.081-0.117C303.833,311.029,303.88,311.058,303.896,311.103z"
						/>
				</g>
			</g>
			<polygon class="st14" points="378.824,229.036 388.574,265.752 403.657,268.897 430.824,256.949 453.824,250 459.324,204.818 			
				"/>
			<path class="st15" d="M377.085,259.94c1.916,7.024,6.305,13.215,12.543,16.968c3.264,1.963,7.196,3.41,11.696,3.41
				c14,0,32-10,38.5-10s31.5-5.5,33-20c0,0-6-13-17-16.5l-0.819,2.32c-0.901,2.552-1.679,5.161-2.033,7.844
				c-0.352,2.672-3.615,7.816-22.751,9.752c-5.225,0.529-10.306,1.981-15.039,4.256c-8.174,3.93-21.947,8.541-29.918,0.106
				c-1.989-2.105-2.377-5.263-0.94-7.778l0,0l-4.75-17.25c0,0-6.25,3.25-6.75,11.25L377.085,259.94z"/>
			<g>
				<path class="st13" d="M455.678,249.902c0,0,1.033,0.093,2.425,0.754c0.341,0.173,0.721,0.352,1.094,0.588
					c0.391,0.214,0.754,0.504,1.147,0.787c0.379,0.298,0.76,0.623,1.136,0.967c0.35,0.364,0.751,0.705,1.075,1.106
					c0.341,0.388,0.698,0.771,1.004,1.178c0.313,0.402,0.644,0.794,0.866,1.223c0.225,0.429,0.441,0.846,0.588,1.266
					c0.144,0.42,0.263,0.823,0.356,1.199c0.207,0.745,0.23,1.408,0.257,1.863c0.019,0.458-0.007,0.727-0.007,0.727
					c-0.006,0.06-0.059,0.104-0.119,0.099c-0.026-0.002-0.049-0.014-0.067-0.031l-0.004-0.004c0,0-0.197-0.195-0.478-0.548
					c-0.143-0.176-0.303-0.392-0.478-0.64c-0.164-0.253-0.362-0.531-0.572-0.83c-0.211-0.3-0.421-0.63-0.626-0.984
					c-0.231-0.34-0.457-0.703-0.666-1.093c-0.2-0.395-0.407-0.802-0.617-1.217c-0.189-0.433-0.46-0.816-0.703-1.226
					c-0.239-0.414-0.551-0.767-0.82-1.152c-0.292-0.362-0.594-0.711-0.898-1.037c-0.623-0.637-1.249-1.195-1.829-1.626
					c-0.585-0.421-1.114-0.72-1.494-0.91c-0.383-0.187-0.612-0.262-0.612-0.262c-0.053-0.017-0.081-0.074-0.064-0.127
					C455.587,249.925,455.632,249.898,455.678,249.902z"/>
			</g>
			<g>
				<path class="st13" d="M460.604,239.837c0,0,1.075,0.025,2.577,0.564c0.373,0.137,0.78,0.286,1.193,0.48
					c0.427,0.172,0.836,0.424,1.28,0.658c0.427,0.257,0.869,0.527,1.303,0.823c0.419,0.313,0.876,0.602,1.278,0.951
					c0.415,0.335,0.843,0.664,1.232,1.019c0.393,0.35,0.799,0.686,1.113,1.076c0.315,0.389,0.616,0.77,0.856,1.162
					c0.236,0.394,0.444,0.776,0.621,1.136c0.372,0.709,0.554,1.37,0.687,1.825c0.126,0.459,0.165,0.735,0.165,0.735
					c0.008,0.059-0.033,0.114-0.092,0.123c-0.027,0.004-0.053-0.003-0.074-0.017l-0.004-0.003c0,0-0.239-0.156-0.6-0.456
					c-0.182-0.149-0.392-0.335-0.623-0.552c-0.222-0.224-0.484-0.464-0.761-0.729c-0.278-0.264-0.563-0.559-0.848-0.88
					c-0.309-0.302-0.613-0.633-0.909-0.992c-0.279-0.375-0.594-0.732-0.882-1.133c-0.283-0.406-0.632-0.757-0.96-1.135
					c-0.326-0.382-0.704-0.702-1.052-1.052c-0.361-0.333-0.733-0.642-1.095-0.94c-0.744-0.566-1.463-1.076-2.12-1.452
					c-0.656-0.373-1.236-0.634-1.649-0.795c-0.415-0.16-0.66-0.22-0.66-0.22c-0.054-0.013-0.087-0.068-0.074-0.122
					C460.515,239.866,460.558,239.835,460.604,239.837z"/>
			</g>
			<g>
				<path class="st13" d="M445.089,255.778c0,0,0.279,0.815,0.697,2.037c0.223,0.603,0.483,1.306,0.762,2.06
					c0.291,0.747,0.588,1.544,0.914,2.328c0.317,0.787,0.752,1.528,1.048,2.254c0.141,0.366,0.253,0.731,0.353,1.078
					c0.106,0.344,0.167,0.69,0.245,0.999c0.137,0.627,0.222,1.172,0.266,1.566c0.044,0.395,0.039,0.642,0.039,0.642
					c0,0.063-0.05,0.114-0.113,0.114c-0.022,0-0.046-0.008-0.063-0.019c0,0-0.819-0.54-1.588-1.647
					c-0.394-0.545-0.793-1.219-1.085-1.991c-0.286-0.776-0.411-1.661-0.624-2.507c-0.42-1.698-0.697-3.42-0.846-4.716
					c-0.165-1.292-0.2-2.164-0.2-2.164c-0.002-0.056,0.041-0.103,0.097-0.105C445.034,255.707,445.075,255.737,445.089,255.778z"/>
			</g>
			<g>
				<path class="st13" d="M430.754,259.673c0,0-0.013,0.598,0.088,1.476c0.109,0.877,0.346,2.016,0.682,3.104
					c0.165,0.548,0.472,1.048,0.635,1.543c0.08,0.249,0.146,0.494,0.179,0.739c0.036,0.244,0.077,0.475,0.094,0.699
					c0.028,0.22,0.019,0.438,0.036,0.625c0.007,0.191,0.006,0.362-0.003,0.51c-0.015,0.293-0.053,0.482-0.053,0.482
					c-0.012,0.069-0.077,0.115-0.145,0.103c-0.01-0.002-0.023-0.006-0.032-0.01c0,0-0.685-0.318-1.279-1.093
					c-0.317-0.376-0.596-0.869-0.785-1.435c-0.161-0.578-0.156-1.234-0.218-1.861c-0.114-1.261-0.02-2.523,0.177-3.436
					c0.175-0.916,0.429-1.489,0.429-1.489c0.023-0.051,0.083-0.075,0.134-0.052C430.733,259.595,430.755,259.634,430.754,259.673z"
					/>
			</g>
			<g>
				<path class="st13" d="M385.473,261.658c0,0-0.3,0.514-0.681,1.305c-0.185,0.398-0.388,0.865-0.583,1.366
					c-0.192,0.503-0.384,1.035-0.536,1.572c-0.062,0.272-0.134,0.542-0.156,0.814c-0.024,0.272-0.076,0.529-0.114,0.773
					c-0.055,0.241-0.143,0.468-0.213,0.685c-0.065,0.217-0.185,0.422-0.248,0.616c-0.07,0.194-0.162,0.376-0.244,0.543
					c-0.076,0.165-0.137,0.315-0.205,0.441c-0.128,0.254-0.236,0.414-0.236,0.414l-0.005,0.007
					c-0.038,0.057-0.116,0.072-0.173,0.034c-0.008-0.005-0.015-0.012-0.022-0.018c0,0-0.125-0.134-0.281-0.395
					c-0.176-0.262-0.332-0.656-0.43-1.151c-0.097-0.491-0.117-1.086,0.034-1.676c0.154-0.594,0.528-1.144,0.815-1.7
					c0.594-1.112,1.375-2.075,2.012-2.731c0.626-0.665,1.116-1.031,1.116-1.031c0.045-0.034,0.109-0.026,0.143,0.019
					C385.491,261.578,385.492,261.623,385.473,261.658z"/>
			</g>
			<path class="st16" d="M379.657,239.936c0,0-5.362,1.943-5.848,7.996"/>
			<g>
				<path class="st13" d="M460.68,302.126c-0.821,1.754-1.482,3.588-2.018,5.447c-0.263,0.932-0.499,1.871-0.682,2.819
					c-0.194,0.947-0.325,1.903-0.432,2.86c-0.081,0.958-0.128,1.922-0.103,2.875c0.03,0.948,0.184,1.886,0.425,2.8
					c0.494,1.831,1.375,3.531,2.545,5.03c2.353,3.106,4.654,6.253,6.892,9.451c1.116,1.602,2.215,3.217,3.273,4.866
					c1.052,1.659,2.088,3.315,2.942,5.171c0.089,0.193,0.084,0.404,0.004,0.584l-0.017,0.038c-0.902,2.002-1.738,4.068-2.523,6.136
					c-0.797,2.068-1.517,4.163-2.217,6.263c-0.674,2.108-1.327,4.22-1.906,6.35c-0.262,1.071-0.582,2.129-0.836,3.2
					c-0.243,1.073-0.548,2.136-0.741,3.218c-0.197,1.08-0.462,2.152-0.622,3.236c-0.176,1.082-0.383,2.164-0.472,3.253l-0.176,1.633
					c-0.048,0.544-0.047,1.089-0.073,1.634c-0.064,1.086-0.039,2.192-0.092,3.338c-0.103,2.257-0.338,4.499-0.676,6.719
					c-0.371,2.215-0.829,4.411-1.419,6.568c-0.014,0.053-0.069,0.085-0.123,0.071c-0.049-0.013-0.079-0.06-0.073-0.109
					c0.273-2.216,0.543-4.423,0.672-6.637c0.166-2.209,0.228-4.421,0.161-6.622c-0.049-1.083-0.088-2.205-0.084-3.348
					c0.002-0.569-0.022-1.141,0.003-1.708l0.107-1.698c0.045-1.138,0.207-2.257,0.34-3.382c0.106-1.131,0.346-2.234,0.547-3.346
					c0.186-1.117,0.482-2.203,0.718-3.307c0.237-1.103,0.564-2.181,0.863-3.266c0.629-2.161,1.324-4.299,2.084-6.412
					c0.775-2.107,1.568-4.206,2.438-6.273c0.865-2.072,1.757-4.118,2.731-6.16l-0.014,0.622c-0.733-1.701-1.719-3.385-2.713-5.033
					c-1.004-1.651-2.057-3.281-3.128-4.899c-2.144-3.237-4.378-6.418-6.63-9.589c-1.175-1.606-2.063-3.458-2.519-5.405
					c-0.224-0.974-0.354-1.974-0.354-2.973c0.006-0.994,0.085-1.974,0.2-2.952c0.14-0.974,0.305-1.942,0.532-2.896
					c0.217-0.956,0.486-1.898,0.781-2.831c0.602-1.861,1.323-3.681,2.209-5.425c0.025-0.049,0.085-0.069,0.134-0.044
					C460.684,302.017,460.703,302.078,460.68,302.126z"/>
			</g>
			<g>
				<path class="st13" d="M474.754,322.549c0,0-0.207,1.328-0.475,3.32c-0.247,1.995-0.595,4.647-0.759,7.3
					c-0.099,1.325-0.064,2.654-0.105,3.88c-0.049,0.615-0.063,1.202-0.128,1.762c-0.064,0.563-0.078,1.085-0.133,1.576
					c-0.056,0.494-0.072,0.936-0.102,1.338c-0.04,0.404-0.068,0.758-0.069,1.047c-0.02,0.584-0.064,0.944-0.064,0.944l-0.001,0.012
					c-0.007,0.057-0.058,0.098-0.115,0.091c-0.032-0.004-0.06-0.023-0.076-0.048c0,0-0.183-0.296-0.448-0.86
					c-0.147-0.281-0.271-0.633-0.388-1.043c-0.116-0.41-0.268-0.881-0.335-1.395c-0.085-0.514-0.185-1.08-0.204-1.67
					c-0.045-0.592-0.064-1.221-0.019-1.861c0.042-0.642,0.122-1.302,0.247-1.963c0.11-0.664,0.221-1.335,0.351-2.002
					c0.233-1.338,0.517-2.662,0.793-3.898c0.277-1.236,0.582-2.378,0.857-3.352c0.539-1.95,0.979-3.225,0.979-3.225
					c0.018-0.052,0.075-0.081,0.127-0.063C474.734,322.454,474.761,322.502,474.754,322.549z"/>
			</g>
			<g>
				<path class="st13" d="M473.399,364.931c0.558-0.908,1.178-1.774,1.843-2.605c0.657-0.838,1.364-1.638,2.106-2.405
					c0.358-0.397,0.759-0.751,1.145-1.121c0.38-0.377,0.792-0.72,1.206-1.06c0.409-0.346,0.821-0.691,1.267-0.993
					c0.443-0.304,0.86-0.649,1.326-0.92l1.389-0.834c0.478-0.251,0.973-0.475,1.462-0.709c0.482-0.253,1.002-0.414,1.515-0.596
					c0.517-0.169,1.019-0.391,1.559-0.484l1.6-0.359c0.54-0.081,1.088-0.113,1.634-0.171l0.82-0.077l0.822,0.029l1.648,0.062
					c0.374,0.014,0.666,0.329,0.652,0.703c-0.008,0.211-0.112,0.397-0.268,0.515l-0.065,0.049c-1.159,0.869-2.306,1.804-3.428,2.745
					c-1.123,0.945-2.223,1.918-3.299,2.914c-1.083,0.989-2.109,2.036-3.157,3.056c-1.018,1.049-2.037,2.096-3.033,3.158
					c-0.506,0.526-1.004,1.058-1.47,1.615c-0.472,0.552-0.985,1.074-1.445,1.635l-1.377,1.688c-0.467,0.559-0.862,1.163-1.299,1.744
					c-0.209,0.296-0.443,0.578-0.644,0.88l-0.578,0.918c-0.372,0.62-0.822,1.207-1.119,1.866c-0.31,0.651-0.72,1.273-0.994,1.946
					c-0.257,0.679-0.523,1.362-0.81,2.052l-0.006,0.014c-0.021,0.051-0.079,0.075-0.13,0.054c-0.043-0.018-0.067-0.063-0.06-0.108
					c0.118-0.733,0.258-1.472,0.406-2.216c0.168-0.736,0.44-1.439,0.68-2.158c0.223-0.731,0.576-1.396,0.898-2.08
					c0.32-0.687,0.655-1.368,1.059-2.004c0.398-0.639,0.761-1.309,1.191-1.927l1.308-1.844c0.447-0.606,0.927-1.184,1.4-1.769
					c0.472-0.587,0.973-1.145,1.482-1.696c0.513-0.547,0.988-1.132,1.541-1.639l1.61-1.566c1.104-1.009,2.227-1.997,3.374-2.951
					c1.139-0.964,2.304-1.896,3.482-2.809c1.182-0.914,2.364-1.804,3.608-2.662l0.319,1.267l-1.522-0.115l-0.763-0.06l-0.763,0.043
					c-0.508,0.035-1.021,0.043-1.528,0.098l-1.51,0.277c-0.511,0.064-0.991,0.259-1.486,0.398c-0.491,0.153-0.991,0.283-1.458,0.507
					c-0.472,0.207-0.955,0.394-1.426,0.609l-1.374,0.73c-0.463,0.237-0.882,0.55-1.327,0.821c-0.447,0.269-0.864,0.583-1.281,0.899
					c-0.421,0.31-0.841,0.623-1.231,0.972c-0.396,0.342-0.808,0.669-1.18,1.04c-0.768,0.715-1.506,1.466-2.198,2.259
					c-0.7,0.786-1.36,1.612-1.956,2.477c-0.03,0.046-0.092,0.059-0.139,0.028C473.385,365.037,473.373,364.977,473.399,364.931z"/>
			</g>
			<path class="st14" d="M352.725,179.318c0-15.667-29.333-20.333-27.667,6.667c0.744,12.048,8.921,19.716,17.75,24.513
				L352.725,179.318z"/>
			<ellipse class="st14" cx="403.657" cy="181.958" rx="73.333" ry="57.974"/>
			<path class="st17" d="M395.657,233.985c0,0,12,7.333,23.333-1.333c5.437-4.158,5.657-10.157,4.415-15.273"/>
			<path class="st17" d="M361.324,200.318c-10.667,12-2,32,20.333,17.333"/>
			<path class="st17" d="M379.657,226.318c0,0,10.667,9,17.333-5"/>
			
				<ellipse transform="matrix(-0.9874 0.1582 -0.1582 -0.9874 811.8785 317.5272)" class="st7" cx="393.302" cy="191.075" rx="3.985" ry="9.833"/>
			
				<ellipse transform="matrix(-0.9874 0.1582 -0.1582 -0.9874 737.8899 323.3981)" class="st7" cx="356.074" cy="191.066" rx="3.603" ry="8.891"/>
			<g>
				<g>
					<ellipse class="st18" cx="388.574" cy="397.513" rx="56.25" ry="17.114"/>
					<ellipse class="st19" cx="388.574" cy="388.781" rx="70.75" ry="21.526"/>
					<g>
						<defs>
							<ellipse id="SVGID_3_" cx="388.574" cy="386.337" rx="56.25" ry="17.114"/>
						</defs>
						<use xlink:href="#SVGID_3_"  style="overflow:visible;fill:#E3EEF0;"/>
						<clipPath id="SVGID_4_">
							<use xlink:href="#SVGID_3_"  style="overflow:visible;"/>
						</clipPath>
						<ellipse class="st20" cx="388.574" cy="391.389" rx="50.319" ry="15.31"/>
						<use xlink:href="#SVGID_3_"  style="overflow:visible;fill:none;stroke:#A4B3B7;stroke-width:2;stroke-miterlimit:10;"/>
					</g>
				</g>
				<g>
					<defs>
						<path id="SVGID_5_" d="M365.579,399.622c10.66,1.128,43.612,3.693,58.154-5.763c1.936-1.259,3.144-3.343,3.381-5.609
							l4.256-40.662c0.163-1.558-0.737-3.044-2.216-3.66l-32.876-13.676c-1.228-0.511-2.619-0.409-3.773,0.233
							c-2.269,1.263-6.523,2.995-11.043,1.569c-1.244-0.392-2.615-0.228-3.731,0.426c-2.224,1.303-6.798,2.639-14.339-0.939
							c0,0-14.149,1.003-14.478,5.52l-0.272,37.703l11.948,21.584C361.603,398.176,363.469,399.399,365.579,399.622z"/>
					</defs>
					<use xlink:href="#SVGID_5_"  style="overflow:visible;fill:#513220;"/>
					<clipPath id="SVGID_6_">
						<use xlink:href="#SVGID_5_"  style="overflow:visible;"/>
					</clipPath>
					<path class="st21" d="M344.31,329.748l16.414,18.085c2.339,2.577,5.616,4.149,9.124,4.37
						c14.411,0.907,53.462,1.958,75.986-11.001l-54.589-21.171L344.31,329.748z"/>
					<g class="st22">
						<path class="st23" d="M349.223,352.639l10.33,15.637c0,0,38.108,9.665,70.244-4.185"/>
						<path class="st23" d="M348.7,366.734l11.637,18.471c0,0,39.236,10.151,67.08-4.372"/>
					</g>
					<use xlink:href="#SVGID_5_"  style="overflow:visible;fill:none;stroke:#C49576;stroke-width:1.8403;stroke-miterlimit:10;"/>
				</g>
				<g>
					<path class="st24" d="M356.224,349.929c0,0,0.19,2.433,0.668,6.056c0.132,0.905,0.258,1.885,0.428,2.918
						c0.162,1.033,0.332,2.121,0.508,3.248c0.361,2.25,0.816,4.638,1.292,7.019c0.266,1.186,0.517,2.373,0.8,3.534
						c0.301,1.158,0.575,2.3,0.796,3.414c0.225,1.113,0.422,2.193,0.551,3.23c0.145,1.034,0.297,2.009,0.392,2.921
						c0.115,0.907,0.168,1.752,0.249,2.495c0.066,0.746,0.112,1.4,0.134,1.944c0.051,1.086,0.028,1.722,0.028,1.722
						c-0.001,0.086-0.072,0.155-0.158,0.153c-0.055-0.001-0.105-0.034-0.132-0.078c0,0-0.317-0.548-0.781-1.536
						c-0.471-0.986-1.09-2.412-1.68-4.167c-0.299-0.876-0.621-1.828-0.891-2.85c-0.294-1.018-0.545-2.105-0.78-3.234
						c-0.407-2.272-0.611-4.734-0.899-7.175c-0.259-2.447-0.495-4.892-0.649-7.191c-0.184-2.295-0.234-4.447-0.274-6.286
						c-0.072-3.682,0.097-6.135,0.097-6.135c0.006-0.083,0.077-0.145,0.16-0.14C356.16,349.795,356.219,349.856,356.224,349.929z"/>
				</g>
				<path class="st25" d="M357.079,341.765c1.454-0.18,3.874,0.176,6.703,3.198c0,0,5.502-5.621,12.453-1.584
					c0,0,3.493-5.945,13.617-2.669c0,0,4.78-5.443,15.225,0.48c0,0,6.593-8.885,12.973-1.879c0,0,3.506-3.768,10.041-1.217
					c4.204,1.641,4.356,5.1,3.93,7.359c-0.241,1.277-1.238,2.279-2.536,2.558c-8.125,1.75-40.821,8.114-64.639,2.891
					c0,0-4.953-3.452-8.37-7.593C356,342.733,356.331,341.858,357.079,341.765z"/>
				<path class="st26" d="M348.324,270.318l-63.318,27.702c0,0-14.349,6.965-16.682,2.632c-2.333-4.333,6.667-8,6.667-8l70.21-26.9
					c0,0,1.192-5.436,7.525-6.769c6.333-1.333,8.598-0.665,8.598-0.665s8.942,10.15,4.83,11.907
					C362.514,271.782,356.324,272.717,348.324,270.318z"/>
				<g>
					<g>
						<defs>
							<path id="SVGID_7_" d="M347.665,257.681l6.932,8.971c1.349,1.746,3.136,3.105,5.18,3.938l1.891,0.771
								c2.136,0.871,4.536,0.79,6.606-0.228c4.43-2.18,12.264-6.193,16.589-9.342c1.542-1.123,2.462-2.905,2.462-4.813l0-3.009
								c0-1.644-0.379-3.265-1.106-4.739l-4.27-8.649c-0.248-0.502-0.955-0.51-1.221-0.018c-1.432,2.653-5.393,8.17-11.403,2.421
								c0,0-6.021,10.37-8.705,1.32c-0.179-0.605-0.899-0.851-1.397-0.464l-10.876,8.459
								C346.675,253.6,346.371,256.006,347.665,257.681z"/>
						</defs>
						<use xlink:href="#SVGID_7_"  style="overflow:visible;fill:#8B5E3C;"/>
						<clipPath id="SVGID_8_">
							<use xlink:href="#SVGID_7_"  style="overflow:visible;"/>
						</clipPath>
						<path class="st27" d="M351.324,264.651c0,0,5.333,5.167,9.833,2.833c3.166-1.642,13.758-8.152,19.759-11.866
							c2.542-1.574,3.797-4.584,3.133-7.499l-2.725-11.968l18.167,5l-2.667,19.833l-29.73,17.833l-14.27-6L351.324,264.651z"/>
						<use xlink:href="#SVGID_7_"  style="overflow:visible;fill:none;stroke:#C49576;stroke-width:2;stroke-miterlimit:10;"/>
					</g>
					<path class="st28" d="M358.219,269.823l2.299,0.304c2.572,0.34,5.184-0.201,7.409-1.534l14.053-8.415
						c3.204-1.919,4.856-5.645,4.125-9.308l-0.624-3.13"/>
				</g>
			</g>
			<g>
				<g>
					<ellipse class="st18" cx="108.014" cy="397.513" rx="56.25" ry="17.114"/>
					<ellipse class="st19" cx="108.014" cy="388.781" rx="70.75" ry="21.526"/>
					<g>
						<defs>
							<ellipse id="SVGID_9_" cx="108.014" cy="386.337" rx="56.25" ry="17.114"/>
						</defs>
						<use xlink:href="#SVGID_9_"  style="overflow:visible;fill:#E3EEF0;"/>
						<clipPath id="SVGID_10_">
							<use xlink:href="#SVGID_9_"  style="overflow:visible;"/>
						</clipPath>
						<ellipse class="st29" cx="108.014" cy="391.389" rx="50.319" ry="15.31"/>
						<use xlink:href="#SVGID_9_"  style="overflow:visible;fill:none;stroke:#A4B3B7;stroke-width:2;stroke-miterlimit:10;"/>
					</g>
				</g>
				<g>
					<defs>
						<path id="SVGID_11_" d="M131.008,399.622c-10.66,1.128-43.612,3.693-58.154-5.763c-1.936-1.259-3.144-3.343-3.381-5.609
							l-4.256-40.662c-0.163-1.558,0.737-3.044,2.216-3.66l32.876-13.676c1.228-0.511,2.619-0.409,3.773,0.233
							c2.269,1.263,6.523,2.995,11.043,1.569c1.244-0.392,2.615-0.228,3.731,0.426c2.224,1.303,6.798,2.639,14.339-0.939
							c0,0,14.149,1.003,14.478,5.52l0.272,37.703l-11.948,21.584C134.985,398.176,133.118,399.399,131.008,399.622z"/>
					</defs>
					<use xlink:href="#SVGID_11_"  style="overflow:visible;fill:#513220;"/>
					<clipPath id="SVGID_12_">
						<use xlink:href="#SVGID_11_"  style="overflow:visible;"/>
					</clipPath>
					<path class="st30" d="M152.278,329.748l-16.414,18.085c-2.339,2.577-5.616,4.149-9.124,4.37
						c-14.411,0.907-53.463,1.958-75.986-11.001l54.589-21.171L152.278,329.748z"/>
					<g class="st31">
						<path class="st23" d="M147.364,352.639l-10.33,15.637c0,0-38.108,9.665-70.244-4.185"/>
						<path class="st23" d="M147.887,366.734l-11.637,18.471c0,0-39.236,10.151-67.08-4.372"/>
					</g>
					<use xlink:href="#SVGID_11_"  style="overflow:visible;fill:none;stroke:#C49576;stroke-width:1.8403;stroke-miterlimit:10;"/>
				</g>
				<g>
					<path class="st24" d="M140.663,349.93c0,0,0.169,2.453,0.097,6.135c-0.04,1.84-0.09,3.992-0.274,6.286
						c-0.154,2.298-0.39,4.744-0.649,7.191c-0.288,2.441-0.492,4.903-0.899,7.175c-0.235,1.129-0.486,2.216-0.78,3.234
						c-0.27,1.023-0.592,1.974-0.891,2.85c-0.59,1.755-1.209,3.181-1.68,4.167c-0.464,0.987-0.781,1.536-0.781,1.536
						c-0.043,0.074-0.138,0.1-0.213,0.057c-0.048-0.028-0.076-0.081-0.078-0.132c0,0-0.023-0.636,0.028-1.722
						c0.022-0.544,0.068-1.198,0.134-1.944c0.081-0.742,0.135-1.587,0.249-2.495c0.095-0.912,0.248-1.887,0.392-2.921
						c0.129-1.037,0.326-2.117,0.551-3.23c0.22-1.114,0.495-2.255,0.796-3.414c0.283-1.161,0.534-2.349,0.8-3.534
						c0.476-2.38,0.932-4.768,1.292-7.019c0.176-1.126,0.347-2.215,0.508-3.248c0.17-1.033,0.296-2.013,0.428-2.918
						c0.478-3.623,0.668-6.056,0.668-6.056c0.006-0.083,0.078-0.145,0.161-0.139C140.6,349.796,140.658,349.857,140.663,349.93z"/>
				</g>
				<path class="st25" d="M139.509,341.765c-1.454-0.18-3.874,0.176-6.703,3.198c0,0-5.502-5.621-12.453-1.584
					c0,0-3.493-5.945-13.617-2.669c0,0-4.78-5.443-15.225,0.48c0,0-6.593-8.885-12.973-1.879c0,0-3.506-3.768-10.041-1.217
					c-4.204,1.641-4.356,5.1-3.93,7.359c0.241,1.277,1.238,2.279,2.536,2.558c8.125,1.75,40.821,8.114,64.639,2.891
					c0,0,4.953-3.452,8.37-7.593C140.587,342.733,140.257,341.858,139.509,341.765z"/>
				<path class="st26" d="M148.264,270.318l63.318,27.702c0,0,14.349,6.965,16.682,2.632c2.333-4.333-6.667-8-6.667-8l-70.21-26.9
					c0,0-1.192-5.436-7.525-6.769c-6.333-1.333-8.598-0.665-8.598-0.665s-8.942,10.15-4.83,11.907
					C134.073,271.782,140.264,272.717,148.264,270.318z"/>
				<g>
					<g>
						<defs>
							<path id="SVGID_13_" d="M148.923,257.681l-6.932,8.971c-1.349,1.746-3.136,3.105-5.18,3.938l-1.891,0.771
								c-2.136,0.871-4.536,0.79-6.606-0.228c-4.43-2.18-12.264-6.193-16.589-9.342c-1.542-1.123-2.462-2.905-2.462-4.813l0-3.009
								c0-1.644,0.379-3.265,1.106-4.739l4.27-8.649c0.248-0.502,0.955-0.51,1.221-0.018c1.432,2.653,5.393,8.17,11.403,2.421
								c0,0,6.021,10.37,8.705,1.32c0.179-0.605,0.899-0.851,1.397-0.464l10.876,8.459
								C149.912,253.6,150.217,256.006,148.923,257.681z"/>
						</defs>
						<use xlink:href="#SVGID_13_"  style="overflow:visible;fill:#8B5E3C;"/>
						<clipPath id="SVGID_14_">
							<use xlink:href="#SVGID_13_"  style="overflow:visible;"/>
						</clipPath>
						<path class="st32" d="M145.264,264.651c0,0-5.333,5.167-9.833,2.833c-3.166-1.642-13.758-8.152-19.759-11.866
							c-2.542-1.574-3.797-4.584-3.133-7.499l2.725-11.968l-18.167,5l2.667,19.833l29.73,17.833l14.27-6L145.264,264.651z"/>
						<use xlink:href="#SVGID_13_"  style="overflow:visible;fill:none;stroke:#C49576;stroke-width:2;stroke-miterlimit:10;"/>
					</g>
					<path class="st28" d="M138.369,269.823l-2.299,0.304c-2.572,0.34-5.184-0.201-7.409-1.534l-14.053-8.415
						c-3.204-1.919-4.856-5.645-4.125-9.308l0.624-3.13"/>
				</g>
			</g>
			<path class="st14" d="M273.574,291.568c0,0-7.21-27.497,26.276-46.421c7.9-4.465,17.126-6.265,26.047-4.6
				c0.094,0.018,0.192,0.02,0.281,0.054c14.396,5.467,24.843,26.87,18.813,37.406c-8,13.978-42.667,3.895-54,6.936
				C279.657,287.985,273.574,291.568,273.574,291.568z"/>
			<path class="st33" d="M327.324,176.651c0,0,4.667,0,8-3.333v2.333c0,0,2.667,3,25,3.667c0,0,1.333-14.333,4-19
				c0,0-0.333,8.333,0.667,15.667l13.333-1c0,0,19.667,7.667,35.667,3.667c0,0-1.333-19.333,3-20.667c0,0,5.667,3,9.333,21
				c0,0,21,4.333,38-2.333l7,27c0,0,6-4,8-9.333c2-5.333,4-46.667-26.667-65.667c0,0,7,0.333,8.333-2.333c0,0-4-7.333-27.333-9.333
				c0,0,1-7-5-11c0,0-2.667,3-4,9.333c0,0-6-12-22.667-9.667c0,0,3.667,5.333,9.667,9.667c0,0-42.333-20.333-88,38.667
				c0,0,1,4.333,4.667,5.667C328.324,159.651,324.324,171.345,327.324,176.651z"/>
			<path class="st34" d="M399.326,179.626c0,0-1.998-5.308,0-11.975"/>
			<path class="st34" d="M385.99,167.651c0,0-1.333,5.072,0,9.703"/>
			<g>
				<g>
					<path class="st35" d="M360.259,126.242c0,0,0.534-0.497,1.537-1.279c0.5-0.393,1.121-0.853,1.843-1.368
						c0.732-0.5,1.551-1.077,2.488-1.64c0.917-0.598,1.957-1.163,3.052-1.776c1.105-0.591,2.302-1.163,3.55-1.727
						c1.268-0.517,2.559-1.114,3.935-1.552c0.682-0.236,1.37-0.475,2.06-0.714c0.705-0.194,1.412-0.389,2.12-0.585
						c1.405-0.442,2.857-0.681,4.275-0.992l1.061-0.223c0.357-0.044,0.712-0.088,1.065-0.132c0.707-0.081,1.406-0.161,2.093-0.24
						c0.344-0.031,0.686-0.062,1.024-0.093c0.34,0,0.677-0.001,1.01-0.001c0.666,0.003,1.318,0.009,1.951,0.029
						c0.633,0.031,1.25-0.002,1.842,0.079c0.591,0.076,1.163,0.149,1.711,0.219c0.546,0.076,1.069,0.149,1.567,0.218
						c0.496,0.075,0.968,0.125,1.401,0.257c0.871,0.217,1.624,0.418,2.24,0.598c1.235,0.338,1.926,0.566,1.926,0.566l-0.041,0.196
						c0,0-0.738-0.002-2.003-0.068c-0.634-0.022-1.398-0.067-2.268-0.131c-0.869-0.08-1.863-0.003-2.931-0.038
						c-1.07-0.011-2.224-0.06-3.445,0.04c-0.61,0.037-1.236,0.061-1.875,0.082c-0.32,0.009-0.643,0.018-0.969,0.028
						c-0.325,0.033-0.653,0.066-0.984,0.099c-0.663,0.051-1.337,0.102-2.02,0.154c-0.342,0.024-0.686,0.048-1.032,0.073
						l-1.035,0.141c-1.386,0.192-2.805,0.353-4.19,0.696c-0.697,0.154-1.394,0.307-2.088,0.46c-0.683,0.198-1.364,0.395-2.039,0.591
						c-1.364,0.357-2.651,0.875-3.92,1.316c-1.252,0.483-2.446,1.001-3.574,1.499c-1.115,0.528-2.179,1.013-3.121,1.539
						c-0.962,0.491-1.808,1.004-2.566,1.448c-0.748,0.459-1.394,0.871-1.915,1.226c-1.047,0.705-1.607,1.159-1.607,1.159
						L360.259,126.242z"/>
				</g>
				<g>
					<path class="st35" d="M445.053,142.573c0,0,1.064,0.686,2.399,2.027c0.671,0.666,1.424,1.482,2.129,2.438
						c0.365,0.47,0.718,0.973,1.057,1.5c0.361,0.514,0.663,1.074,0.992,1.622c0.332,0.547,0.596,1.129,0.908,1.681
						c0.289,0.562,0.527,1.138,0.746,1.699c0.192,0.57,0.322,1.139,0.43,1.68c0.131,0.535,0.156,1.063,0.201,1.541
						c0.036,0.48,0.075,0.917,0.048,1.312c-0.019,0.394-0.044,0.736-0.076,1.017c-0.059,0.562-0.129,0.882-0.129,0.882l-0.199,0.023
						c0,0-0.162-0.293-0.382-0.803c-0.112-0.254-0.235-0.564-0.366-0.916c-0.112-0.357-0.309-0.741-0.459-1.171
						c-0.174-0.424-0.303-0.895-0.504-1.373c-0.203-0.477-0.355-0.996-0.538-1.525c-0.189-0.526-0.335-1.088-0.505-1.655
						c-0.193-0.557-0.377-1.133-0.611-1.688c-0.246-0.549-0.466-1.115-0.748-1.639c-0.26-0.537-0.537-1.054-0.829-1.543
						c-0.27-0.503-0.594-0.948-0.861-1.401c-0.294-0.432-0.564-0.852-0.842-1.216c-1.092-1.48-1.985-2.337-1.985-2.337
						L445.053,142.573z"/>
				</g>
				<g>
					<path class="st35" d="M436.005,123.219c0,0,0.734,0.073,1.987,0.354c0.618,0.167,1.387,0.325,2.231,0.621
						c0.86,0.256,1.802,0.621,2.825,1.039c0.522,0.187,1.024,0.469,1.567,0.717c0.534,0.264,1.107,0.504,1.646,0.837
						c0.549,0.318,1.114,0.646,1.69,0.98c0.573,0.342,1.113,0.758,1.689,1.146c1.172,0.752,2.234,1.718,3.368,2.638
						c0.579,0.448,1.06,1.009,1.6,1.514c0.52,0.524,1.069,1.028,1.571,1.574c0.946,1.139,1.97,2.228,2.845,3.4
						c0.844,1.191,1.717,2.349,2.431,3.544c0.664,1.224,1.293,2.417,1.852,3.562c0.502,1.171,0.907,2.307,1.292,3.347
						c0.186,0.521,0.365,1.021,0.535,1.496c0.152,0.481,0.259,0.949,0.367,1.387c0.215,0.875,0.39,1.638,0.519,2.27
						c0.279,1.257,0.401,1.979,0.401,1.979l-0.192,0.056c0,0-0.343-0.658-0.878-1.818c-0.278-0.576-0.597-1.28-0.949-2.088
						c-0.188-0.399-0.342-0.841-0.564-1.283c-0.227-0.438-0.466-0.899-0.715-1.38c-0.481-0.963-1.001-2.007-1.552-3.111
						c-0.637-1.055-1.27-2.182-1.911-3.358c-0.64-1.175-1.449-2.296-2.161-3.513c-0.751-1.19-1.682-2.277-2.525-3.436
						c-0.455-0.55-0.958-1.06-1.433-1.591c-0.495-0.512-0.932-1.082-1.467-1.54c-1.047-0.941-2.029-1.934-3.125-2.717
						c-0.537-0.404-1.042-0.837-1.581-1.197c-0.541-0.358-1.07-0.708-1.586-1.049c-0.504-0.362-1.043-0.63-1.546-0.924
						c-0.512-0.277-0.986-0.589-1.482-0.805c-0.971-0.477-1.871-0.9-2.697-1.208c-0.811-0.349-1.553-0.554-2.152-0.762
						c-1.216-0.361-1.93-0.482-1.93-0.482L436.005,123.219z"/>
				</g>
				<g>
					<path class="st35" d="M328.228,159.624c0,0,0.441-1.993,1.566-4.833c0.548-1.426,1.264-3.062,2.148-4.76
						c0.445-0.847,0.902-1.726,1.423-2.588c0.493-0.879,1.043-1.742,1.604-2.6c0.53-0.88,1.157-1.692,1.723-2.533
						c0.559-0.847,1.215-1.599,1.824-2.348c0.612-0.746,1.31-1.374,1.947-1.986c0.626-0.624,1.283-1.146,1.894-1.618
						c0.61-0.473,1.16-0.914,1.69-1.253c0.531-0.337,0.997-0.623,1.387-0.849c0.776-0.456,1.238-0.684,1.238-0.684l0.122,0.158
						c0,0-0.319,0.414-0.907,1.082c-0.293,0.336-0.655,0.732-1.074,1.177c-0.424,0.439-0.851,0.99-1.361,1.536
						c-0.5,0.557-1.057,1.141-1.602,1.801c-0.537,0.666-1.183,1.29-1.769,2.013c-0.598,0.71-1.292,1.381-1.918,2.133
						c-0.633,0.746-1.298,1.491-1.886,2.295c-0.606,0.791-1.204,1.59-1.747,2.41c-0.571,0.802-1.079,1.626-1.576,2.421
						c-0.504,0.792-0.927,1.594-1.369,2.335c-0.405,0.759-0.813,1.468-1.138,2.146c-1.359,2.693-2.025,4.599-2.025,4.599
						L328.228,159.624z"/>
				</g>
				<g>
					<path class="st35" d="M348.224,166.632c0,0-0.016-1.017,0.073-2.536c0.062-1.525,0.291-3.544,0.627-5.568
						c0.175-1.009,0.3-2.045,0.593-2.979c0.305-0.927,0.74-1.754,1.2-2.413c0.205-0.338,0.47-0.618,0.686-0.864
						c0.217-0.246,0.424-0.446,0.627-0.589c0.383-0.296,0.618-0.427,0.618-0.427l0.155,0.126c0,0-0.055,0.28-0.18,0.703
						c-0.069,0.206-0.134,0.465-0.202,0.763c-0.076,0.293-0.172,0.605-0.254,0.966c-0.081,0.36-0.203,0.723-0.301,1.133
						c-0.094,0.408-0.24,0.815-0.369,1.255c-0.306,0.855-0.72,1.759-1.017,2.706c-0.624,1.885-1.097,3.833-1.477,5.294
						c-0.347,1.471-0.579,2.452-0.579,2.452L348.224,166.632z"/>
				</g>
				<g>
					<path class="st35" d="M339.868,177.37c0,0-0.456-2.01-0.52-5.091c-0.035-0.77-0.003-1.603,0.004-2.488
						c0.056-0.88,0.084-1.816,0.212-2.773c0.055-0.48,0.11-0.968,0.166-1.463c0.081-0.491,0.164-0.988,0.247-1.488
						c0.143-1.008,0.401-2.008,0.62-3.02c0.212-1.014,0.545-1.995,0.795-2.988c0.284-0.981,0.644-1.922,0.987-2.834
						c0.375-0.898,0.823-1.729,1.244-2.515c0.395-0.8,0.898-1.485,1.323-2.135c0.442-0.64,0.819-1.241,1.242-1.716
						c0.408-0.484,0.769-0.9,1.074-1.235c0.607-0.672,0.98-1.031,0.98-1.031l0.164,0.115c0,0-0.182,0.493-0.546,1.311
						c-0.18,0.41-0.409,0.899-0.677,1.453c-0.293,0.539-0.517,1.206-0.841,1.883c-0.293,0.695-0.681,1.407-0.985,2.211
						c-0.307,0.802-0.706,1.61-1.061,2.471c-0.342,0.866-0.761,1.736-1.137,2.643c-0.342,0.918-0.731,1.842-1.022,2.798
						c-0.282,0.958-0.606,1.908-0.814,2.871c-0.116,0.48-0.232,0.955-0.346,1.425c-0.09,0.475-0.179,0.945-0.266,1.407
						c-0.199,0.922-0.274,1.829-0.418,2.684c-0.088,0.859-0.197,1.673-0.234,2.428c-0.208,3.023,0.006,5.045,0.006,5.045
						L339.868,177.37z"/>
				</g>
				<g>
					<path class="st35" d="M335.224,173.317c0,0-0.098-1.196,0.076-2.98c0.089-0.89,0.214-1.932,0.447-3.029
						c0.217-1.101,0.507-2.263,0.836-3.417c0.343-1.148,0.649-2.319,1.083-3.359c0.466-1.025,1.007-1.931,1.544-2.661
						c1.042-1.481,2.028-2.27,2.028-2.27l0.173,0.1c0,0-0.042,0.316-0.167,0.832c-0.06,0.259-0.145,0.567-0.249,0.914
						c-0.114,0.342-0.22,0.737-0.361,1.153c-0.133,0.42-0.302,0.861-0.478,1.326c-0.158,0.474-0.36,0.955-0.584,1.447
						c-0.227,0.49-0.47,0.992-0.742,1.495c-0.269,0.504-0.49,1.037-0.74,1.561c-0.456,1.064-0.878,2.145-1.223,3.177
						c-0.345,1.032-0.637,2.007-0.866,2.853c-0.436,1.695-0.578,2.86-0.578,2.86L335.224,173.317z"/>
				</g>
			</g>
			<path class="st14" d="M451.657,179.318c0-15.667,29.333-20.333,27.667,6.667c-0.744,12.048-8.921,19.716-17.75,24.513"/>
		</g>
		<path class="st5" d="M222.207,291.568c0,0,7.21-27.497-26.276-46.421c-7.9-4.465-17.126-6.265-26.047-4.6
			c-0.094,0.018-0.192,0.02-0.281,0.054c-14.396,5.467-24.843,26.87-18.813,37.406c8,13.978,42.667,3.895,54,6.936
			C216.124,287.985,222.207,291.568,222.207,291.568z"/>
	</g>
</g>
</svg>
