<?xml version="1.0" encoding="utf-8"?>
<!-- Generator: Adobe Illustrator 19.1.0, SVG Export Plug-In . SVG Version: 6.00 Build 0)  -->
<svg version="1.1" id="Layer_1" xmlns="http://www.w3.org/2000/svg" xmlns:xlink="http://www.w3.org/1999/xlink" x="0px" y="0px"
	 width="500px" height="500px" viewBox="0 0 500 500" style="enable-background:new 0 0 500 500;" xml:space="preserve">
<style type="text/css">
	.st0{fill:#7C7C3E;stroke:#494822;stroke-width:1.5;stroke-miterlimit:10;}
	.st1{clip-path:url(#SVGID_2_);}
	.st2{fill:#80DDD6;}
	.st3{fill:#FFFFFF;stroke:#6D6E71;stroke-width:1.5;stroke-linecap:round;stroke-linejoin:round;stroke-miterlimit:10;}
	.st4{fill:#E6E7E8;stroke:#848C91;stroke-width:2;stroke-miterlimit:10;}
	.st5{clip-path:url(#SVGID_4_);fill:#DBB878;stroke:#EACC9B;stroke-miterlimit:10;}
	.st6{fill:none;stroke:#929499;stroke-width:1.5;stroke-linecap:round;stroke-linejoin:round;stroke-miterlimit:10;}
	.st7{fill:#929499;}
	.st8{fill:#FFFFFF;}
	.st9{fill:#6D6E71;}
	.st10{fill:#906445;stroke:#3B2416;stroke-width:1.5;stroke-linecap:round;stroke-linejoin:round;stroke-miterlimit:10;}
	.st11{fill:none;stroke:#3B2416;stroke-width:1.5;stroke-linecap:round;stroke-linejoin:round;stroke-miterlimit:10;}
	.st12{fill:#231F20;}
	.st13{fill:#D1D3D4;stroke:#6D6E71;stroke-width:1.5;stroke-linecap:round;stroke-linejoin:round;stroke-miterlimit:10;}
	.st14{fill:#BCBEC0;}
	.st15{fill:#FFFFFF;stroke:#939598;stroke-width:1.5;stroke-linecap:round;stroke-linejoin:round;stroke-miterlimit:10;}
	.st16{fill:#3B2416;}
	.st17{clip-path:url(#SVGID_6_);fill:#FCFCA4;stroke:#97A560;stroke-miterlimit:10;}
	.st18{clip-path:url(#SVGID_8_);fill:#FCFCA4;stroke:#97A560;stroke-width:0.9873;stroke-miterlimit:10;}
	.st19{clip-path:url(#SVGID_10_);fill:#FCFCA4;stroke:#97A560;stroke-width:1.5;stroke-miterlimit:10;}
	.st20{clip-path:url(#SVGID_12_);fill:#FCFCA4;stroke:#97A560;stroke-miterlimit:10;}
	.st21{clip-path:url(#SVGID_14_);fill:#464C51;stroke:#6B7177;stroke-width:1.25;stroke-miterlimit:10;}
	.st22{clip-path:url(#SVGID_16_);fill:#DCEAEA;stroke:#849997;stroke-miterlimit:10;}
	.st23{clip-path:url(#SVGID_18_);fill:#493217;stroke:#7C5834;stroke-width:1.5;stroke-miterlimit:10;}
	.st24{fill:#009444;stroke:#006838;stroke-width:1.5;stroke-miterlimit:10;}
	.st25{fill:#009444;}
	.st26{fill:#006838;}
	.st27{fill:#BF2326;stroke:#841618;stroke-width:1.5;stroke-miterlimit:10;}
</style>
<symbol  id="New_Symbol_3" viewBox="-5.552 -7.978 11.104 15.956">
	<path class="st0" d="M4.637,0.803c0.687-3.967-0.833-7.542-3.394-7.985s-5.194,2.413-5.88,6.38s0.833,7.542,3.394,7.985
		C1.317,7.627,3.95,4.77,4.637,0.803z"/>
</symbol>
<g>
	<defs>
		<rect id="SVGID_1_" x="0.133" y="0.133" width="499.734" height="499.734"/>
	</defs>
	<clipPath id="SVGID_2_">
		<use xlink:href="#SVGID_1_"  style="overflow:visible;"/>
	</clipPath>
	<g class="st1">
		<rect x="0.133" y="0.133" class="st2" width="499.734" height="499.734"/>
		<path class="st3" d="M311.867,369.201c21.333-23.333-16-66.158-16-66.158L272.2,263.201
			c-5.217-12.919-17.655-27.318-23.653-33.815c-2.336-2.531-5.052-4.672-8.065-6.341c-25.084-13.888-63.282-19.177-63.282-19.177
			l-43.12,4.316c-2.319,0.232-4.577,0.885-6.662,1.926L105.2,221.201l-9.48,4.514c-3.835,1.826-7.287,4.356-10.165,7.48
			c-6.306,6.843-17.597,21.463-32.354,50.356c-16.972,33.229-17.014,63.786-15.775,77.977c0.441,5.053,3.46,9.515,7.997,11.783
			l6.536,3.268c3.654,1.827,7.891,2.152,11.772,0.877c35.091-11.527,37.47-49.59,37.47-49.59l4-12.333l4-4l0.667,16.333
			c-7.333,49.333,4,99.333,4,99.333L305.2,407.867l-18.068-34.588C298.651,374.805,307.579,373.891,311.867,369.201z"/>
		<polygon class="st4" points="-13.298,428.12 397.152,381.346 507.899,381.346 507.899,523.607 -13.298,523.607 		"/>
		<g>
			<defs>
				<path id="SVGID_3_" d="M172.688,408.491l105.036-21.892l93.985,18.561c1.661,0.415,2.826,1.907,2.826,3.619v9.238
					c0,1.889-1.239,3.554-3.048,4.096l-100.087,30.026c-2.305,0.691-4.761,0.7-7.07,0.024l-91.385-26.732
					c-1.823-0.533-3.076-2.205-3.076-4.105v-9.22C169.867,410.399,171.03,408.908,172.688,408.491z"/>
			</defs>
			<use xlink:href="#SVGID_3_"  style="overflow:visible;fill:#A87942;"/>
			<clipPath id="SVGID_4_">
				<use xlink:href="#SVGID_3_"  style="overflow:visible;"/>
			</clipPath>
			<path class="st5" d="M172.688,394.54l105.846-26.624l93.174,23.294c1.661,0.415,2.826,1.907,2.826,3.619v9.238
				c0,1.889-1.239,3.554-3.048,4.096l-100.087,26.281c-2.305,0.691-4.761,0.7-7.07,0.024l-91.385-22.987
				c-1.823-0.533-3.076-2.205-3.076-4.105v-9.22C169.867,396.448,171.03,394.957,172.688,394.54z"/>
			<use xlink:href="#SVGID_3_"  style="overflow:visible;fill:none;stroke:#7F5528;stroke-miterlimit:10;"/>
		</g>
		<path class="st6" d="M185.867,216.534c0,0,10,16,14,67.017c0,0,16.5,27.483,30.5,117.983"/>
		<g>
			<path class="st7" d="M109.127,311.517c0,0,1.035-4.765,2.587-11.911c1.572-7.142,3.668-16.665,5.764-26.188
				c0.519-2.382,1.038-4.764,1.549-7.108c0.521-2.31,0.763-4.579,0.701-6.806c-0.017-2.22-0.372-4.347-0.881-6.314
				c-0.53-1.991-1.188-3.827-1.879-5.498c-0.701-1.664-1.385-3.179-2.067-4.487c-0.681-1.307-1.311-2.433-1.846-3.351
				c-1.082-1.83-1.749-2.854-1.749-2.854c-0.023-0.035-0.013-0.081,0.022-0.104c0.032-0.021,0.075-0.014,0.099,0.015
				c0,0,0.194,0.236,0.558,0.679c0.368,0.441,0.877,1.11,1.512,1.975c0.643,0.859,1.373,1.94,2.152,3.22
				c0.775,1.281,1.627,2.748,2.409,4.427c0.778,1.675,1.54,3.548,2.174,5.581c0.651,2.058,0.993,4.331,1.059,6.682
				c0.031,2.344-0.27,4.805-0.888,7.156c-0.579,2.329-1.168,4.694-1.757,7.06c-2.335,9.467-4.67,18.934-6.421,26.034
				c-1.771,7.096-2.952,11.826-2.952,11.826c-0.01,0.04-0.051,0.065-0.091,0.055C109.143,311.596,109.119,311.556,109.127,311.517z"
				/>
		</g>
		<g>
			<path class="st8" d="M220.867,234.534c0,0,16.971,23.5,18.736,44.5c0,0,20.265,22.5,28.265,57"/>
			<path class="st9" d="M220.928,234.49c1.19,1.65,2.324,3.339,3.417,5.055c1.1,1.711,2.158,3.449,3.18,5.208
				c0.524,0.873,1.012,1.766,1.505,2.656c0.501,0.886,0.986,1.781,1.448,2.688c0.462,0.907,0.959,1.797,1.389,2.721l1.329,2.752
				l1.234,2.798c0.429,0.925,0.774,1.886,1.152,2.834c0.367,0.952,0.761,1.894,1.069,2.868l0.982,2.902l0.826,2.954
				c0.302,0.978,0.489,1.986,0.704,2.988c0.199,1.005,0.464,1.997,0.567,3.021l0.411,3.053l-0.136-0.315
				c1.8,2.035,3.435,4.153,5.052,6.305c0.78,1.093,1.592,2.165,2.346,3.277c0.749,1.114,1.54,2.203,2.252,3.342
				c0.717,1.135,1.479,2.245,2.161,3.403c0.691,1.152,1.395,2.297,2.064,3.463l1.956,3.526c0.638,1.183,1.209,2.401,1.817,3.6
				c0.615,1.196,1.178,2.416,1.721,3.646c0.53,1.235,1.107,2.449,1.599,3.7l1.476,3.75c0.517,1.24,0.909,2.528,1.36,3.792
				c0.409,1.279,0.884,2.535,1.238,3.832l1.098,3.873c0.394,1.282,0.653,2.601,0.947,3.909l0.851,3.926
				c0.009,0.04-0.017,0.08-0.057,0.089c-0.038,0.008-0.078-0.018-0.089-0.055l-1.157-3.841c-0.377-1.281-0.748-2.562-1.201-3.819
				l-1.285-3.788c-0.415-1.266-0.951-2.49-1.42-3.736c-0.485-1.24-0.909-2.503-1.458-3.718l-1.57-3.671
				c-0.522-1.224-1.129-2.41-1.689-3.616c-0.553-1.21-1.116-2.415-1.736-3.592c-0.609-1.182-1.191-2.379-1.822-3.55l-1.894-3.513
				l-1.99-3.46c-0.652-1.161-1.383-2.273-2.071-3.412c-0.683-1.143-1.444-2.235-2.164-3.355c-0.725-1.117-1.507-2.193-2.258-3.292
				c-1.558-2.151-3.164-4.293-4.876-6.294c-0.078-0.091-0.123-0.2-0.136-0.311l-0.001-0.005l-0.355-2.994
				c-0.083-1.003-0.33-1.984-0.51-2.975c-0.196-0.988-0.363-1.983-0.646-2.953l-0.769-2.929l-0.926-2.887
				c-0.289-0.969-0.665-1.909-1.014-2.859c-0.358-0.946-0.69-1.903-1.094-2.832l-1.166-2.805l-1.263-2.765
				c-0.408-0.928-0.884-1.824-1.325-2.737c-0.441-0.913-0.905-1.815-1.385-2.708c-0.473-0.897-0.941-1.798-1.444-2.678
				c-0.981-1.776-2-3.532-3.061-5.262c-1.054-1.735-2.151-3.445-3.302-5.116c-0.024-0.034-0.016-0.081,0.018-0.105
				C220.858,234.449,220.904,234.458,220.928,234.49z"/>
		</g>
		<path class="st3" d="M133.367,194.034l2.295,13.058c0.385,2.19,1.524,4.171,3.228,5.6c5.711,4.792,20.424,14.72,42.942,13.221
			c6.486-0.432,12.785-2.669,17.821-6.78c0.076-0.062,0.153-0.125,0.229-0.189c3.626-3.02,6.07-7.225,7.055-11.84l3.43-16.07
			L133.367,194.034z"/>
		
			<ellipse transform="matrix(0.9913 -0.1319 0.1319 0.9913 -20.5778 25.3189)" class="st10" cx="180.82" cy="167.982" rx="60.223" ry="46.491"/>
		<path class="st11" d="M169.65,204.623c0,0,13.217,15.382,40.717,2.397"/>
		
			<ellipse transform="matrix(-0.9532 -0.3023 0.3023 -0.9532 323.7097 427.4772)" class="st12" cx="194.94" cy="188.685" rx="2.926" ry="8.453"/>
		
			<ellipse transform="matrix(-0.9532 -0.3023 0.3023 -0.9532 387.2204 422.7375)" class="st12" cx="226.328" cy="181.399" rx="2.569" ry="7.512"/>
		<path class="st10" d="M199.867,205.367c0,0,11.08,8.48,19.333,2.833c9.5-6.5-2-21.833-2-21.833"/>
		<g>
			<path class="st3" d="M199.973,52.867l31.061,92c0,0,2.959,12.907-31.061,19.5c-35.208,6.823-55.506-1.298-63.265-5.625
				c-2.273-1.268-4.054-3.252-5.088-5.64L97.534,74.367L199.973,52.867z"/>
			<path class="st3" d="M98.391,39.04c-11.19,9.421-19.383,20.47-21.098,30.969c-0.697,4.267,0.467,8.669,3.353,11.889
				c3.146,3.51,8.867,7.508,19.053,8.931c3.283,0.459,6.608-0.539,9.143-2.675l16.397-13.817c0,0,24.795,19,49.295,13
				c15.875-3.888,21.694-18.142,23.218-30.448c0.002,0.003,1.603,1.203,2.998,2.25c1.325,0.993,2.317,2.365,2.847,3.933l1.286,3.81
				l12.557-1.434c3.126-0.357,5.831-2.342,7.088-5.226c1.841-4.223,3.885-10.966,3.005-18.884c-1.5-13.5-49.5-31-81.5-25.5
				C129.878,18.612,111.938,27.634,98.391,39.04z"/>
			
				<ellipse transform="matrix(0.9849 -0.1729 0.1729 0.9849 -1.7248 26.022)" class="st13" cx="148.515" cy="22.912" rx="9.25" ry="3"/>
			<g>
				<g>
					<path class="st8" d="M120.534,78.367l24.135,51.74c1.559,3.341,2.717,6.852,3.443,10.467c0.515,2.562,1.199,5.533,1.921,7.46"
						/>
					<path class="st14" d="M120.602,78.336c0,0,2.072,4.264,5.18,10.661c3.089,6.405,7.209,14.945,11.328,23.486
						c2.06,4.27,4.12,8.54,6.051,12.543c0.915,2.033,1.85,3.942,2.646,5.853c0.79,1.916,1.405,3.771,1.88,5.509
						c0.483,1.732,0.756,3.376,0.989,4.796c0.244,1.418,0.473,2.652,0.671,3.667c0.408,2.026,0.758,3.157,0.758,3.157
						c0.012,0.04-0.01,0.082-0.05,0.094c-0.036,0.011-0.075-0.008-0.091-0.041c0,0-0.517-1.082-1.129-3.079
						c-0.319-0.994-0.657-2.214-1-3.625c-0.328-1.413-0.755-2.956-1.29-4.631c-0.535-1.671-1.214-3.451-2.057-5.268
						c-0.872-1.835-1.792-3.77-2.743-5.772c-1.826-4.052-3.774-8.374-5.723-12.696c-3.897-8.644-7.793-17.288-10.716-23.771
						c-2.904-6.492-4.84-10.819-4.84-10.819c-0.017-0.038,0-0.082,0.038-0.099C120.541,78.283,120.584,78.299,120.602,78.336z"/>
				</g>
				<g>
					<line class="st8" x1="111.675" y1="85.428" x2="135.226" y2="134.473"/>
					<path class="st14" d="M111.743,85.396c0,0,1.54,3.033,3.849,7.582c2.291,4.558,5.345,10.636,8.4,16.713
						c1.533,3.036,3.085,6.063,4.487,8.926c0.671,1.446,1.347,2.831,1.939,4.167c0.604,1.331,1.164,2.594,1.669,3.766
						c0.514,1.168,0.948,2.256,1.352,3.211c0.404,0.955,0.746,1.793,1.012,2.49c0.552,1.385,0.842,2.189,0.842,2.189
						c0.014,0.039-0.006,0.082-0.045,0.096c-0.034,0.012-0.072-0.002-0.09-0.032c0,0-0.446-0.729-1.182-2.026
						c-0.377-0.644-0.818-1.435-1.311-2.347c-0.493-0.913-1.07-1.932-1.66-3.063c-0.599-1.127-1.235-2.354-1.895-3.658
						c-0.673-1.298-1.331-2.691-2.04-4.119c-1.358-2.884-2.749-5.988-4.161-9.083c-2.833-6.184-5.666-12.367-7.791-17.005
						c-2.106-4.647-3.511-7.744-3.511-7.744c-0.017-0.038,0-0.082,0.037-0.099C111.681,85.345,111.725,85.36,111.743,85.396z"/>
				</g>
				<g>
					<line class="st8" x1="134.034" y1="79.867" x2="144.201" y2="102.201"/>
					<path class="st14" d="M134.102,79.836c0,0,0.705,1.364,1.763,3.41c1.064,2.043,2.421,4.796,3.798,7.539
						c0.685,1.373,1.416,2.725,2.032,4.025c0.593,1.31,1.079,2.563,1.463,3.652c0.779,2.173,1.111,3.707,1.111,3.707
						c0.009,0.041-0.017,0.082-0.059,0.091c-0.03,0.007-0.06-0.006-0.078-0.029c0,0-0.939-1.258-2.066-3.272
						c-0.569-1.005-1.195-2.194-1.793-3.502c-0.576-1.317-1.116-2.757-1.702-4.175c-1.164-2.84-2.349-5.671-3.192-7.815
						c-0.848-2.142-1.414-3.569-1.414-3.569c-0.015-0.039,0.004-0.082,0.042-0.097C134.044,79.787,134.085,79.802,134.102,79.836z"
						/>
				</g>
				<g>
					<line class="st8" x1="191.534" y1="74.867" x2="193.701" y2="82.701"/>
					<path class="st14" d="M191.606,74.847c0,0,0.222,0.466,0.524,1.173c0.32,0.702,0.682,1.656,1.066,2.604
						c0.184,0.476,0.432,0.935,0.573,1.39c0.124,0.46,0.168,0.909,0.172,1.303c0.022,0.785-0.167,1.364-0.167,1.364
						c-0.015,0.047-0.066,0.073-0.113,0.058c-0.012-0.004-0.022-0.01-0.031-0.018c0,0-0.46-0.4-0.845-1.084
						c-0.199-0.34-0.392-0.748-0.522-1.206c-0.114-0.463-0.136-0.984-0.223-1.486c-0.158-1.01-0.338-2.015-0.424-2.781
						c-0.104-0.762-0.153-1.275-0.153-1.275c-0.004-0.042,0.027-0.079,0.069-0.083C191.563,74.801,191.593,74.819,191.606,74.847z"
						/>
				</g>
				<g>
					<path class="st8" d="M196.534,62.367l19.122,59.089c0.707,2.186,1.696,4.265,2.956,6.186c1.188,1.812,2.829,4.595,4.422,8.225"
						/>
					<path class="st14" d="M196.605,62.344c0,0,1.579,4.635,3.947,11.587c2.349,6.958,5.48,16.236,8.611,25.514
						c1.566,4.639,3.132,9.278,4.6,13.627c0.684,2.191,1.384,4.296,1.979,6.314c0.596,2.041,1.154,3.866,1.957,5.485
						c0.391,0.807,0.791,1.57,1.207,2.276c0.427,0.709,0.838,1.417,1.196,2.072c0.727,1.317,1.296,2.497,1.728,3.485
						c0.877,1.968,1.271,3.132,1.271,3.132c0.015,0.039-0.005,0.082-0.044,0.097c-0.035,0.013-0.076-0.004-0.093-0.036
						c0,0-0.553-1.095-1.605-2.953c-0.537-0.923-1.195-2.038-1.995-3.284c-0.772-1.241-1.864-2.565-2.729-4.252
						c-0.906-1.641-1.6-3.608-2.264-5.578c-0.7-1.984-1.366-4.1-2.095-6.277c-1.358-4.385-2.807-9.061-4.256-13.738
						c-2.898-9.354-5.796-18.707-7.969-25.722c-2.154-7.021-3.59-11.702-3.59-11.702c-0.012-0.04,0.01-0.082,0.05-0.094
						C196.551,62.285,196.592,62.306,196.605,62.344z"/>
				</g>
			</g>
			<path class="st15" d="M123.659,136.078c0.209,0.39,0.436,0.77,0.68,1.137c1.281,1.923,3.04,3.507,5.102,4.565
				c8.367,4.293,29.863,12.219,65.258,4.644c34.344-7.35,30.414-20.596,30.414-20.596l6.521,18.821c0,0,3.881,13.095-30.281,20.366
				c-35.208,7.493-56.565-0.342-64.875-4.586c-2.438-1.245-4.448-3.228-5.737-5.637L123.659,136.078z"/>
		</g>
		<path class="st10" d="M139.367,197.034c0,0-18-1.5-23-25c-5.515-25.92,28-26.5,28-7.5"/>
		<g>
			<path class="st7" d="M130.942,248.53c0,0,0.207,2.028,0.028,5.079c-0.068,0.76-0.099,1.59-0.227,2.458
				c-0.058,0.435-0.117,0.882-0.177,1.339c-0.087,0.453-0.176,0.916-0.266,1.387c-0.152,0.949-0.451,1.899-0.69,2.881
				c-0.297,0.965-0.617,1.946-0.986,2.908l-0.608,1.424l-0.305,0.709l-0.362,0.678c-0.476,0.906-0.951,1.799-1.553,2.575
				c-0.295,0.391-0.585,0.775-0.869,1.151c-0.292,0.369-0.644,0.676-0.959,0.995c-0.642,0.628-1.224,1.245-1.892,1.667
				c-0.634,0.459-1.221,0.865-1.743,1.213c-0.569,0.283-1.065,0.52-1.478,0.703c-0.817,0.381-1.288,0.568-1.288,0.568
				c-0.039,0.015-0.082-0.003-0.097-0.042c-0.012-0.03-0.003-0.064,0.02-0.084l0.008-0.007c0,0,0.391-0.341,1.083-0.886
				c0.342-0.279,0.761-0.605,1.243-0.966c0.439-0.422,0.923-0.905,1.465-1.405c0.568-0.473,1.054-1.116,1.611-1.744
				c0.264-0.327,0.578-0.625,0.837-0.983c0.259-0.358,0.523-0.724,0.791-1.095c0.597-0.701,1.063-1.531,1.593-2.345l0.395-0.616
				l0.334-0.656l0.669-1.324c0.405-0.904,0.766-1.832,1.106-2.751c0.283-0.938,0.627-1.847,0.826-2.764
				c0.114-0.455,0.226-0.903,0.335-1.341c0.088-0.444,0.173-0.878,0.257-1.3c0.189-0.843,0.28-1.654,0.403-2.399
				c0.4-2.995,0.345-5.021,0.345-5.021c-0.001-0.041,0.032-0.076,0.073-0.077C130.905,248.46,130.938,248.491,130.942,248.53z"/>
		</g>
		<g>
			<path class="st7" d="M88.293,305.297c0,0-0.564-2.669-1.41-6.673c-0.861-4.004-1.934-9.344-3.026-14.7
				c-0.544-2.714-0.813-5.498-0.738-8.109c0.068-1.298,0.18-2.573,0.375-3.73c0.18-1.175,0.389-2.272,0.621-3.283
				c0.224-1.011,0.498-1.924,0.748-2.728c0.251-0.805,0.51-1.495,0.76-2.049c0.248-0.554,0.457-0.982,0.621-1.263
				c0.166-0.279,0.254-0.427,0.254-0.427c0.021-0.036,0.067-0.048,0.103-0.026c0.032,0.019,0.044,0.058,0.032,0.091
				c0,0-0.232,0.644-0.509,1.793c-0.129,0.578-0.277,1.279-0.427,2.087c-0.15,0.808-0.265,1.731-0.4,2.733
				c-0.127,1.003-0.248,2.098-0.363,3.248c-0.106,1.167-0.229,2.355-0.255,3.612c-0.121,2.499-0.037,5.187,0.36,7.846
				c0.857,5.377,1.753,10.766,2.36,14.811c0.625,4.044,1.041,6.741,1.041,6.741c0.006,0.041-0.022,0.079-0.063,0.086
				C88.339,305.362,88.302,305.336,88.293,305.297z"/>
		</g>
		<g>
			<path class="st7" d="M61.435,289.441c0,0,0.72,1.387,1.8,3.468c0.549,1.05,1.108,2.274,1.992,3.374
				c0.87,1.112,2.005,2.126,3.289,2.871c0.656,0.376,1.297,0.656,2.03,0.915c0.697,0.243,1.398,0.487,2.08,0.688
				c1.352,0.446,2.633,0.829,3.743,1.149c1.122,0.315,2.057,0.577,2.712,0.76c0.662,0.18,1.043,0.301,1.043,0.301
				c0.04,0.013,0.063,0.056,0.05,0.097c-0.009,0.029-0.035,0.049-0.064,0.053c0,0-0.396,0.051-1.091,0.073
				c-0.697,0.043-1.69,0.017-2.878-0.106c-1.186-0.128-2.57-0.376-3.999-0.841c-0.71-0.253-1.429-0.53-2.149-0.882
				c-0.686-0.329-1.457-0.727-2.118-1.193c-1.357-0.924-2.506-2.116-3.351-3.374c-0.421-0.626-0.782-1.274-1.056-1.904
				c-0.272-0.63-0.495-1.213-0.718-1.758c-0.87-2.177-1.45-3.628-1.45-3.628c-0.015-0.039,0.003-0.082,0.042-0.098
				C61.377,289.391,61.418,289.407,61.435,289.441z"/>
		</g>
		<g>
			<path class="st7" d="M153.692,232.534c-0.033,2.516-0.327,5.019-0.762,7.494c-0.212,1.239-0.484,2.468-0.776,3.691
				c-0.3,1.222-0.645,2.432-1.016,3.635c-0.387,1.198-0.805,2.386-1.262,3.561c-0.47,1.169-0.961,2.331-1.509,3.468
				c-0.256,0.577-0.56,1.13-0.846,1.693c-0.281,0.565-0.585,1.118-0.907,1.662c-0.612,1.106-1.308,2.161-1.998,3.219
				c-0.726,1.035-1.455,2.068-2.257,3.047c-0.382,0.504-0.791,0.987-1.214,1.458c-0.423,0.47-0.819,0.966-1.265,1.415
				c-0.877,0.913-1.761,1.82-2.712,2.658c-0.911,0.883-1.93,1.639-2.9,2.457c-1.036,0.728-2.018,1.538-3.103,2.195l-1.599,1.03
				l-1.653,0.939c-1.089,0.654-2.247,1.173-3.379,1.745c-1.142,0.551-2.326,1.007-3.489,1.515c-0.341,0.149-0.739-0.007-0.888-0.348
				c-0.138-0.315-0.016-0.678,0.272-0.849l0.058-0.035l2.432-1.453c0.8-0.499,1.643-0.933,2.407-1.485l2.308-1.632l1.154-0.815
				l1.084-0.904l2.179-1.793c0.703-0.624,1.36-1.297,2.043-1.943l1.016-0.979c0.326-0.338,0.627-0.699,0.947-1.043
				c0.623-0.703,1.276-1.383,1.878-2.105l1.725-2.234c0.581-0.742,1.053-1.559,1.585-2.336c0.547-0.77,0.974-1.61,1.454-2.422
				c0.493-0.806,0.914-1.649,1.322-2.501c0.438-0.838,0.801-1.71,1.158-2.586c0.388-0.865,0.658-1.771,0.996-2.658
				c0.283-0.902,0.588-1.804,0.801-2.728c0.239-0.918,0.431-1.852,0.568-2.789l0.001-0.005c0.006-0.041,0.044-0.069,0.085-0.063
				c0.038,0.006,0.066,0.04,0.064,0.078c-0.047,0.961-0.148,1.918-0.326,2.862c-0.145,0.951-0.382,1.883-0.601,2.821
				c-0.264,0.924-0.498,1.862-0.844,2.761c-0.316,0.911-0.638,1.82-1.038,2.699c-0.369,0.892-0.754,1.778-1.213,2.629
				c-0.436,0.862-0.868,1.729-1.397,2.539c-0.521,0.813-0.982,1.669-1.554,2.449l-1.702,2.352c-0.595,0.762-1.243,1.482-1.864,2.226
				c-0.316,0.367-0.62,0.746-0.955,1.095l-1.036,1.017c-0.697,0.672-1.369,1.371-2.087,2.019l-2.235,1.852l-1.127,0.914
				l-1.194,0.822l-2.389,1.641c-0.796,0.548-1.666,0.974-2.495,1.467l-2.515,1.429l-0.558-1.231
				c1.144-0.472,2.313-0.893,3.439-1.407c1.116-0.536,2.263-1.016,3.337-1.635l1.632-0.89l1.579-0.98
				c1.073-0.624,2.044-1.4,3.071-2.094c0.96-0.783,1.972-1.506,2.877-2.355c0.946-0.804,1.825-1.679,2.701-2.559
				c0.446-0.432,0.841-0.912,1.264-1.366c0.423-0.455,0.832-0.922,1.216-1.41c0.804-0.948,1.537-1.951,2.269-2.956
				c0.696-1.029,1.399-2.057,2.021-3.135c0.329-0.529,0.641-1.067,0.931-1.618c0.295-0.548,0.608-1.087,0.873-1.651
				c0.566-1.11,1.077-2.247,1.569-3.393c0.478-1.152,0.919-2.319,1.329-3.498c0.395-1.184,0.765-2.377,1.09-3.583
				c0.317-1.208,0.615-2.422,0.854-3.649c0.489-2.45,0.838-4.938,0.927-7.436c0-0.041,0.033-0.075,0.075-0.075
				C153.658,232.458,153.691,232.494,153.692,232.534z"/>
		</g>
		
			<use xlink:href="#New_Symbol_3"  width="11.104" height="15.956" x="-5.552" y="-7.978" transform="matrix(1 -0.0013 -0.0013 -1 183.9113 241.8235)" style="overflow:visible;"/>
		
			<use xlink:href="#New_Symbol_3"  width="11.104" height="15.956" x="-5.552" y="-7.978" transform="matrix(0.9928 0.1195 0.1195 -0.9928 188.713 271.0304)" style="overflow:visible;"/>
		
			<use xlink:href="#New_Symbol_3"  width="11.104" height="15.956" id="XMLID_10_" x="-5.552" y="-7.978" transform="matrix(0.9823 -0.1872 -0.1872 -0.9823 196.3417 300.5139)" style="overflow:visible;"/>
		<g>
			<path class="st7" d="M271.293,304.771c0,0,0.635-4.129,0.785-10.374c0.08-3.12,0.039-6.762-0.212-10.649
				c-0.114-1.944-0.316-3.946-0.547-5.975c-0.259-2.026-0.555-4.079-0.945-6.114c-0.383-2.036-0.838-4.057-1.365-6.024
				c-0.518-1.969-1.095-3.885-1.711-5.719c-0.584-1.845-1.254-3.591-1.887-5.247c-0.653-1.648-1.301-3.198-1.992-4.585
				c-0.648-1.409-1.321-2.661-1.899-3.785c-0.629-1.097-1.177-2.054-1.628-2.841c-0.976-1.532-1.517-2.431-1.517-2.431
				c-0.023-0.034-0.014-0.081,0.02-0.104c0.031-0.021,0.074-0.013,0.099,0.014c0,0,0.678,0.794,1.833,2.224
				c0.556,0.73,1.205,1.637,1.928,2.696c0.668,1.09,1.503,2.281,2.224,3.686c0.773,1.378,1.512,2.923,2.261,4.572
				c0.75,1.65,1.402,3.448,2.042,5.315c0.592,1.884,1.151,3.847,1.598,5.869c0.467,2.017,0.858,4.083,1.176,6.157
				c1.34,8.295,1.459,16.714,1.045,22.966c-0.376,6.263-1.162,10.376-1.162,10.376c-0.008,0.041-0.047,0.068-0.087,0.06
				C271.314,304.849,271.287,304.811,271.293,304.771z"/>
		</g>
		<g>
			<path class="st7" d="M231.688,236.929c0,0,0.671,1.632,1.565,4.124c0.913,2.487,1.971,5.86,2.83,9.301
				c0.217,0.86,0.432,1.721,0.616,2.579c0.209,0.852,0.358,1.702,0.481,2.532c0.128,0.827,0.187,1.639,0.207,2.411
				c0.055,0.767,0.018,1.504-0.021,2.179c-0.01,0.673-0.116,1.293-0.211,1.837c-0.087,0.544-0.174,1.013-0.326,1.389
				c-0.245,0.757-0.41,1.167-0.41,1.167c-0.015,0.038-0.059,0.057-0.098,0.042c-0.029-0.012-0.047-0.04-0.047-0.069l0-0.011
				c0,0-0.003-0.456,0.034-1.212c0.031-0.375,0.001-0.84-0.027-1.368c-0.016-0.526-0.033-1.113-0.115-1.761
				c-0.065-0.645-0.111-1.339-0.226-2.077c-0.1-0.736-0.182-1.512-0.31-2.317c-0.08-0.809-0.2-1.641-0.315-2.492
				c-0.098-0.853-0.258-1.712-0.406-2.573c-0.618-3.443-1.494-6.847-2.158-9.399c-0.676-2.55-1.205-4.229-1.205-4.229
				c-0.012-0.04,0.01-0.082,0.049-0.094C231.633,236.874,231.673,236.894,231.688,236.929z"/>
		</g>
		<g>
			<path class="st7" d="M252.189,269.012c0,0,0.927,2.836,2.316,7.089c1.405,4.249,3.202,9.937,5.024,15.618
				c0.472,1.414,0.904,2.882,1.242,4.33c0.346,1.451,0.591,2.902,0.768,4.313c0.135,1.414,0.233,2.793,0.216,4.088
				c0.003,1.282-0.008,2.494-0.03,3.613c-0.013,1.119-0.065,2.146-0.09,3.056c-0.025,0.91-0.059,1.703-0.103,2.357
				c-0.068,1.307-0.135,2.055-0.135,2.055c-0.004,0.042-0.04,0.072-0.082,0.068c-0.036-0.003-0.063-0.031-0.068-0.065
				c0,0-0.106-0.743-0.243-2.045c-0.079-0.651-0.154-1.441-0.227-2.348c-0.073-0.907-0.179-1.93-0.251-3.047
				c-0.081-1.117-0.155-2.327-0.22-3.607c-0.072-1.267-0.147-2.588-0.318-3.953c-0.133-1.367-0.341-2.773-0.598-4.195
				c-0.263-1.426-0.605-2.841-1.009-4.277c-1.597-5.748-3.219-11.489-4.378-15.811c-1.174-4.318-1.957-7.197-1.957-7.197
				c-0.011-0.04,0.013-0.081,0.053-0.092C252.137,268.953,252.177,268.975,252.189,269.012z"/>
		</g>
		<g>
			<path class="st8" d="M267.867,312.784l12-1.25c0,0,4.75-4,10.75-4.5"/>
			<path class="st9" d="M267.859,312.709c3.976-0.648,7.96-1.217,11.945-1.778l-0.327,0.139c0.403-0.355,0.79-0.661,1.201-0.966
				c0.405-0.307,0.819-0.599,1.243-0.88c0.855-0.547,1.758-1.025,2.713-1.382c0.951-0.363,1.939-0.638,2.945-0.795
				c0.501-0.088,1.008-0.134,1.516-0.148c0.506-0.021,1.016,0.016,1.515,0.06c0.042,0.004,0.073,0.04,0.069,0.082
				c-0.003,0.03-0.022,0.054-0.048,0.064l-0.008,0.003c-0.475,0.183-0.952,0.267-1.409,0.459c-0.463,0.149-0.916,0.317-1.365,0.492
				c-0.449,0.169-0.89,0.36-1.328,0.547c-0.434,0.201-0.873,0.383-1.295,0.606c-0.432,0.198-0.85,0.428-1.277,0.637
				c-0.424,0.215-0.851,0.427-1.27,0.657c-0.419,0.228-0.84,0.456-1.248,0.705c-0.403,0.248-0.814,0.52-1.175,0.785l-0.053,0.039
				c-0.083,0.061-0.179,0.094-0.275,0.1c-4.015,0.272-8.031,0.537-12.055,0.722c-0.041,0.002-0.077-0.03-0.078-0.072
				C267.795,312.748,267.822,312.715,267.859,312.709z"/>
		</g>
		<g>
			<path class="st7" d="M313.942,344.791c0,0-0.064,1.718-0.53,4.258c-0.116,0.635-0.265,1.319-0.439,2.041
				c-0.177,0.721-0.41,1.47-0.665,2.243c-0.27,0.768-0.58,1.552-0.937,2.337c-0.194,0.386-0.39,0.775-0.587,1.165l-0.677,1.137
				c-0.246,0.369-0.513,0.727-0.77,1.091c-0.266,0.349-0.623,0.722-0.974,1.019c-0.714,0.615-1.561,1.041-2.418,1.293
				c-0.841,0.246-1.788,0.277-2.494,0.218c-0.734-0.031-1.427-0.074-2.068-0.125c-2.561-0.192-4.269-0.525-4.269-0.525
				c-0.041-0.008-0.068-0.048-0.06-0.09c0.006-0.031,0.031-0.055,0.06-0.06c0,0,1.707-0.333,4.269-0.525
				c0.64-0.052,1.334-0.094,2.068-0.125c0.759-0.027,1.374-0.076,2.077-0.273c0.688-0.165,1.358-0.477,1.97-0.895
				c0.606-0.383,1.101-1.051,1.623-1.688l0.7-1.018c0.21-0.356,0.419-0.711,0.627-1.064c0.388-0.723,0.735-1.457,1.045-2.181
				c0.3-0.729,0.56-1.447,0.8-2.133c0.231-0.689,0.436-1.346,0.605-1.96c0.678-2.457,0.892-4.154,0.892-4.154
				c0.005-0.041,0.043-0.07,0.084-0.065C313.915,344.717,313.943,344.752,313.942,344.791z"/>
		</g>
		<path class="st6" d="M212.377,272.838c0.807,1.652,1.931,4.3,2.594,7.357c0.477,2.202,1.333,4.299,2.513,6.218
			c3.669,5.968,12.066,16.643,24.851,15.906c1.591-0.092,2.996-1.085,3.649-2.539c1.375-3.066,2.021-9.276-6.034-19.329
			c0,0-0.147-3.2-2.79-8.665c-0.229-0.473-0.691-0.792-1.215-0.841c-2.616-0.245-11.116-0.88-22.414-0.079
			C212.559,270.935,211.949,271.961,212.377,272.838z"/>
		<g>
			<path class="st7" d="M218.612,283.476c0,0,1.319-0.177,3.298-0.442c1.978-0.271,4.621-0.566,7.262-0.883
				c0.66-0.084,1.32-0.169,1.969-0.252c0.643-0.097,1.303-0.152,1.895-0.228c1.184-0.112,2.302-0.258,3.26-0.414
				c0.958-0.149,1.763-0.339,2.357-0.417c0.582-0.098,0.924-0.127,0.924-0.127c0.043-0.004,0.08,0.028,0.084,0.071
				c0.002,0.029-0.011,0.056-0.034,0.071c0,0-0.284,0.192-0.798,0.483c-0.503,0.303-1.252,0.711-2.22,1.078
				c-0.964,0.367-2.133,0.683-3.43,0.812c-0.648,0.041-1.272,0.067-1.934,0.073c-0.655,0.016-1.32,0.031-1.985,0.047
				c-2.659,0.084-5.316,0.19-7.312,0.219c-1.996,0.035-3.327,0.059-3.327,0.059c-0.041,0.001-0.076-0.032-0.076-0.074
				C218.546,283.513,218.574,283.481,218.612,283.476z"/>
		</g>
		<path class="st10" d="M245.201,346.701c0,0-3.629-17.833,11.519-24.667l7.734-7.546c1.161-1.133,2.771-1.681,4.38-1.474
			c5.626,0.725,18.786,3.713,24.672,15.945c0.465,0.965,0.623,2.054,0.463,3.113l-0.6,3.961l4.233,9.129
			c1.101,2.374,1.903,4.872,2.364,7.448c0.589,3.294,1.008,7.871,0.236,12.757c0,0,1.833,3.333,1.667,12.333l-14-13.833
			c0,0-3.53-5.567-12.552-10.573c-3.084-1.711-5.84-3.972-8.095-6.684c-2.102-2.529-4.122-5.63-4.353-8.41
			c0,0-5.796-0.167-6.148,12.5L245.201,346.701z"/>
		<g>
			<path class="st16" d="M291.261,349.965c0,0,1.037,1.28,2.487,3.283c1.467,1.992,3.281,4.753,4.899,7.65
				c0.407,0.723,0.812,1.448,1.181,2.181c0.395,0.72,0.729,1.456,1.031,2.183c0.308,0.721,0.541,1.449,0.727,2.15
				c0.221,0.686,0.334,1.372,0.439,1.998c0.133,0.617,0.146,1.212,0.164,1.729c0.007,0.258,0.013,0.499,0.019,0.722
				c-0.001,0.223-0.052,0.433-0.072,0.617c-0.098,0.741-0.183,1.144-0.183,1.144c-0.009,0.041-0.048,0.067-0.089,0.058
				c-0.03-0.006-0.052-0.03-0.058-0.058l-0.003-0.012c0,0-0.089-0.418-0.195-1.115c-0.038-0.348-0.153-0.764-0.289-1.237
				c-0.121-0.474-0.247-1.002-0.463-1.57c-0.198-0.569-0.379-1.186-0.651-1.826c-0.254-0.641-0.496-1.323-0.798-2.019
				c-0.253-0.711-0.553-1.434-0.856-2.173c-0.284-0.747-0.634-1.481-0.973-2.222c-1.381-2.953-3.026-5.79-4.271-7.911
				c-1.256-2.117-2.17-3.482-2.17-3.482c-0.023-0.034-0.014-0.081,0.021-0.104C291.193,349.928,291.237,349.935,291.261,349.965z"/>
		</g>
		<g>
			<path class="st16" d="M276.241,323.138c0,0,1.272,0.732,3.179,1.829c1.911,1.093,4.422,2.606,6.946,4.1
				c0.636,0.371,1.272,0.742,1.898,1.107c0.632,0.359,1.264,0.809,1.813,1.258c1.096,0.937,1.936,2.007,2.525,2.985
				c0.303,0.493,0.523,0.944,0.731,1.343c0.203,0.402,0.374,0.756,0.504,1.055c0.275,0.588,0.409,0.94,0.409,0.94
				c0.015,0.04-0.005,0.084-0.045,0.099c-0.028,0.011-0.059,0.004-0.08-0.015c0,0-0.277-0.255-0.722-0.728
				c-0.459-0.451-1.069-1.183-1.766-1.985c-0.707-0.795-1.575-1.661-2.572-2.506c-0.492-0.448-1.003-0.844-1.577-1.276
				c-0.585-0.419-1.178-0.844-1.772-1.27c-2.396-1.691-4.805-3.363-6.584-4.659c-1.782-1.291-2.971-2.152-2.971-2.152
				c-0.034-0.024-0.041-0.071-0.017-0.105C276.166,323.127,276.208,323.119,276.241,323.138z"/>
		</g>
		<g>
			<defs>
				<path id="SVGID_5_" d="M290.221,413.554c0,0,3.76,2.439,11.346-0.542c6.255-2.458,11.103-16.444,12.611-21.275
					c0.275-0.88-0.37-1.768-1.292-1.787c-3.263-0.066-10.451,0.721-16.835,7.861C287.47,407.41,290.221,413.554,290.221,413.554z"/>
			</defs>
			<use xlink:href="#SVGID_5_"  style="overflow:visible;fill:#BF2326;"/>
			<clipPath id="SVGID_6_">
				<use xlink:href="#SVGID_5_"  style="overflow:visible;"/>
			</clipPath>
			<path class="st17" d="M284.904,414.654l13.157-5.019c1.911-0.729,3.608-1.917,4.956-3.455c2.981-3.399,8.232-9.77,10.348-14.735
				c0.717-1.681-0.74-3.487-2.544-3.199l-10.336,1.647l-13.92,15.006L284.904,414.654z"/>
			<use xlink:href="#SVGID_5_"  style="overflow:visible;fill:none;stroke:#841618;stroke-width:1.5;stroke-miterlimit:10;"/>
		</g>
		<g>
			<defs>
				<path id="SVGID_7_" d="M279.473,413.8c0,0,1.598,7.18,10.442,2.52c0,0,29.211-23.944,13.957-33.943l-26.15-8.642L279.473,413.8z
					"/>
			</defs>
			<use xlink:href="#SVGID_7_"  style="overflow:visible;fill:#BF2326;"/>
			<clipPath id="SVGID_8_">
				<use xlink:href="#SVGID_7_"  style="overflow:visible;"/>
			</clipPath>
			<path class="st18" d="M272.87,412.898c0,0,1.598,7.18,10.442,2.52c0,0,29.211-23.944,13.957-33.943l-26.15-8.642L272.87,412.898z
				"/>
			<use xlink:href="#SVGID_7_"  style="overflow:visible;fill:none;stroke:#841618;stroke-width:1.5;stroke-miterlimit:10;"/>
		</g>
		<g>
			<defs>
				<path id="SVGID_9_" d="M272.808,414.485c0,0,2.554,7.456,10.687,1.172c0,0,25.704-29.918,9.236-38.397l-27.078-5.432
					L272.808,414.485z"/>
			</defs>
			<use xlink:href="#SVGID_9_"  style="overflow:visible;fill:#BF2326;"/>
			<clipPath id="SVGID_10_">
				<use xlink:href="#SVGID_9_"  style="overflow:visible;"/>
			</clipPath>
			<path class="st19" d="M266.144,414.485c0,0,2.554,7.456,10.687,1.172c0,0,25.704-29.918,9.236-38.397l-27.078-5.432
				L266.144,414.485z"/>
			<use xlink:href="#SVGID_9_"  style="overflow:visible;fill:none;stroke:#841618;stroke-width:1.5;stroke-miterlimit:10;"/>
		</g>
		<g>
			<defs>
				<path id="SVGID_11_" d="M263.367,415.784c0,0,4.546,7.953,11,1.25c0,0,17.713-31.912-1.018-40.956l-28.529-5.794
					L263.367,415.784z"/>
			</defs>
			<use xlink:href="#SVGID_11_"  style="overflow:visible;fill:#BF2326;"/>
			<clipPath id="SVGID_12_">
				<use xlink:href="#SVGID_11_"  style="overflow:visible;"/>
			</clipPath>
			<path class="st20" d="M256.703,415.784c0,0,4.546,7.953,11,1.25c0,0,17.713-31.912-1.018-40.956l-28.529-5.794L256.703,415.784z"
				/>
			<use xlink:href="#SVGID_11_"  style="overflow:visible;fill:none;stroke:#841618;stroke-width:1.5;stroke-miterlimit:10;"/>
		</g>
		<g>
			<path class="st8" d="M84.201,340.201l11.109-9.624c3.227-2.887,5.838-6.397,7.676-10.318l0,0c1.45-3.094,2.049-6.518,1.734-9.92
				l-0.352-3.804l-13.333-16.471H90.3c-1.683-0.953-7.47-0.876-9.286,1.142l-10.647,11.837c-2.171-1.352-5.864-0.356-8.787,0.839
				c-2.694,1.101-4.942,3.072-6.459,5.555l-5.254,8.597"/>
			<path class="st9" d="M84.151,340.144l10.355-9.158c3.47-2.994,6.262-6.734,8.155-10.88l0.649,0.304l-0.649-0.304
				c0.946-2.087,1.522-4.338,1.673-6.618c0.071-1.143,0.043-2.278-0.085-3.426l-0.35-3.485l0.103,0.252l-13.467-16.362l0.499,0.238
				l-0.734,0.007c-0.11,0.001-0.213-0.026-0.303-0.075l-0.017-0.009c-0.328-0.179-0.839-0.287-1.317-0.36
				c-0.488-0.079-1-0.098-1.507-0.111c-1.018-0.009-2.046,0.094-3.022,0.316c-0.492,0.103-0.956,0.265-1.398,0.446
				c-0.414,0.204-0.841,0.423-1.096,0.718c-0.328,0.335-0.703,0.782-1.053,1.167l-1.067,1.2c-1.419,1.602-2.844,3.199-4.287,4.78
				l-4.324,4.747l-0.007,0.007c-0.24,0.264-0.631,0.309-0.922,0.124c-0.781-0.495-1.855-0.631-2.929-0.558
				c-1.081,0.071-2.182,0.316-3.26,0.643c-0.541,0.161-1.076,0.348-1.609,0.547c-0.268,0.099-0.51,0.197-0.789,0.315
				c-0.258,0.117-0.493,0.22-0.743,0.353c-0.987,0.505-1.918,1.132-2.757,1.871c-0.837,0.742-1.587,1.588-2.221,2.519l-1.893,2.911
				l-3.849,5.809c-0.023,0.035-0.069,0.044-0.104,0.021c-0.033-0.022-0.043-0.065-0.024-0.099l3.413-6.075l0.867-1.51l0.883-1.513
				c0.624-1.02,1.379-1.962,2.239-2.804c0.867-0.832,1.83-1.582,2.897-2.159c0.258-0.148,0.551-0.287,0.818-0.416
				c0.252-0.116,0.544-0.244,0.818-0.354c0.548-0.223,1.103-0.435,1.67-0.621c1.131-0.377,2.303-0.679,3.537-0.797
				c1.218-0.109,2.578-0.041,3.807,0.676l-0.928,0.131l4.264-4.8c1.419-1.602,2.857-3.187,4.301-4.768l1.08-1.187
				c0.374-0.403,0.689-0.776,1.111-1.203c0.479-0.498,1.039-0.759,1.582-1.014c0.551-0.216,1.107-0.392,1.665-0.499
				c1.116-0.23,2.234-0.318,3.355-0.287c0.562,0.025,1.122,0.056,1.689,0.159c0.571,0.108,1.131,0.206,1.748,0.544l-0.32-0.084
				l0.734,0.007l0.011,0c0.197,0.002,0.373,0.096,0.487,0.238l13.2,16.578l0.005,0.006c0.059,0.074,0.091,0.16,0.098,0.247
				l0.296,3.49c0.114,1.175,0.126,2.383,0.033,3.569c-0.197,2.377-0.823,4.717-1.854,6.861l-0.649-0.304l0.649,0.304
				c-2.021,4.197-4.95,7.948-8.52,10.903l-10.54,8.944c-0.032,0.027-0.079,0.023-0.106-0.009
				C84.117,340.217,84.121,340.171,84.151,340.144z"/>
		</g>
		<g>
			<path class="st7" d="M98.411,318.345c0,0-0.246,0.218-0.727,0.529c-0.476,0.317-1.192,0.73-2.131,1.063
				c-0.462,0.192-0.995,0.3-1.559,0.431c-0.574,0.056-1.191,0.155-1.831,0.067c-0.651-0.003-1.286-0.223-1.95-0.394
				c-0.312-0.132-0.618-0.29-0.931-0.438l-0.468-0.231l-0.416-0.305l-0.838-0.614c-0.262-0.221-0.481-0.479-0.725-0.715
				c-0.236-0.242-0.477-0.479-0.699-0.728c-0.185-0.27-0.367-0.536-0.546-0.798c-0.335-0.54-0.688-1.053-0.865-1.602
				c-0.217-0.533-0.409-1.041-0.572-1.512c-0.187-0.463-0.229-0.927-0.324-1.318c-0.077-0.397-0.136-0.743-0.172-1.031
				c-0.089-0.57-0.112-0.899-0.112-0.899c-0.003-0.042,0.029-0.079,0.071-0.082c0.028-0.002,0.054,0.012,0.069,0.034l0.004,0.006
				c0,0,0.189,0.28,0.469,0.777c0.148,0.246,0.314,0.547,0.494,0.894c0.192,0.341,0.346,0.753,0.606,1.152
				c0.248,0.405,0.503,0.846,0.758,1.316c0.237,0.485,0.578,0.923,0.882,1.409c0.146,0.248,0.294,0.5,0.444,0.755
				c0.186,0.222,0.361,0.457,0.544,0.693c0.186,0.231,0.353,0.491,0.563,0.703l0.668,0.598l0.337,0.302l0.382,0.227
				c0.256,0.148,0.507,0.311,0.767,0.451c0.554,0.186,1.09,0.44,1.661,0.486c0.557,0.136,1.116,0.078,1.646,0.093
				c0.526-0.065,1.035-0.106,1.488-0.239c0.921-0.21,1.653-0.541,2.154-0.782c0.506-0.24,0.771-0.42,0.771-0.42
				c0.034-0.023,0.081-0.014,0.104,0.02c0.021,0.032,0.016,0.074-0.012,0.098L98.411,318.345z"/>
		</g>
		<path class="st6" d="M85.367,292.034l-0.696,1.789c-1.326,3.411-2.029,7.051-1.887,10.708c0.103,2.658,0.628,5.626,2.048,8.319
			l5.536-20.817C90.367,292.034,88.117,290.534,85.367,292.034z"/>
		<g>
			<path class="st7" d="M70.43,303.084c0,0-1.304,2.055-2.581,5.438c-0.316,0.845-0.632,1.77-0.916,2.761
				c-0.28,0.992-0.559,2.041-0.764,3.143c-0.432,2.197-0.643,4.586-0.478,6.946c0.066,1.181,0.272,2.344,0.507,3.473
				c0.283,1.12,0.594,2.209,1,3.227c0.364,1.033,0.825,1.988,1.272,2.89c0.457,0.899,0.957,1.713,1.429,2.465
				c0.51,0.722,0.944,1.423,1.405,1.984c0.469,0.554,0.836,1.083,1.191,1.472c0.7,0.786,1.088,1.263,1.088,1.263l0.003,0.004
				c0.026,0.032,0.021,0.08-0.011,0.106c-0.027,0.022-0.063,0.022-0.09,0.004c0,0-0.501-0.345-1.357-0.997
				c-0.447-0.307-0.904-0.772-1.462-1.277c-0.549-0.513-1.129-1.14-1.734-1.848c-0.284-0.371-0.58-0.757-0.886-1.156
				c-0.29-0.412-0.553-0.863-0.845-1.315c-0.559-0.919-1.036-1.954-1.466-3.048c-0.399-1.107-0.704-2.285-0.922-3.496
				c-0.181-1.216-0.323-2.457-0.321-3.699c-0.058-2.484,0.279-4.946,0.827-7.181c0.526-2.243,1.302-4.248,2.044-5.918
				c1.505-3.341,2.942-5.32,2.942-5.32c0.024-0.034,0.07-0.042,0.104-0.019C70.442,303.005,70.45,303.05,70.43,303.084z"/>
		</g>
		<g>
			<path class="st7" d="M54.459,325.87c0,0-0.161-1.73-0.097-4.339c0.048-2.606,0.397-6.102,1.413-9.497
				c0.25-0.849,0.551-1.686,0.89-2.501c0.342-0.813,0.737-1.596,1.207-2.31c0.465-0.714,1.011-1.349,1.58-1.896
				c0.285-0.273,0.592-0.509,0.872-0.751c0.303-0.217,0.61-0.408,0.895-0.598c0.601-0.34,1.173-0.603,1.703-0.768
				c0.514-0.203,1.004-0.247,1.382-0.331c0.781-0.087,1.219-0.086,1.219-0.086c0.042,0,0.076,0.034,0.076,0.076
				c0,0.031-0.019,0.058-0.046,0.07l-0.005,0.002c0,0-0.41,0.172-1.097,0.445c-0.324,0.193-0.747,0.337-1.169,0.624
				c-0.443,0.244-0.896,0.586-1.379,0.955c-0.466,0.398-0.945,0.848-1.407,1.37c-0.445,0.538-0.907,1.108-1.323,1.755
				c-0.454,0.619-0.838,1.325-1.236,2.042c-0.389,0.724-0.722,1.497-1.024,2.285c-1.192,3.172-1.726,6.592-2.026,9.149
				c-0.288,2.567-0.277,4.297-0.277,4.297c0,0.041-0.033,0.075-0.075,0.076C54.495,325.94,54.463,325.909,54.459,325.87z"/>
		</g>
		<g>
			<defs>
				<path id="SVGID_13_" d="M104.221,283.082l61.647,27.452v11l-61.724-19.048c-10.776-2.702-10.958-17.032-4.673-19.508l0,0
					C101.004,282.374,102.715,282.411,104.221,283.082z"/>
			</defs>
			<use xlink:href="#SVGID_13_"  style="overflow:visible;fill:#3C4147;"/>
			<clipPath id="SVGID_14_">
				<use xlink:href="#SVGID_13_"  style="overflow:visible;"/>
			</clipPath>
			<path class="st21" d="M101.167,285.877l68.789,30.633v12.275l-68.875-21.255c-12.025-3.016-12.228-19.006-5.215-21.768h0
				C97.578,285.087,99.488,285.129,101.167,285.877z"/>
			<use xlink:href="#SVGID_13_"  style="overflow:visible;fill:none;stroke:#24282B;stroke-width:1.25;stroke-miterlimit:10;"/>
		</g>
		<g>
			<defs>
				<path id="SVGID_15_" d="M162.682,341.794c-0.088,0.832,0.387,1.622,1.164,1.934l83.731,33.681
					c40.291,16.458,65.179,11.143,68.957,5.791c0,0-14-17.333-44.667-30c-30.667-12.667-106-41.667-106-41.667L162.682,341.794z"/>
			</defs>
			<use xlink:href="#SVGID_15_"  style="overflow:visible;fill:#B5BCBB;"/>
			<clipPath id="SVGID_16_">
				<use xlink:href="#SVGID_15_"  style="overflow:visible;"/>
			</clipPath>
			<path class="st22" d="M159.486,343.402c-0.088,0.832,0.387,1.622,1.164,1.934l86.927,34.89
				c40.291,16.458,71.179,13.611,74.957,8.259c0,0-20-19.801-50.667-32.468c-30.667-12.667-109.196-42.875-109.196-42.875
				L159.486,343.402z"/>
			<use xlink:href="#SVGID_15_"  style="overflow:visible;fill:none;stroke:#708280;stroke-width:1.25;stroke-miterlimit:10;"/>
		</g>
		<g>
			<g>
				<defs>
					<path id="SVGID_17_" d="M210.803,351.915c1.921,1.285,7.959,5.709,9.678,11.591l2.413,8.866h1.474
						c0,0-0.439-16.499-8.258-24.593c-0.154-0.159-0.367-0.246-0.589-0.246h-1.532c-1.074,0-2.056,0.604-2.542,1.561l-0.909,1.793
						C210.354,351.251,210.465,351.689,210.803,351.915z"/>
				</defs>
				<use xlink:href="#SVGID_17_"  style="overflow:visible;fill:#493217;"/>
				<clipPath id="SVGID_18_">
					<use xlink:href="#SVGID_17_"  style="overflow:visible;"/>
				</clipPath>
				<path class="st23" d="M209.701,352.284l4.714-1.763c0.851-0.318,1.476-1.055,1.652-1.947l0.468-2.374l-4.917,0.833l-3.167,3.5
					L209.701,352.284z"/>
				<use xlink:href="#SVGID_17_"  style="overflow:visible;fill:none;stroke:#7C5834;stroke-width:1.5;stroke-miterlimit:10;"/>
			</g>
			<g>
				<path class="st24" d="M190.867,373.615c0,0,3,4.419,10.25,1.419s11.177-11.817,11.177-11.817s2.82-3.941,7.166-1.505
					c0,0-1.842-3.428-4.592-4.178c-1.816-0.495-6.905-0.336-10.151-0.171c-1.897,0.096-3.669,0.95-4.912,2.386
					C197.568,362.334,193.91,367.101,190.867,373.615z"/>
				<g>
					<path class="st25" d="M194.867,372.373c3.5-1.5,8-8.339,8-8.339l1.067-1.785c0.908-1.518,2.441-2.556,4.191-2.818
						c2.938-0.439,7.474-0.806,10.111,0.522"/>
					<path class="st26" d="M194.833,372.306c0,0,0.1-0.056,0.286-0.161c0.192-0.099,0.462-0.26,0.77-0.498
						c0.32-0.217,0.684-0.542,1.087-0.912c0.402-0.376,0.835-0.823,1.285-1.33c0.899-1.017,1.871-2.272,2.851-3.659
						c0.479-0.688,1-1.437,1.422-2.163c0.467-0.787,0.807-1.573,1.43-2.418c0.608-0.802,1.412-1.46,2.312-1.913
						c0.451-0.224,0.925-0.403,1.411-0.507c0.517-0.106,0.881-0.156,1.34-0.226c1.735-0.213,3.381-0.228,4.787-0.077
						c1.406,0.146,2.567,0.459,3.323,0.808c0.377,0.177,0.669,0.315,0.85,0.448c0.183,0.122,0.281,0.187,0.281,0.187l-0.067,0.134
						c0,0-0.111-0.028-0.319-0.08c-0.203-0.056-0.508-0.122-0.892-0.182c-0.777-0.101-1.882-0.177-3.216-0.116
						c-1.332,0.054-2.887,0.218-4.55,0.427c-0.873,0.091-1.633,0.16-2.366,0.462c-0.739,0.289-1.419,0.776-1.962,1.391
						c-0.51,0.592-0.982,1.458-1.474,2.189c-0.534,0.797-1.072,1.469-1.613,2.155c-1.072,1.355-2.169,2.544-3.169,3.501
						c-0.501,0.478-0.979,0.897-1.421,1.247c-0.446,0.346-0.835,0.641-1.194,0.844c-0.347,0.223-0.629,0.36-0.826,0.442
						c-0.195,0.09-0.298,0.137-0.298,0.137L194.833,372.306z"/>
				</g>
			</g>
			<path class="st27" d="M259.069,423.011c-3.293,0.467-7.773-0.092-13.868-2.478l-4.341,1.828
				c-1.278,0.538-2.715,0.559-4.009,0.059l-2.561-0.991c-3.728-1.443-6.861-4.101-8.892-7.545l-11.104-18.829
				c-0.983-1.667-1.772-3.435-2.327-5.288c-1.438-4.797-3.208-14.032,0.233-23.899c0.632-1.811,2.306-3.388,4.75-4.76
				c0.859-0.483,1.958-0.212,2.509,0.605c0.437,0.647,0.769,1.259,1.021,1.795c0.594,1.266,1.879,2.064,3.277,2.108l16.569,0.526
				c1.363,0.043,2.687,0.431,3.857,1.131c5.7,3.409,21.861,15.497,23.931,43.915c0.136,1.863-0.103,3.754-0.792,5.489
				C266.283,419.294,264.016,422.31,259.069,423.011z"/>
		</g>
		<path class="st10" d="M95.706,317.762c-4.325,1.081-8.889-0.92-10.874-4.911c-0.721-1.45-1.214-3.143-1.214-5.067
			c0-14.25,9.915-24.657,21.927-31.205c3.89-2.121,8.25-3.233,12.681-3.207c5.36,0.031,13.101,0.354,21.345,1.612
			c2.122,0.324,4.16,1.074,5.995,2.188l0,0c2.803,1.702,5.03,4.207,6.392,7.19l3.16,6.922l13.433,8.283
			c1.082,0.667,1.633,1.93,1.398,3.18c-0.554,2.953-2.777,7.583-11.455,5.503c0,0-9.376-3.716-12.876-8.966l-1.731,3.577
			c-1.24,2.563-0.946,5.603,0.762,7.881l6.219,8.292c0,0-2.308,5.384-10.296,8.058c-2.331,0.78-4.855,0.749-7.172-0.075
			c-5.372-1.91-15.864-6.997-23.335-19.187l-10.878,8.262C98.151,316.878,96.967,317.446,95.706,317.762L95.706,317.762z"/>
	</g>
</g>
</svg>
