<?xml version="1.0" encoding="utf-8"?>
<!-- Generator: Adobe Illustrator 19.1.0, SVG Export Plug-In . SVG Version: 6.00 Build 0)  -->
<svg version="1.1" id="Layer_1" xmlns="http://www.w3.org/2000/svg" xmlns:xlink="http://www.w3.org/1999/xlink" x="0px" y="0px"
	 width="500px" height="500px" viewBox="0 0 500 500" style="enable-background:new 0 0 500 500;" xml:space="preserve">
<style type="text/css">
	.st0{fill:#82343C;stroke:#692326;stroke-width:2;stroke-miterlimit:10;}
	.st1{fill:#A54C55;stroke:#692326;stroke-width:2;stroke-miterlimit:10;}
	.st2{clip-path:url(#SVGID_2_);}
	.st3{fill:#302C38;stroke:#312E38;stroke-width:2;stroke-miterlimit:10;}
	.st4{fill:#D8D2C3;stroke:#918A79;stroke-width:3;stroke-miterlimit:10;}
	.st5{fill:#D8D2C3;stroke:#918A79;stroke-width:2;stroke-miterlimit:10;}
	.st6{fill:#FFFFFF;stroke:#231F20;stroke-width:2.4819;stroke-miterlimit:10;}
	.st7{fill:#EFEBE6;stroke:#918A79;stroke-width:4;stroke-miterlimit:10;}
	.st8{fill:#BAB15A;stroke:#6C6329;stroke-width:3;stroke-miterlimit:10;}
	.st9{fill:#FFFFFF;stroke:#A5A2A0;stroke-width:2;stroke-miterlimit:10;}
	.st10{fill:#933F47;stroke:#5B1E23;stroke-width:3;stroke-miterlimit:10;}
	.st11{fill:#D8CC73;stroke:#6C6329;stroke-width:3;stroke-miterlimit:10;}
	.st12{fill:#D3A890;stroke:#664132;stroke-width:3;stroke-miterlimit:10;}
	.st13{fill:#EFCFBD;stroke:#B27C5F;stroke-width:3;stroke-miterlimit:10;}
	.st14{fill:#7C471C;}
	.st15{fill:#BAB15A;stroke:#5B5123;stroke-width:2;stroke-miterlimit:10;}
	.st16{fill:#CEC267;stroke:#6C6329;stroke-width:2;stroke-miterlimit:10;}
	.st17{fill:#D1C99A;stroke:#89886B;stroke-width:3;stroke-miterlimit:10;}
	.st18{fill:#C07F5F;stroke:#603421;stroke-width:2.4;stroke-linecap:round;stroke-linejoin:round;stroke-miterlimit:10;}
	.st19{fill:#655684;stroke:#9683BD;stroke-width:2.5;stroke-miterlimit:10;}
	.st20{fill:#655684;}
	.st21{fill:#9683BD;}
	.st22{fill:#2C1A12;}
	.st23{fill:#603A17;}
	.st24{fill:#C07F5F;stroke:#945535;stroke-width:2.3;stroke-linecap:round;stroke-linejoin:round;stroke-miterlimit:10;}
	.st25{fill:#C07F5F;}
	.st26{fill:#603421;}
	.st27{fill:#945535;}
	.st28{fill:#231F20;}
</style>
<symbol  id="New_Symbol_8" viewBox="-52.499 -301 105 602">
	<g>
		<polygon class="st0" points="51.501,9 -51.499,9 -51.499,208 51.501,208 		"/>
		<polygon class="st1" points="46.161,13.73 -46.159,13.73 -46.159,203.269 46.161,203.269 		"/>
	</g>
	<g>
		<polygon class="st0" points="51.501,-300 -51.499,-300 -51.499,-101 51.501,-101 		"/>
		<polygon class="st1" points="46.161,-295.27 -46.159,-295.27 -46.159,-105.731 46.161,-105.731 		"/>
	</g>
	<g>
		<polygon class="st0" points="51.501,243 -51.499,243 -51.499,300 51.501,300 		"/>
		<polygon class="st1" points="46.161,247.73 -46.159,247.73 -46.159,295.269 46.161,295.269 		"/>
	</g>
</symbol>
<g>
	<defs>
		<rect id="SVGID_1_" x="0" y="0" width="500" height="500"/>
	</defs>
	<clipPath id="SVGID_2_">
		<use xlink:href="#SVGID_1_"  style="overflow:visible;"/>
	</clipPath>
	<g class="st2">
		<rect x="51.135" y="-21.348" class="st3" width="351.73" height="561.953"/>
		<rect x="-9.607" y="-21.348" class="st4" width="60.741" height="561.953"/>
		<line class="st5" x1="-0.448" y1="540.605" x2="-0.448" y2="-21.348"/>
		<rect x="452.354" y="-21.348" class="st4" width="60.741" height="561.953"/>
		<path class="st7" d="M40.983,312.854H10.946c-2.12,0-3.839-1.719-3.839-3.839v-78.431c0-2.12,1.719-3.839,3.839-3.839h30.037
			c2.12,0,3.839,1.719,3.839,3.839v78.431C44.822,311.136,43.103,312.854,40.983,312.854z"/>
		<circle class="st8" cx="25.964" cy="250.762" r="9.607"/>
		<circle class="st9" cx="25.964" cy="250.762" r="7.195"/>
		<rect x="93.297" y="-21.348" class="st10" width="358.813" height="561.953"/>
		<g>
			<circle class="st8" cx="152.088" cy="404.467" r="18.146"/>
			<circle class="st11" cx="170.234" cy="404.467" r="26.685"/>
		</g>
		
			<use xlink:href="#New_Symbol_8"  width="105" height="602" id="XMLID_25_" x="-52.499" y="-301" transform="matrix(1.0674 0 0 -1.0674 198.5197 342.558)" style="overflow:visible;"/>
		
			<use xlink:href="#New_Symbol_8"  width="105" height="602" x="-52.499" y="-301" transform="matrix(1.0674 0 0 -1.0674 347.9543 342.558)" style="overflow:visible;"/>
		<ellipse class="st12" cx="267.019" cy="107.089" rx="108.844" ry="52.416"/>
		<ellipse class="st13" cx="267.787" cy="107.089" rx="99.486" ry="43.859"/>
		<path class="st14" d="M219.369,87.021c0.179-0.672,0.505-1.142,0.976-1.411c0.47-0.27,0.952-0.359,1.445-0.27
			c0.493,0.09,0.908,0.342,1.244,0.756c0.336,0.415,0.459,0.958,0.37,1.63c-0.134,0.852-0.309,1.703-0.522,2.555
			c-0.213,0.852-0.443,1.693-0.688,2.521c-0.336,1.076-0.712,2.129-1.126,3.16c-0.415,1.031-0.801,2.084-1.16,3.159
			c-0.359,1.008-0.722,2.012-1.092,3.009c-0.37,0.998-0.756,2-1.159,3.009c-0.135,0.336-0.276,0.69-0.421,1.058
			c-0.145,0.37-0.33,0.69-0.554,0.958c-0.336,0.448-0.795,0.717-1.378,0.808c-0.583,0.089-1.097-0.056-1.546-0.438
			c-0.359-0.314-0.616-0.701-0.773-1.16c-0.157-0.459-0.325-0.902-0.504-1.327c-0.202-0.538-0.431-1.131-0.69-1.782
			c-0.257-0.65-0.475-1.232-0.655-1.748c-0.381-1.008-0.746-2.022-1.092-3.041c-0.349-1.02-0.712-2.034-1.092-3.042
			c-0.315,0.941-0.645,1.855-0.992,2.739c-0.347,0.887-0.678,1.788-0.992,2.706c-0.247,0.606-0.482,1.21-0.706,1.815
			c-0.224,0.606-0.459,1.2-0.706,1.782c-0.157,0.404-0.285,0.711-0.386,0.924c-0.1,0.213-0.263,0.544-0.487,0.992
			c-0.158,0.357-0.393,0.677-0.706,0.958c-0.315,0.28-0.645,0.47-0.992,0.571c-0.347,0.102-0.701,0.095-1.058-0.016
			c-0.359-0.113-0.672-0.381-0.942-0.806c-0.381-0.583-0.645-1.267-0.79-2.05c-0.145-0.785-0.319-1.501-0.52-2.152
			c-0.134-0.403-0.263-0.806-0.386-1.21c-0.124-0.403-0.252-0.795-0.388-1.176c-0.134-0.403-0.275-0.806-0.42-1.21
			c-0.145-0.403-0.285-0.795-0.42-1.176c-0.448-1.299-0.913-2.582-1.395-3.849c-0.482-1.265-0.969-2.537-1.462-3.815
			c-0.089-0.268-0.213-0.543-0.37-0.824c-0.157-0.28-0.302-0.571-0.436-0.873c-0.134-0.303-0.241-0.606-0.32-0.908
			s-0.107-0.599-0.084-0.89c0.045-0.381,0.186-0.706,0.42-0.976c0.236-0.268,0.509-0.464,0.824-0.588
			c0.314-0.123,0.65-0.168,1.008-0.134s0.683,0.174,0.974,0.42c0.606,0.515,1.06,1.199,1.362,2.05
			c0.302,0.852,0.588,1.637,0.857,2.353c0.314,0.785,0.606,1.575,0.874,2.37c0.27,0.795,0.561,1.585,0.874,2.37
			c0.314,0.852,0.616,1.692,0.908,2.521c0.291,0.829,0.571,1.669,0.84,2.521c0.089-0.202,0.168-0.409,0.235-0.622
			c0.068-0.212,0.145-0.431,0.236-0.656c0.448-1.12,0.868-2.229,1.26-3.327c0.393-1.097,0.756-2.219,1.092-3.361
			c0.112-0.314,0.207-0.633,0.286-0.958c0.078-0.325,0.162-0.645,0.252-0.958c0.157-0.538,0.257-0.958,0.302-1.26
			c0.045-0.302,0.179-0.633,0.404-0.992c0.202-0.314,0.47-0.543,0.806-0.688c0.336-0.145,0.683-0.213,1.042-0.202
			c0.359,0.011,0.69,0.107,0.992,0.286c0.302,0.179,0.532,0.448,0.688,0.806c0.068,0.134,0.157,0.342,0.27,0.622
			c0.112,0.28,0.223,0.583,0.336,0.907c0.112,0.326,0.223,0.628,0.336,0.908c0.112,0.281,0.189,0.488,0.235,0.622
			c0.27,0.717,0.527,1.423,0.774,2.118c0.246,0.695,0.493,1.401,0.74,2.117c0.314,0.919,0.632,1.821,0.957,2.706
			c0.325,0.885,0.656,1.765,0.992,2.639c0.202-0.583,0.393-1.176,0.572-1.782c0.179-0.604,0.38-1.198,0.604-1.781
			c0.606-1.614,1.181-3.227,1.732-4.841c0.548-1.613,0.968-3.261,1.26-4.941L219.369,87.021z"/>
		<path class="st14" d="M238.395,102.349c0.404,0.023,0.756,0.129,1.058,0.32c0.303,0.191,0.549,0.42,0.74,0.69
			c0.191,0.268,0.302,0.577,0.336,0.924c0.034,0.347-0.039,0.7-0.218,1.058c-0.068,0.157-0.208,0.342-0.42,0.554
			c-0.213,0.213-0.409,0.342-0.588,0.386c-1.435,0.426-2.908,0.69-4.421,0.79c-1.512,0.102-3.009,0.073-4.487-0.084
			c-0.426-0.045-0.89-0.089-1.395-0.134c-0.504-0.045-0.947-0.191-1.328-0.436c-0.695-0.449-1.042-1.087-1.042-1.916V90.182
			c-0.247-0.179-0.449-0.404-0.604-0.672c-0.158-0.27-0.252-0.556-0.286-0.858c-0.034-0.302,0.005-0.593,0.118-0.874
			c0.112-0.28,0.302-0.52,0.571-0.722c0.448-0.359,0.963-0.599,1.546-0.722s1.154-0.229,1.714-0.32
			c1.165-0.179,2.33-0.268,3.496-0.268c1.164,0,2.353-0.011,3.563-0.034c0.357,0,0.773-0.028,1.243-0.084
			c0.472-0.055,0.885-0.016,1.244,0.118c0.425,0.157,0.761,0.403,1.008,0.739s0.393,0.695,0.438,1.076
			c0.044,0.381-0.029,0.751-0.219,1.11s-0.52,0.638-0.991,0.84c-0.561,0.224-1.16,0.325-1.798,0.302s-1.25-0.034-1.832-0.034
			c-0.852,0-1.703,0.011-2.555,0.034s-1.703,0.09-2.555,0.202v4.672c0.806,0.045,1.613,0.045,2.42,0
			c0.806-0.044,1.613-0.1,2.42-0.168c0.357-0.021,0.716-0.055,1.075-0.1c0.359-0.045,0.729-0.045,1.11,0
			c0.493,0.068,0.874,0.268,1.142,0.604c0.27,0.336,0.431,0.712,0.488,1.126c0.055,0.415-0.018,0.824-0.218,1.228
			c-0.202,0.403-0.528,0.695-0.976,0.873c-0.381,0.158-0.897,0.275-1.546,0.354s-1.333,0.134-2.05,0.168
			c-0.717,0.034-1.423,0.05-2.117,0.05c-0.695,0-1.278-0.011-1.748-0.034v4.135c1.232,0.157,2.476,0.179,3.731,0.068
			c1.255-0.113,2.488-0.325,3.697-0.64H238.395z"/>
		<path class="st14" d="M256.176,103.257c0.515,0.247,0.908,0.561,1.176,0.942c0.27,0.381,0.398,0.768,0.388,1.159
			c-0.013,0.393-0.158,0.762-0.438,1.11c-0.28,0.347-0.711,0.609-1.294,0.79c-0.224,0.066-0.538,0.105-0.941,0.117
			c-0.404,0.011-0.964,0.018-1.68,0.018c-0.717,0-1.625,0-2.723,0c-1.099,0-2.454,0.011-4.068,0.034
			c-0.403,0.021-0.818,0.033-1.243,0.033c-0.426,0-0.796-0.145-1.11-0.436c-0.268-0.224-0.465-0.566-0.588-1.025
			c-0.123-0.459-0.202-0.942-0.235-1.446c-0.034-0.504-0.045-1.008-0.034-1.512c0.011-0.504,0.016-0.924,0.016-1.26
			c0-0.672,0.005-1.446,0.018-2.32c0.01-0.874,0.021-1.765,0.033-2.671c0.011-0.908,0.018-1.798,0.018-2.672s0-1.648,0-2.32
			c0-1.188,0.011-2.145,0.034-2.873c0.021-0.729,0.071-1.299,0.15-1.714c0.079-0.415,0.207-0.717,0.386-0.908
			c0.179-0.191,0.426-0.352,0.74-0.488c0.268-0.112,0.566-0.15,0.89-0.117c0.325,0.033,0.627,0.123,0.908,0.268
			c0.28,0.145,0.515,0.347,0.706,0.604c0.189,0.258,0.286,0.544,0.286,0.858c0.044,2.689,0.044,5.356,0,8
			c-0.045,2.645-0.068,5.289-0.068,7.933c1.412,0,2.818-0.018,4.219-0.051c1.4-0.033,2.818-0.071,4.251-0.117L256.176,103.257z"/>
		<path d="M270.832,100.602c0.357-0.359,0.768-0.566,1.227-0.622c0.459-0.056,0.879,0.005,1.26,0.184
			c0.381,0.179,0.678,0.465,0.892,0.858c0.212,0.393,0.262,0.857,0.15,1.395c-0.134,0.538-0.393,1.037-0.773,1.496
			c-0.381,0.459-0.763,0.879-1.144,1.26c-0.873,0.919-1.844,1.596-2.907,2.033c-1.065,0.438-2.141,0.645-3.227,0.622
			c-1.087-0.023-2.152-0.28-3.193-0.773c-1.042-0.493-1.979-1.233-2.807-2.218c-0.494-0.583-0.908-1.199-1.244-1.849
			c-0.336-0.65-0.594-1.333-0.774-2.05c-0.268-1.053-0.393-2.152-0.37-3.295c0.023-1.142,0.202-2.252,0.538-3.327
			c0.336-1.076,0.813-2.089,1.428-3.042c0.617-0.952,1.373-1.765,2.27-2.437c0.65-0.493,1.304-0.919,1.966-1.278
			c0.66-0.359,1.361-0.695,2.101-1.008c0.425-0.179,0.863-0.352,1.311-0.52c0.448-0.168,0.908-0.297,1.378-0.388
			c0.47-0.089,0.942-0.123,1.412-0.1c0.47,0.023,0.929,0.123,1.378,0.302c0.314,0.134,0.627,0.32,0.941,0.554
			c0.314,0.236,0.606,0.504,0.874,0.808c0.27,0.302,0.504,0.622,0.706,0.958c0.202,0.336,0.347,0.661,0.436,0.974
			c0.068,0.291,0.084,0.588,0.051,0.89c-0.034,0.302-0.124,0.577-0.27,0.824c-0.145,0.247-0.341,0.454-0.588,0.622
			c-0.247,0.168-0.527,0.275-0.84,0.319c-0.515,0.068-0.913,0.013-1.193-0.168c-0.281-0.179-0.505-0.403-0.673-0.672
			c-0.168-0.268-0.33-0.532-0.487-0.79c-0.157-0.257-0.381-0.441-0.672-0.554c-0.179,0-0.315,0.011-0.404,0.034
			c-0.763,0.202-1.529,0.477-2.303,0.824c-0.773,0.347-1.49,0.768-2.151,1.26c-0.662,0.493-1.239,1.065-1.732,1.714
			c-0.493,0.65-0.852,1.378-1.075,2.185c-0.27,0.963-0.37,1.939-0.303,2.925c0.068,0.986,0.336,1.915,0.808,2.789
			c0.268,0.517,0.627,0.964,1.075,1.344c0.449,0.382,0.942,0.667,1.48,0.858c0.538,0.191,1.086,0.258,1.647,0.202
			c0.561-0.056,1.097-0.252,1.614-0.588c0.448-0.314,0.852-0.701,1.21-1.16C270.215,101.538,270.54,101.072,270.832,100.602z"/>
		<path d="M296.378,97.946c-0.381,1.255-0.869,2.482-1.462,3.681c-0.594,1.199-1.317,2.269-2.168,3.211
			c-0.852,0.941-1.844,1.703-2.975,2.285c-1.132,0.583-2.427,0.874-3.883,0.874c-0.941-0.045-1.687-0.129-2.235-0.252
			c-0.549-0.123-1.082-0.309-1.596-0.554c-0.919-0.268-1.709-0.7-2.37-1.294c-0.661-0.593-1.216-1.283-1.664-2.067
			c-0.448-0.785-0.79-1.619-1.025-2.504c-0.236-0.885-0.386-1.742-0.454-2.571c-0.113-1.457,0.011-2.936,0.37-4.437
			c0.357-1.501,0.929-2.886,1.714-4.152c0.784-1.265,1.77-2.353,2.957-3.261c1.188-0.907,2.543-1.506,4.068-1.798
			c0.784-0.134,1.579-0.178,2.387-0.134c0.806,0.045,1.59,0.202,2.353,0.472c0.627,0.223,1.21,0.482,1.747,0.773
			c0.538,0.291,1.053,0.661,1.546,1.109c0.65,0.583,1.199,1.255,1.648,2.018c0.448,0.761,0.773,1.558,0.974,2.387
			c0.246,1.053,0.359,2.096,0.336,3.125C296.624,95.884,296.534,96.916,296.378,97.946z M287.672,103.627
			c0.672-0.291,1.26-0.677,1.765-1.16c0.504-0.482,0.947-1.013,1.328-1.596c0.38-0.582,0.7-1.204,0.957-1.865
			c0.258-0.661,0.488-1.328,0.69-2c0.134-0.852,0.207-1.726,0.218-2.622c0.011-0.895-0.173-1.748-0.554-2.555
			c-0.315-0.672-0.79-1.249-1.428-1.731s-1.339-0.818-2.101-1.008c-0.762-0.191-1.53-0.229-2.303-0.118
			c-0.774,0.112-1.462,0.415-2.068,0.908c-0.852,0.717-1.541,1.517-2.067,2.403c-0.527,0.885-0.924,1.865-1.194,2.941
			c-0.224,0.852-0.347,1.748-0.37,2.689c-0.023,0.942,0.123,1.839,0.438,2.69c0.246,0.627,0.611,1.199,1.092,1.714
			c0.482,0.515,1.025,0.919,1.63,1.21c0.604,0.291,1.249,0.453,1.933,0.487C286.322,104.047,287,103.918,287.672,103.627z"/>
		<path d="M323.503,105.644c-0.068,0.493-0.247,0.913-0.538,1.26c-0.291,0.347-0.627,0.588-1.008,0.722
			c-0.381,0.135-0.773,0.14-1.176,0.018c-0.404-0.124-0.74-0.42-1.008-0.89c-0.224-0.381-0.352-0.779-0.386-1.194
			c-0.034-0.414-0.074-0.845-0.118-1.294c-0.045-0.493-0.095-0.924-0.152-1.294c-0.056-0.37-0.118-0.8-0.184-1.294
			c-0.202-1.344-0.426-2.671-0.672-3.983c-0.247-1.311-0.527-2.627-0.84-3.949c-0.449,1.121-0.874,2.23-1.278,3.327
			c-0.403,1.099-0.806,2.208-1.21,3.328c-0.314,0.829-0.622,1.664-0.924,2.504s-0.655,1.653-1.058,2.437
			c-0.134,0.268-0.359,0.488-0.672,0.656c-0.315,0.168-0.651,0.263-1.008,0.285c-0.359,0.023-0.695-0.028-1.008-0.15
			c-0.315-0.123-0.549-0.331-0.706-0.622c-0.964-1.86-1.916-3.708-2.857-5.547c-0.942-1.837-1.882-3.686-2.824-5.546
			c-0.113,1.142-0.213,2.291-0.302,3.445c-0.09,1.155-0.191,2.303-0.302,3.446c-0.023,0.359-0.045,0.795-0.068,1.311
			s-0.061,1.037-0.118,1.563c-0.056,0.527-0.123,1.031-0.202,1.512c-0.078,0.483-0.207,0.858-0.386,1.126
			c-0.268,0.448-0.622,0.74-1.058,0.874c-0.438,0.134-0.863,0.145-1.278,0.034c-0.414-0.113-0.761-0.342-1.042-0.69
			c-0.28-0.347-0.409-0.789-0.386-1.327c0.045-0.919,0.123-1.826,0.236-2.723c0.112-0.897,0.212-1.803,0.302-2.723
			c0.179-1.995,0.364-3.978,0.554-5.949c0.191-1.973,0.375-3.967,0.556-5.983c0.044-0.583,0.162-1.121,0.352-1.614
			c0.191-0.493,0.599-0.84,1.227-1.042c0.247-0.089,0.504-0.123,0.774-0.1c0.268,0.023,0.515,0.1,0.739,0.235
			c0.493,0.315,0.88,0.746,1.16,1.294c0.28,0.549,0.543,1.071,0.79,1.564c0.425,0.806,0.84,1.619,1.244,2.437
			c0.403,0.818,0.806,1.63,1.21,2.437c0.493,1.031,0.991,2.045,1.495,3.042s1.026,1.999,1.564,3.009
			c0.134-0.336,0.263-0.672,0.386-1.01c0.123-0.336,0.252-0.672,0.386-1.008c0.247-0.582,0.477-1.17,0.69-1.765
			c0.212-0.593,0.431-1.181,0.655-1.765c0.314-0.761,0.611-1.512,0.892-2.252c0.28-0.739,0.554-1.49,0.823-2.252
			c0.224-0.559,0.438-1.164,0.64-1.815c0.201-0.65,0.525-1.199,0.974-1.647c0.314-0.336,0.655-0.538,1.025-0.606
			c0.37-0.066,0.717-0.039,1.042,0.084c0.325,0.124,0.616,0.331,0.874,0.622c0.257,0.292,0.443,0.628,0.554,1.008
			c0.135,0.517,0.291,1.099,0.472,1.748c0.178,0.651,0.336,1.233,0.47,1.748c0.246,0.941,0.47,1.865,0.672,2.773
			s0.391,1.832,0.572,2.773c0.314,1.546,0.588,3.076,0.823,4.589c0.236,1.512,0.443,3.042,0.622,4.589V105.644z"/>
		<path d="M337.756,102.349c0.404,0.023,0.756,0.129,1.058,0.32c0.303,0.191,0.549,0.42,0.74,0.69
			c0.191,0.268,0.302,0.577,0.336,0.924c0.034,0.347-0.039,0.7-0.218,1.058c-0.068,0.157-0.208,0.342-0.42,0.554
			c-0.213,0.213-0.409,0.342-0.588,0.386c-1.435,0.426-2.908,0.69-4.421,0.79c-1.512,0.102-3.009,0.073-4.487-0.084
			c-0.426-0.045-0.89-0.089-1.395-0.134c-0.504-0.045-0.947-0.191-1.328-0.436c-0.695-0.449-1.042-1.087-1.042-1.916V90.182
			c-0.247-0.179-0.449-0.404-0.604-0.672c-0.158-0.27-0.252-0.556-0.286-0.858c-0.034-0.302,0.005-0.593,0.118-0.874
			c0.112-0.28,0.302-0.52,0.571-0.722c0.448-0.359,0.963-0.599,1.546-0.722s1.154-0.229,1.714-0.32
			c1.165-0.179,2.33-0.268,3.496-0.268c1.164,0,2.353-0.011,3.563-0.034c0.357,0,0.773-0.028,1.243-0.084
			c0.472-0.055,0.885-0.016,1.244,0.118c0.425,0.157,0.761,0.403,1.008,0.739c0.247,0.336,0.393,0.695,0.438,1.076
			c0.044,0.381-0.029,0.751-0.219,1.11c-0.191,0.359-0.52,0.638-0.991,0.84c-0.561,0.224-1.16,0.325-1.798,0.302
			s-1.25-0.034-1.832-0.034c-0.852,0-1.703,0.011-2.555,0.034s-1.703,0.09-2.555,0.202v4.672c0.806,0.045,1.613,0.045,2.42,0
			c0.806-0.044,1.613-0.1,2.42-0.168c0.357-0.021,0.716-0.055,1.075-0.1c0.359-0.045,0.729-0.045,1.11,0
			c0.493,0.068,0.874,0.268,1.142,0.604c0.27,0.336,0.431,0.712,0.488,1.126c0.055,0.415-0.018,0.824-0.218,1.228
			c-0.202,0.403-0.528,0.695-0.976,0.873c-0.381,0.158-0.897,0.275-1.546,0.354c-0.65,0.079-1.333,0.134-2.05,0.168
			c-0.717,0.034-1.423,0.05-2.117,0.05c-0.695,0-1.278-0.011-1.748-0.034v4.135c1.232,0.157,2.476,0.179,3.731,0.068
			c1.255-0.113,2.488-0.325,3.697-0.64H337.756z"/>
		<path class="st14" d="M242.478,121.419c0.538,0.157,0.942,0.443,1.21,0.858c0.27,0.415,0.398,0.845,0.388,1.294
			c-0.013,0.448-0.152,0.868-0.421,1.26c-0.268,0.393-0.661,0.645-1.176,0.756v5.848c0,0.561-0.139,1.06-0.42,1.496
			c-0.28,0.438-0.622,0.745-1.025,0.924c-0.404,0.179-0.829,0.219-1.278,0.118c-0.448-0.1-0.852-0.398-1.21-0.89
			c-0.157-0.224-0.263-0.482-0.319-0.774c-0.056-0.291-0.084-0.559-0.084-0.806v-5.815h-7.832v5.715
			c0,0.247-0.023,0.499-0.068,0.756s-0.123,0.487-0.236,0.689c-0.291,0.538-0.661,0.885-1.109,1.042
			c-0.449,0.157-0.885,0.152-1.311-0.016c-0.426-0.168-0.79-0.46-1.092-0.874c-0.303-0.415-0.454-0.924-0.454-1.53v-17.378
			c0-0.582,0.173-1.086,0.52-1.512c0.347-0.425,0.745-0.722,1.194-0.89c0.448-0.168,0.902-0.179,1.361-0.034
			c0.459,0.145,0.801,0.499,1.026,1.058c0.066,0.179,0.112,0.342,0.134,0.488c0.021,0.145,0.034,0.309,0.034,0.487v7.597h7.832
			v-7.194c0-0.448,0.1-0.874,0.302-1.277c0.246-0.493,0.599-0.84,1.058-1.042s0.908-0.257,1.344-0.168
			c0.438,0.089,0.818,0.309,1.144,0.655c0.325,0.349,0.487,0.824,0.487,1.428V121.419z"/>
		<path class="st14" d="M265.437,124.31c-0.381,1.255-0.869,2.482-1.462,3.681c-0.594,1.199-1.317,2.269-2.168,3.211
			c-0.852,0.941-1.844,1.703-2.975,2.285c-1.132,0.583-2.427,0.874-3.883,0.874c-0.941-0.045-1.687-0.129-2.235-0.252
			c-0.549-0.123-1.082-0.309-1.596-0.554c-0.919-0.268-1.709-0.7-2.37-1.294c-0.661-0.593-1.216-1.283-1.664-2.067
			c-0.448-0.785-0.79-1.619-1.025-2.504c-0.236-0.885-0.386-1.742-0.454-2.571c-0.113-1.457,0.011-2.936,0.37-4.437
			c0.357-1.501,0.929-2.886,1.714-4.152c0.784-1.265,1.77-2.353,2.957-3.261c1.188-0.907,2.543-1.506,4.068-1.798
			c0.784-0.134,1.579-0.178,2.387-0.134c0.806,0.045,1.59,0.202,2.353,0.472c0.627,0.223,1.21,0.482,1.747,0.773
			c0.538,0.291,1.053,0.661,1.546,1.109c0.65,0.583,1.199,1.255,1.648,2.018c0.448,0.761,0.773,1.558,0.974,2.387
			c0.246,1.053,0.359,2.096,0.336,3.125C265.683,122.248,265.593,123.28,265.437,124.31z M256.731,129.991
			c0.672-0.291,1.26-0.677,1.765-1.16c0.504-0.482,0.947-1.013,1.328-1.596c0.38-0.582,0.7-1.204,0.957-1.865
			c0.258-0.661,0.488-1.328,0.69-2c0.134-0.852,0.207-1.726,0.218-2.622c0.011-0.895-0.173-1.748-0.554-2.555
			c-0.315-0.672-0.79-1.249-1.428-1.731s-1.339-0.818-2.101-1.008c-0.762-0.191-1.53-0.229-2.303-0.118
			c-0.774,0.112-1.462,0.415-2.068,0.908c-0.852,0.717-1.541,1.517-2.067,2.403c-0.527,0.885-0.924,1.865-1.194,2.941
			c-0.224,0.852-0.347,1.748-0.37,2.689c-0.023,0.942,0.123,1.839,0.438,2.69c0.246,0.627,0.611,1.199,1.092,1.714
			c0.482,0.515,1.025,0.919,1.63,1.21c0.604,0.291,1.249,0.453,1.933,0.487S256.059,130.282,256.731,129.991z"/>
		<path class="st14" d="M292.563,132.007c-0.068,0.493-0.247,0.913-0.538,1.26s-0.627,0.588-1.008,0.722
			c-0.381,0.135-0.773,0.14-1.176,0.018c-0.404-0.124-0.74-0.42-1.008-0.89c-0.224-0.381-0.352-0.779-0.386-1.194
			c-0.034-0.414-0.074-0.845-0.118-1.294c-0.045-0.493-0.095-0.924-0.152-1.294c-0.056-0.37-0.118-0.8-0.184-1.294
			c-0.202-1.344-0.426-2.671-0.672-3.983c-0.247-1.311-0.527-2.627-0.84-3.949c-0.449,1.121-0.874,2.23-1.278,3.327
			c-0.403,1.099-0.806,2.208-1.21,3.328c-0.314,0.829-0.622,1.664-0.924,2.504s-0.655,1.653-1.058,2.437
			c-0.134,0.268-0.359,0.488-0.672,0.656c-0.315,0.168-0.651,0.263-1.008,0.285c-0.359,0.023-0.695-0.028-1.008-0.15
			c-0.315-0.123-0.549-0.331-0.706-0.622c-0.964-1.86-1.916-3.708-2.857-5.547c-0.942-1.837-1.882-3.686-2.824-5.546
			c-0.113,1.142-0.213,2.291-0.302,3.445c-0.09,1.155-0.191,2.303-0.302,3.446c-0.023,0.359-0.045,0.795-0.068,1.311
			c-0.023,0.515-0.061,1.037-0.118,1.563c-0.056,0.527-0.123,1.031-0.202,1.512c-0.078,0.483-0.207,0.858-0.386,1.126
			c-0.268,0.448-0.622,0.74-1.058,0.874c-0.438,0.134-0.863,0.145-1.278,0.034c-0.414-0.113-0.761-0.342-1.042-0.69
			c-0.28-0.347-0.409-0.789-0.386-1.327c0.045-0.919,0.123-1.826,0.236-2.723c0.112-0.897,0.212-1.803,0.302-2.723
			c0.179-1.995,0.364-3.978,0.554-5.949c0.191-1.973,0.375-3.967,0.556-5.983c0.044-0.583,0.162-1.121,0.352-1.614
			c0.191-0.493,0.599-0.84,1.227-1.042c0.247-0.089,0.504-0.123,0.774-0.1c0.268,0.023,0.515,0.1,0.739,0.235
			c0.493,0.315,0.88,0.746,1.16,1.294c0.28,0.549,0.543,1.071,0.79,1.564c0.425,0.806,0.84,1.619,1.244,2.437
			c0.403,0.818,0.806,1.63,1.21,2.437c0.493,1.031,0.991,2.045,1.495,3.042s1.026,1.999,1.564,3.009
			c0.134-0.336,0.263-0.672,0.386-1.01c0.123-0.336,0.252-0.672,0.386-1.008c0.247-0.582,0.477-1.17,0.69-1.765
			c0.212-0.593,0.431-1.181,0.655-1.765c0.314-0.761,0.611-1.512,0.892-2.252c0.28-0.739,0.554-1.49,0.823-2.252
			c0.224-0.559,0.438-1.164,0.64-1.815c0.201-0.65,0.525-1.199,0.974-1.647c0.314-0.336,0.655-0.538,1.025-0.606
			c0.37-0.066,0.717-0.039,1.042,0.084c0.325,0.124,0.616,0.331,0.874,0.622c0.257,0.292,0.443,0.628,0.554,1.008
			c0.135,0.517,0.291,1.099,0.472,1.748c0.178,0.651,0.336,1.233,0.47,1.748c0.246,0.941,0.47,1.865,0.672,2.773
			s0.391,1.832,0.572,2.773c0.314,1.546,0.588,3.076,0.823,4.589c0.236,1.512,0.443,3.042,0.622,4.589V132.007z"/>
		<path d="M306.815,128.713c0.404,0.023,0.756,0.129,1.058,0.32c0.303,0.191,0.549,0.42,0.74,0.69
			c0.191,0.268,0.302,0.577,0.336,0.924c0.034,0.347-0.039,0.7-0.218,1.058c-0.068,0.157-0.208,0.342-0.42,0.554
			c-0.213,0.213-0.409,0.342-0.588,0.386c-1.435,0.426-2.908,0.69-4.421,0.79c-1.512,0.102-3.009,0.073-4.487-0.084
			c-0.426-0.045-0.89-0.089-1.395-0.134c-0.504-0.045-0.947-0.191-1.328-0.436c-0.695-0.449-1.042-1.087-1.042-1.916v-14.319
			c-0.247-0.179-0.449-0.404-0.604-0.672c-0.158-0.27-0.252-0.556-0.286-0.858c-0.034-0.302,0.005-0.593,0.118-0.874
			c0.112-0.28,0.302-0.52,0.571-0.722c0.448-0.359,0.963-0.599,1.546-0.722s1.154-0.229,1.714-0.32
			c1.165-0.179,2.33-0.268,3.496-0.268c1.164,0,2.353-0.011,3.563-0.034c0.357,0,0.773-0.028,1.243-0.084
			c0.472-0.055,0.885-0.016,1.244,0.118c0.425,0.157,0.761,0.403,1.008,0.739c0.247,0.336,0.393,0.695,0.438,1.076
			c0.044,0.381-0.029,0.751-0.219,1.11c-0.191,0.359-0.52,0.638-0.991,0.84c-0.561,0.224-1.16,0.325-1.798,0.302
			c-0.638-0.023-1.25-0.034-1.832-0.034c-0.852,0-1.703,0.011-2.555,0.034s-1.703,0.09-2.555,0.202v4.672
			c0.806,0.045,1.613,0.045,2.42,0c0.806-0.044,1.613-0.1,2.42-0.168c0.357-0.021,0.716-0.055,1.075-0.1
			c0.359-0.045,0.729-0.045,1.11,0c0.493,0.068,0.874,0.268,1.142,0.604c0.27,0.336,0.431,0.712,0.488,1.126
			c0.055,0.415-0.018,0.824-0.218,1.228c-0.202,0.403-0.528,0.695-0.976,0.873c-0.381,0.158-0.897,0.275-1.546,0.354
			s-1.333,0.134-2.05,0.168c-0.717,0.034-1.423,0.05-2.117,0.05c-0.695,0-1.278-0.011-1.748-0.034v4.135
			c1.232,0.157,2.476,0.179,3.731,0.068c1.255-0.113,2.488-0.325,3.697-0.64H306.815z"/>
		<path class="st15" d="M471.568,164.595h-39.075c-0.853,0-1.544-0.691-1.544-1.544v-62.85c0-0.853,0.691-1.544,1.544-1.544h39.075
			c0.853,0,1.544,0.691,1.544,1.544v62.85C473.112,163.904,472.421,164.595,471.568,164.595z"/>
		<circle class="st16" cx="464.306" cy="112.808" r="4.27"/>
		<circle class="st16" cx="464.306" cy="150.445" r="4.27"/>
		<circle class="st16" cx="439.756" cy="112.808" r="4.27"/>
		<circle class="st16" cx="439.756" cy="150.445" r="4.27"/>
		<rect x="448.829" y="98.658" class="st16" width="6.404" height="65.937"/>
		<line class="st16" x1="448.829" y1="105.591" x2="455.233" y2="105.591"/>
		<line class="st16" x1="448.829" y1="157.662" x2="455.233" y2="157.662"/>
		<path class="st17" d="M375.177,481.058c2.87,7.725,5.74,15.45,8.612,23.175c-4.445,4.526-10.179,7.815-16.33,9.374
			c-0.451-14.196,0.93-28.448,4.098-42.295C372.764,474.561,373.971,477.81,375.177,481.058z"/>
		<path class="st17" d="M374.774,491.773c1.738,6.85,3.476,13.699,5.214,20.549c26.861-1.163,53.721-2.326,80.582-3.489
			c3.39-8.189,6.385-16.521,8.363-25.15c2.672-11.661,3.383-24.021,0.663-35.6c-35.436,5.197-71.809,3.996-106.817-3.572
			C366.777,460.263,370.776,476.018,374.774,491.773z"/>
		<path class="st18" d="M474.399,284.128c22.404,47.181,34.699,99.12,35.937,151.331c8.404,19.208,8.254,42.179-1.041,61.036
			c-1.813,3.678-4.056,7.323-7.478,9.584c-3.422,2.261-8.278,2.781-11.518,0.266c-4.867-3.777-3.563-11.374-1.443-17.159
			c1.912-5.218,3.975-11.435,1.538-16.14c-1.916,5.601-4.251,11.345-9.041,14.727c-2.425,1.712-6.016,2.566-8.209,0.564
			c-2.465-2.249-1.486-6.235-0.61-9.455c1.57-5.767,2.171-11.796,1.771-17.76c-0.526-7.849-2.592-16.472,1.722-23.05
			l-34.137-145.148L474.399,284.128z"/>
		<path class="st19" d="M469.806,294.286c1.462-0.714,2.903-1.472,4.316-2.286c2.77-1.594,5.44-3.42,7.898-5.481
			c-13.64-33.33-33.093-64.271-57.201-91.024c17.406,31.954,29.819,66.623,36.67,102.359
			C464.314,296.777,467.097,295.608,469.806,294.286z"/>
		<path class="st18" d="M280.359,156.047c-0.457,3.263,0.12,6.823,2.285,9.305c2.703,3.1,7.419,3.88,11.357,2.693
			c4.252-1.282,7.694-4.493,10.411-7.968c-8.141-2.11-15.547-6.924-20.802-13.487C282.234,149.632,280.828,152.723,280.359,156.047z
			"/>
		<g>
			<path class="st20" d="M443.985,220.433c-11.626-26.216-25.642-44.54-41.739-48.141c-13.674-3.059-27.668,6.581-35.098,18.461
				c-7.43,11.88-9.612,26.254-10.617,40.23c-2.772,38.544,3.057,48.738,3.171,87.382c0.102,34.563,5.714,81.87-13.467,133.733
				c24.753,4.368,49.666,7.909,74.765,7.802c20.644-0.088,41.565-2.79,61.103-9.245
				C485.945,391.178,471.817,283.192,443.985,220.433z"/>
			<g>
				<path class="st21" d="M445.064,219.802c-5.213-11.691-11.301-23.255-19.613-33.071c-5.971-7.052-13.629-13.595-22.873-15.645
					c-11.502-2.55-22.921,3.375-30.701,11.557c-9.063,9.53-13.25,22.379-15.181,35.143c-1.963,12.975-2.461,26.324-2.058,39.432
					c0.316,10.293,1.502,20.516,2.404,30.767c1.06,12.037,1.266,24.039,1.471,36.112c0.192,11.351,0.683,22.694,0.767,34.047
					c0.235,31.875-3.205,63.539-14.25,93.62c-0.218,0.593,0.247,1.427,0.873,1.538c35.355,6.222,71.547,10.821,107.328,5.429
					c9.907-1.493,19.681-3.757,29.205-6.872c0.555-0.182,0.881-0.631,0.918-1.205c1.835-28.888-0.207-58.088-3.525-86.794
					c-3.789-32.775-9.612-65.45-18.44-97.259C456.969,250.675,451.749,234.93,445.064,219.802c-0.649-1.469-2.804-0.198-2.159,1.262
					c12.426,28.122,20.072,58.383,25.983,88.469c6.236,31.741,10.352,63.986,11.961,96.299c0.743,14.921,0.952,29.905,0.005,44.822
					c0.306-0.402,0.612-0.804,0.918-1.205c-33.766,11.046-69.705,10.688-104.591,6.213c-10.245-1.314-20.442-2.98-30.613-4.77
					c0.291,0.513,0.582,1.025,0.873,1.538c9.539-25.982,13.623-53.38,14.248-80.97c0.261-11.521-0.033-23.04-0.36-34.557
					c-0.326-11.476-0.218-22.972-0.777-34.438c-0.504-10.342-1.66-20.622-2.545-30.933c-0.945-11.015-1.203-22.037-0.676-33.082
					c0.648-13.567,1.736-27.713,7.308-40.285c4.922-11.105,14.155-21.373,26.301-24.423c11.685-2.934,22.23,3.517,30.013,11.709
					c9.633,10.138,16.304,22.946,21.953,35.614C443.56,222.53,445.715,221.26,445.064,219.802z"/>
			</g>
		</g>
		<path class="st18" d="M408.957,87.151C395.52,55.878,356.1,42.783,320.91,57.904c-16.206,6.963-28.674,18.702-36.113,32.389
			l-7.778-3.551l-10.714,21.797c0,0,2.99,9.473,10.773,13.484c0.249,6.729,1.678,13.442,4.447,19.885
			c9.658,22.477,32.739,35.564,58.024,35.533c5.305,9.125,19.732,33.32,19.732,33.32s18.566-45.801,47.386-33.32l-6.85-29.643
			C413.356,130.093,417.619,107.31,408.957,87.151z"/>
		<g>
			<path class="st22" d="M337.559,40.468c10.866-2.464,22.173-2.947,33.157-1.235c5.174,0.807,10.007,2.994,14.031,6.344
				c13.796,11.484,24.015,27.284,28.573,44.661c5.249,20.009,2.933,41.882-6.232,60.412c-0.312,0.632-0.943,1.063-1.647,1.102
				c-5.867,0.326-11.823-1.11-16.893-4.074c-0.615-0.36-0.911-1.092-0.752-1.787c0.408-1.782,0.816-3.565,1.229-5.348
				c-5.562,4.35-14.236,8.259-20.717,7.788c-1.254-0.091-2.186-1.164-2.176-2.422c0.076-10.44-2.645-20.889-7.78-29.977
				c-14.761,5.354-30.618,7.651-46.288,6.739c-2.954-4.058-5.238-8.603-6.725-13.395c-8.692-1.889-17.073-5.211-24.695-9.796
				c-0.461-1.432-0.71-2.934-0.727-4.438c-4.008,8.168-4.851,17.853-2.285,26.584c-7.871-0.524-14.516-7.231-17.001-14.815
				c-0.184-0.562-0.35-1.127-0.499-1.696c-2.075-7.937,0.239-16.317,5.612-22.516c7.253-8.369,16.971-14.63,27.651-17.554
				C305.231,52.702,320.875,44.251,337.559,40.468z"/>
			<g>
				<path class="st23" d="M337.825,41.432c6.601-1.46,13.317-2.242,20.081-2.211c6.128,0.028,12.712,0.327,18.482,2.567
					c5.569,2.161,10.027,6.282,14.149,10.49c3.88,3.961,7.384,8.287,10.44,12.914c12.758,19.319,17.063,43.15,12.003,65.741
					c-0.753,3.362-1.703,6.681-2.847,9.932c-0.477,1.354-0.986,2.697-1.53,4.025c-0.514,1.254-1.327,4.276-2.377,5.256
					c-1.313,1.225-4.381,0.623-5.927,0.436c-1.708-0.206-3.39-0.56-5.037-1.059c-1.526-0.462-4.282-1.113-5.441-2.274
					c-1.64-1.642-0.259-4.587,0.169-6.439c0.175-0.756-0.725-1.699-1.469-1.129c-3.402,2.603-7.2,4.737-11.249,6.153
					c-2.019,0.706-4.13,1.273-6.266,1.463c-1.409,0.126-3.088,0.146-3.873-1.385c-0.411-0.802-0.056-3.133-0.11-4.024
					c-0.568-9.3-3.29-18.321-7.807-26.458c-0.201-0.362-0.724-0.605-1.129-0.46c-7.252,2.597-14.725,4.516-22.346,5.652
					c-4.173,0.622-8.384,1.007-12.6,1.164c-1.846,0.069-3.693,0.094-5.539,0.076c-1.597-0.016-4.308,0.397-5.437-0.78
					c-2.48-2.584-4.136-7.081-5.302-10.389c-0.337-0.957-0.404-1.826-1.256-2.379c-0.616-0.4-1.849-0.421-2.598-0.61
					c-1.006-0.254-2.007-0.528-3.003-0.82c-3.758-1.102-7.44-2.469-10.997-4.108c-1.616-0.745-3.207-1.542-4.77-2.392
					c-0.663-0.36-1.794-0.746-2.324-1.312c-0.994-1.063-0.938-2.65-0.996-4.029c-0.038-0.917-1.411-1.456-1.863-0.505
					c-4.079,8.572-4.954,18.205-2.386,27.355c0.321-0.422,0.643-0.844,0.964-1.266c-8.643-0.784-14.922-8.518-16.729-16.571
					c-2.073-9.24,2.146-17.634,8.597-23.999c6.221-6.137,13.875-10.845,22.219-13.474c2.001-0.63,2.59-1.085,4.1-2.567
					c1.547-1.519,3.156-2.976,4.818-4.369c3.257-2.729,6.732-5.196,10.363-7.403C319.297,47.203,328.372,43.619,337.825,41.432
					c1.253-0.29,0.723-2.219-0.532-1.929c-9.213,2.132-18.102,5.588-26.258,10.389c-3.926,2.311-7.669,4.93-11.19,7.822
					c-1.78,1.462-3.499,2.998-5.151,4.604c-1.047,1.017-1.731,1.678-3.123,2.215c-1.13,0.436-2.31,0.754-3.445,1.187
					c-15.596,5.961-33.821,20.92-28.961,39.662c2.25,8.678,9.211,16.406,18.464,17.245c0.656,0.059,1.127-0.686,0.964-1.266
					c-2.418-8.614-1.663-17.73,2.184-25.813c-0.621-0.168-1.242-0.336-1.863-0.505c0.059,1.413,0.044,3.736,0.863,4.942
					c0.79,1.163,2.997,1.892,4.231,2.545c3.482,1.842,7.102,3.434,10.809,4.767c1.953,0.702,3.933,1.329,5.935,1.881
					c0.866,0.238,2.757,0.337,3.45,0.87c0.659,0.506,0.748,1.255,1.031,2.008c1.366,3.638,3.148,7.797,5.708,10.761
					c0.975,1.129,1.893,0.907,3.426,0.966c2.153,0.082,4.308,0.104,6.462,0.065c4.31-0.076,8.612-0.395,12.887-0.945
					c8.5-1.094,16.832-3.116,24.899-6.005c-0.376-0.153-0.753-0.306-1.129-0.46c2.862,5.156,4.994,10.656,6.266,16.419
					c0.688,3.118,1.124,6.288,1.295,9.476c0.1,1.86-0.397,4.289,0.912,5.832c2.24,2.64,8.033,0.805,10.734-0.038
					c4.627-1.444,8.991-3.778,12.835-6.719c-0.49-0.376-0.979-0.753-1.469-1.129c-0.476,2.06-2.205,5.702-0.723,7.639
					c1.53,2.002,5.921,3.147,8.24,3.778c2.997,0.815,6.755,1.546,9.865,1.058c2.703-0.425,3.36-3.287,4.32-5.505
					c5.323-12.286,7.82-25.775,7.238-39.155c-0.55-12.662-3.907-25.08-9.798-36.3c-5.65-10.761-13.859-21.564-23.915-28.578
					c-6.262-4.368-13.631-5.468-21.095-5.87c-8.36-0.45-16.731,0.352-24.898,2.159C336.037,39.782,336.568,41.71,337.825,41.432z"/>
			</g>
		</g>
		<path class="st24" d="M328.264,124.239c-3.224-5.928-2.837-13.746,1.271-19.099c4.108-5.353,11.838-7.732,18.118-5.263
			c5.577,2.192,9.345,7.58,11.344,13.229c4.73,13.37,0.508,29.43-10.186,38.745"/>
		<g>
			<path class="st25" d="M148.61,387.335c-0.089-6.819,5.483-12.674,11.847-15.123s13.399-2.224,20.214-1.964
				c6.293,0.24,12.586,0.48,18.879,0.728c45.319-16.629,87.183-42.617,122.208-75.836c11.383,9.63,24.563,17.137,38.649,22.04
				c-37.874,38.383-87.266,65.259-140.052,76.256c-26.098,58.529-78.4,44.653-79.251,29.397c0.332-1.46,1.166-2.877,2.303-3.844
				c2.449-2.084,5.762-2.73,8.846-3.637c13.088-3.85,24.158-13.952,29.31-26.57c-10.063-5.306-22.613-5.722-32.969-0.977"/>
			<g>
				<path class="st26" d="M149.81,387.335c0.107-6.51,5.164-11.677,10.966-13.966c6.6-2.604,13.945-2.147,20.888-1.883
					c3.643,0.139,7.287,0.278,10.93,0.419c1.985,0.077,3.975,0.205,5.962,0.232c1.653,0.022,2.984-0.618,4.525-1.2
					c5.975-2.259,11.888-4.681,17.733-7.256c24.05-10.593,46.918-23.862,68.064-39.464c11.807-8.712,23.069-18.143,33.727-28.227
					c-0.566,0-1.131,0-1.697,0c11.623,9.762,24.862,17.308,39.179,22.348c-0.176-0.669-0.353-1.337-0.53-2.006
					c-18.909,19.104-40.584,35.359-64.191,48.21c-11.749,6.396-23.955,11.95-36.505,16.581
					c-12.461,4.598-25.139,7.843-38.019,10.987c-2.459,0.6-3.178,4.323-4.266,6.426c-1.462,2.825-3.054,5.585-4.793,8.249
					c-2.89,4.426-6.189,8.581-9.95,12.301c-6.048,5.982-13.318,10.788-21.428,13.457c-10.555,3.473-24.725,3.977-33.965-3.265
					c-1.556-1.219-3.024-2.768-3.734-4.646c-2.33-6.169,8.921-7.664,12.687-9.061c12.365-4.588,22.254-14.345,27.326-26.47
					c0.192-0.46-0.124-1.136-0.551-1.355c-10.677-5.47-23.214-5.843-34.18-0.977c-1.409,0.625-0.189,2.694,1.211,2.072
					c10.13-4.495,21.914-4.066,31.757,0.977c-0.184-0.452-0.368-0.903-0.551-1.355c-5.063,12.102-15.535,21.791-28.116,25.623
					c-4.338,1.322-12.435,2.985-12.363,9.038c0.021,1.797,1.002,3.634,2.051,5.032c6.652,8.872,20.829,10.115,30.863,8.639
					c18.294-2.691,32.931-15.556,42.344-30.899c1.637-2.668,3.137-5.42,4.513-8.231c0.841-1.716,1.024-3.074,2.994-3.501
					c1.748-0.378,3.491-0.773,5.231-1.186c6.691-1.587,13.321-3.43,19.872-5.519c13.071-4.167,25.834-9.312,38.153-15.35
					c24.788-12.15,47.791-27.983,67.922-46.879c2.507-2.354,4.966-4.758,7.385-7.202c0.668-0.675,0.308-1.711-0.53-2.006
					c-13.906-4.896-26.829-12.248-38.12-21.731c-0.507-0.426-1.192-0.478-1.697,0c-19.854,18.784-41.83,35.266-65.445,49.032
					c-11.598,6.761-23.575,12.872-35.861,18.284c-6.12,2.696-12.375,5.609-18.765,7.616c-3.572,1.122-7.998,0.29-11.722,0.147
					c-4.005-0.154-8.01-0.347-12.017-0.442c-6.96-0.164-14.436,0.165-20.555,3.87c-5.173,3.132-9.034,8.345-9.136,14.535
					C147.384,388.88,149.784,388.881,149.81,387.335L149.81,387.335z"/>
			</g>
		</g>
		<g>
			<path class="st20" d="M359.164,204.985c1.07-1.377,2.2-2.708,3.405-3.981c7.166-7.574,17.724-12.891,27.932-10.764
				c8.962,1.867,16.066,9.207,19.692,17.613c3.627,8.405,4.245,17.79,4.1,26.943c-0.589,37.021-13.33,73.702-35.533,103.304
				c-30.363-7.639-58.403-24.546-79.109-48.042c18.288-18.567,33.924-39.742,46.281-62.687
				C350.044,219.734,353.869,211.798,359.164,204.985z"/>
			<g>
				<path class="st21" d="M360.048,205.869c7.702-9.762,20.453-18.283,33.304-13.505c12.585,4.68,18.102,18.499,19.305,30.883
					c1.26,12.975-0.011,26.446-2.324,39.233c-2.28,12.607-5.93,24.969-10.85,36.798c-5.646,13.577-13.012,26.409-21.803,38.191
					c0.471-0.191,0.941-0.383,1.412-0.574c-30.242-7.693-57.85-24.351-78.558-47.72c0,0.589,0,1.178,0,1.768
					c12.079-12.302,23.028-25.695,32.642-40.008c4.816-7.171,9.296-14.567,13.417-22.16c4.279-7.885,8.173-16.005,13.65-23.159
					c0.978-1.277-1.193-2.523-2.159-1.262c-5.298,6.92-9.115,14.745-13.232,22.386c-4.098,7.605-8.552,15.016-13.346,22.202
					c-9.615,14.414-20.602,27.87-32.74,40.232c-0.494,0.503-0.452,1.258,0,1.768c20.973,23.669,49.034,40.572,79.661,48.363
					c0.59,0.15,1.07-0.116,1.412-0.574c16.76-22.46,28.2-48.817,33.055-76.427c2.401-13.657,3.833-28.231,1.91-42.032
					c-1.69-12.131-7.621-24.682-19.466-29.79c-13.97-6.025-28.484,2.754-37.058,13.619
					C357.294,205.351,359.051,207.132,360.048,205.869z"/>
			</g>
		</g>
		<g>
			<path class="st25" d="M318.385,174.247c3.254-2.798,5.089-7.362,4.052-11.568"/>
			<g>
				<path class="st27" d="M319.199,175.06c3.577-3.251,5.351-7.91,4.348-12.687c-0.304-1.448-2.522-0.835-2.218,0.611
					c0.839,3.994-0.807,7.768-3.756,10.449C316.474,174.432,318.105,176.054,319.199,175.06L319.199,175.06z"/>
			</g>
		</g>
		
			<ellipse transform="matrix(0.9302 -0.3671 0.3671 0.9302 -29.6174 115.0996)" class="st28" cx="287.775" cy="135.41" rx="3.942" ry="10.674"/>
		<g>
			<g>
				<path class="st23" d="M381.039,138.154c0,0,0.017-0.347,0.047-0.953c0.024-0.615,0.066-1.45,0.031-2.476
					c-0.042-2.044-0.34-4.732-0.944-7.321c-0.174-0.643-0.349-1.284-0.584-1.895c-0.213-0.617-0.453-1.209-0.625-1.798
					c-0.361-1.172-0.583-2.308-0.801-3.295c-0.185-0.999-0.352-1.851-0.429-2.479c-0.09-0.621-0.099-1.011-0.099-1.011
					c-0.004-0.093,0.068-0.171,0.16-0.175c0.036-0.002,0.073,0.01,0.101,0.028c0,0,1.288,0.865,2.486,2.701
					c0.31,0.452,0.596,0.968,0.869,1.528c0.289,0.555,0.504,1.175,0.711,1.82c0.36,1.311,0.431,2.776,0.581,4.196
					c0.045,0.716,0.109,1.427,0.112,2.131c0.034,0.701-0.01,1.393-0.032,2.058c-0.056,0.665-0.079,1.306-0.173,1.909
					c-0.08,0.604-0.162,1.17-0.267,1.689c-0.189,1.034-0.395,1.907-0.573,2.48c-0.175,0.582-0.275,0.914-0.275,0.914
					c-0.024,0.08-0.108,0.125-0.188,0.101C381.078,138.286,381.035,138.222,381.039,138.154z"/>
			</g>
			<g>
				<path class="st23" d="M390.666,134.423c0,0,0.061-0.388,0.168-1.067c0.101-0.687,0.251-1.629,0.346-2.79
					c0.218-2.312,0.264-5.389-0.016-8.412c-0.093-0.755-0.188-1.507-0.346-2.238c-0.136-0.733-0.303-1.445-0.403-2.141
					c-0.218-1.388-0.302-2.709-0.401-3.856c-0.064-1.154-0.126-2.134-0.126-2.843c-0.013-0.705,0.027-1.135,0.027-1.135
					c0.007-0.09,0.086-0.158,0.176-0.152c0.041,0.003,0.079,0.023,0.106,0.05c0,0,1.187,1.239,2.153,3.495
					c0.253,0.559,0.474,1.182,0.675,1.851c0.219,0.666,0.355,1.39,0.481,2.139c0.194,1.512,0.083,3.149,0.055,4.755
					c-0.044,0.805-0.069,1.608-0.154,2.395c-0.054,0.788-0.184,1.557-0.288,2.298c-0.139,0.739-0.242,1.454-0.411,2.12
					c-0.155,0.668-0.308,1.296-0.479,1.868c-0.318,1.144-0.634,2.101-0.884,2.733c-0.249,0.641-0.391,1.007-0.391,1.007
					c-0.03,0.078-0.118,0.116-0.195,0.086C390.693,134.561,390.655,134.491,390.666,134.423z"/>
			</g>
			<g>
				<path class="st23" d="M401.132,129.806c0,0,0.183-1.247,0.504-3.43c0.073-0.546,0.185-1.149,0.25-1.808
					c0.056-0.658,0.116-1.37,0.18-2.131c0.064-0.759,0.133-1.566,0.205-2.418c0.042-0.854,0.042-1.757,0.066-2.695
					c0.007-0.939,0.066-1.915,0.032-2.926c-0.044-1.01-0.089-2.054-0.135-3.127c-0.023-1.073-0.124-2.171-0.246-3.291
					c-0.12-1.12-0.205-2.267-0.359-3.425c-0.385-2.307-0.699-4.701-1.3-7.081c-0.471-2.406-1.244-4.777-1.915-7.166
					c-0.86-2.333-1.607-4.701-2.65-6.913c-0.928-2.257-2.035-4.385-3.045-6.471c-0.514-1.038-1.096-2.019-1.597-3.016
					c-0.508-0.994-1.02-1.959-1.572-2.867c-0.537-0.92-1.058-1.814-1.563-2.679c-0.501-0.869-1.061-1.66-1.558-2.448
					c-0.505-0.785-0.989-1.538-1.449-2.254c-0.496-0.692-0.967-1.349-1.409-1.966c-0.865-1.255-1.636-2.343-2.33-3.193
					c-1.345-1.737-2.086-2.778-2.086-2.778l-0.006-0.008c-0.048-0.068-0.032-0.162,0.035-0.21c0.056-0.04,0.13-0.036,0.182,0.005
					c0,0,0.987,0.791,2.667,2.263c0.413,0.374,0.897,0.766,1.376,1.237c0.467,0.483,0.973,1.006,1.513,1.565
					c0.535,0.567,1.105,1.17,1.705,1.806c0.575,0.657,1.147,1.377,1.747,2.127c0.589,0.757,1.247,1.518,1.849,2.361
					c0.582,0.858,1.183,1.745,1.801,2.657c0.304,0.46,0.636,0.912,0.928,1.397c0.281,0.491,0.565,0.988,0.852,1.491
					c0.574,1.006,1.158,2.037,1.707,3.107c0.978,2.2,2.077,4.433,2.864,6.837c0.918,2.351,1.589,4.827,2.339,7.268
					c0.583,2.49,1.263,4.953,1.637,7.441c0.504,2.462,0.719,4.927,1.004,7.296c0.105,1.189,0.14,2.364,0.211,3.509
					c0.031,0.573,0.062,1.139,0.092,1.699c0.019,0.56-0.008,1.115-0.01,1.661c-0.015,1.092-0.03,2.154-0.045,3.181
					c-0.024,1.026-0.14,2.015-0.202,2.964c-0.079,0.949-0.132,1.857-0.223,2.72c-0.123,0.86-0.239,1.676-0.348,2.443
					c-0.109,0.765-0.212,1.48-0.306,2.142c-0.107,0.658-0.26,1.249-0.369,1.79c-0.465,2.156-0.731,3.388-0.731,3.388
					c-0.017,0.081-0.097,0.133-0.178,0.115C401.171,129.958,401.121,129.884,401.132,129.806z"/>
			</g>
			<g>
				<path class="st23" d="M301.493,86.68c0,0,0.385-0.96,1.059-2.639c0.174-0.418,0.341-0.889,0.571-1.386
					c0.241-0.493,0.502-1.027,0.78-1.597c0.28-0.572,0.577-1.18,0.891-1.822c0.336-0.628,0.72-1.269,1.105-1.95
					c0.397-0.673,0.775-1.398,1.234-2.106c0.466-0.704,0.948-1.432,1.443-2.18c0.252-0.371,0.491-0.761,0.764-1.132
					c0.281-0.365,0.565-0.735,0.853-1.109c0.581-0.743,1.151-1.524,1.776-2.28c1.297-1.471,2.592-3.042,4.083-4.473
					c1.415-1.511,3.028-2.859,4.588-4.272c1.65-1.302,3.265-2.663,4.987-3.825c1.662-1.254,3.441-2.274,5.153-3.275
					c0.878-0.459,1.76-0.878,2.625-1.278c0.433-0.2,0.861-0.399,1.284-0.594c0.427-0.186,0.868-0.328,1.292-0.491
					c0.852-0.314,1.68-0.619,2.481-0.914c0.809-0.272,1.616-0.462,2.374-0.683c0.762-0.212,1.491-0.413,2.193-0.571
					c0.71-0.13,1.378-0.269,2.012-0.371c0.631-0.107,1.221-0.207,1.766-0.299c0.548-0.077,1.061-0.098,1.517-0.143
					c1.833-0.147,2.874-0.175,2.874-0.175c0.083-0.002,0.153,0.064,0.155,0.147c0.002,0.066-0.039,0.123-0.097,0.145l-0.01,0.004
					c0,0-0.986,0.375-2.7,0.931c-0.862,0.256-1.888,0.636-3.053,1.084c-0.582,0.226-1.208,0.436-1.862,0.673
					c-0.642,0.269-1.317,0.551-2.022,0.846c-1.42,0.551-2.91,1.253-4.483,1.99c-0.794,0.352-1.587,0.759-2.392,1.187
					c-0.801,0.435-1.651,0.813-2.481,1.266c-1.643,0.936-3.402,1.801-5.086,2.869c-1.744,0.976-3.358,2.205-5.035,3.354
					c-1.573,1.28-3.209,2.498-4.655,3.885c-1.523,1.308-2.858,2.763-4.201,4.126c-0.647,0.703-1.242,1.432-1.849,2.126
					c-0.608,0.693-1.191,1.382-1.711,2.09c-0.535,0.698-1.056,1.376-1.56,2.033c-0.498,0.662-0.915,1.345-1.352,1.978
					c-0.424,0.641-0.848,1.247-1.22,1.84c-0.35,0.605-0.682,1.18-0.994,1.719c-0.313,0.541-0.606,1.048-0.878,1.516
					c-0.266,0.473-0.473,0.932-0.68,1.334c-0.808,1.619-1.269,2.545-1.269,2.545c-0.037,0.074-0.127,0.104-0.201,0.067
					C301.495,86.835,301.465,86.752,301.493,86.68z"/>
			</g>
			<g>
				<path class="st23" d="M287.638,90.415c0,0,0.447-1.064,1.23-2.927c0.202-0.463,0.398-0.986,0.662-1.537
					c0.275-0.547,0.572-1.139,0.889-1.771c0.319-0.634,0.658-1.308,1.015-2.019c0.38-0.697,0.813-1.41,1.247-2.166
					c0.447-0.748,0.876-1.552,1.389-2.34c0.521-0.784,1.06-1.594,1.613-2.427c0.281-0.414,0.549-0.847,0.853-1.261
					c0.312-0.408,0.628-0.821,0.947-1.239c0.644-0.83,1.279-1.701,1.97-2.548c1.433-1.65,2.866-3.407,4.507-5.021
					c1.56-1.697,3.331-3.227,5.045-4.825c1.811-1.482,3.583-3.026,5.47-4.363c1.822-1.431,3.769-2.618,5.641-3.785
					c0.96-0.541,1.925-1.039,2.872-1.518c0.473-0.24,0.941-0.477,1.404-0.711c0.468-0.224,0.95-0.403,1.414-0.603
					c0.932-0.387,1.839-0.764,2.717-1.129c0.886-0.342,1.772-0.597,2.604-0.881c0.836-0.275,1.636-0.537,2.407-0.753
					c0.781-0.187,1.516-0.38,2.213-0.532c0.694-0.158,1.344-0.305,1.945-0.442c0.604-0.121,1.172-0.181,1.676-0.262
					c2.026-0.291,3.182-0.4,3.182-0.4c0.083-0.008,0.157,0.053,0.165,0.136c0.006,0.067-0.033,0.129-0.092,0.153l-0.009,0.004
					c0,0-1.082,0.453-2.971,1.147c-0.951,0.324-2.081,0.789-3.366,1.336c-0.642,0.275-1.332,0.537-2.054,0.829
					c-0.708,0.325-1.453,0.666-2.23,1.022c-1.567,0.673-3.21,1.511-4.945,2.394c-0.876,0.424-1.75,0.907-2.638,1.412
					c-0.883,0.513-1.821,0.971-2.736,1.506c-1.811,1.102-3.748,2.138-5.6,3.386c-1.918,1.153-3.695,2.568-5.54,3.901
					c-1.733,1.467-3.532,2.872-5.128,4.448c-1.677,1.495-3.153,3.138-4.636,4.683c-0.716,0.795-1.376,1.615-2.047,2.397
					c-0.673,0.782-1.319,1.557-1.897,2.352c-0.595,0.783-1.173,1.546-1.732,2.283c-0.553,0.743-1.021,1.505-1.508,2.214
					c-0.473,0.717-0.945,1.395-1.362,2.058c-0.394,0.676-0.768,1.317-1.119,1.919c-0.352,0.604-0.682,1.169-0.987,1.692
					c-0.299,0.528-0.536,1.037-0.77,1.484c-0.916,1.801-1.439,2.83-1.439,2.83c-0.038,0.074-0.128,0.103-0.202,0.066
					C287.638,90.571,287.608,90.487,287.638,90.415z"/>
			</g>
			<g>
				<path class="st23" d="M273.315,116.007c0,0-0.276-0.415-0.758-1.142c-0.253-0.354-0.519-0.815-0.811-1.362
					c-0.309-0.538-0.637-1.157-0.941-1.851c-0.34-0.683-0.642-1.449-0.95-2.27c-0.333-0.813-0.553-1.711-0.832-2.631
					c-0.213-0.933-0.473-1.898-0.597-2.901c-0.183-0.997-0.243-2.025-0.343-3.053c-0.041-1.03-0.108-2.067-0.078-3.09
					c-0.024-1.027,0.091-2.033,0.218-3.003c0.206-0.955,0.391-1.886,0.728-2.722c0.157-0.419,0.31-0.827,0.457-1.222
					c0.166-0.387,0.364-0.748,0.533-1.099c0.331-0.706,0.718-1.313,1.076-1.837c0.349-0.528,0.673-0.971,0.988-1.309
					c0.599-0.69,0.98-1.043,0.98-1.043c0.064-0.059,0.163-0.055,0.222,0.009c0.033,0.036,0.047,0.084,0.04,0.129l-0.002,0.01
					c0,0-0.077,0.528-0.281,1.379c-0.111,0.422-0.22,0.94-0.341,1.528c-0.056,0.296-0.144,0.596-0.22,0.918
					c-0.067,0.326-0.119,0.673-0.202,1.022c-0.162,0.701-0.294,1.467-0.448,2.267c-0.157,0.799-0.269,1.649-0.453,2.513
					c-0.136,0.873-0.36,1.765-0.495,2.692c-0.189,0.923-0.226,1.875-0.323,2.831c-0.002,0.955-0.048,1.917,0.03,2.86
					c0.028,0.948,0.149,1.872,0.24,2.776c0.15,0.891,0.266,1.767,0.463,2.578c0.178,0.817,0.358,1.59,0.588,2.286
					c0.195,0.711,0.421,1.341,0.639,1.893c0.203,0.558,0.392,1.049,0.58,1.445c0.354,0.797,0.556,1.253,0.556,1.253
					c0.034,0.076-0.001,0.165-0.077,0.199C273.433,116.091,273.354,116.067,273.315,116.007z"/>
			</g>
		</g>
	</g>
</g>
</svg>
