<?xml version="1.0" encoding="utf-8"?>
<!-- Generator: Adobe Illustrator 19.1.0, SVG Export Plug-In . SVG Version: 6.00 Build 0)  -->
<svg version="1.1" id="Layer_1" xmlns="http://www.w3.org/2000/svg" xmlns:xlink="http://www.w3.org/1999/xlink" x="0px" y="0px" width="500px" height="500px" viewBox="0 0 500 500" style="enable-background:new 0 0 500 500;" xml:space="preserve"><clipPath id="SVGID_2_">
			<use xlink:href="#SVGID_1_" style="overflow:visible;"/>
		</clipPath>
<style type="text/css">
	.st0{clip-path:url(#SVGID_2_);fill:#FFD426;stroke:#C6A51E;stroke-width:1.75;stroke-miterlimit:10;}
	.st1{fill:#4F75FC;stroke:#2751C4;stroke-width:1.75;stroke-miterlimit:10;}
	.st2{fill:#F2F9F9;stroke:#B0E0ED;stroke-width:2.4959;stroke-miterlimit:10;}
	.st3{clip-path:url(#SVGID_4_);}
	.st4{fill:#CCEAF2;}
	.st5{fill:#26A9E0;}
	.st6{fill:none;stroke:#231F20;stroke-width:1.0809;stroke-miterlimit:10;}
	.st7{fill:#231F20;}
	.st8{fill:#F6C8AA;}
	.st9{fill:#BC8364;}
	.st10{fill:#F2F9F9;stroke:#B0E0ED;stroke-width:2.2835;stroke-miterlimit:10;}
	.st11{clip-path:url(#SVGID_6_);fill:#BE1E2D;stroke:#E55163;stroke-width:1.6011;stroke-miterlimit:10;}
	.st12{opacity:0.5;clip-path:url(#SVGID_8_);fill:#F2F9F9;stroke:#B0E0ED;stroke-width:2.2835;stroke-miterlimit:10;}
	.st13{fill:#F6C8AA;stroke:#BC8364;stroke-width:1.3724;stroke-miterlimit:10;}
	.st14{fill:#603813;}
	.st15{fill:#3B2314;}
	.st16{fill:#8F64E2;}
	.st17{fill:#583AA3;}
	.st18{fill:#C2EEF2;stroke:#583AA3;stroke-width:1.6011;stroke-miterlimit:10;}
	.st19{clip-path:url(#SVGID_10_);fill:#EF4136;stroke:#9B1B18;stroke-width:1.3724;stroke-miterlimit:10;}
	.st20{clip-path:url(#SVGID_4_);fill:none;}
</style>
<symbol id="New_Symbol_19" viewBox="-89.656 -32.905 179.312 65.934">
	<g>
		<defs>
			<path id="SVGID_1_" d="M17.003-13.874L17.003-13.874c0,0,40.291-15.369,71.095,12.407l0,0c0.648,2.068,0.854,4.176,0.535,6.278
				c-1.843,12.149-20.154,19.447-40.898,16.3C26.991,17.963,11.669,5.563,13.513-6.587C13.92-9.274,15.136-11.722,17.003-13.874z"/>
		</defs>
		<use xlink:href="#SVGID_1_" style="overflow:visible;fill:#1646B0;"/>
		
		<path class="st0" d="M52.106,23.791c9.491,1.825,19.425-8.347,22.189-22.719c1.581-8.222,0.472-16.037-2.542-21.562l-19.05-2.475
			c2.204,5.307,2.877,12.183,1.496,19.369c-2.763,14.372-12.697,24.544-22.189,22.719c-1.186-0.228-2.31-0.633-3.362-1.195
			l8.365,13.936L52.106,23.791z"/>
		<use xlink:href="#SVGID_1_" style="overflow:visible;fill:none;stroke:#0E3477;stroke-width:1.75;stroke-miterlimit:10;"/>
	</g>
	<path class="st1" d="M-86.224-25.855L16.704-7.21c1.511,0.274,2.879-0.94,2.787-2.473v0c-0.065-1.078-0.85-1.976-1.91-2.184
		L-85.071-31.971c-1.922-0.376-3.71,1.095-3.71,3.054v0C-88.781-27.412-87.704-26.123-86.224-25.855z"/>
</symbol>
<symbol id="New_Symbol_22" viewBox="-6.782 -5.48 14.419 10.966">
	<path class="st2" d="M-5.444-2.306c-0.117,0.469-0.125,0.968,0,1.426c0.4,1.463,1.702,2.495,3.033,3.222
		C-0.16,3.57,2.4,4.223,4.964,4.23C3.12,2.021,1.276-0.187-0.568-2.395c-0.741-0.887-1.644-1.853-2.8-1.836
		C-4.409-4.217-5.187-3.332-5.444-2.306z"/>
</symbol>
<g>
	<defs>
		<rect id="SVGID_3_" y="0" width="500" height="500"/>
	</defs>
	<clipPath id="SVGID_4_">
		<use xlink:href="#SVGID_3_" style="overflow:visible;"/>
	</clipPath>
	<g class="st3">
		<rect y="0" class="st4" width="500" height="500"/>
		<g>
			<path class="st5" d="M-27.179,181.751c3.615,0.315,7.243,0.453,10.869,0.523c3.626,0.063,7.253,0.013,10.876-0.107
				c7.245-0.247,14.475-0.898,21.626-2.02c1.784-0.3,3.572-0.582,5.342-0.953c1.777-0.337,3.539-0.743,5.3-1.15
				c1.75-0.449,3.51-0.864,5.236-1.395c1.74-0.485,3.45-1.06,5.162-1.63c1.691-0.624,3.399-1.207,5.049-1.93
				c1.675-0.666,3.296-1.448,4.922-2.216c1.592-0.832,3.211-1.621,4.737-2.568c1.568-0.879,3.035-1.913,4.528-2.904l0.272-0.18
				l0.311,0.062c3.407,0.679,6.885,1.203,10.352,1.653c3.472,0.447,6.956,0.8,10.446,1.054c1.745,0.124,3.491,0.238,5.239,0.307
				c1.747,0.088,3.495,0.124,5.243,0.155c1.748,0.025,3.495,0.02,5.242-0.016c1.745-0.047,3.492-0.088,5.233-0.205
				c1.743-0.088,3.48-0.245,5.216-0.402c1.731-0.199,3.466-0.37,5.183-0.651c1.726-0.232,3.43-0.576,5.139-0.89
				c1.692-0.387,3.394-0.739,5.058-1.223c1.682-0.425,3.318-0.992,4.956-1.541l2.422-0.917c0.8-0.322,1.578-0.693,2.367-1.036
				c0.798-0.329,1.548-0.748,2.312-1.141c0.766-0.39,1.528-0.787,2.248-1.252c0.721-0.461,1.486-0.859,2.172-1.369l2.09-1.484
				l0.416-0.296l0.472,0.071c2.968,0.444,5.99,0.808,8.996,1.142c3.013,0.32,6.029,0.624,9.05,0.865
				c6.041,0.501,12.095,0.853,18.153,1.048c3.029,0.094,6.059,0.171,9.088,0.175c3.03,0.034,6.059-0.013,9.087-0.064l4.541-0.131
				l4.536-0.212c1.513-0.059,3.021-0.18,4.531-0.281c1.51-0.104,3.02-0.2,4.525-0.353l4.517-0.427l4.505-0.528
				c1.503-0.166,2.993-0.419,4.49-0.625l2.243-0.325l2.231-0.39c1.485-0.273,2.98-0.495,4.456-0.809l4.431-0.927
				c2.929-0.711,5.876-1.369,8.756-2.252c2.91-0.787,5.745-1.796,8.591-2.767l4.195-1.645c1.404-0.535,2.74-1.221,4.116-1.816
				c0.679-0.316,1.377-0.598,2.041-0.943l1.989-1.043c1.325-0.697,2.669-1.363,3.923-2.177c1.261-0.8,2.585-1.51,3.796-2.382
				l3.645-2.598l0.682-0.487l0.718,0.338c1.595,0.751,3.289,1.46,4.962,2.135c1.684,0.671,3.382,1.311,5.093,1.917
				c1.71,0.609,3.434,1.176,5.164,1.725c1.734,0.537,3.477,1.043,5.227,1.523c1.754,0.464,3.513,0.911,5.282,1.31
				c1.77,0.393,3.543,0.778,5.328,1.086c1.78,0.341,3.574,0.596,5.366,0.85l2.695,0.327l2.702,0.243
				c0.9,0.094,1.803,0.12,2.706,0.172c0.902,0.05,1.805,0.1,2.707,0.098c0.902,0.005,1.806,0.039,2.707,0.022l2.704-0.077
				c0.901-0.028,1.797-0.122,2.696-0.18c0.9-0.05,1.794-0.152,2.686-0.271c1.793-0.18,3.557-0.523,5.327-0.836
				c1.745-0.414,3.509-0.772,5.212-1.335c1.733-0.47,3.389-1.156,5.068-1.778c1.624-0.75,3.28-1.436,4.823-2.343
				c1.602-0.802,3.056-1.849,4.568-2.801l0.53-0.334l0.543,0.181c1.529,0.509,3.151,0.963,4.749,1.386
				c1.608,0.415,3.225,0.8,4.851,1.147c1.625,0.35,3.26,0.654,4.898,0.94c1.64,0.273,3.286,0.509,4.934,0.724
				c1.65,0.2,3.302,0.379,4.958,0.509c1.656,0.122,3.314,0.233,4.974,0.266c1.659,0.066,3.319,0.042,4.977,0.009l2.485-0.096
				l2.478-0.19c0.828-0.052,1.646-0.182,2.469-0.269c0.824-0.084,1.643-0.205,2.457-0.349c1.64-0.234,3.251-0.605,4.868-0.949
				c1.594-0.431,3.201-0.823,4.756-1.378c1.581-0.48,3.094-1.142,4.619-1.765l2.234-1.058c0.747-0.348,1.444-0.79,2.169-1.18
				l1.078-0.603l1.031-0.679c0.68-0.464,1.394-0.88,2.046-1.381l1.957-1.507c0.659-0.494,1.236-1.087,1.859-1.625
				c1.268-1.057,2.325-2.331,3.482-3.504l0.357-0.362l0.447,0.086c2.638,0.51,5.338,0.919,8.026,1.273
				c2.692,0.352,5.394,0.64,8.1,0.861c2.707,0.217,5.418,0.383,8.131,0.448c1.356,0.028,2.714,0.063,4.07,0.045
				c1.357,0.005,2.712-0.045,4.068-0.078c1.353-0.067,2.709-0.116,4.059-0.234c1.353-0.087,2.697-0.249,4.044-0.394
				c1.34-0.186,2.684-0.361,4.012-0.616c1.336-0.217,2.651-0.533,3.966-0.844l1.958-0.521l1.928-0.616
				c0.649-0.19,1.263-0.469,1.897-0.699c0.636-0.227,1.25-0.503,1.859-0.79c0.613-0.279,1.23-0.55,1.811-0.89
				c0.581-0.337,1.201-0.612,1.751-0.999c0.557-0.374,1.137-0.718,1.676-1.117l1.584-1.241l0.226-0.177l0.238,0.129
				c0.74,0.401,1.529,0.776,2.32,1.117c0.792,0.347,1.598,0.662,2.414,0.951c0.806,0.318,1.647,0.534,2.469,0.807
				c0.831,0.243,1.677,0.434,2.516,0.653c0.846,0.184,1.702,0.325,2.553,0.49c0.854,0.146,1.72,0.21,2.58,0.32
				c0.86,0.133,1.73,0.091,2.596,0.143c0.433,0.01,0.867,0.042,1.3,0.033l1.299-0.07c0.864-0.063,1.738-0.047,2.592-0.214
				l2.577-0.385l2.523-0.653c0.855-0.18,1.658-0.516,2.47-0.829c0.802-0.333,1.648-0.576,2.417-0.984l2.315-1.215
				c0.795-0.368,1.493-0.895,2.215-1.385l2.16-1.482l-2.127,1.53c-0.712,0.507-1.401,1.052-2.189,1.438l-2.297,1.272
				c-0.764,0.428-1.607,0.691-2.408,1.044c-0.811,0.334-1.614,0.69-2.471,0.891l-2.534,0.716l-2.596,0.448
				c-0.862,0.19-1.745,0.186-2.62,0.265l-1.316,0.093c-0.439,0.016-0.878-0.009-1.318-0.011c-0.877-0.038-1.762,0.019-2.635-0.101
				c-0.873-0.096-1.754-0.147-2.623-0.281c-0.866-0.153-1.737-0.282-2.599-0.455c-0.854-0.208-1.717-0.388-2.565-0.621
				c-0.84-0.263-1.698-0.469-2.523-0.779c-0.835-0.28-1.661-0.587-2.475-0.928c-0.818-0.338-1.615-0.698-2.417-1.117l0.464-0.048
				l-1.615,1.31c-0.55,0.42-1.14,0.785-1.709,1.181c-0.562,0.408-1.191,0.702-1.785,1.058c-0.593,0.359-1.221,0.649-1.845,0.945
				c-0.621,0.305-1.246,0.599-1.892,0.842c-0.644,0.246-1.272,0.542-1.93,0.748l-1.96,0.662l-1.988,0.565
				c-1.333,0.339-2.67,0.682-4.023,0.926c-1.348,0.282-2.708,0.482-4.066,0.694c-1.363,0.17-2.726,0.357-4.095,0.468
				c-1.367,0.143-2.738,0.215-4.108,0.306c-5.485,0.264-10.978,0.15-16.445-0.244c-2.734-0.195-5.463-0.458-8.185-0.786
				c-2.726-0.332-5.428-0.711-8.153-1.209l0.804-0.276c-1.185,1.232-2.274,2.563-3.578,3.677c-0.641,0.567-1.237,1.187-1.916,1.709
				l-2.019,1.588c-0.674,0.528-1.41,0.97-2.113,1.459l-1.067,0.716l-1.113,0.639c-0.749,0.413-1.471,0.879-2.243,1.249l-2.308,1.123
				c-1.574,0.664-3.14,1.364-4.77,1.879c-1.606,0.59-3.261,1.014-4.905,1.475c-1.664,0.373-3.325,0.772-5.01,1.03
				c-0.838,0.156-1.68,0.289-2.526,0.385c-0.845,0.098-1.688,0.24-2.536,0.302l-2.544,0.22l-2.548,0.125
				c-1.699,0.051-3.4,0.092-5.098,0.043c-1.7-0.017-3.396-0.113-5.09-0.221c-1.694-0.116-3.383-0.282-5.07-0.469
				c-1.685-0.206-3.364-0.447-5.039-0.718c-1.672-0.286-3.341-0.591-5.001-0.942c-1.66-0.348-3.313-0.735-4.959-1.155
				c-1.651-0.432-3.267-0.876-4.927-1.422l1.073-0.153c-1.581,1.009-3.109,2.108-4.785,2.958c-1.619,0.955-3.348,1.684-5.049,2.472
				c-1.752,0.659-3.486,1.379-5.29,1.877c-1.778,0.592-3.609,0.973-5.425,1.408c-1.836,0.333-3.669,0.693-5.524,0.887
				c-0.924,0.126-1.849,0.235-2.779,0.29c-0.928,0.063-1.856,0.163-2.785,0.195l-2.788,0.089c-0.929,0.021-1.858-0.01-2.787-0.013
				c-0.93,0.005-1.857-0.043-2.783-0.091c-0.927-0.05-1.856-0.074-2.778-0.167l-2.772-0.24l-2.761-0.325
				c-1.835-0.253-3.671-0.509-5.49-0.851c-1.826-0.31-3.636-0.696-5.443-1.091c-1.806-0.401-3.6-0.85-5.389-1.318
				c-1.785-0.483-3.561-0.993-5.329-1.534c-1.764-0.553-3.521-1.125-5.265-1.739c-1.744-0.612-3.477-1.259-5.199-1.938
				c-1.725-0.691-3.416-1.388-5.138-2.192l1.4-0.148l-3.774,2.711c-1.256,0.908-2.617,1.648-3.921,2.479
				c-1.298,0.847-2.678,1.539-4.042,2.261l-2.048,1.081c-0.684,0.358-1.398,0.649-2.095,0.977c-1.41,0.621-2.791,1.316-4.231,1.861
				l-4.304,1.67c-2.912,0.984-5.815,2.005-8.781,2.797c-2.941,0.89-5.937,1.55-8.919,2.262l-4.502,0.926
				c-1.5,0.313-3.015,0.534-4.522,0.805l-2.263,0.387l-2.272,0.322c-1.516,0.203-3.027,0.454-4.547,0.617l-4.558,0.519l-4.566,0.416
				c-1.521,0.149-3.047,0.242-4.571,0.341c-1.525,0.097-3.048,0.214-4.575,0.269l-4.577,0.198l-4.579,0.116
				c-3.053,0.041-6.106,0.079-9.158,0.034c-3.052-0.014-6.103-0.103-9.153-0.207c-6.099-0.217-12.191-0.592-18.27-1.116
				c-3.041-0.253-6.076-0.568-9.11-0.901c-3.037-0.348-6.053-0.721-9.099-1.187l0.888-0.225l-2.216,1.559
				c-0.732,0.53-1.536,0.942-2.301,1.418c-0.764,0.481-1.564,0.889-2.369,1.289c-0.803,0.403-1.594,0.832-2.426,1.167
				c-0.825,0.349-1.64,0.726-2.473,1.052l-2.518,0.925c-1.698,0.551-3.394,1.118-5.126,1.538c-1.718,0.48-3.464,0.824-5.202,1.201
				c-1.751,0.304-3.497,0.637-5.259,0.857c-1.755,0.268-3.522,0.425-5.285,0.609c-1.766,0.142-3.532,0.283-5.301,0.354
				c-1.768,0.101-3.537,0.125-5.305,0.155c-1.769,0.019-3.536,0.006-5.303-0.037c-1.766-0.049-3.533-0.104-5.296-0.211
				c-1.764-0.088-3.525-0.221-5.285-0.364c-3.519-0.293-7.028-0.684-10.524-1.17c-3.499-0.49-6.972-1.049-10.453-1.779l0.582-0.118
				c-1.539,1.001-3.053,2.043-4.662,2.925c-1.569,0.952-3.226,1.74-4.857,2.57c-1.668,0.755-3.329,1.521-5.039,2.17
				c-1.687,0.705-3.427,1.268-5.149,1.871c-1.741,0.548-3.48,1.101-5.245,1.562c-1.752,0.507-3.534,0.897-5.306,1.319
				c-1.782,0.381-3.563,0.761-5.357,1.07c-1.788,0.344-3.591,0.598-5.39,0.87c-7.208,1.009-14.472,1.541-21.737,1.668
				c-3.633,0.067-7.266,0.016-10.895-0.121C-19.945,182.365-23.571,182.146-27.179,181.751z"/>
		</g>
		
			<use xlink:href="#New_Symbol_19" width="179.312" height="65.934" x="-89.656" y="-32.905" transform="matrix(0.896 0.0276 0.0276 -0.896 441.742 140.3762)" style="overflow:visible;"/>
		
			<use xlink:href="#New_Symbol_19" width="179.312" height="65.934" x="-89.656" y="-32.905" transform="matrix(0.896 0.0276 0.0276 -0.896 287.3493 164.1994)" style="overflow:visible;"/>
		
			<use xlink:href="#New_Symbol_19" width="179.312" height="65.934" x="-89.656" y="-32.905" transform="matrix(0.896 0.0276 0.0276 -0.896 131.7216 187.9845)" style="overflow:visible;"/>
		
			<use xlink:href="#New_Symbol_19" width="179.312" height="65.934" x="-89.656" y="-32.905" transform="matrix(0.896 0.0276 0.0276 -0.896 -23.8657 211.7708)" style="overflow:visible;"/>
		<path class="st4" d="M-42.36,235.187c1.594-0.616,34.887-5.964,51.605-18.65c0,0,34.946,18.38,68.559-3.214
			c0,0,39.062,13.859,63.473-7.845c0,0,58.557,6.327,75.307-20.843c0,0,59.112,14.542,79.027-10.738c0,0,20.758,15.799,37.611-5.55
			c0,0,59.989,14.819,89.107-14.998c0,0,55.567,11.913,68.593-14.036c0,0,22.336,3.281,31.311-1.468l39.949,94.089l-295.272,54.043
			L-44,294.944L-42.36,235.187z"/>
		<path class="st6" d="M154.148,180.583c1.534-1.288,3.068-2.575,4.601-3.863c-3.467,10.332-6.934,20.665-10.401,30.997
			c-1.728,1.059-3.807,1.628-5.788,1.224c-2.142-0.437-4.072-2.181-4.328-4.352c-0.359-3.037,2.331-5.474,4.742-7.356
			c1.187-0.927,2.432-2.008,3.332-3.228c-1.296-0.122-2.519-1.682-2.342-3.127c0.226-1.84,1.747-3.211,3.167-4.403
			C149.469,184.511,151.809,182.547,154.148,180.583z"/>
		
			<use xlink:href="#New_Symbol_19" width="179.312" height="65.934" id="XMLID_30_" x="-89.656" y="-32.905" transform="matrix(1.0809 0 0 -1.0809 433.0617 246.0928)" style="overflow:visible;"/>
		
			<use xlink:href="#New_Symbol_19" width="179.312" height="65.934" x="-89.656" y="-32.905" transform="matrix(1.0809 0 0 -1.0809 246.3845 280.5343)" style="overflow:visible;"/>
		
			<use xlink:href="#New_Symbol_19" width="179.312" height="65.934" id="XMLID_29_" x="-89.656" y="-32.905" transform="matrix(1.0809 0 0 -1.0809 59.756 314.9758)" style="overflow:visible;"/>
		
			<use xlink:href="#New_Symbol_19" width="179.312" height="65.934" id="XMLID_33_" x="-89.656" y="-32.905" transform="matrix(1.0809 0 0 -1.0809 412.7179 396.4425)" style="overflow:visible;"/>
		
			<use xlink:href="#New_Symbol_19" width="179.312" height="65.934" x="-89.656" y="-32.905" transform="matrix(1.0809 0 0 -1.0809 226.0407 430.884)" style="overflow:visible;"/>
		
			<use xlink:href="#New_Symbol_19" width="179.312" height="65.934" id="XMLID_32_" x="-89.656" y="-32.905" transform="matrix(1.0809 0 0 -1.0809 39.4122 465.3255)" style="overflow:visible;"/>
		
			<use xlink:href="#New_Symbol_19" width="179.312" height="65.934" x="-89.656" y="-32.905" transform="matrix(0.9376 0.0498 0.0498 -0.9376 437.7747 39.7619)" style="overflow:visible;"/>
		
			<use xlink:href="#New_Symbol_19" width="179.312" height="65.934" id="XMLID_36_" x="-89.656" y="-32.905" transform="matrix(0.9376 0.0498 0.0498 -0.9376 275.5537 61.113)" style="overflow:visible;"/>
		
			<use xlink:href="#New_Symbol_19" width="179.312" height="65.934" x="-89.656" y="-32.905" transform="matrix(0.9376 0.0498 0.0498 -0.9376 112.0405 82.3955)" style="overflow:visible;"/>
		
			<use xlink:href="#New_Symbol_19" width="179.312" height="65.934" id="XMLID_35_" x="-89.656" y="-32.905" transform="matrix(0.9376 0.0498 0.0498 -0.9376 -51.4306 103.6803)" style="overflow:visible;"/>
		<g>
			<path class="st5" d="M226.676,354.853c2.291-0.846,4.539-1.832,6.742-2.892c1.099-0.537,2.191-1.085,3.266-1.666
				c1.077-0.575,2.145-1.167,3.192-1.79c1.053-0.614,2.084-1.263,3.1-1.931c0.517-0.321,1.006-0.682,1.506-1.027
				c0.494-0.352,1.004-0.683,1.479-1.061c0.97-0.728,1.929-1.467,2.839-2.261c0.946-0.754,1.785-1.621,2.674-2.43l0.454-0.413
				l0.602,0.208c1.258,0.435,2.628,0.81,3.968,1.136c1.35,0.327,2.713,0.611,4.084,0.843c1.369,0.245,2.748,0.426,4.128,0.584
				c1.381,0.154,2.766,0.249,4.149,0.33c1.385,0.065,2.77,0.095,4.154,0.079c1.383-0.027,2.765-0.077,4.141-0.196
				c0.689-0.04,1.375-0.12,2.059-0.202c0.685-0.076,1.37-0.152,2.049-0.271c1.365-0.19,2.711-0.475,4.056-0.751
				c1.332-0.336,2.669-0.646,3.973-1.073c1.32-0.371,2.595-0.878,3.88-1.343c1.259-0.535,2.53-1.037,3.745-1.664
				c1.243-0.566,2.417-1.267,3.612-1.923c0.589-0.342,1.156-0.725,1.734-1.084c0.578-0.361,1.155-0.723,1.7-1.134l1.661-1.191
				c0.546-0.407,1.064-0.852,1.598-1.276c1.083-0.827,2.065-1.779,3.074-2.693c1.002-0.923,1.918-1.941,2.881-2.903l0.918-0.917
				l1.295,0.265c1.636,0.335,3.385,0.632,5.093,0.902c1.719,0.272,3.449,0.494,5.178,0.71c3.462,0.412,6.934,0.737,10.406,0.994
				c1.736,0.137,3.472,0.252,5.209,0.346c1.737,0.1,3.473,0.193,5.21,0.252c1.737,0.045,3.474,0.138,5.21,0.145
				c1.737,0.032,3.473,0.027,5.21,0.035c1.735-0.028,3.473-0.049,5.205-0.138c1.736-0.063,3.465-0.182,5.199-0.284
				c1.729-0.14,3.461-0.277,5.183-0.493c1.731-0.165,3.445-0.424,5.169-0.661c1.711-0.292,3.431-0.564,5.135-0.917
				c1.72-0.299,3.395-0.764,5.105-1.141c1.683-0.456,3.38-0.899,5.047-1.441c1.69-0.491,3.328-1.122,5.009-1.694l0.246,0.491
				c-1.53,0.905-3.051,1.868-4.665,2.642c-1.579,0.861-3.24,1.53-4.883,2.269c-1.669,0.655-3.348,1.319-5.062,1.862
				c-1.701,0.603-3.438,1.068-5.176,1.548c-1.747,0.423-3.494,0.896-5.263,1.225c-1.766,0.366-3.543,0.651-5.323,0.938
				c-1.782,0.249-3.567,0.527-5.36,0.672c-1.791,0.19-3.586,0.311-5.382,0.437c-1.796,0.094-3.594,0.201-5.391,0.205
				c-1.798,0.035-3.595,0.031-5.391-0.012c-1.796-0.056-3.59-0.124-5.382-0.241c-1.79-0.132-3.579-0.271-5.363-0.46
				c-3.568-0.378-7.119-0.885-10.651-1.497c-1.766-0.31-3.528-0.635-5.288-0.994c-1.77-0.358-3.494-0.722-5.304-1.172l2.213-0.652
				c-1.079,0.997-2.108,2.043-3.228,2.993c-1.13,0.94-2.225,1.916-3.422,2.771c-0.591,0.436-1.166,0.892-1.77,1.31l-1.835,1.219
				c-0.603,0.419-1.238,0.788-1.874,1.155c-0.637,0.365-1.261,0.752-1.908,1.097c-1.311,0.662-2.599,1.364-3.955,1.927
				c-1.328,0.623-2.709,1.116-4.077,1.637c-1.392,0.45-2.773,0.938-4.193,1.285c-1.405,0.402-2.838,0.684-4.264,0.986
				c-1.437,0.243-2.872,0.491-4.319,0.64c-0.721,0.099-1.445,0.154-2.169,0.208c-0.724,0.06-1.447,0.117-2.173,0.134
				c-1.449,0.073-2.899,0.073-4.346,0.048c-1.447-0.035-2.891-0.119-4.331-0.239c-2.879-0.258-5.733-0.717-8.547-1.336
				c-1.408-0.306-2.804-0.665-4.188-1.069c-1.392-0.41-2.739-0.841-4.134-1.397l1.055-0.205c-0.965,0.803-1.884,1.664-2.896,2.399
				c-0.981,0.778-2.003,1.493-3.034,2.195c-0.506,0.365-1.043,0.68-1.566,1.017c-0.528,0.329-1.045,0.675-1.587,0.978
				c-1.069,0.634-2.148,1.246-3.247,1.82c-1.094,0.582-2.202,1.138-3.323,1.661c-1.119,0.529-2.253,1.023-3.391,1.505
				c-2.283,0.95-4.593,1.819-6.959,2.55L226.676,354.853z"/>
		</g>
		<g>
			<path class="st5" d="M54.405,369.434c2.163,0.189,4.347,0.25,6.519,0.274c2.174,0.025,4.346-0.018,6.511-0.129
				c4.331-0.209,8.63-0.745,12.846-1.539c2.105-0.413,4.187-0.909,6.234-1.492c1.015-0.318,2.035-0.616,3.03-0.977
				c1.008-0.325,1.983-0.729,2.967-1.105c0.961-0.425,1.935-0.822,2.863-1.302c0.95-0.44,1.845-0.972,2.756-1.469
				c0.876-0.552,1.77-1.077,2.587-1.702c0.853-0.578,1.623-1.254,2.419-1.889l0.944-0.753l1.352,0.375
				c0.69,0.191,1.551,0.405,2.361,0.552c0.82,0.168,1.656,0.291,2.489,0.416c0.835,0.118,1.678,0.193,2.512,0.304l2.52,0.212
				c0.842,0.044,1.683,0.078,2.522,0.146c0.841,0.022,1.682,0.023,2.523,0.065c0.841,0.024,1.681-0.013,2.523-0.014
				c0.845,0.027,1.682-0.045,2.526-0.084c0.843-0.041,1.69-0.072,2.524-0.2l2.531-0.262l2.512-0.435
				c0.856-0.097,1.678-0.316,2.514-0.511c0.826-0.218,1.691-0.351,2.519-0.593c0.827-0.246,1.651-0.513,2.5-0.741
				c0.863-0.203,1.664-0.544,2.5-0.834c0.829-0.304,1.681-0.584,2.544-0.867l0.29,0.466c-0.687,0.585-1.384,1.173-2.105,1.736
				c-0.711,0.581-1.443,1.141-2.231,1.604c-0.772,0.497-1.57,0.954-2.364,1.432c-0.796,0.474-1.648,0.826-2.487,1.22
				c-0.843,0.385-1.684,0.794-2.566,1.083l-2.647,0.897c-0.897,0.244-1.801,0.475-2.71,0.693c-0.908,0.235-1.83,0.369-2.753,0.513
				c-0.924,0.137-1.847,0.322-2.78,0.375c-0.932,0.059-1.865,0.15-2.8,0.179c-0.934,0.014-1.869-0.012-2.804-0.018
				c-0.933-0.043-1.863-0.14-2.794-0.216c-0.928-0.098-1.85-0.257-2.772-0.394c-0.918-0.176-1.833-0.356-2.742-0.576
				c-0.908-0.227-1.813-0.453-2.713-0.729c-0.915-0.271-1.763-0.548-2.759-0.916l2.296-0.378c-0.964,0.657-1.904,1.348-2.911,1.921
				c-0.981,0.62-2.012,1.136-3.02,1.689c-1.038,0.489-2.062,1.007-3.124,1.424c-1.046,0.459-2.123,0.824-3.188,1.215
				c-1.081,0.34-2.153,0.704-3.245,0.984c-1.084,0.313-2.187,0.54-3.28,0.793c-2.199,0.449-4.408,0.8-6.621,1.06
				c-1.108,0.115-2.213,0.238-3.322,0.303c-1.108,0.081-2.216,0.128-3.323,0.164c-2.214,0.072-4.426,0.059-6.631-0.025
				c-4.41-0.166-8.795-0.582-13.123-1.402L54.405,369.434z"/>
		</g>
		<g>
			<path class="st5" d="M429.448,332.142c0,0,2.054-0.129,5.078-0.517c1.512-0.185,3.264-0.459,5.112-0.797
				c1.845-0.366,3.795-0.748,5.679-1.288c0.941-0.27,1.865-0.595,2.737-0.976c0.878-0.368,1.71-0.756,2.531-1.05
				c0.821-0.294,1.614-0.537,2.388-0.738c0.77-0.219,1.498-0.426,2.17-0.617c0.692-0.204,1.326-0.391,1.889-0.557
				c0.593-0.157,1.081-0.351,1.539-0.475c0.865-0.296,1.452-0.46,1.452-0.46l0.41,0.365c0,0-0.038,0.143-0.109,0.41
				c-0.077,0.265-0.194,0.665-0.413,1.127c-0.223,0.455-0.511,1.024-0.936,1.588c-0.404,0.596-0.939,1.186-1.571,1.786
				c-0.318,0.291-0.666,0.58-1.03,0.872c-0.377,0.26-0.762,0.554-1.181,0.807c-0.829,0.516-1.751,0.972-2.743,1.299
				c-0.993,0.321-2.055,0.514-3.129,0.627c-1.073,0.131-2.154,0.211-3.221,0.313c-2.135,0.198-4.252,0.27-6.227,0.184
				c-1.973-0.059-3.797-0.238-5.35-0.433c-3.106-0.398-5.126-0.923-5.126-0.923L429.448,332.142z"/>
		</g>
		<g>
			<path class="st5" d="M453.702,272.672c1.482-0.351,2.944-0.812,4.381-1.299c1.437-0.491,2.852-1.034,4.213-1.665
				c0.343-0.152,0.673-0.328,1.009-0.49c0.338-0.16,0.666-0.334,0.988-0.519c0.658-0.346,1.276-0.743,1.892-1.135
				c0.306-0.198,0.588-0.424,0.882-0.632c0.299-0.204,0.571-0.433,0.838-0.665c0.261-0.235,0.56-0.438,0.786-0.697l0.721-0.735
				l0.633-0.646l1.004,0.301c0.778,0.233,1.678,0.453,2.533,0.639c0.867,0.191,1.744,0.339,2.617,0.489
				c1.75,0.29,3.512,0.478,5.267,0.562c0.878,0.043,1.754,0.054,2.626,0.037l1.305-0.052l1.295-0.121
				c0.857-0.106,1.71-0.225,2.546-0.397c0.421-0.071,0.835-0.169,1.246-0.271c0.413-0.09,0.828-0.172,1.23-0.293
				c0.402-0.122,0.816-0.193,1.215-0.315c0.398-0.121,0.795-0.245,1.2-0.343c0.785-0.26,1.584-0.485,2.358-0.77
				c0.786-0.262,1.545-0.583,2.317-0.896c0.755-0.341,1.521-0.68,2.257-1.085c0.765-0.364,1.462-0.839,2.217-1.259
				c0.701-0.488,1.457-0.934,2.156-1.471c0.73-0.505,1.414-1.076,2.131-1.645c0.726-0.563,1.382-1.204,2.151-1.795l0.464,0.293
				c-0.298,0.909-0.589,1.857-1.029,2.72l-0.663,1.312c-0.238,0.429-0.521,0.828-0.784,1.248c-0.509,0.858-1.171,1.597-1.806,2.375
				c-0.335,0.371-0.693,0.721-1.049,1.078c-0.348,0.368-0.726,0.7-1.12,1.016c-0.758,0.676-1.599,1.241-2.442,1.815
				c-0.874,0.51-1.745,1.057-2.683,1.447c-0.914,0.455-1.878,0.775-2.842,1.088c-0.972,0.28-1.957,0.509-2.949,0.659
				c-0.991,0.156-1.988,0.257-2.98,0.289c-0.992,0.055-1.98,0.041-2.961,0.026c-1.963-0.063-3.9-0.219-5.811-0.493
				c-1.911-0.274-3.793-0.659-5.643-1.15c-0.924-0.25-1.838-0.532-2.745-0.84c-0.917-0.316-1.781-0.631-2.729-1.041l1.637-0.345
				l-0.992,0.804c-0.322,0.281-0.687,0.479-1.028,0.718c-0.343,0.236-0.694,0.454-1.058,0.639c-0.361,0.191-0.715,0.398-1.08,0.571
				c-0.734,0.341-1.463,0.678-2.212,0.952c-0.37,0.15-0.742,0.287-1.12,0.408c-0.376,0.123-0.748,0.26-1.126,0.37
				c-1.507,0.466-3.031,0.825-4.559,1.127c-1.532,0.29-3.07,0.502-4.621,0.626L453.702,272.672z"/>
		</g>
		<g>
			<path class="st5" d="M-43.429,331.602c0,0,1.238,0.04,3.41-0.018c1.085-0.042,2.402-0.076,3.91-0.161
				c1.508-0.084,3.207-0.192,5.056-0.376c1.85-0.138,3.845-0.423,5.952-0.665c2.1-0.324,4.32-0.591,6.595-1.008
				c2.275-0.417,4.624-0.826,6.987-1.364c1.183-0.26,2.379-0.497,3.57-0.778c1.185-0.306,2.374-0.613,3.564-0.92
				c2.388-0.566,4.708-1.39,7-2.134c0.572-0.188,1.142-0.376,1.709-0.562c0.56-0.208,1.117-0.414,1.67-0.62
				c1.105-0.415,2.21-0.776,3.293-1.144c2.2-0.636,4.251-1.461,6.275-2.043c0.997-0.33,2-0.573,2.931-0.907
				c0.94-0.316,1.849-0.621,2.721-0.914c1.747-0.586,3.408-1.015,4.833-1.51c1.427-0.49,2.686-0.901,3.741-1.214
				c2.106-0.634,3.368-0.922,3.368-0.922l0.264,0.481c0,0-0.955,0.844-2.729,2.19c-0.885,0.677-1.981,1.469-3.257,2.358
				c-0.622,0.478-1.353,0.844-2.094,1.296c-0.747,0.44-1.534,0.904-2.369,1.363c-0.83,0.471-1.708,0.934-2.613,1.425
				c-0.913,0.472-1.888,0.887-2.886,1.329c-0.996,0.446-2.031,0.878-3.092,1.312c-1.048,0.473-2.165,0.824-3.298,1.185
				c-1.142,0.337-2.298,0.694-3.482,1.004c-0.591,0.16-1.183,0.326-1.785,0.472c-0.607,0.125-1.216,0.25-1.829,0.376
				c-2.452,0.485-4.913,1.065-7.412,1.463c-1.243,0.224-2.485,0.447-3.723,0.67c-1.242,0.197-2.486,0.35-3.714,0.525
				c-2.452,0.386-4.892,0.567-7.241,0.782c-1.173,0.124-2.335,0.166-3.467,0.233c-1.134,0.058-2.24,0.135-3.321,0.159
				c-2.163,0.02-4.2,0.093-6.084,0.035c-1.882-0.012-3.606-0.085-5.131-0.161c-1.526-0.07-2.854-0.184-3.945-0.285
				c-2.182-0.211-3.424-0.406-3.424-0.406L-43.429,331.602z"/>
		</g>
		<g>
			<path class="st7" d="M137.697,152.137c0,0,0.393-0.805,1.15-2.159c0.195-0.335,0.389-0.717,0.641-1.114
				c0.255-0.397,0.557-0.809,0.87-1.261c0.318-0.452,0.657-0.934,1.014-1.441c0.373-0.493,0.809-0.964,1.243-1.484
				c0.445-0.507,0.885-1.065,1.39-1.592c0.52-0.514,1.057-1.045,1.61-1.591c0.543-0.563,1.157-1.073,1.788-1.592
				c0.628-0.523,1.272-1.061,1.949-1.575c1.391-0.976,2.816-2.023,4.39-2.878c1.522-0.951,3.195-1.678,4.832-2.474
				c1.701-0.648,3.375-1.372,5.11-1.83c1.7-0.566,3.441-0.882,5.103-1.231c0.839-0.14,1.671-0.244,2.483-0.342
				c0.811-0.104,1.603-0.2,2.385-0.212c0.776-0.029,1.531-0.057,2.262-0.084c0.73-0.007,1.438,0.056,2.113,0.079
				c0.675,0.04,1.319,0.046,1.931,0.111c0.609,0.088,1.188,0.171,1.731,0.249c0.541,0.082,1.046,0.143,1.509,0.23
				c0.464,0.089,0.885,0.21,1.266,0.298c1.521,0.379,2.366,0.644,2.366,0.644s-0.9,0.109-2.432,0.214
				c-0.764,0.026-1.691,0.151-2.744,0.269c-0.524,0.058-1.081,0.12-1.669,0.185c-0.583,0.089-1.195,0.183-1.835,0.28
				c-1.276,0.164-2.639,0.461-4.072,0.753c-0.719,0.127-1.449,0.299-2.19,0.501c-0.74,0.202-1.504,0.352-2.267,0.568
				c-1.516,0.475-3.094,0.893-4.649,1.479c-1.579,0.509-3.121,1.191-4.687,1.806c-1.521,0.719-3.075,1.373-4.528,2.175
				c-1.494,0.728-2.877,1.596-4.263,2.373c-0.679,0.409-1.314,0.861-1.967,1.262c-0.654,0.401-1.279,0.817-1.865,1.253
				c-0.6,0.423-1.183,0.834-1.747,1.232c-0.57,0.395-1.076,0.83-1.589,1.22c-0.509,0.399-0.996,0.781-1.46,1.144
				c-0.446,0.38-0.87,0.741-1.268,1.08c-0.799,0.679-1.531,1.273-2.08,1.824C138.385,151.563,137.697,152.137,137.697,152.137z"/>
		</g>
		<g>
			<path class="st7" d="M150.112,119.213c0,0,0.461-0.34,1.293-0.853c0.41-0.263,0.928-0.556,1.558-0.848
				c0.624-0.311,1.346-0.627,2.142-0.903c0.795-0.307,1.677-0.561,2.624-0.796c0.944-0.253,1.962-0.401,3.017-0.562
				c1.058-0.106,2.16-0.227,3.281-0.209c1.123-0.044,2.259,0.072,3.396,0.146c1.128,0.168,2.262,0.292,3.351,0.572
				c1.101,0.215,2.151,0.571,3.164,0.895c0.998,0.381,1.961,0.74,2.831,1.187c0.876,0.431,1.685,0.865,2.397,1.334
				c0.724,0.441,1.353,0.898,1.891,1.331c0.547,0.416,0.996,0.814,1.35,1.164c0.716,0.684,1.086,1.111,1.086,1.111
				s-0.571-0.107-1.503-0.359c-0.459-0.139-1.035-0.261-1.676-0.419c-0.637-0.169-1.349-0.354-2.132-0.523
				c-0.768-0.203-1.61-0.375-2.489-0.566c-0.87-0.214-1.81-0.35-2.754-0.557c-0.961-0.15-1.937-0.344-2.941-0.476
				c-0.998-0.165-2.019-0.264-3.036-0.397c-1.021-0.086-2.041-0.207-3.051-0.257c-1.01-0.088-2.005-0.098-2.975-0.159
				c-0.966,0.003-1.914-0.063-2.81-0.038c-0.899,0.001-1.758-0.008-2.552,0.028c-0.805,0.001-1.531,0.03-2.182,0.059
				c-0.652,0.018-1.247,0.016-1.734,0.059C150.685,119.23,150.112,119.213,150.112,119.213z"/>
		</g>
		<g>
			<path class="st8" d="M482.926,190.715c0.644,0.79,1.249,1.613,1.811,2.471c-4.504,1.993-9.302,3.32-14.184,3.927
				c-3.782-2.475-8.401-3.626-12.905-3.292c-3.137,2.921-7.422,4.439-11.669,5.23c-4.663,0.869-9.443,0.987-14.101,1.884
				c-7.879,1.517-15.079,5.181-21.975,9.387c-14.589,3.593-29.18,7.182-43.771,10.772c-6.287,1.547-13.189,3.021-19.189,1.113
				c17.175-6.507,33.868-14.285,49.896-23.253c9.524-5.329,18.848-11.094,28.899-15.346c10.051-4.252,21.012-6.962,31.864-5.81
				C467.269,178.825,476.833,183.243,482.926,190.715z"/>
			<g>
				<path class="st9" d="M482.441,191.201c0.606,0.762,1.161,1.527,1.704,2.332c0.082-0.313,0.164-0.626,0.246-0.939
					c-2.352,1.015-4.757,1.872-7.233,2.533c-2.496,0.667-5.275,1.553-7.714,0.528c-3.431-1.441-7.51-3.266-11.373-2.543
					c-1.546,0.289-2.618,1.676-4.01,2.464c-1.957,1.107-4.098,1.85-6.275,2.384c-4.661,1.143-9.491,1.262-14.22,1.992
					c-4.201,0.648-8.261,1.885-12.169,3.544c-1.911,0.811-3.782,1.712-5.619,2.679c-2.297,1.209-4.531,2.926-7.007,3.719
					c-4.781,1.532-9.872,2.431-14.748,3.631c-4.758,1.171-9.516,2.342-14.273,3.512c-5.319,1.309-10.627,2.678-15.964,3.914
					c-5.476,1.268-11.153,2.195-16.658,0.594c0,0.441,0,0.882,0,1.323c18.255-6.943,35.932-15.282,52.912-24.932
					c17.072-9.702,35.297-20.988,55.756-19.609C465.942,179.013,475.848,183.325,482.441,191.201c0.568,0.678,1.534-0.297,0.97-0.97
					c-12.1-14.455-32.379-15.599-49.289-10.419c-9.541,2.922-18.401,7.636-27.051,12.533c-8.954,5.07-17.873,10.157-27.099,14.725
					c-10.829,5.362-21.916,10.182-33.21,14.477c-0.61,0.232-0.691,1.122,0,1.323c8.92,2.594,18.502-0.854,27.166-2.986
					c9.991-2.458,19.983-4.917,29.974-7.376c2.042-0.503,4.406-0.783,6.349-1.592c2.272-0.946,4.418-2.618,6.615-3.76
					c4.275-2.222,8.755-4.084,13.456-5.186c9.083-2.13,18.358-1.183,26.446-6.524c2.25-1.486,4.857-1.015,7.423-0.369
					c1.308,0.329,2.595,0.789,3.809,1.379c0.775,0.377,1.709,1.224,2.556,1.345c2.063,0.295,4.999-0.823,6.97-1.349
					c2.592-0.692,5.099-1.61,7.56-2.672c0.326-0.141,0.435-0.66,0.246-0.939c-0.606-0.898-1.245-1.762-1.919-2.61
					C482.862,189.539,481.897,190.516,482.441,191.201z"/>
			</g>
		</g>
		<g>
			<path class="st8" d="M434.475,199.566c7.724-0.037,14.418-5.999,22.135-6.323c1.7-0.071,3.456,0.13,5.064-0.427
				c1.608-0.556,3.021-2.233,2.53-3.862c-0.362-1.2-1.578-1.908-2.726-2.41c-5.884-2.574-12.751-2.817-18.802-0.665"/>
			<path class="st9" d="M434.472,199.498c0,0,0.22-0.016,0.631-0.045c0.206-0.015,0.46-0.033,0.758-0.054
				c0.293-0.045,0.63-0.097,1.008-0.156c0.751-0.124,1.662-0.333,2.678-0.655c1.021-0.305,2.146-0.741,3.362-1.242
				c2.43-1.007,5.177-2.424,8.354-3.485c1.585-0.527,3.289-0.954,5.074-1.068c1.777-0.143,3.551,0.065,5.074-0.469
				c1.431-0.465,2.647-2.055,2.153-3.242c-0.218-0.612-0.788-1.081-1.458-1.458c-0.331-0.186-0.703-0.358-1.06-0.498
				c-0.387-0.149-0.782-0.321-1.155-0.447c-1.472-0.567-3.003-0.945-4.441-1.24c-1.447-0.29-2.844-0.43-4.137-0.466
				c-1.291-0.026-2.486-0.035-3.538,0.08c-1.054,0.091-1.967,0.243-2.723,0.362c-0.749,0.148-1.339,0.277-1.737,0.381
				c-0.402,0.096-0.616,0.148-0.616,0.148l-0.046-0.129c0,0,0.204-0.086,0.587-0.247c0.38-0.174,0.957-0.367,1.695-0.621
				c0.744-0.232,1.66-0.487,2.734-0.672c1.071-0.204,2.3-0.356,3.648-0.391c1.348-0.035,2.816,0.033,4.352,0.256
				c1.545,0.212,3.119,0.63,4.744,1.209c0.407,0.146,0.771,0.318,1.163,0.477c0.419,0.177,0.811,0.368,1.217,0.606
				c0.783,0.456,1.64,1.159,1.988,2.218c0.373,1.084,0.012,2.254-0.609,3.035c-0.612,0.8-1.48,1.391-2.421,1.681
				c-1.87,0.572-3.699,0.267-5.362,0.369c-1.684,0.057-3.331,0.417-4.889,0.885c-3.119,0.952-5.929,2.253-8.415,3.172
				c-1.245,0.458-2.398,0.853-3.445,1.122c-1.042,0.285-1.969,0.46-2.74,0.557c-0.386,0.044-0.73,0.083-1.03,0.118
				c-0.299,0.009-0.554,0.018-0.76,0.024c-0.413,0.013-0.633,0.02-0.633,0.02L434.472,199.498z"/>
		</g>
		
			<use xlink:href="#New_Symbol_22" width="14.419" height="10.966" x="-6.782" y="-5.48" transform="matrix(0.7701 0.1243 0.1243 -0.7701 382.2605 202.9952)" style="overflow:visible;"/>
		
			<use xlink:href="#New_Symbol_22" width="14.419" height="10.966" x="-6.782" y="-5.48" transform="matrix(0.6101 0.5917 0.5917 -0.6101 390.0006 187.7904)" style="overflow:visible;"/>
		
			<use xlink:href="#New_Symbol_22" width="14.419" height="10.966" x="-6.782" y="-5.48" transform="matrix(0.5634 0.9224 0.9224 -0.5634 399.849 182.0726)" style="overflow:visible;"/>
		<path class="st4" d="M346.944,231.896l-11.281-6.543l5.669-3.905c0,0,48.77,0.614,73.942-11.169c0,0,26.862,0.007,44.052-12.749
			c0,0,17.115,1.185,23.6-6.814l-2.091-2.299c0,0,15.331-0.762,15.061,5.686l-29.12,22.735l-67.617,17.399L346.944,231.896z"/>
		<g>
			<path class="st5" d="M333.07,226.806l7.954-5.806l0.13-0.095l0.198-0.001c3.106-0.011,6.235-0.112,9.349-0.277l4.672-0.291
				l4.664-0.385l4.654-0.47l4.642-0.564c1.547-0.182,3.086-0.436,4.628-0.651c1.543-0.212,3.079-0.463,4.614-0.723
				c1.533-0.268,3.075-0.478,4.599-0.793l4.579-0.888c1.524-0.304,3.034-0.674,4.551-1.007c1.517-0.333,3.03-0.681,4.526-1.093
				l4.502-1.176l4.45-1.34l2.223-0.671l2.191-0.762l4.379-1.521l0.272-0.094l0.353-0.024c0.885-0.059,1.847-0.145,2.777-0.244
				c0.938-0.098,1.877-0.209,2.815-0.34c1.876-0.252,3.745-0.562,5.606-0.903c0.932-0.166,1.855-0.373,2.783-0.556
				c0.929-0.177,1.844-0.416,2.764-0.627c0.922-0.209,1.833-0.45,2.741-0.705c0.907-0.256,1.825-0.476,2.718-0.771l2.692-0.838
				l2.653-0.93c0.892-0.291,1.754-0.648,2.62-0.995c0.858-0.363,1.753-0.646,2.59-1.047l2.542-1.138
				c0.85-0.372,1.656-0.82,2.486-1.226c0.829-0.409,1.655-0.823,2.432-1.31l2.393-1.368l0.726-0.415l0.68-0.028l1.496-0.061
				l1.528-0.092c1.02-0.067,2.041-0.133,3.059-0.226c2.035-0.18,4.059-0.427,6.044-0.769c1.979-0.351,3.941-0.746,5.748-1.355
				c0.443-0.158,0.887-0.316,1.301-0.5c0.415-0.18,0.822-0.371,1.176-0.585c0.192-0.101,0.357-0.212,0.514-0.324
				c0.176-0.106,0.312-0.22,0.449-0.333c0.289-0.224,0.465-0.455,0.634-0.667l0.299,2.224l-1.97-2.409l-2.415-2.954l3.615-0.07
				c0.928-0.018,1.769,0,2.646,0.041c0.868,0.045,1.732,0.108,2.595,0.196c0.862,0.079,1.723,0.193,2.581,0.313
				c0.858,0.125,1.712,0.279,2.561,0.469c0.848,0.184,1.693,0.395,2.527,0.642l1.246,0.387l1.221,0.473
				c0.409,0.143,0.799,0.356,1.194,0.536c0.395,0.181,0.788,0.368,1.157,0.61c0.369,0.237,0.757,0.427,1.102,0.701l1.033,0.791
				l-0.317,0.448l-1.115-0.537c-0.363-0.185-0.772-0.289-1.151-0.436c-0.38-0.146-0.773-0.262-1.171-0.363
				c-0.398-0.1-0.78-0.232-1.188-0.297l-1.203-0.235l-1.216-0.176c-0.81-0.11-1.628-0.184-2.446-0.234
				c-1.635-0.101-3.28-0.125-4.92-0.072c-0.819,0.022-1.64,0.07-2.455,0.133c-0.806,0.057-1.65,0.123-2.402,0.22l1.199-3.023
				l2.212,2.189l0.948,0.938l-0.649,1.286c-0.353,0.7-0.794,1.332-1.28,1.822c-0.48,0.513-0.995,0.93-1.515,1.283
				c-0.52,0.371-1.046,0.673-1.573,0.955c-0.528,0.286-1.057,0.526-1.588,0.764c-2.123,0.895-4.25,1.545-6.39,2.038
				c-2.138,0.492-4.276,0.872-6.418,1.182c-1.071,0.153-2.142,0.297-3.218,0.407l-1.617,0.147l-1.653,0.118l1.406-0.443
				l-2.586,1.587c-0.859,0.541-1.755,0.999-2.654,1.451c-0.901,0.446-1.782,0.944-2.7,1.344l-2.764,1.179
				c-0.916,0.409-1.865,0.714-2.801,1.061c-0.939,0.336-1.875,0.681-2.83,0.955l-2.853,0.861l-2.879,0.738
				c-0.956,0.261-1.927,0.444-2.891,0.663c-0.964,0.218-1.93,0.421-2.901,0.59c-0.971,0.173-1.934,0.385-2.909,0.528
				c-0.973,0.151-1.942,0.324-2.918,0.456c-1.949,0.273-3.901,0.512-5.862,0.692c-0.979,0.092-1.961,0.177-2.946,0.242
				c-0.992,0.068-1.956,0.121-2.998,0.152l0.624-0.118l-4.548,1.397l-2.272,0.697l-2.297,0.603l-4.592,1.201l-4.628,1.03
				c-1.538,0.362-3.088,0.661-4.642,0.942c-1.553,0.282-3.099,0.601-4.655,0.853l-4.673,0.73c-1.554,0.261-3.124,0.418-4.684,0.632
				c-1.561,0.21-3.124,0.401-4.693,0.537c-1.568,0.144-3.131,0.327-4.701,0.438l-4.706,0.349l-4.71,0.254l-4.712,0.168l-4.713,0.073
				c-3.145,0.013-6.279-0.013-9.433-0.176l0.328-0.096l-8.259,5.363L333.07,226.806z"/>
		</g>
		<g>
			<path class="st5" d="M-41.894,233.974c1.107-0.307,2.281-0.527,3.39-0.778l3.369-0.748c2.242-0.513,4.479-1.047,6.706-1.618
				c2.229-0.564,4.442-1.184,6.654-1.808l3.298-0.999c1.102-0.325,2.184-0.711,3.276-1.063c1.094-0.349,2.177-0.728,3.252-1.129
				c1.074-0.403,2.167-0.758,3.224-1.2l3.189-1.286l3.133-1.407c1.054-0.45,2.059-0.994,3.077-1.514
				c1.017-0.521,2.041-1.03,3.006-1.637c0.968-0.599,1.984-1.129,2.913-1.782l2.787-1.957l0.35-0.246l0.375,0.186
				c1.289,0.639,2.67,1.217,4.041,1.751c1.378,0.533,2.771,1.03,4.181,1.475c1.406,0.458,2.831,0.857,4.26,1.236
				c1.432,0.371,2.873,0.697,4.321,0.997c1.451,0.284,2.906,0.538,4.368,0.749c1.463,0.199,2.929,0.38,4.4,0.495
				c0.734,0.076,1.471,0.113,2.208,0.151c0.736,0.042,1.473,0.085,2.21,0.087c1.474,0.049,2.948,0.012,4.42-0.023
				c1.47-0.087,2.942-0.148,4.404-0.326c1.467-0.123,2.918-0.377,4.373-0.585c1.44-0.294,2.893-0.529,4.313-0.912
				c1.434-0.322,2.838-0.756,4.244-1.178c1.393-0.459,2.784-0.935,4.146-1.48c1.358-0.557,2.718-1.107,4.03-1.767
				c1.339-0.602,2.618-1.322,3.907-2.023c1.291-0.696,2.51-1.519,3.769-2.27l0.508-0.303l0.544,0.182
				c1.252,0.418,2.598,0.793,3.916,1.14c1.326,0.35,2.667,0.651,4.008,0.944c2.688,0.565,5.4,1.018,8.124,1.351
				c1.362,0.169,2.727,0.297,4.093,0.409c1.367,0.1,2.734,0.173,4.103,0.213c1.368,0.027,2.736,0.055,4.101,0.007
				c1.367-0.015,2.728-0.114,4.089-0.206c5.43-0.452,10.807-1.53,15.847-3.471l1.879-0.75l1.829-0.858
				c0.618-0.269,1.2-0.607,1.791-0.927c0.583-0.333,1.196-0.617,1.752-0.995l1.703-1.076c0.562-0.366,1.089-0.783,1.636-1.172
				c1.112-0.754,2.086-1.685,3.129-2.526l0.572-0.46l0.671,0.063c1.63,0.153,3.329,0.263,5.003,0.345
				c1.68,0.082,3.362,0.142,5.045,0.172c3.366,0.064,6.734,0.031,10.096-0.104c6.722-0.261,13.421-0.958,19.986-2.209
				c1.633-0.343,3.274-0.662,4.883-1.087c1.623-0.378,3.21-0.867,4.803-1.333c1.571-0.525,3.146-1.039,4.671-1.666
				c0.776-0.285,1.531-0.61,2.275-0.958c0.744-0.347,1.513-0.648,2.226-1.047c0.722-0.383,1.456-0.747,2.169-1.142l2.086-1.264
				c1.339-0.908,2.685-1.816,3.887-2.879l0.927-0.77l0.85-0.844c0.56-0.568,1.163-1.099,1.645-1.731
				c0.493-0.62,1.054-1.192,1.497-1.847l1.335-1.959l0.846-1.241l1.397,0.323c1.616,0.374,3.322,0.718,4.999,1.03
				c1.685,0.314,3.377,0.604,5.073,0.866c3.392,0.527,6.799,0.958,10.213,1.289c1.707,0.17,3.415,0.297,5.124,0.418
				c1.709,0.094,3.419,0.189,5.127,0.228c1.709,0.055,3.417,0.064,5.122,0.047c1.706-0.012,3.407-0.074,5.105-0.164
				c0.851-0.03,1.694-0.12,2.541-0.177c0.848-0.055,1.691-0.134,2.531-0.238c1.688-0.161,3.354-0.424,5.021-0.677
				c1.651-0.316,3.31-0.604,4.925-1.031c0.815-0.191,1.626-0.391,2.417-0.646c0.791-0.252,1.605-0.45,2.378-0.743l2.328-0.85
				l2.252-0.993c0.759-0.316,1.447-0.75,2.175-1.116c0.735-0.358,1.405-0.808,2.083-1.245l1.02-0.652
				c0.33-0.228,0.635-0.487,0.955-0.729c0.62-0.503,1.299-0.944,1.849-1.518c0.564-0.558,1.186-1.062,1.706-1.656l1.55-1.791
				l1.634-1.888l1.982,1.428c0.525,0.378,1.284,0.849,1.967,1.236c0.704,0.404,1.435,0.771,2.173,1.118
				c1.481,0.685,3.01,1.259,4.564,1.69c1.554,0.432,3.135,0.721,4.713,0.845c0.395,0.044,0.789,0.054,1.183,0.063
				c0.394,0.019,0.788,0.025,1.179,0.003c0.786-0.005,1.564-0.091,2.338-0.182c3.09-0.433,6.046-1.587,8.683-3.348
				c0.657-0.446,1.311-0.896,1.923-1.419c0.639-0.48,1.219-1.049,1.814-1.595c0.599-0.541,1.13-1.173,1.7-1.752
				c0.54-0.617,1.055-1.262,1.586-1.889l1.177-1.39l1.715,0.399c1.774,0.413,3.706,0.781,5.581,1.114
				c1.893,0.323,3.793,0.623,5.697,0.899c1.904,0.277,3.815,0.509,5.728,0.722c1.914,0.202,3.831,0.374,5.749,0.514
				c1.919,0.128,3.839,0.239,5.759,0.297c1.92,0.061,3.841,0.1,5.759,0.071c1.92,0,3.833-0.087,5.748-0.163
				c1.909-0.127,3.82-0.243,5.718-0.456c0.953-0.082,1.9-0.198,2.843-0.332c0.943-0.133,1.897-0.217,2.833-0.389l2.817-0.468
				l2.791-0.577c0.936-0.175,1.847-0.433,2.767-0.662c0.919-0.233,1.842-0.455,2.739-0.75c0.902-0.282,1.814-0.54,2.708-0.842
				l2.659-0.967c0.892-0.311,1.736-0.725,2.607-1.082l1.298-0.556l1.257-0.632c0.829-0.437,1.7-0.806,2.497-1.296l2.424-1.419
				c1.541-1.051,3.14-2.036,4.567-3.239c1.509-1.107,2.825-2.43,4.209-3.682l1.003-0.908l1.163,0.255
				c1.426,0.312,2.952,0.6,4.444,0.857c1.501,0.263,3.009,0.496,4.52,0.712c3.023,0.427,6.06,0.768,9.102,1.017
				c1.522,0.113,3.043,0.226,4.566,0.304c1.522,0.071,3.047,0.146,4.569,0.154c1.524,0.037,3.044,0.004,4.565-0.015
				c1.517-0.064,3.038-0.11,4.548-0.241c1.516-0.092,3.018-0.283,4.52-0.464l2.242-0.334l2.221-0.423
				c0.745-0.127,1.468-0.327,2.2-0.503c0.732-0.174,1.462-0.355,2.172-0.59c1.448-0.404,2.839-0.942,4.234-1.475l2.027-0.93
				c0.676-0.311,1.299-0.709,1.953-1.058c0.666-0.336,1.248-0.786,1.864-1.192c0.302-0.21,0.617-0.407,0.911-0.628l0.846-0.706
				c0.571-0.464,1.141-0.931,1.628-1.479c0.497-0.536,1.072-1.011,1.492-1.614c0.436-0.587,0.942-1.13,1.33-1.754l1.154-1.882
				l0.439-0.717l0.713,0.117c2.558,0.419,5.181,0.739,7.786,0.994c1.306,0.126,2.613,0.229,3.922,0.312
				c0.654,0.051,1.309,0.066,1.964,0.101c0.655,0.035,1.31,0.058,1.965,0.064c1.311,0.041,2.619,0.019,3.928-0.007
				c0.655-0.012,1.305-0.069,1.958-0.101c0.655-0.023,1.304-0.083,1.952-0.158c0.647-0.077,1.305-0.11,1.941-0.242
				c0.638-0.119,1.289-0.204,1.921-0.352l1.882-0.503l1.802-0.72l0.257,0.485l-1.83,0.865l-1.912,0.639
				c-0.643,0.193-1.3,0.32-1.951,0.483c-0.651,0.175-1.313,0.25-1.972,0.37c-0.659,0.117-1.321,0.221-1.985,0.282
				c-0.664,0.065-1.328,0.155-1.993,0.2c-1.33,0.092-2.662,0.179-3.993,0.203c-0.666,0.027-1.332,0.036-1.997,0.033
				c-0.665-0.003-1.332,0.015-1.997-0.005c-1.331-0.019-2.661-0.059-3.991-0.122c-2.663-0.13-5.303-0.321-7.978-0.626l1.152-0.6
				l-1.17,2.14c-0.398,0.71-0.919,1.341-1.378,2.017c-0.443,0.691-1.039,1.253-1.57,1.872c-0.527,0.628-1.135,1.168-1.747,1.703
				l-0.912,0.813c-0.315,0.255-0.65,0.484-0.975,0.727c-0.659,0.471-1.294,0.988-2,1.379c-0.696,0.406-1.371,0.864-2.089,1.227
				l-2.16,1.083c-1.476,0.627-2.956,1.255-4.478,1.739c-0.753,0.277-1.518,0.496-2.287,0.707c-0.767,0.213-1.532,0.451-2.309,0.613
				l-2.325,0.527l-2.34,0.432c-1.563,0.245-3.13,0.498-4.702,0.65c-1.571,0.191-3.144,0.294-4.719,0.415
				c-1.574,0.075-3.149,0.163-4.723,0.18c-1.575,0.046-3.148,0.024-4.721,0.006c-1.573-0.025-3.143-0.084-4.713-0.17
				c-3.137-0.18-6.266-0.455-9.386-0.82c-1.56-0.185-3.118-0.388-4.674-0.621c-1.566-0.233-3.091-0.48-4.699-0.791l2.166-0.654
				c-1.479,1.418-2.906,2.904-4.527,4.163c-1.545,1.356-3.255,2.488-4.934,3.659l-2.62,1.594c-0.866,0.548-1.796,0.967-2.692,1.455
				l-1.357,0.708l-1.392,0.626c-0.933,0.402-1.847,0.863-2.798,1.215l-2.845,1.087c-0.955,0.339-1.924,0.633-2.886,0.95
				c-0.959,0.331-1.936,0.585-2.912,0.85c-0.976,0.26-1.947,0.55-2.934,0.753l-2.952,0.66l-2.97,0.545
				c-0.989,0.198-1.986,0.304-2.98,0.46c-0.994,0.151-1.99,0.275-2.989,0.369c-1.994,0.235-3.992,0.369-5.99,0.512
				c-1.998,0.093-3.997,0.193-5.995,0.205c-1.998,0.041-3.995,0.012-5.989-0.04c-1.995-0.048-3.986-0.152-5.975-0.274
				c-1.989-0.133-3.974-0.3-5.956-0.498c-1.981-0.209-3.959-0.439-5.933-0.714c-1.975-0.264-3.942-0.592-5.906-0.947
				c-1.978-0.37-3.892-0.746-5.929-1.237l2.891-0.991c-0.615,0.721-1.213,1.454-1.846,2.162c-0.672,0.68-1.296,1.398-2.013,2.041
				c-0.712,0.647-1.407,1.309-2.187,1.892c-0.744,0.619-1.548,1.171-2.362,1.711c-0.812,0.539-1.675,1.019-2.543,1.478
				c-0.884,0.438-1.776,0.859-2.709,1.195c-0.457,0.191-0.928,0.344-1.404,0.484c-0.476,0.138-0.942,0.311-1.43,0.408l-1.451,0.327
				l-1.468,0.229c-0.982,0.112-1.969,0.206-2.954,0.208c-0.493,0.02-0.985,0.009-1.475-0.017c-0.491-0.016-0.981-0.039-1.467-0.098
				c-1.949-0.181-3.861-0.563-5.709-1.104c-1.849-0.542-3.635-1.242-5.356-2.067c-0.859-0.417-1.704-0.859-2.529-1.347
				c-0.846-0.503-1.595-0.963-2.498-1.633l3.615-0.46l-1.887,2.125c-0.637,0.7-1.372,1.295-2.055,1.943
				c-0.673,0.667-1.459,1.179-2.198,1.756c-0.377,0.277-0.743,0.572-1.13,0.832l-1.184,0.738c-0.789,0.494-1.573,0.996-2.405,1.392
				c-0.827,0.406-1.628,0.882-2.476,1.226l-2.531,1.073l-2.578,0.902c-0.857,0.309-1.737,0.514-2.605,0.775
				c-0.868,0.265-1.745,0.469-2.624,0.663c-1.752,0.435-3.521,0.719-5.286,1.029c-1.771,0.245-3.54,0.497-5.314,0.642
				c-0.886,0.096-1.772,0.167-2.659,0.212c-0.886,0.048-1.773,0.129-2.659,0.148c-7.089,0.278-14.149-0.065-21.142-0.822
				c-3.497-0.377-6.98-0.857-10.446-1.435c-1.733-0.287-3.462-0.603-5.188-0.944c-1.733-0.342-3.43-0.702-5.194-1.13l2.243-0.918
				l-1.559,2.239c-0.521,0.745-1.157,1.395-1.733,2.094c-0.565,0.713-1.244,1.308-1.885,1.942l-0.973,0.939l-1.042,0.851
				c-1.363,1.173-2.851,2.159-4.336,3.137l-2.29,1.353c-0.777,0.42-1.571,0.805-2.355,1.209c-0.778,0.42-1.598,0.734-2.399,1.096
				c-0.801,0.362-1.611,0.7-2.434,0.993c-1.629,0.648-3.292,1.172-4.952,1.705c-1.674,0.471-3.344,0.963-5.037,1.339
				c-1.684,0.424-3.386,0.737-5.083,1.073c-6.808,1.221-13.68,1.855-20.546,2.047c-3.434,0.1-6.867,0.096-10.298-0.007
				c-1.715-0.049-3.43-0.129-5.144-0.232c-1.721-0.104-3.414-0.231-5.167-0.415l1.243-0.397c-1.13,0.896-2.192,1.88-3.394,2.681
				c-0.592,0.412-1.165,0.851-1.772,1.238l-1.839,1.134c-0.603,0.397-1.259,0.697-1.888,1.046c-0.636,0.336-1.264,0.688-1.926,0.97
				l-1.962,0.893l-2.007,0.777c-5.38,2.003-11.044,3.067-16.705,3.476c-1.417,0.081-2.835,0.167-4.252,0.167
				c-1.417,0.034-2.833-0.01-4.247-0.054c-1.414-0.055-2.825-0.152-4.233-0.276c-1.406-0.135-2.811-0.288-4.209-0.482
				c-2.797-0.384-5.574-0.889-8.325-1.509c-1.373-0.321-2.744-0.651-4.105-1.031c-1.368-0.382-2.7-0.771-4.082-1.255L79,213.384
				c-1.315,0.762-2.589,1.592-3.936,2.294c-1.345,0.707-2.679,1.432-4.075,2.036c-1.368,0.662-2.784,1.212-4.197,1.767
				c-1.417,0.543-2.862,1.015-4.309,1.468c-1.46,0.416-2.916,0.842-4.402,1.154c-1.471,0.372-2.973,0.594-4.462,0.875
				c-1.503,0.193-3,0.432-4.512,0.537c-1.506,0.16-3.021,0.202-4.532,0.268c-1.513,0.015-3.025,0.029-4.535-0.042
				c-0.756-0.014-1.51-0.068-2.263-0.122c-0.754-0.05-1.507-0.099-2.258-0.188c-1.504-0.14-3-0.346-4.492-0.572
				c-1.49-0.238-2.972-0.518-4.448-0.83c-1.472-0.327-2.938-0.681-4.391-1.081c-1.451-0.408-2.896-0.835-4.323-1.323
				c-1.43-0.475-2.843-1.002-4.242-1.567c-1.402-0.572-2.771-1.165-4.147-1.872l0.725-0.06l-2.895,1.971
				c-0.965,0.657-2.005,1.182-3.003,1.778c-0.995,0.605-2.042,1.107-3.082,1.621c-1.041,0.513-2.07,1.05-3.142,1.49l-3.189,1.376
				l-3.237,1.251c-1.074,0.43-2.179,0.772-3.267,1.162c-1.089,0.388-2.184,0.754-3.29,1.089c-1.104,0.338-2.198,0.71-3.31,1.02
				l-3.328,0.955c-2.23,0.595-4.46,1.185-6.705,1.718c-2.242,0.541-4.493,1.044-6.748,1.524l-3.385,0.7
				c-1.14,0.242-2.237,0.425-3.353,0.717L-41.894,233.974z"/>
		</g>
		<path class="st10" d="M167.303,150.941c-2.787,1.653-5.401,3.677-7.758,5.827c-6.658,6.071-12.297,13.397-19.956,18.142
			c-1.496,0.927-3.089,1.772-4.255,3.091c-1.166,1.319-1.821,3.274-1.076,4.869c0.507,1.085,1.823,1.73,2.957,1.596
			c-1.75,1.737-3.86,3.109-6.162,3.989c-1.265,0.483-2.592,0.825-3.777,1.479c-1.185,0.655-2.247,1.703-2.501,3.033
			c-0.16,0.841,0.112,1.775,0.673,2.397c-5.412,1.386-10.343,4.638-13.678,9.131c-0.464,0.625-0.711,1.415-0.591,2.184
			c0.263,1.683,1.775,1.965,3.087,1.975c2.038,0.016,4.078-0.386,5.962-1.162c-0.704,3.658-2.985,7.001-5.533,9.816
			c-3.112,3.438-6.751,6.456-9.236,10.371c-1.999,3.15-3.125,7.156-2.273,10.688c-1.776,0.357-3.508,0.954-5.13,1.771
			c-0.674,0.339-1.381,0.777-1.62,1.493c-0.33,0.986,0.382,2.023,1.203,2.661c2.185,1.696-3.216,0.8-8.358,2.711
			c-1.197,0.445-2.411,0.951-3.326,1.842c-0.915,0.891-1.475,2.256-1.082,3.471c0.051,0.158,0.198,0.377,0.417,0.636
			c1.027,1.216,2.517,1.965,4.101,2.123c22.311,2.223,45.429-4.698,62.951-18.675c10.937-12.832,15.299-30.179,18.776-46.813
			c2.653-12.688,5.196-25.797,10.463-37.504c1.152-2.56-0.967-5.425-3.749-5.044C174.169,147.54,170.614,148.978,167.303,150.941z"/>
		
			<use xlink:href="#New_Symbol_22" width="14.419" height="10.966" x="-6.782" y="-5.48" transform="matrix(0.4562 0.717 0.717 -0.4562 77.0243 234.3999)" style="overflow:visible;"/>
		
			<use xlink:href="#New_Symbol_22" width="14.419" height="10.966" x="-6.782" y="-5.48" transform="matrix(0.9001 0.4479 0.4479 -0.9001 67.9284 244.0393)" style="overflow:visible;"/>
		
			<use xlink:href="#New_Symbol_22" width="14.419" height="10.966" id="XMLID_28_" x="-6.782" y="-5.48" transform="matrix(0.6026 0.3674 0.3674 -0.6026 93.9633 217.6907)" style="overflow:visible;"/>
		<g>
			<defs>
				<path id="SVGID_5_" d="M132.237,261.54c20.131,3.396,40.885,3.431,61.24,1.325c27.054-2.799,53.572-9.274,79.857-16.31
					c-9.04-18.032-17.335-36.438-24.861-55.152c-3.003-1.291-5.961-2.686-8.869-4.179c-4.288-2.203-9.488,0.262-10.391,4.998
					l-4.071,21.368c-41.014,1.577-81.364,17.08-112.9,43.357C118.812,258.885,125.49,260.401,132.237,261.54z"/>
			</defs>
			<use xlink:href="#SVGID_5_" style="overflow:visible;fill:#F6C8AA;"/>
			<clipPath id="SVGID_6_">
				<use xlink:href="#SVGID_5_" style="overflow:visible;"/>
			</clipPath>
			<path class="st11" d="M248.554,262.208c-25.6-9.092-49.098-24.045-68.177-43.384c0,0-81.769,19.596-81.868,19.847
				c-0.099,0.251-7.124,25.626-7.124,25.626l130.514,12.724L248.554,262.208z"/>
			<use xlink:href="#SVGID_5_" style="overflow:visible;fill:none;stroke:#BC8364;stroke-width:1.3724;stroke-miterlimit:10;"/>
		</g>
		<g>
			<defs>
				<path id="SVGID_7_" d="M247.558,191.7l-18.651-7.534c-13.105-14.844-28.844-27.353-46.248-36.795
					c-3.213-1.743-7.181-1.147-9.801,1.403c-7.53,7.329-12.827,17.007-16.752,26.867c-4.715,11.843-7.806,24.298-12.616,36.094
					c-4.258,2.743-8.136,6.072-11.492,9.867c-4.4,1.72-9.075,2.738-13.793,2.995c-1.62,0.089-3.269,0.092-4.821,0.563
					c-1.553,0.471-3.034,1.508-3.571,3.039c-0.576,1.643,0.071,3.527,1.236,4.822s2.769,2.101,4.376,2.772
					c3.485,1.456,7.178,2.408,10.93,2.838l5.778,0.039c5.178,0.035,10.332-1.156,14.826-3.728
					c12.176-6.97,16.462-21.021,20.155-34.036c2.986-10.524,6.476-21.72,14.223-29.171c11.756,7.737,22.095,17.617,30.355,29.008
					c0.455,7.101-2.121,14.341-6.944,19.569l33.902-2.104L247.558,191.7z"/>
			</defs>
			<use xlink:href="#SVGID_7_" style="overflow:visible;fill:#F6C8AA;"/>
			<clipPath id="SVGID_8_">
				<use xlink:href="#SVGID_7_" style="overflow:visible;"/>
			</clipPath>
			<path class="st12" d="M177.073,186.823c-1.02,0.573-2.079,1.138-3.238,1.302c-1.159,0.164-2.453-0.146-3.181-1.063
				c-0.965-1.215-0.643-2.977-0.195-4.462c1.057-3.51,2.55-6.888,4.432-10.034c0.24-0.401-0.085-0.906-0.547-0.833
				c-0.725,0.115-1.453,0.279-2.182,0.339c-1.45,0.118-3.207-0.437-3.55-1.851c-0.193-0.795,0.129-1.617,0.48-2.356
				c1.27-2.674,3.012-5.121,5.11-7.21c0.535-0.533,0.058-1.42-0.689-1.306c-1.019,0.156-2.047,0.262-3.077,0.32
				c-0.745,0.042-1.571,0.032-2.129-0.463c-0.884-0.783-0.564-2.219-0.091-3.3c2.413-5.519,7.06-10.023,12.652-12.263
				l-41.622,14.794l-40.738,58.529l8.278,25.49l43.326,0.762l20.715-30.326L177.073,186.823z"/>
			<use xlink:href="#SVGID_7_" style="overflow:visible;fill:none;stroke:#BC8364;stroke-width:1.3724;stroke-miterlimit:10;"/>
		</g>
		<g>
			<path class="st8" d="M245.437,228.56c3.876-9.942,4.047-21.28,0.475-31.335"/>
			<path class="st9" d="M245.372,228.536c0,0,0.155-0.476,0.425-1.308c0.144-0.414,0.289-0.925,0.445-1.51
				c0.167-0.582,0.342-1.243,0.496-1.975c0.178-0.725,0.325-1.52,0.471-2.361c0.159-0.838,0.266-1.733,0.396-2.652
				c0.088-0.926,0.203-1.879,0.238-2.854c0.073-0.972,0.059-1.963,0.075-2.95c-0.043-0.988-0.05-1.976-0.156-2.942
				c-0.072-0.968-0.195-1.915-0.295-2.832c-0.216-1.832-0.444-3.542-0.701-5.003c-0.115-0.734-0.237-1.404-0.359-1.998
				c-0.108-0.597-0.203-1.119-0.296-1.546c-0.183-0.855-0.265-1.356-0.265-1.356l0.129-0.046c0,0,0.231,0.448,0.596,1.255
				c0.198,0.399,0.397,0.897,0.609,1.477c0.22,0.577,0.455,1.234,0.656,1.967c0.231,0.726,0.422,1.528,0.603,2.382
				c0.209,0.849,0.298,1.767,0.448,2.707c0.069,0.95,0.17,1.929,0.159,2.93c0.031,0.998-0.01,2.012-0.03,3.023
				c-0.068,1.011-0.107,2.021-0.231,3.009c-0.087,0.991-0.253,1.957-0.392,2.892c-0.185,0.928-0.326,1.832-0.55,2.669
				c-0.206,0.841-0.409,1.633-0.64,2.353c-0.206,0.725-0.428,1.381-0.638,1.958c-0.199,0.58-0.379,1.081-0.55,1.484
				c-0.327,0.812-0.514,1.276-0.514,1.276L245.372,228.536z"/>
		</g>
		<path class="st8" d="M196.768,224.6l20.266-11.708c0,0,27.567-22.269,28.105-22.169s4.861,4.443,4.861,4.443l-9.517,35.649
			L196.768,224.6z"/>
		
			<ellipse transform="matrix(0.5538 0.8327 -0.8327 0.5538 289.2212 -144.6169)" class="st13" cx="279.535" cy="197.529" rx="47.281" ry="34.797"/>
		<g>
			<path class="st14" d="M321.532,203.852c-0.008-0.628-0.043-1.256-0.107-1.882c-0.456-4.454-2.353-8.741-5.304-12.104
				c-5.273-10.311-11.649-20.344-20.617-27.687c-8.809-7.213-20.459-11.58-31.681-9.653c-10.304,1.77-19.74,9.651-22.066,19.702
				c3.392,6.525,10.906,10.246,18.26,11.416c7.809,1.242,15.784,0.219,23.689,0.424c10.141,0.263,20.222,2.586,29.464,6.768
				c3.267,8.226,4.72,17.162,4.265,26C320.138,213.097,321.587,208.467,321.532,203.852z"/>
			<g>
				<path class="st15" d="M322.218,203.852c-0.113-3.285-0.818-6.436-2.251-9.405c-0.66-1.367-1.481-2.611-2.364-3.842
					c-1.271-1.771-2.226-3.681-3.28-5.586c-3.582-6.476-7.705-12.72-12.787-18.125c-9.399-9.999-23.04-17.224-37.093-15.155
					c-6.055,0.892-11.785,3.758-16.179,8.015c-2.148,2.081-3.988,4.519-5.319,7.2c-0.596,1.201-1.103,2.452-1.489,3.737
					c-0.443,1.476-0.394,1.842,0.441,3.153c8.274,12.989,25.826,10.942,38.96,10.886c9.524-0.041,18.968,1.602,27.874,4.998
					c1.308,0.499,3.292,0.929,4.108,2.146c0.619,0.924,0.869,2.413,1.196,3.461c0.681,2.185,1.241,4.408,1.677,6.655
					c0.951,4.898,1.256,9.869,1.036,14.849c-0.032,0.729,0.918,0.867,1.279,0.346C320.778,213.217,322.184,208.674,322.218,203.852
					c0.006-0.883-1.366-0.884-1.372,0c-0.033,4.61-1.377,8.852-4.003,12.639c0.426,0.115,0.852,0.231,1.279,0.346
					c0.325-7.392-0.553-14.797-2.762-21.868c-0.395-1.264-0.755-3.448-1.597-4.478c-0.592-0.724-2.075-1.052-2.951-1.41
					c-3.699-1.513-7.516-2.736-11.405-3.654c-7.045-1.664-14.178-2.187-21.401-2.027c-7.643,0.17-15.547,0.783-22.926-1.655
					c-3.187-1.053-6.266-2.64-8.787-4.879c-1.16-1.03-2.515-2.317-3.211-3.716c-0.87-1.752,0.086-3.498,0.893-5.191
					c2.605-5.471,7.303-9.813,12.727-12.428c13.018-6.276,28.488-1.174,38.969,7.676c6.23,5.261,11.179,11.845,15.347,18.813
					c2.017,3.372,3.723,6.853,5.973,10.055c2.45,3.488,3.71,7.534,3.856,11.777C320.876,204.733,322.248,204.737,322.218,203.852z"/>
			</g>
		</g>
		<g>
			<path class="st14" d="M263.792,173.593c16.61-2.824,34.392,2.278,46.977,13.48"/>
			<path class="st15" d="M263.782,173.525c0,0,0.779-0.126,2.142-0.347c0.679-0.128,1.513-0.222,2.475-0.312
				c0.481-0.049,0.993-0.102,1.532-0.157c0.541-0.027,1.11-0.055,1.703-0.084c0.594-0.02,1.213-0.07,1.854-0.068
				c0.641,0.007,1.305,0.015,1.986,0.023c0.683-0.008,1.382,0.037,2.096,0.096c0.714,0.057,1.446,0.094,2.187,0.17
				c1.476,0.195,3.011,0.352,4.545,0.671c1.549,0.246,3.086,0.665,4.637,1.029c1.525,0.458,3.07,0.863,4.539,1.423
				c1.497,0.486,2.903,1.134,4.283,1.717c0.674,0.325,1.321,0.678,1.963,1.006c0.644,0.323,1.266,0.655,1.84,1.034
				c0.583,0.362,1.15,0.713,1.698,1.054c0.545,0.345,1.044,0.721,1.536,1.059c0.995,0.664,1.836,1.37,2.579,1.994
				c0.373,0.309,0.722,0.597,1.045,0.865c0.315,0.276,0.583,0.556,0.835,0.795c1.003,0.963,1.555,1.529,1.555,1.529
				c0.027,0.027,0.026,0.071-0.001,0.097c-0.024,0.023-0.064,0.023-0.09,0.005c0,0-0.657-0.448-1.77-1.259
				c-0.551-0.412-1.246-0.877-2.044-1.403c-0.397-0.265-0.82-0.546-1.266-0.843c-0.458-0.277-0.94-0.567-1.442-0.871
				c-0.503-0.302-1.01-0.64-1.564-0.945c-0.555-0.3-1.129-0.611-1.72-0.93c-1.173-0.647-2.453-1.251-3.763-1.894
				c-1.332-0.599-2.693-1.258-4.131-1.801c-1.413-0.608-2.908-1.065-4.386-1.578c-1.509-0.405-3.007-0.868-4.521-1.159
				c-1.499-0.364-3.004-0.566-4.454-0.807c-1.459-0.155-2.871-0.354-4.218-0.41c-0.674-0.037-1.329-0.073-1.963-0.108
				c-0.634-0.029-1.248-0.006-1.837-0.012c-0.59,0.003-1.154,0.006-1.692,0.009c-0.536,0.032-1.044,0.061-1.521,0.089
				c-0.956,0.047-1.791,0.105-2.476,0.203c-1.372,0.161-2.155,0.254-2.155,0.254c-0.038,0.004-0.072-0.022-0.076-0.06
				C263.721,173.564,263.746,173.531,263.782,173.525z"/>
		</g>
		<g>
			<path class="st14" d="M286.178,167.132c8.008,2.832,15.175,7.997,20.395,14.698"/>
			<path class="st15" d="M286.202,167.068c0,0,0.379,0.123,1.042,0.34c0.659,0.217,1.611,0.549,2.719,1.008
				c0.56,0.219,1.155,0.485,1.782,0.771c0.633,0.275,1.271,0.627,1.944,0.966c1.328,0.712,2.709,1.54,4.053,2.433
				c0.662,0.46,1.332,0.911,1.968,1.389c0.654,0.456,1.246,0.969,1.833,1.45c0.543,0.529,1.1,1.008,1.559,1.532
				c0.475,0.508,0.91,0.999,1.282,1.479c0.761,0.943,1.332,1.778,1.688,2.391c0.368,0.604,0.556,0.962,0.556,0.962
				c0.018,0.034,0.005,0.076-0.029,0.094c-0.026,0.013-0.058,0.008-0.079-0.01c0,0-0.313-0.261-0.821-0.74
				c-0.511-0.47-1.241-1.142-2.116-1.947c-0.875-0.788-1.896-1.708-2.99-2.694c-0.547-0.491-1.113-0.999-1.687-1.515
				c-0.571-0.524-1.195-1.001-1.804-1.5c-1.252-0.953-2.55-1.851-3.807-2.633c-1.269-0.76-2.466-1.46-3.53-1.99
				c-1.057-0.548-1.957-0.953-2.6-1.228c-0.642-0.272-1.009-0.428-1.009-0.428c-0.035-0.015-0.051-0.055-0.036-0.09
				C286.131,167.073,286.168,167.057,286.202,167.068z"/>
		</g>
		<g>
			<path class="st14" d="M273.249,155.913c13.969,2.854,26.684,11.416,34.582,23.287"/>
			<path class="st15" d="M273.264,155.847c0,0,0.655,0.134,1.8,0.367c0.575,0.104,1.265,0.275,2.056,0.485
				c0.796,0.194,1.687,0.434,2.643,0.749c0.968,0.28,1.994,0.651,3.076,1.056c1.092,0.381,2.193,0.907,3.353,1.403
				c1.131,0.557,2.318,1.103,3.468,1.765c1.177,0.614,2.308,1.348,3.463,2.048c1.115,0.758,2.257,1.484,3.307,2.302
				c1.088,0.77,2.07,1.639,3.044,2.451c0.906,0.888,1.831,1.697,2.593,2.577c0.389,0.432,0.767,0.852,1.133,1.258
				c0.357,0.413,0.673,0.838,0.992,1.231c0.645,0.781,1.168,1.55,1.629,2.23c0.474,0.67,0.868,1.266,1.15,1.787
				c0.599,1.015,0.917,1.605,0.917,1.605c0.018,0.033,0.006,0.075-0.028,0.093c-0.029,0.015-0.066,0.006-0.086-0.017
				c0,0-0.45-0.503-1.195-1.4c-0.37-0.451-0.839-0.981-1.377-1.586c-0.268-0.303-0.553-0.625-0.854-0.964
				c-0.313-0.327-0.643-0.672-0.986-1.031c-0.669-0.733-1.436-1.486-2.245-2.281c-0.801-0.803-1.691-1.603-2.598-2.441
				c-0.928-0.817-1.867-1.685-2.884-2.495c-0.987-0.849-2.067-1.611-3.124-2.409c-1.104-0.727-2.187-1.493-3.32-2.14
				c-1.105-0.695-2.251-1.276-3.345-1.868c-1.121-0.535-2.194-1.085-3.249-1.52c-1.047-0.454-2.044-0.873-2.987-1.199
				c-0.932-0.361-1.801-0.644-2.577-0.876c-0.772-0.248-1.45-0.454-2.02-0.588c-1.132-0.292-1.779-0.459-1.779-0.459
				c-0.037-0.009-0.059-0.047-0.049-0.084C273.193,155.861,273.229,155.839,273.264,155.847z"/>
		</g>
		<g>
			<path class="st14" d="M319.602,204.068c0.092-3.454-0.74-6.928-2.387-9.965"/>
			<path class="st15" d="M319.533,204.067c0,0-0.056-0.656-0.202-1.604c-0.158-0.952-0.407-2.205-0.805-3.406
				c-0.195-0.602-0.473-1.173-0.673-1.722c-0.192-0.552-0.321-1.088-0.431-1.556c-0.219-0.933-0.267-1.643-0.267-1.643
				c-0.003-0.042,0.029-0.078,0.07-0.08c0.018-0.001,0.037,0.005,0.05,0.015c0,0,0.587,0.421,1.152,1.267
				c0.29,0.417,0.567,0.941,0.779,1.534c0.191,0.601,0.275,1.274,0.389,1.93c0.206,1.32,0.288,2.645,0.225,3.634
				c-0.04,0.992-0.148,1.633-0.148,1.633c-0.004,0.038-0.038,0.065-0.076,0.061C319.563,204.126,319.538,204.097,319.533,204.067z"/>
		</g>
		<g>
			<path class="st16" d="M314.943,217.044c0.515-2.63,0.467-5.416-0.481-7.923c-0.948-2.507-2.859-4.705-5.354-5.685
				c-2.408-0.945-5.343-0.621-7.317,1.036c0.774-2.694,0.01-5.79-1.96-7.792c-2.276-2.313-6.039-3.041-8.989-1.632
				c2.918-2.614,2.571-7.188,0.307-10.111c-1.943-2.508-5.036-3.917-8.163-4.455c-3.126-0.538-7.006,0.919-10.169,1.162
				c-7.209-4.844-17.019-9.617-29.32-14.324l-1.741,4.911c9.639,3.763,18.861,8.785,27.543,15.442
				c0.592,4.197,3.143,8.077,6.763,10.283c3.088,1.882,6.902,2.515,10.438,1.777c3.003-1.681,7.016-0.999,9.399,1.415
				c1.79,1.814,2.585,4.53,2.133,7.026c-2.224,3.793-1.462,9.123,1.802,12.094c3.396,3.092,9.08,3.249,12.641,0.349
				c0,0,2.194,3.072,1.339,7.716c0,0,2.727-4.533,3.531-8.547L314.943,217.044z"/>
			<g>
				<path class="st17" d="M315.715,217.257c0.787-4.617,0.138-9.636-3.569-12.879c-3.042-2.661-7.488-3.04-10.759-0.598
					c0.392,0.301,0.784,0.603,1.176,0.904c1.676-7.064-5.045-13.292-11.934-10.409c0.26,0.446,0.519,0.892,0.779,1.338
					c3.077-3.074,2.941-7.897,0.307-11.243c-3.226-4.098-8.695-5.29-13.607-4.447c-1.482,0.254-3.206,0.919-4.715,0.713
					c-1.312-0.179-2.443-1.167-3.591-1.86c-2.566-1.55-5.204-2.977-7.883-4.322c-5.917-2.971-12.032-5.532-18.209-7.908
					c-0.424-0.163-0.852,0.185-0.985,0.559c-0.58,1.637-1.16,3.274-1.741,4.911c-0.155,0.438,0.181,0.836,0.559,0.985
					c7.391,2.915,14.483,6.53,21.113,10.915c1.598,1.057,3.338,2.098,4.787,3.352c1.375,1.189,1.437,2.671,2.132,4.298
					c1.144,2.675,3.047,5.031,5.455,6.673c2.617,1.784,5.829,2.678,8.99,2.586c3.66-0.107,6.596-2.364,10.156-0.041
					c1.902,1.241,3.233,3.568,3.179,5.874c-0.034,1.473-0.886,2.765-1.173,4.206c-0.514,2.583-0.086,5.368,1.237,7.654
					c3.125,5.4,10.617,6.422,15.461,2.79c-0.365-0.096-0.73-0.191-1.095-0.287c1.396,2.035,1.608,4.735,1.258,7.099
					c-0.125,0.846,0.965,1.456,1.463,0.617c1.434-2.413,2.866-5.219,3.44-7.981c0.394-1.894-1.235-2.906-2.438-4.278
					c-0.681-0.776-1.809,0.36-1.132,1.132c0.455,0.519,0.91,1.038,1.366,1.557c1.077,1.228,0.805,0.801,0.329,2.305
					c-0.711,2.247-1.743,4.429-2.947,6.456c0.488,0.206,0.975,0.411,1.463,0.617c0.412-2.785,0.229-5.928-1.42-8.333
					c-0.223-0.325-0.729-0.562-1.095-0.287c-3.593,2.694-8.979,2.709-12.166-0.712c-1.594-1.711-2.396-4.096-2.34-6.417
					c0.048-1.983,1.186-3.491,1.365-5.378c0.308-3.249-1.424-6.568-4.232-8.199c-3.077-1.788-5.728-1-8.918-0.265
					c-5.023,1.157-10.434-1.343-13.335-5.489c-0.673-0.962-1.233-2.014-1.643-3.114c-0.317-0.851-0.317-2.132-0.732-2.892
					c-0.714-1.311-2.81-2.31-4.016-3.159c-7.477-5.259-15.589-9.491-24.086-12.843c0.186,0.328,0.373,0.657,0.559,0.985
					c0.58-1.637,1.16-3.274,1.741-4.911c-0.328,0.186-0.657,0.373-0.985,0.559c9.794,3.768,19.454,8.019,28.305,13.699
					c1.585,1.017,3.109,0.426,4.922,0.069c2.883-0.568,5.539-1.012,8.406-0.091c5.062,1.625,10.189,7.886,5.357,12.714
					c-0.523,0.523,0.007,1.661,0.779,1.338c5.658-2.368,11.391,2.428,9.964,8.439c-0.145,0.612,0.579,1.35,1.176,0.904
					c2.965-2.214,6.759-1.703,9.352,0.845c2.869,2.819,3.266,7.059,2.624,10.823C313.999,217.839,315.542,218.272,315.715,217.257z"/>
			</g>
		</g>
		
			<ellipse transform="matrix(0.9761 -0.2173 0.2173 0.9761 -34.6978 65.9685)" class="st18" cx="282.549" cy="190.723" rx="7.543" ry="6.118"/>
		
			<ellipse transform="matrix(0.8677 -0.4972 0.4972 0.8677 -65.0022 180.5152)" class="st18" cx="306.572" cy="212.355" rx="6.759" ry="5.482"/>
		<path class="st13" d="M245.118,197.557c-4.313-1.44-8.084-4.447-10.449-8.331c-2.365-3.884-3.305-8.615-2.605-13.108
			c0.695-4.462,3.531-9.052,7.968-9.89c2.681-0.507,5.6,0.544,7.343,2.643c1.743,2.099,2.239,5.162,1.248,7.704"/>
		<g>
			<defs>
				<path id="SVGID_9_" d="M263.456,199.604c0.953-0.322,2.006-0.401,2.997-0.231c2.076,0.356,3.893,1.632,5.362,3.142
					c3.97,4.081,5.711,9.761,7.604,15.13c1.324,3.755,2.905,7.617,5.35,10.688c-6.456-5.409-12.915-10.814-19.375-16.22
					c-1.614-1.351-3.264-2.743-4.297-4.577c-1.034-1.834-1.336-4.232-0.203-6.006C261.487,200.601,262.412,199.957,263.456,199.604z
					"/>
			</defs>
			<use xlink:href="#SVGID_9_" style="overflow:visible;fill:#5B211D;"/>
			<clipPath id="SVGID_10_">
				<use xlink:href="#SVGID_9_" style="overflow:visible;"/>
			</clipPath>
			<path class="st19" d="M259.223,204.954c3.729-0.269,7.567,1.373,9.905,4.3c2.321,2.905,3.082,6.972,2.033,10.532
				c-2.753-1.878-5.449-3.847-7.767-6.232c-2.334-2.402-4.281-5.282-5.237-8.469C258.511,205.023,258.867,204.98,259.223,204.954z"/>
			<use xlink:href="#SVGID_9_" style="overflow:visible;fill:none;stroke:#BC8364;stroke-width:1.3724;stroke-miterlimit:10;"/>
		</g>
		<path class="st13" d="M282.509,212.96c1.423,1.852,3.06,3.606,5.128,4.692s4.634,1.421,6.744,0.418
			c2.44-1.16,3.828-3.886,4.118-6.572c0.29-2.686-0.337-5.377-0.959-8.006"/>
		<path class="st4" d="M67.671,267.924c0.384-1.081,21.72-12.85,21.72-12.85s19.017-1.201,24.421-5.885
			c0,0,43.38,8.901,69.175-4.323c0,0-0.895-11.472,16.825-4.307c0,0-20.82-19.402,21.71-3.945c0,0-0.704-7.601,5.24-9.042
			c0,0,20.697,14.298,39.081,5.167c0,0,32.976,21.829,46.577-2.298l19.365,17.307c0,0-77.462,19.605-78.542,19.53
			c-1.081-0.075-137.466,16.499-137.466,16.499l-89.875,12.25L67.671,267.924z"/>
		<g>
			<path class="st5" d="M-34.302,272.156l32.925-4.636l0.044,1.173c-1.788-0.113-3.536-0.323-5.299-0.779
				c-0.876-0.247-1.762-0.517-2.616-1.124c-0.41-0.305-0.867-0.781-0.99-1.474c-0.055-0.337-0.012-0.677,0.085-0.965l0.081-0.208
				l0.042-0.103l0.011-0.026l0.073-0.116l0.006-0.008l0.025-0.032c0.07-0.088,0.126-0.169,0.208-0.261
				c0.572-0.512,1.014-0.665,1.456-0.837c0.448-0.174,0.887-0.283,1.329-0.404c0.88-0.208,1.758-0.375,2.634-0.503
				c1.753-0.266,3.503-0.439,5.252-0.582c7.001-0.534,13.985-0.652,20.991-0.637l-0.305,1.928c-1.06-0.323-2.063-0.678-3.077-1.075
				c-1.009-0.396-2.008-0.833-2.991-1.339c-0.981-0.513-1.952-1.081-2.868-1.874c-0.451-0.408-0.903-0.877-1.248-1.54
				c-0.355-0.635-0.5-1.638-0.155-2.424c0.085-0.181,0.168-0.378,0.271-0.537l0.162-0.229l0.083-0.113l0.042-0.056l0.021-0.028
				l0.011-0.014l0.143-0.141l0.306-0.252l0.079-0.064l0.146-0.083l0.303-0.157c0.46-0.234,0.746-0.27,1.059-0.349
				c0.324-0.09,0.604-0.097,0.905-0.14c1.17-0.109,2.282-0.086,3.371-0.002c2.184,0.152,4.302,0.486,6.411,0.856
				c4.211,0.757,8.354,1.722,12.475,2.761c4.123,1.043,8.202,2.181,12.288,3.399l-0.942,0.029c1.356-0.511,2.667-0.953,4.013-1.375
				c1.34-0.417,2.686-0.817,4.044-1.175c2.713-0.725,5.46-1.338,8.246-1.798c1.393-0.227,2.796-0.418,4.207-0.562
				c1.408-0.139,2.854-0.23,4.216-0.291l8.284-0.384c2.748-0.149,5.493-0.3,8.22-0.537c2.728-0.229,5.447-0.506,8.131-0.909
				c1.348-0.18,2.674-0.43,4-0.673c0.664-0.12,1.309-0.288,1.965-0.429c0.658-0.136,1.303-0.301,1.935-0.49
				c1.291-0.33,2.516-0.775,3.725-1.229l1.731-0.787l1.564-0.937l0.812-0.486l0.847,0.238c1.266,0.355,2.699,0.686,4.085,0.953
				c1.395,0.285,2.812,0.511,4.227,0.722c1.422,0.19,2.839,0.399,4.272,0.518l2.143,0.212l2.152,0.135l2.152,0.132l2.157,0.05
				c1.438,0.032,2.875,0.081,4.314,0.027c1.438-0.043,2.878-0.023,4.314-0.116l4.309-0.27c1.435-0.106,2.863-0.297,4.295-0.44
				l2.146-0.234l2.134-0.332l4.265-0.671l4.228-0.879c1.411-0.284,2.819-0.576,4.206-0.969l4.177-1.092
				c1.401-0.33,2.752-0.844,4.13-1.256l4.114-1.307l-1.547,3.061c-0.141-0.47-0.186-0.719-0.249-1.07
				c-0.054-0.328-0.093-0.657-0.112-0.993c-0.038-0.671-0.006-1.372,0.138-2.096c0.148-0.724,0.426-1.473,0.847-2.159
				c0.412-0.695,0.99-1.299,1.609-1.763c0.623-0.487,1.288-0.79,1.936-1.041c0.649-0.236,1.284-0.385,1.9-0.482
				c0.61-0.088,1.218-0.153,1.791-0.154c0.587-0.025,1.144,0.006,1.703,0.035c1.109,0.075,2.173,0.228,3.215,0.42
				c1.039,0.196,2.05,0.439,3.053,0.696c1.991,0.537,3.916,1.181,5.819,1.863l-2.042,4.948c-1.019-0.467-1.819-0.914-2.694-1.454
				c-0.854-0.532-1.689-1.127-2.497-1.834c-0.806-0.703-1.594-1.532-2.279-2.591c-0.667-1.061-1.24-2.479-1.182-4.073
				c0.032-1.593,0.727-3.008,1.486-4.021l0.144-0.197l0.009-0.012l0.211-0.237l0.015-0.015l0.029-0.03l0.059-0.059l0.235-0.237
				l0.122-0.122l0.293-0.233c0.199-0.152,0.407-0.298,0.619-0.433l0.32-0.194l0.246-0.112l0.499-0.214
				c0.345-0.157,0.643-0.215,0.963-0.305c1.247-0.303,2.382-0.364,3.424-0.323c1.059,0.026,2.051,0.145,3.021,0.297
				c1.933,0.312,3.764,0.769,5.556,1.286c1.789,0.525,3.543,1.097,5.259,1.746c1.718,0.644,3.409,1.331,5.085,2.048l2.502,1.103
				c0.837,0.38,1.645,0.754,2.505,1.173l-3.926,3.358c-0.122-0.423-0.168-0.66-0.233-0.975c-0.052-0.293-0.107-0.587-0.14-0.881
				c-0.079-0.586-0.117-1.178-0.118-1.781c0.001-0.602,0.028-1.212,0.129-1.834c0.041-0.309,0.091-0.619,0.176-0.933
				c0.085-0.313,0.135-0.624,0.261-0.936c0.114-0.311,0.223-0.622,0.353-0.928l0.469-0.9c0.154-0.3,0.378-0.569,0.571-0.849
				c0.193-0.285,0.411-0.547,0.656-0.784c0.239-0.241,0.471-0.498,0.728-0.713l0.797-0.603c0.535-0.402,1.114-0.65,1.678-0.962
				l1.132-0.625l1.329,0.707c0.665,0.354,1.434,0.737,2.171,1.089c0.745,0.357,1.498,0.705,2.257,1.041
				c1.518,0.67,3.052,1.306,4.596,1.908c3.09,1.199,6.244,2.206,9.424,2.943c0.795,0.172,1.592,0.357,2.389,0.485
				c0.797,0.152,1.594,0.254,2.391,0.363c0.794,0.078,1.591,0.171,2.38,0.196c0.793,0.055,1.574,0.038,2.354,0.026l1.16-0.064
				l1.139-0.132c0.747-0.12,1.499-0.234,2.205-0.444c0.36-0.091,0.719-0.184,1.055-0.321c0.337-0.133,0.701-0.223,1.015-0.394
				c0.32-0.161,0.661-0.291,0.969-0.47l0.917-0.547l1.702-1.015l1.306,1.274c0.376,0.366,0.904,0.842,1.404,1.245
				c0.504,0.423,1.04,0.819,1.575,1.216c0.539,0.392,1.101,0.757,1.654,1.132c0.574,0.343,1.14,0.704,1.722,1.037l1.775,0.946
				l1.826,0.842c0.617,0.26,1.249,0.484,1.873,0.73c0.619,0.265,1.273,0.413,1.909,0.623c0.638,0.208,1.28,0.4,1.938,0.526
				c0.654,0.138,1.305,0.312,1.964,0.425l1.992,0.274c0.663,0.122,1.336,0.107,2.006,0.151c0.67,0.013,1.343,0.107,2.014,0.057
				l2.018-0.093c0.676,0,1.341-0.128,2.011-0.22l2.01-0.286l0.205-0.029l0.161-0.01l0.974-0.059
				c0.327,0.015,0.653-0.119,0.981-0.169l0.495-0.098l0.489-0.17c0.323-0.127,0.661-0.198,0.978-0.366l0.964-0.461
				c0.315-0.175,0.623-0.372,0.937-0.556c0.319-0.174,0.614-0.402,0.916-0.615c0.301-0.215,0.609-0.422,0.893-0.669
				c0.59-0.461,1.153-0.965,1.708-1.482c0.544-0.53,1.087-1.067,1.598-1.639c0.519-0.563,1.016-1.151,1.495-1.751
				c0.475-0.593,0.953-1.232,1.356-1.823l0.631-0.926l0.952,0.431c0.489,0.221,1.056,0.458,1.607,0.661
				c0.552,0.216,1.121,0.402,1.685,0.598c1.138,0.368,2.29,0.703,3.456,0.994c1.166,0.295,2.345,0.53,3.529,0.756l1.787,0.276
				c0.595,0.101,1.197,0.14,1.797,0.213c0.6,0.074,1.201,0.128,1.804,0.154c0.603,0.032,1.206,0.083,1.81,0.099l1.814,0.014
				c0.606,0.021,1.209-0.03,1.815-0.052c0.604-0.033,1.214-0.03,1.817-0.091l1.812-0.182c1.212-0.109,2.401-0.372,3.609-0.551
				l0.129,0.534c-1.199,0.277-2.388,0.639-3.607,0.848l-1.828,0.331c-0.61,0.112-1.228,0.158-1.844,0.24
				c-0.617,0.067-1.233,0.154-1.853,0.174l-1.861,0.103c-0.621,0.023-1.242,0.01-1.865,0.017c-0.623,0.012-1.245-0.005-1.866-0.041
				c-0.621-0.036-1.246-0.038-1.866-0.103l-1.863-0.168c-1.237-0.155-2.475-0.322-3.705-0.551c-1.23-0.225-2.453-0.497-3.67-0.808
				c-0.606-0.168-1.214-0.326-1.818-0.518c-0.612-0.184-1.192-0.38-1.836-0.625l1.583-0.495c-0.451,0.756-0.904,1.413-1.39,2.092
				c-0.482,0.671-0.983,1.329-1.514,1.966c-0.521,0.644-1.081,1.26-1.65,1.871c-0.582,0.601-1.179,1.191-1.819,1.747
				c-0.306,0.291-0.646,0.55-0.981,0.815c-0.337,0.263-0.663,0.538-1.032,0.77c-0.361,0.239-0.715,0.489-1.086,0.718l-1.164,0.632
				c-0.382,0.22-0.823,0.357-1.234,0.537l-0.631,0.25l-0.669,0.178c-0.453,0.097-0.884,0.268-1.361,0.29l-1.409,0.136l0.366-0.039
				l-2.198,0.409c-0.734,0.131-1.465,0.297-2.213,0.333l-2.237,0.194c-0.746,0.081-1.497,0.017-2.247,0.03
				c-0.75-0.017-1.504,0.022-2.249-0.078l-2.244-0.217c-0.745-0.097-1.48-0.257-2.221-0.384c-0.745-0.115-1.474-0.299-2.198-0.5
				c-0.723-0.203-1.463-0.361-2.165-0.629c-0.708-0.251-1.424-0.483-2.125-0.754l-2.075-0.88l-2.021-0.997
				c-0.664-0.352-1.311-0.735-1.967-1.103c-0.637-0.401-1.28-0.793-1.904-1.218c-0.621-0.43-1.242-0.861-1.843-1.333
				c-0.619-0.474-1.17-0.926-1.829-1.534l3.008,0.259l-1.26,0.811c-0.425,0.261-0.876,0.463-1.316,0.694
				c-0.438,0.242-0.903,0.388-1.357,0.579c-0.454,0.194-0.918,0.335-1.383,0.47c-0.927,0.301-1.867,0.482-2.804,0.646l-1.406,0.193
				l-1.4,0.108c-0.928,0.038-1.86,0.073-2.775,0.031c-0.923-0.012-1.828-0.095-2.738-0.167c-0.901-0.102-1.803-0.201-2.69-0.349
				c-0.895-0.126-1.771-0.308-2.65-0.479c-3.503-0.734-6.905-1.744-10.219-2.949c-1.66-0.597-3.295-1.251-4.909-1.957
				c-0.808-0.351-1.611-0.714-2.411-1.09c-0.809-0.381-1.575-0.752-2.424-1.196l2.46,0.082c-0.254,0.172-0.574,0.282-0.791,0.468
				c-0.112,0.09-0.226,0.175-0.344,0.257c-0.108,0.09-0.185,0.2-0.284,0.293c-0.105,0.088-0.189,0.193-0.256,0.31
				c-0.068,0.116-0.172,0.204-0.226,0.334c-0.059,0.125-0.122,0.247-0.191,0.367l-0.147,0.41c-0.064,0.128-0.074,0.296-0.117,0.44
				c-0.045,0.145-0.066,0.306-0.084,0.47c-0.054,0.317-0.065,0.664-0.063,1.013c0.002,0.349,0.027,0.711,0.079,1.068
				c0.02,0.181,0.056,0.354,0.087,0.53l0.097,0.414l1.386,5.897l-5.312-2.539c-0.746-0.357-1.56-0.727-2.349-1.078l-2.402-1.037
				c-1.608-0.674-3.228-1.317-4.855-1.914c-1.629-0.588-3.253-1.17-4.885-1.657c-1.628-0.49-3.262-0.91-4.849-1.183
				c-0.791-0.133-1.573-0.231-2.297-0.255c-0.738-0.047-1.402,0.021-1.887,0.129c-0.109,0.032-0.256,0.046-0.312,0.09
				c-0.038,0.018-0.077,0.033-0.118,0.046l-0.062,0.018c0.012-0.001,0.027-0.006,0.039-0.013c0.025-0.014,0.046-0.038,0.058-0.069
				c0.006-0.015,0.01-0.033,0.012-0.051l-0.116,0.113l-0.238,0.235l-0.06,0.059l-0.03,0.029l-0.015,0.015
				c-0.047,0.052,0.379-0.425,0.197-0.221l-0.003,0.005l-0.051,0.074c-0.299,0.404-0.407,0.683-0.408,0.887
				c-0.02,0.203,0.057,0.528,0.323,0.977c0.281,0.442,0.708,0.943,1.243,1.413c0.53,0.473,1.142,0.929,1.793,1.355
				c0.631,0.414,1.389,0.843,1.986,1.132l-2.042,4.948c-1.769-0.673-3.545-1.306-5.324-1.824c-0.889-0.245-1.776-0.477-2.657-0.662
				c-0.879-0.18-1.752-0.322-2.595-0.395c-0.418-0.029-0.838-0.063-1.229-0.051c-0.406-0.012-0.775,0.031-1.132,0.07
				c-0.352,0.047-0.673,0.12-0.946,0.211c-0.262,0.098-0.504,0.195-0.652,0.318c-0.326,0.227-0.472,0.461-0.605,0.927
				c-0.052,0.235-0.078,0.518-0.067,0.824c0.005,0.153,0.02,0.31,0.041,0.466c0.016,0.132,0.068,0.362,0.068,0.362l-1.547,3.061
				l-4.275,1.283c-1.432,0.403-2.834,0.908-4.289,1.227l-4.336,1.058c-1.438,0.38-2.9,0.66-4.363,0.93l-4.383,0.835l-4.42,0.622
				l-2.21,0.306l-2.222,0.207c-1.482,0.128-2.96,0.303-4.445,0.391l-4.458,0.216c-1.486,0.074-2.976,0.034-4.463,0.057
				c-1.488,0.033-2.976-0.038-4.463-0.092l-2.231-0.085l-2.228-0.168l-2.227-0.172l-2.222-0.251
				c-1.483-0.146-2.958-0.383-4.435-0.603c-1.475-0.242-2.947-0.498-4.415-0.82c-1.482-0.312-2.901-0.651-4.446-1.111l1.659-0.248
				l-2.008,1.167l-2.056,0.902c-1.382,0.502-2.768,0.976-4.162,1.313c-0.695,0.197-1.392,0.364-2.09,0.498
				c-0.698,0.14-1.394,0.308-2.092,0.425c-1.396,0.236-2.791,0.478-4.186,0.644c-2.79,0.377-5.578,0.621-8.362,0.815
				c-2.785,0.202-5.563,0.315-8.337,0.426l-8.289,0.267c-1.4,0.043-2.715,0.11-4.06,0.222c-1.34,0.117-2.68,0.281-4.018,0.479
				c-2.675,0.403-5.339,0.957-7.976,1.622c-1.32,0.327-2.631,0.697-3.935,1.083c-1.297,0.386-2.613,0.811-3.85,1.257l-0.483,0.174
				l-0.46-0.145c-4-1.261-8.059-2.436-12.115-3.551c-4.06-1.106-8.142-2.138-12.242-2.955c-2.048-0.4-4.109-0.762-6.142-0.942
				c-1.016-0.101-2.028-0.13-2.963-0.062c-0.222,0.029-0.477,0.03-0.663,0.088c-0.202,0.039-0.439,0.098-0.453,0.109
				c-0.018,0.002-0.039,0.002-0.061-0.001l-0.036-0.005l-0.076,0.059l-0.311,0.246c-0.122,0.12,0.154-0.154,0.125-0.124
				l-0.004,0.006l-0.008,0.012l-0.017,0.024l-0.034,0.047l-0.072,0.091c-0.043,0.06-0.053,0.113-0.091,0.166
				c-0.086,0.198-0.078,0.343,0.053,0.638c0.135,0.282,0.406,0.611,0.734,0.913c0.672,0.608,1.523,1.145,2.406,1.624
				c1.776,0.95,3.732,1.737,5.664,2.376l6.247,2.066l-6.552-0.138c-6.942-0.146-13.922-0.16-20.843,0.238
				c-1.728,0.108-3.455,0.247-5.155,0.472c-0.852,0.109-1.692,0.253-2.512,0.43c-0.4,0.102-0.811,0.196-1.179,0.333
				c-0.384,0.106-0.732,0.344-0.851,0.366c-0.064,0.066-0.136,0.164-0.204,0.245l-0.026,0.032l-0.006,0.008
				c0.028-0.045-0.071,0.113,0.061-0.1l-0.005,0.012l-0.019,0.049l-0.041,0.096c-0.044,0.125-0.055,0.228-0.043,0.322
				c0.024,0.179,0.177,0.413,0.456,0.626c0.562,0.425,1.364,0.72,2.156,0.95c1.608,0.452,3.336,0.696,5.023,0.833l5.808,0.472
				l-5.764,0.701L-34.23,272.7L-34.302,272.156z"/>
		</g>
		<g>
			<path class="st5" d="M206.722,246.216c0.521-0.139,1.277-0.085,1.82-0.065c0.592,0.023,1.169,0.072,1.753,0.11l3.468,0.27
				c1.152,0.084,2.303,0.148,3.451,0.198c1.148,0.035,2.294,0.073,3.434,0.055c0.571,0.002,1.14-0.006,1.707-0.037
				c0.566-0.029,1.135-0.033,1.697-0.083l1.683-0.128l1.661-0.209c0.556-0.055,1.093-0.181,1.634-0.281
				c0.542-0.1,1.081-0.203,1.597-0.363c0.517-0.155,1.055-0.26,1.549-0.451l1.489-0.54l-0.293,3.453
				c-0.261-0.155-0.337-0.216-0.476-0.32c-0.128-0.094-0.237-0.191-0.346-0.289c-0.216-0.199-0.416-0.405-0.591-0.631
				c-0.183-0.221-0.341-0.457-0.483-0.703c-0.156-0.24-0.254-0.502-0.375-0.758c-0.209-0.521-0.34-1.055-0.413-1.587
				c-0.037-0.265-0.039-0.521-0.054-0.784c-0.022-0.267,0.011-0.507,0.024-0.759c0.019-0.513,0.131-0.964,0.219-1.44
				c0.115-0.45,0.25-0.89,0.394-1.32c0.164-0.407,0.32-0.83,0.502-1.224l0.577-1.149l0.882-1.759l2.156,0.903
				c0.542,0.227,1.163,0.473,1.757,0.699c0.604,0.226,1.21,0.447,1.823,0.656c1.222,0.42,2.454,0.816,3.681,1.209l3.662,1.208
				c0.612,0.19,1.208,0.439,1.822,0.62c0.612,0.188,1.216,0.407,1.824,0.613c0.612,0.183,1.221,0.382,1.832,0.582
				c0.611,0.209,1.226,0.365,1.841,0.556c0.617,0.179,1.23,0.389,1.852,0.534l1.867,0.525c0.626,0.137,1.256,0.278,1.889,0.449
				c0.634,0.189,1.27,0.259,1.913,0.41c0.643,0.141,1.295,0.288,1.949,0.382c0.655,0.104,1.321,0.218,2.001,0.362l0.063,0.545
				c-0.648,0.239-1.312,0.447-1.986,0.644c-0.674,0.235-1.356,0.313-2.045,0.452c-0.688,0.125-1.387,0.243-2.08,0.288
				c-0.696,0.068-1.394,0.106-2.097,0.14c-1.388,0.001-2.804,0.022-4.182-0.138c-0.691-0.073-1.396-0.108-2.077-0.232
				c-0.686-0.104-1.374-0.21-2.059-0.332c-1.358-0.272-2.713-0.58-4.036-0.974c-1.331-0.379-2.625-0.858-3.902-1.376
				c-1.273-0.53-2.52-1.114-3.748-1.741c-0.616-0.306-1.227-0.629-1.836-0.952c-0.617-0.329-1.202-0.65-1.85-1.023l3.038-0.856
				l-0.511,0.808c-0.159,0.27-0.284,0.54-0.433,0.81c-0.118,0.267-0.224,0.536-0.324,0.8c-0.063,0.255-0.169,0.523-0.189,0.758
				c-0.016,0.119-0.057,0.249-0.05,0.356c0,0.11-0.019,0.229-0.014,0.335c0.01,0.211,0.035,0.408,0.083,0.59
				c0.038,0.081,0.046,0.183,0.093,0.258c0.035,0.083,0.074,0.164,0.123,0.237c0.042,0.077,0.099,0.146,0.149,0.207
				c0.026,0.03,0.052,0.063,0.073,0.082c0.004,0.015,0.081,0.064-0.023,0.008l-0.293,3.453l-1.831,0.493
				c-0.608,0.171-1.226,0.223-1.836,0.337c-0.611,0.117-1.221,0.169-1.83,0.217c-0.609,0.048-1.216,0.12-1.82,0.118l-1.808,0.035
				l-1.794-0.053c-0.598-0.014-1.188-0.087-1.781-0.128c-0.593-0.041-1.182-0.105-1.768-0.179c-1.176-0.126-2.339-0.308-3.5-0.487
				c-1.158-0.194-2.31-0.401-3.456-0.628c-1.145-0.231-2.286-0.457-3.419-0.712c-0.565-0.119-1.133-0.25-1.694-0.353
				c-0.286-0.057-0.566-0.11-0.812-0.142c-0.13-0.017-0.256-0.046-0.394-0.057l-0.437,0.014L206.722,246.216z"/>
		</g>
		<g>
			<path class="st5" d="M261.358,253.779c0,0,1.719-0.262,4.247-0.77c0.631-0.135,1.313-0.258,2.028-0.433
				c0.715-0.166,1.468-0.322,2.238-0.523c0.774-0.178,1.559-0.417,2.36-0.611c0.801-0.198,1.596-0.459,2.396-0.685
				c0.788-0.262,1.564-0.567,2.309-0.893c0.731-0.36,1.464-0.656,2.169-0.904c0.699-0.257,1.426-0.377,2.099-0.514
				c0.667-0.15,1.339-0.227,1.956-0.308c0.604-0.103,1.188-0.164,1.733-0.192c0.279-0.004,0.523-0.037,0.752-0.067
				c0.241-0.016,0.462-0.031,0.662-0.045c0.817-0.046,1.367-0.007,1.367-0.007l0.311,0.452c0,0-0.183,0.49-0.649,1.233
				c-0.234,0.365-0.526,0.834-0.926,1.262c-0.395,0.438-0.871,0.904-1.422,1.375c-0.554,0.457-1.197,0.865-1.896,1.281
				c-0.695,0.426-1.475,0.723-2.3,0.994c-0.829,0.253-1.723,0.333-2.622,0.431c-0.903,0.065-1.811,0.12-2.706,0.212
				c-0.898,0.057-1.79,0.146-2.668,0.171c-0.877,0.039-1.741,0.047-2.574,0.021c-1.664-0.01-3.21-0.147-4.526-0.266
				c-2.631-0.273-4.356-0.666-4.356-0.666L261.358,253.779z"/>
		</g>
		<g>
			<path class="st7" d="M364.55,169.691c0,0,0.45-0.357,1.265-0.899c0.401-0.278,0.91-0.588,1.533-0.902
				c0.616-0.333,1.33-0.672,2.12-0.973c0.788-0.333,1.666-0.613,2.609-0.876c0.94-0.282,1.957-0.456,3.012-0.646
				c1.059-0.133,2.162-0.282,3.287-0.289c1.126-0.071,2.269,0.022,3.412,0.071c1.135,0.146,2.277,0.247,3.375,0.51
				c1.109,0.195,2.169,0.536,3.191,0.844c1.007,0.368,1.98,0.712,2.858,1.15c0.885,0.421,1.702,0.846,2.421,1.309
				c0.731,0.434,1.367,0.887,1.911,1.317c0.552,0.412,1.006,0.807,1.363,1.156c0.723,0.681,1.096,1.106,1.096,1.106
				s-0.573-0.105-1.508-0.351c-0.46-0.137-1.038-0.255-1.682-0.408c-0.639-0.164-1.354-0.344-2.139-0.504
				c-0.771-0.196-1.616-0.358-2.497-0.538c-0.873-0.204-1.817-0.326-2.763-0.519c-0.964-0.134-1.943-0.313-2.951-0.427
				c-1.001-0.148-2.025-0.226-3.045-0.339c-1.024-0.064-2.046-0.164-3.058-0.19c-1.012-0.065-2.008-0.05-2.981-0.086
				c-0.966,0.029-1.917-0.013-2.812,0.039c-0.9,0.027-1.76,0.043-2.553,0.104c-0.806,0.026-1.531,0.078-2.182,0.129
				c-0.652,0.039-1.248,0.058-1.735,0.119C365.124,169.687,364.55,169.691,364.55,169.691z"/>
		</g>
		<g>
			<path class="st7" d="M395.449,151.714c0,0,0.481-0.009,1.289,0.058c0.403,0.027,0.894,0.083,1.458,0.201
				c0.57,0.103,1.205,0.253,1.869,0.465c0.678,0.193,1.386,0.465,2.126,0.784c0.747,0.307,1.489,0.717,2.26,1.144
				c0.747,0.46,1.527,0.938,2.249,1.515c0.755,0.538,1.436,1.188,2.139,1.812c0.648,0.681,1.323,1.337,1.887,2.073
				c0.605,0.699,1.104,1.466,1.593,2.194c0.453,0.756,0.888,1.483,1.222,2.219c0.344,0.729,0.64,1.428,0.856,2.098
				c0.236,0.659,0.403,1.282,0.522,1.842c0.133,0.553,0.209,1.047,0.253,1.458c0.098,0.818,0.102,1.292,0.102,1.292
				s-0.355-0.336-0.885-0.935c-0.522-0.58-1.268-1.41-2.164-2.405c-0.423-0.495-0.904-1.007-1.398-1.55
				c-0.477-0.554-1.031-1.094-1.55-1.684c-0.546-0.564-1.11-1.147-1.683-1.739c-0.567-0.593-1.171-1.166-1.758-1.754
				c-0.608-0.567-1.199-1.153-1.812-1.699c-0.611-0.553-1.213-1.098-1.795-1.625c-0.607-0.498-1.166-1.035-1.736-1.492
				c-0.56-0.474-1.089-0.938-1.598-1.344c-0.499-0.433-0.961-0.81-1.377-1.15c-0.411-0.346-0.776-0.679-1.099-0.925
				C395.79,152.053,395.449,151.714,395.449,151.714z"/>
		</g>
	</g>
	<rect x="-9.832" y="-50.903" class="st20" width="519.664" height="519.664"/>
</g>
</svg>
