<?xml version="1.0" encoding="utf-8"?>
<!-- Generator: Adobe Illustrator 18.1.1, SVG Export Plug-In . SVG Version: 6.00 Build 0)  -->
<svg version="1.1" id="Layer_1" xmlns="http://www.w3.org/2000/svg" xmlns:xlink="http://www.w3.org/1999/xlink" x="0px" y="0px"
	 width="500px" height="500px" viewBox="0 0 500 500" enable-background="new 0 0 500 500" xml:space="preserve">
<symbol  id="New_Symbol_12" viewBox="-41.5 -111.7 83 223.4">
	<path fill="#231F20" d="M16.5-53.5c3.5-2.6,5.6-5.6,4.7-6.8c-0.9-1.1-4.4,0-7.8,2.6c-3.5,2.6-5.6,5.6-4.7,6.8
		C9.5-49.8,13-50.9,16.5-53.5z"/>
	<path fill="#231F20" d="M14.6-12.8c2.8-3.3,4.2-6.7,3.1-7.6c-1.1-0.9-4.2,1-7,4.3S6.4-9.5,7.5-8.6S11.8-9.6,14.6-12.8z"/>
	<path fill="#231F20" d="M-14.2,64.9c2.4-3.6,3.3-7.2,2.1-8c-1.2-0.8-4.1,1.5-6.5,5.1s-3.3,7.2-2.1,8
		C-19.5,70.8-16.6,68.6-14.2,64.9z"/>
	<path fill="#231F20" d="M-23,106.4c2.4-3.6,3.3-7.2,2.1-8c-1.2-0.8-4.1,1.5-6.5,5.1c-2.4,3.6-3.3,7.2-2.1,8
		C-28.3,112.3-25.4,110.1-23,106.4z"/>
	<path fill="#231F20" d="M-34.5,60.6c2.4-3.6,3.3-7.2,2.1-8c-1.2-0.8-4.1,1.5-6.5,5.1c-2.4,3.6-3.3,7.2-2.1,8
		C-39.8,66.5-36.9,64.2-34.5,60.6z"/>
	<path fill="#231F20" d="M-10.2,20.7c3.1-3,4.8-6.3,3.8-7.3c-1-1-4.3,0.6-7.4,3.6c-3.1,3-4.8,6.3-3.8,7.3
		C-16.6,25.4-13.3,23.8-10.2,20.7z"/>
	<path fill="#231F20" d="M1.2,67c3.7-4.5,6.1-8.7,5.3-9.3c-0.8-0.6-4.4,2.5-8.1,7c-3.7,4.5-6.1,8.7-5.3,9.3
		C-6.1,74.7-2.5,71.5,1.2,67z"/>
	<path fill="#231F20" d="M-32.8,41.2c3.1-3,4.8-6.3,3.8-7.3c-1-1-4.3,0.6-7.4,3.6c-3.1,3-4.8,6.3-3.8,7.3
		C-39.2,45.9-35.8,44.3-32.8,41.2z"/>
	<path fill="#231F20" d="M34.9-19c2.8-3.3,4.2-6.7,3.1-7.6c-1.1-0.9-4.2,1-7,4.3c-2.8,3.3-4.2,6.7-3.1,7.6
		C28.9-13.8,32.1-15.8,34.9-19z"/>
	<path fill="#231F20" d="M7.3,22.6c3.7-4.3,5.9-8.5,5-9.3c-0.9-0.8-4.7,2.1-8.3,6.4C0.2,24-2,28.2-1.1,29
		C-0.1,29.8,3.6,26.9,7.3,22.6z"/>
	<path fill="#231F20" d="M-10.4-20.7c3.5-2.6,5.6-5.6,4.7-6.8c-0.9-1.1-4.4,0-7.8,2.6s-5.6,5.6-4.7,6.8
		C-17.4-16.9-13.9-18.1-10.4-20.7z"/>
	<path fill="#231F20" d="M39.5-54.4c2-3.8,2.6-7.5,1.3-8.1c-1.3-0.7-3.9,1.9-5.9,5.7c-2,3.8-2.6,7.5-1.3,8.1S37.5-50.6,39.5-54.4z"
		/>
	<path fill="#231F20" d="M34.4-85.9c2.6-5,3.4-9.9,1.6-10.8c-1.8-0.9-5.3,2.4-8,7.4c-2.6,5-3.4,9.9-1.6,10.8
		C28.2-77.5,31.8-80.9,34.4-85.9z"/>
	<path fill="#231F20" d="M16-100.7c1.7-5.4,1.5-10.3-0.5-10.9c-1.9-0.6-4.8,3.4-6.4,8.8S7.7-92.5,9.6-91.9
		C11.5-91.4,14.4-95.3,16-100.7z"/>
</symbol>
<symbol  id="New_Symbol_24" viewBox="-7.2 -7.2 14.4 14.4">
	<path fill="#FBDE60" stroke="#B09430" stroke-width="1.8" stroke-miterlimit="10" d="M6.3,0c0-3.5-2.8-6.3-6.3-6.3S-6.3-3.5-6.3,0
		S-3.5,6.3,0,6.3S6.3,3.5,6.3,0z"/>
</symbol>
<symbol  id="New_Symbol_6" viewBox="-18 -25.8 36 51.6">
	
		<path fill="#F0CBA1" stroke="#C2986B" stroke-width="1.3805" stroke-linecap="round" stroke-linejoin="round" stroke-miterlimit="10" d="
		M1.8-17.9c-5.6-4-12.2-6.6-19.1-7.2c5.2,14.2,8,29.3,8.3,44.4c4.2,3,8.8,6.1,13.9,5.8c5.4-0.4,9.9-4.8,11.6-9.9s0.8-10.8-1.2-15.8
		C12.6-7.6,7.8-13.6,1.8-17.9z"/>
</symbol>
<symbol  id="New_Symbol_7" viewBox="-34.3 -53.5 71.2 106.9">
	
		<path fill="#F79838" stroke="#CC6632" stroke-width="1.4244" stroke-linecap="round" stroke-linejoin="round" stroke-miterlimit="10" d="
		M-12.4,29c0.1-3.4,1.3-6.9,3.1-9.7c-2.2-8.7-8.6-15.9-14.2-23.2c-5.9-7.6-11.3-16.8-9.9-26.2c1-6.2,4.9-11.6,9.9-15.4
		c5.1-3.7,11.3-5.8,17.5-6.7c13.6-2.1,27.8,1,39.5,8.2c-4.4,14.6-8.3,29.2-10.4,44.3c-2.4,17.4-2.3,35.5,2.3,52.4
		c-6.8-3.3-13.9-5.9-21.2-7.6c-4.3-1-8.9-1.9-12.3-4.8C-11.3,37.5-12.6,33.3-12.4,29z"/>
	
		<path fill="#F79838" stroke="#CC6632" stroke-width="1.4244" stroke-linecap="round" stroke-linejoin="round" stroke-miterlimit="10" d="
		M-7.2-31.9c0.3,1.1,0.8,2.1,1.4,3.1c2,3.5,11.2,9.8,14.7,12.1c8.6-7.7,17.8-14.7,27.4-21.1c-5.4-4.1-17.9-10.2-24.7-11
		c-3.5-0.4-7-0.3-10.3,0.8c-3.3,1.1-6.3,3.3-7.9,6.4C-8.3-38.7-8.3-35.2-7.2-31.9z"/>
	
		<path fill="#F79838" stroke="#CC6632" stroke-width="1.4244" stroke-linecap="round" stroke-linejoin="round" stroke-miterlimit="10" d="
		M-0.3-31.2c0.2,0.7,0.5,1.4,0.9,2.1c1.4,2.4,9.5,7.8,11.8,9.3c5.8-5.2,12-9.9,18.5-14.2c-3.6-2.8-14-8-18.6-8.6
		c-2.3-0.3-4.7-0.2-7,0.5c-2.2,0.7-4.3,2.2-5.3,4.3C-1-35.8-1-33.4-0.3-31.2z"/>
	
		<path fill="#F79838" stroke="#CC6632" stroke-width="1.4244" stroke-linecap="round" stroke-linejoin="round" stroke-miterlimit="10" d="
		M4.2-31.5c0.2,0.5,0.4,1,0.7,1.5c1,1.7,8.6,6.6,10.2,7.7c4.2-3.7,8.7-7.2,13.4-10.3c-2.6-2-11.8-6.8-15.1-7.2
		c-1.7-0.2-3.4-0.2-5.1,0.4c-1.6,0.5-3.1,1.6-3.9,3.1C3.7-34.8,3.7-33,4.2-31.5z"/>
	<g>
		<path fill="#F79838" d="M-28.3-35.7c-2.1,5.7-0.9,12.1,1.8,17.5c2.7,5.4,6.7,10,10.6,14.6c3.9,4.6,7.8,9.4,9.9,15.1"/>
		<path fill="#CC6632" d="M-28.3-35.7c0,0-0.1,0.2-0.2,0.6c-0.1,0.4-0.3,0.9-0.5,1.7c-0.3,1.5-0.6,3.6-0.4,6.2
			c0.2,2.6,0.9,5.5,2.2,8.5c0.7,1.5,1.4,2.9,2.3,4.4C-24-13-23-11.6-22-10.2c2,2.8,4.2,5.4,6.2,7.8c1,1.2,2,2.4,2.9,3.5
			c0.9,1.1,1.7,2.2,2.5,3.2c0.7,1,1.4,2,2,2.8c0.6,0.9,1,1.6,1.4,2.3c0.4,0.6,0.6,1.2,0.8,1.5c0.2,0.4,0.3,0.5,0.3,0.5
			c0,0,0.1,0.1,0.1,0c0,0,0-0.1,0-0.1c0,0-0.1-0.2-0.2-0.6c-0.1-0.4-0.3-0.9-0.6-1.6c-0.3-0.7-0.6-1.5-1.1-2.5c-0.5-0.9-1-2-1.7-3.1
			c-0.7-1.1-1.5-2.2-2.4-3.4c-0.9-1.2-1.9-2.4-2.9-3.6c-2.1-2.4-4.4-4.9-6.5-7.6c-1-1.3-2-2.7-2.9-4.1c-0.9-1.4-1.7-2.8-2.4-4.2
			c-1.4-2.8-2.2-5.7-2.5-8.2c-0.3-2.5-0.1-4.6,0.2-6.1c0.2-0.7,0.3-1.3,0.4-1.7c0.1-0.4,0.2-0.6,0.2-0.6
			C-28.2-35.7-28.2-35.7-28.3-35.7C-28.3-35.7-28.3-35.7-28.3-35.7z"/>
	</g>
	<g>
		<path fill="#F79838" d="M-15-16.7c3,6.1,7.3,11.6,12.6,15.9"/>
		<path fill="#CC6632" d="M-15-16.7c0,0,0.1,0.3,0.4,0.8c0.2,0.5,0.6,1.2,1,2.1c0.8,1.7,2.2,3.9,3.7,6c0.8,1,1.5,2.1,2.4,3
			c0.4,0.4,0.8,0.9,1.3,1.2c0.4,0.4,0.8,0.7,1.2,1c0.8,0.6,1.5,1,2,1.3c0.5,0.3,0.8,0.4,0.8,0.4c0,0,0.1,0,0.1,0c0,0,0-0.1,0-0.1
			c0,0-0.2-0.3-0.6-0.7c-0.4-0.4-0.9-1-1.5-1.8C-5-4.1-5.7-4.9-6.5-5.8c-0.8-0.8-1.7-1.7-2.5-2.7c-1.7-1.9-3.1-4-4.2-5.6
			c-0.5-0.8-0.9-1.5-1.2-2c-0.3-0.5-0.4-0.8-0.4-0.8C-14.9-16.8-15-16.8-15-16.7C-15-16.7-15-16.7-15-16.7z"/>
	</g>
</symbol>
<g>
	<defs>
		<rect id="SVGID_1_" width="500" height="500"/>
	</defs>
	<clipPath id="SVGID_2_">
		<use xlink:href="#SVGID_1_"  overflow="visible"/>
	</clipPath>
	<g clip-path="url(#SVGID_2_)">
		
			<rect x="-117.8" y="-134" transform="matrix(1 -3.190121e-03 3.190121e-03 1 -0.7296 0.7836)" fill="#8ADDD7" width="726.2" height="726.2"/>
		<g>
			<path fill="#B6B4D9" stroke="#8E8EC0" stroke-width="2.3728" stroke-miterlimit="10" d="M224.4,341.7L254,557.3
				c-45.2,14.1-79.5,22.3-106.5,25.4c0,0-22.6-3.3-35-22.6c-15.2,14.6-24.3,18.5-24.3,18.5c-15.5-5.3-27.8-14.5-39.7-26.8L118,332.1
				L224.4,341.7z"/>
			<g>
				
					<use xlink:href="#New_Symbol_24"  width="14.4" height="14.4" x="-7.2" y="-7.2" transform="matrix(1.3556 2.853421e-02 2.853421e-02 -1.3556 134.7686 501.0355)" overflow="visible"/>
				
					<use xlink:href="#New_Symbol_24"  width="14.4" height="14.4" x="-7.2" y="-7.2" transform="matrix(1.3556 2.853421e-02 2.853421e-02 -1.3556 148.0116 451.7197)" overflow="visible"/>
				
					<use xlink:href="#New_Symbol_24"  width="14.4" height="14.4" x="-7.2" y="-7.2" transform="matrix(1.3556 2.853421e-02 2.853421e-02 -1.3556 155.5786 402.2844)" overflow="visible"/>
			</g>
			<path fill="none" stroke="#8E8EC0" stroke-width="2.3728" stroke-miterlimit="10" d="M152.3,354.8
				c-10.6,36.1-19.6,106.5-19.6,106.5c-17.6,43.7-20.3,98.8-20.3,98.8"/>
			<path fill="none" stroke="#8E8EC0" stroke-width="2.3728" stroke-miterlimit="10" d="M127.9,354.9
				c-10.6,36.1-19.6,106.5-19.6,106.5c-12.8,31.8-17.7,69.5-19.4,87.8c-18.3-1.9-32.6-22.3-32.6-22.3"/>
			<path fill="none" stroke="#8E8EC0" stroke-width="2.3728" stroke-miterlimit="10" d="M180.4,358.2
				c-9.8,36.3-17.4,106.9-17.4,106.9c-11,29.1-15.4,63-17.1,82.7c0.3,0.2,0.5,0.3,0.5,0.3s5.4,7.9,12.4,8.2c0,0,50.2-6.3,97.8-28"/>
		</g>
		<g>
			<path fill="#BE1E2D" d="M-20,645.4c1-24.1,5.5-48.2,13.4-71c-5.6-27.7-12.2-55.2-19.9-82.4c-12.9-7.4-25-16-36.2-25.8
				c21.1-14,43.2-26.3,66.1-36.9c3.7-5.2,7.4-10.5,10.8-15.9c0.3-14.6,6.2-28.8,14.8-40.8c9.4-13.1,74.8-63.5,96.2-76.3
				c1.3,25.5,2.9,51.4-2,76.5c-9.7,49.8-43.6,90.9-65.2,136.8C34.6,559.2,7.8,551.5,14.3,606C-2.9,606-2.8,645.3-20,645.4
				C-20.5,637.1-20.3,653.6-20,645.4z"/>
			<g>
				<path fill="#EC1C24" d="M-18.8,645.4c0.6-13.4,2.2-26.7,4.9-39.8c1.3-6.5,2.9-12.9,4.8-19.2c0.9-3.2,1.9-6.3,3-9.4
					c0.4-1.2,0.8-2.1,0.7-3.3c-0.2-1.8-0.7-3.5-1.1-5.3c-2.8-13.4-5.8-26.7-9-39.9c-1.7-6.8-3.4-13.6-5.2-20.3
					c-0.8-3.1-1.7-6.3-2.5-9.4c-0.4-1.6-0.9-3.1-1.3-4.7c-0.4-1.4-0.4-2.5-1.6-3.3c-2.8-2-6-3.5-8.9-5.4c-3.1-2-6.1-4-9-6.1
					c-6.1-4.3-12-9-17.6-13.9c-0.1,0.6-0.2,1.2-0.2,1.9c20.3-13.4,41.5-25.4,63.6-35.7c1-0.5,2.2-0.8,3-1.6c1-0.9,1.7-2.4,2.5-3.5
					c1.9-2.8,3.8-5.5,5.7-8.3c0.8-1.2,1.7-2.4,2.4-3.6c0.5-0.9,0.4-1.6,0.5-2.7c0.1-3,0.6-6.1,1.2-9c2.2-10.6,7-21.1,13.6-29.8
					c2.5-3.3,5.7-6.1,8.7-9c4.7-4.4,9.6-8.5,14.5-12.7c12.2-10.2,24.7-19.9,37.4-29.5c11.3-8.5,22.8-17.2,34.9-24.5
					c-0.6-0.3-1.2-0.7-1.8-1c1.4,27.6,3.1,55.6-3.4,82.7c-5.7,23.7-16.7,45.6-28.7,66.7c-12,21.3-24.8,42-35.4,64.1
					c-4.6,9.6-10.1,18.6-16.8,26.9c-4.7,5.9-10,11.4-14.8,17.3c-4.8,5.8-8.7,12.2-10.7,19.4c-3,10.5-2.4,21.8-1.1,32.5
					c0.4-0.4,0.8-0.8,1.2-1.2c-7.1,0.1-11.4,6.3-14.4,12C-3.7,624-6,632-10.8,638.5c-2.3,3.1-5.3,5.6-9.3,5.7
					C-19.6,644.6-19.2,645-18.8,645.4c-0.1-0.8,0.2-3.3-1.1-3.5c-0.5-0.1-1.1,0-1.3,0.5c-0.6,1.4-0.6,4.6,0.1,6
					c0.2,0.5,0.9,0.6,1.3,0.5C-18.6,648.7-18.9,646.2-18.8,645.4c0.1-1.5-2.3-1.5-2.4,0c0,0.6,0,1.6-0.1,2.1
					c0.3-0.3,0.6-0.6,0.8-0.8c0,0,0,0,0,0c0.4,0.2,0.9,0.4,1.3,0.5c0.3,0.6,0.1-0.1,0.1-0.4c0-0.5,0-0.9,0-1.4c0-0.5,0-0.9,0-1.4
					c0-0.4,0.2-1.2-0.1-0.4c-0.4,0.2-0.9,0.4-1.3,0.5c-1.6-0.2-0.5-1.3-0.7-0.3c-0.1,0.4,0.1,1.1,0.1,1.5c0,0.6,0.5,1.2,1.2,1.2
					c7.2-0.1,11.4-6.3,14.4-12c3.7-7.1,5.9-15.1,10.7-21.7c2.3-3.1,5.3-5.6,9.2-5.7c0.6,0,1.3-0.5,1.2-1.2
					c-1.2-10-1.8-20.5,0.7-30.4c1.7-6.8,4.9-12.8,9.2-18.3c4.5-5.8,9.6-11,14.3-16.6c6.3-7.7,11.9-15.9,16.5-24.7
					c5.7-10.9,10.9-22,17-32.7c6-10.6,12.2-21,18.2-31.6c11.9-20.7,23.2-42.1,29.8-65.2c8.4-29.5,6.9-60,5.3-90.2c0-0.9-1-1.5-1.8-1
					c-10.6,6.4-20.7,13.9-30.6,21.3c-12.7,9.4-25.1,19.1-37.3,29.1c-9.1,7.4-18.5,14.9-26.4,23.6c-5.4,6-9.3,13.5-12.3,20.9
					c-2.1,5.2-3.6,10.6-4.4,16.2c-0.3,2.5,0,5.6-1.2,7.8c-1.6,2.9-3.7,5.7-5.6,8.4C6,423.7,5,425,4.1,426.3
					c-1.3,1.9-2.6,2.5-4.6,3.5c-3.1,1.5-6.2,3-9.3,4.5c-6.1,3-12.2,6.2-18.2,9.5c-12,6.6-23.8,13.7-35.2,21.3
					c-0.6,0.4-0.8,1.3-0.2,1.9c9.4,8.2,19.5,15.7,30.2,22.3c1.3,0.8,2.6,1.6,3.9,2.3c1.7,1,2.1,1.6,2.6,3.5c0.9,3.3,1.8,6.6,2.7,9.9
					c1.7,6.4,3.4,12.9,5,19.3c3.3,13.2,6.4,26.5,9.2,39.9c0.6,3,1.9,6.5,2,9.5c0,1.5-0.7,3-1.2,4.3c-0.5,1.6-1.1,3.3-1.6,4.9
					c-1.9,6.3-3.6,12.7-5,19.1c-3.1,14.2-4.9,28.7-5.6,43.2C-21.3,646.9-18.9,646.9-18.8,645.4z"/>
			</g>
		</g>
		<g>
			<path fill="#EC1C24" d="M37,376.9c0,0,0.3-1.4,1.3-3.5c0.2-0.6,0.5-1.2,0.8-1.8c0.3-0.6,0.7-1.4,1.1-2.1c0.4-0.7,0.9-1.5,1.3-2.3
				c0.5-0.8,1-1.6,1.6-2.5c0.5-0.9,1.2-1.7,1.8-2.7c0.7-0.9,1.3-1.9,2-2.8c1.4-1.9,3-3.8,4.7-5.8c0.8-1,1.7-2,2.6-3
				c0.9-1,1.8-1.9,2.8-2.9c1.8-2,3.8-3.9,5.8-5.8c1.9-2,4-3.7,6-5.6c2-1.9,4-3.6,6-5.2c2-1.6,3.9-3.2,5.9-4.6
				c1.9-1.4,3.7-2.7,5.4-3.9c1.7-1.2,3.3-2.2,4.7-3.1c1.4-0.9,2.7-1.7,3.7-2.3c2-1.3,3.2-1.9,3.2-1.9l0.1,0.2c0,0-1,0.9-2.9,2.4
				c-0.9,0.8-2,1.7-3.3,2.7c-1.3,1-2.8,2.2-4.4,3.5c-1.6,1.3-3.3,2.7-5.1,4.2c-1.8,1.4-3.7,3-5.7,4.7c-2,1.6-4.1,3.2-6.1,5
				c-2,1.7-4.2,3.4-6.1,5.3c-2,1.9-4,3.6-5.9,5.6c-0.9,0.9-1.9,1.9-2.8,2.8c-0.9,0.9-1.8,1.9-2.6,2.8c-1.8,1.8-3.3,3.8-4.8,5.5
				c-0.8,0.9-1.4,1.8-2.1,2.7c-0.7,0.9-1.3,1.7-1.9,2.5c-0.6,0.8-1.1,1.6-1.7,2.4c-0.5,0.8-1,1.5-1.4,2.2c-0.5,0.7-0.8,1.4-1.2,2
				c-0.4,0.6-0.7,1.2-0.9,1.7c-1.1,2.1-1.4,3.4-1.4,3.4L37,376.9z"/>
		</g>
		<g>
			<path fill="#EC1C24" d="M80.4,403c0,0-3.6,7.6-8,19.3c-1.1,2.9-2.2,6.1-3.4,9.6c-1.1,3.4-2.3,7-3.5,10.8
				c-1.1,3.7-2.2,7.7-3.3,11.6c-0.5,2-1,4-1.5,6c-0.5,2-0.9,4.1-1.4,6.1c-0.8,4.1-1.6,8.2-2.3,12.2c-0.3,2-0.6,4-0.9,6
				c-0.1,1-0.3,2-0.4,3c-0.1,1-0.2,2-0.3,2.9c-0.1,1-0.2,1.9-0.3,2.9c-0.1,1-0.2,1.9-0.3,2.8c-0.2,1.9-0.3,3.7-0.5,5.5
				c-0.1,0.9-0.1,1.8-0.2,2.6c0,0.9-0.1,1.7-0.1,2.6c-0.1,1.7-0.2,3.3-0.2,4.9c0,1.6-0.1,3.1-0.1,4.5c0,1.4,0,2.8,0,4
				c0,1.3,0.1,2.5,0.1,3.6c0,1.1,0.1,2.1,0.1,3c0.3,3.6,0.4,5.7,0.4,5.7l-0.3,0c0,0-0.4-2.1-1.1-5.7c-0.3-1.8-0.6-4-0.9-6.6
				c-0.1-1.3-0.2-2.6-0.4-4.1c-0.1-1.4-0.1-3-0.2-4.5c-0.1-1.6-0.1-3.2-0.1-4.9c0-0.9,0-1.7,0-2.6c0-0.9,0.1-1.8,0.1-2.7
				c0-0.9,0.1-1.8,0.1-2.8c0.1-0.9,0.1-1.9,0.2-2.8c0.1-1.9,0.3-3.8,0.6-5.8c0.1-1,0.3-2,0.4-3c0.2-1,0.3-2,0.5-3
				c0.3-2,0.7-4,1.1-6.1c0.8-4.1,1.7-8.2,2.6-12.3c0.5-2,1-4.1,1.5-6.1c0.6-2,1.1-4,1.7-6c1.1-4,2.3-7.9,3.6-11.6
				c1.2-3.7,2.5-7.3,3.8-10.7c1.3-3.4,2.5-6.6,3.7-9.5c4.8-11.7,8.7-19.1,8.7-19.1L80.4,403z"/>
		</g>
		<g>
			<path fill="#F0CBA1" stroke="#C2986B" stroke-width="2.0338" stroke-miterlimit="10" d="M387.8,314.2c0,0-0.1-34.4,16.3-62.9
				c15.5-27-3.3-92.7-42.1-98.3c-7.2-1-14.2,3.1-16.5,9.9c-2.2,6.5-2.3,17.1,4.6,33.9c0,0,4.5,15,1.6,26.9c0,0-9.7,3.8-11.9,10.5
				c0,0,8.3-28.1-6.1-29.9c-11.2-1.5-32.8,50.3,1,82.4L387.8,314.2z"/>
			<g>
				<path fill="#C2986B" d="M343.3,228.2c0,0,0.7-0.5,1.9-1.2c0.6-0.3,1.4-0.8,2.3-1.2c0.9-0.5,2-0.8,3.2-1.3
					c0.6-0.2,1.2-0.4,1.9-0.6c0.3-0.1,0.7-0.2,1-0.3c0.3-0.1,0.7-0.2,1-0.3c0.7-0.2,1.4-0.4,2.2-0.5c0.7-0.1,1.5-0.2,2.3-0.4
					c0.4-0.1,0.8-0.1,1.2-0.2c0.4,0,0.8-0.1,1.2-0.1c0.8-0.1,1.6-0.1,2.4-0.2c1.6,0,3.3-0.1,5,0c0.8,0.1,1.7,0.1,2.5,0.2
					c0.8,0,1.7,0.1,2.5,0.2c0.8,0.1,1.6,0.2,2.4,0.3c0.8,0.1,1.6,0.2,2.4,0.4c1.5,0.4,3,0.8,4.4,1.2c1.4,0.5,2.6,1,3.8,1.4
					c0.6,0.2,1.1,0.5,1.7,0.7c0.5,0.2,1,0.5,1.5,0.7c0.9,0.5,1.7,0.9,2.3,1.2c1.3,0.7,2,1.1,2,1.1l-0.1,0.2c0,0-0.8-0.2-2.2-0.6
					c-0.7-0.2-1.5-0.5-2.5-0.8c-0.5-0.2-1-0.3-1.5-0.5c-0.5-0.1-1.1-0.3-1.7-0.5c-1.2-0.3-2.5-0.7-3.8-1.1c-1.4-0.3-2.8-0.6-4.3-1
					c-0.7-0.2-1.5-0.4-2.3-0.5c-0.8-0.2-1.6-0.3-2.3-0.5c-0.8-0.2-1.6-0.3-2.4-0.4c-0.8-0.1-1.6-0.2-2.4-0.3
					c-1.6-0.2-3.3-0.2-4.9-0.2c-0.8,0-1.6,0.1-2.4,0.1c-0.4,0-0.8,0-1.2,0c-0.4,0-0.8,0.1-1.2,0.1c-0.8,0.1-1.5,0.2-2.2,0.3
					c-0.7,0.1-1.4,0.3-2.1,0.4c-0.3,0.1-0.7,0.1-1,0.2c-0.3,0.1-0.7,0.2-1,0.2c-0.6,0.2-1.3,0.3-1.9,0.5c-1.2,0.4-2.3,0.7-3.2,1.1
					c-0.9,0.3-1.7,0.7-2.4,1c-1.3,0.6-2,1.1-2,1.1L343.3,228.2z"/>
			</g>
			<g>
				<path fill="#C2986B" d="M339.6,234.2c0,0,0.5-0.1,1.3-0.1c0.4,0,0.9,0,1.5,0c0.6,0,1.2,0.1,1.9,0.2c0.7,0.1,1.5,0.2,2.3,0.5
					c0.8,0.2,1.6,0.5,2.5,0.8c0.9,0.3,1.7,0.7,2.6,1.1c0.8,0.5,1.7,0.9,2.5,1.4c0.8,0.5,1.7,1,2.4,1.6c0.8,0.6,1.6,1.1,2.2,1.7
					c0.7,0.6,1.3,1.2,1.8,1.8c0.5,0.6,1,1.3,1.4,1.8c0.4,0.6,0.8,1.1,1.1,1.6c0.3,0.5,0.5,0.9,0.7,1.3c0.4,0.7,0.6,1.2,0.6,1.2
					l-0.2,0.1c0,0-0.4-0.3-1-0.9c-0.3-0.3-0.7-0.6-1.1-1c-0.2-0.2-0.4-0.4-0.6-0.6c-0.2-0.2-0.5-0.4-0.7-0.7c-0.5-0.5-1.1-1-1.6-1.5
					c-0.6-0.5-1.2-1.1-1.8-1.6c-0.6-0.6-1.3-1.2-2-1.8c-0.6-0.6-1.4-1.1-2.1-1.7c-0.7-0.6-1.5-1-2.3-1.5c-0.8-0.4-1.6-0.9-2.3-1.2
					c-0.8-0.4-1.5-0.7-2.3-1c-0.7-0.3-1.5-0.5-2.1-0.7c-0.7-0.1-1.3-0.3-1.9-0.4c-0.6-0.1-1-0.1-1.5-0.2c-0.8-0.1-1.3,0-1.3,0
					L339.6,234.2z"/>
			</g>
		</g>
		<g>
			<path fill="#BE1E2D" d="M402.2,344.9c-25.7-15.6-59.9-42.5-85.6-58.2c-1.7,8.9-7.4,28.5-1.2,44.1c4.6,11.7,6.4,17.2,10.2,29.1
				c-19.4-29-47.3-52.2-79.4-65.8c-4.4,4-7.7,9.1-11.4,13.8c-13.1,17.3-30.8,31.1-50.7,39.7c-8.4,42,65.9,311.6,81,341.1
				c23.8,76.5,15.6,54.9,92.4,54.7c-53.6-81.1-42.1-123-58.8-154.6c5.8-25.4-12.9-13.2-10.4-19.6c8-20.5-1.5-30-13.5-30.6
				c-5-15.6-6.5-31.7-2.7-53.5c0.9-5.1,2-10.2,3.1-15.3c2.3,15.5,8.1,30.7,14.6,45.4c1.2,9.7,3.2,19.4,5.9,28.8
				c1.3,4.4,2.8,8.8,5.3,12.7c5,7.9,13.7,12.9,22.5,16.2c4.3,1.7,8.7,3,13.1,4.1c20.5-1.8,41-4.6,61.3-8.3c17.4-8.7,22.8-10,35-25.3
				C451,505.5,401.7,396.4,402.2,344.9z"/>
			<g>
				<path fill="#EC1C24" d="M402.8,343.9c-23.3-14.2-44.9-31-67.5-46.4c-6-4.1-12-8-18.1-11.8c-0.6-0.4-1.6,0-1.7,0.7
					c-2.3,11.6-5.2,23.2-3.6,35.2c0.9,6.9,3.9,13.1,6.2,19.6c2.3,6.3,4.3,12.7,6.4,19c0.7-0.3,1.4-0.6,2.2-0.9
					c-15.2-22.6-35.3-41.7-58.7-55.5c-6.8-4-13.9-7.6-21.1-10.7c-0.5-0.2-1-0.2-1.4,0.2c-6.4,5.9-10.8,13.6-16.5,20.1
					c-5.7,6.6-12.1,12.6-19,17.8c-6.7,5.1-13.9,9.5-21.5,13.2c-2,1-5.1,1.4-5.5,3.8c-0.2,0.9-0.3,1.9-0.3,2.9c-1,12,1,24.4,2.8,36.2
					c2.8,18.6,6.5,37.1,10.4,55.5c4.7,22,9.9,44,15.3,65.8c5.6,22.4,11.4,44.7,17.5,67c5.4,19.7,11,39.4,16.9,58.9
					c4.2,13.9,8.5,27.9,13.4,41.6c1.4,4,2.9,8,4.7,11.8c2.1,4.5,3.2,9.6,4.7,14.4c1.7,5.5,3.4,10.9,5.3,16.3
					c3.5,10.3,7.7,24.6,19.5,27.9c5.5,1.5,11.5,1,17.1,0.6c9.4-0.7,18.7-1.6,28.1-2.1c6.5-0.3,13-0.5,19.4-0.5c0.9,0,1.5-1,1-1.8
					c-13.6-20.6-25.5-42.4-34.1-65.6c-5.7-15.5-9.6-31.4-12.9-47.5c-2.3-11.7-4.3-23.8-8.8-34.9c-0.5-1.2-1-2.4-1.6-3.6
					c-0.3-0.6-0.7-1.3-1-2c-0.4-1.1,0-1.9,0.2-3.1c0.6-3.5,1.1-7.5-0.3-10.9c-1.6-4.1-5.4-4.7-9.3-5c-0.5,0-1.5,0-1.7-0.3
					c0.2,0.2,0.1,0.2,0.1,0c0.1-0.7,0.6-1.5,0.8-2.2c1.9-5.4,3.1-11.3,1.9-16.9c-1.8-8.3-9-13-17.1-13.4c0.4,0.3,0.8,0.6,1.1,0.9
					c-3.1-9.9-4.8-20-4.8-30.4c0-12.8,2.4-25.4,5.2-37.9c-0.8,0-1.5,0-2.3,0c1.5,9.9,4.3,19.4,7.8,28.8c1.7,4.5,3.5,9,5.4,13.4
					c2,4.6,2.2,9.6,3.1,14.4c1.7,9.2,3.7,19.1,7.9,27.5c3.6,7.4,10.1,12.7,17.4,16.5c3.8,2,7.8,3.5,11.8,4.9c2.2,0.7,4.4,1.4,6.6,2
					c2.4,0.6,4.4,0.4,6.9,0.2c10.2-1,20.4-2.2,30.5-3.6c5.2-0.7,10.4-1.5,15.5-2.4c4.7-0.8,9.6-1.2,13.9-3.3
					c5.8-2.9,11.8-5.5,17.2-9.1c5.2-3.5,9.5-7.9,13.5-12.7c1.7-2.1,2.8-3.8,3.7-6.3c0.7-1.9,1.2-3.9,1.6-5.9
					c1.9-9.9,1.2-20.3,0-30.2c-3.3-26.5-10.8-52.3-17.7-78c-3.5-13.2-7.1-26.4-10.1-39.8c-2.5-11.3-4.8-22.7-5.6-34.2
					c-0.2-2.4-0.2-4.8-0.2-7.2c0-1.5-2.4-1.5-2.4,0c-0.1,10.3,1.5,20.5,3.5,30.5c2.4,12.4,5.5,24.7,8.7,36.9
					c6.7,25.8,14.4,51.4,19.2,77.6c2,10.8,3.6,21.8,3.4,32.8c-0.1,4.4-0.5,8.9-1.5,13.2c-0.4,1.8-1,3.6-1.7,5.3
					c-1.3,3-4.1,5.7-6.4,8.1c-3.9,4.2-8.3,7.6-13.4,10.4c-2.7,1.5-5.5,2.9-8.3,4.2c-1.6,0.8-3.3,1.6-4.9,2.4c-2.4,1.2-5,1.5-7.7,2
					c-10.2,1.8-20.5,3.3-30.8,4.6c-4.9,0.6-9.8,1.2-14.6,1.7c-2.4,0.3-4.9,0.5-7.3,0.7c-2.8,0.3-5.2-0.5-7.9-1.3
					c-8.3-2.5-16.9-5.9-23.5-11.7c-7-6.2-9.7-14.7-12-23.5c-1.3-4.7-2.3-9.5-3.2-14.4c-0.4-2.3-0.8-4.7-1.1-7c-0.3-2.5-1-4.2-2-6.6
					c-3.9-9.1-7.5-18.4-10.1-28c-1.2-4.5-2.2-9-2.9-13.6c-0.2-1.2-2-1.1-2.3,0c-2.8,12.7-5.2,25.5-5.2,38.5c0,10.5,1.7,21,4.9,31
					c0.2,0.5,0.6,0.8,1.1,0.9c8.2,0.5,14.6,5.7,15.2,14.2c0.2,2.3-0.1,4.7-0.5,7c-0.6,2.9-1.8,5.5-2.5,8.3c-0.3,1.4,0.1,2.6,1.5,3.1
					c2.9,1.1,6.5-0.5,8.7,2.5c2.1,2.8,1.4,7.5,0.9,10.7c-0.3,1.9-0.9,3.1,0,4.9c0.7,1.3,1.3,2.6,1.9,4c4.6,10.8,6.6,22.6,8.9,34
					c3,15.3,6.6,30.5,11.7,45.3c8.7,25,21.3,48.3,35.8,70.4c0.3-0.6,0.7-1.2,1-1.8c-11.8,0-23.5,0.6-35.2,1.6
					c-7.2,0.6-14.5,1.5-21.7,1.4c-4.5-0.1-9.1-0.8-12.7-3.7c-4.4-3.6-6.8-9.2-8.9-14.3c-3.9-9.7-6.9-19.7-10-29.7
					c-1.2-3.8-2.2-7.6-3.8-11.2c-0.8-1.7-1.4-3.4-2.1-5.1c-4.6-12-8.4-24.3-12.2-36.5c-5.7-18.3-11-36.8-16.1-55.3
					c-6-21.6-11.8-43.4-17.4-65.1c-5.6-22-11-44-15.9-66.2c-4.3-19.3-8.4-38.6-11.8-58.1c-2.4-13.7-4.7-27.7-5-41.7
					c0-2.3,0-4.5,0.1-6.8c0.1-0.8,0-1.7,0.3-2.5c0.3-1,0.3-0.5,1.5-1.1c2-0.9,3.9-1.8,5.9-2.8c14.7-7.6,27.9-18,38.6-30.5
					c5.5-6.4,9.8-13.8,16-19.5c-0.5,0.1-1,0.1-1.4,0.2c31.9,13.7,59.6,36.6,78.9,65.4c0.7,1.1,2.6,0.4,2.2-0.9
					c-2-6.1-3.9-12.3-6.1-18.3c-2.3-6.2-5.2-12.3-6.3-19c-1.9-11.9,1.1-23.6,3.4-35.3c-0.6,0.2-1.2,0.5-1.7,0.7
					c23.3,14.2,44.9,31,67.5,46.4c6,4.1,12,8,18.1,11.8C402.9,346.7,404.1,344.7,402.8,343.9z"/>
			</g>
		</g>
		<g>
			<defs>
				<path id="SVGID_3_" d="M-126.3,698.5c0,0,16.2-16.3,48.7-29.1S1,643.9,37.9,594.1c0,0,58.6-40,81.8-138.6s69.9-177.4,69.9-177.4
					l-31.6,0.1c0,0-63,78.8-103.9,217.7c-9.3,31.8-41.9,74.3-57,83.8l-51.6,34.2c-24,15.9-27.7,19.2-47.1,40.4l-13.2,14.3
					C-122.2,676.9-126.3,687.5-126.3,698.5L-126.3,698.5z"/>
			</defs>
			<use xlink:href="#SVGID_3_"  overflow="visible" fill="#FFFFFF"/>
			<clipPath id="SVGID_4_">
				<use xlink:href="#SVGID_3_"  overflow="visible"/>
			</clipPath>
			<g clip-path="url(#SVGID_4_)">
				
					<use xlink:href="#New_Symbol_12"  width="83" height="223.4" x="-41.5" y="-111.7" transform="matrix(-1.2337 -0.5624 -0.5624 1.2337 207.5509 450.945)" overflow="visible"/>
				
					<use xlink:href="#New_Symbol_12"  width="83" height="223.4" x="-41.5" y="-111.7" transform="matrix(1.3532 -8.460351e-02 8.460351e-02 1.3532 138.4896 587.1785)" overflow="visible"/>
				
					<use xlink:href="#New_Symbol_12"  width="83" height="223.4" x="-41.5" y="-111.7" transform="matrix(-1.2237 0.584 0.584 1.2237 325.6321 462.6539)" overflow="visible"/>
				
					<use xlink:href="#New_Symbol_12"  width="83" height="223.4" x="-41.5" y="-111.7" transform="matrix(-1.2237 0.584 0.584 1.2237 291.4945 336.0153)" overflow="visible"/>
				
					<use xlink:href="#New_Symbol_12"  width="83" height="223.4" x="-41.5" y="-111.7" transform="matrix(-0.787 1.1041 1.1041 0.787 353.6861 290.5238)" overflow="visible"/>
				
					<use xlink:href="#New_Symbol_12"  width="83" height="223.4" x="-41.5" y="-111.7" transform="matrix(0.5644 1.2328 1.2328 -0.5644 78.1754 472.1666)" overflow="visible"/>
			</g>
			<use xlink:href="#SVGID_3_"  overflow="visible" fill="none" stroke="#A096C5" stroke-width="2.7117" stroke-miterlimit="10"/>
		</g>
		<g>
			<defs>
				<path id="SVGID_5_" d="M189.4,281.6c0,0-50.5,120.7-1.8,317.3c1.6,6.5,6,12.1,12.1,15c16.6,8,49.9,31.1,52.1,86.9
					c0,0,15.2,79.9,46.5,115.1c0,0,31.1-20.4,11.9-85.5l-4.2-29.8c0,0,16.3-69.2-64.7-130c0,0-44.5-106.7-18-279.3L189.4,281.6z"/>
			</defs>
			<use xlink:href="#SVGID_5_"  overflow="visible" fill="#FFFFFF"/>
			<clipPath id="SVGID_6_">
				<use xlink:href="#SVGID_5_"  overflow="visible"/>
			</clipPath>
			<g clip-path="url(#SVGID_6_)">
				
					<use xlink:href="#New_Symbol_12"  width="83" height="223.4" x="-41.5" y="-111.7" transform="matrix(-1.3143 0.3331 0.3331 1.3143 159.918 636.5631)" overflow="visible"/>
				
					<use xlink:href="#New_Symbol_12"  width="83" height="223.4" x="-41.5" y="-111.7" transform="matrix(1.3098 0.3503 -0.3503 1.3098 12.9007 635.2729)" overflow="visible"/>
				
					<use xlink:href="#New_Symbol_12"  width="83" height="223.4" x="-41.5" y="-111.7" transform="matrix(-1.3459 0.1644 0.1644 1.3459 229.9347 576.7499)" overflow="visible"/>
				
					<use xlink:href="#New_Symbol_12"  width="83" height="223.4" x="-41.5" y="-111.7" transform="matrix(-1.3459 0.1644 0.1644 1.3459 237.8559 445.8301)" overflow="visible"/>
				
					<use xlink:href="#New_Symbol_12"  width="83" height="223.4" x="-41.5" y="-111.7" transform="matrix(-1.0973 0.7964 0.7964 1.0973 311.2883 422.4858)" overflow="visible"/>
				
					<use xlink:href="#New_Symbol_12"  width="83" height="223.4" x="-41.5" y="-111.7" transform="matrix(0.1429 1.3483 1.3483 -0.1429 -7.6935 507.0489)" overflow="visible"/>
			</g>
			<use xlink:href="#SVGID_5_"  overflow="visible" fill="none" stroke="#A096C5" stroke-width="2.7117" stroke-miterlimit="10"/>
		</g>
		<g>
			<path fill="#F79838" d="M115.1,210.2c2.8-5.2,7.3-9.4,12.6-12.1"/>
			<g>
				<path fill="#CC6632" d="M115.9,210.7c2.9-5.1,7-9.1,12.2-11.7c1.1-0.6,0.1-2.2-1-1.7c-5.5,2.8-9.9,7.1-12.9,12.4
					C113.7,210.8,115.3,211.8,115.9,210.7L115.9,210.7z"/>
			</g>
		</g>
		
			<use xlink:href="#New_Symbol_6"  width="36" height="51.6" x="-18" y="-25.8" transform="matrix(-1.3559 4.325397e-03 -4.325397e-03 -1.3559 101.0311 227.8666)" overflow="visible"/>
		<g>
			<path fill="#F79838" d="M110.6,202.5c-1.5-4.5,2.1-9.4,6.5-11.3c4.4-1.9,9.4-1.8,14.2-2.2c8.4-0.7,16.7-3.2,24.1-7.3"/>
			<g>
				<path fill="#CC6632" d="M111.5,202.2c-1.3-4.7,2.5-8.8,6.7-10.4c4.3-1.7,9.1-1.5,13.6-1.9c8.5-0.8,16.7-3.3,24.2-7.4
					c1.1-0.6,0.1-2.3-1-1.7c-4.7,2.5-9.6,4.5-14.8,5.7c-5.3,1.3-10.7,1.4-16.1,2c-4.1,0.5-8.2,1.5-11.3,4.4
					c-2.7,2.6-4.2,6.1-3.1,9.8C110,203.9,111.8,203.4,111.5,202.2L111.5,202.2z"/>
			</g>
		</g>
		<g>
			<path fill="#EC1C24" d="M339.4,440.3c-0.3-0.8-0.5-1.6-0.6-2.3c-0.2-0.8-0.3-1.6-0.4-2.4c-0.1-0.8-0.1-1.6-0.2-2.4
				c0-0.8,0-1.6,0-2.4c0-0.8,0.1-1.6,0.2-2.4c0.1-0.8,0.2-1.6,0.3-2.4c0.1-0.8,0.3-1.6,0.5-2.4c0.2-0.8,0.4-1.6,0.6-2.4l0,0.2
				c-0.9-5.2-1.8-10.4-2.9-15.6c-0.5-2.6-1-5.2-1.6-7.7c-0.6-2.6-1.1-5.1-1.8-7.7l-1.8-7.7c-0.3-1.3-0.6-2.6-0.9-3.8
				c-0.3-1.3-0.6-2.6-0.9-3.8c-0.3-1.3-0.6-2.6-1-3.8l-1-3.8c-0.4-1.3-0.8-2.5-1.1-3.8l-1.3-3.7l0.2-0.1c0.7,1.1,1.3,2.3,1.9,3.5
				c0.6,1.2,1.1,2.4,1.6,3.6l1.4,3.7c0.5,1.3,0.8,2.5,1.3,3.8c0.4,1.3,0.8,2.5,1.1,3.8c0.4,1.3,0.7,2.6,1,3.8
				c0.3,1.3,0.6,2.6,0.9,3.9l0.8,3.9l0.7,3.9l0.7,3.9c0.5,2.6,0.9,5.2,1.3,7.8c0.8,5.2,1.6,10.4,2.3,15.7l0,0.1l0,0.1
				c-0.2,0.8-0.5,1.5-0.7,2.3c-0.2,0.8-0.4,1.5-0.6,2.3c-0.2,0.8-0.3,1.6-0.4,2.3c-0.1,0.8-0.2,1.6-0.3,2.4
				c-0.1,0.8-0.1,1.6-0.1,2.4c0,0.8,0,1.6,0,2.4c0.1,0.8,0.1,1.6,0.3,2.4c0.1,0.8,0.3,1.6,0.5,2.3L339.4,440.3z"/>
		</g>
		<g>
			<path fill="#EC1C24" d="M295.2,453c2.4-0.3,4.8-0.7,7.2-1.3c2.4-0.6,4.7-1.4,6.9-2.3c2.2-1,4.3-2.2,6-3.8
				c0.4-0.4,0.8-0.8,1.2-1.2c0.4-0.4,0.7-0.9,1-1.4c0.2-0.2,0.3-0.5,0.4-0.7c0.1-0.3,0.3-0.5,0.4-0.8c0.2-0.5,0.4-1.1,0.5-1.6l0,0.4
				c-0.4-1.4-0.6-2.7-0.8-4.1c-0.2-1.4-0.4-2.8-0.5-4.1c-0.1-0.7-0.1-1.4-0.1-2.1c0-0.7-0.1-1.4-0.1-2.1c0-1.4,0-2.8,0.1-4.2
				l0.2-2.1l0.3-2.1c0.1-0.7,0.2-1.4,0.4-2.1c0.1-0.7,0.3-1.4,0.4-2.1c0.2-0.7,0.3-1.4,0.5-2.1l0.6-2l0.2-0.5l0,0c0,0,0-0.1,0,0.1
				l0,0l0-0.1c0,0.1,0,0.3,0,0.3c0,0.2,0.1,0.3,0.2,0.5c0.2,0.2,0.4,0.4,0.8,0.3c0.2,0,0.4-0.1,0.5-0.2c0.1-0.1,0.1-0.1,0.1-0.2
				l-0.1,0.1l-1.1,1.7c-1.4,2.3-2.8,4.6-4.1,7c-0.6,1.2-1.3,2.4-1.8,3.6c-0.5,1.2-1,2.4-1.5,3.7c-0.8,2.5-1.4,5.1-0.9,7.6
				c0.2,1.2,0.8,2.4,1.6,3.3c0.9,1,2,1.7,3.3,2.2l-0.1,0.3c-1.4-0.3-2.7-0.9-3.8-1.8c-0.6-0.5-1.1-1-1.5-1.6c-0.2-0.3-0.4-0.6-0.5-1
				c-0.1-0.3-0.3-0.7-0.4-1c-0.5-1.4-0.6-2.9-0.5-4.4c0.1-1.5,0.3-2.9,0.7-4.3c0.4-1.4,0.8-2.7,1.3-4c0.5-1.3,1.1-2.6,1.7-3.9
				c1.2-2.5,2.7-4.9,4.2-7.2l1.2-1.7l0.1-0.1c0.1-0.1,0.2-0.2,0.3-0.3c0.2-0.2,0.6-0.4,0.9-0.4c0.7-0.1,1.3,0.2,1.7,0.7
				c0.2,0.3,0.3,0.6,0.4,0.9c0,0.1,0,0.4-0.1,0.6l-0.1,0.2l-0.2,0.5l-0.7,1.9c-0.2,0.6-0.4,1.3-0.6,1.9c-0.2,0.6-0.4,1.3-0.5,1.9
				c-0.1,0.7-0.3,1.3-0.4,2l-0.3,2l-0.2,2c-0.1,1.3-0.2,2.7-0.2,4c0,0.7,0,1.3,0,2c0,0.7,0,1.3,0.1,2c0.1,1.3,0.2,2.7,0.3,4
				c0.2,1.3,0.4,2.7,0.7,4l0,0.2l0,0.1c-0.2,0.6-0.4,1.3-0.7,1.9c-0.1,0.3-0.3,0.6-0.4,0.9c-0.2,0.3-0.3,0.6-0.5,0.8
				c-0.4,0.5-0.8,1-1.2,1.5c-0.4,0.5-0.9,0.9-1.4,1.3c-2,1.6-4.2,2.8-6.5,3.7c-2.3,0.9-4.7,1.6-7.1,2c-2.4,0.5-4.8,0.8-7.3,1
				L295.2,453z"/>
		</g>
		<g>
			<path fill="#EC1C24" d="M288,491.1l-4.1-8.4l-2-4.2c-0.7-1.4-1.4-2.8-2-4.2c-2.5-5.8-3.4-12.3-2.6-18.5l2.6-18.5l2.6-18.5l1.1-8
				l0.6,8.1c0.5,6.5,1.2,13.1,2.1,19.6c0.9,6.5,2,13,3.3,19.5c1.3,6.4,2.8,12.8,4.6,19.2c1.8,6.3,3.8,12.5,6.3,18.6
				c1.2,3,2.5,6.1,3.9,9c1.4,2.9,2.9,5.8,4.6,8.6c3.3,5.6,7.2,10.9,11.9,15.3c2.4,2.2,4.9,4.2,7.7,5.8c2.8,1.6,5.8,2.9,8.9,3.8
				c3.1,0.8,6.4,1.3,9.6,1.3c3.3,0,6.5-0.4,9.8-1l0.1,0.3c-6.4,1.8-13.2,2.3-19.8,0.8c-3.3-0.7-6.5-1.9-9.5-3.5
				c-3-1.6-5.8-3.6-8.3-5.8c-5.1-4.5-9.2-9.9-12.7-15.5c-1.8-2.8-3.3-5.8-4.8-8.8c-1.4-3-2.8-6.1-4-9.2c-2.4-6.2-4.4-12.6-6.1-19
				c-1.7-6.4-3.1-12.9-4.4-19.4c-1.2-6.5-2.2-13.1-3.1-19.6c-0.8-6.6-1.5-13.1-1.9-19.8l1.7,0.1l-5.9,36.9
				c-0.9,6.1-0.1,12.4,2.2,18.1c0.6,1.4,1.3,2.8,1.9,4.3l1.9,4.3l3.9,8.5L288,491.1z"/>
		</g>
		<g>
			<path fill="#EC1C24" d="M409.3,344.9c0,0-0.6,2.8-1.3,7.8c-0.6,5-1.3,12.2-1.5,20.9c-0.2,8.7,0.1,18.8,1,29.6
				c0.5,5.4,1.2,11,2,16.6c0.8,5.6,1.9,11.3,3,17c1.2,5.6,2.5,11.3,4,16.7c0.4,1.4,0.7,2.7,1.1,4.1c0.4,1.3,0.8,2.7,1.2,4
				c0.8,2.7,1.6,5.3,2.4,7.9c0.8,2.6,1.7,5.1,2.5,7.6c0.8,2.4,1.7,4.9,2.3,7.4c1.3,4.9,2.1,9.6,2.6,14c0.5,4.4,0.3,8.4,0.2,12
				c-0.1,3.6-0.4,6.6-0.8,9.2c-0.4,2.5-0.8,4.5-1.1,5.8c-0.2,0.7-0.3,1.2-0.4,1.5c-0.1,0.3-0.2,0.5-0.2,0.5l-0.3-0.1
				c0,0,0-0.2,0.1-0.5c0.1-0.3,0.2-0.8,0.3-1.5c0.2-1.3,0.5-3.3,0.6-5.8c0.1-2.5,0.2-5.6,0.1-9.1c-0.1-3.5-0.3-7.5-0.8-11.7
				c-0.6-4.3-1.5-8.8-2.9-13.5c-1.4-4.7-3.3-9.6-4.9-14.8c-0.8-2.6-1.6-5.3-2.3-8c-0.4-1.4-0.7-2.7-1.1-4.1c-0.3-1.4-0.7-2.8-1-4.1
				c-1.4-5.6-2.6-11.2-3.7-17c-1.1-5.7-2-11.5-2.8-17.1c-0.7-5.7-1.3-11.3-1.7-16.7c-0.4-5.4-0.6-10.7-0.7-15.7
				c0-5,0.1-9.7,0.2-14.1c0.4-8.7,1.2-15.9,2-20.9c0.8-5,1.5-7.8,1.5-7.8L409.3,344.9z"/>
		</g>
		<g>
			<defs>
				<path id="SVGID_7_" d="M308.5,306.9l-3-5.4c-3.2-5.9-3.5-12.9-0.7-19c2.5-5.3,5.8-11.5,9.7-15.9c3.2-3.7,8.3-5,13-3.7
					c14.6,4.2,53.7,16.9,79.3,40.2c3.8,3.4,6.8,7.6,9.1,12.1c1.3,2.6,2.8,5.9,4.2,9.4c3.9,9.7,5.4,20.3,4.7,30.7
					c-0.8,10.4-3,24.8-9.4,28.8c-5.5,2.1-14.9-4.8-23.2-25.4c-2.7-6.8-9.8-10.3-13-12l-64.6-34C311.9,311.4,309.8,309.4,308.5,306.9
					z"/>
			</defs>
			<use xlink:href="#SVGID_7_"  overflow="visible" fill="#FFFFFF"/>
			<clipPath id="SVGID_8_">
				<use xlink:href="#SVGID_7_"  overflow="visible"/>
			</clipPath>
			<g clip-path="url(#SVGID_8_)">
				
					<use xlink:href="#New_Symbol_12"  width="83" height="223.4" x="-41.5" y="-111.7" transform="matrix(1.3559 -4.325397e-03 -4.325397e-03 -1.3559 124.1288 612.8078)" overflow="visible"/>
				
					<use xlink:href="#New_Symbol_12"  width="83" height="223.4" x="-41.5" y="-111.7" transform="matrix(-1.3294 0.2664 0.2664 1.3294 153.6749 481.2025)" overflow="visible"/>
				
					<use xlink:href="#New_Symbol_12"  width="83" height="223.4" x="-41.5" y="-111.7" transform="matrix(-1.3466 -0.1585 0.1585 -1.3466 21.2972 606.6152)" overflow="visible"/>
				
					<use xlink:href="#New_Symbol_12"  width="83" height="223.4" x="-41.5" y="-111.7" transform="matrix(1.2905 0.4158 -0.4158 1.2905 6.9095 472.5037)" overflow="visible"/>
				
					<use xlink:href="#New_Symbol_12"  width="83" height="223.4" x="-41.5" y="-111.7" transform="matrix(-1.3524 9.631859e-02 9.631859e-02 1.3524 226.6174 424.9945)" overflow="visible"/>
				
					<use xlink:href="#New_Symbol_12"  width="83" height="223.4" x="-41.5" y="-111.7" transform="matrix(-1.3524 9.631859e-02 9.631859e-02 1.3524 241.1275 294.6404)" overflow="visible"/>
				
					<use xlink:href="#New_Symbol_12"  width="83" height="223.4" x="-41.5" y="-111.7" transform="matrix(-1.1361 0.7401 0.7401 1.1361 315.6432 275.0271)" overflow="visible"/>
				
					<use xlink:href="#New_Symbol_12"  width="83" height="223.4" x="-41.5" y="-111.7" transform="matrix(-5.865476e-02 -1.3546 -1.3546 5.865476e-02 -19.3569 444.899)" overflow="visible"/>
				
					<use xlink:href="#New_Symbol_12"  width="83" height="223.4" x="-41.5" y="-111.7" transform="matrix(7.477854e-02 1.3538 1.3538 -7.477854e-02 -7.1954 343.4046)" overflow="visible"/>
			</g>
			<use xlink:href="#SVGID_7_"  overflow="visible" fill="none" stroke="#A096C5" stroke-width="2.7117" stroke-miterlimit="10"/>
		</g>
		<g>
			<g>
				<path fill="#35847E" d="M429.6,289.8c0,0-0.2-0.3-0.7-1c-0.4-0.6-1.1-1.5-1.8-2.7c-0.4-0.6-0.8-1.2-1.2-2
					c-0.4-0.7-0.8-1.6-1.3-2.4c-0.9-1.7-2-3.7-2.9-6c-0.5-1.1-0.9-2.3-1.4-3.5c-0.4-1.2-0.8-2.5-1.2-3.9c-0.4-1.3-0.8-2.7-1.1-4.2
					c-0.3-1.4-0.6-2.9-1-4.4c-0.4-3.1-0.9-6.2-0.9-9.5c-0.1-1.6-0.2-3.3,0-4.9c0.1-1.6,0.1-3.3,0.3-5c0.2-1.6,0.5-3.3,0.7-4.9
					c0.3-1.6,0.7-3.2,1.1-4.8c0.2-0.8,0.4-1.6,0.6-2.4c0.3-0.8,0.5-1.5,0.8-2.3c0.3-0.8,0.5-1.5,0.8-2.2l0.4-1.1l0.5-1.1
					c0.6-1.4,1.2-2.8,1.9-4.1c0.3-0.7,0.7-1.3,1-1.9c0.4-0.6,0.7-1.2,1.1-1.9c0.4-0.6,0.7-1.2,1-1.8c0.2-0.3,0.3-0.6,0.5-0.9
					c0.2-0.3,0.4-0.6,0.6-0.8c0.8-1.1,1.5-2.1,2.2-3.1c0.4-0.5,0.7-1,1-1.4c0.4-0.5,0.7-0.9,1.1-1.3c0.7-0.8,1.4-1.6,2-2.4
					c0.7-0.7,1.2-1.5,1.8-2c0.6-0.6,1.2-1.1,1.7-1.6c1-1,1.8-1.7,2.4-2.2c0.6-0.5,0.9-0.8,0.9-0.8s-0.2,0.4-0.5,1
					c-0.3,0.7-0.8,1.7-1.5,2.9c-0.3,0.6-0.7,1.3-1.1,2c-0.4,0.7-0.7,1.6-1.2,2.4c-0.4,0.9-0.9,1.8-1.3,2.7c-0.2,0.5-0.5,1-0.7,1.5
					c-0.2,0.5-0.4,1-0.7,1.6c-0.9,2.1-2,4.4-2.9,6.9c-0.4,1.2-1,2.5-1.4,3.8c-0.4,1.3-0.9,2.6-1.3,4l-0.3,1l-0.3,1
					c-0.2,0.7-0.4,1.4-0.5,2.1c-0.4,1.4-0.8,2.8-1,4.3c-0.3,1.4-0.6,2.9-0.8,4.4c-0.2,1.5-0.4,3-0.6,4.4c-0.2,1.5-0.2,3-0.4,4.5
					c0,0.7-0.2,1.5-0.1,2.2c0,0.7,0,1.5,0,2.2c0,1.5-0.1,2.9,0,4.4c0.1,1.5,0.1,2.9,0.2,4.3c0.1,1.4,0.3,2.8,0.4,4.2
					c0.1,0.7,0.1,1.4,0.2,2c0.1,0.7,0.2,1.3,0.3,2c0.2,1.3,0.4,2.6,0.5,3.8c0.2,1.2,0.5,2.4,0.7,3.6c0.4,2.3,0.9,4.4,1.3,6.2
					c0.2,0.9,0.4,1.8,0.5,2.6c0.2,0.8,0.4,1.6,0.6,2.2c0.4,1.3,0.6,2.4,0.7,3.2C429.6,289.4,429.6,289.8,429.6,289.8z"/>
			</g>
			<g>
				<path fill="#35847E" d="M449.7,282.3c0,0-0.2-0.3-0.6-0.8c-0.4-0.5-1-1.2-1.7-2.2c-0.4-0.5-0.8-1-1.2-1.6
					c-0.4-0.6-0.8-1.3-1.3-2c-0.5-0.7-0.9-1.5-1.4-2.3c-0.5-0.8-0.9-1.7-1.4-2.7c-0.5-0.9-0.9-1.9-1.4-3c-0.4-1.1-0.8-2.2-1.2-3.3
					c-0.2-0.6-0.4-1.2-0.6-1.7c-0.2-0.6-0.3-1.2-0.5-1.8c-0.3-1.2-0.7-2.5-0.9-3.8c-0.2-1.3-0.4-2.7-0.6-4.1
					c-0.2-1.4-0.2-2.8-0.2-4.2c0-0.7-0.1-1.4,0-2.1c0-0.7,0.1-1.4,0.2-2.1c0.1-1.4,0.2-2.9,0.5-4.3c0.3-1.4,0.5-2.8,0.9-4.2
					c0.4-1.4,0.8-2.7,1.2-4.1c0.4-1.3,1-2.6,1.6-3.9c0.3-0.6,0.5-1.3,0.8-1.9c0.3-0.6,0.7-1.2,1-1.8c0.7-1.2,1.2-2.3,2-3.4
					c0.7-1,1.4-2.1,2.1-3.1c0.4-0.5,0.7-1,1-1.4c0.4-0.4,0.8-0.9,1.1-1.3c0.7-0.8,1.5-1.7,2.2-2.5c1.4-1.5,2.9-2.8,4.1-3.9
					c1.2-1.2,2.4-2,3.4-2.7c1.9-1.4,3.1-2.2,3.1-2.2s-0.7,1.2-1.9,3.3c-0.6,1-1.4,2.2-2.2,3.6c-0.4,0.7-0.8,1.5-1.3,2.2
					c-0.4,0.8-1,1.6-1.4,2.5c-0.5,0.9-0.9,1.8-1.4,2.7c-0.3,0.5-0.5,0.9-0.8,1.4c-0.2,0.5-0.5,1-0.7,1.5c-0.5,1-1,2-1.5,3.1
					c-0.5,1.1-0.9,2.2-1.3,3.3c-0.2,0.6-0.4,1.1-0.7,1.7c-0.2,0.6-0.4,1.1-0.6,1.7c-0.2,0.6-0.4,1.2-0.6,1.7
					c-0.2,0.6-0.4,1.1-0.6,1.8c-0.3,1.2-0.6,2.4-0.9,3.6c-0.3,1.2-0.4,2.4-0.7,3.7c-0.3,1.2-0.4,2.5-0.5,3.7
					c-0.1,0.6-0.1,1.2-0.2,1.8c-0.1,0.6,0,1.2-0.1,1.8c0,0.6,0,1.2-0.1,1.8c0,0.6-0.1,1.2,0,1.8c0.1,1.2,0.1,2.4,0.1,3.6
					c0,1.2,0.3,2.3,0.3,3.5c0.1,0.6,0.1,1.1,0.2,1.7c0.1,0.6,0.2,1.1,0.3,1.7c0.2,1.1,0.3,2.2,0.5,3.2c0.2,1,0.4,2,0.6,3
					c0.3,2,0.8,3.7,1.2,5.2c0.2,0.8,0.4,1.5,0.5,2.2c0.2,0.7,0.4,1.3,0.6,1.9c0.3,1.1,0.6,2.1,0.7,2.7
					C449.7,282,449.7,282.3,449.7,282.3z"/>
			</g>
			<g>
				<path fill="#35847E" d="M467,274.1c0,0-0.9-0.7-2.3-2c-0.3-0.3-0.7-0.7-1.2-1.1c-0.4-0.4-0.8-0.9-1.2-1.4
					c-0.5-0.5-0.9-1.1-1.4-1.7c-0.5-0.6-0.9-1.3-1.4-2c-0.4-0.7-1-1.5-1.4-2.3c-0.4-0.8-0.8-1.7-1.2-2.6c-0.5-0.9-0.7-1.9-1-2.9
					c-0.3-1-0.6-2.1-0.8-3.2c-0.2-1.1-0.4-2.2-0.4-3.4c0-1.2-0.1-2.3-0.1-3.5c0.1-1.2,0.3-2.4,0.4-3.5c0.1-0.6,0.2-1.2,0.4-1.7
					l0.5-1.7c0.3-1.2,0.8-2.2,1.2-3.3c0.2-0.5,0.5-1.1,0.7-1.6c0.2-0.5,0.6-1,0.8-1.5c0.6-1,1.1-2,1.8-2.9c0.7-0.9,1.3-1.8,2-2.6
					c0.6-0.9,1.4-1.6,2.1-2.3c0.7-0.7,1.4-1.5,2.1-2.1c1.5-1.2,2.9-2.4,4.2-3.4c1.4-0.9,2.7-1.7,3.8-2.4c1.1-0.7,2.2-1.2,3.1-1.6
					c1.8-0.8,2.8-1.2,2.8-1.2s-0.6,0.9-1.8,2.5c-0.6,0.8-1.3,1.6-2.1,2.7c-0.8,1.1-1.6,2.2-2.6,3.4c-0.9,1.3-1.9,2.7-2.9,4.1
					c-0.5,0.7-0.9,1.5-1.4,2.2c-0.5,0.8-1,1.5-1.5,2.3c-0.4,0.8-0.9,1.6-1.4,2.4c-0.3,0.4-0.4,0.8-0.6,1.3c-0.2,0.4-0.4,0.8-0.6,1.3
					c-0.2,0.4-0.4,0.8-0.6,1.3c-0.2,0.4-0.3,0.9-0.5,1.3c-0.3,0.9-0.7,1.7-0.9,2.6l-0.4,1.3c-0.1,0.4-0.3,0.9-0.3,1.3
					c-0.1,0.9-0.3,1.8-0.5,2.7c0,0.9-0.1,1.8-0.2,2.7c-0.1,0.4,0,0.9,0,1.3c0,0.4,0,0.9,0,1.3c0,0.4,0,0.9,0,1.3
					c0.1,0.4,0.1,0.9,0.1,1.3c0.1,0.9,0.1,1.7,0.3,2.5c0.2,0.8,0.3,1.6,0.5,2.4c0.1,0.8,0.4,1.5,0.6,2.3c0.2,0.7,0.3,1.5,0.6,2.1
					c0.2,0.7,0.4,1.3,0.6,1.9c0.2,0.6,0.4,1.2,0.5,1.7c0.2,0.5,0.4,1,0.6,1.5C466.7,273.1,467,274.1,467,274.1z"/>
			</g>
		</g>
		<g>
			<path fill="#EC1C24" d="M-3.2,432.7c0,0,0.8-0.3,2.2-0.8c1.4-0.5,3.4-1.2,5.9-1.7c2.5-0.5,5.5-0.8,8.8-0.5
				c3.2,0.3,6.5,0.6,9.9,0.9c1.7,0.1,3.4,0.3,5,0.4c0.8,0.1,1.6,0.1,2.5,0.2c0.4,0,0.8,0.1,1.3,0.2c0.4,0.1,0.9,0.2,1.3,0.3
				c1.7,0.5,3.2,1.3,4.4,2.3c0.6,0.5,1.2,1,1.7,1.6c0.4,0.5,0.9,1,1.3,1.5c3.3,3.9,5.2,6.7,5.2,6.7l-0.2,0.2c0,0-2.8-2-6.5-5.4
				c-0.5-0.4-0.9-0.9-1.4-1.3c-0.5-0.4-1-0.8-1.5-1.2c-1.1-0.7-2.3-1.3-3.7-1.7c-0.3-0.1-0.7-0.2-1-0.3c-0.3-0.1-0.7-0.1-1.1-0.2
				c-0.8-0.1-1.6-0.3-2.4-0.4c-1.6-0.3-3.3-0.5-5-0.8c-3.3-0.5-6.7-1-9.8-1.5c-3.1-0.4-6-0.4-8.5-0.1c-2.5,0.3-4.5,0.8-5.9,1.2
				c-1.4,0.4-2.3,0.6-2.3,0.6L-3.2,432.7z"/>
		</g>
		<g>
			<path fill="#EC1C24" d="M-9.8,434.8c0,0,1-0.2,2.7-0.5c1.7-0.3,4.2-0.8,7.2-0.9c3-0.1,6.6,0.3,10.2,1.3c1.8,0.5,3.6,1.3,5.4,1.9
				c1.8,0.7,3.7,1.4,5.5,2.1c1.9,0.7,3.7,1.4,5.5,2l0.3,0.1l0.4,0.1c0.2,0.1,0.4,0.2,0.7,0.3c0.5,0.2,1,0.5,1.4,0.7
				c0.9,0.5,1.7,1.2,2.5,1.9c1.5,1.4,2.6,3.1,3.3,4.8c0.4,0.9,0.6,1.7,0.8,2.6c0.2,0.9,0.2,1.6,0.4,2.3c0.8,5.9,1,9.9,1,9.9
				l-0.3,0.1c0,0-1.4-3.8-2.8-9.5c-0.4-1.5-0.7-2.9-1.4-4.3c-0.7-1.4-1.6-2.7-2.8-3.9c-0.6-0.6-1.3-1.1-2-1.6
				c-0.4-0.2-0.7-0.4-1.1-0.6c-0.2-0.1-0.4-0.2-0.6-0.3l-0.3-0.1l-0.3-0.1c-1.8-0.8-3.6-1.6-5.4-2.4c-1.8-0.8-3.6-1.6-5.4-2.3
				c-1.8-0.8-3.5-1.6-5.2-2.2c-3.4-1.2-6.8-1.7-9.7-1.9c-2.9-0.1-5.4,0.2-7.1,0.4c-1.7,0.2-2.7,0.3-2.7,0.3L-9.8,434.8z"/>
		</g>
		<g>
			<defs>
				<path id="SVGID_9_" d="M146.2,374.6L112,364.2c-3-0.9-6.4,0-9.2,2.4l-0.6,0.5c-3.8,3.3-7.4,7-10.7,11.1
					c-6.6,8.3-19.8,22.6-29.6,18.5c-13.7-5.7-3.9-74.4,80.2-111.9l18,26.5l1.2,34.8L146.2,374.6z"/>
			</defs>
			<use xlink:href="#SVGID_9_"  overflow="visible" fill="#FFFFFF"/>
			<clipPath id="SVGID_10_">
				<use xlink:href="#SVGID_9_"  overflow="visible"/>
			</clipPath>
			<g clip-path="url(#SVGID_10_)">
				
					<use xlink:href="#New_Symbol_12"  width="83" height="223.4" x="-41.5" y="-111.7" transform="matrix(1.3559 -4.325397e-03 -4.325397e-03 -1.3559 124.1288 612.8078)" overflow="visible"/>
				
					<use xlink:href="#New_Symbol_12"  width="83" height="223.4" x="-41.5" y="-111.7" transform="matrix(-1.2819 0.4418 0.4418 1.2819 204.6329 458.2833)" overflow="visible"/>
				
					<use xlink:href="#New_Symbol_12"  width="83" height="223.4" x="-41.5" y="-111.7" transform="matrix(-1.3466 -0.1585 0.1585 -1.3466 21.2972 606.6152)" overflow="visible"/>
				
					<use xlink:href="#New_Symbol_12"  width="83" height="223.4" x="-41.5" y="-111.7" transform="matrix(1.2905 0.4158 -0.4158 1.2905 6.9095 472.5037)" overflow="visible"/>
				
					<use xlink:href="#New_Symbol_12"  width="83" height="223.4" x="-41.5" y="-111.7" transform="matrix(-1.3524 9.631859e-02 9.631859e-02 1.3524 226.6174 424.9945)" overflow="visible"/>
				
					<use xlink:href="#New_Symbol_12"  width="83" height="223.4" x="-41.5" y="-111.7" transform="matrix(-1.3524 9.631859e-02 9.631859e-02 1.3524 241.1275 294.6404)" overflow="visible"/>
				
					<use xlink:href="#New_Symbol_12"  width="83" height="223.4" x="-41.5" y="-111.7" transform="matrix(-1.1361 0.7401 0.7401 1.1361 315.6432 275.0271)" overflow="visible"/>
				
					<use xlink:href="#New_Symbol_12"  width="83" height="223.4" x="-41.5" y="-111.7" transform="matrix(-5.865476e-02 -1.3546 -1.3546 5.865476e-02 -19.3569 444.899)" overflow="visible"/>
				
					<use xlink:href="#New_Symbol_12"  width="83" height="223.4" x="-41.5" y="-111.7" transform="matrix(7.477854e-02 1.3538 1.3538 -7.477854e-02 7.455 352.9027)" overflow="visible"/>
			</g>
			<use xlink:href="#SVGID_9_"  overflow="visible" fill="none" stroke="#A096C5" stroke-width="1.3559" stroke-miterlimit="10"/>
		</g>
		
			<path fill="#F0CBA1" stroke="#C2986B" stroke-width="1.9313" stroke-linecap="round" stroke-linejoin="round" stroke-miterlimit="10" d="
			M92.6,245.8c5.3,6,12.1,10.7,19.8,13.1c-2.1-17.3-1.2-35,2.5-52c-3.9-4.5-8.4-9.2-14.3-10.1c-6.2-1-12.6,2.8-15.8,8.1
			c-3.2,5.3-3.8,11.9-2.9,18.1C83,231.4,86.9,239.4,92.6,245.8z"/>
		
			<use xlink:href="#New_Symbol_7"  width="71.2" height="106.9" x="-34.3" y="-53.5" transform="matrix(1.3559 -4.325397e-03 -4.325397e-03 -1.3559 117.7482 240.3737)" overflow="visible"/>
		
			<path fill="#F0CBA1" stroke="#C2986B" stroke-width="2.0338" stroke-linecap="round" stroke-linejoin="round" stroke-miterlimit="10" d="
			M157.9,336.9c0,0,34.5-6,69.3-46.8l-49.7-28.3l-37.9,6l0.3,3.5c1.3,15.3,4.3,30.5,8.9,45.1l6.4,20.5L157.9,336.9z"/>
		<g>
			<defs>
				<path id="SVGID_11_" d="M146.7,372.6c0,0,8.6-39.9,30.4-50.7c21.9-10.8,62.8-35.1,56-45.1c0,0,78.4,34.5,79.6,92.7
					c0.2,9.3-4.2,18.2-12.1,23.3c-10.6,6.9-29.8,11.2-63-3.8c-8.9-4-24.8-15.7-32.8-21.3C192.5,359,190.4,359.9,146.7,372.6z"/>
			</defs>
			<use xlink:href="#SVGID_11_"  overflow="visible" fill="#FFFFFF"/>
			<clipPath id="SVGID_12_">
				<use xlink:href="#SVGID_11_"  overflow="visible"/>
			</clipPath>
			<g clip-path="url(#SVGID_12_)">
				
					<use xlink:href="#New_Symbol_12"  width="83" height="223.4" x="-41.5" y="-111.7" transform="matrix(1.3512 -0.1127 -0.1127 -1.3512 139.4622 615.5908)" overflow="visible"/>
				
					<use xlink:href="#New_Symbol_12"  width="83" height="223.4" x="-41.5" y="-111.7" transform="matrix(-1.3039 0.3718 0.3718 1.3039 158.3912 482.0445)" overflow="visible"/>
				
					<use xlink:href="#New_Symbol_12"  width="83" height="223.4" x="-41.5" y="-111.7" transform="matrix(-1.3549 -5.031815e-02 5.031815e-02 -1.3549 36.4648 617.6399)" overflow="visible"/>
				
					<use xlink:href="#New_Symbol_12"  width="83" height="223.4" x="-41.5" y="-111.7" transform="matrix(1.3196 0.3113 -0.3113 1.3196 11.4001 485.1081)" overflow="visible"/>
				
					<use xlink:href="#New_Symbol_12"  width="83" height="223.4" x="-41.5" y="-111.7" transform="matrix(-1.3404 0.2041 0.2041 1.3404 226.6061 420.1842)" overflow="visible"/>
				
					<use xlink:href="#New_Symbol_12"  width="83" height="223.4" x="-41.5" y="-111.7" transform="matrix(-1.3404 0.2041 0.2041 1.3404 230.6472 289.0874)" overflow="visible"/>
				
					<use xlink:href="#New_Symbol_12"  width="83" height="223.4" x="-41.5" y="-111.7" transform="matrix(-1.0733 0.8285 0.8285 1.0733 303.3562 263.5789)" overflow="visible"/>
				
					<use xlink:href="#New_Symbol_12"  width="83" height="223.4" x="-41.5" y="-111.7" transform="matrix(-0.1668 -1.3456 -1.3456 0.1668 -16.9893 459.6919)" overflow="visible"/>
				
					<use xlink:href="#New_Symbol_12"  width="83" height="223.4" x="-41.5" y="-111.7" transform="matrix(0.1828 1.3435 1.3435 -0.1828 -12.9817 357.5501)" overflow="visible"/>
			</g>
			<use xlink:href="#SVGID_11_"  overflow="visible" fill="none" stroke="#A096C5" stroke-width="2.7117" stroke-miterlimit="10"/>
		</g>
		
			<use xlink:href="#New_Symbol_6"  width="36" height="51.6" x="-18" y="-25.8" transform="matrix(1.3444 0.1764 0.1764 -1.3444 297.6705 239.4422)" overflow="visible"/>
		
			<use xlink:href="#New_Symbol_7"  width="71.2" height="106.9" id="XMLID_40_" x="-34.3" y="-53.5" transform="matrix(-1.331 -0.2586 0.2401 -1.2359 276.0895 249.6971)" overflow="visible"/>
		
			<ellipse transform="matrix(1 -3.190121e-03 3.190121e-03 1 -0.7013 0.6257)" fill="#F0CBA1" stroke="#C2986B" stroke-width="2.0338" stroke-linecap="round" stroke-linejoin="round" stroke-miterlimit="10" cx="195.8" cy="220.2" rx="96.8" ry="74.1"/>
		<g>
			<g>
				<path fill="#231F20" d="M164,200c-1.2,6.7-4.9,12.3-8.3,12.5c-3.4,0.2-5.3-5.1-4.1-11.9c1.2-6.7,4.9-12.3,8.3-12.5
					C163.3,187.9,165.2,193.2,164,200z"/>
				<path fill="#231F20" d="M223.7,199.3c-1.2,6.7-4.9,12.3-8.3,12.5c-3.4,0.2-5.3-5.1-4.1-11.9c1.2-6.7,4.9-12.3,8.3-12.5
					C223,187.2,224.9,192.5,223.7,199.3z"/>
			</g>
		</g>
		<g>
			<path fill="#F79838" stroke="#CC6632" stroke-width="2.0338" stroke-linejoin="round" stroke-miterlimit="10" d="M189.6,308.8
				c-2.9,4.1-7.4,7.2-12.4,8.6c-2,0.6-4,0.8-6,0.8c-0.3,0-0.7,0-1,0l-0.1,0c-0.3-0.1-0.6-0.2-0.9-0.2c-1.8-0.5-3.5-1.3-5-2.3
				c-3.7-2.6-6-6.7-6.3-11.2c-0.3-4.9,1.7-10.1,4.6-14.7c2.1-3.3,4.6-6.3,7.3-9.2c1.2-1.3,2.5-2.6,3.7-3.9c1.6,2.7,4.5,4.6,7.9,5.2
				c3.4,0.3,7.2-0.6,10.3-2.7c0.4,1.5,0.7,3,1.1,4.6c0.8,3.4,1.3,6.8,1.4,10.4C194,299,192.8,304.3,189.6,308.8z"/>
			<g>
				<path fill="#F79838" d="M168.4,314.3c-5.2-5.8-5.6-15-1.1-22.4"/>
				<path fill="#CC6632" d="M168.3,314.4c0,0-0.3-0.3-0.7-0.7c-0.2-0.2-0.5-0.5-0.8-0.9c-0.3-0.4-0.6-0.8-0.9-1.3
					c-0.3-0.5-0.6-1-0.9-1.6c-0.3-0.6-0.5-1.3-0.8-1.9c-0.1-0.3-0.2-0.7-0.3-1.1c-0.1-0.4-0.2-0.7-0.2-1.1c-0.1-0.8-0.3-1.5-0.3-2.3
					l-0.1-1.2c0-0.4,0-0.8,0-1.2c0-0.8,0.1-1.5,0.2-2.3c0.2-0.7,0.3-1.4,0.6-2c0.1-0.3,0.2-0.6,0.4-0.9c0.1-0.3,0.3-0.6,0.4-0.8
					c0.2-0.5,0.6-1,0.8-1.4c0.3-0.4,0.5-0.7,0.8-1c0.5-0.5,0.7-0.8,0.7-0.8l0.2,0.1c0,0-0.1,0.4-0.3,1c-0.1,0.3-0.2,0.7-0.3,1.1
					c-0.1,0.4-0.3,0.9-0.4,1.4c-0.1,0.5-0.3,1.1-0.4,1.7c-0.1,0.6-0.3,1.2-0.4,1.9c-0.1,0.7-0.3,1.3-0.4,2c0,0.4-0.1,0.7-0.1,1.1
					l-0.1,1.1c0,0.7,0,1.4,0.1,2.1c0,0.4,0.1,0.7,0.1,1.1c0.1,0.3,0.1,0.7,0.2,1c0.1,0.7,0.3,1.3,0.5,1.9c0.2,0.6,0.4,1.2,0.6,1.6
					c0.2,0.5,0.4,1,0.7,1.3c0.2,0.4,0.4,0.7,0.6,1c0.4,0.5,0.6,0.8,0.6,0.8L168.3,314.4z"/>
			</g>
			<g>
				<path fill="#F79838" d="M172.1,310.3c1-6.9,3.1-13.9,6.1-20.6"/>
				<path fill="#CC6632" d="M172,310.3c0,0,0.1-1.3,0.3-3.4c0.2-2,0.7-4.7,1.3-7.4c0.3-1.3,0.6-2.7,1-3.9c0.2-0.6,0.4-1.2,0.7-1.7
					c0.2-0.5,0.5-1,0.8-1.5c1-1.8,2-2.8,2-2.8l0.2,0.1c0,0,0,0.4-0.1,1c-0.1,0.6-0.3,1.4-0.5,2.4c-0.3,1-0.6,2.1-1,3.3
					c-0.2,0.6-0.5,1.2-0.7,1.8c-0.3,0.6-0.5,1.2-0.7,1.9c-0.9,2.5-1.7,5.1-2.2,7c-0.5,1.9-0.8,3.3-0.8,3.3L172,310.3z"/>
			</g>
			<g>
				<path fill="#F79838" d="M172.7,314.6c7-3.1,12.5-9.9,13.5-16.8"/>
				<path fill="#CC6632" d="M172.7,314.5c0,0,0.3-0.2,0.8-0.5c0.3-0.2,0.6-0.3,0.9-0.6c0.4-0.2,0.7-0.5,1.2-0.8
					c0.8-0.6,1.7-1.4,2.7-2.3c0.4-0.5,0.9-0.9,1.4-1.4c0.4-0.5,0.9-1,1.3-1.6c0.4-0.6,0.8-1.1,1.1-1.7c0.3-0.6,0.6-1.1,0.9-1.7
					c0.3-0.5,0.6-1.1,0.9-1.6c0.3-0.5,0.5-1,0.8-1.4c0.2-0.5,0.5-0.9,0.6-1.2c0.2-0.4,0.4-0.7,0.5-1c0.3-0.6,0.4-0.9,0.4-0.9l0.2,0
					c0,0,0.1,0.4,0.1,1c0,0.3,0,0.7,0,1.2c0,0.4-0.1,0.9-0.2,1.5c-0.1,0.5-0.3,1.1-0.5,1.7c-0.2,0.6-0.5,1.2-0.8,1.8
					c-0.2,0.3-0.4,0.6-0.6,0.9c-0.2,0.3-0.4,0.6-0.7,0.8c-0.4,0.6-0.9,1.1-1.4,1.6c-0.5,0.5-1,1-1.5,1.5c-0.5,0.5-1.1,0.9-1.6,1.3
					c-0.5,0.4-1,0.8-1.6,1.1c-0.5,0.3-1,0.6-1.5,0.9c-0.5,0.3-0.9,0.5-1.3,0.7c-0.4,0.2-0.7,0.3-1,0.4c-0.6,0.2-0.9,0.3-0.9,0.3
					L172.7,314.5z"/>
			</g>
		</g>
		<g>
			<g>
				<polygon fill="#FBDE60" stroke="#B09430" stroke-width="2.4406" stroke-miterlimit="10" points="293.4,148.9 287.4,186.7 
					203.7,164 117.1,170.7 118.4,132.4 206.1,121.5 207.7,121.3 209.2,121.8 				"/>
				<g>
					<defs>
						<path id="SVGID_13_" d="M326.8,87.1c-11,22-22.1,44-33.1,66c-25.1-18.4-54.9-30.3-85.7-34.3c-31.1-1.8-62.6,4.2-90.6,17.7
							c-6.7-23.7-13.5-47.3-20.2-71c-0.5-1.8,1.5-3.1,3-2c1.6,1.2,3,2.6,4.3,4c3.5,4,6,8.6,8.5,13.3c-0.6-1.8-1-3.6-1-5.5
							c0.1-2.5,1.2-5.1,3.3-6.3c2.6-1.4,5.8-0.4,8.4,1c12.9,7.2,17.7,24.2,30.5,31.8c-3.7-4.3-6.5-9.4-8.2-14.8
							c-0.5-1.5-0.8-3.2,0.1-4.3c0.7-0.9,2.1-1.2,3.2-1c1.2,0.2,2.2,0.8,3.2,1.4c3.7,2.2,7.4,4.4,11.1,6.5c2.1,1.2,4.2,2.5,6.6,2.9
							c0.1,0,0.2,0,0.3,0.1c-4.7-4.4-7-11.4-5.7-17.7c1.4-6.9,6.8-12.8,13.6-14.7c2.2-0.6,4.5-0.8,6.8-0.6
							c-1.4-3.9-2.5-7.9-3.1-11.9c-0.3-1.7-0.4-3.7,0.7-5.1c1-1.2,2.7-1.6,4.2-1.3c1.5,0.2,2.9,1.1,4.1,1.9c3,2.1,5.7,4.6,8,7.4
							c0.3-10.5,6.4-20.6,15.3-26c1.5-0.9,3.5-0.8,4.8,0.5c7.7,7.1,11.8,18.1,10.1,28.4c2.8-2.4,5.9-4.3,9.3-5.8
							c1.4-0.6,2.9-1.2,4.4-1.1c1.5,0,3.1,0.7,3.9,2.1c0.8,1.6,0.3,3.5-0.3,5.1c-1.4,3.9-3.1,7.6-5.3,11.2c2.3,0.2,4.5,0.8,6.6,1.8
							c6.3,3.1,10.6,10,10.6,17c0,6.5-3.5,12.9-8.9,16.3c0.1,0,0.2,0,0.3,0c2.4,0,4.8-0.8,7-1.7c4-1.5,8.1-2.9,12.1-4.4
							c1.1-0.4,2.3-0.8,3.4-0.8c1.2,0,2.4,0.6,3,1.6c0.7,1.3,0,3-0.7,4.3c-2.7,5-6.4,9.4-10.8,13c13.9-5,21.8-20.9,35.9-25.6
							c2.8-0.9,6.2-1.3,8.5,0.6c1.9,1.6,2.5,4.4,2.1,6.8c-0.3,1.8-1.1,3.6-2,5.2c3.3-4.1,6.6-8.2,10.8-11.5c1.6-1.2,3.2-2.3,5-3.2
							C325.8,83.7,327.6,85.5,326.8,87.1z"/>
					</defs>
					<use xlink:href="#SVGID_13_"  overflow="visible" fill="#FBDE60"/>
					<clipPath id="SVGID_14_">
						<use xlink:href="#SVGID_13_"  overflow="visible"/>
					</clipPath>
					<g clip-path="url(#SVGID_14_)">
						<path fill="#FBDE60" stroke="#B09430" stroke-width="2.4406" stroke-miterlimit="10" d="M144.1,127
							c-1.8-7.7-5.1-14.9-9.7-21.3c-2.1-3-4.7-5.8-8.2-7c-2.3-0.7-5-0.5-6.6,1.2c-1.7,1.7-1.8,4.5-1.3,6.9c0.5,2.6,1.6,5.2,1.4,7.9
							c-3.3-3.7-7.1-7-11.3-9.7"/>
						<path fill="#FBDE60" stroke="#B09430" stroke-width="2.4406" stroke-miterlimit="10" d="M175.8,120.1
							c6.2-3,11.5-7.9,14.9-13.9c-2.7-4.3-4.1-9.4-4.2-14.5c0-2.1,0.2-4.5,1.7-6c2-2.1,5.5-2.1,8.1-0.7c2.7,1.5,4.6,4.2,6.4,6.7
							c0.7-9.3,4.3-18.3,10.2-25.6c4.5,8.2,6.3,17.8,5.3,27c2.3-2.1,4.6-4.4,7.6-5.3c2.8-0.9,6.3-0.3,7.8,2.2c1.1,1.8,1,4.2,0.5,6.3
							c-1,5-3.4,9.7-6.9,13.4c2.2,6.5,6.5,12.4,12,16.5"/>
						<path fill="#FBDE60" stroke="#B09430" stroke-width="2.4406" stroke-miterlimit="10" d="M269.1,138.8
							c3.2-7.2,7.8-13.7,13.5-19.1c2.7-2.5,5.7-4.9,9.4-5.3c2.4-0.3,5,0.4,6.3,2.4c1.3,2,0.9,4.7,0,7c-1,2.5-2.6,4.8-2.8,7.5
							c3.9-3.1,8.3-5.6,12.9-7.4"/>
					</g>
					
						<use xlink:href="#SVGID_13_"  overflow="visible" fill="none" stroke="#B09430" stroke-width="2.4406" stroke-miterlimit="10"/>
				</g>
				<path fill="#FBDE60" stroke="#B09430" stroke-width="2.4406" stroke-miterlimit="10" d="M295.5,191.9c-0.4,4.6-5.3,7.1-8.8,4.4
					c-16-11.9-47.2-21.7-83.7-25.1c-36.5-3.5-69,0.4-86.9,9c-4,1.9-8.3-1.4-7.8-6l0,0c0.2-1.8,1.1-3.5,2.5-4.5
					c15.5-11.4,52-17,93.6-13c41.6,3.8,76.4,16.2,89.5,30.2C295.1,188.2,295.7,190,295.5,191.9L295.5,191.9z"/>
				<path fill="#FBDE60" stroke="#B09430" stroke-width="2.4406" stroke-miterlimit="10" d="M299.3,151.4c-0.4,4.6-5.3,7.1-8.8,4.4
					c-16-11.9-47.2-21.7-83.7-25.1c-36.5-3.5-69,0.4-86.9,9c-4,1.9-8.3-1.4-7.8-6l0,0c0.2-1.8,1.1-3.5,2.5-4.5
					c15.5-11.4,52-17,93.6-13c41.6,3.8,76.4,16.2,89.5,30.2C298.9,147.8,299.5,149.5,299.3,151.4L299.3,151.4z"/>
			</g>
			<g>
				<g>
					<path fill="#FBDE60" stroke="#B09430" stroke-width="2.4406" stroke-miterlimit="10" d="M223.3,144.2c1.3,1.1,0.8,2.8-1,3.3
						c-3.6,1-9.9,2.1-17.4,1.3c-7.5-0.6-13.5-2.9-16.8-4.5c-1.6-0.8-1.8-2.5-0.4-3.4c5.6-3.2,11.8-5,15.4-5.8c2-0.5,4.2-0.2,6,0.6
						C212.6,137.1,218.4,140,223.3,144.2z"/>
					
						<ellipse transform="matrix(0.9956 9.386609e-02 -9.386609e-02 0.9956 14.1687 -14.3408)" fill="#FBDE60" stroke="#B09430" stroke-width="2.4406" stroke-miterlimit="10" cx="159.5" cy="143.4" rx="7.9" ry="6.5"/>
					<path fill="#FBDE60" stroke="#B09430" stroke-width="2.4406" stroke-miterlimit="10" d="M124,143.9c-1.7-0.2-3.5-0.3-5.3-0.4
						c-3.7,1.9-6.4,4.5-7.6,7.4c-0.4,0.8-0.2,1.8,0.5,2.5c2.1,2.4,5.9,4.3,10.1,5.1c6.1-2.7,11.2-6.2,14.6-10.3
						c0.6-0.7,0.1-1.6-0.9-1.9C131.7,145.1,127.9,144.3,124,143.9z"/>
				</g>
				<g>
					
						<ellipse transform="matrix(-0.9956 -9.386615e-02 9.386615e-02 -0.9956 486.3554 326.9856)" fill="#FBDE60" stroke="#B09430" stroke-width="2.4406" stroke-miterlimit="10" cx="250.9" cy="152.1" rx="7.9" ry="6.5"/>
					<path fill="#FBDE60" stroke="#B09430" stroke-width="2.4406" stroke-miterlimit="10" d="M285.7,159.1c1.8,0.1,3.5,0.3,5.2,0.6
						c3.3,2.5,5.5,5.6,6.1,8.7c0.2,0.9-0.1,1.8-0.9,2.4c-2.5,1.9-6.6,3.2-10.9,3.2c-5.5-3.8-9.8-8.2-12.4-12.9
						c-0.4-0.8,0.2-1.6,1.2-1.7C277.9,158.9,281.8,158.8,285.7,159.1z"/>
				</g>
			</g>
		</g>
		
			<ellipse transform="matrix(0.916 0.4012 -0.4012 0.916 119.8496 -63.3598)" fill="#231F20" cx="211.2" cy="254.5" rx="18.5" ry="10.1"/>
		<path fill="#F79838" stroke="#CC6632" stroke-width="2.0338" stroke-linejoin="round" stroke-miterlimit="10" d="M250.5,231.3
			c-0.1-0.5-0.6-0.9-1.1-0.7l-9.4,2.4c-1.2,0.3-2.5,0.3-3.7-0.2l-6.6-2.3c-4.3-1.5-8.5-3.5-12.2-6.2c-9.4-6.9-18.6-6.8-27.2-4.7
			c-2.7,9.8-14.2,9.2-14.2,9.2l-2-3c-27.3-9.5-32.6,14.1-33.6,22.4c-0.2,2-0.8,3.9-1.7,5.7l-0.9,1.8c-0.7,1.5-2.4,2.2-4,1.7
			c-2.4-0.8-3.8-1.6-4.6-2.1c-0.3-0.2-0.7,0-0.8,0.3c-1.1,9.9,6.5,14.4,14.1,14c8.9-0.4,21.4-13.2,28.1-20.9
			c0.8-0.9,1.2-2.1,1.1-3.3c-0.5-6.6,1.9-10.8,1.9-10.8c1.5,4,3.5,6.9,5.6,9c1.2,1.2,2.8,2.2,4.5,2.7c8.4,2.5,11.7,0.8,11.7,0.8
			C252.7,272.2,251.2,237.7,250.5,231.3z"/>
		
			<path fill="#F0CBA1" stroke="#C2986B" stroke-width="2.0338" stroke-linecap="round" stroke-linejoin="round" stroke-miterlimit="10" d="
			M180.2,228.5c0,0-23.7,2.8-23.1-15.2c0.6-16.6,26.4-15,26.4-15"/>
		<g>
			<g>
				<path fill="#CC6632" d="M168.6,234c0,0-0.7,0.1-1.8,0.4c-0.6,0.2-1.2,0.4-2,0.8c-0.7,0.4-1.5,0.9-2.3,1.5
					c-0.8,0.6-1.5,1.4-2.2,2.3c-0.2,0.2-0.3,0.5-0.5,0.7c-0.2,0.2-0.3,0.5-0.4,0.8c-0.3,0.5-0.5,1.1-0.8,1.6
					c-0.5,1.1-0.7,2.4-1.2,3.7c-0.4,1.3-0.9,2.7-1.5,3.9c-0.5,1.3-1.1,2.6-1.7,3.8c-0.6,1.3-1.2,2.5-1.8,3.6c-0.6,1.2-1.3,2.2-2,3.2
					c-0.7,1-1.4,1.9-2.3,2.6c-0.4,0.4-0.8,0.7-1.2,1c-0.4,0.3-0.8,0.5-1.2,0.7c-0.8,0.4-1.5,0.7-2.1,0.8c-0.3,0.1-0.6,0.1-0.8,0.2
					c-0.2,0-0.4,0-0.6,0.1c-0.3,0-0.5,0.1-0.5,0.1s0.2-0.1,0.5-0.1c0.2,0,0.3-0.1,0.6-0.2c0.2-0.1,0.5-0.2,0.7-0.3
					c0.5-0.2,1.2-0.6,1.8-1.1c0.3-0.2,0.7-0.5,1-0.8c0.3-0.3,0.7-0.6,1-1c0.7-0.7,1.3-1.7,1.9-2.6c0.6-1,1.2-2.1,1.7-3.2
					c0.6-1.1,1.1-2.4,1.6-3.6c0.5-1.2,1.1-2.5,1.6-3.8c0.5-1.3,1.1-2.5,1.5-3.8c0.4-1.2,0.8-2.6,1.4-3.8c0.3-0.6,0.6-1.2,0.9-1.8
					c0.2-0.3,0.3-0.6,0.5-0.8c0.2-0.2,0.4-0.5,0.6-0.7c0.4-0.5,0.8-0.9,1.3-1.3c0.5-0.4,0.9-0.7,1.3-1c0.9-0.6,1.8-1,2.6-1.3
					c0.8-0.3,1.6-0.4,2.2-0.5c0.6-0.1,1.1-0.1,1.4-0.1C168.5,234,168.6,234,168.6,234z"/>
			</g>
			<g>
				<path fill="#CC6632" d="M167.9,226.2c0,0-0.9-0.1-2.6,0c-1.6,0.1-4,0.4-6.5,1.5c-1.2,0.6-2.5,1.4-3.6,2.4
					c-1.1,1.1-2.1,2.4-2.9,3.9c-0.8,1.5-1.3,3.2-1.7,4.9c-0.4,1.8-0.5,3.6-0.7,5.5c-0.2,1.9-0.5,3.8-0.8,5.7
					c-0.4,1.9-0.9,3.7-1.6,5.4c-0.7,1.7-1.6,3.3-2.8,4.5c-1.2,1.3-2.7,2.2-4.2,2.5c-1.5,0.4-2.9,0.2-4-0.1c-1.2-0.3-2.1-0.7-2.8-1.1
					c-0.7-0.4-1.3-0.7-1.7-1c-0.4-0.2-0.6-0.4-0.6-0.4s0.2,0.1,0.6,0.3c0.4,0.2,1,0.4,1.8,0.8c0.8,0.3,1.7,0.6,2.8,0.8
					c1.1,0.2,2.4,0.2,3.6-0.2c1.3-0.4,2.5-1.2,3.4-2.4c1-1.2,1.7-2.6,2.4-4.2c1.2-3.2,1.8-6.9,2.2-10.6c0.2-1.8,0.3-3.8,0.8-5.7
					c0.4-1.9,1.1-3.7,2-5.3c0.9-1.6,2.1-3,3.4-4.1c1.3-1.1,2.7-1.9,4.1-2.4c2.8-1,5.2-1,6.9-1C167,225.9,167.9,226.2,167.9,226.2z"
					/>
			</g>
			<g>
				<path fill="#CC6632" d="M134.8,258.1c0,0,0.6-0.1,1.6-0.4c0.5-0.1,1.1-0.2,1.9-0.4c0.6-0.1,1.1-0.6,1.5-1.4
					c0.4-0.7,0.6-1.6,0.9-2.6c0.2-1,0.4-2,0.6-3.1c0.2-1.1,0.3-2.3,0.5-3.4c0.2-1.2,0.4-2.4,0.6-3.6c0.2-1.2,0.5-2.4,0.7-3.6
					c0.3-1.2,0.6-2.3,0.9-3.4c0.7-2.2,1.7-4.2,2.8-5.7c1.1-1.5,2.4-2.5,3.3-3c0.5-0.3,0.9-0.4,1.1-0.5c0.3-0.1,0.4-0.1,0.4-0.1
					s-0.1,0.1-0.4,0.2c-0.2,0.1-0.6,0.4-1,0.7c-0.8,0.7-1.8,1.7-2.7,3.3c-0.8,1.5-1.6,3.5-2.1,5.6c-0.6,2.1-1,4.5-1.4,6.8
					c-0.2,1.2-0.4,2.4-0.6,3.5c-0.2,1.2-0.4,2.3-0.7,3.4c-0.2,1.1-0.5,2.2-0.8,3.2c-0.3,1-0.7,2-1.3,2.8c-0.3,0.4-0.6,0.8-1,1.1
					c-0.4,0.3-0.9,0.4-1.3,0.5c-0.7,0-1.4,0.1-1.9,0.1C135.4,258.1,134.8,258.1,134.8,258.1z"/>
			</g>
			<g>
				<path fill="#CC6632" d="M157.2,258.8c0,0,0.2-0.3,0.6-0.7c0.2-0.2,0.4-0.5,0.6-0.8c0.2-0.3,0.5-0.7,0.8-1.1
					c0.5-0.8,1.1-1.8,1.7-2.8c0.6-1.1,1.2-2.2,1.8-3.4c0.3-0.6,0.7-1.1,1-1.7c0.3-0.6,0.7-1.1,1-1.6c0.3-0.5,0.7-1,1.1-1.5
					c0.4-0.5,0.8-0.8,1.3-1.1c0.5-0.3,1.1-0.5,1.5-0.4c0.5,0.1,0.8,0.3,1.1,0.5c0.2,0.2,0.4,0.4,0.5,0.5c0.1,0.1,0.1,0.2,0.1,0.2
					c0,0-0.3-0.2-0.8-0.4c-0.3-0.1-0.6-0.2-0.9-0.1c-0.3,0-0.6,0.2-0.9,0.5c-0.6,0.6-1.2,1.6-1.7,2.6c-0.6,1.1-1.2,2.2-1.8,3.4
					c-0.3,0.6-0.7,1.1-1,1.7c-0.3,0.6-0.7,1.1-1.1,1.6c-0.7,1-1.5,1.9-2.2,2.7c-0.7,0.7-1.4,1.2-1.9,1.5c-0.2,0.2-0.5,0.2-0.6,0.3
					C157.3,258.7,157.2,258.8,157.2,258.8z"/>
			</g>
			<g>
				<path fill="#CC6632" d="M187.6,224.8c1.9-1.6,4.2-2.7,6.5-3.6c2.4-0.8,4.9-1.2,7.4-1.2c2.5,0,5.1,0.5,7.5,1.4
					c1.2,0.4,2.4,0.9,3.5,1.6c1.1,0.6,2.2,1.3,3.2,2c1,0.7,2,1.5,3,2.3c1,0.7,1.9,1.4,3,2.1c2,1.3,4.2,2.4,6.4,3.3
					c2.2,0.9,4.6,1.6,6.9,2c1.2,0.2,2.4,0.3,3.6,0.3c1.2,0,2.4,0,3.6-0.2l-0.1,0.1c2.2-1.2,4.4-2.5,6.7-3.7c-2,1.5-4.1,3-6.2,4.5
					c0,0-0.1,0-0.1,0l0,0c-1.3,0.3-2.5,0.5-3.8,0.5c-1.3,0.1-2.5,0-3.8-0.1c-2.5-0.2-5-0.9-7.4-1.8c-2.4-0.9-4.6-2.1-6.7-3.4
					c-1.1-0.7-2.1-1.4-3.1-2.2c-1-0.8-1.9-1.6-2.9-2.3c-1-0.7-2-1.4-3-2c-1-0.6-2.1-1.1-3.2-1.6c-1.1-0.4-2.2-0.8-3.4-1.1
					c-1.2-0.3-2.4-0.4-3.6-0.5c-2.4-0.2-4.8,0.1-7.2,0.7c-1.2,0.3-2.3,0.7-3.5,1.2C189.7,223.5,188.6,224.1,187.6,224.8z"/>
			</g>
			<g>
				<path fill="#CC6632" d="M181.9,230.9c0.5-0.4,1.1-0.8,1.6-1.1c0.6-0.3,1.2-0.7,1.8-0.9c0.6-0.3,1.2-0.5,1.9-0.7l1-0.3l1-0.2
					c0.7-0.2,1.3-0.3,2-0.3c0.7-0.1,1.3-0.1,2-0.1c0.7,0,1.4,0,2,0l1,0.1l1,0.1c0.7,0.1,1.3,0.2,2,0.4c0.7,0.2,1.3,0.3,2,0.5
					l1.9,0.6l1.9,0.7c0.6,0.2,1.2,0.5,1.9,0.8c0.6,0.3,1.2,0.5,1.8,0.9c1.2,0.6,2.4,1.2,3.5,2c1.2,0.7,2.3,1.4,3.4,2.2l3.3,2.2
					c0.6,0.3,1.1,0.7,1.7,1c0.5,0.3,1.1,0.6,1.7,0.9c0.6,0.3,1.2,0.6,1.7,0.9l1.8,0.8c1.2,0.5,2.4,0.9,3.7,1.2
					c0.6,0.2,1.2,0.3,1.9,0.5c0.6,0.2,1.3,0.2,1.9,0.3c1.3,0.2,2.6,0.3,3.9,0.3c1.3,0,2.6-0.1,3.8-0.3l-0.1,0.1
					c0.9-0.5,1.7-1.2,2.5-1.8c0.8-0.6,1.6-1.3,2.3-2.1c0.2-0.2,0.4-0.4,0.5-0.6c0.2-0.2,0.3-0.4,0.5-0.6c0.3-0.4,0.6-0.8,0.9-1.3
					c0.1-0.2,0.2-0.5,0.4-0.7c0.1-0.2,0.2-0.5,0.3-0.7c0.1-0.3,0.2-0.5,0.2-0.8l0.1-0.8l0,0.8c0,0.3-0.1,0.5-0.1,0.8
					c0,0.3-0.1,0.5-0.2,0.8c-0.1,0.3-0.2,0.5-0.3,0.8c-0.2,0.5-0.5,1-0.8,1.4c-0.1,0.2-0.3,0.4-0.5,0.7c-0.2,0.2-0.3,0.4-0.5,0.6
					c-0.7,0.9-1.4,1.6-2.2,2.4c-0.8,0.7-1.6,1.4-2.5,2.1c0,0-0.1,0-0.1,0.1l0,0c-1.4,0.4-2.7,0.5-4.1,0.6c-1.4,0-2.7,0-4.1-0.2
					c-0.7-0.1-1.3-0.2-2-0.3c-0.7-0.1-1.3-0.2-2-0.4c-1.3-0.3-2.6-0.7-3.9-1.2l-1.9-0.8c-0.6-0.3-1.2-0.6-1.8-0.9
					c-0.6-0.3-1.2-0.6-1.8-1c-0.6-0.3-1.2-0.7-1.8-1c-1.1-0.7-2.2-1.5-3.3-2.2c-1.1-0.7-2.1-1.5-3.3-2.2c-1.1-0.7-2.2-1.3-3.4-2
					c-0.6-0.3-1.2-0.6-1.7-0.9c-0.6-0.3-1.2-0.6-1.8-0.8l-1.8-0.7l-1.8-0.6c-0.6-0.2-1.2-0.4-1.9-0.5c-0.6-0.2-1.3-0.3-1.9-0.4
					l-1-0.2l-1-0.1c-0.6-0.1-1.3-0.2-1.9-0.1c-0.6,0-1.3,0-1.9,0c-0.6,0-1.3,0.1-1.9,0.2l-1,0.1l-0.9,0.2c-0.6,0.1-1.3,0.3-1.9,0.6
					C184.2,229.6,183,230.2,181.9,230.9z"/>
			</g>
			<g>
				<path fill="#CC6632" d="M178.1,233.3c0,0,0.8,0.8,2.1,2.2c0.7,0.7,1.5,1.5,2.6,2.4c0.5,0.4,1.1,0.9,1.7,1.3
					c0.6,0.4,1.3,0.9,1.8,0.6c1.6-0.5,3.5-0.9,5.5-0.9c2-0.1,4.1,0.2,6.2,0.6c2.1,0.4,4.2,0.9,6.4,1.6c2.1,0.7,4.3,1.4,6.4,2.2
					c4.2,1.6,8.4,3.2,12.3,4.4c2,0.6,3.9,1.1,5.8,1.4c1.9,0.3,3.6,0.4,5.3,0.3c0.8,0,1.6-0.2,2.3-0.3c0.7-0.2,1.4-0.3,2-0.6
					c0.6-0.2,1.2-0.5,1.7-0.8c0.5-0.3,1-0.5,1.4-0.8c0.4-0.3,0.8-0.5,1-0.8c0.3-0.3,0.5-0.5,0.7-0.6c0.4-0.4,0.6-0.5,0.6-0.5
					s-0.2,0.2-0.5,0.6c-0.2,0.2-0.4,0.4-0.6,0.7c-0.3,0.3-0.6,0.6-1,0.9c-0.4,0.3-0.8,0.7-1.3,1c-0.5,0.4-1.1,0.6-1.7,1
					c-0.6,0.3-1.3,0.5-2.1,0.8c-0.8,0.2-1.6,0.4-2.4,0.5c-0.9,0.1-1.8,0.2-2.7,0.2c-0.9,0-1.9-0.1-2.9-0.2c-2-0.2-4-0.6-6-1.2
					c-2.1-0.6-4.2-1.2-6.2-2c-2.1-0.8-4.2-1.5-6.3-2.3c-4.2-1.6-8.4-3.1-12.4-4c-2-0.4-4-0.8-5.9-0.8c-1.9,0-3.6,0.1-5.2,0.6
					c-0.1,0-0.6,0.1-0.8,0c-0.3-0.1-0.5-0.1-0.7-0.3c-0.4-0.2-0.7-0.4-1.1-0.7c-0.6-0.5-1.1-1-1.6-1.5c-1-1-1.7-1.9-2.4-2.7
					C178.8,234.2,178.1,233.3,178.1,233.3z"/>
			</g>
		</g>
		
			<path fill="none" stroke="#CC6632" stroke-width="2.7117" stroke-linecap="round" stroke-linejoin="round" stroke-miterlimit="10" d="
			M147.5,183.5c0,0,1.3-9.5,12.8-14.3"/>
		
			<path fill="none" stroke="#CC6632" stroke-width="2.7117" stroke-linecap="round" stroke-linejoin="round" stroke-miterlimit="10" d="
			M232,185.1c0,0-4.1-8.7-16.5-9.7"/>
		<g>
			
				<ellipse transform="matrix(0.9138 0.4062 -0.4062 0.9138 159.003 -30.713)" fill="#D0D2D3" stroke="#93999F" stroke-width="2.7117" stroke-miterlimit="10" cx="151.8" cy="359.2" rx="24.7" ry="33.5"/>
			
				<ellipse transform="matrix(0.9138 0.4062 -0.4062 0.9138 158.1063 -29.1747)" fill="#D0D2D3" stroke="#93999F" stroke-width="2.7117" stroke-miterlimit="10" cx="147.8" cy="357.8" rx="13" ry="17.7"/>
		</g>
		<g>
			<path fill="#BE1E2D" d="M268.8,541.2c0,0-6.8-10-8.6-22.6c-2.7-18.2-20.5-65.3-20.5-65.3"/>
			<path fill="#EC1C24" d="M268.7,541.2c0,0-0.8-1.2-2.1-3.4c-1.3-2.2-2.9-5.5-4.5-9.6c-0.7-2.1-1.5-4.3-2-6.8
				c-0.5-2.5-0.9-5.1-1.6-7.7c-0.6-2.6-1.4-5.3-2.1-8.1c-0.8-2.7-1.6-5.5-2.5-8.3c-0.9-2.8-1.8-5.5-2.7-8.2
				c-0.9-2.7-1.9-5.3-2.8-7.9c-0.8-2.6-1.7-5.1-2.5-7.4c-0.8-2.4-1.5-4.6-2.1-6.7c-2.6-8.3-4.2-13.9-4.2-13.9l0.2-0.1
				c0,0,2.5,5.2,5.8,13.4c0.8,2,1.7,4.2,2.5,6.6c0.9,2.3,1.7,4.8,2.6,7.4c0.8,2.6,1.7,5.3,2.5,8c0.8,2.7,1.7,5.5,2.4,8.3
				c0.8,2.8,1.6,5.6,2.3,8.4c0.7,2.8,1.4,5.5,1.9,8.2c0.3,1.3,0.5,2.7,0.7,4c0.2,1.3,0.4,2.6,0.6,3.8c0.4,2.4,1.1,4.7,1.7,6.7
				c1.3,4.1,2.9,7.4,4,9.7c1.2,2.3,2,3.5,2,3.5L268.7,541.2z"/>
		</g>
		<g>
			<path fill="#BE1E2D" d="M268.7,522.6c0,0-15.8-18.6,4.6-86.2"/>
			<path fill="#EC1C24" d="M268.6,522.6c0,0-0.2-0.3-0.6-0.8c-0.3-0.6-0.8-1.4-1.3-2.5c-0.3-0.5-0.5-1.2-0.8-1.9
				c-0.3-0.7-0.6-1.4-0.8-2.2c-0.2-0.8-0.6-1.7-0.8-2.6c-0.2-0.9-0.4-1.9-0.7-2.9c-0.2-1-0.4-2.1-0.5-3.2c-0.1-0.6-0.2-1.1-0.3-1.7
				c-0.1-0.6-0.1-1.2-0.2-1.8c-0.1-1.2-0.2-2.4-0.3-3.7c0-1.3-0.1-2.5-0.1-3.8c-0.1-2.6,0.1-5.3,0.1-8c0-1.4,0.2-2.7,0.3-4.1
				c0.1-1.4,0.2-2.8,0.3-4.1c0.2-2.8,0.7-5.5,1-8.2c0.1-0.7,0.2-1.4,0.3-2c0.1-0.7,0.2-1.3,0.4-2c0.2-1.3,0.5-2.6,0.7-3.9
				c0.3-1.3,0.5-2.5,0.8-3.8c0.3-1.2,0.6-2.4,0.9-3.6c0.6-2.3,1.2-4.5,1.8-6.5c0.3-1,0.6-1.9,0.9-2.8c0.3-0.9,0.6-1.7,0.9-2.5
				c0.5-1.6,1-3,1.5-4.1c0.8-2.3,1.3-3.6,1.3-3.6l0.2,0.1c0,0-0.2,1.4-0.7,3.7c-0.2,1.2-0.5,2.6-0.9,4.3c-0.4,1.6-0.8,3.5-1.2,5.5
				c-0.4,2-0.9,4.2-1.4,6.5c-0.3,1.2-0.5,2.3-0.8,3.5c-0.2,1.2-0.5,2.5-0.7,3.7c-0.3,1.3-0.5,2.5-0.8,3.8c-0.1,0.6-0.3,1.3-0.4,2
				c-0.1,0.7-0.2,1.3-0.3,2c-0.4,2.7-1,5.4-1.3,8.1c-0.2,1.4-0.3,2.7-0.5,4.1c-0.1,1.4-0.3,2.7-0.4,4.1c-0.1,2.7-0.4,5.3-0.4,7.9
				c0,1.3,0,2.6,0,3.8c0.1,1.2,0.1,2.4,0.2,3.6c0,0.6,0.1,1.2,0.1,1.7c0.1,0.6,0.1,1.1,0.2,1.7c0.1,1.1,0.2,2.2,0.4,3.2
				c0.2,1,0.4,2,0.5,2.9c0.2,0.9,0.4,1.8,0.6,2.6c0.2,0.8,0.4,1.6,0.7,2.2c0.2,0.7,0.4,1.3,0.7,1.9c0.9,2.2,1.8,3.3,1.8,3.3
				L268.6,522.6z"/>
		</g>
		<g>
			<defs>
				<path id="SVGID_15_" d="M-48.9,535.6c0.1,18.9,1.3,24.4,6.4,33.4c0,0-1.2,13.3-1.7,30.8c-0.1,2.5,0.2,4.9,0.7,7.1
					c15.3-10.7,31.4-21.6,40.6-27.1c0,0,8.1-6.1,17.4-16.4c-1-14.1-3-31.1-6.9-44.7C1.8,499.3-5,480.8-12.1,473.1
					c-10.6-11.7-26.4-14-36.9-14.2c-6.5-0.1-12.8,2.1-18,6l-11.1,8.4l-38.8,17.6c-4.8,2.2-8.8,5.7-11.4,10.3c-9,15.7-3,32.9-3,32.9
					l56.9-21L-48.9,535.6z"/>
			</defs>
			<use xlink:href="#SVGID_15_"  overflow="visible" fill="#FFFFFF"/>
			<clipPath id="SVGID_16_">
				<use xlink:href="#SVGID_15_"  overflow="visible"/>
			</clipPath>
			<g clip-path="url(#SVGID_16_)">
				
					<use xlink:href="#New_Symbol_12"  width="83" height="223.4" x="-41.5" y="-111.7" transform="matrix(1.3559 -4.325397e-03 -4.325397e-03 -1.3559 124.1288 612.8078)" overflow="visible"/>
				
					<use xlink:href="#New_Symbol_12"  width="83" height="223.4" x="-41.5" y="-111.7" transform="matrix(-1.3294 0.2664 0.2664 1.3294 153.6749 481.2025)" overflow="visible"/>
				
					<use xlink:href="#New_Symbol_12"  width="83" height="223.4" x="-41.5" y="-111.7" transform="matrix(-1.3466 -0.1585 0.1585 -1.3466 21.2972 606.6152)" overflow="visible"/>
				
					<use xlink:href="#New_Symbol_12"  width="83" height="223.4" x="-41.5" y="-111.7" transform="matrix(1.2905 0.4158 -0.4158 1.2905 6.9095 472.5037)" overflow="visible"/>
				
					<use xlink:href="#New_Symbol_12"  width="83" height="223.4" x="-41.5" y="-111.7" transform="matrix(-1.3524 9.631859e-02 9.631859e-02 1.3524 226.6174 424.9945)" overflow="visible"/>
				
					<use xlink:href="#New_Symbol_12"  width="83" height="223.4" x="-41.5" y="-111.7" transform="matrix(-1.3524 9.631859e-02 9.631859e-02 1.3524 241.1275 294.6404)" overflow="visible"/>
				
					<use xlink:href="#New_Symbol_12"  width="83" height="223.4" x="-41.5" y="-111.7" transform="matrix(-1.1361 0.7401 0.7401 1.1361 315.6432 275.0271)" overflow="visible"/>
				
					<use xlink:href="#New_Symbol_12"  width="83" height="223.4" x="-41.5" y="-111.7" transform="matrix(-5.865476e-02 -1.3546 -1.3546 5.865476e-02 -19.3569 444.899)" overflow="visible"/>
				
					<use xlink:href="#New_Symbol_12"  width="83" height="223.4" x="-41.5" y="-111.7" transform="matrix(7.477854e-02 1.3538 1.3538 -7.477854e-02 -7.1954 343.4046)" overflow="visible"/>
			</g>
			<use xlink:href="#SVGID_15_"  overflow="visible" fill="none" stroke="#A096C5" stroke-width="2.7117" stroke-miterlimit="10"/>
		</g>
		<g>
			<path fill="#EC1C24" d="M63.8,420.1c-0.9,2.1-1.7,4.2-2.4,6.4c-0.7,2.2-1.3,4.3-1.7,6.5c-0.5,2.2-0.8,4.4-0.9,6.7
				c-0.1,2.2,0,4.5,0.4,6.6l0,0.1l0,0.1c-1.7,8.3-2.9,16.8-4.5,25.2c-1.5,8.4-3.3,16.8-5.8,25.1c-0.6,2.1-1.3,4.1-2,6.1
				c-0.7,2-1.5,4-2.4,6c-1.7,4-3.7,7.8-6,11.5c-2.3,3.7-4.9,7.1-7.9,10.3c-3,3.1-6.3,5.9-10,8.2l-0.2-0.2c1.6-1.4,3.2-2.8,4.7-4.3
				c1.5-1.5,2.9-3.1,4.2-4.7c2.7-3.3,5-6.8,7.1-10.4c2.1-3.6,3.9-7.5,5.5-11.3c0.8-1.9,1.6-3.9,2.3-5.9c0.7-2,1.4-4,2.1-6
				c2.7-8,4.7-16.3,6.4-24.6c0.9-4.2,1.7-8.4,2.5-12.5c0.8-4.2,1.6-8.4,2.6-12.6l0,0.2c-0.4-2.3-0.4-4.6-0.2-6.9
				c0.2-2.3,0.6-4.5,1.2-6.8c0.5-2.2,1.2-4.4,2-6.5c0.8-2.1,1.6-4.2,2.6-6.3L63.8,420.1z"/>
		</g>
	</g>
</g>
</svg>
