<?xml version="1.0" encoding="utf-8"?>
<!-- Generator: Adobe Illustrator 19.1.0, SVG Export Plug-In . SVG Version: 6.00 Build 0)  -->
<svg version="1.1" id="Layer_1" xmlns="http://www.w3.org/2000/svg" xmlns:xlink="http://www.w3.org/1999/xlink" x="0px" y="0px"
	 width="500px" height="500px" viewBox="0 0 500 500" style="enable-background:new 0 0 500 500;" xml:space="preserve">
<style type="text/css">
	.st0{fill:#D8D8D7;stroke:#989898;stroke-miterlimit:10;}
	.st1{fill:#C1C1BC;stroke:#5B5A5E;stroke-width:4;stroke-miterlimit:10;}
	.st2{fill:#6D6E70;stroke:#333333;stroke-miterlimit:10;}
	.st3{fill:#D0D2D3;stroke:#929497;stroke-miterlimit:10;}
	.st4{fill:#F9EC31;stroke:#978832;stroke-miterlimit:10;}
	.st5{fill:#F37425;stroke:#BC6328;stroke-miterlimit:10;}
	.st6{fill:#404041;stroke:#6D6E70;stroke-miterlimit:10;}
	.st7{fill:none;stroke:#BC6328;stroke-miterlimit:10;}
	.st8{fill:#929497;stroke:#686868;stroke-miterlimit:10;}
	.st9{fill:#6D6E70;stroke:#333333;stroke-width:0.75;stroke-miterlimit:10;}
	.st10{clip-path:url(#SVGID_2_);}
	.st11{fill:#CEBAF4;}
	.st12{fill:#635C93;}
	.st13{fill:#EE4C67;stroke:#BE1E2D;stroke-width:0.8866;stroke-miterlimit:10;}
	.st14{fill:#26A9E0;stroke:#1B75BB;stroke-width:0.8866;stroke-miterlimit:10;}
	.st15{fill:#FCCB97;stroke:#CB724A;stroke-width:0.8866;stroke-miterlimit:10;}
	.st16{fill:#676768;stroke:#333333;stroke-width:0.8866;stroke-linecap:round;stroke-linejoin:round;stroke-miterlimit:10;}
	.st17{fill:#2C1A12;stroke:#603A17;stroke-width:1.7731;stroke-linecap:round;stroke-linejoin:round;stroke-miterlimit:10;}
	.st18{fill:#664330;stroke:#382219;stroke-width:2.0788;stroke-miterlimit:10;}
	.st19{fill:#C07F5F;}
	.st20{fill:#945535;}
	.st21{fill:#F4E0A5;stroke:#988A41;stroke-width:1.7731;stroke-miterlimit:10;}
	.st22{fill:#988A41;}
	.st23{fill:#C07F5F;stroke:#945535;stroke-width:1.7731;stroke-linecap:round;stroke-linejoin:round;stroke-miterlimit:10;}
	.st24{fill:#EFCAA0;stroke:#C1966B;stroke-width:1.7731;stroke-linecap:round;stroke-linejoin:round;stroke-miterlimit:10;}
	.st25{fill:#2C4351;stroke:#6D6E70;stroke-width:1.5913;stroke-miterlimit:10;}
	.st26{fill:#EFCAA0;}
	.st27{fill:#C1966B;}
	.st28{fill:#404666;stroke:#6E7DAA;stroke-width:1.7731;stroke-miterlimit:10;}
	.st29{fill:#6E7DAA;}
	.st30{fill:#F6921E;stroke:#B5581A;stroke-width:1.7731;stroke-miterlimit:10;}
	.st31{fill:#231F20;}
	.st32{clip-path:url(#SVGID_4_);fill:#BE1E2D;stroke:#6B0E1E;stroke-width:1.7731;stroke-miterlimit:10;}
	.st33{fill:#B5581A;}
	.st34{fill:#BE1E2D;stroke:#83161D;stroke-width:1.7731;stroke-miterlimit:10;}
	.st35{fill:#BE1E2D;}
	.st36{fill:#83161D;}
	.st37{fill:#B56830;}
	.st38{fill:#2C1A12;}
	.st39{fill:#603A17;}
	.st40{fill:#FFFFFF;stroke:#808184;stroke-width:1.7731;stroke-miterlimit:10;}
	.st41{fill:#404041;stroke:#6D6E70;stroke-width:1.4327;stroke-miterlimit:10;}
	.st42{fill:#CB724A;stroke:#CB724A;stroke-width:0.8866;stroke-miterlimit:10;}
	.st43{fill:#6E87C3;stroke:#59709A;stroke-width:0.8866;stroke-miterlimit:10;}
	.st44{fill:#F398C0;stroke:#CC6699;stroke-width:0.8866;stroke-miterlimit:10;}
	.st45{fill:#404041;stroke:#6D6E70;stroke-width:1.6881;stroke-miterlimit:10;}
	.st46{fill:#FFCC05;stroke:#CA9731;stroke-width:1.7731;stroke-miterlimit:10;}
	.st47{fill:#FFFFFF;stroke:#808184;stroke-width:0.8866;stroke-miterlimit:10;}
	.st48{fill:#3BC2EC;stroke:#2188B7;stroke-width:0.8866;stroke-linecap:round;stroke-linejoin:round;stroke-miterlimit:10;}
	.st49{fill:#FCCB97;stroke:#CB724A;stroke-width:0.7159;stroke-miterlimit:10;}
</style>
<symbol  id="New_Symbol_45" viewBox="-14.484 -14.552 28.996 29.075">
	<path class="st0" d="M-11.706-13.897L1.101-7.798C5.474-5.715,8.809-1.94,10.337,2.657l3.53,10.62c0,0-15.216,3.835-23.54-5.896
		S-11.706-13.897-11.706-13.897z"/>
</symbol>
<symbol  id="New_Symbol_46" viewBox="-19.954 -21.787 40.207 43.467">
	<path class="st1" d="M17.954-19.654l-25.796,1.46c-5.378,0.304-9.612,4.705-9.708,10.091l-0.403,22.576
		c-0.051,2.86,2.254,5.206,5.114,5.206h25.593L17.954-19.654z"/>
</symbol>
<symbol  id="New_Symbol_47" viewBox="-34.167 -34.167 68.333 68.333">
	<path class="st2" d="M33.667,0c0-18.594-15.073-33.667-33.667-33.667S-33.667-18.594-33.667,0S-18.594,33.667,0,33.667
		S33.667,18.593,33.667,0z"/>
	<path class="st3" d="M18.333,0c0-10.125-8.208-18.333-18.333-18.333S-18.333-10.125-18.333,0S-10.125,18.333,0,18.333
		S18.333,10.125,18.333,0z"/>
</symbol>
<symbol  id="New_Symbol_48" viewBox="-74.164 -23.967 148.202 48.309">
	<polygon class="st2" points="-11.9,-17.494 -22.812,-17.494 -22.812,-4.938 -11.9,-4.938 	"/>
	<path class="st4" d="M-64.697,4.023c0-2.06-1.67-3.729-3.729-3.729s-3.729,1.67-3.729,3.729s1.67,3.729,3.729,3.729
		S-64.697,6.082-64.697,4.023z"/>
	<path class="st5" d="M-21.85-19.986h-48.822c-0.819,0-1.484,0.664-1.484,1.484v16.595c0,6.816,5.525,12.341,12.341,12.341h6.263
		l3.777,10.419c0.65,1.794,2.354,2.989,4.263,2.989h22.532c1.443,0,2.613-1.17,2.613-2.613v-39.731
		C-20.366-19.322-21.03-19.986-21.85-19.986z"/>
	<path class="st2" d="M-68.552-20.74h-0.288c-2.664,0-4.824,2.16-4.824,4.824v5.367c0,1.129,0.915,2.043,2.043,2.043h3.068V-20.74z"
		/>
	<g>
		<path class="st6" d="M-32.015,21.475h-12.11c-1.617,0-3.062-1.013-3.613-2.533c0,0-0.808-2.228-1.612-4.446
			c-0.797-2.198-1.59-4.385-1.59-4.385s9.494,0,18.924,0V21.475z"/>
		<path class="st6" d="M-25.027,21.475h-5.228V10.111c2.599,0,5.148,0,7.443,0c0,2.541,0,9.149,0,9.149
			C-22.812,20.483-23.803,21.475-25.027,21.475z"/>
	</g>
	<polyline class="st7" points="-30.255,10.111 -30.255,-8.505 -32.936,-19.986 -50.938,-19.986 -50.938,10.111 	"/>
	<path class="st5" d="M-33.043,5.573h-3.056c-0.568,0-1.028,0.46-1.028,1.028v0.123c0,0.568,0.46,1.028,1.028,1.028h3.056
		c0.568,0,1.028-0.46,1.028-1.028V6.601C-32.015,6.034-32.475,5.573-33.043,5.573z"/>
	
		<use xlink:href="#New_Symbol_47"  width="68.333" height="68.333" x="-34.167" y="-34.167" transform="matrix(0.2514 0 0 0.2514 -60.0877 -15.3775)" style="overflow:visible;"/>
	
		<use xlink:href="#New_Symbol_47"  width="68.333" height="68.333" x="-34.167" y="-34.167" transform="matrix(0.2514 0 0 0.2514 -27.4052 -15.3775)" style="overflow:visible;"/>
	<path class="st8" d="M71.107-19.986h-81.449c-2.245,0-4.065,1.82-4.065,4.065v33.803c0,3.292,2.669,5.96,5.96,5.96h73.593
		c3.292,0,5.96-2.669,5.96-5.96V-19.986z"/>
	<path class="st9" d="M68.551-20.74h0.288c2.664,0,4.824,2.16,4.824,4.824v5.367c0,1.129-0.915,2.043-2.043,2.043h-3.068V-20.74z"/>
	
		<use xlink:href="#New_Symbol_47"  width="68.333" height="68.333" x="-34.167" y="-34.167" transform="matrix(0.2514 0 0 0.2514 3.2661 -15.3775)" style="overflow:visible;"/>
	
		<use xlink:href="#New_Symbol_47"  width="68.333" height="68.333" x="-34.167" y="-34.167" transform="matrix(0.2514 0 0 0.2514 56.3961 -15.3775)" style="overflow:visible;"/>
	<line class="st8" x1="-3.941" y1="6.502" x2="62.617" y2="6.502"/>
	<line class="st8" x1="3.978" y1="15.793" x2="54.698" y2="15.793"/>
	<line class="st8" x1="3.978" y1="-2.788" x2="54.698" y2="-2.788"/>
</symbol>
<g>
	<g>
		<defs>
			<rect id="SVGID_1_" x="0" width="500" height="500"/>
		</defs>
		<clipPath id="SVGID_2_">
			<use xlink:href="#SVGID_1_"  style="overflow:visible;"/>
		</clipPath>
		<g class="st10">
			<g>
				<rect x="-48.759" y="-7.091" class="st11" width="582.447" height="477.072"/>
				<rect x="-48.759" y="394.505" class="st12" width="582.447" height="188.83"/>
				<g>
					<g id="XMLID_78_">
						<g>
							<g>
								<path class="st13" d="M234.387,250.591l0.395,0.169c1.373,0.587,2.407,1.727,2.778,3.057
									c1.217,4.354,3.196,14.633-1.323,24.978l-0.234,4.725c-0.059,1.189-0.424,2.323-1.065,3.312
									c-0.835,1.288-2.148,2.817-3.747,2.974c-0.614,0.06-1.153-0.49-1.045-1.045c0.088-0.456,0.29-1.1,0.718-1.979
									c1.071-2.2,1.801-3.909,1.801-3.909s-1.652,1.429-2.91,1.384c-0.338-0.012-0.581-0.345-0.474-0.63
									c0.301-0.8,1.237-2.7,4.082-6.058c0,0,2.877-11.059-2.34-21.995c-0.639-1.34-0.525-2.826,0.314-3.945l0.33-0.44
									C232.252,250.41,233.384,250.162,234.387,250.591z"/>
								<path class="st13" d="M230.709,289.756c-0.42-0.18-0.669-0.601-0.591-1.003c0.108-0.556,0.35-1.224,0.72-1.985
									c0.902-1.854,1.57-3.376,1.751-3.794c-0.376,0.307-1.738,1.348-2.831,1.309c-0.069-0.002-0.136-0.017-0.199-0.044
									c-0.256-0.109-0.393-0.389-0.304-0.624c0.313-0.834,1.261-2.729,4.083-6.061c0.035-0.137,0.719-2.889,0.784-6.887
									c0.061-3.767-0.431-9.441-3.124-15.085c-0.648-1.358-0.53-2.843,0.316-3.971l0.33-0.44c0.586-0.781,1.743-1.036,2.753-0.604
									l0.395,0.169c1.377,0.588,2.422,1.739,2.796,3.077c0.635,2.273,1.409,5.896,1.49,10.249
									c0.098,5.283-0.848,10.243-2.813,14.742l-0.234,4.72c-0.059,1.187-0.428,2.336-1.069,3.324
									c-0.826,1.274-2.15,2.826-3.767,2.986C231.033,289.849,230.864,289.823,230.709,289.756z M232.745,282.766l-0.051,0.118
									c-0.007,0.017-0.743,1.735-1.802,3.91c-0.368,0.757-0.609,1.421-0.716,1.973c-0.073,0.376,0.16,0.772,0.554,0.94
									c0.145,0.062,0.302,0.086,0.456,0.071c1.595-0.157,2.907-1.698,3.726-2.963c0.636-0.981,1.003-2.123,1.061-3.301
									l0.234-4.729l0.002-0.004c1.963-4.494,2.909-9.449,2.811-14.726c-0.081-4.347-0.854-7.966-1.489-10.236
									c-0.369-1.321-1.401-2.456-2.76-3.037l-0.395-0.169c-0.983-0.42-2.111-0.172-2.682,0.589l-0.33,0.44
									c-0.835,1.114-0.952,2.579-0.312,3.92c2.697,5.654,3.19,11.338,3.129,15.11c-0.066,4.087-0.78,6.874-0.787,6.902
									l-0.001,0.005l-0.003,0.004c-2.82,3.329-3.766,5.22-4.078,6.051c-0.078,0.208,0.042,0.457,0.269,0.553
									c0.056,0.024,0.114,0.037,0.175,0.039c1.231,0.044,2.873-1.363,2.89-1.378L232.745,282.766z"/>
							</g>
						</g>
						<path class="st14" d="M254.446,265.626c0,0-4.111,4.192-6.212,6.335c-0.722,0.736-1.207,1.23-1.207,1.23l-4.721,1.241
							l2.265,3.122c0,0,1.28,0.155,3.077-0.934c0,0,4.013,5.769,6.361,6.781c0,0,2.114-1.075,3.69-2.48
							c-1.071-1.598-3.119-4.838-4.558-8.254c3.625-3.125,3.774-4.068,3.774-4.068L254.446,265.626z"/>
						<path class="st13" d="M256.441,267.857l-2.507-2.902c-1.736-2.009-3.301-4.159-4.69-6.422
							c-3.369-5.489-10.601-16.053-14.549-12.73c-5.264,4.43-2.642,13.592,9.317,31.069
							C244.013,276.873,246.869,277.244,256.441,267.857z"/>
						<path class="st13" d="M227.017,245.519l5.976,5.49c0.036,0.034,0.074,0.066,0.113,0.096l0,0
							c0.981,0.769,2.425,0.403,2.92-0.742l0,0c0.309-0.714,0.441-1.492,0.385-2.269l-0.144-2.001
							c-0.037-0.512-0.188-1.009-0.441-1.455l-2.217-3.901L227.017,245.519z"/>
						
							<ellipse transform="matrix(0.8095 -0.5872 0.5872 0.8095 -98.1576 180.2212)" class="st15" cx="228.611" cy="241.355" rx="9.435" ry="6.87"/>
						<path class="st14" d="M255.825,283.567l-1.12,0.492c-0.624,0.274-1.348,0.17-1.871-0.268c-1.231-1.032-3.516-3.1-5.254-5.557
							c-0.1-0.142-0.276-0.21-0.445-0.169l-1.362,0.327c-0.28,0.067-0.413,0.387-0.262,0.633
							c1.788,2.905,11.724,18.081,33.245,33.86c0,0-0.242,2.044-2.876,5.345c-1.55,1.943-2.715,3.763-3.043,5.024
							c-0.144,0.553,0.472,0.993,0.953,0.684c2.756-1.772,9.278-6.21,11.33-9.774c0.381-0.661,0.208-1.502-0.394-1.971
							c-3.706-2.89-17.502-14.162-23.446-26.255c-0.462-0.94-1.245-1.684-2.202-2.109l0,0c-0.523-0.233-1.086-0.363-1.658-0.385
							l-0.776-0.03C256.363,283.401,256.083,283.454,255.825,283.567z"/>
						<path class="st14" d="M257.124,283.026l4.405,3.137c0,0,9.017,13.719,24.193,26.418c0,0-0.196,3.149-3.118,6.993
							c-0.831,1.093-1.344,1.483-1.75,2.631c-0.313,0.885,0.698,1.648,1.46,1.1c2.728-1.959,7.523-5.63,10.435-9.174
							c0.576-0.701,0.469-1.735-0.242-2.299c-2.906-2.303-10.519-9.017-19.515-22.347c-11.097-16.443-10.771-16.585-14.921-19.694
							c-0.282-0.211-0.679-0.174-0.916,0.087l-2.203,2.423c-0.165,0.181-0.219,0.437-0.144,0.67c0.292,0.911,1.241,3.361,3.8,6.676
							c0.221,0.286,0.322,0.649,0.278,1.008l0,0c-0.045,0.37-0.239,0.706-0.536,0.93l-1.234,0.931
							C256.947,282.645,256.95,282.902,257.124,283.026z"/>
						<g id="XMLID_79_">
							<path class="st13" d="M237.457,246.528l0.337-0.244c1.171-0.849,2.679-1.075,4.05-0.612
								c4.484,1.515,14.654,5.871,21.84,15.928l4.139,2.998c1.042,0.755,1.891,1.744,2.48,2.887c0.767,1.489,1.527,3.537,0.92,5.023
								c-0.233,0.57-0.98,0.714-1.429,0.292c-0.369-0.347-0.853-0.903-1.443-1.796c-1.477-2.234-2.672-3.881-2.672-3.881
								s0.512,2.285-0.118,3.353c-0.169,0.288-0.582,0.302-0.789,0.04c-0.579-0.736-1.848-2.674-3.536-7.14
								c0,0-8.596-9.048-20.873-10.972c-1.504-0.236-2.787-1.214-3.4-2.607l-0.241-0.548
								C236.295,248.281,236.602,247.148,237.457,246.528z"/>
						</g>
						<circle class="st16" cx="242.918" cy="248.965" r="1.194"/>
						<circle class="st16" cx="259.402" cy="273.722" r="1.194"/>
					</g>
					<path class="st17" d="M82.667,132.994c0,0,0.847,16.418,12.288,24.144l0.847-4.829c0,0,7.203,6.278,14.83,10.624l1.271-3.38
						l22.456-0.483l0.424,4.346c0,0,8.474,1.449,14.83-8.209l2.207,2.896c0,0,14.628-10.639,10.196-27.484l-51.807,6.238
						L82.667,132.994z"/>
					<path class="st18" d="M76.098,335.263c0.485-1.255,1.167-2.421,2.078-3.415c1.972-2.151,4.958-3.328,7.867-3.102
						c2.737,0.213,5.35,1.665,6.981,3.864c6.424,20.588,12.849,41.175,19.273,61.763c-9.772,0-19.544,0-29.316,0.002
						c-2.918-8.975-3.919-18.576-2.898-27.958c-1.234-5.636-2.467-11.273-3.701-16.909c-0.659-3.011-1.321-6.057-1.248-9.138
						C75.177,338.637,75.474,336.876,76.098,335.263z"/>
					<g>
						<path class="st19" d="M213.329,317.738c1.024,4.075,1.293,8.287,0.349,12.674c-4.055-7.478-10.111-14.024-16.499-19.761
							c-9.475-8.511-20.052-15.923-28.183-25.726c-11.451-13.805-17.3-32.085-16.204-49.97c-0.575,0.563,15.19-8.428,23.191-14.205
							c3.398,26.009,12.225,51.304,25.748,73.789C206.175,301.931,211.274,309.559,213.329,317.738z"/>
						<g>
							<path class="st20" d="M212.474,317.974c0.967,4.075,1.157,8.083,0.349,12.203c0.54-0.071,1.08-0.141,1.62-0.212
								c-7.497-13.547-20.047-22.719-31.563-32.602c-5.906-5.068-11.61-10.459-16.146-16.819c-4.361-6.114-7.712-12.929-9.94-20.099
								c-2.563-8.25-3.593-16.869-3.117-25.49c0.053-0.955-1.183-1.101-1.652-0.447c-0.005,0.007-0.01,0.014-0.015,0.021
								c-0.315,0.439-0.005,1.209,0.53,1.302c0.801,0.14,1.752-0.613,2.405-0.974c2.071-1.144,4.112-2.343,6.147-3.549
								c5.213-3.092,10.408-6.26,15.337-9.792c-0.445-0.255-0.889-0.51-1.334-0.766c2.294,17.242,6.84,34.107,13.616,50.132
								c3.281,7.76,7.065,15.306,11.339,22.567C204.701,301.351,210.099,308.996,212.474,317.974
								c0.292,1.102,2.002,0.635,1.71-0.471c-2.182-8.246-6.86-15.423-11.227-22.645c-4.475-7.402-8.472-15.081-11.921-23.014
								c-7.069-16.264-11.83-33.517-14.169-51.093c-0.078-0.588-0.719-1.206-1.334-0.766c-4.51,3.232-9.248,6.149-14.005,8.999
								c-2.031,1.217-4.073,2.418-6.132,3.586c-0.628,0.356-1.256,0.714-1.891,1.056c-0.622,0.335-1.325,0.35-0.494,0.496
								c0.177,0.434,0.353,0.868,0.53,1.302c0.005-0.007,0.01-0.014,0.015-0.021c-0.551-0.149-1.101-0.298-1.652-0.447
								c-0.817,14.773,2.838,29.705,10.564,42.345c8.249,13.495,21.115,22.553,32.784,32.824
								c6.853,6.032,13.212,12.699,17.659,20.736c0.352,0.636,1.472,0.546,1.62-0.212c0.868-4.427,0.691-8.766-0.349-13.146
								C213.921,316.393,212.211,316.862,212.474,317.974z"/>
						</g>
					</g>
					<path class="st21" d="M233.722,344.121c-5.793-12.367-13.12-24.015-21.754-34.596c-7.915-6.703-15.827-13.412-23.731-20.128
						c-7.632-2.916-15.765-4.524-23.935-4.662c-11.586-0.196-23.065,2.479-33.996,6.326c-16.117,5.672-31.313,13.943-44.844,24.375
						c1.375,4.063,2.747,8.127,4.12,12.191c-0.09,3.565-0.18,7.13-0.27,10.695c-0.214,8.478,1.79,16.865,5.815,24.33
						c2.832,5.254,5.665,10.509,8.497,15.763c4.808,0,9.617,0,14.425,0c16.913,0,33.826,0,50.739,0
						c0.397-2.802,0.241-5.706-0.29-8.496c-0.851-4.469-2.587-8.713-4.313-12.922c-2.439-5.948-4.879-11.896-7.318-17.845
						c1.075-3.556,1.958-6.477,3.033-10.033l0.056-0.038c19.299,9.773,34.543,27.235,41.912,47.558
						c4.73,1.37,6.652,1.927,11.382,3.297c9.651-7.009,17.876-15.967,24.12-26.135C236.554,350.476,235.179,347.231,233.722,344.121
						z"/>
					<g>
						<path class="st22" d="M159.788,327.411c0,0,0.277-0.29,0.761-0.798c0.249-0.249,0.528-0.569,0.839-0.939
							c0.319-0.363,0.668-0.781,1.023-1.261c0.373-0.464,0.741-0.994,1.122-1.557c0.391-0.556,0.76-1.171,1.154-1.795
							c0.362-0.646,0.753-1.3,1.085-2c0.362-0.684,0.658-1.413,0.978-2.128c0.268-0.738,0.569-1.46,0.774-2.203
							c0.233-0.733,0.427-1.462,0.627-2.163c0.2-0.702,0.393-1.38,0.576-2.023c0.176-0.647,0.351-1.259,0.488-1.831
							c0.153-0.57,0.285-1.097,0.389-1.569c0.117-0.474,0.219-0.886,0.303-1.226c0.152-0.686,0.273-1.084,0.273-1.084l0.177,0.003
							c0,0,0.084,0.402,0.173,1.116c0.062,0.358,0.092,0.792,0.106,1.293c0.021,0.501,0.031,1.068-0.019,1.682
							c-0.02,0.619-0.102,1.283-0.214,1.982c-0.086,0.705-0.286,1.427-0.479,2.175c-0.257,0.729-0.494,1.492-0.844,2.226
							c-0.312,0.747-0.685,1.48-1.042,2.217c-0.395,0.719-0.765,1.448-1.199,2.126c-0.404,0.695-0.865,1.339-1.292,1.971
							c-0.464,0.607-0.88,1.216-1.348,1.737c-0.453,0.532-0.887,1.027-1.318,1.457c-0.413,0.444-0.816,0.831-1.181,1.164
							c-0.358,0.341-0.673,0.63-0.947,0.849c-0.537,0.451-0.845,0.709-0.845,0.709L159.788,327.411z"/>
					</g>
					<g>
						<path class="st22" d="M148.939,323.465c0,0,0.441,1.399,1.209,3.432c0.781,2.033,1.908,4.703,3.266,7.247
							c0.355,0.628,0.69,1.265,1.068,1.866c0.363,0.608,0.738,1.195,1.069,1.781c0.668,1.167,1.237,2.289,1.736,3.254
							c0.488,0.971,0.894,1.79,1.159,2.38c0.271,0.586,0.403,0.943,0.403,0.943l-0.142,0.106c0,0-1.206-0.921-2.607-2.653
							c-0.358-0.427-0.718-0.909-1.082-1.432c-0.38-0.513-0.722-1.09-1.074-1.688c-0.668-1.218-1.227-2.595-1.811-3.949
							c-1.138-2.726-2.072-5.522-2.587-7.664c-0.272-1.065-0.474-1.965-0.59-2.591c-0.12-0.628-0.188-0.987-0.188-0.987
							L148.939,323.465z"/>
					</g>
					<g>
						<path class="st22" d="M154.632,334.971c0,0-0.3-0.825-0.614-2.125c-0.165-0.646-0.321-1.41-0.452-2.237
							c-0.133-0.827-0.214-1.718-0.271-2.613c-0.046-0.894-0.139-1.801-0.08-2.645c0.047-0.42,0.098-0.825,0.202-1.202
							c0.087-0.378,0.187-0.732,0.306-1.053c0.441-1.292,1.043-2.05,1.043-2.05l0.172,0.041c0,0,0.053,0.238,0.093,0.634
							c0.047,0.398,0.075,0.953,0.091,1.606c0.008,0.652,0.008,1.4-0.068,2.193c-0.087,0.791-0.269,1.633-0.341,2.489
							c-0.127,1.71-0.132,3.44-0.07,4.746c0.067,1.298,0.163,2.181,0.163,2.181L154.632,334.971z"/>
					</g>
					<g>
						<path class="st22" d="M230.381,349.434c0,0-0.18-0.698-0.495-1.921c-0.149-0.614-0.359-1.35-0.608-2.19
							c-0.238-0.843-0.521-1.789-0.864-2.812c-0.32-1.03-0.712-2.13-1.134-3.29c-0.41-1.164-0.895-2.371-1.38-3.625
							c-0.524-1.239-1.042-2.527-1.645-3.803c-0.568-1.291-1.223-2.566-1.851-3.852c-0.682-1.259-1.33-2.535-2.059-3.74
							c-0.7-1.221-1.425-2.4-2.113-3.548c-1.375-2.296-2.674-4.433-3.826-6.247c-0.568-0.913-1.097-1.746-1.579-2.477
							c-0.473-0.74-0.885-1.385-1.225-1.916c-0.694-1.054-1.068-1.681-1.068-1.681l0.136-0.113c0,0,0.531,0.496,1.42,1.406
							c0.459,0.444,0.98,1.013,1.563,1.679c0.589,0.662,1.244,1.419,1.909,2.283c0.691,0.846,1.389,1.8,2.107,2.824
							c0.745,1.007,1.407,2.15,2.148,3.296c0.662,1.194,1.374,2.412,1.99,3.706c0.654,1.274,1.256,2.599,1.875,3.912
							c0.577,1.334,1.181,2.654,1.695,3.988c0.549,1.319,1.014,2.646,1.485,3.921c0.426,1.291,0.876,2.525,1.211,3.725
							c0.353,1.194,0.678,2.324,0.937,3.379c0.282,1.048,0.507,2.017,0.695,2.88c0.198,0.86,0.363,1.609,0.474,2.23
							c0.239,1.239,0.376,1.947,0.376,1.947L230.381,349.434z"/>
					</g>
					<path class="st23" d="M219.719,343.57c-1.107-0.301-2.229-0.542-3.362-0.722c-10.196,3.418-19.819,8.547-28.323,15.122
						c6.416,8.231,11.685,17.355,15.608,27.026c12.333,0.228,24.574-5.5,32.532-14.889c1.481-5.107,1.621-10.599,0.409-15.772
						C232.231,349.156,226.248,345.343,219.719,343.57z"/>
					<path class="st23" d="M151.685,363.581c-1.016-0.532-2.06-1.009-3.128-1.429c-10.692,1.144-21.194,4.082-30.913,8.674
						c4.495,9.419,7.677,19.463,9.428,29.751c11.995,2.876,25.182-0.084,34.974-7.541c2.545-4.669,3.864-10.002,3.792-15.314
						C162.701,371.728,157.68,366.717,151.685,363.581z"/>
					<path class="st24" d="M358.808,207.39c-0.2-2.852-0.353-5.706-0.461-8.563c-4.857,6.573-7.639,14.581-9.115,22.657
						c-1.664,9.11-1.783,18.42-2.198,27.671c-1.601,35.684-7.697,71.163-18.096,105.336c6.377-3.04,12.519-6.579,18.349-10.575
						c10.754-26.519,17.788-54.544,20.826-82.999C363.192,243.455,360.075,225.488,358.808,207.39z"/>
					<path class="st25" d="M305.57,353.054c0.857,0.415,1.836,0.705,2.723,0.966c5.475,1.608,10.377,5.101,13.69,9.746
						c6.762-0.275,13.492-1.754,19.763-4.35c0.64-0.265,1.301-0.586,1.928-0.961c-3.595-6.906-10.213-12.091-17.713-14.081
						c-6.276-1.665-13.123-1.081-19.026,1.623c-1.904,0.872-3.983,2.498-3.614,4.559
						C303.535,351.749,304.447,352.509,305.57,353.054z"/>
					<path class="st24" d="M299.516,404.99c-3.377,0.411-6.785,0.571-10.185,0.473c-4.769-0.137-9.163-2.634-11.801-6.609
						l-0.051-0.077c-1.728-2.616-2.824-5.639-3.213-8.748c0.009-0.06,0.019-0.121,0.029-0.181
						c1.463-9.025,6.932-16.959,14.657-21.851c6.91-4.376,14.318-7.968,22.037-10.673c1.851-1.298,3.768-2.493,5.85-3.362
						c3.129-1.306,6.719-1.82,9.919-0.701c3.336,1.166,6.078,4.375,5.884,7.936l-16.789,39.708
						C310.607,402.939,305.104,404.309,299.516,404.99z"/>
					<path class="st25" d="M450.061,375.341c0.652,3.077,0.841,6.253,0.532,9.383c-0.06,0.609-0.139,1.216-0.236,1.82
						c-1.124,6.977-6.292,12.632-13.007,14.834c-0.026,0.008-0.051,0.017-0.077,0.025c-3.097,1.014-6.334,1.956-9.569,1.559
						s-6.886-4.958-6.698-4.62c8.687-10.406,17.373-20.813,26.061-31.218C448.447,369.703,449.454,372.479,450.061,375.341z"/>
					<g>
						<path class="st26" d="M438.761,380.512c-0.049-1.485-0.203-2.966-0.464-4.429c-20.076,9.759-38.846,22.205-55.645,36.905
							c9.914,1.057,19.849-2.099,28.927-6.252c8.124-3.716,15.884-8.266,24.144-11.627
							C437.884,390.585,438.925,385.529,438.761,380.512z"/>
						<g>
							<path class="st27" d="M439.647,380.512c-0.074-1.569-0.242-3.115-0.496-4.665c-0.099-0.607-0.842-0.755-1.302-0.53
								c-20.152,9.841-38.921,22.306-55.824,37.043c-0.634,0.553-0.07,1.448,0.627,1.513c12.65,1.187,24.552-3.837,35.619-9.389
								c2.894-1.452,5.768-2.945,8.668-4.384c1.379-0.684,2.764-1.357,4.16-2.006c1.39-0.646,3.844-1.214,4.964-2.176
								c1.484-1.274,2.144-4.561,2.608-6.393C439.418,386.576,439.704,383.55,439.647,380.512c-0.021-1.14-1.794-1.143-1.773,0
								c0.056,3.034-0.243,6.032-1.026,8.969c-0.364,1.365-0.73,3.191-1.521,4.376c-0.667,0.999-1.977,1.288-3.022,1.752
								c-5.354,2.375-10.516,5.149-15.757,7.759c-10.553,5.255-21.872,9.862-33.897,8.733c0.209,0.504,0.418,1.009,0.627,1.513
								c16.79-14.639,35.45-26.992,55.465-36.766c-0.434-0.177-0.868-0.353-1.302-0.53c0.229,1.4,0.366,2.779,0.433,4.194
								C437.927,381.649,439.701,381.655,439.647,380.512z"/>
						</g>
					</g>
					<path class="st28" d="M418.543,316.874c9.25,1.027,18.361,3.279,27,6.735c3.573,6.172,6.197,12.889,7.792,19.842
						c1.231,5.369,1.204,10.979-0.096,16.331c-0.711,2.928-1.603,5.812-2.668,8.63c-1.266,3.348-3.468,6.237-6.401,8.289
						c-12.482,8.731-26.002,15.98-40.186,21.533c-6.218,6.338-13.533,11.601-21.521,15.479c-2.912,1.414-6.214,1.87-9.406,1.333
						c-11.426-1.922-22.689-4.815-33.625-8.641c-10.353,1.009-20.816,0.971-31.168-0.11c-4.856-4.635-8.929-10.085-12.024-16.042
						c-2.561-4.93-3.55-10.591-2.541-16.054c0.262-1.42,0.619-2.822,1.07-4.193c8.53-6.251,18.242-10.882,28.459-13.598
						c10.499-9.123,21.787-17.339,33.698-24.52c10.884-4.827,22.38-10.014,32.019-14.108
						C398.697,316.075,408.698,315.781,418.543,316.874z"/>
					<g>
						<path class="st29" d="M342.928,412.632c-0.853-0.602-1.669-1.282-2.425-2.024c-0.746-0.752-1.437-1.567-2.065-2.434
							s-1.19-1.789-1.681-2.753c-0.483-0.966-0.924-1.97-1.227-3.02l0.613,0.647c-1.18-0.369-2.268-0.97-3.249-1.695
							c-0.976-0.736-1.828-1.631-2.514-2.644l-0.356-0.527l0.376-0.494l1.595-2.099l1.666-2.043l1.734-1.985l1.8-1.925l1.864-1.863
							l1.925-1.8l1.984-1.734l2.04-1.668l2.095-1.599l2.146-1.529l2.196-1.457l2.243-1.383l2.288-1.307l2.331-1.23l2.371-1.151
							l2.409-1.07l-0.353,0.271l11.175-14.364c0.928-1.199,1.869-2.389,2.787-3.596c0.442-0.617,0.931-1.197,1.447-1.756
							c0.509-0.568,1.02-1.139,1.565-1.699c1.077-1.112,2.247-2.176,3.592-2.992c1.33-0.829,2.917-1.288,4.437-1.166
							c-1.53,0.131-2.894,0.829-4.03,1.751c-1.141,0.931-2.094,2.073-2.97,3.275c-0.437,0.596-0.858,1.222-1.281,1.851
							c-0.415,0.638-0.858,1.254-1.347,1.835c-0.945,1.187-1.866,2.391-2.801,3.586l-11.176,14.366l-0.136,0.175l-0.217,0.097
							l-2.354,1.046l-2.317,1.125l-2.278,1.202l-2.237,1.278l-2.193,1.352l-2.147,1.424l-2.099,1.495l-2.048,1.563l-1.995,1.63
							l-1.94,1.696l-1.882,1.759l-1.822,1.821l-1.76,1.881l-1.695,1.939l-1.628,1.996l-1.558,2.05l0.019-1.021
							c0.574,0.849,1.293,1.604,2.112,2.221c0.41,0.309,0.844,0.584,1.298,0.817c0.458,0.227,0.936,0.404,1.418,0.56l0.502,0.163
							l0.111,0.485c0.111,0.485,0.207,0.975,0.33,1.462c0.128,0.485,0.272,0.967,0.433,1.445c0.327,0.955,0.731,1.889,1.208,2.792
							c0.477,0.903,1.026,1.774,1.643,2.6C341.513,411.099,342.184,411.891,342.928,412.632z"/>
					</g>
					<g>
						<path class="st29" d="M352.091,355.64c0,0,0.352,0.76,0.936,1.834c0.592,1.077,1.458,2.456,2.421,3.744
							c0.49,0.641,1.066,1.209,1.537,1.786c0.463,0.584,0.841,1.176,1.166,1.695c0.319,0.524,0.579,0.979,0.745,1.32
							c0.171,0.336,0.25,0.555,0.25,0.555l-0.12,0.13c0,0-0.886-0.259-1.917-1.042c-0.264-0.189-0.528-0.416-0.795-0.67
							c-0.279-0.243-0.529-0.539-0.783-0.848c-0.48-0.642-0.863-1.417-1.275-2.157c-0.404-0.747-0.783-1.504-1.083-2.237
							c-0.302-0.732-0.549-1.426-0.728-2.03c-0.377-1.207-0.522-2.022-0.522-2.022L352.091,355.64z"/>
					</g>
					<g>
						<path class="st29" d="M369.106,365.163c0,0-0.244-0.325-0.671-0.894c-0.22-0.278-0.464-0.637-0.738-1.056
							c-0.284-0.414-0.591-0.889-0.893-1.425c-0.324-0.525-0.633-1.117-0.952-1.75c-0.337-0.625-0.599-1.326-0.908-2.036
							c-0.265-0.727-0.562-1.473-0.786-2.258c-0.26-0.775-0.439-1.584-0.647-2.39c-0.163-0.814-0.345-1.629-0.458-2.442
							c-0.155-0.81-0.189-1.62-0.252-2.402c0.007-0.784-0.001-1.544,0.101-2.257c0.075-0.715,0.17-1.387,0.316-1.998
							c0.115-0.615,0.277-1.167,0.433-1.651c0.148-0.485,0.295-0.902,0.454-1.234c0.281-0.673,0.472-1.042,0.472-1.042l0.171,0.045
							c0,0,0.007,0.422-0.035,1.132c-0.012,0.354-0.026,0.785-0.042,1.278c-0.027,0.489-0.042,1.038-0.046,1.636
							c-0.022,0.596-0.013,1.24-0.012,1.918c0.01,0.677,0.021,1.39,0.032,2.129c0.015,0.737,0.016,1.501,0.058,2.278
							c0.01,0.781,0.124,1.564,0.201,2.356c0.135,0.781,0.242,1.571,0.431,2.331c0.152,0.77,0.379,1.508,0.577,2.231
							c0.237,0.709,0.451,1.403,0.704,2.043c0.242,0.645,0.478,1.254,0.738,1.798c0.237,0.557,0.485,1.049,0.716,1.481
							c0.221,0.437,0.423,0.817,0.612,1.119c0.363,0.612,0.57,0.961,0.57,0.961L369.106,365.163z"/>
					</g>
					<path class="st24" d="M356.387,395.121c7.968,3.285,15.211,8.337,20.927,14.814c-0.011,1.431-1.341,3.795-2.227,4.534
						c-2.187,1.823-4.872,2.961-7.71,3.174c-3.095,2.032-6.806,3.034-10.501,2.985c-6.115-0.975-12.002-3.335-17.121-6.82
						c-1.744-1.187-3.021-2.946-3.635-4.964l-0.017-0.056c-0.447-1.471-0.493-3.035-0.151-4.534c0.967-4.234,2.806-8.27,5.41-11.745
						c0.568-0.758,1.537-1.13,2.472-0.974C348.135,392.248,352.354,393.458,356.387,395.121z"/>
					<path class="st28" d="M361.345,397.329c6.945,4.137,13.996,12.966,18.843,20.597c3.197-1.048,6.031-3.505,8.596-5.853
						c4.661-4.268,10.536-10.459,15.117-13.857"/>
					<g>
						<path class="st26" d="M297.296,151.987c0.007-0.019,0.014-0.038,0.021-0.056c0.654-1.753,1.65-3.342,2.746-4.861
							c4.145,5.305,9.599,9.586,15.745,12.337c-2.899,2.101-6.214,4.022-9.83,4.299c-3.195,0.245-6.657-1.028-8.317-3.769
							C296.24,157.589,296.35,154.565,297.296,151.987z"/>
						<g>
							<path class="st27" d="M298.151,152.223c0.631-1.706,1.635-3.23,2.678-4.706c-0.464,0.06-0.928,0.12-1.392,0.179
								c4.281,5.368,9.685,9.608,15.925,12.476c0-0.51,0-1.021,0-1.531c-3.512,2.498-7.755,4.985-12.24,3.971
								C298.029,161.46,296.641,156.769,298.151,152.223c0.361-1.085-1.351-1.551-1.71-0.471c-1.565,4.713-0.431,9.909,4.461,11.999
								c5.396,2.305,10.953-0.45,15.353-3.579c0.486-0.345,0.66-1.228,0-1.531c-6.117-2.811-11.369-6.935-15.566-12.198
								c-0.386-0.484-1.099-0.236-1.392,0.179c-1.135,1.608-2.17,3.276-2.856,5.13C296.045,152.823,297.758,153.286,298.151,152.223
								z"/>
						</g>
					</g>
					<path class="st30" d="M378.12,209.549c0.289-5.929,0.696-11.852,1.22-17.765c-6.557-3.455-14.451-0.306-19.266,4.947
						c-4.343,4.738-6.708,10.91-8.978,16.923c-5.7,15.103-11.4,30.206-17.1,45.309c13.803,7.897,29.54,12.389,45.432,12.984
						C377.542,251.211,377.106,230.345,378.12,209.549z"/>
					<path class="st30" d="M411.143,187.958c-4.934-7.532-10.259-14.808-15.957-21.783c-2.788-3.413-6.499-6.052-10.739-7.253
						c-2.724-0.771-5.555-1.044-8.363-0.63c-1.933,0.285-3.787,0.885-5.537,1.725c-4.07,1.955-7.348,5.278-9.535,9.228
						c-8.8,15.895-10.795,34.947-8.795,53.048c0.525,4.755,1.308,9.465,2.281,14.139c1.88,9.025,4.619,17.873,8.426,26.268
						c5.242,11.561,8.65,23.953,10.038,36.572c-0.53,0.758-1.078,1.504-1.608,2.257c-1.573,2.232-3.05,4.663-3.353,7.378
						c-0.211,1.892,0.299,3.949,1.489,5.381c-3.015,3.566-5.323,7.731-6.715,12.189c-0.173,0.555,0.152,1.122,0.715,1.268
						c0.924,0.24,2.247,0.449,3.785,0.624c4.168,0.474,8.396-0.094,12.316-1.588c1.572-0.599,3.145-1.199,4.717-1.798
						c7.406-2.822,14.932-5.672,22.775-6.617c9.917,0.479,19.694,3.826,29.161,7.134c4.29,1.499,8.58,2.998,12.855,4.512
						c1.911,1.87,4.256,3.301,6.789,4.175c0.758,0.261,1.572-0.28,1.573-1.082c0.014-7.422-1.365-14.844-4.051-21.763
						C449.972,267.548,435.21,224.701,411.143,187.958z"/>
					<path class="st24" d="M377.008,130.481c1.154-4.354,1.311-8.857,0.277-13.301c-4.278-18.384-27.14-28.775-51.063-23.208
						c-23.923,5.567-39.849,24.983-35.571,43.368c3.123,13.423,16.157,22.575,32.274,24.375c1.342-1.079,2.641-2.21,3.844-3.442
						c2.599-2.664,4.853-5.665,6.677-8.909c0.696,4.198,0.265,8.572-1.193,12.57c3.108-0.194,6.275-0.644,9.462-1.386
						c0.45-0.105,0.892-0.224,1.336-0.338l8.247,11.192l31.473-9.309l6.649-8.422L377.008,130.481z"/>
					
						<ellipse transform="matrix(0.8488 -0.5288 0.5288 0.8488 -29.7694 184.7388)" class="st31" cx="308.057" cy="144.409" rx="2.859" ry="7.314"/>
					<g>
						<defs>
							<path id="SVGID_3_" d="M421.223,203.811c-2.908-24.144-17.242-44.921-32.394-64.243c1.319-15.571-4.22-31.564-14.716-43.114
								c-1.401-1.541-3.048-2.842-4.878-3.836c-0.008-0.004-0.016-0.009-0.024-0.013c-18.542-10.06-42.059-10.324-60.822-0.68
								c-3.196-0.049-6.378,0.713-8.918,2.606c-3.179,2.369-4.937,6.78-3.826,10.487c-4.647,1.247-9.243,3.188-11.311,7.376
								c-1.526,3.091-1.254,6.855,0.116,10.017c1.371,3.163,3.735,5.796,6.312,8.085c0,0-0.337-7.91,2.547-12.679l5.237-0.497
								c0,0,13.274,16.052,49.418,5.335l3.21,6.719c3.489,12.854-0.42,26.547-5.745,38.756
								c-5.325,12.208-12.143,23.952-14.868,36.989s-0.416,28.22,9.855,36.7c0,0,13.985-24.225,14.428-26.265
								c0.443-2.04,11.089-34.61,11.089-34.61s16.122-12.646,12.047-35.253c0,0,5.549,18.003,20.188,24.214L421.223,203.811z"/>
						</defs>
						<use xlink:href="#SVGID_3_"  style="overflow:visible;fill:#77431D;"/>
						<clipPath id="SVGID_4_">
							<use xlink:href="#SVGID_3_"  style="overflow:visible;"/>
						</clipPath>
						<path class="st32" d="M294.362,97.472c3.341-4.26,7.894-7.58,13.021-9.309c5.915,2.53,12.217,4.107,18.387,5.979
							c7.077,2.148,14.179,4.786,19.909,9.463c4.714,3.849,8.399,9.315,9.335,15.245c-1.618,0.014-3.237,0.027-4.855,0.039
							c-3.902-4.91-9.714-8.145-15.76-9.949c-6.652-1.986-13.654-2.414-20.583-2.83c-7.852-0.471-15.705-0.942-23.557-1.413
							C291.247,102.1,292.644,99.662,294.362,97.472z"/>
						<use xlink:href="#SVGID_3_"  style="overflow:visible;fill:none;stroke:#512A10;stroke-width:1.7731;stroke-miterlimit:10;"/>
					</g>
					<g>
						<path class="st33" d="M368.95,308.028c0,0,0.091-0.219,0.262-0.629c0.179-0.408,0.397-1.02,0.781-1.764
							c0.349-0.761,0.837-1.648,1.412-2.659c0.309-0.493,0.637-1.017,0.984-1.57c0.373-0.536,0.765-1.099,1.173-1.686
							c0.858-1.145,1.813-2.372,2.904-3.597c1.071-1.244,2.285-2.477,3.55-3.739c2.544-2.511,5.388-5.04,8.195-7.58
							c2.794-2.553,5.473-5.19,7.813-7.802c1.192-1.283,2.28-2.577,3.268-3.833c1.003-1.248,1.851-2.496,2.623-3.658
							c0.363-0.596,0.711-1.167,1.042-1.71c0.301-0.561,0.587-1.094,0.856-1.594c0.477-1.03,0.894-1.935,1.187-2.703
							c0.334-0.756,0.486-1.386,0.644-1.802c0.146-0.421,0.223-0.646,0.223-0.646l0.174,0.035c0,0-0.033,0.236-0.094,0.68
							c-0.068,0.443-0.141,1.102-0.351,1.916c-0.103,0.407-0.185,0.87-0.334,1.356c-0.16,0.483-0.332,1.006-0.516,1.564
							c-0.219,0.547-0.453,1.129-0.699,1.742c-0.279,0.598-0.569,1.232-0.906,1.875c-0.694,1.273-1.496,2.633-2.476,3.973
							c-0.943,1.37-2.087,2.695-3.277,4.049c-2.45,2.647-5.332,5.182-8.243,7.625c-2.904,2.449-5.816,4.862-8.42,7.257
							c-2.601,2.396-4.893,4.772-6.67,6.97c-0.43,0.56-0.842,1.097-1.234,1.608c-0.367,0.529-0.715,1.031-1.043,1.503
							c-0.614,0.971-1.138,1.825-1.515,2.557c-0.412,0.713-0.662,1.321-0.859,1.719c-0.19,0.402-0.291,0.616-0.291,0.616
							L368.95,308.028z"/>
					</g>
					<g>
						<path class="st33" d="M365.86,320.784c0,0,0.165-0.248,0.474-0.713c0.317-0.46,0.739-1.161,1.379-1.992
							c0.606-0.856,1.404-1.845,2.334-2.969c0.485-0.545,1.001-1.124,1.545-1.735c0.569-0.588,1.167-1.207,1.79-1.853
							c1.287-1.251,2.704-2.587,4.281-3.91c1.558-1.346,3.281-2.665,5.072-4.014c3.598-2.679,7.564-5.345,11.509-8.013
							c3.936-2.68,7.793-5.44,11.264-8.191c1.754-1.35,3.392-2.723,4.919-4.049c1.542-1.313,2.906-2.653,4.145-3.912
							c0.603-0.645,1.181-1.263,1.731-1.85c0.527-0.61,1.026-1.189,1.496-1.732c0.888-1.129,1.662-2.119,2.256-2.969
							c0.631-0.827,1.028-1.539,1.348-1.998c0.309-0.466,0.474-0.715,0.474-0.715l0.157,0.082c0,0-0.125,0.272-0.358,0.782
							c-0.24,0.507-0.568,1.268-1.092,2.179c-0.259,0.457-0.521,0.981-0.855,1.52c-0.345,0.533-0.719,1.11-1.118,1.726
							c-0.429,0.597-0.886,1.232-1.367,1.901c-0.506,0.65-1.044,1.332-1.631,2.021c-1.201,1.352-2.531,2.798-4.037,4.221
							c-1.477,1.457-3.178,2.829-4.93,4.247c-3.57,2.754-7.592,5.37-11.621,7.921c-4.023,2.56-8.042,5.102-11.686,7.66
							c-1.817,1.284-3.551,2.558-5.145,3.827c-1.61,1.251-3.06,2.521-4.381,3.712c-0.641,0.616-1.256,1.207-1.841,1.768
							c-0.561,0.585-1.094,1.14-1.594,1.662c-0.963,1.079-1.791,2.031-2.421,2.855c-0.664,0.797-1.115,1.487-1.448,1.934
							c-0.326,0.453-0.5,0.695-0.5,0.695L365.86,320.784z"/>
					</g>
					<g>
						<path class="st33" d="M449.508,326.395c0,0,0.103-0.696,0.282-1.914c0.097-0.608,0.189-1.35,0.286-2.199
							c0.107-0.848,0.215-1.805,0.301-2.855c0.107-1.046,0.182-2.184,0.254-3.386c0.083-1.201,0.123-2.471,0.178-3.781
							c0.07-2.624,0.041-5.422-0.088-8.214c-0.102-1.394-0.168-2.789-0.328-4.155c-0.148-1.365-0.295-2.708-0.436-4.008
							c-0.278-2.598-0.547-5.024-0.806-7.106c-0.259-2.089-0.475-3.83-0.626-5.049c-0.164-1.221-0.226-1.931-0.226-1.931
							l0.172-0.043c0,0,0.261,0.659,0.662,1.833c0.218,0.583,0.44,1.302,0.677,2.133c0.243,0.829,0.506,1.769,0.737,2.807
							c0.258,1.033,0.482,2.163,0.695,3.364c0.243,1.196,0.363,2.478,0.55,3.795c0.1,1.327,0.233,2.695,0.257,4.093
							c0.062,1.395,0.067,2.813,0.088,4.229c-0.003,2.833-0.108,5.662-0.304,8.306c-0.124,1.32-0.207,2.598-0.373,3.802
							c-0.149,1.205-0.296,2.342-0.47,3.387c-0.153,1.047-0.322,2.003-0.483,2.848c-0.152,0.847-0.29,1.582-0.426,2.182
							c-0.256,1.204-0.402,1.893-0.402,1.893L449.508,326.395z"/>
					</g>
					<path class="st34" d="M64.017,192.195c0.255-1.236,0.511-2.472,0.766-3.708c0.939-4.546,2.703-8.907,5.375-12.703
						c3.604-5.119,10.157-12.858,23.418-17.835c14.949-5.61,36.209-1.319,56.001,9.174c2.675,1.418,5.146,3.193,7.406,5.207
						l0.104,0.092c4.367,3.892,8.091,8.441,11.094,13.461c5.88,9.832,12.434,19.263,19.605,28.201
						c-6.363,8.806-15.866,15.343-26.385,18.065c-0.262,3.122-0.978,6.206-2.122,9.122c1.978,5.643,3.96,11.287,5.943,16.932
						c10.157,6.814,18.496,15.305,23.217,26.481c0.325,0.77,0.858,1.426,1.573,1.859c1.281,0.775,3.691,2.951,6.31,8.319
						c0.239,0.489-0.327,0.993-0.769,0.675c-6.516-4.692-15.433-9.777-19.691-10.08c-6.225-0.443-12.438,0.816-18.508,2.269
						c-12.587,3.012-24.967,6.884-37.025,11.584l-34.183,19.373c-9.121-7.257-13.696-19.404-14.527-31.173
						c-0.906-12.832,1.939-25.587,4.054-38.276c0.751-4.509,1.408-9.087,1.773-13.669c-8.852-0.133-17.678-1.971-25.848-5.381
						c1.672-7.457,5.322-17.331,10.317-27.822C63.087,196.696,62.847,197.861,64.017,192.195z"/>
					<g>
						<g>
							<g>
								<path class="st35" d="M160.324,235.377c1.841-12.153,0.568-22.89-1.79-33.358c0.199-3.833,0.675-7.687,0.684-11.53
									c0.016-6.742-1.908-14.202-7.609-17.8"/>
								<path class="st36" d="M160.236,235.365c0.168-1.391,0.319-2.784,0.423-4.175c0.1-1.393,0.171-2.789,0.198-4.184
									c0.058-2.791-0.041-5.582-0.272-8.358c-0.439-5.557-1.439-11.053-2.762-16.468l-0.021-0.084l0.004-0.114
									c0.088-2.668,0.29-5.312,0.404-7.93c0.066-1.304,0.082-2.622,0.086-3.898c0.004-0.671-0.019-1.312-0.053-1.94
									c-0.042-0.636-0.091-1.282-0.164-1.918c-0.12-1.281-0.355-2.545-0.655-3.79c-0.137-0.628-0.337-1.234-0.521-1.849
									c-0.228-0.596-0.419-1.21-0.688-1.791c-0.238-0.597-0.549-1.157-0.858-1.718l-0.503-0.821l-0.565-0.782
									c-0.175-0.275-0.404-0.501-0.605-0.755c-0.201-0.256-0.421-0.493-0.659-0.715c-0.448-0.475-0.96-0.878-1.464-1.309
									l0.095-0.15c0.578,0.329,1.175,0.653,1.7,1.079c0.279,0.194,0.542,0.406,0.788,0.639c0.246,0.232,0.523,0.439,0.746,0.695
									l0.688,0.757l0.622,0.812c0.388,0.558,0.782,1.124,1.1,1.728c0.347,0.592,0.632,1.212,0.911,1.838
									c0.244,0.637,0.502,1.272,0.696,1.926c0.225,0.647,0.371,1.313,0.535,1.974c0.14,0.666,0.278,1.334,0.373,2.008
									c0.119,0.672,0.161,1.348,0.224,2.029c0.049,0.692,0.083,1.372,0.09,2.024c0.037,1.37-0.066,2.696-0.149,4.032
									c-0.202,2.662-0.529,5.285-0.718,7.9l-0.017-0.198c0.565,2.757,1.069,5.53,1.452,8.321c0.386,2.79,0.658,5.598,0.788,8.411
									c0.121,2.814,0.091,5.632-0.087,8.438c-0.088,1.403-0.221,2.802-0.382,4.197c-0.166,1.398-0.376,2.782-0.605,4.164
									L160.236,235.365z"/>
							</g>
							<g>
								<path class="st35" d="M127.455,246.703c4.384-0.952,7.396-4.911,9.712-8.753c9.345-15.508,13.915-33.85,12.94-51.93"/>
								<path class="st36" d="M127.433,246.617c0,0,0.254-0.073,0.732-0.21c0.462-0.16,1.138-0.405,1.925-0.878
									c0.789-0.459,1.684-1.128,2.584-2.029c0.906-0.895,1.81-2.022,2.684-3.329c0.892-1.302,1.707-2.791,2.58-4.394
									c0.45-0.794,0.867-1.623,1.293-2.469c0.431-0.844,0.872-1.705,1.273-2.609c0.847-1.783,1.633-3.666,2.394-5.591
									c0.358-0.972,0.737-1.944,1.083-2.932c0.329-0.994,0.659-1.991,0.989-2.989c0.29-1.01,0.579-2.019,0.867-3.025
									c0.253-1.014,0.505-2.025,0.755-3.028c0.446-2.017,0.879-4.002,1.203-5.941c0.208-0.961,0.349-1.917,0.501-2.851
									c0.156-0.933,0.299-1.848,0.417-2.741c0.27-1.784,0.443-3.48,0.623-5.047c0.135-1.569,0.295-3.011,0.372-4.293
									c0.072-1.284,0.136-2.404,0.188-3.326c0.057-1.848,0.122-2.911,0.122-2.911l0.177-0.01c0,0,0.139,1.052,0.325,2.908
									c0.106,0.927,0.141,2.057,0.203,3.356c0.039,1.298,0.065,2.766,0.029,4.367c-0.035,0.8-0.072,1.634-0.11,2.496
									c-0.041,0.863-0.15,1.75-0.226,2.665c-0.067,0.917-0.192,1.852-0.341,2.806c-0.14,0.954-0.268,1.932-0.464,2.916
									c-0.375,1.97-0.851,3.987-1.4,6.017c-0.295,1.009-0.592,2.026-0.89,3.047c-0.333,1.01-0.668,2.023-1.003,3.036
									c-0.367,1.002-0.733,2.003-1.099,3.001c-0.383,0.991-0.798,1.964-1.191,2.937c-0.832,1.926-1.687,3.806-2.6,5.581
									c-0.432,0.899-0.908,1.761-1.374,2.604c-0.459,0.847-0.91,1.673-1.393,2.442c-0.933,1.555-1.836,3.052-2.796,4.334
									c-0.946,1.294-1.92,2.41-2.889,3.29c-0.963,0.886-1.912,1.535-2.742,1.973c-0.824,0.45-1.536,0.676-2.017,0.819
									c-0.482,0.117-0.74,0.179-0.74,0.179L127.433,246.617z"/>
							</g>
							<g>
								<path class="st35" d="M148.722,250.163c7.673-22.104,9.797-46.111,6.123-69.219"/>
								<path class="st36" d="M148.638,250.136c0,0,0.322-1.048,0.886-2.883c0.295-0.914,0.608-2.036,0.954-3.324
									c0.362-1.284,0.749-2.737,1.117-4.338c0.404-1.591,0.771-3.331,1.146-5.173c0.396-1.837,0.716-3.794,1.08-5.81
									c0.299-2.028,0.645-4.116,0.872-6.255c0.284-2.132,0.439-4.311,0.639-6.484c0.11-2.181,0.264-4.357,0.284-6.505
									c0.071-2.146,0.048-4.258,0.055-6.301c-0.014-2.042-0.018-4.018-0.074-5.891c-0.047-1.873-0.088-3.646-0.179-5.281
									c-0.033-0.819-0.064-1.604-0.094-2.35c-0.047-0.746-0.091-1.453-0.133-2.118c-0.089-1.332-0.166-2.493-0.23-3.449
									c-0.151-1.912-0.205-3.014-0.205-3.014l0.175-0.028c0,0,0.256,1.069,0.648,2.957c0.096,0.472,0.22,0.993,0.323,1.565
									c0.092,0.573,0.191,1.193,0.297,1.856c0.217,1.325,0.467,2.823,0.632,4.468c0.088,0.822,0.202,1.678,0.28,2.566
									c0.064,0.89,0.13,1.81,0.198,2.755c0.084,0.945,0.117,1.919,0.135,2.915c0.023,0.996,0.047,2.013,0.072,3.047
									c-0.053,2.069-0.065,4.208-0.234,6.375c-0.104,2.17-0.344,4.364-0.54,6.559c-0.268,2.189-0.492,4.381-0.843,6.522
									c-0.294,2.149-0.706,4.243-1.069,6.274c-0.434,2.018-0.797,3.98-1.276,5.81c-0.452,1.836-0.891,3.568-1.361,5.149
									c-0.434,1.59-0.881,3.035-1.297,4.309c-0.399,1.279-0.758,2.389-1.09,3.289c-0.638,1.811-1.002,2.845-1.002,2.845
									L148.638,250.136z"/>
							</g>
							<g>
								<path class="st35" d="M81.543,304.792c1.527-9.665,6.105-18.825,12.919-25.848"/>
								<path class="st36" d="M81.456,304.777c0,0,0.059-0.455,0.161-1.252c0.104-0.792,0.279-1.943,0.57-3.296
									c0.132-0.681,0.311-1.411,0.508-2.182c0.182-0.776,0.457-1.57,0.707-2.403c0.547-1.651,1.221-3.384,1.983-5.084
									c0.399-0.841,0.786-1.69,1.213-2.504c0.397-0.832,0.877-1.599,1.319-2.356c0.493-0.724,0.963-1.43,1.485-2.043
									c0.502-0.627,0.993-1.206,1.484-1.707c0.47-0.518,0.939-0.959,1.361-1.341c0.417-0.386,0.792-0.71,1.124-0.954
									c0.64-0.509,1.026-0.773,1.026-0.773l0.127,0.123c0,0-0.239,0.407-0.694,1.072c-0.443,0.665-1.076,1.616-1.835,2.757
									c-0.765,1.125-1.599,2.463-2.528,3.87c-0.463,0.706-0.942,1.436-1.428,2.178c-0.497,0.738-0.927,1.532-1.386,2.313
									c-0.857,1.593-1.636,3.231-2.287,4.805c-0.62,1.583-1.187,3.075-1.579,4.386c-0.416,1.306-0.695,2.406-0.877,3.192
									c-0.179,0.783-0.281,1.231-0.281,1.231L81.456,304.777z"/>
							</g>
							<g>
								<path class="st35" d="M85.563,313.393c3.613-9.226,9.754-17.448,17.576-23.531"/>
								<path class="st36" d="M85.481,313.359c0,0,0.156-0.438,0.43-1.204c0.274-0.762,0.691-1.862,1.257-3.143
									c0.272-0.647,0.596-1.334,0.946-2.06c0.337-0.732,0.762-1.467,1.174-2.245c0.861-1.534,1.854-3.13,2.918-4.683
									c0.546-0.766,1.083-1.541,1.647-2.279c0.54-0.758,1.145-1.444,1.713-2.124c0.61-0.641,1.195-1.267,1.811-1.797
									c0.6-0.547,1.181-1.047,1.747-1.474c1.114-0.873,2.099-1.526,2.824-1.929c0.713-0.419,1.137-0.629,1.137-0.629l0.109,0.14
									c0,0-0.299,0.372-0.852,0.973c-0.545,0.6-1.323,1.458-2.256,2.488c-0.924,1.017-2.001,2.203-3.156,3.473
									c-0.583,0.629-1.186,1.278-1.798,1.938c-0.623,0.654-1.195,1.37-1.791,2.069c-1.142,1.436-2.224,2.925-3.175,4.366
									c-0.925,1.456-1.783,2.827-2.443,4.047c-0.679,1.211-1.188,2.244-1.537,2.982c-0.345,0.737-0.542,1.158-0.542,1.158
									L85.481,313.359z"/>
							</g>
							<g>
								<path class="st35" d="M94.99,220.971c6.431-5.528,10.455-13.764,10.863-22.234"/>
								<path class="st36" d="M94.931,220.905c0,0,0.279-0.283,0.768-0.779c0.251-0.243,0.533-0.556,0.848-0.917
									c0.323-0.355,0.676-0.763,1.038-1.232c0.378-0.454,0.753-0.972,1.142-1.523c0.398-0.544,0.777-1.146,1.18-1.758
									c0.372-0.633,0.774-1.274,1.118-1.961c0.374-0.67,0.684-1.387,1.017-2.089c0.283-0.726,0.598-1.435,0.818-2.168
									c0.248-0.722,0.458-1.44,0.674-2.13c0.216-0.691,0.426-1.358,0.624-1.992c0.192-0.637,0.382-1.239,0.534-1.803
									c0.167-0.562,0.313-1.08,0.431-1.546c0.13-0.466,0.243-0.873,0.337-1.207c0.172-0.676,0.304-1.067,0.304-1.067l0.177,0.009
									c0,0,0.073,0.401,0.141,1.111c0.052,0.357,0.07,0.789,0.07,1.285c0.007,0.497,0.002,1.06-0.063,1.668
									c-0.036,0.613-0.135,1.269-0.264,1.96c-0.104,0.697-0.319,1.408-0.53,2.144c-0.273,0.717-0.528,1.467-0.892,2.186
									c-0.328,0.733-0.715,1.451-1.086,2.173c-0.408,0.704-0.792,1.418-1.237,2.081c-0.416,0.68-0.887,1.309-1.324,1.927
									c-0.473,0.593-0.898,1.187-1.373,1.695c-0.46,0.518-0.9,1.001-1.336,1.419c-0.418,0.433-0.825,0.809-1.193,1.132
									c-0.362,0.331-0.679,0.612-0.954,0.825c-0.541,0.438-0.85,0.689-0.85,0.689L94.931,220.905z"/>
							</g>
							<g>
								<path class="st35" d="M67.002,188.618c5.843-12.341,16.651-22.244,29.455-26.988"/>
								<path class="st36" d="M66.922,188.578c0,0,0.268-0.581,0.738-1.598c0.224-0.513,0.534-1.119,0.904-1.812
									c0.356-0.7,0.776-1.481,1.279-2.304c0.474-0.843,1.044-1.72,1.659-2.643c0.594-0.938,1.33-1.849,2.049-2.824
									c0.769-0.935,1.541-1.924,2.412-2.854c0.833-0.966,1.767-1.863,2.675-2.79c0.953-0.878,1.888-1.781,2.876-2.594
									c0.952-0.858,1.984-1.584,2.958-2.319c1.024-0.662,2.001-1.326,2.999-1.835c0.493-0.262,0.973-0.518,1.437-0.765
									c0.47-0.235,0.941-0.43,1.382-0.634c0.881-0.415,1.718-0.729,2.464-0.99c0.741-0.272,1.393-0.489,1.948-0.622
									c1.092-0.306,1.721-0.447,1.721-0.447l0.062,0.166c0,0-0.559,0.333-1.546,0.858c-0.495,0.26-1.083,0.599-1.754,0.988
									c-0.337,0.188-0.696,0.389-1.075,0.6c-0.371,0.224-0.76,0.46-1.167,0.706c-0.821,0.474-1.683,1.03-2.595,1.613
									c-0.917,0.574-1.843,1.241-2.831,1.883c-0.967,0.673-1.983,1.349-2.972,2.098c-1.019,0.712-1.968,1.544-2.951,2.339
									c-0.928,0.855-1.887,1.683-2.748,2.584c-0.899,0.864-1.702,1.792-2.505,2.669c-0.757,0.914-1.513,1.784-2.164,2.659
									c-0.667,0.864-1.289,1.69-1.813,2.487c-0.554,0.78-1.02,1.518-1.418,2.183c-0.412,0.657-0.763,1.238-1.022,1.735
									c-0.539,0.982-0.847,1.543-0.847,1.543L66.922,188.578z"/>
							</g>
						</g>
					</g>
					<path class="st23" d="M111.976,150.237c-0.864,0.004-5.26-1.415-6.123-1.443l3.587,12.836l12.369,10.294
						c2.34,1.947,4.969,4.002,8.013,3.935c0.016,0,0.032-0.001,0.048-0.001c2.358-0.07,4.363-1.764,5.144-3.99
						c3.511-10.012,7.028-20.027,10.558-30.016C135.261,147.273,123.625,150.187,111.976,150.237z"/>
					<path class="st23" d="M118.754,272.899c-3.024,2.093-6.17,4.009-9.417,5.731c-9.314-4.299-19.017-7.84-28.038-12.737
						c-8.231-4.468-16.12-10.49-21.436-18.051c-2.121-3.017-3.102-6.688-2.905-10.371c0.194-3.618,0.811-7.214,1.838-10.688
						c6.837,3.353,14.642,4.726,22.213,3.911c8.408,18.156,25.603,31.945,45.031,36.616
						C123.704,269.29,121.271,271.157,118.754,272.899z"/>
					<path class="st24" d="M290.6,265.649c26.014-3.21,50.709-16.022,68.43-35.316c8.638,0.466,17.33-0.003,25.872-1.397
						c-2.319,14.354-13.203,26.152-25.895,33.231c-12.67,7.067-27.106,10.165-41.298,13.174c-11.316,2.399-22.632,4.798-33.93,7.213
						c-2.996,3.654-6.696,6.723-10.82,9.032c-3.011,1.686-6.415,2.603-9.866,2.68c-7.32,0.162-14.674-0.998-21.577-3.433
						c-2.598-0.916-3.444-4.244-1.504-6.2c0.992-1.001,2.527-1.994,4.887-2.816c6.258-2.18,11.614-6.385,17.421-9.578l-7.641-5.85
						c3.884-2.133,8.519-3.001,12.999-3.048c6.2-0.065,12.322,1.246,18.489,1.896L290.6,265.649z"/>
					<path class="st30" d="M361.682,180.763c1.105-2.23,2.382-4.359,3.953-6.29c3.395-4.173,8.423-7.348,13.801-7.24
						c6.237,0.126,11.733,4.678,14.614,10.21s3.587,11.92,3.901,18.15c0.933,18.479-1.159,37.107-6.166,54.919
						c-8.13-0.76-15.953-4.111-23.673-7.014c-8.167-3.072-17.033-5.713-25.528-4.309c4.319-17.075,9.58-33.912,15.749-50.409
						C359.347,186.075,360.399,183.351,361.682,180.763z"/>
					<g>
						<g>
							<path class="st37" d="M338.106,232.952c0,0-0.374-0.714-1.027-1.965c-0.279-0.65-0.684-1.419-1.029-2.344
								c-0.177-0.462-0.366-0.953-0.564-1.471c-0.171-0.528-0.351-1.083-0.539-1.663c-0.34-1.17-0.674-2.451-0.933-3.827
								c-0.269-1.375-0.443-2.845-0.559-4.372c-0.059-0.763-0.061-1.543-0.094-2.331c0.012-0.788,0.02-1.588,0.057-2.393
								c0.107-1.607,0.268-3.243,0.581-4.856l0.225-1.212l0.291-1.196c0.178-0.801,0.427-1.579,0.66-2.357
								c0.484-1.556,1.085-3.033,1.741-4.424c0.692-1.375,1.363-2.673,2.039-3.878c0.661-1.21,1.284-2.345,1.821-3.406
								c0.525-1.065,0.991-2.048,1.34-2.945c0.36-0.894,0.613-1.695,0.816-2.362c0.177-0.672,0.3-1.208,0.364-1.578
								c0.075-0.371,0.115-0.568,0.115-0.568l0.177,0.009c0,0,0.006,0.204,0.017,0.586c0.028,0.386-0.011,0.945-0.06,1.665
								c-0.045,0.358-0.095,0.754-0.149,1.186c-0.09,0.423-0.169,0.89-0.293,1.377c-0.239,0.977-0.587,2.058-1.031,3.207
								c-0.442,1.149-0.99,2.358-1.591,3.612c-0.604,1.238-1.241,2.543-1.9,3.893c-0.673,1.322-1.279,2.731-1.837,4.17
								c-0.265,0.728-0.548,1.459-0.75,2.219l-0.334,1.133l-0.271,1.153c-0.366,1.539-0.586,3.11-0.754,4.662
								c-0.068,0.777-0.107,1.552-0.151,2.316c0.001,0.765-0.029,1.524-0.002,2.268c0.089,2.981,0.505,5.754,1.064,8.085
								c0.153,0.58,0.3,1.136,0.44,1.664c0.168,0.521,0.327,1.015,0.476,1.479c0.291,0.934,0.645,1.706,0.886,2.366
								c0.573,1.287,0.917,2.017,0.917,2.017L338.106,232.952z"/>
						</g>
						<g>
							<path class="st37" d="M341.023,228.181c0,0-0.037-0.202-0.106-0.581c-0.061-0.381-0.193-0.929-0.258-1.654
								c-0.103-0.721-0.154-1.599-0.198-2.608c0.003-0.505,0.005-1.043,0.008-1.61c0.035-0.566,0.071-1.161,0.109-1.782
								c0.126-1.237,0.291-2.579,0.579-3.977c0.26-1.404,0.654-2.857,1.085-4.351c0.881-2.983,2.054-6.082,3.289-9.14
								c1.237-3.05,2.424-6.107,3.46-8.973c0.547-1.423,1.019-2.815,1.456-4.135c0.441-1.32,0.789-2.585,1.105-3.757
								c0.139-0.59,0.273-1.156,0.4-1.694c0.107-0.543,0.208-1.059,0.303-1.543c0.156-0.974,0.29-1.83,0.364-2.54
								c0.104-0.71,0.102-1.272,0.145-1.656c0.033-0.386,0.05-0.591,0.05-0.591l0.177-0.01c0,0,0.029,0.205,0.084,0.59
								c0.05,0.386,0.138,0.954,0.168,1.682c0.067,0.729,0.068,1.615,0.043,2.637c-0.054,1.017-0.15,2.167-0.343,3.409
								c-0.205,1.238-0.468,2.576-0.85,3.96c-0.348,1.395-0.857,2.819-1.369,4.29c-1.108,2.915-2.534,5.896-3.887,8.889
								c-1.35,2.987-2.63,5.998-3.614,8.893c-0.983,2.894-1.675,5.667-2.027,8.087c-0.07,0.607-0.137,1.189-0.201,1.742
								c-0.033,0.556-0.064,1.084-0.093,1.58c-0.01,0.994-0.006,1.862,0.056,2.572c0.024,0.713,0.128,1.274,0.168,1.656
								c0.048,0.382,0.074,0.586,0.074,0.586L341.023,228.181z"/>
						</g>
						<g>
							<path class="st37" d="M380.53,110.956l0.658,1.707l0.603,1.735c0.376,1.164,0.72,2.339,1.032,3.524
								c0.299,1.188,0.566,2.384,0.801,3.589c0.222,1.207,0.411,2.419,0.568,3.638c0.143,1.22,0.258,2.444,0.327,3.672
								c0.059,1.228,0.084,2.458,0.077,3.69c-0.021,1.231-0.075,2.461-0.162,3.691c-0.1,1.228-0.235,2.454-0.403,3.676l-0.072-0.407
								c1.621,2.778,3.696,5.279,5.928,7.643c2.215,2.378,4.623,4.62,6.821,7.102c2.217,2.465,4.262,5.141,5.858,8.098
								c0.382,0.748,0.75,1.503,1.064,2.282c0.171,0.383,0.312,0.779,0.451,1.175c0.148,0.392,0.281,0.789,0.39,1.195
								c0.253,0.798,0.401,1.628,0.536,2.449c0.049,0.415,0.119,0.825,0.149,1.239l0.05,1.243l-0.177,0.015
								c-0.167-0.805-0.332-1.6-0.565-2.378c-0.231-0.777-0.509-1.537-0.819-2.28c-0.142-0.376-0.307-0.743-0.485-1.105
								c-0.17-0.364-0.34-0.728-0.541-1.077c-0.371-0.712-0.796-1.397-1.226-2.074c-0.43-0.679-0.886-1.341-1.361-1.99
								c-0.487-0.642-0.967-1.287-1.48-1.911c-0.505-0.628-1.032-1.242-1.569-1.847c-0.525-0.615-1.071-1.216-1.617-1.815
								c-2.22-2.375-4.496-4.742-6.671-7.246c-2.167-2.5-4.227-5.155-5.836-8.103l-0.108-0.198l0.035-0.209
								c0.201-1.189,0.369-2.384,0.505-3.584c0.123-1.201,0.213-2.406,0.271-3.613c0.045-1.208,0.057-2.417,0.037-3.627
								c-0.036-1.209-0.091-2.419-0.184-3.627c-0.105-1.207-0.242-2.411-0.412-3.613c-0.183-1.199-0.398-2.394-0.646-3.583
								c-0.261-1.187-0.554-2.366-0.879-3.538l-0.527-1.745l-0.587-1.733L380.53,110.956z"/>
						</g>
						<g>
							<path class="st37" d="M349.926,99.332c0,0,0.225,0.067,0.647,0.192c0.426,0.104,1.033,0.347,1.801,0.679
								c0.74,0.374,1.637,0.854,2.547,1.579c0.931,0.696,1.876,1.622,2.769,2.741c1.797,2.228,3.353,5.302,4.041,8.851
								c0.073,0.449,0.148,0.902,0.222,1.359c0.047,0.446,0.094,0.895,0.141,1.346c0.068,0.935,0.104,1.871,0.089,2.812
								c-0.026,1.884-0.217,3.79-0.515,5.671c-0.583,3.768-1.56,7.438-2.511,10.826c-0.515,1.684-0.979,3.321-1.481,4.856
								c-0.486,1.539-0.961,2.99-1.413,4.326c-0.442,1.338-0.892,2.552-1.267,3.634c-0.376,1.082-0.716,2.022-1.015,2.791
								c-0.575,1.544-0.936,2.417-0.936,2.417l-0.17-0.05c0,0,0.164-0.93,0.507-2.542c0.16-0.809,0.376-1.785,0.64-2.9
								c0.264-1.115,0.535-2.381,0.88-3.747c0.335-1.369,0.713-2.849,1.128-4.408c0.4-1.564,0.887-3.195,1.355-4.893
								c1.008-3.372,2.166-6.922,2.887-10.557c0.354-1.817,0.604-3.65,0.693-5.462c0.047-0.907,0.043-1.805,0.012-2.68
								c-0.031-0.451-0.062-0.899-0.093-1.344c-0.055-0.428-0.109-0.853-0.163-1.275c-0.549-3.398-1.892-6.425-3.522-8.655
								c-0.811-1.121-1.682-2.06-2.552-2.776c-0.849-0.745-1.699-1.252-2.405-1.653c-0.724-0.354-1.305-0.622-1.731-0.748
								c-0.416-0.145-0.637-0.222-0.637-0.222L349.926,99.332z"/>
						</g>
						<g>
							<path class="st37" d="M365.455,107.077c0,0,0.083,0.102,0.24,0.292c0.152,0.195,0.398,0.457,0.657,0.848
								c0.282,0.375,0.577,0.857,0.907,1.418c0.31,0.572,0.633,1.232,0.93,1.979c0.58,1.496,1.052,3.338,1.203,5.352
								c0.085,1.006,0.086,2.051,0.041,3.111c-0.063,1.065-0.189,2.12-0.383,3.21c-0.184,1.016-0.449,2.105-0.723,3.119
								c-0.282,1.022-0.631,2.005-0.993,2.943c-0.776,1.856-1.688,3.489-2.528,4.841c-0.845,1.35-1.601,2.436-2.175,3.17
								c-0.554,0.745-0.9,1.152-0.9,1.152l-0.155-0.087c0,0,0.169-0.508,0.51-1.369c0.321-0.872,0.844-2.082,1.463-3.523
								c0.608-1.431,1.318-3.101,2.078-4.89c0.39-0.883,0.75-1.809,1.12-2.75c0.356-0.956,0.649-1.895,0.922-2.93
								c0.235-0.968,0.426-1.992,0.548-2.988c0.106-1.002,0.169-1.996,0.148-2.958c-0.037-1.924-0.328-3.714-0.763-5.201
								c-0.225-0.741-0.483-1.404-0.736-1.984c-0.274-0.569-0.521-1.063-0.762-1.446c-0.216-0.397-0.444-0.686-0.578-0.892
								c-0.14-0.203-0.214-0.311-0.214-0.311L365.455,107.077z"/>
						</g>
						<g>
							<path class="st37" d="M305.018,109.732c0,0,0.461,0.214,1.268,0.587c0.81,0.373,1.963,0.88,3.384,1.418
								c1.41,0.559,3.092,1.107,4.891,1.678c1.81,0.542,3.763,1.032,5.73,1.438c0.991,0.17,1.974,0.371,2.956,0.487
								c0.978,0.126,1.94,0.251,2.871,0.371c1.863,0.25,3.602,0.483,5.092,0.683c1.506,0.196,2.762,0.359,3.64,0.473
								c0.885,0.107,1.396,0.201,1.396,0.201l0.006,0.177c0,0-0.504,0.11-1.396,0.246c-0.891,0.156-2.174,0.283-3.718,0.32
								c-0.773,0.032-1.61,0.015-2.495-0.026c-0.887-0.018-1.815-0.133-2.774-0.243c-0.952-0.169-1.939-0.317-2.923-0.568
								c-0.99-0.218-1.984-0.485-2.979-0.739c-1.982-0.546-3.936-1.176-5.736-1.845c-0.892-0.357-1.765-0.67-2.564-1.04
								c-0.804-0.356-1.561-0.697-2.245-1.043c-1.378-0.665-2.504-1.282-3.273-1.721c-0.771-0.443-1.212-0.696-1.212-0.696
								L305.018,109.732z"/>
						</g>
						<g>
							<path class="st37" d="M286.375,121.156c0,0,0.113-0.18,0.312-0.496c0.191-0.31,0.531-0.763,0.972-1.24
								c0.215-0.25,0.471-0.496,0.75-0.753c0.271-0.267,0.6-0.495,0.926-0.754c0.673-0.49,1.459-0.919,2.281-1.283
								c0.827-0.341,1.682-0.687,2.531-0.818c0.426-0.037,0.84-0.077,1.233-0.027c0.392,0.027,0.76,0.075,1.093,0.167
								c0.667,0.154,1.195,0.388,1.539,0.598c0.347,0.206,0.526,0.352,0.526,0.352l-0.046,0.171c0,0-0.234,0.054-0.61,0.099
								c-0.377,0.053-0.898,0.106-1.498,0.195c-0.601,0.067-1.277,0.196-2.002,0.276c-0.361,0.054-0.743,0.064-1.13,0.117
								c-0.392,0.028-0.776,0.132-1.17,0.208c-0.769,0.216-1.519,0.51-2.209,0.835c-0.672,0.351-1.302,0.706-1.793,1.085
								c-0.509,0.363-0.877,0.706-1.152,0.968c-0.266,0.261-0.418,0.41-0.418,0.41L286.375,121.156z"/>
						</g>
					</g>
					<g>
						<path class="st26" d="M339.115,124.487c-2.024-3.959-0.232-9.409,3.747-11.394c4.289-2.14,9.89-0.044,12.562,3.935
							c2.673,3.979,2.758,9.285,1.219,13.824c-1.539,4.54-4.518,8.443-7.685,12.042"/>
						<g>
							<path class="st27" d="M339.88,124.039c-1.655-3.614-0.225-8.386,3.429-10.181c3.974-1.952,8.97,0.161,11.349,3.617
								c5.753,8.359-0.77,18.419-6.327,24.792c-0.747,0.857,0.502,2.116,1.254,1.254c4.008-4.597,7.852-9.75,8.743-15.949
								c0.726-5.052-0.581-10.597-4.807-13.8c-3.518-2.666-8.681-3.424-12.363-0.649c-3.628,2.734-4.661,7.767-2.81,11.811
								C338.823,125.97,340.352,125.07,339.88,124.039L339.88,124.039z"/>
						</g>
					</g>
					<g>
						<path class="st35" d="M99.79,193.604c-0.691,1.021-2.816,9.418-3.511,10.436c-1.229,6.234-0.792,3.846-1.408,8.639
							c-0.488,3.795-0.507,7.627-0.176,11.438c0.316,3.642,0.644,8.494,1.148,9.896c-10.295,1.274-20.713,1.483-36.768-1.199
							l-7.477-2.631"/>
						<path class="st36" d="M99.867,193.647c-0.228,0.405-0.343,0.827-0.499,1.264l-0.404,1.314l-0.757,2.648l-0.759,2.653
							l-0.408,1.324c-0.162,0.447-0.268,0.866-0.539,1.342l0.042-0.1l-0.667,3.713c-0.235,1.227-0.325,2.459-0.463,3.722
							c-0.141,1.261-0.275,2.492-0.347,3.737c-0.08,1.244-0.106,2.491-0.094,3.738c0.01,2.498,0.271,4.967,0.517,7.483
							c0.12,1.251,0.241,2.501,0.386,3.741c0.072,0.62,0.15,1.238,0.246,1.846c0.095,0.597,0.205,1.231,0.368,1.708l0.274,0.801
							l-0.836,0.113c-3.064,0.413-6.146,0.75-9.243,0.937c-1.548,0.096-3.099,0.159-4.651,0.176
							c-1.552,0.009-3.104,0.009-4.654-0.062c-1.549-0.078-3.096-0.181-4.64-0.311c-1.542-0.156-3.08-0.34-4.613-0.549
							c-1.532-0.213-3.063-0.433-4.586-0.694c-1.524-0.259-3.036-0.579-4.55-0.878l-0.059-0.012l-0.026-0.01
							c-1.229-0.486-2.46-0.97-3.679-1.485c-1.222-0.508-2.446-1.008-3.66-1.54l0.059-0.167c1.279,0.345,2.547,0.722,3.818,1.091
							c1.273,0.362,2.535,0.755,3.798,1.145l-0.084-0.022c1.525,0.183,3.049,0.368,4.575,0.524c1.521,0.19,3.047,0.339,4.571,0.481
							c1.525,0.142,3.051,0.243,4.576,0.344c1.524,0.108,3.049,0.19,4.575,0.248c1.526,0.042,3.05,0.111,4.576,0.118
							c1.526,0.001,3.052,0.006,4.578-0.046c3.052-0.094,6.104-0.314,9.149-0.651l-0.562,0.914c-0.224-0.722-0.298-1.34-0.389-1.985
							c-0.084-0.638-0.147-1.27-0.205-1.901c-0.116-1.262-0.206-2.52-0.296-3.776c-0.182-2.496-0.388-5.045-0.334-7.584
							c0.019-1.27,0.077-2.539,0.19-3.804c0.101-1.266,0.292-2.531,0.468-3.766c0.176-1.232,0.314-2.511,0.594-3.75l0.79-3.693
							l0.011-0.05l0.031-0.051c0.197-0.318,0.358-0.787,0.518-1.199l0.447-1.296l0.844-2.621l0.845-2.626l0.449-1.306
							c0.165-0.422,0.316-0.888,0.555-1.278L99.867,193.647z"/>
					</g>
					<g>
						<path class="st19" d="M88.804,141.349c-5.696-0.913-12.052-2.248-15.219-7.069c-2.483-3.78-1.971-9.438,1.554-12.271
							c3.526-2.832,9.662-1.729,11.51,2.399"/>
						<g>
							<path class="st20" d="M89.039,140.494c-6.267-1.022-15.236-2.838-16.047-10.566c-0.359-3.418,1.229-7.168,4.702-8.276
								c3.128-0.998,6.685,0.243,8.189,3.204c0.517,1.018,2.047,0.121,1.531-0.895c-1.634-3.217-5.242-4.787-8.761-4.324
								c-3.854,0.506-6.586,3.546-7.3,7.282c-1.983,10.378,9.251,13.987,17.215,15.286
								C89.684,142.386,90.164,140.678,89.039,140.494L89.039,140.494z"/>
						</g>
					</g>
					<g>
						<path class="st19" d="M156.701,141.349c5.696-0.913,12.052-2.248,15.219-7.069c2.483-3.78,1.971-9.438-1.554-12.271
							c-3.526-2.832-9.662-1.729-11.51,2.399"/>
						<g>
							<path class="st20" d="M156.937,142.204c7.97-1.299,19.191-4.904,17.215-15.286c-0.71-3.731-3.45-6.781-7.3-7.282
								c-3.52-0.458-7.125,1.105-8.761,4.324c-0.516,1.015,1.014,1.914,1.531,0.895c1.455-2.864,4.84-4.127,7.91-3.29
								c3.639,0.992,5.352,4.834,4.981,8.363c-0.811,7.726-9.781,9.544-16.047,10.566
								C155.342,140.678,155.819,142.386,156.937,142.204L156.937,142.204z"/>
						</g>
					</g>
					<ellipse class="st23" cx="122.9" cy="122.656" rx="43.467" ry="32.819"/>
					
						<ellipse transform="matrix(0.998 -0.0627 0.0627 0.998 -7.8307 7.3407)" class="st31" cx="113.029" cy="128.422" rx="3.232" ry="7.314"/>
					
						<ellipse transform="matrix(0.998 -0.0627 0.0627 0.998 -7.7775 9.0364)" class="st31" cx="140.07" cy="128.422" rx="3.232" ry="7.314"/>
					<g>
						<path class="st19" d="M103.113,142.095c5.792,6.442,14.583,10.067,23.232,9.579c8.649-0.488,16.977-5.079,22.007-12.132"/>
						<g>
							<path class="st20" d="M102.486,142.722c6.23,6.734,15.421,10.56,24.621,9.785c8.801-0.741,16.809-5.435,22.01-12.518
								c0.676-0.921-0.862-1.806-1.531-0.895c-10.575,14.401-31.758,15.439-43.847,2.374
								C102.963,140.629,101.711,141.885,102.486,142.722L102.486,142.722z"/>
						</g>
					</g>
					<g>
						<path class="st19" d="M120.724,137.122c-2.165-0.15-3.441,2.824-2.477,4.769c0.964,1.944,3.192,2.892,5.3,3.405
							c2.143,0.522,4.417,0.758,6.542,0.166c2.125-0.592,4.076-2.131,4.71-4.244c0.633-2.113-0.376-4.721-2.443-5.489"/>
						<g>
							<path class="st20" d="M120.724,136.236c-2.565,0.124-4.12,2.67-3.58,5.119c0.762,3.457,5,4.721,8.031,5.158
								c3.577,0.516,7.733-0.208,9.785-3.526c1.731-2.799,0.852-6.571-2.156-8.022c-1.023-0.493-1.924,1.035-0.895,1.531
								c2.478,1.195,2.747,4.057,1.13,6.069c-1.501,1.867-3.913,2.453-6.213,2.347c-1.854-0.086-3.941-0.485-5.591-1.371
								c-0.918-0.493-2.021-1.316-2.327-2.389c-0.368-1.29,0.257-3.066,1.817-3.141C121.86,137.954,121.867,136.181,120.724,136.236
								L120.724,136.236z"/>
						</g>
					</g>
					<g>
						<path class="st38" d="M86.488,123.609c3.787-1.17,7.412-2.854,10.748-4.987c-1.38,2.333-1.763,5.256-0.987,7.856
							c8.616-1.592,16.837-5.274,23.796-10.598c-1.001,3.146-1.45,6.466-1.316,9.765c9.576-0.621,18.673-6.705,22.832-15.362
							c-0.685,3.33-0.278,6.881,1.144,9.968c4.973-1.613,9.311-5.184,11.732-9.832c-0.259,3.824-0.518,7.649-0.776,11.473
							c-0.101,1.496-0.11,3.227,1.026,4.205c1.407,1.211,3.581,0.468,5.177-0.479c2.329-1.381,4.452-3.103,6.298-5.084
							c0.997-7.161-0.941-14.828-5.154-20.791c-6.035-8.542-16.101-13.717-26.449-15.23s-20.961,0.354-30.844,3.773
							c-8.004,2.769-15.934,6.777-21.101,13.488c-5.065,6.578-6.802,16.244-2.476,23.284
							C82.289,124.737,84.413,124.25,86.488,123.609z"/>
						<g>
							<path class="st39" d="M86.724,124.464c3.87-1.237,7.514-2.92,10.959-5.076c-0.404-0.404-0.809-0.809-1.213-1.213
								c-1.453,2.712-1.827,5.552-1.076,8.539c0.123,0.491,0.628,0.708,1.091,0.619c8.739-1.685,16.9-5.335,24.008-10.688
								c-0.434-0.334-0.868-0.667-1.302-1.001c-0.985,3.275-1.431,6.582-1.348,10c0.011,0.45,0.398,0.925,0.887,0.887
								c10.022-0.797,19.097-6.778,23.598-15.801c-0.54-0.228-1.08-0.455-1.62-0.683c-0.66,3.717-0.251,7.183,1.234,10.652
								c0.144,0.337,0.666,0.523,1.001,0.407c5.262-1.816,9.584-5.34,12.262-10.239c-0.551-0.149-1.101-0.298-1.652-0.447
								c-0.237,3.506-0.486,7.01-0.712,10.517c-0.129,1.997-0.406,4.535,1.401,5.926c3.723,2.867,9.597-2.633,11.988-5.115
								c1.571-1.632,1.156-4.735,1.017-6.846c-0.192-2.92-0.801-5.815-1.81-8.562c-1.916-5.216-5.221-9.779-9.454-13.365
								c-8.956-7.588-20.883-10.48-32.433-9.767c-11.788,0.728-24.833,4.388-34.544,11.315c-9.56,6.819-16.121,19.832-9.631,30.983
								c0.215,0.37,0.607,0.471,1.001,0.407C82.53,125.566,84.63,125.086,86.724,124.464c1.091-0.324,0.627-2.036-0.471-1.71
								c-2.094,0.622-4.194,1.103-6.351,1.448c0.334,0.136,0.667,0.272,1.001,0.407c-5.186-8.912-1.088-19.81,6.097-26.241
								c7.487-6.701,17.957-10.219,27.644-12.189c10.38-2.11,21.456-1.895,31.231,2.524c8.86,4.006,16.185,11.254,18.707,20.825
								c0.738,2.799,1.062,5.708,0.917,8.601c-0.152,3.04-2.966,4.77-5.391,6.296c-1.517,0.955-4.434,2.679-5.48-0.161
								c-0.438-1.189-0.034-3.085,0.048-4.287c0.216-3.187,0.431-6.374,0.647-9.561c0.06-0.886-1.243-1.196-1.652-0.447
								c-2.453,4.489-6.369,7.757-11.202,9.424c0.334,0.136,0.667,0.272,1.001,0.407c-1.272-2.971-1.619-6.108-1.055-9.285
								c0.163-0.918-1.139-1.649-1.62-0.683c-4.211,8.442-12.651,14.174-22.067,14.923c0.296,0.296,0.591,0.591,0.887,0.887
								c-0.08-3.262,0.345-6.405,1.284-9.529c0.206-0.685-0.667-1.48-1.302-1.001c-6.999,5.271-14.978,8.849-23.584,10.509
								c0.364,0.206,0.727,0.413,1.091,0.619c-0.637-2.535-0.336-4.87,0.898-7.173c0.403-0.752-0.431-1.702-1.213-1.213
								c-3.315,2.075-6.809,3.706-10.536,4.897C85.17,123.1,85.633,124.813,86.724,124.464z"/>
						</g>
					</g>
					<g>
						<g>
							<path class="st38" d="M99.405,116.525c3.87-2.443,7.099-5.892,9.283-9.915"/>
							<path class="st39" d="M99.357,116.451c0,0,0.682-0.542,1.623-1.398c0.943-0.865,2.121-2.082,3.182-3.377
								c0.526-0.655,0.958-1.377,1.422-1.999c0.473-0.616,0.972-1.15,1.409-1.613c0.445-0.458,0.832-0.839,1.13-1.097
								c0.291-0.261,0.488-0.398,0.488-0.398c0.044-0.032,0.105-0.022,0.137,0.022c0.013,0.018,0.019,0.042,0.019,0.063
								c0,0-0.049,0.952-0.585,2.185c-0.126,0.312-0.289,0.636-0.478,0.968c-0.176,0.342-0.412,0.668-0.659,1.003
								c-0.525,0.647-1.206,1.232-1.846,1.836c-0.65,0.597-1.317,1.172-1.978,1.662c-0.661,0.491-1.297,0.917-1.86,1.251
								c-1.121,0.687-1.905,1.042-1.905,1.042l-0.005,0.002c-0.045,0.02-0.097,0-0.118-0.044
								C99.314,116.519,99.326,116.475,99.357,116.451z"/>
						</g>
						<g>
							<path class="st38" d="M115.503,111.66c6.657-2.153,12.522-6.67,16.302-12.557"/>
							<path class="st39" d="M115.473,111.576c0,0,0.301-0.131,0.829-0.361c0.529-0.236,1.265-0.563,2.125-1.028
								c0.867-0.445,1.834-1.045,2.853-1.694c1.008-0.671,2.038-1.447,3.018-2.273c0.472-0.436,0.961-0.849,1.393-1.31
								c0.439-0.449,0.87-0.891,1.288-1.319c0.839-0.846,1.661-1.603,2.348-2.283c0.708-0.677,1.298-1.242,1.711-1.637
								c0.421-0.4,0.691-0.616,0.691-0.616c0.039-0.033,0.097-0.029,0.13,0.009c0.02,0.023,0.026,0.058,0.019,0.086
								c0,0-0.096,0.328-0.316,0.879c-0.217,0.554-0.587,1.316-1.132,2.17c-0.263,0.435-0.585,0.879-0.944,1.335
								c-0.343,0.471-0.77,0.911-1.207,1.368c-0.916,0.877-2.023,1.662-3.114,2.44c-1.109,0.758-2.256,1.451-3.362,2.035
								c-0.563,0.275-1.092,0.565-1.623,0.781c-0.525,0.227-1.023,0.436-1.493,0.603c-0.928,0.352-1.729,0.604-2.281,0.749
								c-0.556,0.148-0.874,0.232-0.874,0.232c-0.047,0.013-0.096-0.016-0.109-0.063
								C115.411,111.637,115.434,111.593,115.473,111.576z"/>
						</g>
						<g>
							<path class="st38" d="M143.526,109.444c3.439-4.333,4.892-10.182,3.881-15.621"/>
							<path class="st39" d="M143.455,109.391c0,0,0.135-0.222,0.373-0.611c0.236-0.396,0.557-0.937,0.885-1.635
								c0.345-0.685,0.664-1.52,0.991-2.408c0.304-0.899,0.558-1.876,0.743-2.86c0.065-0.498,0.157-0.989,0.177-1.481
								c0.043-0.489,0.049-0.97,0.096-1.431c0.073-0.922,0.195-1.783,0.266-2.537c0.089-0.768,0.164-1.407,0.216-1.855
								c0.055-0.459,0.117-0.734,0.117-0.734c0.009-0.052,0.058-0.086,0.11-0.077c0.026,0.005,0.051,0.024,0.065,0.045
								c0,0,0.142,0.237,0.338,0.674c0.2,0.436,0.422,1.082,0.572,1.882c0.088,0.4,0.137,0.838,0.167,1.303
								c0.051,0.466,0.019,0.958-0.011,1.466c-0.113,1.013-0.43,2.06-0.736,3.087c-0.333,1.023-0.733,2.017-1.172,2.915
								c-0.237,0.441-0.44,0.877-0.69,1.26c-0.239,0.389-0.469,0.752-0.705,1.072c-0.451,0.647-0.874,1.171-1.178,1.502
								c-0.307,0.337-0.482,0.529-0.482,0.529c-0.033,0.036-0.089,0.039-0.126,0.006
								C143.439,109.474,143.433,109.427,143.455,109.391z"/>
						</g>
						<g>
							<path class="st38" d="M157.617,115.11c1.706-9.573-2.402-19.949-10.198-25.761"/>
							<path class="st39" d="M157.529,115.098c0,0,0.041-0.453,0.113-1.247c0.049-0.397,0.063-0.879,0.065-1.426
								c0.019-0.547,0.019-1.163-0.035-1.839c-0.018-0.674-0.105-1.4-0.209-2.163c-0.085-0.764-0.263-1.559-0.416-2.38
								c-0.211-0.811-0.397-1.654-0.693-2.481c-0.246-0.841-0.61-1.656-0.933-2.48c-0.398-0.795-0.748-1.608-1.214-2.346
								c-0.424-0.759-0.901-1.467-1.341-2.163c-0.47-0.675-0.881-1.361-1.328-1.97c-0.44-0.616-0.853-1.205-1.274-1.72
								c-0.204-0.265-0.399-0.519-0.585-0.76c-0.198-0.232-0.386-0.452-0.563-0.659c-0.346-0.425-0.653-0.797-0.922-1.088
								c-0.535-0.586-0.828-0.954-0.828-0.954l-0.004-0.005c-0.031-0.039-0.025-0.096,0.014-0.127
								c0.028-0.022,0.065-0.025,0.096-0.011c0,0,0.415,0.203,1.12,0.615c0.367,0.189,0.775,0.467,1.231,0.809
								c0.464,0.332,0.977,0.725,1.481,1.214c0.255,0.242,0.537,0.48,0.8,0.754c0.254,0.283,0.516,0.575,0.786,0.875
								c0.556,0.59,1.026,1.306,1.531,2.028c0.432,0.769,0.913,1.544,1.265,2.402c0.402,0.831,0.716,1.715,1.056,2.584
								c0.278,0.892,0.592,1.77,0.787,2.667c0.245,0.883,0.375,1.776,0.531,2.63c0.092,0.865,0.232,1.694,0.237,2.491
								c0.03,0.795,0.047,1.544-0.002,2.235c-0.013,0.69-0.074,1.322-0.148,1.881c-0.058,0.56-0.119,1.041-0.206,1.43
								c-0.149,0.783-0.234,1.23-0.234,1.23c-0.009,0.048-0.056,0.08-0.104,0.071C157.556,115.185,157.525,115.143,157.529,115.098z
								"/>
						</g>
					</g>
					<g id="XMLID_71_">
						<path class="st40" d="M186.213,305.776l-83.711,24.466c-1.102,0.322-2.283-0.144-2.867-1.133l-1.699-2.876
							c-0.676-1.145-1.205-2.377-1.501-3.673c-2.546-11.156,9.072-20.965,9.072-20.965l0,0c0.43-8.907,5.75-16.846,13.824-20.631
							l11.714-5.492c4.171-1.956,9.097-1.325,12.641,1.619l9.229,7.665l19.346-0.231c7.202-0.449,12.931,5.321,14.035,10.492
							l1.67,7.824C188.239,304.127,187.475,305.407,186.213,305.776z"/>
						
							<use xlink:href="#New_Symbol_47"  width="68.333" height="68.333" id="XMLID_77_" x="-34.167" y="-34.167" transform="matrix(-0.3269 0.0955 -0.0955 -0.3269 165.5295 303.17)" style="overflow:visible;"/>
						
							<use xlink:href="#New_Symbol_47"  width="68.333" height="68.333" id="XMLID_76_" x="-34.167" y="-34.167" transform="matrix(-0.3269 0.0955 -0.0955 -0.3269 115.4048 317.8199)" style="overflow:visible;"/>
						<g>
							<path class="st41" d="M120.793,296.284l-12.387,4.389c0.305-5.774,3.005-11.088,7.314-14.786L120.793,296.284z"/>
							<path class="st41" d="M118.131,284.096c0.789-0.504,1.617-0.961,2.481-1.364l10.302-4.803
								c3.669-1.71,7.991-1.18,11.092,1.361l8.076,6.617l-26.489,9.385L118.131,284.096z"/>
						</g>
						
							<use xlink:href="#New_Symbol_46"  width="40.207" height="43.467" id="XMLID_75_" x="-19.954" y="-21.787" transform="matrix(-0.3269 0.0955 -0.0838 -0.2867 183.9482 301.0926)" style="overflow:visible;"/>
						
							<use xlink:href="#New_Symbol_46"  width="40.207" height="43.467" id="XMLID_74_" x="-19.954" y="-21.787" transform="matrix(0.2382 -0.0696 -0.0838 -0.2867 100.5887 325.456)" style="overflow:visible;"/>
						
							<use xlink:href="#New_Symbol_45"  width="28.996" height="29.075" id="XMLID_73_" x="-14.484" y="-14.552" transform="matrix(-0.3269 0.0955 -0.0955 -0.3269 179.0255 288.1313)" style="overflow:visible;"/>
						
							<use xlink:href="#New_Symbol_45"  width="28.996" height="29.075" id="XMLID_72_" x="-14.484" y="-14.552" transform="matrix(0.3269 -0.0955 -0.0955 -0.3269 99.262 311.4437)" style="overflow:visible;"/>
					</g>
					<path class="st23" d="M135.047,264.474c2.395,1.842,4.469,4.11,6.098,6.657c1.672,2.616,1.418,6.015-0.676,8.308
						c-2.548,2.79-5.537,5.176-8.84,7.011c-4.5,2.499-11.234,3.855-17.642,4.126c-3.41,0.144-6.811-0.888-9.509-2.979
						c-0.111-0.086-0.221-0.173-0.329-0.261c-2.05-1.659-2.44-4.684-0.838-6.779c6.959-9.097,18.042-16.688,28.796-18.036
						C133.13,263.103,134.113,263.756,135.047,264.474z"/>
				</g>
			</g>
			
				<use xlink:href="#New_Symbol_48"  width="148.202" height="48.309" id="XMLID_70_" x="-74.164" y="-23.967" transform="matrix(1.5846 0 0 -1.5846 188.8983 380.6447)" style="overflow:visible;"/>
			<g id="XMLID_68_">
				<g>
					<g>
						<path class="st14" d="M63.734,357.213l-0.191,0.339c-0.665,1.176-0.782,2.563-0.319,3.724
							c1.516,3.798,5.737,12.276,14.668,17.232l2.762,3.268c0.695,0.823,1.581,1.438,2.585,1.797
							c1.308,0.468,3.091,0.845,4.327,0.081c0.474-0.293,0.56-0.985,0.178-1.325c-0.314-0.279-0.812-0.631-1.603-1.029
							c-1.978-0.994-3.442-1.822-3.442-1.822s1.973,0.12,2.852-0.603c0.237-0.195,0.228-0.567-0.006-0.713
							c-0.656-0.41-2.372-1.262-6.262-2.114c0,0-8.141-6.371-10.395-17.099c-0.276-1.314-1.174-2.32-2.392-2.664l-0.479-0.135
							C65.17,355.912,64.22,356.354,63.734,357.213z"/>
						<path class="st14" d="M87.576,383.676c-1.25,0.773-3.054,0.384-4.348-0.078c-1.003-0.359-1.9-0.982-2.594-1.803l-2.76-3.265
							c-3.883-2.156-7.288-5.202-10.118-9.054c-2.332-3.174-3.765-6.204-4.556-8.187c-0.466-1.168-0.346-2.569,0.321-3.748
							l0.191-0.339c0.489-0.864,1.461-1.317,2.311-1.077l0.479,0.135c1.228,0.347,2.128,1.349,2.408,2.681
							c1.163,5.536,3.926,9.887,6.038,12.561c2.242,2.839,4.245,4.441,4.346,4.521c3.859,0.846,5.581,1.688,6.264,2.116
							c0.192,0.12,0.248,0.396,0.124,0.616c-0.031,0.054-0.07,0.102-0.119,0.141c-0.765,0.629-2.315,0.628-2.754,0.614
							c0.36,0.201,1.676,0.929,3.343,1.766c0.684,0.344,1.225,0.691,1.608,1.032c0.276,0.246,0.329,0.686,0.125,1.046
							C87.81,383.486,87.703,383.597,87.576,383.676z M82.702,379.452c0.02,0.001,1.973,0.111,2.834-0.596
							c0.042-0.035,0.077-0.077,0.104-0.124c0.11-0.194,0.06-0.439-0.11-0.546c-0.681-0.426-2.4-1.267-6.255-2.111l-0.005-0.001
							l-0.004-0.003c-0.02-0.016-2.064-1.628-4.356-4.53c-2.116-2.679-4.882-7.036-6.048-12.582
							c-0.276-1.315-1.165-2.305-2.377-2.647l-0.479-0.135c-0.829-0.234-1.775,0.207-2.252,1.049l-0.191,0.339
							c-0.658,1.164-0.777,2.547-0.317,3.699c0.79,1.98,2.222,5.007,4.551,8.177c2.827,3.848,6.228,6.891,10.107,9.044l0.003,0.002
							l2.765,3.271c0.689,0.815,1.579,1.434,2.575,1.79c1.284,0.459,3.073,0.846,4.306,0.084c0.119-0.074,0.219-0.178,0.289-0.302
							c0.191-0.337,0.141-0.75-0.118-0.98c-0.38-0.338-0.918-0.683-1.599-1.025c-1.956-0.983-3.428-1.814-3.443-1.822l-0.101-0.057
							L82.702,379.452z"/>
					</g>
				</g>
				<path class="st16" d="M57.569,379.039c0,0,5.257,0.756,7.945,1.143c0.923,0.133,1.543,0.222,1.543,0.222l4.075-1.7l0.086,3.488
					c0,0-0.835,0.814-2.725,1.019c0,0,0.283,6.351-0.85,8.369c0,0-2.111,0.388-4.015,0.243c-0.107-1.737-0.414-5.191-1.256-8.438
					c-4.323-0.256-4.947-0.852-4.947-0.852L57.569,379.039z"/>
				<path class="st14" d="M57.36,381.739l0.209-3.463c0.145-2.398,0.09-4.803-0.155-7.193c-0.592-5.797-1.194-17.363,3.469-17.142
					c6.218,0.295,9.363,8.322,10.362,27.454C71.246,381.396,69.396,383.231,57.36,381.739z"/>
				<path class="st15" d="M66.248,349.52l-1.282,7.229c-0.008,0.044-0.017,0.088-0.029,0.131l0,0
					c-0.283,1.092-1.522,1.621-2.506,1.07h0c-0.614-0.344-1.137-0.831-1.523-1.42l-0.995-1.518
					c-0.255-0.388-0.419-0.829-0.482-1.289l-0.548-4.022L66.248,349.52z"/>
				
					<ellipse transform="matrix(-0.9997 0.0247 -0.0247 -0.9997 134.1906 693.1458)" class="st15" cx="62.815" cy="347.402" rx="8.535" ry="6.215"/>
				<path class="st16" d="M66.429,392.695l1.075-0.262c0.599-0.146,1.063-0.618,1.198-1.22c0.318-1.418,0.825-4.16,0.726-6.881
					c-0.006-0.157,0.083-0.302,0.227-0.366l1.159-0.513c0.238-0.105,0.51,0.052,0.536,0.311c0.31,3.071,1.5,19.438-5.309,42.6
					c0,0,1.296,1.336,5.003,2.264c2.181,0.546,4.018,1.215,4.947,1.941c0.407,0.319,0.206,0.973-0.309,1.015
					c-2.954,0.24-10.081,0.63-13.513-0.805c-0.637-0.266-0.974-0.966-0.799-1.633c1.078-4.113,4.806-19.793,2.44-31.751
					c-0.184-0.93-0.029-1.894,0.425-2.726l0,0c0.248-0.455,0.581-0.858,0.98-1.188l0.542-0.448
					C65.952,392.871,66.182,392.755,66.429,392.695z"/>
				<path class="st16" d="M65.198,393.02l-1.444,4.675c0,0,1.051,14.815-2.887,32.279c0,0,1.87,2.157,6.082,3.316
					c1.198,0.33,1.781,0.329,2.703,0.931c0.711,0.464,0.403,1.568-0.446,1.593c-3.037,0.09-8.501,0.083-12.541-0.866
					c-0.799-0.188-1.29-0.99-1.088-1.786c0.824-3.252,2.611-12.259,1.759-26.783c-1.051-17.915-1.363-17.839-0.087-22.353
					c0.087-0.307,0.393-0.498,0.706-0.44l2.915,0.533c0.218,0.04,0.397,0.193,0.472,0.402c0.29,0.815,0.953,3.097,0.933,6.886
					c-0.002,0.327,0.125,0.643,0.353,0.877l0,0c0.236,0.241,0.559,0.376,0.896,0.374l1.399-0.008
					C65.116,392.648,65.255,392.835,65.198,393.02z"/>
				<g id="XMLID_69_">
					<path class="st14" d="M59.296,355.978l-0.377,0.009c-1.308,0.032-2.517,0.699-3.248,1.784
						c-2.392,3.552-7.312,12.268-6.956,23.444l-1.329,4.428c-0.335,1.115-0.402,2.292-0.198,3.437
						c0.266,1.492,0.845,3.382,2.097,4.116c0.481,0.282,1.097-0.025,1.188-0.575c0.075-0.451,0.117-1.118,0.051-2.084
						c-0.165-2.417-0.21-4.258-0.21-4.258s0.887,1.924,1.926,2.346c0.28,0.114,0.584-0.103,0.589-0.405
						c0.012-0.847-0.14-2.938-1.379-7.075c0,0,1.212-11.225,8.982-19.35c0.952-0.995,1.337-2.403,1.013-3.742l-0.127-0.527
						C61.094,356.601,60.252,355.954,59.296,355.978z"/>
				</g>
				<circle class="st16" cx="56.708" cy="360.729" r="1.08"/>
				<circle class="st16" cx="58.452" cy="387.581" r="1.08"/>
			</g>
			<g>
				<g>
					<g>
						<path class="st15" d="M375.234,363.27l0.158,0.279c0.548,0.969,0.644,2.111,0.263,3.067
							c-1.249,3.129-4.726,10.112-12.082,14.194l-2.275,2.692c-0.573,0.678-1.302,1.184-2.129,1.48
							c-1.077,0.385-2.546,0.696-3.564,0.067c-0.391-0.242-0.461-0.812-0.146-1.092c0.258-0.23,0.669-0.52,1.321-0.847
							c1.629-0.819,2.835-1.501,2.835-1.501s-1.625,0.099-2.349-0.496c-0.195-0.16-0.188-0.467,0.005-0.588
							c0.54-0.338,1.954-1.039,5.158-1.741c0,0,6.706-5.248,8.563-14.084c0.227-1.082,0.967-1.911,1.971-2.194l0.395-0.111
							C374.051,362.198,374.834,362.562,375.234,363.27z"/>
						<path class="st42" d="M355.34,384.801c-0.168-0.297-0.124-0.659,0.103-0.861c0.316-0.281,0.761-0.567,1.324-0.85
							c1.373-0.69,2.456-1.289,2.753-1.455c-0.362,0.011-1.639,0.012-2.269-0.505c-0.04-0.033-0.072-0.072-0.098-0.116
							c-0.102-0.181-0.056-0.408,0.102-0.507c0.563-0.352,1.981-1.046,5.16-1.743c0.083-0.065,1.733-1.385,3.58-3.724
							c1.74-2.203,4.015-5.786,4.973-10.347c0.231-1.098,0.972-1.923,1.983-2.209l0.395-0.111c0.7-0.198,1.501,0.175,1.903,0.887
							l0.158,0.279c0.549,0.971,0.648,2.125,0.264,3.087c-0.652,1.633-1.832,4.129-3.753,6.744
							c-2.331,3.173-5.135,5.682-8.334,7.458l-2.273,2.69c-0.571,0.676-1.31,1.19-2.137,1.485c-1.065,0.381-2.552,0.702-3.581,0.065
							C355.49,385.003,355.402,384.911,355.34,384.801z M359.708,381.582l-0.083,0.047c-0.012,0.007-1.225,0.692-2.836,1.501
							c-0.561,0.282-1.004,0.566-1.317,0.845c-0.213,0.19-0.254,0.529-0.097,0.807c0.058,0.102,0.14,0.188,0.238,0.249
							c1.016,0.628,2.489,0.309,3.547-0.069c0.82-0.293,1.554-0.803,2.121-1.475l2.278-2.695l0.003-0.002
							c3.196-1.773,5.997-4.28,8.326-7.45c1.918-2.611,3.097-5.104,3.748-6.735c0.379-0.949,0.281-2.088-0.261-3.047l-0.158-0.279
							c-0.392-0.694-1.172-1.057-1.855-0.864l-0.395,0.111c-0.998,0.282-1.73,1.097-1.958,2.18
							c-0.96,4.568-3.239,8.158-4.982,10.364c-1.888,2.391-3.571,3.718-3.588,3.732l-0.003,0.002l-0.004,0.001
							c-3.176,0.696-4.591,1.388-5.152,1.739c-0.141,0.088-0.181,0.29-0.091,0.45c0.022,0.039,0.051,0.074,0.086,0.102
							c0.709,0.583,2.318,0.492,2.335,0.491L359.708,381.582z"/>
					</g>
				</g>
				<path class="st43" d="M380.312,381.248c0,0-4.33,0.623-6.544,0.942c-0.76,0.109-1.271,0.183-1.271,0.183l-3.357-1.4
					l-0.071,2.873c0,0,0.688,0.671,2.245,0.839c0,0-0.233,5.232,0.7,6.893c0,0,1.739,0.32,3.307,0.2
					c0.089-1.431,0.341-4.276,1.034-6.95c3.561-0.211,4.075-0.702,4.075-0.702L380.312,381.248z"/>
				<path class="st44" d="M380.772,383.304l-0.258-2.846c-0.179-1.971-0.194-3.952-0.052-5.926
					c0.343-4.788,0.55-14.325-3.284-14.027c-5.112,0.397-7.502,7.085-7.847,22.862C369.331,383.367,370.9,384.832,380.772,383.304z"
					/>
				<path class="st15" d="M373.164,356.933l1.056,5.954c0.006,0.036,0.014,0.072,0.024,0.108l0,0
					c0.233,0.899,1.254,1.335,2.065,0.881l0,0c0.506-0.283,0.936-0.684,1.254-1.169l0.819-1.25c0.21-0.32,0.345-0.682,0.397-1.061
					l0.451-3.313L373.164,356.933z"/>
				
					<ellipse transform="matrix(0.9997 0.0247 -0.0247 0.9997 8.8863 -9.177)" class="st15" cx="375.991" cy="355.188" rx="7.031" ry="5.12"/>
				<path class="st43" d="M373.014,392.497l-0.886-0.216c-0.493-0.12-0.875-0.509-0.987-1.005c-0.262-1.168-0.68-3.427-0.598-5.668
					c0.005-0.129-0.069-0.249-0.187-0.301l-0.954-0.423c-0.196-0.087-0.42,0.043-0.441,0.256c-0.255,2.529-1.235,16.011,4.373,35.09
					c0,0-1.068,1.101-4.121,1.865c-1.797,0.449-3.31,1.001-4.075,1.599c-0.335,0.262-0.17,0.801,0.255,0.836
					c2.433,0.197,8.304,0.519,11.131-0.663c0.524-0.219,0.802-0.796,0.658-1.345c-0.888-3.388-3.959-16.304-2.009-26.154
					c0.152-0.766,0.024-1.56-0.35-2.245l0,0c-0.205-0.374-0.479-0.706-0.807-0.978l-0.446-0.369
					C373.408,392.641,373.218,392.546,373.014,392.497z"/>
				<path class="st43" d="M374.028,392.764l1.19,3.851c0,0-0.866,12.203,2.378,26.589c0,0-1.54,1.777-5.01,2.731
					c-0.987,0.272-1.467,0.271-2.226,0.767c-0.585,0.382-0.332,1.292,0.367,1.312c2.501,0.074,7.002,0.068,10.33-0.713
					c0.658-0.155,1.062-0.816,0.896-1.471c-0.679-2.679-2.151-10.098-1.449-22.062c0.866-14.757,1.123-14.694,0.072-18.413
					c-0.071-0.253-0.323-0.41-0.582-0.363l-2.401,0.439c-0.18,0.033-0.327,0.159-0.389,0.331c-0.239,0.671-0.785,2.551-0.769,5.672
					c0.001,0.27-0.103,0.53-0.291,0.722l0,0c-0.194,0.199-0.461,0.31-0.738,0.308l-1.152-0.007
					C374.096,392.458,373.981,392.612,374.028,392.764z"/>
				<g id="XMLID_67_">
					<path class="st15" d="M378.89,362.252l0.31,0.008c1.077,0.027,2.073,0.575,2.675,1.469c1.97,2.926,6.023,10.105,5.73,19.312
						l1.095,3.648c0.276,0.918,0.331,1.888,0.163,2.831c-0.219,1.229-0.696,2.785-1.727,3.391c-0.396,0.232-0.904-0.02-0.979-0.473
						c-0.062-0.372-0.096-0.921-0.042-1.717c0.136-1.991,0.173-3.507,0.173-3.507s-0.73,1.584-1.587,1.933
						c-0.23,0.094-0.481-0.085-0.485-0.333c-0.01-0.697,0.115-2.42,1.135-5.828c0,0-0.999-9.247-7.398-15.939
						c-0.784-0.82-1.101-1.98-0.834-3.082l0.105-0.434C377.409,362.765,378.103,362.233,378.89,362.252z"/>
				</g>
				<circle class="st16" cx="381.022" cy="366.166" r="0.889"/>
				<circle class="st16" cx="379.585" cy="388.284" r="0.889"/>
			</g>
			<g id="XMLID_51_">
				<path class="st14" d="M226.969,449.319H124.208c-1.353,0-2.534-0.918-2.868-2.23l-0.971-3.814
					c-0.386-1.518-0.577-3.086-0.483-4.65c0.809-13.459,17.19-20.712,17.19-20.712h0c3.431-9.931,12.071-17.152,22.454-18.764
					l15.063-2.339c5.364-0.833,10.726,1.509,13.761,6.009l7.904,11.719l21.956,6.133c8.293,1.873,12.865,10.292,12.404,16.506
					l-0.697,9.401C229.806,448.123,228.519,449.319,226.969,449.319z"/>
				
					<use xlink:href="#New_Symbol_47"  width="68.333" height="68.333" id="XMLID_66_" x="-34.167" y="-34.167" transform="matrix(-0.4013 0 0 -0.4013 204.4375 439.5346)" style="overflow:visible;"/>
				
					<use xlink:href="#New_Symbol_47"  width="68.333" height="68.333" id="XMLID_65_" x="-34.167" y="-34.167" transform="matrix(-0.4013 0 0 -0.4013 142.9062 439.5346)" style="overflow:visible;"/>
				<g>
					<path class="st45" d="M156.119,416.96l-15.46,0.869c2.253-6.429,7.064-11.546,13.159-14.305L156.119,416.96z"/>
					<path class="st45" d="M157.137,402.296c1.06-0.309,2.147-0.552,3.257-0.722l13.239-2.026c4.714-0.722,9.427,1.307,12.095,5.206
						l6.946,10.153l-33.06,1.858L157.137,402.296z"/>
				</g>
				
					<use xlink:href="#New_Symbol_46"  width="40.207" height="43.467" id="XMLID_64_" x="-19.954" y="-21.787" transform="matrix(-0.4013 0 0 -0.352 225.9549 443.2733)" style="overflow:visible;"/>
				
					<use xlink:href="#New_Symbol_46"  width="40.207" height="43.467" id="XMLID_57_" x="-19.954" y="-21.787" transform="matrix(0.2924 0 0 -0.352 123.6258 443.2733)" style="overflow:visible;"/>
				
					<use xlink:href="#New_Symbol_45"  width="28.996" height="29.075" id="XMLID_56_" x="-14.484" y="-14.552" transform="matrix(-0.4013 0 0 -0.4013 224.6719 426.9875)" style="overflow:visible;"/>
				
					<use xlink:href="#New_Symbol_45"  width="28.996" height="29.075" id="XMLID_52_" x="-14.484" y="-14.552" transform="matrix(0.4013 0 0 -0.4013 126.7569 426.9875)" style="overflow:visible;"/>
			</g>
			<g id="XMLID_34_">
				<path class="st46" d="M351.559,429.492H454.32c1.353,0,2.534-0.918,2.868-2.23l0.971-3.814c0.386-1.518,0.577-3.086,0.483-4.65
					c-0.809-13.459-17.19-20.712-17.19-20.712l0,0c-3.431-9.931-12.071-17.152-22.454-18.764l-15.063-2.339
					c-5.364-0.833-10.726,1.509-13.761,6.009l-7.904,11.719l-21.956,6.133c-8.293,1.873-12.865,10.292-12.404,16.506l0.697,9.401
					C348.722,428.297,350.009,429.492,351.559,429.492z"/>
				
					<use xlink:href="#New_Symbol_47"  width="68.333" height="68.333" id="XMLID_63_" x="-34.167" y="-34.167" transform="matrix(0.4013 0 0 -0.4013 374.0902 419.7083)" style="overflow:visible;"/>
				
					<use xlink:href="#New_Symbol_47"  width="68.333" height="68.333" id="XMLID_62_" x="-34.167" y="-34.167" transform="matrix(0.4013 0 0 -0.4013 435.6214 419.7083)" style="overflow:visible;"/>
				<g>
					<path class="st45" d="M422.409,397.134l15.46,0.869c-2.253-6.429-7.064-11.546-13.159-14.305L422.409,397.134z"/>
					<path class="st45" d="M421.391,382.469c-1.06-0.309-2.147-0.552-3.257-0.722l-13.239-2.026
						c-4.714-0.722-9.427,1.307-12.095,5.206l-6.946,10.153l33.06,1.858L421.391,382.469z"/>
				</g>
				
					<use xlink:href="#New_Symbol_46"  width="40.207" height="43.467" id="XMLID_61_" x="-19.954" y="-21.787" transform="matrix(0.4013 0 0 -0.352 352.5728 423.447)" style="overflow:visible;"/>
				
					<use xlink:href="#New_Symbol_46"  width="40.207" height="43.467" id="XMLID_60_" x="-19.954" y="-21.787" transform="matrix(-0.2924 0 0 -0.352 454.9019 423.447)" style="overflow:visible;"/>
				
					<use xlink:href="#New_Symbol_45"  width="28.996" height="29.075" id="XMLID_59_" x="-14.484" y="-14.552" transform="matrix(0.4013 0 0 -0.4013 353.8558 407.1611)" style="overflow:visible;"/>
				
					<use xlink:href="#New_Symbol_45"  width="28.996" height="29.075" id="XMLID_58_" x="-14.484" y="-14.552" transform="matrix(-0.4013 0 0 -0.4013 451.7707 407.1611)" style="overflow:visible;"/>
			</g>
			<g>
				<g>
					<g>
						<path class="st47" d="M423.335,374.066l0.171,0.302c0.594,1.05,0.698,2.288,0.285,3.323
							c-1.353,3.39-5.121,10.957-13.092,15.38l-2.466,2.917c-0.621,0.734-1.411,1.283-2.307,1.604
							c-1.167,0.417-2.759,0.755-3.862,0.072c-0.423-0.262-0.5-0.879-0.158-1.183c0.28-0.249,0.725-0.563,1.431-0.918
							c1.765-0.887,3.072-1.626,3.072-1.626s-1.761,0.107-2.546-0.538c-0.211-0.174-0.204-0.506,0.005-0.637
							c0.585-0.366,2.117-1.126,5.589-1.887c0,0,7.266-5.686,9.278-15.261c0.246-1.173,1.048-2.071,2.135-2.378l0.428-0.121
							C422.053,372.904,422.901,373.299,423.335,374.066z"/>
						<path class="st47" d="M401.779,397.396c-0.182-0.321-0.135-0.714,0.112-0.933c0.342-0.304,0.825-0.614,1.435-0.921
							c1.488-0.747,2.662-1.397,2.983-1.576c-0.392,0.012-1.776,0.013-2.458-0.548c-0.043-0.035-0.078-0.078-0.106-0.126
							c-0.111-0.196-0.061-0.442,0.111-0.55c0.61-0.381,2.147-1.134,5.591-1.888c0.09-0.071,1.878-1.501,3.879-4.035
							c1.885-2.387,4.35-6.27,5.389-11.211c0.25-1.189,1.053-2.084,2.149-2.393l0.428-0.121c0.759-0.214,1.626,0.19,2.062,0.961
							l0.171,0.302c0.595,1.052,0.702,2.303,0.286,3.345c-0.706,1.77-1.985,4.474-4.067,7.307c-2.526,3.438-5.564,6.157-9.031,8.081
							l-2.463,2.915c-0.619,0.733-1.42,1.289-2.315,1.609c-1.154,0.413-2.765,0.76-3.88,0.07
							C401.941,397.615,401.846,397.515,401.779,397.396z M406.511,393.908l-0.09,0.051c-0.013,0.007-1.327,0.749-3.073,1.626
							c-0.607,0.305-1.087,0.613-1.427,0.915c-0.231,0.206-0.275,0.574-0.105,0.875c0.063,0.111,0.152,0.204,0.258,0.269
							c1.1,0.681,2.697,0.335,3.843-0.075c0.889-0.318,1.684-0.871,2.299-1.598l2.468-2.92l0.003-0.002
							c3.463-1.922,6.498-4.637,9.021-8.072c2.079-2.829,3.356-5.53,4.062-7.298c0.411-1.029,0.305-2.263-0.283-3.302l-0.171-0.302
							c-0.425-0.752-1.27-1.145-2.01-0.937l-0.428,0.121c-1.082,0.305-1.875,1.189-2.121,2.362c-1.04,4.95-3.51,8.839-5.398,11.23
							c-2.046,2.59-3.87,4.029-3.888,4.043l-0.003,0.003l-0.004,0.001c-3.441,0.754-4.975,1.504-5.583,1.884
							c-0.152,0.095-0.197,0.314-0.099,0.487c0.024,0.042,0.055,0.08,0.093,0.111c0.769,0.632,2.512,0.533,2.53,0.532
							L406.511,393.908z"/>
					</g>
				</g>
				<path class="st48" d="M428.837,393.546c0,0-4.692,0.675-7.091,1.02c-0.824,0.119-1.377,0.198-1.377,0.198l-3.637-1.517
					l-0.077,3.113c0,0,0.746,0.727,2.432,0.909c0,0-0.252,5.669,0.758,7.469c0,0,1.884,0.346,3.584,0.217
					c0.096-1.55,0.37-4.633,1.121-7.531c3.858-0.229,4.415-0.761,4.415-0.761L428.837,393.546z"/>
				<path class="st47" d="M429.024,395.955l-0.186-3.091c-0.129-2.14-0.08-4.287,0.138-6.42c0.529-5.174,1.065-15.497-3.097-15.3
					c-5.549,0.263-8.357,7.428-9.249,24.504C416.63,395.649,418.281,397.287,429.024,395.955z"/>
				<path class="st49" d="M421.091,367.199l1.144,6.452c0.007,0.039,0.016,0.078,0.026,0.117l0,0
					c0.253,0.975,1.359,1.447,2.237,0.955l0,0c0.548-0.307,1.014-0.742,1.359-1.267l0.888-1.355c0.227-0.347,0.374-0.74,0.43-1.15
					l0.489-3.59L421.091,367.199z"/>
				
					<ellipse transform="matrix(0.9997 0.0247 -0.0247 0.9997 9.1509 -10.3634)" class="st49" cx="424.155" cy="365.308" rx="7.618" ry="5.547"/>
				<path class="st48" d="M420.929,405.735l-0.96-0.234c-0.535-0.13-0.949-0.552-1.069-1.089c-0.284-1.265-0.737-3.713-0.648-6.141
					c0.005-0.14-0.074-0.27-0.203-0.327l-1.034-0.458c-0.213-0.094-0.455,0.046-0.478,0.278c-0.277,2.741-1.339,17.349,4.738,38.022
					c0,0-1.157,1.193-4.465,2.02c-1.947,0.487-3.587,1.084-4.415,1.733c-0.363,0.284-0.184,0.868,0.276,0.906
					c2.637,0.214,8.997,0.562,12.061-0.719c0.568-0.238,0.869-0.862,0.713-1.458c-0.962-3.671-4.29-17.666-2.177-28.34
					c0.164-0.83,0.026-1.691-0.38-2.433l0,0c-0.222-0.406-0.519-0.765-0.875-1.06l-0.484-0.4
					C421.355,405.891,421.15,405.788,420.929,405.735z"/>
				<path class="st48" d="M422.028,406.024l1.289,4.172c0,0-0.938,13.223,2.576,28.81c0,0-1.669,1.925-5.428,2.96
					c-1.069,0.294-1.59,0.293-2.412,0.831c-0.634,0.414-0.36,1.4,0.398,1.422c2.71,0.08,7.587,0.074,11.193-0.773
					c0.713-0.167,1.151-0.884,0.971-1.594c-0.736-2.902-2.33-10.942-1.57-23.905c0.938-15.99,1.216-15.922,0.078-19.951
					c-0.077-0.274-0.35-0.444-0.63-0.393l-2.601,0.475c-0.195,0.036-0.355,0.173-0.421,0.359c-0.259,0.727-0.851,2.765-0.833,6.146
					c0.002,0.292-0.111,0.574-0.315,0.783l0,0c-0.21,0.215-0.499,0.336-0.8,0.334l-1.248-0.007
					C422.101,405.693,421.977,405.859,422.028,406.024z"/>
				<g id="XMLID_32_">
					<path class="st47" d="M427.296,372.963l0.336,0.008c1.167,0.029,2.246,0.624,2.899,1.592c2.135,3.17,6.526,10.95,6.208,20.925
						l1.186,3.952c0.299,0.995,0.359,2.045,0.176,3.068c-0.238,1.332-0.754,3.018-1.871,3.674c-0.429,0.252-0.979-0.022-1.06-0.513
						c-0.067-0.403-0.105-0.998-0.046-1.86c0.147-2.157,0.188-3.8,0.188-3.8s-0.791,1.717-1.719,2.094
						c-0.25,0.102-0.522-0.092-0.525-0.361c-0.011-0.756,0.125-2.622,1.23-6.315c0,0-1.082-10.019-8.017-17.271
						c-0.849-0.888-1.193-2.145-0.904-3.34l0.114-0.47C425.691,373.519,426.443,372.942,427.296,372.963z"/>
				</g>
				<circle class="st16" cx="429.606" cy="377.204" r="0.964"/>
				<circle class="st16" cx="428.05" cy="401.17" r="0.964"/>
			</g>
		</g>
	</g>
</g>
</svg>
