<?xml version="1.0" encoding="utf-8"?>
<!-- Generator: Adobe Illustrator 18.1.1, SVG Export Plug-In . SVG Version: 6.00 Build 0)  -->
<svg version="1.1" id="Layer_1" xmlns="http://www.w3.org/2000/svg" xmlns:xlink="http://www.w3.org/1999/xlink" x="0px" y="0px" width="500px" height="500px" viewBox="0 0 500 500" enable-background="new 0 0 500 500" xml:space="preserve"><clipPath id="SVGID_12_">
					<use xlink:href="#SVGID_11_" overflow="visible"/>
				</clipPath><clipPath id="SVGID_10_">
					<use xlink:href="#SVGID_9_" overflow="visible"/>
				</clipPath><clipPath id="SVGID_8_">
			<use xlink:href="#SVGID_7_" overflow="visible"/>
		</clipPath><clipPath id="SVGID_6_">
			<use xlink:href="#SVGID_5_" overflow="visible"/>
		</clipPath><clipPath id="SVGID_4_">
				<use xlink:href="#SVGID_3_" overflow="visible"/>
			</clipPath><clipPath id="SVGID_2_">
							<use xlink:href="#SVGID_1_" overflow="visible"/>
						</clipPath>
<symbol id="New_Symbol_15" viewBox="-6.9 -11.1 13.8 22.3">
	<g>
		<g>
			<path fill="#F7F3E7" stroke="#BCAF8F" stroke-width="1.5" stroke-miterlimit="10" d="M4.3,4.9C4.4,6.3,4.5,7.6,4,8.8l0,0
				c-0.7,1.6-2.8,2-4.1,0.8C-2,8-3.4,6-4.4,3.8c-1.4-3.1-2-6.6-1.6-9.9c0.1-1.2,0.7-2.4,1.7-3.1c0.3-0.2,0.7-0.4,1.1-0.6
				c1.9-0.8,4.2-0.7,6.2,0c0.8,0.3,1.6,0.6,2.4,1C6.1-8.5,6.3-7.7,6-7C4.6-3.6,4,0.2,4.2,3.9C4.3,4.3,4.3,4.6,4.3,4.9z"/>
		</g>
	</g>
</symbol>
<symbol id="New_Symbol_16" viewBox="-32.3 -36.4 64.7 72.7">
	<g>
		<g>
			<g>
				<g>
					<g>
						<defs>
							<path id="SVGID_1_" d="M15.7-5.8C4.9,7.8-3.8,24.1-18.1,33.8c0.8-8.8-0.3-17.8-3.1-26.2c2.6-6.6,5.3-13.2,9.5-18.9
								C-7.6-16.9-1.8-21.7,5-23.2c6.9-1.5,13.8,0.3,20.3,3.3c1.3,0.6,1.5,2.3,0.5,3.2C22.1-13.5,18.8-9.8,15.7-5.8z"/>
						</defs>
						<use xlink:href="#SVGID_1_" overflow="visible" fill="#B77255"/>
						
						<path clip-path="url(#SVGID_2_)" fill="#FFABC1" stroke="#CC7D96" stroke-width="2.5" stroke-miterlimit="10" d="M-30.6,4.8
							c1.9,5.5,3.3,11.1,4.2,16.8c5.4-2,9.1-7.4,11.3-12.8c2.3-5.7,3.6-11.8,6.6-17.1C-1.9-19.9,13.4-25.9,26.1-22
							c-5.6-4.3-10.6-9.9-17.3-12.1C-1.9-37.7-14-31.5-20.7-22.3c-5.5,7.6-8.2,16.7-10.3,26C-30.9,4-30.7,4.4-30.6,4.8z"/>
						<use xlink:href="#SVGID_1_" overflow="visible" fill="none" stroke="#7B422E" stroke-width="2.5" stroke-miterlimit="10"/>
					</g>
				</g>
			</g>
		</g>
	</g>
</symbol>
<symbol id="New_Symbol_17" viewBox="-33.4 -36.4 66.7 73.1">
	<path fill="#B77255" stroke="#7B422E" stroke-width="2.5" stroke-miterlimit="10" d="M-30,2.9c3.2,7.1,7,13.9,11.3,20.4
		C-9,26.9,0.5,30.8,9.9,35L31-7.2c1.1-2.3,1.4-4.9,0.6-7.3c-0.4-1.4-0.9-2.7-1.6-4c0.3-1.1,0.4-2.2,0.5-3.3c0.2-1.9-0.5-3.8-1.9-5.2
		c-3.6-3.7-8.1-6.6-13.1-8c-6.3-0.4-12.7,0.6-18.7,2.7c-2.4,0.9-4.6,2.5-6.1,4.5c-1.1,1.4-2.2,2.9-3.3,4.3
		c-8.2,5.4-15,12.9-19.5,21.7C-31.4-0.3-30.7,1.3-30,2.9z"/>
	<g>
		<path fill="#B77255" d="M8.6-21.1C2.9-21.6-2.9-19.6-7.2-16c-1.4,1.2-2.3,2.8-2.5,4.6c-0.2,1.2-0.2,2.5-0.1,3.7
			c-3,2.3-5,5.8-5.3,9.6"/>
		<path fill="#7B422E" d="M8.6-21.2c-1.1-0.1-2.2-0.2-3.3-0.2c-0.6,0-1.1,0-1.7,0.1c-0.6,0-1.1,0.1-1.6,0.2
			c-2.2,0.4-4.3,1.1-6.3,2.2c-0.5,0.3-1,0.5-1.5,0.8c-0.5,0.3-0.9,0.6-1.4,1c-0.5,0.3-0.9,0.7-1.4,1.1C-9-15.5-9.3-15-9.7-14.5
			c-0.3,0.5-0.6,1.1-0.8,1.7c-0.2,0.6-0.3,1.3-0.4,1.8c-0.2,1.1-0.2,2.3-0.1,3.5l0.5-1.1c-0.4,0.3-0.8,0.7-1.2,1
			c-0.4,0.4-0.7,0.8-1,1.2c-0.3,0.4-0.6,0.8-0.9,1.3c-0.3,0.4-0.5,0.9-0.7,1.4c-0.2,0.5-0.4,0.9-0.5,1.4C-15-2-15.1-1.5-15.1-1
			c-0.1,0.5-0.1,1-0.1,1.5c0,0.5,0,1,0.1,1.5l0.2,0c0.2-0.5,0.3-0.9,0.5-1.3c0.2-0.4,0.4-0.8,0.6-1.3c0.2-0.4,0.4-0.8,0.6-1.2
			c0.2-0.4,0.5-0.7,0.7-1.1c0.3-0.4,0.5-0.7,0.8-1c0.3-0.3,0.6-0.7,0.9-1c0.3-0.3,0.6-0.6,0.9-0.9c0.3-0.3,0.7-0.5,1-0.8l0.6-0.4
			l-0.1-0.7c-0.1-1-0.1-2-0.1-3c0-0.5,0.1-0.9,0.2-1.4c0.1-0.4,0.3-0.9,0.5-1.3c0.2-0.4,0.5-0.8,0.8-1.2c0.3-0.4,0.7-0.7,1.1-1
			c0.4-0.3,0.8-0.7,1.2-1c0.4-0.3,0.8-0.6,1.3-0.9c1.8-1.1,3.7-2,5.8-2.6c0.5-0.1,1-0.3,1.6-0.4c0.5-0.1,1-0.2,1.6-0.3
			C6.4-20.9,7.5-21,8.6-21L8.6-21.2z"/>
	</g>
</symbol>
<symbol id="New_Symbol_18" viewBox="-253.4 -165.6 507.2 331.2">
	
		<use xlink:href="#New_Symbol_17" width="66.7" height="73.1" id="XMLID_46_" x="-33.4" y="-36.4" transform="matrix(1 0 0 1 153.6003 -36.287)" overflow="visible"/>
	
		<use xlink:href="#New_Symbol_17" width="66.7" height="73.1" id="XMLID_44_" x="-33.4" y="-36.4" transform="matrix(0.9808 0.1951 -0.1951 0.9808 206.7583 -3.1378)" overflow="visible"/>
	<g>
		<path fill="#F1DABB" stroke="#7B422E" stroke-width="2.5" stroke-miterlimit="10" d="M37.3-76.7c-1.1-0.7-2.5-1.3-3.8-1.6
			c-1.7-0.4-3.4-0.5-5.2-0.5c-2.2,1.8-4.1,4-6.1,6c-2.4,2.3-5.3,4.5-8.5,5.1c5.1,0.6,10-1.7,14.7-3.8c3.1-1.4,6.3-2.7,9.6-3.2
			c0.6-0.1,0.8-0.8,0.4-1.2C38.1-76.1,37.7-76.4,37.3-76.7z"/>
		<g>
			<defs>
				<path id="SVGID_3_" d="M36-80.8c-4,2.2-7.6,5-10.9,8.2c-2.8,2.7-6.3,4.8-9.4,6.2C-14.8-52.5-70.7-56-95-45.5
					c-38.8,16.7-31,67.3-29.2,87.4l-1.9,39.2c-11-17.6-10.8-39.8-10.2-60.6c0.6-19.9,1.7-41.3,13.9-57.2
					c10.9-14.2,29-21.2,46.6-24.2c17.7-3,35.8-2.7,53.5-5.8c17-3,34.3-9.7,45.2-23c0.3-0.4,1-0.1,0.9,0.4c-0.4,1.8-1.1,4.6-2.6,7
					c0,0,11.7-4.6,19.1-2.2c0.5,0.2,0.6,0.9,0.1,1.2L36-80.8z"/>
			</defs>
			<use xlink:href="#SVGID_3_" overflow="visible" fill="#B77255"/>
			
			<path clip-path="url(#SVGID_4_)" fill="#F1DABB" stroke="#A89073" stroke-width="2.5" stroke-miterlimit="10" d="M50.4-78.8
				c0.5-2.7,0.4-5.6-0.5-8.3c-2.2-6.5-8.2-11.2-14.9-12.5c-8.1-1.5-16.4,1.8-23.3,6.3S-1.2-83-8.2-78.5c-5.3,3.3-9.6,11.9-15.8,12.1
				c-2.7,3.9-2.2,7.9,3.2,9.2c12.9-0.8,26.9,1.4,39.6-1.1c1.2-1.6,2.8-3,4.6-3.9c3.2-1.7,6.9-2.3,10.5-3.1c3.6-0.7,7.3-1.6,10.3-3.7
				C47.5-71.2,49.7-74.9,50.4-78.8z"/>
			<use xlink:href="#SVGID_3_" overflow="visible" fill="none" stroke="#7B422E" stroke-width="2.5" stroke-miterlimit="10"/>
		</g>
		<g>
			<g>
				<path fill="#A89073" d="M13.7-75.9c0,0,0.6-0.2,1.5-0.7c0.4-0.2,0.9-0.5,1.4-0.9c0.5-0.3,1-0.8,1.5-1.2c0.5-0.4,1.1-0.8,1.4-1.3
					c0.4-0.5,0.6-1.1,0.7-1.6c0.2-1,0-1.8,0-1.8l-0.2-0.1c0,0-0.2,0.1-0.5,0.2c-0.3,0.2-0.6,0.4-1,0.7c-0.4,0.3-0.8,0.6-1.1,1.1
					c-0.3,0.5-0.5,1-0.8,1.5c-0.7,1-1.4,2-2,2.7c-0.6,0.7-1.1,1.2-1.1,1.2L13.7-75.9z"/>
			</g>
			<g>
				<path fill="#A89073" d="M17-70.1c0,0,0.3-0.1,0.9-0.3c0.6-0.2,1.4-0.6,2.3-1.2c0.9-0.6,2-1.3,3-2.2c1.1-0.8,2.1-1.8,3.2-2.7
					c0.6-0.4,1.1-0.8,1.7-1.2c0.6-0.3,1.1-0.7,1.6-1c0.5-0.3,1-0.6,1.5-0.9c0.5-0.3,0.9-0.5,1.4-0.8c0.2-0.1,0.4-0.2,0.6-0.3
					c0.2-0.1,0.4-0.2,0.6-0.3c0.4-0.1,0.7-0.3,1-0.4c0.3-0.1,0.5-0.2,0.7-0.2c0.2-0.1,0.3-0.1,0.3-0.1l0-0.2c0,0-0.1,0-0.3-0.1
					c-0.2-0.1-0.4-0.2-0.7-0.2c-0.3-0.1-0.7-0.1-1.2-0.2c-0.5,0-1,0-1.6,0.1c-1.2,0.2-2.5,0.7-3.7,1.4c-0.6,0.4-1.2,0.9-1.7,1.4
					c-0.5,0.5-1.1,1-1.6,1.5c-2,2.1-3.8,4.2-5.4,5.6c-0.8,0.7-1.5,1.2-2,1.5c-0.5,0.3-0.8,0.5-0.8,0.5L17-70.1z"/>
			</g>
			<g>
				<path fill="#A89073" d="M21.9-77.6c0,0,0.5-0.4,1.3-1c0.8-0.6,1.8-1.3,2.8-2c0.5-0.4,1.1-0.6,1.6-0.9c0.5-0.4,0.8-0.8,1.1-1.2
					c0.3-0.4,0.5-0.8,0.6-1.1c0.1-0.3,0.2-0.5,0.2-0.5l-0.1-0.2c0,0-0.8-0.1-1.8,0.2c-0.5,0.2-1,0.4-1.5,0.8c-0.5,0.4-0.8,1-1.3,1.5
					c-0.4,0.5-0.8,1-1.2,1.5c-0.4,0.5-0.7,1-0.9,1.4c-0.5,0.8-0.8,1.4-0.8,1.4L21.9-77.6z"/>
			</g>
			<g>
				<path fill="#A89073" d="M29.7-73.9c0,0,0.5-0.2,1.2-0.3c0.7-0.2,1.6-0.4,2.5-0.5c0.4-0.1,0.9,0,1.3,0c0.4-0.1,0.7-0.3,1.1-0.5
					c0.3-0.2,0.6-0.4,0.8-0.6c0.2-0.2,0.3-0.3,0.3-0.3l0-0.2c0,0-0.5-0.6-1.3-0.8c-0.4-0.1-0.9-0.2-1.4-0.1
					c-0.5,0.1-0.9,0.5-1.4,0.7c-0.5,0.2-0.9,0.5-1.3,0.8c-0.4,0.3-0.7,0.6-1,0.8c-0.6,0.5-0.9,0.9-0.9,0.9L29.7-73.9z"/>
			</g>
		</g>
	</g>
	<g>
		<defs>
			<path id="SVGID_5_" d="M-130.6,26.4l-1.4,15.9c-1.1,12.6,0.6,25.4,5.4,37.1c5.7,14.1,15.2,31,29.2,36.9c17.1,7.2,40.5,12,54,14.3
				c6.8,1.2,13.8,1.1,20.5-0.2l14.8-2.8c0,0,39.2,12.1,64.9,15.7c6.8,0.9,13.7,0.9,20.4-0.1l21.4-3l33.3,13.3c0,0,15.3,11.3,30,10.7
				c12.8-0.6,28.7-10.9,39.7-27.3c2.5-3.8,4.6-8,6.2-12.3l10.9-29.2c3.4-9,3.8-18.9,1.2-28.2l-8.2-29.1c-0.9-3-2-6-3.3-8.9
				c-3.9-8.3-12.3-24.3-21.1-27.7l-71.3-27.3l-34,12c0,0-16-5.3-56,5.3L-74.8-31.7L-107-11.8c-6.5,4-11.9,9.4-16,15.8l0,0
				C-127.3,10.8-129.9,18.5-130.6,26.4z"/>
		</defs>
		<use xlink:href="#SVGID_5_" overflow="visible" fill="#B77255"/>
		
		<path clip-path="url(#SVGID_6_)" fill="#F1DABB" stroke="#A89073" stroke-width="2.5" stroke-miterlimit="10" d="M252-34.9
			l-8.3,105.4h-22.4c-5.6-20.7-17.6-40.9-22.9-49.1c-1.4-2.2-4.2-3-6.6-1.9l-44.3,21.2l-28.1-0.4c-5.4-0.1-10.6,2.2-14.2,6.3
			l-2.9,3.3c-1.7,1.9-4.6,2-6.4,0.3c-1.6-1.5-2.7-3.5-3.1-5.7c-0.5-2.6-0.7-6,0.9-7.6c0.6-0.6,5.6-2.8,9.3-4.3
			c2.6-1.1,4.8-2.9,6.3-5.2l13.2-20.1C67,16.8,61.2,36.5,61.2,36.5c-1.8-0.8-4-0.3-5.8,0.6c-1.8,1-3.3,2.4-5,3.4
			c-1.7,1.1-3.8,1.8-5.7,1.3c-0.9-0.2-1.7-0.8-2.2-1.5c1.5-1.6,3.4-3.1,3.6-5.5c0.1-0.9-0.2-1.8-0.9-2.5c-1.2-1.1-2.7-0.7-4-0.3
			c-2.1,0.5-4.4,0.7-6.4-0.3c-0.5-0.2-0.9-0.6-1.3-0.9c-0.9-4.6,5-10,1.9-14.9c-1.1-1.8-3.2-2.8-5.3-2.9c-4.4-0.3-7.9,2.3-11.3,4.7
			c-2.3,1.7-4.7,3.4-7,5.2c-1,0-2.1-0.4-2.8-1c-1.3-1.1-2-2.8-2.8-4.4c-1-2.3-2.4-4.7-5.5-4.8c-2-0.1-3.9,1-5.1,2.6
			c-1.6,2.1-2.1,4.7-2.1,7.3c-4.1,2-7,6.4-7.2,11c1.2,1.5,2.7,2.9,3.3,4.6c0.8,2.3-0.1,5.1-2.1,6.4s-4.9,1.2-6.7-0.4
			c-2-1.7-2.5-4.6-3.3-7.1c0-0.1-0.1-0.3-0.1-0.4c-0.9-1.5-3-1.4-4.4-0.6c-1.3,0.8-2.2,2-3.3,2.9c-2.8,2.5-7.4,3.2-10.3,0.5
			c-1.5-1.3-2.2-3.4-1.8-5.3c0.7-2.9,3.4-3.8,5.4-5.4c0.6-0.5,1.2-1.2,1.6-1.9c0.6-2.3-1.6-3.8-3.6-3.9c-1.7-0.1-3.3,0.5-5,0.9
			s-3.5,0.5-4.9-0.4c-2-1.3-2.3-4-2.7-6.3c-0.1-0.5-0.2-1-0.4-1.5c-5.3-2.5-11.1-3.9-16.4-6.4c-4.5-2.2-8.9-5.5-11.2-9.9
			C-80.8-9.5-81.6-18.8-82-28c-0.1-4.1-0.2-8.2,1.1-12.1s7.9-8.7,7.9-8.7c-7.3,3.1-12,3-13.6,18.3c-1,9-1.8,17-2.4,23
			c-8.9,8.3-32.3,7.2-51.9,66.1L-233,20.3l-19-127.6l260.3-57l194.6,51L252-34.9z"/>
		<use xlink:href="#SVGID_5_" overflow="visible" fill="none" stroke="#7B422E" stroke-width="2.5" stroke-miterlimit="10"/>
	</g>
	<g>
		<path fill="#7B422E" d="M104.8,10c0,0-1.7,0.4-4.8,1.1c-3,0.8-7.4,2-12.4,3.7c-2.5,0.9-5.3,1.9-8.1,3.1c-2.9,1.3-5.7,2.8-8.6,4.7
			c-2.8,1.9-5.5,4.1-8.1,6.7c-2.5,2.5-4.8,5.4-6.9,8.3c-2.1,2.9-4,6-5.9,9c-1.8,3-3.4,6.2-4.9,9.2c-1.4,3.1-2.7,6.1-3.7,9
			c-0.5,1.5-1,2.9-1.4,4.3c-0.4,1.5-0.7,2.9-0.9,4.2c-0.4,2.7-0.4,5.3-0.2,7.5c0.2,2.2,0.6,4.1,1,5.6c0.4,1.5,0.8,2.7,1.1,3.5
			c0.3,0.8,0.5,1.2,0.5,1.2l0.2-0.1c0,0-0.1-0.4-0.3-1.3c-0.2-0.8-0.4-2-0.6-3.6c-0.2-1.5-0.4-3.4-0.4-5.5c0-2.1,0.2-4.5,0.7-7.1
			c0.3-1.3,0.6-2.6,1.1-3.9c0.4-1.4,1-2.7,1.5-4.1c1.1-2.8,2.4-5.8,3.8-8.8c1.4-3,2.9-6.1,4.6-9.1c1.7-3.1,3.5-6.1,5.5-9
			c2-3,4.1-5.8,6.5-8.3c2.4-2.5,5-4.8,7.7-6.7c2.7-1.9,5.5-3.5,8.2-4.8c2.8-1.3,5.5-2.4,8-3.3c5-1.9,9.2-3.3,12.2-4.2
			c3-0.9,4.7-1.3,4.7-1.3L104.8,10z"/>
	</g>
	<g>
		<path fill="#7B422E" d="M-84.8,119c9.1,2.6,18.4,4.6,27.8,5.8l1.8,0.2c0.2,0,0.2,0,0.5,0l0.4,0l0.9,0l3.6,0.1c2.4,0,4.7,0.1,7.1,0
			c2.4,0,4.8-0.2,7.1-0.3c2.4-0.2,4.8-0.4,7.1-0.8l-0.3,0c1.2,0.1,2.3,0.2,3.5,0.4c1.2,0.2,2.3,0.3,3.5,0.5c2.3,0.4,4.6,0.9,6.9,1.5
			l6.9,1.7c1.2,0.3,2.3,0.6,3.5,0.9c1.2,0.3,2.3,0.6,3.5,0.8l0.1-0.2c-1.1-0.5-2.2-0.9-3.3-1.4c-1.1-0.5-2.2-0.9-3.3-1.3
			c-2.2-0.9-4.5-1.7-6.8-2.4c-1.1-0.4-2.3-0.7-3.5-1c-1.2-0.3-2.3-0.6-3.5-0.9c-1.2-0.3-2.4-0.5-3.6-0.7c-1.2-0.2-2.4-0.3-3.7-0.4
			l-0.2,0l-0.1,0c-2.3,0.4-4.6,0.7-6.9,1c-2.3,0.3-4.7,0.5-7,0.6c-2.3,0.1-4.7,0.2-7,0.2l-3.5,0l-0.9,0l-0.4,0c0,0-0.3,0-0.4,0
			l-1.8-0.2c-4.7-0.4-9.4-1-14-1.8c-4.7-0.7-9.3-1.7-13.9-2.7L-84.8,119z"/>
	</g>
	<g>
		<path fill="#7B422E" d="M200.9,127.8c0,0,0.5-0.7,1.3-1.9c0.8-1.2,2-3,3.4-5.2c1.4-2.2,2.9-4.8,4.4-7.6c1.5-2.8,3.1-5.9,4.6-9
			c0.7-1.6,1.5-3.1,2.1-4.7c0.7-1.5,1.3-3.1,1.9-4.6l0.2-0.6l0.1-0.3l0.1-0.4c0.1-0.4,0.2-0.7,0.3-1.1c0.2-0.8,0.4-1.5,0.5-2.3
			c0.3-1.5,0.5-2.9,0.6-4.2c0.2-2.6,0.1-4.8,0-6.3c-0.1-0.8-0.1-1.3-0.2-1.7c-0.1-0.4-0.1-0.6-0.1-0.6l-0.2,0c0,0-0.1,0.8-0.3,2.3
			c-0.2,1.5-0.5,3.6-1.1,6c-0.3,1.2-0.6,2.6-1,3.9c-0.2,0.7-0.4,1.4-0.6,2.1c-0.1,0.4-0.2,0.7-0.3,1.1l0,0.1l0,0.1l0,0
			c0,0,0-0.1,0-0.1l0,0l-0.1,0.3l-0.2,0.6c-0.5,1.5-1.1,3-1.6,4.6c-0.6,1.6-1.2,3.2-1.8,4.7c-2.5,6.3-5.5,12.4-7.9,17
			c-1.2,2.3-2.3,4.1-3,5.4c-0.7,1.3-1.2,2-1.2,2L200.9,127.8z"/>
	</g>
	<g>
		<path fill="#231F20" d="M122.9,86.1c0,0,0.8-0.1,1.9-0.4c0.6-0.1,1.2-0.3,1.9-0.6c0.7-0.2,1.4-0.6,2.2-0.9c0.7-0.3,1.5-0.6,2.1-1
			c0.6-0.4,1.1-1,1.4-1.5c0.7-1,0.9-1.9,0.9-1.9l-0.2-0.2c0,0-0.2,0-0.6,0.1c-0.4,0.1-0.8,0.3-1.4,0.5c-0.5,0.2-1.1,0.5-1.7,0.9
			c-0.5,0.4-1,1-1.6,1.4c-1.2,0.9-2.4,1.7-3.4,2.3c-1,0.6-1.7,1-1.7,1L122.9,86.1z"/>
	</g>
	<g>
		<path fill="#7B422E" d="M82.1,134.5c0.6,0.4,1.2,0.7,1.9,1.1c0.6,0.3,1.3,0.6,2,0.9c1.3,0.6,2.7,1,4.1,1.4
			c0.7,0.2,1.4,0.4,2.1,0.5c0.7,0.1,1.4,0.2,2.2,0.3c1.5,0.2,2.9,0.3,4.4,0.2l-0.3,0c1.9,0.7,3.7,1.4,5.6,2.1
			c1.8,0.8,3.6,1.6,5.5,2.3c0.9,0.4,1.8,0.7,2.8,1.1c0.9,0.4,1.9,0.7,2.8,1c1.9,0.7,3.8,1.4,5.7,1.9l0.1-0.2c-1.6-1.3-3.3-2.4-5-3.4
			c-1.7-1-3.5-1.9-5.4-2.8c-1.8-0.8-3.8-1.4-5.7-2c-1.9-0.6-3.9-1.2-5.8-1.7l-0.2-0.1l-0.1,0c-1.4,0.1-2.8,0.2-4.2,0.1
			c-0.7,0-1.4-0.1-2.1-0.2c-0.7-0.1-1.4-0.2-2.1-0.3c-1.4-0.2-2.8-0.6-4.1-1c-0.7-0.2-1.3-0.5-2-0.7c-0.7-0.3-1.3-0.5-2-0.8
			L82.1,134.5z"/>
	</g>
	<g>
		<path fill="#394149" stroke="#677077" stroke-width="2.5" stroke-miterlimit="10" d="M77.1-6.9c0.2-4.5,1.4-8.9,3.5-12.8
			c5.1-3.9,11.3-6.4,17.6-7.3c7.1,10.5,12.5,22.1,16.1,34.2c-3.1,3.2-6.7,6-10.6,8.3c-3.7,0.8-7.4,1.5-11.1,2.3
			c-1.1,0.2-2.2,0.4-3.2,0.2c-1.7-0.4-3.2-2.5-0.7-4.3c0-0.1,0-0.2-0.1-0.3c-2,0.8-4,1.4-6.1,1.9c-1.9,0.5-3.9,0.8-5.8,0.3
			c-1.2-0.3-2.4-1-3.2-1.9c0.2-1.9,0.5-3.7,0.7-5.6C74,5.2,74,2,74.2-1C74.5-3.2,75.5-5.3,77.1-6.9z"/>
		<path fill="#59626D" stroke="#3B4249" stroke-width="2.5" stroke-miterlimit="10" d="M89.5,14.1l0.9-4.9C90.7,8.1,91.2,6.9,92,6
			l2.8-3.3c1.5-1.8,3.9-2.8,6.4-2.8h11.9c0.8,0,1.3,0.7,1.1,1.3c-1.1,3-4.3,10.1-9.7,12.2c-4.9,1.9-10.6,2.3-13.5,2.4
			C90.1,15.8,89.4,15,89.5,14.1z"/>
		<path fill="#59626D" stroke="#3B4249" stroke-width="2.5" stroke-miterlimit="10" d="M77.8,11l1-5.9c0.2-1.4,0.8-2.8,1.7-3.9
			l3-3.9C85.2-4.8,87.7-6,90.4-6h12.8c0.8,0,1.4,0.8,1.1,1.6C103.2-0.9,99.7,7.7,94,10.1c-5.2,2.3-11.3,2.7-14.4,2.8
			C78.5,13,77.7,12.1,77.8,11z"/>
		<g>
			<path fill="#677077" d="M75.9,3.7c0.1-1,0.2-2,0.4-2.9c0.2-1,0.5-1.9,0.8-2.8c0.3-0.9,0.8-1.8,1.2-2.6c0.5-0.8,1-1.6,1.6-2.3
				l-0.2,0.2c0.8-0.5,1.5-1.1,2.2-1.7c0.7-0.6,1.3-1.4,1.7-2.2c0.9-1.6,1.6-3.4,1.5-5.3L85-16.1c-0.3,0.4-0.6,0.7-0.9,1
				c-0.3,0.3-0.6,0.7-0.8,1l-0.8,1c-0.3,0.3-0.5,0.6-0.8,0.9c-0.1,0.2-0.3,0.3-0.4,0.5c-0.1,0.2-0.3,0.3-0.4,0.5
				c-0.3,0.3-0.5,0.6-0.8,0.9c-0.5,0.6-1.1,1.3-1.7,1.8l-0.2,0.1l0,0.1c-0.5,0.9-1.1,1.8-1.5,2.8c-0.4,1-0.7,2-0.9,3
				c-0.2,1-0.3,2-0.4,3.1c0,0.5,0,1,0,1.5c0,0.5,0.1,1,0.2,1.5L75.9,3.7z"/>
		</g>
	</g>
	<g>
		<defs>
			<path id="SVGID_7_" d="M-7.3,97.5c6.1-6.3,10.2-14.6,11.4-23.3c3.4-6.3,5.6-13.3,6.5-20.4c0.6-4.6-0.5-9.2-3.1-13
				C-5.4,21.9-22.5,5.8-42.2-6c1.2-3.7,1-3,2.2-6.7c12,1.3,24.1,2.2,36.3,2.4C3.3-9,10.2-7.4,17-5.3c2.7,1.5,5.5,2.7,8.5,3.4
				c1.7,0.4,3.5,0.2,5.1-0.5c2.2-1,4.4-2.2,6.4-3.4c1.4-0.8,2.5-2.1,3.2-3.6c0.7-1.5,1.2-3.2,1.5-4.9c2.3-1.3,4.5-2.7,6.6-4.3
				c2.1-1.6,4-3.5,5.6-5.6c1.7-2.3,3.3-4.6,4.8-7c0.4-0.6,0.2-1.3-0.4-1.6c-1.4-0.7-3.1-1-4.7-0.7c1.2-1.6,2.1-3.4,2.6-5.4
				c0.2-0.7-0.1-1.4-0.7-1.8c-0.1-0.1-0.3-0.2-0.4-0.3c-4.5-3-9.8-4.8-15.2-5.3c-5.1-0.5-10.2-0.2-15.2,0.9
				c-1.3,0.3-2.3,1.1-2.9,2.2c-1.6,3.1-2.7,6.3-3.5,9.7c-2.7,0.3-5.4,1.5-7.8,2.8c-1.8,1-3.5,2.1-5.3,3C-6-31.5-16.9-36-27.6-41.1
				c-3.1-1.5-6.2-2.8-9.4-3.7c-7.7-2.3-15.5-3.9-23.5-4.8c-2.7-0.3-5.5-0.2-8.2,0.3c-1.6,0.3-3.2,0.7-4.8,1.2
				c-2.3,0.7-4.6,1.7-6.6,3c-2.8,1.8-4.8,4.7-5.3,8C-87.9-21-89.6-4.5-90.4,12c-15.7,8-27.4,23.2-31.4,40.4"/>
		</defs>
		<use xlink:href="#SVGID_7_" overflow="visible" fill="#B77255"/>
		
		<g clip-path="url(#SVGID_8_)">
			<path fill="#F1DABB" stroke="#A89073" stroke-width="2.5" stroke-miterlimit="10" d="M252-34.9l-8.3,105.4h-22.4
				c-7.2-26.8-25.4-52.9-25.4-52.9l-48.4,23.2l-28.1-0.4c-5.4-0.1-10.6,2.2-14.2,6.3l-2.9,3.3c-1.7,1.9-4.7,2-6.5,0.2
				c-1.5-1.5-2.6-3.5-3-5.6c-0.5-2.6-0.7-6,0.9-7.6c0.6-0.6,5.6-2.8,9.3-4.3c2.6-1.1,4.8-2.9,6.3-5.2l13.2-20.1
				C67,16.8,61.2,36.5,61.2,36.5c-1.8-0.8-4-0.3-5.8,0.6c-1.8,1-3.3,2.4-5,3.4c-1.7,1.1-3.8,1.8-5.7,1.3c-0.9-0.2-1.7-0.8-2.2-1.5
				c1.5-1.6,3.4-3.1,3.6-5.5c0.1-0.9-0.2-1.8-0.9-2.5c-1.2-1.1-2.7-0.7-4-0.3c-2.1,0.5-4.4,0.7-6.4-0.3c-0.5-0.2-0.9-0.6-1.3-0.9
				c-0.9-4.6,5-10,1.9-14.9c-1.1-1.8-3.2-2.8-5.3-2.9c-4.4-0.3-7.9,2.3-11.3,4.7c-2.3,1.7-4.7,3.4-7,5.2c-1,0-2.1-0.4-2.8-1
				c-1.3-1.1-2-2.8-2.8-4.4c-1-2.3-2.4-4.7-5.5-4.8c-2-0.1-3.9,1-5.1,2.6c-1.6,2.1-2.1,4.7-2.1,7.3c-4.1,2-7,6.4-7.2,11
				c1.2,1.5,2.7,2.9,3.3,4.6c0.8,2.3-0.1,5.1-2.1,6.4s-4.9,1.2-6.7-0.4c-2-1.7-2.5-4.6-3.3-7.1c0-0.1-0.1-0.3-0.1-0.4
				c-0.9-1.5-3-1.4-4.4-0.6c-1.3,0.8-2.2,2-3.3,2.9c-2.8,2.5-7.4,3.2-10.3,0.5c-1.5-1.3-2.2-3.4-1.8-5.3c0.7-2.9,3.4-3.8,5.4-5.4
				c0.6-0.5,1.2-1.2,1.6-1.9c0.6-2.3-1.6-3.8-3.6-3.9c-1.7-0.1-3.3,0.5-5,0.9s-3.5,0.5-4.9-0.4c-2-1.3-2.3-4-2.7-6.3
				c-0.1-0.5-0.2-1-0.4-1.5c-5.3-2.5-11.1-3.9-16.4-6.4c-4.5-2.2-8.9-5.5-11.2-9.9C-80.8-9.5-81.6-18.8-82-28
				c-0.1-4.1-0.2-8.2,1.1-12.1s7.9-8.7,7.9-8.7c-7.3,3.1-12,3-13.6,18.3c-1,9-1.8,17-2.4,23c-8.9,8.3-19.3,15-28.6,22.8
				c-13,10.9-24.8,26.3-23.2,43.2L-233,20.3l-19-127.6l260.3-57l194.6,51L252-34.9z"/>
			<path fill="#394149" stroke="#677077" stroke-width="2.5" stroke-miterlimit="10" d="M40.3-61.4c-1.7,0-3.3,0.2-4.9,0.7
				c-7,2.1-11.5,8.6-15.5,14.7c-1.6,2.4-3.1,4.8-4.7,7.2c1.6,3.1,3.6,5.3,5.5,6.9c1.2,1,2.7,1.6,4.2,1.8c7,0.9,13.7,1.4,19.7,5.3
				c-0.4,1.7,0,6.9-2.9,10.5c0,0-0.7,5.5-0.1,9.8C50.8-9,58.9-15.9,64.8-24.3c2.7-3.9,5.1-8.4,5-13.1c-0.1-3.6-1.5-7-3.6-10
				c-4-5.7-10-9.8-16.6-12.2C46.6-60.7,43.5-61.4,40.3-61.4z"/>
		</g>
		<use xlink:href="#SVGID_7_" overflow="visible" fill="none" stroke="#7B422E" stroke-width="2.5" stroke-miterlimit="10"/>
	</g>
	<g>
		<path fill="#677077" d="M42.3-19.8c1.2-1.8,2.3-3.7,3.5-5.6l-0.2,0.3c1-0.6,2-1.3,2.9-2l1.4-1.1c0.5-0.4,0.9-0.7,1.4-1.1
			c0.4-0.4,0.8-0.8,1.2-1.3c0.3-0.5,0.7-0.9,1-1.5c0.6-1,1.1-2.1,1.4-3.3l-0.2-0.1c-0.5,0.3-1,0.7-1.5,1c-0.5,0.4-0.9,0.7-1.3,1.1
			c-0.4,0.4-0.8,0.7-1.3,1.1c-0.4,0.4-0.8,0.8-1.2,1.2c-0.4,0.4-0.7,0.8-1.1,1.3c-0.4,0.4-0.8,0.8-1.2,1.2c-0.8,0.8-1.6,1.5-2.5,2.2
			l-0.2,0.2l0,0.1c-0.8,2-1.6,4.1-2.3,6.1L42.3-19.8z"/>
	</g>
	<g>
		<g>
			<path fill="#D3B94C" stroke="#917E2D" stroke-width="2.5" stroke-miterlimit="10" d="M194.3-28.4c1.1-3.6-0.1-7.1-2.6-7.8
				c-2.5-0.8-5.4,1.5-6.5,5.1c-1.1,3.6,0.1,7.1,2.6,7.8C190.3-22.5,193.2-24.8,194.3-28.4z"/>
			<g>
				<defs>
					<path id="SVGID_9_" d="M205.1-19.7c0.8-1.9,1.6-3.8,2.4-5.6c-11.7-6.5-25-10-38.3-10.2c-3.1,3.6-5.7,7.6-7.7,11.9
						c0.1,5.7,0.3,11.5,0.4,17.2c8.5,7,16,15,22.5,23.9c2.3-0.6,4.5-1.6,6.5-2.9C195.6,3.1,200.4-8.3,205.1-19.7z"/>
				</defs>
				<use xlink:href="#SVGID_9_" overflow="visible" fill="#FBDE60"/>
				
				<path clip-path="url(#SVGID_10_)" fill="#D3B94C" stroke="#917E2D" stroke-width="2.5" stroke-miterlimit="10" d="M170.1-33.2
					c-0.1-4-0.3-8-0.5-12c-4.4,4.8-8.3,10-11.7,15.5c-0.3,8.5-0.1,17.1,0.5,25.6c4,3.2,7.7,6.7,11.2,10.4
					C170.4-6.8,170.5-20,170.1-33.2z"/>
				<use xlink:href="#SVGID_9_" overflow="visible" fill="none" stroke="#8C7323" stroke-width="2.5" stroke-miterlimit="10"/>
			</g>
		</g>
		
			<use xlink:href="#New_Symbol_16" width="64.7" height="72.7" id="XMLID_43_" x="-32.3" y="-36.4" transform="matrix(1 0 0 1 221.4968 49.7412)" overflow="visible"/>
		
			<use xlink:href="#New_Symbol_16" width="64.7" height="72.7" x="-32.3" y="-36.4" transform="matrix(-0.8193 0.3008 0.2951 0.8038 138.3582 76.8647)" overflow="visible"/>
		<g>
			<g>
				<defs>
					<path id="SVGID_11_" d="M179-4.3c4.7,6.8,19.6,30.3,30.2,67.5c1.1,4,1.6,8.2,1.2,12.4c0,0.4-0.1,0.8-0.1,1.1
						c-0.5,3.5-2.1,6.7-4.6,9.2c-2.6,2.6-5.8,5.9-5.4,6c0.7,0.1-3,4.8-3,4.8s-5.2,4.5-15.7,6.9c-3.7,0.8-7.5,0.7-11.1-0.5l-5.5-1.8
						c-2.7-0.9-5.1-2.4-7.2-4.3l-7.2-7c0,0-15-11.5-25.9-27.3c-1.6-2.3-2.7-5-3.2-7.8l-0.5-2.6c0,0-1.7-1,0-12.7c0,0-3.3-7.7-4-14.3
						v-7c0,0-13-19.3-12.3-24.7c0,0-5.4-1.7-8.9-3.8c-1.7-1-2.8-2.7-3-4.7c-0.2-1.5-0.2-3.7,0.5-6.2c0,0-2.3-11,1.7-16.7
						c0,0,4.7-5.3,15.9-7.5c2.3-0.5,4.7-0.5,7-0.2c4.5,0.6,12.3,2.3,18.9,6.6c2,1.3,3.6,3.2,4.6,5.4l4.3,9c0,0,19.2,7.4,30,16.3
						C176.9-7,178-5.7,179-4.3z"/>
				</defs>
				<use xlink:href="#SVGID_11_" overflow="visible" fill="#B77255"/>
				
				<path clip-path="url(#SVGID_12_)" fill="#EDB9C1" stroke="#703E4A" stroke-width="2.5" stroke-miterlimit="10" d="M107.3-7.9
					l0.9-1.1l13-5h9.2c3.9,0,7.2-2.9,7.6-6.8l0.9-8.9l1.2-1.9c0.7-1.1,0.8-2.6,0.2-3.8L133.5-48l-48.7,2.5L76.5-22L90.2-2l2.3-3.3
					L99-6.7C101.6-6.6,105.6-5.9,107.3-7.9z"/>
				<use xlink:href="#SVGID_11_" overflow="visible" fill="none" stroke="#7B422E" stroke-width="2.5" stroke-miterlimit="10"/>
			</g>
			
				<use xlink:href="#New_Symbol_15" width="13.8" height="22.3" x="-6.9" y="-11.1" transform="matrix(0.8752 0.4838 -0.4838 0.8752 161.095 104.0991)" overflow="visible"/>
			
				<path fill="#33131E" stroke="#703E4A" stroke-width="2.5" stroke-linecap="round" stroke-linejoin="round" stroke-miterlimit="10" d="
				M128.7-29.8c1.1,2.7,1.4,5.8,0.9,8.7c-1.3,0.7-3,0.3-4.4-0.4c-1.6-0.9-2.9-2.2-4.5-3c-2.7-1.3-6.3-0.8-8.8-2.3
				c1.2-0.9,1.4-2.6,1.2-4.1c-0.2-1.4-0.8-2.8-0.9-4.2c0-0.6,0-1.1,0.1-1.7c5.3-0.4,10.6,1.2,14.9,4.2
				C127.8-31.7,128.3-30.8,128.7-29.8z"/>
			
				<path fill="#33131E" stroke="#703E4A" stroke-width="2.5" stroke-linecap="round" stroke-linejoin="round" stroke-miterlimit="10" d="
				M98.6-33.4c0.1-0.1,0.2-0.2,0.3-0.2c-0.7,2.7-1,5.6-1,8.5c-0.4,0.9-0.8,2-1.1,3c-0.7,2.6-1.3,5.4-2.6,7.6c0-2.7,0.2-5.4,0.4-8
				c0.2-2.6,0.6-5.2,1.6-7.4C96.8-31.4,97.6-32.6,98.6-33.4z"/>
			<g>
				<g>
					<path fill="#7B422E" d="M119.4-19.3c1.1,3.9,2.4,7.8,3.8,11.6c1.5,3.8,3.2,7.5,5.2,11.1l0.1,0.1l0.2,0.1
						c1.6,0.8,3.1,1.8,4.6,2.7c0.7,0.5,1.5,1,2.2,1.5c0.7,0.5,1.5,1,2.2,1.6c0.7,0.6,1.4,1.1,2.1,1.7l2,1.8l2,1.8
						c0.7,0.6,1.3,1.3,1.9,1.9l0.9,1l0.9,1c0.6,0.7,1.2,1.3,1.8,2l1.7,2.1c0.6,0.7,1,1.4,1.6,2.2c0.5,0.7,1,1.5,1.5,2.2l1.4,2.3
						c0.5,0.8,0.9,1.6,1.3,2.3l1.2,2.4l0.2,0.3l0.4,0.2c2.6,1.4,5.3,2.7,7.9,4.1l0.2,0.1l0.2,0c1.5,0.2,3.1,0.4,4.6,0.6l4.6,0.6
						c0.8,0.1,1.5,0.2,2.3,0.3c0.7,0.1,1.4,0.3,2.1,0.5c1.4,0.4,2.7,1,3.9,1.8c0.6,0.4,1.2,0.8,1.8,1.3l1.8,1.4c1.2,1,2.4,2,3.5,3
						c2.3,2.1,4.5,4.2,6.4,6.6l0.2-0.1c-0.8-1.4-1.7-2.6-2.7-3.9c-1-1.2-2-2.4-3.1-3.6c-1.1-1.2-2.2-2.3-3.3-3.3l-1.7-1.6
						c-0.6-0.5-1.2-1.1-1.9-1.6c-1.3-1-2.8-1.8-4.4-2.3c-0.8-0.3-1.6-0.5-2.4-0.7c-0.8-0.2-1.6-0.3-2.3-0.4l-4.6-0.6
						c-1.5-0.2-3.1-0.4-4.6-0.6l0.4,0.1c-2.7-1.3-5.4-2.6-8.1-3.9l0.5,0.5l-1.3-2.4c-0.5-0.8-0.9-1.6-1.4-2.4l-1.5-2.3
						c-0.5-0.8-1.1-1.5-1.6-2.2c-0.6-0.7-1.1-1.5-1.7-2.2l-1.8-2.1c-0.6-0.7-1.2-1.4-1.9-2l-0.9-1l-1-1c-0.7-0.6-1.3-1.3-2-1.9
						l-2.1-1.8l-2.1-1.7c-0.7-0.6-1.5-1.1-2.2-1.7c-0.7-0.6-1.5-1.1-2.2-1.6c-0.8-0.5-1.5-1-2.3-1.5c-1.6-1-3.1-1.9-4.8-2.6l0.2,0.2
						c-2.1-3.4-3.9-7.1-5.5-10.8c-1.6-3.7-3-7.5-4.2-11.4L119.4-19.3z"/>
				</g>
				<g>
					<path fill="#7B422E" d="M129,68.3l-3-6.2l-1.5-3.1l-0.4-0.8c-0.1-0.2-0.2-0.5-0.3-0.8c-0.2-0.5-0.3-1.1-0.5-1.6
						c-0.3-1.1-0.4-2.2-0.5-3.3c-0.1-1.1,0-2.2,0.3-3.2c0.2-0.5,0.3-0.9,0.6-1.5l0.8-1.5l1.6-3.1l0.1-0.2l0-0.2l-0.2-4.7l0-0.1
						l0-0.1l-4.3-13.8l-0.5-1.7c-0.2-0.6-0.3-1.1-0.5-1.7c-0.3-1.1-0.5-2.3-0.6-3.4c-0.1-1.2-0.1-2.3-0.2-3.5l-0.1-3.6l0-0.2
						l-0.1-0.2c-0.4-1.2-0.8-2.3-1.2-3.4c-0.4-1.1-0.9-2.2-1.4-3.3c-0.5-1.1-1-2.2-1.6-3.3c-0.5-1.1-1.2-2.1-1.8-3.2
						c-0.6-1-1.3-2.1-2-3c-0.4-0.5-0.7-1-1.1-1.5l-1.1-1.4l-1.2-1.3c-0.4-0.5-0.8-0.9-1.3-1.3c-0.4-0.4-0.9-0.8-1.3-1.2l-1.4-1.1
						l-0.2,0.2l1.2,1.3c0.4,0.4,0.8,0.9,1.1,1.4c0.4,0.5,0.7,0.9,1.1,1.4l1,1.4l0.9,1.5c0.3,0.5,0.6,1,0.9,1.5
						c0.6,1,1.1,2.1,1.7,3.1l0.8,1.6c0.3,0.5,0.5,1.1,0.7,1.6c0.5,1.1,1,2.1,1.4,3.2c0.4,1.1,0.9,2.2,1.3,3.3
						c0.4,1.1,0.8,2.2,1.1,3.3l-0.1-0.3l0.2,3.6c0,0.6,0.1,1.2,0.1,1.8c0.1,0.6,0.1,1.3,0.2,1.9c0.2,1.2,0.5,2.5,0.8,3.7
						c0.2,0.6,0.4,1.2,0.6,1.8l0.6,1.7l4.8,13.7l0-0.2l0.4,4.7l0.1-0.4l-1.5,3.1l-0.7,1.6c-0.2,0.5-0.5,1.1-0.6,1.7
						c-0.3,1.2-0.3,2.4-0.2,3.6c0.1,1.2,0.3,2.3,0.6,3.5c0.2,0.6,0.3,1.1,0.6,1.7c0.1,0.3,0.2,0.5,0.4,0.8l0.4,0.8l1.6,3l3.3,6.1
						L129,68.3z"/>
				</g>
				<g>
					<path fill="#7B422E" d="M143.7-13.9c0,0,0.3,0.5,0.9,1.4c0.6,0.9,1.5,2.1,2.7,3.5c0.6,0.7,1.3,1.4,2.2,2.1
						c0.4,0.3,0.9,0.7,1.3,1c0.5,0.3,0.9,0.6,1.3,0.9c0.4,0.3,0.7,0.7,1,1.1c0.3,0.4,0.6,1,0.9,1.4c0.6,1,1.2,2,1.8,3.1
						c0.6,1,1.2,2.1,1.7,3.2c0.5,1.1,1,2.1,1.5,3.1c0.5,1,1,1.9,1.4,2.9c0.2,0.5,0.5,0.9,0.7,1.3c0.2,0.4,0.4,0.8,0.6,1.2
						c0.2,0.4,0.4,0.8,0.5,1.2c0.2,0.4,0.3,0.7,0.4,1.1c0.3,0.7,0.5,1.3,0.7,1.7c0.3,1,0.6,1.6,0.6,1.6l0.2,0c0,0,0-0.2,0-0.4
						c0-0.3,0-0.7,0-1.3c0-0.5,0-1.2-0.2-2c-0.1-0.8-0.3-1.6-0.5-2.5c-0.2-0.9-0.5-1.9-0.9-2.9c-0.4-1-0.8-2-1.3-3.1
						c-0.5-1-1.1-2.1-1.8-3.1c-0.7-1-1.3-2-2-3.1c-0.7-1-1.4-2-2.1-3c-0.4-0.5-0.7-0.9-1.1-1.5c-0.4-0.5-0.9-0.9-1.4-1.3
						c-0.5-0.4-1-0.7-1.5-0.9c-0.5-0.2-0.9-0.5-1.3-0.8c-0.8-0.6-1.6-1.2-2.2-1.8c-1.3-1.2-2.3-2.3-3-3.1c-0.7-0.8-1-1.3-1-1.3
						L143.7-13.9z"/>
				</g>
				<g>
					<path fill="#7B422E" d="M133.4,73.1l4.3,3c0.4,0.2,0.7,0.5,1.1,0.7c0.4,0.2,0.8,0.5,1.2,0.6c0.4,0.2,0.8,0.4,1.3,0.5
						c0.4,0.1,0.9,0.2,1.3,0.3c1.8,0.3,3.7,0.2,5.4-0.4c0.4-0.1,0.9-0.3,1.3-0.5c0.4-0.2,0.8-0.4,1.2-0.6l2.3-1.2l-0.1,0l17.5-5
						l-0.2,0c2.9-0.3,5.8-0.5,8.7-0.8c2.9-0.3,5.8-0.6,8.6-1c1.4-0.2,2.9-0.4,4.3-0.6l0.6-0.1l0.5-0.1c0.3-0.1,0.8-0.2,1.2-0.3
						c0.7-0.2,1.5-0.6,2.2-0.9c1.4-0.8,2.6-1.8,3.4-3c0.5-0.6,0.8-1.3,1.1-2c0.2-0.3,0.3-0.7,0.4-1c0.1-0.2,0.1-0.4,0.1-0.5l0.1-0.3
						l0-0.1l0-0.1l0,0l0,0l0,0c-0.1,0,0.2,0.1-0.2-0.1l0.2,0.1c-0.5-0.1-0.1,0-0.2-0.1l0,0l0,0l0,0l0,0.1l-0.1,0.1l-0.1,0.2
						c-0.1,0.2-0.2,0.3-0.3,0.5c-0.2,0.3-0.4,0.6-0.6,0.9c-0.4,0.6-0.8,1.1-1.4,1.6c-0.5,0.5-1,0.9-1.6,1.3c-0.6,0.4-1.2,0.7-1.8,1
						c-0.6,0.3-1.3,0.4-1.9,0.6c-0.3,0.1-0.6,0.1-1,0.2l-0.5,0.1l-0.5,0c-1.4,0.1-2.9,0.2-4.3,0.3c-2.9,0.2-5.8,0.5-8.6,0.9
						c-2.9,0.4-5.7,0.8-8.6,1.2l-0.1,0l-0.1,0l-17.2,5.7l-0.1,0l0,0l-2.3,1.3c-0.4,0.2-0.8,0.4-1.1,0.6c-0.4,0.2-0.7,0.4-1.1,0.5
						c-1.5,0.6-3.3,0.8-4.9,0.6c-0.4-0.1-0.8-0.1-1.2-0.2c-0.4-0.1-0.8-0.2-1.2-0.4c-0.4-0.2-0.8-0.3-1.2-0.5
						c-0.4-0.2-0.7-0.4-1.1-0.7l-4.5-2.7L133.4,73.1z"/>
				</g>
				<g>
					<path fill="#5B2E21" d="M171.5,32.8c-0.2-0.9-0.3-1.9-0.5-2.8l-0.2,0.5c1.5-0.5,3-0.8,4.6-0.9c1.5-0.1,3.1-0.2,4.6,0.1l-0.2,0
						c0.8,0.3,1.5,0.7,2.3,1c0.7,0.4,1.5,0.7,2.2,1.1c0.4,0.2,0.7,0.4,1.1,0.5l1.1,0.6c0.2,0.1,0.4,0.2,0.6,0.3
						c0.2,0.1,0.4,0.2,0.6,0.3c0.4,0.2,0.8,0.4,1.2,0.6l0.2-0.2c-0.4-0.9-0.9-1.6-1.5-2.3c-0.3-0.4-0.6-0.7-1-1
						c-0.3-0.3-0.7-0.6-1.1-0.9c-0.4-0.3-0.8-0.5-1.2-0.8c-0.4-0.2-0.8-0.4-1.3-0.6c-0.9-0.3-1.8-0.5-2.7-0.7l-0.2,0l0,0
						c-1.7,0-3.4,0.2-5,0.6c-1.6,0.4-3.2,1-4.6,1.7l-0.3,0.2l0.1,0.3c0.3,0.9,0.7,1.8,1,2.7L171.5,32.8z"/>
				</g>
				<g>
					<path fill="#5B2E21" d="M122.7,36c0,0-0.4,0.5-0.9,1.3c-0.3,0.4-0.5,0.9-0.8,1.4c-0.3,0.5-0.5,1.1-0.7,1.8
						c-0.2,0.6-0.5,1.2-0.6,1.8c-0.1,0.6,0,1.2,0.2,1.7c0.3,1,0.9,1.6,0.9,1.6l0.2,0c0,0,0.1-0.2,0.3-0.4c0.2-0.3,0.4-0.6,0.6-1.1
						c0.2-0.4,0.4-0.9,0.4-1.5c0-0.5-0.1-1.1,0-1.7c0.1-1.2,0.2-2.4,0.4-3.3c0.2-0.9,0.3-1.5,0.3-1.5L122.7,36z"/>
				</g>
				<g>
					<path fill="#7B422E" d="M159.9,45.7c0,0-0.2,0.4-0.5,1c-0.2,0.3-0.3,0.7-0.5,1.2c-0.2,0.5-0.4,1-0.5,1.6
						c-0.2,0.6-0.3,1.3-0.4,2c-0.1,0.7-0.2,1.5-0.2,2.3c0,0.8,0,1.6,0.1,2.4c0.1,0.8,0.3,1.7,0.4,2.5c0.2,0.8,0.5,1.7,0.8,2.4
						c0.3,0.8,0.7,1.6,1.1,2.3c0.9,1.4,2,2.4,3,3.2c1,0.8,2,1.2,2.7,1.5c0.3,0.1,0.6,0.2,0.8,0.3c0.2,0,0.3,0.1,0.3,0.1l0.1-0.2
						c0,0-0.3-0.3-0.7-0.9c-0.2-0.3-0.5-0.6-0.8-1c-0.3-0.4-0.6-0.8-1-1.2c-0.4-0.5-0.7-1-1.1-1.5c-0.4-0.5-0.8-1.1-1.1-1.7
						c-0.4-0.6-0.8-1.2-1.2-1.8c-0.4-0.7-0.7-1.3-1-2.1c-0.3-0.7-0.5-1.4-0.7-2.2c-0.2-0.7-0.3-1.5-0.4-2.2c-0.1-1.5-0.1-2.8,0-4
						c0.1-0.6,0.2-1.1,0.3-1.6c0.1-0.5,0.2-0.9,0.3-1.2c0.2-0.7,0.3-1.1,0.3-1.1L159.9,45.7z"/>
				</g>
				<g>
					<path fill="#7B422E" d="M141.6,49.7c0,0-0.2,0.4-0.5,1c-0.1,0.3-0.3,0.8-0.5,1.3c-0.2,0.5-0.3,1.1-0.5,1.7
						c-0.1,0.6-0.3,1.3-0.3,2c-0.1,0.7-0.1,1.5-0.1,2.3c0,0.8,0.1,1.6,0.2,2.5c0.1,0.9,0.3,1.7,0.5,2.6c0.2,0.8,0.5,1.7,0.8,2.5
						c0.3,0.8,0.7,1.6,1.2,2.3c0.9,1.4,2.1,2.5,3.1,3.3c1.1,0.8,2.1,1.3,2.8,1.5c0.4,0.1,0.6,0.2,0.8,0.3c0.2,0.1,0.3,0.1,0.3,0.1
						l0.1-0.2c0,0-0.3-0.3-0.8-0.9c-0.2-0.3-0.5-0.6-0.9-1c-0.3-0.4-0.7-0.8-1-1.3c-0.4-0.5-0.8-1-1.2-1.5c-0.4-0.6-0.8-1.1-1.2-1.7
						c-0.4-0.6-0.8-1.2-1.2-1.9c-0.4-0.7-0.7-1.4-1.1-2.1c-0.3-0.7-0.5-1.5-0.7-2.2c-0.2-0.8-0.3-1.5-0.4-2.3
						c-0.2-1.5-0.2-2.9-0.1-4.1c0-0.6,0.1-1.2,0.2-1.7c0.1-0.5,0.2-0.9,0.2-1.3c0.2-0.7,0.3-1.1,0.3-1.1L141.6,49.7z"/>
				</g>
				<g>
					<path fill="#7B422E" d="M116.5,14.3c0.2-1.1,0.1-2.3-0.1-3.4l0,0l0-0.1c-0.7-1.4-1.4-2.9-2.1-4.3c-0.7-1.4-1.4-2.9-1.9-4.4
						c-0.3-0.7-0.5-1.5-0.9-2.2c-0.3-0.7-0.7-1.4-1-2.1c-0.4-0.7-0.7-1.4-1.1-2.1c-0.4-0.7-0.8-1.4-1.2-2.1l-0.2,0
						c-0.1,0.9-0.1,1.7,0,2.6c0.1,0.8,0.2,1.7,0.5,2.5c0.2,0.8,0.5,1.6,0.8,2.3c0.3,0.8,0.8,1.5,1.2,2.2c0.8,1.4,1.7,2.8,2.6,4.2
						c0.9,1.4,1.8,2.7,2.8,4l0-0.1c0.4,1,0.6,2,0.7,3.1L116.5,14.3z"/>
				</g>
				<g>
					<path fill="#7B422E" d="M202.3,64.1c0,0,0,0.1,0.1,0.2c0.1,0.1,0.3,0.3,0.5,0.5c0.5,0.4,1.3,0.7,2.2,1.1
						c0.4,0.2,0.9,0.4,1.3,0.6c0.2,0.1,0.4,0.3,0.5,0.4c0.1,0.1,0.1,0.2,0.2,0.3c0.1,0.1,0.1,0.2,0.1,0.3c0.2,0.4,0.2,1,0.3,1.6
						c0,0.3,0,0.6,0,0.9l0,0.9c0,1.2-0.3,2.5-0.5,3.6c-0.1,0.6-0.1,1.1-0.2,1.6c0,0.5-0.1,1-0.1,1.5c-0.1,0.9-0.1,1.7-0.1,2.3
						c0,0.6,0,0.9,0,0.9l0.2,0.1c0,0,1-1,1.9-2.9c0.2-0.5,0.4-1,0.6-1.5c0.2-0.6,0.3-1.2,0.4-1.8c0.1-0.6,0.1-1.3,0-2
						c0-0.7-0.1-1.3-0.2-2l-0.1-1c-0.1-0.3-0.1-0.7-0.2-1c-0.1-0.7-0.3-1.4-0.7-2c-0.1-0.2-0.2-0.3-0.3-0.5
						c-0.1-0.1-0.3-0.3-0.4-0.4c-0.3-0.3-0.6-0.4-0.9-0.6c-0.6-0.3-1.1-0.4-1.6-0.5c-1-0.2-1.7-0.3-2.2-0.6
						c-0.2-0.1-0.4-0.2-0.5-0.3c-0.1-0.1-0.2-0.2-0.2-0.2L202.3,64.1z"/>
				</g>
				<g>
					<path fill="#7B422E" d="M143.5,81.7c0,0,0.5,1,1.5,2.5c0.5,0.7,1.1,1.6,1.7,2.5c0.7,0.9,1.4,1.8,2.2,2.7
						c0.8,0.9,1.5,1.8,2.4,2.5c0.4,0.3,0.9,0.7,1.3,0.9c0.4,0.3,0.9,0.5,1.3,0.7c1.6,0.8,2.9,1,2.9,1l0.1-0.2c0,0-0.2-0.3-0.5-0.7
						c-0.3-0.4-0.8-1-1.4-1.6c-0.6-0.6-1.3-1.4-2.1-2c-0.4-0.3-0.9-0.6-1.3-1c-0.5-0.3-0.9-0.7-1.4-1c-1.7-1.5-3.4-3-4.6-4.3
						c-1.2-1.2-2-2.1-2-2.1L143.5,81.7z"/>
				</g>
			</g>
			
				<use xlink:href="#New_Symbol_15" width="13.8" height="22.3" id="XMLID_42_" x="-6.9" y="-11.1" transform="matrix(1 0 0 1 196.2933 95.9195)" overflow="visible"/>
		</g>
	</g>
</symbol>
<symbol id="New_Symbol_26" viewBox="-17.8 -33.5 35.6 67">
	<path id="XMLID_58_" fill="#90A032" stroke="#90A032" stroke-linecap="round" stroke-linejoin="round" stroke-miterlimit="10" d="
		M-15.9,12c4.6-1.2,8.9-4.1,11.6-8.1c3-4.3,4.1-9.6,5.2-14.7c1.4-6.5,2.8-12.9,4.1-19.4c-2.8,8.3-7.7,18-11.2,26
		C-8.8,2-11.8,8.2-17.3,12.3C-16.8,12.2-16.3,12.1-15.9,12z"/>
	<path id="XMLID_57_" fill="#90A032" stroke="#90A032" stroke-linecap="round" stroke-linejoin="round" stroke-miterlimit="10" d="
		M-9.2,32.2c-0.4,0.3-0.8,0.5-1.2,0.8C-0.7,12.3,3.2-10.6,7.6-33C8.7-22.1,7.6-11.2,6-0.5C5,6.1,3.8,12.8,1.1,18.9
		C-1.1,24.1-4.6,28.9-9.2,32.2z"/>
	<path id="XMLID_56_" fill="#90A032" stroke="#90A032" stroke-linecap="round" stroke-linejoin="round" stroke-miterlimit="10" d="
		M17.3,13.5C17-0.2,12.2-13.5,10.8-27.2c-1.2,10.3-2.1,20.9,0.2,31c0.9,4.1,2.7,8.3,6.2,10.5C17.3,14,17.3,13.8,17.3,13.5z"/>
</symbol>
<symbol id="New_Symbol_27" viewBox="-9.9 -21.1 19.8 42.2">
	<path id="XMLID_74_" fill="#90A032" stroke="#90A032" stroke-linecap="round" stroke-linejoin="round" stroke-miterlimit="10" d="
		M2.8,20.5C-1.5,16-3.6,9.5-3.6,3.2c0-7.9,4.3-21.9,4.3-21.9C0-5.6,0.7,7.6,2.8,20.5C2.9,20.6,2.9,20.5,2.8,20.5z"/>
	<path id="XMLID_64_" fill="#90A032" stroke="#90A032" stroke-linecap="round" stroke-linejoin="round" stroke-miterlimit="10" d="
		M3.2-15.9c-0.3,2.9-0.5,5.8,0,8.6C3.9-3.6,6,0,9.4,1.7c-2-6.5-4-13-5.9-19.5C3.4-17.2,3.3-16.6,3.2-15.9z"/>
	<path id="XMLID_63_" fill="#90A032" stroke="#90A032" stroke-linecap="round" stroke-linejoin="round" stroke-miterlimit="10" d="
		M-8.5,2.6c2.8-7.5,3.6-15.5,6-23.2C-5.2-15.2-7.9-9.6-9-3.7c-0.5,2.4-0.6,5,0.4,6.7C-8.6,2.9-8.5,2.7-8.5,2.6z"/>
</symbol>
<symbol id="New_Symbol_28" viewBox="-8 -14 16 28.1">
	<path id="XMLID_54_" fill="#90A032" stroke="#90A032" stroke-linecap="round" stroke-linejoin="round" stroke-miterlimit="10" d="
		M5.5-11.2C6.6-7.8,7.5-4.3,7.5-0.7c0,4.7-1.6,9.6-5.4,12.4C3,3.3,3.9-5.1,4.8-13.5C5.1-12.8,5.3-12,5.5-11.2z"/>
	<path id="XMLID_53_" fill="#90A032" stroke="#90A032" stroke-linecap="round" stroke-linejoin="round" stroke-miterlimit="10" d="
		M1.2-7.9C1.5-4.4,1.5-0.8,0.7,2.7c-1.1,4.6-3.9,9-8.1,10.8c2.8-8,5.7-15.9,8.6-23.9C1.1-9.6,1.2-8.8,1.2-7.9z"/>
</symbol>
<symbol id="New_Symbol_29" viewBox="-8.8 -15.5 17.7 30.9">
	<path id="XMLID_55_" fill="#90A032" stroke="#90A032" stroke-linecap="round" stroke-linejoin="round" stroke-miterlimit="10" d="
		M8.3-12.8C8.4-8.5,8.2-4.2,6.7-0.2C5.5,3,3.5,5.7,1.4,8.3c-2.5,3.1-5.6,6.2-9.5,6.6c0,0-0.1,0-0.2,0c0.7-0.6,1.5-1.3,1.5-1.3
		c3.3-2.9,5.4-7,7.4-11c1-2,2-3.9,3-5.9C5.1-6.4,6.7-9.6,7.7-13c0,0,0.3-0.9,0.6-2C8.3-14.3,8.3-13.6,8.3-12.8z"/>
</symbol>
<g>
	<defs>
		<rect id="SVGID_13_" width="500" height="500"/>
	</defs>
	<clipPath id="SVGID_14_">
		<use xlink:href="#SVGID_13_" overflow="visible"/>
	</clipPath>
	<rect x="-61.3" y="-58.6" clip-path="url(#SVGID_14_)" fill="#B4D85B" width="617.1" height="617.1"/>
	<g transform="matrix(1 3.725290e-09 -3.725290e-09 1 0 0)" clip-path="url(#SVGID_14_)">
		
			<use xlink:href="#New_Symbol_28" width="16" height="28.1" x="-8" y="-14" transform="matrix(0.741 -3.877614e-02 -3.877614e-02 -0.741 305.1996 123.196)" overflow="visible"/>
	</g>
	<g transform="matrix(1 -2.980232e-08 2.980232e-08 1 0 0)" clip-path="url(#SVGID_14_)">
		
			<use xlink:href="#New_Symbol_29" width="17.7" height="30.9" x="-8.8" y="-15.5" transform="matrix(-0.6152 0.4147 -0.4147 -0.6152 400.1472 265.6091)" overflow="visible"/>
	</g>
	<g transform="matrix(1 0 0 1 0 -3.051758e-05)" clip-path="url(#SVGID_14_)">
		
			<use xlink:href="#New_Symbol_29" width="17.7" height="30.9" x="-8.8" y="-15.5" transform="matrix(-0.7385 7.185259e-02 -7.185259e-02 -0.7385 403.3359 269.2383)" overflow="visible"/>
	</g>
	<g transform="matrix(1 3.725290e-09 -3.725290e-09 1 3.814697e-06 -1.525879e-05)" clip-path="url(#SVGID_14_)">
		
			<use xlink:href="#New_Symbol_29" width="17.7" height="30.9" x="-8.8" y="-15.5" transform="matrix(0.741 -3.877614e-02 -3.877614e-02 -0.741 52.075 161.3301)" overflow="visible"/>
	</g>
	<g transform="matrix(1 0 0 1 0 0)" clip-path="url(#SVGID_14_)">
		
			<use xlink:href="#New_Symbol_29" width="17.7" height="30.9" x="-8.8" y="-15.5" transform="matrix(0.738 7.663519e-02 7.663519e-02 -0.738 57.5979 157.6588)" overflow="visible"/>
	</g>
	<g clip-path="url(#SVGID_14_)">
		
			<use xlink:href="#New_Symbol_26" width="35.6" height="67" x="-17.8" y="-33.5" transform="matrix(0.7298 0.1341 0.1341 -0.7298 41.1849 190.6932)" overflow="visible"/>
	</g>
	<g clip-path="url(#SVGID_14_)">
		
			<use xlink:href="#New_Symbol_26" width="35.6" height="67" x="-17.8" y="-33.5" transform="matrix(0.7298 0.1341 0.1341 -0.7298 325.1944 170.1439)" overflow="visible"/>
	</g>
	<g clip-path="url(#SVGID_14_)">
		
			<use xlink:href="#New_Symbol_29" width="17.7" height="30.9" x="-8.8" y="-15.5" transform="matrix(-0.9057 0 0 -0.9057 440.0434 345.9693)" overflow="visible"/>
	</g>
	<g transform="matrix(1 0 0 1 0 0)" clip-path="url(#SVGID_14_)">
		
			<use xlink:href="#New_Symbol_29" width="17.7" height="30.9" x="-8.8" y="-15.5" transform="matrix(-0.8947 0.1405 -0.1405 -0.8947 433.077 341.8465)" overflow="visible"/>
	</g>
	<g transform="matrix(1 0 0 1 0 3.051758e-05)" clip-path="url(#SVGID_14_)">
		
			<use xlink:href="#New_Symbol_26" width="35.6" height="67" id="XMLID_59_" x="-17.8" y="-33.5" transform="matrix(-0.8994 -0.1062 0.1062 -0.8994 447.0401 381.0674)" overflow="visible"/>
	</g>
	<g transform="matrix(1 1.490116e-08 -1.490116e-08 1 0 -3.051758e-05)" clip-path="url(#SVGID_14_)">
		
			<use xlink:href="#New_Symbol_26" width="35.6" height="67" x="-17.8" y="-33.5" transform="matrix(-0.881 0.21 -0.21 -0.881 102.3859 374.4129)" overflow="visible"/>
	</g>
	<g clip-path="url(#SVGID_14_)">
		
			<use xlink:href="#New_Symbol_18" width="507.2" height="331.2" id="XMLID_45_" x="-253.4" y="-165.6" transform="matrix(-0.7129 9.803756e-02 -9.803756e-02 -0.7129 223.0596 191.9019)" overflow="visible"/>
		<path d="M90.4,103.8c0.7,0.1,1.3,0.3,1.6,0.7c0.3,0.4,0.5,0.8,0.4,1.2c0,0.4-0.3,0.8-0.7,1.1s-1,0.5-1.8,0.5
			c-2.9,0.1-5.8,0.3-8.6,0.8c-2.9,0.4-5.7,0.9-8.5,1.5c-1,0-1.7-0.2-2.1-0.7c-0.4-0.5-0.4-1.1,0-1.9c1.5-2.5,3.3-5,5.2-7.4
			c2-2.4,3.9-4.7,5.9-7.1c-1.9,0.3-3.8,0.6-5.7,0.9c-1.9,0.3-3.7,0.7-5.6,1.1c-0.7,0-1.2-0.1-1.6-0.3c-0.4-0.2-0.7-0.5-0.8-0.9
			c-0.1-0.3,0-0.7,0.2-1.1c0.2-0.4,0.6-0.7,1.2-1c2.8-0.6,5.6-1.1,8.4-1.6c2.8-0.4,5.6-0.8,8.5-1.1c1,0.1,1.6,0.4,1.9,1
			c0.3,0.6,0.2,1.2-0.3,1.9c-2,2.3-4,4.6-6,6.9c-2,2.3-3.9,4.7-5.6,7.2c2.4-0.4,4.7-0.7,7-1C85.7,104,88,103.8,90.4,103.8z"/>
		<path d="M114.5,72.9c0.9,0.1,1.6,0.4,2.1,0.8c0.4,0.5,0.6,1,0.6,1.5c-0.1,0.5-0.4,1-0.9,1.4c-0.5,0.4-1.3,0.7-2.3,0.7
			c-3.7,0.1-7.3,0.4-11,1c-3.6,0.6-7.2,1.2-10.8,1.8c-1.3,0-2.2-0.3-2.7-0.9c-0.5-0.6-0.5-1.5,0-2.4c2-3.2,4.2-6.4,6.7-9.4
			c2.5-3,5-6,7.5-9c-2.4,0.3-4.8,0.7-7.2,1.1c-2.4,0.4-4.8,0.9-7.2,1.4c-0.8,0-1.5-0.1-2.1-0.4c-0.5-0.3-0.9-0.7-1-1.1
			c-0.1-0.4,0-0.9,0.2-1.4c0.3-0.5,0.8-1,1.6-1.3c3.5-0.8,7.1-1.4,10.7-2c3.6-0.5,7.2-1,10.8-1.5c1.2,0.1,2,0.6,2.4,1.3
			c0.4,0.7,0.2,1.5-0.4,2.4c-2.5,2.9-5.1,5.9-7.7,8.8c-2.6,2.9-5,6-7.1,9.1c3-0.5,6-0.9,8.9-1.3C108.5,73.2,111.4,73,114.5,72.9z"/>
		<path d="M152.8,48.2c1.1,0.1,2,0.4,2.5,1c0.5,0.6,0.8,1.2,0.7,1.8c-0.1,0.6-0.4,1.2-1.1,1.7c-0.7,0.5-1.6,0.8-2.7,0.8
			c-4.4,0.1-8.8,0.5-13.2,1.2c-4.4,0.7-8.7,1.4-13.1,2.2c-1.6,0-2.6-0.3-3.2-1.1c-0.6-0.8-0.6-1.8,0-2.9c2.4-3.9,5-7.7,8.1-11.3
			c3-3.6,6-7.3,9.1-10.9c-2.9,0.4-5.8,0.8-8.7,1.3c-2.9,0.5-5.7,1-8.7,1.7c-1,0.1-1.8-0.1-2.5-0.5c-0.6-0.4-1-0.8-1.2-1.4
			c-0.2-0.5-0.1-1.1,0.3-1.7c0.3-0.6,1-1.1,1.9-1.6c4.3-0.9,8.6-1.7,12.9-2.4c4.3-0.7,8.6-1.2,13-1.8c1.5,0.2,2.4,0.7,2.9,1.6
			c0.5,0.9,0.3,1.8-0.5,2.9c-3,3.6-6.1,7.1-9.2,10.6c-3.1,3.5-6,7.2-8.6,11c3.6-0.6,7.2-1.1,10.7-1.5
			C145.5,48.6,149.1,48.3,152.8,48.2z"/>
	</g>
	<g clip-path="url(#SVGID_14_)">
		
			<use xlink:href="#New_Symbol_18" width="507.2" height="331.2" id="XMLID_37_" x="-253.4" y="-165.6" transform="matrix(0.9045 4.712292e-02 4.712292e-02 -0.9045 227.8198 391.7989)" overflow="visible"/>
		<path d="M431.1,250.8c0.7,0.2,1.2,0.5,1.5,1c0.3,0.4,0.4,0.9,0.2,1.3c-0.1,0.4-0.4,0.7-0.9,1c-0.5,0.3-1.1,0.3-1.9,0.2
			c-2.9-0.5-5.9-0.8-8.9-0.9c-3-0.1-5.9-0.2-8.9-0.2c-1-0.2-1.7-0.6-2-1.1c-0.3-0.6-0.2-1.2,0.4-1.9c2-2.3,4.3-4.4,6.7-6.4
			c2.4-2,4.9-4,7.4-6c-2-0.1-4-0.2-5.9-0.2c-1.9,0-3.9,0-5.9,0c-0.7-0.1-1.2-0.3-1.6-0.6c-0.4-0.3-0.6-0.7-0.6-1
			c0-0.4,0.1-0.7,0.4-1.1c0.3-0.4,0.8-0.6,1.4-0.8c2.9-0.1,5.9-0.1,8.8,0c2.9,0.1,5.9,0.3,8.8,0.5c0.9,0.3,1.5,0.7,1.7,1.4
			c0.2,0.6,0,1.3-0.7,1.8c-2.5,2-4.9,3.9-7.4,5.9c-2.5,1.9-4.8,4-7.1,6.2c2.5,0.1,4.9,0.2,7.3,0.3
			C426.3,250.2,428.7,250.4,431.1,250.8z"/>
		<path d="M450.1,218c0.9,0.3,1.6,0.7,1.9,1.3c0.4,0.6,0.5,1.1,0.3,1.6c-0.2,0.5-0.6,0.9-1.2,1.3c-0.6,0.3-1.4,0.4-2.4,0.3
			c-3.7-0.6-7.5-1-11.3-1.1c-3.8-0.1-7.6-0.2-11.3-0.2c-1.3-0.2-2.1-0.7-2.5-1.4c-0.4-0.7-0.2-1.6,0.5-2.5c2.6-2.9,5.5-5.6,8.6-8.2
			c3.1-2.6,6.2-5.1,9.3-7.6c-2.5-0.1-5-0.2-7.5-0.3c-2.5-0.1-5-0.1-7.5,0c-0.9-0.1-1.5-0.4-2-0.8c-0.5-0.4-0.7-0.9-0.8-1.3
			c0-0.5,0.1-0.9,0.5-1.4c0.4-0.5,1-0.8,1.8-1c3.7-0.1,7.4-0.1,11.2,0c3.7,0.1,7.4,0.3,11.2,0.6c1.2,0.4,1.9,1,2.2,1.8
			c0.3,0.8,0,1.6-0.9,2.3c-3.1,2.5-6.3,5-9.4,7.4c-3.2,2.5-6.2,5.1-9,7.9c3.1,0.1,6.2,0.2,9.2,0.4C444,217.1,447,217.5,450.1,218z"/>
		<path d="M430.1,185.4c1.1,0.3,1.9,0.8,2.3,1.5c0.4,0.7,0.5,1.3,0.4,1.9c-0.2,0.6-0.7,1.1-1.4,1.5c-0.8,0.4-1.7,0.5-2.9,0.3
			c-4.5-0.7-9-1.2-13.6-1.4c-4.6-0.2-9.1-0.3-13.7-0.3c-1.6-0.3-2.6-0.8-3-1.7c-0.4-0.9-0.3-1.9,0.6-3c3.1-3.5,6.6-6.8,10.3-9.9
			c3.7-3.1,7.5-6.2,11.3-9.2c-3.1-0.2-6.1-0.3-9.1-0.3c-3-0.1-6-0.1-9.1,0c-1-0.1-1.8-0.5-2.4-1c-0.6-0.5-0.9-1-0.9-1.6
			c-0.1-0.6,0.2-1.1,0.6-1.7c0.5-0.6,1.2-1,2.2-1.2c4.5-0.1,9-0.1,13.5,0.1c4.5,0.2,9,0.4,13.5,0.7c1.5,0.4,2.3,1.1,2.6,2.1
			c0.3,1-0.1,1.9-1.1,2.8c-3.8,3-7.6,6-11.4,9c-3.8,3-7.4,6.1-10.8,9.5c3.8,0.1,7.5,0.3,11.1,0.5
			C422.7,184.4,426.4,184.9,430.1,185.4z"/>
	</g>
	<g clip-path="url(#SVGID_14_)">
		
			<use xlink:href="#New_Symbol_29" width="17.7" height="30.9" x="-8.8" y="-15.5" transform="matrix(-0.9057 0 0 -0.9057 475.6924 430.416)" overflow="visible"/>
	</g>
	<g transform="matrix(1 -2.980232e-08 2.980232e-08 1 0 0)" clip-path="url(#SVGID_14_)">
		
			<use xlink:href="#New_Symbol_29" width="17.7" height="30.9" id="XMLID_48_" x="-8.8" y="-15.5" transform="matrix(0.8702 -0.2509 -0.2509 -0.8702 80.3032 396.1551)" overflow="visible"/>
	</g>
	<g clip-path="url(#SVGID_14_)">
		
			<use xlink:href="#New_Symbol_29" width="17.7" height="30.9" x="-8.8" y="-15.5" transform="matrix(-0.9057 0 0 -0.9057 285.6136 454.7155)" overflow="visible"/>
	</g>
	<g transform="matrix(1 0 0 1 0 -3.051758e-05)" clip-path="url(#SVGID_14_)">
		
			<use xlink:href="#New_Symbol_29" width="17.7" height="30.9" x="-8.8" y="-15.5" transform="matrix(-0.8947 0.1405 -0.1405 -0.8947 278.6472 450.5927)" overflow="visible"/>
	</g>
	<g transform="matrix(1 -1.490116e-08 1.490116e-08 1 3.051758e-05 0)" clip-path="url(#SVGID_14_)">
		
			<use xlink:href="#New_Symbol_27" width="19.8" height="42.2" id="XMLID_60_" x="-9.9" y="-21.1" transform="matrix(0.8753 0.2327 0.2327 -0.8753 472.202 400.8536)" overflow="visible"/>
	</g>
	<g clip-path="url(#SVGID_14_)">
		
			<use xlink:href="#New_Symbol_27" width="19.8" height="42.2" x="-9.9" y="-21.1" transform="matrix(-0.8888 0.1743 -0.1743 -0.8888 357.0547 466.3112)" overflow="visible"/>
	</g>
	<g transform="matrix(1 0 0 1 3.814697e-06 0)" clip-path="url(#SVGID_14_)">
		
			<use xlink:href="#New_Symbol_27" width="19.8" height="42.2" id="XMLID_52_" x="-9.9" y="-21.1" transform="matrix(-1.2213 0.4431 -0.4431 -1.2213 54.9574 419.6735)" overflow="visible"/>
	</g>
	<g clip-path="url(#SVGID_14_)">
		
			<use xlink:href="#New_Symbol_28" width="16" height="28.1" x="-8" y="-14" transform="matrix(0.9057 0 0 -0.9057 435.898 437.3349)" overflow="visible"/>
	</g>
	<g clip-path="url(#SVGID_14_)">
		
			<use xlink:href="#New_Symbol_28" width="16" height="28.1" x="-8" y="-14" transform="matrix(0.9057 0 0 -0.9057 225.6315 462.9448)" overflow="visible"/>
	</g>
	<g clip-path="url(#SVGID_14_)">
		
			<use xlink:href="#New_Symbol_28" width="16" height="28.1" id="XMLID_51_" x="-8" y="-14" transform="matrix(-0.9057 0 0 -0.9057 377.1412 469.2597)" overflow="visible"/>
	</g>
	<g transform="matrix(1 0 0 1 0 3.051758e-05)" clip-path="url(#SVGID_14_)">
		
			<use xlink:href="#New_Symbol_27" width="19.8" height="42.2" x="-9.9" y="-21.1" transform="matrix(-0.8888 0.1743 -0.1743 -0.8888 119.765 421.8767)" overflow="visible"/>
	</g>
	<g clip-path="url(#SVGID_14_)">
		
			<use xlink:href="#New_Symbol_28" width="16" height="28.1" x="-8" y="-14" transform="matrix(-0.9057 0 0 -0.9057 137.3076 438.8322)" overflow="visible"/>
	</g>
	<g transform="matrix(1 3.725290e-09 -3.725290e-09 1 0 0)" clip-path="url(#SVGID_14_)">
		
			<use xlink:href="#New_Symbol_29" width="17.7" height="30.9" x="-8.8" y="-15.5" transform="matrix(0.741 -3.877614e-02 -3.877614e-02 -0.741 26.5253 231.944)" overflow="visible"/>
	</g>
	<g transform="matrix(1 -1.490116e-08 1.490116e-08 1 0 0)" clip-path="url(#SVGID_14_)">
		
			<use xlink:href="#New_Symbol_29" width="17.7" height="30.9" x="-8.8" y="-15.5" transform="matrix(-0.7227 -0.168 0.168 -0.7227 348.535 186.9862)" overflow="visible"/>
	</g>
	<g transform="matrix(1 -1.490116e-08 1.490116e-08 1 0 0)" clip-path="url(#SVGID_14_)">
		
			<use xlink:href="#New_Symbol_29" width="17.7" height="30.9" x="-8.8" y="-15.5" transform="matrix(-0.7227 -0.168 0.168 -0.7227 400.998 116.4908)" overflow="visible"/>
	</g>
	<g transform="matrix(1 -1.490116e-08 1.490116e-08 1 0 7.629395e-06)" clip-path="url(#SVGID_14_)">
		
			<use xlink:href="#New_Symbol_29" width="17.7" height="30.9" x="-8.8" y="-15.5" transform="matrix(-0.7227 -0.168 0.168 -0.7227 351.1257 105.4569)" overflow="visible"/>
	</g>
	<g transform="matrix(1 3.725290e-09 -3.725290e-09 1 -1.525879e-05 0)" clip-path="url(#SVGID_14_)">
		
			<use xlink:href="#New_Symbol_29" width="17.7" height="30.9" x="-8.8" y="-15.5" transform="matrix(0.741 -3.877614e-02 -3.877614e-02 -0.741 183.0733 243.6859)" overflow="visible"/>
	</g>
	<g transform="matrix(1 0 0 1 1.525879e-05 0)" clip-path="url(#SVGID_14_)">
		
			<use xlink:href="#New_Symbol_29" width="17.7" height="30.9" x="-8.8" y="-15.5" transform="matrix(0.738 7.663519e-02 7.663519e-02 -0.738 188.5962 240.0147)" overflow="visible"/>
	</g>
	<g transform="matrix(1 0 0 1 3.814697e-06 0)" clip-path="url(#SVGID_14_)">
		
			<use xlink:href="#New_Symbol_27" width="19.8" height="42.2" x="-9.9" y="-21.1" transform="matrix(-0.7061 0.2279 -0.2279 -0.7061 28.1152 207.6089)" overflow="visible"/>
	</g>
	<g clip-path="url(#SVGID_14_)">
		
			<use xlink:href="#New_Symbol_27" width="19.8" height="42.2" x="-9.9" y="-21.1" transform="matrix(-0.7061 0.2279 -0.2279 -0.7061 328.0415 100.638)" overflow="visible"/>
	</g>
	<g transform="matrix(1 0 0 1 -1.525879e-05 0)" clip-path="url(#SVGID_14_)">
		
			<use xlink:href="#New_Symbol_27" width="19.8" height="42.2" x="-9.9" y="-21.1" transform="matrix(0.7346 0.1045 0.1045 -0.7346 125.1222 256.2313)" overflow="visible"/>
	</g>
	<g clip-path="url(#SVGID_14_)">
		
			<use xlink:href="#New_Symbol_27" width="19.8" height="42.2" x="-9.9" y="-21.1" transform="matrix(1.0181 0.3103 0.3103 -1.0181 370.2779 205.1419)" overflow="visible"/>
	</g>
	<g transform="matrix(1 3.725290e-09 -3.725290e-09 1 0 0)" clip-path="url(#SVGID_14_)">
		
			<use xlink:href="#New_Symbol_28" width="16" height="28.1" x="-8" y="-14" transform="matrix(-0.741 3.877614e-02 -3.877614e-02 -0.741 59.3782 235.9008)" overflow="visible"/>
	</g>
	<g transform="matrix(1 3.725290e-09 -3.725290e-09 1 0 0)" clip-path="url(#SVGID_14_)">
		
			<use xlink:href="#New_Symbol_28" width="16" height="28.1" id="XMLID_50_" x="-8" y="-14" transform="matrix(-0.741 3.877614e-02 -3.877614e-02 -0.741 232.4983 247.8504)" overflow="visible"/>
	</g>
	<g transform="matrix(1 3.725290e-09 -3.725290e-09 1 -7.629395e-06 0)" clip-path="url(#SVGID_14_)">
		
			<use xlink:href="#New_Symbol_28" width="16" height="28.1" x="-8" y="-14" transform="matrix(0.741 -3.877614e-02 -3.877614e-02 -0.741 108.8153 259.5035)" overflow="visible"/>
	</g>
	<g clip-path="url(#SVGID_14_)">
		
			<use xlink:href="#New_Symbol_27" width="19.8" height="42.2" x="-9.9" y="-21.1" transform="matrix(0.7346 0.1045 0.1045 -0.7346 317.3517 209.7191)" overflow="visible"/>
	</g>
	<g clip-path="url(#SVGID_14_)">
		
			<use xlink:href="#New_Symbol_27" width="19.8" height="42.2" x="-9.9" y="-21.1" transform="matrix(0.7346 0.1045 0.1045 -0.7346 386.7693 109.8896)" overflow="visible"/>
	</g>
	<g transform="matrix(1 3.725290e-09 -3.725290e-09 1 0 1.525879e-05)" clip-path="url(#SVGID_14_)">
		
			<use xlink:href="#New_Symbol_28" width="16" height="28.1" x="-8" y="-14" transform="matrix(0.741 -3.877614e-02 -3.877614e-02 -0.741 303.7256 224.3419)" overflow="visible"/>
	</g>
	<g clip-path="url(#SVGID_14_)">
		
			<use xlink:href="#New_Symbol_28" width="16" height="28.1" x="-8" y="-14" transform="matrix(0.6409 -3.354160e-02 -3.080755e-02 -0.5887 310.7262 90.3007)" overflow="visible"/>
	</g>
</g>
</svg>
