<?xml version="1.0" encoding="utf-8"?>
<!-- Generator: Adobe Illustrator 19.1.0, SVG Export Plug-In . SVG Version: 6.00 Build 0)  -->
<svg version="1.1" id="Layer_1" xmlns="http://www.w3.org/2000/svg" xmlns:xlink="http://www.w3.org/1999/xlink" x="0px" y="0px"
	 width="500px" height="500px" viewBox="0 0 500 500" style="enable-background:new 0 0 500 500;" xml:space="preserve">
<style type="text/css">
	.st0{fill:#2C1A12;stroke:#603A17;stroke-width:2;stroke-linecap:round;stroke-linejoin:round;stroke-miterlimit:10;}
	.st1{fill:#27AAE1;stroke:#0E7EA5;stroke-width:2;stroke-linecap:round;stroke-linejoin:round;stroke-miterlimit:10;}
	.st2{clip-path:url(#SVGID_2_);}
	.st3{fill:#90B2D3;}
	.st4{fill:#C07F5F;stroke:#945535;stroke-width:2;stroke-linecap:round;stroke-linejoin:round;stroke-miterlimit:10;}
	.st5{fill:#39B24A;stroke:#048041;stroke-width:2;stroke-linecap:round;stroke-linejoin:round;stroke-miterlimit:10;}
	.st6{fill:none;stroke:#048041;stroke-width:2;stroke-linecap:round;stroke-linejoin:round;stroke-miterlimit:10;}
	.st7{fill:none;stroke:#945535;stroke-width:2;stroke-linecap:round;stroke-linejoin:round;stroke-miterlimit:10;}
	.st8{fill:#F9F8E5;stroke:#BCBA9F;stroke-width:2;stroke-miterlimit:10;}
	.st9{fill:none;stroke:#BCBA9F;stroke-width:2;stroke-miterlimit:10;}
	.st10{fill:#BCBA9F;}
	.st11{clip-path:url(#SVGID_4_);fill:#404666;stroke:#6E7DAA;stroke-width:2;stroke-miterlimit:10;}
	.st12{fill:#6E7DAA;}
	.st13{fill:#54CC5F;stroke:#048041;stroke-width:2;stroke-linecap:round;stroke-linejoin:round;stroke-miterlimit:10;}
	.st14{fill:#FCFADE;stroke:#BFB87B;stroke-width:2.1326;stroke-miterlimit:10;}
	.st15{fill:#603A17;}
</style>
<symbol  id="New_Symbol" viewBox="-22 -45.251 44 90.502">
	<path class="st0" d="M10.473-39.362c0,0,11.182,24.911,4.354,61.411l-28.263,22.202c0,0-3.598-10.202,0.419-31.202
		S-9.84-15.907-9.84-15.907S-18-27.051-21-44.251L10.473-39.362z"/>
	<path class="st0" d="M-6.833,40.585C-9.667,25.62-1.982,15.549-1.982,15.549s7.982,7,22.982,7"/>
	<path class="st0" d="M21-18.22c0,0-26.464,12.77-22.982,33.77"/>
	<path class="st0" d="M-11.845,6.492c0,0,3.25,5.057,9.548,5.057"/>
	<path class="st0" d="M-9.979-8.471l5.577,3.117c0,0-1.896-15.319,13.753-26.208"/>
	<path class="st1" d="M-9.84-10.802c0,0,6.201-10.476,25.075-11.401v-12.381c0,0-9.794-9.267-31.765,5.933
		c0,0-5.791,3.685-1.131,10.192C-17.66-18.458-20.68-13.154-9.84-10.802z"/>
	<path class="st1" d="M-17.66-18.458c0,0,16.149-15.136,32.488-10.192"/>
</symbol>
<g>
	<defs>
		<rect id="SVGID_1_" width="500" height="500"/>
	</defs>
	<clipPath id="SVGID_2_">
		<use xlink:href="#SVGID_1_"  style="overflow:visible;"/>
	</clipPath>
	<g class="st2">
		<rect class="st3" width="500" height="500"/>
		
			<use xlink:href="#New_Symbol"  width="44" height="90.502" x="-22" y="-45.251" transform="matrix(1.0581 -0.1323 -0.1323 -1.0581 172.2336 209.483)" style="overflow:visible;"/>
		
			<use xlink:href="#New_Symbol"  width="44" height="90.502" id="XMLID_6_" x="-22" y="-45.251" transform="matrix(-1.0601 -0.1149 0.1149 -1.0601 316.0146 209.483)" style="overflow:visible;"/>
		<polygon class="st4" points="198.546,215.193 157.483,243.375 236.39,323.704 292.549,327.258 338.045,266.478 315.297,234.844 
			278.331,221.338 		"/>
		<path class="st5" d="M56.539,359.04c0,0,13.862,22.577,75.708,47.557c0,0,5.332,53.218,0,93.403h234.588
			c0,0-7.286-37.876-0.888-87.836c0,0,43.541,2.035,64.867-6.653c0,0-16.269-67.788-49.422-122.708
			c-15.101-25.016-38.466-43.764-65.979-52.543c-17.45-5.568-40.474-10.412-69.735-11.876c0,0-39.425-3.333-78.233,12.121
			c-16.661,6.635-34.843,24.814-56.892,55.346L56.539,359.04z"/>
		<path class="st6" d="M66.403,345.675c0,0,25.68,26.368,71.483,40.585"/>
		<path class="st4" d="M195.941,297.757c0,0,22.763,11.107,27.086,16.628c2.326,2.97,2.842,6.558-0.692,8.017
			c-3.293,1.359-8.83,1.226-18.077-3.78L195.941,297.757z"/>
		<path class="st4" d="M71.439,373.502c0,0-48.903,77.89-16.986,106.811c5.621,5.093,13.42,7.039,20.776,5.188
			c13.878-3.494,36.448-17.33,38.891-70.095l31.818-74.642c0,0,22.208-8.53,34.293-22.748c0,0,7.812,6.398,12.436,14.928
			c2.606,4.807,9.139,8.238,14.346,10.318c3.404,1.36,7.028-1.414,6.555-5.048c-1.335-10.269-5.04-28.839-15.009-40.749
			c-5.203-6.216-13.045-9.587-21.148-9.361c-19.749,0.55-65.006,5.963-85.328,44.84L77.948,378.42L71.439,373.502z"/>
		<path class="st7" d="M50.852,438.865c0-16.56,22.037-46.207,27.096-60.445"/>
		<path class="st8" d="M282.312,381.107c0,0-4.389-60.748,91.579-107.886c1.311-0.644,2.69,0.762,2.01,2.056l-29.903,56.868
			c-0.142,0.27,0.155,0.56,0.416,0.402c4.533-2.751,25.274-14.677,54.391-21.263c1.359-0.307,2.382,1.233,1.563,2.361
			l-22.049,30.351c-0.35,0.482,0.139,1.124,0.694,0.908c5.905-2.293,24.832-9.002,47.828-10.591c0.869-0.06,1.472,0.86,1.076,1.635
			l-4.967,9.728h17.449c0.329,0,0.556,0.328,0.442,0.636l-2.43,6.539h7.839c0.933,0,1.641,0.837,1.479,1.756
			c-0.62,3.509-2.323,11.258-5.586,13.705L313.245,390.17l-11.57,11.377H268.09l-11.618-10.311L92.26,345.675
			c0,0,5.865-7.625,13.862-9.289l-2.097-1.439c-1.017-0.698-1.063-2.172-0.097-2.94c2.09-1.66,6.016-4.07,11.79-4.75l-1.713-2.648
			c-0.44-0.681-0.012-1.584,0.795-1.663C128.114,321.65,214.827,316.044,282.312,381.107z"/>
		<path class="st9" d="M267.031,397.49c0,0,0.502-10.349,16.564-10.349s16.979,10.493,16.979,10.493"/>
		<g>
			<g>
				<path class="st10" d="M373.934,273.311c0,0-0.983,0.469-2.825,1.347c-1.866,0.835-4.49,2.267-7.775,4.177
					c-3.237,1.993-7.142,4.476-11.297,7.766c-4.184,3.244-8.73,7.14-13.327,11.762c-9.252,9.185-18.858,21.069-27.81,34.682
					c-4.494,6.796-8.785,14.048-12.894,21.55c-4.077,7.519-7.958,15.303-11.469,23.245l-1.296,2.987l-0.32,0.75l-0.16,0.376
					l-0.08,0.188c-0.019,0.248-0.456-1.865-0.418-1.108c-0.214-0.159-0.675-0.08-0.802,0.08c-0.103,0.102,0.01-0.016,0.005-0.014
					l0.068-0.078l0.136-0.155l0.272-0.309l0.548-0.614c1.466-1.628,2.968-3.212,4.492-4.77c3.049-3.113,6.186-6.11,9.371-9.003
					c6.366-5.792,12.955-11.128,19.545-16.001c6.619-4.833,13.22-9.231,19.686-13.055c6.461-3.833,12.727-7.185,18.626-10.037
					c5.893-2.867,11.433-5.198,16.388-7.133c4.955-1.939,9.342-3.445,12.985-4.581c3.638-1.155,6.526-1.957,8.495-2.5
					c1.974-0.524,3.027-0.804,3.027-0.804l0.054,0.193c0,0-1.039,0.322-2.988,0.926c-1.943,0.622-4.79,1.54-8.367,2.839
					c-3.576,1.3-7.894,2.941-12.776,4.989c-4.885,2.041-10.299,4.568-16.113,7.495c-5.815,2.926-11.985,6.353-18.337,10.258
					c-6.341,3.92-12.914,8.244-19.447,13.09c-6.568,4.794-13.131,10.058-19.52,15.724c-3.192,2.835-6.336,5.776-9.391,8.827
					c-1.526,1.526-3.031,3.08-4.494,4.668l-1.147,1.263c-0.171,0.211-0.677,0.341-0.936,0.233c-0.003,0.803-0.516-1.216-0.477-1.078
					l0.082-0.187l0.163-0.374l0.329-0.748l1.337-2.99c3.6-7.957,7.564-15.739,11.723-23.255c4.191-7.498,8.563-14.742,13.134-21.528
					c4.561-6.791,9.259-13.165,14.026-18.956c4.76-5.795,9.571-11.019,14.26-15.585c4.669-4.588,9.28-8.449,13.517-11.656
					c4.208-3.254,8.157-5.702,11.426-7.663c3.321-1.88,5.976-3.288,7.847-4.1c1.852-0.857,2.84-1.315,2.84-1.315L373.934,273.311z"
					/>
			</g>
			<g>
				<path class="st10" d="M290.057,383.152c0,0,0.446-0.258,1.281-0.741c0.839-0.478,2.053-1.205,3.628-2.082
					c1.591-0.847,3.504-1.92,5.737-3.07c2.24-1.135,4.748-2.458,7.537-3.791c2.771-1.373,5.798-2.803,9.013-4.292
					c3.205-1.51,6.634-2.993,10.164-4.564c3.553-1.518,7.211-3.122,10.971-4.649c3.742-1.57,7.576-3.087,11.41-4.605
					c3.834-1.517,7.688-2.985,11.486-4.418c3.812-1.397,7.559-2.788,11.225-4.019c1.836-0.608,3.641-1.206,5.408-1.791
					c1.776-0.559,3.515-1.099,5.216-1.599c3.389-1.042,6.626-1.921,9.606-2.753c2.971-0.863,5.748-1.467,8.186-2.076
					c1.221-0.296,2.364-0.573,3.421-0.83c1.066-0.219,2.045-0.42,2.93-0.602c3.535-0.732,5.56-1.113,5.56-1.113l0.045,0.195
					c0,0-1.973,0.606-5.434,1.601c-1.732,0.494-3.828,1.112-6.223,1.854c-2.399,0.728-5.103,1.549-8.039,2.495
					c-2.941,0.927-6.133,1.909-9.474,3.06c-1.672,0.57-3.397,1.13-5.163,1.696c-1.755,0.6-3.548,1.213-5.371,1.836
					c-3.67,1.178-7.417,2.527-11.254,3.818c-3.819,1.341-7.696,2.715-11.554,4.141c-3.851,1.444-7.703,2.888-11.466,4.386
					c-3.78,1.455-7.458,2.989-11.032,4.44c-3.554,1.498-6.996,2.934-10.232,4.357c-3.244,1.408-6.3,2.762-9.098,4.065
					c-2.817,1.263-5.35,2.522-7.614,3.601c-2.256,1.094-4.186,2.116-5.796,2.923c-1.594,0.838-2.827,1.536-3.677,1.992
					c-0.847,0.463-1.299,0.71-1.299,0.71L290.057,383.152z"/>
			</g>
			<g>
				<path class="st10" d="M218.727,353.818c0,0,1.005,0.195,2.744,0.62c1.74,0.421,4.218,1.06,7.157,1.948
					c1.474,0.431,3.06,0.936,4.729,1.496c1.682,0.524,3.406,1.216,5.218,1.858c1.787,0.706,3.643,1.417,5.501,2.209
					c1.845,0.82,3.751,1.588,5.59,2.504c0.929,0.439,1.858,0.877,2.784,1.314c0.924,0.44,1.817,0.935,2.719,1.395
					c0.897,0.471,1.787,0.937,2.666,1.399c0.855,0.505,1.7,1.004,2.531,1.495c0.819,0.51,1.625,1.011,2.414,1.502
					c0.767,0.526,1.514,1.045,2.229,1.567c0.719,0.516,1.417,1.018,2.094,1.504c0.682,0.476,1.276,1.028,1.881,1.508
					c1.195,0.979,2.256,1.918,3.211,2.725c0.908,0.867,1.688,1.634,2.315,2.28c1.271,1.272,1.967,2.023,1.967,2.023l-0.135,0.147
					c0,0-0.853-0.581-2.292-1.638c-0.729-0.518-1.594-1.166-2.573-1.922c-1.027-0.698-2.202-1.458-3.446-2.332
					c-1.229-0.894-2.638-1.752-4.103-2.693c-0.737-0.463-1.483-0.955-2.242-1.462c-0.785-0.468-1.587-0.946-2.403-1.431
					c-0.804-0.505-1.622-1.018-2.45-1.537c-0.847-0.489-1.704-0.984-2.568-1.484c-0.867-0.495-1.725-1.025-2.616-1.501
					c-0.894-0.474-1.791-0.949-2.688-1.425c-1.785-0.973-3.642-1.802-5.44-2.681c-1.811-0.852-3.625-1.624-5.372-2.39
					c-1.771-0.708-3.467-1.44-5.108-2.048c-1.63-0.638-3.182-1.217-4.626-1.717c-2.88-1.027-5.316-1.784-7.028-2.288
					c-1.712-0.508-2.702-0.751-2.702-0.751L218.727,353.818z"/>
			</g>
			<g>
				<path class="st10" d="M243.699,374.078c0,0,1.867,0.302,4.62,0.977c1.375,0.341,2.984,0.741,4.676,1.276
					c1.701,0.509,3.494,1.127,5.281,1.774c0.889,0.342,1.777,0.683,2.652,1.02c0.867,0.362,1.731,0.697,2.526,1.112
					c0.788,0.429,1.563,0.818,2.242,1.292c0.687,0.458,1.338,0.883,1.906,1.329c0.567,0.448,1.07,0.88,1.513,1.26
					c0.443,0.381,0.785,0.773,1.077,1.075c0.577,0.616,0.877,0.99,0.877,0.99l-0.127,0.155c0,0-0.449-0.194-1.183-0.574
					c-0.374-0.181-0.793-0.442-1.312-0.686c-0.513-0.253-1.089-0.535-1.698-0.866c-0.62-0.315-1.308-0.63-2.009-1
					c-0.705-0.362-1.473-0.708-2.235-1.119c-0.766-0.411-1.558-0.835-2.363-1.266c-0.805-0.436-1.651-0.826-2.484-1.245
					c-1.697-0.773-3.411-1.521-5.046-2.156c-1.631-0.647-3.172-1.211-4.497-1.688c-2.658-0.933-4.462-1.465-4.462-1.465
					L243.699,374.078z"/>
			</g>
			<g>
				<path class="st10" d="M296.043,386.181c0,0,0.581-0.472,1.65-1.219c0.537-0.371,1.193-0.815,1.963-1.297
					c0.763-0.496,1.649-1.01,2.614-1.578c0.977-0.544,2.03-1.149,3.176-1.725c1.131-0.61,2.365-1.165,3.632-1.762
					c1.27-0.59,2.61-1.137,3.961-1.721c1.372-0.526,2.755-1.1,4.162-1.603c1.411-0.492,2.81-1.029,4.211-1.478
					c1.4-0.456,2.781-0.903,4.133-1.273c1.361-0.338,2.681-0.65,3.94-0.908c1.262-0.244,2.464-0.43,3.572-0.6
					c2.212-0.364,4.085-0.481,5.391-0.565c1.305-0.092,2.054-0.107,2.054-0.107l0.031,0.198c0,0-0.713,0.243-1.966,0.603
					c-0.625,0.191-1.386,0.404-2.259,0.636c-0.877,0.214-1.855,0.507-2.925,0.802c-1.068,0.302-2.232,0.596-3.458,0.917
					c-1.217,0.361-2.508,0.702-3.848,1.039c-1.346,0.314-2.714,0.722-4.129,1.054c-1.414,0.337-2.814,0.8-4.236,1.199
					c-1.413,0.425-2.802,0.922-4.185,1.373c-1.36,0.507-2.712,0.981-3.995,1.5c-2.57,1.029-4.938,2.072-6.936,3.039
					c-0.991,0.497-1.905,0.947-2.691,1.387c-0.795,0.427-1.474,0.822-2.031,1.154c-1.11,0.669-1.713,1.095-1.713,1.095
					L296.043,386.181z"/>
			</g>
			<g>
				<path class="st10" d="M338.054,376.408c0,0-1.659,0.288-4.146,0.72c-2.478,0.478-5.781,1.093-9.036,1.879
					c-1.631,0.379-3.225,0.893-4.737,1.27c-0.754,0.193-1.486,0.364-2.192,0.492c-0.694,0.161-1.356,0.296-1.974,0.406
					c-0.61,0.132-1.173,0.243-1.678,0.335c-0.51,0.08-0.941,0.184-1.308,0.247c-0.73,0.136-1.168,0.183-1.168,0.183l-0.079-0.184
					c0,0,0.345-0.262,0.985-0.667c0.32-0.202,0.711-0.452,1.18-0.682c0.468-0.232,0.997-0.505,1.589-0.759
					c0.593-0.246,1.243-0.496,1.937-0.744c0.694-0.238,1.439-0.449,2.213-0.651c0.78-0.169,1.592-0.322,2.42-0.446
					c0.827-0.122,1.668-0.247,2.508-0.371c3.357-0.488,6.718-0.856,9.249-1.014c2.528-0.181,4.218-0.213,4.218-0.213
					L338.054,376.408z"/>
			</g>
			<g>
				<path class="st10" d="M106.133,336.287c0,0,2.831,0.211,7.059,0.716c2.114,0.252,4.58,0.564,7.209,0.985
					c2.633,0.4,5.432,0.884,8.227,1.392c1.398,0.258,2.796,0.516,4.172,0.77c1.379,0.244,2.721,0.554,4.025,0.83
					c1.297,0.306,2.54,0.65,3.712,0.995c1.177,0.329,2.276,0.69,3.288,1.03c2.027,0.67,3.692,1.305,4.841,1.801
					c1.156,0.47,1.805,0.775,1.805,0.775l-0.056,0.192c0,0-0.714-0.083-1.942-0.29c-0.617-0.093-1.361-0.224-2.21-0.386
					c-0.848-0.162-1.805-0.346-2.849-0.545c-1.038-0.217-2.163-0.452-3.352-0.701c-1.192-0.237-2.433-0.545-3.722-0.844
					c-2.568-0.643-5.29-1.406-8.041-2.06c-5.498-1.32-11.044-2.44-15.213-3.251c-4.171-0.8-6.974-1.209-6.974-1.209L106.133,336.287
					z"/>
			</g>
			<g>
				<path class="st10" d="M115.518,327.529c0,0,2.212,0.006,5.526,0.151c3.317,0.116,7.727,0.483,12.131,0.937
					c1.102,0.114,2.203,0.228,3.288,0.34c1.087,0.1,2.148,0.262,3.177,0.398c1.025,0.166,2.009,0.366,2.937,0.58
					c0.931,0.199,1.804,0.428,2.607,0.649c1.607,0.435,2.931,0.862,3.845,1.216c0.919,0.328,1.435,0.551,1.435,0.551l-0.042,0.196
					c0,0-0.564,0.002-1.536-0.058c-0.488-0.019-1.076-0.06-1.748-0.12c-0.67-0.066-1.431-0.117-2.252-0.213
					c-0.823-0.085-1.709-0.2-2.648-0.316c-0.94-0.105-1.922-0.27-2.939-0.43c-2.027-0.362-4.178-0.835-6.346-1.21
					c-4.335-0.762-8.697-1.369-11.972-1.825c-3.278-0.443-5.474-0.649-5.474-0.649L115.518,327.529z"/>
			</g>
			<g>
				<path class="st10" d="M403.071,349.065c0,0,2.023-0.509,5.086-1.138c3.059-0.654,7.167-1.382,11.299-2.005
					c2.067-0.296,4.132-0.661,6.087-0.836c0.979-0.067,1.924-0.141,2.827-0.129c0.902-0.007,1.753-0.011,2.54,0.029
					c1.576,0.075,2.885,0.189,3.801,0.343c0.915,0.134,1.434,0.246,1.434,0.246l-0.001,0.2c0,0-0.521,0.121-1.426,0.271
					c-0.452,0.069-1,0.153-1.629,0.249c-0.628,0.094-1.336,0.202-2.107,0.29c-1.543,0.209-3.339,0.415-5.27,0.579
					c-0.967,0.058-1.967,0.128-2.987,0.162c-1.02,0.038-2.053,0.125-3.088,0.187c-4.137,0.31-8.264,0.784-11.366,1.118
					c-3.097,0.379-5.162,0.631-5.162,0.631L403.071,349.065z"/>
			</g>
			<g>
				<path class="st10" d="M427.604,353.816c0,0,1.084-0.24,2.72-0.527c1.634-0.312,3.826-0.622,6.024-0.917
					c1.1-0.136,2.197-0.356,3.236-0.421c1.039-0.045,2.014,0.025,2.849,0.138c1.671,0.206,2.776,0.66,2.776,0.66v0.2
					c0,0-0.276,0.119-0.755,0.265c-0.479,0.149-1.162,0.32-1.979,0.474c-0.818,0.157-1.77,0.291-2.795,0.344
					c-1.026,0.027-2.129-0.067-3.229-0.064c-4.412,0.023-8.825,0.047-8.825,0.047L427.604,353.816z"/>
			</g>
		</g>
		<g>
			<defs>
				<path id="SVGID_3_" d="M263.901,392.861l3.13,4.629c0.662,0.979,1.768,1.566,2.95,1.566h28.488c2.004,0,3.877-0.996,4.998-2.657
					l3.719-5.512c1.991-2.951,5.118-4.941,8.634-5.495l136.448-21.499c7.363-1.16,11.175,8.48,5.01,12.669l-137.716,93.581
					l-140.753-12.085L75.136,425.206c-6.021-1.908-9.5-8.191-7.921-14.307l15.702-60.831c1.522-5.897,7.578-9.407,13.452-7.797
					l157.004,43.044C257.669,386.494,261.404,389.17,263.901,392.861z"/>
			</defs>
			<use xlink:href="#SVGID_3_"  style="overflow:visible;fill:#575F7F;"/>
			<clipPath id="SVGID_4_">
				<use xlink:href="#SVGID_3_"  style="overflow:visible;"/>
			</clipPath>
			<path class="st11" d="M261.788,400.144l3.395,4.715c0.669,0.929,1.745,1.48,2.89,1.48h29.838c2.573,0,4.99-1.239,6.491-3.329
				l3.477-4.84c2.12-2.951,5.45-4.941,9.194-5.495l145.29-21.499c7.84-1.16,11.899,8.48,5.335,12.669l-146.64,93.581
				l-149.874-12.085L60.791,432.489c-6.411-1.908-10.115-8.191-8.434-14.306l16.719-60.831c1.621-5.897,8.069-9.407,14.323-7.797
				l167.178,43.044C255.153,393.776,259.129,396.453,261.788,400.144z"/>
			<use xlink:href="#SVGID_3_"  style="overflow:visible;fill:none;stroke:#6E7DAA;stroke-width:2;stroke-miterlimit:10;"/>
		</g>
		<g>
			<g>
				<path class="st12" d="M313.245,397.634c0,0-0.6,0.999-1.686,2.718c-0.549,0.854-1.216,1.891-1.982,3.081
					c-0.386,0.592-0.798,1.222-1.231,1.885c-0.437,0.661-1.033,1.246-1.553,1.939c-4.339,5.398-10.123,12.596-15.908,19.793
					c-5.785,7.198-11.569,14.395-15.908,19.793c-0.568,0.655-1.004,1.368-1.57,1.926c-0.555,0.566-1.082,1.103-1.576,1.608
					c-0.996,1.004-1.865,1.879-2.581,2.6c-1.453,1.424-2.283,2.237-2.283,2.237s0.616-0.986,1.694-2.711
					c0.55-0.854,1.218-1.89,1.984-3.079c0.386-0.592,0.798-1.222,1.231-1.885c0.423-0.672,1.026-1.252,1.543-1.947
					c4.339-5.398,10.123-12.596,15.908-19.793c5.785-7.198,11.569-14.395,15.908-19.793c0.565-0.657,1.008-1.365,1.56-1.934
					c0.555-0.566,1.082-1.103,1.577-1.608c0.997-1.003,1.867-1.878,2.583-2.598C312.398,398.435,313.245,397.634,313.245,397.634z"
					/>
			</g>
			<g>
				<path class="st12" d="M252.585,406.012c0,0-0.328,0.69-0.94,1.87c-0.307,0.589-0.679,1.305-1.127,2.11
					c-0.222,0.404-0.457,0.835-0.706,1.288c-0.252,0.451-0.656,0.819-0.974,1.282c-2.725,3.565-6.358,8.319-9.992,13.073
					c-3.633,4.754-7.267,9.508-9.992,13.073c-0.366,0.426-0.608,0.918-0.991,1.268c-0.372,0.359-0.726,0.699-1.058,1.019
					c-0.671,0.634-1.256,1.188-1.738,1.643c-0.975,0.902-1.549,1.404-1.549,1.404s0.334-0.686,0.948-1.864
					c0.313-0.584,0.693-1.294,1.129-2.108c0.221-0.404,0.457-0.835,0.706-1.288c0.238-0.462,0.649-0.824,0.964-1.29
					c2.725-3.565,6.358-8.319,9.992-13.073c3.633-4.754,7.267-9.508,9.992-13.073c0.363-0.428,0.612-0.915,0.981-1.276
					c0.372-0.359,0.726-0.699,1.058-1.019c0.659-0.644,1.252-1.191,1.74-1.641C252.005,406.51,252.585,406.012,252.585,406.012z"/>
			</g>
		</g>
		<path class="st4" d="M252.585,438.865c-16.195,0-65.664-46.91-102.34-35.541c-9.772,3.029-14.893,13.661-11.11,23.167
			c7.025,17.651,30.491,46.776,108.629,55.027c0,0,127.246,16.35,156.392-9.952c0,0,20.438-20.104,15.461-62.757l-9.55-0.166
			l-51.408,35.401l-72.509,5.485c0,0,18.494-27.475,9.952-36.255C290.178,407.184,267.031,433.626,252.585,438.865z"/>
		<polygon class="st4" points="182.836,227.782 209.302,276.075 238.167,304.862 283.909,307.043 304.767,281.394 310.307,241.476 
			304.767,227.782 247.147,209.995 209.302,215.193 		"/>
		<path class="st13" d="M257.995,301.408c11.233,2.102,25.269-2.674,31.089-8.932c5.088-5.471,9.767-13.114,9.863-24.718
			c0.242-29.01-2.844-44.248-2.844-44.248s9.215-0.953,14.204,5.191c0,0,27.737,80.074-39.085,89.316
			c-66.822,9.241-99.58-89.105-99.58-89.105s7.145-7.992,14.424-10.246c1.883-0.583,3.9,0.596,4.435,2.493
			C194.465,235.225,213.351,293.054,257.995,301.408z"/>
		<circle class="st14" cx="290.63" cy="248.351" r="8.317"/>
		<g>
			<circle class="st14" cx="200.984" cy="215.193" r="8.317"/>
			<circle class="st14" cx="287.786" cy="223.51" r="8.317"/>
		</g>
		<path class="st4" d="M277.621,260.436c0,0,4.265-11.374,3.554-19.904l14.928-31.278l-98.1-9.241v30.212l21.326,26.658
			l21.326,14.344l26.302,4.85l17.061-10.663L277.621,260.436z"/>
		<circle class="st14" cx="198.003" cy="226.445" r="8.317"/>
		<circle class="st14" cx="293.042" cy="233.159" r="8.317"/>
		<circle class="st14" cx="204.258" cy="238.043" r="8.317"/>
		<path class="st4" d="M346.171,177.244c25.387,2.511,39.809-55.691,14.822-58.162c-5.747-0.568-10.866,3.234-15.342,9.426
			L346.171,177.244z"/>
		
			<ellipse transform="matrix(0.9974 0.0725 -0.0725 0.9974 11.5082 -17.9249)" class="st4" cx="252.585" cy="149.509" rx="101.798" ry="79.262"/>
		<path class="st4" d="M252.585,200.012c15.794,12.796,42.096,5.422,25.956-23.459"/>
		<path class="st4" d="M218.704,206.058c0,0,12.358,14.193,46.472,14.267c28.794,0.063,36.183-10.716,36.183-10.716"/>
		<path d="M214.533,172.041c4.95,0.202,18.533,0.313,32.006-3.515c0.183-0.052,0.332,0.146,0.227,0.305
			c-1.108,1.672-5.344,7.419-11.427,7.722c-5.613,0.28-16.512-2.75-20.883-4.047C214.187,172.426,214.253,172.029,214.533,172.041z"
			/>
		<path class="st7" d="M244.21,160.558c0,0,3.554,3.199,2.843,7.82"/>
		<path d="M288.437,173.78c3.753,0.202,14.05,0.313,24.263-3.515c0.139-0.052,0.252,0.146,0.172,0.305
			c-0.84,1.672-4.051,7.419-8.663,7.722c-4.255,0.28-12.517-2.75-15.831-4.047C288.175,174.165,288.225,173.769,288.437,173.78z"/>
		<path class="st7" d="M310.307,162.298c0,0,3.554,3.199,2.843,7.82"/>
		<path class="st7" d="M215.201,149.509c0,0,11.947-9.211,22.966-7.789"/>
		<path class="st7" d="M310.307,149.509c0,0-8.982-9.211-17.266-7.789"/>
		<path class="st4" d="M162.459,178.311c-32.7,0-43.753-59.339-11.569-59.339c7.403,0,13.453,4.287,18.38,10.89"/>
		<path class="st0" d="M146.025,117.536c0.028,0.579,0.622,0.946,1.164,0.738c2.563-0.985,10.638-1.367,33.753,12.072
			c29.476,17.137,60.67-19.267,104.738-26.988c4.74-0.831,9.108-3.267,11.949-7.151c2.257-3.086,3.949-7.183,2.945-12.067
			c0,0,13.962,31.319,41.025,34.833c0,0,9.534,10.912,12.069,19.04c0.18,0.576,1.013,0.496,1.092-0.102v0
			c1.631-12.463,0.406-25.133-3.582-37.052l-4.566-13.647c-3.718-11.111-10.893-20.742-20.477-27.483l-15.828-11.133
			c0,0-10.934-9.241-19.678-4.265l-0.583-0.514c-7.708-6.8-17.88-10.093-28.113-9.122C225.673,38.136,142.88,53.057,146.025,117.536
			z"/>
		<g>
			<g>
				<path class="st15" d="M201.032,62.375c0,0-4.332,2.277-10.372,6.409c-3.014,2.071-6.445,4.607-9.985,7.484
					c-1.756,1.454-3.55,2.982-5.302,4.609c-1.768,1.609-3.489,3.322-5.162,5.075c-0.843,0.87-1.627,1.795-2.439,2.685
					c-0.781,0.918-1.554,1.836-2.304,2.757c-1.465,1.872-2.886,3.728-4.139,5.604c-1.31,1.837-2.459,3.691-3.505,5.47
					c-0.514,0.895-1.042,1.754-1.461,2.63c-0.434,0.868-0.924,1.679-1.271,2.511c-0.378,0.821-0.74,1.608-1.084,2.356
					c-0.304,0.767-0.593,1.494-0.864,2.178c-0.292,0.679-0.477,1.343-0.678,1.949c-0.208,0.606-0.4,1.162-0.572,1.665
					c-0.554,2.047-0.899,3.231-0.899,3.231l-0.211-0.032c0,0,0.1-1.22,0.378-3.367c0.211-1.055,0.405-2.364,0.818-3.814
					c0.205-0.728,0.422-1.502,0.652-2.318c0.265-0.804,0.567-1.644,0.891-2.518c0.674-1.735,1.484-3.591,2.497-5.471
					c0.465-0.965,1.043-1.896,1.624-2.855c0.56-0.973,1.216-1.91,1.859-2.879c1.338-1.903,2.832-3.785,4.423-5.627
					c0.807-0.911,1.634-1.816,2.47-2.718c0.865-0.873,1.702-1.781,2.596-2.63c1.759-1.727,3.561-3.406,5.404-4.977
					c1.828-1.589,3.69-3.073,5.511-4.482c1.838-1.386,3.623-2.715,5.373-3.891c1.736-1.196,3.417-2.267,4.971-3.248
					c6.247-3.884,10.685-5.975,10.685-5.975L201.032,62.375z"/>
			</g>
			<g>
				<path class="st15" d="M206.908,82.111c0,0-0.992,0.237-2.694,0.778c-0.853,0.26-1.877,0.619-3.05,1.026
					c-1.161,0.443-2.485,0.903-3.889,1.508c-1.42,0.563-2.928,1.246-4.513,1.985c-1.593,0.719-3.221,1.588-4.926,2.435
					c-0.831,0.465-1.676,0.938-2.531,1.417c-0.859,0.472-1.721,0.959-2.558,1.506c-1.695,1.058-3.424,2.117-5.053,3.325
					c-0.823,0.591-1.656,1.166-2.465,1.766c-0.782,0.635-1.562,1.267-2.335,1.895c-0.76,0.642-1.56,1.223-2.27,1.891
					c-0.721,0.654-1.434,1.3-2.134,1.936c-0.701,0.633-1.453,1.191-2.078,1.854c-0.642,0.645-1.274,1.271-1.905,1.867
					c-0.627,0.601-1.237,1.185-1.827,1.75c-0.553,0.601-1.087,1.182-1.6,1.739c-1.014,1.126-2.012,2.11-2.822,3.045
					c-0.778,0.959-1.468,1.792-2.051,2.47c-1.147,1.369-1.841,2.137-1.841,2.137l-0.179-0.116c0,0,0.487-0.901,1.406-2.452
					c0.45-0.782,1.014-1.723,1.676-2.798c0.699-1.045,1.578-2.16,2.516-3.397c0.475-0.615,0.971-1.255,1.483-1.918
					c0.569-0.614,1.157-1.248,1.761-1.9c1.201-1.315,2.504-2.671,3.978-3.936c0.737-0.631,1.487-1.273,2.246-1.923
					c0.741-0.671,1.604-1.21,2.413-1.826c0.821-0.6,1.649-1.205,2.48-1.812c0.853-0.575,1.729-1.124,2.593-1.687
					c1.706-1.163,3.506-2.172,5.267-3.178c0.87-0.521,1.764-0.982,2.653-1.426c0.885-0.451,1.758-0.896,2.618-1.334
					c1.763-0.784,3.431-1.617,5.081-2.252c1.638-0.662,3.191-1.27,4.651-1.762c1.443-0.535,2.801-0.928,3.989-1.312
					c1.201-0.347,2.246-0.654,3.117-0.87c1.735-0.454,2.745-0.64,2.745-0.64L206.908,82.111z"/>
			</g>
			<g>
				<path class="st15" d="M160.003,120.027c0,0,0.386-0.409,1.16-0.993c0.773-0.584,1.953-1.334,3.482-2.012
					c0.761-0.349,1.613-0.662,2.529-0.952c0.914-0.291,1.922-0.499,2.915-0.714c1.996-0.429,4.108-0.939,6.184-1.545
					c1.036-0.309,2.064-0.64,3.062-1.002c0.992-0.37,1.969-0.735,2.914-1.088c1.902-0.682,3.676-1.319,5.198-1.865
					c0.766-0.279,1.468-0.535,2.091-0.762c0.631-0.221,1.181-0.413,1.634-0.572c0.904-0.329,1.444-0.484,1.444-0.484l0.105,0.186
					c0,0-0.419,0.37-1.194,0.96c-0.764,0.61-1.918,1.384-3.362,2.22c-1.448,0.825-3.199,1.695-5.162,2.407
					c-0.992,0.325-2.02,0.65-3.085,0.909c-1.064,0.258-2.141,0.524-3.227,0.745c-2.167,0.464-4.345,0.824-6.387,1.109
					c-2.032,0.262-3.847,0.615-5.381,1.155c-1.533,0.509-2.734,1.141-3.549,1.618c-0.815,0.486-1.225,0.835-1.225,0.835
					L160.003,120.027z"/>
			</g>
			<g>
				<path class="st15" d="M276.433,46.182c0,0,0.435,0.066,1.171,0.278c0.369,0.103,0.812,0.249,1.312,0.438
					c0.496,0.198,1.06,0.42,1.647,0.723c0.607,0.269,1.21,0.658,1.874,1.035c0.32,0.206,0.634,0.441,0.961,0.674
					c0.333,0.227,0.658,0.476,0.966,0.759c0.317,0.275,0.639,0.554,0.964,0.836c0.298,0.313,0.599,0.63,0.902,0.95
					c0.642,0.616,1.124,1.379,1.687,2.087c0.518,0.737,0.95,1.532,1.426,2.292c0.381,0.802,0.761,1.6,1.063,2.395
					c0.221,0.818,0.418,1.615,0.562,2.376c0.131,0.762,0.143,1.497,0.184,2.166c0.044,0.669,0.05,1.281-0.025,1.824
					c-0.057,0.542-0.115,1.012-0.174,1.397c-0.115,0.769-0.219,1.2-0.219,1.2l-0.213,0c0,0-0.145-0.432-0.332-1.172
					c-0.096-0.37-0.198-0.817-0.304-1.326c-0.067-0.253-0.084-0.527-0.172-0.806c-0.084-0.279-0.173-0.572-0.249-0.877
					c-0.181-0.606-0.304-1.274-0.508-1.956c-0.244-0.672-0.457-1.385-0.658-2.13c-0.259-0.722-0.525-1.468-0.765-2.249
					c-0.333-0.733-0.66-1.496-1.056-2.221c-0.455-0.685-0.831-1.439-1.369-2.055c-0.253-0.323-0.504-0.642-0.753-0.959
					c-0.279-0.291-0.554-0.578-0.825-0.86c-0.523-0.59-1.147-1.031-1.678-1.525c-0.582-0.427-1.114-0.87-1.662-1.193
					c-0.528-0.358-1.043-0.634-1.499-0.883c-0.461-0.237-0.872-0.433-1.213-0.584c-0.685-0.304-1.095-0.426-1.095-0.426
					L276.433,46.182z"/>
			</g>
			<g>
				<path class="st15" d="M320.531,70.035c0,0,2.636,2.807,6.299,7.277c0.913,1.12,1.895,2.338,2.91,3.648
					c1.022,1.304,2.058,2.711,3.117,4.177c2.115,2.934,4.281,6.136,6.273,9.459c1,1.659,1.969,3.339,2.866,5.031
					c0.924,1.677,1.713,3.396,2.436,5.08c0.697,1.695,1.26,3.386,1.702,5.017c0.193,0.824,0.38,1.626,0.561,2.402
					c0.12,0.792,0.249,1.552,0.345,2.286c0.063,0.742,0.123,1.45,0.151,2.125c-0.01,0.677-0.02,1.32-0.029,1.924
					c-0.071,0.6-0.137,1.162-0.198,1.681c-0.051,0.517-0.223,0.98-0.312,1.399c-0.178,0.843-0.46,1.466-0.631,1.89
					c-0.175,0.421-0.268,0.645-0.268,0.645l-0.201-0.072c0,0,0.039-0.237,0.112-0.682c0.06-0.446,0.237-1.071,0.249-1.905
					c0.085-0.819,0.041-1.821,0.003-2.954c-0.063-0.566-0.13-1.168-0.201-1.803c-0.114-0.628-0.234-1.289-0.359-1.978
					c-0.167-0.681-0.342-1.391-0.522-2.125c-0.219-0.726-0.444-1.476-0.677-2.247c-0.533-1.525-1.104-3.129-1.782-4.765
					c-0.647-1.647-1.379-3.33-2.166-5.027c-0.77-1.705-1.657-3.392-2.557-5.073c-3.648-6.709-8.043-13.014-11.41-17.676
					c-3.396-4.649-5.868-7.593-5.868-7.593L320.531,70.035z"/>
			</g>
			<g>
				<path class="st15" d="M279.484,77.103c0,0,1.752,0.108,4.328,0.684c0.642,0.149,1.339,0.316,2.068,0.531
					c0.733,0.201,1.488,0.48,2.268,0.779c1.551,0.617,3.175,1.435,4.642,2.579c0.729,0.58,1.412,1.241,2.005,1.996
					c0.569,0.765,1.073,1.616,1.303,2.537c0.269,0.908,0.287,1.833,0.213,2.673c-0.075,0.411-0.148,0.811-0.219,1.197
					c-0.126,0.364-0.247,0.716-0.364,1.053c-0.116,0.334-0.293,0.623-0.433,0.908c-0.144,0.283-0.277,0.549-0.449,0.773
					c-0.323,0.458-0.576,0.865-0.858,1.15c-0.529,0.592-0.856,0.896-0.856,0.896l-0.179-0.116c0,0,0.118-0.442,0.369-1.156
					c0.14-0.351,0.235-0.804,0.389-1.291c0.162-0.485,0.248-1.054,0.379-1.641c0.039-0.295,0.08-0.603,0.122-0.922
					c0.013-0.311,0.026-0.633,0.039-0.964c-0.055-0.65-0.091-1.318-0.296-1.976c-0.144-0.672-0.452-1.328-0.808-1.993
					c-0.38-0.656-0.9-1.263-1.473-1.835c-1.182-1.114-2.616-2.024-4.033-2.742c-1.425-0.709-2.82-1.277-4.038-1.708
					c-2.446-0.843-4.15-1.203-4.15-1.203L279.484,77.103z"/>
			</g>
			<g>
				<path class="st15" d="M295.206,51.556c0,0,0.499-0.99,1.602-2.239c0.286-0.302,0.581-0.65,0.944-0.968
					c0.342-0.344,0.754-0.646,1.184-0.963c0.429-0.316,0.917-0.589,1.414-0.865c0.523-0.226,1.042-0.51,1.619-0.649
					c0.283-0.084,0.566-0.183,0.855-0.252c0.295-0.048,0.589-0.096,0.881-0.143c0.589-0.14,1.177-0.07,1.746-0.045
					c0.286,0.017,0.558,0.073,0.815,0.165c0.26,0.078,0.513,0.159,0.753,0.252c0.498,0.14,0.891,0.436,1.269,0.66
					c0.37,0.238,0.712,0.444,0.956,0.71c0.254,0.251,0.466,0.474,0.631,0.667c0.333,0.38,0.491,0.623,0.491,0.623l-0.123,0.174
					c0,0-0.303-0.038-0.775-0.149c-0.237-0.053-0.515-0.128-0.822-0.22c-0.296-0.119-0.668-0.143-1.033-0.237
					c-0.376-0.064-0.752-0.222-1.173-0.247c-0.42-0.02-0.832-0.184-1.276-0.194c-0.438-0.027-0.89-0.178-1.361-0.163l-0.718-0.027
					c-0.24,0.016-0.48,0.059-0.723,0.086c-0.493,0.036-0.959,0.217-1.438,0.338c-0.46,0.175-0.924,0.347-1.348,0.572
					c-0.857,0.434-1.617,0.951-2.25,1.427c-1.247,0.983-1.948,1.808-1.948,1.808L295.206,51.556z"/>
			</g>
			<g>
				<path class="st15" d="M335.989,77.134c0,0,0.707,0.683,1.824,1.982c0.541,0.663,1.216,1.457,1.919,2.422
					c0.74,0.94,1.474,2.069,2.313,3.278c0.761,1.256,1.667,2.575,2.457,4.066c0.406,0.74,0.823,1.5,1.25,2.276
					c0.387,0.797,0.782,1.611,1.184,2.44c0.201,0.415,0.404,0.833,0.608,1.254c0.182,0.43,0.366,0.864,0.551,1.3
					c0.369,0.874,0.743,1.758,1.12,2.649c0.686,1.808,1.359,3.657,1.993,5.519c0.557,1.885,1.184,3.755,1.677,5.629
					c0.467,1.879,0.94,3.732,1.303,5.542c0.293,1.823,0.56,3.588,0.772,5.266c0.185,1.681,0.252,3.281,0.343,4.751
					c0.093,1.471,0.153,2.819,0.103,4.018c-0.025,1.198-0.058,2.241-0.103,3.099c-0.065,1.715-0.142,2.691-0.142,2.691l-0.213,0.004
					c0,0-0.169-0.972-0.394-2.665c-0.125-0.846-0.255-1.873-0.392-3.049c-0.102-1.179-0.337-2.496-0.557-3.933
					c-0.235-1.435-0.419-2.997-0.689-4.635c-0.324-1.631-0.621-3.354-0.912-5.14c-0.3-1.784-0.729-3.604-1.06-5.478
					c-0.369-1.866-0.913-3.721-1.368-5.601c-0.547-1.852-1.135-3.696-1.736-5.502c-0.335-0.891-0.667-1.776-0.995-2.649
					c-0.164-0.437-0.328-0.872-0.49-1.303c-0.184-0.422-0.366-0.841-0.548-1.257c-0.362-0.832-0.719-1.651-1.068-2.452
					c-0.384-0.785-0.76-1.552-1.126-2.3c-0.698-1.515-1.519-2.86-2.205-4.145c-0.763-1.237-1.429-2.397-2.109-3.365
					c-0.644-0.994-1.268-1.815-1.769-2.503c-1.037-1.348-1.697-2.059-1.697-2.059L335.989,77.134z"/>
			</g>
		</g>
		<circle class="st14" cx="215.201" cy="251.455" r="8.317"/>
		<circle class="st14" cx="227.022" cy="264.759" r="8.317"/>
		<circle class="st14" cx="242.016" cy="271.225" r="8.317"/>
		<circle class="st14" cx="284.725" cy="262.908" r="8.317"/>
		<circle class="st14" cx="276.407" cy="273.077" r="8.317"/>
		<circle class="st14" cx="258.65" cy="276.075" r="8.317"/>
	</g>
</g>
</svg>
