<?xml version="1.0" encoding="utf-8"?>
<!-- Generator: Adobe Illustrator 18.1.1, SVG Export Plug-In . SVG Version: 6.00 Build 0)  -->
<svg version="1.1" id="Layer_1" xmlns="http://www.w3.org/2000/svg" xmlns:xlink="http://www.w3.org/1999/xlink" x="0px" y="0px"
	 width="500px" height="500px" viewBox="0 0 500 500" enable-background="new 0 0 500 500" xml:space="preserve">
<symbol  id="New_Symbol" viewBox="-3.3 -1.6 6.5 3.2">
	<path fill="#6D6E72" stroke="#3F3E40" stroke-miterlimit="10" d="M2.6-1.1c0,0-5.2,0-5.3,1C-3,1.2,1.9,1.1,1.9,1.1L2.6-1.1z"/>
</symbol>
<symbol  id="New_Symbol_1" viewBox="-1.8 -2.9 3.6 5.8">
	<path fill="#6D6E72" stroke="#3F3E40" stroke-miterlimit="10" d="M-1.1,1.9L-1.1,1.9c0.4,0.5,1,0.6,1.5,0.4l0,0
		C0.6,2.2,0.8,2,0.8,1.7C1.1,0.7,1.7-2,1-2.4C0.4-2.7-0.8-0.1-1.2,1C-1.4,1.3-1.3,1.7-1.1,1.9z"/>
</symbol>
<symbol  id="New_Symbol_5" viewBox="-9.9 -10.3 19.8 20.6">
	<g>
		<g>
			<g>
				<g>
					<g>
						<g>
							<path fill="#FFFFFF" d="M9.8,10.3c0,0,0-0.7,0.1-2c0-0.6,0-1.4,0-2.3c0-0.4-0.1-0.9-0.1-1.4c-0.1-0.5-0.1-1-0.2-1.6
								C9.5,2,9.3,0.8,9-0.4C8.6-1.7,8.2-3,7.6-4.3C7-5.6,6.2-6.9,5.1-8C4-9.2,2.3-10.2,0.3-10.3l-0.7,0l-0.3,0c-0.1,0-0.2,0-0.3,0
								c-0.3,0.1-0.5,0.1-0.8,0.2C-2-10-2.3-9.9-2.5-9.8c-0.9,0.4-1.6,0.9-2.3,1.4C-6.1-7.3-7-6-7.7-4.7C-8.5-3.4-8.9-2-9.2-0.7
								c-0.3,1.3-0.5,2.5-0.6,3.6C-9.9,4-9.9,5.1-9.8,6c0,0.9,0.2,1.7,0.3,2.3c0.2,1.3,0.5,2,0.5,2h0.4c0,0,0.3-0.7,0.6-1.9
								C-8,7.8-7.8,7-7.5,6.2c0.1-0.4,0.2-0.8,0.4-1.3C-7,4.5-6.8,4-6.7,3.5c0.3-1,0.7-2,1.1-3.1c0.5-1,0.9-2.1,1.5-3.2
								c0.5-1.1,1.1-2.1,1.9-2.9C-1.8-6-1.4-6.4-1-6.6c0.1-0.1,0.2-0.1,0.3-0.1c0.1,0,0.2-0.1,0.2-0.1c0,0,0.1,0,0.2-0.1L0-7l0.3,0
								l0.1,0l0.1,0l0,0l0,0c-0.1,0,0.2,0-0.1,0C1.3-7.2,2.3-6.7,3.2-6c0.9,0.7,1.7,1.8,2.3,2.8C6.2-2.1,6.7-1,7.2,0.1
								c0.4,1.1,0.8,2.2,1.1,3.2c0.1,0.5,0.2,1,0.4,1.5c0.1,0.5,0.2,0.9,0.3,1.3C9,7,9.1,7.7,9.2,8.3c0.1,1.2,0.2,2,0.2,2L9.8,10.3z
								"/>
						</g>
					</g>
				</g>
			</g>
		</g>
	</g>
</symbol>
<symbol  id="New_Symbol_6" viewBox="-34.9 -34.9 69.7 69.7">
	<g>
		
			<use xlink:href="#New_Symbol_5"  width="19.8" height="20.6" id="XMLID_18_" x="-9.9" y="-10.3" transform="matrix(0.473 0 0 -0.798 -2.812719e-05 -26.6316)" overflow="visible"/>
		
			<use xlink:href="#New_Symbol_5"  width="19.8" height="20.6" id="XMLID_17_" x="-9.9" y="-10.3" transform="matrix(0.473 0 0 0.798 -2.812719e-05 26.6314)" overflow="visible"/>
	</g>
	<g>
		
			<use xlink:href="#New_Symbol_5"  width="19.8" height="20.6" x="-9.9" y="-10.3" transform="matrix(0.3344 -0.3344 -0.5643 -0.5643 -18.87 -18.7927)" overflow="visible"/>
		
			<use xlink:href="#New_Symbol_5"  width="19.8" height="20.6" x="-9.9" y="-10.3" transform="matrix(0.3344 -0.3344 0.5643 0.5643 18.7927 18.87)" overflow="visible"/>
	</g>
	<g>
		
			<use xlink:href="#New_Symbol_5"  width="19.8" height="20.6" x="-9.9" y="-10.3" transform="matrix(2.123443e-11 -0.473 -0.798 -3.582770e-11 -26.6315 5.625322e-05)" overflow="visible"/>
		
			<use xlink:href="#New_Symbol_5"  width="19.8" height="20.6" x="-9.9" y="-10.3" transform="matrix(2.123443e-11 -0.473 0.798 3.582770e-11 26.6315 5.625561e-05)" overflow="visible"/>
	</g>
	<g>
		
			<use xlink:href="#New_Symbol_5"  width="19.8" height="20.6" x="-9.9" y="-10.3" transform="matrix(-0.3344 -0.3344 -0.5643 0.5643 -18.7927 18.87)" overflow="visible"/>
		
			<use xlink:href="#New_Symbol_5"  width="19.8" height="20.6" id="XMLID_16_" x="-9.9" y="-10.3" transform="matrix(-0.3344 -0.3344 0.5643 -0.5643 18.87 -18.7927)" overflow="visible"/>
	</g>
</symbol>
<g>
	<rect fill="#FFD254" width="500" height="500"/>
	<g>
		
			<use xlink:href="#New_Symbol"  width="6.5" height="3.2" x="-3.3" y="-1.6" transform="matrix(2.0314 -0.1445 -0.1445 -2.0314 136.0291 416.7187)" overflow="visible"/>
		
			<use xlink:href="#New_Symbol"  width="6.5" height="3.2" id="XMLID_8_" x="-3.3" y="-1.6" transform="matrix(2.0298 0.1654 0.1654 -2.0298 132.6728 408.5098)" overflow="visible"/>
		
			<use xlink:href="#New_Symbol"  width="6.5" height="3.2" id="XMLID_7_" x="-3.3" y="-1.6" transform="matrix(2.0298 0.1654 0.1654 -2.0298 133.1301 397.8704)" overflow="visible"/>
		
			<use xlink:href="#New_Symbol"  width="6.5" height="3.2" x="-3.3" y="-1.6" transform="matrix(1.9722 0.5078 0.5078 -1.9722 136.0433 388.6825)" overflow="visible"/>
		
			<use xlink:href="#New_Symbol"  width="6.5" height="3.2" x="-3.3" y="-1.6" transform="matrix(2.0168 0.2832 0.2832 -2.0168 138.1065 378.381)" overflow="visible"/>
		
			<use xlink:href="#New_Symbol"  width="6.5" height="3.2" x="-3.3" y="-1.6" transform="matrix(2.036 -4.766412e-02 -4.766412e-02 -2.036 141.4253 370.5226)" overflow="visible"/>
		<g>
			<defs>
				<path id="SVGID_2_" d="M149.2,399.8c0,0,5-11.3,9.9-16.2c7.1-7,14.9-10.7,23.9-18.4c0,0,10.3-5.4,11.2-14.3
					c0.9-8.9,15.5-33.1,16.4-48.4l-34.5-3c0,0-2,36.4-4,46.7c0,0-11.2,1.8-16.9,14.6c-3.6,8.1-10.6,17-10.6,17l-2.7,6.2l1.3,12
					L149.2,399.8z"/>
			</defs>
			<use xlink:href="#SVGID_2_"  overflow="visible" fill="#FBCA9E"/>
			<clipPath id="SVGID_4_">
				<use xlink:href="#SVGID_2_"  overflow="visible"/>
			</clipPath>
			<path clip-path="url(#SVGID_4_)" fill="#30569D" stroke="#5788DB" stroke-width="2.0366" stroke-miterlimit="10" d="M171.3,367.4
				c-3.1,0.3-6.2-1.7-6.9-4.8c0,0,0-0.1,0-0.1c-0.9-4-2-10.5,3.1-14.7l-12.6-3.4L134,378.8l6,27.8l17.1,2.6l35.9-49.3
				C193,359.9,181.1,366.3,171.3,367.4z"/>
			
				<use xlink:href="#SVGID_2_"  overflow="visible" fill="none" stroke="#CF9669" stroke-width="2.0366" stroke-linecap="round" stroke-linejoin="round" stroke-miterlimit="10"/>
		</g>
		<g>
			<path fill="#CF9669" d="M176.3,354.8c0,0-0.2-0.1-0.4-0.4c-0.3-0.3-0.6-0.7-0.9-1.3c-0.3-0.6-0.6-1.3-0.8-2.1
				c-0.2-0.8-0.3-1.6-0.4-2.5c0-0.4,0-0.9-0.1-1.3c0-0.4,0-0.8,0-1.2c0.1-0.8,0.4-1.5,0.6-2.1c0.1-0.3,0.3-0.6,0.4-0.8
				c0.1-0.2,0.3-0.4,0.4-0.6c0.2-0.3,0.4-0.5,0.4-0.5l0.2,0.1c0,0,0.1,0.2,0.1,0.6c0.1,0.4,0.1,0.9,0.1,1.5c0,0.6,0,1.3-0.1,2
				c-0.1,0.4-0.2,0.7-0.2,1.1c-0.1,0.4-0.2,0.8-0.2,1.2c0,0.4-0.1,0.8-0.1,1.2c0,0.4,0,0.8,0,1.1c0,0.4,0.1,0.7,0.1,1
				c0.1,0.3,0.1,0.6,0.2,0.9c0.1,0.6,0.3,1,0.5,1.3c0.2,0.3,0.3,0.5,0.3,0.5L176.3,354.8z"/>
		</g>
		<g>
			<path fill="#CF9669" d="M178.6,361.9c0,0,0.6,0.1,1.5,0c0.9-0.1,2.1-0.3,3.2-0.7c0.5-0.2,1-0.5,1.5-0.8c0.2-0.1,0.5-0.2,0.7-0.3
				c0.2-0.1,0.5-0.2,0.7-0.2c0.2-0.1,0.4-0.1,0.6-0.2c0.2-0.1,0.3-0.1,0.5-0.2c0.3-0.1,0.5-0.1,0.5-0.1l0.1,0.1c0,0,0,0.2-0.2,0.5
				c-0.1,0.3-0.3,0.7-0.7,1.1c-0.2,0.2-0.4,0.4-0.6,0.6c-0.2,0.2-0.5,0.4-0.8,0.5c-0.3,0.1-0.6,0.2-0.9,0.3c-0.3,0.1-0.7,0.1-1,0.2
				c-1.3,0.2-2.7,0.1-3.6-0.1c-0.9-0.2-1.5-0.5-1.5-0.5L178.6,361.9z"/>
		</g>
		<g>
			<path fill="#CF9669" d="M198.8,328.7c0,0,0.2-0.3,0.6-0.8c0.4-0.5,0.9-1.3,1.4-2.2c0.3-0.5,0.5-1,0.8-1.6
				c0.3-0.6,0.6-1.1,0.8-1.8c0.6-1.2,1.1-2.6,1.6-3.9c0.5-1.4,0.9-2.8,1.3-4c0.5-1.3,0.9-2.4,1.4-3.4c0.5-1,0.8-1.8,1.2-2.4
				c0.3-0.6,0.5-0.9,0.5-0.9l0.2,0.1c0,0,0,0.4,0,1c0,0.3-0.1,0.7-0.1,1.2c-0.1,0.4-0.1,1-0.2,1.5c-0.1,0.5-0.2,1.1-0.4,1.7
				c-0.1,0.6-0.4,1.3-0.6,1.9c-0.2,0.6-0.5,1.3-0.8,2c-0.3,0.7-0.6,1.3-0.9,2c-0.6,1.3-1.3,2.7-2,3.9c-0.7,1.2-1.4,2.3-2,3.2
				c-0.6,0.9-1.2,1.6-1.7,2.1c-0.4,0.5-0.7,0.7-0.7,0.7L198.8,328.7z"/>
		</g>
		<path fill="#37372F" stroke="#6E6E64" stroke-width="2.0366" stroke-miterlimit="10" d="M154.5,389.8c0,0-5.4,11.9-5.7,18.2
			s-4.7,13.3-8.9,11.8c-4.2-1.4-11.5-14.7-4.2-33.2c0,0-0.2-13.1,4.9-18.6c0,0,8.2-4.3,10.6,0.2c0,0-6.6,10.9-5.7,15.2
			c0,0,1.7,4.1,4.1,4.6S154.5,389.8,154.5,389.8z"/>
	</g>
	<path fill="#2D1309" stroke="#6B370C" stroke-width="2.0366" stroke-miterlimit="10" d="M216.7,50.7c6.3-2,19.8-4.3,19.4,12
		l-31,13.8c0,0-8.2-1.4-9-6.5c-0.6-3.8,1.6-7.3,2.8-8.9c0.5-0.6,1.1-1.1,1.8-1.4c1.8-0.8,5.6-2,11.6-1.4c0,0-0.1-1,0.2-2.7
		C212.7,53.3,214.4,51.4,216.7,50.7z"/>
	<g>
		<path fill="#6B370C" d="M229.2,63.7c0,0,0-0.2,0-0.7c0-0.4-0.1-1-0.2-1.7c-0.1-0.4-0.1-0.7-0.2-1.1c-0.1-0.4-0.2-0.8-0.4-1.2
			c-0.1-0.2-0.1-0.4-0.2-0.6c-0.1-0.2-0.2-0.4-0.3-0.6c-0.2-0.4-0.5-0.8-0.7-1.2l-0.4-0.5c-0.1-0.2-0.3-0.3-0.5-0.4
			c-0.2-0.1-0.3-0.2-0.5-0.4c-0.2-0.1-0.3-0.2-0.5-0.3c-0.2-0.1-0.3-0.2-0.5-0.3c-0.2-0.1-0.3-0.2-0.5-0.3c-0.3-0.2-0.6-0.3-0.9-0.5
			c-0.3-0.1-0.6-0.3-0.9-0.4c-0.3-0.1-0.5-0.2-0.7-0.2c-0.4-0.2-0.7-0.3-0.7-0.3l0-0.2c0,0,0.2-0.1,0.7-0.2c0.2-0.1,0.5-0.1,0.8-0.2
			c0.3-0.1,0.7,0,1.1,0c0.2,0,0.4,0,0.6,0c0.2,0,0.4,0.1,0.7,0.2c0.2,0.1,0.5,0.1,0.7,0.2c0.2,0.1,0.4,0.3,0.7,0.4
			c0.2,0.2,0.5,0.3,0.6,0.5c0.2,0.2,0.4,0.4,0.5,0.6c0.4,0.4,0.6,0.9,0.9,1.4c0.2,0.5,0.5,1,0.6,1.5c0.1,0.2,0.1,0.5,0.2,0.7
			c0,0.2,0.1,0.5,0.1,0.7c0.2,0.9,0.2,1.8,0.2,2.6c0,1.5-0.3,2.5-0.3,2.5L229.2,63.7z"/>
	</g>
	<g>
		<path fill="#6B370C" d="M222.6,64.6c0,0-0.1-0.4-0.1-1.1c-0.1-0.7-0.2-1.5-0.4-2.4c-0.1-0.4-0.3-0.8-0.4-1.2c0-0.2-0.1-0.3,0-0.5
			c0-0.2,0-0.3,0-0.5c0.1-0.7,0.1-1.2,0.1-1.2l0.2-0.1c0,0,0.2,0,0.4,0.1c0.1,0,0.3,0.1,0.4,0.2c0.1,0.1,0.3,0.2,0.4,0.4
			c0.3,0.3,0.5,0.7,0.6,1.2c0.1,0.5,0,1-0.1,1.4c-0.1,1.9-0.9,3.6-0.9,3.6L222.6,64.6z"/>
	</g>
	<g>
		<path fill="#6B370C" d="M201.5,63.8c0,0,0,0.2,0,0.5c0,0.3,0,0.8,0.1,1.4c0,0.3,0.1,0.6,0.2,0.9c0.1,0.3,0.2,0.6,0.4,0.9
			c0.1,0.1,0.2,0.3,0.3,0.4l0.3,0.4c0.2,0.3,0.5,0.5,0.7,0.7c0.3,0.2,0.6,0.4,0.9,0.5c0.3,0.1,0.6,0.3,0.9,0.4
			c0.3,0.1,0.6,0.3,0.9,0.4c0.3,0.1,0.6,0.3,0.8,0.4c0.3,0.1,0.5,0.3,0.7,0.4c0.2,0.1,0.4,0.2,0.6,0.3c0.3,0.2,0.5,0.3,0.5,0.3
			l0,0.2c0,0-0.2,0.1-0.6,0.2c-0.2,0-0.4,0.1-0.7,0.1c-0.3,0-0.6,0.1-0.9,0.1c-0.3,0-0.7,0-1.1-0.1c-0.4-0.1-0.8-0.2-1.2-0.4
			c-0.4-0.1-0.8-0.5-1.1-0.7c-0.4-0.3-0.7-0.7-1-1c-0.3-0.4-0.6-0.7-0.8-1.1c-0.1-0.2-0.2-0.4-0.3-0.6c-0.1-0.2-0.1-0.4-0.2-0.6
			c-0.1-0.4-0.2-0.8-0.2-1.2c0-0.4,0-0.7,0-1.1c0-0.6,0.2-1.2,0.3-1.5c0.1-0.4,0.2-0.5,0.2-0.5L201.5,63.8z"/>
	</g>
	<g>
		<path fill="#6B370C" d="M208,64.5c0,0,0.2,0.4,0.5,0.9c0.3,0.5,0.8,1.2,1.3,1.6c0.1,0.1,0.3,0.2,0.4,0.2c0.2,0.1,0.3,0.1,0.4,0.2
			c0.1,0.1,0.2,0.2,0.3,0.2c0.1,0.1,0.2,0.2,0.3,0.3c0.1,0.1,0.2,0.2,0.3,0.3c0.1,0.1,0.2,0.2,0.3,0.2c0.2,0.2,0.3,0.3,0.3,0.3
			l0,0.2c0,0-0.1,0.1-0.3,0.2c-0.2,0.1-0.5,0.3-0.9,0.3c-0.2,0-0.4,0-0.7,0c-0.2,0-0.5-0.1-0.7-0.3c-0.2-0.1-0.4-0.3-0.6-0.5
			c-0.2-0.2-0.3-0.4-0.4-0.6c-0.5-0.8-0.7-1.8-0.8-2.4c-0.1-0.7,0-1.1,0-1.1L208,64.5z"/>
	</g>
	<g>
		<path fill="#6B370C" d="M214.7,60.8c0,0,0.4,0.4,0.8,1c0.4,0.6,1,1.5,1.4,2.4c0.2,0.5,0.5,0.9,0.6,1.4c0.1,0.5,0.1,0.9,0,1.3
			c-0.1,0.8-0.5,1.3-0.5,1.3l-0.2,0c0,0-0.1-0.1-0.3-0.3c-0.2-0.2-0.4-0.5-0.6-0.8c-0.2-0.3-0.4-0.7-0.5-1.1c-0.1-0.4,0-0.9-0.1-1.4
			c-0.2-0.9-0.3-1.9-0.5-2.6c-0.2-0.7-0.3-1.2-0.3-1.2L214.7,60.8z"/>
	</g>
	<path fill="#3B4467" stroke="#697EAB" stroke-width="2.0366" stroke-linecap="round" stroke-miterlimit="10" d="M247.9,65.5
		c0,0-4.5-5-12.2-5.1c-7.6-0.1-31.8,8.4-33.4,21.3l26.4-3.3L247.9,65.5z"/>
	<path fill="#2D1309" stroke="#6B370C" stroke-width="2.0366" stroke-miterlimit="10" d="M261.1,76.4c0,0-4.7-9.4-11.7-10.7
		c0,0-27.2-6.1-47,15.9c-3.8,4.2-5.4,10-4.4,15.5l0,0.2L261.1,76.4z"/>
	
		<path fill="#FBCA9E" stroke="#CF9669" stroke-width="2.0366" stroke-linecap="round" stroke-linejoin="round" stroke-miterlimit="10" d="
		M267.5,114.4c0,0,7.3-1.6,8.9-11.2c1.6-10.1-5.5-11.3-8-6.7"/>
	
		<path fill="#FBCA9E" stroke="#CF9669" stroke-width="2.0366" stroke-linecap="round" stroke-linejoin="round" stroke-miterlimit="10" d="
		M128.8,268.1c0,0-3.4,7.8-2.7,16.6c0.7,8.8,0.7,16.4-2,18c-4.1,2.4-12.9-18-1.1-50c0,0,14.3-38.9,28.2-54.5
		c12.6-21.7,35.6-41.1,35.6-41.1l4.2,13.6l10.8,0.3c0,0-28.2,20.7-40.4,39c0,0-4.1,11.2-12.6,23.1c-8.5,11.9-12.6,21-12.6,21
		s1.4,27.2-2.7,28.5C129.5,284,128.8,268.1,128.8,268.1z"/>
	
		<path fill="#FBCA9E" stroke="#CF9669" stroke-width="2.0366" stroke-linecap="round" stroke-linejoin="round" stroke-miterlimit="10" d="
		M281.6,178.1c0,0,11.2,6.1,17.3,10.9c0,0,5.7,7.8,20.7,14.3c8.4,3.6,24.1,11.2,24.1,11.2s8.2,19.9,13.6,20c4.1,0-1.4-14.6-1.4-14.6
		s6.3,8,8.6,11.9c4.7,8,6.7,12.8,10.7,12.8s-1-29.2-21.7-37.7c0,0-30.9-21.4-46.9-29.1c0,0-10.4-10.9-23.3-17.7L281.6,178.1z"/>
	<g>
		<defs>
			<path id="SVGID_5_" d="M253.9,356.5c0,0-2,22.4,3.1,34.6c5.1,12.2,16.3,41.7,18.3,60.1l5.1,5.6l16-19.9c0,0-3.3-1.3-7.8-6.8
				c-2.5-5-3.8-12.7-6.2-23.5c-3.4-15.3-4.5-33.2-5.4-47.6c2.1-10.4-2.2-21.9-2.2-21.9c-2.6-11.7-0.6-37.2-10.2-58l-40.2,3.6
				c0,0,22.1,43.3,28,66.2C252.4,348.9,252.3,351,253.9,356.5z"/>
		</defs>
		<use xlink:href="#SVGID_5_"  overflow="visible" fill="#FBCA9E"/>
		<clipPath id="SVGID_6_">
			<use xlink:href="#SVGID_5_"  overflow="visible"/>
		</clipPath>
		<path clip-path="url(#SVGID_6_)" fill="#30569D" stroke="#5788DB" stroke-width="2.0366" stroke-miterlimit="10" d="M253.6,371.9
			l1.2-1.4c1.8-2,4.1-3.3,6.6-4c4-0.9,10.7-1.9,20.1-1.1l11.2,57.4l15.6,17.3l-25.1,24.8l-17.7-15.6l-14.9-53l-1.7-21.7L253.6,371.9
			z"/>
		
			<use xlink:href="#SVGID_5_"  overflow="visible" fill="none" stroke="#CF9669" stroke-width="2.0366" stroke-linecap="round" stroke-linejoin="round" stroke-miterlimit="10"/>
	</g>
	<g>
		<path fill="#CF9669" d="M269,360.6c0,0,0.6-0.2,1.5-0.7c0.8-0.5,1.9-1.3,2.6-2.3c0.2-0.2,0.3-0.5,0.5-0.8c0.1-0.3,0.2-0.5,0.4-0.8
			c0.1-0.2,0.2-0.5,0.4-0.7c0.2-0.2,0.2-0.4,0.4-0.7c0.1-0.2,0.3-0.4,0.3-0.6c0.1-0.2,0.2-0.3,0.3-0.5c0.2-0.3,0.3-0.4,0.3-0.4
			l0.2,0c0,0,0.1,0.2,0.1,0.5c0,0.2,0.1,0.4,0.1,0.6c0,0.2,0,0.5,0,0.8c0,0.3,0,0.6-0.1,0.9c-0.1,0.3-0.2,0.6-0.4,0.9
			c-0.2,0.3-0.4,0.6-0.6,0.9c-0.3,0.3-0.5,0.5-0.8,0.8c-0.3,0.3-0.5,0.5-0.8,0.7c-0.3,0.2-0.6,0.4-0.9,0.6c-0.3,0.1-0.6,0.3-0.9,0.4
			c-0.3,0.1-0.5,0.2-0.8,0.3c-1,0.3-1.7,0.3-1.7,0.3L269,360.6z"/>
	</g>
	<path fill="#FFFFFF" stroke="#807577" stroke-width="2.0366" stroke-miterlimit="10" d="M220,296.6c-3.9,4.5-6.7,10.4-8.1,13.6
		c-0.6,1.5-1.9,2.6-3.5,3c-6,1.6-21,5.4-28,4.4c-8.8-1.4-9.5-10.2-9.5-10.2s2.4-13.7,6.8-28.9s15.3-39.3,15.3-39.3l69.6,11.5
		c0,0,1.4,7.8,0.4,12.6c0,0,6.7,15.3,9.4,28.2c0,0,4.3,7.1,1.9,9c0.2,1.3,0.9,7.1-5.3-1.3c-4.4-6-27.9-0.5-32.6,0.7
		c-3.1,0.8-7.9,1.5-14.6,1.2c-1,0-1.8-0.9-1.8-1.9L220,296.6z"/>
	<path fill="#4D70BE" stroke="#153E7F" stroke-width="2.0366" stroke-miterlimit="10" d="M233.4,133.3c-7.9-1.1-16.3,0.1-23,1.7
		c-7.5,1.8-14.4,5.4-20.3,10.3c-3.9,3.3-8.1,7.1-10.3,10c-8,10.4-16,19-16,19c11,18,27.2,17.3,27.2,17.3l4.3-8.5
		c-0.3,14.6,7.8,20.7,7.8,20.7s-4.6,12.6-7.8,19.7c-5.1,11.3-8.4,21.2-8.4,21.2s13.8,10.7,48.1,12.4c34.3,1.7,31.2,0,31.2,0
		s-0.1-5.4-2.4-13.6c0,0,2.4-16.6,0.7-35.6c0,0,5.1-10.5,5.1-29.2c0,0,7.5,4.4,11.2,3.4c0,0,1,2,4.1,2.7c0,0,10.9-8.5,13.9-22.1
		c0,0-6.9-1.8-10.9-3.7c-23.4-11.5-26.1-23.4-45.5-26.2C227.8,130.7,233.4,133.3,233.4,133.3z"/>
	
		<path fill="#FBCA9E" stroke="#CF9669" stroke-width="2.0366" stroke-linecap="round" stroke-linejoin="round" stroke-miterlimit="10" d="
		M217.1,136v1c0,2,0.5,4,1.6,5.8l1.3,2.2c1,1.8,2.5,3.2,4.3,4.2c2.9,1.6,7.6,4,12.5,5.9c3.5,1.4,5.9,2.8,7.6,3.9
		c1.6,1.1,3.7,0.4,4.4-1.3l0.9-2.4c1.5-3.9,1.3-8.3-0.6-12.1c-1.1-2.2-2.8-4.7-5.5-7.2c0,0,4.6-16.1,1.2-24.3l-31.6,6.1L217.1,136z"
		/>
	<g>
		<path fill="#CF9669" d="M217.8,135.6c0,0,1.5,2.2,3,4.5c0.4,0.6,0.8,1,1.1,1.6c0.2,0.3,0.3,0.5,0.4,0.8c0.1,0.2,0.2,0.5,0.3,0.7
			c0.1,0.2,0.1,0.5,0.2,0.7c0.1,0.2,0.1,0.4,0.1,0.5c0.1,0.3,0.1,0.5,0.1,0.5l-0.1,0.2c0,0-0.2,0-0.5-0.2c-0.2-0.1-0.3-0.2-0.5-0.3
			c-0.2-0.1-0.4-0.3-0.6-0.5c-0.4-0.4-0.8-0.8-1.2-1.4c-0.3-0.6-0.5-1.2-0.8-1.9c-1-2.5-1.7-5.1-1.7-5.1L217.8,135.6z"/>
	</g>
	<g>
		<path fill="#CF9669" d="M245,142.2c0,0-0.3-0.5-0.6-1.2c-0.4-0.7-0.8-1.8-1.1-2.8c-0.2-0.5-0.4-1-0.5-1.5c-0.1-0.5-0.1-1,0-1.4
			c0.1-0.9,0.6-1.4,0.6-1.4l0.2,0c0,0,0.1,0.1,0.3,0.3c0.2,0.2,0.4,0.5,0.6,0.9c0.2,0.4,0.4,0.8,0.4,1.3c0.1,0.5,0,1,0,1.6
			c0.1,1.1,0.2,2.1,0.2,2.9c0.1,0.8,0.1,1.4,0.1,1.4L245,142.2z"/>
	</g>
	<g>
		<path fill="#5788DB" d="M256.2,372.6c0,0,0.2,0.8,0.5,2c0.4,1.2,0.9,2.8,1.4,4.3c0.3,0.8,0.7,1.5,1,2.2c0.2,0.3,0.3,0.7,0.4,1
			c0.1,0.3,0.2,0.6,0.3,0.9c0.1,0.3,0.2,0.6,0.2,0.8c0.1,0.3,0.1,0.5,0.2,0.6c0.1,0.4,0.1,0.6,0.1,0.6l-0.2,0.1c0,0-0.2-0.1-0.6-0.3
			c-0.2-0.1-0.4-0.2-0.6-0.4c-0.2-0.2-0.4-0.4-0.7-0.7c-0.2-0.3-0.4-0.5-0.7-0.9c-0.2-0.3-0.4-0.7-0.6-1.1c-0.3-0.8-0.4-1.7-0.6-2.5
			c-0.4-1.7-0.6-3.4-0.6-4.7c-0.1-1.3,0-2.1,0-2.1L256.2,372.6z"/>
	</g>
	<g>
		<path fill="#1D5BA8" d="M224.4,227.9c0,0,0.7-0.2,1.8-0.5c1.2-0.4,2.8-0.9,4.7-1.8c1-0.4,2-0.9,3.1-1.4c1.1-0.5,2.2-1.1,3.3-1.7
			c1.1-0.7,2.3-1.3,3.4-2.1c0.6-0.4,1.1-0.8,1.7-1.1l1.7-1.2c1.1-0.8,2.2-1.7,3.2-2.6c1-0.9,2-1.8,2.9-2.7c1-0.8,1.8-1.8,2.6-2.6
			c0.9-0.8,1.6-1.7,2.3-2.4c0.7-0.8,1.4-1.4,1.9-2.1c0.5-0.7,1-1.2,1.4-1.7c0.8-0.9,1.3-1.5,1.3-1.5l0.2,0.1c0,0-0.3,0.6-0.8,1.7
			c-0.3,0.6-0.6,1.2-1,2c-0.4,0.8-1,1.5-1.6,2.4c-0.3,0.4-0.6,0.9-1,1.4c-0.3,0.5-0.8,0.9-1.1,1.4c-0.8,0.9-1.6,1.9-2.6,2.8
			c-1,0.9-2,1.9-3.1,2.7c-1.1,0.8-2.2,1.7-3.4,2.5l-1.8,1.2c-0.6,0.4-1.2,0.7-1.8,1.1c-1.2,0.7-2.4,1.3-3.6,1.9
			c-1.2,0.6-2.4,1.1-3.5,1.6c-1.1,0.4-2.2,0.9-3.2,1.2c-2,0.7-3.7,1.1-4.9,1.4c-1.2,0.3-1.9,0.4-1.9,0.4L224.4,227.9z"/>
	</g>
	<g>
		<path fill="#1D5BA8" d="M223.5,244.2c0,0,2.7-1.5,6.5-4.2c0.9-0.7,2-1.4,3.1-2.2c1.1-0.8,2.2-1.6,3.4-2.5c1.2-0.9,2.3-1.8,3.5-2.8
			c1.2-0.9,2.3-2,3.5-3c1.1-1,2.2-2.1,3.3-3.1c1-1.1,2.1-2.2,3.1-3.2c1-1,1.9-2.1,2.8-3c0.8-1,1.7-1.9,2.4-2.8
			c0.7-0.9,1.3-1.7,1.9-2.5c0.3-0.4,0.6-0.7,0.8-1.1c0.2-0.3,0.4-0.6,0.6-0.9c0.8-1.1,1.2-1.7,1.2-1.7l0.2,0.1c0,0-0.3,0.7-0.8,2
			c-0.3,0.6-0.5,1.4-1,2.3c-0.5,0.8-1,1.8-1.6,2.8c-0.7,1-1.4,2-2.2,3.1c-0.8,1.1-1.8,2.1-2.8,3.2c-1,1-2.2,2.1-3.3,3.1
			c-1.2,1-2.4,2-3.6,3c-1.2,1-2.4,2-3.7,2.8c-1.2,0.9-2.5,1.8-3.7,2.6c-1.2,0.8-2.4,1.6-3.5,2.3c-1.1,0.7-2.2,1.4-3.2,2
			c-4,2.4-6.8,3.7-6.8,3.7L223.5,244.2z"/>
	</g>
	<g>
		<path fill="#1D5BA8" d="M259.8,222.6c0,0,0,0.5-0.1,1.4c-0.1,0.9-0.3,2.1-0.6,3.6c-0.2,0.7-0.4,1.5-0.6,2.4
			c-0.2,0.8-0.6,1.7-0.9,2.6c-0.4,0.9-0.7,1.8-1.1,2.7c-0.4,0.9-0.8,1.8-1.3,2.7c-0.5,0.9-0.9,1.8-1.4,2.7c-0.5,0.9-1,1.7-1.5,2.5
			c-0.6,0.8-1.1,1.5-1.7,2.2c-0.6,0.7-1.1,1.3-1.6,1.8c-1,1.1-2,1.9-2.7,2.5c-0.7,0.6-1.1,0.9-1.1,0.9l-0.2-0.1c0,0,0.2-0.5,0.7-1.2
			c0.2-0.4,0.5-0.8,0.9-1.3c0.2-0.3,0.4-0.5,0.5-0.8c0.2-0.3,0.4-0.6,0.6-0.9c0.4-0.6,0.9-1.3,1.3-2c0.5-0.7,1-1.5,1.5-2.2
			c0.6-0.7,1.1-1.5,1.7-2.3c0.6-0.8,1.1-1.6,1.6-2.4c0.5-0.8,1-1.7,1.5-2.5c0.5-0.9,0.9-1.7,1.3-2.5c0.4-0.8,0.8-1.7,1.1-2.4
			c0.3-0.8,0.6-1.5,0.8-2.2c0.5-1.4,0.8-2.6,0.9-3.5c0.2-0.9,0.2-1.3,0.2-1.3L259.8,222.6z"/>
	</g>
	<g>
		<path fill="#B9BBBE" d="M223.4,293.2c0,0,0-0.7,0.3-2c0.2-0.6,0.4-1.4,0.7-2.2c0.4-0.8,0.9-1.8,1.6-2.7c1.4-1.7,3-3.7,4.8-5.8
			c1.8-2.1,3.8-4.3,6-6.4c2.1-2.1,4.4-4.1,6.8-5.6c1.2-0.8,2.4-1.4,3.6-2c1.2-0.6,2.4-0.9,3.5-1.2c1.1-0.3,2.2-0.4,3.1-0.5
			c0.5,0,0.9,0,1.3,0c0.4,0,0.8,0,1.1,0.1c0.7,0.1,1.2,0.2,1.5,0.3c0.3,0.1,0.5,0.1,0.5,0.1l0,0.2c0,0-0.2,0-0.5,0
			c-0.3,0-0.8,0-1.5,0.1c-0.3,0-0.7,0.1-1,0.1c-0.4,0-0.8,0.1-1.2,0.2c-0.9,0.2-1.8,0.5-2.8,0.8c-1,0.4-2,0.9-3.1,1.4
			c-1.1,0.6-2.2,1.2-3.3,2c-1.1,0.7-2.3,1.5-3.4,2.4c-1.2,0.8-2.3,1.8-3.4,2.7c-2.2,1.9-4.3,4-6.2,6c-1.9,2-3.6,3.9-5.2,5.5
			c-1.5,1.5-2.1,3.3-2.5,4.5c-0.4,1.2-0.5,1.9-0.5,1.9L223.4,293.2z"/>
	</g>
	<g>
		<path fill="#B9BBBE" d="M223.4,295.5c0,0,0.5-1.5,2.1-3.2c0.4-0.4,0.9-0.8,1.4-1.3c0.3-0.2,0.5-0.4,0.8-0.6
			c0.1-0.1,0.3-0.2,0.4-0.3l0.4-0.3c0.3-0.2,0.4-0.4,0.7-0.7c0.2-0.3,0.4-0.5,0.6-0.8c0.4-0.6,0.8-1.2,1.2-1.8
			c0.4-0.6,0.9-1.3,1.3-1.9c0.5-0.6,1-1.2,1.6-1.7c0.6-0.5,1.2-0.9,1.8-1.2c0.6-0.3,1.3-0.5,1.8-0.7c0.6-0.2,1.1-0.2,1.6-0.3
			c0.2,0,0.5,0,0.7,0c0.2,0,0.4,0,0.6,0c0.7,0.1,1.1,0.1,1.1,0.1l0,0.2c0,0-0.4,0.2-1,0.4c-0.3,0.1-0.7,0.2-1.1,0.4
			c-0.2,0.1-0.4,0.2-0.6,0.3c-0.2,0.1-0.4,0.2-0.7,0.4c-0.5,0.2-0.9,0.6-1.4,0.8c-0.2,0.2-0.5,0.4-0.7,0.5c-0.2,0.2-0.5,0.4-0.7,0.6
			c-0.5,0.4-1,0.8-1.5,1.3c-0.5,0.5-1,1-1.4,1.6c-0.5,0.6-0.9,1.2-1.5,1.7c-0.2,0.3-0.5,0.6-0.8,0.8c-0.3,0.3-0.6,0.6-0.9,0.7
			l-0.4,0.3c-0.2,0.1-0.3,0.2-0.5,0.3c-0.3,0.1-0.6,0.3-0.8,0.5c-0.5,0.3-1,0.7-1.4,1c-0.9,0.7-1.5,1.4-1.9,1.9
			c-0.4,0.5-0.6,0.8-0.6,0.8L223.4,295.5z"/>
	</g>
	<g>
		<path fill="#B9BBBE" d="M262.9,288.2c0,0,0.8-0.2,2,0c0.6,0.1,1.3,0.2,2.1,0.5c0.8,0.2,1.5,0.6,2.2,1.1c0.4,0.2,0.7,0.5,1.1,0.7
			c0.3,0.3,0.6,0.6,0.9,0.9c0.2,0.3,0.4,0.7,0.6,1c0.2,0.3,0.3,0.7,0.4,1c0.2,0.6,0.2,1.2,0.2,1.5c0,0.4,0,0.6,0,0.6l-0.2,0.1
			c0,0-0.2-0.1-0.5-0.4c-0.1-0.1-0.3-0.3-0.4-0.5c-0.1-0.2-0.4-0.4-0.5-0.6c-0.2-0.2-0.4-0.4-0.6-0.7c-0.2-0.2-0.4-0.5-0.6-0.7
			c-0.2-0.3-0.4-0.5-0.6-0.8c-0.2-0.3-0.4-0.6-0.7-0.8c-0.5-0.5-1.1-0.9-1.7-1.3c-0.3-0.2-0.6-0.3-0.9-0.5c-0.3-0.1-0.6-0.3-0.9-0.4
			c-1.1-0.4-1.9-0.5-1.9-0.5L262.9,288.2z"/>
	</g>
	<g>
		<path fill="#B9BBBE" d="M190.9,281.1c0,0,1.1-2,2.9-4.8c1.8-2.9,4.3-6.5,7.2-10c0.7-0.9,1.5-1.7,2.2-2.5c0.8-0.8,1.6-1.6,2.4-2.3
			c0.8-0.7,1.7-1.3,2.5-1.8c0.8-0.5,1.7-1,2.5-1.3c0.8-0.3,1.6-0.6,2.3-0.7c0.7-0.1,1.4-0.1,1.9-0.1c0.5,0,0.9,0.1,1.2,0.2
			c0.3,0.1,0.4,0.1,0.4,0.1l0,0.2c0,0-0.1,0-0.4,0c-0.3,0-0.6,0-1.1,0.1c-0.2,0-0.5,0.1-0.7,0.2c-0.3,0.1-0.6,0.2-0.8,0.3
			c-0.6,0.2-1.2,0.6-1.9,1c-0.3,0.2-0.7,0.4-1,0.7c-0.4,0.2-0.7,0.5-1.1,0.8c-0.7,0.6-1.5,1.2-2.3,1.8c-0.8,0.6-1.6,1.3-2.4,2.1
			c-0.8,0.7-1.6,1.5-2.4,2.3c-3.1,3.2-5.8,6.7-7.9,9.3c-2,2.7-3.3,4.5-3.3,4.5L190.9,281.1z"/>
	</g>
	<g>
		<path fill="#B9BBBE" d="M178.6,291.9c0,0,0-2.3,0.5-5.7c0.2-1.7,0.6-3.7,1.1-5.8c0.5-2.1,1.1-4.3,1.8-6.5c0.3-1.1,0.8-2.2,1.1-3.3
			c0.4-1.1,0.8-2.1,1.3-3.1c0.4-1,1-1.9,1.5-2.8c0.5-0.9,1-1.7,1.5-2.4c0.5-0.7,0.9-1.4,1.4-1.9c0.4-0.6,0.8-1,1.2-1.4
			c0.7-0.8,1.1-1.2,1.1-1.2l0.2,0.1c0,0-0.2,0.5-0.6,1.5c-0.2,0.5-0.5,1-0.8,1.6c-0.3,0.6-0.6,1.4-1,2.1c-0.4,0.8-0.8,1.6-1.2,2.5
			c-0.4,0.9-0.9,1.8-1.3,2.8c-0.5,1-0.9,1.9-1.4,2.9c-0.5,1-0.9,2-1.4,3.1c-0.8,2.1-1.6,4.2-2.2,6.3c-0.3,1-0.6,2-0.8,2.9
			c-0.2,0.9-0.5,1.8-0.7,2.7c-0.8,3.3-1,5.6-1,5.6L178.6,291.9z"/>
	</g>
	<g>
		<path fill="#B9BBBE" d="M176.1,306.1c0,0,0.1,0.5,0.5,1.2c0.1,0.2,0.2,0.4,0.3,0.6c0.1,0.2,0.3,0.4,0.5,0.7
			c0.4,0.4,0.8,0.9,1.3,1.4c0.5,0.5,1.2,0.8,1.9,1.2c0.4,0.2,0.7,0.3,1.1,0.5c0.4,0.2,0.8,0.3,1.2,0.4c0.8,0.3,1.7,0.4,2.7,0.5
			c0.9,0.1,1.9,0.1,2.8,0.1c0.9,0,1.9-0.1,2.8-0.2c0.9-0.1,1.8-0.3,2.7-0.4c0.9-0.1,1.7-0.3,2.5-0.4c0.8-0.1,1.6-0.2,2.3-0.3
			c1.4-0.2,2.6-0.4,3.5-0.5c0.9-0.1,1.4-0.1,1.4-0.1l0.1,0.2c0,0-0.4,0.2-1.2,0.6c-0.4,0.2-0.9,0.4-1.4,0.6
			c-0.6,0.2-1.2,0.5-1.9,0.8c-0.7,0.2-1.5,0.4-2.3,0.7c-0.8,0.2-1.7,0.5-2.6,0.5c-0.9,0.1-1.9,0.2-2.9,0.2c-1,0-2,0-3-0.1
			c-1-0.1-2-0.2-3-0.4c-1-0.2-1.9-0.4-2.8-0.8c-0.9-0.3-1.7-0.7-2.5-1.2c-0.7-0.5-1.4-1-1.9-1.6c-0.6-0.5-0.9-1.1-1.3-1.6
			c-0.2-0.3-0.3-0.5-0.4-0.7c-0.1-0.2-0.2-0.5-0.3-0.7c-0.3-0.8-0.4-1.3-0.4-1.3L176.1,306.1z"/>
	</g>
	<g>
		<path fill="#B9BBBE" d="M197.9,306c1-0.3,2.1-0.8,3-1.2c1-0.5,1.9-1,2.8-1.7c0.5-0.3,0.9-0.6,1.3-1c0.4-0.3,0.9-0.7,1.3-1
			c0.4-0.4,0.8-0.7,1.2-1.1l1.2-1.1l1.1-1.2c0.4-0.4,0.7-0.8,1-1.3c0.3-0.4,0.7-0.9,1-1.3l0.9-1.4c0.3-0.4,0.6-0.9,0.8-1.4l0.8-1.4
			c0.3-0.5,0.5-1,0.7-1.5l0.7-1.5l0,0.1c0.3-0.8,0.6-1.5,0.9-2.3c0.3-0.7,0.7-1.4,1.1-2.1c0.4-0.7,0.8-1.4,1.2-2
			c0.4-0.7,0.9-1.3,1.4-1.9c0.5-0.6,1-1.2,1.5-1.8c0.5-0.6,1.1-1.2,1.6-1.7c0.6-0.6,1.1-1.1,1.8-1.6c0.6-0.5,1.2-1,1.9-1.4l0.1,0.2
			c-0.5,0.6-1,1.2-1.4,1.8c-0.2,0.3-0.5,0.6-0.7,0.9c-0.2,0.3-0.4,0.6-0.7,0.9c-0.5,0.6-0.9,1.3-1.3,1.9c-0.4,0.6-0.8,1.3-1.2,1.9
			c-0.4,0.6-0.8,1.3-1.2,2l-1.1,2c-0.4,0.7-0.7,1.3-1.1,2c-0.3,0.7-0.7,1.4-1,2l0,0.1l-0.8,1.5c-0.3,0.5-0.5,1-0.8,1.5
			c-0.6,0.9-1.1,1.9-1.8,2.8l-1,1.4c-0.3,0.4-0.7,0.9-1.1,1.3c-0.4,0.4-0.7,0.9-1.1,1.3l-1.2,1.2l-1.3,1.1c-0.4,0.4-0.9,0.7-1.3,1
			c-0.4,0.3-0.9,0.7-1.4,1c-0.5,0.3-0.9,0.6-1.4,0.9c-1,0.6-2,1.1-3,1.5c-1,0.4-2.1,0.8-3.2,1L197.9,306z"/>
	</g>
	<g>
		<path fill="#1D5BA8" d="M263,152.3c0,0,1,2.1,2.3,5.3c0.3,0.8,0.7,1.7,1,2.6c0.4,0.9,0.7,1.9,1,2.9c0.3,1,0.6,2.1,1,3.2
			c0.3,1.1,0.6,2.2,0.9,3.3c0.2,1.1,0.5,2.3,0.7,3.4c0.2,1.1,0.4,2.2,0.5,3.3c0.1,1.1,0.2,2.1,0.1,3.1c0,1,0,2-0.1,2.8
			c-0.1,0.9-0.2,1.7-0.3,2.4c-0.1,0.7-0.3,1.3-0.4,1.8c-0.3,1-0.5,1.5-0.5,1.5l-0.2,0c0,0,0-0.6,0-1.6c0-0.5,0-1.1,0-1.8
			c0-0.7-0.1-1.5-0.1-2.3c0-0.8-0.1-1.8-0.2-2.7c-0.1-1-0.2-2-0.3-3c0-1.1-0.2-2.1-0.3-3.2c-0.1-1.1-0.3-2.2-0.4-3.3
			c-0.2-1.1-0.4-2.2-0.6-3.3c-0.2-1.1-0.5-2.2-0.7-3.2c-0.2-1-0.5-2-0.8-3c-0.2-0.9-0.5-1.8-0.8-2.7c-1-3.3-1.8-5.4-1.8-5.4
			L263,152.3z"/>
	</g>
	<g>
		<path fill="#1D5BA8" d="M209.7,162.2c0,0-0.1,1.8-0.6,4.5c-0.3,1.3-0.6,2.9-1.1,4.5c-0.5,1.6-1.1,3.3-1.8,5
			c-0.3,0.9-0.7,1.7-1,2.5c-0.3,0.8-0.8,1.6-1.2,2.4c-0.4,0.8-0.9,1.4-1.3,2.1c-0.4,0.7-0.9,1.2-1.4,1.7c-0.4,0.5-0.9,1-1.3,1.4
			c-0.4,0.4-0.8,0.7-1.1,1c-0.6,0.5-1,0.8-1,0.8l-0.2-0.1c0,0,0.2-0.4,0.6-1.1c0.4-0.7,0.9-1.7,1.6-2.8c0.3-0.6,0.7-1.2,1-1.9
			c0.3-0.7,0.8-1.3,1.2-2.1c0.4-0.7,0.9-1.4,1.3-2.2c0.4-0.8,0.9-1.5,1.3-2.3c0.8-1.6,1.5-3.2,2.1-4.7c0.3-0.8,0.6-1.5,0.8-2.2
			c0.2-0.7,0.5-1.4,0.7-2c0.8-2.6,1.1-4.3,1.1-4.3L209.7,162.2z"/>
	</g>
	<g>
		<path fill="#1D5BA8" d="M217.8,175.1c0,0-0.6,1.6-1.8,3.7c-0.3,0.5-0.7,1.1-1,1.7c-0.4,0.6-0.8,1.2-1.3,1.8
			c-0.5,0.6-1,1.2-1.5,1.9c-0.6,0.6-1.1,1.3-1.7,1.8c-0.6,0.6-1.2,1.2-1.8,1.7c-0.3,0.3-0.6,0.5-0.9,0.8c-0.3,0.3-0.7,0.5-1,0.7
			c-0.3,0.2-0.7,0.4-1,0.6c-0.3,0.2-0.7,0.3-1,0.5c-0.7,0.3-1.3,0.6-1.9,0.7c-0.6,0.2-1.2,0.3-1.7,0.4c-0.5,0.1-1,0.1-1.3,0.2
			c-0.7,0.1-1.2,0.1-1.2,0.1l0-0.2c0,0,0.4-0.2,1-0.6c0.3-0.2,0.7-0.4,1.1-0.6c0.4-0.2,0.9-0.5,1.4-0.8c0.5-0.3,1.1-0.6,1.6-1
			c0.3-0.2,0.6-0.4,0.9-0.5c0.3-0.2,0.6-0.4,0.9-0.6c0.3-0.2,0.6-0.4,1-0.6c0.3-0.2,0.6-0.4,1-0.6c0.7-0.4,1.3-0.9,1.9-1.4
			c0.6-0.5,1.2-1.1,1.8-1.6c0.6-0.6,1.1-1.1,1.6-1.7c1-1.1,1.9-2.2,2.6-3.2c1.5-2,2.2-3.4,2.2-3.4L217.8,175.1z"/>
	</g>
	<g>
		<defs>
			<path id="SVGID_7_" d="M274.1,442.8c0.6,1.7,1.7,4.4,3.2,5.9c0.6,0.6,1.7,0.4,2-0.4l2.9-7c0,0,2.7-9.3,6.4-11.1
				c0,0,3.9,1.6,7.8,2.8c0,0,3.9-0.5,6.7-2.8c2.8-2.3,9.4-8.7,15.8-5.6c0,0,10,4.4-6.3,26c-2.5,3.3-5.9,5.8-9.9,6.7
				c-1.9,0.5-3.8,1.3-5.1,2.9c-3.3,4.1-13.8,8.4-21.7,3.1c0,0-1.4-1.4-2.2-8.9c-0.6-5-0.4-9.3-0.2-11.4
				C273.4,442.5,273.9,442.4,274.1,442.8z"/>
		</defs>
		<use xlink:href="#SVGID_7_"  overflow="visible" fill="#37372F"/>
		<clipPath id="SVGID_8_">
			<use xlink:href="#SVGID_7_"  overflow="visible"/>
		</clipPath>
		<path clip-path="url(#SVGID_8_)" fill="#232320" stroke="#6E6E64" stroke-width="2.0366" stroke-miterlimit="10" d="M278.7,468
			c0,0-9.5-5.5,9.1-13.7c0,0,25.5-42.3,36.1-24.5l-2,14.5l-17.3,17.8l-15.8,5.9H278.7z"/>
		<use xlink:href="#SVGID_7_"  overflow="visible" fill="none" stroke="#6E6E64" stroke-width="2.0366" stroke-miterlimit="10"/>
	</g>
	
		<ellipse transform="matrix(-0.9995 3.071079e-02 -3.071079e-02 -0.9995 472.2724 196.1862)" fill="#FBCA9E" stroke="#CF9669" stroke-width="2.0366" stroke-linecap="round" stroke-linejoin="round" stroke-miterlimit="10" cx="234.6" cy="101.7" rx="37.4" ry="27.6"/>
	<g>
		<path fill="#FFFFFF" d="M233.4,174.8c-0.7-0.9-1.5-1.4-2.2-1.4c-0.7,0-1.4,0.4-2.1,1.1c-0.3,0.3-0.7,0.8-1,1.3
			c-0.3,0.6-0.7,1-1.2,1.4c-0.4,0.4-0.9,0.6-1.5,0.7c-0.5,0-1.2-0.3-1.9-0.9c-0.6-0.6-1-1.1-1-1.8s0-1.2,0.3-1.8
			c0.2-0.6,0.6-1.1,1-1.6c0.4-0.5,0.8-0.9,1-1.2c0.7-0.8,1.5-1.4,2.4-1.8c0.9-0.4,1.9-0.7,3-0.7c1,0,2.1,0.2,3.1,0.6
			c1.1,0.5,2,1.2,3,2.4c0.9,1,1.6,2.1,2.1,3.2c0.5,1.1,0.8,2.2,0.9,3.3c0.1,1.1,0,2.1-0.3,3.2c-0.3,1-0.8,1.9-1.6,2.7
			c-0.4,0.5-1,1-1.5,1.5c-0.6,0.5-1.1,1-1.6,1.6c-0.5,0.6-0.9,1.2-1.2,1.8c-0.3,0.7-0.4,1.4-0.3,2.3c0.3,0,0.7,0,1.3,0
			c0.6,0,1.2,0,1.9,0c0.7,0,1.4-0.1,2.1-0.2c0.7-0.1,1.3-0.3,1.9-0.6c-0.1,0.1-0.1,0.2-0.2,0.2c0.3-0.5,0.5-0.9,0.8-1.3
			c0.3-0.4,0.7-0.6,1.4-0.6c0.5,0,0.9,0.1,1.4,0.4c0.4,0.3,0.8,0.6,1.1,1c0.3,0.4,0.5,0.9,0.7,1.3c0.1,0.5,0.1,1-0.1,1.4
			c-0.4,0.8-0.9,1.6-1.4,2.2c-0.6,0.6-1.4,0.9-2.4,1l-9.5,0.9c-0.6,0.1-1.2-0.1-1.8-0.5c-0.6-0.4-1-0.9-1.3-1.5
			c-0.3-0.5-0.4-0.9-0.4-1.4c0-0.5-0.1-1-0.2-1.5c-0.2-1.2-0.3-2.2-0.2-3.2c0-1,0.2-1.8,0.5-2.6c0.3-0.8,0.7-1.6,1.2-2.3
			c0.5-0.7,1.1-1.4,1.9-2.1c0.4-0.3,0.8-0.7,1.3-1.2c0.5-0.5,0.9-1,1.2-1.6c0.3-0.6,0.5-1.2,0.6-1.9
			C234.2,176.1,234,175.4,233.4,174.8z"/>
		<path fill="#FFFFFF" d="M258.8,192.8c0,0.5-0.2,0.9-0.5,1.3c-0.3,0.3-0.6,0.5-1,0.7c-0.4,0.1-0.8,0.1-1.3-0.1
			c-0.5-0.1-0.9-0.4-1.4-0.9c-0.5-0.5-0.8-1.1-0.9-1.8c-0.1-0.7-0.2-1.3-0.3-1.8c-0.4-3.2-0.6-6.4-0.4-9.5c0.2-3.1,0.7-6.1,1.7-8.9
			l-9.8,0.9c-0.7,0.1-1.3-0.1-1.9-0.5c-0.6-0.4-1-0.9-1.2-1.4c-0.3-0.6-0.3-1.1-0.2-1.7c0.1-0.6,0.5-1,1.1-1.3
			c0.3-0.1,0.6-0.2,0.9-0.2c2.5-0.2,5-0.5,7.4-0.7s4.9-0.5,7.4-0.7c0.5,0,1,0.2,1.6,0.6c0.6,0.4,0.9,0.9,1.1,1.4
			c0.3,0.8,0.3,1.6,0,2.2c-0.3,0.6-0.6,1.2-0.8,1.9c-0.3,0.7-0.5,1.5-0.7,2.2c-0.2,0.8-0.4,1.5-0.6,2.3c-0.6,2.6-0.9,5.2-0.9,7.8
			c-0.1,2.6,0.2,5.3,0.7,8.2L258.8,192.8z"/>
	</g>
	
		<path fill="none" stroke="#CF9669" stroke-width="2.0366" stroke-linecap="round" stroke-linejoin="round" stroke-miterlimit="10" d="
		M242.5,125.8c0,0-15.2,1.9-19.3-6.6"/>
	
		<path fill="none" stroke="#CF9669" stroke-width="2.0366" stroke-linecap="round" stroke-linejoin="round" stroke-miterlimit="10" d="
		M248.2,111.5c2.6,6.3-3.8,14.1-11.4,7.3"/>
	
		<ellipse transform="matrix(0.9455 0.3257 -0.3257 0.9455 48.0862 -69.8024)" fill="#1F191A" cx="232.5" cy="108.7" rx="2.1" ry="5.1"/>
	
		<ellipse transform="matrix(0.9455 0.3257 -0.3257 0.9455 49.376 -76.5636)" fill="#1F191A" cx="253.4" cy="109.2" rx="2.1" ry="5.1"/>
	<path fill="#2D1309" stroke="#6B370C" stroke-width="2.0366" stroke-miterlimit="10" d="M245.4,87.5c0,0-6.8-7.5-11.4-7.6
		c0,0-12.1,1.5-13,4.7l0.4,3.2c0.2,1.9-0.2,3.8-1.3,5.5c-1.8,2.8-5,6.9-9.5,9c0,0-3.8,0-6.8-4.6l-5.9,1.4c0,0-0.3-17.4,19.5-26.4
		s45.4,0.2,51.9,11.8s-0.5,18-0.5,18s0.4-13.4-8.4-16.9c0,0,0,3.3-3,6.4l-5.6-8.5c0,0-0.1,4.9-4,5.3l-1.2-6L245.4,87.5z"/>
	<g>
		<path fill="#6B370C" d="M214.5,91.4c0,0-0.5-1.3-0.9-3.3c-0.1-0.5-0.2-1.1-0.3-1.7c-0.1-0.6-0.1-1.2-0.1-1.9c0-0.7,0-1.3,0-2
			c0.1-0.7,0.1-1.4,0.3-2.1c0.1-0.7,0.3-1.4,0.5-2.1c0.1-0.3,0.2-0.7,0.3-1c0.1-0.3,0.3-0.6,0.4-0.9c0.2-0.3,0.3-0.6,0.5-0.9
			c0.2-0.3,0.4-0.5,0.6-0.8c0.2-0.2,0.4-0.5,0.6-0.7c0.2-0.2,0.4-0.4,0.6-0.6c0.4-0.4,0.8-0.7,1.1-0.9c0.4-0.2,0.7-0.4,1-0.5
			c0.6-0.3,0.9-0.4,0.9-0.4l0.1,0.2c0,0-0.2,0.3-0.6,0.8c-0.2,0.2-0.4,0.5-0.7,0.8c-0.2,0.3-0.5,0.7-0.8,1.1
			c-0.3,0.4-0.6,0.8-0.8,1.3c-0.1,0.2-0.3,0.5-0.4,0.7c-0.1,0.3-0.3,0.5-0.4,0.8c-0.1,0.3-0.3,0.5-0.4,0.8c-0.1,0.3-0.3,0.6-0.4,0.9
			c-0.3,0.6-0.5,1.2-0.7,1.8c-0.2,0.6-0.3,1.3-0.4,1.9c-0.1,0.6-0.2,1.3-0.2,1.9c-0.1,0.6-0.1,1.2-0.1,1.8c0,0.6,0,1.1,0,1.6
			c0.1,2,0.4,3.4,0.4,3.4L214.5,91.4z"/>
	</g>
	<g>
		<path fill="#6B370C" d="M208.6,94c0,0-0.5-1.3-0.9-3.3c-0.1-0.5-0.2-1.1-0.3-1.7c-0.1-0.6-0.1-1.2-0.1-1.9c0-0.7,0-1.3,0-2
			c0.1-0.7,0.1-1.4,0.3-2.1c0.1-0.7,0.3-1.4,0.5-2.1c0.1-0.3,0.2-0.7,0.3-1c0.1-0.3,0.3-0.6,0.4-0.9c0.2-0.3,0.3-0.6,0.5-0.9
			c0.2-0.3,0.4-0.5,0.6-0.8c0.2-0.2,0.4-0.5,0.6-0.7c0.2-0.2,0.4-0.4,0.6-0.6c0.4-0.4,0.8-0.7,1.1-0.9c0.4-0.2,0.7-0.4,1-0.5
			c0.6-0.3,0.9-0.4,0.9-0.4l0.1,0.2c0,0-0.2,0.3-0.6,0.8c-0.2,0.2-0.4,0.5-0.7,0.8c-0.2,0.3-0.5,0.7-0.8,1.1
			c-0.3,0.4-0.6,0.8-0.8,1.3c-0.1,0.2-0.3,0.5-0.4,0.7c-0.1,0.3-0.3,0.5-0.4,0.8c-0.1,0.3-0.3,0.5-0.4,0.8c-0.1,0.3-0.3,0.6-0.4,0.9
			c-0.3,0.6-0.5,1.2-0.7,1.8c-0.2,0.6-0.3,1.3-0.4,1.9c-0.1,0.6-0.2,1.3-0.2,1.9c-0.1,0.6-0.1,1.2-0.1,1.8c0,0.6,0,1.1,0,1.6
			c0.1,2,0.4,3.4,0.4,3.4L208.6,94z"/>
	</g>
	<g>
		<path fill="#6B370C" d="M203,89.6c0,0-0.1-1,0-2.6c0.1-0.8,0.2-1.7,0.5-2.6c0.1-0.5,0.3-1,0.5-1.5c0.2-0.5,0.4-1,0.7-1.4
			c0.3-0.5,0.5-1,0.8-1.4c0.1-0.2,0.3-0.4,0.5-0.7c0.2-0.2,0.4-0.4,0.5-0.6c0.3-0.4,0.7-0.7,1.1-0.9c0.2-0.1,0.4-0.3,0.6-0.4
			c0.2-0.1,0.4-0.2,0.6-0.3c0.4-0.2,0.7-0.3,1-0.4c0.3-0.1,0.6-0.1,0.8-0.2c0.5-0.1,0.7-0.1,0.7-0.1l0,0.1c0,0-0.2,0.2-0.6,0.4
			c-0.2,0.1-0.4,0.3-0.7,0.4c-0.2,0.2-0.5,0.4-0.8,0.6c-0.3,0.2-0.6,0.5-0.9,0.8c-0.1,0.1-0.3,0.3-0.5,0.4c-0.1,0.2-0.3,0.3-0.5,0.5
			c-0.2,0.2-0.3,0.3-0.5,0.5c-0.1,0.2-0.3,0.4-0.5,0.5c-0.3,0.3-0.6,0.7-0.9,1.1c-0.3,0.4-0.5,0.8-0.7,1.3c-0.2,0.4-0.4,0.9-0.6,1.3
			c-0.3,0.9-0.6,1.7-0.8,2.5c-0.4,1.5-0.4,2.5-0.4,2.5L203,89.6z"/>
	</g>
	<g>
		<path fill="#6B370C" d="M266.7,84.9c0,0-0.5-1.2-1.6-2.8c-0.3-0.4-0.6-0.8-1-1.3c-0.4-0.4-0.7-0.9-1.2-1.3
			c-0.4-0.4-0.9-0.9-1.4-1.3c-0.5-0.4-1-0.8-1.5-1.2c-0.5-0.4-1.1-0.7-1.6-1c-0.6-0.3-1.1-0.6-1.6-0.9c-0.5-0.3-1-0.5-1.5-0.8
			c-0.5-0.3-1-0.5-1.4-0.8c-0.4-0.2-0.8-0.5-1.2-0.7c-0.4-0.2-0.7-0.4-0.9-0.5c-0.5-0.3-0.8-0.5-0.8-0.5l0-0.2c0,0,0.3,0,0.9,0
			c0.3,0,0.7,0.1,1.1,0.1c0.4,0,0.9,0.2,1.4,0.3c0.5,0.1,1,0.3,1.6,0.5c0.6,0.2,1.1,0.5,1.7,0.8c0.6,0.3,1.1,0.7,1.7,1.1
			c0.5,0.4,1.1,0.9,1.6,1.3c0.5,0.5,1,0.9,1.5,1.4c0.5,0.5,0.9,1,1.3,1.5c0.8,1,1.4,2,1.9,2.9c0.9,1.8,1.2,3.1,1.2,3.1L266.7,84.9z"
			/>
	</g>
	<g>
		<path fill="#6B370C" d="M242.8,78.4c0,0-0.6-1-1.8-2.3c-0.6-0.6-1.3-1.3-2.1-2c-0.4-0.3-0.8-0.7-1.3-1c-0.5-0.3-0.9-0.6-1.4-0.8
			l-0.7-0.4c-0.3-0.1-0.5-0.2-0.8-0.3c-0.5-0.2-1-0.3-1.5-0.5c-0.5-0.2-1-0.3-1.4-0.4c-0.4-0.1-0.9-0.2-1.3-0.3
			c-0.4-0.1-0.8-0.2-1.1-0.3c-0.3-0.1-0.6-0.1-0.9-0.2c-0.5-0.1-0.8-0.2-0.8-0.2l0-0.2c0,0,0.3-0.1,0.8-0.3c0.3-0.1,0.6-0.2,0.9-0.3
			c0.4-0.1,0.8-0.1,1.3-0.1c0.2,0,0.5,0,0.7,0c0.2,0,0.5,0.1,0.8,0.1c0.5,0.1,1.1,0.1,1.7,0.3c0.6,0.2,1.1,0.4,1.6,0.7
			c0.3,0.2,0.5,0.3,0.8,0.5L237,71c0.5,0.3,1,0.7,1.4,1.1c0.4,0.4,0.9,0.8,1.3,1.2c0.4,0.4,0.7,0.8,1,1.2c0.3,0.4,0.6,0.8,0.8,1.2
			c1,1.5,1.4,2.6,1.4,2.6L242.8,78.4z"/>
	</g>
	<g>
		<path fill="#6B370C" d="M256.3,83c0,0-0.1-0.3-0.3-0.9c-0.2-0.6-0.5-1.4-1-2.2c-0.2-0.5-0.5-0.9-0.8-1.4c-0.3-0.5-0.6-1-1.1-1.5
			c-0.4-0.5-0.8-1-1.3-1.4c-0.4-0.5-1-0.9-1.5-1.3c-0.5-0.4-1.1-0.7-1.6-1.1c-0.6-0.3-1.1-0.5-1.7-0.8c-0.6-0.2-1.1-0.5-1.6-0.8
			c-0.2-0.1-0.5-0.2-0.8-0.3c-0.2-0.1-0.5-0.2-0.7-0.3c-0.5-0.2-0.9-0.4-1.3-0.5c-0.4-0.1-0.7-0.3-1-0.4c-0.6-0.2-0.9-0.4-0.9-0.4
			l0-0.2c0,0,0.4,0,1-0.1c0.3,0,0.7,0,1.1,0c0.4,0,0.9,0.1,1.4,0.2c0.5,0.1,1.1,0.2,1.7,0.4c0.6,0.2,1.2,0.4,1.8,0.7
			c0.6,0.3,1.2,0.7,1.8,1.1c0.5,0.5,1.1,0.9,1.6,1.4c0.5,0.5,1,1,1.5,1.6c0.5,0.5,0.9,1.1,1.2,1.7c0.4,0.5,0.7,1.1,0.9,1.7
			c0.2,0.6,0.5,1.1,0.6,1.6c0.7,2,0.8,3.4,0.8,3.4L256.3,83z"/>
	</g>
	
		<path fill="#FBCA9E" stroke="#CF9669" stroke-width="2.0366" stroke-linecap="round" stroke-linejoin="round" stroke-miterlimit="10" d="
		M207.8,99.1c0,0-1.4-7.7-8.7-5.7c-7.7,2.1-6.4,16.1,1.4,19.3c2.9,1.2,6.1,0.4,6.1,0.4"/>
	<g>
		<path fill="#6B370C" d="M247.7,68.3c0,0-0.2-0.2-0.6-0.4c-0.4-0.2-1-0.5-1.8-0.8c-0.7-0.3-1.6-0.5-2.6-0.7c-1-0.2-2-0.3-3-0.4
			c-0.5,0-1,0-1.6,0c-0.5,0-1,0-1.5,0.1c-0.5,0-1,0-1.4,0c-0.4,0-0.9,0-1.3,0c-0.4,0-0.8-0.1-1.1-0.1c-0.3,0-0.6-0.1-0.9-0.1
			c-0.5-0.1-0.8-0.1-0.8-0.1l0-0.2c0,0,0.2-0.2,0.7-0.4c0.4-0.2,1.1-0.5,1.9-0.7c0.4-0.1,0.9-0.2,1.3-0.3c0.5-0.1,1-0.1,1.5-0.1
			c0.5,0,1.1,0.1,1.6,0.1c0.5,0.1,1.1,0.2,1.7,0.3c1.1,0.2,2.2,0.5,3.2,0.9c0.5,0.2,1,0.4,1.4,0.6c0.4,0.2,0.8,0.4,1.2,0.6
			c0.7,0.4,1.3,0.8,1.6,1.1c0.4,0.3,0.6,0.5,0.6,0.5L247.7,68.3z"/>
	</g>
	
		<use xlink:href="#New_Symbol_1"  width="3.6" height="5.8" x="-1.8" y="-2.9" transform="matrix(2.0366 0 0 -2.0366 311.7322 439.588)" overflow="visible"/>
	
		<use xlink:href="#New_Symbol_1"  width="3.6" height="5.8" id="XMLID_9_" x="-1.8" y="-2.9" transform="matrix(2.0366 0 0 -2.0366 304.8589 447.607)" overflow="visible"/>
	
		<use xlink:href="#New_Symbol_1"  width="3.6" height="5.8" x="-1.8" y="-2.9" transform="matrix(2.0366 0 0 -2.0366 298.7032 456.7873)" overflow="visible"/>
	
		<use xlink:href="#New_Symbol_1"  width="3.6" height="5.8" x="-1.8" y="-2.9" transform="matrix(1.7536 0 0 -1.7536 318.1508 441.2117)" overflow="visible"/>
	
		<use xlink:href="#New_Symbol_1"  width="3.6" height="5.8" x="-1.8" y="-2.9" transform="matrix(1.7536 0 0 -1.7536 311.7322 451.9161)" overflow="visible"/>
	
		<use xlink:href="#New_Symbol_1"  width="3.6" height="5.8" x="-1.8" y="-2.9" transform="matrix(2.0227 0.3156 0.283 -1.8139 286.3947 464.7332)" overflow="visible"/>
	
		<use xlink:href="#New_Symbol_1"  width="3.6" height="5.8" x="-1.8" y="-2.9" transform="matrix(1.6959 0.2646 0.2373 -1.5208 292.9883 464.8405)" overflow="visible"/>
	
		<use xlink:href="#New_Symbol_1"  width="3.6" height="5.8" x="-1.8" y="-2.9" transform="matrix(1.4533 0.2267 0.2033 -1.3033 280.0978 466.7196)" overflow="visible"/>
	
		<use xlink:href="#New_Symbol_6"  width="69.7" height="69.7" id="XMLID_10_" x="-34.9" y="-34.9" transform="matrix(1.5612 -0.5872 -0.5872 -1.5612 350.4751 409.4104)" overflow="visible"/>
	<g>
		<g>
			<circle id="SVGID_3_" fill="#FFFFFF" cx="363.4" cy="404.9" r="35.1"/>
		</g>
		<g>
			<defs>
				<circle id="SVGID_9_" cx="363.4" cy="404.9" r="35.1"/>
			</defs>
			<clipPath id="SVGID_10_">
				<use xlink:href="#SVGID_9_"  overflow="visible"/>
			</clipPath>
			<g clip-path="url(#SVGID_10_)">
				<path fill="#FFFFFF" stroke="#808184" stroke-width="1.0183" stroke-miterlimit="10" d="M343,399.5c-2.8,8.2-3.6,17.1-2.3,25.8"
					/>
				<path fill="#FFFFFF" stroke="#808184" stroke-width="1.0183" stroke-miterlimit="10" d="M330.6,394.1c3.1-1.9,6.7-2.9,10.2-2.7"
					/>
				<path fill="#FFFFFF" stroke="#808184" stroke-width="1.0183" stroke-miterlimit="10" d="M347.7,382.2c0.8-3.1,2.4-6.1,4.4-8.5"
					/>
				<path fill="#FFFFFF" stroke="#808184" stroke-width="1.0183" stroke-miterlimit="10" d="M359.3,386.6c6.2-3,13.1-4.6,19.9-4.8"
					/>
				<path fill="#FFFFFF" stroke="#808184" stroke-width="1.0183" stroke-miterlimit="10" d="M381.1,411c3.3-5.8,5.2-12.4,5.4-19"/>
				<path fill="#FFFFFF" stroke="#808184" stroke-width="1.0183" stroke-miterlimit="10" d="M392.1,391.2c2.5,1.7,4.7,3.9,6.4,6.4"
					/>
				<path fill="#FFFFFF" stroke="#808184" stroke-width="1.0183" stroke-miterlimit="10" d="M385.2,418.5c3.6,0.2,7.3-0.2,10.8-1.1"
					/>
				<path fill="#FFFFFF" stroke="#808184" stroke-width="1.0183" stroke-miterlimit="10" d="M372.3,438.2c2.5-2.9,4.2-6.3,5.1-10"/>
				<path fill="#FFFFFF" stroke="#808184" stroke-width="1.0183" stroke-miterlimit="10" d="M347.5,426.7c7.3,1.4,15.1-0.2,21.4-4.1
					"/>
				<path fill="#FFFFFF" stroke="#808184" stroke-width="1.0183" stroke-miterlimit="10" d="M356.1,397c5.9,4.3,10.7,10,14.2,16.3"
					/>
				<path fill="#FFFFFF" stroke="#808184" stroke-width="1.0183" stroke-miterlimit="10" d="M327.8,404.7c1,7,4.8,13.5,10.3,17.9"/>
				<path fill="#FFFFFF" stroke="#808184" stroke-width="1.0183" stroke-miterlimit="10" d="M359.8,369c7.9-0.3,16,2.7,21.8,8.2"/>
				<g>
					<path fill="#1F191A" stroke="#808184" stroke-width="1.0183" stroke-miterlimit="10" d="M386,413.6c0.7,1.5,1.1,3,1.5,4.6
						c-2.6,4.5-6.1,8.6-10.3,11.7c-4.6-0.7-9-2.4-12.8-5c0.7-5,2.2-9.8,4.3-14.4c4.5-1.7,9.2-2.7,14-3
						C383.9,409.4,385.1,411.4,386,413.6z"/>
					<path fill="#1F191A" stroke="#808184" stroke-width="1.0183" stroke-miterlimit="10" d="M342.2,386.8c2-2.5,4.1-4.8,6.5-6.8
						c4.5,1.4,8.7,3.2,12.9,5.4c-0.4,4.7-1.4,9.4-3.1,13.9c-5.1,2.1-10.5,3-16,2.9c-1.8-3.3-3-6.8-3.6-10.5
						C339.9,390,341,388.4,342.2,386.8z"/>
					<path fill="#1F191A" stroke="#808184" stroke-width="1.0183" stroke-miterlimit="10" d="M381.4,376.1c-1-0.5-2.1-1.1-3.2-1.6
						c-1.5,2.4-2.7,5.1-3.5,7.8c4.6,3.1,8.7,7,12,11.5c2.6,0,5.1-0.3,7.6-1.1c-0.9-3.9-2.6-7.7-4.9-11
						C386.9,379.5,384.2,377.6,381.4,376.1z"/>
					<path fill="#1F191A" stroke="#808184" stroke-width="1.0183" stroke-miterlimit="10" d="M399.5,403.9c-0.3,7-2.1,13.9-5.2,20.2
						c0.2-2-0.2-4-1-5.8c2.9-4.8,5-9.9,6.3-15.4C399.5,403.2,399.5,403.6,399.5,403.9z"/>
					<path fill="#1F191A" stroke="#808184" stroke-width="1.0183" stroke-miterlimit="10" d="M376.9,437.5c-1.2-0.3-2.4-0.7-3.6-1
						c-3,1.1-6.2,1.5-9.3,1.3c-2.4,1.7-5.7,2.1-8.5,1.2c7.3,1.9,15.1,1.4,22.2-1.2C377.4,437.7,377.1,437.6,376.9,437.5z"/>
					<path fill="#1F191A" stroke="#808184" stroke-width="1.0183" stroke-miterlimit="10" d="M330.8,391.6c-0.1-0.2-0.1-0.3-0.2-0.5
						c-2.3,4.5-3.7,9.5-4.1,14.6c1.3-4,3.1-7.8,5.4-11.4C331.5,393.5,331.1,392.6,330.8,391.6z"/>
					<path fill="#1F191A" stroke="#808184" stroke-width="1.0183" stroke-miterlimit="10" d="M364.3,368.7c0.1-0.1,0.2-0.2,0.4-0.3
						c-5.2-0.1-10.2,0.8-15,2.7c-0.2,1.4,0.6,2.8,1.9,3.5c3.2-1.1,6.3-2,9.5-3.1C362.2,370.6,363.3,369.6,364.3,368.7z"/>
					<path fill="#1F191A" stroke="#808184" stroke-width="1.0183" stroke-miterlimit="10" d="M349.8,432.9c0,0.4,0.1,0.8,0.1,1.1
						c-2.8-0.2-5.6-0.9-8.3-2c-2.6-2.1-4.9-4.4-7-6.9c-0.9-2.3-1.2-4.8-1-7.2c2.2-0.6,4.5-0.8,6.7-0.7c3.8,2.9,7.1,6.4,9.7,10.3
						C349.8,429.2,349.7,431.1,349.8,432.9z"/>
				</g>
			</g>
			<g clip-path="url(#SVGID_10_)">
				
					<circle id="SVGID_1_" fill="none" stroke="#525353" stroke-width="2.0366" stroke-miterlimit="10" cx="363.4" cy="404.9" r="35.1"/>
			</g>
		</g>
	</g>
</g>
</svg>
