<?xml version="1.0" encoding="utf-8"?>
<!-- Generator: Adobe Illustrator 19.1.0, SVG Export Plug-In . SVG Version: 6.00 Build 0)  -->
<svg version="1.1" id="Layer_1" xmlns="http://www.w3.org/2000/svg" xmlns:xlink="http://www.w3.org/1999/xlink" x="0px" y="0px"
	 width="500px" height="500px" viewBox="0 0 500 500" style="enable-background:new 0 0 500 500;" xml:space="preserve">
<style type="text/css">
	.st0{fill:#BCBCBC;stroke:#4F4F4F;stroke-width:2.01;stroke-miterlimit:10;}
	.st1{fill:#AEC6A8;stroke:#486D3F;stroke-width:2;stroke-linecap:round;stroke-linejoin:round;stroke-miterlimit:10;}
	.st2{clip-path:url(#SVGID_2_);}
	.st3{fill:#43BAB1;}
	.st4{fill:#DBDBDB;stroke:#918D8D;stroke-width:2.1581;stroke-linecap:round;stroke-linejoin:round;stroke-miterlimit:10;}
	.st5{fill:#7A5537;stroke:#5E3D25;stroke-width:2.1581;stroke-linecap:round;stroke-linejoin:round;stroke-miterlimit:10;}
	.st6{fill:#227C73;}
	.st7{fill:#515554;stroke:#2D3331;stroke-width:2;stroke-miterlimit:10;}
	.st8{fill:#F0CBA1;stroke:#C2986B;stroke-width:2;stroke-linecap:round;stroke-linejoin:round;stroke-miterlimit:10;}
	.st9{fill:#D3AF8C;stroke:#8C6C51;stroke-width:2;stroke-miterlimit:10;}
	.st10{fill:#A97C50;stroke:#7F5630;stroke-width:2.1581;stroke-linecap:round;stroke-linejoin:round;stroke-miterlimit:10;}
	.st11{fill:none;stroke:#7F5630;stroke-width:2.1581;stroke-linecap:round;stroke-linejoin:round;stroke-miterlimit:10;}
	.st12{fill:#404666;stroke:#6E7DAA;stroke-width:2;stroke-miterlimit:10;}
	.st13{fill:none;stroke:#6E7DAA;stroke-width:2;stroke-miterlimit:10;}
	.st14{fill:#6E7DAA;}
	.st15{fill:none;stroke:#6E7DAA;stroke-width:2;stroke-linecap:round;stroke-linejoin:round;}
	.st16{fill:none;stroke:#6E7DAA;stroke-width:2;stroke-linecap:round;stroke-linejoin:round;stroke-dasharray:2.9918,5.9836;}
	.st17{fill:#646C8E;stroke:#39415B;stroke-width:2;stroke-miterlimit:10;}
	.st18{fill:#C64E4E;stroke:#893D3D;stroke-width:2;stroke-miterlimit:10;}
	.st19{fill:#893D3D;}
	.st20{fill:#A33A3A;stroke:#702D2D;stroke-width:2;stroke-miterlimit:10;}
	.st21{fill:#231F20;}
	.st22{fill:#F0CBA1;}
	.st23{fill:none;stroke:#C2986B;stroke-width:2;stroke-linecap:round;stroke-linejoin:round;stroke-miterlimit:10;}
	.st24{fill:#F79838;stroke:#CC6632;stroke-width:2;stroke-linecap:round;stroke-linejoin:round;stroke-miterlimit:10;}
	.st25{fill:#4E6349;stroke:#404F3B;stroke-width:2;stroke-linecap:round;stroke-linejoin:round;stroke-miterlimit:10;}
	.st26{fill:#F79838;}
	.st27{fill:#CC6632;}
	.st28{fill:#698C61;stroke:#486D3F;stroke-width:2;stroke-linecap:round;stroke-linejoin:round;stroke-miterlimit:10;}
	.st29{fill:#81AA77;stroke:#486D3F;stroke-width:2;stroke-linecap:round;stroke-linejoin:round;stroke-miterlimit:10;}
</style>
<symbol  id="New_Symbol_11" viewBox="-2.794 -3.647 5.587 7.293">
	<path class="st0" d="M1.336-0.619C0.679-2.037-0.451-2.91-1.189-2.568s-0.804,1.768-0.147,3.186s1.787,2.291,2.525,1.949
		S1.993,0.799,1.336-0.619z"/>
</symbol>
<symbol  id="New_Symbol_14" viewBox="-3.191 -4.869 6.383 9.738">
	<path class="st1" d="M-1.902,0.54c-0.6-2.116-0.235-4.073,0.816-4.371s2.389,1.175,2.99,3.291s0.235,4.073-0.816,4.371
		S-1.302,2.656-1.902,0.54z"/>
</symbol>
<g>
	<defs>
		<rect id="SVGID_1_" width="500" height="500"/>
	</defs>
	<clipPath id="SVGID_2_">
		<use xlink:href="#SVGID_1_"  style="overflow:visible;"/>
	</clipPath>
	<g class="st2">
		<rect class="st3" width="500" height="500"/>
		<polygon class="st4" points="169.597,420.768 167.68,394.018 191.93,398.768 194.95,420.768 182.43,427.341 		"/>
		<path class="st5" d="M227.93,373.518l2.5,10.498c0,0,3.311,17.752,13.781,18.002l13.969-7c0,0,27.25-7.586,27.75-13.543
			c0,0-3.25-19.473-14.5-19.465c-11.069,0.008-18.578,7.008-18.578,7.008L227.93,373.518z"/>
		<g>
			<path class="st3" d="M306.93,456.045c0,0,9.5-4.278,16,2.722"/>
			<path class="st6" d="M306.891,455.954c0,0,0.953-0.563,2.53-1.07c0.787-0.257,1.729-0.514,2.771-0.655
				c0.519-0.082,1.064-0.113,1.619-0.158c0.556,0.012,1.128-0.045,1.697,0.027c0.573,0.035,1.147,0.087,1.71,0.2
				c0.281,0.052,0.568,0.086,0.84,0.157c0.271,0.08,0.532,0.178,0.792,0.27c0.521,0.181,0.983,0.452,1.395,0.745
				c0.207,0.141,0.409,0.278,0.604,0.41c0.171,0.164,0.337,0.323,0.496,0.475c0.31,0.308,0.593,0.586,0.803,0.869
				c0.2,0.295,0.365,0.555,0.491,0.775c0.254,0.436,0.364,0.701,0.364,0.701l-0.147,0.136c0,0-0.282-0.106-0.715-0.32
				c-0.218-0.105-0.47-0.24-0.748-0.398c-0.281-0.154-0.631-0.275-0.967-0.453c-0.336-0.182-0.709-0.35-1.114-0.5
				c-0.399-0.16-0.795-0.362-1.238-0.506c-0.212-0.092-0.43-0.181-0.645-0.291c-0.226-0.085-0.454-0.171-0.684-0.258
				c-0.457-0.201-0.952-0.31-1.449-0.427c-0.494-0.138-1.012-0.153-1.514-0.237c-0.507-0.028-1.012-0.071-1.502-0.062
				c-0.98,0.01-1.905,0.084-2.696,0.193c-1.584,0.228-2.614,0.561-2.614,0.561L306.891,455.954z"/>
		</g>
		<g>
			<path class="st3" d="M310.93,446.768c0,0,11-2.533,14,7.984c0,0,4.582-12.428,16.541,1.294"/>
			<path class="st6" d="M310.909,446.67c0.734-0.179,1.48-0.289,2.233-0.343c0.376-0.04,0.754-0.042,1.133-0.049
				c0.379-0.02,0.757,0.023,1.138,0.034c0.382,0.005,0.756,0.086,1.137,0.126c0.382,0.034,0.751,0.148,1.127,0.226
				c0.38,0.07,0.742,0.204,1.108,0.333c0.371,0.116,0.732,0.257,1.076,0.445c0.342,0.184,0.72,0.316,1.028,0.561l0.966,0.677
				l0.863,0.809c0.308,0.254,0.516,0.593,0.769,0.896c0.232,0.317,0.517,0.607,0.687,0.961l0.581,1.029
				c0.217,0.336,0.313,0.716,0.47,1.076l0.427,1.097l-1.427-0.054c0.177-0.49,0.368-0.89,0.591-1.315
				c0.221-0.416,0.462-0.823,0.738-1.213c0.542-0.783,1.211-1.505,2.014-2.108c0.796-0.61,1.775-1.042,2.801-1.205
				c1.025-0.181,2.074-0.077,3.024,0.197c0.471,0.148,0.935,0.309,1.363,0.53c0.444,0.194,0.838,0.455,1.249,0.689
				c0.383,0.266,0.782,0.519,1.129,0.82c0.355,0.294,0.72,0.574,1.039,0.901c1.33,1.248,2.427,2.681,3.372,4.192l-0.151,0.131
				c-0.355-0.271-0.698-0.55-1.032-0.834c-0.33-0.289-0.697-0.536-1.034-0.81c-0.332-0.28-0.688-0.529-1.035-0.785
				c-0.337-0.268-0.692-0.507-1.047-0.742c-0.349-0.246-0.706-0.466-1.065-0.683c-0.35-0.235-0.734-0.39-1.087-0.602
				c-0.371-0.164-0.732-0.362-1.109-0.482c-0.373-0.144-0.745-0.251-1.117-0.35c-0.747-0.168-1.481-0.227-2.195-0.147
				c-0.358,0.039-0.706,0.134-1.049,0.25c-0.338,0.132-0.678,0.278-0.998,0.482c-0.643,0.394-1.231,0.932-1.733,1.561
				c-0.255,0.31-0.49,0.643-0.702,0.991c-0.208,0.34-0.416,0.725-0.559,1.053l-0.809,1.86l-0.618-1.914l-0.326-1.009
				c-0.121-0.33-0.184-0.693-0.361-0.996l-0.462-0.95c-0.132-0.333-0.37-0.594-0.558-0.89c-0.208-0.281-0.372-0.603-0.633-0.84
				l-0.723-0.769l-0.828-0.658c-0.265-0.239-0.593-0.384-0.891-0.578c-0.298-0.198-0.619-0.354-0.952-0.489
				c-0.328-0.146-0.654-0.301-1.004-0.394c-0.346-0.101-0.685-0.24-1.044-0.3c-0.357-0.067-0.709-0.175-1.073-0.209
				c-0.363-0.04-0.725-0.113-1.092-0.123c-0.366-0.023-0.734-0.051-1.103-0.043c-0.737-0.008-1.479,0.04-2.206,0.156L310.909,446.67
				z"/>
		</g>
		<g>
			<path class="st3" d="M341.471,467.268c0,0,10.459-20.5,20.959-7.5"/>
			<path class="st6" d="M341.382,467.222c0,0,0.677-1.605,2.055-3.832c0.348-0.554,0.732-1.152,1.169-1.766
				c0.427-0.622,0.929-1.241,1.461-1.875c0.54-0.627,1.123-1.261,1.771-1.858c0.633-0.613,1.356-1.163,2.105-1.687
				c0.774-0.493,1.586-0.958,2.475-1.276c0.88-0.325,1.826-0.533,2.755-0.501c0.931-0.004,1.814,0.24,2.586,0.55
				c0.384,0.161,0.73,0.369,1.074,0.544c0.326,0.206,0.612,0.439,0.897,0.643c0.294,0.195,0.507,0.458,0.738,0.67
				c0.222,0.223,0.444,0.419,0.604,0.649c0.336,0.442,0.653,0.798,0.838,1.15c0.404,0.675,0.597,1.073,0.597,1.073l-0.156,0.126
				c0,0-0.376-0.251-0.968-0.712c-0.284-0.243-0.685-0.469-1.094-0.768c-0.415-0.291-0.915-0.565-1.438-0.851
				c-0.536-0.272-1.121-0.514-1.744-0.703c-0.634-0.143-1.286-0.301-1.98-0.289c-0.689-0.043-1.414,0.044-2.156,0.208
				c-0.747,0.156-1.477,0.497-2.2,0.855c-0.702,0.408-1.402,0.844-2.039,1.364c-0.649,0.501-1.251,1.051-1.818,1.603
				c-1.12,1.119-2.1,2.251-2.894,3.259c-1.575,2.031-2.461,3.517-2.461,3.517L341.382,467.222z"/>
		</g>
		<path class="st7" d="M318.188,435.865l-9.562-52.721c-0.326-1.795-2.669-2.284-3.683-0.767
			c-6.681,9.997-20.012,12.057-20.012,12.057c-16.618,1.004-27.442-5.123-32.958-9.501c-1.469-1.166-3.592,0.112-3.257,1.958
			l9.547,52.637c0.844,4.653,2.699,9.055,5.437,12.911c6.378,8.98,19.618,23.432,38.897,23.662c0,0,12.101-3.845,15.766-26.141
			C319.131,445.292,319.033,440.52,318.188,435.865z"/>
		<path class="st8" d="M260.764,217.768l1.398-9.509c0.535-3.636,1.204-7.253,2.101-10.816c1.642-6.519,2.698-16.135,3.122-20.515
			c0.162-1.677,0.158-3.367-0.083-5.034c-1.536-10.628-7.206-20.125-7.206-20.125s-16.551,0.442-15,4
			c2.833,6.5,4.903,19.667,4.903,19.667c2.403,18.833-2.236,47.667-2.236,47.667l8.482,31.917l3.414-5.708
			c1.386-2.317,2.181-4.931,2.329-7.627c0.184-3.344,0.104-8.716-0.809-17.165L260.764,217.768z"/>
		<path class="st9" d="M288.672,368.772l-52.305-201.005h-9.77l52.458,201.593c1.458,5.602,1.785,11.439,0.962,17.169l-1.087,7.571
			l7.23,21.949c0.806,2.447,4.329,2.365,4.974-0.129c0.999-3.863,1.513-9.459-0.101-16.82l-2.437-7l0.856-5.008
			C290.495,380.999,290.229,374.754,288.672,368.772z"/>
		<g>
			<path class="st3" d="M252.691,458.268c0,0,5.467-5,15.603,0c0,0,11.636-6,18.136,10c0,0,12.5-9.5,26.5,5.5c0,0,3.5-6,12,0
				c0,0,2-6.5,7.5-3l9.041,9.5l-65.541,12.5l-33.412-18.361L252.691,458.268z"/>
			<path class="st6" d="M252.691,458.268c0.509-0.461,1.097-0.832,1.705-1.157c0.611-0.323,1.256-0.585,1.921-0.787
				c0.328-0.119,0.67-0.184,1.009-0.266c0.338-0.092,0.684-0.133,1.029-0.183c0.345-0.059,0.693-0.096,1.042-0.104
				c0.349-0.007,0.7-0.055,1.049-0.027l1.05,0.045c0.35,0.024,0.694,0.086,1.042,0.128c0.702,0.066,1.375,0.262,2.063,0.406
				c0.347,0.065,0.671,0.199,1.008,0.296l1.004,0.318l1.947,0.791l-0.542,0.005c0.499-0.253,0.958-0.444,1.452-0.61
				c0.485-0.177,0.986-0.298,1.487-0.423c0.506-0.094,1.016-0.198,1.533-0.242c0.518-0.025,1.038-0.102,1.561-0.055
				c0.523,0.022,1.05,0.028,1.566,0.14c0.52,0.086,1.045,0.16,1.543,0.344c0.5,0.169,1.026,0.285,1.49,0.543
				c0.469,0.241,0.974,0.433,1.414,0.723l1.299,0.907c0.413,0.326,0.762,0.717,1.143,1.076l0.556,0.553
				c0.169,0.196,0.319,0.406,0.48,0.609l0.947,1.226c0.305,0.414,0.54,0.867,0.812,1.299c0.259,0.439,0.536,0.871,0.78,1.317
				l1.276,2.752l-1.531-0.42c0.601-0.422,1.137-0.743,1.731-1.043c0.577-0.314,1.182-0.556,1.781-0.814
				c0.617-0.209,1.223-0.455,1.856-0.61c0.634-0.151,1.259-0.346,1.909-0.42c0.645-0.098,1.288-0.218,1.943-0.222
				c0.652-0.025,1.305-0.092,1.956-0.019c0.648,0.064,1.31,0.036,1.947,0.18l1.92,0.366l1.857,0.591
				c0.633,0.165,1.193,0.497,1.788,0.75c0.578,0.285,1.196,0.505,1.725,0.872l1.64,1.012c0.567,0.312,1.032,0.754,1.544,1.135
				l1.505,1.186c0.922,0.873,1.824,1.766,2.735,2.65l-1.595,0.178c0.227-0.353,0.408-0.584,0.64-0.833
				c0.216-0.249,0.462-0.465,0.708-0.681c0.509-0.408,1.06-0.777,1.668-1.029c0.293-0.152,0.612-0.233,0.924-0.333
				c0.31-0.114,0.636-0.139,0.957-0.199c0.322-0.069,0.643-0.061,0.965-0.071c0.324-0.018,0.642-0.007,0.954,0.042
				c0.311,0.045,0.635,0.055,0.935,0.133l0.902,0.228c0.308,0.063,0.578,0.199,0.866,0.3c0.283,0.112,0.571,0.215,0.848,0.335
				l0.798,0.411c0.262,0.142,0.54,0.265,0.788,0.424l1.488,0.958l-1.532,0.523c0.085-0.261,0.164-0.45,0.253-0.665
				c0.096-0.204,0.182-0.412,0.292-0.61c0.208-0.4,0.44-0.79,0.722-1.16c0.274-0.371,0.582-0.732,0.956-1.046
				c0.176-0.165,0.367-0.318,0.585-0.448c0.208-0.139,0.415-0.277,0.658-0.369c0.237-0.095,0.462-0.224,0.719-0.266
				c0.251-0.052,0.503-0.129,0.757-0.147l0.763-0.015c0.251,0.009,0.487,0.07,0.731,0.107c0.247,0.035,0.482,0.093,0.696,0.183
				l0.663,0.244c0.216,0.088,0.402,0.209,0.604,0.314l0.594,0.328l0.086,0.047l0.102,0.107l9.041,9.5l1.264,1.328l-1.801,0.344
				l-65.541,12.5l-0.354,0.067l-0.315-0.173l-16.706-9.181l-4.176-2.295c-1.395-0.759-2.808-1.487-4.175-2.298l-8.2-4.868
				l-0.639-0.38l0.392-0.578l5.355-7.9L252.691,458.268z M252.691,458.268l-4.78,8.262l-4.818,8.239l-0.247-0.957l8.506,4.312
				c1.418,0.718,2.789,1.521,4.178,2.292l4.176,2.295l16.706,9.181l-0.669-0.106l65.541-12.5l-0.537,1.672l-9.041-9.5l0.187,0.154
				c-0.312-0.162-0.619-0.35-0.931-0.499l-0.472-0.171c-0.157-0.072-0.313-0.107-0.467-0.124c-0.154-0.02-0.311-0.07-0.461-0.073
				l-0.445,0.009c-0.147,0.008-0.283,0.063-0.427,0.085c-0.147,0.011-0.273,0.103-0.41,0.152c-0.14,0.044-0.265,0.135-0.392,0.22
				c-0.132,0.074-0.255,0.172-0.372,0.285c-0.245,0.2-0.466,0.459-0.668,0.734c-0.208,0.27-0.39,0.575-0.553,0.889
				c-0.088,0.154-0.154,0.32-0.23,0.48c-0.065,0.157-0.139,0.341-0.179,0.463l-0.404,1.25l-1.129-0.727l-1.35-0.869
				c-0.225-0.145-0.466-0.247-0.698-0.374l-0.702-0.364l-0.722-0.283c-0.242-0.085-0.478-0.209-0.726-0.254l-0.734-0.186
				c-0.244-0.067-0.49-0.065-0.734-0.103c-0.246-0.043-0.488-0.05-0.728-0.033c-0.24,0.008-0.485-0.006-0.715,0.051
				c-0.231,0.047-0.474,0.055-0.693,0.143c-0.222,0.074-0.454,0.124-0.661,0.237c-0.435,0.176-0.827,0.444-1.195,0.735
				c-0.175,0.156-0.356,0.311-0.507,0.488c-0.157,0.158-0.314,0.381-0.394,0.498l-0.712,1.034l-0.883-0.856l-2.588-2.507
				l-1.408-1.106c-0.478-0.355-0.915-0.776-1.437-1.058l-1.513-0.934c-0.489-0.344-1.051-0.534-1.578-0.797
				c-0.541-0.229-1.053-0.541-1.624-0.684l-1.674-0.536l-1.72-0.326c-0.571-0.134-1.16-0.1-1.739-0.16
				c-0.581-0.07-1.163-0.003-1.745,0.017c-0.584,0-1.158,0.112-1.735,0.198c-0.581,0.062-1.14,0.242-1.707,0.375
				c-0.567,0.137-1.11,0.361-1.663,0.545c-0.534,0.233-1.079,0.447-1.588,0.726c-0.511,0.253-1.033,0.577-1.444,0.861l-1.012,0.7
				l-0.519-1.12l-1.194-2.574c-0.226-0.412-0.48-0.804-0.718-1.207c-0.249-0.394-0.465-0.817-0.74-1.189l-0.863-1.086
				c-0.146-0.179-0.283-0.366-0.435-0.538l-0.496-0.471c-0.335-0.306-0.641-0.653-0.994-0.933l-1.077-0.818
				c-0.358-0.275-0.771-0.454-1.154-0.69c-0.379-0.254-0.815-0.37-1.23-0.545c-0.412-0.191-0.855-0.278-1.295-0.383
				c-0.436-0.131-0.89-0.162-1.343-0.213c-0.452-0.076-0.912-0.033-1.371-0.045c-0.459,0.008-0.918,0.071-1.377,0.123
				c-0.455,0.083-0.914,0.16-1.359,0.29c-0.443,0.113-0.901,0.275-1.288,0.437l-0.297,0.124l-0.245-0.119l-1.808-0.88l-0.935-0.366
				c-0.314-0.113-0.619-0.265-0.943-0.347c-0.643-0.178-1.278-0.413-1.939-0.518c-0.329-0.062-0.656-0.144-0.987-0.189l-0.999-0.11
				c-0.334-0.051-0.669-0.025-1.005-0.042c-0.337-0.02-0.672-0.012-1.007,0.019c-0.336,0.021-0.674,0.033-1.005,0.095
				c-0.333,0.053-0.671,0.088-0.996,0.178c-0.661,0.144-1.311,0.348-1.936,0.615C253.845,457.532,253.235,457.849,252.691,458.268z"
				/>
		</g>
		<polygon class="st3" points="244.211,449.768 262.43,469.768 304.43,479.768 320.93,479.768 338.43,467.268 356.93,485.768 
			286.43,508.268 214.93,479.018 		"/>
		<g>
			<path class="st3" d="M138.264,433.768c0,0,7.667-7.667,15.333-1.667c0,0,12.5-10.588,21.583-2.294"/>
			<path class="st6" d="M138.194,433.696c0.497-0.512,1.036-0.978,1.603-1.409c0.562-0.438,1.158-0.835,1.779-1.194
				c0.303-0.193,0.63-0.344,0.951-0.507c0.318-0.172,0.653-0.305,0.991-0.436c0.334-0.141,0.674-0.268,1.028-0.356
				c0.352-0.091,0.696-0.225,1.062-0.268c0.362-0.056,0.724-0.132,1.09-0.17l1.11-0.037c0.371-0.011,0.739,0.068,1.11,0.1
				l0.556,0.069l0.54,0.145c0.357,0.106,0.73,0.177,1.075,0.317l1.024,0.454c0.354,0.134,0.657,0.349,0.972,0.546l0.943,0.601
				l-0.883,0.017c0.795-0.689,1.594-1.279,2.436-1.855c0.838-0.571,1.702-1.109,2.599-1.597c0.449-0.243,0.9-0.484,1.364-0.704
				c0.463-0.221,0.93-0.442,1.415-0.619c0.48-0.19,0.974-0.352,1.469-0.509c0.498-0.154,1.007-0.269,1.522-0.367
				c0.516-0.093,1.036-0.168,1.563-0.2c0.525-0.049,1.056-0.031,1.583-0.023c0.529,0.039,1.057,0.068,1.579,0.177
				c0.522,0.085,1.037,0.225,1.54,0.379c0.505,0.16,0.99,0.366,1.461,0.597c0.47,0.229,0.92,0.501,1.343,0.797
				c0.431,0.288,0.822,0.627,1.191,0.98c0.39,0.327,0.704,0.737,1.035,1.112l-0.135,0.148c-0.443-0.239-0.831-0.535-1.272-0.746
				l-0.644-0.332c-0.225-0.09-0.445-0.184-0.661-0.282c-0.435-0.19-0.889-0.329-1.334-0.468l-0.675-0.181l-0.685-0.125
				c-0.455-0.076-0.912-0.14-1.373-0.153c-0.459-0.027-0.919-0.025-1.377-0.015c-0.46,0.033-0.918,0.067-1.375,0.136
				c-0.458,0.045-0.912,0.15-1.367,0.234c-0.456,0.087-0.905,0.212-1.361,0.319c-0.452,0.123-0.905,0.248-1.351,0.403
				c-0.895,0.297-1.79,0.628-2.66,1.027c-0.869,0.4-1.722,0.847-2.548,1.34c-0.82,0.491-1.646,1.033-2.38,1.597l-0.439,0.337
				l-0.444-0.32l-0.809-0.582c-0.271-0.194-0.532-0.408-0.836-0.539l-0.883-0.458c-0.299-0.144-0.622-0.219-0.933-0.334l-0.472-0.16
				l-0.489-0.087c-0.328-0.046-0.653-0.141-0.986-0.149l-1.004-0.039c-0.335,0.009-0.67,0.054-1.008,0.078
				c-0.34,0.01-0.668,0.112-1.003,0.17c-0.337,0.056-0.666,0.15-0.992,0.258c-0.329,0.098-0.658,0.199-0.974,0.34
				c-0.319,0.131-0.645,0.25-0.95,0.414c-0.625,0.299-1.235,0.638-1.817,1.022c-0.586,0.377-1.153,0.793-1.676,1.254
				L138.194,433.696z"/>
		</g>
		<g>
			<path class="st3" d="M220.264,435.934c0,0,10.5-4.667,16.833,4c0,0,4.333-7.5,11.583-1.833"/>
			<path class="st6" d="M220.224,435.842c1.425-0.677,2.955-1.117,4.523-1.38c0.39-0.083,0.79-0.098,1.186-0.15
				c0.397-0.058,0.798-0.046,1.2-0.063c0.402-0.024,0.804-0.002,1.207,0.031c0.403,0.028,0.808,0.052,1.206,0.141
				c0.397,0.083,0.807,0.123,1.197,0.243l1.176,0.361c0.386,0.139,0.752,0.329,1.131,0.494c0.386,0.154,0.738,0.368,1.084,0.595
				c0.343,0.229,0.717,0.423,1.036,0.685l0.95,0.8c0.336,0.252,0.597,0.57,0.877,0.875l0.838,0.92l-1.53,0.082
				c0.175-0.317,0.332-0.557,0.511-0.82c0.18-0.251,0.36-0.505,0.566-0.737c0.194-0.242,0.414-0.465,0.636-0.685
				c0.217-0.224,0.473-0.415,0.712-0.62c0.248-0.196,0.528-0.358,0.792-0.536c0.27-0.17,0.578-0.289,0.866-0.431
				c0.288-0.145,0.617-0.212,0.925-0.309c0.306-0.109,0.641-0.12,0.961-0.173c0.321-0.059,0.646-0.059,0.97-0.032
				c0.323,0.02,0.645,0.02,0.952,0.109c0.31,0.07,0.619,0.136,0.918,0.226l0.849,0.371c0.288,0.108,0.54,0.278,0.787,0.45
				c0.25,0.166,0.497,0.334,0.735,0.508c0.45,0.384,0.861,0.808,1.256,1.223l-0.123,0.158l-0.786-0.339
				c-0.26-0.108-0.501-0.243-0.758-0.34c-0.536-0.141-1.017-0.398-1.542-0.467l-0.76-0.155l-0.754-0.038
				c-0.248-0.037-0.493,0.014-0.734,0.039c-0.242,0.024-0.481,0.039-0.711,0.118c-0.23,0.07-0.469,0.09-0.686,0.206
				c-0.217,0.107-0.447,0.165-0.658,0.288c-0.427,0.224-0.84,0.482-1.234,0.78c-0.189,0.162-0.4,0.295-0.58,0.473
				c-0.183,0.173-0.382,0.33-0.553,0.519c-0.182,0.179-0.353,0.366-0.523,0.558c-0.16,0.188-0.333,0.407-0.451,0.572l-0.772,1.082
				l-0.759-1l-0.663-0.874c-0.224-0.29-0.431-0.6-0.706-0.84l-0.782-0.771c-0.264-0.255-0.58-0.442-0.868-0.67
				c-0.29-0.226-0.588-0.441-0.92-0.6c-0.325-0.169-0.639-0.367-0.976-0.518l-1.035-0.403c-0.346-0.137-0.716-0.198-1.075-0.302
				c-0.359-0.111-0.731-0.159-1.103-0.213c-0.371-0.062-0.744-0.124-1.123-0.134c-0.378-0.019-0.757-0.069-1.137-0.049
				c-0.38,0.014-0.764-0.009-1.144,0.035c-0.38,0.04-0.766,0.047-1.144,0.115c-0.38,0.057-0.763,0.104-1.139,0.189
				c-0.757,0.142-1.511,0.333-2.24,0.587L220.224,435.842z"/>
		</g>
		<path class="st10" d="M229.32,379.352c-0.668-2.804-1.389-5.834-1.389-5.834l24.922-4.5c0,0,7.509-7,18.578-7.008
			c11.25-0.008,14.5,19.465,14.5,19.465c-8.75,6.957-35.22,11.543-35.22,11.543c-4.97,3.25-6.499,9-6.499,9
			c-10.469-0.25-13.781-18.002-13.781-18.002S229.895,381.767,229.32,379.352z"/>
		<path class="st11" d="M239.252,400.392c0,0,3.327-8.603,8.298-11.853c0,0,28.106-5.974,36.856-12.931"/>
		<path class="st11" d="M254.18,368.518c-6.421,4.25-4.18,12.957-4.18,12.957s-3.452-2.707-3.386-7.707l-3.25,7.707
			c0,0-3.008-4.116-0.846-8.287"/>
		<path class="st10" d="M166.306,414.41c-0.798,5.482-2.381,18.796,0.374,22.897c0,0,10.627,3.961,21.688,1.211
			c0,0,17.27,8.572,33.398,6.115c2.095-0.319,3.478-2.046,3.922-4.119c0.909-4.246,0.736-14.286-3.971-18.025
			c-9.359-7.435-19.786-4.648-19.786-4.648s-7.034-8.115-8.75-8.232c0,0-8.235,0.121-13.117,10.16l-9.133-0.5l-3.027-5.164
			C167.491,413.4,166.423,413.603,166.306,414.41z"/>
		<path class="st11" d="M165.272,432.03c0,0,12.659,6.488,24.159,1.738c0,0,28.789,11.579,36.645,3.539"/>
		<path class="st11" d="M205.698,417.351c-5.482,0.834-10.025,9.283-10.025,9.283s-0.963-7.983,3.772-11.549l-12.348,6.683
			c0,0,0.069-6.688,8.576-10.469"/>
		<g>
			<path class="st3" d="M152.097,436.434c0,0,6.001-3.167,8.584,0c0,0,8.25-5.333,15.416,5.833c0,0,4.833-4,11,4.5"/>
			<path class="st6" d="M152.051,436.345c0.68-0.377,1.39-0.69,2.122-0.957c0.366-0.134,0.74-0.248,1.118-0.352
				c0.381-0.091,0.764-0.188,1.159-0.235c0.391-0.069,0.793-0.08,1.196-0.087c0.406,0.011,0.813,0.048,1.219,0.149
				c0.207,0.026,0.399,0.124,0.598,0.192c0.203,0.064,0.394,0.157,0.572,0.279c0.177,0.119,0.383,0.206,0.529,0.366l0.474,0.444
				l-0.608-0.096c0.37-0.235,0.71-0.424,1.084-0.586c0.365-0.173,0.748-0.297,1.128-0.433c0.39-0.098,0.774-0.231,1.175-0.29
				c0.399-0.066,0.798-0.148,1.205-0.157c0.406-0.032,0.813-0.053,1.221-0.015c0.409,0.015,0.817,0.041,1.217,0.132
				c0.402,0.077,0.813,0.128,1.196,0.274c0.385,0.135,0.791,0.23,1.16,0.404l1.106,0.531c0.363,0.187,0.686,0.434,1.033,0.648
				c0.347,0.216,0.685,0.443,0.982,0.717l0.927,0.784c0.309,0.263,0.562,0.571,0.847,0.856l0.828,0.878l1.43,1.918l-1.532-0.239
				c0.349-0.277,0.605-0.41,0.919-0.561c0.302-0.141,0.61-0.265,0.928-0.348c0.317-0.092,0.64-0.148,0.966-0.183
				c0.324-0.057,0.651-0.029,0.975-0.033c0.322,0.02,0.639,0.078,0.956,0.12c0.308,0.074,0.611,0.165,0.914,0.25
				c0.295,0.1,0.573,0.239,0.854,0.364c0.289,0.113,0.528,0.302,0.79,0.452c0.258,0.157,0.514,0.313,0.736,0.509l0.679,0.566
				c0.215,0.197,0.408,0.414,0.611,0.62c0.193,0.214,0.404,0.413,0.575,0.642l0.515,0.683c0.16,0.235,0.344,0.451,0.481,0.699
				c0.291,0.485,0.58,0.966,0.842,1.459l-0.162,0.117c-0.418-0.374-0.81-0.759-1.199-1.141c-0.188-0.197-0.417-0.353-0.621-0.53
				l-0.613-0.526c-0.2-0.179-0.432-0.313-0.642-0.473c-0.215-0.153-0.419-0.32-0.638-0.461c-0.458-0.244-0.879-0.553-1.346-0.734
				c-0.231-0.093-0.448-0.23-0.687-0.283c-0.236-0.064-0.464-0.151-0.694-0.211l-0.696-0.125c-0.232-0.004-0.462-0.029-0.689-0.023
				c-0.225,0.035-0.454,0.01-0.672,0.068c-0.222,0.035-0.439,0.082-0.648,0.157c-0.212,0.06-0.419,0.144-0.614,0.238
				c-0.186,0.081-0.407,0.23-0.498,0.283l-0.984,0.574l-0.548-0.813l-1.228-1.823l-0.681-0.85c-0.235-0.276-0.442-0.585-0.7-0.836
				l-0.778-0.752c-0.249-0.267-0.533-0.484-0.824-0.692c-0.29-0.208-0.566-0.446-0.872-0.628l-0.935-0.519
				c-0.313-0.173-0.656-0.268-0.984-0.408c-0.326-0.152-0.677-0.21-1.022-0.299c-0.343-0.103-0.696-0.144-1.052-0.178
				c-0.354-0.057-0.711-0.058-1.07-0.051c-0.36-0.016-0.716,0.038-1.075,0.075c-0.36,0.03-0.709,0.131-1.066,0.197
				c-0.347,0.103-0.7,0.193-1.035,0.329c-0.337,0.119-0.682,0.277-0.971,0.429l-0.35,0.185l-0.258-0.28l-0.341-0.371
				c-0.102-0.14-0.261-0.211-0.392-0.319c-0.131-0.11-0.278-0.198-0.441-0.26c-0.159-0.067-0.307-0.165-0.483-0.199
				c-0.335-0.113-0.689-0.174-1.052-0.213c-0.363-0.02-0.733-0.042-1.104-0.005c-0.372,0.014-0.743,0.078-1.115,0.136
				c-0.37,0.071-0.739,0.153-1.105,0.255c-0.73,0.204-1.454,0.457-2.146,0.772L152.051,436.345z"/>
		</g>
		<g>
			<path class="st3" d="M197.969,444.934c0,0,6.295-4.5,11.128,0"/>
			<path class="st6" d="M197.912,444.852c0,0,0.555-0.543,1.546-1.161c0.5-0.299,1.094-0.655,1.793-0.918
				c0.687-0.295,1.475-0.495,2.291-0.618c0.411-0.034,0.825-0.124,1.245-0.115c0.42-0.023,0.839-0.012,1.234,0.091
				c0.195,0.053,0.392,0.091,0.574,0.16c0.178,0.082,0.35,0.166,0.513,0.257c0.165,0.086,0.318,0.181,0.466,0.267
				c0.141,0.102,0.263,0.222,0.386,0.325c0.239,0.215,0.449,0.416,0.608,0.618c0.148,0.217,0.267,0.409,0.354,0.574
				c0.178,0.326,0.245,0.529,0.245,0.529l-0.136,0.146c0,0-0.227-0.033-0.562-0.12c-0.169-0.042-0.362-0.101-0.571-0.171
				c-0.214-0.064-0.468-0.098-0.712-0.176c-0.241-0.086-0.515-0.129-0.792-0.186c-0.138-0.028-0.275-0.067-0.413-0.11
				c-0.147-0.016-0.289-0.054-0.437-0.084c-0.286-0.095-0.591-0.172-0.911-0.252c-0.316-0.107-0.658-0.117-0.999-0.155
				c-0.686-0.023-1.391,0.036-2.055,0.15c-0.667,0.102-1.284,0.279-1.817,0.434c-1.056,0.346-1.734,0.68-1.734,0.68L197.912,444.852
				z"/>
		</g>
		<path class="st12" d="M175.93,257.768c0,0-23.989-19.709-30-33.5l5.5-15.5h55.5l8.5,34c0,0,13.39,11.124,21.407,19.182
			c3.558,3.576,5.937,8.141,6.821,13.107c2.775,15.595,9.564,55.62,8.31,67.211l3.937,18.5l-32.974,9c0,0-4.696-24.565-4.263-39.918
			c0.244-8.628-0.041-17.266-1.189-25.822c-0.815-6.076-1.852-11.969-3.049-14.76l-0.848-2.12c-0.309-0.771-1.439-0.638-1.55,0.186
			c-0.838,6.223-2.928,20.621-5.602,30.934c-3.5,13.5-15,54.5-8.5,76.5l-25.5,3l-9-9c0,0-3-41.5,9.5-69L175.93,257.768z"/>
		<path class="st13" d="M170.698,253.236l30.531,24.142c6.019,4.759,12.592,8.732,19.388,12.295c1.643,0.861,3.016,1.918,3.353,3.13
			"/>
		<path class="st13" d="M145.93,214.434c0,0,6.171,17.833,22.836,28.333c0,0,4.664-7.996-14.336-30.248L145.93,214.434z"/>
		<g>
			<path class="st14" d="M201.617,230.778c0,0,1.392,1.215,3.481,3.038c2.115,1.791,4.914,4.196,7.805,6.48
				c1.437,1.153,2.942,2.22,4.292,3.287c1.329,1.095,2.531,2.163,3.544,3.107c0.512,0.464,0.966,0.912,1.37,1.308
				c0.406,0.393,0.758,0.739,1.042,1.036c0.57,0.588,0.876,0.955,0.876,0.955l-0.116,0.163c0,0-0.441-0.176-1.181-0.537
				c-0.748-0.349-1.775-0.913-2.963-1.654c-0.601-0.362-1.225-0.789-1.88-1.249c-0.665-0.447-1.332-0.962-2.008-1.514
				c-1.345-1.11-2.663-2.429-4.023-3.692c-2.709-2.54-5.35-5.143-7.25-7.175c-1.919-2.011-3.132-3.414-3.132-3.414L201.617,230.778z
				"/>
		</g>
		<g>
			<g>
				<path class="st15" d="M150.14,227.643c0,0,0.345,0.388,1.006,1.107"/>
				<path class="st16" d="M155.255,233.095c10.113,10.445,34.05,33.58,61.198,48.673c0,0,4.188,9.5,5.727,26.5
					c1.394,15.397-0.899,38.177,2.99,52.738"/>
				<path class="st15" d="M226.057,363.87c0.171,0.478,0.351,0.944,0.54,1.397"/>
			</g>
		</g>
		<g>
			<path class="st14" d="M242.419,307.257c0,0,0.095-2.019,0.237-5.047c0.115-3.029,0.326-7.061,0.414-11.09
				c0.057-2.015-0.007-4.03,0.039-5.91c0.028-0.939,0.057-1.845,0.131-2.705c0.037-0.857,0.091-1.668,0.151-2.419
				c0.027-0.744,0.085-1.432,0.124-2.042c0.016-0.602,0.038-1.133,0.067-1.576c-0.022-0.854-0.019-1.382-0.019-1.382l0.191-0.058
				c0,0,0.224,0.459,0.538,1.338c0.118,0.436,0.249,0.972,0.39,1.595c0.106,0.619,0.214,1.318,0.309,2.087
				c0.162,1.53,0.255,3.32,0.201,5.226c-0.047,0.951-0.117,1.935-0.222,2.929c-0.099,0.994-0.201,2.003-0.302,3.013
				c-0.401,4.034-0.864,8.054-1.302,11.059c-0.413,3.007-0.748,5.003-0.748,5.003L242.419,307.257z"/>
		</g>
		<g>
			<path class="st14" d="M228.959,359.708c0,0,1.376-2.037,3.113-5.281c0.447-0.803,0.884-1.699,1.368-2.632
				c0.452-0.951,0.97-1.931,1.445-2.975c0.971-2.077,1.951-4.317,2.818-6.598c0.454-1.132,0.839-2.291,1.227-3.426
				c0.397-1.132,0.726-2.265,1.09-3.346c0.742-2.159,1.434-4.175,2.027-5.902c0.303-0.867,0.581-1.662,0.828-2.366
				c0.231-0.71,0.443-1.328,0.633-1.836c0.359-1.019,0.602-1.598,0.602-1.598l0.196,0.038c0,0-0.016,0.622-0.11,1.706
				c-0.036,0.544-0.099,1.203-0.183,1.958c-0.092,0.753-0.249,1.592-0.419,2.509c-0.088,0.458-0.18,0.936-0.275,1.43
				c-0.108,0.491-0.249,0.99-0.378,1.509c-0.271,1.033-0.546,2.128-0.947,3.222c-0.421,1.086-0.792,2.233-1.311,3.343
				c-0.5,1.116-0.959,2.268-1.505,3.383c-1.021,2.259-2.15,4.465-3.259,6.501c-1.105,2.039-2.232,3.887-3.245,5.438
				c-2.009,3.113-3.554,5.042-3.554,5.042L228.959,359.708z"/>
		</g>
		<g>
			<path class="st14" d="M242.452,359.693c0,0,0.133-0.126,0.351-0.375c0.213-0.256,0.537-0.631,0.882-1.158
				c0.369-0.508,0.747-1.175,1.172-1.937c0.195-0.391,0.403-0.808,0.622-1.247c0.21-0.443,0.393-0.928,0.605-1.422
				c0.22-0.491,0.407-1.02,0.587-1.572c0.179-0.552,0.397-1.11,0.561-1.705c0.307-1.197,0.713-2.43,0.954-3.758
				c0.137-0.658,0.276-1.327,0.418-2.004c0.103-0.685,0.207-1.378,0.312-2.077c0.246-1.39,0.335-2.828,0.475-4.255
				c0.161-1.425,0.155-2.868,0.206-4.279c0.059-1.411,0.04-2.803,0.031-4.149c0.016-1.346,0.078-2.646,0.063-3.883
				c-0.001-1.237,0.015-2.407,0.046-3.491c0.045-1.084,0.007-2.076,0.021-2.959c0.006-0.883,0.022-1.655,0.051-2.292
				c0.035-1.274,0.093-2.008,0.093-2.008l0.199-0.02c0,0,0.172,0.711,0.409,1.967c0.13,0.627,0.268,1.391,0.415,2.27
				c0.131,0.88,0.334,1.87,0.411,2.963c0.107,1.091,0.205,2.275,0.29,3.529c0.125,1.253,0.098,2.581,0.086,3.954
				c-0.044,1.372-0.06,2.791-0.243,4.227c-0.165,1.435-0.232,2.897-0.486,4.346c-0.218,1.45-0.385,2.905-0.709,4.315
				c-0.144,0.707-0.287,1.408-0.428,2.1c-0.18,0.685-0.357,1.361-0.532,2.026c-0.322,1.336-0.782,2.589-1.186,3.78
				c-0.21,0.594-0.472,1.152-0.693,1.701c-0.222,0.549-0.45,1.074-0.709,1.561c-0.251,0.49-0.471,0.968-0.716,1.405
				c-0.254,0.432-0.495,0.842-0.722,1.227c-0.488,0.749-0.918,1.397-1.33,1.89c-0.388,0.511-0.743,0.87-0.982,1.12
				c-0.248,0.246-0.387,0.36-0.387,0.36L242.452,359.693z"/>
		</g>
		<g>
			<path class="st14" d="M177.331,279.253c0,0,0.045-1.127,0.212-2.807c0.141-1.685,0.45-3.915,0.808-6.144
				c0.189-1.112,0.304-2.246,0.559-3.276c0.271-1.025,0.643-1.951,1.014-2.725c0.724-1.557,1.524-2.468,1.524-2.468l0.189,0.065
				c0,0,0.023,0.304,0.004,0.811c-0.017,0.507-0.074,1.217-0.184,2.05c-0.107,0.835-0.275,1.791-0.533,2.797
				c-0.285,0.997-0.699,2.038-1.015,3.106c-0.655,2.13-1.209,4.293-1.666,5.911c-0.429,1.626-0.715,2.71-0.715,2.71L177.331,279.253
				z"/>
		</g>
		<g>
			<path class="st14" d="M177.353,385.204c0,0,1.17-1.607,2.781-4.109c0.395-0.631,0.834-1.305,1.268-2.038
				c0.443-0.727,0.913-1.49,1.375-2.294c0.944-1.595,1.873-3.339,2.768-5.093c0.411-0.895,0.854-1.774,1.23-2.665
				c0.376-0.888,0.746-1.761,1.104-2.607c0.744-1.674,1.439-3.237,2.034-4.576c0.269-0.681,0.541-1.3,0.784-1.853
				c0.251-0.55,0.407-1.048,0.583-1.449c0.328-0.808,0.553-1.272,0.553-1.272l0.197,0.036c0,0,0.005,0.506-0.05,1.394
				c-0.036,0.442-0.048,0.992-0.155,1.599c-0.107,0.607-0.229,1.296-0.391,2.043c-0.164,0.745-0.417,1.527-0.672,2.363
				c-0.237,0.843-0.618,1.677-0.977,2.556c-0.373,0.873-0.863,1.722-1.331,2.598c-0.496,0.858-1,1.729-1.504,2.6
				c-1.045,1.716-2.119,3.409-3.193,4.948c-1.049,1.555-2.122,2.94-3.041,4.122c-1.845,2.36-3.206,3.823-3.206,3.823
				L177.353,385.204z"/>
		</g>
		<path class="st17" d="M162.968,384.11c5.535,2.086,24.633,8.875,34.486,7.177c0.757-0.13,1.475,0.339,1.663,1.083
			c0.565,2.238,0.552,9.098-1.274,15.19c-0.364,1.214-1.485,2.036-2.752,2.046c-4.482,0.034-15.94-0.657-32.08-7.187
			c-0.986-0.399-1.666-1.319-1.775-2.377c-0.34-3.279-0.939-10.472-0.21-14.831C161.175,384.316,162.118,383.79,162.968,384.11z"/>
		<path class="st17" d="M219.17,361.321c0.055,3.825,2.942,13.432,5.808,16.259c0.996,0.982,2.707,0.681,4.017,0.192
			c3.211-1.197,11.459-4.21,15.215-5.006c4.719-1,15.123-7.5,15.123-7.5s-0.948-7.758-2.492-11.647
			c-0.405-1.02-1.486-1.595-2.559-1.366l-33.629,7.181C219.774,359.634,219.157,360.419,219.17,361.321z"/>
		<g>
			<path class="st14" d="M191.844,387.218c0,0,0.216-0.434,0.486-1.26c0.268-0.822,0.61-2.009,0.946-3.454
				c0.331-1.447,0.659-3.147,0.984-4.973c0.322-1.827,0.606-3.787,0.867-5.749c0.253-1.965,0.403-3.942,0.629-5.784
				c0.274-1.834,0.556-3.546,0.881-5.004c0.58-2.926,1.233-4.858,1.233-4.858l0.199,0.02c0,0,0.241,2.022,0.158,5.024
				c-0.058,1.499-0.138,3.249-0.407,5.103c-0.265,1.854-0.728,3.806-1.115,5.765c-0.412,1.957-0.848,3.908-1.311,5.726
				c-0.452,1.82-0.957,3.499-1.432,4.924c-0.484,1.423-0.931,2.593-1.303,3.39c-0.362,0.796-0.641,1.229-0.641,1.229
				L191.844,387.218z"/>
		</g>
		<g>
			<path class="st14" d="M177.529,300.284c0,0-0.086,1.256-0.289,3.131c-0.177,1.88-0.524,4.369-0.901,6.862
				c-0.2,1.244-0.321,2.509-0.588,3.665c-0.282,1.151-0.664,2.201-1.062,3.079c-0.388,0.879-0.792,1.589-1.12,2.061
				c-0.328,0.474-0.545,0.723-0.545,0.723l-0.185-0.076c0,0,0.001-0.338,0.056-0.891c0.027-0.276,0.059-0.61,0.097-0.994
				c0.048-0.378,0.102-0.804,0.161-1.269c0.13-0.925,0.306-1.995,0.575-3.127c0.297-1.123,0.72-2.303,1.048-3.508
				c0.678-2.405,1.271-4.837,1.765-6.653c0.475-1.822,0.792-3.037,0.792-3.037L177.529,300.284z"/>
		</g>
		<path class="st8" d="M251.18,261.268h-1.249c-1.249,0-2.382-0.714-2.923-1.84c-1.434-2.985-4.149-9.16-5.25-15.197
			c-0.262-1.435-0.304-2.894-0.151-4.346c0.213-2.026,0.66-5.132,1.544-7.67c0.425-1.218,1.878-1.747,2.976-1.07
			c1.548,0.954,3.548,2.909,4.598,6.86C252.59,245.026,251.18,261.268,251.18,261.268z"/>
		<path class="st8" d="M259.264,228.434c-0.914,0.071-1.79,1.525-2.512,3.245c-1.176,2.801-1.712,5.824-1.713,8.862
			c-0.001,3.149-0.358,7.56-2.348,7.56c-3.094,0-6.094-8.833-2.314-17.252c0,0-1.141-7.081-0.377-12.081"/>
		<path class="st18" d="M138.93,141.768l8.797-12.818c1.905-2.776,12.342-13.415,12.342-13.415s8.223-11.339,13.493-18.385
			c2.747-3.672,6.674-6.282,11.134-7.35l0,0c2.856-0.684,5.804-0.9,8.729-0.639l25.505,2.273c0,0,20.519,4.524,31.239,22.168
			c1.556,2.561,2.646,5.38,3.309,8.302l1.732,7.632c0.688,3.032,1.74,5.969,3.135,8.748l3.252,6.483l-7.66,7l-11.418,2.333
			l-4.921-8.667c0,0-11.333,16.667-14.667,30.333c-3.333,13.667-7.333,21.333-7.333,21.333s2.333,12.667-0.667,14
			c0,0,3,6.333,6,10.333c0,0-0.333,5.333-13.667,6.667c0,0-6-5.667-7-13.667c0,0-3.333,8-8,10.333c0,0-7.235-7.442-15.031-10.442
			c-3.235-1.245-6.853-0.973-9.923,0.637c-4.865,2.551-13.091,7.053-14.713,9.138c-1.73,2.224-5.841,10.31-7.852,14.345
			c-0.493,0.989-1.913,0.954-2.353-0.059c-1.684-3.873-4.375-12.419-2.89-25.268c0.38-3.285,1.262-6.495,2.544-9.543
			c1.315-3.126,3.217-7.23,5.219-10.141c0,0,1.737-11.532,4.333-15s7.333-10.667,7.333-10.667l-3-16L138.93,141.768z"/>
		<g>
			<path class="st19" d="M165.094,147.718c1.823-3.601,3.659-7.195,5.546-10.759l0.101-0.191l0.277-0.101
				c0.342-0.125,0.76-0.329,1.126-0.542c0.371-0.223,0.745-0.448,1.085-0.724c0.354-0.255,0.682-0.545,1.002-0.844
				c0.337-0.278,0.608-0.631,0.912-0.943c0.295-0.322,0.541-0.691,0.813-1.032c0.269-0.344,0.472-0.741,0.71-1.107
				c0.248-0.36,0.409-0.777,0.619-1.161c0.206-0.387,0.403-0.778,0.562-1.191c0.167-0.408,0.369-0.799,0.531-1.21l0.472-1.245
				c0.181-0.408,0.311-0.836,0.437-1.266c0.126-0.43,0.279-0.855,0.419-1.285c0.227-0.874,0.458-1.755,0.712-2.642
				c0.186-0.898,0.399-1.8,0.663-2.712l0.2,0.009c0.111,0.935,0.17,1.881,0.203,2.83c-0.028,0.944-0.077,1.898-0.181,2.846
				c-0.17,0.939-0.287,1.896-0.571,2.82l-0.423,1.388c-0.171,0.453-0.377,0.896-0.576,1.34c-0.189,0.448-0.425,0.876-0.69,1.289
				c-0.258,0.416-0.492,0.843-0.805,1.225c-0.304,0.386-0.575,0.791-0.904,1.156c-0.335,0.359-0.64,0.741-0.999,1.076
				c-0.37,0.324-0.696,0.689-1.096,0.978c-0.381,0.309-0.77,0.606-1.188,0.865c-0.402,0.279-0.843,0.507-1.282,0.729
				c-0.454,0.217-0.882,0.403-1.425,0.555l0.378-0.292c-2.113,3.436-4.277,6.842-6.454,10.241L165.094,147.718z"/>
		</g>
		<g>
			<path class="st19" d="M236.03,135.757c0,0,0.258,1.208,0.345,3.053c0.051,0.922,0.074,2.004,0.002,3.16
				c-0.054,1.158-0.182,2.391-0.364,3.621c-0.067,0.62-0.207,1.225-0.292,1.836c-0.093,0.609-0.245,1.195-0.397,1.761
				c-0.165,0.562-0.39,1.084-0.612,1.573c-0.206,0.495-0.462,0.939-0.7,1.344c-0.238,0.406-0.458,0.774-0.69,1.082
				c-0.232,0.308-0.44,0.571-0.621,0.782c-0.358,0.423-0.592,0.645-0.592,0.645l-0.178-0.091c0,0,0.026-0.328,0.124-0.864
				c0.047-0.269,0.115-0.589,0.201-0.95c0.095-0.356,0.158-0.775,0.275-1.208c0.112-0.433,0.234-0.902,0.362-1.398
				c0.109-0.501,0.291-1.003,0.443-1.536c0.344-1.051,0.803-2.153,1.112-3.305c0.317-1.148,0.588-2.314,0.777-3.421
				c0.114-0.551,0.163-1.092,0.257-1.601c0.064-0.511,0.141-0.997,0.18-1.446c0.185-1.801,0.168-3.014,0.168-3.014L236.03,135.757z"
				/>
		</g>
		<g>
			<path class="st19" d="M177.525,184.234c0,0,0.581,1.325,1.641,3.205c0.276,0.464,0.556,0.975,0.894,1.491
				c0.325,0.523,0.666,1.073,1.047,1.624c0.738,1.116,1.614,2.239,2.524,3.318c0.492,0.507,0.94,1.052,1.455,1.513
				c0.523,0.451,0.98,0.951,1.482,1.362c0.485,0.429,0.91,0.898,1.364,1.279c0.221,0.2,0.437,0.394,0.645,0.581
				c0.201,0.201,0.399,0.39,0.609,0.542c0.409,0.322,0.774,0.644,1.102,0.932c0.334,0.275,0.649,0.482,0.895,0.687
				c0.5,0.392,0.785,0.656,0.785,0.656l-0.074,0.186c0,0-0.37-0.045-1.015-0.192c-0.32-0.077-0.722-0.159-1.156-0.313
				c-0.422-0.174-0.904-0.374-1.419-0.621c-0.53-0.226-1.02-0.592-1.573-0.942c-0.569-0.333-1.059-0.811-1.591-1.279
				c-0.536-0.466-0.969-1.058-1.444-1.622c-0.465-0.573-0.883-1.192-1.327-1.787c-0.836-1.228-1.617-2.481-2.255-3.704
				c-0.327-0.607-0.632-1.197-0.886-1.775c-0.272-0.568-0.487-1.124-0.703-1.627c-0.829-2.03-1.188-3.449-1.188-3.449
				L177.525,184.234z"/>
		</g>
		<g>
			<path class="st19" d="M168.894,148.811c0,0,0.143,1.35,0.416,3.346c0.292,1.997,0.704,4.649,1.347,7.232
				c0.175,0.642,0.334,1.287,0.542,1.906c0.191,0.624,0.404,1.227,0.565,1.823c0.337,1.185,0.582,2.311,0.816,3.279
				c0.216,0.974,0.409,1.793,0.524,2.382c0.124,0.585,0.166,0.943,0.166,0.943l-0.178,0.091c0,0-0.25-0.251-0.637-0.729
				c-0.39-0.476-0.887-1.198-1.372-2.121c-0.255-0.458-0.488-0.971-0.714-1.522c-0.247-0.545-0.426-1.146-0.614-1.766
				c-0.321-1.256-0.482-2.633-0.671-3.989c-0.351-2.72-0.515-5.44-0.485-7.48c-0.001-2.04,0.095-3.388,0.095-3.388L168.894,148.811z
				"/>
		</g>
		<g>
			<path class="st19" d="M173.964,135.668c0,0,0.315-0.028,0.866-0.077c0.542-0.061,1.357-0.086,2.263-0.198
				c0.895-0.128,1.924-0.421,2.906-0.928c0.491-0.255,0.97-0.563,1.411-0.928c0.447-0.374,0.916-0.797,1.341-1.219
				c0.425-0.437,0.848-0.874,1.218-1.342c0.368-0.464,0.729-0.921,1.079-1.363c0.357-0.433,0.702-0.851,1.029-1.248
				c0.328-0.398,0.631-0.783,0.915-1.141c0.568-0.738,1.042-1.353,1.373-1.784c0.325-0.449,0.548-0.704,0.548-0.704l0.188,0.067
				c0,0-0.003,0.333-0.074,0.912c-0.088,0.571-0.266,1.387-0.648,2.306c-0.185,0.462-0.419,0.949-0.709,1.44
				c-0.273,0.502-0.624,0.991-1.013,1.474c-0.799,0.952-1.836,1.785-2.857,2.591c-0.523,0.407-1.038,0.772-1.59,1.132
				c-0.564,0.362-1.156,0.65-1.746,0.871c-1.179,0.456-2.349,0.59-3.335,0.579c-0.982-0.034-1.742-0.115-2.301-0.159
				c-0.551-0.049-0.866-0.077-0.866-0.077V135.668z"/>
		</g>
		<g>
			<path class="st19" d="M167.4,185.748c0,0,0.295,0.893,1.026,2.072c0.195,0.287,0.388,0.605,0.635,0.914
				c0.237,0.315,0.484,0.645,0.769,0.964c0.549,0.653,1.211,1.278,1.898,1.86c0.369,0.267,0.708,0.56,1.088,0.793
				c0.386,0.227,0.737,0.476,1.085,0.711c0.346,0.237,0.672,0.479,0.961,0.743c0.307,0.238,0.601,0.464,0.861,0.697
				c0.264,0.227,0.497,0.456,0.721,0.635c0.217,0.192,0.405,0.367,0.556,0.522c0.305,0.306,0.469,0.516,0.469,0.516l-0.081,0.183
				c0,0-0.259,0.004-0.696-0.051c-0.435-0.059-1.066-0.144-1.757-0.412c-0.35-0.125-0.727-0.269-1.109-0.456
				c-0.38-0.191-0.762-0.43-1.147-0.689c-0.741-0.566-1.408-1.319-2.07-2.048c-0.645-0.751-1.245-1.534-1.719-2.325
				c-0.243-0.39-0.465-0.774-0.64-1.158c-0.19-0.374-0.326-0.75-0.465-1.086c-0.519-1.368-0.583-2.347-0.583-2.347L167.4,185.748z"
				/>
		</g>
		<g>
			<path class="st19" d="M163.718,201.425c0,0,1.818,0.598,4.509,1.591c2.701,0.972,6.258,2.381,9.784,3.899
				c0.882,0.382,1.765,0.765,2.634,1.141c0.87,0.379,1.718,0.776,2.519,1.205c0.383,0.203,0.76,0.403,1.129,0.599
				c0.358,0.17,0.707,0.336,1.048,0.498c0.707,0.316,1.401,0.58,2.053,0.806c1.304,0.457,2.445,0.744,3.251,0.953
				c0.816,0.192,1.282,0.301,1.282,0.301l0.006,0.2c0,0-0.481,0.134-1.34,0.214c-0.857,0.084-2.097,0.108-3.576-0.113
				c-0.74-0.106-1.537-0.28-2.361-0.551c-0.412-0.118-0.841-0.292-1.279-0.477c-0.43-0.185-0.766-0.369-1.216-0.603
				c-1.532-0.865-3.16-1.848-4.843-2.73c-3.357-1.783-6.803-3.419-9.371-4.686c-2.584-1.237-4.306-2.061-4.306-2.061
				L163.718,201.425z"/>
		</g>
		<g>
			<path class="st19" d="M205.399,213.923c0,0,0.884-0.412,2.155-1.105c1.256-0.717,2.936-1.669,4.383-2.859
				c0.73-0.584,1.341-1.28,1.894-1.881c0.276-0.293,0.544-0.576,0.797-0.845c0.242-0.272,0.467-0.534,0.652-0.79
				c0.378-0.508,0.643-0.997,0.803-1.381c0.093-0.19,0.128-0.35,0.18-0.462c0.045-0.114,0.069-0.175,0.069-0.175l0.199-0.02
				c0,0,0.029,0.06,0.082,0.174c0.047,0.115,0.14,0.29,0.186,0.522c0.058,0.234,0.108,0.528,0.102,0.87
				c-0.004,0.339-0.042,0.736-0.166,1.137c-0.22,0.816-0.711,1.69-1.402,2.414c-0.357,0.35-0.758,0.671-1.188,0.949
				c-0.428,0.281-0.857,0.559-1.301,0.806c-1.754,1.02-3.594,1.76-5.009,2.195c-1.407,0.454-2.374,0.641-2.374,0.641
				L205.399,213.923z"/>
		</g>
		<path class="st18" d="M228.93,123.018c0,0,2.231,8.545-13.5,32.812c0,0-4.268,11.81-6,19.938
			c-3.25,15.25-11.833,27.333-9.167,38.667"/>
		<path class="st20" d="M239.476,150.257c-0.032,3.072,0.072,10.016,1.621,11.178c0,0,17.574,8.727,25.273-5.27
			c0.78-1.418,0.927-3.099,0.383-4.623c-1.277-3.582-3.994-10.162-6.527-9.505c0,0-7.732,11.743-19.416,7.316
			C240.17,149.109,239.483,149.572,239.476,150.257z"/>
		<path class="st8" d="M224.18,117.018l2.645-9.108L213.74,95.518v-14.5l25.732,15.75l3.209,3l-8.654,9c0,0,1.183,8.199,0.587,8.699
			s-2.096,1.5-2.846,1.5c0,0-0.927,5.475-2.339,6.487C229.429,125.454,227.7,120.781,224.18,117.018z"/>
		<path class="st20" d="M236.032,106.682c0,0,2.637,7.631,2.24,13.892c-0.02,0.313,0.411,0.41,0.516,0.115
			c1.589-4.449,4.755-14.021,3.892-17.453l-1.345-2.069L236.032,106.682z"/>
		
			<use xlink:href="#New_Symbol_11"  width="5.587" height="7.293" id="XMLID_19_" x="-2.794" y="-3.647" transform="matrix(1 0 0 -1 222.1804 132.9297)" style="overflow:visible;"/>
		
			<use xlink:href="#New_Symbol_11"  width="5.587" height="7.293" x="-2.794" y="-3.647" transform="matrix(1 0 0 -1 214.3985 148.8145)" style="overflow:visible;"/>
		
			<use xlink:href="#New_Symbol_11"  width="5.587" height="7.293" x="-2.794" y="-3.647" transform="matrix(1 0 0 -1 206.8985 166.1208)" style="overflow:visible;"/>
		
			<use xlink:href="#New_Symbol_11"  width="5.587" height="7.293" x="-2.794" y="-3.647" transform="matrix(1 0 0 -1 199.7576 191.0175)" style="overflow:visible;"/>
		
			<use xlink:href="#New_Symbol_11"  width="5.587" height="7.293" x="-2.794" y="-3.647" transform="matrix(0.8982 -0.4396 -0.4396 -0.8982 196.964 208.7675)" style="overflow:visible;"/>
		<path class="st8" d="M159.18,155.768c0,0,20.5,13.25,50.25,13c0,0,22.25-12,26.5-7.75c0,0,9.228,8.155,8.198,16.312
			c-0.105,0.832-1.17,1.124-1.696,0.471c-1.028-1.276-2.479-3.237-3.502-5.283c0,0-3.265,5.441-8.569,8.723
			c-2.811,1.739-6.263,2.058-9.288,0.725c-1.445-0.637-3.02-1.574-4.394-2.948c0,0-56.357,6.901-80.37-13.278
			c-1.966-1.652-2.875-4.258-2.36-6.774c1.02-4.983,4.039-13.926,12.98-23.198l13.5,7.5L159.18,155.768z"/>
		<path class="st20" d="M133.808,150.768c0,0,18.341-0.587,25.479,4.679c0.826,0.609,1.973,0.476,2.667-0.279
			c1.618-1.761,4.204-4.847,5.181-7.534c0.252-0.694,0.212-1.462-0.077-2.141c-1.216-2.855-6.126-10.369-24.516-12.358
			c-1.287-0.139-2.542,0.483-3.205,1.596C136.77,139.041,130.793,149.706,133.808,150.768z"/>
		
			<ellipse transform="matrix(-0.8847 -0.4662 0.4662 -0.8847 408.5996 251.0774)" class="st8" cx="235.354" cy="75.002" rx="31.243" ry="24.28"/>
		
			<ellipse transform="matrix(-0.8575 -0.5145 0.5145 -0.8575 398.7572 274.0836)" class="st21" cx="237.338" cy="81.815" rx="2.111" ry="5.083"/>
		
			<ellipse transform="matrix(-0.8575 -0.5145 0.5145 -0.8575 429.8105 290.0764)" class="st21" cx="255.08" cy="85.511" rx="2.111" ry="5.083"/>
		<path class="st8" d="M244.209,92.268c5.721,8.667,14.744,2.5,9.066-6.167l-1.376-4.286l-7.69,6.035V92.268z"/>
		<polygon class="st22" points="239.429,90.601 248.93,93.434 251.899,89.054 255.08,74.768 247.255,79.434 		"/>
		<path class="st23" d="M228.21,90.768c0,0,7.771,10.677,19.044,7.898"/>
		<path class="st24" d="M216.187,69.601l6.91,6.167c0,0,5.333-2.345,7.167-7.922l-20.978-13.744c0,0-3.022,5.667,0.812,10.833
			L216.187,69.601z"/>
		<path class="st25" d="M267.764,79.268c0,0,3.395,6.16,9.812,8.728c2.658,1.063,5.576-0.894,5.708-3.753
			c0.04-0.869,0.04-1.888-0.02-3.079l-7-3.841L267.764,79.268z"/>
		<path class="st1" d="M241.941,32.633c0,0,2.459-3.731,6.703-1.57s2.679,5.217,2.679,5.217l-6.278,2.551L241.941,32.633z"/>
		<g>
			<path class="st26" d="M227.217,67.845c0,0-1.53,4.26-6.825,5.508"/>
			<path class="st27" d="M227.263,67.863c0,0-0.151,0.562-0.562,1.332c-0.201,0.387-0.469,0.826-0.811,1.256
				c-0.335,0.437-0.74,0.869-1.179,1.268c-0.438,0.399-0.904,0.78-1.387,1.069c-0.498,0.257-0.993,0.438-1.435,0.518
				c-0.434,0.106-0.811,0.119-1.075,0.111c-0.261,0.003-0.411-0.015-0.411-0.015c-0.029-0.003-0.05-0.03-0.047-0.059
				c0.002-0.015,0.013-0.03,0.024-0.038c0,0,0.124-0.095,0.342-0.227c0.214-0.146,0.531-0.298,0.885-0.52
				c0.177-0.11,0.381-0.197,0.578-0.326c0.196-0.129,0.418-0.232,0.638-0.357c0.446-0.235,0.941-0.467,1.39-0.781
				c0.903-0.618,1.68-1.424,2.194-2.087c0.521-0.663,0.763-1.178,0.763-1.178c0.012-0.025,0.042-0.036,0.067-0.024
				C227.259,67.814,227.27,67.84,227.263,67.863z"/>
		</g>
		<g>
			<path class="st26" d="M223.804,65.091c0,0-1.53,4.26-6.825,5.508"/>
			<path class="st27" d="M223.851,65.109c0,0-0.151,0.562-0.562,1.332c-0.201,0.387-0.469,0.826-0.811,1.256
				c-0.335,0.437-0.74,0.869-1.179,1.268c-0.438,0.399-0.904,0.78-1.387,1.069c-0.498,0.257-0.993,0.438-1.435,0.518
				c-0.434,0.106-0.811,0.119-1.075,0.111c-0.261,0.003-0.411-0.015-0.411-0.015c-0.029-0.003-0.05-0.03-0.047-0.059
				c0.002-0.015,0.013-0.03,0.024-0.038c0,0,0.124-0.095,0.342-0.227c0.214-0.146,0.531-0.298,0.885-0.52
				c0.177-0.11,0.381-0.197,0.578-0.326c0.196-0.129,0.418-0.232,0.638-0.357c0.446-0.235,0.941-0.467,1.39-0.781
				c0.903-0.618,1.68-1.424,2.194-2.087c0.521-0.663,0.763-1.178,0.763-1.178c0.012-0.025,0.042-0.036,0.067-0.024
				C223.846,65.06,223.857,65.086,223.851,65.109z"/>
		</g>
		<path class="st28" d="M208.687,55.621c0,0,14.743,12.473,27.345,17.732l31.046,3.969c0,0,4.287-11.933,1.125-24.618
			c-0.581-2.333-1.662-4.515-3.122-6.425c-1.79-2.343-4.638-5.76-7.943-8.585c-2.827-2.417-6.262-3.996-9.928-4.623
			c-3.868-0.661-9.854-1.296-16.915-0.713c-2.867,0.237-5.597,1.282-7.88,3.032C218.403,38.466,212.421,44.603,208.687,55.621z"/>
		<path class="st29" d="M236.032,73.353c0,0,11.497-11.097,29.198-5.508l16.433,10.408c0.997,0.632,1.602,1.73,1.602,2.91v2.938
			c0,0,0.333-4.167-7.333-3.083s-21.973,7.664-30.936,0C236.032,73.353,236.032,73.353,236.032,73.353z"/>
		
			<use xlink:href="#New_Symbol_14"  width="6.383" height="9.738" id="XMLID_14_" x="-3.191" y="-4.869" transform="matrix(0.8024 0 0 -0.8024 241.3966 46.659)" style="overflow:visible;"/>
		
			<use xlink:href="#New_Symbol_14"  width="6.383" height="9.738" x="-3.191" y="-4.869" transform="matrix(0.6042 -0.3963 -0.3963 -0.6042 261.597 50.6072)" style="overflow:visible;"/>
		
			<use xlink:href="#New_Symbol_14"  width="6.383" height="9.738" x="-3.191" y="-4.869" transform="matrix(0.5428 0.4676 0.4676 -0.5428 225.21 38.7678)" style="overflow:visible;"/>
		<path class="st8" d="M207.93,79.268c0,0-8.167-4.667-6.5-14.833s17.333-13.167,15.833,6.167"/>
		<path class="st20" d="M214.963,120.691c1.102-2.19,4.146-6.909,11.861-12.782c0.455-0.346,0.527-1.007,0.146-1.432l-10.517-11.71
			l-3.105-5.45c-0.69-1.212-2.146-1.767-3.462-1.306c-3.344,1.171-9.207,3.587-9.623,6.256l2.149,6.279
			c0.557,1.626,1.051,3.273,1.505,4.931c1.056,3.862,3.882,12.373,8.984,15.737C213.619,121.687,214.577,121.459,214.963,120.691z"
			/>
	</g>
</g>
</svg>
