<?xml version="1.0" encoding="utf-8"?>
<!-- Generator: Adobe Illustrator 19.0.0, SVG Export Plug-In . SVG Version: 6.00 Build 0)  -->
<!DOCTYPE svg PUBLIC "-//W3C//DTD SVG 1.0//EN" "http://www.w3.org/TR/2001/REC-SVG-20010904/DTD/svg10.dtd">
<svg version="1.0" id="Layer_1" xmlns="http://www.w3.org/2000/svg" xmlns:xlink="http://www.w3.org/1999/xlink" x="0px" y="0px"
	 viewBox="0 0 648 432" enable-background="new 0 0 648 432" xml:space="preserve">
<symbol  id="radio" viewBox="-51 -61 102 122">
	<path id="XMLID_172_" fill="#605A5C" stroke="#564F51" stroke-miterlimit="10" d="M17.9-58.1h-60.4c-4.4,0-8,3.6-8,8v36.8
		c0,4.4,3.6,8,8,8h60.4c4.4,0,8-3.6,8-8v-36.8C25.9-54.5,22.3-58.1,17.9-58.1z"/>
	<path id="XMLID_171_" fill="#7F7579" stroke="#564F51" stroke-miterlimit="10" d="M22.2-60.5h-60.4c-4.4,0-8,3.6-8,8v36.8
		c0,4.4,3.6,8,8,8h60.4c4.4,0,8-3.6,8-8v-36.8C30.2-56.9,26.6-60.5,22.2-60.5z"/>
	<path id="XMLID_170_" fill="#B5AAAF" stroke="#8E868A" stroke-miterlimit="10" d="M-39.8-34.3c0-9.2,7.4-16.6,16.6-16.6
		s16.6,7.4,16.6,16.6s-7.4,16.6-16.6,16.6S-39.8-25.1-39.8-34.3z"/>
	<path id="XMLID_116_" fill="#2D292B" stroke="#7F7579" stroke-miterlimit="10" d="M-35.7-34.3c0-6.9,5.6-12.4,12.4-12.4
		s12.4,5.6,12.4,12.4s-5.6,12.4-12.4,12.4S-35.7-27.4-35.7-34.3z"/>
	<polygon id="XMLID_101_" fill="#54D3D3" stroke="#3F383A" stroke-miterlimit="10" points="23.8,-32.9 -1.4,-32.9 -1.4,-18.7 
		23.8,-18.7 	"/>
	<path id="XMLID_100_" fill="#333031" stroke="#7F7579" stroke-miterlimit="10" d="M8.7-44.7c0-3-2.4-5.4-5.4-5.4s-5.4,2.4-5.4,5.4
		s2.4,5.4,5.4,5.4S8.7-41.7,8.7-44.7z"/>
	<path id="XMLID_56_" fill="#333031" stroke="#7F7579" stroke-miterlimit="10" d="M25.9-44.7c0-3-2.4-5.4-5.4-5.4S15-47.7,15-44.7
		s2.4,5.4,5.4,5.4S25.9-41.7,25.9-44.7z"/>
	<polygon id="XMLID_55_" fill="#AFA5A8" stroke="#7F797B" stroke-miterlimit="10" points="-39.8,-6 2.5,17.1 3.4,15.1 -37.6,-7 	"/>
	<path id="XMLID_54_" fill="#B5AAAF" stroke="#8E868A" stroke-miterlimit="10" d="M-1.7,16.7c-0.4-2,0.8-4,2.8-4.4s4,0.8,4.4,2.8
		c0.4,2-0.8,4-2.8,4.4C0.7,20-1.3,18.7-1.7,16.7z"/>
	<g id="XMLID_44_">
		<path id="XMLID_53_" fill="#231F20" stroke="#231F20" stroke-linecap="round" stroke-linejoin="round" stroke-miterlimit="10" d="
			M26.6,14.6c0.3-1.7,2.7-2.7,5.4-2.3c2.7,0.4,4.7,2.2,4.4,3.9S33.7,19,31,18.5C28.3,18.1,26.4,16.3,26.6,14.6z"/>
		<path id="XMLID_52_" fill="#231F20" stroke="#231F20" stroke-linecap="round" stroke-linejoin="round" stroke-miterlimit="10" d="
			M40.6,19.7c0.3-1.7,2.7-2.7,5.4-2.3s4.7,2.2,4.4,3.9S47.7,24,45,23.6S40.3,21.4,40.6,19.7z"/>
		<path id="XMLID_51_" fill="#231F20" stroke="#231F20" stroke-linecap="round" stroke-linejoin="round" stroke-miterlimit="10" d="
			M4.5,39.4c0.4-2.3,3.7-3.7,7.4-3.1s6.4,3,6,5.3c-0.4,2.3-3.7,3.7-7.4,3.1S4.1,41.7,4.5,39.4z"/>
		<path id="XMLID_50_" fill="none" stroke="#231F20" stroke-linecap="round" stroke-linejoin="round" stroke-miterlimit="10" d="
			M36.4,16.2C36.3,16.3,32,34.5,32,34.5s13.9,1.8,16.5,7.3c1.9-18.8,2-20.4,2-20.4"/>
		<path id="XMLID_49_" fill="#231F20" stroke="#231F20" stroke-linecap="round" stroke-linejoin="round" stroke-miterlimit="10" d="
			M31.4,34.9l2-7.1c9.2-0.8,16,5.7,16,5.7c0.1,0.3-1,8.2-1,8.2C43.9,37,40.3,35.9,31.4,34.9z"/>
		<path id="XMLID_48_" fill="#231F20" stroke="#231F20" stroke-linecap="round" stroke-linejoin="round" stroke-miterlimit="10" d="
			M13.3,55.4C15,53.9,24.3,54,24.3,54c0.7,1.7,1.2,6.2,1.2,6.2c-3.8-2.6-14.1,0.3-14.1,0.3c4.4-11.5,6.5-18.9,6.5-18.9"/>
		<path id="XMLID_46_" fill="#231F20" stroke="#231F20" stroke-linecap="round" stroke-linejoin="round" stroke-miterlimit="10" d="
			M-29,43.7c-0.9-1.7,0.5-4.2,3.2-5.7s5.6-1.3,6.5,0.4s-0.5,4.2-3.2,5.7S-28.1,45.4-29,43.7z"/>
		<path id="XMLID_45_" fill="#231F20" stroke="#231F20" stroke-linecap="round" stroke-linejoin="round" stroke-miterlimit="10" d="
			M-15.4,49.6C-15,47.7-9,43.1-9,43.1c1.3,0.7,3.9,3.4,3.9,3.4c-3.8,0.2-8.9,7.3-8.9,7.3c-2.9-9.6-5.3-15.4-5.3-15.4"/>
	</g>
</symbol>
<symbol  id="womanDance" viewBox="-134.4 -190.1 268.8 380.3">
	<path id="XMLID_41_" fill="#FFDFCA" stroke="#BA7D65" stroke-miterlimit="10" d="M-4.1,74.9c-2.8-6.7,1.8-21.3,18.5-19
		s3.7,22,3.7,22C7.9,73.2-4.1,74.9-4.1,74.9z"/>
	<path id="XMLID_40_" fill="#FFDFCA" stroke="#BA7D65" stroke-miterlimit="10" d="M13.6,68.4c0.7-4,2.3-7.5,2.3-7.5"/>
	<path id="XMLID_39_" fill="#EEFBFF" stroke="#4D828E" stroke-linecap="round" stroke-linejoin="round" stroke-miterlimit="10" d="
		M-28.9-145.5c-6.3-1.2-12.3-2.5-14.5-7c0.7-14.8,17.1-34.9,24.1-36.6c16.5-2.3,30.4,3.2,13.4,9c-11.4,6.5-13.6,23.9-14.1,23.9
		C-20.6-156-28.9-145.5-28.9-145.5z"/>
	<path id="XMLID_38_" fill="#EEFBFF" stroke="#4D828E" stroke-linecap="round" stroke-linejoin="round" stroke-miterlimit="10" d="
		M109.1-151.8c-12.3-12.3-29.2-30.3-24.4-34.4c6.7-5.8,18.8-0.2,32.9,12.3c10.9,9.6,15,19.7,14.5,23s-4.2,9.7-4.7,9.8
		C126.8-141.1,109.1-151.8,109.1-151.8z"/>
	<path id="XMLID_36_" fill="#FFDFCA" stroke="#BA7D65" stroke-miterlimit="10" d="M-48.2,104.5c5.5-6,6.3-9.7-0.7-12.5
		s-10.3,1.5-7.5,6.2C-53.6,102.9-48.2,104.5-48.2,104.5z"/>
	<path id="XMLID_35_" fill="#FFDFCA" stroke="#BA7D65" stroke-miterlimit="10" d="M-9.1-130.8c-6.7-7.2-25.2-17.3-25.2-17.3
		c0.8-19.2,12-28.8,18.2-26.8s-3,15.3-2.5,22.7c14.8,5.2,24.8,12.7,24.8,12.7C1.4-130.8-9.1-130.8-9.1-130.8z"/>
	<path id="XMLID_34_" fill="#FFDFCA" stroke="#BA7D65" stroke-miterlimit="10" d="M111.4-124.5c0.8-8.7-1-24-1-24
		c-9.2-11.5-15.3-21-13.2-22.7c4-3,17.8-3.2,31.7,25.3c-1.3,21.2-1.2,25.7-1.2,25.7C115.9-120.8,111.4-124.5,111.4-124.5z"/>
	<path id="XMLID_33_" fill="#FFDFCA" stroke="#BA7D65" stroke-miterlimit="10" d="M-103.9,67.7c3,17.2,17.6,31.6,21.7,37.3
		c4.8,6.8,23.8,16.8,33.2,11.5s6.7-18.3-9.3-24c-9.8-2.8-13.7,0.2-13.7,0.2c-8.5-9.2-13.7-16.7-10-32.3
		C-98.1,55.2-103.9,67.4-103.9,67.7z"/>
	<path id="XMLID_32_" fill="#4A6172" stroke="#304960" stroke-linecap="round" stroke-linejoin="round" stroke-miterlimit="10" d="
		M-18.4-47.1c1.2-7.5,12.3-25.8,16.2-34s3.3-35.5-13.7-52.8c4.8-12.5,18.3-11.5,20.2-9.7c29.2,27,42.7,54,23.8,96.8
		c4.7,4.7,8.2,6.8,8.2,6.8c17.3-8.5,72.2-49,73.2-91.5c9.8-6.7,21.3,6,21.3,6c-3.5,44-20.2,59.2-31.3,66.7
		C93.8-35.5,73.5,2.7,42,2.7C27.9-17.3-18.6-47.1-18.4-47.1z"/>
	<path id="XMLID_31_" fill="#FFDFCA" stroke="#BA7D65" stroke-miterlimit="10" d="M87.4,47.4c-4.7-3.5-4.5-7-0.2-10s12.7-4.2,11,1.2
		S87.6,48,87.6,48"/>
	<path id="XMLID_30_" fill="#FFDFCA" stroke="#BA7D65" stroke-miterlimit="10" d="M80.8,95.7C91,85.7,92.3,65.2,90,59
		c6.7-8.5,14.5-1.8,14.5-1.8c7.2,19.8,6.5,29.3,2.8,35.2C103.8,98.4,81.3,96.9,80.8,95.7z"/>
	<path id="XMLID_29_" fill="#FFDFCA" stroke="#BA7D65" stroke-miterlimit="10" d="M85.1,51.7c2.5,6,6.2,9.8,12.7,9.2
		c6.5-0.7,18.8-4.8,22.2-12c3.3-7.2-6.2-14.8-19.7-12.2C86.8,39.4,84.4,46.5,85.1,51.7z"/>
	<path id="XMLID_28_" fill="#52ACCC" stroke="#2D5B7A" stroke-linecap="round" stroke-linejoin="round" stroke-miterlimit="10" d="
		M-105.2,76.4c2.2-6.2,12.5-15,24.5-9.2c0.2-10.2,1.8-13.7,7.5-12.3c5.7,1.3,29.8,17.8,36.2,21.2s18.3,8.3,23.8,8.3
		s49.3,18.8,58.7,23.5c9.3,4.7,41,8.2,52.5-2s13.5-19.8,13.5-20.5C101,92.1,92,91.6,85.8,82.6C78.1,95.4,62.1,95.8,35,71.3
		c-0.2-1.8,21.5-30.2-7.5-38.8c-1.5-17.5-1.2-25-1.2-25C35.6,6.9,46.4,4,46.4,4c1.2-42.8-43.7-57.2-65.2-57.3
		c-8.5,39-6.3,48.5-7,54.7s-13.2,14-16,37C-58.1,32.2-111.7,14.7-105.2,76.4z"/>
	<path id="XMLID_27_" fill="#52ACCC" stroke="#2D5B7A" stroke-linecap="round" stroke-linejoin="round" stroke-miterlimit="10" d="
		M-35.4,76.8c10.7,6.5,24.5,0.9,25.4-12.4"/>
	<path id="XMLID_26_" fill="#52ACCC" stroke="#2D5B7A" stroke-linecap="round" stroke-linejoin="round" stroke-miterlimit="10" d="
		M-20.7,47.4c-8.3-4.5-21-9-21-9"/>
	<path id="XMLID_25_" fill="#52ACCC" stroke="#2D5B7A" stroke-linecap="round" stroke-linejoin="round" stroke-miterlimit="10" d="
		M-24.2,39.2c-3,2.3-4.5,4.3-4.5,4.3"/>
	<path id="XMLID_24_" fill="#52ACCC" stroke="#2D5B7A" stroke-linecap="round" stroke-linejoin="round" stroke-miterlimit="10" d="
		M-12.7,26.7c9-4.3,22.7-2.5,28.7,8"/>
	<path id="XMLID_23_" fill="#CE4F36" stroke="#9E371E" stroke-linecap="round" stroke-linejoin="round" stroke-miterlimit="10" d="
		M58.3,129.9c4.5-2.2,14.3,5.5,21.3,12.6c5.3-23.7-14.3-37.8-15-38.8c-3.7-3.3-35.8-17.5-42.8-11.7s-6,35.2-6,35.2
		c0.5,17.2-3.8,43.5,14.6,46.5s37.7-0.4,38.5-0.6c0.8-0.2,1.8-16.8,1.8-16.8s-5.4-15.3-5.4-15.9S58.3,129.9,58.3,129.9z"/>
	<path id="XMLID_22_" fill="#FFDFCA" stroke="#BA7D65" stroke-linecap="round" stroke-linejoin="round" stroke-miterlimit="10" d="
		M-27.6,103.7c0.3-12.8,14.8-34.5,34.8-38.5C15,63.5,33.4,72.9,39,83s6.5,17.2,8.8,22.2s4.5,27.3-14.7,41.5
		c-18.7,14.8-54.8,1.3-60-22.7S-27.6,103.7-27.6,103.7z"/>
	<path id="XMLID_21_" fill="none" stroke="#231F20" stroke-linecap="round" stroke-linejoin="round" stroke-miterlimit="10" d="
		M100.8,182.7c3.2-6.2,2.5-23-5.8-29.7"/>
	<path id="XMLID_20_" fill="none" stroke="#231F20" stroke-linecap="round" stroke-linejoin="round" stroke-miterlimit="10" d="
		M113.1,168.2c2-7.7-3-18.8-6-20.5"/>
	<path id="XMLID_19_" fill="#FFDFCA" stroke="#BA7D65" stroke-linecap="round" stroke-linejoin="round" stroke-miterlimit="10" d="
		M-21.9,120.9c-4.8,12.5-16.5,8.7-17-4s8.7-16,15.7-14"/>
	<path id="XMLID_18_" fill="none" stroke="#231F20" stroke-linecap="round" stroke-linejoin="round" stroke-miterlimit="10" d="
		M-9.2,105.9c5.7,2.3,15-0.2,14-5.5"/>
	<path id="XMLID_17_" fill="none" stroke="#231F20" stroke-linecap="round" stroke-linejoin="round" stroke-miterlimit="10" d="
		M24.4,97.9c4.8,4.2,10.2,4,10.8-1.2"/>
	<path id="XMLID_16_" fill="none" stroke="#231F20" stroke-linecap="round" stroke-linejoin="round" stroke-miterlimit="10" d="
		M-5.6,124.4c6,3,14.8,4,16.5-1.2"/>
	<path id="XMLID_15_" fill="none" stroke="#231F20" stroke-linecap="round" stroke-linejoin="round" stroke-miterlimit="10" d="
		M31.1,118.9c4.8,3.5,8.3,3.7,11.5-3.2"/>
	<path id="XMLID_14_" fill="#FFDFCA" stroke="#BA7D65" stroke-linecap="round" stroke-linejoin="round" stroke-miterlimit="10" d="
		M19.9,104c-4-4.8,0.5-7,0.5-9.5s-3.5-5.3-5-5"/>
	<path id="XMLID_13_" fill="none" stroke="#231F20" stroke-linecap="round" stroke-linejoin="round" stroke-miterlimit="10" d="
		M-6.6,91.2C-3.9,84,5.3,76.4,12.8,79.7"/>
	<path id="XMLID_12_" fill="none" stroke="#231F20" stroke-linecap="round" stroke-linejoin="round" stroke-miterlimit="10" d="
		M108.9,113.9c10.3-4,17.5-18.8,17.2-27.8"/>
	<path id="XMLID_11_" fill="none" stroke="#231F20" stroke-linecap="round" stroke-linejoin="round" stroke-miterlimit="10" d="
		M106.9,124.5c12.7-2.8,26.2-20,27-31"/>
	<path id="XMLID_10_" fill="none" stroke="#231F20" stroke-linecap="round" stroke-linejoin="round" stroke-miterlimit="10" d="
		M60.4,12.4C79.9,15,88.1,1.7,94.3-9.6"/>
	<path id="XMLID_9_" fill="none" stroke="#231F20" stroke-linecap="round" stroke-linejoin="round" stroke-miterlimit="10" d="
		M73.8,19.9c6.5,1.2,22.3-6,26.8-22.3"/>
	<path id="XMLID_8_" fill="none" stroke="#231F20" stroke-linecap="round" stroke-linejoin="round" stroke-miterlimit="10" d="
		M-35.3-138.2c-5.5,0-18.7-6-17.3-20.3"/>
	<path id="XMLID_7_" fill="none" stroke="#231F20" stroke-linecap="round" stroke-linejoin="round" stroke-miterlimit="10" d="
		M-33-130.2c-5.4,1.2-19.5-1.8-21.3-16.1"/>
	<path id="XMLID_6_" fill="#CE4F36" stroke="#9E371E" stroke-linecap="round" stroke-linejoin="round" stroke-miterlimit="10" d="
		M55.3,152.4c-14-12.3-24.3-10-37.3-6.5c0,0-13.8-14-28.5-9.2c0,0-9.2-14.7-16.2-13.3c-12-1.5-16.3,6-15.5,22.3s21.7,46.8,57,43.7
		C5,184.4,1,179.6,1,179.6c8.3,4.3,46.2,7.3,76.7,0.5c-9.7-4.3-11.8-6.2-12.2-5.8c13.3,0,22.8,8.5,22.8,9
		c4.7-20.7-27-54.8-32.5-58.2"/>
	<path id="XMLID_5_" fill="#CE4F36" stroke="#9E371E" stroke-linecap="round" stroke-linejoin="round" stroke-miterlimit="10" d="
		M-5.4,153c0.3-4.3-5.2-16.3-5.2-16.3"/>
	<path id="XMLID_4_" fill="#CE4F36" stroke="#9E371E" stroke-linecap="round" stroke-linejoin="round" stroke-miterlimit="10" d="
		M24.6,158c-0.3-3.7-6.7-12.2-6.7-12.2"/>
	<path id="XMLID_3_" fill="none" stroke="#231F20" stroke-linecap="round" stroke-linejoin="round" stroke-miterlimit="10" d="
		M-105.5,113.4c-12.6-10.8-16.5-29.1-15.6-42.1"/>
	<path id="XMLID_2_" fill="none" stroke="#231F20" stroke-linecap="round" stroke-linejoin="round" stroke-miterlimit="10" d="
		M-126.8,112.9c-4.8-6.1-8.7-23.4-6.5-32.5"/>
</symbol>
<g id="Layer_2">
	<rect id="XMLID_1_" fill="#EACEE1" width="648" height="432"/>
</g>
<g id="Layer_1_1_">
	
		<use xlink:href="#womanDance"  width="268.8" height="380.3" id="XMLID_42_" x="-134.4" y="-190.1" transform="matrix(1.0651 0 0 -1.0651 329.0538 212.7923)" overflow="visible"/>
</g>
<use xlink:href="#radio"  width="102" height="122" id="XMLID_37_" x="-51" y="-61" transform="matrix(1.0366 0 0 -1.0366 217.6863 293.7041)" overflow="visible"/>
</svg>
