<?xml version="1.0" encoding="utf-8"?>
<!-- Generator: Adobe Illustrator 19.0.0, SVG Export Plug-In . SVG Version: 6.00 Build 0)  -->
<!DOCTYPE svg PUBLIC "-//W3C//DTD SVG 1.0//EN" "http://www.w3.org/TR/2001/REC-SVG-20010904/DTD/svg10.dtd">
<svg version="1.0" xmlns="http://www.w3.org/2000/svg" xmlns:xlink="http://www.w3.org/1999/xlink" x="0px" y="0px"
	 viewBox="0 0 648 432" enable-background="new 0 0 648 432" xml:space="preserve">
<symbol  id="apple" viewBox="-38.7 -46.2 77.5 92.5">
	<path id="XMLID_395_" fill="#C11F1F" stroke="#870808" stroke-linecap="round" stroke-linejoin="round" stroke-miterlimit="10" d="
		M2.6,19.9c13.2,10,20.9,10.3,29.2-1.1s8-28,2-36.9S21.5-43.3,12.7-44.8c-10-1.7-11.4,4.9-12.6,4.6c-6-4-4-4.3-9.4-5.4
		C-14.8-46.8-26.3-39-38-5.8c-2.9,33.2,21.5,31.2,26.9,29.5C-5.7,21.9,2.6,19.9,2.6,19.9z"/>
	<path id="XMLID_394_" fill="#89C957" stroke="#629E2E" stroke-linecap="round" stroke-linejoin="round" stroke-miterlimit="10" d="
		M1.2,15.1c-9.7,4.3-21.1,6.7-22.9,29c16-0.4,19.9-7.3,23.8-16C2,21.1,1.2,15.1,1.2,15.1z"/>
	<path id="XMLID_393_" fill="#89C957" stroke="#629E2E" stroke-linecap="round" stroke-linejoin="round" stroke-miterlimit="10" d="
		M-12,34.5c5.5-2.4,11.2-7.3,13-16"/>
	<path id="XMLID_392_" fill="#7F3F05" stroke="#A85009" stroke-linecap="round" stroke-linejoin="round" stroke-miterlimit="10" d="
		M8.5,45.7c-12-10.2-7.5-26-7.1-30.9C2.8,14.2,4,13.4,4,13.4C2.8,15,3.2,15,4.8,16.1C3,27,10.3,36.6,16.2,40.4
		C14,46.3,8.5,45.7,8.5,45.7z"/>
	<path id="XMLID_391_" fill="#C11F1F" stroke="#870808" stroke-linecap="round" stroke-linejoin="round" stroke-miterlimit="10" d="
		M-5.1,17.3c8-2.3,12.6-6.9,12.6-6.9"/>
	<path id="XMLID_390_" fill="#C11F1F" stroke="#870808" stroke-linecap="round" stroke-linejoin="round" stroke-miterlimit="10" d="
		M-5.1-36.2c5.4-1.4,5.2-4,5.2-4"/>
	<path id="XMLID_389_" fill="#C11F1F" stroke="#870808" stroke-linecap="round" stroke-linejoin="round" stroke-miterlimit="10" d="
		M2.6,14.5c2.6,3.1,10.6,4.6,10.6,4.6"/>
</symbol>
<symbol  id="bearfinger" viewBox="-13.9 -13.9 27.8 27.7">
	<path id="XMLID_529_" fill="#9B634B" stroke="#603129" stroke-linecap="round" stroke-linejoin="round" stroke-miterlimit="10" d="
		M-10.9,13.3c-5.3-7.8-1.8-23.2,6.8-25.7s18.5-0.7,17.5,8.9S-10.9,13.3-10.9,13.3z"/>
</symbol>
<symbol  id="bearleg" viewBox="-55.3 -68.4 108.1 138">
	<path id="XMLID_545_" fill="#9B634B" stroke="#603129" stroke-linecap="round" stroke-linejoin="round" stroke-miterlimit="10" d="
		M28.5,15C54,0.1,54.4-47,50.4-58.7c-9-3.8-18.7-5.7-27.3-6.7C9.9-70.7-1.4-66-1.4-66c-8-3.6-17.1,1.5-17.1,1.5
		C-26.6-69.6-35-62-35-62c-8.4-1.5-12.4,3.6-12.4,3.6c-1.5,9.8,2.6,24.8,15.7,26.6"/>
	<path id="XMLID_544_" fill="#9B634B" stroke="#603129" stroke-linecap="round" stroke-linejoin="round" stroke-miterlimit="10" d="
		M-25.5-38.6C-33.1-42.6-35-62-35-62"/>
	<path id="XMLID_543_" fill="#9B634B" stroke="#603129" stroke-linecap="round" stroke-linejoin="round" stroke-miterlimit="10" d="
		M-9.4-42.3c-6.9-2.6-9.1-22.3-9.1-22.3"/>
	<path id="XMLID_542_" fill="#9B634B" stroke="#603129" stroke-linecap="round" stroke-linejoin="round" stroke-miterlimit="10" d="
		M8.8-43c-8-3.3-10.2-23-10.2-23"/>
	<path id="XMLID_541_" fill="#9B634B" stroke="#603129" stroke-linecap="round" stroke-linejoin="round" stroke-miterlimit="10" d="
		M51.9,32.5C28.1,65.3-3.4,74.4-21.3,66.3C-39.9,58-39.6,50.2-39.6,50.2c3.7,1.5,5.7,0.7,5.7,0.7C-52.2,36-56,31.1-54.5,9.2
		c2.6,6.6,5.2,8.9,5.2,8.9c-6.2-12.7-4.2-29.4,4.2-39.3s32.5-23.7,57.3-18.2"/>
	<path id="XMLID_540_" fill="#9B634B" stroke="#603129" stroke-linecap="round" stroke-linejoin="round" stroke-miterlimit="10" d="
		M15.6,24.3C32,11.3,38,7,38,7"/>
</symbol>
<symbol  id="boyfan" viewBox="-142.5 -204.7 285 409.4">
	<path id="XMLID_751_" fill="#C67663" stroke="#874F3E" stroke-linecap="round" stroke-linejoin="round" stroke-miterlimit="10" d="
		M-6.5-204.2c-3.3,13.5-4.9,32.9-4.9,32.9c8.7,4.4,30.3,1.4,30.3,1.4c0.3-10.6,3-34.3,3-34.3"/>
	<path id="XMLID_750_" fill="#C67663" stroke="#874F3E" stroke-linecap="round" stroke-linejoin="round" stroke-miterlimit="10" d="
		M55.8-204.2c-3.8,15.7-7.4,26.6-7.4,26.6c7.1,6.5,31.7,2.7,31.7,2.7c1.1-17.5,1.6-29.4,1.6-29.4"/>
	<path id="XMLID_749_" fill="#C67663" stroke="#874F3E" stroke-linecap="round" stroke-linejoin="round" stroke-miterlimit="10" d="
		M-16,3.1c-27.3-20.5-41.5-24-64.4-0.8C-93-14.6-87-22.8-87-22.8C-66.8-56.9-30.8-52-2.4-28C-0.5,11-16,3.6-16,3.1z"/>
	<path id="XMLID_748_" fill="#E8F4F9" stroke="#6B858E" stroke-linecap="round" stroke-linejoin="round" stroke-miterlimit="10" d="
		M31.5,47.6C11,44.3-21.5,23.8-34.3-1c4.1-20.2,46.9-36.8,60.3-31.9"/>
	<path id="XMLID_747_" fill="#BCA471" stroke="#8C7244" stroke-linecap="round" stroke-linejoin="round" stroke-miterlimit="10" d="
		M-13-94.6c-6.5-22.4-19.4-71.2-19.4-71.2c27.8-21.3,49.9-17.7,59.5-10.9c-1.4,26.5-1.6,34.9-1.6,34.9c2.7-1.1,4.4-1.6,4.4-1.6
		c7.1-30.3,9.6-38.5,9.6-38.5c28.1-9.8,52.4-1.4,57.6,3.5c-16.1,65.8-22.4,80.8-22.4,80.8C38-91.3-13.3-94.3-13-94.6z"/>
	<path id="XMLID_746_" fill="#BCA471" stroke="#8C7244" stroke-linecap="round" stroke-linejoin="round" stroke-miterlimit="10" d="
		M12.9-135.3c3.8-2.5,12.6-6.5,12.6-6.5"/>
	<path id="XMLID_745_" fill="#E8F4F9" stroke="#6B858E" stroke-linecap="round" stroke-linejoin="round" stroke-miterlimit="10" d="
		M3.8,14.8C-11.5-7.3-20.7-38.9-14.7-99c17.2-23.7,87.1-13.6,92-2.2c-6,30.6,9.3,107.5,9.3,108.3"/>
	<path id="XMLID_744_" fill="#C67663" stroke="#874F3E" stroke-linecap="round" stroke-linejoin="round" stroke-miterlimit="10" d="
		M92.3-121.9c0.5,13.9-6.5,59.8-22.9,87.3c7.4,15,32.5,16.1,32.5,16.1c14.5-30.8,15-78,4.6-105.3c4.4-15,0.8-36.3-7.4-46.9
		s-21.3-17.2-20.7,1.4s7.4,30.8,7.4,30.8c-10.1-9-16.4-10.4-17.5-7.4C67.2-142.9,72.9-129.5,92.3-121.9z"/>
	<path id="XMLID_743_" fill="#E8F4F9" stroke="#6B858E" stroke-linecap="round" stroke-linejoin="round" stroke-miterlimit="10" d="
		M57.9-16.2c1.6-9.6,10.7-25.2,10.7-25.2c23.5-3.5,42,22.1,42,22.1C93.7,17.8,64.1,39.5,51.5,46.1"/>
	<path id="XMLID_742_" fill="#C67663" stroke="#874F3E" stroke-linecap="round" stroke-linejoin="round" stroke-miterlimit="10" d="
		M-124,28.6c-2.5-12.8,4.9-23,13-24.6s12.4,6.6,14.9,19.4s-0.5,24-8.7,25.6S-121.5,41.4-124,28.6z"/>
	<path id="XMLID_741_" fill="#C67663" stroke="#874F3E" stroke-linecap="round" stroke-linejoin="round" stroke-miterlimit="10" d="
		M-72.8,33.4c0-6.5-3.6-11.7-8.1-11.7c-4.4,0-8.1,5.3-8.1,11.7s3.6,11.7,8.1,11.7C-76.4,45.1-72.8,39.9-72.8,33.4z"/>
	<path id="XMLID_740_" fill="#E8F4F9" d="M46.3,33.6C15.4,24.1,10.1,1.2,30.4-2.5s37.1,10.1,35,17.1C63.4,21.5,58.5,37.4,46.3,33.6z
		"/>
	<path id="XMLID_739_" fill="#5C6268" stroke="#32383F" stroke-linecap="round" stroke-linejoin="round" stroke-miterlimit="10" d="
		M-105.8,57.7c-4.4-17.7-11.2-84.3-11.2-84.3c14.2-16.6,43.7-1.6,44.8,0c-8.2,63.9-9,80.2-9,80.2C-91.1,67.5-105.8,57.4-105.8,57.7z
		"/>
	<path id="XMLID_738_" fill="#C67663" stroke="#874F3E" stroke-linecap="round" stroke-linejoin="round" stroke-miterlimit="10" d="
		M53.8,41.8c3.3-1.1,10.6-7.9,10.4-8.7C57.1,25.5,32,14.3,32,14.3C21.6,26.8,20.8,40.7,20.8,40.7C25.2,44.8,42.1,47.8,53.8,41.8z"/>
	<path id="XMLID_737_" fill="#5C6268" stroke="#32383F" stroke-linecap="round" stroke-linejoin="round" stroke-miterlimit="10" d="
		M-91.5,46.9c11,0.3,25.8,14.8,25.8,14.8s-7.8,14.2-9.6,14.8c-1.7,0.6-25.5-3.5-25.5-3.5L-91.5,46.9z"/>
	<path id="XMLID_736_" fill="#C67663" stroke="#874F3E" stroke-linecap="round" stroke-linejoin="round" stroke-miterlimit="10" d="
		M28.1,36.7c1.4,10.9,4.1,28.9,3.5,29.5c4.4,4.6,22.9,9.6,24.6,2.7c-0.8-9-3.5-31.1-3.5-31.1"/>
	<g id="XMLID_732_">
		
			<path id="XMLID_735_" fill="#959EA5" stroke="#676F77" stroke-linecap="round" stroke-linejoin="round" stroke-miterlimit="10" d="
			M-29.8,62.9c-4.2,9.5-17.8,15.6-30.7,10.5c0,0-1.5-2.5-3.9-9.4c4.2-1.7,5.4-8.9,8.9-14.9c-5.4-9.2-11.1-14.8-10.2-15.1
			c4.4,1.2,10.1,7.9,12.8,11.4c0.2-0.2,0.5-0.5,0.7-0.7c-1.7-4.4-5.1-10.2-5.1-10.2c3,1.8,6.4,5.4,8.6,7.8c0.6-0.3,1.3-0.5,2-0.7
			c0.7-0.2,1.3-0.3,2-0.4c-3.1-4.8-4.9-7.3-4.9-7.3c2.9,0.5,6.1,4.3,8.1,7.3C-32.3,42.8-26.1,54.6-29.8,62.9z"/>
		
			<path id="XMLID_734_" fill="#959EA5" stroke="#676F77" stroke-linecap="round" stroke-linejoin="round" stroke-miterlimit="10" d="
			M-87.1,89.1c0.5,2.4,1.4,5.8,2.9,10.5c2.9,9-4.2-3.3-6.9-9.1c-0.3,0.1-0.6,0.2-0.9,0.2c0.1,2.5,0.5,6.3,1.3,10.3c0,0-4-5-6.1-9.8
			c-2.2,0-4.4-0.3-6.5-0.8c1,8.5,5.3,14.7,4.1,16.6c-2.1-0.5-10.8-9.9-11.9-20.6c-7.7-8.2-4.6-28.9,8.1-34.2
			c14.2-6,22.1,13.6,30.6,11.5C-70,72.9-73,75.9-73,75.9C-77,82.4-81.9,86.7-87.1,89.1z"/>
		
			<path id="XMLID_733_" fill="#959EA5" stroke="#676F77" stroke-linecap="round" stroke-linejoin="round" stroke-miterlimit="10" d="
			M-58.5,80.8c2.1,1.5,3.9,3.3,5.5,5.3c1.6-2.6,2.4-6.1,2.4-6.1c0.5,3-0.2,6.1-0.8,8.3c0.9,1.4,1.8,2.9,2.5,4.4
			c1.8-2.2,3.9-5,5.4-6.6c0,0-1.1,5.8-3.9,10.4c1.2,3.6,1.8,7.3,1.8,10.9c3.6-0.4,5.6-4.8,8.6-6.3c0,2.7-3.3,9.6-9.5,13.8
			c-0.4,1.3-0.8,2.6-1.3,3.8c-5.3,11.5-23.3,13-27.9-1c-4.7-14.2,9.1-25.4,7.1-33.8C-61.5,81.1-58.5,80.8-58.5,80.8z"/>
	</g>
	<path id="XMLID_731_" fill="none" stroke="#231F20" stroke-linecap="round" stroke-linejoin="round" stroke-miterlimit="10" d="
		M-118.9,109.7c-13.6-15-12.8-32.7-7.4-45.3"/>
	<path id="XMLID_730_" fill="none" stroke="#231F20" stroke-linecap="round" stroke-linejoin="round" stroke-miterlimit="10" d="
		M-140.7,95.3c-2.7-9.8-2.5-30,13.9-43.4"/>
	<path id="XMLID_729_" fill="#ADB6BC" stroke="#676F77" stroke-linecap="round" stroke-linejoin="round" stroke-miterlimit="10" d="
		M-56.1,69.7c0-9.4-4.3-17.1-9.6-17.1s-9.6,7.6-9.6,17.1s4.3,17.1,9.6,17.1S-56.1,79.1-56.1,69.7z"/>
	<path id="XMLID_728_" fill="#51312A" stroke="#96665F" stroke-linecap="round" stroke-linejoin="round" stroke-miterlimit="10" d="
		M-5.1,152.1c-4.9,16.9,8.2,42.8,39.3,45c-3.8-5.2-5.7-7.1-5.7-7.1c12.6,10.9,37.1,19.2,49.4,10.7c-6,0.5-8.4-2-8.4-2
		c27.3-1.4,42.1-11.7,47.3-18.8c-6-2.5-10.5-1.9-10.5-1.9c35.2-16.9,37.7-55.9,34.9-68.8c-7.9,3-13.9,5.7-13.9,5.7
		c9-17.2,9.6-29.7,9.6-29.7c-15.8,4.6-56.2,7.4-56.2,7.4C79.5,92.3-1.8,132.2-5.1,152.1z"/>
	<path id="XMLID_727_" fill="#C67663" stroke="#874F3E" stroke-linecap="round" stroke-linejoin="round" stroke-miterlimit="10" d="
		M106.8,118.5c0-35-27.9-63.3-62.4-63.3s-61.3,34.4-61.3,69.4s26.9,57.2,61.3,57.2S106.8,153.4,106.8,118.5z"/>
	<path id="XMLID_726_" fill="none" stroke="#231F20" stroke-linecap="round" stroke-linejoin="round" stroke-miterlimit="10" d="
		M0.4,124c0-9.8,9.3-16.4,16.4-7.9"/>
	<path id="XMLID_725_" fill="#C67663" stroke="#874F3E" stroke-linecap="round" stroke-linejoin="round" stroke-miterlimit="10" d="
		M94.3,106.7c6.4,5.4,26.5,0.7,20.7-14.7S92.5,77.3,90.3,82"/>
	<path id="XMLID_724_" fill="none" stroke="#231F20" stroke-linecap="round" stroke-linejoin="round" stroke-miterlimit="10" d="
		M48.1,114.2c0.3-8.2,10.4-12.8,18-5.7"/>
	<path id="XMLID_723_" fill="none" stroke="#231F20" stroke-linecap="round" stroke-linejoin="round" stroke-miterlimit="10" d="
		M53.8,145c9.3,2.5,22.9-5.5,24-12"/>
	<path id="XMLID_722_" fill="none" stroke="#231F20" stroke-linecap="round" stroke-linejoin="round" stroke-miterlimit="10" d="
		M2.8,145.8c6.8,6.3,14.7,7.4,17.7,2.2"/>
	<path id="XMLID_721_" fill="#C67663" stroke="#874F3E" stroke-linecap="round" stroke-linejoin="round" stroke-miterlimit="10" d="
		M29.2,117.3c-10.5-6.7-6.1-19.8,1.7-20.6"/>
	<path id="XMLID_720_" fill="none" stroke="#231F20" stroke-linecap="round" stroke-linejoin="round" stroke-miterlimit="10" d="
		M-21.3,54.8c0.7-9.5-10.9-19.7-10.9-19.7"/>
	<path id="XMLID_719_" fill="none" stroke="#231F20" stroke-linecap="round" stroke-linejoin="round" stroke-miterlimit="10" d="
		M-68.6,136.3c10.2,4.1,22.4-2,24.4-7.5"/>
	<path id="XMLID_718_" fill="none" stroke="#231F20" stroke-linecap="round" stroke-linejoin="round" stroke-miterlimit="10" d="
		M-72.1,144c9.6,5.3,22.5,0.7,25.2-4.4"/>
	<path id="XMLID_717_" fill="none" stroke="#231F20" stroke-linecap="round" stroke-linejoin="round" stroke-miterlimit="10" d="
		M15.1,88.5c13.6-14.5,35.2-1.1,35.2,1.6"/>
	<path id="XMLID_716_" fill="#51312A" stroke="#96665F" stroke-linecap="round" stroke-linejoin="round" stroke-miterlimit="10" d="
		M117.9,105.5c-6.5,4.6-19.3,2.9-19.3,2.9s-4.9-1.1-9.8-5.2c0,0,4.6,26.2-5.7,40.9c0,0,4.6,3,17.2-1.1c0,0-4.6,12.6-35.2,25.4
		c0,0,2.7,2.7,11.2,3.3c-7.6,3.8-7.4,2.5-39,0.8c0,0,2.5,8.9,11.5,15.2c3.2,2,23.9,11.3,38.7-0.6"/>
</symbol>
<symbol  id="brow1" viewBox="-9.6 -4.6 19.2 9.3">
	<path id="XMLID_402_" fill="none" stroke="#000000" stroke-linecap="round" stroke-linejoin="round" stroke-miterlimit="10" d="
		M-9.1-4.1c2,3.6,12.6,13.6,18.2,4.6"/>
</symbol>
<symbol  id="digleg" viewBox="-43.8 -42.9 87.5 85.8">
	<path id="XMLID_698_" fill="#DB7835" stroke="#753A0D" stroke-linecap="round" stroke-linejoin="round" stroke-miterlimit="10" d="
		M24.3,42.4c-12.8-6.2-13.7-8-17-16.6s-23.4-38.7-36.2-44.2c-12.8-3.1-12.6-5.7-14.4-13.5c1.1-4.9,6.2-5.7,6.2-5.7
		c5.5-8.4,13.9-3.3,13.9-3.3c6-3.8,11.9,1.8,11.9,1.8c6,8.8,18.6,17.2,24.5,20.1s8.8,5.7,9.5,6.2c-3.8-4.4-9.5-7.5-4.9-6.4
		s10.4,5.1,10.6,8.6c-1.8-6.2,4-7.3,4.9,4c0.2-4.2,1.8-5.5,5.1,3.8c3.3,9.3,6,34.7,4.2,40.2"/>
	<path id="XMLID_697_" fill="#DB7835" stroke="#753A0D" stroke-linecap="round" stroke-linejoin="round" stroke-miterlimit="10" d="
		M-19.4-30.9c-3.8-0.9-4.9-4.9-3.8-9.9"/>
	<path id="XMLID_696_" fill="#DB7835" stroke="#753A0D" stroke-linecap="round" stroke-linejoin="round" stroke-miterlimit="10" d="
		M-30.4-27.8c-6-1.3-6-6-6.6-9.7"/>
</symbol>
<symbol  id="eye" viewBox="-5.7 -10 11.4 20">
	<path id="XMLID_408_" stroke="#000000" stroke-linecap="round" stroke-linejoin="round" stroke-miterlimit="10" d="M4.5-1.3
		C3-6.5-0.2-10.1-2.7-9.4S-5.9-3.9-4.5,1.3s4.7,8.8,7.1,8.1S5.9,3.9,4.5-1.3z"/>
</symbol>
<symbol  id="eye_3" viewBox="-2.7 -9 5.4 18.1">
	<path id="XMLID_512_" fill="#231F20" stroke="#231F20" stroke-miterlimit="10" d="M-2.1,0.2c-0.3-4.7,0.4-8.6,1.5-8.7
		c1.2-0.1,2.4,3.7,2.7,8.4S1.8,8.4,0.6,8.5C-0.6,8.6-1.8,4.9-2.1,0.2z"/>
</symbol>
<symbol  id="girlleg_2" viewBox="-69.3 -19.2 138.6 38.4">
	<path id="XMLID_123_" fill="#D8AE8B" stroke="#933F22" stroke-linecap="round" stroke-linejoin="round" stroke-miterlimit="10" d="
		M48.2,18.7C62.2,10.2,70.7,2,68.5-9.6c-2.2-11.6-59.2-4-85.6,7.3c-18.5-10.7-43.6-20-48.5-11.1c-4.9,8.9,24,26.9,40.5,28.7
		C-8.7,16,23.5,9.6,23.5,9.6L48.2,18.7z"/>
	<path id="XMLID_122_" fill="#E5F5F9" stroke="#8CA8AF" stroke-linecap="round" stroke-linejoin="round" stroke-miterlimit="10" d="
		M1.7,13.1c-4.7-5.3-5.1-18-4.2-21.8c-14.2,3.1-15.1,5.6-15.1,5.6c-22.2-15.6-42.3-19.6-50.5-11.6c-5.6,10,24,29.8,40.9,31.6
		C-10.7,18,1.7,13.1,1.7,13.1z"/>
	<path id="XMLID_121_" fill="#E5F5F9" stroke="#8CA8AF" stroke-linecap="round" stroke-linejoin="round" stroke-miterlimit="10" d="
		M-26.3,2.5c5.1-3.6,8.7-5.6,8.7-5.6"/>
	<path id="XMLID_55_" fill="#D8AE8B" stroke="#933F22" stroke-linecap="round" stroke-linejoin="round" stroke-miterlimit="10" d="
		M33.5,2.9c3.8-3.3,12.2-10,12.2-10"/>
</symbol>
<symbol  id="nosedot" viewBox="-1.7 -1.7 3.3 3.3">
	<path id="XMLID_675_" fill="#30291E" stroke="#161513" stroke-linecap="round" stroke-linejoin="round" stroke-miterlimit="10" d="
		M1.2,0c0-0.6-0.5-1.2-1.2-1.2S-1.2-0.6-1.2,0S-0.6,1.2,0,1.2S1.2,0.6,1.2,0z"/>
</symbol>
<symbol  id="sweat1" viewBox="-4.7 -3.9 9.5 7.9">
	<path id="XMLID_21_" fill="#8AFCFF" stroke="#4A6984" stroke-linecap="round" stroke-linejoin="round" stroke-miterlimit="10" d="
		M-4.2-3.4C-1.1,1.9,2.4,5.2,4,2.4C5.2,0.2,0.9-0.8-4.2-3.4z"/>
</symbol>
<symbol  id="window1" viewBox="-19.6 -19 39.2 34.3">
	<polygon id="XMLID_218_" fill="#A176B7" stroke="#50305E" stroke-miterlimit="10" points="-19.1,-14.8 19.1,-14.8 19.1,14.8 
		-19.1,14.8 	"/>
	<polygon id="XMLID_217_" fill="#A2D3DB" stroke="#CBE8EF" stroke-miterlimit="10" points="-9.1,-14.8 9.1,-14.8 9.1,14.8 
		-9.1,14.8 	"/>
	<polygon id="XMLID_216_" fill="#ADA67B" stroke="#ADA67B" stroke-miterlimit="10" points="-8.4,-18.5 8.4,-18.5 8.4,-12.6 
		-8.4,-12.6 	"/>
	<polygon id="XMLID_215_" fill="#F2EEDD" stroke="#ADA67B" stroke-miterlimit="10" points="-10.7,-16.5 10.7,-16.5 10.7,-10.6 
		-10.7,-10.6 	"/>
</symbol>
<g id="Layer_2">
	<rect id="XMLID_1_" x="0" fill="#D4D3E8" width="648" height="432"/>
</g>
<g id="Layer_1">
	
		<use xlink:href="#boyfan"  width="285" height="409.4" id="XMLID_6_" x="-142.5" y="-204.7" transform="matrix(1.0322 0 0 -1.0322 290.3784 220.6939)" overflow="visible"/>
</g>
</svg>
