<?xml version="1.0" encoding="utf-8"?>
<!-- Generator: Adobe Illustrator 19.0.0, SVG Export Plug-In . SVG Version: 6.00 Build 0)  -->
<!DOCTYPE svg PUBLIC "-//W3C//DTD SVG 1.0//EN" "http://www.w3.org/TR/2001/REC-SVG-20010904/DTD/svg10.dtd">
<svg version="1.0" id="Layer_1" xmlns="http://www.w3.org/2000/svg" xmlns:xlink="http://www.w3.org/1999/xlink" x="0px" y="0px"
	 viewBox="0 0 648 432" enable-background="new 0 0 648 432" xml:space="preserve">
<symbol  id="cat_2" viewBox="-196.8 -106.2 393.5 212.4">
	<g id="XMLID_103_">
		
			<path id="XMLID_104_" fill="#F2E4D3" stroke="#9B8675" stroke-linecap="round" stroke-linejoin="round" stroke-miterlimit="10" d="
			M-92.8,60.5c-19.4-17.3-35.4-31.7-64.1-26.5s-18.8,39.1-14.8,43.7s16.9,12.3,25.9,10.5C-148,78-144,71.3-134.4,71.3
			s15.4,8.9,13.9,19.1s-17.3,20.3-42.2,12.6s-35.4-23.4-33.3-50.2c2-25.2,21.6-33.9,41.9-36s55.8,16.9,55.8,16.9L-92.8,60.5z"/>
	</g>
	<g id="catlegback_2_">
		
			<path id="XMLID_102_" fill="#F2E4D3" stroke="#9B8675" stroke-linecap="round" stroke-linejoin="round" stroke-miterlimit="10" d="
			M-55.2-23.4c4.6-0.6,8.6,0.9,8.6,0.9"/>
		<g id="XMLID_98_">
			
				<path id="XMLID_101_" fill="#F2E4D3" stroke="#9B8675" stroke-linecap="round" stroke-linejoin="round" stroke-miterlimit="10" d="
				M-42.3,63.9c-8.9-6.5-14.2-1.3-19.7-38s-5.5-41.3-5.5-41.3c-3.1-6.8-9.2-12.6-9.2-12.6c4.9,2.2,8.3,4,8.3,4
				c-5.2-6.2-4.6-15.1-4.6-15.1c3.1,6.8,5.5,8.9,5.5,8.9c-2.2-6.8-0.3-12.3-0.3-12.3c0.9-0.9,12-22.2,15.7-25.9
				c4-4.9,9.6-10.2,17.9-4.3c5.5-0.3,9.6,2.8,9.6,2.8c7.7,0.6,4.9,10.5,4.9,10.5c-1.2,8-10.8,11.7-11.7,11.1
				c-7.4,9.6-10.2,24-10.2,24S-5.3-25.2,3,33.4"/>
			
				<path id="XMLID_100_" fill="#F2E4D3" stroke="#9B8675" stroke-linecap="round" stroke-linejoin="round" stroke-miterlimit="10" d="
				M-41.3-62.2c5.2,0,7.1-10.5,7.1-10.5"/>
			
				<path id="XMLID_99_" fill="#F2E4D3" stroke="#9B8675" stroke-linecap="round" stroke-linejoin="round" stroke-miterlimit="10" d="
				M-30.2-58.5c4.9-2.2,5.5-11.4,5.5-11.4"/>
		</g>
	</g>
	<path id="XMLID_97_" fill="#F2E4D3" stroke="#9B8675" stroke-linecap="round" stroke-linejoin="round" stroke-miterlimit="10" d="
		M34.4,27.5C12.8,40.7-1.2,55.5-8.4,63.1s-33.2,19.6-55.1,15.6c-22-4-39.6-22.8-45.1-46.7s40-37.6,53.5-45.9s36.8-24,40-27.6
		c-6.4,0.4-10.8,2.4-10.8,2.4c11.6-14,23.7-12,23.7-12C-12.6-54.5-14-54.8-14-54.8c11.3-4.8,26.2-3.3,26.2-3.3
		c-6-3.8-9.8-4.5-9.8-4.5c22.1-5.5,42.1-7.2,68.9,7.9s29.6,27.2,29.6,27.2s-40,43.8-41.3,44.7C58.3,18.1,34.4,27.5,34.4,27.5z"/>
	<path id="XMLID_96_" fill="#F2E4D3" stroke="#9B8675" stroke-linecap="round" stroke-linejoin="round" stroke-miterlimit="10" d="
		M172.8-18.4c-9.2,4.6-16.6,4.9-37.9,7.7c-1.2-0.6-32.7-6.5-42.8-22.2c17.3-14.2,30.8-15.7,46.8-16.6s31.7,6.8,31.7,6.8"/>
	<path id="XMLID_95_" fill="#E2201F" stroke="#A50C0C" stroke-miterlimit="10" d="M191.5-63.2c0-21.7-17.6-39.3-39.3-39.3
		s-39.3,17.6-39.3,39.3s17.6,39.3,39.3,39.3S191.5-41.5,191.5-63.2z"/>
	<g id="XMLID_91_">
		<path id="XMLID_94_" fill="#F2E4D3" stroke="#9B8675" stroke-linecap="round" stroke-linejoin="round" stroke-miterlimit="10" d="
			M0.6-18.6c3-17.7,28-60.8,29.8-63.8c2.6,4.7,1.7,10.8,1.7,10.8c3-12.1,12.5-18.1,12.5-18.1c-1.3,3.4-2.2,8.6-2.2,8.6
			c6-9.9,13.8-12.9,22.4-16.4s38.4-7.8,42.7-8.2c4.3-0.4,7.9,3.1,9.2,5.6c6.9,2.6,4,12.6,4,12.6c4,5.9-4.1,9.8-6.7,11
			c-2.6,1.3-33.2,8.6-39.7,15.1s-19,31-19,31"/>
		<path id="XMLID_93_" fill="#F2E4D3" stroke="#9B8675" stroke-linecap="round" stroke-linejoin="round" stroke-miterlimit="10" d="
			M107.2-96c6.5,1.2,9.6-4,9.6-4"/>
		<path id="XMLID_92_" fill="#F2E4D3" stroke="#9B8675" stroke-linecap="round" stroke-linejoin="round" stroke-miterlimit="10" d="
			M110.2-84c4.9,0.9,10.5-3.4,10.5-3.4"/>
	</g>
	<g id="XMLID_86_">
		<path id="XMLID_90_" fill="#F2E4D3" stroke="#9B8675" stroke-linecap="round" stroke-linejoin="round" stroke-miterlimit="10" d="
			M-88.2,66c-8.9-6.5-20.3-17.9-25.9-54.5c-5.5-36.7-5.5-41.3-5.5-41.3c-3.1-6.8-9.2-12.6-9.2-12.6c4.9,2.2,8.3,4,8.3,4
			c-5.2-6.2-4.6-15.1-4.6-15.1c3.1,6.8,5.5,8.9,5.5,8.9c-2.2-6.8-0.3-12.3-0.3-12.3c0.9-0.9,12-22.2,15.7-25.9
			c4-4.9,9.6-10.2,17.9-4.3c5.5-0.3,9.6,2.8,9.6,2.8c7.7,0.6,4.9,10.5,4.9,10.5c-1.2,8-10.8,11.7-11.7,11.1
			c-7.4,9.6-10.2,24-10.2,24s51.5,14.5,59.8,73"/>
		<path id="XMLID_89_" fill="#F2E4D3" stroke="#9B8675" stroke-linecap="round" stroke-linejoin="round" stroke-miterlimit="10" d="
			M-102.3-39.6c4.6-0.6,8.6,0.9,8.6,0.9"/>
		<path id="XMLID_88_" fill="#F2E4D3" stroke="#9B8675" stroke-linecap="round" stroke-linejoin="round" stroke-miterlimit="10" d="
			M-93.4-76.6c5.2,0,7.1-10.5,7.1-10.5"/>
		<path id="XMLID_87_" fill="#F2E4D3" stroke="#9B8675" stroke-linecap="round" stroke-linejoin="round" stroke-miterlimit="10" d="
			M-82.3-72.9c4.9-2.2,5.5-11.4,5.5-11.4"/>
	</g>
	<g id="XMLID_82_">
		<path id="XMLID_85_" fill="#F2E4D3" stroke="#9B8675" stroke-linecap="round" stroke-linejoin="round" stroke-miterlimit="10" d="
			M160.7-22.8c5.5-5.7,6.7-11.5,10.7-16.8c3.8-4.9,7-3.7,7-3.7c0.1-6.1,6.5-6.5,6.5-6.5c0.4-3.9,5.2-3.8,5.2-3.8
			c6.7,0.6,7.2,13.5,5,18.7s-13.5,16.6-27.6,18.7"/>
		<path id="XMLID_84_" fill="#F2E4D3" stroke="#9B8675" stroke-linecap="round" stroke-linejoin="round" stroke-miterlimit="10" d="
			M178.4-43.3c3.3,2,7.8,7.9,2.8,12.9"/>
		<path id="XMLID_83_" fill="#F2E4D3" stroke="#9B8675" stroke-linecap="round" stroke-linejoin="round" stroke-miterlimit="10" d="
			M184.9-49.8c3.3,1.5,8.2,7.4,6.4,12.3"/>
	</g>
	<g id="XMLID_79_">
		<path id="XMLID_81_" fill="#E06651" stroke="#C13D11" stroke-linecap="round" stroke-linejoin="round" stroke-miterlimit="10" d="
			M144.2,83.2c6.8-15.7,1.5-53.8-7.6-65C125.8,14.1,117,48.9,117,48.9L144.2,83.2z"/>
		<path id="XMLID_80_" fill="#F2E4D3" stroke="#9B8675" stroke-linecap="round" stroke-linejoin="round" stroke-miterlimit="10" d="
			M104.7,54.2c14.9,16.3,40.2,30,40.2,30c-23.1-37.9-24.7-47.4-24.7-47.8"/>
	</g>
	<path id="XMLID_78_" fill="#E06651" stroke="#C13D11" stroke-linecap="round" stroke-linejoin="round" stroke-miterlimit="10" d="
		M22.8,75.4C18,59.1,28,21.9,38.4,11.9C49.6,9.1,54,44.7,54,44.7L22.8,75.4z"/>
	<path id="XMLID_77_" fill="#F2E4D3" stroke="#9B8675" stroke-linecap="round" stroke-linejoin="round" stroke-miterlimit="10" d="
		M46.8,39.9c-4.4-9.6-20-37.6-22-39.2c8.8-0.4,12,0,12,0c-9.6-4.4-11.6-4.4-12.8-4c11.2-6,16-7.6,16-7.6c-8.4-2.8-10-5.6-10-5.6
		c9.6,0.8,18-6.4,26.8-11.6s28.8-12.4,51.5-8.8c22.8,3.6,43.6,30.4,43.6,30.4c-3.2,2-8.4,9.6-8.4,9.6c4.8-2.8,9.2-2.8,9.2-2.8
		c-8,9.2-12.8,26-18,33.2s-18.4,20.8-20.4,22c3.2,3.6,4,8,4,8c-8.8-3.6-17.2-1.6-17.2-1.6c5.6,2.8,12.8,4,12.8,4
		c-13.6,5.6-25.6,0.4-25.6,0.4c7.2,13.2,5.6,15.2,5.6,15.2c-16.4-10.8-28.8-21.2-33.6-26S46.8,39.9,46.8,39.9z"/>
	<g id="catear_2_">
		<path id="XMLID_76_" fill="#F2E4D3" stroke="#9B8675" stroke-linecap="round" stroke-linejoin="round" stroke-miterlimit="10" d="
			M65.5,51.5C48.7,65.9,22,76.2,22,76.2c27.6-34.8,30.4-44,30.4-44.4"/>
	</g>
	<g id="XMLID_73_">
		<path id="XMLID_74_" d="M82.9-5.6c-0.2-3.4-1.3-6-2.3-6S78.8-8.7,79-5.3s1.3,6,2.3,6S83.1-2.2,82.9-5.6z"/>
	</g>
	<g id="XMLID_71_">
		<path id="XMLID_72_" d="M122.6,0.9c-0.2-3.4-1.3-6-2.3-6c-1.1,0.1-1.8,2.9-1.5,6.2s1.3,6,2.3,6C122.2,7,122.9,4.3,122.6,0.9z"/>
	</g>
	<g id="XMLID_69_">
		<path id="XMLID_70_" fill="none" stroke="#000000" stroke-linecap="round" stroke-linejoin="round" stroke-miterlimit="10" d="
			M74.8,5.2c0.9,2.9,5.8,6.3,10,1.9"/>
	</g>
	<g id="XMLID_66_">
		<g id="XMLID_67_">
			<path id="XMLID_68_" d="M126.6,13.9c-0.1-0.1-0.3,0-0.4,0.2c-1.7,2.2-3.3,2.4-4.3,2.2c-1.6-0.3-2.8-1.9-3-3.2
				c0-0.3-0.3-0.4-0.5-0.3c-0.2,0.1-0.4,0.4-0.3,0.6c0.3,1.6,1.6,3.4,3.5,3.8c1.7,0.4,3.5-0.5,5.1-2.5
				C126.9,14.5,126.9,14.2,126.6,13.9C126.7,13.9,126.7,13.9,126.6,13.9z"/>
		</g>
	</g>
	<path id="XMLID_65_" fill="#DD5E4A" stroke="#CC3E17" stroke-linecap="round" stroke-linejoin="round" stroke-miterlimit="10" d="
		M98.2-14.7c3.4,2.2,13.2,3.1,13.2,3.1c-3.1-5.5-5.9-7.4-5.9-7.4C101.9-17.5,98.2-14.7,98.2-14.7z"/>
	<path id="XMLID_64_" fill="none" stroke="#000000" stroke-linecap="round" stroke-linejoin="round" stroke-miterlimit="10" d="
		M94.2-23.4c4.9-4.6,8.9-3.4,11.4,0.6c4.6-3.1,8.6,0.3,9.6,3.7"/>
	<path id="XMLID_63_" fill="none" stroke="#000000" stroke-linecap="round" stroke-linejoin="round" stroke-miterlimit="10" d="
		M105.6-19c0.2-1.7,0-3.8,0-3.8"/>
	<path id="XMLID_62_" fill="none" stroke="#000000" stroke-linecap="round" stroke-linejoin="round" stroke-miterlimit="10" d="
		M109-27.5c-1.1-2.6-3.9-3.3-4.8-3"/>
	<path id="XMLID_61_" fill="none" stroke="#000000" stroke-linecap="round" stroke-linejoin="round" stroke-miterlimit="10" d="
		M133.5-6.6"/>
	<g id="XMLID_59_">
		<path id="XMLID_60_" fill="none" stroke="#000000" stroke-linecap="round" stroke-linejoin="round" stroke-miterlimit="10" d="
			M134.4-6.4c6.7,6.9,32.5,18.2,48.5,11.7"/>
	</g>
	<g id="XMLID_45_">
		<path id="XMLID_46_" fill="none" stroke="#000000" stroke-linecap="round" stroke-linejoin="round" stroke-miterlimit="10" d="
			M134.3-12.2c8.5,4.4,36.5,7.3,49.7-3.9"/>
	</g>
	<g id="XMLID_31_">
		<path id="XMLID_35_" fill="none" stroke="#000000" stroke-linecap="round" stroke-linejoin="round" stroke-miterlimit="10" d="
			M30.6-14.7c8.6,4.3,36.6,6.7,49.6-4.7"/>
	</g>
	<g id="XMLID_13_">
		<path id="XMLID_14_" fill="none" stroke="#000000" stroke-linecap="round" stroke-linejoin="round" stroke-miterlimit="10" d="
			M38.4-47.2c4.8,8.3,27,25.6,44.1,23.2"/>
	</g>
</symbol>
<rect x="0" fill="#BAE8E2" width="648" height="432"/>
<g id="Layer_14">
	
		<use xlink:href="#cat_2"  width="393.5" height="212.4" id="XMLID_75_" x="-196.8" y="-106.2" transform="matrix(1.4922 0 0 -1.4922 323.1848 215.5104)" overflow="visible"/>
</g>
</svg>
