<?xml version="1.0" encoding="utf-8"?>
<!-- Generator: Adobe Illustrator 19.0.0, SVG Export Plug-In . SVG Version: 6.00 Build 0)  -->
<!DOCTYPE svg PUBLIC "-//W3C//DTD SVG 1.0//EN" "http://www.w3.org/TR/2001/REC-SVG-20010904/DTD/svg10.dtd">
<svg version="1.0" xmlns="http://www.w3.org/2000/svg" xmlns:xlink="http://www.w3.org/1999/xlink" x="0px" y="0px"
	 viewBox="0 0 648 432" enable-background="new 0 0 648 432" xml:space="preserve">
<symbol  id="apple" viewBox="-38.7 -46.2 77.5 92.5">
	<path id="XMLID_395_" fill="#C11F1F" stroke="#870808" stroke-linecap="round" stroke-linejoin="round" stroke-miterlimit="10" d="
		M2.6,19.9c13.2,10,20.9,10.3,29.2-1.1s8-28,2-36.9S21.5-43.3,12.7-44.8c-10-1.7-11.4,4.9-12.6,4.6c-6-4-4-4.3-9.4-5.4
		C-14.8-46.8-26.3-39-38-5.8c-2.9,33.2,21.5,31.2,26.9,29.5C-5.7,21.9,2.6,19.9,2.6,19.9z"/>
	<path id="XMLID_394_" fill="#89C957" stroke="#629E2E" stroke-linecap="round" stroke-linejoin="round" stroke-miterlimit="10" d="
		M1.2,15.1c-9.7,4.3-21.1,6.7-22.9,29c16-0.4,19.9-7.3,23.8-16C2,21.1,1.2,15.1,1.2,15.1z"/>
	<path id="XMLID_393_" fill="#89C957" stroke="#629E2E" stroke-linecap="round" stroke-linejoin="round" stroke-miterlimit="10" d="
		M-12,34.5c5.5-2.4,11.2-7.3,13-16"/>
	<path id="XMLID_392_" fill="#7F3F05" stroke="#A85009" stroke-linecap="round" stroke-linejoin="round" stroke-miterlimit="10" d="
		M8.5,45.7c-12-10.2-7.5-26-7.1-30.9C2.8,14.2,4,13.4,4,13.4C2.8,15,3.2,15,4.8,16.1C3,27,10.3,36.6,16.2,40.4
		C14,46.3,8.5,45.7,8.5,45.7z"/>
	<path id="XMLID_391_" fill="#C11F1F" stroke="#870808" stroke-linecap="round" stroke-linejoin="round" stroke-miterlimit="10" d="
		M-5.1,17.3c8-2.3,12.6-6.9,12.6-6.9"/>
	<path id="XMLID_390_" fill="#C11F1F" stroke="#870808" stroke-linecap="round" stroke-linejoin="round" stroke-miterlimit="10" d="
		M-5.1-36.2c5.4-1.4,5.2-4,5.2-4"/>
	<path id="XMLID_389_" fill="#C11F1F" stroke="#870808" stroke-linecap="round" stroke-linejoin="round" stroke-miterlimit="10" d="
		M2.6,14.5c2.6,3.1,10.6,4.6,10.6,4.6"/>
</symbol>
<symbol  id="brow1" viewBox="-9.6 -4.6 19.2 9.3">
	<path id="XMLID_402_" fill="none" stroke="#000000" stroke-linecap="round" stroke-linejoin="round" stroke-miterlimit="10" d="
		M-9.1-4.1c2,3.6,12.6,13.6,18.2,4.6"/>
</symbol>
<symbol  id="eye" viewBox="-5.7 -10 11.4 20">
	<path id="XMLID_408_" stroke="#000000" stroke-linecap="round" stroke-linejoin="round" stroke-miterlimit="10" d="M4.5-1.3
		C3-6.5-0.2-10.1-2.7-9.4S-5.9-3.9-4.5,1.3s4.7,8.8,7.1,8.1S5.9,3.9,4.5-1.3z"/>
</symbol>
<symbol  id="girl" viewBox="-177 -192.3 353.9 384.6">
	<path id="XMLID_501_" fill="#C4BBBF" stroke="#776B6F" stroke-linecap="round" stroke-linejoin="round" stroke-miterlimit="10" d="
		M-98.2,54.2c-11,17.6-26.6,43.4-32.1,46.6s-12.9,11.3-7,16s15.7-4.7,22.7-18s15.7-35.2,21.9-39.1c5.9,7,12.4,1.2,16-4
		c4.2-6.2,15.3-14,13-16.3c-2.3-2.3-20,16-21.1,15.3c-1.2-0.8-1.2-2.7,5.1-9c6.3-6.3,14.1-12.9,12.5-14.1
		c-1.6-1.2-16.8,11-21.9,16.4c-1.8,1.9-4.5-0.8-2-4.7c3.8-5.8,15.3-11.9,18.1-13.8s-7.9-4.7-21.6,7.8
		C-106.9,48.4-100.5,51.1-98.2,54.2z"/>
	<path id="XMLID_500_" fill="#2D1C1B" stroke="#604B40" stroke-linecap="round" stroke-linejoin="round" stroke-miterlimit="10" d="
		M45.1,188.8c34.4-8.6,53.2-24.3,68.5-80.6s16.8-68.5,19.6-72c34.4-1.2,45.4-25,43-34.4c-2.3-9.4-11-30.1-20.7-36.8
		c24.3-29-6.7-56-25.4-52.4c-27,17.6-70.8,69.3-85.7,70.8c-14.9,1.6-90.2-28.2-90.2-28.2c10.5,28.5,3.9,96.7-0.4,109.7
		s-10.5,52.7-10.5,52.7"/>
	<path id="XMLID_499_" fill="#99604A" stroke="#773125" stroke-linecap="round" stroke-linejoin="round" stroke-miterlimit="10" d="
		M-116.2,54.6C-99.7,8-81.3,6.5-25,7.2c17.2-27.8,10.2-35.6,10.2-35.6C-79.4-42.5-123.6-6.5-133.4,44.8c-7.4,49.7,12.9,55.6,16,57.5
		s20.7,2.7,22.3-13.7c1.6-16.4-14.5-25.8-16-25.8c-2.7-5.9-7.8-12.9-12.5-14.9"/>
	<path id="XMLID_498_" fill="#905EAD" stroke="#643189" stroke-linecap="round" stroke-linejoin="round" stroke-miterlimit="10" d="
		M10.2,24.5C5.5,21.3-29.3,9.6-30.5,10C-23.8-9.6-9.3-28-9.3-28C4-91.8,4.4-114.5,4.4-114.5l103.3-1.2c0,0,2.3,21.9,2,36.4
		s-1.2,77.9-3.5,81.4"/>
	<path id="XMLID_497_" fill="#F4E7CB" stroke="#918263" stroke-linecap="round" stroke-linejoin="round" stroke-miterlimit="10" d="
		M76.5-157.4c0-19-56.6-34.4-126.5-34.4s-126.5,15.4-126.5,34.4S-119.8-123-50-123S76.5-138.4,76.5-157.4z"/>
	<path id="XMLID_496_" fill="#99604A" stroke="#773125" stroke-linecap="round" stroke-linejoin="round" stroke-miterlimit="10" d="
		M76.8-37c19.2-27,35.2-57.9,0.4-99c-29.3-5.1-39.5-4.7-33.3-11.3s23.1-3.1,23.1-3.1c-12.5-7.8-26.2-14.1-31.7-20.3
		s-10.6-15.7,2.7-17.6c13.3-2,47.7,10.6,59.9,38c28.2,24.7,57.5,77.9,13.7,141.7C83-17,76.8-37,76.8-37z"/>
	<path id="XMLID_495_" fill="#905EAD" stroke="#643189" stroke-linecap="round" stroke-linejoin="round" stroke-miterlimit="10" d="
		M59.5-18.2C69.3-30.3,76-47.5,76-47.5c2.3,1.6,31.3,13.3,42.7,40.3c-7,12.9-34.8,41.5-76.3,39.1"/>
	<path id="XMLID_494_" fill="#F4E7CB" stroke="#918263" stroke-linecap="round" stroke-linejoin="round" stroke-miterlimit="10" d="
		M40.4-157.4C40.4-171-0.1-182-50-182s-90.3,11-90.3,24.6s40.5,24.6,90.3,24.6S40.4-143.9,40.4-157.4z"/>
	<path id="XMLID_493_" fill="#99604A" stroke="#773125" stroke-linecap="round" stroke-linejoin="round" stroke-miterlimit="10" d="
		M3.2,40.5c11.7-25,16.4-37.2,16.4-37.2c16-9.4,29,0.8,31.7,16.8C39.6,46,37.2,49.5,37.2,49.5S3.2,40.1,3.2,40.5z"/>
	<g id="XMLID_465_">
		<g id="XMLID_488_">
			<path id="XMLID_492_" fill="#ED98BF" d="M-136.1-74.6c3.4-27.2,8.6-79.8,8.6-79.8c53.8-36.1,143.9-18,159.6-1.1
				c5,60.2,8.8,84.2,7.6,84.6C38.5-70.5-131.1-67-136.1-74.6z"/>
			<path id="XMLID_489_" fill="#BF517E" d="M-52.2-175.8c-22.2,0.5-51.5,4.8-75.5,20.9c-0.1,0.1-0.2,0.2-0.2,0.4
				c-0.1,0.5-5.2,52.9-8.6,79.8c0,0.1,0,0.3,0.1,0.4c2.2,3.4,32.4,5.1,89.7,5.1c43,0,85.9-1,86.6-1.2c0.9-0.3,0.8-1.9-1.1-20.2
				c-1.4-13.8-3.6-34.7-6.2-65c0-0.1-0.1-0.2-0.1-0.3c-8.6-9.3-36.3-17.4-65.8-19.5C-38.6-175.8-45.1-176-52.2-175.8z M-127-154.1
				c31.5-21,72.1-21.7,93.6-20.2c24.4,1.7,55.4,8.9,65,19c2.5,30.2,4.7,51,6.1,64.8c1.2,11,1.9,17.8,1.6,19.1
				c-3,0.2-44.7,1.2-86.8,1.2c-72.3,0-86.5-2.8-88.2-4.5C-132.3-100.8-127.4-150.1-127-154.1z"/>
		</g>
		<g id="XMLID_483_">
			<path id="XMLID_487_" fill="#ED98BF" d="M-95.5-42.8c-19.9-10.3-41.5-21.8,0.1-29.7S15-79.9,25.7-67.2s20.2,22.3-1,27.1
				s-63.3,7.5-63.3,7.5L-95.5-42.8z"/>
			<path id="XMLID_484_" fill="#BF517E" d="M-42.6-78.1c-18.7,0.4-37.8,2.2-52.9,5.1c-15.7,3-23.6,6.7-24.2,11.4
				c-0.8,6.5,12.3,13.3,23.9,19.3c0,0,0.1,0,0.1,0L-38.7-32c0,0,0.1,0,0.1,0c0.4,0,42.4-2.8,63.4-7.5c7.7-1.7,11.8-4.2,12.8-7.6
				c1.5-5-3.9-11.4-10.1-18.7l-1.5-1.7c-5-5.9-23-9.7-49.3-10.5C-29.5-78.3-36.1-78.3-42.6-78.1z M-95.4-43.3
				c-10.7-5.5-24.1-12.4-23.3-18.2c0.5-4.1,8.4-7.7,23.4-10.5c42.8-8.1,110.3-7,120.7,5.2l1.5,1.7c6,7.1,11.2,13.2,9.9,17.6
				c-0.9,3-4.9,5.3-12.1,6.9c-20.6,4.7-61.5,7.4-63.2,7.5L-95.4-43.3z"/>
		</g>
		<g id="XMLID_478_">
			<path id="XMLID_482_" fill="#FFE1F0" d="M-124.8-76.8c6.4-15.2,20.2-25.5,39.4-13.1c8.9-18.7,33.7-8.9,34.7-3.3
				c6.7-15.5,38.6-10,43.1,5.3c11.3-15,31.1-8.2,34.6,5.5c13.5-11,25.8,2.5,27.6,18.8c1.8,16.2-3.2,36.4-26,25.6
				C20.5-13.5,7.1-23.5-0.6-29.6c-10.7,16.8-28.2,8.2-32.1,3.9C-43-4.2-64.9-18.4-67.5-27.1c-12,22.5-32.9,5.5-35.4-2
				c-19.6,13.9-29.2-9.3-29.6-14.3c-22.7,5.8-22.6-15.1-20.7-22.1C-151.3-72.4-137.5-95.2-124.8-76.8z"/>
			<path id="XMLID_479_" fill="#FFBDE4" d="M-33.9-103c-7.9,0.2-13.9,3.2-16.7,8.5c-1.6-2.8-7.1-5.6-13.1-6.6
				c-4.7-0.7-16-1.1-21.8,10.4c-8.2-5.1-15.8-6.5-22.8-4.2c-6.9,2.3-12.8,8.3-16.6,17.1c-3.7-5.1-7.8-7.2-12.2-6.4
				c-8.5,1.6-15.3,13.9-16.5,18.6c-1.3,4.7-1.5,14.1,3.3,19.5c3.7,4.2,9.6,5.3,17.4,3.4c0.6,3.9,4.6,13.2,11.8,17
				c5.4,2.8,11.4,1.9,17.9-2.5c2.1,4.8,10,12.1,18.5,12.9c4.8,0.5,11.6-1,17.1-10.5c2.2,5.2,10,11.2,17.8,12
				c5.1,0.5,12.2-1,17.2-10.9c3,2.8,10,6.3,17.1,5.7c6-0.6,11.1-3.8,14.9-9.7c4.4,3.4,11.4,8.7,18,6.5c4.7-1.5,8.6-6.6,11.5-15.1
				c8.2,3.8,14.7,3.8,19.4,0.1c6.6-5.3,7.9-17.1,6.8-26.5c-1.2-10.3-6.3-19-13-22c-3.4-1.5-8.6-2.3-14.9,2.5
				c-2-6.4-7.6-11.5-14.5-13.1c-7.5-1.7-15,1.1-20.2,7.5c-3-8.2-13.8-13.2-23.3-13.9C-31.8-103-32.8-103-33.9-103z M-50.6-92.7
				c0.2,0,0.4-0.1,0.4-0.3c2.7-6.2,9.9-9.5,19.5-8.9c9.4,0.7,20.3,5.7,22.7,14c0.1,0.2,0.2,0.3,0.4,0.4c0.2,0,0.4,0,0.5-0.2
				c5.1-6.7,12.3-9.5,19.8-7.8c6.8,1.5,12.3,6.7,14,13.1c0,0.2,0.2,0.3,0.3,0.4c0.2,0.1,0.3,0,0.5-0.1c4.8-3.9,9.8-4.9,14.4-2.8
				c6.3,2.9,11.3,11.4,12.4,21.2c1,9.1-0.1,20.5-6.4,25.5c-4.5,3.5-10.8,3.4-18.9-0.4c-0.1-0.1-0.3-0.1-0.4,0
				c-0.1,0.1-0.2,0.2-0.3,0.3c-2.8,8.5-6.5,13.5-11,15C10.9-21.2,3.9-26.7-0.3-30c-0.1-0.1-0.2-0.1-0.4-0.1c-0.1,0-0.2,0.1-0.3,0.2
				c-3.7,5.9-8.6,9.1-14.5,9.7c-7.9,0.7-14.9-3.7-16.8-5.8c-0.1-0.1-0.3-0.2-0.4-0.2c-0.2,0-0.3,0.1-0.4,0.3
				c-4.7,9.9-11.6,11.4-16.6,11c-8-0.8-15.9-7.2-17.3-12.3c-0.1-0.2-0.2-0.3-0.4-0.4c-0.2,0-0.4,0.1-0.5,0.3
				c-4.2,7.8-9.9,11.5-16.6,10.9c-8.7-0.8-16.5-8.8-17.9-12.8c-0.1-0.2-0.2-0.3-0.3-0.3c-0.1-0.1-0.3,0-0.4,0.1
				c-6.4,4.5-12.3,5.5-17.5,2.8c-7.2-3.7-11.1-13.6-11.3-16.7c0-0.2-0.1-0.3-0.2-0.4c-0.1-0.1-0.3-0.1-0.4-0.1c-7.8,2-13.5,1-17-2.9
				c-4.5-5.1-4.3-14-3.1-18.5c1.2-4.3,7.8-16.3,15.8-17.8c4.2-0.8,8.1,1.5,11.7,6.7c0.1,0.2,0.3,0.2,0.4,0.2c0.2,0,0.3-0.1,0.4-0.3
				c3.7-8.9,9.5-15,16.3-17.3c6.8-2.3,14.3-0.8,22.4,4.4c0.1,0.1,0.3,0.1,0.4,0.1c0.1,0,0.2-0.1,0.3-0.3c5.5-11.4,16.5-11,21.1-10.3
				c6.8,1.1,12.3,4.5,12.7,6.9C-51.1-92.9-50.9-92.7-50.6-92.7C-50.7-92.7-50.6-92.7-50.6-92.7z"/>
		</g>
		<g id="XMLID_475_">
			<path id="XMLID_477_" fill="#FFE1F0" d="M-120.2-54.9c8.4,7.9,34.1,6.7,37.8-9.6c12.2,10.4,29.1,5.6,33.6-2.3
				c7.6,12,32.1,11.8,37.9-5.6C-6.4-51,14.2-47.1,21.5-60.1c8.8,14.5,16.8,16.5,23.4,13.9"/>
			<path id="XMLID_476_" fill="#FFBDE4" d="M-11-73c-0.2,0-0.4,0.1-0.5,0.3c-2.4,7.3-8.7,12.3-16.8,13.3c-8.4,1.1-16.5-2-20.1-7.9
				c-0.1-0.1-0.3-0.2-0.4-0.2c-0.2,0-0.3,0.1-0.4,0.3c-2,3.6-6.8,6.5-12.3,7.6c-7.3,1.4-14.8-0.6-20.5-5.4c-0.1-0.1-0.3-0.1-0.5-0.1
				c-0.2,0.1-0.3,0.2-0.3,0.4c-1.3,5.8-5.7,10.2-12.5,12.5c-8.7,2.9-19.7,1.5-24.5-3.1c-0.2-0.2-0.5-0.2-0.7,0
				c-0.2,0.2-0.2,0.5,0,0.7c5.2,4.9,16.3,6.4,25.4,3.3c6.8-2.3,11.3-6.7,12.9-12.5c5.8,4.7,13.3,6.5,20.7,5.1
				c5.5-1.1,10.2-3.9,12.6-7.4c4.1,5.8,12.2,8.8,20.7,7.7c7.9-1.1,14.2-5.7,17.1-12.5C-8-58.9-0.2-53.5,6.2-52.4
				c6.2,1.1,12-1.5,15.3-6.8C29-47.1,37-42.6,45.1-45.8c0.3-0.1,0.4-0.4,0.3-0.7c-0.1-0.3-0.4-0.4-0.6-0.3
				c-7.9,3.1-15.3-1.3-22.8-13.6c-0.1-0.2-0.3-0.2-0.4-0.2c-0.2,0-0.3,0.1-0.4,0.3c-3,5.4-8.6,8-14.7,7C0-54.5-7.8-60.2-10.5-72.6
				C-10.5-72.9-10.7-73-11-73C-11-73-11-73-11-73z"/>
		</g>
		<g id="XMLID_473_">
			<path id="XMLID_474_" fill="#FFBDE4" d="M25.1-55.7c-0.1,0-0.3,0.1-0.4,0.2c-0.1,0.1-2.7,3.3-5.6,9.9c-2.1-1.1-10.8-5-17.9,3.1
				c-3.7-4.7-9.8-7.5-16.5-7.7c-8-0.1-15.4,3.6-20.9,10.4c-1.5-1.8-7.5-8-15.1-8.2c-4.6-0.1-9,2-13,6.4c-3.1-3.2-14.2-10.9-25.6-2.6
				c-0.7-1.7-3.1-6.4-7.4-7.4c-0.3-0.1-0.5,0.1-0.6,0.4c-0.1,0.3,0.1,0.6,0.4,0.6c4.7,1.1,7,7.3,7,7.3c0.1,0.2,0.2,0.3,0.3,0.3
				c0.1,0,0.3,0,0.4-0.1c11.5-8.9,22.7-0.3,25.1,2.5c0.1,0.1,0.2,0.2,0.4,0.2c0.1,0,0.3-0.1,0.4-0.2c3.9-4.4,8.1-6.6,12.6-6.5
				c8.3,0.2,14.7,8.2,14.8,8.3c0.1,0.1,0.2,0.2,0.4,0.2c0.1,0,0.3-0.1,0.4-0.2c5.4-6.9,12.6-10.6,20.5-10.5c6.6,0.1,12.6,3,16.1,7.7
				c0.1,0.1,0.2,0.2,0.4,0.2c0.1,0,0.3-0.1,0.4-0.2c7.6-9.1,17.2-3.3,17.6-3c0.1,0.1,0.3,0.1,0.4,0c0.1,0,0.2-0.1,0.3-0.3
				c3-6.8,5.7-10.1,5.7-10.1c0.2-0.2,0.2-0.5,0-0.7C25.3-55.7,25.2-55.7,25.1-55.7z"/>
		</g>
		<g id="XMLID_471_">
			<path id="XMLID_472_" fill="#FFBDE4" d="M-94.8-137.7c-0.1,0-0.2,0-0.2,0c-6.1,0.3-12.4,5-17.3,12.9c-4.7,7.7-9.1,9.7-12,10.1
				c-2.5,0.3-5-0.6-6.9-2.6c-0.2-0.2-0.5-0.2-0.7,0c-0.2,0.2-0.2,0.5,0,0.7c2.1,2.2,4.9,3.2,7.7,2.9c3.1-0.4,7.7-2.5,12.7-10.5
				c4.7-7.7,10.7-12.2,16.5-12.4c5-0.2,9.8,2.7,14.1,8.6c4.6,6.3,9.5,9.6,14.5,9.7c5.1,0.1,10.5-3.2,15.4-9.6
				c5.4-6.9,10.2-10.2,14.7-10.1c3.9,0.1,7.7,2.8,11.3,8.1c5,7.3,12,11.3,19.1,11c6-0.3,11.2-3.7,14.4-9.2c3.4-6,7.3-8.8,11.6-8.3
				c6.1,0.6,11.6,7.7,13.7,14c0.1,0.3,0.4,0.4,0.6,0.3c0.3-0.1,0.4-0.4,0.3-0.7c-2.2-6.6-8.1-14-14.6-14.7
				c-3.3-0.3-8.1,0.9-12.5,8.8c-3,5.3-7.9,8.5-13.6,8.7c-6.7,0.3-13.4-3.5-18.2-10.5c-3.8-5.5-7.8-8.3-12-8.5
				c-4.9-0.2-9.9,3.2-15.5,10.4c-3.3,4.3-8.5,9.3-14.6,9.2c-4.7-0.1-9.3-3.2-13.8-9.3C-84.6-134.8-89.5-137.9-94.8-137.7z"/>
		</g>
		<g id="XMLID_466_">
			<path id="XMLID_470_" fill="#ED98BF" d="M-95.2-50.6c4.9,1.8,5.3,6.1,5.3,6.1c6.5-6.3,17.5-5.6,25.4,2.1c10.9-10.9,25-3.9,28.2,2
				C-27.9-49.6-9.2-56,1-42.8C5.5-49.1,16-49,18.7-46c3-8.4,5.6-8.9,5.6-8.9c-2.9-3-2.9-3.2-2.9-3.2c-6.3,8.2-23.7,12.3-32.7-11.8
				c-6.5,15-28.8,15.8-37.5,4.4c-10.3,12.8-27.4,7-33.2,2.4C-85.7-53.2-95.2-50.6-95.2-50.6z"/>
			<path id="XMLID_467_" fill="#BF517E" d="M-11.3-70.4c-0.2,0-0.4,0.1-0.4,0.3c-2.8,6.4-8.8,10.7-16.4,11.7
				c-8.1,1.1-16-1.8-20.2-7.3c-0.1-0.1-0.2-0.2-0.4-0.2c-0.1,0-0.3,0.1-0.4,0.2c-10.5,13-27.6,6.3-32.6,2.3
				c-0.1-0.1-0.3-0.1-0.4-0.1c-0.1,0-0.3,0.2-0.3,0.3c-3.5,9.5-12.8,12.1-12.9,12.1c-0.2,0.1-0.4,0.3-0.4,0.5c0,0.2,0.1,0.4,0.3,0.5
				c4.5,1.7,5,5.7,5,5.7c0,0.2,0.1,0.4,0.3,0.4c0.2,0.1,0.4,0,0.5-0.1c6.4-6.1,17.2-5.2,24.7,2.1c0.2,0.2,0.5,0.2,0.7,0
				c5.6-5.6,11.6-6,15.7-5.3c5.7,0.9,10.2,4.3,11.7,7.2c0.1,0.1,0.2,0.2,0.4,0.3c0.2,0,0.3,0,0.4-0.2c4.7-5.2,13.5-10.2,22.6-9.8
				c5.7,0.3,10.6,2.8,14.1,7.3c0.1,0.1,0.2,0.2,0.4,0.2c0.1,0,0.3-0.1,0.4-0.2c2.1-2.8,5.8-4.7,10-5c3-0.2,5.8,0.5,7,1.8
				c0.1,0.1,0.3,0.2,0.4,0.1c0.2,0,0.3-0.2,0.4-0.3c2.8-7.8,5.2-8.6,5.2-8.6c0.2,0,0.3-0.2,0.4-0.4c0-0.2,0-0.4-0.1-0.5
				c-2.3-2.4-2.7-2.9-2.8-3c-0.1-0.1-0.2-0.2-0.3-0.3c-0.2-0.1-0.4,0-0.5,0.2c-2.9,3.8-8.7,7.1-15.1,6C1-53.2-6-57-10.9-70.1
				C-10.9-70.3-11.1-70.4-11.3-70.4C-11.3-70.4-11.3-70.4-11.3-70.4z M-30.9-57.2c0.9,0,1.9-0.1,2.8-0.2c7.6-1,13.6-5.1,16.7-11.2
				C-6.3-55.9,0.7-52.2,5.8-51.4c6.5,1.1,12.4-2.1,15.6-5.9c0.4,0.4,1,1.1,2,2.2c-1,0.7-2.8,2.7-4.9,8.2c-1.5-1.2-4.2-1.8-7.2-1.6
				C9.3-48.4,4.2-47.6,1-43.6c-3.6-4.5-8.6-7-14.4-7.2c-9.1-0.4-17.9,4.5-22.9,9.6c-1.9-2.9-6.3-6.2-12.1-7.1
				c-4.2-0.7-10.4-0.3-16.2,5.3c-7.7-7.3-18.3-8.3-25.1-2.4c-0.4-1.3-1.4-3.6-4.2-5.1c2.7-1.1,9-4.2,12-11.7c7,5.1,23.1,9.3,33-2.4
				C-44.8-59.8-38.1-57-30.9-57.2z"/>
		</g>
	</g>
	<path id="XMLID_464_" fill="#99604A" stroke="#773125" stroke-linecap="round" stroke-linejoin="round" stroke-miterlimit="10" d="
		M81.7,119.3c0-41.6-30.3-84.4-77.2-84.4s-78.3,40.6-78.3,82.2s32,70,78.9,70S50.8,122.6,81.7,119.3z"/>
	<path id="XMLID_463_" fill="#99604A" stroke="#773125" stroke-linecap="round" stroke-linejoin="round" stroke-miterlimit="10" d="
		M68.5,118.7c10.5,16,30.3,11,30.9-6.1c0.6-17.1-12.7-29.2-30.9-24.8"/>
	<g id="XMLID_461_">
		
			<path id="XMLID_462_" fill="#231F20" stroke="#231F20" stroke-linecap="round" stroke-linejoin="round" stroke-miterlimit="10" d="
			M33.6,103.7c1.5-6.2,1.2-11.6-0.6-12s-4.4,4.3-5.9,10.5s-1.2,11.6,0.6,12S32.2,109.9,33.6,103.7z"/>
	</g>
	<g id="XMLID_459_">
		
			<path id="XMLID_460_" fill="#231F20" stroke="#231F20" stroke-linecap="round" stroke-linejoin="round" stroke-miterlimit="10" d="
			M-30.5,96.2c1.5-6.2,1.2-11.6-0.6-12s-4.4,4.3-5.9,10.5c-1.5,6.2-1.2,11.6,0.6,12S-32,102.5-30.5,96.2z"/>
	</g>
	<path id="XMLID_458_" fill="#99604A" stroke="#773125" stroke-linecap="round" stroke-linejoin="round" stroke-miterlimit="10" d="
		M-7.3,100.5c-8.3-10.9-3.6-24.5,8.9-23.2"/>
	<path id="XMLID_457_" fill="none" stroke="#231F20" stroke-linecap="round" stroke-linejoin="round" stroke-miterlimit="10" d="
		M4,58.5c16.4,1.2,18.4,16.8,17.6,21.9"/>
	<path id="XMLID_456_" fill="none" stroke="#231F20" stroke-linecap="round" stroke-linejoin="round" stroke-miterlimit="10" d="
		M20,140.7c4.3,4.7,16.8,5.9,21.5-3.9"/>
	<path id="XMLID_455_" fill="none" stroke="#231F20" stroke-linecap="round" stroke-linejoin="round" stroke-miterlimit="10" d="
		M-30.9,126.6c-7.4,4.3-17.6-3.1-17.2-11.3"/>
	<path id="XMLID_454_" fill="#2D1C1B" stroke="#604B40" stroke-linecap="round" stroke-linejoin="round" stroke-miterlimit="10" d="
		M51.7,124.3c5.5-11.7,6.7-28.2,6.7-28.2c9.8,17.2,12.5,25.8,11.7,29.7C69.3,129.7,51.7,124.3,51.7,124.3z"/>
	<path id="XMLID_453_" fill="#2D1C1B" stroke="#604B40" stroke-linecap="round" stroke-linejoin="round" stroke-miterlimit="10" d="
		M73.5,124.2c-34-11.3-65.6-1.5-88.7,54c-11-26.2-49.7-47-58.7-44.2c3.1,27.8,46.6,69.3,119,54.8"/>
</symbol>
<symbol  id="girlleg_2" viewBox="-69.3 -19.2 138.6 38.4">
	<path id="XMLID_123_" fill="#D8AE8B" stroke="#933F22" stroke-linecap="round" stroke-linejoin="round" stroke-miterlimit="10" d="
		M48.2,18.7C62.2,10.2,70.7,2,68.5-9.6c-2.2-11.6-59.2-4-85.6,7.3c-18.5-10.7-43.6-20-48.5-11.1c-4.9,8.9,24,26.9,40.5,28.7
		C-8.7,16,23.5,9.6,23.5,9.6L48.2,18.7z"/>
	<path id="XMLID_122_" fill="#E5F5F9" stroke="#8CA8AF" stroke-linecap="round" stroke-linejoin="round" stroke-miterlimit="10" d="
		M1.7,13.1c-4.7-5.3-5.1-18-4.2-21.8c-14.2,3.1-15.1,5.6-15.1,5.6c-22.2-15.6-42.3-19.6-50.5-11.6c-5.6,10,24,29.8,40.9,31.6
		C-10.7,18,1.7,13.1,1.7,13.1z"/>
	<path id="XMLID_121_" fill="#E5F5F9" stroke="#8CA8AF" stroke-linecap="round" stroke-linejoin="round" stroke-miterlimit="10" d="
		M-26.3,2.5c5.1-3.6,8.7-5.6,8.7-5.6"/>
	<path id="XMLID_55_" fill="#D8AE8B" stroke="#933F22" stroke-linecap="round" stroke-linejoin="round" stroke-miterlimit="10" d="
		M33.5,2.9c3.8-3.3,12.2-10,12.2-10"/>
</symbol>
<symbol  id="sweat1" viewBox="-4.7 -3.9 9.5 7.9">
	<path id="XMLID_21_" fill="#8AFCFF" stroke="#4A6984" stroke-linecap="round" stroke-linejoin="round" stroke-miterlimit="10" d="
		M-4.2-3.4C-1.1,1.9,2.4,5.2,4,2.4C5.2,0.2,0.9-0.8-4.2-3.4z"/>
</symbol>
<symbol  id="window1" viewBox="-19.6 -19 39.2 34.3">
	<polygon id="XMLID_218_" fill="#A176B7" stroke="#50305E" stroke-miterlimit="10" points="-19.1,-14.8 19.1,-14.8 19.1,14.8 
		-19.1,14.8 	"/>
	<polygon id="XMLID_217_" fill="#A2D3DB" stroke="#CBE8EF" stroke-miterlimit="10" points="-9.1,-14.8 9.1,-14.8 9.1,14.8 
		-9.1,14.8 	"/>
	<polygon id="XMLID_216_" fill="#ADA67B" stroke="#ADA67B" stroke-miterlimit="10" points="-8.4,-18.5 8.4,-18.5 8.4,-12.6 
		-8.4,-12.6 	"/>
	<polygon id="XMLID_215_" fill="#F2EEDD" stroke="#ADA67B" stroke-miterlimit="10" points="-10.7,-16.5 10.7,-16.5 10.7,-10.6 
		-10.7,-10.6 	"/>
</symbol>
<g id="Layer_2">
	<rect id="XMLID_1_" x="0" fill="#CED2EA" width="648" height="432"/>
</g>
<g id="Layer_1">
	
		<rect id="XMLID_502_" y="334.2" fill="#EAD3E1" stroke="#A3729A" stroke-linecap="round" stroke-linejoin="round" stroke-miterlimit="10" width="648" height="95.6"/>
	
		<use xlink:href="#girl"  width="353.9" height="384.6" id="XMLID_6_" x="-177" y="-192.3" transform="matrix(1.0452 0 0 -1.0452 320.0573 213.682)" overflow="visible"/>
</g>
</svg>
