<?xml version="1.0" encoding="utf-8"?>
<!-- Generator: Adobe Illustrator 19.0.0, SVG Export Plug-In . SVG Version: 6.00 Build 0)  -->
<!DOCTYPE svg PUBLIC "-//W3C//DTD SVG 1.0//EN" "http://www.w3.org/TR/2001/REC-SVG-20010904/DTD/svg10.dtd">
<svg version="1.0" id="Layer_1" xmlns="http://www.w3.org/2000/svg" xmlns:xlink="http://www.w3.org/1999/xlink" x="0px" y="0px"
	 viewBox="0 0 648 432" enable-background="new 0 0 648 432" xml:space="preserve">
<symbol  id="baby" viewBox="-129.4 -126 258.9 251.9">
	<path id="XMLID_202_" fill="#EABE9D" stroke="#C18165" stroke-linecap="round" stroke-linejoin="round" stroke-miterlimit="10" d="
		M-51,32.6c0.2-6-5-7.1-7.3-2s-3.2,8.7,3,9.2c3.4,0.9,7.3-4.1,7.5-6.9c5.5-3.4,9.8-6.6,9.8-6.6c-1.2-3.7-4.8-14.2-6.4-14.6
		c-4.6,0-10.1,1.1-10.1,1.1l-4.8,13.3"/>
	<path id="XMLID_201_" fill="#58D6A3" stroke="#339E82" stroke-linecap="round" stroke-linejoin="round" stroke-miterlimit="10" d="
		M-12.9-43.9c-13.3-2.3-35.7-8-35.7-8c-11.9,20.3-14,19-17.8,14.6s-2-19.7-1.4-28.4c1.2-18.1,10-22.9,10-22.9
		c19.7-8.2,61.3-2,62.9-0.9C11.1-68.8-12.9-43.9-12.9-43.9z"/>
	<path id="XMLID_200_" fill="#58D6A3" stroke="#339E82" stroke-linecap="round" stroke-linejoin="round" stroke-miterlimit="10" d="
		M-5.6,19.2c-17.1,4.3-34.1,11.6-34.7,11.6C-49.5,24.4-52.2,11.6-52,7.3C-25.4-22.2-11-23.3-9-23.3c16.9,4.8,26.3,36.6,26.3,36.6
		L-5.6,19.2z"/>
	<path id="XMLID_199_" fill="#98E5C4" stroke="#72C19D" stroke-linecap="round" stroke-linejoin="round" stroke-miterlimit="10" d="
		M-57.8-63.7c1.2-10.8,3.1-17.3-3.1-18.5c-3-0.6-6.4,8.1-7.6,18.9c-1.2,10.8,0.3,19.8,3.3,20.1C-59-42.5-59-52.9-57.8-63.7z"/>
	<path id="XMLID_198_" fill="#58D6A3" stroke="#339E82" stroke-linecap="round" stroke-linejoin="round" stroke-miterlimit="10" d="
		M-0.6,2C-14-14.6-23-47.8-11.1-71.4s19.7-45,40.3-44.8s30.6,3.7,36.1,7.1c5.5,3.4,20.1,17.4,20.3,30.6S79.3-41.4,68-33.9
		C55.9-21.5,55.7,5,51.6,6.2s-47.8,8-47.8,8"/>
	<path id="XMLID_197_" fill="#EABE9D" stroke="#C18165" stroke-linecap="round" stroke-linejoin="round" stroke-miterlimit="10" d="
		M15,9.3c-6-5-13.2-19-1.4-21.7s16.2,13,25.1,18C29.9,11.6,14.8,9.1,15,9.3z"/>
	<path id="XMLID_196_" fill="#EABE9D" stroke="#C18165" stroke-linecap="round" stroke-linejoin="round" stroke-miterlimit="10" d="
		M-15.6,57.8c-7.2-5.7-22.5-29.4,22.5-49.5c16.2-7.8,53.7-9.3,69,6s22.5,36,21,49.2s-9.3,42.9-51.3,48S-13.5,93.4-15.6,57.8z"/>
	<path id="XMLID_195_" fill="#9CC2DB" stroke="#658EC1" stroke-linecap="round" stroke-linejoin="round" stroke-miterlimit="10" d="
		M-46.1-10.1l-9.8-2.5l-17.4,68l9.8,2.5c0,0,5-13.4,5-19.4c-3-6.8,2.9-11.4,2.9-11.4L-46.1-10.1z"/>
	<path id="XMLID_194_" fill="#EAD475" d="M29.2,111.4c-7.9-2.4-18.5-12.9-9.5-23.5s22.7-13.1,31.5-11s14.2,12.7,9.6,16.3
		c-4.5,3.7-9.8,4.4-12,3.3c-4.3-3.2,3.2-0.7,7.4-4.9c1.2-2.6-3.7-3.9-8.1-3.1c-6.3,1.2-12.7,6.5-1.3,12.1c2.7,2.2,14.3,5.2,19.8,5
		C49.8,115.3,29.2,111.4,29.2,111.4z"/>
	<path id="XMLID_193_" fill="none" stroke="#A07E48" stroke-linecap="round" stroke-linejoin="round" stroke-miterlimit="10" d="
		M56.3,89.8c-1.3-1-6-3.7-14.2,1c-7.4,4.3,6.3,13.7,24.7,14.7c-7.3,4.3-26.3,8.2-37.7,6c-20.3-8.3-14.3-26.3,3-32.7s28-0.3,30.3,8.7
		c2.3,9-16.3,12.3-14.3,6.7c4.3,1.7,10.3-2,8.3-6.3s-26.3-5-25.3,7c1,12,14,15,22.3,15.3"/>
	
		<use xlink:href="#eye"  width="7.3" height="16.9" id="XMLID_192_" x="-3.6" y="-8.4" transform="matrix(0.7154 -0.3122 0.3122 0.7154 39.9277 41.8512)" overflow="visible"/>
	
		<use xlink:href="#eye"  width="7.3" height="16.9" id="XMLID_191_" x="-3.6" y="-8.4" transform="matrix(0.7475 -0.2246 0.2246 0.7475 0.3308 55.0502)" overflow="visible"/>
	<path id="XMLID_190_" fill="#EABE9D" stroke="#C18165" stroke-linecap="round" stroke-linejoin="round" stroke-miterlimit="10" d="
		M72.3,34.4c8.4,4.2,21-3.9,13.7-14c-7.8-10.8-17-5.5-19.1,1.7"/>
	<path id="XMLID_189_" fill="#EABE9D" stroke="#C18165" stroke-linecap="round" stroke-linejoin="round" stroke-miterlimit="10" d="
		M21.3,49.1c-4.5,3-11.1,0.3-5.7-7.2"/>
	<path id="XMLID_188_" fill="#EABE9D" stroke="#C18165" stroke-linecap="round" stroke-linejoin="round" stroke-miterlimit="10" d="
		M-61.1,26.9c1.2-7,1-12.5-3.1-13.1c-4.1-0.7-8.4,4.4-9.5,11.4c-1.2,7,1.2,13.2,5.3,13.8C-64.2,39.7-62.2,33.9-61.1,26.9z"/>
	<path id="XMLID_187_" fill="none" stroke="#000000" stroke-linecap="round" stroke-linejoin="round" stroke-miterlimit="10" d="
		M-1.4,74.5c3,2,7.3,2.1,8.5-1.6"/>
	<path id="XMLID_186_" fill="#E07553" stroke="#99624A" stroke-linecap="round" stroke-linejoin="round" stroke-miterlimit="10" d="
		M6.9,32.4c1.6-4.6-2.2-11.6,1.7-13.7s14,1.8,16.2,7.6c-0.2,2-0.5,3.6-0.5,3.6c-8-2.5-16.2,0.4-20.4,5.9"/>
	<path id="XMLID_185_" fill="#EABE9D" stroke="#C18165" stroke-linecap="round" stroke-linejoin="round" stroke-miterlimit="10" d="
		M92.4,12.2l-6.8-4.1c-0.9-2.5,14.4-16.9,17.8-17.1c0,0,2.5,1.8,6.8,7.5c24.4,4.6,20.8,29.5,12.4,34.1s-17.8,0.5-21.7-9.6
		c-0.7,2-4.6,6.9-6.4,6.6s-3.3-3-3.6-5.7c-0.5-5.7-0.9-9.6,3.4-13.3"/>
	<path id="XMLID_184_" fill="none" stroke="#000000" stroke-linecap="round" stroke-linejoin="round" stroke-miterlimit="10" d="
		M41.5,63.7c2.7,1.1,6.9,1.4,8.7-3.4"/>
	<path id="XMLID_183_" fill="#EABE9D" stroke="#C18165" stroke-linecap="round" stroke-linejoin="round" stroke-miterlimit="10" d="
		M24.2,32.6c-1-5.7,2-8.4,2-8.4"/>
	<path id="XMLID_182_" fill="#58D6A3" stroke="#339E82" stroke-linecap="round" stroke-linejoin="round" stroke-miterlimit="10" d="
		M38.8-17.1C42.7-0.9,47.3,2.5,57.1,4.8s31.3,4.6,35.4,7.5c1.8-15.6,17.4-18.3,17.4-18.3C89.9-34.9,70.7-41.9,44.7-35.7"/>
	<path id="XMLID_181_" fill="#58D6A3" stroke="#339E82" stroke-linecap="round" stroke-linejoin="round" stroke-miterlimit="10" d="
		M55.2-37.5c-2.1-2-5.5-3.7-5.5-3.7"/>
	<path id="XMLID_180_" fill="#58D6A3" stroke="#339E82" stroke-linecap="round" stroke-linejoin="round" stroke-miterlimit="10" d="
		M53.2-68.2c-15.6,9.1-32.9,3.7-53-14.9c-5.7,16-10.7,17.8-16.5,16c-5.9-1.8-12.4-11-10.5-30.6s8.2-24,8.2-24
		c32.7-11.7,76.1,7.1,82.7,16.2"/>
	<path id="XMLID_179_" fill="#58D6A3" stroke="#339E82" stroke-linecap="round" stroke-linejoin="round" stroke-miterlimit="10" d="
		M47.2-65.2c2,1.2,6.9,2.1,6.9,2.1"/>
	<path id="XMLID_178_" fill="#98E5C4" stroke="#72C19D" stroke-linecap="round" stroke-linejoin="round" stroke-miterlimit="10" d="
		M-27-94.2c0-12.8,4.3-23.1,10-23.1s4,7.6,4,20.4s-1.1,22.1-6.9,22.1S-27-81.4-27-94.2z"/>
	<g id="XMLID_174_">
		
			<path id="XMLID_175_" fill="#CCDFEA" stroke="#6F89A5" stroke-linecap="round" stroke-linejoin="round" stroke-miterlimit="10" d="
			M-73.9,116.3c-19.4,0-35.2-15.8-35.2-35.2s15.8-35.2,35.2-35.2c19.4,0,35.2,15.8,35.2,35.2S-54.4,116.3-73.9,116.3z M-73.5,67.8
			c-7.3,0-13.2,5.9-13.2,13.2s5.9,13.2,13.2,13.2c7.3,0,13.2-5.9,13.2-13.2S-66.3,67.8-73.5,67.8z"/>
	</g>
	
		<use xlink:href="#line"  width="19" height="18.7" id="XMLID_173_" x="-9.5" y="-9.3" transform="matrix(1 0 0 1 -43.4772 112.1397)" overflow="visible"/>
	
		<use xlink:href="#line"  width="19" height="18.7" id="XMLID_172_" x="-9.5" y="-9.3" transform="matrix(-0.7213 0.6926 -0.6926 -0.7213 -118.1643 76.6872)" overflow="visible"/>
	<path id="XMLID_171_" fill="#F4DE5B" stroke="#D38E3C" stroke-linecap="round" stroke-linejoin="round" stroke-miterlimit="10" d="
		M-42.4-12.4c0-4.9-4-8.9-8.9-8.9s-8.9,4-8.9,8.9s4,8.9,8.9,8.9S-42.4-7.5-42.4-12.4z"/>
	
		<use xlink:href="#line"  width="19" height="18.7" id="XMLID_170_" x="-9.5" y="-9.3" transform="matrix(-0.6488 0.623 -0.623 -0.6488 -78.28 28.4426)" overflow="visible"/>
	
		<use xlink:href="#line"  width="19" height="18.7" id="XMLID_169_" x="-9.5" y="-9.3" transform="matrix(-0.7445 0.2766 -0.2766 -0.7445 -85.4911 20.0295)" overflow="visible"/>
	
		<use xlink:href="#line"  width="19" height="18.7" id="XMLID_168_" x="-9.5" y="-9.3" transform="matrix(0.8556 0 0 0.8556 -35.5792 117.9774)" overflow="visible"/>
	
		<use xlink:href="#line"  width="19" height="18.7" id="XMLID_167_" x="-9.5" y="-9.3" transform="matrix(-0.8399 0.1632 -0.1632 -0.8399 -122.8 61.7497)" overflow="visible"/>
	<path id="XMLID_166_" fill="#EAD475" d="M91.4,81.1c-17-6.6-30.7-17.4-19.6-36.3c4.4-9,6-9,6-9c9.4-1.6,9.9-5.5,9.9-5.5
		C95.6,44.5,101,59.5,91.4,81.1z"/>
	<g id="line_8_">
		<path id="XMLID_165_" fill="none" stroke="#A07E48" stroke-linecap="round" stroke-linejoin="round" stroke-miterlimit="10" d="
			M68.9,52.8c-1.3,6.2-1,15.7,11.1,22.7"/>
	</g>
	<g id="line_7_">
		<path id="XMLID_164_" fill="none" stroke="#A07E48" stroke-linecap="round" stroke-linejoin="round" stroke-miterlimit="10" d="
			M77,39.9c-3.6,5.3-7,14.2,1.7,25.2"/>
	</g>
	<g id="line_6_">
		<path id="XMLID_163_" fill="none" stroke="#A07E48" stroke-linecap="round" stroke-linejoin="round" stroke-miterlimit="10" d="
			M89,36.5c-5.4,3.4-12,10.3-8.3,23.8"/>
	</g>
	
		<use xlink:href="#ball"  width="8.2" height="8.2" id="XMLID_162_" x="-4.1" y="-4.1" transform="matrix(1 0 0 1 -56.7838 67.819)" overflow="visible"/>
	
		<use xlink:href="#ball"  width="8.2" height="8.2" id="XMLID_161_" x="-4.1" y="-4.1" transform="matrix(1 0 0 1 -63.9505 57.069)" overflow="visible"/>
	
		<use xlink:href="#ball"  width="8.2" height="8.2" id="XMLID_160_" x="-4.1" y="-4.1" transform="matrix(1 0 0 1 -77.2838 60.4023)" overflow="visible"/>
	
		<use xlink:href="#ball"  width="8.2" height="8.2" id="XMLID_53_" x="-4.1" y="-4.1" transform="matrix(1 0 0 1 -92.2005 101.4856)" overflow="visible"/>
	
		<use xlink:href="#ball"  width="8.2" height="8.2" id="XMLID_39_" x="-4.1" y="-4.1" transform="matrix(1 0 0 1 -78.0338 101.569)" overflow="visible"/>
</symbol>
<symbol  id="ball" viewBox="-4.1 -4.1 8.2 8.2">
	<path id="XMLID_29_" fill="#F4DE5B" stroke="#D38E3C" stroke-linecap="round" stroke-linejoin="round" stroke-miterlimit="10" d="
		M3.6,0C3.6-2,2-3.6,0-3.6S-3.6-2-3.6,0S-2,3.6,0,3.6S3.6,2,3.6,0z"/>
</symbol>
<symbol  id="eye" viewBox="-3.6 -8.4 7.3 16.9">
	<path id="XMLID_7_" stroke="#000000" stroke-linecap="round" stroke-linejoin="round" stroke-miterlimit="10" d="M3.1,0
		c0-4.4-1.4-7.9-3.1-7.9S-3.1-4.4-3.1,0S-1.7,7.9,0,7.9S3.1,4.4,3.1,0z"/>
</symbol>
<symbol  id="line" viewBox="-9.5 -9.3 19 18.7">
	<path id="XMLID_59_" fill="none" stroke="#000000" stroke-linecap="round" stroke-linejoin="round" stroke-miterlimit="10" d="
		M-9,8.8C-2.7,8.2,6.3,4.9,9-8.8"/>
</symbol>
<rect id="XMLID_1_" fill="#E7CEE8" width="647.5" height="432"/>
<use xlink:href="#baby"  width="258.9" height="251.9" id="XMLID_2_" x="-129.4" y="-126" transform="matrix(1.5379 0 0 -1.5379 314.9617 215.8775)" overflow="visible"/>
</svg>
