<?xml version="1.0" encoding="utf-8"?>
<!-- Generator: Adobe Illustrator 19.0.0, SVG Export Plug-In . SVG Version: 6.00 Build 0)  -->
<!DOCTYPE svg PUBLIC "-//W3C//DTD SVG 1.0//EN" "http://www.w3.org/TR/2001/REC-SVG-20010904/DTD/svg10.dtd">
<svg version="1.0" xmlns="http://www.w3.org/2000/svg" xmlns:xlink="http://www.w3.org/1999/xlink" x="0px" y="0px"
	 viewBox="0 0 648 432" enable-background="new 0 0 648 432" xml:space="preserve">
<symbol  id="apple" viewBox="-38.7 -46.2 77.5 92.5">
	<path id="XMLID_395_" fill="#C11F1F" stroke="#870808" stroke-linecap="round" stroke-linejoin="round" stroke-miterlimit="10" d="
		M2.6,19.9c13.2,10,20.9,10.3,29.2-1.1s8-28,2-36.9S21.5-43.3,12.7-44.8c-10-1.7-11.4,4.9-12.6,4.6c-6-4-4-4.3-9.4-5.4
		C-14.8-46.8-26.3-39-38-5.8c-2.9,33.2,21.5,31.2,26.9,29.5C-5.7,21.9,2.6,19.9,2.6,19.9z"/>
	<path id="XMLID_394_" fill="#89C957" stroke="#629E2E" stroke-linecap="round" stroke-linejoin="round" stroke-miterlimit="10" d="
		M1.2,15.1c-9.7,4.3-21.1,6.7-22.9,29c16-0.4,19.9-7.3,23.8-16C2,21.1,1.2,15.1,1.2,15.1z"/>
	<path id="XMLID_393_" fill="#89C957" stroke="#629E2E" stroke-linecap="round" stroke-linejoin="round" stroke-miterlimit="10" d="
		M-12,34.5c5.5-2.4,11.2-7.3,13-16"/>
	<path id="XMLID_392_" fill="#7F3F05" stroke="#A85009" stroke-linecap="round" stroke-linejoin="round" stroke-miterlimit="10" d="
		M8.5,45.7c-12-10.2-7.5-26-7.1-30.9C2.8,14.2,4,13.4,4,13.4C2.8,15,3.2,15,4.8,16.1C3,27,10.3,36.6,16.2,40.4
		C14,46.3,8.5,45.7,8.5,45.7z"/>
	<path id="XMLID_391_" fill="#C11F1F" stroke="#870808" stroke-linecap="round" stroke-linejoin="round" stroke-miterlimit="10" d="
		M-5.1,17.3c8-2.3,12.6-6.9,12.6-6.9"/>
	<path id="XMLID_390_" fill="#C11F1F" stroke="#870808" stroke-linecap="round" stroke-linejoin="round" stroke-miterlimit="10" d="
		M-5.1-36.2c5.4-1.4,5.2-4,5.2-4"/>
	<path id="XMLID_389_" fill="#C11F1F" stroke="#870808" stroke-linecap="round" stroke-linejoin="round" stroke-miterlimit="10" d="
		M2.6,14.5c2.6,3.1,10.6,4.6,10.6,4.6"/>
</symbol>
<symbol  id="bearfinger" viewBox="-13.9 -13.9 27.8 27.7">
	<path id="XMLID_529_" fill="#9B634B" stroke="#603129" stroke-linecap="round" stroke-linejoin="round" stroke-miterlimit="10" d="
		M-10.9,13.3c-5.3-7.8-1.8-23.2,6.8-25.7s18.5-0.7,17.5,8.9S-10.9,13.3-10.9,13.3z"/>
</symbol>
<symbol  id="bearleg" viewBox="-55.3 -68.4 108.1 138">
	<path id="XMLID_545_" fill="#9B634B" stroke="#603129" stroke-linecap="round" stroke-linejoin="round" stroke-miterlimit="10" d="
		M28.5,15C54,0.1,54.4-47,50.4-58.7c-9-3.8-18.7-5.7-27.3-6.7C9.9-70.7-1.4-66-1.4-66c-8-3.6-17.1,1.5-17.1,1.5
		C-26.6-69.6-35-62-35-62c-8.4-1.5-12.4,3.6-12.4,3.6c-1.5,9.8,2.6,24.8,15.7,26.6"/>
	<path id="XMLID_544_" fill="#9B634B" stroke="#603129" stroke-linecap="round" stroke-linejoin="round" stroke-miterlimit="10" d="
		M-25.5-38.6C-33.1-42.6-35-62-35-62"/>
	<path id="XMLID_543_" fill="#9B634B" stroke="#603129" stroke-linecap="round" stroke-linejoin="round" stroke-miterlimit="10" d="
		M-9.4-42.3c-6.9-2.6-9.1-22.3-9.1-22.3"/>
	<path id="XMLID_542_" fill="#9B634B" stroke="#603129" stroke-linecap="round" stroke-linejoin="round" stroke-miterlimit="10" d="
		M8.8-43c-8-3.3-10.2-23-10.2-23"/>
	<path id="XMLID_541_" fill="#9B634B" stroke="#603129" stroke-linecap="round" stroke-linejoin="round" stroke-miterlimit="10" d="
		M51.9,32.5C28.1,65.3-3.4,74.4-21.3,66.3C-39.9,58-39.6,50.2-39.6,50.2c3.7,1.5,5.7,0.7,5.7,0.7C-52.2,36-56,31.1-54.5,9.2
		c2.6,6.6,5.2,8.9,5.2,8.9c-6.2-12.7-4.2-29.4,4.2-39.3s32.5-23.7,57.3-18.2"/>
	<path id="XMLID_540_" fill="#9B634B" stroke="#603129" stroke-linecap="round" stroke-linejoin="round" stroke-miterlimit="10" d="
		M15.6,24.3C32,11.3,38,7,38,7"/>
</symbol>
<symbol  id="brow1" viewBox="-9.6 -4.6 19.2 9.3">
	<path id="XMLID_402_" fill="none" stroke="#000000" stroke-linecap="round" stroke-linejoin="round" stroke-miterlimit="10" d="
		M-9.1-4.1c2,3.6,12.6,13.6,18.2,4.6"/>
</symbol>
<symbol  id="digleg" viewBox="-43.8 -42.9 87.5 85.8">
	<path id="XMLID_698_" fill="#DB7835" stroke="#753A0D" stroke-linecap="round" stroke-linejoin="round" stroke-miterlimit="10" d="
		M24.3,42.4c-12.8-6.2-13.7-8-17-16.6s-23.4-38.7-36.2-44.2c-12.8-3.1-12.6-5.7-14.4-13.5c1.1-4.9,6.2-5.7,6.2-5.7
		c5.5-8.4,13.9-3.3,13.9-3.3c6-3.8,11.9,1.8,11.9,1.8c6,8.8,18.6,17.2,24.5,20.1s8.8,5.7,9.5,6.2c-3.8-4.4-9.5-7.5-4.9-6.4
		s10.4,5.1,10.6,8.6c-1.8-6.2,4-7.3,4.9,4c0.2-4.2,1.8-5.5,5.1,3.8c3.3,9.3,6,34.7,4.2,40.2"/>
	<path id="XMLID_697_" fill="#DB7835" stroke="#753A0D" stroke-linecap="round" stroke-linejoin="round" stroke-miterlimit="10" d="
		M-19.4-30.9c-3.8-0.9-4.9-4.9-3.8-9.9"/>
	<path id="XMLID_696_" fill="#DB7835" stroke="#753A0D" stroke-linecap="round" stroke-linejoin="round" stroke-miterlimit="10" d="
		M-30.4-27.8c-6-1.3-6-6-6.6-9.7"/>
</symbol>
<symbol  id="dog" viewBox="-124.8 -107.3 249.5 214.6">
	<path id="XMLID_715_" fill="#DB7835" stroke="#753A0D" stroke-linecap="round" stroke-linejoin="round" stroke-miterlimit="10" d="
		M58.9,34.1c8.2,17-11.3,50.4-25,59.2c0.4,4,11.5,4.2,19-3.5c-8.8,7.1-6.4,12.8,4.9,6.2c11.3-6.6,11.9-7.3,18.8-16.1
		c-5.3,11.7-2.7,11.7,4.2,3.1c6.8-8.6,14.1-33.1-7.7-53.5C61.1,31.5,58.9,34.1,58.9,34.1z"/>
	<path id="XMLID_714_" fill="#DB7835" stroke="#753A0D" stroke-linecap="round" stroke-linejoin="round" stroke-miterlimit="10" d="
		M-42.5,21.7c-4.9,16.1-2.7,26.3-2.9,31.6c-0.2,5.3-2.9,10.4-12.2,1.5s-12.8-17.5-11.9-22.3s2.4-14.4,8.2-19
		C-55.3,9.2-42.3,21.5-42.5,21.7z"/>
	<path id="XMLID_713_" fill="#DB7835" stroke="#753A0D" stroke-linecap="round" stroke-linejoin="round" stroke-miterlimit="10" d="
		M-4.7-65.3c12.2-6,27.2-3.3,30.5-1.5c1.3,2.7-3.5,2.4-4.4,2.2c13.3,3.3,20.1,8.8,15.7,8s-8.6-2.7-8.6-2.7
		c8.8,4.9,14.1,9.9,17.9,17.9c3.8,8,13.7,15.7,15.5,16.6c5.7,4,42,41.1,24.7,54.3s-35.8,21.2-55,8S5,7.2,5,7.2
		c-11-5.7-26.3-0.7-26.3-0.7C-23.5,1.9-26.4-60-4.7-65.3z"/>
	
		<use xlink:href="#digleg"  width="87.5" height="85.8" id="XMLID_712_" x="-43.8" y="-42.9" transform="matrix(1 0 0 1 -73.2827 -48.2702)" overflow="visible"/>
	<path id="XMLID_711_" fill="#6276B5" stroke="#203384" stroke-linecap="round" stroke-linejoin="round" stroke-miterlimit="10" d="
		M-71.8-14.1c0-18.3,14.2-33.2,31.8-33.2S-8.3-32.4-8.3-14.1S-22.5,19.1-40,19.1S-71.8,4.3-71.8-14.1z"/>
	<path id="XMLID_710_" fill="#DB7835" stroke="#753A0D" stroke-linecap="round" stroke-linejoin="round" stroke-miterlimit="10" d="
		M-74.6-3.9c-1.5,12.8,0.7,16.6,3.8,19.2s10.4,9.9,18.3,10.6s24.1,1.3,31.1-10.4s10.2-30.7,10.6-32.3c-0.2-4.2-2.4-7.3-4.2-1.5
		c1.1-9.7-3.5-15.5-4.9-8.2c-3.3-6.8-7.7-5.7-8-4.6c-6.2-5.3-10.6-8.4-13.7-8.4c-3.1,0-26.1-2-28.1,0.4C-72.1-35.9-75.2-5-74.6-3.9z
		"/>
	<path id="XMLID_709_" fill="#753A0D" stroke="#4C2306" stroke-linecap="round" stroke-linejoin="round" stroke-miterlimit="10" d="
		M-46.7,15.7c-9-5.9-13.7-23.3-2.7-25.4s21.8-5.5,22.5,3.4C-26.1,2.8-39.5,19.4-46.7,15.7z"/>
	<path id="XMLID_708_" fill="#D68676" stroke="#AF6654" stroke-linecap="round" stroke-linejoin="round" stroke-miterlimit="10" d="
		M-26.8,13.4c1-3.4,7.2-9.6,7-9.1c6.8,0,11.9,5.1,16.3,20.3S-11.2,56-15.8,58.2s-7.7-20.5-8.6-35.9"/>
	<path id="XMLID_707_" fill="#161513" stroke="#161513" stroke-linecap="round" stroke-linejoin="round" stroke-miterlimit="10" d="
		M-43.3,0.9c-0.7-2.7-2.1-4.7-3.1-4.4s-1.2,2.7-0.5,5.4s2.1,4.7,3.1,4.4C-42.7,6.1-42.5,3.6-43.3,0.9z"/>
	<path id="XMLID_706_" fill="#161513" stroke="#161513" stroke-linecap="round" stroke-linejoin="round" stroke-miterlimit="10" d="
		M-61.4,4.5c-0.7-2.7-2.1-4.7-3.1-4.4c-1,0.3-1.2,2.7-0.5,5.4s2.1,4.7,3.1,4.4C-60.8,9.6-60.6,7.2-61.4,4.5z"/>
	<path id="XMLID_705_" fill="#D68676" stroke="#AF6654" stroke-linecap="round" stroke-linejoin="round" stroke-miterlimit="10" d="
		M-77-23.5c-5.5-4.4-5.5-11.3-4.9-14.1c0.7-2.9,1.3-7.3,7.7-7.7c10.4-0.7,8,5.5,17.9,15C-60.9-21.8-76.8-23.5-77-23.5z"/>
	<path id="XMLID_704_" fill="#D68676" stroke="#AF6654" stroke-linecap="round" stroke-linejoin="round" stroke-miterlimit="10" d="
		M-68.5-27c-4.4-2.7-6.5-9.4-5.2-12"/>
	<path id="XMLID_703_" fill="#DB7835" stroke="#753A0D" stroke-linecap="round" stroke-linejoin="round" stroke-miterlimit="10" d="
		M-28.8,14c-2.4,13.7,6.4,25.4,6.6,27.6c0,3.5,6.2-20.5-3.3-29.6"/>
	<path id="XMLID_702_" fill="#DB7835" stroke="#753A0D" stroke-linecap="round" stroke-linejoin="round" stroke-miterlimit="10" d="
		M-29.3,21.7c0,11.3-11,24.7-10.6,9.7c-8.4,10.4-18.6,7.5-10.8-4.2c-7.5,1.8-11-3.5-2.9-5.7"/>
	<path id="XMLID_701_" fill="#DB7835" stroke="#753A0D" stroke-linecap="round" stroke-linejoin="round" stroke-miterlimit="10" d="
		M-58.4-3.7C-70.8-0.1-79.6,1-86.3-2.8c-7.5-6.6-9.5-17.9,3.5-25.2c3.5,2,3.5,2,3.5,2c23.2-6.6,27.6-8,30.9-6.4
		c3.3,1.5,8.6,8.6,8.6,10.4"/>
	<path id="XMLID_700_" fill="#30291E" stroke="#161513" stroke-linecap="round" stroke-linejoin="round" stroke-miterlimit="10" d="
		M-90.2-2.1c-0.7-5.5,3.1-11.9,9.7-15.2C-69.5-14.3-66.8-7-67-5.9C-69.9-1.2-84.9-0.3-90.2-2.1z"/>
	<path id="XMLID_699_" fill="none" stroke="#161513" stroke-linecap="round" stroke-linejoin="round" stroke-miterlimit="10" d="
		M-80.5-17.4c0.2-3.5,1.3-8.6,1.3-8.6"/>
	
		<use xlink:href="#digleg"  width="87.5" height="85.8" id="XMLID_694_" x="-43.8" y="-42.9" transform="matrix(1 0 0 1 -31.3086 -64.3971)" overflow="visible"/>
	<path id="XMLID_693_" fill="#DB7835" stroke="#753A0D" stroke-linecap="round" stroke-linejoin="round" stroke-miterlimit="10" d="
		M47.8,19.5C40.3,6.5,33.9-27.3,63.7-33c18.1-1.3,21,3.1,21,3.1c-6-16.3-12.8-26.5-12.8-26.5c-11-3.1-10.6-12.2-8.6-14.1
		c2-2,4.6-2,4.6-2C73-79,78.3-75,78.3-75c8.4-2.4,12.6,2.9,12.6,2.9c1.5,8.2,5.7,17.9,8.6,23.2s9.3,16.3,10.2,19
		c-0.4-4,2-4.6,2.2,0.7c1.5-3.8,4.9,1.1,2,5.7c0.7,0.7,4-6.4,1.8,0.4c-2.2,6.8-8.2,9.5-19.2,10.2c-1.1,25.6-2.9,45.5-21,46.8"/>
	<path id="XMLID_692_" fill="#DB7835" stroke="#753A0D" stroke-linecap="round" stroke-linejoin="round" stroke-miterlimit="10" d="
		M93.3-22c-1.5-4.2-8.6-8-8.6-8"/>
	<path id="XMLID_691_" fill="#FFC74A" stroke="#9E6E0E" stroke-linecap="round" stroke-linejoin="round" stroke-miterlimit="10" d="
		M-37.2-49.4c0-3.6-3-6.5-6.6-6.5c-3.7,0-6.6,2.9-6.6,6.5s3,6.5,6.6,6.5C-40.1-42.9-37.2-45.8-37.2-49.4z"/>
	<path id="XMLID_690_" fill="#C63F38" stroke="#9E1305" stroke-linecap="round" stroke-linejoin="round" stroke-miterlimit="10" d="
		M-76.3-77.8c0-13.2-10.7-24-24-24s-24,10.7-24,24s10.7,24,24,24S-76.3-64.5-76.3-77.8z"/>
	<path id="XMLID_689_" fill="none" stroke="#161513" stroke-linecap="round" stroke-linejoin="round" stroke-miterlimit="10" d="
		M77.7,106.8c14.1-11.5,26.3-30,20.3-55.7"/>
	<path id="XMLID_688_" fill="none" stroke="#161513" stroke-linecap="round" stroke-linejoin="round" stroke-miterlimit="10" d="
		M102.8,96.9c7.7-12.6,10.8-32.7,6.8-44"/>
	<path id="XMLID_687_" fill="none" stroke="#161513" stroke-linecap="round" stroke-linejoin="round" stroke-miterlimit="10" d="
		M28.8,77.2c11.3-4,16.8-17.2,19-22.5"/>
	<path id="XMLID_686_" fill="none" stroke="#161513" stroke-linecap="round" stroke-linejoin="round" stroke-miterlimit="10" d="
		M22.2,68.1c12.4-4,17.7-13.9,17.7-13.9"/>
	<path id="XMLID_685_" fill="none" stroke="#161513" stroke-linecap="round" stroke-linejoin="round" stroke-miterlimit="10" d="
		M44.7,76.3c-13.3-6-21.2-22.8-21.2-22.8"/>
	<path id="XMLID_684_" fill="none" stroke="#161513" stroke-linecap="round" stroke-linejoin="round" stroke-miterlimit="10" d="
		M48.5,69.2c-10.2-4.6-16.3-17.5-16.3-17.5"/>
	<path id="XMLID_683_" fill="none" stroke="#161513" stroke-linecap="round" stroke-linejoin="round" stroke-miterlimit="10" d="
		M90.2,80.7c12.6,0.4,28.5-9.3,32.9-14.4"/>
	<path id="XMLID_682_" fill="none" stroke="#161513" stroke-linecap="round" stroke-linejoin="round" stroke-miterlimit="10" d="
		M93.3,67c6.4-1.5,23.2-9.3,30.9-21.2"/>
	<path id="XMLID_681_" fill="#DB7835" stroke="#753A0D" stroke-linecap="round" stroke-linejoin="round" stroke-miterlimit="10" d="
		M82.5-64.3c-5-2.1-5.9-6.7-4.2-10.7"/>
	<path id="XMLID_680_" fill="#DB7835" stroke="#753A0D" stroke-linecap="round" stroke-linejoin="round" stroke-miterlimit="10" d="
		M72.6-62.8c-5.7-2.3-6-5.5-4.7-9.8"/>
	
		<use xlink:href="#nosedot"  width="3.3" height="3.3" id="XMLID_679_" x="-1.7" y="-1.7" transform="matrix(1 0 0 1 -65.6288 -16.3402)" overflow="visible"/>
	
		<use xlink:href="#nosedot"  width="3.3" height="3.3" id="XMLID_678_" x="-1.7" y="-1.7" transform="matrix(1 0 0 1 -70.3245 -21.2967)" overflow="visible"/>
	
		<use xlink:href="#nosedot"  width="3.3" height="3.3" id="XMLID_677_" x="-1.7" y="-1.7" transform="matrix(1 0 0 1 -84.4116 -22.6011)" overflow="visible"/>
	
		<use xlink:href="#nosedot"  width="3.3" height="3.3" id="XMLID_676_" x="-1.7" y="-1.7" transform="matrix(1 0 0 1 -88.3247 -17.3837)" overflow="visible"/>
	
		<use xlink:href="#nosedot"  width="3.3" height="3.3" id="XMLID_673_" x="-1.7" y="-1.7" transform="matrix(1 0 0 1 -63.281 -22.862)" overflow="visible"/>
	<path id="XMLID_672_" fill="none" stroke="#161513" stroke-linecap="round" stroke-linejoin="round" stroke-miterlimit="10" d="
		M-46.9,11.5c2.1,1.9,7.1,1.5,8.6-4.2"/>
	<path id="XMLID_671_" fill="none" stroke="#161513" stroke-linecap="round" stroke-linejoin="round" stroke-miterlimit="10" d="
		M-58.6,13.3c-1.3,4.4-6.5,3.6-7.8,0"/>
	<path id="XMLID_670_" fill="#753A0D" stroke="#4C2306" stroke-linecap="round" stroke-linejoin="round" stroke-miterlimit="10" d="
		M2.4,6c-4-5-13.4-16.6,4.6-18S32.1-8.7,34.8,3.1c2.7,11.8,2.1,22.3-2.5,26c-2.2,1.7-10.1,2.3-16.4-5C11.9,19.6,5.6,7.9,5.6,7.9
		L2.4,6z"/>
	<path id="XMLID_669_" fill="#753A0D" stroke="#4C2306" stroke-linecap="round" stroke-linejoin="round" stroke-miterlimit="10" d="
		M51.2-10.4c2.9,10.8,17,13.6,24.1,2.7c7.1-10.9,14.1-7.1,9.4-13.2c-4.8-6.1-15.1-10.5-21.2-5.9S47.8-23.4,51.2-10.4z"/>
	<path id="XMLID_668_" fill="#753A0D" stroke="#4C2306" stroke-linecap="round" stroke-linejoin="round" stroke-miterlimit="10" d="
		M-31.5-61.4c8.5-4.2,21-3.5,25.1,6.2s-0.8,20.9-3.6,21c-11.6,0.6-11.8-4.4-14-7.3C-26.1-43.7-38.9-57.4-31.5-61.4z"/>
</symbol>
<symbol  id="eye" viewBox="-5.7 -10 11.4 20">
	<path id="XMLID_408_" stroke="#000000" stroke-linecap="round" stroke-linejoin="round" stroke-miterlimit="10" d="M4.5-1.3
		C3-6.5-0.2-10.1-2.7-9.4S-5.9-3.9-4.5,1.3s4.7,8.8,7.1,8.1S5.9,3.9,4.5-1.3z"/>
</symbol>
<symbol  id="eye_3" viewBox="-2.7 -9 5.4 18.1">
	<path id="XMLID_512_" fill="#231F20" stroke="#231F20" stroke-miterlimit="10" d="M-2.1,0.2c-0.3-4.7,0.4-8.6,1.5-8.7
		c1.2-0.1,2.4,3.7,2.7,8.4S1.8,8.4,0.6,8.5C-0.6,8.6-1.8,4.9-2.1,0.2z"/>
</symbol>
<symbol  id="girlleg_2" viewBox="-69.3 -19.2 138.6 38.4">
	<path id="XMLID_123_" fill="#D8AE8B" stroke="#933F22" stroke-linecap="round" stroke-linejoin="round" stroke-miterlimit="10" d="
		M48.2,18.7C62.2,10.2,70.7,2,68.5-9.6c-2.2-11.6-59.2-4-85.6,7.3c-18.5-10.7-43.6-20-48.5-11.1c-4.9,8.9,24,26.9,40.5,28.7
		C-8.7,16,23.5,9.6,23.5,9.6L48.2,18.7z"/>
	<path id="XMLID_122_" fill="#E5F5F9" stroke="#8CA8AF" stroke-linecap="round" stroke-linejoin="round" stroke-miterlimit="10" d="
		M1.7,13.1c-4.7-5.3-5.1-18-4.2-21.8c-14.2,3.1-15.1,5.6-15.1,5.6c-22.2-15.6-42.3-19.6-50.5-11.6c-5.6,10,24,29.8,40.9,31.6
		C-10.7,18,1.7,13.1,1.7,13.1z"/>
	<path id="XMLID_121_" fill="#E5F5F9" stroke="#8CA8AF" stroke-linecap="round" stroke-linejoin="round" stroke-miterlimit="10" d="
		M-26.3,2.5c5.1-3.6,8.7-5.6,8.7-5.6"/>
	<path id="XMLID_55_" fill="#D8AE8B" stroke="#933F22" stroke-linecap="round" stroke-linejoin="round" stroke-miterlimit="10" d="
		M33.5,2.9c3.8-3.3,12.2-10,12.2-10"/>
</symbol>
<symbol  id="nosedot" viewBox="-1.7 -1.7 3.3 3.3">
	<path id="XMLID_675_" fill="#30291E" stroke="#161513" stroke-linecap="round" stroke-linejoin="round" stroke-miterlimit="10" d="
		M1.2,0c0-0.6-0.5-1.2-1.2-1.2S-1.2-0.6-1.2,0S-0.6,1.2,0,1.2S1.2,0.6,1.2,0z"/>
</symbol>
<symbol  id="sweat1" viewBox="-4.7 -3.9 9.5 7.9">
	<path id="XMLID_21_" fill="#8AFCFF" stroke="#4A6984" stroke-linecap="round" stroke-linejoin="round" stroke-miterlimit="10" d="
		M-4.2-3.4C-1.1,1.9,2.4,5.2,4,2.4C5.2,0.2,0.9-0.8-4.2-3.4z"/>
</symbol>
<symbol  id="window1" viewBox="-19.6 -19 39.2 34.3">
	<polygon id="XMLID_218_" fill="#A176B7" stroke="#50305E" stroke-miterlimit="10" points="-19.1,-14.8 19.1,-14.8 19.1,14.8 
		-19.1,14.8 	"/>
	<polygon id="XMLID_217_" fill="#A2D3DB" stroke="#CBE8EF" stroke-miterlimit="10" points="-9.1,-14.8 9.1,-14.8 9.1,14.8 
		-9.1,14.8 	"/>
	<polygon id="XMLID_216_" fill="#ADA67B" stroke="#ADA67B" stroke-miterlimit="10" points="-8.4,-18.5 8.4,-18.5 8.4,-12.6 
		-8.4,-12.6 	"/>
	<polygon id="XMLID_215_" fill="#F2EEDD" stroke="#ADA67B" stroke-miterlimit="10" points="-10.7,-16.5 10.7,-16.5 10.7,-10.6 
		-10.7,-10.6 	"/>
</symbol>
<g id="Layer_2">
	<rect id="XMLID_1_" x="0" fill="#CCE7E8" width="648" height="432"/>
</g>
<g id="Layer_1">
	
		<use xlink:href="#dog"  width="249.5" height="214.6" id="XMLID_6_" x="-124.8" y="-107.3" transform="matrix(1.8699 0 0 -1.8699 315.9181 216.8172)" overflow="visible"/>
</g>
</svg>
