<?xml version="1.0" encoding="utf-8"?>
<!-- Generator: Adobe Illustrator 19.0.0, SVG Export Plug-In . SVG Version: 6.00 Build 0)  -->
<!DOCTYPE svg PUBLIC "-//W3C//DTD SVG 1.1//EN" "http://www.w3.org/Graphics/SVG/1.1/DTD/svg11.dtd">
<svg version="1.1" id="Layer_1" xmlns="http://www.w3.org/2000/svg" xmlns:xlink="http://www.w3.org/1999/xlink" x="0px" y="0px"
	 width="648px" height="432px" viewBox="0 0 648 432" style="enable-background:new 0 0 648 432;" xml:space="preserve">
<g id="Layer_2">
	<rect id="XMLID_1_" style="fill:#EACEE9;" width="648" height="432"/>
</g>
<rect y="286.059" style="fill:#E5E3BD;stroke:#B5AF6D;stroke-linecap:round;stroke-linejoin:round;stroke-miterlimit:10;" width="648" height="145.941"/>
<g id="XMLID_102_">
	
		<rect id="XMLID_220_" x="392.708" y="109.578" style="fill:#B8C4CC;stroke:#80939E;stroke-linecap:round;stroke-linejoin:round;stroke-miterlimit:10;" width="17.847" height="153.503"/>
	
		<rect id="XMLID_219_" x="123.934" y="109.578" style="fill:#B8C4CC;stroke:#80939E;stroke-linecap:round;stroke-linejoin:round;stroke-miterlimit:10;" width="17.847" height="153.503"/>
	
		<rect id="XMLID_218_" x="232.763" y="109.578" style="fill:#B8C4CC;stroke:#80939E;stroke-linecap:round;stroke-linejoin:round;stroke-miterlimit:10;" width="17.847" height="153.503"/>
	<g id="XMLID_99_">
		
			<polygon id="XMLID_216_" style="fill:#EDF5F9;stroke:#BFCED6;stroke-linecap:round;stroke-linejoin:round;stroke-miterlimit:10;" points="
			462.674,73.455 481.097,70.688 494.397,73.455 480.208,81.291 		"/>
		
			<polygon id="XMLID_101_" style="fill:#DDE7ED;stroke:#A5B6BF;stroke-linecap:round;stroke-linejoin:round;stroke-miterlimit:10;" points="
			476.453,373.849 494.397,373.849 494.397,73.455 476.453,76.428 		"/>
		
			<polygon id="XMLID_100_" style="fill:#B8C4CC;stroke:#80939E;stroke-linecap:round;stroke-linejoin:round;stroke-miterlimit:10;" points="
			462.674,373.849 476.781,373.849 476.781,76.428 462.674,73.455 		"/>
	</g>
	
		<polygon id="XMLID_98_" style="fill:#EDF5F9;stroke:#BFCED6;stroke-linecap:round;stroke-linejoin:round;stroke-miterlimit:10;" points="
		467.441,102.383 89.902,102.383 95.847,107.406 473.386,107.406 	"/>
	
		<rect id="XMLID_75_" x="94.985" y="107.113" style="fill:#DDE7ED;stroke:#A5B6BF;stroke-linecap:round;stroke-linejoin:round;stroke-miterlimit:10;" width="377.539" height="22.065"/>
	
		<polygon id="XMLID_74_" style="fill:#EDF5F9;stroke:#BFCED6;stroke-linecap:round;stroke-linejoin:round;stroke-miterlimit:10;" points="
		479.798,104.872 498.196,104.527 551.031,111.78 548.2,123.525 518.952,124.561 	"/>
	
		<polygon id="XMLID_73_" style="fill:#B8C4CC;stroke:#80939E;stroke-linecap:round;stroke-linejoin:round;stroke-miterlimit:10;" points="
		543.597,137.89 479.684,125.874 479.684,105.494 543.597,117.511 	"/>
	<path id="XMLID_72_" style="fill:#E2F7F7;stroke:#80A8A7;stroke-linecap:round;stroke-linejoin:round;stroke-miterlimit:10;" d="
		M484.191,232.826c0,0-142.997-30.018-391.877,1.092c5.458,38.205,74.485,37.939,74.485,37.939h392.423L484.191,232.826z"/>
	<g id="XMLID_41_">
		<path id="XMLID_108_" style="fill:#D28DD9;stroke:#9C1679;stroke-linecap:round;stroke-linejoin:round;stroke-miterlimit:10;" d="
			M282.327,186.484c11.521-5.88,42.483-15.961,64.324-7.44c8.161,34.922-6.6,68.164-6.6,68.164
			c-27.842,6.24-52.683-0.36-52.683-0.36C271.046,239.047,263.486,195.124,282.327,186.484z"/>
		
			<circle id="XMLID_106_" style="fill:#C47965;stroke:#934B32;stroke-linecap:round;stroke-linejoin:round;stroke-miterlimit:10;" cx="246.053" cy="205.248" r="42.843"/>
		<path id="XMLID_105_" style="fill:#EDC8E6;stroke:#91648B;stroke-linecap:round;stroke-linejoin:round;stroke-miterlimit:10;" d="
			M263.007,230.412c1.966,5.037,10.975,4.417-4.657,14.571c-16.502,9.819-9.811,0.815-13.884-2.742
			c-4.204-3.671-12.501-2.288,3.473-13.536C264.44,218.886,260.823,224.816,263.007,230.412z"/>
		
			<circle id="XMLID_104_" style="fill:#FFF5FE;stroke:#91648B;stroke-linecap:round;stroke-linejoin:round;stroke-miterlimit:10;" cx="253.03" cy="236.673" r="5.753"/>
		<path id="XMLID_103_" style="fill:#C47965;stroke:#934B32;stroke-linecap:round;stroke-linejoin:round;stroke-miterlimit:10;" d="
			M241.524,221.766c-1.32,3.24-0.24,5.52,3.72,5.76"/>
		<path id="XMLID_71_" style="fill:none;stroke:#231F20;stroke-linecap:round;stroke-linejoin:round;stroke-miterlimit:10;" d="
			M249.565,217.086c2.88,0.72,9.841,0.24,9.241-8.401"/>
		<path id="XMLID_70_" style="fill:none;stroke:#231F20;stroke-linecap:round;stroke-linejoin:round;stroke-miterlimit:10;" d="
			M226.043,232.807c4.2,1.08,8.881,0.36,9.241-5.52"/>
		<path id="XMLID_68_" style="fill:none;stroke:#231F20;stroke-linecap:round;stroke-linejoin:round;stroke-miterlimit:10;" d="
			M243.084,201.605c2.28-2.4,10.561-3.36,13.801-1.56"/>
		<path id="XMLID_66_" style="fill:none;stroke:#231F20;stroke-linecap:round;stroke-linejoin:round;stroke-miterlimit:10;" d="
			M225.443,214.686c0,0-4.56,2.64-4.2,9.001"/>
		<path id="XMLID_65_" style="fill:#664439;stroke:#47322E;stroke-linecap:round;stroke-linejoin:round;stroke-miterlimit:10;" d="
			M239.004,186.244c-0.12,0.48-5.16,6.48-16.921,4.68c0,0,3.6,4.2,13.801,3.24c-17.641,14.761-29.402-1.56-25.082-13.441
			c13.964-17.949,32.269-25.524,48.049-15.424c-7.08,8.881-31.728,23.585-12.527,15.424c-12.241,12.601-27.722,6.6-25.922-1.68"/>
		<path id="XMLID_56_" style="fill:#A155A3;stroke:#722672;stroke-linecap:round;stroke-linejoin:round;stroke-miterlimit:10;" d="
			M319.669,173.942c18.454,33.552,2.516,78.009,2.516,78.009c15.099,0.839,14.26,10.904,28.519,18.454s40.263,23.487,40.263,23.487
			s162.728-13.421,163.567-19.293s-66.685-46.554-69.202-44.876c-31.036,0.839-54.942-20.551-54.942-20.551
			c-9.227-10.066-30.197-5.033-30.197-5.033C393.484,183.168,355.738,165.553,319.669,173.942z"/>
		<path id="XMLID_55_" style="fill:#664439;stroke:#47322E;stroke-linecap:round;stroke-linejoin:round;stroke-miterlimit:10;" d="
			M275.366,179.763c-2.04,3.72-6.6,8.281-16.561,5.52c11.521-2.28-2.759-13.322-8.16-18.722
			c20.83-9.468,36.682,21.097,34.781,22.047c-4.592-2.059-8.767-0.169-8.501-0.085c0,0-7.32,3.48-15.241,1.32
			c0,0,2.76-1.44,4.92-3.36"/>
		<path id="XMLID_49_" style="fill:#A155A3;stroke:#722672;stroke-linecap:round;stroke-linejoin:round;stroke-miterlimit:10;" d="
			M338.767,238.729c7.338,4.261,34.086,4.734,41.898-0.237c18.463,7.338,37.874,4.734,41.898,0.71"/>
		<path id="XMLID_48_" style="fill:#C47965;stroke:#934B32;stroke-linecap:round;stroke-linejoin:round;stroke-miterlimit:10;" d="
			M280.929,234.953c-15.986,1.17-24.174,5.654-26.124,11.892s7.798,9.358,19.69,3.119c5.849-2.339,10.138-2.534,10.138-2.534
			C284.828,239.827,280.929,234.953,280.929,234.953z"/>
		<path id="XMLID_43_" style="fill:#C47965;stroke:#934B32;stroke-linecap:round;stroke-linejoin:round;stroke-miterlimit:10;" d="
			M273.028,194.141c3.526-10.579,14.034-8.188,16.675-1.415c3.642,9.342-4.685,15.873-9.27,14.109"/>
		<path id="XMLID_42_" style="fill:#D28DD9;stroke:#9C1679;stroke-linecap:round;stroke-linejoin:round;stroke-miterlimit:10;" d="
			M290.287,213.118c1.365,8.188-9.553,20.665-15.011,21.835c6.433,4.289,5.849,11.112,5.264,13.062
			c14.817,8.773,44.06-8.968,25.149-40.94"/>
	</g>
	
		<rect id="XMLID_69_" x="151.805" y="271.032" style="fill:#DDE7ED;stroke:#A5B6BF;stroke-linecap:round;stroke-linejoin:round;stroke-miterlimit:10;" width="408.797" height="63.609"/>
	<g id="XMLID_60_">
		
			<polygon id="XMLID_67_" style="fill:#EDF5F9;stroke:#BFCED6;stroke-linecap:round;stroke-linejoin:round;stroke-miterlimit:10;" points="
			536.61,98.781 555.817,95.461 568.333,98.781 554.145,106.415 		"/>
		
			<polygon id="XMLID_64_" style="fill:#DDE7ED;stroke:#A5B6BF;stroke-linecap:round;stroke-linejoin:round;stroke-miterlimit:10;" points="
			550.389,391.464 568.333,391.464 568.333,98.781 550.389,101.677 		"/>
		
			<polygon id="XMLID_61_" style="fill:#B8C4CC;stroke:#80939E;stroke-linecap:round;stroke-linejoin:round;stroke-miterlimit:10;" points="
			536.61,391.464 550.717,391.464 550.717,101.677 536.61,98.781 		"/>
	</g>
	
		<polygon id="XMLID_59_" style="fill:#B8C4CC;stroke:#80939E;stroke-linecap:round;stroke-linejoin:round;stroke-miterlimit:10;" points="
		167.556,344.438 103.861,298.002 103.861,236.636 167.556,283.072 	"/>
	
		<polygon id="XMLID_58_" style="fill:#EDF5F9;stroke:#BFCED6;stroke-linecap:round;stroke-linejoin:round;stroke-miterlimit:10;" points="
		83.594,86.975 101.105,83.474 115.317,86.975 101.129,94.897 	"/>
	
		<polygon id="XMLID_57_" style="fill:#DDE7ED;stroke:#A5B6BF;stroke-linecap:round;stroke-linejoin:round;stroke-miterlimit:10;" points="
		97.373,373.097 115.317,373.097 115.317,86.08 97.373,88.921 	"/>
	
		<polygon id="XMLID_54_" style="fill:#B8C4CC;stroke:#80939E;stroke-linecap:round;stroke-linejoin:round;stroke-miterlimit:10;" points="
		83.594,373.097 97.701,373.097 97.701,88.921 83.594,86.08 	"/>
	
		<polygon id="XMLID_52_" style="fill:#EDF5F9;stroke:#BFCED6;stroke-linecap:round;stroke-linejoin:round;stroke-miterlimit:10;" points="
		106.563,113.263 119.294,112.918 155.855,120.171 153.896,131.916 133.657,132.952 	"/>
	
		<polygon id="XMLID_51_" style="fill:#B8C4CC;stroke:#80939E;stroke-linecap:round;stroke-linejoin:round;stroke-miterlimit:10;" points="
		150.711,146.281 106.484,134.265 106.484,113.885 150.711,125.902 	"/>
	
		<rect id="XMLID_50_" x="166.908" y="126.292" style="fill:#DDE7ED;stroke:#A5B6BF;stroke-linecap:round;stroke-linejoin:round;stroke-miterlimit:10;" width="377.539" height="22.065"/>
	
		<polygon id="XMLID_47_" style="fill:#EDF5F9;stroke:#BFCED6;stroke-linecap:round;stroke-linejoin:round;stroke-miterlimit:10;" points="
		539.364,121.562 161.825,121.562 167.77,126.585 545.309,126.585 	"/>
	
		<rect id="XMLID_46_" x="192.213" y="138.951" style="fill:#B8C4CC;stroke:#80939E;stroke-linecap:round;stroke-linejoin:round;stroke-miterlimit:10;" width="16.469" height="153.503"/>
	
		<rect id="XMLID_45_" x="269.836" y="138.951" style="fill:#B8C4CC;stroke:#80939E;stroke-linecap:round;stroke-linejoin:round;stroke-miterlimit:10;" width="16.469" height="153.503"/>
	
		<rect id="XMLID_44_" x="432.36" y="138.951" style="fill:#B8C4CC;stroke:#80939E;stroke-linecap:round;stroke-linejoin:round;stroke-miterlimit:10;" width="16.469" height="153.503"/>
	<g id="XMLID_37_">
		
			<polygon id="XMLID_40_" style="fill:#EDF5F9;stroke:#BFCED6;stroke-linecap:round;stroke-linejoin:round;stroke-miterlimit:10;" points="
			141.73,98.781 158.643,95.061 173.453,98.781 159.265,106.415 		"/>
		
			<polygon id="XMLID_39_" style="fill:#DDE7ED;stroke:#A5B6BF;stroke-linecap:round;stroke-linejoin:round;stroke-miterlimit:10;" points="
			155.509,391.464 173.453,391.464 173.453,98.781 155.509,101.677 		"/>
		
			<polygon id="XMLID_38_" style="fill:#B8C4CC;stroke:#80939E;stroke-linecap:round;stroke-linejoin:round;stroke-miterlimit:10;" points="
			141.73,391.464 155.837,391.464 155.837,101.677 141.73,98.781 		"/>
	</g>
	
		<rect id="XMLID_63_" x="349.067" y="138.951" style="fill:#B8C4CC;stroke:#80939E;stroke-linecap:round;stroke-linejoin:round;stroke-miterlimit:10;" width="16.469" height="153.503"/>
	
		<rect id="XMLID_62_" x="437.963" y="138.951" style="fill:#DDE7ED;stroke:#A5B6BF;stroke-linecap:round;stroke-linejoin:round;stroke-miterlimit:10;" width="17.847" height="153.503"/>
	
		<rect id="XMLID_53_" x="501.676" y="138.951" style="fill:#B8C4CC;stroke:#80939E;stroke-linecap:round;stroke-linejoin:round;stroke-miterlimit:10;" width="16.469" height="153.503"/>
	
		<rect id="XMLID_36_" x="197.815" y="138.951" style="fill:#DDE7ED;stroke:#A5B6BF;stroke-linecap:round;stroke-linejoin:round;stroke-miterlimit:10;" width="17.847" height="153.503"/>
	
		<rect id="XMLID_35_" x="275.438" y="138.951" style="fill:#DDE7ED;stroke:#A5B6BF;stroke-linecap:round;stroke-linejoin:round;stroke-miterlimit:10;" width="17.847" height="153.503"/>
	
		<rect id="XMLID_34_" x="354.669" y="138.951" style="fill:#DDE7ED;stroke:#A5B6BF;stroke-linecap:round;stroke-linejoin:round;stroke-miterlimit:10;" width="17.847" height="153.503"/>
	
		<rect id="XMLID_33_" x="507.278" y="138.951" style="fill:#DDE7ED;stroke:#A5B6BF;stroke-linecap:round;stroke-linejoin:round;stroke-miterlimit:10;" width="17.847" height="153.503"/>
</g>
</svg>
