<?xml version="1.0" encoding="utf-8"?>
<!-- Generator: Adobe Illustrator 19.0.0, SVG Export Plug-In . SVG Version: 6.00 Build 0)  -->
<!DOCTYPE svg PUBLIC "-//W3C//DTD SVG 1.1//EN" "http://www.w3.org/Graphics/SVG/1.1/DTD/svg11.dtd">
<svg version="1.1" id="Layer_1" xmlns="http://www.w3.org/2000/svg" xmlns:xlink="http://www.w3.org/1999/xlink" x="0px" y="0px"
	 width="648px" height="432px" viewBox="0 0 648 432" style="enable-background:new 0 0 648 432;" xml:space="preserve">
<symbol  id="girlpen_2" viewBox="-105.786 -131.914 211.573 263.829">
	<path style="fill:#E8B091;stroke:#AF5738;stroke-linecap:round;stroke-linejoin:round;stroke-miterlimit:10;" d="M-58.318-77.468
		c-17.149-4.608-23.508,1.997-23.508,1.997c-9.024-7.866-11.209-14.521-11.209-14.521c14.694-10.739,37.831-4.34,37.386-3.377
		C-56.094-92.407-58.318-77.468-58.318-77.468z"/>
	<path style="fill:#F7E3E2;stroke:#8E7979;stroke-linecap:round;stroke-linejoin:round;stroke-miterlimit:10;" d="M-16.235-25.458
		c-21.5-47-57.25-53.25-56-53c15.75-11,14.75-24.75,14.75-24.75c34.25,14.25,60.5,47.75,62.25,54S-16.235-25.458-16.235-25.458z"/>
	
		<path id="XMLID_64_" style="fill:#E8B091;stroke:#AF5738;stroke-width:0.9137;stroke-linecap:round;stroke-linejoin:round;stroke-miterlimit:10;" d="
		M51.94-98.4c-3.089-2.648-7.723-5.295-10.37-6.178c-2.648-0.883-8.164,1.103-15.445-3.31s-12.135-12.577-11.915-17.21
		s9.488-8.826,18.755-4.634s21.182,5.075,24.05,8.385c2.868,3.31,3.53,7.723,3.53,7.723c3.31,5.295,6.619,7.723,6.619,7.723
		C66.061-100.386,51.94-98.18,51.94-98.4z"/>
	<path id="XMLID_63_" style="fill:#F2E6B1;stroke:#9B8734;stroke-linecap:round;stroke-linejoin:round;stroke-miterlimit:10;" d="
		M-12.774,43.705c1.561-19.623-2.007-75.369-2.007-75.369c11.595-4.906,43.705-0.223,43.928-0.446s52.179,8.027,51.51,8.696
		c-0.669,0.669,0.892,70.017,0,71.132c-0.892,1.115-12.264,8.919-15.386,8.696S-12.774,43.705-12.774,43.705z"/>
	<path id="XMLID_62_" style="fill:#F2E6B1;stroke:#9B8734;stroke-linecap:round;stroke-linejoin:round;stroke-miterlimit:10;" d="
		M6.403,23.19c0-1.115,0.892-20.515,0.892-20.515"/>
	<path id="XMLID_61_" style="fill:#F7E3E2;stroke:#8E7979;stroke-linecap:round;stroke-linejoin:round;stroke-miterlimit:10;" d="
		M59.679-46.726C70.545-58.558,74.986-72.53,74.892-73.288c-0.241-1.932-30.909-25.838-31.633-26.321
		c18.352-3.139,14.006-7.244,23.906-15.937c14.73,12.798,34.048,37.67,34.048,37.67C87.449-44.311,79.963-32.72,79.963-32.72
		C68.613-36.342,59.92-46.484,59.679-46.726z"/>
	<path id="XMLID_60_" style="fill:#F2E6B1;stroke:#9B8734;stroke-linecap:round;stroke-linejoin:round;stroke-miterlimit:10;" d="
		M1.051,25.197c0-11.372-3.122-23.636-3.122-23.636"/>
	<path id="XMLID_59_" style="fill:#BA4A3E;stroke:#772A1F;stroke-linecap:round;stroke-linejoin:round;stroke-miterlimit:10;" d="
		M-20.11-22.333C-5.985-4.583,8.187,3.568,16.214,6.689S41.188,12.71,55.459,6.02S82.663-19.4,86.677-31.888
		C82.44-43.706,71.96-48.389,63.041-52.18c-1.784-20.515-0.446-27.427-0.446-27.427c-29.211,0.224-58.868-0.222-58.868-0.222
		c-8.696,21.407-5.352,43.705-5.352,43.705c-0.61-3.709-1.11-11.084-1.11-11.084C-13.735-42.208-19.86-24.708-20.11-22.333z"/>
	<path id="XMLID_58_" style="fill:#E8B091;stroke:#AF5738;stroke-linecap:round;stroke-linejoin:round;stroke-miterlimit:10;" d="
		M28.867,7.863c-6.412-1.132-9.917-6.458-7.38-13.146c2.432-6.412,7.842-7.611,14.53-7.38S54.468-3.668,50.778,3.251
		S32.787,8.555,28.867,7.863z"/>
	<path id="XMLID_57_" style="fill:#E8B091;stroke:#AF5738;stroke-linecap:round;stroke-linejoin:round;stroke-miterlimit:10;" d="
		M29.593,2.007c-0.446,8.696-1.338,22.299-1.338,22.299c2.453,2.453,15.609,1.784,15.832,0.892c0.892-4.014,0-22.076,0-22.076"/>
	<path id="XMLID_56_" style="fill:#BA4A3E;stroke:#772A1F;stroke-linecap:round;stroke-linejoin:round;stroke-miterlimit:10;" d="
		M4.619-17.17c-4.683-9.811-6.104-19.663-6.104-19.663"/>
	<path id="XMLID_55_" style="fill:#F7E3E2;stroke:#8E7979;stroke-linecap:round;stroke-linejoin:round;stroke-miterlimit:10;" d="
		M80.928-70.39c-2.656-0.966-6.037-2.898-6.037-2.898"/>
	<path id="XMLID_54_" style="fill:none;stroke:#231F20;stroke-linecap:round;stroke-linejoin:round;stroke-miterlimit:10;" d="
		M-1.985-36.958"/>
	<path id="XMLID_53_" style="fill:none;stroke:#231F20;stroke-linecap:round;stroke-linejoin:round;stroke-miterlimit:10;" d="
		M3.727-79.829"/>
	<path id="XMLID_52_" style="fill:none;stroke:#231F20;stroke-linecap:round;stroke-linejoin:round;stroke-miterlimit:10;" d="
		M3.727-79.829"/>
	<path id="XMLID_51_" style="fill:#BA4A3E;stroke:#772A1F;stroke-linecap:round;stroke-linejoin:round;stroke-miterlimit:10;" d="
		M48.77-23.637c4.46-15.609,10.257-28.319,10.257-28.319c2.453-0.669,4.014-0.223,4.014-0.223"/>
	<path id="XMLID_50_" style="fill:#E8B091;stroke:#AF5738;stroke-linecap:round;stroke-linejoin:round;stroke-miterlimit:10;" d="
		M-22.585,69.794c-5.575,6.467-11.818,2.899-11.372-6.467c0.446-9.365,7.804-17.393,16.278-16.055"/>
	<path id="XMLID_49_" style="fill:#E8B091;stroke:#AF5738;stroke-linecap:round;stroke-linejoin:round;stroke-miterlimit:10;" d="
		M-24.91,73.411c0-31.469,25.724-56.161,59.978-56.161s62.159,24.965,62.159,56.434S70.14,129.3,35.886,129.3
		S-24.91,104.879-24.91,73.411z"/>
	<path id="XMLID_48_" style="fill:#E8B091;stroke:#AF5738;stroke-linecap:round;stroke-linejoin:round;stroke-miterlimit:10;" d="
		M34.053,59.091c-5.352,8.473-17.17-1.115-6.913-10.703"/>
	<path id="XMLID_47_" style="stroke:#000000;stroke-linecap:round;stroke-linejoin:round;stroke-miterlimit:10;" d="M5.065,62.436
		c0-3.706,0.899-6.711,2.007-6.711s2.007,3.005,2.007,6.711s-0.899,6.711-2.007,6.711S5.065,66.142,5.065,62.436z"/>
	<path id="XMLID_46_" style="stroke:#000000;stroke-linecap:round;stroke-linejoin:round;stroke-miterlimit:10;" d="M52.027,62.436
		c0-3.706,0.899-6.711,2.007-6.711s2.007,3.005,2.007,6.711s-0.899,6.711-2.007,6.711C52.925,69.147,52.027,66.142,52.027,62.436z"
		/>
	<path id="XMLID_45_" style="fill:none;stroke:#231F20;stroke-linecap:round;stroke-linejoin:round;stroke-miterlimit:10;" d="
		M17.106,39.468c6.69-7.136,26.312-4.014,30.103,6.021"/>
	<path id="XMLID_44_" style="fill:#F2E6B1;stroke:#9B8734;stroke-linecap:round;stroke-linejoin:round;stroke-miterlimit:10;" d="
		M13.316,114.614c-3.568-8.25-27.873-41.698-37.685-42.59c-5.352,34.117,18.062,49.503,35.232,55.523
		c17.17,6.021,43.259,5.575,65.335-5.352s30.103-33.894,28.988-57.307c-2.007-34.117-2.007-95.438-2.007-95.438
		c-5.129-4.683-7.804-4.237-7.804-4.237c0.446,6.69,1.561,29.211-0.223,14.717s-2.007-16.501-2.007-16.501
		c-7.359-4.237-24.305-1.561-24.305-1.561c3.568,36.124,4.46,97.445,3.568,112.385C50.777,89.417,13.316,114.837,13.316,114.614z"/>
	<path id="XMLID_43_" style="fill:#F2E6B1;stroke:#9B8734;stroke-linecap:round;stroke-linejoin:round;stroke-miterlimit:10;" d="
		M10.863,119.074C8.41,109.04,13.985,84.957,30.932,74.7c4.683-2.453,11.149-0.446,11.149-0.446
		c-8.473,9.811-11.149,34.117-11.149,34.117c0.892-11.595,5.798-25.42,15.163-33.894c8.027-0.892,27.65,0.446,27.65,0.446
		c-7.359,8.25-9.365,23.413-9.365,23.413C67.948,82.058,79.766,74.7,81.55,73.808c4.906-2.23,12.71,4.014,12.71,4.014
		c-8.696,7.359-12.933,23.413-12.933,23.413"/>
	<path id="XMLID_42_" style="fill:#F2E6B1;stroke:#9B8734;stroke-linecap:round;stroke-linejoin:round;stroke-miterlimit:10;" d="
		M84.225,73.362c0.446-17.839,0.446-64.443,0.446-64.443"/>
	<path id="XMLID_41_" style="fill:#F2E6B1;stroke:#9B8734;stroke-linecap:round;stroke-linejoin:round;stroke-miterlimit:10;" d="
		M88.016-27.204c0.223,24.305,0.669,67.119,0.669,67.119"/>
	<path id="XMLID_40_" style="fill:none;stroke:#231F20;stroke-linecap:round;stroke-linejoin:round;stroke-miterlimit:10;" d="
		M1.051,81.167c2.23,4.906,9.142,8.25,10.926,3.568"/>
	<path id="XMLID_39_" style="fill:#F2E6B1;stroke:#9B8734;stroke-linecap:round;stroke-linejoin:round;stroke-miterlimit:10;" d="
		M55.014,74.7c-7.582,2.899-11.372,14.717-11.372,17.393"/>
	<g>
		<path id="XMLID_38_" style="fill:#28B583;stroke:#104F3A;stroke-linecap:round;stroke-linejoin:round;stroke-miterlimit:10;" d="
			M-88.848-106.484l-4.149,1.175c-1.455,0.412-2.301,1.926-1.889,3.381l19.802,69.945c0.412,1.455,1.926,2.301,3.381,1.889
			l4.149-1.175c1.455-0.412,2.301-1.926,1.889-3.381l-19.802-69.945C-85.879-106.05-87.393-106.896-88.848-106.484z"/>
		<path id="XMLID_37_" style="fill:#104F3A;stroke:#104F3A;stroke-linecap:round;stroke-linejoin:round;stroke-miterlimit:10;" d="
			M-78.214-43.831L-78.214-43.831c-2.086,0.333-3.659,1.022-3.512,1.541l2.419,8.544c0.147,0.518,1.957,0.669,4.044,0.337l0,0
			c2.086-0.333,3.659-1.022,3.512-1.541l-2.419-8.544C-74.317-44.013-76.127-44.164-78.214-43.831z"/>
		<path id="XMLID_36_" style="fill:#C1E5D8;stroke:#809E93;stroke-linecap:round;stroke-linejoin:round;stroke-miterlimit:10;" d="
			M-93.09-113.396L-93.09-113.396c-1.189,0.337-1.88,1.573-1.543,2.762l0.599,7.518c0.337,1.189,2.992,1.489,4.181,1.152l0,0
			c1.189-0.337,3.686-2.076,3.349-3.265l-3.824-6.623C-90.664-113.042-91.901-113.733-93.09-113.396z"/>
		<path id="XMLID_35_" style="fill:#1F6D51;stroke:#104F3A;stroke-linecap:round;stroke-linejoin:round;stroke-miterlimit:10;" d="
			M-83.163-54.919L-83.163-54.919c-1.598-0.172-2.605,0.705-2.25,1.959l5.849,20.661c0.355,1.254,1.938,2.409,3.536,2.581l0,0
			c1.598,0.172,2.605-0.705,2.25-1.959l-5.849-20.661C-79.982-53.591-81.565-54.747-83.163-54.919z"/>
		<path id="XMLID_34_" style="fill:#231F20;stroke:#231F20;stroke-linecap:round;stroke-linejoin:round;stroke-miterlimit:10;" d="
			M-92.194-113.822c-0.478-1.221-1.287-2.046-1.808-1.842c-0.521,0.204-0.556,1.359-0.079,2.58s1.287,2.046,1.808,1.842
			S-91.716-112.601-92.194-113.822z"/>
	</g>
	<path style="fill:#E8B091;stroke:#AF5738;stroke-linecap:round;stroke-linejoin:round;stroke-miterlimit:10;" d="M-84.151-62.625
		c-8.667,5.833-16.85-3.789-14-10c-9.591-7.288-8.158-17.673-3.583-21.333c0.179-0.143,0.358-0.276,0.539-0.399
		c4.303-2.942,7.254-3.355,8.711,1.649l2,9c1-1.833,5.697,0.304,5.834,1.083C-82.485-70.208-84.735-66.958-84.151-62.625z"/>
	<path style="fill:#E8B091;stroke:#AF5738;stroke-linecap:round;stroke-linejoin:round;stroke-miterlimit:10;" d="M-75.485-69.208
		c-5.526,5.526-8.25-10.75-5.5-16S-68.485-76.208-75.485-69.208z"/>
</symbol>
<symbol  id="paper" viewBox="-43.725 -22.258 87.449 44.515">
	<path id="XMLID_2_" style="fill:#F8FFFF;stroke:#DAE5E5;stroke-linecap:round;stroke-linejoin:round;stroke-miterlimit:10;" d="
		M-13.523,21.708c1.207,0.241,56.747-0.483,56.747-0.483L24.147-21.758h-67.372C-28.977-2.199-13.523,21.708-13.523,21.708z"/>
</symbol>
<g id="Layer_2">
	<rect id="XMLID_1_" x="-0.236" y="-0.771" style="fill:#CCE7E8;" width="646.973" height="431.929"/>
</g>
<rect id="XMLID_666_" x="1.264" y="314.913" style="fill:#B3C8E8;stroke:#677399;stroke-linecap:round;stroke-linejoin:round;stroke-miterlimit:10;" width="645.473" height="116.245"/>
<use xlink:href="#paper"  width="87.449" height="44.515" id="XMLID_78_" x="-43.725" y="-22.258" transform="matrix(1.4941 0 0 -1.4941 157.6755 385.8388)" style="overflow:visible;"/>
<use xlink:href="#girlpen_2"  width="211.573" height="263.829" id="XMLID_65_" x="-105.786" y="-131.914" transform="matrix(1.3928 0 0 -1.3928 284.0359 204.1111)" style="overflow:visible;"/>
</svg>
