<?xml version="1.0" encoding="utf-8"?>
<!-- Generator: Adobe Illustrator 18.1.1, SVG Export Plug-In . SVG Version: 6.00 Build 0)  -->
<!DOCTYPE svg PUBLIC "-//W3C//DTD SVG 1.1//EN" "http://www.w3.org/Graphics/SVG/1.1/DTD/svg11.dtd">
<svg version="1.1" id="Layer_1" xmlns="http://www.w3.org/2000/svg" xmlns:xlink="http://www.w3.org/1999/xlink" x="0px" y="0px"
	 width="432px" height="288px" viewBox="0 71.5 432 288" style="enable-background:new 0 71.5 432 288;" xml:space="preserve">
<symbol  id="brow_2" viewBox="-4 -1.497 8 2.994">
	<path id="XMLID_3_" style="fill:none;stroke:#000000;stroke-linecap:round;stroke-linejoin:round;stroke-miterlimit:10;" d="
		M-3.5-0.997c0.5,0.8,4.7,3.4,7,1"/>
</symbol>
<symbol  id="compass_2" viewBox="-19.053 -12.411 38.107 24.822">
	
		<line id="XMLID_10_" style="fill:none;stroke:#44432C;stroke-linecap:round;stroke-linejoin:round;stroke-miterlimit:10;" x1="10.847" y1="7.689" x2="9.447" y2="11.789"/>
	<path id="XMLID_9_" style="fill:none;stroke:#44432C;stroke-linecap:round;stroke-linejoin:round;stroke-miterlimit:10;" d="
		M-12.153,9.389c-4.3-0.9-6.4-2.6-6.4-2.6l3.3-5.4"/>
	<path id="XMLID_8_" style="fill:none;stroke:#44432C;stroke-linecap:round;stroke-linejoin:round;stroke-miterlimit:10;" d="
		M16.947,0.389c2.4-5,1.4-5.8,1.4-5.8s-16.7,7-36.1,12.3"/>
	
		<line id="XMLID_7_" style="fill:none;stroke:#44432C;stroke-linecap:round;stroke-linejoin:round;stroke-miterlimit:10;" x1="13.247" y1="-7.711" x2="18.447" y2="-5.411"/>
	<path id="XMLID_6_" style="fill:none;stroke:#44432C;stroke-linecap:round;stroke-linejoin:round;stroke-miterlimit:10;" d="
		M-15.153-6.711c0.2-2.6,1.4-5.2,1.4-5.2c8,10.4,23.2,23.4,23.2,23.4s0,1.4-5.7-0.9"/>
	<path id="XMLID_5_" style="fill:none;stroke:#44432C;stroke-linecap:round;stroke-linejoin:round;stroke-miterlimit:10;" d="
		M-4.353-8.811c-4.3-1.7-9.2-3.1-9.2-3.1"/>
	<path id="XMLID_4_" style="fill:none;stroke:#44432C;stroke-linecap:round;stroke-linejoin:round;stroke-miterlimit:10;" d="
		M7.747,1.389c0-3.1-4-5.6-8.9-5.6s-8.8,2.6-8.8,5.6s3.9,5.6,8.8,5.6S7.747,4.489,7.747,1.389z"/>
</symbol>
<symbol  id="eye_2" viewBox="-2.5 -5.3 5 10.6">
	<path id="XMLID_2_" style="stroke:#000000;stroke-linecap:round;stroke-linejoin:round;stroke-miterlimit:10;" d="M2,0
		c0-2.6-0.9-4.8-2-4.8S-2-2.6-2,0s0.9,4.8,2,4.8S2,2.6,2,0z"/>
</symbol>
<symbol  id="pocket_2" viewBox="-23.575 -23.891 47.15 47.781">
	<path id="XMLID_12_" style="fill:#6E7239;stroke:#51511D;stroke-linecap:round;stroke-linejoin:round;stroke-miterlimit:10;" d="
		M-23.075,7.49c7.6,0.7,31.4,14.3,33,15.9c15.2-18,16.6-31.2,7.4-38.3s-17.8-9.5-23.1-8.1C-11.775-21.41-22.175-14.91-23.075,7.49z"
		/>
	<path id="XMLID_11_" style="fill:none;stroke:#51511D;stroke-linecap:round;stroke-linejoin:round;stroke-miterlimit:10;" d="
		M-22.575,4.99c3.4-8,8-14.8,17.8-13.3c6.3,1,18.5,5.9,14.6,31.1"/>
</symbol>
<rect id="XMLID_1_" y="71.867" style="fill:#CAD7E5;" width="432" height="288.133"/>
<path id="XMLID_121_" style="fill:#4C759B;stroke:#2C5777;stroke-linecap:round;stroke-linejoin:round;stroke-miterlimit:10;" d="
	M301.8,335.4c-3.2,0,15.333-8.4,16-8.4c9.067,22.4,12,33.733,12,33.733c-27.8,0-50.2,0-50.2,0S302.467,335.4,301.8,335.4z"/>
<path id="XMLID_120_" style="fill:#4C759B;stroke:#2C5777;stroke-linecap:round;stroke-linejoin:round;stroke-miterlimit:10;" d="
	M249.467,360.667c4-24.867,6.667-40.333,6.667-40.333C281.667,310.8,322,307.267,322,307.267c3.133,12.667-0.2,31.067-22.867,42.133
	c-0.2,8.2-0.667,11.333-0.667,11.333"/>
<path id="XMLID_119_" style="fill:#DD7528;stroke:#AF3D0B;stroke-linecap:round;stroke-linejoin:round;stroke-miterlimit:10;" d="
	M247.2,253.133c5.333,17.067,6.4,56.333,4.867,68.067c31.467,20.867,73.2-7.733,73.867-12.867
	C313.067,274.6,308.2,256.867,308.2,256.867s-9.333-51-15.333-52.333s-28.4-2.467-39.467,1.533
	C242.333,210.067,247.2,253.133,247.2,253.133z"/>
<path id="XMLID_118_" style="fill:#E2B681;stroke:#A3693E;stroke-linecap:round;stroke-linejoin:round;stroke-miterlimit:10;" d="
	M204.4,121.8c-4,5.333-2.667,23.533,5.533,33.067c-11.067-1.533-6.867,7.067-5.333,8.2s5.8,2.867,8.867,3.333
	c1.133,4.867,2.867,7.067,2.867,7.067c8.667,12.4,22.867,13.733,30.4,7.733c5.333,7.533,7.067,11.733,7.067,11.733
	c12.867,3.533,27.533-6.667,27.533-6.667c-5.8-10.667-10.867-20.867-10.867-20.867c-2.867-35.267-17.067-60.133-29.067-57
	S207.733,112.933,204.4,121.8z"/>
<use xlink:href="#eye_2"  width="5" height="10.6" id="XMLID_115_" x="-2.5" y="-5.3" transform="matrix(0.7314 -0.4987 -0.6252 -0.9172 218.678 145.4436)" style="overflow:visible;"/>
<path id="XMLID_114_" style="fill:#CCA136;stroke:#99621A;stroke-linecap:round;stroke-linejoin:round;stroke-miterlimit:10;" d="
	M235.667,118.667c-3.8,6.2-3.133,7.533-3.133,7.533c9.733,10.667,9.333,13.733,9.333,13.733
	c8.867,9.067,11.067,11.533,11.067,11.533c9.733,7.533,14,13.533,18.867,14.667c10.667-27.267,14.4-43,4.867-53.2
	c4.2,1.133,5.133,3.133,5.133,3.133c-2.867-9.333-9.533-9.067-9.533-9.067c1.333-9.533-8.2-11.533-8.2-11.533
	c2.867,4,1.333,6,1.333,6c-15.733-9.333-12.4-8.2-16.667-8.2c-4.2,0-34.6,7.733-38.4,7.067c-1.333,2.2,1.533,3.133,1.533,3.133
	c-14.4,0.2-24.6-0.467-24.6-0.467c3.133,6.867,8.4,9.733,8.4,9.733c-4.867-0.2-7.533-0.2-7.533-0.2c7.733,8.667,10,10.4,15.067,10.4
	c4-3.133,9.533-5.333,9.533-5.333C223.467,125.6,235.667,118.667,235.667,118.667z"/>
<path id="XMLID_113_" style="fill:#E2B681;stroke:#A3693E;stroke-linecap:round;stroke-linejoin:round;stroke-miterlimit:10;" d="
	M252.333,173.933c-2,3.8-5.533,7.333-5.533,7.333"/>
<use xlink:href="#brow_2"  width="8" height="2.994" id="XMLID_110_" x="-4" y="-1.497" transform="matrix(-1.3159 0.1973 -0.2062 -1.3755 214.5501 133.7764)" style="overflow:visible;"/>
<path id="XMLID_109_" style="fill:#E2B681;stroke:#A3693E;stroke-linecap:round;stroke-linejoin:round;stroke-miterlimit:10;" d="
	M239.933,138.867c0.467-10.4,10.867-9.733,14.4-6c3.533,3.8,2.2,16.667-3.8,18.4"/>
<g id="XMLID_94_">
	<g>
		<defs>
			<path id="SVGID_1_" d="M175.8,153.067C158.933,166.8,156.733,173,148.533,180.6c-8.2,7.533-25.533,23.067-36.6,25.933
				c-11.067,2.867-63,25.467-64.533,34.133c44.333,7.733,45.667,8.667,56.133,12.667s15.333,4,31.267,14.4
				c15.933,10.4,26.4,27.067,37.267,36.4c10.867,9.333,16,12.4,16,12.4c20.4-23.067,25.267-39.467,30.6-45.933
				c5.333-6.4,35.933-48.133,39.067-51.667C218,197.2,206.067,187.2,199.6,177.933C193.133,168.6,177.333,152.867,175.8,153.067z"/>
		</defs>
		<clipPath id="SVGID_2_">
			<use xlink:href="#SVGID_1_"  style="overflow:visible;"/>
		</clipPath>
		
			<path id="XMLID_101_" style="clip-path:url(#SVGID_2_);fill:#E8E8BC;stroke:#B5B076;stroke-linecap:round;stroke-linejoin:round;stroke-miterlimit:10;" d="
			M175.8,153.067C158.933,166.8,156.733,173,148.533,180.6c-8.2,7.533-25.533,23.067-36.6,25.933
			c-11.067,2.867-63,25.467-64.533,34.133c44.333,7.733,45.667,8.667,56.133,12.667s15.333,4,31.267,14.4
			c15.933,10.4,26.4,27.067,37.267,36.4c10.867,9.333,16,12.4,16,12.4c20.4-23.067,25.267-39.467,30.6-45.933
			c5.333-6.4,35.933-48.133,39.067-51.667C218,197.2,206.067,187.2,199.6,177.933C193.133,168.6,177.333,152.867,175.8,153.067z"/>
	</g>
	<g>
		<defs>
			<path id="SVGID_3_" d="M175.8,153.067C158.933,166.8,156.733,173,148.533,180.6c-8.2,7.533-25.533,23.067-36.6,25.933
				c-11.067,2.867-63,25.467-64.533,34.133c44.333,7.733,45.667,8.667,56.133,12.667s15.333,4,31.267,14.4
				c15.933,10.4,26.4,27.067,37.267,36.4c10.867,9.333,16,12.4,16,12.4c20.4-23.067,25.267-39.467,30.6-45.933
				c5.333-6.4,35.933-48.133,39.067-51.667C218,197.2,206.067,187.2,199.6,177.933C193.133,168.6,177.333,152.867,175.8,153.067z"/>
		</defs>
		<clipPath id="SVGID_4_">
			<use xlink:href="#SVGID_3_"  style="overflow:visible;"/>
		</clipPath>
		
			<path id="XMLID_98_" style="clip-path:url(#SVGID_4_);fill:#A9CCA9;stroke:#94B794;stroke-linecap:round;stroke-linejoin:round;stroke-miterlimit:10;" d="
			M90.2,220.667c1.333,2.6,13.333-5.933,17.533-2.6c4.133,3.267,12.267,3.533,15.733,2.4S141,216.533,141,216.533
			s10.933-1.533,13.533-0.467c2.6,1.067,9.2,9.6,14.2,11.8c5,2.2,5.467,5.267,14.2,5.933c8.733,0.667,10.533-10.733,16.6,4.6
			c6.133,15.333,5,21.467,5,21.467l-10.733,9h-11.4L170.8,273c0,0-4.6,5.267-7,6.133c-2.4,0.867-5.267,1.533-6.8,1.067
			c-1.533-0.467-6.333-2.4-7-2.4c-66.933-6.333-80.533-12.667-85.733-22.533C59.067,245.4,89.933,220.267,90.2,220.667z"/>
	</g>
	<g>
		<defs>
			<path id="SVGID_5_" d="M175.8,153.067C158.933,166.8,156.733,173,148.533,180.6c-8.2,7.533-25.533,23.067-36.6,25.933
				c-11.067,2.867-63,25.467-64.533,34.133c44.333,7.733,45.667,8.667,56.133,12.667s15.333,4,31.267,14.4
				c15.933,10.4,26.4,27.067,37.267,36.4c10.867,9.333,16,12.4,16,12.4c20.4-23.067,25.267-39.467,30.6-45.933
				c5.333-6.4,35.933-48.133,39.067-51.667C218,197.2,206.067,187.2,199.6,177.933C193.133,168.6,177.333,152.867,175.8,153.067z"/>
		</defs>
		<clipPath id="SVGID_6_">
			<use xlink:href="#SVGID_5_"  style="overflow:visible;"/>
		</clipPath>
		
			<path id="XMLID_97_" style="clip-path:url(#SVGID_6_);fill:#B3E2B3;stroke:#9AC69A;stroke-linecap:round;stroke-linejoin:round;stroke-miterlimit:10;" d="
			M92.333,233.6c7-5,1.733-7.467,11.4-6.333c9.6,1.067,1.067,2.2,13.533,1.733c12.467-0.467-3.933,3.933,12.467-0.467
			c16.4-4.4,13.333-8.067,21.867-3.533c8.533,4.533,11.6,9.4,18.8,11.133c7.2,1.733,17.067-0.467,21.467,3.733
			c4.4,4.133,6.133,6.333,0.867,14.467c-5.267,8.067-10.733,12-18.8,12.667c-8.067,0.667-11.4,3.067-23.2,4.6
			c-11.8,1.533-36.067-2.867-44.867-6.8c-8.733-3.933-13.533,3.733-19.933-4.8C79.667,251.533,84.267,235.8,92.333,233.6z"/>
	</g>
	<g>
		<defs>
			<path id="SVGID_7_" d="M175.8,153.067C158.933,166.8,156.733,173,148.533,180.6c-8.2,7.533-25.533,23.067-36.6,25.933
				c-11.067,2.867-63,25.467-64.533,34.133c44.333,7.733,45.667,8.667,56.133,12.667s15.333,4,31.267,14.4
				c15.933,10.4,26.4,27.067,37.267,36.4c10.867,9.333,16,12.4,16,12.4c20.4-23.067,25.267-39.467,30.6-45.933
				c5.333-6.4,35.933-48.133,39.067-51.667C218,197.2,206.067,187.2,199.6,177.933C193.133,168.6,177.333,152.867,175.8,153.067z"/>
		</defs>
		<clipPath id="SVGID_8_">
			<use xlink:href="#SVGID_7_"  style="overflow:visible;"/>
		</clipPath>
		
			<path id="XMLID_96_" style="clip-path:url(#SVGID_8_);fill:#D0EFD0;stroke:#9AC69A;stroke-linecap:round;stroke-linejoin:round;stroke-miterlimit:10;" d="
			M105.733,241.667c5.467-3.067,7.867-7.2,17.533-2.6c9.6,4.6,16,6.333,21.467,4.8c5.467-1.533,1.067-11.6,17.933-3.067
			s17.733,14,17.733,14s-5.933,3.533-8.533,4.6c-2.6,1.067-2.6,1.067-2.6,1.067s-9.6-1.533-25.133-1.733s-20.533,3.067-29.533-0.2
			C105.467,255.267,96.067,249.333,105.733,241.667z"/>
	</g>
	<g>
		<defs>
			<path id="SVGID_9_" d="M175.8,153.067C158.933,166.8,156.733,173,148.533,180.6c-8.2,7.533-25.533,23.067-36.6,25.933
				c-11.067,2.867-63,25.467-64.533,34.133c44.333,7.733,45.667,8.667,56.133,12.667s15.333,4,31.267,14.4
				c15.933,10.4,26.4,27.067,37.267,36.4c10.867,9.333,16,12.4,16,12.4c20.4-23.067,25.267-39.467,30.6-45.933
				c5.333-6.4,35.933-48.133,39.067-51.667C218,197.2,206.067,187.2,199.6,177.933C193.133,168.6,177.333,152.867,175.8,153.067z"/>
		</defs>
		<clipPath id="SVGID_10_">
			<use xlink:href="#SVGID_9_"  style="overflow:visible;"/>
		</clipPath>
		<g style="clip-path:url(#SVGID_10_);">
			
				<use xlink:href="#compass_2"  width="38.107" height="24.822" id="XMLID_91_" x="-19.053" y="-12.411" transform="matrix(0.8809 0 0 -0.8809 92.3565 230.9411)" style="overflow:visible;"/>
		</g>
	</g>
	<g>
		<defs>
			<path id="SVGID_11_" d="M175.8,153.067C158.933,166.8,156.733,173,148.533,180.6c-8.2,7.533-25.533,23.067-36.6,25.933
				c-11.067,2.867-63,25.467-64.533,34.133c44.333,7.733,45.667,8.667,56.133,12.667s15.333,4,31.267,14.4
				c15.933,10.4,26.4,27.067,37.267,36.4c10.867,9.333,16,12.4,16,12.4c20.4-23.067,25.267-39.467,30.6-45.933
				c5.333-6.4,35.933-48.133,39.067-51.667C218,197.2,206.067,187.2,199.6,177.933C193.133,168.6,177.333,152.867,175.8,153.067z"/>
		</defs>
		<clipPath id="SVGID_12_">
			<use xlink:href="#SVGID_11_"  style="overflow:visible;"/>
		</clipPath>
		
			<path id="XMLID_90_" style="clip-path:url(#SVGID_12_);fill:#A9CCA9;stroke:#94B794;stroke-linecap:round;stroke-linejoin:round;stroke-miterlimit:10;" d="
			M201.933,175c-8.533,3.533-12.667,14.2-9.6,18.8c3.067,4.6,6.8,3.533,6.133,9.4c-0.667,5.867-3.267,5.933,0,12.467
			s9.4,10.533,9.4,10.533l10.267,4.133l10.533-0.667l5.933-4.6l4.6-7.467c0,0,0.667,0.467,5.667-5.667s5-6.133,5-6.133L201.933,175z
			"/>
	</g>
	<g>
		<defs>
			<path id="SVGID_13_" d="M175.8,153.067C158.933,166.8,156.733,173,148.533,180.6c-8.2,7.533-25.533,23.067-36.6,25.933
				c-11.067,2.867-63,25.467-64.533,34.133c44.333,7.733,45.667,8.667,56.133,12.667s15.333,4,31.267,14.4
				c15.933,10.4,26.4,27.067,37.267,36.4c10.867,9.333,16,12.4,16,12.4c20.4-23.067,25.267-39.467,30.6-45.933
				c5.333-6.4,35.933-48.133,39.067-51.667C218,197.2,206.067,187.2,199.6,177.933C193.133,168.6,177.333,152.867,175.8,153.067z"/>
		</defs>
		<clipPath id="SVGID_14_">
			<use xlink:href="#SVGID_13_"  style="overflow:visible;"/>
		</clipPath>
		
			<path id="XMLID_89_" style="clip-path:url(#SVGID_14_);fill:#B3E2B3;stroke:#9AC69A;stroke-linecap:round;stroke-linejoin:round;stroke-miterlimit:10;" d="
			M203.467,181.533c-4.6,4.6-7.2,3.067-2.867,10.067s3.267,6.8,4.6,14.867c1.333,8.067,4.6,16.4,10.933,15.067
			c6.333-1.333,6.333-0.867,10.733-2.6s5.667-3.933,7.867-6.333c2.2-2.4,4.6-7.467,4.6-7.467l-2.867-8.533L203.467,181.533z"/>
	</g>
	<g>
		<defs>
			<path id="SVGID_15_" d="M175.8,153.067C158.933,166.8,156.733,173,148.533,180.6c-8.2,7.533-25.533,23.067-36.6,25.933
				c-11.067,2.867-63,25.467-64.533,34.133c44.333,7.733,45.667,8.667,56.133,12.667s15.333,4,31.267,14.4
				c15.933,10.4,26.4,27.067,37.267,36.4c10.867,9.333,16,12.4,16,12.4c20.4-23.067,25.267-39.467,30.6-45.933
				c5.333-6.4,35.933-48.133,39.067-51.667C218,197.2,206.067,187.2,199.6,177.933C193.133,168.6,177.333,152.867,175.8,153.067z"/>
		</defs>
		<clipPath id="SVGID_16_">
			<use xlink:href="#SVGID_15_"  style="overflow:visible;"/>
		</clipPath>
		
			<path id="XMLID_88_" style="clip-path:url(#SVGID_16_);fill:#D0EFD0;stroke:#9AC69A;stroke-linecap:round;stroke-linejoin:round;stroke-miterlimit:10;" d="
			M215.533,191.6c-3.733,0.867-8.733-1.067-3.933,9.2c4.8,10.267-3.067,14.467,4.6,14.667c7.667,0.2,9.2-1.333,12.267-5.267
			c3.067-3.933,2.6-11.4,1.067-12C228,197.533,215.533,191.6,215.533,191.6z"/>
	</g>
	<g>
		<defs>
			<path id="SVGID_17_" d="M175.8,153.067C158.933,166.8,156.733,173,148.533,180.6c-8.2,7.533-25.533,23.067-36.6,25.933
				c-11.067,2.867-63,25.467-64.533,34.133c44.333,7.733,45.667,8.667,56.133,12.667s15.333,4,31.267,14.4
				c15.933,10.4,26.4,27.067,37.267,36.4c10.867,9.333,16,12.4,16,12.4c20.4-23.067,25.267-39.467,30.6-45.933
				c5.333-6.4,35.933-48.133,39.067-51.667C218,197.2,206.067,187.2,199.6,177.933C193.133,168.6,177.333,152.867,175.8,153.067z"/>
		</defs>
		<clipPath id="SVGID_18_">
			<use xlink:href="#SVGID_17_"  style="overflow:visible;"/>
		</clipPath>
		
			<path id="XMLID_87_" style="clip-path:url(#SVGID_18_);fill:none;stroke:#B5B076;stroke-linecap:round;stroke-linejoin:round;stroke-miterlimit:10;" d="
			M173.733,154.6c4.6,7,13.533,14.467,10.267,23.6c-3.267,9.2-2,19.667-2,19.667s11.6,6.133,4.8,14c-6.8,7.867-10.533,11.8-16.2,9
			c-5.667-2.867-18.133-11.8-18.133-11.8l-18.6-0.667l-19.667,4.8l-13.333-2.867"/>
	</g>
	<g>
		<defs>
			<path id="SVGID_19_" d="M175.8,153.067C158.933,166.8,156.733,173,148.533,180.6c-8.2,7.533-25.533,23.067-36.6,25.933
				c-11.067,2.867-63,25.467-64.533,34.133c44.333,7.733,45.667,8.667,56.133,12.667s15.333,4,31.267,14.4
				c15.933,10.4,26.4,27.067,37.267,36.4c10.867,9.333,16,12.4,16,12.4c20.4-23.067,25.267-39.467,30.6-45.933
				c5.333-6.4,35.933-48.133,39.067-51.667C218,197.2,206.067,187.2,199.6,177.933C193.133,168.6,177.333,152.867,175.8,153.067z"/>
		</defs>
		<clipPath id="SVGID_20_">
			<use xlink:href="#SVGID_19_"  style="overflow:visible;"/>
		</clipPath>
		
			<path id="XMLID_84_" style="clip-path:url(#SVGID_20_);fill:none;stroke:#B5B076;stroke-linecap:round;stroke-linejoin:round;stroke-miterlimit:10;" d="
			M158.867,289.6c10.533-3.533,21.667-10.533,26.933-12.467c5.267-2,13.8-1.533,13.8-1.533l6.8,2l3.933,2.4l1.067,2.4"/>
	</g>
	<g>
		<defs>
			<path id="SVGID_21_" d="M175.8,153.067C158.933,166.8,156.733,173,148.533,180.6c-8.2,7.533-25.533,23.067-36.6,25.933
				c-11.067,2.867-63,25.467-64.533,34.133c44.333,7.733,45.667,8.667,56.133,12.667s15.333,4,31.267,14.4
				c15.933,10.4,26.4,27.067,37.267,36.4c10.867,9.333,16,12.4,16,12.4c20.4-23.067,25.267-39.467,30.6-45.933
				c5.333-6.4,35.933-48.133,39.067-51.667C218,197.2,206.067,187.2,199.6,177.933C193.133,168.6,177.333,152.867,175.8,153.067z"/>
		</defs>
		<clipPath id="SVGID_22_">
			<use xlink:href="#SVGID_21_"  style="overflow:visible;"/>
		</clipPath>
		
			<path id="XMLID_83_" style="clip-path:url(#SVGID_22_);fill:none;stroke:#B5B076;stroke-linecap:round;stroke-linejoin:round;stroke-miterlimit:10;" d="
			M163.667,296.8c11.6-6.8,19.667-14,29.067-10.933c9.4,3.067-7,4.4,0.2,7.867c7.2,3.533,12.667-0.467,12.667-0.467"/>
	</g>
	<g>
		<defs>
			<path id="SVGID_23_" d="M175.8,153.067C158.933,166.8,156.733,173,148.533,180.6c-8.2,7.533-25.533,23.067-36.6,25.933
				c-11.067,2.867-63,25.467-64.533,34.133c44.333,7.733,45.667,8.667,56.133,12.667s15.333,4,31.267,14.4
				c15.933,10.4,26.4,27.067,37.267,36.4c10.867,9.333,16,12.4,16,12.4c20.4-23.067,25.267-39.467,30.6-45.933
				c5.333-6.4,35.933-48.133,39.067-51.667C218,197.2,206.067,187.2,199.6,177.933C193.133,168.6,177.333,152.867,175.8,153.067z"/>
		</defs>
		<clipPath id="SVGID_24_">
			<use xlink:href="#SVGID_23_"  style="overflow:visible;"/>
		</clipPath>
		
			<path id="XMLID_82_" style="clip-path:url(#SVGID_24_);fill:none;stroke:#B5B076;stroke-linecap:round;stroke-linejoin:round;stroke-miterlimit:10;" d="
			M167.2,160.533c6.8,5.467,12,10.267,9.867,18.8c-2.133,8.533-5,11.8-1.333,17.733c3.733,5.933,9.867,8.333,4.8,12
			c-5.067,3.667-4.133,6.333-9,3.933c-4.867-2.4-12.267-9.2-17.533-10.733c-5.267-1.533-7.867-2.867-15.333,0.2
			c-7.467,3.067-21.467,5.667-21.467,5.667l-2.867-2.2"/>
	</g>
	<g>
		<defs>
			<path id="SVGID_25_" d="M175.8,153.067C158.933,166.8,156.733,173,148.533,180.6c-8.2,7.533-25.533,23.067-36.6,25.933
				c-11.067,2.867-63,25.467-64.533,34.133c44.333,7.733,45.667,8.667,56.133,12.667s15.333,4,31.267,14.4
				c15.933,10.4,26.4,27.067,37.267,36.4c10.867,9.333,16,12.4,16,12.4c20.4-23.067,25.267-39.467,30.6-45.933
				c5.333-6.4,35.933-48.133,39.067-51.667C218,197.2,206.067,187.2,199.6,177.933C193.133,168.6,177.333,152.867,175.8,153.067z"/>
		</defs>
		<clipPath id="SVGID_26_">
			<use xlink:href="#SVGID_25_"  style="overflow:visible;"/>
		</clipPath>
		
			<path id="XMLID_80_" style="clip-path:url(#SVGID_26_);fill:#82B1CE;stroke:#689BB5;stroke-linecap:round;stroke-linejoin:round;stroke-miterlimit:10;" d="
			M147.067,187.467c-3.733,2.4-6.133,3.533-4.4,6.8c1.733,3.267,2.2,4.4,5.267,2.6c3.067-1.733,4.8-1.533,8.333,2
			c3.533,3.533,3.533,5,6.533,2.6c3.067-2.4,4.8,0,4.6-4.4c-0.2-4.4-1.733-4.8,0-9c1.733-4.133,5.667-7,4.133-10.067
			s0.2-6.333-3.933-5.267c-4.133,1.067-5.467,1.533-6.333,3.733s-1.533,4.4-2.867,5.933c-1.333,1.533-4.6,3.267-7.2,3.267
			S147.067,187.467,147.067,187.467z"/>
	</g>
	<g>
		<defs>
			<path id="SVGID_27_" d="M175.8,153.067C158.933,166.8,156.733,173,148.533,180.6c-8.2,7.533-25.533,23.067-36.6,25.933
				c-11.067,2.867-63,25.467-64.533,34.133c44.333,7.733,45.667,8.667,56.133,12.667s15.333,4,31.267,14.4
				c15.933,10.4,26.4,27.067,37.267,36.4c10.867,9.333,16,12.4,16,12.4c20.4-23.067,25.267-39.467,30.6-45.933
				c5.333-6.4,35.933-48.133,39.067-51.667C218,197.2,206.067,187.2,199.6,177.933C193.133,168.6,177.333,152.867,175.8,153.067z"/>
		</defs>
		<clipPath id="SVGID_28_">
			<use xlink:href="#SVGID_27_"  style="overflow:visible;"/>
		</clipPath>
		
			<path id="XMLID_79_" style="clip-path:url(#SVGID_28_);fill:#82B1CE;stroke:#689BB5;stroke-linecap:round;stroke-linejoin:round;stroke-miterlimit:10;" d="
			M183.8,222.867c-3.267-0.267-7,1.067-5.933,2.6s1.533,2.867,2.867,2.6c1.333-0.2,4.4-1.333,4.4-1.333l3.733-1.333
			C188.8,225.533,186.667,223.067,183.8,222.867z"/>
	</g>
	<g>
		<defs>
			<path id="SVGID_29_" d="M175.8,153.067C158.933,166.8,156.733,173,148.533,180.6c-8.2,7.533-25.533,23.067-36.6,25.933
				c-11.067,2.867-63,25.467-64.533,34.133c44.333,7.733,45.667,8.667,56.133,12.667s15.333,4,31.267,14.4
				c15.933,10.4,26.4,27.067,37.267,36.4c10.867,9.333,16,12.4,16,12.4c20.4-23.067,25.267-39.467,30.6-45.933
				c5.333-6.4,35.933-48.133,39.067-51.667C218,197.2,206.067,187.2,199.6,177.933C193.133,168.6,177.333,152.867,175.8,153.067z"/>
		</defs>
		<clipPath id="SVGID_30_">
			<use xlink:href="#SVGID_29_"  style="overflow:visible;"/>
		</clipPath>
		
			<path id="XMLID_78_" style="clip-path:url(#SVGID_30_);fill:#82B1CE;stroke:#689BB5;stroke-linecap:round;stroke-linejoin:round;stroke-miterlimit:10;" d="
			M189.933,217.2c-1.6-0.8-0.467,3.267-0.467,3.267S194.533,219.4,189.933,217.2z"/>
	</g>
	<g>
		<defs>
			<path id="SVGID_31_" d="M175.8,153.067C158.933,166.8,156.733,173,148.533,180.6c-8.2,7.533-25.533,23.067-36.6,25.933
				c-11.067,2.867-63,25.467-64.533,34.133c44.333,7.733,45.667,8.667,56.133,12.667s15.333,4,31.267,14.4
				c15.933,10.4,26.4,27.067,37.267,36.4c10.867,9.333,16,12.4,16,12.4c20.4-23.067,25.267-39.467,30.6-45.933
				c5.333-6.4,35.933-48.133,39.067-51.667C218,197.2,206.067,187.2,199.6,177.933C193.133,168.6,177.333,152.867,175.8,153.067z"/>
		</defs>
		<clipPath id="SVGID_32_">
			<use xlink:href="#SVGID_31_"  style="overflow:visible;"/>
		</clipPath>
		
			<path id="XMLID_75_" style="clip-path:url(#SVGID_32_);fill:#82B1CE;stroke:#689BB5;stroke-linecap:round;stroke-linejoin:round;stroke-miterlimit:10;" d="
			M222.067,237.733c-5.667-0.467-8.067,2.4-9.4,5.267c-1.333,2.867-2.4,8.067-2.4,8.067s-5.267,7.467,0.867,6.8
			c6.133-0.667,6.8,0,9.867-2.4c3.067-2.4,1.333-2,6.133-6.8c4.8-4.8,5.933-9.2,5.933-9.2s-5.933-5-7.867-3.533
			S222.067,237.733,222.067,237.733z"/>
	</g>
	<g>
		<defs>
			<path id="SVGID_33_" d="M175.8,153.067C158.933,166.8,156.733,173,148.533,180.6c-8.2,7.533-25.533,23.067-36.6,25.933
				c-11.067,2.867-63,25.467-64.533,34.133c44.333,7.733,45.667,8.667,56.133,12.667s15.333,4,31.267,14.4
				c15.933,10.4,26.4,27.067,37.267,36.4c10.867,9.333,16,12.4,16,12.4c20.4-23.067,25.267-39.467,30.6-45.933
				c5.333-6.4,35.933-48.133,39.067-51.667C218,197.2,206.067,187.2,199.6,177.933C193.133,168.6,177.333,152.867,175.8,153.067z"/>
		</defs>
		<clipPath id="SVGID_34_">
			<use xlink:href="#SVGID_33_"  style="overflow:visible;"/>
		</clipPath>
		
			<path id="XMLID_76_" style="clip-path:url(#SVGID_34_);fill:none;stroke:#B5B076;stroke-linecap:round;stroke-linejoin:round;stroke-miterlimit:10;" d="
			M170.667,302.267c5.467-5.267,7-8.733,10.933-5.267c3.933,3.533,1.533,5,5,6.333c3.533,1.333,6.333,2.6,6.8-0.867
			c0.467-3.533-1.333-3.267,1.733-3.733s3.067-0.467,3.067-0.467l2,2"/>
	</g>
	<g>
		<defs>
			<path id="SVGID_35_" d="M175.8,153.067C158.933,166.8,156.733,173,148.533,180.6c-8.2,7.533-25.533,23.067-36.6,25.933
				c-11.067,2.867-63,25.467-64.533,34.133c44.333,7.733,45.667,8.667,56.133,12.667s15.333,4,31.267,14.4
				c15.933,10.4,26.4,27.067,37.267,36.4c10.867,9.333,16,12.4,16,12.4c20.4-23.067,25.267-39.467,30.6-45.933
				c5.333-6.4,35.933-48.133,39.067-51.667C218,197.2,206.067,187.2,199.6,177.933C193.133,168.6,177.333,152.867,175.8,153.067z"/>
		</defs>
		<clipPath id="SVGID_36_">
			<use xlink:href="#SVGID_35_"  style="overflow:visible;"/>
		</clipPath>
		
			<path id="XMLID_93_" style="clip-path:url(#SVGID_36_);fill:none;stroke:#B5B076;stroke-linecap:round;stroke-linejoin:round;stroke-miterlimit:10;" d="
			M251.6,215.2c-4.6,2.4-10.533,9-10.533,9s0.867,4.8-2.2,7.867c-3.067,3.067-3.933,0.867-5.933,0.867s-10.533-0.867-16,1.067
			c-5.467,2-4.4-3.267-8.067,6.333c-3.733,9.6-2.6,3.067-2.867,12.667c-0.267,9.6,1.067,10.733,0.667,13.533
			c-0.467,2.867,3.533,6.333,5.267,7.2c1.733,0.867,4.4,0.2,4.4,0.2"/>
	</g>
	<g>
		<defs>
			<path id="SVGID_37_" d="M175.8,153.067C158.933,166.8,156.733,173,148.533,180.6c-8.2,7.533-25.533,23.067-36.6,25.933
				c-11.067,2.867-63,25.467-64.533,34.133c44.333,7.733,45.667,8.667,56.133,12.667s15.333,4,31.267,14.4
				c15.933,10.4,26.4,27.067,37.267,36.4c10.867,9.333,16,12.4,16,12.4c20.4-23.067,25.267-39.467,30.6-45.933
				c5.333-6.4,35.933-48.133,39.067-51.667C218,197.2,206.067,187.2,199.6,177.933C193.133,168.6,177.333,152.867,175.8,153.067z"/>
		</defs>
		<clipPath id="SVGID_38_">
			<use xlink:href="#SVGID_37_"  style="overflow:visible;"/>
		</clipPath>
		
			<path id="XMLID_95_" style="clip-path:url(#SVGID_38_);fill:none;stroke:#B5B076;stroke-linecap:round;stroke-linejoin:round;stroke-miterlimit:10;" d="
			M175.8,153.067C158.933,166.8,156.733,173,148.533,180.6c-8.2,7.533-25.533,23.067-36.6,25.933
			c-11.067,2.867-63,25.467-64.533,34.133c44.333,7.733,45.667,8.667,56.133,12.667s15.333,4,31.267,14.4
			c15.933,10.4,26.4,27.067,37.267,36.4c10.867,9.333,16,12.4,16,12.4c20.4-23.067,25.267-39.467,30.6-45.933
			c5.333-6.4,35.933-48.133,39.067-51.667C218,197.2,206.067,187.2,199.6,177.933C193.133,168.6,177.333,152.867,175.8,153.067z"/>
	</g>
</g>
<path id="XMLID_74_" style="fill:#6B462D;stroke:#51301A;stroke-linecap:round;stroke-linejoin:round;stroke-miterlimit:10;" d="
	M257.4,240.067c0.333,17.333,34.733,27.067,46.4,20.733c9.333,5.667,14.333,13.667,14.333,13.667c-17,9.333-60.733,5.667-66.8-27.4
	C251.067,227.067,257.4,240.067,257.4,240.067z"/>
<path id="XMLID_73_" style="fill:none;stroke:#000000;stroke-linecap:round;stroke-linejoin:round;stroke-miterlimit:10;" d="
	M231.467,164.8c-2.2,6-12.2,9.067-15.067,8.667"/>
<path id="XMLID_72_" style="fill:#E2B681;stroke:#A3693E;stroke-linecap:round;stroke-linejoin:round;stroke-miterlimit:10;" d="
	M238.333,223.8c-22.4,21.533-53.467,42.6-84.267,43.467c-7.067-13.733-12.2-15.067-14.867-14c-2.667,1.133,0.933,10.4,4.533,14.133
	c-19.933-5.133-24.667-8.4-24.667-8.4c7,16.133,19.733,20.6,37.067,23.067s71.867,2.467,99.8-34.133
	C247.4,224.067,238.333,223.8,238.333,223.8z"/>
<path id="XMLID_71_" style="fill:#E2B681;stroke:#A3693E;stroke-linecap:round;stroke-linejoin:round;stroke-miterlimit:10;" d="
	M217.267,194.533c0.2-7.533-1.8-12-8.4-11.067c-6.667,0.867-11.533-1.533-11.333,1.533c0.2,3.133,7.333,6.667,13.733,4.667
	C215.933,192.8,217.267,194.533,217.267,194.533z"/>
<path id="XMLID_70_" style="fill:#DD7528;stroke:#AF3D0B;stroke-linecap:round;stroke-linejoin:round;stroke-miterlimit:10;" d="
	M276.933,199.867c-12.4-4.667-24.6-4-33.933,7.533c-9.333,11.533-14.4,18.4-14.867,18.6c10.667,29.067,33.733,30.6,33.733,30.6
	c7.067-13.733,9.733-21.933,9.733-21.933"/>
<path id="XMLID_69_" style="fill:#6B462D;stroke:#51301A;stroke-linecap:round;stroke-linejoin:round;stroke-miterlimit:10;" d="
	M290.8,207c-16.333-28.067-41.067-18.333-47.067-7.667c-4.4,7.867-3.067,11.333-3.067,11.333c7.733-12.4,19.467-11.133,25.733-9.667
	c6.267,1.467,13.333,17,13.333,17C284.667,215.2,290.8,207,290.8,207z"/>
<path id="XMLID_68_" style="fill:#6E7239;stroke:#51511D;stroke-linecap:round;stroke-linejoin:round;stroke-miterlimit:10;" d="
	M276.067,194.4c-2.067,7.133-2.067,18.933,2.267,30.333c4.333,11.4,17.667,32.733,18.333,34.2c7.133,12.4,12.8,27.867,25.4,29.067
	s37.4-6.933,42.733-15.467c5.267-8.533,8.733-31.133,5.667-36.4s-12-33.533-18.133-35.6
	C346.267,198.467,279.533,184.867,276.067,194.4z"/>
<use xlink:href="#pocket_2"  width="47.15" height="47.781" id="XMLID_67_" x="-23.575" y="-23.891" transform="matrix(0.8814 0 0 -0.8814 312.1044 263.8328)" style="overflow:visible;"/>
<use xlink:href="#pocket_2"  width="47.15" height="47.781" id="XMLID_66_" x="-23.575" y="-23.891" transform="matrix(-0.6331 0.7125 -0.7125 -0.6331 353.8391 242.1308)" style="overflow:visible;enable-background:new    ;"/>
<use xlink:href="#pocket_2"  width="47.15" height="47.781" id="XMLID_77_" x="-23.575" y="-23.891" transform="matrix(0.7836 0 0 -0.7836 293.0734 226.4386)" style="overflow:visible;enable-background:new    ;"/>
<path id="XMLID_64_" style="fill:#6E7239;stroke:#51511D;stroke-linecap:round;stroke-linejoin:round;stroke-miterlimit:10;" d="
	M273.667,194.6c2.267-11.4,14.067-22.8,30.533-28.667c16.467-5.867,38.067-4.267,47.8,12s8.333,23.8,3.667,27.467
	c-4.667,3.667-16.867,9.333-25.2,7.333c-8.333-2.067-25.2-14.667-31.333-13.6c-6.133,1-7.933,4-11.667,5.8
	C281.667,207.6,272.6,203.733,273.667,194.6z"/>
<ellipse id="XMLID_49_" transform="matrix(-0.168 -0.9858 0.9858 -0.168 201.8078 567.2274)" style="fill:#51511D;" cx="340.273" cy="198.451" rx="3.667" ry="5.8"/>
</svg>
