<?xml version="1.0" encoding="utf-8"?>
<!-- Generator: Adobe Illustrator 19.0.0, SVG Export Plug-In . SVG Version: 6.00 Build 0)  -->
<!DOCTYPE svg PUBLIC "-//W3C//DTD SVG 1.0//EN" "http://www.w3.org/TR/2001/REC-SVG-20010904/DTD/svg10.dtd">
<svg version="1.0" id="Layer_1" xmlns="http://www.w3.org/2000/svg" xmlns:xlink="http://www.w3.org/1999/xlink" x="0px" y="0px"
	 viewBox="0 0 648 432" enable-background="new 0 0 648 432" xml:space="preserve">
<symbol  id="Boy_Chair" viewBox="-152.4 -203.4 304.8 406.8">
	<path id="XMLID_39_" fill="none" stroke="#421205" stroke-linecap="round" stroke-linejoin="round" stroke-miterlimit="10" d="
		M-112.7,144.9c1-6.3,7.3-14.7,7.3-14.7"/>
	<path id="XMLID_37_" fill="none" stroke="#421205" stroke-linecap="round" stroke-linejoin="round" stroke-miterlimit="10" d="
		M-80,144.5c7.3-5.7,11.7-9.3,11.7-9.3"/>
	<path id="XMLID_36_" fill="none" stroke="#421205" stroke-linecap="round" stroke-linejoin="round" stroke-miterlimit="10" d="
		M-125.7,145.2c-1.7,5-2,10-2,10"/>
	<path id="XMLID_35_" fill="none" stroke="#421205" stroke-linecap="round" stroke-linejoin="round" stroke-miterlimit="10" d="
		M-16,183.5c-6,0.3-11.7,1.7-11.7,1.7"/>
	<g id="XMLID_1_">
		<path id="XMLID_34_" fill="#2C6993" stroke="#1C215E" stroke-linecap="round" stroke-linejoin="round" stroke-miterlimit="10" d="
			M-97.1-136.5c-0.7-24.8,0-66.4,0-66.4H20.8l-2.1,69.8L-97.1-136.5z"/>
		<path id="XMLID_33_" fill="#E8672E" stroke="#A53411" stroke-linecap="round" stroke-linejoin="round" stroke-miterlimit="10" d="
			M-101.5-0.6c11,12,36.1,25.6,65.6,26.1C-10.4,26,11,10.9,21.5-0.1C30.5-36.6,38-67.6,38-67.6l-18-55.5c2-7,1.5-13,1.5-13
			C-18-168.1-93-160.6-99-151.6C-103.5-101.6-101.5-0.6-101.5-0.6z"/>
		<path id="XMLID_32_" fill="#E2AD7D" stroke="#822712" stroke-linecap="round" stroke-linejoin="round" stroke-miterlimit="10" d="
			M-59.3,30.9c-1.7-8.3,6.7-25.3,25.7-25c19,0.3,20,21.7,20,21.7C-31,26.9-59.3,30.9-59.3,30.9z"/>
		<path id="XMLID_31_" fill="#E2AD7D" stroke="#874F39" stroke-linecap="round" stroke-linejoin="round" stroke-miterlimit="10" d="
			M29.7,114.2c4.7,8.7,21.7,10.3,23.3-6.3c1.7-16.7-7.7-27.7-20.7-25C19.3,85.5,29.7,114.2,29.7,114.2z"/>
		<path id="XMLID_30_" fill="#E2AD7D" stroke="#874F39" stroke-linecap="round" stroke-linejoin="round" stroke-miterlimit="10" d="
			M-124.2,90.8c-15.7,5-26.5-14.9-17.4-27.3s21.3-11.2,29.6-6.3C-96.3,21.6-45.6,18-19.1,20.4s85.6,41,44.2,115.4
			c-21.4,30.6-83.7,40-118.2,21.4s-30.8-66.4-30.8-66.4"/>
		<g id="XMLID_28_">
			<path id="XMLID_29_" fill="none" stroke="#231F20" stroke-linecap="round" stroke-linejoin="round" stroke-miterlimit="10" d="
				M-63.7,98.2c1,3.7,7,11.3,17.3,5.7"/>
		</g>
		<g id="XMLID_25_">
			<g id="XMLID_26_">
				<path id="XMLID_27_" fill="#231F20" d="M1.6,112.7c0,0-0.1,0-0.1,0.1c-0.2,0.1-0.3,0.4-0.1,0.7c1.3,2.1,4.3,4.6,7.8,5.1
					c3.4,0.4,6.6-1.1,9.4-4.3c0.2-0.2,0.1-0.5,0-0.7c-0.2-0.2-0.5-0.2-0.6,0c-2.7,3.1-5.6,4.5-8.7,4.1c-3.4-0.4-6.1-3-7.1-4.6
					C2,112.7,1.8,112.6,1.6,112.7z"/>
			</g>
		</g>
		<path id="XMLID_24_" fill="none" stroke="#231F20" stroke-linecap="round" stroke-linejoin="round" stroke-miterlimit="10" d="
			M-4.3-90.5C-1-93.8,1-96.2,1-96.2"/>
		<g id="XMLID_15_">
			
				<path id="XMLID_23_" fill="#D6FEFF" stroke="#95A6B8" stroke-linecap="round" stroke-linejoin="round" stroke-miterlimit="10" d="
				M9.9-35.7c-3,5.2-3,15.1-3,15.1c16.9-4.8,31.1-2.6,43.2,0.9s30.3-8.2,35-19.9c2.2,19.5,10.8,29,22.5,30.3s28.5,6.5,32,12.5
				c-0.4-17.7-1.7-22.9-1.7-22.9s-38-38-47.5-39.3S9.5-35.3,9.9-35.7z"/>
			<path id="XMLID_22_" fill="none" stroke="#95A6B8" stroke-linecap="round" stroke-linejoin="round" stroke-miterlimit="10" d="
				M89-49.1c0.4,18.2,4.3,27.2,12.5,30.3s18.6,3.9,21.2,6.1"/>
			<path id="XMLID_21_" fill="none" stroke="#95A6B8" stroke-linecap="round" stroke-linejoin="round" stroke-miterlimit="10" d="
				M92.9-46.5c1.3,11.2,7.8,20.7,15.1,21.6"/>
			<path id="XMLID_20_" fill="none" stroke="#95A6B8" stroke-linecap="round" stroke-linejoin="round" stroke-miterlimit="10" d="
				M85.2-50c-5.7,21.6-33.4,23.9-31.6,24.2"/>
			<path id="XMLID_19_" fill="none" stroke="#95A6B8" stroke-linecap="round" stroke-linejoin="round" stroke-miterlimit="10" d="
				M80.4-50.8C78.7-40.5,61.8-32.7,51-31.4S23.8-31,22-28.8"/>
			
				<path id="XMLID_18_" fill="#09CCAC" stroke="#0C5449" stroke-linecap="round" stroke-linejoin="round" stroke-miterlimit="10" d="
				M3.2-28.9c5.3-46.1,11.5-95.4,11.5-95.4c40.2-7.3,65.4-10.1,65.4-10.1c13.8-3.2,21,4.9,21,4.9c25.5,17,38.4,26.3,38.4,26.3
				c3.7,71.6,5.3,98.6,5.3,98.6c-32.9-28.1-46.1-36.6-46.1-36.6c-9-5.8-21.2-5.3-21.2-5.3C17-32.1,3.2-28.9,3.2-28.9z"/>
			<path id="XMLID_17_" fill="none" stroke="#0C5449" stroke-linecap="round" stroke-linejoin="round" stroke-miterlimit="10" d="
				M77.5-46.4c1.6-46.4,2.7-88,2.7-88"/>
			<path id="XMLID_16_" fill="none" stroke="#0C5449" stroke-linecap="round" stroke-linejoin="round" stroke-miterlimit="10" d="
				M99.4-41.8c-1-37.8,0.9-87.7,0.9-87.7"/>
		</g>
		<path id="XMLID_14_" fill="#E2AD7D" stroke="#874F39" stroke-linecap="round" stroke-linejoin="round" stroke-miterlimit="10" d="
			M144.7-40.8c-11-3.3-13-22-13.7-32.7c-0.9-14.4,6.7-18,13.7-9.3S156.5-37.2,144.7-40.8z"/>
		<path id="XMLID_13_" fill="#E2AD7D" stroke="#874F39" stroke-linecap="round" stroke-linejoin="round" stroke-miterlimit="10" d="
			M8-64.8c0,0-0.7,3.3-1.7,11.3c0,0-9-7.7-17.7-24.3c-40.3-26-55.7-3.3-58,18.3c-11,14.7-42,1.6-42,1.6c1.7-32.7,14.3-67,54-69.3
			s55,26.3,58.3,31c21.3-13,41.7-10,45.3-1S31.7-70.8,8-64.8z"/>
		<path id="XMLID_12_" fill="#E8672E" stroke="#A53411" stroke-linecap="round" stroke-linejoin="round" stroke-miterlimit="10" d="
			M-90,8.9c-3.9-2.3-16.7-13.4-18.6-19.6c-9.9-45.8-8.4-54-8.4-54c16.5-10,55-7.2,59.5,0.8C-61-45.4-62-32.2-62-32.2"/>
		<g id="XMLID_10_">
			
				<path id="XMLID_11_" fill="#E2AD7D" stroke="#874F39" stroke-linecap="round" stroke-linejoin="round" stroke-miterlimit="10" d="
				M-17.3,72.5c6.7,9.7,23,4.7,23.7-5.7c0.7-10.3-11-16-19.3-13.7"/>
		</g>
		<path id="XMLID_9_" fill="none" stroke="#231F20" stroke-linecap="round" stroke-linejoin="round" stroke-miterlimit="10" d="
			M-46.3,43.9c7.3-7.3,22.7-14.3,41-3.7"/>
		<g id="XMLID_7_">
			<path id="XMLID_8_" stroke="#231F20" stroke-linecap="round" stroke-linejoin="round" stroke-miterlimit="10" d="M-46.7,75.6
				c0.8-5,0-9.3-1.9-9.6c-1.8-0.3-3.9,3.5-4.7,8.5s0,9.3,1.9,9.6C-49.6,84.4-47.5,80.6-46.7,75.6z"/>
		</g>
		<g id="XMLID_5_">
			<path id="XMLID_6_" stroke="#231F20" stroke-linecap="round" stroke-linejoin="round" stroke-miterlimit="10" d="M13.2,91.2
				c0.2-5.1-1.1-9.2-3-9.3s-3.5,4-3.7,9c-0.2,5.1,1.1,9.2,3,9.3C11.3,100.3,13,96.3,13.2,91.2z"/>
		</g>
		<path id="XMLID_4_" fill="#722E16" stroke="#421205" stroke-linecap="round" stroke-linejoin="round" stroke-miterlimit="10" d="
			M-139.7,86.5c-20.7,18.7-14,61.3,12,68.7c-0.3,21.3,16.7,39.7,26.7,41.7c-10.3-9-11.7-22.7-11.7-22.7c19,26,33.7,28.7,51.3,28.7
			c-13.3-9-20.7-15-20.7-15c33,12.3,46.7,10,53.3,8.7c6.7-1.3,32.7-6.7,40-5.7c-10.7-4-27.3-7.3-27.3-7.3c22.3,0.3,41,5.7,41,5.7
			c-15.3-12-21-14-21-14c25-10,30.3-21.3,33.3-46c-17,17-68,23-68,23c8-14.7,20-15,22.7-21.3c-21-4.3-55,1.7-60.3,4.3
			c8.7-9.7,9.3-19.3,9.3-19.3c-6,8.3-43,3.7-46.3,14.3c3.7-19.3-5.7-44.7-0.3-57.3c-12,5.3-18.3,18-18.3,18
			C-133.7,93.9-139.7,86.5-139.7,86.5z"/>
		<path id="XMLID_3_" fill="none" stroke="#421205" stroke-linecap="round" stroke-linejoin="round" stroke-miterlimit="10" d="
			M-35.7,156.5c2.3-2.3,5-4.3,5-4.3"/>
		<path id="XMLID_2_" fill="none" stroke="#1C215E" stroke-linecap="round" stroke-linejoin="round" stroke-miterlimit="10" d="
			M-19.1-173.9c-6-2.7-12.3-6.3-12.3-6.3c0-9.7-0.4-22.7-0.4-22.7"/>
	</g>
</symbol>
<rect fill="#F4DBD9" width="648" height="432"/>
<use xlink:href="#Boy_Chair"  width="304.8" height="406.8" id="XMLID_40_" x="-152.4" y="-203.4" transform="matrix(1.0962 0 0 -1.0962 351.2937 228.4756)" overflow="visible"/>
</svg>
