<?xml version="1.0" encoding="utf-8"?>
<!-- Generator: Adobe Illustrator 19.0.0, SVG Export Plug-In . SVG Version: 6.00 Build 0)  -->
<!DOCTYPE svg PUBLIC "-//W3C//DTD SVG 1.0//EN" "http://www.w3.org/TR/2001/REC-SVG-20010904/DTD/svg10.dtd">
<svg version="1.0" xmlns="http://www.w3.org/2000/svg" xmlns:xlink="http://www.w3.org/1999/xlink" x="0px" y="0px"
	 viewBox="0 0 648 432" enable-background="new 0 0 648 432" xml:space="preserve">
<symbol  id="apple" viewBox="-38.7 -46.2 77.5 92.5">
	<path id="XMLID_395_" fill="#C11F1F" stroke="#870808" stroke-linecap="round" stroke-linejoin="round" stroke-miterlimit="10" d="
		M2.6,19.9c13.2,10,20.9,10.3,29.2-1.1s8-28,2-36.9S21.5-43.3,12.7-44.8c-10-1.7-11.4,4.9-12.6,4.6c-6-4-4-4.3-9.4-5.4
		C-14.8-46.8-26.3-39-38-5.8c-2.9,33.2,21.5,31.2,26.9,29.5C-5.7,21.9,2.6,19.9,2.6,19.9z"/>
	<path id="XMLID_394_" fill="#89C957" stroke="#629E2E" stroke-linecap="round" stroke-linejoin="round" stroke-miterlimit="10" d="
		M1.2,15.1c-9.7,4.3-21.1,6.7-22.9,29c16-0.4,19.9-7.3,23.8-16C2,21.1,1.2,15.1,1.2,15.1z"/>
	<path id="XMLID_393_" fill="#89C957" stroke="#629E2E" stroke-linecap="round" stroke-linejoin="round" stroke-miterlimit="10" d="
		M-12,34.5c5.5-2.4,11.2-7.3,13-16"/>
	<path id="XMLID_392_" fill="#7F3F05" stroke="#A85009" stroke-linecap="round" stroke-linejoin="round" stroke-miterlimit="10" d="
		M8.5,45.7c-12-10.2-7.5-26-7.1-30.9C2.8,14.2,4,13.4,4,13.4C2.8,15,3.2,15,4.8,16.1C3,27,10.3,36.6,16.2,40.4
		C14,46.3,8.5,45.7,8.5,45.7z"/>
	<path id="XMLID_391_" fill="#C11F1F" stroke="#870808" stroke-linecap="round" stroke-linejoin="round" stroke-miterlimit="10" d="
		M-5.1,17.3c8-2.3,12.6-6.9,12.6-6.9"/>
	<path id="XMLID_390_" fill="#C11F1F" stroke="#870808" stroke-linecap="round" stroke-linejoin="round" stroke-miterlimit="10" d="
		M-5.1-36.2c5.4-1.4,5.2-4,5.2-4"/>
	<path id="XMLID_389_" fill="#C11F1F" stroke="#870808" stroke-linecap="round" stroke-linejoin="round" stroke-miterlimit="10" d="
		M2.6,14.5c2.6,3.1,10.6,4.6,10.6,4.6"/>
</symbol>
<symbol  id="bear" viewBox="-161.6 -181.2 323.1 357.5">
	
		<use xlink:href="#bearfinger"  width="27.8" height="27.7" id="XMLID_552_" x="-13.9" y="-13.9" transform="matrix(1 0 0 1 -114.3793 -41.3825)" overflow="visible"/>
	
		<use xlink:href="#bearfinger"  width="27.8" height="27.7" id="XMLID_551_" x="-13.9" y="-13.9" transform="matrix(1 0 0 1 -123.2881 -30.6919)" overflow="visible"/>
	
		<use xlink:href="#bearleg"  width="108.1" height="138" id="XMLID_550_" x="-55.3" y="-68.4" transform="matrix(1 0 0 1 -39.9704 -97.9626)" overflow="visible"/>
	<path id="XMLID_549_" fill="#9B634B" stroke="#603129" stroke-linecap="round" stroke-linejoin="round" stroke-miterlimit="10" d="
		M128.6-112.2c10,3.9,17.7,11.7,18.2,6.1c1.1-2.1-6.9-10.3-1.9-5.1c7.6,7.9,12.8,8.2,15.9,1.2c3.1-7-17.3-43.3-47.8-26.8
		C119.5-112.2,128.6-112.2,128.6-112.2z"/>
	<path id="XMLID_548_" fill="none" stroke="#231F20" stroke-linecap="round" stroke-linejoin="round" stroke-miterlimit="10" d="
		M116.7-76.6"/>
	<path id="XMLID_547_" fill="#9B634B" stroke="#603129" stroke-linecap="round" stroke-linejoin="round" stroke-miterlimit="10" d="
		M-35.5,152.2c-5.5-8.2-2.5,22.5-10.3,23.5s-22.1-4.6-24.9-16s3.2-26,10-26S-34.8,153.3-35.5,152.2z"/>
	<path id="XMLID_546_" fill="#9B634B" stroke="#603129" stroke-linecap="round" stroke-linejoin="round" stroke-miterlimit="10" d="
		M-79.7,9.3c-12.1-11.8-15.7-34.2-8.2-63.1s15.3-68.4,45.3-83.4s55.2-21.7,85.2-18.5s70.6,1.8,78.4,11.4s23.5,25.7,19.2,57.7
		s-13.5,47-20.3,55.2S66.8,30.7,55,45.3C4.1,26.8-79.7,9.7-79.7,9.3z"/>
	
		<use xlink:href="#bearleg"  width="108.1" height="138" id="XMLID_538_" x="-55.3" y="-68.4" transform="matrix(1 0 0 1 66.0755 -112.7474)" overflow="visible"/>
	<path id="XMLID_535_" fill="#9B634B" stroke="#603129" stroke-linecap="round" stroke-linejoin="round" stroke-miterlimit="10" d="
		M52.2,10.8c2.5,1.4,13.5,17.8,6.4,28.2c0,0,5-3.2,10.3-4.3c-0.4,1.4-4.6,15.3-16.7,21c0,0,5.7-1.4,12.8-1.8c0,0-6.4,6.4-13.5,11
		S33.7,93.1,29,110.2c-13.5,16.7-101.6,13.2-109-10s-12.8-73.1-8.9-83s6.8-35.6,6.8-35.6"/>
	<path id="XMLID_534_" fill="#87D48B" stroke="#B5FFDF" stroke-linecap="round" stroke-linejoin="round" stroke-miterlimit="10" d="
		M-119.5,28.9c4,3.7,8.2,5.4,11.7,5.9s24.6-2.8,38.9-18.5c4.9-13.8-0.5-28.6-0.5-28.6c-9.8-0.9-16.9-0.9-16.9-0.9
		C-85.8,2.2-97.3,26.6-119.5,28.9z"/>
	<path id="XMLID_533_" fill="#9B634B" stroke="#603129" stroke-linecap="round" stroke-linejoin="round" stroke-miterlimit="10" d="
		M-29.1,155.4c-28.9-3.2-35.3-12.5-37.8-17.5s-26.7-31.7-31.7-34.6c4.3-1.4,9.3,1.8,9.3,1.8c-12.1-10.7-12.8-22.1-8.2-28.2
		c-0.4,4.6,2.5,10,2.5,10c-0.7-17.5,1.1-32.1,12.8-41s34.6-6.8,44.2-6.8s37.1-0.7,45.3,7.8c-7.5-7.1-9.6-9.3-9.6-9.3
		c12.1,0.4,18.2,9.3,19.6,18.5c2.1-4.3,2.1-7.1,2.1-7.1c2.9,5.7,2.1,12.5,1.1,18.2s-0.4,22.5,2.5,32.8S9.8,149.7-29.1,155.4z"/>
	<path id="XMLID_532_" fill="#5EA884" stroke="#246B4E" stroke-linecap="round" stroke-linejoin="round" stroke-miterlimit="10" d="
		M-152.6,22.3c16.8,15.3,72.6,15,77.7-36.8c-5.5-17.9-33.2-16.8-33.2-16.8c-21.2,14.6-32.1,13.9-39.4,30.6c-4.7-3.6-9.8,3.3-8,7.3
		c-8.4,6.6-5.3,11.1-3.6,13.1C-156.2,23.4-152.2,22.7-152.6,22.3z"/>
	<path id="XMLID_531_" fill="#5EA884" stroke="#246B4E" stroke-linecap="round" stroke-linejoin="round" stroke-miterlimit="10" d="
		M-146.7,13.7c-0.2-4.2-1.7-7.6-8.8-7.1"/>
	<path id="XMLID_530_" fill="#87D48B" stroke="#B5FFDF" stroke-linecap="round" stroke-linejoin="round" stroke-miterlimit="10" d="
		M-118.8,3.7c8.1,4.5,18.7,5.3,18.4,0.4c-0.3-4.9-8.5-18.1-19-7.4"/>
	
		<use xlink:href="#bearfinger"  width="27.8" height="27.7" id="XMLID_527_" x="-13.9" y="-13.9" transform="matrix(0.9846 0.175 -0.175 0.9846 -129.7025 -21.0238)" overflow="visible"/>
	<path id="XMLID_526_" fill="#9B634B" stroke="#603129" stroke-linecap="round" stroke-linejoin="round" stroke-miterlimit="10" d="
		M-87.5,48.2c1.1-10.7,16-18.9,25.3-19.6s17.8,4.6,19.6,7.1"/>
	<path id="XMLID_525_" fill="#9B634B" stroke="#603129" stroke-linecap="round" stroke-linejoin="round" stroke-miterlimit="10" d="
		M-57.2,97.3c-2.1-6.8-6.8-10.3-9.6-11.8c-2.9-1.4-17.1-4.3-17.8-6.8c-0.7-3.2-2.1-5.7-3.9-7.1c-2.5-2.1-7.5-9.6-7.8-13.5
		s6.8-11,9.6-12.5c4.6-0.4,9.6-1.1,11.8-2.1s11.4-11,16.4-11.8s13.9-0.4,18.5,3.2s11.4,14.3,14.6,16.7s5,2.1,5.7,3.2"/>
	<path id="XMLID_524_" fill="#1E120E" stroke="#351C14" stroke-linecap="round" stroke-linejoin="round" stroke-miterlimit="10" d="
		M-82.5,77c14.6-0.7,27.1-13.9,31.7-18.9c-10.3-7.8-20.7-7.5-23.9-6.8S-87.5,65.3-82.5,77z"/>
	<path id="XMLID_523_" fill="none" stroke="#231F20" stroke-linecap="round" stroke-linejoin="round" stroke-miterlimit="10" d="
		M-30.1,109.8c3.6,2.5,12.5-2.5,13.2-8.9"/>
	<path id="XMLID_522_" fill="none" stroke="#231F20" stroke-linecap="round" stroke-linejoin="round" stroke-miterlimit="10" d="
		M-67.9,119.1c7.1,7.5,12.1,6.8,14.6,1.8"/>
	
		<use xlink:href="#eye_3"  width="5.4" height="18.1" id="XMLID_521_" x="-2.7" y="-9" transform="matrix(1 0 0 1 -29.414 84.8752)" overflow="visible"/>
	<path id="XMLID_518_" fill="#9B634B" stroke="#603129" stroke-linecap="round" stroke-linejoin="round" stroke-miterlimit="10" d="
		M13.1,140.2c-3.3,15.3-4.8,24.3-4.8,24.3C4.5,155.9,4,151.1,4,151.1c-15.7,17.6-20.5,20-20.5,18.6c3.3-10,8.1-14.3,8.1-14.3
		c-25.3,9.5-35.8-6.7-35.8-6.7c11.9-0.5,13.3-1.4,13.3-1.4c-5.7-3.3-7.6-11.4-7.6-11.4c6.7,2.9,14.8,1.9,14.8,1.9"/>
	
		<use xlink:href="#eye_3"  width="5.4" height="18.1" id="XMLID_517_" x="-2.7" y="-9" transform="matrix(1 0 0 1 -66.1185 100.1984)" overflow="visible"/>
	<path id="XMLID_516_" fill="#5EA884" stroke="#246B4E" stroke-linecap="round" stroke-linejoin="round" stroke-miterlimit="10" d="
		M-97-54.9c0.9-15.2,0-18.3,0-18.3c-26.2-8.5-25.9-26.8-24.7-28c20.4-4.3,29.9,7,29.9,7c9.4-21.6,27.7-20.1,27.7-20.1
		c4.9,19.2,0.9,30.2-11.3,39.6c5.8,10.1,4.9,21.6,4.9,21.6C-82.6-47.9-97.6-54.6-97-54.9z"/>
	<path id="XMLID_515_" fill="#9B634B" stroke="#603129" stroke-linecap="round" stroke-linejoin="round" stroke-miterlimit="10" d="
		M1.9,140.8c18.2-1.8,29.9,2.1,33.5,0.7s8.6-13.9,5-23.2s-15.7-20.7-24.9-18.2"/>
	<path id="XMLID_514_" fill="#9B634B" stroke="#603129" stroke-linecap="round" stroke-linejoin="round" stroke-miterlimit="10" d="
		M9.8,15.4c-31-10-45.6-23.9-46.7-23.9c-31,0.7-58.1-1.4-65.9-7.5s-16.4-15.3-5.3-24.2c-4.3-6.8,5-14.3,7.5-14.3
		c-0.7-11.8,13.5-8.6,13.5-8.6c1.4-7.1,6.8-8.2,18.5-5c11.8,3.2,31,0.4,43.1-2.1c13.2-2.9,22.8,2.5,22.8,2.5
		c-6.1-5.7-9.6-8.2-9.6-8.2c11.8-1.4,22.1,7.8,23.2,16c0.7-10-1.8-13.5-1.8-13.5c12.1,11,19.2,36,20.3,46s8.6,14.3,6.4,23.2"/>
	<path id="XMLID_513_" fill="#9B634B" stroke="#603129" stroke-linecap="round" stroke-linejoin="round" stroke-miterlimit="10" d="
		M-95-27.7c-9.3-3.2-13.2-12.5-13.2-12.5"/>
	
		<use xlink:href="#eye_3"  width="5.4" height="18.1" id="XMLID_510_" x="-2.7" y="-9" transform="matrix(0.5806 7.454199e-02 -7.454199e-02 0.5806 -130.9782 15.5573)" overflow="visible"/>
	<path id="XMLID_507_" fill="#9B634B" stroke="#603129" stroke-linecap="round" stroke-linejoin="round" stroke-miterlimit="10" d="
		M-82.9-40.9c-8.2-1.4-17.8-13.5-17.8-13.5"/>
	<path id="XMLID_506_" fill="#9B634B" stroke="#603129" stroke-linecap="round" stroke-linejoin="round" stroke-miterlimit="10" d="
		M-72.9-52.7C-78.9-53-87.1-63-87.1-63"/>
	<path id="XMLID_505_" fill="none" stroke="#231F20" stroke-linecap="round" stroke-linejoin="round" stroke-miterlimit="10" d="
		M-74.7,51.4c-1.6-3.3-2.2-7.2-2.2-7.2"/>
	<path id="XMLID_504_" fill="#9B634B" stroke="#603129" stroke-linecap="round" stroke-linejoin="round" stroke-miterlimit="10" d="
		M14.5,112.7c8.4-2.7,14,4.4,10,8.2c6.5-2.3,13.1,5.2,8.2,4.9"/>
	<path id="XMLID_503_" fill="#87D48B" stroke="#B5FFDF" stroke-linecap="round" stroke-linejoin="round" stroke-miterlimit="10" d="
		M-97-73.1c-26.2-8.5-25.9-26.8-24.7-28c20.4-4.3,29.9,7,29.9,7c9.4-21.6,27.7-20.1,27.7-20.1c4.9,19.2,0.9,30.2-11.3,39.6"/>
</symbol>
<symbol  id="bearfinger" viewBox="-13.9 -13.9 27.8 27.7">
	<path id="XMLID_529_" fill="#9B634B" stroke="#603129" stroke-linecap="round" stroke-linejoin="round" stroke-miterlimit="10" d="
		M-10.9,13.3c-5.3-7.8-1.8-23.2,6.8-25.7s18.5-0.7,17.5,8.9S-10.9,13.3-10.9,13.3z"/>
</symbol>
<symbol  id="bearleg" viewBox="-55.3 -68.4 108.1 138">
	<path id="XMLID_545_" fill="#9B634B" stroke="#603129" stroke-linecap="round" stroke-linejoin="round" stroke-miterlimit="10" d="
		M28.5,15C54,0.1,54.4-47,50.4-58.7c-9-3.8-18.7-5.7-27.3-6.7C9.9-70.7-1.4-66-1.4-66c-8-3.6-17.1,1.5-17.1,1.5
		C-26.6-69.6-35-62-35-62c-8.4-1.5-12.4,3.6-12.4,3.6c-1.5,9.8,2.6,24.8,15.7,26.6"/>
	<path id="XMLID_544_" fill="#9B634B" stroke="#603129" stroke-linecap="round" stroke-linejoin="round" stroke-miterlimit="10" d="
		M-25.5-38.6C-33.1-42.6-35-62-35-62"/>
	<path id="XMLID_543_" fill="#9B634B" stroke="#603129" stroke-linecap="round" stroke-linejoin="round" stroke-miterlimit="10" d="
		M-9.4-42.3c-6.9-2.6-9.1-22.3-9.1-22.3"/>
	<path id="XMLID_542_" fill="#9B634B" stroke="#603129" stroke-linecap="round" stroke-linejoin="round" stroke-miterlimit="10" d="
		M8.8-43c-8-3.3-10.2-23-10.2-23"/>
	<path id="XMLID_541_" fill="#9B634B" stroke="#603129" stroke-linecap="round" stroke-linejoin="round" stroke-miterlimit="10" d="
		M51.9,32.5C28.1,65.3-3.4,74.4-21.3,66.3C-39.9,58-39.6,50.2-39.6,50.2c3.7,1.5,5.7,0.7,5.7,0.7C-52.2,36-56,31.1-54.5,9.2
		c2.6,6.6,5.2,8.9,5.2,8.9c-6.2-12.7-4.2-29.4,4.2-39.3s32.5-23.7,57.3-18.2"/>
	<path id="XMLID_540_" fill="#9B634B" stroke="#603129" stroke-linecap="round" stroke-linejoin="round" stroke-miterlimit="10" d="
		M15.6,24.3C32,11.3,38,7,38,7"/>
</symbol>
<symbol  id="brow1" viewBox="-9.6 -4.6 19.2 9.3">
	<path id="XMLID_402_" fill="none" stroke="#000000" stroke-linecap="round" stroke-linejoin="round" stroke-miterlimit="10" d="
		M-9.1-4.1c2,3.6,12.6,13.6,18.2,4.6"/>
</symbol>
<symbol  id="eye" viewBox="-5.7 -10 11.4 20">
	<path id="XMLID_408_" stroke="#000000" stroke-linecap="round" stroke-linejoin="round" stroke-miterlimit="10" d="M4.5-1.3
		C3-6.5-0.2-10.1-2.7-9.4S-5.9-3.9-4.5,1.3s4.7,8.8,7.1,8.1S5.9,3.9,4.5-1.3z"/>
</symbol>
<symbol  id="eye_3" viewBox="-2.7 -9 5.4 18.1">
	<path id="XMLID_512_" fill="#231F20" stroke="#231F20" stroke-miterlimit="10" d="M-2.1,0.2c-0.3-4.7,0.4-8.6,1.5-8.7
		c1.2-0.1,2.4,3.7,2.7,8.4S1.8,8.4,0.6,8.5C-0.6,8.6-1.8,4.9-2.1,0.2z"/>
</symbol>
<symbol  id="girlleg_2" viewBox="-69.3 -19.2 138.6 38.4">
	<path id="XMLID_123_" fill="#D8AE8B" stroke="#933F22" stroke-linecap="round" stroke-linejoin="round" stroke-miterlimit="10" d="
		M48.2,18.7C62.2,10.2,70.7,2,68.5-9.6c-2.2-11.6-59.2-4-85.6,7.3c-18.5-10.7-43.6-20-48.5-11.1c-4.9,8.9,24,26.9,40.5,28.7
		C-8.7,16,23.5,9.6,23.5,9.6L48.2,18.7z"/>
	<path id="XMLID_122_" fill="#E5F5F9" stroke="#8CA8AF" stroke-linecap="round" stroke-linejoin="round" stroke-miterlimit="10" d="
		M1.7,13.1c-4.7-5.3-5.1-18-4.2-21.8c-14.2,3.1-15.1,5.6-15.1,5.6c-22.2-15.6-42.3-19.6-50.5-11.6c-5.6,10,24,29.8,40.9,31.6
		C-10.7,18,1.7,13.1,1.7,13.1z"/>
	<path id="XMLID_121_" fill="#E5F5F9" stroke="#8CA8AF" stroke-linecap="round" stroke-linejoin="round" stroke-miterlimit="10" d="
		M-26.3,2.5c5.1-3.6,8.7-5.6,8.7-5.6"/>
	<path id="XMLID_55_" fill="#D8AE8B" stroke="#933F22" stroke-linecap="round" stroke-linejoin="round" stroke-miterlimit="10" d="
		M33.5,2.9c3.8-3.3,12.2-10,12.2-10"/>
</symbol>
<symbol  id="sweat1" viewBox="-4.7 -3.9 9.5 7.9">
	<path id="XMLID_21_" fill="#8AFCFF" stroke="#4A6984" stroke-linecap="round" stroke-linejoin="round" stroke-miterlimit="10" d="
		M-4.2-3.4C-1.1,1.9,2.4,5.2,4,2.4C5.2,0.2,0.9-0.8-4.2-3.4z"/>
</symbol>
<symbol  id="window1" viewBox="-19.6 -19 39.2 34.3">
	<polygon id="XMLID_218_" fill="#A176B7" stroke="#50305E" stroke-miterlimit="10" points="-19.1,-14.8 19.1,-14.8 19.1,14.8 
		-19.1,14.8 	"/>
	<polygon id="XMLID_217_" fill="#A2D3DB" stroke="#CBE8EF" stroke-miterlimit="10" points="-9.1,-14.8 9.1,-14.8 9.1,14.8 
		-9.1,14.8 	"/>
	<polygon id="XMLID_216_" fill="#ADA67B" stroke="#ADA67B" stroke-miterlimit="10" points="-8.4,-18.5 8.4,-18.5 8.4,-12.6 
		-8.4,-12.6 	"/>
	<polygon id="XMLID_215_" fill="#F2EEDD" stroke="#ADA67B" stroke-miterlimit="10" points="-10.7,-16.5 10.7,-16.5 10.7,-10.6 
		-10.7,-10.6 	"/>
</symbol>
<g id="Layer_2">
	<rect id="XMLID_1_" x="0" fill="#CCD3E8" width="648" height="432"/>
</g>
<g id="Layer_1">
	
		<use xlink:href="#bear"  width="323.1" height="357.5" id="XMLID_6_" x="-161.6" y="-181.2" transform="matrix(1.1513 0 0 -1.1513 328.932 214.4938)" overflow="visible"/>
</g>
</svg>
