<?xml version="1.0" encoding="utf-8"?>
<!-- Generator: Adobe Illustrator 19.0.0, SVG Export Plug-In . SVG Version: 6.00 Build 0)  -->
<!DOCTYPE svg PUBLIC "-//W3C//DTD SVG 1.0//EN" "http://www.w3.org/TR/2001/REC-SVG-20010904/DTD/svg10.dtd">
<svg version="1.0" id="Layer_1" xmlns="http://www.w3.org/2000/svg" xmlns:xlink="http://www.w3.org/1999/xlink" x="0px" y="0px"
	 viewBox="0 0 648 432" enable-background="new 0 0 648 432" xml:space="preserve">
<symbol  id="bunny" viewBox="-134.3 -143.7 268.6 287.4">
	<path id="XMLID_60_" fill="#E0B975" stroke="#B27E29" stroke-linecap="round" stroke-linejoin="round" stroke-miterlimit="10" d="
		M60.9-62.7c15.4-15.7,20.7-25.6,19.9-29.8c-2.2,3.5-5.3,4.6-5.3,4.6c4.9-10.6,5.5-14.1,3.1-16.5s-1.8,4.4-1.8,4.4
		c0-9.9-6.2-15.2-11.5-18.8c-5.3-3.5-22.5-1.1-22.5-1.1S30.3-76.1,60.9-62.7z"/>
	<path id="XMLID_59_" fill="#E0B975" stroke="#B27E29" stroke-linecap="round" stroke-linejoin="round" stroke-miterlimit="10" d="
		M-89.9-73.1c-2.6,7.3-11.5,10.1-13.7-0.6c-8.3,10.5-24.6,3.2-27.6-3.2c-3-6.4-5.1-19.5,3.8-23.5c-10.1-4.3-4.9-16.3,4.1-18
		s13.3,1.9,13.3,1.9c-0.6-9,13.9-18.6,27.2,0C-70.2-94.7-89.9-73.1-89.9-73.1z"/>
	<g id="XMLID_57_">
		<path id="XMLID_58_" fill="#E0B975" stroke="#B27E29" stroke-linecap="round" stroke-linejoin="round" stroke-miterlimit="10" d="
			M79.6-58.2c3.2-1.2,9.1,4.6,8,7.8s-4.8,4.3-6.9,3C78.5-48.7,74.9-56.4,79.6-58.2z"/>
	</g>
	<g id="XMLID_55_">
		
			<path id="XMLID_56_" fill="#E0B975" stroke="#B27E29" stroke-width="1.0529" stroke-linecap="round" stroke-linejoin="round" stroke-miterlimit="10" d="
			M80.4-52.2c3.3-1.3,9.6,4.8,8.4,8.2s-5,4.6-7.2,3.2S75.5-50.3,80.4-52.2z"/>
	</g>
	<g id="XMLID_53_">
		
			<path id="XMLID_54_" fill="#E0B975" stroke="#B27E29" stroke-width="1.0881" stroke-linecap="round" stroke-linejoin="round" stroke-miterlimit="10" d="
			M78.8-46c3.4-1.3,9.9,5,8.7,8.5c-1.3,3.5-5.2,4.7-7.5,3.3S73.7-44.1,78.8-46z"/>
	</g>
	<g id="XMLID_49_">
		<path id="XMLID_52_" fill="#E0B975" stroke="#B27E29" stroke-linecap="round" stroke-linejoin="round" stroke-miterlimit="10" d="
			M19.2-131.3c16.9,5.8,31.7,15.4,37.6,13.3c4.5,3,10.7,2.1,13.3,0.9c3,3,9.4-0.9,11.8-6s3.8-11.5,3.4-12.2
			c-3.8-1.5-6.6-0.4-6.6-0.4c-4.7-3.8-12.8-1.3-12.8-1.3C59.2-140,27.1-138.7,19.2-131.3z"/>
		<path id="XMLID_51_" fill="none" stroke="#B27E29" stroke-linecap="round" stroke-linejoin="round" stroke-miterlimit="10" d="
			M56.9-118c9.6-7.1,9-19,9-19"/>
		<path id="XMLID_50_" fill="none" stroke="#B27E29" stroke-linecap="round" stroke-linejoin="round" stroke-miterlimit="10" d="
			M70.1-117.1c7.5-6.4,8.6-18.6,8.6-18.6"/>
	</g>
	<path id="XMLID_48_" fill="#E0B975" stroke="#B27E29" stroke-linecap="round" stroke-linejoin="round" stroke-miterlimit="10" d="
		M-22.5-5.3c-3.8-6.4-9.8-7.7-31.9-17.1s-33.4-24.4-38.7-48.3s-2.1-35.5,3-39.6c0,3-0.6,6.6-0.2,6c3.4-12.8,5.3-18.6,15.8-26.1
		s30.8-6.2,33.4-5.8s44.7-2.6,56.7-1.9s20.3,1.1,26.7,6.8s12.6,13.9,13.5,20.3c-0.4-7.1,3.6-6,3,0.6s-3.4,10.9-3.4,10.9
		c3-7.3,4.9-11.8,5.6-5.1c0.6,6.6-2.8,25.9-6.2,31.4c-3.4,5.6,3.8,38.3-5.6,44.3S-22.5-5.3-22.5-5.3z"/>
	<path id="XMLID_47_" fill="#E0B975" stroke="#B27E29" stroke-linecap="round" stroke-linejoin="round" stroke-miterlimit="10" d="
		M29.9-43.6c-6.4,10.5-19,8.6-33.6,23.1c0,0,1.7-2.6,3.4-5.6c-3,0.9-15.8,1.7-19.9,11.5c0,0,1.3-2.6,0.9-4.5
		C-29.6-15-32.1-5.4-24.4,3.4c0,0-3.8-3-6-3.6c-1.3,4.7,9.6,16.3,20.3,15c20.7,5.8,79.7-7.2,83.6-6.5c9.2-7.7,6.6-25,6.2-29
		c-2.1,4.1-4.8,6.2-4.8,6.2c6.2-15.4-9.9-24.3-16.1-28C42.4-50.9,31.6-51.9,29.9-43.6z"/>
	<g id="XMLID_26_">
		<g id="XMLID_45_">
			<path id="XMLID_46_" fill="#5CC624" stroke="#388912" stroke-miterlimit="10" d="M77-70.6c-0.6,0-1.2,0.4-1.4,1.1
				c-2.6,8.2-8.8,36.5,18,55.1c0.7,0.5,1.6,0.3,2.1-0.4s0.3-1.6-0.4-2.1C70.2-34.3,76-61,78.4-68.7c0.2-0.8-0.2-1.6-1-1.9
				C77.3-70.6,77.1-70.6,77-70.6z"/>
		</g>
		<g id="XMLID_42_">
			
				<path id="XMLID_44_" fill="#5CC624" stroke="#388912" stroke-linecap="round" stroke-linejoin="round" stroke-miterlimit="10" d="
				M84.6-27.5c5.5,2.3,11.5,7.4,19.5,0.3s10.4-9.2,10.4-9.2C102.5-40.7,85.7-36.8,84.6-27.5z"/>
			<path id="XMLID_43_" fill="none" stroke="#388912" stroke-linecap="round" stroke-linejoin="round" stroke-miterlimit="10" d="
				M84.6-27.5c6.4,1.1,13.1-1,14.4-3.5"/>
		</g>
		<path id="XMLID_41_" fill="#F766CA" stroke="#DD26A5" stroke-linecap="round" stroke-linejoin="round" stroke-miterlimit="10" d="
			M106.8,8.3c-0.8,5.9,0.8,11.3,8.6,10.2s8.3-13.4,4-19.1c-5.1-4-12.9,1.6-12.9,1.6L106.8,8.3z"/>
		<g id="XMLID_39_">
			
				<path id="XMLID_40_" fill="#F766CA" stroke="#DD26A5" stroke-linecap="round" stroke-linejoin="round" stroke-miterlimit="10" d="
				M115-5.3c1.1,3.6,4.6,6.9,9.3,6.8c4.6-0.2,10.9-2.6,9.2-8.8s-7.9-7.3-16-4C115.1-10.8,115-5.3,115-5.3z"/>
		</g>
		<g id="XMLID_37_">
			
				<path id="XMLID_38_" fill="#F766CA" stroke="#DD26A5" stroke-linecap="round" stroke-linejoin="round" stroke-miterlimit="10" d="
				M107.8-1.1c1.9,3.2,2,8.1-1.2,11.4s-9.2,6.3-12.7,0.9s-0.1-10.8,7.8-14.5C103.6-4.7,107.8-1.1,107.8-1.1z"/>
		</g>
		<path id="XMLID_36_" fill="#FFC639" stroke="#DB8D0F" stroke-linecap="round" stroke-linejoin="round" stroke-miterlimit="10" d="
			M118.5-5.7c-1.1-2.2-4.9-2.5-8.4-0.7s-5.4,5.1-4.3,7.3s4.9,2.5,8.4,0.7C117.7-0.3,119.6-3.5,118.5-5.7z"/>
		<g id="XMLID_34_">
			
				<path id="XMLID_35_" fill="#F766CA" stroke="#DD26A5" stroke-linecap="round" stroke-linejoin="round" stroke-miterlimit="10" d="
				M110.6-6.2c3.5,1.3,8.3,0.5,11-3.2s4.6-10.2-1.3-12.6s-10.7,1.8-12.9,10.2C106.3-9.7,110.6-6.2,110.6-6.2z"/>
		</g>
		<path id="XMLID_33_" fill="#F766CA" stroke="#DD26A5" stroke-linecap="round" stroke-linejoin="round" stroke-miterlimit="10" d="
			M108-15.1c-2.1-3.2-7.1-3.6-11.1-1s-5.5,7.5-3.4,10.7s8.8,5.6,12.8,3S110.2-11.9,108-15.1z"/>
		<g id="XMLID_27_">
			<g id="XMLID_30_">
				<path id="XMLID_32_" fill="#5CC624" d="M77.9-32.6c-3.6,3.4-6.8,9.6-14.9,4.5s-10.5-6.5-10.5-6.5C60.5-41.4,74.5-41.4,77.9-32.6
					z"/>
				<path id="XMLID_31_" fill="#388912" d="M52.2-35c-0.1,0.1-0.2,0.3-0.1,0.4s0.1,0.3,0.3,0.4c0,0,2.5,1.5,10.5,6.5
					c7.1,4.4,10.6,0.6,13.6-2.8c0.6-0.6,1.1-1.2,1.7-1.8c0.1-0.1,0.2-0.4,0.1-0.6C77.2-35.7,75-37.8,72-39
					c-3.5-1.4-7.9-1.4-11.9-0.2C57.2-38.3,54.5-36.9,52.2-35z M75.9-31.2c-3,3.3-6.2,6.8-12.8,2.7c-5.8-3.6-8.7-5.4-9.9-6.1
					c5.3-4.1,12.9-5.5,18.5-3.3c2.6,1,4.6,2.8,5.6,5.2C76.9-32.3,76.4-31.8,75.9-31.2z"/>
			</g>
			<g id="XMLID_28_">
				<path id="XMLID_29_" fill="#388912" d="M65.8-33.3c0.1,0,0.3,0,0.4,0.2c1.4,1.7,6.9,2.5,11.6,0.1c0.2-0.1,0.4,0,0.6,0.3
					c0.1,0.3,0,0.5-0.2,0.6c-4.8,2.5-10.6,1.9-12.5-0.3c-0.2-0.2-0.2-0.5,0-0.7C65.6-33.2,65.7-33.3,65.8-33.3z"/>
			</g>
		</g>
	</g>
	<path id="XMLID_25_" fill="#E0B975" stroke="#B27E29" stroke-linecap="round" stroke-linejoin="round" stroke-miterlimit="10" d="
		M10.2-37.4c20.3-9.6,32.7-9.4,43-4.5s14.3,5.8,16.9,5.8s7.7-0.6,6.4-5.8c3.6-1.5,1.9-6.6,1.3-7.1c4.5-4.5-0.2-8.8-5.1-12.6
		c-4.9-3.8-15.8-16-22.7-17.7c4.7,1.1,7.7,0,3-2.1s-18.2-1.3-18.8-0.2c5.8-1.7,8.3-3.2,5.3-4.1s-18.2,0.9-19.7,4.1
		c5.8-4.7,6.8-7.1,2.4-5.3c-4.5,1.7-19,9-21.2,20.7"/>
	<g id="XMLID_21_">
		<path id="XMLID_24_" fill="#E0B975" stroke="#B27E29" stroke-linecap="round" stroke-linejoin="round" stroke-miterlimit="10" d="
			M-47.5-136c16.9,5.8,31.7,15.4,37.6,13.3c4.5,3,10.7,2.1,13.3,0.9c3,3,9.4-0.9,11.8-6s3.8-11.5,3.4-12.2c-3.8-1.5-6.6-0.4-6.6-0.4
			c-4.7-3.8-12.8-1.3-12.8-1.3C-7.5-144.7-39.6-143.4-47.5-136z"/>
		<path id="XMLID_23_" fill="none" stroke="#B27E29" stroke-linecap="round" stroke-linejoin="round" stroke-miterlimit="10" d="
			M-9.9-122.7c9.6-7.1,9-19,9-19"/>
		<path id="XMLID_22_" fill="none" stroke="#B27E29" stroke-linecap="round" stroke-linejoin="round" stroke-miterlimit="10" d="
			M3.4-121.8c7.5-6.4,8.6-18.6,8.6-18.6"/>
	</g>
	<path id="XMLID_20_" fill="#E0B975" stroke="#B27E29" stroke-linecap="round" stroke-linejoin="round" stroke-miterlimit="10" d="
		M-6.4,32.7C-7.1,21.4-12,6.8-13.8,4.4C-6,7.2-5.6,9.7-5.6,9.7c-5-13.1-3.5-21.6,4.3-23.1C-2.8-10.2-3.2-7-3.2-7
		c5-13.8,26.3-23.4,35.1-17.4c-6-0.7-11.7,5.3-11.7,5.3c17.5-17.1,75,7.9,62.1,41.2c2.5-6.7,7.4-8.5,3.5,4.3c-2.5,6-7.1,8.9-7.1,8.9
		C83.8,31,88,31,88,31c-9.9,7.1-27,22.3-29.4,27C54,65.4-14.5,77.4-6.4,32.7z"/>
	<path id="XMLID_19_" fill="none" stroke="#B27E29" stroke-linecap="round" stroke-linejoin="round" stroke-miterlimit="10" d="
		M-22.5-60.4C-8.3-64.5,6.4-78.4,6.2-88C4.9-88.2,2-87.4,2-87.4c4.5-7.7,5-13.1,2.2-18c-1.3,0.2-1.5,3.6-1.5,3.6
		c-0.2-9.8-1.3-15.6-5.1-18.8"/>
	<path id="XMLID_18_" fill="none" stroke="#B27E29" stroke-linecap="round" stroke-linejoin="round" stroke-miterlimit="10" d="
		M68.9-44.8c2.2,2.6,7.6,2.9,7.6,2.9"/>
	<path id="XMLID_17_" fill="none" stroke="#B27E29" stroke-linecap="round" stroke-linejoin="round" stroke-miterlimit="10" d="
		M70.7-50.7c2.4,1.8,7.2,1.8,7.2,1.8"/>
	<path id="XMLID_16_" fill="#E27964" stroke="#B75334" stroke-linecap="round" stroke-linejoin="round" stroke-miterlimit="10" d="
		M-27.6,63.9c-14.9,13-22.1,20.6-25.4,23s-25.4,20.6-33.4,14.9c-8.1-5.7,10.2-62.9,45.1-73.4s36-2.4,36-2.4
		C-4.9,31.9-27.6,63.9-27.6,63.9z"/>
	<path id="XMLID_15_" fill="#E0B975" stroke="#B27E29" stroke-linecap="round" stroke-linejoin="round" stroke-miterlimit="10" d="
		M-37.8,142.2c-1.1-9.8,3.8-58,51.5-68.9c10.9,0,12,7.3,12,7.3c-9.8,21.6-16.9,31-28,41.1S-32,147.4-37.8,142.2z"/>
	<path id="XMLID_14_" fill="#E0B975" stroke="#B27E29" stroke-linecap="round" stroke-linejoin="round" stroke-miterlimit="10" d="
		M-4.2,44.9c-2.1,12.2,1.1,27.4,6.2,28S1.8,61.2,1.8,61.2C14.6,86,32.2,89.4,46.3,87.9c3-1.1-0.2-3.6-13-11.5
		C50,82.8,59.6,76,60,70.6c0.4-4.9-15.4-4.1-15.4-4.1C60,65.4,63,64.4,61.9,59.2s-14.1-9-19.2-6.4c11.8-7.9,3.2-19-12.4-10.3"/>
	<path id="XMLID_13_" fill="#E0B975" stroke="#B27E29" stroke-linecap="round" stroke-linejoin="round" stroke-miterlimit="10" d="
		M-5.9,23.1c-1.3,15.2-21.2,37.6-31.2,49.2c16.3-12.6,32.9-8.8,37-30.8"/>
	<g id="XMLID_11_">
		<path id="XMLID_12_" d="M32.8,11.2c1.1-3.1,0.8-6-0.5-6.5c-1.4-0.5-3.4,1.6-4.5,4.7s-0.8,6,0.5,6.5C29.7,16.4,31.7,14.3,32.8,11.2
			z"/>
	</g>
	<g id="XMLID_9_">
		<path id="XMLID_10_" d="M65.3,28.2c0.3-2.9-0.5-5.3-1.8-5.4s-2.5,2.1-2.8,4.9s0.5,5.3,1.8,5.4C63.7,33.3,65,31.1,65.3,28.2z"/>
	</g>
	<g id="XMLID_7_">
		<path id="XMLID_8_" fill="none" stroke="#000000" stroke-linecap="round" stroke-linejoin="round" stroke-miterlimit="10" d="
			M22.3,18.4c0.9,5,4.6,7.3,6.8,7.2"/>
	</g>
	<g id="XMLID_4_">
		<g id="XMLID_5_">
			<path id="XMLID_6_" d="M56.3,37.1C56.2,37.1,56.2,37.1,56.3,37.1c-0.3,0.1-0.4,0.3-0.3,0.5c1.5,3.8,5,5.1,7,4.6
				c0.2-0.1,0.4-0.3,0.3-0.5c-0.1-0.2-0.3-0.3-0.5-0.3c-1.6,0.4-4.7-0.8-6-4.1C56.6,37.2,56.4,37.1,56.3,37.1z"/>
		</g>
	</g>
	<path id="XMLID_3_" fill="#E27964" stroke="#B75334" stroke-linecap="round" stroke-linejoin="round" stroke-miterlimit="10" d="
		M50.9,7.5c4-0.7,8.1,0,8.1,0c2.4,1.8,3.7,6.6,2.4,7.9"/>
	<path id="XMLID_2_" fill="none" stroke="#000000" stroke-linecap="round" stroke-linejoin="round" stroke-miterlimit="10" d="
		M50.9-2.2c2.4-1.7,9.2-0.9,9.5,4.8c5.3-2.2,9,2.8,7.9,6.4"/>
	<path id="XMLID_1_" fill="none" stroke="#000000" stroke-linecap="round" stroke-linejoin="round" stroke-miterlimit="10" d="
		M59,7.5c1.3-2,1.5-5,1.5-5"/>
</symbol>
<rect fill="#CBE7F7" width="648" height="432"/>
<use xlink:href="#bunny"  width="268.6" height="287.4" id="XMLID_61_" x="-134.3" y="-143.7" transform="matrix(1.4075 0 0 -1.4075 324.8188 216.8184)" overflow="visible"/>
</svg>
