<?xml version="1.0" encoding="utf-8"?>
<!-- Generator: Adobe Illustrator 19.0.0, SVG Export Plug-In . SVG Version: 6.00 Build 0)  -->
<!DOCTYPE svg PUBLIC "-//W3C//DTD SVG 1.0//EN" "http://www.w3.org/TR/2001/REC-SVG-20010904/DTD/svg10.dtd">
<svg version="1.0" xmlns="http://www.w3.org/2000/svg" xmlns:xlink="http://www.w3.org/1999/xlink" x="0px" y="0px"
	 viewBox="0 0 648 432" enable-background="new 0 0 648 432" xml:space="preserve">
<symbol  id="girlleg_2" viewBox="-69.3 -19.2 138.6 38.4">
	<path id="XMLID_123_" fill="#D8AE8B" stroke="#933F22" stroke-linecap="round" stroke-linejoin="round" stroke-miterlimit="10" d="
		M48.2,18.7C62.2,10.2,70.7,2,68.5-9.6c-2.2-11.6-59.2-4-85.6,7.3c-18.5-10.7-43.6-20-48.5-11.1c-4.9,8.9,24,26.9,40.5,28.7
		C-8.7,16,23.5,9.6,23.5,9.6L48.2,18.7z"/>
	<path id="XMLID_122_" fill="#E5F5F9" stroke="#8CA8AF" stroke-linecap="round" stroke-linejoin="round" stroke-miterlimit="10" d="
		M1.7,13.1c-4.7-5.3-5.1-18-4.2-21.8c-14.2,3.1-15.1,5.6-15.1,5.6c-22.2-15.6-42.3-19.6-50.5-11.6c-5.6,10,24,29.8,40.9,31.6
		C-10.7,18,1.7,13.1,1.7,13.1z"/>
	<path id="XMLID_121_" fill="#E5F5F9" stroke="#8CA8AF" stroke-linecap="round" stroke-linejoin="round" stroke-miterlimit="10" d="
		M-26.3,2.5c5.1-3.6,8.7-5.6,8.7-5.6"/>
	<path id="XMLID_55_" fill="#D8AE8B" stroke="#933F22" stroke-linecap="round" stroke-linejoin="round" stroke-miterlimit="10" d="
		M33.5,2.9c3.8-3.3,12.2-10,12.2-10"/>
</symbol>
<symbol  id="sweat1" viewBox="-4.7 -3.9 9.5 7.9">
	<path id="XMLID_21_" fill="#8AFCFF" stroke="#4A6984" stroke-linecap="round" stroke-linejoin="round" stroke-miterlimit="10" d="
		M-4.2-3.4C-1.1,1.9,2.4,5.2,4,2.4C5.2,0.2,0.9-0.8-4.2-3.4z"/>
</symbol>
<symbol  id="window1" viewBox="-19.6 -19 39.2 34.3">
	<polygon id="XMLID_218_" fill="#A176B7" stroke="#50305E" stroke-miterlimit="10" points="-19.1,-14.8 19.1,-14.8 19.1,14.8 
		-19.1,14.8 	"/>
	<polygon id="XMLID_217_" fill="#A2D3DB" stroke="#CBE8EF" stroke-miterlimit="10" points="-9.1,-14.8 9.1,-14.8 9.1,14.8 
		-9.1,14.8 	"/>
	<polygon id="XMLID_216_" fill="#ADA67B" stroke="#ADA67B" stroke-miterlimit="10" points="-8.4,-18.5 8.4,-18.5 8.4,-12.6 
		-8.4,-12.6 	"/>
	<polygon id="XMLID_215_" fill="#F2EEDD" stroke="#ADA67B" stroke-miterlimit="10" points="-10.7,-16.5 10.7,-16.5 10.7,-10.6 
		-10.7,-10.6 	"/>
</symbol>
<g id="Layer_2">
	<rect id="XMLID_1_" x="0" fill="#CEDFEA" width="648" height="432"/>
</g>
<g id="Layer_1">
	
		<polygon id="XMLID_344_" fill="#DBBCA7" stroke="#9B7861" stroke-linecap="round" stroke-linejoin="round" stroke-miterlimit="10" points="
		566.4,432 125.7,328.3 252.2,294.4 648,371 648,432 	"/>
	<g id="maneat">
		
			<path id="XMLID_382_" fill="#DD9B6B" stroke="#5B2A12" stroke-width="1.3272" stroke-linecap="round" stroke-linejoin="round" stroke-miterlimit="10" d="
			M234.6,233.5c-8.2,39.8,3.8,74.2,43.2,77.5c33.1,3,37.7-50.5,37.7-50.5c-0.7-0.2-17-23.8-17-23.8c-11.8,45.6-17.6,49-27.4,47.8
			c-9.4-1.1-14.6-47.8-14.6-47.8C254.9,231.9,234.6,233.5,234.6,233.5z"/>
		
			<path id="XMLID_379_" fill="#A3B3CE" stroke="#4F5A72" stroke-width="1.3272" stroke-linecap="round" stroke-linejoin="round" stroke-miterlimit="10" d="
			M362.6,181.7c-21.5-4.6-22-29.2-37.9,10.2s-8.7,95.7-2.6,103.4c6.1,7.7,17.9,34.3,50.1,21.5C404.6,304,362.6,181.7,362.6,181.7z"
			/>
		
			<path id="XMLID_378_" fill="#E57D1F" stroke="#772800" stroke-width="1.3272" stroke-linecap="round" stroke-linejoin="round" stroke-miterlimit="10" d="
			M352.1,164.6c-38.1,4.1-39.1,12.9-48.3,28.6s-14.3,118.6-14.3,118.6c11.9,12.6,29.9,18.4,47.6,8.5c5.8-23.1-14.6-33.3-14.6-33.3
			s-9.5-77.5,16.7-103C360.6,169.7,352.1,164.6,352.1,164.6z"/>
		
			<path id="XMLID_377_" fill="#DD9B6B" stroke="#5B2A12" stroke-width="1.3272" stroke-linecap="round" stroke-linejoin="round" stroke-miterlimit="10" d="
			M322.7,164.3c7.5,17,13.3,25.2,13.3,25.2c13,7.5,24.2,1.6,23.5,0.7c-0.7-0.9,17-19.3,17-19.3c-14.7-20.5-17.5-34.5-18.6-34.5
			S322.7,164.3,322.7,164.3z"/>
		
			<path id="XMLID_376_" fill="#A05328" stroke="#663210" stroke-width="1.3272" stroke-linecap="round" stroke-linejoin="round" stroke-miterlimit="10" d="
			M223,245.3c-0.2,0.9,2.6,12,2.6,12c33.3,13.4,50.3,13.8,58.2,13.6c7.7,0.4,19.5-20.6,20.8-23.6s20.4-32.4,21.9-34.2
			c2-3.9-3.7-15.3-7.2-17.1c-3.5-1.8-16.6,18.6-17.7,19C300.5,215.5,223,245.3,223,245.3z"/>
		
			<path id="XMLID_375_" fill="#99D37F" stroke="#4B7C37" stroke-width="1.3272" stroke-linecap="round" stroke-linejoin="round" stroke-miterlimit="10" d="
			M228.7,236.2c-7.9-0.4-11.3,7.2-9.8,10.4c1.5,3.3-5.7,7.9,1.5,9c7.2,1.1,15.3-3.9,17.3,1.8c2,5.7,7,4.6,14.2,5.3
			c7.2,0.7,3.7,11.2,11.8,9.2c8.1-2,7.4-10.3,13.1-6.6c5.7,3.7,7.2,5,10.5,4.4c3.3-0.7,5-0.7,7-3.9c2-3.3,3.3-5.5,3.3-5.5l12.9-26.9
			L228.7,236.2z"/>
		
			<path id="XMLID_374_" fill="#A05328" stroke="#663210" stroke-width="1.3272" stroke-linecap="round" stroke-linejoin="round" stroke-miterlimit="10" d="
			M224.4,236.3c-0.2,0.9,2.6,12,2.6,12c33.3,13.4,50.3,13.8,58.2,13.6c7.7,0.4,19.5-20.6,20.8-23.6c1.3-3.1,20.4-32.4,21.9-34.2
			c2-3.9-3.7-15.3-7.2-17.1c-3.5-1.8-16.6,18.6-17.7,19C301.9,206.5,224.4,236.3,224.4,236.3z"/>
		
			<path id="XMLID_373_" fill="#DD9B6B" stroke="#5B2A12" stroke-width="1.3272" stroke-linecap="round" stroke-linejoin="round" stroke-miterlimit="10" d="
			M286.2,71.3c-9.8,16-6.8,32.1-7.4,42.2s-13.1,40.1,21.4,55.8s65.3-13.4,68.3-38.6s3.6-63-2.1-68.3S287.4,71.3,286.2,71.3z"/>
		
			<path id="XMLID_372_" fill="#DD9B6B" stroke="#5B2A12" stroke-width="1.3272" stroke-linecap="round" stroke-linejoin="round" stroke-miterlimit="10" d="
			M309,104.6c-5.6,7.4-6.5,18.1,1.8,24.1"/>
		
			<path id="XMLID_371_" fill="#2A3033" stroke="#4D6777" stroke-width="1.3272" stroke-linecap="round" stroke-linejoin="round" stroke-miterlimit="10" d="
			M336.1,95.1c-1.5-3.3-9.9-7.9-16.8-4.9C316.2,92.2,317,93.6,336.1,95.1z"/>
		
			<path id="XMLID_370_" fill="#2A3033" stroke="#4D6777" stroke-width="1.3272" stroke-linecap="round" stroke-linejoin="round" stroke-miterlimit="10" d="
			M285.3,97.1c2.1-4.2,8-6.8,14-4.5C302.5,95.2,296.6,96.4,285.3,97.1z"/>
		
			<ellipse id="XMLID_369_" fill="#231F20" stroke="#231F20" stroke-width="1.3272" stroke-linecap="round" stroke-linejoin="round" stroke-miterlimit="10" cx="327.1" cy="109.5" rx="2.3" ry="6.9"/>
		
			<ellipse id="XMLID_368_" fill="#231F20" stroke="#231F20" stroke-width="1.3272" stroke-linecap="round" stroke-linejoin="round" stroke-miterlimit="10" cx="292.3" cy="112.6" rx="2.3" ry="6.9"/>
		
			<path id="XMLID_367_" fill="#DD9B6B" stroke="#5B2A12" stroke-width="1.3272" stroke-linecap="round" stroke-linejoin="round" stroke-miterlimit="10" d="
			M331,126.4c-9.2,5-14.4,15.4-3,30.3"/>
		
			<path id="XMLID_366_" fill="#DD9B6B" stroke="#5B2A12" stroke-width="1.3272" stroke-linecap="round" stroke-linejoin="round" stroke-miterlimit="10" d="
			M297.6,134.7c3.7,2.5,5.9,8.8,4.5,14.8"/>
		
			<path id="XMLID_365_" fill="none" stroke="#231F20" stroke-width="1.3272" stroke-linecap="round" stroke-linejoin="round" stroke-miterlimit="10" d="
			M301.5,140.9c3.6,2.8,19.7-0.1,19.9-0.7"/>
		
			<path id="XMLID_364_" fill="#2A3033" stroke="#4D6777" stroke-width="1.3272" stroke-linecap="round" stroke-linejoin="round" stroke-miterlimit="10" d="
			M369.9,105.6c-9.5-0.3-9.2,7.7-10.4,11c0,0-4.9,0.9-8.5,0.7c0,0,4.3-17.1,4.9-34.2c6.2-4.3,30.9-2.7,30.9-2.7
			c10.2,32.4,2.5,37.9,2.5,38.6c-10.4,24.4-26.3,29.1-26.3,29.1C363.1,143,369.9,105.6,369.9,105.6z"/>
		
			<path id="XMLID_363_" fill="#DD9B6B" stroke="#5B2A12" stroke-width="1.3272" stroke-linecap="round" stroke-linejoin="round" stroke-miterlimit="10" d="
			M366.3,109.5c5.2-10.1,16.2-11,17.4,1.5s-5.3,22.9-20.9,18"/>
		
			<path id="XMLID_362_" fill="#EFD9A5" stroke="#AA8337" stroke-width="1.3272" stroke-linecap="round" stroke-linejoin="round" stroke-miterlimit="10" d="
			M244.5,182.9c-0.4-12.9,5.9-25.8,23.2-15.5c-7.7,2.6-4.6,13.4,3.1,12.3c-9.2,14.9,15.1,15.8,16.2,5.9c5.5,9,14.2,1.3,10.1-5.7
			c20.1,3.9,23.6,5,24.1,9.9c0.4,4.8,0.7,13.6-5.9,19.9s-27.8,44.2-30.9,44.4c-14.9-4.4-52.5-11.2-56.3-13.6s-7.9-3.1,3.3-18
			S244.5,182.9,244.5,182.9z"/>
		<path id="XMLID_346_" fill="none" d="M364.6,432h85.7l-87.9-20.8C362.8,417,363.5,424,364.6,432z"/>
		
			<path id="XMLID_384_" fill="#C19170" stroke="#9B7861" stroke-linecap="round" stroke-linejoin="round" stroke-miterlimit="10" d="
			M245.2,355.6l-118.6-28.2l2.3,28.4l113.9,27C242.7,371.2,243.7,362.1,245.2,355.6z"/>
		
			<path id="XMLID_385_" fill="#C19170" stroke="#9B7861" stroke-linecap="round" stroke-linejoin="round" stroke-miterlimit="10" d="
			M362.4,411.2l87.9,20.8h116.5L381,387.9c-6.1,0.3-12.5,0.5-19.3,0.8C361.6,388.7,361.3,396.6,362.4,411.2z"/>
		
			<path id="XMLID_345_" fill="#4D73A0" stroke="#2B3E59" stroke-width="1.3272" stroke-linecap="round" stroke-linejoin="round" stroke-miterlimit="10" d="
			M298.8,365.9c8.9-24,44-34.7,87.4-35.9l-25.5-28.4c-51.3,14-107,34.9-112.7,44.2c-1.2,2-2.4,5.3-3.4,9.8
			c-1.4,6.5-2.5,15.6-2.4,27.2c0,13.1,1.4,29.5,4.9,49.2h53.8c-2.2-12.6-3.8-25.2-4.4-36.3c-0.6-11-0.2-20.6,1.7-27.4
			C298.3,367.5,298.6,366.7,298.8,365.9z"/>
		
			<path id="XMLID_343_" fill="#4D73A0" stroke="#2B3E59" stroke-width="1.3272" stroke-linecap="round" stroke-linejoin="round" stroke-miterlimit="10" d="
			M453,290.6c-57.6-1.4-100.7,0.9-100.7,0.9l9,10.1l25.5,28.4c-43.3,1.2-78.5,11.9-87.4,35.9c-0.3,0.8-0.5,1.6-0.8,2.4
			c-1.9,6.8-2.3,16.4-1.7,27.4c0.6,11.1,2.3,23.7,4.4,36.3h15h48.2c-1.1-8-1.8-15-2.2-20.8c-1.1-14.6-0.8-22.5-0.8-22.5
			c6.8-0.3,13.3-0.6,19.3-0.8c55.2-2.5,79.6-5,87.8-28.7C477.9,332.8,454.1,291.6,453,290.6z"/>
		
			<path id="XMLID_359_" fill="#EFCA16" stroke="#FFEE50" stroke-width="1.3272" stroke-linecap="round" stroke-linejoin="round" stroke-miterlimit="10" d="
			M291.1,282.9c4.8,3.6,38.7,8.5,38.7,8.5l-1.2,21c-32.6-4.4-39.5-11.7-39.5-11.7L291.1,282.9z"/>
		
			<path id="XMLID_358_" fill="#E57D1F" stroke="#772800" stroke-width="1.3272" stroke-linecap="round" stroke-linejoin="round" stroke-miterlimit="10" d="
			M384.9,171.6c-28.4-3.7-47.1,25.4-53.1,64.8s3.6,92.1,3.6,92.1c42.9,15.1,104.5,3.9,124.3-39.4C445.7,227,438.3,183.9,384.9,171.6
			z"/>
		
			<path id="XMLID_357_" fill="#EFCA16" stroke="#FFEE50" stroke-width="1.3272" stroke-linecap="round" stroke-linejoin="round" stroke-miterlimit="10" d="
			M451.5,254.3c-7.3,14.1-80.2,42.3-104.3,39.9c-1.6,19.3,1.2,21,1.2,21c37.1,2.4,108-38.7,108-38.7
			C455.9,262.7,451.5,254.3,451.5,254.3z"/>
		
			<path id="XMLID_356_" fill="#FFC817" stroke="#C67A00" stroke-width="1.3272" stroke-linecap="round" stroke-linejoin="round" stroke-miterlimit="10" d="
			M304.1,32c-10.7-4.4-21.7-2.6-20.7,16.1C299.9,47.6,304.5,32,304.1,32z"/>
		
			<path id="XMLID_355_" fill="#DD9B6B" stroke="#5B2A12" stroke-width="1.3272" stroke-linecap="round" stroke-linejoin="round" stroke-miterlimit="10" d="
			M360.2,251c5.8-1.9,31,12.6,31,12.6c-7.7,31.2-22.1,57.3-50.1,55c-28-2.3-43.6-58.7-43.3-63.8c0.2-6.5,17-17.5,17-17.5
			c4.9,6.8,8.6,47.8,29.4,46.8C353.9,282.7,360.2,251,360.2,251z"/>
		
			<path id="XMLID_354_" fill="#DD9B6B" stroke="#5B2A12" stroke-width="1.3272" stroke-linecap="round" stroke-linejoin="round" stroke-miterlimit="10" d="
			M304.1,257.3c-11.2,1.2-10.5-12.3-13.3-20c-2.8-7.7-28.9-15.6-17.2-32.9c11.7-17.2,42.6-2.3,45.9,4c3.3,6.3-3.3,39.8-4,40.5"/>
		
			<path id="XMLID_353_" fill="#DD9B6B" stroke="#5B2A12" stroke-width="1.3272" stroke-linecap="round" stroke-linejoin="round" stroke-miterlimit="10" d="
			M234.4,184.2c-9.6,3.6-14,29.8-10.7,36.8c3.3,7,15.6,9.6,27-11S248.9,178.8,234.4,184.2z"/>
		
			<path id="XMLID_352_" fill="#EFCA16" stroke="#FFEE50" stroke-width="1.3272" stroke-linecap="round" stroke-linejoin="round" stroke-miterlimit="10" d="
			M435.8,207.9c-13.3,17.7-96.7,29-101.9,21.8c-4.4,14.9-3.2,22.6-3.2,22.6c47.5,6.8,110.8-21,112.4-24.6
			C437.8,209.2,435.8,207.9,435.8,207.9z"/>
		
			<path id="XMLID_351_" fill="#A3B3CE" stroke="#4F5A72" stroke-width="1.3272" stroke-linecap="round" stroke-linejoin="round" stroke-miterlimit="10" d="
			M388.4,193.2c-15.1,2.1-19.1,10.3-28.2,33.1c-9.1,22.8-10.3,26.1-10.3,26.1c27.3,25.6,54.1,16.5,54.1,15.1
			C412.7,236.6,418.7,200.9,388.4,193.2z"/>
		
			<path id="XMLID_350_" fill="#FFC817" stroke="#C67A00" stroke-width="1.3272" stroke-linecap="round" stroke-linejoin="round" stroke-miterlimit="10" d="
			M391.7,91.4c6.5-34.3-19.1-71.1-53.6-69.4c-34.5,1.6-61.3,17-63.6,49.4c-17.9,9.1-26.1,21.9-10.3,19.1
			C280.1,87.7,341.1,77.7,391.7,91.4z"/>
		
			<path id="XMLID_349_" fill="#FFC817" stroke="#C67A00" stroke-width="1.3272" stroke-linecap="round" stroke-linejoin="round" stroke-miterlimit="10" d="
			M353.9,56.5c7.7-10.3,30.8-22.4,36.8-8.9S380.3,68.8,353.9,56.5z"/>
		
			<path id="XMLID_348_" fill="#FFC817" stroke="#C67A00" stroke-width="1.3272" stroke-linecap="round" stroke-linejoin="round" stroke-miterlimit="10" d="
			M314.1,39.7c6.3-7,38.7-16.3,45.9-13.3c3-11.9-5.6-14.4-6.3-14.9c-12.1-1.6-12.8-1.6-12.8-1.6S313.9,12,314.1,39.7z"/>
		
			<path id="XMLID_347_" fill="#FFC817" stroke="#C67A00" stroke-width="1.3272" stroke-linecap="round" stroke-linejoin="round" stroke-miterlimit="10" d="
			M277.8,70.9c14.7-7.2,51.7-9.3,81.8,5.8"/>
	</g>
</g>
</svg>
