<?xml version="1.0" encoding="utf-8"?>
<!-- Generator: Adobe Illustrator 19.0.0, SVG Export Plug-In . SVG Version: 6.00 Build 0)  -->
<!DOCTYPE svg PUBLIC "-//W3C//DTD SVG 1.0//EN" "http://www.w3.org/TR/2001/REC-SVG-20010904/DTD/svg10.dtd">
<svg version="1.0" xmlns="http://www.w3.org/2000/svg" xmlns:xlink="http://www.w3.org/1999/xlink" x="0px" y="0px"
	 viewBox="0 0 648 432" enable-background="new 0 0 648 432" xml:space="preserve">
<symbol  id="cat4" viewBox="-159.4 -127.1 318.9 254.2">
	<path id="XMLID_52_" fill="#ED9140" stroke="#AD4917" stroke-linecap="round" stroke-linejoin="round" stroke-miterlimit="10" d="
		M87.5,106.4C68.1,123.1,64,125.3,64,125.3c5.6-18,13.8-26.1,13.8-26.1"/>
	<g id="XMLID_1_">
		<g id="XMLID_47_">
			<g id="whoosh_1_">
				<linearGradient id="XMLID_55_" gradientUnits="userSpaceOnUse" x1="-3.468" y1="64.7527" x2="-144.7989" y2="-98.9529">
					<stop  offset="0" style="stop-color:#CCE3FF;stop-opacity:0"/>
					<stop  offset="2.376697e-02" style="stop-color:#CFE9FF;stop-opacity:4.276573e-02"/>
					<stop  offset="9.922427e-02" style="stop-color:#D5F4FF;stop-opacity:0.1785"/>
					<stop  offset="0.2053" style="stop-color:#D9FBFF;stop-opacity:0.3694"/>
					<stop  offset="0.5002" style="stop-color:#DAFDFF;stop-opacity:0.9"/>
					<stop  offset="0.7761" style="stop-color:#D9FBFF;stop-opacity:0.4031"/>
					<stop  offset="0.8924" style="stop-color:#D5F4FF;stop-opacity:0.1937"/>
					<stop  offset="0.9785" style="stop-color:#CEE7FF;stop-opacity:3.871959e-02"/>
					<stop  offset="1" style="stop-color:#CCE3FF;stop-opacity:0"/>
				</linearGradient>
				<path id="XMLID_51_" fill="url(#XMLID_55_)" d="M31,28.8c-18.1-5.7-121.6-43-146.5-130.7c-25.3-27.6-43.4-32.9-43.8-14
					c-0.8,31.3,1.9,62.7,17.4,89.9s35.1,51.7,66.8,63.1C-43.7,48.4,23.1,79,31,28.8z"/>
				<path id="XMLID_50_" fill="none" stroke="#57749E" stroke-linecap="round" stroke-linejoin="round" stroke-miterlimit="10" d="
					M-115.4-101.6c3.5,21.2,39.3,92.5,140,128"/>
				<path id="XMLID_49_" fill="none" stroke="#57749E" stroke-linecap="round" stroke-linejoin="round" stroke-miterlimit="10" d="
					M-96.5-11c-15.8-13.9-46.3-73.6-48.6-105.6"/>
			</g>
			<path id="XMLID_48_" fill="none" stroke="#57749E" stroke-linecap="round" stroke-linejoin="round" stroke-miterlimit="10" d="
				M-119.3,6.2c-3.6-2.1-34.9-40.3-39-84.4"/>
		</g>
		<g id="catJump_1_">
			<g id="XMLID_2_">
				
					<path id="XMLID_46_" fill="#ED9140" stroke="#AD4917" stroke-linecap="round" stroke-linejoin="round" stroke-miterlimit="10" d="
					M96.9,104.2c0.9,9.9,1.9,22.4,1.9,22.4c14.5-11.9,15-30.3,13.6-33.6"/>
				
					<path id="XMLID_45_" fill="#EF785B" stroke="#9B3C23" stroke-linecap="round" stroke-linejoin="round" stroke-miterlimit="10" d="
					M64.4,124.4c-4.6-7.5-8.1-21.6,0-33.7C75.5,92.1,82.8,101,82.8,101C77.5,108.6,64.4,124.4,64.4,124.4z"/>
				
					<path id="XMLID_44_" fill="#ED9140" stroke="#AD4917" stroke-linecap="round" stroke-linejoin="round" stroke-miterlimit="10" d="
					M-19.2,82.3C-53,82-88.5,68-113.7,52.9s-41.8-34.1-42.2-39c3.1,2.4,5.6,4.2,5.6,4.2c-5.8-9.4-5.2-16.3-2.1-21.2
					c5.8-0.3,14.7,7.3,14.7,7.3c-1.6-2.8-2.6-5.9-2.6-5.9c13.5,5.6,24.9,31.4,40.1,42.5c17,12.4,43.7,28.5,68.2,31
					C-16.1,79-19.2,82.3-19.2,82.3z"/>
				
					<path id="XMLID_43_" fill="#ED9140" stroke="#AD4917" stroke-linecap="round" stroke-linejoin="round" stroke-miterlimit="10" d="
					M-62.5,30.3c-3.7-9.2-8.7-13.5-14.7-16.3S-89,7.3-89,4.5s2.6-3.7,4.2-3.8c1.2-3.7,3.5-3.7,7.3-2.8c2.4-2.4,4.9-1.4,6.6-0.2
					s9.1,10.1,12.8,12.2s9.8,7.3,9.8,7.3c3.3-0.3,7.9,0.7,7.9,0.7c-4.4-2.1-6.5-3-6.5-3C-40.1,14-32.9,18-31,20
					c-2.4-3-3.8-4.4-3.8-4.4c6.3,1.9,12.6,10.1,12.6,10.1c-1.4-5.6,0-5.2,0-5.2C-15,34-1.7,37.9-1.4,47.8s-4.4,12.1-5.2,12.4
					S-51.3,58-62.5,30.3z"/>
				
					<path id="XMLID_42_" fill="#ED9140" stroke="#AD4917" stroke-linecap="round" stroke-linejoin="round" stroke-miterlimit="10" d="
					M60.7,86.3c-7.7,0-21.9,8-21.9,8c2.8-3.3,4.2-5.9,4.2-5.9C29,96.1,25.5,93,25.5,93c3.7-1,4.4-1.9,4.4-1.9
					c-18,1.9-41.5-3-50.6-7.5S-36.6,75.9-41,72.8c-4.9-4.2-3.1-27.3,10-29.7s15.4,0.2,20.6,1S3.5,45,14,39.6
					c10.5-4.4,15.6-2.1,15.6-2.1c-5.2-2.8-7.3-3.7-7.3-3.7c10.1-1.7,19.7,2,19.7,2c-5.6-5.1-7.3-5.9-6.3-6.1
					C49.3,30.6,69.6,39,70.2,40s12.6,24.1,12.6,24.1L60.7,86.3z"/>
				
					<path id="XMLID_41_" fill="#ED9140" stroke="#AD4917" stroke-linecap="round" stroke-linejoin="round" stroke-miterlimit="10" d="
					M113.2,68c5.9-4.9,16.4-11,22.4-14.5c5.9-3.5,17.5-11.6,19.9-13.6c2.1-1.8,5.3-5.1,2.1-7.6c2.4-5.1-3.5-5.8-3.5-5.8
					c-0.3-3.6-3.8-4.1-6.3-2.9c-2.4,1.2-6.3,5.9-8.7,7.2c-2.4,1.2-17,8.7-19.9,9.6c3-2.6,4.9-3.8,4.9-3.8
					c-6.6,0.3-12.9,7.5-12.9,7.5c2.4-4.5,2.6-5.8,2.6-5.8c-5.2,3.7-16.4,13.3-16.4,13.3L113.2,68z"/>
				
					<path id="XMLID_40_" fill="#ED9140" stroke="#AD4917" stroke-linecap="round" stroke-linejoin="round" stroke-miterlimit="10" d="
					M85.9,107.8c2.4,2.8,2.8,8,2.8,8.4c2.1-5.1,1.6-7.7,1.6-7.7c2.1,4.2,3,8.4,1.6,10.8c4.7-4.4,3-10.7,3-10.7
					c4.7,4.2,8.9,5.1,9.3,4.5c-3.8-2.8-5.9-5.9-5.9-5.9c6.3,1.9,10.1-1.7,11-3.5c-2.4,0.9-5.8-1.2-5.8-1.2
					c9.6-4.9,13.8-11.7,15-17.1s4.4-12.8,10.5-14.5c-2.8-2.4-5.4-2.6-5.4-2.6c3.7,0,4.5-0.7,4.5-0.7c-4.7-3.5-6.8-4.2-8.6-6.1
					S106.2,46.3,94,47.9C80.4,49.6,75.6,49.8,65.4,59c-8.2,7.5-15.1,14.3-16.7,14.7c2.3,0.5,6.7,0.3,6.7,0.3
					c-6.6,2.8-9.1,2.4-9.1,2.4c5.4,2.3,9.3,4.4,10,4.2c-5.9-0.9-7.9,0.5-7.9,0.5c9.3,5.4,10.5,5.9,13.5,10c3,4,12.4,11.2,14.3,11.9
					C78.2,103.8,85.9,107.8,85.9,107.8z"/>
				
					<path id="XMLID_39_" fill="#ED9140" stroke="#AD4917" stroke-linecap="round" stroke-linejoin="round" stroke-miterlimit="10" d="
					M51.1,66.6c5.4-1.2,30.4-14.9,36.9-20.3s16.1-10.7,24-13.8s14.3-7,9.4-10.5c1.9-3.1-1.2-5.6-3.5-5.9c1.6-3.7-2.3-4-4.7-3.5
					c-2.6,0.5-12.1,5.1-16.1,6.5s-15.7,6.8-20.3,7.3c-8,0.9-11.2,2.3-11.2,2.6c4-2.6,5.4-3.1,5.4-3.1c-5.8-0.7-11.2,4.5-11.2,4.5
					c3.7-4.7,3.8-5.4,3.8-5.4C56.9,26.5,52,33.7,52,33.7c-12.4,6.5-19.4,21.2-19.4,21.2"/>
				
					<path id="XMLID_38_" fill="#ED9140" stroke="#AD4917" stroke-linecap="round" stroke-linejoin="round" stroke-miterlimit="10" d="
					M-29.4,76c-16.3,0.5-24.1-12.4-37.4-33.2c-3.1-1.7-16.4-3.5-20.6-1.6c1.4-2.1,1.9-3,1.9-3c-4.4,0.9-8-0.5-8-0.5
					c3.5-0.3,3.7-1.7,3.7-1.7c-7.7-6.3-14.7-12.8-18-14.9c-4.4-3.3-4-7.2-0.3-8.6c-0.3-4.4,5.8-3.3,5.8-3.3c3-4.4,8.7,1.9,8.7,1.9
					c4.4,4.7,15,16.8,18.2,17c24.1-7.5,30.6-1.6,30.6-1.6c-3.5-3.3-4.4-4-4.9-4.2c6.3,0.2,13.1,5.8,14.5,7c-4-4.7-4.7-5.4-4.7-5.4
					c8.2,1,21.2,17.3,20.5,25.5"/>
				<path id="XMLID_37_" fill="none" stroke="#AD4917" stroke-linecap="round" stroke-linejoin="round" stroke-miterlimit="10" d="
					M111.6,19.8c4.4,0,6.3-3.8,6.3-3.8"/>
				<path id="XMLID_36_" fill="none" stroke="#AD4917" stroke-linecap="round" stroke-linejoin="round" stroke-miterlimit="10" d="
					M114.6,24.7c4.5,0.6,6.8-2.8,6.8-2.8"/>
				<path id="XMLID_35_" fill="none" stroke="#AD4917" stroke-linecap="round" stroke-linejoin="round" stroke-miterlimit="10" d="
					M147.8,32.2c1.6,0.2,4.9-2.1,6.2-5.8"/>
				<path id="XMLID_34_" fill="none" stroke="#AD4917" stroke-linecap="round" stroke-linejoin="round" stroke-miterlimit="10" d="
					M150.5,37.1c2.8,0.1,5.2-1.6,7.1-4.9"/>
				<path id="XMLID_33_" fill="none" stroke="#AD4917" stroke-linecap="round" stroke-linejoin="round" stroke-miterlimit="10" d="
					M-103.2,16.3c-0.8-2.2-5.1-3.8-5.1-3.8"/>
				<path id="XMLID_32_" fill="none" stroke="#AD4917" stroke-linecap="round" stroke-linejoin="round" stroke-miterlimit="10" d="
					M-97.8,14c-1-2.7-4.7-4.8-4.7-4.8"/>
				<path id="XMLID_31_" fill="none" stroke="#AD4917" stroke-linecap="round" stroke-linejoin="round" stroke-miterlimit="10" d="
					M-78.5,6c-1.3-1.4-3.4-3.4-6.3-5.4"/>
				<path id="XMLID_30_" fill="none" stroke="#AD4917" stroke-linecap="round" stroke-linejoin="round" stroke-miterlimit="10" d="
					M-73.3,4.1C-73.9,1.4-78-2.5-78-2.5"/>
				<g id="XMLID_28_">
					<path id="XMLID_29_" d="M94.9,78.3c0-1.5-0.6-2.8-1.4-2.8s-1.4,1.3-1.4,2.8s0.6,2.8,1.4,2.8S94.9,79.9,94.9,78.3z"/>
				</g>
				<g id="XMLID_26_">
					<path id="XMLID_27_" d="M112.5,75.8c0-1.5-0.6-2.8-1.4-2.8s-1.4,1.3-1.4,2.8s0.6,2.8,1.4,2.8C111.8,78.6,112.5,77.3,112.5,75.8
						z"/>
				</g>
				<g id="XMLID_24_">
					<path id="XMLID_25_" fill="none" stroke="#AD4917" stroke-linecap="round" stroke-linejoin="round" stroke-miterlimit="10" d="
						M91,83.1c0.8,1.1,4.5,3.6,6.7-0.7"/>
				</g>
				<g id="XMLID_21_">
					<g id="XMLID_22_">
						<path id="XMLID_23_" fill="#AD4917" d="M114.6,79.5c-0.1,0-0.3,0.1-0.3,0.3c-0.5,1.3-1.2,2.1-2,2.1c-1,0.1-2.1-0.9-2.4-1.5
							c-0.1-0.2-0.4-0.3-0.5-0.1c-0.2,0.2-0.2,0.5-0.1,0.7c0.5,0.9,1.8,2,3.1,1.9c0.7-0.1,1.8-0.6,2.6-2.7c0.1-0.2,0-0.5-0.2-0.7
							C114.7,79.5,114.7,79.5,114.6,79.5z"/>
					</g>
				</g>
				<path id="XMLID_20_" fill="none" stroke="#AD4917" stroke-linecap="round" stroke-linejoin="round" stroke-miterlimit="10" d="
					M110.1,81.8"/>
				
					<path id="XMLID_19_" fill="#EF785B" stroke="#9B3C23" stroke-linecap="round" stroke-linejoin="round" stroke-miterlimit="10" d="
					M100.5,69.9c1.4,0.2,5.7,0.9,6.6-0.6c-0.7-2-3.1-3.3-3.1-3.3C101,67.6,100.5,69.9,100.5,69.9z"/>
				<path id="XMLID_18_" fill="none" stroke="#000000" stroke-linecap="round" stroke-linejoin="round" stroke-miterlimit="10" d="
					M97.2,63.7c1-1.6,4.5-3.2,6.3,0c2.1-3,4.8-2.4,5.7,0.5"/>
				<path id="XMLID_17_" fill="none" stroke="#000000" stroke-linecap="round" stroke-linejoin="round" stroke-miterlimit="10" d="
					M103.4,63.7c0.2,1.2,0.5,2.3,0.5,2.3"/>
				<path id="XMLID_16_" fill="none" stroke="#AD4917" stroke-linecap="round" stroke-linejoin="round" stroke-miterlimit="10" d="
					M105.7,59.9c0.1-1.4-2.6-3.5-4.1-2.6"/>
				<g id="XMLID_14_">
					<path id="XMLID_15_" fill="none" stroke="#000000" stroke-linecap="round" stroke-linejoin="round" stroke-miterlimit="10" d="
						M114.2,68.8c7,8.4,22.5,10.2,25.6,9"/>
				</g>
				<g id="XMLID_12_">
					<path id="XMLID_13_" fill="none" stroke="#000000" stroke-linecap="round" stroke-linejoin="round" stroke-miterlimit="10" d="
						M116,66.2c9.3,5.8,24.6,2.7,27.1,0.6"/>
				</g>
				<g id="XMLID_9_">
					<g id="XMLID_10_">
						<path id="XMLID_11_" d="M114.7,62.8c0,0.1,0,0.2,0,0.3c0.1,0.2,0.4,0.3,0.6,0.3c9.7-2,15.7-12.3,15.4-15.1
							c0-0.2-0.3-0.4-0.5-0.4c-0.3,0-0.5,0.1-0.4,0.4c0.4,2.6-5.4,12.5-14.8,14.4C114.8,62.7,114.7,62.7,114.7,62.8z"/>
					</g>
				</g>
				<g id="XMLID_7_">
					<path id="XMLID_8_" fill="none" stroke="#000000" stroke-linecap="round" stroke-linejoin="round" stroke-miterlimit="10" d="
						M63.7,75.2c10.4,3.4,24.5-3.2,26.5-5.8"/>
				</g>
				<g id="XMLID_5_">
					<path id="XMLID_6_" fill="none" stroke="#000000" stroke-linecap="round" stroke-linejoin="round" stroke-miterlimit="10" d="
						M63.9,59c7.6,7.9,23.2,8.6,26.2,7.2"/>
				</g>
				<g id="XMLID_3_">
					<path id="XMLID_4_" fill="none" stroke="#000000" stroke-linecap="round" stroke-linejoin="round" stroke-miterlimit="10" d="
						M71.9,46.3c3.7,10.3,17.7,17.3,21,17.2"/>
				</g>
			</g>
		</g>
	</g>
</symbol>
<g id="Layer_2">
	<rect fill="#DBDAE8" width="648" height="432"/>
</g>
<g id="Layer_1">
	
		<use xlink:href="#cat4"  width="318.9" height="254.2" id="XMLID_53_" x="-159.4" y="-127.1" transform="matrix(1.6841 0.1566 0.1566 -1.6841 325.8748 221.2961)" overflow="visible"/>
</g>
</svg>
