<?xml version="1.0" encoding="utf-8"?>
<!-- Generator: Adobe Illustrator 19.0.0, SVG Export Plug-In . SVG Version: 6.00 Build 0)  -->
<!DOCTYPE svg PUBLIC "-//W3C//DTD SVG 1.0//EN" "http://www.w3.org/TR/2001/REC-SVG-20010904/DTD/svg10.dtd">
<svg version="1.0" id="Layer_1" xmlns="http://www.w3.org/2000/svg" xmlns:xlink="http://www.w3.org/1999/xlink" x="0px" y="0px"
	 viewBox="0 0 648 432" enable-background="new 0 0 648 432" xml:space="preserve">
<symbol  id="duckswim" viewBox="-112.9 -81.9 225.9 163.9">
	<path id="XMLID_41_" fill="#9E663F" stroke="#60381D" stroke-linecap="round" stroke-linejoin="round" stroke-miterlimit="10" d="
		M-74.1,52.2c1.4,19.6,15.3,29.2,31.7,29.2c10,0.7,30.3-12.8,45.2-0.4C0.6,67.5-5.4,63.2-5.4,63.2c3.2,1.1,5.7,1.1,5.7,1.1
		c-10.7-46.6-16-42.7-18.2-44.9C-20-1.2-20-1.2-20-1.2C70.1-7.3,76.5,0.6,81.1,20.5c7.1-1.1,10-6.4,10-6.4
		c-9.3,11.4-13.2,10-13.2,10c14.6,1.8,15.3,1.4,24.2-10.3c-1.4,8.2-3.2,9.3-3.2,9.3c18.5-13.9,17.4-53.8,0.7-65.1
		c-0.7-13.2-6.5-18.1-24-27.4s-60.4-20-131.5-3.4c-20,14.4-14.3,40.4-14,43.2S-56.7,12.7-57,13.7C-59.9,24.8-74.8,52.2-74.1,52.2z"
		/>
	<path id="XMLID_40_" fill="#9E663F" stroke="#60381D" stroke-linecap="round" stroke-linejoin="round" stroke-miterlimit="10" d="
		M-21.9-13.4C-20.8-6.7-20-1.2-20-1.2"/>
	<path id="XMLID_39_" fill="#9E663F" stroke="#60381D" stroke-linecap="round" stroke-linejoin="round" stroke-miterlimit="10" d="
		M-25.4,16.5c3.5,0.6,7.6,2.9,7.6,2.9"/>
	<path id="XMLID_38_" fill="#9E663F" stroke="#60381D" stroke-linecap="round" stroke-linejoin="round" stroke-miterlimit="10" d="
		M-18.2,70.7c-3.2,4.8-8,7.1-8,7.1"/>
	<path id="XMLID_37_" fill="#D6A52B" stroke="#8E4D17" stroke-linecap="round" stroke-linejoin="round" stroke-miterlimit="10" d="
		M-67.7,53.2c-6.5,1.3-13.4-10.9-27.8-12.8c-14.7-1.9-16.7-4.8-16.9-8.4s5.8-8.2,16-10.9c5.2-16.7,55.5-8.5,61.2-2.4
		s9.3,12.1,0.9,12.8c-8.4,0.7-17.4-2.6-21.5,5.4S-65.5,52.9-67.7,53.2z"/>
	<path id="XMLID_36_" fill="#D6A52B" stroke="#8E4D17" stroke-linecap="round" stroke-linejoin="round" stroke-miterlimit="10" d="
		M-35.8,25c-7.6-4.6-31.4-11.1-60.7-3.9"/>
	<path id="XMLID_35_" fill="none" stroke="#231F20" stroke-linecap="round" stroke-linejoin="round" stroke-miterlimit="10" d="
		M-68.9,47.3c-4.8-2.2-8.5-7.2-7.4-7.8C-75,41.2-68.9,47.3-68.9,47.3z"/>
	<path id="XMLID_34_" fill="#231F20" stroke="#231F20" stroke-linecap="round" stroke-linejoin="round" stroke-miterlimit="10" d="
		M-45.6,46.2c-0.5-3.9,0.3-7.1,1.8-7.3s3.1,2.8,3.6,6.6c0.5,3.9-0.3,7.1-1.8,7.3S-45.1,50-45.6,46.2z"/>
	<path id="XMLID_33_" fill="#9E663F" stroke="#60381D" stroke-linecap="round" stroke-linejoin="round" stroke-miterlimit="10" d="
		M-20.1-3.2C-8.8,6.4,27,5.7,41.1,3.7s38-5.8,43.4-2c-3.4-19.7-6.2-21.8-6.2-21.8c-0.4-14.7-9.1-22.8-16.7-23.8
		C39.1-57.5-7.1-51-22.7-26.9"/>
	<path id="XMLID_32_" fill="#9E663F" stroke="#60381D" stroke-linecap="round" stroke-linejoin="round" stroke-miterlimit="10" d="
		M39.3-17.1c11.1-8.4,39-3,39-3"/>
	<path id="XMLID_31_" fill="#9E663F" stroke="#60381D" stroke-linecap="round" stroke-linejoin="round" stroke-miterlimit="10" d="
		M14.1-29.3c13.5-16.5,47.5-14.5,47.5-14.5"/>
	<path id="XMLID_30_" fill="#DAE1E5" stroke="#445C66" stroke-linecap="round" stroke-linejoin="round" stroke-miterlimit="10" d="
		M-59.2,6.7c4.6-4.5,30.2-6.3,40.5,0.4C-20-2.7-21.3-7.6-21.3-7.6c-16.9-7.8-34.3-3.5-41,2.4C-59.6,5.2-59.2,6.7-59.2,6.7z"/>
	<path id="XMLID_18_" fill="#9E663F" stroke="#60381D" stroke-linecap="round" stroke-linejoin="round" stroke-miterlimit="10" d="
		M-46.6,59.7c3.8,3.4,12,0.7,12.3-4.8"/>
</symbol>
<g id="Layer_2">
	<rect id="XMLID_1_" fill="#B7EAEA" width="648" height="432"/>
</g>
<path id="XMLID_80_" fill="none" stroke="#EEFFF8" stroke-width="3" stroke-linecap="round" stroke-linejoin="round" stroke-miterlimit="10" d="
	M146.5,334.2c-19.6,35,74.5,48.3,140.3,45"/>
<path id="XMLID_79_" fill="none" stroke="#EEFFF8" stroke-width="3" stroke-linecap="round" stroke-linejoin="round" stroke-miterlimit="10" d="
	M188.9,388.7c54.1,19.2,127,2.9,127,2.9"/>
<path id="XMLID_78_" fill="none" stroke="#EEFFF8" stroke-width="3" stroke-linecap="round" stroke-linejoin="round" stroke-miterlimit="10" d="
	M342.2,370c23.7-3.3,3.7,6.7,61.6,3.3s31.2-11.2,55.4-18.3s61.2,2.1,72-8.3s-17.5-23.3,7.5-27.1c25-3.7,35.4-9.6,35.4-9.6"/>
<path id="XMLID_63_" fill="none" stroke="#EEFFF8" stroke-width="3" stroke-linecap="round" stroke-linejoin="round" stroke-miterlimit="10" d="
	M390.1,386.2c22.5,0.4,51.2-4.2,57.5-12.5"/>
<path id="XMLID_62_" fill="none" stroke="#EEFFF8" stroke-width="3" stroke-linecap="round" stroke-linejoin="round" stroke-miterlimit="10" d="
	M507.1,277.1c14.2-1.7,40-1.2,20.4,9.2c-19.6,10.4,45,6.7,45,6.7"/>
<path id="XMLID_61_" fill="none" stroke="#EEFFF8" stroke-width="3" stroke-linecap="round" stroke-linejoin="round" stroke-miterlimit="10" d="
	M123.1,395.4c4.6,11.2,58.3,16.2,58.3,16.2"/>
<use xlink:href="#duckswim"  width="225.9" height="163.9" id="XMLID_47_" x="-112.9" y="-81.9" transform="matrix(2.016 0 0 -2.016 301.6365 185.5385)" overflow="visible"/>
</svg>
