<?xml version="1.0" encoding="utf-8"?>
<!-- Generator: Adobe Illustrator 19.0.0, SVG Export Plug-In . SVG Version: 6.00 Build 0)  -->
<!DOCTYPE svg PUBLIC "-//W3C//DTD SVG 1.0//EN" "http://www.w3.org/TR/2001/REC-SVG-20010904/DTD/svg10.dtd">
<svg version="1.0" id="Layer_1" xmlns="http://www.w3.org/2000/svg" xmlns:xlink="http://www.w3.org/1999/xlink" x="0px" y="0px"
	 viewBox="0 0 648 432" enable-background="new 0 0 648 432" xml:space="preserve">
<symbol  id="manrun" viewBox="-157 -193.4 314.1 386.8">
	<path id="XMLID_167_" fill="#E8F5F9" d="M82,66.9C80,81,32.3,90.6,32.7,75.8s17.5-25.5,18.8-26.4S83.7,53.9,82,66.9z"/>
	<path id="XMLID_166_" fill="#E5B893" stroke="#8C4A29" stroke-linecap="round" stroke-linejoin="round" stroke-miterlimit="10" d="
		M109.7,109.4c-3.5,1.3-7.2-2.6-4.1-5.7c3-3,8.9-3.9,11.3-3.7C119.2,100.2,118.6,106.1,109.7,109.4z"/>
	<path id="XMLID_165_" fill="#E5B893" stroke="#8C4A29" stroke-linecap="round" stroke-linejoin="round" stroke-miterlimit="10" d="
		M99.6,64.9c13.1-7.6,37-5.9,40.7,12c3.7,17.8-7.6,24.4-7.6,24.4c-5.7-3-28.5,2.2-27.6,12.8s9.1,15.5,23.9,9.8
		c14.8-5.7,17.4-13.3,20.7-20.5c3.3-7.2,16.8-30.6-6.5-55.7c-20.7-22.2-52.5,0.4-52.5,0.4C90.2,52.1,99.6,64.9,99.6,64.9z"/>
	<path id="XMLID_131_" fill="#E8F5F9" stroke="#7D989E" stroke-linecap="round" stroke-linejoin="round" stroke-miterlimit="10" d="
		M62.8,82.8c8.1-1.3,40.3-11.5,45.1-15.7c3-29.2-9.4-35.5-9.4-35.5c-11.8-1.1-42.4,18-42.4,18"/>
	<path id="XMLID_130_" fill="#E5B893" stroke="#8C4A29" stroke-linecap="round" stroke-linejoin="round" stroke-miterlimit="10" d="
		M41.4,84.1c3.9-14.4,13.3-20.7,20.5-20.2s9.6,10.4,7.2,13.5C66.7,80.4,41.4,84.1,41.4,84.1z"/>
	<path id="XMLID_127_" fill="#E5B893" stroke="#8C4A29" stroke-linecap="round" stroke-linejoin="round" stroke-miterlimit="10" d="
		M63.7,77.5c0,0,0.9,8.1,0.9,14.6c0,0-10.4,2-17.8,0.9c0,0-0.9-5-1.3-11.8"/>
	<path id="XMLID_126_" fill="#E5B893" stroke="#8C4A29" stroke-linecap="round" stroke-linejoin="round" stroke-miterlimit="10" d="
		M-42.4-32.1c-16-7.3-30.6-7-39.5-1.6s-20.6,19.2-25.7,20.3s-13.8-1.6-11.6-9.2c2.2-7.6,21.9-29,34.4-36.6s39.5-3,49.8,1.9
		C-25.1-51.8-42.4-32.1-42.4-32.1z"/>
	<path id="XMLID_125_" fill="#E5B893" stroke="#8C4A29" stroke-linecap="round" stroke-linejoin="round" stroke-miterlimit="10" d="
		M60.2-73c20.3-20.8,44.9-68.8,44.7-93.7c-4.3-15.2-13.3-12.5-13.3-12.5C79.7-139,45-92.7,41.8-89.2C42.9-76.5,59.4-73.2,60.2-73z"
		/>
	<path id="XMLID_124_" fill="#E5B893" stroke="#8C4A29" stroke-linecap="round" stroke-linejoin="round" stroke-miterlimit="10" d="
		M15.1,130c0-23.3,17.2-43.9,41.6-43.9s45.4,20.5,39,43.5c-6.2,22.5-14.6,40.9-39,40.9S15.1,153.3,15.1,130z"/>
	<path id="XMLID_123_" fill="#E5B893" stroke="#8C4A29" stroke-linecap="round" stroke-linejoin="round" stroke-miterlimit="10" d="
		M69.4,137c5-2,10-7.6,9.6-11.1c-0.4-3.5-4.1-4.8-4.1-4.8"/>
	<path id="XMLID_122_" fill="#CC6358" stroke="#723114" stroke-linecap="round" stroke-linejoin="round" stroke-miterlimit="10" d="
		M73.9,110c2.6,4.8,7.2,10.7,8.3,8.5c1.1-2.2-3.7-10.4-6.5-10.9C72.8,107.1,73.9,110,73.9,110z"/>
	<path id="XMLID_121_" fill="#E5B893" stroke="#8C4A29" stroke-linecap="round" stroke-linejoin="round" stroke-miterlimit="10" d="
		M69.8,118.5c7.6-1.1,8.3-10.7,3.7-16.5"/>
	<path id="XMLID_92_" fill="#E5B893" stroke="#8C4A29" stroke-linecap="round" stroke-linejoin="round" stroke-miterlimit="10" d="
		M5.6,87.3c-22.6,2.2-36.1-5.4-46.1-17.8s-14.5-26.6-5.4-48C-36.2-1.2-16.6,5.5-12,9c4.8,3.9,4.1,17.8-1.7,18.5
		c0,7.2-13.1,8.1-18.1,4.4c-6.5,18.9,13.1,34.6,39.6,34.8C4.9,84.3,5.6,87.3,5.6,87.3z"/>
	<path id="XMLID_90_" fill="#E5B893" stroke="#8C4A29" stroke-linecap="round" stroke-linejoin="round" stroke-miterlimit="10" d="
		M139.4,108c-1.5-3.9-6.7-6.7-6.7-6.7"/>
	<path id="XMLID_89_" fill="#495587" stroke="#232A4F" stroke-linecap="round" stroke-linejoin="round" stroke-miterlimit="10" d="
		M-4.9-11.3c-10.2-3.5-41.4-12.4-55.9-9.4c-1.5-32.2,22-47.9,22-47.9C-9.9-60.2,0.8-52.4,0.8-52.4C9.7-56.1,13-57,13-57
		c13.7-15,22-41.6,22-41.6c15.7,2.2,36.8,23.7,36.8,23.7c-8.9,16.8-22.6,40-22.6,40C45.9-31.5-4.9-11.3-4.9-11.3z"/>
	<path id="XMLID_88_" fill="#495587" stroke="#232A4F" stroke-linecap="round" stroke-linejoin="round" stroke-miterlimit="10" d="
		M23.7-57.8C20.2-58,13-57,13-57"/>
	<path id="XMLID_87_" fill="#31373A" stroke="#5E747C" stroke-miterlimit="10" d="M-104.4-13.1c-3.6,7.4-14.6,6.2-28.7-3
		S-161.3-37-155-46.4s30.3,6.2,35.7,10.6S-99-24.2-104.4-13.1z"/>
	<path id="XMLID_86_" fill="#E8F5F9" stroke="#7D989E" stroke-linecap="round" stroke-linejoin="round" stroke-miterlimit="10" d="
		M20,66.5c2.6-20.9,1.7-51.3-28.6-78.6C10.6-41.7,39.3-45,50.6-37.8C67-18.9,93.1,14.5,83.2,55.9"/>
	<path id="XMLID_85_" fill="#E8F5F9" stroke="#7D989E" stroke-linecap="round" stroke-linejoin="round" stroke-miterlimit="10" d="
		M76.5-147.4c3.5,5.1,13.8,11.9,23.6,12.5c6-16,7-31.1,7-31.1s-8.4-15.2-14.6-16.5C81.3-157.7,76.5-147.4,76.5-147.4z"/>
	<path id="XMLID_84_" fill="#E8F5F9" stroke="#7D989E" stroke-linecap="round" stroke-linejoin="round" stroke-miterlimit="10" d="
		M-120.4-24C-110.1-43.7-95.7-54-95.7-54c-1.1,10.3,6,21.7,11.9,23.8C-98.7-16.1-107.7-9.9-111.2-11S-123.9-14.5-120.4-24z"/>
	<path id="XMLID_83_" fill="#E5B893" stroke="#8C4A29" stroke-linecap="round" stroke-linejoin="round" stroke-miterlimit="10" d="
		M-13.8,27.5c-4.5,0-8-0.8-8-0.8"/>
	<path id="XMLID_82_" fill="#31373A" stroke="#5E747C" stroke-miterlimit="10" d="M88.9-176.4c1.9-6,1.9-16.5,5.4-16.5
		c3.5,0,15.2,1.1,32.8,19.8c12.7,13.5,15.5,35.1,7,37.9c-8.9,3-14.6-3.8-19.8-15.4S98.4-173.4,88.9-176.4z"/>
	<path id="XMLID_80_" fill="none" stroke="#231F20" stroke-linecap="round" stroke-linejoin="round" stroke-miterlimit="10" d="
		M-21.6,30.5"/>
	<path id="XMLID_79_" fill="#BA914F" stroke="#775923" stroke-linecap="round" stroke-linejoin="round" stroke-miterlimit="10" d="
		M75.7,165.8c6.8,9.2-1.5,23.4-9.8,24.2c-8.7,0.8-7.3-10.6-7.3-10.6c-8.7,21.7-25.5,11.9-25.2,7.3c-17.1,6-18.1-7.6-18.1-7.6
		c-16.5,3.5-16.2-7.3-8.9-9.5c-19.5-3-25.7-17.1-14.1-19.5c-18.1-8.4-3-17.1,3.2-15.4c-0.3-5.4,5.3-8.3,12.7,0.6
		C15.2,167.5,81,168.4,75.7,165.8z"/>
	<path id="XMLID_78_" fill="#526BBA" stroke="#3B4572" stroke-linecap="round" stroke-linejoin="round" stroke-miterlimit="10" d="
		M4.4,139.6c-1.1-4.1,5.3-15.6,7.4-16.9c14.1,11.9,27,22.2,36.3,26.3c12.3,5.5,31.2,8.6,36.6,7.7c-2.4,13.5-9.1,14.3-9.1,14.3
		c-3.2,1.4-25.2-1.9-41.7-10.3C17.4,152.3,4.4,139.8,4.4,139.6z"/>
	<path id="XMLID_77_" fill="#E8F5F9" stroke="#7D989E" stroke-linecap="round" stroke-linejoin="round" stroke-miterlimit="10" d="
		M46.3,65.1c7.2,8.3,3.7,22-12.2,23.5c-15.9,1.5-35,2.6-37,1.7c9.8-16.5,6.5-38.3,6.5-38.3c17.8-2.1,32.8,5.7,31.3,5"/>
	<path id="XMLID_75_" fill="#231F20" stroke="#231F20" stroke-linecap="round" stroke-linejoin="round" stroke-miterlimit="10" d="
		M57.9,134c1-3,1-5.7,0-6c-1.1-0.4-2.8,1.7-3.8,4.7c-1,3-1,5.7,0,6C55.2,139.1,56.9,137,57.9,134z"/>
	<path id="XMLID_74_" fill="#231F20" stroke="#231F20" stroke-linecap="round" stroke-linejoin="round" stroke-miterlimit="10" d="
		M80.7,140.5c1-3,1-5.7,0-6c-1.1-0.4-2.8,1.7-3.8,4.7c-1,3-1,5.7,0,6C77.9,145.6,79.6,143.5,80.7,140.5z"/>
	<path id="XMLID_73_" fill="#BA914F" stroke="#775923" stroke-linecap="round" stroke-linejoin="round" stroke-miterlimit="10" d="
		M57.1,146c-3.2,3.9-13.7,0.1-13.4-6.7C47.5,138.8,57.1,146,57.1,146z"/>
	<path id="XMLID_72_" fill="#BA914F" stroke="#775923" stroke-linecap="round" stroke-linejoin="round" stroke-miterlimit="10" d="
		M83.1,151c-2.4,3.5-10.7,4.8-11.4-0.5C75.6,149.9,83.1,151,83.1,151z"/>
	
		<use xlink:href="#sweat1"  width="9.5" height="7.9" id="XMLID_71_" x="-4.7" y="-3.9" transform="matrix(0.5985 -0.9746 -0.8522 -0.5233 33.8127 126.0388)" overflow="visible"/>
	
		<use xlink:href="#sweat1"  width="9.5" height="7.9" id="XMLID_70_" x="-4.7" y="-3.9" transform="matrix(0.5985 -0.9746 -0.8522 -0.5233 43.5595 111.4185)" overflow="visible"/>
	<path id="XMLID_69_" fill="#E5B893" stroke="#8C4A29" stroke-linecap="round" stroke-linejoin="round" stroke-miterlimit="10" d="
		M22.1,124.6c-8.9,3.7-16.3-2.4-12.4-12.8s17.8-5,18.1-4.4"/>
	
		<use xlink:href="#sweat1"  width="9.5" height="7.9" id="XMLID_68_" x="-4.7" y="-3.9" transform="matrix(-1.3612 -0.4302 -0.3762 1.1902 -51.1458 126.9092)" overflow="visible"/>
	
		<use xlink:href="#sweat1"  width="9.5" height="7.9" id="XMLID_67_" x="-4.7" y="-3.9" transform="matrix(-0.853 -1.1447 -1.0009 0.7459 -31.8818 112.0387)" overflow="visible"/>
</symbol>
<symbol  id="sweat1" viewBox="-4.7 -3.9 9.5 7.9">
	<path id="XMLID_128_" fill="#8AFCFF" stroke="#4A6984" stroke-linecap="round" stroke-linejoin="round" stroke-miterlimit="10" d="
		M-4.2-3.4C-1.1,1.9,2.4,5.2,4,2.4C5.2,0.2,0.9-0.8-4.2-3.4z"/>
</symbol>
<g id="Layer_2">
	<rect id="XMLID_1_" fill="#E5CEEA" width="648" height="432"/>
</g>
<use xlink:href="#manrun"  width="314.1" height="386.8" id="XMLID_6_" x="-157" y="-193.4" transform="matrix(1.0474 0 0 -1.0474 320.7838 219.0486)" overflow="visible"/>
</svg>
