<?xml version="1.0" encoding="utf-8"?>
<!-- Generator: Adobe Illustrator 19.1.0, SVG Export Plug-In . SVG Version: 6.00 Build 0)  -->
<svg version="1.1" id="Layer_4" xmlns="http://www.w3.org/2000/svg" xmlns:xlink="http://www.w3.org/1999/xlink" x="0px" y="0px"
	 width="100px" height="100px" viewBox="0 0 100 100" style="enable-background:new 0 0 100 100;" xml:space="preserve">
<style type="text/css">
	.st0{fill:#FCA2EB;}
	.st1{fill:#F76D8E;}
	.st2{fill:#FFFFFF;}
	.st3{fill:#B70404;stroke:#B70404;stroke-width:0.04;stroke-miterlimit:10;}
	.st4{fill:#EA4766;}
	.st5{fill:#EB5F44;stroke:#EB5F44;stroke-width:0.04;stroke-miterlimit:10;}
	.st6{fill:#F99DB8;stroke:#F99DB8;stroke-width:0.04;stroke-miterlimit:10;}
</style>
<path class="st0" d="M67.369,82.793H31.641c-10.685,0-19.427-8.742-19.427-19.427V36.21c0-10.685,8.742-19.427,19.427-19.427h35.728
	c10.685,0,19.427,8.742,19.427,19.427v27.156C86.796,74.05,78.054,82.793,67.369,82.793z"/>
<g>
	<path class="st1" d="M61.222,91.77c-0.372-1.438-1.015-2.716-1.64-3.901c-0.876-1.593-1.934-3.145-3.231-4.74
		c-1.308-1.588-2.577-2.961-3.879-4.197c-0.997-0.996-2.088-1.939-3.145-2.852c-0.375-0.324-0.749-0.646-1.115-0.969
		c-3.226-2.823-5.668-5.557-7.465-8.356c-1.129-1.797-1.92-3.433-2.42-5.005c-0.599-1.873-0.843-3.701-0.726-5.434
		c0.112-1.823,0.592-3.605,1.427-5.295c0.767-1.553,1.859-3.117,3.158-4.524c2.562-2.77,6.088-4.586,9.675-4.984
		c0.536-0.063,1.085-0.094,1.628-0.094c1.321,0,2.63,0.184,3.892,0.546l0.66,0.19c0.124,0.037,0.285,0.101,0.446,0.166l0.212,0.084
		c0.153,0.063,0.302,0.117,0.45,0.172c0.301,0.111,0.612,0.227,0.893,0.377c0.881,0.407,1.699,0.865,2.411,1.349
		c1.671,1.14,2.984,2.479,3.904,3.98c0.968,1.563,1.577,3.352,1.762,5.172c0.008,0.087,0.012,0.122,0.012,0.156l0.074,0.109
		c0.04,0.021,0.075,0.03,0.11,0.03l0.103-0.025c0.017-0.011,0.062-0.072,0.072-0.105l0.048-0.136l0.387-0.961
		c0.19-0.472,0.403-0.887,0.653-1.276c0.457-0.734,1.073-1.429,1.879-2.12c1.371-1.131,3.079-2.002,5.082-2.592
		c1.616-0.467,3.259-0.703,4.886-0.703c0.262,0,0.523,0.006,0.784,0.019c2.065,0.154,3.941,0.563,5.585,1.215
		c3.634,1.41,6.614,4.163,8.174,7.554c1.733,3.767,2.123,7.714,1.098,11.114c-0.506,1.732-1.387,3.435-2.617,5.055
		c-1.089,1.409-2.47,2.77-4.105,4.046c-2.767,2.127-6.095,3.945-10.179,5.561l-2.723,1.061c-0.841,0.318-1.746,0.692-2.694,1.114
		c-1.667,0.718-3.371,1.588-5.215,2.662c-1.768,1.056-3.364,2.207-4.744,3.419c-1.017,0.925-2.077,1.959-2.917,3.228l-0.445,0.675
		L61.222,91.77z M53.52,43.06c-6.987,0-13.527,6.017-14.282,13.139c-0.689,6.485,4.518,12.509,9.008,16.42
		c0.488,0.374,11.901,9.227,13.845,16.624c1.271-1.764,5.261-6.202,14.925-9.424c3.366-1.123,14.612-5.411,18.008-13.446
		c1.457-3.449,1.253-7.155-0.607-11.016c-2.239-4.634-6.849-7.645-12.03-7.856c-0.253-0.01-0.505-0.015-0.756-0.015
		c-4.151,0-7.568,1.386-9.62,3.903c-0.649,0.794-1.166,1.697-1.544,2.356c-0.188,0.327-0.344,0.599-0.47,0.78
		c-0.461,0.65-1.046,1.007-1.65,1.007c-0.834,0-1.568-0.654-1.918-1.708c-0.142-0.455-0.579-1.781-0.729-2.229
		c-1.315-3.849-4.8-6.964-9.092-8.127C55.604,43.197,54.564,43.06,53.52,43.06z"/>
	<path class="st1" d="M95.64,54.77c-1.56-3.39-4.5-6.02-7.98-7.37c-1.74-0.69-3.6-1.05-5.47-1.19c-1.85-0.09-3.75,0.15-5.55,0.67
		c-1.8,0.53-3.52,1.34-4.95,2.52c-0.7,0.6-1.33,1.27-1.81,2.04c-0.25,0.39-0.45,0.79-0.62,1.21c-0.08,0.21-0.16,0.4-0.25,0.63
		l-0.14,0.34l-0.03,0.08c-0.02,0.1-0.14,0.3-0.29,0.36c-0.16,0.07-0.34,0.07-0.51-0.02c-0.08-0.04-0.15-0.12-0.2-0.2
		c-0.02-0.03-0.04-0.09-0.06-0.15v-0.04l-0.01-0.04c0-0.04-0.01-0.08-0.01-0.12c-0.18-1.77-0.77-3.5-1.71-5.02
		c-0.95-1.55-2.29-2.84-3.8-3.87c-0.75-0.51-1.56-0.95-2.38-1.33c-0.39-0.21-0.86-0.35-1.3-0.53c-0.21-0.08-0.46-0.19-0.63-0.24
		l-0.66-0.19c-1.74-0.5-3.58-0.65-5.38-0.44c-3.61,0.4-6.99,2.21-9.45,4.87c-1.2,1.3-2.31,2.84-3.1,4.44
		c-0.8,1.62-1.28,3.37-1.39,5.16c-0.12,1.78,0.16,3.58,0.71,5.3c0.55,1.73,1.4,3.36,2.38,4.92c1.99,3.1,4.6,5.83,7.4,8.28
		c1.41,1.24,2.92,2.48,4.27,3.83c1.39,1.32,2.69,2.75,3.91,4.23c1.22,1.5,2.33,3.09,3.27,4.8c0.67,1.27,1.3,2.55,1.67,3.98
		c0.84-1.27,1.88-2.3,2.98-3.3c1.49-1.31,3.11-2.45,4.8-3.46c1.7-0.99,3.44-1.9,5.25-2.68c0.9-0.4,1.81-0.78,2.71-1.12l2.72-1.06
		c3.59-1.42,7.06-3.18,10.09-5.51c1.5-1.17,2.89-2.49,4.04-3.98c1.14-1.5,2.04-3.16,2.56-4.94C97.79,62.08,97.19,58.14,95.64,54.77z
		 M77.13,80.16c-12.06,4.02-15.21,10.01-15.21,10.01c-1.2-7.5-13.91-17.28-13.91-17.28c-4.73-4.12-9.83-10.15-9.13-16.73
		c0.88-8.3,9.56-15.27,17.82-13.04c4.5,1.22,8.03,4.53,9.34,8.36c0.15,0.45,0.59,1.78,0.73,2.23c0.51,1.54,1.91,2.05,2.93,0.61
		c0.38-0.55,1.05-1.96,2.03-3.16c2.39-2.93,6.3-4.19,10.67-4.02c5.38,0.22,10.07,3.36,12.34,8.06
		C101.16,68.52,86.9,76.9,77.13,80.16z"/>
	<path class="st1" d="M69.326,76.511c-0.46,0-1.647-0.143-3.848-0.464c-6.141-0.906-11.805-3.028-16.381-6.139
		c-5.369-3.63-8.258-7.796-8.586-12.383c-0.043-0.617-0.04-1.222,0.01-1.797c0.517-5.83,5.314-11.12,10.92-12.043
		c0.651-0.108,1.313-0.163,1.964-0.163c5.575,0,10.683,4.082,12.42,9.925l0.092,0.313c0.327,1.131,1.095,3.779,2.232,3.778
		c0.3,0,0.642-0.178,1.014-0.53c0.438-0.412,0.733-1.074,1.02-1.715c0.132-0.295,0.262-0.583,0.4-0.843
		c0.79-1.434,1.659-2.563,2.657-3.458c2.211-1.958,5.367-3.126,8.444-3.126c3.12,0,6.099,1.167,8.612,3.374
		c4.35,3.838,5.94,9.196,4.054,13.651c-0.214,0.517-0.468,1.015-0.754,1.479c-4.619,7.511-14.857,8.322-19.046,8.322l0,0
		c-0.817,0-1.644-0.027-2.455-0.082c-3.511-0.237-7.131-0.541-10.715-1.216c1.538,0.439,3.051,0.848,4.315,1.189
		c4.234,1.143,4.232,1.151,4.176,1.58C69.842,76.395,69.658,76.511,69.326,76.511z M82.161,50.563c-1.391,0-2.837,0.373-4.299,1.107
		c-3.152,1.588-3.918,3.639-3.615,4.912c0.242,1.021,1.134,1.68,2.271,1.68c0.9,0,1.878-0.399,2.829-1.155
		c3.656-2.904,5.245-3.87,7.446-3.87c0.484,0,0.993,0.049,1.499,0.121C87.311,52.33,85.183,50.563,82.161,50.563z M53.668,46.371
		c-1.565,0-3.168,0.48-4.764,1.429c-2.966,1.765-3.641,3.779-3.284,5.076c0.268,0.974,1.133,1.604,2.205,1.604
		c0.667,0,1.719-0.235,2.941-1.355c3.669-3.367,5.217-4.416,7.751-4.416c0.276,0,0.569,0.011,0.912,0.035
		C58.442,47.847,56.403,46.371,53.668,46.371z"/>
	<path class="st1" d="M90.06,51.51c-5.9-5.18-12.99-3.43-16.58-0.25c-1.07,0.96-1.89,2.11-2.58,3.36c-0.45,0.84-0.79,1.99-1.49,2.65
		c-2.38,2.25-3.46-2.14-3.93-3.72c-1.81-6.09-7.53-10.58-13.98-9.51c-5.4,0.89-10.12,6.08-10.62,11.72
		c-0.05,0.58-0.05,1.16-0.01,1.74c0.38,5.31,4.17,9.23,8.43,12.11c4.81,3.27,10.53,5.24,16.23,6.08
		c13.22,1.93-10.48-2.66-12.91-5.31c6.21,2.76,12.99,3.43,19.5,3.87c7.42,0.5,16.94-1.19,21.17-8.07c0.29-0.47,0.53-0.95,0.73-1.43
		C96.03,60,93.89,54.89,90.06,51.51z M51.01,53.39c-4.63,4.24-9.23-1.77-2.29-5.9c6.95-4.13,11.65,1.7,11.65,1.7
		C56.68,48.8,55.64,49.14,51.01,53.39z M79.57,57.39c-4.92,3.91-9.08-2.41-1.87-6.04c7.22-3.63,11.5,2.52,11.5,2.52
		C85.55,53.22,84.48,53.49,79.57,57.39z"/>
	<path class="st1" d="M31.706,51.697c-0.425-0.877-0.953-1.751-1.66-2.749c-0.95-1.332-2.111-2.629-3.449-3.853
		c-1.158-1-2.561-2.155-4.13-3.086c-1.324-0.832-2.783-1.59-4.602-2.39l-2.341-1.041c-0.488-0.219-0.951-0.456-1.415-0.694
		c-0.284-0.146-0.567-0.291-0.857-0.432c-1.342-0.753-2.884-1.66-4.284-2.75c-1.289-0.945-2.524-2.108-3.663-3.451
		c-1.092-1.286-1.941-2.739-2.523-4.318c-0.581-1.548-0.854-3.198-0.812-4.903c0.01-0.844,0.151-1.738,0.264-2.458l0.295-1.284
		l0.356-1.174c0.57-1.668,1.378-3.146,2.405-4.403c1.072-1.31,2.411-2.4,3.875-3.152c1.487-0.769,3.163-1.198,4.846-1.239
		l0.267-0.002c1.681,0,3.258,0.295,4.688,0.878c2.956,1.208,5.432,3.741,6.972,7.135l0.034,0.051l0.027,0.069
		c0.003-0.006,0.007-0.009,0.013-0.009c0.015,0,0.039,0.016,0.08,0.036c0.024,0.001,0.044,0.001,0.063,0.001
		c0.062,0,0.094-0.006,0.127-0.016c0.046-0.016,0.097-0.06,0.123-0.116L26.8,16.28l-0.36-0.05v-0.154l0.022-0.021
		c0.021-0.174,0.028-0.354,0.028-0.534c0.007-0.327,0.048-0.606,0.091-0.891c0.018-0.119,0.036-0.239,0.051-0.363
		c0.18-0.919,0.442-1.741,0.781-2.468c0.699-1.509,1.756-2.922,3.056-4.086c1.311-1.164,2.784-2.039,4.381-2.601
		c0.22-0.085,0.511-0.165,0.801-0.244c0.148-0.04,0.296-0.081,0.435-0.122c0.197-0.037,0.35-0.071,0.502-0.104
		c0.246-0.054,0.491-0.107,0.748-0.139c0.595-0.08,1.182-0.12,1.74-0.12c0.27,0,0.54,0.009,0.81,0.029
		c3.309,0.18,6.505,1.868,8.763,4.631c1.125,1.395,2,2.873,2.606,4.395c0.641,1.587,0.976,3.308,0.966,4.975
		c0.01,1.638-0.308,3.333-0.943,5.034c-0.607,1.644-1.406,3.185-2.372,4.579c-0.997,1.534-2.187,2.907-3.219,4.047
		c-0.24,0.24-0.462,0.471-0.683,0.701c-0.375,0.389-0.75,0.777-1.148,1.15l-1.912,1.762c-1.348,1.231-2.561,2.494-3.607,3.755
		c-0.991,1.127-1.92,2.435-3.02,4.247c-0.888,1.544-1.611,3.144-2.146,4.747c-0.374,1.166-0.624,2.173-0.786,3.165l-0.184,1.121
		L31.706,51.697z M15.011,9.893c-0.187,0-0.377,0.005-0.57,0.016c-2.856,0.165-5.507,1.498-7.465,3.753
		C4.678,16.309,3.589,19.884,3.91,23.73c0.645,7.631,11.744,13.021,11.856,13.075c0.484,0.183,12.043,4.638,15.807,11.472
		c0.656-2.293,2.779-8.232,8.162-12.938C46.468,29.45,50.05,23.915,50.38,18.888c0.212-3.229-0.932-6.291-3.401-9.1
		c-2.233-2.537-5.073-3.934-7.996-3.934c-0.887,0-1.779,0.132-2.651,0.391c-2.327,0.699-4.484,2.156-6.074,4.103
		c-0.812,1.017-1.42,2.155-1.806,3.38c-0.172,0.56-0.234,1.147-0.299,1.77c-0.079,0.746-0.16,1.517-0.45,2.237
		c-0.268,0.635-0.717,0.982-1.268,0.982c-0.167,0-0.343-0.034-0.521-0.099c-0.439-0.167-0.813-0.498-1.147-1.011
		c-0.154-0.225-0.28-0.452-0.408-0.685c-0.07-0.126-0.141-0.255-0.219-0.388C22.23,13.249,19.652,9.893,15.011,9.893z"/>
	<path class="st1" d="M41.7,35.42l1.91-1.76c0.63-0.59,1.2-1.22,1.81-1.83c1.15-1.27,2.26-2.58,3.19-4.01
		c0.97-1.4,1.75-2.93,2.33-4.5c0.59-1.58,0.93-3.25,0.92-4.91c0.01-1.66-0.33-3.33-0.94-4.84c-0.62-1.56-1.51-3.01-2.55-4.3
		c-2.1-2.57-5.2-4.32-8.51-4.5c-0.83-0.06-1.66-0.02-2.48,0.09c-0.41,0.05-0.79,0.16-1.19,0.23c-0.4,0.12-0.88,0.23-1.22,0.36
		C33.41,6,31.96,6.87,30.71,7.98c-1.24,1.11-2.27,2.46-2.97,3.97c-0.35,0.75-0.59,1.55-0.75,2.36c-0.05,0.41-0.13,0.77-0.14,1.21
		c0,0.22-0.01,0.44-0.04,0.65v0.05c0,0.01,0,0-0.01,0.01v0.05c-0.01,0.07-0.03,0.15-0.07,0.22c-0.07,0.15-0.2,0.26-0.35,0.31
		c-0.14,0.04-0.3,0.05-0.45-0.01c-0.08-0.04-0.14-0.08-0.2-0.14c-0.03-0.04-0.07-0.08-0.08-0.12l-0.02-0.03l-0.02-0.03
		c-1.38-3.04-3.72-5.7-6.78-6.95c-1.52-0.62-3.15-0.88-4.81-0.85c-1.63,0.04-3.24,0.45-4.69,1.2c-1.44,0.74-2.73,1.8-3.76,3.06
		s-1.81,2.73-2.34,4.28l-0.35,1.15l-0.29,1.26c-0.12,0.76-0.25,1.6-0.26,2.41c-0.04,1.62,0.22,3.25,0.79,4.77
		c0.56,1.52,1.39,2.95,2.46,4.21c1.06,1.25,2.26,2.41,3.61,3.4c1.31,1.02,2.76,1.89,4.22,2.71c0.76,0.37,1.48,0.77,2.26,1.12
		l2.34,1.04c1.59,0.7,3.16,1.48,4.64,2.41c1.5,0.89,2.87,1.99,4.19,3.13c1.29,1.18,2.48,2.48,3.5,3.91c0.63,0.89,1.21,1.81,1.69,2.8
		c0.18-1.1,0.46-2.16,0.8-3.22c0.56-1.68,1.3-3.29,2.18-4.82c0.91-1.5,1.89-2.97,3.05-4.29C39.18,37.86,40.43,36.58,41.7,35.42z
		 M31.68,49.31c-3.17-7.28-16.07-12.18-16.07-12.18S4.22,31.69,3.55,23.76C2.9,15.97,8,9.92,14.42,9.55
		c5.28-0.3,8.07,3.43,10.03,6.8c0.22,0.37,0.38,0.71,0.62,1.06c0.24,0.37,0.55,0.71,0.97,0.87c0.65,0.24,1.09-0.11,1.33-0.68
		c0.5-1.24,0.34-2.68,0.74-3.98c0.4-1.27,1.04-2.46,1.87-3.5c1.6-1.96,3.82-3.49,6.25-4.22c4.17-1.24,8.22,0.47,11.02,3.65
		c8.63,9.82-0.51,20.14-7.28,26.06S31.68,49.31,31.68,49.31z"/>
	<path class="st1" d="M23.316,32.875c-0.351,0-0.551-0.12-0.596-0.358c-0.092-0.488,0.225-0.678,5.786-2.837
		c0.613-0.238,1.265-0.491,1.928-0.751c-2.135,0.568-4.396,1.037-6.899,1.496c-1.333,0.245-2.714,0.369-4.107,0.369
		c-5.518,0-10.205-1.901-12.859-5.217c-0.38-0.472-0.711-0.985-0.98-1.524C3.78,20.407,4.946,15.59,8.424,12.337
		c1.639-1.54,3.502-2.32,5.539-2.32c3.186,0,5.995,1.92,7.386,3.065c1.406,1.157,2.34,3.019,3.165,4.662
		c0.767,1.529,1.491,2.973,2.246,2.973c0.039,0,0.078-0.003,0.117-0.011c0.491-0.088,1.131-1.013,1.394-4.92
		c0.199-2.766,3.553-9.465,10.681-9.636l0.242-0.003c2.648,0,4.88,1.077,6.454,3.114c1.961,2.538,2.469,6.016,1.951,8
		c-0.796,3.006-2.91,10.988-19.048,14.64C25.603,32.565,23.94,32.875,23.316,32.875z M14.144,12.223
		c-1.798,0-3.437,0.778-4.871,2.313c-1.399,1.498-1.944,3.06-1.458,4.18c0.269,0.618,0.824,0.987,1.486,0.987
		c0.867,0,1.738-0.619,2.392-1.699c2.216-3.652,3.073-4.583,5.341-5.127C16.361,12.571,15.333,12.223,14.144,12.223z M38.424,8.293
		c-1.797,0-3.437,0.778-4.871,2.313c-1.399,1.498-1.945,3.06-1.459,4.18c0.269,0.618,0.824,0.987,1.486,0.987
		c0.867,0,1.738-0.62,2.392-1.699c2.217-3.653,3.073-4.583,5.341-5.127C40.641,8.641,39.613,8.293,38.424,8.293z"/>
	<path class="st1" d="M47.25,17.17c0.84-3.22-1.19-10.83-8.29-10.66c-7.11,0.17-10.16,6.93-10.33,9.3
		c-0.16,2.37-0.52,5.04-1.69,5.25c-2.01,0.36-2.94-5.33-5.82-7.7s-8-4.94-12.45-0.76c-3.09,2.89-4.64,7.5-2.76,11.29
		c0.25,0.5,0.56,0.99,0.94,1.46c3.77,4.71,11.01,5.75,16.62,4.72c5.18-0.95,9.85-2.01,14.6-4.32c-1.82,2.12-25.34,9.35-9.6,5.8
		C44.2,27.99,46.4,20.38,47.25,17.17z M12,18.19c-2.53,4.18-7.28,0.69-2.99-3.9s9.06-1.26,9.06-1.26
		C15.24,13.54,14.53,14.02,12,18.19z M36.28,14.26c-2.53,4.18-7.28,0.69-2.99-3.9s9.06-1.26,9.06-1.26
		C39.52,9.61,38.81,10.09,36.28,14.26z"/>
</g>
<path class="st2" d="M89.2,53.87c-3.65-0.65-4.72-0.38-9.63,3.52c-4.92,3.91-9.08-2.41-1.87-6.04C84.92,47.72,89.2,53.87,89.2,53.87
	z"/>
<path class="st2" d="M60.37,49.19c-3.69-0.39-4.73-0.05-9.36,4.2c-4.63,4.24-9.23-1.77-2.29-5.9
	C55.67,43.36,60.37,49.19,60.37,49.19z"/>
<path class="st2" d="M42.35,9.1c-2.83,0.51-3.54,0.99-6.07,5.16c-2.53,4.18-7.28,0.69-2.99-3.9S42.35,9.1,42.35,9.1z"/>
<g>
	<path class="st3" d="M98.57,59.97c-0.23-2.01-0.74-3.98-1.63-5.82c-0.87-1.84-2.11-3.51-3.62-4.87c-1.51-1.37-3.28-2.44-5.16-3.17
		c-1.89-0.73-3.89-1.13-5.91-1.23c-2.03-0.07-4.04,0.23-5.97,0.81c-1.92,0.6-3.77,1.5-5.33,2.84c-0.77,0.67-1.47,1.44-2.01,2.33
		c-0.2,0.32-0.37,0.65-0.52,1c-0.28-1.37-0.79-2.7-1.51-3.91c-0.99-1.7-2.41-3.14-4.01-4.28c-0.8-0.57-1.65-1.06-2.55-1.49
		c-0.44-0.25-0.88-0.39-1.32-0.58c-0.23-0.09-0.41-0.18-0.69-0.27l-0.7-0.23c-1.89-0.59-3.91-0.78-5.88-0.59
		c-3.96,0.37-7.71,2.29-10.45,5.14c-1.39,1.46-2.53,3.03-3.42,4.82c-0.88,1.79-1.43,3.76-1.56,5.76c-0.13,2.01,0.18,4.03,0.78,5.91
		c0.61,1.89,1.51,3.66,2.58,5.3c2.15,3.26,4.87,6.05,7.79,8.55c1.45,1.25,2.89,2.41,4.24,3.72c1.38,1.27,2.66,2.64,3.88,4.05
		c1.2,1.43,2.29,2.94,3.22,4.54c0.47,0.8,0.86,1.63,1.21,2.48c0.32,0.83,0.62,1.76,0.69,2.54l0.22,2.38l0.89-2.2
		c0.02-0.06,0.05-0.12,0.08-0.18h0.01c0.3-0.7,0.84-1.45,1.36-2.11c0.62-0.71,1.25-1.42,1.97-2.04c1.41-1.28,2.98-2.4,4.61-3.41
		c1.65-0.98,3.35-1.91,5.11-2.68c0.87-0.41,1.75-0.8,2.67-1.13l2.72-1.04c3.65-1.42,7.22-3.15,10.42-5.49
		c1.59-1.18,3.08-2.53,4.34-4.09c1.26-1.57,2.29-3.36,2.9-5.31C98.62,64.07,98.79,62,98.57,59.97z M96.72,65.63
		c-0.52,1.78-1.42,3.44-2.56,4.94c-1.15,1.49-2.54,2.81-4.04,3.98c-3.03,2.33-6.5,4.09-10.09,5.51l-2.72,1.06
		c-0.9,0.34-1.81,0.72-2.71,1.12c-1.81,0.78-3.55,1.69-5.25,2.68c-1.69,1.01-3.31,2.15-4.8,3.46c-1.1,1-2.14,2.03-2.98,3.3
		c-0.37-1.43-1-2.71-1.67-3.98c-0.94-1.71-2.05-3.3-3.27-4.8c-1.22-1.48-2.52-2.91-3.91-4.23c-1.35-1.35-2.86-2.59-4.27-3.83
		c-2.8-2.45-5.41-5.18-7.4-8.28c-0.98-1.56-1.83-3.19-2.38-4.92c-0.55-1.72-0.83-3.52-0.71-5.3c0.11-1.79,0.59-3.54,1.39-5.16
		c0.79-1.6,1.9-3.14,3.1-4.44c2.46-2.66,5.84-4.47,9.45-4.87c1.8-0.21,3.64-0.06,5.38,0.44l0.66,0.19c0.17,0.05,0.42,0.16,0.63,0.24
		c0.44,0.18,0.91,0.32,1.3,0.53c0.82,0.38,1.63,0.82,2.38,1.33c1.51,1.03,2.85,2.32,3.8,3.87c0.94,1.52,1.53,3.25,1.71,5.02
		c0,0.04,0.01,0.08,0.01,0.12l0.01,0.04v0.04c0.02,0.06,0.04,0.12,0.06,0.15c0.05,0.08,0.12,0.16,0.2,0.2
		c0.17,0.09,0.35,0.09,0.51,0.02c0.15-0.06,0.27-0.26,0.29-0.36l0.03-0.08l0.14-0.34c0.09-0.23,0.17-0.42,0.25-0.63
		c0.17-0.42,0.37-0.82,0.62-1.21c0.48-0.77,1.11-1.44,1.81-2.04c1.43-1.18,3.15-1.99,4.95-2.52c1.8-0.52,3.7-0.76,5.55-0.67
		c1.87,0.14,3.73,0.5,5.47,1.19c3.48,1.35,6.42,3.98,7.98,7.37C97.19,58.14,97.79,62.08,96.72,65.63z"/>
	<path class="st3" d="M42.26,36.02l1.93-1.74c0.65-0.59,1.25-1.23,1.88-1.84c1.19-1.28,2.36-2.61,3.34-4.08
		c1.03-1.44,1.87-3.02,2.51-4.68c0.65-1.66,1.05-3.45,1.07-5.26c0.03-1.81-0.29-3.61-0.95-5.32c-0.65-1.67-1.55-3.24-2.71-4.63
		c-1.16-1.38-2.57-2.58-4.18-3.43s-3.4-1.38-5.22-1.47c-0.91-0.06-1.82-0.01-2.72,0.12c-0.45,0.05-0.9,0.18-1.35,0.27
		c-0.43,0.14-0.81,0.22-1.28,0.4c-1.71,0.63-3.26,1.61-4.59,2.82c-1.33,1.22-2.43,2.7-3.16,4.36c-0.37,0.83-0.62,1.71-0.78,2.6
		c-0.05,0.38-0.12,0.8-0.13,1.19c-0.64-1.29-1.45-2.51-2.42-3.59c-1.19-1.31-2.65-2.39-4.28-3.12c-1.65-0.7-3.45-1.03-5.22-1.03
		c-1.79,0-3.59,0.43-5.19,1.23c-1.62,0.8-3.06,1.94-4.22,3.3c-1.16,1.38-2.03,2.97-2.64,4.65l-0.42,1.29l-0.3,1.25
		c-0.16,0.93-0.28,1.78-0.3,2.69c-0.05,1.79,0.24,3.61,0.87,5.3c0.62,1.69,1.54,3.26,2.69,4.61c1.14,1.36,2.42,2.6,3.85,3.63
		c1.4,1.06,2.91,1.95,4.44,2.78c0.79,0.38,1.57,0.8,2.36,1.14l2.36,1.03c1.55,0.66,3.06,1.4,4.49,2.28c1.47,0.83,2.8,1.86,4.08,2.93
		c1.26,1.11,2.41,2.33,3.41,3.67c0.97,1.3,1.83,2.74,2.34,4.22c0.02,0.03,0.03,0.07,0.04,0.1l0.93,2.77l0.03-2.91
		c0-0.04,0-0.08,0-0.12c0.03-1.58,0.38-3.26,0.88-4.83c0.52-1.62,1.21-3.19,2.04-4.68c0.87-1.47,1.81-2.91,2.92-4.21
		C39.73,38.36,40.96,37.19,42.26,36.02z M26.3,16.14c0.01,0,0.02,0.02,0.02,0.03l-0.02-0.02V16.14z M35.01,43.5
		c-0.88,1.53-1.62,3.14-2.18,4.82c-0.34,1.06-0.62,2.12-0.8,3.22c-0.48-0.99-1.06-1.91-1.69-2.8c-1.02-1.43-2.21-2.73-3.5-3.91
		c-1.32-1.14-2.69-2.24-4.19-3.13c-1.48-0.93-3.05-1.71-4.64-2.41l-2.34-1.04c-0.78-0.35-1.5-0.75-2.26-1.12
		c-1.46-0.82-2.91-1.69-4.22-2.71c-1.35-0.99-2.55-2.15-3.61-3.4c-1.07-1.26-1.9-2.69-2.46-4.21c-0.57-1.52-0.83-3.15-0.79-4.77
		c0.01-0.81,0.14-1.65,0.26-2.41l0.29-1.26l0.35-1.15c0.53-1.55,1.31-3.02,2.34-4.28s2.32-2.32,3.76-3.06
		c1.45-0.75,3.06-1.16,4.69-1.2c1.66-0.03,3.29,0.23,4.81,0.85c3.06,1.25,5.4,3.91,6.78,6.95l0.02,0.03l0.02,0.03
		c0.01,0.04,0.05,0.08,0.08,0.12c0.06,0.06,0.12,0.1,0.2,0.14c0.15,0.06,0.31,0.05,0.45,0.01c0.15-0.05,0.28-0.16,0.35-0.31
		c0.04-0.07,0.06-0.15,0.07-0.22v-0.05c0.01-0.01,0.01,0,0.01-0.01v-0.05c0.03-0.21,0.04-0.43,0.04-0.65
		c0.01-0.44,0.09-0.8,0.14-1.21c0.16-0.81,0.4-1.61,0.75-2.36c0.7-1.51,1.73-2.86,2.97-3.97c1.25-1.11,2.7-1.98,4.26-2.53
		c0.34-0.13,0.82-0.24,1.22-0.36c0.4-0.07,0.78-0.18,1.19-0.23c0.82-0.11,1.65-0.15,2.48-0.09c3.31,0.18,6.41,1.93,8.51,4.5
		c1.04,1.29,1.93,2.74,2.55,4.3c0.61,1.51,0.95,3.18,0.94,4.84c0.01,1.66-0.33,3.33-0.92,4.91c-0.58,1.57-1.36,3.1-2.33,4.5
		c-0.93,1.43-2.04,2.74-3.19,4.01c-0.61,0.61-1.18,1.24-1.81,1.83l-1.91,1.76c-1.27,1.16-2.52,2.44-3.64,3.79
		C36.9,40.53,35.92,42,35.01,43.5z"/>
</g>
<path class="st2" d="M18.07,13.03c-2.83,0.51-3.54,0.99-6.07,5.16c-2.53,4.18-7.28,0.69-2.99-3.9S18.07,13.03,18.07,13.03z"/>
<path class="st4" d="M25.731,18.869c0,0,0.969,0.686,1.857-0.363C27.587,18.506,27.345,21.008,25.731,18.869z"/>
<path class="st4" d="M67.383,55.638c0,0,1.09,0.726,1.937-0.121C69.32,55.517,68.271,57.414,67.383,55.638z"/>
<g>
	<g>
		<path class="st5" d="M94.74,55.2c-2.27-4.7-6.96-7.84-12.34-8.06c-4.37-0.17-8.28,1.09-10.67,4.02c-0.98,1.2-1.65,2.61-2.03,3.16
			c-1.02,1.44-2.42,0.93-2.93-0.61c-0.14-0.45-0.58-1.78-0.73-2.23c-1.31-3.83-4.84-7.14-9.34-8.36
			c-8.26-2.23-16.94,4.74-17.82,13.04c-0.7,6.58,4.4,12.61,9.13,16.73c0,0,12.71,9.78,13.91,17.28c0,0,3.15-5.99,15.21-10.01
			C86.9,76.9,101.16,68.52,94.74,55.2z M92.814,62.463C92.624,63,92.383,63.509,92.1,63.99c-1.774,3.012-5.223,4.942-8.465,6.022
			c-7.873,2.623-17.946,3.034-25.728-0.054c5.39,2.139,5.497,2.108,11.13,3.485c-2.331,0.069-9.269-0.777-17.073-4.605
			c-4.21-2.065-7.728-5.236-9.27-9.965c-2.689-8.246,4.169-16.311,12.675-14.82c4.886,0.857,8.724,4.836,10.11,9.497
			c0.47,1.58,1.55,5.97,3.93,3.72c0.7-0.66,1.04-1.81,1.49-2.65c0.69-1.25,1.51-2.4,2.58-3.36c3.59-3.18,10.68-4.93,16.58,0.25
			C93.283,54.34,94.227,58.472,92.814,62.463z"/>
		<path class="st5" d="M47.25,9.55c-2.8-3.18-6.85-4.89-11.02-3.65c-2.43,0.73-4.65,2.26-6.25,4.22c-0.83,1.04-1.47,2.23-1.87,3.5
			c-0.4,1.3-0.24,2.74-0.74,3.98c-0.24,0.57-0.68,0.92-1.33,0.68c-0.42-0.16-0.73-0.5-0.97-0.87c-0.24-0.35-0.4-0.69-0.62-1.06
			c-1.96-3.37-4.75-7.1-10.03-6.8C8,9.92,2.9,15.97,3.55,23.76c0.67,7.93,12.06,13.37,12.06,13.37s12.9,4.9,16.07,12.18
			c0,0,1.52-7.78,8.29-13.7c3.882-3.395,8.544-8.236,10.187-13.601c0.788-2.571,0.882-5.262-0.135-7.972
			C49.46,12.542,48.559,11.04,47.25,9.55z M29.65,30.702c-9.143,2.685,6.6-2.832,8.42-4.952c-4.75,2.31-9.42,3.37-14.6,4.32
			c-5.61,1.03-12.85-0.01-16.62-4.72c-0.38-0.47-0.69-0.96-0.94-1.46c-1.88-3.79-0.33-8.4,2.76-11.29
			c4.45-4.18,9.57-1.61,12.45,0.76s3.81,8.06,5.82,7.7c1.17-0.21,1.53-2.88,1.69-5.25c0.17-2.37,3.22-9.13,10.33-9.3
			c4.625-0.111,7.098,3.079,8.029,6.207c0.498,1.674,0.554,3.33,0.261,4.453c-0.337,1.274-0.728,2.947-2.048,4.788
			C43.195,24.758,39.038,27.945,29.65,30.702z"/>
	</g>
	<path class="st6" d="M58.327,77.983c1.258,1.601,2.162,2.888,2.162,2.888C60.717,80.102,59.735,79.073,58.327,77.983z"/>
	<path class="st6" d="M33.511,37.916c-1.057,1.442-1.886,3.073-1.933,4.809C31.577,42.725,32.4,40.401,33.511,37.916z"/>
	<path class="st6" d="M37.843,32.013c-1.25-0.29-2.999,2.922-4.332,5.903C35.89,34.67,39.429,32.381,37.843,32.013z"/>
</g>
</svg>
