<?xml version="1.0" encoding="utf-8"?>
<!-- Generator: Adobe Illustrator 19.0.0, SVG Export Plug-In . SVG Version: 6.00 Build 0)  -->
<!DOCTYPE svg PUBLIC "-//W3C//DTD SVG 1.0//EN" "http://www.w3.org/TR/2001/REC-SVG-20010904/DTD/svg10.dtd">
<svg version="1.0" xmlns="http://www.w3.org/2000/svg" xmlns:xlink="http://www.w3.org/1999/xlink" x="0px" y="0px"
	 viewBox="0 0 648 432" enable-background="new 0 0 648 432" xml:space="preserve">
<symbol  id="fan" viewBox="-9 -14 17.9 28">
	<path id="XMLID_32_" fill="#909599" stroke="#484C4F" stroke-linecap="round" stroke-linejoin="round" stroke-miterlimit="10" d="
		M-8.5,8.9C-8.2,8.1,4.6-13.5,4.6-13.5l3.9,0.9L7.7,13.3C-0.6,14.7-8.5,8.9-8.5,8.9z"/>
</symbol>
<symbol  id="shingle" viewBox="-6.8 -4.2 13.7 8.5">

		<polyline id="XMLID_35_" fill="none" stroke="#231F20" stroke-linecap="round" stroke-linejoin="round" stroke-miterlimit="10" points="
		-6.3,3.2 -1.9,-3.7 6.3,-3.2 -0.6,3.7 	"/>
</symbol>
<symbol  id="window1" viewBox="-16.2 -15.9 32.3 31.8">

		<polygon id="XMLID_162_" fill="#E8E5DA" stroke="#969284" stroke-linecap="round" stroke-linejoin="round" stroke-miterlimit="10" points="
		15.7,-15.4 -15.7,-15.4 -15.7,15.4 15.7,15.4 	"/>

		<polygon id="XMLID_161_" fill="#323F49" stroke="#323F49" stroke-linecap="round" stroke-linejoin="round" stroke-miterlimit="10" points="
		11.1,-10.9 -11.1,-10.9 -11.1,10.9 11.1,10.9 	"/>
</symbol>
<g id="Layer_8">
	<linearGradient id="XMLID_164_" gradientUnits="userSpaceOnUse" x1="324" y1="203.4566" x2="324" y2="-99.1404">
		<stop  offset="7.635417e-02" style="stop-color:#C6DFE5"/>
		<stop  offset="0.8805" style="stop-color:#96BDE5"/>
	</linearGradient>
	<rect id="XMLID_152_" x="0" fill="url(#XMLID_164_)" width="648" height="344.9"/>
</g>
<g id="Layer_2">
	<path id="XMLID_2_" fill="#B4C191" d="M648,136.3c-27.7-27.7-113.6-17.6-143.1-10.3c-29.4,7.4-172.1,26.5-214.7,21.3
		c-42.6-5.1-10.3,46.3-10.3,46.3s93.4,25,94.1,22.8c0.7-2.2,273.9,0,273.9,0S648.7,137,648,136.3z"/>
	<path id="XMLID_3_" fill="#B4C191" d="M0,148.5v95.3l74.8,5.8c0,0,4.9-99.7,3.1-98.9C76.1,151.6,0,148.5,0,148.5z"/>
	<path id="XMLID_5_" fill="#768964" stroke="#5C6B4C" stroke-linecap="round" stroke-linejoin="round" stroke-miterlimit="10" d="
		M126.6,121.5c-0.4-9.8-4.9-10.2-8.4-8.9c-2.2-7.5-9.3-5.8-9.3-5.8c0-5.8-3.1-3.1-3.1-3.1c0-5.8-6.6-4-6.6-4
		c0.9-12-12.9-6.2-12.9-6.2c-7.1-12.9-16.8-2.7-13.7,2.2c-10.6-3.1-9.3,4.4-9.3,4.4c-2.7-2.7-3.5,2.7-3.5,2.7
		c-4.4-8-15.1-3.1-15.1-3.1c-3.1-6.2-27.9,10.6-14.2,29.3c-8.4-2.7-8.4,4.4-8.4,4.4c-4.9-7.1-8.9,2.4-6.2,7.5
		C6.9,137,0,142.7,0,142.7c0,1.8,0,47.4,0,47.4c10.9,6.6,13.1-1.8,13.1-1.8c2.2,5.8,8.9,3.1,8.9,3.1c-4.9,10.2,13.3,13.3,18.6,8.9
		c5.3-4.4,35.9,4.9,35.9,4.9L126.6,121.5z"/>
	<path id="XMLID_4_" fill="#768964" stroke="#5C6B4C" stroke-linecap="round" stroke-linejoin="round" stroke-miterlimit="10" d="
		M88,125.5c1.3-9.3,11.5-9.8,6.2,1.8c6.6-3.1,8.4,1.3,4,4.4"/>
	<path id="XMLID_7_" fill="#768964" stroke="#5C6B4C" stroke-linecap="round" stroke-linejoin="round" stroke-miterlimit="10" d="
		M69.4,137.4c-0.9-10.6-8-7.1-6.6-1.3c-11.5-4.9-13.3-1.3-9.8,5.8c-4.4-1.8,4,14.2-5.8,4.9s-23.1,3.1-11.1,18.2
		c-6.6-1.8-12.4,3.1-4.4,5.8"/>
	<path id="XMLID_8_" fill="#99BC77" stroke="#6C994F" stroke-miterlimit="10" d="M648,199c-20.5,7.1-114,5.8-130.4,0.4
		c-16.4-5.3-142.3-11.5-170.2-2.2S80.5,233.2,62.8,236.7c-17.7,3.5-63.8-5.3-63.8-5.3v66.1c0,0,238.5-3.1,238.5,0
		c0,3.1,89.1-17.3,127.7-14.2s152.9,8,156.5,8c3.5,0,54.1-23.1,54.1-23.1s72.8,15.1,72.3,13.7C647.5,280.6,648,199,648,199z"/>

		<rect id="XMLID_15_" x="394" y="163.5" fill="#A59F90" stroke="#49463C" stroke-linecap="round" stroke-linejoin="round" stroke-miterlimit="10" width="19.1" height="110.1"/>

		<rect id="XMLID_18_" x="398.2" y="172" fill="#938972" stroke="#49463C" stroke-linecap="round" stroke-linejoin="round" stroke-miterlimit="10" width="9.6" height="5"/>

		<rect id="XMLID_20_" x="401.4" y="179.2" fill="#938972" stroke="#49463C" stroke-linecap="round" stroke-linejoin="round" stroke-miterlimit="10" width="9.6" height="5"/>
	<rect id="XMLID_156_" y="259.5" fill="#99BC77" width="648" height="172.5"/>

		<polygon id="XMLID_157_" fill="#8C433B" stroke="#6B2418" stroke-linecap="round" stroke-linejoin="round" stroke-miterlimit="10" points="
		417.5,277.4 240,297.2 240,200.6 417,222.6 	"/>
	<path id="XMLID_13_" fill="#A5554A" stroke="#6B2418" stroke-linecap="round" stroke-linejoin="round" stroke-miterlimit="10" d="
		M44.6,206.6V297h203.5V175.5l-91.3-74.5l-27.9,2.7l-17.7,38.1C111.1,141.9,42.8,208.8,44.6,206.6z"/>
	<path id="XMLID_11_" fill="#513E3D" stroke="#382423" stroke-linecap="round" stroke-linejoin="round" stroke-miterlimit="10" d="
		M138.6,93.1l138.8,13.3l59.8,68.7l82.9,44.8l-45.2,4.4c0,0-121.9-1.8-123.2-1.8c-1.3,0-64.3-77.1-64.3-77.1l-48.8-48.3V93.1z"/>
	<path id="XMLID_9_" fill="#969284" stroke="#E8E5DA" stroke-linecap="round" stroke-linejoin="round" stroke-miterlimit="10" d="
		M131.5,96.2c-1.3,1.3-19.9,36.4-19.9,36.4l-83.8,82l5.8,6.2l83.3-78l21.3-40.8L131.5,96.2z"/>

		<polygon id="XMLID_10_" fill="#969284" stroke="#7F7C71" stroke-linecap="round" stroke-linejoin="round" stroke-miterlimit="10" points="
		256.1,219.9 420.1,219.9 418.8,227 251.6,227 	"/>
	<path id="XMLID_12_" fill="#A5554A" stroke="#6B2418" stroke-linecap="round" stroke-linejoin="round" stroke-miterlimit="10" d="
		M151.9,81.2c-0.5,0.8,0,17.1,0,17.1l25,7.7V79.7L151.9,81.2z"/>

		<polygon id="XMLID_14_" fill="#8C433B" stroke="#6B2418" stroke-linecap="round" stroke-linejoin="round" stroke-miterlimit="10" points="
		194.1,80.4 194.1,126.4 176.9,106 176.9,77.6 	"/>
	<path id="XMLID_16_" fill="#513E3D" stroke="#382423" stroke-linecap="round" stroke-linejoin="round" stroke-miterlimit="10" d="
		M172.3,51.3l9.2,33.2c0,0,21.7,0,21,0S172.3,51.3,172.3,51.3z"/>
	<path id="XMLID_17_" fill="#665151" stroke="#382423" stroke-linecap="round" stroke-linejoin="round" stroke-miterlimit="10" d="
		M172,51c0,0-31.3,32.7-31.3,33.5s40.9,0,40.9,0L172,51z"/>

		<rect id="XMLID_19_" x="118.8" y="150" fill="#E8E5DA" stroke="#969284" stroke-linecap="round" stroke-linejoin="round" stroke-miterlimit="10" width="61.1" height="54.2"/>

		<rect id="XMLID_21_" x="125.8" y="156.2" fill="#969284" stroke="#726E62" stroke-linecap="round" stroke-linejoin="round" stroke-miterlimit="10" width="47" height="41.7"/>

		<rect id="XMLID_22_" x="129.2" y="156.2" fill="#323F49" stroke="#323F49" stroke-linecap="round" stroke-linejoin="round" stroke-miterlimit="10" width="43.7" height="38.7"/>

		<use xlink:href="#window1"  width="32.3" height="31.8" id="XMLID_23_" x="-16.2" y="-15.9" transform="matrix(1 0 0 -1 79.271 245.6317)" overflow="visible"/>

		<use xlink:href="#window1"  width="32.3" height="31.8" id="XMLID_33_" x="-16.2" y="-15.9" transform="matrix(1 0 0 -1 212.4751 245.6317)" overflow="visible"/>

		<use xlink:href="#window1"  width="32.3" height="31.8" id="XMLID_26_" x="-16.2" y="-15.9" transform="matrix(0.7749 -1.555295e-02 0 -0.94 302.2769 254.116)" overflow="visible"/>

		<use xlink:href="#window1"  width="32.3" height="31.8" id="XMLID_27_" x="-16.2" y="-15.9" transform="matrix(0.7749 -1.555295e-02 0 -0.94 366.8909 253.122)" overflow="visible"/>

		<rect id="XMLID_25_" x="113.6" y="232.7" fill="#E8E5DA" stroke="#969284" stroke-linecap="round" stroke-linejoin="round" stroke-miterlimit="10" width="71.8" height="64.4"/>

		<rect id="XMLID_28_" x="119.9" y="237.9" fill="#A5554A" stroke="#6B2418" stroke-linecap="round" stroke-linejoin="round" stroke-miterlimit="10" width="59.2" height="59.2"/>

		<rect id="XMLID_29_" x="146.1" y="235.2" fill="#E8E5DA" stroke="#969284" stroke-linecap="round" stroke-linejoin="round" stroke-miterlimit="10" width="7" height="60.9"/>
	<path id="XMLID_6_" fill="#E8E5DA" stroke="#969284" stroke-linecap="round" stroke-linejoin="round" stroke-miterlimit="10" d="
		M122.2,90.9l16.4,2.2l51,48.3l66.5,78.5c0,0-3.5,8.4-4.4,7.1c-0.9-1.3-71.8-85.1-73.1-84.7C177.2,142.7,122.2,90.9,122.2,90.9z"/>

		<use xlink:href="#shingle"  width="13.7" height="8.5" id="XMLID_34_" x="-6.8" y="-4.2" transform="matrix(1 0 0 -1 238.942 142.0009)" overflow="visible"/>

		<use xlink:href="#shingle"  width="13.7" height="8.5" id="XMLID_45_" x="-6.8" y="-4.2" transform="matrix(1 0 0 -1 212.5994 115.9068)" overflow="visible"/>

		<use xlink:href="#shingle"  width="13.7" height="8.5" id="XMLID_37_" x="-6.8" y="-4.2" transform="matrix(1 0 0 -1 250.1252 148.7108)" overflow="visible"/>

		<use xlink:href="#shingle"  width="13.7" height="8.5" id="XMLID_38_" x="-6.8" y="-4.2" transform="matrix(1 0 0 -1 271.4975 117.1494)" overflow="visible"/>

		<use xlink:href="#shingle"  width="13.7" height="8.5" id="XMLID_39_" x="-6.8" y="-4.2" transform="matrix(1 0 0 -1 287.4024 140.7583)" overflow="visible"/>

		<use xlink:href="#shingle"  width="13.7" height="8.5" id="XMLID_40_" x="-6.8" y="-4.2" transform="matrix(1 0 0 -1 283.6747 166.6039)" overflow="visible"/>

		<use xlink:href="#shingle"  width="13.7" height="8.5" id="XMLID_42_" x="-6.8" y="-4.2" transform="matrix(1 0 0 -1 268.5153 194.1891)" overflow="visible"/>
	<path id="XMLID_62_" fill="#909599" stroke="#616466" stroke-miterlimit="10" d="M625.2,214.1c-2.2,0.4-30.2,5.2-30.2,5.2
		c-0.4,1.3,0.6,3.2,0.6,3.2l30.6-5.7L625.2,214.1z"/>

		<use xlink:href="#shingle"  width="13.7" height="8.5" id="XMLID_43_" x="-6.8" y="-4.2" transform="matrix(1 0 0 -1 354.0045 204.1297)" overflow="visible"/>

		<use xlink:href="#shingle"  width="13.7" height="8.5" id="XMLID_44_" x="-6.8" y="-4.2" transform="matrix(1 0 0 -1 317.7213 180.5208)" overflow="visible"/>
	<path id="XMLID_58_" fill="#909599" stroke="#616466" stroke-miterlimit="10" d="M587.2,102.4c-0.3,0.6-23.3,149.5-23.3,149.5
		l4,0.9l22.4-150.6L587.2,102.4z"/>
	<path id="XMLID_59_" fill="#909599" stroke="#616466" stroke-miterlimit="10" d="M612.2,103.4l17.4,162.3c2.8,0.9,3.6-0.1,3.6-0.1
		l-18.1-164L612.2,103.4z"/>
	<path id="XMLID_61_" fill="#909599" stroke="#616466" stroke-miterlimit="10" d="M585.5,120.5c1.1,0.2,15.5,3.4,15.5,3.4
		c0.2,1.1-0.2,2.9-0.2,2.9l-15.7-3.8L585.5,120.5z"/>
	<path id="XMLID_63_" fill="#909599" stroke="#616466" stroke-miterlimit="10" d="M582.7,143.4c1.1,0.2,15.5,3.4,15.5,3.4
		c0.2,1.1-0.2,2.9-0.2,2.9l-15.7-3.8L582.7,143.4z"/>

		<use xlink:href="#shingle"  width="13.7" height="8.5" id="XMLID_41_" x="-6.8" y="-4.2" transform="matrix(1 0 0 -1 282.9292 155.1722)" overflow="visible"/>
	<path id="XMLID_67_" fill="#909599" stroke="#616466" stroke-miterlimit="10" d="M623,188.8c-1.9,0.3-25.8,4.6-25.8,4.6
		c-0.3,1.1,0.5,2.9,0.5,2.9l26.2-5.1L623,188.8z"/>
	<path id="XMLID_64_" fill="#909599" stroke="#616466" stroke-miterlimit="10" d="M579.1,164.7c1.3,0.2,18.4,3.4,18.4,3.4
		c0.3,1.1-0.3,2.9-0.3,2.9l-18.7-3.8L579.1,164.7z"/>
	<path id="XMLID_65_" fill="#909599" stroke="#616466" stroke-miterlimit="10" d="M575.5,188.4c1.5,0.3,21.2,4.4,21.2,4.4
		c0.3,1.1-0.5,2.9-0.5,2.9l-21.5-4.8L575.5,188.4z"/>
	<path id="XMLID_66_" fill="#909599" stroke="#616466" stroke-miterlimit="10" d="M572.3,214.1c1.7,0.3,23.4,4.8,23.4,4.8
		c0.3,1.3-0.5,3.2-0.5,3.2l-23.7-5.3L572.3,214.1z"/>
	<path id="XMLID_70_" fill="#909599" stroke="#616466" stroke-miterlimit="10" d="M616.4,120.7c-1.1,0.2-15.5,3.4-15.5,3.4
		c-0.2,1.1,0.2,2.9,0.2,2.9l15.7-3.8L616.4,120.7z"/>
	<path id="XMLID_69_" fill="#909599" stroke="#616466" stroke-miterlimit="10" d="M616.8,144.5c-1.1,0.2-15.5,3.4-15.5,3.4
		c-0.2,1.1,0.2,2.9,0.2,2.9l15.7-3.8L616.8,144.5z"/>
	<path id="XMLID_57_" fill="#909599" stroke="#616466" stroke-miterlimit="10" d="M600.9,103.1c0,0.6-9.1,163.4-9.1,163.4
		c3,0.6,3.1,0,3.1,0l9.2-163.7L600.9,103.1z"/>
	<path id="XMLID_68_" fill="#909599" stroke="#616466" stroke-miterlimit="10" d="M620.3,165.1c-1.5,0.2-20.2,3.4-20.2,3.4
		c-0.3,1.1,0.3,2.9,0.3,2.9l20.5-3.8L620.3,165.1z"/>

		<rect id="XMLID_36_" x="170.9" y="42" fill="#424F56" stroke="#2E3C42" stroke-linecap="round" stroke-linejoin="round" stroke-miterlimit="10" width="1.4" height="10"/>

		<rect id="XMLID_60_" x="580.2" y="100.6" fill="#827062" stroke="#4F4236" stroke-linecap="round" stroke-linejoin="round" stroke-miterlimit="10" width="38.4" height="4.6"/>
	<path id="XMLID_46_" fill="#424F56" stroke="#2E3C42" stroke-linecap="round" stroke-linejoin="round" stroke-miterlimit="10" d="
		M163.8,33.9c-1.9,3.1-0.6,11.9,7.5,12.2s9.4-6.3,8-9.2c-1.4-3,2-5.3-0.8-7.4c-1.4-5-0.5-5.3-0.5-5.3c3-1.4,4.5-4.7,4.5-4.7
		c-3,0.8-5.8,0.8-5.8,0.8c1.7-3.3-0.5-6.7-1.4-4.5c-0.9,2-0.9,2-0.9,2s-2.7-1.6-2.3-0.2c0.3,1.4,1.1,1.3,1.1,1.3
		c-1.6,0-3,0.8-1.9,1.7c1.1,0.8,3,2,3,2c-0.5,1.6-0.3,4.1-0.3,4.1c-2,0.5-2.3,4.9-2.3,4.9c-2.5,0.9-4.7,0.3-4.7,0.3s3.1-13.3-6.1-15
		c2,2.8,2.2,5.3,2.2,5.3c-7.8-7.4-11.6-2.2-13,2.3c2.8-2.5,9.7-0.8,9.7-0.8c-7.4,0.5-11.9,9.6-1.9,17.4c-1.7-10.8,0.8-12.2,3-12.1
		C163,29.2,163.8,33.9,163.8,33.9z"/>
	<path id="XMLID_48_" fill="#827062" stroke="#4F4236" stroke-linecap="round" stroke-linejoin="round" stroke-miterlimit="10" d="
		M553.9,71.4c-0.6,0.3-6.1,15.9-6.1,15.9l40.7,1.3l-6.2-11.9L553.9,71.4z"/>

		<use xlink:href="#fan"  width="17.9" height="28" id="XMLID_49_" x="-9" y="-14" transform="matrix(0.9873 0.1591 0.1591 -0.9873 602.3029 62.0484)" overflow="visible"/>

		<use xlink:href="#fan"  width="17.9" height="28" id="XMLID_53_" x="-9" y="-14" transform="matrix(0.2852 0.9585 0.9585 -0.2852 618.8629 68.902)" overflow="visible"/>

		<use xlink:href="#fan"  width="17.9" height="28" id="XMLID_52_" x="-9" y="-14" transform="matrix(-0.8376 0.5463 0.5463 0.8376 621.1991 87.0029)" overflow="visible"/>

		<use xlink:href="#fan"  width="17.9" height="28" id="XMLID_54_" x="-9" y="-14" transform="matrix(-0.9708 -0.2399 -0.2399 0.9708 608.5959 96.2042)" overflow="visible"/>

		<use xlink:href="#fan"  width="17.9" height="28" id="XMLID_55_" x="-9" y="-14" transform="matrix(-0.4352 -0.9003 -0.9003 0.4353 594.0233 91.6313)" overflow="visible"/>

		<use xlink:href="#fan"  width="17.9" height="28" id="XMLID_56_" x="-9" y="-14" transform="matrix(0.609 -0.7931 -0.7932 -0.609 588.9365 74.8463)" overflow="visible"/>

		<circle id="XMLID_47_" fill="#D6C4A5" stroke="#877757" stroke-linecap="round" stroke-linejoin="round" stroke-miterlimit="10" cx="605.9" cy="79.8" r="6.8"/>
</g>
<g id="Layer_3">
	<path id="XMLID_71_" fill="#557552" stroke="#315135" stroke-linecap="round" stroke-linejoin="round" stroke-miterlimit="10" d="
		M472.7,254c-1.6-3-4.7-2.6-4.7-2.6c1-4.7-3.1-3.8-5.6-3c-0.7-8.7-8-3-8-2.1c0.7-9.1-7.5,1-7.5,1c-1.7-10-5.4-9.8-7.3-3.1
		c0.9-10-17.1-17.1-18,7.5c-3.3-5.9-3.8,2.3-4,3c-5.6-5.9-6.8,1-6.8,1c-10.7-8.6-13.6-3-10.8,4.7c-3.7,1.2-2.6,6.3-2.6,6.3
		c-5.4-2.1-5.9,4.5-5.9,4.5c-2.8-2.3-5.8,1-5.8,1c-9.1-4-16.3,6.1-4.5,14.3c-4,0-2.8,3.3-2.8,3.3c-4.9-2.8-11.5,2.3-4.2,7.5
		c7.3,5.2,8.6,0.7,8.6,0.7c-1.7,3,8,7.7,14.7,1.6c1.6,5.2,5.2,0.3,5.2,0.3c6.1,8.6,11,4.4,11,1.9c5.4,9.4,13.5,3.3,14.3,1.4
		c4.2,3,7-0.5,7-0.5c3.3,7.9,8.4,4.5,8.9,3.3c12.6,10.1,34.5,7.5,33.4,3.3c-1-4.2-3.5-4-3.5-4c4,0.5,5.6-3.3,5.6-3.3
		c6.1,5.9,10.1,0.3,9.6-1.4c5.4,2.3,7.5-2.4,5.8-5.2c4.4-3.1,13.5-12.6,12.6-17.3s-2.6-22-8.6-22.6C492.7,255.2,472.7,254,472.7,254
		z"/>
	<path id="XMLID_73_" fill="#557552" stroke="#315135" stroke-linecap="round" stroke-linejoin="round" stroke-miterlimit="10" d="
		M439.3,258.7c2.3-8.2,10.3-6.1,7.2,2.6c4.9-4.2,7.2,0.5,0.2,4.7c9.8-2.3,14,0.3,5.2,4.5"/>
	<path id="XMLID_72_" fill="#557552" stroke="#315135" stroke-linecap="round" stroke-linejoin="round" stroke-miterlimit="10" d="
		M419.6,279.5c0.9-8.6,7.9-8.7,6.3,0.2c3-3.1,5.9-0.7,2.8,2.1"/>
	<path id="XMLID_74_" fill="#557552" stroke="#315135" stroke-linecap="round" stroke-linejoin="round" stroke-miterlimit="10" d="
		M415,276c-1.6-8.6-12.8-10.1-3.8,2.8c-5.8-1.6-8.4,0-4.7,2.1"/>
	<path id="XMLID_75_" fill="#557552" stroke="#315135" stroke-linecap="round" stroke-linejoin="round" stroke-miterlimit="10" d="
		M457,293.7c4.2-3.8,11.9-4.7,4.2,2.3c8-2.3,6.6,6.1-2.3,3.8"/>
	<path id="XMLID_76_" fill="#99BC77" stroke="#51722F" stroke-miterlimit="10" d="M337.2,288.9c-1.9-3.6-6.3-7.4-6.3-7.4
		c5.5,0.8,8,6,8,6c0.3-2.5-3-12.1-3-12.1c5.2,5.8,4.9,10.2,4.9,10.2c0.8-2.2,6.6-6.3,5.8-5.5c-0.8,0.8-2.2,8-2.2,8"/>
	<path id="XMLID_77_" fill="#99BC77" stroke="#51722F" stroke-miterlimit="10" d="M360.5,285.9c0.3-3.6-1.1-6.3-1.1-6.3
		c1.9,1.6,2.7,4.1,2.7,4.1c1.4-3.3,4.7-6,4.7-6c-3.6,4.7-1.9,8.2-1.9,8.2"/>
	<path id="XMLID_78_" fill="#99BC77" stroke="#51722F" stroke-miterlimit="10" d="M352.5,335.6c0.3-5.2-3.3-9.9-3.3-9.9
		c5.2,3.8,5.8,6.6,5.8,6.6c-0.5-4.1,6.9-11.3,6.9-11.3c-1.9,4.9-3.3,10.7-3.3,10.7c1.1-0.5,4.9-4.7,4.9-4.7l-2.7,8.2"/>
</g>
<g id="Layer_4">
	<g id="XMLID_31_">
		<path id="XMLID_90_" fill="#22303A" stroke="#43627C" stroke-linecap="round" stroke-linejoin="round" stroke-miterlimit="10" d="
			M550.4,296c-1.7,3.2-5.4,9.9-5.4,9.9c2,1.5,3.2,0,3.2,0c0.9,0.9,1.9,1.5,1.9,1.5c0.9,0.3,5.8,0.2,6.8-1.2c0.7-2.4-0.5-9-0.5-9
			L550.4,296z"/>

			<path id="XMLID_100_" fill="#22303A" stroke="#43627C" stroke-linecap="round" stroke-linejoin="round" stroke-miterlimit="10" d="
			M487,303c-2.4,2.4-7,8.5-7,8.5c2.9-0.3,4.1-0.9,4.1-0.9c1.7,1.2,7.7,3.2,7.7,2.7c0-0.9,0.5-8.3,0.5-8.8S487,303,487,303z"/>
		<path id="XMLID_99_" fill="#513216" stroke="#512C10" stroke-linecap="round" stroke-linejoin="round" stroke-miterlimit="10" d="
			M604.7,254.3c1.5-4.1,4.9-7.8,9.1-5.2c-1.2,0.6-2.8,1.9-2.8,1.9c2.8-0.7,5.8,1.4,9,1.2c1.2-0.1,1.9-2.6,1.9-2.6
			c3.6,6.4-2,13.8-9.6,12.4C607,261,604.2,257.6,604.7,254.3z"/>
		<path id="XMLID_91_" fill="#895A2B" stroke="#512C10" stroke-linecap="round" stroke-linejoin="round" stroke-miterlimit="10" d="
			M559.6,249c-1.5,16,3.2,17.9,3.2,17.9c9.2-1.5,9,1.7,6.1,6.6c-2.9,4.9-10.6,21.8-11.1,24.2c-0.5,2.4-0.2,3.9-0.2,3.9
			c-1.4-1-4.1-3.6-4.1-3.6c-1.4,1.9-4.9,3.2-4.9,3.2c2.4-2.2,1.9-4.1,1.9-4.1l-2.6,2.7c2.6-4.8,8.2-26.9,8.2-26.9
			c-6.1,0.3-17.5-10.4-19.4-15.5c-1.9-5.1-3.1-16.7-5.6-18.4"/>

			<path id="XMLID_103_" fill="#895A2B" stroke="#512C10" stroke-linecap="round" stroke-linejoin="round" stroke-miterlimit="10" d="
			M570.1,231.8c7.5-1.8,13.2,10.8,19.8,16.7c6.6,5.9,15,8.4,21.2,6.6c-13,4.6-27.8-1.5-35.1-14.1c-4-3.5-3.8-1.1-4.4-1.6
			C571,238.7,570.1,231.8,570.1,231.8z"/>
		<path id="XMLID_87_" fill="#895A2B" stroke="#512C10" stroke-linecap="round" stroke-linejoin="round" stroke-miterlimit="10" d="
			M535.8,233.9c9.7-5.1,18.2-19.4,20.4-18.7s9.4,7.5,10.2,14.5S535.8,233.9,535.8,233.9z"/>
		<path id="XMLID_97_" fill="#895A2B" stroke="#512C10" stroke-linecap="round" stroke-linejoin="round" stroke-miterlimit="10" d="
			M496,271.5c0,7.8-8.8,30.1-10.6,32.5s-1.7,2.4-1.7,2.4c3.1-0.9,5.3-3.6,5.3-3.6c0.3,2.2,3.6,6.1,3.6,6.1
			c-0.2-2.9,9.2-26,10.7-28.8S496,271.7,496,271.5z"/>
		<path id="XMLID_94_" fill="#D38C76" stroke="#663C2D" stroke-linecap="round" stroke-linejoin="round" stroke-miterlimit="10" d="
			M540.4,278.1c-2,1-3.6,4.3-1.5,6.3c2,2,5.6-4.3,5.4-4.8S540.4,278.1,540.4,278.1z"/>
		<path id="XMLID_82_" fill="#22303A" stroke="#43627C" stroke-linecap="round" stroke-linejoin="round" stroke-miterlimit="10" d="
			M570.8,302.5c-1.7,3.2-5.4,9.9-5.4,9.9c2,1.5,3.2,0,3.2,0c0.9,0.9,1.9,1.5,1.9,1.5c0.9,0.3,5.8,0.2,6.8-1.2c0.7-2.4-0.5-9-0.5-9
			L570.8,302.5z"/>
		<path id="XMLID_95_" fill="#D38C76" stroke="#663C2D" stroke-linecap="round" stroke-linejoin="round" stroke-miterlimit="10" d="
			M558.9,277.6c0.3,4.4,0.2,7.1,2,6.3s2.6-5.4,0.9-7.3C560.1,274.7,558.9,277.6,558.9,277.6z"/>
		<path id="XMLID_86_" fill="#895A2B" stroke="#512C10" stroke-linecap="round" stroke-linejoin="round" stroke-miterlimit="10" d="
			M488.1,264.2c-3.1-2-7.5-8.3-7.5-8.3c-0.2-5.3,8.6-26.8,11.7-26.2c3.7,1,17,1.6,20.9,2.2c3.9,0.6,34.8-1.2,41.4-5.1
			s19.9,2,19.5,13.1c-0.4,11.1-8.4,26.4-8.4,26.4c-12.5,5.5-26.2,6.9-26.2,6.9c-3.9,6.6-29,17.7-34.5,17.7
			C499.7,290.8,501.3,286.4,488.1,264.2z"/>
		<path id="XMLID_96_" fill="#D38C76" stroke="#663C2D" stroke-linecap="round" stroke-linejoin="round" stroke-miterlimit="10" d="
			M549.9,281.7c-1,2.9-0.7,5.8,1.7,6s1.5-6.1,1.5-6.1L549.9,281.7z"/>
		<path id="XMLID_88_" fill="#895A2B" stroke="#512C10" stroke-linecap="round" stroke-linejoin="round" stroke-miterlimit="10" d="
			M550.6,231.3c6.3-4.8,16.5-15,19.7-13.3c3.2,1.7,11.2,21.4,9.7,37.4s3.2,17.9,3.2,17.9c9.2-1.5,9,1.7,6.1,6.6
			c-2.9,4.9-10.6,21.8-11.1,24.2s-0.2,3.9-0.2,3.9c-1.4-1-4.1-3.6-4.1-3.6c-1.4,1.9-4.9,3.2-4.9,3.2c2.4-2.2,1.9-4.1,1.9-4.1
			l-2.6,2.7c2.6-4.8,8.2-26.9,8.2-26.9c-6.1,0.3-17.5-10.4-19.4-15.5c-1.9-5.1-3.1-16.7-5.6-18.4"/>
		<path id="XMLID_89_" fill="#D38C76" stroke="#663C2D" stroke-linecap="round" stroke-linejoin="round" stroke-miterlimit="10" d="
			M537.6,275.6c7.5,9,19.6,11.6,27.4-2.6c-5.1-3.9-8.3-10.2-8.3-10.2c-8,7.1-13.4,5.8-13.4,5.8C539.8,273.5,537.6,275.6,537.6,275.6
			z"/>
		<path id="XMLID_92_" fill="#D38C76" stroke="#663C2D" stroke-linecap="round" stroke-linejoin="round" stroke-miterlimit="10" d="
			M553.1,272.5c-0.7,5.1,1.4,5.1,2.6,4.9s2-2.7,1-5.1"/>
		<path id="XMLID_98_" fill="#22303A" stroke="#43627C" stroke-linecap="round" stroke-linejoin="round" stroke-miterlimit="10" d="
			M504.5,310.8c-2,2.7-5.4,10-5.4,10c1.5,1.2,4.1-0.2,4.1-0.2c3.4,2.6,8.6,2,8.8,2.2c0.5-4.9,0.2-9.4-0.2-9.9
			C511.4,312.5,504.5,310.8,504.5,310.8z"/>
		<path id="XMLID_93_" fill="#895A2B" stroke="#512C10" stroke-linecap="round" stroke-linejoin="round" stroke-miterlimit="10" d="
			M522.8,244.3c-7.5-9.4-8.3-10.2-10.4-7.5c-2,2.7-12.1,15.1-10.4,19.9c1.7,4.8,8,14.1,7.8,19.2c-0.2,5.1-0.9,18.2-1.2,20.2
			s-7.5,19.2-7.5,19.2c3.4-0.5,5.4-2,5.4-2c-0.3,1.9,1.9,3.1,1.9,3.6c0.3-1.7,0.7-2.9,0.7-2.9c1,1.2,3.2,4.1,3.2,4.1
			c0.7-4.3,2-13.4,2.2-16.2s2.9-17.5,5.1-21.6s6.6-12.6,6.1-15.5"/>
		<path id="XMLID_81_" fill="#A0846A" stroke="#7A614C" stroke-linecap="round" stroke-linejoin="round" stroke-miterlimit="10" d="
			M486.1,222.9c1.4-0.4,5.4-4,7.8-6.3c1.1-1.1,3-0.3,3,1.2c0.1,2.8-1,6.8-4.5,8.5"/>
		<path id="XMLID_83_" fill="#A0846A" stroke="#7A614C" stroke-linecap="round" stroke-linejoin="round" stroke-miterlimit="10" d="
			M474.7,222.5c-2.9-1.4-4.1-8.4-6.3-7.6c-2.5,1.4-1.8,9,0.4,12.9C471.4,232.5,474.7,222.5,474.7,222.5z"/>
		<path id="XMLID_79_" fill="#895A2B" stroke="#512C10" stroke-linecap="round" stroke-linejoin="round" stroke-miterlimit="10" d="
			M473.8,225.2c-6.6,2-10.6,0.8-13.5-1s-4.9,2.7,0,6.8s12.9-1.6,12.9-1.6L473.8,225.2z"/>
		<path id="XMLID_80_" fill="#895A2B" stroke="#512C10" stroke-linecap="round" stroke-linejoin="round" stroke-miterlimit="10" d="
			M494.9,235.2c6.1,11.3,0,21.3-9,18c0,0,0,2.2-5.5,7.4c-6.6,5.9-16.8-0.8-19.5-7c-2.7-6.3,5.7-8.8,6.5-11.5c0.8-2.7-1.4-6.6-0.8-10
			c0.6-3.3,4.7-7.8,6.8-9.8c2.2-2,11.9-4.7,18.8,0.8c5.3,2.5,5.3,3.1,7,5.1c1.8,2,7.6-2.2,9.6,1.2
			C510.7,232.7,505.3,240.3,494.9,235.2z"/>
		<path id="XMLID_84_" fill="none" stroke="#231F20" stroke-linecap="round" stroke-linejoin="round" stroke-miterlimit="10" d="
			M478.1,252c-2.5-0.2-5.5,2-4.7,3.9"/>
		<path id="XMLID_85_" fill="none" stroke="#231F20" stroke-linecap="round" stroke-linejoin="round" stroke-miterlimit="10" d="
			M462.3,250.5c1.8,1,2,3.1,2.3,4.5"/>

			<ellipse id="XMLID_102_" fill="#231F20" stroke="#231F20" stroke-linecap="round" stroke-linejoin="round" stroke-miterlimit="10" cx="470.7" cy="238.3" rx="0.9" ry="3.2"/>

			<ellipse id="XMLID_101_" fill="#231F20" stroke="#231F20" stroke-linecap="round" stroke-linejoin="round" stroke-miterlimit="10" cx="482.7" cy="238.7" rx="0.9" ry="3.2"/>
	</g>
</g>
<g id="Layer_5">

		<rect id="XMLID_104_" x="28.9" y="264.7" fill="#E0D4C6" stroke="#7A654D" stroke-linecap="round" stroke-linejoin="round" stroke-miterlimit="10" width="6.7" height="34"/>

		<rect id="XMLID_106_" x="93.9" y="264.7" fill="#E0D4C6" stroke="#7A654D" stroke-linecap="round" stroke-linejoin="round" stroke-miterlimit="10" width="6.7" height="34"/>

		<rect id="XMLID_107_" x="204.5" y="264.7" fill="#E0D4C6" stroke="#7A654D" stroke-linecap="round" stroke-linejoin="round" stroke-miterlimit="10" width="6.7" height="34"/>

		<rect id="XMLID_108_" x="256.9" y="270.7" fill="#E0D4C6" stroke="#7A654D" stroke-linecap="round" stroke-linejoin="round" stroke-miterlimit="10" width="6.7" height="43.7"/>

		<rect id="XMLID_109_" x="287.5" y="276.1" fill="#E0D4C6" stroke="#7A654D" stroke-linecap="round" stroke-linejoin="round" stroke-miterlimit="10" width="6.7" height="60.3"/>

		<rect id="XMLID_110_" x="334.5" y="295" fill="#E0D4C6" stroke="#7A654D" stroke-linecap="round" stroke-linejoin="round" stroke-miterlimit="10" width="6.7" height="64.2"/>

		<rect id="XMLID_111_" x="408.6" y="313.2" fill="#E0D4C6" stroke="#7A654D" stroke-linecap="round" stroke-linejoin="round" stroke-miterlimit="10" width="6.7" height="64.2"/>

		<rect id="XMLID_112_" x="477.7" y="320.8" fill="#E0D4C6" stroke="#7A654D" stroke-linecap="round" stroke-linejoin="round" stroke-miterlimit="10" width="6.7" height="64.2"/>

		<rect id="XMLID_113_" x="546.7" y="320.8" fill="#E0D4C6" stroke="#7A654D" stroke-linecap="round" stroke-linejoin="round" stroke-miterlimit="10" width="6.7" height="64.2"/>

		<rect id="XMLID_114_" x="622.3" y="310.7" fill="#E0D4C6" stroke="#7A654D" stroke-linecap="round" stroke-linejoin="round" stroke-miterlimit="10" width="6.7" height="64.2"/>
	<path id="XMLID_105_" fill="#E0D4C6" stroke="#7A654D" stroke-linecap="round" stroke-linejoin="round" stroke-miterlimit="10" d="
		M0,270.7h225.9c29.1,3.7,65.2,12.2,87.4,22.8c22.2,10.6,86.5,32.5,131.1,36c39.9,1.5,203.7-5.9,203.7-5.9v10.6c0,0-202.8,3-204,3.2
		c-1.8,0.2-62.6-12.2-87.9-21c-21.5-7.5-46-18.4-49.5-19.6c-3.5-1.2-31.4-16.2-80.1-23.1c-40.6,0-226.5,0-226.5,0S0,270.5,0,270.7z"
		/>
</g>
<g id="Layer_6">
	<path id="XMLID_115_" fill="#99BC77" stroke="#51722F" stroke-miterlimit="10" d="M541.7,391.1c-1.4-4.7-5.7-15.6-5.7-15.6
		c7.1,7.6,8,11.8,8,11.8c-0.5-1.9-2.4-10.9-2.4-10.9c3.3,3.3,1.9,9,1.9,9c1.9-3.3,7.6-11.4,7.6-11.4c-0.5,1.9-2.4,8-2.4,8
		c2.4-2.8,10.9-7.6,10.9-7.6c-1.9,2.4-4.7,12.3-4.7,12.3c2.4-1.9,5.7-6.1,5.7-6.1c0,1.4-1.4,8-1.4,8"/>
	<path id="XMLID_116_" fill="#99BC77" stroke="#51722F" stroke-miterlimit="10" d="M630.5,369.5c1.2-4.8,8.8-11,8.8-11
		c-0.8,1-4.8,11.5-4.8,11.5c1.8-2.2,7.5-6.2,7.5-6.2l-4.5,9"/>
	<path id="XMLID_159_" fill="#99BC77" stroke="#51722F" stroke-miterlimit="10" d="M593.5,314.7c1.2-4.8,8.8-11,8.8-11
		c-0.8,1-4.8,11.5-4.8,11.5c1.8-2.2,7.5-6.2,7.5-6.2l-4.5,9"/>
	<path id="XMLID_117_" fill="#99BC77" stroke="#51722F" stroke-miterlimit="10" d="M596.2,420.8c0-8-8-20.5-8-20.5
		c8.5,5.8,12,14.5,12,14.5c0.2-3,16-21.2,16-21.2c-0.8,0.5-8.2,27.2-8.2,27.2"/>
	<path id="XMLID_51_" fill="#99BC77" stroke="#51722F" stroke-miterlimit="10" d="M613.8,287c0-3.8-3.8-9.7-3.8-9.7
		c4,2.7,5.7,6.9,5.7,6.9c0.1-1.4,7.6-10.1,7.6-10.1c-0.4,0.2-3.9,12.9-3.9,12.9"/>
	<path id="XMLID_118_" fill="#99BC77" stroke="#51722F" stroke-miterlimit="10" d="M498.8,408.5c-0.2-3.8-9.8-14.5-9.8-14.5
		c8,2.2,11.2,8.5,11.2,8.5c0.5-3-14.2-24.5-6.5-18.2s10.2,14.5,10.2,14.5l7.5-8.5l-5,14.8"/>
	<path id="XMLID_119_" fill="#99BC77" stroke="#51722F" stroke-miterlimit="10" d="M435,371c-2-6.5-3.8-9.5-4.2-10.2
		c5.8,2.2,6.2,6,6.2,6l6.5-9.8c-0.5,1-3.2,12-3.2,12"/>
	<path id="XMLID_120_" fill="#99BC77" stroke="#51722F" stroke-miterlimit="10" d="M406,382.5c-0.5-3.2-6.8-12.8-6.8-12.8
		c5.5,3.8,7.8,8.2,7.8,8.2c-1-2-3.8-11-3.8-11c5,5.2,8.5,13.2,8.5,13.2c1-7.8,7.5-12.2,7.5-12.2c-2.2,9.5-2.5,16-2.5,16"/>
	<path id="XMLID_160_" fill="#99BC77" stroke="#51722F" stroke-miterlimit="10" d="M430.8,306.5c-0.4-2.3-4.7-8.9-4.7-8.9
		c3.9,2.6,5.4,5.8,5.4,5.8c-0.7-1.4-2.6-7.7-2.6-7.7c3.5,3.7,6,9.3,6,9.3c0.7-5.4,5.3-8.6,5.3-8.6c-1.6,6.7-1.8,11.2-1.8,11.2"/>
	<path id="XMLID_121_" fill="#99BC77" stroke="#51722F" stroke-miterlimit="10" d="M314.1,406.2c0.2-5-8.1-18.2-8.1-18.2
		c8.8,6,11.9,6.7,11.9,6.7c1.2-4.2-6.2-21.2-7.4-22c7.8,6.2,14.8,13.8,14.8,21.5c4-10.5,12-8,12-8l-7.2,17.5"/>
	<path id="XMLID_122_" fill="#99BC77" stroke="#51722F" stroke-miterlimit="10" d="M250.2,343.5c-3.5-4.2-4.8-13.8-4.8-13.8
		c6,5.5,7,11,7,11c0.8-1.8,7.5-13.5,7.5-13.5c-0.2,2.2-3.8,13.8-3.8,13.8c2.8-3.5,10.5-3.2,10.5-3.2l-6.5,6"/>
	<path id="XMLID_163_" fill="#99BC77" stroke="#51722F" stroke-miterlimit="10" d="M382.4,303.2c-2.2-2.7-3-8.8-3-8.8
		c3.8,3.5,4.5,7,4.5,7c0.5-1.1,4.8-8.6,4.8-8.6c-0.2,1.4-2.4,8.8-2.4,8.8c1.8-2.2,6.7-2.1,6.7-2.1l-4.2,3.8"/>
	<path id="XMLID_123_" fill="#99BC77" stroke="#51722F" stroke-miterlimit="10" d="M28.2,421.5c-0.2-2.5-11-20.2-12-20.5
		c9,3.2,12.5,8.5,14,13.5c0.8-10.2-2.8-24.5-4.2-25.8c11,8,13.5,11.2,11,23.2c5.8-8.2,15-7,15-7c-8.5,6.2-10.8,14-10.8,14
		c4-4,10.8-7.5,10.8-7.5c0.2,1-5,10.8-5,10.8"/>
	<path id="XMLID_50_" fill="#99BC77" stroke="#51722F" stroke-miterlimit="10" d="M264.2,316.2c-0.2-0.5,6-5.5,6-5.5s-6.2-0.2-7.2,1
		c0,0,2.5-4.2,4.5-8.5c-4.2,0.8-11.8,7.2-12,8.8c0,0-1-6.8-2.5-8.8c0,0-1.2,6-2.2,7.2c0,0,0.5-7-1.8-10.5c0.5,0.8,0.8,4.8-0.8,8
		c0-1.2-4.5-6.5-6.8-8c0,0,1.5,3,0.8,6.2c0.2-0.8-5.2-6.2-7-7.2c0,0-0.2,6.2-1,6.8l-1-5.5c0,0-2,3-3.2,5c0,0-3-9.2-5-12
		c0,0-0.2,5.8-1.8,7.8s-2.8-9.2-3-10.5c0,0-2.2,3.2-3.2,3.8c0,0,0-3.2,1.8-6c0,0-5.2,3.5-5.2,8H79c0,0-3.5-6-6.2-9
		c0,0,0.8,7,0.8,7.8c0,0-0.8-3.2-2-4c0,0-0.2,3.5-0.5,5.8s-0.5-4.5-2.8-6c-0.2,3-6,5.2-6,5.2s0.2-1.5,2.8-5.8c0,0-6.2,3.8-6.8,6
		c0,0,0-2.5-1-6.2c0,0-2.5,4.5-2.8,5.5l-1.5-2.8c0,0-4,5-4.2,6c0,0-0.2-4,2.8-8.5c0,0-5.8,4-6.2,8.2c-0.2-1.8-2.8-6.5-5.5-10
		c0,0-0.8,6.5-1,6.5c0,0-0.5-3.2-1.2-5.8c0,0-3.8,5.2-4.2,6c0,0-1.5-3-2-4.5c0,0-6,4.8-6,4.5c0-0.8-0.2-3.8,1.8-7.2
		c0,0-4,4.5-5.2,7.5c0,0-0.8-2.2-3.2-6c0,0-0.2,5-1,5.8c0,0-1.8-3.5-2.5-5.5c0,0-1,2.5-2.8,3.5c0,0-0.5-2,1.8-6c0,0-5.5,4-6,8.5
		c0,0-1.5-3-5.2-5c0,0,1.5,2.8,1.5,5.2c0,0-1.2-3-4.2-4.8c0,7.1,0,15.4,0,15.4"/>
	<path id="XMLID_124_" fill="#99BC77" stroke="#51722F" stroke-miterlimit="10" d="M285.5,339.2c-0.8-4.2-4.8-10.2-4.8-10.2
		c4,2.8,7.5,9,7.5,9c0-3.8-10.5-15.5-4.8-13.2s7.8,9,7.8,9c1.5-5,7.8-7.8,7.8-7.8c-2,2.5-2.5,7.5-2.5,7.5c0.8-0.5,6.5-3.8,6.5-3.8
		c-0.5,1.5-6.2,9.8-6.2,9.8"/>
</g>
<g id="Layer_7">
	<path id="XMLID_139_" fill="#E2ACA3" stroke="#99615E" stroke-linecap="round" stroke-linejoin="round" stroke-miterlimit="10" d="
		M213.2,368.9c10.1,10.1,14.2,11,18.2,11.5c4.1,0.5,8.5-3.2,12.4-2.4c2.9,0.5-1.4,4.8-1.4,4.8c1.5-0.2,4.8-0.6,5.3,0.3
		c0.5,0.9-4.2,7.8-9,9.8c-4.8,2-8.1,2.6-11.6,2.3c-3.5-0.3-30.3-3.3-34.8-3.6C187.7,391.2,185.3,360.3,213.2,368.9z"/>
	<path id="XMLID_127_" fill="#E2ACA3" stroke="#99615E" stroke-linecap="round" stroke-linejoin="round" stroke-miterlimit="10" d="
		M80.1,355.2c-5.3,4.6-11.8,0.9-14,2.8c-2.2,1.8-17,7.6-18.1,12.4c3.2,3.2,5.5,2.1,5.5,2.1l-2.4,3.7c1.8,0.6,18.5,5.7,39.3-3.7
		C100,360.9,80.1,355.2,80.1,355.2z"/>
	<path id="XMLID_149_" fill="#E2ACA3" stroke="#99615E" stroke-linecap="round" stroke-linejoin="round" stroke-miterlimit="10" d="
		M218,386.9c3.6-0.8,7.3,1.1,4.4,3.2s-4.3,1-4.3,1"/>
	<path id="XMLID_151_" fill="#E2ACA3" stroke="#99615E" stroke-linecap="round" stroke-linejoin="round" stroke-miterlimit="10" d="
		M238.1,385.6c1.8-1.1,4.3-2.5,4.3-2.5"/>
	<path id="XMLID_142_" fill="#E2ACA3" stroke="#99615E" stroke-linecap="round" stroke-linejoin="round" stroke-miterlimit="10" d="
		M181.1,326.7c1.2-7.2,1.1-14-2.6-18.5c-3.6-4.5-4.2-8.1-0.3-6.6s16.9,6,19.7,14c2.9,8,3.8,17.9,0.8,20.3
		C195.3,337.9,181.1,326.7,181.1,326.7z"/>
	<g id="XMLID_150_">

			<path id="XMLID_153_" fill="#E2ACA3" stroke="#99615E" stroke-linecap="round" stroke-linejoin="round" stroke-miterlimit="10" d="
			M85.6,305.3c-0.2,0-0.4-0.1-0.6-0.2c-0.4-0.3-0.5-1-0.2-1.4c6.1-7.8,5.6-10.1,2.7-14.4c-0.7-1.1-2-1.8-3.5-2.1c0,0,0,0,0,0
			c0.5,3.1-0.4,7.2-3,8.6c-0.9,0.5-2.8,1.1-5.3-1c-2.3-1.9-2.4-3.7-2.1-4.9c0.7-2.6,4-4.3,6.9-4.8c0.2,0,0.5-0.1,0.7-0.1
			c-0.5-1-1.3-1.9-2.7-2.2c-2.7-0.6-5.1-0.2-6.5,1.2c-0.9,0.9-1.3,2.1-1.1,3.4c0.1,0.5-0.3,1.1-0.8,1.2c-0.5,0.1-1.1-0.3-1.2-0.8
			c-0.4-1.9,0.2-3.8,1.7-5.2c1.9-1.8,5-2.4,8.4-1.7c2.1,0.5,3.6,1.9,4.4,4.1c2.5,0.2,4.5,1.3,5.7,3.1c3.5,5.2,3.6,8.6-2.8,16.8
			C86.2,305.2,85.9,305.3,85.6,305.3z M82,287.1c-0.3,0-0.7,0.1-1,0.1c-2.7,0.4-4.9,1.8-5.3,3.3c-0.2,0.9,0.2,1.9,1.4,2.8
			c1.2,1,2.2,1.2,3,0.8c1.5-0.8,2.4-3.8,2-6.6C82.1,287.4,82.1,287.2,82,287.1z"/>
	</g>
	<path id="XMLID_126_" fill="#E2ACA3" stroke="#99615E" stroke-linecap="round" stroke-linejoin="round" stroke-miterlimit="10" d="
		M165,325.5c-18.5-39.9-71.7-37.2-85.6-23.6s-7.9,52,1.8,64.7c9.7,12.7,30.9,35.1,62.3,26.6C174.9,384.8,165,325.5,165,325.5z"/>
	<path id="XMLID_128_" fill="#E2ACA3" stroke="#99615E" stroke-linecap="round" stroke-linejoin="round" stroke-miterlimit="10" d="
		M95.7,336.4c-5.4,20-29.9,21.5-39.3,10.3c-17.5,7.6-30.3,7.2-34.3,2.7l3.1-3c-7.3-0.3-4.8-5.1,1.8-7.9c5.7-2.3,14-7,18-12.3
		c1.2-1.5,3.2-2.1,4.9-1.4c1.9,0.7,4.8,1.8,9.1,3.1c0.6-9.7,13.6-26.6,29.9-29.3"/>
	<path id="XMLID_129_" fill="#E2ACA3" stroke="#99615E" stroke-linecap="round" stroke-linejoin="round" stroke-miterlimit="10" d="
		M59.2,334.8c-0.6-5.5-0.1-6.9-0.1-6.9"/>
	<path id="XMLID_131_" fill="#E2ACA3" stroke="#99615E" stroke-linecap="round" stroke-linejoin="round" stroke-miterlimit="10" d="
		M138.8,361.4c-3.6-17,10-41.1,33.9-40.9c23.9,0.2,31.6,15.2,33.8,20.4c2.2,5.1,2.8,22,1.7,23.1c-1.1,1.1-15.8,25.9-17.3,25.7
		c-1.5-0.2-25.3-1.3-25.3-1.3C165,387.9,138.8,361.4,138.8,361.4z"/>

		<ellipse id="XMLID_140_" transform="matrix(0.9884 -0.1518 0.1518 0.9884 -49.8781 33.9969)" fill="#232020" stroke="#232020" stroke-linecap="round" stroke-linejoin="round" stroke-miterlimit="10" cx="197.8" cy="343.7" rx="1.3" ry="4"/>
	<path id="XMLID_130_" fill="#E2ACA3" stroke="#99615E" stroke-linecap="round" stroke-linejoin="round" stroke-miterlimit="10" d="
		M166.9,383.8c9.6,3.9,21.3,16.7,28.1,14.6c6.8-2.1,6.8-4.1,5.7-7.7c-1.1-3.6-3.2-5-2.6-7.4s6.5-11.1,7.8-12
		c1.4-0.9,9.3,1.8,11.6-0.2c2.3-2-0.9-17.3-5.6-20.3c-4.7-3-11.3-5-15.6-4.5c-4.4,0.5-8.6,3.6-9.9,7.4"/>
	<path id="XMLID_132_" fill="#CC7E71" stroke="#99615E" stroke-linecap="round" stroke-linejoin="round" stroke-miterlimit="10" d="
		M170.4,368.1c2.6,5.6,9.8,27.9,27.3,24.3c-2-3.5-4.7-9-3.3-11.6c1.4-2.6,5.4-7.1,5.4-7.1C190.1,376.9,180.4,370.3,170.4,368.1z"/>
	<path id="XMLID_134_" fill="none" stroke="#99615E" stroke-linecap="round" stroke-linejoin="round" stroke-miterlimit="10" d="
		M165.6,369.6c4.8-2.1,9-3,10.8-2.4"/>
	<path id="XMLID_135_" fill="#E2ACA3" stroke="#99615E" stroke-linecap="round" stroke-linejoin="round" stroke-miterlimit="10" d="
		M199.8,373.8c3.2-1.8,5.7-2.9,7.4-2.9"/>
	<path id="XMLID_137_" fill="#C17267" stroke="#994C44" stroke-linecap="round" stroke-linejoin="round" stroke-miterlimit="10" d="
		M207.6,349c-5.4,0-11.4,5.1-12.8,9c-1.4,3.9-5.9,10.8-1.2,12.9c4.7,2.1,11.3-5,15-3.2c3.8,1.8,7.5,5.7,9.8,3.5
		c2.3-2.3,0.3-10.2-2.1-14.4S214.1,349,207.6,349z"/>
	<path id="XMLID_136_" fill="#7A3632" stroke="#7A3632" stroke-linecap="round" stroke-linejoin="round" stroke-miterlimit="10" d="
		M203.1,355.7c-2,1.4-5.6,8.9-3.8,9.8c1.8,0.9,1.7-1.2,1.7-1.8S203.1,355.7,203.1,355.7z"/>
	<path id="XMLID_133_" fill="#7A3632" stroke="#7A3632" stroke-linecap="round" stroke-linejoin="round" stroke-miterlimit="10" d="
		M210.5,355.4c-0.9-3.7,5.1,8.9,3.5,9.9S211.8,361,210.5,355.4z"/>

		<ellipse id="XMLID_138_" transform="matrix(0.9884 -0.1518 0.1518 0.9884 -50.9096 30.3565)" fill="#232020" stroke="#232020" stroke-linecap="round" stroke-linejoin="round" stroke-miterlimit="10" cx="173.4" cy="348.7" rx="1.3" ry="4"/>
	<path id="XMLID_141_" fill="#CC7E71" stroke="#8E483F" stroke-linecap="round" stroke-linejoin="round" stroke-miterlimit="10" d="
		M185.5,375.3c1.6,2.4,2.1,7.6,1.8,9.1"/>
	<path id="XMLID_143_" fill="none" stroke="#99615E" stroke-linecap="round" stroke-linejoin="round" stroke-miterlimit="10" d="
		M169.3,323.9c0-3-2.6-12.1-8.6-14.6"/>
	<path id="XMLID_144_" fill="none" stroke="#99615E" stroke-linecap="round" stroke-linejoin="round" stroke-miterlimit="10" d="
		M169.6,312.3c3,3.9,2.9,8.7,2.4,10.2"/>
	<path id="XMLID_145_" fill="#E2ACA3" stroke="#99615E" stroke-linecap="round" stroke-linejoin="round" stroke-miterlimit="10" d="
		M157.3,329.9c0.3-6.3-0.3-11.2-5.6-14.3s-18.4-9.2-21.4-10.1c-3-0.9-5.1,5.4,2.4,14c7.5,8.6,6.5,12.1,7.4,18.2
		c0.9,6.2,6.2,8.3,6.2,8.3"/>
	<path id="XMLID_146_" fill="#E2ACA3" stroke="#99615E" stroke-linecap="round" stroke-linejoin="round" stroke-miterlimit="10" d="
		M143,315.7c0,10.2,6.6,17.5,9.2,19.6"/>
	<path id="XMLID_147_" fill="#E2ACA3" stroke="#99615E" stroke-linecap="round" stroke-linejoin="round" stroke-miterlimit="10" d="
		M131.2,355.5c13.1,1.8,35.1,28.9,38.9,40.1c3.8,5.7,17.6,8.9,20.8,9.8s-1.7,5.6-6,6.6c5.4,2.1,6.8,2.9,6.8,2.9
		c-4.1,4.5-12.3,7.4-27.1,3c-6-1.8-15.1-6.5-17.9-8s-30-17.6-32.1-44.2"/>
	<path id="XMLID_148_" fill="#E2ACA3" stroke="#99615E" stroke-linecap="round" stroke-linejoin="round" stroke-miterlimit="10" d="
		M180.8,409.3c1.4,1.7,4.1,2.7,4.1,2.7"/>
</g>
</svg>
