<?xml version="1.0" encoding="utf-8"?>
<!-- Generator: Adobe Illustrator 19.0.0, SVG Export Plug-In . SVG Version: 6.00 Build 0)  -->
<!DOCTYPE svg PUBLIC "-//W3C//DTD SVG 1.0//EN" "http://www.w3.org/TR/2001/REC-SVG-20010904/DTD/svg10.dtd">
<svg version="1.0" xmlns="http://www.w3.org/2000/svg" xmlns:xlink="http://www.w3.org/1999/xlink" x="0px" y="0px"
	 viewBox="0 0 648 432" enable-background="new 0 0 648 432" xml:space="preserve">
<g id="Layer_5">
	<rect id="XMLID_124_" fill="#B9E4EF" width="648" height="331.1"/>
</g>
<g id="Layer_2">
	<path id="XMLID_140_" fill="#6F798C" stroke="#605275" stroke-miterlimit="10" d="M27.5,117.9c-0.3-2.1-3.3-32.3-3.3-32.3l12.4-1.5
		L60,83.2l-0.6-26.8L92,54.8l2.7,48.2L27.5,117.9z"/>
	<path id="XMLID_8_" fill="#6F798C" stroke="#605275" stroke-miterlimit="10" d="M128.6,86.9l-3.5,52.2c0,0-16.7-1.7-16.7-2.6
		c0-0.9,5.2-47.9,5.2-47.9L128.6,86.9z"/>
	<path id="XMLID_7_" fill="#6F798C" stroke="#605275" stroke-miterlimit="10" d="M108.9,65.8C109.5,65,121.6,50,121.6,50l11.8,38.9
		c0,0-22.2,4.3-24.8,3.7C106.1,92.1,108.9,65.8,108.9,65.8z"/>
	<path id="XMLID_5_" fill="#6F798C" stroke="#605275" stroke-miterlimit="10" d="M103.2,47.1c-0.3,1.7-1.4,40.4-1.4,40.4l11-2.3
		L111,47.4L103.2,47.1z"/>
	<path id="XMLID_3_" fill="#848DA3" stroke="#605275" stroke-miterlimit="10" d="M23,150.6c-0.3-1.4-0.9-39.5-0.9-39.5l10.4-2
		l-1.2-35.8l-4.9-0.3L36.3,52l9.2,21.6H40l2.3,24.5l11.2-0.3l-0.6-41h-5.8l-1.4-27.1l-3.5,0.3L54.4,8.4l14.1,21.9l-4-0.3v38.4h8.7
		l0.6,8.7l8.1,0.3l-0.3-8.9l6.3-0.3l0.9,9.2l8.1-0.3l-0.6-9.8l8.7,0.6l-0.3,8.9h6.3l-0.3-9.2l9.2,0.6l-2.3,71.2L23,150.6z"/>
	<path id="XMLID_6_" fill="#6F798C" stroke="#605275" stroke-miterlimit="10" d="M106.3,27.2c-1.4,3.5-6.6,22.8-6.6,22.8
		c5.8,2,13.8-0.3,13.8-0.3L106.3,27.2z"/>
	<path id="XMLID_2_" fill="#9284A5" stroke="#605275" stroke-miterlimit="10" d="M237.5,164.6c28.9-12.9,59.9-38.2,71.3-36.1
		c16.5,2.1,44.9,31,71.3,36.1c26.3,5.2,90.9-32.5,99.7-32c8.8,0.5,41.3,16.5,55.2,19.6c13.9,3.1,52.7,2.1,55.2-0.5
		c2.6-2.6,49.6-26.3,57.8-18.6c0,61.4,0,95,0,95l-424.4,29.9c0,0-92.9-32.5-91.4-33.6S237.5,164.6,237.5,164.6z"/>
	<path id="XMLID_10_" fill="#5D667A" stroke="#605275" stroke-miterlimit="10" d="M70.9,131c-1.2-21.1,0.3-27.4,10.1-27.4
		c9.5,0,8.9,11.2,8.9,27.7C73.8,131,70.9,131,70.9,131z"/>
	<path id="XMLID_156_" opacity="0.32" fill="#85CAE8" stroke="#85CAE8" stroke-miterlimit="10" d="M128.4,89.9c3-0.6,5.1-1,5.1-1
		L121.6,50c0,0-6.2,7.7-10,12.4l-0.6-12.2c1.5-0.3,2.5-0.6,2.5-0.6l-7.2-22.5c-1.4,3.5-6.6,22.8-6.6,22.8c1,0.4,2.1,0.6,3.3,0.7
		c-0.2,3.9-0.4,10.5-0.6,17l-6.1-0.4l0.6,9.8l-3.6,0.1L92,54.8l-27.5,1.3v-26l4,0.3L54.4,8.4L42.3,30.1l3.5-0.3l1.4,27.1H53
		l0.4,26.5L41,83.9l-1-10.3h5.5L36.3,52l-9.8,21.1l4.9,0.3l0.4,11.3l-7.5,0.9c0,0,1.5,15.1,2.5,24.7l-4.5,0.9c0,0,0.6,38.1,0.9,39.5
		l94.6-11.2l0-1.1c3.9,0.5,7.5,0.9,7.5,0.9L128.4,89.9z"/>
	<path id="XMLID_4_" fill="#B3E0CD" stroke="#86BFA5" stroke-miterlimit="10" d="M0,159.5c30.5-25.3,63-35.1,98.6-31
		c35.6,4.1,81.6,38.7,83.6,39.2c1.5,2.6-48,35.6-51.1,35.1S0,201.8,0,201.8S-0.6,159.9,0,159.5z"/>
	<path id="XMLID_11_" fill="#5D667A" stroke="#605275" stroke-miterlimit="10" d="M52.7,43.8c0.6,0,4.7,0,4.7,0
		c-0.6-7.9-0.5-7.9-2.2-8C53.2,35.7,52.3,36.9,52.7,43.8z"/>
	<path id="XMLID_12_" fill="#5D667A" stroke="#605275" stroke-miterlimit="10" d="M92.4,93.8c0.9,0,6.6,0,6.6,0
		c-0.9-11.2-0.7-11.3-3.1-11.4C93.1,82.2,91.9,84,92.4,93.8z"/>
	<path id="XMLID_9_" fill="#CBEFE1" stroke="#7BAF98" stroke-miterlimit="10" d="M73.4,127.4c2,2.6,9.4,39.5,6.1,51.5
		c12.6,5.8,23.1-1.2,23.1-1.2c-1.8-25.4-13.4-50.5-13.4-50.5L73.4,127.4z"/>
	<path id="XMLID_13_" fill="#AED3B0" stroke="#86AD86" stroke-miterlimit="10" d="M-10.2,184c20.5-15.8,150.3-18.6,192.1,13.9
		c64.6-25.4,151.5-32.5,186-8.8c33.6,22.2,287.8-1,287.8-1s-2.2,117.7-3.1,116.8C651.7,304-11.2,268-11.2,268L-10.2,184z"/>
	<path id="XMLID_14_" fill="#E2DCA1" stroke="#AFA874" stroke-miterlimit="10" d="M37.4,173.3c-13.5,13.2-27.2,53.2-19.9,78.1
		c22.5,13.2,42.1-12.3,42.1-12.3c-9.9-25.4-3.8-51.8,2-67.3C40.3,172.8,37.4,173.3,37.4,173.3z"/>
	<path id="XMLID_16_" fill="#90B583" stroke="#597C4E" stroke-miterlimit="10" d="M-12.3,261.9c35-27.1,164.3-48.4,213.5-44.4
		c49.1,4.1,144.5,38.6,153.5,51.2c45.9,33.6,181.8,8,181.8,8c45.5-17.6,98.8-17,119.2-6.6c0,120.7,1,166,1,166l-661.8-1
		C-5.1,435-13.8,263.1-12.3,261.9z"/>
	<path id="XMLID_15_" fill="#DBC283" stroke="#7F662F" stroke-miterlimit="10" d="M39.7,238.3C61.7,239.7,123,261,147,301
		s24,94.7,99.3,131c160,0,401.7-1.1,401.7-1.1v-73.2c-90.3,4-146.3-24-168.3-33.3C457.7,315,314.3,277,293,275s-88.7-57.3-130-58
		S41.7,237,39.7,238.3z"/>
	<path id="XMLID_18_" fill="#90B583" stroke="#597C4E" stroke-miterlimit="10" d="M57.7,328.3c0.7-13.3-7.3-34.7-7.3-34.7
		c8.7,6.7,14,28,14,28C65,311,75,300.3,75,300.3c-3.3,10.7-3.3,19.3-3.3,19.3c4-6,14-16.7,14-16.7c-3.3,9.3-10,30.7-10,30.7"/>
	<path id="XMLID_19_" fill="#90B583" stroke="#597C4E" stroke-miterlimit="10" d="M113.7,403.7c-0.7-4.7-8.7-24-8.7-24
		c10,8.7,12,16.7,12,16.7c4-12-7.3-31.3-7.3-31.3c12,14.7,15.3,26.7,15.3,26.7c-0.7-4.7,8.7-21.3,8.7-21.3c-1.3,4-4,22-4,22"/>
	<path id="XMLID_17_" fill="#90B583" stroke="#597C4E" stroke-miterlimit="10" d="M22.3,382.3c0.7-8.7-4.7-26-4.7-26
		C27,365,29,371.7,29,371.7c0.7-10,6.7-15.3,6.7-15.3c-1.3,2.7-2.7,24-2.7,24"/>
	<path id="XMLID_20_" fill="#90B583" stroke="#597C4E" stroke-miterlimit="10" d="M580.3,274.3c-1.3-4-5.3-18.7-5.3-18.7
		c6.7,7.3,8.7,16.7,8.7,16.7c0.7-6,1.3-16,1.3-16c0,4.7,2.7,14,2.7,14c0-5.3,14-17.3,14-17.3c-4.7,8.7-6.7,19.3-7.3,20.7"/>
	<path id="XMLID_21_" fill="#90B583" stroke="#597C4E" stroke-miterlimit="10" d="M625.7,307c0-10-4.7-23.3-4.7-23.3
		c7.3,10,10.7,18.7,10.7,18.7c-0.7-6.7,6-20,6-20c-2,14,0,22,0,22"/>
	<path id="XMLID_22_" fill="#90B583" stroke="#597C4E" stroke-miterlimit="10" d="M565,333.7c-0.7-8-6.7-18.7-6.7-18.7
		c9.3,6.7,10,12.7,10,12.7c1.3-6,10-18.7,10-18.7c-2,6-4,18-4,18l11.3-5.3L579,335"/>
	<path id="XMLID_136_" fill="#DBC283" stroke="#7F662F" stroke-miterlimit="10" d="M588.2,399.1c13.4-5.5,26.8-6.3,40.2-2.4"/>
	<path id="XMLID_137_" fill="#DBC283" stroke="#7F662F" stroke-miterlimit="10" d="M633.1,381.8c-10.2-3.1-27.6,4.7-27.6,4.7"/>
</g>
<g id="Layer_3">
	<path id="XMLID_37_" fill="#352E29" stroke="#231F20" stroke-linecap="round" stroke-linejoin="round" stroke-miterlimit="10" d="
		M216.7,249c-5.8,0.6-10.9,4.2-10.9,4.2c0,3.3,2.7,9.7,2.7,9.7s7.3,1.2,13.7-8.2C219.8,248.3,216.7,249,216.7,249z"/>
	<path id="XMLID_35_" fill="#352E29" stroke="#231F20" stroke-linecap="round" stroke-linejoin="round" stroke-miterlimit="10" d="
		M140.2,249.9c2.4,3,2.4,10,2.4,10c10.3,3.6,13.7,0.3,13.7,0.3c-1.5-4.6-6.1-12.4-6.1-12.4L140.2,249.9z"/>
	<path id="XMLID_32_" fill="#995629" stroke="#562F15" stroke-linecap="round" stroke-linejoin="round" stroke-miterlimit="10" d="
		M214,215.6c14,10.9,25.8,13.1,25.8,17.6c0,4.6-15.5,24.6-22.8,27.3c2.7-4.6,3.3-7,3.3-7c-4.2,2.7-7.3,3.9-7.3,3.9
		c2.7-3,3.9-6.1,3.9-6.1c-2.1-0.6-6.1-0.3-6.1-0.3c2.1-2.7,3-4.2,6.7-4.6s7.6-10,7.6-10c-5.5-0.6-27-6.7-27.9-7.6
		C196.4,228,213.7,215.6,214,215.6z"/>
	<path id="XMLID_30_" fill="#995629" stroke="#562F15" stroke-linecap="round" stroke-linejoin="round" stroke-miterlimit="10" d="
		M139,204.9c-3,11.2-8.2,19.1-8.2,19.1c1.2,2.7,8.5,18.8,9.1,21.2c-1.2,3-3.9,3.6-1.2,5.5c2.7,1.8,4.6,4.6,4.6,4.6
		c-0.6-4.2,0.6-5.2,0.6-5.2c1.8,2.4,4.6,5.5,5.5,5.5c-0.9-2.7-1.2-4.2-1.2-4.2c1.2,0.3,6.7,2.1,6.7,2.1
		c-9.7-16.7-11.8-26.1-12.1-27.6c0.6-3.3,12.7-20,12.7-20L139,204.9z"/>
	<path id="XMLID_29_" fill="#995629" stroke="#562F15" stroke-linecap="round" stroke-linejoin="round" stroke-miterlimit="10" d="
		M218.2,184c4.9,12.1,5.2,30.1,5.2,30.1c-4.9,9.4-28.2,20.6-35.8,20s-14.3-4.6-14.3-4.6c-14.9,1.5-38.6-4.6-44.6-26.4
		c-7-21.6,3.6-28.8,7.3-30.7s52.5,4.2,52.5,4.2L218.2,184z"/>
	<path id="XMLID_27_" fill="#995629" stroke="#562F15" stroke-linecap="round" stroke-linejoin="round" stroke-miterlimit="10" d="
		M242.8,132.3c6-9.9,19.2-11.4,21.3-15c-6.2,20-9.8,20-15.3,21"/>
	<path id="XMLID_24_" fill="#995629" stroke="#562F15" stroke-linecap="round" stroke-linejoin="round" stroke-miterlimit="10" d="
		M188.5,180c9.3-13,30.1-46.8,30.4-48.3c3.4-4.3,15.5-11.5,25.4-4.3c9.9,7.1,11.5,13.9,11.2,19.2c-0.3,5.3-3.4,13.9-0.9,19.8
		s11.2,8.4-0.3,22c-11.5,4.3-15.5-4.6-18.3-11.8s-8.1-7.4-8.1-7.4c-1.9,3.4-8.4,27-8.4,27"/>
	<path id="XMLID_23_" fill="#995629" stroke="#562F15" stroke-linecap="round" stroke-linejoin="round" stroke-miterlimit="10" d="
		M223.8,144.3c-5,6.8-5.6,15.5-3.7,17.7c1.9,2.2,5.3,5.6,7.7,7.1"/>
	<path id="XMLID_49_" fill="#593524" stroke="#E2BEAA" stroke-linecap="round" stroke-linejoin="round" stroke-miterlimit="10" d="
		M124.2,169.7c13.2-15-14-25.2-28.5-10.2c3.7-1.6,6.7-1.2,6.7-1.2c-7.5,2.6-12.4,11-13.2,14s-5.1,10-8.3,11.6
		c-3.3,1.4-28.3,10.6-31.3,20.7c4.5-4.7,9.6-5.7,9.6-5.7c-4.3,3.1-7.7,8.1-7.7,12.8c1.8-3.7,21.3-4.5,29.3-12.8
		c-3.5,5.5-5.3,6.7-5.3,6.7c9.3-1,28.3-6.9,35.8-20.7C118.9,171.1,124.2,169.7,124.2,169.7z"/>
	<path id="XMLID_50_" fill="#593524" stroke="#E2BEAA" stroke-linecap="round" stroke-linejoin="round" stroke-miterlimit="10" d="
		M121.5,169.7c-2.6-9.6-13.6-10-19.5-5.7"/>
	<path id="XMLID_51_" fill="#593524" stroke="#E2BEAA" stroke-linecap="round" stroke-linejoin="round" stroke-miterlimit="10" d="
		M87,188.4c6.5-9.4,24.8-28.9,30.7-12.4"/>
	<path id="XMLID_34_" fill="#352E29" stroke="#231F20" stroke-linecap="round" stroke-linejoin="round" stroke-miterlimit="10" d="
		M104.1,242.3c-1.2,2.7-7.3,6.1-7.3,6.1c7,10.9,7.3,9.1,9.7,9.7c4.9-7.6,6.4-12.7,6.4-12.7L104.1,242.3z"/>
	<path id="XMLID_36_" fill="#352E29" stroke="#231F20" stroke-linecap="round" stroke-linejoin="round" stroke-miterlimit="10" d="
		M193.3,277.5c1.5,6.4,1.5,11.8,1.8,12.7c6.1,2.7,13.4,0.3,13.4,0.3c-1.2-4.9-5.8-14.3-5.8-14.3L193.3,277.5z"/>
	<path id="XMLID_66_" fill="#767F40" stroke="#465118" stroke-linecap="round" stroke-linejoin="round" stroke-miterlimit="10" d="
		M176.4,143.2c1.7,3.9,8,13.1,13.4,13.2c-6,3.8-7.9,5.4-7.9,5.4c-5.4-0.6-11.4-13.1-11.4-15.9C170.6,143,176.4,143.2,176.4,143.2z"
		/>
	<path id="XMLID_25_" fill="#B76762" stroke="#75362E" stroke-linecap="round" stroke-linejoin="round" stroke-miterlimit="10" d="
		M224.4,131.1c-1.4-20.9,7.8-18.7,10.4-23.2c3.4,14.5-0.5,22.4-3.9,24.7"/>
	<path id="XMLID_28_" fill="#995629" stroke="#562F15" stroke-linecap="round" stroke-linejoin="round" stroke-miterlimit="10" d="
		M144.2,169.1c-15.2-7.3-24.9-3.9-35.8,14.9s-0.3,27-0.3,27c-8.2-5.5-10.9-6.1-10-0.9c0.9,5.2,7.3,22.2,6.4,24.6
		c-0.9,2.4-4.6,5.5-3.6,7c0.9,1.5,2.1,3.3,2.1,3.3c-2.1,1.2-2.1,1.2-2.1,1.2c4.2,0.6,5.5-1.5,5.5-1.5c0.3,3.9,2.4,6.4,2.4,6.4
		c0-3.3,0.9-4.9,0.9-4.9c0.9,3.3,2.4,6.4,2.4,6.4c2.1-7.9,4.2-7.9,3.6-11.8C115,236.8,112,218,112,218c10,5.5,23.1-3.6,23.4-24"/>
	<path id="XMLID_31_" fill="#995629" stroke="#562F15" stroke-linecap="round" stroke-linejoin="round" stroke-miterlimit="10" d="
		M105.9,213.7c3.9,3.6,6.1,4.2,6.1,4.2"/>
	<path id="XMLID_67_" fill="#687F4F" stroke="#445634" stroke-linecap="round" stroke-linejoin="round" stroke-miterlimit="10" d="
		M144.8,175.5c-9.3,7.8-7.8,27.7-7.8,27.7c7.9,7.2,32.9,8.9,32.9,8.9c1-13.9,9.3-29.9,15.8-35.7c-27.7-3.6-39-3.9-39-3.9
		L144.8,175.5z"/>
	<path id="XMLID_65_" fill="#442D1E" stroke="#2B1A11" stroke-linecap="round" stroke-linejoin="round" stroke-miterlimit="10" d="
		M151.3,198.7c-0.8,1.2-9.1,12-9.1,12c1.7,6.2,11.7,11.3,13.3,10.1c1.6-1.1-3-9.1-3-9.1c0.1-0.3,4.5-8.5,4.5-8.5L151.3,198.7z"/>
	<path id="XMLID_63_" fill="#9E7B63" stroke="#3D2718" stroke-linecap="round" stroke-linejoin="round" stroke-miterlimit="10" d="
		M149.5,160.7c-5.6,3.3-12.4,11-7.6,16.9c4.8,5.9,9.5,11.4,9.8,14c0.3,2.7-0.9,5-1.7,7c-0.8,2,5.9,6.6,6.2,6.5
		c3.8-2.3,8.6-5.5,9.4-9c0.8-3.6-6-18.3-7.9-20.2c4.6-1.9,12.9-1.7,12.9-1.7l7.9,1.2l-6.5-12.9L149.5,160.7z"/>
	<path id="XMLID_26_" fill="#995629" stroke="#562F15" stroke-linecap="round" stroke-linejoin="round" stroke-miterlimit="10" d="
		M224.7,134.4c-3.7-7.2-2.9-12,1.1-17.4c2.4,4.9,0.7,15.3,0.5,15.8"/>
	<path id="XMLID_39_" fill="#593524" stroke="#E2BEAA" stroke-linecap="round" stroke-linejoin="round" stroke-miterlimit="10" d="
		M222.8,128.3c-6.8-1.6-12.7,9.5-26.7,5.9c5.7,4.3,9.7,4.5,9.7,4.5c-17.2,4.1-34.6,21-26,16.7c8.6-4.3,12.4-4.7,12.4-4.7
		c-6.8,3.8-16.3,14.7-21.3,14c5.4,3.2,13.1,3.6,13.1,3.6c-3.2,0-12,5-12,5c2.3,2.7,12,10.2,20.3,5.4c8.4-4.7,11.1-16.7,11.1-16.7
		c3.4-1.4,8.4-12,8.4-12C215.5,148.2,222.8,128.3,222.8,128.3z"/>
	<path id="XMLID_40_" fill="#593524" stroke="#E2BEAA" stroke-linecap="round" stroke-linejoin="round" stroke-miterlimit="10" d="
		M187,166.8c6.3,1.1,16.5-4.7,16.5-4.7"/>
	<path id="XMLID_41_" fill="#593524" stroke="#E2BEAA" stroke-linecap="round" stroke-linejoin="round" stroke-miterlimit="10" d="
		M199.9,153.6c3.4,0.9,12-3.6,12-3.6"/>
	<path id="XMLID_48_" fill="#747B7F" stroke="#40474C" stroke-linecap="round" stroke-linejoin="round" stroke-miterlimit="10" d="
		M247.6,144.2c-2.8,1.4-9.4,12.2-3,19.7c5.1,2.8,7.3,1.8,7.9,1.4C254.3,161.1,258.1,148.7,247.6,144.2z"/>
	<path id="XMLID_33_" fill="#995629" stroke="#562F15" stroke-linecap="round" stroke-linejoin="round" stroke-miterlimit="10" d="
		M187.6,188.9c8.8,10,12.1,22.2,11.8,25.8c-0.3,3.6-7.3,14.6-7.3,14.6c3.6,21.9,8.5,39.8,14.3,51.6c-2.1,0.9-4.9-1.8-4.9-1.8
		c1.5,3.6-0.3,6.4-0.3,6.4c-1.8-3.3-4.2-7.6-4.2-7.6c-1.2,2.1-2.1,7.6-2.1,7.6c-1.8-5.5-1.8-5.5-1.8-5.5s-5.2,0.9-3.3-5.5
		s-4.2-24.9-6.4-29.1s-14.6-26.1-15.5-31.3"/>
	<path id="XMLID_42_" fill="none" stroke="#231F20" stroke-linecap="round" stroke-linejoin="round" stroke-miterlimit="10" d="
		M244.5,174c2.5,2.3,3.8,3.6,3.6,6.8"/>
	<path id="XMLID_43_" fill="#747B7F" stroke="#40474C" stroke-linecap="round" stroke-linejoin="round" stroke-miterlimit="10" d="
		M233.7,170.9c2.6-4.7,11.2-11,21.1-7.1c1.2,2.8,2.6,5.3,2.6,5.3c-4.3-1.4-11.2-1.8-20.1,6.1C234.6,173.3,233.7,170.9,233.7,170.9z"
		/>

		<ellipse id="XMLID_44_" transform="matrix(0.9682 0.2502 -0.2502 0.9682 45.4467 -53.8298)" fill="#231F20" stroke="#231F20" stroke-linecap="round" stroke-linejoin="round" stroke-miterlimit="10" cx="234.4" cy="151.8" rx="0.8" ry="3"/>
	<path id="XMLID_46_" fill="#747B7F" stroke="#40474C" stroke-linecap="round" stroke-linejoin="round" stroke-miterlimit="10" d="
		M236.6,124.3c-5.9-1-6.7,1.6-5.1,5.5c1.6,3.9,10.8,16.3,15.4,16.9c4.5,0.6,9.9-7.2,5.7-12C241.3,121.7,236.6,124.3,236.6,124.3z"/>
	<path id="XMLID_59_" fill="#767F40" stroke="#465118" stroke-linecap="round" stroke-linejoin="round" stroke-miterlimit="10" d="
		M174.4,142.8c0.6,7.2-1.6,20.2-1.6,20.2c-0.4,0.6-22.2,1.6-23.9-0.8c-1.4-2.8-3.7-16.7-2.3-21C148,137,174.4,142.8,174.4,142.8z"/>
	<path id="XMLID_68_" fill="#AA9255" stroke="#89703A" stroke-linecap="round" stroke-linejoin="round" stroke-miterlimit="10" d="
		M166.2,155.7c6,2.7,16.3,2.1,20,1.3c-2.7,2.7-4.5,3.2-4.5,3.2c-3.5,1.7-14.4,0.3-15.7-0.9S166.2,155.7,166.2,155.7z"/>
	<path id="XMLID_45_" fill="#AA9255" stroke="#89703A" stroke-linecap="round" stroke-linejoin="round" stroke-miterlimit="10" d="
		M232.9,174.1c-5.7,8.7-52.4,34.2-69.3-10c0-4.7-3.3-5.9-3.3-5.9c-1.6,6.5,5,35.2,39.4,35c14.6-0.2,28.1-5.7,36.2-18.1
		C234.6,173.1,232.9,174.1,232.9,174.1z"/>
	<path id="XMLID_62_" fill="#D3A17F" stroke="#632D23" stroke-linecap="round" stroke-linejoin="round" stroke-miterlimit="10" d="
		M156.1,155.8c3.9-1.1,7.7-4.2,9.6-2.3c1.9,1.9,7.4,6.6,2.5,9.7s-6.7-0.8-7.7-3.2s-4.7-0.4-4.7-0.4L156.1,155.8z"/>

		<ellipse id="XMLID_38_" fill="#747B7F" stroke="#40474C" stroke-linecap="round" stroke-linejoin="round" stroke-miterlimit="10" cx="234.6" cy="172.6" rx="3.5" ry="4.4"/>
	<path id="XMLID_61_" fill="#767F40" stroke="#465118" stroke-linecap="round" stroke-linejoin="round" stroke-miterlimit="10" d="
		M144.6,137c-4,4-8.4,11.4-5,18.2c3.3,6.8,17.7,5.2,18.1,4.8c-0.2-2.3,0.2-5,0.2-5c-6.4,0-13.3-1.7-8.3-13.2
		C146.7,136.1,144.6,137,144.6,137z"/>
	<path id="XMLID_60_" fill="#9E9D6D" stroke="#68663E" stroke-linecap="round" stroke-linejoin="round" stroke-miterlimit="10" d="
		M161.6,127.7c-8.5-2-11.8,1.2-14.2,3.7s-6.4,6.4-6.4,6.4c5,8.6,27,20,38,6.2c-6.6-14.2-7.6-14.6-8.1-14.8
		C170.4,128.9,161.6,127.7,161.6,127.7z"/>
	<path id="XMLID_64_" fill="none" stroke="#231F20" stroke-linecap="round" stroke-linejoin="round" stroke-miterlimit="10" d="
		M151,219.9l-6.1,0.6c0,0-2.3-1.3-1.4-3c1.4-9.3,8.3-9.5,10.9-8.6c2.1,0.7,3.6,7.6,3.5,9.9c-2.2,0.6-2.2,0.6-2.2,0.6"/>
	<path id="XMLID_56_" fill="#D3A17F" stroke="#632D23" stroke-linecap="round" stroke-linejoin="round" stroke-miterlimit="10" d="
		M161.1,124.3c-0.2,0.6-1.6,4.1-1.6,4.1c1.6,3.7,6.2,3.6,8,2.2c1.1-4.8,1.4-5.4,1.4-5.4L161.1,124.3z"/>
	<path id="XMLID_52_" fill="#D3A17F" stroke="#632D23" stroke-linecap="round" stroke-linejoin="round" stroke-miterlimit="10" d="
		M175.4,98c1.1,7.3,2.4,7.8,3.3,13.4c0.9,5.6,0.4,15.8-8.5,16.8c-8.9,1-14.8-5.5-15.8-12.5c-1-7-2.2-14.2-2.2-14.2
		S165.1,84.4,175.4,98z"/>
	<path id="XMLID_53_" fill="#70532E" stroke="#423015" stroke-linecap="round" stroke-linejoin="round" stroke-miterlimit="10" d="
		M152.7,109.8c1.7-0.7,3.4-6.5,3.4-6.5c0.6,1.6,0.3,5.3,0.3,5.3c3.3-3.3,5.9-11.2,5.5-12.1c2.4,4.3,8.3,7.5,7.9,7.5
		c-1.3-2.3-2.6-7-2.6-7c2.3,3.6,12.5,7.3,12.5,7.3c0.6-4.3-0.4-6.9-0.4-6.9c1.7,2,3.2,4,3.2,4c0.7-6.6-6.9-16.7-21.4-11.6
		c1-2,1.7-3.2,1.7-3.2c-7.8,2.6-10.1,6.3-9.2,8.9c-9.6,2.7-10.1,9.5-8.3,13.8c1.7,4.3,5.5,9.6,5.5,9.6c-0.9,1.9-2.6,1.7-2.6,1.7
		c2.6,1.3,5.2,0.1,5.2,0.1c-0.6,1.9-1.9,3.6-1.9,3.6c2.3-0.3,5.3-2.3,5.3-2.3L152.7,109.8z"/>
	<path id="XMLID_47_" fill="#D3A17F" stroke="#632D23" stroke-linecap="round" stroke-linejoin="round" stroke-miterlimit="10" d="
		M155.2,111.6c-4-3.3-7.8-0.2-4,4.3c3,3.6,5.5,0.6,5.5,0.6"/>
	<path id="XMLID_55_" fill="#D3A17F" stroke="#632D23" stroke-linecap="round" stroke-linejoin="round" stroke-miterlimit="10" d="
		M168.7,111.1c0.3,1.3,3.2,2.7,1.7,5"/>

		<ellipse id="XMLID_54_" transform="matrix(0.996 -8.981932e-02 8.981932e-02 0.996 -9.2803 15.074)" fill="none" stroke="#231F20" stroke-linecap="round" stroke-linejoin="round" stroke-miterlimit="10" cx="162.8" cy="110.6" rx="0.4" ry="1.9"/>

		<ellipse id="XMLID_57_" transform="matrix(0.996 -8.981932e-02 8.981932e-02 0.996 -9.1618 15.9216)" fill="none" stroke="#231F20" stroke-linecap="round" stroke-linejoin="round" stroke-miterlimit="10" cx="172.3" cy="109.8" rx="0.4" ry="1.9"/>
	<path id="XMLID_58_" fill="none" stroke="#231F20" stroke-linecap="round" stroke-linejoin="round" stroke-miterlimit="10" d="
		M163.2,119c1.7,1.9,7.2,3.7,9.7,0.3"/>
	<path id="XMLID_141_" fill="none" stroke="#231F20" stroke-linecap="round" stroke-linejoin="round" stroke-miterlimit="10" d="
		M163.7,104.4c-1.2-0.4-3.7,1.2-4.1,3.1"/>
	<path id="XMLID_142_" fill="none" stroke="#231F20" stroke-linecap="round" stroke-linejoin="round" stroke-miterlimit="10" d="
		M171.1,104.4c1.2-0.6,3.1,0.4,3.7,1.6"/>
</g>
<g id="Layer_4">
	<path id="XMLID_93_" fill="#9B2F2F" stroke="#660E0E" stroke-linecap="round" stroke-linejoin="round" stroke-miterlimit="10" d="
		M461.9,150.3c6.1,18.4,28.5,40.2,28.5,40.2c-4.5,4.5-22.6,12.8-22.6,12.8c-10.1-9.8-21.8-27.9-21.8-27.9S438.7,148.2,461.9,150.3z"
		/>
	<path id="XMLID_115_" fill="#D9E3E8" stroke="#46525B" stroke-linecap="round" stroke-linejoin="round" stroke-miterlimit="10" d="
		M534.3,304.3c9.5,21.6,17.1,45.9,14,92.5c5.7,20.8,13,35.3,13,35.3h-29.1c-14.4-57.2-25.6-94-26.7-94.4
		C504.4,337.2,534.3,303.5,534.3,304.3z"/>
	<path id="XMLID_95_" fill="#9B2F2F" stroke="#660E0E" stroke-linecap="round" stroke-linejoin="round" stroke-miterlimit="10" d="
		M448.3,153.8c3.2,14.4-4.5,50.3-4.5,50.3c-14.9,11.2-53,5.9-55.3,3.5c-4-4.8-10.6-27.1-10.4-27.9c0.3-0.8,15.4-32.2,15.4-32.2
		S431.6,130.4,448.3,153.8z"/>
	<path id="XMLID_111_" fill="#D9E3E8" stroke="#46525B" stroke-linecap="round" stroke-linejoin="round" stroke-miterlimit="10" d="
		M349.5,303c34.5,38.7,96.1,49.8,98,50.6c1.9,0.8,67.1,11.4,87.5-28c20.5-39.4-0.4-68.6-0.4-68.6s-143-33.5-152.1-33.5"/>
	<path id="XMLID_94_" fill="#EADAB0" stroke="#60150D" stroke-linecap="round" stroke-linejoin="round" stroke-miterlimit="10" d="
		M411.3,148.2c2.7,5.6,13.3,36.2,13.3,36.2c3.7-8.5,10.6-34.1,10.6-33.3C435,152.2,411.3,148.2,411.3,148.2z"/>
	<path id="XMLID_103_" fill="#202223" stroke="#BDCCD1" stroke-linecap="round" stroke-linejoin="round" stroke-miterlimit="10" d="
		M335.7,216.7c-10.2-40.2-52.7-28.8-69-15.9s-25.4,29.6-22,44.7c3.4,15.2,5.7,25.4-2.3,38.7c14-9.1,12.9-25.4,12.9-25.4
		c-4.9,25,1.1,22.7-21.6,42.8s-26.1,37.9-18.9,53.1c-0.4-7.6,2.7-14,2.7-14c0,6.8,2.3,11,2.3,11c-0.8-8,1.1-16.3,14-14
		s38.3,3.4,49.6-10.2c11.4-13.6,19.3-39,21.6-56.1S335.7,216.7,335.7,216.7z"/>
	<path id="XMLID_105_" fill="#202223" stroke="#BDCCD1" stroke-linecap="round" stroke-linejoin="round" stroke-miterlimit="10" d="
		M325.5,223.9C313,205,288,200.1,274,218.3"/>
	<path id="XMLID_106_" fill="#202223" stroke="#BDCCD1" stroke-linecap="round" stroke-linejoin="round" stroke-miterlimit="10" d="
		M319.1,234.9c-11.4-23.1-56.8-12.1-50.4,41.7"/>
	<path id="XMLID_104_" fill="none" stroke="#231F20" stroke-linecap="round" stroke-linejoin="round" stroke-miterlimit="10" d="
		M262.2,300.9"/>
	<path id="XMLID_110_" fill="#231F20" stroke="#231F20" stroke-linecap="round" stroke-linejoin="round" stroke-miterlimit="10" d="
		M297.1,416.8c3,6.4,1.5,14,1.5,14h30.3l-9.9-19.3L297.1,416.8z"/>
	<path id="XMLID_108_" fill="#202223" stroke="#BDCCD1" stroke-linecap="round" stroke-linejoin="round" stroke-miterlimit="10" d="
		M266,294.4c-3.8,11.7-44,14.8-48.5,46.2"/>
	<path id="XMLID_123_" fill="#D9E3E8" stroke="#46525B" stroke-linecap="round" stroke-linejoin="round" stroke-miterlimit="10" d="
		M573.7,128.1c12.1-7.2,29.2-34.9,33.7-29.9c4.5,4.9,6.4,36-20.1,40.5S573.7,128.1,573.7,128.1z"/>
	<path id="XMLID_109_" fill="#202223" stroke="#BDCCD1" stroke-linecap="round" stroke-linejoin="round" stroke-miterlimit="10" d="
		M248.6,321.3c16.3-1.5,34.9-17.1,35.2-32.6"/>

		<line id="XMLID_139_" fill="none" stroke="#A09095" stroke-width="4" stroke-linecap="round" stroke-linejoin="round" stroke-miterlimit="10" x1="364.8" y1="331.2" x2="397.1" y2="339.4"/>
	<path id="XMLID_114_" fill="#231F20" stroke="#231F20" stroke-linecap="round" stroke-linejoin="round" stroke-miterlimit="10" d="
		M455.1,405.1c-14.4,7.2-19.7,6.4-19.7,6.4c-4.5,6.8-4.2,20.5-4.2,20.5h40.2l4.9-17.1L455.1,405.1z"/>
	<path id="XMLID_107_" fill="#D9E3E8" stroke="#46525B" stroke-linecap="round" stroke-linejoin="round" stroke-miterlimit="10" d="
		M386.9,225.1c-13.3-18.9-31.5-23.5-44-17.8s-59.9,43.6-34.1,100.4c-16.7,1.1-28,0.8-28.8,11s2.7,46.6,9.5,63.7
		c6.8,17.1,10.2,20.1,5.7,24.6s-5.7,8.7-1.1,14.4c4.5,5.3,10.2,6.4,10.2,6.4C302,421,302,421,302,421c5.7,2.3,12.5,8,12.5,8
		c1.1-10.2,0.8-12.9,0.8-12.9c1.9,4.9,5.3,8.7,5.3,8.7c-1.1-4.2-1.5-8.3-1.5-8.3s8.3,9.9,8.3,10.6c-9.5-15.5-22-89-18.2-93.6
		c3.8-4.5,36-3,42.8-8.7c6.8-5.7,18.9-37.1,18.9-37.1"/>
	<path id="XMLID_113_" fill="#D9E3E8" stroke="#46525B" stroke-linecap="round" stroke-linejoin="round" stroke-miterlimit="10" d="
		M528.6,315.3c10.2-8.7,20.8-37.5,18.6-78.1c2.3-27.3,3-22.7,3-22.7c-2.7-0.8-17.8-44-36-51.5s-81.5,137.2-81.5,137.2"/>
	<path id="XMLID_102_" fill="#9B2F2F" stroke="#660E0E" stroke-linecap="round" stroke-linejoin="round" stroke-miterlimit="10" d="
		M384.2,220.1c-5.7,4.5-27.3,44-22.4,78.8c64,37.1,81.5,33.7,81.5,33.7c-2.3-15.5,15.5-72,22-78.4s15.9-8.7,15.9-8.7l-23.5-12.9
		L384.2,220.1z"/>
	<path id="XMLID_99_" fill="#383333" stroke="#1C1919" stroke-linecap="round" stroke-linejoin="round" stroke-miterlimit="10" d="
		M382.3,281.8c-9.6,14.4-17.6,25-17.6,25c7.5,28.7,20.8,36.5,26.3,34.6s-0.8-27.7-0.8-27.7c0.5-1.3,14.9-18.9,14.9-18.9
		C395.9,285.8,382.3,281.8,382.3,281.8z"/>
	<path id="XMLID_98_" fill="#3A1B1B" stroke="#280707" stroke-linecap="round" stroke-linejoin="round" stroke-miterlimit="10" d="
		M381,193.4c-6.1,22.4-7.7,33-2.7,42.6c5.1,9.6,11.7,21,10.9,29s-8.5,13.3-9,16.5c-0.5,3.2,0.3,15.4,11.7,16.5
		c11.4,1.1,12.5,1.9,15.2-0.8c2.7-2.7,14.1-25,14.1-25l-5.1-38.1c10.1-2.7,32.5-2.7,48.7,4.5c11.4-2.7,8-20.5,8-20.5
		c-21-8.5-32.5-18.4-32.5-18.4L381,193.4z"/>
	<path id="XMLID_100_" fill="#E5BE42" stroke="#8E611A" stroke-linecap="round" stroke-linejoin="round" stroke-miterlimit="10" d="
		M422.5,203.9c14,8,42.4,1.1,42.4,1.1c0,1.1-2.7,8.3-2.7,8.3c-2.7,1.9-42.4,4.9-47,0.4C416.8,206.9,422.5,203.9,422.5,203.9z"/>
	<path id="XMLID_112_" fill="#D9E3E8" stroke="#46525B" stroke-linecap="round" stroke-linejoin="round" stroke-miterlimit="10" d="
		M435.8,319.4c-7.6,18.2-9.5,31.8-5.7,36.4c13.6,4.9,55.3,21.6,55.3,21.6c-3.8,5.3-16.3,17.8-21.6,19.3c-5.3,1.5-7.6-4.9-11.4-0.8
		s-1.9,6.4-1.9,7.6c-1.5,2.7-4.2,10.2-4.2,10.2c4.5,0.4,14.8-3,14.8-3c-1.1,1.9-6.4,15.2-6.4,15.2c1.5-1.1,8.7-6.1,8.7-6.1l-7.6,9.1
		c8.7-3,15.5-5.7,15.5-5.7c-1.1,2.7,0,8.7,0,8.7c4.5-4.6,49.3-46.6,50.4-58.4c1.1-11.7-23.9-15.5-39-36.4
		c15.2-12.9,17.8-44.3,6.1-61.8c-11.7-17.4-22.4-16.7-24.6-14.8"/>
	<path id="XMLID_96_" fill="#D89C73" stroke="#682913" stroke-linecap="round" stroke-linejoin="round" stroke-miterlimit="10" d="
		M390.6,190.2c6.1,4.8,14.4,13.6,14.4,13.6c11.1-7.5,14.9-10.6,20-5.6s10.6,14.9-1.1,17.6c-11.7,2.7-20,6.9-24.8-5.1
		c-17.6-5.6-20.7-11.4-20.7-11.4S390.3,190,390.6,190.2z"/>
	<path id="XMLID_116_" fill="#202223" stroke="#BDCCD1" stroke-linecap="round" stroke-linejoin="round" stroke-miterlimit="10" d="
		M527.6,130.6c-11.4,18.6-38,28.6-44.8,29.3c9.1,1.5,13.3-1.5,13.3-1.5c-18.2,14-35.6,28.4-35.6,28.4c9.5,1.9,29.2-6.1,29.2-6.1
		c-15.9,7.6-37.9,26.1-39.8,44.3c8.7-3.8,15.2-6.8,15.2-6.8c-8,7.6-23.5,17.1-23.5,17.1c11.7,6.4,39.4,1.1,39.4,1.1
		c-14.4,9.9-24.6,15.2-24.6,15.2c11,1.9,23.5,0,23.5,0c4.2-5.3,14.8-28.8,14.8-28.8c-7.6,6.4-14.8,9.1-14.8,9.1
		c14.4-14,20.1-31.5,20.1-31.5c-3.4,3.8-13.6,7.2-13.6,7.2c12.5-9.1,25.3-28.6,30.3-38.7c4-8.1,17.2-23.7,17.2-25.2
		C533.7,142.3,527.6,130.6,527.6,130.6z"/>
	<path id="XMLID_101_" fill="#E5BE42" stroke="#8E611A" stroke-linecap="round" stroke-linejoin="round" stroke-miterlimit="10" d="
		M404.7,212.6c-5.3,8.7-13.3,20.1-13.3,20.1c3.8,12.9,10.6,22,10.6,22c2.7-3.8,6.4-6.1,6.4-6.1c1.1,0.4,6.1,6.4,6.1,6.4
		c-3.4,4.2-5.3,12.5-5.3,12.5c6.1,15.5,26.9,26.9,26.9,26.9c0.4-7.6,2.3-14.8,2.3-14.8c8.7,3.8,16.3,1.9,16.3,1.9
		c0,1.9-0.4,16.3-0.4,16.3c13.6,3.4,34.1-4.2,34.1-4.2c-1.1-3.8-3-15.5-3-15.5l11.4-4.9c1.5,5.7,4.5,15.9,4.5,15.9
		c11-2.3,31.8-14.4,34.5-21.2c-6.4-12.5-6.4-12.5-6.4-12.5c3-3,7.2-7.6,7.2-7.6c3,1.5,6.1,13.3,6.1,13.3c13.2-21,9.8-51.5,9.8-51.5
		c-3-1.9-6.1-1.9-6.1-1.9c-7.6,17.4-26.1,56.1-78.4,62.1c-52.7,6.1-58-51.9-57.6-56.5C408.5,208.8,404.7,212.6,404.7,212.6z"/>
	<path id="XMLID_90_" fill="#9B2F2F" stroke="#660E0E" stroke-linecap="round" stroke-linejoin="round" stroke-miterlimit="10" d="
		M375.9,149c-6.1,6.4-22.1,19.4-20,29c2.1,9.6,1.9,28.5,26.9,23.7c4-5.9,13.3-9.3,13.3-9.3c-9.8-11.4-9.3-14.6-9.3-14.6
		c1.1-8.8,14.4-19.2,14.4-19.2S375.2,149.3,375.9,149z"/>

		<path id="XMLID_97_" fill="none" stroke="#A09095" stroke-width="4" stroke-linecap="round" stroke-linejoin="round" stroke-miterlimit="10" d="
		M397.2,338.5c5.3-15.2,1.3-25.5-12.2-26.6c-13.6-1.1-19.9,18.2-20.7,19"/>
	<path id="XMLID_118_" fill="#D9E3E8" stroke="#46525B" stroke-linecap="round" stroke-linejoin="round" stroke-miterlimit="10" d="
		M521.8,159.5c-11.4,15.9-9.5,33,4.2,46.6c13.6,4.2,20.1,3,29.6,18.2c9.5,15.2,27.3,22.7,32.6,23.5c5.3,0.8,28-8.3,25.8-28.4
		c-9.1-15.5-14-23.9-16.7-29.6c-2.7-5.7,2.3-38.9-8.4-55.6c-10.6-16.7-32.9-22.1-50.8-12.2"/>
	<path id="XMLID_119_" fill="none" stroke="#231F20" stroke-linecap="round" stroke-linejoin="round" stroke-miterlimit="10" d="
		M576.3,216.4c6.1,0,11.4,7.2,11.4,11.7"/>
	<path id="XMLID_127_" fill="#E5BE42" stroke="#8E611A" stroke-linecap="round" stroke-linejoin="round" stroke-miterlimit="10" d="
		M571.4,154.6c-4.5,6.4-11.4,20.8-6.1,28c5.3,7.2,19.7,10.2,19.7,10.2c1.5-1.5,7.2-13.3,6.4-17.4s-10.2-23.5-11.4-23.9
		C579,151.2,571.4,154.6,571.4,154.6z"/>
	<path id="XMLID_78_" fill="#E5BE42" stroke="#8E611A" stroke-linecap="round" stroke-linejoin="round" stroke-miterlimit="10" d="
		M398.9,73.8l-6.2-18.5c11.1,4.5,21.8-3.5,22.2-9c11.7,8,21.5-8.8,21.5-8.8c7.4,17.6,16.4,18.7,23,13.7c-7,22.8-6.4,24.2-6.4,24.2
		L398.9,73.8z"/>
	<path id="XMLID_77_" fill="#656B6B" stroke="#C7D1D1" stroke-linecap="round" stroke-linejoin="round" stroke-miterlimit="10" d="
		M449,99.7c8-1,13.1-6.8,12.9-11.1c-0.2-4.3-9-19.5-10.5-20.3s-8.6-1.2-8.6-1.2l6,31.8"/>
	<path id="XMLID_76_" fill="#656B6B" stroke="#C7D1D1" stroke-linecap="round" stroke-linejoin="round" stroke-miterlimit="10" d="
		M390.6,90.5c1.4,1.2,2.4,12-2.1,7.3c1.2,7.8,6.6,7.4,6.6,7.4c-5.5,2.1-7.6,1.6-7.6,1.6c6.2,6.2,18.3,11.3,23.4,3.9
		c4.2-8.2-13.4-39.7-8.7-36"/>
	<path id="XMLID_69_" fill="#D89C73" stroke="#682913" stroke-linecap="round" stroke-linejoin="round" stroke-miterlimit="10" d="
		M402.6,72.1c8.8-8.8,35.4-16,48.1,0.4c0.4,16.8,1.5,34.3-1.5,38.3c-2.9,4-32.5,15-32.5,15S394.9,90.3,402.6,72.1z"/>
	<path id="XMLID_70_" fill="#D89C73" stroke="#682913" stroke-linecap="round" stroke-linejoin="round" stroke-miterlimit="10" d="
		M429.5,80.3c-0.4,4.3,0.6,6.6,2.3,9.4c1.6,2.9-1.4,5.7-4.1,6.4"/>
	<path id="XMLID_75_" fill="#656B6B" stroke="#C7D1D1" stroke-linecap="round" stroke-linejoin="round" stroke-miterlimit="10" d="
		M392.8,91.7c0,0-0.8-1.6,3.1-4.1c15.8-6.8,14.7-13,12.5-20.8c-7.8,2.9-11.6,6.3-13.3,11c-3.5,4.5-10.7,9.6-3.1,16.8"/>
	<path id="XMLID_73_" fill="#656B6B" stroke="#C7D1D1" stroke-linecap="round" stroke-linejoin="round" stroke-miterlimit="10" d="
		M453.7,94.6c0,0,3.3-4.5,1.2-7.2s-8-8.2-7.4-19.5c2.8-0.1,3.9,0.4,3.9,0.4"/>

		<ellipse id="XMLID_79_" fill="#54D839" stroke="#17560C" stroke-linecap="round" stroke-linejoin="round" stroke-miterlimit="10" cx="413.9" cy="43.2" rx="3.1" ry="3.6"/>

		<ellipse id="XMLID_81_" fill="#54D839" stroke="#17560C" stroke-linecap="round" stroke-linejoin="round" stroke-miterlimit="10" cx="391.5" cy="52.2" rx="3.1" ry="3.6"/>

		<ellipse id="XMLID_82_" fill="#54D839" stroke="#17560C" stroke-linecap="round" stroke-linejoin="round" stroke-miterlimit="10" cx="436.9" cy="34.1" rx="3.1" ry="3.6"/>

		<ellipse id="XMLID_83_" fill="#54D839" stroke="#17560C" stroke-linecap="round" stroke-linejoin="round" stroke-miterlimit="10" cx="460.1" cy="48.3" rx="3.1" ry="3.6"/>

		<ellipse id="XMLID_80_" fill="#54D839" stroke="#17560C" stroke-linecap="round" stroke-linejoin="round" stroke-miterlimit="10" cx="435.5" cy="53.6" rx="3.2" ry="6.3"/>

		<ellipse id="XMLID_84_" transform="matrix(0.9383 -0.3458 0.3458 0.9383 6.6713 147.9253)" fill="#54D839" stroke="#17560C" stroke-linecap="round" stroke-linejoin="round" stroke-miterlimit="10" cx="417.9" cy="55.3" rx="2.4" ry="3.4"/>

		<ellipse id="XMLID_86_" transform="matrix(0.9383 -0.3458 0.3458 0.9383 2.9622 142.7299)" fill="#54D839" stroke="#17560C" stroke-linecap="round" stroke-linejoin="round" stroke-miterlimit="10" cx="401.5" cy="63.1" rx="2.4" ry="3.4"/>

		<ellipse id="XMLID_87_" transform="matrix(0.8836 0.4682 -0.4682 0.8836 80.4517 -204.0886)" fill="#54D839" stroke="#17560C" stroke-linecap="round" stroke-linejoin="round" stroke-miterlimit="10" cx="450.7" cy="59.8" rx="2.4" ry="3.4"/>
	<path id="XMLID_121_" fill="#D9E3E8" stroke="#46525B" stroke-linecap="round" stroke-linejoin="round" stroke-miterlimit="10" d="
		M529,102.3c-5.7,12.5-14,20.5-8.3,33s10.7,12,10.7,12"/>

		<ellipse id="XMLID_85_" fill="#231F20" stroke="#231F20" stroke-linecap="round" stroke-linejoin="round" stroke-miterlimit="10" cx="417.6" cy="84" rx="0.6" ry="3.2"/>

		<ellipse id="XMLID_89_" fill="#231F20" stroke="#231F20" stroke-linecap="round" stroke-linejoin="round" stroke-miterlimit="10" cx="436.1" cy="84.3" rx="0.6" ry="3.2"/>
	<path id="XMLID_88_" fill="#656B6B" stroke="#C7D1D1" stroke-linecap="round" stroke-linejoin="round" stroke-miterlimit="10" d="
		M424.8,71.7c-3.7-4.5-8-2.7-9.7-0.8c-1.7,1.8-4.3,6.8-0.3,5.8s8.7-0.6,9.3-1C425.9,74.5,424.8,71.7,424.8,71.7z"/>

		<ellipse id="XMLID_122_" transform="matrix(0.9744 0.2247 -0.2247 0.9744 51.7644 -119.0259)" fill="#231F20" stroke="#231F20" stroke-linecap="round" stroke-linejoin="round" stroke-miterlimit="10" cx="548.8" cy="167.9" rx="1.8" ry="5.5"/>
	<path id="XMLID_125_" fill="#E5BE42" stroke="#8E611A" stroke-linecap="round" stroke-linejoin="round" stroke-miterlimit="10" d="
		M555.9,206.5c7.6-13.3,33-25,42.1-14.4c4.5,8.7,8.3,12.5,8.3,12.5c-14.4-4.5-45.1,11-44.7,26.9c-12.3-6.9-11.4-17.1-11.4-17.1
		L555.9,206.5z"/>
	<path id="XMLID_91_" fill="#656B6B" stroke="#C7D1D1" stroke-linecap="round" stroke-linejoin="round" stroke-miterlimit="10" d="
		M437.1,70.3c-3,0.8-3.2,5.7-1.2,6c2,0.3,4.5,1,6.8,0.7C445.1,76.7,441.9,69,437.1,70.3z"/>
	<path id="XMLID_120_" fill="#B76762" stroke="#75362E" stroke-linecap="round" stroke-linejoin="round" stroke-miterlimit="10" d="
		M534.1,139.9c-14.8-15.9-8.5-47.1,2.1-53.5c14.4,15.2,9.9,38.7,0,52.3"/>
	<path id="XMLID_126_" fill="#E5BE42" stroke="#8E611A" stroke-linecap="round" stroke-linejoin="round" stroke-miterlimit="10" d="
		M546.9,118.2c-3,3.4,1,20.1,5.5,25.1c4.5,4.9,22,17.9,26.9,15.2c4.9-2.7,6.5-5,7.5-12.6c1.1-7.9-2.5-17.6-7.2-22.7
		C566.8,109.2,546.9,118.2,546.9,118.2z"/>
	<path id="XMLID_92_" fill="#E5BE42" stroke="#8E611A" stroke-linecap="round" stroke-linejoin="round" stroke-miterlimit="10" d="
		M369.8,153.3c2.1,3.5,15.4,9.8,15.4,9.8c2.1-4,4-6.9,4-6.9c2.4,0.5,7.7,3.2,7.7,3.2c-1.1,1.6-2.1,3.7-3.5,8.8
		c6.4,4.3,22.1,4,22.1,4c0.3-2.9,0.5-7.5,0.5-7.5c5.9,0.5,13.8,0.5,13.8,0.5c0,6.1,0.3,9,0.3,9c6.1,0.5,14.1-1.6,14.1-1.6
		c-0.5-4.8-0.5-8.5-0.5-8.5c1.9-0.3,7.5-0.8,7.5-0.8c0.8,4,3.2,8,3.2,8c2.9-0.3,12.8-4,12.8-4l-3.7-7.2l4.5-1.9
		c-9-19.7-18.1-30.3-23.9-31.9C438.2,124.8,393.8,109.9,369.8,153.3z"/>
	<path id="XMLID_128_" fill="#DBC283" stroke="#7F662F" stroke-miterlimit="10" d="M367,385.8c7.1-2.4,22.8-8.7,40.2-1.6"/>
	<path id="XMLID_130_" fill="#DBC283" stroke="#7F662F" stroke-miterlimit="10" d="M396.9,376.3c5.1-2.4,16.6-8.7,29.1-1.6"/>
	<path id="XMLID_129_" fill="#DBC283" stroke="#7F662F" stroke-miterlimit="10" d="M338.7,376.3c7.1-2.4,22.8-8.7,40.2-1.6"/>

		<ellipse id="XMLID_117_" fill="#E5BE42" stroke="#8E611A" stroke-linecap="round" stroke-linejoin="round" stroke-miterlimit="10" cx="553.8" cy="209" rx="8.9" ry="10.4"/>
	<path id="XMLID_131_" fill="#DBC283" stroke="#7F662F" stroke-miterlimit="10" d="M237.1,394.4c8.7-3.9,22.8-1.6,26.8,0.8"/>
	<path id="XMLID_132_" fill="#DBC283" stroke="#7F662F" stroke-miterlimit="10" d="M222.1,392.1c8.7-5.5,18.9-1.6,22.8,0"/>
	<path id="XMLID_133_" fill="#DBC283" stroke="#7F662F" stroke-miterlimit="10" d="M174.1,306.2c4.7-2.4,16.5-3.1,21.3,0"/>
	<path id="XMLID_134_" fill="#DBC283" stroke="#7F662F" stroke-miterlimit="10" d="M160.7,295.2c5.5-2.4,11-1.6,16.5,0.8"/>
	<path id="XMLID_135_" fill="#DBC283" stroke="#7F662F" stroke-miterlimit="10" d="M216.6,281.8c3.1-1.6,17.3-3.1,20.5-0.8"/>
	<path id="XMLID_71_" fill="#656B6B" stroke="#C7D1D1" stroke-linecap="round" stroke-linejoin="round" stroke-miterlimit="10" d="
		M423.1,95.6c-4.5-2.1-12.5,1.4-12.5,1.4c-3.7-8.6-4.1-18.3-4.1-18.3c-4.3,0-7.2,4.3-7.2,4.3c3.7,7.8-1,13.7-0.2,15.8
		c0.8,2.1,2.5,0.4,2.5,0.4c-1.4,2.3-2.7,9.8-0.2,11.7c-4.1,6.8-1,14.4,3.3,17.2c-0.4,15,20.1,10.5,20.1,10.5
		c11.7,7.2,26.7-5.5,23.8-15.4c6.8,1.6,4.5-14.2,3.1-17.9c2.9,0.6-1.8-5.5-6.8-6.8c3.5-4.1-4.5-5.1-10.5-2.1
		c-4.1,1.2-6.4,1.6-6.4,1.6C424.8,96.2,423.1,95.6,423.1,95.6z"/>
	<path id="XMLID_74_" fill="#D89C73" stroke="#682913" stroke-linecap="round" stroke-linejoin="round" stroke-miterlimit="10" d="
		M422.6,107.4c2.3,2.8,6.7,5.2,12,1.4c0,0,0.1-0.1,0.1-0.1c1.8-3.3,0.4-3.5,0-3.5c-0.1,0-0.1,0-0.2-0.1l-3.3-3.7
		c-0.1-0.1-0.3-0.1-0.4,0c-5.6,5.5-6,2.5-8.1,2.3c-0.1,0-0.3,0.1-0.3,0.3l0,3.3C422.6,107.3,422.6,107.4,422.6,107.4z"/>
	<path id="XMLID_72_" fill="#656B6B" stroke="#C7D1D1" stroke-linecap="round" stroke-linejoin="round" stroke-miterlimit="10" d="
		M411.4,102.2c1.6,2.1,6,5.3,10.9,0.4c-0.8,4.1,3.9,4.3,8.8-1.4c5.5,8,9,6.4,6.4,2.3c5.5,3.7,6,0,6,0"/>
</g>
</svg>
