<?xml version="1.0" encoding="utf-8"?>
<!-- Generator: Adobe Illustrator 19.0.0, SVG Export Plug-In . SVG Version: 6.00 Build 0)  -->
<!DOCTYPE svg PUBLIC "-//W3C//DTD SVG 1.0//EN" "http://www.w3.org/TR/2001/REC-SVG-20010904/DTD/svg10.dtd">
<svg version="1.0" xmlns="http://www.w3.org/2000/svg" xmlns:xlink="http://www.w3.org/1999/xlink" x="0px" y="0px"
	 viewBox="0 0 648 432" enable-background="new 0 0 648 432" xml:space="preserve">
<g id="Layer_6">
	<rect id="XMLID_74_" x="0" fill="#AEDDE5" width="648" height="432"/>
</g>
<g id="Layer_3">
	<rect id="XMLID_73_" x="135.1" fill="#D5F4F7" stroke="#628C8E" stroke-miterlimit="10" width="404.6" height="432"/>
</g>
<g id="Layer_2">
	<rect id="XMLID_6_" x="84.6" y="375.1" fill="#A86D36" stroke="#6D4D27" stroke-miterlimit="10" width="24" height="56.9"/>
	<rect id="XMLID_7_" x="156.7" y="354.8" fill="#A86D36" stroke="#6D4D27" stroke-miterlimit="10" width="24" height="76.8"/>
	<rect id="XMLID_8_" x="141.1" y="354.8" fill="#C99960" stroke="#8C6238" stroke-miterlimit="10" width="24" height="76.8"/>
	<rect id="XMLID_10_" x="479.3" y="354.8" fill="#A86D36" stroke="#6D4D27" stroke-miterlimit="10" width="24" height="76.8"/>
	<rect id="XMLID_9_" x="494.9" y="354.8" fill="#C99960" stroke="#8C6238" stroke-miterlimit="10" width="24" height="76.8"/>
	<rect id="XMLID_12_" x="568.7" y="354.8" fill="#A86D36" stroke="#6D4D27" stroke-miterlimit="10" width="24" height="76.8"/>
	<rect id="XMLID_11_" x="584.3" y="354.8" fill="#C99960" stroke="#8C6238" stroke-miterlimit="10" width="24" height="76.8"/>
	<rect id="XMLID_2_" x="69" y="375.1" fill="#C99960" stroke="#8C6238" stroke-miterlimit="10" width="24" height="56.9"/>
	<polygon id="XMLID_4_" fill="#C99960" stroke="#8C6238" stroke-miterlimit="10" points="622.9,359.1 50.9,359.1 160.2,264.1
		535.5,263.1 	"/>
	<rect id="XMLID_5_" x="50.5" y="359.2" fill="#A86D36" stroke="#6D4D27" stroke-miterlimit="10" width="572.6" height="25.1"/>
</g>
<g id="Layer_5">
	<path id="XMLID_55_" fill="#6D3C3C" stroke="#491515" stroke-linecap="round" stroke-linejoin="round" stroke-miterlimit="10" d="
		M257.6,432c0-18.6,8.1-31,54.7-21.9c10.8,9.1,50,9.5,50,9.5V432C362.4,432,302.9,432,257.6,432z"/>
	<path id="XMLID_15_" fill="#EAC198" stroke="#7C462E" stroke-linecap="round" stroke-linejoin="round" stroke-miterlimit="10" d="
		M238.2,312.1c-10.7-6-11.5-17.8,18.4-24.1c19.8,3,17.8,13.4,17.8,13.4L238.2,312.1z"/>
	<path id="XMLID_14_" fill="#EAC198" stroke="#7C462E" stroke-linecap="round" stroke-linejoin="round" stroke-miterlimit="10" d="
		M261,298.4c-18.4,4.9-46.4,18.4-46.4,33.5c0,15.1,35.9,18.7,56.2,16.5c20.6-3,12.6-39.2,11.8-39.2C281.8,309.1,261,298.4,261,298.4
		z"/>
	<path id="XMLID_21_" fill="#EAC198" stroke="#7C462E" stroke-linecap="round" stroke-linejoin="round" stroke-miterlimit="10" d="
		M261.8,243.8c-13.7,14.5-20,35.1-4.4,52.7c-1.1,5.5-5.5,11,0.8,14.5c6.3,3.6,11.5,1.4,11.5,1.4c0.8,0.5,17.6,16.7,35.4,14.3
		c17.8-2.5,40.6-24.4,32.1-47.7C328.7,255.6,293.3,218,261.8,243.8z"/>
	<path id="XMLID_23_" fill="none" stroke="#231F20" stroke-linecap="round" stroke-linejoin="round" stroke-miterlimit="10" d="
		M262.9,292.3c3.8,4.4,11,3,10.2-5.8"/>
	<path id="XMLID_18_" fill="#C14242" stroke="#702121" stroke-linecap="round" stroke-linejoin="round" stroke-miterlimit="10" d="
		M354.3,286.9c20.6-2.7,48.8,17.8,23.9,49.4"/>
	<path id="XMLID_24_" fill="none" stroke="#231F20" stroke-linecap="round" stroke-linejoin="round" stroke-miterlimit="10" d="
		M257.7,272.6c1.6-1.6,10.4-2.2,15.4,1.1"/>
	<path id="XMLID_25_" fill="none" stroke="#231F20" stroke-linecap="round" stroke-linejoin="round" stroke-miterlimit="10" d="
		M290.9,296.2c0.5,11.2-6,18.9-8.2,21.1"/>
	<path id="XMLID_17_" fill="#EAC198" stroke="#7C462E" stroke-linecap="round" stroke-linejoin="round" stroke-miterlimit="10" d="
		M236.5,322.8c8.8,4.7,18.9,4.9,18.9,4.9"/>
	<path id="XMLID_79_" fill="#C14242" d="M327.3,314.7c-21,16.3-29.9,23.1-9.8,22.8c20.1-0.3,55.7-2.7,57.8-14.5
		c2.1-11.9-4.7-24.9-6.2-25.5s-12.4-6.8-13.6-6.2C354.2,291.9,327.3,314.7,327.3,314.7z"/>
	<path id="XMLID_20_" fill="#C14242" stroke="#702121" stroke-linecap="round" stroke-linejoin="round" stroke-miterlimit="10" d="
		M366.6,316.5c8,8.8,29.1,44.7,26.3,102.1c-8.5,4.1-60.9,14-91.6,1.9c4.4-21.7-8-55.1-14.5-78.7"/>
	<path id="XMLID_16_" fill="#C14242" stroke="#702121" stroke-linecap="round" stroke-linejoin="round" stroke-miterlimit="10" d="
		M305.7,342.8c0,0-10.2,4.4-32.1,11.5c-2.5-1.6-18.9-6.3-19.8-29.9c0,0,6.3-2.2,23-9.1c16.7-6.9,28.8-9,38.9-0.7
		c7.7,1.5,25.8-5,25.8-5"/>
	<path id="XMLID_26_" fill="#EACC6C" stroke="#896318" stroke-linecap="round" stroke-linejoin="round" stroke-miterlimit="10" d="
		M295.8,268.2c0,2.2-0.3,8.5-5.8,9.9c-6.6-1.4-9.6-4.4-11.2-30.5c0,6-12.3,17.8-16.7,18.4c-1.9-1.4-4.4-11-2.7-14.5
		c0,0-12.1,20-20.6,17.3c-12.3-4.1-6.3-23.9,9.9-29.9c0,0-6.3,0.8-12.6,1.1c0,0,4.7-16.2,31.8-9.1c-19.2-9.3,2.2-20.3,21.7-12.9
		c7.1-7.4,27.2-14.3,49.4,9.6c0,0-1.9-9.9,6.3-9.3c8.2,0.5,2.5,10.2,4.1,15.6c28.8,29.6,13.7,66.9,0.3,79c0,0,0.5-3,3.6-8.5
		c0,0-6.3,9.3-11.5,13.2c0,0-4.2,0.7-11.4-6.2c0,0,0.4,0.7-1.5,5.3c-16.7-6.3-23.4-21.9-20.1-37
		C304.9,275.6,295.8,268.2,295.8,268.2z"/>
	<path id="XMLID_22_" fill="#EAC198" stroke="#7C462E" stroke-linecap="round" stroke-linejoin="round" stroke-miterlimit="10" d="
		M295,273.1c0.5-11.8,12.9-12.3,18.1-2.5c5.2,9.9-5.5,15.9-10.2,14.5"/>
	<g id="XMLID_19_">
		<path id="XMLID_32_" fill="#657D99" stroke="#35465E" stroke-linecap="round" stroke-linejoin="round" stroke-miterlimit="10" d="
			M407.7,304.5l48.7,29.3c0,0,100.8,1.2,101.8,0.8c1.8-0.8,0.8-3.3,0.8-3.3l-53.3-26.3L407.7,304.5z"/>
		<path id="XMLID_27_" fill="#F9F7EA" stroke="#898666" stroke-linecap="round" stroke-linejoin="round" stroke-miterlimit="10" d="
			M552.7,331.5h-96c-3.1,0-5.7-2.2-5.7-5v-13.9c0-2.8,2.5-5,5.7-5h96c3.1,0,1.3,3.6,1.3,6.3l-0.3,12.1
			C553.7,328.8,555.8,331.5,552.7,331.5z"/>
		<path id="XMLID_31_" fill="#657D99" stroke="#35465E" stroke-linecap="round" stroke-linejoin="round" stroke-miterlimit="10" d="
			M406.4,280.5l48.7,29.3c0,0,100.8,1.2,101.8,0.8c1.8-0.8,0.8-3.3,0.8-3.3L504.4,281L406.4,280.5z"/>

			<line id="XMLID_40_" fill="#F2EFDA" stroke="#898666" stroke-linecap="round" stroke-linejoin="round" stroke-miterlimit="10" x1="454.2" y1="315.4" x2="492.2" y2="315.4"/>

			<line id="XMLID_41_" fill="#F2EFDA" stroke="#898666" stroke-linecap="round" stroke-linejoin="round" stroke-miterlimit="10" x1="454.2" y1="320.6" x2="479.8" y2="320.6"/>

			<line id="XMLID_42_" fill="#F2EFDA" stroke="#898666" stroke-linecap="round" stroke-linejoin="round" stroke-miterlimit="10" x1="454.2" y1="325.8" x2="488.5" y2="325.8"/>

			<line id="XMLID_43_" fill="#F2EFDA" stroke="#898666" stroke-linecap="round" stroke-linejoin="round" stroke-miterlimit="10" x1="519.7" y1="316.9" x2="554.1" y2="316.9"/>

			<line id="XMLID_44_" fill="#F2EFDA" stroke="#898666" stroke-linecap="round" stroke-linejoin="round" stroke-miterlimit="10" x1="530.2" y1="322.1" x2="553.2" y2="322.1"/>
		<path id="XMLID_30_" fill="#7F9AB5" stroke="#3F5570" stroke-linecap="round" stroke-linejoin="round" stroke-miterlimit="10" d="
			M405.8,280.3c-3.2,2.7-5.8,17.7,0,23c27.5,19.3,50.2,30.4,50.2,30.4c-4.8-10.9-0.8-24-0.8-24C410,283.6,405.8,280.3,405.8,280.3z"
			/>
		<g id="XMLID_38_">

				<path id="XMLID_76_" fill="#EA841F" stroke="#9E3907" stroke-linecap="round" stroke-linejoin="round" stroke-miterlimit="10" d="
				M548.3,304.6v-23c0-0.5-0.5-1-1-1h-47.5l-0.8-0.4c0,0-70.2-0.8-84.5-0.6c-1.7,0-0.6,2.2-0.6,2.2l39.1,24.5l95.2-0.1
				C548.1,306.2,548.3,305.2,548.3,304.6z"/>

				<path id="XMLID_37_" fill="#F9F7EA" stroke="#898666" stroke-linecap="round" stroke-linejoin="round" stroke-miterlimit="10" d="
				M416.2,258.4c1.6,4.3,2.7,19.8,0.3,22.4c30.5,19,35.1,21.7,35.1,21.7c1.3-1.5,1.7-21.4,1.7-21.4
				C450.9,280.3,416.2,258.4,416.2,258.4z"/>

				<path id="XMLID_36_" fill="#FF983B" stroke="#9E3907" stroke-linecap="round" stroke-linejoin="round" stroke-miterlimit="10" d="
				M413.9,256.6l39.1,24.5l95.2-0.1l-49.4-24.5C498.7,256.5,414.2,256.3,413.9,256.6z"/>

				<line id="XMLID_45_" fill="#F2EFDA" stroke="#898666" stroke-linecap="round" stroke-linejoin="round" stroke-miterlimit="10" x1="418" y1="267.4" x2="431.4" y2="275.1"/>

				<line id="XMLID_46_" fill="#F2EFDA" stroke="#898666" stroke-linecap="round" stroke-linejoin="round" stroke-miterlimit="10" x1="417.7" y1="273" x2="426.1" y2="277.1"/>

				<line id="XMLID_47_" fill="#F2EFDA" stroke="#898666" stroke-linecap="round" stroke-linejoin="round" stroke-miterlimit="10" x1="452.4" y1="297.5" x2="439.1" y2="289.5"/>

				<line id="XMLID_48_" fill="#F2EFDA" stroke="#898666" stroke-linecap="round" stroke-linejoin="round" stroke-miterlimit="10" x1="452.4" y1="292.5" x2="444.9" y2="288.1"/>

				<line id="XMLID_49_" fill="#F2EFDA" stroke="#898666" stroke-linecap="round" stroke-linejoin="round" stroke-miterlimit="10" x1="452.4" y1="288.6" x2="437.3" y2="280.1"/>
		</g>
		<g id="XMLID_28_">

				<path id="XMLID_35_" fill="#79AD57" stroke="#406628" stroke-linecap="round" stroke-linejoin="round" stroke-miterlimit="10" d="
				M427.1,256.8h73.4l33.5,17.9v1l-74-0.4C445.6,267.3,427.1,256.8,427.1,256.8z"/>

				<path id="XMLID_34_" fill="#F9F7EA" stroke="#898666" stroke-linecap="round" stroke-linejoin="round" stroke-miterlimit="10" d="
				M458.7,249.7c-1.6,1.5-9.4,18.2,2.5,23.2c63,0,67.4,0,67.4,0s-3.2-19,2.4-23C502,249.8,459,249.4,458.7,249.7z"/>

				<path id="XMLID_50_" fill="#F2EFDA" stroke="#898666" stroke-linecap="round" stroke-linejoin="round" stroke-miterlimit="10" d="
				M458.4,255.2c0.4,0,16.2,0,16.2,0"/>

				<path id="XMLID_51_" fill="#F2EFDA" stroke="#898666" stroke-linecap="round" stroke-linejoin="round" stroke-miterlimit="10" d="
				M456.4,262.2c0.4,0,13.7,0,13.7,0"/>

				<path id="XMLID_33_" fill="#79AD57" stroke="#406628" stroke-linecap="round" stroke-linejoin="round" stroke-miterlimit="10" d="
				M429.3,231h72.4l33,17.9v1l-73-0.4C447.6,241.4,429.3,231,429.3,231z"/>

				<path id="XMLID_29_" fill="#5F8E40" stroke="#2F5119" stroke-linecap="round" stroke-linejoin="round" stroke-miterlimit="10" d="
				M429.1,231.2L462,249c-11,14.5-3.3,25.8-3.3,25.8c-31.3-16.2-32.9-17.8-32.9-17.8C420.8,248.7,421.6,237.2,429.1,231.2z"/>

				<path id="XMLID_53_" fill="#F2EFDA" stroke="#898666" stroke-linecap="round" stroke-linejoin="round" stroke-miterlimit="10" d="
				M514.5,257.4c0.4,0,12.9,0.2,12.9,0.2"/>

				<path id="XMLID_54_" fill="#F2EFDA" stroke="#898666" stroke-linecap="round" stroke-linejoin="round" stroke-miterlimit="10" d="
				M508.8,262.4c0.5,0,19,0,19,0"/>

				<path id="XMLID_52_" fill="#F2EFDA" stroke="#898666" stroke-linecap="round" stroke-linejoin="round" stroke-miterlimit="10" d="
				M457.1,267.6c0.7,0,25.5,0.2,25.5,0.2"/>
		</g>
		<path id="XMLID_77_" fill="#EA841F" stroke="#9E3907" stroke-linecap="round" stroke-linejoin="round" stroke-miterlimit="10" d="
			M470.2,282.2c1.9,4.9,1.6,19.2,0,23"/>
		<path id="XMLID_78_" fill="#EA841F" stroke="#9E3907" stroke-linecap="round" stroke-linejoin="round" stroke-miterlimit="10" d="
			M532.2,282.2c1.9,4.9,1.6,19.2,0,23"/>
	</g>
	<g id="XMLID_87_">

			<ellipse id="XMLID_82_" fill="#7C8893" stroke="#B6C3D1" stroke-linecap="round" stroke-linejoin="round" stroke-miterlimit="10" cx="173.2" cy="249.7" rx="23.4" ry="5.8"/>

			<ellipse id="XMLID_39_" fill="none" stroke="#B6C3D1" stroke-linecap="round" stroke-linejoin="round" stroke-miterlimit="10" cx="173.2" cy="249.7" rx="23.4" ry="5.8"/>

			<ellipse id="XMLID_56_" fill="none" stroke="#231F20" stroke-linecap="round" stroke-linejoin="round" stroke-miterlimit="10" cx="173.2" cy="294.4" rx="17.9" ry="5.8"/>

			<line id="XMLID_57_" fill="none" stroke="#231F20" stroke-linecap="round" stroke-linejoin="round" stroke-miterlimit="10" x1="150" y1="250.4" x2="155.3" y2="294.4"/>
		<path id="XMLID_67_" fill="#7A878C" stroke="#566166" stroke-linecap="round" stroke-linejoin="round" stroke-miterlimit="10" d="
			M178.5,285.7l-3.9,0.4c-1.1,0.1-2.1-0.7-2.2-1.8l-10.1-89.2c-0.1-1.1,0.7-2.1,1.8-2.2l3.9-0.4c1.1-0.1,2.1,0.7,2.2,1.8l10.1,89.2
			C180.3,284.6,179.5,285.6,178.5,285.7z"/>
		<path id="XMLID_68_" fill="#E7EDF2" stroke="#6A7175" stroke-linecap="round" stroke-linejoin="round" stroke-miterlimit="10" d="
			M183,297.1l-3.9-0.4c-1.1-0.1-1.9-1.1-1.8-2.2l8.4-79.5c0.1-1.1,1.1-1.9,2.2-1.8l3.9,0.4c1.1,0.1,1.9,1.1,1.8,2.2l-8.4,79.5
			C185.1,296.4,184.1,297.2,183,297.1z"/>
		<path id="XMLID_70_" fill="#343738" stroke="#C3D1D8" stroke-linecap="round" stroke-linejoin="round" stroke-miterlimit="10" d="
			M173.8,229.5l-7.3,0.8c-1.1,0.1-2.1-0.7-2.2-1.8l-4-35.4c-0.1-1.1,0.7-2.1,1.8-2.2l7.3-0.8c1.1-0.1,2.1,0.7,2.2,1.8l4,35.4
			C175.7,228.4,174.9,229.4,173.8,229.5z"/>
		<path id="XMLID_71_" fill="#343738" stroke="#C3D1D8" stroke-linecap="round" stroke-linejoin="round" stroke-miterlimit="10" d="
			M176.2,223.3l-2.8,0.3c-1.1,0.1-2.1-0.7-2.2-1.8l-2.9-25.6c-0.1-1.1,0.7-2.1,1.8-2.2l2.8-0.3c1.1-0.1,2.1,0.7,2.2,1.8l2.9,25.6
			C178.1,222.2,177.3,223.1,176.2,223.3z"/>
		<path id="XMLID_72_" fill="#B23B3B" stroke="#680C0C" stroke-linecap="round" stroke-linejoin="round" stroke-miterlimit="10" d="
			M190.4,244l-7.4-0.8c-1.1-0.1-1.9-1.1-1.8-2.2l3-28.6c0.1-1.1,1.1-1.9,2.2-1.8l7.4,0.8c1.1,0.1,1.9,1.1,1.8,2.2l-3,28.6
			C192.5,243.3,191.5,244.1,190.4,244z"/>
		<g id="XMLID_84_">

				<path id="XMLID_61_" fill="#E29744" stroke="#AF5B22" stroke-linecap="round" stroke-linejoin="round" stroke-miterlimit="10" d="
				M174.8,294.8l-3.8,1c-1.1,0.3-2.2-0.4-2.4-1.4l-20.1-77.1c-0.3-1.1,0.4-2.2,1.4-2.4l3.8-1c1.1-0.3,2.2,0.4,2.4,1.4l20.1,77.1
				C176.5,293.5,175.9,294.6,174.8,294.8z"/>

				<path id="XMLID_66_" fill="#D68A9E" stroke="#893F50" stroke-linecap="round" stroke-linejoin="round" stroke-miterlimit="10" d="
				M156.2,223.4l-3.8,1c-1.1,0.3-2.2-0.4-2.4-1.4l-1.5-5.6c-0.3-1.1,0.4-2.2,1.4-2.4l3.8-1c1.1-0.3,2.2,0.4,2.4,1.4l1.5,5.6
				C157.9,222,157.2,223.1,156.2,223.4z"/>

				<path id="XMLID_69_" fill="#B2BFC1" stroke="#555E60" stroke-linecap="round" stroke-linejoin="round" stroke-miterlimit="10" d="
				M157,226.4l-3.8,1c-1.1,0.3-2.2-0.4-2.4-1.4l-0.2-0.9c-0.3-1.1,0.4-2.2,1.4-2.4l3.8-1c1.1-0.3,2.2,0.4,2.4,1.4l0.2,0.9
				C158.7,225,158,226.1,157,226.4z"/>

				<line id="XMLID_86_" fill="#E29744" stroke="#AF5B22" stroke-linecap="round" stroke-linejoin="round" stroke-miterlimit="10" x1="154.9" y1="227.8" x2="165.7" y2="267.7"/>
		</g>
		<path id="XMLID_83_" fill="#FAFEFF" d="M150.3,251.3c1.5,12.2,5,43.7,5,43.7c5.4,7.5,33.6,5.4,35.5,0c1.3-3.5,5.3-44.2,5.3-44.2
			C178,260.2,154,253,150.3,251.3z"/>

			<line id="XMLID_80_" fill="#E5F4F9" stroke="#596266" stroke-linecap="round" stroke-linejoin="round" stroke-miterlimit="10" x1="150" y1="250.4" x2="155.3" y2="294.4"/>
		<path id="XMLID_75_" fill="none" stroke="#596266" stroke-linecap="round" stroke-linejoin="round" stroke-miterlimit="10" d="
			M191,294.4c0,3.2-8,5.8-17.9,5.8s-17.9-2.6-17.9-5.8"/>

			<line id="XMLID_58_" fill="none" stroke="#596266" stroke-linecap="round" stroke-linejoin="round" stroke-miterlimit="10" x1="196.6" y1="249.7" x2="191" y2="294.4"/>
		<path id="XMLID_85_" fill="none" stroke="#B6C3D1" stroke-linecap="round" stroke-linejoin="round" stroke-miterlimit="10" d="
			M196.6,249.7c0,3.2-10.5,5.8-23.4,5.8c-12.9,0-23.4-2.6-23.4-5.8"/>
	</g>
	<g id="XMLID_93_">
		<path id="XMLID_94_" fill="#B7AE9E" stroke="#605845" stroke-linecap="round" stroke-linejoin="round" stroke-miterlimit="10" d="
			M448.9,431.8V352c0-2.2-1.8-4-4-4h-107c-2.2,0-4,1.8-4,4v79.8c0,0.1,0,0.1,0,0.2h115C448.9,431.9,448.9,431.9,448.9,431.8z"/>
	</g>
</g>
<g id="Layer_4">
	<g id="XMLID_81_">
		<rect id="XMLID_3_" x="198.2" y="19.6" fill="#C99960" stroke="#8C6238" stroke-miterlimit="10" width="282.3" height="181.5"/>
		<linearGradient id="XMLID_92_" gradientUnits="userSpaceOnUse" x1="339.3604" y1="129.561" x2="339.3604" y2="29.3778">
			<stop  offset="0" style="stop-color:#FFFFFF"/>
			<stop  offset="1" style="stop-color:#B0C7F4"/>
		</linearGradient>

			<rect id="XMLID_13_" x="213.6" y="35.1" fill="url(#XMLID_92_)" stroke="#8C6238" stroke-miterlimit="10" width="251.6" height="150.5"/>
		<path id="XMLID_64_" fill="#9783A6" stroke="#83579E" stroke-linecap="round" stroke-linejoin="round" stroke-miterlimit="10" d="
			M250.8,86c12.1-13.6,35.2-29.2,35.2-29.2c41.6,22.9,46.3,29.8,49.5,30.1s32.7-18.7,37.1-18.1c5.4,1,36.8,19.7,37.4,20.9
			c2.9,1.6,21.9-14,21.9-14c16.2,11.1,37.2,23,37.2,23s-87.6,35.4-94,35.4c-6.3,0-89.2-8.6-90.8-8.9C282.9,125.1,250.8,86,250.8,86z
			"/>
		<path id="XMLID_63_" fill="#A9BD86" stroke="#77824E" stroke-linecap="round" stroke-linejoin="round" stroke-miterlimit="10" d="
			M213.1,86.6c11.4-3.2,35.2-11.7,64.7,8.3s57.8,31.7,61.6,33.3c0,8.3-1.6,18.7-1.6,18.7H213.1V86.6z"/>
		<path id="XMLID_62_" fill="#90A865" stroke="#56612F" stroke-linecap="round" stroke-linejoin="round" stroke-miterlimit="10" d="
			M313.4,139.3c12.7-13,26-22.5,45.7-17.5c19.7,5.1,42.5-10.2,47.6-14.9c5.1-4.8,40.3-21.3,58.7-4.1c0,19.7-0.3,44.7-0.3,44.7
			L313.4,139.3z"/>

			<rect id="XMLID_60_" x="262.9" y="137" fill="#7C8FDD" stroke="#A3B1E8" stroke-linecap="round" stroke-linejoin="round" stroke-miterlimit="10" width="202.2" height="51.9"/>
		<path id="XMLID_59_" fill="#769939" stroke="#475613" stroke-linecap="round" stroke-linejoin="round" stroke-miterlimit="10" d="
			M213.1,117.1c0,0,42.5-2.5,82.5,26.7s110.1,41.9,110.1,41.9H213.6C213.6,185.7,213.7,116.8,213.1,117.1z"/>
		<path id="XMLID_65_" fill="#99BA52" stroke="#6D7F21" stroke-linecap="round" stroke-linejoin="round" stroke-miterlimit="10" d="
			M376,161.9c13.4-6.8,21.2-15.6,28.8-12.4s19.3,12.9,19.3,12.9c-7.3,0.7-46.6,0-47.3-0.7"/>
		<g id="XMLID_88_">
			<path id="XMLID_91_" fill="#C99960" stroke="#8C6238" stroke-miterlimit="10" d="M198.2,19.6v181.5h282.3V19.6H198.2z
				 M465.2,185.6H213.6V35.1h251.6V185.6z"/>
		</g>
	</g>
</g>
</svg>
