<?xml version="1.0" encoding="utf-8"?>
<!-- Generator: Adobe Illustrator 19.0.0, SVG Export Plug-In . SVG Version: 6.00 Build 0)  -->
<!DOCTYPE svg PUBLIC "-//W3C//DTD SVG 1.0//EN" "http://www.w3.org/TR/2001/REC-SVG-20010904/DTD/svg10.dtd">
<svg version="1.0" xmlns="http://www.w3.org/2000/svg" xmlns:xlink="http://www.w3.org/1999/xlink" x="0px" y="0px"
	 viewBox="0 0 648 432" enable-background="new 0 0 648 432" xml:space="preserve">
<symbol  id="HOOK" viewBox="-9.8 -15.3 19.6 30.6">
	<path id="XMLID_38_" fill="#AFA3A7" stroke="#5B5154" stroke-linecap="round" stroke-linejoin="round" stroke-miterlimit="10" d="
		M-9.3,7.3c0.8,6.1,5.2,8.3,10.1,7.3C7.2,13.1,6.4,3.6,3.9-0.8S2-10.3,4.1-10.1c2.2,0.3,0.3,0.9,0.9,2.3S8.3-6.4,9-8.2
		c0.7-1.7,0.9-6.7-5.8-6.6C-3.5-14.7-2.6-4.3-0.7-1.3C0.6,0.7,2.7,9.2,0.6,10.1c-2,0.9-5.9-0.1-6.1-3C-8.2,7.1-9.3,7.3-9.3,7.3z"/>
</symbol>
<symbol  id="shoe_1_" viewBox="-43.5 -29.5 86.9 59.1">
	<path id="XMLID_107_" fill="#361556" stroke="#6F41A3" stroke-linecap="round" stroke-linejoin="round" stroke-miterlimit="10" d="
		M-40.5,16.9c0.5,5.7,0.8,7.1,12.3,7.1S-6,24.3-3.8,20.2S-4.1,12-4.1,12L-40.5,16.9z"/>
	<path id="XMLID_106_" fill="#6F41A3" stroke="#361556" stroke-linecap="round" stroke-linejoin="round" stroke-miterlimit="10" d="
		M-39.6,21.3C-44,12.8-43.2,1-42.4-2.5c1.1-3.8,12.9-7.1,22.4-7.4s11,0.1,18.4-3.4s39.6-3.7,42-2c2.5,1.6-2.4,16.7-3.8,17.8
		S11,5.7,4.4,11.7s-15.1,5.7-15.1,5.7C-17.2,13.6-38.3,16.1-39.6,21.3z"/>
	<path id="XMLID_105_" fill="#6F41A3" stroke="#361556" stroke-linecap="round" stroke-linejoin="round" stroke-miterlimit="10" d="
		M-9,13.8c-8.3,6.1-6.3,10.7-5.3,12.5c1,1.8,11.3,3.6,13.6,2.2S4.4,18.2,6.2,16s18.4-9.5,18.4-9.5S14.5,0.4,13.7,0.2
		C12.9,0-9,13.8-9,13.8z"/>
	<path id="XMLID_104_" fill="#F5F9FC" stroke="#9DA3A8" stroke-linecap="round" stroke-linejoin="round" stroke-miterlimit="10" d="
		M10.2-14.4c0,10.5,4.1,19.9,15.8,20.7C34,5.9,45.3,7.1,42.2-12.8C27.6-17.2,10-14.2,10.2-14.4z"/>
	<path id="XMLID_103_" fill="#F5F9FC" stroke="#9DA3A8" stroke-linecap="round" stroke-linejoin="round" stroke-miterlimit="10" d="
		M-35.5,5c0-3.1,2.5-5.6,5.6-5.6s5.6,2.5,5.6,5.6s-2.5,5.6-5.6,5.6S-35.5,8-35.5,5z"/>
	<path id="XMLID_102_" fill="none" stroke="#231F20" stroke-linecap="round" stroke-linejoin="round" stroke-miterlimit="10" d="
		M-6.4,10.5c5.3,2.7,18,2.6,18,2.6L2.5,2l22.1,4.5"/>
	<path id="XMLID_101_" fill="#F5F9FC" stroke="#9DA3A8" stroke-linecap="round" stroke-linejoin="round" stroke-miterlimit="10" d="
		M-43-1.6c0-3.4,1-8.1,1-8.1c11.1-4,25.3-2.2,31.6-3.8S6.3-20,25.3-19.4c18.7,0.6,17,2.4,17,2.4l0.7,5.6c-8.5-4-18.6-3.4-18.6-3.4
		c-13.9,0.3-19.9,1.2-31,4.7S-28.8-11.1-43-1.6z"/>
	<path id="XMLID_100_" fill="none" stroke="#231F20" stroke-linecap="round" stroke-linejoin="round" stroke-miterlimit="10" d="
		M5.2,17.6C4.1,14-5,5.5-2.8,6.2c11.9,3.5,19.4,4.5,21.3,2.7c-4.5-3-5.5-10.3-5.5-10.3"/>
	<path id="XMLID_99_" fill="none" stroke="#231F20" stroke-linecap="round" stroke-linejoin="round" stroke-miterlimit="10" d="
		M-8.4,13.7c-6.3,1.4-3.7-3.2-4-8c-0.3-4.8,1.6-22-0.8-25.5s-19.3-3-19.7-6.4c-0.5-3.4,8.8-2.9,14.4-2.6"/>
</symbol>
<g id="Layer_4">
	<rect id="XMLID_87_" fill="#BAD8D5" width="648" height="432"/>
</g>
<g id="Layer_2">

		<rect id="XMLID_4_" x="0" y="370.8" fill="#E5F9F7" stroke="#6D9E98" stroke-linecap="round" stroke-linejoin="round" stroke-miterlimit="10" width="648" height="61.2"/>

		<rect id="XMLID_90_" x="264.4" y="17" fill="#8C644D" stroke="#633929" stroke-linecap="round" stroke-linejoin="round" stroke-miterlimit="10" width="211.1" height="354.4"/>

		<polygon id="XMLID_9_" fill="#DBD2B6" stroke="#6D654A" stroke-linecap="round" stroke-linejoin="round" stroke-miterlimit="10" points="
		484.1,10.9 484.1,10.9 256.9,10.9 256.9,24.7 257.1,24.7 257.1,375.5 271.4,375.5 271.4,24.7 469.9,24.7 469.9,375.5 484.2,375.5
		484.2,10.9 	"/>

		<rect id="XMLID_5_" x="300.3" y="42.7" fill="#DBD2B6" stroke="#6D654A" stroke-linecap="round" stroke-linejoin="round" stroke-miterlimit="10" width="144.5" height="144.5"/>

		<rect id="XMLID_6_" x="310.2" y="52.5" fill="#BCE1F7" stroke="#6D654A" stroke-linecap="round" stroke-linejoin="round" stroke-miterlimit="10" width="124.8" height="124.8"/>

		<rect id="XMLID_7_" x="371.3" y="49.1" fill="#DBD2B6" stroke="#6D654A" stroke-linecap="round" stroke-linejoin="round" stroke-miterlimit="10" width="6.4" height="131.9"/>

		<rect id="XMLID_8_" x="307.6" y="111.9" fill="#DBD2B6" stroke="#6D654A" stroke-linecap="round" stroke-linejoin="round" stroke-miterlimit="10" width="131.9" height="6.4"/>

		<polygon id="XMLID_14_" fill="#895F34" stroke="#5B3127" stroke-linecap="round" stroke-linejoin="round" stroke-miterlimit="10" points="
		172.8,93 64.9,93 64.9,65.7 68.1,62.7 172.8,65.7 175.8,89.8 	"/>

		<rect id="XMLID_10_" x="283.9" y="214.7" fill="#F2D34E" stroke="#5E3E06" stroke-linecap="round" stroke-linejoin="round" stroke-miterlimit="10" width="28.4" height="53.6"/>

		<circle id="XMLID_11_" fill="#F2D34E" stroke="#5E3E06" stroke-linecap="round" stroke-linejoin="round" stroke-miterlimit="10" cx="298.4" cy="231.4" r="8.5"/>
	<path id="XMLID_15_" fill="#231F20" stroke="#231F20" stroke-linecap="round" stroke-linejoin="round" stroke-miterlimit="10" d="
		M302.5,249.1c0-2.1-1.7-3.9-3.9-3.9s-3.9,1.7-3.9,3.9c0,1.9,1.4,3.5,3.2,3.8l-3.2,6h7.8l-2.7-6.1
		C301.4,252.3,302.5,250.8,302.5,249.1z"/>

		<rect id="XMLID_12_" x="68" y="62.4" fill="#BC8E5B" stroke="#5B3127" stroke-linecap="round" stroke-linejoin="round" stroke-miterlimit="10" width="107.9" height="27.3"/>

		<line id="XMLID_16_" fill="#895F34" stroke="#5B3127" stroke-linecap="round" stroke-linejoin="round" stroke-miterlimit="10" x1="67.9" y1="89.6" x2="64.9" y2="93"/>

		<use xlink:href="#HOOK"  width="19.6" height="30.6" id="XMLID_13_" x="-9.8" y="-15.3" transform="matrix(1 0 0 -1 96.2637 69.8686)" overflow="visible"/>

		<use xlink:href="#HOOK"  width="19.6" height="30.6" id="XMLID_20_" x="-9.8" y="-15.3" transform="matrix(1 0 0 -1 125.7138 69.8686)" overflow="visible"/>

		<use xlink:href="#HOOK"  width="19.6" height="30.6" id="XMLID_21_" x="-9.8" y="-15.3" transform="matrix(1 0 0 -1 159.8706 69.8686)" overflow="visible"/>
	<path id="XMLID_29_" fill="#542213" stroke="#994531" stroke-linecap="round" stroke-linejoin="round" stroke-miterlimit="10" d="
		M153.9,260.1c11.8-2.2,36.1-2.6,41.6-1c3.2-28.5-1-147.1-2.2-154.5s-6.7-39.7-14.1-39.3C171.8,65.7,167,57,157.4,82
		s-2.2,175.6-2.9,176.5"/>
	<path id="XMLID_19_" fill="#994531" stroke="#542213" stroke-linecap="round" stroke-linejoin="round" stroke-miterlimit="10" d="
		M114.5,159.1c0,0-2.6,49.9,0.3,102.7c0,0,10.6,2.9,18.9,2.6c0,0,0.6,3.8,1.3,13.1c0,0,17.6,5.4,27.2,0.6
		c-13.8-167.6,2.6-206.3,7.7-210.5c3.5-3.5,15,12.5,17,53.4c1.6,41.9-1,158.6-1,158.6c17,7.4,22.4-1.6,22.4-1.6c0.3-5.8,1-15,1-15
		c9.3,2.2,21.1-4.5,21.1-4.5c-6.7-53.7-23-134.3-27.5-146.2s-26.9-50.9-31.7-51.2S136.6,88.1,114.5,159.1z"/>
	<path id="XMLID_23_" fill="#994531" stroke="#542213" stroke-linecap="round" stroke-linejoin="round" stroke-miterlimit="10" d="
		M171.4,60.9c13.8,1.6,38.4,31,44.8,43.5s29.4,83.8,29.1,85.7c-9,12.8-21.6,23.2-21.6,23.2c-8-49.3-18.8-92.4-19.1-93.7"/>
	<path id="XMLID_22_" fill="#994531" stroke="#542213" stroke-linecap="round" stroke-linejoin="round" stroke-miterlimit="10" d="
		M171.7,61.3c-15.4,1.6-49.2,35.4-55.3,48.2s-24.3,58.2-23.3,96.9c6.7,17.3,26.9,24.3,34.5,17.9c-1.3-63,5.8-104.3,5.8-104.3"/>
	<path id="XMLID_25_" fill="#994531" stroke="#542213" stroke-linecap="round" stroke-linejoin="round" stroke-miterlimit="10" d="
		M135.9,225.3c-2.6,12.8-2.2,39-2.2,39"/>
	<path id="XMLID_26_" fill="#994531" stroke="#542213" stroke-linecap="round" stroke-linejoin="round" stroke-miterlimit="10" d="
		M208.5,213.4c0.6,22.7,0.6,49.6,0.6,49.6"/>
	<path id="XMLID_27_" fill="#994531" stroke="#542213" stroke-linecap="round" stroke-linejoin="round" stroke-miterlimit="10" d="
		M146.5,184c-2.6,5.1-14.7,14.7-14.7,14.7"/>
	<path id="XMLID_28_" fill="#994531" stroke="#542213" stroke-linecap="round" stroke-linejoin="round" stroke-miterlimit="10" d="
		M195.8,183.4c3.5,6.1,17.6,16.6,17.6,16.6"/>
	<g id="shoe">
		<path id="XMLID_56_" fill="#361556" stroke="#6F41A3" stroke-linecap="round" stroke-linejoin="round" stroke-miterlimit="10" d="
			M161.1,350.4c0.5-5.7,0.8-7.1,12.3-7.1s22.2-0.3,24.4,3.8c2.2,4.1-0.3,8.2-0.3,8.2L161.1,350.4z"/>
		<path id="XMLID_55_" fill="#6F41A3" stroke="#361556" stroke-linecap="round" stroke-linejoin="round" stroke-miterlimit="10" d="
			M161.9,346c-4.4,8.5-3.6,20.2-2.7,23.8c1.1,3.8,12.9,7.1,22.4,7.4c9.6,0.3,11-0.1,18.4,3.4c7.4,3.6,39.6,3.7,42,2
			c2.5-1.6-2.4-16.7-3.8-17.8s-25.8-3.3-32.3-9.3c-6.6-6-15.1-5.7-15.1-5.7C184.3,353.6,163.2,351.2,161.9,346z"/>
		<path id="XMLID_54_" fill="#6F41A3" stroke="#361556" stroke-linecap="round" stroke-linejoin="round" stroke-miterlimit="10" d="
			M192.5,353.5c-8.3-6.1-6.3-10.7-5.3-12.5c1-1.8,11.3-3.6,13.6-2.2c2.2,1.4,5.1,10.3,6.9,12.5s18.4,9.5,18.4,9.5
			s-10.1,6.1-10.9,6.3C214.4,367.3,192.5,353.5,192.5,353.5z"/>
		<path id="XMLID_53_" fill="#F5F9FC" stroke="#9DA3A8" stroke-linecap="round" stroke-linejoin="round" stroke-miterlimit="10" d="
			M211.8,381.6c0-10.5,4.1-19.9,15.8-20.7c7.9,0.4,19.2-0.8,16.2,19.1C229.2,384.5,211.6,381.4,211.8,381.6z"/>

			<circle id="XMLID_52_" fill="#F5F9FC" stroke="#9DA3A8" stroke-linecap="round" stroke-linejoin="round" stroke-miterlimit="10" cx="171.6" cy="362.3" r="5.6"/>
		<path id="XMLID_51_" fill="none" stroke="#231F20" stroke-linecap="round" stroke-linejoin="round" stroke-miterlimit="10" d="
			M195.2,356.8c5.3-2.7,18-2.6,18-2.6l-9.1,11.1l22.1-4.5"/>
		<path id="XMLID_40_" fill="#F5F9FC" stroke="#9DA3A8" stroke-linecap="round" stroke-linejoin="round" stroke-miterlimit="10" d="
			M158.5,368.9c0,3.4,1,8.1,1,8.1c11.1,4,25.3,2.2,31.6,3.8c6.3,1.6,16.7,6.5,35.7,5.8c18.7-0.6,17-2.4,17-2.4l0.7-5.6
			c-8.5,4-18.6,3.4-18.6,3.4c-13.9-0.3-19.9-1.2-31-4.7C183.6,373.9,172.7,378.4,158.5,368.9z"/>
		<path id="XMLID_39_" fill="none" stroke="#231F20" stroke-linecap="round" stroke-linejoin="round" stroke-miterlimit="10" d="
			M206.7,349.7c-1.1,3.5-10.2,12-8,11.4c11.9-3.5,19.4-4.5,21.3-2.7c-4.5,3-5.5,10.3-5.5,10.3"/>
	</g>

		<use xlink:href="#shoe_1_"  width="86.9" height="59.1" id="XMLID_31_" x="-43.5" y="-29.5" transform="matrix(1 0 0 -1 167.6584 371.2676)" overflow="visible"/>
	<path id="XMLID_18_" fill="#994531" stroke="#542213" stroke-linecap="round" stroke-linejoin="round" stroke-miterlimit="10" d="
		M169.5,63.4c-7.6,3.7-20.6,30.7-22.5,41.4"/>
	<path id="XMLID_24_" fill="#994531" stroke="#542213" stroke-linecap="round" stroke-linejoin="round" stroke-miterlimit="10" d="
		M174.7,64.9c7.9,3.7,18.1,29.4,19.4,34.4"/>
	<path id="XMLID_57_" fill="#994531" stroke="#542213" stroke-linecap="round" stroke-linejoin="round" stroke-miterlimit="10" d="
		M176.9,66.2c7.6,4.6,19.8,20.3,19.8,20.3"/>
	<path id="XMLID_17_" fill="#994531" stroke="#542213" stroke-linecap="round" stroke-linejoin="round" stroke-miterlimit="10" d="
		M165.8,66.3c-7.3,3.7-30.9,29.6-25,28.2C146.6,93,153.1,81,153.1,81"/>

		<line id="XMLID_43_" fill="none" stroke="#6D9E98" stroke-linecap="round" stroke-linejoin="round" stroke-miterlimit="10" x1="111.9" y1="371.3" x2="34.7" y2="432"/>

		<line id="XMLID_95_" fill="none" stroke="#6D9E98" stroke-linecap="round" stroke-linejoin="round" stroke-miterlimit="10" x1="289.2" y1="371.3" x2="212" y2="432"/>

		<line id="XMLID_96_" fill="none" stroke="#6D9E98" stroke-linecap="round" stroke-linejoin="round" stroke-miterlimit="10" x1="439.1" y1="371.3" x2="361.8" y2="432"/>

		<line id="XMLID_97_" fill="none" stroke="#6D9E98" stroke-linecap="round" stroke-linejoin="round" stroke-miterlimit="10" x1="573" y1="371.3" x2="495.7" y2="432"/>

		<line id="XMLID_41_" fill="none" stroke="#6D9E98" stroke-linecap="round" stroke-linejoin="round" stroke-miterlimit="10" x1="646.9" y1="417.3" x2="628.2" y2="432"/>

		<line id="XMLID_108_" fill="none" stroke="#6D9E98" stroke-linecap="round" stroke-linejoin="round" stroke-miterlimit="10" x1="-0.4" y1="404" x2="648" y2="404"/>
</g>
<g id="Layer_3">
	<g id="XMLID_91_">
		<path id="XMLID_94_" fill="#BA4242" stroke="#601919" stroke-linecap="round" stroke-linejoin="round" stroke-miterlimit="10" d="
			M433.3,281.8l-3.5-3.2c-1.4,7.3-3.2,52.4-3.2,52.4c-8.6,14.8-8.1,32.4-5.6,36.7c2.5,4.3,5.2,10.2,9.1,7c3.8-3.2,2.9-38.7,2.5-42.6
			C432.4,328.4,433.3,281.8,433.3,281.8z M428.3,372.2c-1.1,0.8-4.3-3.7-5.7-7.5s3.8-32.9,7-27.9
			C432.2,340.9,429.4,371.4,428.3,372.2z"/>
	</g>
	<path id="XMLID_72_" fill="#F5C54E" stroke="#7F5421" stroke-linecap="round" stroke-linejoin="round" stroke-miterlimit="10" d="
		M481,340.4c-2.9,25.2-7.5,40-7.9,40.6c-9.2,0.3-12.4,8.9-11.7,12.1c0.6,3.2,3.8,2.7,3.8,2.7c3.7,4.1,7.9,3.3,10,2.7
		c6.2,2.7,12.9-1.6,13.5-2.7c0.6-2.7,1.1-9.7,2.4-10.8c1.3-1.1,3.8-2.2,3.8-3.7s-1.7-1.9-1.6-3.8c0.2-1.9,11.9-25.4,11.9-25.4
		c-0.2,2.4,0.6,4.8,0.6,4.8c2.7-1.4,4.6-7,3.7-9.1c1.1,3.5,1.4,5.1,1.4,5.1c1.4-3.7,2.4-8.4,1.3-10.5c-1.1-2.1-5.1-14.3-6-15.9"/>
	<path id="XMLID_71_" fill="#F5C54E" stroke="#7F5421" stroke-linecap="round" stroke-linejoin="round" stroke-miterlimit="10" d="
		M471.9,385.5c-3.2-0.3-7.6,4.4-6.8,10.3"/>
	<path id="XMLID_70_" fill="#F5C54E" stroke="#7F5421" stroke-linecap="round" stroke-linejoin="round" stroke-miterlimit="10" d="
		M481.6,387.7c-4-1.9-9.1,2.5-6.5,10.8"/>
	<path id="XMLID_60_" fill="#F5C54E" stroke="#7F5421" stroke-linecap="round" stroke-linejoin="round" stroke-miterlimit="10" d="
		M544.5,325.5c9.2,7.6,16.2,10.8,24.1,12.2c-2.7,17.5-6,26.2-7,27c-5.3,1.2-14.3,2.1-13.4,14.2c0.2,2.1,2,3.8,4.2,3.7
		c0.7,0,1.3-0.2,1.3-0.2c3.7,4.3,9.4,1.9,9.4,1.9c3.2,5.1,11.1,0.6,11.1,0.6c2.5-4,2.5-9.8,5.1-11.1c2.5-1.3-0.3-4,0.5-5.9
		c0.8-1.9,9.4-22.9,9.4-23.5c1,1,1.7,1.9,1.7,1.9c0.5-3-3.8-10.5-1.4-7.8c2.4,2.7,3.3,4.6,3.3,4.6c0.2-4.9-3.5-10.3-5.6-11.6
		c-2.1-1.3-11.1-8.7-11.1-8.7"/>
	<path id="XMLID_48_" fill="none" stroke="#231F20" stroke-linecap="round" stroke-linejoin="round" stroke-miterlimit="10" d="
		M498.4,277.4"/>
	<path id="XMLID_59_" fill="#F5C54E" stroke="#7F5421" stroke-linecap="round" stroke-linejoin="round" stroke-miterlimit="10" d="
		M473.3,313.4c3.6-10.9-2.9,20.3-4.8,22.1c5.2-0.3,6.5-3.5,6.5-3.5c3,7.6,2.1,10.6,6.7,14c-0.5-4.4-0.3-6.5-0.3-6.5
		c2.5,6.7,8.7,11.9,12.4,13.2c-1-2.4-1.6-6-1.6-6c7,11.3,24.5,11.4,31,9.8c6.5-1.6,26.5-14,34.9-16.7c8.4-2.7,25.4-7.6,26-7.3
		c0.6,0.3,23-16.2,21-26.5c-2.1-10.3-15.6-21.6-18.7-22.1c-3.2-0.5-18.4,6.4-22.7,6c-4.3-0.3-36.2-1-42.2-2.5
		c-6-1.6-17-1.9-17.5-1.7C503.5,285.8,473.2,313.9,473.3,313.4z"/>
	<path id="XMLID_58_" fill="#F5C54E" stroke="#7F5421" stroke-linecap="round" stroke-linejoin="round" stroke-miterlimit="10" d="
		M504.9,302.5c-5.7,5.9-16.7,31.8,3.5,51c-2.9,25.2-7.5,40-7.9,40.6c-9.2,0.3-12.4,8.9-11.7,12.1c0.6,3.2,3.8,2.7,3.8,2.7
		c3.7,4.1,7.9,3.3,10,2.7c6.2,2.7,12.9-1.6,13.5-2.7c0.6-2.7,1.1-9.7,2.4-10.8c1.3-1.1,3.8-2.2,3.8-3.7s-1.7-1.9-1.6-3.8
		c0.2-1.9,11.9-25.4,11.9-25.4c-0.2,2.4,0.6,4.8,0.6,4.8c2.7-1.4,4.6-7,3.7-9.1c1.1,3.5,1.4,5.1,1.4,5.1c1.4-3.7,2.4-8.4,1.3-10.5
		c-1.1-2.1-5.1-14.3-6-15.9c-1-1.6,1.1-22.5-0.2-25.2"/>
	<path id="XMLID_50_" fill="#D14634" stroke="#7F2716" stroke-linecap="round" stroke-linejoin="round" stroke-miterlimit="10" d="
		M498.7,280c-2.9,10.5-14,20.4-30.2,23.9c0.3,6.7,4.5,12.3,4.5,12.3c11.3,0.2,32.8-21.8,34.4-30.7C499.9,280.4,498.7,280,498.7,280z
		"/>
	<path id="XMLID_61_" fill="#F5C54E" stroke="#7F5421" stroke-linecap="round" stroke-linejoin="round" stroke-miterlimit="10" d="
		M499.4,398.5c-3.2-0.3-7.6,4.4-6.8,10.3"/>
	<path id="XMLID_73_" fill="#F5C54E" stroke="#7F5421" stroke-linecap="round" stroke-linejoin="round" stroke-miterlimit="10" d="
		M587.4,286.7c7.8-8.7,13.5-26,14.7-29.9c1.8-5.8,2.7-10.4,6.7-9.7c4.1,0.7,7.4,12.2,2.8,22.1c-4.6,9.9-12.4,22.6-12.4,22.6
		L587.4,286.7z"/>
	<path id="XMLID_62_" fill="#F5C54E" stroke="#7F5421" stroke-linecap="round" stroke-linejoin="round" stroke-miterlimit="10" d="
		M509.1,400.8c-4-1.9-9.1,2.5-6.5,10.8"/>
	<path id="XMLID_63_" fill="#F5C54E" stroke="#7F5421" stroke-linecap="round" stroke-linejoin="round" stroke-miterlimit="10" d="
		M564.2,317.1c3.2,2.5,8.1,15.6,17.3,23.2c9.2,7.6,16.2,10.8,24.1,12.2c-2.7,17.5-6,26.2-7,27c-5.3,1.2-14.3,2.1-13.4,14.2
		c0.2,2.1,2,3.8,4.2,3.7c0.7,0,1.3-0.2,1.3-0.2c3.7,4.3,9.4,1.9,9.4,1.9c3.2,5.1,11.1,0.6,11.1,0.6c2.5-4,2.5-9.8,5.1-11.1
		c2.5-1.3-0.3-4,0.5-5.9s9.4-22.9,9.4-23.5c1,1,1.7,1.9,1.7,1.9c0.5-3-3.8-10.5-1.4-7.8c2.4,2.7,3.3,4.6,3.3,4.6
		c0.2-4.9-3.5-10.3-5.6-11.6c-2.1-1.3-11.1-8.7-11.1-8.7c0.2-27-6-49.7-21.6-53.3c-15.6-3.7-23.2,4.6-27.6,11.7"/>
	<path id="XMLID_64_" fill="#F5C54E" stroke="#7F5421" stroke-linecap="round" stroke-linejoin="round" stroke-miterlimit="10" d="
		M606.4,387.6c-3.2-1.7-8.4,4.3-6.4,11.4"/>
	<path id="XMLID_49_" fill="#F5C54E" stroke="#7F5421" stroke-linecap="round" stroke-linejoin="round" stroke-miterlimit="10" d="
		M458.4,289.8c3.2,2.4,8.3,18.4,6.4,23.7c4.9-2.5,5.1-7.3,5.1-7.8c2.4,3.3,9.8,7.5,8.1,4.9s-1.3-6.2-1.3-6.2
		c1.6,1.1,5.1,1.6,5.1,1.6c-2.4-2.5-3.3-5.6-3.3-5.6c2.7,2.1,7,0.6,7,0.6c10.5-8.1,14-19.7,14-19.7c-2.9-4.3-8.7-15.9-8.7-15.9"/>
	<path id="XMLID_65_" fill="#F5C54E" stroke="#7F5421" stroke-linecap="round" stroke-linejoin="round" stroke-miterlimit="10" d="
		M596.4,385c-5.4,1-7.8,7.1-5.7,11.6"/>
	<path id="XMLID_68_" fill="#F5C54E" stroke="#7F5421" stroke-linecap="round" stroke-linejoin="round" stroke-miterlimit="10" d="
		M569.4,372.8c-3.2-1.7-8.4,4.3-6.4,11.4"/>
	<path id="XMLID_67_" fill="#F5C54E" stroke="#7F5421" stroke-linecap="round" stroke-linejoin="round" stroke-miterlimit="10" d="
		M559.4,370.3c-5.4,1-7.8,7.1-5.7,11.6"/>
	<path id="XMLID_66_" fill="#E0B855" stroke="#7F5421" stroke-linecap="round" stroke-linejoin="round" stroke-miterlimit="10" d="
		M613.9,351.7c-3.8,1.7-8.3,0.8-8.3,0.8"/>
	<path id="XMLID_74_" fill="none" stroke="#231F20" stroke-linecap="round" stroke-linejoin="round" stroke-miterlimit="10" d="
		M573.8,256.5c3.7-3,15.2-7.8,23.3-5.1"/>
	<path id="XMLID_85_" fill="#F5C54E" stroke="#7F5421" stroke-linecap="round" stroke-linejoin="round" stroke-miterlimit="10" d="
		M491.8,231.4c-4.1-1.6-5.5-2.5-5.5-2.5s-3.4-3.9-6.9-6.2c-3.5-2.3-12.7,6.7-12.7,11c0,4.2,9.4,9.2,10.1,9
		C477.4,242.5,491.8,231.4,491.8,231.4z"/>
	<path id="XMLID_30_" fill="#F5C54E" stroke="#7F5421" stroke-linecap="round" stroke-linejoin="round" stroke-miterlimit="10" d="
		M485.6,289.7c1.8-0.2,4.8-10.6,3-15.2c0,0,3,3,3.7,6.7c0,0,0.5-7.8-1.6-12c0,0,3,2.1,5.5,1.8c0,0-1.6-3.2-3.5-8.1
		c0-0.7,2.5-8.1-2.1-17.8c-2.1-8.3-11.8-12.9-12.7-13.2c-5.8-3.5-11.8-11.1-11.8-11.1c0,3.5,2.5,8.1,2.5,8.1
		c-3-3.2-11.5-0.7-11.5-0.7c4.6-1.2,9.9,3.4,9.9,3.4c-2.8,0-10.3,2.1-12.4,5.1c-2.1,3-3.3,7.5-7,9.1c-19.9-2.3-30.7-1.2-30.7-1.2
		c-2.1,7.8,0.5,25.2,4.2,27c2.9,2.5,4.6,2.8,4.6,2.8c0.7,8.5,6.2,10.2,10.8,11.5c4.6,1.4,15.9,0.7,20.5,3.2
		c4.6,2.5,14.8,4.3,18.5,3.9"/>
	<path id="XMLID_33_" fill="#4C332E" stroke="#30201B" stroke-linecap="round" stroke-linejoin="round" stroke-miterlimit="10" d="
		M414.6,244.7c2.2-2.2,12.4-2.9,16.2,2.2c-1.1,8.6-13.3,14.8-13.3,14.8C412.9,255.5,414.9,244.5,414.6,244.7z"/>

		<ellipse id="XMLID_32_" transform="matrix(-0.8984 -0.4392 0.4392 -0.8984 765.5969 677.7548)" fill="#231F20" cx="461.2" cy="250.3" rx="1" ry="4.5"/>
	<path id="XMLID_35_" fill="none" stroke="#231F20" stroke-linecap="round" stroke-linejoin="round" stroke-miterlimit="10" d="
		M462.1,239.3c1.6-1.1,7,0.8,7.9,5.1"/>
	<path id="XMLID_34_" fill="none" stroke="#231F20" stroke-linecap="round" stroke-linejoin="round" stroke-miterlimit="10" d="
		M461,269.8c-2.9,4-8.6,7.5-12.9,6.7s-22.2-2-22.2-2"/>
	<path id="XMLID_37_" fill="#E0B855" stroke="#7F5421" stroke-linecap="round" stroke-linejoin="round" stroke-miterlimit="10" d="
		M457.8,267.4c4.1,2.4,5.9,5.2,5.9,5.2"/>
	<path id="XMLID_75_" fill="none" stroke="#231F20" stroke-linecap="round" stroke-linejoin="round" stroke-miterlimit="10" d="
		M580.5,260.5c4.4-3,9.5-5.3,17.7-2.7"/>
	<path id="XMLID_36_" fill="#BA4242" stroke="#601919" stroke-linecap="round" stroke-linejoin="round" stroke-miterlimit="10" d="
		M436.7,274.8c1.7-2.9,6.4-2.9,8.6-1.3c2.2,1.6,4.3,7.1,4.9,11.6s0.3,67,0.2,70c-0.2,3,0,29.1-1,32.5c-1,3.5-8.9,9.1-17.3,9.2
		c-8.4,0.2-53-0.3-57.3,1.1s-7.1,3.5-4,4.9c3.2,1.4,14.8,3.5,17.3,3.5c2.5,0-1.3,6-1.3,6c-10.3,0.6-29.5-2.2-27.6-10.2
		c1.9-7.9,13.5-11.1,38.7-10.6c25.2,0.5,42.1,1.4,44.3-6.2c2.2-7.6,2.5-97,2.5-97C444,278.7,436.7,274.8,436.7,274.8z"/>
	<path id="XMLID_76_" fill="none" stroke="#231F20" stroke-linecap="round" stroke-linejoin="round" stroke-miterlimit="10" d="
		M619.6,255.8c8.1,2.7,15.7,12.4,17.3,14.8"/>
	<path id="XMLID_77_" fill="none" stroke="#231F20" stroke-linecap="round" stroke-linejoin="round" stroke-miterlimit="10" d="
		M617.3,264.8c4.2,2.3,9.4,10.6,9.4,10.6"/>
	<path id="XMLID_78_" fill="none" stroke="#231F20" stroke-linecap="round" stroke-linejoin="round" stroke-miterlimit="10" d="
		M625.9,254.5c-4.1,8.5-9.5,19.3-9.5,19.3"/>
	<path id="XMLID_79_" fill="none" stroke="#231F20" stroke-linecap="round" stroke-linejoin="round" stroke-miterlimit="10" d="
		M630,258.1c-2.3,6.2-3.5,8.5-3.5,8.5"/>
	<path id="XMLID_80_" fill="none" stroke="#231F20" stroke-linecap="round" stroke-linejoin="round" stroke-miterlimit="10" d="
		M588.3,245c-0.5,8.3,1.9,19.3,1.9,19.3"/>
	<path id="XMLID_44_" fill="#8E8588" stroke="#443E40" stroke-linecap="round" stroke-linejoin="round" stroke-miterlimit="10" d="
		M386.9,405.3c-1.3,1.1-2.5,7.2-1.3,8.1c2.4,1.5,3.9,0.5,3.9,0.5c0.3-4.1,1.5-8.3,1.5-8.3C390.5,405.8,386.9,405.3,386.9,405.3z"/>
	<path id="XMLID_42_" fill="#8E8588" stroke="#443E40" stroke-linecap="round" stroke-linejoin="round" stroke-miterlimit="10" d="
		M387.6,412.7c9.7,0.8,29.5,1.3,29.5,1.3c-1.6-1.4-0.8-5.7-0.8-5.7c-10.5,0.6-26.5-1.1-26.5-1.1L387.6,412.7z"/>
	<path id="XMLID_45_" fill="#8E8588" stroke="#443E40" stroke-linecap="round" stroke-linejoin="round" stroke-miterlimit="10" d="
		M407.8,412c-1.1,2.9-0.5,4.3,1.3,4.4c1.7,0.2,5.2-0.5,5.2-0.5l-0.3-4H407.8z"/>
	<path id="XMLID_46_" fill="#8E8588" stroke="#443E40" stroke-linecap="round" stroke-linejoin="round" stroke-miterlimit="10" d="
		M415.6,408.5c0.6,0.2,15.7,0.5,15.7,0.5s0.5,3.8,0,4.1c-0.5,0.3-15.2-0.3-15.2-0.3L415.6,408.5z"/>
	<path id="XMLID_47_" fill="#8E8588" stroke="#443E40" stroke-linecap="round" stroke-linejoin="round" stroke-miterlimit="10" d="
		M408.9,408.2c0.6-8.1,18.9-8.1,20.5,0.6c-2.1,0.5-3.7,0.2-3.7,0.2c0-2.5-8.1-6.5-14-0.6C411.3,407.6,408.9,408.2,408.9,408.2z"/>
	<path id="XMLID_81_" fill="none" stroke="#231F20" stroke-linecap="round" stroke-linejoin="round" stroke-miterlimit="10" d="
		M580.3,248c1.4,5.1,2.3,8.1,2.3,8.1"/>

		<ellipse id="XMLID_82_" fill="#CCC2C6" stroke="#7A7073" stroke-linecap="round" stroke-linejoin="round" stroke-miterlimit="10" cx="471.4" cy="319.9" rx="4.8" ry="6.7"/>
	<path id="XMLID_69_" fill="#F5C54E" stroke="#7F5421" stroke-linecap="round" stroke-linejoin="round" stroke-miterlimit="10" d="
		M492.6,259.5c7.4-4.6,16.4-14.7,16.6-17.3s-6.4-8-8.7-10.6c-2.3-2.7-4.2-1.1-4.9-0.4c-3-3.4-4.1-4.6-7.1-0.4
		c-3,4.2-11,17.1-12.9,21.2c-1.9,4.1,9.5,2.5,13.1,0.4"/>
	<path id="XMLID_83_" fill="#F5C54E" stroke="#7F5421" stroke-linecap="round" stroke-linejoin="round" stroke-miterlimit="10" d="
		M501.8,242.7c-1.6,5.3-13.4,9.7-13.4,9.7"/>
	<path id="XMLID_84_" fill="#E0B855" stroke="#7F5421" stroke-linecap="round" stroke-linejoin="round" stroke-miterlimit="10" d="
		M486.6,242.5c2.3-1.8,9-11.3,9-11.3"/>
	<circle id="XMLID_86_" fill="#231F20" cx="432.4" cy="260.2" r="1.4"/>
	<circle id="XMLID_88_" fill="#231F20" cx="426.9" cy="264.3" r="1.4"/>
	<circle id="XMLID_89_" fill="#231F20" cx="433.8" cy="266.4" r="1.4"/>
</g>
</svg>
