<?xml version="1.0" encoding="utf-8"?>
<!-- Generator: Adobe Illustrator 19.0.0, SVG Export Plug-In . SVG Version: 6.00 Build 0)  -->
<!DOCTYPE svg PUBLIC "-//W3C//DTD SVG 1.0//EN" "http://www.w3.org/TR/2001/REC-SVG-20010904/DTD/svg10.dtd">
<svg version="1.0" xmlns="http://www.w3.org/2000/svg" xmlns:xlink="http://www.w3.org/1999/xlink" x="0px" y="0px"
	 viewBox="0 0 648 432" enable-background="new 0 0 648 432" xml:space="preserve">
<symbol  id="column" viewBox="-31 -146 62 291.9">

		<polygon id="XMLID_158_" fill="#EFEED8" stroke="#93917C" stroke-linecap="round" stroke-linejoin="round" stroke-miterlimit="10" points="
		22.1,145.5 -20.3,145.5 -20.3,-122.3 22.1,-122.3 	"/>
	<path id="XMLID_157_" fill="#EFEED8" stroke="#93917C" stroke-linecap="round" stroke-linejoin="round" stroke-miterlimit="10" d="
		M20.4-127h-40.8c-2.2,0-4,1.8-4,4v3.8c0,2.2,1.8,4,4,4h40.8c2.2,0,4-1.8,4-4v-3.8C24.4-125.2,22.6-127,20.4-127z"/>
	<path id="XMLID_156_" fill="#EFEED8" stroke="#93917C" stroke-linecap="round" stroke-linejoin="round" stroke-miterlimit="10" d="
		M26.5-145.5h-53c-2.2,0-4,1.8-4,4v11.7c0,2.2,1.8,4,4,4h53c2.2,0,4-1.8,4-4v-11.7C30.5-143.7,28.7-145.5,26.5-145.5z"/>
</symbol>
<g id="Layer_9">
	<rect id="XMLID_149_" x="380.6" y="302.5" fill="#91AF68" width="267.4" height="129.5"/>
</g>
<g id="Layer_2">

		<rect id="XMLID_2_" fill="#B7A895" stroke="#847564" stroke-linecap="round" stroke-linejoin="round" stroke-miterlimit="10" width="648" height="278.5"/>

		<rect id="XMLID_3_" x="0" y="274.8" fill="#ACB4B7" stroke="#5D6366" stroke-linecap="round" stroke-linejoin="round" stroke-miterlimit="10" width="465" height="32.4"/>

		<rect id="XMLID_4_" x="0" y="307.1" fill="#8C9193" stroke="#4D5254" stroke-linecap="round" stroke-linejoin="round" stroke-miterlimit="10" width="465" height="13.8"/>
	<path id="XMLID_5_" fill="#C0C7C9" stroke="#5D6366" stroke-linecap="round" stroke-linejoin="round" stroke-miterlimit="10" d="
		M53.6,316.9L207.5,432H622L380.1,315.2C380.1,315.2,53.6,316.4,53.6,316.9z"/>

		<rect id="XMLID_6_" x="123" fill="#EFEED8" stroke="#7A785F" stroke-linecap="round" stroke-linejoin="round" stroke-miterlimit="10" width="193" height="276.8"/>

		<rect id="XMLID_7_" x="106.8" fill="#C49057" stroke="#8E5C2B" stroke-linecap="round" stroke-linejoin="round" stroke-miterlimit="10" width="16.1" height="276.8"/>

		<rect id="XMLID_8_" x="315.9" fill="#C49057" stroke="#8E5C2B" stroke-linecap="round" stroke-linejoin="round" stroke-miterlimit="10" width="17.4" height="276.8"/>

		<rect id="XMLID_9_" x="131.7" y="117.6" fill="#E2B852" stroke="#684B21" stroke-linecap="round" stroke-linejoin="round" stroke-miterlimit="10" width="19.2" height="43.1"/>

		<circle id="XMLID_10_" fill="#E2B852" stroke="#684B21" stroke-linecap="round" stroke-linejoin="round" stroke-miterlimit="10" cx="142.1" cy="130.2" r="7.3"/>

		<use xlink:href="#column"  width="62" height="291.9" id="XMLID_11_" x="-31" y="-146" transform="matrix(1 0 0 -1 53.6144 145.4656)" overflow="visible"/>

		<use xlink:href="#column"  width="62" height="291.9" id="XMLID_13_" x="-31" y="-146" transform="matrix(1 0 0 -1 397.27 145.4656)" overflow="visible"/>

		<rect id="XMLID_12_" x="440.4" y="12.9" fill="#C49057" stroke="#8E5C2B" stroke-linecap="round" stroke-linejoin="round" stroke-miterlimit="10" width="207.6" height="155.6"/>

		<rect id="XMLID_17_" x="454.3" y="25.8" fill="#C3D8E2" stroke="#5E6E77" stroke-linecap="round" stroke-linejoin="round" stroke-miterlimit="10" width="193.7" height="132.3"/>
	<path id="XMLID_150_" fill="#C0C7C9" stroke="#5D6366" stroke-linecap="round" stroke-linejoin="round" stroke-miterlimit="10" d="
		M198.3,419.5c2.4,2.3,396.7,0,396.7,0"/>
	<path id="XMLID_151_" fill="#C0C7C9" stroke="#5D6366" stroke-linecap="round" stroke-linejoin="round" stroke-miterlimit="10" d="
		M119.6,360.2c2.1,2.3,351.6,0,351.6,0"/>
	<path id="XMLID_153_" fill="#C0C7C9" stroke="#D8E1E5" stroke-linecap="round" stroke-linejoin="round" stroke-miterlimit="10" d="
		M117.9,358.4c2.1,2.3,351.6,0,351.6,0"/>
	<path id="XMLID_154_" fill="#C0C7C9" stroke="#D8E1E5" stroke-linecap="round" stroke-linejoin="round" stroke-miterlimit="10" d="
		M137.4,417.7c2.1,2.3,351.6,0,351.6,0"/>
	<path id="XMLID_15_" fill="#5E6E77" stroke="#5E6E77" stroke-linecap="round" stroke-linejoin="round" stroke-miterlimit="10" d="
		M524,26c-5,30.4-29.3,67.7-47.7,74.2c0,40.8,0,57.8,0,57.8h-21.6V25.8C454.7,25.8,524.1,25.5,524,26z"/>
</g>
<g id="Layer_8">
	<path id="XMLID_141_" fill="#91AF68" stroke="#647A41" stroke-miterlimit="10" d="M0,310.7c4.1,3.2,8,13.2,8,13.2
		c0-2.7,5.9-14.1,5.9-14.1c-0.9,5.9-1.4,10.9-1.4,10.9s3.2-10,3.6-8.7c0.9,1.8,3.6,7.3,3.6,7.3c0.9-4.1,7.3-7.7,7.3-7.7l-0.9,6.8
		c4.1-4.1,4.1-7.7,4.1-7.7c1.4,3.6,2.7,8.2,2.7,8.2l5-6.8l0.5,5c0,0,3.6-9.6,4.1-7.7c0.5,1.8,1.8,10.9,2.7,9.1s6.8-14.1,6.4-9.1
		c-0.5,5.9-1.4,8.7-1.4,8.7c5.5-6.8,12.3-7.7,12.3-7.7c-4.1,6.8,0.9,20.5,0.9,20.5c1.8-5.5,3.2-8.2,3.2-8.2
		c0.9,2.3,2.3,11.4,2.3,11.4c0.5-4.1,4.6-11.8,4.6-10.5c-0.5,3.2,0.5,12.3,0.5,12.3l5.5-10l0.5,8.2c4.1-5,4.1-9.6,4.1-9.6
		c2.3,5.9,3.6,15.5,3.6,15.5c3.2-9.1,14.1-15,14.1-15c-4.6,4.6-6.8,15.5-6.8,16.8c0,0.5,7.7-2.7,7.3-4.1c-0.5,1.4,0,11.8,0,11.8
		c2.7-6.4,11.8-8.7,11.8-8.7c-5.5,9.6-4.6,15.5-4.6,15.5c3.2-2.7,5-6.8,5-6.8c0.9,2.3,0.9,10.5,0.9,10.5c2.3-4.1,3.6-19.1,3.6-19.1
		c5,11.8,4.6,22.3,4.6,22.3c-0.5-2.3,6.4-10.5,6.4-10.5c-1.4,7.3-0.9,15.5-0.9,15.5l3.6-9.1c0,2.3,1.8,11.8,1.8,11.8
		c3.6-10.9,2.3-21.4,2.3-21.4c4.6,13.2,4.6,27.8,4.6,27.8c0.5-2.7,12.7-17.3,9.1-10s-4.6,13.2-4.6,13.2c1.4-1.8,10.5-15.9,10.5-15.9
		c-0.9,4.1-3.6,17.8-3.6,17.8l5.9-7.3c0,0,0,7.7-0.9,15c5-5.9,6.4-16.8,6.4-16.8c0.9,2.7,2.7,26,2.7,26c2.3-13.7,6.4-20.9,5.9-18.2
		c-0.5,2.7-0.5,11.4-0.5,11.4l7.3-15.5c2.7,15.5-3.2,27.8-3.2,27.8c5-5,9.1-12.3,9.1-12.3c0,5.9-1.8,15-1.8,15
		c3.2-6.8,12.3-13.2,12.3-13.2c-1.8,2.7-5.5,20-5.5,20c5.5-5.9,9.1-12.7,9.1-12.7c0.5,8.2-1.4,18.2-1.4,18.2
		c2.3-5,5.5-12.7,5.5-12.7c0.9,5.9,1.4,17.3,1.4,17.3c4.1-5.5,20-16.8,16.4-10s-5.5,12.7-5.5,12.7l11.8-10.9c0,0-1.4,7.3-1.4,8.7
		s8.2-6.4,9.6-6.4c1.4,0-1.4,13.9-1.4,13.9H0C0,398.6,0,310.7,0,310.7z"/>
	<path id="XMLID_144_" fill="#91AF68" stroke="#647A41" stroke-miterlimit="10" d="M28,381.3c-1.4-7.3-8.7-20-8.7-20
		c10.9,6.8,11.4,14.6,11.4,14.6c-0.9-8.2,8.7-23.7,8.7-23.7c-3.6,20-3.6,23.2-3.6,23.2c3.2-7.3,9.6-11.8,9.6-11.8l-4.6,16.8"/>
	<path id="XMLID_145_" fill="#91AF68" stroke="#647A41" stroke-miterlimit="10" d="M93.1,420c0-7.3-10-19.6-10-19.6
		c8.7,3.2,13.7,11.4,13.7,11.4c-0.9-13.7-17.3-26.9-8.2-22.8s13.7,18.7,13.7,18.7l6.4-15.5l-0.9,21.4c0.9-1.4,14.1-10,14.1-10
		l-8.7,19.6"/>
	<path id="XMLID_146_" fill="#91AF68" stroke="#647A41" stroke-miterlimit="10" d="M562.1,372.6c0-6.4-4.6-19.6-4.6-19.6
		c8.7,5.9,10,15.5,10,15.5c0.5-5.5,5.9-12.7,5.9-12.7c-0.9,2.7-1.8,19.1-1.8,19.1"/>
	<path id="XMLID_147_" fill="#91AF68" stroke="#647A41" stroke-miterlimit="10" d="M594.9,414.9c0.5-4.1-12.7-29.1-3.6-18.2
		c9.1,10.9,8.7,17.3,8.7,17.3c0.9-4.1,9.6-13.2,9.6-13.2s-5,16.4-4.6,14.6c0.5-1.8,9.6-6.8,10.9-5.9c1.4,0.9-6.4,10-6.4,10"/>
	<path id="XMLID_148_" fill="#91AF68" stroke="#647A41" stroke-miterlimit="10" d="M508.4,363.9c0.5-6.4-4.1-13.7-4.1-13.7
		c7.7,3.6,8.7,11.8,8.7,11.8c-0.9-5,10-18.7,10-18.7c-4.6,14.6-5.9,20.5-5.9,20.5c1.4-2.7,10.5-10,10.5-10l-5.5,14.6"/>
</g>
<g id="Layer_3">
	<path id="XMLID_18_" fill="#698251" stroke="#374C26" stroke-linecap="round" stroke-linejoin="round" stroke-miterlimit="10" d="
		M648,187.7c0,0-7-0.7-8.3,0c-1.3,0.7-10-2.7-12.7,0.7c0,0-4.7-5.3-12,1.3c0,0-6-9.3-12,0c0,0-10-10-14.7-0.7c0,0-8.7-8-14,0.7
		c0,0-10-9.3-13.3,0c0,0-6-12.7-13.3,0c-1.3-2-10-7.3-15.3-0.7c-6-6-10-4.7-14-3.3c-1.3-2.7-8.7-4-16.7,2.7c-8,6.7-8.7-6.7-13.3,1.3
		c-2.7-4-9.3-6-16,0.7c-2-6-9.3-8-17.3-2c-19.3-2-30.7,109.3-25.3,126.7c20,7.3,26-1.3,26-1.3c6,5.3,18,1.3,18,1.3c10,8,28,2,28,2
		c24.7,6.7,55.3,1.3,55.3,1.3c10,9.3,7.3-4,16.7-0.7c9.3,3.3,12.7-1.3,12.7-1.3c16,10,18.7,0.7,18.7,0.7c7.3,8,14,0,14,0
		c10.7,6,16-0.7,16-0.7c6.7,5.3,13,1.3,13,1.3"/>

		<path id="XMLID_16_" fill="none" stroke="#F3FFFF" stroke-width="3" stroke-linecap="round" stroke-linejoin="round" stroke-miterlimit="10" d="
		M581.1,47.6c-2.1,0-65.4,76.6-65.4,76.6"/>

		<path id="XMLID_21_" fill="none" stroke="#F3FFFF" stroke-width="3" stroke-linecap="round" stroke-linejoin="round" stroke-miterlimit="10" d="
		M606.8,62.1c-6.9,7.3-43.4,49.8-43.4,49.8"/>
</g>
<g id="Layer_5">
	<path id="XMLID_60_" fill="#7A402D" stroke="#512A20" stroke-linecap="round" stroke-linejoin="round" stroke-miterlimit="10" d="
		M199.3,322.6c-2.7,8.2-5.4,10.6,0.5,13.6c6,3,35.4,9.5,44.4,5.5c9-4.1-7.6-23.6-16.3-28.8C219.3,307.7,199.3,322.6,199.3,322.6z"/>
	<path id="XMLID_59_" fill="#29292D" stroke="#3F3F47" stroke-linecap="round" stroke-linejoin="round" stroke-miterlimit="10" d="
		M208.3,193.2c-4.3,15.8-3.3,31.8-2.2,58.4c-1.1,23.9-14.7,39.4-9.5,81.8c9.2-16.8,39.7-15.8,39.7-15.8c-4.6-18.5-3-41.8-1.6-52.4
		s6-41.3,6-41.3l4.1-1.1c3,16.8,10.3,56.8,5.4,88.8c19,7.3,28-5.7,28-5.7c0-11.1-1.1-83.4-7.1-106.8
		C248.5,189.7,208,193.2,208.3,193.2z"/>
	<path id="XMLID_41_" fill="#CC633A" stroke="#66290E" stroke-linecap="round" stroke-linejoin="round" stroke-miterlimit="10" d="
		M256.5,91.3c10.9,5.4,40.1,36.3,39.1,60.2c-25.9,15.9-35.8,3.7-35.8,3.7"/>
	<path id="XMLID_46_" fill="#CC633A" stroke="#66290E" stroke-linecap="round" stroke-linejoin="round" stroke-miterlimit="10" d="
		M267.7,114.2c7,10.2,7.4,21.4,0.5,31.3c0,0,13.2,22.9,8.5,55.2c-26.8,21.9-69.4,1.5-72.1-5.2c-2.7-6.7,9.4-13.5,6.5-18.7
		c-2.8-5.2,5.2-27.6,4-30.8s-5.9-16.9-11.9-23.1c2.3-15.1,11.6-20.8,22.1-32.3c6.4-5.8,35.5-3.6,35.5-3.6"/>
	<path id="XMLID_35_" fill="#C3D8E2" stroke="#5E6E77" stroke-linecap="round" stroke-linejoin="round" stroke-miterlimit="10" d="
		M148.2,46.4h145.5C289.3,17,270.6,0,270.6,0h-95.4C163.4,9.4,152.1,32.1,148.2,46.4z"/>
	<path id="XMLID_45_" fill="#CC633A" stroke="#66290E" stroke-linecap="round" stroke-linejoin="round" stroke-miterlimit="10" d="
		M241.2,101.6c-7.2-0.2-16-6-17.3-8.8c-1-5.7,0.5-13.8,0.5-14.2s36.8,1.3,38.9,3.5c1.6,3.6-1.8,16.5-2.2,16.7
		c-0.4,0.2-6.3,3-9.9,2.8"/>
	<path id="XMLID_36_" fill="#E89D6B" stroke="#60300F" stroke-linecap="round" stroke-linejoin="round" stroke-miterlimit="10" d="
		M266.4,36.6c7.7,11.2,7.2,28.9-1.8,39.7c-9,10.7-13.1,15.1-21.7,14.2c-8.5-0.9-25-12.7-27.8-27C212.3,49.3,241.9,7.6,266.4,36.6z"
		/>
	<path id="XMLID_38_" fill="#D39842" stroke="#543D18" stroke-linecap="round" stroke-linejoin="round" stroke-miterlimit="10" d="
		M228.1,41.4c-1.5,5.5-0.4,14.9,3.1,19.1c-5.7-0.7-6.6-4.2-6.6-4.2c-0.4,5.3,0.4,13.6,12.3,21.9c-9,0.4-11.6-1.1-11.6-1.1
		c7.5,6.8,13.4,7,12.7,7.5c-16.4,6.1-27.6-1.8-27.4-18.2c-6.1,6.4-6.1,6.4-6.1,6.4c4.4-7.7-4.6-46,24.5-47.6
		c4.8-12.7,46.9-9.6,50.2,20.4c7,8.1,2.2,23.9-2.2,29.4c0.2,10.5,2,12.7,2,12.7c-5,0.4-11.8-5.3-11.8-5.3c0.4,2.6,3.9,8.3,3.9,8.3
		c-8.5,2.8-16.4-3.5-16.4-3.5c7-4.6,16-15.3,14.9-37c-2.2-0.4-9.2-12.1-9.2-12.1c-0.7,4.4,1.3,11,1.3,11c-7.2,0.2-16-7.2-16.9-16.4
		C234.2,44,228.1,41.4,228.1,41.4z"/>
	<path id="XMLID_37_" fill="#E89D6B" stroke="#60300F" stroke-linecap="round" stroke-linejoin="round" stroke-miterlimit="10" d="
		M254.2,58.7c-1.8,3.7-1.5,5.9-0.9,7.9c0.7,2,0.4,3.1-1.5,3.7"/>
	<path id="XMLID_40_" fill="none" stroke="#231F20" stroke-linecap="round" stroke-linejoin="round" stroke-miterlimit="10" d="
		M236.6,70.3c2,3.7,12.7,10.5,19.1,7"/>

		<ellipse id="XMLID_39_" transform="matrix(0.9854 0.17 -0.17 0.9854 13.3289 -40.2534)" fill="#231F20" stroke="#231F20" stroke-linecap="round" stroke-linejoin="round" stroke-miterlimit="10" cx="241.7" cy="57.7" rx="0.8" ry="3.2"/>

		<ellipse id="XMLID_42_" transform="matrix(0.9854 0.17 -0.17 0.9854 14.0489 -43.3656)" fill="#231F20" stroke="#231F20" stroke-linecap="round" stroke-linejoin="round" stroke-miterlimit="10" cx="260.2" cy="60.3" rx="0.8" ry="3.2"/>
	<path id="XMLID_43_" fill="none" stroke="#231F20" stroke-linecap="round" stroke-linejoin="round" stroke-miterlimit="10" d="
		M237.6,49.2c2.5-2.6,7.7-4,9.5-1.2"/>
	<path id="XMLID_44_" fill="none" stroke="#231F20" stroke-linecap="round" stroke-linejoin="round" stroke-miterlimit="10" d="
		M260.3,51.9c3-1.7,4.1,0.5,5.1,2.4"/>
	<path id="XMLID_50_" fill="#E28D30" stroke="#663014" stroke-linecap="round" stroke-linejoin="round" stroke-miterlimit="10" d="
		M223.7,161.9c-0.2-6.2,2-8.7,5.4-6.9c1.7-5.7,9.7-7,12.2-5.2c1.5-3.5,2.8-5.9,2.8-5.9l2.5,2.7c2-2.8,8-1.8,8.7-1
		c1.7-3.8,3.2-4.7,3.2-4.7l3.7,1.5c2.2-1.5,4.7-3.7,4.7-3.7l5.9,4.9c8.7-4,13.4,1.3,13.9,1.8c4.3-3.8,11.2,3.2,11.5,4
		c7-2.7,12,5.7,12,7.4c3-1.8,7.7,4.5,7,7.4c-0.7,2.8-15.2,12.5-15.2,12.5l-49.8,2.3L223.7,161.9z"/>
	<path id="XMLID_48_" fill="#CC633A" stroke="#66290E" stroke-linecap="round" stroke-linejoin="round" stroke-miterlimit="10" d="
		M223.5,93.8c-16.9,4.2-27.4,13.6-38.1,38.2c-10.3,23.6,1.3,59,28.9,56c8.7-2.3,9.9-15.2,6.2-18.6c-3.7-3.3-13.5-7.5-14.6-21.6
		c-1-14,5.7-20.6,12-26.1"/>
	<path id="XMLID_52_" fill="#54E2A5" stroke="#20AF75" stroke-linecap="round" stroke-linejoin="round" stroke-miterlimit="10" d="
		M279,149.4c-0.7,0.3-7.7,10.9-7.7,10.9l9.6,5.4l10-8.5L279,149.4z"/>
	<path id="XMLID_53_" fill="#B73921" stroke="#89280E" stroke-linecap="round" stroke-linejoin="round" stroke-miterlimit="10" d="
		M242.6,156.4l8-3.8l2,5.2c0,0-7.9,4.3-7.9,3.8S242.6,156.4,242.6,156.4z"/>

		<polygon id="XMLID_55_" fill="#D6D3C5" stroke="#727065" stroke-linecap="round" stroke-linejoin="round" stroke-miterlimit="10" points="
		238.1,156.4 242.6,156.4 244.8,161.5 241.9,165.2 241.9,161.7 238.3,163.4 239.8,159.9 	"/>
	<path id="XMLID_56_" fill="#D6D3C5" stroke="#727065" stroke-linecap="round" stroke-linejoin="round" stroke-miterlimit="10" d="
		M250.6,152.5l2,5.2l5.7,1.2l-3-3c0,0,3.5-4,3-4s-4.5,1.2-4.5,1.2s0.8-4.5,0.3-4.2C253.7,149.2,250.6,152.5,250.6,152.5z"/>

		<circle id="XMLID_54_" fill="#B73921" stroke="#89280E" stroke-linecap="round" stroke-linejoin="round" stroke-miterlimit="10" cx="300.1" cy="158.7" r="3.2"/>

		<ellipse id="XMLID_57_" fill="#B73921" stroke="#89280E" stroke-linecap="round" stroke-linejoin="round" stroke-miterlimit="10" cx="292.3" cy="151" rx="2.7" ry="2.3"/>

		<ellipse id="XMLID_162_" fill="#B73921" stroke="#89280E" stroke-linecap="round" stroke-linejoin="round" stroke-miterlimit="10" cx="269.1" cy="153.1" rx="2.7" ry="2.3"/>

		<ellipse id="XMLID_58_" fill="#F2CA22" stroke="#997D0B" stroke-linecap="round" stroke-linejoin="round" stroke-miterlimit="10" cx="230.4" cy="157" rx="2.7" ry="2.5"/>

		<ellipse id="XMLID_160_" fill="#F2CA22" stroke="#997D0B" stroke-linecap="round" stroke-linejoin="round" stroke-miterlimit="10" cx="263.2" cy="147" rx="2.7" ry="2.5"/>

		<ellipse id="XMLID_161_" fill="#F2CA22" stroke="#997D0B" stroke-linecap="round" stroke-linejoin="round" stroke-miterlimit="10" cx="290.9" cy="163.2" rx="2.7" ry="2.5"/>
	<path id="XMLID_47_" fill="#D1AF42" stroke="#704D20" stroke-linecap="round" stroke-linejoin="round" stroke-miterlimit="10" d="
		M222.4,158.5c-1,7.2,3.5,46.2,49.2,45.3c31.9,2,47.2-26.3,46.5-42C282.8,176.8,222.7,158.5,222.4,158.5z"/>
	<path id="XMLID_49_" fill="#E89D6B" stroke="#60300F" stroke-linecap="round" stroke-linejoin="round" stroke-miterlimit="10" d="
		M219.7,172.2c5.5-9,15.9-12,20.6-9.4c4.7,2.7-7.2,5-9.5,9.2c12,12.2,23.6,19.7,15.7,24.8s-25.1-3.2-30.4-13
		C210.8,174.1,219.7,172.2,219.7,172.2z"/>
	<path id="XMLID_51_" fill="#E89D6B" stroke="#60300F" stroke-linecap="round" stroke-linejoin="round" stroke-miterlimit="10" d="
		M317.9,166.9c-4.5,8.9-11.7,16.1-14.6,20.7c-2.8,4.7-1.5,9.7,5.2,6.9C315.2,191.6,327.6,178.4,317.9,166.9z"/>
</g>
<g id="Layer_6">
	<g id="XMLID_155_">
		<path id="XMLID_61_" fill="#7F5733" stroke="#684927" stroke-linecap="round" stroke-linejoin="round" stroke-miterlimit="10" d="
			M311.5,207.4c-7.6,9.5-9.4,13.4-9.4,13.4c-4-0.4-5.4,0.6-5,3.6c0.4,3,1.5,4.1,1.5,4.1c-0.8,1.4-1.7,5.4,0.3,9.7
			c1.9,4.3,18.4,12.6,26.8,6.8s13.8-13.3,13.8-13.3s-13-17.6-13.5-18C325.4,213.3,311.5,207.4,311.5,207.4z"/>
		<path id="XMLID_66_" fill="#BA602F" stroke="#773E18" stroke-linecap="round" stroke-linejoin="round" stroke-miterlimit="10" d="
			M248.2,279.8c-5.4-2.6-22.4,8.3-25.3,10.5c-4.7,5.9,4.7,7.5,4.3,35.1s3.3,53.5,43,55.4c37.3,1.8,40.1-46,39.4-46.2
			c-0.7-0.1-13.3-52.2-13-52.7C301.9,274.1,262.8,282.1,248.2,279.8z"/>

			<path id="XMLID_113_" fill="#DDD3BA" stroke="#474130" stroke-linecap="round" stroke-linejoin="round" stroke-miterlimit="10" d="
			M283.8,419.8c-1.8,0.8-4.2-0.2-10.1-1.4s-8-0.2-11.1,0.6c-3,0.8,5.1,6.1,7.9,7.9c3.9,0,3.7-2.9,10.1-1.1
			c6.4,1.8,14.9-1.8,14.9-1.8s0.2-2.4-0.3-2.6C294.7,421.3,283.8,419.8,283.8,419.8z"/>
		<path id="XMLID_62_" fill="#DDD3BA" stroke="#474130" stroke-linecap="round" stroke-linejoin="round" stroke-miterlimit="10" d="
			M307.3,212.5c6-16.8,32.9-23.2,44.6-9.8s9.7,50.8-18.3,53.2c-0.5,3-0.6,4.4-0.6,4.4c13,7.6,10,24,3.7,39.1
			c-1.9,5.4-0.8,19.4,2.5,29.2c3.3,9.8,8.9,29.4,9.7,43c0.8,13.7,3,44.6,0.6,51.3c-19.2,4-31.3-7.5-28.3-13.8c4.6-1.4,12.5,0,12.5,0
			c-0.6-26.4-10.3-64-11-64.8c-4-0.6-4.9,0.2-4.9,0.2c-4.8,25.2-10.2,49.2-1.6,78.1c-12.7,6.2-34-0.6-34.8-7.1
			c0-4.1,17.6-3.7,17.6-3.7c-10.5-18.6-15.9-53.5-11.1-78.6c1.3-12.4,2.2-22.9,1.1-31.6c-1.1-8.7,1.3-28.6,4.1-32.1
			c2.9-3.5,22.1-10.8,22.1-10.8c0.3-2.2,0.5-7.1,0.5-7.1c-11.9,1-18.1-10.6-18.6-17.9c14.9,9.1,32.9-1,32.9-1
			S309.2,212.8,307.3,212.5z"/>
		<path id="XMLID_65_" fill="none" stroke="#231F20" stroke-linecap="round" stroke-linejoin="round" stroke-miterlimit="10" d="
			M297.8,230.5c1.8,2.2,8.3,2.6,10.4,1"/>

			<ellipse id="XMLID_64_" transform="matrix(0.8056 0.5925 -0.5925 0.8056 190.3153 -140.6478)" fill="none" stroke="#231F20" stroke-linecap="round" stroke-linejoin="round" stroke-miterlimit="10" cx="309.5" cy="219.7" rx="0.5" ry="2.6"/>
		<path id="XMLID_67_" fill="none" stroke="#474130" stroke-linecap="round" stroke-linejoin="round" stroke-miterlimit="10" d="
			M324.5,197.2c8.8,0.4,28.7,10.1,32.9,17"/>
		<path id="XMLID_68_" fill="none" stroke="#474130" stroke-linecap="round" stroke-linejoin="round" stroke-miterlimit="10" d="
			M316.5,201c18.4,3.7,39.5,20.2,41.7,23.2"/>
		<path id="XMLID_69_" fill="none" stroke="#474130" stroke-linecap="round" stroke-linejoin="round" stroke-miterlimit="10" d="
			M309.7,207.8c5.9,7.6,30.4,16.6,48.5,19.1"/>
		<path id="XMLID_70_" fill="none" stroke="#474130" stroke-linecap="round" stroke-linejoin="round" stroke-miterlimit="10" d="
			M336.9,221.9c5,9.5,17.4,20.5,17.4,20.5"/>
		<path id="XMLID_71_" fill="none" stroke="#474130" stroke-linecap="round" stroke-linejoin="round" stroke-miterlimit="10" d="
			M330.4,233c4.1,3.5,21.4,12.9,21.4,12.9"/>
		<path id="XMLID_72_" fill="none" stroke="#474130" stroke-linecap="round" stroke-linejoin="round" stroke-miterlimit="10" d="
			M343.1,230.6c4,0.8,13.8,0.4,14.9-0.4"/>
		<path id="XMLID_73_" fill="none" stroke="#474130" stroke-linecap="round" stroke-linejoin="round" stroke-miterlimit="10" d="
			M335.4,236.5c-5.8,4.7-24.7,8.7-32.8,9.1"/>
		<path id="XMLID_74_" fill="none" stroke="#474130" stroke-linecap="round" stroke-linejoin="round" stroke-miterlimit="10" d="
			M328.9,240.1c2.5,5.1,15.2,13,15.2,13"/>
		<path id="XMLID_75_" fill="none" stroke="#474130" stroke-linecap="round" stroke-linejoin="round" stroke-miterlimit="10" d="
			M315.9,251.9c3.3,3.7,17.8,4.3,17.8,4.3"/>
		<path id="XMLID_76_" fill="none" stroke="#474130" stroke-linecap="round" stroke-linejoin="round" stroke-miterlimit="10" d="
			M334.8,261.8c-2.9,2.2-14.4,3.9-26-0.3"/>
		<path id="XMLID_77_" fill="none" stroke="#474130" stroke-linecap="round" stroke-linejoin="round" stroke-miterlimit="10" d="
			M305.3,263.1c12.4,12.4,33.9,10.5,36.6,9.4"/>
		<path id="XMLID_78_" fill="none" stroke="#474130" stroke-linecap="round" stroke-linejoin="round" stroke-miterlimit="10" d="
			M341.9,282.6c-14.5,4.8-30.3,7.3-41.6,3.9"/>
		<path id="XMLID_79_" fill="none" stroke="#474130" stroke-linecap="round" stroke-linejoin="round" stroke-miterlimit="10" d="
			M297,266.8c4.6,9,29.9,14.1,45.1,11.6"/>
		<path id="XMLID_63_" fill="#7F5733" stroke="#684927" stroke-linecap="round" stroke-linejoin="round" stroke-miterlimit="10" d="
			M322,229.8c4.4-6.9,9.7-3.6,10.2,0.7c0.6,4.3-8.2,12.4-11.1,4.7"/>
		<path id="XMLID_80_" fill="none" stroke="#474130" stroke-linecap="round" stroke-linejoin="round" stroke-miterlimit="10" d="
			M313.4,288.4c6.6,4.7,26,4.3,26,4.3"/>
		<path id="XMLID_81_" fill="none" stroke="#474130" stroke-linecap="round" stroke-linejoin="round" stroke-miterlimit="10" d="
			M336.9,298.7c-7.3,4.8-40.2,4.3-48,2.1"/>
		<path id="XMLID_82_" fill="none" stroke="#474130" stroke-linecap="round" stroke-linejoin="round" stroke-miterlimit="10" d="
			M296.4,288.4c5.9,6.8,25.2,12.4,34.4,12"/>
		<path id="XMLID_83_" fill="#DDD3BA" stroke="#474130" stroke-linecap="round" stroke-linejoin="round" stroke-miterlimit="10" d="
			M302.6,266c-8-0.7-13,6.1-20.6,11.9s-20.9,7.5-27.4,4.8c-1.8-7.7-8.7-8.3-8.2-2.2c-4.8,5.7-8.6,9.8-5.3,13.7c3.3,1.5,5.3,1,5.3,1
			c2.2,2.3,6.9,3,10.1,0.4c12.7,5.9,40.5-2.2,46.6-12.4"/>
		<path id="XMLID_84_" fill="none" stroke="#474130" stroke-linecap="round" stroke-linejoin="round" stroke-miterlimit="10" d="
			M257.4,284c-2.6,2.6-3.9,7.7-0.8,11.6"/>
		<path id="XMLID_85_" fill="none" stroke="#474130" stroke-linecap="round" stroke-linejoin="round" stroke-miterlimit="10" d="
			M262.6,284.4c-2.1,3.2-3,10.2-1.9,12.2"/>
		<path id="XMLID_86_" fill="none" stroke="#474130" stroke-linecap="round" stroke-linejoin="round" stroke-miterlimit="10" d="
			M265.5,284.2c1.7,7.9,2.1,9,7.5,12.6"/>
		<path id="XMLID_87_" fill="none" stroke="#474130" stroke-linecap="round" stroke-linejoin="round" stroke-miterlimit="10" d="
			M281.5,277.5c-3.2,5.9-2.5,14.8-1.1,18.1"/>
		<path id="XMLID_88_" fill="none" stroke="#474130" stroke-linecap="round" stroke-linejoin="round" stroke-miterlimit="10" d="
			M272,282.2c1.7,4.1,7.2,7.5,7.2,7.5"/>
		<path id="XMLID_89_" fill="none" stroke="#474130" stroke-linecap="round" stroke-linejoin="round" stroke-miterlimit="10" d="
			M284.4,275.5c-1.7,6.5-0.4,11.7,3.2,18.2"/>
		<path id="XMLID_90_" fill="none" stroke="#474130" stroke-linecap="round" stroke-linejoin="round" stroke-miterlimit="10" d="
			M291.9,292.1c-1.7-3.3-3.2-16.6,3.3-24.3"/>
		<path id="XMLID_92_" fill="#BA602F" stroke="#773E18" stroke-linecap="round" stroke-linejoin="round" stroke-miterlimit="10" d="
			M234.1,307c0.4-7.9,5.9-17.1,5.9-17.1"/>
		<path id="XMLID_93_" fill="#BA602F" stroke="#773E18" stroke-linecap="round" stroke-linejoin="round" stroke-miterlimit="10" d="
			M246.8,295.7c-2.5,12.6,0.6,31.4,5.9,39.9"/>
		<path id="XMLID_94_" fill="#BA602F" stroke="#773E18" stroke-linecap="round" stroke-linejoin="round" stroke-miterlimit="10" d="
			M253.7,297.5c3,5.5,9,20.6,8.8,28.3"/>
		<path id="XMLID_95_" fill="none" stroke="#474130" stroke-linecap="round" stroke-linejoin="round" stroke-miterlimit="10" d="
			M335.8,303.5c-4.5,4.8-36.4,12.2-45.7,10.9"/>
		<path id="XMLID_96_" fill="none" stroke="#474130" stroke-linecap="round" stroke-linejoin="round" stroke-miterlimit="10" d="
			M288.5,329c9.5,5.1,44.6-0.3,49.6-3.9"/>
		<path id="XMLID_97_" fill="none" stroke="#474130" stroke-linecap="round" stroke-linejoin="round" stroke-miterlimit="10" d="
			M289.3,319.2c10.1,5.1,46.7,0.6,47.6,0.5"/>
		<path id="XMLID_98_" fill="none" stroke="#474130" stroke-linecap="round" stroke-linejoin="round" stroke-miterlimit="10" d="
			M319.1,329.8c9.5,5.8,19.1,18.1,19.1,18.1"/>
		<path id="XMLID_99_" fill="none" stroke="#474130" stroke-linecap="round" stroke-linejoin="round" stroke-miterlimit="10" d="
			M287.4,336.7c3,4.2,23.6,10.7,30,9.6"/>
		<path id="XMLID_100_" fill="none" stroke="#474130" stroke-linecap="round" stroke-linejoin="round" stroke-miterlimit="10" d="
			M286.9,344.6c4.2,7.1,27.3,7.4,30.2,4.5"/>
		<path id="XMLID_101_" fill="none" stroke="#474130" stroke-linecap="round" stroke-linejoin="round" stroke-miterlimit="10" d="
			M343.4,342.5c-1.1,5.9-11.6,8.8-18.6,9.8"/>
		<path id="XMLID_102_" fill="none" stroke="#474130" stroke-linecap="round" stroke-linejoin="round" stroke-miterlimit="10" d="
			M286.6,359.2c9.8,5.6,24.2,2.9,28.9-1.8"/>
		<path id="XMLID_103_" fill="none" stroke="#474130" stroke-linecap="round" stroke-linejoin="round" stroke-miterlimit="10" d="
			M327.5,363.3c5.5,2.6,17.2,0.5,20.5-0.8"/>
		<path id="XMLID_104_" fill="none" stroke="#474130" stroke-linecap="round" stroke-linejoin="round" stroke-miterlimit="10" d="
			M348.7,366.5c-2.4,2.6-12.4,6.4-19.3,6.7"/>
		<path id="XMLID_105_" fill="none" stroke="#474130" stroke-linecap="round" stroke-linejoin="round" stroke-miterlimit="10" d="
			M289.8,385.5c7.5,5.6,19.3,2.9,21.7,1.3"/>
		<path id="XMLID_106_" fill="none" stroke="#474130" stroke-linecap="round" stroke-linejoin="round" stroke-miterlimit="10" d="
			M288,373.4c7.4-0.3,16-0.8,26.5-9.9"/>
		<path id="XMLID_107_" fill="none" stroke="#474130" stroke-linecap="round" stroke-linejoin="round" stroke-miterlimit="10" d="
			M298.6,372.5c5,5.6,13.3,6.4,13.3,6.4"/>
		<path id="XMLID_108_" fill="none" stroke="#474130" stroke-linecap="round" stroke-linejoin="round" stroke-miterlimit="10" d="
			M293.5,398.8c5.3,2.1,16.5,0,18.6-3.2"/>
		<path id="XMLID_109_" fill="none" stroke="#474130" stroke-linecap="round" stroke-linejoin="round" stroke-miterlimit="10" d="
			M298.9,399.8c3.7,4.2,12.8,7.5,14,7.9"/>
		<path id="XMLID_110_" fill="none" stroke="#474130" stroke-linecap="round" stroke-linejoin="round" stroke-miterlimit="10" d="
			M299.2,411.8c3.1,4,14.9,2.1,14.9,2.1"/>
		<path id="XMLID_111_" fill="none" stroke="#474130" stroke-linecap="round" stroke-linejoin="round" stroke-miterlimit="10" d="
			M305,414.2c-3,3.2-4.3,10.4-4.3,10.4"/>
		<path id="XMLID_112_" fill="none" stroke="#474130" stroke-linecap="round" stroke-linejoin="round" stroke-miterlimit="10" d="
			M296.2,411.5c-5.5,3.4-7.1,10.4-7.1,10.4"/>
		<path id="XMLID_114_" fill="none" stroke="#474130" stroke-linecap="round" stroke-linejoin="round" stroke-miterlimit="10" d="
			M330.5,377c3.9,2.4,15.9,1.9,18.8-0.5"/>
		<path id="XMLID_115_" fill="none" stroke="#474130" stroke-linecap="round" stroke-linejoin="round" stroke-miterlimit="10" d="
			M332.1,387.4c5.9,4.7,14,5.5,17.3,3.2"/>
		<path id="XMLID_116_" fill="none" stroke="#474130" stroke-linecap="round" stroke-linejoin="round" stroke-miterlimit="10" d="
			M349.3,382.4c-1.9,2.6-13.2,7.7-13.2,7.7"/>
		<path id="XMLID_117_" fill="none" stroke="#474130" stroke-linecap="round" stroke-linejoin="round" stroke-miterlimit="10" d="
			M333.6,401.4c5.3,0.3,15.1-3.5,16.8-5.3"/>
		<path id="XMLID_91_" fill="none" stroke="#474130" stroke-linecap="round" stroke-linejoin="round" stroke-miterlimit="10" d="
			M334.1,407.5c7.1,2.1,16.2-1.4,16.2-1.4"/>
		<path id="XMLID_119_" fill="none" stroke="#474130" stroke-linecap="round" stroke-linejoin="round" stroke-miterlimit="10" d="
			M333.3,409.5c-4.2,5.6-2.4,12.4-2.4,12.4"/>
		<path id="XMLID_120_" fill="none" stroke="#474130" stroke-linecap="round" stroke-linejoin="round" stroke-miterlimit="10" d="
			M331,408.9c-3.9,1-7.4,5.8-7.1,8.5"/>
		<path id="XMLID_121_" fill="none" stroke="#474130" stroke-linecap="round" stroke-linejoin="round" stroke-miterlimit="10" d="
			M350.6,409.5C348,415.2,335,423,335,423"/>
	</g>
</g>
<g id="Layer_7">
	<path id="XMLID_131_" fill="#8658A8" stroke="#251A30" stroke-linecap="round" stroke-linejoin="round" stroke-miterlimit="10" d="
		M364.3,297.2c-9.7,2.8-10.3,3.9-12,12.8s0,50.7,18.4,60.7c18.4,10,41.8-7,41.8-7l12.2-65.4C424.7,298.3,364.3,297.5,364.3,297.2z"
		/>
	<path id="XMLID_132_" fill="#8658A8" stroke="#251A30" stroke-linecap="round" stroke-linejoin="round" stroke-miterlimit="10" d="
		M364,306.9c-2.8,4.5,0.3,26.7,7.8,31.2"/>
	<path id="XMLID_133_" fill="#8658A8" stroke="#251A30" stroke-linecap="round" stroke-linejoin="round" stroke-miterlimit="10" d="
		M360.9,304.4c-3.6,7.5-3.3,23.4-3.3,23.4"/>
	<path id="XMLID_134_" fill="#8658A8" stroke="#251A30" stroke-linecap="round" stroke-linejoin="round" stroke-miterlimit="10" d="
		M369,303.6c1.4,8.9,8.6,20,10.6,22.5"/>
	<path id="XMLID_139_" fill="#96CE65" stroke="#476B2B" stroke-linecap="round" stroke-linejoin="round" stroke-miterlimit="10" d="
		M394.1,366.8c0.4,14.8,6.5,34.6,7.9,37.8c3.4,3.8,8.7-0.8,8.7-0.8s0-24.9-0.2-25.5C410.2,377.7,394.1,366.8,394.1,366.8z"/>
	<path id="XMLID_140_" fill="#96CE65" stroke="#476B2B" stroke-linecap="round" stroke-linejoin="round" stroke-miterlimit="10" d="
		M431.1,373.7c0.6,11.5,5.3,31.4,5.3,31.4c1.8,1.8,8.7-0.8,8.7-0.8c0-1-1.6-30.6-1.6-30.6H431.1z"/>
	<path id="XMLID_118_" fill="#D39371" stroke="#723E24" stroke-linecap="round" stroke-linejoin="round" stroke-miterlimit="10" d="
		M399.1,228.9c-4.6,0-5.7,0.9-4.8,4.8c-1.8,4.6,0,24.4,20.5,25.7c22.1-3.6,25.5-25.3,24.8-25.3S405.9,212.7,399.1,228.9z"/>
	<path id="XMLID_124_" fill="#534563" stroke="#251A30" stroke-linecap="round" stroke-linejoin="round" stroke-miterlimit="10" d="
		M396.7,281.2c-1.5,7.5,2.3,29,5.2,37.2c-14,20-28,47-28,47c7.7,11,25.2,12,25.2,12l-1,3.7c2.7,3.3,28.7,11.8,50.2,1.3
		c-1.2-3.5-2-5.8-2-5.8c12.2-0.2,26.5-12.2,26.5-12.2c-19-29.3-30.8-45.7-30.8-45.7c2.5-14.7,4.7-28.7,4.7-28.7
		c6.2-1.3-7-25-7.5-24.7C438.5,265.7,397,281.2,396.7,281.2z"/>
	<path id="XMLID_123_" fill="none" stroke="#231F20" stroke-linecap="round" stroke-linejoin="round" stroke-miterlimit="10" d="
		M394.2,241.5c4.2,2.7,10.5,1.2,12.3-1"/>
	<path id="XMLID_122_" fill="#D39371" stroke="#723E24" stroke-linecap="round" stroke-linejoin="round" stroke-miterlimit="10" d="
		M391.2,282.7c-3.8,8.8-8,13.7-12.3,13.7c-4.3,0-8.2-4.7-13.5-3.7c-5.3,1-7.3,3-5.7,7c-3,7.5-1.7,10-1.7,10.8
		c1.8,1.7,4.5-0.3,4.5-0.3c1.3,1.2,5.7,2.2,9.8-3.7c12.8,8.2,30.5-7.8,30.2-19.2C397,282.3,391.2,282.7,391.2,282.7z"/>
	<path id="XMLID_125_" fill="#8658A8" stroke="#251A30" stroke-linecap="round" stroke-linejoin="round" stroke-miterlimit="10" d="
		M414.8,269.5c-15.5-10-23.8-6-27.2,1.7c-3.3,7.7,3.7,29.3,23,16.3C413.7,273.7,414.8,269.5,414.8,269.5z"/>
	<path id="XMLID_126_" fill="#96CE65" stroke="#476B2B" stroke-linecap="round" stroke-linejoin="round" stroke-miterlimit="10" d="
		M399.2,310.2c9,5.7,42.9,1.4,44.4,0.3c-0.5,9.2,0.3,12.1,0.3,12.1c-5.3,4.5-36.2,6.6-43.8-1.4C402,318,399.2,310.2,399.2,310.2z"/>
	<path id="XMLID_128_" fill="#8658A8" stroke="#251A30" stroke-linecap="round" stroke-linejoin="round" stroke-miterlimit="10" d="
		M442.8,263.7c7.8-2.8,15.5,0.2,14.8,14.2c-0.7,14-18.7,10.3-19,9.7C438.3,286.8,443.2,263.8,442.8,263.7z"/>
	<path id="XMLID_129_" fill="#26222B" stroke="#798EA8" stroke-linecap="round" stroke-linejoin="round" stroke-miterlimit="10" d="
		M416.5,236.2c-0.2,13.8-10.2,33.2-9.3,46.2c0.8,13,7.2,16.3,7.2,16.3c0-2.3,1.5-15.7,1.5-15.7c-0.8,7.7,0.7,20.7,9.7,25.7
		c-0.8-2.7-1-9.5-1-9.5c3,6,7.2,15.2,7.2,15.2c1.2-3.8,3-11.7,3-11.7c0.3,1.7-0.8,10.5-0.8,10.5c4.3-4.5,7.3-5.7,8.8-13.5
		c-0.2,4-0.8,6.3-0.8,6.3c1.7-0.8,6.8-3.8,7.8-10.2c1-6.3,0.8-21.3-1.8-25.3c2.3,2.8,3.7,2.3,3.7,2.3c-2.3-3.7-1.5-28.2-1.2-29
		C447,236.2,416.8,235.2,416.5,236.2z"/>
	<path id="XMLID_127_" fill="#D39371" stroke="#723E24" stroke-linecap="round" stroke-linejoin="round" stroke-miterlimit="10" d="
		M412.8,246.3c4.5,4.2,10-2,9-6.8s-6.7-5-8.5-1.5"/>
	<path id="XMLID_135_" fill="#534563" stroke="#251A30" stroke-linecap="round" stroke-linejoin="round" stroke-miterlimit="10" d="
		M411.9,339.1c-5.5,13.7-12.9,38.2-12.9,38.2"/>
	<path id="XMLID_136_" fill="#534563" stroke="#251A30" stroke-linecap="round" stroke-linejoin="round" stroke-miterlimit="10" d="
		M437.8,344.9c4.2,15.9,8.4,31.6,8.4,31.6"/>

		<ellipse id="XMLID_130_" transform="matrix(0.9131 0.4077 -0.4077 0.9131 126.6512 -154.5471)" fill="#534563" stroke="#251A30" stroke-linecap="round" stroke-linejoin="round" stroke-miterlimit="10" cx="425.9" cy="219.9" rx="55.7" ry="21.9"/>
	<path id="XMLID_138_" fill="#534563" stroke="#251A30" stroke-linecap="round" stroke-linejoin="round" stroke-miterlimit="10" d="
		M403.1,210c13.9-23.9,46.3-57,56.6-58.7c3.9,6.1-10.7,25.6-13.5,73.7C431.2,232.8,412.3,223.9,403.1,210z"/>
	<path id="XMLID_137_" fill="#96CE65" stroke="#476B2B" stroke-linecap="round" stroke-linejoin="round" stroke-miterlimit="10" d="
		M410.6,196.8c-2.6,2-9.1,13-9.1,13c9.3,23.5,41.7,20.8,45.9,15.8c0.6-11.5,0.8-13.6,0.8-13.6C435.1,219.1,415.5,213.6,410.6,196.8z
		"/>
	<path id="XMLID_142_" fill="#342D3D" stroke="#251A30" stroke-linecap="round" stroke-linejoin="round" stroke-miterlimit="10" d="
		M397.3,399.2c4.7,2.8,13.2,2,15.4,0.2c-0.4,14.6,1.2,20.8,1.2,20.8c-15.8,3-29.7-3.2-30.2-7.7c1.6-4,17-2.2,17-2.2L397.3,399.2z"/>
	<path id="XMLID_143_" fill="#342D3D" stroke="#251A30" stroke-linecap="round" stroke-linejoin="round" stroke-miterlimit="10" d="
		M432.7,400.6c2.8,1.4,11.5,1.8,14.6-0.8c0,16.2-1,19.8-1,19.8c-10.1,1.4-24.1-5.1-24.1-8.7c0-3.6,12.1-2.6,12.1-2.6L432.7,400.6z"
		/>
</g>
<g id="Layer_10">
	<rect id="XMLID_14_" x="0" y="0" opacity="0.22" fill="#231C47" width="650.4" height="432"/>
</g>
<g id="Layer_4">
	<path id="XMLID_19_" fill="#70492C" stroke="#51321D" stroke-linecap="round" stroke-linejoin="round" stroke-miterlimit="10" d="
		M514.7,257.6c-0.7-13.9,2.7-22.9,2.7-22.9s8.8-0.5,10.2,3.9c-1.9,5.3-5.1,19.2-5.1,19.2L514.7,257.6z"/>
	<path id="XMLID_20_" fill="#D67B36" stroke="#7A3218" stroke-linecap="round" stroke-linejoin="round" stroke-miterlimit="10" d="
		M519.4,253.9c-13.8-8-23.5,1.7-30.2,15.9c-6.7,14.2-15.5,47.8,0.8,64.5c12.6,13.8,26.4,1.3,26.4,1.3c13.4,10.1,27.2,3.8,29.3-0.4
		c6.3,8,13-5,15.1-9.6s4.4-38-7.5-57.4C542.3,250,531.1,245.1,519.4,253.9z"/>
	<path id="XMLID_22_" fill="#AF6C35" stroke="#7A3218" stroke-linecap="round" stroke-linejoin="round" stroke-miterlimit="10" d="
		M509.8,329.1c2.9,3.4,6.7,6.5,6.7,6.5"/>
	<path id="XMLID_24_" fill="#AF6C35" stroke="#7A3218" stroke-linecap="round" stroke-linejoin="round" stroke-miterlimit="10" d="
		M549.2,328.9c-1.7,3.9-3.4,6.3-3.4,6.3"/>
	<path id="XMLID_25_" fill="#AF6C35" stroke="#7A3218" stroke-linecap="round" stroke-linejoin="round" stroke-miterlimit="10" d="
		M512.5,262c1-2.7,6.9-8.1,6.9-8.1"/>
	<path id="XMLID_23_" fill="#EFC02B" stroke="#683510" stroke-linecap="round" stroke-linejoin="round" stroke-miterlimit="10" d="
		M504.2,265.6c-4.4,3.6-10,18.2-10.9,23.1c4.4,1.7,6.1,0,6.1,0c-0.2-1.5,2.7-6.8,2.7-6.8c0.2,3.6,1,6.8,1,6.8
		c1.5-0.5,5.3-3.4,5.3-2.7C506.9,278.5,504.2,265.6,504.2,265.6z"/>
	<path id="XMLID_27_" fill="#EFC02B" stroke="#683510" stroke-linecap="round" stroke-linejoin="round" stroke-miterlimit="10" d="
		M528.5,265.2c-4.4,6.6-4.4,20.4-4.9,23.6c4.4,1.7,6.6,1,6.6,1c1-6.6,2.4-9.2,2.4-9.2c2.2,3.6,4.6,10,4.6,10
		c1.5,0.2,4.6,0.7,4.6,0.7C543.4,276.3,533.9,267.8,528.5,265.2z"/>
	<path id="XMLID_28_" fill="#EFC02B" stroke="#683510" stroke-linecap="round" stroke-linejoin="round" stroke-miterlimit="10" d="
		M514.7,282.2c-2.2,4.4-4.1,9.2-4.1,9.2c2.2-0.7,8.3-0.5,8.3-0.5L514.7,282.2z"/>
	<path id="XMLID_26_" fill="#EFC02B" stroke="#683510" stroke-linecap="round" stroke-linejoin="round" stroke-miterlimit="10" d="
		M494.3,316.5c4.6-13.6,15.1-21.9,25.8-19.2c-1.2,4.4-0.5,6.6-0.5,6.6l7.5,1.9l1.9-4.4c6.8,2.4,10.7,15.3,10.7,15.3
		C531.5,312.6,505,311.4,494.3,316.5z"/>
	<path id="XMLID_30_" fill="#D67B36" stroke="#7A3218" stroke-linecap="round" stroke-linejoin="round" stroke-miterlimit="10" d="
		M125.6,218c12.4-11.2,40.4-13.4,54.2,11.4s-3.4,71.2-23.8,63.7c-8.3,8.8-33.3,13.6-50.6,1.9c-21.6,9.7-38.2-26-37.9-47.4
		C67.7,226.2,91.1,205.6,125.6,218z"/>
	<path id="XMLID_29_" fill="#70492C" stroke="#51321D" stroke-linecap="round" stroke-linejoin="round" stroke-miterlimit="10" d="
		M119,220.9c-6.1-11.9-0.7-22.9,1.5-25.5c1.7-2.9,8-3.6,9.2,0c2.2-1.9,5.8,4.4,5.8,4.4c-6.1,10-6.1,16.5-6.1,20.2
		S119,220.9,119,220.9z"/>
	<path id="XMLID_32_" fill="#EFC02B" stroke="#683510" stroke-linecap="round" stroke-linejoin="round" stroke-miterlimit="10" d="
		M90.6,251.1c4.4-10.9,12.9-18,12.9-18c1.5,0.7,9.7,19,9.7,23.6C100.6,258.8,90.6,251.1,90.6,251.1z"/>
	<path id="XMLID_33_" fill="#EFC02B" stroke="#683510" stroke-linecap="round" stroke-linejoin="round" stroke-miterlimit="10" d="
		M144.3,254.9c0.5-10.9,4.9-26,4.9-26c5.8,3.9,13.9,20.2,13.9,20.2C160.1,252.3,144.3,254.9,144.3,254.9z"/>
	<path id="XMLID_34_" fill="#EFC02B" stroke="#683510" stroke-linecap="round" stroke-linejoin="round" stroke-miterlimit="10" d="
		M122,256.6l14.1-2.4c-2.2,5.1-6.1,9.2-6.1,9.2L122,256.6z"/>
	<path id="XMLID_31_" fill="#EFC02B" stroke="#683510" stroke-linecap="round" stroke-linejoin="round" stroke-miterlimit="10" d="
		M89.1,264.9c8.5,3.4,24.1,4.9,24.1,4.9c-0.2,4.1-0.5,8.5-0.5,8.5l15.3,0.5c0-1.2-0.2-8.5-0.2-8.5c6.6,0.7,16.8-1.7,16.8-1.7
		c0.5,2.4,1.2,7.8,1.2,7.8c2.9-0.2,10.2-2.7,10.2-2.7c-0.2-1-1.9-7.8-1.9-7.8c6.3-0.7,18-9.2,18-9.2c-2.4,13.1-12.2,25.3-24.1,29.9
		c0-5.3-1.5-6.8-1.5-6.8c-5.3,0.7-13.9,2.7-13.9,2.7c-0.2,5.3,0.2,8.3,0.2,8.3C108.1,289,94.2,276.6,89.1,264.9z"/>
</g>
<g id="Layer_11">
	<radialGradient id="XMLID_163_" cx="502.9605" cy="279.6622" r="17.8136" gradientUnits="userSpaceOnUse">
		<stop  offset="2.678819e-02" style="stop-color:#FFFBA8;stop-opacity:0.7"/>
		<stop  offset="0.2362" style="stop-color:#FFDA24;stop-opacity:0.7"/>
		<stop  offset="1" style="stop-color:#FFDA24;stop-opacity:0"/>
	</radialGradient>
	<circle id="XMLID_159_" opacity="0.9" fill="url(#XMLID_163_)" cx="503" cy="279.7" r="20.5"/>
	<radialGradient id="XMLID_169_" cx="533.1307" cy="278.7194" r="17.8136" gradientUnits="userSpaceOnUse">
		<stop  offset="2.678819e-02" style="stop-color:#FFFBA8;stop-opacity:0.7"/>
		<stop  offset="0.2362" style="stop-color:#FFDA24;stop-opacity:0.7"/>
		<stop  offset="1" style="stop-color:#FFDA24;stop-opacity:0"/>
	</radialGradient>
	<circle id="XMLID_164_" opacity="0.9" fill="url(#XMLID_169_)" cx="533.1" cy="278.7" r="20.5"/>

		<radialGradient id="XMLID_170_" cx="513.71" cy="307.1855" r="17.8136" gradientTransform="matrix(1.4483 0 0 1 -230.2917 0)" gradientUnits="userSpaceOnUse">
		<stop  offset="2.678819e-02" style="stop-color:#FFFBA8;stop-opacity:0.7"/>
		<stop  offset="0.2362" style="stop-color:#FFDA24;stop-opacity:0.7"/>
		<stop  offset="1" style="stop-color:#FFDA24;stop-opacity:0"/>
	</radialGradient>
	<ellipse id="XMLID_165_" opacity="0.9" fill="url(#XMLID_170_)" cx="513.7" cy="307.2" rx="29.7" ry="20.5"/>

		<radialGradient id="XMLID_171_" cx="228.9034" cy="248.7307" r="17.8136" gradientTransform="matrix(1.0345 0 0 1 -135.5721 0)" gradientUnits="userSpaceOnUse">
		<stop  offset="2.678819e-02" style="stop-color:#FFFBA8;stop-opacity:0.7"/>
		<stop  offset="0.2362" style="stop-color:#FFDA24;stop-opacity:0.7"/>
		<stop  offset="1" style="stop-color:#FFDA24;stop-opacity:0"/>
	</radialGradient>
	<ellipse id="XMLID_166_" opacity="0.9" fill="url(#XMLID_171_)" cx="101.2" cy="248.7" rx="21.2" ry="20.5"/>

		<radialGradient id="XMLID_172_" cx="278.5736" cy="244.0166" r="17.8136" gradientTransform="matrix(1.0345 0 0 1 -135.5721 0)" gradientUnits="userSpaceOnUse">
		<stop  offset="2.678819e-02" style="stop-color:#FFFBA8;stop-opacity:0.7"/>
		<stop  offset="0.2362" style="stop-color:#FFDA24;stop-opacity:0.7"/>
		<stop  offset="1" style="stop-color:#FFDA24;stop-opacity:0"/>
	</radialGradient>
	<ellipse id="XMLID_168_" opacity="0.9" fill="url(#XMLID_172_)" cx="152.6" cy="244" rx="21.2" ry="20.5"/>

		<radialGradient id="XMLID_173_" cx="252.9899" cy="275.601" r="17.8136" gradientTransform="matrix(2.2069 0 0 1 -422.2171 0)" gradientUnits="userSpaceOnUse">
		<stop  offset="2.678819e-02" style="stop-color:#FFFBA8;stop-opacity:0.7"/>
		<stop  offset="0.2362" style="stop-color:#FFDA24;stop-opacity:0.7"/>
		<stop  offset="1" style="stop-color:#FFDA24;stop-opacity:0"/>
	</radialGradient>
	<ellipse id="XMLID_167_" opacity="0.9" fill="url(#XMLID_173_)" cx="136.1" cy="275.6" rx="45.3" ry="20.5"/>
</g>
</svg>
