<?xml version="1.0" encoding="utf-8"?>
<!-- Generator: Adobe Illustrator 19.0.0, SVG Export Plug-In . SVG Version: 6.00 Build 0)  -->
<!DOCTYPE svg PUBLIC "-//W3C//DTD SVG 1.0//EN" "http://www.w3.org/TR/2001/REC-SVG-20010904/DTD/svg10.dtd">
<svg version="1.0" xmlns="http://www.w3.org/2000/svg" xmlns:xlink="http://www.w3.org/1999/xlink" x="0px" y="0px"
	 viewBox="0 0 648 432" enable-background="new 0 0 648 432" xml:space="preserve">
<symbol  id="balloon1" viewBox="-30.5 -159.2 61.1 259.3">

		<path id="XMLID_118_" fill="none" stroke="#545C63" stroke-width="0.9845" stroke-linecap="round" stroke-linejoin="round" stroke-miterlimit="10" d="
		M-0.4,36.6c0-2-9.9-195.3-9.9-195.3"/>

		<path id="XMLID_117_" fill="#4A91CC" stroke="#CCFAFF" stroke-width="0.9845" stroke-linecap="round" stroke-linejoin="round" stroke-miterlimit="10" d="
		M29.8,63C27.7,42.9,7,26,0,26.4c-6.7,0-27.9,16.5-29.8,36.6C-32.5,92.6-16.4,99.6,0,99.6S32.5,89.4,29.8,63z"/>

		<path id="XMLID_116_" fill="#4A91CC" stroke="#CCFAFF" stroke-width="0.9845" stroke-linecap="round" stroke-linejoin="round" stroke-miterlimit="10" d="
		M-2,29.9c-5.1-2.7-7.8-9.4-1.2-4.7c0-6.7,5.1-4.3,5.1-0.8c3.9-2.7,6.7-2,5.1,0.8S-2,29.9-2,29.9z"/>
</symbol>
<symbol  id="balloon2" viewBox="-30.5 -100.1 61.1 200.2">
	<g id="balloon1_1_">

			<path id="XMLID_104_" fill="none" stroke="#6D625B" stroke-width="0.9845" stroke-linecap="round" stroke-linejoin="round" stroke-miterlimit="10" d="
			M-0.4,36.6c0-2-8.6-136.2-8.6-136.2"/>

			<path id="XMLID_103_" fill="#EA7F13" stroke="#FFDA88" stroke-width="0.9845" stroke-linecap="round" stroke-linejoin="round" stroke-miterlimit="10" d="
			M29.8,63C27.7,42.9,7,26,0,26.4c-6.7,0-27.9,16.5-29.8,36.6C-32.5,92.6-16.4,99.6,0,99.6S32.5,89.4,29.8,63z"/>

			<path id="XMLID_101_" fill="#EA7F13" stroke="#FFDA88" stroke-width="0.9845" stroke-linecap="round" stroke-linejoin="round" stroke-miterlimit="10" d="
			M-2,29.9c-5.1-2.7-7.8-9.4-1.2-4.7c0-6.7,5.1-4.3,5.1-0.8c3.9-2.7,6.7-2,5.1,0.8S-2,29.9-2,29.9z"/>
	</g>
</symbol>
<symbol  id="balloon3" viewBox="-30.6 -99.6 61.2 199.3">
	<g id="balloon1_3_">

			<path id="XMLID_111_" fill="none" stroke="#6D625B" stroke-width="0.9845" stroke-linecap="round" stroke-linejoin="round" stroke-miterlimit="10" d="
			M-2.6,36.2c-0.1-2-17.8-135.3-17.8-135.3"/>

			<path id="XMLID_110_" fill="#FFE02C" stroke="#FFEF92" stroke-width="0.9845" stroke-linecap="round" stroke-linejoin="round" stroke-miterlimit="10" d="
			M29.3,60.5C25.9,40.6,4.1,25.1-2.9,26c-6.6,0.4-26.7,18.3-27.2,38.5C-30.8,94.2-14.3,100.1,2.1,99S33.8,86.7,29.3,60.5z"/>

			<path id="XMLID_52_" fill="#FFE02C" stroke="#FFEF92" stroke-width="0.9845" stroke-linecap="round" stroke-linejoin="round" stroke-miterlimit="10" d="
			M-4.6,29.6c-5.3-2.4-8.4-8.8-1.5-4.6c-0.4-6.6,4.8-4.6,5-1.1c3.7-3,6.5-2.4,5.1,0.4S-4.6,29.6-4.6,29.6z"/>
	</g>
</symbol>
<symbol  id="candle" viewBox="-6.1 -23 12.2 46">
	<path id="XMLID_90_" fill="none" stroke="#897F6A" stroke-linecap="round" stroke-linejoin="round" stroke-miterlimit="10" d="
		M-2.2,11.6C-1.3,7.4-0.1,0.5-0.1,0.5"/>
	<path id="XMLID_83_" fill="#F9D53E" stroke="#C6A622" stroke-linecap="round" stroke-linejoin="round" stroke-miterlimit="10" d="
		M-3.1,2.9c0.3-11.1,2.7-25.3,2.7-25.3c3.6-0.6,6,0.9,6,0.9c-2.1,18.3-3,27.1-3,27.1C1.1,4.1-3.1,2.9-3.1,2.9z"/>
	<path id="XMLID_76_" fill="#FC8D29" stroke="#F9522B" stroke-linecap="round" stroke-linejoin="round" stroke-miterlimit="10" d="
		M-2.2,21.5c-3,5.3-5.4-12.6-0.9-12.9S2.6,13.1-2.2,21.5z"/>
</symbol>
<symbol  id="cuplip1_6_" viewBox="-31.2 -8.2 62.3 16.5">
	<path id="XMLID_84_" fill="#4382B5" stroke="#133C6D" stroke-linecap="round" stroke-linejoin="round" stroke-miterlimit="10" d="
		M-28.7-0.2c0,0.4,0.3,7.5,0.3,7.5l55.9,0.4L28-0.6C28-0.6,0-12.9-28.7-0.2z"/>
	<path id="XMLID_32_" fill="#E1F3FF" stroke="#7995A5" stroke-linecap="round" stroke-linejoin="round" stroke-miterlimit="10" d="
		M28-3.3c-15-6.5-46.4-5.4-56.1,0.1c-1.8,1-2.6,1.2-2.6,2.7v0c0,1.5,1.2,2.7,2.6,2.7C-19.6-0.3-0.2-7.4,28,1.9c1.4,0,2.6-1,2.6-2.5
		v0C30.7-2.1,29.9-2.5,28-3.3z"/>
</symbol>
<symbol  id="flower1" viewBox="-18.4 -15.4 36.8 30.9">
	<path id="XMLID_75_" fill="#DB581D" stroke="#772E0A" stroke-linecap="round" stroke-linejoin="round" stroke-miterlimit="10" d="
		M-6,4.8c-8.3,9.7,14.4,15.8,10.2,2.3c8.8,10.2,19.9-4.4,8-6.8c13.3-0.8,0.4-20.8-8-8C4.8-22-17.4-12-9.3-4.5
		C-23.2-9.3-18.9,12.1-6,4.8z"/>
	<path id="XMLID_74_" fill="#E5BE1A" stroke="#935B00" stroke-linecap="round" stroke-linejoin="round" stroke-miterlimit="10" d="
		M7.1,0.9c0.3-2-2.2-4-5.7-4.5S-5-2.9-5.3-1s2.2,4,5.7,4.5S6.8,2.9,7.1,0.9z"/>
</symbol>
<g id="Layer_5">
	<rect id="XMLID_2_" y="-2.2" fill="#C3DCE0" width="648" height="432"/>
</g>
<g id="Layer_4">
	<path id="XMLID_13_" fill="#8E543C" stroke="#5B3524" stroke-linecap="round" stroke-linejoin="round" stroke-miterlimit="10" d="
		M303,239.2c-10.2,3.5-36.6-9.4-52.2-25s-44.4-46.8-44.4-46.8c-13.5-18-18-19.7-22.1-18.8c-4,0.8,4,10.2,4,10.2
		c-33.9,5.4-34.5,15.1-30.4,19.4c4,4.3,34.5-5.9,38.5-2.2c12.9,27.7,52,70,64.3,75.7c12.4,5.7,59.8,14.3,61.1,13.5
		c1.3-0.8,5.7-26.4,5.9-27.2S303.9,238.9,303,239.2z"/>
	<path id="XMLID_19_" fill="#8E543C" stroke="#5B3524" stroke-linecap="round" stroke-linejoin="round" stroke-miterlimit="10" d="
		M300.6,242.7c0.3-4.8,0.8-16.2,0.8-16.2c5.4-0.5,16.4,2.2,16.4,2.2v14.8"/>
	<path id="XMLID_21_" fill="#8E543C" stroke="#5B3524" stroke-linecap="round" stroke-linejoin="round" stroke-miterlimit="10" d="
		M335.9,214.4c15.1-16.7,53.6-56.3,53.6-56.3c4-3.5,24.2-2.7,25.3-0.3c1.1,2.4-15.6,4.8-15.6,4.8c16.2,9.7,31,19.1,25.8,26.4
		c-5.1,7.3-35-15.1-35-15.1c-19.4,31-28.3,59.5-49.3,72.7C333.7,227.4,335.9,214.4,335.9,214.4z"/>
	<g id="XMLID_71_">
		<path id="XMLID_73_" fill="#C12F2F" stroke="#681111" stroke-linecap="round" stroke-linejoin="round" stroke-miterlimit="10" d="
			M301.2,125.9c0,0-3.6-5.5-14.8-16.7c-5.2,15.3-18.4,27.3-27.5,32.3c0.2,4.4,0.4,8.4,0.8,11.8C269.1,157.6,302.2,131.8,301.2,125.9
			z"/>
		<path id="XMLID_97_" fill="#C12F2F" stroke="#681111" stroke-linecap="round" stroke-linejoin="round" stroke-miterlimit="10" d="
			M275.3,98.6c-4.5-4.1-9.7-8.7-15.6-13.7c0,0-0.8,16.5-1,34.3C265.5,116.1,271.5,107.8,275.3,98.6z"/>

			<path id="XMLID_100_" fill="#FCA930" stroke="#B26F04" stroke-linecap="round" stroke-linejoin="round" stroke-miterlimit="10" d="
			M286.4,109.2c-3.1-3.1-6.7-6.6-11.1-10.6c-3.8,9.2-9.8,17.5-16.7,20.6c-0.1,7.6,0,15.4,0.2,22.3
			C268,136.5,281.2,124.5,286.4,109.2z"/>
	</g>
	<path id="XMLID_9_" fill="#FFDE55" stroke="#C9841F" stroke-linecap="round" stroke-linejoin="round" stroke-miterlimit="10" d="
		M253.5,68.5c-4-7.3-8.6-11.6-8.6-11.6c-2.2,1.9-4,8.6-4,8.6c0.8,0,7.5,7.3,7.5,7.3c-3.8-0.3-10.5,1.3-10.5,1.3
		c0.3,6.2,2.4,8.6,2.4,8.6c2.2-1.3,8.1-5.4,8.1-5.4c-5.7,7.8-6.5,11.6-6.5,11.6c4,2.7,8.6,5.1,8.6,5.1c1.1-4.8,1.6-7.3,1.6-7.3
		l2.4,1.9c-0.8,1.3-2.2,9.2-2.2,9.2c2.4,1.1,10.5-0.3,10.5-0.3c0-1.6-1.9-7.5-1.9-7.5c1.1,1.6,3.2,3.5,3.2,3.5
		c1.1-1.1,4.6-4.8,4.6-4.8c-1.1-1.9-4.6-5.9-4.6-5.9c1.3,0,11.6,5.1,11.6,5.1l3.2-4.8l-6.5-4.3l4-6.7c-3-1.3-5.4-2.4-5.4-2.4
		c1.1-1.6,9.4-1.1,9.4-1.1c-3.2-5.7-8.3-11.3-8.3-11.3c-2.7,1.1-7,8.3-7,8.3c-0.3-2.2,1.6-8.6,1.6-8.6c-1.3-0.5-7.8-1.3-7.8-1.3
		l-2.2,6.2l-0.8-8.3l-6.7-1.1C250.3,58,253.5,68.5,253.5,68.5z"/>
	<path id="XMLID_22_" fill="#C13A3A" stroke="#560A0A" stroke-linecap="round" stroke-linejoin="round" stroke-miterlimit="10" d="
		M263.7,223c-1.1,4.3-9.4,26.4-15.3,32c24,9.7,26.4,9.7,26.4,9.7c-2.4,10.8-8.6,53.3-8.6,53.3s80.5,1.3,80.5,0.3
		c0-1.1-12.7-52.5-12.7-52.5c10.8-7,15.3-8.5,29.6-30.4c-9.2-7.3-24.8-18-24.8-18c-9.2,12.1-17.8,19.1-17.8,19.1
		c2.3,11.6,2.8,19.9-12.4,18.8c-14.4-1-12.7-17-12.7-17C269.7,227.4,263.7,223,263.7,223z"/>
	<path id="XMLID_10_" fill="#1B1C21" stroke="#656A82" stroke-linecap="round" stroke-linejoin="round" stroke-miterlimit="10" d="
		M288,215.2c-7,7-23.7,7-25.8-7.5c-18-5.7-18-26.9-8.1-32.6c-20.7-9.2-1.1-36.1,10.8-25c0.3-24.2,18-25.6,23.4-20.7
		c5.1-15.1,20.5-11,22.9-7.8c7-9.7,15.3-7.3,17.2,1.3c21-7.8,24,7.8,20.7,14.3c22.1,3.5,17.5,35.3-5.7,38.8
		C319.7,206.1,288,215.2,288,215.2z"/>
	<path id="XMLID_6_" fill="#8E543C" stroke="#5B3524" stroke-linecap="round" stroke-linejoin="round" stroke-miterlimit="10" d="
		M334,140.3c13.3,26.2,18.5,58,10.9,72c-7.6,14.1-18.1,24.6-35.8,22.1S274.4,203,274.4,203l-8.5-46.3
		C269.2,150.3,319.1,109.7,334,140.3z"/>
	<path id="XMLID_5_" fill="#8E543C" stroke="#5B3524" stroke-linecap="round" stroke-linejoin="round" stroke-miterlimit="10" d="
		M273.6,184.9c-9.7-8.5-19.7-4.8-15.7,8.5s16.1,13.7,20.1,8.5"/>
	<path id="XMLID_8_" fill="#8E543C" stroke="#5B3524" stroke-linecap="round" stroke-linejoin="round" stroke-miterlimit="10" d="
		M315.4,177.5c0.4,5.2,10.5,7,4.9,14.6"/>
	<path id="XMLID_7_" fill="#1B1C21" stroke="#656A82" stroke-linecap="round" stroke-linejoin="round" stroke-miterlimit="10" d="
		M266.5,180.1c11.7,11.8,14.8-10.4,10.2-26.6c13.7,2.2,20.2-8.9,19.7-14.3c16.7,8.9,26.9-1.6,27.5-4.3c7.3,17.8,15.3,17,19.4,15.6
		c5.6-2.2,8.7-7,8.7-9.7c0-2.8-2.8-3.7-2.8-3.7c7.9-24.2-15.1-20.7-18.9-16.2c-4.5-17.2-18.6-2.4-18.6-2.4c-21.7-13.8-24.4,9-24.4,9
		c-16.9-10-27.2,8.3-23.4,19.6c-18.2-9-26.5,23.3-9.7,28"/>
	<path id="XMLID_14_" fill="#70281E" stroke="#231F20" stroke-linecap="round" stroke-linejoin="round" stroke-miterlimit="10" d="
		M331.9,199.6c0,13.2-4,25.8-16.7,24.5c-12.7-1.3-16.2-21.8-16.2-21.8C315.7,207.4,331.9,199.6,331.9,199.6z"/>
	<path id="XMLID_15_" fill="#AF554B" stroke="#893D37" stroke-linecap="round" stroke-linejoin="round" stroke-miterlimit="10" d="
		M304.9,211.2c5.7-2.7,12.9,1.9,15.6,5.4s0.3,5.9,0.3,5.9C314.1,223.9,305.7,220.4,304.9,211.2z"/>
	<path id="XMLID_16_" fill="none" stroke="#231F20" stroke-linecap="round" stroke-linejoin="round" stroke-miterlimit="10" d="
		M336.7,196.4c-1.6,2.2-4.8,3.2-4.8,3.2"/>
	<path id="XMLID_17_" fill="none" stroke="#231F20" stroke-linecap="round" stroke-linejoin="round" stroke-miterlimit="10" d="
		M301.2,162.2c-2.7-3.2-10.2-3.2-11.8,4.8"/>
	<path id="XMLID_18_" fill="none" stroke="#231F20" stroke-linecap="round" stroke-linejoin="round" stroke-miterlimit="10" d="
		M317.3,157.4c3.8-4.8,8.9-5.9,12.4-0.8"/>

		<ellipse id="XMLID_20_" transform="matrix(0.9891 -0.1469 0.1469 0.9891 -23.4308 45.9638)" fill="#231F20" stroke="#231F20" stroke-linecap="round" stroke-linejoin="round" stroke-miterlimit="10" cx="299.4" cy="181.6" rx="1.5" ry="4.8"/>

		<ellipse id="XMLID_24_" transform="matrix(0.9891 -0.1469 0.1469 0.9891 -22.4354 49.7483)" fill="#231F20" stroke="#231F20" stroke-linecap="round" stroke-linejoin="round" stroke-miterlimit="10" cx="325.5" cy="176.7" rx="1.5" ry="4.8"/>
</g>
<g id="Layer_2">
	<rect id="XMLID_4_" x="0" y="306.8" fill="#C6A987" stroke="#8C6742" stroke-miterlimit="10" width="648" height="125.2"/>
</g>
<g id="Layer_3">

		<use xlink:href="#cuplip1_6_"  width="62.3" height="16.5" id="XMLID_38_" x="-31.2" y="-8.2" transform="matrix(1 0 0 -1 61.4842 393.388)" overflow="visible"/>

		<use xlink:href="#cuplip1_6_"  width="62.3" height="16.5" id="XMLID_37_" x="-31.2" y="-8.2" transform="matrix(1 0 0 -1 61.4842 384.0415)" overflow="visible"/>

		<use xlink:href="#cuplip1_6_"  width="62.3" height="16.5" id="XMLID_36_" x="-31.2" y="-8.2" transform="matrix(1 0 0 -1 61.4842 376.2745)" overflow="visible"/>

		<use xlink:href="#cuplip1_6_"  width="62.3" height="16.5" id="XMLID_35_" x="-31.2" y="-8.2" transform="matrix(1 0 0 -1 61.4842 368.2088)" overflow="visible"/>
	<g id="cuplip1">
	</g>

		<use xlink:href="#cuplip1_6_"  width="62.3" height="16.5" id="XMLID_30_" x="-31.2" y="-8.2" transform="matrix(1 0 0 -1 61.4842 360.1431)" overflow="visible"/>
	<path id="XMLID_26_" fill="#4382B5" stroke="#133C6D" stroke-linecap="round" stroke-linejoin="round" stroke-miterlimit="10" d="
		M40.3,276.5l-8,73.6c15.6,9.2,55.3,4.9,57.4,0.8c-6.1-68.4-7.1-73-7.1-73L40.3,276.5z"/>
	<path id="XMLID_28_" fill="#65A6DB" stroke="#133C6D" stroke-linecap="round" stroke-linejoin="round" stroke-miterlimit="10" d="
		M83.2,277.7c0.1,3.5-9.4,6.4-21.2,6.4s-21.5-2.8-21.6-6.4c-0.1-3.5,9.4-6.4,21.2-6.4S83.1,274.2,83.2,277.7z"/>
	<path id="XMLID_29_" fill="#E1F3FF" stroke="#7995A5" stroke-linecap="round" stroke-linejoin="round" stroke-miterlimit="10" d="
		M89.1,354.2c-15,6.5-46.4,5.4-56.1-0.1c-1.8-1-2.6-1.2-2.6-2.7l0,0c0-1.5,1.2-2.7,2.6-2.7c8.4,2.5,27.9,9.6,56.1,0.3
		c1.4,0,2.6,1,2.6,2.5l0,0C91.7,352.9,91,353.3,89.1,354.2z"/>
	<g id="cuplip1_5_">
		<path id="XMLID_96_" fill="#DEC757" stroke="#99711B" stroke-linecap="round" stroke-linejoin="round" stroke-miterlimit="10" d="
			M197.4,386.8c0-0.4,0.3-7.5,0.3-7.5l55.9-0.4l0.6,8.4C254.2,387.3,226.1,399.5,197.4,386.8z"/>
		<path id="XMLID_89_" fill="#E1F3FF" stroke="#7995A5" stroke-linecap="round" stroke-linejoin="round" stroke-miterlimit="10" d="
			M254.2,389.9c-15,6.5-46.4,5.4-56.1-0.1c-1.8-1-2.6-1.2-2.6-2.7l0,0c0-1.5,1.2-2.7,2.6-2.7c8.4,2.5,27.9,9.6,56.1,0.3
			c1.4,0,2.6,1,2.6,2.5l0,0C256.8,388.7,256,389.1,254.2,389.9z"/>
	</g>
	<g id="cuplip1_4_">
		<path id="XMLID_95_" fill="#DEC757" stroke="#99711B" stroke-linecap="round" stroke-linejoin="round" stroke-miterlimit="10" d="
			M197.4,377.5c0-0.4,0.3-7.5,0.3-7.5l55.9-0.4l0.6,8.4C254.2,377.9,226.1,390.2,197.4,377.5z"/>
		<path id="XMLID_88_" fill="#E1F3FF" stroke="#7995A5" stroke-linecap="round" stroke-linejoin="round" stroke-miterlimit="10" d="
			M254.2,380.6c-15,6.5-46.4,5.4-56.1-0.1c-1.8-1-2.6-1.2-2.6-2.7l0,0c0-1.5,1.2-2.7,2.6-2.7c8.4,2.5,27.9,9.6,56.1,0.3
			c1.4,0,2.6,1,2.6,2.5l0,0C256.8,379.4,256,379.8,254.2,380.6z"/>
	</g>
	<g id="cuplip1_3_">
		<path id="XMLID_94_" fill="#DEC757" stroke="#99711B" stroke-linecap="round" stroke-linejoin="round" stroke-miterlimit="10" d="
			M197.4,369.7c0-0.4,0.3-7.5,0.3-7.5l55.9-0.4l0.6,8.4C254.2,370.2,226.1,382.4,197.4,369.7z"/>
		<path id="XMLID_87_" fill="#E1F3FF" stroke="#7995A5" stroke-linecap="round" stroke-linejoin="round" stroke-miterlimit="10" d="
			M254.2,372.8c-15,6.5-46.4,5.4-56.1-0.1c-1.8-1-2.6-1.2-2.6-2.7l0,0c0-1.5,1.2-2.7,2.6-2.7c8.4,2.5,27.9,9.6,56.1,0.3
			c1.4,0,2.6,1,2.6,2.5l0,0C256.8,371.6,256,372,254.2,372.8z"/>
	</g>
	<g id="cuplip1_2_">
		<path id="XMLID_93_" fill="#DEC757" stroke="#99711B" stroke-linecap="round" stroke-linejoin="round" stroke-miterlimit="10" d="
			M197.4,361.6c0-0.4,0.3-7.5,0.3-7.5l55.9-0.4l0.6,8.4C254.2,362.1,226.1,374.3,197.4,361.6z"/>
		<path id="XMLID_86_" fill="#E1F3FF" stroke="#7995A5" stroke-linecap="round" stroke-linejoin="round" stroke-miterlimit="10" d="
			M254.2,364.7c-15,6.5-46.4,5.4-56.1-0.1c-1.8-1-2.6-1.2-2.6-2.7l0,0c0-1.5,1.2-2.7,2.6-2.7c8.4,2.5,27.9,9.6,56.1,0.3
			c1.4,0,2.6,1,2.6,2.5l0,0C256.8,363.5,256,363.9,254.2,364.7z"/>
	</g>
	<g id="cuplip1_1_">
		<path id="XMLID_92_" fill="#DEC757" stroke="#99711B" stroke-linecap="round" stroke-linejoin="round" stroke-miterlimit="10" d="
			M197.4,353.6c0-0.4,0.3-7.5,0.3-7.5l55.9-0.4l0.6,8.4C254.2,354,226.1,366.3,197.4,353.6z"/>
		<path id="XMLID_91_" fill="#E1F3FF" stroke="#7995A5" stroke-linecap="round" stroke-linejoin="round" stroke-miterlimit="10" d="
			M254.2,356.7c-15,6.5-46.4,5.4-56.1-0.1c-1.8-1-2.6-1.2-2.6-2.7l0,0c0-1.5,1.2-2.7,2.6-2.7c8.4,2.5,27.9,9.6,56.1,0.3
			c1.4,0,2.6,1,2.6,2.5l0,0C256.8,355.5,256,355.9,254.2,356.7z"/>
	</g>

		<path id="XMLID_81_" fill="#76A558" stroke="#3C6025" stroke-width="0.8393" stroke-linecap="round" stroke-linejoin="round" stroke-miterlimit="10" d="
		M97.6,275.2c-6.6-2.7-1.7-10.2-1.7-10.2c-6.3,2.2-14.1-3.2-14.1-3.2c1.5-1,6.3-1.5,6.3-1.5c-2.7-1.7-15.3-8.8-13.4-10.5
		c1.9-1.7,8.8-2.7,8.8-2.7c-6.1-8-1.9-13.9-0.5-12.4s3.9,2.7,3.9,2.7c-1.9-3.7-4.4-12.9-0.2-14.4c4.1-1.5,9.3,6.3,9.3,6.3
		c-3.2-8-4.6-12.4-1.2-11.7c3.4,0.7,6.1,4.9,6.1,4.9l14.1-7.8c1.7-7.3,6.1-6.8,6.6-0.5c3.2-10,6.3-8,6.3-8c4.4,7.3,5.1,9,5.1,9
		c-0.5-9.7,3.9-10.7,6.3-8.5c5.4-0.7,12.9,6.1,12.9,6.1c5.6-3.9,12.9-11.7,11.2-4.9c-2.2,6.3-2.2,6.3-2.2,6.3
		c1.5-1.7,6.6-1.2,7.8,2.9c3.4-2.2,5.4-6.3,6.8-2.4c1.7,2.4,0.7,8,0.7,8c4.6-4.1,16.6-1.5,4.9,5.8c8.3-1,12.9,5.6,0.7,7.3
		c14.1,2.9,18.3,16.3,1.2,15.6c4.4,4.9,0.5,5.8-1.7,6.3c8.8,1,11.9,4.9,2.9,10c1.5,4.4-10,12.4-10,12.4c-1,0.5-24.6,22.2-24.6,22.2
		s-23.9-0.2-24.6-0.7C124.6,301.2,97.6,275.2,97.6,275.2z"/>
	<path id="XMLID_85_" fill="#DEC757" stroke="#99711B" stroke-linecap="round" stroke-linejoin="round" stroke-miterlimit="10" d="
		M204.9,269.8l-8,73.6c15.6,9.2,55.3,4.9,57.4,0.8c-6.1-68.4-7.1-73-7.1-73L204.9,269.8z"/>
	<path id="XMLID_39_" fill="#F7F583" stroke="#99711B" stroke-linecap="round" stroke-linejoin="round" stroke-miterlimit="10" d="
		M247.8,271c0.1,3.5-9.4,6.4-21.2,6.4s-21.5-2.8-21.6-6.4s9.4-6.4,21.2-6.4C238,264.6,247.7,267.5,247.8,271z"/>

		<path id="XMLID_27_" fill="#58843C" stroke="#3C6025" stroke-width="0.8393" stroke-linecap="round" stroke-linejoin="round" stroke-miterlimit="10" d="
		M114.3,299.8c0-3.8-26.1-29.3-26.1-29.3c16.2,1.1,26.4,19.9,26.4,19.9c-0.3-7.8-5.4-16.2-5.4-16.2c7,6.2,10.2,15.9,10.2,15.9
		c0.5-5.4,12.1-20.2,12.1-20.2c-1.9,2.7-3.2,21.8-3.2,21.8c2.4-5.1,4.6-15.1,4.6-15.1c2.2,6.7,2.7,12.4,2.7,13.2
		c0.5-1.6,6.5-10.2,6.5-10.2l-0.5,10.5l11.6-17c-4,7.5-5.7,21-5.7,21c0.5-1.3,21.3-20.7,21.3-20.7c-6.2,6.7-10,16.4-10,16.4
		s14.3-13.2,13.5-12.4c-3.8,4.6-4.6,7.3-4.6,7.3c0.3-0.8,7.8-11.8,16.4-7.5c-8.1,3.5-15.3,7.3-19.4,22.6
		C142.9,314.6,114.6,299.8,114.3,299.8z"/>
	<path id="XMLID_34_" fill="#E1F3FF" stroke="#7995A5" stroke-linecap="round" stroke-linejoin="round" stroke-miterlimit="10" d="
		M253.7,347.4c-15,6.5-46.4,5.4-56.1-0.1c-1.8-1-2.6-1.2-2.6-2.7l0,0c0-1.5,1.2-2.7,2.6-2.7c8.4,2.5,27.9,9.6,56.1,0.3
		c1.4,0,2.6,1,2.6,2.5l0,0C256.3,346.2,255.6,346.6,253.7,347.4z"/>

		<use xlink:href="#balloon3"  width="61.2" height="199.3" id="XMLID_109_" x="-30.6" y="-99.6" transform="matrix(0.9815 0.1916 0.1916 -0.9815 560.5978 152.9744)" overflow="visible"/>

		<use xlink:href="#balloon1"  width="61.1" height="259.3" id="XMLID_112_" x="-30.5" y="-159.2" transform="matrix(0.9948 -0.1014 -0.1014 -0.9948 490.5635 118.0293)" overflow="visible"/>
	<path id="XMLID_78_" fill="#8C5FAF" stroke="#4B3659" stroke-linecap="round" stroke-linejoin="round" stroke-miterlimit="10" d="
		M106.5,224.3c-9.3,3.8-17.6-8.6-2.7-4.4c-10-11.9,4.9-19,7-4.6c1.7-10,13.9-11.9,4.1,2.1"/>

		<use xlink:href="#balloon1"  width="61.1" height="259.3" id="XMLID_40_" x="-30.5" y="-159.2" transform="matrix(0.9919 0.1268 0.1268 -0.9919 521.6523 140.2136)" overflow="visible"/>

		<use xlink:href="#balloon2"  width="61.1" height="200.2" id="XMLID_44_" x="-30.5" y="-100.1" transform="matrix(0.9991 -4.155629e-02 -4.155629e-02 -0.9991 505.2131 140.9951)" overflow="visible"/>

		<use xlink:href="#balloon1"  width="61.1" height="259.3" id="XMLID_12_" x="-30.5" y="-159.2" transform="matrix(0.9903 -0.1392 -0.1392 -0.9903 477.383 160.1145)" overflow="visible"/>

		<use xlink:href="#balloon2"  width="61.1" height="200.2" id="XMLID_98_" x="-30.5" y="-100.1" transform="matrix(0.9813 0.1924 0.1924 -0.9813 540.1179 165.5243)" overflow="visible"/>

		<use xlink:href="#balloon3"  width="61.2" height="199.3" id="XMLID_102_" x="-30.6" y="-99.6" transform="matrix(0.966 -0.2586 -0.2586 -0.966 457.0319 139.9779)" overflow="visible"/>

		<use xlink:href="#balloon2"  width="61.1" height="200.2" id="XMLID_45_" x="-30.5" y="-100.1" transform="matrix(0.9415 -0.337 -0.337 -0.9415 439.395 162.2752)" overflow="visible"/>

		<polygon id="XMLID_23_" fill="#C65347" stroke="#823227" stroke-linecap="round" stroke-linejoin="round" stroke-miterlimit="10" points="
		108.7,292 118.1,376.8 141.5,383.2 143.9,297.9 	"/>
	<path id="XMLID_25_" fill="#91382C" stroke="#662417" stroke-linecap="round" stroke-linejoin="round" stroke-miterlimit="10" d="
		M143.7,298.2c0,1.3-2.4,85.3-2.4,85.3l21.3-10l6.7-84L143.7,298.2z"/>

		<ellipse id="XMLID_41_" fill="#E4EFF2" stroke="#5D696D" stroke-linecap="round" stroke-linejoin="round" stroke-miterlimit="10" cx="478.7" cy="374.7" rx="110.2" ry="27.8"/>

		<ellipse id="XMLID_43_" fill="#E4EFF2" stroke="#5D696D" stroke-linecap="round" stroke-linejoin="round" stroke-miterlimit="10" cx="478.7" cy="374.7" rx="78.1" ry="19.7"/>
	<path id="XMLID_46_" fill="#B1D8E5" stroke="#547E89" stroke-linecap="round" stroke-linejoin="round" stroke-miterlimit="10" d="
		M407.2,309.3c0.4,3.2,10.5,64.7,10.5,64.7c29.9,23.2,114.3,12.7,126.2,1.4c6.7-45,8.8-68.9,8.8-68.9
		C486.3,304.1,407.2,309.3,407.2,309.3z"/>
	<path id="XMLID_50_" fill="#3A84CE" stroke="#1C334F" stroke-linecap="round" stroke-linejoin="round" stroke-miterlimit="10" d="
		M439.5,282.3c-7.4,0.7-10.9,4.2-10.9,4.2c-11.6-6.7-24.3,0.7-24.3,11.3c0,10.5,21.1,7.7,21.1,7.7s24.6-7,23.9-8.4
		C448.6,295.6,439.5,282.3,439.5,282.3z"/>
	<path id="XMLID_51_" fill="#3A84CE" stroke="#1C334F" stroke-linecap="round" stroke-linejoin="round" stroke-miterlimit="10" d="
		M519.7,283.7c5.6-2.8,13.4,7,13.4,7c15.1-8.1,19,2.5,19.3,4.6c9.8-3.2,17.9,10.9,4.9,15.1c-14.4,4.2-42.9-1.4-42.9-1.4L519.7,283.7
		z"/>
	<path id="XMLID_53_" fill="#B1D8E5" stroke="#547E89" stroke-linecap="round" stroke-linejoin="round" stroke-miterlimit="10" d="
		M431.1,261.2c1.2,8.4,5.7,49,5.7,49c21.1,10.5,84.5,3.9,84.5,3.9c1.8-19.3,6.3-51.1,6.3-51.1C491.9,262.7,431.1,261.2,431.1,261.2z
		"/>
	<path id="XMLID_55_" fill="#3A84CE" stroke="#1C334F" stroke-linecap="round" stroke-linejoin="round" stroke-miterlimit="10" d="
		M429.4,250.3c3.3-8.4,24.6-14.1,28.5-9.3c9.3-10.5,18.1-7.3,23.8-2.7c7.8-7.2,23-0.6,24.8,2.7c11.4-6.9,30.5,4.2,24.5,16.2
		c-0.3,4.2-25.5,8.5-27.9,8.5s-67.7-3.6-67.7-3.6L429.4,250.3z"/>

		<ellipse id="XMLID_54_" fill="#B1D8E5" stroke="#547E89" stroke-linecap="round" stroke-linejoin="round" stroke-miterlimit="10" cx="481.8" cy="258" rx="44.7" ry="13.1"/>
	<path id="XMLID_57_" fill="#3A84CE" stroke="#1C334F" stroke-linecap="round" stroke-linejoin="round" stroke-miterlimit="10" d="
		M441.1,256.1c-6.3-9.9-18.3-8.1-20.5,0c-2.1,8.1,7.5,21.4,18,14.4c8.1,12,16.8,4.2,16.8,4.2c8.1,9.3,20.8,5.4,21.7-1.8
		c6.9,11.7,18,6.3,19.3,2.1c10.5,10.2,18.6-2.4,18.6-2.4c7.5,6.6,15.9-2.1,15.3-9c11.2-1.3-3.5-22.8-8.4-7.7
		c-4.4-9.8-14.6,1.6-14.6,4.9c-4.8-7.2-15.2,0.7-15.2,0.7c-3.9-10.5-14.6-4.6-17.1-0.9c-8.1-7.2-16.8,0-16.8,0
		C455.2,252.2,442.9,255.2,441.1,256.1z"/>
	<path id="XMLID_49_" fill="#3A84CE" stroke="#1C334F" stroke-linecap="round" stroke-linejoin="round" stroke-miterlimit="10" d="
		M414.5,297.7c-9.5-7.4-18.3-2.1-19,5.6c-0.7,7.7,5.3,15.1,15.8,11.6c8.8,12.3,21.4,2.1,21.4,2.1c8.1,12.7,23.6,1.4,23.6,1.4
		c16.5,13.7,32.3-1.1,32.3-1.1c14.1,15.5,26.7-0.4,26.7-0.4c8.8,12.7,25.3-1.1,25.3-1.1c6.7,9.5,19,1.1,17.6-8.4s-13-8.1-16.9-5.3
		c-8.4-9.8-21.8-4.9-25,0.4c-10.2-12-26.4-3.5-29.9,1.4c-12-13-28.8-3.5-30.6-0.4c-13.7-10.5-23.2-2.1-23.2-2.1
		C427.9,291.8,414.2,297.4,414.5,297.7z"/>

		<use xlink:href="#candle"  width="12.2" height="46" id="XMLID_56_" x="-6.1" y="-23" transform="matrix(1 0 0 -1 447.1856 230.3825)" overflow="visible"/>

		<use xlink:href="#candle"  width="12.2" height="46" id="XMLID_66_" x="-6.1" y="-23" transform="matrix(0.9923 0.1241 0.1241 -0.9923 468.2407 231.2849)" overflow="visible"/>

		<use xlink:href="#candle"  width="12.2" height="46" id="XMLID_69_" x="-6.1" y="-23" transform="matrix(0.9923 0.1241 0.1241 -0.9923 488.3935 232.488)" overflow="visible"/>

		<use xlink:href="#candle"  width="12.2" height="46" id="XMLID_70_" x="-6.1" y="-23" transform="matrix(-1.0629 -1.864005e-02 1.753397e-02 -0.9998 508.1252 230.4429)" overflow="visible"/>

		<use xlink:href="#flower1"  width="36.8" height="30.9" id="XMLID_64_" x="-18.4" y="-15.4" transform="matrix(0.9826 -0.1855 -0.1855 -0.9826 114.8902 243.8931)" overflow="visible"/>

		<use xlink:href="#flower1"  width="36.8" height="30.9" id="XMLID_82_" x="-18.4" y="-15.4" transform="matrix(0.7453 -0.1407 -0.1628 -0.8626 141.7935 266.7792)" overflow="visible"/>
	<g id="XMLID_33_">
		<path id="XMLID_77_" fill="#8C5FAF" stroke="#4B3659" stroke-linecap="round" stroke-linejoin="round" stroke-miterlimit="10" d="
			M153.8,235.1c-9-7.3,4.6-23.4,7.5-4.9c3.9-12.7,20-4.6,7.3,6.3c15.3-1.9,13.1,17.3-1.7,5.6c7.1,12.4-9,18.7-9.3,1.7
			C147.7,252.4,134.8,235.8,153.8,235.1z"/>

			<ellipse id="XMLID_72_" transform="matrix(0.7611 -0.6487 0.6487 0.7611 -115.7917 161.4354)" fill="#E5BE19" stroke="#CE7D09" stroke-miterlimit="10" cx="161.3" cy="237.9" rx="4" ry="4.5"/>
	</g>
	<g id="XMLID_68_">
		<path id="XMLID_79_" fill="#8C5FAF" stroke="#4B3659" stroke-linecap="round" stroke-linejoin="round" stroke-miterlimit="10" d="
			M139.9,198c-3.5-9.1,14.3-9,8,2.1c8.8-4,17.4,9.7,2.7,7.6c12.6,8.3,2.1,16.6-3.9,1.8c-0.3,10.5-15.5,4-7.9-4.7
			C127.3,203,125,186.9,139.9,198z"/>
		<path id="XMLID_80_" fill="#E5BE19" stroke="#CE7D09" stroke-miterlimit="10" d="M147.4,206.3c-1.1,1.3-3.5,1.2-5.1-0.2
			c-1.7-1.3-2.1-3.4-1-4.7s3.5-1.2,5.1,0.2C148.1,202.9,148.5,205,147.4,206.3z"/>
	</g>
</g>
</svg>
