<?xml version="1.0" encoding="utf-8"?>
<!-- Generator: Adobe Illustrator 19.0.0, SVG Export Plug-In . SVG Version: 6.00 Build 0)  -->
<!DOCTYPE svg PUBLIC "-//W3C//DTD SVG 1.0//EN" "http://www.w3.org/TR/2001/REC-SVG-20010904/DTD/svg10.dtd">
<svg version="1.0" xmlns="http://www.w3.org/2000/svg" xmlns:xlink="http://www.w3.org/1999/xlink" x="0px" y="0px"
	 viewBox="0 0 648 432" enable-background="new 0 0 648 432" xml:space="preserve">
<symbol  id="flower1" viewBox="-21.3 -15.5 42.7 31.1">

		<path id="XMLID_151_" fill="#8962A5" stroke="#644382" stroke-width="1.1176" stroke-linecap="round" stroke-linejoin="round" stroke-miterlimit="10" d="
		M3.5,6.6c8.6,15.3,26.6,1.1,8.2-4.9C29.7,4,17.4-8.8,5-6.1c5.6-9-19.5-13.5-13.5-1.9C-24.2-8.4-24.9,3.6-10.3,4.3
		C-21.9,16.3,7.3,19.7,3.5,6.6z"/>

		<path id="XMLID_150_" fill="#E2AF33" stroke="#A3570C" stroke-width="1.2477" stroke-linecap="round" stroke-linejoin="round" stroke-miterlimit="10" d="
		M6.7,1.8c0.6-1.9-2-4.5-5.8-5.6s-7.4-0.5-8,1.4s2,4.5,5.8,5.6S6.1,3.8,6.7,1.8z"/>
</symbol>
<g id="Layer_6">
	<rect id="XMLID_142_" fill="#ABE6EF" width="648" height="223.2"/>
</g>
<g id="Layer_5">
	<rect id="XMLID_141_" y="162" fill="#8DB2CC" width="648" height="270"/>
</g>
<g id="Layer_2">
	<path id="XMLID_4_" fill="#7DAF9F" stroke="#5E8E7D" stroke-linecap="round" stroke-linejoin="round" stroke-miterlimit="10" d="
		M647.7,66.1c-8-14-25-3.4-26.1,8.4c-4.5-5.6-5,2.8-5,2.8c-5.6-11.2-28.6-7.9-29.1,7.3c-6.7-6.2-17.2,6.9-16.3,15.2
		c-5.5-5.5-9.5,5.1-9.5,5.1c-7.8-7.9-12.7-5-20.2,1.1c-9-12.9-39.2,1.1-35.9,15.7c-11.8-2.2-10.6,13.5-10.6,13.5
		c-13.5-12.3-27.5,7.9-27.5,7.9c-5.6-10.1-23.5-0.6-23.5-0.6c-6.7-16.3-33.1-2.8-33.1-2.8c-1.7,2.2-6.2,33.1-6.7,32.5
		s243.6,0,243.6,0S649,64.8,647.7,66.1z"/>
	<path id="XMLID_5_" fill="#6F9159" stroke="#537040" stroke-linecap="round" stroke-linejoin="round" stroke-miterlimit="10" d="
		M644.9,132.3c-2.4,0-5.1,14.6-5.1,14.6l-1.7-41c-1.7,20.2-11.8,48.8-11.8,48.8c-0.6-5.6,0.6-26.9,0.6-26.9
		c-5.6,6.2-12.9,27.5-12.9,27.5c-7.3-14.6-7.3-42.6-7.3-42.6c-3.9,12.3-3.4,62.8-7.9,41.5c-4.5-21.3-25.3-40.4-25.3-40.4
		c10.1,25.3,7.9,39.3,7.9,39.3c-4.5-9-11.8-21.9-11.8-21.9c-0.6,15.2-3.9,23-3.9,23c-7.9-13.5-13.5-36.5-13.5-36.5
		c-6.2,11.8-5.6,34.8-5.6,34.8c-5.1-7.9-9.5-26.9-9.5-26.9c-0.6,7.9-3.9,25.8-3.9,25.8c-6.7-13.5-5.6-30.3-5.6-30.3
		c-8.4,11.8-13.5,34.2-13.5,34.2c-2.2-16.3,5.1-40.4,5.1-40.4c-5.1,3.9-17.4,43.8-17.4,43.8c-2.2-6.7-16.8-41-16.8-41
		c1.1,9-1.1,38.2-1.1,38.2c-1.7-10.1-16.8-33.7-18.5-33.7c5.1,16.3,4.5,36.5,4.5,36.5c-1.1-2.8-28.6-30.3-28.6-30.3
		c7.9,11.8,10.7,28.1,10.7,28.1c-12.9-19.1-28.6-33.1-28.6-33.1c6.2,16.3,6.2,31.4,6.2,31.4c-3.9-7.3-11.8-33.7-11.8-33.7
		c-2.2,6.7-5.1,29.2-5.1,29.2c-6.2-15.7-16.8-19.1-16.8-19.1c-5.1,2.8-28.6,23-28.6,23c7.3-14,14.6-23.6,14.6-23.6
		c-16.8,6.7-26.9,25.8-26.9,25.8c2.2-14-12.9-35.4-12.9-35.4c2.8,11.8-4.5,27.5-4.5,27.5c-6.7-11.2-9-39.8-9-39.8
		c-7.3,8.4-12.9,27.5-12.9,27.5c-8.4-23.6-24.1-36.5-24.1-36.5c3.4,12.3,7.3,26.4,7.3,26.4c-2.8-3.9-17.4-20.8-17.4-20.8
		c1.1,6.2,0,34.2-1.7,33.7s-26.9,3.4-26.9,3.4c0-3.9-11.2-23-11.2-23l-2.2,21.3c-3.4-1.7-35.4-6.2-35.4-6.2
		c0.6-2.8-16.8-28.1-16.8-28.1c3.9,8.4,2.2,28.1,2.2,28.1c-7.9-9-15.2-27.5-15.2-27.5c-1.7,6.2-6.7,26.9-7.9,28.6
		c-1.1,1.7-28.1,45.5-28.1,45.5s36.5,7.9,41.5,12.3c5.1,4.5,97.6,0.6,113.3,0c15.7-0.6,31.5-5.6,64.6-6.7c33.1-1.1,37.9,1,86.8,2.2
		s68.1-4.4,99.5-2.2c31.4,2.2,49.9,1.1,63.4-1.1c13.5-2.2,33.1-1.7,37-1.1s3.9,0.6,3.9,0.6l-0.2-57.8
		C648,127.2,646.6,132.3,644.9,132.3z"/>
	<path id="XMLID_149_" fill="#6F9159" stroke="#537040" stroke-linecap="round" stroke-linejoin="round" stroke-miterlimit="10" d="
		M356.2,172.4c5.4-16.1,2.3-36.9,0.5-40.5s1.5-4.4,1.5-4.4c4.6,3.8,7.4,28.9,0,45.1"/>
</g>
<g id="Layer_3">
	<path id="XMLID_121_" fill="#6F9159" stroke="#537040" stroke-linecap="round" stroke-linejoin="round" stroke-miterlimit="10" d="
		M303.9,125.5c-5.1,8.2-8.2,31.1-8.2,31.1C299.8,139.8,308,125,308,125L303.9,125.5z"/>
	<path id="XMLID_27_" fill="#8962A5" stroke="#644182" stroke-miterlimit="10" d="M168.9,132.9c-16.8-2.1-2.3-31.6,5.4-5.8
		c-3.4-17.4,25.1-15.9,7.5,2.9c18-7.6,16.2,12.1-2.4,7.4c-6.6,0.4-7.1,2.4-7.1,2.4C171.1,136.2,168.9,132.9,168.9,132.9z"/>
	<path id="XMLID_146_" fill="#8CB274" stroke="#4F7736" stroke-linecap="round" stroke-linejoin="round" stroke-miterlimit="10" d="
		M209.2,141.9c-2.6,7.7-5.1,23.1-2,35.9c1.8,3.3,3.1,2,3.1,2c-3.6-11.3-2-28.4,3.8-37.4C210.7,140.9,209.2,141.9,209.2,141.9z"/>
	<path id="XMLID_34_" fill="#8CB274" stroke="#4F7736" stroke-linecap="round" stroke-linejoin="round" stroke-miterlimit="10" d="
		M4.2,262.6c15.2,1.7,37.5-9.6,63.6-13.5c26.1-3.9,9.1,0.9,54-4.4s57.5-7,60.1-10.5s17-9.1,33.1-10s15.2-6.6,17.4-13.1
		c5.4-15.4,417-20.6,417.4-26.2c0.4-5.7-479.8-0.8-482.8-2.1C164.1,181.6,0,195.5,0,195.5v68L4.2,262.6z"/>
	<g id="XMLID_14_">
		<path id="XMLID_12_" fill="#D34E33" stroke="#7C260F" stroke-linecap="round" stroke-linejoin="round" stroke-miterlimit="10" d="
			M207,129.4c-4.5-13.4,30.9-0.9,17.7,8c17.5,2.9,16.9,18.7-1.5,8.3c10.2,13.3-9.5,20.4-11.1,1.3c-12.8,8.1-26.8-5.9-13.9-10.4
			C175.4,132.9,196.2,111.8,207,129.4z"/>

			<ellipse id="XMLID_6_" transform="matrix(0.9201 0.3917 -0.3917 0.9201 71.3439 -72.5075)" fill="#EA9B3D" stroke="#A35B13" stroke-linecap="round" stroke-linejoin="round" stroke-miterlimit="10" cx="213.4" cy="138.6" rx="8.4" ry="3.7"/>
	</g>
	<path id="XMLID_107_" fill="#8CB274" stroke="#4F7736" stroke-linecap="round" stroke-linejoin="round" stroke-miterlimit="10" d="
		M328.8,151.4c-4.9,9.5-4.1,23.1-2.8,31c1.5,0,3.1-0.8,3.1-0.8c-2.3-9.5-3.8-21.5,4.4-29.2C330.1,150.4,328.8,151.4,328.8,151.4z"/>
	<path id="XMLID_24_" fill="#D34E33" stroke="#7C260F" stroke-linecap="round" stroke-linejoin="round" stroke-miterlimit="10" d="
		M304.2,116.3c-3.3-9.2,22.9,2.8,13.1,7.1c12.9,3.8,12.5,13.9-1.1,5.3c7.6,9.7-7,12.2-8.2-0.4c-9.4,3.9-19.8-6.7-10.3-8.2
		C280.8,115.2,296.2,103.7,304.2,116.3z"/>

		<ellipse id="XMLID_25_" transform="matrix(0.8882 0.4595 -0.4595 0.8882 91.0767 -128.2491)" fill="#EA9B3D" stroke="#A35B13" stroke-linecap="round" stroke-linejoin="round" stroke-miterlimit="10" cx="309" cy="123" rx="6.5" ry="2.3"/>
	<path id="XMLID_7_" fill="#409161" stroke="#285139" stroke-linecap="round" stroke-linejoin="round" stroke-miterlimit="10" d="
		M0,80.7c2.5-4.8,14.7-7.9,15.3,5.6c6.7-8.4,5.6,1.7,5.6,1.7c15.7-18,26.9,2.8,26.4,19.1c16.3-6.7,24.1-5.1,21.3,7.3
		c6.7-10.1,24.1-13.5,23,5.1c3.9-3.4,9.5-2.2,9.5-2.2c15.2-25.8,40.4-15.7,33.7,10.7c7.9-12.9,6.7,1.1,6.7,1.1
		c18-16.8,23.6,8.4,12.3,13.5c20.8-19.1,33.1,4.5,13.5,12.9c32.5,0,26.9,30.3,8.4,28.1c30.3,11.2,15.2,19.1,9,19.1
		c18,9.5-30.3,23-49.4,11.8c1.7,14.6-19.6,16.8-20.8,3.9c-15.2,12.3-41.5,0.6-42.1-2.8c18,16.3-21.3,19.6-34.8,1.7
		c-4.5,11.2-14,0.6-14,0.6c-7.9,9-23.7,6.2-23.7,6.2S0.5,80.2,0,80.7z"/>
	<path id="XMLID_88_" fill="#8CB274" stroke="#4F7736" stroke-linecap="round" stroke-linejoin="round" stroke-miterlimit="10" d="
		M404.3,177.8c4.6-14.1,3.8-28.2,1.5-35.3c2.3-3.6,5-2.8,5-2.8c2.4,14.6-1.4,32.8-4.5,38.7C405.4,177.8,404.3,177.8,404.3,177.8z"/>
	<path id="XMLID_8_" fill="#409161" stroke="#285139" stroke-linecap="round" stroke-linejoin="round" stroke-miterlimit="10" d="
		M15.3,145.2c-7.9-24.7,2.8-30.3,14-6.2c12.9-21.3,35.4-7.3,15.7,15.7c14.6-11.2,20.2,0.6,6.2,9.5"/>
	<path id="XMLID_9_" fill="#409161" stroke="#285139" stroke-linecap="round" stroke-linejoin="round" stroke-miterlimit="10" d="
		M91.6,157.5c-1.7-19.6,12.3-24.1,13.5-4.5c5.1-10.7,8.4,2.8,8.4,2.8c9-14.6,20.2,6.7,7.9,12.9"/>
	<path id="XMLID_10_" fill="#409161" stroke="#285139" stroke-linecap="round" stroke-linejoin="round" stroke-miterlimit="10" d="
		M75.9,185c-5.6,17.4,20.2,23.6,13.5,3.4c18,12.9,13.5-0.6,11.8-1.7c12.9,5.1,19.6-5.1,5.6-7.9"/>
	<path id="XMLID_13_" fill="#D34E33" stroke="#7C260F" stroke-linecap="round" stroke-linejoin="round" stroke-miterlimit="10" d="
		M272,124.1c-11,12.9-27.6-15.6-1.9-7.7c-16.4-6.7,0.6-29.7,6.6-4.7c3.6-19.2,19-6.8,4.9,6.1c-3.3,5.8-1.9,7.2-1.9,7.2
		C276.1,124.1,272,124.1,272,124.1z"/>
	<path id="XMLID_147_" fill="#6F9159" stroke="#537040" stroke-linecap="round" stroke-linejoin="round" stroke-miterlimit="10" d="
		M295.7,175.7c0,0,2.6-22,7.7-31.5c0,0-9.7,9.7-12,27.4c1.3-13.8-7.2-39.2-10.5-46.4c0,0-1-1.3-0.8-5.4c-0.8-0.3-4.6,0-4.9,3.6
		c3.6,3.1,6.9,9.5,8.7,16.9s8.5,41.2,5.4,30.5s-10-14.6-10-14.6c5.1,9,5.6,12.8,5.6,12.8c-6.9-5.1-15.1-4.1-15.1-4.1l9.2,7.9"/>
	<path id="XMLID_108_" fill="#8CB274" stroke="#4F7736" stroke-linecap="round" stroke-linejoin="round" stroke-miterlimit="10" d="
		M262.2,150.1c-5.1,10.2-7.4,25.6-6.7,32.8c1.8,4.9,2.8,1.3,2.8,1.3c-0.5-2.3,1.5-23.1,6.1-32.3
		C263.7,149.6,262.2,150.1,262.2,150.1z"/>

		<use xlink:href="#flower1"  width="42.7" height="31.1" id="XMLID_26_" x="-21.3" y="-15.5" transform="matrix(1 0 0 -1 403.4615 136.4709)" overflow="visible"/>

		<use xlink:href="#flower1"  width="42.7" height="31.1" id="XMLID_11_" x="-21.3" y="-15.5" transform="matrix(1 0 0 -1 264.518 144.2492)" overflow="visible"/>
	<path id="XMLID_18_" fill="#D34E33" stroke="#7C260F" stroke-linecap="round" stroke-linejoin="round" stroke-miterlimit="10" d="
		M358.7,124.3c7.5-9,6.4-17.2,0.4-14.6c-2.2-12-13.1-3.7-10.8,7.1c-10.8-7.9-14.6,12.3-6,15.7C350.9,135.9,353.9,134,358.7,124.3z"
		/>

		<use xlink:href="#flower1"  width="42.7" height="31.1" id="XMLID_19_" x="-21.3" y="-15.5" transform="matrix(0.4365 0.5663 0.6344 -0.489 332.1985 146.9452)" overflow="visible"/>
	<path id="XMLID_16_" fill="#EA9B3D" stroke="#A35B13" stroke-linecap="round" stroke-linejoin="round" stroke-miterlimit="10" d="
		M357.2,124.3c-2.2-5.2-9-6.7-12,4.5C349.4,136.6,356.5,124.7,357.2,124.3z"/>
	<path id="XMLID_15_" fill="#6F9159" stroke="#537040" stroke-linecap="round" stroke-linejoin="round" stroke-miterlimit="10" d="
		M197.1,178.1c-2.2-13.1-17.2-33.7-17.2-33.7c9,4.5,20.2,22.1,20.2,22.1"/>
	<path id="XMLID_29_" fill="#8CB274" stroke="#4F7736" stroke-linecap="round" stroke-linejoin="round" stroke-miterlimit="10" d="
		M203.5,187.5c-2.2-18.7-4.5-30.7-8.2-36.3c10.8,5.6,13.5,23.6,13.5,23.6c0.7-14.6,6-22.8,6-22.8c-1.5,4.1,1.9,35.6,1.9,35.6"/>
	<path id="XMLID_17_" fill="#D34E33" stroke="#7C260F" stroke-linecap="round" stroke-linejoin="round" stroke-miterlimit="10" d="
		M354.2,126.2c-1.1-16.1,11.6-16.1,4.5,3.7c3.4,9.7-20.9,11.2-19.1,2.6C341.5,123.9,352.4,125,354.2,126.2z"/>
	<path id="XMLID_31_" fill="#6F9159" stroke="#537040" stroke-linecap="round" stroke-linejoin="round" stroke-miterlimit="10" d="
		M299.6,172.5c0.7-6-7.5-27.3-7.5-27.3c6.7,6.4,10.1,15,10.1,15c0.7-5.6,8.2-15.3,7.1-14.2c-1.1,1.1-1.9,13.5-1.9,13.5
		c3.7-9.7,12-15.3,12-15.3c-1.5,1.5-6,32.2-6,32.2"/>
	<path id="XMLID_28_" fill="#8CB274" stroke="#4F7736" stroke-linecap="round" stroke-linejoin="round" stroke-miterlimit="10" d="
		M250,186.3c-0.4-9.7-11.4-27.6-12.9-29.8c12.7,5.6,15.3,16.1,15.3,16.1c-0.4-4.5-3.7-16.1-3.7-16.1c6.7,11.2,9,21.3,9,21.3
		c1.5-7.1,20.2-25.1,20.2-25.1c-5.6,10.5-9,23.2-9,23.2c0.7-3.4,26.6-15.7,20.6-11.2c-6,4.5-13.1,21.3-13.1,21.3"/>
	<path id="XMLID_36_" fill="#A59E98" stroke="#665E56" stroke-linecap="round" stroke-linejoin="round" stroke-miterlimit="10" d="
		M29,254.3c13.1-10.5,23.1-14.8,30.5-8.7s27,13.5,13.9,17.9c-13.1,4.4-33.5,11.3-37.5,5.7C32.1,263.5,29,254.3,29,254.3z"/>
	<path id="XMLID_33_" fill="#8CB274" stroke="#4F7736" stroke-linecap="round" stroke-linejoin="round" stroke-miterlimit="10" d="
		M397.9,182.8c0.9-7.8-4.8-29.3-4.8-29.3c7.9,5.6,14.6,15.7,14.6,15.7c2.2-7.9,16.5-16.8,16.5-16.8c-5.2,12-6.7,31.8-6.7,31.8"/>
	<path id="XMLID_30_" fill="#8CB274" stroke="#4F7736" stroke-linecap="round" stroke-linejoin="round" stroke-miterlimit="10" d="
		M318.7,187.5c-3-10.8-15.3-20.2-15.3-20.2c10.8-0.4,18.7,12,18.7,12c-0.7-5.6-3.4-18.7-3.4-18.7c4.9,7.5,8.5,16.6,8.5,16.6
		c0.4-1.5,11.3-13.2,19.5-13.6c-14.6,15-15.3,21.7-15.3,21.7"/>
	<path id="XMLID_32_" fill="#6F9159" stroke="#537040" stroke-linecap="round" stroke-linejoin="round" stroke-miterlimit="10" d="
		M365.8,181.5c6-23.2,18.3-30.3,18.3-30.3c-3.7,6.7-6.4,19.8-6.4,19.8c4.1-5.2,10.5-15.7,10.1-14.6c-1.1,7.1-2.6,17.6-2.6,19.1"/>
	<path id="XMLID_39_" fill="#A59E98" stroke="#665E56" stroke-linecap="round" stroke-linejoin="round" stroke-miterlimit="10" d="
		M297,200.7c7-7.8,12.6-13.1,19.6-7.4c7,5.7,17.9,9.6,11.3,13.1s-16.1,7.4-23.5,4.8C297,208.5,297,200.7,297,200.7z"/>
	<path id="XMLID_41_" fill="#A59E98" stroke="#665E56" stroke-linecap="round" stroke-linejoin="round" stroke-miterlimit="10" d="
		M382.8,200.3c5.2-7.8,2.6-10.9,10.5-14.4s11.3-6.1,18.3-2.2c7,3.9,16.6,3.5,13.5,10.9c-3,7.4-3,10.9-10.5,10.9
		S382.8,200.3,382.8,200.3z"/>
	<path id="XMLID_37_" fill="#8E878A" stroke="#5E585A" stroke-linecap="round" stroke-linejoin="round" stroke-miterlimit="10" d="
		M0,251.9c3.9,3.9,21.2-10.7,29-2.4c7.8,8.3,17.4,17,17,21.3c-0.4,4.4-1.7,14.8-9.1,16.1c-7.4,1.3-36.9,1.3-36.9,1.3
		S0,269.5,0,251.9z"/>
	<path id="XMLID_40_" fill="#A59E98" stroke="#665E56" stroke-linecap="round" stroke-linejoin="round" stroke-miterlimit="10" d="
		M630.3,174.2c-1.2-0.4-20,1.7-23.5,9.1s-3.9,8.3,0.9,8.7c4.8,0.4,16.6,3.5,20.9-0.4C632.9,187.7,636,175.9,630.3,174.2z"/>
	<path id="XMLID_35_" fill="#8CB274" stroke="#4F7736" stroke-linecap="round" stroke-linejoin="round" stroke-miterlimit="10" d="
		M196,224.9c0-6.7-14.6-26.9-14.6-26.9c12.3,5.2,18.3,16.8,18.3,16.8c0.7-11.2-6-31.8-6-31.8c8.6,6.4,17.2,28.8,17.2,28.8
		c-1.5-17.2,3-42.3,10.1-52c-2.2,34-1.9,40.4-1.9,40.4c4.1-16.1,22.1-28.1,22.1-28.1c-6.7,8.2-15.3,34.4-15.3,34.4
		c1.5-4.5,22.1-17.6,23.2-17.2c-2.2,1.1-16.1,25.1-16.1,25.1c6.4-10.1,24.3-10.1,24.3-10.1c-16.8,6-27.7,18.7-27.7,18.7
		c1.9-0.7,15.3,0,15.3,0c-3.4,1.5-19.5,8.6-19.5,8.6S193,235.8,196,224.9z"/>
	<path id="XMLID_46_" fill="#A59E98" stroke="#665E56" stroke-linecap="round" stroke-linejoin="round" stroke-miterlimit="10" d="
		M460,195.9c7.4-10.5,5.7-14.8,14.8-10.5c9.1,4.4,15.2,9.1,11.3,11.3C482.2,199,460,195.9,460,195.9z"/>
	<path id="XMLID_38_" fill="#8E878A" stroke="#5E585A" stroke-linecap="round" stroke-linejoin="round" stroke-miterlimit="10" d="
		M259.9,214.6c14.2-11.3,8.3-21.3,20.9-19.6s17-1.7,20.9,5.7c3.9,7.4,11.8,13.1,0.4,14.8C290.9,217.3,257.8,216.4,259.9,214.6z"/>
	<path id="XMLID_42_" fill="#8E878A" stroke="#5E585A" stroke-linecap="round" stroke-linejoin="round" stroke-miterlimit="10" d="
		M375.8,190.2c-9.5-1.9-11.8-0.4-17,3.9s-12.6,7.4-6.5,9.1c6.1,1.7,11.8,1.7,17,1.7s13.5,1.3,14.8-1.7
		C385.4,200.3,380.2,191.1,375.8,190.2z"/>
	<path id="XMLID_43_" fill="#8E878A" stroke="#5E585A" stroke-linecap="round" stroke-linejoin="round" stroke-miterlimit="10" d="
		M572.4,190.7c3.9-8.3,12.2-18.7,20.5-16.6c8.3,2.2,23.5,14.4,18.7,17.4c-4.8,3-7.4,4.1-15.7,4.4
		C579.3,196.4,572.4,190.7,572.4,190.7z"/>
	<path id="XMLID_44_" fill="#8E878A" stroke="#5E585A" stroke-linecap="round" stroke-linejoin="round" stroke-miterlimit="10" d="
		M648,162.4c0,12-19.4,11.8-19.4,21.3c0,9.6,6.5,11.3,10.5,10.9c3.9-0.4,9,0,9,0S648,161.5,648,162.4z"/>
	<path id="XMLID_113_" fill="none" stroke="#A0D5F2" stroke-linecap="round" stroke-linejoin="round" stroke-miterlimit="10" d="
		M50.2,282.7c4.8,6.1-10.9,12.5-35,12.2"/>
	<path id="XMLID_125_" fill="#231F20" d="M279.1,47c0.9,1.4,0.5,5.1,0.5,5.1c-1.3,3-3.5,6.3-3.5,6.3c3.2-2.3,5.3-5.7,5.3-5.7
		c0-2.2-2.3-5.5-2.3-5.5L279.1,47z"/>
	<path id="XMLID_114_" fill="none" stroke="#A0D5F2" stroke-linecap="round" stroke-linejoin="round" stroke-miterlimit="10" d="
		M5.1,302.9c9,1.1,31.9,0.5,38.8-2.7"/>
	<path id="XMLID_106_" fill="none" stroke="#A0D5F2" stroke-linecap="round" stroke-linejoin="round" stroke-miterlimit="10" d="
		M391.3,205.1c16.7,3.7,22.8,7.7,31.9,3.5c9-4.2,8.8-6.1,8.8-6.1"/>

		<polygon id="XMLID_130_" fill="#BAAEB1" stroke="#776E70" stroke-linecap="round" stroke-linejoin="round" stroke-miterlimit="10" points="
		250.3,29.2 237,29.5 248.7,36 	"/>
	<path id="XMLID_116_" fill="none" stroke="#A0D5F2" stroke-linecap="round" stroke-linejoin="round" stroke-miterlimit="10" d="
		M427.1,211.7c-6.4,4-21.5,1.9-23.1,1.6"/>
	<path id="XMLID_117_" fill="none" stroke="#A0D5F2" stroke-linecap="round" stroke-linejoin="round" stroke-miterlimit="10" d="
		M577.6,197.8c6.1,4.8,26.8,3.5,34.5,0.8"/>
	<g id="XMLID_23_">

			<path id="XMLID_118_" fill="#231F20" stroke="#231F20" stroke-linecap="round" stroke-linejoin="round" stroke-miterlimit="10" d="
			M253.5,32.8c1.1-5,5.9-8.4,11.5-8.7c-0.7-0.3-1.5-0.5-2.2-0.7c-7.4-1.6-14.5,2.1-15.8,8.3c-1.3,6.2,3.6,12.5,11,14.1
			c1.4,0.3,2.9,0.4,4.3,0.3C256.1,44,252.3,38.4,253.5,32.8z"/>

			<path id="XMLID_152_" fill="#E5C438" stroke="#C18021" stroke-linecap="round" stroke-linejoin="round" stroke-miterlimit="10" d="
			M273.8,37.6c1.2-5.5-2.6-11.2-8.7-13.4c-5.7,0.3-10.5,3.7-11.5,8.7c-1.2,5.5,2.6,11.2,8.7,13.4C267.9,46,272.7,42.6,273.8,37.6z"
			/>
	</g>
	<g id="XMLID_21_">
		<path id="XMLID_22_" fill="#231F20" stroke="#231F20" stroke-linecap="round" stroke-linejoin="round" stroke-miterlimit="10" d="
			M279.1,32.3c1.4,0,2.7,0.3,3.9,0.8c-1.8-2.8-5-4.6-8.6-4.6c-5.7,0-10.3,4.6-10.3,10.3c0,4.3,2.6,8,6.4,9.5
			c-1.1-1.6-1.7-3.6-1.7-5.7C268.8,36.9,273.4,32.3,279.1,32.3z"/>

			<path id="XMLID_148_" fill="#E5C438" stroke="#C18021" stroke-linecap="round" stroke-linejoin="round" stroke-miterlimit="10" d="
			M284.8,38.8c0-2.1-0.6-4.1-1.7-5.7c-1.2-0.5-2.5-0.8-3.9-0.8c-5.7,0-10.3,4.6-10.3,10.3c0,2.1,0.6,4.1,1.7,5.7
			c1.2,0.5,2.5,0.8,3.9,0.8C280.1,49.1,284.8,44.5,284.8,38.8z"/>
	</g>
	<path id="XMLID_119_" fill="#E5C438" stroke="#C18021" stroke-linecap="round" stroke-linejoin="round" stroke-miterlimit="10" d="
		M288.4,44c0,3.9-2.6,6.4-6.2,6.4s-7.8-3.1-7.8-7s4.1-7,7.8-7S288.4,40.2,288.4,44z"/>
	<path id="XMLID_123_" fill="none" stroke="#231F20" stroke-linecap="round" stroke-linejoin="round" stroke-miterlimit="10" d="
		M281.8,35.3c0-2.5,7.3-12.7,15-11.5"/>
	<path id="XMLID_124_" fill="none" stroke="#231F20" stroke-linecap="round" stroke-linejoin="round" stroke-miterlimit="10" d="
		M286.8,37.7c3.2-4.7,13-4.3,16.3,0"/>
	<path id="XMLID_120_" fill="#231F20" d="M271.5,48.8c0.8,2.3,1.8,5.8,1.8,5.8c-1.3,1.5-3.5,4.5-3.5,4.5c2-0.3,5.2-4.3,5.2-4.3
		C274,52.2,271.5,48.8,271.5,48.8z"/>
	<path id="XMLID_126_" fill="#231F20" d="M262.3,42c-0.7,2.2-3.7,7.5-3.7,7.5c-6.3,2.2-9.3,3.5-9.3,3.5c3.7,0.3,10.3-2.3,10.3-2.3
		C260.7,50,262.5,42,262.3,42z"/>
	<path id="XMLID_127_" fill="#231F20" d="M265.7,46.3c-0.7,3.7-2.2,6.2-2.2,6.2c-4.5,3.5-8,5.3-8,5.3c4.8-0.8,9.3-4.7,9.3-4.7
		C265.5,52.3,265.7,46.3,265.7,46.3z"/>
	<path id="XMLID_128_" fill="#231F20" d="M254,42c-2,2.8-5.2,4.8-5.2,4.8c-5.2,0.3-9.7-0.8-9.7-0.8c6.2,3,10.7,2.2,10.7,2.2L254,42z
		"/>

		<path id="XMLID_129_" opacity="0.79" fill="#D5F7F6" stroke="#F0FFFF" stroke-linecap="round" stroke-linejoin="round" stroke-miterlimit="10" d="
		M272.8,29.8c0.7-15.3-12-27-19.5-21.5c-7.5,5.5,5.2,24.2,15.5,24.7"/>

		<path id="XMLID_131_" opacity="0.79" fill="#D5F7F6" stroke="#F0FFFF" stroke-linecap="round" stroke-linejoin="round" stroke-miterlimit="10" d="
		M274.7,31.5c3.5-10.9,9.8-23.1,19-19.7c9.2,3.4,0.5,17.3-15,22.4"/>
	<path id="XMLID_133_" fill="none" stroke="#F8FFFF" stroke-linecap="round" stroke-linejoin="round" stroke-miterlimit="10" d="
		M297.5,5.8c4.5,5.3,3,12.3,1.7,13.8"/>
	<path id="XMLID_134_" fill="none" stroke="#F8FFFF" stroke-linecap="round" stroke-linejoin="round" stroke-miterlimit="10" d="
		M248.5,7.2c-2,2.8-2,9.8,1.8,13.2"/>
	<path id="XMLID_135_" fill="none" stroke="#F8FFFF" stroke-linecap="round" stroke-linejoin="round" stroke-miterlimit="10" d="
		M242.7,11.7c-0.7,2.8,1.7,6.2,1.7,6.2"/>
	<path id="XMLID_136_" fill="none" stroke="#F8FFFF" stroke-linecap="round" stroke-linejoin="round" stroke-miterlimit="10" d="
		M304.3,8.5c1.5,2.7-0.8,9.2-0.8,9.2"/>

		<ellipse id="XMLID_132_" fill="none" stroke="#231F20" stroke-linecap="round" stroke-linejoin="round" stroke-miterlimit="10" cx="279.9" cy="44.3" rx="0.3" ry="1.8"/>

		<ellipse id="XMLID_138_" transform="matrix(0.9021 0.4315 -0.4315 0.9021 47.6277 -119.2577)" fill="none" stroke="#231F20" stroke-linecap="round" stroke-linejoin="round" stroke-miterlimit="10" cx="286.7" cy="45.3" rx="0.3" ry="1.8"/>
	<path id="XMLID_139_" fill="none" stroke="#231F20" stroke-linecap="round" stroke-linejoin="round" stroke-miterlimit="10" d="
		M281.1,47.7c0.4,0.9,2.6,1.1,2.9,0.4"/>
	<path id="XMLID_137_" fill="#E9F3F4" stroke="#9DB0B2" stroke-linecap="round" stroke-linejoin="round" stroke-miterlimit="10" d="
		M415.1,56.7c-3.4-6.3-15.1-2.4-15.1,2c-9.8-11.2-25.4,13.2-4.9,17.1c22,15.7,35.1-0.6,35.1-0.6c-1.1,19.3,43,20.1,48.3-1.8
		c-1.7,20.3,33.7,12.2,33.7,5.4c15.1,2.4,16.6-12.2,16.6-12.2c19-6.3-4.4-23.9-14.2-21c6.8-24.9-24.9-17.1-24.9-17.1
		c-5.4-19.5-45.9-19-46.9,15.6C423.4,33.3,415.6,56.7,415.1,56.7z"/>
	<path id="XMLID_140_" fill="#E9F3F4" stroke="#9DB0B2" stroke-linecap="round" stroke-linejoin="round" stroke-miterlimit="10" d="
		M87.6,51.4C72.5,39.2,62.7,57.2,68.1,64c5.4,6.8,12.2,10.7,23.9,3.9c9.3,10.2,16.6,2.4,16.6,2.4c10.7,14.6,28.3,6.8,29.8-0.5
		c14.2,0.2,11.7-15.6-3.4-13.7c-1.5-10.2-18.5-13.2-23.4-11.7C109.1,30.4,88.8,33.9,87.6,51.4z"/>
</g>
<g id="Layer_4">
	<path id="XMLID_83_" fill="none" stroke="#A0D5F2" stroke-linecap="round" stroke-linejoin="round" stroke-miterlimit="10" d="
		M95.5,362.4c0.3-8.2,17.9-18.2,41.5-19.1"/>
	<path id="XMLID_45_" fill="#70492E" stroke="#4F311C" stroke-linecap="round" stroke-linejoin="round" stroke-miterlimit="10" d="
		M184.2,304.5c10.9-30.1,12.2-41.8,13.5-51c1.3-9.1-3.5-28.8-25.7-29.6c-24,0-40.5,17.4-33.5,32.2c7,14.8,8.7,19.2,8.7,19.2
		c-6.1,13.1-8.4,22.1-12.6,33.5c-15.7,7.4-25.3,27-3,51.4c6.2,14,20.1,21.5,20.1,21.5c42.4,20,76.9,10.3,108.4-9.7
		c14.8-13.1,14.2-30.4,14.2-30.4c16.6-13.5,17.4-34.7,7.1-47.2c-1.7,10-3,13.9-3,13.9c-2.2-23.5-19.6-29.2-19.6-29.2
		c2.2,9.1-2.2,20.5-2.2,20.5C246.5,307.5,213.3,311,184.2,304.5z"/>
	<path id="XMLID_48_" fill="#70492E" stroke="#4F311C" stroke-linecap="round" stroke-linejoin="round" stroke-miterlimit="10" d="
		M185.9,314.9c16.1,5.2,71-4.8,72.8-7c1.7,19.2-6.5,28.8-6.5,28.8c-3.5,21.3-16.1,21.8-16.1,21.8c-5.7,14.8-24.8,11.8-24.8,11.8
		c-7.8,7.4-66.2-6.5-39.2-39.6"/>
	<path id="XMLID_49_" fill="#70492E" stroke="#4F311C" stroke-linecap="round" stroke-linejoin="round" stroke-miterlimit="10" d="
		M217.7,335.8c13.9,6.1,18.7,8.7,34.4,0.9"/>
	<path id="XMLID_50_" fill="#70492E" stroke="#4F311C" stroke-linecap="round" stroke-linejoin="round" stroke-miterlimit="10" d="
		M205.1,350.6c9.1,10.5,29.6,7.8,30.9,7.8"/>
	<path id="XMLID_51_" fill="#70492E" stroke="#4F311C" stroke-linecap="round" stroke-linejoin="round" stroke-miterlimit="10" d="
		M186.8,358.5c12.6,11.8,24.4,11.8,24.4,11.8"/>
	<path id="XMLID_52_" fill="#70492E" stroke="#4F311C" stroke-linecap="round" stroke-linejoin="round" stroke-miterlimit="10" d="
		M130.1,322c2.1-6.1,4.4-13.2,4.4-13.2"/>

		<ellipse id="XMLID_59_" transform="matrix(0.9565 0.2917 -0.2917 0.9565 78.6831 -31.0725)" fill="none" stroke="#231F20" stroke-width="1.3192" stroke-linecap="round" stroke-linejoin="round" stroke-miterlimit="10" cx="143.5" cy="248.3" rx="0.7" ry="4.5"/>
	<path id="XMLID_53_" fill="#70492E" stroke="#4F311C" stroke-linecap="round" stroke-linejoin="round" stroke-miterlimit="10" d="
		M126.7,337.7c0.6,7.7,4.8,22.6,4.8,22.6"/>
	<path id="XMLID_47_" fill="#E59E2C" stroke="#AF6114" stroke-linecap="round" stroke-linejoin="round" stroke-miterlimit="10" d="
		M164.7,264.9c-9.5-13.5-14.7-15.4-20-13.2c-5.2,2.1-16.9,9.8-21.5,10.1c-12.3-2.5-19-0.6-11.4,7.7s20,11.1,20,11.1
		c7.7,11.1,32.5,4.6,40.2-0.6C179.8,274.7,180.1,268.9,164.7,264.9z"/>
	<path id="XMLID_55_" fill="none" stroke="#231F20" stroke-linecap="round" stroke-linejoin="round" stroke-miterlimit="10" d="
		M153.2,259.8c-3.4,0.2-5.5,4-5.5,4"/>
	<path id="XMLID_56_" fill="#E59E2C" stroke="#AF6114" stroke-linecap="round" stroke-linejoin="round" stroke-miterlimit="10" d="
		M169,272.7c-5,4.6-20.7,12.3-37.1,7.8"/>
	<path id="XMLID_57_" fill="#E59E2C" stroke="#AF6114" stroke-linecap="round" stroke-linejoin="round" stroke-miterlimit="10" d="
		M163.7,271.3c5.5-0.8,7.9,3.6,7.9,3.6"/>

		<ellipse id="XMLID_54_" transform="matrix(0.9565 0.2917 -0.2917 0.9565 81.9165 -38.4193)" fill="#231F20" stroke="#231F20" stroke-width="1.3192" stroke-linecap="round" stroke-linejoin="round" stroke-miterlimit="10" cx="169.8" cy="255.5" rx="0.8" ry="5"/>
	<path id="XMLID_60_" fill="#F7C052" stroke="#AF7B1E" stroke-linecap="round" stroke-linejoin="round" stroke-miterlimit="10" d="
		M310.9,325.7c-4.4,8.5-5.7,26.5,17.2,28.1c22.9,1.6,33-7.9,33.6-21.6c7.4-8.7,2.5-16.6,2.5-16.6c-4.4,0.3-6.5,2.2-6.5,2.2
		c-10.9-8.5-27.6-3-29.5-1.9"/>
	<path id="XMLID_58_" fill="#59AD6F" stroke="#245B34" stroke-linecap="round" stroke-linejoin="round" stroke-miterlimit="10" d="
		M468.3,224.3c-1.5,0-16.2,9.6-16.2,9.6c36.4,7,57.7,1.1,53.3-9.6c-4.4-10.7-61.8-19.1-62.5,4C460.2,225.7,468.3,224.3,468.3,224.3z
		"/>
	<path id="XMLID_61_" fill="#59AD6F" stroke="#245B34" stroke-linecap="round" stroke-linejoin="round" stroke-miterlimit="10" d="
		M533.4,210.3l9.2,7.7c-39.3,2.9-43.8-5.9-42.6-10.7c1.1-4.8,19.1-9.2,32.4-9.2s33.5,6.6,22.8,17.6
		C539.2,211.8,533.4,210.3,533.4,210.3z"/>
	<path id="XMLID_3_" fill="#F7C052" stroke="#AF7B1E" stroke-linecap="round" stroke-linejoin="round" stroke-miterlimit="10" d="
		M330.6,326.8c5.2-19.6-5.5-24.8-16.1-23.5c-10.6,1.4-15,13.4-11.7,21c1.9,8.2,9.8,7.9,9.8,7.9"/>
	<path id="XMLID_62_" fill="#D87D4A" stroke="#B75525" stroke-linecap="round" stroke-linejoin="round" stroke-miterlimit="10" d="
		M306.8,320.8c-2.7,2.5-10.6,2.5-9,6.8c1.6,4.4,13.1,5.2,18.3-0.5C314.5,322.2,306.8,320.5,306.8,320.8z"/>
	<path id="XMLID_63_" fill="#F7C052" stroke="#AF7B1E" stroke-linecap="round" stroke-linejoin="round" stroke-miterlimit="10" d="
		M381.1,302.8c-0.3,4.4-8.5,22.6,1.4,30.3c9.8,7.6,34.9,12.8,42.8-8.7c3.8-13.1-1.6-23.7-1.6-23.7c-2.2,1.9-6.5,4.9-6.5,4.9
		c-7.9-3.3-18-0.5-19.1-0.8s-3.8-3.8-3.8-3.8"/>
	<path id="XMLID_2_" fill="#F7C052" stroke="#AF7B1E" stroke-linecap="round" stroke-linejoin="round" stroke-miterlimit="10" d="
		M335.2,321.6c3.8-4.6,18-3.3,20.7,3.5c2.7,6.8-10.4,17.2-18.6,12.3"/>
	<path id="XMLID_74_" fill="#F7C052" stroke="#AF7B1E" stroke-linecap="round" stroke-linejoin="round" stroke-miterlimit="10" d="
		M440.8,295.4c-7.7,7.3-10.8,19.2,1.1,27.2c11.8,8,35.3,6.2,43-7.3c7.7-13.4,1.5-34.2-5.6-41.3c-5.6,6.4-7.7,7.5-7.7,7.5
		C471.2,281.7,440.8,295.4,440.8,295.4z"/>
	<path id="XMLID_64_" fill="#F7C052" stroke="#AF7B1E" stroke-linecap="round" stroke-linejoin="round" stroke-miterlimit="10" d="
		M396.1,307.2c9-16.1-0.8-26.5-13.9-26.5c-13.1,0-15.3,10.1-11.5,16.4c2.5,5.7,1.9,12,14.5,10.4"/>
	<path id="XMLID_65_" fill="#F7C052" stroke="#AF7B1E" stroke-linecap="round" stroke-linejoin="round" stroke-miterlimit="10" d="
		M399.1,310.4c9-3,17.7-0.5,18.8,3.3s-10.9,26.2-29.2,7.4"/>
	<path id="XMLID_66_" fill="#D87D4A" stroke="#B75525" stroke-linecap="round" stroke-linejoin="round" stroke-miterlimit="10" d="
		M371.4,294c-4,4.2-3.9,4.4-6.4,4.5c-2.5,0.1-4.5,3-0.5,5.6c4,2.5,12,2.2,14.7-0.2C372.8,299.4,371.4,294,371.4,294z"/>

		<ellipse id="XMLID_67_" stroke="#000000" stroke-linecap="round" stroke-linejoin="round" stroke-miterlimit="10" cx="381.7" cy="295.5" rx="0.7" ry="3.1"/>

		<ellipse id="XMLID_68_" stroke="#000000" stroke-linecap="round" stroke-linejoin="round" stroke-miterlimit="10" cx="318" cy="320.2" rx="0.7" ry="3"/>
	<path id="XMLID_69_" fill="#F7C052" stroke="#AF7B1E" stroke-linecap="round" stroke-linejoin="round" stroke-miterlimit="10" d="
		M440.3,298.7c-10.3-14.3,3.7-25.1,17.5-23.7s10.8,27.7-0.6,28.8"/>
	<path id="XMLID_70_" fill="#D87D4A" stroke="#B75525" stroke-linecap="round" stroke-linejoin="round" stroke-miterlimit="10" d="
		M445.2,295.6c-3.4,0.8-4.7,1.9-5,4.8c-0.2,2.9-3.5,6.4,0.7,7.6c4.2,1.2,9.4-1.5,9.7-5.8C450.8,300.1,449.8,295.6,445.2,295.6z"/>
	<path id="XMLID_72_" fill="#F7C052" stroke="#AF7B1E" stroke-linecap="round" stroke-linejoin="round" stroke-miterlimit="10" d="
		M513.7,286.2c-5.6,7.6-6.9,23,11,28.4c17.9,5.4,37.5-11.6,32.6-31.3c-4.2-16.6-10.2-18-10.2-18c-4,3.4-18.5,12.6-18.5,12.6"/>
	<path id="XMLID_77_" fill="#F7C052" stroke="#AF7B1E" stroke-linecap="round" stroke-linejoin="round" stroke-miterlimit="10" d="
		M539.5,294.1c-2.9-7.3,0.2-17.6,10.2-18.5c8.1,9.4,8.7,23.8-5.2,23.6"/>
	<path id="XMLID_78_" fill="#D87D4A" stroke="#B75525" stroke-linecap="round" stroke-linejoin="round" stroke-miterlimit="10" d="
		M510.8,267.9c-6,0.5-7,0.8-9.9,0.1c-2.9-0.7-5.7-4.1-6.5,0.4c-0.8,4.5,7.3,15.5,14,15.1C509.3,273.7,511,267.6,510.8,267.9z"/>

		<ellipse id="XMLID_71_" stroke="#000000" stroke-linecap="round" stroke-linejoin="round" stroke-miterlimit="10" cx="455.9" cy="294" rx="0.7" ry="3"/>
	<path id="XMLID_73_" fill="#F7C052" stroke="#AF7B1E" stroke-linecap="round" stroke-linejoin="round" stroke-miterlimit="10" d="
		M459.4,318.2c-7.3-6.8,0.8-17.9,10.6-24.8c9.8-6.9,10.4-5.6,10.4-5.6s5.9,12.8-2.7,21"/>
	<path id="XMLID_75_" fill="#F7C052" stroke="#AF7B1E" stroke-linecap="round" stroke-linejoin="round" stroke-miterlimit="10" d="
		M531.2,288.6c4.6-6.5,5.7-18.7-3.9-24.3c-9.5-5.6-20.3,1-21.9,9.9c-1.7,9.6,5,21.6,20.9,17.2"/>
	<path id="XMLID_76_" fill="#F7C052" stroke="#AF7B1E" stroke-linecap="round" stroke-linejoin="round" stroke-miterlimit="10" d="
		M515.9,292.3c0.5,1.6,5.8,3.7,7.4,4.5"/>

		<ellipse id="XMLID_79_" transform="matrix(0.6811 0.7322 -0.7322 0.6811 366.9682 -289.1352)" fill="none" stroke="#000000" stroke-linecap="round" stroke-linejoin="round" stroke-miterlimit="10" cx="515.4" cy="276.7" rx="0.4" ry="2.5"/>
	<path id="XMLID_81_" fill="none" stroke="#A0D5F2" stroke-linecap="round" stroke-linejoin="round" stroke-miterlimit="10" d="
		M128.5,379.9c6.1,11.8,37.8,19.4,71.8,19.1"/>
	<path id="XMLID_82_" fill="none" stroke="#A0D5F2" stroke-linecap="round" stroke-linejoin="round" stroke-miterlimit="10" d="
		M114.6,372.7c-14.8,5.5-3.6,24.8,33,30.3"/>
	<path id="XMLID_84_" fill="none" stroke="#A0D5F2" stroke-linecap="round" stroke-linejoin="round" stroke-miterlimit="10" d="
		M119.4,407.5c36.9,19.7,173.8,19.4,247.1,0"/>
	<path id="XMLID_85_" fill="none" stroke="#A0D5F2" stroke-linecap="round" stroke-linejoin="round" stroke-miterlimit="10" d="
		M213.9,400.8c36.3,7,58.1-3.9,62.4-6.7"/>
	<path id="XMLID_80_" fill="none" stroke="#A0D5F2" stroke-linecap="round" stroke-linejoin="round" stroke-miterlimit="10" d="
		M234.8,391.7c10-0.3,24.5-6.4,30.3-12.4c5.8-6.1,8.2-11.5,6.7-13.3"/>
	<path id="XMLID_87_" fill="none" stroke="#A0D5F2" stroke-linecap="round" stroke-linejoin="round" stroke-miterlimit="10" d="
		M274.2,387.8c14.2-6.4,24.2-11.2,42.7-9.4c18.5,1.8,39.7,6.1,60-0.6c20.3-6.7,34.8-21.2,59-14.5s54.5,12.7,83.9,0.9
		c29.4-11.8,43.6-19.1,47.5-18.5"/>
	<path id="XMLID_86_" fill="none" stroke="#A0D5F2" stroke-linecap="round" stroke-linejoin="round" stroke-miterlimit="10" d="
		M472.2,356c7.3-7.6,20-16,41.8-14.2c21.8,1.8,55.1-3,69.9-8.8"/>
	<path id="XMLID_89_" fill="none" stroke="#A0D5F2" stroke-linecap="round" stroke-linejoin="round" stroke-miterlimit="10" d="
		M308.1,351.2c-5.1,1.8,6.1,12.1,31.2,7.9"/>
	<path id="XMLID_90_" fill="none" stroke="#A0D5F2" stroke-linecap="round" stroke-linejoin="round" stroke-miterlimit="10" d="
		M367.4,340.9c3,3.9-3.3,10.6-12.1,12.1"/>
	<path id="XMLID_91_" fill="none" stroke="#A0D5F2" stroke-linecap="round" stroke-linejoin="round" stroke-miterlimit="10" d="
		M376.2,336c-1.2,2.4,3.6,11.2,27.6,10.3"/>
	<path id="XMLID_92_" fill="none" stroke="#A0D5F2" stroke-linecap="round" stroke-linejoin="round" stroke-miterlimit="10" d="
		M408.3,343.3c12.7,0.6,20.6-8.5,20.3-11.8"/>
	<path id="XMLID_93_" fill="none" stroke="#A0D5F2" stroke-linecap="round" stroke-linejoin="round" stroke-miterlimit="10" d="
		M445.2,330.6c8.5,8.2,30,7.9,46,1.8"/>
	<path id="XMLID_94_" fill="none" stroke="#A0D5F2" stroke-linecap="round" stroke-linejoin="round" stroke-miterlimit="10" d="
		M514.9,316c4.8,3.9,22.4,8.5,36.6,1.5"/>
	<path id="XMLID_95_" fill="none" stroke="#A0D5F2" stroke-linecap="round" stroke-linejoin="round" stroke-miterlimit="10" d="
		M505.8,304.5c-8.5,1.2-2.7,16.4,14.8,18.2"/>
	<path id="XMLID_96_" fill="none" stroke="#A0D5F2" stroke-linecap="round" stroke-linejoin="round" stroke-miterlimit="10" d="
		M492.8,314.5c-2.1,5.8-11.2,15.4-24.2,15.1"/>
	<path id="XMLID_97_" fill="none" stroke="#A0D5F2" stroke-linecap="round" stroke-linejoin="round" stroke-miterlimit="10" d="
		M533.4,329.7c7.9-5.5,22.4-0.6,48.7-9.1s23.6-17.3,20.6-20.3s-9.7-11.8,26-23.6"/>
	<path id="XMLID_98_" fill="none" stroke="#A0D5F2" stroke-linecap="round" stroke-linejoin="round" stroke-miterlimit="10" d="
		M557.3,275.8c6.4-3.3,16.7-1.2,26-4.2c9.4-3,3.9-6.4,12.7-9.7c8.8-3.3,39.7-8.8,45.7-8.8"/>
	<path id="XMLID_99_" fill="none" stroke="#A0D5F2" stroke-linecap="round" stroke-linejoin="round" stroke-miterlimit="10" d="
		M565.4,283.6c5.8-3.9,23.6-5.1,29.1-8.5"/>
	<path id="XMLID_100_" fill="none" stroke="#A0D5F2" stroke-linecap="round" stroke-linejoin="round" stroke-miterlimit="10" d="
		M553.3,311.8c17.6-3.3,27.3-0.6,34.8-14.2"/>
	<path id="XMLID_101_" fill="none" stroke="#A0D5F2" stroke-linecap="round" stroke-linejoin="round" stroke-miterlimit="10" d="
		M511.5,225.7c5,5.8-3.2,21.2-44.1,17.5"/>
	<path id="XMLID_102_" fill="none" stroke="#A0D5F2" stroke-linecap="round" stroke-linejoin="round" stroke-miterlimit="10" d="
		M445.9,212.9c-12.7,3.2-15.7,13.8-8.2,17.3"/>
	<path id="XMLID_103_" fill="none" stroke="#A0D5F2" stroke-linecap="round" stroke-linejoin="round" stroke-miterlimit="10" d="
		M514.7,221.4c12.5,3.2,25,0.3,25,0.3"/>
	<path id="XMLID_104_" fill="none" stroke="#A0D5F2" stroke-linecap="round" stroke-linejoin="round" stroke-miterlimit="10" d="
		M554,197.3c14.3,5.8,18.8,15.1,2.9,22.3"/>
	<path id="XMLID_105_" fill="none" stroke="#A0D5F2" stroke-linecap="round" stroke-linejoin="round" stroke-miterlimit="10" d="
		M494.2,202.8c4.8-5.8,19.6-6.9,26.5-8"/>
	<path id="XMLID_145_" fill="none" stroke="#A0D5F2" stroke-linecap="round" stroke-linejoin="round" stroke-miterlimit="10" d="
		M288.9,223.3c10.9,0.3,21.2-1.1,23.4-6.6c14.3-0.5,22-4.2,21.8-8"/>
	<path id="XMLID_143_" fill="none" stroke="#A0D5F2" stroke-linecap="round" stroke-linejoin="round" stroke-miterlimit="10" d="
		M333.8,221.4c-4.2-0.3-8.2,4.2-17,5"/>
	<path id="XMLID_144_" fill="none" stroke="#A0D5F2" stroke-linecap="round" stroke-linejoin="round" stroke-miterlimit="10" d="
		M345.4,203.5c-4.5,1.3,9.6,8,31.1,7.2"/>
	<path id="XMLID_109_" fill="none" stroke="#A0D5F2" stroke-linecap="round" stroke-linejoin="round" stroke-miterlimit="10" d="
		M207.3,237.3c17.5,1.3,31.6-0.8,30-4.8"/>
	<path id="XMLID_110_" fill="none" stroke="#A0D5F2" stroke-linecap="round" stroke-linejoin="round" stroke-miterlimit="10" d="
		M247.9,235.7c0.3,1.3-7.7,6.4-17.3,5.6"/>
	<path id="XMLID_111_" fill="none" stroke="#A0D5F2" stroke-linecap="round" stroke-linejoin="round" stroke-miterlimit="10" d="
		M78.9,254.1c10.1,3.5,15.4,9.8-4.8,13.8"/>
	<path id="XMLID_112_" fill="none" stroke="#A0D5F2" stroke-linecap="round" stroke-linejoin="round" stroke-miterlimit="10" d="
		M88.1,268.7c4.8-2.4,9.6-5.6,6.4-8"/>
</g>
</svg>
