<?xml version="1.0" encoding="utf-8"?>
<!-- Generator: Adobe Illustrator 19.0.0, SVG Export Plug-In . SVG Version: 6.00 Build 0)  -->
<!DOCTYPE svg PUBLIC "-//W3C//DTD SVG 1.0//EN" "http://www.w3.org/TR/2001/REC-SVG-20010904/DTD/svg10.dtd">
<svg version="1.0" xmlns="http://www.w3.org/2000/svg" xmlns:xlink="http://www.w3.org/1999/xlink" x="0px" y="0px"
	 viewBox="0 0 648 432" enable-background="new 0 0 648 432" xml:space="preserve">
<symbol  id="car1_1_" viewBox="-108.4 -45.8 216.8 100.7">
	<polygon id="XMLID_217_" fill="#111111" points="94,-28.2 -94.6,-28.2 -94.6,3.1 94,3.1 	"/>
	<path id="XMLID_216_" fill="#A0E8E6" stroke="#231F20" stroke-linecap="round" stroke-linejoin="round" stroke-miterlimit="10" d="
		M-14.6,45.9c-0.8-0.3-23.7-18.8-32.8-35.4c27.6-0.3,79.2,0.5,79.2,0.5l62.3-0.5c-3.4,16.7-13.8,37.3-13.8,37.3
		C64.6,49.3-14.6,46.4-14.6,45.9z"/>
	<path id="XMLID_215_" fill="#2C2C2C" stroke="#171717" stroke-linecap="round" stroke-linejoin="round" stroke-miterlimit="10" d="
		M-51.3-26.3c0-10.5-8.2-19-18.4-19s-18.4,8.5-18.4,19s8.2,19,18.4,19S-51.3-15.8-51.3-26.3z"/>
	<path id="XMLID_211_" fill="#BCB4AD" stroke="#726E6A" stroke-linecap="round" stroke-linejoin="round" stroke-miterlimit="10" d="
		M-57.9-26.3c0-6.8-5.3-12.2-11.8-12.2s-11.8,5.5-11.8,12.2s5.3,12.2,11.8,12.2S-57.9-19.5-57.9-26.3z"/>
	<path id="XMLID_210_" fill="#2C2C2C" stroke="#171717" stroke-linecap="round" stroke-linejoin="round" stroke-miterlimit="10" d="
		M88.6-26.3c0-10.5-8.2-19-18.4-19s-18.4,8.5-18.4,19s8.2,19,18.4,19S88.6-15.8,88.6-26.3z"/>
	<path id="XMLID_209_" fill="#BCB4AD" stroke="#726E6A" stroke-linecap="round" stroke-linejoin="round" stroke-miterlimit="10" d="
		M82.1-26.3c0-6.8-5.3-12.2-11.8-12.2c-6.5,0-11.8,5.5-11.8,12.2s5.3,12.2,11.8,12.2C76.8-14.1,82.1-19.5,82.1-26.3z"/>
	<path id="XMLID_208_" fill="#2C2C2C" stroke="#171717" stroke-linecap="round" stroke-linejoin="round" stroke-miterlimit="10" d="
		M44.1-25.5h-87.6c0-0.3,0-0.5,0-0.8c0-1.7-0.1-3.4-0.4-5h88.4c-0.3,1.6-0.4,3.3-0.4,5C44.1-26,44.1-25.8,44.1-25.5z"/>
	<path id="XMLID_207_" fill="#2C2C2C" stroke="#171717" stroke-linecap="round" stroke-linejoin="round" stroke-miterlimit="10" d="
		M103.2-10.1v-2.2c0-5-2.8-9.4-6.9-11.6c0.1-0.8,0.1-1.6,0.1-2.4c0-1.7-0.1-3.4-0.4-5h4.9c3.8,0,6.9,3.1,6.9,6.9v7.8
		C107.9-13.6,105.9-11,103.2-10.1z"/>
	<path id="XMLID_206_" fill="#2C2C2C" stroke="#171717" stroke-linecap="round" stroke-linejoin="round" stroke-miterlimit="10" d="
		M-95.7-22.6c-3,2.4-4.9,6.1-4.9,10.3l-3,2.1c-2.5-1-4.3-3.5-4.3-6.4v-7.8c0-3.8,3.1-6.9,6.9-6.9h5.5c-0.3,1.6-0.4,3.3-0.4,5
		C-95.9-25-95.8-23.8-95.7-22.6z"/>
	<path id="XMLID_205_" fill="#2C2C2C" stroke="#171717" stroke-linecap="round" stroke-linejoin="round" stroke-miterlimit="10" d="
		M-43.7-22.9c0.1-0.9,0.2-1.7,0.2-2.6h87.6c0,0.9,0.1,1.7,0.2,2.6H-43.7z"/>
	<path id="XMLID_204_" fill="#2C2C2C" stroke="#171717" stroke-linecap="round" stroke-linejoin="round" stroke-miterlimit="10" d="
		M-69.7-4.9c10.3,0,18.8-7.8,20.4-18h5.6c-1.5,14.1-12.6,25-26,25C-83,2.1-94-8.7-95.7-22.6c1.5-1.2,3.4-2.2,5.4-2.6
		C-89.7-13.9-80.7-4.9-69.7-4.9z"/>
	<path id="XMLID_203_" fill="#2C2C2C" stroke="#171717" stroke-linecap="round" stroke-linejoin="round" stroke-miterlimit="10" d="
		M-90.3-26.3c0,0.4,0,0.7,0.1,1.1c-2,0.5-3.8,1.4-5.4,2.6c-0.1-1.2-0.2-2.5-0.2-3.7c0-1.7,0.1-3.4,0.4-5h5.7
		C-90.1-29.7-90.3-28-90.3-26.3z"/>
	<g id="XMLID_200_">

			<path id="XMLID_202_" fill="#C93D3D" stroke="#911212" stroke-linecap="round" stroke-linejoin="round" stroke-miterlimit="10" d="
			M89.4,17c0,0-152.7,3.9-173.1-4.2c-2.2-0.5-4.5-1.6-6.7-3.1c2.1-0.9,3.5-2.7,3.5-5.2c0-4-3.8-8.1-8.5-9.1c-2.7-0.6-5.1,0-6.6,1.4
			c-1.3-2.4-2-4.8-2-6.7l0.4-0.3l3-2.1c0-4.2,1.9-7.9,4.9-10.3C-94-8.7-83,2.1-69.7,2.1c13.4,0,24.5-10.9,26-25h88
			c1.5,14.1,12.6,25,26,25c13.7,0,25-11.4,26.1-26c4.1,2.3,6.9,6.6,6.9,11.6v2.2V7.6C103.2,14.9,96.7,17,89.4,17z"/>

			<path id="XMLID_201_" fill="#EFE9CE" stroke="#938664" stroke-linecap="round" stroke-linejoin="round" stroke-miterlimit="10" d="
			M-95.3-4.6c4.7,1,8.5,5.1,8.5,9.1c0,2.4-1.4,4.3-3.5,5.2c-4.7-3.2-9.1-8.2-11.6-12.9C-100.4-4.6-98-5.2-95.3-4.6z"/>
	</g>
	<path id="XMLID_199_" fill="#2C2C2C" stroke="#171717" stroke-linecap="round" stroke-linejoin="round" stroke-miterlimit="10" d="
		M-43.6-25.5l-5.6-0.1c0-0.3,0.1-0.5,0.1-0.8c0-1.7-0.1-3.4-0.5-5l5.7,0.1c0.2,1.6,0.3,3.3,0.3,5C-43.6-26-43.6-25.7-43.6-25.5z"/>
	<path id="XMLID_174_" fill="#2C2C2C" stroke="#171717" stroke-linecap="round" stroke-linejoin="round" stroke-miterlimit="10" d="
		M-49.4-22.9c0.1-0.9,0.2-1.7,0.2-2.6h5.6c0,0.9-0.1,1.7-0.2,2.6H-49.4z"/>
	<path id="XMLID_173_" fill="#2C2C2C" stroke="#171717" stroke-linecap="round" stroke-linejoin="round" stroke-miterlimit="10" d="
		M70.2,2.1c-13.4,0-24.5-10.9-26-25h5.6c1.6,10.2,10.1,18,20.4,18c11.1,0,20.2-9.1,20.6-20.5c2,0.1,3.8,0.7,5.5,1.6
		C95.2-9.3,84,2.1,70.2,2.1z"/>
	<path id="XMLID_172_" fill="none" stroke="#911212" stroke-linecap="round" stroke-linejoin="round" stroke-miterlimit="10" d="
		M31.5,17.7c3.4-3.9,5.2-7.8,5.7-13.3c0.5-5.5-0.5-27.4-0.5-27.4"/>
	<path id="XMLID_171_" fill="#2C2C2C" stroke="#171717" stroke-linecap="round" stroke-linejoin="round" stroke-miterlimit="10" d="
		M49.6-26.3c0,0.3,0,0.5,0,0.8h-5.6c0-0.3,0-0.5,0-0.8c0-1.7,0.1-3.4,0.4-5h5.7C49.8-29.7,49.6-28,49.6-26.3z"/>
	<path id="XMLID_170_" fill="#2C2C2C" stroke="#171717" stroke-linecap="round" stroke-linejoin="round" stroke-miterlimit="10" d="
		M96.3-23.9c-1.6-0.9-3.5-1.5-5.5-1.6c0-0.3,0-0.5,0-0.8c0-1.7-0.2-3.4-0.6-5H96c0.3,1.6,0.4,3.3,0.4,5
		C96.4-25.5,96.4-24.7,96.3-23.9z"/>
	<path id="XMLID_169_" fill="#2C2C2C" stroke="#171717" stroke-linecap="round" stroke-linejoin="round" stroke-miterlimit="10" d="
		M44.2-22.9c-0.1-0.9-0.2-1.7-0.2-2.6h5.6c0,0.9,0.1,1.8,0.2,2.6H44.2z"/>
	<path id="XMLID_168_" fill="#2C2C2C" stroke="#171717" stroke-linecap="round" stroke-linejoin="round" stroke-miterlimit="10" d="
		M-13.6,17c0-4-3.8-8.1-8.5-9.1s-8.5,1.5-8.5,5.5s3.8,8.1,8.5,9.1C-17.4,23.5-13.6,21.1-13.6,17z"/>
	<path id="XMLID_167_" fill="#2C2C2C" stroke="#171717" stroke-linecap="round" stroke-linejoin="round" stroke-miterlimit="10" d="
		M28.4,46.1c1-15.4,0.8-30.8,0.8-30.8c2.1-1,9.4-0.3,9.4-0.3c0,2.3-1.8,30.8-1.8,30.8L28.4,46.1z"/>
	<path id="XMLID_166_" fill="#C93D3D" stroke="#911212" stroke-linecap="round" stroke-linejoin="round" stroke-miterlimit="10" d="
		M16.4,8.6c0.8,0.3,13.3-0.3,13.3-0.3l-0.3-3.9L17.2,4.7L16.4,8.6z"/>
	<path id="XMLID_165_" fill="#C93D3D" stroke="#911212" stroke-linecap="round" stroke-linejoin="round" stroke-miterlimit="10" d="
		M87.1,8.6c0.3-2.4-1.2-4.4-3.4-4.4s-4.1,2-4.4,4.4s1.2,4.4,3.4,4.4S86.8,11,87.1,8.6z"/>

		<polygon id="XMLID_164_" fill="#2C2C2C" stroke="#171717" stroke-linecap="round" stroke-linejoin="round" stroke-miterlimit="10" points="
		89.4,16 96.9,15.5 81.6,45.6 	"/>
	<path id="XMLID_163_" fill="#2C2C2C" stroke="#171717" stroke-linecap="round" stroke-linejoin="round" stroke-miterlimit="10" d="
		M-49.1,15.6c5,9.1,26.6,28.1,31.3,31.2c5.5,3.4,58.4,13.8,96.7,2.1c7.6-5,7-6.8,7-6.8c-37.8,0.3-101.6,1.6-101.6,1.6
		c-9.6-6-25.5-28.4-25.5-28.4L-49.1,15.6z"/>
	<path id="XMLID_162_" fill="none" stroke="#FFFFFF" stroke-linecap="round" stroke-linejoin="round" stroke-miterlimit="10" d="
		M11.9,38.3c0,0-14.3-14.3-15.5-14.6"/>
	<path id="XMLID_161_" fill="none" stroke="#FFFFFF" stroke-linecap="round" stroke-linejoin="round" stroke-miterlimit="10" d="
		M20.6,38.3c0,0-7.7-8.1-9-8.4"/>
	<path id="XMLID_160_" fill="none" stroke="#FFFFFF" stroke-linecap="round" stroke-linejoin="round" stroke-miterlimit="10" d="
		M68.3,38.3c0,0-14.3-14.3-15.5-14.6"/>
	<path id="XMLID_159_" fill="none" stroke="#FFFFFF" stroke-linecap="round" stroke-linejoin="round" stroke-miterlimit="10" d="
		M77,38.3c0,0-7.7-8.1-9-8.4"/>
	<path id="XMLID_158_" fill="none" stroke="#911212" stroke-linecap="round" stroke-linejoin="round" stroke-miterlimit="10" d="
		M-49.6,16.2c-5-1.5-14.5-10.9-13-14.9"/>
	<path id="XMLID_157_" fill="#D85B30" stroke="#E5B548" stroke-miterlimit="10" d="M100.5-8.5L100.5-8.5c-1.7,0-3,1.3-3,3V3
		c0,1.7,1.3,3,3,3h0c1.7,0,3-1.3,3-3v-8.5C103.5-7.1,102.2-8.5,100.5-8.5z"/>
</symbol>
<symbol  id="leg" viewBox="-10 -19.5 20.1 39">
	<path id="XMLID_154_" fill="#F4B67D" stroke="#B25738" stroke-linecap="round" stroke-linejoin="round" stroke-miterlimit="10" d="
		M1.5,19c-5.7-3.3-6.7-5.4-5.8-13.3S-1.1-9.8-1.1-9.8c-2-2.6-12-7-5.6-8c6.4-1,13,5.9,13,5.9C3.3-3.7,0,6.2,9.5,14.4
		C6,18.7,1.5,19,1.5,19z"/>
	<path id="XMLID_153_" fill="#8B6DAF" stroke="#4A355E" stroke-linecap="round" stroke-linejoin="round" stroke-miterlimit="10" d="
		M-5.2-13c-1.1-1.2,0.6-3.2,4.3-1.2s6.7,4.1,6.7,4.1c0.6-1.5,1-2.9,1-2.9C4-15.5-3.7-21.1-8.7-18.2C-10.7-16.8-9-15.7-5.2-13z"/>
</symbol>
<g id="Layer_9">
	<linearGradient id="XMLID_82_" gradientUnits="userSpaceOnUse" x1="324" y1="-45.9997" x2="324" y2="157.3189">
		<stop  offset="0" style="stop-color:#99C8E0"/>
		<stop  offset="1" style="stop-color:#B7E3FF"/>
	</linearGradient>
	<rect id="XMLID_111_" x="0" y="-2.1" fill="url(#XMLID_82_)" width="648" height="432"/>
</g>
<g id="Layer_10">
	<rect id="XMLID_113_" x="0" y="352" fill="#474E51" width="648" height="80"/>
</g>
<g id="Layer_2">
	<polygon id="XMLID_13_" fill="#9683B2" points="600.4,57.9 600.4,14.6 540.1,14.6 540.1,150.6 531.3,150.6 531.3,36.6 486.4,36.6
		486.4,136.6 370.2,136.6 370.2,80.7 336.4,80.7 336.4,105.7 315.1,105.7 315.1,58.7 292.3,58.7 292.3,99.9 23.2,99.9 23.2,46.9
		0,46.9 0,308.7 23.2,308.7 23.2,280 292.3,280 292.3,326.3 306.3,326.3 306.3,335.9 336.4,335.9 336.4,350.6 370.2,350.6
		370.2,349.1 492.3,349.1 492.3,346.2 531.3,346.2 531.3,327.1 590.1,327.1 590.1,374.1 648,374.1 648,57.9 	"/>
</g>
<g id="Layer_3">

		<rect id="XMLID_37_" x="0.6" y="296.8" fill="#C9C0C3" stroke="#918A8D" stroke-linecap="round" stroke-linejoin="round" stroke-miterlimit="10" width="647.4" height="46.9"/>

		<rect id="XMLID_2_" x="16" y="127.2" fill="#EDB9E6" stroke="#AA61A3" stroke-linecap="round" stroke-linejoin="round" stroke-miterlimit="10" width="308.7" height="176.2"/>

		<rect id="XMLID_3_" x="407.7" y="89.6" fill="#E2D8BF" stroke="#91805A" stroke-linecap="round" stroke-linejoin="round" stroke-miterlimit="10" width="240.3" height="223.9"/>
	<path id="XMLID_4_" fill="#BF90BB" stroke="#AA61A3" stroke-linecap="round" stroke-linejoin="round" stroke-miterlimit="10" d="
		M325.1,127.2l19.5,12.5v161.1l-19.5,3.1C325.1,303.8,325.1,126.9,325.1,127.2z"/>
	<path id="XMLID_5_" fill="#BCA795" stroke="#876F5C" stroke-linecap="round" stroke-linejoin="round" stroke-miterlimit="10" d="
		M407.7,89.6L386,120.5v191.4l21.5,1.9C407.5,313.9,407.3,89.2,407.7,89.6z"/>

		<rect id="XMLID_6_" x="93.6" y="91.6" fill="#D3F0F2" stroke="#4AA0A0" stroke-linecap="round" stroke-linejoin="round" stroke-miterlimit="10" width="175.7" height="59.9"/>
	<path id="XMLID_7_" fill="#BC753B" stroke="#7C3914" stroke-linecap="round" stroke-linejoin="round" stroke-miterlimit="10" d="
		M106.7,158.4c0.4,3.9-1.8,4.2-3.9,2.5c0,0-8.1-13-33.4-58.6c8.4-3.9,31.2-8.1,31.2-8.1C106,122.6,106.7,158.4,106.7,158.4z"/>
	<path id="XMLID_10_" fill="#D88D55" stroke="#7C3914" stroke-linecap="round" stroke-linejoin="round" stroke-miterlimit="10" d="
		M85.9,110.3c-1.4,2.1-2.1,6-2.1,6l5.6,3.9l2.1-4.6L85.9,110.3z"/>

		<polygon id="XMLID_11_" fill="#D88D55" stroke="#7C3914" stroke-linecap="round" stroke-linejoin="round" stroke-miterlimit="10" points="
		96.1,117.7 91.9,123.3 96.5,126.5 99.3,122.3 	"/>
	<path id="XMLID_8_" fill="#FCF9E3" stroke="#897F4C" stroke-linecap="round" stroke-linejoin="round" stroke-miterlimit="10" d="
		M55.8,92.1c-5.3-2.5-6.3,5.3-2.8,7.7c-6.3,0.7-3.2,9.5,3.2,7.7c4.9,4.2,11.6-1.1,11.6-1.1c7.7,5.6,9.1-2.8,9.1-2.8
		c10.5,3.9,11.6-0.4,11.6-0.4c3.2,1.4,7.7-3.5,7.7-3.5c7,3.5,7.7-2.5,7.7-2.5c4.6,3.2,8.1-4.2,8.1-4.2c3.5,1.8,6.7-6.7,2.1-7.4
		c0-7.7-7.4-4.2-7.4-4.2C113.7,39,33.6,49.2,55.8,92.1z"/>
	<path id="XMLID_9_" fill="#FCF9E3" stroke="#897F4C" stroke-linecap="round" stroke-linejoin="round" stroke-miterlimit="10" d="
		M64.2,94.2c13.7,2.1,28.4-3.2,36.5-8.1"/>

		<rect id="XMLID_16_" x="207.4" y="184.1" fill="#747F7F" stroke="#AABAB9" stroke-linecap="round" stroke-linejoin="round" stroke-miterlimit="10" width="72.7" height="121.1"/>

		<rect id="XMLID_19_" x="45.6" y="199.5" fill="#765F8E" stroke="#912F7E" stroke-linecap="round" stroke-linejoin="round" stroke-miterlimit="10" width="149.9" height="75.8"/>

		<polygon id="XMLID_114_" fill="#B74E99" stroke="#AF3E89" stroke-linecap="round" stroke-linejoin="round" stroke-miterlimit="10" points="
		308.1,167.4 308.1,213 286.7,213 285,184.3 	"/>

		<rect id="XMLID_17_" x="215.6" y="184.1" fill="#CAEFEF" stroke="#1A5B59" stroke-linecap="round" stroke-linejoin="round" stroke-miterlimit="10" width="56.3" height="121.1"/>

		<rect id="XMLID_20_" x="50.4" y="199.5" fill="#CAEFEF" stroke="#1A5B59" stroke-linecap="round" stroke-linejoin="round" stroke-miterlimit="10" width="145.1" height="72.2"/>

		<ellipse id="XMLID_18_" fill="#747F7F" stroke="#AABAB9" stroke-linecap="round" stroke-linejoin="round" stroke-miterlimit="10" cx="262.4" cy="255.3" rx="1.6" ry="10"/>

		<polygon id="XMLID_12_" fill="#D88D55" stroke="#7C3914" stroke-linecap="round" stroke-linejoin="round" stroke-miterlimit="10" points="
		89.1,127.5 89.1,131.9 93.7,134.6 95.1,129.7 	"/>
	<path id="XMLID_14_" fill="#EA86C9" stroke="#BC509D" stroke-linecap="round" stroke-linejoin="round" stroke-miterlimit="10" d="
		M67,165.8l-38.2,30.9h259.4l20.6-31.2C308.7,165.4,65.8,165.8,67,165.8z"/>
	<path id="XMLID_15_" fill="#D656A5" stroke="#AF3E89" stroke-linecap="round" stroke-linejoin="round" stroke-miterlimit="10" d="
		M28.4,196.7c0,2.5-0.7,22.1,12.5,20.7c12.2-0.7,10.9-13.3,10.9-13.3c1.6,16.2,16.1,12.6,16.1,12.6c5.6-1.4,9.9-7,10.2-11.2
		c4.9,15.8,23.7,19,28.9-0.4c2.3,20.4,25.3,14.7,25-0.4c0.7,22.8,25.3,14.7,25,1.4c0.3,20.4,24.3,17.2,24,1.4
		c1,17.9,28.6,14.4,28.3-1.4c-1.3,17.9,29.3,18.3,29.6,1.4c3.3,19,28.3,16.9,29.6,0c5.9,20,19.4,8.1,20.1,4.9
		c0.3-11-0.7-18.6,0-15.8H28.4z"/>

		<line id="XMLID_22_" fill="none" stroke="#FFFFFF" stroke-linecap="round" stroke-linejoin="round" stroke-miterlimit="10" x1="167.1" y1="224.8" x2="141.4" y2="246.6"/>

		<rect id="XMLID_24_" x="424.4" y="115.6" fill="#75695E" stroke="#494244" stroke-linecap="round" stroke-linejoin="round" stroke-miterlimit="10" width="94.1" height="66.7"/>

		<rect id="XMLID_21_" x="430.1" y="119.5" fill="#CAEFEF" stroke="#1A5B59" stroke-linecap="round" stroke-linejoin="round" stroke-miterlimit="10" width="82.9" height="56.2"/>

		<rect id="XMLID_26_" x="542.1" y="115.6" fill="#75695E" stroke="#494244" stroke-linecap="round" stroke-linejoin="round" stroke-miterlimit="10" width="94.1" height="66.7"/>

		<rect id="XMLID_27_" x="547.7" y="119.5" fill="#CAEFEF" stroke="#1A5B59" stroke-linecap="round" stroke-linejoin="round" stroke-miterlimit="10" width="82.9" height="56.2"/>

		<line id="XMLID_23_" fill="none" stroke="#FFFFFF" stroke-linecap="round" stroke-linejoin="round" stroke-miterlimit="10" x1="174.4" y1="235.3" x2="161.1" y2="246.6"/>

		<line id="XMLID_31_" fill="none" stroke="#FFFFFF" stroke-linecap="round" stroke-linejoin="round" stroke-miterlimit="10" x1="490.4" y1="128.9" x2="464.8" y2="150.7"/>

		<line id="XMLID_30_" fill="none" stroke="#FFFFFF" stroke-linecap="round" stroke-linejoin="round" stroke-miterlimit="10" x1="497.8" y1="139.5" x2="484.5" y2="150.7"/>

		<line id="XMLID_33_" fill="none" stroke="#FFFFFF" stroke-linecap="round" stroke-linejoin="round" stroke-miterlimit="10" x1="611.9" y1="127.2" x2="586.3" y2="148.9"/>

		<line id="XMLID_32_" fill="none" stroke="#FFFFFF" stroke-linecap="round" stroke-linejoin="round" stroke-miterlimit="10" x1="619.3" y1="137.7" x2="606" y2="148.9"/>

		<rect id="XMLID_25_" x="557.9" y="194.2" fill="#75695E" stroke="#494244" stroke-linecap="round" stroke-linejoin="round" stroke-miterlimit="10" width="76.5" height="120.9"/>

		<rect id="XMLID_28_" x="564.9" y="200" fill="#8E8075" stroke="#706055" stroke-linecap="round" stroke-linejoin="round" stroke-miterlimit="10" width="62.5" height="109.4"/>

		<rect id="XMLID_29_" x="0.6" y="356.7" fill="none" stroke="#231F20" stroke-linecap="round" stroke-linejoin="round" stroke-miterlimit="10" width="647.4" height="75.3"/>

		<rect id="XMLID_34_" x="0.6" y="344.9" fill="#756C6F" stroke="#494244" stroke-linecap="round" stroke-linejoin="round" stroke-miterlimit="10" width="647.4" height="11.7"/>

		<rect id="XMLID_35_" x="0.6" y="338.1" fill="#ADA3A7" stroke="#685F62" stroke-linecap="round" stroke-linejoin="round" stroke-miterlimit="10" width="647.4" height="6.8"/>

		<polyline id="XMLID_36_" fill="none" stroke="#494244" stroke-linecap="round" stroke-linejoin="round" stroke-miterlimit="10" points="
		36.3,356.4 36.3,345.1 85.3,306.4 	"/>

		<polyline id="XMLID_38_" fill="none" stroke="#494244" stroke-linecap="round" stroke-linejoin="round" stroke-miterlimit="10" points="
		282.9,304.4 289.4,338.2 290.1,344.7 290.1,356.8 	"/>
	<rect id="XMLID_92_" x="367.7" y="315.8" fill="#2C2C2C" stroke="#848484" stroke-miterlimit="10" width="26.7" height="42.5"/>
</g>
<g id="Layer_5">
	<path id="XMLID_43_" fill="#AA7D48" stroke="#89571B" stroke-linecap="round" stroke-linejoin="round" stroke-miterlimit="10" d="
		M47.9,306.3c-0.3,5.6,0.7,15.2,0.7,15.2c2,0.8,3.8,0,3.8,0l-0.7-15.1L47.9,306.3z"/>
	<path id="XMLID_48_" fill="#AA7D48" stroke="#89571B" stroke-linecap="round" stroke-linejoin="round" stroke-miterlimit="10" d="
		M149.8,278.8c-0.3,5.6,0.7,15.2,0.7,15.2c2,0.8,3.8,0,3.8,0l-0.7-15.1L149.8,278.8z"/>
	<path id="XMLID_39_" fill="#CEA66E" stroke="#89571B" stroke-linecap="round" stroke-linejoin="round" stroke-miterlimit="10" d="
		M48.3,291.1L39,301.5h130.9l-6.3-10.7C163.7,290.9,48.3,291.6,48.3,291.1z"/>
	<path id="XMLID_40_" fill="#CEA66E" stroke="#89571B" stroke-linecap="round" stroke-linejoin="round" stroke-miterlimit="10" d="
		M48.1,268.3c0.5,0.7-0.3,19.4-0.3,19.4l116.1-0.2l4.4-18.5L48.1,268.3z"/>
	<path id="XMLID_42_" fill="#AA7D48" stroke="#89571B" stroke-linecap="round" stroke-linejoin="round" stroke-miterlimit="10" d="
		M168.3,268.9l2.3,3.2l-3.2,13.9c-1.2,0.5-3.7,1.6-3.5,1.4C164.1,287.2,168.3,268.9,168.3,268.9z"/>
	<path id="XMLID_41_" fill="#AA7D48" stroke="#89571B" stroke-linecap="round" stroke-linejoin="round" stroke-miterlimit="10" d="
		M39,301.5l2.5,6.7h125.6l2.8-6.7C169.9,301.5,39,301.3,39,301.5z"/>
	<path id="XMLID_45_" fill="none" stroke="#231F20" stroke-linecap="round" stroke-linejoin="round" stroke-miterlimit="10" d="
		M56.7,301.4c-0.3,5.6,0.7,15.2,0.7,15.2c2,0.8,3.8,0,3.8,0l-0.7-15.1L56.7,301.4z"/>
	<path id="XMLID_47_" fill="none" stroke="#231F20" stroke-linecap="round" stroke-linejoin="round" stroke-miterlimit="10" d="
		M160.8,305.9c-0.3,5.6,0.7,15.2,0.7,15.2c2,0.8,3.8,0,3.8,0l-0.7-15.1L160.8,305.9z"/>
</g>
<g id="Layer_6">
	<path id="XMLID_63_" fill="#F4F1E4" stroke="#89846D" stroke-linecap="round" stroke-linejoin="round" stroke-miterlimit="10" d="
		M56.7,324.5c-0.8,1.9-10.8,6.2-9.6,8.1c1.2,1.9,12.6-0.6,15.7-4.8c-0.2-4-0.4-3.6-0.4-3.6L56.7,324.5z"/>
	<path id="XMLID_65_" fill="#F4F1E4" stroke="#89846D" stroke-linecap="round" stroke-linejoin="round" stroke-miterlimit="10" d="
		M80.5,325c0,3-0.4,5-0.2,5c4.7,3.4,9.6,6.2,12,4.3c2.4-2-6.8-5.2-6.8-9.7C84.2,322,80.4,324.8,80.5,325z"/>
	<path id="XMLID_64_" fill="#ADA47F" stroke="#726A47" stroke-linecap="round" stroke-linejoin="round" stroke-miterlimit="10" d="
		M63.5,291.9c-2.5,3.1-8.5,7.6-9.2,10.5s-0.7,20.4,1.2,23.7c4.4,2.2,7.7-0.5,7.7-0.5c-1.2-12.2-2-16.7-1.5-18.6
		c0.5-1.9,7.2-7.9,7.2-7.9c1.6-0.2,6,0.4,6,0.4c1.6,1.6,7.5,4.4,5.1,27.9c4.6,1.2,5.8-0.4,5.8-0.4c1.2-6.7,2.9-14,1-18.7
		s-7.1-16.3-7.1-16.3C78.2,291,63.5,291.8,63.5,291.9z"/>
	<path id="XMLID_62_" fill="#D38F62" stroke="#723E2B" stroke-linecap="round" stroke-linejoin="round" stroke-miterlimit="10" d="
		M85.2,288c0.6,2.1,0.3,7.1,0.3,7.1c-1.4,1.8-3,5.2-0.8,4.2s3.3-2.1,3.3-2.1c2.4,1.9,6.4,4.5,8.2,3.3c1.8-1.2-3.4-5.3-5.6-6.5
		c-2.1-1.2-2-6.5-2-6.5L85.2,288z"/>
	<path id="XMLID_56_" fill="#68996B" stroke="#407241" stroke-linecap="round" stroke-linejoin="round" stroke-miterlimit="10" d="
		M70.3,261.4c-7,1.6-11.5,4-14.7,12.2c-3.3,9,5.4,9.3,5.4,9.3c-0.1,1.9,0.2,9.9,0.2,9.9c10.8,4.2,20,0.7,20,0.7
		c0.1-5.3-1.4-17.4-1.4-17.4c3.9,4.4,4.4,14.7,4.4,14.7c3.5,1.3,6.2-0.6,6.2-0.6C87.8,271.2,81.3,260.4,70.3,261.4z"/>
	<path id="XMLID_59_" fill="#BC753B" stroke="#7C3914" stroke-linecap="round" stroke-linejoin="round" stroke-miterlimit="10" d="
		M75.5,272.8l2.1,13.9l3.9-14.4C79.8,269.3,75.5,272.8,75.5,272.8z"/>
	<path id="XMLID_60_" fill="#F3E4F7" stroke="#6A4E96" stroke-linecap="round" stroke-linejoin="round" stroke-miterlimit="10" d="
		M72.8,269c-1.1-0.3-1.8,2.1,0.2,2.1c-2,1.3,1.1,4.4,3.3,2.4c1.3,2.9,4.6,1.2,3.8-0.4c3,2.5,5.3,1.2,4.4-0.7c1.6-1,2.1-2.5,0.6-3.3
		C87.8,262.4,72.8,259.1,72.8,269z"/>
	<path id="XMLID_57_" fill="#D38F62" stroke="#723E2B" stroke-linecap="round" stroke-linejoin="round" stroke-miterlimit="10" d="
		M68.7,280.4c4.7-1.8,6-3.1,7.5-4.1s5.8-2.9,6.4,0.5s-2.1,5.3-2.3,5.4c-1.3-0.1-3.7-1-3.7-1c-1.6,1.1-6.1,3-6.1,3
		S68.7,280.6,68.7,280.4z"/>
	<path id="XMLID_50_" fill="#D38F62" stroke="#723E2B" stroke-linecap="round" stroke-linejoin="round" stroke-miterlimit="10" d="
		M68.8,262.8c0.2-0.5,0.3-5.1,0.3-5.1s5.2,0.5,5.1,0.7c-0.1,0.2-0.2,6.6-0.2,6.6S71.5,267.7,68.8,262.8z"/>
	<path id="XMLID_58_" fill="#68996B" stroke="#407241" stroke-linecap="round" stroke-linejoin="round" stroke-miterlimit="10" d="
		M63.5,269.8c-1,3-1.6,11.6,6.6,8.8c2.6,3.1,1.3,6.5,1.3,6.5c-5.8,2.4-18.7,3.4-16.7-8.1"/>
	<path id="XMLID_44_" fill="#D38F62" stroke="#723E2B" stroke-linecap="round" stroke-linejoin="round" stroke-miterlimit="10" d="
		M82.4,248.9c0.9,6.5-2.2,10.8-6.1,11.6c-5.6,1.2-11.2-3.5-12.1-10c-0.9-6.5,2.9-12.3,8.6-13.1C78.4,236.6,81.6,242.4,82.4,248.9z"
		/>
	<path id="XMLID_49_" fill="#D38F62" stroke="#723E2B" stroke-linecap="round" stroke-linejoin="round" stroke-miterlimit="10" d="
		M66,248.4c-2.8-2.6-6.6-0.4-4.1,3.8c2.4,4,4.3,1.7,4.6,1.2"/>
	<path id="XMLID_51_" fill="#D38F62" stroke="#723E2B" stroke-linecap="round" stroke-linejoin="round" stroke-miterlimit="10" d="
		M76.5,249c1.3,1.3,1.6,2.1,1.2,3"/>
	<path id="XMLID_52_" fill="none" stroke="#231F20" stroke-linecap="round" stroke-linejoin="round" stroke-miterlimit="10" d="
		M73,254.5c2,1.3,4.4,1.3,5.3,0.2"/>
	<path id="XMLID_53_" fill="none" stroke="#231F20" stroke-linecap="round" stroke-linejoin="round" stroke-miterlimit="10" d="
		M71.9,247.2c0.4,1.2,0.4,3,0.4,3"/>
	<path id="XMLID_54_" fill="none" stroke="#231F20" stroke-linecap="round" stroke-linejoin="round" stroke-miterlimit="10" d="
		M77.6,246c0.4,1.2,0.4,3,0.4,3"/>
	<path id="XMLID_55_" fill="#84502C" stroke="#512F18" stroke-linecap="round" stroke-linejoin="round" stroke-miterlimit="10" d="
		M62.2,247.3c-0.5-1.5-1.2-9-0.7-9.1c1.6,1.4,2.1,2.1,2.1,2.1c-0.4-2.9,2.1-6.8,3-6.8c0.1,1.6,0.2,2.1,0.2,2.1l5.6-4.4
		c0.8,1.1-0.5,2.6-0.5,2.6c1.2-1.5,9.8-0.9,9.8-0.9c-1.5,1.2-2.8,2.1-2.8,2.1c2.5-0.2,6.4,1.9,6.4,1.9c-0.3,0.1-3.6,1.6-3.6,1.6
		c0.9,0.2,3.9,1.6,3.9,1.6c-0.6,0.2-4.8,1.4-4.8,1.4s-3.9-4.1-4.2-3.9c-0.2,0.2-0.7,2.8-0.9,2.5c-0.2-0.2-4.5-1.9-4.8-1.9
		s-2.9,4.6-2.9,4.6l-1.5,3.3c0,0,1.2,3.5,1.1,3.2c-0.1-0.2-1.9-1.7-1.9-1.7L62.2,247.3z"/>
	<path id="XMLID_61_" fill="none" stroke="#231F20" stroke-linecap="round" stroke-linejoin="round" stroke-miterlimit="10" d="
		M62.2,289.7"/>
</g>
<g id="Layer_4">

		<use xlink:href="#leg"  width="20.1" height="39" id="XMLID_78_" x="-10" y="-19.5" transform="matrix(0.9875 0 0 -0.9875 120.5158 313.9856)" overflow="visible"/>

		<use xlink:href="#leg"  width="20.1" height="39" id="XMLID_83_" x="-10" y="-19.5" transform="matrix(0.9875 0 0 -0.9875 129.4198 316.1573)" overflow="visible"/>
	<path id="XMLID_86_" fill="#F4B67D" stroke="#B25738" stroke-linecap="round" stroke-linejoin="round" stroke-miterlimit="10" d="
		M145.6,266.1c3.5,2.8,8.5,5.2,12.4-0.2c1.6-2.8,10.1-7.3,4.3-1.2c4.5,2.5,6.6,6.3,3,6.1c-3.5-0.2-4.5-1.7-4.5-2
		c-6,6.3-15.1,7-18.6,0.9C142.4,265.7,145.6,266.1,145.6,266.1z"/>
	<path id="XMLID_75_" fill="#D656A5" stroke="#AF3E89" stroke-linecap="round" stroke-linejoin="round" stroke-miterlimit="10" d="
		M127.3,288.2c-7.5,4.1-10.6,11.3-10.6,11.3c11.4-0.9,18.5,0.5,21.4,2.8c4.3-2.5,7.3-4.9,4.3-13
		C127.8,287.3,127.3,288.2,127.3,288.2z"/>
	<path id="XMLID_84_" fill="#F4B67D" stroke="#B25738" stroke-linecap="round" stroke-linejoin="round" stroke-miterlimit="10" d="
		M122.7,264.8c-1.3,4.5-4.5,7.6-7.1,7.7c-2.6,0.2-5.3-4.2-5.3-4.2c-1.3,2.1-1.3,3.7-1.3,3.7c3.9,4.2,9.8,5.8,12.6,4
		c2.7-1.8,6.4-6.9,6.4-6.9L122.7,264.8z"/>
	<path id="XMLID_74_" fill="#E6FCFF" stroke="#7E9799" stroke-linecap="round" stroke-linejoin="round" stroke-miterlimit="10" d="
		M148.2,267.1c0.3,2.1-2.8,4.6-4.5,5.4c0,0-0.5-0.5-2.2-2.8c-1.3,4.9,0.1,11,2,20.4c-1.4,2.4-10.9,3.3-18.5-0.6c0,0,0.4-2.7,1.4-5.6
		s1.4-6.7,1.2-10c-0.9-1.5-1.7-3.9-1.7-3.9s-2.5,0.1-5.6-3.8c3.2-7.7,9.3-8.6,12.3-9.4C137.9,256.3,141.2,257,148.2,267.1z"/>
	<path id="XMLID_76_" fill="#E6FCFF" stroke="#7E9799" stroke-linecap="round" stroke-linejoin="round" stroke-miterlimit="10" d="
		M139.6,266.5c1.2,1.7,1.9,3.3,1.9,3.3"/>
	<path id="XMLID_67_" fill="#F4B67D" stroke="#B25738" stroke-linecap="round" stroke-linejoin="round" stroke-miterlimit="10" d="
		M131.1,256c-0.4,1.4-0.8,4.4-0.8,4.4c1.5,1,4,1.1,4.6,0.1c0.5-1-0.7-5.6-0.7-5.6L131.1,256z"/>
	<path id="XMLID_77_" fill="#E6FCFF" stroke="#7E9799" stroke-linecap="round" stroke-linejoin="round" stroke-miterlimit="10" d="
		M127.1,265.8c-0.8,1.4-1.4,3.8-1.3,4.3"/>
	<path id="XMLID_85_" fill="#BC753B" stroke="#7C3914" stroke-linecap="round" stroke-linejoin="round" stroke-miterlimit="10" d="
		M115.8,264.1c-2.6,2.9-7.9,8.2-8,8.3c-0.3-1.3,2.7-11.4,2.7-11.4C110.7,261.1,115.8,264.1,115.8,264.1z"/>
	<path id="XMLID_80_" fill="#6D3518" stroke="#9B6632" stroke-linecap="round" stroke-linejoin="round" stroke-miterlimit="10" d="
		M119.1,263.2c0.8,0.4-1.2,2-1.8,1.7c0.3,0.7-1.4,2.6-2.5,1c-1.5-0.2-3.4-0.3-2.9-1.5c-2.1,0-3.7-1.1-3.2-1.9
		c-0.3-1.2-0.5-3,1.1-2.5C108.3,250.2,123.5,258.5,119.1,263.2z"/>
	<path id="XMLID_88_" fill="#F4B67D" stroke="#B25738" stroke-linecap="round" stroke-linejoin="round" stroke-miterlimit="10" d="
		M106.7,267.9c0.2-3.1,1.1-4.8,2.7-3.5c1.6,1.2,3.3,4.2,2.2,5.3C110.5,270.7,106.3,274.3,106.7,267.9z"/>
	<path id="XMLID_73_" fill="#B2510F" stroke="#BC450F" stroke-linecap="round" stroke-linejoin="round" stroke-miterlimit="10" d="
		M123.6,245.1c-1.5,3.3-6.2,7.7-6.2,7.7c2.2,0.2,4.2-0.5,4.2-0.5c-1.6,1.5-2.6,2.1-2.6,2.1c2,0.1,4.4-0.3,4.4-0.3
		c-0.6,0.9-1.2,1.8-1.2,1.8c1.4,0.3,5.8,0.1,7.2-1.3C130.7,253.2,123.6,245.1,123.6,245.1z"/>
	<path id="XMLID_66_" fill="#F4B67D" stroke="#B25738" stroke-linecap="round" stroke-linejoin="round" stroke-miterlimit="10" d="
		M140.1,247.1c0,5.5-5.7,10.3-9,10c-2.9-0.3-9-4.5-9-10c0-5.5,4-10,9-10C136.1,237.1,140.1,241.6,140.1,247.1z"/>
	<path id="XMLID_68_" fill="none" stroke="#231F20" stroke-linecap="round" stroke-linejoin="round" stroke-miterlimit="10" d="
		M133,244.9c-0.2,0.8-0.1,2.3-0.1,2.3"/>
	<path id="XMLID_69_" fill="none" stroke="#231F20" stroke-linecap="round" stroke-linejoin="round" stroke-miterlimit="10" d="
		M126.7,245c-0.2,0.8-0.1,2.3-0.1,2.3"/>
	<path id="XMLID_70_" fill="none" stroke="#231F20" stroke-linecap="round" stroke-linejoin="round" stroke-miterlimit="10" d="
		M128.4,249.5c0.2,0.6,1,0.7,1,0.7"/>
	<path id="XMLID_71_" fill="none" stroke="#231F20" stroke-linecap="round" stroke-linejoin="round" stroke-miterlimit="10" d="
		M128.3,252.7c1.7,1.2,3.9,0.5,4.9-0.8"/>
	<path id="XMLID_72_" fill="#D86D25" stroke="#BC450F" stroke-linecap="round" stroke-linejoin="round" stroke-miterlimit="10" d="
		M135.5,239.4c-0.4,1.4-5.4,3.8-5.4,3.8c0.5-1.3,1.2-3.1,1.2-3.1c-2.3,1.3-5.9,3.3-5.9,3.3c0.9-1,1.8-3.3,1.8-3.3
		c-2.4,3.3-7.5,5.4-7.5,5.4c2.1-9.6,10-14.8,18.6-9.9c5.3,0.2,5.4,9.7,11.1,10.3c-1.8,1.6-3,1.5-3,1.5c2.6,1.3,5.1,1.3,5.1,1.3
		c-4.3,4.6-8.5,3.5-8.5,3.5c2.9,2.5,3.4,3.4,3.4,3.4c-4.6,1-9.3-1.6-9.3-1.6c2.1-2.5,1.7-8.6,1.7-8.6c-0.9,2.3-2.5,3-2.5,3
		C136.9,247.5,135.5,239.3,135.5,239.4z"/>
</g>
<g id="Layer_7">
	<path id="XMLID_101_" fill="#CAEFEF" stroke="#1A5B59" stroke-linecap="round" stroke-linejoin="round" stroke-miterlimit="10" d="
		M305,284.9V318c17-6.7,38.3-15,38.3-15l0.3-24l-33.1,0.3C307.5,279.3,305,281.8,305,284.9z"/>
	<rect id="XMLID_103_" x="555.9" y="343.8" fill="#111111" width="49.9" height="34.4"/>

		<rect id="XMLID_87_" x="377" y="236.7" fill="#F7EEE8" stroke="#75665E" stroke-linecap="round" stroke-linejoin="round" stroke-miterlimit="10" width="152.3" height="111"/>
	<rect id="XMLID_97_" x="315.9" y="333" fill="#111111" width="49.9" height="34.4"/>
	<path id="XMLID_151_" fill="#7ABF6A" stroke="#3E772D" stroke-linecap="round" stroke-linejoin="round" stroke-miterlimit="10" d="
		M347.5,339.4c7.8,0,15,3,20.5,7.8v-72.2c0-3.7-3-6.8-6.8-6.8h-44.3c-3.4,0-6.2,2.5-6.7,5.7c-6.1,7.3-8.8,17.5-9.8,32.4
		c-4,2.7-7.5,5.1-7.8,5.5c-0.5,20.9,0.9,38.6,1.4,44.7h25.6C325,346.4,335.5,339.4,347.5,339.4z M310.2,300.3
		c-1.4,0.8-3.1,1.9-5,3.1c-0.3-6.9,1.5-16.2,5-23.3V300.3z"/>

		<polygon id="XMLID_89_" fill="#423E3D" stroke="#2D2B2A" stroke-linecap="round" stroke-linejoin="round" stroke-miterlimit="10" points="
		521.8,347.7 384.6,347.7 390,356.7 521.8,356.7 	"/>
	<path id="XMLID_94_" fill="#CAEFEF" stroke="#1A5B59" stroke-linecap="round" stroke-linejoin="round" stroke-miterlimit="10" d="
		M314,280.6v33.1c17-6.7,38.3-15,38.3-15l0.3-24l-33.1,0.3C316.5,275,314,277.5,314,280.6z"/>
	<path id="XMLID_93_" fill="#747F7F" stroke="#AABAB9" stroke-linecap="round" stroke-linejoin="round" stroke-miterlimit="10" d="
		M313,332h-5.3c-1.6,0-3-1.4-3-3v-18.7c0-1.7,1.4-3,3-3h5.3c1.6,0,3,1.3,3,3V329C316,330.6,314.6,332,313,332z"/>
	<path id="XMLID_105_" fill="#EFE9CE" stroke="#938664" stroke-linecap="round" stroke-linejoin="round" stroke-miterlimit="10" d="
		M297,347.4L297,347.4c-2.3,0-4.1-1.9-4.1-4.1v-8c0-2.3,1.9-4.1,4.1-4.1h0c2.3,0,4.1,1.9,4.1,4.1v8
		C301.2,345.5,299.3,347.4,297,347.4z"/>

		<line id="XMLID_99_" fill="#3D8E2D" stroke="#1D560F" stroke-linecap="round" stroke-linejoin="round" stroke-miterlimit="10" x1="352.3" y1="298.7" x2="352.3" y2="339.7"/>
	<ellipse id="XMLID_96_" fill="#2C2C2C" stroke="#161616" stroke-miterlimit="10" cx="347.5" cy="372.3" rx="21.2" ry="22"/>

		<ellipse id="XMLID_100_" fill="#84807E" stroke="#63605E" stroke-linecap="round" stroke-linejoin="round" stroke-miterlimit="10" cx="347.5" cy="372.3" rx="13.1" ry="13.7"/>

		<rect id="XMLID_104_" x="342" y="307.5" fill="#7ABF6A" stroke="#3E772D" stroke-linecap="round" stroke-linejoin="round" stroke-miterlimit="10" width="10.2" height="20.3"/>
	<ellipse id="XMLID_110_" fill="#2C2C2C" stroke="#161616" stroke-miterlimit="10" cx="479.5" cy="372.3" rx="21.2" ry="22"/>

		<ellipse id="XMLID_109_" fill="#84807E" stroke="#63605E" stroke-linecap="round" stroke-linejoin="round" stroke-miterlimit="10" cx="479.5" cy="372.3" rx="13.1" ry="13.7"/>
	<path id="XMLID_112_" fill="none" d="M305.2,303.4c1.8-1.2,3.6-2.3,5-3.1v-20.2C306.7,287.2,304.9,296.5,305.2,303.4z"/>
	<path id="XMLID_155_" fill="#5B5655" stroke="#444241" stroke-linecap="round" stroke-linejoin="round" stroke-miterlimit="10" d="
		M375.3,356.7c2.1,4,3.4,8.5,3.7,13.3H448c0.3-4.8,1.6-9.3,3.7-13.3H375.3z"/>
	<path id="XMLID_175_" fill="#5B5655" stroke="#444241" stroke-linecap="round" stroke-linejoin="round" stroke-miterlimit="10" d="
		M521.8,359.7h-14.4c2.1,2.2,3.4,4.7,3.7,7.3h10.7V359.7z"/>
	<path id="XMLID_95_" fill="#5B5655" stroke="#444241" stroke-linecap="round" stroke-linejoin="round" stroke-miterlimit="10" d="
		M347.5,339.4c-12,0-22.5,7-27.8,17.2h-25.6h-1.4l1.7,7.3c0.8,3.5,3.9,6,7.5,6h14.1h6.9c0.1-1.1,0.3-2.2,0.5-3.3
		c0.8-3.7,2.4-7.1,4.5-10c4.5-6.1,11.7-10.1,19.7-10.1s15.2,4,19.7,10.1h0.8v-9.4C362.5,342.4,355.3,339.4,347.5,339.4z"/>
	<path id="XMLID_181_" fill="#5B5655" stroke="#444241" stroke-linecap="round" stroke-linejoin="round" stroke-miterlimit="10" d="
		M368,357.9v-1.2h-0.8C367.5,357.1,367.7,357.5,368,357.9z"/>
	<path id="XMLID_188_" fill="#5B5655" stroke="#444241" stroke-linecap="round" stroke-linejoin="round" stroke-miterlimit="10" d="
		M459.8,356.7h-8.2c-2.1,4-3.4,8.5-3.7,13.3h6.9C455.3,365,457.1,360.4,459.8,356.7z"/>
	<path id="XMLID_189_" fill="#5B5655" stroke="#444241" stroke-linecap="round" stroke-linejoin="round" stroke-miterlimit="10" d="
		M499.2,356.7c2.8,3.8,4.6,8.3,5,13.3h6.9c-0.3-4.8-1.6-9.3-3.7-13.3H499.2z"/>
	<path id="XMLID_91_" fill="#A09897" stroke="#5E5858" stroke-linecap="round" stroke-linejoin="round" stroke-miterlimit="10" d="
		M441.3,354.3H420c-1.6,0-3,1.3-3,3V368c0,1.6,1.4,3,3,3h21.3c1.6,0,3-1.4,3-3v-10.7C444.3,355.7,443,354.3,441.3,354.3z"/>
	<path id="XMLID_90_" fill="#A09897" stroke="#5E5858" stroke-linecap="round" stroke-linejoin="round" stroke-miterlimit="10" d="
		M415.9,378.3H400c-2.8,0-5-2.2-5-5v-16c0-2.8,2.2-5,5-5h15.9c2.8,0,5,2.2,5,5v16C420.9,376.1,418.7,378.3,415.9,378.3z"/>

		<line id="XMLID_106_" fill="none" stroke="#FFFFFF" stroke-linecap="round" stroke-linejoin="round" stroke-miterlimit="10" x1="338.2" y1="280.4" x2="323.9" y2="296.8"/>

		<line id="XMLID_107_" fill="none" stroke="#FFFFFF" stroke-linecap="round" stroke-linejoin="round" stroke-miterlimit="10" x1="342.5" y1="284.1" x2="334.8" y2="292.8"/>
	<g id="XMLID_46_">
		<path id="XMLID_116_" fill="#7F5878" d="M126.1,123.3c-3.1,1-7.7,1.9-7.7,1.9c-0.9-6.2-1.4-9.8-2.4-17.8c3.4-0.5,8-0.7,8-0.7
			C124.8,111.9,125.5,117.6,126.1,123.3z"/>
		<path id="XMLID_130_" fill="#7F5878" d="M137.3,122.1c-5.7,0.7-10.5-1.8-11.2-7.6c-0.7-5.8,4.1-9.7,9.3-10.3
			c4.9-0.6,8.7,1,10.8,4.6c-4,1.5-8,3.4-8,3.4c-1.2-2.3-4.5-1.4-4.2,1.3c0.3,2.5,3.5,2.5,4.6,0.4c3.7,0.1,8.4,1.3,8.4,1.3
			C146.4,118.4,142.8,121.4,137.3,122.1z"/>
		<path id="XMLID_132_" fill="#7F5878" d="M149,120.6c-0.7-4.4-1.8-11.1-2.7-17.3c5.7-1.3,10.3-1.9,15.6-2.7c0,0,0.4,3.8,0.6,6.6
			c0,0-5.1,0.4-8.3,0.5c0.1,0.5,0.1,1,0.2,1.4c0,0,2.3-0.2,4-0.3c0,0,0.3,1.4,0.6,2.8c-1.6,0.6-3.1,1-4,1.4c0,0,0.1,0.7,0.2,1.1
			c0,0,4-0.9,8.1-1.9c0,0,0.9,2.9,1.6,6C159.3,119,153.4,120,149,120.6z"/>
	</g>
	<g id="XMLID_108_">
		<path id="XMLID_117_" fill="#7F5878" d="M158.9,141c-5.7-0.2-10.1-3.4-10-9.2c0.1-5.9,5.5-9,10.8-8.8c5,0.2,8.4,2.3,10,6.2
			c-4.2,0.8-8.4,2.1-8.4,2.1c-0.9-2.5-4.3-2-4.3,0.7c0,2.5,3.1,3,4.5,1.1c3.7,0.7,8.1,2.5,8.1,2.5
			C168.5,138.7,164.6,141.2,158.9,141z"/>
		<path id="XMLID_119_" fill="#7F5878" d="M181.4,141.8c-1.5-1.8-3-4.1-3.7-5.1c0.1,2.2,0.2,4.9,0.2,4.9c-3.7-0.2-7.3-0.4-7.3-0.4
			c-0.1-5.2,0-11.8,0.1-17.3c4.6-1.4,16.3-2.9,16.9,4.9c0.1,1.5-0.6,3.8-2.9,5.6c2,2.3,3.9,4.8,3.9,4.8
			C184.6,140.5,181.4,141.8,181.4,141.8z M177.5,129c0,0.9,0.1,1.8,0.1,2.7C181.7,131.6,181.7,128.4,177.5,129z"/>
		<path id="XMLID_122_" fill="#7F5878" d="M189.6,141.5c-0.1-4.4-0.1-11.3-0.1-17.5c5.8-0.4,10.4-0.4,15.9-0.4c0,0-0.1,3.8-0.4,6.6
			c0,0-5.1-0.4-8.3-0.8c0,0.5,0,1,0,1.4c0,0,2.3,0.2,4,0.3c0,0,0.1,1.4,0.2,2.9c-1.7,0.3-3.2,0.6-4.2,0.7c0,0,0,0.7,0.1,1.2
			c0,0,4.1-0.2,8.3-0.7c0,0,0.4,3,0.7,6.1C200,141.6,194,141.6,189.6,141.5z"/>
		<path id="XMLID_124_" fill="#7F5878" d="M221.1,142.6c-0.4-1.5-0.8-2.8-1.1-4.1c-1.7,0.3-3.1,0.5-4.1,0.6
			c-0.4,1.2-0.7,2.5-1.1,3.8c-4.1-0.8-8.4-2.4-8.4-2.4c1.6-3.6,5.2-10.8,7.8-15.8c3.9-0.2,8.7-0.1,8.7-0.1
			c1.6,3.7,4.9,10.9,6.7,15.9C227.5,141.2,224.8,141.8,221.1,142.6z M218.1,131.3c-0.3,1.2-0.7,2.4-1.1,3.7c0.8-0.1,1.4-0.2,2-0.2
			C218.7,133.7,218.4,132.5,218.1,131.3z"/>
		<path id="XMLID_127_" fill="#7F5878" d="M245.4,142.1c0-1.9,0-3.9-0.1-5.8c0,0-2,2-3.6,3.4c-1.4-1.8-2.8-4-2.8-4
			c-0.2,2.2-0.5,4.3-0.7,6.3c0,0-4.3-0.6-7.9-1.2c0.5-5.8,1.4-11.3,2-16.5c0,0,4.7,0.4,7.6,1c0,0,1.2,2.8,2.2,5.6
			c1.6-2.7,3-5.5,3-5.5s4.3-0.4,7.9-0.5c0.3,5.7,0.4,11.7,0.6,17C253.7,141.8,249.4,142,245.4,142.1z"/>
	</g>
</g>
<g id="Layer_8">

		<use xlink:href="#car1_1_"  width="216.8" height="100.7" id="XMLID_102_" x="-108.4" y="-45.8" transform="matrix(1 0 0 -1 169.6856 348.6594)" overflow="visible"/>
	<g id="car1">
	</g>
	<g id="XMLID_79_">
		<path id="XMLID_81_" fill="none" d="M607.1,374.9c0,0.8,0,1.5,0,2.3C607.1,376.4,607.2,375.7,607.1,374.9c0.1-0.2,0-0.4,0-0.7
			h-0.1C607.1,374.4,607.1,374.7,607.1,374.9z"/>

			<path id="XMLID_147_" fill="#A0E8E6" stroke="#231F20" stroke-linecap="round" stroke-linejoin="round" stroke-miterlimit="10" d="
			M634.9,304.9c-8,5-20.2,21.1-24.2,26.6c3.5-0.1,7-0.2,10.7-0.3c1.5-2.4,4.2-4.4,7.2-5.1c4.4-0.9,8,1.2,8.4,4.8
			c3.3,0,6.6-0.1,9.9-0.1v-25.7C639.5,305,634.9,304.9,634.9,304.9z"/>

			<path id="XMLID_176_" fill="#2C2C2C" stroke="#171717" stroke-linecap="round" stroke-linejoin="round" stroke-miterlimit="10" d="
			M581,355.9c-10.1,0-18.4,8.5-18.4,19c0,10.5,8.2,19,18.4,19c10.1,0,18.4-8.5,18.4-19C599.4,364.5,591.1,355.9,581,355.9z
			 M581,387.2c-6.5,0-11.8-5.5-11.8-12.2s5.3-12.2,11.8-12.2s11.8,5.5,11.8,12.2S587.5,387.2,581,387.2z"/>

			<ellipse id="XMLID_177_" fill="#BCB4AD" stroke="#726E6A" stroke-linecap="round" stroke-linejoin="round" stroke-miterlimit="10" cx="581" cy="375" rx="11.8" ry="12.2"/>

			<path id="XMLID_178_" fill="#2C2C2C" stroke="#171717" stroke-linecap="round" stroke-linejoin="round" stroke-miterlimit="10" d="
			M607.2,374.2c0,0.3,0,0.5,0,0.8c0,0.7,0,1.5-0.1,2.2c0,0.9-0.1,1.8-0.2,2.7l-0.1,0c0,0,0,0,0,0.1H647v-5.8H607.2z"/>

			<path id="XMLID_179_" fill="#2C2C2C" stroke="#171717" stroke-linecap="round" stroke-linejoin="round" stroke-miterlimit="10" d="
			M555,371.2c-3-2.4-4.9-6.1-4.9-10.3l-3-2.1c-2.5,1-4.3,3.5-4.3,6.4v7.8c0,3.8,3.1,6.9,6.9,6.9h5.5c-0.3-1.6-0.4-3.3-0.4-5
			C554.8,373.7,554.9,372.5,555,371.2z"/>

			<path id="XMLID_180_" fill="#2C2C2C" stroke="#171717" stroke-linecap="round" stroke-linejoin="round" stroke-miterlimit="10" d="
			M607,371.6c0.1,0.9,0.2,1.7,0.2,2.6H647v-2.6H607z"/>

			<path id="XMLID_182_" fill="#2C2C2C" stroke="#171717" stroke-linecap="round" stroke-linejoin="round" stroke-miterlimit="10" d="
			M581,346.6c-13.3,0-24.3,10.7-26,24.7c1.5,1.2,3.4,2.2,5.4,2.6c0.6-11.3,9.6-20.2,20.6-20.2c10.3,0,18.8,7.8,20.4,18h5.6
			C605.4,357.5,594.4,346.6,581,346.6z"/>

			<path id="XMLID_183_" fill="#2C2C2C" stroke="#171717" stroke-linecap="round" stroke-linejoin="round" stroke-miterlimit="10" d="
			M554.8,375c0,1.7,0.1,3.4,0.4,5h5.7c-0.4-1.6-0.6-3.3-0.6-5c0-0.4,0-0.7,0.1-1.1c-2-0.5-3.8-1.4-5.4-2.6
			C554.9,372.5,554.8,373.7,554.8,375z"/>

			<path id="XMLID_186_" fill="#C93D3D" stroke="#911212" stroke-linecap="round" stroke-linejoin="round" stroke-miterlimit="10" d="
			M555,371.2c1.7-13.9,12.7-24.7,26-24.7c13.4,0,24.5,10.9,26,25h40v-33.5c-4.3,0-8.8,0.1-13.3,0.1c-1.4,1.2-3.2,2.1-5,2.5
			c-3.3,0.7-6.2-0.4-7.6-2.5c-6.5,0-12.6,0-17.8,0c0.9-1.7,2-3.3,3.1-5l-4.8-0.2c0.2-0.4,0.4-0.8,0.7-1.2c-17,0.8-30.2,2-35.2,4
			c-2.2,0.5-4.5,1.6-6.7,3.1c2.1,0.9,3.5,2.7,3.5,5.2c0,4-3.8,8.1-8.5,9.1c-2.7,0.6-5.1,0-6.6-1.4c-1.3,2.4-2,4.8-2,6.7l0.4,0.3
			l3,2.1C550.1,365.1,552,368.8,555,371.2z M601.1,332.4c-5,1.5-14.5,10.9-13,14.9C586.6,343.3,596.1,333.9,601.1,332.4z"/>

			<path id="XMLID_187_" fill="#C93D3D" stroke="#911212" stroke-linecap="round" stroke-linejoin="round" stroke-miterlimit="10" d="
			M637,330.9c0,0.2,0,0.5,0,0.7c0,2.4-1.3,4.8-3.4,6.6c4.5,0,8.9-0.1,13.3-0.1v-7.3C643.6,330.8,640.3,330.9,637,330.9z"/>

			<path id="XMLID_190_" fill="#C93D3D" stroke="#911212" stroke-linecap="round" stroke-linejoin="round" stroke-miterlimit="10" d="
			M621.4,331.2c-3.7,0.1-7.2,0.2-10.7,0.3c-0.8,1.1-1.3,1.8-1.3,1.8l-3-0.1c-1.1,1.7-2.2,3.4-3.1,5c5.2,0,11.3,0.1,17.8,0
			c-0.6-0.9-0.9-1.9-0.9-3.1C620.2,333.8,620.6,332.5,621.4,331.2z"/>

			<path id="XMLID_191_" fill="#EFE9CE" stroke="#938664" stroke-linecap="round" stroke-linejoin="round" stroke-miterlimit="10" d="
			M555.4,353.2c4.7-1,8.5-5.1,8.5-9.1c0-2.4-1.4-4.3-3.5-5.2c-4.7,3.2-9.1,8.2-11.6,12.9C550.3,353.2,552.7,353.8,555.4,353.2z"/>

			<path id="XMLID_192_" fill="#2C2C2C" stroke="#171717" stroke-linecap="round" stroke-linejoin="round" stroke-miterlimit="10" d="
			M607.1,374.9c0-0.2,0-0.5,0-0.7h-3l-2.6,0.1c0,0.3,0.1,0.5,0.1,0.8c0,1.7-0.1,3.4-0.5,5l5.7-0.1c0.1-0.9,0.2-1.8,0.3-2.7
			C607.1,376.4,607.1,375.7,607.1,374.9z"/>

			<path id="XMLID_193_" fill="#2C2C2C" stroke="#171717" stroke-linecap="round" stroke-linejoin="round" stroke-miterlimit="10" d="
			M607.1,377.2c-0.1,0.9-0.2,1.8-0.3,2.7l0.1,0C607,379,607,378.1,607.1,377.2z"/>

			<path id="XMLID_194_" fill="#2C2C2C" stroke="#171717" stroke-linecap="round" stroke-linejoin="round" stroke-miterlimit="10" d="
			M607.1,374.2L607.1,374.2c0-0.9,0-1.7-0.1-2.6h-5.6c0.1,0.9,0.2,1.7,0.2,2.6h2.5H607.1C607.1,374.1,607.1,374.2,607.1,374.2z"/>

			<path id="XMLID_195_" fill="#2C2C2C" stroke="#171717" stroke-linecap="round" stroke-linejoin="round" stroke-miterlimit="10" d="
			M607.1,374.1l-3,0.1L607.1,374.1C607.1,374.2,607.1,374.1,607.1,374.1z"/>

			<path id="XMLID_196_" fill="#2C2C2C" stroke="#171717" stroke-linecap="round" stroke-linejoin="round" stroke-miterlimit="10" d="
			M628.6,326.1c-3.1,0.6-5.8,2.6-7.2,5.1c5.1-0.1,10.3-0.2,15.7-0.3C636.6,327.3,633,325.2,628.6,326.1z"/>

			<path id="XMLID_197_" fill="#2C2C2C" stroke="#171717" stroke-linecap="round" stroke-linejoin="round" stroke-miterlimit="10" d="
			M628.6,340.7c1.9-0.4,3.6-1.3,5-2.5c-4.3,0-8.5,0-12.6,0.1C622.4,340.4,625.3,341.4,628.6,340.7z"/>

			<path id="XMLID_198_" fill="#2C2C2C" stroke="#171717" stroke-linecap="round" stroke-linejoin="round" stroke-miterlimit="10" d="
			M637.1,331.6c0-0.2,0-0.5,0-0.7c-5.3,0.1-10.6,0.2-15.7,0.3c-0.8,1.3-1.2,2.6-1.2,4c0,1.2,0.3,2.2,0.9,3.1c4.1,0,8.4,0,12.6-0.1
			C635.7,336.4,637.1,334,637.1,331.6z"/>

			<path id="XMLID_212_" fill="#2C2C2C" stroke="#171717" stroke-linecap="round" stroke-linejoin="round" stroke-miterlimit="10" d="
			M636.1,302.8c0-0.1,4.2-0.4,10.9-0.7V298c-7.5,1.4-12.6,2.9-14.1,3.8c-4.5,3-24.6,20.6-30.6,30.1c1.7-0.1,3.5-0.1,5.2-0.2
			C618,317,635.4,303,636.1,302.8z"/>

			<path id="XMLID_213_" fill="#2C2C2C" stroke="#171717" stroke-linecap="round" stroke-linejoin="round" stroke-miterlimit="10" d="
			M634.9,304.9c0,0,4.6,0.1,12,0.2v-3c-6.7,0.3-10.9,0.5-10.9,0.7c-0.7,0.2-18.1,14.2-28.6,28.8c1.1,0,2.1-0.1,3.2-0.1
			C614.7,326.1,626.9,309.9,634.9,304.9z"/>

			<path id="XMLID_214_" fill="#2C2C2C" stroke="#171717" stroke-linecap="round" stroke-linejoin="round" stroke-miterlimit="10" d="
			M606.4,333.2c0.4-0.5,0.7-1.1,1.1-1.6c-1.8,0.1-3.5,0.1-5.2,0.2c-0.3,0.4-0.5,0.8-0.7,1.2L606.4,333.2z"/>

			<path id="XMLID_218_" fill="#2C2C2C" stroke="#171717" stroke-linecap="round" stroke-linejoin="round" stroke-miterlimit="10" d="
			M610.7,331.5c-1.1,0-2.1,0.1-3.2,0.1c-0.4,0.5-0.8,1.1-1.1,1.6l3,0.1C609.4,333.3,609.9,332.6,610.7,331.5z"/>
	</g>
</g>
</svg>
