<?xml version="1.0" encoding="utf-8"?>
<!-- Generator: Adobe Illustrator 18.1.1, SVG Export Plug-In . SVG Version: 6.00 Build 0)  -->
<svg version="1.1" id="Layer_1" xmlns="http://www.w3.org/2000/svg" xmlns:xlink="http://www.w3.org/1999/xlink" x="0px" y="0px"
	 viewBox="0 0 566 337.7" enable-background="new 0 0 566 337.7" xml:space="preserve">
<g>
	<g>
		<g>
			<g>
				<g>
					<g>
						
							<line fill="none" stroke="#565B5B" stroke-width="1.1993" stroke-miterlimit="10" x1="93.6" y1="142.1" x2="101.7" y2="234.8"/>
						
							<line fill="none" stroke="#565B5B" stroke-width="1.1993" stroke-miterlimit="10" x1="109.5" y1="142.1" x2="101.7" y2="234.8"/>
						
							<line fill="none" stroke="#565B5B" stroke-width="1.1993" stroke-miterlimit="10" x1="125.3" y1="143.9" x2="109.5" y2="234.8"/>
						
							<line fill="none" stroke="#565B5B" stroke-width="1.1993" stroke-miterlimit="10" x1="140" y1="150.2" x2="109.5" y2="234.8"/>
					</g>
					<g>
						<line fill="none" stroke="#565B5B" stroke-width="1.1993" stroke-miterlimit="10" x1="78" y1="146.9" x2="109.8" y2="233.6"/>
						
							<line fill="none" stroke="#565B5B" stroke-width="1.1993" stroke-miterlimit="10" x1="101.6" y1="232" x2="154.4" y2="158.6"/>
						
							<line fill="none" stroke="#565B5B" stroke-width="1.1993" stroke-miterlimit="10" x1="101.6" y1="232" x2="166.1" y2="167.9"/>
						<line fill="none" stroke="#565B5B" stroke-width="1.1993" stroke-miterlimit="10" x1="63.6" y1="155.6" x2="111" y2="234.4"/>
					</g>
				</g>
				<g>
					<g>
						
							<line fill="none" stroke="#565B5B" stroke-width="1.1993" stroke-miterlimit="10" x1="71.8" y1="318.7" x2="102.3" y2="230.9"/>
						
							<line fill="none" stroke="#565B5B" stroke-width="1.1993" stroke-miterlimit="10" x1="87.2" y1="322.6" x2="102.3" y2="230.9"/>
						
							<line fill="none" stroke="#565B5B" stroke-width="1.1993" stroke-miterlimit="10" x1="103.1" y1="324.7" x2="109.8" y2="232.8"/>
						
							<line fill="none" stroke="#565B5B" stroke-width="1.1993" stroke-miterlimit="10" x1="118.8" y1="322.2" x2="109.8" y2="232.8"/>
					</g>
					<g>
						<line fill="none" stroke="#565B5B" stroke-width="1.1993" stroke-miterlimit="10" x1="57.9" y1="310.2" x2="109.8" y2="234"/>
						
							<line fill="none" stroke="#565B5B" stroke-width="1.1993" stroke-miterlimit="10" x1="101.6" y1="233.5" x2="134.9" y2="317.6"/>
						
							<line fill="none" stroke="#565B5B" stroke-width="1.1993" stroke-miterlimit="10" x1="101.6" y1="233.5" x2="148.5" y2="311.4"/>
						<line fill="none" stroke="#565B5B" stroke-width="1.1993" stroke-miterlimit="10" x1="46" y1="298.3" x2="111.2" y2="233.5"/>
					</g>
				</g>
			</g>
			<g>
				<g>
					<g>
						
							<line fill="none" stroke="#565B5B" stroke-width="1.1993" stroke-miterlimit="10" x1="196.8" y1="221.2" x2="104.1" y2="229.3"/>
						
							<line fill="none" stroke="#565B5B" stroke-width="1.1993" stroke-miterlimit="10" x1="196.8" y1="237.1" x2="104.1" y2="229.3"/>
						<line fill="none" stroke="#565B5B" stroke-width="1.1993" stroke-miterlimit="10" x1="195" y1="253" x2="104.1" y2="237.1"/>
						
							<line fill="none" stroke="#565B5B" stroke-width="1.1993" stroke-miterlimit="10" x1="188.7" y1="267.7" x2="104.1" y2="237.1"/>
					</g>
					<g>
						
							<line fill="none" stroke="#565B5B" stroke-width="1.1993" stroke-miterlimit="10" x1="192" y1="205.6" x2="105.3" y2="237.4"/>
						
							<line fill="none" stroke="#565B5B" stroke-width="1.1993" stroke-miterlimit="10" x1="106.9" y1="229.3" x2="180.3" y2="282.1"/>
						
							<line fill="none" stroke="#565B5B" stroke-width="1.1993" stroke-miterlimit="10" x1="106.9" y1="229.3" x2="171" y2="293.8"/>
						
							<line fill="none" stroke="#565B5B" stroke-width="1.1993" stroke-miterlimit="10" x1="183.3" y1="191.2" x2="104.5" y2="238.6"/>
					</g>
				</g>
				<g>
					<g>
						
							<line fill="none" stroke="#565B5B" stroke-width="1.1993" stroke-miterlimit="10" x1="20.2" y1="199.5" x2="108.1" y2="229.9"/>
						
							<line fill="none" stroke="#565B5B" stroke-width="1.1993" stroke-miterlimit="10" x1="16.3" y1="214.9" x2="108.1" y2="229.9"/>
						
							<line fill="none" stroke="#565B5B" stroke-width="1.1993" stroke-miterlimit="10" x1="14.2" y1="230.7" x2="106.1" y2="237.5"/>
						
							<line fill="none" stroke="#565B5B" stroke-width="1.1993" stroke-miterlimit="10" x1="16.7" y1="246.5" x2="106.1" y2="237.5"/>
					</g>
					<g>
						
							<line fill="none" stroke="#565B5B" stroke-width="1.1993" stroke-miterlimit="10" x1="28.7" y1="185.5" x2="104.9" y2="237.5"/>
						
							<line fill="none" stroke="#565B5B" stroke-width="1.1993" stroke-miterlimit="10" x1="105.4" y1="229.2" x2="21.3" y2="262.5"/>
						
							<line fill="none" stroke="#565B5B" stroke-width="1.1993" stroke-miterlimit="10" x1="105.4" y1="229.2" x2="27.5" y2="276.1"/>
						
							<line fill="none" stroke="#565B5B" stroke-width="1.1993" stroke-miterlimit="10" x1="40.6" y1="173.7" x2="105.4" y2="238.9"/>
					</g>
				</g>
			</g>
			<line fill="none" stroke="#565B5B" stroke-width="1.1993" stroke-miterlimit="10" x1="50.2" y1="162" x2="161.4" y2="303.9"/>
			<line fill="none" stroke="#565B5B" stroke-width="1.1993" stroke-miterlimit="10" x1="34.6" y1="286.8" x2="178.8" y2="177.6"/>
		</g>
		<g>
			<path fill="#D4DADF" stroke="#83898C" stroke-width="1.1993" stroke-miterlimit="10" d="M105.5,128C47.9,128,1.2,174.7,1.2,232.2
				s46.7,104.3,104.3,104.3s104.3-46.7,104.3-104.3S163.1,128,105.5,128z M105.5,317.3c-47,0-85.1-38.1-85.1-85.1
				s38.1-85.1,85.1-85.1s85.1,38.1,85.1,85.1S152.5,317.3,105.5,317.3z"/>
			<path fill="#3C3F42" stroke="#7E7F82" stroke-width="1.1993" stroke-miterlimit="10" d="M105.5,127.4
				c-57.9,0-104.9,47-104.9,104.9c0,57.9,47,104.9,104.9,104.9s104.9-47,104.9-104.9C210.4,174.3,163.4,127.4,105.5,127.4z
				 M105.5,332.5c-55.4,0-100.2-44.9-100.2-100.2S50.1,132,105.5,132c55.4,0,100.2,44.9,100.2,100.2S160.8,332.5,105.5,332.5z"/>
			<circle fill="none" stroke="#AEB5B7" stroke-width="1.1993" stroke-miterlimit="10" cx="105.5" cy="232.2" r="90.4"/>
		</g>
	</g>
	<g>
		<g>
			<path fill="none" stroke="#000000" stroke-width="4.826" stroke-linecap="round" stroke-linejoin="round" d="M291.5,244.3
				c-0.1,0.6-0.1,1.2-0.2,1.8"/>
			
				<path fill="none" stroke="#000000" stroke-width="4.826" stroke-linecap="round" stroke-linejoin="round" stroke-dasharray="3.6261,3.6261" d="
				M290.6,249.7c-5.7,27-31.5,24.2-31.5,24.2l-156.2-24.8c0,0-17-1-13.8-20c1.7-10.2,10.7-12.7,15.8-13.4"/>
			<path fill="none" stroke="#000000" stroke-width="4.826" stroke-linecap="round" stroke-linejoin="round" d="M106.8,215.6
				c1.1-0.1,1.8,0,1.8,0"/>
		</g>
	</g>
	<circle fill="#3E4945" stroke="#9FADA9" stroke-miterlimit="10" cx="105.6" cy="233.1" r="16.4"/>
	<circle fill="#FFFFFF" stroke="#000000" stroke-width="0.6635" stroke-miterlimit="10" cx="461.4" cy="233.1" r="10.4"/>
	<circle fill="#FFFFFF" stroke="#000000" stroke-width="0.3572" stroke-miterlimit="10" cx="461" cy="233.1" r="5.6"/>
	<g>
		<g>
			<g>
				<g>
					<g>
						
							<line fill="none" stroke="#565B5B" stroke-width="1.1993" stroke-miterlimit="10" x1="448.6" y1="142.1" x2="456.7" y2="234.8"/>
						
							<line fill="none" stroke="#565B5B" stroke-width="1.1993" stroke-miterlimit="10" x1="464.5" y1="142.1" x2="456.7" y2="234.8"/>
						
							<line fill="none" stroke="#565B5B" stroke-width="1.1993" stroke-miterlimit="10" x1="480.3" y1="143.9" x2="464.5" y2="234.8"/>
						
							<line fill="none" stroke="#565B5B" stroke-width="1.1993" stroke-miterlimit="10" x1="495" y1="150.2" x2="464.5" y2="234.8"/>
					</g>
					<g>
						
							<line fill="none" stroke="#565B5B" stroke-width="1.1993" stroke-miterlimit="10" x1="433" y1="146.9" x2="464.8" y2="233.6"/>
						
							<line fill="none" stroke="#565B5B" stroke-width="1.1993" stroke-miterlimit="10" x1="456.6" y1="232" x2="509.4" y2="158.6"/>
						
							<line fill="none" stroke="#565B5B" stroke-width="1.1993" stroke-miterlimit="10" x1="456.6" y1="232" x2="521.1" y2="167.9"/>
						
							<line fill="none" stroke="#565B5B" stroke-width="1.1993" stroke-miterlimit="10" x1="418.6" y1="155.6" x2="466" y2="234.4"/>
					</g>
				</g>
				<g>
					<g>
						
							<line fill="none" stroke="#565B5B" stroke-width="1.1993" stroke-miterlimit="10" x1="426.8" y1="318.7" x2="457.3" y2="230.9"/>
						
							<line fill="none" stroke="#565B5B" stroke-width="1.1993" stroke-miterlimit="10" x1="442.2" y1="322.6" x2="457.3" y2="230.9"/>
						
							<line fill="none" stroke="#565B5B" stroke-width="1.1993" stroke-miterlimit="10" x1="458.1" y1="324.7" x2="464.8" y2="232.8"/>
						
							<line fill="none" stroke="#565B5B" stroke-width="1.1993" stroke-miterlimit="10" x1="473.8" y1="322.2" x2="464.8" y2="232.8"/>
					</g>
					<g>
						
							<line fill="none" stroke="#565B5B" stroke-width="1.1993" stroke-miterlimit="10" x1="412.9" y1="310.2" x2="464.8" y2="234"/>
						
							<line fill="none" stroke="#565B5B" stroke-width="1.1993" stroke-miterlimit="10" x1="456.6" y1="233.5" x2="489.9" y2="317.6"/>
						
							<line fill="none" stroke="#565B5B" stroke-width="1.1993" stroke-miterlimit="10" x1="456.6" y1="233.5" x2="503.5" y2="311.4"/>
						
							<line fill="none" stroke="#565B5B" stroke-width="1.1993" stroke-miterlimit="10" x1="401" y1="298.3" x2="466.2" y2="233.5"/>
					</g>
				</g>
			</g>
			<g>
				<g>
					<g>
						
							<line fill="none" stroke="#565B5B" stroke-width="1.1993" stroke-miterlimit="10" x1="551.8" y1="221.2" x2="459.1" y2="229.3"/>
						
							<line fill="none" stroke="#565B5B" stroke-width="1.1993" stroke-miterlimit="10" x1="551.8" y1="237.1" x2="459.1" y2="229.3"/>
						<line fill="none" stroke="#565B5B" stroke-width="1.1993" stroke-miterlimit="10" x1="550" y1="253" x2="459.1" y2="237.1"/>
						
							<line fill="none" stroke="#565B5B" stroke-width="1.1993" stroke-miterlimit="10" x1="543.7" y1="267.7" x2="459.1" y2="237.1"/>
					</g>
					<g>
						
							<line fill="none" stroke="#565B5B" stroke-width="1.1993" stroke-miterlimit="10" x1="547" y1="205.6" x2="460.3" y2="237.4"/>
						
							<line fill="none" stroke="#565B5B" stroke-width="1.1993" stroke-miterlimit="10" x1="461.9" y1="229.3" x2="535.3" y2="282.1"/>
						
							<line fill="none" stroke="#565B5B" stroke-width="1.1993" stroke-miterlimit="10" x1="461.9" y1="229.3" x2="526" y2="293.8"/>
						
							<line fill="none" stroke="#565B5B" stroke-width="1.1993" stroke-miterlimit="10" x1="538.3" y1="191.2" x2="459.5" y2="238.6"/>
					</g>
				</g>
				<g>
					<g>
						
							<line fill="none" stroke="#565B5B" stroke-width="1.1993" stroke-miterlimit="10" x1="375.2" y1="199.5" x2="463.1" y2="229.9"/>
						
							<line fill="none" stroke="#565B5B" stroke-width="1.1993" stroke-miterlimit="10" x1="371.3" y1="214.9" x2="463.1" y2="229.9"/>
						
							<line fill="none" stroke="#565B5B" stroke-width="1.1993" stroke-miterlimit="10" x1="369.2" y1="230.7" x2="461.1" y2="237.5"/>
						
							<line fill="none" stroke="#565B5B" stroke-width="1.1993" stroke-miterlimit="10" x1="371.7" y1="246.5" x2="461.1" y2="237.5"/>
					</g>
					<g>
						
							<line fill="none" stroke="#565B5B" stroke-width="1.1993" stroke-miterlimit="10" x1="383.7" y1="185.5" x2="459.9" y2="237.5"/>
						
							<line fill="none" stroke="#565B5B" stroke-width="1.1993" stroke-miterlimit="10" x1="460.4" y1="229.2" x2="376.3" y2="262.5"/>
						
							<line fill="none" stroke="#565B5B" stroke-width="1.1993" stroke-miterlimit="10" x1="460.4" y1="229.2" x2="382.5" y2="276.1"/>
						
							<line fill="none" stroke="#565B5B" stroke-width="1.1993" stroke-miterlimit="10" x1="395.6" y1="173.7" x2="460.4" y2="238.9"/>
					</g>
				</g>
			</g>
			<line fill="none" stroke="#565B5B" stroke-width="1.1993" stroke-miterlimit="10" x1="405.2" y1="162" x2="516.4" y2="303.9"/>
			<line fill="none" stroke="#565B5B" stroke-width="1.1993" stroke-miterlimit="10" x1="389.6" y1="286.8" x2="533.8" y2="177.6"/>
		</g>
		<g>
			<path fill="#D4DADF" stroke="#83898C" stroke-width="1.1993" stroke-miterlimit="10" d="M460.5,128
				c-57.6,0-104.3,46.7-104.3,104.3s46.7,104.3,104.3,104.3s104.3-46.7,104.3-104.3S518.1,128,460.5,128z M460.5,317.3
				c-47,0-85.1-38.1-85.1-85.1s38.1-85.1,85.1-85.1s85.1,38.1,85.1,85.1S507.5,317.3,460.5,317.3z"/>
			<path fill="#3C3F42" stroke="#7E7F82" stroke-width="1.1993" stroke-miterlimit="10" d="M460.5,127.4
				c-57.9,0-104.9,47-104.9,104.9c0,57.9,47,104.9,104.9,104.9s104.9-47,104.9-104.9C565.4,174.3,518.4,127.4,460.5,127.4z
				 M460.5,332.5c-55.4,0-100.2-44.9-100.2-100.2S405.1,132,460.5,132c55.4,0,100.2,44.9,100.2,100.2S515.8,332.5,460.5,332.5z"/>
			<circle fill="none" stroke="#AEB5B7" stroke-width="1.1993" stroke-miterlimit="10" cx="460.5" cy="232.2" r="90.4"/>
		</g>
	</g>
	<path fill="#68B0D8" stroke="#346F8A" stroke-width="2" stroke-miterlimit="10" d="M386.6,106.8c-10.5,6.5-19,13.9-27,23.9
		c-42.5-26.6-79.5-28.5-104.7-24.6c64.2-25.1,128.2-16.9,128.2-16.9L377,78.6c0,0-89.3-9.6-161.9,37.2c-0.7,0.4-1.3,0.8-1.9,1.3
		l-1.7-4.3l-9,3l2.6,6.7c-55.8,38.4-92.8,86.8-102.9,100.9c-4.1,1.4-7,5.3-7,9.8c0,5.7,4.7,10.4,10.4,10.4c5.7,0,10.4-4.7,10.4-10.4
		c0-0.1,0-0.1,0-0.2l106.4,22.3v1.6c0,2.6,2.1,4.6,4.6,4.6s4.6-2.1,4.6-4.6v-10h-9.3v2.1L113.1,226c-1.1-1.1-2.4-2-3.9-2.6
		c7.7-10.5,41.8-54.3,99.1-92.6l45.2,116.1c1,2.6,3.6,4.2,6.3,4.1l4.9-0.3c7-0.2,43.2-3.2,65.4-48c24.6-49.8,36-69,61.2-84.6
		L386.6,106.8z M323.7,192.5c-19.3,39-48.1,46-59.7,47.2c-1.9,0.2-3.7-0.9-4.4-2.7l-43.1-111.3c1.4-0.9,2.7-1.7,4.1-2.6
		c2-1.2,3.9-2.4,5.9-3.5c20.4-8.1,68.2-19.4,128.6,17.1C345.5,149.9,336,167.5,323.7,192.5z"/>
	<circle fill="#525B58" stroke="#9FADA9" stroke-miterlimit="10" cx="105.6" cy="233.1" r="5.2"/>
	<path fill="#68B0D8" stroke="#346F8A" stroke-width="2" stroke-miterlimit="10" d="M461,223.1c-1.1,0-2.2,0.2-3.2,0.5
		c-8.9-9.7-21.4-27.7-31.5-48.6C416.3,154.9,383,69.6,383,69.6l-10.8,3c0,0,32.3,85.8,43.2,105.5c15.4,27.9,30.7,43.9,37.1,49.7
		c-1,1.5-1.5,3.4-1.5,5.3c0,5.5,4.5,10,10,10c5.5,0,10-4.5,10-10C471,227.6,466.5,223.1,461,223.1z"/>
	<circle fill="#525B58" stroke="#9FADA9" stroke-miterlimit="10" cx="461" cy="233.1" r="5.2"/>
	<g>
		<polygon fill="#B7C4BF" stroke="#616E69" stroke-miterlimit="10" points="204.2,96.9 193,69.6 184.8,72 196,99.3 		"/>
		<path fill="#C2CEC9" stroke="#616E69" stroke-miterlimit="10" d="M211.4,110.3l-8.1-19c-0.4-1-1.5-1.5-2.5-1.2l-7.1,2.3
			c-1.1,0.4-1.7,1.6-1.3,2.7l8,18.7L211.4,110.3z"/>
		<g>
			<path fill="#B7C4BF" stroke="#616E69" stroke-miterlimit="10" d="M395.2,36.1l-1.9-8.3c-0.3-1.2-1-2.3-2.2-2.9
				c-1.5-0.7-3.8-1.3-6.8-0.1c-1.7,0.7-2.8,1.6-3.4,2.6c-6,4.7-9.7,9.9-11.4,12.8l0-0.1l-4,1.2c-2.2,0.7-3.4,3.1-2.5,5.2l9.5,23.4
				l8.2-2.4l-5.9-14.4c0.6-3,2.3-10.1,7.4-17.3l2.2,4.2c0.6,1.2,2.1,1.8,3.4,1.3l5.7-2.1C394.7,38.7,395.5,37.4,395.2,36.1z"/>
			<path fill="#CFDDD7" stroke="#616E69" stroke-miterlimit="10" d="M346.9,4.4c0,0,22.8,0,27.8,2.6c1.9,1,11.9,18,15.2,23.6
				c0.6,1.1,0.5,2.4-0.3,3.3v0c-1.3,1.5-3.7,1.3-4.7-0.4c-4-6.7-12.5-21-14.2-21.9c-2.2-1.2-22-1.4-22-1.4L346.9,4.4z"/>
			<path fill="#3C3F42" stroke="#7E7F82" stroke-width="1.1993" stroke-miterlimit="10" d="M348.2,1.6l-29-1c0,0-3.2,0.8-3.2,5.8
				s3.2,5.6,3.2,5.6l28.9,1c0.7,0,1.3-0.4,1.6-1c0.5-1.1,1.2-2.9,1.2-4.8c0-1.9-0.7-3.7-1.3-4.7C349.4,1.9,348.8,1.6,348.2,1.6z"/>
		</g>
		<path fill="#684E4C" stroke="#3A2B2A" stroke-width="2" stroke-miterlimit="10" d="M146.6,58.4c-0.3,0.9,0,1.9,0.9,2.4
			c5.4,3.1,25,13.5,41.4,11.1c15.9-2.3,36-10.7,42.4-13.5c1.3-0.6,2-1.9,1.7-3.3c-0.9-3.9-4-11.2-14.8-10c-14.8,1.6-20,5.6-30.8,3.6
			c-16.7-3.1-24.8-7.2-30.8-4.8C151.7,45.9,148,54.8,146.6,58.4z"/>
		<path fill="#CBD8D3" stroke="#616E69" stroke-miterlimit="10" d="M214.2,115.5l-12.2,4.9c-0.4,0.2-0.9,0-1-0.4l-1.8-4.5
			c-0.3-0.8,0.1-1.6,0.8-1.9l11.1-4.5c0.8-0.3,1.6,0.1,1.9,0.8l1.8,4.3C214.9,114.7,214.7,115.3,214.2,115.5z"/>
		<path fill="#CFDDD7" stroke="#616E69" stroke-miterlimit="10" d="M384.5,71.1L372.3,76c-0.4,0.2-0.9,0-1-0.4l-1.8-4.5
			c-0.3-0.8,0.1-1.6,0.8-1.9l11.1-4.5c0.8-0.3,1.6,0.1,1.9,0.8l1.8,4.3C385.2,70.3,385,70.9,384.5,71.1z"/>
	</g>
	<path fill="#9FADA9" stroke="#616E69" stroke-miterlimit="10" d="M265.9,215.5c-15.9-3.3-31.4,6.8-34.8,22.7
		c-3.3,15.9,6.8,31.4,22.7,34.8c15.9,3.3,31.4-6.8,34.8-22.7C291.9,234.4,281.7,218.8,265.9,215.5z M278.4,231.9
		c0.8,0.5,8.6,5.3,4.1,11.8c-3.3,4.8-11.5,2.5-16.4,0.6c0-2.6-1.5-4.9-3.9-5.9c0.1-5.3,1.3-13.7,7-14.9
		C276.9,221.9,278.3,231.1,278.4,231.9z M260,218.3c1-0.2,2.6-0.3,5,0.1c2.5,0.5,3.9,1.3,4.7,1.9c0.4,0.3,0.2,0.9-0.3,1
		c-1.5,0.2-4.2,0.9-5.6,2.8c0,0-1-3.1-4-4.8C259.4,219.1,259.5,218.4,260,218.3z M247.5,225.6c0.5-0.8,5.3-8.6,11.8-4.1
		c4.8,3.3,2.5,11.5,0.6,16.4c-2.6,0-4.9,1.5-5.9,3.9c-5.3-0.1-13.7-1.3-14.9-7C237.5,227.1,246.7,225.7,247.5,225.6z M234,244.1
		c-0.3-0.9-0.4-2.6,0.1-5.1c0.5-2.4,1.2-3.8,1.8-4.7c0.3-0.4,0.9-0.2,1,0.3c0.4,3.4,2.9,5.5,2.9,5.5c-2.3,0.6-3.9,2.8-4.7,4.1
		C234.8,244.6,234.2,244.6,234,244.1z M241.3,256.5c-0.7-0.4-8.6-5.3-4.1-11.8c3.4-4.9,11.8-2.4,16.7-0.5c0,2.4,1.4,4.6,3.6,5.7
		c-0.1,5.3-1.2,13.8-7,15C242.8,266.5,241.4,257.4,241.3,256.5z M259.7,270c-0.9,0.3-2.6,0.4-5.1-0.1c-2.4-0.5-3.8-1.2-4.7-1.8
		c-0.4-0.3-0.2-0.9,0.3-1c3.4-0.4,5.5-2.9,5.5-2.9c0.6,2.3,2.8,3.9,4.1,4.7C260.3,269.2,260.2,269.9,259.7,270z M272.1,262.8
		c-0.4,0.7-5.3,8.6-11.8,4.1c-4.8-3.3-2.5-11.5-0.6-16.4c2.7,0.2,5.2-1.4,6.2-3.9c5.3,0.2,13.4,1.4,14.6,6.9
		C282.1,261.2,273,262.6,272.1,262.8z M285.5,249.3c-0.5,2.5-1.3,3.9-1.9,4.7c-0.3,0.4-0.9,0.2-1-0.3c-0.2-1.5-0.9-4.2-2.8-5.6
		c0,0,3.1-1,4.8-4c0.2-0.4,0.9-0.4,1,0.1C285.9,245.3,286,246.9,285.5,249.3z"/>
	<g>
		<path fill="#C7D1CE" stroke="#616E69" stroke-miterlimit="10" d="M280.7,302.4l-23.5-56.3c-0.9-2.1,0.7-4.5,3-4.5l0,0
			c1.3,0,2.5,0.8,3,2l24.6,58.8H280.7z"/>
		<path fill="#3C3F42" stroke="#7E7F82" stroke-width="1.1993" stroke-miterlimit="10" d="M299.9,307.8h-34.9c-1.7,0-3-1.4-3-3v-7.5
			c0-1.7,1.4-3,3-3h34.9c1.7,0,3,1.4,3,3v7.5C302.9,306.4,301.5,307.8,299.9,307.8z"/>
		<circle fill="#CFDDD7" stroke="#616E69" stroke-miterlimit="10" cx="282.4" cy="301.2" r="4.2"/>
	</g>
	<g>
		<defs>
			<path id="SVGID_1_" d="M106.5,216.1c-1.4-1.1-0.6-3.2,1.1-3.2h180.7c14.4,0,23.5,10.2,24,16.8c0.6,8.3-2.5,19.7-10,27.5
				c-1.2,1.2-2.8,1.9-4.6,1.9h-20.5c-0.5,0-0.9-0.4-0.8-0.9c0.8-4.5,3.4-23.9-15.2-26.1c-17.6-2-21.3,12.4-22,17.1
				c-0.1,0.8-0.9,1.4-1.7,1.2c-9.7-1.8-64.6-12.1-129.8-33.3L106.5,216.1z"/>
		</defs>
		<use xlink:href="#SVGID_1_"  overflow="visible" fill="#86CAE7"/>
		<clipPath id="SVGID_2_">
			<use xlink:href="#SVGID_1_"  overflow="visible"/>
		</clipPath>
		<path clip-path="url(#SVGID_2_)" fill="#86CAE7" stroke="#B9E5F4" stroke-width="3" stroke-miterlimit="10" d="M130.6,226.1
			c0,0,120.5,0,137.3,0c16.8,0,32.4-24.6,32.4-24.6l41.4,15l7.2,50.4l-47.4,34.8l-124.1-19.8l-60-42.6L130.6,226.1z"/>
		<use xlink:href="#SVGID_1_"  overflow="visible" fill="none" stroke="#346F8A" stroke-width="2" stroke-miterlimit="10"/>
	</g>
</g>
</svg>
