<?xml version="1.0" encoding="utf-8"?>
<!-- Generator: Adobe Illustrator 18.1.1, SVG Export Plug-In . SVG Version: 6.00 Build 0)  -->
<svg version="1.1" id="Layer_1" xmlns="http://www.w3.org/2000/svg" xmlns:xlink="http://www.w3.org/1999/xlink" x="0px" y="0px"
	 viewBox="0 0 500 500" enable-background="new 0 0 500 500" xml:space="preserve">
<g>
	<g>
		<path fill="#009444" stroke="#006838" stroke-width="3.3" stroke-miterlimit="10" d="M276,150.1c-19.7-21.8-39.4-45.2-65.5-59.2
			c-23-12.1-52.1-16-74.7-3.1c17,20.6,35,28,60.4,36.3c28.3,9.3,57.8,15.6,83.8,30.4C278.6,153,277.3,151.6,276,150.1z"/>
		<g>
			<g>
				<path fill="#493217" stroke="#7C5834" stroke-width="3.3" stroke-miterlimit="10" d="M263.6,137.4c0.3-18.3,6.1-36.4,16.4-51.5
					l7.9-0.9l2.7,6c0,0-15,8.3-24.3,51.8L263.6,137.4z"/>
				<path fill="#BF2326" stroke="#841618" stroke-width="3.3" stroke-miterlimit="10" d="M223.4,419.5c-34.3-2.6-66.1-23-86.5-50.7
					c-21.1-28.5-31.4-64.1-34.5-99.5c-3.1-36.3,1.4-74.8,22.1-104.8c20.8-30.4,61.5-49.1,96.3-36.3c-0.9,0.7,15.1,2.1,24.6,5.1
					c9.6,3,14.6,6,24.1,4.7c18.4-3.1,37.4-2.6,55.5,1.4c29.1,12.1,53.8,34.4,68.8,62.1c1.6,2.9,2.6,5.9,3,9.1
					c8,61.5-11.3,126.3-52.1,173.3c-15.8,18.1-37.4,34.7-61.7,31.7c-13.8,4.4-28.5,5.6-43,3.4C234.5,419.8,228.9,419.9,223.4,419.5z
					"/>
				<g>
					<path fill="#BF2326" d="M326.1,155.3c-18.6-11.8-41.1-17.4-63.2-15.7c-16.1-4.4-32.8-6.3-49.4-5.6"/>
					<path fill="#841618" d="M326.1,155.3c-1.3-0.4-2.6-1-3.9-1.6l-3.9-1.4l-3.9-1.3l-2-0.6c-0.7-0.1-1.3-0.6-1.9-0.9L307,148
						l-3.9-1.4l-4-1.1l-3.9-1l-4-0.9l-4-0.7l-4-0.6l-4-0.4l-4-0.3l-4-0.1h-4l-4,0.3l0,0c-0.3,0-0.4,0-0.7-0.1
						c-7.9-2.1-16-3.7-24.1-4.7c-2-0.3-4.1-0.4-6.1-0.6c-1,0-2-0.1-3-0.1s-2-0.3-3-0.4c-2-0.3-4.1-0.6-6.1-1l-6.7-0.7
						c2-0.4,4.1-0.9,6.3-1.1s4.1-0.6,6.3-0.9c1,0,2.1-0.3,3.1-0.1c1,0.1,2.1,0.1,3.1,0.3c2.1,0.1,4.1,0.3,6.3,0.6
						c8.4,0.9,16.7,2.6,24.7,4.7l-0.7-0.1l4.3-0.3l4.3-0.1l4.3,0.1l4.3,0.3l4.1,0.4l4.1,0.6l4.1,0.7l4.1,1l4.1,1.1l4,1.3l4,1.4
						l4,1.6c0.7,0.3,1.3,0.4,2,0.9l1.9,1.1l3.6,2.4l3.4,2.6C324,153.4,325,154.3,326.1,155.3z"/>
				</g>
			</g>
		</g>
	</g>
	<g opacity="0.37">
		<path fill="#FFFFFF" d="M358.4,199.7c0,0,1,1.3,2.4,3.6s3.3,5.9,5.1,10.1c0.9,2.1,1.9,4.6,2.7,7.1s1.7,5.3,2.4,8.1
			c0.7,2.9,1.3,5.9,1.9,9c0.4,3.1,0.7,6.3,0.9,9.4c0.1,1.6,0.1,3.1,0.1,4.9c0,1.6,0,3.1,0,4.9c0,3.1-0.3,6.3-0.7,9.3
			c-0.3,1.6-0.6,3-1,4.3c-0.4,1.4-0.9,2.7-1.3,4c-0.9,2.6-2,5-3.1,7.1s-2.3,4-3.4,5.7c-1.1,1.6-2.1,3-3.1,4c-1.9,2.1-3,3.3-3,3.3
			l-0.9-0.4c0,0,0.1-1.7,0.7-4.3c0.3-1.3,0.4-3,0.9-4.9c0.4-1.9,0.7-3.9,1.1-6c0.9-4.3,1.7-9.4,2.7-14.8c0.3-1.3,0.6-2.7,0.9-4.1
			c0.3-1.4,0.6-2.7,0.9-4.1c0.3-1.4,0.6-2.9,0.7-4.3c0.3-1.4,0.3-2.9,0.4-4.4c0.1-3,0.1-5.9,0.1-8.8c-0.1-2.9-0.3-5.9-0.6-8.6
			c-0.3-2.9-0.7-5.4-1.1-8s-1-5-1.6-7.1c-1.1-4.4-2.4-8-3.3-10.4c-1-2.6-1.6-3.9-1.6-3.9L358.4,199.7z"/>
	</g>
</g>
</svg>
