<?xml version="1.0" encoding="utf-8"?>
<!-- Generator: Adobe Illustrator 15.1.0, SVG Export Plug-In . SVG Version: 6.00 Build 0)  -->
<!DOCTYPE svg PUBLIC "-//W3C//DTD SVG 1.1//EN" "http://www.w3.org/Graphics/SVG/1.1/DTD/svg11.dtd">
<svg version="1.1" id="Layer_2" xmlns="http://www.w3.org/2000/svg" xmlns:xlink="http://www.w3.org/1999/xlink" x="0px" y="0px"
	 width="108px" height="80.75px" viewBox="0 0 108 80.75" enable-background="new 0 0 108 80.75" xml:space="preserve">
<path fill="#D3B888" stroke="#996B20" stroke-width="0.25" d="M19.25,11.042c-1,1.333-2.406,5.876-1.75,7.917
	c0.75,2.333,0.75,4.083,0.25,5.417c-0.411,1.095-1.083,4.417,0.25,6.75s-0.083,3-0.083,4.5s3.083,0,3.083,0l1.583-4.167
	c0,0,0-6.417,0.167-6.667s-1.083-7.667-1.083-8S19.25,11.042,19.25,11.042z"/>
<path fill="#D3B888" stroke="#996B20" stroke-width="0.35" d="M2.417,54.542c-0.25,3.167-1.024,6.982,2.25,7.917
	c2.333,0.666,5,0.916,9.75,0.666s13.25-1.332,16.917-1.666s5.583-1.584,8.917,1.333s13.251,12.5,16.917,14S64.75,80.126,67,74.959
	c0.833-2.834,1.334-6.167,0.917-7.917c-4.084-1.833-6.001,0.75-9.084-0.25s-5.5-3.333-8.75-5.5s-4.083-6.167-8-7.167
	s-6.917-1.832-12.417-1.416s-10.416,1-14.583,1.583S2.417,54.542,2.417,54.542z"/>
<path fill="#D3B888" stroke="#937037" stroke-width="0.35" d="M70,56.042c3.833-1.333,10.47-1.74,14.75-4.25
	c2.417-1.417,4.167-1.249,6.917-1.833c3.124-0.663,4.666-1.584,7.583-2.75c2.839-1.135,6.75-1.917,6.667-4.917
	s0.333-3.167-0.25-4.75c-1.333-1.167-12.166,4.334-15.25,4.667s-8.334,2.666-10.584,3.083s-6.25,0.917-8.083,3.167
	S70,56.042,70,56.042z"/>
<path fill="#FFFFFF" stroke="#82817F" stroke-width="0.35" d="M47.875,12.5c3.375-2,8.125-0.5,11-4.5c3-2.375,5.875-1.75,10.5-2.625
	c2-0.75,1.5-1.25,3-1.875s2.5-0.375,4.25-1.125s4.25-0.875,3.75,2s1,1.5-0.375,4.75s0.5,2.25,0.125,4.5S77.75,18.25,78.375,20
	s1,3.25,3.875,3.875S86,26,89.375,27.625s6,1.125,8.625,3.875s2,2.25,4.125,2.75s8.25,3.625,0.875,6.5S94.5,46,88.875,45.375
	c-4.25,2.25-7.564,2.781-10,2.375c-2.25,0.25-6.125,1.5-6.75,6s0,5.75-2.125,7.625s-1.375,4.5-1.5,5.625s-0.75,5.875-4.125,6.375
	s-4.75-0.75-6.125-1.625s-0.875-2.125-4.875-2.5s-4.301-5.924-6.75-6.5c-2.125-0.5-3.5-1.5-4.5-4.125s-5.75-4.125-8.75-4
	s-8.625,4.125-14.5,2.25c-2.125-0.875-3.202-0.283-6,0.375C10.75,57.75,5.5,59.75,2.75,57S3.875,51.25,5,49.625
	S10.625,45.25,11.625,42s5.25-6.875,7.25-7.625s2.5-2.25,2.25-3.75s-2.375-4.375-1-7S20.25,21.5,19.75,20.25s0.125-3.125-0.25-4.625
	s-2.375-7,3.25-6.125s5.5-0.5,7.75,0.625s4.5,1.5,7,1.625S41.875,9.75,47.875,12.5z"/>
<path fill="#F9AFE3" stroke="#FC81CE" stroke-width="0.25" d="M26,24c1.297,1.843,0.125,2.75-1,5s-1.375,3.5-0.375,5.75
	s-2.25,4.75-5,6s-5.625,3.5-5.75,5.375C13.657,49.39,11.5,48,10.25,50.625c-2.09,4.39,4.625,2.25,8.375,1.375s3.375-0.375,8,0.125
	s5.5-1.5,7.375-1.625s4,0.125,5.875-0.375s2.875,0.625,4.75,3s3.875,3.625,6,4s1.75,1,3.625,4.625S59,64.625,61,64.375
	C66.263,63.717,65.25,59,65.5,57s0.5-4.375,2.125-5.5c2.901-2.009,2.5-4.625,2.875-5.875s1.25-2.375,4.5-2s6-0.875,7.625-1.875
	s3.375-2.25,5.75-2.125s3.125,0.75,7.25-0.375s1-3.75,0.125-4s-1.625-1.25-2.875-2.375S89.75,31.5,87.25,31.5
	c-2.762,0-2.523,0.179-5.25-2.75c-3.375-3.625-4.75-2.25-7.125-2.875s-5.5-3.5-2.125-4.875s2.5-5.75,2.125-6.75s-0.375-2.5,0.75-3.5
	s1-2.75-0.75-3.875s-3.5,0.5-4.75,1.25s-1.5,1.875-3.5,2S63.5,9.75,61,11.5s0,1.5-4.25,1.375s-3.25,0.625-7,2.625
	s-3.875,2.125-8.125,0.125s-5.25-0.75-6.75-0.375s-1.125,0.875-4.125-0.625s-5.612-0.616-6.25,0.25C22.75,17.25,23.625,20.625,26,24
	z"/>
<path fill="#FFFFFF" stroke="#FC81CE" stroke-width="0.25" d="M28,20c-0.625-1.75-1.375-3.625,1.5-2.875s3.375,2.5,6.625,1.625
	s5.125-0.5,7.125,0.375s4.625,1.25,7.5-0.625s2.25-2.25,5.625-2.25s4-0.375,6-1.75s5.5-0.375,6.875-2.25s3.475-2.646,3.125,0.5
	c-0.125,1.125-1.25,1.125-0.5,3.125S72,18.75,70.75,20s-3.375,2.875-2.25,4.5s0.75,0.5,2.125,2.375s3.25,3.25,5.25,3s2,0,3.5,1.625
	s3.622,2.831,7.125,2.625c2.125-0.125,4,0.75,4.5,1.375s3,2.25-0.5,1.875s-4.5-0.75-6.75,0.25s-3.5,2.875-8,2.625s-7,0.5-7.875,3
	s-1.508,5.967-4.25,7.625c-1.792,1.084-1.427,2.942-1.542,4.667c-0.125,1.875-1.833,7.333-5.333,3.708s-1.375-4.75-4.625-5.125
	S47.75,52.375,46.25,50s-4.25-4-7-3s-3.875,0.625-6.75,0.75s-3.117,2.672-7.25,0.875c-2.875-1.25-2.5,0.125-5,0.75
	s-6.375-0.875-3.375-3s3.5-1.125,5.25-2.875S23.5,41,26.25,39.75s2.25-2.875,1.625-4.625s-0.5-3.5,0.875-5.5s2.238-3.485,0.75-4.75
	C27,22.75,28.414,21.159,28,20z"/>
<path fill="#22BC4A" stroke="#007F26" stroke-width="0.25" d="M66.625,33.375c-0.226,0.751-1.307,0.642-3.725-0.061
	c-0.797-0.231-3.524-0.741-3.163-1.84c0.43-1.308,1.491-0.589,3.718,0.001C66.375,32.25,66.875,32.542,66.625,33.375z"/>
<path fill="#F7512B" stroke="#AA2304" stroke-width="0.25" d="M57.053,25.758c0.02,0.785-1.101,0.854-3.618,0.888
	c-1.601,0.021-3.643,0.229-3.527-0.976c0.108-1.126,1.292-0.949,3.596-0.943C56.525,24.734,57.029,24.901,57.053,25.758z"/>
<path fill="#22BC4A" stroke="#007F26" stroke-width="0.25" d="M55.586,28.071c0.296,0.727-0.726,1.189-3.068,2.114
	c-1.489,0.588-3.325,1.507-3.644,0.339c-0.299-1.092,0.872-1.346,3.027-2.158C54.729,27.3,55.26,27.278,55.586,28.071z"/>
<path fill="#FEFF5F" stroke="#BFBA04" stroke-width="0.25" d="M59.772,34.934c-0.455,0.64-1.394,0.024-3.428-1.459
	c-1.294-0.943-3.053-2.001-2.238-2.896c0.762-0.836,1.603,0.016,3.444,1.402C59.964,33.797,60.267,34.234,59.772,34.934z"/>
<path fill="#DF0030" stroke="#A3052F" stroke-width="0.25" d="M62.978,19.107c0.513,0.594-0.309,1.359-2.234,2.981
	c-1.225,1.032-2.671,2.488-3.346,1.483c-0.63-0.94,0.397-1.554,2.182-3.011C61.92,18.65,62.416,18.46,62.978,19.107z"/>
<path fill="#00DEFF" stroke="#06A5B5" stroke-width="0.25" d="M65.08,23.182c0.56,0.551-0.198,1.379-1.986,3.152
	c-1.137,1.127-2.462,2.696-3.214,1.747c-0.706-0.885,0.27-1.58,1.931-3.176C63.989,22.812,64.468,22.582,65.08,23.182z"/>
<path fill="#ED3BA1" stroke="#C60C77" stroke-width="0.25" d="M72.757,35.638c-0.482,0.619-1.392-0.036-3.36-1.606
	c-1.252-0.999-2.963-2.132-2.109-2.991c0.798-0.803,1.602,0.085,3.379,1.549C72.999,34.512,73.282,34.96,72.757,35.638z"/>
<path fill="#FEFF5F" stroke="#BFBA04" stroke-width="0.25" d="M66.614,36.591c0.418,0.665-0.509,1.297-2.655,2.614
	c-1.365,0.837-3.013,2.06-3.53,0.965c-0.482-1.024,0.626-1.477,2.608-2.65C65.637,35.981,66.155,35.867,66.614,36.591z"/>
<path fill="#DF0030" stroke="#A3052F" stroke-width="0.25" d="M60.859,36.047c0.221,0.753-0.843,1.108-3.267,1.788
	c-1.543,0.432-3.463,1.158-3.66-0.037c-0.185-1.117,1.006-1.249,3.232-1.836C60.087,35.192,60.617,35.225,60.859,36.047z"/>
<path fill="#F7512B" stroke="#AA2304" stroke-width="0.25" d="M59.453,37c0.719,0.315,0.306,1.359-0.733,3.652
	c-0.661,1.458-1.341,3.395-2.382,2.778c-0.974-0.576-0.31-1.572,0.674-3.656C58.302,37.042,58.667,36.657,59.453,37z"/>
<path fill="#22BC4A" stroke="#007F26" stroke-width="0.25" d="M49.482,23.247c0.331,0.711-0.668,1.222-2.964,2.257
	c-1.459,0.658-3.249,1.664-3.623,0.512c-0.35-1.076,0.807-1.386,2.921-2.3C48.59,22.518,49.119,22.47,49.482,23.247z"/>
<path fill="#DF0030" stroke="#A3052F" stroke-width="0.25" d="M46.421,29.796c-0.265,0.739-1.335,0.399-3.694-0.479
	c-1.5-0.559-3.48-1.102-2.936-2.184c0.508-1.011,1.548-0.417,3.694,0.419C46.299,28.65,46.708,28.988,46.421,29.796z"/>
<path fill="#00DEFF" stroke="#06A5B5" stroke-width="0.25" d="M47.783,29.5c0.447,0.646-0.452,1.318-2.539,2.727
	c-1.327,0.896-2.921,2.189-3.484,1.118c-0.527-1.001,0.56-1.502,2.49-2.761C46.78,28.933,47.293,28.797,47.783,29.5z"/>
<path fill="#ED3BA1" stroke="#C60C77" stroke-width="0.25" d="M40.899,25.037c-0.254,0.743-1.329,0.419-3.701-0.423
	c-1.509-0.536-3.497-1.049-2.969-2.139c0.493-1.019,1.542-0.441,3.7,0.363C40.76,23.893,41.175,24.225,40.899,25.037z"/>
<path fill="#22BC4A" stroke="#007F26" stroke-width="0.25" d="M54.758,33.179c0.426,0.659-0.493,1.303-2.623,2.646
	c-1.354,0.854-2.987,2.097-3.518,1.009c-0.496-1.018,0.607-1.484,2.575-2.682C53.773,32.58,54.291,32.46,54.758,33.179z"/>
<path fill="#FC81CE" stroke="#C60C77" stroke-width="0.25" d="M50.723,37.842c-0.304,0.724-1.354,0.329-3.665-0.672
	c-1.469-0.636-3.417-1.283-2.818-2.334c0.56-0.983,1.567-0.336,3.667,0.612C50.661,36.691,51.052,37.051,50.723,37.842z"/>
<path fill="#FEFF5F" stroke="#BFBA04" stroke-width="0.25" d="M42.803,38.717c0.02,0.785-1.101,0.854-3.618,0.888
	c-1.601,0.021-3.643,0.229-3.527-0.976c0.108-1.126,1.292-0.949,3.596-0.943C42.275,37.692,42.779,37.86,42.803,38.717z"/>
<path fill="#F7512B" stroke="#AA2304" stroke-width="0.25" d="M38.063,35.772c-0.784-0.044-0.762-1.167-0.59-3.678
	c0.11-1.598,0.069-3.65,1.26-3.436c1.114,0.2,0.84,1.365,0.647,3.661C39.127,35.33,38.919,35.818,38.063,35.772z"/>
<path fill="#00DEFF" stroke="#06A5B5" stroke-width="0.25" d="M53.69,42.064c-0.167,0.767-1.272,0.568-3.725,0.002
	c-1.561-0.359-3.593-0.644-3.194-1.786c0.373-1.068,1.481-0.614,3.717-0.062C53.421,40.944,53.871,41.227,53.69,42.064z"/>
<path fill="#F7512B" stroke="#AA2304" stroke-width="0.25" d="M54.456,46.051c-0.109,0.777-1.226,0.664-3.715,0.284
	c-1.583-0.241-3.631-0.37-3.319-1.54c0.291-1.094,1.43-0.725,3.702-0.342C54.103,44.955,54.572,45.202,54.456,46.051z"/>
<path fill="#00DEFF" stroke="#06A5B5" stroke-width="0.25" d="M58.945,45.098c0.765,0.175,0.557,1.277-0.033,3.725
	c-0.375,1.558-0.679,3.587-1.817,3.177c-1.064-0.383-0.6-1.486-0.026-3.717C57.822,45.356,58.109,44.909,58.945,45.098z"/>
<path fill="#DF0030" stroke="#A3052F" stroke-width="0.25" d="M35.926,41.246c0.358,0.699-0.621,1.249-2.875,2.37
	c-1.434,0.713-3.184,1.786-3.602,0.649c-0.391-1.062,0.753-1.415,2.831-2.409C35.007,40.553,35.534,40.485,35.926,41.246z"/>
</svg>
