<?xml version="1.0" encoding="utf-8"?>
<!-- Generator: Adobe Illustrator 15.1.0, SVG Export Plug-In . SVG Version: 6.00 Build 0)  -->
<!DOCTYPE svg PUBLIC "-//W3C//DTD SVG 1.1//EN" "http://www.w3.org/Graphics/SVG/1.1/DTD/svg11.dtd">
<svg version="1.1" id="Layer_2" xmlns="http://www.w3.org/2000/svg" xmlns:xlink="http://www.w3.org/1999/xlink" x="0px" y="0px"
	 width="108px" height="80.75px" viewBox="0 0 108 80.75" enable-background="new 0 0 108 80.75" xml:space="preserve">
<path fill="#D4B87F" stroke="#B37631" stroke-width="0.35" d="M4.167,38.542c0.495-2.352-4.833,6.166-1.5,11.833
	s2.167,8.334,9.5,15.834s6.5,4.166,9.333,5.833s9.333,5.167,15,5.167s7.667,2,12.667,1.333s14.667-0.5,21-3.5
	s11.999-4.166,14.666-7.333S90,67.208,95,60.375s9.333-6.667,9.333-15s-2.5-9.166-3.333-9.833S90.999,50.209,85.333,52.209
	S63.5,64.041,57.167,63.875c-6.333-0.166-16.167,1.5-22.5-1s-8-3.833-15.333-10.833S3.5,41.709,4.167,38.542z"/>
<path fill="#F9F191" stroke="#CC9E29" stroke-width="0.5" d="M7.833,25.875c2.136-1.382,5-2.167,8-5.5s6.5-6.5,12.167-6.5
	s6-1.666,8.5-2.833s5.166-5.5,17.167-2.833s9.833,1.333,12.667,1s6-1.833,11,0.667s5.833,2.333,8.5,2.833s9.667,3.5,11.167,7.5
	s1.667,4.5,4.167,5.333s4.829,5.506,4.166,12.167c-0.166,1.667-1.334,5.833-4.5,7.833S97,48.209,96,51.209
	s-4.001,8.666-10.167,8.833S78,62.876,76.5,64.709s-5.833,7.166-13.5,6.666s-5.5-3-12.5-0.5s-9.833,2.334-15.667-0.666
	s-6.5-3.334-11.167-3.334S16.5,63.209,14.5,60.709s-1.167-3.334-4.667-4.834s-3.5-4.833-3.667-6.833s-1.318-4.923-3-7.667
	C0,36.208,2.167,29.542,7.833,25.875z"/>
<path fill="none" stroke="#CC9E29" stroke-width="0.5" d="M9.167,26.375c-1.333,1.333-6.192,8.786-2,15.334
	c2.667,4.166,3,5.333,2.333,7.166"/>
<path fill="none" stroke="#CC9E29" stroke-width="0.5" d="M10.333,52.209c0.833,1.333,1.833,1,3.833,1.5s3.667,3.167,4.667,5.5
	s3.167,4,7.5,4.333s7.167,1,9.667,3"/>
<path fill="none" stroke="#CC9E29" stroke-width="0.5" d="M41.333,67.875c1.833,0.834,4.833,1.334,8,0.167S56,65.709,59.5,66.542
	s6.499,1.167,11.333-2"/>
<path fill="none" stroke="#CC9E29" stroke-width="0.5" d="M77.833,59.375c-0.628,0.732,1.667-2.666,8.5-4
	c3.276-0.64,5.667-3.317,5.834-6c0.166-2.666,2.5-4.666,4.833-5.833s6.5-4.667,5.833-9.333"/>
<ellipse transform="matrix(0.5545 -0.8322 0.8322 0.5545 7.3488 61.6447)" fill="#BF001B" stroke="#77041A" stroke-width="0.25" cx="61.251" cy="23.958" rx="2.416" ry="3.583"/>
<ellipse transform="matrix(-0.4989 -0.8666 0.8666 -0.4989 105.315 114.4728)" fill="#FF7D3F" stroke="#B73908" stroke-width="0.25" cx="85.75" cy="26.792" rx="2.416" ry="3.583"/>
<ellipse transform="matrix(-0.4781 -0.8783 0.8783 -0.4781 88.0657 88.2452)" fill="#0095FF" stroke="#076199" stroke-width="0.25" cx="70.251" cy="17.958" rx="2.416" ry="3.583"/>
<ellipse transform="matrix(0.5545 -0.8322 0.8322 0.5545 2.1455 71.9248)" fill="#00BF09" stroke="#057508" stroke-width="0.25" cx="68.251" cy="33.958" rx="2.416" ry="3.583"/>
<ellipse transform="matrix(0.3906 -0.9205 0.9205 0.3906 2.0726 49.0481)" fill="#FF7D3F" stroke="#B73908" stroke-width="0.25" cx="38.084" cy="22.958" rx="2.416" ry="3.583"/>
<ellipse transform="matrix(-0.3264 -0.9452 0.9452 -0.3264 13.5667 89.2511)" fill="#F79CDD" stroke="#FF5FCC" stroke-width="0.25" cx="38.585" cy="39.792" rx="2.416" ry="3.583"/>
<ellipse transform="matrix(-0.5686 -0.8226 0.8226 -0.5686 17.7357 81.55)" fill="#BF001B" stroke="#77041A" stroke-width="0.25" cx="30.251" cy="36.125" rx="2.416" ry="3.583"/>
<ellipse transform="matrix(-0.3597 -0.9331 0.9331 -0.3597 56.5129 123.3638)" fill="#FFEE5F" stroke="#C9AD06" stroke-width="0.25" cx="70.585" cy="42.291" rx="2.416" ry="3.583"/>
<ellipse transform="matrix(-0.082 -0.9966 0.9966 -0.082 15.5326 117.2225)" fill="#FF7D3F" stroke="#B73908" stroke-width="0.25" cx="61.751" cy="51.458" rx="2.416" ry="3.582"/>
<ellipse transform="matrix(-0.5101 -0.8601 0.8601 -0.5101 78.9679 142.5607)" fill="#F79CDD" stroke="#FF5FCC" stroke-width="0.25" cx="80.084" cy="48.791" rx="2.416" ry="3.583"/>
<ellipse transform="matrix(0.4221 -0.9065 0.9065 0.4221 -29.5378 67.4605)" fill="#0095FF" stroke="#076199" stroke-width="0.25" cx="38.146" cy="56.899" rx="2.416" ry="3.583"/>
<ellipse transform="matrix(-0.4729 -0.8811 0.8811 -0.4729 5.8305 57.4043)" fill="#00BF09" stroke="#057508" stroke-width="0.25" cx="20.085" cy="26.958" rx="2.416" ry="3.582"/>
<g>
	<ellipse fill="#FC77CD" cx="52.5" cy="23.875" rx="1.5" ry="1.333"/>
	<ellipse fill="#FC77CD" cx="47.833" cy="26.042" rx="1.5" ry="1.333"/>
	<ellipse fill="#FC77CD" cx="57.833" cy="32.708" rx="1.5" ry="1.333"/>
	<ellipse fill="#FC77CD" cx="51.667" cy="32.375" rx="1.5" ry="1.333"/>
	<ellipse fill="#FC77CD" cx="73.5" cy="29.542" rx="1.5" ry="1.333"/>
	<ellipse fill="#FC77CD" cx="78.667" cy="21.375" rx="1.5" ry="1.333"/>
	<ellipse fill="#FC77CD" cx="81.5" cy="35.208" rx="1.5" ry="1.333"/>
	<ellipse fill="#FC77CD" cx="92.833" cy="31.208" rx="1.5" ry="1.333"/>
	<ellipse fill="#FC77CD" cx="82.833" cy="41.709" rx="1.5" ry="1.333"/>
	<ellipse fill="#FC77CD" cx="54.833" cy="38.542" rx="1.5" ry="1.333"/>
	<ellipse fill="#FC77CD" cx="60.666" cy="16.375" rx="1.5" ry="1.333"/>
	<ellipse fill="#FC77CD" cx="54.334" cy="15.375" rx="1.5" ry="1.333"/>
	<ellipse fill="#FC77CD" cx="41.667" cy="16.708" rx="1.5" ry="1.333"/>
	<ellipse fill="#FC77CD" cx="59.667" cy="43.209" rx="1.5" ry="1.333"/>
	<ellipse fill="#FC77CD" cx="48.667" cy="45.875" rx="1.5" ry="1.334"/>
	<ellipse fill="#FC77CD" cx="70" cy="52.209" rx="1.5" ry="1.333"/>
	<ellipse fill="#FC77CD" cx="37.5" cy="46.541" rx="1.5" ry="1.334"/>
	<ellipse fill="#FC77CD" cx="31.167" cy="45.209" rx="1.5" ry="1.333"/>
	<ellipse fill="#FC77CD" cx="25.833" cy="50.041" rx="1.5" ry="1.334"/>
	<ellipse fill="#FC77CD" cx="21.333" cy="37.042" rx="1.5" ry="1.333"/>
	<ellipse fill="#FC77CD" cx="33" cy="28.042" rx="1.5" ry="1.333"/>
	<ellipse fill="#FC77CD" cx="47.5" cy="63.709" rx="1.5" ry="1.333"/>
	<ellipse fill="#FC77CD" cx="13.5" cy="36.708" rx="1.5" ry="1.333"/>
	<ellipse fill="#FC77CD" cx="49.667" cy="57.375" rx="1.5" ry="1.334"/>
	<ellipse fill="#FC77CD" cx="56.167" cy="58.541" rx="1.5" ry="1.334"/>
	<ellipse fill="#FC77CD" cx="69.667" cy="58.709" rx="1.5" ry="1.333"/>
	<ellipse fill="#FC77CD" cx="89.5" cy="36.208" rx="1.5" ry="1.333"/>
	<ellipse fill="#FC77CD" cx="26.667" cy="55.375" rx="1.5" ry="1.334"/>
</g>
</svg>
