<?xml version="1.0" encoding="utf-8"?>
<!-- Generator: Adobe Illustrator 18.1.1, SVG Export Plug-In . SVG Version: 6.00 Build 0)  -->
<svg version="1.1" id="Layer_1" xmlns="http://www.w3.org/2000/svg" xmlns:xlink="http://www.w3.org/1999/xlink" x="0px" y="0px" width="500px" height="500px" viewBox="0 0 500 500" enable-background="new 0 0 500 500" xml:space="preserve"><clipPath id="SVGID_10_">
			<use xlink:href="#SVGID_9_" overflow="visible"/>
		</clipPath><clipPath id="SVGID_8_">
			<use xlink:href="#SVGID_7_" overflow="visible"/>
		</clipPath><clipPath id="SVGID_6_">
			<use xlink:href="#SVGID_5_" overflow="visible"/>
		</clipPath><clipPath id="SVGID_4_">
			<use xlink:href="#SVGID_3_" overflow="visible"/>
		</clipPath><clipPath id="SVGID_2_">
			<use xlink:href="#SVGID_1_" overflow="visible"/>
		</clipPath>
<symbol id="New_Symbol_4" viewBox="-58.9 -56.6 118 113.2">
	<g>
		<defs>
			<path id="SVGID_1_" d="M-15.2-11.8c0.1-2.2-0.5-4.3-1.2-6c-0.7-1.8-1.8-3.5-3.1-4.9l-7.1-7.9c0.5-2.1,0.5-4.8,0.5-4.8
				c1.8-5.5,4.6-9.1,4.6-9.1c2.1-1.3,2.5-2.9,2.5-2.9c1.4,0,2.8-3,2.8-3c-2.3-1.2-5.6,0.5-5.6,0.5l-0.4,2.1
				c-2.8,1.3-3.2,4.6-3.2,4.6c-0.5,2.1-5.6,12.9-6.2,13.2c-0.6,0.3-0.8,0.9-0.8,0.9c-0.3,2,1.3,3.7,1.3,3.7s1.5,1.5,2.3,2.7
				s1.1,5,1.5,5.7c0,0-1.5,2.4-3,2.5l4.1,5.1L-15.2-11.8z"/>
		</defs>
		<use xlink:href="#SVGID_1_" overflow="visible" fill="#D9874B"/>

		<path clip-path="url(#SVGID_2_)" fill="#656667" stroke="#364049" stroke-width="0.75" stroke-miterlimit="10" d="M-26-47.3
			c0,0,5.9-2,9.2,0.7l2.4-4.4l-1.9-2.3l-6.9,1L-26-47.3z"/>
		<use xlink:href="#SVGID_1_" overflow="visible" fill="none" stroke="#AB602F" stroke-width="0.75" stroke-miterlimit="10"/>
	</g>
	<g>

			<path fill="#F8EEB8" stroke="#D8BF70" stroke-width="0.65" stroke-linecap="round" stroke-linejoin="round" stroke-miterlimit="10" d="
			M-49.6-28.3c0,0,0.9,2.7-0.7,5.8c-1.6,3-3.9,8.7,4.8,21.3C-45-0.3-43.7-0.3-43-1c0.5-0.6,1.1-1.6,1.7-3.1l-1.1-11.7
			c0,0-2-6.9,1.8-11.3l-4-8c0,0-1.1-2.9-4.4-3.8l-0.2,2.4c0,0-1.3-2-5.5-2.2l1.6,1.6c0,0-6.2-1.3-5.5,6.7c0,0,2.9-3.5,7.1-2.7
			c0,0-2.6,0.5-2.4,4.6c0,0,2.2-2.2,3.3-1.6c-1.3,1.1-0.9,2.7-0.9,2.7L-49.6-28.3z"/>
		<g>
			<g>
				<path fill="#F8EEB8" d="M-47.4-15.6c0,0-0.1,9.6,3.2,12.2"/>
				<path fill="#D8BF70" d="M-47.5-15.6c0,0-0.2,3.2,0.4,6.5c0.1,0.8,0.3,1.6,0.5,2.4c0.2,0.7,0.5,1.4,0.9,1.9
					c0.1,0.3,0.3,0.5,0.5,0.7c0.2,0.2,0.3,0.4,0.5,0.5c0.3,0.2,0.5,0.3,0.5,0.3c0,0,0,0,0,0c0,0,0,0,0,0l0,0c0,0-0.1-0.2-0.3-0.4
					c-0.1-0.1-0.2-0.3-0.3-0.5c-0.1-0.2-0.2-0.4-0.4-0.7c-0.1-0.3-0.3-0.6-0.4-0.9c-0.1-0.3-0.2-0.6-0.3-1c-0.2-0.7-0.5-1.5-0.6-2.2
					C-47.3-12.3-47.4-15.6-47.5-15.6C-47.4-15.6-47.4-15.6-47.5-15.6C-47.4-15.6-47.5-15.6-47.5-15.6z"/>
			</g>
			<g>
				<path fill="#F8EEB8" d="M-44.8-16.3c0,0-1.8,5.4-0.4,9.8"/>
				<path fill="#D8BF70" d="M-44.8-16.3c0,0-0.2,0.6-0.5,1.5c-0.3,0.9-0.5,2.1-0.6,3.4c-0.1,0.6-0.1,1.3-0.1,1.9
					c0,0.6,0.1,1.1,0.2,1.6c0.1,0.5,0.3,0.8,0.4,1.1c0.1,0.3,0.2,0.4,0.2,0.4c0,0,0,0,0,0c0,0,0,0,0,0c0,0,0-0.2,0-0.4
					c0-0.3-0.1-0.7-0.1-1.1c0-0.2,0-0.5,0-0.7c0-0.3,0-0.5,0-0.8c0-0.6-0.1-1.2-0.1-1.8c0-1.2,0.2-2.4,0.3-3.4
					C-44.9-15.7-44.8-16.3-44.8-16.3C-44.8-16.3-44.8-16.3-44.8-16.3C-44.8-16.3-44.8-16.3-44.8-16.3z"/>
			</g>
			<g>
				<path fill="#F8EEB8" d="M-46.3-20.3c0,0,2-4,1-8.6"/>
				<path fill="#D8BF70" d="M-46.3-20.3c0,0,0.3-0.5,0.6-1.3c0.3-0.8,0.6-1.8,0.8-2.9c0.1-0.6,0.2-1.1,0.2-1.6c0-0.5,0-1-0.1-1.4
					c-0.1-0.4-0.2-0.8-0.3-1c-0.1-0.2-0.1-0.4-0.1-0.4c0,0,0,0,0,0c0,0,0,0,0,0c0,0,0,0.1,0,0.4c0,0.1,0,0.3,0,0.4
					c0,0.2,0,0.4,0,0.6c0,0.4,0,0.9,0,1.4c0,0.5,0,1,0,1.6c-0.1,1.1-0.3,2.1-0.5,2.9C-46.1-20.8-46.3-20.3-46.3-20.3
					C-46.3-20.3-46.3-20.3-46.3-20.3C-46.3-20.3-46.3-20.3-46.3-20.3z"/>
			</g>
			<g>
				<path fill="#F8EEB8" d="M-43.8-23.9c0,0,0.8-2.3,0.6-3.7"/>
				<path fill="#D8BF70" d="M-43.8-23.8c0,0,0.4-0.8,0.7-1.8c0.1-0.2,0.2-0.5,0.2-0.7c0-0.2,0-0.4,0-0.6c-0.1-0.4-0.2-0.6-0.2-0.6
					c0,0,0,0-0.1,0c0,0,0,0,0,0c0,0-0.1,0.2-0.2,0.6c-0.1,0.2-0.1,0.4-0.1,0.6c0,0.2,0,0.4,0,0.7C-43.7-24.8-43.8-23.9-43.8-23.8
					C-43.8-23.8-43.8-23.8-43.8-23.8C-43.8-23.8-43.8-23.8-43.8-23.8z"/>
			</g>
			<g>
				<path fill="#F8EEB8" d="M-50.2-31.8c0.5,1,0.9,2.7,0.9,5.4"/>
				<path fill="#D8BF70" d="M-50.2-31.8c0,0,0.1,0.3,0.3,0.8c0.1,0.5,0.2,1.2,0.3,1.9c0,0.3,0,0.7,0,1c0,0.3,0.1,0.6,0.1,0.9
					c0.1,0.3,0.1,0.5,0.1,0.6c0,0.2,0.1,0.2,0.1,0.2c0,0,0,0,0,0c0,0,0,0,0,0c0,0,0.1-0.3,0.2-0.9c0-0.3,0.1-0.6,0-0.9
					c0-0.3-0.1-0.7-0.2-1c-0.1-0.7-0.3-1.4-0.6-1.9C-50-31.5-50.2-31.8-50.2-31.8C-50.2-31.8-50.2-31.8-50.2-31.8
					C-50.2-31.8-50.2-31.8-50.2-31.8z"/>
			</g>
			<g>
				<path fill="#F8EEB8" d="M-58.4-33.3c0,0,1.8-2.7,4.8-2.4"/>
				<path fill="#D8BF70" d="M-58.4-33.3c0,0,0.2-0.3,0.6-0.6c0.4-0.3,1-0.7,1.6-1c0.3-0.1,0.6-0.2,0.9-0.3c0.3-0.1,0.6-0.2,0.8-0.2
					c0.1,0,0.2-0.1,0.3-0.1c0.1,0,0.2,0,0.3-0.1c0.2,0,0.2-0.1,0.2-0.1c0,0,0,0,0,0c0,0,0,0,0,0c0,0-0.1,0-0.2-0.1
					c-0.2-0.1-0.4-0.1-0.7-0.1c-0.3,0-0.6,0-1,0.1c-0.3,0.1-0.7,0.3-1,0.5c-0.6,0.4-1.2,0.9-1.5,1.3C-58.3-33.6-58.4-33.3-58.4-33.3
					C-58.4-33.3-58.4-33.3-58.4-33.3C-58.4-33.3-58.4-33.3-58.4-33.3z"/>
			</g>
			<g>
				<path fill="#F8EEB8" d="M-48.2-37.1c0,0,1.4,1.2,2.5,3.8"/>
				<path fill="#D8BF70" d="M-48.2-37.1c0,0,0.2,0.2,0.4,0.6c0.2,0.4,0.6,0.8,0.8,1.3c0.1,0.3,0.2,0.5,0.4,0.7
					c0.1,0.2,0.3,0.4,0.4,0.6c0.1,0.2,0.2,0.3,0.3,0.4c0.1,0.1,0.2,0.1,0.2,0.1c0,0,0,0,0.1,0c0,0,0,0,0,0c0,0,0-0.3-0.1-0.8
					c-0.1-0.2-0.2-0.5-0.3-0.7c-0.1-0.2-0.3-0.5-0.5-0.7c-0.4-0.5-0.8-0.9-1.1-1.2C-47.9-37-48.2-37.1-48.2-37.1
					C-48.2-37.1-48.2-37.1-48.2-37.1C-48.2-37.1-48.2-37.1-48.2-37.1z"/>
			</g>
		</g>
	</g>

		<path fill="#F8EEB8" stroke="#B7A165" stroke-width="0.5" stroke-linecap="round" stroke-linejoin="round" stroke-miterlimit="10" d="
		M-3.8,22.9c0,0-0.4,2,0.8,4.2c0,0-0.1-0.4-1.8-1c0,0,0.5,1,0.9,2.3s1.1,3.1,2.5,3.5c0,0-1-0.3-1.7,0.4c0,0,1.6,0.8,2.1,1.6
		S1.4,35,1.4,35s-0.5,1.1,0,2c0,0,1.5,0,2.2,0.4c0,0-0.5,1-0.5,1.5S2,39.6,2,39.6s1.5,1.5,4.7,1.9c2.2,0.3,3,0.7,3,0.7S9,43,9,43.7
		s-1.2,1.2-1.2,1.2s2,0.9,3.4,0.3c0,0-0.4,1,0,1.5c0,0,1-0.6,2.5,0c0,0-0.5,0.9,0,1.6c0,0,1.8-0.8,3.2,0s2.1,1.2,3.7,1.3
		c0,0-0.9,0.3-1.2,0.8c0,0,2.2,0.7,3.1,0.9c0.5,0.1,5.7,1.1,7.2-2.2c0,0-2.3-6.3-3.8-7.6C21.7,37.8,7,28.7,7,28.7l-9.1-5.8H-3.8z"/>
	<g>
		<g>
			<path fill="#D8BF70" d="M4.8,35.1c0,0,0.7,0.1,1.8,0.4c1,0.3,2.4,0.9,3.6,1.6c0.6,0.4,1.2,0.8,1.8,1.1c0.5,0.4,1.1,0.7,1.5,1
				c0.5,0.3,0.8,0.6,1.1,0.8c0.3,0.2,0.4,0.3,0.4,0.3c0,0,0,0,0,0c0,0,0,0,0,0c0,0-0.1-0.1-0.3-0.4c-0.2-0.2-0.5-0.6-0.9-0.9
				c-0.4-0.4-0.9-0.8-1.5-1.2c-0.6-0.4-1.2-0.7-1.9-1.1C9,36,7.6,35.5,6.6,35.3C5.5,35,4.8,35,4.8,35.1C4.7,35,4.7,35,4.8,35.1
				C4.7,35,4.7,35.1,4.8,35.1z"/>
		</g>
		<g>
			<path fill="#D8BF70" d="M8.6,38.9c0,0,0.5-0.1,1.3,0.1c0.8,0.2,1.8,0.6,2.7,1.1c0.5,0.3,0.9,0.6,1.3,0.9c0.4,0.3,0.8,0.5,1.2,0.7
				c0.7,0.4,1.2,0.7,1.2,0.7c0,0,0,0,0,0c0,0,0,0,0,0c0,0-0.1-0.1-0.3-0.3c-0.1-0.1-0.2-0.2-0.3-0.3c-0.1-0.1-0.2-0.3-0.4-0.4
				c-0.3-0.3-0.7-0.6-1.1-0.9c-0.4-0.3-0.9-0.5-1.4-0.8c-1-0.5-2.1-0.8-2.9-0.9C9.2,38.7,8.6,38.9,8.6,38.9
				C8.6,38.9,8.6,38.9,8.6,38.9C8.6,38.9,8.6,38.9,8.6,38.9z"/>
		</g>
		<g>
			<path fill="#D8BF70" d="M-1.7,27.9c0,0,1.3,1.5,2.9,2.6c0.4,0.3,0.8,0.6,1.2,0.8c0.4,0.2,0.8,0.3,1.2,0.4
				c0.4,0.1,0.7,0.1,0.9,0.1c0.2,0,0.3,0,0.3,0c0,0,0,0,0,0c0,0,0,0,0,0c0,0-0.1,0-0.3-0.1c-0.2-0.1-0.5-0.2-0.8-0.3
				C3.3,31.2,3,31,2.6,30.8c-0.4-0.2-0.8-0.4-1.2-0.7C-0.3,29.2-1.7,27.8-1.7,27.9C-1.7,27.8-1.7,27.8-1.7,27.9
				C-1.7,27.8-1.7,27.9-1.7,27.9z"/>
		</g>
		<g>
			<path fill="#D8BF70" d="M6,33.6c0,0,0.4,0.1,1.1,0.4c0.6,0.3,1.4,0.7,2.2,1.2c0.4,0.3,0.7,0.6,1,0.8c0.3,0.3,0.6,0.5,0.9,0.7
				c0.3,0.2,0.5,0.4,0.6,0.6c0.1,0.1,0.2,0.2,0.2,0.2c0,0,0,0,0,0c0,0,0,0,0,0c0,0,0-0.1-0.1-0.3c-0.1-0.2-0.2-0.4-0.5-0.7
				c-0.2-0.3-0.5-0.6-0.8-0.9c-0.3-0.3-0.7-0.5-1.1-0.8c-0.8-0.5-1.7-0.9-2.3-1.1C6.5,33.7,6.1,33.6,6,33.6C6,33.6,6,33.6,6,33.6
				C6,33.6,6,33.6,6,33.6z"/>
		</g>
		<g>
			<path fill="#D8BF70" d="M13.1,43.1c0,0,0.4-0.1,0.9,0c0.6,0,1.3,0.2,2,0.5c0.3,0.1,0.7,0.3,1,0.5c0.3,0.1,0.6,0.3,0.9,0.4
				c0.3,0.1,0.5,0.2,0.6,0.3c0.2,0.1,0.2,0.1,0.2,0.1c0,0,0,0,0,0c0,0,0,0,0,0c0,0-0.2-0.3-0.7-0.7c-0.2-0.2-0.5-0.4-0.8-0.5
				c-0.3-0.2-0.7-0.3-1.1-0.4c-0.7-0.2-1.5-0.3-2.1-0.2C13.5,43,13.1,43.1,13.1,43.1C13.1,43.1,13.1,43.1,13.1,43.1
				C13.1,43.1,13.1,43.1,13.1,43.1z"/>
		</g>
		<g>
			<path fill="#D8BF70" d="M15.9,45.5c0,0,0.2,0,0.6,0c0.3,0,0.8,0,1.2,0.2c0.2,0.1,0.4,0.1,0.6,0.2c0.2,0.1,0.4,0.1,0.5,0.1
				c0.2,0,0.3,0.1,0.4,0.1c0.1,0,0.2,0,0.2,0c0,0,0,0,0,0c0,0,0,0,0,0c0,0-0.1-0.2-0.4-0.4c-0.2-0.1-0.3-0.2-0.5-0.3
				c-0.2-0.1-0.5-0.1-0.7-0.1c-0.5,0-0.9,0-1.3,0.1C16.1,45.3,15.9,45.4,15.9,45.5C15.9,45.5,15.9,45.5,15.9,45.5
				C15.9,45.5,15.9,45.5,15.9,45.5z"/>
		</g>
		<g>
			<path fill="#D8BF70" d="M18.7,46.9c0,0,0.3,0.1,0.7,0.2c0.1,0,0.2,0,0.3,0.1c0.1,0,0.2,0,0.2-0.1c0.1-0.1,0.2-0.2,0.2-0.2
				c0,0,0,0,0,0c0,0-0.1-0.1-0.2-0.2c-0.1,0-0.1-0.1-0.2-0.1c-0.1,0-0.2,0-0.2,0.1C19.1,46.8,18.8,46.8,18.7,46.9
				C18.7,46.8,18.7,46.8,18.7,46.9C18.7,46.9,18.7,46.9,18.7,46.9z"/>
		</g>
	</g>
	<g>
		<defs>
			<path id="SVGID_3_" d="M29.5,48.6c0,0,0.4,0.8,1.7,1.6s2.4,3.2,2.4,3.2s0.9-0.5,0.4-1.4c-0.6-1.2-0.6-4.6-2.6-4.6L29.5,48.6z"/>
		</defs>
		<use xlink:href="#SVGID_3_" overflow="visible" fill="#D9874B"/>


			<path clip-path="url(#SVGID_4_)" fill="#F9D4D8" stroke="#AB602F" stroke-width="0.5" stroke-linecap="round" stroke-linejoin="round" stroke-miterlimit="10" d="
			M29.1,48.4c0,0,2.2-0.2,3.5,1.2c0.7,0.8,1.4,1.9,1.7,3l2.6,0.2l-0.2-3.2L32,45.3L29.1,48.4z"/>

			<use xlink:href="#SVGID_3_" overflow="visible" fill="none" stroke="#AB602F" stroke-width="0.5" stroke-linecap="round" stroke-linejoin="round" stroke-miterlimit="10"/>
	</g>
	<g>
		<defs>
			<path id="SVGID_5_" d="M56-30.5l-2.8,2.8c-1.4,2.3-3.7,3.1-3.7,3.1c-1.5,0.5-6.6,7-6.6,7c-1.9,6-4.6,6.3-4.6,6.3
				c-1.4,0.4-5.5,6.8-5.5,6.8c0,1-0.7,1.9-0.7,1.9c-1.3,1.3-3.7,3.5-5.3,4.9c0.4,2.5,0.3,5-0.4,7.4c0.3,4-1.1,8.2-4,11.1
				c0.3,3,1.2,6,2.6,8.7c0.8,1,1.9,1.7,3,2.2c1.1-0.7,2.2-1.4,3.4-2c1.1-0.9,2.5-1.4,3.9-1.5c1.5-0.1,2.6-1.2,3.8-2.3
				c0.4-0.4,1.1-0.8,1.5-0.9c1.4-0.2,1.8,0.2,2.6,0.5c0.2,0.2,0.4,0.5,0.7,0.7c0.7,0.8,1,1.8,0.9,2.9c0,0.1,0,0.2,0,0.2
				c0.2,0.3,0.4,0.7,0.5,1c0.3,0.9,0.4,1.4-0.4,2c-0.4,0.3-1.2,1.1-1.6,1.4c0,0.7-0.5,1.5-1,2.1c-1.3,1.6-2.8,3.2-4.4,4.6
				c-0.2,0.3-0.3,0.6-0.4,0.9c-0.1,0.9-0.5,1.7-1,2.4c-0.9,1-1.8,2-2.8,2.9c-1.2,1-2.5,1.9-3.9,2.5c-1.6,0.7-3.5,0.6-5.1,0
				c-0.6-0.2-1.2-0.5-1.8-0.8c-4.6-2.1-8.5-5.6-11.4-9.7c-1.2-1.7-2.3-3.6-3.3-5.5C4,32.4,0.4,29.4-2,25.8c-1.9-2.7-3.2-5.8-4.3-8.9
				c-2-2-4.8-3-7.6-3.4c-3.4-0.5-6.8-0.2-10.2-0.3h0c-1.9-0.1-3.7-0.6-5.3-1.5c-3.1-1.7-6.1-3.7-8.6-6.1c-3.4-3.2-6.2-7.5-7.1-12.1
				c-0.3-4.8,0.8-9.7,3.2-13.9c0.2-1.8,0.2-3.6-0.1-5.3c-0.6-1.1-1.3-2.2-2.2-3.2c-2.2-0.1-2.8-5.4-2.5-6.6c0.5-3.1,0.9-7.6,1-10.7
				c-0.3-0.7-0.5-1.4-0.6-2.1c0.3-1.3,0.9-2.6,2-3.5c0.1-0.4,0.3-0.8,0.6-1.2c1.7-0.4,3.5-0.3,5,0.3c-0.4,0.8-1.1,1.6-1.8,2.2
				c-0.3,1.6-0.5,1.9-1.8,2.8c-0.4,1.9-1.4,5.8-0.9,9.4c1.6,3.4,3.8,6.6,6.3,9.5c2.9,0.1,3.2,6.6,3.5,9.5c1.1,1.7,2.5,3.3,4.1,4.6
				c1.2,1.1,2.8,1.6,4.4,1.6l0,0c2.2,0,4.5,0.3,6.7,0.1C-9.5-13.8,1.3-10.7,7-7.2c1.8,0,3.6,0.4,5.4,1c2.3,0.8,4.5,2,6.7,3.2
				c0.4,0.2,0.8,0.4,1.2,0.5l9.1-4.2l6.8-9.6c3.3,0,10.9-10.9,10.9-10.9s-0.1-1,0.5-1.6c0.7-0.7,2.3-1.5,2.3-1.5
				c-0.3-0.8,0.4-2.5,0.4-2.5c3.1-0.7,4.8-0.1,5.6,0.5C56.5-31.8,56.5-31,56-30.5z"/>
		</defs>
		<use xlink:href="#SVGID_5_" overflow="visible" fill="#D9874B"/>

		<g clip-path="url(#SVGID_6_)">
			<path fill="#656667" stroke="#364049" stroke-width="0.75" stroke-miterlimit="10" d="M44.7-30.3c0,0,8.6-1.1,9.8,2.8l4.1-3.9
				l-2.2-2.4l-7.2-0.8L44.7-30.3z"/>
			<path fill="#656667" stroke="#364049" stroke-width="0.75" stroke-miterlimit="10" d="M-46.3-52c0,0,5.7-0.4,6.9,3l2.8-5.4
				l-3.4-1.9l-7.4,0.5L-46.3-52z"/>
		</g>
		<use xlink:href="#SVGID_5_" overflow="visible" fill="none" stroke="#AB602F" stroke-width="0.75" stroke-miterlimit="10"/>
	</g>
	<g>
		<defs>
			<path id="SVGID_7_" d="M19.3,15.2c0,0,0.8-0.6,1.1-2.5c0.2-1.2,0.1-2.4-0.3-3.5c-1-3.5-3.8-5.9-3.8-5.9c-1-1.1-1-2.5-1-2.5
				s6.6-2.4,10.2-2.5c0,0,1.1,0.2,2.2-0.4s2.4-2.6,2.7-3.9c0,0,4.8-6.4,5.8-7.1s0.4-2.5,0.4-2.5l0.5-3.6c0.1-0.5,0.1-1,0-1.4
				c-0.1-0.5-0.1-1.1,0-1.4c0.7-1.6-1.5-2.3-3.2-0.7c-0.8,0.7-1.3,1.7-1.5,2.5c-0.1,0.5,0.1,1,0.5,1.2l1,0.5v1.5
				c-2.3,1.2-1,3.3-1,3.3c-1.3,3.3-4.2,6-4.2,6c-3.5,0.5-3.2,3-3.2,3c-7.2-0.8-12-0.4-14.7,0C9.1-4.7,7.5-3.5,6.8-1.8L4.8,3
				c0,0-1.9,3-3.1,4.7s0,7.7,0,7.7C-0.7,17.2,0.4,21,0.4,21"/>
		</defs>
		<use xlink:href="#SVGID_7_" overflow="visible" fill="#D9874B"/>

		<path clip-path="url(#SVGID_8_)" fill="#656667" stroke="#364049" stroke-width="0.75" stroke-miterlimit="10" d="M32.7-17.6
			c0,0,3.4-6.5,5.2-2.9l0.8-3.4l-2-2.2l-4,1.6l-2,5.1L32.7-17.6z"/>
		<use xlink:href="#SVGID_7_" overflow="visible" fill="none" stroke="#AB602F" stroke-width="0.75" stroke-miterlimit="10"/>
	</g>
	<path fill="#231F20" d="M31.2,40.2c0-0.7,0.3-1.3,0.8-1.3c0.4,0,0.8,0.6,0.8,1.3c0,0.7-0.3,1.3-0.8,1.3
		C31.5,41.5,31.2,40.9,31.2,40.2z"/>
	<g>
		<g>
			<path fill="#AB602F" d="M-2.1,2.4c0,0,0.4-0.3,1.2-0.7c0.7-0.4,1.7-0.8,2.8-1c0.5-0.1,1-0.2,1.5-0.2c0.5-0.1,1-0.1,1.3-0.2
				c0.2,0,0.4-0.1,0.5-0.1c0.2,0,0.3,0,0.4-0.1C5.9,0.1,6,0,6,0c0,0,0,0,0,0c0,0,0,0,0,0c0,0-0.5-0.2-1.4-0.3c-0.4-0.1-0.9,0-1.4,0
				C2.7-0.2,2.2-0.1,1.7,0.1C0.6,0.5-0.4,1-1.1,1.5C-1.8,1.9-2.2,2.3-2.1,2.4C-2.2,2.4-2.2,2.4-2.1,2.4C-2.1,2.4-2.1,2.4-2.1,2.4z"/>
		</g>
		<g>
			<path fill="#AB602F" d="M-31.8-8.1c0.2-0.4,0.6-0.7,0.9-0.9c0.4-0.3,0.7-0.5,1.1-0.7c0.8-0.4,1.6-0.7,2.5-0.9
				c0.9-0.2,1.7-0.4,2.6-0.5c0.9-0.1,1.8-0.2,2.6-0.2c0,0,0,0,0.1,0l0,0c0.8-0.2,1.6-0.4,2.4-0.5c0.8-0.1,1.6-0.3,2.4-0.4
				c0.8-0.1,1.6-0.2,2.4-0.2c0.8-0.1,1.6-0.1,2.5-0.1c0,0,0,0,0,0c0,0,0,0,0,0c-0.8-0.2-1.7-0.3-2.5-0.3c-0.8-0.1-1.7,0-2.5,0
				c-0.8,0.1-1.7,0.2-2.5,0.4c-0.8,0.2-1.6,0.4-2.4,0.7l0.1,0c-0.9,0.1-1.8,0.2-2.7,0.4c-0.9,0.2-1.8,0.4-2.6,0.6
				c-0.9,0.3-1.7,0.6-2.5,1c-0.4,0.2-0.8,0.5-1.1,0.8C-31.4-8.9-31.7-8.6-31.8-8.1C-31.9-8.1-31.9-8.1-31.8-8.1
				C-31.9-8.1-31.9-8.1-31.8-8.1z"/>
		</g>
		<g>
			<path fill="#AB602F" d="M-30.6,7.8c0,0,0.1,0.3,0.4,0.8c0.3,0.5,0.8,1,1.3,1.5c0.3,0.2,0.6,0.5,0.9,0.6c0.3,0.1,0.6,0.3,0.9,0.3
				c0.6,0.1,0.9,0,0.9,0c0,0,0,0,0,0c0,0,0,0,0,0c0,0-0.1-0.1-0.2-0.2c-0.1-0.1-0.3-0.2-0.5-0.3c-0.2-0.1-0.5-0.3-0.8-0.4
				c-0.3-0.1-0.6-0.3-0.9-0.4c-0.6-0.4-1.1-0.8-1.5-1.2C-30.3,8.1-30.5,7.8-30.6,7.8C-30.5,7.7-30.5,7.7-30.6,7.8
				C-30.6,7.8-30.6,7.8-30.6,7.8z"/>
		</g>
		<g>
			<path fill="#AB602F" d="M10,28.3c0,0,0.1,1.1,0.5,2.7c0.4,1.6,1.1,3.6,2,5.6c0.2,0.5,0.5,1,0.7,1.5c0.2,0.5,0.5,0.9,0.7,1.4
				c0.3,0.4,0.5,0.8,0.8,1.2c0.3,0.4,0.5,0.7,0.8,1c0.5,0.6,1,1.1,1.3,1.5c0.3,0.3,0.5,0.5,0.5,0.5c0,0,0,0,0.1,0c0,0,0,0,0,0
				c0,0-0.1-0.2-0.4-0.6c-0.1-0.2-0.3-0.4-0.5-0.7c-0.2-0.3-0.4-0.6-0.6-0.9c-0.2-0.3-0.5-0.7-0.7-1.1c-0.2-0.4-0.5-0.8-0.7-1.2
				c-0.5-0.9-1.1-1.8-1.6-2.7c-1-1.9-1.8-3.9-2.2-5.4C10.3,29.3,10.1,28.3,10,28.3C10.1,28.3,10.1,28.2,10,28.3
				C10.1,28.2,10,28.3,10,28.3z"/>
		</g>
		<g>
			<path fill="#AB602F" d="M22.8,14.3c0,0-0.2,0.5-0.4,1.3c-0.2,0.8-0.4,1.9-0.4,3c0,0.6-0.1,1.1,0,1.6c0,0.5,0.1,1,0.3,1.4
				c0.1,0.4,0.2,0.7,0.4,0.9c0.1,0.2,0.2,0.3,0.2,0.3c0,0,0,0,0.1,0c0,0,0,0,0,0c0,0,0-0.1,0-0.4c0-0.1,0-0.3,0-0.4
				c0-0.2,0-0.4,0-0.6c0-0.4-0.1-0.9-0.1-1.4c-0.1-0.5-0.1-1-0.1-1.6c-0.1-1.1,0-2.1,0.1-3C22.8,14.8,22.9,14.3,22.8,14.3
				C22.9,14.3,22.9,14.3,22.8,14.3C22.8,14.2,22.8,14.3,22.8,14.3z"/>
		</g>
		<g>
			<path fill="#AB602F" d="M22.3,4c0,0,0-0.4-0.3-1c-0.2-0.6-0.7-1.4-1.3-2c-0.3-0.3-0.7-0.6-1-0.8C19.4,0,19-0.1,18.7-0.1
				c-0.3,0-0.6,0-0.8,0c-0.2,0-0.3,0-0.3,0c0,0,0,0,0,0c0,0,0,0,0,0c0,0,0.1,0.1,0.3,0.1c0.1,0,0.2,0.1,0.3,0.1
				c0.1,0,0.2,0.1,0.4,0.2c0.1,0.1,0.3,0.1,0.4,0.2c0.1,0.1,0.3,0.1,0.5,0.2c0.3,0.2,0.7,0.3,1,0.6c0.6,0.5,1.1,1.1,1.4,1.6
				C22.2,3.6,22.3,4,22.3,4C22.3,4.1,22.3,4.1,22.3,4C22.3,4.1,22.3,4,22.3,4z"/>
		</g>
		<g>
			<path fill="#AB602F" d="M17.4,21c0,0-0.2,0.7-0.4,1.7c-0.2,1-0.3,2.5-0.3,3.9c0,0.7,0,1.4,0.1,2.1c0.1,0.7,0.3,1.3,0.4,1.8
				c0.2,0.5,0.4,0.9,0.5,1.2c0.1,0.3,0.2,0.4,0.2,0.4c0,0,0,0,0.1,0c0,0,0,0,0,0c0,0,0-0.2-0.1-0.5c0-0.2,0-0.3-0.1-0.5
				c0-0.2-0.1-0.4-0.1-0.7c-0.1-0.5-0.2-1.1-0.3-1.8c-0.1-0.6-0.2-1.3-0.3-2c-0.1-1.4-0.1-2.8,0-3.8C17.4,21.7,17.5,21,17.4,21
				C17.5,21,17.5,21,17.4,21C17.4,21,17.4,21,17.4,21z"/>
		</g>
		<g>
			<path fill="#AB602F" d="M28.6,46c-0.3-0.3-0.6-0.7-0.7-1.2c-0.1-0.4-0.2-0.9-0.2-1.4c0-0.9,0-1.9,0-2.8c0,0,0-0.1,0-0.1l0,0
				c-0.4-1-0.8-2.1-1-3.2c-0.1-0.3-0.1-0.5-0.2-0.8c0-0.3-0.1-0.5-0.1-0.8c0-0.3,0-0.5,0.1-0.8c0.1-0.2,0.1-0.5,0.2-0.7
				c0.4-1,1.1-1.8,2-2.5c0.8-0.7,1.8-1.4,2.7-1.9c0,0,0,0,0-0.1c0,0,0,0,0,0c-1.1,0.4-2.1,0.9-3,1.6c-0.9,0.7-1.8,1.5-2.3,2.6
				c-0.1,0.3-0.2,0.6-0.3,0.9c-0.1,0.3-0.1,0.7-0.1,0.9c0,0.3,0.1,0.6,0.1,0.9c0.1,0.3,0.2,0.6,0.2,0.8c0.4,1.1,0.8,2.1,1.3,3.2
				l0-0.1c0,1,0,1.9,0.1,2.8c0.1,0.5,0.1,0.9,0.3,1.4C27.9,45.4,28.2,45.7,28.6,46C28.6,46.1,28.6,46.1,28.6,46
				C28.6,46,28.6,46,28.6,46L28.6,46z"/>
		</g>
		<g>
			<path fill="#AB602F" d="M31.6,37.1l1.4,0.1c0,0,0.1,0,0.1,0l0,0l1.2-1l0.6-0.5c0.2-0.2,0.4-0.4,0.6-0.5c0.4-0.3,0.8-0.5,1.3-0.5
				c0.2,0,0.5,0,0.7,0l0.3,0l0.4,0.1l0.1,0c0.1,0,0.3,0,0.3-0.1c0.2-0.3,0.4-0.5,0.6-0.8c0.1-0.1,0.2-0.3,0.3-0.4
				c0.1-0.1,0.2-0.2,0.4-0.3l0,0c0,0,0,0,0,0c0,0,0,0,0,0c-0.2-0.1-0.4,0-0.6,0.1c-0.2,0.1-0.3,0.2-0.5,0.3
				c-0.3,0.2-0.6,0.4-0.8,0.7l0.4-0.1l-0.4-0.1c-0.2-0.1-0.3-0.1-0.5-0.1c-0.3,0-0.6,0-0.9,0.1c-0.6,0.1-1.1,0.4-1.5,0.8
				c-0.2,0.2-0.4,0.4-0.6,0.6l-0.5,0.6l-1.1,1.2l0.1,0L31.6,37.1C31.6,37,31.5,37,31.6,37.1C31.5,37.1,31.6,37.1,31.6,37.1z"/>
		</g>
		<g>
			<path fill="#AB602F" d="M-33.9-10.4c0.6-0.6,1-1.4,1-2.2c0-0.4,0-0.9-0.2-1.3c-0.1-0.2-0.2-0.4-0.3-0.6c-0.1-0.2-0.2-0.3-0.4-0.5
				l0.1,0.2c0.1-1.2,0.3-2.4,0.3-3.6c0-1.2-0.1-2.5-0.5-3.6c0,0,0,0,0,0c0,0,0,0,0,0c-0.1,1.2-0.1,2.4-0.2,3.6c0,1.2,0,2.4-0.1,3.6
				c0,0.1,0,0.1,0.1,0.2c0.1,0.1,0.3,0.3,0.4,0.4c0.1,0.2,0.2,0.3,0.3,0.5c0.2,0.3,0.3,0.7,0.3,1.1C-33.2-11.9-33.5-11.1-33.9-10.4
				C-34-10.5-34-10.4-33.9-10.4C-33.9-10.4-33.9-10.4-33.9-10.4z"/>
		</g>
		<g>
			<path fill="#AB602F" d="M25.1,14.3c0,0,0.5-1.6,1.1-3.2c0.2-0.4,0.4-0.8,0.5-1.1c0.1-0.4,0.2-0.8,0.2-1.1c0.1-0.7,0-1.1,0-1.1
				c0,0,0,0,0,0c0,0,0,0,0,0c0,0-0.1,0.1-0.2,0.3c-0.1,0.2-0.2,0.4-0.3,0.7c-0.1,0.3-0.3,0.6-0.4,1c-0.1,0.4-0.2,0.8-0.3,1.2
				c-0.2,0.8-0.4,1.7-0.5,2.3C25.1,13.9,25,14.3,25.1,14.3C25,14.3,25.1,14.3,25.1,14.3C25.1,14.3,25.1,14.3,25.1,14.3z"/>
		</g>
		<g>
			<path fill="#AB602F" d="M26,3.6c0,0,0.2,0.2,0.3,0.5c0.2,0.3,0.3,0.8,0.3,1.2c0,0.2,0,0.5,0,0.7c0,0.2,0,0.4,0.1,0.6
				c0.1,0.2,0.1,0.3,0.1,0.4c0,0.1,0.1,0.2,0.1,0.2c0,0,0,0,0.1,0c0,0,0,0,0,0c0,0,0.2-0.2,0.3-0.6c0.1-0.2,0.1-0.4,0.1-0.7
				c0-0.2-0.1-0.5-0.2-0.7c-0.2-0.5-0.4-1-0.7-1.2C26.2,3.6,26,3.5,26,3.6C26,3.5,26,3.5,26,3.6C26,3.5,26,3.6,26,3.6z"/>
		</g>
		<g>
			<path fill="#AB602F" d="M6.1-5.5c0,0-0.5-0.6-1.4-1.4C3.8-7.6,2.5-8.6,1.1-9.4c-0.3-0.2-0.7-0.4-1-0.6c-0.3-0.2-0.7-0.3-1-0.5
				c-0.3-0.1-0.7-0.3-1-0.4c-0.3-0.1-0.6-0.2-0.9-0.3c-0.6-0.1-1.1-0.2-1.4-0.2c-0.3,0-0.5,0-0.5,0c0,0,0,0,0,0c0,0,0,0,0,0
				c0,0,0.2,0.1,0.5,0.2C-4.2-11-4-11-3.7-10.9c0.2,0.1,0.5,0.2,0.7,0.3c0.3,0.1,0.6,0.2,0.9,0.4c0.3,0.1,0.6,0.3,1,0.4
				c0.7,0.3,1.4,0.6,2.1,0.9c1.4,0.7,2.7,1.5,3.6,2.2C5.4-6,6-5.4,6.1-5.5C6-5.4,6.1-5.4,6.1-5.5C6.1-5.5,6.1-5.5,6.1-5.5z"/>
		</g>
		<g>
			<path fill="#AB602F" d="M23.1-0.5c0,0-0.1-0.1-0.3-0.3c-0.2-0.2-0.5-0.3-0.8-0.4c-0.1-0.1-0.3-0.1-0.4-0.2c-0.1,0-0.3,0-0.4,0.1
				C21-1.2,20.8-1,20.8-1c0,0,0,0.1,0,0.1c0,0,0,0,0.1,0.1c0.1,0.1,0.1,0.1,0.2,0.2c0.1,0.1,0.2,0.1,0.3,0.1c0.1,0,0.3,0,0.4,0
				C22.5-0.6,23-0.5,23.1-0.5c-0.1,0.1,0,0.1,0,0.1C23.1-0.4,23.1-0.4,23.1-0.5C23.1-0.4,23.1-0.5,23.1-0.5L23.1-0.5z"/>
		</g>
		<g>
			<path fill="#AB602F" d="M37.1,30c0.6-0.5,1.3-1.2,1.8-1.9c0.3-0.3,0.5-0.7,0.8-1c0.3-0.3,0.6-0.4,1-0.4l0,0c0,0,0.1,0,0.1,0
				c0.5-0.4,1.2-0.7,1.9-0.6c0.3,0,0.7,0.1,1,0.3c0.3,0.2,0.6,0.4,0.8,0.7c-0.2-0.3-0.5-0.6-0.8-0.8c-0.3-0.2-0.7-0.4-1-0.4
				c-0.4-0.1-0.8,0-1.1,0.1c-0.4,0.1-0.7,0.2-1,0.5l0.1,0c-0.4,0-1,0.1-1.3,0.4c-0.4,0.3-0.6,0.6-0.9,0.9c-0.6,0.6-1.1,1.2-1.8,1.7
				c-0.2,0.1-0.2,0.4-0.1,0.5S36.9,30.2,37.1,30C37,30,37,30,37.1,30L37.1,30z"/>
		</g>
	</g>
	<g>
		<path fill="#2B3990" d="M43.6,29.2c0.6,1.8-2.2,3-2.2,3s0.6-2.4,1.2-2.4c0.6-0.1,1.2,0.1,1.2,0.1"/>
		<path fill="#AB602F" d="M43.6,29.2c0,0.2,0.1,0.3,0,0.5c0,0.1,0,0.2,0,0.2c0,0.1,0,0.2-0.1,0.2c-0.1,0.3-0.3,0.5-0.6,0.8
			c-0.5,0.4-1.1,0.8-1.7,1l0.4,0.4c0.1-0.3,0.2-0.6,0.3-0.9c0.1-0.3,0.2-0.6,0.3-0.9c0.1-0.1,0.1-0.3,0.2-0.4c0,0,0.1-0.1,0-0.1
			c-0.1,0,0.1,0,0.2-0.1c0.3-0.1,0.6-0.1,1-0.2c0,0,0,0,0,0c0,0,0,0,0,0c-0.3-0.2-0.6-0.2-1-0.3c-0.1,0-0.1,0-0.3,0
			c-0.2,0-0.3,0.1-0.3,0.2c-0.2,0.2-0.3,0.3-0.4,0.5c-0.4,0.6-0.5,1.3-0.6,2l0,0c0,0.2,0.1,0.3,0.2,0.3c0.1,0,0.1,0,0.2,0
			c0.7-0.3,1.2-0.7,1.7-1.3c0.2-0.3,0.4-0.6,0.5-1c0-0.1,0-0.2,0-0.3c0-0.1,0-0.2,0-0.3C43.8,29.5,43.7,29.3,43.6,29.2
			C43.7,29.1,43.7,29.1,43.6,29.2C43.6,29.1,43.6,29.1,43.6,29.2z"/>
	</g>

		<path fill="#F8EEB8" stroke="#B7A165" stroke-width="0.5" stroke-linecap="round" stroke-linejoin="round" stroke-miterlimit="10" d="
		M34.1,45.3c0,0-0.3-0.5-0.1-1.3c0.1-0.5,0.6-0.9,1.2-0.9h0.5c0,0,0-1.2,1.1-1.6l-0.3,2.2l-1.8,2L34.1,45.3z"/>
	<g>
		<defs>
			<path id="SVGID_9_" d="M25.7,47.3c0,0-1.4,0.9-0.4,4.3s0.8,3.2,0.8,3.2s0.7-0.3,0.9-0.5c0.8-1,0.9-3.9,1.6-4.9
				c0,0-0.9-1.6-1.8-1.5C26.3,47.3,25.7,47.3,25.7,47.3z"/>
		</defs>
		<use xlink:href="#SVGID_9_" overflow="visible" fill="#D9874B"/>


			<path clip-path="url(#SVGID_10_)" fill="#F9D4D8" stroke="#AB602F" stroke-width="0.5" stroke-linecap="round" stroke-linejoin="round" stroke-miterlimit="10" d="
			M27.3,46.7c0,0-1.4-0.1-1.6,2.2c-0.2,2.2,1.3,2.9,0.4,7.4l2.5-1.9l0.9-4.4l-0.6-2.2L27.3,46.7z"/>

			<use xlink:href="#SVGID_9_" overflow="visible" fill="none" stroke="#AB602F" stroke-width="0.5" stroke-linecap="round" stroke-linejoin="round" stroke-miterlimit="10"/>
	</g>
</symbol>
<g>

		<use xlink:href="#New_Symbol_4" width="118" height="113.2" x="-58.9" y="-56.6" transform="matrix(1.1137 0 0 -1.1137 331.3834 116.3689)" overflow="visible"/>

		<use xlink:href="#New_Symbol_4" width="118" height="113.2" x="-58.9" y="-56.6" transform="matrix(1.1137 0 0 -1.1137 372.3931 226.002)" overflow="visible"/>

		<use xlink:href="#New_Symbol_4" width="118" height="113.2" id="XMLID_30_" x="-58.9" y="-56.6" transform="matrix(1.1137 0 0 -1.1137 372.5285 347.6078)" overflow="visible"/>

		<use xlink:href="#New_Symbol_4" width="118" height="113.2" x="-58.9" y="-56.6" transform="matrix(1.1137 0 0 -1.1137 221.5594 399.5008)" overflow="visible"/>

		<use xlink:href="#New_Symbol_4" width="118" height="113.2" x="-58.9" y="-56.6" transform="matrix(-1.1137 0 0 -1.1137 92.4249 323.0708)" overflow="visible"/>

		<use xlink:href="#New_Symbol_4" width="118" height="113.2" x="-58.9" y="-56.6" transform="matrix(-1.1137 0 0 -1.1137 219.1804 258.1777)" overflow="visible"/>

		<use xlink:href="#New_Symbol_4" width="118" height="113.2" x="-58.9" y="-56.6" transform="matrix(-1.1137 0 0 -1.1137 182.6592 100.4634)" overflow="visible"/>

		<use xlink:href="#New_Symbol_4" width="118" height="113.2" x="-58.9" y="-56.6" transform="matrix(-1.1137 0 0 -1.1137 77.4114 164.3638)" overflow="visible"/>
</g>
</svg>
