<?xml version="1.0" encoding="utf-8"?>
<!-- Generator: Adobe Illustrator 18.1.1, SVG Export Plug-In . SVG Version: 6.00 Build 0)  -->
<svg version="1.1" id="Layer_1" xmlns="http://www.w3.org/2000/svg" xmlns:xlink="http://www.w3.org/1999/xlink" x="0px" y="0px" width="500px" height="500px" viewBox="0 0 500 500" enable-background="new 0 0 500 500" xml:space="preserve"><clipPath id="SVGID_4_">
			<use xlink:href="#SVGID_3_" overflow="visible"/>
		</clipPath><clipPath id="SVGID_2_">
			<use xlink:href="#SVGID_1_" overflow="visible"/>
		</clipPath>
<symbol id="New_Symbol_4" viewBox="-33.1 -56.4 66.2 112.9">
	<path fill="#BDB6BE" stroke="#504C51" stroke-miterlimit="10" d="M32.4-43c0-7.1-14.5-12.9-32.4-12.9S-32.3-50.1-32.3-43v88.5
		c0,0.6,0.5,1.1,1.1,1.1h62.6c0.6,0,1.1-0.5,1.1-1.1V-43z"/>
	<g>
		<defs>
			<path id="SVGID_1_" d="M32.4,43.2c0-5.2-14.5-9.3-32.4-9.3s-32.4,4.2-32.4,9.3v-82.4c0-7.1,14.5-12.9,32.4-12.9
				s32.4,5.8,32.4,12.9V43.2z"/>
		</defs>
		<use xlink:href="#SVGID_1_" overflow="visible" fill="#F7D02A"/>

		<path clip-path="url(#SVGID_2_)" fill="#1F72B5" stroke="#0B4E76" stroke-width="1.5" stroke-miterlimit="10" d="M32.4,3.2
			c0-6.1-14.5-11-32.4-11s-32.4,4.9-32.4,11v50.8h64.8V3.2z"/>
		<g clip-path="url(#SVGID_2_)">
			<path fill="#CBB278" stroke="#8B7444" stroke-miterlimit="10" d="M-26.7-39.4c0-1.6-1.3-2.3-2.8-1.3c-1.5,1-2.7,3.2-2.7,4.8
				c0,1.6,1.2,2.1,2.7,1.2C-28-35.7-26.7-37.8-26.7-39.4z"/>
			<path fill="#CBB278" stroke="#8B7444" stroke-miterlimit="10" d="M-19.5-42.7c0-1.6-1.3-2.5-2.9-1.8c-1.6,0.7-2.9,2.7-2.9,4.4
				c0,1.6,1.3,2.3,2.9,1.6C-20.9-39.2-19.5-41.1-19.5-42.7z"/>
			<path fill="#CBB278" stroke="#8B7444" stroke-miterlimit="10" d="M-12.1-44.9c0-1.6-1.4-2.7-3.1-2.2c-1.7,0.5-3,2.3-3,3.9
				c0,1.6,1.3,2.5,3,2C-13.4-41.7-12.1-43.3-12.1-44.9z"/>
			<path fill="#CBB278" stroke="#8B7444" stroke-miterlimit="10" d="M-4.4-46.1c0-1.6-1.4-2.9-3.1-2.6c-1.7,0.2-3.1,1.9-3.1,3.5
				c0,1.6,1.4,2.7,3.1,2.5C-5.8-43-4.4-44.5-4.4-46.1z"/>
			<path fill="#CBB278" stroke="#8B7444" stroke-miterlimit="10" d="M3.3-46.2c0-1.6-1.4-3.1-3.1-3.1c-1.7,0-3.1,1.4-3.1,3.1
				c0,1.6,1.4,2.9,3.1,2.9C1.9-43.3,3.3-44.6,3.3-46.2z"/>
			<path fill="#CBB278" stroke="#8B7444" stroke-miterlimit="10" d="M11-45.2c0-1.6-1.4-3.3-3.1-3.5c-1.7-0.2-3.1,1-3.1,2.6
				c0,1.6,1.4,3.1,3.1,3.3C9.6-42.5,11-43.6,11-45.2z"/>
			<path fill="#CBB278" stroke="#8B7444" stroke-miterlimit="10" d="M18.5-43.2c0-1.6-1.3-3.5-3-3.9c-1.7-0.5-3.1,0.6-3.1,2.2
				c0,1.6,1.4,3.3,3.1,3.8C17.2-40.7,18.5-41.6,18.5-43.2z"/>
			<path fill="#CBB278" stroke="#8B7444" stroke-miterlimit="10" d="M25.8-40.1c0-1.6-1.3-3.6-2.9-4.4c-1.6-0.7-2.9,0.1-2.9,1.8
				c0,1.6,1.3,3.5,2.9,4.2C24.5-37.8,25.8-38.5,25.8-40.1z"/>
			<path fill="#CBB278" stroke="#8B7444" stroke-miterlimit="10" d="M32.6-35.9c0-1.6-1.2-3.8-2.7-4.8c-1.5-1-2.8-0.3-2.8,1.3
				c0,1.6,1.3,3.7,2.8,4.6C31.4-33.8,32.6-34.3,32.6-35.9z"/>
		</g>
		<use xlink:href="#SVGID_1_" overflow="visible" fill="none" stroke="#0B4E76" stroke-width="1.5" stroke-miterlimit="10"/>
	</g>
	<path fill="#D5AB6F" stroke="#6D4B20" stroke-miterlimit="10" d="M9.7-9.4c0-5.4-4.3-9.7-9.7-9.7s-9.7,4.3-9.7,9.7S-5.4,0.3,0,0.3
		S9.7-4,9.7-9.4z"/>
	<path fill="#E5E3E4" stroke="#504C51" stroke-miterlimit="10" d="M32.4,46.6c0-5.2-14.5-9.3-32.4-9.3s-32.4,4.2-32.4,9.3
		s14.5,9.3,32.4,9.3S32.4,51.8,32.4,46.6z"/>
	<g>
		<defs>
			<path id="SVGID_3_" d="M29.8,47.1c0-4.1-13.3-7.4-29.8-7.4s-29.8,3.3-29.8,7.4s13.3,7.4,29.8,7.4S29.8,51.2,29.8,47.1z"/>
		</defs>
		<use xlink:href="#SVGID_3_" overflow="visible" fill="#E5E3E4"/>

		<g clip-path="url(#SVGID_4_)">
			<path fill="#E5E3E4" stroke="#737173" stroke-miterlimit="10" d="M28.4,45.4c0-4.1-12.7-7.4-28.3-7.4s-28.3,3.3-28.3,7.4
				s12.7,7.4,28.3,7.4S28.4,49.5,28.4,45.4z"/>
			<path fill="#E5E3E4" stroke="#737173" stroke-miterlimit="10" d="M25.1,43.2c0-4.2-11.2-7.6-25.1-7.6S-25,39-25,43.2
				s11.2,7.6,25.1,7.6S25.1,47.4,25.1,43.2z"/>
			<path fill="#E5E3E4" stroke="#737173" stroke-miterlimit="10" d="M21.9,43.2c0-2.9-9.8-5.2-21.8-5.2s-21.8,2.3-21.8,5.2
				s9.8,5.2,21.8,5.2S21.9,46.1,21.9,43.2z"/>
			<path fill="#E5E3E4" stroke="#737173" stroke-miterlimit="10" d="M17.1,42.7c0-2.6-7.6-4.6-17.1-4.6S-17,40.1-17,42.7
				c0,2.6,7.6,4.6,17.1,4.6S17.1,45.3,17.1,42.7z"/>
		</g>
		<use xlink:href="#SVGID_3_" overflow="visible" fill="none" stroke="#737173" stroke-miterlimit="10"/>
	</g>
	<g>
		<path fill="#FFFFFF" stroke="#BBBDBF" stroke-width="0.8832" stroke-miterlimit="10" d="M-20.3,21.9c0.2-0.1,0.3-0.2,0.4-0.4
			c0.1-0.2,0.1-0.3,0.1-0.5c0-0.2-0.1-0.3-0.1-0.4c-0.1-0.1-0.2-0.2-0.4-0.2c0-0.7,0-1.4,0-2c0-0.2,0-0.4-0.1-0.5
			c-0.1-0.1-0.2-0.2-0.4-0.3c-0.1,0-0.3,0-0.4,0c-0.2,0.1-0.3,0.2-0.4,0.4c-0.1,0.1-0.1,0.2-0.1,0.3c0,0.1,0,0.2,0,0.3
			c0,0.7,0,1.4,0,2c-0.9,0.2-1.8,0.4-2.7,0.6c0-0.7,0-1.3,0-2c0-0.1,0-0.2,0-0.3c0-0.1,0-0.2-0.1-0.2c-0.1-0.2-0.2-0.3-0.4-0.3
			c-0.2,0-0.3,0-0.5,0.1c-0.1,0.1-0.3,0.2-0.4,0.4c-0.1,0.2-0.2,0.4-0.2,0.6c0,2,0,4,0,6.1c0,0.2,0.1,0.4,0.2,0.5
			c0.1,0.1,0.3,0.2,0.4,0.2c0.2,0,0.3,0,0.5-0.1c0.2-0.1,0.3-0.2,0.4-0.4c0-0.1,0-0.1,0-0.2c0-0.1,0-0.1,0-0.2c0-0.9,0-1.8,0-2.6
			c0.9-0.2,1.8-0.4,2.7-0.6c0,0.8,0,1.7,0,2.5c0,0.2,0,0.3,0.1,0.4c0.1,0.2,0.2,0.3,0.4,0.3c0.2,0,0.3,0,0.5,0
			c0.2-0.1,0.3-0.2,0.4-0.3c0.1-0.1,0.2-0.3,0.2-0.5C-20.3,23.7-20.3,22.8-20.3,21.9z"/>
		<path fill="#FFFFFF" stroke="#BBBDBF" stroke-width="0.8832" stroke-miterlimit="10" d="M-19.3,20.5c0.1,0.2,0.1,0.4,0.2,0.6
			c0.1,0.2,0.2,0.4,0.4,0.6c0.1,0.2,0.3,0.3,0.5,0.5c0.2,0.1,0.4,0.2,0.6,0.3c0.4,0.1,0.7,0.2,1.1,0.1c0.4-0.1,0.7-0.2,1-0.4
			c0.3-0.2,0.6-0.4,0.8-0.8c0.2-0.3,0.4-0.7,0.4-1.1c0-0.3,0.1-0.5,0.1-0.8c0-0.2,0-0.5-0.1-0.7c-0.1-0.4-0.2-0.7-0.5-1
			c-0.2-0.3-0.5-0.6-0.9-0.8c-0.3-0.2-0.7-0.3-1.1-0.3c-0.4,0-0.8,0.1-1.2,0.4c-0.2,0.1-0.3,0.2-0.5,0.4c-0.1,0.1-0.3,0.3-0.4,0.5
			c-0.1,0.2-0.2,0.4-0.3,0.6c-0.1,0.2-0.1,0.4-0.2,0.6c-0.1,0.2-0.1,0.5-0.1,0.7C-19.3,20.1-19.3,20.3-19.3,20.5
			C-19.3,20.5-19.3,20.5-19.3,20.5z M-17.9,20.1c0-0.1,0-0.2-0.1-0.4c0-0.1,0-0.2,0-0.4c0-0.2,0.1-0.4,0.1-0.5
			c0.1-0.2,0.2-0.3,0.3-0.4c0.1-0.1,0.3-0.2,0.4-0.2c0.2,0,0.3,0,0.5,0.1c0.2,0.1,0.4,0.3,0.6,0.5c0.2,0.3,0.3,0.5,0.3,0.8
			c0,0.3,0,0.6-0.1,0.9c-0.1,0.3-0.3,0.5-0.6,0.7c-0.2,0-0.4,0-0.5,0c-0.2,0-0.3-0.1-0.4-0.2c-0.1-0.1-0.2-0.2-0.3-0.4
			C-17.7,20.4-17.8,20.2-17.9,20.1z"/>
		<path fill="#FFFFFF" stroke="#BBBDBF" stroke-width="0.8832" stroke-miterlimit="10" d="M-10.5,19.9c0,0.1,0,0.1,0,0.2
			c-0.1,0.2-0.2,0.3-0.3,0.4c-0.2,0.1-0.3,0.2-0.5,0.2c-0.1,0-0.2,0-0.2-0.1c-0.1,0-0.1-0.1-0.2-0.1c0,0-0.1-0.1-0.1-0.1
			c0-0.1-0.1-0.1-0.1-0.2c0-1,0-2,0-3.1c0-0.2-0.1-0.4-0.2-0.5c-0.1-0.1-0.3-0.2-0.5-0.2c-0.2,0-0.3,0.1-0.5,0.2
			c-0.1,0.1-0.2,0.3-0.2,0.6c0,0.6,0,1.3,0,2.1c0,0.8,0,1.6,0,2.6c0,0.2,0,0.3,0.1,0.4c0.1,0.1,0.2,0.2,0.4,0.2c0.1,0,0.3,0,0.4-0.1
			c0.1-0.1,0.3-0.2,0.4-0.3c0.4,0.2,0.9,0.2,1.3,0.1c0.4-0.1,0.8-0.4,1.2-0.7c0.2,0.1,0.3,0.3,0.5,0.4c0.2,0.1,0.4,0.2,0.6,0.2
			c0.2,0,0.5,0,0.7-0.1c0.2-0.1,0.5-0.2,0.7-0.3c0.2-0.1,0.4-0.3,0.6-0.5c0.2-0.2,0.3-0.4,0.4-0.7c0-0.2,0.1-0.3,0.1-0.4
			c0-1.1,0-2.1,0-3.2c0-0.1,0-0.2,0-0.3c-0.1-0.2-0.2-0.3-0.3-0.4c-0.2-0.1-0.3-0.1-0.5-0.1c-0.2,0-0.3,0.1-0.4,0.3
			c-0.1,0.1-0.2,0.3-0.2,0.5c0,1.1,0,2.1,0,3.2c-0.1,0.2-0.2,0.3-0.3,0.4c-0.1,0.1-0.3,0.1-0.4,0.1c-0.1,0-0.3,0-0.4-0.1
			c-0.1-0.1-0.2-0.2-0.3-0.4c0-1,0-2,0-3.1c0-0.2-0.1-0.4-0.2-0.5c-0.1-0.1-0.3-0.2-0.5-0.2c-0.2,0-0.3,0-0.5,0.1
			c-0.1,0.1-0.2,0.2-0.3,0.4C-10.5,17.8-10.5,18.8-10.5,19.9z"/>
		<path fill="#FFFFFF" stroke="#BBBDBF" stroke-width="0.8832" stroke-miterlimit="10" d="M-0.8,17.6c0.2,0,0.4,0,0.5,0
			c0.1,0,0.3-0.1,0.3-0.2c0.1-0.1,0.1-0.2,0.1-0.4c0-0.1-0.1-0.3-0.2-0.5c-0.1-0.1-0.2-0.2-0.4-0.3c-0.2-0.1-0.3-0.2-0.5-0.2
			c-0.4-0.1-0.8-0.2-1.1-0.3c-0.3,0-0.7,0-1,0c-0.3,0.1-0.6,0.2-0.8,0.4c-0.3,0.2-0.5,0.4-0.7,0.8c-0.2,0.2-0.3,0.5-0.3,0.7
			c-0.1,0.3-0.1,0.5-0.1,0.8c0,0.3,0,0.6,0.1,0.8c0.1,0.3,0.1,0.5,0.2,0.7c0.1,0.3,0.3,0.5,0.6,0.7c0.3,0.2,0.6,0.4,1,0.5
			c0.4,0.1,0.7,0.2,1.1,0.2c0.4,0,0.7-0.1,1-0.2c0.2-0.1,0.4-0.3,0.6-0.5c0.2-0.2,0.3-0.4,0.3-0.7c0.1-0.2,0.1-0.5,0-0.7
			c-0.1-0.2-0.2-0.5-0.4-0.7c-0.2-0.2-0.4-0.3-0.6-0.5c-0.2-0.1-0.5-0.2-0.7-0.3c-0.3-0.1-0.5-0.2-0.8-0.2c-0.3-0.1-0.5-0.1-0.8-0.2
			c0.2-0.2,0.4-0.3,0.6-0.4c0.2-0.1,0.4-0.1,0.7,0c0.2,0,0.5,0.1,0.7,0.2C-1.2,17.4-1,17.5-0.8,17.6C-0.8,17.6-0.8,17.6-0.8,17.6z
			 M-3.1,19.7c-0.2-0.1-0.3-0.2-0.4-0.4c-0.1-0.1-0.1-0.4-0.2-0.6c0.2,0.1,0.4,0.1,0.7,0.2s0.5,0.1,0.7,0.2c0.2,0.1,0.4,0.2,0.6,0.2
			c0.2,0.1,0.2,0.2,0.2,0.3c0,0.1,0,0.1,0,0.2c0,0.1-0.1,0.1-0.1,0.1C-1.9,20-2.1,20-2.3,20c-0.2,0-0.4-0.1-0.6-0.2
			C-3,19.8-3.1,19.7-3.1,19.7z"/>
		<path fill="#FFFFFF" stroke="#BBBDBF" stroke-width="0.8832" stroke-miterlimit="10" d="M3.7,19.4c0,0.1,0,0.1,0,0.2
			c-0.1,0.2-0.2,0.3-0.3,0.4C3.2,20,3,20.1,2.9,20.1c-0.1,0-0.2-0.1-0.2-0.1c-0.1,0-0.1-0.1-0.2-0.1c0,0-0.1-0.1-0.1-0.2
			c0-0.1-0.1-0.1-0.1-0.2c0-1,0-2,0-3.1c0-0.2-0.1-0.4-0.2-0.6c-0.1-0.1-0.3-0.2-0.5-0.2c-0.2,0-0.3,0-0.5,0.1
			c-0.1,0.1-0.2,0.3-0.2,0.5c0,0.6,0,1.3,0,2c0,0.8,0,1.6,0,2.6c0,0.2,0,0.3,0.1,0.4c0.1,0.1,0.2,0.2,0.4,0.2c0.1,0,0.3,0,0.4,0
			c0.1,0,0.3-0.1,0.4-0.3c0.4,0.2,0.9,0.3,1.3,0.2c0.4-0.1,0.8-0.3,1.2-0.6c0.2,0.2,0.3,0.3,0.5,0.4c0.2,0.1,0.4,0.2,0.6,0.3
			c0.2,0.1,0.5,0.1,0.7,0c0.2,0,0.5-0.1,0.7-0.2c0.2-0.1,0.4-0.3,0.6-0.5c0.2-0.2,0.3-0.4,0.4-0.6C8,20.2,8,20,8,19.9
			c0-1.1,0-2.1,0-3.2c0-0.1,0-0.2,0-0.3c-0.1-0.2-0.2-0.4-0.3-0.4c-0.2-0.1-0.3-0.1-0.5-0.1c-0.2,0-0.3,0.1-0.4,0.2
			c-0.1,0.1-0.2,0.3-0.2,0.5c0,1.1,0,2.1,0,3.2c-0.1,0.2-0.2,0.3-0.3,0.4c-0.1,0.1-0.3,0.1-0.4,0.1c-0.1,0-0.3-0.1-0.4-0.2
			c-0.1-0.1-0.2-0.2-0.3-0.4c0-1,0-2,0-3.1c0-0.2-0.1-0.4-0.2-0.5c-0.1-0.1-0.3-0.2-0.5-0.3c-0.2,0-0.3,0-0.5,0
			c-0.1,0.1-0.2,0.2-0.3,0.4C3.7,17.3,3.7,18.4,3.7,19.4z"/>
		<path fill="#FFFFFF" stroke="#BBBDBF" stroke-width="0.8832" stroke-miterlimit="10" d="M14,17.4c0.1-0.2,0.1-0.4,0-0.6
			c-0.1-0.2-0.2-0.3-0.4-0.3c-0.2-0.1-0.3-0.1-0.5,0c-0.2,0-0.3,0.2-0.5,0.3c-0.2-0.2-0.4-0.3-0.6-0.4c-0.2-0.1-0.4-0.1-0.7-0.2
			c-0.4-0.1-0.8,0-1.1,0c-0.3,0.1-0.6,0.2-0.8,0.4c-0.2,0.2-0.4,0.4-0.5,0.8c-0.1,0.3-0.1,0.7-0.1,1.1c0,0.2,0,0.3,0.1,0.5
			c0,0.2,0.1,0.3,0.1,0.5c0.1,0.2,0.2,0.4,0.3,0.6c0.1,0.2,0.2,0.4,0.3,0.5c0.4,0.5,1,1,1.6,1.3c0.1,0,0.3,0.1,0.4,0.1
			c0.2,0,0.4,0.1,0.6,0.1c0.2,0,0.4,0,0.6,0c0.2,0,0.3-0.1,0.4-0.2c0.1-0.1,0.1-0.2,0.2-0.2c0-0.1,0-0.1,0.1-0.2c0-0.1,0-0.2,0-0.3
			c0-0.1,0-0.2,0-0.3c0-0.2,0-0.4,0-0.6c0-0.2,0-0.4,0-0.6c0-0.1,0-0.2,0-0.3c0-0.1,0-0.2,0-0.4c0-0.1,0-0.2,0-0.4
			c0-0.1,0-0.2,0.1-0.3C13.7,18,13.9,17.7,14,17.4z M11.6,17.6c0.1,0.1,0.2,0.1,0.3,0.2c0.1,0.1,0.2,0.2,0.3,0.3
			c-0.1,0.4-0.1,0.8-0.1,1.2c0,0.4,0,0.8,0,1.3c-0.4-0.1-0.7-0.3-1-0.5c-0.3-0.3-0.5-0.6-0.6-0.9c0-0.1-0.1-0.3-0.1-0.4
			c0-0.1,0-0.3,0-0.4c0-0.2,0.1-0.3,0.1-0.4c0.1-0.1,0.2-0.2,0.3-0.2c0.1-0.1,0.3-0.1,0.4-0.1C11.3,17.5,11.4,17.6,11.6,17.6z"/>
		<path fill="#FFFFFF" stroke="#BBBDBF" stroke-width="0.8832" stroke-miterlimit="10" d="M20.3,18.7c0.1-0.2,0.2-0.4,0.1-0.6
			c0-0.2-0.1-0.3-0.3-0.5c-0.1-0.1-0.3-0.2-0.5-0.2c-0.2,0-0.4,0.1-0.6,0.2c-0.2-0.2-0.4-0.3-0.6-0.4c-0.2-0.1-0.4-0.2-0.6-0.3
			c-0.4-0.1-0.7-0.2-1-0.1c-0.3,0-0.6,0.1-0.9,0.3c-0.3,0.2-0.5,0.4-0.6,0.7c-0.2,0.3-0.2,0.6-0.3,0.9c0,0.4,0,0.8,0.1,1.1
			c0.1,0.4,0.2,0.7,0.4,1c0.2,0.3,0.4,0.6,0.7,0.9c0.3,0.3,0.6,0.5,1,0.6c0.2,0.1,0.5,0.1,0.7,0.2c0.2,0,0.5,0.1,0.7,0.1
			c0,0.2,0,0.4,0,0.6c0,0.2,0,0.4,0,0.6c0,0.2,0,0.4,0,0.6c0,0.2,0,0.3,0.1,0.4c0.1,0.1,0.1,0.3,0.3,0.4c0.1,0.1,0.2,0.2,0.4,0.2
			c0.1,0,0.2,0,0.4,0c0.1,0,0.2-0.1,0.3-0.2c0,0,0-0.1,0.1-0.1c0,0,0-0.1,0-0.1c0-1,0-2,0-3c0-1,0-2,0-3
			C20.3,18.8,20.3,18.8,20.3,18.7z M18.7,19.1C18.7,19.1,18.7,19.2,18.7,19.1c0.1,0.1,0.2,0.1,0.2,0.2c0,0.3,0,0.6,0,1
			c0,0.3,0,0.6,0,1c-0.2,0-0.4,0-0.6,0c-0.2,0-0.4-0.1-0.6-0.2c-0.2-0.1-0.4-0.2-0.5-0.3c-0.2-0.1-0.3-0.3-0.4-0.5
			c0-0.2-0.1-0.3-0.1-0.5c0-0.2-0.1-0.3-0.1-0.4c0-0.1,0-0.3,0.1-0.4c0-0.1,0.1-0.3,0.2-0.4c0,0,0.1-0.1,0.1-0.1
			c0,0,0.1-0.1,0.3-0.1c0.3,0,0.6,0.1,0.8,0.2C18.2,18.7,18.5,18.8,18.7,19.1z"/>
		<path fill="#FFFFFF" stroke="#BBBDBF" stroke-width="0.8832" stroke-miterlimit="10" d="M25.8,20.5c0.2,0.1,0.3,0.1,0.5,0.1
			c0.1,0,0.3-0.1,0.3-0.1c0.1-0.1,0.1-0.2,0.1-0.4c0-0.2-0.1-0.3-0.2-0.5c-0.1-0.2-0.2-0.3-0.4-0.4c-0.2-0.1-0.3-0.2-0.5-0.3
			c-0.4-0.2-0.7-0.4-1.1-0.5c-0.3-0.1-0.7-0.2-1-0.2c-0.3,0-0.6,0.1-0.8,0.2c-0.3,0.1-0.5,0.3-0.7,0.6c-0.2,0.2-0.3,0.4-0.3,0.7
			c-0.1,0.3-0.1,0.5-0.1,0.8c0,0.3,0,0.6,0.1,0.8c0.1,0.3,0.1,0.5,0.2,0.8c0.1,0.3,0.3,0.6,0.6,0.9c0.3,0.3,0.6,0.5,1,0.7
			c0.3,0.2,0.7,0.4,1.1,0.5c0.4,0.1,0.7,0.1,1,0c0.2-0.1,0.4-0.2,0.6-0.3c0.2-0.2,0.3-0.4,0.3-0.6c0.1-0.2,0.1-0.5,0-0.7
			c-0.1-0.3-0.2-0.5-0.4-0.8c-0.2-0.2-0.4-0.4-0.6-0.6c-0.2-0.2-0.5-0.3-0.7-0.5c-0.2-0.1-0.5-0.3-0.8-0.4c-0.3-0.1-0.5-0.2-0.7-0.4
			c0.2-0.2,0.3-0.2,0.6-0.2c0.2,0,0.4,0,0.7,0.1c0.2,0.1,0.5,0.2,0.7,0.3C25.3,20.1,25.5,20.2,25.8,20.5
			C25.7,20.4,25.7,20.4,25.8,20.5z M23.4,22c-0.2-0.1-0.3-0.3-0.4-0.5c-0.1-0.2-0.1-0.4-0.2-0.7c0.2,0.1,0.4,0.2,0.7,0.3
			c0.3,0.1,0.5,0.2,0.7,0.4c0.2,0.1,0.4,0.3,0.6,0.4c0.2,0.1,0.2,0.2,0.2,0.4c0,0.1,0,0.1,0,0.2c0,0.1-0.1,0.1-0.1,0.1
			c-0.2,0-0.4,0-0.7-0.1c-0.2-0.1-0.4-0.2-0.6-0.3C23.6,22.1,23.5,22,23.4,22z"/>
	</g>
	<g>
		<path fill="#A4943E" d="M-15,10.5c0.1,0.1,0.2,0.1,0.3,0.1c0.1,0,0.2,0,0.3-0.1c0.1-0.1,0.1-0.1,0.2-0.2c0-0.1,0.1-0.2,0-0.3
			c0-0.1-0.1-0.2-0.2-0.3c-0.1-0.1-0.2-0.2-0.2-0.2c-0.2-0.2-0.4-0.3-0.6-0.3c-0.2,0-0.4,0-0.7,0c-0.2,0.1-0.4,0.2-0.7,0.3
			c-0.2,0.1-0.4,0.3-0.6,0.6c-0.1,0.1-0.2,0.3-0.3,0.4c-0.1,0.1-0.1,0.3-0.2,0.5c-0.1,0.2-0.1,0.5-0.1,0.7c0,0.2,0,0.5,0.1,0.7
			c0.1,0.2,0.2,0.4,0.3,0.6c0.1,0.2,0.3,0.3,0.5,0.4c0.1,0.1,0.3,0.1,0.4,0.2c0.1,0,0.3,0.1,0.4,0.1c0.1,0,0.2,0,0.3,0.1
			c0.1,0,0.2,0,0.3,0c0.1,0,0.2,0,0.3,0c0.1,0,0.2-0.1,0.3-0.1c0.1,0,0.1-0.1,0.2-0.2c0.1-0.1,0.1-0.1,0.2-0.2
			c0.1-0.1,0.1-0.1,0.1-0.2c0-0.1,0.1-0.1,0.1-0.2c0-0.1,0-0.1,0-0.2c0-0.1,0-0.1-0.1-0.2c0,0-0.1-0.1-0.1-0.1c0,0-0.1,0-0.2,0
			c-0.1,0-0.2,0-0.2,0.1c-0.1,0-0.1,0.1-0.1,0.2c0,0.1-0.1,0.1-0.1,0.2c0,0.1-0.1,0.1-0.1,0.1c0,0-0.1,0-0.1,0c-0.2,0-0.3,0-0.5-0.1
			c-0.2,0-0.3-0.1-0.4-0.2c-0.1-0.1-0.3-0.2-0.4-0.3c-0.1-0.1-0.2-0.2-0.2-0.4c-0.1-0.2-0.1-0.4-0.1-0.6c0-0.2,0.1-0.4,0.2-0.6
			c0.1-0.1,0.1-0.2,0.2-0.3c0.1-0.1,0.2-0.2,0.3-0.2c0.1-0.1,0.2-0.1,0.3-0.1c0.1,0,0.2,0,0.3,0.1c0.1,0,0.2,0.1,0.2,0.2
			C-15.1,10.3-15.1,10.4-15,10.5z"/>
		<path fill="#A4943E" d="M-9.8,10.2c-0.1-0.2-0.2-0.5-0.3-0.7c-0.1-0.2-0.3-0.4-0.4-0.6c-0.2-0.2-0.4-0.3-0.6-0.4
			c-0.2-0.1-0.5-0.1-0.8-0.1c-0.2,0-0.3,0.1-0.5,0.1c-0.1,0-0.2,0.1-0.3,0.2c-0.2,0.1-0.4,0.2-0.5,0.4c-0.1,0.1-0.2,0.3-0.3,0.5
			c-0.1,0.2-0.2,0.4-0.2,0.6c0,0.2-0.1,0.4-0.1,0.5c0,0.3,0,0.6,0.1,0.9c0.1,0.3,0.2,0.6,0.4,0.8c0.2,0.2,0.4,0.4,0.6,0.6
			c0.2,0.1,0.5,0.2,0.8,0.2c0.2,0,0.3,0,0.5,0c0.2,0,0.3-0.1,0.5-0.2c0.1-0.1,0.2-0.1,0.4-0.2c0.1-0.1,0.2-0.2,0.3-0.3
			c0.1-0.1,0.2-0.3,0.3-0.5c0.1-0.2,0.2-0.3,0.2-0.5c0.1-0.2,0.1-0.4,0.1-0.7C-9.7,10.6-9.7,10.4-9.8,10.2z M-11.6,9.3
			c0.1,0,0.3,0.1,0.4,0.2c0.1,0.1,0.2,0.2,0.3,0.3c0.1,0.1,0.1,0.2,0.2,0.4c0.1,0.1,0.1,0.3,0.1,0.4c0,0.2,0,0.3,0,0.5
			c0,0.2,0,0.4-0.1,0.5c-0.1,0.1-0.2,0.3-0.3,0.4c-0.1,0.1-0.3,0.2-0.4,0.3c-0.2,0.1-0.3,0.1-0.5,0.1c-0.2,0-0.3,0-0.4-0.1
			c-0.2-0.1-0.3-0.3-0.4-0.4c-0.1-0.2-0.2-0.4-0.2-0.6c0-0.2-0.1-0.3-0.1-0.5c0-0.2,0-0.4,0.1-0.6c0.1-0.1,0.1-0.3,0.2-0.4
			c0.1-0.1,0.2-0.2,0.3-0.3c0.1-0.1,0.3-0.1,0.4-0.2C-11.8,9.2-11.7,9.2-11.6,9.3z"/>
		<path fill="#A4943E" d="M-6.3,12.1c0,0.1,0.1,0.2,0.1,0.2c0.1,0.1,0.1,0.1,0.2,0.1c0.1,0,0.1,0,0.2,0c0.1,0,0.1-0.1,0.2-0.2
			c0,0,0-0.1,0.1-0.1c0,0,0-0.1,0-0.1c0-0.7,0-1.3,0-2c0-0.7,0-1.3-0.1-2c0-0.1,0-0.2-0.1-0.2c-0.1-0.1-0.1-0.1-0.2-0.1
			c-0.1,0-0.2,0-0.3,0c-0.1,0-0.2,0.1-0.2,0.2c0,0,0,0,0,0c0,0,0,0,0,0c-0.3,0.5-0.6,1-1,1.5c-0.3,0.5-0.7,1-1,1.5c0-0.5,0-1,0-1.6
			c0-0.2,0-0.4,0-0.5c0-0.1,0-0.3,0-0.3c0-0.1,0-0.2,0-0.2c0-0.1,0-0.1,0-0.1C-8.4,8.1-8.5,8-8.6,8c-0.1,0-0.2,0-0.3,0
			C-8.9,8-9,8.1-9.1,8.2c-0.1,0.1-0.1,0.2-0.1,0.3c0,0.1,0,0.2,0,0.3c0,0.1,0,0.3,0,0.5c0,0.2,0,0.4,0,0.6c0,0.2,0,0.4,0,0.6
			c0,0.2,0,0.4,0,0.5c0,0.2,0,0.3,0,0.4c0,0.2,0,0.3,0,0.5c0,0.2,0,0.3,0,0.5c0,0.1,0,0.1,0.1,0.2c0,0.1,0.1,0.1,0.1,0.1
			c0.1,0,0.1,0,0.2,0c0.1,0,0.1,0,0.2-0.1c0.1,0,0.1-0.1,0.2-0.1c0.1-0.1,0.1-0.1,0.2-0.2c0.1-0.1,0.1-0.1,0.2-0.2
			c0-0.1,0.1-0.1,0.1-0.2c0.1-0.2,0.3-0.3,0.4-0.6c0.2-0.2,0.3-0.4,0.4-0.6c0.1-0.2,0.3-0.4,0.4-0.6c0.1-0.2,0.3-0.4,0.4-0.6
			c0,0.4,0,0.8,0,1.2C-6.3,11.2-6.3,11.7-6.3,12.1C-6.3,12.1-6.3,12.1-6.3,12.1z"/>
		<path fill="#A4943E" d="M-4.2,7.6c-0.1,0-0.2,0.1-0.3,0.2C-4.6,7.9-4.7,8-4.7,8.1c0,1,0,1.9,0,2.9c-0.1,0-0.2,0-0.2,0
			c-0.1,0-0.1,0.1-0.2,0.2c0,0.1-0.1,0.1-0.1,0.2c0,0.1,0,0.1,0.1,0.2c0.1,0.1,0.1,0.1,0.2,0.2c0.1,0,0.2,0.1,0.3,0.1
			c0.1,0,0.2,0.1,0.3,0.1c0.1,0,0.2,0,0.3,0c0.3,0,0.5,0,0.8,0c0.3,0,0.5-0.1,0.7-0.2c0.2-0.1,0.4-0.2,0.6-0.4
			c0.2-0.2,0.3-0.4,0.5-0.6c0.1-0.2,0.1-0.3,0.2-0.5c0-0.2,0.1-0.3,0.1-0.5c0-0.2,0-0.4-0.1-0.6C-1.3,9-1.4,8.8-1.5,8.7
			c-0.1-0.2-0.2-0.3-0.4-0.5c-0.2-0.1-0.3-0.2-0.5-0.3C-2.6,7.8-2.8,7.7-3,7.7c-0.2,0-0.4-0.1-0.6-0.1c-0.1,0-0.2,0-0.3,0
			C-4,7.6-4.1,7.6-4.2,7.6C-4.2,7.6-4.2,7.6-4.2,7.6z M-3.5,11.2c-0.1,0-0.1,0-0.2,0c-0.1,0-0.1,0-0.2,0c0-0.9,0-1.8,0-2.8
			c0,0,0.1,0,0.1,0c0,0,0,0,0.1,0c0,0,0,0,0,0c0.1,0,0.1,0,0.2,0c0,0,0.1,0,0.1,0c0,0,0.1,0,0.1,0c0,0,0.1,0,0.1,0
			c0.3,0.1,0.5,0.2,0.6,0.3C-2.3,9-2.2,9.2-2.1,9.5c0.1,0.2,0.1,0.3,0.1,0.5c0,0.2,0,0.3-0.1,0.5c-0.1,0.1-0.1,0.3-0.2,0.4
			c-0.1,0.1-0.2,0.2-0.4,0.3c-0.1,0.1-0.2,0.1-0.4,0.1C-3.2,11.2-3.4,11.2-3.5,11.2z"/>
		<path fill="#A4943E" d="M1.8,8.6c0.1,0,0.2,0,0.2-0.1c0.1,0,0.1-0.1,0.2-0.1c0-0.1,0.1-0.1,0.1-0.2c0-0.1,0-0.1,0-0.2
			c0,0,0-0.1-0.1-0.1c0,0-0.1-0.1-0.1-0.1C1.7,7.7,1.4,7.7,1.1,7.6c-0.3,0-0.6,0-0.9,0c-0.1,0-0.2,0-0.3,0c-0.1,0-0.2,0-0.3,0.1
			C-0.5,7.9-0.6,8-0.6,8.2c0,1,0,2,0,2.9c-0.1,0-0.1,0.1-0.1,0.1c0,0.1-0.1,0.1-0.1,0.2c0,0.1,0,0.1,0,0.2c0,0.1,0.1,0.1,0.1,0.1
			c0.1,0.1,0.2,0.1,0.3,0.1c0.1,0,0.2,0,0.4,0.1C0.3,12,0.5,12,0.8,12c0.2,0,0.5,0,0.7,0c0.1,0,0.2,0,0.3,0c0.1,0,0.2,0,0.3,0
			c0.1,0,0.2-0.1,0.2-0.1c0.1-0.1,0.1-0.1,0.1-0.2c0-0.1,0-0.2,0-0.2c0-0.1-0.1-0.1-0.2-0.2c-0.1,0-0.2-0.1-0.4-0.1
			c-0.1,0-0.3,0-0.4,0c-0.2,0-0.4,0-0.5,0c-0.2,0-0.4,0-0.5,0c0-0.3,0-0.6,0-1c0.2,0,0.3,0,0.5,0c0.2,0,0.3,0,0.5,0
			c0.1,0,0.1,0,0.2,0c0.1,0,0.2,0,0.2,0c0.1,0,0.2-0.1,0.2-0.1C2,10.1,2,10,2.1,9.9c0-0.1,0-0.2,0-0.3c0-0.1-0.1-0.1-0.2-0.2
			c-0.1,0-0.2-0.1-0.3-0.1c-0.1,0-0.3,0-0.4,0c-0.1,0-0.3,0-0.4,0c-0.1,0-0.3,0-0.4,0c0-0.3,0-0.6,0-0.9c0.3,0,0.5,0,0.8,0
			C1.3,8.5,1.5,8.5,1.8,8.6C1.8,8.6,1.8,8.6,1.8,8.6z"/>
		<path fill="#A4943E" d="M5.7,12c0,0.1,0.1,0.2,0.1,0.2C5.9,12.3,6,12.4,6,12.4c0.1,0,0.1,0,0.2,0c0.1,0,0.1-0.1,0.2-0.2
			c0,0,0,0,0.1-0.1c0,0,0-0.1,0-0.1c0-0.7,0-1.3,0-2c0-0.7,0-1.3-0.1-2c0-0.1,0-0.2-0.1-0.3C6.3,7.8,6.2,7.8,6.1,7.8
			c-0.1,0-0.2,0-0.3,0c-0.1,0-0.2,0.1-0.2,0.2c0,0,0,0,0,0c0,0,0,0,0,0C5.4,8.4,5,8.8,4.7,9.3c-0.3,0.4-0.7,0.9-1,1.3
			c0-0.5,0-1,0-1.6c0-0.2,0-0.4,0-0.5c0-0.1,0-0.3,0-0.3c0-0.1,0-0.2,0-0.2c0-0.1,0-0.1,0-0.1c0-0.1-0.1-0.2-0.2-0.2
			c-0.1,0-0.2-0.1-0.3,0C3.1,7.5,3,7.6,2.9,7.7C2.9,7.7,2.8,7.8,2.8,7.9c0,0.1,0,0.2,0,0.3c0,0.1,0,0.3,0,0.5c0,0.2,0,0.4,0,0.6
			c0,0.2,0,0.4,0,0.6c0,0.2,0,0.4,0,0.5c0,0.2,0,0.3,0,0.4c0,0.2,0,0.3,0,0.5c0,0.2,0,0.3,0,0.5c0,0.1,0,0.1,0.1,0.2
			C2.9,12,3,12.1,3,12.1c0.1,0,0.1,0.1,0.2,0.1c0.1,0,0.1,0,0.2,0c0.1,0,0.1-0.1,0.2-0.1c0.1-0.1,0.1-0.1,0.2-0.2
			c0.1-0.1,0.1-0.1,0.2-0.2C4,11.6,4,11.5,4,11.5c0.1-0.1,0.3-0.3,0.4-0.5c0.2-0.2,0.3-0.4,0.4-0.5C5,10.3,5.2,10.2,5.3,10
			c0.1-0.2,0.3-0.3,0.4-0.5c0,0.4,0,0.8,0,1.3C5.7,11.2,5.7,11.6,5.7,12C5.7,12,5.7,12,5.7,12z"/>
		<path fill="#A4943E" d="M7.3,8.5c0,0.1,0,0.2,0,0.3c0,0.1,0,0.2,0.1,0.2c0,0.1,0.1,0.1,0.2,0.1c0.1,0,0.2,0,0.3,0
			c0.1,0,0.2-0.1,0.2-0.1C8.1,9,8.1,8.9,8.2,8.9c0.1,0,0.2-0.1,0.4-0.1c0.1,0,0.2,0,0.3,0c0.1,0,0.2,0,0.3,0c0.1,0,0.1,0.1,0.2,0.1
			C9.3,8.9,9.4,9,9.5,9c0.1,0.1,0.1,0.1,0.1,0.2c0,0.1,0,0.2,0,0.2c0,0.1-0.1,0.1-0.1,0.2C9.4,9.8,9.4,9.8,9.3,9.8
			c-0.2,0-0.3,0.1-0.5,0.1c-0.2,0-0.3,0-0.5,0.1C8.2,10,8,10,7.9,10.1c-0.1,0.1-0.3,0.2-0.4,0.3c-0.1,0.1-0.1,0.1-0.1,0.2
			c0,0.1,0,0.1-0.1,0.2c0,0.2,0,0.4,0.1,0.6c0.1,0.2,0.2,0.3,0.3,0.4C7.8,12,8,12.1,8.2,12.2c0.2,0.1,0.4,0.2,0.6,0.2
			c0.2,0,0.4,0.1,0.6,0.1c0.2,0,0.4,0,0.6-0.1c0.1,0,0.2-0.1,0.2-0.2c0-0.1,0-0.2,0-0.3c0-0.1-0.1-0.2-0.2-0.2
			c-0.1-0.1-0.2-0.1-0.3-0.1c-0.1,0-0.2,0-0.3,0c-0.1,0-0.2,0-0.3,0c-0.1,0-0.2,0-0.2,0c-0.1,0-0.2,0-0.2-0.1
			c-0.1,0-0.1-0.1-0.2-0.1c-0.1,0-0.1-0.1-0.1-0.1c0,0-0.1-0.1-0.1-0.1c0-0.1-0.1-0.1-0.1-0.2c0-0.1,0-0.1,0.1-0.2
			c0.1,0,0.1-0.1,0.2-0.1c0.2,0,0.3,0,0.5,0c0.2,0,0.3,0,0.5-0.1c0.2,0,0.3-0.1,0.4-0.1c0.1-0.1,0.3-0.2,0.3-0.3
			c0.1-0.1,0.2-0.2,0.2-0.4c0-0.1,0.1-0.3,0.1-0.4c0-0.2,0-0.3-0.1-0.5c-0.1-0.1-0.1-0.3-0.2-0.4C10,8.5,10,8.4,9.9,8.3
			C9.8,8.3,9.7,8.2,9.6,8.2C9.4,8,9.2,8,9,7.9c-0.2,0-0.4,0-0.6,0C8.2,8,8,8.1,7.8,8.2C7.6,8.3,7.4,8.4,7.3,8.5
			C7.3,8.5,7.3,8.5,7.3,8.5z"/>
		<path fill="#A4943E" d="M13.5,9.8c0.1,0,0.2,0,0.2,0c0.1,0,0.1-0.1,0.2-0.1c0,0,0.1-0.1,0.1-0.2c0-0.1,0-0.1,0-0.2
			c0,0,0-0.1-0.1-0.1C13.8,9,13.7,9,13.7,9c-0.3-0.1-0.6-0.2-0.9-0.3c-0.3-0.1-0.6-0.1-0.9-0.1c-0.1,0-0.2,0-0.3,0
			c-0.1,0-0.2,0-0.3,0c-0.1,0.1-0.2,0.2-0.2,0.4c0,1,0,2,0,2.9C11,11.9,11,11.9,11,12c0,0.1-0.1,0.1-0.1,0.2c0,0.1,0,0.1,0,0.2
			c0,0.1,0.1,0.1,0.1,0.2c0.1,0.1,0.2,0.2,0.3,0.2c0.1,0,0.2,0.1,0.4,0.1c0.2,0.1,0.5,0.1,0.7,0.2c0.2,0,0.5,0.1,0.7,0.1
			c0.1,0,0.2,0,0.3,0.1c0.1,0,0.2,0,0.3,0c0.1,0,0.2-0.1,0.2-0.1C13.9,13,14,13,14,12.9c0-0.1,0-0.2,0-0.2c0-0.1-0.1-0.2-0.2-0.2
			c-0.1-0.1-0.2-0.1-0.4-0.1c-0.1,0-0.3,0-0.4-0.1c-0.2,0-0.3-0.1-0.5-0.1c-0.2,0-0.3-0.1-0.5-0.1c0-0.3,0-0.6,0-1
			c0.2,0,0.3,0,0.5,0.1c0.2,0,0.3,0.1,0.5,0.1c0.1,0,0.1,0,0.2,0.1c0.1,0,0.1,0,0.2,0c0.1,0,0.2,0,0.2-0.1c0.1-0.1,0.1-0.1,0.1-0.2
			c0-0.1,0-0.2,0-0.3c0-0.1-0.1-0.2-0.2-0.2c-0.1,0-0.2-0.1-0.3-0.1c-0.1,0-0.3-0.1-0.4-0.1c-0.1,0-0.3-0.1-0.4-0.1
			c-0.1,0-0.3,0-0.4,0c0-0.3,0-0.6,0-0.9c0.3,0,0.5,0,0.8,0.1C13,9.6,13.2,9.6,13.5,9.8C13.5,9.8,13.5,9.8,13.5,9.8z"/>
		<path fill="#A4943E" d="M15.1,8.9c-0.1,0-0.2,0-0.3,0.1c-0.1,0.1-0.1,0.2-0.1,0.3c0,1,0,1.9,0,2.9c-0.1,0-0.2,0-0.2,0
			c-0.1,0-0.1,0.1-0.2,0.1c0,0-0.1,0.1-0.1,0.2c0,0.1,0,0.2,0.1,0.2c0.1,0.1,0.1,0.2,0.2,0.2c0.1,0.1,0.2,0.1,0.3,0.2
			c0.1,0.1,0.2,0.1,0.3,0.1c0.1,0,0.2,0.1,0.3,0.1c0.3,0.1,0.5,0.2,0.8,0.2c0.3,0,0.5,0,0.7,0c0.2,0,0.4-0.1,0.6-0.2
			c0.2-0.1,0.3-0.3,0.5-0.5c0.1-0.1,0.1-0.3,0.2-0.4c0-0.2,0.1-0.3,0.1-0.5c0-0.2,0-0.4-0.1-0.6c-0.1-0.2-0.1-0.4-0.2-0.6
			c-0.1-0.2-0.2-0.4-0.4-0.6c-0.2-0.2-0.3-0.3-0.5-0.5c-0.2-0.1-0.3-0.2-0.5-0.3c-0.2-0.1-0.4-0.1-0.6-0.2c-0.1,0-0.2-0.1-0.3-0.1
			C15.4,9,15.3,9,15.1,8.9C15.2,8.9,15.2,8.9,15.1,8.9z M15.9,12.8c-0.1,0-0.1,0-0.2,0c-0.1,0-0.1,0-0.2-0.1c0-0.9,0-1.8,0-2.8
			c0,0,0.1,0,0.1,0c0,0,0,0,0.1,0c0,0,0,0,0,0c0.1,0,0.1,0,0.2,0.1c0,0,0.1,0,0.1,0c0,0,0.1,0,0.1,0c0,0,0.1,0,0.1,0.1
			c0.3,0.1,0.5,0.3,0.6,0.5c0.2,0.2,0.3,0.4,0.3,0.7c0,0.2,0.1,0.3,0.1,0.5c0,0.2,0,0.3-0.1,0.4c-0.1,0.1-0.1,0.2-0.2,0.3
			c-0.1,0.1-0.2,0.2-0.4,0.2c-0.1,0-0.2,0-0.4,0C16.1,12.8,16,12.8,15.9,12.8z"/>
	</g>
	<g display="none">
		<path display="inline" fill="#CBB278" stroke="#8B7444" stroke-miterlimit="10" d="M-26.7-40.3c0-1.6-1.3-2.3-2.8-1.3
			c-1.5,1-2.7,3.2-2.7,4.8c0,1.6,1.2,2.1,2.7,1.2C-28-36.7-26.7-38.7-26.7-40.3z"/>
		<path display="inline" fill="#CBB278" stroke="#8B7444" stroke-miterlimit="10" d="M-19.5-43.6c0-1.6-1.3-2.5-2.9-1.8
			c-1.6,0.7-2.9,2.7-2.9,4.4c0,1.6,1.3,2.3,2.9,1.6C-20.9-40.2-19.5-42-19.5-43.6z"/>
		<path display="inline" fill="#CBB278" stroke="#8B7444" stroke-miterlimit="10" d="M-12.1-45.9c0-1.6-1.4-2.7-3.1-2.2
			c-1.7,0.5-3,2.3-3,3.9c0,1.6,1.3,2.5,3,2C-13.4-42.6-12.1-44.2-12.1-45.9z"/>
		<path display="inline" fill="#CBB278" stroke="#8B7444" stroke-miterlimit="10" d="M-4.4-47c0-1.6-1.4-2.9-3.1-2.6
			c-1.7,0.2-3.1,1.9-3.1,3.5c0,1.6,1.4,2.7,3.1,2.5C-5.8-43.9-4.4-45.4-4.4-47z"/>
		<path display="inline" fill="#CBB278" stroke="#8B7444" stroke-miterlimit="10" d="M3.3-47.1c0-1.6-1.4-3.1-3.1-3.1
			c-1.7,0-3.1,1.4-3.1,3.1c0,1.6,1.4,2.9,3.1,2.9C1.9-44.2,3.3-45.5,3.3-47.1z"/>
		<path display="inline" fill="#CBB278" stroke="#8B7444" stroke-miterlimit="10" d="M11-46.2c0-1.6-1.4-3.3-3.1-3.5
			c-1.7-0.2-3.1,1-3.1,2.6c0,1.6,1.4,3.1,3.1,3.3C9.6-43.5,11-44.5,11-46.2z"/>
		<path display="inline" fill="#CBB278" stroke="#8B7444" stroke-miterlimit="10" d="M18.5-44.1c0-1.6-1.3-3.5-3-3.9
			c-1.7-0.5-3.1,0.6-3.1,2.2c0,1.6,1.4,3.3,3.1,3.8C17.2-41.6,18.5-42.5,18.5-44.1z"/>
		<path display="inline" fill="#CBB278" stroke="#8B7444" stroke-miterlimit="10" d="M25.8-41c0-1.6-1.3-3.6-2.9-4.4
			c-1.6-0.7-2.9,0.1-2.9,1.8c0,1.6,1.3,3.5,2.9,4.2C24.5-38.7,25.8-39.4,25.8-41z"/>
		<path display="inline" fill="#CBB278" stroke="#8B7444" stroke-miterlimit="10" d="M32.6-36.9c0-1.6-1.2-3.8-2.7-4.8
			c-1.5-1-2.8-0.3-2.8,1.3c0,1.6,1.3,3.7,2.8,4.6C31.4-34.7,32.6-35.2,32.6-36.9z"/>
	</g>
</symbol>
<g>

		<use xlink:href="#New_Symbol_4" width="66.2" height="112.9" id="XMLID_144_" x="-33.1" y="-56.4" transform="matrix(1.7413 0 0 -1.7413 69.9001 146.7099)" overflow="visible"/>
	<g>

			<path fill="#CA2E27" stroke="#711011" stroke-width="0.68" stroke-linecap="round" stroke-linejoin="round" stroke-miterlimit="10" d="
			M40.7,178.4c0.3,0.2,0.5,0.5,0.7,0.9c0.2,0.4,0.3,0.7,0.3,1c0,0.3,0,0.6-0.1,0.8c-0.1,0.2-0.4,0.3-0.7,0.3
			c-0.7-0.1-1.3-0.2-1.8-0.4c-0.6-0.2-1.1-0.4-1.5-0.5c0,2.1,0,4.1,0,6.1c0,2,0,4.1,0,6.3c0,0.5-0.1,0.8-0.4,0.9
			c-0.3,0.1-0.6,0.1-0.9-0.1c-0.3-0.2-0.6-0.4-0.9-0.8c-0.3-0.4-0.4-0.8-0.4-1.3c0-2,0-4,0-6c0-2,0-4,0-6c-0.1,0-0.3-0.1-0.6-0.2
			c-0.3-0.1-0.6-0.2-1-0.4c-0.4-0.2-0.7-0.3-1.1-0.6c-0.4-0.2-0.7-0.5-1-0.8c-0.2-0.2-0.4-0.5-0.4-0.8c-0.1-0.3-0.1-0.6,0-0.8
			c0.1-0.2,0.2-0.5,0.3-0.6c0.2-0.2,0.4-0.2,0.6-0.2c1.2,0.4,2.3,0.8,3.4,1.3c1.1,0.4,2.2,0.9,3.4,1.3c0.3,0.1,0.7,0.2,1,0.3
			c0.3,0.1,0.7,0.2,1,0.3C40.7,178.3,40.7,178.4,40.7,178.4z"/>

			<path fill="#CA2E27" stroke="#711011" stroke-width="0.68" stroke-linecap="round" stroke-linejoin="round" stroke-miterlimit="10" d="
			M55.1,191c-0.2,0.9-0.6,1.8-1,2.7c-0.4,0.9-0.9,1.6-1.4,2.2c-0.6,0.6-1.2,1.1-1.9,1.4c-0.7,0.3-1.6,0.3-2.5,0.1
			c-0.6-0.2-1.1-0.4-1.4-0.5c-0.4-0.2-0.7-0.4-1-0.7c-0.6-0.4-1.1-0.8-1.5-1.4c-0.4-0.6-0.8-1.2-1.1-1.9c-0.3-0.7-0.5-1.4-0.7-2.1
			c-0.1-0.7-0.2-1.4-0.3-2c-0.1-1.1,0-2.2,0.2-3.3c0.2-1.1,0.6-2,1.1-2.8c0.5-0.8,1.1-1.5,1.9-2c0.8-0.5,1.6-0.7,2.6-0.7
			c0.5,0,1,0.1,1.5,0.2c0.5,0.1,1,0.4,1.5,0.7c0.4,0.3,0.8,0.5,1.1,0.8c0.3,0.3,0.7,0.6,1,1c0.4,0.5,0.8,1.1,1.1,1.7
			c0.3,0.6,0.5,1.3,0.6,1.9c0.2,0.8,0.2,1.6,0.2,2.4C55.3,189.4,55.2,190.2,55.1,191z M49.5,194.3c0.4-0.1,0.8-0.3,1.1-0.6
			c0.3-0.3,0.6-0.7,0.9-1c0.2-0.4,0.5-0.8,0.6-1.3c0.2-0.5,0.3-1,0.4-1.4c0.1-0.6,0.1-1.3,0.1-2c0-0.7-0.1-1.4-0.4-2
			c-0.2-0.6-0.5-1-0.9-1.5c-0.4-0.4-0.9-0.8-1.4-1c-0.5-0.2-1-0.4-1.5-0.4c-0.5,0-0.9,0.1-1.3,0.4c-0.5,0.4-1,0.9-1.3,1.5
			c-0.3,0.6-0.6,1.3-0.8,2c-0.1,0.6-0.2,1.3-0.2,2c0,0.7,0.1,1.4,0.3,2.1c0.2,0.5,0.4,1,0.7,1.5c0.3,0.5,0.7,0.9,1,1.2
			c0.4,0.3,0.8,0.5,1.2,0.7C48.6,194.4,49,194.4,49.5,194.3z"/>

			<path fill="#CA2E27" stroke="#711011" stroke-width="0.68" stroke-linecap="round" stroke-linejoin="round" stroke-miterlimit="10" d="
			M72.5,198c0,0.4-0.2,0.7-0.4,1c-0.2,0.3-0.4,0.5-0.7,0.6c-0.3,0.1-0.5,0.1-0.8,0c-0.3-0.1-0.5-0.3-0.7-0.7
			c-0.1-0.3-0.2-0.6-0.3-0.9c0-0.3,0-0.6-0.1-1c0-0.4-0.1-0.7-0.1-1c0-0.3-0.1-0.6-0.1-1c-0.1-1-0.3-2-0.4-3c-0.2-1-0.3-2-0.6-3
			c-0.3,0.9-0.6,1.7-0.8,2.5c-0.3,0.8-0.5,1.7-0.8,2.5c-0.2,0.6-0.4,1.3-0.6,1.9c-0.2,0.6-0.4,1.2-0.7,1.8c-0.1,0.2-0.2,0.4-0.4,0.5
			c-0.2,0.1-0.4,0.2-0.7,0.2c-0.2,0-0.5,0-0.7-0.2c-0.2-0.1-0.4-0.3-0.5-0.5c-0.6-1.5-1.3-2.9-1.9-4.4c-0.6-1.5-1.2-2.9-1.9-4.4
			c-0.1,0.9-0.1,1.7-0.2,2.6c-0.1,0.9-0.1,1.7-0.2,2.6c0,0.3,0,0.6,0,1c0,0.4,0,0.8-0.1,1.2c0,0.4-0.1,0.8-0.1,1.1
			c-0.1,0.4-0.1,0.6-0.3,0.8c-0.2,0.3-0.4,0.5-0.7,0.6c-0.3,0.1-0.6,0-0.8-0.1c-0.3-0.1-0.5-0.3-0.7-0.6c-0.2-0.3-0.3-0.6-0.3-1
			c0-0.7,0.1-1.4,0.2-2.1c0.1-0.7,0.1-1.4,0.2-2c0.1-1.5,0.2-3,0.4-4.5c0.1-1.5,0.2-3,0.4-4.5c0-0.4,0.1-0.8,0.2-1.2
			c0.1-0.4,0.4-0.6,0.8-0.7c0.2,0,0.3-0.1,0.5,0c0.2,0,0.3,0.1,0.5,0.2c0.3,0.3,0.6,0.6,0.8,1.1c0.2,0.4,0.4,0.9,0.5,1.2
			c0.3,0.6,0.6,1.3,0.8,1.9c0.3,0.6,0.5,1.3,0.8,1.9c0.3,0.8,0.7,1.6,1,2.4c0.3,0.8,0.7,1.6,1,2.4c0.1-0.3,0.2-0.5,0.3-0.8
			c0.1-0.3,0.2-0.5,0.3-0.8c0.2-0.4,0.3-0.9,0.5-1.3c0.1-0.4,0.3-0.9,0.4-1.3c0.2-0.6,0.4-1.1,0.6-1.7c0.2-0.6,0.4-1.1,0.5-1.7
			c0.1-0.4,0.3-0.9,0.4-1.4c0.1-0.5,0.3-0.9,0.6-1.2c0.2-0.3,0.4-0.4,0.7-0.4c0.2,0,0.5,0,0.7,0.1c0.2,0.1,0.4,0.3,0.6,0.5
			c0.2,0.2,0.3,0.5,0.4,0.8c0.1,0.4,0.2,0.8,0.3,1.3c0.1,0.5,0.2,0.9,0.3,1.3c0.2,0.7,0.3,1.4,0.4,2.1c0.1,0.7,0.3,1.4,0.4,2.1
			c0.2,1.2,0.4,2.3,0.5,3.5c0.2,1.2,0.3,2.3,0.4,3.5C72.5,197.8,72.5,197.9,72.5,198z"/>

			<path fill="#CA2E27" stroke="#711011" stroke-width="0.68" stroke-linecap="round" stroke-linejoin="round" stroke-miterlimit="10" d="
			M85.1,196.7c0,0.4-0.2,0.7-0.3,1c-0.2,0.3-0.4,0.5-0.6,0.6c-0.2,0.1-0.5,0.2-0.7,0.1c-0.3,0-0.5-0.2-0.7-0.5
			c-0.2-0.2-0.3-0.5-0.3-0.9c0-0.3-0.1-0.7-0.1-1c-0.1-0.9-0.4-1.9-0.6-2.8c-0.9,0.1-1.8,0.2-2.7,0.3c-0.9,0.1-1.8,0.2-2.7,0.2
			c-0.1,0.5-0.2,0.9-0.3,1.4c-0.1,0.5-0.2,0.9-0.3,1.4c-0.1,0.3-0.1,0.7-0.2,1.1c-0.1,0.4-0.2,0.7-0.4,1c-0.3,0.4-0.5,0.6-0.8,0.6
			c-0.3,0.1-0.5,0-0.8-0.1c-0.2-0.1-0.4-0.4-0.6-0.7c-0.1-0.3-0.2-0.7-0.1-1.1c0-0.5,0.1-1.1,0.3-1.6c0.1-0.5,0.3-1,0.4-1.6
			c0.7-3,1.5-5.8,2.6-8.7c0.1-0.2,0.2-0.5,0.3-0.7c0.1-0.2,0.2-0.5,0.3-0.7c0.1-0.2,0.2-0.5,0.3-0.8c0.1-0.3,0.2-0.5,0.4-0.8
			c0.1-0.2,0.3-0.5,0.5-0.6c0.2-0.2,0.4-0.3,0.7-0.3c0.4,0,0.7,0.1,0.9,0.3c1,1.1,1.8,2.3,2.5,3.7c0.6,1.4,1.2,2.8,1.7,4.2
			c0.3-0.1,0.6-0.1,0.9-0.1c0.3,0,0.6,0.1,0.8,0.3c0.2,0.2,0.3,0.4,0.4,0.7c0,0.3,0,0.5-0.1,0.8c-0.1,0.3-0.2,0.5-0.4,0.7
			c-0.2,0.2-0.4,0.4-0.7,0.5c0.1,0.6,0.3,1.2,0.4,1.8c0.1,0.6,0.2,1.2,0.3,1.8C85.1,196.6,85.1,196.7,85.1,196.7z M80.7,190.3
			c-0.3-0.7-0.6-1.5-0.9-2.2c-0.3-0.7-0.7-1.4-1.1-2.1c-0.3,0.8-0.6,1.6-0.8,2.3c-0.3,0.8-0.5,1.5-0.7,2.3c0.7-0.1,1.3-0.1,1.8-0.2
			C79.5,190.5,80.1,190.4,80.7,190.3z"/>

			<path fill="#CA2E27" stroke="#711011" stroke-width="0.68" stroke-linecap="round" stroke-linejoin="round" stroke-miterlimit="10" d="
			M94.8,179.6c0.3,0.1,0.5,0.2,0.7,0.5c0.2,0.2,0.3,0.5,0.3,0.8c0,0.3,0,0.6-0.2,0.9c-0.1,0.3-0.4,0.5-0.7,0.7
			c-0.7,0.3-1.3,0.5-1.9,0.7c-0.6,0.1-1.1,0.2-1.5,0.3c0,2.1,0,4.1,0,6c0,2,0,4.1,0,6.3c0,0.5-0.1,0.9-0.4,1.1
			c-0.3,0.3-0.6,0.4-0.9,0.5c-0.3,0-0.6-0.1-0.9-0.3c-0.3-0.2-0.4-0.6-0.4-1c0-2,0-4,0-6c0-2,0-4,0-6c-0.1,0-0.4,0.1-0.7,0.2
			c-0.3,0.1-0.7,0.1-1,0.2c-0.4,0.1-0.8,0.1-1.1,0.1c-0.4,0-0.7-0.1-1-0.2c-0.2-0.1-0.4-0.3-0.5-0.5c-0.1-0.3-0.1-0.5,0-0.8
			c0.1-0.3,0.2-0.6,0.4-0.8c0.2-0.3,0.4-0.5,0.7-0.6c1.2-0.3,2.4-0.5,3.6-0.7c1.1-0.2,2.3-0.4,3.5-0.7c0.3-0.1,0.7-0.2,1-0.3
			c0.3-0.1,0.7-0.2,1.1-0.3C94.7,179.6,94.8,179.6,94.8,179.6z"/>

			<path fill="#CA2E27" stroke="#711011" stroke-width="0.68" stroke-linecap="round" stroke-linejoin="round" stroke-miterlimit="10" d="
			M108.8,183.9c-0.2,1.1-0.5,2.1-0.9,3.2c-0.4,1.1-0.8,2.1-1.3,3c-0.5,0.9-1.1,1.8-1.9,2.5c-0.7,0.7-1.5,1.2-2.4,1.6
			c-0.6,0.2-1.1,0.3-1.4,0.3c-0.3,0-0.7,0-1-0.1c-0.6,0-1.1-0.2-1.5-0.5c-0.4-0.3-0.8-0.7-1.1-1.3c-0.3-0.5-0.5-1.1-0.7-1.7
			c-0.1-0.6-0.2-1.3-0.3-1.9c-0.1-1.1,0-2.2,0.2-3.5c0.2-1.2,0.6-2.4,1.1-3.5c0.5-1.1,1.1-2.1,1.9-3.1c0.8-0.9,1.6-1.7,2.6-2.2
			c0.5-0.3,1-0.5,1.5-0.6c0.5-0.2,1-0.2,1.5-0.2c0.4,0,0.8,0.1,1.1,0.2c0.3,0.1,0.7,0.2,1,0.4c0.4,0.3,0.7,0.6,1,1.1
			c0.3,0.5,0.5,1,0.6,1.6c0.2,0.7,0.2,1.5,0.2,2.3C109,182.3,108.9,183.1,108.8,183.9z M103.4,190.4c0.4-0.4,0.8-0.8,1.1-1.3
			c0.3-0.5,0.6-1,0.8-1.5c0.2-0.5,0.4-1.1,0.6-1.7c0.2-0.6,0.3-1.1,0.4-1.7c0.1-0.7,0.1-1.4,0.1-2.1c0-0.7-0.1-1.3-0.3-1.8
			c-0.2-0.4-0.5-0.8-0.9-1c-0.4-0.2-0.8-0.3-1.3-0.3c-0.5,0-1,0.2-1.4,0.4c-0.5,0.3-0.9,0.6-1.3,1.2c-0.5,0.7-1,1.5-1.3,2.3
			c-0.3,0.8-0.6,1.6-0.8,2.5c-0.1,0.7-0.2,1.4-0.2,2.1c0,0.7,0.1,1.4,0.3,2c0.2,0.4,0.4,0.8,0.7,1.1c0.3,0.3,0.6,0.5,1,0.6
			c0.4,0.1,0.8,0.1,1.2-0.1C102.6,191.1,103,190.8,103.4,190.4z"/>

			<path fill="#CA2E27" stroke="#711011" stroke-width="0.68" stroke-linecap="round" stroke-linejoin="round" stroke-miterlimit="10" d="
			M46.2,213.1c-0.1-0.3-0.1-0.7-0.1-1c0-0.3,0.1-0.6,0.3-0.8c0.2-0.2,0.3-0.3,0.6-0.3c0.2,0,0.5,0.1,0.8,0.3
			c0.3,0.2,0.5,0.5,0.7,0.8c0.2,0.3,0.4,0.6,0.7,0.8c0.4,0.3,0.8,0.5,1.2,0.7c0.3,0.1,0.6,0.3,0.8,0.3c0.3,0.1,0.6,0.1,0.9,0.2
			c0.2,0,0.4-0.1,0.6-0.1c0.2,0,0.3-0.2,0.5-0.3c0.2-0.2,0.4-0.4,0.4-0.7c0.1-0.3,0.1-0.6,0-0.9c-0.1-0.3-0.2-0.6-0.4-0.9
			c-0.2-0.3-0.4-0.5-0.7-0.6c-0.5-0.3-1-0.6-1.5-0.8c-0.5-0.2-1-0.4-1.5-0.7c-0.5-0.3-0.9-0.6-1.4-1c-0.4-0.4-0.8-0.9-1.2-1.5
			c-0.2-0.3-0.3-0.6-0.4-0.9c-0.1-0.2-0.1-0.5-0.2-0.9c-0.1-0.9-0.1-1.5,0.2-2c0.2-0.5,0.5-0.9,0.9-1.3c0.5-0.5,1-0.8,1.6-1
			c0.6-0.2,1.2-0.3,1.9-0.2c0.6,0,1.3,0.2,2,0.4c0.7,0.2,1.3,0.6,1.9,1c0.3,0.2,0.6,0.5,0.7,0.9c0.1,0.4,0.1,0.7,0,1.1
			c-0.1,0.3-0.3,0.6-0.5,0.8c-0.2,0.2-0.5,0.2-0.9,0.1c-0.4-0.1-0.7-0.3-1-0.4c-0.3-0.1-0.6-0.3-0.9-0.4c-0.2-0.1-0.5-0.2-0.8-0.2
			c-0.3,0-0.5,0-0.8,0c-0.2,0-0.5,0.1-0.7,0.1c-0.2,0.1-0.4,0.1-0.5,0.2c-0.1,0.1-0.2,0.2-0.3,0.4c-0.1,0.2-0.2,0.4-0.2,0.6
			c0,0.3,0.1,0.5,0.3,0.8c0.2,0.2,0.4,0.4,0.7,0.6c0.5,0.2,1,0.4,1.5,0.6c0.5,0.2,1,0.5,1.5,0.7c0.5,0.3,1,0.6,1.4,1
			c0.4,0.4,0.8,0.8,1.1,1.4c0.3,0.5,0.6,1,0.7,1.6c0.1,0.6,0.2,1.2,0.2,1.7c0,0.6-0.2,1.1-0.3,1.6c-0.2,0.5-0.5,0.9-0.8,1.3
			c-0.2,0.2-0.5,0.4-0.7,0.6c-0.3,0.2-0.5,0.3-0.8,0.4c-0.6,0.3-1.2,0.3-1.9,0.2c-0.7-0.1-1.3-0.4-2-0.8c-0.7-0.4-1.3-0.8-1.9-1.4
			c-0.6-0.6-1.1-1.1-1.5-1.7C46.3,213.3,46.3,213.2,46.2,213.1z"/>

			<path fill="#CA2E27" stroke="#711011" stroke-width="0.68" stroke-linecap="round" stroke-linejoin="round" stroke-miterlimit="10" d="
			M70.4,211.3c-0.3,1-0.6,1.9-1,2.8c-0.4,0.9-0.9,1.7-1.4,2.4c-0.6,0.7-1.2,1.3-2,1.7c-0.7,0.4-1.6,0.6-2.6,0.5
			c-0.6-0.1-1.1-0.2-1.5-0.3c-0.4-0.1-0.7-0.3-1-0.5c-0.6-0.3-1.1-0.6-1.6-1.1c-0.4-0.5-0.8-1.1-1.1-1.7c-0.3-0.6-0.5-1.3-0.7-2
			c-0.2-0.7-0.3-1.4-0.3-2c-0.1-1.1,0-2.2,0.2-3.4c0.2-1.1,0.6-2.1,1.1-3c0.5-0.9,1.2-1.7,1.9-2.3c0.8-0.6,1.7-1,2.7-1.2
			c0.5-0.1,1-0.1,1.6,0c0.5,0.1,1,0.2,1.5,0.4c0.4,0.2,0.8,0.4,1.2,0.6c0.4,0.2,0.7,0.5,1,0.9c0.4,0.5,0.8,1,1.1,1.5
			c0.3,0.6,0.5,1.2,0.6,1.8c0.2,0.8,0.2,1.6,0.2,2.4C70.6,209.7,70.5,210.5,70.4,211.3z M64.7,215.5c0.4-0.2,0.8-0.5,1.2-0.8
			c0.3-0.4,0.6-0.7,0.9-1.2c0.3-0.4,0.5-0.9,0.6-1.4c0.2-0.5,0.3-1,0.5-1.5c0.1-0.6,0.1-1.3,0.1-2c0-0.7-0.1-1.3-0.4-2
			c-0.2-0.5-0.5-1-0.9-1.3c-0.4-0.4-0.9-0.7-1.4-0.8c-0.5-0.2-1-0.2-1.5-0.2c-0.5,0.1-1,0.3-1.4,0.6c-0.6,0.5-1,1.1-1.4,1.7
			c-0.3,0.6-0.6,1.4-0.8,2.2c-0.1,0.6-0.2,1.3-0.2,2c0,0.7,0.1,1.4,0.3,2.1c0.2,0.5,0.4,1,0.7,1.4c0.3,0.4,0.7,0.8,1.1,1
			c0.4,0.3,0.8,0.4,1.3,0.5C63.8,215.7,64.2,215.7,64.7,215.5z"/>

			<path fill="#CA2E27" stroke="#711011" stroke-width="0.68" stroke-linecap="round" stroke-linejoin="round" stroke-miterlimit="10" d="
			M80.7,202.5c0.1-0.4,0.2-0.6,0.4-0.9c0.2-0.2,0.4-0.4,0.6-0.5c0.2-0.1,0.5-0.1,0.7,0c0.2,0.1,0.5,0.2,0.6,0.5
			c0.1,0.1,0.1,0.2,0.2,0.3c0.1,0.1,0.1,0.2,0.1,0.3c0,0.2,0,0.5,0,1c0,0.4,0,0.9,0,1.4c0,0.5,0,0.9,0,1.2c0,0.4,0,0.6,0,0.6
			c0,0.9-0.1,1.9-0.2,2.8c-0.1,0.9-0.2,1.9-0.3,2.8c-0.1,0.7-0.3,1.4-0.4,2c-0.2,0.6-0.4,1.2-0.7,1.7c-0.3,0.5-0.6,1-1.1,1.3
			c-0.4,0.4-1,0.7-1.6,1c-0.3,0.1-0.5,0.2-0.8,0.3c-0.3,0.1-0.5,0.1-0.8,0.1c-0.7,0.1-1.5-0.1-2.3-0.3c-0.9-0.3-1.5-1-2-1.9
			c-0.4-0.9-0.8-1.9-0.9-3c-0.2-1.1-0.3-2.2-0.3-3.4c0-1.1,0-2.2,0-3c0-0.4,0-0.7,0-1.1c0-0.4,0-0.7,0-1.1c0-0.3,0-0.5,0-0.8
			c0-0.3,0.1-0.6,0.1-0.8c0.1-0.3,0.2-0.5,0.3-0.7c0.2-0.2,0.4-0.3,0.7-0.4c0.2,0,0.3,0,0.5,0c0.2,0.1,0.3,0.2,0.5,0.3
			c0.1,0.1,0.3,0.3,0.4,0.4c0.1,0.2,0.2,0.4,0.2,0.6c0,0.3,0,0.5,0,0.7c0,0.2,0,0.3,0,0.4c0,0.1,0,0.3,0,0.4c0,0.1,0,0.3,0,0.5
			c0,1.1,0,2.3,0,3.4c0,1.1,0.1,2.2,0.2,3.3c0,0.5,0.1,0.9,0.2,1.4c0.1,0.5,0.3,0.9,0.5,1.3c0.2,0.3,0.5,0.5,0.9,0.6
			c0.4,0.1,0.8,0.1,1.1,0c0.4-0.1,0.8-0.2,1.1-0.5c0.3-0.2,0.6-0.5,0.8-0.9c0.2-0.4,0.3-0.8,0.4-1.3c0.1-0.5,0.2-1,0.2-1.5
			c0.1-0.5,0.1-1,0.1-1.5c0-0.5,0-0.9,0.1-1.4c0-0.5,0.1-0.9,0.1-1.2c0-0.3,0-0.8,0-1.2c0-0.4,0-0.7,0-1.1c0-0.4,0-0.7,0-1.1
			C80.6,203.3,80.6,202.9,80.7,202.5z"/>

			<path fill="#CA2E27" stroke="#711011" stroke-width="0.68" stroke-linecap="round" stroke-linejoin="round" stroke-miterlimit="10" d="
			M84.9,202.2c0-0.2,0.1-0.4,0.2-0.6c0.1-0.2,0.2-0.4,0.4-0.5c0.1-0.2,0.3-0.3,0.5-0.4c0.2-0.1,0.3-0.1,0.5-0.1
			c0.5-0.3,1.1-0.7,1.6-0.9c0.6-0.3,1.1-0.5,1.7-0.6c0.6-0.1,1.1-0.2,1.7-0.2c0.5,0,1.1,0.2,1.6,0.4c0.4,0.2,0.8,0.5,1.1,0.9
			c0.3,0.4,0.6,0.8,0.8,1.3c0.3,0.8,0.5,1.7,0.5,2.6c0,0.9-0.2,1.8-0.5,2.7c-0.3,0.9-0.8,1.7-1.4,2.4c-0.6,0.7-1.3,1.4-2.1,1.8
			c-0.6,0.3-1.2,0.6-1.9,0.7c-0.6,0.1-1.3,0.2-1.9,0.2c0,0.8,0,1.7,0,2.5c0,0.2,0,0.4,0,0.6c0,0.2,0,0.4,0,0.6c0,0.2,0,0.4-0.1,0.6
			c0,0.2-0.1,0.4-0.2,0.6c-0.2,0.4-0.4,0.6-0.7,0.7c-0.3,0.1-0.5,0.2-0.8,0.1c-0.3-0.1-0.5-0.2-0.7-0.5c-0.2-0.2-0.3-0.5-0.3-0.9
			c0-1.5,0-3.1,0-4.6c-0.3-0.1-0.5-0.3-0.6-0.5c-0.1-0.2-0.2-0.5-0.2-0.8c0-0.3,0.1-0.5,0.2-0.8c0.1-0.3,0.3-0.5,0.5-0.7
			c0-2.2,0-4.4,0-6.6C84.9,202.3,84.9,202.2,84.9,202.2z M91.3,202.1c-0.6-0.2-1.2-0.1-1.9,0.1c-0.6,0.3-1.2,0.6-1.8,1
			c0,1.9,0,3.7,0,5.6c0.7,0,1.4-0.1,2.1-0.3c0.7-0.2,1.4-0.6,2-1.2c0.4-0.4,0.7-0.9,0.9-1.4c0.2-0.5,0.2-1.1,0.2-1.6
			c0-0.5-0.2-1-0.4-1.4C92,202.6,91.7,202.3,91.3,202.1z"/>
	</g>
</g>
<g>

		<use xlink:href="#New_Symbol_4" width="66.2" height="112.9" x="-33.1" y="-56.4" transform="matrix(1.7413 0 0 -1.7413 211.8124 146.7099)" overflow="visible"/>
	<g>

			<path fill="#CA2E27" stroke="#711011" stroke-width="0.68" stroke-linecap="round" stroke-linejoin="round" stroke-miterlimit="10" d="
			M180.9,189.4c0.2-0.2,0.5-0.3,0.8-0.2c0.3,0.1,0.6,0.2,0.8,0.4c0.2,0.2,0.4,0.5,0.6,0.8c0.1,0.3,0.2,0.7,0.1,1.1
			c-0.1,0.4-0.3,0.7-0.5,1c-0.2,0.3-0.5,0.5-0.7,0.7c-0.6,0.5-1.2,0.8-1.8,0.9c-0.7,0.1-1.3,0-2-0.3c-0.7-0.3-1.3-0.7-2-1.4
			c-0.6-0.6-1.2-1.4-1.7-2.4c-0.3-0.6-0.6-1.2-0.8-1.7c-0.2-0.6-0.4-1.2-0.5-1.8c-0.2-0.9-0.2-1.7-0.2-2.6c0-0.9,0.1-1.7,0.3-2.4
			c0.2-0.7,0.5-1.4,0.9-1.9c0.4-0.6,0.8-1,1.4-1.3c0.4-0.2,0.8-0.4,1.2-0.5c0.4-0.1,0.8-0.2,1.3-0.3c0.3,0,0.5-0.1,0.8-0.1
			c0.3,0,0.6,0,0.9,0c0.3,0,0.6,0.1,0.9,0.2c0.3,0.1,0.6,0.3,0.9,0.5c0.2,0.2,0.4,0.4,0.6,0.6c0.2,0.2,0.4,0.5,0.6,0.8
			c0.2,0.3,0.3,0.6,0.4,0.9c0.1,0.3,0.2,0.6,0.3,0.8c0,0.2,0.1,0.5,0,0.7c0,0.2-0.1,0.4-0.2,0.6c-0.1,0.2-0.2,0.3-0.4,0.4
			c-0.2,0.1-0.3,0.1-0.5,0.1c-0.3-0.1-0.6-0.2-0.8-0.4c-0.2-0.2-0.3-0.4-0.4-0.7c-0.1-0.2-0.2-0.5-0.3-0.7c-0.1-0.2-0.2-0.4-0.4-0.6
			c-0.1,0-0.2-0.1-0.3-0.1c-0.5,0-1,0-1.4,0.1c-0.5,0.1-0.9,0.2-1.3,0.5c-0.4,0.2-0.8,0.5-1.1,0.9c-0.3,0.4-0.5,0.8-0.7,1.4
			c-0.2,0.7-0.2,1.4-0.2,2.2c0,0.8,0.2,1.5,0.5,2.3c0.2,0.5,0.4,0.9,0.7,1.3c0.3,0.4,0.6,0.7,0.9,1c0.3,0.3,0.7,0.5,1,0.5
			c0.4,0.1,0.7,0.1,1-0.1c0.3-0.1,0.5-0.3,0.8-0.6C180.5,190,180.7,189.7,180.9,189.4z"/>

			<path fill="#CA2E27" stroke="#711011" stroke-width="0.68" stroke-linecap="round" stroke-linejoin="round" stroke-miterlimit="10" d="
			M194.8,188.8c0.3,0.2,0.6,0.4,0.8,0.8c0.2,0.3,0.3,0.7,0.3,1c0,0.3-0.1,0.6-0.3,0.9c-0.2,0.3-0.4,0.4-0.8,0.4c0,1.5,0,3,0,4.5
			c0,0.4-0.1,0.8-0.3,1.1c-0.2,0.3-0.4,0.5-0.7,0.6c-0.3,0.1-0.5,0.1-0.8-0.1c-0.3-0.1-0.6-0.4-0.8-0.8c-0.1-0.2-0.2-0.4-0.2-0.6
			c0-0.2-0.1-0.4-0.1-0.6c0-1.5,0-3,0-4.4c-1.7-0.4-3.4-0.8-5-1.2c0,1.5,0,2.9,0,4.4c0,0.2,0,0.4,0,0.6c0,0.2-0.1,0.3-0.2,0.5
			c-0.2,0.4-0.4,0.6-0.7,0.6c-0.3,0-0.6,0-0.8-0.3c-0.3-0.2-0.5-0.5-0.7-0.9c-0.2-0.4-0.3-0.8-0.3-1.3c0-4.4,0-8.8,0-13.3
			c0-0.4,0.1-0.8,0.3-1.1c0.2-0.3,0.5-0.4,0.8-0.5c0.3,0,0.6,0,0.9,0.2c0.3,0.2,0.5,0.5,0.7,1c0,0.1,0.1,0.3,0.1,0.4
			c0,0.1,0,0.2,0,0.4c0,1.9,0,3.9,0,5.8c1.7,0.4,3.4,0.9,5,1.2c0-1.8,0-3.7,0-5.5c0-0.3,0.1-0.7,0.2-0.9c0.2-0.3,0.4-0.6,0.7-0.7
			c0.3-0.1,0.6-0.1,0.9,0c0.3,0.1,0.5,0.3,0.7,0.6c0.2,0.3,0.3,0.7,0.3,1.1C194.8,184.8,194.8,186.8,194.8,188.8z"/>

			<path fill="#CA2E27" stroke="#711011" stroke-width="0.68" stroke-linecap="round" stroke-linejoin="round" stroke-miterlimit="10" d="
			M202.4,195.9c0.4,0.1,0.7,0.2,0.9,0.5c0.2,0.3,0.4,0.6,0.5,0.9c0.1,0.3,0.1,0.6-0.1,1c-0.1,0.3-0.4,0.5-0.7,0.7
			c-0.3,0.1-0.6,0.1-0.9,0.1c-0.4,0-0.7,0-1.1-0.1c-0.4,0-0.7-0.1-1-0.2c-0.3-0.1-0.5-0.1-0.7-0.1c-0.4-0.1-0.9-0.1-1.3-0.2
			c-0.3,0-0.6-0.2-0.8-0.4c-0.2-0.2-0.4-0.5-0.5-0.8c-0.1-0.3-0.1-0.6-0.1-0.9c0-0.3,0.2-0.6,0.4-0.8c0.2-0.2,0.5-0.3,0.8-0.3
			c0.3,0,0.7,0.1,1,0.1c0-3.4,0-6.8,0-10.2c-0.3,0-0.7-0.1-0.9-0.1c-0.3-0.1-0.6-0.2-0.9-0.5c-0.2-0.2-0.4-0.5-0.4-0.7
			c-0.1-0.3-0.1-0.5,0-0.7c0.1-0.2,0.2-0.5,0.3-0.7c0.1-0.2,0.3-0.3,0.5-0.4c0.2-0.1,0.4-0.1,0.6-0.1c0.7,0.1,1.5,0.2,2.3,0.3
			c0.8,0.1,1.5,0.2,2.3,0.3c0.1,0,0.1,0,0.2,0.1c0.1,0.1,0.1,0.1,0.2,0.1c0.3,0.3,0.6,0.6,0.7,1c0.1,0.4,0.1,0.8-0.1,1.2
			c-0.1,0.2-0.2,0.3-0.4,0.4c-0.2,0.1-0.3,0.2-0.5,0.2c-0.2,0-0.4,0-0.6,0c-0.2,0-0.4,0-0.6-0.1c0,3.4,0,6.8,0,10.2
			c0.1,0,0.2,0,0.3,0c0.1,0,0.2,0,0.3,0C202.3,195.9,202.3,195.9,202.4,195.9z"/>

			<path fill="#CA2E27" stroke="#711011" stroke-width="0.68" stroke-linecap="round" stroke-linejoin="round" stroke-miterlimit="10" d="
			M213.7,194.5c0.2-0.3,0.5-0.4,0.8-0.5c0.3-0.1,0.6,0,0.8,0.1c0.3,0.1,0.4,0.3,0.6,0.6c0.1,0.3,0.2,0.6,0.1,1.1
			c-0.1,0.4-0.3,0.8-0.5,1.2c-0.3,0.4-0.5,0.7-0.8,1c-0.6,0.7-1.2,1.2-1.9,1.6c-0.7,0.3-1.4,0.5-2.1,0.5c-0.7,0-1.4-0.2-2.1-0.6
			c-0.7-0.4-1.3-1-1.8-1.8c-0.3-0.5-0.6-0.9-0.8-1.5c-0.2-0.5-0.4-1-0.5-1.6c-0.2-0.8-0.3-1.7-0.2-2.5c0-0.9,0.1-1.7,0.4-2.5
			c0.2-0.8,0.5-1.6,0.9-2.3c0.4-0.7,0.9-1.3,1.5-1.8c0.4-0.4,0.9-0.7,1.3-0.9c0.4-0.3,0.9-0.5,1.4-0.7c0.3-0.1,0.6-0.3,0.9-0.4
			c0.3-0.1,0.6-0.2,0.9-0.3c0.3-0.1,0.6-0.1,0.9-0.1c0.3,0,0.6,0.1,0.9,0.2c0.2,0.1,0.4,0.2,0.6,0.4c0.2,0.2,0.4,0.4,0.6,0.6
			c0.2,0.2,0.3,0.5,0.5,0.7c0.1,0.3,0.2,0.5,0.3,0.7c0,0.2,0.1,0.4,0,0.7c0,0.2-0.1,0.4-0.2,0.6c-0.1,0.2-0.2,0.4-0.4,0.5
			c-0.2,0.1-0.3,0.2-0.6,0.3c-0.3,0.1-0.6,0-0.8-0.1c-0.2-0.1-0.3-0.3-0.4-0.5c-0.1-0.2-0.2-0.4-0.3-0.6c-0.1-0.2-0.3-0.3-0.4-0.4
			c-0.1,0-0.2,0-0.3,0c-0.5,0.2-1,0.4-1.5,0.6c-0.5,0.3-1,0.6-1.4,0.9c-0.4,0.4-0.8,0.8-1.1,1.3c-0.3,0.5-0.6,1-0.7,1.6
			c-0.2,0.7-0.2,1.5-0.2,2.2c0,0.8,0.2,1.5,0.5,2.1c0.2,0.4,0.4,0.7,0.7,1c0.3,0.3,0.6,0.5,1,0.7c0.4,0.2,0.7,0.2,1.1,0.2
			c0.4,0,0.7-0.2,1.1-0.4c0.3-0.2,0.6-0.5,0.8-0.9C213.3,195.2,213.5,194.9,213.7,194.5z"/>

			<path fill="#CA2E27" stroke="#711011" stroke-width="0.68" stroke-linecap="round" stroke-linejoin="round" stroke-miterlimit="10" d="
			M219.7,197.8c0,0.4-0.2,0.7-0.4,1c-0.2,0.3-0.4,0.5-0.7,0.6c-0.3,0.1-0.5,0.1-0.8,0.1c-0.3-0.1-0.5-0.3-0.6-0.7
			c-0.1-0.2-0.1-0.5-0.2-1c0-0.5-0.1-1-0.1-1.5c0-0.5,0-1,0-1.5c0-0.5,0-0.7,0-0.8c0-1.8,0-3.6,0-5.4c0-0.1,0-0.3,0-0.8
			c0-0.5,0-1,0-1.5c0-0.6,0-1.1,0.1-1.6c0-0.5,0.1-0.9,0.2-1.1c0.1-0.3,0.3-0.5,0.5-0.6c0.2-0.1,0.4-0.2,0.6-0.2
			c0.2,0,0.4,0.1,0.6,0.2c0.2,0.1,0.4,0.3,0.5,0.5c0.1,0.1,0.1,0.2,0.2,0.3c0.1,0.1,0.1,0.2,0.1,0.3c0,0.8,0,1.6,0,2.4
			c0,0.8,0,1.6,0,2.4c0.5-0.4,1-0.9,1.5-1.3c0.4-0.5,0.9-1.1,1.3-1.7c0.1-0.2,0.2-0.4,0.4-0.7c0.2-0.3,0.4-0.7,0.6-1
			c0.2-0.4,0.4-0.7,0.7-1c0.2-0.3,0.4-0.5,0.6-0.6c0.3-0.2,0.6-0.3,0.9-0.3c0.3,0,0.5,0.1,0.7,0.3c0.2,0.2,0.3,0.4,0.4,0.8
			c0.1,0.3,0,0.7-0.2,1.1c-0.1,0.2-0.1,0.3-0.2,0.4c-0.1,0.1-0.1,0.2-0.2,0.3c-0.1,0.1-0.1,0.2-0.2,0.3c-0.1,0.1-0.1,0.2-0.2,0.4
			c-0.2,0.4-0.4,0.8-0.7,1.2c-0.3,0.4-0.5,0.8-0.8,1.2c-0.3,0.4-0.6,0.8-0.9,1.1c-0.3,0.4-0.6,0.7-0.9,1c0.4,0.4,0.7,0.8,1.1,1.3
			c0.4,0.4,0.7,0.8,1.1,1.2c0.1,0.1,0.3,0.3,0.6,0.6c0.3,0.3,0.6,0.6,0.9,1c0.3,0.4,0.6,0.7,0.9,1.1c0.3,0.4,0.4,0.6,0.5,0.8
			c0.1,0.3,0.1,0.7,0,1c-0.1,0.3-0.3,0.6-0.5,0.8c-0.2,0.2-0.5,0.4-0.7,0.4c-0.3,0.1-0.5,0-0.8-0.2c-0.1-0.1-0.2-0.2-0.4-0.3
			c-0.1-0.1-0.2-0.3-0.4-0.4c-0.1-0.1-0.2-0.3-0.3-0.4c-0.1-0.1-0.2-0.2-0.3-0.3c-0.7-0.8-1.4-1.6-2-2.3c-0.7-0.8-1.4-1.5-2.1-2.3
			c-0.1,0-0.2,0.1-0.2,0.1c-0.1,0-0.2,0.1-0.2,0.1c0,0.9,0,1.7,0,2.6c0,0.9,0,1.7,0.1,2.6C219.7,197.7,219.7,197.7,219.7,197.8z"/>

			<path fill="#CA2E27" stroke="#711011" stroke-width="0.68" stroke-linecap="round" stroke-linejoin="round" stroke-miterlimit="10" d="
			M236.9,192.5c0.3-0.1,0.5,0,0.7,0.1c0.2,0.1,0.4,0.2,0.5,0.4c0.1,0.2,0.2,0.4,0.2,0.6c0,0.3,0,0.5-0.1,0.8c0,0.1-0.1,0.3-0.3,0.5
			c-0.1,0.2-0.3,0.3-0.4,0.4c-0.9,0.6-1.9,1-2.8,1.3c-1,0.3-1.9,0.5-2.9,0.6c-0.3,0-0.6,0.1-0.9,0.1c-0.3,0-0.6,0-0.9-0.2
			c-0.5-0.3-0.7-0.7-0.7-1.3c0-3.6,0-7.3,0-10.9c-0.2-0.1-0.3-0.3-0.4-0.4c-0.1-0.2-0.2-0.4-0.2-0.6c0-0.2,0-0.5,0.1-0.7
			c0.1-0.2,0.2-0.4,0.4-0.6c0.3-0.3,0.6-0.6,1-0.7c0.4-0.2,0.7-0.3,1.1-0.5c0.8-0.3,1.5-0.5,2.3-0.7c0.8-0.2,1.5-0.4,2.3-0.6
			c0.2-0.1,0.5-0.1,0.8-0.3c0.3-0.1,0.6-0.2,0.8-0.1c0.3,0,0.5,0.2,0.6,0.4c0.2,0.2,0.3,0.5,0.3,0.7c0,0.3,0,0.6-0.1,0.9
			c-0.1,0.3-0.3,0.6-0.6,0.8c-0.4,0.3-0.7,0.5-1.2,0.5c-0.4,0.1-0.8,0.2-1.2,0.3c-0.5,0.1-1.1,0.3-1.6,0.4c-0.5,0.1-1.1,0.3-1.6,0.5
			c0,1.2,0,2.4,0,3.6c0.5-0.1,1-0.2,1.6-0.3c0.5-0.2,1-0.3,1.6-0.5c0.2-0.1,0.5-0.2,0.7-0.3c0.2-0.1,0.5-0.2,0.7-0.2
			c0.3,0,0.6,0.1,0.7,0.3c0.2,0.2,0.3,0.5,0.3,0.8c0,0.3,0,0.6-0.1,1c-0.1,0.3-0.3,0.6-0.6,0.8c-0.2,0.2-0.6,0.4-1,0.5
			c-0.4,0.2-0.9,0.3-1.3,0.5c-0.5,0.1-0.9,0.3-1.4,0.4c-0.4,0.1-0.8,0.2-1.1,0.2c0,1.1,0,2.1,0,3.2c0.8-0.1,1.6-0.2,2.4-0.5
			c0.8-0.3,1.6-0.6,2.4-1.1C236.8,192.6,236.8,192.6,236.9,192.5z"/>

			<path fill="#CA2E27" stroke="#711011" stroke-width="0.68" stroke-linecap="round" stroke-linejoin="round" stroke-miterlimit="10" d="
			M248.2,176.7c0.1-0.4,0.2-0.7,0.4-1c0.2-0.3,0.4-0.5,0.6-0.7c0.2-0.2,0.4-0.2,0.7-0.2c0.2,0,0.4,0.1,0.6,0.4
			c0.1,0.1,0.1,0.1,0.2,0.2c0,0.1,0.1,0.2,0.1,0.3c0,2.4,0,4.9,0,7.3c0,2.5-0.1,4.9-0.2,7.4c0,0.4-0.1,0.7-0.3,1.1
			c-0.2,0.3-0.4,0.5-0.7,0.7c-0.3,0.2-0.5,0.2-0.8,0.2c-0.3,0-0.5-0.2-0.6-0.4c0,0,0,0,0,0c0,0,0,0,0,0.1c-0.9-1.5-1.9-2.8-2.9-4.1
			c-1-1.3-2.1-2.6-3.2-3.9c0,1.9,0,3.9,0,5.8c0,0.8,0,1.4,0,2c0,0.5,0,1,0,1.3c0,0.3,0,0.6-0.1,0.8c0,0.2-0.1,0.4-0.1,0.5
			c-0.1,0.5-0.3,0.8-0.6,1c-0.3,0.2-0.5,0.3-0.8,0.4c-0.3,0-0.5-0.1-0.7-0.3c-0.2-0.2-0.3-0.5-0.3-0.9c0-0.2,0-0.6,0-1.1
			c0-0.5,0-1.1,0-1.7c0-0.6,0-1.3,0-2.1c0-0.7,0-1.5,0-2.2c0-0.7,0-1.4,0-2c0-0.6,0-1.1,0-1.6c0-0.6,0-1.2,0-1.7c0-0.6,0-1.1,0-1.7
			c0-0.3,0.1-0.6,0.2-0.8c0.1-0.2,0.3-0.4,0.5-0.6c0.2-0.2,0.4-0.3,0.6-0.4c0.2-0.1,0.4-0.1,0.6-0.1c0.2,0,0.3,0.1,0.5,0.3
			c0.2,0.2,0.4,0.3,0.5,0.5c0.2,0.2,0.3,0.4,0.5,0.6c0.1,0.2,0.3,0.4,0.4,0.5c0.4,0.4,0.8,0.9,1.3,1.4c0.5,0.5,0.9,1,1.3,1.5
			c0.4,0.5,0.8,1,1.2,1.5c0.4,0.5,0.8,1,1.1,1.5c0-1.6,0.1-3.1,0.1-4.7c0-1.5,0-3.1,0-4.6C248.2,176.8,248.2,176.7,248.2,176.7z"/>

			<path fill="#CA2E27" stroke="#711011" stroke-width="0.68" stroke-linecap="round" stroke-linejoin="round" stroke-miterlimit="10" d="
			M187.8,213.3c-0.1-0.3-0.1-0.7-0.1-1c0-0.3,0.1-0.6,0.3-0.8c0.2-0.2,0.3-0.3,0.6-0.3c0.2,0,0.5,0.1,0.8,0.3
			c0.3,0.2,0.5,0.5,0.7,0.8c0.2,0.3,0.4,0.6,0.7,0.8c0.4,0.3,0.8,0.6,1.2,0.7c0.3,0.1,0.6,0.3,0.8,0.3c0.3,0.1,0.6,0.2,0.9,0.2
			c0.2,0,0.4-0.1,0.6-0.1c0.2,0,0.3-0.2,0.5-0.3c0.2-0.2,0.4-0.4,0.4-0.7c0.1-0.3,0.1-0.6,0-0.9c-0.1-0.3-0.2-0.6-0.4-0.9
			c-0.2-0.3-0.4-0.5-0.7-0.6c-0.5-0.3-1-0.6-1.5-0.8c-0.5-0.2-1-0.5-1.5-0.7c-0.5-0.3-0.9-0.6-1.4-1c-0.4-0.4-0.8-0.9-1.2-1.5
			c-0.2-0.3-0.3-0.6-0.4-0.9c-0.1-0.2-0.1-0.5-0.2-0.9c-0.1-0.9-0.1-1.5,0.2-2c0.2-0.5,0.5-0.9,0.9-1.3c0.5-0.5,1-0.8,1.6-1
			c0.6-0.2,1.2-0.3,1.9-0.2c0.6,0,1.3,0.2,2,0.4c0.7,0.2,1.3,0.6,1.9,1c0.3,0.2,0.6,0.5,0.7,0.9c0.1,0.4,0.1,0.7,0,1.1
			c-0.1,0.3-0.3,0.6-0.5,0.8c-0.2,0.2-0.5,0.2-0.9,0.1c-0.4-0.1-0.7-0.3-1-0.4c-0.3-0.1-0.6-0.3-0.9-0.4c-0.2-0.1-0.5-0.2-0.8-0.2
			c-0.3,0-0.5,0-0.8,0c-0.2,0-0.5,0.1-0.7,0.1c-0.2,0.1-0.4,0.1-0.5,0.2c-0.1,0.1-0.2,0.2-0.3,0.4c-0.1,0.2-0.2,0.4-0.2,0.6
			c0,0.3,0.1,0.5,0.3,0.8c0.2,0.2,0.4,0.4,0.7,0.6c0.5,0.2,1,0.4,1.5,0.7c0.5,0.2,1,0.5,1.5,0.7c0.5,0.3,1,0.6,1.4,1
			c0.4,0.4,0.8,0.8,1.1,1.4c0.3,0.5,0.6,1,0.7,1.6c0.1,0.6,0.2,1.2,0.2,1.7c0,0.6-0.2,1.1-0.3,1.6c-0.2,0.5-0.5,0.9-0.8,1.3
			c-0.2,0.2-0.5,0.4-0.7,0.6c-0.3,0.2-0.5,0.3-0.8,0.4c-0.6,0.3-1.2,0.3-1.9,0.2c-0.7-0.1-1.3-0.4-2-0.8c-0.7-0.4-1.3-0.8-1.9-1.4
			c-0.6-0.6-1.1-1.1-1.5-1.7C188,213.5,187.9,213.4,187.8,213.3z"/>

			<path fill="#CA2E27" stroke="#711011" stroke-width="0.68" stroke-linecap="round" stroke-linejoin="round" stroke-miterlimit="10" d="
			M212,211.6c-0.3,1-0.6,1.9-1,2.8c-0.4,0.9-0.9,1.7-1.4,2.4c-0.6,0.7-1.2,1.3-2,1.7c-0.7,0.4-1.6,0.6-2.6,0.5
			c-0.6-0.1-1.1-0.2-1.5-0.3c-0.4-0.1-0.7-0.3-1-0.5c-0.6-0.3-1.1-0.6-1.6-1.1c-0.4-0.5-0.8-1.1-1.1-1.7c-0.3-0.6-0.5-1.3-0.7-2
			c-0.2-0.7-0.3-1.4-0.3-2c-0.1-1.1,0-2.2,0.2-3.4c0.2-1.1,0.6-2.1,1.1-3c0.5-0.9,1.2-1.7,1.9-2.3c0.8-0.6,1.7-1,2.7-1.1
			c0.5-0.1,1-0.1,1.6,0c0.5,0.1,1,0.2,1.5,0.4c0.4,0.2,0.8,0.4,1.2,0.6c0.4,0.2,0.7,0.5,1,0.9c0.4,0.5,0.8,1,1.1,1.5
			c0.3,0.6,0.5,1.2,0.6,1.8c0.2,0.8,0.2,1.6,0.2,2.4C212.2,210.1,212.1,210.9,212,211.6z M206.3,215.8c0.4-0.2,0.8-0.5,1.2-0.8
			c0.3-0.4,0.6-0.7,0.9-1.2c0.3-0.4,0.5-0.9,0.6-1.4c0.2-0.5,0.3-1,0.5-1.5c0.1-0.6,0.1-1.3,0.1-2c0-0.7-0.1-1.3-0.4-2
			c-0.2-0.5-0.5-1-0.9-1.4c-0.4-0.4-0.9-0.7-1.4-0.8c-0.5-0.2-1-0.2-1.5-0.2c-0.5,0.1-1,0.2-1.4,0.6c-0.6,0.5-1,1.1-1.4,1.7
			c-0.3,0.6-0.6,1.4-0.8,2.2c-0.1,0.6-0.2,1.3-0.2,2c0,0.7,0.1,1.4,0.3,2.1c0.2,0.5,0.4,1,0.7,1.4c0.3,0.4,0.7,0.8,1.1,1
			c0.4,0.3,0.8,0.4,1.3,0.5C205.4,216.1,205.8,216,206.3,215.8z"/>

			<path fill="#CA2E27" stroke="#711011" stroke-width="0.68" stroke-linecap="round" stroke-linejoin="round" stroke-miterlimit="10" d="
			M222.3,202.9c0.1-0.4,0.2-0.6,0.4-0.9c0.2-0.2,0.4-0.4,0.6-0.5c0.2-0.1,0.5-0.1,0.7,0c0.2,0.1,0.5,0.2,0.6,0.5
			c0.1,0.1,0.1,0.2,0.2,0.3c0.1,0.1,0.1,0.2,0.1,0.3c0,0.2,0,0.5,0,1c0,0.4,0,0.9,0,1.4c0,0.5,0,0.9,0,1.2c0,0.4,0,0.5,0,0.6
			c0,0.9-0.1,1.9-0.2,2.8c-0.1,0.9-0.2,1.9-0.3,2.8c-0.1,0.7-0.3,1.4-0.4,2c-0.2,0.6-0.4,1.2-0.7,1.7c-0.3,0.5-0.6,1-1.1,1.3
			c-0.4,0.4-1,0.7-1.6,1c-0.3,0.1-0.5,0.2-0.8,0.2c-0.3,0.1-0.5,0.1-0.8,0.1c-0.7,0.1-1.5-0.1-2.3-0.3c-0.9-0.3-1.5-1-2-1.9
			c-0.4-0.9-0.8-1.9-0.9-3c-0.2-1.1-0.3-2.2-0.3-3.4c0-1.1,0-2.2,0-3c0-0.4,0-0.7,0-1.1c0-0.4,0-0.7,0-1.1c0-0.3,0-0.5,0-0.8
			c0-0.3,0.1-0.6,0.1-0.8c0.1-0.3,0.2-0.5,0.3-0.7c0.2-0.2,0.4-0.3,0.7-0.4c0.2,0,0.3,0,0.5,0c0.2,0.1,0.4,0.2,0.5,0.3
			c0.1,0.1,0.3,0.3,0.4,0.4c0.1,0.2,0.2,0.4,0.2,0.6c0,0.3,0,0.5,0,0.7c0,0.2,0,0.3,0,0.4c0,0.1,0,0.3,0,0.4c0,0.1,0,0.3,0,0.5
			c0,1.1,0,2.3,0,3.4c0,1.1,0.1,2.2,0.2,3.3c0,0.5,0.1,0.9,0.2,1.4c0.1,0.5,0.3,0.9,0.5,1.3c0.2,0.3,0.5,0.5,0.9,0.6
			c0.4,0.1,0.8,0.1,1.1,0c0.4-0.1,0.8-0.2,1.1-0.5c0.3-0.2,0.6-0.5,0.8-0.9c0.2-0.4,0.3-0.8,0.4-1.2c0.1-0.5,0.2-1,0.2-1.5
			c0.1-0.5,0.1-1,0.1-1.5c0-0.5,0-0.9,0.1-1.4c0-0.5,0.1-0.9,0.1-1.2c0-0.3,0-0.8,0-1.2c0-0.4,0-0.7,0-1.1c0-0.4,0-0.7,0-1.1
			C222.2,203.7,222.3,203.3,222.3,202.9z"/>

			<path fill="#CA2E27" stroke="#711011" stroke-width="0.68" stroke-linecap="round" stroke-linejoin="round" stroke-miterlimit="10" d="
			M226.5,202.6c0-0.2,0.1-0.4,0.2-0.6c0.1-0.2,0.2-0.4,0.4-0.5c0.1-0.2,0.3-0.3,0.5-0.4c0.2-0.1,0.3-0.1,0.5-0.1
			c0.5-0.3,1.1-0.7,1.6-0.9c0.6-0.3,1.1-0.5,1.7-0.6c0.6-0.1,1.1-0.2,1.7-0.2c0.5,0,1.1,0.2,1.6,0.4c0.4,0.2,0.8,0.5,1.1,0.9
			c0.3,0.4,0.6,0.8,0.8,1.3c0.3,0.8,0.5,1.7,0.5,2.6c0,0.9-0.2,1.8-0.5,2.7c-0.3,0.9-0.8,1.7-1.4,2.4c-0.6,0.7-1.3,1.4-2.1,1.8
			c-0.6,0.3-1.2,0.6-1.9,0.7c-0.6,0.1-1.3,0.2-1.9,0.2c0,0.8,0,1.7,0,2.5c0,0.2,0,0.4,0,0.6c0,0.2,0,0.4,0,0.6c0,0.2,0,0.4-0.1,0.6
			c0,0.2-0.1,0.4-0.2,0.6c-0.2,0.4-0.4,0.6-0.7,0.7c-0.3,0.1-0.5,0.2-0.8,0.1c-0.3-0.1-0.5-0.2-0.7-0.5c-0.2-0.2-0.3-0.5-0.3-0.9
			c0-1.5,0-3.1,0-4.6c-0.3-0.1-0.5-0.3-0.6-0.5c-0.1-0.2-0.2-0.5-0.2-0.8c0-0.3,0.1-0.5,0.2-0.8c0.1-0.3,0.3-0.5,0.5-0.7
			c0-2.2,0-4.4,0-6.6C226.5,202.7,226.5,202.7,226.5,202.6z M232.9,202.5c-0.6-0.2-1.2-0.1-1.9,0.1c-0.6,0.2-1.2,0.6-1.8,1
			c0,1.9,0,3.7,0,5.6c0.7,0,1.4-0.1,2.1-0.3c0.7-0.2,1.4-0.6,2-1.2c0.4-0.4,0.7-0.9,0.9-1.4c0.2-0.5,0.2-1.1,0.2-1.6
			c0-0.5-0.2-1-0.4-1.4C233.6,203,233.3,202.7,232.9,202.5z"/>
	</g>
</g>
<g>

		<use xlink:href="#New_Symbol_4" width="66.2" height="112.9" id="XMLID_142_" x="-33.1" y="-56.4" transform="matrix(1.7413 0 0 -1.7413 354.2327 146.7099)" overflow="visible"/>
	<g>

			<path fill="#CA2E27" stroke="#711011" stroke-width="0.68" stroke-linecap="round" stroke-linejoin="round" stroke-miterlimit="10" d="
			M325.1,178.3c0.3,0.2,0.5,0.5,0.7,0.9c0.2,0.4,0.3,0.7,0.3,1c0,0.3,0,0.6-0.1,0.8c-0.1,0.2-0.4,0.3-0.7,0.3
			c-0.7-0.1-1.3-0.2-1.8-0.4c-0.6-0.2-1.1-0.4-1.5-0.5c0,2.1,0,4.1,0,6.1c0,2,0,4.1,0,6.3c0,0.5-0.1,0.8-0.4,0.9
			c-0.3,0.1-0.6,0.1-0.9-0.1c-0.3-0.2-0.6-0.4-0.9-0.8c-0.3-0.4-0.4-0.8-0.4-1.3c0-2,0-4,0-6c0-2,0-4,0-6c-0.1,0-0.3-0.1-0.6-0.2
			c-0.3-0.1-0.6-0.2-1-0.4c-0.4-0.2-0.7-0.3-1.1-0.6c-0.4-0.2-0.7-0.5-1-0.8c-0.2-0.2-0.4-0.5-0.4-0.8c-0.1-0.3-0.1-0.6,0-0.8
			c0.1-0.2,0.2-0.5,0.3-0.6c0.2-0.2,0.4-0.2,0.6-0.2c1.2,0.4,2.3,0.8,3.4,1.3c1.1,0.4,2.2,0.9,3.4,1.3c0.3,0.1,0.7,0.2,1,0.3
			c0.3,0.1,0.7,0.2,1,0.3C325,178.2,325,178.3,325.1,178.3z"/>

			<path fill="#CA2E27" stroke="#711011" stroke-width="0.68" stroke-linecap="round" stroke-linejoin="round" stroke-miterlimit="10" d="
			M339.5,190.9c-0.2,0.9-0.6,1.8-1,2.7c-0.4,0.9-0.9,1.6-1.4,2.2c-0.6,0.6-1.2,1.1-1.9,1.4c-0.7,0.3-1.6,0.3-2.5,0.1
			c-0.6-0.2-1.1-0.4-1.4-0.5c-0.4-0.2-0.7-0.4-1-0.7c-0.6-0.4-1.1-0.8-1.5-1.4c-0.4-0.6-0.8-1.2-1.1-1.9c-0.3-0.7-0.5-1.4-0.7-2.1
			c-0.1-0.7-0.2-1.4-0.3-2c-0.1-1.1,0-2.2,0.2-3.3c0.2-1.1,0.6-2,1.1-2.8c0.5-0.8,1.1-1.5,1.9-2c0.8-0.5,1.6-0.7,2.6-0.7
			c0.5,0,1,0.1,1.5,0.2c0.5,0.1,1,0.4,1.5,0.7c0.4,0.3,0.8,0.5,1.1,0.8c0.3,0.3,0.7,0.6,1,1c0.4,0.5,0.8,1.1,1.1,1.7
			c0.3,0.6,0.5,1.3,0.6,1.9c0.2,0.8,0.2,1.6,0.2,2.4C339.6,189.3,339.6,190.1,339.5,190.9z M333.8,194.2c0.4-0.1,0.8-0.3,1.1-0.6
			c0.3-0.3,0.6-0.7,0.9-1c0.2-0.4,0.5-0.8,0.6-1.3c0.2-0.5,0.3-1,0.4-1.4c0.1-0.6,0.1-1.3,0.1-2c0-0.7-0.1-1.4-0.4-2
			c-0.2-0.6-0.5-1-0.9-1.5c-0.4-0.4-0.9-0.8-1.4-1c-0.5-0.2-1-0.4-1.5-0.4c-0.5,0-0.9,0.1-1.3,0.4c-0.5,0.4-1,0.9-1.3,1.5
			c-0.3,0.6-0.6,1.3-0.8,2c-0.1,0.6-0.2,1.3-0.2,2c0,0.7,0.1,1.4,0.3,2.1c0.2,0.5,0.4,1,0.7,1.5c0.3,0.5,0.7,0.9,1,1.2
			c0.4,0.3,0.8,0.5,1.2,0.7C332.9,194.3,333.4,194.3,333.8,194.2z"/>

			<path fill="#CA2E27" stroke="#711011" stroke-width="0.68" stroke-linecap="round" stroke-linejoin="round" stroke-miterlimit="10" d="
			M356.9,197.9c0,0.4-0.2,0.7-0.4,1c-0.2,0.3-0.4,0.5-0.7,0.6c-0.3,0.1-0.5,0.1-0.8,0c-0.3-0.1-0.5-0.3-0.7-0.7
			c-0.1-0.3-0.2-0.6-0.3-0.9c0-0.3,0-0.6-0.1-1c0-0.4-0.1-0.7-0.1-1c0-0.3-0.1-0.6-0.1-1c-0.1-1-0.3-2-0.4-3c-0.2-1-0.3-2-0.6-3
			c-0.3,0.9-0.6,1.7-0.8,2.5c-0.3,0.8-0.5,1.7-0.8,2.5c-0.2,0.6-0.4,1.3-0.6,1.9c-0.2,0.6-0.4,1.2-0.7,1.8c-0.1,0.2-0.2,0.4-0.4,0.5
			c-0.2,0.1-0.4,0.2-0.7,0.2c-0.2,0-0.5,0-0.7-0.2c-0.2-0.1-0.4-0.3-0.5-0.5c-0.6-1.5-1.3-2.9-1.9-4.4c-0.6-1.5-1.2-2.9-1.9-4.4
			c-0.1,0.9-0.1,1.7-0.2,2.6c-0.1,0.9-0.1,1.7-0.2,2.6c0,0.3,0,0.6,0,1c0,0.4,0,0.8-0.1,1.2c0,0.4-0.1,0.8-0.1,1.1
			c-0.1,0.4-0.1,0.6-0.3,0.8c-0.2,0.3-0.4,0.5-0.7,0.6c-0.3,0.1-0.6,0-0.8-0.1c-0.3-0.1-0.5-0.3-0.7-0.6c-0.2-0.3-0.3-0.6-0.3-1
			c0-0.7,0.1-1.4,0.2-2.1c0.1-0.7,0.1-1.4,0.2-2c0.1-1.5,0.2-3,0.4-4.5c0.1-1.5,0.2-3,0.4-4.5c0-0.4,0.1-0.8,0.2-1.2
			c0.1-0.4,0.4-0.6,0.8-0.7c0.2,0,0.3-0.1,0.5,0c0.2,0,0.3,0.1,0.5,0.2c0.3,0.3,0.6,0.6,0.8,1.1c0.2,0.4,0.4,0.9,0.5,1.2
			c0.3,0.6,0.6,1.3,0.8,1.9c0.3,0.6,0.5,1.3,0.8,1.9c0.3,0.8,0.7,1.6,1,2.4c0.3,0.8,0.7,1.6,1,2.4c0.1-0.3,0.2-0.5,0.3-0.8
			c0.1-0.3,0.2-0.5,0.3-0.8c0.2-0.4,0.3-0.9,0.5-1.3c0.1-0.4,0.3-0.9,0.4-1.3c0.2-0.6,0.4-1.1,0.6-1.7c0.2-0.6,0.4-1.1,0.5-1.7
			c0.1-0.4,0.3-0.9,0.4-1.4c0.1-0.5,0.3-0.9,0.6-1.2c0.2-0.3,0.4-0.4,0.7-0.4c0.2,0,0.5,0,0.7,0.1c0.2,0.1,0.4,0.3,0.6,0.5
			c0.2,0.2,0.3,0.5,0.4,0.8c0.1,0.4,0.2,0.8,0.3,1.3c0.1,0.5,0.2,0.9,0.3,1.3c0.2,0.7,0.3,1.4,0.4,2.1c0.1,0.7,0.3,1.4,0.4,2.1
			c0.2,1.2,0.4,2.3,0.5,3.5c0.2,1.2,0.3,2.3,0.4,3.5C356.9,197.7,356.9,197.8,356.9,197.9z"/>

			<path fill="#CA2E27" stroke="#711011" stroke-width="0.68" stroke-linecap="round" stroke-linejoin="round" stroke-miterlimit="10" d="
			M369.5,196.6c0,0.4-0.2,0.7-0.3,1c-0.2,0.3-0.4,0.5-0.6,0.6c-0.2,0.1-0.5,0.2-0.7,0.1c-0.3,0-0.5-0.2-0.7-0.5
			c-0.2-0.2-0.3-0.5-0.3-0.9c0-0.3-0.1-0.7-0.1-1c-0.1-0.9-0.4-1.9-0.6-2.8c-0.9,0.1-1.8,0.2-2.7,0.3c-0.9,0.1-1.8,0.2-2.7,0.2
			c-0.1,0.5-0.2,0.9-0.3,1.4c-0.1,0.5-0.2,0.9-0.3,1.4c-0.1,0.3-0.1,0.7-0.2,1.1c-0.1,0.4-0.2,0.7-0.4,1c-0.3,0.4-0.5,0.6-0.8,0.6
			c-0.3,0.1-0.5,0-0.8-0.1c-0.2-0.1-0.4-0.4-0.6-0.7c-0.1-0.3-0.2-0.7-0.1-1.1c0-0.5,0.1-1.1,0.3-1.6c0.1-0.5,0.3-1,0.4-1.6
			c0.7-3,1.5-5.8,2.6-8.7c0.1-0.2,0.2-0.5,0.3-0.7c0.1-0.2,0.2-0.5,0.3-0.7c0.1-0.2,0.2-0.5,0.3-0.8c0.1-0.3,0.2-0.5,0.4-0.8
			c0.1-0.2,0.3-0.5,0.5-0.6c0.2-0.2,0.4-0.3,0.7-0.3c0.4,0,0.7,0.1,0.9,0.3c1,1.1,1.8,2.3,2.5,3.7c0.6,1.4,1.2,2.8,1.7,4.2
			c0.3-0.1,0.6-0.1,0.9-0.1c0.3,0,0.6,0.1,0.8,0.3c0.2,0.2,0.3,0.4,0.4,0.7c0,0.3,0,0.5-0.1,0.8c-0.1,0.3-0.2,0.5-0.4,0.7
			c-0.2,0.2-0.4,0.4-0.7,0.5c0.1,0.6,0.3,1.2,0.4,1.8c0.1,0.6,0.2,1.2,0.3,1.8C369.5,196.5,369.5,196.5,369.5,196.6z M365,190.2
			c-0.3-0.7-0.6-1.5-0.9-2.2c-0.3-0.7-0.7-1.4-1.1-2.1c-0.3,0.8-0.6,1.6-0.8,2.3c-0.3,0.8-0.5,1.5-0.7,2.3c0.7-0.1,1.3-0.1,1.8-0.2
			C363.8,190.4,364.4,190.3,365,190.2z"/>

			<path fill="#CA2E27" stroke="#711011" stroke-width="0.68" stroke-linecap="round" stroke-linejoin="round" stroke-miterlimit="10" d="
			M379.1,179.5c0.3,0.1,0.5,0.2,0.7,0.5c0.2,0.2,0.3,0.5,0.3,0.8c0,0.3,0,0.6-0.2,0.9c-0.1,0.3-0.4,0.5-0.7,0.7
			c-0.7,0.3-1.3,0.5-1.9,0.7c-0.6,0.1-1.1,0.2-1.5,0.3c0,2.1,0,4.1,0,6c0,2,0,4.1,0,6.3c0,0.5-0.1,0.9-0.4,1.1
			c-0.3,0.3-0.6,0.4-0.9,0.5c-0.3,0-0.6-0.1-0.9-0.3c-0.3-0.2-0.4-0.6-0.4-1c0-2,0-4,0-6c0-2,0-4,0-6c-0.1,0-0.4,0.1-0.7,0.2
			c-0.3,0.1-0.7,0.1-1,0.2c-0.4,0.1-0.8,0.1-1.1,0.1c-0.4,0-0.7-0.1-1-0.2c-0.2-0.1-0.4-0.3-0.5-0.5c-0.1-0.3-0.1-0.5,0-0.8
			c0.1-0.3,0.2-0.6,0.4-0.8c0.2-0.3,0.4-0.5,0.7-0.6c1.2-0.3,2.4-0.5,3.6-0.7c1.1-0.2,2.3-0.4,3.5-0.7c0.3-0.1,0.7-0.2,1-0.3
			c0.3-0.1,0.7-0.2,1.1-0.3C379.1,179.5,379.1,179.5,379.1,179.5z"/>

			<path fill="#CA2E27" stroke="#711011" stroke-width="0.68" stroke-linecap="round" stroke-linejoin="round" stroke-miterlimit="10" d="
			M393.2,183.8c-0.2,1.1-0.5,2.1-0.9,3.2c-0.4,1.1-0.8,2.1-1.3,3c-0.5,0.9-1.1,1.8-1.9,2.5c-0.7,0.7-1.5,1.2-2.4,1.6
			c-0.6,0.2-1.1,0.3-1.4,0.3c-0.3,0-0.7,0-1-0.1c-0.6,0-1.1-0.2-1.5-0.5c-0.4-0.3-0.8-0.7-1.1-1.3c-0.3-0.5-0.5-1.1-0.7-1.7
			c-0.1-0.6-0.2-1.3-0.3-1.9c-0.1-1.1,0-2.2,0.2-3.5c0.2-1.2,0.6-2.4,1.1-3.5c0.5-1.1,1.1-2.1,1.9-3.1c0.8-0.9,1.6-1.7,2.6-2.2
			c0.5-0.3,1-0.5,1.5-0.6c0.5-0.2,1-0.2,1.5-0.2c0.4,0,0.8,0.1,1.1,0.2c0.3,0.1,0.7,0.2,1,0.4c0.4,0.3,0.7,0.6,1,1.1
			c0.3,0.5,0.5,1,0.6,1.6c0.2,0.7,0.2,1.5,0.2,2.3C393.3,182.2,393.3,183,393.2,183.8z M387.8,190.3c0.4-0.4,0.8-0.8,1.1-1.3
			c0.3-0.5,0.6-1,0.8-1.5c0.2-0.5,0.4-1.1,0.6-1.7c0.2-0.6,0.3-1.1,0.4-1.7c0.1-0.7,0.1-1.4,0.1-2.1c0-0.7-0.1-1.3-0.3-1.8
			c-0.2-0.4-0.5-0.8-0.9-1c-0.4-0.2-0.8-0.3-1.3-0.3c-0.5,0-1,0.2-1.4,0.4c-0.5,0.3-0.9,0.6-1.3,1.2c-0.5,0.7-1,1.5-1.3,2.3
			c-0.3,0.8-0.6,1.6-0.8,2.5c-0.1,0.7-0.2,1.4-0.2,2.1c0,0.7,0.1,1.4,0.3,2c0.2,0.4,0.4,0.8,0.7,1.1c0.3,0.3,0.6,0.5,1,0.6
			c0.4,0.1,0.8,0.1,1.2-0.1C386.9,191,387.3,190.7,387.8,190.3z"/>

			<path fill="#CA2E27" stroke="#711011" stroke-width="0.68" stroke-linecap="round" stroke-linejoin="round" stroke-miterlimit="10" d="
			M326.9,199.3c0-0.2,0.1-0.3,0.2-0.5c0.1-0.2,0.2-0.3,0.4-0.4c0.1-0.1,0.3-0.2,0.5-0.2c0.2,0,0.3,0,0.5,0.2
			c0.5-0.1,1.1-0.2,1.6-0.2c0.6,0,1.1,0,1.7,0.1c0.6,0.1,1.1,0.3,1.6,0.6c0.5,0.3,1.1,0.6,1.6,1.1c0.4,0.4,0.8,0.8,1.1,1.4
			c0.3,0.5,0.6,1.1,0.8,1.6c0.3,1,0.5,1.9,0.5,2.8c0,0.9-0.2,1.7-0.5,2.5c-0.3,0.7-0.8,1.3-1.4,1.8c-0.6,0.5-1.3,0.8-2.1,0.9
			c-0.6,0.1-1.2,0-1.9-0.1c-0.6-0.2-1.2-0.4-1.8-0.6c0,0.8,0,1.7,0,2.5c0,0.2,0,0.4,0,0.6c0,0.2,0,0.4,0,0.6c0,0.2,0,0.4-0.1,0.6
			c0,0.2-0.1,0.4-0.2,0.5c-0.2,0.3-0.4,0.4-0.7,0.4c-0.3,0-0.5-0.1-0.8-0.3c-0.3-0.2-0.5-0.4-0.6-0.7c-0.2-0.3-0.3-0.7-0.3-1
			c0-1.5,0-3.1,0-4.6c-0.3-0.3-0.5-0.5-0.6-0.8c-0.1-0.3-0.2-0.6-0.2-0.8c0-0.3,0.1-0.5,0.2-0.7c0.1-0.2,0.3-0.3,0.5-0.4
			c0-2.2,0-4.4,0-6.6C326.9,199.4,326.9,199.4,326.9,199.3z M333.2,202.1c-0.6-0.4-1.2-0.7-1.9-0.7c-0.6,0-1.2,0-1.8,0.2
			c0,1.9,0,3.7,0,5.6c0.7,0.3,1.4,0.5,2.1,0.6c0.7,0.1,1.4,0,2-0.3c0.4-0.2,0.7-0.6,0.9-1c0.2-0.5,0.2-1,0.2-1.5
			c0-0.5-0.2-1-0.4-1.6C333.9,202.9,333.6,202.4,333.2,202.1z"/>

			<path fill="#CA2E27" stroke="#711011" stroke-width="0.68" stroke-linecap="round" stroke-linejoin="round" stroke-miterlimit="10" d="
			M348.9,216.8c0,0.4-0.2,0.7-0.3,0.9c-0.2,0.3-0.4,0.4-0.6,0.5c-0.2,0.1-0.5,0.1-0.7,0c-0.3-0.1-0.5-0.3-0.7-0.7
			c-0.2-0.3-0.3-0.6-0.3-0.9c0-0.3-0.1-0.7-0.1-1c-0.1-1-0.4-1.9-0.6-3c-0.9-0.1-1.8-0.2-2.7-0.3c-0.9-0.1-1.8-0.2-2.7-0.3
			c-0.1,0.4-0.2,0.9-0.3,1.3c-0.1,0.4-0.2,0.9-0.3,1.3c-0.1,0.3-0.1,0.7-0.2,1c-0.1,0.4-0.2,0.7-0.4,0.9c-0.2,0.3-0.5,0.4-0.8,0.4
			c-0.3,0-0.5-0.1-0.8-0.3c-0.2-0.2-0.4-0.5-0.5-0.8c-0.1-0.3-0.2-0.7-0.1-1.1c0-0.5,0.1-1,0.3-1.5c0.1-0.5,0.3-1,0.4-1.5
			c0.7-2.8,1.5-5.5,2.5-8.1c0.1-0.2,0.2-0.4,0.3-0.7c0.1-0.2,0.2-0.4,0.3-0.6c0.1-0.2,0.2-0.5,0.3-0.7c0.1-0.3,0.2-0.5,0.4-0.7
			c0.1-0.2,0.3-0.4,0.5-0.5c0.2-0.1,0.4-0.2,0.7-0.2c0.4,0,0.7,0.2,0.9,0.5c1,1.3,1.8,2.7,2.5,4.2c0.6,1.5,1.2,3.1,1.7,4.6
			c0.3,0,0.6,0,0.9,0.1c0.3,0,0.6,0.2,0.8,0.5c0.2,0.3,0.3,0.5,0.4,0.8c0,0.3,0,0.5-0.1,0.8c-0.1,0.3-0.2,0.5-0.4,0.6
			c-0.2,0.2-0.4,0.3-0.7,0.3c0.1,0.6,0.3,1.2,0.4,1.9c0.1,0.6,0.2,1.3,0.3,1.9C348.9,216.7,348.9,216.7,348.9,216.8z M344.4,209.5
			c-0.3-0.8-0.6-1.6-0.9-2.4c-0.3-0.8-0.7-1.6-1.1-2.3c-0.3,0.7-0.6,1.4-0.8,2.1c-0.3,0.7-0.5,1.4-0.7,2.2c0.7,0.1,1.3,0.1,1.8,0.2
			C343.3,209.4,343.8,209.4,344.4,209.5z"/>

			<path fill="#CA2E27" stroke="#711011" stroke-width="0.68" stroke-linecap="round" stroke-linejoin="round" stroke-miterlimit="10" d="
			M350.4,215.8c-0.1-0.3-0.1-0.7-0.1-1c0-0.3,0.1-0.6,0.3-0.8c0.2-0.2,0.4-0.4,0.6-0.5c0.3-0.1,0.5,0,0.8,0.1
			c0.3,0.1,0.5,0.3,0.7,0.6c0.2,0.3,0.4,0.5,0.7,0.6c0.4,0.2,0.8,0.4,1.2,0.5c0.3,0.1,0.6,0.1,0.8,0.2c0.3,0,0.6,0,0.9,0
			c0.2-0.1,0.4-0.1,0.6-0.2c0.2-0.1,0.3-0.2,0.5-0.5c0.2-0.2,0.4-0.5,0.4-0.8c0.1-0.3,0.1-0.6,0-0.9c-0.1-0.3-0.2-0.6-0.4-0.8
			c-0.2-0.2-0.4-0.4-0.7-0.5c-0.5-0.2-1-0.3-1.5-0.4c-0.5-0.1-1-0.2-1.5-0.4c-0.5-0.2-0.9-0.4-1.4-0.7c-0.4-0.3-0.8-0.7-1.2-1.2
			c-0.2-0.3-0.3-0.6-0.4-0.8c-0.1-0.2-0.1-0.5-0.2-0.9c-0.1-0.8-0.1-1.5,0.2-2.1c0.2-0.6,0.5-1.1,0.9-1.5c0.5-0.6,1-1,1.6-1.3
			c0.6-0.3,1.2-0.5,1.9-0.6c0.7-0.1,1.3-0.1,2,0c0.7,0.1,1.3,0.3,1.9,0.6c0.4,0.2,0.6,0.4,0.7,0.8c0.1,0.4,0.1,0.7,0,1.1
			c-0.1,0.3-0.3,0.6-0.5,0.9c-0.3,0.2-0.5,0.3-0.9,0.3c-0.4-0.1-0.7-0.1-1-0.2c-0.3-0.1-0.6-0.2-0.9-0.2c-0.2,0-0.5,0-0.8,0
			c-0.3,0-0.5,0.1-0.8,0.2c-0.2,0.1-0.5,0.2-0.7,0.3c-0.2,0.1-0.4,0.2-0.5,0.3c-0.1,0.1-0.2,0.3-0.3,0.5c-0.1,0.2-0.2,0.4-0.2,0.6
			c0,0.3,0.1,0.5,0.3,0.7c0.2,0.2,0.5,0.3,0.7,0.4c0.5,0.1,1,0.2,1.5,0.3c0.5,0.1,1,0.2,1.5,0.4c0.5,0.2,1,0.4,1.4,0.7
			c0.4,0.3,0.8,0.7,1.1,1.2c0.3,0.4,0.6,0.9,0.7,1.5c0.1,0.6,0.2,1.1,0.2,1.7c0,0.6-0.2,1.1-0.3,1.7c-0.2,0.5-0.5,1-0.8,1.4
			c-0.2,0.3-0.5,0.5-0.7,0.7c-0.3,0.2-0.5,0.4-0.8,0.6c-0.6,0.4-1.2,0.6-1.9,0.6c-0.7,0-1.4-0.1-2-0.3c-0.7-0.2-1.3-0.6-1.9-1
			c-0.6-0.4-1.1-0.9-1.5-1.4C350.5,216,350.5,215.9,350.4,215.8z"/>

			<path fill="#CA2E27" stroke="#711011" stroke-width="0.68" stroke-linecap="round" stroke-linejoin="round" stroke-miterlimit="10" d="
			M371.5,200.4c0.3,0.1,0.5,0.3,0.7,0.5c0.2,0.3,0.3,0.6,0.3,0.9c0,0.3,0,0.6-0.2,0.9c-0.1,0.3-0.4,0.5-0.7,0.6
			c-0.7,0.3-1.3,0.4-1.9,0.5c-0.6,0.1-1.1,0.1-1.5,0.2c0,2.1,0,4.1,0,6c0,2,0,4.1,0,6.3c0,0.5-0.1,0.8-0.4,1.1
			c-0.3,0.3-0.6,0.4-0.9,0.4c-0.3,0-0.6-0.1-0.9-0.3c-0.3-0.2-0.4-0.6-0.4-1.1c0-2,0-4,0-6c0-2,0-4,0-6c-0.1,0-0.4,0.1-0.7,0.1
			c-0.3,0.1-0.7,0.1-1,0.1c-0.4,0-0.8,0-1.2,0c-0.4,0-0.7-0.1-1-0.3c-0.2-0.1-0.4-0.3-0.5-0.6c-0.1-0.3-0.1-0.5,0-0.8
			c0.1-0.3,0.2-0.5,0.4-0.8c0.2-0.3,0.4-0.4,0.7-0.5c1.2-0.2,2.4-0.3,3.6-0.5c1.2-0.1,2.3-0.3,3.5-0.4c0.4-0.1,0.7-0.1,1.1-0.2
			c0.3-0.1,0.7-0.1,1.1-0.2C371.4,200.4,371.4,200.4,371.5,200.4z"/>

			<path fill="#CA2E27" stroke="#711011" stroke-width="0.68" stroke-linecap="round" stroke-linejoin="round" stroke-miterlimit="10" d="
			M381.2,210.7c0.3-0.1,0.5,0,0.7,0c0.2,0.1,0.3,0.2,0.5,0.4c0.1,0.2,0.2,0.4,0.2,0.6c0,0.3,0,0.5-0.1,0.9c0,0.1-0.1,0.3-0.3,0.5
			c-0.1,0.2-0.3,0.3-0.4,0.4c-0.9,0.6-1.9,1.1-2.8,1.4c-1,0.3-1.9,0.6-2.9,0.7c-0.3,0-0.6,0.1-0.9,0.1c-0.3,0-0.6,0-0.9-0.1
			c-0.5-0.2-0.7-0.7-0.7-1.3c0-3.6,0-7.3,0-10.9c-0.2-0.1-0.3-0.2-0.4-0.4c-0.1-0.2-0.2-0.4-0.2-0.6c0-0.2,0-0.5,0.1-0.7
			c0.1-0.2,0.2-0.4,0.4-0.6c0.3-0.3,0.6-0.6,1-0.8c0.4-0.2,0.7-0.3,1.1-0.5c0.8-0.3,1.5-0.6,2.3-0.7c0.7-0.2,1.5-0.4,2.3-0.6
			c0.2-0.1,0.5-0.2,0.8-0.3c0.3-0.1,0.6-0.2,0.8-0.1c0.3,0,0.5,0.2,0.6,0.4c0.2,0.2,0.3,0.5,0.3,0.7c0,0.3,0,0.6-0.1,0.9
			c-0.1,0.3-0.3,0.6-0.6,0.8c-0.4,0.3-0.7,0.5-1.1,0.6c-0.4,0.1-0.8,0.2-1.2,0.3c-0.5,0.1-1.1,0.3-1.6,0.5c-0.5,0.2-1.1,0.3-1.6,0.6
			c0,1.2,0,2.4,0,3.6c0.5-0.1,1-0.2,1.6-0.4c0.5-0.2,1-0.3,1.6-0.5c0.2-0.1,0.5-0.2,0.7-0.3c0.2-0.1,0.5-0.2,0.7-0.2
			c0.3,0,0.6,0,0.7,0.2c0.2,0.2,0.3,0.5,0.3,0.8c0,0.3,0,0.6-0.1,1c-0.1,0.3-0.3,0.6-0.6,0.8c-0.2,0.2-0.6,0.4-1,0.6
			c-0.4,0.2-0.9,0.3-1.3,0.5c-0.5,0.1-0.9,0.3-1.4,0.4c-0.4,0.1-0.8,0.2-1.1,0.2c0,1.1,0,2.1,0,3.2c0.8-0.1,1.6-0.2,2.4-0.5
			c0.8-0.3,1.6-0.7,2.4-1.1C381.1,210.7,381.1,210.7,381.2,210.7z"/>
	</g>
</g>
<g>

		<use xlink:href="#New_Symbol_4" width="66.2" height="112.9" x="-33.1" y="-56.4" transform="matrix(1.7413 0 0 -1.7413 282.0403 353.2932)" overflow="visible"/>
	<g>

			<path fill="#CA2E27" stroke="#711011" stroke-width="0.68" stroke-linecap="round" stroke-linejoin="round" stroke-miterlimit="10" d="
			M264.3,403.2c-0.6-0.2-1-0.6-1.1-1c-0.1-0.4-0.1-0.9,0-1.3c0-3.5,0-6.9,0-10.4c-0.2-0.1-0.4-0.2-0.6-0.4c-0.2-0.2-0.3-0.4-0.4-0.7
			c-0.1-0.3-0.2-0.5-0.2-0.8c0-0.3,0.1-0.5,0.2-0.7c0.3-0.4,0.7-0.7,1.1-0.9c0.5-0.2,0.9-0.3,1.4-0.3c0.8-0.1,1.5-0.1,2.3,0.1
			c0.8,0.1,1.5,0.5,2.3,1c0.7,0.5,1.2,1.1,1.6,1.8c0.4,0.7,0.6,1.3,0.7,2c0.1,0.7,0.1,1.4-0.2,2.1c-0.2,0.7-0.6,1.3-1.1,1.8
			c0.7,0.6,1.2,1.3,1.5,2.1c0.3,0.8,0.4,1.5,0.4,2.2c-0.1,0.7-0.3,1.4-0.6,2.1c-0.4,0.6-0.8,1.2-1.5,1.6c-0.4,0.2-0.8,0.4-1.3,0.5
			c-0.5,0.1-1,0.1-1.5,0c-0.5,0-1-0.1-1.5-0.2c-0.5-0.1-1-0.3-1.4-0.4C264.4,403.2,264.4,403.2,264.3,403.2z M265.8,393.1
			c0.3,0.1,0.5,0.1,0.8,0.2c0.3,0.1,0.5,0.1,0.8,0.1c0.3,0,0.5-0.1,0.7-0.1c0.2-0.1,0.5-0.2,0.6-0.5c0.3-0.3,0.4-0.7,0.3-1.1
			c-0.1-0.4-0.3-0.8-0.6-1.1c-0.4-0.4-0.8-0.6-1.3-0.7c-0.5-0.1-0.9-0.2-1.3-0.1C265.8,390.9,265.8,392,265.8,393.1z M268.9,397.7
			c-0.3-0.3-0.5-0.5-0.8-0.6c-0.2-0.2-0.5-0.3-0.8-0.4c-0.3-0.1-0.5-0.2-0.8-0.2c-0.3,0-0.5-0.1-0.8-0.1c0,1.4,0,2.7,0,4.1
			c0.3,0.1,0.7,0.1,1,0.2c0.4,0.1,0.7,0.1,1,0c0.3,0,0.6-0.1,0.9-0.3c0.3-0.1,0.5-0.4,0.7-0.7c0-0.4,0-0.8,0-1.1
			C269.4,398.3,269.2,398,268.9,397.7z"/>

			<path fill="#CA2E27" stroke="#711011" stroke-width="0.68" stroke-linecap="round" stroke-linejoin="round" stroke-miterlimit="10" d="
			M281.7,401.8c0.3,0,0.5,0.1,0.7,0.3c0.2,0.1,0.4,0.3,0.5,0.5c0.1,0.2,0.2,0.4,0.2,0.7c0,0.3,0,0.5-0.1,0.8c0,0.1-0.1,0.3-0.3,0.4
			c-0.1,0.2-0.3,0.3-0.4,0.3c-0.9,0.3-1.9,0.5-2.9,0.5c-1,0-2-0.1-2.9-0.3c-0.3-0.1-0.6-0.1-0.9-0.2c-0.3-0.1-0.6-0.2-0.9-0.4
			c-0.5-0.4-0.7-0.9-0.7-1.5c0-3.6,0-7.3,0-10.9c-0.2-0.2-0.3-0.3-0.4-0.6c-0.1-0.2-0.2-0.4-0.2-0.7c0-0.2,0-0.5,0.1-0.7
			c0.1-0.2,0.2-0.4,0.4-0.5c0.3-0.2,0.6-0.4,1-0.4c0.4-0.1,0.8-0.1,1.1-0.1c0.8-0.1,1.5-0.1,2.3,0c0.8,0.1,1.5,0.1,2.3,0.1
			c0.2,0,0.5,0,0.8,0c0.3,0,0.6,0,0.8,0.1c0.3,0.1,0.5,0.3,0.7,0.6c0.2,0.3,0.3,0.5,0.3,0.8c0,0.3,0,0.6-0.1,0.8
			c-0.1,0.3-0.3,0.5-0.7,0.6c-0.4,0.2-0.8,0.2-1.2,0.2c-0.4,0-0.8-0.1-1.2-0.1c-0.6,0-1.1,0-1.7-0.1c-0.6,0-1.1,0-1.7,0
			c0,1.2,0,2.4,0,3.6c0.5,0.1,1.1,0.1,1.6,0.1c0.5,0,1.1,0,1.6,0c0.2,0,0.5,0,0.7,0c0.2,0,0.5,0,0.7,0c0.3,0.1,0.6,0.2,0.8,0.5
			c0.2,0.3,0.3,0.5,0.3,0.9c0,0.3,0,0.6-0.1,0.9c-0.1,0.3-0.3,0.5-0.6,0.7c-0.3,0.1-0.6,0.2-1,0.2c-0.4,0-0.9,0.1-1.3,0.1
			c-0.5,0-0.9,0-1.4-0.1c-0.5,0-0.8-0.1-1.1-0.1c0,1.1,0,2.1,0,3.2c0.8,0.2,1.6,0.3,2.5,0.2c0.8,0,1.6-0.2,2.4-0.4
			C281.6,401.8,281.7,401.8,281.7,401.8z"/>

			<path fill="#CA2E27" stroke="#711011" stroke-width="0.68" stroke-linecap="round" stroke-linejoin="round" stroke-miterlimit="10" d="
			M292.7,401.2c0.3,0,0.5,0,0.7,0.2c0.2,0.1,0.4,0.3,0.5,0.5c0.1,0.2,0.2,0.4,0.2,0.7c0,0.3,0,0.5-0.1,0.8c0,0.1-0.1,0.3-0.3,0.5
			c-0.1,0.2-0.3,0.3-0.4,0.3c-0.9,0.5-1.9,0.8-2.9,0.9c-1,0.2-2,0.2-2.9,0.2c-0.3,0-0.6,0-0.9-0.1c-0.3,0-0.6-0.1-0.9-0.3
			c-0.5-0.3-0.7-0.8-0.7-1.4c0-3.6,0-7.3,0-10.9c-0.2-0.1-0.3-0.3-0.4-0.5c-0.1-0.2-0.2-0.4-0.2-0.7c0-0.2,0-0.5,0.1-0.7
			c0.1-0.2,0.2-0.4,0.4-0.6c0.3-0.3,0.6-0.5,1-0.6c0.4-0.1,0.8-0.2,1.1-0.3c0.8-0.2,1.5-0.3,2.3-0.4c0.8-0.1,1.5-0.1,2.3-0.3
			c0.2,0,0.5-0.1,0.8-0.2c0.3-0.1,0.6-0.1,0.8,0c0.3,0.1,0.5,0.2,0.7,0.5c0.2,0.2,0.3,0.5,0.3,0.8c0,0.3,0,0.6-0.1,0.9
			c-0.1,0.3-0.3,0.5-0.6,0.7c-0.4,0.2-0.8,0.3-1.2,0.4c-0.4,0-0.8,0.1-1.2,0.1c-0.6,0.1-1.1,0.1-1.7,0.2c-0.6,0.1-1.1,0.2-1.7,0.3
			c0,1.2,0,2.4,0,3.6c0.5,0,1.1,0,1.6-0.1c0.5-0.1,1.1-0.2,1.6-0.3c0.2,0,0.5-0.1,0.7-0.2c0.2-0.1,0.5-0.1,0.7-0.1
			c0.3,0,0.6,0.1,0.7,0.4c0.2,0.2,0.3,0.5,0.3,0.8c0,0.3,0,0.6-0.1,1c-0.1,0.3-0.3,0.6-0.6,0.7c-0.3,0.2-0.6,0.3-1,0.4
			c-0.4,0.1-0.9,0.2-1.3,0.3c-0.5,0.1-0.9,0.1-1.4,0.2c-0.5,0-0.8,0-1.1,0.1c0,1.1,0,2.1,0,3.2c0.8,0.1,1.6,0,2.5-0.1
			c0.8-0.2,1.6-0.4,2.4-0.7C292.6,401.2,292.7,401.2,292.7,401.2z"/>

			<path fill="#CA2E27" stroke="#711011" stroke-width="0.68" stroke-linecap="round" stroke-linejoin="round" stroke-miterlimit="10" d="
			M297.9,403.9c-0.2,0.3-0.4,0.5-0.7,0.7c-0.2,0.1-0.5,0.2-0.8,0.1c-0.3-0.1-0.5-0.2-0.7-0.6c-0.1-0.1-0.1-0.3-0.2-0.4
			c0-0.1-0.1-0.3-0.1-0.5c0-2,0-4,0-6.1c-0.2-0.1-0.3-0.3-0.4-0.5c-0.1-0.2-0.1-0.4-0.1-0.7c0-0.2,0.1-0.5,0.2-0.7
			c0.1-0.2,0.2-0.4,0.4-0.6c0-0.3,0-0.6,0-0.8c0-0.2,0-0.4,0-0.6c0-0.2,0-0.4,0-0.6c0-0.2,0-0.5,0-0.7c0-0.2-0.1-0.5-0.1-0.7
			c-0.1-0.2-0.1-0.4-0.2-0.7c-0.1-0.2-0.1-0.5-0.1-0.7c0-0.2,0.1-0.5,0.3-0.7c0.2-0.3,0.5-0.6,0.8-0.7c0.3-0.1,0.6-0.2,1-0.3
			c0.7-0.2,1.3-0.3,2-0.5c0.7-0.1,1.3-0.3,2-0.5c0.2,0,0.4-0.1,0.6-0.2c0.2-0.1,0.4-0.2,0.6-0.3c0.2-0.1,0.4-0.1,0.6-0.2
			c0.2,0,0.4,0,0.6,0.1c0.2,0.1,0.4,0.2,0.5,0.5c0.1,0.2,0.1,0.4,0.1,0.7c0,0.3-0.1,0.5-0.2,0.8c-0.1,0.3-0.3,0.5-0.5,0.7
			c-0.4,0.3-0.8,0.6-1.2,0.7c-0.4,0.1-0.9,0.2-1.3,0.4c-0.5,0.1-1,0.3-1.4,0.3c-0.5,0.1-1,0.2-1.4,0.3c0,0.3,0,0.7,0.1,1.1
			c0,0.4,0,1.1,0,1.9c0.5-0.1,0.9-0.2,1.4-0.3c0.5-0.1,0.9-0.3,1.4-0.5c0.2-0.1,0.5-0.2,0.8-0.4c0.3-0.2,0.5-0.3,0.8-0.3
			c0.3,0,0.5,0,0.8,0.2c0.2,0.2,0.4,0.4,0.4,0.6c0.1,0.3,0.1,0.6,0,0.9c-0.1,0.3-0.3,0.6-0.6,0.9c-0.4,0.3-0.7,0.6-1.2,0.8
			c-0.4,0.2-0.8,0.4-1.3,0.5c-0.4,0.1-0.9,0.3-1.3,0.4c-0.4,0.1-0.9,0.2-1.3,0.3c0,1.9,0,3.8,0,5.7
			C298.2,403.3,298.1,403.6,297.9,403.9z"/>

			<path fill="#CA2E27" stroke="#711011" stroke-width="0.68" stroke-linecap="round" stroke-linejoin="round" stroke-miterlimit="10" d="
			M255.4,419.3c-0.6-0.3-1-0.7-1.1-1.2c-0.1-0.5-0.1-0.9,0-1.3c0-3.5,0-6.9,0-10.4c-0.2-0.1-0.4-0.2-0.6-0.5
			c-0.2-0.2-0.3-0.5-0.4-0.7c-0.1-0.3-0.2-0.5-0.2-0.8c0-0.3,0.1-0.5,0.2-0.6c0.3-0.4,0.6-0.6,1.1-0.7c0.4-0.1,0.9-0.2,1.4-0.2
			c0.7,0,1.5,0.1,2.2,0.4c0.8,0.2,1.5,0.7,2.2,1.3c0.7,0.6,1.2,1.2,1.6,2c0.4,0.7,0.6,1.4,0.7,2.1c0.1,0.7,0.1,1.4-0.2,2
			c-0.2,0.7-0.6,1.2-1.1,1.7c0.7,0.7,1.2,1.5,1.4,2.3c0.3,0.8,0.4,1.6,0.4,2.3c0,0.7-0.3,1.4-0.6,2c-0.4,0.6-0.8,1.1-1.4,1.4
			c-0.4,0.2-0.8,0.3-1.2,0.3c-0.5,0-1,0-1.5-0.2c-0.5-0.1-1-0.3-1.5-0.4c-0.5-0.2-0.9-0.4-1.3-0.6
			C255.4,419.4,255.4,419.4,255.4,419.3z M256.8,409.4c0.3,0.1,0.5,0.2,0.8,0.3c0.3,0.1,0.5,0.2,0.8,0.2c0.2,0,0.5,0,0.7,0
			c0.2-0.1,0.4-0.2,0.6-0.4c0.3-0.3,0.4-0.6,0.3-1c-0.1-0.4-0.3-0.8-0.6-1.2c-0.4-0.4-0.8-0.7-1.3-0.9c-0.5-0.2-0.9-0.3-1.3-0.3
			C256.8,407.2,256.8,408.3,256.8,409.4z M259.8,414.5c-0.3-0.3-0.5-0.5-0.7-0.7c-0.2-0.2-0.5-0.3-0.7-0.5c-0.2-0.1-0.5-0.2-0.8-0.3
			c-0.3-0.1-0.5-0.2-0.8-0.3c0,1.4,0,2.7,0,4.1c0.3,0.1,0.6,0.2,1,0.3c0.4,0.1,0.7,0.2,1,0.2c0.3,0,0.6-0.1,0.9-0.2
			c0.3-0.1,0.5-0.3,0.7-0.6c0-0.4,0-0.8,0-1.1C260.3,415.2,260.1,414.8,259.8,414.5z"/>

			<path fill="#CA2E27" stroke="#711011" stroke-width="0.68" stroke-linecap="round" stroke-linejoin="round" stroke-miterlimit="10" d="
			M267.3,421.8c0,0.4-0.2,0.7-0.5,0.9c-0.3,0.2-0.5,0.3-0.8,0.3c-0.3,0-0.6-0.1-0.8-0.3c-0.3-0.2-0.4-0.6-0.4-1
			c-0.1-2-0.1-4-0.1-6.1c0-2.1,0-4.2,0-6.3c-0.2-0.2-0.4-0.4-0.5-0.6c-0.1-0.2-0.2-0.5-0.2-0.7c0-0.3,0-0.5,0.1-0.7
			c0.1-0.2,0.2-0.4,0.3-0.6c0.2-0.2,0.4-0.3,0.6-0.4c0.3-0.1,0.6-0.2,0.9-0.3c0.3-0.1,0.6-0.1,1-0.1c0.3,0,0.6,0,0.8-0.1
			c0.9,0,1.8,0.2,2.8,0.6c0.9,0.4,1.8,0.9,2.5,1.6c0.7,0.7,1.2,1.5,1.6,2.5c0.4,1,0.4,2.1,0.1,3.3c-0.1,0.3-0.2,0.7-0.3,1
			c-0.1,0.3-0.3,0.6-0.5,0.9c-0.2,0.4-0.5,0.8-0.9,1.1c-0.3,0.3-0.7,0.6-1.1,0.8c0.3,0.4,0.5,0.8,0.8,1.2c0.2,0.4,0.5,0.8,0.8,1.1
			c0.1,0.1,0.3,0.3,0.5,0.6c0.2,0.3,0.4,0.6,0.7,0.9c0.2,0.3,0.4,0.6,0.6,0.9c0.2,0.3,0.2,0.5,0.2,0.7c0,0.3-0.1,0.6-0.2,0.9
			c-0.1,0.3-0.3,0.4-0.5,0.6c-0.2,0.1-0.4,0.2-0.6,0.1c-0.2,0-0.5-0.2-0.7-0.4c-0.3-0.3-0.5-0.6-0.7-1c-0.2-0.4-0.5-0.7-0.7-1
			c-0.5-0.7-1-1.4-1.4-2.1c-0.5-0.7-0.9-1.4-1.4-2.1c-0.3,0-0.6,0-0.9,0c-0.3,0-0.6-0.1-0.9-0.1c0,1.2,0,2.4,0,3.6
			C267.3,421.7,267.3,421.7,267.3,421.8z M271.2,410.1c-0.6-0.5-1.2-0.8-1.9-1c-0.7-0.2-1.4-0.2-2-0.1c0,1.9,0,3.9,0,5.8
			c0.7,0.1,1.3,0.1,1.9,0.1c0.6,0,1.2-0.2,1.8-0.6c0.3-0.2,0.5-0.5,0.7-0.8c0.2-0.3,0.3-0.7,0.3-1.1c0-0.4,0-0.8-0.1-1.1
			C271.8,410.8,271.6,410.4,271.2,410.1z"/>

			<path fill="#CA2E27" stroke="#711011" stroke-width="0.68" stroke-linecap="round" stroke-linejoin="round" stroke-miterlimit="10" d="
			M289.3,417.4c-0.3,1-0.6,1.9-1,2.9c-0.4,0.9-0.9,1.8-1.4,2.5c-0.6,0.7-1.2,1.4-2,1.8c-0.7,0.5-1.6,0.7-2.6,0.7
			c-0.6,0-1.1-0.1-1.5-0.2c-0.4-0.1-0.7-0.3-1.1-0.5c-0.6-0.2-1.1-0.6-1.6-1.1c-0.4-0.5-0.8-1-1.1-1.7c-0.3-0.6-0.5-1.3-0.7-2
			c-0.2-0.7-0.3-1.4-0.3-2c-0.1-1.1,0-2.2,0.2-3.4c0.2-1.1,0.6-2.1,1.1-3.1c0.5-0.9,1.2-1.7,1.9-2.4c0.8-0.7,1.7-1.1,2.7-1.3
			c0.5-0.1,1-0.1,1.6-0.1c0.5,0,1,0.1,1.5,0.3c0.4,0.2,0.8,0.3,1.2,0.5c0.4,0.2,0.7,0.5,1,0.8c0.4,0.4,0.8,0.9,1.1,1.5
			c0.3,0.6,0.5,1.1,0.6,1.8c0.2,0.8,0.2,1.6,0.2,2.4C289.5,415.8,289.4,416.6,289.3,417.4z M283.6,421.9c0.4-0.2,0.8-0.5,1.2-0.9
			c0.3-0.4,0.6-0.8,0.9-1.2c0.3-0.5,0.5-0.9,0.6-1.4c0.2-0.5,0.3-1,0.5-1.5c0.1-0.7,0.1-1.3,0.1-2c0-0.7-0.1-1.3-0.4-1.9
			c-0.2-0.5-0.5-0.9-0.9-1.3c-0.4-0.4-0.9-0.6-1.4-0.7c-0.5-0.1-1-0.2-1.5-0.1c-0.5,0.1-1,0.3-1.4,0.7c-0.6,0.5-1,1.1-1.4,1.8
			c-0.3,0.7-0.6,1.4-0.8,2.2c-0.1,0.6-0.2,1.3-0.2,2c0,0.7,0.1,1.4,0.3,2.1c0.2,0.5,0.4,0.9,0.7,1.3c0.3,0.4,0.7,0.7,1.1,1
			c0.4,0.2,0.8,0.4,1.3,0.4C282.7,422.3,283.1,422.2,283.6,421.9z"/>

			<path fill="#CA2E27" stroke="#711011" stroke-width="0.68" stroke-linecap="round" stroke-linejoin="round" stroke-miterlimit="10" d="
			M300.6,406.4c0.3,0.1,0.5,0.2,0.7,0.5c0.2,0.3,0.3,0.5,0.3,0.8c0,0.3,0,0.6-0.2,0.9c-0.1,0.3-0.4,0.5-0.7,0.7
			c-0.7,0.3-1.3,0.5-1.9,0.6c-0.6,0.1-1.1,0.2-1.5,0.3c0,2.1,0,4.1,0,6c0,2,0,4.1,0,6.3c0,0.5-0.1,0.9-0.4,1.1
			c-0.3,0.3-0.6,0.4-0.9,0.4c-0.3,0-0.6-0.1-0.9-0.3c-0.3-0.2-0.4-0.6-0.4-1.1c0-2,0-4,0-6c0-2,0-4,0-6c-0.1,0-0.4,0.1-0.7,0.1
			c-0.3,0.1-0.7,0.1-1,0.2c-0.4,0-0.8,0.1-1.2,0c-0.4,0-0.7-0.1-1-0.2c-0.2-0.1-0.4-0.3-0.5-0.6c-0.1-0.3-0.1-0.5,0-0.8
			c0.1-0.3,0.2-0.5,0.4-0.8c0.2-0.3,0.4-0.4,0.7-0.6c1.2-0.2,2.4-0.4,3.6-0.6c1.1-0.2,2.3-0.4,3.5-0.6c0.3-0.1,0.7-0.1,1-0.2
			c0.3-0.1,0.7-0.2,1.1-0.3C300.5,406.3,300.5,406.4,300.6,406.4z"/>

			<path fill="#CA2E27" stroke="#711011" stroke-width="0.68" stroke-linecap="round" stroke-linejoin="round" stroke-miterlimit="10" d="
			M312.5,409.5c0.3,0,0.6,0.1,0.7,0.3c0.2,0.2,0.2,0.5,0.2,0.9c0,0.3-0.1,0.7-0.3,1.1c-0.2,0.4-0.4,0.7-0.7,0.9c0,1.5,0,3,0,4.5
			c0,0.4-0.1,0.8-0.3,1.3c-0.2,0.4-0.4,0.7-0.6,1c-0.3,0.2-0.5,0.4-0.8,0.4c-0.3,0-0.5-0.1-0.8-0.4c-0.1-0.1-0.2-0.3-0.2-0.5
			c0-0.2-0.1-0.4-0.1-0.6c0-1.5,0-3,0-4.4c-1.6,0.6-3.3,1.2-4.9,1.7c0,1.5,0,2.9,0,4.4c0,0.2,0,0.4,0,0.6c0,0.2-0.1,0.4-0.1,0.6
			c-0.2,0.5-0.4,0.8-0.7,1c-0.3,0.2-0.6,0.3-0.8,0.2c-0.3-0.1-0.5-0.2-0.7-0.5c-0.2-0.3-0.3-0.6-0.3-1.1c0-4.4,0-8.8,0-13.3
			c0-0.4,0.1-0.9,0.3-1.2c0.2-0.4,0.5-0.7,0.8-0.9c0.3-0.2,0.6-0.3,0.9-0.3c0.3,0,0.5,0.2,0.7,0.6c0,0.1,0.1,0.2,0.1,0.3
			c0,0.1,0,0.2,0,0.4c0,1.9,0,3.9,0,5.8c1.7-0.5,3.3-1.1,4.9-1.7c0-1.8,0-3.7,0-5.5c0-0.3,0.1-0.7,0.2-1c0.2-0.4,0.4-0.8,0.7-1.1
			c0.3-0.3,0.6-0.4,0.8-0.5c0.3,0,0.5,0,0.7,0.2c0.2,0.2,0.3,0.5,0.3,1C312.5,405.5,312.5,407.5,312.5,409.5z"/>
	</g>
</g>
<g>

		<use xlink:href="#New_Symbol_4" width="66.2" height="112.9" x="-33.1" y="-56.4" transform="matrix(1.7413 0 0 -1.7413 143.3264 353.2932)" overflow="visible"/>
	<g>

			<path fill="#CA2E27" stroke="#711011" stroke-width="0.68" stroke-linecap="round" stroke-linejoin="round" stroke-miterlimit="10" d="
			M111.3,387.3c0.1-0.2,0.3-0.3,0.5-0.4c0.2,0,0.4,0,0.6,0.1c0.2,0.1,0.4,0.3,0.5,0.6c0.1,0.2,0.2,0.5,0.2,0.8
			c0,0.3-0.1,0.6-0.2,0.8c-0.1,0.2-0.3,0.4-0.4,0.6c-0.3,0.6-0.6,1.2-0.8,1.8c-0.3,0.6-0.5,1.2-0.8,1.9c-0.3,0.6-0.5,1.2-0.7,1.8
			c-0.2,0.6-0.4,1.2-0.7,1.9c-0.1,0.2-0.2,0.4-0.2,0.7c-0.1,0.3-0.2,0.5-0.3,0.6c-0.1,0.2-0.3,0.3-0.4,0.3c-0.2,0-0.3,0-0.5-0.1
			c-0.2-0.1-0.3-0.3-0.5-0.5c-0.1-0.2-0.3-0.4-0.3-0.7c-0.1-0.4-0.2-0.8-0.3-1.2c-0.1-0.4-0.2-0.8-0.3-1.2c-0.1-0.4-0.2-0.8-0.3-1.2
			c-0.1-0.4-0.2-0.8-0.3-1.2c-0.2-0.8-0.5-1.6-0.7-2.5c-0.2-0.8-0.4-1.6-0.7-2.5c-0.1-0.5-0.3-1-0.4-1.4c-0.1-0.4-0.2-0.8-0.3-1.3
			c-0.1-0.3,0-0.6,0.1-0.7c0.1-0.2,0.3-0.2,0.5-0.2c0.2,0,0.4,0.1,0.7,0.3c0.2,0.2,0.4,0.5,0.5,0.8c0.4,1.5,0.9,3,1.3,4.5
			c0.4,1.5,0.8,3,1.2,4.5c0.1-0.2,0.1-0.3,0.2-0.4c0-0.1,0.1-0.2,0.1-0.2c0-0.1,0-0.1,0-0.1c0,0,0-0.1,0-0.1
			c0.1-0.5,0.3-0.9,0.5-1.4c0.2-0.4,0.4-0.9,0.6-1.3C110.1,389.6,110.7,388.4,111.3,387.3C111.3,387.4,111.3,387.3,111.3,387.3z"/>

			<path fill="#CA2E27" stroke="#711011" stroke-width="0.68" stroke-linecap="round" stroke-linejoin="round" stroke-miterlimit="10" d="
			M120.1,399.3c0.2,0.1,0.4,0.2,0.5,0.3c0.2,0.1,0.3,0.3,0.4,0.5c0.1,0.2,0.2,0.4,0.2,0.6c0,0.2,0,0.4-0.1,0.6
			c0,0.1-0.1,0.2-0.2,0.3c-0.1,0.1-0.2,0.2-0.3,0.2c-0.7,0.1-1.4,0-2.2-0.1c-0.8-0.1-1.5-0.4-2.2-0.7c-0.2-0.1-0.4-0.2-0.7-0.3
			c-0.2-0.1-0.5-0.3-0.7-0.5c-0.3-0.4-0.5-0.8-0.5-1.3c0-2.8,0-5.6,0-8.5c-0.1-0.1-0.2-0.3-0.3-0.5c-0.1-0.2-0.1-0.4-0.1-0.6
			c0-0.2,0-0.3,0.1-0.5c0.1-0.1,0.1-0.3,0.3-0.3c0.2-0.1,0.5-0.2,0.8-0.2c0.3,0,0.6,0,0.8,0.1c0.6,0.1,1.2,0.2,1.7,0.3
			c0.6,0.2,1.2,0.3,1.8,0.5c0.2,0,0.4,0.1,0.6,0.1c0.2,0,0.4,0.1,0.6,0.2c0.2,0.1,0.4,0.3,0.5,0.6c0.1,0.2,0.2,0.5,0.2,0.7
			c0,0.2,0,0.4-0.1,0.6c-0.1,0.2-0.3,0.3-0.5,0.4c-0.3,0.1-0.6,0.1-0.9,0c-0.3-0.1-0.6-0.2-0.9-0.3c-0.4-0.1-0.8-0.2-1.3-0.3
			c-0.4-0.1-0.8-0.2-1.3-0.2c0,0.9,0,1.8,0,2.8c0.4,0.1,0.8,0.3,1.2,0.3c0.4,0.1,0.8,0.2,1.2,0.2c0.2,0,0.4,0.1,0.5,0.1
			c0.2,0,0.4,0.1,0.6,0.1c0.2,0.1,0.4,0.3,0.6,0.5c0.1,0.2,0.2,0.5,0.2,0.7c0,0.3,0,0.5-0.1,0.7c-0.1,0.2-0.3,0.3-0.5,0.4
			c-0.2,0-0.4,0.1-0.8,0c-0.3,0-0.7-0.1-1-0.2c-0.4-0.1-0.7-0.2-1.1-0.3c-0.3-0.1-0.6-0.2-0.9-0.3c0,0.8,0,1.6,0,2.4
			c0.6,0.3,1.2,0.5,1.8,0.6c0.6,0.1,1.2,0.1,1.8,0.1C120,399.3,120.1,399.3,120.1,399.3z"/>

			<path fill="#CA2E27" stroke="#711011" stroke-width="0.68" stroke-linecap="round" stroke-linejoin="round" stroke-miterlimit="10" d="
			M130.7,396.7c0.2,0.1,0.4,0.3,0.6,0.5c0.2,0.2,0.3,0.4,0.3,0.6c0,0.2,0,0.4,0,0.7c-0.1,0.2-0.2,0.4-0.5,0.5c0,0,0,0.2,0,0.5
			c0,0.3,0,0.6,0,1c0,0.4,0,0.7,0,1.1c0,0.4-0.1,0.7-0.2,0.9c-0.1,0.2-0.2,0.3-0.3,0.4c-0.1,0.1-0.2,0.2-0.4,0.3
			c-0.4,0.4-0.9,0.6-1.3,0.8c-0.5,0.1-1,0.2-1.5,0.2c-0.5,0-1-0.2-1.5-0.4c-0.5-0.3-1-0.6-1.4-1c-0.6-0.6-1.1-1.2-1.5-2
			c-0.4-0.8-0.7-1.6-0.9-2.4c-0.1-0.5-0.2-1.1-0.2-1.6c0-0.6,0-1.1,0.1-1.6c0.1-0.5,0.2-1,0.4-1.4c0.2-0.4,0.5-0.8,0.8-1.2
			c0.4-0.4,0.8-0.7,1.2-0.9c0.5-0.2,0.9-0.4,1.4-0.5c0.4-0.1,0.8-0.2,1.2-0.2c0.4,0,0.8,0,1.2,0.1c0.3,0.1,0.7,0.2,1,0.3
			c0.4,0.2,0.7,0.4,0.9,0.7c0.1,0.1,0.2,0.3,0.3,0.5c0.1,0.2,0.1,0.4,0.2,0.5c0,0.2,0,0.4-0.1,0.5c-0.1,0.2-0.2,0.3-0.3,0.4
			c-0.1,0.1-0.3,0.2-0.5,0.2c-0.2,0-0.3,0-0.5-0.1c-0.2-0.1-0.3-0.2-0.5-0.3c-0.2-0.1-0.3-0.2-0.5-0.3c-0.1-0.1-0.3-0.1-0.4-0.1
			c-0.1,0-0.3,0-0.4,0c-0.4,0.1-0.8,0.2-1.2,0.3c-0.4,0.1-0.8,0.3-1.1,0.5c-0.3,0.2-0.6,0.5-0.9,0.8c-0.2,0.3-0.4,0.8-0.5,1.3
			c-0.1,0.7-0.1,1.3,0.1,2c0.1,0.7,0.4,1.3,0.8,1.9c0.3,0.4,0.6,0.7,0.9,1c0.3,0.3,0.7,0.5,1.1,0.6c0.4,0.1,0.7,0.1,1.1,0
			c0.4-0.1,0.7-0.3,1-0.5c0-0.7,0-1.4,0-2.1c-0.2,0-0.5,0-0.7,0c-0.2,0-0.5,0-0.7-0.1c-0.2,0-0.5-0.1-0.7-0.2
			c-0.2-0.1-0.4-0.2-0.7-0.4c-0.2-0.2-0.3-0.4-0.4-0.6c-0.1-0.2-0.1-0.5-0.1-0.7c0-0.2,0.1-0.4,0.2-0.6c0.1-0.2,0.3-0.3,0.5-0.3
			c0.1,0,0.2,0,0.4,0c0.2,0,0.3,0,0.5,0.1c0.2,0,0.3,0.1,0.4,0.1c0.1,0,0.2,0,0.3,0.1c0.4,0.1,0.9,0.1,1.3,0.2
			C129.8,396.6,130.3,396.7,130.7,396.7z"/>

			<path fill="#CA2E27" stroke="#711011" stroke-width="0.68" stroke-linecap="round" stroke-linejoin="round" stroke-miterlimit="10" d="
			M138.8,402c0.2,0,0.4,0.1,0.5,0.2c0.2,0.1,0.3,0.3,0.4,0.4c0.1,0.2,0.2,0.3,0.2,0.6c0,0.2,0,0.4-0.1,0.6c0,0.1-0.1,0.2-0.2,0.3
			c-0.1,0.1-0.2,0.2-0.3,0.2c-0.7,0.2-1.5,0.3-2.3,0.3c-0.8,0-1.5-0.1-2.3-0.2c-0.2,0-0.5-0.1-0.7-0.1c-0.3-0.1-0.5-0.2-0.7-0.3
			c-0.4-0.3-0.5-0.7-0.5-1.2c0-2.8,0-5.6,0-8.5c-0.1-0.1-0.2-0.3-0.3-0.4c-0.1-0.2-0.1-0.3-0.1-0.5c0-0.2,0-0.4,0.1-0.5
			c0.1-0.2,0.2-0.3,0.3-0.4c0.2-0.2,0.5-0.3,0.8-0.3c0.3,0,0.6-0.1,0.9-0.1c0.6,0,1.2-0.1,1.8,0c0.6,0,1.2,0.1,1.8,0.1
			c0.2,0,0.4,0,0.6,0c0.2,0,0.5,0,0.6,0.1c0.2,0.1,0.4,0.3,0.5,0.5c0.1,0.2,0.2,0.4,0.2,0.6c0,0.2,0,0.4-0.1,0.7
			c-0.1,0.2-0.3,0.4-0.5,0.5c-0.3,0.1-0.6,0.2-0.9,0.1c-0.3,0-0.6-0.1-0.9-0.1c-0.4,0-0.9,0-1.3-0.1c-0.4,0-0.9,0-1.3,0
			c0,0.9,0,1.8,0,2.8c0.4,0.1,0.8,0.1,1.2,0.1c0.4,0,0.8,0,1.2,0c0.2,0,0.4,0,0.5,0c0.2,0,0.4,0,0.6,0c0.3,0.1,0.4,0.2,0.6,0.4
			c0.1,0.2,0.2,0.4,0.2,0.7c0,0.2,0,0.5-0.1,0.7c-0.1,0.2-0.3,0.4-0.5,0.5c-0.2,0.1-0.5,0.1-0.8,0.2c-0.3,0-0.7,0-1,0
			c-0.4,0-0.7,0-1.1-0.1c-0.4,0-0.6-0.1-0.9-0.1c0,0.8,0,1.6,0,2.4c0.6,0.1,1.3,0.2,1.9,0.2c0.6,0,1.3-0.1,1.9-0.3
			C138.7,402,138.7,402,138.8,402z"/>

			<path fill="#CA2E27" stroke="#711011" stroke-width="0.68" stroke-linecap="round" stroke-linejoin="round" stroke-miterlimit="10" d="
			M148.5,392.3c0.2,0.1,0.4,0.3,0.5,0.5c0.1,0.2,0.2,0.5,0.3,0.7c0,0.2,0,0.5-0.1,0.7c-0.1,0.2-0.3,0.3-0.6,0.4
			c-0.5,0.1-1,0.2-1.5,0.2c-0.5,0-0.9,0-1.2,0c0,1.6,0,3.2,0,4.7c0,1.5,0,3.2,0,4.9c0,0.4-0.1,0.6-0.3,0.8c-0.2,0.2-0.5,0.2-0.7,0.2
			c-0.3,0-0.5-0.1-0.7-0.4c-0.2-0.2-0.3-0.5-0.3-0.9c0-1.6,0-3.1,0-4.7c0-1.5,0-3.1,0-4.7c-0.1,0-0.3,0-0.5,0c-0.2,0-0.5,0-0.8,0
			c-0.3,0-0.6,0-0.9-0.1c-0.3-0.1-0.6-0.1-0.8-0.3c-0.2-0.1-0.3-0.3-0.4-0.5c-0.1-0.2-0.1-0.4,0-0.6c0.1-0.2,0.1-0.4,0.3-0.6
			c0.1-0.2,0.3-0.3,0.5-0.4c1,0,1.9-0.1,2.8,0c0.9,0,1.8,0,2.7,0c0.3,0,0.5,0,0.8,0c0.3,0,0.6,0,0.8,0
			C148.4,392.3,148.4,392.3,148.5,392.3z"/>

			<path fill="#CA2E27" stroke="#711011" stroke-width="0.68" stroke-linecap="round" stroke-linejoin="round" stroke-miterlimit="10" d="
			M158.6,402.9c0,0.3-0.1,0.6-0.3,0.8c-0.1,0.2-0.3,0.4-0.5,0.5c-0.2,0.1-0.4,0.1-0.6,0.1c-0.2,0-0.4-0.2-0.6-0.4
			c-0.1-0.2-0.2-0.4-0.2-0.7c0-0.3,0-0.5-0.1-0.8c-0.1-0.7-0.3-1.4-0.5-2.2c-0.7,0.1-1.4,0.2-2.1,0.3c-0.7,0.1-1.4,0.1-2.1,0.2
			c-0.1,0.4-0.2,0.7-0.3,1.1c-0.1,0.4-0.1,0.7-0.2,1.1c-0.1,0.3-0.1,0.5-0.2,0.8c0,0.3-0.1,0.5-0.3,0.8c-0.2,0.3-0.4,0.4-0.6,0.5
			c-0.2,0-0.4,0-0.6-0.1c-0.2-0.1-0.3-0.3-0.4-0.5c-0.1-0.2-0.1-0.5-0.1-0.8c0-0.4,0.1-0.8,0.2-1.2c0.1-0.4,0.2-0.8,0.3-1.2
			c0.5-2.3,1.2-4.6,2-6.8c0.1-0.2,0.1-0.4,0.2-0.6c0.1-0.2,0.1-0.4,0.2-0.5c0.1-0.2,0.2-0.4,0.2-0.6c0.1-0.2,0.2-0.4,0.3-0.6
			c0.1-0.2,0.2-0.4,0.4-0.5c0.1-0.1,0.3-0.2,0.5-0.2c0.3,0,0.5,0.1,0.7,0.2c0.8,0.8,1.4,1.8,1.9,2.8c0.5,1.1,0.9,2.2,1.3,3.3
			c0.2,0,0.5-0.1,0.7-0.1c0.2,0,0.4,0.1,0.6,0.3c0.2,0.2,0.3,0.3,0.3,0.6c0,0.2,0,0.4,0,0.6c-0.1,0.2-0.2,0.4-0.3,0.6
			c-0.1,0.2-0.3,0.3-0.5,0.4c0.1,0.4,0.2,0.9,0.3,1.4c0.1,0.5,0.2,0.9,0.2,1.4C158.6,402.8,158.6,402.8,158.6,402.9z M155.2,398
			c-0.2-0.6-0.4-1.1-0.7-1.7c-0.2-0.6-0.5-1.1-0.8-1.6c-0.2,0.6-0.4,1.2-0.6,1.8c-0.2,0.6-0.4,1.2-0.6,1.8c0.5-0.1,1-0.1,1.4-0.2
			C154.3,398.1,154.7,398,155.2,398z"/>

			<path fill="#CA2E27" stroke="#711011" stroke-width="0.68" stroke-linecap="round" stroke-linejoin="round" stroke-miterlimit="10" d="
			M161.1,403.5c-0.5,0-0.8-0.1-0.9-0.4c-0.1-0.3-0.1-0.6,0-1c0-2.7,0-5.4,0-8.1c-0.2,0-0.3,0-0.5-0.1c-0.1-0.1-0.3-0.2-0.3-0.4
			c-0.1-0.2-0.1-0.3-0.1-0.5c0-0.2,0.1-0.4,0.2-0.6c0.2-0.4,0.5-0.8,0.9-1.1c0.4-0.3,0.7-0.5,1.1-0.8c0.6-0.3,1.2-0.6,1.8-0.7
			c0.6-0.1,1.2-0.1,1.8,0.1c0.5,0.2,0.9,0.5,1.2,0.8c0.3,0.4,0.5,0.8,0.6,1.3c0.1,0.5,0,1-0.1,1.6c-0.2,0.6-0.4,1.2-0.8,1.7
			c0.5,0.3,0.9,0.7,1.1,1.1c0.2,0.5,0.3,1,0.3,1.6c0,0.6-0.2,1.2-0.5,1.8c-0.3,0.6-0.6,1.2-1.1,1.7c-0.3,0.3-0.6,0.6-1,0.8
			c-0.4,0.2-0.8,0.4-1.2,0.5c-0.4,0.1-0.8,0.2-1.2,0.3c-0.4,0.1-0.8,0.1-1.1,0.2C161.1,403.5,161.1,403.5,161.1,403.5z M162.2,395.2
			c0.2,0,0.4-0.1,0.6-0.1c0.2,0,0.4-0.1,0.6-0.2c0.2-0.1,0.4-0.2,0.6-0.3c0.2-0.1,0.4-0.3,0.5-0.6c0.2-0.3,0.3-0.6,0.2-0.9
			c-0.1-0.3-0.2-0.5-0.5-0.6c-0.3-0.2-0.6-0.2-1-0.1c-0.4,0.1-0.7,0.2-1,0.4C162.2,393.5,162.2,394.3,162.2,395.2z M164.7,397.7
			c-0.2-0.1-0.4-0.2-0.6-0.2c-0.2,0-0.4,0-0.6,0c-0.2,0-0.4,0.1-0.6,0.1c-0.2,0.1-0.4,0.1-0.7,0.2c0,1.1,0,2.1,0,3.2
			c0.2,0,0.5-0.1,0.8-0.2c0.3-0.1,0.6-0.2,0.8-0.3c0.3-0.1,0.5-0.3,0.7-0.5c0.2-0.2,0.4-0.5,0.5-0.8c0-0.3,0-0.6,0-0.8
			C165,398.1,164.9,397.9,164.7,397.7z"/>

			<path fill="#CA2E27" stroke="#711011" stroke-width="0.68" stroke-linecap="round" stroke-linejoin="round" stroke-miterlimit="10" d="
			M174.6,397.6c0.3,0.1,0.4,0.2,0.6,0.4c0.1,0.2,0.2,0.4,0.2,0.6c0,0.2-0.1,0.5-0.2,0.7c-0.1,0.3-0.3,0.5-0.6,0.7
			c-0.1,0.1-0.3,0.2-0.5,0.2c-0.2,0.1-0.5,0.2-0.8,0.3c-0.4,0.1-0.8,0.3-1.3,0.4c-0.5,0.2-1.2,0.4-2,0.6c-0.2,0.1-0.4,0.1-0.6,0.2
			c-0.2,0.1-0.4,0-0.6-0.1c-0.1-0.1-0.2-0.3-0.3-0.5s-0.1-0.5-0.1-0.8c0-0.3,0-0.6,0-0.9c0-0.3,0-0.5,0-0.7c0-0.4,0-0.9,0-1.4
			c0-0.5,0-1,0-1.6c0-0.5,0-1.1,0-1.6c0-0.5,0-1,0-1.4c0-0.7,0-1.3,0-1.7c0-0.4,0-0.8,0.1-1c0-0.3,0.1-0.5,0.2-0.6
			c0.1-0.1,0.2-0.3,0.4-0.4c0.1-0.1,0.3-0.2,0.4-0.2c0.2,0,0.3,0,0.4,0c0.1,0,0.3,0.1,0.3,0.3c0.1,0.1,0.1,0.3,0.1,0.5
			c0,1.6,0,3.2,0,4.7c0,1.6,0,3.1,0,4.7c0.7-0.2,1.4-0.4,2.1-0.6C173.1,398.1,173.8,397.9,174.6,397.6
			C174.5,397.6,174.6,397.6,174.6,397.6z"/>

			<path fill="#CA2E27" stroke="#711011" stroke-width="0.68" stroke-linecap="round" stroke-linejoin="round" stroke-miterlimit="10" d="
			M182,394.3c0.2-0.1,0.4-0.1,0.5,0c0.1,0,0.3,0.1,0.4,0.3c0.1,0.1,0.1,0.3,0.2,0.5c0,0.2,0,0.4-0.1,0.7c0,0.1-0.1,0.2-0.2,0.4
			c-0.1,0.2-0.2,0.3-0.3,0.4c-0.7,0.5-1.4,1-2.1,1.4c-0.7,0.4-1.5,0.6-2.2,0.8c-0.2,0.1-0.4,0.1-0.7,0.2c-0.2,0.1-0.5,0.1-0.6,0
			c-0.3-0.1-0.5-0.5-0.5-0.9c0-2.8,0-5.6,0-8.5c-0.1-0.1-0.2-0.2-0.3-0.3c-0.1-0.1-0.1-0.3-0.1-0.5c0-0.2,0-0.4,0.1-0.5
			c0.1-0.2,0.1-0.4,0.3-0.5c0.2-0.3,0.5-0.5,0.8-0.7c0.3-0.2,0.6-0.3,0.8-0.5c0.6-0.3,1.1-0.6,1.7-0.8c0.6-0.2,1.1-0.5,1.7-0.7
			c0.2-0.1,0.4-0.2,0.6-0.3c0.2-0.1,0.4-0.2,0.6-0.2c0.2,0,0.4,0.1,0.5,0.2c0.1,0.1,0.2,0.3,0.2,0.5c0,0.2,0,0.4-0.1,0.7
			c-0.1,0.3-0.2,0.5-0.5,0.7c-0.3,0.2-0.6,0.4-0.9,0.5c-0.3,0.1-0.6,0.2-0.9,0.3c-0.4,0.2-0.8,0.3-1.2,0.5c-0.4,0.2-0.8,0.4-1.2,0.6
			c0,0.9,0,1.8,0,2.8c0.4-0.1,0.8-0.3,1.2-0.5c0.4-0.2,0.8-0.4,1.2-0.6c0.2-0.1,0.3-0.2,0.5-0.3c0.2-0.1,0.3-0.2,0.5-0.2
			c0.2-0.1,0.4,0,0.5,0.1c0.1,0.1,0.2,0.3,0.2,0.6c0,0.2,0,0.5-0.1,0.8c-0.1,0.3-0.3,0.5-0.5,0.7c-0.2,0.2-0.4,0.3-0.7,0.5
			c-0.3,0.2-0.6,0.3-1,0.5c-0.3,0.2-0.7,0.3-1,0.4c-0.3,0.1-0.6,0.2-0.8,0.3c0,0.8,0,1.6,0,2.4c0.6-0.1,1.2-0.4,1.8-0.7
			c0.6-0.3,1.2-0.7,1.8-1.1C181.9,394.3,182,394.3,182,394.3z"/>

			<path fill="#CA2E27" stroke="#711011" stroke-width="0.68" stroke-linecap="round" stroke-linejoin="round" stroke-miterlimit="10" d="
			M119.6,419c-0.1-0.3-0.1-0.7-0.1-1c0-0.3,0.1-0.6,0.3-0.8c0.2-0.2,0.3-0.3,0.6-0.3c0.2,0,0.5,0.1,0.8,0.3c0.3,0.2,0.5,0.5,0.7,0.8
			c0.2,0.3,0.4,0.6,0.7,0.8c0.4,0.3,0.8,0.5,1.2,0.7c0.3,0.1,0.6,0.3,0.8,0.3c0.3,0.1,0.6,0.1,0.9,0.2c0.2,0,0.4-0.1,0.6-0.1
			c0.2,0,0.3-0.2,0.5-0.3c0.2-0.2,0.4-0.4,0.4-0.7c0.1-0.3,0.1-0.6,0-0.9c-0.1-0.3-0.2-0.6-0.4-0.9c-0.2-0.3-0.4-0.5-0.7-0.6
			c-0.5-0.3-1-0.6-1.5-0.8c-0.5-0.2-1-0.4-1.5-0.7c-0.5-0.3-0.9-0.6-1.4-1c-0.4-0.4-0.8-0.9-1.2-1.5c-0.2-0.3-0.3-0.6-0.4-0.9
			c-0.1-0.2-0.1-0.5-0.2-0.9c-0.1-0.9-0.1-1.5,0.2-2c0.2-0.5,0.5-0.9,0.9-1.3c0.5-0.5,1-0.8,1.6-1c0.6-0.2,1.2-0.3,1.9-0.2
			c0.6,0,1.3,0.2,2,0.4c0.7,0.2,1.3,0.6,1.9,1c0.3,0.2,0.6,0.5,0.7,0.9c0.1,0.4,0.1,0.7,0,1.1c-0.1,0.3-0.3,0.6-0.5,0.8
			c-0.2,0.2-0.5,0.2-0.9,0.1c-0.4-0.1-0.7-0.3-1-0.4c-0.3-0.1-0.6-0.3-0.9-0.4c-0.2-0.1-0.5-0.2-0.8-0.2c-0.3,0-0.5,0-0.8,0
			c-0.2,0-0.5,0.1-0.7,0.1c-0.2,0.1-0.4,0.1-0.5,0.2c-0.1,0.1-0.2,0.2-0.3,0.4c-0.1,0.2-0.2,0.4-0.2,0.6c0,0.3,0.1,0.5,0.3,0.8
			c0.2,0.2,0.4,0.4,0.7,0.6c0.5,0.2,1,0.4,1.5,0.6c0.5,0.2,1,0.5,1.5,0.7c0.5,0.3,1,0.6,1.4,1c0.4,0.4,0.8,0.8,1.1,1.4
			c0.3,0.5,0.6,1,0.7,1.6c0.1,0.6,0.2,1.2,0.2,1.7c0,0.6-0.2,1.1-0.3,1.6c-0.2,0.5-0.5,0.9-0.8,1.3c-0.2,0.2-0.5,0.4-0.7,0.6
			c-0.3,0.2-0.5,0.3-0.8,0.4c-0.6,0.3-1.2,0.3-1.9,0.2c-0.7-0.1-1.3-0.4-2-0.8c-0.7-0.4-1.3-0.8-1.9-1.4c-0.6-0.6-1.1-1.1-1.5-1.7
			C119.7,419.2,119.7,419.1,119.6,419z"/>

			<path fill="#CA2E27" stroke="#711011" stroke-width="0.68" stroke-linecap="round" stroke-linejoin="round" stroke-miterlimit="10" d="
			M143.8,417.2c-0.3,1-0.6,1.9-1,2.8c-0.4,0.9-0.9,1.7-1.4,2.4c-0.6,0.7-1.2,1.3-2,1.7c-0.7,0.4-1.6,0.6-2.6,0.5
			c-0.6-0.1-1.1-0.2-1.5-0.3c-0.4-0.1-0.7-0.3-1-0.5c-0.6-0.3-1.1-0.6-1.6-1.1c-0.4-0.5-0.8-1.1-1.1-1.7c-0.3-0.6-0.5-1.3-0.7-2
			c-0.2-0.7-0.3-1.4-0.3-2c-0.1-1.1,0-2.2,0.2-3.4c0.2-1.1,0.6-2.1,1.1-3c0.5-0.9,1.2-1.7,1.9-2.3c0.8-0.6,1.7-1,2.7-1.1
			c0.5-0.1,1-0.1,1.6,0c0.5,0.1,1,0.2,1.5,0.4c0.4,0.2,0.8,0.4,1.2,0.6c0.4,0.2,0.7,0.5,1,0.9c0.4,0.5,0.8,1,1.1,1.5
			c0.3,0.6,0.5,1.2,0.6,1.8c0.2,0.8,0.2,1.6,0.2,2.4C144,415.7,143.9,416.4,143.8,417.2z M138.1,421.4c0.4-0.2,0.8-0.5,1.2-0.8
			c0.3-0.4,0.6-0.7,0.9-1.2c0.3-0.4,0.5-0.9,0.6-1.4c0.2-0.5,0.3-1,0.5-1.5c0.1-0.6,0.1-1.3,0.1-2c0-0.7-0.1-1.3-0.4-2
			c-0.2-0.5-0.5-1-0.9-1.3c-0.4-0.4-0.9-0.7-1.4-0.8c-0.5-0.2-1-0.2-1.5-0.2c-0.5,0.1-1,0.2-1.4,0.6c-0.6,0.5-1,1.1-1.4,1.7
			c-0.3,0.6-0.6,1.4-0.8,2.2c-0.1,0.6-0.2,1.3-0.2,2c0,0.7,0.1,1.4,0.3,2.1c0.2,0.5,0.4,1,0.7,1.4c0.3,0.4,0.7,0.8,1.1,1
			c0.4,0.3,0.8,0.4,1.3,0.5C137.2,421.7,137.6,421.6,138.1,421.4z"/>

			<path fill="#CA2E27" stroke="#711011" stroke-width="0.68" stroke-linecap="round" stroke-linejoin="round" stroke-miterlimit="10" d="
			M154.1,408.5c0.1-0.4,0.2-0.6,0.4-0.9c0.2-0.2,0.4-0.4,0.6-0.5c0.2-0.1,0.5-0.1,0.7,0c0.2,0.1,0.5,0.2,0.6,0.5
			c0.1,0.1,0.1,0.2,0.2,0.3c0.1,0.1,0.1,0.2,0.1,0.3c0,0.2,0,0.5,0,1c0,0.4,0,0.9,0,1.4c0,0.5,0,0.9,0,1.2c0,0.4,0,0.5,0,0.6
			c0,0.9-0.1,1.9-0.2,2.8c-0.1,0.9-0.2,1.9-0.3,2.8c-0.1,0.7-0.3,1.4-0.4,2c-0.2,0.6-0.4,1.2-0.7,1.7c-0.3,0.5-0.6,1-1.1,1.3
			c-0.4,0.4-1,0.7-1.6,1c-0.3,0.1-0.5,0.2-0.8,0.2c-0.3,0.1-0.5,0.1-0.8,0.1c-0.7,0.1-1.5-0.1-2.3-0.3c-0.9-0.3-1.5-1-2-1.9
			c-0.4-0.9-0.8-1.9-0.9-3c-0.2-1.1-0.3-2.2-0.3-3.4c0-1.1,0-2.2,0-3c0-0.4,0-0.7,0-1.1c0-0.4,0-0.7,0-1.1c0-0.3,0-0.5,0-0.8
			c0-0.3,0.1-0.6,0.1-0.8c0.1-0.3,0.2-0.5,0.3-0.7c0.2-0.2,0.4-0.3,0.7-0.4c0.2,0,0.3,0,0.5,0c0.2,0.1,0.3,0.2,0.5,0.3
			c0.1,0.1,0.3,0.3,0.4,0.4c0.1,0.2,0.2,0.4,0.2,0.6c0,0.3,0,0.5,0,0.7c0,0.2,0,0.3,0,0.4c0,0.1,0,0.3,0,0.4c0,0.1,0,0.3,0,0.5
			c0,1.1,0,2.3,0,3.4c0,1.1,0.1,2.2,0.2,3.3c0,0.5,0.1,0.9,0.2,1.4c0.1,0.5,0.3,0.9,0.5,1.3c0.2,0.3,0.5,0.5,0.9,0.6
			c0.4,0.1,0.8,0.1,1.1,0c0.4-0.1,0.8-0.2,1.1-0.5c0.3-0.2,0.6-0.5,0.8-0.9c0.2-0.4,0.3-0.8,0.4-1.2c0.1-0.5,0.2-1,0.2-1.5
			c0.1-0.5,0.1-1,0.1-1.5c0-0.5,0-0.9,0.1-1.4c0-0.5,0.1-0.9,0.1-1.2c0-0.3,0-0.8,0-1.2c0-0.4,0-0.7,0-1.1c0-0.4,0-0.7,0-1.1
			C154,409.3,154.1,408.9,154.1,408.5z"/>

			<path fill="#CA2E27" stroke="#711011" stroke-width="0.68" stroke-linecap="round" stroke-linejoin="round" stroke-miterlimit="10" d="
			M158.3,408.2c0-0.2,0.1-0.4,0.2-0.6c0.1-0.2,0.2-0.4,0.4-0.5c0.1-0.2,0.3-0.3,0.5-0.4c0.2-0.1,0.3-0.1,0.5-0.1
			c0.5-0.3,1.1-0.7,1.7-0.9c0.6-0.3,1.1-0.5,1.7-0.6c0.6-0.1,1.1-0.2,1.7-0.2c0.5,0,1.1,0.2,1.6,0.4c0.4,0.2,0.8,0.5,1.1,0.9
			c0.3,0.4,0.6,0.8,0.8,1.3c0.3,0.8,0.5,1.7,0.5,2.6c0,0.9-0.2,1.8-0.5,2.7c-0.3,0.9-0.8,1.7-1.4,2.4c-0.6,0.7-1.3,1.3-2.1,1.8
			c-0.6,0.3-1.2,0.6-1.9,0.7c-0.6,0.1-1.3,0.2-1.9,0.2c0,0.8,0,1.7,0,2.5c0,0.2,0,0.4,0,0.6c0,0.2,0,0.4,0,0.6c0,0.2,0,0.4-0.1,0.6
			c0,0.2-0.1,0.4-0.2,0.6c-0.2,0.4-0.4,0.6-0.7,0.7c-0.3,0.1-0.5,0.2-0.8,0.1c-0.3-0.1-0.5-0.2-0.7-0.5c-0.2-0.2-0.3-0.5-0.3-0.9
			c0-1.5,0-3.1,0-4.6c-0.3-0.1-0.5-0.3-0.6-0.5c-0.1-0.2-0.2-0.5-0.2-0.8c0-0.3,0.1-0.5,0.2-0.8c0.1-0.3,0.3-0.5,0.5-0.7
			c0-2.2,0-4.4,0-6.6C158.3,408.3,158.3,408.3,158.3,408.2z M164.7,408.1c-0.6-0.2-1.2-0.1-1.9,0.1c-0.6,0.2-1.2,0.6-1.8,1
			c0,1.9,0,3.7,0,5.6c0.7,0,1.4-0.1,2.1-0.3c0.7-0.2,1.4-0.6,2-1.2c0.4-0.4,0.7-0.9,0.9-1.4c0.2-0.5,0.2-1.1,0.2-1.6
			c0-0.5-0.2-1-0.4-1.4C165.4,408.6,165.1,408.3,164.7,408.1z"/>
	</g>
</g>
</svg>
