<?xml version="1.0" encoding="utf-8"?>
<!-- Generator: Adobe Illustrator 18.1.1, SVG Export Plug-In . SVG Version: 6.00 Build 0)  -->
<svg version="1.1" id="Layer_1" xmlns="http://www.w3.org/2000/svg" xmlns:xlink="http://www.w3.org/1999/xlink" x="0px" y="0px"
	 width="500px" height="500px" viewBox="0 0 500 500" enable-background="new 0 0 500 500" xml:space="preserve">
<symbol  id="New_Symbol_7" viewBox="-33.402 -27.144 66.806 54.289">
	<g>
		<g>
			<polygon fill="#E0B594" stroke="#BA8E6E" stroke-width="0.75" stroke-miterlimit="10" points="-20.057,1.647 -20.057,-22.436
				-17.973,-22.436 -16.473,-18.019 -16.473,1.647 			"/>
			<polygon fill="#E0B594" stroke="#BA8E6E" stroke-width="0.75" stroke-miterlimit="10" points="20.058,1.647 20.058,-22.436
				17.975,-22.436 16.475,-18.019 16.475,1.647 			"/>
		</g>
		<path fill="#FFFFFF" stroke="#231F20" stroke-width="0.5162" stroke-miterlimit="10" d="M20.649-17.75h-41.242
			c-1.611,0-2.917,1.306-2.917,2.917V-7.6h47.076v-7.233C23.566-16.444,22.26-17.75,20.649-17.75z"/>
		<g>
			<g>
				<polygon fill="#E0B594" stroke="#BA8E6E" stroke-width="0.75" stroke-miterlimit="10" points="-11.166,11.647 -13.083,11.647
					-13.083,21.564 -11.166,21.564 				"/>
				<polygon fill="#E0B594" stroke="#BA8E6E" stroke-width="0.75" stroke-miterlimit="10" points="-3.083,11.647 -4.999,11.647
					-4.999,21.564 -3.083,21.564 				"/>
				<polygon fill="#E0B594" stroke="#BA8E6E" stroke-width="0.75" stroke-miterlimit="10" points="5.001,11.647 3.084,11.647
					3.084,21.564 5.001,21.564 				"/>
				<polygon fill="#E0B594" stroke="#BA8E6E" stroke-width="0.75" stroke-miterlimit="10" points="13.084,11.647 11.167,11.647
					11.167,21.564 13.084,21.564 				"/>
			</g>
			<polygon fill="#E0B594" stroke="#BA8E6E" stroke-width="0.75" stroke-miterlimit="10" points="9.355,24.314 -9.354,24.314
				-19.895,24.314 -19.895,20.564 -9.354,20.564 9.355,20.564 19.896,20.564 19.896,24.314 			"/>
			<g>
				<polygon fill="#E0B594" stroke="#BA8E6E" stroke-width="0.75" stroke-miterlimit="10" points="-18.467,0.647 -21.115,0.647
					-21.115,23.731 -18.467,23.731 				"/>
				<polygon fill="#E0B594" stroke="#BA8E6E" stroke-width="0.75" stroke-miterlimit="10" points="21.116,0.647 18.468,0.647
					18.468,23.731 21.116,23.731 				"/>
			</g>
			<path fill="#E0B594" stroke="#BA8E6E" stroke-width="0.75" stroke-miterlimit="10" d="M9.355,24.702v0.023l-9.354-0.012
				l-9.354,0.012v-0.023l-12.786-0.016c0.535-1.24,1.07-1.289,1.07-1.289h11.716H9.355h11.716c0,0,0.535,0.049,1.07,1.289
				L9.355,24.702z"/>
			<path fill="#E0B594" stroke="#BA8E6E" stroke-width="0.75" stroke-miterlimit="10" d="M9.355,26.77H-9.354h-14.5
				c0.535-2.333,1.714-2.5,1.714-2.5h12.786H9.355h12.786c0,0,1.178,0.167,1.714,2.5H9.355z"/>
		</g>
		<path fill="#FEF3E5" stroke="#D3C2AF" stroke-miterlimit="10" d="M21.142,4.091c-0.543,0.693-1.375,1.098-2.256,1.098H3.844
			h-7.688h-15.042c-0.881,0-1.713-0.405-2.256-1.098l-2.764-3.527l1.375-0.25h18.688h7.688h18.688l1.375,0.25L21.142,4.091z"/>
		<g>
			<g>
				<path fill="#FEF3E5" stroke="#D3C2AF" stroke-width="0.8" stroke-miterlimit="10" d="M0.011,14.036
					c0.203-3.678-0.233-7.39-1.286-10.919C-2.981,3.346-4.685,3.6-6.401,3.73c-1.657,0.126-3.32,0.136-4.981,0.106
					c-3.035-0.055-6.07-0.245-9.077-0.656c-1.207,4.114-0.344,8.779,2.232,12.205c0.935-0.565,1.969-0.965,3.041-1.177
					c2.517,0.526,5.129,0.589,7.671,0.193c0.043-0.007,0.086-0.013,0.128-0.02c2.454,0.008,4.907,0.187,7.337,0.532
					C-0.025,14.621-0.005,14.329,0.011,14.036z"/>
				<g>
					<path fill="#FEF3E5" d="M-17.116,13.084c1.71,1.096,5.591,1.542,7.653,1.542"/>
					<path fill="#D3C2AF" d="M-17.116,13.084c0,0,0.343,0.381,1.031,0.742c0.676,0.361,1.648,0.667,2.635,0.84
						c0.989,0.164,1.992,0.204,2.742,0.146c0.752-0.058,1.245-0.186,1.245-0.186s-0.123-0.037-0.337-0.082
						c-0.212-0.046-0.515-0.111-0.879-0.19c-0.724-0.144-1.683-0.313-2.637-0.476c-0.954-0.161-1.903-0.324-2.611-0.481
						c-0.354-0.084-0.648-0.141-0.857-0.212C-16.992,13.115-17.116,13.084-17.116,13.084z"/>
				</g>
			</g>
			<g>
				<path fill="#FEF3E5" stroke="#D3C2AF" stroke-width="0.8" stroke-miterlimit="10" d="M0.551,14.036
					c-0.197-3.678,0.227-7.39,1.252-10.919C3.464,3.346,5.122,3.6,6.792,3.73c1.612,0.126,3.231,0.136,4.848,0.106
					c2.954-0.055,5.908-0.245,8.834-0.656c1.175,4.114,0.335,8.779-2.172,12.205c-0.91-0.565-1.917-0.965-2.96-1.177
					c-2.45,0.526-4.992,0.589-7.466,0.193c-0.042-0.007-0.083-0.013-0.125-0.02c-2.388,0.008-4.776,0.187-7.141,0.532
					C0.587,14.621,0.567,14.329,0.551,14.036z"/>
				<g>
					<path fill="#FEF3E5" d="M17.221,13.084c-1.665,1.096-5.441,1.542-7.449,1.542"/>
					<path fill="#D3C2AF" d="M17.221,13.084c0,0-0.121,0.031-0.324,0.101c-0.203,0.071-0.489,0.127-0.833,0.212
						c-0.689,0.157-1.612,0.32-2.54,0.481c-0.928,0.163-1.861,0.332-2.567,0.476c-0.354,0.079-0.649,0.144-0.856,0.19
						c-0.208,0.045-0.328,0.082-0.328,0.082s0.48,0.129,1.214,0.186c0.732,0.058,1.711,0.017,2.675-0.147
						c0.962-0.173,1.909-0.479,2.564-0.841C16.894,13.462,17.221,13.084,17.221,13.084z"/>
				</g>
			</g>
		</g>
		<g>
			<path fill="#D8CFBA" stroke="#AFA082" stroke-width="0.8" stroke-miterlimit="10" d="M-7.853,9.02
				c-0.407-1.618-0.471-3.323-0.163-4.963c1.88-0.102,3.761-0.204,5.641-0.305C1.15,3.561,4.722,3.374,8.21,3.796
				C8.098,5.187,7.891,6.569,7.592,7.931c-0.343,1.562-0.889,3.217-2.213,4.112c-0.782-0.156-1.574-0.266-2.369-0.328
				c-2.163,0.552-4.453,0.893-6.602,0.422c-0.912,0.287-1.888,0.361-2.835,0.228C-7.077,11.335-7.556,10.201-7.853,9.02z"/>
		</g>
		<path fill="#B79B8E" stroke="#7F5D4F" stroke-width="0.8" stroke-miterlimit="10" d="M-25.152-12.338
			c1.249-1.228,2.901-2.062,4.603-2.536c2.286-0.638,4.688-0.699,7.061-0.756c9.645-0.232,19.29-0.463,28.935-0.695
			c1.912-0.046,3.857-0.088,5.701,0.421c1.473,0.406,2.893,1.221,3.804,2.421c0.493-1.122,1.241-2.175,2.019-3.148
			c1.481-1.852,3.126-3.573,4.91-5.136c0.426-0.373,1.11-0.066,1.118,0.5c0.029,2.038-0.066,4.075-0.284,6.099
			c-0.132,1.224-0.311,2.453-0.737,3.608c-0.872,2.363-2.731,4.282-3.676,6.51c-0.849,1.313-1.67,2.582-2.519,3.896L25.16-0.532
			c-1.997,1.997-4.485,3.458-7.23,4.122c-2.628,0.636-5.348,0.729-8.047,0.819C7.08,4.504,4.245,4.595,1.471,4.271
			c-6.047,2.248-12.698,0.561-19.176,0.461c-2.036-0.031-4.007-0.704-5.584-1.991c-2.961-2.417-5.505-5.351-7.483-8.625
			c-0.892-1.477-1.424-3.145-1.646-4.856c-0.398-3.06-0.821-5.791-0.427-9.816c0.057-0.584,0.79-0.836,1.178-0.396
			c2.392,2.718,4.522,5.66,6.354,8.778C-25.261-12.23-25.207-12.284-25.152-12.338z"/>
		<g>
			<g>
				<polygon fill="#E9C09C" stroke="#BA8E6E" stroke-width="0.75" stroke-miterlimit="10" points="-14.976,-17.103 -16.773,-17.103
					-16.773,-7.519 -14.976,-7.519 				"/>
				<polygon fill="#E9C09C" stroke="#BA8E6E" stroke-width="0.75" stroke-miterlimit="10" points="-7.038,-17.103 -8.835,-17.103
					-8.835,-7.519 -7.038,-7.519 				"/>
				<polygon fill="#E9C09C" stroke="#BA8E6E" stroke-width="0.75" stroke-miterlimit="10" points="0.899,-17.103 -0.898,-17.103
					-0.898,-7.519 0.899,-7.519 				"/>
				<polygon fill="#E9C09C" stroke="#BA8E6E" stroke-width="0.75" stroke-miterlimit="10" points="8.837,-17.103 7.04,-17.103
					7.04,-7.519 8.837,-7.519 				"/>
				<polygon fill="#E9C09C" stroke="#BA8E6E" stroke-width="0.75" stroke-miterlimit="10" points="16.774,-17.103 14.977,-17.103
					14.977,-7.519 16.774,-7.519 				"/>
			</g>
			<polygon fill="#E9C09C" stroke="#BA8E6E" stroke-width="0.75" stroke-miterlimit="10" points="12.193,-3.853 -12.192,-3.853
				-23.307,-3.853 -23.307,-8.103 -12.192,-8.103 12.193,-8.103 23.308,-8.103 23.308,-3.853 			"/>
			<polygon fill="#E9C09C" stroke="#BA8E6E" stroke-width="0.75" stroke-miterlimit="10" points="12.193,-17.007 -12.192,-17.007
				-23.307,-17.007 -23.307,-20.103 -12.192,-20.103 12.193,-20.103 23.308,-20.103 23.308,-17.007 			"/>
			<g>
				<polygon fill="#E9C09C" stroke="#BA8E6E" stroke-width="0.75" stroke-miterlimit="10" points="-26.223,-2.686 -26.223,-26.769
					-24.14,-26.769 -22.64,-22.353 -22.64,-2.686 				"/>
				<polygon fill="#E9C09C" stroke="#BA8E6E" stroke-width="0.75" stroke-miterlimit="10" points="26.225,-2.686 26.225,-26.769
					24.141,-26.769 22.641,-22.353 22.641,-2.686 				"/>
			</g>
			<path fill="#E9C09C" stroke="#BA8E6E" stroke-width="0.75" stroke-miterlimit="10" d="M12.225-1.436h-24.448h-17.833
				c0.833-2.333,2.667-2.5,2.667-2.5h15.166h24.448h15.166c0,0,1.834,0.167,2.667,2.5H12.225z"/>
			<path fill="#E9C09C" stroke="#BA8E6E" stroke-width="0.75" stroke-miterlimit="10" d="M12.225-3.921v0.024L0.001-3.909
				l-12.224,0.012v-0.024l-15.166-0.015c0.833-1.24,1.666-1.289,1.666-1.289h13.5h24.448h13.5c0,0,0.833,0.049,1.666,1.289
				L12.225-3.921z"/>
		</g>
	</g>
</symbol>
<g>

		<use xlink:href="#New_Symbol_7"  width="66.806" height="54.289" id="XMLID_4_" x="-33.402" y="-27.144" transform="matrix(2.9185 0 0 -2.9185 108.7731 250.0005)" overflow="visible"/>

		<use xlink:href="#New_Symbol_7"  width="66.806" height="54.289" id="XMLID_5_" x="-33.402" y="-27.144" transform="matrix(2.9185 0 0 -2.9185 315.9861 250.0005)" overflow="visible"/>
</g>
</svg>
