<?xml version="1.0" encoding="utf-8"?>
<!-- Generator: Adobe Illustrator 18.1.1, SVG Export Plug-In . SVG Version: 6.00 Build 0)  -->
<svg version="1.1" id="Layer_1" xmlns="http://www.w3.org/2000/svg" xmlns:xlink="http://www.w3.org/1999/xlink" x="0px" y="0px"
	 width="500px" height="500px" viewBox="0 0 500 500" enable-background="new 0 0 500 500" xml:space="preserve">
<g>
	<g>
		<defs>
			<path id="SVGID_1_" d="M81.812,358.521c0,0,11.663-2.519,13.005-29.452l12.122-10.717c0,0,11.528-11.293,14.96-54.64
				l-45.039,0.69l0.809,52.805c0.036,2.383-1.173,4.64-3.241,5.825c-2.386,1.368-6.196,2.924-11.826,3.604l-2.739,50.357
				c0,0,5.417,9.863,4.453,23.334c0,0-6.912,7.127,1.412,15.775c0,0-0.748,12.751,0.224,14.623c2.156,4.152,20.52,6.46,27.412,3.883
				c1.269-0.474,1.793-1.98,1.103-3.146l-5.837-9.86c0,0,1.719-2.367-0.692-7.01c-2.411-4.644-7.855-16.261-7.855-16.261
				S78.5,371.443,81.812,358.521z"/>
		</defs>
		<use xlink:href="#SVGID_1_"  overflow="visible" fill="#E6A56A"/>
		<clipPath id="SVGID_2_">
			<use xlink:href="#SVGID_1_"  overflow="visible"/>
		</clipPath>

			<path clip-path="url(#SVGID_2_)" fill="#353451" stroke="#61607C" stroke-width="2.34" stroke-linecap="round" stroke-linejoin="round" stroke-miterlimit="10" d="
			M55.127,411.585c0,0,15.981,12.042,40.53,10.495l10.194,16.226c0,0-21.49,10.275-23.245,10.302
			c-1.755,0.027-20.022-8.469-20.022-8.469L55.127,411.585z"/>
		<use xlink:href="#SVGID_1_"  overflow="visible" fill="none" stroke="#AA6F42" stroke-width="2.34" stroke-miterlimit="10"/>
	</g>
	<g>
		<defs>
			<path id="SVGID_3_" d="M69.247,225.71c-7.841-2.61-11.172-16.702-17.81-16.889c-8.975-0.253-13.499,9.958-17.285,17.426
				s-6.907,32.869-6.907,32.869s-12.392,56.745-14.823,76.285s3.058,21.405,3.058,21.405c0.022,26.912,9.807,29.103,9.807,29.103
				c-1.685-8.165-0.856-30.41-0.856-30.41s2.567,14.782,7.358,47.472s21.672,39.842,21.672,39.842l-2.927-12.826
				c5.302,15.13,13.443,11.885,13.443,11.885c-7.984-11.969-7.125-32.264-6.836-38.899c0.288-6.635,0.062-21.453,0.062-21.453
				l1.373,13.24c0,0,7.421,0.666,6.044-38.316c0,0,1.259,5.831,3.611,6.575c0,0,0.199-12.484,0.883-18.735
				c0.684-6.251-2.066-58.474-12.982-83.66L69.247,225.71z"/>
		</defs>
		<use xlink:href="#SVGID_3_"  overflow="visible" fill="#F4DAC6"/>
		<clipPath id="SVGID_4_">
			<use xlink:href="#SVGID_3_"  overflow="visible"/>
		</clipPath>
		<g clip-path="url(#SVGID_4_)">
			<g>
				<path fill="#D8A98F" d="M26.553,308.292c0,0-0.132,1.004-0.226,2.782c-0.096,1.775-0.153,4.317-0.067,7.362
					c0.038,1.522,0.12,3.171,0.236,4.911c0.117,1.74,0.264,3.573,0.441,5.467c0.205,1.891,0.416,3.844,0.696,5.822
					c0.258,1.979,0.585,3.982,0.92,5.98c0.363,1.99,0.721,3.993,1.117,5.964c0.396,1.967,0.736,3.911,1.076,5.791
					c0.615,3.77,1.074,7.308,1.414,10.349c0.696,6.079,0.844,10.184,0.844,10.184l-0.231,0.038c0,0-1.174-3.936-2.46-9.918
					c-0.651-2.99-1.348-6.488-1.972-10.257c-0.58-3.784-1.102-7.802-1.639-11.874c-0.252-2.032-0.494-4.066-0.669-6.074
					c-0.196-2.006-0.325-3.985-0.449-5.9c-0.089-1.917-0.181-3.769-0.19-5.529c-0.016-1.759-0.003-3.421,0.046-4.954
					c0.089-3.067,0.294-5.616,0.493-7.393c0.196-1.776,0.388-2.785,0.388-2.785L26.553,308.292z"/>
			</g>
			<g>
				<path fill="#D8A98F" d="M27.342,298.49c0,0,0.39-3.474,0.671-8.7c0.071-1.306,0.13-2.722,0.178-4.219
					c0.04-1.497,0.094-3.074,0.105-4.705c0.048-3.263-0.113-6.72-0.235-10.232c-0.115-3.499-0.278-6.999-0.283-10.283
					c0.033-3.283,0.209-6.347,0.45-8.971c0.112-1.312,0.258-2.514,0.393-3.578c0.142-1.064,0.292-1.99,0.442-2.75
					c0.157-0.76,0.258-1.356,0.379-1.759c0.108-0.401,0.166-0.615,0.166-0.615l0.231,0.035c0,0,0.016,0.874,0.045,2.403
					c0.052,1.526,0.126,3.706,0.215,6.323c0.076,2.615,0.14,5.665,0.117,8.933c-0.09,3.27-0.186,6.758-0.282,10.246
					c-0.053,3.476-0.067,7.009-0.281,10.294c-0.181,3.287-0.508,6.339-0.823,8.948c-0.632,5.218-1.255,8.662-1.255,8.662
					L27.342,298.49z"/>
			</g>
			<g>
				<path fill="#D8A98F" d="M47.362,291.932c0,0,0.346,1.123,0.868,3.108c0.258,0.994,0.565,2.202,0.889,3.594
					c0.34,1.39,0.671,2.968,1.046,4.688c0.347,1.725,0.743,3.592,1.094,5.578c0.385,1.981,0.705,4.084,1.052,6.258
					c0.352,2.173,0.635,4.43,0.967,6.718c0.274,2.296,0.553,4.628,0.831,6.959c0.502,4.67,0.981,9.348,1.252,13.746
					c0.091,2.201,0.162,4.329,0.184,6.348c0.022,2.019-0.021,3.929-0.057,5.69c-0.054,3.523-0.276,6.457-0.45,8.508
					c-0.158,2.051-0.291,3.221-0.291,3.221l-0.234-0.002c0,0-0.136-1.172-0.298-3.22c-0.094-1.024-0.186-2.266-0.276-3.69
					c-0.096-1.423-0.204-3.028-0.322-4.78c-0.125-1.75-0.214-3.646-0.333-5.65c-0.15-2.002-0.26-4.115-0.356-6.301
					c-0.093-2.187-0.189-4.446-0.287-6.743c-0.082-2.298-0.264-4.626-0.394-6.959c-0.19-2.328-0.38-4.656-0.567-6.948
					c-0.245-2.286-0.442-4.542-0.711-6.716c-0.51-4.352-1.069-8.404-1.607-11.87c-0.288-1.729-0.539-3.318-0.808-4.718
					c-0.253-1.403-0.499-2.621-0.706-3.623c-0.421-2.003-0.709-3.136-0.709-3.136L47.362,291.932z"/>
			</g>
			<g>
				<path fill="#D8A98F" d="M52.193,250.552c0,0-0.137,4.356,0.173,10.873c0.156,3.257,0.431,7.051,0.859,11.094
					c0.215,2.022,0.493,4.103,0.814,6.209c0.335,2.099,0.731,4.229,1.131,6.38c0.392,2.147,0.784,4.295,1.171,6.409
					c0.396,2.114,0.709,4.208,1.015,6.235c0.54,4.064,0.84,7.89,0.956,11.177c0.069,1.643,0.068,3.153,0.058,4.49
					c-0.022,1.338-0.069,2.503-0.149,3.463c-0.058,0.958-0.135,1.71-0.194,2.222c-0.06,0.511-0.091,0.783-0.091,0.783l-0.234-0.004
					c0,0-0.03-0.272-0.085-0.782c-0.064-0.51-0.099-1.255-0.219-2.202c-0.213-1.893-0.522-4.589-0.951-7.813
					c-0.441-3.223-0.955-6.982-1.507-11.01c-0.508-4.036-0.999-8.357-1.617-12.665c-0.311-2.147-0.624-4.315-0.879-6.464
					c-0.24-2.146-0.435-4.259-0.57-6.306c-0.135-2.047-0.244-4.027-0.279-5.905c-0.05-1.878-0.058-3.653-0.047-5.291
					c0.041-6.553,0.412-10.903,0.412-10.903L52.193,250.552z"/>
			</g>
			<g>
				<path fill="#D8A98F" d="M45.597,215.07c0,0,0.405-0.685,1.411-1.338c0.255-0.149,0.534-0.333,0.858-0.458
					c0.318-0.152,0.674-0.251,1.05-0.342c0.375-0.089,0.777-0.137,1.184-0.157c0.402,0.013,0.83-0.013,1.232,0.065
					c0.411,0.052,0.829,0.096,1.221,0.194c0.404,0.076,0.8,0.176,1.135,0.352c0.334,0.18,0.671,0.349,0.922,0.589
					c0.263,0.224,0.491,0.464,0.694,0.686c0.213,0.211,0.356,0.461,0.489,0.67c0.128,0.216,0.232,0.409,0.307,0.577
					c0.154,0.332,0.21,0.549,0.21,0.549l-0.152,0.178c0,0-0.234-0.01-0.585-0.075c-0.362-0.048-0.805-0.208-1.327-0.356
					c-0.259-0.077-0.533-0.161-0.8-0.279c-0.269-0.121-0.556-0.201-0.826-0.349c-0.264-0.156-0.536-0.318-0.813-0.482
					c-0.275-0.188-0.57-0.316-0.877-0.427c-0.304-0.137-0.619-0.175-0.932-0.261c-0.312-0.045-0.628-0.101-0.934-0.109
					c-0.308-0.011-0.609,0-0.895,0.038c-0.292,0.016-0.557,0.095-0.81,0.151c-1.001,0.292-1.591,0.741-1.591,0.741L45.597,215.07z"
					/>
			</g>
			<g>
				<path fill="#D8A98F" d="M42.71,231.926c0,0,0.263-1.179,0.901-2.874c0.314-0.851,0.721-1.832,1.238-2.854
					c0.274-0.502,0.523-1.044,0.86-1.549c0.313-0.52,0.647-1.04,1.025-1.538c0.338-0.526,0.755-1,1.146-1.493
					c0.372-0.507,0.868-0.912,1.315-1.322c0.489-0.368,1.026-0.659,1.525-0.914c0.541-0.205,1.062-0.366,1.538-0.493
					c0.502-0.072,0.966-0.088,1.362-0.105c0.393-0.039,0.754,0.096,1.031,0.142c0.56,0.129,0.851,0.247,0.851,0.247l-0.008,0.234
					c0,0-0.302,0.157-0.78,0.355c-0.117,0.047-0.247,0.1-0.389,0.157c-0.141,0.039-0.288,0.106-0.437,0.207
					c-0.303,0.171-0.633,0.352-0.988,0.522c-0.334,0.247-0.694,0.482-1.077,0.711c-0.346,0.317-0.747,0.568-1.145,0.872
					c-0.382,0.335-0.847,0.586-1.261,0.95c-0.426,0.345-0.856,0.708-1.243,1.126c-0.401,0.402-0.771,0.839-1.125,1.282
					c-0.369,0.43-0.69,0.893-1.024,1.324c-0.634,0.887-1.206,1.744-1.662,2.502c-0.909,1.52-1.432,2.591-1.432,2.591L42.71,231.926z
					"/>
			</g>
			<g>
				<path fill="#D8A98F" d="M47.571,356.306c0,0,0.11,0.914,0.304,2.512c0.156,1.607,0.376,3.907,0.503,6.671
					c0.142,2.764,0.23,5.994,0.226,9.449c-0.006,3.45-0.012,7.129-0.019,10.809c0.015,1.836,0.026,3.67,0.09,5.471
					c0.069,1.801,0.105,3.57,0.196,5.275c0.034,1.712,0.135,3.339,0.256,4.859c0.131,1.541,0.33,3,0.509,4.35
					c0.376,2.701,0.808,4.949,1.077,6.538c0.304,1.584,0.478,2.489,0.478,2.489l-0.221,0.078c0,0-0.436-0.826-1.047-2.334
					c-0.319-0.75-0.668-1.674-1.036-2.747c-0.354-1.077-0.748-2.298-1.087-3.657c-0.345-1.358-0.684-2.842-0.92-4.442
					c-0.262-1.618-0.405-3.319-0.445-5.056c-0.03-1.742-0.027-3.537,0.049-5.358c0.076-1.816,0.153-3.662,0.23-5.507
					c0.359-7.367,0.774-14.694,0.846-20.202c0.049-2.755-0.024-5.046-0.077-6.651c-0.091-1.608-0.143-2.526-0.143-2.526
					L47.571,356.306z"/>
			</g>
			<g>
				<path fill="#D8A98F" d="M17.511,329.098c0,0-0.119,2.248-0.299,5.62c-0.142,3.373-0.382,7.862-0.475,12.35
					c-0.063,2.243,0.018,4.488-0.034,6.583c-0.037,1.047-0.071,2.058-0.159,3.017c-0.061,0.958-0.122,1.864-0.206,2.702
					c-0.131,1.673-0.297,3.076-0.401,4.06c-0.111,0.985-0.216,1.558-0.216,1.558l-0.233,0.018c0,0-0.168-0.551-0.389-1.531
					c-0.115-0.49-0.239-1.088-0.338-1.775c-0.096-0.687-0.224-1.467-0.296-2.316c-0.166-1.7-0.261-3.688-0.198-5.81
					c0.054-1.059,0.132-2.154,0.256-3.262c0.114-1.107,0.23-2.232,0.345-3.357c0.459-4.495,0.994-8.973,1.514-12.317
					c0.491-3.346,0.896-5.566,0.896-5.566L17.511,329.098z"/>
			</g>
			<g>
				<path fill="#D8A98F" d="M57.895,368.257c0,0,0.198,5.076,0.397,10.153c0.054,1.264,0.23,2.524,0.264,3.7
					c-0.002,0.589-0.004,1.155-0.056,1.695c-0.041,0.541-0.076,1.047-0.137,1.52c-0.109,0.942-0.238,1.736-0.346,2.296
					c-0.103,0.561-0.202,0.895-0.202,0.895l-0.232,0.033c0,0-0.172-0.296-0.4-0.839c-0.122-0.271-0.237-0.604-0.354-0.989
					c-0.113-0.385-0.247-0.824-0.335-1.302c-0.208-0.958-0.36-2.083-0.375-3.286c0.009-1.204,0.199-2.483,0.301-3.756
					c0.191-2.55,0.487-5.085,0.762-6.98c0.255-1.896,0.48-3.155,0.48-3.155L57.895,368.257z"/>
			</g>
			<g>
				<path fill="#D8A98F" d="M63.398,345.537c0,0,0.696,3.503,1.392,7.005c0.167,0.869,0.482,1.71,0.622,2.51
					c0.125,0.804,0.153,1.554,0.14,2.211c0.01,0.319-0.001,0.616-0.014,0.891c-0.003,0.256-0.004,0.486-0.019,0.692
					c0.01,0.401,0.016,0.63,0.016,0.63l-0.18,0.149c0,0-0.056-0.032-0.16-0.093c-0.101-0.063-0.271-0.173-0.439-0.336
					c-0.152-0.159-0.333-0.367-0.52-0.622c-0.157-0.249-0.344-0.539-0.503-0.867c-0.316-0.645-0.594-1.425-0.729-2.272
					c-0.117-0.851-0.042-1.777-0.075-2.68c-0.06-1.808-0.012-3.61,0.072-4.96c0.065-1.349,0.162-2.248,0.162-2.248L63.398,345.537z"
					/>
			</g>
		</g>
		<use xlink:href="#SVGID_3_"  overflow="visible" fill="none" stroke="#996D50" stroke-width="2.34" stroke-miterlimit="10"/>
	</g>
	<g>
		<path fill="#E6A56A" stroke="#AA6F42" stroke-width="2.34" stroke-miterlimit="10" d="M327.607,76.561
			c0,0,4.165-6.143,9.517-8.922c0.58-0.301,9.8-9.511,12.441-8.966c2.641,0.545,2.96,2.295-0.756,7.91c0,0-0.571,5.814-0.739,9.08
			c-0.225,4.391-6.907,7.419-6.907,7.419L327.607,76.561z"/>

			<path fill="#FBCBCC" stroke="#CC9998" stroke-width="1.755" stroke-linecap="round" stroke-linejoin="round" stroke-miterlimit="10" d="
			M334.644,77.624c4.92-0.475,7.935-2.679,10.086-5.193c0,0,0.758,6.489-5.645,8.635L334.644,77.624z"/>
		<path fill="none" stroke="#AA6F42" stroke-width="2.34" stroke-miterlimit="10" d="M334.351,77.628
			c10.808-1.043,12.419-10.429,15.888-13.115"/>
	</g>
	<g>
		<defs>
			<path id="SVGID_5_" d="M236.604,304.08c0,0-7.609,76.174-5.171,82.572s10.257,20.32,10.257,20.32l5.002,20.986
				c0,0,17.079,7.344,31.866,2.672c1.664-0.526,2.197-2.617,0.983-3.87c-2.77-2.859-5.098-8.582-7.859-9.716
				c0,0,2.286-3.545-3.653-9.305c-5.939-5.76-16.718-21.976-16.718-21.976l5.106-48.638c0,0,14.462-10.753,17.154-26.005
				c2.692-15.253,15.924-68.111,15.924-68.111l-40.27,6.467L236.604,304.08z"/>
		</defs>
		<use xlink:href="#SVGID_5_"  overflow="visible" fill="#E6A56A"/>
		<clipPath id="SVGID_6_">
			<use xlink:href="#SVGID_5_"  overflow="visible"/>
		</clipPath>

			<path clip-path="url(#SVGID_6_)" fill="#353451" stroke="#61607C" stroke-width="2.34" stroke-linecap="round" stroke-linejoin="round" stroke-miterlimit="10" d="
			M283.858,409.837c0,0-13.823,14.253-61.13,19.658c0,0,12.164,30.237,17.428,30.156c5.264-0.081,64.35-0.4,64.35-0.4l-1.797-40.927
			L283.858,409.837z"/>
		<use xlink:href="#SVGID_5_"  overflow="visible" fill="none" stroke="#AA6F42" stroke-width="2.34" stroke-miterlimit="10"/>
	</g>
	<g>
		<defs>
			<path id="SVGID_7_" d="M382.863,150.895c0,0,2.85-4.919-1.292-7.976l-5.915-4.2l-34.741-52.708l-43.401-6.941
				c0,0-32.57,50.814-37.187,54.98s-20.069,26.635-36.951,32.159s-18.645,7.194-35.591,6.396
				c-29.515-1.391-88.252-14.597-123.45,29.339c-9.773,12.199-15.524,27.28-15.807,42.908c0,0-4.433,19.467,20.51,43.657
				c0,0,18.058,33.072,22.962,47.623c0,0,0.176,20.915,5.073,25.665c5.939,5.76,7.243,14.516,7.243,14.516
				s6.172,20.968,9.284,33.206c3.113,12.239,4.966,18.646,10.878,22.651c0,0-1.576,11.725,0.791,13.444
				c2.367,1.719,31.648,3.611,31.568-1.654l-11.32-13.283c0,0,1.602-9.971-7.882-18.016c-11.426-9.693-18.193-41.846-18.291-48.28
				c-0.099-6.434-0.331-21.642-0.331-21.642c0.014-4.115,2.187-12.902-5.011-21.57c0,0-4.48-25.089-1.815-42.096
				c0,0,6.47,2.241,10.52-0.746c0,0,43.741,29.168,71.844,30.493s66.935-22.672,66.935-22.672l29.574-55.448l24.319-54.783
				c0,0,1.495-16.99,9.081-18.276c0,0,8.27,5.139,15.891,6.192c0,0,5.93,5.175,8.863,5.715c0,0,1.844,5.822,5.948,6.345
				c4.103,0.522,5.867,1.08,10.511-1.331c0,0,9.359-0.143,10.502-1.916s2.844-5.309,2.844-5.309s5.228-2.42,5.148-7.685
				C384.087,154.387,382.863,150.895,382.863,150.895z"/>
		</defs>
		<use xlink:href="#SVGID_7_"  overflow="visible" fill="#E6A56A"/>
		<clipPath id="SVGID_8_">
			<use xlink:href="#SVGID_7_"  overflow="visible"/>
		</clipPath>

			<path clip-path="url(#SVGID_8_)" fill="#353451" stroke="#61607C" stroke-width="2.34" stroke-linecap="round" stroke-linejoin="round" stroke-miterlimit="10" d="
			M115.283,430.165c0,0,15.717,7.56,38.227,0.195l34.526,25.994l-59.483,12.612L115.283,430.165z"/>
		<use xlink:href="#SVGID_7_"  overflow="visible" fill="none" stroke="#AA6F42" stroke-width="2.34" stroke-miterlimit="10"/>
	</g>
	<g>
		<defs>
			<path id="SVGID_9_" d="M232.414,259.68c0,0,0.221,52.652,1.543,62.578s4.93,16.306,5.02,22.155
				c0.09,5.849-0.127,35.535-2.208,46.839c-2.701,14.668-7.255,22.928,4.011,32.702c0,0-0.773,18.547,0.296,19.302
				c6.802,4.806,28.191,4.863,35.078,2.135c1.686-0.668,2.492-2.561,1.647-4.165c-1.796-3.406-5.187-7.538-8.837-10.683
				c0,0,1.638-7.631-1.358-12.265c-2.996-4.635-7.774-10.997-12.039-22.048c0.589-16.995,2.36-36.895,2.36-36.895
				s6.327-7.118,6.795-14.731s3.972-46.28,6.78-53.929s12.286-38.217,15.473-59.328"/>
		</defs>
		<use xlink:href="#SVGID_9_"  overflow="visible" fill="#E6A56A"/>
		<clipPath id="SVGID_10_">
			<use xlink:href="#SVGID_9_"  overflow="visible"/>
		</clipPath>

			<path clip-path="url(#SVGID_10_)" fill="#353451" stroke="#61607C" stroke-width="2.34" stroke-linecap="round" stroke-linejoin="round" stroke-miterlimit="10" d="
			M226.625,416.564c0,0,12.552,17.36,74.509,13.485c0,0,27.578,43.457,25.23,42.908c-2.349-0.549-101.218-0.205-101.848-3.121
			C223.886,466.921,226.625,416.564,226.625,416.564z"/>
		<use xlink:href="#SVGID_9_"  overflow="visible" fill="none" stroke="#AA6F42" stroke-width="2.34" stroke-miterlimit="10"/>
	</g>
	<g>
		<path fill="#F4DAC6" stroke="#996D50" stroke-width="2.34" stroke-miterlimit="10" d="M311.544,78.27c0,0,2.996,4.635,3.626,7.55
			c0.63,2.916,2.903,13.367,12.948,24.082c8.922,9.517,24.745,30.337,24.745,30.337s0.207-5.561-5.475-13.665
			c0,0,11.594,12.109,23.049,15.151c0,0,2.277-4.13-0.76-11.397c0,0,0.792-5.57-1.673-13.723c0,0,5.399,8.693,7.468,10.124
			c0,0,1.967-5.296-4.323-14.853c0,0,2.056,0.554,3.518,0.531c0,0,0.522-4.103-5.12-9.575c-5.642-5.472-7.423-7.2-12.764-12.091
			c-5.34-4.891-23.692-18.944-38.865-16.372L311.544,78.27z"/>
		<g>
			<g>
				<path fill="#D8A98F" d="M318.173,83.689c0,0,0.654,1.441,1.822,3.498c0.576,1.031,1.309,2.197,2.091,3.437
					c0.402,0.614,0.829,1.24,1.268,1.869c0.464,0.613,0.898,1.26,1.395,1.859c0.495,0.601,0.968,1.215,1.5,1.763
					c0.513,0.559,1.018,1.108,1.507,1.64c0.464,0.55,0.913,1.082,1.338,1.586c0.429,0.502,0.806,1.011,1.193,1.441
					c0.381,0.437,0.713,0.864,1.01,1.244c0.312,0.361,0.586,0.68,0.803,0.958c0.439,0.549,0.673,0.903,0.673,0.903l-0.136,0.191
					c0,0-0.392-0.13-1.049-0.428c-0.329-0.148-0.725-0.337-1.17-0.574c-0.421-0.263-0.9-0.563-1.403-0.918
					c-0.522-0.336-1.018-0.775-1.546-1.239c-0.548-0.447-1.057-0.984-1.555-1.565c-0.507-0.574-0.962-1.22-1.397-1.893
					c-0.454-0.66-0.879-1.349-1.305-2.037c-0.444-0.675-0.819-1.392-1.223-2.072c-0.379-0.696-0.744-1.384-1.084-2.055
					c-0.323-0.68-0.662-1.322-0.923-1.96c-0.278-0.63-0.524-1.232-0.742-1.79c-0.893-2.225-1.289-3.777-1.289-3.777L318.173,83.689z
					"/>
			</g>
			<g>
				<path fill="#D8A98F" d="M321.961,84.753c0,0,0.848,0.569,2.039,1.526c1.204,0.944,2.749,2.284,4.185,3.753
					c0.716,0.735,1.505,1.425,2.102,2.194c0.281,0.398,0.551,0.782,0.746,1.192c0.207,0.401,0.393,0.784,0.533,1.157
					c0.275,0.751,0.449,1.395,0.497,1.88c0.065,0.474,0.061,0.757,0.061,0.757l-0.21,0.104c0,0-0.241-0.162-0.591-0.465
					c-0.182-0.148-0.368-0.342-0.605-0.55c-0.228-0.213-0.485-0.451-0.734-0.724c-0.531-0.531-1.103-1.165-1.654-1.897
					c-0.26-0.377-0.523-0.774-0.766-1.199c-0.25-0.42-0.536-0.824-0.809-1.241c-1.167-1.606-2.402-3.186-3.342-4.37
					c-0.965-1.166-1.609-1.944-1.609-1.944L321.961,84.753z"/>
			</g>
			<g>
				<path fill="#D8A98F" d="M324.711,78.829c0,0,0.387-0.057,1.062-0.078c0.678-0.029,1.642,0.032,2.797,0.17
					c0.574,0.083,1.201,0.171,1.851,0.316c0.661,0.115,1.332,0.322,2.039,0.507c0.697,0.21,1.416,0.442,2.134,0.71
					c0.703,0.297,1.446,0.552,2.144,0.896c0.706,0.326,1.432,0.627,2.111,0.984c0.682,0.351,1.379,0.67,1.978,1.088
					c0.601,0.415,1.176,0.827,1.687,1.261c0.502,0.445,0.962,0.88,1.373,1.297c0.841,0.81,1.414,1.62,1.821,2.172
					c0.401,0.56,0.598,0.908,0.598,0.908l-0.156,0.174c0,0-0.381-0.145-0.991-0.448c-0.307-0.149-0.668-0.342-1.074-0.568
					c-0.396-0.239-0.858-0.486-1.35-0.763c-0.494-0.276-1.013-0.59-1.549-0.939c-0.561-0.311-1.128-0.668-1.701-1.059
					c-0.558-0.415-1.164-0.789-1.748-1.234c-0.581-0.451-1.23-0.804-1.855-1.209c-0.63-0.398-1.302-0.707-1.943-1.062
					c-0.656-0.318-1.306-0.632-1.943-0.915c-1.284-0.543-2.512-0.995-3.592-1.301c-1.08-0.301-2.003-0.48-2.654-0.573
					c-0.652-0.093-1.025-0.102-1.025-0.102L324.711,78.829z"/>
			</g>
			<g>
				<path fill="#D8A98F" d="M356.525,106.174c0,0,1.358,1.35,3.101,3.626c0.874,1.135,1.869,2.485,2.828,4.002
					c0.493,0.751,0.979,1.541,1.458,2.354c0.498,0.803,0.945,1.651,1.417,2.488c0.477,0.834,0.892,1.701,1.352,2.531
					c0.443,0.839,0.829,1.688,1.188,2.516c0.338,0.837,0.604,1.67,0.836,2.464c0.255,0.787,0.413,1.558,0.565,2.265
					c0.148,0.708,0.284,1.356,0.351,1.943c0.071,0.587,0.123,1.099,0.153,1.523c0.066,0.847,0.061,1.337,0.061,1.337l-0.227,0.058
					c0,0-0.261-0.422-0.643-1.172c-0.194-0.374-0.414-0.831-0.655-1.356c-0.226-0.53-0.541-1.106-0.82-1.754
					c-0.299-0.64-0.577-1.348-0.915-2.078c-0.345-0.728-0.639-1.52-0.971-2.328c-0.33-0.809-0.617-1.668-0.93-2.535
					c-0.329-0.859-0.658-1.738-1.029-2.597c-0.383-0.854-0.742-1.722-1.154-2.548c-0.393-0.836-0.796-1.652-1.209-2.429
					c-0.393-0.79-0.829-1.52-1.206-2.237c-0.396-0.705-0.773-1.372-1.138-1.977c-1.458-2.426-2.59-3.943-2.59-3.943L356.525,106.174
					z"/>
			</g>
		</g>
	</g>

		<ellipse transform="matrix(0.9924 -0.1232 0.1232 0.9924 -11.5712 40.3082)" fill="#231F20" cx="320.18" cy="113.729" rx="3.607" ry="6.532"/>

		<path fill="#353451" stroke="#61607C" stroke-width="1.7316" stroke-linecap="round" stroke-linejoin="round" stroke-miterlimit="10" d="
		M362.37,149.844c0,0-1.978,10.951,4.865,12.017c0,0,0.717-4.106-0.674-5.84S362.37,149.844,362.37,149.844z"/>
	<g>
		<path fill="#61607C" d="M365.568,146.339c-0.747,0.424-1.457,0.935-2.039,1.534c-0.288,0.3-0.549,0.625-0.714,0.977
			c-0.086,0.173-0.155,0.353-0.185,0.53c-0.047,0.178-0.033,0.354-0.032,0.525l-0.094-0.245c0.979,1.085,1.892,2.209,2.774,3.377
			c0.439,0.585,0.864,1.183,1.272,1.804c0.208,0.306,0.402,0.627,0.596,0.95c0.19,0.33,0.386,0.652,0.552,1.012
			c0.176,0.35,0.32,0.728,0.439,1.152c0.093,0.336,0.161,0.713,0.224,1.111c0.102,0.753,0.119,1.496,0.12,2.236
			c-0.028,1.478-0.199,2.941-0.614,4.377c-0.014,0.048-0.064,0.076-0.112,0.062c-0.033-0.009-0.056-0.038-0.063-0.068
			c-0.335-1.443-0.547-2.864-0.777-4.259c-0.103-0.697-0.23-1.387-0.35-2.058l-0.194-1.008c-0.07-0.27-0.141-0.581-0.254-0.891
			c-0.42-1.26-1.135-2.513-1.867-3.719c-0.742-1.21-1.552-2.397-2.386-3.55l-0.041-0.057c-0.041-0.056-0.058-0.123-0.053-0.188
			c0.021-0.264,0.045-0.524,0.136-0.764c0.075-0.242,0.194-0.465,0.325-0.665c0.26-0.41,0.597-0.734,0.948-1.022
			c0.704-0.576,1.494-0.99,2.316-1.313c0.045-0.018,0.096,0.004,0.114,0.05C365.625,146.27,365.605,146.318,365.568,146.339z"/>
	</g>
	<g>
		<g>
			<path fill="#AA6F42" d="M79.003,244.434c0,0,1.534,3.411,4.489,8.148c0.732,1.187,1.569,2.444,2.471,3.759
				c0.924,1.3,1.887,2.676,2.965,4.036c1.055,1.377,2.224,2.736,3.437,4.085c1.228,1.335,2.52,2.648,3.888,3.87
				c0.685,0.609,1.373,1.214,2.095,1.767c0.699,0.584,1.44,1.102,2.174,1.615c0.717,0.538,1.504,0.951,2.224,1.444
				c0.748,0.447,1.503,0.858,2.243,1.262c1.497,0.772,2.971,1.457,4.414,1.997c1.443,0.54,2.85,0.931,4.168,1.224
				c0.666,0.124,1.304,0.243,1.911,0.357c0.617,0.066,1.202,0.129,1.753,0.187c0.553,0.091,1.073,0.054,1.556,0.079
				c0.486,0.021,0.933,0.04,1.337,0.057c1.606-0.094,2.556-0.108,2.556-0.108l0.048,0.229c0,0-0.894,0.279-2.514,0.697
				c-0.818,0.125-1.821,0.343-2.989,0.413c-0.587,0.021-1.211,0.043-1.87,0.067c-0.658-0.015-1.351-0.073-2.076-0.129
				c-1.443-0.15-3.003-0.439-4.6-0.928c-1.607-0.459-3.228-1.163-4.842-1.992c-0.782-0.457-1.574-0.929-2.354-1.433
				c-0.756-0.538-1.547-1.051-2.267-1.661c-0.736-0.591-1.476-1.185-2.175-1.83c-0.722-0.62-1.402-1.286-2.077-1.955
				c-1.357-1.332-2.622-2.745-3.816-4.173c-1.178-1.44-2.304-2.882-3.312-4.333c-2.055-2.875-3.723-5.716-5.056-8.193
				c-2.674-4.955-3.996-8.468-3.996-8.468L79.003,244.434z"/>
		</g>
		<g>
			<path fill="#AA6F42" d="M311.994,138.494c0,0,0.567,1.504,1.627,3.653c0.282,0.529,0.557,1.115,0.902,1.706
				c0.333,0.598,0.672,1.23,1.064,1.862c0.367,0.645,0.802,1.277,1.227,1.925c0.426,0.648,0.918,1.262,1.375,1.897
				c0.515,0.589,0.992,1.208,1.53,1.751c0.559,0.521,1.039,1.098,1.571,1.577c0.52,0.49,0.956,1.041,1.441,1.479
				c0.235,0.23,0.464,0.453,0.686,0.67c0.215,0.227,0.419,0.455,0.645,0.63c0.438,0.372,0.828,0.743,1.18,1.076
				c0.356,0.323,0.7,0.558,0.964,0.796c0.541,0.454,0.848,0.759,0.848,0.759l-0.091,0.216c0,0-0.412-0.052-1.13-0.224
				c-0.356-0.092-0.807-0.183-1.286-0.369c-0.467-0.204-1.001-0.439-1.57-0.729c-0.581-0.274-1.118-0.697-1.722-1.109
				c-0.627-0.39-1.139-0.958-1.716-1.499c-0.572-0.549-1.02-1.234-1.519-1.887c-0.474-0.672-0.912-1.378-1.368-2.068
				c-0.408-0.719-0.849-1.416-1.217-2.136c-0.367-0.721-0.743-1.419-1.048-2.124c-0.325-0.694-0.62-1.372-0.866-2.028
				c-0.265-0.648-0.462-1.281-0.67-1.853c-0.78-2.309-1.081-3.907-1.081-3.907L311.994,138.494z"/>
		</g>
		<g>
			<path fill="#AA6F42" d="M342.446,152.87c0.208,1.151,0.588,2.274,1.061,3.331c0.482,1.054,1.088,2.045,1.837,2.891
				c0.746,0.847,1.612,1.566,2.582,2.084c0.966,0.525,2.031,0.837,3.116,0.994l0.365,0.053l0.227,0.383
				c0.2,0.337,0.441,0.708,0.676,1.055c0.24,0.351,0.488,0.698,0.744,1.039c0.515,0.679,1.057,1.337,1.63,1.962
				c1.159,1.241,2.411,2.359,3.689,3.4c0.641,0.519,1.3,1.01,1.983,1.467c0.35,0.21,0.698,0.43,1.057,0.627
				c0.354,0.212,0.727,0.379,1.099,0.556c0.746,0.354,1.532,0.618,2.345,0.849c0.41,0.094,0.824,0.212,1.25,0.27
				c0.426,0.098,0.858,0.121,1.303,0.195l0.026,0.233c-0.432,0.121-0.875,0.266-1.329,0.325c-0.454,0.078-0.915,0.117-1.381,0.131
				c-0.461-0.009-0.937,0.005-1.399-0.068c-0.468-0.049-0.928-0.141-1.391-0.239c-0.451-0.127-0.911-0.248-1.35-0.418
				c-0.451-0.148-0.873-0.353-1.302-0.551c-0.845-0.414-1.647-0.907-2.398-1.46c-1.5-1.117-2.736-2.512-3.826-3.971
				c-0.55-0.728-1.067-1.475-1.549-2.244c-0.244-0.382-0.478-0.771-0.705-1.164c-0.227-0.399-0.439-0.783-0.655-1.22l0.591,0.436
				c-1.241-0.287-2.454-0.76-3.52-1.462c-1.068-0.697-1.993-1.593-2.7-2.619c-0.72-1.018-1.245-2.142-1.628-3.294
				c-0.381-1.154-0.619-2.342-0.681-3.548L342.446,152.87z"/>
		</g>
		<g>
			<path fill="#AA6F42" d="M371.114,153.373c0,0,0.353,0.484,0.751,1.28c0.414,0.791,0.88,1.904,1.148,3.097
				c0.127,0.594,0.363,1.202,0.363,1.795c-0.006,0.589-0.183,1.139-0.41,1.577c-0.227,0.442-0.487,0.776-0.732,0.983
				c-0.227,0.211-0.394,0.307-0.394,0.307l-0.223-0.071c0,0-0.094-0.18-0.193-0.453c-0.054-0.138-0.098-0.295-0.151-0.471
				c-0.055-0.177-0.12-0.372-0.157-0.573c-0.033-0.2-0.107-0.422-0.128-0.643c-0.027-0.222-0.054-0.456-0.048-0.697
				c0.03-0.479,0.197-1.014,0.212-1.557c0.023-0.543,0.006-1.092-0.004-1.616c-0.021-0.522-0.046-1.018-0.082-1.444
				c-0.08-0.852-0.168-1.426-0.168-1.426L371.114,153.373z"/>
		</g>
	</g>
	<g>
		<defs>
			<path id="SVGID_11_" d="M255.33,247.043c0,0,2.807,11.366,4.935,16.599c1.583,3.892,2.68,7.791,3.138,9.534
				c0.144,0.548,0.67,0.88,1.225,0.769c3.568-0.709,15.83-3.791,20.163-13.312l1.192,1.444c0,0,9.778-10.973,10.769-22.69
				c0.991-11.716,3.007-13.795,3.007-13.795l0.141,9.2c0.012,0.792,1.006,1.134,1.495,0.511c2.402-3.061,5.396-8.941,5.834-18.601
				l1.964,6.275c0.178,0.57,0.966,0.626,1.212,0.082c0.776-1.713,1.926-4.521,2.088-6.437c0.248-2.929,1.337-8.211,1.337-8.211
				l1.246,4.954c0,0,2.02-1.786,3.101-7.653c0.545-2.962,6.359-24.085-8.607-65.395c-1.844-5.822-2.555-14.002-6.23-24.77
				c-2.392-7.008-5.15-13.638-6.784-17.414c-0.984-2.274-1.462-4.72-1.381-7.197c0.141-4.295,0.639-10.693,2.341-11.866
				c2.605-1.795,6.668-3.905,6.668-3.905s-7.667-3.978-14.034,0.507c-6.367,4.485-18.04,25.434-18.04,25.434
				s-8.778-0.158-14.997,13.979c-6.219,14.137-16.551,27.166-16.551,27.166s-5.836,0.967-9.557,6.289
				c-3.639,5.205-5.541,14.301-41.128,19.074c-1.053,0.141-1.326,1.571-0.367,2.028c2.274,1.083,6.897,1.997,16.081,0.35
				c0,0-21.132,9.72-19.405,42.456c0.031,0.586,0.841,0.707,1.015,0.147c2.005-6.44,7.615-22.367,15.406-27.345
				c0,0-4.079,9.448-2.539,16.637c0.154,0.72,1.197,0.733,1.386,0.021c1.037-3.905,3.271-11.495,5.581-14.094
				c0,0,0.327,38.836,18.684,50.616c0.807,0.518,1.805-0.351,1.416-1.227l-4.004-10.729c0,0,5.984,8.684,12.516,15.02
				c4.601,4.462,4.45,17.275,20.763,26.793c1.15,0.671,2.534-0.438,2.124-1.705C257.123,262.226,255.33,247.043,255.33,247.043z"/>
		</defs>
		<use xlink:href="#SVGID_11_"  overflow="visible" fill="#F4DAC6"/>
		<clipPath id="SVGID_12_">
			<use xlink:href="#SVGID_11_"  overflow="visible"/>
		</clipPath>
		<g clip-path="url(#SVGID_12_)">
			<g>
				<path fill="#D8A98F" d="M232.22,163.175c0,0-0.793,4.117-1.418,10.361c-0.163,1.559-0.301,3.252-0.427,5.043
					c-0.117,1.791-0.239,3.678-0.304,5.633c-0.062,1.954-0.109,3.973-0.074,6.022c0.013,2.049,0.109,4.127,0.241,6.199
					c0.159,2.07,0.362,4.133,0.672,6.144c0.325,2.007,0.64,3.981,1.086,5.853c0.099,0.471,0.197,0.938,0.294,1.4
					c0.114,0.457,0.227,0.91,0.339,1.359c0.202,0.904,0.464,1.766,0.702,2.612c0.219,0.855,0.52,1.651,0.787,2.433
					c0.238,0.795,0.563,1.521,0.845,2.234c0.271,0.72,0.596,1.375,0.895,2.008c0.15,0.317,0.295,0.626,0.437,0.926
					c0.163,0.288,0.32,0.568,0.473,0.84c0.579,1.113,1.203,2.008,1.696,2.772c0.485,0.771,0.992,1.276,1.269,1.684
					c0.298,0.393,0.458,0.602,0.458,0.602l-0.16,0.171c0,0-0.204-0.168-0.587-0.482c-0.371-0.327-0.971-0.767-1.61-1.445
					c-0.323-0.339-0.682-0.715-1.071-1.124c-0.394-0.411-0.73-0.919-1.141-1.431c-0.198-0.262-0.402-0.533-0.612-0.811
					c-0.185-0.294-0.376-0.596-0.572-0.907c-0.393-0.622-0.822-1.272-1.167-2c-0.769-1.421-1.478-3.025-2.091-4.764
					c-0.315-0.868-0.625-1.765-0.865-2.701c-0.28-0.927-0.504-1.888-0.704-2.87c-0.402-1.964-0.688-4.011-0.877-6.095
					c-0.107-1.041-0.151-2.093-0.238-3.146c-0.042-1.054-0.085-2.112-0.128-3.17c-0.046-2.115-0.054-4.228,0.019-6.304
					c0.051-2.076,0.184-4.115,0.329-6.084c0.156-1.968,0.334-3.867,0.561-5.661c0.227-1.794,0.461-3.486,0.712-5.042
					c0.977-6.23,2.002-10.306,2.002-10.306L232.22,163.175z"/>
			</g>
			<g>
				<path fill="#D8A98F" d="M267.817,133.955c0,0-0.547-2.091-1.085-5.289c-0.56-3.194-1.065-7.505-1.087-11.881
					c-0.011-1.094,0.007-2.191,0.059-3.277c0.037-1.086,0.148-2.159,0.325-3.19c0.192-1.029,0.459-2.017,0.793-2.929
					c0.185-0.453,0.348-0.896,0.538-1.316c0.216-0.411,0.4-0.813,0.622-1.183c0.427-0.746,0.916-1.376,1.37-1.904
					c0.248-0.247,0.48-0.479,0.694-0.693c0.222-0.204,0.46-0.359,0.654-0.512c0.384-0.313,0.755-0.469,0.984-0.593
					c0.234-0.116,0.358-0.178,0.358-0.178l0.135,0.191c0,0-0.084,0.108-0.241,0.31c-0.149,0.208-0.404,0.46-0.64,0.86
					c-0.266,0.368-0.532,0.851-0.822,1.396c-0.128,0.282-0.265,0.582-0.409,0.899c-0.14,0.315-0.243,0.673-0.389,1.02
					c-0.247,0.72-0.472,1.515-0.69,2.363c-0.184,0.861-0.389,1.765-0.562,2.719c-0.182,0.952-0.379,1.941-0.54,2.962
					c-0.177,1.018-0.275,2.069-0.369,3.123c-0.338,4.224-0.138,8.51,0.044,11.717c0.217,3.208,0.487,5.342,0.487,5.342
					L267.817,133.955z"/>
			</g>
			<g>
				<path fill="#D8A98F" d="M295.14,107.739c0,0,1.579,4.424,3.676,11.151c1.053,3.363,2.224,7.305,3.37,11.562
					c0.547,2.135,1.165,4.328,1.697,6.582c0.542,2.251,1.119,4.533,1.6,6.839c0.255,1.15,0.51,2.3,0.764,3.445
					c0.228,1.152,0.455,2.299,0.681,3.438c0.216,1.141,0.473,2.265,0.643,3.392c0.171,1.127,0.34,2.24,0.506,3.335
					c0.337,2.188,0.483,4.335,0.618,6.364c0.192,2.023,0.137,3.963,0.149,5.738c0.054,1.775-0.141,3.412-0.256,4.852
					c-0.067,0.719-0.129,1.392-0.187,2.014c-0.086,0.62-0.233,1.185-0.329,1.695c-0.411,2.04-0.686,3.18-0.686,3.18l-0.23-0.042
					c0,0,0.009-1.189,0.098-3.224c0.012-0.51,0.057-1.069,0.047-1.682c-0.025-0.615-0.051-1.279-0.08-1.989
					c-0.055-1.418-0.052-3.006-0.248-4.746c-0.173-1.738-0.247-3.617-0.533-5.601c-0.261-1.983-0.441-4.078-0.78-6.239
					c-0.134-1.084-0.27-2.185-0.408-3.301c-0.16-1.114-0.322-2.242-0.485-3.378c-0.169-1.137-0.339-2.283-0.509-3.433
					c-0.203-1.146-0.406-2.297-0.61-3.448c-0.391-2.305-0.88-4.593-1.335-6.851c-0.445-2.26-0.978-4.465-1.443-6.611
					c-1.003-4.274-1.961-8.262-2.842-11.666c-1.756-6.811-3.111-11.303-3.111-11.303L295.14,107.739z"/>
			</g>
			<g>
				<path fill="#D8A98F" d="M275.252,122.73c0,0-0.518-1.572-1.134-3.977c-0.645-2.4-1.323-5.644-1.803-8.95
					c-0.226-1.653-0.502-3.322-0.51-4.918c0.016-1.593,0.251-3.101,0.649-4.361c0.086-0.316,0.199-0.614,0.323-0.895
					c0.112-0.28,0.224-0.546,0.368-0.784c0.248-0.482,0.54-0.878,0.802-1.171c0.262-0.298,0.496-0.498,0.68-0.611
					c0.17-0.116,0.261-0.178,0.261-0.178l0.168,0.163c0,0-0.04,0.097-0.114,0.279c-0.036,0.086-0.081,0.192-0.134,0.317
					c-0.038,0.13-0.082,0.279-0.131,0.446c-0.06,0.154-0.084,0.352-0.127,0.551c-0.052,0.194-0.086,0.413-0.111,0.651
					c-0.077,0.461-0.113,0.997-0.145,1.58c-0.024,0.288-0.029,0.595-0.029,0.913c-0.021,0.313-0.018,0.644-0.019,0.981
					c-0.001,0.68-0.002,1.396-0.003,2.138c-0.035,1.489-0.13,3.11-0.063,4.735c0.109,3.251,0.487,6.512,0.757,8.962
					c0.298,2.447,0.542,4.077,0.542,4.077L275.252,122.73z"/>
			</g>
			<g>
				<path fill="#D8A98F" d="M265.312,110.066c0,0-0.979,1.1-2.404,3.247c-0.697,1.081-1.524,2.408-2.324,4.008
					c-0.835,1.581-1.613,3.446-2.325,5.517c-0.696,2.079-1.218,4.398-1.532,6.872c-0.203,2.481-0.29,5.12,0.172,7.792
					c0.417,2.708,1.006,5.511,1.626,8.331c0.641,2.823,1.363,5.652,2.283,8.431c0.934,2.87,1.499,5.932,1.644,8.888
					c0.209,2.871,0.502,5.684,0.882,8.399c0.317,2.723,0.765,5.336,1.19,7.815c0.433,2.478,0.908,4.811,1.381,6.959
					c0.952,4.295,1.916,7.846,2.607,10.334c0.33,1.249,0.664,2.207,0.841,2.878c0.19,0.668,0.292,1.024,0.292,1.024l-0.218,0.085
					c0,0-0.159-0.335-0.457-0.963c-0.293-0.63-0.733-1.552-1.234-2.75c-0.252-0.599-0.532-1.263-0.836-1.985
					c-0.278-0.733-0.579-1.525-0.9-2.372c-0.621-1.702-1.28-3.64-1.908-5.784c-0.326-1.069-0.613-2.196-0.938-3.357
					c-0.274-1.173-0.591-2.379-0.851-3.633c-0.571-2.499-0.997-5.171-1.386-7.941c-0.327-2.777-0.586-5.665-0.655-8.603
					c-0.013-2.86-0.457-5.67-1.245-8.451c-0.853-2.857-1.507-5.781-2.068-8.646c-0.543-2.876-1.05-5.695-1.394-8.472
					c-0.068-0.705-0.136-1.404-0.203-2.097c-0.05-0.693-0.011-1.383-0.02-2.063c0.001-0.34,0.002-0.678,0.004-1.014
					c0.019-0.335,0.06-0.668,0.089-0.998c0.069-0.66,0.123-1.314,0.208-1.954c0.425-2.549,1.058-4.907,1.853-7.003
					c1.594-4.193,3.596-7.364,5.096-9.475c1.52-2.105,2.555-3.18,2.555-3.18L265.312,110.066z"/>
			</g>
			<g>
				<path fill="#D8A98F" d="M240.922,196.368c0,0,0.008,0.654,0.091,1.797c0.082,1.142,0.207,2.773,0.468,4.716
					c0.121,0.972,0.276,2.021,0.47,3.126c0.168,1.108,0.412,2.264,0.635,3.463c0.26,1.192,0.533,2.422,0.849,3.661
					c0.354,1.229,0.643,2.495,1.071,3.719c0.404,1.231,0.794,2.464,1.295,3.636c0.232,0.591,0.463,1.177,0.69,1.756
					c0.247,0.57,0.491,1.132,0.731,1.685c0.222,0.56,0.454,1.105,0.652,1.652c0.238,0.528,0.471,1.044,0.682,1.556
					c0.438,1.015,0.819,1.995,1.258,2.857c0.421,0.871,0.779,1.691,1.103,2.418c0.369,0.698,0.685,1.315,0.936,1.833
					c0.507,1.033,0.768,1.656,0.768,1.656l-0.187,0.14c0,0-0.48-0.459-1.271-1.32c-0.398-0.429-0.869-0.962-1.404-1.583
					c-0.478-0.655-1.017-1.401-1.58-2.234c-0.271-0.422-0.6-0.839-0.855-1.315c-0.26-0.474-0.529-0.965-0.806-1.469
					c-0.281-0.503-0.557-1.027-0.831-1.566c-0.25-0.549-0.476-1.123-0.72-1.702c-0.227-0.585-0.469-1.175-0.682-1.784
					c-0.184-0.618-0.37-1.243-0.558-1.874c-0.391-1.255-0.713-2.548-1.023-3.842c-0.353-1.282-0.564-2.598-0.84-3.873
					c-0.237-1.284-0.432-2.554-0.614-3.78c-0.139-1.234-0.327-2.418-0.394-3.554c-0.101-1.132-0.166-2.203-0.204-3.193
					c-0.06-0.988-0.051-1.897-0.076-2.699c0.005-0.804-0.002-1.504,0.025-2.081c0.031-1.153,0.089-1.811,0.089-1.811
					L240.922,196.368z"/>
			</g>
			<g>
				<path fill="#D8A98F" d="M215.236,176.831c0.345-1.614,0.778-3.206,1.256-4.789c0.245-0.79,0.494-1.579,0.767-2.362
					c0.264-0.787,0.568-1.56,0.883-2.331c0.314-0.771,0.652-1.535,1.02-2.291c0.17-0.383,0.379-0.751,0.576-1.125
					c0.198-0.373,0.392-0.749,0.628-1.109c0.232-0.361,0.436-0.735,0.695-1.086l0.783-1.055l0.927-0.995
					c0.355-0.307,0.74-0.601,1.12-0.898l-0.406,0.403c0.485-0.971,0.993-1.928,1.552-2.855c0.55-0.933,1.161-1.829,1.771-2.727
					c0.62-0.891,1.264-1.769,1.934-2.631c0.685-0.854,1.38-1.702,2.159-2.5l0.202,0.118c-0.313,1.071-0.711,2.092-1.119,3.108
					c-0.423,1.007-0.871,1.999-1.344,2.977c-0.483,0.972-0.964,1.945-1.507,2.882c-0.533,0.942-1.118,1.855-1.726,2.753l-0.175,0.26
					l-0.231,0.144l-0.874,0.545l-0.83,0.73l-0.77,0.855c-0.256,0.288-0.474,0.622-0.715,0.931c-0.244,0.308-0.456,0.646-0.673,0.981
					c-0.215,0.336-0.442,0.664-0.637,1.017c-0.413,0.689-0.802,1.397-1.171,2.119c-1.482,2.884-2.763,5.908-3.874,8.994
					L215.236,176.831z"/>
			</g>
			<g>
				<path fill="#D8A98F" d="M205.313,176.944c0,0,0.672-1.104,1.796-2.68c0.559-0.791,1.224-1.707,1.978-2.658
					c0.749-0.956,1.585-1.947,2.462-2.911c0.422-0.498,0.868-0.975,1.301-1.456c0.422-0.491,0.883-0.937,1.346-1.347
					c0.461-0.408,0.969-0.748,1.453-1.051c0.469-0.321,0.98-0.553,1.429-0.776c0.44-0.236,0.911-0.364,1.297-0.5
					c0.198-0.06,0.382-0.116,0.553-0.168c0.181-0.03,0.348-0.058,0.499-0.083c0.599-0.09,0.939-0.094,0.939-0.094l0.083,0.219
					c0,0-0.243,0.261-0.664,0.634c-0.213,0.179-0.463,0.404-0.738,0.683c-0.279,0.27-0.602,0.533-0.936,0.87
					c-0.331,0.339-0.716,0.643-1.098,1.021c-0.376,0.383-0.815,0.719-1.249,1.112c-0.448,0.371-0.942,0.719-1.433,1.098
					c-0.5,0.366-0.987,0.766-1.47,1.175c-0.961,0.82-1.879,1.696-2.759,2.504c-0.862,0.83-1.667,1.605-2.357,2.268
					c-1.358,1.356-2.247,2.284-2.247,2.284L205.313,176.944z"/>
			</g>
			<g>
				<path fill="#D8A98F" d="M289.842,220.156c0,0,0.052,0.178,0.15,0.511c0.124,0.323,0.172,0.846,0.288,1.501
					c0.098,0.657,0.16,1.439,0.24,2.348c0.039,0.905,0.133,1.93,0.144,3.046c0.034,1.117,0.057,2.328,0.038,3.608
					c0.014,1.282-0.068,2.63-0.121,4.028c-0.062,1.397-0.186,2.837-0.29,4.303c-0.166,1.46-0.272,2.953-0.492,4.433
					c-0.197,1.484-0.39,2.97-0.658,4.425c-0.128,0.728-0.235,1.456-0.386,2.165c-0.17,0.707-0.337,1.405-0.502,2.092
					c-0.329,1.373-0.804,2.666-1.263,3.881c-0.409,1.231-1.006,2.329-1.485,3.355c-0.451,1.039-1.083,1.901-1.555,2.69
					c-0.251,0.386-0.486,0.748-0.703,1.082c-0.261,0.307-0.501,0.589-0.717,0.844c-0.855,1.017-1.369,1.556-1.369,1.556l-0.187-0.14
					c0,0,0.297-0.702,0.86-1.856c0.138-0.288,0.291-0.607,0.457-0.954c0.139-0.361,0.288-0.752,0.448-1.17
					c0.308-0.839,0.74-1.729,1.044-2.786c0.17-0.517,0.347-1.056,0.53-1.614c0.209-0.545,0.374-1.131,0.534-1.737
					c0.321-1.209,0.739-2.453,1.052-3.785c0.188-0.657,0.38-1.324,0.573-2c0.172-0.684,0.347-1.376,0.523-2.074
					c0.387-1.389,0.657-2.832,0.955-4.27c0.302-1.438,0.492-2.897,0.741-4.325c0.187-1.436,0.395-2.849,0.537-4.223
					c0.284-2.748,0.51-5.323,0.601-7.534c0.074-1.107,0.057-2.119,0.086-3.02c-0.014-0.894-0.014-1.687-0.048-2.319
					c-0.056-0.628-0.05-1.132-0.147-1.473c-0.069-0.341-0.105-0.524-0.105-0.524L289.842,220.156z"/>
			</g>
			<g>
				<path fill="#D8A98F" d="M294.113,193.227c0,0-0.312,2.89-0.401,7.226c-0.038,2.166,0.018,4.696,0.283,7.357
					c0.149,1.337,0.391,2.649,0.701,4.064c0.275,1.409,0.555,2.84,0.835,4.272c0.265,1.434,0.529,2.868,0.79,4.28
					c0.266,1.412,0.466,2.811,0.66,4.166c0.158,1.359,0.28,2.678,0.342,3.933c0.072,1.255,0.109,2.444,0.109,3.544
					c0.004,1.1-0.022,2.108-0.072,3.003c-0.042,0.894-0.119,1.674-0.198,2.314c-0.143,1.281-0.293,2.004-0.293,2.004l-0.234-0.005
					c0,0-0.03-0.181-0.086-0.521c-0.049-0.338-0.12-0.834-0.211-1.465c-0.187-1.253-0.454-3.044-0.774-5.192
					c-0.153-1.072-0.319-2.232-0.495-3.46c-0.188-1.227-0.348-2.523-0.51-3.866c-0.133-1.348-0.271-2.74-0.411-4.156
					c-0.132-1.418-0.297-2.855-0.468-4.291c-0.191-1.433-0.382-2.866-0.57-4.276c-0.219-1.393-0.401-2.864-0.468-4.24
					c-0.056-1.384-0.067-2.717-0.006-3.975c0.053-1.259,0.142-2.443,0.244-3.533c0.411-4.361,1.001-7.215,1.001-7.215
					L294.113,193.227z"/>
			</g>
			<g>
				<path fill="#D8A98F" d="M313.299,184.712c0,0,0.338,1.697,0.732,4.26c0.427,2.56,0.834,5.993,1.175,9.445
					c0.087,0.864,0.175,1.729,0.26,2.58c0.101,0.851,0.15,1.695,0.174,2.51c0.012,0.815-0.034,1.608-0.105,2.356
					c-0.057,0.748-0.17,1.458-0.275,2.108c-0.09,0.65-0.259,1.247-0.379,1.77c-0.127,0.523-0.268,0.976-0.409,1.345
					c-0.265,0.739-0.46,1.145-0.46,1.145l-0.25-0.036c0,0-0.097-0.449-0.189-1.207c-0.086-0.756-0.227-1.833-0.328-3.107
					c-0.069-0.641-0.1-1.328-0.148-2.06c-0.067-0.732-0.066-1.499-0.083-2.298c0.011-1.595,0.169-3.307,0.177-5.021
					c0.053-3.429-0.034-6.867-0.054-9.452c-0.053-2.586-0.089-4.309-0.089-4.309L313.299,184.712z"/>
			</g>
			<g>
				<path fill="#D8A98F" d="M274.914,238.528c0,0,0.404,1.158,0.873,2.933c0.487,1.771,1.035,4.165,1.407,6.601
					c0.183,1.217,0.45,2.438,0.509,3.602c0.007,0.583,0.017,1.144-0.057,1.68c-0.057,0.535-0.118,1.038-0.217,1.502
					c-0.2,0.927-0.425,1.686-0.664,2.204c-0.218,0.52-0.384,0.804-0.384,0.804l-0.232-0.03c0,0-0.106-0.32-0.219-0.857
					c-0.064-0.27-0.106-0.59-0.181-0.959c-0.066-0.368-0.142-0.78-0.191-1.226c-0.135-0.895-0.247-1.926-0.291-3.037
					c0-0.555,0.001-1.134,0.039-1.723c0.03-0.59,0.015-1.189,0.023-1.791c-0.072-2.399-0.23-4.813-0.363-6.628
					c-0.168-1.815-0.281-3.024-0.281-3.024L274.914,238.528z"/>
			</g>
		</g>
		<use xlink:href="#SVGID_11_"  overflow="visible" fill="none" stroke="#996D50" stroke-width="2.34" stroke-miterlimit="10"/>
	</g>
	<g>
		<path fill="#E6A56A" stroke="#AA6F42" stroke-width="2.34" stroke-miterlimit="10" d="M295.426,95.483
			c0,0-2.01-16.643,2.008-21.678c0,0,0.814-9.335,2.152-12.319c1.98-4.418,10.952-10.699,13.913-8.404
			c2.96,2.295,0.067,4.387,0.094,6.142c0.027,1.755,0.067,4.387,0.067,4.387s4.726,6.36,4.548,10.461
			c-0.216,4.976-5.976,10.915-5.976,10.915"/>

			<path fill="#FBCBCC" stroke="#CC9998" stroke-width="1.755" stroke-linecap="round" stroke-linejoin="round" stroke-miterlimit="10" d="
			M306.584,62.129c-0.513,1.05-0.848,2.189-0.83,3.359c0.072,4.679,4.723,13.677,0.309,20.18c0,0-0.459,0.6-0.956,1.563
			c0,0,6.311-1.938,7.6-9.856S306.584,62.129,306.584,62.129z"/>
		<g>
			<path fill="#AA6F42" d="M311.282,56.722c0,0-0.471,0.379-1.219,1.127c-0.726,0.759-1.79,1.856-2.69,3.388
				c-0.443,0.761-0.874,1.623-1.083,2.573c-0.227,0.946-0.2,1.923,0.023,3.024c0.198,1.04,0.524,2.186,0.85,3.331
				c0.328,1.15,0.667,2.335,0.956,3.546c0.308,1.206,0.529,2.451,0.698,3.701c0.138,1.255,0.196,2.531-0.001,3.77
				c-0.053,0.308-0.096,0.615-0.158,0.917c-0.081,0.3-0.172,0.594-0.263,0.884c-0.148,0.59-0.446,1.122-0.694,1.644
				c-0.244,0.526-0.613,0.968-0.901,1.425l-0.117,0.165l-0.029,0.041c-0.068,0.092-0.036,0.045-0.059,0.074l-0.049,0.054
				l-0.206,0.242c-0.137,0.168-0.27,0.34-0.394,0.513c-1.011,1.378-1.625,2.704-1.916,3.681c-0.156,0.489-0.233,0.892-0.277,1.17
				c-0.044,0.282-0.067,0.432-0.067,0.432l-0.233,0.023c0,0-0.038-0.154-0.11-0.442c-0.043-0.146-0.072-0.328-0.093-0.544
				c-0.032-0.218-0.057-0.469-0.051-0.752c-0.039-1.135,0.272-2.778,1.145-4.535c0.11-0.22,0.229-0.44,0.359-0.665l0.21-0.346
				l0.06-0.092c-0.005,0.005,0.047-0.065-0.005,0.001l0.018-0.037l0.073-0.15c0.187-0.404,0.453-0.777,0.598-1.225
				c0.139-0.449,0.357-0.873,0.445-1.362c0.057-0.239,0.116-0.479,0.186-0.719c0.039-0.25,0.078-0.503,0.118-0.758
				c0.184-1.015,0.224-2.115,0.225-3.249c-0.03-1.139-0.153-2.309-0.346-3.487c-0.193-1.177-0.439-2.356-0.685-3.534
				c-0.244-1.183-0.491-2.329-0.633-3.548c-0.15-1.148-0.12-2.424,0.26-3.493c0.347-1.076,0.905-1.961,1.449-2.728
				c1.109-1.529,2.282-2.551,3.108-3.237c0.838-0.675,1.358-1.009,1.358-1.009L311.282,56.722z"/>
		</g>
	</g>
</g>
</svg>
