<?xml version="1.0" encoding="utf-8"?>
<!-- Generator: Adobe Illustrator 18.1.1, SVG Export Plug-In . SVG Version: 6.00 Build 0)  -->
<svg version="1.1" id="Layer_1" xmlns="http://www.w3.org/2000/svg" xmlns:xlink="http://www.w3.org/1999/xlink" x="0px" y="0px"
	 width="500px" height="500px" viewBox="0 0 500 500" enable-background="new 0 0 500 500" xml:space="preserve">
<g>
	<g>
		<g>
			<defs>
				<path id="SVGID_1_" d="M66.088,185.565c-5.622,0.775-11.289,0.995-16.875,0.497c-8.341-0.743-16.199-4.368-22.31-10.094
					c-2.284-2.14-4.402-4.452-6.307-6.952c-4.191-5.497-7.257-11.994-8.581-18.753c-1.345-6.862,0.916-14.091,6.481-18.325
					c0.329-0.251,0.666-0.49,1.008-0.718c5.873-3.902,13.135-5.001,20.161-5.6c11.376-0.97,22.843-0.884,34.203,0.255
					c22.271-3.908,44.385-8.739,66.264-14.462c6.763-3.677,15.594-2.465,23.377-0.83c10.211,2.145,20.453,4.657,29.797,9.3
					c2.683,1.333,5.548,3.193,6.106,6.136c0.002,0.009,0.003,0.018,0.005,0.027c0.279,1.512-0.425,3.065-1.666,3.973
					c-3.104,2.269-6.935,3.565-10.619,4.831c-18.914,6.503-37.358,14.374-55.139,23.53c-15.105,7.778-29.817,16.52-45.833,22.189
					C79.684,182.862,72.919,184.624,66.088,185.565z"/>
			</defs>
			<use xlink:href="#SVGID_1_"  overflow="visible" fill="#F2EEEB"/>
			<clipPath id="SVGID_2_">
				<use xlink:href="#SVGID_1_"  overflow="visible"/>
			</clipPath>
			<path clip-path="url(#SVGID_2_)" fill="#AFA59E" stroke="#7C7869" stroke-width="1.8101" stroke-miterlimit="10" d="
				M200.297,137.321c-6.87,5.944-14.06,11.472-21.961,15.927c-10.202,5.752-21.354,9.578-32.434,13.373
				c-25.743,8.816-64.846,17.698-91.72,20.877c26.532-5.306,40.324-13.435,53.163-21.705c15.588-10.041,31.118-20.527,48.479-27.038
				c15.126-5.673,44.946-5.647,44.946-10.953C199.745,128.716,201.336,136.422,200.297,137.321z"/>
			<use xlink:href="#SVGID_1_"  overflow="visible" fill="none" stroke="#7C7869" stroke-width="1.8101" stroke-miterlimit="10"/>
		</g>
		<path fill="#F7F4F2" stroke="#7C7869" stroke-width="1.8101" stroke-miterlimit="10" d="M53.805,100.119
			c-2.623,16.975,0.928,34.41,4.786,51.314c0.453,1.984,1.728,3.67,3.484,4.699c5.117,3,11.357,4.217,17.354,4.012
			c8.29-0.283,16.291-2.961,24.117-5.711c13.822-4.857,27.862-10.218,39.438-19.033c0.269-0.325,0.42-0.5,0.42-0.5
			c3.476-4.05,3.973-9.908,3.186-15.187c-0.787-5.279-2.675-10.352-3.366-15.645c-0.369-2.829-0.394-5.696-0.824-8.516
			c-0.957-6.279-4.02-12.198-8.505-16.688c-1.349-1.35-3.055-2.299-4.896-2.801c-3.87-1.056-7.908-1.507-11.919-1.335
			c-4.462-3.041-10.638-2.49-16.058-1.456c-10.272,1.96-20.34,4.989-29.989,9.024c-5.096,2.131-10.412,4.94-14.038,8.934
			c-1.229,1.354-2.051,3.031-2.437,4.818l0,0C54.265,97.402,54.015,98.759,53.805,100.119z"/>
		<g>
			<path fill="#7C7869" d="M64.183,92.09c0,0-0.245,0.2-0.659,0.613c-0.404,0.414-1.012,1.055-1.468,2.01
				c-0.223,0.473-0.35,1.057-0.208,1.622c0.165,0.566,0.599,1.055,1.248,1.342c1.327,0.586,3.009,0.731,4.77,0.388
				c1.763-0.339,3.557-1.196,5.271-2.38c1.729-1.18,3.391-2.709,5.238-4.191c1.835-1.487,3.764-3.001,5.803-4.425
				c2.036-1.43,4.157-2.814,6.343-4.094c2.195-1.265,4.453-2.427,6.731-3.452c2.271-1.033,4.597-1.884,6.857-2.59
				c4.563-1.412,8.977-2.119,12.776-2.276c1.899-0.082,3.641-0.05,5.176,0.079c1.536,0.111,2.864,0.301,3.951,0.474
				c1.085,0.195,1.929,0.382,2.499,0.533c0.571,0.142,0.875,0.217,0.875,0.217s-0.311-0.042-0.894-0.121
				c-0.579-0.096-1.44-0.163-2.525-0.28c-1.09-0.084-2.413-0.164-3.931-0.15c-1.517,0-3.224,0.111-5.075,0.284
				c-3.698,0.384-7.971,1.267-12.352,2.752c-2.211,0.739-4.415,1.658-6.635,2.667c-2.213,1.017-4.407,2.173-6.546,3.425
				c-2.149,1.235-4.241,2.575-6.255,3.964c-2.011,1.396-3.964,2.802-5.809,4.236c-1.843,1.422-3.608,2.896-5.49,4.074
				c-1.87,1.196-3.882,2.019-5.841,2.275c-1.942,0.285-3.842-0.039-5.252-0.817c-0.731-0.388-1.284-1.092-1.42-1.825
				c-0.123-0.742,0.101-1.399,0.379-1.889c0.568-0.997,1.271-1.545,1.716-1.925C63.921,92.26,64.183,92.09,64.183,92.09z"/>
		</g>
		<g>
			<path fill="#7C7869" d="M79.977,83.639c0,0,0.377-0.249,1.049-0.659c0.67-0.404,1.657-0.968,2.872-1.551
				c1.208-0.606,2.66-1.222,4.242-1.818c0.798-0.276,1.612-0.596,2.465-0.841c0.846-0.267,1.717-0.502,2.584-0.748
				c0.878-0.205,1.754-0.419,2.624-0.595c0.864-0.201,1.733-0.312,2.565-0.456c1.672-0.244,3.241-0.407,4.592-0.459
				c1.348-0.077,2.476-0.059,3.264-0.029c0.788,0.034,1.238,0.07,1.238,0.07s-0.439,0.116-1.205,0.288
				c-0.763,0.169-1.852,0.411-3.16,0.701c-1.297,0.291-2.81,0.631-4.431,0.995c-1.611,0.389-3.33,0.785-5.035,1.237
				c-1.711,0.428-3.408,0.91-5.007,1.349c-1.595,0.465-3.084,0.899-4.36,1.27c-1.284,0.379-2.354,0.694-3.103,0.915
				C80.415,83.528,79.977,83.639,79.977,83.639z"/>
		</g>
		<g>
			<path fill="#7C7869" d="M113.275,81.618c0,0-0.277,0.086-0.796,0.246c-0.525,0.144-1.275,0.422-2.221,0.731
				c-0.946,0.326-2.083,0.762-3.355,1.315c-1.259,0.587-2.668,1.254-4.156,2.063c-1.485,0.814-3.051,1.767-4.611,2.903
				c-1.559,1.137-3.11,2.447-4.649,3.857c-0.388,0.35-0.764,0.718-1.133,1.099c-0.377,0.372-0.747,0.756-1.103,1.158
				c-0.371,0.403-0.715,0.778-1.067,1.211c-0.316,0.382-0.652,0.796-0.946,1.219c-1.203,1.67-2.033,3.6-1.82,5.269
				c0.022,0.209,0.051,0.416,0.11,0.617l0.035,0.153l0.004,0.019c0.007,0.023-0.049-0.142-0.021-0.059l0.018,0.051l0.037,0.102
				l0.147,0.407c0.148,0.29,0.337,0.679,0.627,1.022c0.543,0.691,1.312,1.287,2.173,1.785c1.755,0.997,3.761,1.632,5.851,2.206
				c2.016,0.536,4.019,1.04,5.926,1.402c1.911,0.366,3.739,0.625,5.436,0.786c1.697,0.14,3.261,0.288,4.654,0.353
				c1.393,0.073,2.612,0.078,3.618,0.074c1.008-0.015,1.801-0.027,2.341-0.036c0.542-0.014,0.832-0.021,0.832-0.021l0.025,0.179
				c0,0-0.286,0.037-0.824,0.106c-0.536,0.077-1.326,0.157-2.333,0.257c-2.013,0.178-4.905,0.324-8.37,0.158
				c-3.463-0.162-7.493-0.676-11.706-1.72c-2.089-0.531-4.292-1.104-6.306-2.23c-0.998-0.564-1.955-1.266-2.698-2.184
				c-0.382-0.45-0.674-0.97-0.928-1.516c-0.207-0.526-0.395-1.125-0.447-1.709c-0.247-2.408,0.881-4.663,2.207-6.489
				c0.675-0.928,1.427-1.783,2.213-2.573c0.382-0.408,0.777-0.797,1.18-1.174c0.394-0.386,0.795-0.758,1.208-1.11
				c3.249-2.885,6.722-5.041,9.85-6.537c3.127-1.512,5.901-2.379,7.858-2.883c0.983-0.248,1.758-0.424,2.289-0.519
				c0.53-0.106,0.813-0.163,0.813-0.163L113.275,81.618z"/>
		</g>
		<g>
			<path fill="#7C7869" d="M129.356,81.591c0,0,0.113,0.045,0.325,0.13c0.206,0.101,0.536,0.174,0.903,0.406
				c0.382,0.207,0.849,0.473,1.321,0.85c0.253,0.173,0.493,0.387,0.747,0.615c0.26,0.223,0.52,0.473,0.766,0.754
				c0.519,0.543,1.034,1.181,1.5,1.907c0.473,0.722,0.934,1.517,1.288,2.396c0.195,0.432,0.365,0.883,0.51,1.351
				c0.172,0.459,0.287,0.942,0.392,1.432c0.222,0.977,0.321,1.998,0.361,3.023c-0.022,1.027-0.117,2.058-0.358,3.049
				c-0.221,1.009-0.59,1.897-1.005,2.773c-0.831,1.708-1.89,3.107-2.869,4.205c-0.973,1.108-1.876,1.928-2.513,2.493
				c-0.641,0.561-1.025,0.862-1.025,0.862s0.275-0.401,0.757-1.101c0.483-0.696,1.179-1.682,1.953-2.88
				c0.766-1.202,1.598-2.627,2.241-4.226c0.323-0.774,0.574-1.656,0.755-2.504c0.191-0.859,0.248-1.759,0.255-2.659
				c-0.018-0.901-0.083-1.808-0.263-2.687c-0.177-0.876-0.367-1.748-0.673-2.554c-0.281-0.813-0.607-1.587-0.969-2.294
				c-0.364-0.706-0.742-1.362-1.141-1.935c-0.186-0.299-0.398-0.557-0.595-0.809c-0.193-0.256-0.378-0.5-0.579-0.703
				c-0.381-0.435-0.736-0.779-1.046-1.055c-0.296-0.294-0.589-0.476-0.76-0.623C129.452,81.666,129.356,81.591,129.356,81.591z"/>
		</g>
		<path fill="#E2D6CF" stroke="#7C7869" stroke-width="1.8101" stroke-miterlimit="10" d="M56.78,148.823
			c-0.084-0.397,0.377-0.66,0.687-0.398c5.033,4.261,11.804,6.471,18.465,6.833c8.683,0.471,17.281-1.843,25.528-4.559
			c10.84-3.57,21.39-7.986,31.513-13.257c4.681-2.437,9.3-5.197,12.661-9.247c0.637-0.768,1.221-1.592,1.74-2.458
			c0.14-0.234,0.487-0.173,0.523,0.097c0.071,0.531,0.147,1.112,0.206,1.736c0.242,2.602-0.574,5.223-2.323,7.165
			c-3.778,4.197-8.805,6.802-14.091,9.643c-10.058,5.407-20.615,9.842-31.542,13.155c-7.636,2.315-15.559,4.17-23.542,3.845
			c-6.071-0.247-12.219-1.861-17.279-5.143c-0.743-0.482-1.242-1.265-1.426-2.132L56.78,148.823z"/>
		<polygon fill="#EDD364" stroke="#CCA031" stroke-width="1.8101" stroke-miterlimit="10" points="137.034,141.015 129.196,144.103
			129.196,139.128 137.034,136.041 		"/>
		<path fill="#EDD364" stroke="#CCA031" stroke-width="1.8101" stroke-miterlimit="10" d="M139.948,132.067
			c-0.05-0.156-0.103-0.31-0.16-0.462c-1.598,0.769-3.196,1.538-4.794,2.307c0.762,3.058,0.881,6.402,0.345,9.746
			c1.41-0.63,2.785-1.409,4.093-2.319C140.68,138.263,140.852,134.889,139.948,132.067z"/>
		<path fill="#EDD364" stroke="#CCA031" stroke-width="1.8101" stroke-miterlimit="10" d="M130.702,136.313
			c-0.056-0.164-0.115-0.327-0.179-0.487c-1.79,0.832-3.58,1.664-5.37,2.496c0.854,3.23,0.986,6.77,0.386,10.317
			c1.579-0.683,3.119-1.523,4.584-2.501C131.522,142.866,131.715,139.291,130.702,136.313z"/>
	</g>
	<g>
		<path fill="#775E54" stroke="#544038" stroke-width="1.8101" stroke-miterlimit="10" d="M36.252,283.592
			c0.338-0.238,0.688-0.45,1.03-0.628c4.26-2.222,8.729-4.045,13.325-5.406c24.574,3.579,49.89,1.967,73.823-4.651
			c-13.198,10.482-27.407,21.252-44.152,22.941c-8.807,0.889-17.65-0.842-26.296-2.74c-5.612-1.232-11.208-2.539-16.785-3.92
			c-1.092-0.27-2.311-0.64-2.826-1.641C33.621,286.094,34.819,284.603,36.252,283.592z"/>
		<g>
			<defs>
				<path id="SVGID_3_" d="M160.412,231.053c0.985,3.148,1.821,6.343,2.503,9.57c0.43,2.033,0.522,4.133,0.269,6.196
					c-0.967,7.885-2.855,15.661-5.598,23.121c-1.261,3.429-4.06,6.135-7.596,7.056c-0.858,0.223-1.721,0.411-2.583,0.563
					c-7.114,1.259-14.414,0.605-21.625,1.044c-3.043,0.185-6.073,0.567-9.066,1.147c-5.733,3.657-12.004,6.463-18.544,8.32
					c-16.407,1.339-33.013,0.23-49.101-3.257c-1.816-0.394-3.574-1.074-5.206-1.961c-1.862-1.012-2.987-1.623-2.987-1.623
					c-4.445-2.411-5.994-8.33-4.848-13.256c1.146-4.925,4.378-9.068,7.606-12.961c15.454-18.632,33.777-36.165,56.791-43.671
					c15.331-5,33.104-4.423,47.434,2.334c4.846,2.285,8.597,6.443,10.5,11.451C159.104,227.08,159.788,229.057,160.412,231.053z"/>
			</defs>
			<use xlink:href="#SVGID_3_"  overflow="visible" fill="#947A6D"/>
			<clipPath id="SVGID_4_">
				<use xlink:href="#SVGID_3_"  overflow="visible"/>
			</clipPath>
			<g clip-path="url(#SVGID_4_)">
				<path fill="#A58C81" stroke="#B59F95" stroke-width="1.8101" stroke-miterlimit="10" d="M110.081,203.895
					c-10.497,2.039-20.641,6.209-29.894,11.73c-13.654,8.147-25.499,19.146-36.231,31.017c-4.892,5.411-9.622,11.091-12.887,17.66
					c-1.858,3.739,2.177-3.767,1.616,0.379c3.249,20.413,15.229,20.177,26.279,20.989c8.982,0.66,18.001-1.28,26.022-5.467
					c12.79-6.676,29.132-16.916,42.553-21.29c2.78-0.906,5.338-2.435,7.537-4.396c1.659-1.479,3.266-3.026,4.855-4.572
					c6.396-6.224,8.65-10.865,12.299-19.087c3.329-7.501,4.38-14.125-7.687-21.245c-8.813-2.504-10.188-6.955-19.304-7.096
					C120.145,202.438,115.073,202.925,110.081,203.895z"/>
				<g>
					<path fill="#947A6D" d="M114.408,280.984c4.022-2.754,8.045-5.509,12.067-8.263c3.594-2.461,7.331-5.08,9.323-8.955"/>
					<path fill="#544038" d="M114.408,280.984c0,0,1.257-1.228,3.278-2.872c1.005-0.83,2.2-1.765,3.502-2.735
						c0.656-0.478,1.319-0.993,2.02-1.478c0.697-0.49,1.405-0.988,2.113-1.485c0.715-0.481,1.431-0.962,2.135-1.435
						c0.693-0.474,1.375-0.941,2.035-1.393c1.302-0.918,2.466-1.824,3.412-2.672c0.943-0.848,1.669-1.632,2.149-2.215
						c0.487-0.577,0.747-0.935,0.747-0.935s-0.037,0.103-0.107,0.296c-0.074,0.191-0.162,0.486-0.335,0.83
						c-0.316,0.704-0.858,1.687-1.693,2.732c-0.82,1.057-1.926,2.171-3.2,3.226c-0.642,0.521-1.298,1.068-2.003,1.56
						c-0.698,0.494-1.408,0.996-2.117,1.497c-0.72,0.48-1.44,0.96-2.149,1.433c-0.705,0.478-1.425,0.91-2.108,1.349
						c-1.375,0.864-2.679,1.64-3.816,2.277C116.007,280.256,114.408,280.984,114.408,280.984z"/>
				</g>
				<g>
					<path fill="#947A6D" d="M126.906,278.611c5.188-0.377,12.245-3.559,16.138-7.009s6.983-7.695,10.039-11.904"/>
					<path fill="#544038" d="M126.906,278.611c0,0,0.521-0.106,1.402-0.35c0.439-0.109,0.963-0.286,1.566-0.469
						c0.598-0.206,1.264-0.449,1.985-0.727c1.436-0.571,3.074-1.318,4.761-2.23c0.854-0.438,1.687-0.973,2.544-1.487
						c0.841-0.54,1.678-1.111,2.458-1.741c0.769-0.602,1.556-1.311,2.269-1.995c0.717-0.707,1.436-1.395,2.097-2.099
						c1.331-1.4,2.534-2.76,3.575-3.929c1.032-1.175,1.907-2.153,2.529-2.831c0.631-0.672,0.991-1.056,0.991-1.056
						s-0.961,1.879-2.694,4.518c-0.863,1.322-1.935,2.83-3.211,4.359c-0.646,0.756-1.313,1.546-2.061,2.284
						c-0.759,0.754-1.509,1.466-2.374,2.169c-3.444,2.673-7.472,4.279-10.574,5.024c-0.776,0.192-1.499,0.315-2.139,0.411
						c-0.643,0.085-1.205,0.138-1.673,0.153c-0.464,0.038-0.825,0.006-1.072,0.005C127.038,278.615,126.906,278.611,126.906,278.611
						z"/>
				</g>
			</g>
			<use xlink:href="#SVGID_3_"  overflow="visible" fill="none" stroke="#544038" stroke-width="1.8101" stroke-miterlimit="10"/>
		</g>
	</g>
	<g>
		<path fill="#FDFBE4" stroke="#CEC56F" stroke-width="2.0886" stroke-miterlimit="10" d="M364.213,257.088
			c-2.426,13.659-7.216,26.952-12.429,39.99c-27.636-13.859-55.435-27.393-83.38-40.616c7.02-15.868,17.25-30.303,29.863-42.217
			c2.294-2.166,5.379-3.277,8.534-3.288c9.566-0.035,19.14,1.411,28.267,4.278c4.276,1.343,8.243,3.564,11.632,6.497
			c6.171,5.341,11.69,11.437,16.399,18.105c1.706,2.415,2.622,5.338,2.344,8.281C365.157,251.126,364.741,254.115,364.213,257.088z"
			/>
		<g>
			<defs>
				<path id="SVGID_5_" d="M244.217,266.058c35.052,26.389,75.779,45.211,118.58,54.855c0.938,0.211,1.809-0.634,1.609-1.574
					c-2.093-9.886-6.003-19.373-11.477-27.832c-28.945-9.53-56.631-22.884-82.099-39.619c-0.787-0.517-1.769-0.628-2.638-0.265
					c-7.309,3.059-18.909,9.108-23.761,11.689C243.381,263.87,243.266,265.342,244.217,266.058z"/>
			</defs>
			<use xlink:href="#SVGID_5_"  overflow="visible" fill="#E1CB92"/>
			<clipPath id="SVGID_6_">
				<use xlink:href="#SVGID_5_"  overflow="visible"/>
			</clipPath>
			<g clip-path="url(#SVGID_6_)">
				<path fill="#E1CB92" stroke="#CEB582" stroke-width="2.0886" stroke-miterlimit="10" d="M246.349,259.53
					c-0.459,0.269-0.917,0.539-1.374,0.812c35.53,27.217,77.039,46.592,120.702,56.416"/>
				<path fill="#E1CB92" stroke="#CEB582" stroke-width="2.0886" stroke-miterlimit="10" d="M249.83,255.352
					c-0.459,0.269-0.917,0.539-1.374,0.812c35.53,27.217,77.039,46.592,120.702,56.416"/>
				<path fill="#E1CB92" stroke="#CEB582" stroke-width="2.0886" stroke-miterlimit="10" d="M254.703,251.871
					c-0.459,0.269-0.917,0.539-1.374,0.812c35.53,27.217,77.039,46.592,120.702,56.416"/>
				<path fill="#E1CB92" stroke="#CEB582" stroke-width="2.0886" stroke-miterlimit="10" d="M259.577,248.39
					c-0.459,0.269-0.917,0.539-1.374,0.812c35.53,27.217,77.039,46.592,120.702,56.416"/>
				<path fill="#E1CB92" stroke="#CEB582" stroke-width="2.0886" stroke-miterlimit="10" d="M259.209,244.287
					c-0.456,0.275-0.91,0.551-1.363,0.829c35.882,26.753,77.639,45.585,121.426,54.841"/>
			</g>
			<use xlink:href="#SVGID_5_"  overflow="visible" fill="none" stroke="#BC9E61" stroke-width="2.0886" stroke-miterlimit="10"/>
		</g>
		<g>
			<path fill="#DDCB93" stroke="#C6AB66" stroke-width="2.0886" stroke-miterlimit="10" d="M335.006,241.491
				c-0.528-0.772-1.076-1.53-1.644-2.273c-0.988-1.294-2.045-2.555-3.326-3.559c-1.135-0.89-2.421-1.56-3.677-2.269
				c-1.845-1.041-3.636-2.171-5.397-3.348c-0.662-0.442-1.58-0.076-1.722,0.707c-0.596,3.287-0.88,6.631-0.841,9.971
				c-4.239,6.738-7.139,14.316-8.435,22.171c-2.02,1.999-3.723,4.319-5.024,6.846c-0.277,0.538-0.051,1.204,0.482,1.49
				c1.549,0.832,3.096,1.671,4.765,2.205c4.934,1.58,10.306,0.33,15.219-1.315c3.828-1.281,7.657-2.815,11.613-3.448
				c3.047-4.358,4.53-9.796,4.203-15.114C339.662,249.298,337.569,245.234,335.006,241.491z"/>
			<path fill="#DDCB93" stroke="#C6AB66" stroke-width="2.0886" stroke-miterlimit="10" d="M356.153,282.463
				c-0.002-0.038-0.004-0.075-0.006-0.113c2.484-5.51,4.684-11.147,6.607-16.877c1.961-1.439,3.748-3.113,5.315-4.973
				c-0.161-0.416-0.125-0.324-0.286-0.74c-4.081-0.666-8.112-2.651-12.379-2.958c-3.73-0.268-7.538,0.819-10.582,2.987
				c-0.022,3.863-1.497,7.682-4.047,10.58c0.019,9.414,5.615,18.556,13.922,22.944c0.584,0.309,1.319-0.117,1.366-0.776
				C356.303,289.186,356.332,285.819,356.153,282.463z"/>
			<g>
				<path fill="#C6AB66" d="M329.88,255.277l2.293,1.188c0.382,0.173,0.727,0.379,1.095,0.549c0.371,0.166,0.732,0.335,1.083,0.51
					c0.359,0.165,0.72,0.319,1.083,0.462c0.354,0.159,0.708,0.31,1.067,0.45c0.357,0.143,0.728,0.246,1.079,0.391
					c0.356,0.134,0.715,0.258,1.076,0.371l3.855,1.212l-3.48,2.107l-0.769,0.465c-0.262,0.144-0.54,0.258-0.812,0.38
					c-0.555,0.219-1.12,0.402-1.692,0.551c-0.289,0.061-0.575,0.133-0.867,0.172l-0.876,0.081c-0.585,0.022-1.165,0.04-1.742-0.028
					c-0.576-0.077-1.14-0.186-1.693-0.325c-0.55-0.165-1.078-0.383-1.589-0.614c-0.506-0.255-0.98-0.562-1.426-0.888l-0.628-0.547
					l-0.55-0.623l0.105-0.18c0.442,0.24,0.896,0.454,1.362,0.64c0.47,0.177,0.949,0.323,1.434,0.449
					c0.487,0.117,0.979,0.208,1.476,0.272c0.498,0.053,0.997,0.079,1.498,0.078c0.5-0.012,0.998-0.05,1.494-0.116
					c0.494-0.077,0.982-0.18,1.463-0.311c0.479-0.142,0.947-0.311,1.405-0.507c0.452-0.209,0.895-0.434,1.323-0.69l0.041,0.363
					c-1.604-0.564-3.129-1.344-4.526-2.306c-1.402-0.955-2.664-2.116-3.739-3.417L329.88,255.277z"/>
			</g>
			<g>
				<path fill="#C6AB66" d="M351.556,266.6c-0.302,0.211-0.609,0.406-0.945,0.562c-0.325,0.173-0.661,0.279-1.001,0.411
					c-0.341,0.126-0.688,0.194-1.038,0.282c-0.351,0.088-0.705,0.134-1.062,0.168c-0.356,0.031-0.716,0.07-1.076,0.072
					c-0.358-0.01-0.716-0.027-1.075-0.053c-0.359-0.028-0.72-0.059-1.071-0.14c-0.352-0.073-0.703-0.155-1.053-0.244l2.223-2.544
					c0.154,0.276,0.3,0.553,0.435,0.84c0.149,0.28,0.31,0.554,0.482,0.824c0.187,0.259,0.328,0.555,0.514,0.825
					c0.177,0.277,0.392,0.522,0.57,0.813c0.192,0.277,0.397,0.55,0.616,0.817c0.207,0.282,0.426,0.564,0.663,0.837
					c0.23,0.284,0.471,0.57,0.726,0.86l0.795,0.92l-0.075,0.195c-0.72-0.257-1.416-0.585-2.073-0.981
					c-0.652-0.404-1.265-0.871-1.83-1.392c-1.124-1.044-2.071-2.298-2.701-3.708l-0.185-0.413l0.429,0.134
					c2.479,0.773,5.115,0.967,7.707,0.709L351.556,266.6z"/>
			</g>
		</g>
		<path fill="#DDCB93" stroke="#C6AB66" stroke-width="2.0886" stroke-miterlimit="10" d="M340.623,257.494
			c0.02-0.135,0.039-0.27,0.057-0.405c1.953,0.424,3.785,1.457,5.159,2.929c-0.416,4.363-2.25,8.581-5.156,11.862
			c-1.965,0.002-3.928-0.791-5.329-2.16C338.126,266.191,339.959,261.931,340.623,257.494z"/>
	</g>
	<g>
		<path fill="#F2CEDC" stroke="#A86F86" stroke-width="2.0886" stroke-miterlimit="10" d="M359.634,387.529
			c0.445,1.868,0.665,3.773,0.62,5.675c-34.618-7.066-68.405-18.195-100.442-33.093c0.54-4.764,4.637-8.515,9.176-10.029
			c4.503-1.502,9.391-1.204,14.111-0.699c16.655,1.782,33.054,5.947,48.54,12.328c7.689,3.168,15.334,7.01,21.007,13.091
			C355.966,378.36,358.513,382.824,359.634,387.529z"/>
		<path fill="#E9B2C7" stroke="#A86F86" stroke-width="2.0886" stroke-miterlimit="10" d="M249.636,400.418l-0.1-0.097
			c-0.111-0.108-0.221-0.217-0.33-0.328c-3.733-3.787-4.7-9.517-2.638-14.419c1.946-4.626,3.891-9.253,5.835-13.879
			c-0.529-1.994-0.872-4.039-1.027-6.097c-0.285-3.783,2.292-7.186,6.028-7.847c5.679-1.004,12.328,0.949,18.031,2.998
			c28.357,10.192,57.279,18.811,86.589,25.803c2.946,0.703,4.607,3.62,3.686,6.505l-0.017,0.054
			c-0.81,2.519-2.364,4.718-3.639,7.036c-0.523,0.95-1,1.922-1.432,2.912c-0.554,5.105-1.464,10.171-2.718,15.151
			c-0.993,3.944-4.184,7.004-8.181,7.759c-10.959,2.068-22.395,2.01-33.457,0.378c-19.979-2.949-38.952-10.769-57.169-19.351
			C255.6,405.348,252.412,403.111,249.636,400.418z"/>
		<g>
			<path fill="#E9B2C7" d="M253.054,370.859c-0.352,1.972-0.274,5.673-0.131,7.68c0.143,2.006,0.853,4.051,2.264,5.256"/>
			<path fill="#A86F86" d="M253.054,370.859c0,0,0.039,0.219,0.108,0.603c0.062,0.372,0.157,0.904,0.242,1.532
				c0.198,1.258,0.356,2.923,0.44,4.585c0.018,0.411,0.036,0.822,0.054,1.226c0.025,0.36,0.055,0.74,0.1,1.1
				c0.089,0.723,0.233,1.388,0.388,1.967c0.173,0.568,0.363,1.048,0.526,1.385c0.158,0.341,0.275,0.538,0.275,0.538
				s-0.051-0.022-0.148-0.064c-0.097-0.043-0.247-0.101-0.412-0.21c-0.34-0.206-0.806-0.569-1.232-1.124
				c-0.435-0.547-0.825-1.278-1.086-2.107c-0.129-0.415-0.234-0.846-0.298-1.316c-0.063-0.404-0.09-0.885-0.117-1.298
				c-0.081-1.725,0.072-3.453,0.395-4.736c0.146-0.642,0.333-1.166,0.49-1.53C252.935,371.051,253.054,370.859,253.054,370.859z"/>
		</g>
		<g>
			<path fill="#E9B2C7" d="M351.213,416.72c3.284-1.742,5.406-5.072,7.001-8.429c1.595-3.358,2.841-6.93,5.062-9.911"/>
			<path fill="#A86F86" d="M351.213,416.72c0,0,0.272-0.241,0.714-0.666c0.221-0.203,0.467-0.478,0.757-0.774
				c0.278-0.311,0.575-0.67,0.892-1.06c0.305-0.404,0.623-0.843,0.944-1.32c0.324-0.473,0.621-1.004,0.947-1.537
				c0.623-1.086,1.223-2.3,1.803-3.516c0.595-1.25,1.168-2.492,1.776-3.669c0.613-1.167,1.237-2.249,1.859-3.125
				c1.223-1.777,2.372-2.672,2.372-2.672s-0.138,0.327-0.378,0.9c-0.243,0.565-0.562,1.373-0.935,2.335
				c-0.359,0.971-0.777,2.103-1.225,3.316c-0.454,1.21-0.979,2.531-1.577,3.8c-0.618,1.301-1.345,2.545-2.162,3.641
				c-0.809,1.097-1.716,2.023-2.583,2.695c-0.429,0.342-0.856,0.612-1.238,0.835c-0.386,0.219-0.736,0.384-1.033,0.502
				c-0.288,0.134-0.527,0.186-0.685,0.242C351.299,416.695,351.213,416.72,351.213,416.72z"/>
		</g>
		<g>
			<path fill="#FFFFFF" stroke="#A0A8AF" stroke-width="2.0886" stroke-miterlimit="10" d="M334.372,405.179
				c0,0,15.507,2.621,27.227-6.339l-4.949-1.484c0,0,8.824-2.347,12.73-11.682l-2.87,1.305c0,0,5.866-5.581,3.823-14.069l-9.385,4.9
				c0,0,0.006-1.101,0.309-2.272c-6.15,3.449-6.733,3.742-11.125,7.274l1.126-4.397
				C351.258,378.416,342.319,382.438,334.372,405.179z"/>
			<g>
				<path fill="#D1D3D4" d="M334.811,405.402c0,0,1.575-1.969,4.072-4.76c1.244-1.403,2.721-3.015,4.35-4.704
					c0.826-0.834,1.655-1.721,2.553-2.57c0.885-0.86,1.806-1.716,2.728-2.571c0.943-0.833,1.898-1.653,2.855-2.442
					c0.948-0.799,1.933-1.524,2.88-2.23c0.946-0.709,1.89-1.352,2.799-1.94c0.891-0.613,1.781-1.124,2.59-1.609
					c0.802-0.496,1.578-0.885,2.25-1.252c0.668-0.373,1.277-0.654,1.772-0.893c0.994-0.472,1.57-0.724,1.57-0.724
					s-0.486,0.403-1.351,1.077c-0.861,0.672-2.09,1.631-3.565,2.782c-0.727,0.582-1.514,1.212-2.347,1.878
					c-0.821,0.676-1.687,1.389-2.583,2.127c-0.897,0.735-1.785,1.54-2.714,2.325c-0.924,0.792-1.845,1.618-2.759,2.453
					c-0.925,0.824-1.849,1.649-2.742,2.484c-0.905,0.824-1.796,1.635-2.658,2.42c-1.725,1.576-3.359,3.029-4.793,4.242
					C336.864,403.942,334.811,405.402,334.811,405.402z"/>
			</g>
			<g>
				<path fill="#D1D3D4" d="M346.69,387.967c0.108,0.648,0.159,1.301,0.16,1.951c0.019,0.654-0.035,1.302-0.098,1.959
					c-0.083,0.652-0.199,1.307-0.386,1.969c-0.094,0.327-0.221,0.657-0.359,0.989c-0.143,0.331-0.326,0.67-0.554,1.005l-1.304-1.476
					c0.274-0.168,0.488-0.281,0.73-0.409c0.235-0.123,0.473-0.237,0.712-0.341c0.476-0.219,0.961-0.403,1.45-0.572
					c0.978-0.337,1.977-0.591,2.986-0.77c1.013-0.161,2.028-0.282,3.05-0.29c1.019-0.023,2.041,0.041,3.054,0.222
					c-0.967,0.364-1.924,0.645-2.868,0.943l-1.407,0.442c-0.469,0.135-0.926,0.313-1.39,0.45c-0.919,0.31-1.83,0.617-2.724,0.952
					c-0.446,0.17-0.89,0.342-1.324,0.524l-0.644,0.28c-0.204,0.091-0.436,0.201-0.591,0.283l-4.431,2.324l3.127-3.8
					c0.146-0.178,0.299-0.375,0.437-0.614c0.134-0.239,0.27-0.488,0.384-0.759c0.255-0.526,0.483-1.094,0.689-1.675
					c0.23-0.576,0.422-1.172,0.641-1.769C346.235,389.184,346.46,388.581,346.69,387.967z"/>
			</g>
			<g>
				<path fill="#D1D3D4" d="M355.414,383.283c0.07,0.54,0.06,1.088-0.004,1.627c-0.054,0.543-0.172,1.077-0.325,1.606
					c-0.144,0.533-0.366,1.041-0.604,1.548c-0.237,0.509-0.561,0.973-0.885,1.441l-0.944-1.575l2.517-0.759l2.525-0.801l1.26-0.416
					c0.422-0.141,0.832-0.302,1.262-0.438c0.41-0.168,0.847-0.301,1.264-0.478c0.435-0.151,0.846-0.345,1.302-0.504
					c-0.273,0.384-0.57,0.767-0.909,1.097c-0.332,0.344-0.692,0.652-1.066,0.947c-0.749,0.584-1.563,1.076-2.401,1.507
					c-0.845,0.417-1.714,0.781-2.607,1.067c-0.444,0.152-0.898,0.271-1.351,0.393c-0.461,0.108-0.905,0.217-1.4,0.287l-2.802,0.395
					l1.858-1.97c0.323-0.342,0.627-0.705,0.92-1.09c0.309-0.374,0.57-0.787,0.849-1.2
					C354.415,385.132,354.921,384.244,355.414,383.283z"/>
			</g>
		</g>
		<g>
			<path fill="#FFFFFF" stroke="#A0A8AF" stroke-width="2.0886" stroke-miterlimit="10" d="M336.349,409.847
				c0,0,13.924,7.31,27.848,2.437l-4.243-2.948c0,0,9.116,0.511,15.73-7.147l-3.133,0.348c0,0,7.31-3.481,8.006-12.184
				l-10.443,1.741c0,0,0.348-1.044,1-2.064c-6.917,1.367-7.562,1.464-12.835,3.456l2.437-3.829
				C360.716,389.657,350.97,390.701,336.349,409.847z"/>
			<g>
				<path fill="#D1D3D4" d="M336.697,410.195c0,0,2.109-1.382,5.35-3.259c1.618-0.947,3.524-2.02,5.596-3.119
					c1.045-0.535,2.108-1.122,3.225-1.649c1.108-0.543,2.25-1.07,3.392-1.595c1.155-0.499,2.318-0.981,3.473-1.434
					c1.149-0.465,2.311-0.848,3.43-1.225c1.119-0.38,2.217-0.697,3.264-0.974c1.038-0.306,2.042-0.515,2.962-0.724
					c0.916-0.222,1.775-0.351,2.528-0.491c0.751-0.147,1.417-0.224,1.962-0.298c1.092-0.14,1.717-0.2,1.717-0.2
					s-0.588,0.232-1.619,0.604c-1.027,0.371-2.493,0.901-4.253,1.536c-0.872,0.327-1.816,0.681-2.815,1.056
					c-0.991,0.388-2.035,0.796-3.116,1.219c-1.081,0.42-2.175,0.909-3.302,1.366c-1.124,0.465-2.256,0.965-3.385,1.474
					c-1.135,0.495-2.27,0.993-3.379,1.509c-1.116,0.502-2.215,0.996-3.278,1.474c-2.129,0.962-4.134,1.835-5.874,2.542
					C339.102,409.445,336.697,410.195,336.697,410.195z"/>
			</g>
			<g>
				<path fill="#D1D3D4" d="M353.406,397.315c-0.099,0.649-0.253,1.286-0.454,1.904c-0.185,0.627-0.438,1.227-0.702,1.832
					c-0.281,0.594-0.595,1.181-0.978,1.751c-0.191,0.282-0.415,0.556-0.649,0.829c-0.239,0.271-0.518,0.536-0.839,0.783l-0.78-1.808
					c0.313-0.075,0.551-0.116,0.821-0.162c0.261-0.043,0.523-0.079,0.783-0.102c0.52-0.06,1.038-0.084,1.556-0.093
					c1.034-0.017,2.063,0.053,3.078,0.196c1.013,0.161,2.015,0.362,2.989,0.673c0.976,0.295,1.927,0.673,2.834,1.16
					c-1.033,0.045-2.029,0.015-3.019,0.005l-1.475-0.017c-0.488-0.018-0.977,0.01-1.461-0.004c-0.969,0.009-1.931,0.017-2.885,0.058
					c-0.476,0.023-0.952,0.048-1.422,0.086l-0.699,0.066c-0.222,0.023-0.477,0.056-0.65,0.085l-4.934,0.832l4.153-2.64
					c0.194-0.124,0.401-0.264,0.606-0.448c0.202-0.186,0.408-0.38,0.6-0.602c0.406-0.421,0.799-0.89,1.176-1.378
					c0.398-0.476,0.765-0.983,1.16-1.482C352.595,398.33,352.996,397.827,353.406,397.315z"/>
			</g>
			<g>
				<path fill="#D1D3D4" d="M363.153,395.575c-0.101,0.535-0.282,1.053-0.509,1.545c-0.22,0.5-0.499,0.97-0.808,1.425
					c-0.302,0.462-0.672,0.876-1.055,1.284c-0.383,0.41-0.836,0.75-1.289,1.095l-0.408-1.79l2.628,0.061l2.649,0.024l1.327-0.003
					c0.445-0.003,0.884-0.028,1.336-0.024c0.442-0.032,0.899-0.023,1.349-0.061c0.461-0.008,0.911-0.065,1.395-0.074
					c-0.379,0.28-0.78,0.552-1.205,0.76c-0.422,0.223-0.86,0.405-1.308,0.569c-0.893,0.322-1.82,0.536-2.75,0.686
					c-0.932,0.134-1.872,0.21-2.81,0.204c-0.469,0.007-0.938-0.022-1.406-0.047c-0.472-0.04-0.927-0.075-1.42-0.163l-2.786-0.496
					l2.378-1.294c0.413-0.225,0.815-0.476,1.213-0.75c0.41-0.26,0.787-0.57,1.18-0.877
					C361.63,397.022,362.386,396.334,363.153,395.575z"/>
			</g>
		</g>
		<circle fill="#D2D5D8" stroke="#808285" stroke-width="2.0886" stroke-miterlimit="10" cx="332.52" cy="408.803" r="10.443"/>
		<g>
			<g>
				<defs>
					<circle id="SVGID_7_" cx="332.52" cy="408.803" r="6.962"/>
				</defs>
				<clipPath id="SVGID_8_">
					<use xlink:href="#SVGID_7_"  overflow="visible"/>
				</clipPath>
				<g clip-path="url(#SVGID_8_)">

						<ellipse transform="matrix(0.9002 -0.4354 0.4354 0.9002 -142.866 183.7814)" fill="#D1D3D4" cx="329.629" cy="403.664" rx="3.829" ry="5.309"/>

						<ellipse transform="matrix(-0.0469 0.9989 -0.9989 -0.0469 764.2809 88.1802)" fill="#D1D3D4" cx="340.072" cy="408.711" rx="3.829" ry="5.309"/>

						<ellipse transform="matrix(0.893 0.4501 -0.4501 0.893 221.8033 -104.1914)" fill="#D1D3D4" cx="329.972" cy="414.264" rx="3.829" ry="5.309"/>
				</g>
			</g>
			<g>
				<defs>
					<circle id="SVGID_9_" cx="332.52" cy="408.803" r="6.962"/>
				</defs>
				<use xlink:href="#SVGID_9_"  overflow="visible" fill="#C2C6CC"/>
				<clipPath id="SVGID_10_">
					<use xlink:href="#SVGID_9_"  overflow="visible"/>
				</clipPath>
				<g clip-path="url(#SVGID_10_)">

						<ellipse transform="matrix(0.9002 -0.4354 0.4354 0.9002 -142.866 183.7814)" fill="#DADCE0" stroke="#808285" stroke-width="2.0886" stroke-miterlimit="10" cx="329.629" cy="403.664" rx="3.829" ry="5.309"/>

						<ellipse transform="matrix(-0.0469 0.9989 -0.9989 -0.0469 764.2809 88.1802)" fill="#DADCE0" stroke="#808285" stroke-width="2.0886" stroke-miterlimit="10" cx="340.072" cy="408.711" rx="3.829" ry="5.309"/>

						<ellipse transform="matrix(0.893 0.4501 -0.4501 0.893 221.8033 -104.1914)" fill="#DADCE0" stroke="#808285" stroke-width="2.0886" stroke-miterlimit="10" cx="329.972" cy="414.264" rx="3.829" ry="5.309"/>
				</g>
				<use xlink:href="#SVGID_9_"  overflow="visible" fill="none" stroke="#808285" stroke-width="2.0886" stroke-miterlimit="10"/>
			</g>
			<g>
				<defs>
					<circle id="SVGID_11_" cx="332.52" cy="408.803" r="6.962"/>
				</defs>
				<clipPath id="SVGID_12_">
					<use xlink:href="#SVGID_11_"  overflow="visible"/>
				</clipPath>
				<g clip-path="url(#SVGID_12_)">

						<ellipse transform="matrix(0.9002 -0.4354 0.4354 0.9002 -142.866 183.7814)" fill="none" stroke="#939598" stroke-width="2.2907" stroke-miterlimit="10" cx="329.629" cy="403.664" rx="3.829" ry="5.309"/>

						<ellipse transform="matrix(-0.0469 0.9989 -0.9989 -0.0469 764.2809 88.1802)" fill="none" stroke="#939598" stroke-width="2.2907" stroke-miterlimit="10" cx="340.072" cy="408.711" rx="3.829" ry="5.309"/>

						<ellipse transform="matrix(0.893 0.4501 -0.4501 0.893 221.8033 -104.1914)" fill="none" stroke="#939598" stroke-width="2.2907" stroke-miterlimit="10" cx="329.972" cy="414.264" rx="3.829" ry="5.309"/>
				</g>
			</g>
		</g>
		<circle fill="#C2C6CC" stroke="#808285" stroke-width="2.0886" stroke-miterlimit="10" cx="332.52" cy="408.803" r="1.741"/>
	</g>
	<g>
		<path fill="#B3774A" stroke="#704121" stroke-width="1.8101" stroke-miterlimit="10" d="M93.372,408.106l-16.709-25.064
			c0,0-37.943,0.348-43.165,17.405c-2.287,7.471,4.909,14.14,16.468,18.546L93.372,408.106z"/>
		<path fill="#BF9C8E" stroke="#755446" stroke-width="1.8101" stroke-miterlimit="10" d="M33.904,404.747
			c-0.065-0.906,0.189-3.305,0.638-4.299c6.614-14.62,38.988-16.013,38.988-16.013l-2.437-2.089c0,0-38.988,2.437-39.684,21.234"/>
		<path fill="#B3774A" stroke="#704121" stroke-width="1.8101" stroke-miterlimit="10" d="M58.909,395.575
			c0,0,3.41-33.696,5.57-42.817c3.133-13.228,19.842-23.671,42.469-22.279s55.349,9.747,52.216,40.032
			c-3.133,30.285-4.525,37.247-4.525,37.247l-67.881-2.437L58.909,395.575z"/>
		<path fill="#DBB9AF" stroke="#755446" stroke-width="1.8101" stroke-miterlimit="10" d="M60.47,384.069
			c5.43,4.094,27.034,15.836,94.996,14.328c0.847-0.019,1.54,0.701,1.462,1.545l-1.245,13.385c0,0-79.155,11.501-101.415-9.179
			c-0.609-0.566-0.779-1.458-0.472-2.23c0.519-1.305,1.499-3.296,3.025-4.604c0,0-0.538-6.997,1.225-12.473
			C58.375,383.818,59.611,383.421,60.47,384.069z"/>
		<g>
			<path fill="#EAC8C1" stroke="#755446" stroke-width="1.8101" stroke-miterlimit="10" d="M112.518,412.284
				c0,0-1.392-10.443,2.785-17.405c0,0,8.355,1.392,13.924,4.177c0,0,2.785-4.525,9.399-1.741c0,0,9.747-3.829,11.487-3.133
				c0,0,1.741,3.829,0.696,14.969L112.518,412.284z"/>

				<line fill="#EAC8C1" stroke="#755446" stroke-width="1.8101" stroke-miterlimit="10" x1="129.227" y1="399.056" x2="129.923" y2="408.803"/>

				<line fill="#EAC8C1" stroke="#755446" stroke-width="1.8101" stroke-miterlimit="10" x1="138.625" y1="397.315" x2="139.322" y2="406.714"/>
		</g>
		<path fill="#B3774A" stroke="#704121" stroke-width="1.8101" stroke-miterlimit="10" d="M180.955,408.712
			c0.029-0.666-0.068-1.335-0.31-1.965c-2.215-5.776-15.768-15.175-88.743,2.056l-21.305,9.999l-23.872-1.644
			c4.873,5.918,38.633,10.113,56.991,5.222c32.665-8.703,55.253-2.785,55.253-2.785s11.8,6.239,21.075-8.072
			C180.589,410.682,180.912,409.7,180.955,408.712z"/>
		<path fill="#BF9C8E" stroke="#755446" stroke-width="1.8101" stroke-miterlimit="10" d="M31.735,402.222
			c-0.138,1.301-0.028,2.681,0.371,4.144c3.133,11.487,31.329,16.361,31.329,16.361s6.266,2.785,40.032-10.095
			c25.405-9.69,79.716-18.101,75.191-0.348c0,0,3.481-1.392,2.219-6.233c-1.444-5.539-18.232-10.824-47.125-6.299
			c-12.081,1.892-21.382,4.178-27.815,5.402c-6.903,1.313-13.687,3.088-20.389,5.2c-12.744,4.016-50.349,6.631-51.319-6.967"/>
	</g>
	<g>
		<path fill="#6B6384" stroke="#89839B" stroke-width="2.0886" stroke-miterlimit="10" d="M362.192,105.043
			c-1.011,12.818-2.784,25.574-5.299,38.157c-24.578-10.249-50.095-18.248-76.126-23.863c4.189-12.673,9.704-24.911,16.42-36.45
			c2.784-4.784,7.228-8.546,12.619-9.796c0.033-0.008,0.066-0.015,0.099-0.023c4.498-1.022,9.205-0.627,13.74,0.22
			c14.483,2.705,28.389,10.595,36.881,22.427c1.348,1.878,2.04,4.159,1.879,6.465C362.338,103.134,362.267,104.088,362.192,105.043z
			"/>
		<path fill="#3E354F" stroke="#675E7C" stroke-width="2.0886" stroke-miterlimit="10" d="M248.82,105.838
			c-0.02,0.057-0.039,0.114-0.056,0.171c11.913,0.53,23.523,5.388,31.543,13.268c0.906-0.285,1.791-0.637,2.642-1.051
			c-5.211-7.889-14.287-13.646-24.341-15.493c-2.435-0.447-5.099-0.648-7.293,0.396C250.142,103.687,249.215,104.718,248.82,105.838
			z"/>
		<path fill="#3E354F" stroke="#675E7C" stroke-width="2.0886" stroke-miterlimit="10" d="M267.906,102.273
			c-0.043,0.041-0.085,0.083-0.127,0.126c9.042,5.593,15.757,14.846,18.209,25.2c0.845,0.141,1.706,0.213,2.569,0.217
			c-0.257-9.151-4.559-18.1-11.514-24.047c-1.685-1.44-3.667-2.763-5.883-2.793C269.977,100.959,268.756,101.463,267.906,102.273z"
			/>
		<path fill="#3E354F" stroke="#675E7C" stroke-width="2.0886" stroke-miterlimit="10" d="M274.45,139.699
			c12.944-4.941,27.765-5.215,41.487-2.398c18.158,3.729,34.894,12.316,51.37,20.81c2.257,1.164,4.514,2.327,6.771,3.491
			c-7.273,5.937-17.738,6.488-26.845,4.176c-9.16-2.326-17.451-7.145-26.053-11.06c-16.459-7.492-34.385-11.736-52.453-12.456
			C270.585,141.297,272.496,140.444,274.45,139.699z"/>
		<path fill="#524B6B" stroke="#89839B" stroke-width="2.0886" stroke-miterlimit="10" d="M296.043,117.551
			c-3.767-0.881-7.547-1.702-11.34-2.463c-6.645-1.332-13.425-1.79-20.198-1.56c-15.528,0.527-31.079,0.375-46.595-0.441
			c-0.642-0.034-1.196,0.489-1.168,1.131c0.259,5.898,2.476,11.686,5.795,16.606c3.945,5.847,9.368,10.565,15.173,14.573
			c0.586,0.404,1.176,0.802,1.771,1.194c6.407,4.215,14.24,5.702,21.729,4.051c8.167-1.8,16.284-4.159,24.442-5.948
			c14.624-3.207,30.817-4.341,43.989,2.324c11.482,8.69,18.114,23.684,30.106,32.213c2.613,1.859,5.466,3.371,8.46,4.514
			c4.688,1.79,10.014,1.109,14.217-1.632c2.624-1.711,5.116-3.731,7.47-5.705c3.727-3.126,7.541-6.375,10.725-10.043
			c0.88-1.014,0.497-2.59-0.713-3.171c-16.616-7.972-32.616-17.226-47.804-27.666C333.94,128.042,315.172,122.025,296.043,117.551z"
			/>
		<g>
			<path fill="#524B6B" d="M332.358,127.823c9.317,0.807,16.473,8.889,20.206,17.464c3.733,8.574,5.062,18.026,8.611,26.678"/>
			<path fill="#89839B" d="M332.358,127.823c0,0,0.22,0.01,0.631,0.029c0.412,0.035,1.016,0.001,1.783,0.158
				c0.381,0.07,0.821,0.111,1.276,0.228c0.455,0.123,0.948,0.256,1.474,0.398c0.513,0.191,1.058,0.393,1.633,0.607
				c0.552,0.265,1.142,0.535,1.736,0.855c1.17,0.668,2.426,1.445,3.601,2.456c1.207,0.974,2.377,2.123,3.474,3.407
				c1.106,1.277,2.133,2.691,3.074,4.191c0.925,1.518,1.746,3.094,2.5,4.761c0.673,1.593,1.308,3.316,1.858,4.959
				c0.552,1.656,0.995,3.311,1.426,4.905c0.84,3.194,1.508,6.181,2.111,8.732c0.612,2.547,1.148,4.664,1.572,6.137
				c0.425,1.476,0.668,2.319,0.668,2.319s-0.098-0.197-0.283-0.565c-0.178-0.371-0.473-0.904-0.776-1.612
				c-0.646-1.4-1.479-3.445-2.333-5.944c-0.868-2.494-1.757-5.437-2.727-8.557c-0.477-1.563-1.03-3.152-1.569-4.767
				c-0.568-1.619-1.167-3.176-1.875-4.803c-0.67-1.533-1.445-3.081-2.297-4.52c-0.884-1.423-1.761-2.828-2.767-4.069
				c-0.998-1.242-2.01-2.414-3.084-3.406c-1.051-1.021-2.152-1.86-3.195-2.603c-0.529-0.359-1.066-0.655-1.559-0.975
				c-0.52-0.27-1.014-0.526-1.478-0.766c-0.485-0.201-0.938-0.389-1.358-0.563c-0.42-0.177-0.823-0.274-1.182-0.398
				c-0.714-0.253-1.322-0.351-1.719-0.452C332.572,127.872,332.358,127.823,332.358,127.823z"/>
		</g>
		<path fill="#494263" stroke="#675E7C" stroke-width="2.0886" stroke-miterlimit="10" d="M283.044,109.863
			c8.323,1.639,47.925,11.192,75.206,24.737c0.909,0.451,1.389,1.458,1.189,2.449l0,0c-0.29,1.439-1.855,2.199-3.182,1.553
			c-26.318-12.806-64.241-22.424-74.093-24.456c-1.372-0.283-2.116-1.752-1.547-3.024l0,0
			C281.035,110.187,282.035,109.664,283.044,109.863z"/>
	</g>
</g>
</svg>
