<?xml version="1.0" encoding="utf-8"?>
<!-- Generator: Adobe Illustrator 18.1.1, SVG Export Plug-In . SVG Version: 6.00 Build 0)  -->
<svg version="1.1" id="Layer_1" xmlns="http://www.w3.org/2000/svg" xmlns:xlink="http://www.w3.org/1999/xlink" x="0px" y="0px"
	 width="500px" height="500px" viewBox="0 0 500 500" enable-background="new 0 0 500 500" xml:space="preserve">
<g>
	<g>
		<path fill="#F2BB64" stroke="#A06D24" stroke-width="3.2978" stroke-miterlimit="10" d="M117.248,394.562
			c-16.722,3.088-33.985,3.286-51.915-0.08c-2.225-0.418-3.951-2.012-4.412-3.998l-4.988-21.501
			c-0.689-2.969,2.125-5.613,5.496-5.226c19.276,2.214,37.578,2.553,54.407,0.06c2.889-0.428,5.495,1.611,5.495,4.223v21.978
			C121.331,392.197,119.641,394.12,117.248,394.562z"/>
		<path fill="#F2BB64" stroke="#A06D24" stroke-width="3.2978" stroke-miterlimit="10" d="M244.24,393.541
			c16.722,2.985,33.985,3.177,51.915-0.077c2.225-0.404,3.951-1.946,4.412-3.865l4.988-20.789c0.689-2.87-2.125-5.427-5.496-5.053
			c-19.276,2.141-37.578,2.469-54.407,0.058c-2.889-0.414-5.495,1.558-5.495,4.083v21.251
			C240.157,391.255,241.848,393.114,244.24,393.541z"/>
		<path fill="#F2BB64" stroke="#A06D24" stroke-width="3.2978" stroke-miterlimit="10" d="M256.767,334.849
			c16.722,3.19,33.985,3.394,51.915-0.082c2.225-0.431,3.951-2.079,4.412-4.13l4.988-22.212c0.689-3.067-2.125-5.799-5.496-5.399
			c-19.276,2.287-37.578,2.638-54.407,0.062c-2.889-0.442-5.495,1.664-5.495,4.362l0,22.705
			C252.684,332.405,254.375,334.392,256.767,334.849z"/>
		<path fill="#F2BB64" stroke="#A06D24" stroke-width="3.2978" stroke-miterlimit="10" d="M151.073,304.482
			c-16.794,3.19-34.062,3.394-51.914-0.082c-2.215-0.431-3.904-2.079-4.318-4.13l-4.48-22.212c-0.619-3.067,2.257-5.799,5.62-5.399
			c19.224,2.287,37.517,2.638,54.405,0.062c2.899-0.442,5.457,1.664,5.396,4.362l-0.519,22.705
			C155.211,302.039,153.475,304.025,151.073,304.482z"/>
		<path fill="#F2BB64" stroke="#A06D24" stroke-width="3.2978" stroke-miterlimit="10" d="M210.416,304.482
			c16.794,3.19,34.062,3.394,51.914-0.082c2.215-0.431,3.904-2.079,4.318-4.13l4.48-22.212c0.619-3.067-2.258-5.799-5.62-5.399
			c-19.224,2.287-37.517,2.638-54.405,0.062c-2.899-0.442-5.457,1.664-5.396,4.362l0.519,22.705
			C206.277,302.039,208.013,304.025,210.416,304.482z"/>
		<path fill="#F2BB64" stroke="#A06D24" stroke-width="3.2978" stroke-miterlimit="10" d="M157.784,365.215
			c-16.794,3.19-34.062,3.394-51.914-0.082c-2.215-0.431-3.904-2.079-4.318-4.13l-4.48-22.212c-0.619-3.067,2.257-5.799,5.62-5.399
			c19.224,2.287,37.517,2.638,54.405,0.062c2.899-0.442,5.457,1.664,5.396,4.362l-0.519,22.705
			C161.922,362.772,160.186,364.759,157.784,365.215z"/>
		<path fill="#F2BB64" stroke="#A06D24" stroke-width="3.2978" stroke-miterlimit="10" d="M203.705,365.215
			c16.794,3.19,34.062,3.394,51.914-0.082c2.215-0.431,3.904-2.079,4.318-4.13l4.48-22.212c0.619-3.067-2.258-5.799-5.62-5.399
			c-19.224,2.287-37.517,2.638-54.405,0.062c-2.899-0.442-5.457,1.664-5.396,4.362l0.519,22.705
			C199.566,362.772,201.302,364.759,203.705,365.215z"/>
		<path fill="#F2BB64" stroke="#A06D24" stroke-width="3.2978" stroke-miterlimit="10" d="M104.721,334.849
			c-16.722,3.19-33.985,3.394-51.915-0.082c-2.225-0.431-3.951-2.079-4.412-4.13l-4.988-22.212
			c-0.689-3.067,2.125-5.799,5.496-5.399c19.276,2.287,37.578,2.638,54.407,0.062c2.889-0.442,5.495,1.664,5.495,4.362v22.705
			C108.804,332.405,107.114,334.392,104.721,334.849z"/>
		<path fill="#F2BB64" stroke="#A06D24" stroke-width="3.2978" stroke-miterlimit="10" d="M206.235,334.849
			c-17.092,3.19-34.379,3.394-51.906-0.082c-2.175-0.431-3.71-2.079-3.933-4.13l-2.41-22.212c-0.333-3.067,2.798-5.799,6.123-5.399
			c19.011,2.287,37.272,2.638,54.4,0.062c2.94-0.442,5.302,1.664,4.989,4.362l-2.635,22.705
			C210.602,332.405,208.681,334.392,206.235,334.849z"/>
		<path fill="#F2BB64" stroke="#A06D24" stroke-width="3.2978" stroke-miterlimit="10" d="M203.054,395.582
			c-16.159,3.19-32.502,3.394-49.072-0.082c-2.056-0.431-3.508-2.079-3.718-4.13l-2.278-22.212
			c-0.315-3.067,2.645-5.799,5.788-5.399c17.973,2.287,35.237,2.638,51.43,0.062c2.779-0.442,5.013,1.664,4.717,4.362l-2.491,22.705
			C207.182,393.139,205.366,395.126,203.054,395.582z"/>
		<path fill="#F2BB64" stroke="#A06D24" stroke-width="3.2978" stroke-miterlimit="10" d="M91.001,274.115
			c-16.722,3.19-33.985,3.394-51.915-0.082c-2.225-0.431-3.951-2.079-4.412-4.13l-4.988-22.212
			c-0.689-3.067,2.125-5.799,5.496-5.399c19.276,2.287,37.578,2.638,54.407,0.062c2.889-0.442,5.495,1.664,5.495,4.362l0,22.705
			C95.084,271.672,93.393,273.659,91.001,274.115z"/>
		<path fill="#F2BB64" stroke="#A06D24" stroke-width="3.2978" stroke-miterlimit="10" d="M206.235,274.115
			c-17.092,3.19-34.379,3.394-51.906-0.082c-2.175-0.431-3.71-2.079-3.933-4.13l-2.41-22.212c-0.333-3.067,2.798-5.799,6.123-5.399
			c19.011,2.287,37.272,2.638,54.4,0.062c2.94-0.442,5.302,1.664,4.989,4.362l-2.635,22.705
			C210.602,271.672,208.681,273.659,206.235,274.115z"/>
		<path fill="#F2BB64" stroke="#A06D24" stroke-width="3.2978" stroke-miterlimit="10" d="M270.488,274.115
			c16.722,3.19,33.985,3.394,51.915-0.082c2.225-0.431,3.951-2.079,4.412-4.13l4.988-22.212c0.689-3.067-2.125-5.799-5.496-5.399
			c-19.276,2.287-37.578,2.638-54.407,0.062c-2.889-0.442-5.495,1.664-5.495,4.362v22.705
			C266.405,271.672,268.095,273.659,270.488,274.115z"/>
		<path fill="#F4C573" stroke="#A06D24" stroke-width="3.2978" stroke-miterlimit="10" d="M259.676,365.215
			c15.199,3.19,30.89,3.394,47.188-0.082c2.022-0.431,3.592-2.079,4.01-4.13l4.534-22.212c0.626-3.067-1.931-5.799-4.996-5.399
			c-17.521,2.287-34.156,2.638-49.452,0.062c-2.625-0.442-4.995,1.664-4.995,4.362v22.705
			C255.965,362.772,257.502,364.759,259.676,365.215z"/>
		<path fill="#F4C573" stroke="#A06D24" stroke-width="3.2978" stroke-miterlimit="10" d="M267.505,304.482
			c16.722,3.19,33.985,3.394,51.915-0.082c2.225-0.431,3.951-2.079,4.412-4.13l4.988-22.212c0.689-3.067-2.125-5.799-5.496-5.399
			c-19.276,2.287-37.578,2.638-54.407,0.062c-2.889-0.442-5.495,1.664-5.495,4.362l0,22.705
			C263.422,302.039,265.113,304.025,267.505,304.482z"/>
		<path fill="#F4C573" stroke="#A06D24" stroke-width="3.2978" stroke-miterlimit="10" d="M211.907,274.115
			c16.794,3.19,34.062,3.394,51.914-0.082c2.215-0.431,3.904-2.079,4.318-4.13l4.48-22.212c0.619-3.067-2.258-5.799-5.62-5.399
			c-19.224,2.287-37.517,2.638-54.405,0.062c-2.899-0.442-5.457,1.664-5.396,4.362l0.519,22.705
			C207.769,271.672,209.505,273.659,211.907,274.115z"/>
		<path fill="#F4C573" stroke="#A06D24" stroke-width="3.2978" stroke-miterlimit="10" d="M205.047,334.849
			c16.794,3.19,34.062,3.394,51.914-0.082c2.215-0.431,3.904-2.079,4.318-4.13l4.48-22.212c0.619-3.067-2.258-5.799-5.62-5.399
			c-19.224,2.287-37.517,2.638-54.405,0.062c-2.899-0.442-5.457,1.664-5.396,4.362l0.519,22.705
			C200.908,332.405,202.644,334.392,205.047,334.849z"/>
		<path fill="#F4C573" stroke="#A06D24" stroke-width="3.2978" stroke-miterlimit="10" d="M198.784,395.582
			c16.794,3.19,34.062,3.394,51.914-0.082c2.215-0.431,3.904-2.079,4.318-4.13l4.48-22.212c0.619-3.067-2.258-5.799-5.62-5.399
			c-19.224,2.287-37.517,2.638-54.405,0.062c-2.899-0.442-5.457,1.664-5.396,4.362l0.519,22.705
			C194.645,393.139,196.381,395.126,198.784,395.582z"/>
		<path fill="#F4C573" stroke="#A06D24" stroke-width="3.2978" stroke-miterlimit="10" d="M93.984,304.482
			c-16.722,3.19-33.985,3.394-51.915-0.082c-2.225-0.431-3.951-2.079-4.412-4.13l-4.988-22.212
			c-0.689-3.067,2.125-5.799,5.496-5.399c19.276,2.287,37.578,2.638,54.407,0.062c2.889-0.442,5.495,1.664,5.495,4.362v22.705
			C98.067,302.039,96.376,304.025,93.984,304.482z"/>
		<path fill="#F4C573" stroke="#A06D24" stroke-width="3.2978" stroke-miterlimit="10" d="M107.406,365.215
			c-16.722,3.19-33.985,3.394-51.915-0.082c-2.225-0.431-3.951-2.079-4.412-4.13l-4.988-22.212
			c-0.689-3.067,2.125-5.799,5.496-5.399c19.276,2.287,37.578,2.638,54.407,0.062c2.889-0.442,5.495,1.664,5.495,4.362v22.705
			C111.489,362.772,109.798,364.759,107.406,365.215z"/>
		<path fill="#F4C573" stroke="#A06D24" stroke-width="3.2978" stroke-miterlimit="10" d="M162.705,395.582
			c-16.794,3.19-34.062,3.394-51.914-0.082c-2.215-0.431-3.904-2.079-4.318-4.13l-4.48-22.212c-0.619-3.067,2.257-5.799,5.62-5.399
			c19.224,2.287,37.517,2.638,54.405,0.062c2.899-0.442,5.457,1.664,5.396,4.362l-0.519,22.705
			C166.844,393.139,165.108,395.126,162.705,395.582z"/>
		<path fill="#F4C573" stroke="#A06D24" stroke-width="3.2978" stroke-miterlimit="10" d="M156.441,334.849
			c-16.794,3.19-34.062,3.394-51.914-0.082c-2.215-0.431-3.904-2.079-4.318-4.13l-4.48-22.212c-0.619-3.067,2.257-5.799,5.62-5.399
			c19.224,2.287,37.517,2.638,54.405,0.062c2.899-0.442,5.457,1.664,5.396,4.362l-0.519,22.705
			C160.58,332.405,158.844,334.392,156.441,334.849z"/>
		<path fill="#F4C573" stroke="#A06D24" stroke-width="3.2978" stroke-miterlimit="10" d="M149.581,274.115
			c-16.794,3.19-34.062,3.394-51.914-0.082c-2.215-0.431-3.904-2.079-4.318-4.13l-4.48-22.212c-0.619-3.067,2.257-5.799,5.62-5.399
			c19.224,2.287,37.517,2.638,54.405,0.062c2.899-0.442,5.457,1.664,5.396,4.362l-0.519,22.705
			C153.72,271.672,151.984,273.659,149.581,274.115z"/>
		<path fill="#F4C573" stroke="#A06D24" stroke-width="3.2978" stroke-miterlimit="10" d="M201.994,365.215
			c-15.848,3.19-31.876,3.394-48.128-0.082c-2.016-0.431-3.44-2.079-3.646-4.13l-2.234-22.212c-0.309-3.067,2.594-5.799,5.677-5.399
			c17.627,2.287,34.559,2.638,50.44,0.062c2.726-0.442,4.916,1.664,4.626,4.362l-2.443,22.705
			C206.042,362.772,204.261,364.759,201.994,365.215z"/>
		<path fill="#F4C573" stroke="#A06D24" stroke-width="3.2978" stroke-miterlimit="10" d="M206.235,304.482
			c-17.092,3.19-34.379,3.394-51.906-0.082c-2.175-0.431-3.71-2.079-3.933-4.13l-2.41-22.212c-0.333-3.067,2.798-5.799,6.123-5.399
			c19.011,2.287,37.272,2.638,54.4,0.062c2.94-0.442,5.302,1.664,4.989,4.362l-2.635,22.705
			C210.602,302.039,208.681,304.025,206.235,304.482z"/>
	</g>
	<path fill="#C18B42" stroke="#87581A" stroke-width="3.2978" stroke-miterlimit="10" d="M93.168,225.437
		c5.025-11.141,34.71-75.904,66.415-122.466c0.522-0.767,1.469-1.159,2.375-0.962c6.342,1.383,11.874,4.42,16.767,8.761
		c0.809,0.718,0.984,1.907,0.431,2.836c-21.23,35.687-58.341,110.277-64.573,122.854c-0.515,1.039-1.736,1.532-2.823,1.129
		c-6.46-2.396-12.478-5.436-17.875-9.384C93.021,227.573,92.728,226.414,93.168,225.437z"/>
	<path fill="#C18B42" stroke="#87581A" stroke-width="3.2978" stroke-miterlimit="10" d="M268.321,225.437
		c-5.025-11.141-34.71-75.904-66.415-122.466c-0.522-0.767-1.469-1.159-2.375-0.962c-6.342,1.383-11.874,4.42-16.767,8.761
		c-0.809,0.718-0.984,1.907-0.431,2.836c21.23,35.687,58.341,110.277,64.573,122.854c0.515,1.039,1.736,1.532,2.823,1.129
		c6.46-2.396,12.478-5.436,17.875-9.384C268.467,227.573,268.761,226.414,268.321,225.437z"/>
	<path fill="#DB953A" stroke="#915E1A" stroke-width="3.2978" stroke-miterlimit="10" d="M344.056,209.106H203.431h-45.372H17.433
		c-2.626,0-4.679,2.221-4.42,4.783l2.379,23.578c0.524,5.194,4.98,9.151,10.304,9.151h132.363h45.372h132.363
		c5.324,0,9.78-3.958,10.304-9.151l2.379-23.578C348.734,211.327,346.682,209.106,344.056,209.106z"/>
	<path fill="#C6812E" stroke="#915D19" stroke-width="3.2978" stroke-miterlimit="10" d="M336.744,199.625
		c0,0-43.327-10.305-62.145-11.13h-77.422h-6.285h-20.295h-6.285H86.89c-18.818,0.824-62.145,11.13-62.145,11.13
		c-6.223,1.962-5.584,9.069-2.961,9.069h140.494h2.033h32.865h2.033h140.494C342.328,208.694,342.967,201.587,336.744,199.625z"/>
	<path fill="#F7C67F" stroke="#936221" stroke-width="3.2978" stroke-miterlimit="10" d="M122.47,239.802
		c5.886-10.71,39.82-73.353,57.99-126.674c0.299-0.879,0.044-1.87-0.659-2.477c-4.916-4.239-10.668-6.836-17.078-8.139
		c-1.06-0.215-2.116,0.359-2.527,1.359c-15.77,38.413-53.097,112.896-59.406,125.434c-0.521,1.035-0.181,2.308,0.794,2.935
		c5.796,3.724,11.843,6.709,18.242,8.65C120.852,241.202,121.954,240.741,122.47,239.802z"/>
	<circle fill="#A06D24" stroke="#89591A" stroke-width="3.2978" stroke-miterlimit="10" cx="115.543" cy="226.557" r="4.397"/>
	<path fill="#F7C67F" stroke="#936221" stroke-width="3.2978" stroke-miterlimit="10" d="M239.018,239.802
		c-5.886-10.71-39.82-73.353-57.99-126.674c-0.299-0.879-0.044-1.87,0.659-2.477c4.916-4.239,10.668-6.836,17.078-8.139
		c1.06-0.215,2.116,0.359,2.527,1.359c15.77,38.413,53.097,112.896,59.406,125.434c0.521,1.035,0.181,2.308-0.794,2.935
		c-5.796,3.724-11.843,6.709-18.242,8.65C240.637,241.202,239.534,240.741,239.018,239.802z"/>
	<circle fill="#A06D24" stroke="#89591A" stroke-width="3.2978" stroke-miterlimit="10" cx="245.946" cy="226.557" r="4.397"/>
</g>
</svg>
