<?xml version="1.0" encoding="utf-8"?>
<!-- Generator: Adobe Illustrator 18.1.1, SVG Export Plug-In . SVG Version: 6.00 Build 0)  -->
<svg version="1.1" id="Layer_1" xmlns="http://www.w3.org/2000/svg" xmlns:xlink="http://www.w3.org/1999/xlink" x="0px" y="0px" width="500px" height="500px" viewBox="0 0 500 500" enable-background="new 0 0 500 500" xml:space="preserve"><clipPath id="SVGID_2_">
			<use xlink:href="#SVGID_1_" overflow="visible"/>
		</clipPath>
<symbol id="New_Symbol_1" viewBox="-92.65 -31.65 185.3 63.3">
	<path fill="#E3ECEC" stroke="#838E8D" stroke-width="1.3" stroke-miterlimit="10" d="M0,8.912c-40.34,0-82.5,8.837-82.5-2.185
		c0-5.807,22.82-29.014,37.309-32.66C-32.179-29.208-19.087-31,0-31s32.179,1.792,45.191,5.067C59.68-22.287,82.5,0.92,82.5,6.727
		C82.5,17.749,40.34,8.912,0,8.912z"/>
	<path fill="#EDF7F7" stroke="#838E8D" stroke-width="1.3" stroke-miterlimit="10" d="M92,3.5C92-11.688,50.81-24,0-24
		S-92-11.688-92,3.5S-50.81,31,0,31S92,18.688,92,3.5z"/>
	<g>
		<defs>
			<path id="SVGID_1_" d="M65.5,6.75C65.5-2.371,36.175-9.766,0-9.766S-65.5-2.371-65.5,6.75S-36.175,23.266,0,23.266
				S65.5,15.871,65.5,6.75z"/>
		</defs>
		<use xlink:href="#SVGID_1_" overflow="visible" fill="#E3ECEC"/>

		<path clip-path="url(#SVGID_2_)" fill="#F2F7F7" stroke="#A8B2B1" stroke-width="1.3" stroke-miterlimit="10" d="M61-0.25
			c0-8.495-27.311-15.381-61-15.381S-61-8.745-61-0.25s27.311,15.381,61,15.381S61,8.245,61-0.25z"/>
		<use xlink:href="#SVGID_1_" overflow="visible" fill="none" stroke="#A4B2B7" stroke-width="0.8" stroke-miterlimit="10"/>
	</g>
</symbol>
<g>
	<g>

			<use xlink:href="#New_Symbol_1" width="185.3" height="63.3" x="-92.65" y="-31.65" transform="matrix(1.2258 0 0 -1.2258 126.1356 169.9875)" overflow="visible"/>

			<use xlink:href="#New_Symbol_1" width="185.3" height="63.3" x="-92.65" y="-31.65" transform="matrix(1.2258 0 0 -1.2258 373.8644 169.9875)" overflow="visible"/>
	</g>
	<g>

			<use xlink:href="#New_Symbol_1" width="185.3" height="63.3" x="-92.65" y="-31.65" transform="matrix(1.2258 0 0 -1.2258 126.1356 330.0125)" overflow="visible"/>

			<use xlink:href="#New_Symbol_1" width="185.3" height="63.3" x="-92.65" y="-31.65" transform="matrix(1.2258 0 0 -1.2258 373.8644 330.0125)" overflow="visible"/>
	</g>

		<use xlink:href="#New_Symbol_1" width="185.3" height="63.3" x="-92.65" y="-31.65" transform="matrix(1.2258 0 0 -1.2258 250 250)" overflow="visible"/>
</g>
</svg>
