<?xml version="1.0" encoding="utf-8"?>
<!-- Generator: Adobe Illustrator 19.0.0, SVG Export Plug-In . SVG Version: 6.00 Build 0)  -->
<!DOCTYPE svg PUBLIC "-//W3C//DTD SVG 1.0//EN" "http://www.w3.org/TR/2001/REC-SVG-20010904/DTD/svg10.dtd">
<svg version="1.0" xmlns="http://www.w3.org/2000/svg" xmlns:xlink="http://www.w3.org/1999/xlink" x="0px" y="0px"
	 viewBox="0 0 648 432" enable-background="new 0 0 648 432" xml:space="preserve">
<symbol  id="rock1" viewBox="-21.1 -9 42.1 17.9">
	<path id="XMLID_136_" fill="#7F7B69" stroke="#4C493B" stroke-linecap="round" stroke-linejoin="round" stroke-miterlimit="10" d="
		M-20-5.4C-23.8,0.4-7.9,8,2.9,8.5C13.7,8.9,22.4-1.1,20.2-5.8S-18.2-8-20-5.4z"/>
</symbol>
<symbol  id="rock2" viewBox="-22.9 -10.2 45.7 20.4">
	<path id="XMLID_135_" fill="#969386" stroke="#5E5B4C" stroke-linecap="round" stroke-linejoin="round" stroke-miterlimit="10" d="
		M15.5,7.3C7.8,11.8,3.3,9-2.7,6.9S-26.9-3.9-21.3-7s24.2-3.5,36.8-1.7S20.6,4.3,15.5,7.3z"/>
</symbol>
<symbol  id="rock3" viewBox="-9.1 -4.2 18.2 8.4">
	<path id="XMLID_94_" fill="#9B9680" stroke="#686451" stroke-linecap="round" stroke-linejoin="round" stroke-miterlimit="10" d="
		M8.6-1.1C7.3,4.1,0.4,5-5.3,2s-4.3-6.1,5.2-5.6S8.6-1.1,8.6-1.1z"/>
</symbol>
<g id="Layer_4">
	<rect id="XMLID_95_" x="0" fill="#B0DEEA" width="648" height="245.1"/>
</g>
<g id="Layer_2">

		<rect id="XMLID_86_" x="0" y="148.8" fill="#71ACD8" stroke="#356B93" stroke-linecap="round" stroke-linejoin="round" stroke-miterlimit="10" width="648" height="283.2"/>
	<path id="XMLID_39_" fill="#7F512F" stroke="#633C19" stroke-linecap="round" stroke-linejoin="round" stroke-miterlimit="10" d="
		M79.4,174.8c0,0,97.5-7.3,101.7-10.5c1-0.8,209.3,5.7,209.3,5.7s-148.1,25.4-149.3,26.2C240,197,83.5,184.4,83.5,184.4L79.4,174.8z
		"/>
	<path id="XMLID_96_" fill="#747C52" d="M122.7,132c-3.5,17.6,5.2,46,8.1,46.7s10.4,0.6,10.6,0s-2.5-41.5-4.1-44.4
		C135.1,130.4,122.7,132,122.7,132z"/>
	<path id="XMLID_11_" fill="#E5D8DC" stroke="#3A592E" stroke-linecap="round" stroke-linejoin="round" stroke-miterlimit="10" d="
		M162.5,118.5c5.4,8.5,21,40.7,14.9,72.6c-19.5,8.8-36-9.8-36-9.8c0.5-19.1-6.8-58.6-6.8-58.6L162.5,118.5z"/>
	<path id="XMLID_6_" fill="#C48A5E" stroke="#5B3A1E" stroke-linecap="round" stroke-linejoin="round" stroke-miterlimit="10" d="
		M136.6,121.1c2.9,7.8,12.1,11.6,19.2,11.3s10.7-5.7,9.8-9c-0.9-3.3-1.9-6.5-2.5-6.8C162.5,116.3,138,117,136.6,121.1z"/>
	<path id="XMLID_27_" fill="#747C52" stroke="#43562A" stroke-linecap="round" stroke-linejoin="round" stroke-miterlimit="10" d="
		M165.1,112.7c12.2-2.1,33.3,57,34.8,63.1c-8.8,18.3-27.3,16.9-27.3,16.9C174.1,183.2,165.1,112.7,165.1,112.7z"/>
	<path id="XMLID_17_" fill="#E5AC53" stroke="#664630" stroke-linecap="round" stroke-linejoin="round" stroke-miterlimit="10" d="
		M182.9,186.7l-0.1-0.2c-1.5-1.6-1.5-4.1,0.1-5.7l44.1-42.6c1.6-1.5,4.1-1.5,5.7,0.1l0.1,0.2c1.5,1.6,1.5,4.1-0.1,5.7l-44.1,42.6
		C187,188.3,184.5,188.3,182.9,186.7z"/>
	<path id="XMLID_15_" fill="#C48A5E" stroke="#5B3A1E" stroke-linecap="round" stroke-linejoin="round" stroke-miterlimit="10" d="
		M155.8,178c3.1,0.9,20.2-2.6,22.8-4.8c4-2.2,15.5-5.3,22.2,2.9s-8.2,13.8-8.2,13.8c-4-0.3-12.6-7.4-12.6-7.4
		c-10.5,4.8-25,9.8-29.9,7.6C145.1,187.9,155.8,178,155.8,178z"/>
	<path id="XMLID_14_" fill="#747C52" stroke="#43562A" stroke-linecap="round" stroke-linejoin="round" stroke-miterlimit="10" d="
		M133.7,111.1c-14.6,8.7-17.1,11.5-17.2,11.9c-9,16.7-6,49.4-6,55.3c0,5.9,37.5,14.3,45,12.2c1.7-5.4,5-14.7,5-14.7
		c-12.6,0.5-27.3-6.7-27.3-6.7c-1.1-2.3-1.9-27.6-1.9-27.6"/>
	<path id="XMLID_13_" fill="#747C52" stroke="#43562A" stroke-linecap="round" stroke-linejoin="round" stroke-miterlimit="10" d="
		M157.5,111.5c4.8,10.1,12.1,35.2,12.2,36.9c3.9-11.8,5.7-13.2,5.6-16.9c-0.2-3.7-5.9-19.4-11.8-22.2
		C160.6,110.4,157.5,111.5,157.5,111.5z"/>
	<path id="XMLID_10_" fill="#C48A5E" stroke="#5B3A1E" stroke-linecap="round" stroke-linejoin="round" stroke-miterlimit="10" d="
		M141.9,125.2c0.2-7.6,0.2-18.9,0.2-18.9c3.4-1.9,17.2,0.3,17.2,0.3c-0.5,7.3,0.5,15.8,0.5,15.8"/>
	<path id="XMLID_12_" fill="#747C52" stroke="#43562A" stroke-linecap="round" stroke-linejoin="round" stroke-miterlimit="10" d="
		M136.1,107.5c-6.7,4.5-9.3,18.3-7.8,25.1c1.6,6.8,13.2,13.5,15.5,16.7c1.9-9-1.6-39.2-2.2-39.1
		C141.1,110.4,136.1,107.5,136.1,107.5z"/>
	<path id="XMLID_16_" fill="#C48A5E" stroke="#5B3A1E" stroke-linecap="round" stroke-linejoin="round" stroke-miterlimit="10" d="
		M211.5,165.2c2,6.4-1.2,17.1-8.6,18.6C194.7,181,198.2,166.7,211.5,165.2z"/>

		<circle id="XMLID_18_" fill="#7F7477" stroke="#473F41" stroke-linecap="round" stroke-linejoin="round" stroke-miterlimit="10" cx="233.5" cy="163.4" r="13.9"/>

		<circle id="XMLID_20_" fill="#E0E0C7" stroke="#919077" stroke-linecap="round" stroke-linejoin="round" stroke-miterlimit="10" cx="232.5" cy="164.4" r="12"/>
	<path id="XMLID_22_" fill="#7F777A" stroke="#514A4C" stroke-linecap="round" stroke-linejoin="round" stroke-miterlimit="10" d="
		M231.1,137.7c0.5-0.7,119.1-116.4,119.1-116.4c-72,74.2-116.4,118.9-116.4,118.9S231.6,137.7,231.1,137.7z"/>

		<ellipse id="XMLID_19_" transform="matrix(0.8466 -0.5322 0.5322 0.8466 -25.881 156.2235)" fill="none" stroke="#514A4C" stroke-linecap="round" stroke-linejoin="round" stroke-miterlimit="10" cx="258.1" cy="123" rx="2.5" ry="5.1"/>

		<circle id="XMLID_21_" fill="#7F7477" stroke="#473F41" stroke-linecap="round" stroke-linejoin="round" stroke-miterlimit="10" cx="227.8" cy="167.1" r="13.9"/>
	<path id="XMLID_4_" fill="#C48A5E" stroke="#5B3A1E" stroke-linecap="round" stroke-linejoin="round" stroke-miterlimit="10" d="
		M176.5,82.4c0,17.6-3.5,28.3-24.5,29.4c-15.1,0.8-27.7-12.6-27.7-30.2s12.3-31.8,27.4-31.8C167,49.8,176.5,64.8,176.5,82.4z"/>

		<ellipse id="XMLID_24_" transform="matrix(0.8466 -0.5322 0.5322 0.8466 -1.4223 168.8239)" fill="none" stroke="#514A4C" stroke-linecap="round" stroke-linejoin="round" stroke-miterlimit="10" cx="292.2" cy="86.9" rx="2.1" ry="4.4"/>

		<ellipse id="XMLID_25_" transform="matrix(0.8466 -0.5322 0.5322 0.8466 22.6467 181.5366)" fill="none" stroke="#514A4C" stroke-linecap="round" stroke-linejoin="round" stroke-miterlimit="10" cx="326.3" cy="51.5" rx="1.8" ry="3.7"/>
	<path id="XMLID_7_" fill="#C48A5E" stroke="#5B3A1E" stroke-linecap="round" stroke-linejoin="round" stroke-miterlimit="10" d="
		M157.5,81c4.1,4.1,4.6,12-2.2,11.7"/>
	<path id="XMLID_8_" fill="none" stroke="#231F20" stroke-linecap="round" stroke-linejoin="round" stroke-miterlimit="10" d="
		M145.4,94.9c3.1,5.4,14,8.8,18.4,0.5"/>
	<path id="XMLID_5_" fill="#C48A5E" stroke="#5B3A1E" stroke-linecap="round" stroke-linejoin="round" stroke-miterlimit="10" d="
		M126.5,81c-7.3-7.1-11.1-4.3-10.6,3.3c0.5,7.6,9.5,11.4,11.1,5.7"/>
	<path id="XMLID_9_" fill="none" stroke="#231F20" stroke-linecap="round" stroke-linejoin="round" stroke-miterlimit="10" d="
		M143.6,96.6c1.1-2.2,3.9-2.6,3.9-2.6"/>
	<path id="XMLID_34_" fill="#B57B4B" stroke="#633C19" stroke-linecap="round" stroke-linejoin="round" stroke-miterlimit="10" d="
		M86.7,191.3c10.1,27.4,39.5,107.7,180.7,99.2c68.2-6.5,102.5-38.3,115.4-81.1s-7.7-29.5-7.7-29.5C328.8,195.7,173,217.1,86.7,191.3
		z"/>
	<path id="XMLID_35_" fill="none" stroke="#231F20" stroke-linecap="round" stroke-linejoin="round" stroke-miterlimit="10" d="
		M295.7,286.3"/>
	<path id="XMLID_40_" fill="none" stroke="#633C19" stroke-linecap="round" stroke-linejoin="round" stroke-miterlimit="10" d="
		M99.6,217.5c33.1,10.1,208.6,17.3,278.4-11.7"/>
	<path id="XMLID_31_" fill="#D19462" stroke="#7C4D29" stroke-linecap="round" stroke-linejoin="round" stroke-miterlimit="10" d="
		M77.8,175.2l8.1,22.2c149.3,30.7,304.6-11.7,304.6-11.7l6.9-19.4C271.5,190.5,162.5,199.4,77.8,175.2z"/>
	<path id="XMLID_41_" fill="none" stroke="#633C19" stroke-linecap="round" stroke-linejoin="round" stroke-miterlimit="10" d="
		M139.1,245c52.4,12.1,167.8,8.1,225.9-10.9"/>
	<path id="XMLID_42_" fill="#B57B4B" stroke="#633C19" stroke-linecap="round" stroke-linejoin="round" stroke-miterlimit="10" d="
		M159.3,225.2c0,4.8,2.4,23.4,2.4,23.4"/>
	<path id="XMLID_36_" fill="#D19462" stroke="#7C4D29" stroke-linecap="round" stroke-linejoin="round" stroke-miterlimit="10" d="
		M393.7,157c-7.7,18.6-31.9,104.9-88,126.3c40.3-4.8,82.3-23.8,112.6-116.2c-7.3-10.5-6.9-11.3-6.9-11.3L393.7,157z"/>

		<circle id="XMLID_85_" fill="#AF2E2E" stroke="#512011" stroke-linecap="round" stroke-linejoin="round" stroke-miterlimit="10" cx="318.4" cy="256.1" r="12.6"/>
	<path id="XMLID_38_" fill="none" stroke="#7C4D29" stroke-linecap="round" stroke-linejoin="round" stroke-miterlimit="10" d="
		M411.5,155.8c-16.1,50.4-23.4,97.6-100.5,126.3"/>
	<path id="XMLID_43_" fill="#B57B4B" stroke="#633C19" stroke-linecap="round" stroke-linejoin="round" stroke-miterlimit="10" d="
		M276.7,205.8c-0.4,11.3-0.8,18.2-0.8,18.2"/>
	<path id="XMLID_44_" fill="#B57B4B" stroke="#633C19" stroke-linecap="round" stroke-linejoin="round" stroke-miterlimit="10" d="
		M221.8,252.6c-0.4,6.9-2.4,27.4,12.1,37.1"/>
	<path id="XMLID_26_" fill="none" stroke="#FFFCE6" stroke-linecap="round" stroke-linejoin="round" stroke-miterlimit="10" d="
		M235.9,153.2c5.1,2,22.3-16.7,23.5-26.2c19-1,34.7-37.3,34.7-37.3c10,5.1,32.2-35.6,32.2-35.6c9.5,2.7,22.9-31.2,22.9-31.2
		c-30.5,87.4-38.1,166-33.9,221.4"/>
	<path id="XMLID_45_" fill="none" stroke="#231F20" stroke-linecap="round" stroke-linejoin="round" stroke-miterlimit="10" d="
		M154.1,271.2c44.8,10.5,137.6-0.4,181.6-9.7"/>

		<path id="XMLID_46_" opacity="0.71" fill="#445587" stroke="#82AFD8" stroke-linecap="round" stroke-linejoin="round" stroke-miterlimit="10" d="
		M0,254.2c0,10.8,55.2,25.8,86.3,4c40.7,29,76.7,0.4,76.7,0.4c29.5,16.9,71.4,5.6,78.3-2c25.8,14.1,60.5-6.1,60.5-6.1
		c21,20.2,67,8.5,81.5-2.4c29.9,28.6,74.2,11.7,77.9,3.6c16.1,14.9,56.5,25.8,79.9,3.6c41.2,21.4,105.5,6.9,107-2
		c0,69.8,0,178.6,0,178.6H0C0,432,0,253.4,0,254.2z"/>
	<path id="XMLID_47_" fill="#54B5B2" stroke="#155E5A" stroke-linecap="round" stroke-linejoin="round" stroke-miterlimit="10" d="
		M141.1,391.3c23.7,0,48.1-33.5,63.8-34.9s20.6,3.8,24.8,8.4c4.9-3.1,10.8,6.6,6.6,12.2c3.8,4.5-1.4,12.2-2.4,12.2
		c-12.9,15-52.3,26.5-88.2,12.9"/>
	<path id="XMLID_23_" fill="#D6CEAB" stroke="#918860" stroke-linecap="round" stroke-linejoin="round" stroke-miterlimit="10" d="
		M118.6,56.7c1-10,10.5-26.6,10.5-26.6c4.6-1.5,28.6-3.7,35.4-0.7c9,17.8,9.8,21.7,9.8,21.7C173.2,51.6,118.6,56.7,118.6,56.7z"/>

		<path id="XMLID_37_" opacity="0.77" fill="#398778" stroke="#155E5A" stroke-linecap="round" stroke-linejoin="round" stroke-miterlimit="10" d="
		M148.4,391.3c-9.8-15.1-20.7-22.3-33.7-17.6c-2.2,0.8-2.9,3.6-1.2,5.3c6.2,6.4,16.8,15.8,16.8,15.8c-2.4,8.7-17.4,16.7-13.3,21.3
		c4.2,4.5,29.3-1.7,34.5-11.9"/>
	<path id="XMLID_33_" fill="#725C47" stroke="#54402B" stroke-linecap="round" stroke-linejoin="round" stroke-miterlimit="10" d="
		M115.6,65c0.7,5.6,11,18.3,11,18.3c0.7-4.6,7.3-21.7,7.3-21.7C128.8,59.4,115.6,65,115.6,65z"/>
	<path id="XMLID_49_" fill="#54B5B2" stroke="#155E5A" stroke-linecap="round" stroke-linejoin="round" stroke-miterlimit="10" d="
		M229.5,376.6c2.5,2.8,6.8,0.4,6.8,0.4"/>
	<path id="XMLID_28_" fill="#D6CEAB" stroke="#918860" stroke-linecap="round" stroke-linejoin="round" stroke-miterlimit="10" d="
		M95.1,65.7c5.1,5.6,19.3,7.1,27.6-0.5s19.3,3.9,27.8,3.7s19.3-9.8,28.6-8.5c9.3,1.2,17.6,5.9,17.6,5.9
		c-9.5-15.1-23.4-19.3-23.4-19.3c-31.7-2.7-55.2,5.4-55.2,5.4C112.4,55,95.1,65.7,95.1,65.7z"/>
	<path id="XMLID_29_" fill="#6B654A" stroke="#918860" stroke-linecap="round" stroke-linejoin="round" stroke-miterlimit="10" d="
		M121.7,44.5c1-0.5,25.4-12.9,48.3-3.7c2.4,4.4,3.2,7.8,3.2,7.8c-13.9,0-54.4,5.9-54.4,5.9L121.7,44.5z"/>

		<ellipse id="XMLID_30_" transform="matrix(0.9857 0.1687 -0.1687 0.9857 15.6003 -23.1703)" fill="#231F20" cx="144.2" cy="80.2" rx="1.5" ry="4"/>

		<ellipse id="XMLID_32_" transform="matrix(0.9879 0.155 -0.155 0.9879 14.2773 -24.5703)" fill="#231F20" cx="164.7" cy="79.3" rx="1.5" ry="4"/>
	<path id="XMLID_50_" fill="#54B5B2" stroke="#155E5A" stroke-linecap="round" stroke-linejoin="round" stroke-miterlimit="10" d="
		M211.3,381.5c-7.4,6.3,1.5,16,7.1,12.9"/>

		<path id="XMLID_48_" opacity="0.77" fill="#398778" stroke="#155E5A" stroke-linecap="round" stroke-linejoin="round" stroke-miterlimit="10" d="
		M201.4,392.6c-1.9,1.4-18.8,5.1-16.5,7.2s11.8,9.3,21.5-3.5"/>
	<path id="XMLID_52_" fill="none" stroke="#231F20" stroke-linecap="round" stroke-linejoin="round" stroke-miterlimit="10" d="
		M223.5,368c-3.2,0-5.6,2.5-5.3,6.7"/>

		<ellipse id="XMLID_51_" fill="#231F20" stroke="#231F20" stroke-linecap="round" stroke-linejoin="round" stroke-miterlimit="10" cx="223.8" cy="378.6" rx="0.9" ry="3.1"/>

		<path id="XMLID_54_" opacity="0.77" fill="#398778" stroke="#155E5A" stroke-linecap="round" stroke-linejoin="round" stroke-miterlimit="10" d="
		M208.1,359.4c-8.7-7.4-19.7-7.1-24.5-3.2s-25.2,30.8-30.1,33.8C188.5,375.6,192,362.4,208.1,359.4z"/>

		<path id="XMLID_55_" opacity="0.71" fill="none" stroke="#82AFD8" stroke-linecap="round" stroke-linejoin="round" stroke-miterlimit="10" d="
		M230.2,401.4c-1.5,4.6-14.5,13.9-18.7,14.8"/>

		<path id="XMLID_56_" opacity="0.71" fill="none" stroke="#82AFD8" stroke-linecap="round" stroke-linejoin="round" stroke-miterlimit="10" d="
		M216.3,405.5c-3,4.6-15,7.6-15,7.6"/>

		<path id="XMLID_57_" opacity="0.71" fill="none" stroke="#82AFD8" stroke-linecap="round" stroke-linejoin="round" stroke-miterlimit="10" d="
		M106.2,377.3c-2.2-2.4-7.8-3.3-15.6,1.9c-7.8,5.2-5.8-6.3-11.3-6.3s-8.7,5.2-12.4,3.7"/>

		<path id="XMLID_58_" opacity="0.71" fill="none" stroke="#82AFD8" stroke-linecap="round" stroke-linejoin="round" stroke-miterlimit="10" d="
		M113.8,406.4c-5.8,3.5-13,5.6-17.8,1.9c-4.8-3.7-8.2,0.7-16.5,0c-8.4-0.7-25.6-11.1-24.9-16.7"/>
	<path id="XMLID_53_" fill="#81AFCC" stroke="#C0EDFF" stroke-linecap="round" stroke-linejoin="round" stroke-miterlimit="10" d="
		M147.6,319.5c39.9,34,56.4,16.1,57.9,15.4c1.5-0.7,1.9-3-0.2-4.8c0,0,3.5-3.9,4.3-6.3c0.7-2.4-5.4-3-13.2-3.2
		c-7.8-0.2-36.6-1.1-49.4-12.1c-4-7.3-9.7-11.4-12.7-13c-0.9-0.5-2.1,0.1-2.1,1.2c0,8.2,3.8,13.9,3.8,13.9
		c-3.9,2.8-13.9,6.1-7.4,8.5C135.2,321.6,147.6,319.5,147.6,319.5z"/>

		<path id="XMLID_60_" opacity="0.71" fill="#BEDDED" stroke="#C0EDFF" stroke-linecap="round" stroke-linejoin="round" stroke-miterlimit="10" d="
		M148.9,309.5c5,2,33.4,0.2,39.4,1.7c5.9,1.5,11.1,8.9,11.5,9.5C186.4,321.8,158.6,318.4,148.9,309.5z"/>

		<path id="XMLID_61_" opacity="0.71" fill="#BEDDED" stroke="#C0EDFF" stroke-linecap="round" stroke-linejoin="round" stroke-miterlimit="10" d="
		M174.2,328.1c-3.7,2.8-17.4,7.6-15.2,9.1c2.2,1.5,9.8,2,11.7,1.3c1.9-0.7,6.3-8.5,6.3-8.5"/>
	<path id="XMLID_62_" fill="none" stroke="#274066" stroke-linecap="round" stroke-linejoin="round" stroke-miterlimit="10" d="
		M187.3,325.3c-3,2.2-3.9,6.1-0.9,10.6"/>
	<path id="XMLID_63_" fill="none" stroke="#274066" stroke-linecap="round" stroke-linejoin="round" stroke-miterlimit="10" d="
		M201.6,327c0.4,2.4,3.7,3.2,3.7,3.2"/>

		<ellipse id="XMLID_59_" fill="#231F20" stroke="#231F20" stroke-linecap="round" stroke-linejoin="round" stroke-miterlimit="10" cx="196.6" cy="328.4" rx="0.8" ry="2.9"/>
	<path id="XMLID_64_" fill="#88A1B7" stroke="#4C5156" stroke-linecap="round" stroke-linejoin="round" stroke-miterlimit="10" d="
		M339.9,345.5c-5.2,7.8-22.5,17.3-31.6,16.7s-28.6-11.3-36.8-1.5c-9.7,11.6-5.9,26.9,15.8,35.3c21.7,8.4,60.5-6.3,60.3-45.8"/>

		<path id="XMLID_65_" opacity="0.76" fill="#405363" stroke="#A4C5D8" stroke-linecap="round" stroke-linejoin="round" stroke-miterlimit="10" d="
		M339.7,346.5c-2.1-11.5,4-27.3,20.5-30.8c1.6-0.3,3,1,2.8,2.7c-2.6,19.8-8.5,27.4-8.5,27.4c18.2,9.8,14.9,23.8,14.1,23.8
		c-9.7,0-21.1-17-21.1-17"/>

		<path id="XMLID_66_" opacity="0.76" fill="#405363" stroke="#A4C5D8" stroke-linecap="round" stroke-linejoin="round" stroke-miterlimit="10" d="
		M289.1,358.5c3.7-7.2,15.4-12.8,15.4-12.8c8.9,4.3,32.3,5,33.4,4.5c-15,15-27.7,14.7-28.8,14.5C308,364.5,293,359.1,289.1,358.5z"
		/>
	<path id="XMLID_68_" fill="#88A1B7" stroke="#4C5156" stroke-linecap="round" stroke-linejoin="round" stroke-miterlimit="10" d="
		M302.4,374.1c1.9,3.9,0.2,12.6-3.9,14.1"/>

		<path id="XMLID_69_" opacity="0.76" fill="#405363" stroke="#A4C5D8" stroke-linecap="round" stroke-linejoin="round" stroke-miterlimit="10" d="
		M309.7,380.4c5.6-1.3,15.6-6.5,16.1-4.8s-4.5,11.7-8.7,13c-4.3,1.3-7.2-2-8-4.3"/>
	<path id="XMLID_67_" fill="#88A1B7" stroke="#4C5156" stroke-linecap="round" stroke-linejoin="round" stroke-miterlimit="10" d="
		M278.9,368.4c-1.5-3.9-8.5-3.3-5.2,3.9c-3.3,1.7-4.1,4.6-0.9,6.7"/>
	<path id="XMLID_70_" fill="#231F20" stroke="#231F20" stroke-linecap="round" stroke-linejoin="round" stroke-miterlimit="10" d="
		M275.1,370.4c2.2,3.7,1.3,5.6,0.2,5C274.2,374.9,275.1,370.4,275.1,370.4z"/>

		<ellipse id="XMLID_71_" transform="matrix(-0.7904 -0.6126 0.6126 -0.7904 287.4601 841.6101)" fill="#231F20" stroke="#231F20" stroke-linecap="round" stroke-linejoin="round" stroke-miterlimit="10" cx="287.7" cy="371.6" rx="1" ry="3.4"/>

		<path id="XMLID_73_" opacity="0.71" fill="none" stroke="#82AFD8" stroke-linecap="round" stroke-linejoin="round" stroke-miterlimit="10" d="
		M342.9,385.8c-4.6,10.6-20.6,22.1-30.8,21.2"/>

		<path id="XMLID_74_" opacity="0.71" fill="none" stroke="#82AFD8" stroke-linecap="round" stroke-linejoin="round" stroke-miterlimit="10" d="
		M350.5,383.6c-3,8.4-14.1,20.4-17.8,21.7"/>

		<path id="XMLID_75_" opacity="0.71" fill="none" stroke="#82AFD8" stroke-linecap="round" stroke-linejoin="round" stroke-miterlimit="10" d="
		M118.3,314.2c-1.7,5,2.6,12.1,8.5,13"/>

		<path id="XMLID_76_" opacity="0.71" fill="none" stroke="#82AFD8" stroke-linecap="round" stroke-linejoin="round" stroke-miterlimit="10" d="
		M114.4,326.4c2.6,4.8,13,9.8,16.7,6.7"/>

		<circle id="XMLID_72_" fill="#99C6DD" stroke="#C4DFE8" stroke-linecap="round" stroke-linejoin="round" stroke-miterlimit="10" cx="212.4" cy="306.9" r="5.2"/>

		<circle id="XMLID_79_" fill="#99C6DD" stroke="#C4DFE8" stroke-linecap="round" stroke-linejoin="round" stroke-miterlimit="10" cx="243.8" cy="354.8" r="5.2"/>

		<circle id="XMLID_78_" fill="#99C6DD" stroke="#C4DFE8" stroke-linecap="round" stroke-linejoin="round" stroke-miterlimit="10" cx="218.7" cy="322.1" r="3.2"/>

		<circle id="XMLID_80_" fill="#99C6DD" stroke="#C4DFE8" stroke-linecap="round" stroke-linejoin="round" stroke-miterlimit="10" cx="237.3" cy="343.3" r="3.2"/>
	<path id="XMLID_84_" fill="#9EAAAD" stroke="#646B6D" stroke-linecap="round" stroke-linejoin="round" stroke-miterlimit="10" d="
		M315.8,299.3c0-0.7,0-28.8,0-28.8c0.9-1.7,3.9-0.2,3.9-0.2c-0.4,9.5-0.9,29.1-0.9,29.1L315.8,299.3z"/>

		<circle id="XMLID_82_" fill="#99C6DD" stroke="#C4DFE8" stroke-linecap="round" stroke-linejoin="round" stroke-miterlimit="10" cx="276.8" cy="348.3" r="3.2"/>

		<circle id="XMLID_81_" fill="#99C6DD" stroke="#C4DFE8" stroke-linecap="round" stroke-linejoin="round" stroke-miterlimit="10" cx="247.9" cy="334.6" r="2.6"/>
	<path id="XMLID_77_" fill="#B77284" stroke="#8E384C" stroke-linecap="round" stroke-linejoin="round" stroke-miterlimit="10" d="
		M309.9,296.3c-9.6,0.7-18.4,8.2-14.5,18c4,10,6.5,8.2,1.9,12.6c-4.6,4.5-14.3-7-18,1.1c-3.7,8,11.6,12.9,20,9.5
		c7.2-3,11-8.7,5.4-19.9c-5.6-11.1,10.2-14.7,10-10.2c-0.2,4.5,0.2,14.8,9.3,11.7C329.9,317.1,328.2,295,309.9,296.3z"/>
	<path id="XMLID_107_" fill="#BC9464" stroke="#59472E" stroke-linecap="round" stroke-linejoin="round" stroke-miterlimit="10" d="
		M447.2,135.9C461,129.9,599.6,85.4,648,88.4c0,39.8,0,157.4,0,157.4s-31.8-1.7-31.3-7.4s-3-19.5-5.6-20.3s-34.2-15.6-40.2-17.3
		s-31.6-19.5-59.2-19.9c-27.7-0.4-26.4-9.9-22.1-12.5s-14.7-9.5-22.9-8.6C458.4,160.6,447.2,135.1,447.2,135.9z"/>
	<path id="XMLID_83_" fill="#9EAAAD" stroke="#646B6D" stroke-linecap="round" stroke-linejoin="round" stroke-miterlimit="10" d="
		M296.5,292.4c-3.6,2.7-7.8,16.5,7.6,20.2c7.8,0.7,10.8-5,10.8-5l-0.1-0.1c-1-1.9-3.5-2.5-5.2-1.3c-3.2,2.2-7.9,3.4-10.7-2.1
		c-3.9-7.8,1.7-10.6,2.4-11.7C302.1,291.3,300.2,289.7,296.5,292.4z"/>

		<polygon id="XMLID_87_" fill="#E0E2BA" stroke="#E0E2BA" stroke-linecap="round" stroke-linejoin="round" stroke-miterlimit="10" points="
		322.9,246.4 332.5,233.8 324.9,248.3 	"/>

		<path id="XMLID_88_" opacity="0.71" fill="none" stroke="#82AFD8" stroke-linecap="round" stroke-linejoin="round" stroke-miterlimit="10" d="
		M355.5,311c-6.8,1-16.9,5.9-18.2,15.6"/>

		<use xlink:href="#rock1"  width="42.1" height="17.9" id="XMLID_90_" x="-21.1" y="-9" transform="matrix(1.2463 0 0 -1.4099 445.955 142.0221)" overflow="visible"/>

		<use xlink:href="#rock1"  width="42.1" height="17.9" id="XMLID_99_" x="-21.1" y="-9" transform="matrix(1.0181 0 0 -1.0241 456.9806 174.018)" overflow="visible"/>

		<use xlink:href="#rock1"  width="42.1" height="17.9" id="XMLID_105_" x="-21.1" y="-9" transform="matrix(1.2747 0 0 -1.2822 602.4752 213.516)" overflow="visible"/>

		<use xlink:href="#rock1"  width="42.1" height="17.9" id="XMLID_102_" x="-21.1" y="-9" transform="matrix(0.7308 0 0 -1.2411 548.3008 181.2718)" overflow="visible"/>

		<use xlink:href="#rock2"  width="45.7" height="20.4" id="XMLID_89_" x="-22.9" y="-10.2" transform="matrix(1 0 0 -1 506.5135 176.5399)" overflow="visible"/>

		<use xlink:href="#rock2"  width="45.7" height="20.4" id="XMLID_106_" x="-22.9" y="-10.2" transform="matrix(1.6098 0 0 -1.3176 610.8225 239.4506)" overflow="visible"/>

		<use xlink:href="#rock2"  width="45.7" height="20.4" id="XMLID_103_" x="-22.9" y="-10.2" transform="matrix(1.4917 0 0 -1.6775 565.4055 194.4237)" overflow="visible"/>

		<use xlink:href="#rock2"  width="45.7" height="20.4" id="XMLID_100_" x="-22.9" y="-10.2" transform="matrix(0.792 0 0 -1 460.6815 153.1916)" overflow="visible"/>

		<use xlink:href="#rock3"  width="18.2" height="8.4" id="XMLID_92_" x="-9.1" y="-4.2" transform="matrix(1 0 0 -1 487.4439 166.8777)" overflow="visible"/>

		<use xlink:href="#rock3"  width="18.2" height="8.4" id="XMLID_101_" x="-9.1" y="-4.2" transform="matrix(1 0 0 -1 524.6287 194.55)" overflow="visible"/>

		<use xlink:href="#rock3"  width="18.2" height="8.4" id="XMLID_108_" x="-9.1" y="-4.2" transform="matrix(1 0 0 -1 585.1614 158.2304)" overflow="visible"/>

		<use xlink:href="#rock3"  width="18.2" height="8.4" id="XMLID_104_" x="-9.1" y="-4.2" transform="matrix(1.7365 0 0 -1.6689 562.0292 226.7621)" overflow="visible"/>
	<path id="XMLID_109_" fill="none" stroke="#9AD8F7" stroke-linecap="round" stroke-linejoin="round" stroke-miterlimit="10" d="
		M476.1,186.1c-5.6,1.7,11.7,6.5,23.3,5.6"/>
	<path id="XMLID_110_" fill="none" stroke="#9AD8F7" stroke-linecap="round" stroke-linejoin="round" stroke-miterlimit="10" d="
		M527.6,206.9c-15.6,3.5-4.3,11.2,11.7,12.1"/>
	<path id="XMLID_111_" fill="none" stroke="#9AD8F7" stroke-linecap="round" stroke-linejoin="round" stroke-miterlimit="10" d="
		M563.5,241c-11.7,2.6-3.5,14.3,24.2,15.6"/>
	<path id="XMLID_98_" fill="none" stroke="#9AD8F7" stroke-linecap="round" stroke-linejoin="round" stroke-miterlimit="10" d="
		M430.7,173.6c-9.1,2.2-8.2,15.6,8.6,14.7c16.9-0.9,33.3,1.3,27.7,4.3"/>
	<path id="XMLID_112_" fill="none" stroke="#9AD8F7" stroke-linecap="round" stroke-linejoin="round" stroke-miterlimit="10" d="
		M417.3,152.4c1.7,3,19,5.2,19,5.2s-4.3,5.6,3.5,7.4"/>
	<path id="XMLID_114_" fill="none" stroke="#9AD8F7" stroke-linecap="round" stroke-linejoin="round" stroke-miterlimit="10" d="
		M485.2,199.9c5.2,3,16.9,1.3,16.9,1.3"/>
	<path id="XMLID_115_" fill="none" stroke="#9AD8F7" stroke-linecap="round" stroke-linejoin="round" stroke-miterlimit="10" d="
		M512.5,195.2c-6.1,2.6,3.5,6.9,12.5,6.9"/>
	<path id="XMLID_2_" fill="none" stroke="#445587" stroke-linecap="round" stroke-linejoin="round" stroke-miterlimit="10" d="
		M32,226.3c5.3,1.1,19.2-5.9,19.2-5.9c10.6,9,22.4,4.3,22.4,4.3"/>
	<path id="XMLID_129_" fill="none" stroke="#445587" stroke-linecap="round" stroke-linejoin="round" stroke-miterlimit="10" d="
		M8.2,190.3c4.2,1.5,14.1-2.1,14.1-2.1c3.3,2.7,10.8,3.9,15.3,0.3c10.2,6.3,18.9,1.2,18.9,1.2"/>
	<path id="XMLID_3_" fill="none" stroke="#445587" stroke-linecap="round" stroke-linejoin="round" stroke-miterlimit="10" d="
		M406.1,226.9c6.6,5.4,17.7,0.9,17.7,0.9c8.7,5.1,26.1,0,26.6-1.8"/>
	<path id="XMLID_134_" fill="none" stroke="#82AFD8" stroke-linecap="round" stroke-linejoin="round" stroke-miterlimit="10" d="
		M341.1,310.8c3.6-3.4,15.3-9.4,20.5-3.9"/>
	<path id="XMLID_139_" fill="none" stroke="#231F20" stroke-linecap="round" stroke-linejoin="round" stroke-miterlimit="10" d="
		M139.6,74c2.6-3.6,7.8-4.7,9.1-1.8"/>
	<path id="XMLID_140_" fill="none" stroke="#231F20" stroke-linecap="round" stroke-linejoin="round" stroke-miterlimit="10" d="
		M162,70.6c1.6-1.8,5.5-3.6,6-1.3"/>
	<path id="XMLID_141_" fill="#7F7477" stroke="#473F41" stroke-linecap="round" stroke-linejoin="round" stroke-miterlimit="10" d="
		M215.8,178.1L215.8,178.1c-0.9-1-0.8-2.5,0.1-3.4l8.8-8.2c1-0.9,2.5-0.8,3.4,0.1v0c0.9,1,0.8,2.5-0.1,3.4l-8.8,8.2
		C218.2,179.1,216.7,179.1,215.8,178.1z"/>
	<path id="XMLID_143_" fill="#494345" stroke="#473F41" stroke-linecap="round" stroke-linejoin="round" stroke-miterlimit="10" d="
		M215,176.6l1.9-1.8c0.4-0.4,1.1-0.4,1.5,0l10,10.6c0.4,0.4,0.4,1.1,0,1.5l-1.9,1.8c-0.4,0.4-1.1,0.4-1.5,0l-10-10.6
		C214.5,177.8,214.5,177.1,215,176.6z"/>
</g>
<g id="Layer_3">
	<path id="XMLID_132_" fill="#DDA983" stroke="#84422D" stroke-linecap="round" stroke-linejoin="round" stroke-miterlimit="10" d="
		M565.2,91.7c0.8,3,5.4,12.3,5.4,12.3c5.3-0.6,9.4-0.6,9.9,1.1s-6.1,4-11.4,4.3c-2.6,0.2-13.4-15.2-13.4-15.2L565.2,91.7z"/>
	<path id="XMLID_123_" fill="#9E4835" stroke="#6D311F" stroke-linecap="round" stroke-linejoin="round" stroke-miterlimit="10" d="
		M583.9,37.8c0.3,2.6,7.7,15.4,14.9,20.5c-6.4,1.3-9.9-0.5-9.9-0.5c4,6.7,5,16,4.6,19c-1.6-2.4-4-9.8-3-3.7c1,6.1-3,19.3-9.4,20.8
		c-21.1-16.2-22.4-18.2-22.2-19s-1.3-37.3-1.4-36.8"/>
	<path id="XMLID_121_" fill="none" stroke="#231F20" stroke-linecap="round" stroke-linejoin="round" stroke-miterlimit="10" d="
		M593.7,90.6"/>
	<path id="XMLID_126_" fill="#DDA983" stroke="#84422D" stroke-linecap="round" stroke-linejoin="round" stroke-miterlimit="10" d="
		M547.3,76.5c-1.4-7.4,0.2-10.1,3.7-9.6s12.8-0.6,17.1,0.8s19.8,32.3,24.1,42.5c15.7,0,15.8,2.2,14.7,4.5c-1.1,2.2-5.4,1.9-12.5,0.8
		c2.1,2.9,2.2,6.2,0.6,6.1c-1.6-0.2-2.4-2.7-4.2-3.4s-2.6-4.3-2.6-4.3c-13.8-17-19.3-27-19.8-27.2s-8.6,3.2-9.3,3
		C558.7,89.6,547.3,76.7,547.3,76.5z"/>
	<path id="XMLID_131_" fill="#DDA983" stroke="#84422D" stroke-linecap="round" stroke-linejoin="round" stroke-miterlimit="10" d="
		M525.9,114.2c-28.9,7.4-30.7,7.7-30.7,7.7c-4.5-8.2-5.9-10.2-6.9-9.1c-1.3,1.4-0.4,16.7,4.3,16.5c18.2-1,41.1-9,41.1-9L525.9,114.2
		z"/>
	<path id="XMLID_130_" fill="#DDA983" stroke="#84422D" stroke-linecap="round" stroke-linejoin="round" stroke-miterlimit="10" d="
		M538.4,121.1c-3.2,1.8-26.4,14.4-26.4,14.4c-1-8.8-1.6-14.2-5.4-10.2c-3.8,4-1.8,16.2,1.1,18.5c24.3-9.3,37.1-16.2,37.1-16.2
		L538.4,121.1z"/>
	<path id="XMLID_125_" fill="#DDA983" stroke="#84422D" stroke-linecap="round" stroke-linejoin="round" stroke-miterlimit="10" d="
		M556.4,70.1c0-3.5,0.5-9.1,0.5-9.1c1.1-1.1,7,0.2,7,0.2l-0.2,8.2"/>
	<path id="XMLID_127_" fill="#46A587" stroke="#1B634E" stroke-linecap="round" stroke-linejoin="round" stroke-miterlimit="10" d="
		M545.2,104.6c-16.2,5.8-23.7,9.3-24.1,9.6c8.8,3.7,11.4,8,11.4,8c5.1-2.1,11,5.8,10.1,9.9c21.3-12.5,22.7-12.6,22.5-17.1
		c-0.2-4.5-1.1-9.6-1.1-9.6C554.8,105.4,545.2,104.6,545.2,104.6z"/>
	<path id="XMLID_128_" fill="#46A587" stroke="#1B634E" stroke-linecap="round" stroke-linejoin="round" stroke-miterlimit="10" d="
		M543.2,112c0,2.2,0.2,4.3,0.2,4.3l-10.9,5.9"/>

		<ellipse id="XMLID_113_" fill="#DDA983" stroke="#84422D" stroke-linecap="round" stroke-linejoin="round" stroke-miterlimit="10" cx="559" cy="44" rx="18.3" ry="20.3"/>
	<path id="XMLID_122_" fill="#D67FB7" stroke="#7A2D5B" stroke-linecap="round" stroke-linejoin="round" stroke-miterlimit="10" d="
		M554,66.9c-4.6,3.8-9.6,10.7-10.6,13.3c-1,2.6,0,24.9,0,27.5c7.7,7.5,21.4,0.5,21.4,0.5c-0.9-7.5,2.3-15.3,4-18.7
		c0.4-0.8,0.1-1.7-0.6-2.1c-3.4-1.8-5.1-10.6,0.7-19.2C556.8,77.9,548.8,77.3,554,66.9z"/>
	<path id="XMLID_119_" fill="#9E4835" stroke="#6D311F" stroke-linecap="round" stroke-linejoin="round" stroke-miterlimit="10" d="
		M576.2,50c0,0-3.6-5.8-8.3-16.9c0,0-1.1,4.2-0.3,8.6c0.8,4.4-8.6-7.5-10-14.2c0,0-9.2,6.9-10.3,9.2c0,0,1.4-5.8,2.2-7.8
		c0,0-7.8,5.8-12.2,6.4c0.3-8,10.8-14.4,19.4-15.8c15.8-0.6,25.5,7.8,27.7,20"/>
	<path id="XMLID_118_" fill="#DDA983" stroke="#84422D" stroke-linecap="round" stroke-linejoin="round" stroke-miterlimit="10" d="
		M552.2,46.5c-1.5,1.3-1.7,3.6-0.2,5.1"/>
	<ellipse id="XMLID_116_" fill="#231F20" cx="559.3" cy="44.2" rx="1" ry="2.8"/>
	<ellipse id="XMLID_120_" fill="#231F20" cx="548" cy="44.2" rx="1" ry="2.8"/>
	<path id="XMLID_117_" fill="#DDA983" stroke="#84422D" stroke-linecap="round" stroke-linejoin="round" stroke-miterlimit="10" d="
		M573.4,47.4c2.2-4,6.7-3.7,6.4,1.1s-4,6.1-6.6,4.6"/>
	<path id="XMLID_124_" fill="none" stroke="#231F20" stroke-linecap="round" stroke-linejoin="round" stroke-miterlimit="10" d="
		M548.6,54.7c2.1,2.6,8.8,3,11.8-1.3"/>
	<path id="XMLID_97_" fill="none" stroke="#231F20" stroke-linecap="round" stroke-linejoin="round" stroke-miterlimit="10" d="
		M557.6,37.4c1-1,3.6-0.2,4.8,1.3"/>
	<path id="XMLID_137_" fill="none" stroke="#231F20" stroke-linecap="round" stroke-linejoin="round" stroke-miterlimit="10" d="
		M550.2,37.6c-1.1-1-4.6,0.2-4.9,2.3"/>
	<path id="XMLID_138_" fill="#DDA983" stroke="#84422D" stroke-linecap="round" stroke-linejoin="round" stroke-miterlimit="10" d="
		M566.6,79.7c1,4.1,2.5,7.5,2.5,7.5"/>
</g>
</svg>
