<?xml version="1.0" encoding="utf-8"?>
<!-- Generator: Adobe Illustrator 18.1.1, SVG Export Plug-In . SVG Version: 6.00 Build 0)  -->
<!DOCTYPE svg PUBLIC "-//W3C//DTD SVG 1.1//EN" "http://www.w3.org/Graphics/SVG/1.1/DTD/svg11.dtd">
<svg version="1.1" xmlns="http://www.w3.org/2000/svg" xmlns:xlink="http://www.w3.org/1999/xlink" x="0px" y="0px" width="648px"
	 height="432px" viewBox="0 0 648 432" style="enable-background:new 0 0 648 432;" xml:space="preserve">
<symbol  id="banana1" viewBox="-26.988 -18.359 56.63 47.334">
	<path id="XMLID_122_" style="fill:#F2C751;stroke:#56451E;stroke-linecap:round;stroke-linejoin:round;stroke-miterlimit:10;" d="
		M23.976,17.642C13.309,0.642-4.448-8.845-23.894-5.511c-1.945-3.611-1.389-5-1.389-5c6.945-7.5,23.223-8.504,30.141-6.354
		c12.333,3.833,18.812,9.875,24.029,30.522C29.233,20.447,23.976,17.642,23.976,17.642z"/>
	<path id="XMLID_109_" style="fill:#56451E;stroke:#56451E;stroke-linecap:round;stroke-linejoin:round;stroke-miterlimit:10;" d="
		M-22.522-6.336c-2.332,1.329-2.607,1.228-2.607,1.228c-1.67-0.716-1.593-4.192-0.877-4.788c0.716-0.596,1.504-1.028,1.504-1.028
		L-22.522-6.336z"/>
	<linearGradient id="SVGID_1_" gradientUnits="userSpaceOnUse" x1="27.1632" y1="26.6145" x2="23.7251" y2="8.0133">
		<stop  offset="0.0402" style="stop-color:#75AD40"/>
		<stop  offset="0.0637" style="stop-color:#75AD40"/>
		<stop  offset="0.5218" style="stop-color:#75AD40;stop-opacity:1"/>
		<stop  offset="0.5991" style="stop-color:#75AD40;stop-opacity:1"/>
		<stop  offset="0.8002" style="stop-color:#75AD40;stop-opacity:0"/>
	</linearGradient>
	<path style="fill:url(#SVGID_1_);stroke:#56451E;stroke-linecap:round;stroke-linejoin:round;stroke-miterlimit:10;" d="
		M20.671,13.072c5.062,5.688,3.638,14.57,3.471,14.07c3.167,1.333,5,1.333,5,1.333c-0.5-4.833-1.333-9-1.333-9
		c1.049-1.716,1.669-3.474,0.549-7.549"/>
	<path style="fill:none;stroke:#AA833F;stroke-linecap:round;stroke-linejoin:round;stroke-miterlimit:10;" d="M-16.892-9.823
		c16.417-4,29.197,1.305,36.78,14.555"/>
</symbol>
<symbol  id="bananabunch1" viewBox="-36.175 -32.284 76.266 66.028">

		<use xlink:href="#banana1"  width="56.63" height="47.334" id="XMLID_99_" x="-26.988" y="-18.359" transform="matrix(0.9984 -0.0564 0.0564 0.9984 -8.7647 5.627)" style="overflow:visible;"/>

		<use xlink:href="#banana1"  width="56.63" height="47.334" id="XMLID_98_" x="-26.988" y="-18.359" transform="matrix(0.9935 0.1137 -0.1137 0.9935 -3.1119 0.905)" style="overflow:visible;"/>

		<use xlink:href="#banana1"  width="56.63" height="47.334" id="XMLID_3_" x="-26.988" y="-18.359" transform="matrix(0.9332 0.3594 -0.3594 0.9332 5.7486 -3.833)" style="overflow:visible;"/>

		<use xlink:href="#banana1"  width="56.63" height="47.334" id="XMLID_2_" x="-26.988" y="-18.359" transform="matrix(0.7633 0.6461 -0.6461 0.7633 19.5646 -7.3185)" style="overflow:visible;"/>
</symbol>
<symbol  id="fence_1_" viewBox="-184.682 -35.619 369.363 71.237">

		<polygon id="XMLID_185_" style="fill:#BFBCB6;stroke:#6D6B68;stroke-linecap:round;stroke-linejoin:round;stroke-miterlimit:10;" points="
		184.182,13.042 -184.182,13.042 -184.182,17.123 184.182,17.123 	"/>

		<use xlink:href="#pole_18_"  width="21.786" height="125.315" id="XMLID_184_" x="-10.893" y="-62.657" transform="matrix(0.5685 0 0 0.5685 -169.8375 0)" style="overflow:visible;"/>

		<use xlink:href="#pole_18_"  width="21.786" height="125.315" id="XMLID_183_" x="-10.893" y="-62.657" transform="matrix(0.5685 0 0 0.5685 -129.1633 0)" style="overflow:visible;"/>

		<use xlink:href="#pole_18_"  width="21.786" height="125.315" id="XMLID_182_" x="-10.893" y="-62.657" transform="matrix(0.5685 0 0 0.5685 -83.7172 0)" style="overflow:visible;"/>

		<use xlink:href="#pole_18_"  width="21.786" height="125.315" id="XMLID_181_" x="-10.893" y="-62.657" transform="matrix(0.5685 0 0 0.5685 -43.043 0)" style="overflow:visible;"/>

		<use xlink:href="#pole_18_"  width="21.786" height="125.315" id="XMLID_172_" x="-10.893" y="-62.657" transform="matrix(0.5685 0 0 0.5685 2.6303 0)" style="overflow:visible;"/>

		<use xlink:href="#pole_18_"  width="21.786" height="125.315" id="XMLID_171_" x="-10.893" y="-62.657" transform="matrix(0.5685 0 0 0.5685 43.3045 0)" style="overflow:visible;"/>

		<use xlink:href="#pole_18_"  width="21.786" height="125.315" id="XMLID_169_" x="-10.893" y="-62.657" transform="matrix(0.5685 0 0 0.5685 82.8425 0)" style="overflow:visible;"/>

		<use xlink:href="#pole_18_"  width="21.786" height="125.315" id="XMLID_168_" x="-10.893" y="-62.657" transform="matrix(0.5685 0 0 0.5685 123.5167 0)" style="overflow:visible;"/>

		<use xlink:href="#pole_18_"  width="21.786" height="125.315" id="XMLID_167_" x="-10.893" y="-62.657" transform="matrix(0.5685 0 0 0.5685 170.3261 0)" style="overflow:visible;"/>
	<g id="pole_17_">

			<polygon id="XMLID_166_" style="fill:#BFBCB6;stroke:#6D6B68;stroke-width:0.5685;stroke-linecap:round;stroke-linejoin:round;stroke-miterlimit:10;" points="
			-167.792,-35.335 -172.337,-35.335 -172.337,26.245 -167.792,26.245 		"/>

			<path id="XMLID_165_" style="fill:#E2AF33;stroke:#7C5515;stroke-width:0.5685;stroke-linecap:round;stroke-linejoin:round;stroke-miterlimit:10;" d="
			M-163.93,29.426c0-3.263-2.645-5.908-5.908-5.908s-5.908,2.645-5.908,5.908s2.645,5.908,5.908,5.908S-163.93,32.689-163.93,29.426
			z"/>
	</g>
	<g id="pole_16_">
	</g>
	<g id="pole_15_">
	</g>
	<g id="pole_14_">
	</g>
	<g id="pole_13_">
	</g>
	<g id="pole_12_">
	</g>
	<g id="pole_11_">
	</g>
	<g id="pole_10_">
	</g>
	<g id="pole_9_">

			<path id="XMLID_164_" style="fill:#4F5C7F;stroke:#323D56;stroke-width:0.5685;stroke-linecap:round;stroke-linejoin:round;stroke-miterlimit:10;" d="
			M184.182,17.123h-11.811v6.767c2.253,0.833,3.863,2.994,3.863,5.537c0,3.263-2.645,5.908-5.908,5.908
			c-3.263,0-5.908-2.645-5.908-5.908c0-2.368,1.397-4.405,3.408-5.347v-6.956h-42.265v6.767c2.253,0.833,3.863,2.994,3.863,5.537
			c0,3.263-2.645,5.908-5.908,5.908s-5.908-2.645-5.908-5.908c0-2.368,1.397-4.405,3.409-5.347v-6.956h-36.13v6.767
			c2.253,0.833,3.863,2.994,3.863,5.537c0,3.263-2.645,5.908-5.908,5.908s-5.908-2.645-5.908-5.908c0-2.368,1.397-4.405,3.408-5.347
			v-6.956H45.349v6.767c2.253,0.833,3.863,2.994,3.863,5.537c0,3.263-2.645,5.908-5.908,5.908s-5.908-2.645-5.908-5.908
			c0-2.368,1.397-4.405,3.408-5.347v-6.956H4.675v6.767c2.253,0.833,3.863,2.994,3.863,5.537c0,3.263-2.645,5.908-5.908,5.908
			s-5.908-2.645-5.908-5.908c0-2.368,1.397-4.405,3.408-5.347v-6.956h-41.129v6.767c2.253,0.833,3.863,2.994,3.863,5.537
			c0,3.263-2.645,5.908-5.908,5.908s-5.908-2.645-5.908-5.908c0-2.368,1.397-4.405,3.408-5.347v-6.956h-36.13v6.767
			c2.253,0.833,3.863,2.994,3.863,5.537c0,3.263-2.645,5.908-5.908,5.908s-5.908-2.645-5.908-5.908c0-2.368,1.397-4.405,3.408-5.347
			v-6.956h-40.901v6.767c2.253,0.833,3.863,2.994,3.863,5.537c0,3.263-2.645,5.908-5.908,5.908s-5.908-2.645-5.908-5.908
			c0-2.368,1.397-4.405,3.408-5.347v-6.956h-36.13v6.767c2.253,0.833,3.863,2.994,3.863,5.537c0,3.263-2.645,5.908-5.908,5.908
			s-5.908-2.645-5.908-5.908c0-2.368,1.397-4.405,3.408-5.347v-6.956h-11.844v-4.08h11.844v-48.377h4.545v48.377h36.13v-48.377
			h4.545v48.377h40.901v-48.377h4.545v48.377h36.13v-48.377h4.545v48.377H0.131v-48.377h4.545v48.377h36.13v-48.377h4.545v48.377
			h34.993v-48.377h4.545v48.377h36.13v-48.377h4.545v48.377h42.265v-48.377h4.545v48.377h11.811V17.123z"/>
	</g>
</symbol>
<symbol  id="grass1" viewBox="-13.964 -16.16 27.928 32.319">
	<path id="XMLID_137_" style="fill:#76A37D;stroke:#3A683F;stroke-miterlimit:10;" d="M-13.473-12.079
		c2.817,14.646,0.563,23.096,0.563,23.096C-6.713-3.63-7.276-8.699-7.276-8.699C-6.15-3.066,10.75,13.833,10.75,13.833
		C1.173-7.01,1.173-10.953,1.173-10.953L13.003-0.25L8.497-16.023"/>
</symbol>
<symbol  id="grass2" viewBox="-10.035 -13.521 20.07 27.042">
	<path id="XMLID_139_" style="fill:#76A37D;stroke:#3A683F;stroke-miterlimit:10;" d="M-0.041-13.459
		C-0.605-8.953-7.928,5.13-7.928,5.13C1.085-4.446,2.775-8.953,2.775-8.953c0,1.69,6.76,19.716,6.76,19.716v-24.223"/>
</symbol>
<symbol  id="grass3" viewBox="-15.018 -11.881 30.035 23.762">
	<path id="XMLID_141_" style="fill:#76A37D;stroke:#3A683F;stroke-miterlimit:10;" d="M-8.544-8.824
		c0,6.196-5.07,18.589-5.07,18.589c6.196-6.196,9.013-15.21,9.013-15.21c1.127,3.38,6.196,8.45,6.196,8.45l-2.817-9.013
		c3.38,3.38,11.266,15.21,11.266,15.21c-2.253-9.013-5.07-16.9-5.07-16.9c2.817,4.507,9.013,7.886,9.013,7.886l-3.38-7.886"/>
</symbol>
<symbol  id="grass4" viewBox="-9.931 -14.19 19.863 28.381">
	<path id="XMLID_143_" style="fill:#76A37D;stroke:#3A683F;stroke-miterlimit:10;" d="M0.983-14.19
		c0,3.943-12.393,24.223-10.14,23.096C-0.144,1.583,3.799-4.05,3.799-4.05c-0.563,6.196,5.07,18.026,5.07,18.026
		c-0.563-2.253,0.563-25.349,0.563-25.349"/>
</symbol>
<symbol  id="pole_18_" viewBox="-10.893 -62.657 21.786 125.315">

		<polygon id="XMLID_159_" style="fill:#BFBCB6;stroke:#6D6B68;stroke-linecap:round;stroke-linejoin:round;stroke-miterlimit:10;" points="
		3.597,-62.157 -4.397,-62.157 -4.397,46.169 3.597,46.169 	"/>
	<path id="XMLID_158_" style="fill:#F4C04E;stroke:#7C5515;stroke-linecap:round;stroke-linejoin:round;stroke-miterlimit:10;" d="
		M10.393,51.765c0-5.74-4.653-10.393-10.393-10.393s-10.393,4.653-10.393,10.393S-5.74,62.158,0,62.158S10.393,57.505,10.393,51.765
		z"/>
</symbol>
<g id="Layer_4">

		<rect id="XMLID_4_" x="16.055" y="16.776" style="fill:#9BD4EA;stroke:#704E48;stroke-linecap:round;stroke-linejoin:round;stroke-miterlimit:10;" width="623.592" height="339.68"/>
</g>
<g id="Layer_24">

		<use xlink:href="#fence_1_"  width="369.363" height="71.237" id="XMLID_9_" x="-184.682" y="-35.619" transform="matrix(1.0139 0 0 -1 235.4387 264.3725)" style="overflow:visible;opacity:0.62;"/>
	<g id="fence">

			<line id="XMLID_152_" style="fill:#BFBCB6;stroke:#6D6B68;stroke-width:1.0069;stroke-linecap:round;stroke-linejoin:round;stroke-miterlimit:10;" x1="486.226" y1="248.33" x2="486.226" y2="244.25"/>

			<use xlink:href="#pole_18_"  width="21.786" height="125.315" id="XMLID_170_" x="-10.893" y="-62.657" transform="matrix(0.5764 0 0 -0.5685 500.7696 261.3725)" style="overflow:visible;"/>

			<use xlink:href="#pole_18_"  width="21.786" height="125.315" id="XMLID_163_" x="-10.893" y="-62.657" transform="matrix(0.5764 0 0 -0.5685 542.0099 261.3725)" style="overflow:visible;"/>

			<use xlink:href="#pole_18_"  width="21.786" height="125.315" id="XMLID_162_" x="-10.893" y="-62.657" transform="matrix(0.5764 0 0 -0.5685 588.0885 261.3725)" style="overflow:visible;"/>

			<use xlink:href="#pole_18_"  width="21.786" height="125.315" id="XMLID_161_" x="-10.893" y="-62.657" transform="matrix(0.5764 0 0 -0.5685 629.3288 261.3725)" style="overflow:visible;"/>
		<g id="pole_8_">

				<rect id="XMLID_155_" x="498.235" y="235.128" style="fill:#BFBCB6;stroke:#6D6B68;stroke-width:0.5724;stroke-linecap:round;stroke-linejoin:round;stroke-miterlimit:10;" width="4.608" height="61.579"/>

				<ellipse id="XMLID_154_" style="fill:#E2AF33;stroke:#7C5515;stroke-width:0.5724;stroke-linecap:round;stroke-linejoin:round;stroke-miterlimit:10;" cx="500.77" cy="231.946" rx="5.99" ry="5.908"/>
		</g>
		<g id="pole_7_">
		</g>
		<g id="pole_6_">
		</g>
		<g id="pole_5_">
		</g>
		<g id="pole_4_">
		</g>
		<g id="pole_3_">
		</g>
		<g id="pole_2_">
		</g>
		<g id="pole_1_">
		</g>
		<g id="pole">

				<path id="XMLID_151_" style="opacity:0.62;fill:#4F5C7F;stroke:#323D56;stroke-width:0.5724;stroke-linecap:round;stroke-linejoin:round;stroke-miterlimit:10;" d="
				M631.402,247.25v-6.767c2.285-0.833,3.917-2.994,3.917-5.537c0-3.263-2.682-5.908-5.99-5.908s-5.99,2.645-5.99,5.908
				c0,2.368,1.416,4.405,3.456,5.347v6.956h-36.632v-6.767c2.285-0.833,3.917-2.994,3.917-5.537c0-3.263-2.682-5.908-5.99-5.908
				c-3.308,0-5.99,2.645-5.99,5.908c0,2.368,1.416,4.405,3.456,5.347v6.956h-41.471v-6.767c2.285-0.833,3.917-2.994,3.917-5.537
				c0-3.263-2.682-5.908-5.99-5.908c-3.308,0-5.99,2.645-5.99,5.908c0,2.368,1.416,4.405,3.456,5.347v6.956h-36.633v-6.767
				c2.285-0.833,3.917-2.994,3.917-5.537c0-3.263-2.682-5.908-5.99-5.908s-5.99,2.645-5.99,5.908c0,2.368,1.416,4.405,3.456,5.347
				v6.956h-12.009v4.08h12.009v48.377h4.608V251.33h36.633v48.377h4.608V251.33h41.471v48.377h4.608V251.33h36.632v48.377h4.608
				V251.33"/>
		</g>
	</g>
</g>
<g id="Layer_2">
	<path id="XMLID_5_" style="fill:#76A37D;stroke:#3A683F;stroke-miterlimit:10;" d="M0,262.63
		c22.222,0,150.602,18.246,166.702,33.273c60.642-17.173,141.676-34.346,159.923-31.663c18.246,2.683,50.982,13.953,74.595,20.929
		c23.613,6.977,80.498,10.733,80.498,10.733s116.99-22.003,141.14-11.806S648,304.489,648,304.489V432H0
		C0,432-0.339,262.63,0,262.63z"/>

		<use xlink:href="#grass1"  width="27.928" height="32.319" id="XMLID_113_" x="-13.964" y="-16.16" transform="matrix(1 0 0 -1 282.4577 386.6253)" style="overflow:visible;"/>

		<use xlink:href="#grass1"  width="27.928" height="32.319" id="XMLID_145_" x="-13.964" y="-16.16" transform="matrix(0.6885 -0.2145 -0.2145 -0.6885 254.8551 276.2152)" style="overflow:visible;"/>

		<use xlink:href="#grass2"  width="20.07" height="27.042" id="XMLID_128_" x="-10.035" y="-13.521" transform="matrix(1 0 0 -1 208.7512 392.0052)" style="overflow:visible;"/>

		<use xlink:href="#grass2"  width="20.07" height="27.042" id="XMLID_146_" x="-10.035" y="-13.521" transform="matrix(1 0 0 -1 57.219 307.5077)" style="overflow:visible;"/>

		<use xlink:href="#grass3"  width="30.035" height="23.762" id="XMLID_129_" x="-15.018" y="-11.881" transform="matrix(1 0 0 -1 359.3311 298.4623)" style="overflow:visible;"/>

		<use xlink:href="#grass4"  width="19.863" height="28.381" id="XMLID_135_" x="-9.931" y="-14.19" transform="matrix(1 0 0 -1 502.9056 386.7672)" style="overflow:visible;"/>
</g>
<g id="Layer_11">
	<path id="XMLID_20_" style="fill:#7A5135;stroke:#4C2E19;stroke-linecap:round;stroke-linejoin:round;stroke-miterlimit:10;" d="
		M64.899,140.625c9.045,9.799,19.409,11.683,24.308,8.857c9.233,1.508,13.379,6.595,13.379,6.595
		c-12.437,7.538-19.221,13.002-19.786,13.756c-0.565,0.754,1.696,18.655-31.657,35.426c-0.377,13.379,13.567,22.047,26.193,19.974
		s19.974-13.002,20.351-20.163c0.377-7.161-3.392-11.683-6.218-11.306c-2.827,0.377-7.914,5.465-9.799-1.319
		s9.799-11.118,16.771-4.899c6.972,6.218,13.567,39.572-20.54,44.094c-34.107,4.711-39.007-23.932-39.007-23.932
		c-1.696-6.218-7.161-60.488-7.161-60.488L64.899,140.625z"/>
</g>
<g id="Layer_6">
	<path id="XMLID_11_" style="fill:#2F6143;stroke:#265138;stroke-miterlimit:10;" d="M110.89,91.974
		c-3.22,14.49,16.1,30.589,22.003,17.71c-8.586,38.102,12.343,40.249,16.1,22.539c1.61,16.636,6.44,0.537,6.44,0.537
		c1.073,20.929,7.513,24.686,9.66,4.83c7.513,16.636,16.1-5.367,16.1-5.367c28.443,5.903,56.349-23.076,56.349-23.076
		c5.903,11.806,13.953,10.733,19.32-4.83c8.586,10.733,11.27,3.22,12.343-10.196c5.367,9.123,8.586-2.683,9.123-9.123
		c3.757,17.71,10.733,19.856,10.733,19.856c3.757,5.903,7.513,8.586,10.733,2.683c3.22-5.903,4.83-22.003,4.83-22.003
		c2.683,15.026,9.66,13.416,11.806,0.537c3.22,5.367,7.513-12.88,7.513-12.88c2.683,14.49,15.026,3.22,6.977-30.589
		C322.868,9.866,263.836,5.573,261.153,4.5c-2.683-1.073-156.166,11.806-159.386,10.733C98.547,14.16,110.89,91.974,110.89,91.974z"
		/>
	<path id="XMLID_91_" style="fill:#2F6143;stroke:#265138;stroke-miterlimit:10;" d="M371.603,72.195
		c5.845,14.611,9.497,20.456,13.15,10.959c5.114,7.306,6.575,1.826,6.575,1.826c2.192,11.689,10.593,15.342,13.516,6.575
		c5.845,10.593,13.15,5.845,13.15,5.845c0.365,13.515,6.94,16.438,6.94,16.438c2.192-2.192,5.845,35.798,16.803,27.031
		c7.306-7.671,6.575-12.054,6.575-12.054c0.365,9.132,8.767,14.246,8.767,14.246s7.306-3.288,7.306-14.977
		c4.749,10.958,14.246,9.863,17.899-1.826c0.365,8.767,9.497,5.114,10.228,2.922c7.671,9.497,26.3-2.557,27.396-13.515
		c3.653-9.132,91.938,4.899,91.573,3.073c-0.365-1.826-22.534-100.238-22.534-100.238s-187.39-36.894-215.152,1.826
		S371.603,72.195,371.603,72.195z"/>
</g>
<g id="Layer_3">
	<g id="XMLID_90_">
		<path id="XMLID_46_" style="fill:#E8B592;stroke:#72382A;stroke-linecap:round;stroke-linejoin:round;stroke-miterlimit:10;" d="
			M282.195,218.577c6.84-5.776,18.239-9.12,22.039-3.648c3.8,5.472-15.351,19.303-25.687,17.479
			c-11.836-2.089-2.432-11.855-2.432-11.855L282.195,218.577z"/>
		<path id="XMLID_45_" style="fill:#E8B592;stroke:#72382A;stroke-linecap:round;stroke-linejoin:round;stroke-miterlimit:10;" d="
			M289.947,165.228c4.256-12.311,10.335-18.999,16.871-18.847c6.536,0.152-0.304,12.615-3.8,16.415
			c-3.496,3.8-5.32,6.688-5.32,6.688c4.256,1.52,7.904-2.888,8.664-0.456s-8.208,10.639-15.503,3.952
			C283.715,166.748,289.947,165.228,289.947,165.228z"/>
		<path id="XMLID_32_" style="fill:#7A5135;stroke:#4C2E19;stroke-linecap:round;stroke-linejoin:round;stroke-miterlimit:10;" d="
			M232.322,198.447c-2.277,20.745-8.602,42.249-32.888,49.585c-24.287,7.337-31.876-13.155-28.334-24.287
			s21.504-15.432,24.287-8.854c1.012,2.783-6.325,5.06,0.506,9.613c6.831,4.554,14.167-9.107,10.878-13.408
			s-12.143-13.408-28.84-6.072c-16.697,7.337-24.287,33.647-3.289,47.055s62.993-4.048,65.523-50.091
			C238.141,190.351,232.322,198.447,232.322,198.447z"/>
		<path id="XMLID_30_" style="fill:#7A5135;stroke:#4C2E19;stroke-linecap:round;stroke-linejoin:round;stroke-miterlimit:10;" d="
			M195.386,161.764c1.518,15.432,14.42,36.43,34.659,41.237c11.131,3.795,16.95-0.759,25.046,0
			c8.096,0.759,14.673,7.084,15.685,17.962c-3.289,10.625,1.265,12.902,4.807,4.807c1.012,5.313,4.048,3.289,3.542,1.012
			c4.301,3.036,9.866,1.012,5.313-3.542c0.506-3.542,8.602-10.119-4.807-7.59c0.759-21.757-27.069-24.287-27.069-24.287
			c0.506-5.06,0.506-5.06,0.506-5.06c4.554-8.349,16.697-17.203,35.671-12.902c3.289,4.807,4.554,2.783,4.301-1.518
			c4.554-4.301,5.313-12.143,0-7.843c3.036-6.578-0.253-4.554-1.012-3.542c3.289-6.831-2.277-7.337-5.06,3.542
			c-18.974-9.107-45.284,7.084-47.561,15.179c-8.601-7.084-7.337-10.625-7.337-10.625c2.277,1.012,3.795,1.265,3.795,1.265
			c-0.759-2.783-6.072-8.096-6.072-8.096c3.795,1.012,5.313,2.53,5.313,2.53c-1.518-4.048-10.119-6.325-10.119-6.325
			c0.759,0,5.566-13.661,5.566-13.661s13.661-22.769,15.179-33.141c-2.024,0.759-3.795,2.783-3.795,2.783
			c2.53-5.06,1.771-17.709,1.771-17.709c-1.012,9.36-2.783,11.384-2.783,11.384c0.506-12.649-3.795-32.635-14.673-45.79
			c-6.578,0.759-8.602,2.53-8.602,2.53c6.831,17.456,13.661,42.502,9.107,53.633C222.203,129.129,195.386,161.764,195.386,161.764z"
			/>
		<path id="XMLID_37_" style="fill:#E8B592;stroke:#72382A;stroke-linecap:round;stroke-linejoin:round;stroke-miterlimit:10;" d="
			M230.96,129.361c6.169-6.169,13.269-3.725,13.735,3.608c0.466,7.333-5.936,9.661-12.338,9.545
			C230.843,133.086,230.96,129.361,230.96,129.361z"/>
		<path id="XMLID_33_" style="fill:#7A5135;stroke:#4C2E19;stroke-linecap:round;stroke-linejoin:round;stroke-miterlimit:10;" d="
			M195.133,128.37c0-8.349,3.289-12.902,3.289-12.902c2.024-2.783,15.432-9.866,25.804-4.807s10.878,9.107,10.878,9.107
			c-1.794,16.138-29.346,18.468-29.346,18.468L195.133,128.37z"/>
		<path id="XMLID_34_" style="fill:#E8B592;stroke:#72382A;stroke-linecap:round;stroke-linejoin:round;stroke-miterlimit:10;" d="
			M203.482,130.394c0.506-6.578,3.036-10.878,3.036-10.878c4.554-3.036,13.661-6.325,15.432-4.554
			c1.771,1.771,3.036,4.807,3.036,4.807c2.024-3.289,6.072-3.795,7.843,1.518c1.771,5.313-0.253,16.191-0.253,16.191
			c5.06,4.554,3.036,12.143-8.602,16.95c-14.673,5.313-21.251-1.012-25.046-10.878c-9.36,0-15.432-18.974-9.36-23.275
			C195.639,115.973,203.482,131.659,203.482,130.394z"/>
		<path id="XMLID_43_" style="fill:none;stroke:#4C2E19;stroke-linecap:round;stroke-linejoin:round;stroke-miterlimit:10;" d="
			M208.136,112.869c0.486-4.957,5.54-9.914,5.832-10.012"/>
		<path id="XMLID_27_" style="fill:#7A5135;stroke:#4C2E19;stroke-linecap:round;stroke-linejoin:round;stroke-miterlimit:10;" d="
			M207.023,158.728c-0.759-6.072-5.802-11.286-11.621-19.128s-6.594-28.686-6.088-37.034s11.637-34.153,11.637-34.153l-15.938,6.072
			c0,0-10.372,20.239-11.131,27.322c-2.277-6.578-3.036-5.566-3.036-5.566c-0.506,10.119,2.783,17.962,2.783,17.962
			c-3.289-2.783-4.554-7.843-4.554-7.843c1.518,16.697,2.277,37.948,29.852,60.21"/>
		<path id="XMLID_44_" style="fill:none;stroke:#4C2E19;stroke-linecap:round;stroke-linejoin:round;stroke-miterlimit:10;" d="
			M212.51,111.8c1.555-2.916,7.29-6.124,7.29-6.124"/>

			<ellipse id="XMLID_42_" transform="matrix(0.8273 -0.5617 0.5617 0.8273 -60.5292 157.0983)" style="fill:#E8B592;stroke:#72382A;stroke-linecap:round;stroke-linejoin:round;stroke-miterlimit:10;" cx="225.274" cy="177.007" rx="7.524" ry="13.755"/>
		<path id="XMLID_35_" style="fill:#E8B592;stroke:#72382A;stroke-linecap:round;stroke-linejoin:round;stroke-miterlimit:10;" d="
			M211.324,138.489c3.289-4.301,14.167-3.542,15.432,3.542"/>
		<path id="XMLID_36_" style="fill:#E8B592;stroke:#72382A;stroke-linecap:round;stroke-linejoin:round;stroke-miterlimit:10;" d="
			M206.012,148.609c5.06,12.902,15.179,11.637,18.974,3.542"/>
		<path id="XMLID_31_" style="fill:#BA6352;stroke:#72382A;stroke-linecap:round;stroke-linejoin:round;stroke-miterlimit:10;" d="
			M207.65,140.474c0.097,3.694,8.068,13.122,17.205,7.193C219.217,156.318,210.372,160.206,207.65,140.474z"/>

			<ellipse id="XMLID_38_" transform="matrix(0.9948 0.1015 -0.1015 0.9948 14.4719 -20.8661)" style="fill:#110E0C;" cx="212.221" cy="131.736" rx="1.131" ry="3.086"/>

			<ellipse id="XMLID_39_" transform="matrix(0.9948 0.1015 -0.1015 0.9948 14.7938 -22.2691)" style="fill:#110E0C;" cx="226.164" cy="134.197" rx="1.131" ry="3.086"/>
		<path id="XMLID_40_" style="fill:none;stroke:#110E0C;stroke-linecap:round;stroke-linejoin:round;stroke-miterlimit:10;" d="
			M213.385,140.474c0.68-0.194,2.722,0.972,3.305,1.944"/>
		<path id="XMLID_41_" style="fill:none;stroke:#110E0C;stroke-linecap:round;stroke-linejoin:round;stroke-miterlimit:10;" d="
			M222.23,143.488c1.166-0.389,2.236-2.041,2.236-2.041"/>
	</g>
	<path id="XMLID_6_" style="fill:#B78D80;stroke:#704E48;stroke-miterlimit:10;" d="M0,391.964
		c0,15.036,26.635-30.053,26.635-30.053c33.809,20.93,58.495,30.053,83.181,31.126s39.712,9.66,43.469,8.05
		c-15.563-17.71-46.689-31.663-49.909-36.492c-2.683-4.293,19.856,0,24.149,1.073s11.806-0.537,10.196-2.683
		c-1.61-2.147-8.05-9.66-13.953-12.343c-5.903-2.683-40.786-7.513-40.786-7.513c-20.929-33.272-31.663-54.202-33.809-61.715
		c-2.147-7.513-4.293-63.325-3.22-71.375s31.663-82.645,43.469-90.158c38.639-16.636,69.765-33.273,81.035-37.566
		c11.27-4.293,55.275-21.466,66.545-19.32c11.27,2.147,31.663,8.05,37.566,5.367c5.903-2.683,8.05-11.806,8.05-11.806
		c-12.343,4.293-10.733,8.05-16.636,6.44c-5.903-1.61-27.369-5.903-27.369-5.903c17.173-8.586,26.296-17.173,26.296-17.173
		s0-5.903-2.683-9.123c-15.563,9.123-23.076,14.49-33.273,17.71c-10.196,3.22-16.636,3.757-26.833,9.123
		c-10.196,5.367-23.613,12.343-34.882,15.563c-11.27,3.22-66.545-2.683-81.035,1.073S0,74.265,0,74.265S0,391.427,0,391.964z"/>
	<path id="XMLID_7_" style="fill:#B78D80;stroke:#704E48;stroke-miterlimit:10;" d="M498.354,20.599
		c13.953,18.246,36.492,35.419,47.225,42.932c10.733,7.513,51.149,42.328,49.003,43.938c-33.236-5.633-125.744,1.141-143.99,0.604
		s-74.595-10.733-82.645-17.173c-9.66-7.513-29.516-8.586-29.516-8.586c23.076,19.856,39.712,16.636,48.835,22.003
		c9.123,5.367,24.149,11.806,28.443,11.806c4.293,0-37.029,21.466-40.786,22.539c-1.073,2.683,31.126,1.073,33.273,0.537
		c2.147-0.537,15.026-19.32,28.979-19.856c13.953-0.537,68.692,1.61,74.595,1.61c5.903,0,34.882,3.757,45.616,11.806
		c10.733,8.05,18.246,5.903,26.833,23.076c8.586,17.173,16.636,38.639,16.636,38.639s3.757,4.83,6.44,18.246
		c2.683,13.416-9.123,44.006-9.123,44.006s-8.05,24.686-14.49,29.516c-6.44,4.83-41.322,24.149-41.322,24.149
		c57.959,8.586,46.689,10.733,59.032,11.27c22.003,0-28.979,43.469-30.053,46.689C581.535,370.497,648,346.348,648,346.348V20.599
		C648,20.599,516.063-4.623,498.354,20.599z"/>
	<path id="XMLID_114_" style="fill:#B78D80;stroke:#704E48;stroke-miterlimit:10;" d="M593.506,137.18
		c9.696,23.122,32.073,60.416,31.327,76.08c-0.746,15.663-5.967,35.802-5.967,35.802"/>
	<path id="XMLID_116_" style="fill:#B78D80;stroke:#704E48;stroke-miterlimit:10;" d="M625.578,288.594
		c10.442-31.327,15.663-85.776,9.696-98.456"/>
	<path id="XMLID_156_" style="fill:#B78D80;stroke:#704E48;stroke-miterlimit:10;" d="M604.694,188.646
		c13.426,8.205,29.089-14.172,29.089-14.172"/>
	<path id="XMLID_157_" style="fill:#B78D80;stroke:#704E48;stroke-miterlimit:10;" d="M613.644,234.89
		c12.68,6.713,29.089,7.459,29.089,7.459"/>
	<path id="XMLID_160_" style="fill:#B78D80;stroke:#704E48;stroke-miterlimit:10;" d="M594.252,71.543
		c28.343,20.885,34.31,46.99,37.294,56.687"/>
	<path id="XMLID_173_" style="fill:#B78D80;stroke:#704E48;stroke-miterlimit:10;" d="M616.628,68.559
		c10.442,8.205,21.63,40.277,21.63,40.277"/>
	<path id="XMLID_174_" style="fill:#B78D80;stroke:#704E48;stroke-miterlimit:10;" d="M24.4,161.048
		c-1.492,12.68-3.729,89.505-2.238,98.456"/>
	<path id="XMLID_175_" style="fill:#B78D80;stroke:#704E48;stroke-miterlimit:10;" d="M37.08,240.112
		c-1.492,23.122,8.205,72.35,14.172,80.555"/>
	<path id="XMLID_176_" style="fill:#B78D80;stroke:#704E48;stroke-miterlimit:10;" d="M10.974,205.055
		c10.442,8.205,27.92,2.654,27.92,2.654"/>
</g>
<g id="Layer_23">

		<use xlink:href="#grass1"  width="27.928" height="32.319" id="XMLID_144_" x="-13.964" y="-16.16" transform="matrix(1 0 0 -1 596.7883 311.1405)" style="overflow:visible;"/>

		<use xlink:href="#grass3"  width="30.035" height="23.762" id="XMLID_147_" x="-15.018" y="-11.881" transform="matrix(1.2371 0 0 -1.2371 56.7944 374.4818)" style="overflow:visible;"/>

		<use xlink:href="#grass2"  width="20.07" height="27.042" id="XMLID_148_" x="-10.035" y="-13.521" transform="matrix(1 0 0 -1 119.7057 359.2722)" style="overflow:visible;"/>

		<use xlink:href="#grass3"  width="30.035" height="23.762" id="XMLID_149_" x="-15.018" y="-11.881" transform="matrix(1 0 0 -1 166.461 291.1109)" style="overflow:visible;"/>

		<use xlink:href="#grass2"  width="20.07" height="27.042" id="XMLID_150_" x="-10.035" y="-13.521" transform="matrix(0.7084 0 0 -0.7084 121.3957 298.434)" style="overflow:visible;"/>
</g>
<g id="Layer_20">
	<path id="XMLID_86_" style="fill:#549E67;stroke:#237537;stroke-linecap:round;stroke-linejoin:round;stroke-miterlimit:10;" d="
		M316.811,68.177c-2.557,9.132-4.383,60.637,13.881,23.743c0.365,12.785,2.192,11.324,5.479,0.365
		c3.288,8.036,6.575-0.365,7.306-1.461c4.018,27.031,17.899,22.282,19.36-7.306c2.922,10.593,10.958,5.845,11.689-11.324
		c2.557,10.593,10.228-1.096,9.863-4.383c5.845,16.438,10.958,14.611,12.054,3.288c3.653,13.881,19.725,7.306,21.917-6.94
		c4.018,11.324,53.697-16.072,56.254-29.223c5.479,16.803,17.899,12.785,19.36-4.018c8.036,17.168,13.881,17.168,17.534-1.826
		c3.653,7.671,8.402,6.575,10.228,0.731c-0.731,28.492,14.977,15.707,14.977,6.575c2.192,14.977,11.324,17.534,11.324,17.534
		c0.731,5.479,7.306,18.629,11.324,4.749c4.018-13.881,4.018-21.552,4.018-21.552c0,23.743,7.306,19.36,10.228,9.497
		c2.557,22.648,10.593,20.456,12.785,16.803c2.192-3.653,5.114-15.707,5.114-15.707c4.018,20.821,19.725,22.648,21.917,6.94
		c6.94,8.402,12.785-1.461,13.15-7.671c2.922,19.725,14.246,11.324,15.342,5.845C645.2,72.195,648,65.62,648,65.62V0H328.134
		L316.811,68.177z"/>
	<path id="XMLID_92_" style="fill:#549E67;stroke:#237537;stroke-linecap:round;stroke-linejoin:round;stroke-miterlimit:10;" d="
		M371.238,126.257c-5.114-14.977-15.707-15.342-10.228-5.114c-21.917-9.132-25.935,2.192-12.785,7.306
		c-15.342,1.826-13.15,7.671-13.15,7.671c-13.881,2.192-24.839,8.402-14.246,10.593c10.228,2.192,13.881,1.096,13.881,1.096
		c-14.611,9.132-14.611,13.515-13.516,14.246c-5.114,9.863,0.731,10.228,0.731,10.228c-10.958,10.228,0.731,20.821,9.497,5.845
		c-3.288,14.246,2.192,11.324,2.192,11.324c1.461,13.881,10.593,24.839,14.611,9.863c5.845,10.228,13.516,6.94,14.246-10.228
		c4.018,24.839,12.785,27.396,15.342,10.228c4.749,9.863,10.958-4.749,10.593-6.575c5.479,12.42,10.228-7.306,4.383-16.803
		c6.575,10.959,12.42,5.845,8.401-0.731c2.557,17.534,14.977,5.114,7.306-10.959c7.671,1.096,4.749-8.036,3.288-10.958
		c9.863-1.461,14.977-4.383,4.018-10.593c5.114-6.94-9.863-9.497-9.863-9.497c7.306-9.863,1.096-16.803-11.689-10.593
		c-5.845,1.461-8.036,5.114-8.036,5.114C387.31,112.011,374.525,117.49,371.238,126.257z"/>
</g>
<g id="Layer_10">
	<path id="XMLID_19_" style="fill:#E8B592;stroke:#72382A;stroke-linecap:round;stroke-linejoin:round;stroke-miterlimit:10;" d="
		M57.738,157.585c-5.088-9.233-12.437-9.799-9.799-6.218c2.638,3.58,1.507,2.827,1.507,2.827
		c-10.741,1.508-13.379,8.291-10.929,10.364s18.655-2.073,18.655-2.073L57.738,157.585z"/>
	<path id="XMLID_48_" style="fill:#E8B592;stroke:#72382A;stroke-linecap:round;stroke-linejoin:round;stroke-miterlimit:10;" d="
		M185.754,62.636c6.092-4.964,13.538-9.251,16.471-7.446s4.738,9.025,0,11.282S184.4,68.954,185.754,62.636z"/>
	<path id="XMLID_49_" style="fill:#E8B592;stroke:#72382A;stroke-linecap:round;stroke-linejoin:round;stroke-miterlimit:10;" d="
		M218.697,49.549c1.816-3.431,11.733-7.446,15.343-5.415c3.61,2.031,3.159,8.574-0.226,10.605S216.666,53.385,218.697,49.549z"/>
</g>
<g id="Layer_7">
	<path id="XMLID_13_" style="fill:#7A5135;stroke:#4C2E19;stroke-linecap:round;stroke-linejoin:round;stroke-miterlimit:10;" d="
		M125.424,133.263c-6.387-10.351-28.189-12.773-35.677,1.101c-7.488,14.315,4.405,25.106,12.112,25.106
		C109.348,159.47,125.644,133.263,125.424,133.263z"/>
	<path id="XMLID_12_" style="fill:#7A5135;stroke:#4C2E19;stroke-linecap:round;stroke-linejoin:round;stroke-miterlimit:10;" d="
		M84.683,160.13c-3.083,3.964-18.719,6.166-24.225,0.44c-1.542-6.166-5.285-9.249-3.524-2.863c-5.946-2.643-6.166,0.881-1.101,4.405
		c-4.405,1.101,0.22,2.643,1.542,3.303c4.845,13.874,14.975,11.452,14.975,11.452c-5.506,2.643-5.506,2.643-5.506,2.643
		c5.946,1.762,12.333-2.863,12.333-2.863c-3.524,4.625-5.506,6.607-5.506,6.607c8.369-2.202,17.838-15.636,18.058-20.701
		c0.22-5.065-0.44-6.387-2.422-5.946"/>
	<path id="XMLID_21_" style="fill:none;stroke:#4C2E19;stroke-linecap:round;stroke-linejoin:round;stroke-miterlimit:10;" d="
		M103.717,126.116c0.188-3.015,3.957-6.972,6.03-6.972"/>
	<path id="XMLID_22_" style="fill:none;stroke:#4C2E19;stroke-linecap:round;stroke-linejoin:round;stroke-miterlimit:10;" d="
		M106.92,126.681c2.261-3.203,8.668-4.711,8.668-4.711"/>
</g>
<g id="Layer_8">
	<path id="XMLID_16_" style="fill:#E8B592;stroke:#72382A;stroke-linecap:round;stroke-linejoin:round;stroke-miterlimit:10;" d="
		M94.86,140.814c-3.015-9.422-8.857-8.668-11.306-6.784c-2.45,1.884-6.03,11.118,0.754,15.829
		c6.784,4.711,11.495,0.565,11.495,0.565"/>
	<path id="XMLID_14_" style="fill:#E8B592;stroke:#72382A;stroke-linecap:round;stroke-linejoin:round;stroke-miterlimit:10;" d="
		M93.353,141.567c1.319-9.233,7.537-11.495,12.437-10.929c4.899,0.565,7.349,3.392,12.248,0.377s6.972,0.754,7.349,2.45
		c0.377,1.696-0.377,10.929-1.507,13.191c6.972,6.407-0.942,14.698-4.334,15.452c-3.392,0.754-16.18-0.204-19.409-2.073
		c-3.58-2.073-6.595-9.61-6.595-9.61s-3.203-14.698-9.045-12.06"/>
</g>
<g id="Layer_21">
</g>
<g id="Layer_17">
	<g id="XMLID_115_">

			<use xlink:href="#bananabunch1"  width="76.266" height="66.028" id="XMLID_111_" x="-36.175" y="-32.284" transform="matrix(0.8996 -0.4367 0.4367 0.8996 521.1956 254.2852)" style="overflow:visible;"/>

			<use xlink:href="#bananabunch1"  width="76.266" height="66.028" id="XMLID_110_" x="-36.175" y="-32.284" transform="matrix(0.3396 -0.9406 0.9406 0.3396 470.0206 256.2881)" style="overflow:visible;"/>

			<use xlink:href="#bananabunch1"  width="76.266" height="66.028" id="XMLID_106_" x="-36.175" y="-32.284" transform="matrix(-1 0 0 -1 456.4719 243.0712)" style="overflow:visible;"/>

			<use xlink:href="#banana1"  width="56.63" height="47.334" id="XMLID_97_" x="-26.988" y="-18.359" transform="matrix(0.9888 0.1492 0.1492 -0.9888 482.0892 239.3818)" style="overflow:visible;"/>

			<use xlink:href="#banana1"  width="56.63" height="47.334" id="XMLID_102_" x="-26.988" y="-18.359" transform="matrix(0.9935 -0.1137 -0.1137 -0.9935 490.1171 248.6038)" style="overflow:visible;"/>

			<use xlink:href="#banana1"  width="56.63" height="47.334" id="XMLID_103_" x="-26.988" y="-18.359" transform="matrix(0.9332 -0.3594 -0.3594 -0.9332 499.2275 252.3417)" style="overflow:visible;"/>

			<use xlink:href="#banana1"  width="56.63" height="47.334" id="XMLID_104_" x="-26.988" y="-18.359" transform="matrix(0.7633 -0.6461 -0.6461 -0.7633 513.4185 257.8273)" style="overflow:visible;"/>
		<path id="XMLID_93_" style="fill:#876554;stroke:#4C3328;stroke-linecap:round;stroke-linejoin:round;stroke-miterlimit:10;" d="
			M489.616,268.532c0,0.833-0.556,67.504-0.556,67.504l70.004-15.834l3.611-63.892L489.616,268.532z"/>
		<path id="XMLID_95_" style="fill:#B28672;stroke:#4C3328;stroke-linecap:round;stroke-linejoin:round;stroke-miterlimit:10;" d="
			M489.616,268.532c0,0.833-0.833,67.782-0.833,67.782l-70.004-15.834l-3.611-63.892L489.616,268.532z"/>

			<polygon id="XMLID_94_" style="fill:#B28672;stroke:#4C3328;stroke-linecap:round;stroke-linejoin:round;stroke-miterlimit:10;" points="
			415.167,256.587 394.889,274.088 482.671,291.311 489.616,268.532 		"/>

			<polygon id="XMLID_96_" style="fill:#B28672;stroke:#4C3328;stroke-linecap:round;stroke-linejoin:round;stroke-miterlimit:10;" points="
			489.616,268.532 497.672,292.144 576.565,275.477 562.676,256.309 		"/>
	</g>

		<use xlink:href="#grass2"  width="20.07" height="27.042" id="XMLID_177_" x="-10.035" y="-13.521" transform="matrix(1 0 0 -1 436.77 318.489)" style="overflow:visible;"/>
</g>
<g id="Layer_9">
	<path id="XMLID_17_" style="fill:#E8B592;stroke:#72382A;stroke-linecap:round;stroke-linejoin:round;stroke-miterlimit:10;" d="
		M107.486,148.916c3.769-3.392,11.683-2.827,13.191,3.58"/>
	<path id="XMLID_18_" style="fill:#E8B592;stroke:#72382A;stroke-linecap:round;stroke-linejoin:round;stroke-miterlimit:10;" d="
		M104.659,158.338c4.146,10.364,15.829,9.233,15.64-0.942"/>
</g>
<g id="Layer_12">
	<ellipse id="XMLID_15_" style="fill:#110E0C;" cx="106.543" cy="143.734" rx="1.131" ry="2.732"/>
	<ellipse id="XMLID_24_" style="fill:#110E0C;" cx="118.603" cy="143.734" rx="1.131" ry="2.732"/>
	<path id="XMLID_25_" style="fill:none;stroke:#110E0C;stroke-linecap:round;stroke-linejoin:round;stroke-miterlimit:10;" d="
		M109.394,151.421c1.172-0.469,2.579-0.117,3.399,1.172"/>
	<path id="XMLID_26_" style="fill:none;stroke:#110E0C;stroke-linecap:round;stroke-linejoin:round;stroke-miterlimit:10;" d="
		M116.778,153.179c0.938-0.82,1.524-2.227,1.524-2.227"/>
	<path id="XMLID_59_" style="fill:#E8B592;stroke:#72382A;stroke-linecap:round;stroke-linejoin:round;stroke-miterlimit:10;" d="
		M409.428,20.625c7.344-7.969,15.939-10.47,23.596-5.782s4.375,9.845-0.625,9.376c-5-0.469-17.658,1.875-17.658,1.875
		S405.052,26.25,409.428,20.625z"/>
	<path id="XMLID_23_" style="fill:none;stroke:#110E0C;stroke-linecap:round;stroke-linejoin:round;stroke-miterlimit:10;" d="
		M116.661,159.626c-0.586,0.938-0.586,1.875,0.117,1.875S116.661,159.626,116.661,159.626z"/>
	<path id="XMLID_28_" style="fill:none;stroke:#110E0C;stroke-linecap:round;stroke-linejoin:round;stroke-miterlimit:10;" d="
		M103.299,137.122c1.172-1.641,3.868-3.165,5.04-1.875"/>
	<path id="XMLID_29_" style="fill:none;stroke:#110E0C;stroke-linecap:round;stroke-linejoin:round;stroke-miterlimit:10;" d="
		M118.185,135.129c0.82-0.82,2.93-1.289,4.102,0.352"/>
	<path id="XMLID_69_" style="fill:#E8B592;stroke:#72382A;stroke-linecap:round;stroke-linejoin:round;stroke-miterlimit:10;" d="
		M484.59,99.225c-6.719,0.781-15.001,7.032-7.032,8.907s23.439-3.438,23.439-3.438c0.156-0.625-2.5-5.938-2.5-5.938L484.59,99.225z"
		/>
	<path id="XMLID_68_" style="fill:#7A5135;stroke:#4C2E19;stroke-linecap:round;stroke-linejoin:round;stroke-miterlimit:10;" d="
		M500.791,78.794c-10.154-9.928-18.502-11.507-22.564-4.513s2.256,14.441,8.574,22.112c-7.22,3.385-10.379,5.415-4.513,5.19
		c5.867-0.226,8.574-2.482,8.574-2.482c-3.836,3.385-5.19,6.092-1.579,4.513c3.61-1.579,6.318-4.061,6.318-4.061
		c1.579,2.482,6.769,1.128,6.769,1.128c-2.031-2.482-12.636-16.471-12.636-16.471s8.574,12.41,13.764,9.025"/>
	<path id="XMLID_66_" style="fill:#E8B592;stroke:#72382A;stroke-linecap:round;stroke-linejoin:round;stroke-miterlimit:10;" d="
		M458.494,106.725c-3.438,0.781-12.188,4.063-9.532,7.657c4.844,0.156,8.594-1.875,8.594-1.875c1.719,4.844-3.75,7.813-3.75,7.813
		c6.876,5,19.845,4.375,16.408-9.219C466.62,101.568,458.494,106.881,458.494,106.725z"/>
	<path id="XMLID_54_" style="fill:#7A5135;stroke:#4C2E19;stroke-linecap:round;stroke-linejoin:round;stroke-miterlimit:10;" d="
		M515.635,80.687c10.831,20.307,25.046,26.851,28.881,48.512c3.836,21.661-16.02,37.907-32.04,40.163
		c-16.02,2.256-34.974-6.318-33.846-23.241c1.128-16.923,19.63-20.082,20.759-11.056s-7.897,6.318-9.251,4.061
		c-1.354-2.256-9.928,11.056,1.805,19.179s34.974,5.19,42.645-12.861c7.672-18.051-16.923-46.932-20.082-49.866
		C511.799,85.651,515.635,80.236,515.635,80.687z"/>
	<path id="XMLID_65_" style="fill:#E8B592;stroke:#72382A;stroke-linecap:round;stroke-linejoin:round;stroke-miterlimit:10;" d="
		M495.372,103.6c-6.719,0.781-15.001,7.032-7.032,8.907c7.969,1.875,23.439-3.438,23.439-3.438c0.156-0.625-2.5-5.938-2.5-5.938
		L495.372,103.6z"/>
	<path id="XMLID_50_" style="fill:#7A5135;stroke:#4C2E19;stroke-linecap:round;stroke-linejoin:round;stroke-miterlimit:10;" d="
		M451.103,73.241c3.61,2.256,11.056,15.795,11.056,15.795c0.677-3.159,0.451-6.318,0.451-6.318c2.256,4.513,9.928,9.702,9.928,9.702
		s31.363,14.441,41.517,5.415c10.154-9.025,7.22-24.369-1.354-30.912c-8.574-6.543-22.112-12.636-37.456-10.379
		C459.903,58.8,449.749,70.082,451.103,73.241z"/>
	<path id="XMLID_51_" style="fill:#7A5135;stroke:#4C2E19;stroke-linecap:round;stroke-linejoin:round;stroke-miterlimit:10;" d="
		M438.467,57.898c-14.892,2.031-21.21-2.482-25.271-16.697c-3.836-13.764,5.641-13.313,5.641-13.313
		c0.903-0.226-3.61-3.159-3.61-3.159c1.579-1.805,2.933-9.477-3.159-2.708c3.385-8.349-0.903-8.349-1.805-7.897
		c-2.031,6.092-3.159,7.22-3.159,7.22c-7.672,9.025-9.025,23.466-1.579,33.846c-4.513-4.738-5.641-4.738-5.641-4.738
		c3.836,10.379,4.513,10.605,11.056,13.989c-6.092,0-6.092,0-6.092,0c6.769,7.22,14.215,5.415,14.215,5.415
		c-1.128,1.579,19.405,7.22,22.564,2.031C444.785,66.698,438.467,57.898,438.467,57.898z"/>
	<path id="XMLID_47_" style="fill:#7A5135;stroke:#4C2E19;stroke-linecap:round;stroke-linejoin:round;stroke-miterlimit:10;" d="
		M462.507,57.897c1.085,0,7.953-5.242,7.953-5.242c-0.723-11.93-10.303-17.533-10.845-17.714
		c-0.542-0.181-18.256-2.711-22.955,8.495C456.543,48.317,462.688,58.077,462.507,57.897z"/>
	<path id="XMLID_52_" style="fill:#7A5135;stroke:#4C2E19;stroke-linecap:round;stroke-linejoin:round;stroke-miterlimit:10;" d="
		M465.544,69.405c5.415,7.22,5.19,23.015-4.287,34.748c-7.446,1.579-9.702,11.056,0.226,4.738c1.805,4.061,3.836,2.256,3.836-0.677
		c4.287,6.995,8.574,6.995,5.641,0.677c9.702-6.769,11.507-13.538,11.282-17.374c2.256,3.836,2.256,3.836,2.256,3.836
		c1.579-4.964,0.677-19.63-5.19-28.205"/>
	<path id="XMLID_53_" style="fill:#7A5135;stroke:#4C2E19;stroke-linecap:round;stroke-linejoin:round;stroke-miterlimit:10;" d="
		M511.574,83.169c-10.154-9.928-18.502-11.507-22.564-4.513s2.256,14.441,8.574,22.112c-7.22,3.385-10.379,5.415-4.513,5.19
		c5.867-0.226,8.574-2.482,8.574-2.482c-3.836,3.385-5.19,6.092-1.579,4.513c3.61-1.579,6.318-4.061,6.318-4.061
		c1.579,2.482,6.769,1.128,6.769,1.128c-2.031-2.482-12.636-16.471-12.636-16.471s8.574,12.41,13.764,9.025"/>
	<path id="XMLID_56_" style="fill:#E8B592;stroke:#72382A;stroke-linecap:round;stroke-linejoin:round;stroke-miterlimit:10;" d="
		M441.179,38.195c-3.254,2.711-6.688,6.688-6.688,9.761c0,3.073,0.181,7.23,0,6.507c-3.977,3.073-4.338,8.857,1.627,12.653
		s19.521,15.725,30.366-0.723c-3.434-9.399-3.073-16.629-5.422-20.786c-2.35-4.157-9.58-7.049-13.918-1.988
		C441.179,41.087,441.179,38.195,441.179,38.195z"/>
	<path id="XMLID_55_" style="fill:#E8B592;stroke:#72382A;stroke-linecap:round;stroke-linejoin:round;stroke-miterlimit:10;" d="
		M460.954,56.788c7.23-8.134,13.918-6.507,14.279,0.723s-9.038,11.568-13.014,7.772"/>
	<path id="XMLID_57_" style="fill:#E8B592;stroke:#72382A;stroke-linecap:round;stroke-linejoin:round;stroke-miterlimit:10;" d="
		M439.535,66.887c-2.666,6.854,1.523,12.09,7.806,11.709s10.186-7.045,9.901-8.758"/>
	<path id="XMLID_60_" style="fill:#BA6352;stroke:#72382A;stroke-linecap:round;stroke-linejoin:round;stroke-miterlimit:10;" d="
		M452.935,64.34c0.652,4.887-0.733,10.751-5.864,11.077c-5.131,0.326-6.597-4.806-6.923-7.005
		C439.821,66.214,452.935,64.34,452.935,64.34z"/>
	<path id="XMLID_58_" style="fill:#E8B592;stroke:#72382A;stroke-linecap:round;stroke-linejoin:round;stroke-miterlimit:10;" d="
		M449.132,58.258c-4.519-3.073-13.556-3.434-15.183,4.338c-1.627,7.772,15.364,11.749,20.605,1.446
		c1.26,0.179,1.807,1.265,1.807,1.265"/>
	<path id="XMLID_61_" style="fill:none;stroke:#110E0C;stroke-linecap:round;stroke-linejoin:round;stroke-miterlimit:10;" d="
		M447.246,59.883c-1.474-0.105-3.895,1.368-3.789,2.316"/>
	<path id="XMLID_62_" style="fill:none;stroke:#110E0C;stroke-linecap:round;stroke-linejoin:round;stroke-miterlimit:10;" d="
		M437.141,59.147c0,1.474,1.053,2.842,1.053,2.842"/>

		<ellipse id="XMLID_64_" style="fill:#110E0C;stroke:#110E0C;stroke-linecap:round;stroke-linejoin:round;stroke-miterlimit:10;" cx="453.035" cy="54.041" rx="0.632" ry="2.474"/>

		<ellipse id="XMLID_63_" style="fill:#110E0C;stroke:#110E0C;stroke-linecap:round;stroke-linejoin:round;stroke-miterlimit:10;" cx="438.93" cy="52.778" rx="0.632" ry="2.474"/>
	<path id="XMLID_70_" style="fill:none;stroke:#4C2E19;stroke-linecap:round;stroke-linejoin:round;stroke-miterlimit:10;" d="
		M460.057,37.813c0-2.344-1.406-7.501-1.719-7.501"/>
	<path id="XMLID_71_" style="fill:none;stroke:#4C2E19;stroke-linecap:round;stroke-linejoin:round;stroke-miterlimit:10;" d="
		M456.133,36.224c-0.593-2.268-3.257-6.901-3.559-6.822"/>
	<path id="XMLID_72_" style="fill:none;stroke:#4C2E19;stroke-linecap:round;stroke-linejoin:round;stroke-miterlimit:10;" d="
		M451.813,36.084c-1.059-2.091-4.642-6.057-4.921-5.916"/>
</g>
<g id="Layer_5">
	<path id="XMLID_8_" style="fill:#549E67;stroke:#237537;stroke-linecap:round;stroke-linejoin:round;stroke-miterlimit:10;" d="
		M0,115.05c4.667,9.746,11.609-1.073,11.609-3.757c-2.683,24.686,9.123,34.882,11.27,1.073c4.83,15.026,8.05,6.44,5.367-8.05
		c7.513,26.296,25.759,18.246,22.003-1.61c3.22,15.026,8.05,3.757,6.44-4.293c5.903,28.979,16.1,13.416,12.88-2.683
		c4.293,12.343,9.66,1.073,8.05-10.196c6.977,18.246,18.783,9.123,13.416-9.123c9.66,13.416,14.49,3.22,10.196-4.293
		c14.49,10.733,18.783,24.686,19.856-15.026c9.66,12.88,25.223,15.563,16.1,2.147c10.196,4.83,17.173,4.293,17.71-9.66
		c7.513,8.05,16.636-8.05,13.953-28.443c1.073,15.563,6.977,19.856,11.27,12.88c1.073,15.026,16.1,15.563,16.636-6.44
		c10.733,12.88,16.636,6.976,18.246-4.293c3.757,13.953,16.636,10.196,20.393-8.586c0.537,12.88,5.367,15.563,11.806,4.83
		c-8.05,19.856,9.66,17.71,9.66,17.71c-8.05,19.32,9.66,12.88,9.66,12.88c0,36.492,13.953,27.369,17.173,12.88
		c5.367,15.563,16.636-1.073,16.1-9.66c8.586,20.393,25.223,13.416,25.759-4.293c9.66,9.66,10.733-10.733,10.733-10.733
		c6.44-1.073,5.367-18.246-2.147-31.126c5.903-4.293,5.47-8.36,4.293-7.183S0,0,0,0S0,116.66,0,115.05z"/>
	<path id="XMLID_88_" style="fill:#549E67;stroke:#237537;stroke-linecap:round;stroke-linejoin:round;stroke-miterlimit:10;" d="
		M285.031,15.941c-7.306,13.881,8.036,34.702,10.958,6.94"/>
	<path id="XMLID_89_" style="fill:#549E67;stroke:#237537;stroke-linecap:round;stroke-linejoin:round;stroke-miterlimit:10;" d="
		M296.72,13.749c-4.018,12.054,9.497,27.031,9.132,4.749"/>
</g>
<g id="Layer_19">
	<path id="XMLID_87_" style="fill:#2F6143;stroke:#265138;stroke-miterlimit:10;" d="M22.908,32.96
		c8.77,4.272,17.989,2.249,16.64-13.941c5.172,6.971,12.142,7.196,12.817,0.225c2.698,3.148,6.521,4.497,8.77-2.923
		c6.521,13.716,17.764,6.521,17.764,6.521c-2.698,8.77,5.172,6.971,5.172,6.971c-2.698,2.923-5.622,2.923-2.024,7.42
		c-6.746-4.272-9.219,1.799-0.899,6.521c-4.722-0.45-1.799,6.746-1.799,6.746l-1.799,12.592c-4.722-0.675-6.521,4.497-4.272,8.095
		c-3.373-3.823-8.77,3.148-6.296,9.444c-5.172-6.971-8.994,0-8.994,0c-0.225-8.32-11.918-3.598-11.918-3.598
		c2.249-5.846-3.823-14.616-7.87-14.391c-3.373,0.225-5.172-7.87-12.367-2.024c8.77-13.492-2.923-11.243-2.923-11.243
		C29.654,47.126,27.405,38.806,22.908,32.96z"/>
</g>
<g id="Layer_18">
	<g id="XMLID_75_">
		<path id="XMLID_73_" style="fill:#7A5135;stroke:#4C2E19;stroke-linecap:round;stroke-linejoin:round;stroke-miterlimit:10;" d="
			M37.387,51.961c2.218-10.496,7.54-16.853,19.958-17.888c12.418-1.035,17.303,5.063,19.373,13.785
			C60.16,55.989,37.239,51.961,37.387,51.961z"/>
		<path id="XMLID_81_" style="fill:none;stroke:#4C2E19;stroke-linecap:round;stroke-linejoin:round;stroke-miterlimit:10;" d="
			M49.27,36.727c-0.379-4.807,3.921-9.107,3.921-9.107"/>
		<path id="XMLID_82_" style="fill:none;stroke:#4C2E19;stroke-linecap:round;stroke-linejoin:round;stroke-miterlimit:10;" d="
			M52.685,37.106c1.012-3.795,5.945-7.083,5.945-7.083"/>
		<path id="XMLID_83_" style="fill:none;stroke:#4C2E19;stroke-linecap:round;stroke-linejoin:round;stroke-miterlimit:10;" d="
			M56.226,36.221c1.138-2.024,6.451-4.301,6.451-4.301"/>
		<path id="XMLID_67_" style="fill:#E8B592;stroke:#72382A;stroke-linecap:round;stroke-linejoin:round;stroke-miterlimit:10;" d="
			M38.866,50.926c1.331-7.54,14.488-15.671,19.662-10.348c5.766-5.026,12.418-5.174,16.262,3.844
			c3.844,9.018,6.505,15.671-3.105,19.662s-14.783,10.644-26.758,4.879c-3.992-3.105-3.13-3.847-3.13-3.847
			C24.707,72.311,27.63,42.179,38.866,50.926z"/>
		<path id="XMLID_74_" style="fill:#E8B592;stroke:#72382A;stroke-linecap:round;stroke-linejoin:round;stroke-miterlimit:10;" d="
			M53.649,62.31c1.774-7.687,12.122-12.566,18.479-2.365c4.139,7.983-6.948,21.732-17.74,9.905"/>
		<path id="XMLID_76_" style="fill:#E8B592;stroke:#72382A;stroke-linecap:round;stroke-linejoin:round;stroke-miterlimit:10;" d="
			M55.128,64.971c3.105,4.731,14.044,5.322,17.445-1.626"/>

			<ellipse id="XMLID_77_" transform="matrix(0.9996 -0.0281 0.0281 0.9996 -1.4854 1.4927)" style="fill:#110E0C;" cx="52.462" cy="53.688" rx="1.131" ry="2.732"/>

			<ellipse id="XMLID_78_" transform="matrix(0.9996 -0.0281 0.0281 0.9996 -1.3736 1.8709)" style="fill:#110E0C;" cx="65.996" cy="49.893" rx="1.131" ry="2.732"/>
		<path id="XMLID_79_" style="fill:none;stroke:#110E0C;stroke-linecap:round;stroke-linejoin:round;stroke-miterlimit:10;" d="
			M57.744,61.519c0.759-0.506,2.403-0.506,3.415,0.506"/>
		<path id="XMLID_80_" style="fill:none;stroke:#110E0C;stroke-linecap:round;stroke-linejoin:round;stroke-miterlimit:10;" d="
			M67.737,57.598c-0.506,1.771-0.253,2.53-0.253,2.53"/>
	</g>
	<path id="XMLID_85_" style="fill:#E8B592;stroke:#72382A;stroke-linecap:round;stroke-linejoin:round;stroke-miterlimit:10;" d="
		M41.347,69.163c2.215-6.644,13.941,2.024,13.716,6.296c-0.225,4.272-6.296,8.994-9.444,6.296
		C42.471,79.956,43.595,73.435,41.347,69.163z"/>
	<path id="XMLID_84_" style="fill:#E8B592;stroke:#72382A;stroke-linecap:round;stroke-linejoin:round;stroke-miterlimit:10;" d="
		M82.783,45.926c-1.556-4.609-10.525,11.66-7.324,14.706C78.659,63.677,87.467,59.799,82.783,45.926z"/>
</g>
<g id="Layer_22">

		<rect id="XMLID_105_" y="339.604" style="fill:#BFBCB6;stroke:#6D6B68;stroke-linecap:round;stroke-linejoin:round;stroke-miterlimit:10;" width="648" height="7.178"/>

		<use xlink:href="#pole_18_"  width="21.786" height="125.315" id="XMLID_112_" x="-10.893" y="-62.657" transform="matrix(1 0 0 -1 25.2333 369.7263)" style="overflow:visible;"/>

		<use xlink:href="#pole_18_"  width="21.786" height="125.315" id="XMLID_117_" x="-10.893" y="-62.657" transform="matrix(1 0 0 -1 96.7846 369.7263)" style="overflow:visible;"/>

		<use xlink:href="#pole_18_"  width="21.786" height="125.315" id="XMLID_119_" x="-10.893" y="-62.657" transform="matrix(1 0 0 -1 176.7303 369.7263)" style="overflow:visible;"/>

		<use xlink:href="#pole_18_"  width="21.786" height="125.315" id="XMLID_118_" x="-10.893" y="-62.657" transform="matrix(1 0 0 -1 248.2816 369.7263)" style="overflow:visible;"/>

		<use xlink:href="#pole_18_"  width="21.786" height="125.315" id="XMLID_121_" x="-10.893" y="-62.657" transform="matrix(1 0 0 -1 328.627 369.7263)" style="overflow:visible;"/>

		<use xlink:href="#pole_18_"  width="21.786" height="125.315" id="XMLID_120_" x="-10.893" y="-62.657" transform="matrix(1 0 0 -1 400.1783 369.7263)" style="overflow:visible;"/>

		<use xlink:href="#pole_18_"  width="21.786" height="125.315" id="XMLID_126_" x="-10.893" y="-62.657" transform="matrix(1 0 0 -1 469.731 369.7263)" style="overflow:visible;"/>

		<use xlink:href="#pole_18_"  width="21.786" height="125.315" id="XMLID_125_" x="-10.893" y="-62.657" transform="matrix(1 0 0 -1 541.2823 369.7263)" style="overflow:visible;"/>

		<use xlink:href="#pole_18_"  width="21.786" height="125.315" id="XMLID_127_" x="-10.893" y="-62.657" transform="matrix(1 0 0 -1 623.6264 369.7263)" style="overflow:visible;"/>
</g>
</svg>
