<?xml version="1.0" encoding="utf-8"?>
<!-- Generator: Adobe Illustrator 19.0.0, SVG Export Plug-In . SVG Version: 6.00 Build 0)  -->
<!DOCTYPE svg PUBLIC "-//W3C//DTD SVG 1.0//EN" "http://www.w3.org/TR/2001/REC-SVG-20010904/DTD/svg10.dtd">
<svg version="1.0" xmlns="http://www.w3.org/2000/svg" xmlns:xlink="http://www.w3.org/1999/xlink" x="0px" y="0px"
	 viewBox="0 0 648 432" enable-background="new 0 0 648 432" xml:space="preserve">
<symbol  id="block_1_" viewBox="-19.7 -19.4 39.3 38.7">

		<polygon id="XMLID_32_" fill="#B5A074" stroke="#776947" stroke-linecap="round" stroke-linejoin="round" stroke-miterlimit="10" points="
		4.1,-18.6 -19.2,-12.3 -19.2,12.4 4.1,6.1 	"/>

		<polygon id="XMLID_31_" fill="#D8C59C" stroke="#776947" stroke-linecap="round" stroke-linejoin="round" stroke-miterlimit="10" points="
		4.4,-18.9 19.2,-12.6 19.2,12.2 4.4,5.9 	"/>

		<polygon id="XMLID_27_" fill="#EDDBB7" stroke="#897750" stroke-linecap="round" stroke-linejoin="round" stroke-miterlimit="10" points="
		-18.8,12.4 0.9,18.9 19.2,12.2 4.1,5.5 	"/>
</symbol>
<symbol  id="drawer" viewBox="-46.1 -17.6 92.2 35.2">

		<polygon id="XMLID_123_" fill="#A3773D" stroke="#5E461E" stroke-linecap="round" stroke-linejoin="round" stroke-miterlimit="10" points="
		45.6,-17.1 -45.6,-17.1 -45.6,17.1 45.6,17.1 	"/>
	<path id="XMLID_122_" fill="#A3773D" stroke="#5E461E" stroke-linecap="round" stroke-linejoin="round" stroke-miterlimit="10" d="
		M-3.8-0.1c0-3,2.4-5.5,5.5-5.5s5.5,2.4,5.5,5.5S4.7,5.3,1.7,5.3S-3.8,2.9-3.8-0.1z"/>
</symbol>
<symbol  id="wheel" viewBox="-10.2 -10.9 19.1 21.9">
	<path id="XMLID_126_" fill="#33322F" stroke="#2D2C2A" stroke-linecap="round" stroke-linejoin="round" stroke-miterlimit="10" d="
		M-1.6-10.4c4.7,0.3,6.3,0.2,6.3,0.2c6.1,4.6,3.2,17,1.9,19s-9,1.7-9,1.7L-1.6-10.4z"/>
	<path id="XMLID_125_" fill="#4C4A45" stroke="#2D2C2A" stroke-linecap="round" stroke-linejoin="round" stroke-miterlimit="10" d="
		M5.9,0.1c0-5.7-3.5-10.3-7.8-10.3S-9.7-5.6-9.7,0.1s3.5,10.3,7.8,10.3S5.9,5.8,5.9,0.1z"/>
	<path id="XMLID_100_" fill="#B5B1AA" stroke="#77746F" stroke-linecap="round" stroke-linejoin="round" stroke-miterlimit="10" d="
		M2.6,0.1c0-3.3-2-5.9-4.4-5.9s-4.4,2.6-4.4,5.9S-4.3,6-1.9,6S2.6,3.3,2.6,0.1z"/>
</symbol>
<g id="Layer_4">
	<radialGradient id="XMLID_127_" cx="448.2672" cy="126.1453" r="275.347" gradientUnits="userSpaceOnUse">
		<stop  offset="4.201389e-02" style="stop-color:#718491"/>
		<stop  offset="1" style="stop-color:#4E5767"/>
	</radialGradient>
	<rect id="XMLID_2_" x="0" y="0" fill="url(#XMLID_127_)" width="648" height="432"/>
	<rect id="XMLID_3_" y="207.5" fill="#91ADBC" stroke="#38535E" stroke-miterlimit="10" width="648" height="224.5"/>
</g>
<g id="Layer_2">

		<polygon id="XMLID_6_" fill="#B5A074" stroke="#776947" stroke-linecap="round" stroke-linejoin="round" stroke-miterlimit="10" points="
		75.2,243.4 41.2,218.5 41.2,303.1 75.2,328 	"/>

		<polygon id="XMLID_8_" fill="#B5A074" stroke="#776947" stroke-linecap="round" stroke-linejoin="round" stroke-miterlimit="10" points="
		249.5,239 77.7,239.4 57.6,222.9 226.3,222.4 	"/>

		<polygon id="XMLID_7_" fill="#8E7954" stroke="#776947" stroke-linecap="round" stroke-linejoin="round" stroke-miterlimit="10" points="
		226.1,222.1 226.1,306.7 251.1,267.9 249.5,239 	"/>

		<polygon id="XMLID_9_" fill="#8C3631" stroke="#66261F" stroke-linecap="round" stroke-linejoin="round" stroke-miterlimit="10" points="
		71.1,250.5 45.2,231.6 45.2,296 71.1,314.9 	"/>

		<polygon id="XMLID_11_" fill="#D8C59C" stroke="#776947" stroke-linecap="round" stroke-linejoin="round" stroke-miterlimit="10" points="
		231.5,218 45.2,218 16.5,150.3 202.8,150.3 	"/>

		<polygon id="XMLID_12_" fill="#B5A074" stroke="#776947" stroke-linecap="round" stroke-linejoin="round" stroke-miterlimit="10" points="
		16.5,150.3 13,157.2 37.8,218.4 45.2,218 	"/>

		<rect id="XMLID_4_" x="75.2" y="243.4" fill="#D8C59C" stroke="#776947" stroke-linecap="round" stroke-linejoin="round" stroke-miterlimit="10" width="190.9" height="84.6"/>
	<path id="XMLID_36_" fill="#44661D" stroke="#71A33D" stroke-linecap="round" stroke-linejoin="round" stroke-miterlimit="10" d="
		M182.7,349.7c0.7-0.2,25,9.1,25,9.1l-19.7,5.7L182.7,349.7z"/>
	<circle id="XMLID_13_" fill="#BA3F3F" stroke="#6D1414" stroke-miterlimit="10" cx="52.8" cy="366.7" r="27.7"/>
	<path id="XMLID_35_" fill="#B79969" stroke="#7F6136" stroke-linecap="round" stroke-linejoin="round" stroke-miterlimit="10" d="
		M138.3,354.4c-0.2-4.7,3.9-10.8,6.6-11.6c2.7-0.8,28.7-1.8,35.4,0s8.6,18.1,8.6,18.1c-1.3,1.2-31.6,6.2-31.6,6.2L138.3,354.4z"/>

		<ellipse id="XMLID_34_" fill="#71A33D" stroke="#44661D" stroke-linecap="round" stroke-linejoin="round" stroke-miterlimit="10" cx="212.1" cy="356.6" rx="6.3" ry="4.5"/>

		<use xlink:href="#block_1_"  width="39.3" height="38.7" id="XMLID_14_" x="-19.7" y="-19.4" transform="matrix(1 0 0 -1 107.0064 399.1846)" overflow="visible"/>
	<g id="block">

			<polygon id="XMLID_24_" fill="#D8C59C" stroke="#776947" stroke-linecap="round" stroke-linejoin="round" stroke-miterlimit="10" points="
			264.2,371.4 285.9,366.1 285.9,341.3 264.2,346.7 		"/>

			<polygon id="XMLID_19_" fill="#B5A074" stroke="#776947" stroke-linecap="round" stroke-linejoin="round" stroke-miterlimit="10" points="
			264,371.6 250.2,364.7 250.2,340 264,346.9 		"/>

			<polygon id="XMLID_18_" fill="#EDDBB7" stroke="#897750" stroke-linecap="round" stroke-linejoin="round" stroke-miterlimit="10" points="
			285.5,341.3 267.3,334 250.2,340 264.3,347.2 		"/>
	</g>
	<path id="XMLID_15_" fill="#71A33D" stroke="#44661D" stroke-linecap="round" stroke-linejoin="round" stroke-miterlimit="10" d="
		M138.1,351.6c-5.6,2.6-7.1,18.4-4.8,27.5c43.7,16.2,49.1,17.3,52.1,17.3c16.2,2.8,46.1-0.9,46.1-0.9c2.4-14.1,1.7-27-0.6-28.8
		s-21.2-9.3-22.3-9.3c-15.8-2.2-36.8,2.6-38.3,2.8C143.1,352.5,138.1,351.6,138.1,351.6z"/>
	<path id="XMLID_20_" fill="#E2D3AF" stroke="#756B4E" stroke-linecap="round" stroke-linejoin="round" stroke-miterlimit="10" d="
		M130.4,370.5c-1,3,0.7,8.2,1.2,8.7c19.7,8.4,51.4,18.5,51.4,18.5c8.7,3.2,46.2,1.3,48.6-0.8s2.4-10.6,2.4-10.6
		c-18.8,2.2-48.6,1.3-49.9,1.7C138,373.7,130.1,370.7,130.4,370.5z"/>

		<rect id="XMLID_10_" x="83" y="251.7" fill="#AF5048" stroke="#66261F" stroke-linecap="round" stroke-linejoin="round" stroke-miterlimit="10" width="174.8" height="68"/>

		<use xlink:href="#wheel"  width="19.1" height="21.9" id="XMLID_21_" x="-10.2" y="-10.9" transform="matrix(1 0 0 -1 172.1981 391.5138)" overflow="visible"/>
	<path id="XMLID_28_" fill="#71A33D" stroke="#44661D" stroke-linecap="round" stroke-linejoin="round" stroke-miterlimit="10" d="
		M155.8,356.2c-2,0.7-6,0-5.2,21.2"/>
	<path id="XMLID_37_" fill="#99948C" stroke="#3A3835" stroke-linecap="round" stroke-linejoin="round" stroke-miterlimit="10" d="
		M219.5,385.8h-18c-3.1,0-5.7-2.6-5.7-5.7l0,0c0-3.1,2.6-5.7,5.7-5.7h18c3.1,0,5.7,2.6,5.7,5.7l0,0
		C225.2,383.2,222.6,385.8,219.5,385.8z"/>

		<use xlink:href="#wheel"  width="19.1" height="21.9" id="XMLID_23_" x="-10.2" y="-10.9" transform="matrix(1 0 0 -1 144.1417 381.6017)" overflow="visible"/>

		<circle id="XMLID_22_" fill="#E8D06B" stroke="#72561E" stroke-linecap="round" stroke-linejoin="round" stroke-miterlimit="10" cx="194.1" cy="377.6" r="4.9"/>

		<circle id="XMLID_30_" fill="#E8D06B" stroke="#72561E" stroke-linecap="round" stroke-linejoin="round" stroke-miterlimit="10" cx="225.7" cy="376.7" r="4.9"/>

		<path id="XMLID_26_" opacity="0.66" fill="#B7F9F9" stroke="#6BACAF" stroke-linecap="round" stroke-linejoin="round" stroke-miterlimit="10" d="
		M208.3,356.7c0,0-2.6-12.5-6.4-15.2c-3.9-2.7-28.8-2.1-32,0.3c-3.2,2.4-4.4,11.9-4.4,19C174.7,357.2,204.2,356,208.3,356.7z"/>

		<ellipse id="XMLID_29_" fill="#71A33D" stroke="#44661D" stroke-linecap="round" stroke-linejoin="round" stroke-miterlimit="10" cx="168" cy="361.5" rx="6.3" ry="4.5"/>
	<path id="XMLID_44_" fill="#4C4648" stroke="#231F20" stroke-linecap="round" stroke-linejoin="round" stroke-miterlimit="10" d="
		M326.6,386.8c1.7,0.7,6,2.4,6,2.4c1.8-1.7,7.6-5.4,7.1-3.9c-0.5,1.5-6.2,8.1-6.2,8.1c-2-0.5-9.4-2.5-9.4-2.5L326.6,386.8z"/>
	<path id="XMLID_45_" fill="#4C4648" stroke="#231F20" stroke-linecap="round" stroke-linejoin="round" stroke-miterlimit="10" d="
		M318.6,404.3c3.2,2.9,8.6,7.1,8.6,7.1c3.2-1.3,7.2-5.2,7.4-6.2c0.2-1-4.4,0-5.4,1c-5.7-4.9-6.6-4.9-6.6-4.9
		C320.9,401.9,318.6,404.3,318.6,404.3z"/>
	<path id="XMLID_33_" fill="#71A33D" stroke="#44661D" stroke-linecap="round" stroke-linejoin="round" stroke-miterlimit="10" d="
		M175.8,365c5.7,2,7.9,4.9,8.4,5.5c0.5,0.7,1.2,13.9,0.8,15"/>
	<path id="XMLID_39_" fill="#E5BB88" stroke="#A07648" stroke-linecap="round" stroke-linejoin="round" stroke-miterlimit="10" d="
		M281.8,381.1c-5.1-2.5,17.1-1.5,20-1.2c3.5-2.5,6-1.8,7.2-0.3c1.2,1.5-2.7,3.5-5.4,3.5c4.2,1.2,2.2,4.2-4.2,0
		c-9.7-1.7-15,1-15.5,1.2C283.5,384.5,282.1,381.3,281.8,381.1z"/>
	<path id="XMLID_42_" fill="#E5BB88" stroke="#A07648" stroke-linecap="round" stroke-linejoin="round" stroke-miterlimit="10" d="
		M282,400.8c4.4,4.4,12.1,4.9,12.1,4.9c5.7-2.5,9.4,1.2,9.4,3.2s-8.6-0.5-9.2-0.8c-7.1,0.3-12.8-1.7-14.3-3.7
		C278.8,402.4,282,400.8,282,400.8z"/>
	<path id="XMLID_43_" fill="#56768C" stroke="#2A3C4C" stroke-linecap="round" stroke-linejoin="round" stroke-miterlimit="10" d="
		M296.4,389.2c4-0.3,17.1-4.5,17.6-4.7c3.9-0.8,14.4,1.8,14.4,1.8c0.2,3.9-2,6.9-2,6.9c-6.7-2.7-8.7-3.2-8.7-3.2
		c-1.5,0.5-9.7,3.7-9.7,3.7c6.9,1.5,12.6,3.2,12.6,3.2c2.9,1.5,4.4,4.4,4.4,4.4c-0.8,2.2-4.9,5.5-4.9,5.5c-9.1-6-11.4-6.9-11.4-6.9
		c-3-0.2-13.1-2.4-13.1-2.4L296.4,389.2z"/>
	<path id="XMLID_40_" fill="#CE6638" stroke="#893116" stroke-linecap="round" stroke-linejoin="round" stroke-miterlimit="10" d="
		M275.7,382.1c-5.4,4.5-5.2,11.6-4.5,13.6c0.7,2,2.4,7.2,10.1,10.8c4.2-2.2,4.2-4.9,4.2-4.9c-1.7-2.4-3-4-3-4
		c2.7-0.7,18.5,1.7,18.5,1.7c2.5-3.9,0.3-11.4,0.3-11.4c-11.1-2.2-16.6-2.5-16.6-2.5c0.7-0.5,2.2-1,2.2-1c-2.5-5.7-3.7-4.5-3.7-4.5
		C279.6,379.6,275.7,382.1,275.7,382.1z"/>
	<g id="XMLID_101_">

			<path id="XMLID_124_" fill="#EDDBB7" stroke="#897750" stroke-linecap="round" stroke-linejoin="round" stroke-miterlimit="10" d="
			M231.9,218l-189.4,0.6l33.4,25.1l189.4-0.4L231.9,218z M57.6,222.9l168.7-0.5l23.1,16.6l-171.8,0.4L57.6,222.9z"/>
	</g>
	<path id="XMLID_48_" fill="#9B583B" stroke="#63341B" stroke-linecap="round" stroke-linejoin="round" stroke-miterlimit="10" d="
		M256.2,379.1c0.2-2.2-2.4-4.4-2.4-4.4c-0.3,2.7-0.8,4.5-0.8,4.5c-1.3-1.3-2.9-2.7-2.9-2.7c0.3,2.9,2.4,6.2,0.3,5.4
		c-2-0.8-2-0.8-2-0.8c0.3,3,4,5.2,2.5,5.5s-3.7,0-3.7,0c0.7,1.3,5.9,2.4,4.4,3.4c-1.5,1-3,1.3-3,1.3c3.2,1.3,5.2,1.7,5.2,1.7
		c-0.2,0.5-1.3,2.5-1.3,2.5c3.7-0.3,7.1-2.2,7.1-2.2L256.2,379.1z"/>
	<path id="XMLID_41_" fill="#E5BB88" stroke="#A07648" stroke-linecap="round" stroke-linejoin="round" stroke-miterlimit="10" d="
		M268.2,385.3c2.4,0.2,6.4,1.2,6.4,1.2c0.8,1,0,3.7-0.8,4.4c-2,0.3-6.9-1-6.9-1L268.2,385.3z"/>

		<ellipse id="XMLID_38_" fill="#E5BB88" stroke="#A07648" stroke-linecap="round" stroke-linejoin="round" stroke-miterlimit="10" cx="261.5" cy="385.5" rx="9.1" ry="7.8"/>
	<path id="XMLID_47_" fill="#E5BB88" stroke="#A07648" stroke-linecap="round" stroke-linejoin="round" stroke-miterlimit="10" d="
		M259.3,391.2c-2.9,1.3,2.9,6,4.4,1.3"/>
	<ellipse id="XMLID_46_" fill="#231F20" cx="260.4" cy="381.6" rx="1.5" ry="0.5"/>
	<ellipse id="XMLID_50_" fill="#231F20" cx="260.4" cy="387.3" rx="1.5" ry="0.5"/>
	<path id="XMLID_51_" fill="none" stroke="#231F20" stroke-linecap="round" stroke-linejoin="round" stroke-miterlimit="10" d="
		M265.7,383.4c0.5,1.5,0.5,2.5,0.2,3.4"/>
</g>
<g id="Layer_3">

		<polygon id="XMLID_99_" fill="#7F5728" stroke="#5E461E" stroke-linecap="round" stroke-linejoin="round" stroke-miterlimit="10" points="
		506.8,150.2 506.8,222.9 523.9,228.8 528.2,160.8 	"/>

		<polygon id="XMLID_90_" fill="#BF9251" stroke="#5E461E" stroke-linecap="round" stroke-linejoin="round" stroke-miterlimit="10" points="
		634.1,166 523.5,166.1 506.8,150.2 602.7,150.2 	"/>

		<rect id="XMLID_96_" x="523" y="166.1" fill="#A3773D" stroke="#5E461E" stroke-linecap="round" stroke-linejoin="round" stroke-miterlimit="10" width="111.1" height="95.1"/>

		<use xlink:href="#drawer"  width="92.2" height="35.2" id="XMLID_97_" x="-46.1" y="-17.6" transform="matrix(1 0 0 -1 578.6635 194.4211)" overflow="visible"/>

		<use xlink:href="#drawer"  width="92.2" height="35.2" id="XMLID_102_" x="-46.1" y="-17.6" transform="matrix(1 0 0 -1 578.6635 234.5457)" overflow="visible"/>
	<path id="XMLID_61_" fill="#C99B75" stroke="#6B411B" stroke-miterlimit="10" d="M287.9,70c13.6-27.3,51.8-54.5,118.1-54.5
		c47.8,0,76.9,29.7,86.6,51.2c0,124.2,4.8,211.1,4.5,210.2c-0.3-0.9-211.7-40.6-211.7-40.6L287.9,70z"/>
	<circle id="XMLID_49_" fill="#C99B75" stroke="#6B411B" stroke-miterlimit="10" cx="284.6" cy="49.4" r="10.6"/>
	<path id="XMLID_52_" fill="#C99B75" stroke="#6B411B" stroke-miterlimit="10" d="M287,244.1h-5.6c-2.2,0-4-1.8-4-4V58.6
		c0-2.2,1.8-4,4-4h5.6c2.2,0,4,1.8,4,4v181.6C291,242.3,289.2,244.1,287,244.1z"/>
	<circle id="XMLID_55_" fill="#C99B75" stroke="#6B411B" stroke-miterlimit="10" cx="495.7" cy="49.4" r="10.6"/>
	<path id="XMLID_53_" fill="#E1EEEF" stroke="#536668" stroke-linecap="round" stroke-linejoin="round" stroke-miterlimit="10" d="
		M289.7,154.5c6.7-9.1,137.8-39.1,189.9-3.3c16,23.9-150.8,122.3-150.8,122.3c-30.9-31.8-39.1-41.2-39.1-41.2
		C288.8,191.4,289.7,154.5,289.7,154.5z"/>
	<path id="XMLID_67_" fill="#FFFFFF" stroke="#CEDBDD" stroke-linecap="round" stroke-linejoin="round" stroke-miterlimit="10" d="
		M322.6,72c-3.4,6.8-9.9,51.3,6,77.2c-3.4,0.3-8.9,6.5-2.9,7.9c6,1.3,11.5-3.4,11.5-3.4c41.9,18.6,130.9-0.8,130.9-0.8
		c8.9-44,2.4-78.8-2.4-81.4c3.4-2.9,4.7-9.4,2.6-11c-2.1-1.6-6.5,2.1-7.9,5.8c-27.8-14.7-107.1-8.4-132.2,1.6
		C320.8,55.5,312.2,59.7,322.6,72z"/>
	<path id="XMLID_63_" fill="#E1EEEF" stroke="#536668" stroke-linecap="round" stroke-linejoin="round" stroke-miterlimit="10" d="
		M294.3,156.6c14.8,16.7,27.3,23.6,27.3,23.6"/>
	<path id="XMLID_54_" fill="#C99B75" stroke="#6B411B" stroke-miterlimit="10" d="M498,244.1h-5.6c-2.2,0-4-1.8-4-4V58.6
		c0-2.2,1.8-4,4-4h5.6c2.2,0,4,1.8,4,4v181.6C502,242.3,500.2,244.1,498,244.1z"/>
	<path id="XMLID_62_" fill="#90CBD3" stroke="#37636B" stroke-linecap="round" stroke-linejoin="round" stroke-miterlimit="10" d="
		M373.3,335c-6.7,1.8-17.3,0.6-20-10c-2.7-10.6-11.8-23.3-23-31.5c-6.1-5.5-7-8.2-7-8.2c0-47.8-3.6-87.5,5.5-103.3
		c10.3-5.8,19.1-6.4,19.1-6.4c23-30.9,61.2-36,104.8-31.2c20.6,2.1,39.4,15.1,73,51.5c29.4,29.1,35.1,40.9,35.1,40.9l-22.1,24.5
		L373.3,335z"/>
	<path id="XMLID_68_" fill="#FFFFFF" stroke="#CEDBDD" stroke-linecap="round" stroke-linejoin="round" stroke-miterlimit="10" d="
		M341,83.7c6.8-3.7,25.9-7.6,37.2,4.7"/>
	<path id="XMLID_93_" fill="#FFFFFF" stroke="#CEDBDD" stroke-linecap="round" stroke-linejoin="round" stroke-miterlimit="10" d="
		M423.5,89.6c2.2-3.6,12.8-10.4,18.9-9.3"/>
	<path id="XMLID_94_" fill="#FFFFFF" stroke="#CEDBDD" stroke-linecap="round" stroke-linejoin="round" stroke-miterlimit="10" d="
		M421,98.4c5.1-1.8,19.9,1.5,22.9,3.9"/>
	<path id="XMLID_69_" fill="#FFFFFF" stroke="#CEDBDD" stroke-linecap="round" stroke-linejoin="round" stroke-miterlimit="10" d="
		M351.2,111.2c11.8-9.7,34.3-13.6,38.2-11.8"/>
	<path id="XMLID_65_" fill="#90CBD3" stroke="#37636B" stroke-linecap="round" stroke-linejoin="round" stroke-miterlimit="10" d="
		M351.8,220.8c-6.1,10.9-21.2,20.9-21.2,20.9"/>
	<path id="XMLID_78_" fill="#43BA8C" stroke="#1A724E" stroke-linecap="round" stroke-linejoin="round" stroke-miterlimit="10" d="
		M389.9,103c-14.7,4.6-22.6,10.7-27.6,21.5c-5,10.8-8.7,24.4,3.9,30c9.6,2.1,38-6.7,38.2-7.1c0.1-0.4,26.7-31.7,26.7-31.7
		C417.4,104.5,403.4,101.2,389.9,103z"/>
	<path id="XMLID_66_" fill="#90CBD3" stroke="#37636B" stroke-linecap="round" stroke-linejoin="round" stroke-miterlimit="10" d="
		M356.7,232.6c-4.8,25.4-13.6,53-16.4,56.6"/>
	<path id="XMLID_60_" fill="#C99B75" stroke="#6B411B" stroke-miterlimit="10" d="M377.3,345.3h180.5v-106
		c-19.4-28.8-124.8-50-180.8,4.5C377,302,377.3,345.3,377.3,345.3z"/>
	<path id="XMLID_64_" fill="#AD6E3A" stroke="#6D4722" stroke-linecap="round" stroke-linejoin="round" stroke-miterlimit="10" d="
		M428.2,83.2c-2.9,15.5-10.3,26.7-24.3,26.7s-27.2-12.8-27.2-28.5s11.4-28.5,25.5-28.5C424.8,52.9,431.3,66.7,428.2,83.2z"/>
	<path id="XMLID_70_" fill="#AD6E3A" stroke="#6D4722" stroke-linecap="round" stroke-linejoin="round" stroke-miterlimit="10" d="
		M379.2,78.8c-5.2-7.1-11.5-1.3-8.6,6.3c2.9,7.6,8.9,6,9.7,5.2"/>
	<path id="XMLID_72_" fill="none" stroke="#231F20" stroke-linecap="round" stroke-linejoin="round" stroke-miterlimit="10" d="
		M409.6,85.8c2,3.1,1.1,6.5-2.2,7.2"/>

		<ellipse id="XMLID_71_" transform="matrix(0.9904 0.1383 -0.1383 0.9904 15.5647 -56.778)" fill="#231F20" stroke="#231F20" stroke-linecap="round" stroke-linejoin="round" stroke-miterlimit="10" cx="416.3" cy="83.6" rx="0.7" ry="3.1"/>

		<ellipse id="XMLID_74_" transform="matrix(0.9904 0.1383 -0.1383 0.9904 15.2653 -54.1359)" fill="#231F20" stroke="#231F20" stroke-linecap="round" stroke-linejoin="round" stroke-miterlimit="10" cx="397.2" cy="82.8" rx="0.7" ry="3.1"/>
	<path id="XMLID_75_" fill="none" stroke="#231F20" stroke-linecap="round" stroke-linejoin="round" stroke-miterlimit="10" d="
		M395.6,94.6c1.1,2.4,9,5.8,14.2,3.7"/>
	<path id="XMLID_76_" fill="none" stroke="#231F20" stroke-linecap="round" stroke-linejoin="round" stroke-miterlimit="10" d="
		M393.4,73.1c2.5-3.2,6.8-3.7,8.2-1.4"/>
	<path id="XMLID_77_" fill="none" stroke="#231F20" stroke-linecap="round" stroke-linejoin="round" stroke-miterlimit="10" d="
		M415.9,72.6c1.9-2.9,5-1.5,5.8,1.5"/>
	<path id="XMLID_79_" fill="#43BA8C" stroke="#1A724E" stroke-linecap="round" stroke-linejoin="round" stroke-miterlimit="10" d="
		M365.4,139.1c4.2,0.7,15.6-7.5,15.6-7.5"/>
	<path id="XMLID_82_" fill="#F2EDDA" stroke="#847E66" stroke-linecap="round" stroke-linejoin="round" stroke-miterlimit="10" d="
		M385.6,114.6c0.1,1.1,1.1,5.8,1.1,5.8l36.4,6.8l25.3-13.2c0.4-1.2,0.6-4.7,0.6-4.7c-1.8,1.8-3.7,2.4-5.4,2.4
		c-1.7,0-16.2-6.1-21,8.1c-6.2-7.4-16.2-8.3-21.8-5.8C396.6,115.8,390.5,116.6,385.6,114.6z"/>
	<path id="XMLID_86_" fill="#F2EDDA" stroke="#847E66" stroke-linecap="round" stroke-linejoin="round" stroke-miterlimit="10" d="
		M403.6,116.3c3.2-1.2,14.7,0,18.3,8.3"/>
	<path id="XMLID_87_" fill="#F2EDDA" stroke="#847E66" stroke-linecap="round" stroke-linejoin="round" stroke-miterlimit="10" d="
		M407.6,118.8c1.9-0.6,7.6,1.7,7.8,3.6"/>
	<path id="XMLID_88_" fill="#F2EDDA" stroke="#847E66" stroke-linecap="round" stroke-linejoin="round" stroke-miterlimit="10" d="
		M423.8,124.9c1.4-6.8,5.1-11.4,11-11.7"/>
	<path id="XMLID_89_" fill="#F2EDDA" stroke="#847E66" stroke-linecap="round" stroke-linejoin="round" stroke-miterlimit="10" d="
		M429.2,121.4c0.3-3.2,4.4-4.9,4.4-4.9"/>
	<path id="XMLID_81_" fill="#F4C542" stroke="#AF8125" stroke-linecap="round" stroke-linejoin="round" stroke-miterlimit="10" d="
		M383.8,116.7l3.1,34.8l28.5,5.1c4.3,2.9,9.2,0,9.2,0c17.5-8.7,18.9-9.9,18.9-9.9c6-25.7,7.9-35.4,7.9-35.4
		c-23.7,9.9-25.3,11-25.3,11c-1.8,1.8-7.6,0.6-7.6,0.6C386.5,117.6,383.8,116.7,383.8,116.7z"/>
	<path id="XMLID_83_" fill="#F4C542" stroke="#AF8125" stroke-linecap="round" stroke-linejoin="round" stroke-miterlimit="10" d="
		M419.4,123.9c0,0-2.9,31.2-2.9,31.4"/>
	<path id="XMLID_84_" fill="#F4C542" stroke="#AF8125" stroke-linecap="round" stroke-linejoin="round" stroke-miterlimit="10" d="
		M425.9,123.7c0,0-2.4,32.1-2.4,32.2"/>
	<path id="XMLID_95_" fill="#90CBD3" stroke="#37636B" stroke-linecap="round" stroke-linejoin="round" stroke-miterlimit="10" d="
		M330.2,185.2c14.9,15.7,42.1,34.2,42.1,34.2"/>
	<path id="XMLID_73_" fill="#AD6E3A" stroke="#6D4722" stroke-linecap="round" stroke-linejoin="round" stroke-miterlimit="10" d="
		M449.2,122.6c0,0.6-1.2,5.4-1.2,5.4c-6.9,3.1-7.8,8.2-6.8,10.8c1,2.6,9.9,2.9,11.7-5.1C454.6,125.6,449.2,122.6,449.2,122.6z"/>
	<path id="XMLID_85_" fill="#191A1C" stroke="#434960" stroke-linecap="round" stroke-linejoin="round" stroke-miterlimit="10" d="
		M371.6,68.5c1.8,6.1,8.1,12.9,8.1,12.9c1.1-8.6,3.9-17.6,3.9-17.6c7.2,4.7,15.3,2.6,13.3-3.3c5.7,3.5,9.4,1.2,9.4,1.2
		c1.5,6.2,9.9,3.2,9.4-1c5.1,8.7,12.4,10.6,15,6.5c8.3-1.1,4-16.9-3.3-17.8c4.6-7.5-5-10.4-10-8.2c-2.6-7.5-14.9-6.9-17.4-2.4
		c-5.1-7.9-22.6,1.9-20,9.4c-4-7.2-9.2,6.9-7.1,9C366.5,54.1,369.8,64.7,371.6,68.5z"/>
	<path id="XMLID_80_" fill="#AD6E3A" stroke="#6D4722" stroke-linecap="round" stroke-linejoin="round" stroke-miterlimit="10" d="
		M384.5,128.7c-4.6,2.1-5.4,7.1-4.9,9.4c0.6,2.4,5.3,9.9,13.1,9.9s2.6-9.2,1.5-9.7c-1.1-0.6-9.2-5.3-9.2-5.3
		C384.1,131.2,384.5,128.7,384.5,128.7z"/>
	<path id="XMLID_91_" fill="#191A1C" stroke="#434960" stroke-linecap="round" stroke-linejoin="round" stroke-miterlimit="10" d="
		M393.7,54.7c-0.1,1.9,3.2,5.8,3.2,5.8"/>
	<path id="XMLID_92_" fill="#191A1C" stroke="#434960" stroke-linecap="round" stroke-linejoin="round" stroke-miterlimit="10" d="
		M412.7,55.2c1.5,0.8,3.1,5.6,3.1,5.6"/>
	<path id="XMLID_108_" fill="#F4C542" stroke="#AF8125" stroke-linecap="round" stroke-linejoin="round" stroke-miterlimit="10" d="
		M582.8,148.3c-2.2,2.6-2.4,6.5-0.7,6.1c1.7-0.4,3.5-5,3.5-5L582.8,148.3z"/>
	<path id="XMLID_109_" fill="#F4C542" stroke="#AF8125" stroke-linecap="round" stroke-linejoin="round" stroke-miterlimit="10" d="
		M596.3,147.9c2.2,2.6,2.4,6.5,0.7,6.1c-1.7-0.4-3.5-5-3.5-5L596.3,147.9z"/>

		<circle id="XMLID_104_" fill="#8C4442" stroke="#511714" stroke-linecap="round" stroke-linejoin="round" stroke-miterlimit="10" cx="587.6" cy="139.3" r="11.6"/>

		<circle id="XMLID_98_" fill="#EAE6CA" stroke="#511714" stroke-linecap="round" stroke-linejoin="round" stroke-miterlimit="10" cx="590.4" cy="140.7" r="11.6"/>
	<path id="XMLID_103_" fill="#F4C542" stroke="#AF8125" stroke-linecap="round" stroke-linejoin="round" stroke-miterlimit="10" d="
		M601.5,129.3c-1.1,1.4-2.9,0.2-5.2-1.5c-2.2-1.7-4-3.2-2.9-4.6c1.1-1.4,3.8-1.2,6,0.5C601.7,125.4,602.6,127.9,601.5,129.3z"/>
	<path id="XMLID_106_" fill="#F4C542" stroke="#AF8125" stroke-linecap="round" stroke-linejoin="round" stroke-miterlimit="10" d="
		M583.6,124.2c1,1.5-0.8,2.8-3.1,4.4c-2.3,1.6-4.3,2.7-5.3,1.3c-1-1.5,0.1-3.9,2.4-5.5S582.6,122.7,583.6,124.2z"/>

		<polyline id="XMLID_105_" fill="none" stroke="#231F20" stroke-linecap="round" stroke-linejoin="round" stroke-miterlimit="10" points="
		589.4,133.3 589.3,140.3 583.9,145.7 	"/>
	<path id="XMLID_118_" fill="none" stroke="#231F20" stroke-linecap="round" stroke-linejoin="round" stroke-miterlimit="10" d="
		M530.2,100c-0.2,0.6,0,13.2,0,13.2"/>

		<circle id="XMLID_112_" fill="#F2E29C" stroke="#9E8C3F" stroke-linecap="round" stroke-linejoin="round" stroke-miterlimit="10" cx="530.2" cy="114.7" r="2.2"/>
	<radialGradient id="XMLID_128_" cx="548.4346" cy="73.3686" r="68.5062" gradientUnits="userSpaceOnUse">
		<stop  offset="0" style="stop-color:#FFFFD1"/>
		<stop  offset="1" style="stop-color:#FFF0B0;stop-opacity:0"/>
	</radialGradient>
	<circle id="XMLID_5_" fill="url(#XMLID_128_)" cx="548.4" cy="73.4" r="68.5"/>
	<path id="XMLID_107_" fill="#93CEB6" stroke="#3F6B58" stroke-linecap="round" stroke-linejoin="round" stroke-miterlimit="10" d="
		M568.2,135.1c0,12.8-8.9,23.2-19.8,23.2c-11,0-19.8-10.4-19.8-23.2c0-7.6,4.6-14.3,9.8-18.5c0.8-10.2,7.3-19.6,10.1-19.6
		c3.8,0,9.9,12.7,11.2,19.5C564.6,120.7,568.2,127.5,568.2,135.1z"/>

		<polygon id="XMLID_110_" fill="#FFF5CA" stroke="#A89B5A" stroke-linecap="round" stroke-linejoin="round" stroke-miterlimit="10" points="
		506.1,97 513.1,96.5 516.3,104.3 525,103 532.8,109.5 543.8,106.5 551.6,111.9 562.2,105.6 571.9,110.6 577.1,102.6 585.3,105
		588.8,96.1 573.4,33.4 524.8,31.6 	"/>
	<path id="XMLID_56_" fill="#C99B75" stroke="#6B411B" stroke-miterlimit="10" d="M376.6,362.1H371c-2.2,0-4-1.8-4-4V232.4
		c0-2.2,1.8-4,4-4h5.6c2.2,0,4,1.8,4,4v125.7C380.6,360.3,378.8,362.1,376.6,362.1z"/>

		<ellipse id="XMLID_111_" fill="#FFF0B0" stroke="#FFFBEB" stroke-linecap="round" stroke-linejoin="round" stroke-miterlimit="10" cx="549.2" cy="32.8" rx="25.1" ry="5.5"/>
	<path id="XMLID_58_" fill="#C99B75" stroke="#6B411B" stroke-miterlimit="10" d="M564.6,362.1H559c-2.2,0-4-1.8-4-4V232.4
		c0-2.2,1.8-4,4-4h5.6c2.2,0,4,1.8,4,4v125.7C568.6,360.3,566.8,362.1,564.6,362.1z"/>
	<path id="XMLID_113_" fill="#FFF5CA" stroke="#A89B5A" stroke-linecap="round" stroke-linejoin="round" stroke-miterlimit="10" d="
		M513.5,94.4c0.4-0.6,15.4-56.5,15.4-56.5"/>
	<circle id="XMLID_57_" fill="#C99B75" stroke="#6B411B" stroke-miterlimit="10" cx="373.3" cy="222.3" r="10.6"/>
	<path id="XMLID_114_" fill="#FFF5CA" stroke="#A89B5A" stroke-linecap="round" stroke-linejoin="round" stroke-miterlimit="10" d="
		M525.6,101.1c-0.2-0.6,13.2-61,13.2-61"/>
	<circle id="XMLID_59_" fill="#C99B75" stroke="#6B411B" stroke-miterlimit="10" cx="562" cy="221.1" r="10.6"/>
	<path id="XMLID_115_" fill="#FFF5CA" stroke="#A89B5A" stroke-linecap="round" stroke-linejoin="round" stroke-miterlimit="10" d="
		M544.2,104.3c-0.2-0.6,4.5-63,4.5-63"/>
	<path id="XMLID_116_" fill="#FFF5CA" stroke="#A89B5A" stroke-linecap="round" stroke-linejoin="round" stroke-miterlimit="10" d="
		M559.6,42.2c0,0.4,2.6,60.6,2.6,60.6"/>

		<line id="XMLID_117_" fill="#FFF5CA" stroke="#A89B5A" stroke-linecap="round" stroke-linejoin="round" stroke-miterlimit="10" x1="567.8" y1="40.3" x2="577.1" y2="99.6"/>
</g>
</svg>
