<?xml version="1.0" encoding="utf-8"?>
<!-- Generator: Adobe Illustrator 19.0.0, SVG Export Plug-In . SVG Version: 6.00 Build 0)  -->
<!DOCTYPE svg PUBLIC "-//W3C//DTD SVG 1.0//EN" "http://www.w3.org/TR/2001/REC-SVG-20010904/DTD/svg10.dtd">
<svg version="1.0" xmlns="http://www.w3.org/2000/svg" xmlns:xlink="http://www.w3.org/1999/xlink" x="0px" y="0px" viewBox="0 0 648 432" enable-background="new 0 0 648 432" xml:space="preserve"><clipPath id="XMLID_106_">
				<use xlink:href="#XMLID_446_" overflow="visible"/>
			</clipPath>
<symbol id="fence" viewBox="-110.1 -64.8 251.2 151.3">
	<g id="XMLID_303_">
		<g id="XMLID_445_">
			<defs>
				<polygon id="XMLID_446_" points="100.7,-49.4 -100.7,-49.4 -100.7,50.2 100.7,50.2 				"/>
			</defs>

			<g id="XMLID_447_" clip-path="url(#XMLID_106_)">
				<path id="XMLID_615_" fill="none" stroke="#7D7D7D" stroke-miterlimit="10" d="M30.5,58.9c4.6,2.3,9,4.4,13,6.3
					c-4.6,2.3-9.2,4.5-13.8,6.7c-4-2-8.4-4.1-13-6.3C21.2,63.4,25.8,61.2,30.5,58.9z"/>
				<path id="XMLID_609_" fill="none" stroke="#7D7D7D" stroke-miterlimit="10" d="M16.7,65.7c4.6,2.3,9,4.4,13,6.3
					c-4.9,2.4-9.8,4.8-14.6,7.1c-4.1-2-8.4-4.1-13-6.3C6.8,70.5,11.7,68.1,16.7,65.7z"/>
				<path id="XMLID_608_" fill="none" stroke="#7D7D7D" stroke-miterlimit="10" d="M44.5,52.1c4.6,2.3,9,4.4,13,6.3
					c-4.7,2.3-9.3,4.6-14,6.8c-4-1.9-8.4-4.1-13-6.3C35.1,56.7,39.8,54.4,44.5,52.1z"/>
				<path id="XMLID_607_" fill="none" stroke="#7D7D7D" stroke-miterlimit="10" d="M48.3,50.2h23.4c0.4,0.2,0.9,0.4,1.3,0.6
					c-5.1,2.5-10.3,5-15.5,7.6c-4-2-8.4-4.1-13-6.3C45.7,51.5,47,50.8,48.3,50.2z"/>
				<path id="XMLID_606_" fill="none" stroke="#7D7D7D" stroke-miterlimit="10" d="M74.3,50.2c-0.4,0.2-0.8,0.4-1.3,0.6
					c-0.4-0.2-0.8-0.4-1.3-0.6H74.3z"/>
				<path id="XMLID_605_" fill="none" stroke="#7D7D7D" stroke-miterlimit="10" d="M-26.5,58.8c-4.9,2.4-9.6,4.7-14,6.8
					c-4.5-2.2-9-4.4-13.6-6.7c4.3-2.1,9-4.4,14-6.8C-35.5,54.4-31,56.6-26.5,58.8z"/>
				<path id="XMLID_604_" fill="none" stroke="#7D7D7D" stroke-miterlimit="10" d="M16.7,65.7c-5,2.4-9.8,4.8-14.6,7.1
					c-4.3-2.1-8.7-4.2-13.3-6.5c4.7-2.3,9.6-4.7,14.6-7.1C8,61.4,12.5,63.6,16.7,65.7z"/>
				<path id="XMLID_603_" fill="none" stroke="#7D7D7D" stroke-miterlimit="10" d="M15.1,79.1c-4.8,2.3-9.5,4.6-14,6.8
					c-4.1-2-8.5-4.1-13-6.3c4.5-2.2,9.2-4.5,14-6.8C6.7,75,11,77.1,15.1,79.1z"/>
				<path id="XMLID_602_" fill="none" stroke="#7D7D7D" stroke-miterlimit="10" d="M-69.7,51.4c-0.8-0.4-1.6-0.8-2.4-1.2h4.9
					C-68.1,50.6-68.9,51-69.7,51.4z"/>
				<path id="XMLID_601_" fill="none" stroke="#7D7D7D" stroke-miterlimit="10" d="M-44.2,50.2c1.4,0.7,2.7,1.3,4,2
					c-5,2.4-9.7,4.7-14,6.8c-5.2-2.5-10.4-5.1-15.6-7.6c0.8-0.4,1.6-0.8,2.5-1.2H-44.2z"/>
				<path id="XMLID_600_" fill="none" stroke="#7D7D7D" stroke-miterlimit="10" d="M-11.2,66.3c-4.9,2.4-9.6,4.7-14,6.8
					c-5-2.4-10.1-4.9-15.3-7.5c4.4-2.1,9.1-4.4,14-6.8C-21.3,61.4-16.1,63.9-11.2,66.3z"/>
				<path id="XMLID_599_" fill="none" stroke="#7D7D7D" stroke-miterlimit="10" d="M2.1,72.8c-4.8,2.4-9.5,4.7-14,6.8
					c-4.3-2.1-8.7-4.2-13.3-6.5c4.5-2.2,9.2-4.5,14-6.8C-6.6,68.5-2.2,70.7,2.1,72.8z"/>
				<path id="XMLID_598_" fill="none" stroke="#7D7D7D" stroke-miterlimit="10" d="M101,37.1c-0.1,0.1-0.3,0.1-0.4,0.2v-0.4
					C100.8,37,100.9,37,101,37.1z"/>
				<path id="XMLID_597_" fill="none" stroke="#7D7D7D" stroke-miterlimit="10" d="M3.4,59.2c-5,2.4-9.9,4.8-14.6,7.1
					c-5-2.4-10.1-4.9-15.3-7.5c4.7-2.3,9.6-4.7,14.6-7.1C-6.7,54.3-1.5,56.8,3.4,59.2z"/>
				<path id="XMLID_596_" fill="none" stroke="#7D7D7D" stroke-miterlimit="10" d="M100.7-0.8v-2.5c3.9-1.9,7.4-3.6,10.5-5.2
					c5.5,2.7,10.7,5.2,15.3,7.4c-3.4,1.7-7.8,3.8-13.1,6.4C109.5,3.4,105.2,1.4,100.7-0.8z"/>
				<path id="XMLID_595_" fill="none" stroke="#7D7D7D" stroke-miterlimit="10" d="M126.5-1c5.1,2.5,9.6,4.6,13.3,6.4
					c-2.2,1.1-6.8,3.3-13.1,6.4c-3.8-1.8-8.3-4-13.3-6.4C118.7,2.8,123.1,0.6,126.5-1z"/>
				<path id="XMLID_594_" fill="none" stroke="#7D7D7D" stroke-miterlimit="10" d="M100.7-16.6c3.9-1.9,7.2-3.5,9.8-4.8
					c4.8,2.3,9.3,4.5,13.6,6.6c-1.6,0.8-6.2,3-12.9,6.3c-3.4-1.6-6.9-3.4-10.5-5.1V-16.6z"/>
				<path id="XMLID_593_" fill="none" stroke="#7D7D7D" stroke-miterlimit="10" d="M-40.1,52.2c-1.3-0.7-2.7-1.3-4-2h8.1
					C-37.4,50.9-38.8,51.5-40.1,52.2z"/>
				<path id="XMLID_592_" fill="none" stroke="#7D7D7D" stroke-miterlimit="10" d="M100.7-26.3c3.4,1.6,6.6,3.2,9.8,4.8
					c-2.6,1.3-5.9,2.9-9.8,4.8V-26.3z"/>
				<path id="XMLID_591_" fill="none" stroke="#7D7D7D" stroke-miterlimit="10" d="M100.7-13.6c3.6,1.8,7.1,3.5,10.5,5.1
					c-3.1,1.5-6.6,3.2-10.5,5.2V-13.6z"/>
				<path id="XMLID_590_" fill="none" stroke="#7D7D7D" stroke-miterlimit="10" d="M17.2,52.5c4.6,2.3,9.1,4.4,13.3,6.5
					c-4.6,2.3-9.3,4.5-13.8,6.7c-4.2-2.1-8.7-4.2-13.3-6.5C7.9,57,12.5,54.7,17.2,52.5z"/>
				<path id="XMLID_589_" fill="none" stroke="#7D7D7D" stroke-miterlimit="10" d="M-15,50.2c1,0.5,2.1,1,3.1,1.5
					c-5,2.5-9.9,4.8-14.6,7.1c-4.5-2.2-9-4.4-13.6-6.7c1.3-0.6,2.7-1.3,4.1-2H-15z"/>
				<path id="XMLID_588_" fill="none" stroke="#7D7D7D" stroke-miterlimit="10" d="M101.1,11.4c4.5-2.2,8.6-4.2,12.4-6.1
					c5,2.4,9.5,4.6,13.3,6.4c-3.6,1.8-7.7,3.8-12.4,6.1C110.5,16,106,13.8,101.1,11.4z"/>
				<path id="XMLID_587_" fill="none" stroke="#7D7D7D" stroke-miterlimit="10" d="M126.7,11.8c6.7,3.3,11.4,5.5,13.1,6.3
					c-3.3,1.6-7.5,3.7-12.4,6.1c-2.9-1.4-7.4-3.5-13.1-6.3C119,15.6,123.1,13.6,126.7,11.8z"/>
				<path id="XMLID_586_" fill="none" stroke="#7D7D7D" stroke-miterlimit="10" d="M100.7,24.6c0.5-0.3,1.1-0.5,1.6-0.8
					c5.4,2.6,9.8,4.7,13.1,6.3c-4.5,2.2-9.3,4.5-14.3,7c-0.1-0.1-0.3-0.1-0.4-0.2V24.6z"/>
				<path id="XMLID_585_" fill="none" stroke="#7D7D7D" stroke-miterlimit="10" d="M114.4,17.9c5.7,2.8,10.2,4.9,13.1,6.3
					c-3.7,1.8-7.8,3.8-12.1,5.9c-3.3-1.6-7.7-3.7-13.1-6.3C106.6,21.7,110.6,19.7,114.4,17.9z"/>
				<path id="XMLID_584_" fill="none" stroke="#7D7D7D" stroke-miterlimit="10" d="M47.1-49.4H27.5c-1.2-0.6-2.4-1.2-3.5-1.7
					c4.5-2.2,8.8-4.3,13-6.3c4.4,2.2,8.9,4.3,13.4,6.5C49.2-50.4,48.2-49.9,47.1-49.4z"/>
				<path id="XMLID_583_" fill="none" stroke="#7D7D7D" stroke-miterlimit="10" d="M50.2-50.9c1,0.5,2.1,1,3.1,1.5h-6.2
					C48.2-49.9,49.2-50.4,50.2-50.9z"/>
				<path id="XMLID_582_" fill="none" stroke="#7D7D7D" stroke-miterlimit="10" d="M20.4-49.4c1.2-0.6,2.4-1.2,3.5-1.7
					c1.2,0.6,2.4,1.2,3.5,1.7H20.4z"/>
				<path id="XMLID_581_" fill="none" stroke="#7D7D7D" stroke-miterlimit="10" d="M53.4-49.4c-1-0.5-2.1-1-3.1-1.5
					c5-2.4,9.6-4.7,13.8-6.8c4.5,2.2,9.1,4.4,13.6,6.7c-1.1,0.5-2.2,1.1-3.3,1.6H53.4z"/>
				<path id="XMLID_580_" fill="none" stroke="#7D7D7D" stroke-miterlimit="10" d="M36.9-57.4c4.9-2.4,9.5-4.7,13.8-6.8
					c4.4,2.2,8.9,4.3,13.4,6.5c-4.2,2-8.8,4.3-13.8,6.8C45.7-53.1,41.3-55.3,36.9-57.4z"/>
				<path id="XMLID_579_" fill="none" stroke="#7D7D7D" stroke-miterlimit="10" d="M-2.5-51.2c1.3,0.6,2.5,1.2,3.8,1.9h-7.6
					C-4.9-50.1-3.6-50.7-2.5-51.2z"/>
				<path id="XMLID_578_" fill="none" stroke="#7D7D7D" stroke-miterlimit="10" d="M77.6-51c1.1,0.5,2.2,1.1,3.3,1.6h-6.7
					C75.5-49.9,76.6-50.5,77.6-51z"/>
				<path id="XMLID_577_" fill="none" stroke="#7D7D7D" stroke-miterlimit="10" d="M108.7-35.8c-0.9,0.4-3.7,1.8-8.1,4v-7.9
					C103.4-38.4,106.1-37.1,108.7-35.8z"/>
				<path id="XMLID_576_" fill="none" stroke="#7D7D7D" stroke-miterlimit="10" d="M21.8,50.2c-1.5,0.8-3.1,1.5-4.6,2.3
					c-1.5-0.7-3.1-1.5-4.6-2.3H21.8z"/>
				<path id="XMLID_575_" fill="none" stroke="#7D7D7D" stroke-miterlimit="10" d="M12.6,50.2c1.6,0.8,3.1,1.5,4.6,2.3
					c-4.7,2.3-9.3,4.5-13.8,6.7c-4.9-2.4-10.1-4.9-15.3-7.5c1-0.5,2.1-1,3.1-1.5H12.6z"/>
				<path id="XMLID_574_" fill="none" stroke="#7D7D7D" stroke-miterlimit="10" d="M100.7-0.8c4.5,2.2,8.8,4.3,12.8,6.2
					c-3.7,1.8-7.9,3.9-12.4,6.1c-0.1-0.1-0.3-0.1-0.4-0.2V-0.8z"/>
				<path id="XMLID_573_" fill="none" stroke="#7D7D7D" stroke-miterlimit="10" d="M100.7,11.2c0.1,0.1,0.3,0.1,0.4,0.2
					c-0.1,0.1-0.3,0.1-0.4,0.2V11.2z"/>
				<path id="XMLID_572_" fill="none" stroke="#7D7D7D" stroke-miterlimit="10" d="M100.7,11.6c0.1-0.1,0.3-0.1,0.4-0.2
					c4.9,2.4,9.4,4.6,13.3,6.4c-3.8,1.8-7.8,3.8-12.1,5.9c-0.5-0.3-1.1-0.5-1.6-0.8V11.6z"/>
				<path id="XMLID_571_" fill="none" stroke="#7D7D7D" stroke-miterlimit="10" d="M102.3,23.8c-0.5,0.3-1.1,0.5-1.6,0.8V23
					C101.2,23.3,101.7,23.5,102.3,23.8z"/>
				<path id="XMLID_570_" fill="none" stroke="#7D7D7D" stroke-miterlimit="10" d="M48.3,50.2c-1.3,0.6-2.5,1.2-3.8,1.9
					c-1.3-0.6-2.5-1.2-3.8-1.9H48.3z"/>
				<path id="XMLID_569_" fill="none" stroke="#7D7D7D" stroke-miterlimit="10" d="M21.8,50.2h18.8c1.3,0.6,2.6,1.3,3.8,1.9
					c-4.7,2.3-9.4,4.6-14,6.8c-4.2-2.1-8.7-4.2-13.3-6.5C18.7,51.7,20.3,51,21.8,50.2z"/>
				<path id="XMLID_568_" fill="none" stroke="#7D7D7D" stroke-miterlimit="10" d="M-11.9,51.7c-1-0.5-2.1-1-3.1-1.5h6.2
					C-9.8,50.7-10.9,51.2-11.9,51.7z"/>
				<path id="XMLID_567_" fill="none" stroke="#7D7D7D" stroke-miterlimit="10" d="M85.8,4c5.3,2.6,10.3,5,14.9,7.2v0.4
					c-3.7,1.8-7.6,3.7-11.7,5.7c-4.8-2.3-9.9-4.8-15.3-7.5C77.9,7.8,81.9,5.8,85.8,4z"/>
				<path id="XMLID_566_" fill="none" stroke="#7D7D7D" stroke-miterlimit="10" d="M1.9,45c4.6-2.3,9.3-4.5,14-6.8
					c5.2,2.6,10.4,5.1,15.3,7.5c-3.1,1.5-6.3,3.1-9.4,4.6h-9.2C9.1,48.5,5.5,46.8,1.9,45z"/>
				<path id="XMLID_565_" fill="none" stroke="#7D7D7D" stroke-miterlimit="10" d="M1.9,45c-3.6,1.8-7.2,3.5-10.7,5.2H-15
					c-3.5-1.7-7-3.4-10.5-5.1c4.5-2.2,9.1-4.4,13.8-6.7C-7.1,40.6-2.6,42.8,1.9,45z"/>
				<path id="XMLID_564_" fill="none" stroke="#7D7D7D" stroke-miterlimit="10" d="M46.2,23.3c5.4,2.6,10.5,5.1,15.3,7.5
					c-4.9,2.4-9.8,4.8-14.8,7.2c-4.9-2.4-10-4.9-15.3-7.5C36.4,28.1,41.3,25.7,46.2,23.3z"/>
				<path id="XMLID_563_" fill="none" stroke="#7D7D7D" stroke-miterlimit="10" d="M31.4,30.6c5.3,2.6,10.4,5.1,15.3,7.5
					c-5.1,2.5-10.3,5.1-15.5,7.6c-4.9-2.4-10.1-4.9-15.3-7.5C21,35.6,26.2,33.1,31.4,30.6z"/>
				<path id="XMLID_562_" fill="none" stroke="#7D7D7D" stroke-miterlimit="10" d="M73.7,9.9c5.4,2.6,10.6,5.1,15.3,7.5
					c-4.6,2.2-9.3,4.6-14.3,7c-4.8-2.3-9.9-4.8-15.3-7.5C64.3,14.5,69.1,12.1,73.7,9.9z"/>
				<path id="XMLID_561_" fill="none" stroke="#7D7D7D" stroke-miterlimit="10" d="M59.4,16.9c5.4,2.6,10.5,5.1,15.3,7.5
					c-4.3,2.1-8.7,4.3-13.2,6.5c-4.8-2.3-9.9-4.8-15.3-7.5C50.6,21.2,55.1,19,59.4,16.9z"/>
				<path id="XMLID_560_" fill="none" stroke="#7D7D7D" stroke-miterlimit="10" d="M-11.7,38.3c-4.7,2.3-9.3,4.6-13.8,6.7
					c-5.1-2.5-10.3-5.1-15.6-7.6c4.4-2.2,9.1-4.4,13.8-6.7C-22.1,33.3-16.9,35.8-11.7,38.3z"/>
				<path id="XMLID_559_" fill="none" stroke="#7D7D7D" stroke-miterlimit="10" d="M-27.9-25.8c4.7-2.3,9.5-4.6,14.3-7
					c4.4,2.1,8.9,4.3,13.4,6.6c-4.8,2.3-9.5,4.7-14.3,7C-19.1-21.5-23.6-23.6-27.9-25.8z"/>
				<path id="XMLID_558_" fill="none" stroke="#7D7D7D" stroke-miterlimit="10" d="M-54.4-25.8c4.4-2.1,8.8-4.3,13.2-6.4
					c4.3,2.1,8.7,4.3,13.3,6.5c-4.5,2.2-8.9,4.3-13.2,6.4C-45.7-21.6-50.2-23.8-54.4-25.8z"/>
				<path id="XMLID_557_" fill="none" stroke="#7D7D7D" stroke-miterlimit="10" d="M-55.9-12.1c-4.7-2.3-9.1-4.5-13.3-6.5
					c4.7-2.3,9.7-4.7,14.8-7.2c4.3,2.1,8.7,4.3,13.3,6.5C-46.3-16.9-51.2-14.4-55.9-12.1z"/>
				<path id="XMLID_556_" fill="none" stroke="#7D7D7D" stroke-miterlimit="10" d="M-27.7-12.8c-4.6-2.2-9.1-4.4-13.4-6.6
					c4.3-2.1,8.7-4.3,13.2-6.4c4.4,2.1,8.9,4.3,13.4,6.6C-19-17.1-23.4-14.9-27.7-12.8z"/>
				<path id="XMLID_555_" fill="none" stroke="#7D7D7D" stroke-miterlimit="10" d="M-27.7-12.8c-5,2.5-10,4.9-14.8,7.2
					c-4.6-2.3-9.1-4.5-13.4-6.6c4.7-2.3,9.7-4.7,14.8-7.2C-36.8-17.2-32.3-15-27.7-12.8z"/>
				<path id="XMLID_554_" fill="none" stroke="#7D7D7D" stroke-miterlimit="10" d="M-41.1,37.5c-5.3-2.6-10.5-5.2-15.8-7.7
					c4.4-2.1,9.1-4.4,13.9-6.7c5.2,2.5,10.4,5.1,15.7,7.7C-32,33.1-36.6,35.3-41.1,37.5z"/>
				<path id="XMLID_553_" fill="none" stroke="#7D7D7D" stroke-miterlimit="10" d="M-0.9-12.5c-4.6-2.2-9.2-4.5-13.6-6.7
					c4.8-2.3,9.5-4.7,14.3-7c4.5,2.2,9.1,4.4,13.6,6.7C8.7-17.2,3.9-14.9-0.9-12.5z"/>
				<path id="XMLID_552_" fill="none" stroke="#7D7D7D" stroke-miterlimit="10" d="M60,3.3c4.2-2,8.2-4,12.1-5.9
					c4.7,2.3,9.3,4.5,13.6,6.6c-3.9,1.9-7.9,3.9-12.1,5.9C69.3,7.8,64.7,5.5,60,3.3z"/>
				<path id="XMLID_551_" fill="none" stroke="#7D7D7D" stroke-miterlimit="10" d="M-28.9,16.3c-4.8,2.3-9.5,4.6-14.1,6.8
					c-5.2-2.5-10.4-5.1-15.4-7.5c4.5-2.2,9.2-4.5,14-6.8C-39.3,11.2-34.1,13.7-28.9,16.3z"/>
				<path id="XMLID_550_" fill="none" stroke="#7D7D7D" stroke-miterlimit="10" d="M-13.3,23.9c-4.8,2.3-9.4,4.6-14,6.8
					c-5.2-2.6-10.5-5.1-15.7-7.7c4.6-2.2,9.3-4.5,14.1-6.8C-23.7,18.8-18.5,21.4-13.3,23.9z"/>
				<path id="XMLID_549_" fill="none" stroke="#7D7D7D" stroke-miterlimit="10" d="M-28.8,1.1c-5.3,2.6-10.5,5.1-15.5,7.6
					C-49,6.4-53.6,4.2-58,2c4.9-2.4,10.1-4.9,15.5-7.6C-38.1-3.4-33.5-1.2-28.8,1.1z"/>
				<path id="XMLID_548_" fill="none" stroke="#7D7D7D" stroke-miterlimit="10" d="M-58,2c-4.7-2.3-9.2-4.5-13.5-6.6
					c4.8-2.3,10-4.9,15.5-7.6c4.3,2.1,8.8,4.3,13.4,6.6C-47.9-2.9-53.1-0.4-58,2z"/>
				<path id="XMLID_547_" fill="none" stroke="#7D7D7D" stroke-miterlimit="10" d="M-58.4,15.5c-4.7-2.3-9.3-4.5-13.7-6.7
					c4.3-2.1,9-4.4,14-6.8c4.4,2.2,9,4.4,13.7,6.7C-49.2,11.1-53.9,13.4-58.4,15.5z"/>
				<path id="XMLID_546_" fill="none" stroke="#7D7D7D" stroke-miterlimit="10" d="M56.6-10.3c5.3,2.6,10.5,5.1,15.6,7.6
					C68.3-0.8,64.2,1.2,60,3.3c-5.1-2.5-10.3-5-15.6-7.6C48.6-6.4,52.7-8.4,56.6-10.3z"/>
				<path id="XMLID_545_" fill="none" stroke="#7D7D7D" stroke-miterlimit="10" d="M-0.2-26.2c4.1-2,8.1-4,12.1-5.9
					c4.5,2.2,9.1,4.4,13.6,6.7c-4,1.9-8,3.9-12.1,5.9C8.8-21.8,4.3-24-0.2-26.2z"/>
				<path id="XMLID_544_" fill="none" stroke="#7D7D7D" stroke-miterlimit="10" d="M2.2,16.3c-5.2-2.5-10.4-5.1-15.5-7.6
					C-8.3,6.4-3.4,4,1.6,1.6c5.2,2.5,10.3,5,15.4,7.5C12.1,11.5,7.1,13.9,2.2,16.3z"/>
				<path id="XMLID_543_" fill="none" stroke="#7D7D7D" stroke-miterlimit="10" d="M100.7,23c-3.6-1.7-7.5-3.6-11.7-5.7
					c4.1-2,8-3.9,11.7-5.7V23z"/>
				<path id="XMLID_542_" fill="none" stroke="#7D7D7D" stroke-miterlimit="10" d="M-8.8,50.2c3.5-1.7,7.1-3.5,10.7-5.2
					c3.6,1.8,7.2,3.5,10.7,5.2H-8.8z"/>
				<path id="XMLID_541_" fill="none" stroke="#7D7D7D" stroke-miterlimit="10" d="M32.6,16.7c-4.9,2.4-9.8,4.8-14.8,7.2
					c-5.1-2.5-10.3-5-15.6-7.6c4.9-2.4,9.9-4.8,14.8-7.2C22.3,11.7,27.5,14.2,32.6,16.7z"/>
				<path id="XMLID_540_" fill="none" stroke="#7D7D7D" stroke-miterlimit="10" d="M30.2,2.6c4.8-2.4,9.6-4.7,14.3-7
					C49.8-1.8,55,0.8,60,3.3c-4.6,2.3-9.4,4.6-14.3,7C40.7,7.8,35.5,5.2,30.2,2.6z"/>
				<path id="XMLID_539_" fill="none" stroke="#7D7D7D" stroke-miterlimit="10" d="M32.6,16.7c-5.1-2.5-10.3-5-15.6-7.6
					c4.4-2.2,8.8-4.3,13.2-6.5c5.3,2.6,10.5,5.1,15.6,7.6C41.4,12.4,37,14.5,32.6,16.7z"/>
				<path id="XMLID_538_" fill="none" stroke="#7D7D7D" stroke-miterlimit="10" d="M1.6,1.6C6-0.6,10.5-2.7,14.9-4.8
					c5.1,2.5,10.3,5,15.3,7.5C25.8,4.8,21.4,6.9,17,9.1C11.9,6.6,6.8,4.1,1.6,1.6z"/>
				<path id="XMLID_537_" fill="none" stroke="#7D7D7D" stroke-miterlimit="10" d="M71.7,50.2H48.3c3.9-1.9,7.8-3.8,11.7-5.7
					C64.1,46.5,68.1,48.4,71.7,50.2z"/>
				<path id="XMLID_536_" fill="none" stroke="#7D7D7D" stroke-miterlimit="10" d="M60,3.3c4.7,2.3,9.2,4.5,13.6,6.6
					c-4.6,2.3-9.4,4.6-14.3,7c-4.4-2.1-8.9-4.4-13.6-6.6C50.6,7.9,55.4,5.5,60,3.3z"/>
				<path id="XMLID_535_" fill="none" stroke="#7D7D7D" stroke-miterlimit="10" d="M40.6,50.2H21.8c3.1-1.5,6.3-3.1,9.4-4.6
					C34.4,47.2,37.6,48.7,40.6,50.2z"/>
				<path id="XMLID_534_" fill="none" stroke="#7D7D7D" stroke-miterlimit="10" d="M-67.3,50.2c3.6-1.7,7.5-3.6,11.6-5.6
					c3.8,1.9,7.7,3.8,11.5,5.6H-67.3z"/>
				<path id="XMLID_533_" fill="none" stroke="#7D7D7D" stroke-miterlimit="10" d="M74.3-49.4c-3.2,1.6-6.7,3.3-10.5,5.1
					c-3.5-1.7-7-3.4-10.5-5.1H74.3z"/>
				<path id="XMLID_532_" fill="none" stroke="#7D7D7D" stroke-miterlimit="10" d="M27.5-49.4h19.7c-3.2,1.5-6.4,3.2-9.8,4.8
					C34-46.2,30.7-47.8,27.5-49.4z"/>
				<path id="XMLID_531_" fill="none" stroke="#7D7D7D" stroke-miterlimit="10" d="M-36,50.2c3.4-1.7,6.9-3.4,10.5-5.1
					c3.5,1.7,7,3.4,10.5,5.1H-36z"/>
				<path id="XMLID_530_" fill="none" stroke="#7D7D7D" stroke-miterlimit="10" d="M100.7-16.6v3c-1-0.5-2.1-1-3.1-1.5
					C98.6-15.7,99.7-16.2,100.7-16.6z"/>
				<path id="XMLID_529_" fill="none" stroke="#7D7D7D" stroke-miterlimit="10" d="M100.7,36.9c-3.4-1.6-7.7-3.7-12.7-6.1
					c4.4-2.2,8.6-4.2,12.7-6.2V36.9z"/>
				<path id="XMLID_528_" fill="none" stroke="#7D7D7D" stroke-miterlimit="10" d="M56.6-10.3c4.3-2.1,8.4-4.1,12.3-6
					c5.3,2.6,10.5,5.1,15.6,7.6c-3.9,1.9-8,3.9-12.3,6C67.1-5.1,61.9-7.7,56.6-10.3z"/>
				<path id="XMLID_527_" fill="none" stroke="#7D7D7D" stroke-miterlimit="10" d="M-0.9-12.5c4.8-2.3,9.6-4.7,14.3-7
					c5.3,2.6,10.6,5.2,15.8,7.7c-4.7,2.3-9.5,4.6-14.4,6.9C9.6-7.4,4.4-10-0.9-12.5z"/>
				<path id="XMLID_526_" fill="none" stroke="#7D7D7D" stroke-miterlimit="10" d="M1.6,1.6C-3.6-1-8.9-3.6-14.1-6.1
					c4.4-2.1,8.8-4.3,13.2-6.5C4.4-10,9.6-7.4,14.9-4.8C10.5-2.7,6-0.6,1.6,1.6z"/>
				<path id="XMLID_525_" fill="none" stroke="#7D7D7D" stroke-miterlimit="10" d="M-27.7-12.8c4.4-2.1,8.8-4.3,13.2-6.5
					c4.5,2.2,9.1,4.4,13.6,6.7c-4.4,2.2-8.8,4.3-13.2,6.5C-18.7-8.3-23.2-10.6-27.7-12.8z"/>
				<path id="XMLID_524_" fill="none" stroke="#7D7D7D" stroke-miterlimit="10" d="M-28.8,1.1c-4.7-2.3-9.2-4.5-13.7-6.7
					c4.8-2.3,9.7-4.8,14.8-7.2c4.5,2.2,9,4.4,13.7,6.7C-19.1-3.7-24-1.2-28.8,1.1z"/>
				<path id="XMLID_523_" fill="none" stroke="#7D7D7D" stroke-miterlimit="10" d="M1.6,1.6c-5,2.4-9.9,4.8-14.9,7.2
					c-5.3-2.6-10.5-5.1-15.6-7.6c4.8-2.4,9.8-4.8,14.8-7.2C-8.9-3.6-3.6-1,1.6,1.6z"/>
				<path id="XMLID_522_" fill="none" stroke="#7D7D7D" stroke-miterlimit="10" d="M84.5-8.7c4.7,2.3,9.3,4.5,13.6,6.6
					c-3.8,1.9-8,3.9-12.3,6c-4.4-2.1-8.9-4.3-13.6-6.6C76.5-4.8,80.6-6.8,84.5-8.7z"/>
				<path id="XMLID_521_" fill="none" stroke="#7D7D7D" stroke-miterlimit="10" d="M41.4-17.7c4.3-2.1,8.4-4.1,12.4-6
					c5.1,2.5,10.1,5,15.1,7.4c-3.9,1.9-8.1,3.9-12.3,6C51.6-12.7,46.5-15.2,41.4-17.7z"/>
				<path id="XMLID_520_" fill="none" stroke="#7D7D7D" stroke-miterlimit="10" d="M44.5-4.3c-5-2.5-10.1-4.9-15.2-7.4
					c4.1-2,8.2-4,12.2-5.9c5.1,2.5,10.2,5,15.2,7.4C52.7-8.4,48.6-6.4,44.5-4.3z"/>
				<path id="XMLID_519_" fill="none" stroke="#7D7D7D" stroke-miterlimit="10" d="M45.8,10.2c4.7,2.3,9.2,4.5,13.6,6.6
					c-4.3,2.1-8.7,4.3-13.2,6.5c-4.4-2.1-9-4.4-13.6-6.6C37,14.5,41.4,12.4,45.8,10.2z"/>
				<path id="XMLID_518_" fill="none" stroke="#7D7D7D" stroke-miterlimit="10" d="M17.8,23.9c4.6,2.3,9.2,4.5,13.6,6.6
					c-5.2,2.5-10.3,5.1-15.5,7.6c-4.5-2.2-9-4.4-13.6-6.6C7.4,29,12.6,26.5,17.8,23.9z"/>
				<path id="XMLID_517_" fill="none" stroke="#7D7D7D" stroke-miterlimit="10" d="M15.9,38.1c-4.7,2.3-9.4,4.6-14,6.8
					c-4.5-2.2-9-4.4-13.6-6.6c4.6-2.2,9.3-4.5,14-6.8C6.9,33.8,11.4,36,15.9,38.1z"/>
				<path id="XMLID_516_" fill="none" stroke="#7D7D7D" stroke-miterlimit="10" d="M32.6,16.7c4.7,2.3,9.2,4.5,13.6,6.6
					c-4.9,2.4-9.8,4.8-14.8,7.2c-4.4-2.2-9-4.4-13.6-6.6C22.7,21.5,27.7,19.1,32.6,16.7z"/>
				<path id="XMLID_515_" fill="none" stroke="#7D7D7D" stroke-miterlimit="10" d="M2.2,16.3c-5.2,2.5-10.4,5.1-15.5,7.6
					c-5.2-2.5-10.4-5.1-15.6-7.6c5.1-2.5,10.3-5,15.6-7.5C-8.1,11.3-2.9,13.8,2.2,16.3z"/>
				<path id="XMLID_514_" fill="none" stroke="#7D7D7D" stroke-miterlimit="10" d="M-11.7,38.3c-5.1-2.5-10.3-5.1-15.6-7.6
					c4.6-2.2,9.3-4.5,14-6.8c5.2,2.5,10.4,5.1,15.6,7.6C-2.4,33.8-7.1,36.1-11.7,38.3z"/>
				<path id="XMLID_513_" fill="none" stroke="#7D7D7D" stroke-miterlimit="10" d="M-28.9,16.3c-5.2-2.6-10.4-5.1-15.5-7.6
					c5-2.4,10.2-5,15.5-7.6c5.1,2.5,10.3,5.1,15.6,7.6C-18.5,11.3-23.8,13.8-28.9,16.3z"/>
				<path id="XMLID_512_" fill="none" stroke="#7D7D7D" stroke-miterlimit="10" d="M17.8,23.9C12.6,26.5,7.4,29,2.3,31.5
					c-5.1-2.5-10.3-5.1-15.6-7.6c5.1-2.5,10.3-5,15.5-7.6C7.5,18.9,12.7,21.4,17.8,23.9z"/>
				<path id="XMLID_511_" fill="none" stroke="#7D7D7D" stroke-miterlimit="10" d="M30.2,2.6c-5.1-2.5-10.2-5-15.3-7.5
					c4.9-2.3,9.7-4.7,14.4-6.9c5.1,2.5,10.2,5,15.2,7.4C39.8-2.1,35,0.3,30.2,2.6z"/>
				<path id="XMLID_510_" fill="none" stroke="#7D7D7D" stroke-miterlimit="10" d="M-72.2,50.2h-27.6c1.9-0.8,6.8-3.2,14-6.6
					C-81.2,45.8-76.7,48-72.2,50.2z"/>
				<path id="XMLID_509_" fill="none" stroke="#7D7D7D" stroke-miterlimit="10" d="M-71.5,36.8c5.2,2.6,10.5,5.2,15.9,7.8
					c-4.1,2-8,3.9-11.6,5.6h-4.9c-4.6-2.2-9.1-4.4-13.5-6.6C-81.6,41.7-76.9,39.4-71.5,36.8z"/>
				<path id="XMLID_508_" fill="none" stroke="#7D7D7D" stroke-miterlimit="10" d="M60,44.5c5-2.5,10-4.9,14.8-7.2
					c5,2.4,9.4,4.6,13.1,6.3c-4.4,2.2-9,4.4-13.6,6.6h-2.5C68.1,48.4,64.1,46.5,60,44.5z"/>
				<path id="XMLID_507_" fill="none" stroke="#7D7D7D" stroke-miterlimit="10" d="M-100.3,35.7c0.1,0,5.1-2.4,13.5-6.4
					c5,2.4,10.1,4.9,15.3,7.5c-5.3,2.6-10.1,4.8-14.2,6.8c-5.1-2.5-10.1-4.9-15-7.3V22.6c4.5,2.2,9.1,4.5,13.8,6.8
					C-95.2,33.4-100.2,35.8-100.3,35.7z"/>
				<path id="XMLID_506_" fill="none" stroke="#7D7D7D" stroke-miterlimit="10" d="M-100.3,9.2c0,0,0.3-0.1,0.8-0.3
					c4.3,2.1,8.9,4.4,13.6,6.7c-8.9,4.3-14.3,6.9-14.4,6.8c0.1,0,5.5-2.5,14.4-6.8c4.5,2.2,9,4.4,13.7,6.7
					c-5.6,2.7-10.5,5.1-14.6,7.1c-4.8-2.3-9.4-4.6-13.8-6.8V8.3c0.4,0.2,0.8,0.4,1.1,0.6C-100,9.1-100.3,9.2-100.3,9.2z"/>
				<path id="XMLID_505_" fill="none" stroke="#7D7D7D" stroke-miterlimit="10" d="M-99.7,50.2h-0.9V36.3c4.9,2.4,9.9,4.8,15,7.3
					C-92.9,47-97.9,49.4-99.7,50.2z"/>
				<path id="XMLID_504_" fill="none" stroke="#7D7D7D" stroke-miterlimit="10" d="M99.3,49c-0.1,0-4.3-2-11.5-5.4
					c4.4-2.2,8.7-4.3,12.8-6.3v12.9H74.3c4.6-2.3,9.1-4.5,13.6-6.6C95,47,99.2,49,99.3,49z"/>
				<path id="XMLID_503_" fill="none" stroke="#7D7D7D" stroke-miterlimit="10" d="M50.9-37.9c4.6-2.2,8.9-4.4,12.9-6.3
					c5.4,2.6,10.8,5.3,16.1,7.9c-3.9,1.9-8.3,4-13,6.3C61.7-32.6,56.3-35.3,50.9-37.9z"/>
				<path id="XMLID_502_" fill="none" stroke="#7D7D7D" stroke-miterlimit="10" d="M82-22.7c-4.9-2.4-9.9-4.9-15-7.3
					c4.7-2.3,9.1-4.4,13-6.3c5.1,2.5,10.1,4.9,14.9,7.3C91.2-27.2,86.9-25.1,82-22.7z"/>
				<path id="XMLID_501_" fill="none" stroke="#7D7D7D" stroke-miterlimit="10" d="M37.8-31.5c-4.6-2.2-9.1-4.5-13.6-6.7
					c4.5-2.2,8.9-4.3,13.1-6.4c4.5,2.2,9.1,4.4,13.6,6.7C46.7-35.9,42.4-33.7,37.8-31.5z"/>
				<path id="XMLID_500_" fill="none" stroke="#7D7D7D" stroke-miterlimit="10" d="M37.3-44.6c3.4-1.7,6.7-3.3,9.8-4.8h6.2
					c3.5,1.7,7,3.4,10.5,5.1c-4,2-8.4,4.1-12.9,6.3C46.4-40.1,41.8-42.4,37.3-44.6z"/>
				<path id="XMLID_499_" fill="none" stroke="#7D7D7D" stroke-miterlimit="10" d="M-100.6-3.7c0,0,0.6-0.2,1.6-0.7
					c4.2,2.1,8.7,4.3,13.4,6.6c-7.2,3.4-12.1,5.8-14,6.6c-0.4-0.2-0.8-0.4-1.1-0.6V-5.2c0.5,0.3,1.1,0.5,1.7,0.8
					C-100-3.9-100.5-3.7-100.6-3.7z"/>
				<path id="XMLID_498_" fill="none" stroke="#7D7D7D" stroke-miterlimit="10" d="M97.6-15.1c-5-2.4-10.2-5-15.6-7.6
					c4.9-2.4,9.2-4.5,12.9-6.3c1.9,0.9,3.8,1.9,5.7,2.8v9.6C99.7-16.2,98.6-15.7,97.6-15.1z"/>
				<path id="XMLID_497_" fill="none" stroke="#7D7D7D" stroke-miterlimit="10" d="M100.7-31.9v5.6c-1.9-0.9-3.8-1.9-5.7-2.8
					C97.1-30.1,99-31,100.7-31.9z"/>
				<path id="XMLID_496_" fill="none" stroke="#7D7D7D" stroke-miterlimit="10" d="M80-36.4c5.6-2.7,10.4-5,13.9-6.7
					c2.3,1.1,4.5,2.2,6.8,3.3v7.9c-1.7,0.8-3.6,1.8-5.7,2.8C90.1-31.4,85.1-33.9,80-36.4z"/>
				<path id="XMLID_495_" fill="none" stroke="#7D7D7D" stroke-miterlimit="10" d="M74.8,37.3c4.5-2.2,8.9-4.4,13.2-6.5
					c5,2.4,9.3,4.5,12.7,6.1v0.4c-4.1,2-8.4,4.1-12.8,6.3C84.2,41.8,79.8,39.7,74.8,37.3z"/>
				<path id="XMLID_494_" fill="none" stroke="#7D7D7D" stroke-miterlimit="10" d="M1.3-49.4h19c-3.1,1.5-6.3,3.1-9.5,4.7
					C7.6-46.3,4.4-47.8,1.3-49.4z"/>
				<path id="XMLID_493_" fill="none" stroke="#7D7D7D" stroke-miterlimit="10" d="M-1.5-38.7c-4.6-2.2-9-4.4-13.3-6.5
					c3.2-1.6,6.1-3,8.5-4.2h7.6c3.1,1.5,6.3,3.1,9.5,4.7C6.8-42.7,2.6-40.7-1.5-38.7z"/>
				<path id="XMLID_492_" fill="none" stroke="#7D7D7D" stroke-miterlimit="10" d="M37.3-44.6c-4.2,2.1-8.6,4.2-13.1,6.4
					c-4.5-2.2-9-4.4-13.4-6.5c3.2-1.6,6.4-3.1,9.5-4.7h7.1C30.7-47.8,34-46.2,37.3-44.6z"/>
				<path id="XMLID_491_" fill="none" stroke="#7D7D7D" stroke-miterlimit="10" d="M93.9-43.1c3.7-1.8,6.1-2.9,6.8-3.3v6.6
					C98.4-40.9,96.2-42,93.9-43.1z"/>
				<path id="XMLID_490_" fill="none" stroke="#7D7D7D" stroke-miterlimit="10" d="M-23.4-49.4h17.1c-2.5,1.2-5.3,2.6-8.5,4.2
					C-17.7-46.6-20.6-48-23.4-49.4z"/>
				<path id="XMLID_489_" fill="none" stroke="#7D7D7D" stroke-miterlimit="10" d="M80-36.4c-5.3-2.6-10.7-5.2-16.1-7.9
					c3.8-1.9,7.3-3.6,10.5-5.1H81c4.3,2.1,8.6,4.2,12.9,6.3C90.4-41.4,85.6-39.1,80-36.4z"/>
				<path id="XMLID_488_" fill="none" stroke="#7D7D7D" stroke-miterlimit="10" d="M81-49.4h19.7v3c-0.7,0.3-3.1,1.5-6.8,3.3
					C89.6-45.2,85.3-47.3,81-49.4z"/>
				<path id="XMLID_487_" fill="none" stroke="#7D7D7D" stroke-miterlimit="10" d="M-76.1-49.4h14.2c-2,1-4.4,2.2-7.1,3.5
					C-71.6-47.2-73.9-48.3-76.1-49.4z"/>
				<path id="XMLID_486_" fill="none" stroke="#7D7D7D" stroke-miterlimit="10" d="M-100.1-41.7c0.3,0.1,3.6-1.4,7-3.1
					c2.9,1.4,6.6,3.2,10.9,5.3c-6,2.9-11.5,5.5-15,7.1c-1.4-0.7-2.6-1.3-3.5-1.7v-14.4c0.3,0.1,3,1.4,7.6,3.7
					C-96.5-43.1-99.8-41.6-100.1-41.7z"/>
				<path id="XMLID_485_" fill="none" stroke="#7D7D7D" stroke-miterlimit="10" d="M-100.6-30.9c0.1,0,1.4-0.5,3.4-1.4
					c3.3,1.6,8.1,4,14,6.9c-7.1,3.5-13,6.3-15.6,7.5c-0.6-0.3-1.3-0.6-1.9-0.9v-15.2c0.9,0.4,2,1,3.5,1.7
					C-99.2-31.4-100.4-30.9-100.6-30.9z"/>
				<path id="XMLID_484_" fill="none" stroke="#7D7D7D" stroke-miterlimit="10" d="M-26.9-39.3c-5-2.5-9.8-4.8-14.3-7
					c2.5-1.3,4.7-2.3,6.2-3.1h11.7c2.8,1.4,5.6,2.8,8.5,4.2C-18.5-43.4-22.6-41.4-26.9-39.3z"/>
				<path id="XMLID_483_" fill="none" stroke="#7D7D7D" stroke-miterlimit="10" d="M-82.2-39.5c-4.3-2.1-8-3.9-10.9-5.3
					c4.1-2,8.6-4.3,8.6-4.3s-4.4,2.3-8.6,4.3c-4.6-2.3-7.3-3.6-7.6-3.7v-0.9h24.6c2.2,1.1,4.5,2.2,7.1,3.5
					C-73.1-43.9-77.8-41.6-82.2-39.5z"/>
				<path id="XMLID_482_" fill="none" stroke="#7D7D7D" stroke-miterlimit="10" d="M-47.6-49.4H-35c-1.5,0.8-3.7,1.8-6.2,3.1
					C-43.4-47.3-45.5-48.4-47.6-49.4z"/>
				<path id="XMLID_481_" fill="none" stroke="#7D7D7D" stroke-miterlimit="10" d="M-100.3-17.3c0.1,0,0.6-0.2,1.6-0.6
					c4.1,2,8.8,4.3,14,6.9C-91.5-7.9-96.6-5.5-99-4.4c-0.6-0.3-1.1-0.5-1.7-0.8v-13.7c0.6,0.3,1.2,0.6,1.9,0.9
					C-99.7-17.5-100.3-17.3-100.3-17.3z"/>
				<path id="XMLID_480_" fill="none" stroke="#7D7D7D" stroke-miterlimit="10" d="M-55.4-39.2c-4.9-2.4-9.5-4.7-13.6-6.7
					c2.7-1.3,5.1-2.5,7.1-3.5h14.3c2,1,4.1,2,6.3,3.1C-45.2-44.3-50.1-41.9-55.4-39.2z"/>
				<path id="XMLID_479_" fill="none" stroke="#7D7D7D" stroke-miterlimit="10" d="M-43,23.1c-4.8,2.3-9.5,4.6-13.9,6.7
					c-5.2-2.5-10.3-5-15.3-7.5c4.3-2.1,8.9-4.3,13.8-6.7C-53.3,18-48.2,20.5-43,23.1z"/>
				<path id="XMLID_478_" fill="none" stroke="#7D7D7D" stroke-miterlimit="10" d="M61.5,30.8c4.8,2.3,9.2,4.5,13.3,6.5
					C69.9,39.6,65,42,60,44.5c-4.2-2-8.6-4.2-13.3-6.5C51.7,35.6,56.6,33.2,61.5,30.8z"/>
				<path id="XMLID_477_" fill="none" stroke="#7D7D7D" stroke-miterlimit="10" d="M74.7,24.3c4.8,2.3,9.3,4.5,13.3,6.4
					c-4.3,2.1-8.7,4.3-13.2,6.5c-4.1-2-8.5-4.1-13.3-6.5C66,28.6,70.4,26.4,74.7,24.3z"/>
				<path id="XMLID_476_" fill="none" stroke="#7D7D7D" stroke-miterlimit="10" d="M31.2,45.6c5.2-2.5,10.4-5.1,15.5-7.6
					c4.6,2.3,9.1,4.4,13.3,6.5c-3.9,1.9-7.8,3.8-11.7,5.7h-7.7C37.6,48.7,34.4,47.2,31.2,45.6z"/>
				<path id="XMLID_475_" fill="none" stroke="#7D7D7D" stroke-miterlimit="10" d="M29.2-11.8C24-14.4,18.7-17,13.4-19.5
					c4.1-2,8.1-4,12.1-5.9c5.3,2.6,10.6,5.2,15.9,7.8C37.4-15.8,33.4-13.8,29.2-11.8z"/>
				<path id="XMLID_474_" fill="none" stroke="#7D7D7D" stroke-miterlimit="10" d="M-25.5,45.1c-3.6,1.8-7.1,3.5-10.5,5.1h-8.1
					c-3.8-1.9-7.7-3.8-11.5-5.6c4.6-2.2,9.5-4.6,14.6-7.1C-35.9,40-30.7,42.6-25.5,45.1z"/>
				<path id="XMLID_473_" fill="none" stroke="#7D7D7D" stroke-miterlimit="10" d="M89,17.3c4.2,2.1,8.1,4,11.7,5.7v1.6
					c-4,2-8.3,4.1-12.7,6.2c-4-1.9-8.5-4.1-13.3-6.4C79.6,21.9,84.4,19.6,89,17.3z"/>
				<path id="XMLID_472_" fill="none" stroke="#7D7D7D" stroke-miterlimit="10" d="M-41.1,37.5c-5.1,2.5-10,4.9-14.6,7.1
					c-5.3-2.6-10.6-5.2-15.9-7.8c4.5-2.2,9.4-4.5,14.7-7.1C-51.6,32.3-46.4,34.9-41.1,37.5z"/>
				<path id="XMLID_471_" fill="none" stroke="#7D7D7D" stroke-miterlimit="10" d="M-71.5,36.8c-5.2-2.5-10.3-5-15.3-7.5
					c4.1-2,9.1-4.4,14.6-7.1c5,2.5,10.2,5,15.3,7.5C-62.1,32.3-67,34.6-71.5,36.8z"/>
				<path id="XMLID_470_" fill="none" stroke="#7D7D7D" stroke-miterlimit="10" d="M37.8-31.5c4.5-2.2,8.9-4.4,13.1-6.4
					c5.4,2.6,10.7,5.3,16.1,7.9c-4.1,2-8.5,4.1-13.1,6.4C48.5-26.3,43.2-28.9,37.8-31.5z"/>
				<path id="XMLID_469_" fill="none" stroke="#7D7D7D" stroke-miterlimit="10" d="M41.4-17.7c-5.3-2.6-10.6-5.2-15.9-7.8
					c4.2-2.1,8.3-4.1,12.3-6c5.3,2.6,10.7,5.2,16,7.8C49.8-21.8,45.7-19.7,41.4-17.7z"/>
				<path id="XMLID_468_" fill="none" stroke="#7D7D7D" stroke-miterlimit="10" d="M53.8-23.7c4.6-2.2,9-4.4,13.1-6.4
					c5.1,2.5,10.1,4.9,15,7.3c-4,2-8.4,4.1-13.1,6.4C64-18.7,58.9-21.2,53.8-23.7z"/>
				<path id="XMLID_467_" fill="none" stroke="#7D7D7D" stroke-miterlimit="10" d="M84.5-8.7c4.8-2.3,9.2-4.5,13.1-6.4
					c1,0.5,2.1,1,3.1,1.5v10.3c-0.8,0.4-1.7,0.8-2.5,1.2C93.8-4.2,89.2-6.4,84.5-8.7z"/>
				<path id="XMLID_466_" fill="none" stroke="#7D7D7D" stroke-miterlimit="10" d="M100.7-3.3v2.5c-0.8-0.4-1.7-0.8-2.5-1.2
					C99-2.5,99.8-2.9,100.7-3.3z"/>
				<path id="XMLID_465_" fill="none" stroke="#7D7D7D" stroke-miterlimit="10" d="M85.8,4c4.4-2.2,8.5-4.2,12.3-6
					c0.9,0.4,1.7,0.8,2.5,1.2v12.1C96,9,91.1,6.5,85.8,4z"/>
				<path id="XMLID_464_" fill="none" stroke="#7D7D7D" stroke-miterlimit="10" d="M68.9-16.3c4.7-2.3,9-4.4,13.1-6.4
					c5.3,2.6,10.5,5.1,15.6,7.6c-3.9,1.9-8.3,4.1-13.1,6.4C79.5-11.2,74.3-13.7,68.9-16.3z"/>
				<path id="XMLID_463_" fill="none" stroke="#7D7D7D" stroke-miterlimit="10" d="M-83.2-25.5c-5.9-2.9-10.7-5.2-14-6.9
					c3.4-1.6,9-4.2,15-7.1c4.1,2,8.7,4.3,13.7,6.7C-73.6-30.2-78.7-27.7-83.2-25.5z"/>
				<path id="XMLID_462_" fill="none" stroke="#7D7D7D" stroke-miterlimit="10" d="M-55.4-39.2c5.3-2.6,10.2-5.1,14.2-7
					c4.5,2.2,9.3,4.6,14.3,7c-4.5,2.2-9.4,4.6-14.3,7C-46.2-34.7-50.9-37.1-55.4-39.2z"/>
				<path id="XMLID_461_" fill="none" stroke="#7D7D7D" stroke-miterlimit="10" d="M-54.4-25.8c-5-2.4-9.7-4.7-14.1-6.9
					c4.4-2.2,8.9-4.4,13.1-6.5c4.4,2.2,9.2,4.5,14.2,6.9C-45.6-30.2-50-28-54.4-25.8z"/>
				<path id="XMLID_460_" fill="none" stroke="#7D7D7D" stroke-miterlimit="10" d="M-27.9-25.8c-4.6-2.2-9-4.4-13.3-6.5
					c4.9-2.4,9.7-4.8,14.3-7c4.3,2.1,8.7,4.3,13.3,6.5C-18.4-30.4-23.2-28.1-27.9-25.8z"/>
				<path id="XMLID_459_" fill="none" stroke="#7D7D7D" stroke-miterlimit="10" d="M-82.2-39.5c4.5-2.2,9.2-4.4,13.2-6.4
					c4.1,2,8.7,4.2,13.6,6.7c-4.2,2.1-8.7,4.3-13.1,6.5C-73.5-35.2-78.2-37.5-82.2-39.5z"/>
				<path id="XMLID_458_" fill="none" stroke="#7D7D7D" stroke-miterlimit="10" d="M-26.9-39.3c4.4-2.1,8.4-4.1,12.1-5.9
					c4.3,2.1,8.8,4.3,13.3,6.5c-4,2-8.1,3.9-12.1,5.9C-18.2-35-22.6-37.2-26.9-39.3z"/>
				<path id="XMLID_457_" fill="none" stroke="#7D7D7D" stroke-miterlimit="10" d="M-1.5-38.7c4.2-2,8.3-4.1,12.4-6
					c4.4,2.1,8.9,4.3,13.4,6.5c-4,2-8.2,4-12.4,6C7.3-34.3,2.9-36.5-1.5-38.7z"/>
				<path id="XMLID_456_" fill="none" stroke="#7D7D7D" stroke-miterlimit="10" d="M-0.2-26.2c-4.5-2.2-9-4.4-13.4-6.6
					c4-2,8.1-4,12.1-5.9c4.4,2.1,8.9,4.3,13.4,6.6C7.9-30.2,3.8-28.2-0.2-26.2z"/>
				<path id="XMLID_455_" fill="none" stroke="#7D7D7D" stroke-miterlimit="10" d="M-58,2c-5,2.4-9.7,4.7-14,6.8
					c-4.7-2.3-9.2-4.5-13.5-6.6c4-2,8.8-4.2,14.1-6.8C-67.2-2.5-62.7-0.3-58,2z"/>
				<path id="XMLID_454_" fill="none" stroke="#7D7D7D" stroke-miterlimit="10" d="M25.5-25.5c-4.6-2.2-9.1-4.5-13.6-6.7
					c4.2-2,8.3-4.1,12.4-6c4.5,2.2,9.1,4.4,13.6,6.7C33.8-29.5,29.7-27.5,25.5-25.5z"/>
				<path id="XMLID_453_" fill="none" stroke="#7D7D7D" stroke-miterlimit="10" d="M-58.4,15.5c-4.9,2.4-9.5,4.6-13.8,6.7
					c-4.7-2.3-9.3-4.5-13.7-6.7c4-1.9,8.6-4.2,13.8-6.7C-67.6,11-63,13.2-58.4,15.5z"/>
				<path id="XMLID_452_" fill="none" stroke="#7D7D7D" stroke-miterlimit="10" d="M-85.9,15.5c-4.7-2.3-9.3-4.5-13.6-6.7
					c1.8-0.8,6.8-3.2,14-6.6c4.3,2.1,8.8,4.3,13.5,6.6C-77.3,11.4-81.9,13.6-85.9,15.5z"/>
				<path id="XMLID_451_" fill="none" stroke="#7D7D7D" stroke-miterlimit="10" d="M-85.6,2.2c-4.7-2.3-9.2-4.5-13.4-6.6
					c2.4-1.1,7.5-3.5,14.2-6.7c4.1,2,8.6,4.2,13.3,6.5C-76.8-2-81.5,0.3-85.6,2.2z"/>
				<path id="XMLID_450_" fill="none" stroke="#7D7D7D" stroke-miterlimit="10" d="M-54.4-25.8c-5.1,2.5-10.1,4.9-14.8,7.2
					c-5.1-2.5-9.8-4.8-14-6.8c4.5-2.2,9.6-4.7,14.7-7.2C-64.1-30.6-59.4-28.3-54.4-25.8z"/>
				<path id="XMLID_449_" fill="none" stroke="#7D7D7D" stroke-miterlimit="10" d="M-84.8-11.1c-5.2-2.6-9.9-4.9-14-6.9
					c2.6-1.2,8.5-4,15.6-7.5c4.1,2,8.8,4.3,14,6.8C-74.9-15.9-80.2-13.3-84.8-11.1z"/>
				<path id="XMLID_448_" fill="none" stroke="#7D7D7D" stroke-miterlimit="10" d="M-55.9-12.1c-5.5,2.7-10.8,5.2-15.5,7.6
					c-4.7-2.3-9.2-4.5-13.3-6.5c4.6-2.2,9.9-4.8,15.6-7.5C-65.1-16.6-60.6-14.4-55.9-12.1z"/>
			</g>
		</g>

			<path id="XMLID_444_" fill="#BCC1C4" stroke="#4C494A" stroke-linecap="round" stroke-linejoin="round" stroke-miterlimit="10" d="
			M105.6-53.3h-1.2c-2.2,0-4,1.8-4,4v98.6c0,2.2,1.8,4,4,4h1.2c2.2,0,4-1.8,4-4v-98.6C109.6-51.5,107.8-53.3,105.6-53.3z"/>

			<path id="XMLID_443_" fill="#BCC1C4" stroke="#4C494A" stroke-linecap="round" stroke-linejoin="round" stroke-miterlimit="10" d="
			M-104.4-53.3h-1.2c-2.2,0-4,1.8-4,4v98.6c0,2.2,1.8,4,4,4h1.2c2.2,0,4-1.8,4-4v-98.6C-100.4-51.5-102.2-53.3-104.4-53.3z"/>
	</g>
</symbol>
<symbol id="fence_final" viewBox="-324.9 -75.6 649.8 151.3">

		<use xlink:href="#fence" width="251.2" height="151.3" id="XMLID_808_" x="-110.1" y="-64.8" transform="matrix(1 0 0 1 163.499 -10.8833)" overflow="visible"/>

		<use xlink:href="#fence" width="251.2" height="151.3" id="XMLID_807_" x="-110.1" y="-64.8" transform="matrix(1 0 0 1 -47.0626 -10.8833)" overflow="visible"/>
	<g id="fence_5_">
		<g id="XMLID_682_" opacity="0.46">
			<path id="XMLID_806_" fill="none" stroke="#7D7D7D" stroke-miterlimit="10" d="M-183.5-1c4.2-2.1,8.3-4,12.1-5.9
				c5.2,2.5,10.1,4.9,14.6,7.1v0.7c-3.6,1.8-7.4,3.6-11.4,5.6C-172.9,4.1-178.1,1.6-183.5-1z"/>
			<path id="XMLID_805_" fill="none" stroke="#7D7D7D" stroke-miterlimit="10" d="M-241.3,27.3c5.2,2.6,10.4,5.1,15.3,7.5
				c-3.1,1.5-6.3,3.1-9.4,4.6h-9.2c-3.5-1.7-7.1-3.4-10.7-5.2C-250.6,31.9-246,29.6-241.3,27.3z"/>
			<path id="XMLID_804_" fill="none" stroke="#7D7D7D" stroke-miterlimit="10" d="M-268.9,27.5c4.6,2.2,9.2,4.5,13.6,6.6
				c-3.6,1.8-7.2,3.5-10.7,5.2h-6.2c-3.5-1.7-7-3.4-10.5-5.1C-278.2,32-273.6,29.8-268.9,27.5z"/>
			<path id="XMLID_803_" fill="none" stroke="#7D7D7D" stroke-miterlimit="10" d="M-211,12.5c5.4,2.6,10.5,5.1,15.3,7.5
				c-4.9,2.4-9.8,4.8-14.8,7.2c-4.9-2.4-10-4.9-15.3-7.5C-220.8,17.3-215.8,14.8-211,12.5z"/>
			<path id="XMLID_802_" fill="none" stroke="#7D7D7D" stroke-miterlimit="10" d="M-210.4,27.2c-5.1,2.5-10.3,5.1-15.5,7.6
				c-4.9-2.4-10.1-4.9-15.3-7.5c5.2-2.5,10.3-5.1,15.5-7.6C-220.5,22.3-215.4,24.8-210.4,27.2z"/>
			<path id="XMLID_801_" fill="none" stroke="#7D7D7D" stroke-miterlimit="10" d="M-183.5-1c5.4,2.6,10.6,5.1,15.3,7.5
				c-4.6,2.2-9.3,4.6-14.3,7c-4.8-2.3-9.9-4.8-15.3-7.5C-192.9,3.6-188.1,1.3-183.5-1z"/>
			<path id="XMLID_800_" fill="none" stroke="#7D7D7D" stroke-miterlimit="10" d="M-182.5,13.5c-4.3,2.1-8.7,4.3-13.2,6.5
				c-4.8-2.3-9.9-4.8-15.3-7.5c4.5-2.2,8.9-4.3,13.2-6.5C-192.4,8.6-187.2,11.1-182.5,13.5z"/>
			<path id="XMLID_799_" fill="none" stroke="#7D7D7D" stroke-miterlimit="10" d="M-268.9,27.5c-4.7,2.3-9.3,4.6-13.8,6.7
				c-5.1-2.5-10.3-5.1-15.6-7.6c4.4-2.2,9.1-4.4,13.8-6.7C-279.2,22.4-274,25-268.9,27.5z"/>
			<path id="XMLID_798_" fill="none" stroke="#7D7D7D" stroke-miterlimit="10" d="M-285.1-36.7c4.7-2.3,9.5-4.6,14.3-7
				c4.4,2.1,8.9,4.3,13.4,6.6c-4.8,2.3-9.5,4.7-14.3,7C-276.2-32.3-280.7-34.5-285.1-36.7z"/>
			<path id="XMLID_797_" fill="none" stroke="#7D7D7D" stroke-miterlimit="10" d="M-311.6-36.7c4.4-2.1,8.8-4.3,13.2-6.4
				c4.3,2.1,8.7,4.3,13.3,6.5c-4.5,2.2-8.9,4.3-13.2,6.4C-302.9-32.5-307.3-34.6-311.6-36.7z"/>
			<path id="XMLID_796_" fill="none" stroke="#7D7D7D" stroke-miterlimit="10" d="M-313.1-23c-3.6-1.8-7.2-3.5-10.5-5.1v-2.7
				c3.9-1.9,7.9-3.9,12-5.8c4.3,2.1,8.7,4.3,13.3,6.5C-303.4-27.7-308.4-25.3-313.1-23z"/>
			<path id="XMLID_795_" fill="none" stroke="#7D7D7D" stroke-miterlimit="10" d="M-284.9-23.7c-4.6-2.2-9.1-4.4-13.4-6.6
				c4.3-2.1,8.7-4.3,13.2-6.4c4.4,2.1,8.9,4.3,13.4,6.6C-276.1-27.9-280.5-25.8-284.9-23.7z"/>
			<path id="XMLID_794_" fill="none" stroke="#7D7D7D" stroke-miterlimit="10" d="M-313.1-23c4.7-2.3,9.7-4.7,14.8-7.2
				c4.4,2.1,8.8,4.3,13.4,6.6c-5,2.5-10,4.9-14.8,7.2C-304.3-18.7-308.8-20.9-313.1-23z"/>
			<path id="XMLID_793_" fill="none" stroke="#7D7D7D" stroke-miterlimit="10" d="M-300.1,12.2c5.2,2.5,10.4,5.1,15.7,7.7
				c-4.7,2.3-9.4,4.6-13.8,6.7c-5.3-2.6-10.5-5.2-15.8-7.7C-309.6,16.7-304.9,14.5-300.1,12.2z"/>
			<path id="XMLID_792_" fill="none" stroke="#7D7D7D" stroke-miterlimit="10" d="M-258-23.4c-4.6-2.2-9.2-4.5-13.6-6.7
				c4.8-2.3,9.5-4.7,14.3-7c4.5,2.2,9.1,4.4,13.6,6.7C-248.5-28.1-253.2-25.8-258-23.4z"/>
			<path id="XMLID_791_" fill="none" stroke="#7D7D7D" stroke-miterlimit="10" d="M-185-13.6c4.7,2.3,9.3,4.5,13.6,6.6
				c-3.9,1.9-7.9,3.9-12.1,5.9c-4.4-2.1-8.9-4.4-13.6-6.6C-192.9-9.7-188.9-11.7-185-13.6z"/>
			<path id="XMLID_790_" fill="none" stroke="#7D7D7D" stroke-miterlimit="10" d="M-301.5-2.2c5.1,2.5,10.2,5,15.5,7.6
				c-4.8,2.3-9.5,4.6-14.1,6.8c-5.2-2.5-10.4-5.1-15.4-7.5C-311.1,2.5-306.4,0.2-301.5-2.2z"/>
			<path id="XMLID_789_" fill="none" stroke="#7D7D7D" stroke-miterlimit="10" d="M-270.4,13c-4.8,2.3-9.4,4.6-14,6.8
				c-5.2-2.6-10.5-5.1-15.7-7.7c4.6-2.2,9.3-4.5,14.1-6.8C-280.8,7.9-275.6,10.5-270.4,13z"/>
			<path id="XMLID_788_" fill="none" stroke="#7D7D7D" stroke-miterlimit="10" d="M-299.6-16.4c4.4,2.2,9,4.4,13.7,6.7
				c-5.3,2.6-10.5,5.1-15.5,7.6c-4.7-2.3-9.2-4.5-13.7-6.7C-310.2-11.3-305-13.8-299.6-16.4z"/>
			<path id="XMLID_787_" fill="none" stroke="#7D7D7D" stroke-miterlimit="10" d="M-315.2-8.9c-2.9-1.4-5.7-2.8-8.4-4.1v-4.9
				c3.3-1.6,6.8-3.3,10.5-5.1c4.3,2.1,8.8,4.3,13.4,6.6C-305-13.8-310.2-11.3-315.2-8.9z"/>
			<path id="XMLID_786_" fill="none" stroke="#7D7D7D" stroke-miterlimit="10" d="M-323.6-4.8c2.7-1.3,5.5-2.7,8.4-4.1
				c4.4,2.2,9,4.4,13.7,6.7c-4.9,2.4-9.6,4.7-14,6.8c-2.7-1.3-5.4-2.6-8.1-3.9V-4.8z"/>
			<path id="XMLID_785_" fill="none" stroke="#7D7D7D" stroke-miterlimit="10" d="M-197.1-7.6c-5.1-2.5-10.3-5-15.6-7.6
				c4.1-2,8.2-4,12.1-5.9c5.3,2.6,10.5,5.1,15.6,7.6C-188.9-11.7-192.9-9.7-197.1-7.6z"/>
			<path id="XMLID_784_" fill="none" stroke="#7D7D7D" stroke-miterlimit="10" d="M-257.4-37.1c4.1-2,8.1-4,12.1-5.9
				c4.5,2.2,9.1,4.4,13.6,6.7c-4,1.9-8,3.9-12.1,5.9C-248.3-32.7-252.9-34.9-257.4-37.1z"/>
			<path id="XMLID_783_" fill="none" stroke="#7D7D7D" stroke-miterlimit="10" d="M-240.1-1.8c-4.9,2.4-9.9,4.8-14.8,7.2
				c-5.2-2.5-10.4-5.1-15.5-7.6c4.9-2.4,9.9-4.8,14.9-7.2C-250.4-6.8-245.2-4.3-240.1-1.8z"/>
			<path id="XMLID_782_" fill="none" stroke="#7D7D7D" stroke-miterlimit="10" d="M-156.7,0.9V12c-3.5-1.7-7.3-3.5-11.4-5.6
				C-164.2,4.5-160.4,2.6-156.7,0.9z"/>
			<path id="XMLID_781_" fill="none" stroke="#7D7D7D" stroke-miterlimit="10" d="M-244.6,39.3h-21.4c3.5-1.7,7.1-3.5,10.7-5.2
				C-251.6,35.9-248.1,37.6-244.6,39.3z"/>
			<path id="XMLID_780_" fill="none" stroke="#7D7D7D" stroke-miterlimit="10" d="M-240.1-1.8c5.3,2.6,10.5,5.1,15.6,7.6
				c-4.9,2.4-9.8,4.8-14.8,7.2c-5.1-2.5-10.3-5-15.6-7.6C-250,3-245.1,0.6-240.1-1.8z"/>
			<path id="XMLID_779_" fill="none" stroke="#7D7D7D" stroke-miterlimit="10" d="M-212.7-15.2c5.3,2.6,10.5,5.1,15.6,7.6
				c-4.6,2.3-9.4,4.6-14.3,7c-5.1-2.5-10.3-5-15.6-7.6C-222.1-10.6-217.3-12.9-212.7-15.2z"/>
			<path id="XMLID_778_" fill="none" stroke="#7D7D7D" stroke-miterlimit="10" d="M-211.4-0.6c-4.3,2.1-8.7,4.3-13.2,6.5
				c-5.1-2.5-10.3-5-15.6-7.6c4.4-2.2,8.8-4.3,13.2-6.5C-221.7-5.7-216.4-3.1-211.4-0.6z"/>
			<path id="XMLID_777_" fill="none" stroke="#7D7D7D" stroke-miterlimit="10" d="M-242.3-15.7c5.1,2.5,10.3,5,15.3,7.5
				c-4.4,2.1-8.8,4.3-13.2,6.5c-5.1-2.5-10.2-5-15.4-7.5C-251.1-11.5-246.7-13.6-242.3-15.7z"/>
			<path id="XMLID_776_" fill="none" stroke="#7D7D7D" stroke-miterlimit="10" d="M-185.4,39.3h-23.4c3.9-1.9,7.8-3.8,11.7-5.7
				C-193,35.6-189.1,37.6-185.4,39.3z"/>
			<path id="XMLID_775_" fill="none" stroke="#7D7D7D" stroke-miterlimit="10" d="M-211.4-0.6c4.9-2.4,9.7-4.7,14.3-7
				c4.7,2.3,9.2,4.5,13.6,6.6c-4.6,2.3-9.4,4.6-14.3,7C-202.2,3.9-206.7,1.6-211.4-0.6z"/>
			<path id="XMLID_774_" fill="none" stroke="#7D7D7D" stroke-miterlimit="10" d="M-216.5,39.3h-18.8c3.1-1.5,6.3-3.1,9.4-4.6
				C-222.7,36.3-219.6,37.8-216.5,39.3z"/>
			<path id="XMLID_773_" fill="none" stroke="#7D7D7D" stroke-miterlimit="10" d="M-312.8,33.7c3.8,1.9,7.7,3.8,11.5,5.6h-22.3v-0.4
				C-320.2,37.3-316.6,35.6-312.8,33.7z"/>
			<path id="XMLID_772_" fill="none" stroke="#7D7D7D" stroke-miterlimit="10" d="M-203.8-60.3h20.9c-3.2,1.6-6.7,3.3-10.5,5.1
				C-196.8-56.8-200.3-58.6-203.8-60.3z"/>
			<path id="XMLID_771_" fill="none" stroke="#7D7D7D" stroke-miterlimit="10" d="M-229.7-60.3h19.7c-3.2,1.5-6.4,3.2-9.8,4.8
				C-223.2-57.1-226.4-58.7-229.7-60.3z"/>
			<path id="XMLID_770_" fill="none" stroke="#7D7D7D" stroke-miterlimit="10" d="M-272.2,39.3h-21c3.4-1.7,6.9-3.4,10.5-5.1
				C-279.1,35.9-275.6,37.6-272.2,39.3z"/>
			<path id="XMLID_769_" fill="none" stroke="#7D7D7D" stroke-miterlimit="10" d="M-156.7-27.4v2.8c-0.9-0.5-1.9-0.9-2.9-1.4
				C-158.6-26.5-157.7-27-156.7-27.4z"/>
			<path id="XMLID_768_" fill="none" stroke="#7D7D7D" stroke-miterlimit="10" d="M-156.7,13.8v12.1c-3.4-1.6-7.6-3.6-12.4-6
				C-164.9,17.8-160.7,15.8-156.7,13.8z"/>
			<path id="XMLID_767_" fill="none" stroke="#7D7D7D" stroke-miterlimit="10" d="M-200.6-21.2c4.3-2.1,8.4-4.1,12.3-6
				c5.3,2.6,10.5,5.1,15.6,7.6c-3.9,1.9-8,3.9-12.3,6C-190-16-195.2-18.6-200.6-21.2z"/>
			<path id="XMLID_766_" fill="none" stroke="#7D7D7D" stroke-miterlimit="10" d="M-258-23.4c4.8-2.3,9.6-4.7,14.3-7
				c5.3,2.6,10.6,5.2,15.8,7.7c-4.7,2.3-9.5,4.6-14.4,6.9C-247.5-18.3-252.8-20.9-258-23.4z"/>
			<path id="XMLID_765_" fill="none" stroke="#7D7D7D" stroke-miterlimit="10" d="M-255.6-9.3c-5.2-2.6-10.5-5.1-15.7-7.7
				c4.4-2.1,8.8-4.3,13.2-6.5c5.2,2.6,10.5,5.1,15.7,7.7C-246.7-13.6-251.1-11.5-255.6-9.3z"/>
			<path id="XMLID_764_" fill="none" stroke="#7D7D7D" stroke-miterlimit="10" d="M-284.9-23.7c4.4-2.1,8.8-4.3,13.2-6.5
				c4.5,2.2,9.1,4.4,13.6,6.7c-4.4,2.2-8.8,4.3-13.2,6.5C-275.8-19.2-280.4-21.5-284.9-23.7z"/>
			<path id="XMLID_763_" fill="none" stroke="#7D7D7D" stroke-miterlimit="10" d="M-286-9.8c-4.7-2.3-9.2-4.5-13.7-6.7
				c4.8-2.3,9.7-4.8,14.8-7.2c4.5,2.2,9,4.4,13.7,6.7C-276.2-14.5-281.1-12.1-286-9.8z"/>
			<path id="XMLID_762_" fill="none" stroke="#7D7D7D" stroke-miterlimit="10" d="M-271.2-17c5.2,2.5,10.4,5.1,15.7,7.7
				c-5,2.4-9.9,4.8-14.9,7.2c-5.3-2.6-10.5-5.1-15.6-7.6C-281.1-12.1-276.2-14.5-271.2-17z"/>
			<path id="XMLID_761_" fill="none" stroke="#7D7D7D" stroke-miterlimit="10" d="M-172.7-19.6c4.7,2.3,9.3,4.5,13.6,6.6
				c-3.8,1.9-8,3.9-12.3,6c-4.4-2.1-8.9-4.3-13.6-6.6C-180.7-15.7-176.5-17.7-172.7-19.6z"/>
			<path id="XMLID_760_" fill="none" stroke="#7D7D7D" stroke-miterlimit="10" d="M-200.6-21.2c-5-2.4-10.1-4.9-15.2-7.4
				c4.3-2.1,8.4-4.1,12.4-6c5.1,2.5,10.1,5,15.1,7.4C-192.1-25.3-196.3-23.2-200.6-21.2z"/>
			<path id="XMLID_759_" fill="none" stroke="#7D7D7D" stroke-miterlimit="10" d="M-227.9-22.7c4.1-2,8.2-4,12.2-5.9
				c5.1,2.5,10.2,5,15.2,7.4c-3.9,1.9-8,3.9-12.1,5.9C-217.7-17.7-222.8-20.2-227.9-22.7z"/>
			<path id="XMLID_758_" fill="none" stroke="#7D7D7D" stroke-miterlimit="10" d="M-211.4-0.6c4.7,2.3,9.2,4.5,13.6,6.6
				c-4.3,2.1-8.7,4.3-13.2,6.5c-4.4-2.1-9-4.4-13.6-6.6C-220.1,3.6-215.7,1.5-211.4-0.6z"/>
			<path id="XMLID_757_" fill="none" stroke="#7D7D7D" stroke-miterlimit="10" d="M-239.4,13c4.6,2.3,9.2,4.5,13.6,6.6
				c-5.2,2.5-10.3,5.1-15.5,7.6c-4.5-2.2-9-4.4-13.6-6.6C-249.7,18.1-244.5,15.6-239.4,13z"/>
			<path id="XMLID_756_" fill="none" stroke="#7D7D7D" stroke-miterlimit="10" d="M-241.3,27.3c-4.7,2.3-9.4,4.6-14,6.8
				c-4.5-2.2-9-4.4-13.6-6.6c4.6-2.2,9.3-4.5,14-6.8C-250.3,22.9-245.7,25.1-241.3,27.3z"/>
			<path id="XMLID_755_" fill="none" stroke="#7D7D7D" stroke-miterlimit="10" d="M-211,12.5c-4.9,2.4-9.8,4.8-14.8,7.2
				c-4.4-2.2-9-4.4-13.6-6.6c4.9-2.4,9.9-4.8,14.8-7.2C-219.9,8.1-215.4,10.3-211,12.5z"/>
			<path id="XMLID_754_" fill="none" stroke="#7D7D7D" stroke-miterlimit="10" d="M-270.4-2.1c5.1,2.5,10.3,5.1,15.5,7.6
				c-5.2,2.5-10.4,5.1-15.5,7.6c-5.2-2.5-10.4-5.1-15.6-7.6C-280.9,2.9-275.7,0.4-270.4-2.1z"/>
			<path id="XMLID_753_" fill="none" stroke="#7D7D7D" stroke-miterlimit="10" d="M-270.4,13c5.2,2.5,10.4,5.1,15.6,7.6
				c-4.7,2.3-9.4,4.6-14,6.8c-5.1-2.5-10.3-5.1-15.6-7.6C-279.9,17.6-275.2,15.3-270.4,13z"/>
			<path id="XMLID_752_" fill="none" stroke="#7D7D7D" stroke-miterlimit="10" d="M-270.4-2.1c-5.3,2.5-10.5,5.1-15.6,7.5
				c-5.2-2.6-10.4-5.1-15.5-7.6c5-2.4,10.2-5,15.5-7.6C-280.9-7.3-275.7-4.7-270.4-2.1z"/>
			<path id="XMLID_751_" fill="none" stroke="#7D7D7D" stroke-miterlimit="10" d="M-239.4,13c-5.2,2.5-10.4,5.1-15.5,7.6
				c-5.1-2.5-10.3-5.1-15.6-7.6c5.1-2.5,10.3-5,15.5-7.6C-249.7,8-244.5,10.5-239.4,13z"/>
			<path id="XMLID_750_" fill="none" stroke="#7D7D7D" stroke-miterlimit="10" d="M-226.9-8.2c-5.1-2.5-10.2-5-15.3-7.5
				c4.9-2.3,9.7-4.7,14.4-6.9c5.1,2.5,10.2,5,15.2,7.4C-217.3-12.9-222.1-10.6-226.9-8.2z"/>
			<path id="XMLID_749_" fill="none" stroke="#7D7D7D" stroke-miterlimit="10" d="M-312.8,33.7c-3.8,1.9-7.4,3.6-10.8,5.2V28.4
				C-320,30.2-316.4,31.9-312.8,33.7z"/>
			<path id="XMLID_748_" fill="none" stroke="#7D7D7D" stroke-miterlimit="10" d="M-182.4,26.4c5,2.4,9.4,4.6,13.1,6.3
				c-4.4,2.2-9,4.4-13.6,6.6h-2.5c-3.6-1.8-7.6-3.7-11.8-5.7C-192.2,31.2-187.2,28.7-182.4,26.4z"/>
			<path id="XMLID_747_" fill="none" stroke="#7D7D7D" stroke-miterlimit="10" d="M-157.8,38.1c-0.1,0-4.3-2-11.5-5.4
				c4.3-2.1,8.5-4.2,12.6-6.2v11.9c0,0.3,0,0.6,0.1,0.9h-26.3c4.6-2.3,9.1-4.5,13.6-6.6C-162.1,36.1-157.9,38.1-157.8,38.1z"/>
			<path id="XMLID_746_" fill="none" stroke="#7D7D7D" stroke-miterlimit="10" d="M-206.2-48.8c4.6-2.2,8.9-4.4,12.9-6.3
				c5.4,2.6,10.8,5.3,16.1,7.9c-3.9,1.9-8.3,4-13,6.3C-195.5-43.5-200.9-46.2-206.2-48.8z"/>
			<path id="XMLID_745_" fill="none" stroke="#7D7D7D" stroke-miterlimit="10" d="M-175.1-33.6c-4.9-2.4-9.9-4.9-15-7.3
				c4.7-2.3,9.1-4.4,13-6.3c5.1,2.5,10.1,4.9,14.9,7.3C-165.9-38.1-170.3-36-175.1-33.6z"/>
			<path id="XMLID_744_" fill="none" stroke="#7D7D7D" stroke-miterlimit="10" d="M-232.9-49.1c4.5-2.2,8.9-4.3,13.1-6.4
				c4.5,2.2,9.1,4.4,13.6,6.7c-4.2,2-8.5,4.2-13.1,6.4C-223.9-44.6-228.4-46.8-232.9-49.1z"/>
			<path id="XMLID_743_" fill="none" stroke="#7D7D7D" stroke-miterlimit="10" d="M-206.2-48.8c-4.6-2.2-9.1-4.5-13.6-6.7
				c3.4-1.7,6.7-3.3,9.8-4.8h6.2c3.5,1.7,7,3.4,10.5,5.1C-197.3-53.2-201.7-51-206.2-48.8z"/>
			<path id="XMLID_742_" fill="none" stroke="#7D7D7D" stroke-miterlimit="10" d="M-175.1-33.6c4.9-2.4,9.2-4.5,12.9-6.3
				c1.8,0.9,3.7,1.8,5.5,2.7v9.9c-0.9,0.5-1.9,0.9-2.9,1.4C-164.6-28.5-169.8-31-175.1-33.6z"/>
			<path id="XMLID_741_" fill="none" stroke="#7D7D7D" stroke-miterlimit="10" d="M-156.7-42.6v5.3c-1.8-0.9-3.6-1.8-5.5-2.7
				C-160.2-40.9-158.4-41.8-156.7-42.6z"/>
			<path id="XMLID_740_" fill="none" stroke="#7D7D7D" stroke-miterlimit="10" d="M-156.7-42.6c-1.6,0.8-3.4,1.7-5.5,2.7
				c-4.9-2.4-9.9-4.8-14.9-7.3c5.6-2.7,10.4-5,13.9-6.7c2.2,1.1,4.4,2.1,6.5,3.2V-42.6z"/>
			<path id="XMLID_739_" fill="none" stroke="#7D7D7D" stroke-miterlimit="10" d="M-156.7,25.9v0.6c-4.1,2-8.3,4-12.6,6.2
				c-3.6-1.8-8-3.9-13.1-6.3c4.5-2.2,8.9-4.4,13.2-6.5C-164.3,22.3-160.1,24.3-156.7,25.9z"/>
			<path id="XMLID_738_" fill="none" stroke="#7D7D7D" stroke-miterlimit="10" d="M-255.8-60.3h19c-3.1,1.5-6.3,3.1-9.5,4.7
				C-249.5-57.2-252.7-58.7-255.8-60.3z"/>
			<path id="XMLID_737_" fill="none" stroke="#7D7D7D" stroke-miterlimit="10" d="M-258.7-49.6c-4.6-2.2-9-4.4-13.3-6.5
				c3.2-1.6,6.1-3,8.5-4.2h7.6c3.1,1.5,6.3,3.1,9.5,4.7C-250.4-53.6-254.5-51.6-258.7-49.6z"/>
			<path id="XMLID_736_" fill="none" stroke="#7D7D7D" stroke-miterlimit="10" d="M-232.9-49.1c-4.5-2.2-9-4.4-13.4-6.5
				c3.2-1.6,6.4-3.1,9.5-4.7h7.1c3.2,1.6,6.5,3.2,9.8,4.8C-224.1-53.4-228.4-51.2-232.9-49.1z"/>
			<path id="XMLID_735_" fill="none" stroke="#7D7D7D" stroke-miterlimit="10" d="M-163.3-54c3.4-1.6,5.6-2.7,6.5-3.2v6.4
				C-158.9-51.8-161.1-52.9-163.3-54z"/>
			<path id="XMLID_734_" fill="none" stroke="#7D7D7D" stroke-miterlimit="10" d="M-280.5-60.3h17.1c-2.5,1.2-5.3,2.6-8.5,4.2
				C-274.9-57.5-277.7-58.9-280.5-60.3z"/>
			<path id="XMLID_733_" fill="none" stroke="#7D7D7D" stroke-miterlimit="10" d="M-177.1-47.2c-5.3-2.6-10.7-5.2-16.1-7.9
				c3.8-1.9,7.3-3.6,10.5-5.1h6.7c4.3,2.1,8.6,4.2,12.9,6.3C-166.8-52.3-171.5-50-177.1-47.2z"/>
			<path id="XMLID_732_" fill="none" stroke="#7D7D7D" stroke-miterlimit="10" d="M-156.7-57.1c-0.9,0.4-3.2,1.5-6.5,3.2
				c-4.3-2.1-8.6-4.2-12.9-6.3h19.4c0,0,0,0.1,0,0.1V-57.1z"/>
			<path id="XMLID_731_" fill="none" stroke="#7D7D7D" stroke-miterlimit="10" d="M-323.6-60.3h4.6c-1.3,0.6-2.9,1.4-4.6,2.2V-60.3z
				"/>
			<path id="XMLID_730_" fill="none" stroke="#7D7D7D" stroke-miterlimit="10" d="M-284.1-50.2c-5-2.5-9.8-4.8-14.3-7
				c2.5-1.3,4.7-2.3,6.2-3.1h11.7c2.8,1.4,5.6,2.8,8.5,4.2C-275.6-54.3-279.7-52.3-284.1-50.2z"/>
			<path id="XMLID_729_" fill="none" stroke="#7D7D7D" stroke-miterlimit="10" d="M-304.7-60.3h12.5c-1.5,0.8-3.7,1.8-6.2,3.1
				C-300.6-58.2-302.7-59.3-304.7-60.3z"/>
			<path id="XMLID_728_" fill="none" stroke="#7D7D7D" stroke-miterlimit="10" d="M-312.5-50.1c-3.9-1.9-7.6-3.7-11-5.4V-58
				c1.7-0.8,3.2-1.6,4.6-2.2h14.3c2,1,4.1,2,6.3,3.1C-302.3-55.2-307.2-52.8-312.5-50.1z"/>
			<path id="XMLID_727_" fill="none" stroke="#7D7D7D" stroke-miterlimit="10" d="M-323.6,8.6c2.6-1.3,5.3-2.6,8.1-3.9
				c5,2.5,10.2,5,15.4,7.5c-4.8,2.3-9.5,4.6-13.9,6.7c-3.2-1.6-6.4-3.1-9.6-4.7V8.6z"/>
			<path id="XMLID_726_" fill="none" stroke="#7D7D7D" stroke-miterlimit="10" d="M-182.4,26.4c-4.8,2.4-9.8,4.8-14.8,7.2
				c-4.2-2-8.6-4.2-13.3-6.5c5-2.4,9.9-4.9,14.8-7.2C-190.9,22.2-186.4,24.4-182.4,26.4z"/>
			<path id="XMLID_725_" fill="none" stroke="#7D7D7D" stroke-miterlimit="10" d="M-182.5,13.5c4.8,2.3,9.3,4.5,13.3,6.4
				c-4.3,2.1-8.7,4.3-13.2,6.5c-4.1-2-8.5-4.1-13.3-6.5C-191.2,17.7-186.7,15.6-182.5,13.5z"/>
			<path id="XMLID_724_" fill="none" stroke="#7D7D7D" stroke-miterlimit="10" d="M-210.4,27.2c4.6,2.3,9.1,4.4,13.3,6.5
				c-3.9,1.9-7.8,3.8-11.7,5.7h-7.7c-3-1.5-6.2-3-9.4-4.6C-220.8,32.2-215.6,29.7-210.4,27.2z"/>
			<path id="XMLID_723_" fill="none" stroke="#7D7D7D" stroke-miterlimit="10" d="M-227.9-22.7c-5.3-2.6-10.6-5.2-15.8-7.7
				c4.1-2,8.1-4,12.1-5.9c5.3,2.6,10.6,5.2,15.9,7.8C-219.7-26.6-223.8-24.7-227.9-22.7z"/>
			<path id="XMLID_722_" fill="none" stroke="#7D7D7D" stroke-miterlimit="10" d="M-298.2,26.6c5.2,2.5,10.4,5.1,15.6,7.6
				c-3.6,1.8-7.1,3.5-10.5,5.1h-8.1c-3.8-1.9-7.7-3.8-11.5-5.6C-308.2,31.5-303.4,29.1-298.2,26.6z"/>
			<path id="XMLID_721_" fill="none" stroke="#7D7D7D" stroke-miterlimit="10" d="M-182.5,13.5c4.9-2.4,9.7-4.8,14.3-7
				c4.1,2,7.9,3.9,11.4,5.6v1.8c-4,1.9-8.1,4-12.4,6.1C-173.2,18-177.6,15.8-182.5,13.5z"/>
			<path id="XMLID_720_" fill="none" stroke="#7D7D7D" stroke-miterlimit="10" d="M-323.6,23.5c3.1-1.5,6.2-3,9.6-4.6
				c5.2,2.6,10.5,5.1,15.8,7.7c-5.1,2.5-10,4.9-14.6,7.1c-3.6-1.8-7.2-3.5-10.8-5.3V23.5z"/>
			<path id="XMLID_719_" fill="none" stroke="#7D7D7D" stroke-miterlimit="10" d="M-314,18.9c-3.3,1.6-6.5,3.1-9.6,4.6v-9.3
				C-320.4,15.7-317.2,17.3-314,18.9z"/>
			<path id="XMLID_718_" fill="none" stroke="#7D7D7D" stroke-miterlimit="10" d="M-203.3-34.6c-5.3-2.6-10.6-5.2-16-7.8
				c4.5-2.2,8.9-4.4,13.1-6.4c5.4,2.6,10.7,5.3,16.1,7.9C-194.3-38.9-198.7-36.8-203.3-34.6z"/>
			<path id="XMLID_717_" fill="none" stroke="#7D7D7D" stroke-miterlimit="10" d="M-231.6-36.3c4.2-2.1,8.3-4.1,12.3-6
				c5.3,2.6,10.7,5.2,16,7.8c-4,1.9-8.1,3.9-12.4,6C-221-31.1-226.3-33.8-231.6-36.3z"/>
			<path id="XMLID_716_" fill="none" stroke="#7D7D7D" stroke-miterlimit="10" d="M-203.3-34.6c4.6-2.2,9-4.4,13.1-6.4
				c5.1,2.5,10.1,4.9,15,7.3c-4,2-8.4,4.1-13.1,6.4C-193.2-29.6-198.2-32.1-203.3-34.6z"/>
			<path id="XMLID_715_" fill="none" stroke="#7D7D7D" stroke-miterlimit="10" d="M-172.7-19.6c4.8-2.3,9.2-4.5,13.1-6.4
				c1,0.5,1.9,0.9,2.9,1.4v10.5c-0.8,0.4-1.5,0.7-2.3,1.1C-163.4-15.1-167.9-17.3-172.7-19.6z"/>
			<path id="XMLID_714_" fill="none" stroke="#7D7D7D" stroke-miterlimit="10" d="M-156.7-14.1v2.2c-0.8-0.4-1.5-0.7-2.3-1.1
				C-158.3-13.4-157.5-13.7-156.7-14.1z"/>
			<path id="XMLID_713_" fill="none" stroke="#7D7D7D" stroke-miterlimit="10" d="M-159-13c0.8,0.4,1.5,0.7,2.3,1.1V0.2
				c-4.5-2.2-9.4-4.6-14.6-7.1C-167-9.1-162.9-11.1-159-13z"/>
			<path id="XMLID_712_" fill="none" stroke="#7D7D7D" stroke-miterlimit="10" d="M-172.7-19.6c-5-2.5-10.2-5-15.6-7.6
				c4.7-2.3,9-4.4,13.1-6.4c5.3,2.6,10.5,5.1,15.6,7.6C-163.5-24.1-167.9-21.9-172.7-19.6z"/>
			<path id="XMLID_711_" fill="none" stroke="#7D7D7D" stroke-miterlimit="10" d="M-312.5-50.1c5.3-2.6,10.2-5.1,14.2-7
				c4.5,2.2,9.3,4.6,14.3,7c-4.5,2.2-9.4,4.6-14.3,7C-303.3-45.6-308.1-47.9-312.5-50.1z"/>
			<path id="XMLID_710_" fill="none" stroke="#7D7D7D" stroke-miterlimit="10" d="M-311.6-36.7c-4.2-2.1-8.2-4-12-5.9v-2
				c3.7-1.9,7.5-3.7,11-5.5c4.4,2.2,9.2,4.5,14.2,6.9C-302.7-41-307.2-38.9-311.6-36.7z"/>
			<path id="XMLID_709_" fill="none" stroke="#7D7D7D" stroke-miterlimit="10" d="M-285.1-36.7c-4.6-2.2-9-4.4-13.3-6.5
				c4.9-2.4,9.7-4.8,14.3-7c4.3,2.1,8.7,4.3,13.3,6.5C-275.6-41.3-280.4-39-285.1-36.7z"/>
			<path id="XMLID_708_" fill="none" stroke="#7D7D7D" stroke-miterlimit="10" d="M-323.6-55.5c3.4,1.7,7.1,3.5,11,5.4
				c-3.6,1.8-7.3,3.6-11,5.5V-55.5z"/>
			<path id="XMLID_707_" fill="none" stroke="#7D7D7D" stroke-miterlimit="10" d="M-284.1-50.2c4.4-2.1,8.4-4.1,12.1-5.9
				c4.3,2.1,8.8,4.3,13.3,6.5c-4,2-8.1,3.9-12.1,5.9C-275.3-45.9-279.8-48.1-284.1-50.2z"/>
			<path id="XMLID_706_" fill="none" stroke="#7D7D7D" stroke-miterlimit="10" d="M-258.7-49.6c4.2-2,8.3-4.1,12.4-6
				c4.4,2.1,8.9,4.3,13.4,6.5c-4,2-8.2,4-12.4,6C-249.8-45.2-254.3-47.4-258.7-49.6z"/>
			<path id="XMLID_705_" fill="none" stroke="#7D7D7D" stroke-miterlimit="10" d="M-257.4-37.1c-4.5-2.2-9-4.4-13.4-6.6
				c4-2,8.1-4,12.1-5.9c4.4,2.1,8.9,4.3,13.4,6.6C-249.3-41.1-253.3-39.1-257.4-37.1z"/>
			<path id="XMLID_704_" fill="none" stroke="#7D7D7D" stroke-miterlimit="10" d="M-323.6-13c2.7,1.3,5.5,2.7,8.4,4.1
				c-2.9,1.4-5.7,2.8-8.4,4.1V-13z"/>
			<path id="XMLID_703_" fill="none" stroke="#7D7D7D" stroke-miterlimit="10" d="M-231.6-36.3c-4.6-2.2-9.1-4.5-13.6-6.7
				c4.2-2,8.3-4.1,12.4-6c4.5,2.2,9.1,4.4,13.6,6.7C-223.3-40.4-227.4-38.4-231.6-36.3z"/>
			<path id="XMLID_702_" fill="none" stroke="#7D7D7D" stroke-miterlimit="10" d="M-315.5,4.7c-2.8,1.4-5.5,2.7-8.1,3.9V0.7
				C-320.9,2-318.2,3.3-315.5,4.7z"/>
			<path id="XMLID_701_" fill="none" stroke="#7D7D7D" stroke-miterlimit="10" d="M-323.6-42.6c3.8,1.9,7.8,3.8,12,5.9
				c-4.1,2-8.1,4-12,5.8V-42.6z"/>
			<path id="XMLID_700_" fill="none" stroke="#7D7D7D" stroke-miterlimit="10" d="M-323.6-28.2c3.3,1.6,6.9,3.4,10.5,5.1
				c-3.7,1.8-7.2,3.5-10.5,5.1V-28.2z"/>

				<path id="XMLID_699_" fill="#BCC1C4" stroke="#4C494A" stroke-linecap="round" stroke-linejoin="round" stroke-miterlimit="10" d="
				M-147.5,38.4c0,2.2-1.8,4-4,4h-1.2c-1.9,0-3.5-1.3-3.9-3.1h0.1V26.4V26V13.7v-1.6V0.7V0.3v-12.1v-2.5v-10.3v-3v-9.6v-5.6v-7.9
				v-6.6v-3h-0.2c0.1-2.2,1.8-3.9,4-3.9h1.2c2.2,0,4,1.8,4,4V38.4z"/>

				<path id="XMLID_698_" fill="#BCC1C4" stroke="#4C494A" stroke-linecap="round" stroke-linejoin="round" stroke-miterlimit="10" d="
				M-156.7,0.2c0.1,0,0.2,0.1,0.3,0.1v0.4c-0.1,0-0.2,0.1-0.3,0.1V0.2z"/>

				<path id="XMLID_697_" fill="#BCC1C4" stroke="#4C494A" stroke-linecap="round" stroke-linejoin="round" stroke-miterlimit="10" d="
				M-156.7,0.9c0.1,0,0.2-0.1,0.3-0.1v11.4c-0.1,0-0.2-0.1-0.3-0.1V0.9z"/>

				<path id="XMLID_696_" fill="#BCC1C4" stroke="#4C494A" stroke-linecap="round" stroke-linejoin="round" stroke-miterlimit="10" d="
				M-156.7-27.4c0.1,0,0.2-0.1,0.3-0.1v3c-0.1,0-0.2-0.1-0.3-0.1V-27.4z"/>

				<path id="XMLID_695_" fill="#BCC1C4" stroke="#4C494A" stroke-linecap="round" stroke-linejoin="round" stroke-miterlimit="10" d="
				M-156.7,13.8c0.1,0,0.2-0.1,0.3-0.1V26c-0.1,0-0.2-0.1-0.3-0.1V13.8z"/>

				<path id="XMLID_694_" fill="#BCC1C4" stroke="#4C494A" stroke-linecap="round" stroke-linejoin="round" stroke-miterlimit="10" d="
				M-156.7,26.5c0.1,0,0.2-0.1,0.3-0.1v12.9h-0.1c-0.1-0.3-0.1-0.6-0.1-0.9V26.5z"/>

				<path id="XMLID_693_" fill="#BCC1C4" stroke="#4C494A" stroke-linecap="round" stroke-linejoin="round" stroke-miterlimit="10" d="
				M-156.7-37.3c0.1,0,0.2,0.1,0.3,0.1v9.6c-0.1,0-0.2,0.1-0.3,0.1V-37.3z"/>

				<path id="XMLID_692_" fill="#BCC1C4" stroke="#4C494A" stroke-linecap="round" stroke-linejoin="round" stroke-miterlimit="10" d="
				M-156.7-42.6c0.1,0,0.2-0.1,0.3-0.1v5.6c-0.1,0-0.2-0.1-0.3-0.1V-42.6z"/>

				<path id="XMLID_691_" fill="#BCC1C4" stroke="#4C494A" stroke-linecap="round" stroke-linejoin="round" stroke-miterlimit="10" d="
				M-156.7-50.8c0.1,0,0.2,0.1,0.3,0.1v7.9c-0.1,0-0.2,0.1-0.3,0.1V-50.8z"/>

				<path id="XMLID_690_" fill="#BCC1C4" stroke="#4C494A" stroke-linecap="round" stroke-linejoin="round" stroke-miterlimit="10" d="
				M-156.7,25.9c0.1,0,0.2,0.1,0.3,0.1v0.4c-0.1,0-0.2,0.1-0.3,0.1V25.9z"/>

				<path id="XMLID_689_" fill="#BCC1C4" stroke="#4C494A" stroke-linecap="round" stroke-linejoin="round" stroke-miterlimit="10" d="
				M-156.7-57.1c0.1,0,0.2-0.1,0.3-0.1v6.6c-0.1,0-0.2-0.1-0.3-0.1V-57.1z"/>

				<path id="XMLID_688_" fill="#BCC1C4" stroke="#4C494A" stroke-linecap="round" stroke-linejoin="round" stroke-miterlimit="10" d="
				M-156.5-57.2c-0.1,0-0.2,0.1-0.3,0.1v-3c0,0,0-0.1,0-0.1h0.2V-57.2z"/>

				<path id="XMLID_687_" fill="#BCC1C4" stroke="#4C494A" stroke-linecap="round" stroke-linejoin="round" stroke-miterlimit="10" d="
				M-156.7,12c0.1,0,0.2,0.1,0.3,0.1v1.6c-0.1,0-0.2,0.1-0.3,0.1V12z"/>

				<path id="XMLID_686_" fill="#BCC1C4" stroke="#4C494A" stroke-linecap="round" stroke-linejoin="round" stroke-miterlimit="10" d="
				M-156.7-24.6c0.1,0,0.2,0.1,0.3,0.1v10.3c-0.1,0-0.2,0.1-0.3,0.1V-24.6z"/>

				<path id="XMLID_685_" fill="#BCC1C4" stroke="#4C494A" stroke-linecap="round" stroke-linejoin="round" stroke-miterlimit="10" d="
				M-156.7-14.1c0.1,0,0.2-0.1,0.3-0.1v2.5c-0.1,0-0.2-0.1-0.3-0.1V-14.1z"/>

				<path id="XMLID_684_" fill="#BCC1C4" stroke="#4C494A" stroke-linecap="round" stroke-linejoin="round" stroke-miterlimit="10" d="
				M-156.7-11.9c0.1,0,0.2,0.1,0.3,0.1V0.3c-0.1,0-0.2-0.1-0.3-0.1V-11.9z"/>

				<path id="XMLID_683_" fill="#BCC1C4" stroke="#4C494A" stroke-linecap="round" stroke-linejoin="round" stroke-miterlimit="10" d="
				M-323.6,38.9v0.4h-0.8C-324.1,39.2-323.9,39.1-323.6,38.9z"/>
		</g>
	</g>
	<g id="fence_4_">
		<g id="XMLID_2_" opacity="0.65">
			<path id="XMLID_681_" fill="none" stroke="#7D7D7D" stroke-miterlimit="10" d="M318.7-36.7c1.9-0.9,3.8-1.9,5.7-2.8v5.6
				C322.5-34.9,320.6-35.8,318.7-36.7z"/>
			<path id="XMLID_680_" fill="none" stroke="#7D7D7D" stroke-miterlimit="10" d="M324.4-26.6c-2.5,1.2-4.9,2.4-7.3,3.5
				c-4.7-2.3-9.1-4.5-13.3-6.5c4.7-2.3,9.7-4.7,14.8-7.2c1.9,0.9,3.8,1.9,5.7,2.8V-26.6z"/>
			<path id="XMLID_679_" fill="none" stroke="#7D7D7D" stroke-miterlimit="10" d="M317.2-23c2.4-1.2,4.8-2.3,7.3-3.5v7.1
				C322-20.7,319.5-21.9,317.2-23z"/>
			<path id="XMLID_678_" fill="none" stroke="#7D7D7D" stroke-miterlimit="10" d="M324.4,22.9c-2.7-1.3-5.5-2.7-8.2-4
				c2.6-1.3,5.4-2.6,8.2-3.9V22.9z"/>
			<path id="XMLID_677_" fill="none" stroke="#7D7D7D" stroke-miterlimit="10" d="M324.4,9.4c-3.3-1.6-6.5-3.2-9.7-4.7
				c3.1-1.5,6.4-3.1,9.7-4.7V9.4z"/>
			<path id="XMLID_676_" fill="none" stroke="#7D7D7D" stroke-miterlimit="10" d="M315.1-8.9c3-1.5,6.1-3,9.3-4.6v9.1
				C321.3-5.9,318.1-7.4,315.1-8.9z"/>
			<path id="XMLID_675_" fill="none" stroke="#7D7D7D" stroke-miterlimit="10" d="M324.4-13.4c-3.2,1.6-6.3,3.1-9.3,4.6
				c-4.7-2.3-9.2-4.5-13.5-6.6c4.8-2.3,10-4.9,15.5-7.6c2.4,1.2,4.8,2.3,7.3,3.6V-13.4z"/>
			<path id="XMLID_674_" fill="none" stroke="#7D7D7D" stroke-miterlimit="10" d="M324.4-4.3v4.2c-3.3,1.6-6.6,3.2-9.7,4.7
				c-4.7-2.3-9.3-4.5-13.7-6.7c4.3-2.1,9-4.4,14-6.8C318.1-7.4,321.3-5.9,324.4-4.3z"/>
			<path id="XMLID_673_" fill="none" stroke="#7D7D7D" stroke-miterlimit="10" d="M324.4,37.1v2.2h-18.6c3.6-1.7,7.5-3.6,11.6-5.6
				C319.8,34.8,322.1,36,324.4,37.1z"/>
			<path id="XMLID_672_" fill="none" stroke="#7D7D7D" stroke-miterlimit="10" d="M300.9,39.3h-27.6c1.9-0.8,6.8-3.2,14-6.6
				C291.9,34.9,296.4,37.1,300.9,39.3z"/>
			<path id="XMLID_671_" fill="none" stroke="#7D7D7D" stroke-miterlimit="10" d="M301.6,25.9c5.2,2.6,10.5,5.2,15.9,7.8
				c-4.1,2-8,3.9-11.6,5.6h-4.9c-4.6-2.2-9.1-4.4-13.5-6.6C291.5,30.8,296.2,28.5,301.6,25.9z"/>
			<path id="XMLID_670_" fill="none" stroke="#7D7D7D" stroke-miterlimit="10" d="M286.3,18.5c-8.4,4-13.4,6.4-13.5,6.4
				C272.9,24.9,277.9,22.5,286.3,18.5c5,2.4,10.1,4.9,15.3,7.5c-5.3,2.6-10.1,4.8-14.2,6.8c-5-2.5-9.9-4.9-14.7-7.2V11.8
				C277.1,14,281.6,16.2,286.3,18.5z"/>
			<path id="XMLID_669_" fill="none" stroke="#7D7D7D" stroke-miterlimit="10" d="M273.6-2c-0.5,0.2-0.8,0.3-0.8,0.3
				C272.8-1.7,273.1-1.8,273.6-2c4.3,2.1,8.9,4.4,13.6,6.7c-8.9,4.3-14.3,6.9-14.4,6.8c0.1,0,5.5-2.5,14.4-6.8
				c4.5,2.2,9,4.4,13.7,6.7c-5.6,2.7-10.5,5.1-14.6,7.1c-4.7-2.3-9.2-4.5-13.6-6.7V-2.4C273-2.3,273.3-2.2,273.6-2z"/>
			<path id="XMLID_668_" fill="none" stroke="#7D7D7D" stroke-miterlimit="10" d="M272.7,25.5c4.8,2.3,9.7,4.7,14.7,7.2
				c-7.2,3.4-12.2,5.8-14,6.6h-0.8c0.1-0.3,0.1-0.6,0.1-0.9V25.5z"/>
			<path id="XMLID_667_" fill="none" stroke="#7D7D7D" stroke-miterlimit="10" d="M287.5-8.7c-7.2,3.4-12.1,5.8-14,6.6
				c-0.3-0.1-0.6-0.3-0.9-0.4v-12.2c0.2-0.1,0.7-0.3,1.4-0.6C278.3-13.2,282.8-11,287.5-8.7z"/>
			<path id="XMLID_666_" fill="none" stroke="#7D7D7D" stroke-miterlimit="10" d="M272.7-14.6v-1.3c0.5,0.2,0.9,0.5,1.4,0.7
				C273.4-14.9,272.9-14.7,272.7-14.6z"/>
			<path id="XMLID_665_" fill="none" stroke="#7D7D7D" stroke-miterlimit="10" d="M297-60.3h14.2c-2,1-4.4,2.2-7.1,3.5
				C301.5-58,299.2-59.2,297-60.3z"/>
			<path id="XMLID_664_" fill="none" stroke="#7D7D7D" stroke-miterlimit="10" d="M272.7-44.8v-14.4c0.8,0.4,3.3,1.6,7.3,3.6
				c-3.4,1.7-6.7,3.2-7,3.1c0.3,0.1,3.6-1.4,7-3.1c2.9,1.4,6.6,3.2,10.9,5.3c-6,2.9-11.5,5.5-15,7.1
				C274.6-43.9,273.5-44.4,272.7-44.8z"/>
			<path id="XMLID_663_" fill="none" stroke="#7D7D7D" stroke-miterlimit="10" d="M272.7-29.6v-12.2c0.4-0.1,1.5-0.6,3.2-1.4
				c3.3,1.6,8.1,4,14,6.9c-7.1,3.5-13,6.3-15.6,7.5C273.8-29.1,273.2-29.4,272.7-29.6z"/>
			<path id="XMLID_662_" fill="none" stroke="#7D7D7D" stroke-miterlimit="10" d="M272.7-44.8c0.8,0.4,1.9,0.9,3.2,1.6
				c-1.7,0.8-2.8,1.3-3.2,1.4V-44.8z"/>
			<path id="XMLID_661_" fill="none" stroke="#7D7D7D" stroke-miterlimit="10" d="M290.9-50.3c-4.3-2.1-8-3.9-10.9-5.3
				c4.1-2,8.6-4.3,8.6-4.3s-4.4,2.3-8.6,4.3c-4-1.9-6.5-3.2-7.3-3.6v-0.9c0,0,0-0.1,0-0.1H297c2.2,1.1,4.5,2.2,7.1,3.5
				C300-54.8,295.3-52.5,290.9-50.3z"/>
			<path id="XMLID_660_" fill="none" stroke="#7D7D7D" stroke-miterlimit="10" d="M272.7-15.9v-13.7c0.5,0.3,1.1,0.5,1.6,0.8
				c-0.9,0.4-1.5,0.7-1.6,0.6c0.1,0,0.6-0.2,1.6-0.6c4.1,2,8.8,4.3,14,6.9c-6.7,3.2-11.8,5.6-14.2,6.7
				C273.6-15.5,273.2-15.7,272.7-15.9z"/>
			<path id="XMLID_659_" fill="none" stroke="#7D7D7D" stroke-miterlimit="10" d="M317.7-50.1c-4.9-2.4-9.5-4.7-13.6-6.7
				c2.7-1.3,5.1-2.5,7.1-3.5h13.2v6.8C322.3-52.4,320-51.3,317.7-50.1z"/>
			<path id="XMLID_658_" fill="none" stroke="#7D7D7D" stroke-miterlimit="10" d="M324.4,9.4v5.5c-2.8,1.3-5.5,2.7-8.2,3.9
				c-5.2-2.5-10.3-5-15.3-7.5c4.3-2.1,8.9-4.3,13.8-6.7C317.9,6.2,321.2,7.8,324.4,9.4z"/>
			<path id="XMLID_657_" fill="none" stroke="#7D7D7D" stroke-miterlimit="10" d="M324.4,37.1c-2.3-1.1-4.7-2.3-7-3.4
				c2.3-1.1,4.6-2.2,7-3.4V37.1z"/>
			<path id="XMLID_656_" fill="none" stroke="#7D7D7D" stroke-miterlimit="10" d="M324.4,22.9v7.4c-2.4,1.2-4.7,2.3-7,3.4
				c-5.3-2.6-10.6-5.2-15.9-7.8c4.5-2.2,9.4-4.5,14.7-7.1C319,20.2,321.7,21.5,324.4,22.9z"/>
			<path id="XMLID_655_" fill="none" stroke="#7D7D7D" stroke-miterlimit="10" d="M300.9,11.4c5,2.5,10.2,5,15.3,7.5
				c-5.2,2.5-10.2,4.9-14.7,7.1c-5.2-2.5-10.3-5-15.3-7.5C290.4,16.5,295.4,14.1,300.9,11.4z"/>
			<path id="XMLID_654_" fill="none" stroke="#7D7D7D" stroke-miterlimit="10" d="M289.9-36.4c-5.9-2.9-10.7-5.2-14-6.9
				c3.4-1.6,9-4.2,15-7.1c4.1,2,8.7,4.3,13.7,6.7C299.5-41.1,294.4-38.6,289.9-36.4z"/>
			<path id="XMLID_653_" fill="none" stroke="#7D7D7D" stroke-miterlimit="10" d="M317.7-50.1c2.3-1.2,4.6-2.3,6.7-3.3v6.6
				C322.1-48,319.9-49.1,317.7-50.1z"/>
			<path id="XMLID_652_" fill="none" stroke="#7D7D7D" stroke-miterlimit="10" d="M324.4-39.5c-1.9,0.9-3.8,1.9-5.7,2.8
				c-5-2.4-9.7-4.7-14.1-6.9c4.4-2.2,8.9-4.4,13.1-6.5c2.2,1.1,4.4,2.2,6.7,3.3V-39.5z"/>
			<path id="XMLID_651_" fill="none" stroke="#7D7D7D" stroke-miterlimit="10" d="M290.9-50.3c4.5-2.2,9.2-4.4,13.2-6.4
				c4.1,2,8.7,4.2,13.6,6.7c-4.2,2.1-8.7,4.3-13.1,6.5C299.6-46.1,294.9-48.4,290.9-50.3z"/>
			<path id="XMLID_650_" fill="none" stroke="#7D7D7D" stroke-miterlimit="10" d="M301.6-15.5c4.3,2.1,8.8,4.3,13.5,6.6
				c-5,2.4-9.7,4.7-14,6.8c-4.7-2.3-9.2-4.5-13.5-6.6C291.6-10.6,296.3-12.9,301.6-15.5z"/>
			<path id="XMLID_649_" fill="none" stroke="#7D7D7D" stroke-miterlimit="10" d="M301-2.1c4.4,2.2,9,4.4,13.7,6.7
				c-4.9,2.4-9.5,4.6-13.8,6.7c-4.7-2.3-9.3-4.5-13.7-6.7C291.2,2.7,295.8,0.5,301-2.1z"/>
			<path id="XMLID_648_" fill="none" stroke="#7D7D7D" stroke-miterlimit="10" d="M301-2.1c-5.2,2.5-9.9,4.8-13.8,6.7
				c-4.7-2.3-9.3-4.5-13.6-6.7c1.8-0.8,6.8-3.2,14-6.6C291.9-6.5,296.4-4.3,301-2.1z"/>
			<path id="XMLID_647_" fill="none" stroke="#7D7D7D" stroke-miterlimit="10" d="M287.5-8.7c-4.7-2.3-9.2-4.5-13.4-6.6
				c2.4-1.1,7.5-3.5,14.2-6.7c4.1,2,8.6,4.2,13.3,6.5C296.3-12.9,291.6-10.6,287.5-8.7z"/>
			<path id="XMLID_646_" fill="none" stroke="#7D7D7D" stroke-miterlimit="10" d="M289.9-36.4c4.5-2.2,9.6-4.7,14.7-7.2
				c4.4,2.1,9.1,4.5,14.1,6.9c-5.1,2.5-10.1,4.9-14.8,7.2C298.8-32,294.1-34.3,289.9-36.4z"/>
			<path id="XMLID_645_" fill="none" stroke="#7D7D7D" stroke-miterlimit="10" d="M288.3-22c-5.2-2.6-9.9-4.9-14-6.9
				c2.6-1.2,8.5-4,15.6-7.5c4.1,2,8.8,4.3,14,6.8C298.2-26.8,292.9-24.2,288.3-22z"/>
			<path id="XMLID_644_" fill="none" stroke="#7D7D7D" stroke-miterlimit="10" d="M288.3-22c4.6-2.2,9.9-4.8,15.6-7.5
				c4.2,2,8.6,4.2,13.3,6.5c-5.5,2.7-10.8,5.2-15.5,7.6C296.9-17.8,292.4-20,288.3-22z"/>

				<path id="XMLID_643_" fill="#BCC1C4" stroke="#4C494A" stroke-linecap="round" stroke-linejoin="round" stroke-miterlimit="10" d="
				M272.4-60.3v99.6h0h0.1c-0.4,1.8-2,3.1-3.9,3.1h-1.2c-2.2,0-4-1.8-4-4v-98.6c0-2.2,1.8-4,4-4h1.2c2.2,0,3.9,1.7,4,3.9H272.4
				L272.4-60.3z"/>

				<polygon id="XMLID_642_" fill="#BCC1C4" stroke="#4C494A" stroke-linecap="round" stroke-linejoin="round" stroke-miterlimit="10" points="
				272.4,-29.8 272.4,-16.1 272.4,-2.6 272.4,11.7 272.4,25.4 272.4,39.3 272.4,39.3 272.4,-60.3 272.4,-60.3 272.4,-59.4
				272.4,-44.9 			"/>

				<path id="XMLID_641_" fill="#BCC1C4" stroke="#4C494A" stroke-linecap="round" stroke-linejoin="round" stroke-miterlimit="10" d="
				M272.7,11.8v13.7c-0.1,0-0.2-0.1-0.3-0.1V11.7C272.5,11.7,272.6,11.8,272.7,11.8z"/>

				<path id="XMLID_640_" fill="#BCC1C4" stroke="#4C494A" stroke-linecap="round" stroke-linejoin="round" stroke-miterlimit="10" d="
				M272.7,11.8c-0.1,0-0.2-0.1-0.3-0.1V-2.6c0.1,0,0.2,0.1,0.3,0.1V11.8z"/>

				<path id="XMLID_639_" fill="#BCC1C4" stroke="#4C494A" stroke-linecap="round" stroke-linejoin="round" stroke-miterlimit="10" d="
				M272.4,25.4c0.1,0,0.2,0.1,0.3,0.1v12.9c0,0.3,0,0.6-0.1,0.9h-0.1V25.4z"/>

				<path id="XMLID_638_" fill="#BCC1C4" stroke="#4C494A" stroke-linecap="round" stroke-linejoin="round" stroke-miterlimit="10" d="
				M272.7-14.6c-0.1,0-0.1,0.1-0.2,0C272.5-14.6,272.6-14.6,272.7-14.6v12.2c-0.1,0-0.2-0.1-0.3-0.1v-13.5c0.1,0,0.2,0.1,0.3,0.1
				V-14.6z"/>

				<path id="XMLID_637_" fill="#BCC1C4" stroke="#4C494A" stroke-linecap="round" stroke-linejoin="round" stroke-miterlimit="10" d="
				M272.4-44.9v-14.4c0,0,0.1,0.1,0.3,0.1v14.4C272.6-44.9,272.5-44.9,272.4-44.9z"/>

				<path id="XMLID_636_" fill="#BCC1C4" stroke="#4C494A" stroke-linecap="round" stroke-linejoin="round" stroke-miterlimit="10" d="
				M272.5-41.8c0,0,0.1,0,0.2,0v12.2c-0.1,0-0.2-0.1-0.3-0.1v-15.2c0.1,0,0.2,0.1,0.3,0.1v3C272.6-41.8,272.6-41.8,272.5-41.8z"/>

				<path id="XMLID_635_" fill="#BCC1C4" stroke="#4C494A" stroke-linecap="round" stroke-linejoin="round" stroke-miterlimit="10" d="
				M272.7-59.3c-0.1-0.1-0.2-0.1-0.3-0.1v-0.9h0.2c0,0,0,0.1,0,0.1V-59.3z"/>
			<path id="XMLID_3_" fill="#BCC1C4" stroke="#4C494A" stroke-linecap="round" stroke-linejoin="round" stroke-miterlimit="10" d="
				M272.7-15.9c-0.1,0-0.2-0.1-0.3-0.1v-13.7c0.1,0,0.2,0.1,0.3,0.1V-15.9z"/>
		</g>
	</g>
</symbol>
<g id="Layer_11">
	<linearGradient id="XMLID_107_" gradientUnits="userSpaceOnUse" x1="324" y1="215.0769" x2="324" y2="-48.6469">
		<stop offset="5.947917e-02" style="stop-color:#B3D7E0"/>
		<stop offset="1" style="stop-color:#80B2E0"/>
	</linearGradient>
	<rect id="XMLID_103_" x="0" fill="url(#XMLID_107_)" width="648" height="243"/>
</g>
<g id="Layer_10">

		<use xlink:href="#fence_final" width="649.8" height="151.3" id="XMLID_16_" x="-324.9" y="-75.6" transform="matrix(1 0 0 -1 323.5812 149.4581)" overflow="visible"/>
</g>
<g id="Layer_2">
	<rect id="XMLID_4_" y="209.3" fill="#90AD76" width="648" height="222.7"/>

		<line id="XMLID_5_" fill="none" stroke="#536837" stroke-linecap="round" stroke-linejoin="round" stroke-miterlimit="10" x1="0" y1="209.3" x2="648" y2="209.3"/>
	<rect id="XMLID_102_" y="214.4" fill="#4B515B" stroke="#32363D" stroke-miterlimit="10" width="648" height="217.6"/>
</g>
<g id="Layer_9">
	<path id="XMLID_112_" fill="#EBEEF2" d="M0,286.6c1.2,0,100.7-12.7,202-25.5c0.1,0,0.2,0.1,0.3,0.1c2.3,0.3,170.4,25.7,267.9,40.9
		c-25.9,10.9-99.5,41.5-141.6,58.9c-0.3,0.1-0.5,0.3-0.8,0.5c-3.5-0.6-6.4-1.2-8.7-1.7C293.4,354.2,3,289.8,0,289.1
		c0,2.1,0,3.9,0,5.8c3,0.7,292.1,65.2,317.9,70.8c25.8,5.6,122.7,17.5,142,17.5c30.2,0,79-1.9,110.9-12.5
		c-12.1,6.2-26.6,11.4-42.7,15.2c-63.3,15.1-141.5,38.1-168.6,46.2c9.5,0,20.2,0,24.4,0c35.5-10.4,94-28,145.7-40.4
		c47.1-11.2,79.1-33.1,85.7-58.4c3.5-13.4-0.7-26.4-11.9-36.7c-26-23.9-70.5-29.1-218-46.3c-16.3-1.9-34.3-4-53.6-6.3l67.1-10.9
		c1.6-0.3,2.7-1.8,2.5-3.4s-1.8-2.7-3.4-2.5l-88.1,14.4C305,242,6.1,279.8,0,280.3 M338.9,363.2c52.9-21.9,131.6-54.6,142.5-59.4
		c28.8,4.5,49.7,7.9,55.3,9.1c27.2,5.6,56.2,17.6,59.1,29.6c1,4.1-1.4,8.4-7,12.8c-25.3,19.8-98.5,21.9-128.8,21.9
		C444.7,377.1,376.6,369.1,338.9,363.2z M609.5,331.7c-1.3,5.1-3.9,10.1-7.7,15c0.3-1.9,0.3-3.8-0.2-5.7
		c-5-21.4-57.7-32.8-63.7-34.1c-21-4.3-243.9-38.1-314.1-48.7c32.9-4.2,63.3-8,86.5-10.9c27.3,3.3,52.3,6.2,74.4,8.7
		c146,17,190,22.2,214.6,44.8C608.9,309.8,612.4,320.4,609.5,331.7z"/>

		<line id="XMLID_109_" fill="#EBEEF2" stroke="#EBEEF2" stroke-width="6" stroke-linecap="round" stroke-linejoin="round" stroke-miterlimit="10" x1="648" y1="254.2" x2="398.8" y2="230"/>
</g>
<g id="Layer_3" display="none">
	<polygon id="XMLID_6_" display="inline" fill="#FFFFFF" points="648,432 -0.1,432.1 -0.1,229.9 648,246.1 	"/>
</g>
<g id="Layer_4">

		<rect id="XMLID_9_" x="50.6" y="46.2" fill="#666461" stroke="#4C4B49" stroke-linecap="round" stroke-linejoin="round" stroke-miterlimit="10" width="5.9" height="101.7"/>

		<rect id="XMLID_11_" x="57" y="46.2" fill="#87837F" stroke="#5E5B58" stroke-linecap="round" stroke-linejoin="round" stroke-miterlimit="10" width="8.9" height="101.7"/>

		<polygon id="XMLID_7_" fill="#2B2B2B" stroke="#232323" stroke-linecap="round" stroke-linejoin="round" stroke-miterlimit="10" points="
		61.9,271.8 45.6,267.8 45.6,142 61.9,142 	"/>
	<path id="XMLID_8_" fill="#444444" stroke="#232323" stroke-linecap="round" stroke-linejoin="round" stroke-miterlimit="10" d="
		M61.9,142h11.8v124.9l-11.8,4.9C61.9,271.8,61.4,141.5,61.9,142z"/>

		<polygon id="XMLID_10_" fill="#D9E8E8" stroke="#717C7B" stroke-linecap="round" stroke-linejoin="round" stroke-miterlimit="10" points="
		150,107.4 53.1,103.5 53.5,19.3 150,36.9 	"/>
	<path id="XMLID_12_" fill="#AFBFBE" stroke="#717C7B" stroke-linecap="round" stroke-linejoin="round" stroke-miterlimit="10" d="
		M53.5,19.3L47.1,20v83.5h6.1C53.1,103.5,53.5,18.6,53.5,19.3z"/>
	<g id="XMLID_105_">

			<path id="XMLID_115_" fill="#C44747" stroke="#99312E" stroke-linecap="round" stroke-linejoin="round" stroke-miterlimit="10" d="
			M86.9,53.3L86,91.9l50.3,2l0.8-36.3L86.9,53.3z M132.1,90.5l-41.8-1.7l0.8-32l41.6,3.6L132.1,90.5z"/>
	</g>
	<path id="XMLID_17_" fill="none" stroke="#FFFEFD" stroke-linecap="round" stroke-linejoin="round" stroke-miterlimit="10" d="
		M99.5,97.8c3.2,6.6,6.8,34.5,7.5,40.5c3.2-6.8,7.7-5.9,9.3-0.2c2.4-6.4,10.5-8.4,12.1,0.2c2.2-6.4,4.5-10.5,6.7-0.1
		c2-34.1,8.2-42.3,8.2-42.3S129.3,107.2,99.5,97.8z"/>
	<path id="XMLID_20_" fill="none" stroke="#FFFEFD" stroke-linecap="round" stroke-linejoin="round" stroke-miterlimit="10" d="
		M103.7,116.2c6.4,7.4,29.2,11.8,32.1,11.5"/>
	<path id="XMLID_23_" fill="none" stroke="#FFFEFD" stroke-linecap="round" stroke-linejoin="round" stroke-miterlimit="10" d="
		M105.2,125c4,4.3,15.9,7.4,15.9,7.4"/>
	<path id="XMLID_24_" fill="none" stroke="#FFFEFD" stroke-linecap="round" stroke-linejoin="round" stroke-miterlimit="10" d="
		M110.9,133.8c4.5-2.7,16.5-8.8,26-16.1c-9.7,1.9-33.6-8.5-36.4-16.6"/>
	<g id="XMLID_13_">

			<path id="XMLID_117_" fill="#CC793B" stroke="#7C4314" stroke-linecap="round" stroke-linejoin="round" stroke-miterlimit="10" d="
			M121.4,88.3c-12.9,0-23.4,3-23.4,6.7s10.5,6.7,23.4,6.7s23.4-3,23.4-6.7S134.3,88.3,121.4,88.3z M121.6,99.3
			c-11.5,0-20.7-2-20.7-4.5c0-2.5,9.3-4.5,20.7-4.5c11.5,0,20.7,2,20.7,4.5C142.3,97.3,133,99.3,121.6,99.3z"/>
	</g>
	<path id="XMLID_19_" fill="none" stroke="#FFFEFD" stroke-linecap="round" stroke-linejoin="round" stroke-miterlimit="10" d="
		M105.9,128.6c6.5-3.2,27.7-16.7,33.4-21.8"/>
	<path id="XMLID_25_" fill="none" stroke="#FFFEFD" stroke-linecap="round" stroke-linejoin="round" stroke-miterlimit="10" d="
		M104.3,117.1c4.9-3,19.8-9.8,29.2-16.9c1.6-1.2,6.5,4.3,6.5,4.3"/>
	<path id="XMLID_22_" fill="none" stroke="#FFFEFD" stroke-linecap="round" stroke-linejoin="round" stroke-miterlimit="10" d="
		M103.1,108.3c3.6-1.6,13.1-6.6,13.1-6.6c6.2,6.2,22.2,8.2,22.2,8.2"/>
	<path id="XMLID_21_" fill="none" stroke="#FFFEFD" stroke-linecap="round" stroke-linejoin="round" stroke-miterlimit="10" d="
		M136.5,124.5c-2.5,2.5-10.5,9-10.5,9"/>
</g>
<g id="Layer_5">

		<circle id="XMLID_18_" fill="#DD6B31" stroke="#7F2B06" stroke-linecap="round" stroke-linejoin="round" stroke-miterlimit="10" cx="122.3" cy="56" r="20.2"/>
	<path id="XMLID_26_" fill="none" stroke="#0C0C0C" stroke-linecap="round" stroke-linejoin="round" stroke-miterlimit="10" d="
		M106.5,43.2c4.7-1.6,12.6,4,17.3,11c5.4,8,17.1,8,18.4,3.1"/>
	<path id="XMLID_27_" fill="none" stroke="#0C0C0C" stroke-linecap="round" stroke-linejoin="round" stroke-miterlimit="10" d="
		M135.1,71.2c-2.9-3.7-11.8-4-15.8-2.1s-12.1-0.1-13.4-1.6"/>
	<path id="XMLID_29_" fill="none" stroke="#0C0C0C" stroke-linecap="round" stroke-linejoin="round" stroke-miterlimit="10" d="
		M102.7,49.9c0.9,4.6,24.8,19.1,38.1,15.1"/>
	<path id="XMLID_28_" fill="none" stroke="#0C0C0C" stroke-linecap="round" stroke-linejoin="round" stroke-miterlimit="10" d="
		M118.6,75.9c8.4-1.4,18.3-10,18-24.5c-0.3-12.8-13.8-15.6-13.8-15.6"/>
	<path id="XMLID_31_" fill="none" stroke="#0C0C0C" stroke-linecap="round" stroke-linejoin="round" stroke-miterlimit="10" d="
		M106.2,35.8c-4.7,1.7-9,6.9-9.4,12.6"/>
	<path id="XMLID_32_" fill="none" stroke="#0C0C0C" stroke-linecap="round" stroke-linejoin="round" stroke-miterlimit="10" d="
		M101.1,33.3c-5.3,2.3-6.1,5.9-6.6,7.4"/>
	<path id="XMLID_33_" fill="none" stroke="#0C0C0C" stroke-linecap="round" stroke-linejoin="round" stroke-miterlimit="10" d="
		M127.9,81c7.1-0.9,14.1-7.9,14.7-9"/>
	<path id="XMLID_34_" fill="none" stroke="#0C0C0C" stroke-linecap="round" stroke-linejoin="round" stroke-miterlimit="10" d="
		M144.2,76.7c-0.4,1.6-7.9,6.3-9.6,6.1"/>
</g>
<g id="Layer_6">
	<path id="XMLID_37_" fill="#D39D79" stroke="#753B27" stroke-linecap="round" stroke-linejoin="round" stroke-miterlimit="10" d="
		M129.3,201.6c-0.8,4.5-1.7,9.5-1.7,9.5c-5.2-0.4-12.6-1-23.8,3.7s-32.5,17.6-36.2,21.9c-3.7,4.3-6.6,23.6,2.5,40.3
		c-6.8,11-6,30,0.6,26.3c6.6-3.7,8.7-19.6,8.7-19.6c3.3,8.5,7.4,8.9,5.4,2.7c-1.9-6.2-6.8-10.6-6.8-10.6
		c-1.9-14.5-1.4-25.8,4.1-30.8c5.4-5,28.5-6.2,28.5-6.2l41.2,35.6l11.4-40.3c-0.4-5.2-14.9-18.8-14.9-18.8c-3.5-1.2-5.6-2.3-5.6-2.3
		c0.8-3.5,2.7-10.5,2.7-10.5C142.9,201.2,129.5,201.6,129.3,201.6z"/>
	<path id="XMLID_38_" fill="#D39D79" stroke="#753B27" stroke-linecap="round" stroke-linejoin="round" stroke-miterlimit="10" d="
		M69.7,335.4c-5,12.4-24.6,40.3-27.9,44.3c8.9,4.1,10.6,3.5,10.6,3.5c3.9-2.3,29-24.8,36.2-36C91,335,69.7,335.4,69.7,335.4z"/>
	<path id="XMLID_35_" fill="#E8D162" stroke="#93601D" stroke-linecap="round" stroke-linejoin="round" stroke-miterlimit="10" d="
		M119.6,196.2c-1.7-0.8-6-1.2-2.7,2.5c3.3,3.7,11,9.7,16.1,9.1c0-0.6-0.4-2.1-0.4-2.1c3.1,3.5,6.2,3.1,6.2,3.1
		c2.7-0.8,4.5-3.5,4.5-3.5c-0.4,1.2-1,3.3-1,3.3c4.5-2.3,11-6.6,10.3-8.3c-0.8-1.7-3.3-1.2-3.3-1.2c7-1.4,11.2-3.9,10.8-5.8
		c-0.4-1.9-2.1-1.2-2.1-1.2c5.2-4.5,9.5-17.6,1.9-12.8c5.2-19.8-8.9-31.9-12.4-24c-4.1-7.2-7.9-6.8-9.1-4.8s-0.6,5.8-0.6,5.8
		c-1.9-3.9-4.6-1.5-4.6-1.5c-8.5-10.1-15.1-7.7-9.5,3.3c-7.2-1.5-11.2,1.7-5.2,5.6c-10.3-1.2-13.9,0.2-11.8,11
		C101.8,178.4,111.7,195.2,119.6,196.2z"/>
	<path id="XMLID_30_" fill="#E8D162" stroke="#93601D" stroke-linecap="round" stroke-linejoin="round" stroke-miterlimit="10" d="
		M138.6,167.7c0.6-7.6,7.2-8.5,4.3,4.3c6.6-6.6,8.5,7.7,1.9,14.1"/>
	<path id="XMLID_39_" fill="#D39D79" stroke="#753B27" stroke-linecap="round" stroke-linejoin="round" stroke-miterlimit="10" d="
		M133.6,342.7c11.2,13.9,16.3,46.1,15.5,60.2c6.4,6,10.5,1.2,10.5,1.2c2.7-8.3,8.3-47.1-3.1-65.3
		C139.4,337.8,133.6,342.7,133.6,342.7z"/>
	<path id="XMLID_40_" fill="#EAF3F9" stroke="#45494C" stroke-linecap="round" stroke-linejoin="round" stroke-miterlimit="10" d="
		M37.2,385.2c-1.4-3.1,3.5-6.2,3.5-6.2c-1-5,0.2-6.2,3.7-6.4c3.5-0.2,8.7,2.5,10.5,5.4c1.7,2.9,1.9,6.8-1,8.7c-2.9,1.9-5,6.2-7.2,6
		C44.1,392.5,37.2,385.2,37.2,385.2z"/>
	<path id="XMLID_41_" fill="#648293" stroke="#112A42" stroke-linecap="round" stroke-linejoin="round" stroke-miterlimit="10" d="
		M26.8,393.6c2.4-4.6,9-10.7,9-10.7c1.6-0.8,9.6-1.6,12,4.6c2.4,6.2-0.3,15,6.6,20.4c8.7,1.9,15.3,9.6,9.8,11.5
		c-5.5,1.9-10.3,0.5-14.4-1.6S29.4,404.3,26.8,393.6z"/>
	<path id="XMLID_43_" fill="#968A8A" stroke="#3F3939" stroke-linecap="round" stroke-linejoin="round" stroke-miterlimit="10" d="
		M35.7,395.2c-3.3-4.1-9.9-3.3-9.8,1.3c0.2,5.8,8,15.9,13.3,19.4s14.7,4.6,18.5,4.3c-12.3-4.7-11.2-6.2-12.5-9
		C43.9,408.3,39.9,399.1,35.7,395.2z"/>
	<path id="XMLID_44_" fill="#EAF3F9" stroke="#45494C" stroke-linecap="round" stroke-linejoin="round" stroke-miterlimit="10" d="
		M49.7,382.5c2.2,1.7,2.2,5.4,2.2,5.4"/>
	<path id="XMLID_45_" fill="#EAF3F9" stroke="#45494C" stroke-linecap="round" stroke-linejoin="round" stroke-miterlimit="10" d="
		M40.9,378.4c2.1-0.9,5.4,0.6,5.4,0.6"/>
	<path id="XMLID_42_" fill="#EAF3F9" stroke="#45494C" stroke-linecap="round" stroke-linejoin="round" stroke-miterlimit="10" d="
		M147.4,395.6c2.8,1.7,12.5,0.5,15.2-0.2c2.7-0.6,1.6,7.1,0.3,7.3c0.8,3-1.7,7.4-6.6,8.5s-8.8-0.8-9-3.2c-0.5-2.2,0-5.1,0-5.1
		C144.4,401,147.3,395.9,147.4,395.6z"/>
	<path id="XMLID_47_" fill="#648293" stroke="#112A42" stroke-linecap="round" stroke-linejoin="round" stroke-miterlimit="10" d="
		M147,407.2c-1.9,2.2-4.6,9.8-3,15c21.1,4.9,40.1-0.3,43.7-4.7c3.6-4.4-6-7.7-13.3-7.6c-7.3,0.2-3.9-1.1-13.3-1.6
		C150.9,414.6,147,407.2,147,407.2z"/>
	<path id="XMLID_46_" fill="#EAF3F9" stroke="#45494C" stroke-linecap="round" stroke-linejoin="round" stroke-miterlimit="10" d="
		M98,290.2c-3.5,5.1-33.9,45-34.6,45.9c11.5,21.5,33.6,19.3,33.6,19.3c4.3-14,9.8-26.4,9.8-26.4c3.3,0.8,7.3,1.4,7.3,1.4
		c6,13.6,11.4,30.5,11.4,30.5c6.9,3,31.2,0.2,38.4-11.2c-12.8-38-18.8-52.2-18.8-52.2C144.3,297.2,98,290.2,98,290.2z"/>
	<path id="XMLID_49_" fill="#EAF3F9" stroke="#45494C" stroke-linecap="round" stroke-linejoin="round" stroke-miterlimit="10" d="
		M95,319.6c3.3,5.1,11.8,9.5,11.8,9.5"/>
	<path id="XMLID_48_" fill="#3773A5" stroke="#112A42" stroke-linecap="round" stroke-linejoin="round" stroke-miterlimit="10" d="
		M112.4,211.3c-6.2,4.4-13.7,20-12.9,35.4c0.8,15.3-1.9,44.2-4.7,46.2c14.8,19.1,40.9,17.7,51.8,7.6c2.1-12.9,3.2-10.7,5.2-17.2
		s4.7-20.7,4.7-20.7l1.1-4.4c-6.6,5.5-11.7,3.2-12.9,0.8c-1.3-2.4-8-9.8-0.6-26.2s16.7-6.2,16.7-6.2c-8.7-11.2-14-12.6-15.3-13.1
		c-9.3,4.7-17.2,4.9-20.2-3.5C116.6,209.9,112.4,211.3,112.4,211.3z"/>
	<path id="XMLID_36_" fill="#D39D79" stroke="#753B27" stroke-linecap="round" stroke-linejoin="round" stroke-miterlimit="10" d="
		M154.1,223.5c6.6,1.9,10.3,6.6,13.6,15.7c3.3,9.1,13.7,38,52.9,39.5c9.1-5.8,28.3-4.5,31.4,3.9s-8.7,6-15.3,4.6s-14.5-1.5-15.9-3.3
		c-27.9,5.2-53.2,2.3-73.8-35.4"/>
</g>
<g id="Layer_7">
	<path id="XMLID_54_" fill="#C48B65" stroke="#512519" stroke-linecap="round" stroke-linejoin="round" stroke-miterlimit="10" d="
		M281.5,272.5c1.5,17.1,8,35.3,27.1,57.3c6.3,2.8,9.7-1.1,9.7-1.1l-0.4-0.8c-14.2-23.5-16.7-48.9-16.5-51
		C297.5,272,281.1,272.3,281.5,272.5z"/>
	<path id="XMLID_52_" fill="#C48B65" stroke="#512519" stroke-linecap="round" stroke-linejoin="round" stroke-miterlimit="10" d="
		M320.4,265.3c6.8,9.5,46.7,26.2,46.7,26.2c0.2-4.9,0.6-7.2,0.6-7.2c-14.6-13.5-40.8-37.2-40.8-37.2
		C321.5,263.4,320.4,265.3,320.4,265.3z"/>
	<path id="XMLID_61_" fill="#968A8A" stroke="#3F3939" stroke-linecap="round" stroke-linejoin="round" stroke-miterlimit="10" d="
		M281.5,224.3c-4.4,10.5-6.7,52.3-6.7,52.7c14.1,11.1,35.1,3.3,35.1,3.3c-1.5-4.1-2.1-11.6-2.1-11.6c3.4,3.1,8.5,7.7,8.5,7.7
		c1.8-0.3,18.5-11.1,17.8-25.1c-8.8-10.3-18.2-26.3-18.2-26.3C312.6,223.9,281.5,224.3,281.5,224.3z"/>
	<path id="XMLID_51_" fill="#C48B65" stroke="#512519" stroke-linecap="round" stroke-linejoin="round" stroke-miterlimit="10" d="
		M298.3,128.5c-7.9-13.9-16.4-31.2-18.1-32.3c-5.7-13.3-17.6-18.7-22.7-16.7c-5.1,2-7.9,7.4-0.6,9.6c7.4,2.3,15.3,7.7,15.3,7.7
		c2,11.6,16.7,50.7,21.8,52.2c5.1,1.4,10.5-6.8,10.5-6.8L298.3,128.5z"/>
	<path id="XMLID_70_" fill="#EFC748" stroke="#A36216" stroke-linecap="round" stroke-linejoin="round" stroke-miterlimit="10" d="
		M320.1,146.1c3,7.1,5.6,25.9,2.1,31.2c-4.2,3.6-9.4-26.8-9.4-27.5C312.7,149.1,320.1,146.1,320.1,146.1z"/>
	<path id="XMLID_68_" fill="#EFC748" stroke="#A36216" stroke-linecap="round" stroke-linejoin="round" stroke-miterlimit="10" d="
		M291.5,153.2c-10.1,7-17.9,24.4-17.1,41.5c0.8,17.1,5.3,35.3,5.3,35.3c7.9,6.4,29,5.5,40.8-3.1c-7.9-16.7-7.9-21.5-7.4-24.4
		c0.5-2.9,9.4-21.5,9.9-26c0.4-4.5-3.4-23.2-13-22.6C306.3,154.1,291.6,153.4,291.5,153.2z"/>
	<path id="XMLID_50_" fill="#C48B65" stroke="#512519" stroke-linecap="round" stroke-linejoin="round" stroke-miterlimit="10" d="
		M275.6,95.3c-5.4-6.5-5.7-13.6-2-12.5c3.7,1.1,6.5,9.6,5.4,13.3"/>
	<path id="XMLID_53_" fill="#C48B65" stroke="#512519" stroke-linecap="round" stroke-linejoin="round" stroke-miterlimit="10" d="
		M312.4,112.1c-4.2,0.9-9.9,4.4-11.8,12.7c-5.7,2.1-7.6,1.7-7.6,3s-0.6,12.7,2.3,17.4s12.9,10.2,12.9,10.8s8.3,2.8,8.3,2.8
		c1.3-6.3,6.3-10.8,6.3-10.8C334.4,132.4,321.5,112.5,312.4,112.1z"/>
	<path id="XMLID_55_" fill="#D8CECE" stroke="#938989" stroke-linecap="round" stroke-linejoin="round" stroke-miterlimit="10" d="
		M298.2,318.8c3,0,11-2.8,13.5-6.3c4.4,9.3,8.7,14.4,7.6,16.3c-1.1,1.9-7.8,4.7-11.9,2.1C303.1,326.9,298.2,318.8,298.2,318.8z"/>
	<path id="XMLID_56_" fill="#D8CECE" stroke="#938989" stroke-linecap="round" stroke-linejoin="round" stroke-miterlimit="10" d="
		M360,275.4c0.6,3.4-2.7,11.4-4.9,12.7c11.4,5.3,13.3,5.1,13.3,5.1c1.7-1.7,2.8-7.2,2.5-7.8C368,281.8,360,275.4,360,275.4z"/>
	<path id="XMLID_57_" fill="#FFD766" stroke="#A36216" stroke-linecap="round" stroke-linejoin="round" stroke-miterlimit="10" d="
		M370.1,284.3c4,1.7,9.5,5.1,9.5,5.1c2.3,2.5,1.7,18.2-1.7,25.2s-7.3,12-11.9,11.4c-3-0.4-2.7-2.7-0.8-12.1
		c1.9-9.5,2.8-18.1,1.1-20.6C364.5,290.8,370.1,284.3,370.1,284.3z"/>
	<path id="XMLID_59_" fill="#968A8A" stroke="#3F3939" stroke-linecap="round" stroke-linejoin="round" stroke-miterlimit="10" d="
		M380.6,290.8c-2.7-3.4-6,0.1-6.3,4.7c-0.3,4.5,0,18.2-3.1,23s-6.7,7.9-3.3,7.8c3.4-0.1,7.9-1.1,10.8-8.5S385.3,296.7,380.6,290.8z"/>
	<path id="XMLID_58_" fill="#FFD766" stroke="#A36216" stroke-linecap="round" stroke-linejoin="round" stroke-miterlimit="10" d="
		M306.7,331c-5.1,5.3-12.6,9-17.1,8.9c-4.5-0.1-9.9,4.9-4,8.1c5.9,3.1,16.7,4.9,23.8,1.2c7.1-3.7,15.6-11,15.9-12.7
		c-0.3-2.5-6-9.3-6-9.3c0,2.1-5.7,5.4-12,3.8"/>
	<path id="XMLID_60_" fill="#968A8A" stroke="#3F3939" stroke-linecap="round" stroke-linejoin="round" stroke-miterlimit="10" d="
		M315.5,249.8c-2.3,2.3-9.7,7.4-9.7,7.4c1.1,4.2,2.1,12,2.1,12"/>
	<path id="XMLID_63_" fill="#683D35" stroke="#3A1D17" stroke-linecap="round" stroke-linejoin="round" stroke-miterlimit="10" d="
		M317.9,123.8c-2.1,4.1-2.6,11-2.6,11c1.5-1.1,3.3-1.9,3.3-1.9c0.1,0.7-2.6,11.5-2.5,11c0.1-0.5,0.1-0.5,0.1-0.5
		c0.4,4.1,3.7,8.8,3.7,8.8c2.7-0.1,8.9-3.4,9.4-3.8c1.1-1,10.4-3.7,6.8-13.8c5.3-6,2.1-12.3-2.7-10.3c0.5-8.2-2.7-9.4-2.7-9.4
		c-0.7-4-4.2-5.5-4.2-5.5c-0.4,3-0.3,4.4-0.3,4.4c-2.1-6.7-11.6-9.4-11.6-9.4c-1.4,2.9-0.3,5.9-0.3,5.9c-3.8-4.1-9.6-3.4-9.6-3.4
		c-0.1,2.5,2.6,4.7,2.6,4.7c-3.4-0.8-5.6,1.5-5.6,1.5c1.1,3.3,10.3,6.6,12.7,5.8c-1,0.7-2.7,4-2.7,4
		C314.6,123,317.9,123.8,317.9,123.8z"/>
	<path id="XMLID_62_" fill="#C48B65" stroke="#512519" stroke-linecap="round" stroke-linejoin="round" stroke-miterlimit="10" d="
		M316.3,135.6c3.8-5.1,6.2-2.5,6.2,2.1c0,4.5-5.2,7.5-8.4,3.8"/>

		<ellipse id="XMLID_64_" transform="matrix(0.9054 0.4245 -0.4245 0.9054 82.4929 -117.6529)" fill="none" stroke="#0C0C0C" stroke-linecap="round" stroke-linejoin="round" stroke-miterlimit="10" cx="305.3" cy="126.3" rx="0.4" ry="2.3"/>
	<path id="XMLID_66_" fill="none" stroke="#0C0C0C" stroke-linecap="round" stroke-linejoin="round" stroke-miterlimit="10" d="
		M295.7,136.5c4.5,1.8,7.4,1,10.5-0.8"/>
	<path id="XMLID_67_" fill="#C48B65" stroke="#512519" stroke-linecap="round" stroke-linejoin="round" stroke-miterlimit="10" d="
		M305.7,150.6c-17.7-27-37.2-50.2-45.6-56.1c-10-5.2-29.4,10.5-26.2,14s19.4-3.1,23.5-8.4c6.7,4.4,34.6,64.5,34.6,64.5
		C296.3,165.1,309,161.7,305.7,150.6z"/>
	<path id="XMLID_69_" fill="#EFC748" stroke="#A36216" stroke-linecap="round" stroke-linejoin="round" stroke-miterlimit="10" d="
		M314.1,173.6c1.5-16.3-11.5-30.3-11.5-30.3c-8.9,8.9-15.5,16.7-15.5,16.7c2.5,5.3,7.8,17.3,7.8,17.3"/>
	<path id="XMLID_71_" fill="none" stroke="#0C0C0C" stroke-linecap="round" stroke-linejoin="round" stroke-miterlimit="10" d="
		M278.3,81.1c14.1,1,24.4,13.4,24.7,18.5"/>
	<path id="XMLID_72_" fill="none" stroke="#0C0C0C" stroke-linecap="round" stroke-linejoin="round" stroke-miterlimit="10" d="
		M283.1,75.3c7.2,0.7,17.8,8.6,19.6,11"/>
</g>
<g id="Layer_8">
	<path id="XMLID_65_" fill="#35302F" stroke="#604F4C" stroke-linecap="round" stroke-linejoin="round" stroke-miterlimit="10" d="
		M450.4,132c-4.7-7.3-5.2-14.6,3.4-17.2c-2.3-4.8,2.9-5,3.5-2c1.3-9.2,8-6.7,8.7-4.5c1.9-8.9,13-1.7,11.7,2.3
		c7-6.1,10.2,6.3,6.7,8.7c6.8-3.2,9.2,10.2,2.5,13.7s-9.9,14.7-9.9,14.7S450.3,143.5,450.4,132z"/>
	<path id="XMLID_81_" fill="#875B45" stroke="#4C2516" stroke-linecap="round" stroke-linejoin="round" stroke-miterlimit="10" d="
		M455.3,121.5c-1.9-2.8-5.1-0.1-4.9,2.7c0.2,2.8,1,6.6,4.6,6.3"/>
	<path id="XMLID_14_" fill="#932B2B" d="M451.4,139.7c-2.1,5.8,4,16.6,13.6,17.3c9.6,0.6,16.1-12.7,16.1-12.7s-6.2-6-6.8-5.8
		C473.9,138.5,451.4,139.7,451.4,139.7z"/>
	<path id="XMLID_89_" fill="#996B58" stroke="#4C2516" stroke-linecap="round" stroke-linejoin="round" stroke-miterlimit="10" d="
		M462.2,138.4c-0.7,4.1-0.8,11.4,4.4,11.1c5.2-0.3,6.8-10.5,6.7-10.7C473.1,138.5,462.2,138.4,462.2,138.4z"/>
	<path id="XMLID_74_" fill="#996B58" stroke="#4C2516" stroke-linecap="round" stroke-linejoin="round" stroke-miterlimit="10" d="
		M460.9,112.8c-4.5,3.6-9,11.5-7,18.5c2,7,8.7,13.1,16,10.8s10.5-7.7,11.5-10.6c1-2.9,0.9-10.2-2-15
		C477.1,112.5,470.5,107.9,460.9,112.8z"/>
	<path id="XMLID_75_" fill="#996B58" stroke="#4C2516" stroke-linecap="round" stroke-linejoin="round" stroke-miterlimit="10" d="
		M468.5,121.7c-2.1,1.1-2.5,2.1-1.9,4.4"/>
	<path id="XMLID_73_" fill="#B2644F" stroke="#4C1A12" stroke-linecap="round" stroke-linejoin="round" stroke-miterlimit="10" d="
		M466.7,129.6c1.6,1.5,1.8,6.1,0.1,5.6c-1.7-0.5-1.1-4.4-0.4-5.6"/>

		<ellipse id="XMLID_76_" transform="matrix(0.9828 0.1849 -0.1849 0.9828 30.794 -85.4098)" fill="none" stroke="#0C0C0C" stroke-linecap="round" stroke-linejoin="round" stroke-miterlimit="10" cx="473.3" cy="122.4" rx="0.4" ry="1.7"/>

		<ellipse id="XMLID_78_" transform="matrix(0.9828 0.1849 -0.1849 0.9828 30.4166 -83.4217)" fill="none" stroke="#0C0C0C" stroke-linecap="round" stroke-linejoin="round" stroke-miterlimit="10" cx="462.5" cy="121.4" rx="0.4" ry="1.7"/>
	<path id="XMLID_79_" fill="none" stroke="#0C0C0C" stroke-linecap="round" stroke-linejoin="round" stroke-miterlimit="10" d="
		M465.7,115.6c-1.3-0.9-3.3-1.3-4.9,1.4"/>
	<path id="XMLID_80_" fill="none" stroke="#0C0C0C" stroke-linecap="round" stroke-linejoin="round" stroke-miterlimit="10" d="
		M471.8,115.6c1.1-1,2.9-0.7,4.6,2.1"/>
	<path id="XMLID_77_" fill="#996B58" stroke="#4C2516" stroke-linecap="round" stroke-linejoin="round" stroke-miterlimit="10" d="
		M478.7,126.8c2.6-2.7,7.3-3.4,5.6,1.7c-1.7,5.1-4.8,5.1-5.6,4.9"/>
	<path id="XMLID_82_" fill="#996B58" stroke="#4C2516" stroke-linecap="round" stroke-linejoin="round" stroke-miterlimit="10" d="
		M515.3,92.6c0,0-22.1,20.4-33.9,42.3c3.2,5,11.1,5.1,11.1,5.1c2.1-5.9,14.6-29.9,26.6-43"/>
	<path id="XMLID_84_" fill="#996B58" stroke="#4C2516" stroke-linecap="round" stroke-linejoin="round" stroke-miterlimit="10" d="
		M510.1,90.5c-0.8-3.4,5.7-8.2,9.3-4.6c3.6,3.6,6.9,10.6,3.3,14.3C519.1,103.8,511.1,94.6,510.1,90.5z"/>
	<path id="XMLID_85_" fill="#996B58" stroke="#4C2516" stroke-linecap="round" stroke-linejoin="round" stroke-miterlimit="10" d="
		M512,90.1c-3.1-0.3-5.4,2.1-3.8,4.5c1.6,2.4,5.4,5.1,6.6,2.5C516,94.3,512,90.1,512,90.1z"/>
	<path id="XMLID_86_" fill="#996B58" stroke="#4C2516" stroke-linecap="round" stroke-linejoin="round" stroke-miterlimit="10" d="
		M419.4,93.7c3,8.2,18.8,41.7,22.5,46c5.4,3.8,11.4-5.2,11.4-5.2c-4.3-6.9-27.7-43.7-27.7-43.7"/>
	<path id="XMLID_93_" fill="#996B58" stroke="#4C2516" stroke-linecap="round" stroke-linejoin="round" stroke-miterlimit="10" d="
		M441.5,231c-1.7,14.6-3.2,37.1-3.2,37.1c3.6,5,9.3,1.3,9.3,1.3c2.3-12.1,10.1-33.4,10.1-33.7C457.5,235.3,441.5,231,441.5,231z"/>
	<path id="XMLID_83_" fill="#996B58" stroke="#4C2516" stroke-linecap="round" stroke-linejoin="round" stroke-miterlimit="10" d="
		M468.7,233.9c1.4,6.7,6.1,39.2,6.2,42.9c4.7,5.4,9.3,0.5,9.3,0.5c1.7-11.6,0.4-43.3-1-44.6C481.9,231.5,468.7,233.9,468.7,233.9z"/>
	<path id="XMLID_87_" fill="#996B58" stroke="#4C2516" stroke-linecap="round" stroke-linejoin="round" stroke-miterlimit="10" d="
		M414.5,92.4c0,4.8,3.8,5.8,6.1,4.6c2.1-1.1,17.3-10.4,4-15.5C421.3,80.1,414.5,87.6,414.5,92.4z"/>
	<path id="XMLID_88_" fill="#996B58" stroke="#4C2516" stroke-linecap="round" stroke-linejoin="round" stroke-miterlimit="10" d="
		M426.2,88.3c-2.3,1.7-2.9,7.6,0.2,7.1c3.1-0.5,5.1-3.6,5.1-4.6S429.8,85.6,426.2,88.3z"/>
	<path id="XMLID_99_" fill="#332F2F" stroke="#141313" stroke-linecap="round" stroke-linejoin="round" stroke-miterlimit="10" d="
		M447.4,195.4c-1.6,4.1-11.2,35.5-11.2,35.5c5.5,6.4,21.4,8.1,25.1,5.3c0.9-7.2,1.7-11.4,1.7-11.4c1.2,5.6,2,11.7,2,11.7
		c8.3,4.2,20.1,3,23.9-1.9c-3.4-23.3-6.7-38-6.7-38L447.4,195.4z"/>
	<path id="XMLID_90_" fill="#932B2B" stroke="#560E0E" stroke-linecap="round" stroke-linejoin="round" stroke-miterlimit="10" d="
		M459.8,143.2c-2.2-6.5-7.9-16.6-7.9-16.6c-5.9,2.1-12,6.8-15.1,11.2c9.2,16.1,14.4,18.2,14.4,18.2"/>
	<path id="XMLID_92_" fill="#932B2B" stroke="#560E0E" stroke-linecap="round" stroke-linejoin="round" stroke-miterlimit="10" d="
		M452.6,147.6c-5.9,9.1-8.9,32.2-6.8,48.5c12.7,12.1,34.8,7.4,37.7,1.7c-2.2-19.3-1-44-1-44"/>
	<path id="XMLID_91_" fill="#932B2B" stroke="#560E0E" stroke-linecap="round" stroke-linejoin="round" stroke-miterlimit="10" d="
		M472,149.4c2.6-8.1,8.3-19,8.3-19c6,0,14.4,3.9,16.2,10.8c-11.6,13.2-13.9,15.3-15.4,16.1"/>
	<path id="XMLID_97_" fill="#932B2B" stroke="#560E0E" stroke-linecap="round" stroke-linejoin="round" stroke-miterlimit="10" d="
		M438.3,267.3c-2.1,2.5-7.2,5.9-10.9,6.7s-10.6,3.8-7.6,8c3,4.2,21.8,2.5,28-3.9c0.1-7,0.2-8.9,0.2-8.9
		C447.5,269.5,438.3,267.3,438.3,267.3z"/>
	<path id="XMLID_98_" fill="#932B2B" stroke="#560E0E" stroke-linecap="round" stroke-linejoin="round" stroke-miterlimit="10" d="
		M474.1,275.8c-0.1,3.9-0.1,8.6-0.1,8.6c5.9,8.3,23,10.3,26.5,8.4s1.1-4.3-1-6.1c-2.1-1.8-12.7-7-13.8-11.8
		C482.7,278.8,474.1,276,474.1,275.8z"/>
	<path id="XMLID_96_" fill="#332F2F" stroke="#141313" stroke-linecap="round" stroke-linejoin="round" stroke-miterlimit="10" d="
		M457.4,212.4c3.9,2.2,5.6,3.3,5.6,3.3v9.1"/>
	<path id="XMLID_94_" fill="#D8CECE" stroke="#938989" stroke-linecap="round" stroke-linejoin="round" stroke-miterlimit="10" d="
		M438.1,258.3c-1.7,0.8-1.8,4.8-0.6,6.1c-1.1,2.4-0.3,4.9,1,5.5c1.3,0.6,7,3.3,10.4-0.9c0.8-2.5,0.3-3.1,0.3-3.1
		c2.9-1.4,1.9-5.3,1.3-6.1C450,259,441.2,263.2,438.1,258.3z"/>
	<path id="XMLID_95_" fill="#D8CECE" stroke="#938989" stroke-linecap="round" stroke-linejoin="round" stroke-miterlimit="10" d="
		M473.1,265.2c-1.6,1.6-2,5.3,0.5,7.4c-0.5,4.2,0.8,4.8,2.5,5.5c1.7,0.7,8.9,1.1,9.8-2.5c1-3.6-0.1-4.4-0.1-4.4
		c1.6-1.9,0.5-6.2,0.2-6.5C482.3,266.6,476.9,268.3,473.1,265.2z"/>
</g>
</svg>
