<?xml version="1.0" encoding="utf-8"?>
<!-- Generator: Adobe Illustrator 19.0.0, SVG Export Plug-In . SVG Version: 6.00 Build 0)  -->
<!DOCTYPE svg PUBLIC "-//W3C//DTD SVG 1.0//EN" "http://www.w3.org/TR/2001/REC-SVG-20010904/DTD/svg10.dtd">
<svg version="1.0" xmlns="http://www.w3.org/2000/svg" xmlns:xlink="http://www.w3.org/1999/xlink" x="0px" y="0px"
	 viewBox="0 0 648 432" enable-background="new 0 0 648 432" xml:space="preserve">
<symbol  id="flower1" viewBox="-16.3 -15.9 32.6 31.7">
	<path id="XMLID_194_" fill="#7FCFE2" stroke="#3F83A0" stroke-linecap="round" stroke-linejoin="round" stroke-miterlimit="10" d="
		M-8.4,0.6C-20.1,8.9-10.8,19.1-4.5,4C-5,20.6,13,18.1,1.8,2.6c13.1,10.7,21.9-3.9,3.4-5.3c11.2-9.7-3.9-20.9-7.3-3.4
		C-13.3-18.8-23-5.7-8.4,0.6z"/>
</symbol>
<symbol  id="flower2_1_" viewBox="-13 -14.9 26 29.8">
	<path id="XMLID_171_" fill="#EAE7CA" stroke="#C1B985" stroke-linecap="round" stroke-linejoin="round" stroke-miterlimit="10" d="
		M-6.4-1.7C-21.5,12.4-4,24.5-1.6,1.7c7.8,16.5,26.3-4.9,1.9-3.9C4.7-15.8-15.2-21.2-6.4-1.7z"/>
</symbol>
<symbol  id="flower3" viewBox="-9.6 -10.6 19.2 21.1">

		<path id="XMLID_177_" fill="#EAE7CA" stroke="#C1B985" stroke-width="0.7068" stroke-linecap="round" stroke-linejoin="round" stroke-miterlimit="10" d="
		M-1.2,0.8C-1,17.2,14.1,9.4,2.4-1.3c12.9-0.1,4.7-18.3-1.9-2.4C-6.9-10.6-16.3,0.6-1.2,0.8z"/>
</symbol>
<g id="Layer_12">
	<linearGradient id="XMLID_208_" gradientUnits="userSpaceOnUse" x1="324" y1="175.898" x2="324" y2="-35.1834">
		<stop  offset="0" style="stop-color:#DCEFFF"/>
		<stop  offset="1" style="stop-color:#91D3E8"/>
	</linearGradient>
	<rect id="XMLID_128_" fill="url(#XMLID_208_)" width="648" height="257.9"/>
</g>
<g id="Layer_11">
	<rect id="XMLID_122_" y="191.2" fill="#9E6E46" width="648" height="240.8"/>
	<path id="XMLID_161_" fill="#99B775" stroke="#406317" stroke-linecap="round" stroke-linejoin="round" stroke-miterlimit="10" d="
		M540.9,195.2c-18.8-3.3-39.8-1.1-39.8-1.1c15.5,8.3,14.9,12.7,12.7,16c-2.2,3.3-46.4,20.5-3.9,30.4c42.6,10,36.5,19.3,74.1,28.7
		c37.6,9.4,64,8.3,64,8.3s-3.8-40.4-5.4-42C640.9,233.9,540.9,195.2,540.9,195.2"/>
</g>
<g id="Layer_9">
	<path id="XMLID_55_" fill="none" stroke="#683C1A" stroke-miterlimit="10" d="M558.3,377.7c7.3-4,24-8.7,30.7-2.7"/>
	<path id="XMLID_56_" fill="none" stroke="#683C1A" stroke-miterlimit="10" d="M585.7,389c7.3-3.3,18-0.7,20,1.3"/>
	<path id="XMLID_57_" fill="none" stroke="#683C1A" stroke-miterlimit="10" d="M609,379c6-2,18.7-3.3,24.7,0.7"/>
	<path id="XMLID_58_" fill="none" stroke="#683C1A" stroke-miterlimit="10" d="M581.7,353.7c8.7-2.7,24-2.7,31.3,0"/>
	<path id="XMLID_59_" fill="none" stroke="#683C1A" stroke-miterlimit="10" d="M424.3,325.7c13.3-4,34-2.7,39.3,2"/>
	<path id="XMLID_60_" fill="none" stroke="#683C1A" stroke-miterlimit="10" d="M512.3,303c16-6,31.3,1.3,35.3,4.7"/>
	<path id="XMLID_61_" fill="none" stroke="#683C1A" stroke-miterlimit="10" d="M554.3,295.7c6.7-4,20-3.3,21.3-0.7"/>
	<path id="XMLID_66_" fill="none" stroke="#683C1A" stroke-miterlimit="10" d="M270.2,410.7c17.4-8.4,26.9-9,37.1-2.4"/>
	<path id="XMLID_67_" fill="none" stroke="#683C1A" stroke-miterlimit="10" d="M305.6,401.1c14.4-6.6,26.3,0,32.9,4.8"/>
	<path id="XMLID_156_" fill="none" stroke="#683C1A" stroke-miterlimit="10" d="M286.8,365.2c14.4-6.6,26.3,0,32.9,4.8"/>
	<path id="XMLID_68_" fill="none" stroke="#683C1A" stroke-miterlimit="10" d="M334.3,403.5c10.8-4.8,25.7-4.8,31.7,4.2"/>
	<path id="XMLID_159_" fill="none" stroke="#683C1A" stroke-miterlimit="10" d="M411.1,398c10.8-4.8,25.7-4.8,31.7,4.2"/>
	<path id="XMLID_160_" fill="none" stroke="#683C1A" stroke-miterlimit="10" d="M431.6,408c10.8-4.8,25.7-4.8,31.7,4.2"/>
	<path id="XMLID_155_" fill="none" stroke="#683C1A" stroke-miterlimit="10" d="M264.1,357.7c10.8-4.8,25.7-4.8,31.7,4.2"/>
	<path id="XMLID_69_" fill="none" stroke="#683C1A" stroke-miterlimit="10" d="M157.1,420.3c12-6.6,26.3-7.8,32.9-1.2"/>
	<path id="XMLID_157_" fill="none" stroke="#683C1A" stroke-miterlimit="10" d="M10.6,378.3c12-6.6,26.3-7.8,32.9-1.2"/>
	<path id="XMLID_70_" fill="none" stroke="#683C1A" stroke-miterlimit="10" d="M74.4,409.5c16.8-9,25.1-5.4,30.5,0"/>
	<path id="XMLID_158_" fill="none" stroke="#683C1A" stroke-miterlimit="10" d="M26.9,387.4c16.8-9,25.1-5.4,30.5,0"/>
	<path id="XMLID_71_" fill="none" stroke="#683C1A" stroke-miterlimit="10" d="M113,411.9c8.4-2.4,20.1,0.7,23.1,1.9"/>
	<path id="XMLID_72_" fill="none" stroke="#683C1A" stroke-miterlimit="10" d="M17.6,419.1c14.4-6.6,34.7-4.2,41.3-0.6"/>
	<ellipse id="XMLID_65_" fill="#A08D65" stroke="#683C1A" stroke-miterlimit="10" cx="233.4" cy="405.3" rx="4.5" ry="2.4"/>
	<ellipse id="XMLID_73_" fill="#A08D65" stroke="#683C1A" stroke-miterlimit="10" cx="305.3" cy="380.2" rx="3.9" ry="2.4"/>
	<ellipse id="XMLID_74_" fill="#A08D65" stroke="#683C1A" stroke-miterlimit="10" cx="499.3" cy="343.4" rx="4.5" ry="2.7"/>
	<ellipse id="XMLID_75_" fill="#A08D65" stroke="#683C1A" stroke-miterlimit="10" cx="563.9" cy="405.3" rx="6.9" ry="4.8"/>
</g>
<g id="Layer_10">
	<path id="XMLID_78_" fill="none" stroke="#231F20" stroke-linecap="round" stroke-linejoin="round" stroke-miterlimit="10" d="
		M567.8,344.4c2.8-0.3,6.1,2.8,6.4,3.7"/>
	<path id="XMLID_97_" fill="none" stroke="#231F20" stroke-linecap="round" stroke-linejoin="round" stroke-miterlimit="10" d="
		M555.2,333.4c2.8-0.3,6.1,2.8,6.4,3.7"/>
	<path id="XMLID_98_" fill="none" stroke="#231F20" stroke-linecap="round" stroke-linejoin="round" stroke-miterlimit="10" d="
		M562,331.2c2.8-0.3,6.1,2.8,6.4,3.7"/>
	<path id="XMLID_99_" fill="none" stroke="#231F20" stroke-linecap="round" stroke-linejoin="round" stroke-miterlimit="10" d="
		M567.2,329c2.8-0.3,6.1,2.8,6.4,3.7"/>
	<path id="XMLID_100_" fill="none" stroke="#231F20" stroke-linecap="round" stroke-linejoin="round" stroke-miterlimit="10" d="
		M571.1,327.3c2.6-1.1,6.7,0.9,7.2,1.7"/>
	<path id="XMLID_101_" fill="none" stroke="#231F20" stroke-linecap="round" stroke-linejoin="round" stroke-miterlimit="10" d="
		M574.1,324.3c2.3-1.6,6.7-0.4,7.4,0.3"/>
	<path id="XMLID_102_" fill="none" stroke="#231F20" stroke-linecap="round" stroke-linejoin="round" stroke-miterlimit="10" d="
		M573.5,321c1.8-2.1,6.3-2.2,7.2-1.8"/>
	<path id="XMLID_103_" fill="none" stroke="#231F20" stroke-linecap="round" stroke-linejoin="round" stroke-miterlimit="10" d="
		M573,317c1.8-2.1,6.3-2.2,7.2-1.8"/>
	<path id="XMLID_79_" fill="none" stroke="#231F20" stroke-linecap="round" stroke-linejoin="round" stroke-miterlimit="10" d="
		M572.4,341.7c2.8-0.3,6.1,2.8,6.4,3.7"/>
	<path id="XMLID_80_" fill="none" stroke="#231F20" stroke-linecap="round" stroke-linejoin="round" stroke-miterlimit="10" d="
		M579.4,339.2c2.8-0.3,6.1,2.8,6.4,3.7"/>
	<path id="XMLID_81_" fill="none" stroke="#231F20" stroke-linecap="round" stroke-linejoin="round" stroke-miterlimit="10" d="
		M585.9,336.1c2.8-0.3,6.1,2.8,6.4,3.7"/>
	<path id="XMLID_82_" fill="none" stroke="#231F20" stroke-linecap="round" stroke-linejoin="round" stroke-miterlimit="10" d="
		M588,330.9c2.8-0.3,6.1,2.8,6.4,3.7"/>
	<path id="XMLID_83_" fill="none" stroke="#231F20" stroke-linecap="round" stroke-linejoin="round" stroke-miterlimit="10" d="
		M589.5,325.4c2.8-0.3,6.1,2.8,6.4,3.7"/>
	<path id="XMLID_84_" fill="none" stroke="#231F20" stroke-linecap="round" stroke-linejoin="round" stroke-miterlimit="10" d="
		M588.7,315.7c2.8-0.3,6.1,2.8,6.4,3.7"/>
	<path id="XMLID_104_" fill="none" stroke="#231F20" stroke-linecap="round" stroke-linejoin="round" stroke-miterlimit="10" d="
		M588.7,320.6c2.8-0.3,6.1,2.8,6.4,3.7"/>
	<path id="XMLID_85_" fill="none" stroke="#231F20" stroke-linecap="round" stroke-linejoin="round" stroke-miterlimit="10" d="
		M590.5,310.5c2.8-0.3,6.1,2.8,6.4,3.7"/>
	<path id="XMLID_86_" fill="none" stroke="#231F20" stroke-linecap="round" stroke-linejoin="round" stroke-miterlimit="10" d="
		M596,308.2c2.8-0.3,6.1,2.8,6.4,3.7"/>
	<path id="XMLID_87_" fill="none" stroke="#231F20" stroke-linecap="round" stroke-linejoin="round" stroke-miterlimit="10" d="
		M604,306.4c2.8-0.3,6.1,2.8,6.4,3.7"/>
	<path id="XMLID_88_" fill="none" stroke="#231F20" stroke-linecap="round" stroke-linejoin="round" stroke-miterlimit="10" d="
		M611.3,305.2c2.8-0.3,6.1,2.8,6.4,3.7"/>
	<path id="XMLID_89_" fill="none" stroke="#231F20" stroke-linecap="round" stroke-linejoin="round" stroke-miterlimit="10" d="
		M616.8,303.9c2.8-0.3,6.1,2.8,6.4,3.7"/>
	<path id="XMLID_90_" fill="none" stroke="#231F20" stroke-linecap="round" stroke-linejoin="round" stroke-miterlimit="10" d="
		M603.5,293.2c2.8-0.3,6.1,2.8,6.4,3.7"/>
	<path id="XMLID_91_" fill="none" stroke="#231F20" stroke-linecap="round" stroke-linejoin="round" stroke-miterlimit="10" d="
		M596.9,294.1c2.8-0.3,6.1,2.8,6.4,3.7"/>
	<path id="XMLID_92_" fill="none" stroke="#231F20" stroke-linecap="round" stroke-linejoin="round" stroke-miterlimit="10" d="
		M590.1,295.5c2.8-0.3,6.1,2.8,6.4,3.7"/>
	<path id="XMLID_93_" fill="none" stroke="#231F20" stroke-linecap="round" stroke-linejoin="round" stroke-miterlimit="10" d="
		M583.8,297.5c2.8-0.3,6.1,2.8,6.4,3.7"/>
	<path id="XMLID_77_" fill="#894324" stroke="#5E2E13" stroke-linecap="round" stroke-linejoin="round" stroke-miterlimit="10" d="
		M615.3,295.4c-11.7,4-29.4,2.1-35,13.5s5.8,15-4.3,21.5s-25.8,4.9-24.8,15.6c0.9,10.7,13.8,5.2,15.3,1.5s6.1-5.5,12.6-7.1
		c6.4-1.5,11-8.6,10.1-16.6c-0.9-8-0.3-13.8,7.4-15.9c7.7-2.1,18-1.9,23.6-5.5C624.5,299.6,622.4,293.2,615.3,295.4z"/>
	<path id="XMLID_94_" fill="none" stroke="#231F20" stroke-linecap="round" stroke-linejoin="round" stroke-miterlimit="10" d="
		M577.6,300.6c2.8-0.3,6.1,2.8,6.4,3.7"/>
	<path id="XMLID_95_" fill="none" stroke="#231F20" stroke-linecap="round" stroke-linejoin="round" stroke-miterlimit="10" d="
		M573.5,306.5c2.4-1.4,6.7,0,7.4,0.7"/>
	<path id="XMLID_113_" fill="none" stroke="#231F20" stroke-linecap="round" stroke-linejoin="round" stroke-miterlimit="10" d="
		M482.8,390.2c-2.9-4.4-11-4.2-15.6-1.4"/>
	<path id="XMLID_114_" fill="none" stroke="#231F20" stroke-linecap="round" stroke-linejoin="round" stroke-miterlimit="10" d="
		M484.5,386.9c-4.2-6.8-13.6-8.6-15.4-8.5"/>
	<path id="XMLID_115_" fill="none" stroke="#231F20" stroke-linecap="round" stroke-linejoin="round" stroke-miterlimit="10" d="
		M487.9,383.8c-0.8-7-10.5-10.7-11.5-10.5"/>
	<path id="XMLID_96_" fill="none" stroke="#231F20" stroke-linecap="round" stroke-linejoin="round" stroke-miterlimit="10" d="
		M572.2,312.3c2-1.9,6.5-1.6,7.3-1"/>
	<path id="XMLID_105_" fill="none" stroke="#231F20" stroke-linecap="round" stroke-linejoin="round" stroke-miterlimit="10" d="
		M523.3,338.2c3.2-3.7,24.9-7.3,28.7,5.6"/>
	<path id="XMLID_106_" fill="none" stroke="#231F20" stroke-linecap="round" stroke-linejoin="round" stroke-miterlimit="10" d="
		M555.9,347.3c-15.6-1.9-23.9,1.9-25.6,7"/>

		<ellipse id="XMLID_76_" transform="matrix(0.9341 0.357 -0.357 0.9341 169.0719 -156.6183)" fill="#4F5363" stroke="#3B3C49" stroke-linecap="round" stroke-linejoin="round" stroke-miterlimit="10" cx="508.8" cy="379.6" rx="18.3" ry="15"/>

		<ellipse id="XMLID_108_" transform="matrix(0.9341 0.357 -0.357 0.9341 173.0326 -150.9412)" fill="#4F5363" stroke="#3B3C49" stroke-linecap="round" stroke-linejoin="round" stroke-miterlimit="10" cx="495.4" cy="393.2" rx="13.9" ry="11.4"/>

		<ellipse id="XMLID_109_" transform="matrix(0.9543 0.299 -0.299 0.9543 143.235 -127.1116)" fill="#4F5363" stroke="#3B3C49" stroke-linecap="round" stroke-linejoin="round" stroke-miterlimit="10" cx="487.1" cy="404.6" rx="12.2" ry="10"/>
	<path id="XMLID_110_" fill="none" stroke="#231F20" stroke-linecap="round" stroke-linejoin="round" stroke-miterlimit="10" d="
		M501.3,401.3c3.7,6.4,2.7,18.1,2.5,18.7"/>
	<path id="XMLID_111_" fill="none" stroke="#231F20" stroke-linecap="round" stroke-linejoin="round" stroke-miterlimit="10" d="
		M504.5,399.7c6.3,1.5,11.2,9.8,11.5,12"/>
	<path id="XMLID_112_" fill="none" stroke="#231F20" stroke-linecap="round" stroke-linejoin="round" stroke-miterlimit="10" d="
		M505.7,397.4c4.4-0.7,14.9,4.1,17.5,7.6"/>
	<path id="XMLID_116_" fill="#4F5363" stroke="#3B3C49" stroke-linecap="round" stroke-linejoin="round" stroke-miterlimit="10" d="
		M476.9,409.4c-7.8-0.5-11.4,3.9-6.1,9.2c-0.2-4.7,4.1-6.6,10-4.7c5.9,1.9,12.2,8,2.4,9.7c10,1.4,11.9-4.4,8.6-8.6
		C488.6,410.6,476.9,409.4,476.9,409.4z"/>
	<path id="XMLID_107_" fill="#D34040" stroke="#631313" stroke-linecap="round" stroke-linejoin="round" stroke-miterlimit="10" d="
		M361.9,368.5c3.6,6.4,32.4,14.6,41.7-1.5C405.3,344.5,368.2,337.2,361.9,368.5z"/>
	<path id="XMLID_118_" fill="none" stroke="#631313" stroke-linecap="round" stroke-linejoin="round" stroke-miterlimit="10" d="
		M379,348.4c18.8,3.6,21.7,14.6,22.4,21"/>

		<ellipse id="XMLID_117_" transform="matrix(-0.9908 0.1352 -0.1352 -0.9908 854.1229 683.1548)" fill="#231F20" stroke="#231F20" stroke-linecap="round" stroke-linejoin="round" stroke-miterlimit="10" cx="403.9" cy="370.6" rx="8.1" ry="7.5"/>

		<ellipse id="XMLID_119_" fill="#231F20" stroke="#231F20" stroke-linecap="round" stroke-linejoin="round" stroke-miterlimit="10" cx="380" cy="357.9" rx="5.2" ry="4.4"/>

		<ellipse id="XMLID_120_" fill="#231F20" stroke="#231F20" stroke-linecap="round" stroke-linejoin="round" stroke-miterlimit="10" cx="387.3" cy="369" rx="3.6" ry="2.9"/>

		<ellipse id="XMLID_121_" transform="matrix(0.8954 0.4453 -0.4453 0.8954 201.1896 -126.3712)" fill="#231F20" stroke="#231F20" stroke-linecap="round" stroke-linejoin="round" stroke-miterlimit="10" cx="369.5" cy="365" rx="4.7" ry="4.2"/>
	<path id="XMLID_123_" fill="none" stroke="#231F20" stroke-linecap="round" stroke-linejoin="round" stroke-miterlimit="10" d="
		M405.7,366.7c0-6.3,5.8-18.1,16.1-13.6"/>
	<path id="XMLID_124_" fill="none" stroke="#231F20" stroke-linecap="round" stroke-linejoin="round" stroke-miterlimit="10" d="
		M409.6,367.9c4.9-7.3,12.5-9.2,17.8-5.8"/>
	<path id="XMLID_125_" fill="none" stroke="#231F20" stroke-linecap="round" stroke-linejoin="round" stroke-miterlimit="10" d="
		M386.8,374.8c3.6,4.4,3.7,9.7,3.7,9.7"/>
	<path id="XMLID_126_" fill="none" stroke="#231F20" stroke-linecap="round" stroke-linejoin="round" stroke-miterlimit="10" d="
		M374.8,372.4c0.2,7.6,1.5,11.2,1.5,11.2"/>
	<path id="XMLID_127_" fill="none" stroke="#231F20" stroke-linecap="round" stroke-linejoin="round" stroke-miterlimit="10" d="
		M365.8,371.9c-3.7,3.1-5.4,7.6-5.4,7.6"/>

		<ellipse id="XMLID_164_" transform="matrix(0.9965 8.317740e-02 -8.317740e-02 0.9965 35.6462 -39.5216)" fill="#231F20" stroke="#231F20" stroke-miterlimit="10" cx="492.1" cy="408.1" rx="0.6" ry="1.8"/>

		<ellipse id="XMLID_195_" transform="matrix(0.9965 8.317740e-02 -8.317740e-02 0.9965 35.3534 -38.5095)" fill="#231F20" stroke="#231F20" stroke-miterlimit="10" cx="479.9" cy="405" rx="0.6" ry="1.8"/>
</g>
<g id="Layer_2">
	<path id="XMLID_2_" fill="#A1C6B6" stroke="#719987" stroke-linecap="round" stroke-linejoin="round" stroke-miterlimit="10" d="
		M403.6,66.6c15.4-15.4,33.8-14,33.1,3.7c8.8,0.7,5.9,14,5.9,14c11.8-13.2,25.7,8.1,25.7,8.1c4.4-15.4,16.2-7.4,16.2-7.4
		c3.7-15.4,28.7-8.1,32.4,2.2c6.6-16.2,26.5-15.4,27.9-18.4c1.5-2.9,103.2-8.8,103.2-8.8v111c0,0-264.2,0-267.9,0
		S403.6,65.8,403.6,66.6z"/>
</g>
<g id="Layer_4">
	<path id="XMLID_3_" fill="#6DA885" stroke="#4E8464" stroke-linecap="round" stroke-linejoin="round" stroke-miterlimit="10" d="
		M645.2,97.5c-14.1,14.1-54.7-6.9-60.4,10.7c-14.5-12.6-21.4,1.3-21.4,1.3c-5.7-10.1-14.5-1.9-14.5-1.9c0-10.7-10.1-1.3-10.1-1.3
		c-4.4-13.8-25.8-18.2-23.3,4.4c-8.2-6.9,0,9.4-7.5,3.1c-7.5-6.3-18.2-6.9-17,10.1c-3.1-6.9-8.8,5-8.8,5
		c-8.8-12.6-36.5,24.5-37.7,26.4s7.5,13.8,7.5,13.8h193.1C645.2,169.2,646.1,96.5,645.2,97.5z"/>
	<path id="XMLID_6_" fill="#62A366" stroke="#417F43" stroke-linecap="round" stroke-linejoin="round" stroke-miterlimit="10" d="
		M434.5,165.4c12-19.5,40.3-21.4,50.3-8.2c16.4-11.3,101.9-4.4,123.9,13.2s-5.9,23.1-5.9,23.1s-123,4.2-173.2-5.7
		C420.8,163.4,434.5,165.4,434.5,165.4z"/>
</g>
<g id="Layer_6">
	<path id="XMLID_13_" fill="#5D8245" stroke="#456D2C" stroke-linecap="round" stroke-linejoin="round" stroke-miterlimit="10" d="
		M570.6,0c-4.5,2.5,0,6.6,0,6.6c-7.4,0-7.8,4.9-7.8,4.9c-8.2-9-15.1,2.5-8.6,4.9c-12.3,0-9.4,19.2-2,22.5
		c-9.4,1.6-5.7,11.5-5.7,11.5C521,49.2,516.5,59,520.2,68s20.5,14.3,32.3,4.9c1.6,22.1,28.2,8.2,28.2,8.2
		c1.2,17.2,10.2,31.5,29.1,25c4.5-2.5,9.8,2.5,13.5,1.6c3.7-0.8,24.6-1.2,24.6-1.2V0C648,0,570.2,0,570.6,0z"/>
	<path id="XMLID_15_" fill="#935038" stroke="#683823" stroke-linecap="round" stroke-linejoin="round" stroke-miterlimit="10" d="
		M605.4,76.2c-1.1-2.1,16.4-2,17.6-1.2c10.6,19.2,25,31.5,25,31.5v40.1c0,0-11.5,1.2-12.3-7C634.8,131.4,608.2,81.9,605.4,76.2z"/>
	<path id="XMLID_14_" fill="#5D8245" stroke="#456D2C" stroke-linecap="round" stroke-linejoin="round" stroke-miterlimit="10" d="
		M590.6,71.7c-6.1,9,0.8,17.6,11.5,4.9c5.7,7.8,11.9,0.8,11.1-0.8c9.4,6.5,19.6,2.5,18.4-7"/>
</g>
<g id="Layer_3">
	<path id="XMLID_4_" fill="#6DA571" stroke="#4E8464" stroke-linecap="round" stroke-linejoin="round" stroke-miterlimit="10" d="
		M298.1,11c14.7-7,39.3,12.3,42.3,19.4c9.4-12.3,27,11.7,21.1,25.2c19.4-10,21.7,12.3,21.7,12.3c17-16.4,39.3,0.6,34,16.4
		c15.3,3.5-1.8,22.9-1.8,22.9c30.5-10.6,18.2,25.2,18.2,25.2c9.4-3.5,4.1,8.8,4.1,8.8c10-6.5,25.8,1.2,20,27
		c-5.9,25.8-238.3,60.5-238.3,60.5H0v-209c39.2-0.6,55,53.4,45.7,66.9c11.2,0.6,2.9,17,2.9,17c4.7-3.5,8.2-2.9,7.6,8.8
		c6.5-2.9,11.2,1.2,11.2,1.2c9.4-12.9,25.8-10.6,29.9,8.2c8.8-5.9,16.4-1.2,16.4-1.2c2.9-10,17.6-14.1,22.3-12.3
		c6.5-20.5,38.7-15.3,38.7-15.3c14.7-13.5,44-4.1,45.8,14.1c9.4-8.8,20.5-1.8,20.5-1.8c0.6-4.7,2.9-17.6,9.4-21.7
		c-27.6-34.6,0.6-59.9,0.6-59.9L298.1,11z"/>
</g>
<g id="Layer_5">
	<path id="XMLID_51_" fill="#3C562C" stroke="#223A12" stroke-linecap="round" stroke-linejoin="round" stroke-miterlimit="10" d="
		M0,46.5C4.7,51.2,10.5,47,10.5,47c-1,10,15,19.5,15,19.5C12,76,29,86,37,78.5c3.5,25,26,7,26,7c10,20.5,28,18,31.5,3
		c10,12.5,28-1.5,29-3.5S188,68,188,68c1.5,3,13.5-3,13.5-3c10.5,23.5,28,14,25,1c9.5,14,22-2,22-2c8.5,15.5,22,16,21.5-7
		c19,3.5,18-18,18-18c12,8.5,17.5-3.5,17.5-3.5C311,43,318.5,33,318,28c15,4.5,30.2-16.2,18.5-28C311.5,0,0,0,0,0S-0.8,45.8,0,46.5z
		"/>
	<path id="XMLID_7_" fill="#50723E" stroke="#405E2E" stroke-linecap="round" stroke-linejoin="round" stroke-miterlimit="10" d="
		M0,134.6c8.5-6,14.9,0.1,10.5,7c9.4-3.5,12,3.5,12,3.5c10.7-19.5,27.1-3,18.9,9c6.9-6,9.4,1.5,9.4,1.5c8.4-12.5,30,0.7,20.8,11.5
		c13.5-8.7,17,9,18.2,12c0.6,3.5,0,121.6,0,121.6H0C0,300.7,1.4,133.6,0,134.6z"/>
	<path id="XMLID_5_" fill="#5D934A" stroke="#3C662A" stroke-linecap="round" stroke-linejoin="round" stroke-miterlimit="10" d="
		M648,135.5c-0.4-18-16.4-13.5-16.8-2c-4.5-11.9-8.6,7.8-8.2,9.4c-3.7-11.1-12.7,0.4-13.1,4.9c-2.5-7.4-4.1,0.8-4.1,0.8
		c-11.1-16.8-13.9,0.4-13.9,0.4c-11.9-8.6-9.4,13.5-9.4,13.5c-8.2-5.3-8.6,3.7-8.6,3.7c-9-7-13.5,2.5-10.6,11.5
		c-23.3-8.2-18.4,13.9-17.6,13.5c-19.2-9.8-18.8,16.8-15.6,20.9c-12.7-7.8-12.7,5.7-6.1,10.2c-11.1,2-12.7,8.6-3.3,9.4
		c-3.7,2,7.8,4.5,18.8,0c0,7.4,16,7.8,21.7,2.9c2.5,7.4,10.6,3.3,10.6,3.3c9.8,14.3,56.1,11.5,56.1,11.5L648,244
		C648,244,648,135.9,648,135.5z"/>

		<use xlink:href="#flower2_1_"  width="26" height="29.8" id="XMLID_175_" x="-13" y="-14.9" transform="matrix(0.5843 0.3977 0.3977 -0.5843 13.4939 237.2399)" overflow="visible"/>

		<use xlink:href="#flower2_1_"  width="26" height="29.8" id="XMLID_176_" x="-13" y="-14.9" transform="matrix(0.5843 0.3977 0.3977 -0.5843 61.6339 207.0916)" overflow="visible"/>
	<path id="XMLID_9_" fill="#935038" stroke="#683823" stroke-linecap="round" stroke-linejoin="round" stroke-miterlimit="10" d="
		M229.6,182.6c0-14.3,0.4-35.6-13.5-56.1s-14.7-25.8-16.4-30.3c-1.6-4.5-1.6-19.6-6.1-28.7c-3.7-11.5,11.9-45.4,12.3-47.1
		c-2.9-8.2-14.3-9.4-14.3-9.4c-5.3,8.6-16.4,36.8-27.4,50.8C151,14.4,150.2,8.2,150.2,8.2c-19.6-3.7-28.2,3.7-28.2,3.7
		c0.8,7.8,5.3,43,5.3,43c-6.5-3.7-49.9-20.5-56.9-31.5C59.7,11.9,45,38.9,45,38.9c4.9,4.9,10.6,11.5,25.4,16s40.5,16,47.9,20.1
		c7.4,4.1,20.5,10.6,22.1,13.9c1.6,3.3,20.9,25,21.7,33.6s3.7,43,1.2,61C160.8,201.4,225.9,203.5,229.6,182.6z"/>
	<path id="XMLID_10_" fill="#87AF68" stroke="#647F38" stroke-linecap="round" stroke-linejoin="round" stroke-miterlimit="10" d="
		M648,184.6c-9.9-8.6-18.9-0.8-14.4,12.7c-2.5-0.4-4.5,7-4.1,6.1c-10.2-10.6-16.8,0-16,6.1c-9.4-11.1-20.1,7-13.5,14.3
		c-5.7-2.9-2.5,9.8-2.5,9.8c-12.3-8.2-21.7,12.7-9.4,18c-1.6,9.8,16,5.3,18.4,2c1.2,11.1,11.9,10.2,15.6,4.9c7.6,7.6,18,3.7,18,3.7
		c2,4.5,7.8,3.3,7.8,3.3v-79.4"/>
	<path id="XMLID_43_" fill="#935038" stroke="#683823" stroke-linecap="round" stroke-linejoin="round" stroke-miterlimit="10" d="
		M156.8,73.7c15.5,17.9,25.4,48,35.3,69.6"/>
	<path id="XMLID_8_" fill="#50723E" stroke="#405E2E" stroke-linecap="round" stroke-linejoin="round" stroke-miterlimit="10" d="
		M194.4,186.7c-0.1-0.6-0.1-1.1-0.2-1.6c-0.7-14.3,22-13.4,24.7-9.1c1.2-13.9,7-9,7.4-7.4c-1.6-8.2,9-7.8,9-7.8
		c0.4-15.1,9.8-20.9,15.1-11.5c-2-29.5,18.8-29.9,23.3-18c4.1-9.4,12.3-1.2,12.3-1.2c2.9-10.2,15.6-2,15.6-3.3
		c0-28.2,30.3-29.5,40.5,0.4c6.1-7.4,11.9-0.8,11.9-0.8c2-10.6,14.7-2.9,15.1,1.6c2.9-18,23.3-20.5,38.9,2
		c3.3-18.8,25.4,6.5,18,17.2c11.9-4.1,9,6.1,9,6.1c9.4-6.1,15.1,8.2,15.1,8.2c11.1-11.9,32.3,4.9,12.7,29.1c8.2,1.6,4.1,9.4-2,12.7
		c8.6,0.8,3.7,9,2.9,11.5c11.9-4.1,2.5,8.2,2.5,8.2c14.7-11.9,23.7,25.8,11.5,31.1c15.6-0.4,0.4,15.6,0.4,15.6
		c23.7-2,15.1,8.6,10.6,13.5c8.6,7-15.6,9-27.4,4.1c-4.5,11.5-29.1,1.6-31.9-0.4c4.5,13.1-30.3,3.3-32.3,2.9
		c-15.6,10.6-79.8,20.9-82.7,15.6c-18.4,5.7-96.2-2.9-98.6-4.5s-21.4-115.3-21.4-115.3"/>
	<path id="XMLID_44_" fill="#935038" stroke="#683823" stroke-linecap="round" stroke-linejoin="round" stroke-miterlimit="10" d="
		M189.2,109c12.2,26.3,21.6,46.5,23.5,56.4"/>
	<path id="XMLID_11_" fill="#52843D" stroke="#3C662A" stroke-linecap="round" stroke-linejoin="round" stroke-miterlimit="10" d="
		M68.3,198.1c-4.9-7.8-4.5-13.5-4.5-13.5c1.2-1.6,18.8,2.5,18.8,2.5c-5.3-9.8-0.8-20.1-0.8-20.1c5.3,1.2,15.6,11.1,15.6,11.1
		c-1.6-4.9-1.2-10.2-1.2-10.2c3.3-0.4,15.6,10.6,15.6,10.6c-4.9-19.2,4.5-27,4.5-27c7.8,1.6,16,18.4,15.6,19.6
		c0.8-5.3,8.6-10.6,8.6-10.6l2,13.5c0.8-8.2,11.9-10.2,14.7-16.8c4.1,8.6-4.9,29.5-1.6,21.7c3.3-7.8,26.2-10.2,26.2-10.2
		c-0.8,2.5-6.1,13.9-6.1,13.9c2.9-3.7,35.6,2,35.6,2c-7.4,4.5-13.5,7.8-13.5,7.8c7.4,0,14.7-1.2,14.7-1.2l-2.5,3.7
		c1.6-0.4,9-9.8,9-9.8c3.3,9.4-2.5,26.2-2.5,26.2c9.4-6.1,24.2-0.8,24.2-0.8c-2.9,5.3-12.3,12.7-12.3,12.7
		c7.4-1.6,17.2-6.1,17.2-6.1c-0.4,4.1-9,20.1-9,20.1c7.4,0.4,16.8,8.6,16.8,8.6l-13.5,1.2c8.6,3.3,17.6,9,17.6,9
		c-14.3,7.4-18.8,9.4-18.8,9.4c5.7,3.3,7,19.6,7,19.6l-183.4-5.3c0,0-16-34,2.9-47.9c-14.7-8.6-15.6-11.9-15.6-11.9
		c0.8-1.2,14.7-3.3,14.7-3.3c-1.2-1.6-12.7-13.9-12.7-13.9L68.3,198.1z"/>
	<path id="XMLID_45_" fill="#935038" stroke="#683823" stroke-linecap="round" stroke-linejoin="round" stroke-miterlimit="10" d="
		M165.3,106.6c9.9,0.9,21.2-7.5,21.2-7.5"/>
	<path id="XMLID_46_" fill="#935038" stroke="#683823" stroke-linecap="round" stroke-linejoin="round" stroke-miterlimit="10" d="
		M213.7,140.9c-10.3,10.8-32.4,14.1-34.3,13.6"/>
	<path id="XMLID_47_" fill="#935038" stroke="#683823" stroke-linecap="round" stroke-linejoin="round" stroke-miterlimit="10" d="
		M216,151.3c-7.5,8-13.6,9.9-13.6,9.9"/>
	<path id="XMLID_50_" fill="#3C562C" stroke="#223A12" stroke-linecap="round" stroke-linejoin="round" stroke-miterlimit="10" d="
		M32.9,31.4C19.6,55.3,39,64.5,49.3,47c9.1,10.3,15.2-5.3,11.4-15.2c9.5,9.1,11.8-1.1,11.8-1.1c9.5,6.5,17.9-6.5,7.6-16"/>
	<path id="XMLID_53_" fill="#3C562C" stroke="#223A12" stroke-linecap="round" stroke-linejoin="round" stroke-miterlimit="10" d="
		M107.1,3.3c-6.8,9.5,3.4,16,8,11.4c3,12.5,21.7-1.1,21.7-3c8,14.4,30.4,5.3,30.4-6.5"/>
	<path id="XMLID_54_" fill="#3C562C" stroke="#223A12" stroke-linecap="round" stroke-linejoin="round" stroke-miterlimit="10" d="
		M183.1,4.8c-5.3,4.2-1.9,19.4,11.4,14.1c2.7,9.9,15.6,3.8,15.6,3.8c1.5,8,15.2,4.6,15.2,4.6"/>

		<use xlink:href="#flower1"  width="32.6" height="31.7" id="XMLID_163_" x="-16.3" y="-15.9" transform="matrix(0.5519 0 0 -0.5519 89.3787 210.8845)" overflow="visible"/>

		<use xlink:href="#flower1"  width="32.6" height="31.7" id="XMLID_169_" x="-16.3" y="-15.9" transform="matrix(0.5519 0 0 -0.5519 111.1744 191.9202)" overflow="visible"/>

		<use xlink:href="#flower1"  width="32.6" height="31.7" id="XMLID_166_" x="-16.3" y="-15.9" transform="matrix(0.7243 0 0 -0.7243 205.1093 207.9669)" overflow="visible"/>

		<use xlink:href="#flower1"  width="32.6" height="31.7" id="XMLID_167_" x="-16.3" y="-15.9" transform="matrix(0.4485 0 0 -0.4485 150.6478 179.2774)" overflow="visible"/>

		<use xlink:href="#flower1"  width="32.6" height="31.7" id="XMLID_204_" x="-16.3" y="-15.9" transform="matrix(0.4485 0 0 -0.4485 173.5146 192.1613)" overflow="visible"/>

		<use xlink:href="#flower1"  width="32.6" height="31.7" id="XMLID_168_" x="-16.3" y="-15.9" transform="matrix(0.5711 0 0 -0.5711 160.1013 224.754)" overflow="visible"/>

		<use xlink:href="#flower2_1_"  width="26" height="29.8" id="XMLID_170_" x="-13" y="-14.9" transform="matrix(0.7068 0 0 -0.7068 21.2741 163.328)" overflow="visible"/>

		<use xlink:href="#flower2_1_"  width="26" height="29.8" id="XMLID_173_" x="-13" y="-14.9" transform="matrix(0.2971 0.6413 0.6413 -0.2971 48.5048 181.3197)" overflow="visible"/>
	<g id="flower2">

			<use xlink:href="#flower3"  width="19.2" height="21.1" id="XMLID_178_" x="-9.6" y="-10.6" transform="matrix(1 0 0 -1 296.8676 148.6571)" overflow="visible"/>

			<use xlink:href="#flower3"  width="19.2" height="21.1" id="XMLID_186_" x="-9.6" y="-10.6" transform="matrix(0.3775 -0.926 -0.926 -0.3775 385.8538 146.2258)" overflow="visible"/>

			<use xlink:href="#flower3"  width="19.2" height="21.1" id="XMLID_187_" x="-9.6" y="-10.6" transform="matrix(0.2096 -0.5141 -0.5141 -0.2096 416.0021 157.8961)" overflow="visible"/>

			<use xlink:href="#flower3"  width="19.2" height="21.1" id="XMLID_184_" x="-9.6" y="-10.6" transform="matrix(0.6779 0 0 -0.6779 327.5022 129.2066)" overflow="visible"/>

			<use xlink:href="#flower3"  width="19.2" height="21.1" id="XMLID_180_" x="-9.6" y="-10.6" transform="matrix(0.5399 0 0 -0.5399 261.3704 159.841)" overflow="visible"/>

			<use xlink:href="#flower3"  width="19.2" height="21.1" id="XMLID_181_" x="-9.6" y="-10.6" transform="matrix(0.4203 -0.5291 -0.5291 -0.4203 267.6919 198.7421)" overflow="visible"/>

			<use xlink:href="#flower3"  width="19.2" height="21.1" id="XMLID_185_" x="-9.6" y="-10.6" transform="matrix(0.4203 -0.5291 -0.5291 -0.4203 317.7769 184.1542)" overflow="visible"/>

			<use xlink:href="#flower3"  width="19.2" height="21.1" id="XMLID_188_" x="-9.6" y="-10.6" transform="matrix(0.4203 -0.5291 -0.5291 -0.4203 391.4536 170.5635)" overflow="visible"/>

			<use xlink:href="#flower3"  width="19.2" height="21.1" id="XMLID_190_" x="-9.6" y="-10.6" transform="matrix(0.4203 -0.5291 -0.5291 -0.4203 415.7462 225.1043)" overflow="visible"/>

			<use xlink:href="#flower3"  width="19.2" height="21.1" id="XMLID_191_" x="-9.6" y="-10.6" transform="matrix(-0.328 -0.5908 -0.5908 0.328 456.5923 237.7472)" overflow="visible"/>

			<use xlink:href="#flower3"  width="19.2" height="21.1" id="XMLID_192_" x="-9.6" y="-10.6" transform="matrix(0.4203 -0.5291 -0.5291 -0.4203 431.7929 260.1153)" overflow="visible"/>

			<use xlink:href="#flower3"  width="19.2" height="21.1" id="XMLID_193_" x="-9.6" y="-10.6" transform="matrix(0.4203 -0.5291 -0.5291 -0.4203 460.9892 270.2475)" overflow="visible"/>

			<use xlink:href="#flower3"  width="19.2" height="21.1" id="XMLID_189_" x="-9.6" y="-10.6" transform="matrix(0.9945 0.4741 0.4741 -0.9945 430.8409 191.9591)" overflow="visible"/>

			<use xlink:href="#flower3"  width="19.2" height="21.1" id="XMLID_196_" x="-9.6" y="-10.6" transform="matrix(0.5754 0.2743 0.2743 -0.5754 574.7916 177.2611)" overflow="visible" opacity="0.71"/>

			<use xlink:href="#flower3"  width="19.2" height="21.1" id="XMLID_197_" x="-9.6" y="-10.6" transform="matrix(0.5368 -0.3437 -0.3437 -0.5368 603.1965 165.4799)" overflow="visible" opacity="0.71"/>

			<use xlink:href="#flower3"  width="19.2" height="21.1" id="XMLID_202_" x="-9.6" y="-10.6" transform="matrix(0.5368 -0.3437 -0.3437 -0.5368 628.7129 152.481)" overflow="visible" opacity="0.71"/>

			<use xlink:href="#flower3"  width="19.2" height="21.1" id="XMLID_198_" x="-9.6" y="-10.6" transform="matrix(0.2621 -0.5811 -0.5811 -0.2621 589.0745 203.1898)" overflow="visible" opacity="0.71"/>

			<use xlink:href="#flower3"  width="19.2" height="21.1" id="XMLID_199_" x="-9.6" y="-10.6" transform="matrix(0.1633 -0.3621 -0.3621 -0.1633 551.6633 201.9978)" overflow="visible" opacity="0.71"/>

			<use xlink:href="#flower3"  width="19.2" height="21.1" id="XMLID_201_" x="-9.6" y="-10.6" transform="matrix(0.1633 -0.3621 -0.3621 -0.1633 622.4542 175.5901)" overflow="visible" opacity="0.71"/>

			<use xlink:href="#flower3"  width="19.2" height="21.1" id="XMLID_200_" x="-9.6" y="-10.6" transform="matrix(0.1633 -0.3621 -0.3621 -0.1633 578.4434 219.6601)" overflow="visible" opacity="0.71"/>

			<use xlink:href="#flower3"  width="19.2" height="21.1" id="XMLID_203_" x="-9.6" y="-10.6" transform="matrix(0.1633 -0.3621 -0.3621 -0.1633 551.0347 227.1455)" overflow="visible" opacity="0.71"/>

			<use xlink:href="#flower3"  width="19.2" height="21.1" id="XMLID_182_" x="-9.6" y="-10.6" transform="matrix(0.4014 -0.5053 -0.5053 -0.4014 232.6809 191.9344)" overflow="visible"/>

			<use xlink:href="#flower3"  width="19.2" height="21.1" id="XMLID_183_" x="-9.6" y="-10.6" transform="matrix(0.4014 -0.5053 -0.5053 -0.4014 235.5985 162.7586)" overflow="visible"/>
	</g>

		<use xlink:href="#flower2_1_"  width="26" height="29.8" id="XMLID_174_" x="-13" y="-14.9" transform="matrix(0.5843 0.3977 0.3977 -0.5843 25.6505 211.468)" overflow="visible"/>
</g>
<g id="Layer_13">
	<path id="XMLID_162_" fill="#99B775" stroke="#406317" stroke-linecap="round" stroke-linejoin="round" stroke-miterlimit="10" d="
		M0,310.6c0.6-2.9,0-35.4,0-35.4c4.6,4,7.4,18.8,7.4,18.8c0-5.7,7.4-17.1,7.4-17.1c-2.9,7.4-1.1,17.1-1.1,17.1
		c0.6-3.4,10.8-22.2,10.8-22.2c1.1,5.1,3.4,17.7,3.4,17.7l18.8-12c-1.1,2.3-2.3,12-2.3,12l17.1-13.1l178.5,25.7
		c3.4-2.9,14.8-12.5,14.8-12.5c-0.6,1.7,2.3,12.5,2.3,12.5c1.7-1.7,5.1-17.1,5.1-17.1c3.4,5.7,1.1,16.5,1.1,16.5
		c2.9-4.6,10.8-15.4,10.8-15.4c0.6,1.7-1.7,6.3-0.6,8c1.7,1.1,5.1-12.5,5.1-12.5c4.6,5.1,9.1,15.4,9.7,17.1c2.3-6.3,8.6-8.6,8.6-8.6
		l4.6,10.8l9.1-14.3l85,0.6c0,0,63.9,0,82.1,4.6c18.3,4.6,47.3-2.9,26.8,3.4s-34.8,8-49,9.1c-14.3,1.1-16.5,9.7-38.8,14.3
		s-47.3-1.7-64.4,0c-17.1,1.7-33.6,1.7-48.5,4.6c-14.8,2.9-51.9,8-63.3,7.4c-11.4-0.6-30.2,1.7-45.1,1.7
		c-14.8,0-104.9,2.9-118.1-0.6C64.4,328.3,0,334.6,0,334.6V310.6z"/>
	<path id="XMLID_179_" fill="#99B775" stroke="#406317" stroke-linecap="round" stroke-linejoin="round" stroke-miterlimit="10" d="
		M465.9,296.5c2.8-15.3,4.5-21,4.5-21c2.3,6.3,0.6,19.3,0.6,19.3c0.6-2.8,12.5-15.9,12.5-15.9c-1.7,2.8-6.8,15.9-6.8,15.9l9.7-6.8
		l-2.8,7.4"/>
	<path id="XMLID_205_" fill="#99B775" stroke="#406317" stroke-linecap="round" stroke-linejoin="round" stroke-miterlimit="10" d="
		M596.6,264.6c0-4.5-0.6-17.6-0.6-17.6c5.7,8.5,7.4,17.1,7.4,17.1c0.6-4,11.9-16.5,10.8-14.8c-1.1,1.7-4.5,16.5-4.5,16.5"/>
	<path id="XMLID_206_" fill="#99B775" stroke="#406317" stroke-linecap="round" stroke-linejoin="round" stroke-miterlimit="10" d="
		M557.9,246.5c-0.6-4-4.5-14.2-4.5-14.2c4.5,5.7,6.8,11.9,6.8,11.9c0.6-2.8,4.5-2.3,4.5-2.3s-0.6,5.7-1.1,6.8"/>
	<path id="XMLID_207_" fill="#99B775" stroke="#406317" stroke-linecap="round" stroke-linejoin="round" stroke-miterlimit="10" d="
		M493.7,225.4c-1.1-4.5-4-13.1-4-13.1c6.8,2.8,6.3,7.4,6.3,7.4l3.4-10.8c0,6.8,0.6,10.2,0.6,10.2c0.6-2.3,4-8.5,4-8.5l-0.6,11.9"/>
</g>
<g id="Layer_8">
	<path id="XMLID_132_" fill="#99B775" stroke="#406317" stroke-linecap="round" stroke-linejoin="round" stroke-miterlimit="10" d="
		M346.5,277.3c-7.4-40.4,3.2-77.4,3.2-77.4c-2.8,15.6,1.4,71.7,1.4,71.7L346.5,277.3z"/>
	<path id="XMLID_134_" fill="#99B775" stroke="#406317" stroke-linecap="round" stroke-linejoin="round" stroke-miterlimit="10" d="
		M274.2,236.8c-17.7-18.7,45.1,35.3,48.7,57.9c-0.2,11.2-3.8,6.5-3.8,6.5C313.3,279.3,297,260.8,274.2,236.8z"/>
	<path id="XMLID_133_" fill="#B390C4" stroke="#61416D" stroke-linecap="round" stroke-linejoin="round" stroke-miterlimit="10" d="
		M259.4,222.4c-5-5.1-1.9-2.7-2.2-6.3c-0.4-3.6,0.3-5.8,2.2-4.5c1.9,1.3,4.1,0.2,5.1,2.1c1,1.8,1.8,0.3,3.2,2.4c1.4,2.1,3.7,0,5.5,4
		c1.8,4,5.1,5.4,5.1,5.4s-0.8-2.2,2.6,2.9c3.3,5.1,4.9,6.2,4.9,6.2s1.7-5.4,3.8,0.3s3.6,6.4,3.6,6.4s3.1,3.8,0.9,8.3
		c-2.2,4.5-3.5-5.1-3.3,4c0,2-1.6,6-5.1,5c-8.7-2.5-0.3,2.1-7.6-2.6s-5.7-5-5.7-5s-5.8,3.1-6.7-6.8s0.7-3.5,0.7-3.5l-6.6-8.2
		l-1.5-6.1L259.4,222.4z"/>
	<path id="XMLID_62_" fill="#99B775" stroke="#406317" stroke-linecap="round" stroke-linejoin="round" stroke-miterlimit="10" d="
		M358.6,302.3c3.9-40.9,24.1-73.7,24.1-73.7c-6.9,14.2-18.1,69.4-18.1,69.4L358.6,302.3z"/>
	<path id="XMLID_64_" fill="#99B775" stroke="#406317" stroke-linecap="round" stroke-linejoin="round" stroke-miterlimit="10" d="
		M300.4,204c-18.1-28.2,49.1,56,48.2,85.7c-3,14.2-12,10.1-12,10.1C334.5,270.6,323.7,240.2,300.4,204z"/>
	<path id="XMLID_34_" fill="#8CAA61" stroke="#406317" stroke-linecap="round" stroke-linejoin="round" stroke-miterlimit="10" d="
		M311.7,328.6c-12.7-6.6-40-30.1-40-30.1c14.1-0.5,39,16,39,16c-2.4-7.5-25.4-51.7-25.4-51.7c18.3,11.8,28.7,23.5,28.7,23.5
		c-4.7-17.9-22.6-47.5-22.6-47.5c10.8,5.6,31,47.5,32.4,46.1c0-17.4-9.4-39.5-9.4-39.5c11.8,5.2,25.4,38.1,27.3,45.6
		c-3.3-39.5,5.2-57.4,5.2-57.4c1.4,14.6,1.9,39,1.4,40.4c1.9-10.3,8-44.2,8-44.2c3.8,40.4,1.9,62.5,1.9,62.5c6.1-15.5,32-47,32-47
		c-4.7,10.3-5.6,19.3-5.6,19.3c5.6-8.9,30.6-16.5,30.6-16.5c-19.3,14.6-31.5,39-31.5,39c5.2-7.1,44.7-14.1,44.7-14.1
		c-16.9,9.9-39,33.4-39,33.4c6.6-5.2,35.7-6.6,35.7-6.6c-7.5,4.7-31,29.2-31,29.2c-22.1,0.5-37.6-3.3-32.4,0.9
		c5.2,4.2,36.7,8,17.4,9.4c-19.3,1.4-59.2,2.4-54.1-2.8s11.3-6.1,7.1-6.6C327.7,329.6,312.6,328.2,311.7,328.6z"/>
	<path id="XMLID_63_" fill="#B390C4" stroke="#61416D" stroke-linecap="round" stroke-linejoin="round" stroke-miterlimit="10" d="
		M370.2,221.7c-3.9,1.7-0.9,7.8,1.7,8.6c-2.6,7.3,2.6,7.3,2.6,7.3c0.9,1.7,5.6,7.8,8.2,3c3.9-2.2,9.9-1.7,10.8-3.9
		c2.2-1.7,7.8-9.9,5.6-12.1c4.7-5.2,5.6-15.1,3.9-15.1c-1.7-0.9,0.9-5.6-0.4-7.8c-1.3-2.2,4.7-11.6,1.3-13.8s0.4-8.2-4.3-8.2
		c-4.7,0-9.9,5.2-11.2,7.8c-1.3,2.6-3-3.9-5.6,2.2c-2.6,6,1.7-1.3-2.6,6c-4.3,7.3-9.5,10.3-8.2,15.1s2.2,0,1.3,4.7
		C372.3,220.4,370.2,221.7,370.2,221.7z"/>
	<path id="XMLID_131_" fill="#B390C4" stroke="#61416D" stroke-linecap="round" stroke-linejoin="round" stroke-miterlimit="10" d="
		M335.9,196.6c-3.3,2.7,1.3,7.7,4,7.8c-0.5,7.8,4.5,6.3,4.5,6.3c1.3,1.4,7.5,5.9,8.7,0.7c3.1-3.1,9.1-4.3,9.3-6.7
		c1.6-2.2,4.8-11.6,2.1-13.1c3.2-6.3,1.3-16-0.4-15.6c-1.9-0.4-0.7-5.6-2.5-7.3c-1.8-1.7,1.4-12.5-2.5-13.6c-3.9-1.1-1.8-8-6.4-6.7
		c-4.6,1.3-8.1,7.7-8.7,10.5s-4-2.9-4.8,3.6c-0.9,6.5,1.3-1.7-0.9,6.5c-2.2,8.2-6.3,12.5-3.8,16.7s2.1-0.6,2.5,4.2
		C337.6,194.8,335.9,196.6,335.9,196.6z"/>
	<path id="XMLID_52_" fill="#B390C4" stroke="#61416D" stroke-linecap="round" stroke-linejoin="round" stroke-miterlimit="10" d="
		M284.9,182.1c-5.2-7.8-1.7-3.9-1.3-8.6c0.4-4.7,1.7-7.3,3.9-5.2s5.2,1.3,6,3.9c0.9,2.6,2.2,0.9,3.4,3.9c1.3,3,4.7,0.9,6,6.5
		c1.3,5.6,5.2,8.2,5.2,8.2s-0.4-3,2.6,4.3c3,7.3,4.7,9,4.7,9s3.4-6.5,4.7,1.3c1.3,7.8,3,9,3,9s3,5.6-0.9,10.8
		c-3.9,5.2-3.2-7.3-5.2,4.3c-0.4,2.6-3.4,7.3-7.8,5.2c-10.5-5.2-0.9,2.6-9-5.2c-8.2-7.8-6-7.8-6-7.8s-8.2,2.6-6.9-10.3
		c1.3-12.9,1.7-4.3,1.7-4.3l-6.5-12.1l-0.4-8.2L284.9,182.1z"/>
	<path id="XMLID_130_" fill="#8CAA61" stroke="#406317" stroke-linecap="round" stroke-linejoin="round" stroke-miterlimit="10" d="
		M320.5,322.7c-3.9-36.7-15.6-80.2-15.6-80.2c22.3,31.2,28.4,71.8,27.8,76.8"/>
	<path id="XMLID_135_" fill="#8CAA61" stroke="#406317" stroke-linecap="round" stroke-linejoin="round" stroke-miterlimit="10" d="
		M346.6,313.2c3.3-32.3,20-65.7,20-65.7c-2.2,12.8-6.7,67.4-6.7,67.4c2.2-13.9,26.7-42.9,26.7-42.9c-5.6,7.8-15,44-15,44"/>
	<path id="XMLID_136_" fill="#8CAA61" stroke="#406317" stroke-linecap="round" stroke-linejoin="round" stroke-miterlimit="10" d="
		M337.2,335c1.1-15.6-17.3-42.9-17.3-42.9c13.4,7.8,25.1,40.6,25.1,40.6c1.7-16.7,16-32.5,13.6-30.5c-2.5,2.1-5.2,34.4-5.2,34.4"/>
	<path id="XMLID_137_" fill="#8CAA61" stroke="#406317" stroke-linecap="round" stroke-linejoin="round" stroke-miterlimit="10" d="
		M381.2,304.3c9.5-11.1,41.2-17.8,41.2-17.8c-14.5,7.2-34.5,31.7-34.5,31.7"/>
	<path id="XMLID_139_" fill="#B390C4" stroke="#61416D" stroke-linecap="round" stroke-linejoin="round" stroke-miterlimit="10" d="
		M342.2,197.4c-1.4-5.8,4.8-4.1,4.5-0.7"/>
	<path id="XMLID_140_" fill="#B390C4" stroke="#61416D" stroke-linecap="round" stroke-linejoin="round" stroke-miterlimit="10" d="
		M349.1,184.7c-0.7-4.8,5.2-4.1,3.4,0.7"/>
	<path id="XMLID_141_" fill="#B390C4" stroke="#61416D" stroke-linecap="round" stroke-linejoin="round" stroke-miterlimit="10" d="
		M353.2,178.2c2.1-3.8,5.8-3.4,4.8-0.3"/>
	<path id="XMLID_142_" fill="#B390C4" stroke="#61416D" stroke-linecap="round" stroke-linejoin="round" stroke-miterlimit="10" d="
		M303,213.2c-2.4-0.3-6.2,5.2-2.8,6.2"/>
	<path id="XMLID_143_" fill="#B390C4" stroke="#61416D" stroke-linecap="round" stroke-linejoin="round" stroke-miterlimit="10" d="
		M298.9,206c0-4.5,3.1-4.8,3.8-1.7"/>
	<path id="XMLID_138_" fill="#B390C4" stroke="#61416D" stroke-linecap="round" stroke-linejoin="round" stroke-miterlimit="10" d="
		M290.6,197.4c-1.7-4.5,1-6.9,2.8-4.5c1-6.5,5.5-2.4,5.8-0.3"/>
	<path id="XMLID_145_" fill="#B390C4" stroke="#61416D" stroke-linecap="round" stroke-linejoin="round" stroke-miterlimit="10" d="
		M380.7,219.8c-1.7-2.8-6.5-0.3-4.5,3.4"/>
	<path id="XMLID_146_" fill="#B390C4" stroke="#61416D" stroke-linecap="round" stroke-linejoin="round" stroke-miterlimit="10" d="
		M386.6,217c4.1-3.8,5.5-1,4.5,2.1"/>
	<path id="XMLID_147_" fill="#B390C4" stroke="#61416D" stroke-linecap="round" stroke-linejoin="round" stroke-miterlimit="10" d="
		M388.6,203.3c-2.1-3.4-6.5,0.7-5.5,3.8"/>
	<path id="XMLID_148_" fill="#B390C4" stroke="#61416D" stroke-linecap="round" stroke-linejoin="round" stroke-miterlimit="10" d="
		M392.7,196c0.7-3.1,1.4-4.5,1.4,1.7"/>
	<path id="XMLID_149_" fill="#B390C4" stroke="#61416D" stroke-linecap="round" stroke-linejoin="round" stroke-miterlimit="10" d="
		M277.6,249c-3.1-2.1-0.3-6.2,1.7-3.4"/>
	<path id="XMLID_150_" fill="#B390C4" stroke="#61416D" stroke-linecap="round" stroke-linejoin="round" stroke-miterlimit="10" d="
		M271,234.2c-1-4.5,3.1-4.1,4.1-1.4"/>
	<path id="XMLID_151_" fill="#B390C4" stroke="#61416D" stroke-linecap="round" stroke-linejoin="round" stroke-miterlimit="10" d="
		M384.5,231.1c2.1-2.8,7.6-2.1,5.5,1.7"/>
	<path id="XMLID_144_" fill="#9E6E46" d="M296.5,335.6c13.8-10.5,23.2-3.9,23.2-3.9c13.8-8.3,24.3,3.3,27.1,7.2
		c13.8-6.1,18.8,3.3,29.3-5.5c10.5-8.8,27.1-5.5,32.1-4.4c7.2,7.2,7.2,16.6,7.2,16.6l-110,3.9L296.5,335.6z"/>
	<path id="XMLID_153_" fill="none" stroke="#683C1A" stroke-miterlimit="10" d="M290.4,332.3c12.2-5.5,29.9-1.1,29.9-1.1
		c2.2-5,18.2-3.9,26.5,7.7c14.9-4.4,35.4,1.1,35.4,1.1"/>
	<path id="XMLID_154_" fill="none" stroke="#683C1A" stroke-miterlimit="10" d="M405.4,331.7c-16.6-7.7-26.5,0-26.5,0"/>
</g>
<g id="Layer_7">
	<path id="XMLID_27_" fill="#DD3131" stroke="#7F190E" stroke-linecap="round" stroke-linejoin="round" stroke-miterlimit="10" d="
		M138.3,258.3c-11.9-14.3-0.8-16.8,5.7-11.5c-1.2-18,16-13.5,13.9,2.9c11.9-10.2,20.9-0.8,5.7,9
		C149.4,262.8,138.3,258.3,138.3,258.3z"/>
	<path id="XMLID_12_" fill="#A6BF71" stroke="#73893D" stroke-linecap="round" stroke-linejoin="round" stroke-miterlimit="10" d="
		M63.8,248.1c-5.7-12.7-28.2-15.1-28.2-15.1c3.3,7,34,24.6,15.6,18.4s-32.7,2-32.7,2c14.7,8.2,28.7,8.6,35.2,17.2
		c2,6.1,2.5,11.1,2.5,11.1c-22.5-2-32.3,7.4-34,11.1c16.8-6.1,28.2-5.3,28.2-5.3c-14.3,2-25.8,35.2-25.4,36.4
		c15.1-17.6,41.8-22.1,41.8-22.1s95.8,40.9,127.7,25c31.9-16,34.8-13.1,34.8-13.1c-0.4-6.1,19.6,18,19.6,18c0.4-13.1-7-20.5-7-20.5
		c6.1-1.2,22.1,4.9,22.1,4.9c-2-7.8-27-21.7-27-21.7c4.9-6.5,21.7-11.9,40.1-18.8c-13.5-11.9-45.4,3.7-45.4,3.7
		c4.5-5.3,5.6-8.6,28.8-19c-20.5-9-25.1-8.8-25.1-8.8c13.1-7,31.1-5.3,31.1-5.3c-7.8-9.4-43,0-43,0c2.9-9,24.2-17.6,24.2-17.6
		c-9.4-2.5-37.7,11.5-40.1,17.2c-2.5,5.7-31.9,38.5-33.2,38.1s-89.6-11.1-91.3-10.6S63.8,248.1,63.8,248.1z"/>
	<path id="XMLID_17_" fill="#AA2D2D" stroke="#7F190E" stroke-linecap="round" stroke-linejoin="round" stroke-miterlimit="10" d="
		M109.3,255.9c-1.2-7.8,13.1-18,20.1,0.4c11.5-7.8,21.7-0.4,21.7-0.4s25.8-7.4,26.2,12.7c6.5-12.3,19.6-11.5,19.6-11.5l21.3,9.8
		c0,0,16.4,13.1,10.6,21.3c9.4,11.1,0,18-4.5,21.7c-4.9,4.1-64.3,21.3-98.6,8.6c-34.4-12.7-54.4-10.6-58.9-16.8
		c-4.5-6.1,7-46.3,11.5-49.5C82.7,248.9,109.3,255.9,109.3,255.9z"/>
	<path id="XMLID_18_" fill="#A02222" stroke="#7F190E" stroke-linecap="round" stroke-linejoin="round" stroke-miterlimit="10" d="
		M151.4,285.7c0.4-14.3,12.7-21.7,18.4-11.5c9.4-2.5,17.2,2.5,13.1,14.7c-4.1,12.3-10.2,18-10.2,18l-20.9-5.3L151.4,285.7z"/>
	<path id="XMLID_16_" fill="#A02222" stroke="#7F190E" stroke-linecap="round" stroke-linejoin="round" stroke-miterlimit="10" d="
		M108.8,263.6c7-4.1,22.9,2,21.7,14.3c-1.2,12.3-8.6,13.9-9,15.1s-17.6,5.3-17.6,5.3l-25.8-17.6l4.9-22.1L108.8,263.6z"/>
	<path id="XMLID_19_" fill="#931F1F" stroke="#7F190E" stroke-linecap="round" stroke-linejoin="round" stroke-miterlimit="10" d="
		M85.9,293.1c-3.7-14.3,13.1-19.2,15.6-9.4c11.1-3.3,14.7,8.6,14.7,8.6s28.7,13.1,23.3,24.6c-5.3,11.5-10.6,18.4-11.9,19.2
		c-1.2,0.8-47.5-18-47.5-18L85.9,293.1z"/>
	<path id="XMLID_20_" fill="#931F1F" stroke="#7F190E" stroke-linecap="round" stroke-linejoin="round" stroke-miterlimit="10" d="
		M154.7,325.9c-2.5-11.5,7.4-29.9,20.1-29.5s36.4,6.1,36.4,6.1l-2.5,32.3L154.7,325.9z"/>
	<path id="XMLID_21_" fill="#DD3131" stroke="#7F190E" stroke-linecap="round" stroke-linejoin="round" stroke-miterlimit="10" d="
		M131,266.5c11.1-2.5,13.9,7,12.3,11.5c8.2-5.7,22.5,6.1,10.6,16.4c13.5,5.7-8.2,23.3-11.5,4.1c-7.8,20.1-23.3,5.7-15.6-2.9
		c-16.8,4.9-19.6-18.8,0.4-13.1C119.5,270.6,131,266.5,131,266.5z"/>
	<path id="XMLID_129_" fill="#DD3131" stroke="#7F190E" stroke-linecap="round" stroke-linejoin="round" stroke-miterlimit="10" d="
		M197.3,299.6c-4.8-18,6.2-15.6,10-8c6.4-16.9,20.1-5.6,11.5,8.4c15.1-4.4,19.3,7.9,1.5,10.6C205.5,308.3,197.3,299.6,197.3,299.6z"
		/>

		<ellipse id="XMLID_22_" transform="matrix(0.9556 0.2947 -0.2947 0.9556 91.0633 -27.7855)" fill="#FFD833" stroke="#BC7417" stroke-linecap="round" stroke-linejoin="round" stroke-miterlimit="10" cx="137.7" cy="288.2" rx="7.6" ry="5.3"/>
	<path id="XMLID_24_" fill="#DD3131" stroke="#7F190E" stroke-linecap="round" stroke-linejoin="round" stroke-miterlimit="10" d="
		M194.8,292.7c-6.1-17.2-30.7-12.3-15.6,10.2c-14.3-8.2-18.8,18,4.1,10.2c2.5,18.4,14.7,12.7,16,13.1c1.2,0.4,0.4-30.7,0.4-30.7
		L194.8,292.7z"/>

		<ellipse id="XMLID_23_" fill="#FFD833" stroke="#BC7417" stroke-linecap="round" stroke-linejoin="round" stroke-miterlimit="10" cx="189.1" cy="303.3" rx="4" ry="5.9"/>
	<path id="XMLID_31_" fill="#DD3131" stroke="#7F190E" stroke-linecap="round" stroke-linejoin="round" stroke-miterlimit="10" d="
		M187.5,243.6c-11.1,0-16.8,18.8,0.8,20.5c-10.2,6.1-3.7,21.3,11.9,7.4c11.9,12.3,27,1.6,17.2-10.6c9.4-0.4,14.7-22.1-4.1-13.1
		C207.1,226,192,228,187.5,243.6z"/>
	<path id="XMLID_30_" fill="#D38D48" stroke="#915016" stroke-linecap="round" stroke-linejoin="round" stroke-miterlimit="10" d="
		M93.3,230.9c14.3-31.1,64.7-37.7,84.7-24.2s36,45.8,26.6,107.7c-12.3,7.4-14.3,1.6-14.3,1.6c1.6-86.4-11.5-95-25.4-100.7
		c-13.9-5.7-46.7-5.3-63.4,24.6C93.3,237.9,93.3,230.9,93.3,230.9z"/>
	<path id="XMLID_33_" fill="#D38D48" stroke="#915016" stroke-linecap="round" stroke-linejoin="round" stroke-miterlimit="10" d="
		M55.6,308.3c-9.3,9.3-4.1,47.9,24.6,67.9c28.2,19.6,117.1,14.7,133.9,1.2c16.8-13.5,18.4-52.8,12.7-61c-20.5,2-50.3,9-52,9
		c-1.6,0-98.6-12.7-100.7-13.9C72,310.3,56,307.8,55.6,308.3z"/>
	<path id="XMLID_26_" fill="#DD3131" stroke="#7F190E" stroke-linecap="round" stroke-linejoin="round" stroke-miterlimit="10" d="
		M85.1,238.3c2-16,27.4-2.9,17.2,11.5c16.8,0,14.3,27.8-4.5,11.1c-0.8,14.7-20.1,16.4-22.1-3.7c-18.4,1.2-16.4-18.8,2.9-13.5
		C61.4,230.5,79,214.1,85.1,238.3z"/>

		<ellipse id="XMLID_25_" transform="matrix(0.7491 0.6625 -0.6625 0.7491 188.5673 4.4702)" fill="#FFD833" stroke="#BC7417" stroke-linecap="round" stroke-linejoin="round" stroke-miterlimit="10" cx="88.4" cy="251.2" rx="7.8" ry="5.9"/>
	<path id="XMLID_35_" fill="#D38D48" stroke="#915016" stroke-linecap="round" stroke-linejoin="round" stroke-miterlimit="10" d="
		M178,341.4c-2.5,13.9-11.5,30.3-18.8,40.1"/>
	<path id="XMLID_28_" fill="#DD3131" stroke="#7F190E" stroke-linecap="round" stroke-linejoin="round" stroke-miterlimit="10" d="
		M62.6,271c-8.6-13.1,8.2-17.6,11.1-1.6c5.3-13.1,20.1-0.8,10.2,10.6c9.4,1.2,17.2,21.3,7,19.6s-16-4.9-16-4.9
		c-5.3,6.5-19.2,5.7-12.7-9.4C40.1,278,42.1,260.8,62.6,271z"/>

		<ellipse id="XMLID_29_" transform="matrix(0.522 0.8529 -0.8529 0.522 274.4991 73.471)" fill="#FFD833" stroke="#BC7417" stroke-linecap="round" stroke-linejoin="round" stroke-miterlimit="10" cx="71.7" cy="281.6" rx="8.1" ry="4.7"/>
	<path id="XMLID_36_" fill="#D38D48" stroke="#915016" stroke-linecap="round" stroke-linejoin="round" stroke-miterlimit="10" d="
		M189.5,343.9c-3.7,15.1-10.6,26.2-11.5,27.8"/>
	<path id="XMLID_37_" fill="#D38D48" stroke="#915016" stroke-linecap="round" stroke-linejoin="round" stroke-miterlimit="10" d="
		M159.2,353.7c14.3,3.3,40.1-4.1,40.1-4.1"/>
	<path id="XMLID_38_" fill="#D38D48" stroke="#915016" stroke-linecap="round" stroke-linejoin="round" stroke-miterlimit="10" d="
		M163.7,363.9c13.5,2,35.2-2.9,35.2-2.9"/>
	<path id="XMLID_39_" fill="#D38D48" stroke="#915016" stroke-linecap="round" stroke-linejoin="round" stroke-miterlimit="10" d="
		M79.8,324.2c-0.8,14.3,5.7,36.8,17.2,49.1"/>
	<path id="XMLID_32_" fill="#D38D48" stroke="#915016" stroke-linecap="round" stroke-linejoin="round" stroke-miterlimit="10" d="
		M74.1,296c-19.6-4.5-28.7,4.9-23.7,15.6c4.9,10.6,18.8-3.7,44.6,8.6c25.8,12.3,95.8,22.5,132.6,0.8c7.4-9.8,9-15.1-1.6-15.6
		c-10.6-0.4-42.6,14.3-59.4,14.3S113.4,309.9,74.1,296z"/>
	<path id="XMLID_40_" fill="#D38D48" stroke="#915016" stroke-linecap="round" stroke-linejoin="round" stroke-miterlimit="10" d="
		M98.2,336.1c2.9,19.2,9.4,36,19.2,44.6"/>
	<path id="XMLID_41_" fill="#D38D48" stroke="#915016" stroke-linecap="round" stroke-linejoin="round" stroke-miterlimit="10" d="
		M91.2,351.6c19.6,9,55.7,7.4,55.7,7.4"/>
	<path id="XMLID_42_" fill="#D38D48" stroke="#915016" stroke-linecap="round" stroke-linejoin="round" stroke-miterlimit="10" d="
		M81.8,357.4c13.5,15.1,52.4,15.1,52.4,15.1"/>
	<path id="XMLID_48_" fill="#9CB77B" stroke="#637C46" stroke-linecap="round" stroke-linejoin="round" stroke-miterlimit="10" d="
		M57.9,381.6c-5.6-12.5-21.3-22.7-21.3-22.7c12.5,3.7,21.3,13.4,21.3,13.4c-2.8-13-22.3-38-22.3-38c16.7,7.9,30.6,34.3,30.6,34.3
		c-1.9-8.3,15.3-21.3,15.3-21.3c-5.1,8.8-3.2,24.1-3.2,24.1c4.6-3.7,21.8-9.7,21.8-9.7c-2.3,1.9-11.6,15.8-11.6,15.8
		s16.7-5.1,15.8-3.7s-15.8,13.4-15.8,13.4s-13.9,2.3-16.7,0.5s7.9-3.2,0.9-4.2c-7-0.9-11.1,1.9-14.8,1.9
		C54.2,385.3,57.9,381.6,57.9,381.6z"/>
	<path id="XMLID_49_" fill="#9CB77B" stroke="#637C46" stroke-linecap="round" stroke-linejoin="round" stroke-miterlimit="10" d="
		M194.9,394.5c-2.3-7-15.3-17.2-16.7-18.1c7,0.9,15.8,5.1,15.8,5.1c0.5-10.7,19.9-26.9,19.9-26.9c-4.6,7.9-7.4,22.7-7.4,22.7
		c0.9-1.9,24.6-8.3,26.9-8.3c-14.8,8.3-22.3,17.6-22.7,19s4.6-0.9,7,0.9s-3.7,7.4-6.5,7.4s-6-0.9-9.7-0.5S194.9,394.5,194.9,394.5z"
		/>
</g>
</svg>
