<?xml version="1.0" encoding="utf-8"?>
<!-- Generator: Adobe Illustrator 19.0.0, SVG Export Plug-In . SVG Version: 6.00 Build 0)  -->
<!DOCTYPE svg PUBLIC "-//W3C//DTD SVG 1.0//EN" "http://www.w3.org/TR/2001/REC-SVG-20010904/DTD/svg10.dtd">
<svg version="1.0" xmlns="http://www.w3.org/2000/svg" xmlns:xlink="http://www.w3.org/1999/xlink" x="0px" y="0px"
	 viewBox="0 0 648 432" enable-background="new 0 0 648 432" xml:space="preserve">
<symbol  id="ladder" viewBox="-67 -178.7 133.9 357.4">
	<g id="XMLID_168_">

			<path id="XMLID_169_" fill="#8E8588" stroke="#5B5355" stroke-linecap="round" stroke-linejoin="round" stroke-miterlimit="10" d="
			M-5.5,178.2L-5.5,178.2c-9.2,0-16.8-7.2-17.5-16.2h0v-0.5c0-0.3,0-0.6,0-0.9v-18c0-0.3,0-0.6,0-0.9v-313.1h7.2v299.8
			c2.9-2.1,6.5-3.4,10.3-3.4h0c9.7,0,17.6,7.9,17.6,17.6v18C12,170.3,4.1,178.2-5.5,178.2z M6.2,140.8c0-6-4.9-10.9-10.9-10.9h0
			c-6,0-10.9,4.9-10.9,10.9v22.4c0,6,4.9,10.9,10.9,10.9h0c6,0,10.9-4.9,10.9-10.9V140.8z"/>
	</g>
	<path id="XMLID_167_" fill="#CEA06E" stroke="#665031" stroke-linecap="round" stroke-linejoin="round" stroke-miterlimit="10" d="
		M-62.7,141.5c2.2,0.4,66.5,4.1,66.5,4.1l62.7-19.3l-63.7-7.3L-62.7,141.5z"/>

		<polygon id="XMLID_166_" fill="#AD7F51" stroke="#665031" stroke-linecap="round" stroke-linejoin="round" stroke-miterlimit="10" points="
		66.3,126.5 66.5,119.7 2.6,113.5 2.4,120.9 	"/>

		<polygon id="XMLID_165_" fill="#AD7F51" stroke="#665031" stroke-linecap="round" stroke-linejoin="round" stroke-miterlimit="10" points="
		-63.1,141.2 -62.7,135.8 2.6,113.5 2.6,120.7 	"/>
	<path id="XMLID_164_" fill="#BCB1B5" stroke="#5B5355" stroke-linecap="round" stroke-linejoin="round" stroke-miterlimit="10" d="
		M-58.3,93.3l36.4,3.8c1.5,0.2,2.7,1.5,2.7,3v0c0,1.5-1.2,2.6-2.7,2.4l-36.4-3.8c-1.5-0.2-2.7-1.5-2.7-3v0
		C-61,94.2-59.8,93.1-58.3,93.3z"/>
	<path id="XMLID_163_" fill="#BCB1B5" stroke="#5B5355" stroke-linecap="round" stroke-linejoin="round" stroke-miterlimit="10" d="
		M-58.3,55.9l36.4,3.8c1.5,0.2,2.7,1.5,2.7,3v0c0,1.5-1.2,2.6-2.7,2.4l-36.4-3.8c-1.5-0.2-2.7-1.5-2.7-3v0
		C-61,56.8-59.8,55.7-58.3,55.9z"/>
	<path id="XMLID_162_" fill="#BCB1B5" stroke="#5B5355" stroke-linecap="round" stroke-linejoin="round" stroke-miterlimit="10" d="
		M-58.3,13.6l36.4,3.8c1.5,0.2,2.7,1.5,2.7,3v0c0,1.5-1.2,2.6-2.7,2.4L-58.3,19c-1.5-0.2-2.7-1.5-2.7-3v0
		C-61,14.5-59.8,13.5-58.3,13.6z"/>
	<path id="XMLID_161_" fill="#BCB1B5" stroke="#5B5355" stroke-linecap="round" stroke-linejoin="round" stroke-miterlimit="10" d="
		M-58.3-27.5l36.4,3.8c1.5,0.2,2.7,1.5,2.7,3v0c0,1.5-1.2,2.6-2.7,2.4L-58.3-22c-1.5-0.2-2.7-1.5-2.7-3v0
		C-61-26.5-59.8-27.6-58.3-27.5z"/>
	<path id="XMLID_160_" fill="#BCB1B5" stroke="#5B5355" stroke-linecap="round" stroke-linejoin="round" stroke-miterlimit="10" d="
		M-58.3-64.3l36.4,3.8c1.5,0.2,2.7,1.5,2.7,3v0c0,1.5-1.2,2.6-2.7,2.4l-36.4-3.8c-1.5-0.2-2.7-1.5-2.7-3v0
		C-61-63.4-59.8-64.5-58.3-64.3z"/>
	<path id="XMLID_159_" fill="#BCB1B5" stroke="#5B5355" stroke-linecap="round" stroke-linejoin="round" stroke-miterlimit="10" d="
		M-58.3-99.8l36.4,3.8c1.5,0.2,2.7,1.5,2.7,3v0c0,1.5-1.2,2.6-2.7,2.4l-36.4-3.8c-1.5-0.2-2.7-1.5-2.7-3v0
		C-61-98.9-59.8-100-58.3-99.8z"/>
	<path id="XMLID_158_" fill="#BCB1B5" stroke="#5B5355" stroke-linecap="round" stroke-linejoin="round" stroke-miterlimit="10" d="
		M-58.3-132.1l36.4,3.8c1.5,0.2,2.7,1.5,2.7,3v0c0,1.5-1.2,2.6-2.7,2.4l-36.4-3.8c-1.5-0.2-2.7-1.5-2.7-3v0
		C-61-131.2-59.8-132.3-58.3-132.1z"/>
	<path id="XMLID_157_" fill="#BCB1B5" stroke="#5B5355" stroke-linecap="round" stroke-linejoin="round" stroke-miterlimit="10" d="
		M-58.3-161.7l36.4,3.8c1.5,0.2,2.7,1.5,2.7,3l0,0c0,1.5-1.2,2.6-2.7,2.4l-36.4-3.8c-1.5-0.2-2.7-1.5-2.7-3v0
		C-61-160.7-59.8-161.8-58.3-161.7z"/>
	<g id="XMLID_133_">

			<path id="XMLID_134_" fill="#AA9DA1" stroke="#5B5355" stroke-linecap="round" stroke-linejoin="round" stroke-miterlimit="10" d="
			M-48.9,171.4L-48.9,171.4c-9.2,0-16.8-7.2-17.5-16.2h0v-0.5c0-0.3,0-0.6,0-0.9v-18c0-0.3,0-0.6,0-0.9v-313.1h7.2v299.8
			c2.9-2.1,6.5-3.4,10.3-3.4h0c9.7,0,17.6,7.9,17.6,17.6v18C-31.4,163.5-39.3,171.4-48.9,171.4z M-37.2,133.9
			c0-6-4.9-10.9-10.9-10.9h0c-6,0-10.9,4.9-10.9,10.9v22.4c0,6,4.9,10.9,10.9,10.9h0c6,0,10.9-4.9,10.9-10.9V133.9z"/>
	</g>
</symbol>
<symbol  id="person1" viewBox="-13.1 -15.7 26.3 31.5">
	<linearGradient id="XMLID_6_" gradientUnits="userSpaceOnUse" x1="-1.172334e-03" y1="-5.3028" x2="-1.172333e-03" y2="-15.572">
		<stop  offset="0.4013" style="stop-color:#4F6B7F"/>
		<stop  offset="1" style="stop-color:#4F6B7F;stop-opacity:0"/>
	</linearGradient>

		<path id="XMLID_24_" fill="url(#XMLID_6_)" stroke="#425866" stroke-linecap="round" stroke-linejoin="round" stroke-miterlimit="10" d="
		M-12.6-15.2C-12.6-9.7-7-5.1,0-5.1s12.6-4.5,12.6-10.1"/>
	<linearGradient id="XMLID_9_" gradientUnits="userSpaceOnUse" x1="-1.153908e-03" y1="-2.8458" x2="-1.153908e-03" y2="-12.2982">
		<stop  offset="3.111111e-02" style="stop-color:#7295B5"/>
		<stop  offset="1" style="stop-color:#47677E"/>
	</linearGradient>

		<path id="XMLID_23_" fill="url(#XMLID_9_)" stroke="#44667F" stroke-linecap="round" stroke-linejoin="round" stroke-miterlimit="10" d="
		M2.3-5v4.7h-4.7v-4.8c-1.4-0.5-2.4-1.5-2.4-2.7c0-1.7,2.2-3.1,4.9-3.1s4.9,1.4,4.9,3.1C4.9-6.5,3.8-5.5,2.3-5z"/>
	<linearGradient id="XMLID_10_" gradientUnits="userSpaceOnUse" x1="0.2425" y1="16.2738" x2="0.2425" y2="-8.3499">
		<stop  offset="3.111111e-02" style="stop-color:#7295B5"/>
		<stop  offset="1" style="stop-color:#47677E"/>
	</linearGradient>

		<path id="XMLID_22_" fill="url(#XMLID_10_)" stroke="#44667F" stroke-linecap="round" stroke-linejoin="round" stroke-miterlimit="10" d="
		M-8,5.8c0-5.2,3.7-9.5,8.2-9.5s8.2,4.2,8.2,9.5s-3.7,9.5-8.2,9.5S-8,11-8,5.8z"/>
</symbol>
<g id="Layer_8">
	<linearGradient id="XMLID_11_" gradientUnits="userSpaceOnUse" x1="324" y1="225.3936" x2="324" y2="11.9971">
		<stop  offset="4.847222e-02" style="stop-color:#303A40"/>
		<stop  offset="0.9941" style="stop-color:#546962"/>
	</linearGradient>
	<rect id="XMLID_127_" fill="url(#XMLID_11_)" width="648" height="432"/>
</g>
<g id="Layer_2">
	<g id="Layer_9">
		<polygon id="XMLID_8_" fill="#CEB47C" points="648,432 0,432 0,299.6 390.3,245 648,301.4 		"/>
	</g>
	<g id="XMLID_33_">
		<path id="XMLID_34_" fill="#CC534A" stroke="#5E2014" stroke-linecap="round" stroke-linejoin="round" stroke-miterlimit="10" d="
			M333.3,223.6c125.4,0,237.9,21.3,314.7,55.1v-9c-76.8-33.8-189.3-55.1-314.7-55.1c-135.9,0-256.7,25-333.3,63.8v9
			C76.6,248.6,197.4,223.6,333.3,223.6z"/>
		<path id="XMLID_79_" fill="#9B3D31" stroke="#5E2014" stroke-linecap="round" stroke-linejoin="round" stroke-miterlimit="10" d="
			M333.3,266.8c125.4,0,237.9,21.3,314.7,55.1v-43.3c-76.8-33.8-189.3-55.1-314.7-55.1c-135.9,0-256.7,25-333.3,63.8v43.3
			C76.6,291.9,197.4,266.8,333.3,266.8z"/>
	</g>
</g>
<g id="Layer_6">

		<use xlink:href="#person1"  width="26.3" height="31.5" id="XMLID_73_" x="-13.1" y="-15.7" transform="matrix(1 0 0 -1 391.5944 185.4829)" overflow="visible" opacity="0.55"/>

		<use xlink:href="#person1"  width="26.3" height="31.5" id="XMLID_16_" x="-13.1" y="-15.7" transform="matrix(1 0 0 -1 187.5357 154.7574)" overflow="visible" opacity="0.55"/>

		<use xlink:href="#person1"  width="26.3" height="31.5" id="XMLID_18_" x="-13.1" y="-15.7" transform="matrix(1 0 0 -1 286.259 67.1683)" overflow="visible" opacity="0.55"/>

		<use xlink:href="#person1"  width="26.3" height="31.5" id="XMLID_17_" x="-13.1" y="-15.7" transform="matrix(1 0 0 -1 127.411 189.6445)" overflow="visible" opacity="0.33"/>

		<use xlink:href="#person1"  width="26.3" height="31.5" id="XMLID_13_" x="-13.1" y="-15.7" transform="matrix(1 0 0 -1 460.5141 124.5462)" overflow="visible" opacity="0.55"/>

		<use xlink:href="#person1"  width="26.3" height="31.5" id="XMLID_12_" x="-13.1" y="-15.7" transform="matrix(0.8177 0 0 -0.8177 360.1948 191.8693)" overflow="visible" opacity="0.55"/>

		<use xlink:href="#person1"  width="26.3" height="31.5" id="XMLID_15_" x="-13.1" y="-15.7" transform="matrix(0.8177 0 0 -0.8177 155.1327 144.1888)" overflow="visible" opacity="0.55"/>

		<use xlink:href="#person1"  width="26.3" height="31.5" id="XMLID_14_" x="-13.1" y="-15.7" transform="matrix(0.8177 0 0 -0.8177 484.1969 142.907)" overflow="visible" opacity="0.55"/>

		<use xlink:href="#person1"  width="26.3" height="31.5" id="XMLID_21_" x="-13.1" y="-15.7" transform="matrix(0.8177 0 0 -0.8177 17.3026 112.4736)" overflow="visible" opacity="0.55"/>

		<use xlink:href="#person1"  width="26.3" height="31.5" id="XMLID_19_" x="-13.1" y="-15.7" transform="matrix(0.8177 0 0 -0.8177 550.2598 191.1553)" overflow="visible" opacity="0.55"/>
</g>
<g id="Layer_4">
	<path id="XMLID_37_" fill="none" stroke="#7A5330" stroke-linecap="round" stroke-linejoin="round" stroke-miterlimit="10" d="
		M304,400.2c9.5-7,19.8-4.9,25.9-1.6c11.1-4.5,14.4-1.2,18.5,0.8c9.1-5.4,24.7-4.5,30.9-0.4"/>
	<path id="XMLID_51_" fill="none" stroke="#7A5330" stroke-linecap="round" stroke-linejoin="round" stroke-miterlimit="10" d="
		M451.8,306.8c9.5-7,19.8-4.9,25.9-1.6c11.1-4.5,14.4-1.2,18.5,0.8c9.1-5.4,24.7-4.5,30.9-0.4"/>
	<path id="XMLID_42_" fill="none" stroke="#7A5330" stroke-linecap="round" stroke-linejoin="round" stroke-miterlimit="10" d="
		M132.4,326.5c9.5-7,19.8-4.9,25.9-1.6c11.1-4.5,14.4-1.2,18.5,0.8c9.1-5.4,24.7-4.5,30.9-0.4"/>
	<path id="XMLID_38_" fill="none" stroke="#7A5330" stroke-linecap="round" stroke-linejoin="round" stroke-miterlimit="10" d="
		M375.7,384.5c8.2-2.5,14.8-2.1,21.8,1.6"/>
	<path id="XMLID_43_" fill="none" stroke="#7A5330" stroke-linecap="round" stroke-linejoin="round" stroke-miterlimit="10" d="
		M156.3,388.2c8.2-2.5,14.8-2.1,21.8,1.6"/>
	<path id="XMLID_46_" fill="none" stroke="#7A5330" stroke-linecap="round" stroke-linejoin="round" stroke-miterlimit="10" d="
		M25.4,384.9c8.2-2.5,14.8-2.1,21.8,1.6"/>
	<path id="XMLID_47_" fill="none" stroke="#7A5330" stroke-linecap="round" stroke-linejoin="round" stroke-miterlimit="10" d="
		M42.7,379.6c8.2-2.5,14.8-2.1,21.8,1.6"/>
	<path id="XMLID_45_" fill="none" stroke="#7A5330" stroke-linecap="round" stroke-linejoin="round" stroke-miterlimit="10" d="
		M32.4,409.6c8.2-2.5,14.8-2.1,21.8,1.6"/>
	<path id="XMLID_44_" fill="none" stroke="#7A5330" stroke-linecap="round" stroke-linejoin="round" stroke-miterlimit="10" d="
		M176.5,381.2c8.2-2.5,14.8-2.1,21.8,1.6"/>
	<path id="XMLID_39_" fill="none" stroke="#7A5330" stroke-linecap="round" stroke-linejoin="round" stroke-miterlimit="10" d="
		M476.9,414.2c6.6-4.9,17.3-7.4,27.6,0.4"/>
	<path id="XMLID_40_" fill="none" stroke="#7A5330" stroke-linecap="round" stroke-linejoin="round" stroke-miterlimit="10" d="
		M497.1,410.5c6.6-4.9,17.3-7.4,27.6,0.4"/>
	<path id="XMLID_41_" fill="none" stroke="#7A5330" stroke-linecap="round" stroke-linejoin="round" stroke-miterlimit="10" d="
		M517.6,414.6c6.6-4.9,17.3-7.4,27.6,0.4"/>
	<path id="XMLID_50_" fill="none" stroke="#7A5330" stroke-linecap="round" stroke-linejoin="round" stroke-miterlimit="10" d="
		M557.6,381.2c6.6-4.9,17.3-7.4,27.6,0.4"/>
	<path id="XMLID_49_" fill="none" stroke="#7A5330" stroke-linecap="round" stroke-linejoin="round" stroke-miterlimit="10" d="
		M540.7,373c6.6-4.9,17.3-7.4,27.6,0.4"/>
	<path id="XMLID_48_" fill="none" stroke="#7A5330" stroke-linecap="round" stroke-linejoin="round" stroke-miterlimit="10" d="
		M595,387.8c6.6-4.9,17.3-7.4,27.6,0.4"/>
</g>
<g id="Layer_10">
	<linearGradient id="XMLID_64_" gradientUnits="userSpaceOnUse" x1="117.1844" y1="-75.4432" x2="314.6309" y2="307.5735">
		<stop  offset="3.572917e-02" style="stop-color:#FFF3C2"/>
		<stop  offset="1" style="stop-color:#FFF3C2;stop-opacity:0"/>
	</linearGradient>
	<path id="XMLID_2_" opacity="0.56" fill="url(#XMLID_64_)" d="M140,0h63.1l257.6,301.4c0,0-80.9,106.1-250.1,93.5
		C169.7,199,140,0,140,0z"/>

		<linearGradient id="XMLID_65_" gradientUnits="userSpaceOnUse" x1="417.4485" y1="-75.4432" x2="614.8951" y2="307.5735" gradientTransform="matrix(-1 0 0 1 996.9976 0)">
		<stop  offset="3.572917e-02" style="stop-color:#FFF3C2"/>
		<stop  offset="1" style="stop-color:#FFF3C2;stop-opacity:0"/>
	</linearGradient>
	<path id="XMLID_26_" opacity="0.56" fill="url(#XMLID_65_)" d="M556.8,0l-63.1,0L236.1,301.4c0,0,80.9,106.1,250.1,93.5
		C527.1,199,556.8,0,556.8,0z"/>
</g>
<g id="Layer_5">
	<path id="XMLID_52_" fill="#91572C" stroke="#66301F" stroke-linecap="round" stroke-linejoin="round" stroke-miterlimit="10" d="
		M352.5,83.2c-8.7-2.1-13.2,2.1-10.2,7.2c3,5.1,12.4,6.2,13.6,1.1C357.2,86.4,352.5,83.2,352.5,83.2z"/>

		<ellipse id="XMLID_20_" transform="matrix(0.8682 -0.4962 0.4962 0.8682 5.797 192.0813)" fill="#91572C" stroke="#66301F" stroke-linecap="round" stroke-linejoin="round" stroke-miterlimit="10" cx="364.5" cy="85.1" rx="13.9" ry="16"/>
	<path id="XMLID_53_" fill="#F0BA96" stroke="#C47541" stroke-linecap="round" stroke-linejoin="round" stroke-miterlimit="10" d="
		M377.2,79.3c4,7.1,2.5,15.5-3.4,18.9c-5.9,3.4-18.2,3.1-16.4-6c-4-7.1-3.2-15.8,2.8-19.2C366.1,69.6,373.1,72.3,377.2,79.3z"/>
	<path id="XMLID_54_" fill="#F0BA96" stroke="#C47541" stroke-linecap="round" stroke-linejoin="round" stroke-miterlimit="10" d="
		M357.3,87.4c-2.5-1.7-4.8,1.2-3.8,3.1c1.1,1.9,4.6,3.6,5.9,1.4"/>
	<path id="XMLID_56_" fill="#F0BA96" stroke="#C47541" stroke-linecap="round" stroke-linejoin="round" stroke-miterlimit="10" d="
		M369.9,83.2c1.4-0.1,3.3-0.5,3.1,1.4"/>

		<ellipse id="XMLID_55_" transform="matrix(-0.8789 0.477 -0.477 -0.8789 724.1003 -16.3797)" fill="#231F20" cx="364.1" cy="83.7" rx="0.8" ry="2.3"/>
	<path id="XMLID_71_" fill="#F0BA96" stroke="#C47541" stroke-linecap="round" stroke-linejoin="round" stroke-miterlimit="10" d="
		M234.4,120.1c-11-6.1-19.9-16.6-24.1-24.9c1.8-3.5,11.3,2.7,11.3,2.7s11.3,14.4,20.4,19.6C237.9,119.6,234.4,120.1,234.4,120.1z"/>

		<ellipse id="XMLID_58_" transform="matrix(-0.8789 0.477 -0.477 -0.8789 735.298 -27.2719)" fill="#231F20" cx="371.1" cy="79.7" rx="0.8" ry="2.3"/>
	<path id="XMLID_59_" fill="none" stroke="#231F20" stroke-linecap="round" stroke-linejoin="round" stroke-miterlimit="10" d="
		M362.2,78c-1.2-0.4-2.8,1.4-2.4,2.6"/>
	<path id="XMLID_75_" fill="#F0BA96" stroke="#C47541" stroke-linecap="round" stroke-linejoin="round" stroke-miterlimit="10" d="
		M240.7,116.1c-11-6.1-19.9-16.6-24.1-24.9c1.8-3.5,11.3,2.7,11.3,2.7s1.7,14.2,18.1,18.9C241.9,115,240.7,116.1,240.7,116.1z"/>
	<path id="XMLID_60_" fill="none" stroke="#231F20" stroke-linecap="round" stroke-linejoin="round" stroke-miterlimit="10" d="
		M370.9,75c-0.4-1.2-2.8-1.3-3.5-0.3"/>
	<path id="XMLID_61_" fill="none" stroke="#231F20" stroke-linecap="round" stroke-linejoin="round" stroke-miterlimit="10" d="
		M365,89.6c1.5,2.2,6.8,1.9,6.8,1.9"/>
	<path id="XMLID_67_" fill="#BF567E" stroke="#6D393A" stroke-linecap="round" stroke-linejoin="round" stroke-miterlimit="10" d="
		M237.5,116.4c0.9-3.3,3.7-7.2,6.7-6.9c39.7,17.8,63.1,18.4,63.1,18.4c-3.9,7.2-6.7,10-7.4,10.2C299,138.1,237.3,116.4,237.5,116.4z
		"/>
	<path id="XMLID_62_" fill="#F0BA96" stroke="#C47541" stroke-linecap="round" stroke-linejoin="round" stroke-miterlimit="10" d="
		M378.1,96.6c15.4-9.6,33-25.5,36.8-30.8c3.8-2.6,5.7-0.6,5.7-0.6c-1.7,5.6-25.9,42.3-43.3,44.8c-4.2-4.5-5.5-8-5.5-8L378.1,96.6z"
		/>
	<path id="XMLID_70_" fill="#D96893" stroke="#6D393A" stroke-linecap="round" stroke-linejoin="round" stroke-miterlimit="10" d="
		M376,99.1c4.9,10.1,6.2,19.4-5.7,26c-6.8,10.3-26.4,19.9-39.2,21.1c-18.7,5.6-68.8,3-100.7-25.6c0.9-4.3,4.9-8.3,6.2-7.8
		c47.9,22.5,58.6,20,58.6,20c12.6-13.4,21.2-16,32.3-4.6c10.4-4.6,23.4-21.2,23.4-21.2S376.1,99,376,99.1z"/>
	<path id="XMLID_74_" fill="#D96893" stroke="#6D393A" stroke-linecap="round" stroke-linejoin="round" stroke-miterlimit="10" d="
		M214.8,89.2c-3.7-7.1-5-10.3-2.7-11.8c2.3-1.5,5.5,7,8,8.6s13.5,5,13.1,7.1c-0.3,2.2-0.8,9.1-1.3,10.1c-4.3-6.1-13.8-9.6-13.8-9.6
		C217.6,93.1,214.8,89.2,214.8,89.2z"/>
	<path id="XMLID_69_" fill="#F0BA96" stroke="#C47541" stroke-linecap="round" stroke-linejoin="round" stroke-miterlimit="10" d="
		M349,112.9c-4,5.7,0.1,9.8,3.9,10.8s13.1-2.6,13.1-11.8S349,112.9,349,112.9z"/>
	<path id="XMLID_57_" fill="#F0BA96" stroke="#C47541" stroke-linecap="round" stroke-linejoin="round" stroke-miterlimit="10" d="
		M349.4,115c-0.8-7.4,0.9-14,8.3-14.8c7.4-0.8,24.1-23,26.5-26.4s11-14.9,11-14.9c0.9-0.7,6.8-0.2,6.7,2.1
		c-0.1,2.3-21.8,37.4-33.4,48.1c-7.9,7.2-9.8,9.3-9.8,9.3"/>
	<path id="XMLID_72_" fill="#D96893" stroke="#6D393A" stroke-linecap="round" stroke-linejoin="round" stroke-miterlimit="10" d="
		M208.5,93.2c-3.7-7.1-5-10.3-2.7-11.8c2.3-1.5,5.5,7,8,8.6s13.5,5,13.1,7.1c-0.3,2.2,0.4,7.5-0.1,8.5c-4.3-6.1-15-8-15-8
		C211.3,97,208.5,93.2,208.5,93.2z"/>
	<path id="XMLID_76_" fill="none" stroke="#EADCE0" stroke-linecap="round" stroke-linejoin="round" stroke-miterlimit="10" d="
		M394,52.2c4.3-4.9,20.4-38.5,21.4-52.2"/>
	<path id="XMLID_77_" fill="none" stroke="#EADCE0" stroke-linecap="round" stroke-linejoin="round" stroke-miterlimit="10" d="
		M446.1,66.7c4.3-4.9,27-37.9,29.7-65.6"/>
	<path id="XMLID_28_" fill="#C9C3C1" stroke="#726E6E" stroke-linecap="round" stroke-linejoin="round" stroke-miterlimit="10" d="
		M451.8,68.3l-71-19.1v9.1l70.3,19.2l0-0.2c0.2,0,0.4,0.1,0.6,0.1c2.1,0,3.9-2,3.9-4.6S453.9,68.3,451.8,68.3z"/>
	<path id="XMLID_66_" fill="#F0BA96" stroke="#C47541" stroke-linecap="round" stroke-linejoin="round" stroke-miterlimit="10" d="
		M402.2,53.6c4-1,10.2-0.5,11.4,2.4c1.2,2.9,1.5,7.3-3.2,7.1s-7-5.5-8.2-6.3C401,55.9,400.8,53.9,402.2,53.6z"/>

		<ellipse id="XMLID_63_" fill="#A39B99" stroke="#726E6E" stroke-linecap="round" stroke-linejoin="round" stroke-miterlimit="10" cx="380.8" cy="53.8" rx="3.9" ry="4.6"/>
	<path id="XMLID_68_" fill="#F0BA96" stroke="#C47541" stroke-linecap="round" stroke-linejoin="round" stroke-miterlimit="10" d="
		M422.1,59.1c4-1,10.2-0.5,11.4,2.4s1.5,7.3-3.2,7.1s-7-5.5-8.2-6.3C420.9,61.4,420.7,59.4,422.1,59.1z"/>
</g>
<g id="Layer_3">

		<use xlink:href="#ladder"  width="133.9" height="357.4" id="XMLID_3_" x="-67" y="-178.7" transform="matrix(1 0 0 -1 102.197 205.6766)" overflow="visible"/>

		<use xlink:href="#ladder"  width="133.9" height="357.4" id="XMLID_7_" x="-67" y="-178.7" transform="matrix(-1 0 0 -1 560.5557 205.6766)" overflow="visible"/>
</g>
<g id="Layer_7">
	<path id="XMLID_117_" fill="#BC2B2B" stroke="#8C0F0F" stroke-linecap="round" stroke-linejoin="round" stroke-miterlimit="10" d="
		M353.1,291.3c-10.8,7.2-27.1,1-27.1,1c-2.1,1-1.9,5.8-1.9,5.8c1.5,1.4,8.3,6.8,16.8,7.9C349.5,307,353.1,291.3,353.1,291.3z"/>
	<path id="XMLID_116_" fill="#BC2B2B" stroke="#8C0F0F" stroke-linecap="round" stroke-linejoin="round" stroke-miterlimit="10" d="
		M376.6,296.4c3.6,10.5,4.7,27.9,4.1,28.5c-0.7,0.6-48.1,1-48.1,1s12.1-32,17.1-33.7C354.8,290.6,376.6,296.4,376.6,296.4z"/>
	<path id="XMLID_100_" fill="#343538" stroke="#2A2B2D" stroke-linecap="round" stroke-linejoin="round" stroke-miterlimit="10" d="
		M237,361.3c0,6.3,2.3,11.9,6,15.5c2.6,2.5,8.8,5.1,12.3,5.1c8.4,0,18-9.4,18-20.1s-3.2-22.1-18.9-22.1
		C246,339.6,237,350.5,237,361.3z"/>

		<ellipse id="XMLID_101_" fill="#525459" stroke="#2A2B2D" stroke-linecap="round" stroke-linejoin="round" stroke-miterlimit="10" cx="260" cy="363.1" rx="15.3" ry="19.5"/>
	<path id="XMLID_118_" fill="#D3F2F4" stroke="#4E8C91" stroke-linecap="round" stroke-linejoin="round" stroke-miterlimit="10" d="
		M314.8,294.4c-5.4-1.8,1.7-9.9,5.6-1.5c1-7.6,10.4-1.5,4.3,4.7c5.8-0.4,5.6,8.1-1.3,6.3C316.8,302.5,314.7,294.7,314.8,294.4z"/>
	<path id="XMLID_98_" fill="#343538" stroke="#2A2B2D" stroke-linecap="round" stroke-linejoin="round" stroke-miterlimit="10" d="
		M387.1,354.6c0,6.3,2.3,11.9,6,15.5c2.6,2.5,8.8,5.1,12.3,5.1c8.4,0,18-9.4,18-20.1s-3.2-22.1-18.9-22.1
		C396.1,333,387.1,343.9,387.1,354.6z"/>
	<path id="XMLID_25_" fill="#1D2944" stroke="#637EAD" stroke-linecap="round" stroke-linejoin="round" stroke-miterlimit="10" d="
		M325.9,363.1c7.2,3.9,25.6,9.7,25.6,9.7l12.2-4.9c0,0-2.5-29.7-18.4-27.8S323.6,352.1,325.9,363.1z"/>
	<path id="XMLID_96_" fill="#343538" stroke="#2A2B2D" stroke-linecap="round" stroke-linejoin="round" stroke-miterlimit="10" d="
		M313.5,370.1c0,6.3,2.3,11.9,6,15.5c2.6,2.5,8.8,5.1,12.3,5.1c8.4,0,18-9.4,18-20.1s-3.2-22.1-18.9-22.1
		C322.5,348.4,313.5,359.3,313.5,370.1z"/>

		<ellipse id="XMLID_84_" fill="#6592D3" stroke="#374C72" stroke-linecap="round" stroke-linejoin="round" stroke-miterlimit="10" cx="264.1" cy="301.6" rx="11.5" ry="8.4"/>
	<g id="XMLID_27_">
		<path id="XMLID_36_" fill="#F3F4D3" stroke="#89914E" stroke-linecap="round" stroke-linejoin="round" stroke-miterlimit="10" d="
			M314.8,296.4c-7.5,0-13.6,5.9-13.6,13.2c0,7.3,6.1,13.2,13.6,13.2s13.6-5.9,13.6-13.2C328.3,302.3,322.3,296.4,314.8,296.4z
			 M314.8,320c-5.9,0-10.6-4.6-10.6-10.3c0-5.7,4.8-10.3,10.6-10.3c5.9,0,10.6,4.6,10.6,10.3C325.4,315.3,320.6,320,314.8,320z"/>
	</g>
	<path id="XMLID_92_" fill="#6592D3" stroke="#374C72" stroke-linecap="round" stroke-linejoin="round" stroke-miterlimit="10" d="
		M408.8,264.7c-4.7-4.1-38.1-14.7-45.7-14.9c-7.5-0.2-44.6-1.8-71.4,8.8c-1.3,0.9-21.4,36-23.7,43.7l9.2,0.2
		c0,0,11.5-34.5,17.1-39.5c0,0,22.7,1.3,58.3,11c-2.1,5.8-9,25.6-12.2,41.6l9.2,2.5c0,0,4.4-29.5,8.5-42.9c3.7-0.6,25.3-4,48.5-5.3
		c0,0,11.7,32.4,14.9,40.6c0,0,0.7,0.5,6.7-0.9C427.7,302.8,413.5,268.8,408.8,264.7z"/>
	<path id="XMLID_85_" fill="#5173AD" stroke="#2D3F69" stroke-linecap="round" stroke-linejoin="round" stroke-miterlimit="10" d="
		M348.6,319c-17.2-11.1-47.9-17.5-82.3-16.2c-28.8,7-43.1,11.7-43.1,11.7c-8.1-1.3-11,9.7-7.2,19.4c3.8,9.7,6.3,11.9,6.3,11.9
		c0.2,12.2,6.8,22.8,7.4,23.4c46,11.5,74.8,11.5,78,11.1c3.2-0.4,11.3-1.6,11.3-1.6c-0.7-20.7,2-28.8,18.3-29.7
		c16.4-0.9,16.5,21,16.7,23c33.3-7.4,39.2-8.8,39.2-8.8c1.3-22.3,13.8-25.3,21-25.2c7.2,0.2,9.9,18.3,9.9,18.3l10.1-4.5
		c2.7-4.5,0.9-13.1-0.5-14.4c0.4-18.3-1.4-28-5.6-29.1c-34.2,7.4-70.6,14.6-70.6,14.6L348.6,319z"/>

		<ellipse id="XMLID_93_" transform="matrix(-0.9664 0.2569 -0.2569 -0.9664 530.1929 593.6738)" fill="#FFE564" stroke="#AF9114" stroke-linecap="round" stroke-linejoin="round" stroke-miterlimit="10" cx="226.3" cy="331.5" rx="6.7" ry="9.4"/>

		<ellipse id="XMLID_91_" fill="#525459" stroke="#2A2B2D" stroke-linecap="round" stroke-linejoin="round" stroke-miterlimit="10" cx="336.6" cy="371.9" rx="15.3" ry="19.5"/>

		<ellipse id="XMLID_94_" fill="#BFB0B5" stroke="#7C7073" stroke-linecap="round" stroke-linejoin="round" stroke-miterlimit="10" cx="338.2" cy="372.6" rx="8.7" ry="11.1"/>
	<path id="XMLID_95_" fill="#BFB0B5" stroke="#7C7073" stroke-linecap="round" stroke-linejoin="round" stroke-miterlimit="10" d="
		M250.3,345.9c-10.4-1.4-16.4-8.6-16.7,2.7c0,7.5,5.6,11,15.3,12.9c11.3,2.2,21.9-0.4,21.9-7.2C271.5,344.5,268.2,347.5,250.3,345.9
		z"/>
	<path id="XMLID_103_" fill="#5173AD" stroke="#2D3F69" stroke-linecap="round" stroke-linejoin="round" stroke-miterlimit="10" d="
		M270,344c-4.9-12.2,0-25,17.6-19.6"/>
	<path id="XMLID_102_" fill="#5173AD" stroke="#2D3F69" stroke-linecap="round" stroke-linejoin="round" stroke-miterlimit="10" d="
		M399.1,315c2,1.6,2.2,17.6,1.3,20.7c-0.9,3.1-11.5,3.2-10.8,28"/>
	<path id="XMLID_104_" fill="#5173AD" stroke="#2D3F69" stroke-linecap="round" stroke-linejoin="round" stroke-miterlimit="10" d="
		M386.9,329.4c5.6-0.4,10.1-1.8,10.1-1.8l-0.9-4.5"/>

		<ellipse id="XMLID_90_" transform="matrix(-0.9664 0.2569 -0.2569 -0.9664 643.0259 599.3996)" fill="#FFE564" stroke="#AF9114" stroke-linecap="round" stroke-linejoin="round" stroke-miterlimit="10" cx="282.4" cy="341.7" rx="8.2" ry="9.4"/>

		<ellipse id="XMLID_99_" fill="#525459" stroke="#2A2B2D" stroke-linecap="round" stroke-linejoin="round" stroke-miterlimit="10" cx="410.1" cy="356.4" rx="15.3" ry="19.5"/>
	<path id="XMLID_106_" fill="#5173AD" stroke="#2D3F69" stroke-linecap="round" stroke-linejoin="round" stroke-miterlimit="10" d="
		M360.3,321.8c1.3,6.7,0,43.7-0.9,48.4"/>

		<ellipse id="XMLID_97_" fill="#BFB0B5" stroke="#7C7073" stroke-linecap="round" stroke-linejoin="round" stroke-miterlimit="10" cx="410.4" cy="356.6" rx="8.7" ry="11.1"/>
	<path id="XMLID_107_" fill="#5173AD" stroke="#2D3F69" stroke-linecap="round" stroke-linejoin="round" stroke-miterlimit="10" d="
		M300.8,327.2c12.4-2.9,38.1-9,38.1-9"/>
	<path id="XMLID_123_" fill="#F4B990" stroke="#603416" stroke-linecap="round" stroke-linejoin="round" stroke-miterlimit="10" d="
		M402.9,271.2c-0.1-10.6,2.9-12.9,5.4-14.2c2.5-1.3,2.2,3.6-0.1,6c9.7-3.6,22-0.6,19.5,3.1c-2.5,3.6-14.5,3.1-19.9,7.1
		C405,274.6,402.9,271.2,402.9,271.2z"/>
	<path id="XMLID_124_" fill="#6592D3" stroke="#374C72" stroke-linecap="round" stroke-linejoin="round" stroke-miterlimit="10" d="
		M387.7,268.5c5.6,13.4,10.5,48,10.5,48c5.4,0.7,8.8-0.7,8.8-0.7c-2.9-10.5-13.4-48.1-14.1-48.5S387.7,268.5,387.7,268.5z"/>

		<ellipse id="XMLID_89_" fill="#8CA9D3" stroke="#374C72" stroke-linecap="round" stroke-linejoin="round" stroke-miterlimit="10" cx="352.7" cy="322.1" rx="11.5" ry="8.4"/>

		<line id="XMLID_29_" fill="#BFB0B5" stroke="#7C7073" stroke-linecap="round" stroke-linejoin="round" stroke-miterlimit="10" x1="241.9" y1="343.9" x2="243.6" y2="360"/>
	<path id="XMLID_119_" fill="#F4B990" stroke="#603416" stroke-linecap="round" stroke-linejoin="round" stroke-miterlimit="10" d="
		M318.8,295.6c-8.4-3.4-9.9-0.3-10.6,1.1c-0.7,1.4-0.6,6,4.6,6C318,302.7,321.9,296.9,318.8,295.6z"/>

		<line id="XMLID_30_" fill="#BFB0B5" stroke="#7C7073" stroke-linecap="round" stroke-linejoin="round" stroke-miterlimit="10" x1="250.3" y1="345.9" x2="250" y2="361.4"/>
	<path id="XMLID_31_" fill="#BFB0B5" stroke="#7C7073" stroke-linecap="round" stroke-linejoin="round" stroke-miterlimit="10" d="
		M260.7,347.2c-0.4,0.6-2.7,14.6-2.7,14.6"/>
	<path id="XMLID_120_" fill="#BC2B2B" stroke="#8C0F0F" stroke-linecap="round" stroke-linejoin="round" stroke-miterlimit="10" d="
		M378,290c8.9-4.5,19.2-14,20-15.7c3.8-1.3,6.1,3.2,6.1,3.2c-6.8,14.7-20.1,25.5-29.2,29.6C369.2,302,371.5,293.8,378,290z"/>
	<linearGradient id="XMLID_80_" gradientUnits="userSpaceOnUse" x1="336.4167" y1="275.5305" x2="389.7947" y2="271.6826">
		<stop  offset="0" style="stop-color:#7FCCF0"/>
		<stop  offset="0.1738" style="stop-color:#7FF39E"/>
		<stop  offset="0.2899" style="stop-color:#7FF32D"/>
		<stop  offset="0.2963" style="stop-color:#8EF32F"/>
		<stop  offset="0.3135" style="stop-color:#B1F332"/>
		<stop  offset="0.3318" style="stop-color:#CDF336"/>
		<stop  offset="0.3513" style="stop-color:#E3F338"/>
		<stop  offset="0.3725" style="stop-color:#F3F33A"/>
		<stop  offset="0.3969" style="stop-color:#FCF33B"/>
		<stop  offset="0.4311" style="stop-color:#FFF33B"/>
		<stop  offset="0.5653" style="stop-color:#FDC70C"/>
		<stop  offset="0.7441" style="stop-color:#F3903F"/>
		<stop  offset="0.8699" style="stop-color:#ED683C"/>
		<stop  offset="1" style="stop-color:#E93E3A"/>
	</linearGradient>

		<path id="XMLID_125_" fill="url(#XMLID_80_)" stroke="#662012" stroke-linecap="round" stroke-linejoin="round" stroke-miterlimit="10" d="
		M389.5,278.6c0.8-1.2,1.2-2.7,1.2-4.4c0-2.7-1.2-5-3.1-6.4c0.2-0.8,0.4-1.6,0.4-2.4c0-4.6-3.8-8.3-8.4-8.3c-1.9,0-3.6,0.6-5,1.6
		c-1-3.8-4.1-6.5-7.8-6.5c-3.3,0-6.1,2.2-7.4,5.4c-1.4-1-3-1.6-4.9-1.6c-3.8,0-7.1,2.7-8,6.3c-5,0.3-8.9,4.3-8.9,9.1
		c0,2.3,0.9,4.4,2.4,6.1c-1.1,1.1-1.8,2.5-1.8,4.1c0,3.5,3.4,6.3,7.6,6.3c0.1,0,0.2,0,0.3,0c-0.1,0.5-0.2,1.1-0.2,1.6
		c0,3.3,2.6,5.9,5.9,5.9s5.9-2.6,5.9-5.9c0-2.9-2-5.3-4.7-5.8c0.3-0.6,0.4-1.3,0.4-2.1c0-0.9-0.2-1.8-0.7-2.6
		c2.2-1.5,3.8-3.8,4.1-6.5c2.1-0.6,3.8-2,4.9-3.8c1.4,1.3,3.2,2.1,5.1,2.1c1.9,0,3.7-0.8,5.1-2c0.9,2,2.6,3.6,4.7,4.4
		c0,0.3-0.1,0.7-0.1,1.1c0,1.8,0.6,3.4,1.5,4.7c-1,1.3-1.6,2.9-1.6,4.6c0,4.1,3.4,7.4,7.6,7.4c4.2,0,7.6-3.3,7.6-7.4
		C391.5,281.6,390.7,279.9,389.5,278.6z"/>
	<path id="XMLID_114_" fill="#D3F2F4" stroke="#4E8C91" stroke-linecap="round" stroke-linejoin="round" stroke-miterlimit="10" d="
		M353.2,288.8c-6.7-1-10.9,4.2-7.2,5.9c3.7,1.7,5.9,0.7,5.9,0.7c-6.3,6,2.9,14.5,9.2,5.3c-2.9,10.2,13.6,11.5,9.9-1.1
		c9.5,6,17.5-8.6,5.2-9C363.5,289.4,353.2,288.8,353.2,288.8z"/>

		<circle id="XMLID_109_" fill="#D8EFED" stroke="#697A79" stroke-linecap="round" stroke-linejoin="round" stroke-miterlimit="10" cx="365.6" cy="281.6" r="15.7"/>

		<circle id="XMLID_110_" fill="#D34E40" stroke="#772417" stroke-linecap="round" stroke-linejoin="round" stroke-miterlimit="10" cx="365.4" cy="283.4" r="3.9"/>
	<path id="XMLID_122_" fill="#D3F2F4" stroke="#4E8C91" stroke-linecap="round" stroke-linejoin="round" stroke-miterlimit="10" d="
		M398.5,278.5c-3.9-2.5-7.6-8.9-3.3-10.8c4.3-1.9,4.7,5.3,4.7,5.3c-1.5-6.5,12.9-4.7,4,2.4c5.4-7,14.2,10.6-2.1,5.1
		C398.7,278.5,398.5,278.5,398.5,278.5z"/>
	<circle id="XMLID_111_" fill="#D34E40" cx="375.5" cy="283.5" r="1.9"/>
	<circle id="XMLID_113_" fill="#D34E40" cx="354.6" cy="283.5" r="1.9"/>
	<ellipse id="XMLID_112_" fill="#231F20" cx="371.7" cy="279.1" rx="0.9" ry="2.5"/>
	<ellipse id="XMLID_115_" fill="#231F20" cx="359.2" cy="279.1" rx="0.9" ry="2.5"/>
	<path id="XMLID_121_" fill="#D34E40" stroke="#772417" stroke-linecap="round" stroke-linejoin="round" stroke-miterlimit="10" d="
		M365.6,289c2.9,0.5,6.8-4.3,8.2-1.9c1.8,3.1-1,7.9-8.8,7.4c-7.8-0.6-9.9-4.9-7.9-8.1C359.1,283.2,360.7,288.2,365.6,289z"/>
	<path id="XMLID_126_" fill="none" stroke="#772417" stroke-linecap="round" stroke-linejoin="round" stroke-miterlimit="10" d="
		M358.9,288c1.6,4.4,9.2,6.3,13.4,0.7"/>
</g>
</svg>
