<?xml version="1.0" encoding="utf-8"?>
<!-- Generator: Adobe Illustrator 18.1.1, SVG Export Plug-In . SVG Version: 6.00 Build 0)  -->
<!DOCTYPE svg PUBLIC "-//W3C//DTD SVG 1.1//EN" "http://www.w3.org/Graphics/SVG/1.1/DTD/svg11.dtd">
<svg version="1.1" xmlns="http://www.w3.org/2000/svg" xmlns:xlink="http://www.w3.org/1999/xlink" x="0px" y="0px" width="648px"
	 height="432px" viewBox="0 0 648 432" style="enable-background:new 0 0 648 432;" xml:space="preserve">
<symbol  id="grill_2_" viewBox="-37.525 -10.8 75.05 21.599">

		<path id="XMLID_40_" style="fill:none;stroke:#231F20;stroke-width:2;stroke-linecap:round;stroke-linejoin:round;stroke-miterlimit:10;" d="
		M36.525,0C36.525-5.412,20.172-9.8,0-9.8S-36.525-5.412-36.525,0S-20.172,9.799,0,9.799S36.525,5.412,36.525,0z"/>

		<path id="XMLID_39_" style="fill:none;stroke:#231F20;stroke-width:2;stroke-linecap:round;stroke-linejoin:round;stroke-miterlimit:10;" d="
		M29.493,0c0-3.474-13.204-6.29-29.493-6.29S-29.493-3.474-29.493,0S-16.289,6.289,0,6.289S29.493,3.473,29.493,0z"/>

		<path id="XMLID_33_" style="fill:none;stroke:#231F20;stroke-width:1.5;stroke-linecap:round;stroke-linejoin:round;stroke-miterlimit:10;" d="
		M21.382,0C21.382-1.955,11.809-3.54,0-3.54S-21.382-1.955-21.382,0S-11.809,3.539,0,3.539S21.382,1.954,21.382,0z"/>

		<path id="XMLID_32_" style="fill:#231F20;stroke:#231F20;stroke-width:1.5;stroke-linecap:round;stroke-linejoin:round;stroke-miterlimit:10;" d="
		M9.242,0c0-0.845-4.138-1.53-9.243-1.53S-9.243-0.845-9.243,0S-5.105,1.53,0,1.53S9.242,0.845,9.242,0z"/>
</symbol>
<symbol  id="knob" viewBox="-14.041 -14.219 28.082 28.438">
	<path id="XMLID_89_" style="fill:#B9C1C6;stroke:#414C54;stroke-linecap:round;stroke-linejoin:round;stroke-miterlimit:10;" d="
		M13.541,0.178c0-7.478-6.062-13.541-13.541-13.541S-13.541-7.301-13.541,0.178S-7.478,13.719,0,13.719S13.541,7.656,13.541,0.178z"
		/>

		<polygon id="XMLID_88_" style="fill:#B9C1C6;stroke:#414C54;stroke-linecap:round;stroke-linejoin:round;stroke-miterlimit:10;" points="
		3.208,-13.719 -3.563,-13.719 -3.563,13.719 3.208,13.719 	"/>
</symbol>
<g id="Layer_2">
	<rect id="XMLID_2_" style="fill:#B79783;" width="648" height="432"/>
</g>
<g id="Layer_4">
	<rect id="XMLID_14_" y="101.76" style="fill:#996F58;stroke:#72503F;stroke-miterlimit:10;" width="475.387" height="166.684"/>

		<rect id="XMLID_24_" x="119.104" y="162.796" style="fill:#B79474;stroke:#72503F;stroke-miterlimit:10;" width="33.415" height="10.608"/>

		<rect id="XMLID_87_" x="214.574" y="198.332" style="fill:#B79474;stroke:#72503F;stroke-miterlimit:10;" width="33.415" height="10.608"/>

		<rect id="XMLID_90_" x="234.24" y="183.583" style="fill:#B79474;stroke:#72503F;stroke-miterlimit:10;" width="33.415" height="10.608"/>

		<rect id="XMLID_92_" x="417.883" y="145.119" style="fill:#B79474;stroke:#72503F;stroke-miterlimit:10;" width="33.415" height="10.608"/>

		<rect id="XMLID_91_" x="194.909" y="183.583" style="fill:#B79474;stroke:#72503F;stroke-miterlimit:10;" width="33.415" height="10.608"/>

		<rect id="XMLID_86_" x="15.147" y="168.63" style="fill:#B79474;stroke:#72503F;stroke-miterlimit:10;" width="33.415" height="10.608"/>

		<rect id="XMLID_26_" x="103.192" y="147.414" style="fill:#B79474;stroke:#72503F;stroke-miterlimit:10;" width="33.415" height="10.608"/>
</g>
<g id="Layer_6">
	<path id="XMLID_51_" style="fill:#77533A;stroke:#443428;stroke-linecap:round;stroke-linejoin:round;stroke-miterlimit:10;" d="
		M429.202,252.615c-1.892,1.892-71.898,110.212-71.898,110.212V432c0,0,33.225,0,46.828,0c0-2.951,36.895-154.316,35.949-155.735
		C439.135,274.846,429.202,252.615,429.202,252.615z"/>

		<rect id="XMLID_47_" x="1.037" y="360.462" style="fill:#BA8254;stroke:#774A28;stroke-linecap:round;stroke-linejoin:round;stroke-miterlimit:10;" width="355.794" height="71.538"/>

		<rect id="XMLID_52_" y="351.948" style="fill:#A0AAA3;stroke:#5F6B62;stroke-linecap:round;stroke-linejoin:round;stroke-miterlimit:10;" width="351.627" height="17.502"/>

		<rect id="XMLID_53_" x="1.124" y="380.328" style="fill:#A87148;stroke:#774A28;stroke-linecap:round;stroke-linejoin:round;stroke-miterlimit:10;" width="141.431" height="51.671"/>

		<rect id="XMLID_54_" x="1.124" y="389.512" style="fill:#BA8254;stroke:#774A28;stroke-linecap:round;stroke-linejoin:round;stroke-miterlimit:10;" width="131.879" height="42.488"/>

		<rect id="XMLID_55_" x="183.234" y="380.802" style="fill:#A87148;stroke:#774A28;stroke-linecap:round;stroke-linejoin:round;stroke-miterlimit:10;" width="158.933" height="51.198"/>

		<rect id="XMLID_56_" x="195.51" y="390.811" style="fill:#BA8254;stroke:#774A28;stroke-linecap:round;stroke-linejoin:round;stroke-miterlimit:10;" width="134.38" height="41.189"/>
	<path id="XMLID_57_" style="fill:#838E86;stroke:#555E57;stroke-linecap:round;stroke-linejoin:round;stroke-miterlimit:10;" d="
		M429.675,242.681c-1.892,0.946-78.52,110.685-78.52,110.685l0.473,16.083l78.047-110.685V242.681z"/>
	<path id="XMLID_58_" style="fill:#C1CEBC;stroke:#949E90;stroke-linecap:round;stroke-linejoin:round;stroke-miterlimit:10;" d="
		M0.21,242.128h429.675l-78.047,109.266H0.21C0.21,351.395-0.263,241.655,0.21,242.128z"/>
</g>
<g id="Layer_5">
	<path id="XMLID_19_" style="fill:#B9C1C6;stroke:#414C54;stroke-linecap:round;stroke-linejoin:round;stroke-miterlimit:10;" d="
		M445.012,181.291c0.713-1.425,23.162-11.759,23.162-11.759H648v14.61L445.012,181.291z"/>
	<path id="XMLID_21_" style="fill:#E2E9ED;stroke:#414C54;stroke-linecap:round;stroke-linejoin:round;stroke-miterlimit:10;" d="
		M648,245.433v-64.141c0,0-130.651,0-202.988,0c-11.403,9.978-7.84,52.026-3.92,63.785C479.577,246.858,648,245.433,648,245.433z"/>
	<path id="XMLID_41_" style="fill:#E2E9ED;stroke:#414C54;stroke-linecap:round;stroke-linejoin:round;stroke-miterlimit:10;" d="
		M442.458,241.783l-69.591,109.648H648c0,0,1.184-108.969,0-108.969S442.458,242.123,442.458,241.783z"/>

		<rect id="XMLID_20_" x="547.638" y="190.2" style="fill:#B9C1C6;stroke:#414C54;stroke-linecap:round;stroke-linejoin:round;stroke-miterlimit:10;" width="89.236" height="39.91"/>

		<use xlink:href="#knob"  width="28.082" height="28.438" id="XMLID_22_" x="-14.041" y="-14.219" transform="matrix(1 0 0 -1.0087 518.7748 214.7332)" style="overflow:visible;"/>

		<use xlink:href="#knob"  width="28.082" height="28.438" id="XMLID_27_" x="-14.041" y="-14.219" transform="matrix(0.8005 0.5994 0.5994 -0.8005 470.3125 214.6091)" style="overflow:visible;"/>

		<use xlink:href="#grill_2_"  width="75.05" height="21.599" id="XMLID_23_" x="-37.525" y="-10.8" transform="matrix(1 0 0 -1 486.1696 262.7151)" style="overflow:visible;"/>
	<g id="grill_1_">

			<ellipse id="XMLID_119_" style="fill:none;stroke:#231F20;stroke-width:1.5;stroke-linecap:round;stroke-linejoin:round;stroke-miterlimit:10;" cx="628.406" cy="262.715" rx="21.382" ry="3.539"/>

			<ellipse id="XMLID_114_" style="fill:#231F20;stroke:#231F20;stroke-width:1.5;stroke-linecap:round;stroke-linejoin:round;stroke-miterlimit:10;" cx="628.406" cy="262.715" rx="9.243" ry="1.53"/>
	</g>
	<g id="grill">
		<g id="XMLID_30_">

				<path id="XMLID_122_" style="fill:none;stroke:#231F20;stroke-width:2;stroke-linecap:round;stroke-linejoin:round;stroke-miterlimit:10;" d="
				M628.406,269.005c-16.289,0-29.493-2.816-29.493-6.29s13.204-6.29,29.493-6.29c7.523,0,14.384,0.602,19.594,1.59v-3.569
				c-5.663-0.968-12.381-1.531-19.594-1.531c-20.172,0-36.525,4.387-36.525,9.799s16.353,9.799,36.525,9.799
				c7.213,0,13.931-0.563,19.594-1.531v-3.569C642.79,268.403,635.929,269.005,628.406,269.005z"/>

				<path id="XMLID_123_" style="fill:none;stroke:#231F20;stroke-width:2;stroke-linecap:round;stroke-linejoin:round;stroke-miterlimit:10;" d="
				M598.913,262.715c0,3.474,13.204,6.29,29.493,6.29c7.523,0,14.384-0.602,19.594-1.59v-9.399c-5.21-0.989-12.071-1.59-19.594-1.59
				C612.117,256.425,598.913,259.241,598.913,262.715z"/>

				<path id="XMLID_127_" style="fill:none;stroke:#231F20;stroke-width:3.1748;stroke-linecap:round;stroke-linejoin:round;stroke-miterlimit:10;" d="
				M628.406,323.976c-21.446,0-38.831-5.39-38.831-12.038c0-6.648,17.385-12.038,38.831-12.038c7.149,0,13.841,0.602,19.594,1.646
				v-6.735c-5.986-1.043-12.613-1.628-19.594-1.628c-26.559,0-48.09,8.397-48.09,18.755c0,10.358,21.53,18.755,48.09,18.755
				c6.981,0,13.608-0.585,19.594-1.628v-6.735C642.247,323.375,635.555,323.976,628.406,323.976z"/>

				<path id="XMLID_129_" style="fill:none;stroke:#231F20;stroke-width:3.1748;stroke-linecap:round;stroke-linejoin:round;stroke-miterlimit:10;" d="
				M589.575,311.938c0,6.648,17.385,12.038,38.831,12.038c7.149,0,13.841-0.602,19.594-1.646v-5.53
				c-5.068,1.183-11.975,1.912-19.594,1.912c-15.548,0-28.152-3.033-28.152-6.774c0-3.741,12.604-6.774,28.152-6.774
				c7.619,0,14.526,0.729,19.594,1.912v-5.53c-5.753-1.045-12.445-1.646-19.594-1.646
				C606.96,299.901,589.575,305.29,589.575,311.938z"/>

				<path id="XMLID_131_" style="fill:none;stroke:#231F20;stroke-width:3.1748;stroke-linecap:round;stroke-linejoin:round;stroke-miterlimit:10;" d="
				M628.406,305.164c-15.548,0-28.152,3.033-28.152,6.774c0,3.741,12.604,6.774,28.152,6.774c7.619,0,14.526-0.729,19.594-1.912
				v-9.723C642.932,305.894,636.025,305.164,628.406,305.164z"/>
		</g>

			<ellipse id="XMLID_115_" style="fill:#231F20;stroke:#231F20;stroke-width:2.3811;stroke-linecap:round;stroke-linejoin:round;stroke-miterlimit:10;" cx="628.406" cy="311.938" rx="12.169" ry="2.928"/>
	</g>

		<ellipse id="XMLID_34_" style="fill:#545C60;stroke:#808A8E;stroke-width:1.5;stroke-linecap:round;stroke-linejoin:round;stroke-miterlimit:10;" cx="475.216" cy="301.02" rx="61.613" ry="21.556"/>

		<path id="XMLID_36_" style="fill:#454B4C;stroke:#282C2D;stroke-width:1.5;stroke-linecap:round;stroke-linejoin:round;stroke-miterlimit:10;" d="
		M531.398,312.732c0,11.905-21.644,14.258-55.672,14.258s-51.259-5.092-55.672-17.652c0-11.905,21.644-20.029,55.672-20.029
		S531.398,300.827,531.398,312.732z"/>
	<linearGradient id="XMLID_25_" gradientUnits="userSpaceOnUse" x1="472.0318" y1="305.6743" x2="460.4773" y2="133.2452">
		<stop  offset="0" style="stop-color:#F9F9F2"/>
		<stop  offset="1" style="stop-color:#F9F9F2;stop-opacity:0"/>
	</linearGradient>
	<path id="XMLID_116_" style="fill:url(#XMLID_25_);" d="M438.04,306.93c-41.774-28.442-26.664-61.328-15.999-82.659
		c10.666-21.331,26.664-67.55,14.221-82.659c32.886,0,59.55,21.331,65.772,39.108c6.222,17.776-15.11,44.44-0.889,61.328
		c14.221,16.887,35.73,49.525,27.197,62.537"/>

		<path id="XMLID_37_" style="fill:#F9F9F2;stroke:#CECDB7;stroke-width:1.5;stroke-linecap:round;stroke-linejoin:round;stroke-miterlimit:10;" d="
		M517.14,295.419c-25.121-7.468-41.415-3.055-41.075,1.358c0.339,4.413-0.679,3.055-8.147,2.716
		c-7.468-0.339-38.36,4.074-27.497,9.845c10.863,5.771,22.065,6.11,24.102,6.11c2.037,0,42.773,3.395,63.82-10.863
		C522.232,297.456,517.14,295.419,517.14,295.419z"/>

		<rect id="XMLID_43_" x="385.008" y="365.349" style="fill:#E2E9ED;stroke:#414C54;stroke-linecap:round;stroke-linejoin:round;stroke-miterlimit:10;" width="262.992" height="66.651"/>

		<path id="XMLID_38_" style="fill:#F4B73B;stroke:#874A1D;stroke-width:1.5;stroke-linecap:round;stroke-linejoin:round;stroke-miterlimit:10;" d="
		M508.314,302.208c0,3.562-5.507,4.074-11.881,4.074s-11.202-0.511-11.202-4.074s5.167-6.45,11.542-6.45
		S508.314,298.646,508.314,302.208z"/>

		<path id="XMLID_28_" style="fill:#96A5AA;stroke:#667275;stroke-width:1.5;stroke-linecap:round;stroke-linejoin:round;stroke-miterlimit:10;" d="
		M414.282,302.887l11.202,22.065c27.836,13.239,74.683,13.579,103.537-1.697c5.771-10.863,7.808-21.726,7.808-21.726
		C514.085,311.713,447.55,325.631,414.282,302.887z"/>
	<path id="XMLID_42_" style="fill:#B9C1C6;stroke:#414C54;stroke-linecap:round;stroke-linejoin:round;stroke-miterlimit:10;" d="
		M373.546,372.817c-0.759,0.759,274.454,0,274.454,0v-21.386H372.867C372.867,351.431,374.055,372.308,373.546,372.817z"/>

		<path id="XMLID_35_" style="fill:#96A5AA;stroke:#667275;stroke-width:1.5;stroke-linecap:round;stroke-linejoin:round;stroke-miterlimit:10;" d="
		M424.929,307.803c-9.886-12.675-16.634-21.386-40.057-20.707c-15.981,0.463-44.303,4.525-37.513,14.37
		c6.789,9.845,22.784,1.779,29.913,0.76S404.561,296.261,424.929,307.803z"/>
	<path id="XMLID_44_" style="fill:#B9C1C6;stroke:#414C54;stroke-linecap:round;stroke-linejoin:round;stroke-miterlimit:10;" d="
		M648,397.528c-31.523,10.21-154.724,11.912-202.03-2.042c-21.441-5.105-44.243,3.063-44.243,3.063
		c61.6,35.395,191.352,24.164,246.273,16.676C648,398.89,647.532,397.528,648,397.528z"/>

		<rect id="XMLID_45_" x="560.979" y="194.014" style="fill:#414C54;stroke:#B9C1C6;stroke-linecap:round;stroke-linejoin:round;stroke-miterlimit:10;" width="63.42" height="16.648"/>

		<circle id="XMLID_46_" style="fill:#E2E9ED;stroke:#414C54;stroke-linecap:round;stroke-linejoin:round;stroke-miterlimit:10;" cx="565.546" cy="220.571" r="5.946"/>

		<circle id="XMLID_48_" style="fill:#E2E9ED;stroke:#414C54;stroke-linecap:round;stroke-linejoin:round;stroke-miterlimit:10;" cx="583.665" cy="220.571" r="5.946"/>

		<circle id="XMLID_49_" style="fill:#E2E9ED;stroke:#414C54;stroke-linecap:round;stroke-linejoin:round;stroke-miterlimit:10;" cx="601.106" cy="220.571" r="5.946"/>

		<circle id="XMLID_50_" style="fill:#E2E9ED;stroke:#414C54;stroke-linecap:round;stroke-linejoin:round;stroke-miterlimit:10;" cx="618.546" cy="220.571" r="5.946"/>

		<radialGradient id="XMLID_99_" cx="475.2133" cy="332.2184" r="55.4691" gradientTransform="matrix(1 -0.0041 6.330239e-04 0.1549 -0.2063 282.6837)" gradientUnits="userSpaceOnUse">
		<stop  offset="0" style="stop-color:#F45625"/>
		<stop  offset="1" style="stop-color:#F45625;stop-opacity:0"/>
	</radialGradient>
	<path id="XMLID_29_" style="fill:url(#XMLID_99_);" d="M487.841,325.654c-33.339,4.116-87.705-15.642-67.035,1.676
		c3.382,47.185,77.813,31.175,88.427,29.499c10.614-1.676,27.209-26.705,27.209-32.292S533.089,320.067,487.841,325.654z"/>
</g>
<g id="Layer_3">

		<rect id="XMLID_3_" style="fill:#BA8254;stroke:#774A28;stroke-linecap:round;stroke-linejoin:round;stroke-miterlimit:10;" width="428.853" height="123.118"/>

		<rect id="XMLID_4_" style="fill:#84644E;stroke:#774A28;stroke-linecap:round;stroke-linejoin:round;stroke-miterlimit:10;" width="412.457" height="111.333"/>

		<rect id="XMLID_10_" y="92.852" style="fill:#A87148;stroke:#774A28;stroke-linecap:round;stroke-linejoin:round;stroke-miterlimit:10;" width="423.79" height="18.73"/>

		<rect id="XMLID_8_" x="232.033" style="fill:#9B6642;stroke:#664128;stroke-linecap:round;stroke-linejoin:round;stroke-miterlimit:10;" width="23.243" height="110.751"/>

		<rect id="XMLID_9_" x="48.577" style="fill:#9B6642;stroke:#664128;stroke-linecap:round;stroke-linejoin:round;stroke-miterlimit:10;" width="23.243" height="110.751"/>
	<path id="XMLID_6_" style="fill:#77533A;stroke:#443428;stroke-linecap:round;stroke-linejoin:round;stroke-miterlimit:10;" d="
		M428.853,123.118c0,0,58.856-6.141,58.856-7.386c0-1.245,0-115.732,0-115.732h-58.856C428.853,0,429.35,123.118,428.853,123.118z"
		/>

		<rect id="XMLID_5_" x="222.902" style="fill:#D39363;stroke:#8C532C;stroke-linecap:round;stroke-linejoin:round;stroke-miterlimit:10;" width="23.243" height="110.751"/>
	<path id="XMLID_15_" style="fill:#607FA5;stroke:#1B3151;stroke-linecap:round;stroke-linejoin:round;stroke-miterlimit:10;" d="
		M270.331,57.515v43.581c0,2.751,9.291,4.981,20.753,4.981c11.461,0,20.753-2.23,20.753-4.981V57.515
		C311.837,57.515,270.331,57.1,270.331,57.515z"/>

		<rect id="XMLID_7_" x="33.635" style="fill:#D39363;stroke:#8C532C;stroke-linecap:round;stroke-linejoin:round;stroke-miterlimit:10;" width="23.243" height="110.751"/>
	<path id="XMLID_12_" style="fill:#C9C377;stroke:#6B5134;stroke-linecap:round;stroke-linejoin:round;stroke-miterlimit:10;" d="
		M358.319,98.937h-9.644c-1.504,0-2.724-1.219-2.724-2.724V70.185c0-1.504,1.219-2.724,2.724-2.724h9.644
		c1.504,0,2.724,1.219,2.724,2.724v26.029C361.043,97.718,359.823,98.937,358.319,98.937z"/>

		<ellipse id="XMLID_11_" style="fill:#BCC6C9;stroke:#51585B;stroke-linecap:round;stroke-linejoin:round;stroke-miterlimit:10;" cx="291.084" cy="57.515" rx="20.753" ry="4.981"/>
	<path id="XMLID_13_" style="fill:#CE4E41;stroke:#773619;stroke-linecap:round;stroke-linejoin:round;stroke-miterlimit:10;" d="
		M358.618,77.515h-10.51c-2.398,0-4.342-1.944-4.342-4.342V66.68c0-2.398,1.944-4.342,4.342-4.342h10.51
		c2.398,0,4.342,1.944,4.342,4.342v6.493C362.96,75.571,361.016,77.515,358.618,77.515z"/>
	<path id="XMLID_17_" style="fill:#C9C377;stroke:#6B5134;stroke-linecap:round;stroke-linejoin:round;stroke-miterlimit:10;" d="
		M334.962,103.184h-9.644c-1.504,0-2.724-1.219-2.724-2.724V74.431c0-1.504,1.219-2.724,2.724-2.724h9.644
		c1.504,0,2.724,1.219,2.724,2.724v26.029C337.686,101.965,336.466,103.184,334.962,103.184z"/>
	<path id="XMLID_16_" style="fill:#CE4E41;stroke:#773619;stroke-linecap:round;stroke-linejoin:round;stroke-miterlimit:10;" d="
		M335.261,81.761h-10.51c-2.398,0-4.342-1.944-4.342-4.342v-6.493c0-2.398,1.944-4.342,4.342-4.342h10.51
		c2.398,0,4.342,1.944,4.342,4.342v6.493C339.603,79.817,337.659,81.761,335.261,81.761z"/>
	<path id="XMLID_18_" style="fill:#B9C1C6;stroke:#414C54;stroke-linecap:round;stroke-linejoin:round;stroke-miterlimit:10;" d="
		M648,17.887H443.33c-26.542,21.504-44.06,92.734-44.06,116.254c75.38,0,248.73,0,248.73,0S648.413,17.364,648,17.887z"/>
</g>
<g id="Layer_7">
	<path id="XMLID_60_" style="fill:#859199;stroke:#555E66;stroke-linecap:round;stroke-linejoin:round;stroke-miterlimit:10;" d="
		M44.998,197.784l7.196,76.077c16.106,17.134,49.004,14.393,62.369-0.685c1.028-24.674,3.084-75.392,3.084-75.392
		C89.547,205.665,44.655,197.098,44.998,197.784z"/>

		<ellipse id="XMLID_59_" style="fill:#656D72;stroke:#555E66;stroke-linecap:round;stroke-linejoin:round;stroke-miterlimit:10;" cx="81.665" cy="197.108" rx="35.982" ry="6.854"/>
	<path id="XMLID_107_" style="fill:#859199;stroke:#555E66;stroke-linecap:round;stroke-linejoin:round;stroke-miterlimit:10;" d="
		M53.46,171.913c0.225,0.676,8.788,30.644,8.788,30.644l6.985,0.676c-3.831-11.942-11.041-32.898-11.041-32.898l6.534-2.028
		c-0.901-14.421-3.155-35.827-3.155-35.827l-32.672,10.365l16.674,30.644L53.46,171.913z"/>

		<ellipse id="XMLID_103_" style="fill:#859199;stroke:#555E66;stroke-linecap:round;stroke-linejoin:round;stroke-miterlimit:10;" cx="93.342" cy="151.859" rx="19.603" ry="20.279"/>
	<path id="XMLID_110_" style="fill:#859199;stroke:#555E66;stroke-linecap:round;stroke-linejoin:round;stroke-miterlimit:10;" d="
		M88.16,167.406c-6.309,5.408-6.534,36.278-6.534,36.278s4.732-0.225,5.633,0.225c1.352-4.957,0.225-28.391,1.577-30.87
		s5.408-4.732,5.408-4.732L88.16,167.406z"/>
	<path id="XMLID_109_" style="fill:#859199;stroke:#555E66;stroke-linecap:round;stroke-linejoin:round;stroke-miterlimit:10;" d="
		M105.51,202.557c3.605-8.112,10.816-24.561,10.816-24.561l6.084,0.225l-10.14,22.758L105.51,202.557z"/>

		<ellipse id="XMLID_111_" transform="matrix(0.9349 0.3548 -0.3548 0.9349 64.9831 -32.6075)" style="fill:#859199;stroke:#555E66;stroke-linecap:round;stroke-linejoin:round;stroke-miterlimit:10;" cx="121.396" cy="160.872" rx="12.731" ry="21.181"/>

		<ellipse id="XMLID_112_" transform="matrix(0.9349 0.3548 -0.3548 0.9349 64.5137 -31.8318)" style="fill:#656D72;stroke:#555E66;stroke-linecap:round;stroke-linejoin:round;stroke-miterlimit:10;" cx="119.046" cy="159.98" rx="10.218" ry="21.181"/>
</g>
<g id="Layer_8">
	<path id="XMLID_64_" style="fill:#E4EAEF;stroke:#5D646B;stroke-linecap:round;stroke-linejoin:round;stroke-miterlimit:10;" d="
		M334.687,275.626c-2.657,9.743-25.023,38.088-24.801,45.174s3.764,10.629,2.436,14.836c-1.329,4.207-7.972,6.865-13.065,3.764
		c-5.093-3.1-11.293-15.501-11.293-15.501l13.951-38.752L334.687,275.626z"/>
	<path id="XMLID_62_" style="fill:#E4EAEF;stroke:#5D646B;stroke-linecap:round;stroke-linejoin:round;stroke-miterlimit:10;" d="
		M204.417,293.062c-26.574,23.252-42.518,39.196-53.147,47.833c-10.629,8.636-40.193,46.172-2.657,74.074
		s72.745-5.979,75.071-11.626s1.661-15.944-3.322-19.266s-17.273,0-22.255,11.626s-26.906,23.584-41.854,9.301
		c-14.948-14.283-18.269-38.864,4.65-56.801s44.179-37.203,44.179-37.203L204.417,293.062z"/>
	<path id="XMLID_63_" style="fill:#E4EAEF;stroke:#5D646B;stroke-linecap:round;stroke-linejoin:round;stroke-miterlimit:10;" d="
		M234.644,259.513c13.619-5.315,61.452-28.235,67.763-35.874c6.311-7.64,15.612-16.276,19.598-18.602s44.179,5.647,44.843,14.616
		s-11.294,8.969-15.28,23.584c-3.322,14.616,0.332,22.588,0.332,22.588c-2.99-1.993-5.647-6.311-5.647-6.311
		c0,5.979-0.996,16.941-5.315,20.927c0.997-2.99,0-7.64,0-7.64c-2.657,4.983-6.976,10.962-6.976,10.962
		c-5.647,4.318-34.878,22.588-42.186,29.231c-7.308,6.643-11.294,9.633-11.294,9.633s-13.951,10.962-26.574,10.629
		C241.288,332.922,235.309,259.845,234.644,259.513z"/>
	<path id="XMLID_61_" style="fill:#E4EAEF;stroke:#5D646B;stroke-linecap:round;stroke-linejoin:round;stroke-miterlimit:10;" d="
		M198.77,283.097c11.626-15.944,37.867-33.549,53.479-30.228s21.923,20.262,21.923,31.556c0,11.294-3.322,34.878-11.958,41.189
		c-8.636,6.311-34.546,12.29-42.186,11.958s-22.798-0.172-26.241-26.574C191.794,295.719,198.77,283.097,198.77,283.097z"/>
	<path id="XMLID_65_" style="fill:#E4EAEF;stroke:#5D646B;stroke-linecap:round;stroke-linejoin:round;stroke-miterlimit:10;" d="
		M221.089,338.072c14.394,4.872,48.274,5.536,49.16,0.664c-0.443-7.307-2.436-11.958-5.093-12.622
		C262.498,325.45,231.496,330.543,221.089,338.072z"/>
	<path id="XMLID_66_" style="fill:#E4EAEF;stroke:#5D646B;stroke-linecap:round;stroke-linejoin:round;stroke-miterlimit:10;" d="
		M254.748,331.207c3.543,2.214,5.757,8.193,3.1,10.629"/>
	<path id="XMLID_67_" style="fill:#E4EAEF;stroke:#5D646B;stroke-linecap:round;stroke-linejoin:round;stroke-miterlimit:10;" d="
		M263.384,329.657c3.543,2.214,5.757,8.415,3.1,10.851"/>
	<path id="XMLID_69_" style="fill:#E4EAEF;stroke:#5D646B;stroke-linecap:round;stroke-linejoin:round;stroke-miterlimit:10;" d="
		M324.944,231.116c7.75,9.743,5.536,34.766-15.501,57.353c-18.601,30.559-13.508,33.437-13.508,33.437
		c4.429,3.986,9.079,16.165,4.429,19.708c-3.543,2.879-15.944,3.322-20.815-1.772c-4.872-5.315-2.214-5.979-2.879-9.743
		c-0.664-3.764,2.657-14.394,3.322-18.822c0.664-4.429,15.279-54.696,16.387-61.56"/>
	<path id="XMLID_70_" style="fill:#E4EAEF;stroke:#5D646B;stroke-linecap:round;stroke-linejoin:round;stroke-miterlimit:10;" d="
		M284.743,332.139c2.045,1.227,4.362,5.18,2.454,10.769"/>
	<path id="XMLID_71_" style="fill:#E4EAEF;stroke:#5D646B;stroke-linecap:round;stroke-linejoin:round;stroke-miterlimit:10;" d="
		M295.648,331.184c2.045,1.227,2.999,7.77,1.363,12.132"/>
	<path id="XMLID_72_" style="fill:#E4EAEF;stroke:#5D646B;stroke-linecap:round;stroke-linejoin:round;stroke-miterlimit:10;" d="
		M305.735,328.867c2.863,4.089,3.817,7.77,2.454,11.041"/>
	<path id="XMLID_68_" style="fill:#E4EAEF;stroke:#5D646B;stroke-linecap:round;stroke-linejoin:round;stroke-miterlimit:10;" d="
		M346.356,226.497c0,0-11.041-1.908-14.858-4.907c0.136,0.409,1.363,2.181,2.999,4.362c-2.999-0.545-16.085-4.635-19.765-9.814
		c0,0,0.409,2.726,0.954,3.68c-9.814-5.316-11.45-16.766-9.951-19.22c0,0-2.999,2.181-4.226,3.408c0,0,1.908-9.951,6.134-24.536
		c5.044-22.219,11.041-30.261,14.858-33.533c3.544-5.998,6.952-13.631,11.723-12.813c0.682,3.68-1.499,7.361-1.499,7.361
		c4.362-7.361,12.404-11.859,17.584-9.814c2.045,1.499-2.454,5.044-2.454,5.044c3.544-3.135,11.859-5.18,15.403-4.771
		c3.544,0.409,20.992,17.039,26.172,24.673c5.18,7.633,13.495,19.084,13.495,19.084c-4.362-2.045-8.997-4.771-8.997-4.771
		c8.042,7.088,13.222,25.627,4.089,38.576c-1.772-3.544-4.226-7.361-4.226-7.361c1.772,6.679-8.179,25.899-38.304,25.899"/>
	<path id="XMLID_73_" style="fill:#E4EAEF;stroke:#5D646B;stroke-linecap:round;stroke-linejoin:round;stroke-miterlimit:10;" d="
		M347.855,135.713c2.59-2.454,12.404-3.68,13.222,1.363c0.818,5.044-4.089,5.18-4.089,5.18"/>
	<path id="XMLID_74_" style="fill:#E4EAEF;stroke:#5D646B;stroke-linecap:round;stroke-linejoin:round;stroke-miterlimit:10;" d="
		M358.76,132.85c2.726-2.999,16.766-18.675,16.766-18.675c19.22,11.723,15.812,37.35,13.086,44.165"/>
	<path id="XMLID_75_" style="fill:#E4EAEF;stroke:#5D646B;stroke-linecap:round;stroke-linejoin:round;stroke-miterlimit:10;" d="
		M324.955,145.391c-10.496,2.181-41.984,0.818-46.755-0.136c0.545,20.447,16.357,44.574,31.624,47.709"/>

		<ellipse id="XMLID_76_" transform="matrix(0.9838 -0.1792 0.1792 0.9838 -27.9769 65.04)" style="fill:#231F20;stroke:#231F20;stroke-linecap:round;stroke-linejoin:round;stroke-miterlimit:10;" cx="346.015" cy="187.375" rx="1.548" ry="4.563"/>

		<ellipse id="XMLID_78_" transform="matrix(0.9838 -0.1792 0.1792 0.9838 -25.7349 70.2308)" style="fill:#231F20;stroke:#231F20;stroke-linecap:round;stroke-linejoin:round;stroke-miterlimit:10;" cx="375.867" cy="177.561" rx="1.548" ry="4.563"/>
	<path id="XMLID_79_" style="fill:#CC6D56;stroke:#84402D;stroke-linecap:round;stroke-linejoin:round;stroke-miterlimit:10;" d="
		M363.122,196.644c5.044-1.09,11.178-3.953,11.178-3.953c-1.363,3.817-3.953,7.497-4.362,7.361
		C369.529,199.916,363.122,196.644,363.122,196.644z"/>
	<path id="XMLID_77_" style="fill:none;stroke:#231F20;stroke-linecap:round;stroke-linejoin:round;stroke-miterlimit:10;" d="
		M346.015,201.16c0.637,11.152,26.021,15.613,23.923-1.108c1.355,9.392,18.03,3.126,10.702-6.645"/>
	<path id="XMLID_80_" style="fill:#E5907F;stroke:#A5513D;stroke-linecap:round;stroke-linejoin:round;stroke-miterlimit:10;" d="
		M350.794,196.381c1.679-0.87,8.284-0.743,8.497,5.523c0.212,6.266-0.319,8.922-0.319,8.922c-6.054,0-10.196-4.142-10.196-4.142
		C347.608,204.453,347.927,197.868,350.794,196.381z"/>
	<path id="XMLID_82_" style="fill:#E5907F;stroke:#A5513D;stroke-linecap:round;stroke-linejoin:round;stroke-miterlimit:10;" d="
		M353.875,201.16c-1.168,3.186,0.212,8.391,0.212,8.391"/>
	<path id="XMLID_83_" style="fill:#E4EAEF;stroke:#5D646B;stroke-linecap:round;stroke-linejoin:round;stroke-miterlimit:10;" d="
		M374.798,207.426c2.23,3.611,0.212,7.222-3.293,9.134"/>
	<path id="XMLID_84_" style="fill:none;stroke:#231F20;stroke-linecap:round;stroke-linejoin:round;stroke-miterlimit:10;" d="
		M345.378,165.049c-5.417-1.062-10.09,2.549-11.046,7.86"/>
	<path id="XMLID_85_" style="fill:none;stroke:#231F20;stroke-linecap:round;stroke-linejoin:round;stroke-miterlimit:10;" d="
		M367.788,157.933c1.487-2.23,6.691-3.717,9.665,0.212"/>
	<path id="XMLID_93_" style="fill:none;stroke:#231F20;stroke-linecap:round;stroke-linejoin:round;stroke-miterlimit:10;" d="
		M386.747,188.65c5.242-8.027,29.65-16.545,43.411-14.252"/>
	<path id="XMLID_94_" style="fill:none;stroke:#231F20;stroke-linecap:round;stroke-linejoin:round;stroke-miterlimit:10;" d="
		M390.023,192.417c13.105-4.751,29.159-3.932,36.039-0.491"/>
	<path id="XMLID_95_" style="fill:none;stroke:#231F20;stroke-linecap:round;stroke-linejoin:round;stroke-miterlimit:10;" d="
		M339.241,198.97c-12.614-3.276-23.345-5.431-38.95,14.232"/>
	<path id="XMLID_97_" style="fill:none;stroke:#231F20;stroke-linecap:round;stroke-linejoin:round;stroke-miterlimit:10;" d="
		M391.427,196.348c5.93-0.936,18.414,4.057,20.911,7.179"/>
	<path id="XMLID_96_" style="fill:none;stroke:#231F20;stroke-linecap:round;stroke-linejoin:round;stroke-miterlimit:10;" d="
		M337.744,202.903c-10.3,0.624-17.79,12.484-18.102,22.16"/>
	<path id="XMLID_98_" style="fill:none;stroke:#231F20;stroke-linecap:round;stroke-linejoin:round;stroke-miterlimit:10;" d="
		M340.241,207.896c-4.994,3.121-6.866,11.86-6.866,11.86"/>
</g>
</svg>
