<?xml version="1.0" encoding="utf-8"?>
<!-- Generator: Adobe Illustrator 19.0.0, SVG Export Plug-In . SVG Version: 6.00 Build 0)  -->
<!DOCTYPE svg PUBLIC "-//W3C//DTD SVG 1.0//EN" "http://www.w3.org/TR/2001/REC-SVG-20010904/DTD/svg10.dtd">
<svg version="1.0" xmlns="http://www.w3.org/2000/svg" xmlns:xlink="http://www.w3.org/1999/xlink" x="0px" y="0px"
	 viewBox="0 0 648 432" enable-background="new 0 0 648 432" xml:space="preserve">
<symbol  id="fencepost" viewBox="-12.8 -60 25.7 101.5">
	<polygon id="XMLID_132_" fill="#C1948A" stroke="#845F46" stroke-miterlimit="10" points="12.3,-59.5 -12.3,-59.5 -12.3,27.1
		-0.3,40.7 12.3,27.1 	"/>
</symbol>
<g id="Layer_7">
	<linearGradient id="XMLID_2_" gradientUnits="userSpaceOnUse" x1="324" y1="237.9689" x2="324" y2="38.986">
		<stop  offset="0" style="stop-color:#FFFFFF"/>
		<stop  offset="1" style="stop-color:#9EDAEF"/>
	</linearGradient>
	<rect id="XMLID_114_" y="0" fill="url(#XMLID_2_)" width="648" height="313"/>
</g>
<g id="Layer_9">
	<rect id="XMLID_5_" x="33.6" y="144.3" fill="#C1948A" stroke="#754A43" stroke-miterlimit="10" width="608" height="13.3"/>
</g>
<g id="Layer_2">

		<use xlink:href="#fencepost"  width="25.7" height="101.5" id="XMLID_4_" x="-12.8" y="-60" transform="matrix(1 0 0 -1 180.631 162.5148)" overflow="visible"/>

		<use xlink:href="#fencepost"  width="25.7" height="101.5" id="XMLID_8_" x="-12.8" y="-60" transform="matrix(1 0 0 -1 144.3407 162.5148)" overflow="visible"/>

		<use xlink:href="#fencepost"  width="25.7" height="101.5" id="XMLID_9_" x="-12.8" y="-60" transform="matrix(1 0 0 -1 108.5544 162.5148)" overflow="visible"/>

		<use xlink:href="#fencepost"  width="25.7" height="101.5" id="XMLID_10_" x="-12.8" y="-60" transform="matrix(1 0 0 -1 75.7923 162.5148)" overflow="visible"/>

		<use xlink:href="#fencepost"  width="25.7" height="101.5" id="XMLID_14_" x="-12.8" y="-60" transform="matrix(1 0 0 -1 321.7601 162.5148)" overflow="visible"/>

		<use xlink:href="#fencepost"  width="25.7" height="101.5" id="XMLID_13_" x="-12.8" y="-60" transform="matrix(1 0 0 -1 285.4698 162.5148)" overflow="visible"/>

		<use xlink:href="#fencepost"  width="25.7" height="101.5" id="XMLID_12_" x="-12.8" y="-60" transform="matrix(1 0 0 -1 249.6835 162.5148)" overflow="visible"/>

		<use xlink:href="#fencepost"  width="25.7" height="101.5" id="XMLID_11_" x="-12.8" y="-60" transform="matrix(1 0 0 -1 216.9214 162.5148)" overflow="visible"/>

		<use xlink:href="#fencepost"  width="25.7" height="101.5" id="XMLID_18_" x="-12.8" y="-60" transform="matrix(1 0 0 -1 599.9859 162.5148)" overflow="visible"/>

		<use xlink:href="#fencepost"  width="25.7" height="101.5" id="XMLID_17_" x="-12.8" y="-60" transform="matrix(1 0 0 -1 563.6956 162.5148)" overflow="visible"/>

		<use xlink:href="#fencepost"  width="25.7" height="101.5" id="XMLID_16_" x="-12.8" y="-60" transform="matrix(1 0 0 -1 527.9093 162.5148)" overflow="visible"/>

		<use xlink:href="#fencepost"  width="25.7" height="101.5" id="XMLID_15_" x="-12.8" y="-60" transform="matrix(1 0 0 -1 495.1472 162.5148)" overflow="visible"/>
</g>
<g id="Layer_3">
	<path id="XMLID_21_" fill="#89563D" stroke="#54291F" stroke-linecap="round" stroke-linejoin="round" stroke-miterlimit="10" d="
		M607.5,79.9c6,24,25.3,60.3,24.4,74.6c-0.9,14.3-6,22.6-10.1,31.3c-4.1,8.8-28.1,20.7-29,26.7c19.8,13.8,55.2,7.4,55.2,7.4V43.5
		L607.5,79.9z"/>
	<path id="XMLID_7_" fill="#AACF88" stroke="#588233" stroke-linecap="round" stroke-linejoin="round" stroke-miterlimit="10" d="
		M648,213.5c-7.2-11.2-16-18.1-16-18.1c3.5,5.5,5.5,18.6,5.5,18.6c-9.6-12.6-13.1-20.7-13.1-20.7c-2,14.6,1,19.7,1,19.7
		c-6-14.6-14.1-19.2-14.1-19.2c6.6,11.1,6.6,20.7,6.6,20.7c-9.6-13.1-14.6-20.2-14.6-20.2c0,12.6-0.5,19.7-0.5,19.7
		c-5-8.6-7.6-15.6-8.1-17.1c-1.5,8.1-3.5,14.1-3.5,14.1c0-15.1-6.6-20.2-6.6-20.2c-1,13.1-3.5,18.1-3.5,18.1
		c-3.5-12.6-9.6-22.2-9.6-22.2c-2,10.6-3,21.2-3,21.2c-5-3-4-25.2-6-16.1c-2,9.1-2,13.6-2,13.6c-4-9.6-17.6-22.7-17.6-22.7
		c3,5,5,18.1,4,18.6c-1,0.5-12.6-10.6-12.6-10.6c0.5,11.1,0.5,16.6,0.5,16.6c-11.6-20.7-16.1-25.7-16.1-25.7c1.5,9.1-2,19.2-2,19.2
		c-3-6-250.5,0-250.5,0c-7.6-19.2-10.1-18.6-10.1-18.6c-0.5,9.1-3.5,21.7-3.5,21.7c-1.5-10.6-4.5-18.1-4.5-18.1
		c-3,9.1,4,29.2-4.5,13.6c-8.6-15.6-12.1-18.1-12.1-18.1c1.5,14.6,1.5,14.6,1.5,14.6c-5-10.6-8.6-17.1-8.6-17.1
		c-2.5,12.6,4,35.8-2.5,20.2c-6.6-15.6-5-23.2-5-23.2c-3.5,11.6-3,21.7-3,21.7c-3-5.5-5.5-16.1-5.5-16.1c0.5,4-1,15.6-1,15.6
		c-7.6-17.6-10.6-17.6-10.6-17.6c0,12.1-1.5,21.7-1.5,21.7c-3.5-11.1-6.6-18.6-6.6-18.6c-0.5,5.5-2,16.6-2,16.6
		c-2.5-15.1-12.1-28.2-12.1-28.2c3,16.6,1,25.2,1,25.2c-5.5-10.1-5.5-10.1-5.5-10.1c-2,4-6,11.6-6,11.6c-2.5-4.5-4-14.6-4-14.6
		c-2,6.6-6.6,14.1-6.6,14.1c0-23.7-2.5-25.2-2.5-25.2c-8.1,15.6-7.1,24.2-7.1,24.2c-5-15.1-7.6-16.6-7.6-16.6
		c-1,13.1,0,21.2-0.5,19.2c-0.5-2-8.6-19.2-8.6-19.2c-1,12.6-1,15.6-1,15.6c-1.5-3.5-11.1-18.1-11.1-18.1c0,2,0,22.7-3,17.1
		c-3-5.5-4-13.1-4-13.1c-2,2.5-3.5,13.6-3.5,13.6c-5-12.1-12.6-18.6-12.6-18.6c1.5,4.5,8.6,28.7,0,18.1
		c-8.6-10.6-12.1-13.1-12.1-13.1c0.5,4.5,4,23.7,0,17.1c-4-6.6-6.6-19.2-6.6-19.2c-1.5,9.1-2,18.6-2,18.6
		c-3-8.1-10.1-16.6-10.1-16.6c-0.5,7.1-1.5,18.1-1.5,18.1l-20.7-21.2H0v73.6h648C648,251.3,647.4,212.9,648,213.5z"/>
	<rect id="XMLID_113_" y="239.9" fill="#AACF88" width="648" height="192.1"/>
	<path id="XMLID_25_" fill="#AACF88" stroke="#588233" stroke-linecap="round" stroke-linejoin="round" stroke-miterlimit="10" d="
		M134.9,296.8c0.9-4.1-5.1-24.4-5.1-24.4c7.8,9.2,10.1,16.1,10.1,16.1c0.5-3.7,11.5-20.3,11.5-20.3c-4.6,10.1-4.6,21.2-4.6,21.2
		s14.3-7.4,13.8-6c-0.5,1.4-7.8,12-7.8,12"/>
	<path id="XMLID_19_" fill="#89563D" stroke="#54291F" stroke-linecap="round" stroke-linejoin="round" stroke-miterlimit="10" d="
		M61.4,90c-11.6,17.1-24.7,51.9-24.7,51.9c60.5-30.7,70.1-34.3,75.6-41.8s18.1-31.8,18.1-31.8c2-3,31.8,5.5,32.8,9.1
		c0,8.1-26.2,30.7-34.3,35.3c-8.1,4.5-65,46.4-68.5,52.9c-3.5,6.6-9.6,53.9-5.5,68S67,259.4,73,266.4c6,7.1,27.2,1,39.3,10.1
		c12.1,9.1,19.7,14.1,33.3,20.2c13.6,6-10.1,8.6-13.1,7.1c-75.9-9.6-132.5,0-132.5,0S0,103.9,0,78.9C4,78.9,61.4,90,61.4,90z"/>
	<path id="XMLID_20_" fill="#559444" stroke="#245617" stroke-linecap="round" stroke-linejoin="round" stroke-miterlimit="10" d="
		M0,97.9c13.4,13.4,27.6,11.1,24.4-4.1c2.3,12.4,14.7,8.3,15.7,1.8c-7.8,21.2,33.2,24.9,32.2,1.4c18.4,10.1,18.4-11.1,18.4-11.1
		c10.6,18.4,32.7-0.9,26.7-13.4c8.8,20.7,25.3,15.2,28.1,6c-7.4,16.1,38.2,40.1,51.6-1.8c-0.5,21.6,43.8-1.4,18.9-24
		c24.9,20.3,51.1-17.5,28.6-31.8C266.7,19.6,263.9,0,263.9,0H0C0,0-0.7,97.2,0,97.9z"/>
	<path id="XMLID_23_" fill="#559444" stroke="#245617" stroke-linecap="round" stroke-linejoin="round" stroke-miterlimit="10" d="
		M514.5,0c-13.8,9.9-8.8,25.1,5.5,26.9c-21.6,8.8,8.8,47,32.2,27.6c-18.4,26.3,21.6,47,37.8,24c-9.2,30.9,32.7,40.5,42.4,18
		C640.7,108,648,108,648,106.6S648,0,648,0H514.5z"/>
	<path id="XMLID_24_" fill="#AACF88" stroke="#588233" stroke-linecap="round" stroke-linejoin="round" stroke-miterlimit="10" d="
		M20.2,309.3c0.9-18-11.1-32.7-11.1-32.7C25.8,295,25.8,295,25.8,295c3.7-18.9,20.3-28.1,20.3-28.1c-4.6,6.9-10.1,29.9-10.1,29.9
		c0.5-1.8,11.5-11.5,11.5-11.5c-0.5,2.3-3.7,13.8-3.7,13.8l10.6-6.9l1.4-2.3c-2.8,6.4-5.5,19.3-5.5,19.3"/>
	<path id="XMLID_22_" fill="#AACF88" stroke="#588233" stroke-linecap="round" stroke-linejoin="round" stroke-miterlimit="10" d="
		M94.4,307.9c0.9-3.2-4.6-25.8-4.6-25.8c6.9,7.4,8.3,13.8,8.3,13.8c4.1-8.8,15.2-11.5,15.2-11.5c-5.5,5.1-10.1,19.8-10.1,19.8
		c4.1-8.3,13.4-16.6,13.4-16.6c-2.3,7.4-0.9,19.3-0.9,19.3"/>
	<path id="XMLID_130_" fill="none" stroke="#245617" stroke-linecap="round" stroke-linejoin="round" stroke-miterlimit="10" d="
		M64.9,80.3c-0.7,5.9,2.1,13.1,7.4,16.6"/>
	<path id="XMLID_131_" fill="none" stroke="#245617" stroke-linecap="round" stroke-linejoin="round" stroke-miterlimit="10" d="
		M210.7,38.9c0,5.9,2.6,11.9,5.3,13.8"/>
	<path id="XMLID_133_" fill="none" stroke="#245617" stroke-linecap="round" stroke-linejoin="round" stroke-miterlimit="10" d="
		M112.1,18.8c-4.4,15,23.1,23.1,23.8,1.8"/>
	<path id="XMLID_134_" fill="none" stroke="#245617" stroke-linecap="round" stroke-linejoin="round" stroke-miterlimit="10" d="
		M133.4,14c5.7,23.5,35.9,15,28.6-0.4"/>
	<path id="XMLID_135_" fill="none" stroke="#245617" stroke-linecap="round" stroke-linejoin="round" stroke-miterlimit="10" d="
		M34.1,35.3c-5.5,9.2,5.9,32.2,30,10.6"/>
	<path id="XMLID_136_" fill="none" stroke="#245617" stroke-linecap="round" stroke-linejoin="round" stroke-miterlimit="10" d="
		M602.7,62.7c-9.2,4.8-12.7,15.8-12.7,15.8"/>
</g>
<g id="Layer_4">
	<path id="XMLID_26_" fill="#916256" stroke="#3A251E" stroke-linecap="round" stroke-linejoin="round" stroke-miterlimit="10" d="
		M109.3,188.1c-5.5-3.3-7.9-18.5-7.9-18.5c-17.7,1.8-22.4,4.9-22.4,4.9c13.4,12.2,23,17.9,23,17.9c-4.3,26.8,37,46.6,57.9,11.8
		c4.7-3,10-5.1,10.2-9.1c0.2-4.1-2.8-18.3-19.3-14.6c-7.3,8.3-13.2,11.2-13.2,11.2L109.3,188.1z"/>
	<path id="XMLID_27_" fill="#916256" stroke="#3A251E" stroke-linecap="round" stroke-linejoin="round" stroke-miterlimit="10" d="
		M141.6,193.2c-11.6-6.5-32.5-6.9-32.5-6.9c0.4,19.7,18.9,36,36.8,16.7"/>
	<path id="XMLID_29_" fill="none" stroke="#231F20" stroke-linecap="round" stroke-linejoin="round" stroke-miterlimit="10" d="
		M158.9,186.7c1-0.4,5.5-1.4,5.5,1.8"/>
	<path id="XMLID_30_" fill="#DDAB45" stroke="#63401E" stroke-linecap="round" stroke-linejoin="round" stroke-miterlimit="10" d="
		M159.4,201.7c1.7-2.9,7.5-5,9.3-4.2c3,8.1,4,9.7,4,9.7c-5.9-1.4-6.3-1-6.3-1c0.2,1.5,0.6,4.5,0.6,4.5
		C163.6,208.7,159.4,201.7,159.4,201.7z"/>
	<path id="XMLID_31_" fill="#916256" stroke="#3A251E" stroke-linecap="round" stroke-linejoin="round" stroke-miterlimit="10" d="
		M146.6,190.9c-0.7,2-1.5,8.3,4,10.7"/>
	<path id="XMLID_28_" fill="none" stroke="#63401E" stroke-linecap="round" stroke-linejoin="round" stroke-miterlimit="10" d="
		M121.9,221.4c-0.4,0-5,4.9-5.3,5c-0.4,0.1,6.3,10.8,6.3,10.8"/>
	<path id="XMLID_32_" fill="none" stroke="#63401E" stroke-linecap="round" stroke-linejoin="round" stroke-miterlimit="10" d="
		M131.3,223l-2.9,3.1c0,0,8.2,12.6,8.1,12.2"/>

		<ellipse id="XMLID_33_" transform="matrix(-0.7092 -0.705 0.705 -0.7092 135.5953 444.2427)" fill="#231F20" cx="159.4" cy="194.2" rx="1" ry="2.9"/>
	<path id="XMLID_34_" fill="#AACF88" stroke="#588233" stroke-linecap="round" stroke-linejoin="round" stroke-miterlimit="10" d="
		M111.9,242.4c-3.4-3.9-11-6.9-11-6.9c9.9,0.2,14.5,3,14.5,3c-3.6-8.2-7.7-13.1-7.7-13.1c8.4,4,12.8,11.2,12.8,11.2
		c0.6-5.1,6.8-8.4,6.8-8.4c-1.2,2.4-0.2,10.6-0.2,10.6l7-11.6c1.7,5.2,2.5,7.7,2.5,7.7c1.8-4.4,11.8-9.6,11.8-9.6
		c-6.5,8.2-6.7,11.2-6.7,11.2c1.3-1.3,10.9-3.6,10.6-3.4c-0.4,0.1-8.9,8.2-8.9,8.2"/>
	<path id="XMLID_36_" fill="#DB8FAA" stroke="#6B2A3C" stroke-linecap="round" stroke-linejoin="round" stroke-miterlimit="10" d="
		M178.9,243.3c-1.9-8.4-1.8-13.3,2.4-16.5c4.2-3.2,2-6.1,0-7.2c-2-1.2-1.5-7.1,3.4-6.2s8.9,7,5.6,11.9c-3.3,4.9-6.8,11.5-3.1,18.8
		C183.8,243.8,178.9,243.2,178.9,243.3z"/>
	<path id="XMLID_41_" fill="#AACF88" stroke="#588233" stroke-linecap="round" stroke-linejoin="round" stroke-miterlimit="10" d="
		M170.7,364c2.8-3.6,21.9-8,21.9-8c-8.7,5.1-17,15.3-17,15.3s15.8-1.9,15.5-1.4c-0.3,0.5-16.6,8.8-17.4,8.8"/>

		<circle id="XMLID_37_" fill="#EBF969" stroke="#A7BC2B" stroke-linecap="round" stroke-linejoin="round" stroke-miterlimit="10" cx="153.4" cy="356.8" r="21.5"/>
	<path id="XMLID_35_" fill="#AACF88" stroke="#588233" stroke-linecap="round" stroke-linejoin="round" stroke-miterlimit="10" d="
		M168.8,244.9c-0.6-1.8-8.2-6.2-8.2-6.2c3.9-0.8,13.8,1.9,13.8,1.9c-2.7-6.3-15.2-15-6.3-10.3c8.9,4.6,14.7,13.4,14.7,13.4
		c2.4-7.1,14.6-14.5,14.6-14.5c-5.3,8.6-5.7,10.6-5.7,10.6c2.4-2.1,10.7-1.4,10.7-1.4c-0.4,0-9.1,5.3-9.1,5.3l7.7,0.1l-6.3,3.1"/>

		<path id="XMLID_38_" fill="none" stroke="#FFFFFF" stroke-width="3" stroke-linecap="round" stroke-linejoin="round" stroke-miterlimit="10" d="
		M138.2,343.2c4.1-2.1,11.6-1.2,13.4,5.4c2.4,8.8,20,12.5,19.4-1.6"/>

		<path id="XMLID_39_" fill="none" stroke="#FFFFFF" stroke-width="3" stroke-linecap="round" stroke-linejoin="round" stroke-miterlimit="10" d="
		M137.7,371.8c5.7,2.5,9-1.1,14.4-4.6c5.4-3.5,19.7-3,17.3,2.4"/>
	<path id="XMLID_40_" fill="#AACF88" stroke="#588233" stroke-linecap="round" stroke-linejoin="round" stroke-miterlimit="10" d="
		M133.6,382.8c-2.5-4.7-18.3-9.6-18.3-9.6c6.3-1.9,15.3,1.9,15.3,1.9c-1.1-3.9-15.6-18.5-15.6-18.5c13.4,5.4,18,12.6,18,12.6
		c0.3-1.7,5.2-10.9,5.2-10.9c0,6.5,6.9,21.3,6.9,21.3"/>
</g>
<g id="Layer_5">
	<path id="XMLID_121_" fill="#592525" stroke="#3A1313" stroke-linecap="round" stroke-linejoin="round" stroke-miterlimit="10" d="
		M279.2,242.9c-1.2,2.3-19.8,146.9-19.8,146.9L437.2,363c0,0-22.2-117.8-24.5-119.5C410.4,241.7,279.2,242.9,279.2,242.9z"/>
	<path id="XMLID_81_" fill="#EDB253" stroke="#684A15" stroke-linecap="round" stroke-linejoin="round" stroke-miterlimit="10" d="
		M347.1,370.6c-13.1,0-21.7,3.8-29,4.1c-7.3,0.2-18.8,13-9.5,16.8c0.6,4.5,10.3,4.5,12.8,2.6c4.3,5.7,13.2,4.7,17,3.2
		c3.8-1.4,28.2-6.1,30-6.3c5.1-10.7,3-20.1,3-20.1S347.7,370.6,347.1,370.6z"/>
	<path id="XMLID_80_" fill="#EDB253" stroke="#684A15" stroke-linecap="round" stroke-linejoin="round" stroke-miterlimit="10" d="
		M319,378.9c-3.8,0.6-9.3,5.7-10.3,12.6"/>
	<path id="XMLID_79_" fill="#EDB253" stroke="#684A15" stroke-linecap="round" stroke-linejoin="round" stroke-miterlimit="10" d="
		M333.5,382.5c-5.7-0.2-11.1,4.7-12.2,11.5"/>
	<path id="XMLID_74_" fill="#EDB253" stroke="#684A15" stroke-linecap="round" stroke-linejoin="round" stroke-miterlimit="10" d="
		M335,355.2c3,18,8.3,31,41.1,30c32.4-0.8,53.3-1.4,53.3-1.4l-3.2-81.6c0,0-66.4,13.2-76.2,7.9C337.6,306,335.2,355.2,335,355.2z"/>
	<path id="XMLID_76_" fill="#EDB253" stroke="#684A15" stroke-linecap="round" stroke-linejoin="round" stroke-miterlimit="10" d="
		M398,374.6c-13.1,0-21.7,3.8-29,4.1c-7.3,0.2-18.8,13-9.5,16.8c0.6,4.5,10.3,4.5,12.8,2.6c4.3,5.7,13.2,4.7,17,3.2
		c3.8-1.4,28.2-6.1,30-6.3c5.1-10.7,3-20.1,3-20.1S398.6,374.6,398,374.6z"/>
	<path id="XMLID_72_" fill="#EDB253" stroke="#684A15" stroke-linecap="round" stroke-linejoin="round" stroke-miterlimit="10" d="
		M392.1,302.1c-10.9,2.8-36.5,31-19.4,66.2c8.5,13.2,43.6,8.7,43.6,8.7s8.3-25.5,7.5-26.3C422.9,349.9,409.7,301.1,392.1,302.1z"/>
	<path id="XMLID_42_" fill="#C94545" stroke="#721616" stroke-linecap="round" stroke-linejoin="round" stroke-miterlimit="10" d="
		M234.9,248.9c0,1.3,11,151.4,11,151.4l40.6-0.9l19.1-133.9c0,0,57.7-37.6,93.2,2.3c23.2,35.7,17.4,132.4,17.4,132.4l36.8,0.1
		l8.3-139.5L359.1,123.4c0,0-37.7,0-37.7,1.3C321.3,126,234.9,248.9,234.9,248.9z"/>
	<path id="XMLID_43_" fill="#A83535" stroke="#721616" stroke-linecap="round" stroke-linejoin="round" stroke-miterlimit="10" d="
		M452.5,400.2c0,0,127.7-3.9,127.7-5.7c0-1.8,7-129.9,7-129.9l-130.8-4.4L452.5,400.2z"/>
	<path id="XMLID_119_" fill="#7C3131" stroke="#231F20" stroke-linecap="round" stroke-linejoin="round" stroke-miterlimit="10" d="
		M368.7,250.2c-62.7-0.4-67.5,24.2-65.7,144.4c-9.4,3-16.8,4.7-16.8,4.7c-1.8-120.2,3.1-150.9,65.8-150.5"/>
	<path id="XMLID_77_" fill="#EDB253" stroke="#684A15" stroke-linecap="round" stroke-linejoin="round" stroke-miterlimit="10" d="
		M369.8,382.9c-3.8,0.6-9.3,5.7-10.3,12.6"/>
	<path id="XMLID_78_" fill="#EDB253" stroke="#684A15" stroke-linecap="round" stroke-linejoin="round" stroke-miterlimit="10" d="
		M384.4,386.6c-5.7-0.2-11.1,4.7-12.2,11.5"/>
	<path id="XMLID_49_" fill="#592525" stroke="#3A1313" stroke-linecap="round" stroke-linejoin="round" stroke-miterlimit="10" d="
		M368.3,121.6c0.9,1.3,154.4,22.4,154.4,22.4l79.4,112.3l-132.9,0.4L365.2,126L368.3,121.6z"/>

		<polygon id="XMLID_44_" fill="#CECCC4" stroke="#706F6B" stroke-linecap="round" stroke-linejoin="round" stroke-miterlimit="10" points="
		218.6,247.1 231.4,259 333.6,133 317.4,126 	"/>
	<path id="XMLID_45_" fill="#7A7973" stroke="#4F4E4A" stroke-linecap="round" stroke-linejoin="round" stroke-miterlimit="10" d="
		M239.7,257.2c-1.3,0.4-8.3,1.8-8.3,1.8L333.6,133l0.4,4.8L239.7,257.2z"/>
	<path id="XMLID_47_" fill="#7A7973" stroke="#4F4E4A" stroke-linecap="round" stroke-linejoin="round" stroke-miterlimit="10" d="
		M602.1,256.3c-2.6,0-136-5.7-136-5.7l-18.9,16.2l143.9,6.1L602.1,256.3z"/>

		<line id="XMLID_50_" fill="#C94545" stroke="#721616" stroke-linecap="round" stroke-linejoin="round" stroke-miterlimit="10" x1="454.7" y1="327.4" x2="581.9" y2="333.5"/>
	<ellipse id="XMLID_66_" fill="#6282A3" stroke="#293B51" stroke-miterlimit="10" cx="335.7" cy="331.8" rx="30.2" ry="31.5"/>
	<ellipse id="XMLID_71_" fill="#ADA1A6" stroke="#666062" stroke-miterlimit="10" cx="336.1" cy="372.5" rx="8.3" ry="8.3"/>
	<path id="XMLID_46_" fill="#CECCC4" stroke="#706F6B" stroke-linecap="round" stroke-linejoin="round" stroke-miterlimit="10" d="
		M349.8,130c0.9,1.3,97.4,136.9,97.4,136.9l18.9-16.2L367,122.1L349.8,130z"/>
	<path id="XMLID_107_" fill="none" stroke="#BC4444" stroke-linecap="round" stroke-linejoin="round" stroke-miterlimit="10" d="
		M509.1,209.6c1.1,0,4.9,17.1,4.9,17.1l32.2-1.1l-10.2-17.1"/>
	<path id="XMLID_108_" fill="none" stroke="#BC4444" stroke-linecap="round" stroke-linejoin="round" stroke-miterlimit="10" d="
		M523.9,195.2c0.4,1.1,2.7,14,2.7,14l21.6-2.3l-14.4-19.3"/>
	<path id="XMLID_109_" fill="none" stroke="#BC4444" stroke-linecap="round" stroke-linejoin="round" stroke-miterlimit="10" d="
		M539.5,230.4c-0.4,1.1,2.7,9.1,2.7,9.1l31.1,3l-14.4-22"/>
	<path id="XMLID_110_" fill="none" stroke="#BC4444" stroke-linecap="round" stroke-linejoin="round" stroke-miterlimit="10" d="
		M463.2,219.1c0.8,1.5,4.2,16.7,4.2,16.7h28.4l-7.6-12.5"/>

		<polyline id="XMLID_111_" fill="none" stroke="#BC4444" stroke-linecap="round" stroke-linejoin="round" stroke-miterlimit="10" points="
		404.4,145.5 412,162.9 442,164.8 429.1,145.1 	"/>

		<polyline id="XMLID_104_" fill="none" stroke="#BC4444" stroke-linecap="round" stroke-linejoin="round" stroke-miterlimit="10" points="
		429.9,163.7 435.9,182.3 448.1,181.9 	"/>
	<path id="XMLID_48_" fill="none" stroke="#490D0D" stroke-linecap="round" stroke-linejoin="round" stroke-miterlimit="10" d="
		M368.7,250.2c-62.7-0.4-67.5,24.2-65.7,144.4c-9.4,3-16.8,4.7-16.8,4.7c-1.8-120.2,3.1-150.9,65.8-150.5
		c62.7,0.4,64.9,50.5,64.1,151.4"/>
	<g id="XMLID_120_">
		<path id="XMLID_56_" fill="#EDB253" stroke="#684A15" stroke-linecap="round" stroke-linejoin="round" stroke-miterlimit="10" d="
			M305.1,283.1c-5-7.8-4.3-10.5-4.8-12.5c-0.5-2-6.5-4.8-10-2.5c-3.5,2.3-6.5,5.5-6.5,5.5c-2.5-2.8-3.5-1.3-7.3,0.5
			c-3.8,1.8-3.8,3.5-4.5,8.3c-0.8,4.8-7,14,0.8,14s18.1-10.5,18.1-10.5c2.5,2.5,6,7.8,6,7.8S306.3,289.9,305.1,283.1z"/>
		<path id="XMLID_57_" fill="#EDB253" stroke="#684A15" stroke-linecap="round" stroke-linejoin="round" stroke-miterlimit="10" d="
			M278.7,282.4c3.3-3.5,5-8.8,5-8.8"/>
		<path id="XMLID_58_" fill="#EDB253" stroke="#684A15" stroke-linecap="round" stroke-linejoin="round" stroke-miterlimit="10" d="
			M299,279.4c-2-1-8.3,6.5-8.3,6.5"/>
		<path id="XMLID_51_" fill="#EDB253" d="M362.2,290.1c-11.8,7.9-18.3,19.7-12.8,21.2c5.5,1.4,9.4-0.5,12-4.6
			c2.6-4.1,12.3-8.4,10.8-11.1S362.2,290.1,362.2,290.1z"/>
		<path id="XMLID_52_" fill="#EDB253" stroke="#684A15" stroke-linecap="round" stroke-linejoin="round" stroke-miterlimit="10" d="
			M357,311c0.8,5.5,6.5,16.8,6.5,16.8c-6-2-7.3-3.3-7.3-3.3c6,9.8,2,22.6-4.5,24.3c2-4.3,0.5-3.3,0.5-3.3c-6.3,6.8-8,7-8,7
			c1-2.3,1.8-7,1.8-7c-8,9.8-15.3,11.5-25.8,10s-31.4-3.3-33.1-5.8c-1.8-2.5-6-36.1-2.8-42.6c3.3-6.5,8-8,10.3-13.8
			s6.8-16.3,22.6-14.5c-6.8-5-9.3-6.3-9.3-6.3c12.3,0.5,19.3,8.3,20.1,8.8c-1.8-6-3.5-11.3-3.5-11.3c7.8,4.8,14.8,15.3,15.6,15.3
			s16.8,5,16.8,5"/>
		<path id="XMLID_62_" fill="#E07E77" stroke="#893529" stroke-linecap="round" stroke-linejoin="round" stroke-miterlimit="10" d="
			M274.2,334.4c-3.3,2.9-10.4,18.1,4.6,22.8c13.1,2.6,12.9-10.6,21.3-15.3C290.6,327,273.8,334.6,274.2,334.4z"/>
		<path id="XMLID_53_" fill="#EDB253" stroke="#684A15" stroke-linecap="round" stroke-linejoin="round" stroke-miterlimit="10" d="
			M354.7,313.2c8-3,21.3-14.5,22.1-17.3c0.8-2.8,0.8-8.8-0.5-11.3c-1.3-2.5-7.5-5.8-11.5-5c-9-7.3-6.3-10-11.8-9.3
			c-4.6,0.6-15.1,22.6-16.8,25.6c2.5,9,20.6,6.8,32.6,0"/>
		<path id="XMLID_73_" fill="#E07E77" stroke="#893529" stroke-linecap="round" stroke-linejoin="round" stroke-miterlimit="10" d="
			M279.8,345.9c0.4-5.5,6.5-10.3,7.6-10.7"/>
		<path id="XMLID_55_" fill="#EDB253" stroke="#684A15" stroke-linecap="round" stroke-linejoin="round" stroke-miterlimit="10" d="
			M353,287.3c4.5-1.3,11.7-7.6,11.7-7.6"/>
		<path id="XMLID_54_" fill="#EDB253" stroke="#684A15" stroke-linecap="round" stroke-linejoin="round" stroke-miterlimit="10" d="
			M308.8,312.5c-8.5-3.3-25.1-10.3-36.4-5.3c-9.8,5-13.8,7.3-11.3,16.3c2.5,9,7.5,13.8,7.5,13.8c5-2.8,9-4.3,9-4.3
			c0.5,1,15.6,9.8,20.3,11c4.8,1.3,18.8-6.8,22.6-13.8"/>
		<path id="XMLID_60_" fill="none" stroke="#231F20" stroke-linecap="round" stroke-linejoin="round" stroke-miterlimit="10" d="
			M278,322c-0.8,3.3-0.3,11-0.3,11"/>
		<path id="XMLID_61_" fill="none" stroke="#684A15" stroke-linecap="round" stroke-linejoin="round" stroke-miterlimit="10" d="
			M315.6,329.5c3.8-0.8,7.3,1,8.8,3.5"/>
		<path id="XMLID_63_" fill="#3F2815" stroke="#1E1006" stroke-linecap="round" stroke-linejoin="round" stroke-miterlimit="10" d="
			M262.9,308.4c-1.1,3.8,1.1,13.7,14.2,16.6c13.3,0,19.3-10.9,19.1-13.7C289.7,303.4,273.3,303.4,262.9,308.4z"/>

			<ellipse id="XMLID_59_" transform="matrix(-0.9657 -0.2597 0.2597 -0.9657 548.4775 687.2861)" fill="#231F20" cx="319.6" cy="307.4" rx="1.5" ry="5.2"/>

			<ellipse id="XMLID_65_" transform="matrix(-0.9657 -0.2597 0.2597 -0.9657 510.3964 673.2548)" fill="#231F20" cx="299.7" cy="302.9" rx="1.5" ry="5.2"/>
		<ellipse id="XMLID_64_" fill="#231F20" cx="294.5" cy="325.4" rx="1.3" ry="1.2"/>
		<ellipse id="XMLID_69_" fill="#231F20" cx="270.7" cy="326.6" rx="1.3" ry="1.2"/>
		<ellipse id="XMLID_67_" fill="#231F20" cx="290.1" cy="329.9" rx="1.3" ry="1.2"/>
		<ellipse id="XMLID_70_" fill="#231F20" cx="269.4" cy="331.2" rx="1.3" ry="1.2"/>
		<ellipse id="XMLID_68_" fill="#231F20" cx="298" cy="331.5" rx="1.3" ry="1.2"/>
	</g>
</g>
<g id="Layer_8">
	<path id="XMLID_116_" fill="#AACF88" stroke="#588233" stroke-linecap="round" stroke-linejoin="round" stroke-miterlimit="10" d="
		M434.3,406.4c1.9-11.4-3.8-29.9-3.8-29.9c13.4,14.6,12.7,17.2,12.7,17.2c3.2-15.3,20.3-23.5,20.3-23.5c-8.3,13.4-7.6,25.4-7.6,25.4
		c1.9-2.5,8.3-10.8,8.3-10.8c0,8.9-3.2,25.4-2.5,23.5"/>
	<path id="XMLID_115_" fill="#AACF88" stroke="#588233" stroke-linecap="round" stroke-linejoin="round" stroke-miterlimit="10" d="
		M267.1,402c1.3-7-10.2-26.7-10.2-26.7c1.9,12.1,2.5,19.1,2.5,19.1c-3.8-4.5-13.4-11.4-13.4-11.4c6.4,8.9,7.6,19.1,7.6,19.1
		c-5.7-7-24.2-23.5-24.2-23.5c5.7,12.7,11.4,21.6,11.4,21.6c-7.6-5.7-22.3-3.8-22.3-3.8c4.5,0,16.5,7,16.5,7"/>
	<path id="XMLID_117_" fill="#AACF88" stroke="#588233" stroke-linecap="round" stroke-linejoin="round" stroke-miterlimit="10" d="
		M564.7,399.4c1.3-8.3-3.2-23.5-3.2-23.5c8.3,11.4,9.5,17.8,9.5,17.8c4.5-15.3,17.8-22.3,17.8-22.3c-4.5,14-6.4,20.3-6.4,20.3
		c4.5-4.5,7.6-12.1,7.6-8.9c0,3.2-3.8,15.9-3.8,15.9"/>
	<path id="XMLID_118_" fill="#AACF88" stroke="#588233" stroke-linecap="round" stroke-linejoin="round" stroke-miterlimit="10" d="
		M503,403.9c1.9-8.3-5.1-28-5.1-28c8.3,9.5,10.2,19.1,10.2,19.1c0-7,12.7-22.9,12.7-22.9c-6.4,16.5-7,29.2-7,29.2"/>
	<path id="XMLID_6_" fill="#AACF88" stroke="#588233" stroke-linecap="round" stroke-linejoin="round" stroke-miterlimit="10" d="
		M607.9,314.3c0.6-7.1-3.2-20-3.2-20c4.5,7.1,9.7,15.5,9.7,15.5c0-3.9,9-12.9,9-12.9l-5.2,15.5"/>
	<path id="XMLID_122_" fill="#AACF88" stroke="#588233" stroke-linecap="round" stroke-linejoin="round" stroke-miterlimit="10" d="
		M623.4,367.1c0-5.8-8.4-20.6-8.4-20.6c8.4,7.1,13.5,16.1,13.5,16.1c0-4.5-3.2-24.5-3.2-24.5c5.2,7.1,7.7,22.6,7.7,22.6
		c1.3-4.5,8.4-16.1,8.4-16.1l-2.6,18.7"/>
	<path id="XMLID_124_" fill="#AACF88" stroke="#588233" stroke-linecap="round" stroke-linejoin="round" stroke-miterlimit="10" d="
		M620.8,257.6c-0.6-7.1-11-22.6-9-21.9c9,5.8,12.2,14.8,12.2,14.8c0.6-6.4,14.8-20.6,13.5-18.7c-1.3,1.9-6.4,18-6.4,18"/>
	<path id="XMLID_125_" fill="#AACF88" stroke="#588233" stroke-linecap="round" stroke-linejoin="round" stroke-miterlimit="10" d="
		M45.9,412.3c-1.9-16.1-13.5-29-11.6-27.7c12.9,6.4,18.7,16.8,18.7,16.8c1.9-12.9,21.3-32.2,21.3-32.2c-7.1,18.7-9.7,35.5-9.7,35.5
		c3.2-6.4,16.8-12.9,16.8-14.8s-6.4,22.6-6.4,22.6"/>
</g>
<g id="Layer_6">
	<path id="XMLID_101_" fill="#ACB4B7" stroke="#464C4F" stroke-linecap="round" stroke-linejoin="round" stroke-miterlimit="10" d="
		M331.3,110.8c-1.1,2.7-4.4,5.5-4.4,5.5c-7-2.2-12.1,2.3-12.5,5.9c-0.4,3.6,4.1,9.8,4.1,15.7s9.1,6.6,10.7,5.1
		c1.6-1.5,6.7-4.9,7.1-5.4c0.4-0.4,4.1-14.8,3.8-15.7C340,121.1,331.3,110.8,331.3,110.8z"/>
	<path id="XMLID_105_" fill="#ACB4B7" stroke="#464C4F" stroke-linecap="round" stroke-linejoin="round" stroke-miterlimit="10" d="
		M323.8,135.8c-0.7,2.2-1.1,4.5,1.4,8"/>
	<path id="XMLID_106_" fill="#ACB4B7" stroke="#464C4F" stroke-linecap="round" stroke-linejoin="round" stroke-miterlimit="10" d="
		M463.4,132.9c13.9,8.8,33.1,17.9,37.6,39.7c4.5,21.8-9.9,31.1-23.6,28.4c-13.7-2.6-20.1-7.8-15.4-17.2c2.1-4.8,14.8-9.4,4.5-17
		c-9.2-6.9-30.5,19.5-11.5,34.2c19.6,13.7,33.3,13.5,45.9,4.1c13.1-9.7,10.9-28,9.5-34.9s-12.9-36.4-36.8-44.1
		C463.4,131,463.4,132.9,463.4,132.9z"/>
	<path id="XMLID_84_" fill="#ACB4B7" stroke="#464C4F" stroke-linecap="round" stroke-linejoin="round" stroke-miterlimit="10" d="
		M307.5,38.1c-12.6-4.1-22.3-13.2-22.3-13.2c-8,14.6-3.3,38.3,11.1,48.6C306.4,51.1,307.5,38.1,307.5,38.1z"/>
	<path id="XMLID_93_" fill="#ACB4B7" stroke="#464C4F" stroke-linecap="round" stroke-linejoin="round" stroke-miterlimit="10" d="
		M320.6,95.8c0.3,1.8,8.7,4.1,13.2-3"/>
	<path id="XMLID_94_" fill="#ACB4B7" stroke="#464C4F" stroke-linecap="round" stroke-linejoin="round" stroke-miterlimit="10" d="
		M376.1,126.5c0,0-18.4,4.7-24.9,4.4c-6.5-0.3-17.5-9.9-17.5-9.9s-1.6-12.5-14.2-36.8c0,0,18.4-13.6,34.2-15.9c0,0,12,15,18.3,16.6"
		/>
	<path id="XMLID_91_" fill="#ACB4B7" stroke="#464C4F" stroke-linecap="round" stroke-linejoin="round" stroke-miterlimit="10" d="
		M359.6,83.6c6.7-9.5,23.4-12.1,32.8-6.7c20.2-10.6,38.3-27.5,69.4-5.4c20.1,13.9,27.3,51.9,4,64c-15.9-1.1-67.9-9.3-68.2-9.2"/>
	<path id="XMLID_95_" fill="#ACB4B7" stroke="#464C4F" stroke-linecap="round" stroke-linejoin="round" stroke-miterlimit="10" d="
		M462.1,76.3c-14.7-10.2-38.1-13.7-46.7,8.9c-8.7,22.7,3.7,36,6.3,37.5"/>
	<path id="XMLID_97_" fill="#ACB4B7" stroke="#464C4F" stroke-linecap="round" stroke-linejoin="round" stroke-miterlimit="10" d="
		M415.4,128.9c1.5-5.1,9.6-10.7,21.7-5.1s20.1,10.7,20.1,10.7S421.7,133.7,415.4,128.9z"/>
	<path id="XMLID_98_" fill="#ACB4B7" stroke="#464C4F" stroke-linecap="round" stroke-linejoin="round" stroke-miterlimit="10" d="
		M425.2,124c-4.7,0.8-5.4,4.3-5.5,6.3"/>
	<path id="XMLID_127_" fill="#ACB4B7" d="M386.4,102.9c-8.1-7.4-21.8-12.1-17.6,3.2C373,121.3,395.8,138.9,386.4,102.9z"/>
	<path id="XMLID_99_" fill="#ACB4B7" stroke="#464C4F" stroke-linecap="round" stroke-linejoin="round" stroke-miterlimit="10" d="
		M431.8,126c-4.7,0.8-5.4,4.3-5.5,6.3"/>
	<path id="XMLID_100_" fill="#ACB4B7" stroke="#464C4F" stroke-linecap="round" stroke-linejoin="round" stroke-miterlimit="10" d="
		M374.3,80.2c-8.4,0.5-19.4,18-10.7,32.8"/>
	<path id="XMLID_96_" fill="#ACB4B7" stroke="#464C4F" stroke-linecap="round" stroke-linejoin="round" stroke-miterlimit="10" d="
		M386.7,94.7c9.5,13.9,15.5,33,14.8,38.1c-1.8-0.7-2.2-2.1-2.2-2.1c-0.5,1.9-4.7,7-4.7,7c1.2-1.4,0.7-4.5,0.7-4.5
		c-1.8,2.5-8.4,4.7-8.4,4.7c2.1-2.2,1.9-3.4,1.9-3.4c-21.6-1-27.1-4.3-28.4-3.6s-13.7,13.1-15,13.2s-5.5,1.1-6.2-0.4
		c-5.1,1.9-7.6-3.3-7.7-5.1c-2.7-2.1-3-3.7-1.9-6.3c1.1-2.6,14.3-11.3,15.5-13.5c1.2-2.2,7.4-9.3,13.7-7.1s24.9,7.7,24.9,7.7"/>
	<path id="XMLID_102_" fill="#ACB4B7" stroke="#464C4F" stroke-linecap="round" stroke-linejoin="round" stroke-miterlimit="10" d="
		M342,137.5c-2.3,0.4-3.7,2.7-2.7,6.2"/>
	<path id="XMLID_103_" fill="#ACB4B7" stroke="#464C4F" stroke-linecap="round" stroke-linejoin="round" stroke-miterlimit="10" d="
		M335.9,133.6c-3.4,0.5-4.5,3.3-4.3,4.9"/>
	<path id="XMLID_82_" fill="#ACB4B7" stroke="#464C4F" stroke-linecap="round" stroke-linejoin="round" stroke-miterlimit="10" d="
		M350.9,85.3c6.4-11.3,12.4-29.5,12.4-29.5c-4.3,2.9-6.6,3.1-6.6,3.1c3.5-2.9,6-8.9,6-8.9c-9.9-0.4-35-17.3-42.3-16.5
		c-7.8,0.8-24.5,4.9-27,21.4s-3.3,28-5.8,30.5c4.7,0,5.4-0.8,5.4-0.8c-3.5,3.3-3.5,3.3-3.5,3.3c8.2,6.6,28,22.1,51.7,9.3"/>

		<ellipse id="XMLID_85_" transform="matrix(-0.921 0.3896 -0.3896 -0.921 655.6406 11.8094)" fill="#231F20" cx="326.6" cy="72.4" rx="1.2" ry="4"/>

		<ellipse id="XMLID_87_" transform="matrix(-0.921 0.3896 -0.3896 -0.921 622.9711 31.6259)" fill="#231F20" cx="308.3" cy="79" rx="1.2" ry="4"/>
	<path id="XMLID_83_" fill="#ACB4B7" stroke="#464C4F" stroke-linecap="round" stroke-linejoin="round" stroke-miterlimit="10" d="
		M320.4,33.7c-9.5-0.2-20.4-5.4-20.4-5.4c3.1,4.7,6,6.6,6,6.6c-6.6-0.6-10.7,10.3-8.7,14.2c2.1-1.9,7.2-4.7,7.2-4.7
		c-2.1,1.9,2.3,13,2.3,13c0.4-2.5,6.2-10.1,6.2-10.1"/>
	<path id="XMLID_88_" fill="#935F78" stroke="#68304B" stroke-linecap="round" stroke-linejoin="round" stroke-miterlimit="10" d="
		M315.4,88c2.6-0.1,9.5-3.8,9.5-3.8c-1.2,3.3-2.7,6-2.7,6S317,89.6,315.4,88z"/>
	<path id="XMLID_89_" fill="none" stroke="#231F20" stroke-linecap="round" stroke-linejoin="round" stroke-miterlimit="10" d="
		M319.5,61.3c0.5-1.5,4.7-4.1,8-0.1"/>
	<path id="XMLID_75_" fill="#ACB4B7" stroke="#464C4F" stroke-linecap="round" stroke-linejoin="round" stroke-miterlimit="10" d="
		M320.9,38.3c3.9-10.3,14.4-25.4,14.4-25.4c18.3,15.1,20.6,35.3,20.4,35.9"/>
	<path id="XMLID_90_" fill="none" stroke="#231F20" stroke-linecap="round" stroke-linejoin="round" stroke-miterlimit="10" d="
		M306,65.9c-2.9-0.7-5.9,0.5-5.5,4.8"/>
	<path id="XMLID_86_" fill="none" stroke="#231F20" stroke-linecap="round" stroke-linejoin="round" stroke-miterlimit="10" d="
		M313.3,93.2c-0.1,3,5.8,6.2,10.4-0.8c9.3,0.1,13.5-5.2,7-9.3"/>

		<line id="XMLID_92_" fill="none" stroke="#231F20" stroke-linecap="round" stroke-linejoin="round" stroke-miterlimit="10" x1="322.1" y1="90.2" x2="323.8" y2="92.4"/>
	<path id="XMLID_112_" fill="#EFE7D0" stroke="#AFA175" stroke-linecap="round" stroke-linejoin="round" stroke-miterlimit="10" d="
		M381.5,214.7c5-1.6,8.6-6.3,8.6-11.9c0-7.1-5.7-13-12.8-13.2c-7.1-0.2-12.8,5.4-12.8,12.5c0,0.2,0,0.4,0,0.6l-41.5-1.2
		c0-0.2,0-0.4,0-0.6c0-7.1-5.7-13-12.8-13.2s-12.8,5.4-12.8,12.5c0,5.6,3.6,10.5,8.6,12.4c-5,1.6-8.6,6.3-8.6,11.9
		c0,7.1,5.7,13,12.8,13.2s12.8-5.4,12.8-12.5c0-1.8-0.4-3.5-1-5l43.4,1.3c-0.6,1.5-1,3.2-1,4.9c0,7.1,5.7,13,12.8,13.2
		c7.1,0.2,12.8-5.4,12.8-12.5C390.1,221.5,386.5,216.6,381.5,214.7z"/>
	<path id="XMLID_126_" fill="#ACB4B7" d="M371.2,95.6"/>
	<path id="XMLID_129_" fill="#935F78" stroke="#68304B" stroke-linecap="round" stroke-linejoin="round" stroke-miterlimit="10" d="
		M335.4,41.7c1.6-10,0.3-23.6,0.3-24.4c5.5,3.7,14.4,19.4,16.8,29.7C340.9,45.9,335.4,41.7,335.4,41.7z"/>
</g>
</svg>
