<?xml version="1.0" encoding="utf-8"?>
<!-- Generator: Adobe Illustrator 18.1.1, SVG Export Plug-In . SVG Version: 6.00 Build 0)  -->
<!DOCTYPE svg PUBLIC "-//W3C//DTD SVG 1.1//EN" "http://www.w3.org/Graphics/SVG/1.1/DTD/svg11.dtd">
<svg version="1.1" xmlns="http://www.w3.org/2000/svg" xmlns:xlink="http://www.w3.org/1999/xlink" x="0px" y="0px" width="648px"
	 height="432px" viewBox="0 0 648 432" style="enable-background:new 0 0 648 432;" xml:space="preserve">
<g id="Layer_6">
	<rect id="XMLID_113_" x="-1.017" style="fill:#E5E3DA;" width="648" height="432"/>
</g>
<g id="Layer_2">

		<rect id="XMLID_2_" x="21.265" y="21.176" style="fill:#936A4C;stroke:#4F2A0B;stroke-linecap:round;stroke-linejoin:round;stroke-miterlimit:10;" width="197.794" height="280.882"/>

		<rect id="XMLID_3_" x="29.188" y="32.428" style="fill:#664732;stroke:#4F2A0B;stroke-linecap:round;stroke-linejoin:round;stroke-miterlimit:10;" width="181.948" height="258.38"/>

		<rect id="XMLID_4_" x="236.108" y="24.843" style="fill:none;stroke:#231F20;stroke-linecap:round;stroke-linejoin:round;stroke-miterlimit:10;" width="253.381" height="196.718"/>

		<rect id="XMLID_5_" x="236.108" y="24.843" style="fill:none;stroke:#231F20;stroke-linecap:round;stroke-linejoin:round;stroke-miterlimit:10;" width="253.381" height="196.718"/>

		<rect id="XMLID_7_" x="236.108" y="24.843" style="fill:none;stroke:#231F20;stroke-linecap:round;stroke-linejoin:round;stroke-miterlimit:10;" width="253.381" height="196.718"/>

		<rect id="XMLID_6_" x="236.108" y="24.843" style="fill:none;stroke:#231F20;stroke-linecap:round;stroke-linejoin:round;stroke-miterlimit:10;" width="253.381" height="196.718"/>

		<rect id="XMLID_11_" x="236.108" y="24.843" style="fill:none;stroke:#231F20;stroke-linecap:round;stroke-linejoin:round;stroke-miterlimit:10;" width="253.381" height="196.718"/>

		<rect id="XMLID_10_" x="236.108" y="24.843" style="fill:none;stroke:#231F20;stroke-linecap:round;stroke-linejoin:round;stroke-miterlimit:10;" width="253.381" height="196.718"/>

		<rect id="XMLID_9_" x="236.108" y="24.843" style="fill:none;stroke:#231F20;stroke-linecap:round;stroke-linejoin:round;stroke-miterlimit:10;" width="253.381" height="196.718"/>

		<rect id="XMLID_8_" x="236.108" y="24.843" style="fill:#F9F6EF;stroke:#AAA59D;stroke-linecap:round;stroke-linejoin:round;stroke-miterlimit:10;" width="253.381" height="196.718"/>

		<rect id="XMLID_19_" x="247.18" y="33.439" style="fill:none;stroke:#231F20;stroke-linecap:round;stroke-linejoin:round;stroke-miterlimit:10;" width="231.237" height="179.526"/>

		<rect id="XMLID_18_" x="247.18" y="33.439" style="fill:none;stroke:#231F20;stroke-linecap:round;stroke-linejoin:round;stroke-miterlimit:10;" width="231.237" height="179.526"/>

		<rect id="XMLID_17_" x="247.18" y="33.439" style="fill:none;stroke:#231F20;stroke-linecap:round;stroke-linejoin:round;stroke-miterlimit:10;" width="231.237" height="179.526"/>

		<rect id="XMLID_16_" x="247.18" y="33.439" style="fill:none;stroke:#231F20;stroke-linecap:round;stroke-linejoin:round;stroke-miterlimit:10;" width="231.237" height="179.526"/>

		<rect id="XMLID_15_" x="247.18" y="33.439" style="fill:none;stroke:#231F20;stroke-linecap:round;stroke-linejoin:round;stroke-miterlimit:10;" width="231.237" height="179.526"/>

		<rect id="XMLID_14_" x="247.18" y="33.439" style="fill:none;stroke:#231F20;stroke-linecap:round;stroke-linejoin:round;stroke-miterlimit:10;" width="231.237" height="179.526"/>

		<rect id="XMLID_13_" x="247.18" y="33.439" style="fill:none;stroke:#231F20;stroke-linecap:round;stroke-linejoin:round;stroke-miterlimit:10;" width="231.237" height="179.526"/>
	<path id="XMLID_123_" style="fill:#E2DECC;stroke:#9B9784;stroke-linecap:round;stroke-linejoin:round;stroke-miterlimit:10;" d="
		M43.034,64.238c11.771,5.325,34.753,4.204,41.76,1.121C81.43,86.099,71.901,88.061,61.251,87.5
		C50.892,86.955,42.473,76.85,43.034,64.238z"/>
	<path id="XMLID_118_" style="fill:#D1CBB2;stroke:#9B9784;stroke-linecap:round;stroke-linejoin:round;stroke-miterlimit:10;" d="
		M113.942,43.778c2.395,2.395,4.765,5.605,7.567,6.166c-9.809,4.204-13.453,8.969-13.453,10.93s2.522,20.74,14.013,26.906
		c11.491,0,15.975,0,15.975,0c9.529-7.287,13.173-22.982,12.612-26.345c-0.561-3.363-5.045-9.249-14.013-10.93
		c4.204-3.083,5.325-6.446,5.325-6.446S113.381,43.217,113.942,43.778z"/>
	<path id="XMLID_125_" style="fill:#B7B6A3;stroke:#9B9784;stroke-linecap:round;stroke-linejoin:round;stroke-miterlimit:10;" d="
		M184.009,46.861c-8.128-0.841-8.128-5.605,1.682-5.045s11.211,3.924,3.924,5.045c0,5.886-0.28,8.969-0.28,8.969
		c7.567,1.121,10.65,6.726,10.37,12.612c-0.28,5.886-5.045,17.377-7.287,19.339c-4.765,1.121-12.052,0-12.052,0
		c-10.93-15.415-5.618-25.899-3.924-27.747c3.083-3.363,7.287-4.484,7.287-4.484L184.009,46.861z"/>

		<rect id="XMLID_12_" x="247.18" y="33.439" style="fill:#BEE6ED;stroke:#635F4E;stroke-linecap:round;stroke-linejoin:round;stroke-miterlimit:10;" width="231.237" height="179.526"/>
	<path id="XMLID_124_" style="opacity:0.53;fill:#96BECC;" d="M247.359,124.437c26.114-16.957,47.48,6.105,39.341,34.254
		c12.887-10.853,27.471-0.678,19.67,11.192c23.062-23.401,42.732-8.818,46.124,12.887c10.174-11.87,22.384-16.279,34.254-8.818
		c-5.179-16.921,9.194-25.056,25.134-17.595c-13.473-39.744,28.966-58.606,48.121-37.686c10.513-5.426,17.86-3.427,17.86-3.427
		l0.107,97.094l-230.384,0.189C247.586,212.528,247.699,124.437,247.359,124.437z"/>

		<rect id="XMLID_20_" x="361.773" y="30.328" style="fill:#F9F6EF;stroke:#AAA59D;stroke-linecap:round;stroke-linejoin:round;stroke-miterlimit:10;" width="9.453" height="186.061"/>

		<rect id="XMLID_21_" x="25.317" y="86.189" style="fill:#936A4C;stroke:#4F2A0B;stroke-linecap:round;stroke-linejoin:round;stroke-miterlimit:10;" width="189.068" height="7.305"/>

		<rect id="XMLID_23_" x="25.317" y="146.348" style="fill:#936A4C;stroke:#4F2A0B;stroke-linecap:round;stroke-linejoin:round;stroke-miterlimit:10;" width="189.068" height="7.305"/>

		<rect id="XMLID_24_" x="25.317" y="214.24" style="fill:#936A4C;stroke:#4F2A0B;stroke-linecap:round;stroke-linejoin:round;stroke-miterlimit:10;" width="189.068" height="7.305"/>

		<rect id="XMLID_22_" y="284.251" style="fill:#C4C0AE;stroke:#5E5B4D;stroke-linecap:round;stroke-linejoin:round;stroke-miterlimit:10;" width="648" height="147.75"/>
</g>
<g id="Layer_7">
</g>
<g id="Layer_3">
	<path id="XMLID_38_" style="fill:#895F42;stroke:#5B3120;stroke-linecap:round;stroke-linejoin:round;stroke-miterlimit:10;" d="
		M542.38,363.964c0.439,5.484-6.142,13.162-15.794,17.769s-4.826,12.723,7.239,8.336c12.065-4.387,27.201-7.897,28.298-12.723
		c-2.852-10.968-6.8-16.452-6.8-16.452L542.38,363.964z"/>
	<path id="XMLID_37_" style="fill:#895F42;stroke:#5B3120;stroke-linecap:round;stroke-linejoin:round;stroke-miterlimit:10;" d="
		M594.589,368.132c-3.071,6.142-27.201,31.369-22.375,35.757c4.826,4.387,14.259,3.071,25.666-9.213
		c11.407-12.284,11.626-21.717,10.31-26.324C606.874,363.744,594.589,368.132,594.589,368.132z"/>
	<path id="XMLID_40_" style="fill:#D1A169;stroke:#936932;stroke-linecap:round;stroke-linejoin:round;stroke-miterlimit:10;" d="
		M561.246,374.932c-2.852,3.071-24.35,13.162-31.808,11.188c-7.458-1.974-1.536-5.265-1.536-5.265
		c-16.452,5.484-25.008,16.672-10.749,16.891c14.259,0.219,43.434-8.775,47.383-15.575
		C563.22,374.713,561.246,374.932,561.246,374.932z"/>
	<path id="XMLID_39_" style="fill:#D1A169;stroke:#936932;stroke-linecap:round;stroke-linejoin:round;stroke-miterlimit:10;" d="
		M577.698,390.068c-1.974,5.923,3.51,16.891,17.549,3.29c14.039-13.601,13.601-20.401,13.601-20.401l1.974-0.439
		c0,0,1.755,11.188-0.877,15.136s-26.5,32.966-39.925,27.421C559.929,410.908,568.923,401.695,577.698,390.068z"/>
	<path id="XMLID_36_" style="fill:#647084;stroke:#2C323D;stroke-linecap:round;stroke-linejoin:round;stroke-miterlimit:10;" d="
		M588.447,173.554c10.749,7.897,30.053,32.027,25.227,74.584s-4.826,91.037-3.51,106.831c1.316,15.794,0.658,17.549,0.658,17.549
		c-9.433,5.045-21.717,0.877-21.059-0.439c6.362-23.253-22.595-85.333-24.13-107.708c-0.439-24.35-9.871,12.723-9.871,12.723
		c-3.071,27.64-8.117,48.699,2.413,85.772c-7.678,7.678-17.988,5.045-17.988,5.045c-14.478-37.95-17.11-85.333-13.82-103.979
		c3.29-18.646,22.156-89.721,22.156-90.598C548.522,172.458,588.447,173.554,588.447,173.554z"/>
	<path id="XMLID_31_" style="fill:#E8C78E;stroke:#936932;stroke-linecap:round;stroke-linejoin:round;stroke-miterlimit:10;" d="
		M557.297,90.415c-14.478-1.974-30.931,33.563-30.931,33.563c3.51,8.336,19.085,2.194,19.085,2.194l35.058,52.331
		c5.484,0,10.842-1.424,10.622-2.521c-0.439-3.071,5.651-41.694,5.651-42.352s3.291-30.272,0.658-34.66
		S574.188,85.589,557.297,90.415z"/>
	<path id="XMLID_29_" style="fill:#895F42;stroke:#5B3120;stroke-linecap:round;stroke-linejoin:round;stroke-miterlimit:10;" d="
		M530.534,135.385c-1.316,8.775-15.575,44.751-18.207,73.049c-2.852,28.737,3.071,44.312,13.82,42.996
		c7.239-10.53-3.071-38.608-4.826-41.899c8.555-13.601,24.569-38.828,25.227-50.454c2.194-12.504,1.316-22.814,1.316-22.814
		C546.767,135.385,530.534,135.385,530.534,135.385z"/>
	<path id="XMLID_52_" style="fill:#E8C78E;stroke:#936932;stroke-linecap:round;stroke-linejoin:round;stroke-miterlimit:10;" d="
		M545.761,122.51c-2.341-3.421-21.605-4.861-23.045,0.72s-3.961,13.683,2.161,14.223c1.08,6.301,16.564,10.982,18.544,8.282
		C545.401,143.035,545.581,121.97,545.761,122.51z"/>
	<path id="XMLID_55_" style="fill:#5C7558;stroke:#3B5138;stroke-linecap:round;stroke-linejoin:round;stroke-miterlimit:10;" d="
		M581.249,174.486c2.967,0.698,10.471-2.618,10.471-2.618l2.094,6.631c-4.537,1.745-13.612,2.269-13.612,2.269L581.249,174.486z"/>
	<path id="XMLID_56_" style="fill:#D1A169;stroke:#936932;stroke-linecap:round;stroke-linejoin:round;stroke-miterlimit:10;" d="
		M529.378,132.772c-1.44,2.341-4.681,4.501-4.681,4.501"/>
	<path id="XMLID_32_" style="fill:#E8C78E;stroke:#936932;stroke-linecap:round;stroke-linejoin:round;stroke-miterlimit:10;" d="
		M587.35,93.267c14.259,5.704,29.395,18.427,32.247,23.691c-8.994,9.213-14.478,21.059-16.233,21.059
		c-5.703-0.658-13.162-14.039-13.82-14.259"/>
	<path id="XMLID_33_" style="fill:#445940;stroke:#20301D;stroke-linecap:round;stroke-linejoin:round;stroke-miterlimit:10;" d="
		M555.761,87.782c-9.871,5.484-33.124,38.608-17.988,54.622c1.974,18.207,6.362,34.221,6.362,34.221
		c-16.233,24.13-21.279,62.3-24.788,103.102c41.899,19.085,83.14,6.142,83.14,6.142c-2.194-43.215-8.555-75.462-17.111-105.954
		c-3.729-25.666,4.387-62.958,0-87.966C578.795,81.201,559.71,84.711,555.761,87.782z"/>
	<path id="XMLID_35_" style="fill:#895F42;stroke:#5B3120;stroke-linecap:round;stroke-linejoin:round;stroke-miterlimit:10;" d="
		M599.635,130.12c18.865,19.524,9.652,58.351,9.652,62.08c-19.962,2.413-24.569,11.188-21.498,12.284
		c3.071,1.097,13.82-5.484,13.82-5.484c-10.968,9.652-20.182,24.13-8.117,30.272c1.097,1.755,16.452-1.974,21.498-32.685
		c9.871-7.897,28.956-50.454-2.852-82.701C602.925,120.687,599.635,130.12,599.635,130.12z"/>
	<path id="XMLID_34_" style="fill:#445940;stroke:#20301D;stroke-linecap:round;stroke-linejoin:round;stroke-miterlimit:10;" d="
		M539.748,190.665c-1.755,4.826-5.923,25.008-5.923,29.176c19.743,19.962,46.067,4.826,46.944,3.29
		c-0.439-17.111-1.974-28.956-1.974-28.956C552.471,199.878,539.748,190.665,539.748,190.665z"/>
	<path id="XMLID_50_" style="fill:#445940;stroke:#20301D;stroke-linecap:round;stroke-linejoin:round;stroke-miterlimit:10;" d="
		M558.184,140.874c12.423,4.861,19.264,4.501,19.264,4.501"/>
	<path id="XMLID_51_" style="fill:#E8C78E;stroke:#936932;stroke-linecap:round;stroke-linejoin:round;stroke-miterlimit:10;" d="
		M554.583,102.165c-2.521,7.382-3.601,16.744,8.822,17.644c12.963,0.18,16.744-16.204,16.024-16.204
		C577.448,99.825,554.403,101.985,554.583,102.165z"/>
	<path id="XMLID_47_" style="fill:#E8C78E;stroke:#936932;stroke-linecap:round;stroke-linejoin:round;stroke-miterlimit:10;" d="
		M607.515,112.608c1.26-5.041,5.041-9.182,9.542-6.301c4.501,2.881,12.243,15.303,4.141,16.384
		c-3.061,6.121-9.002,7.922-9.182,7.382c0.36,2.881-5.221,12.243-8.462,12.063c-3.781,0.18-15.844-7.742-9.902-15.303
		c4.501-4.321,6.661-2.881,6.661-2.881c-0.36-3.241,3.961-5.941,3.961-5.941C603.554,115.128,607.155,112.788,607.515,112.608z"/>
	<path id="XMLID_53_" style="fill:#D1A169;stroke:#936932;stroke-linecap:round;stroke-linejoin:round;stroke-miterlimit:10;" d="
		M611.116,118.009c0.72,4.141,0.9,12.063,0.9,12.063"/>
	<path id="XMLID_54_" style="fill:#D1A169;stroke:#936932;stroke-linecap:round;stroke-linejoin:round;stroke-miterlimit:10;" d="
		M600.314,134.213c1.26-1.98,0-10.262,0-10.262"/>
	<path id="XMLID_42_" style="fill:#1B1B26;stroke:#555587;stroke-linecap:round;stroke-linejoin:round;stroke-miterlimit:10;" d="
		M595.765,44.272c9.532-5.546,29.462,6.586,19.584,24.956c-9.878,18.371-24.61,18.89-37.608-0.867
		C587.273,58.483,595.765,44.272,595.765,44.272z"/>
	<path id="XMLID_41_" style="fill:#1B1B26;stroke:#555587;stroke-linecap:round;stroke-linejoin:round;stroke-miterlimit:10;" d="
		M590.739,56.75c10.398-8.492,19.237-4.679,19.757,3.986c0.52,8.665-7.452,17.331-13.171,16.811
		c-5.719-0.52-5.546-10.398,1.56-14.558s1.733,6.759,1.733,6.759"/>
	<path id="XMLID_26_" style="fill:#895F42;stroke:#5B3120;stroke-linecap:round;stroke-linejoin:round;stroke-miterlimit:10;" d="
		M561.465,101.164c-1.097-9.871-1.097-18.646-1.097-18.646c3.729-3.071,14.917-3.29,14.917-3.29
		c0.219,0.877,3.052,18.234,3.052,18.234C570.659,105.358,561.684,100.725,561.465,101.164z"/>
	<path id="XMLID_28_" style="fill:#E8C78E;stroke:#936932;stroke-linecap:round;stroke-linejoin:round;stroke-miterlimit:10;" d="
		M559.011,85.622c-5.694,4.65-12.233,20.597-7.856,24.974c11.188-6.362,14.259-8.775,14.259-8.775
		c-5.045-8.555-5.045-15.356-5.045-15.356l-1.271-0.847C559.07,85.601,559.036,85.602,559.011,85.622z"/>
	<path id="XMLID_30_" style="fill:#E8C78E;stroke:#936932;stroke-linecap:round;stroke-linejoin:round;stroke-miterlimit:10;" d="
		M576.601,84.053c-0.439,6.362-1.974,13.82-11.188,17.769c7.678,8.555,12.284,11.407,12.284,11.407
		C583.401,105.99,586.253,90.854,576.601,84.053z"/>
	<path id="XMLID_25_" style="fill:#895F42;stroke:#5B3120;stroke-linecap:round;stroke-linejoin:round;stroke-miterlimit:10;" d="
		M546.987,23.07c-11.188,14.478-16.672,35.976-2.632,52.648c14.039,16.672,37.95,14.697,44.092-12.943
		c6.142-27.64,3.51-29.614,1.316-32.027S565.194,8.811,546.987,23.07z"/>
	<path id="XMLID_44_" style="fill:#1B1B26;stroke:#555587;stroke-linecap:round;stroke-linejoin:round;stroke-miterlimit:10;" d="
		M557.117,24.168c-3.639,5.373-22.183,19.237-28.769,26.169c1.56-14.558,6.066-18.197,6.066-18.197
		c-3.986,2.946-6.586,8.492-6.586,8.492c-0.693-7.799,15.078-34.661,35.181-25.13c15.598-10.225,45.406,6.066,35.875,32.755
		c-1.733,7.279-6.013,9.564-6.013,9.564c-3.986-3.986-13.571-7.137-17.73-22.388c2.253,10.398,4.679,11.958,4.679,11.958
		C567.169,42.712,556.598,35.606,557.117,24.168z"/>
	<path id="XMLID_43_" style="fill:#895F42;stroke:#5B3120;stroke-linecap:round;stroke-linejoin:round;stroke-miterlimit:10;" d="
		M555.731,50.164c-0.173,3.12-4.159,9.879-2.773,11.958c1.386,2.08,3.466,2.253,3.466,2.253"/>
	<path id="XMLID_27_" style="fill:#895F42;stroke:#5B3120;stroke-linecap:round;stroke-linejoin:round;stroke-miterlimit:10;" d="
		M585.156,52.026c5.045-10.968,11.626-4.607,10.749,0.658s-3.729,12.065-10.31,9.871"/>
	<path id="XMLID_46_" style="fill:none;stroke:#231F20;stroke-linecap:round;stroke-linejoin:round;stroke-miterlimit:10;" d="
		M542.386,42.019c2.426-4.333,6.932-3.986,8.145-1.906"/>

		<ellipse id="XMLID_45_" style="fill:#231F20;stroke:#231F20;stroke-linecap:round;stroke-linejoin:round;stroke-miterlimit:10;" cx="567.689" cy="50.078" rx="0.867" ry="3.553"/>

		<ellipse id="XMLID_48_" style="fill:#231F20;stroke:#231F20;stroke-linecap:round;stroke-linejoin:round;stroke-miterlimit:10;" cx="546.892" cy="51.117" rx="0.867" ry="3.553"/>
	<path id="XMLID_49_" style="fill:none;stroke:#231F20;stroke-linecap:round;stroke-linejoin:round;stroke-miterlimit:10;" d="
		M551.398,71.308c5.026,3.12,16.464,2.08,22.357-4.679"/>
</g>
<g id="Layer_4">

		<rect id="XMLID_64_" x="363.177" y="321.868" style="fill:#877F6F;stroke:#666054;stroke-linecap:round;stroke-linejoin:round;stroke-miterlimit:10;" width="12.542" height="51.562"/>

		<rect id="XMLID_68_" x="436.836" y="321.868" style="fill:#877F6F;stroke:#666054;stroke-linecap:round;stroke-linejoin:round;stroke-miterlimit:10;" width="12.542" height="51.562"/>

		<rect id="XMLID_61_" x="345.877" y="318.396" style="fill:#D6CCB4;stroke:#877A5F;stroke-linecap:round;stroke-linejoin:round;stroke-miterlimit:10;" width="12.684" height="94.306"/>

		<polygon id="XMLID_63_" style="fill:#AFA595;stroke:#666054;stroke-linecap:round;stroke-linejoin:round;stroke-miterlimit:10;" points="
		366.559,407.937 358.283,412.858 358.286,318.871 366.283,318.871 	"/>

		<rect id="XMLID_66_" x="455.206" y="318.396" style="fill:#D6CCB4;stroke:#877A5F;stroke-linecap:round;stroke-linejoin:round;stroke-miterlimit:10;" width="12.684" height="94.306"/>

		<polygon id="XMLID_65_" style="fill:#AFA595;stroke:#666054;stroke-linecap:round;stroke-linejoin:round;stroke-miterlimit:10;" points="
		447.209,407.937 455.485,412.858 455.482,318.871 447.485,318.871 	"/>

		<polygon id="XMLID_57_" style="fill:#F7EED7;stroke:#AA9B79;stroke-linecap:round;stroke-linejoin:round;stroke-miterlimit:10;" points="
		480.549,316.667 328.098,316.667 346.725,273.039 460.451,273.039 	"/>

		<rect id="XMLID_58_" x="327.954" y="316.466" style="fill:#D6CCB4;stroke:#877A5F;stroke-linecap:round;stroke-linejoin:round;stroke-miterlimit:10;" width="152.489" height="8.272"/>
</g>
<g id="Layer_8">
	<path style="fill:#A1ACAF;stroke:#838E93;stroke-width:2;stroke-linecap:round;stroke-linejoin:round;stroke-miterlimit:10;" d="
		M444.333,296.833l3.833-2c0,0,5.833-8.833,5.833-8.333s7,12.5,7,12.5l-11.167-1.5c0,0-5.167,3.5-5.667,3
		S444.333,296.833,444.333,296.833z"/>
	<path style="fill:none;stroke:#838E93;stroke-width:2;stroke-linecap:round;stroke-linejoin:round;stroke-miterlimit:10;" d="
		M415.757,290.798c0.823-0.68,5.776-3.757,5.776-3.757c9.176,0.524,12.785-3.199,10.405-6.162c-2.38-2.963-7.212-2.888-10.911,5.837
		"/>
	<path style="fill:#936A4C;stroke:#4F2A0B;stroke-linecap:round;stroke-linejoin:round;stroke-miterlimit:10;" d="M397,277.333
		c-30.667,7-43,11.333-43,11.333c-4.667,6.667-9.333,11.333-8,11c30.333-6.667,54-14.333,54-14.333C404,279,397,277.333,397,277.333
		z"/>
	<path style="fill:#936A4C;stroke:#4F2A0B;stroke-linecap:round;stroke-linejoin:round;stroke-miterlimit:10;" d="M414.218,287.644
		c-9.743,0.812-16.914,4.244-21.404,7.958c-3.651,3.02-0.851,8.995,3.801,8.095c7.572-1.465,16.099-6.334,20.186-10.422
		C418.962,291.113,417.264,287.39,414.218,287.644z"/>
	<path style="fill:#936A4C;stroke:#4F2A0B;stroke-linecap:round;stroke-linejoin:round;stroke-miterlimit:10;" d="M443.718,295.478
		c-9.743,0.812-16.914,4.244-21.404,7.958c-3.651,3.02-0.851,8.995,3.801,8.095c7.572-1.465,16.099-6.334,20.186-10.422
		C448.462,298.947,446.764,295.224,443.718,295.478z"/>
</g>
<g id="Layer_5">

		<polygon id="XMLID_116_" style="fill:#877F6F;stroke:#666054;stroke-linecap:round;stroke-linejoin:round;stroke-miterlimit:10;" points="
		0,413.299 0,426.846 114.457,393.401 113.187,365.46 	"/>
	<path id="XMLID_117_" style="fill:#AFA595;stroke:#666054;stroke-linecap:round;stroke-linejoin:round;stroke-miterlimit:10;" d="
		M28.517,323.125L0,324.818v88.481l116.574-38.102c0,0-4.234-54.189-4.657-55.459C111.494,318.468,28.517,323.125,28.517,323.125z"
		/>

		<polygon id="XMLID_67_" style="fill:#F7EED7;stroke:#AA9B79;stroke-linecap:round;stroke-linejoin:round;stroke-miterlimit:10;" points="
		60.453,380.73 182.876,319.312 327.559,337.448 238.523,412.057 	"/>

		<rect id="XMLID_73_" x="310.036" y="360.082" style="fill:#AFA595;stroke:#666054;stroke-linecap:round;stroke-linejoin:round;stroke-miterlimit:10;" width="10.653" height="71.918"/>

		<rect id="XMLID_75_" x="299.229" y="366.73" style="fill:#877F6F;stroke:#666054;stroke-linecap:round;stroke-linejoin:round;stroke-miterlimit:10;" width="10.653" height="65.27"/>

		<rect id="XMLID_110_" x="210.46" y="410.724" style="fill:#AFA595;stroke:#666054;stroke-linecap:round;stroke-linejoin:round;stroke-miterlimit:10;" width="22.172" height="21.276"/>
	<path id="XMLID_70_" style="fill:#D6CCB4;stroke:#877A5F;stroke-linecap:round;stroke-linejoin:round;stroke-miterlimit:10;" d="
		M73.625,382.967c0,0.954,13.35,22.885,13.032,23.839c-0.318,0.954,152.252,22.885,152.252,22.885l-0.385-17.635L73.625,382.967z"/>

		<polygon id="XMLID_69_" style="fill:#AFA595;stroke:#666054;stroke-linecap:round;stroke-linejoin:round;stroke-miterlimit:10;" points="
		327.559,337.448 326.954,358.174 238.909,429.692 238.523,412.057 	"/>
	<path id="XMLID_77_" style="fill:#725D4E;stroke:#564436;stroke-linecap:round;stroke-linejoin:round;stroke-miterlimit:10;" d="
		M79.664,358.81c24.157,17.164,28.607,73.19,28.607,73.19H77.757c0,0-10.489-31.233-40.05-60.158
		c-29.56-28.925-25.428-56.896-9.853-77.874C71.4,312.721,79.664,358.81,79.664,358.81z"/>
	<path id="XMLID_78_" style="fill:#72D3A5;stroke:#1C593F;stroke-linecap:round;stroke-linejoin:round;stroke-miterlimit:10;" d="
		M112.708,187.266c-29.56,11.125-59.426,26.284-73.093,47.581s-19.707,61.346-20.661,71.199c5.404,19.071,51.81,41.957,93.131,7.628
		c-6.675-20.66-2.543-32.421,3.496-40.05c6.039-7.628,46.07-50.276,46.07-50.276c18.753,9.218,3.573-13.933,3.573-13.933
		c13.986-17.482-20.716-9.837-5.716-16.791C152.198,178.322,135.593,176.142,112.708,187.266z"/>
	<path id="XMLID_76_" style="fill:#D9E3E8;stroke:#5E666B;stroke-linecap:round;stroke-linejoin:round;stroke-miterlimit:10;" d="
		M119.078,311.132c-26.064-5.404-73.424,7.628-85.503,22.25s-17.164,36.235-17.8,51.81c19.389,30.196,54.989,42.275,54.989,42.275
		c-1.271-20.025,23.203-47.678,41.321-56.896s40.685-17.164,40.367-18.118S119.078,311.132,119.078,311.132z"/>
	<path id="XMLID_83_" style="fill:#D9E3E8;stroke:#5E666B;stroke-linecap:round;stroke-linejoin:round;stroke-miterlimit:10;" d="
		M47.879,366.439c6.357-13.668,36.235-31.468,45.453-30.196"/>
	<path id="XMLID_84_" style="fill:none;stroke:#5E666B;stroke-linecap:round;stroke-linejoin:round;stroke-miterlimit:10;" d="
		M45.018,344.825c9.853-10.489,35.282-19.389,44.182-21.932"/>
	<path id="XMLID_74_" style="fill:#898560;stroke:#635F37;stroke-linecap:round;stroke-linejoin:round;stroke-miterlimit:10;" d="
		M119.396,348.003c0,0.954,5.086,21.932,5.086,21.932c45.453,26.064,126.506,11.443,132.227,2.543
		c6.039-17.164,8.582-29.878,8.582-29.878C251.305,341.646,119.396,348.003,119.396,348.003z"/>

		<ellipse id="XMLID_71_" style="fill:#7F797C;stroke:#4C4648;stroke-linecap:round;stroke-linejoin:round;stroke-miterlimit:10;" cx="191.231" cy="324.482" rx="94.085" ry="40.685"/>

		<ellipse id="XMLID_72_" style="fill:#BAB686;stroke:#635F37;stroke-linecap:round;stroke-linejoin:round;stroke-miterlimit:10;" cx="191.231" cy="324.482" rx="88.661" ry="37.549"/>
	<g id="XMLID_86_">
		<path id="XMLID_87_" style="fill:#9B7E72;stroke:#684A3A;stroke-linecap:round;stroke-linejoin:round;stroke-miterlimit:10;" d="
			M138.785,279.347c0,34.646,17.482,63.253,55.942,61.028c23.521,0,46.407-23.839,45.135-60.074
			C188.052,280.3,138.785,279.029,138.785,279.347z"/>
		<path id="XMLID_82_" style="fill:#BC9E8A;stroke:#684A3A;stroke-linecap:round;stroke-linejoin:round;stroke-miterlimit:10;" d="
			M239.862,279.347c0,13.166-21.991,22.25-49.903,22.25s-51.174-9.084-51.174-22.25c0-13.166,22.627-23.839,50.539-23.839
			S239.862,266.181,239.862,279.347z"/>

			<ellipse id="XMLID_85_" style="fill:#7F6557;stroke:#684A3A;stroke-linecap:round;stroke-linejoin:round;stroke-miterlimit:10;" cx="189.324" cy="276.402" rx="44.32" ry="17.961"/>
		<path id="XMLID_88_" style="fill:none;stroke:#684A3A;stroke-linecap:round;stroke-linejoin:round;stroke-miterlimit:10;" d="
			M153.724,302.55c12.396,9.218,34.964,10.171,52.446,5.404"/>
		<path id="XMLID_89_" style="fill:none;stroke:#684A3A;stroke-linecap:round;stroke-linejoin:round;stroke-miterlimit:10;" d="
			M233.505,304.139c-8.264,6.039-42.91,25.11-84.867,4.768"/>
		<path id="XMLID_90_" style="fill:none;stroke:#684A3A;stroke-linecap:round;stroke-linejoin:round;stroke-miterlimit:10;" d="
			M155.631,317.489c19.707,10.489,52.764,6.357,66.431-0.636"/>
		<path id="XMLID_91_" style="fill:none;stroke:#684A3A;stroke-linecap:round;stroke-linejoin:round;stroke-miterlimit:10;" d="
			M177.881,328.614c16.211,2.543,28.925-0.636,34.01-2.543"/>
		<path id="XMLID_92_" style="fill:none;stroke:#684A3A;stroke-linecap:round;stroke-linejoin:round;stroke-miterlimit:10;" d="
			M175.338,332.746c7.311,2.861,18.753,2.861,22.885,1.907"/>
		<path id="XMLID_93_" style="fill:none;stroke:#493126;stroke-linecap:round;stroke-linejoin:round;stroke-miterlimit:10;" d="
			M149.274,274.261c11.125-7.311,42.592-8.264,48.949-7.946"/>
		<path id="XMLID_94_" style="fill:none;stroke:#493126;stroke-linecap:round;stroke-linejoin:round;stroke-miterlimit:10;" d="
			M164.531,275.215c10.171-2.861,32.103-3.496,40.05-1.589"/>
	</g>
	<path id="XMLID_79_" style="fill:#EAB081;stroke:#75321B;stroke-linecap:round;stroke-linejoin:round;stroke-miterlimit:10;" d="
		M169.299,238.026c25.11,11.125,35.917,28.607,38.142,37.825c-2.918,15.378-4.347,16.45-4.347,16.45
		c8.931,0,21.435-6.073,21.435-6.073c-2.543-18.753-3.767-12.856-8.217-18.577c-10.171-29.878-40.486-65.854-44.3-66.807
		C160.252,210.378,169.299,238.026,169.299,238.026z"/>
	<path id="XMLID_115_" style="fill:#72D3A5;stroke:#1C593F;stroke-linecap:round;stroke-linejoin:round;stroke-miterlimit:10;" d="
		M159.509,196.198c8.574,1.072,26.464,12.647,31.466,22.65c2.144,9.289-14.679,31.548-18.252,33.335
		c-4.436-2.662-12.295-8.112-30.546-8.112C169.934,215.679,159.509,196.198,159.509,196.198z"/>
	<path id="XMLID_95_" style="fill:none;stroke:#231F20;stroke-linecap:round;stroke-linejoin:round;stroke-miterlimit:10;" d="
		M248.445,278.711c3.814,7.311,6.993,41.321-18.753,53.082"/>
	<path id="XMLID_96_" style="fill:none;stroke:#231F20;stroke-linecap:round;stroke-linejoin:round;stroke-miterlimit:10;" d="
		M238.591,258.368c11.761,6.993,24.475,25.746,17.164,49.267"/>
	<path id="XMLID_97_" style="fill:none;stroke:#231F20;stroke-linecap:round;stroke-linejoin:round;stroke-miterlimit:10;" d="
		M128.614,306.682c-7.628,5.721-9.218,21.296,2.861,27.335"/>
	<path id="XMLID_98_" style="fill:none;stroke:#231F20;stroke-linecap:round;stroke-linejoin:round;stroke-miterlimit:10;" d="
		M127.978,301.596c-10.807,6.675-14.939,13.986-11.443,22.25"/>
	<path id="XMLID_81_" style="fill:#EAB081;stroke:#75321B;stroke-linecap:round;stroke-linejoin:round;stroke-miterlimit:10;" d="
		M100.325,255.19c-18.118,5.721-24.793,15.575-24.793,15.575c18.436,26.382,55.307,23.521,79.781,17.482
		c10.736,4.698,23.334,5.236,21.344,5.483c-5.721-7.946-16.894-13.111-23.251-14.7C147.049,277.44,110.496,277.44,100.325,255.19z"
		/>
	<path id="XMLID_80_" style="fill:#72D3A5;stroke:#1C593F;stroke-linecap:round;stroke-linejoin:round;stroke-miterlimit:10;" d="
		M68.458,211.126c-11.761,7.628-8.9,44.182,7.311,63.253c16.211,1.271,32.421-15.893,32.421-15.893
		c-5.404-5.086-13.668-33.693-13.668-33.693"/>
	<path id="XMLID_99_" style="fill:#EAB081;stroke:#75321B;stroke-linecap:round;stroke-linejoin:round;stroke-miterlimit:10;" d="
		M121.621,200.837c-10.489,13.986-1.271,35.917,4.45,38.142c5.721,2.225,17.164-12.714,19.389-17.482
		C147.367,216.094,121.621,200.837,121.621,200.837z"/>
	<path id="XMLID_100_" style="fill:#CE5F28;stroke:#632512;stroke-linecap:round;stroke-linejoin:round;stroke-miterlimit:10;" d="
		M114.628,130.273c-4.45-26.382-27.971-32.739-44.182-26.382s-23.521,16.528-23.203,35.282
		c0.318,18.753-11.761,27.653-11.761,27.653c4.45-0.954,11.125-6.357,11.125-6.357c-6.039,9.853-7.628,28.925,7.311,43.228
		c-2.861-19.071,4.132-31.468,4.132-31.468c-1.271,7.628-1.907,17.164-1.589,17.8c4.45-7.946,18.436-13.35,22.568-16.211
		c-2.225,4.768-6.039,11.125-6.039,11.125c7.946-3.496,31.785-13.986,35.917-21.932
		C113.039,155.066,114.628,130.273,114.628,130.273z"/>
	<path id="XMLID_101_" style="fill:#CE5F28;stroke:#632512;stroke-linecap:round;stroke-linejoin:round;stroke-miterlimit:10;" d="
		M106.682,142.987c-6.039-32.103-27.018-35.282-41.321-23.839"/>
	<path id="XMLID_103_" style="fill:#EAB081;stroke:#75321B;stroke-linecap:round;stroke-linejoin:round;stroke-miterlimit:10;" d="
		M117.807,188.123c-0.954,16.211,7.311,41.957,37.507,39.096c30.196-2.861,41.957-50.539,35.282-73.424
		c-6.675-22.885-58.485-12.396-62.935-9.536C123.21,147.119,117.807,188.123,117.807,188.123z"/>
	<path id="XMLID_102_" style="fill:#CE5F28;stroke:#632512;stroke-linecap:round;stroke-linejoin:round;stroke-miterlimit:10;" d="
		M53.6,161.423c5.086-18.753,30.514-45.771,48.949-7.628"/>
	<path id="XMLID_114_" style="fill:#CE5F28;stroke:#632512;stroke-linecap:round;stroke-linejoin:round;stroke-miterlimit:10;" d="
		M125.569,167.26l5.002,2.144c0,0,19.292-26.08,33.582-38.227c-21.296-16.846-55.246-9.804-60.65,7.996
		c-20.025,7.628-19.528,56.221,16.707,67.028c-2.858-8.217-0.357-17.148-0.357-17.148"/>
	<path id="XMLID_104_" style="fill:#EAB081;stroke:#75321B;stroke-linecap:round;stroke-linejoin:round;stroke-miterlimit:10;" d="
		M124.482,176.362c-4.45-12.078-17.164-10.489-19.389,0.636s7.946,21.296,18.753,16.211"/>
	<path id="XMLID_106_" style="fill:#CE5F28;stroke:#632512;stroke-linecap:round;stroke-linejoin:round;stroke-miterlimit:10;" d="
		M122.354,166.188c-1.589,9.218,4.035,18.12,7.531,24.477c0.318-13.668,1.589-18.753,1.589-18.753
		c20.978-1.589,35.282-12.078,35.282-12.078c-4.132,4.768-11.125,10.807-11.125,10.807c10.807-0.954,23.203-10.171,24.475-13.668
		c-0.318,7.628-4.132,20.978-4.132,20.978c6.993-4.132,12.714-17.8,12.714-17.8c6.993,13.668,11.761,27.971,11.761,27.971
		c7.946-20.978,8.582-73.106-45.135-57.849"/>
	<path id="XMLID_105_" style="fill:#EAB081;stroke:#75321B;stroke-linecap:round;stroke-linejoin:round;stroke-miterlimit:10;" d="
		M172.763,193.748c-1.643,3.697,0.205,7.394,1.027,10.269c0.822,2.875-2.465,5.34-4.313,6.367"/>
	<path id="XMLID_108_" style="fill:none;stroke:#231F20;stroke-linecap:round;stroke-linejoin:round;stroke-miterlimit:10;" d="
		M151.198,177.111c4.519-3.492,10.269-5.34,12.734-1.849"/>
	<path id="XMLID_109_" style="fill:none;stroke:#231F20;stroke-linecap:round;stroke-linejoin:round;stroke-miterlimit:10;" d="
		M182.622,171.566c3.697-2.875,6.572-3.081,7.189,0.205"/>

		<ellipse id="XMLID_107_" transform="matrix(0.9802 0.1979 -0.1979 0.9802 41.7009 -26.6318)" style="fill:#231F20;stroke:#231F20;stroke-linecap:round;stroke-linejoin:round;stroke-miterlimit:10;" cx="154.073" cy="195.288" rx="1.438" ry="4.827"/>

		<ellipse id="XMLID_111_" transform="matrix(0.9802 0.1979 -0.1979 0.9802 41.2413 -31.8921)" style="fill:#231F20;stroke:#231F20;stroke-linecap:round;stroke-linejoin:round;stroke-miterlimit:10;" cx="180.157" cy="190.359" rx="1.438" ry="4.827"/>
	<path id="XMLID_112_" style="fill:none;stroke:#231F20;stroke-linecap:round;stroke-linejoin:round;stroke-miterlimit:10;" d="
		M147.295,210.384c1.643,6.983,15.815,12.118,25.674,6.367"/>

		<line id="XMLID_119_" style="fill:none;stroke:#FFFFFF;stroke-linecap:round;stroke-linejoin:round;stroke-miterlimit:10;" x1="324.44" y1="54.719" x2="260.937" y2="148.28"/>

		<line id="XMLID_120_" style="fill:none;stroke:#FFFFFF;stroke-linecap:round;stroke-linejoin:round;stroke-miterlimit:10;" x1="336.941" y1="83.931" x2="295.851" y2="144.47"/>

		<line id="XMLID_122_" style="fill:none;stroke:#FFFFFF;stroke-linecap:round;stroke-linejoin:round;stroke-miterlimit:10;" x1="445.942" y1="54.719" x2="382.439" y2="148.28"/>

		<line id="XMLID_121_" style="fill:none;stroke:#FFFFFF;stroke-linecap:round;stroke-linejoin:round;stroke-miterlimit:10;" x1="458.443" y1="83.931" x2="417.353" y2="144.47"/>
</g>
</svg>
