<?xml version="1.0" encoding="utf-8"?>
<!-- Generator: Adobe Illustrator 18.1.1, SVG Export Plug-In . SVG Version: 6.00 Build 0)  -->
<!DOCTYPE svg PUBLIC "-//W3C//DTD SVG 1.1//EN" "http://www.w3.org/Graphics/SVG/1.1/DTD/svg11.dtd">
<svg version="1.1" xmlns="http://www.w3.org/2000/svg" xmlns:xlink="http://www.w3.org/1999/xlink" x="0px" y="0px" width="648px"
	 height="432px" viewBox="0 0 648 432" style="enable-background:new 0 0 648 432;" xml:space="preserve">
<g id="Layer_7">
	<rect id="XMLID_94_" style="fill:#C5DDDD;" width="648" height="432"/>
</g>
<g id="Layer_2">

		<rect id="XMLID_4_" y="305.435" style="fill:#CCC7B0;stroke:#726E54;stroke-linecap:round;stroke-linejoin:round;stroke-miterlimit:10;" width="648" height="126.565"/>
</g>
<g id="Layer_4">

		<path id="XMLID_26_" style="fill:#E4F6F9;stroke:#496A6B;stroke-width:1.0846;stroke-linecap:round;stroke-linejoin:round;stroke-miterlimit:10;" d="
		M380.531,356.814l1.127,10.516l12.018-4.131l-25.538,31.547c0,0-2.629-4.131-3.005-5.258
		C364.758,388.361,380.531,356.814,380.531,356.814z"/>

		<path id="XMLID_16_" style="fill:#E4F6F9;stroke:#496A6B;stroke-width:1.0846;stroke-linecap:round;stroke-linejoin:round;stroke-miterlimit:10;" d="
		M366.636,355.311c1.127,0.376,15.023,1.127,13.896,1.502c-1.127,0.376-15.774,39.81-15.774,39.81l28.543-36.054l11.642,10.891
		l-41.688,27.792L366.636,355.311z"/>
</g>
<g id="Layer_5">

		<rect id="XMLID_93_" x="19.894" y="6.443" style="fill:#B1D1DD;stroke:#385B70;stroke-miterlimit:10;" width="315.211" height="193.615"/>
	<path id="XMLID_25_" style="fill:#A58D77;stroke:#605243;stroke-linecap:round;stroke-linejoin:round;stroke-miterlimit:10;" d="
		M216.125,303.967h-89.306c-2.2,0-4-1.8-4-4v-54.331c0-2.2,1.8-4,4-4h89.306c2.2,0,4,1.8,4,4v54.331
		C220.125,302.167,218.325,303.967,216.125,303.967z"/>
	<rect id="XMLID_27_" x="26.5" y="10.5" style="fill:#769EB2;stroke:#1F3B4F;stroke-miterlimit:10;" width="302" height="185.5"/>

		<rect id="XMLID_28_" x="364.5" y="48" style="fill:#7C8182;stroke:#525859;stroke-linecap:round;stroke-linejoin:round;stroke-miterlimit:10;" width="284" height="188.5"/>

		<rect id="XMLID_29_" x="373.853" y="56.803" style="fill:#D6E5EA;stroke:#354B4F;stroke-linecap:round;stroke-linejoin:round;stroke-miterlimit:10;" width="274.647" height="166.107"/>

		<rect id="XMLID_30_" x="371.5" y="14" style="fill:#D3CCA9;stroke:#565132;stroke-linecap:round;stroke-linejoin:round;stroke-miterlimit:10;" width="276.5" height="29"/>

		<rect id="XMLID_31_" x="500" y="207" style="fill:#443D3F;stroke:#231F20;stroke-linecap:round;stroke-linejoin:round;stroke-miterlimit:10;" width="48" height="15.5"/>

		<rect id="XMLID_32_" x="500" y="216.84" style="fill:#9E8F95;stroke:#63575B;stroke-linecap:round;stroke-linejoin:round;stroke-miterlimit:10;" width="48" height="5.66"/>
	<path id="XMLID_33_" style="fill:#EADFE3;stroke:#4C4547;stroke-linecap:round;stroke-linejoin:round;stroke-miterlimit:10;" d="
		M443.717,222.704h-28.432c-1.688,0-3.069-1.381-3.069-3.069l0,0c0-1.688,1.381-3.069,3.069-3.069h28.432
		c1.688,0,3.069,1.381,3.069,3.069l0,0C446.786,221.323,445.405,222.704,443.717,222.704z"/>

		<polygon id="XMLID_34_" style="fill:#231F20;stroke:#231F20;stroke-linecap:round;stroke-linejoin:round;stroke-miterlimit:10;" points="
		440.208,216.179 440.208,223.35 447.636,222.838 448.148,215.923 	"/>
	<path id="XMLID_97_" style="fill:#FFF8F3;stroke:#605243;stroke-linecap:round;stroke-linejoin:round;stroke-miterlimit:10;" d="
		M160.009,257.544c2.611-6.408,20.648-16.376,27.294-2.373c6.171,13.291,0.949,42.483,0.949,42.483s-25.87-0.949-26.107-1.899
		C161.908,294.806,160.009,257.544,160.009,257.544z"/>
</g>
<g id="Layer_3">

		<path id="XMLID_9_" style="fill:#755C45;stroke:#4F402F;stroke-width:0.9866;stroke-linecap:round;stroke-linejoin:round;stroke-miterlimit:10;" d="
		M68.669,401.332c4.161,13.732,4.993,13.732,6.658,14.148c1.664,0.416,4.161-11.651,4.161-11.651L68.669,401.332z"/>

		<path id="XMLID_10_" style="fill:#755C45;stroke:#4F402F;stroke-width:0.9866;stroke-linecap:round;stroke-linejoin:round;stroke-miterlimit:10;" d="
		M301.692,401.332c4.161,13.732,4.993,13.732,6.658,14.148c1.664,0.416,4.161-11.651,4.161-11.651L301.692,401.332z"/>

		<rect id="XMLID_5_" x="60.379" y="328.887" style="fill:#8C7156;stroke:#4F402F;stroke-width:0.9866;stroke-linecap:round;stroke-linejoin:round;stroke-miterlimit:10;" width="258.925" height="77.982"/>

		<rect id="XMLID_6_" x="50.022" y="326.45" style="fill:#BCAF84;stroke:#755E3E;stroke-width:0.9866;stroke-linecap:round;stroke-linejoin:round;stroke-miterlimit:10;" width="275.984" height="15.231"/>

		<polygon id="XMLID_7_" style="fill:#E2D7AC;stroke:#897752;stroke-width:0.9866;stroke-linecap:round;stroke-linejoin:round;stroke-miterlimit:10;" points="
		49.969,326.411 88.965,291.211 282.567,290.176 326.05,327.102 	"/>
	<g id="XMLID_95_">

			<ellipse id="XMLID_8_" style="fill:none;stroke:#E4EEEF;stroke-width:0.9866;stroke-linecap:round;stroke-linejoin:round;stroke-miterlimit:10;" cx="377.216" cy="335.794" rx="36.826" ry="9.363"/>

			<ellipse id="XMLID_12_" style="fill:none;stroke:#E4EEEF;stroke-linecap:round;stroke-linejoin:round;stroke-miterlimit:10;" cx="377.216" cy="396.13" rx="25.369" ry="6.45"/>

			<line id="XMLID_13_" style="fill:none;stroke:#E4EEEF;stroke-linecap:round;stroke-linejoin:round;stroke-miterlimit:10;" x1="414.042" y1="335.794" x2="402.585" y2="396.13"/>

			<line id="XMLID_14_" style="fill:none;stroke:#E4EEEF;stroke-linecap:round;stroke-linejoin:round;stroke-miterlimit:10;" x1="340.39" y1="335.794" x2="351.847" y2="396.13"/>
		<path id="XMLID_15_" style="fill:none;stroke:#E4EEEF;stroke-linecap:round;stroke-linejoin:round;stroke-miterlimit:10;" d="
			M358.985,344.136c2.424,7.618,18.374,31.482,44.503,44.488"/>
		<path id="XMLID_17_" style="fill:none;stroke:#E4EEEF;stroke-linecap:round;stroke-linejoin:round;stroke-miterlimit:10;" d="
			M409.543,356.602c0,0-10.042-6.926-13.159-12.466c-6.233,15.929-41.9,54.713-41.9,54.713"/>
		<path id="XMLID_18_" style="fill:none;stroke:#E4EEEF;stroke-linecap:round;stroke-linejoin:round;stroke-miterlimit:10;" d="
			M344.441,356.602c8.311,18.353,43.632,40.862,51.943,43.978c3.117-6.926,9.696-22.162,9.696-22.162"/>
		<path id="XMLID_20_" style="fill:none;stroke:#E4EEEF;stroke-linecap:round;stroke-linejoin:round;stroke-miterlimit:10;" d="
			M356.561,344.482c-5.194,6.579-11.427,16.968-11.427,16.968"/>
		<path id="XMLID_19_" style="fill:none;stroke:#E4EEEF;stroke-linecap:round;stroke-linejoin:round;stroke-miterlimit:10;" d="
			M411.967,347.252c-7.272,15.237-38.438,55.406-38.438,55.406s-16.275-11.081-24.586-19.738c0,0,19.738-16.275,30.127-38.091
			c5.887,13.505,23.894,24.586,27.703,26.318"/>
		<path id="XMLID_11_" style="fill:none;stroke:#E4EEEF;stroke-linecap:round;stroke-linejoin:round;stroke-miterlimit:10;" d="
			M406.08,378.418"/>
		<path id="XMLID_21_" style="fill:none;stroke:#E4EEEF;stroke-linecap:round;stroke-linejoin:round;stroke-miterlimit:10;" d="
			M353.098,329.592c9.003,4.502,18.007,13.851,18.007,13.851"/>
		<path id="XMLID_22_" style="fill:none;stroke:#E4EEEF;stroke-linecap:round;stroke-linejoin:round;stroke-miterlimit:10;" d="
			M384.61,328.553c6.926,4.155,14.198,13.159,14.198,13.159"/>
		<path id="XMLID_23_" style="fill:none;stroke:#E4EEEF;stroke-linecap:round;stroke-linejoin:round;stroke-miterlimit:10;" d="
			M353.098,340.673c5.887-7.618,15.583-12.12,15.583-12.12"/>
		<path id="XMLID_24_" style="fill:none;stroke:#E4EEEF;stroke-linecap:round;stroke-linejoin:round;stroke-miterlimit:10;" d="
			M383.571,342.404c5.541-7.618,15.237-12.466,15.237-12.466"/>
	</g>
</g>
<g id="Layer_6">

		<polygon id="XMLID_55_" style="fill:#F3FDFF;stroke:#86A4AD;stroke-linecap:round;stroke-linejoin:round;stroke-miterlimit:10;" points="
		171.409,299.452 204.279,298.676 213.079,323.005 174.515,323.781 	"/>
	<path id="XMLID_46_" style="fill:#CE977C;stroke:#663422;stroke-linecap:round;stroke-linejoin:round;stroke-miterlimit:10;" d="
		M204.347,284.593c2.937,7.476,4.539,16.555,1.869,20.026c-9.88,2.937-16.288,11.482-12.55,16.555
		c3.738,5.073,12.283,0.267,18.157-11.215c7.476-10.948,5.34-22.696,3.204-26.969C212.357,279.252,204.347,284.593,204.347,284.593z
		"/>
	<path id="XMLID_58_" style="fill:#B2A4A8;stroke:#706669;stroke-linecap:round;stroke-linejoin:round;stroke-miterlimit:10;" d="
		M172.444,281.852c0,1.035,3.882,28.47,4.141,29.247s2.588,2.588,2.588,2.588l1.294-2.847l-5.176-30.023
		C173.997,280.299,172.444,281.852,172.444,281.852z"/>
	<path id="XMLID_39_" style="fill:#CE977C;stroke:#663422;stroke-linecap:round;stroke-linejoin:round;stroke-miterlimit:10;" d="
		M168.299,246.142c-0.801,2.67,1.068,12.817,8.545,12.817c7.476,0,7.743-11.749,7.743-11.749L168.299,246.142z"/>
	<path id="XMLID_41_" style="fill:#9165A8;stroke:#613B72;stroke-linecap:round;stroke-linejoin:round;stroke-miterlimit:10;" d="
		M196.017,276.576c0.185,6.467-1.913,11.607-2.618,14.425l-8.812,0.267c0,0-0.267-33.11-1.602-40.853
		c6.675-2.136,27.77,10.147,35.246,36.047c-7.209,0.801-12.55,2.67-13.618,6.141c-1.602-11.482-6.141-14.953-6.141-14.953
		C197.137,276.315,196.017,276.576,196.017,276.576z"/>
	<path id="XMLID_36_" style="fill:#895128;stroke:#5B381B;stroke-linecap:round;stroke-linejoin:round;stroke-miterlimit:10;" d="
		M201.56,201.796c6.462,8.4,7.108,20.032,6.139,28.109c-1.292,8.077-2.585,26.817-2.585,26.817c-4.846-2.908-8.4-9.37-8.4-9.37
		c-0.323,4.2,1.615,9.37,1.615,9.37c-7.754,1.615-16.478-9.047-16.478-9.047S201.883,202.442,201.56,201.796z"/>
	<path id="XMLID_43_" style="fill:#CE977C;stroke:#663422;stroke-linecap:round;stroke-linejoin:round;stroke-miterlimit:10;" d="
		M147.205,295.54c7.209,4.005,14.152,6.141,14.152,6.141c4.806-5.607,9.88-10.147,13.618-3.738
		c3.738,6.408,4.806,13.351-4.005,11.215c-6.675-1.335-8.277-2.136-8.277-2.136c-11.482,4.005-20.827-0.267-20.827-0.267
		C140.263,301.682,147.205,295.54,147.205,295.54z"/>
	<path id="XMLID_38_" style="fill:#9165A8;stroke:#613B72;stroke-linecap:round;stroke-linejoin:round;stroke-miterlimit:10;" d="
		M130.65,284.86c7.209-13.618,16.288-31.775,23.497-33.644c7.209-1.869,12.817-3.738,12.817-3.738
		c2.67,9.079,1.068,42.99,1.068,42.99l-13.618,0.267l-2.403-10.414l-6.141,9.613"/>
	<path id="XMLID_35_" style="fill:#CE977C;stroke:#663422;stroke-linecap:round;stroke-linejoin:round;stroke-miterlimit:10;" d="
		M157.296,242.828c6.139,6.139,12.277,9.047,21.97,8.723c9.693-0.323,25.847-12.924,22.616-41.033
		c-10.016-16.478-26.817-20.678-35.54-14.539C157.62,202.119,141.465,218.596,157.296,242.828z"/>
	<path id="XMLID_37_" style="fill:#895128;stroke:#5B381B;stroke-linecap:round;stroke-linejoin:round;stroke-miterlimit:10;" d="
		M191.544,189.195c5.169,3.231,16.801,15.831,12.924,29.078c-3.231-1.615-10.016-4.523-13.247-16.801c0,0-1.292,1.615,1.615,10.339
		c0,0-7.431-4.2-15.508-11.631c0,0,3.554,10.662,4.2,16.478c0,0-8.077-0.969-12.601-14.862c-0.969,5.493-9.37,13.57-13.57,13.893
		c0,0,0,2.262,0.646,3.231c0,0,1.939,16.155,9.693,23.263c0,0-4.2-1.939-7.754-5.169c0,0-0.672,2.729,13.221,14.36
		c0,0-12.274,9.886-23.259-13.054c0,0,0.668,4.509,5.515,10.648c-15.508-6.139-24.555-42.648,2.262-52.987
		c4.846-10.662,22.293-11.308,32.309-7.754C189.606,188.872,191.544,189.195,191.544,189.195z"/>
	<path id="XMLID_40_" style="fill:#9165A8;stroke:#613B72;stroke-linecap:round;stroke-linejoin:round;stroke-miterlimit:10;" d="
		M130.342,284.838c-3.204,5.874-0.226,19.247,14.46,24.32c0.534-5.34,6.408-12.283,6.408-12.283
		c-4.272-2.136-8.812-10.681-8.812-10.681"/>
	<path id="XMLID_48_" style="fill:#897243;stroke:#635035;stroke-linecap:round;stroke-linejoin:round;stroke-miterlimit:10;" d="
		M132.554,310.308c0,0,3.17,7.929,2.369,7.929c-0.801,0-3.731,3.244-3.731,3.244L132.554,310.308z"/>
	<path id="XMLID_42_" style="fill:#9165A8;stroke:#613B72;stroke-linecap:round;stroke-linejoin:round;stroke-miterlimit:10;" d="
		M158.153,273.378c-2.937,2.67-6.141,6.942-6.141,6.942"/>
	<path id="XMLID_44_" style="fill:#9165A8;stroke:#613B72;stroke-linecap:round;stroke-linejoin:round;stroke-miterlimit:10;" d="
		M191.263,264.299c4.272,3.738,4.754,12.277,4.754,12.277"/>

		<polygon id="XMLID_45_" style="fill:#AF9861;stroke:#635035;stroke-linecap:round;stroke-linejoin:round;stroke-miterlimit:10;" points="
		90.865,309.692 88.462,321.708 131.184,321.708 132.519,310.226 	"/>
	<path id="XMLID_49_" style="fill:#CE977C;stroke:#663422;stroke-linecap:round;stroke-linejoin:round;stroke-miterlimit:10;" d="
		M180.048,228.252c2.67,2.937,1.869,8.01-1.068,8.812"/>
	<path id="XMLID_47_" style="fill:none;stroke:#231F20;stroke-linecap:round;stroke-linejoin:round;stroke-miterlimit:10;" d="
		M161.467,226.383c0.651,0,13.339,0.488,13.339,0.488s-0.163,6.832-0.651,6.995c-0.488,0.163-12.037-0.651-12.037-0.651
		L161.467,226.383z"/>
	<path id="XMLID_51_" style="fill:none;stroke:#231F20;stroke-linecap:round;stroke-linejoin:round;stroke-miterlimit:10;" d="
		M183.102,226.871c0.651,0,13.339,0.488,13.339,0.488s-1.139,6.832-1.627,6.995c-0.488,0.163-11.224-0.488-11.224-0.488
		L183.102,226.871z"/>
	<path id="XMLID_52_" style="fill:none;stroke:#231F20;stroke-linecap:round;stroke-linejoin:round;stroke-miterlimit:10;" d="
		M175.294,228.497c1.789-0.813,6.019-1.139,7.32,0"/>
	<path id="XMLID_53_" style="fill:none;stroke:#231F20;stroke-linecap:round;stroke-linejoin:round;stroke-miterlimit:10;" d="
		M163.907,215.972c2.277-1.789,6.344-3.741,8.621-0.976"/>
	<path id="XMLID_54_" style="fill:none;stroke:#231F20;stroke-linecap:round;stroke-linejoin:round;stroke-miterlimit:10;" d="
		M186.03,214.996c1.139-1.301,4.717-2.928,7.157,1.139"/>

		<ellipse id="XMLID_50_" style="fill:#231F20;stroke:#231F20;stroke-linecap:round;stroke-linejoin:round;stroke-miterlimit:10;" cx="168.706" cy="224.837" rx="0.811" ry="3.172"/>

		<ellipse id="XMLID_56_" style="fill:#231F20;stroke:#231F20;stroke-linecap:round;stroke-linejoin:round;stroke-miterlimit:10;" cx="188.226" cy="225.163" rx="0.811" ry="3.172"/>
	<path id="XMLID_57_" style="fill:none;stroke:#231F20;stroke-linecap:round;stroke-linejoin:round;stroke-miterlimit:10;" d="
		M169.112,238.095c2.421,3.169,10.384,6.519,17.731,1.464"/>

		<polygon id="XMLID_59_" style="fill:#93A5A3;stroke:#576666;stroke-linecap:round;stroke-linejoin:round;stroke-miterlimit:10;" points="
		235.337,270.723 236.114,297.64 259.407,311.358 261.219,281.593 	"/>
	<path id="XMLID_60_" style="fill:#E7F2F0;stroke:#B8CCCA;stroke-linecap:round;stroke-linejoin:round;stroke-miterlimit:10;" d="
		M269.501,270.205l22.776,10.87c0,0-28.988,0.518-29.764,0.776s-26.658-11.129-26.658-11.129L269.501,270.205z"/>
	<path id="XMLID_61_" style="fill:#778786;stroke:#495656;stroke-linecap:round;stroke-linejoin:round;stroke-miterlimit:10;" d="
		M292.168,281.236c0.259,0.776-0.667,29.086-0.667,29.086l-32.094,1.035c0,0,1.61-27.854,1.862-29.82
		C261.302,281.281,292.168,281.236,292.168,281.236z"/>
	<path id="XMLID_62_" style="fill:none;stroke:#495656;stroke-linecap:round;stroke-linejoin:round;stroke-miterlimit:10;" d="
		M248.019,281.852c0.776,0.518,12.682,5.953,12.682,5.953h15.788"/>

		<line id="XMLID_64_" style="fill:none;stroke:#495656;stroke-linecap:round;stroke-linejoin:round;stroke-miterlimit:10;" x1="237.149" y1="284.44" x2="253.972" y2="293.24"/>
	<path id="XMLID_63_" style="fill:none;stroke:#495656;stroke-linecap:round;stroke-linejoin:round;stroke-miterlimit:10;" d="
		M249.313,294.534c1.035,0.259,10.87,4.659,10.87,4.659l12.682,0.518"/>
	<path id="XMLID_65_" style="fill:none;stroke:#495656;stroke-linecap:round;stroke-linejoin:round;stroke-miterlimit:10;" d="
		M292.277,292.205c-1.294,0.259-21.741,0.259-21.741,0.259"/>
	<path id="XMLID_67_" style="fill:none;stroke:#495656;stroke-linecap:round;stroke-linejoin:round;stroke-miterlimit:10;" d="
		M259.925,303.593c1.035,0,23.294,0,23.294,0"/>
	<path id="XMLID_68_" style="fill:none;stroke:#495656;stroke-linecap:round;stroke-linejoin:round;stroke-miterlimit:10;" d="
		M236.89,292.205c0.776,0.518,13.2,7.247,13.2,7.247"/>
	<path id="XMLID_69_" style="fill:#CC3C29;stroke:#6D2A18;stroke-linecap:round;stroke-linejoin:round;stroke-miterlimit:10;" d="
		M228.723,302.348c-11.15-1.677-11.246,8.861-7.298,14.249c3.948,5.388,6.169,6.109,6.169,6.109
		c2.317-1.063,2.719-2.183,4.023-1.422c1.303,0.761,0.86,2.015,3.183,1.469c2.542-1.689,7.536-10.077,6.7-14.985
		s-5.863-7.887-10.518-4.516C230.411,303.666,228.723,302.348,228.723,302.348z"/>
	<path id="XMLID_70_" style="fill:#9B592D;stroke:#6B3A19;stroke-linecap:round;stroke-linejoin:round;stroke-miterlimit:10;" d="
		M230.294,304.782c-1.449-1.449-2.676-6.913-2.676-6.913c0.669-1.115,2.23-1.338,2.23-1.338
		C230.182,297.201,231.52,302.441,230.294,304.782z"/>
	<path id="XMLID_71_" style="fill:#6E9644;stroke:#3A5124;stroke-linecap:round;stroke-linejoin:round;stroke-miterlimit:10;" d="
		M229.067,302.887c-0.892-3.456-5.686-2.564-6.801-2.787c2.453,4.906,7.359,4.794,7.359,4.794L229.067,302.887z"/>
	<path id="XMLID_66_" style="fill:#52895F;stroke:#265E35;stroke-linecap:round;stroke-linejoin:round;stroke-miterlimit:10;" d="
		M64.836,67.426c-5.41,0.902-8.716,4.208-12.623,0s-2.404-5.711-8.115-5.109c-5.711,0.601-7.814,4.208-10.519,5.711
		c-2.705,1.503-1.803,4.208-1.202,6.612c0.601,2.404,2.404,3.006,2.104,5.109c-0.301,2.104-2.705,4.508-2.705,4.508
		s5.109,0.601,5.41,2.705c0.301,2.104,1.503,2.404-1.503,4.208s3.006,2.104,4.809,0.601c1.803-1.503,0.902-3.006,3.306-4.508
		c2.404-1.503,3.607-2.404,5.41-2.705c1.803-0.301,4.809,0.902,4.809,0.902s3.907,1.803,4.809,4.508
		c0.902,2.705,0.301,3.607,1.202,5.109c0.902,1.503,0.601,3.306,2.404,3.306c1.803,0,0.301-1.503,1.803,0
		c1.503,1.503,3.006,3.006,2.705,4.809c-0.301,1.803,0,0.902-1.503,3.907c-1.503,3.006-2.404,2.705-1.202,4.208
		c1.202,1.503,2.404,1.503,3.607,3.306c1.202,1.803,3.306,5.41,3.907,6.312c0.601,0.902,3.306,3.607,2.404,1.202
		c-0.902-2.404-2.705-2.104-0.902-2.404c1.803-0.301,4.508,3.907,4.809,5.41c0.301,1.503,1.803,3.607,4.508,5.109
		c2.705,1.503,6.312,1.202,8.115,1.202s5.41,0,6.011,1.803c0.601,1.803,1.202,2.705,2.104,4.208s4.208,3.907,4.208,3.907
		s1.503,3.006,1.503,3.907c0,0.902,0.601,3.306,2.404,5.41c1.803,2.104,3.006,2.705,4.208,4.809
		c1.202,2.104,1.202,3.607-0.301,5.109c-1.503,1.503-3.306-0.601-2.404,3.306s3.006,4.508,2.104,7.213
		c-0.902,2.705-2.104,3.306-2.404,6.011c-0.301,2.705-1.803,1.803-1.202,5.711s-0.601,5.711,1.202,6.913
		c1.803,1.202-0.301,3.306,2.705,0c3.006-3.306,0.902,2.404,4.508-5.41c3.607-7.814,4.508-7.814,6.011-10.82
		c1.503-3.006,0-1.503,2.404-4.809c2.404-3.306,2.404-3.306,2.404-3.306s2.104-2.404,3.306-2.705
		c1.202-0.301,1.202,1.503,2.404-1.503c1.202-3.006,2.404-2.705,3.907-4.809c1.503-2.104-0.601-3.306,0.902-6.312
		c1.503-3.006,3.907-0.601,3.006-3.607c-0.902-3.006,2.705-1.503-0.902-3.006s-7.213-1.503-11.121-3.006
		c-3.907-1.503-4.508,2.404-5.711-0.902c-1.202-3.306,1.202-1.202-2.705-4.208c-3.907-3.006-3.907-3.607-7.213-2.705
		c-3.306,0.902-5.41,3.306-6.612,4.508c-1.202,1.202-2.104,1.503-3.306-0.301c-1.202-1.803,0-3.006-1.202-4.508
		c-1.202-1.503-1.202-3.006-3.907-3.306c-2.705-0.301-3.006,0.902-4.809-0.902s-1.503-1.803-2.104-4.208s-2.404-3.006-0.601-4.208
		c1.803-1.202,1.202-2.104,3.607-1.503c2.404,0.601,3.006,0.601,4.208,0.301c1.202-0.301,1.503,0.301,3.607,2.705
		c2.104,2.404,2.705,0,2.104-2.404c-0.601-2.404-2.104-1.503-0.601-3.607c1.503-2.104,3.306-1.803,5.109-3.607
		c1.803-1.803,0.601-1.803,2.705-3.607c2.104-1.803,0.301,0.601,2.104-1.803c1.803-2.404,1.803,1.503,1.803-2.404
		s1.803-6.011,4.809-6.011s4.208-0.601,3.607-3.006c-0.601-2.404-0.301-1.503-3.006-3.006c-2.705-1.503-2.104-0.601-2.404-3.306
		c-0.301-2.705-0.601-2.404-3.306-4.809c-2.705-2.404-0.301-5.41-3.907-3.907c-3.607,1.503-3.006,0.301-3.607,3.306
		c-0.601,3.006-2.104,1.503-0.601,3.006c1.503,1.503,0.902,2.705,0.601,3.907c-0.301,1.202-1.202-1.202-2.104,3.306
		s-0.902,4.508-0.902,4.508s-0.601-0.902-2.705-4.809c-2.104-1.803-3.907-1.202-6.612-3.607c-2.705-2.404-6.011-3.607-4.809-6.612
		s0.902-1.803,2.404-3.607c1.503-1.803,2.705-2.705,4.208-4.809c1.503-2.104,4.508-3.006,1.503-3.607
		c-3.006-0.601-0.902-1.803-4.208-0.902s-3.306,2.104-5.711,3.006c-2.404,0.902,0.601,0.301-5.711-0.902
		c-6.312-1.202-6.312-0.301-9.017-1.803c-2.705-1.503-0.601,0.301-2.705-1.503S64.836,67.426,64.836,67.426z"/>
	<path id="XMLID_73_" style="fill:#52895F;stroke:#265E35;stroke-linecap:round;stroke-linejoin:round;stroke-miterlimit:10;" d="
		M188.953,117.311c-0.425-0.116-0.776-0.24-1.069-0.367c-2.319-0.999-1.036-2.114-4.089,0.023c-3.438,2.407-2.407,2.751-6.533,0
		c-4.126-2.751-3.782-4.47-6.533-3.782s-2.407,2.063-8.252,5.502c-5.845,3.438-7.909,2.063-10.315,6.877
		c-2.407,4.814-2.063,8.252,1.719,13.066c3.782,4.814,8.94,5.845,11.347,5.158c2.407-0.688,3.095-3.095,4.47-2.407
		s0.688,4.126,2.751,4.814c2.063,0.688,2.751-0.344,4.126,0.344c1.375,0.688,1.719,3.782,1.032,5.845
		c-0.688,2.063,1.032,0.688,1.719,4.814s-0.688,3.438,0,7.565c0.688,4.126-0.688,1.032,1.719,6.877
		c2.407,5.845,2.407,5.845,2.407,5.845s2.063,1.375,3.095,1.719c1.032,0.344,1.375,0.688,4.47-0.344
		c3.095-1.032,3.438-0.344,4.47-4.126s1.032-3.782,3.095-5.845s0,0.688,2.407-3.782c2.407-4.47-0.344,3.095,2.407-4.47
		c2.751-7.565,1.375-6.533,2.063-9.628c0.688-3.095,2.407-4.126,2.407-4.126s5.158-3.782,6.189-6.877
		c1.032-3.095,2.063-4.126-1.032-3.438s-2.407,1.032-5.502,0.688c-3.095-0.344-3.095,2.407-6.189-2.751s-1.375-3.095-4.126-9.972
		c-2.751-6.877-3.095-7.909-5.502-7.565"/>
	<path id="XMLID_74_" style="fill:#52895F;stroke:#265E35;stroke-linecap:round;stroke-linejoin:round;stroke-miterlimit:10;" d="
		M186.26,87.563c-1.202,0.902,0.601,2.104-2.104,4.208c-2.705,2.104-3.907,2.104-6.011,2.404s-1.803-0.902-4.809-0.601
		c-3.006,0.301-0.902-3.006-3.006,0.301c-2.104,3.306-1.803,3.306-3.907,3.607c-2.104,0.301-0.601,3.306-0.301,4.208
		c0.301,0.902,2.404,2.404,0.601,3.006c-1.803,0.601-1.803,2.404-3.306,0.902c-1.503-1.503,1.202-2.705-1.503-1.503
		c-2.705,1.202-4.208,0-4.208,3.006s-3.607,4.508,0.301,4.809s5.41,1.202,7.213,0.301c1.803-0.902,3.006-1.503,3.306-2.705
		c0.301-1.202-0.301-2.404,0.902-3.006c1.202-0.601,2.705-2.404,4.208-1.803c1.503,0.601,4.208,1.202,5.41,3.306
		c1.202,2.104,2.404,2.404,1.503,3.306c-0.902,0.902-2.404,0.902-0.902,0.902s2.404-1.202,3.006-2.404
		c0.601-1.202,3.907,3.006,0.601-1.202c-3.306-4.208-5.109-2.404-3.306-4.208s2.404-1.803,3.607-1.503
		c1.202,0.301,3.907,6.011,5.109,6.913c1.202,0.902,4.208,1.202,5.711,1.202s3.006,1.503,1.803,2.705
		c-1.202,1.202-1.803,3.006-1.803,3.006s3.607,0.601,4.208,2.404c0.601,1.803,1.803,4.508,4.809,8.115
		c3.006,3.607,7.514,3.306,9.317,2.104c1.803-1.202,5.711-1.503,3.907-3.306c-1.803-1.803-5.109-2.104-3.907-4.208
		c1.202-2.104,1.803-0.902,3.006-0.301c1.202,0.601,2.404,1.202,4.508,1.202s4.208-0.902,4.508,1.803
		c0.301,2.705,0.301,4.508,2.404,6.913s4.208,4.508,5.41,4.508c1.202,0,2.104-0.301,1.503-2.705
		c-0.601-2.404-2.705-3.006,0.301-4.809c3.006-1.803,5.711-3.006,7.514-3.607s3.306,4.809,5.109,6.011
		c1.803,1.202,0.902-3.306,1.803,1.202c0.902,4.508,0.301,5.711,1.803,6.011c1.503,0.301,3.006,0.902,2.404-1.503
		c-0.601-2.404-2.104-2.705-0.902-3.907c1.202-1.202,0.902-1.803,2.104-0.601c1.202,1.202,2.705,2.104,2.404,0.301
		c-0.301-1.803-1.202-0.902-1.803-3.607c-0.601-2.705-1.503-4.208,0.601-4.508c2.104-0.301,2.404,0,3.006,2.705
		s1.803,0.601,3.907-1.202s3.607,0.902,4.208-3.006s2.705-4.208,1.503-6.011c-1.202-1.803-0.902,2.404-1.202-1.803
		c-0.301-4.208,2.104-2.705,4.208-4.508c2.104-1.803-1.202-2.705,2.104-4.208c3.306-1.503,3.006-0.301,5.41-1.202
		c2.404-0.902,2.104,0.601,2.404-3.006c0.301-3.607-0.531-5.516-1.43-8.212s-0.899-4.942,1.348-5.391s-0.449,0.899,2.246-0.449
		s3.594,1.348,7.638-1.348c4.044-2.696,1.348-2.246,4.044-2.696s1.797,1.797,4.493,0.449c2.696-1.348,3.145-3.145,5.391-3.145
		s3.145,0.449,3.145,2.696c0,2.246,3.594-0.449,4.942-2.696s-0.899-1.797,1.348-4.044s3.145-0.899,4.044-2.696
		s3.594-2.696,0.449-5.391c-3.145-2.696-2.696-3.594-7.188-2.696s-0.449-0.899-4.493,0.899s-0.449,1.797-4.044,1.797
		s-2.696-1.348-6.29-2.246s0,3.594-3.594-0.899c-3.594-4.493,0.899-2.246-3.594-4.493s-2.696-7.188-6.739-3.145
		s-1.348,6.739-2.696,6.29s-5.841,0-5.841,0s0.449-2.246-0.899-4.044s1.797-0.899-1.348-1.797s-3.145-0.899-3.145-0.899
		s-3.145-0.899-3.594,0.449s-0.449,1.348-0.449,1.348l-2.696-1.797c0,0-0.899-0.899-2.246-0.449
		c-1.348,0.449-1.348,0.449-1.348,0.449s1.797,1.797,0,0c-1.797-1.797-4.044-0.899-1.797-1.797c2.246-0.899,2.246-0.899,2.246-0.899
		s-2.696,1.348,0,0c2.696-1.348,2.696-1.348,2.696-1.348s-0.449-1.348-0.449-2.696s0-1.348,0-1.348l-1.797-0.899l-2.696-0.449
		l-1.797,0.449l-1.797-3.145c0,0-1.797-3.145-4.044-0.449s-2.246,4.942-4.493,5.391c-2.246,0.449-3.145,0.449-4.493,0.899
		s-3.145,0.899-3.594,2.246s-1.348,3.145-1.348,3.145l1.797,1.348l-1.348,2.246c0,0-0.449-0.449-1.797-0.449s-1.348,0-1.348,0
		l-2.696,3.145h-2.246c-1.348-2.246-1.348-2.246-1.348-2.246s-4.044,0-4.044,3.145s0.899,1.348,0,3.145s-2.246,1.348-4.942,1.797
		c-2.696,0.449-1.348-0.899-2.696,0.449c-1.348,1.348,1.348,0.449-1.348,1.348c-2.696,0.899-2.696,0.899-2.696,0.899l-4.493-1.797
		c0,0,0-0.899-1.797,2.246c-1.797,3.145,0.899,1.348-1.797,3.145s-0.899,0.449-2.696,1.797s0,1.797-1.797,1.348s3.145,3.145,0,0
		s-4.493-1.348-3.145-3.145s-2.696-0.899,1.348-1.797s4.044-0.899,4.044-0.899s2.246-2.696,0-2.696s-2.246,0-2.246,0l-3.145-1.348
		l-0.899-2.696c0,0,3.594-3.145-2.696-1.348s-6.29,1.797-6.29,1.797l0,0c0,0-6.29,4.942-6.29,8.087s-1.797,4.493-4.044,5.391
		s-4.044,4.493-2.246,7.638c1.797,3.145,0,5.841,3.594,4.942c3.594-0.899,5.391,1.348,5.391-2.246s-1.797-4.942-0.449-6.739
		s4.493-0.899,4.493-4.044s-3.145-4.942,0-3.145s3.594,1.797,2.696,3.594s0.449,4.044,0.449,4.044s3.594,0,1.797,1.348
		C188.302,86.59,186.26,87.563,186.26,87.563z"/>
	<path id="XMLID_72_" style="fill:#52895F;stroke:#265E35;stroke-linecap:round;stroke-linejoin:round;stroke-miterlimit:10;" d="
		M164.49,87.039c-2.246,2.246-1.348,2.696-1.348,4.942s0,2.246,0,2.246l3.145-2.246L164.49,87.039z"/>
	<path id="XMLID_75_" style="fill:#52895F;stroke:#265E35;stroke-linecap:round;stroke-linejoin:round;stroke-miterlimit:10;" d="
		M158.2,93.778c-1.31-1.31,1.797,4.942,1.797,3.594S158.649,94.227,158.2,93.778z"/>
	<path id="XMLID_76_" style="fill:#52895F;stroke:#265E35;stroke-linecap:round;stroke-linejoin:round;stroke-miterlimit:10;" d="
		M249.853,142.3c-1.797-1.348-9.435-4.493-5.391-1.348c4.044,3.145,2.246,3.594,5.841,4.942s2.246,3.594,3.594,1.348
		S249.853,142.3,249.853,142.3z"/>
	<path id="XMLID_77_" style="fill:#52895F;stroke:#265E35;stroke-linecap:round;stroke-linejoin:round;stroke-miterlimit:10;" d="
		M261.085,140.054c-2.696,0.449-5.391-1.348-5.841,0.449s1.348,3.594,1.348,3.594s2.696-0.449,4.043-0.449
		c1.348,0,3.594,0.899,3.594,0.899s3.145,0,1.797-1.797S261.085,140.054,261.085,140.054z"/>
	<path id="XMLID_78_" style="fill:#52895F;stroke:#265E35;stroke-linecap:round;stroke-linejoin:round;stroke-miterlimit:10;" d="
		M282.65,111.3c-1.797,0.449-1.348,0.449-4.493,1.348s-5.391,0.449-4.942,2.246s0.899,2.246,3.145,1.348s-0.899,0.449,2.246-0.899
		s4.942-0.899,5.841-2.246s5.391-0.899,2.246-4.044s-1.797-7.188-3.145-3.145C282.201,109.952,282.65,111.3,282.65,111.3z"/>
	<path id="XMLID_79_" style="fill:#52895F;stroke:#265E35;stroke-linecap:round;stroke-linejoin:round;stroke-miterlimit:10;" d="
		M278.158,153.083c0.449-1.797,3.594-1.348,0.449-1.797s-5.391,1.348-5.391,1.348c-2.696-0.449-0.899-0.449-2.696-0.449
		s-2.696-0.449-4.044,1.797s-1.348,2.246-1.348,2.246s-0.449,1.348-1.797,1.348s-3.594,0.899-2.696,4.942
		c0.899,4.044,1.797,0.899,0.899,4.044s-1.797,4.942,0,4.942c1.797,0,5.391-0.899,5.391-0.899s0.899-0.449,3.145-1.797
		s3.594-3.145,5.841-1.348s-1.348,0.899,2.246,1.797s3.594-0.899,5.391,1.348s-1.797,1.797,1.797,2.246s2.696,2.696,3.594,0.449
		s1.348-4.044,2.246-5.391s2.696-2.696,2.696-4.044s2.246,1.797,0-1.348c-2.246-3.145,0,0-2.246-3.145
		c-2.246-3.145-2.696-3.594-4.044-4.942s-0.899-3.594-2.696-4.044s-3.594,1.797-3.594,3.145s-1.797,1.797-1.797,1.797
		L278.158,153.083z"/>
	<path id="XMLID_80_" style="fill:#52895F;stroke:#265E35;stroke-linecap:round;stroke-linejoin:round;stroke-miterlimit:10;" d="
		M267.824,131.967c-1.62-1.62-5.841,0.899-3.145,2.246S269.621,133.764,267.824,131.967z"/>
	<path id="XMLID_82_" style="fill:#52895F;stroke:#265E35;stroke-linecap:round;stroke-linejoin:round;stroke-miterlimit:10;" d="
		M123.605,25.488c-3.594,0-5.841,0-6.739,2.246s1.348,2.246,0,4.044s1.797,0-1.348,1.797c-3.145,1.797-1.797-3.145-3.145,1.797
		s-3.594,2.696-1.348,4.942c2.246,2.246,0.449,1.348,1.348,4.493s0.899,3.145,2.696,4.942c1.797,1.797,1.797,2.246,3.594,2.696
		s2.246-0.449,3.594,0c1.348,0.449,3.594,1.797,3.145,4.493c-0.449,2.696-4.044-0.449-2.696,4.942s3.594,3.594,3.145,7.638
		c-0.449,4.044-2.696,4.942,0,8.536s1.797,7.638,4.942,7.188c3.145-0.449,5.841-3.145,6.29-5.841s-0.449-4.942,3.145-6.29
		s3.594-1.797,5.391-2.696c1.797-0.899,3.145-1.348,3.145-4.493s-0.449-4.044-0.449-7.188c0-3.145,0-5.391,1.797-6.739
		s2.696,3.594,1.797-1.348s-2.246-4.493-0.899-7.638c1.348-3.145-1.348,5.391,1.348-3.145s5.841-8.986,4.044-10.333
		c-1.797-1.348,3.594-0.899-1.797-1.348s-2.246,1.348-5.391-0.449c-3.145-1.797-3.145-2.696-4.942-2.696
		c-1.797,0-0.449-1.797,1.348-2.246c1.797-0.449,2.246-1.348,0-3.594c-2.246-2.246,2.246-1.348-2.246-2.246
		c-4.493-0.899-1.797-3.145-7.188-0.899s-7.188,2.246-7.188,4.493s2.696,4.044,0.449,4.942c-2.246,0.899-0.449,2.246-2.246,0.899
		C125.402,25.038,123.605,25.488,123.605,25.488z"/>
	<path id="XMLID_81_" style="fill:#52895F;stroke:#265E35;stroke-linecap:round;stroke-linejoin:round;stroke-miterlimit:10;" d="
		M76.431,47.952c-2.696,0.449-7.638,0.899-5.841,3.594c1.797,2.696,2.696,3.594,4.493,3.594s0.899-0.899,4.044-1.348
		s4.493,3.145,3.145-0.449c-1.348-3.594-1.797-5.391-3.594-5.391S76.431,47.952,76.431,47.952z"/>
	<path id="XMLID_84_" style="fill:#52895F;stroke:#265E35;stroke-linecap:round;stroke-linejoin:round;stroke-miterlimit:10;" d="
		M88.372,40.702c-1.653,1.24-4.545,1.24-2.479,2.893c2.066,1.653,2.066,1.653,2.066,1.653L88.372,40.702z"/>
	<path id="XMLID_83_" style="fill:#52895F;stroke:#265E35;stroke-linecap:round;stroke-linejoin:round;stroke-miterlimit:10;" d="
		M94.57,40.702c-2.066,0.826-2.479,2.479-1.653,3.719c0.826,1.24,2.893,1.24,2.893,1.24s0.826-1.24,0.826-2.479
		C96.636,41.942,94.57,40.702,94.57,40.702z"/>
	<path id="XMLID_86_" style="fill:#52895F;stroke:#265E35;stroke-linecap:round;stroke-linejoin:round;stroke-miterlimit:10;" d="
		M66.996,57.387c-1.797,0.899-6.29,3.594-3.594,4.493s4.493-0.449,4.493-0.449s1.797-0.449,2.246,1.348s0.899,2.246,2.246,3.594
		c1.348,1.348,4.044,3.145,6.29,2.246c2.246-0.899-1.348-1.797,2.246-0.899s4.493,2.246,6.29,0.449c1.797-1.797,2.246-5.391,0-5.841
		c-2.246-0.449-2.696,0-4.493,0s-0.449-4.942-2.696-4.493s-1.797-0.899-4.493,0.899s-1.797,0.899-3.145,0
		C71.04,57.836,66.996,57.387,66.996,57.387z"/>
	<path id="XMLID_87_" style="fill:#52895F;stroke:#265E35;stroke-linecap:round;stroke-linejoin:round;stroke-miterlimit:10;" d="
		M91.257,56.488c-1.797,0-3.594,2.696-2.246,3.145c1.348,0.449,3.594,2.246,3.594,2.246S91.707,56.488,91.257,56.488z"/>
	<path id="XMLID_88_" style="fill:#52895F;stroke:#265E35;stroke-linecap:round;stroke-linejoin:round;stroke-miterlimit:10;" d="
		M102.04,59.633c-2.246-0.899-2.246-4.044-4.044-1.797c-1.797,2.246-2.696,1.797-1.797,4.044s1.348,1.797,2.696,3.145
		s5.391,1.348,5.391,1.348s0.449,0.449,0.449,2.246c0,1.797,0.899-2.246,0,1.797c-0.899,4.044-2.246,6.739,0.899,6.739
		c3.145,0,0-0.899,3.145,0s4.044,1.797,5.391,1.348s1.348-1.797,0-3.594s-0.899-3.594,0.449-3.594s0,2.696,1.348,0
		c1.348-2.696,1.348-8.087-1.348-7.638s0.449,1.348-2.696,0.449s-3.594-4.044-3.594-4.044s-0.899-2.246-2.696-2.246
		C103.837,57.836,102.04,59.633,102.04,59.633z"/>
	<path id="XMLID_89_" style="fill:#52895F;stroke:#265E35;stroke-linecap:round;stroke-linejoin:round;stroke-miterlimit:10;" d="
		M95.75,33.125c0,2.291-2.246-4.044-4.044-0.899c-1.797,3.145-3.594,0.899-1.797,3.145s3.594,3.145,3.594,3.145
		s2.246,0.899,0.899,3.145c-1.348,2.246,0-0.449-1.348,2.246s-0.449,3.145,0,4.493c0.449,1.348-1.348-1.797,0.449,1.348
		c1.797,3.145,3.145,3.594,4.493,3.594s1.348,0,1.348,0l2.246-3.145c0,0-0.899-1.348,0-2.696c0.899-1.348,0.899-1.348,0.899-1.348
		s3.594-0.899,3.594-2.246s2.696-2.696,1.797-4.044c-0.899-1.348-0.899-1.348-0.899-1.348l2.696-4.942c0,0,2.696-1.348,0.899-2.246
		c-1.797-0.899-5.391-0.899-5.391-0.899l-2.696,2.246l-2.696,1.348C99.794,34.024,95.75,32.227,95.75,33.125z"/>

		<circle id="XMLID_85_" style="fill:none;stroke:#265172;stroke-linecap:round;stroke-linejoin:round;stroke-miterlimit:10;" cx="52.695" cy="170.48" r="8.269"/>

		<circle id="XMLID_90_" style="fill:none;stroke:#265172;stroke-linecap:round;stroke-linejoin:round;stroke-miterlimit:10;" cx="52.695" cy="170.48" r="5.351"/>
	<g id="XMLID_92_">
		<g id="XMLID_115_">
			<path id="XMLID_120_" style="fill:none;stroke:#265172;stroke-miterlimit:10;" d="M40.709,170.72c6.778,0,17.697,0,24.465,0"/>
			<g id="XMLID_118_">
				<path id="XMLID_119_" style="fill:#265172;" d="M34.67,170.72c2.84,1.054,6.363,2.852,8.547,4.756l-1.72-4.756l1.72-4.755
					C41.033,167.87,37.51,169.668,34.67,170.72z"/>
			</g>
			<g id="XMLID_116_">
				<path id="XMLID_117_" style="fill:#265172;" d="M71.205,170.72c-2.84,1.054-6.363,2.852-8.547,4.756l1.72-4.756l-1.72-4.755
					C64.841,167.87,68.365,169.668,71.205,170.72z"/>
			</g>
		</g>
	</g>
	<g id="XMLID_91_">
		<g id="XMLID_108_">
			<path id="XMLID_113_" style="fill:none;stroke:#265172;stroke-miterlimit:10;" d="M52.937,158.492c0,6.778,0,17.697,0,24.465"/>
			<g id="XMLID_111_">
				<path id="XMLID_112_" style="fill:#265172;" d="M52.937,152.453c-1.054,2.84-2.852,6.363-4.756,8.547l4.756-1.72l4.755,1.72
					C55.788,158.816,53.99,155.293,52.937,152.453z"/>
			</g>
			<g id="XMLID_109_">
				<path id="XMLID_110_" style="fill:#265172;" d="M52.937,188.987c-1.054-2.84-2.852-6.363-4.756-8.547l4.756,1.72l4.755-1.72
					C55.788,182.624,53.99,186.148,52.937,188.987z"/>
			</g>
		</g>
	</g>
	<path id="XMLID_98_" d="M399.991,35.154c-0.013,0.114-0.038,0.386-0.076,0.817c-0.013,0.228-0.063,0.399-0.151,0.513
		c-0.063,0.038-0.172,0.057-0.323,0.057c-0.418,0-0.938-0.108-1.559-0.323c-0.671-0.203-1.127-0.443-1.367-0.722
		c-0.102-0.114-0.203-0.494-0.305-1.14c-0.14-0.848-0.298-1.551-0.475-2.109c-0.481,0.063-1.185,0.237-2.109,0.522
		s-1.526,0.522-1.805,0.712c-0.19,0.545-0.443,1.216-0.76,2.014c-0.038,0.178-0.079,0.345-0.124,0.503
		c-0.044,0.158-0.155,0.288-0.332,0.39c-0.038,0.025-0.096,0.038-0.171,0.038c-0.305,0-0.814-0.159-1.53-0.475
		c-0.715-0.316-1.086-0.525-1.111-0.627c-0.051-0.177,0.069-0.614,0.361-1.311c0.405-1.013,0.64-1.634,0.703-1.862
		c-0.267-0.266-0.399-0.532-0.399-0.798c0-0.063,0.007-0.133,0.02-0.209c0.025-0.152,0.411-0.424,1.159-0.817l2.45-8.379
		c0.038-0.152,0.045-0.431,0.02-0.836c-0.025-0.342,0.013-0.558,0.114-0.646c0.062-0.063,0.215-0.095,0.455-0.095
		c0.596,0,1.444,0.152,2.547,0.456c1.102,0.304,1.76,0.577,1.976,0.817c0.076,1.406,0.361,3.515,0.855,6.327
		C398.687,31.443,399.332,33.837,399.991,35.154z M395.032,29.378c-0.165-0.798-0.266-1.323-0.304-1.577
		c-0.14-0.849-0.234-1.729-0.285-2.641c-0.254,0.621-0.551,1.482-0.894,2.584c-0.367,1.153-0.563,1.875-0.589,2.166
		C393.202,29.809,393.893,29.632,395.032,29.378z"/>
	<path id="XMLID_101_" d="M419.751,29.093c0.025,0.19,0.038,0.38,0.038,0.57c0,1.052-0.449,2.185-1.349,3.401
		c-0.722,0.976-1.609,1.85-2.66,2.622c-0.963,0.697-1.615,1.02-1.957,0.969c-0.38-0.051-1.052-0.333-2.014-0.846
		c-0.963-0.513-1.482-0.864-1.559-1.055c-0.025-0.05-0.038-0.107-0.038-0.171c0-0.076,0.022-0.174,0.066-0.294
		c0.045-0.12,0.067-0.212,0.067-0.275V21.702c0-0.203,0.278-0.304,0.836-0.304c0.253,0,0.475,0.026,0.665,0.076
		c0.595-0.38,1.346-0.719,2.251-1.017c0.905-0.297,1.682-0.446,2.328-0.446c0.38,0,0.674,0.054,0.883,0.161
		c0.209,0.108,0.402,0.295,0.58,0.561c0.228,0.368,0.386,0.596,0.475,0.684c0.025,0.026,0.234,0.197,0.627,0.513
		c0.229,0.19,0.374,0.393,0.438,0.608c0.05,0.152,0.075,0.317,0.075,0.494c0,1-0.665,2.09-1.994,3.268
		C418.864,27.326,419.611,28.257,419.751,29.093z M416.427,22.918c-0.026-0.05-0.096-0.076-0.21-0.076
		c-0.291,0-0.747,0.152-1.367,0.456c-0.621,0.304-1.039,0.595-1.254,0.874v1.976c0.81-0.646,1.51-1.304,2.099-1.976
		C416.284,23.501,416.527,23.083,416.427,22.918z M417.11,28.542c-0.33,0.013-0.887,0.171-1.672,0.475
		c-0.849,0.342-1.463,0.678-1.843,1.007v3.534c0.823-0.228,1.634-0.924,2.432-2.09S417.187,29.328,417.11,28.542z"/>
	<path id="XMLID_105_" d="M439.796,32.209c-0.038,0.317-0.159,0.57-0.361,0.76c-0.367,0.785-0.931,1.577-1.691,2.375
		c-0.823,0.848-1.488,1.273-1.995,1.273c-0.075,0-0.146-0.007-0.209-0.019c-0.557-0.178-1.185-0.399-1.881-0.665
		c-1.241-0.506-2.191-1.476-2.85-2.907c-0.583-1.292-0.874-2.793-0.874-4.503c0-2.09,0.399-3.933,1.197-5.529
		c0.848-1.697,1.912-2.578,3.191-2.641c0.494-0.025,1.219,0.228,2.176,0.76c0.956,0.532,1.587,1.061,1.891,1.586
		c0.304,0.526,0.513,1.675,0.627,3.448c0.025,0.38-0.025,0.767-0.152,1.159c-0.151,0.469-0.349,0.684-0.589,0.646
		c-0.443-0.063-1.001-0.203-1.672-0.418c-0.811-0.266-1.248-0.487-1.311-0.665c-0.026-0.063-0.038-0.12-0.038-0.171
		c0-0.114,0.054-0.257,0.161-0.428s0.161-0.313,0.161-0.427c0.063-0.52,0.096-1.007,0.096-1.463c0-0.659-0.076-1.115-0.229-1.368
		c-0.76,0.558-1.336,1.488-1.729,2.793c-0.33,1.102-0.494,2.35-0.494,3.743c0,1.077,0.095,2.036,0.285,2.878
		c0.189,0.842,0.418,1.352,0.684,1.529c0.127,0.076,0.479-0.181,1.055-0.77s0.946-1.061,1.111-1.416
		c0.013-0.012,0.069-0.215,0.171-0.608c0.076-0.228,0.178-0.367,0.304-0.418c0.216-0.076,0.77,0.104,1.663,0.542
		C439.387,31.725,439.82,32.032,439.796,32.209z"/>
	<path id="XMLID_121_" d="M459.365,26.699c0,1.381-0.374,2.882-1.121,4.503c-0.596,1.305-1.343,2.534-2.242,3.686
		c-0.798,0.988-1.387,1.564-1.767,1.729c-0.19,0.076-0.405,0.114-0.646,0.114c-0.558,0-1.19-0.177-1.899-0.532
		c-0.634-0.292-1.108-0.608-1.425-0.95v-13.68c0.038-0.33,0.228-0.526,0.569-0.589c0.038-0.012,0.354,0.032,0.95,0.133
		c0.114,0.013,0.491-0.121,1.131-0.399c0.64-0.278,1.188-0.418,1.644-0.418c0.557,0,1.089,0.146,1.596,0.437
		c0.291,0.178,0.729,0.52,1.311,1.026c0.849,0.734,1.399,1.507,1.653,2.318C459.283,24.622,459.365,25.496,459.365,26.699z
		 M456.211,23.032c-0.063-0.038-0.164-0.057-0.304-0.057c-0.672,0-1.476,0.292-2.413,0.874v8.55
		c0.861-0.494,1.596-1.703,2.204-3.629c0.52-1.659,0.779-3.167,0.779-4.522C456.478,23.539,456.389,23.134,456.211,23.032z"/>
	<path id="XMLID_124_" d="M478.195,33.824c-0.038,0.215-0.149,0.446-0.333,0.693s-0.345,0.396-0.484,0.446
		c-0.038,0.013-0.107-0.009-0.209-0.066c-0.102-0.057-0.184-0.085-0.247-0.085c-0.025,0-0.051,0.007-0.076,0.019
		c-0.393,0.114-0.785,0.266-1.178,0.456c-0.938,0.431-1.799,0.981-2.584,1.653c-1.267-0.52-1.957-0.804-2.071-0.855
		c-0.785-0.342-1.178-0.595-1.178-0.76V21.037c0-0.088,0.148-0.215,0.446-0.38s0.517-0.241,0.655-0.228
		c0.152,0.013,0.456,0.111,0.912,0.294s0.83,0.275,1.121,0.275c0.38,0,0.874-0.171,1.482-0.513c0.557-0.33,0.905-0.469,1.045-0.418
		c0.304,0.102,0.757,0.434,1.358,0.998c0.602,0.564,0.928,0.966,0.979,1.207c0.025,0.114-0.092,0.311-0.352,0.589
		c-0.26,0.278-0.472,0.418-0.637,0.418c-0.14,0-0.24-0.019-0.304-0.057s-0.107-0.05-0.133-0.038
		c-0.456,0.102-0.881,0.222-1.273,0.361c-0.938,0.317-1.628,0.684-2.07,1.102v3.097c0.442-0.228,1.02-0.462,1.729-0.703
		c0.202-0.025,0.63,0.256,1.282,0.846c0.652,0.589,0.979,0.998,0.979,1.226c0,0.139-0.089,0.304-0.266,0.494
		c-0.178,0.19-0.349,0.311-0.513,0.361c-0.127,0-0.349,0.013-0.665,0.038c-0.481,0.089-1.33,0.494-2.546,1.216v1.995
		c0.38-0.228,0.896-0.497,1.548-0.808s1.055-0.466,1.207-0.466c0.177,0,0.623,0.276,1.339,0.827
		C477.875,33.321,478.221,33.672,478.195,33.824z"/>
	<path id="XMLID_126_" d="M496.928,22.158c-0.025,0.203-0.113,0.418-0.266,0.646c-0.19,0.266-0.405,0.412-0.646,0.437
		c-0.089,0.013-0.203-0.01-0.343-0.066c-0.14-0.057-0.247-0.086-0.322-0.086c-0.229,0-0.773,0.184-1.635,0.551
		c-0.938,0.393-1.614,0.754-2.032,1.083V28.2c0.062-0.025,0.36-0.203,0.893-0.532c0.354-0.215,0.64-0.329,0.855-0.342
		c0.228-0.013,0.651,0.342,1.272,1.064c0.62,0.722,0.918,1.204,0.894,1.444c-0.026,0.228-0.152,0.456-0.381,0.684
		c-0.177,0.178-0.354,0.292-0.531,0.342c-0.076,0.026-0.178,0.01-0.305-0.047c-0.126-0.057-0.215-0.085-0.266-0.085
		c-0.038,0-0.076,0.013-0.114,0.038c-0.367,0.152-0.69,0.292-0.969,0.418c-0.697,0.317-1.146,0.577-1.349,0.779v2.774
		c0,0.114,0.066,0.25,0.199,0.408c0.133,0.159,0.199,0.326,0.199,0.503c-0.025,0.709-0.361,1.134-1.007,1.273
		c-0.71-0.329-1.311-0.69-1.805-1.083c-0.545-0.443-0.817-0.829-0.817-1.159V22.12c0-0.203-0.073-0.409-0.219-0.618
		s-0.206-0.364-0.181-0.465c0.038-0.203,0.159-0.396,0.361-0.58c0.202-0.184,0.431-0.288,0.685-0.313
		c0.113-0.012,0.462,0.168,1.045,0.542c0.582,0.374,0.969,0.58,1.158,0.618l2.091-0.855c0.164-0.126,0.449-0.272,0.854-0.437
		c0.316-0.038,0.849,0.244,1.596,0.845C496.593,21.458,496.953,21.892,496.928,22.158z"/>
	<path id="XMLID_128_" d="M517.524,29.454c-0.038,0.507-0.26,0.83-0.665,0.969c-0.076,0.013-0.165-0.01-0.266-0.067
		c-0.102-0.057-0.185-0.085-0.247-0.085c-0.076,0-0.159,0.019-0.247,0.057c-0.494,1.888-0.881,3.154-1.159,3.8
		c-0.507,1.204-1.166,1.989-1.977,2.356c-0.215,0.102-0.437,0.152-0.665,0.152c-0.228,0-0.791-0.165-1.69-0.494
		c-0.342-0.089-0.881-0.272-1.615-0.551c-0.734-0.354-1.305-1.172-1.71-2.451c-0.367-1.165-0.551-2.552-0.551-4.161
		c0-2.09,0.291-3.952,0.874-5.586c0.633-1.786,1.469-2.787,2.508-3.002c0.089-0.013,0.19-0.019,0.304-0.019
		c0.634,0,1.406,0.203,2.318,0.608c0.976,0.431,1.634,0.906,1.976,1.425c0.279,0.418,0.463,0.95,0.552,1.596
		c0.113,0.735,0.183,1.134,0.209,1.197c0.038,0.215,0.088,0.475,0.151,0.779c0.013,0.165-0.051,0.358-0.189,0.58
		c-0.14,0.222-0.272,0.358-0.399,0.409c-0.165,0.063-0.658-0.029-1.481-0.276c-0.824-0.247-1.318-0.44-1.482-0.58
		c-0.228-0.152-0.323-0.449-0.285-0.893c0-0.063,0.031-0.143,0.095-0.238c0.063-0.095,0.096-0.18,0.096-0.256
		c0-0.899-0.102-1.349-0.305-1.349c-0.431-0.012-0.811,0.709-1.14,2.166c-0.304,1.368-0.456,2.863-0.456,4.484
		c0,2.407,0.336,3.788,1.007,4.142c0.203,0.102,0.479-0.247,0.827-1.045c0.348-0.798,0.554-1.545,0.617-2.242
		c-0.203-0.152-0.589-0.348-1.159-0.589c-0.456-0.19-0.703-0.354-0.741-0.494c-0.051-0.19,0.013-0.459,0.19-0.807
		c0.177-0.349,0.364-0.573,0.561-0.675c0.196-0.101,0.472-0.158,0.826-0.171c0.481,0,0.772-0.012,0.874-0.038
		c0.216-0.038,0.563-0.146,1.045-0.323c0.393-0.152,0.69-0.228,0.894-0.228c0.075,0,0.146,0.006,0.209,0.019
		c0.316,0.063,0.781,0.349,1.396,0.855C517.236,28.935,517.537,29.277,517.524,29.454z"/>
	<path id="XMLID_130_" d="M538.253,28.751c-0.013,0.178-0.162,0.396-0.446,0.656c-0.285,0.26-0.491,0.389-0.618,0.389
		c-0.177,0-0.285,0.007-0.322,0.019v4.788c0-0.038,0.062,0.197,0.189,0.703c0.114,0.811,0.02,1.286-0.285,1.425
		c-0.063,0.025-0.158,0.038-0.285,0.038c-0.443,0-1.013-0.159-1.71-0.475c-0.747-0.33-1.203-0.658-1.367-0.988
		c-0.013-0.114-0.032-0.285-0.058-0.513c-0.025-0.088,0.02-0.209,0.133-0.361c0.114-0.152,0.172-0.247,0.172-0.285v-3.838
		c-0.241,0.025-0.716,0.121-1.426,0.285c-0.709,0.165-1.178,0.292-1.405,0.38v3.857c0,0.089,0.041,0.193,0.123,0.313
		c0.082,0.121,0.13,0.212,0.143,0.275c-0.051,0.203-0.095,0.399-0.133,0.589c-0.038,0.139-0.108,0.228-0.209,0.266
		c-0.203,0.076-0.77-0.041-1.701-0.351c-0.931-0.311-1.422-0.561-1.472-0.75c-0.038-0.14-0.051-0.292-0.038-0.456
		c0.038-0.253,0.057-0.431,0.057-0.532v-12.16c0-0.202,0.057-0.551,0.171-1.045c0.025-0.126,0.24-0.304,0.646-0.532
		c0.024-0.013,0.095-0.019,0.209-0.019c0.468,0,0.962,0.076,1.481,0.228c0.672,0.203,1.026,0.469,1.064,0.798
		c0.013,0.114-0.041,0.33-0.162,0.646c-0.12,0.317-0.18,0.532-0.18,0.646v4.636c0.86-0.215,1.805-0.437,2.831-0.665
		c0-3.509,0-5.275,0-5.301c0-0.025-0.029-0.12-0.086-0.285s-0.073-0.298-0.048-0.399c0.063-0.228,0.272-0.373,0.627-0.437
		c0.267-0.038,0.532-0.069,0.799-0.095c0.278-0.038,0.687,0.044,1.225,0.247c0.539,0.203,0.84,0.418,0.903,0.646
		c0.024,0.102,0,0.234-0.076,0.399c-0.089,0.215-0.133,0.393-0.133,0.532v5.244c0.062,0.076,0.36,0.349,0.893,0.817
		C538.101,28.39,538.266,28.612,538.253,28.751z"/>
	<path id="XMLID_132_" d="M552.143,21.284c0,0.089-0.029,0.209-0.086,0.361s-0.092,0.247-0.104,0.285
		c-0.076,0.253-0.152,0.646-0.228,1.178v11.666c0,0.152,0.037,0.289,0.113,0.409c0.076,0.121,0.114,0.218,0.114,0.294
		c0,0.811-0.152,1.248-0.456,1.311c-0.114,0.025-0.558-0.057-1.33-0.247c-0.811-0.203-1.279-0.361-1.406-0.475
		c-0.278-0.24-0.418-0.462-0.418-0.665c0-0.05,0.025-0.107,0.076-0.171c0.051-0.063,0.076-0.171,0.076-0.323V21.512
		c0-0.076-0.022-0.155-0.066-0.238c-0.045-0.082-0.066-0.161-0.066-0.237c0.025-0.304,0.26-0.506,0.703-0.608
		c0.139-0.025,0.431-0.025,0.874,0c0.544,0.038,1,0.108,1.368,0.209C551.863,20.79,552.143,21.006,552.143,21.284z"/>
	<path id="XMLID_134_" d="M571.009,21.037c0.089,0.342,0.076,0.855-0.038,1.539c0,0.152,0,0.563,0,1.235
		c0.013,0.824,0.02,1.508,0.02,2.052c0,6.663-0.767,10.241-2.3,10.735c-0.202,0.063-0.405,0.095-0.607,0.095
		c-0.267,0-0.602-0.057-1.007-0.171c-0.355-0.114-0.716-0.228-1.083-0.342c-0.305-0.076-0.615-0.152-0.932-0.228
		s-0.589-0.19-0.816-0.342c-0.558-0.367-1.001-0.943-1.33-1.729c-0.229-0.558-0.387-1.204-0.476-1.938
		c-0.038-0.342-0.069-0.684-0.095-1.026c-0.178-0.43-0.241-0.734-0.19-0.912c0.114-0.405,0.381-0.633,0.799-0.684
		c0.342-0.038,0.829,0.013,1.463,0.152c0.76,0.165,1.209,0.38,1.349,0.646c0.051,0.089,0.076,0.19,0.076,0.304
		c0,0.025-0.02,0.139-0.057,0.342c-0.014,0.152-0.007,0.279,0.019,0.38c0.025,0.634,0.114,1.248,0.266,1.843
		c0.165,0.671,0.343,1.007,0.532,1.007c0.38,0,0.614-1.817,0.703-5.453c0.013-0.722,0.02-3.002,0.02-6.84
		c0-0.088-0.026-0.203-0.076-0.342c-0.051-0.139-0.076-0.221-0.076-0.247c0-0.165,0.092-0.333,0.275-0.504
		c0.184-0.171,0.37-0.269,0.561-0.294c0.342-0.038,0.887,0.007,1.634,0.133C570.489,20.613,570.945,20.809,571.009,21.037z"/>
	<path id="XMLID_136_" d="M592.025,33.311c0.038,0.317-0.178,0.912-0.646,1.786c-0.494,0.912-0.899,1.349-1.216,1.311
		c-0.38-0.051-1.185-0.804-2.413-2.261c-1.368-1.634-2.21-2.558-2.526-2.774v3.496c0,0.076,0.037,0.209,0.113,0.399
		s0.12,0.33,0.133,0.418c0.063,0.506-0.044,0.836-0.322,0.988c-0.127,0.076-0.336,0.114-0.627,0.114
		c-0.558,0-1.103-0.108-1.635-0.323c-0.595-0.241-0.893-0.52-0.893-0.836V21.721c0-0.241,0.082-0.51,0.247-0.808
		c0.164-0.297,0.349-0.484,0.551-0.561c0.038-0.012,0.095-0.019,0.171-0.019c0.367,0,0.89,0.14,1.567,0.418
		c0.678,0.279,1.049,0.513,1.112,0.703c0.024,0.089-0.038,0.551-0.19,1.387c-0.165,0.95-0.247,1.672-0.247,2.166
		c0,0.165,0.006,0.311,0.02,0.437l3.268-5.016c0.19-0.292,0.431-0.431,0.722-0.418c0.316,0.013,0.785,0.215,1.406,0.608
		c0.696,0.456,1.052,0.887,1.064,1.292c0,0.114-0.507,0.824-1.521,2.128c-1.279,1.622-2.28,3.053-3.002,4.294l3.838,4.408
		c0.089,0.102,0.291,0.184,0.608,0.247C591.873,33.052,592.013,33.159,592.025,33.311z"/>
	<path id="XMLID_138_" d="M610.684,33.71c-0.152,0.596-0.394,0.957-0.723,1.083c-0.102,0.038-0.237,0.044-0.408,0.019
		c-0.171-0.025-0.295-0.019-0.37,0.019l-2.812,1.178c-0.089,0.038-0.181,0.146-0.275,0.323s-0.187,0.278-0.275,0.304
		c-0.279,0.101-0.868,0.006-1.767-0.285c-0.9-0.292-1.444-0.563-1.635-0.817c-0.14-0.203-0.184-0.52-0.133-0.95
		c0.025-0.202,0.038-0.361,0.038-0.475V21.341c-0.025-0.126-0.076-0.234-0.152-0.323c-0.075-0.088-0.113-0.165-0.113-0.228
		c0.025-0.24,0.247-0.418,0.665-0.532c0.266-0.063,0.842,0.032,1.729,0.285c1.001,0.292,1.508,0.634,1.521,1.026
		c0,0.101-0.07,0.253-0.209,0.456c-0.14,0.203-0.209,0.355-0.209,0.456v10.507l1.976-0.855c0.114-0.102,0.329-0.215,0.646-0.342
		c0.178-0.025,0.652,0.244,1.426,0.808C610.373,33.163,610.733,33.533,610.684,33.71z"/>
	<path id="XMLID_140_" d="M637.759,35.705c-0.089,0.544-0.241,0.842-0.456,0.893c-0.305,0.076-0.887-0.006-1.748-0.247
		c-0.912-0.253-1.432-0.506-1.559-0.76c-0.038-0.089-0.057-0.184-0.057-0.285c0-0.076,0.016-0.2,0.048-0.371
		c0.031-0.171,0.047-0.313,0.047-0.427v-8.626c-0.596,1.166-1.374,3.787-2.337,7.866c-0.013,0.051-0.019,0.108-0.019,0.171
		c0,0.127,0.021,0.33,0.066,0.608c0.044,0.278,0.066,0.456,0.066,0.532c-0.013,0.393-0.032,0.646-0.057,0.76
		c-0.064,0.253-0.197,0.405-0.399,0.456c-0.127,0.038-0.349,0.057-0.665,0.057c-1.646,0-2.78-0.285-3.401-0.855
		c-0.102-0.088-0.14-0.247-0.113-0.475c0.024-0.278,0.024-0.462,0-0.551c-0.469-1.444-0.887-2.71-1.254-3.8
		c-0.888-2.634-1.464-4.186-1.729-4.655v7.562c0,0.165,0.051,0.393,0.152,0.684c0.126,0.354,0.196,0.577,0.209,0.665
		c0.05,0.253,0.062,0.558,0.038,0.912c-0.026,0.43-0.114,0.696-0.267,0.798c-0.076,0.05-0.222,0.076-0.437,0.076
		c-0.469,0-1.026-0.083-1.672-0.247c-0.697-0.165-1.109-0.336-1.235-0.513c-0.063-0.088-0.095-0.196-0.095-0.323
		c0-0.076,0.021-0.202,0.066-0.38c0.044-0.177,0.066-0.316,0.066-0.418V21.341c0-0.152,0.063-0.326,0.189-0.522
		c0.127-0.196,0.272-0.326,0.438-0.39c0.215-0.088,1.045,0.063,2.489,0.456c1.507,0.393,2.305,0.734,2.394,1.026
		c0.038,0.114,0.044,0.266,0.02,0.456c-0.038,0.266-0.058,0.424-0.058,0.475c0,0.114,0.02,0.215,0.058,0.304l2.564,6.897
		c0.354-1.127,1.001-3.414,1.938-6.859c0.468-1.76,0.848-2.679,1.14-2.755c0.089-0.025,0.19-0.038,0.304-0.038
		c0.216,0,0.576,0.057,1.083,0.171c0.558,0.14,0.943,0.216,1.159,0.228c1.001,0.089,1.577,0.146,1.729,0.171
		c0.595,0.114,0.931,0.323,1.007,0.627c0.025,0.089,0.038,0.184,0.038,0.285c0,0.127-0.032,0.307-0.096,0.542
		s-0.095,0.409-0.095,0.522v11.628c0,0.127,0.079,0.317,0.237,0.57S637.783,35.579,637.759,35.705z"/>
</g>
</svg>
