<?xml version="1.0" encoding="utf-8"?>
<!-- Generator: Adobe Illustrator 19.1.0, SVG Export Plug-In . SVG Version: 6.00 Build 0)  -->
<svg version="1.1" id="Layer_2" xmlns="http://www.w3.org/2000/svg" xmlns:xlink="http://www.w3.org/1999/xlink" x="0px" y="0px"
	 viewBox="0 0 100 100" style="enable-background:new 0 0 100 100;" xml:space="preserve">
<style type="text/css">
	.st0{fill:#F2A786;stroke:#F2A786;stroke-width:0.04;stroke-miterlimit:10;}
	.st1{fill:#C17267;}
	.st2{fill:#DC8866;stroke:#DC8866;stroke-width:0.04;stroke-miterlimit:10;}
	.st3{fill:#BC6C57;stroke:#BC6C57;stroke-width:0.04;stroke-miterlimit:10;}
	.st4{fill:#D39181;stroke:#D39181;stroke-width:0.04;stroke-miterlimit:10;}
	.st5{fill:#D38179;stroke:#D38179;stroke-width:0.04;stroke-miterlimit:10;}
	.st6{fill:#A76154;stroke:#A76154;stroke-width:0.04;stroke-miterlimit:10;}
</style>
<path class="st0" d="M77.013,34.705c-0.842,1.195-1.386,2.554-1.685,3.994c-1.005,1.413-2.527,2.5-4.211,3.043
	c-0.652,0.217-1.386,0.353-1.875,0.815c-0.435,0.435-0.652,1.033-0.869,1.603c-2.011,4.945-6.711,8.695-11.928,9.618
	c-1.06,0.163-2.119,0.272-3.043,0.734c-1.331,0.761-2.065,2.228-2.962,3.505c-1.06,1.576-2.473,3.016-4.211,3.722
	c-2.011,0.788-4.293,0.598-6.439,0.625c-2.174,0.054-4.565,0.462-5.95,2.119l-0.109-0.109c-0.761,0.761-1.657,1.331-2.663,1.657
	c3.315,7.907,13.45,24.997,40.213,30.323c1.06-0.027,1.902-0.054,2.391-0.109c2.337-0.163,3.777,0,5.815,0.245
	c0.081,0,0.163,0,0.245,0.027c0.027,0,0.027,0,0.027,0c0.87-0.761,1.467-1.766,2.418-2.989c0.163-0.299,0.408-0.734,0.761-1.223
	c0.109-0.272,0.326-0.571,0.489-0.897c0.408-0.761,0.842-1.576,1.304-2.445c0.652-1.277,1.304-2.663,1.929-4.13
	C92.718,59.648,81.198,40.601,77.013,34.705z M67.395,88.612c0.299,0.136,1.195,0.516,2.065,0.788
	c0.842,0.245,1.603,0.489,1.603,0.489s0.761,0.163,1.603,0.38c0.869,0.217,1.82,0.38,2.146,0.435
	c0.598,0.081,0.924,0.19,1.386,0.353c-0.462,0.054-0.842,0.081-1.413,0.054c-0.353-0.027-1.304-0.136-2.228-0.299
	c-0.869-0.163-1.685-0.408-1.685-0.408c-0.027,0.081-3.043-1.087-3.641-1.413c-0.543-0.272-0.842-0.489-1.195-0.815
	C66.526,88.286,66.852,88.422,67.395,88.612z M73.209,93.91c-0.652,0-1.875,0.027-3.831-0.299c-1.657-0.217-3.94-0.706-5.679-1.331
	c-1.82-0.598-3.206-1.195-3.206-1.195s-1.63-0.652-3.505-1.63c-1.929-0.978-4.076-2.228-5.298-3.043
	c-1.25-0.815-1.793-1.223-2.146-1.467c-2.119-1.44-3.179-2.391-4.918-3.641c1.82,1.06,3.125,1.739,5.326,2.989
	c0.38,0.217,0.978,0.571,2.228,1.304c1.304,0.706,3.424,1.902,5.326,2.799c1.902,0.924,3.451,1.522,3.451,1.522
	s1.359,0.543,3.125,1.06c1.712,0.543,3.94,1.06,5.488,1.25c1.902,0.245,3.043,0.326,3.641,0.326c2.473,0.136,3.94,0.245,6.059,0.054
	C77.258,93.285,75.818,93.828,73.209,93.91z M84.513,68.206c-0.027,0.435-0.081,1.141-0.245,2.581
	c-0.082,1.087-0.516,3.451-0.516,3.451s-0.353,2.038-0.652,3.152c-0.435,1.929-0.815,3.07-1.005,3.641
	c-0.734,2.418-1.44,3.75-2.364,5.624c0.734-1.983,1.087-3.369,1.875-5.787c0.163-0.571,0.571-1.712,1.06-3.614
	c0.272-1.06,0.706-3.07,0.706-3.07s0.462-2.391,0.543-3.451c0.19-1.413,0.272-2.092,0.326-2.527c0.19-2.255,0.299-3.668,0.353-5.461
	C84.676,64.538,84.676,65.951,84.513,68.206z"/>
<path class="st1" d="M27.372,49.431c-0.299,0.408-0.462,0.897-0.543,1.413c0-0.054,0-0.054,0-0.082c0.082-0.462,0.054-0.815,0-1.141
	C27.101,49.513,27.264,49.459,27.372,49.431z"/>
<path class="st2" d="M91.305,59.892c0,0-0.027-2.038-0.543-5.135c-0.543-3.097-1.494-7.282-3.097-11.439
	c-1.603-4.157-3.831-8.341-6.195-11.33c-0.217-0.299-0.435-0.598-0.679-0.842c-0.706-0.842-1.331-1.522-1.712-1.848
	c-1.44-1.549-2.31-2.554-3.424-3.94c-0.163,0.489-0.353,1.005-0.652,1.576c-0.136,0.326-0.38,0.815-0.706,1.413
	c-0.19,0.245-0.353,0.571-0.625,0.869c-0.462,0.652-1.141,1.359-1.82,2.011c-1.467,1.413-3.532,2.391-5.353,3.125
	c-0.489,0.245-0.951,0.489-1.277,0.788c-0.38,0.299-0.652,0.598-0.87,0.924c-0.136,0.19-0.245,0.408-0.299,0.598
	c-0.299,0.679-0.489,1.467-0.788,2.255c-1.603,4.402-5.652,6.956-8.749,7.608c-1.603,0.353-2.962,0.299-3.858,0.217
	c-0.897-0.082-1.277-0.109-1.277-0.109c-0.027,0.082-1.766-0.571-2.934,2.038c-0.652,1.195-1.005,3.07-2.554,4.782
	c-0.815,0.869-2.065,1.386-3.206,1.522c-1.141,0.163-2.201,0.082-3.233,0.109c-3.94-0.027-7.689,2.636-11.33,3.967
	c-1.685,0.543-3.152,0.734-3.94,0.788c-0.081,0-0.19,0-0.245,0c0.516,0.869,1.087,1.739,1.685,2.962
	c0.136,0.326,0.353,0.761,0.652,1.359c0.136,0.245,0.245,0.571,0.408,0.897c0.38,0.652,0.815,1.467,1.277,2.255
	c0.054,0.109,0.109,0.19,0.163,0.299c1.766,3.125,4.076,6.575,6.63,9.646c2.581,3.206,5.461,5.869,7.689,7.716
	c2.228,1.848,3.804,2.826,3.804,2.826s1.494,1.141,4.021,2.5c2.5,1.44,6.086,3.043,10.026,4.211
	c3.913,1.168,8.206,1.739,11.711,1.848c0.462,0,0.869,0,1.277,0C44.517,91.03,34.383,73.94,31.068,66.033
	c1.005-0.326,1.902-0.897,2.663-1.657l0.109,0.109c1.386-1.657,3.777-2.065,5.95-2.119c2.146-0.027,4.429,0.163,6.439-0.625
	c1.739-0.706,3.152-2.146,4.211-3.722c0.897-1.277,1.63-2.744,2.962-3.505c0.924-0.462,1.983-0.571,3.043-0.734
	c5.217-0.924,9.917-4.673,11.928-9.618c0.217-0.571,0.435-1.168,0.869-1.603c0.489-0.462,1.223-0.598,1.875-0.815
	c1.685-0.543,3.206-1.63,4.211-3.043c0.299-1.44,0.842-2.799,1.685-3.994c4.184,5.896,15.705,24.943,9.646,50.13
	c1.114-2.554,2.119-5.325,2.853-8.07c1.114-4.347,1.685-8.586,1.82-11.738C91.495,61.903,91.305,59.892,91.305,59.892z"/>
<g>
	<path class="st3" d="M93.343,59.784c0,0-0.054-2.092-0.543-5.353c-0.489-3.233-1.467-7.553-3.152-11.874
		c-1.603-4.32-3.94-8.695-6.439-11.928c-0.326-0.408-0.625-0.788-0.924-1.114c-0.679-0.815-1.25-1.44-1.657-1.793
		c-0.571-0.543-1.06-1.005-1.63-1.331c-0.027,0.027-0.054,0.109-0.054,0.136c0-0.082-0.027-0.136,0-0.19
		c-1.005-0.679-2.011-1.087-3.179-1.413c-0.027,0.136-0.082,0.272-0.109,0.435c1.114,1.386,1.983,2.391,3.424,3.94
		c0.38,0.326,1.005,1.005,1.712,1.848c0.245,0.245,0.462,0.543,0.679,0.842c2.364,2.989,4.592,7.173,6.195,11.33
		c1.603,4.157,2.554,8.341,3.097,11.439c0.516,3.097,0.543,5.135,0.543,5.135s0.19,2.011,0.027,5.135
		c-0.136,3.152-0.706,7.39-1.82,11.738c-0.734,2.744-1.739,5.516-2.853,8.07c-0.625,1.467-1.277,2.853-1.929,4.13
		c-0.462,0.869-0.897,1.685-1.304,2.445c-0.163,0.326-0.38,0.625-0.489,0.897c-0.353,0.489-0.598,0.924-0.761,1.223
		c-0.951,1.223-1.549,2.228-2.418,2.989c0,0,0,0-0.027,0c-0.081-0.027-0.163-0.027-0.245-0.027
		c-2.038-0.245-3.478-0.408-5.815-0.245c-0.489,0.054-1.331,0.082-2.391,0.109c-0.408,0-0.815,0-1.277,0
		c-3.505-0.109-7.798-0.679-11.711-1.848c-3.94-1.168-7.526-2.771-10.026-4.211c-2.527-1.359-4.021-2.5-4.021-2.5
		s-1.576-0.978-3.804-2.826c-2.228-1.848-5.108-4.51-7.689-7.716c-2.554-3.07-4.864-6.521-6.63-9.646
		c-0.054-0.109-0.109-0.19-0.163-0.299c-0.462-0.788-0.897-1.603-1.277-2.255c-0.163-0.326-0.272-0.652-0.408-0.897
		c-0.299-0.598-0.516-1.032-0.652-1.359c-0.598-1.223-1.168-2.092-1.685-2.962c-0.326,0-0.598,0.027-0.842-0.054
		c0.19,1.141,0.435,2.255,1.06,3.641c0.109,0.163,0.163,0.435,0.299,0.706c0.027,0.19,0.136,0.38,0.245,0.598
		c0,0.054,0.054,0.082,0.054,0.109c0.163,0.299,0.272,0.625,0.489,0.978c0.272,0.652,0.706,1.522,1.168,2.364
		c0.082,0.163,0.163,0.326,0.245,0.489c1.657,3.206,3.994,6.711,6.575,9.836c2.636,3.342,5.597,6.141,7.907,8.015
		c2.31,1.929,3.94,3.016,3.94,3.016s1.549,1.114,4.157,2.581c2.636,1.467,6.385,3.206,10.434,4.402
		c4.103,1.223,8.586,1.848,12.308,1.983c1.712,0,3.152-0.027,3.831-0.109c1.82-0.109,3.016-0.489,4.266-1.005
		c-0.027,0-0.027,0-0.054,0c0.054-0.027,0.109-0.027,0.136-0.054c-0.027,0.027-0.027,0.027-0.054,0.054
		c2.092-0.027,3.831-0.788,5.434-2.88c0.217-0.272,0.543-0.734,0.897-1.277c0.163-0.272,0.326-0.598,0.571-0.951
		c0.408-0.761,0.897-1.576,1.359-2.473c1.929-3.614,3.75-8.124,4.972-12.526c1.25-4.483,1.848-8.858,1.983-12.118
		C93.506,61.876,93.343,59.784,93.343,59.784z M78.399,97.225c0.245-0.081,0.543-0.245,0.842-0.408
		C79.051,97.007,78.725,97.143,78.399,97.225z"/>
	<path class="st3" d="M83.1,77.39c0.299-1.114,0.652-3.152,0.652-3.152s0.435-2.364,0.516-3.451c0.163-1.44,0.217-2.146,0.245-2.581
		c0.163-2.255,0.163-3.668,0.082-5.461c-0.054,1.793-0.163,3.206-0.353,5.461c-0.054,0.435-0.136,1.114-0.326,2.527
		c-0.082,1.06-0.543,3.451-0.543,3.451s-0.435,2.011-0.706,3.07c-0.489,1.902-0.897,3.043-1.06,3.614
		c-0.788,2.418-1.141,3.804-1.875,5.787c0.924-1.875,1.63-3.206,2.364-5.624C82.285,80.46,82.665,79.319,83.1,77.39z"/>
	<path class="st3" d="M70.873,90.405c0,0,0.815,0.245,1.685,0.408c0.924,0.163,1.875,0.272,2.228,0.299
		c0.571,0.027,0.951,0,1.413-0.054c-0.462-0.163-0.788-0.272-1.386-0.353c-0.326-0.054-1.277-0.217-2.146-0.435
		c-0.842-0.217-1.603-0.38-1.603-0.38s-0.761-0.245-1.603-0.489c-0.869-0.272-1.766-0.652-2.065-0.788
		c-0.543-0.19-0.869-0.326-1.359-0.435c0.353,0.326,0.652,0.543,1.195,0.815C67.83,89.318,70.846,90.486,70.873,90.405z"/>
	<path class="st3" d="M51.69,86.411c1.223,0.815,3.369,2.065,5.298,3.043c1.875,0.978,3.505,1.63,3.505,1.63
		s1.386,0.598,3.206,1.195c1.739,0.625,4.021,1.114,5.679,1.331c1.956,0.326,3.179,0.299,3.831,0.299
		c2.608-0.081,4.048-0.625,6.059-1.304c-2.119,0.19-3.587,0.082-6.059-0.054c-0.598,0-1.739-0.082-3.641-0.326
		c-1.549-0.19-3.777-0.706-5.488-1.25c-1.766-0.516-3.125-1.06-3.125-1.06s-1.549-0.598-3.451-1.522
		c-1.902-0.897-4.021-2.092-5.326-2.799c-1.25-0.734-1.848-1.087-2.228-1.304c-2.201-1.25-3.505-1.929-5.326-2.989
		c1.739,1.25,2.799,2.201,4.918,3.641C49.897,85.188,50.44,85.596,51.69,86.411z"/>
</g>
<g>
	<path class="st4" d="M57.179,26.988c-0.054,0.027-0.136,0.081-0.163,0.109c0.462,0.245,0.924,0.571,1.25,1.168
		c0,0,0,0.054,0.027,0.054c0.109-0.272,0.19-0.489,0.272-0.761c-0.081,0-0.109-0.027-0.136-0.027
		C57.94,27.369,57.532,27.179,57.179,26.988z"/>
	<path class="st4" d="M59.515,21.745c-0.027-0.516-0.082-1.087-0.217-1.603c-0.734,0.136-1.44,0.272-1.712,0.299
		c-0.435,0.054-0.788,0.054-1.141,0c0.217,0.109,0.38,0.299,0.598,0.489c0.245,0.299,0.625,0.706,0.924,1.44
		c0.299,0.679,0.543,1.603,0.299,2.853c-0.027,0.462-0.489,1.114-0.489,1.114c0.027,0.027-0.027,0.109-0.163,0.217
		c0.326,0,0.625,0,1.005,0.054c0.054,0,0.163,0,0.245,0C59.352,25.032,59.597,23.402,59.515,21.745z"/>
	<path class="st4" d="M56.88,28.918c-0.19-0.516-0.245-1.005-0.408-1.494c-0.652,0.38-1.141,0.435-1.522,0.543
		c-0.462,0.027-0.761,0.054-0.978,0.054c-1.413,0.027-2.473-0.163-3.451-0.516c0.217,0.571,0.38,1.304,0.462,2.011
		c0.054,0.815-0.109,1.685-0.435,2.282c-0.299,0.571-0.652,0.761-0.652,0.761s-0.054,0.082-0.245,0.217
		c0.081,0.081,0.136,0.245,0.217,0.38c0,0.027,0,0.054,0,0.109c0,0,0,0,0.027,0c0.136,0.027,0.299,0.081,0.435,0.163
		c0.435,0.19,1.902,0.706,3.342,0.679c0.326,0,0.652-0.027,0.951-0.082c0.924-0.109,1.63-0.38,1.63-0.38s0.054,0,0.19-0.054
		c0.054,0,0.163-0.082,0.217-0.109c0.163-0.272,0.489-0.869,0.598-1.494c0.109-0.543,0.082-1.114,0.027-1.63
		C57.179,29.678,56.989,29.162,56.88,28.918z"/>
	<path class="st4" d="M49.843,36.335c-0.19,0.625-0.516,1.223-0.842,1.549c-0.245,0.38-0.598,0.489-0.598,0.489
		s-0.625,0.489-1.467,0.734l-0.027,0.027c0,0.353,0.054,0.734,0.163,1.06c2.31-1.44,4.51-3.07,6.439-4.999
		c-1.494-0.109-2.962-0.761-3.478-1.087C50.087,34.705,50.087,35.574,49.843,36.335z"/>
	<path class="st4" d="M45.876,39.324c0.19,0.462,0.38,0.815,0.516,1.304c0.081-0.054,0.217-0.109,0.353-0.217
		c0-0.435,0.027-0.842,0.136-1.277c-0.245,0.109-0.462,0.163-0.679,0.163C46.066,39.324,45.957,39.324,45.876,39.324z"/>
	<path class="st4" d="M43.159,37.422c0,0-0.109,0.245-0.38,0.679c0.217,0.054,0.408,0.163,0.679,0.217
		c0.353,0.163,1.522,0.462,2.527,0.163c1.06-0.217,1.712-0.897,1.712-0.897s0.054-0.245,0.272-0.489
		c0.245-0.272,0.462-0.652,0.598-1.141c0.326-0.951,0.109-2.038,0-2.364c-0.027-0.054-0.027-0.109-0.054-0.136
		c-0.435,0.163-0.924,0.245-1.44,0.299c-1.359,0.081-2.608-0.543-3.179-0.924c0.027,0.516,0.027,1.087,0,1.63
		C43.784,36.091,43.159,37.422,43.159,37.422z"/>
	<path class="st4" d="M43.24,38.808c-0.272-0.163-0.462-0.272-0.625-0.435c-0.054,0.081-0.136,0.19-0.19,0.326
		c-0.109,0.245-0.652,0.217-0.761,0.272c-0.353,0.081-0.734,0.109-1.141,0.109c-0.027,0-0.081,0-0.109,0
		c0.353,0.516,0.761,1.005,0.842,1.875c0.054,0.462,0,1.739-0.516,2.907c1.277-0.679,2.554-1.413,3.804-2.119
		c0.435-0.272,0.924-0.543,1.386-0.842c-0.027-0.598-0.054-1.005-0.163-1.522C44.626,39.433,43.566,39.052,43.24,38.808z"/>
	<path class="st4" d="M40.17,39.079c-1.494-0.081-2.934-0.788-3.315-1.114c-0.598-0.543-0.951-0.951-1.277-1.413
		c-0.109-0.163-0.217-0.326-0.326-0.489c0.598,0.598,1.114,0.897,1.983,1.277c0.435,0.245,1.902,0.815,3.26,0.788
		c0.353,0,0.652-0.027,1.005-0.081c0.027,0,0.027-0.054,0.082-0.054c0,0,0.054-0.217,0.109-0.272
		c0.136-0.489,0.272-0.761,0.272-0.761s0.462-1.195,0.489-2.554c0.109-1.413-0.326-2.853-0.462-3.288
		c-0.19-0.706-0.217-1.223-0.353-1.82c-0.054,0-0.054,0.027-0.054,0.027s-0.272,0.245-0.679,0.625
		c-0.489,0.272-1.141,0.625-1.956,0.788c-0.761,0.136-1.657,0.082-2.364-0.245c-0.679-0.272-1.087-0.788-1.25-1.032
		c-0.571-1.033-0.408-1.793,0-2.473c-0.082,0.815,0.299,1.277,0.815,1.875c0.136,0.136,0.408,0.516,0.869,0.679
		c0.489,0.272,1.141,0.326,1.766,0.245c1.304-0.217,2.174-1.087,2.174-1.087s0.978-0.815,1.386-2.119
		c0.462-1.25,0.272-2.799,0.136-3.288c-0.19-0.869-0.38-1.413-0.897-2.011c0.571,0.516,0.978,0.978,1.386,1.902
		c0.217,0.462,0.543,2.174,0.082,3.641c-0.245,1.005-0.815,1.739-1.141,2.174v0.027c0.543,0.353,1.032,0.788,1.386,1.603
		c0.109,0.163,0.217,0.489,0.326,0.869v0.027c0.163,0.082,0.299,0.136,0.435,0.245c0.408,0.217,1.739,0.869,2.88,0.706
		c0.598-0.109,1.033-0.299,1.331-0.543c0.027-0.054,0-0.109,0-0.136c0.082,0,0.109,0.027,0.136,0.054
		c0.217-0.19,0.38-0.326,0.38-0.326c-0.054-0.081,0.625-0.679,0.462-1.848c-0.136-1.168-0.734-2.473-0.897-2.853
		c-0.082-0.136-0.082-0.272-0.109-0.408c-0.054-0.027-0.163-0.054-0.272-0.081c0.081,0,0.163,0.027,0.245,0.027
		c-0.163-0.625-0.136-1.196-0.408-1.793c0.706,0.38,1.44,0.598,1.983,1.44c0.109,0.109,0.272,0.38,0.408,0.706
		c1.114,0.054,2.201,0.027,3.695-0.109c0.353-0.027,1.141-0.027,2.038-0.652c0.19-0.081,0.353-0.543,0.38-0.543
		c0,0,0.19-0.353,0.19-0.571c0.163-0.706,0-1.304-0.19-1.766c-0.19-0.462-0.462-0.706-0.625-0.87c-1.44-1.25-2.88-2.119-4.999-2.364
		c1.06-0.109,1.983-0.326,3.016-0.326c0.706,0.054,1.494,0.163,2.282,0.598c0.408-0.217,0.788-0.489,1.359-0.706
		c0.272-0.109,0.815-0.245,1.494-0.435v-0.027c-0.761-1.331-2.228-2.119-3.722-2.473c-2.799-0.679-5.76-0.19-8.532,0.571
		c-8.858,2.418-16.737,7.635-23.476,13.83v0.027c0.054,0.163,0.136,0.326,0.19,0.543c0.054,0.38,0.462,1.522,1.06,2.31
		c0.326,0.408,0.598,0.435,0.924,0.353c0.326-0.109,0.543-0.245,0.543-0.245s0.951-0.408,1.766-1.141
		c0.87-0.706,1.549-1.712,1.793-2.038c0.353-0.625,0.652-0.978,0.897-1.603c-0.163,0.625-0.136,1.114-0.516,1.82
		c-0.163,0.408-0.842,1.494-1.712,2.31c-0.842,0.87-1.875,1.359-1.875,1.359s-0.217,0.136-0.679,0.299
		c-0.38,0.245-1.386,0.109-1.82-0.516c-0.87-0.978-1.141-2.337-1.141-2.799c0-0.054,0-0.081,0-0.109
		c-2.31,2.174-4.483,4.619-5.434,7.608c-0.543,1.712-0.571,3.695-0.027,5.434c0.462,1.413,1.304,2.663,2.554,3.478
		c0.571,0.38,1.195,0.652,1.848,0.842c0.027-0.081,0.027-0.136,0.027-0.245c0,0.109,0,0.163,0.027,0.245
		c0.761,0.217,1.576,0.326,2.391,0.326c-0.245-0.19-0.408-0.408-0.543-0.598c-0.353-0.516-0.462-1.032-0.543-1.304
		c-0.054-0.924,0.19-1.413,0.435-2.146c0.163,0.734,0.353,1.223,0.598,1.929c0.054,0.19,0.136,0.625,0.38,0.951
		c0.245,0.353,0.679,0.679,1.195,0.761c0.408,0.136,0.87,0.109,1.223,0.054c0.054-0.081,0.054-0.109,0.054-0.163
		c0.027,0.054,0.027,0.082,0.027,0.163c0.462-0.109,0.788-0.217,0.788-0.217s1.005-0.408,1.576-1.494
		c0.598-1.032,0.815-2.391,0.842-2.826c0.027-0.299,0.109-0.543,0.136-0.788c-0.136,0-0.489-0.054-0.978-0.245
		c-0.625-0.217-1.331-0.706-1.902-1.44c-0.625-0.679-0.951-1.576-1.06-2.337c-0.027-0.788-0.027-1.386,0.081-1.657
		c0.217-1.114,0.734-1.63,1.223-2.31c-0.163,0.869,0,1.467,0.081,2.364c0.027,0.272,0.027,0.761,0.217,1.277
		c0.163,0.543,0.408,1.114,0.788,1.576c0.38,0.489,0.842,0.788,1.223,0.951c0.353,0.163,0.652,0.163,0.652,0.163
		s0.217,0.081,0.598,0c0.38-0.027,0.978-0.054,1.44-0.408c1.032-0.788,1.467-2.418,1.576-2.907c0.272-0.924,0.489-1.467,0.706-2.228
		c0.027,0.163,0.054,0.299,0.081,0.435c0.136,0.625,0.217,1.168,0.109,2.011c-0.081,0.516-0.353,2.31-1.603,3.641
		c-0.326,0.353-0.761,0.679-1.195,0.869c0.082,0.299,0.272,0.571,0.435,0.897c0.19,0.435,1.25,1.63,2.527,1.82
		c0.435,0.109,0.815,0.081,1.195,0.054c0.027-0.054,0.054-0.054,0.082-0.054c0.679-0.082,1.141-0.326,1.141-0.326
		s0.462-0.19,1.005-0.679c0.272-0.217,0.543-0.516,0.815-0.897c0.706-1.032,0.815-2.554,0.761-2.989
		C40.007,40.275,40.251,39.759,40.17,39.079z M24.492,40.954c-0.245,0.489-1.141,2.038-2.282,3.125
		c-0.571,0.571-1.087,1.005-1.657,1.413c-0.217,0.109-0.408,0.272-0.571,0.19c-0.163-0.136-0.299-0.272-0.408-0.353
		c-0.109-0.109-0.19-0.163-0.19-0.163c-0.136-0.027-1.087-1.386-1.141-2.989c-0.19-1.712,0.489-3.396,0.761-3.913
		c0.462-0.978,0.897-1.413,1.467-2.119c-0.19,0.87-0.272,1.494-0.571,2.473c-0.109,0.489-0.679,2.065-0.543,3.478
		c0.027,0.679,0.217,1.331,0.435,1.793c0.19,0.38,0.353,0.679,0.353,0.679s0.027,0.081,0.082,0.19
		c0.38-0.217,1.005-0.679,1.576-1.141c1.141-1.005,2.038-2.391,2.31-2.853c0.462-0.842,0.788-1.304,1.06-2.011
		C25.009,39.487,24.927,40.085,24.492,40.954z"/>
	<path class="st4" d="M32.073,44.351c-0.163-0.353-0.217-0.679-0.245-0.978c-0.217,0.082-0.435,0.136-0.598,0.136
		c-0.353,0.054-0.625,0.027-0.815,0c0,0.217,0,0.489-0.027,0.761c-0.027,0.489-0.19,1.902-0.815,3.07
		c-0.217,0.435-0.516,0.788-0.788,1.06c1.929-0.408,3.722-1.005,5.57-1.739C33.051,46.035,32.209,44.84,32.073,44.351z"/>
	<path class="st4" d="M23.161,15.142c0.163,1.712-0.081,3.532,0.543,5.162c0.136,0.353,0.38,0.734,0.761,0.761
		c0.462,0.027,0.706-0.516,0.924-0.951c0.245-0.625,0.625-1.223,1.195-1.549c1.359-0.815,3.505-0.163,4.32-1.522
		c0.19-0.353,0.272-0.788,0.516-1.087c0.326-0.408,0.869-0.516,1.331-0.734c0.897-0.38,1.549-1.195,1.793-2.146
		c-0.19-0.054-0.408-0.109-0.625-0.19c-4.293-1.223-8.015-4.211-10.243-8.151c-1.576,0.299-3.206,0.625-4.782,0.897
		c0.109,1.467,1.386,2.799,2.282,4.103C22.292,11.338,22.971,13.186,23.161,15.142z"/>
</g>
<g>
	<path class="st5" d="M67.259,31.2c-1.06-0.136-1.956-0.408-2.663-0.788c0.299,0.706,0.598,1.576,0.652,2.418
		c0.027,0.163,0.027,0.326,0.054,0.462c0.163-0.109,0.38-0.163,0.543-0.272c1.549-0.625,2.853-1.195,3.994-1.956
		C68.699,31.336,67.83,31.2,67.259,31.2z"/>
	<path class="st5" d="M68.862,22.886c-0.136-0.027-0.19,0-0.19,0s-0.924,0.054-1.929-0.082c-0.706-0.027-1.494-0.217-1.983-0.353
		c0.408,0.598,0.706,1.304,0.842,2.119c0.109,0.815,0.081,1.44-0.19,2.146c-0.054,0.543-0.571,0.462-0.734,0.625
		c-0.245,0.054-0.38,0.081-0.38,0.081s-1.195,0.326-2.554,0.408c-0.163,0.027-0.353,0.027-0.516,0.027
		c0.326,0.109,0.598,0.19,0.924,0.245c-0.027-0.054-0.082-0.081-0.109-0.19c0.054,0.082,0.163,0.163,0.245,0.245
		c0.027,0,0.081,0.027,0.081,0.027c0.217,0.163,0.435,0.245,0.625,0.353c0.054,0.027,0.082,0.027,0.109,0.054
		c0.027,0.054,0.054,0.054,0.054,0.054l0.054,0.027c0.435,0.163,0.87,0.326,1.304,0.408c0.87,0.272,1.739,0.543,2.907,0.625
		c0.571,0.082,1.983,0.163,3.206-0.462l0.109-0.027c0.082-0.054,0.163-0.081,0.163-0.081s0.163-0.163,0.217-0.217
		c0.734-0.734,0.571-1.522,0.571-1.848C71.389,25.195,70.248,24.081,68.862,22.886z"/>
	<path class="st5" d="M58.564,27.559c-0.081,0.272-0.163,0.489-0.272,0.761c0.353,0.516,0.842,2.337,0.408,3.994
		c-0.217,0.842-0.462,1.494-0.951,2.119c-0.109,0.217-0.408,0.217-0.571,0.326c-0.136,0.054-0.217,0.054-0.299,0.081
		c-0.163,0.082-0.217,0.082-0.217,0.082s-0.543,0.163-1.359,0.245c0,0.19,0.054,0.326,0.082,0.489
		c0.788-0.054,1.413-0.217,2.282-0.19c0.571,0,2.146,0.027,3.614-0.054c0.652-0.054,1.277-0.109,1.766-0.163
		c0.082-0.163,0.217-0.299,0.353-0.435c0.054-0.462,0.081-1.114,0-1.766c-0.163-1.277-0.924-2.581-1.141-2.989
		c-0.462-0.761-0.489-1.467-1.033-2.201C60.113,27.885,59.026,27.722,58.564,27.559z"/>
	<path class="st5" d="M52.967,42.584l0.082-0.027c0.027-0.054,0.109-0.054,0.109-0.054s0.082-0.081,0.136-0.109
		c0.543-0.299,0.761-0.788,0.924-1.087c0.163-0.272,0.245-0.516,0.326-0.679c0.489-1.875,0.571-3.288,0.652-4.945
		c-0.027-0.163-0.027-0.353,0-0.516c-0.489,0.082-1.033,0.082-1.576,0.027c-0.054,0-0.082,0-0.109,0
		c-1.929,1.929-4.13,3.559-6.439,4.999c0.163,0.516,0.435,0.978,0.734,1.331c0.598,0.571,1.223,1.168,2.201,1.494
		C50.495,43.182,51.745,43.372,52.967,42.584z"/>
	<path class="st5" d="M57.586,36.58c-0.951-0.163-1.467-0.435-2.146-0.761c0.326,1.522,0.761,2.934,0.217,5.135
		c-0.136,0.435-0.299,1.25-1.467,2.5c-0.054,0.081-0.217,0.217-0.217,0.217s-0.081,0-0.109,0.054l-0.136,0.109
		c-1.657,1.06-3.396,0.869-4.184,0.598c-1.467-0.435-2.282-1.44-2.608-2.5c-0.136-0.516-0.19-1.005-0.19-1.522
		c-0.136,0.109-0.272,0.163-0.353,0.217c0.054,0.217,0.136,0.435,0.163,0.652c0.136,0.516,0.38,2.119,0.217,3.614
		c0,0.19-0.027,0.408-0.027,0.571c0.353-0.272,0.706-0.435,1.114-0.543c1.087-0.217,1.657-0.109,1.657-0.109
		s0.543,0.054,1.331,0.163c0.788,0.082,1.902,0.163,3.288-0.136c2.636-0.489,6.304-2.717,7.662-6.467
		c0.19-0.462,0.326-0.978,0.516-1.549c-0.326,0-0.598,0.027-0.978,0.027C59.787,36.906,58.13,36.716,57.586,36.58z"/>
	<path class="st5" d="M45.93,40.9c-0.462,0.299-0.951,0.571-1.386,0.842c-1.25,0.706-2.527,1.44-3.804,2.119
		c-0.136,0.299-0.299,0.543-0.489,0.815c-0.543,0.734-1.141,1.223-1.657,1.522c0.462,0.516,1.06,0.652,1.685,0.978
		c0.326,0.272,1.63,0.897,2.907,0.706c0.978-0.054,1.685-0.516,1.956-0.734c0,0,0-0.027,0.054-0.027
		c0.054-0.054,0.054-0.081,0.054-0.081c0.054-0.163,0.163-0.299,0.299-0.408c0-0.054,0-0.081,0.027-0.109
		c0.163-0.489,0.299-1.06,0.353-1.712c0.217-1.386,0.109-2.934,0.054-3.424C45.957,41.226,45.957,41.063,45.93,40.9z"/>
	<path class="st5" d="M39.518,48.317c-0.788-0.625-0.924-1.331-1.06-2.065c-0.326,0.163-0.571,0.272-0.571,0.272
		s-0.869,0.435-2.011,0.38c-0.027,1.929,0.272,3.451-1.005,5.733c-0.136,0.19-0.299,0.462-0.625,0.788
		c-0.027,0.054-0.082,0.081-0.19,0.163c1.032-0.272,2.228-0.435,3.396-0.435c2.174,0.027,4.13,0.136,5.108-1.005
		c0.788-0.815,1.223-1.983,1.685-3.097c-0.272,0.054-0.571,0.163-0.924,0.163C41.664,49.459,39.98,48.698,39.518,48.317z"/>
	<path class="st5" d="M35.823,46.905c-0.299,0-0.625-0.054-0.924-0.109c-0.136-0.054-0.19-0.081-0.299-0.136h-0.027h-0.027
		c-0.027,0-0.054,0.027-0.109,0H34.41h-0.027h-0.027c-1.848,0.734-3.641,1.331-5.57,1.739c-0.516,0.489-1.005,0.761-1.005,0.761
		c-0.163,0.625-0.082,1.223,0.054,1.766c0.272,0.761,0.598,1.522,1.44,2.092c0.462,0.326,1.603,0.897,2.907,0.408h0.027l0.027-0.027
		c1.195-0.38,1.603-1.06,1.82-1.304C35.333,50.301,35.551,48.779,35.823,46.905z"/>
	<path class="st5" d="M23.922,49.133c-0.815,0-1.63-0.109-2.391-0.326c0.027,0.516-0.054,0.978-0.408,1.522
		c-0.109,0.163-0.462,0.625-1.005,0.951c0.027,0.136,0.027,0.245,0.081,0.408c0.027,0.245,0.163,0.679,0.326,1.114
		c0.136,0.489,0.408,0.924,0.788,1.195c0.734,0.652,1.793,0.326,1.793,0.326s0.245-0.027,0.571-0.19
		c0.353-0.163,0.897-0.38,1.25-0.842c0.326-0.435,0.706-0.951,0.897-1.467c0.245-0.516,0.326-0.951,0.353-1.168
		c0.109-0.353,0.217-0.652,0.272-0.951c-0.326,0.081-0.761,0.109-1.195,0.054C24.764,49.649,24.275,49.431,23.922,49.133z"/>
	<path class="st5" d="M20.824,13.186c0.136,0.299,0.217,0.625,0.38,0.978c0.245,0.598,0.516,1.359,0.761,2.147
		c0.462,1.549,0.869,3.369,0.706,5.298c0,0.978-0.299,1.902-0.299,2.5c0.081-0.027,0.163-0.081,0.245-0.136
		c-0.109,0.082-0.163,0.163-0.245,0.245v0.027c-0.027,0.054-0.082,0.136-0.163,0.19c0.299,0.272,0.571,0.516,0.869,0.788
		c0.462-1.657,2.065-2.907,3.831-2.989c0.571-0.027,1.25,0.027,1.685-0.353c0.462-0.489,0.353-1.25,0.706-1.793
		c0.462-0.788,1.494-0.924,2.364-1.141c0.788-0.217,1.712-0.543,2.364-1.141c-0.027,0-0.027-0.027-0.027-0.027h0.027v0.027h0.027
		v-0.027c0.163-0.136,0.299-0.245,0.38-0.435c-0.136,0.109-0.38-0.897-0.299-1.087c0.163-0.543,1.087-0.625,1.494-0.869
		c0.516-0.38,0.408-1.223,0-1.685c-0.299-0.299-0.706-0.489-1.087-0.625c-0.245,0.951-0.897,1.766-1.793,2.146
		c-0.462,0.217-1.005,0.326-1.331,0.734c-0.245,0.299-0.326,0.734-0.516,1.087c-0.815,1.359-2.962,0.706-4.32,1.522
		c-0.571,0.326-0.951,0.924-1.195,1.549c-0.217,0.435-0.462,0.978-0.924,0.951c-0.38-0.027-0.625-0.408-0.761-0.761
		c-0.625-1.63-0.38-3.451-0.543-5.162c-0.19-1.956-0.869-3.804-1.983-5.407c-0.897-1.304-2.174-2.636-2.282-4.103
		c-0.435,0.109-0.869,0.163-1.331,0.272c0.951,1.793,1.929,3.641,2.771,5.896C20.444,12.072,20.634,12.561,20.824,13.186z"/>
	<path class="st5" d="M80.192,17.424c-0.299-1.549-1.141-3.315-2.445-4.836c-1.331-1.522-2.989-2.608-4.782-3.233
		c-1.793-0.652-3.478-0.897-4.701-0.951c-1.25-0.054-1.983-0.027-1.983-0.027S62.64,8.512,58.32,9.735
		c-4.293,1.196-9.401,3.016-12.58,3.641c-1.44,0.299-2.146,0.353-2.581,0.435c-2.119,0.217-3.532,0.163-5.054-0.408
		c-0.081,0-0.163-0.027-0.245-0.054c-0.027,0-0.027,0-0.054,0c0.408,0.353,0.571,1.005,0.462,1.603
		c-0.136,0.706-0.706,1.331-1.304,1.793c-0.326,0.217-0.679,0.435-0.951,0.761c-0.272,0.408-0.435,0.815-0.598,1.25
		c-0.571,1.196-1.82,2.065-3.125,2.174c-0.435,0.027-1.005,0-1.277,0.38c-0.163,0.19-0.217,0.462-0.245,0.734
		c-0.299,1.033-1.168,1.875-2.228,2.065c-0.788,0.136-1.739-0.054-2.473,0.353c-0.761,0.462-1.005,1.44-1.63,2.038
		c-0.978,0.897-2.744,0.652-3.424-0.489h-0.027c-0.625,0.842-1.195,1.685-2.092,2.744c-0.217,0.326-0.652,0.897-1.494,2.038
		c-1.685,2.554-4.673,6.793-6.657,10.624c-2.065,3.831-2.663,7.309-2.663,7.309s-0.163,0.734-0.326,1.929
		c-0.109,1.168-0.163,2.853,0.081,4.646c0.326,1.793,0.951,3.831,2.092,5.244c1.114,1.44,2.88,2.092,4.456,2.445
		c1.82,0.489,2.962,0.598,3.532,0.706c0.897,0.054,1.657,0.163,3.016,0.299c0.435,0.027,0.951,0.136,1.522,0.136
		c-0.136-0.272-0.19-0.543-0.299-0.706c-0.625-1.386-0.869-2.5-1.06-3.641c-2.174-0.109-3.695-1.168-4.565-2.826
		c1.549,0.679,2.663,0.788,4.103,0.788c0-0.054-0.027-0.109-0.027-0.136c0.054,0.027,0.054,0.109,0.081,0.136
		c0.435,0,0.842,0,1.359,0c0.652-0.027,1.929-0.163,3.424-0.652c1.467-0.462,3.097-1.304,4.891-2.119
		c-0.897-0.136-1.576-0.489-1.902-0.734c-1.196-0.897-1.685-2.147-1.63-3.152c-0.054,0.679-0.272,1.929-1.033,2.962
		c-0.489,0.571-1.005,1.087-1.494,1.331c-0.516,0.245-0.869,0.326-0.869,0.326s-0.326,0.109-0.924,0.109
		c-0.543,0.082-1.386-0.081-2.119-0.598c-0.679-0.543-1.087-1.331-1.25-1.984c-0.136-0.706-0.082-1.223-0.082-1.467
		c0.027-0.027,0.027-0.082,0.027-0.109c-0.109,0.027-0.272,0.027-0.462,0.027c-0.652,0-1.25-0.19-1.603-0.435
		c-0.38-0.272-0.543-0.462-0.543-0.462s-0.924-0.788-1.223-2.065c-0.299-1.223,0.245-2.527,0.489-2.88
		c0.353-0.706,0.734-1.005,1.277-1.359c-0.326,0.571-0.462,0.978-0.679,1.603c-0.136,0.38-0.408,1.467-0.163,2.445
		c0.19,0.978,0.897,1.603,0.897,1.603s0.652,0.625,1.603,0.842c0.19,0.027,0.38,0.054,0.571,0.027
		c0.272-0.027,0.543-0.082,0.734-0.19c0.489-0.19,0.842-0.489,0.978-0.652c0.353-0.489,0.516-0.842,0.516-1.359
		c-0.652-0.19-1.277-0.462-1.848-0.842c-1.25-0.815-2.092-2.065-2.554-3.478c-0.543-1.739-0.516-3.722,0.027-5.434
		c0.951-2.989,3.125-5.434,5.434-7.608c0-0.054,0-0.054,0-0.054c0.054-0.706,0.163-1.141,0.38-1.712
		c0.027,0.462,0.081,0.815,0.19,1.195c6.738-6.195,14.618-11.412,23.476-13.83c2.771-0.761,5.733-1.25,8.532-0.571
		c1.494,0.353,2.962,1.141,3.722,2.473v0.027c0,0,0,0,0.027,0c0.408-0.082,0.869-0.19,1.277-0.299
		c0.598-0.109,0.978-0.326,0.978-0.435c-0.109-0.081-0.109-0.136-0.136-0.136c0,0,0-0.109-0.163-0.435s-0.435-0.706-0.815-1.06
		c-0.734-0.734-1.712-1.304-2.065-1.494c-0.598-0.353-0.924-0.788-1.603-1.087c0.679-0.217,1.25-0.516,2.146-0.326
		c0.217,0.081,0.761,0.163,1.25,0.462c0.516,0.326,1.087,0.734,1.549,1.223c0.435,0.543,0.815,1.087,1.005,1.522
		c0.272,0.435,0.326,0.897,0.326,0.897c-0.054-0.054,0.19,0.489-0.326,1.168c-0.489,0.652-1.277,0.815-1.848,0.924
		c-0.353,0.082-0.761,0.163-1.141,0.245c0.136,0.516,0.19,1.087,0.217,1.603c0.081,1.657-0.163,3.288-0.652,4.864
		c0.598,0.082,1.739,0.163,2.771,0c1.223-0.109,2.255-0.543,2.255-0.543c0.054,0,0.054,0,0.054,0
		c0.027-0.163,0.163-0.788,0.027-1.223c-0.163-1.06-1.005-1.956-1.25-2.228c-0.435-0.543-0.679-1.005-1.386-1.386
		c0.761-0.19,1.44-0.326,2.391,0.163c0.081,0.027,0.163,0.082,0.245,0.19c0.163,0.027,0.299,0.027,0.462,0.054
		c0.353,0.027,1.413,0.136,2.337,0.109c0.951,0.027,1.82-0.027,1.82-0.027s0.245-0.054,0.571-0.081c0.326,0,0.761-0.082,0.869-0.245
		c0.136-0.136-0.136-0.734-0.326-1.06c-0.027-0.027-0.027-0.054-0.027-0.054c-0.272-0.109-0.435-0.272-0.652-0.435
		c0.109,0,0.19-0.027,0.299-0.054c-0.19-0.462-0.272-0.897-0.245-1.331c0.435,0.435,0.897,0.353,1.413,0.788
		c0.027,0.082,0.19,0.217,0.353,0.38c0.326,0.027,0.761,0.027,1.141-0.027c0.652-0.109,1.168-0.462,1.168-0.462
		s0.462-0.245,0.788-0.842c0.272-0.598,0.245-1.304,0.19-1.494c-0.136-0.38-0.136-0.652-0.435-1.032
		c0.462,0.027,0.897,0.19,1.141,0.761c0.163,0.326,0.299,1.304-0.081,2.146c-0.299,0.815-1.087,1.304-1.087,1.304
		s-0.652,0.462-1.522,0.598c-0.299,0.027-0.543,0.027-0.842,0.054c0.136,0.489,0.081,1.168-0.435,1.657
		c-0.679,0.571-1.277,0.462-1.63,0.516c-0.027,0.054-0.081,0-0.109,0.054c0.706,0.326,1.359,0.598,1.983,1.087
		c0.788,0.625,1.657,1.494,1.848,2.989c0.054,0.272,0.081,0.571,0.027,1.087c0,0,0,0.027,0,0.081
		c0.136-0.136,0.19-0.299,0.326-0.435c0.353-0.489,0.652-0.897,0.788-1.168c1.087-2.201,1.685-3.532,1.983-5.624
		c0.027,1.44,0.027,2.663-0.326,4.048c1.168,0.326,2.174,0.734,3.179,1.413c-0.299-2.255,0.87-3.722,1.25-5.624
		C80.274,20.169,80.546,19.136,80.192,17.424z M15.825,59.43c-0.163,0.679-0.652,1.386-0.652,1.386s-0.109,0.19-0.408,0.408
		c-0.272,0.272-0.842,0.462-1.331,0.435c-1.06-0.054-1.739-0.951-1.875-1.277c-0.245-0.598-0.027-1.114,0.299-1.413
		c0.19,0.435,0.516,0.571,0.706,0.761c0.081,0.054,0.163,0.217,0.38,0.272c0.163,0.109,0.435,0.163,0.598,0.19
		c0.38,0.136,0.652-0.163,0.652-0.19c0,0,0.353-0.299,0.571-0.951c0.272-0.598,0.462-1.304,0.516-1.522
		c0.082-0.435,0.299-0.734,0.435-1.114c0.19,0.38,0.353,0.679,0.353,1.168C16.097,57.854,16.069,58.697,15.825,59.43z
		 M15.906,50.274c-0.245,0.489-0.245,0.87-0.516,1.386c-0.19,0.272-0.652,1.331-1.766,1.82c-1.005,0.489-2.011,0.272-2.011,0.272
		s-0.245-0.082-0.625-0.19c-0.38-0.136-0.869-0.435-1.223-0.897c-0.761-0.924-0.679-2.282-0.489-2.608
		c0.326-0.679,0.652-1.005,1.168-1.223c-0.163,0.516-0.19,0.924-0.136,1.386c0,0.272,0,1.141,0.435,1.685
		c0.38,0.543,1.114,0.706,1.114,0.706s0.679,0.19,1.386-0.082c0.652-0.217,1.168-1.06,1.359-1.331
		C14.955,50.708,15.417,50.518,15.906,50.274z M69.704,15.848c-0.163,0.136-0.38,0.408-0.706,0.598
		c-0.353,0.217-0.788,0.38-1.168,0.543c-0.897,0.299-1.712,0.326-1.712,0.326s-0.761,0.136-1.685-0.027
		c-0.408-0.109-0.869-0.245-1.223-0.353c-0.353-0.136-0.625-0.272-0.897-0.489c-0.163-0.136-0.408-0.245-0.38-0.326
		c0.163-0.136,0.217-0.19,0.38-0.299c0.489-0.19,0.571-0.136,0.815-0.217c-0.082,0.109-0.272,0.245-0.353,0.38
		c0.027,0,0.109,0.027,0.136,0.027c0.054,0.027,0.299,0.081,0.543,0.163c0.326,0.081,0.679,0.163,1.114,0.19
		c0.734,0.054,1.44-0.027,1.44-0.027s0.706-0.082,1.413-0.353c0.761-0.299,1.44-0.706,1.712-0.815
		c0.435-0.299,0.788-0.326,1.223-0.571C70.166,15.033,70.139,15.468,69.704,15.848z"/>
</g>
<g>
	<path class="st6" d="M62.314,15.821c-0.163,0.109-0.217,0.163-0.38,0.299c-0.027,0.082,0.217,0.19,0.38,0.326
		c0.272,0.217,0.543,0.353,0.897,0.489c0.353,0.109,0.815,0.245,1.223,0.353c0.924,0.163,1.685,0.027,1.685,0.027
		s0.815-0.027,1.712-0.326c0.38-0.163,0.815-0.326,1.168-0.543c0.326-0.19,0.543-0.462,0.706-0.598
		c0.435-0.38,0.462-0.815,0.652-1.25c-0.435,0.245-0.788,0.272-1.223,0.571c-0.272,0.109-0.951,0.516-1.712,0.815
		c-0.706,0.272-1.413,0.353-1.413,0.353s-0.706,0.081-1.44,0.027c-0.435-0.027-0.788-0.109-1.114-0.19
		c-0.245-0.082-0.489-0.136-0.543-0.163c-0.027,0-0.109-0.027-0.136-0.027c0.081-0.136,0.272-0.272,0.353-0.38
		C62.885,15.685,62.803,15.631,62.314,15.821z"/>
	<path class="st6" d="M82.285,16.962c-0.38-1.848-1.413-3.967-2.989-5.733c-1.522-1.712-3.641-3.125-5.679-3.804
		c-2.011-0.679-3.913-0.897-5.244-0.978c-1.359-0.054-2.174,0-2.174,0s-3.94,0.136-8.396,1.549
		c-4.429,1.331-9.292,3.315-12.39,3.994c-1.359,0.38-2.065,0.462-2.445,0.543c-2.065,0.353-3.342,0.706-5.027,0.625
		c-0.081,0-0.163-0.027-0.272-0.081c0.109-0.027,0.109-0.054,0.136-0.109c0.027-0.245-0.109-0.435-0.272-0.571
		c-1.087-1.033-2.636-1.386-4.021-1.956c-4.076-1.603-7.445-5.027-8.994-9.157c-0.924,1.195-2.527,1.603-3.994,2.038
		c-0.489,0.136-0.978,0.326-1.386,0.571c-0.978,0.435-1.766,1.087-2.065,2.065c0.109-0.027,0.245-0.027,0.326-0.054
		c0.353,2.038,0.462,4.184,1.277,6.467c0.054,0.326,0.245,0.815,0.489,1.413c0.082,0.326,0.19,0.598,0.326,0.978
		c0.19,0.598,0.462,1.359,0.652,2.065c0.38,1.467,0.734,3.07,0.625,4.646c-0.054,0.788-0.326,1.576-0.38,2.744
		c0,0.326,0.081,0.652,0.217,0.978c-0.978,0.652-1.875,1.467-2.799,2.663c-0.299,0.326-0.761,0.897-1.603,2.092
		c-1.766,2.527-4.836,6.711-6.929,10.732c-2.174,3.913-2.934,7.689-2.934,7.689s-0.136,0.761-0.326,2.092
		c-0.163,1.277-0.299,3.097,0,5.135c0.326,2.011,0.924,4.266,2.391,6.141c1.522,1.983,3.804,2.771,5.488,3.233
		c1.875,0.516,3.152,0.679,3.804,0.761c2.119,0.272,3.614-0.163,4.999-1.005c-0.109-0.217-0.217-0.408-0.245-0.598
		c-0.571,0-1.087-0.109-1.522-0.136c-1.359-0.136-2.119-0.245-3.016-0.299c-0.571-0.109-1.712-0.217-3.532-0.706
		c-1.576-0.353-3.342-1.005-4.456-2.445c-1.141-1.413-1.766-3.451-2.092-5.244c-0.245-1.793-0.19-3.478-0.081-4.646
		c0.163-1.196,0.326-1.929,0.326-1.929s0.598-3.478,2.663-7.309c1.983-3.831,4.972-8.07,6.657-10.624
		c0.842-1.141,1.277-1.712,1.494-2.038c0.897-1.06,1.467-1.902,2.092-2.744h0.027c0.679,1.141,2.445,1.386,3.424,0.489
		c0.625-0.598,0.87-1.576,1.63-2.038c0.734-0.408,1.685-0.217,2.473-0.353c1.06-0.19,1.929-1.032,2.228-2.065
		c0.027-0.272,0.081-0.543,0.245-0.734c0.272-0.38,0.842-0.353,1.277-0.38c1.304-0.109,2.554-0.978,3.125-2.174
		c0.163-0.435,0.326-0.842,0.598-1.25c0.272-0.326,0.625-0.543,0.951-0.761c0.598-0.462,1.168-1.087,1.304-1.793
		c0.109-0.598-0.054-1.25-0.462-1.603c0.027,0,0.027,0,0.054,0c0.081,0.027,0.163,0.054,0.245,0.054
		c1.522,0.571,2.934,0.625,5.054,0.408c0.435-0.081,1.141-0.136,2.581-0.435c3.179-0.625,8.287-2.445,12.58-3.641
		c4.32-1.223,7.961-1.359,7.961-1.359s0.734-0.027,1.983,0.027c1.223,0.054,2.907,0.299,4.701,0.951
		c1.793,0.625,3.451,1.712,4.782,3.233c1.304,1.522,2.146,3.288,2.445,4.836c0.353,1.712,0.081,2.744,0,3.288
		c-0.38,1.902-1.549,3.369-1.25,5.624c-0.027,0.054,0,0.109,0,0.19c0-0.027,0.027-0.109,0.054-0.136
		c0.978-1.793,2.554-2.31,3.288-5.19C82.448,20.467,82.746,19.082,82.285,16.962z M35.632,15.387
		c-0.408,0.245-1.331,0.326-1.494,0.869c-0.081,0.19,0.163,1.195,0.299,1.087c-0.081,0.19-0.217,0.299-0.38,0.435v0.027h-0.027
		c-0.652,0.598-1.576,0.924-2.364,1.141c-0.869,0.217-1.902,0.353-2.364,1.141c-0.353,0.543-0.245,1.304-0.706,1.793
		c-0.435,0.38-1.114,0.326-1.685,0.353c-1.766,0.081-3.369,1.331-3.831,2.989c-0.299-0.272-0.571-0.516-0.869-0.788
		c0.081-0.054,0.136-0.136,0.163-0.19v-0.027c0.081-0.082,0.136-0.163,0.245-0.245c-0.081,0.054-0.163,0.109-0.245,0.136
		c0-0.598,0.299-1.522,0.299-2.5c0.163-1.929-0.245-3.75-0.706-5.298c-0.245-0.788-0.516-1.549-0.761-2.147
		c-0.163-0.353-0.245-0.679-0.38-0.978c-0.19-0.625-0.38-1.114-0.489-1.386c-0.842-2.255-1.82-4.103-2.771-5.896
		c0.462-0.109,0.897-0.163,1.331-0.272c1.576-0.272,3.206-0.598,4.782-0.897c2.228,3.94,5.95,6.929,10.243,8.151
		c0.217,0.081,0.435,0.136,0.625,0.19c0.38,0.136,0.788,0.326,1.087,0.625C36.04,14.164,36.149,15.006,35.632,15.387z"/>
	<path class="st6" d="M34.002,17.778c0,0,0,0.027,0.027,0.027v-0.027H34.002z"/>
	<path class="st6" d="M22.916,29.678c-0.217,0.571-0.326,1.005-0.38,1.712c0,0,0,0,0,0.054c0,0.027,0,0.054,0,0.109
		c0,0.462,0.272,1.82,1.141,2.799c0.435,0.625,1.44,0.761,1.82,0.516c0.462-0.163,0.679-0.299,0.679-0.299s1.032-0.489,1.875-1.359
		c0.87-0.815,1.549-1.902,1.712-2.31c0.38-0.706,0.353-1.195,0.516-1.82c-0.245,0.625-0.543,0.978-0.897,1.603
		c-0.245,0.326-0.924,1.331-1.793,2.038c-0.815,0.734-1.766,1.141-1.766,1.141s-0.217,0.136-0.543,0.245
		c-0.326,0.081-0.598,0.054-0.924-0.353c-0.598-0.788-1.005-1.929-1.06-2.31c-0.054-0.217-0.136-0.38-0.19-0.543v-0.027
		C22.998,30.493,22.944,30.14,22.916,29.678z"/>
	<path class="st6" d="M20.471,36.145c-0.571,0.706-1.005,1.141-1.467,2.119c-0.272,0.516-0.951,2.201-0.761,3.913
		c0.054,1.603,1.005,2.962,1.141,2.989c0,0,0.082,0.054,0.19,0.163c0.109,0.082,0.245,0.217,0.408,0.353
		c0.163,0.082,0.353-0.081,0.571-0.19c0.571-0.408,1.087-0.842,1.657-1.413c1.141-1.087,2.038-2.636,2.282-3.125
		c0.435-0.87,0.516-1.467,0.679-2.201c-0.272,0.706-0.598,1.168-1.06,2.011c-0.272,0.462-1.168,1.848-2.31,2.853
		c-0.571,0.462-1.195,0.924-1.576,1.141c-0.054-0.109-0.082-0.19-0.082-0.19s-0.163-0.299-0.353-0.679
		c-0.217-0.462-0.408-1.114-0.435-1.793c-0.136-1.413,0.435-2.989,0.543-3.478C20.199,37.639,20.281,37.014,20.471,36.145z"/>
	<path class="st6" d="M74.106,26.499c-0.136,0.272-0.435,0.679-0.788,1.168c-0.136,0.136-0.19,0.299-0.326,0.435
		c0-0.054,0-0.081,0-0.081c0.054-0.516,0.027-0.815-0.027-1.087c-0.19-1.494-1.06-2.364-1.848-2.989
		c-0.625-0.489-1.277-0.761-1.983-1.087c0.027-0.054,0.081,0,0.109-0.054c0.353-0.054,0.951,0.054,1.63-0.516
		c0.516-0.489,0.571-1.168,0.435-1.657c0.299-0.027,0.543-0.027,0.842-0.054c0.869-0.136,1.522-0.598,1.522-0.598
		s0.788-0.489,1.087-1.304c0.38-0.842,0.245-1.82,0.081-2.146c-0.245-0.571-0.679-0.734-1.141-0.761
		c0.299,0.38,0.299,0.652,0.435,1.032c0.054,0.19,0.081,0.897-0.19,1.494c-0.326,0.598-0.788,0.842-0.788,0.842
		s-0.516,0.353-1.168,0.462c-0.38,0.054-0.815,0.054-1.141,0.027c-0.163-0.163-0.326-0.299-0.353-0.38
		c-0.516-0.435-0.978-0.353-1.413-0.788c-0.027,0.435,0.054,0.869,0.245,1.331c-0.109,0.027-0.19,0.054-0.299,0.054
		c0.217,0.163,0.38,0.326,0.652,0.435c0,0,0,0.027,0.027,0.054c0.19,0.326,0.462,0.924,0.326,1.06
		c-0.109,0.163-0.543,0.245-0.869,0.245c-0.326,0.027-0.571,0.081-0.571,0.081s-0.869,0.054-1.82,0.027
		c-0.924,0.027-1.983-0.082-2.337-0.109c-0.163-0.027-0.299-0.027-0.462-0.054c-0.081-0.109-0.163-0.163-0.245-0.19
		c-0.951-0.489-1.63-0.353-2.391-0.163c0.706,0.38,0.951,0.842,1.386,1.386c0.245,0.272,1.087,1.168,1.25,2.228
		c0.136,0.435,0,1.06-0.027,1.223c0,0,0,0-0.054,0c0,0-1.033,0.435-2.255,0.543c-1.032,0.163-2.174,0.082-2.771,0
		c-0.082,0-0.19,0-0.245,0c-0.38-0.054-0.679-0.054-1.005-0.054c0.136-0.109,0.19-0.19,0.163-0.217c0,0,0.462-0.652,0.489-1.114
		c0.245-1.25,0-2.174-0.299-2.853c-0.299-0.734-0.679-1.141-0.924-1.44c-0.217-0.19-0.38-0.38-0.598-0.489
		c0.353,0.054,0.706,0.054,1.141,0c0.272-0.027,0.978-0.163,1.712-0.299c0.38-0.082,0.788-0.163,1.141-0.245
		c0.571-0.109,1.359-0.272,1.848-0.924c0.516-0.679,0.272-1.223,0.326-1.168c0,0-0.054-0.462-0.326-0.897
		c-0.19-0.435-0.571-0.978-1.005-1.522c-0.462-0.489-1.033-0.897-1.549-1.223c-0.489-0.299-1.032-0.38-1.25-0.462
		c-0.897-0.19-1.467,0.109-2.146,0.326c0.679,0.299,1.005,0.734,1.603,1.087c0.353,0.19,1.331,0.761,2.065,1.494
		c0.38,0.353,0.652,0.734,0.815,1.06s0.163,0.435,0.163,0.435c0.027,0,0.027,0.054,0.136,0.136c0,0.109-0.38,0.326-0.978,0.435
		c-0.408,0.109-0.87,0.217-1.277,0.299c-0.027,0-0.027,0-0.027,0c-0.679,0.19-1.223,0.326-1.494,0.435
		c-0.571,0.217-0.951,0.489-1.359,0.706c-0.788-0.435-1.576-0.543-2.282-0.598c-1.032,0-1.956,0.217-3.016,0.326
		c2.119,0.245,3.559,1.114,4.999,2.364c0.163,0.163,0.435,0.408,0.625,0.87c0.19,0.462,0.353,1.06,0.19,1.766
		c0,0.217-0.19,0.571-0.19,0.571c-0.027,0-0.19,0.462-0.38,0.543c-0.897,0.625-1.685,0.625-2.038,0.652
		c-1.494,0.136-2.581,0.163-3.695,0.109c-0.136-0.326-0.299-0.598-0.408-0.706c-0.543-0.842-1.277-1.06-1.983-1.44
		c0.272,0.598,0.245,1.168,0.408,1.793c-0.081,0-0.163-0.027-0.245-0.027c0.109,0.027,0.217,0.054,0.272,0.081
		c0.027,0.136,0.027,0.272,0.109,0.408c0.163,0.38,0.761,1.685,0.897,2.853c0.163,1.168-0.516,1.766-0.462,1.848
		c0,0-0.163,0.136-0.38,0.326c-0.027-0.027-0.054-0.054-0.136-0.054c0,0.027,0.027,0.081,0,0.136
		c-0.299,0.245-0.734,0.435-1.331,0.543c-1.141,0.163-2.473-0.489-2.88-0.706c-0.136-0.109-0.272-0.163-0.435-0.245v-0.027
		c-0.109-0.38-0.217-0.706-0.326-0.869c-0.353-0.815-0.842-1.25-1.386-1.603v-0.027c0.326-0.435,0.897-1.168,1.141-2.174
		c0.462-1.467,0.136-3.179-0.082-3.641c-0.408-0.924-0.815-1.386-1.386-1.902c0.516,0.598,0.706,1.141,0.897,2.011
		c0.136,0.489,0.326,2.038-0.136,3.288c-0.408,1.304-1.386,2.119-1.386,2.119s-0.869,0.869-2.174,1.087
		c-0.625,0.081-1.277,0.027-1.766-0.245c-0.462-0.163-0.734-0.543-0.869-0.679c-0.516-0.598-0.897-1.06-0.815-1.875
		c-0.408,0.679-0.571,1.44,0,2.473c0.163,0.245,0.571,0.761,1.25,1.032c0.706,0.326,1.603,0.38,2.364,0.245
		c0.815-0.163,1.467-0.516,1.956-0.788c0.408-0.38,0.679-0.625,0.679-0.625s0-0.027,0.054-0.027c0.136,0.598,0.163,1.114,0.353,1.82
		c0.136,0.435,0.571,1.875,0.462,3.288c-0.027,1.359-0.489,2.554-0.489,2.554s-0.136,0.272-0.272,0.761
		c-0.054,0.054-0.109,0.272-0.109,0.272c-0.054,0-0.054,0.054-0.082,0.054c-0.353,0.054-0.652,0.081-1.005,0.081
		c-1.359,0.027-2.826-0.543-3.26-0.788c-0.869-0.38-1.386-0.679-1.983-1.277c0.109,0.163,0.217,0.326,0.326,0.489
		c0.326,0.462,0.679,0.869,1.277,1.413c0.38,0.326,1.82,1.033,3.315,1.114c0.082,0.679-0.163,1.195-0.081,1.956
		c0.054,0.435-0.054,1.956-0.761,2.989c-0.272,0.38-0.543,0.679-0.815,0.897c-0.543,0.489-1.005,0.679-1.005,0.679
		s-0.462,0.245-1.141,0.326c-0.027,0-0.054,0-0.082,0.054c-0.38,0.027-0.761,0.054-1.195-0.054c-1.277-0.19-2.337-1.386-2.527-1.82
		c-0.163-0.326-0.353-0.598-0.435-0.897c0.435-0.19,0.869-0.516,1.195-0.869c1.25-1.331,1.522-3.125,1.603-3.641
		c0.109-0.842,0.027-1.386-0.109-2.011c-0.027-0.136-0.054-0.272-0.081-0.435c-0.217,0.761-0.435,1.304-0.706,2.228
		c-0.109,0.489-0.543,2.119-1.576,2.907c-0.462,0.353-1.06,0.38-1.44,0.408c-0.38,0.081-0.598,0-0.598,0s-0.299,0-0.652-0.163
		c-0.38-0.163-0.842-0.462-1.223-0.951c-0.38-0.462-0.625-1.032-0.788-1.576c-0.19-0.516-0.19-1.005-0.217-1.277
		c-0.081-0.897-0.245-1.494-0.081-2.364c-0.489,0.679-1.005,1.195-1.223,2.31c-0.109,0.272-0.109,0.87-0.081,1.657
		c0.109,0.761,0.435,1.657,1.06,2.337c0.571,0.734,1.277,1.223,1.902,1.44c0.489,0.19,0.842,0.245,0.978,0.245
		c-0.027,0.245-0.109,0.489-0.136,0.788c-0.027,0.435-0.245,1.793-0.842,2.826c-0.571,1.087-1.576,1.494-1.576,1.494
		s-0.326,0.109-0.788,0.217c0-0.081,0-0.109-0.027-0.163c0,0.054,0,0.082-0.054,0.163c-0.353,0.054-0.815,0.082-1.223-0.054
		c-0.516-0.082-0.951-0.408-1.195-0.761c-0.245-0.326-0.326-0.761-0.38-0.951c-0.245-0.706-0.435-1.196-0.598-1.929
		c-0.245,0.734-0.489,1.223-0.435,2.146c0.082,0.272,0.19,0.788,0.543,1.304c0.136,0.19,0.299,0.408,0.543,0.598
		c0.353,0.299,0.842,0.516,1.331,0.625c0.435,0.054,0.869,0.027,1.195-0.054c-0.054,0.299-0.163,0.598-0.272,0.951
		c-0.027,0.217-0.109,0.652-0.353,1.168c-0.19,0.516-0.571,1.032-0.897,1.467c-0.353,0.462-0.897,0.679-1.25,0.842
		c-0.326,0.163-0.571,0.19-0.571,0.19s-1.06,0.326-1.793-0.326c-0.38-0.272-0.652-0.706-0.788-1.195
		c-0.163-0.435-0.299-0.869-0.326-1.114c-0.054-0.163-0.054-0.272-0.081-0.408c0.543-0.326,0.897-0.788,1.005-0.951
		c0.353-0.543,0.435-1.005,0.408-1.522c-0.027-0.081-0.027-0.136-0.027-0.245c0,0.109,0,0.163-0.027,0.245
		c0,0.516-0.163,0.87-0.516,1.359c-0.136,0.163-0.489,0.462-0.978,0.652c-0.19,0.109-0.462,0.163-0.734,0.19
		c-0.19,0.027-0.38,0-0.571-0.027c-0.951-0.217-1.603-0.842-1.603-0.842s-0.706-0.625-0.897-1.603
		c-0.245-0.978,0.027-2.065,0.163-2.445c0.217-0.625,0.353-1.032,0.679-1.603c-0.543,0.353-0.924,0.652-1.277,1.359
		c-0.245,0.353-0.788,1.657-0.489,2.88c0.299,1.277,1.223,2.065,1.223,2.065s0.163,0.19,0.543,0.462
		c0.353,0.245,0.951,0.435,1.603,0.435c0.19,0,0.353,0,0.462-0.027c0,0.027,0,0.081-0.027,0.109c0,0.245-0.054,0.761,0.082,1.467
		c0.163,0.652,0.571,1.44,1.25,1.984c0.734,0.516,1.576,0.679,2.119,0.598c0.598,0,0.924-0.109,0.924-0.109s0.353-0.082,0.869-0.326
		c0.489-0.245,1.005-0.761,1.494-1.331c0.761-1.032,0.978-2.282,1.033-2.962c-0.054,1.005,0.435,2.255,1.63,3.152
		c0.326,0.245,1.005,0.598,1.902,0.734c-1.793,0.815-3.424,1.657-4.891,2.119c-1.494,0.489-2.771,0.625-3.424,0.652
		c-0.516,0-0.924,0-1.359,0c-0.027-0.027-0.027-0.109-0.081-0.136c0,0.027,0.027,0.082,0.027,0.136c-1.44,0-2.554-0.109-4.103-0.788
		c0.869,1.657,2.391,2.717,4.565,2.826c0.245,0.082,0.516,0.054,0.842,0.054c0.054,0,0.163,0,0.245,0
		c0.788-0.054,2.255-0.245,3.94-0.788c3.641-1.331,7.391-3.994,11.33-3.967c1.032-0.027,2.092,0.054,3.233-0.109
		c1.141-0.136,2.391-0.652,3.206-1.522c1.549-1.712,1.902-3.587,2.554-4.782c1.168-2.608,2.907-1.956,2.934-2.038
		c0,0,0.38,0.027,1.277,0.109c0.897,0.081,2.255,0.136,3.858-0.217c3.097-0.652,7.146-3.206,8.749-7.608
		c0.299-0.788,0.489-1.576,0.788-2.255c0.054-0.19,0.163-0.408,0.299-0.598c0.217-0.326,0.489-0.625,0.87-0.924
		c0.326-0.299,0.788-0.543,1.277-0.788c1.82-0.734,3.885-1.712,5.353-3.125c0.679-0.652,1.359-1.359,1.82-2.011
		c0.272-0.299,0.435-0.625,0.625-0.869c0.326-0.598,0.571-1.087,0.706-1.413c0.299-0.571,0.489-1.087,0.652-1.576
		c0.027-0.163,0.082-0.299,0.109-0.435c0.353-1.386,0.353-2.608,0.326-4.048C75.791,22.967,75.193,24.299,74.106,26.499z
		 M49.897,32.558c0,0,0.353-0.19,0.652-0.761c0.326-0.598,0.489-1.467,0.435-2.282c-0.082-0.706-0.245-1.44-0.462-2.011
		c0.978,0.353,2.038,0.543,3.451,0.516c0.217,0,0.516-0.027,0.978-0.054c0.38-0.109,0.869-0.163,1.522-0.543
		c0.163,0.489,0.217,0.978,0.408,1.494c0.109,0.245,0.299,0.761,0.408,1.44c0.054,0.516,0.082,1.087-0.027,1.63
		c-0.109,0.625-0.435,1.223-0.598,1.494c-0.054,0.027-0.163,0.109-0.217,0.109c-0.136,0.054-0.19,0.054-0.19,0.054
		s-0.706,0.272-1.63,0.38c-0.299,0.054-0.625,0.082-0.951,0.082c-1.44,0.027-2.907-0.489-3.342-0.679
		c-0.136-0.082-0.299-0.136-0.435-0.163c-0.027,0-0.027,0-0.027,0c0-0.054,0-0.082,0-0.109c-0.081-0.136-0.136-0.299-0.217-0.38
		C49.843,32.64,49.897,32.558,49.897,32.558z M49,37.884c0.326-0.326,0.652-0.924,0.842-1.549c0.245-0.761,0.245-1.63,0.19-2.228
		c0.516,0.326,1.983,0.978,3.478,1.087c0.027,0,0.054,0,0.109,0c0.543,0.054,1.087,0.054,1.576-0.027
		c-0.027,0.163-0.027,0.353,0,0.516c-0.082,1.657-0.163,3.07-0.652,4.945c-0.082,0.163-0.163,0.408-0.326,0.679
		c-0.163,0.299-0.38,0.788-0.924,1.087c-0.054,0.027-0.136,0.109-0.136,0.109s-0.081,0-0.109,0.054l-0.082,0.027
		c-1.223,0.788-2.473,0.598-2.962,0.435c-0.978-0.326-1.603-0.924-2.201-1.494c-0.299-0.353-0.571-0.815-0.734-1.331
		c-0.109-0.326-0.163-0.706-0.163-1.06l0.027-0.027c0.842-0.245,1.467-0.734,1.467-0.734S48.756,38.264,49,37.884z M43.159,37.422
		c0,0,0.625-1.331,0.734-2.962c0.027-0.543,0.027-1.114,0-1.63c0.571,0.38,1.82,1.005,3.179,0.924
		c0.516-0.054,1.005-0.136,1.44-0.299c0.027,0.027,0.027,0.081,0.054,0.136c0.109,0.326,0.326,1.413,0,2.364
		c-0.136,0.489-0.353,0.869-0.598,1.141c-0.217,0.245-0.272,0.489-0.272,0.489s-0.652,0.679-1.712,0.897
		c-1.005,0.299-2.174,0-2.527-0.163c-0.272-0.054-0.462-0.163-0.679-0.217C43.05,37.667,43.159,37.422,43.159,37.422z
		 M26.829,50.844c0-0.054,0-0.054,0-0.082c0.081-0.462,0.054-0.815,0-1.141c0.272-0.109,0.435-0.163,0.543-0.19
		C27.074,49.839,26.911,50.328,26.829,50.844z M32.236,53.398l-0.027,0.027h-0.027c-1.304,0.489-2.445-0.082-2.907-0.408
		c-0.842-0.571-1.168-1.331-1.44-2.092c-0.136-0.543-0.217-1.141-0.054-1.766c0,0,0.489-0.272,1.005-0.761
		c0.272-0.272,0.571-0.625,0.788-1.06c0.625-1.168,0.788-2.581,0.815-3.07c0.027-0.272,0.027-0.543,0.027-0.761
		c0.19,0.027,0.462,0.054,0.815,0c0.163,0,0.38-0.054,0.598-0.136c0.027,0.299,0.082,0.625,0.245,0.978
		c0.136,0.489,0.978,1.685,2.282,2.31h0.027h0.027h0.027c0.054,0.027,0.082,0,0.109,0h0.027H34.6
		c0.109,0.054,0.163,0.082,0.299,0.136c0.299,0.054,0.625,0.109,0.924,0.109c-0.272,1.875-0.489,3.396-1.766,5.19
		C33.839,52.339,33.432,53.018,32.236,53.398z M42.561,52.149c-0.978,1.141-2.934,1.032-5.108,1.005
		c-1.168,0-2.364,0.163-3.396,0.435c0.109-0.082,0.163-0.109,0.19-0.163c0.326-0.326,0.489-0.598,0.625-0.788
		c1.277-2.282,0.978-3.804,1.005-5.733c1.141,0.054,2.011-0.38,2.011-0.38s0.245-0.109,0.571-0.272
		c0.136,0.734,0.272,1.44,1.06,2.065c0.462,0.38,2.146,1.141,3.804,0.897c0.353,0,0.652-0.109,0.924-0.163
		C43.784,50.165,43.349,51.333,42.561,52.149z M45.93,44.812c-0.054,0.652-0.19,1.223-0.353,1.712
		c-0.027,0.027-0.027,0.054-0.027,0.109c-0.136,0.109-0.245,0.245-0.299,0.408c0,0,0,0.027-0.054,0.081
		c-0.054,0-0.054,0.027-0.054,0.027c-0.272,0.217-0.978,0.679-1.956,0.734c-1.277,0.19-2.581-0.435-2.907-0.706
		c-0.625-0.326-1.223-0.462-1.685-0.978c0.516-0.299,1.114-0.788,1.657-1.522c0.19-0.272,0.353-0.516,0.489-0.815
		c0.516-1.168,0.571-2.445,0.516-2.907c-0.082-0.87-0.489-1.359-0.842-1.875c0.027,0,0.081,0,0.109,0
		c0.408,0,0.788-0.027,1.141-0.109c0.109-0.054,0.652-0.027,0.761-0.272c0.054-0.136,0.136-0.245,0.19-0.326
		c0.163,0.163,0.353,0.272,0.625,0.435c0.326,0.245,1.386,0.625,2.527,0.571c0.109,0.516,0.136,0.924,0.163,1.522
		c0.027,0.163,0.027,0.326,0.054,0.489C46.039,41.878,46.147,43.427,45.93,44.812z M61.798,38.373
		c-1.359,3.75-5.027,5.978-7.662,6.467c-1.386,0.299-2.5,0.217-3.288,0.136c-0.788-0.109-1.331-0.163-1.331-0.163
		s-0.571-0.109-1.657,0.109c-0.408,0.109-0.761,0.272-1.114,0.543c0-0.163,0.027-0.38,0.027-0.571
		c0.163-1.494-0.081-3.097-0.217-3.614c-0.027-0.217-0.109-0.435-0.163-0.652c-0.136-0.489-0.326-0.842-0.516-1.304
		c0.081,0,0.19,0,0.326-0.027c0.217,0,0.435-0.054,0.679-0.163c-0.109,0.435-0.136,0.842-0.136,1.277
		c0,0.516,0.054,1.005,0.19,1.522c0.326,1.06,1.141,2.065,2.608,2.5c0.788,0.272,2.527,0.462,4.184-0.598l0.136-0.109
		c0.027-0.054,0.109-0.054,0.109-0.054s0.163-0.136,0.217-0.217c1.168-1.25,1.331-2.065,1.467-2.5
		c0.543-2.201,0.109-3.614-0.217-5.135c0.679,0.326,1.195,0.598,2.146,0.761c0.543,0.136,2.201,0.326,3.75,0.272
		c0.38,0,0.652-0.027,0.978-0.027C62.124,37.395,61.988,37.911,61.798,38.373z M65.846,33.02c-0.163,0.109-0.38,0.163-0.543,0.272
		c-0.027-0.136-0.027-0.299-0.054-0.462c-0.054-0.842-0.353-1.712-0.652-2.418c0.706,0.38,1.603,0.652,2.663,0.788
		c0.571,0,1.44,0.136,2.581-0.136C68.699,31.825,67.395,32.395,65.846,33.02z M71.117,28.918c-0.054,0.054-0.217,0.217-0.217,0.217
		s-0.081,0.027-0.163,0.081l-0.109,0.027c-1.223,0.625-2.636,0.543-3.206,0.462c-1.168-0.081-2.038-0.353-2.907-0.625
		c-0.435-0.081-0.869-0.245-1.304-0.408l-0.054-0.027c0,0-0.027,0-0.054-0.054c-0.027-0.027-0.054-0.027-0.109-0.054
		c-0.19-0.109-0.408-0.19-0.625-0.353c0,0-0.054-0.027-0.081-0.027c-0.082-0.082-0.19-0.163-0.245-0.245
		c0.027,0.109,0.082,0.136,0.109,0.19c-0.326-0.054-0.598-0.136-0.924-0.245c0.543,0.734,0.571,1.44,1.033,2.201
		c0.217,0.408,0.978,1.712,1.141,2.989c0.081,0.652,0.054,1.304,0,1.766c-0.136,0.136-0.272,0.272-0.353,0.435
		c-0.489,0.054-1.114,0.109-1.766,0.163c-1.467,0.081-3.043,0.054-3.614,0.054c-0.87-0.027-1.494,0.136-2.282,0.19
		c-0.027-0.163-0.082-0.299-0.082-0.489c0.815-0.081,1.359-0.245,1.359-0.245s0.054,0,0.217-0.082
		c0.081-0.027,0.163-0.027,0.299-0.081c0.163-0.109,0.462-0.109,0.571-0.326c0.489-0.625,0.734-1.277,0.951-2.119
		c0.435-1.657-0.054-3.478-0.408-3.994c-0.027,0-0.027-0.054-0.027-0.054c-0.326-0.598-0.788-0.924-1.25-1.168
		c0.027-0.027,0.109-0.081,0.163-0.109c0.353,0.19,0.761,0.38,1.25,0.543c0.027,0,0.054,0.027,0.136,0.027
		c0.462,0.163,1.549,0.326,2.663,0.299c0.163,0,0.353,0,0.516-0.027c1.359-0.082,2.554-0.408,2.554-0.408s0.136-0.027,0.38-0.081
		c0.163-0.163,0.679-0.082,0.734-0.625c0.272-0.706,0.299-1.331,0.19-2.146c-0.136-0.815-0.435-1.522-0.842-2.119
		c0.489,0.136,1.277,0.326,1.983,0.353c1.005,0.136,1.929,0.082,1.929,0.082s0.054-0.027,0.19,0c1.386,1.195,2.527,2.31,2.826,4.184
		C71.688,27.396,71.851,28.184,71.117,28.918z"/>
	<path class="st6" d="M13.434,61.658c0.489,0.027,1.06-0.163,1.331-0.435c0.299-0.217,0.408-0.408,0.408-0.408
		s0.489-0.706,0.652-1.386c0.245-0.734,0.272-1.576,0.245-1.848c0-0.489-0.163-0.788-0.353-1.168
		c-0.136,0.38-0.353,0.679-0.435,1.114c-0.054,0.217-0.245,0.924-0.516,1.522c-0.217,0.652-0.571,0.951-0.571,0.951
		c0,0.027-0.272,0.326-0.652,0.19c-0.163-0.027-0.435-0.082-0.598-0.19c-0.217-0.054-0.299-0.217-0.38-0.272
		c-0.19-0.19-0.516-0.326-0.706-0.761c-0.326,0.299-0.543,0.815-0.299,1.413C11.695,60.707,12.374,61.604,13.434,61.658z"/>
	<path class="st6" d="M9.277,50.056c-0.19,0.326-0.272,1.685,0.489,2.608c0.353,0.462,0.842,0.761,1.223,0.897
		c0.38,0.109,0.625,0.19,0.625,0.19s1.005,0.217,2.011-0.272c1.114-0.489,1.576-1.549,1.766-1.82
		c0.272-0.516,0.272-0.897,0.516-1.386c-0.489,0.245-0.951,0.435-1.304,0.924c-0.19,0.272-0.706,1.114-1.359,1.331
		c-0.706,0.272-1.386,0.082-1.386,0.082s-0.734-0.163-1.114-0.706c-0.435-0.543-0.435-1.413-0.435-1.685
		c-0.054-0.462-0.027-0.869,0.136-1.386C9.929,49.051,9.603,49.377,9.277,50.056z"/>
</g>
</svg>
