<?xml version="1.0" encoding="utf-8"?>
<!-- Generator: Adobe Illustrator 19.2.0, SVG Export Plug-In . SVG Version: 6.00 Build 0)  -->
<svg version="1.1" id="Layer_4" xmlns="http://www.w3.org/2000/svg" xmlns:xlink="http://www.w3.org/1999/xlink" x="0px" y="0px"
	 viewBox="0 0 100 100" style="enable-background:new 0 0 100 100;" xml:space="preserve">
<style type="text/css">
	.st0{fill:#EA801F;stroke:#EA801F;stroke-width:0.04;stroke-miterlimit:10;}
	.st1{fill:#F15A24;stroke:#F15A24;stroke-width:0.04;stroke-miterlimit:10;}
	.st2{fill:none;stroke:#F7931E;stroke-width:0.04;stroke-miterlimit:10;}
	.st3{fill:none;stroke:#EA801F;stroke-width:0.04;stroke-miterlimit:10;}
	.st4{fill:none;stroke:#F15A24;stroke-width:0.04;stroke-miterlimit:10;}
	.st5{fill:none;}
	.st6{fill:#F7931E;stroke:#F7931E;stroke-width:0.04;stroke-miterlimit:10;}
</style>
<g id="XMLID_1_">
	<g>
		<g id="XMLID_2_">
			<g>
				<g>
					<path class="st0" d="M95.75,32.24l0.5-0.05c-0.08-0.03-0.16-0.05-0.25-0.07c-0.4-0.11-0.91-0.19-1.4-0.26
						c-0.44-0.05-0.86-0.08-1.19-0.11c-0.01,0-0.02,0-0.03,0c-0.17-0.01-0.32-0.02-0.42-0.02c-0.09-0.01-0.15-0.01-0.15-0.01
						c-0.1,0.02-0.2,0.04-0.3,0.06l-0.2-0.03c0,0-6.69,1.69-9.37,1.13c0,0-0.1,0.05-0.29,0.12c0.02,0.09,0.05,0.18,0.08,0.27
						c-0.04-0.08-0.08-0.16-0.12-0.25c-1.2,0.51-5.47,2.22-7.72,1.83c0,0.18,0,0.37,0.02,0.56c0.06,0.83,0.31,1.72,0.91,2.44
						c-0.14-0.08-1.21-0.73-1.28-2.36c-0.01-0.18-0.01-0.37,0.01-0.58c-0.1,0.07-0.25,0.18-0.44,0.3c-0.26,0.17-0.59,0.38-0.96,0.57
						c-0.9,0.46-2,0.86-2.8,0.58c-0.16-0.05-0.3-0.13-0.43-0.24c-0.22-0.18-0.39-0.45-0.5-0.82c-0.02-0.04-0.03-0.07-0.04-0.11
						c0,0-0.76,3.12,1.43,5.62c0,0,0.09-0.02,0.25-0.07c0.11-0.03,0.25-0.07,0.42-0.12h0.01c0.09-0.03,0.18-0.05,0.28-0.08
						c0.03-0.01,0.06-0.02,0.09-0.03c2.68-0.79,9.72-2.98,11.83-4.89c0,0,0.18-0.09,0.49-0.24c0.04-0.02,0.08-0.04,0.12-0.05
						c3.61-1.48,6.32-2.27,9.3-2.82c1.19-0.11,2.25-0.22,2.25-0.22l-0.24-0.04L95.75,32.24z M82.99,33.74
						c-0.01-0.01-0.01-0.02-0.02-0.03c-0.01-0.01-0.01-0.02-0.01-0.03h-0.01c-0.01-0.02-0.02-0.05-0.03-0.07
						c0.01,0.03,0.03,0.05,0.04,0.07c0.01,0.02,0.03,0.04,0.04,0.06H82.99z"/>
					<path class="st0" d="M71.1,40.81c0.09-0.05,0.17-0.09,0.26-0.13c-0.11,0.03-0.21,0.06-0.29,0.08
						C71.08,40.78,71.09,40.79,71.1,40.81z"/>
					<path class="st0" d="M68.14,38.34c-0.07-0.44-0.09-0.84-0.07-1.19c0-0.01,0-0.01,0-0.02c0-0.09,0.02-0.18,0.03-0.28
						c0.46-3.62,3.12-5.58,3.33-5.73c-0.21,0.07-0.42,0.16-0.61,0.25c-2.07,0.98-3.17,3.09-3.7,4.53c-0.89,0.42-4.76,2.18-8.16,2.68
						c-1.4,0.22-2.72,0.22-3.72-0.17c-0.08-0.03-0.16-0.06-0.23-0.1L55,38.3c-0.09-0.04-0.18-0.09-0.27-0.15
						c-0.08-0.04-0.16-0.09-0.23-0.15c0,0-0.01,0.06-0.02,0.18c-0.01,0.11-0.02,0.27-0.02,0.47c-0.01,0.01-0.01,0.03,0,0.05
						c-0.02,0.28-0.01,0.63,0.02,1.03c0.07,0.96,0.3,2.19,0.92,3.39c-1.64-1.39-2.13-2.83-2.21-3.1c0-0.01-0.01-0.03-0.01-0.04
						s0-0.01,0-0.02c-0.95-5.24,1.98-8.08,2.63-8.65c0.04-0.03,0.08-0.06,0.1-0.07c0.01-0.01,0.01-0.02,0.02-0.02h-0.01
						c-2.84,1.62-3.85,4.59-4.19,6.77c-0.21,0.14-0.85,0.54-1.74,1.05c-1.29,0.63-2.8,1.05-3.43,0.21c0,0-0.02,0.01-0.05,0.04
						c0.05,0.46,0.12,0.96,0.23,1.48c0.04,0.18,0.08,0.37,0.13,0.56c0.41,1.62,1.17,3.41,2.59,4.88h0.01
						c0.14,0.15,0.28,0.29,0.44,0.43c0.27,0.24,0.55,0.47,0.86,0.69c0.43,0.3,0.91,0.58,1.43,0.83c0.22,0.11,0.46,0.21,0.7,0.31
						c1.92-0.66,3.89-1.48,5.31-2.43c0.27-0.02,0.35-0.23,0.35-0.23s0.01,0,0.03-0.01c0.12-0.03,0.68-0.17,1.48-0.39
						c0.09-0.03,0.19-0.05,0.29-0.08c2.83-0.8,8.11-2.47,9.12-3.98v-0.14C69.12,40.93,68.38,39.68,68.14,38.34z"/>
					<path class="st0" d="M27.25,36.3c0,0,0,0-0.01,0.01v0.01c0.01,0,0.01-0.01,0.02-0.02C27.26,36.3,27.26,36.3,27.25,36.3z"/>
					<path class="st0" d="M50.25,48.03c-0.28-0.24-0.57-0.52-0.86-0.84c-0.23-0.24-0.46-0.5-0.68-0.79c-0.98-1.24-1.9-2.89-2.3-4.97
						c-0.03-0.16-0.05-0.32-0.08-0.48c-0.07-0.46-0.11-0.95-0.11-1.45c-0.33,0.23-0.88,0.6-1.53,0.96c-1.19,0.67-2.7,1.31-3.76,1.04
						c-0.56-0.16-1-0.56-1.19-1.36c0,0-0.03,0.86,0.25,2.07c-0.02-0.01-0.03-0.01-0.05-0.02c0,0,0.01,0.04,0.03,0.11
						c0,0.01,0.01,0.02,0.01,0.03c0,0.01,0.01,0.02,0.01,0.04c0.01,0.02,0.02,0.05,0.03,0.08c0,0.01,0.01,0.02,0.01,0.04
						c0.01,0.03,0.02,0.06,0.03,0.1c0.04,0.12,0.1,0.27,0.16,0.43c0.01,0.03,0.02,0.05,0.03,0.08c0.13,0.4,0.3,0.83,0.5,1.25
						c0.09,0.16,0.17,0.31,0.26,0.47c0.02,0.03,0.03,0.06,0.05,0.09c0.08,0.13,0.15,0.25,0.24,0.38c0.05,0.08,0.1,0.16,0.16,0.24
						c0.82,1.34,2.04,2.83,3.8,3.97c-1.02-0.15-1.87-0.42-2.99-1.26c-0.73-0.51-2.41-2.4-3.26-4.68C39,43.55,39,43.54,39,43.53
						c-0.01-0.02-0.01-0.03-0.02-0.05c-0.04-0.15-0.1-0.3-0.16-0.47c-0.21-0.59-0.35-1.19-0.39-1.8c-0.01-0.02-0.01-0.05-0.01-0.07
						c-0.01-0.02-0.01-0.05-0.01-0.07c-0.01-0.04-0.01-0.09-0.01-0.13c-0.01-0.02-0.01-0.03-0.01-0.05c0-0.01,0-0.02,0-0.02
						c-0.01-0.03-0.01-0.06-0.01-0.08c-0.19-3.45,1.6-6.8,1.82-7.18c-2.22,2.35-2.79,5.17-2.83,7.33c-0.6,0.58-2.61,2.35-5.4,3.26
						c-1.63,0.53-3.54,0.76-5.58,0.27c-0.29-0.07-0.59-0.16-0.89-0.26c-0.02-0.01-0.04-0.01-0.06-0.02c0,0,0.25,6.17,5.27,9.87
						c0.08,0.06,0.16,0.12,0.24,0.18c0.41,0.28,0.84,0.55,1.32,0.8c0.07,0.04,0.15,0.08,0.23,0.12h0.01v0.01
						c0.02,0,0.03,0.01,0.05,0.02c0,0,0.01,0,0.03-0.01c0.67-0.1,11.24-1.81,13.72-4.85h0.01c0.09-0.02,0.18-0.04,0.25-0.08
						c0.09-0.03,0.18-0.07,0.27-0.1c0.8-0.18,2.57-0.59,4.57-1.2c-0.13-0.09-0.28-0.2-0.45-0.33C50.75,48.46,50.5,48.26,50.25,48.03
						z"/>
					<path class="st0" d="M32.23,55.04c-0.61-0.03-1.25-0.13-1.9-0.43c-1-0.33-3.45-2.18-4.78-4.69c-0.89-1.4-1.21-2.87-1.37-3.86
						c-0.02-0.08-0.03-0.17-0.03-0.25c0-0.01,0-0.01,0-0.02c-0.01-0.06-0.02-0.12-0.02-0.18c-0.01-0.03-0.01-0.05-0.01-0.07
						c-0.01-0.02-0.02-0.05-0.01-0.07c-0.03-0.18-0.04-0.36-0.04-0.54c-0.01-0.02-0.01-0.03,0-0.05c-0.01-0.05-0.01-0.1-0.01-0.15
						c-0.01-0.09-0.01-0.18-0.01-0.27c0-0.03,0-0.06,0-0.1c0.09-3.94,2.68-7.39,3.14-7.98c0.02-0.02,0.03-0.03,0.03-0.04
						c-3.04,2.7-4.04,6.26-4.37,8.47c-0.61,0.38-1.59,0.95-2.73,1.43c-1,0.41-2.11,0.76-3.17,0.82c-0.05,0-0.11,0-0.16,0
						c-0.23,0.01-0.47,0.01-0.69-0.02c-0.5-0.05-0.97-0.17-1.4-0.4c-0.32-0.17-0.62-0.4-0.88-0.69c-0.03-0.02-0.05-0.04-0.07-0.07
						c0,0-1.06,6.15,4.35,11.27c0.36,0.35,0.74,0.68,1.16,1.02c0.07,0.05,0.14,0.11,0.22,0.17c0.04,0.03,0.09,0.06,0.14,0.1
						c0,0,0.01,0,0.03,0c0.3,0,3.07-0.02,6.54-0.87c-0.13-0.07-0.29-0.16-0.47-0.28h-0.01c-1.06-0.67-2.7-2.13-3.92-5.1
						c0.31,0.55,2.07,3.5,5.02,4.81c0.2,0.09,0.4,0.17,0.61,0.25c1.52-0.44,3.13-1.05,4.7-1.87c0,0-0.04-0.01-0.13-0.03
						c0.17-0.06,0.34-0.12,0.51-0.19c-0.06-0.02-0.14-0.06-0.26-0.12H32.23z"/>
					<path class="st0" d="M14.03,53.59c-1.55-2.65-1.62-5.62-1.62-5.62s-0.01-0.47,0.02-1.26c0-0.02,0-0.04,0-0.07
						c0-0.05,0.01-0.1,0.01-0.15c0-0.07,0.01-0.14,0.02-0.21c0-0.1,0.01-0.21,0.02-0.31c0-0.02,0.01-0.04,0.01-0.06
						c0-0.04,0.01-0.07,0.01-0.11c0.38-3.08,2.07-5.84,2.4-6.36c0.03-0.04,0.04-0.07,0.05-0.08c-2.09,1.81-2.95,4.54-3.29,6.18
						c-1.13-0.07-4.18-0.52-2.49-3.29c0.04-0.07,0.09-0.14,0.14-0.22c-0.07,0.07-0.17,0.2-0.29,0.37C9.01,42.41,9,42.42,8.99,42.43
						C8.72,42.8,8.35,43.35,8,44.04C7.98,44.02,7.95,44,7.93,43.98c-0.5,0.9-0.76,1.84-0.87,2.75c-0.05,0.26-0.09,0.54-0.11,0.81
						c-0.01,0.09-0.02,0.18-0.01,0.27c-0.03,0.49,0,1,0.1,1.53c0.03,0.14,0.06,0.28,0.1,0.43c0,0.02,0,0.05,0.01,0.08
						c0.02,0.11,0.05,0.23,0.09,0.34c0.01,0.08,0.04,0.17,0.07,0.25c0.42,1.37,0.82,2.02,0.82,2.02c0.14,0,1.88,4.27,8.77,5.66
						c0.36,0.06,0.71,0.06,0.92,0.05C16.67,57.14,15.14,55.48,14.03,53.59z"/>
				</g>
				<g>
					<path class="st1" d="M82.97,33.71c0.01,0.01,0.01,0.02,0.02,0.03H83c-0.01-0.02-0.03-0.04-0.04-0.06
						C82.96,33.69,82.96,33.7,82.97,33.71z"/>
					<path class="st1" d="M82.95,33.68h0.01c-0.01-0.02-0.03-0.04-0.04-0.07C82.93,33.63,82.94,33.66,82.95,33.68z"/>
					<path class="st1" d="M74.89,34.85c0.01-1.23,0.34-2.23,0.34-2.23c-0.42,0.9-0.62,1.65-0.68,2.29c-0.02,0.21-0.02,0.4-0.01,0.58
						c0.07,1.63,1.14,2.28,1.28,2.36c-0.6-0.72-0.85-1.61-0.91-2.44C74.89,35.22,74.89,35.03,74.89,34.85z"/>
				</g>
			</g>
			<g>
				<path class="st2" d="M54.73,38.15c0.09,0.02,0.19,0.07,0.27,0.15"/>
				<path class="st2" d="M16.1,47.04c0.23,0.02,0.46,0.02,0.69,0.02"/>
				<path class="st2" d="M24.07,44.93c0.01,0.01,0.01,0.03,0.01,0.04"/>
				<path class="st3" d="M82.97,33.71c-0.01-0.01-0.01-0.02-0.01-0.03h-0.01c-0.01-0.02-0.02-0.05-0.03-0.07"/>
				<path class="st3" d="M7.04,49.34c0.03,0.14,0.06,0.28,0.1,0.43c0,0.02,0,0.05,0.01,0.08"/>
				<path class="st4" d="M98.57,31.76c0.02-0.01,0.03-0.02,0.04-0.04c-0.04,0.01-0.08,0.01-0.12,0.02"/>
				<line class="st4" x1="98.57" y1="31.76" x2="98.56" y2="31.76"/>
				<path class="st4" d="M71.27,43.4c0,0,8.07-1.99,12.71-4.86c4.65-2.88,5.53-2.44,9.4-4.1c2.02-0.86,3.42-1.51,4.31-1.93
					c0.25-0.22,0.5-0.42,0.75-0.65c0.04-0.03,0.08-0.06,0.12-0.1c-0.02,0-0.05-0.01-0.07-0.02c-0.89,0.08-1.67,0.24-2.49,0.38"/>
				<path class="st4" d="M60.71,45.57c-0.01,0-0.01,0-0.02-0.01c-0.05-0.04-0.17-0.11-0.33-0.23"/>
				<path class="st4" d="M60.07,45.41c0.2,0.06,0.41,0.11,0.62,0.15"/>
				<path class="st4" d="M54.46,38.19c-0.65,0.28-1.28,1.79-1.28,1.79"/>
				<path class="st4" d="M53.19,40.02c0.08,0.27,0.57,1.71,2.21,3.1"/>
				<path class="st4" d="M54.48,39.73c-0.43,0.11-0.86,0.2-1.3,0.25"/>
				<path class="st4" d="M46.45,36.74c-0.02,0.26-0.08,1.24,0.06,2.55c0.05,0.46,0.12,0.96,0.23,1.48c0.04,0.18,0.08,0.37,0.13,0.56
					c0.41,1.62,1.17,3.41,2.59,4.88h0.01c0.14,0.15,0.28,0.29,0.44,0.43c0.27,0.24,0.55,0.47,0.86,0.69
					c0.43,0.3,0.91,0.58,1.43,0.83c0.22,0.11,0.46,0.21,0.7,0.31c0.16,0.06,0.32,0.11,0.48,0.17L52,49.33c0,0-0.23-0.12-0.59-0.38
					c-0.13-0.09-0.28-0.2-0.45-0.33c-0.21-0.16-0.46-0.36-0.71-0.59c-0.28-0.24-0.57-0.52-0.86-0.84c-0.23-0.24-0.46-0.5-0.68-0.79
					c-0.98-1.24-1.9-2.89-2.3-4.97c-0.03-0.16-0.05-0.32-0.08-0.48c-0.07-0.46-0.11-0.95-0.11-1.45
					C46.19,38.64,46.26,37.72,46.45,36.74c0.01-0.05,0.01-0.07,0.01-0.07"/>
				<line class="st4" x1="21.75" y1="52.11" x2="21.74" y2="52.1"/>
				<path class="st4" d="M21.79,52.19c0.31,0.55,2.07,3.5,5.02,4.81c0.2,0.09,0.4,0.17,0.61,0.25c0.21,0.07,0.43,0.14,0.65,0.19
					l-1.28,0.39c0,0-0.23-0.06-0.6-0.26c-0.13-0.07-0.29-0.16-0.47-0.28h-0.01C24.65,56.62,23.01,55.16,21.79,52.19"/>
				<path class="st4" d="M21.79,52.19c-0.02-0.04-0.03-0.07-0.04-0.08"/>
				<path class="st4" d="M75.83,37.86l-0.01-0.01c-0.14-0.08-1.21-0.73-1.28-2.36c-0.01-0.18-0.01-0.37,0.01-0.58
					c0.06-0.64,0.26-1.39,0.68-2.29c0,0-0.33,1-0.34,2.23c0,0.18,0,0.37,0.02,0.56c0.06,0.83,0.31,1.72,0.91,2.44"/>
				<path class="st4" d="M82.73,33.27c-0.04-0.08-0.08-0.16-0.12-0.25c-0.15-0.32-0.31-0.73-0.41-1.21
					c-0.06-0.26-0.1-0.55-0.12-0.85c-0.01-0.16-0.01-0.32-0.01-0.48c0-0.02,0-0.04,0.01-0.07c0.01-0.36,0.06-0.75,0.17-1.15
					l0.98,0.1h0.01"/>
				<path class="st4" d="M82.83,33.48c0,0,0,0,0-0.01c-0.02-0.04-0.05-0.08-0.07-0.13"/>
				<path class="st4" d="M83.05,33.81c0,0-0.02-0.02-0.05-0.07c-0.01-0.02-0.03-0.04-0.04-0.06s-0.03-0.04-0.04-0.07
					c-0.03-0.03-0.05-0.07-0.08-0.12c0,0,0,0-0.01,0"/>
				<path class="st4" d="M82.76,33.34c0.02,0.05,0.04,0.09,0.06,0.13c0,0.01,0,0.01,0.01,0.01c0,0.01,0,0.01,0,0.01
					c0.04,0.07,0.08,0.13,0.12,0.19c0.01,0.01,0.01,0.02,0.02,0.03c0.01,0.01,0.01,0.02,0.02,0.03H83"/>
				<path class="st4" d="M82.76,33.34c-0.01-0.03-0.02-0.05-0.03-0.07"/>
				<path class="st4" d="M83.23,29.36c-0.12,0-0.33,0.49-0.49,1.16c0,0.01,0,0.02-0.01,0.03c-0.03,0.13-0.06,0.28-0.08,0.43
					c-0.05,0.26-0.08,0.54-0.09,0.83c-0.02,0.41,0,0.82,0.09,1.19c0.02,0.09,0.05,0.18,0.08,0.27"/>
				<path class="st4" d="M33.37,34.57c0.27-0.27,0.58-0.52,0.93-0.76h1.09c0,0-0.23,0.15-0.59,0.44c-0.17,0.14-0.38,0.31-0.6,0.53
					c-0.71,0.66-1.58,1.67-2.15,3c-0.43,0.98-0.7,2.13-0.62,3.44c0,0-0.38-1.66,0.14-3.57c0.22-0.85,0.62-1.75,1.33-2.57
					C33.03,34.9,33.19,34.73,33.37,34.57z"/>
				<path class="st4" d="M41.14,55.45c-0.02,0-0.03,0.01-0.05,0.02"/>
				<path class="st4" d="M61.4,47.44c-0.07,0.02-0.13,0.03-0.2,0.05c0,0-0.3,0.17-0.76,0.43"/>
				<path class="st4" d="M71.27,43.4c0,0,0,0-0.01,0.01"/>
			</g>
		</g>
	</g>
</g>
<g>
	<path class="st5" d="M14.03,53.59c-1.55-2.65-1.62-5.62-1.62-5.62s-0.01-0.47,0.02-1.26c0-0.02,0-0.04,0-0.07
		c0-0.05,0.01-0.1,0.01-0.15c0-0.07,0.01-0.14,0.02-0.21c0-0.1,0.01-0.21,0.02-0.31c0-0.02,0.01-0.04,0.01-0.06
		c0-0.04,0.01-0.07,0.01-0.11c0.38-3.08,2.07-5.84,2.4-6.36c0.03-0.04,0.04-0.07,0.05-0.08s0.01-0.01,0.01-0.01
		c-2.54,0.72-4.53,1.67-5.79,2.9c0.04-0.07,0.09-0.14,0.14-0.22c-0.07,0.07-0.17,0.2-0.29,0.37C9.01,42.41,9,42.42,8.99,42.43
		c-0.16,0.17-0.31,0.35-0.45,0.54c-0.28,0.36-0.48,0.72-0.61,1.01c-0.5,0.9-0.76,1.84-0.87,2.75c-0.05,0.26-0.09,0.54-0.11,0.81
		c-0.01,0.09-0.02,0.18-0.01,0.27c-0.03,0.49,0,1,0.1,1.53c0.02,0.17,0.06,0.34,0.11,0.51c0.02,0.11,0.05,0.23,0.09,0.34
		c0.01,0.08,0.04,0.17,0.07,0.25c0.42,1.37,0.82,2.02,0.82,2.02c0.14,0,1.88,4.27,8.77,5.66c0.36,0.06,0.71,0.06,0.92,0.05
		C16.67,57.14,15.14,55.48,14.03,53.59z"/>
	<path class="st5" d="M96.25,32.19c-0.08-0.03-0.16-0.05-0.25-0.07c-0.4-0.11-0.91-0.19-1.4-0.26c-0.44-0.05-0.86-0.08-1.19-0.11
		c-0.01,0-0.02,0-0.03,0c-0.17-0.01-0.32-0.02-0.42-0.02c-0.09-0.01-0.15-0.01-0.15-0.01c-0.09-0.03-0.19-0.06-0.28-0.09
		c-2.71-0.85-4.32-0.62-6.91-0.78c-0.03,0-0.06,0-0.1-0.01c-0.63-0.04-1.32-0.1-2.09-0.21c-0.22-0.04-0.45-0.07-0.69-0.11
		c0,0.01,0,0.02-0.01,0.03c-0.03,0.13-0.06,0.28-0.08,0.43c-0.05,0.26-0.08,0.54-0.09,0.83c-0.02,0.41,0,0.82,0.09,1.19
		c0.02,0.09,0.05,0.18,0.08,0.27c-0.04-0.08-0.08-0.16-0.12-0.25c-0.15-0.32-0.31-0.73-0.41-1.21c-0.06-0.26-0.1-0.55-0.12-0.85
		c-0.01-0.16-0.01-0.32-0.01-0.48c0-0.02,0-0.04,0.01-0.07c-1.59-0.28-2.91-0.36-3.99-0.36c-0.01,0-0.02,0-0.03,0
		c-2.13,0.02-3.29,0.4-3.62,0.4c-0.01,0-0.03,0-0.04,0c-0.23-0.01-0.47-0.02-0.72-0.03c-0.29,0.01-0.5-0.06-0.78-0.05h-0.07
		c-1.78-0.1-3.9-0.05-5.95-0.07c-1.94,0.1-3.88,0.25-5.9,0.41c-1.8,0.07-3.09,0.15-3.28,0.24c0,0-3.17,2.4-3.24,7.24
		c-0.01,0.14-0.01,0.3,0,0.46c-0.01,0.01-0.01,0.03,0,0.05c-0.02,0.28-0.01,0.63,0.02,1.03c0.07,0.96,0.3,2.19,0.92,3.39
		c-1.64-1.39-2.13-2.83-2.21-3.1c0-0.01-0.01-0.03-0.01-0.04s0-0.01,0-0.02c-0.95-5.24,1.98-8.08,2.63-8.65
		c0.04-0.03,0.08-0.06,0.1-0.07c0.01-0.01,0.01-0.02,0.02-0.02c0.01-0.01,0.01-0.01,0.01-0.01s-0.01,0-0.02,0
		c-5.6-0.8-13.53,1.94-13.96,2.09c-0.01,0.01-0.02,0.01-0.02,0.01s-3.17,4.06-2,8.88c0,0,0.01,0.04,0.03,0.11
		c0,0.01,0.01,0.02,0.01,0.03c0,0.01,0.01,0.02,0.01,0.04c0.01,0.02,0.02,0.05,0.03,0.08c0,0.01,0.01,0.02,0.01,0.04
		c0.01,0.03,0.02,0.06,0.03,0.1c0.15,0.59,0.38,1.16,0.69,1.76c0.09,0.16,0.17,0.31,0.26,0.47c0.02,0.03,0.03,0.06,0.05,0.09
		c0.08,0.13,0.15,0.25,0.24,0.38c0.05,0.08,0.1,0.16,0.16,0.24c0.82,1.34,2.04,2.83,3.8,3.97c-1.02-0.15-1.87-0.42-2.99-1.26
		c-0.73-0.51-2.41-2.4-3.26-4.68C39,43.55,39,43.54,39,43.53c-0.01-0.02-0.01-0.03-0.02-0.05c-0.04-0.15-0.1-0.3-0.16-0.47
		c0-0.07-0.08-0.28-0.08-0.35c-0.14-0.5-0.25-0.98-0.31-1.45c-0.01-0.02-0.01-0.05-0.01-0.07c-0.01-0.02-0.01-0.05-0.01-0.07
		c-0.01-0.04-0.01-0.09-0.01-0.13c-0.01-0.02-0.01-0.03-0.01-0.05c0-0.01,0-0.02,0-0.02c-0.01-0.03-0.01-0.06-0.01-0.08
		c-0.19-3.45,1.6-6.8,1.82-7.18c0-0.01,0-0.01,0-0.01c0.01-0.01,0.01-0.01,0.01-0.02c0.01-0.01,0.01-0.01,0.01-0.01
		s-2.48,0.07-5.42,0.68c-0.17,0.14-0.38,0.31-0.6,0.53c-0.71,0.66-1.58,1.67-2.15,3c-0.43,0.98-0.7,2.13-0.62,3.44
		c0,0-0.38-1.66,0.14-3.57c0.22-0.85,0.62-1.75,1.33-2.57c0.13-0.18,0.29-0.35,0.47-0.51c-1.1,0.29-2.22,0.65-3.25,1.12
		c-0.06,0.02-0.12,0.03-0.18,0.04c-0.07,0-0.07,0-0.07,0.07c0,0,0,0-0.01,0.01c-0.26,0.19-4.51,3.31-4.36,8.4
		c-0.02-0.01-0.04-0.01-0.06-0.02c0,0,0.25,6.17,5.27,9.87c0.08,0.06,0.16,0.12,0.24,0.18c0.55,0.4,1,0.65,1.28,0.8
		c-0.61-0.03-1.25-0.13-1.9-0.43c-1-0.33-3.45-2.18-4.78-4.69c-0.89-1.4-1.21-2.87-1.37-3.86c-0.02-0.08-0.03-0.17-0.03-0.25
		c0-0.01,0-0.01,0-0.02c-0.01-0.06-0.02-0.12-0.02-0.18c-0.01-0.03-0.01-0.05-0.01-0.07c-0.01-0.02-0.02-0.05-0.01-0.07
		c-0.02-0.25-0.02-0.42-0.03-0.5c0-0.02,0-0.04,0-0.04s0-0.02-0.01-0.05c-0.01-0.05-0.01-0.1-0.01-0.15
		c-0.01-0.09-0.01-0.18-0.01-0.27c0-0.03,0-0.06,0-0.1c0.09-3.94,2.68-7.39,3.14-7.98c0.02-0.02,0.03-0.03,0.03-0.04
		c0,0,0.01,0,0.01-0.01c0.01,0,0.01-0.01,0.01-0.01c0.01,0,0.01-0.01,0.02-0.02s0.01-0.01,0.01-0.01s-2.74-0.43-9.08,2.2
		c0,0,0,0-0.01,0.01c-0.01,0-0.02,0.01-0.03,0.02c-0.4,0.26-3.74,2.66-4.33,7.43c-0.03-0.02-0.05-0.04-0.07-0.07
		c0,0-1.06,6.15,4.35,11.27c0.36,0.35,0.74,0.68,1.16,1.02c0.07,0.05,0.14,0.11,0.22,0.17c0.04,0.03,0.09,0.06,0.14,0.1
		c0,0,0.01,0,0.03,0c0.3,0,3.07-0.02,6.54-0.87c-0.13-0.07-0.29-0.16-0.47-0.28h-0.01c-1.06-0.67-2.7-2.13-3.92-5.1
		c0.31,0.55,2.07,3.5,5.02,4.81c0.2,0.09,0.4,0.17,0.61,0.25c1.52-0.44,3.13-1.05,4.7-1.87c0,0-0.04-0.01-0.13-0.03
		c0.17-0.06,0.34-0.12,0.51-0.19c0,0.01,0,0.01,0.01,0.01c0.02,0,0.03,0.01,0.05,0.02c0,0,0.01,0,0.03-0.01
		c0.67-0.1,11.24-1.81,13.72-4.85h0.01c0.09-0.02,0.18-0.04,0.25-0.08c0.09-0.03,0.18-0.07,0.27-0.1c0.8-0.18,2.57-0.59,4.57-1.2
		c-0.13-0.09-0.28-0.2-0.45-0.33c-0.21-0.16-0.46-0.36-0.71-0.59c-0.28-0.24-0.57-0.52-0.86-0.84c-0.23-0.24-0.46-0.5-0.68-0.79
		c-0.98-1.24-1.9-2.89-2.3-4.97c-0.03-0.16-0.05-0.32-0.08-0.48c-0.07-0.46-0.11-0.95-0.11-1.45c-0.03-0.86,0.04-1.78,0.23-2.76
		c-0.02,0.26-0.08,1.24,0.06,2.55c0.05,0.46,0.12,0.96,0.23,1.48c0.04,0.18,0.08,0.37,0.13,0.56c0.41,1.62,1.17,3.41,2.59,4.88h0.01
		c0.14,0.15,0.28,0.29,0.44,0.43c0.27,0.24,0.55,0.47,0.86,0.69c0.43,0.3,0.91,0.58,1.43,0.83c0.22,0.11,0.46,0.21,0.7,0.31
		c1.92-0.66,3.89-1.48,5.31-2.43c0.27-0.02,0.35-0.23,0.35-0.23s0.01,0,0.03-0.01c0.12-0.03,0.68-0.17,1.48-0.39
		c0.09-0.03,0.19-0.05,0.29-0.08c2.83-0.8,8.11-2.47,9.12-3.98v-0.14c-0.36-0.28-1.1-1.53-1.34-2.87c-0.07-0.44-0.09-0.84-0.07-1.19
		c0-0.01,0-0.01,0-0.02c0-0.09,0.02-0.18,0.03-0.28c0.46-3.62,3.12-5.58,3.33-5.73c-0.21,0.07-0.42,0.16-0.61,0.25
		c0.02-0.01,0.04-0.02,0.05-0.03c0.17-0.11,0.35-0.18,0.52-0.23c0,0,0,0,0.01,0c0.32,0.03,0.63,0.05,0.92,0.08
		c-0.85,0.58-2.48,1.94-2.9,4.11c-0.02-0.04-0.03-0.07-0.04-0.11c0,0-0.76,3.12,1.43,5.62c0,0,0.1-0.01,0.26-0.05
		c0.01,0.02,0.02,0.03,0.03,0.05c0.09-0.05,0.17-0.09,0.26-0.13c0.12-0.03,0.26-0.08,0.41-0.14c0.03-0.01,0.06-0.02,0.09-0.03
		c2.68-0.79,9.72-2.98,11.83-4.89c0,0,0.18-0.09,0.49-0.24c0.04-0.02,0.08-0.04,0.12-0.05c3.61-1.48,6.32-2.27,9.3-2.82
		c1.19-0.11,2.25-0.22,2.25-0.22l-0.24-0.04l0.14-0.01L96.25,32.19z"/>
	<path class="st1" d="M90.393,28.888c-1.688-0.347-2.606-0.359-3.907-0.378c-1.812-0.027-3.587-0.53-3.587-0.53
		c-4.39-1.05-8.36-0.11-8.36-0.11c-6.68-1.15-16.18,0.73-16.18,0.73c-8.56-0.83-14.41,1.88-14.41,1.88s-4.37-0.11-7.5,0.72
		c-0.01,0.01-0.01,0.01-0.02,0.01c0,0-2.91,0.52-5.11,1.46c-0.23,0-0.47,0.01-0.7,0.03c-5.5,0.26-10.68,2.38-10.68,2.38
		c-8.15,0.62-12.64,4.9-12.64,4.9s-4.8,4.28-1.88,12.53c2.93,8.25,12.77,8.03,12.77,8.03s8.07,0.55,16.14-3.43
		c0,0,0.06-0.01,0.19-0.03c0.7-0.14,3.37-0.67,6.57-1.61c0.02-0.01,0.03-0.02,0.05-0.02c3.6-1.26,6.46-2.73,6.46-2.73
		c1.99-0.31,7.1-2.4,7.1-2.4c1.34-0.08,4.32-1.63,5.74-2.4c0.46-0.26,0.76-0.43,0.76-0.43c0.07-0.02,0.13-0.03,0.2-0.05
		c0.1-0.02,0.19-0.05,0.29-0.07c1.77-0.43,7.78-1.99,9.57-3.96c0.01-0.01,0.01-0.01,0.01-0.01s8.07-1.99,12.71-4.86
		c4.65-2.88,5.53-2.44,9.4-4.1c2.02-0.86,3.42-1.51,4.31-1.93c0.25-0.22,0.5-0.42,0.75-0.65c0.04-0.03,0.08-0.06,0.12-0.1h0.01
		c0.02-0.01,0.03-0.02,0.04-0.04C98.61,31.72,95.558,30.08,90.393,28.888z M16.9,58.12c-6.89-1.39-8.63-5.66-8.77-5.66
		c0,0-0.4-0.65-0.82-2.02c-0.03-0.08-0.06-0.17-0.07-0.25c-0.04-0.11-0.07-0.23-0.09-0.34c-0.05-0.17-0.09-0.34-0.11-0.51
		c-0.1-0.53-0.13-1.04-0.1-1.53c-0.01-0.09,0-0.18,0.01-0.27c0.02-0.27,0.06-0.55,0.11-0.81c0.11-0.91,0.37-1.85,0.87-2.75
		c0.13-0.29,0.33-0.65,0.61-1.01c0.14-0.19,0.29-0.37,0.45-0.54C9,42.42,9.01,42.41,9.02,42.4c0.12-0.17,0.22-0.3,0.29-0.37
		c-0.05,0.08-0.1,0.15-0.14,0.22c1.26-1.23,3.25-2.18,5.79-2.9c0,0,0,0-0.01,0.01s-0.02,0.04-0.05,0.08
		c-0.33,0.52-2.02,3.28-2.4,6.36c0,0.04-0.01,0.07-0.01,0.11c0,0.02-0.01,0.04-0.01,0.06c-0.01,0.1-0.02,0.21-0.02,0.31
		c-0.01,0.07-0.02,0.14-0.02,0.21c0,0.05-0.01,0.1-0.01,0.15c0,0.03,0,0.05,0,0.07c-0.03,0.79-0.02,1.26-0.02,1.26
		s0.07,2.97,1.62,5.62c1.11,1.89,2.64,3.55,3.79,4.58C17.61,58.18,17.26,58.18,16.9,58.12z M95.85,32.29c0,0-1.06,0.11-2.25,0.22
		c-2.98,0.55-5.69,1.34-9.3,2.82c-0.04,0.01-0.08,0.03-0.12,0.05c-0.31,0.15-0.49,0.24-0.49,0.24c-2.11,1.91-9.15,4.1-11.83,4.89
		c-0.03,0.01-0.06,0.02-0.09,0.03c-0.15,0.06-0.29,0.11-0.41,0.14c-0.09,0.04-0.17,0.08-0.26,0.13c-0.01-0.02-0.02-0.03-0.03-0.05
		c-0.16,0.04-0.26,0.05-0.26,0.05c-2.19-2.5-1.43-5.62-1.43-5.62c0.01,0.04,0.02,0.07,0.04,0.11c0.42-2.17,2.05-3.53,2.9-4.11
		c-0.29-0.03-0.6-0.05-0.92-0.08c-0.01,0-0.01,0-0.01,0c-0.17,0.05-0.35,0.12-0.52,0.23c-0.01,0.01-0.03,0.02-0.05,0.03
		c0.19-0.09,0.4-0.18,0.61-0.25c-0.21,0.15-2.87,2.11-3.33,5.73c-0.01,0.1-0.03,0.19-0.03,0.28c0,0.01,0,0.01,0,0.02
		c-0.02,0.35,0,0.75,0.07,1.19c0.24,1.34,0.98,2.59,1.34,2.87v0.14c-1.01,1.51-6.29,3.18-9.12,3.98c-0.1,0.03-0.2,0.05-0.29,0.08
		c-0.8,0.22-1.36,0.36-1.48,0.39c-0.02,0.01-0.03,0.01-0.03,0.01s-0.08,0.21-0.35,0.23c-1.42,0.95-3.39,1.77-5.31,2.43
		c-0.24-0.1-0.48-0.2-0.7-0.31c-0.52-0.25-1-0.53-1.43-0.83c-0.31-0.22-0.59-0.45-0.86-0.69c-0.16-0.14-0.3-0.28-0.44-0.43h-0.01
		c-1.42-1.47-2.18-3.26-2.59-4.88c-0.05-0.19-0.09-0.38-0.13-0.56c-0.11-0.52-0.18-1.02-0.23-1.48c-0.14-1.31-0.08-2.29-0.06-2.55
		c-0.19,0.98-0.26,1.9-0.23,2.76c0,0.5,0.04,0.99,0.11,1.45c0.03,0.16,0.05,0.32,0.08,0.48c0.4,2.08,1.32,3.73,2.3,4.97
		c0.22,0.29,0.45,0.55,0.68,0.79c0.29,0.32,0.58,0.6,0.86,0.84c0.25,0.23,0.5,0.43,0.71,0.59c0.17,0.13,0.32,0.24,0.45,0.33
		c-2,0.61-3.77,1.02-4.57,1.2c-0.09,0.03-0.18,0.07-0.27,0.1c-0.07,0.04-0.16,0.06-0.25,0.08h-0.01
		c-2.48,3.04-13.05,4.75-13.72,4.85c-0.02,0.01-0.03,0.01-0.03,0.01c-0.02-0.01-0.03-0.02-0.05-0.02c-0.01,0-0.01,0-0.01-0.01
		c-0.17,0.07-0.34,0.13-0.51,0.19c0.09,0.02,0.13,0.03,0.13,0.03c-1.57,0.82-3.18,1.43-4.7,1.87c-0.21-0.08-0.41-0.16-0.61-0.25
		c-2.95-1.31-4.71-4.26-5.02-4.81c1.22,2.97,2.86,4.43,3.92,5.1h0.01c0.18,0.12,0.34,0.21,0.47,0.28c-3.47,0.85-6.24,0.87-6.54,0.87
		c-0.02,0-0.03,0-0.03,0c-0.05-0.04-0.1-0.07-0.14-0.1c-0.08-0.06-0.15-0.12-0.22-0.17c-0.42-0.34-0.8-0.67-1.16-1.02
		c-5.41-5.12-4.35-11.27-4.35-11.27c0.02,0.03,0.04,0.05,0.07,0.07c0.59-4.77,3.93-7.17,4.33-7.43c0.01-0.01,0.02-0.02,0.03-0.02
		c0.01-0.01,0.01-0.01,0.01-0.01c6.34-2.63,9.08-2.2,9.08-2.2s0,0-0.01,0.01s-0.01,0.02-0.02,0.02c0,0,0,0.01-0.01,0.01
		c0,0.01-0.01,0.01-0.01,0.01c0,0.01-0.01,0.02-0.03,0.04c-0.46,0.59-3.05,4.04-3.14,7.98c0,0.04,0,0.07,0,0.1
		c0,0.09,0,0.18,0.01,0.27c0,0.05,0,0.1,0.01,0.15c0.01,0.03,0.01,0.05,0.01,0.05s0,0.02,0,0.04c0.01,0.08,0.01,0.25,0.03,0.5
		c-0.01,0.02,0,0.05,0.01,0.07c0,0.02,0,0.04,0.01,0.07c0,0.06,0.01,0.12,0.02,0.18c0,0.01,0,0.01,0,0.02
		c0,0.08,0.01,0.17,0.03,0.25c0.16,0.99,0.48,2.46,1.37,3.86c1.33,2.51,3.78,4.36,4.78,4.69c0.65,0.3,1.29,0.4,1.9,0.43
		c-0.28-0.15-0.73-0.4-1.28-0.8c-0.08-0.06-0.16-0.12-0.24-0.18c-5.02-3.7-5.27-9.87-5.27-9.87c0.02,0.01,0.04,0.01,0.06,0.02
		c-0.15-5.09,4.1-8.21,4.36-8.4c0.01-0.01,0.01-0.01,0.01-0.01c0-0.07,0-0.07,0.07-0.07c0.06-0.01,0.12-0.02,0.18-0.04
		c1.03-0.47,2.15-0.83,3.25-1.12c-0.18,0.16-0.34,0.33-0.47,0.51c-0.71,0.82-1.11,1.72-1.33,2.57c-0.52,1.91-0.14,3.57-0.14,3.57
		c-0.08-1.31,0.19-2.46,0.62-3.44c0.57-1.33,1.44-2.34,2.15-3c0.22-0.22,0.43-0.39,0.6-0.53c2.94-0.61,5.42-0.68,5.42-0.68
		s0,0-0.01,0.01c0,0.01,0,0.01-0.01,0.02c0,0,0,0,0,0.01c-0.22,0.38-2.01,3.73-1.82,7.18c0,0.02,0,0.05,0.01,0.08c0,0,0,0.01,0,0.02
		c0,0.02,0,0.03,0.01,0.05c0,0.04,0,0.09,0.01,0.13c0,0.02,0,0.05,0.01,0.07c0,0.02,0,0.05,0.01,0.07c0.06,0.47,0.17,0.95,0.31,1.45
		c0,0.07,0.08,0.28,0.08,0.35c0.06,0.17,0.12,0.32,0.16,0.47c0.01,0.02,0.01,0.03,0.02,0.05c0,0.01,0,0.02,0.01,0.03
		c0.85,2.28,2.53,4.17,3.26,4.68c1.12,0.84,1.97,1.11,2.99,1.26c-1.76-1.14-2.98-2.63-3.8-3.97c-0.06-0.08-0.11-0.16-0.16-0.24
		c-0.09-0.13-0.16-0.25-0.24-0.38c-0.02-0.03-0.03-0.06-0.05-0.09c-0.09-0.16-0.17-0.31-0.26-0.47c-0.31-0.6-0.54-1.17-0.69-1.76
		c-0.01-0.04-0.02-0.07-0.03-0.1c0-0.02-0.01-0.03-0.01-0.04c-0.01-0.03-0.02-0.06-0.03-0.08c0-0.02-0.01-0.03-0.01-0.04
		c0-0.01-0.01-0.02-0.01-0.03c-0.02-0.07-0.03-0.11-0.03-0.11c-1.17-4.82,2-8.88,2-8.88s0.01,0,0.02-0.01
		c0.43-0.15,8.36-2.89,13.96-2.09c0.01,0,0.02,0,0.02,0s0,0-0.01,0.01c-0.01,0-0.01,0.01-0.02,0.02c-0.02,0.01-0.06,0.04-0.1,0.07
		c-0.65,0.57-3.58,3.41-2.63,8.65c0,0.01,0,0.01,0,0.02s0.01,0.03,0.01,0.04c0.08,0.27,0.57,1.71,2.21,3.1
		c-0.62-1.2-0.85-2.43-0.92-3.39c-0.03-0.4-0.04-0.75-0.02-1.03c-0.01-0.02-0.01-0.04,0-0.05c-0.01-0.16-0.01-0.32,0-0.46
		c0.07-4.84,3.24-7.24,3.24-7.24c0.19-0.09,1.48-0.17,3.28-0.24c2.02-0.16,3.96-0.31,5.9-0.41c2.05,0.02,4.17-0.03,5.95,0.07h0.07
		c0.28-0.01,0.49,0.06,0.78,0.05c0.25,0.01,0.49,0.02,0.72,0.03c0.01,0,0.03,0,0.04,0c0.33,0,1.49-0.38,3.62-0.4
		c0.01,0,0.02,0,0.03,0c1.08,0,2.4,0.08,3.99,0.36c-0.01,0.03-0.01,0.05-0.01,0.07c0,0.16,0,0.32,0.01,0.48
		c0.02,0.3,0.06,0.59,0.12,0.85c0.1,0.48,0.26,0.89,0.41,1.21c0.04,0.09,0.08,0.17,0.12,0.25c-0.03-0.09-0.06-0.18-0.08-0.27
		c-0.09-0.37-0.11-0.78-0.09-1.19c0.01-0.29,0.04-0.57,0.09-0.83c0.02-0.15,0.05-0.3,0.08-0.43c0.01-0.01,0.01-0.02,0.01-0.03
		c0.24,0.04,0.47,0.07,0.69,0.11c0.77,0.11,1.46,0.17,2.09,0.21c0.04,0.01,0.07,0.01,0.1,0.01c2.59,0.16,4.2-0.07,6.91,0.78
		c0.09,0.03,0.19,0.06,0.28,0.09c0,0,0.06,0,0.15,0.01c0.1,0,0.25,0.01,0.42,0.02c0.01,0,0.02,0,0.03,0
		c0.33,0.03,0.75,0.06,1.19,0.11c0.49,0.07,1,0.15,1.4,0.26c0.09,0.02,0.17,0.04,0.25,0.07l-0.5,0.05l-0.14,0.01L95.85,32.29z"/>
</g>
<g>
	<path class="st6" d="M92.53,31.63c-2.71-0.85-4.32-0.62-6.91-0.78c-0.03,0-0.06,0-0.1-0.01c-0.63-0.04-1.32-0.1-2.09-0.21
		c-0.22-0.04-0.45-0.07-0.69-0.11c0,0.01,0,0.02-0.01,0.03c-0.03,0.13-0.06,0.28-0.08,0.43c-0.05,0.26-0.08,0.54-0.09,0.83
		c-0.02,0.41,0,0.82,0.09,1.19c0.19-0.07,0.29-0.12,0.29-0.12c2.68,0.56,9.37-1.13,9.37-1.13l0.2,0.03c0.1-0.02,0.2-0.04,0.3-0.06
		C92.72,31.69,92.62,31.66,92.53,31.63z"/>
	<path class="st6" d="M71.48,40.62c-0.17,0.05-0.31,0.09-0.42,0.12c-0.16,0.05-0.25,0.07-0.25,0.07s0.1-0.01,0.26-0.05
		c0.08-0.02,0.18-0.05,0.29-0.08c0.12-0.03,0.26-0.08,0.41-0.14c-0.1,0.03-0.19,0.05-0.28,0.08H71.48z"/>
	<path class="st6" d="M82.08,30.96c-0.01-0.16-0.01-0.32-0.01-0.48c0-0.02,0-0.04,0.01-0.07c-1.59-0.28-2.91-0.36-3.99-0.36
		c-0.01,0-0.02,0-0.03,0c-2.13,0.02-3.29,0.4-3.62,0.4c-0.01,0-0.03,0-0.04,0c-0.23-0.01-0.47-0.02-0.72-0.03
		c-0.29,0.01-0.5-0.06-0.78-0.05h-0.07c-1.78-0.1-3.9-0.05-5.95-0.07c-1.94,0.1-3.88,0.25-5.9,0.41c-1.8,0.07-3.09,0.15-3.28,0.24
		c0,0-3.17,2.4-3.24,7.24c-0.01,0.14-0.01,0.3,0,0.46c0-0.2,0.01-0.36,0.02-0.47C54.49,38.06,54.5,38,54.5,38
		c0.07,0.06,0.15,0.11,0.23,0.15c0.09,0.02,0.19,0.07,0.27,0.15l0.01,0.01c0.07,0.04,0.15,0.07,0.23,0.1c1,0.39,2.32,0.39,3.72,0.17
		c3.4-0.5,7.27-2.26,8.16-2.68c0.53-1.44,1.63-3.55,3.7-4.53c0.02-0.01,0.04-0.02,0.05-0.03c0.167-0.108,0.343-0.177,0.51-0.227
		C70.057,32.13,69.42,35.3,69.42,35.3c0.11,0.37,0.28,0.64,0.5,0.82c0.13,0.11,0.27,0.19,0.43,0.24c0.8,0.28,1.9-0.12,2.8-0.58
		c0.37-0.19,0.7-0.4,0.96-0.57c0.19-0.12,0.34-0.23,0.44-0.3c0.06-0.64,0.26-1.39,0.68-2.29c0,0-0.33,1-0.34,2.23
		c2.25,0.39,6.52-1.32,7.72-1.83c-0.15-0.32-0.31-0.73-0.41-1.21C82.14,31.55,82.1,31.26,82.08,30.96z"/>
	<path class="st6" d="M55.93,31.22c0.01-0.01,0.01-0.01,0.01-0.01s-0.01,0-0.02,0c-5.6-0.8-13.53,1.94-13.96,2.09
		c-0.01,0.01-0.02,0.01-0.02,0.01s-3.17,4.06-2,8.88c0.02,0.01,0.03,0.01,0.05,0.02c-0.28-1.21-0.25-2.07-0.25-2.07
		c0.19,0.8,0.63,1.2,1.19,1.36c1.06,0.27,2.57-0.37,3.76-1.04c0.65-0.36,1.2-0.73,1.53-0.96c-0.03-0.86,0.04-1.78,0.23-2.76
		c-0.02,0.26-0.08,1.24,0.06,2.55c0.03-0.03,0.05-0.04,0.05-0.04c0.63,0.84,2.14,0.42,3.43-0.21c0.89-0.51,1.53-0.91,1.74-1.05
		c0.34-2.18,1.35-5.15,4.19-6.77H55.93z"/>
	<path class="st6" d="M40.22,43.02c-0.06-0.16-0.12-0.31-0.16-0.43c0.15,0.59,0.38,1.16,0.69,1.76c-0.2-0.42-0.37-0.85-0.5-1.25
		C40.24,43.07,40.23,43.05,40.22,43.02z"/>
	<path class="st6" d="M38.43,41.21c0.04,0.61,0.18,1.21,0.39,1.8c0-0.07-0.08-0.28-0.08-0.35C38.6,42.16,38.49,41.68,38.43,41.21z"
		/>
	<path class="st6" d="M32.51,55.17v-0.01H32.5C32.5,55.17,32.5,55.17,32.51,55.17z"/>
	<path class="st6" d="M30.95,54.24c0.55,0.4,1,0.65,1.28,0.8h0.01c0.12,0.06,0.2,0.1,0.26,0.12c-0.08-0.04-0.16-0.08-0.23-0.12
		C31.79,54.79,31.36,54.52,30.95,54.24z"/>
	<path class="st6" d="M40.2,33.6c0.01-0.01,0.01-0.01,0.01-0.02c0.01-0.01,0.01-0.01,0.01-0.01s-2.48,0.07-5.42,0.68
		c-0.17,0.14-0.38,0.31-0.6,0.53c-0.71,0.66-1.58,1.67-2.15,3c-0.43,0.98-0.7,2.13-0.62,3.44c0,0-0.38-1.66,0.14-3.57
		c0.22-0.85,0.62-1.75,1.33-2.57c0.13-0.18,0.29-0.35,0.47-0.51c-1.1,0.29-2.22,0.65-3.25,1.12c-0.06,0.02-0.12,0.03-0.18,0.04
		c-0.07,0-0.07,0-0.07,0.07c0,0,0,0-0.01,0.01c-0.26,0.19-4.51,3.31-4.36,8.4c0.3,0.1,0.6,0.19,0.89,0.26
		c2.04,0.49,3.95,0.26,5.58-0.27c2.79-0.91,4.8-2.68,5.4-3.26c0.04-2.16,0.61-4.98,2.83-7.33C40.2,33.6,40.2,33.6,40.2,33.6z"/>
	<path class="st6" d="M24.07,44.93c0.01,0.01,0.01,0.03,0.01,0.04c0-0.02,0-0.04,0-0.04s0-0.02-0.01-0.05
		C24.06,44.9,24.06,44.91,24.07,44.93z"/>
	<path class="st6" d="M27.23,36.33c0.01,0,0.01-0.01,0.01-0.01v-0.01c0.01-0.01,0.01-0.01,0.01-0.01c0.01,0,0.01,0,0.01,0
		c0.01-0.01,0.01-0.01,0.01-0.01s-2.74-0.43-9.08,2.2c0,0,0,0-0.01,0.01c-0.01,0-0.02,0.01-0.03,0.02c-0.4,0.26-3.74,2.66-4.33,7.43
		c0.26,0.29,0.56,0.52,0.88,0.69c0.43,0.23,0.9,0.35,1.4,0.4c0.23,0.02,0.46,0.02,0.69,0.02c0.05,0,0.11,0,0.16,0
		c1.06-0.06,2.17-0.41,3.17-0.82c1.14-0.48,2.12-1.05,2.73-1.43c0.33-2.21,1.33-5.77,4.37-8.47C27.22,36.34,27.23,36.34,27.23,36.33
		z"/>
	<path class="st6" d="M14.95,39.36c0.01-0.01,0.01-0.01,0.01-0.01c-2.54,0.72-4.53,1.67-5.79,2.9c-1.69,2.77,1.36,3.22,2.49,3.29
		C12,43.9,12.86,41.17,14.95,39.36z"/>
	<path class="st6" d="M8.54,42.97c-0.28,0.36-0.48,0.72-0.61,1.01C7.95,44,7.98,44.02,8,44.04c0.35-0.69,0.72-1.24,0.99-1.61
		C8.83,42.6,8.68,42.78,8.54,42.97z"/>
</g>
</svg>
