<?xml version="1.0" encoding="utf-8"?>
<!-- Generator: Adobe Illustrator 19.1.0, SVG Export Plug-In . SVG Version: 6.00 Build 0)  -->
<svg version="1.1" id="Layer_4" xmlns="http://www.w3.org/2000/svg" xmlns:xlink="http://www.w3.org/1999/xlink" x="0px" y="0px"
	 viewBox="0 0 100 100" style="enable-background:new 0 0 100 100;" xml:space="preserve">
<style type="text/css">
	.st0{fill:#6B5039;}
	.st1{fill:#A07A5C;stroke:#A07A5C;stroke-width:0.04;stroke-miterlimit:10;}
	.st2{fill:#999999;stroke:#999999;stroke-width:0.04;stroke-miterlimit:10;}
	.st3{fill:#E6E6E6;stroke:#E6E6E6;stroke-width:0.04;stroke-miterlimit:10;}
	.st4{fill:#565655;stroke:#565655;stroke-width:0.04;stroke-miterlimit:10;}
	.st5{fill:#DBD9D9;stroke:#DBD9D9;stroke-width:0.04;stroke-miterlimit:10;}
	.st6{fill:#3F2D20;stroke:#3F2D20;stroke-width:0.04;stroke-miterlimit:10;}
	.st7{fill:#C1C1C1;stroke:#C1C1C1;stroke-width:0.04;stroke-miterlimit:10;}
	.st8{fill:#826346;stroke:#826346;stroke-width:0.04;stroke-miterlimit:10;}
	.st9{fill:#B5B5B5;stroke:#B5B5B5;stroke-width:0.04;stroke-miterlimit:10;}
</style>
<g id="XMLID_1_">
	<path class="st0" d="M68.36,25.61c0.05,0.34,0.1,0.7,0.14,1.04c-1.77,1.15-3.15,0.46-3.65,0.13c-0.05-0.41-0.1-0.83-0.16-1.27
		c0.02,0.01,0.04,0.02,0.06,0.03c0.88,0.32,1.84,0.38,2.75,0.25C67.79,25.75,68.08,25.69,68.36,25.61z"/>
	<path class="st0" d="M65.69,15.21c0.06,0.15,0.2,0.44,0.39,0.86c-0.75-0.27-1.25-0.11-1.49,0.02l-0.22-0.74
		c0.34-0.04,0.67-0.07,0.97-0.1C65.46,15.23,65.58,15.22,65.69,15.21z"/>
	<path class="st0" d="M64.35,18.03c0.05-0.01,0.09-0.03,0.13-0.06c-0.3,1.04-1.2,0.29-1.2,0.29l-0.57-1.66c0,0,0.22-0.5-1.57,0.1
		c-0.16-0.28-0.3-0.52-0.41-0.71c-0.03-0.05-0.06-0.1-0.09-0.15c0.17-0.03,0.34-0.06,0.52-0.08c0.27-0.04,0.55-0.08,0.84-0.12
		c0.18-0.03,0.37-0.05,0.56-0.07c0.08-0.01,0.15-0.02,0.23-0.03l0.59,1.97c0.06,0.2,0.19,0.36,0.37,0.46
		c0.12,0.06,0.25,0.09,0.38,0.09C64.2,18.06,64.28,18.05,64.35,18.03z"/>
	<path class="st0" d="M64.16,25.26c0.07,0.37,0.14,0.73,0.2,1.08c-0.77-0.74-1.28-0.86-1.6-0.81c-0.06-0.41-0.14-0.84-0.24-1.27
		c-0.05-0.21-0.09-0.43-0.14-0.65c0.07,0.1,0.15,0.2,0.23,0.3c0.27,0.32,0.55,0.66,0.91,0.94C63.72,25.01,63.94,25.15,64.16,25.26z"
		/>
	<path class="st0" d="M60.61,16.05c0.08,0.21,0.18,0.45,0.31,0.73c-0.57,0.21-0.81,0.49-0.88,0.78c-0.34-0.74-0.56-1.29-0.67-1.55
		c0.01,0,0.02,0,0.03,0c0.17-0.02,0.35-0.05,0.54-0.08c0.18-0.02,0.38-0.05,0.59-0.08C60.56,15.91,60.58,15.98,60.61,16.05z"/>
	<g>
		<path class="st1" d="M69.91,23.03c-0.14,0.11-0.31,0.23-0.52,0.34c-0.03,0.02-0.06,0.04-0.1,0.06c-0.26,0.12-0.56,0.24-0.91,0.31
			c-0.12,0.03-0.23,0.05-0.36,0.07c-0.61,0.1-1.33,0.07-2.05-0.15c-0.42-0.13-0.86-0.38-1.23-0.67c-0.23-0.18-0.43-0.4-0.62-0.63
			c-0.11-0.14-0.22-0.28-0.33-0.41c-0.25-0.35-0.49-0.7-0.71-1.06c-0.74-1.18-1.35-2.37-1.81-3.32c-0.13-0.29-0.25-0.55-0.35-0.79
			c-0.57,0.21-0.81,0.49-0.88,0.78c0.27,0.6,0.61,1.32,1.02,2.13c0.2,0.38,0.41,0.78,0.65,1.19c0,0.01,0,0.01,0.01,0.02
			c0.1,0.19,0.21,0.39,0.33,0.58c0.39,0.6,0.79,1.25,1.28,1.83c0.17,0.21,0.34,0.4,0.53,0.57c0.2,0.18,0.41,0.35,0.65,0.48
			c0.18,0.1,0.37,0.19,0.57,0.26c0.71,0.26,1.51,0.29,2.29,0.19c0.27-0.04,0.55-0.1,0.82-0.18c0.48-0.13,0.95-0.32,1.34-0.58
			c0.01,0,0.01-0.01,0.02-0.01c0.15-0.09,0.29-0.21,0.39-0.31c0.04-0.05,0.08-0.11,0.09-0.13c0-0.01,0.07-0.2,0.07-0.24
			c0.04-0.16,0.05-0.34,0.03-0.52C70.07,22.9,70,22.96,69.91,23.03z"/>
		<path class="st1" d="M64.49,27.11c-0.04-0.25-0.09-0.5-0.13-0.77c-0.77-0.74-1.28-0.86-1.6-0.81c0.11,0.7,0.18,1.37,0.29,1.99
			c0.22,1.99,0.34,3.55,0.35,4.62c0.03,1.07,0.05,1.64,0.05,1.64v0.01c0,0-0.02,0.57-0.05,1.62c0,1.05-0.12,2.63-0.33,4.63
			c-0.27,1.97-0.63,4.38-1.44,7.05c-0.8,2.67-1.94,5.64-3.8,8.56c-0.42,0.75-1.01,1.42-1.54,2.15c-0.27,0.36-0.61,0.67-0.91,1.01
			c-0.32,0.34-0.62,0.7-0.99,0.99c-0.92,0.88-2.03,1.63-3.26,2.2c-0.29,0.42-0.58,1.01-0.18,1.35c1.26-0.51,2.42-1.23,3.43-2.09
			l0.57-0.45c0.18-0.16,0.35-0.34,0.52-0.5c0.34-0.34,0.68-0.67,1.01-1.01c0.59-0.73,1.23-1.41,1.74-2.17
			c2.13-2.97,3.49-6.1,4.46-8.93c0.21-0.72,0.43-1.41,0.63-2.08c0.19-0.67,0.33-1.34,0.49-1.96c0.35-1.26,0.49-2.45,0.7-3.51
			c0.31-2.13,0.49-3.83,0.52-4.99c0.05-0.58,0.09-1.02,0.11-1.32c0.02-0.3,0.03-0.46,0.03-0.46s-0.02-0.62-0.13-1.78
			C64.96,30.94,64.81,29.25,64.49,27.11z"/>
		<path class="st1" d="M53.29,6.85c0.36,0.31,0.72,0.62,1.08,0.93c0.38,0.28,0.67,0.64,0.99,0.98c0.31,0.34,0.65,0.65,0.91,1.01
			c0.54,0.73,1.12,1.4,1.55,2.15c0.08,0.13,0.16,0.25,0.23,0.38c0.22-0.1,0.44-0.19,0.66-0.25c0.13-0.04,0.26-0.08,0.39-0.13
			c-0.27-0.43-0.56-0.87-0.87-1.3c-0.51-0.75-1.15-1.43-1.74-2.17c-0.69-0.64-1.31-1.39-2.11-1.95c-1.46-1.26-3.3-2.23-5.22-2.7
			c-1.97-0.48-4.14-0.47-6.15,0.23C41,4.72,39.14,5.97,37.53,7.52c-3.23,3.15-5.43,7.47-6.91,12.01c-0.31,1.16-0.7,2.3-0.93,3.49
			l-0.39,1.77l-0.27,1.8c-0.22,1.2-0.28,2.41-0.4,3.61c-0.1,1.21-0.09,2.47-0.14,3.7c0.03,4.84,0.7,9.76,2.13,14.34
			c0.78,2.26,1.62,4.49,2.81,6.51c1.15,2.02,2.48,3.94,4.12,5.47c1.61,1.55,3.47,2.79,5.47,3.49c0.49,0.13,0.99,0.26,1.48,0.39
			c-0.01-0.12-0.02-0.25-0.02-0.37v-0.44l0.03-0.39l0.01-0.1c-0.44-0.12-0.89-0.25-1.34-0.37c-1.99-0.76-3.74-2.09-5.21-3.67
			c-0.76-0.77-1.38-1.67-2.03-2.54c-0.56-0.94-1.18-1.85-1.65-2.85c-1.03-1.95-1.78-4.06-2.43-6.2c-1.23-4.31-1.77-8.86-1.81-13.39
			c-0.01-4.53,0.57-9.1,1.79-13.4c0.65-2.15,1.4-4.26,2.43-6.21c0.46-1,1.08-1.92,1.64-2.85c0.66-0.88,1.27-1.78,2.04-2.55
			c1.47-1.57,3.22-2.92,5.23-3.67c2.02-0.72,4.18-0.77,6.13-0.21l0.75,0.2l0.69,0.3c0.44,0.22,0.92,0.38,1.32,0.67
			C52.48,6.33,52.88,6.59,53.29,6.85z"/>
		<path class="st1" d="M56.77,4.68c-1.19-0.74-2.52-1.17-3.88-1.52c-0.71-0.01-1.43-0.04-2.15-0.07c1.02,0.37,1.97,0.86,2.83,1.43
			C53.73,4.16,54.36,3.77,56.77,4.68z"/>
	</g>
	<g>
		<path class="st2" d="M67.36,14.63c0,0-0.02-0.68-0.25-1.24c-0.06,0.36-0.53,0.65-0.53,0.65l-2.72-0.32
			c0.03,0.05,0.05,0.1,0.07,0.15l0.18,0.61c0.31,0,0.61,0,0.88,0.02c0.27,0.01,0.51,0.03,0.74,0.05c0.32,0.03,0.6,0.08,0.83,0.14
			c0.41,0.09,0.65,0.2,0.65,0.22c0,0.01-0.15,0.08-0.41,0.13c-0.03,0.01-0.05,0.01-0.08,0.01c0.11,0.27,0.22,0.55,0.34,0.82
			c0.13-0.13,0.33-0.22,0.61,0.15L67.36,14.63z"/>
		<path class="st2" d="M63.24,13.82c-0.02-0.01-0.04-0.01-0.06-0.01c-0.03,0-0.05,0.01-0.08,0.01c-0.07,0.03-0.13,0.07-0.17,0.14
			c-0.03,0.07-0.04,0.14-0.02,0.21l0.11,0.36l0.28,0.95l0.56,1.88c0.02,0.08,0.07,0.13,0.13,0.17c0.07,0.04,0.15,0.04,0.22,0.02
			c0.03-0.01,0.06-0.02,0.08-0.04c-0.16-0.15-0.35-0.52-0.56-1.36C63.4,14.82,63.28,14.14,63.24,13.82z"/>
		<path class="st2" d="M62.96,13.35c0.07-0.02,0.12-0.03,0.19-0.04c-0.84-0.35-1.24,0.73-1.24,0.73l-1.08,0.23
			c-1.7,0.4-2.63,0.34-2.95,0.3c0.16,0.5,0.7,0.86,0.7,0.86l-0.78,0.49l0.1,0.25l0.14,0.38l0.36-0.03c0,0,0.04,0.2,0.12,0.5
			c0.06-0.28,0.22-0.47,0.59-0.18c-0.12-0.37-0.21-0.62-0.26-0.75c-0.57,0.08-0.92,0.11-0.94,0.08c0-0.02,0.11-0.12,0.33-0.28
			c0.13-0.08,0.3-0.18,0.5-0.28c0.14-0.08,0.3-0.15,0.48-0.23c0.13-0.06,0.26-0.11,0.41-0.16c0.34-0.12,0.72-0.24,1.12-0.33
			c0.28-0.07,0.56-0.13,0.85-0.18c0.28-0.05,0.55-0.1,0.83-0.13c0.03,0,0.05-0.01,0.08-0.01l-0.08-0.25
			c-0.06-0.2-0.03-0.41,0.07-0.6C62.59,13.54,62.76,13.4,62.96,13.35z"/>
		<path class="st2" d="M52.74,67.42c-0.03,0.07-0.06,0.14-0.09,0.2c-0.01,0.02-0.02,0.04-0.04,0.06c0,0.01,0,0.01-0.01,0.02
			c-0.1,0.29-0.23,0.58-0.4,0.86l-0.04,0.06l-0.12,0.08l-1.49,0.99l-0.15,0.1l-0.23-0.02c-1.15-0.07-2.29-0.19-3.44-0.3l-0.13-0.01
			l-0.1-0.06c-0.29-0.17-0.36-0.26-0.5-0.39c-0.12-0.13-0.22-0.26-0.32-0.39c-0.1-0.14-0.19-0.29-0.26-0.44
			c-0.3,0.2-0.76,0.56-0.72,0.8c0.06,0.34,0,0.85,2.51,1.02c2.5,0.17,3.07,0.23,3.07,0.23l2.97-1.88
			C53.25,68.35,54.18,67.68,52.74,67.42z"/>
		<path class="st2" d="M51.25,66.33c0.07-0.26,0.16-0.6,0.25-0.94c0.04-0.16,0.09-0.33,0.13-0.48l-1.59,0.02h-0.01h-0.01
			c-0.14,0.04-0.28,0.08-0.42,0.12v0.01c0.03,0.33,0.06,0.64,0.11,0.93C50.02,65.66,50.59,65.31,51.25,66.33z"/>
		<path class="st2" d="M47.88,96.35c-0.06-0.01-0.13-0.02-0.19-0.03c0,0.26,0.07,0.5,0.21,0.73c0.04,0.07,0.09,0.14,0.15,0.2
			c0.42-0.38,1.45-1.01,2.9-0.05c0.06-0.07,0.11-0.14,0.15-0.22c0.07-0.12,0.12-0.27,0.15-0.39c0.01-0.05,0.02-0.14,0.03-0.23
			c0-0.01,0-0.02,0-0.04c-0.12,0.03-0.24,0.05-0.36,0.07C49.8,96.58,48.79,96.43,47.88,96.35z"/>
		<path class="st2" d="M50.19,61.35c0.5-0.2,0.98-0.44,1.44-0.71c-0.25-0.58-0.58-0.76-0.74-0.81c0,0-0.01-0.01-0.01,0
			c-0.02,0.01-0.05,0.03-0.08,0.05c-0.2,0.13-0.46,0.36-0.68,0.69c-0.01,0.02-0.03,0.04-0.04,0.06c-0.14,0.21-0.25,0.47-0.35,0.75
			c-0.01,0.05-0.03,0.1-0.05,0.16c0.14-0.04,0.28-0.1,0.42-0.16C50.13,61.38,50.16,61.36,50.19,61.35z"/>
	</g>
	<g>
		<path class="st3" d="M51.02,58.81c-0.77,0.05-1.53,0.05-2.29,0.04h-0.01c-0.17,0.04-0.41,0.12-0.61,0.21
			c-0.21,0.09-0.4,0.2-0.59,0.32c-0.19,0.13-0.36,0.27-0.51,0.43c-0.06,0.06-0.11,0.12-0.17,0.19c-0.03,0.04-0.07,0.08-0.09,0.12
			c1.87-1.23,2.11,0.54,2.11,0.54c0.62-1.61,1.77-1.79,2.35-1.75C51.15,58.87,51.09,58.84,51.02,58.81z"/>
		<path class="st3" d="M49.02,71.28c0.12,0.04,0.18,0.07,0.18,0.08s-0.02,0.02-0.06,0.05c0.26,0.08,0.65,0.35,0.86,1.16
			c0,0,0.01-0.09,0.04-0.24c0.08-0.36,0.29-1.04,0.74-1.38c0-0.01,0-0.01,0.01-0.01c0,0,0.01-0.01,0.02-0.02
			c0-0.02,0.03-0.04,0.04-0.06C50.62,70.84,49.77,70.83,49.02,71.28z"/>
	</g>
	<path class="st0" d="M51.13,62c-0.29,0.42-0.58,1.01-0.18,1.35c-0.47,0.2-0.95,0.36-1.45,0.5c0-0.15,0-0.29-0.02-0.44
		c-0.01-0.26-0.01-0.53,0.01-0.78C50.06,62.46,50.61,62.25,51.13,62z"/>
	<g>
		<path class="st4" d="M69.45,17.14c-0.17-1.13-0.42-2.24-0.68-3.35c-0.07-0.26-0.13-0.59-0.3-0.91c-0.16-0.3-0.39-0.57-0.65-0.78
			c-0.53-0.42-1.15-0.62-1.74-0.75c-0.49-0.1-0.98-0.14-1.46-0.15c-0.11,0-0.22,0-0.33,0c-0.36,0-0.71,0.01-1.07,0.05
			c-0.21,0.02-0.43,0.04-0.66,0.07c-0.01,0.01-0.03,0.01-0.04,0.01c-0.63,0.07-1.26,0.13-1.89,0.25c-0.2,0.03-0.4,0.07-0.6,0.11
			c-0.12,0.03-0.25,0.06-0.37,0.09c-0.19,0.04-0.37,0.09-0.56,0.14c-0.13,0.05-0.26,0.09-0.39,0.13c-0.22,0.06-0.44,0.15-0.66,0.25
			c-0.1,0.04-0.19,0.08-0.29,0.12l-0.46,0.25c-0.04,0.02-0.08,0.04-0.11,0.07c-0.12,0.07-0.23,0.16-0.34,0.24
			c-0.28,0.22-0.56,0.5-0.74,0.89c-0.1,0.18-0.15,0.4-0.17,0.62c-0.01,0.22-0.01,0.4,0.09,0.66c0,0,0.01,0,0.01,0.01
			s0.01,0.02,0.01,0.03l1.49,4l0.19,0.51c0.07,0.17,0.13,0.33,0.21,0.51c0.15,0.37,0.37,0.72,0.66,1.01c0.3,0.29,0.68,0.5,1.08,0.59
			c0.41,0.09,0.81,0.08,1.21-0.03l-0.14-0.48c-0.29,0.06-0.64,0.05-0.93-0.04c-0.29-0.09-0.55-0.26-0.75-0.49
			c-0.2-0.23-0.37-0.51-0.47-0.82c-0.05-0.14-0.11-0.33-0.16-0.5l-0.17-0.51l-1.37-4.1v-0.01l-0.02-0.03c0-0.01-0.03-0.15-0.01-0.24
			c0.01-0.09,0.03-0.19,0.09-0.29c0.09-0.2,0.27-0.38,0.48-0.55c0.09-0.05,0.16-0.11,0.24-0.16v-0.01c0.03-0.02,0.07-0.04,0.11-0.06
			l0.38-0.2c0.13-0.05,0.26-0.1,0.38-0.15c0.15-0.06,0.3-0.12,0.46-0.16c0.21-0.06,0.42-0.12,0.63-0.17
			c0.08-0.03,0.16-0.05,0.25-0.07c0.22-0.05,0.44-0.1,0.66-0.13c0.08-0.02,0.16-0.04,0.25-0.05c0.61-0.12,1.24-0.18,1.86-0.26
			l0.03-0.01c0.35-0.05,0.71-0.09,1.07-0.11c0.18-0.02,0.36-0.03,0.54-0.03c0.31-0.01,0.62,0.01,0.93,0.03c0,0,0,0,0.01,0.01
			c0.22,0.01,0.44,0.04,0.65,0.08c0.52,0.1,1,0.27,1.37,0.54c0.19,0.14,0.34,0.3,0.45,0.49c0.11,0.18,0.16,0.41,0.25,0.7
			c0.3,1.08,0.56,2.17,0.82,3.27l0.17,0.8c0.03,0.24,0.02,0.51-0.02,0.75c-0.03,0.17-0.09,0.33-0.16,0.47
			c0.1,0.15,0.22,0.3,0.35,0.45c0.2-0.24,0.32-0.52,0.38-0.8c0.08-0.31,0.1-0.61,0.08-0.94L69.45,17.14z"/>
		<path class="st4" d="M68.8,18.23c0,0-0.8-4.07-1.2-4.74c-0.35-0.58-0.82-0.7-0.94-0.71c0.2,0.14,0.35,0.36,0.45,0.61
			c0.23,0.56,0.25,1.24,0.25,1.24l0.31,1.39l0.55,2.48l0.04,0.2l0.24,0.22l0.01,0.01l0.13,0.12C68.9,18.76,68.8,18.23,68.8,18.23z"
			/>
		<path d="M66.99,32.96c-0.16,0-0.3,0.2-0.3,0.44c0,0.24,0.14,0.44,0.3,0.44c0.16,0,0.29-0.2,0.29-0.44
			C67.28,33.16,67.15,32.96,66.99,32.96z"/>
		<path d="M67.23,28.83c0-0.26-0.15-0.47-0.34-0.47c-0.18,0-0.33,0.21-0.33,0.47c0,0.25,0.15,0.46,0.33,0.46
			C67.08,29.29,67.23,29.08,67.23,28.83z"/>
		<path class="st4" d="M66.8,15.04c0.26-0.05,0.41-0.12,0.41-0.13c0-0.02-0.24-0.13-0.65-0.22c-0.23-0.06-0.51-0.11-0.83-0.14
			c-0.23-0.02-0.47-0.04-0.74-0.05c-0.27-0.02-0.57-0.02-0.88-0.02l-0.18-0.61c-0.02-0.05-0.04-0.1-0.07-0.15
			c-0.13-0.26-0.42-0.42-0.71-0.41c-0.07,0.01-0.12,0.02-0.19,0.04c-0.2,0.05-0.37,0.19-0.46,0.37c-0.1,0.19-0.13,0.4-0.07,0.6
			l0.08,0.25c-0.03,0-0.05,0.01-0.08,0.01c-0.28,0.03-0.55,0.08-0.83,0.13c-0.29,0.05-0.57,0.11-0.85,0.18
			c-0.4,0.09-0.78,0.21-1.12,0.33c-0.15,0.05-0.28,0.1-0.41,0.16c-0.18,0.08-0.34,0.15-0.48,0.23c-0.2,0.1-0.37,0.2-0.5,0.28
			c-0.22,0.16-0.33,0.26-0.33,0.28c0.02,0.03,0.37,0,0.94-0.08c0.05,0.13,0.14,0.38,0.26,0.75c0.03,0.08,0.06,0.18,0.09,0.28
			c0.26,0.71,0.61,1.73,1.16,2.91c0.08,0.17,0.17,0.35,0.26,0.54c-0.33-1.1-0.72-2.25-1.2-3.43h-0.01c-0.14-0.35-0.3-0.71-0.46-1.07
			c0.13-0.01,0.27-0.03,0.42-0.06c0.01,0,0.02,0,0.03,0c0.17-0.02,0.35-0.05,0.54-0.08c0.18-0.02,0.38-0.05,0.59-0.08
			c0.03-0.01,0.07-0.01,0.11-0.01c0.17-0.03,0.34-0.06,0.52-0.08c0.27-0.04,0.55-0.08,0.84-0.12c0.18-0.03,0.37-0.05,0.56-0.07
			c0.08-0.01,0.15-0.02,0.23-0.03l0.59,1.97c0.06,0.2,0.19,0.36,0.37,0.46c0.12,0.06,0.25,0.09,0.38,0.09
			c0.07,0,0.15-0.01,0.22-0.03c0.05-0.01,0.09-0.03,0.13-0.06c0.14-0.06,0.25-0.17,0.33-0.31c0.1-0.19,0.13-0.4,0.07-0.6l-0.29-0.97
			l-0.22-0.74c0.34-0.04,0.67-0.07,0.97-0.1c0.12-0.02,0.24-0.03,0.35-0.04c0.01,0,0.03,0,0.04,0c0.18-0.02,0.35-0.05,0.5-0.07
			c0.19-0.03,0.35-0.05,0.49-0.09C66.75,15.05,66.77,15.05,66.8,15.04z M64.4,17.2c0.02,0.08,0.01,0.15-0.03,0.22
			c-0.02,0.04-0.05,0.07-0.08,0.09c-0.02,0.02-0.05,0.03-0.08,0.04c-0.07,0.02-0.15,0.02-0.22-0.02c-0.06-0.04-0.11-0.09-0.13-0.17
			l-0.56-1.88l-0.28-0.95l-0.11-0.36c-0.02-0.07-0.01-0.14,0.02-0.21c0.04-0.07,0.1-0.11,0.17-0.14c0.03,0,0.05-0.01,0.08-0.01
			c0.02,0,0.04,0,0.06,0.01c0.1,0.02,0.18,0.09,0.21,0.19l0.14,0.48l0.28,0.92L64.4,17.2z"/>
		<path class="st4" d="M58.52,17.02c-0.08-0.3-0.12-0.5-0.12-0.5l-0.36,0.03H58c0,0,0.63,2.45,1.19,3.56
			c0.56,1.12,1.36,0.88,1.36,0.88C59.57,20.68,58.81,18.13,58.52,17.02z"/>
		<path class="st4" d="M57.36,14.26c-0.19,0.32,0.4,1.68,0.4,1.68l0.04-0.02l0.78-0.49c0,0-0.54-0.36-0.7-0.86
			c-0.11-0.3-0.07-0.66,0.33-1.03C58.21,13.54,57.54,13.94,57.36,14.26z"/>
		<path class="st4" d="M50.19,61.38v-0.03c-0.03,0.01-0.06,0.03-0.09,0.03C50.16,61.38,50.19,61.38,50.19,61.38z"/>
	</g>
	<g>
		<path class="st5" d="M68.95,18.07l-0.17-0.8c-0.26-1.1-0.52-2.19-0.82-3.27c-0.09-0.29-0.14-0.52-0.25-0.7
			c-0.11-0.19-0.26-0.35-0.45-0.49c-0.37-0.27-0.85-0.44-1.37-0.54c-0.21-0.04-0.43-0.07-0.65-0.08c-0.01-0.01-0.01-0.01-0.01-0.01
			c-0.31-0.02-0.62-0.04-0.93-0.03c-0.18,0-0.36,0.01-0.54,0.03c-0.36,0.02-0.72,0.06-1.07,0.11l-0.03,0.01
			c-0.62,0.08-1.25,0.14-1.86,0.26c-0.09,0.01-0.17,0.03-0.25,0.05c-0.22,0.03-0.44,0.08-0.66,0.13c-0.09,0.02-0.17,0.04-0.25,0.07
			c-0.21,0.05-0.42,0.11-0.63,0.17c-0.16,0.04-0.31,0.1-0.46,0.16c-0.12,0.05-0.25,0.1-0.38,0.15l-0.38,0.2
			c-0.04,0.02-0.08,0.04-0.11,0.06v0.01c-0.08,0.05-0.15,0.11-0.24,0.16c-0.21,0.17-0.39,0.35-0.48,0.55
			c-0.06,0.1-0.08,0.2-0.09,0.29c-0.02,0.09,0.01,0.23,0.01,0.24l0.02,0.03v0.01l1.37,4.1l0.17,0.51c0.05,0.17,0.11,0.36,0.16,0.5
			c0.1,0.31,0.27,0.59,0.47,0.82c0.2,0.23,0.46,0.4,0.75,0.49c0.29,0.09,0.64,0.1,0.93,0.04l0.14,0.48l0.05-0.01
			c-0.09-0.34-0.18-0.68-0.27-1.03c-0.01-0.05-0.03-0.1-0.05-0.15c0-0.01,0-0.01,0-0.02c-0.09-0.19-0.18-0.37-0.26-0.54
			c-0.55-1.18-0.9-2.2-1.16-2.91c-0.03-0.1-0.06-0.2-0.09-0.28c-0.37-0.29-0.53-0.1-0.59,0.18c0.29,1.11,1.05,3.66,2.03,3.97
			c0,0-0.8,0.24-1.36-0.88C58.63,19,58,16.55,58,16.55h0.04l-0.14-0.38l-0.1-0.25l-0.04,0.02c0,0-0.59-1.36-0.4-1.68
			c0.18-0.32,0.85-0.72,0.85-0.72c-0.4,0.37-0.44,0.73-0.33,1.03c0.32,0.04,1.25,0.1,2.95-0.3l1.08-0.23c0,0,0.4-1.08,1.24-0.73
			c0.29-0.01,0.58,0.15,0.71,0.41l2.72,0.32c0,0,0.47-0.29,0.53-0.65c-0.1-0.25-0.25-0.47-0.45-0.61c0.12,0.01,0.59,0.13,0.94,0.71
			c0.4,0.67,1.2,4.74,1.2,4.74s0.1,0.53-0.16,0.82l-0.13-0.12c0.08,0.12,0.17,0.24,0.26,0.36c0.07-0.14,0.13-0.3,0.16-0.47
			C68.97,18.58,68.98,18.31,68.95,18.07z"/>
		<path class="st5" d="M67.06,15.87c0.19,0.45,0.39,0.89,0.56,1.35l0.26,0.75c0.1,0.17,0.21,0.34,0.34,0.53l-0.55-2.48
			C67.39,15.65,67.19,15.74,67.06,15.87z"/>
		<path class="st5" d="M63.59,14.49l-0.14-0.48c-0.03-0.1-0.11-0.17-0.21-0.19c0.04,0.32,0.16,1,0.49,2.33
			c0.21,0.84,0.4,1.21,0.56,1.36c0.03-0.02,0.06-0.05,0.08-0.09c0.04-0.07,0.05-0.14,0.03-0.22l-0.53-1.79L63.59,14.49z"/>
		<path class="st5" d="M56.37,79.76c-0.41-3.67-0.78-7.35-1.14-11.03l-0.01-0.08c0-0.03,0-0.08-0.01-0.11
			c-0.01-0.06-0.02-0.12-0.04-0.17c-0.04-0.11-0.09-0.23-0.15-0.33c-0.13-0.21-0.31-0.39-0.54-0.54c-0.22-0.15-0.49-0.25-0.77-0.34
			c-0.27-0.07-0.55-0.12-0.84-0.15c-0.04,0.15-0.08,0.29-0.13,0.41c1.44,0.26,0.51,0.93,0.51,0.93l-2.97,1.88
			c0,0-0.57-0.06-3.07-0.23c-2.51-0.17-2.45-0.68-2.51-1.02c-0.04-0.24,0.42-0.6,0.72-0.8c-0.07-0.12-0.13-0.24-0.19-0.36
			c-0.03-0.07-0.06-0.14-0.09-0.21c-0.16,0.1-0.31,0.2-0.46,0.3c-0.21,0.15-0.42,0.3-0.6,0.47c-0.09,0.08-0.19,0.17-0.26,0.24
			c-0.09,0.1-0.19,0.21-0.26,0.29c-0.64,0.73-0.9,1.68-1.08,2.75c-0.17,1.04-0.27,2.19-0.43,3.28l-0.44,3.31l-0.89,6.62l-0.94,6.53
			v0.01c0,0.26,0.05,0.68,0.17,0.95c0.11,0.29,0.26,0.51,0.46,0.64h0.01c-0.12-0.54,0.01-1.27,0.01-1.27s2.32-18.76,2.61-20.42
			c0.26-1.57,0.87-2.03,0.94-2.08c-0.07,0.11-0.59,0.89,0.13,1.47c0.01,0,0.01,0,0.02,0.01c0.13,0.05,0.31,0.1,0.54,0.14
			c0.47,0.08,1.13,0.17,1.8,0.19c0.66,0.04,1.35,0.09,1.86,0.12c0.3,0.02,0.54,0.08,0.69,0.12c0.75-0.45,1.6-0.44,1.83-0.42
			c0.06-0.07,0.12-0.14,0.2-0.21c0.31-0.27,0.73-0.63,1.18-0.93c0.46-0.28,0.92-0.57,1.31-0.71c0.39-0.16,0.68-0.2,0.7-0.17
			c0,0,0,0.02-0.01,0.04c0.16-0.12,0.33-0.22,0.5-0.33c0.04,0.44,0.08,0.87,0.13,1.3c0.67,6.54,1.35,13.1,2.02,19.65
			c0.05-0.12,0.09-0.26,0.12-0.4c0.09-0.37,0.13-0.78,0.14-1.2c0.03-0.84-0.08-1.69-0.18-2.63L56.37,79.76z"/>
		<path class="st5" d="M48.46,63.28c0,0,0.16,4.98,2.03,5.07l0.95-0.48c0.36-0.46,0.62-1.02,0.81-1.63
			c0.04-0.14,0.08-0.28,0.12-0.42c-0.17-0.18-0.34-0.16-0.46-0.1c-0.1,0.29-0.24,0.55-0.36,0.74c-0.08,0.12-0.16,0.21-0.23,0.26
			c-0.05,0.05-0.1,0.08-0.11,0.08c-0.02,0-0.03-0.21,0.04-0.47c-0.66-1.02-1.23-0.67-1.54-0.34c0.02,0.17,0.05,0.33,0.09,0.48
			c0.09,0.4,0.17,0.74,0.29,0.92c0.11,0.2,0.27,0.21,0.28,0.22c0,0-0.03,0.04-0.11,0.05s-0.21-0.02-0.33-0.1
			c-0.25-0.17-0.47-0.51-0.63-0.94c-0.15-0.4-0.27-0.88-0.36-1.39c-0.01-0.03-0.02-0.05-0.02-0.08c-0.01-0.07-0.02-0.14-0.04-0.21
			c-0.01-0.1-0.03-0.2-0.04-0.3c-0.02-0.11-0.03-0.22-0.04-0.33c-0.01-0.09-0.02-0.18-0.02-0.27c-0.02-0.2-0.03-0.42-0.04-0.62
			c0-0.2,0.01-0.39,0.03-0.59c0.02-0.36,0.07-0.71,0.17-1.04c0-0.05,0.02-0.09,0.03-0.14c0.03-0.11,0.07-0.21,0.11-0.31
			c0.11-0.28,0.25-0.53,0.42-0.75c0.07-0.12,0.16-0.23,0.26-0.32c0.34-0.34,0.71-0.5,0.96-0.57c0.27-0.07,0.42-0.05,0.42-0.03
			c0,0.01-0.09,0.05-0.25,0.16c0.16,0.05,0.49,0.23,0.74,0.81c0.14-0.08,0.28-0.16,0.41-0.24c-0.1-0.39-0.28-0.99-0.58-1.31
			c-0.01-0.02-0.03-0.03-0.04-0.04c-0.05-0.05-0.1-0.08-0.15-0.11c0-0.01-0.01-0.01-0.01-0.01c0-0.01-0.01-0.01-0.01-0.01
			s-0.01,0-0.01-0.01h-0.01h-0.01h-0.01c-0.58-0.04-1.73,0.14-2.35,1.75c0,0-0.24-1.77-2.11-0.54c-0.06,0.07-0.11,0.14-0.15,0.21
			c-0.11,0.13-0.18,0.3-0.25,0.45c-0.02,0.05-0.05,0.09-0.07,0.13c-0.02,0.06-0.04,0.12-0.06,0.18
			C46.41,62.37,47.18,66.88,48.46,63.28z"/>
		<path class="st5" d="M50.88,92.61c0,0-0.07-0.31-0.14-0.85c-0.09-0.54-0.16-1.32-0.24-2.25c-0.15-1.86-0.32-4.35-0.44-6.83
			c-0.05-1.25-0.09-2.49-0.14-3.66c-0.03-1.16-0.04-2.25-0.05-3.19c0.02-0.93,0.01-1.71,0.05-2.26c0.01-0.27,0.02-0.48,0.03-0.63
			c0.01-0.15,0.03-0.23,0.03-0.23s0.02,0.08,0.05,0.23c0.01,0.09,0.03,0.21,0.05,0.36l-0.04-0.97C50.01,72.48,50,72.57,50,72.57
			c-0.21-0.81-0.6-1.08-0.86-1.16c-0.12,0.06-0.41,0.17-0.79,0.25c-0.07,0.01-0.14,0.02-0.21,0.03c0.11,0.08,0.19,0.18,0.15,0.31
			c-0.11,0.34-0.57,0.05-0.46,0.62c0.12,0.57,0.74,0.57,0.69,1.09c-0.06,0.51-0.8,0.85-0.74,1.36c0.05,0.52,0.91,0.29,0.79,1.2
			c-0.11,0.91-0.68,0.74-0.74,1.48c-0.05,0.74,0.92,0.74,0.92,1.2c0,0.46-1.09,0.68-0.92,1.48c0.17,0.8,0.63,0.4,0.8,1.2
			c0.17,0.8-0.8,0.74-0.8,1.25c0,0.52,1.03,0.69,1.03,1.43s-1.03,0.51-1.2,1.48c-0.17,0.97,1.54,0.8,1.48,1.48
			c-0.05,0.68-1.53,0.74-1.53,1.54s1.59,0.51,1.65,1.42c0.05,0.92-1.45,0.41-1.54,1.54c-0.06,0.69,1.25,0.4,1.48,1.2
			c0.19,0.67-0.75,0.86-1.29,1.38c0.07,0.01,0.13,0.02,0.2,0.03c0.52,0.06,1.03,0.12,1.5,0.13c0.17,0.01,0.34,0.01,0.51,0
			c0.16-0.01,0.32-0.02,0.47-0.05c0.14-0.02,0.26-0.05,0.39-0.1l-0.08-1.88C50.89,92.56,50.88,92.61,50.88,92.61z"/>
	</g>
	<g>
		<path class="st6" d="M70.92,22.12c-0.33-0.89-0.96-1.49-1.46-2c-0.12-0.12-0.24-0.25-0.34-0.38c-0.13-0.15-0.25-0.3-0.35-0.45
			c-0.09-0.12-0.18-0.24-0.26-0.36l-0.01-0.01l-0.24-0.22l-0.04-0.2c-0.13-0.19-0.24-0.36-0.34-0.53l-0.26-0.75
			c-0.17-0.46-0.37-0.9-0.56-1.35c-0.12-0.27-0.23-0.55-0.34-0.82c-0.14,0.04-0.3,0.06-0.49,0.09c-0.15,0.02-0.32,0.05-0.5,0.07
			c-0.01,0-0.03,0-0.04,0c0.06,0.15,0.2,0.44,0.39,0.86c0.01,0.03,0.03,0.07,0.05,0.11c0.33,0.68,0.78,1.66,1.45,2.78
			c0.16,0.27,0.35,0.56,0.55,0.85c0.1,0.15,0.2,0.29,0.31,0.43h0.01c0.07,0.1,0.15,0.2,0.24,0.3c0.04,0.06,0.09,0.11,0.14,0.17
			c0.51,0.53,0.98,1.09,1.21,1.72c0.04,0.1,0.06,0.2,0.08,0.31c-0.08,0.05-0.17,0.11-0.28,0.18c-0.14,0.08-0.3,0.16-0.49,0.23
			c-0.29,0.12-0.63,0.22-1.03,0.28c-0.11,0.02-0.23,0.03-0.36,0.05c-0.57,0.04-1.22,0-1.85-0.23c-0.39-0.14-0.73-0.35-1.05-0.62
			c-0.33-0.27-0.59-0.63-0.87-0.98c-0.12-0.17-0.25-0.34-0.35-0.52c-0.4-0.56-0.76-1.14-1.1-1.7c-0.11-0.19-0.21-0.37-0.32-0.54
			c0-0.01,0-0.01,0-0.01c-0.31-0.53-0.6-1.03-0.85-1.46c-0.15-0.26-0.3-0.5-0.43-0.72c-0.16-0.28-0.3-0.52-0.41-0.71
			c-0.03-0.05-0.06-0.1-0.09-0.15c-0.04,0-0.08,0-0.11,0.01c0.03,0.06,0.05,0.13,0.08,0.2c0.08,0.21,0.18,0.45,0.31,0.73
			c0.1,0.24,0.22,0.5,0.35,0.79c0.46,0.95,1.07,2.14,1.81,3.32c0.22,0.36,0.46,0.71,0.71,1.06c0.11,0.13,0.22,0.27,0.33,0.41
			c0.19,0.23,0.39,0.45,0.62,0.63c0.37,0.29,0.81,0.54,1.23,0.67c0.72,0.22,1.44,0.25,2.05,0.15c0.13-0.02,0.24-0.04,0.36-0.07
			c0.35-0.07,0.65-0.19,0.91-0.31c0.04-0.02,0.07-0.04,0.1-0.06c0.21-0.11,0.38-0.23,0.52-0.34c0.09-0.07,0.16-0.13,0.22-0.19
			c0.02,0.18,0.01,0.36-0.03,0.52c0,0.04-0.07,0.23-0.07,0.24c-0.01,0.02-0.05,0.08-0.09,0.13c-0.1,0.1-0.24,0.22-0.39,0.31
			c-0.01,0-0.01,0.01-0.02,0.01c-0.39,0.26-0.86,0.45-1.34,0.58c-0.27,0.08-0.55,0.14-0.82,0.18c-0.78,0.1-1.58,0.07-2.29-0.19
			c-0.2-0.07-0.39-0.16-0.57-0.26c-0.24-0.13-0.45-0.3-0.65-0.48c-0.19-0.17-0.36-0.36-0.53-0.57c-0.49-0.58-0.89-1.23-1.28-1.83
			c-0.12-0.19-0.23-0.39-0.33-0.58c-0.01-0.01-0.01-0.01-0.01-0.02c-0.24-0.41-0.45-0.81-0.65-1.19c-0.41-0.81-0.75-1.53-1.02-2.13
			c-0.34-0.74-0.56-1.29-0.67-1.55c-0.15,0.03-0.29,0.05-0.42,0.06c0.16,0.36,0.32,0.72,0.46,1.07h0.01
			c0.48,1.18,0.87,2.33,1.2,3.43c0,0.01,0,0.01,0,0.02c0.02,0.05,0.04,0.1,0.05,0.15c0.09,0.35,0.18,0.69,0.27,1.03
			c0.09,0.3,0.17,0.59,0.24,0.88c0.13,0.62,0.26,1.22,0.38,1.8c0.27,1.15,0.35,2.23,0.51,3.19c0.21,1.95,0.33,3.48,0.33,4.53
			c0.03,0.93,0.05,1.48,0.05,1.59c0,0-0.02,0.57-0.05,1.63c-0.01,1.06-0.14,2.58-0.35,4.52c-0.17,0.96-0.26,2.04-0.52,3.19
			c-0.12,0.58-0.25,1.18-0.37,1.8c-0.17,0.61-0.34,1.25-0.52,1.9c-0.77,2.6-1.87,5.5-3.65,8.3c-0.41,0.73-0.96,1.37-1.47,2.07
			c-0.25,0.35-0.57,0.64-0.86,0.96c-0.3,0.32-0.59,0.66-0.94,0.93c-0.32,0.31-0.67,0.61-1.03,0.88c-0.21,0.16-0.43,0.31-0.65,0.46
			c-0.13,0.08-0.27,0.16-0.41,0.24c-0.46,0.27-0.94,0.51-1.44,0.71v0.03c0,0-0.03,0-0.09,0c-0.14,0.06-0.28,0.12-0.42,0.16
			c-0.09,0.33-0.16,0.7-0.19,1.09c0.57-0.17,1.12-0.38,1.64-0.63c1.23-0.57,2.34-1.32,3.26-2.2c0.37-0.29,0.67-0.65,0.99-0.99
			c0.3-0.34,0.64-0.65,0.91-1.01c0.53-0.73,1.12-1.4,1.54-2.15c1.86-2.92,3-5.89,3.8-8.56c0.81-2.67,1.17-5.08,1.44-7.05
			c0.21-2,0.33-3.58,0.33-4.63c0.03-1.05,0.05-1.62,0.05-1.62v-0.01c0,0-0.02-0.57-0.05-1.64c-0.01-1.07-0.13-2.63-0.35-4.62
			c-0.11-0.62-0.18-1.29-0.29-1.99c-0.06-0.41-0.14-0.84-0.24-1.27c-0.05-0.21-0.09-0.43-0.14-0.65c0.07,0.1,0.15,0.2,0.23,0.3
			c0.27,0.32,0.55,0.66,0.91,0.94c0.2,0.16,0.42,0.3,0.64,0.41c0.07,0.37,0.14,0.73,0.2,1.08c0.04,0.27,0.09,0.52,0.13,0.77
			c0.32,2.14,0.47,3.83,0.54,4.99c0.11,1.16,0.13,1.78,0.13,1.78s-0.02-0.62,0.01-1.78c0.06-1.17-0.07-2.87-0.28-5.04
			c-0.01-0.09-0.03-0.19-0.04-0.28c-0.05-0.41-0.1-0.83-0.16-1.27c0.02,0.01,0.04,0.02,0.06,0.03c0.88,0.32,1.84,0.38,2.75,0.25
			c0.29-0.04,0.58-0.1,0.86-0.18c0.05,0.34,0.1,0.7,0.14,1.04c0.01,0.02,0.01,0.03,0.01,0.05c0.12,0.76,0.22,1.53,0.26,2.3
			c0.16,1.55,0.18,3.09,0.23,4.64c-0.03,1.53-0.05,3.15-0.21,4.65l-0.1,1.15l-0.15,1.15c-0.12,0.76-0.19,1.54-0.36,2.29
			c-0.16,0.76-0.28,1.53-0.46,2.28l-0.59,2.24l-0.72,2.21c-0.26,0.72-0.57,1.43-0.85,2.15c-0.61,1.42-1.31,2.79-2.12,4.11
			c-0.39,0.66-0.86,1.27-1.29,1.91c-0.46,0.61-0.98,1.17-1.46,1.77c-1.06,1.1-2.18,2.17-3.49,2.95c-1.27,0.88-2.74,1.35-4.2,1.76
			l-0.28,0.03h-0.05l-0.62,0.06l-0.27,0.02l-0.33,0.03c0.13-0.05,0.26-0.11,0.38-0.17c0.05-0.02,0.1-0.05,0.15-0.08h0.01
			c1.14-0.55,2.18-1.25,3.09-2.04l0.59-0.49c0.19-0.17,0.36-0.36,0.54-0.54c0.36-0.36,0.71-0.72,1.05-1.08
			c0.61-0.77,1.26-1.5,1.77-2.3c2.11-3.15,3.41-6.38,4.31-9.29c0.89-2.92,1.28-5.55,1.55-7.71c0.21-2.17,0.31-3.88,0.29-5.04
			c-0.01-0.58-0.02-1.02-0.03-1.32c0-0.3,0.01-0.46,0.01-0.46s-0.01,0.16-0.03,0.46c-0.02,0.3-0.06,0.74-0.11,1.32
			c-0.03,1.16-0.21,2.86-0.52,4.99c-0.21,1.06-0.35,2.25-0.7,3.51c-0.16,0.62-0.3,1.29-0.49,1.96c-0.2,0.67-0.42,1.36-0.63,2.08
			c-0.97,2.83-2.33,5.96-4.46,8.93c-0.51,0.76-1.15,1.44-1.74,2.17c-0.33,0.34-0.67,0.67-1.01,1.01c-0.17,0.16-0.34,0.34-0.52,0.5
			l-0.57,0.45c-1.01,0.86-2.17,1.58-3.43,2.09c-0.47,0.2-0.95,0.36-1.45,0.5c0.01,0.13,0.02,0.26,0.03,0.39
			c0.01,0.11,0.02,0.22,0.03,0.33c0.01,0.12,0.02,0.24,0.03,0.36c0,0.04,0.01,0.08,0.01,0.12c0.14-0.04,0.28-0.08,0.42-0.12h0.01
			h0.01l1.59-0.02l0.44-0.01h0.5h0.09l0.2-0.01h0.21h0.02l0.01-0.01h0.01l1.18-0.26l0.59-0.14l0.56-0.22l1.13-0.44
			c0.37-0.18,0.71-0.39,1.07-0.59c1.42-0.78,2.64-1.85,3.81-2.96c0.53-0.6,1.08-1.19,1.58-1.82c0.46-0.65,0.97-1.28,1.39-1.96
			c0.87-1.35,1.63-2.77,2.29-4.22c0.31-0.74,0.64-1.47,0.93-2.21l0.78-2.27l0.64-2.31c0.2-0.77,0.34-1.55,0.51-2.33
			c0.19-0.78,0.27-1.57,0.4-2.36c0.14-0.79,0.22-1.58,0.28-2.38c0.18-1.63,0.19-3.15,0.24-4.77c-0.04-1.59-0.06-3.19-0.25-4.77
			c-0.05-0.8-0.16-1.59-0.29-2.38c-0.07-0.47-0.13-0.95-0.21-1.43c0.12-0.07,0.23-0.14,0.35-0.22c0.2-0.13,0.39-0.28,0.57-0.49
			c0.09-0.11,0.18-0.23,0.24-0.39c0.07-0.19,0.08-0.2,0.11-0.36C71.14,23.08,71.08,22.57,70.92,22.12z"/>
		<path class="st6" d="M44.5,64.1c-0.49-0.13-0.99-0.26-1.48-0.39c-2-0.7-3.86-1.94-5.47-3.49c-1.64-1.53-2.97-3.45-4.12-5.47
			c-1.19-2.02-2.03-4.25-2.81-6.51c-1.43-4.58-2.1-9.5-2.13-14.34c0.05-1.23,0.04-2.49,0.14-3.7c0.12-1.2,0.18-2.41,0.4-3.61
			l0.27-1.8l0.39-1.77c0.23-1.19,0.62-2.33,0.93-3.49c1.48-4.54,3.68-8.86,6.91-12.01c1.61-1.55,3.47-2.8,5.48-3.49
			c2.01-0.7,4.18-0.71,6.15-0.23c1.92,0.47,3.76,1.44,5.22,2.7c0.8,0.56,1.42,1.31,2.11,1.95c0.59,0.74,1.23,1.42,1.74,2.17
			c0.31,0.43,0.6,0.87,0.87,1.3c0.19-0.05,0.37-0.1,0.56-0.14c0.12-0.03,0.25-0.06,0.37-0.09c-0.31-0.54-0.65-1.08-1.01-1.62
			c-0.51-0.8-1.16-1.52-1.76-2.31c-0.35-0.35-0.7-0.71-1.05-1.07c-0.18-0.18-0.35-0.37-0.54-0.54l-0.6-0.49
			c-0.47-0.41-0.97-0.79-1.5-1.14c-0.86-0.57-1.81-1.06-2.83-1.43c0.72,0.03,1.44,0.06,2.15,0.07c1.36,0.35,2.69,0.78,3.88,1.52
			c0.1,0.06,0.2,0.12,0.3,0.19c1.31,0.78,2.43,1.84,3.51,2.92c0.5,0.58,1,1.16,1.47,1.76c0.38,0.57,0.8,1.12,1.17,1.7
			c0.36-0.04,0.71-0.05,1.07-0.05c0.11,0,0.22,0,0.33,0c-0.08-0.13-0.17-0.26-0.25-0.4c-0.43-0.68-0.94-1.3-1.41-1.96
			c-0.51-0.62-1.06-1.21-1.59-1.81c-0.61-0.53-1.16-1.12-1.82-1.6c-0.66-0.47-1.29-0.98-2.03-1.33c-1.38-0.85-2.98-1.29-4.55-1.6
			h-0.03h-0.03c-1.22,0.02-2.45,0.08-3.67,0.13c-2.1-0.51-4.42-0.51-6.61,0.22c-2.24,0.74-4.27,2.08-6.01,3.72
			c-1.77,1.63-3.18,3.65-4.4,5.76c-1.26,2.1-2.15,4.42-2.97,6.76c-0.33,1.19-0.75,2.37-0.98,3.6l-0.41,1.83l-0.29,1.85
			c-0.23,1.24-0.29,2.51-0.42,3.76c-0.11,1.26-0.1,2.48-0.15,3.73c0,5.07,0.76,10.07,2.25,14.82c0.82,2.34,1.71,4.65,2.96,6.76
			c1.22,2.11,2.63,4.12,4.4,5.76c1.74,1.66,3.76,3.01,6.01,3.74c0.59,0.14,1.18,0.28,1.76,0.43c0.07,0.01,0.14,0.02,0.21,0.02
			c-0.03-0.29-0.05-0.57-0.07-0.85C44.51,64.39,44.5,64.25,44.5,64.1z"/>
		<path class="st6" d="M49.85,6.05c1.45,0.55,2.81,1.38,3.89,2.43c0.35,0.27,0.63,0.61,0.93,0.93c0.29,0.32,0.61,0.62,0.87,0.96
			c0.5,0.7,1.06,1.34,1.47,2.07c0.06,0.1,0.13,0.2,0.18,0.3c0.03-0.03,0.07-0.05,0.11-0.07l0.46-0.25c0.1-0.04,0.19-0.08,0.29-0.12
			c-0.07-0.13-0.15-0.25-0.23-0.38c-0.43-0.75-1.01-1.42-1.55-2.15c-0.26-0.36-0.6-0.67-0.91-1.01c-0.32-0.34-0.61-0.7-0.99-0.98
			c-0.36-0.31-0.72-0.62-1.08-0.93c-0.41-0.26-0.81-0.52-1.22-0.79c-0.4-0.29-0.88-0.45-1.32-0.67l-0.69-0.3l-0.75-0.2
			c-1.95-0.56-4.11-0.51-6.13,0.21c-2.01,0.75-3.76,2.1-5.23,3.67c-0.77,0.77-1.38,1.67-2.04,2.55c-0.56,0.93-1.18,1.85-1.64,2.85
			c-1.03,1.95-1.78,4.06-2.43,6.21c-1.22,4.3-1.8,8.87-1.79,13.4c0.04,4.53,0.58,9.08,1.81,13.39c0.65,2.14,1.4,4.25,2.43,6.2
			c0.47,1,1.09,1.91,1.65,2.85c0.65,0.87,1.27,1.77,2.03,2.54c1.47,1.58,3.22,2.91,5.21,3.67c0.45,0.12,0.9,0.25,1.34,0.37
			l0.01-0.29l0.07-0.45c0.01-0.05,0.01-0.1,0.03-0.15c-0.38-0.1-0.76-0.2-1.15-0.3c-1.84-0.67-3.51-1.9-4.94-3.39
			c-0.74-0.72-1.35-1.58-2-2.42c-0.55-0.9-1.17-1.77-1.63-2.75c-1.03-1.89-1.79-3.95-2.45-6.05c-1.24-4.24-1.9-8.73-1.88-13.22
			c0.04-4.51,0.65-8.98,1.9-13.21c0.66-2.11,1.43-4.16,2.46-6.05c0.46-0.98,1.08-1.85,1.63-2.75c0.35-0.44,0.68-0.9,1.02-1.33
			c0-0.01,0.01-0.01,0.02-0.01c0.3-0.38,0.61-0.75,0.96-1.08c1.42-1.49,3.09-2.7,4.92-3.38c1.43-0.52,2.97-0.65,4.42-0.43
			c-0.33,0.09-0.71,0.18-1.14,0.28c-0.48,0.13-0.96,0.4-1.52,0.62c-0.55,0.23-1.07,0.63-1.66,0.98c-0.35,0.26-0.71,0.54-1.08,0.85
			c-0.2,0.17-0.41,0.35-0.62,0.53c-0.26,0.28-0.53,0.56-0.81,0.85c-0.29,0.28-0.56,0.6-0.81,0.93c-0.25,0.34-0.52,0.67-0.78,1.02
			c-0.26,0.35-0.48,0.74-0.73,1.11c-0.51,0.75-0.92,1.58-1.37,2.43c-0.44,0.85-0.8,1.76-1.19,2.68c-0.32,0.94-0.73,1.89-0.97,2.9
			c-0.29,1-0.57,2.02-0.76,3.06c-0.25,1.04-0.4,2.11-0.56,3.19c-0.18,1.07-0.22,2.18-0.34,3.28c-0.06,1.11-0.08,2.15-0.11,3.29
			c0.04,2.21,0.17,4.42,0.5,6.57c0.08,0.54,0.16,1.07,0.24,1.6c0.11,0.53,0.22,1.06,0.33,1.58c0.19,1.05,0.51,2.06,0.78,3.06
			c0.3,0.99,0.65,1.96,1,2.89c0.42,0.91,0.75,1.84,1.23,2.67c0.22,0.42,0.44,0.84,0.66,1.25c0.25,0.39,0.49,0.78,0.74,1.16
			c0.45,0.78,1.03,1.45,1.54,2.11c0.54,0.64,1.11,1.22,1.66,1.76c0.3,0.24,0.59,0.48,0.87,0.71c0.28,0.24,0.56,0.45,0.86,0.62
			c0.45,0.27,0.87,0.55,1.3,0.76c0.13-0.22,0.25-0.46,0.43-0.66c0.03-0.05,0.07-0.09,0.12-0.14c-0.42-0.21-0.83-0.51-1.26-0.81
			c-0.28-0.16-0.53-0.37-0.78-0.6c-0.25-0.23-0.51-0.46-0.78-0.7c-0.5-0.51-1.02-1.06-1.51-1.68c-0.46-0.65-0.99-1.28-1.41-2.03
			c-0.22-0.37-0.44-0.74-0.67-1.12c-0.2-0.4-0.4-0.8-0.6-1.21c-0.44-0.8-0.74-1.71-1.12-2.58c-0.32-0.91-0.66-1.84-0.93-2.8
			c-0.25-0.97-0.56-1.94-0.73-2.96c-0.11-0.51-0.21-1.01-0.31-1.53c-0.08-0.51-0.15-1.03-0.22-1.55c-0.31-2.09-0.4-4.23-0.44-6.38
			c0.01-1.03,0.03-2.16,0.08-3.22c0.11-1.06,0.13-2.11,0.31-3.15c0.14-1.04,0.28-2.08,0.51-3.09c0.18-1.02,0.44-2,0.71-2.97
			c0.23-0.97,0.61-1.88,0.89-2.8c0.36-0.89,0.69-1.78,1.09-2.6c0.41-0.82,0.78-1.63,1.25-2.34c0.23-0.37,0.43-0.74,0.67-1.08
			c0.24-0.33,0.48-0.66,0.72-0.97c0.44-0.67,1.02-1.17,1.47-1.72c0.52-0.5,1.03-0.95,1.52-1.35c0.54-0.34,1-0.73,1.5-0.97
			c0.5-0.22,0.94-0.49,1.37-0.62c0.44-0.13,0.83-0.24,1.17-0.34c0.34-0.08,0.64-0.08,0.89-0.12c0.48-0.05,0.74-0.08,0.74-0.08V6.05z
			"/>
	</g>
	<g>
		<path class="st7" d="M55.65,90.47c-0.2-0.08-0.45-0.03-0.65-0.12c-0.31-0.15-0.35-0.59-0.21-0.91c0.13-0.31,0.39-0.56,0.56-0.85
			c0.18-0.3,0.25-0.71,0.02-0.96c-0.28-0.32-0.86-0.21-1.14-0.53c-0.23-0.26-0.13-0.67,0.06-0.95c0.2-0.28,0.48-0.5,0.66-0.79
			c0.18-0.3,0.21-0.73-0.05-0.94c-0.18-0.15-0.44-0.15-0.63-0.26c-0.34-0.2-0.42-0.68-0.28-1.04c0.21-0.56,1.07-0.97,0.74-1.67
			c-0.25-0.55-1.23-0.62-1.07-1.38c0.12-0.59,0.89-0.85,0.97-1.5c0.1-0.8-1.05-0.38-1.43-1.04c-0.38-0.67,1.1-1.19,1.1-1.85
			c0-0.67-0.72-0.38-1.24-0.95s0.33-1.43,0.57-1.9c0.29-0.59-0.59-0.85-0.89-1.14c-0.38-0.37-0.33-0.9-0.07-1.35
			c0.01-0.01,0.02-0.03,0.03-0.04c-0.02,0.01-0.04,0.03-0.06,0.04c-0.46,0.3-0.94,0.54-1.31,0.72c-0.38,0.17-0.69,0.19-0.71,0.17
			c0-0.03,0.05-0.14,0.16-0.28c-0.45,0.34-0.66,1.02-0.74,1.38l0.04,0.97c0.01,0.08,0.02,0.16,0.03,0.26
			c0.09,0.55,0.16,1.32,0.25,2.25c0.08,0.93,0.17,2.02,0.24,3.18c0.07,1.17,0.14,2.41,0.2,3.65c0.11,2.49,0.17,4.98,0.18,6.85
			c0.01,0.93,0,1.71-0.03,2.26c-0.01,0.25-0.02,0.45-0.04,0.59v0.04c-0.01,0.04-0.01,0.07-0.01,0.1l0.08,1.88h0.01
			c0.58-0.15,1.11-0.44,1.67-0.86c1.09-0.84,2.16-1.83,3.19-2.84C55.82,90.58,55.76,90.52,55.65,90.47z"/>
		<path class="st7" d="M48.05,97.25c0.14,0.16,0.32,0.3,0.53,0.4c0.3,0.14,0.59,0.21,0.94,0.2c0.33-0.01,0.65-0.08,0.93-0.24
			c0.2-0.11,0.37-0.25,0.5-0.41C49.5,96.24,48.47,96.87,48.05,97.25z"/>
		<path class="st7" d="M45.97,64.25c0,0.06,0.01,0.12,0.01,0.18c0.03,0.37,0.08,0.73,0.14,1.08c0.02,0.13,0.04,0.25,0.07,0.38
			c0.1,0.47,0.21,0.93,0.38,1.35c0.09,0.2,0.18,0.41,0.29,0.57c0.06,0.09,0.12,0.17,0.17,0.23c0.01,0.02,0.05,0.05,0.07,0.07
			c1.01,0.12,2.03,0.26,3.04,0.41l0.35-0.17c-1.87-0.09-2.03-5.07-2.03-5.07c-1.28,3.6-2.05-0.91-2.24-2.19
			c-0.05,0.15-0.11,0.3-0.14,0.47c-0.04,0.18-0.08,0.36-0.09,0.53c-0.01,0.05-0.02,0.09-0.02,0.14l-0.04,0.33l-0.01,0.39V63v0.34
			l0.02,0.34C45.95,63.87,45.96,64.06,45.97,64.25z M48.83,66.13c0,0,0.19,1.33,0.76,1.76l-2.28-0.24c0,0-0.8-0.62-0.85-2.89
			C46.51,64.9,47.53,67.94,48.83,66.13z"/>
		<path class="st7" d="M49.2,92.97c-0.23-0.8-1.54-0.51-1.48-1.2c0.09-1.13,1.59-0.62,1.54-1.54c-0.06-0.91-1.65-0.62-1.65-1.42
			s1.48-0.86,1.53-1.54c0.06-0.68-1.65-0.51-1.48-1.48c0.17-0.97,1.2-0.74,1.2-1.48s-1.03-0.91-1.03-1.43c0-0.51,0.97-0.45,0.8-1.25
			c-0.17-0.8-0.63-0.4-0.8-1.2c-0.17-0.8,0.92-1.02,0.92-1.48c0-0.46-0.97-0.46-0.92-1.2c0.06-0.74,0.63-0.57,0.74-1.48
			c0.12-0.91-0.74-0.68-0.79-1.2c-0.06-0.51,0.68-0.85,0.74-1.36c0.05-0.52-0.57-0.52-0.69-1.09c-0.11-0.57,0.35-0.28,0.46-0.62
			c0.04-0.13-0.04-0.23-0.15-0.31c-0.49,0.06-1.1,0.12-1.72,0.09c-0.35-0.02-0.71-0.08-1.04-0.14c-0.01,0-0.03-0.01-0.04-0.01
			c0.42,0.47,0.6,0.98,0.45,1.48c-0.23,0.81-1.75,1.14-0.99,2.09c0.38,0.48,0.89,0.84,0.6,1.53c-0.18,0.4-0.52,0.7-0.8,1.04
			c-0.28,0.33-0.52,0.77-0.41,1.19c0.18,0.66,1.01,0.91,0.96,1.66c-0.06,0.97-2.03,1.63-1.54,2.65c0.12,0.24,0.34,0.41,0.55,0.58
			c0.2,0.16,0.41,0.35,0.49,0.6c0.16,0.52-0.28,1.02-0.69,1.37c-0.4,0.36-0.86,0.82-0.74,1.35c0.11,0.53,0.72,0.77,1.02,1.21
			c0.22,0.33,0.26,0.77,0.09,1.13c-0.32,0.7-1.67,0.65-1.63,1.57c0.01,0.39,0.37,0.68,0.69,0.92c0.31,0.24,0.65,0.55,0.63,0.95
			c-0.02,0.26-0.17,0.5-0.39,0.69l1.8,0.3c0.83,0.14,1.68,0.3,2.48,0.41C48.45,93.83,49.39,93.64,49.2,92.97z"/>
	</g>
	<path class="st0" d="M47.91,5.54c-0.33,0.09-0.71,0.18-1.14,0.28c-0.48,0.13-0.96,0.4-1.52,0.62c-0.55,0.23-1.07,0.63-1.66,0.98
		c-0.35,0.26-0.71,0.54-1.08,0.85c0.69-1.57-2.95,0.81-4.9,2.16c0.3-0.38,0.61-0.75,0.96-1.08c1.42-1.49,3.09-2.7,4.92-3.38
		C44.92,5.45,46.46,5.32,47.91,5.54z"/>
	<g>
		<path class="st8" d="M70.04,22.43c-0.23-0.63-0.7-1.19-1.21-1.72c-0.05-0.06-0.1-0.11-0.14-0.17c-0.09-0.1-0.17-0.2-0.24-0.3
			h-0.01c-0.11-0.14-0.21-0.28-0.31-0.43c-0.2-0.29-0.39-0.58-0.55-0.85c-0.67-1.12-1.12-2.1-1.45-2.78
			c-0.02-0.04-0.04-0.08-0.05-0.11c-0.75-0.27-1.25-0.11-1.49,0.02l0.29,0.97c0.06,0.2,0.03,0.41-0.07,0.6
			c-0.08,0.14-0.19,0.25-0.33,0.31c-0.3,1.04-1.2,0.29-1.2,0.29l-0.57-1.66c0,0,0.22-0.5-1.57,0.1c0.13,0.22,0.28,0.46,0.43,0.72
			c0.25,0.43,0.54,0.93,0.85,1.46c0,0,0,0,0,0.01c0.11,0.17,0.21,0.35,0.32,0.54c0.34,0.56,0.7,1.14,1.1,1.7
			c0.1,0.18,0.23,0.35,0.35,0.52c0.28,0.35,0.54,0.71,0.87,0.98c0.32,0.27,0.66,0.48,1.05,0.62c0.63,0.23,1.28,0.27,1.85,0.23
			c0.13-0.02,0.25-0.03,0.36-0.05c0.4-0.06,0.74-0.16,1.03-0.28c0.19-0.07,0.35-0.15,0.49-0.23c0.11-0.07,0.2-0.13,0.28-0.18
			C70.1,22.63,70.08,22.53,70.04,22.43z"/>
		<path class="st8" d="M68.51,26.7c0-0.02,0-0.03-0.01-0.05c-1.77,1.15-3.15,0.46-3.65,0.13c0.01,0.09,0.03,0.19,0.04,0.28
			c0.21,2.17,0.34,3.87,0.28,5.04c-0.03,1.16-0.01,1.78-0.01,1.78s-0.01,0.16-0.01,0.46c0.01,0.3,0.02,0.74,0.03,1.32
			c0.02,1.16-0.08,2.87-0.29,5.04c-0.27,2.16-0.66,4.79-1.55,7.71c-0.9,2.91-2.2,6.14-4.31,9.29c-0.51,0.8-1.16,1.53-1.77,2.3
			c-0.34,0.36-0.69,0.72-1.05,1.08c-0.18,0.18-0.35,0.37-0.54,0.54l-0.59,0.49c-0.91,0.79-1.95,1.49-3.09,2.04h-0.01
			c-0.05,0.03-0.1,0.06-0.15,0.08c-0.12,0.06-0.25,0.12-0.38,0.17l0.33-0.03l0.27-0.02l0.62-0.06h0.05L53,64.26
			c1.46-0.41,2.93-0.88,4.2-1.76c1.31-0.78,2.43-1.85,3.49-2.95c0.48-0.6,1-1.16,1.46-1.77c0.43-0.64,0.9-1.25,1.29-1.91
			c0.81-1.32,1.51-2.69,2.12-4.11c0.28-0.72,0.59-1.43,0.85-2.15l0.72-2.21l0.59-2.24c0.18-0.75,0.3-1.52,0.46-2.28
			c0.17-0.75,0.24-1.53,0.36-2.29l0.15-1.15l0.1-1.15c0.16-1.5,0.18-3.12,0.21-4.65c-0.05-1.55-0.07-3.09-0.23-4.64
			C68.73,28.23,68.63,27.46,68.51,26.7z M66.56,28.83c0-0.26,0.15-0.47,0.33-0.47c0.19,0,0.34,0.21,0.34,0.47
			c0,0.25-0.15,0.46-0.34,0.46C66.71,29.29,66.56,29.08,66.56,28.83z M66.99,33.84c-0.16,0-0.3-0.2-0.3-0.44
			c0-0.24,0.14-0.44,0.3-0.44c0.16,0,0.29,0.2,0.29,0.44C67.28,33.64,67.15,33.84,66.99,33.84z"/>
		<path class="st8" d="M55.67,6.15c0.19,0.17,0.36,0.36,0.54,0.54c0.35,0.36,0.7,0.72,1.05,1.07c0.6,0.79,1.25,1.51,1.76,2.31
			c0.36,0.54,0.7,1.08,1.01,1.62c0.2-0.04,0.4-0.08,0.6-0.11c0.63-0.12,1.26-0.18,1.89-0.25c0.01,0,0.03,0,0.04-0.01
			c0.23-0.03,0.45-0.05,0.66-0.07c-0.37-0.58-0.79-1.13-1.17-1.7c-0.47-0.6-0.97-1.18-1.47-1.76c-1.08-1.08-2.2-2.14-3.51-2.92
			c-0.1-0.07-0.2-0.13-0.3-0.19c-2.41-0.91-3.04-0.52-3.2-0.16c0.53,0.35,1.03,0.73,1.5,1.14L55.67,6.15z"/>
		<path class="st8" d="M43.01,58.9c-0.28-0.23-0.57-0.47-0.87-0.71c-0.55-0.54-1.12-1.12-1.66-1.76c-0.51-0.66-1.09-1.33-1.54-2.11
			c-0.25-0.38-0.49-0.77-0.74-1.16c-0.22-0.41-0.44-0.83-0.66-1.25c-0.48-0.83-0.81-1.76-1.23-2.67c-0.35-0.93-0.7-1.9-1-2.89
			c-0.27-1-0.59-2.01-0.78-3.06c-0.11-0.52-0.22-1.05-0.33-1.58c-0.08-0.53-0.16-1.06-0.24-1.6c-0.33-2.15-0.46-4.36-0.5-6.57
			c0.03-1.14,0.05-2.18,0.11-3.29c0.12-1.1,0.16-2.21,0.34-3.28c0.16-1.08,0.31-2.15,0.56-3.19c0.19-1.04,0.47-2.06,0.76-3.06
			c0.24-1.01,0.65-1.96,0.97-2.9c0.39-0.92,0.75-1.83,1.19-2.68c0.45-0.85,0.86-1.68,1.37-2.43c0.25-0.37,0.47-0.76,0.73-1.11
			c0.26-0.35,0.53-0.68,0.78-1.02c0.25-0.33,0.52-0.65,0.81-0.93c0.28-0.29,0.55-0.57,0.81-0.85c0.21-0.18,0.42-0.36,0.62-0.53
			c0.69-1.57-2.95,0.81-4.9,2.16c-0.01,0-0.02,0-0.02,0.01c-0.34,0.43-0.67,0.89-1.02,1.33c-0.55,0.9-1.17,1.77-1.63,2.75
			c-1.03,1.89-1.8,3.94-2.46,6.05c-1.25,4.23-1.86,8.7-1.9,13.21c-0.02,4.49,0.64,8.98,1.88,13.22c0.66,2.1,1.42,4.16,2.45,6.05
			c0.46,0.98,1.08,1.85,1.63,2.75c0.65,0.84,1.26,1.7,2,2.42c1.43,1.49,3.1,2.72,4.94,3.39c0.39,0.1,0.77,0.2,1.15,0.3
			c0.03-0.25,0.1-0.48,0.17-0.71c0.06-0.29,0.21-0.55,0.32-0.83c0.02-0.03,0.04-0.06,0.05-0.09c-0.43-0.21-0.85-0.49-1.3-0.76
			C43.57,59.35,43.29,59.14,43.01,58.9z"/>
	</g>
	<g>
		<path class="st4" d="M58.75,85.07L58,79.57c-0.49-3.66-1.02-7.31-1.56-10.97v0.07c-0.01-0.17-0.03-0.26-0.05-0.38
			c-0.02-0.11-0.06-0.21-0.1-0.32c-0.07-0.2-0.17-0.4-0.3-0.57c-0.24-0.36-0.57-0.64-0.93-0.85c-0.35-0.21-0.73-0.32-1.09-0.42
			c-0.32-0.07-0.63-0.1-0.94-0.12c0.05-0.46,0.06-0.89,0.06-1.12h-0.02h-0.21l-0.2,0.01h-0.09c-0.02,0.11-0.04,0.23-0.07,0.34
			c-0.03,0.2-0.08,0.39-0.13,0.58c-0.04,0.14-0.08,0.28-0.12,0.42c-0.19,0.61-0.45,1.17-0.81,1.63l-0.95,0.48l-0.35,0.17
			c-1.01-0.15-2.03-0.29-3.04-0.41c-0.02-0.02-0.06-0.05-0.07-0.07c-0.05-0.06-0.11-0.14-0.17-0.23c-0.11-0.16-0.2-0.37-0.29-0.57
			c-0.17-0.42-0.28-0.88-0.38-1.35c-0.03-0.13-0.05-0.25-0.07-0.38c-0.06-0.35-0.11-0.71-0.14-1.08c0-0.06-0.01-0.12-0.01-0.18
			c-0.01-0.19-0.02-0.38-0.03-0.57l-0.02-0.34V63v-0.05l0.01-0.39l0.04-0.33c0-0.05,0.01-0.09,0.02-0.14
			c0.01-0.17,0.05-0.35,0.09-0.53c0.03-0.17,0.09-0.32,0.14-0.47c0.02-0.06,0.04-0.12,0.06-0.18c0.02-0.04,0.05-0.08,0.07-0.13
			c0.07-0.15,0.14-0.32,0.25-0.45c0.04-0.07,0.09-0.14,0.15-0.21c0.02-0.04,0.06-0.08,0.09-0.12c0.06-0.07,0.11-0.13,0.17-0.19
			c0.15-0.16,0.32-0.3,0.51-0.43c0.19-0.12,0.38-0.23,0.59-0.32c0.2-0.09,0.44-0.17,0.61-0.21h0.01c0.76,0.01,1.52,0.01,2.29-0.04
			c0.07,0.03,0.13,0.06,0.19,0.1h0.01h0.01h0.01c0,0.01,0.01,0.01,0.01,0.01s0.01,0,0.01,0.01c0,0,0.01,0,0.01,0.01
			c0.05,0.03,0.1,0.06,0.15,0.11c0.01,0.01,0.03,0.02,0.04,0.04c0.3,0.32,0.48,0.92,0.58,1.31c0.22-0.15,0.44-0.3,0.65-0.46
			c-0.14-0.44-0.39-1.15-0.71-1.61c-0.44-0.63-2.83-0.47-3.27-0.44c-0.04,0.01-0.07,0.01-0.07,0.01c-0.34,0.03-0.6,0.09-0.89,0.18
			c-0.28,0.08-0.55,0.21-0.81,0.35c-0.26,0.15-0.5,0.33-0.73,0.52c-0.18,0.17-0.36,0.34-0.49,0.53c-0.05,0.05-0.09,0.09-0.12,0.14
			c-0.18,0.2-0.3,0.44-0.43,0.66c-0.01,0.03-0.03,0.06-0.05,0.09c-0.11,0.28-0.26,0.54-0.32,0.83c-0.07,0.23-0.14,0.46-0.17,0.71
			c-0.02,0.05-0.02,0.1-0.03,0.15l-0.07,0.45l-0.01,0.29l-0.01,0.1l-0.03,0.39v0.44c0,0.12,0.01,0.25,0.02,0.37
			c0,0.15,0.01,0.29,0.02,0.44c0.02,0.28,0.04,0.56,0.07,0.85c0.04,0.26,0.08,0.53,0.13,0.79c0.03,0.13,0.05,0.25,0.08,0.38
			c-0.24,0.12-0.49,0.25-0.73,0.39c-0.26,0.15-0.5,0.32-0.75,0.51c-0.13,0.1-0.23,0.19-0.37,0.31c-0.1,0.1-0.19,0.19-0.31,0.32
			c-0.43,0.46-0.78,1.01-1.01,1.59c-0.24,0.58-0.38,1.15-0.5,1.72c-0.23,1.14-0.4,2.2-0.59,3.31L40,78.01l-1.08,6.58l-1.03,6.6
			l-0.01,0.05v0.03c-0.02,0.65,0.06,1.17,0.27,1.76c0.21,0.57,0.59,1.16,1.15,1.55c0.29,0.19,0.59,0.34,0.9,0.43l0.47,0.11
			l0.34,0.06l1.35,0.23l2.72,0.5c0.68,0.12,1.34,0.23,2.04,0.33c-0.05,0.35,0.01,0.78,0.21,1.13c0.2,0.39,0.53,0.7,0.92,0.92
			c0.37,0.21,0.86,0.31,1.29,0.31c0.89-0.01,1.78-0.52,2.17-1.31c0.09-0.19,0.16-0.39,0.18-0.62c0.02-0.12,0.02-0.2,0.02-0.28
			c-0.01-0.11-0.02-0.18-0.03-0.26c0.73-0.26,1.4-0.66,1.94-1.09c1.55-1.21,2.85-2.52,4.17-3.86l0.12-0.13l0.06-0.06
			c0.08-0.08,0.13-0.16,0.16-0.2c0.11-0.17,0.18-0.32,0.24-0.46c0.12-0.29,0.2-0.56,0.26-0.83c0.11-0.53,0.15-1.05,0.16-1.55
			C59.02,86.94,58.88,85.96,58.75,85.07z M51.28,96.36c-0.01,0.09-0.02,0.18-0.03,0.23c-0.03,0.12-0.08,0.27-0.15,0.39
			c-0.04,0.08-0.09,0.15-0.15,0.22c-0.13,0.16-0.3,0.3-0.5,0.41c-0.28,0.16-0.6,0.23-0.93,0.24c-0.35,0.01-0.64-0.06-0.94-0.2
			c-0.21-0.1-0.39-0.24-0.53-0.4c-0.06-0.06-0.11-0.13-0.15-0.2c-0.14-0.23-0.21-0.47-0.21-0.73c0.06,0.01,0.13,0.02,0.19,0.03
			c0.91,0.08,1.92,0.23,3.04,0.04c0.12-0.02,0.24-0.04,0.36-0.07C51.28,96.34,51.28,96.35,51.28,96.36z M57,89.1
			c-0.03,0.14-0.07,0.28-0.12,0.4c-0.01,0.03-0.02,0.06-0.03,0.09c-0.02,0.05-0.05,0.1-0.07,0.13v0.01
			c-0.01,0.01-0.01,0.01-0.01,0.01h-0.01l-0.12,0.13c-0.26,0.26-0.52,0.52-0.79,0.79c-1.03,1.01-2.1,2-3.19,2.84
			c-0.56,0.42-1.09,0.71-1.67,0.86h-0.01c-0.13,0.05-0.25,0.08-0.39,0.1c-0.15,0.03-0.31,0.04-0.47,0.05
			c-0.17,0.01-0.34,0.01-0.51,0c-0.47-0.01-0.98-0.07-1.5-0.13c-0.07-0.01-0.13-0.02-0.2-0.03c-0.8-0.11-1.65-0.27-2.48-0.41
			l-1.8-0.3l-0.94-0.16l-1.38-0.22l-0.34-0.06l-0.21-0.04c-0.13-0.04-0.24-0.1-0.34-0.16h-0.01c-0.2-0.13-0.35-0.35-0.46-0.64
			c-0.12-0.27-0.17-0.69-0.17-0.95V91.4l0.94-6.53l0.89-6.62l0.44-3.31c0.16-1.09,0.26-2.24,0.43-3.28
			c0.18-1.07,0.44-2.02,1.08-2.75c0.07-0.08,0.17-0.19,0.26-0.29c0.07-0.07,0.17-0.16,0.26-0.24c0.18-0.17,0.39-0.32,0.6-0.47
			c0.15-0.1,0.3-0.2,0.46-0.3c0.03,0.07,0.06,0.14,0.09,0.21c0.06,0.12,0.12,0.24,0.19,0.36c0.07,0.15,0.16,0.3,0.26,0.44
			c0.1,0.13,0.2,0.26,0.32,0.39c0.14,0.13,0.21,0.22,0.5,0.39l0.1,0.06l0.13,0.01c1.15,0.11,2.29,0.23,3.44,0.3l0.23,0.02l0.15-0.1
			l1.49-0.99l0.12-0.08l0.04-0.06c0.17-0.28,0.3-0.57,0.4-0.86c0.01-0.01,0.01-0.01,0.01-0.02c0.02-0.02,0.03-0.04,0.04-0.06
			c0.03-0.06,0.06-0.13,0.09-0.2c0.05-0.12,0.09-0.26,0.13-0.41c0.29,0.03,0.57,0.08,0.84,0.15c0.28,0.09,0.55,0.19,0.77,0.34
			c0.23,0.15,0.41,0.33,0.54,0.54c0.06,0.1,0.11,0.22,0.15,0.33c0.02,0.05,0.03,0.11,0.04,0.17c0.01,0.03,0.01,0.08,0.01,0.11
			l0.01,0.08c0.36,3.68,0.73,7.36,1.14,11.03l0.59,5.51c0.1,0.94,0.21,1.79,0.18,2.63C57.13,88.32,57.09,88.73,57,89.1z"/>
		<path class="st4" d="M53.54,69.01c-0.39,0.14-0.85,0.43-1.31,0.71c-0.45,0.3-0.87,0.66-1.18,0.93c-0.08,0.07-0.14,0.14-0.2,0.21
			c-0.01,0.02-0.04,0.04-0.04,0.06c-0.01,0.01-0.02,0.02-0.02,0.02c-0.01,0-0.01,0-0.01,0.01c-0.11,0.14-0.16,0.25-0.16,0.28
			c0.02,0.02,0.33,0,0.71-0.17c0.37-0.18,0.85-0.42,1.31-0.72c0.02-0.01,0.04-0.03,0.06-0.04c0.42-0.3,0.84-0.59,1.11-0.88
			c0.23-0.24,0.38-0.46,0.42-0.54c0.01-0.02,0.01-0.04,0.01-0.04C54.22,68.81,53.93,68.85,53.54,69.01z"/>
		<path class="st4" d="M51.5,65.39c-0.09,0.34-0.18,0.68-0.25,0.94c-0.07,0.26-0.06,0.47-0.04,0.47c0.01,0,0.06-0.03,0.11-0.08
			c0.07-0.05,0.15-0.14,0.23-0.26c0.12-0.19,0.26-0.45,0.36-0.74c0.03-0.06,0.05-0.12,0.07-0.19c0.05-0.21,0.09-0.43,0.09-0.63
			l-0.44,0.01C51.59,65.06,51.54,65.23,51.5,65.39z"/>
		<path class="st4" d="M50.8,82.64c-0.06-1.24-0.13-2.48-0.2-3.65c-0.07-1.16-0.16-2.25-0.24-3.18c-0.09-0.93-0.16-1.7-0.25-2.25
			c-0.01-0.1-0.02-0.18-0.03-0.26c-0.02-0.15-0.04-0.27-0.05-0.36c-0.03-0.15-0.05-0.23-0.05-0.23s-0.02,0.08-0.03,0.23
			c-0.01,0.15-0.02,0.36-0.03,0.63c-0.04,0.55-0.03,1.33-0.05,2.26c0.01,0.94,0.02,2.03,0.05,3.19c0.05,1.17,0.09,2.41,0.14,3.66
			c0.12,2.48,0.29,4.97,0.44,6.83c0.08,0.93,0.15,1.71,0.24,2.25c0.07,0.54,0.14,0.85,0.14,0.85s0.01-0.05,0.02-0.13
			c0-0.03,0-0.06,0.01-0.1v-0.04c0.02-0.14,0.03-0.34,0.04-0.59c0.03-0.55,0.04-1.33,0.03-2.26C50.97,87.62,50.91,85.13,50.8,82.64z
			"/>
		<path class="st4" d="M49.68,61.54c0.02-0.06,0.04-0.11,0.05-0.16c0.1-0.28,0.21-0.54,0.35-0.75c0.01-0.02,0.03-0.04,0.04-0.06
			c0.22-0.33,0.48-0.56,0.68-0.69c0.03-0.02,0.06-0.04,0.08-0.05c0-0.01,0.01,0,0.01,0c0.16-0.11,0.25-0.15,0.25-0.16
			c0-0.02-0.15-0.04-0.42,0.03c-0.25,0.07-0.62,0.23-0.96,0.57c-0.1,0.09-0.19,0.2-0.26,0.32c-0.17,0.22-0.31,0.47-0.42,0.75
			c-0.04,0.1-0.08,0.2-0.11,0.31c-0.01,0.05-0.03,0.09-0.03,0.14c-0.1,0.33-0.15,0.68-0.17,1.04c-0.02,0.2-0.03,0.39-0.03,0.59
			c0.01,0.2,0.02,0.42,0.04,0.62c0,0.09,0.01,0.18,0.02,0.27c0.01,0.11,0.02,0.22,0.04,0.33c0.01,0.1,0.03,0.2,0.04,0.3
			c0.02,0.07,0.03,0.14,0.04,0.21c0,0.03,0.01,0.05,0.02,0.08c0.09,0.51,0.21,0.99,0.36,1.39c0.16,0.43,0.38,0.77,0.63,0.94
			c0.12,0.08,0.25,0.11,0.33,0.1s0.11-0.05,0.11-0.05c-0.01-0.01-0.17-0.02-0.28-0.22c-0.12-0.18-0.2-0.52-0.29-0.92
			c-0.04-0.15-0.07-0.31-0.09-0.48c-0.05-0.29-0.08-0.6-0.11-0.93v-0.01c0-0.04-0.01-0.08-0.01-0.12c-0.01-0.12-0.02-0.24-0.03-0.36
			c-0.01-0.11-0.02-0.22-0.03-0.33c-0.01-0.13-0.02-0.26-0.03-0.39c0-0.15,0-0.29-0.02-0.44c-0.01-0.26-0.01-0.53,0.01-0.78
			C49.52,62.24,49.59,61.87,49.68,61.54z"/>
		<g>
			<path class="st9" d="M54.86,69.85c-0.05-0.43-0.09-0.86-0.13-1.3c-0.17,0.11-0.34,0.21-0.5,0.33c-0.04,0.08-0.19,0.3-0.42,0.54
				c-0.27,0.29-0.69,0.58-1.11,0.88c-0.01,0.01-0.02,0.03-0.03,0.04c-0.26,0.45-0.31,0.98,0.07,1.35c0.3,0.29,1.18,0.55,0.89,1.14
				c-0.24,0.47-1.09,1.33-0.57,1.9s1.24,0.28,1.24,0.95c0,0.66-1.48,1.18-1.1,1.85c0.38,0.66,1.53,0.24,1.43,1.04
				c-0.08,0.65-0.85,0.91-0.97,1.5c-0.16,0.76,0.82,0.83,1.07,1.38c0.33,0.7-0.53,1.11-0.74,1.67c-0.14,0.36-0.06,0.84,0.28,1.04
				c0.19,0.11,0.45,0.11,0.63,0.26c0.26,0.21,0.23,0.64,0.05,0.94c-0.18,0.29-0.46,0.51-0.66,0.79c-0.19,0.28-0.29,0.69-0.06,0.95
				c0.28,0.32,0.86,0.21,1.14,0.53c0.23,0.25,0.16,0.66-0.02,0.96c-0.17,0.29-0.43,0.54-0.56,0.85c-0.14,0.32-0.1,0.76,0.21,0.91
				c0.2,0.09,0.45,0.04,0.65,0.12c0.11,0.05,0.17,0.11,0.2,0.19c0.27-0.27,0.53-0.53,0.79-0.79l0.12-0.13h0.01c0,0,0,0,0.01-0.01
				v-0.01c0.02-0.03,0.05-0.08,0.07-0.13c0.01-0.03,0.02-0.06,0.03-0.09C56.21,82.95,55.53,76.39,54.86,69.85z"/>
			<path class="st9" d="M44.49,71.31c-0.25-0.13-0.43-0.31-0.52-0.46c-0.09-0.16-0.08-0.27-0.06-0.27c0.01,0,0.07,0.06,0.2,0.12
				c-0.72-0.58-0.2-1.36-0.13-1.47c-0.07,0.05-0.68,0.51-0.94,2.08c-0.29,1.66-2.61,20.42-2.61,20.42S40.3,92.46,40.42,93
				c0.1,0.06,0.21,0.12,0.34,0.16l0.21,0.04l0.34,0.06l1.38,0.22l0.94,0.16c0.22-0.19,0.37-0.43,0.39-0.69
				c0.02-0.4-0.32-0.71-0.63-0.95c-0.32-0.24-0.68-0.53-0.69-0.92c-0.04-0.92,1.31-0.87,1.63-1.57c0.17-0.36,0.13-0.8-0.09-1.13
				c-0.3-0.44-0.91-0.68-1.02-1.21c-0.12-0.53,0.34-0.99,0.74-1.35c0.41-0.35,0.85-0.85,0.69-1.37c-0.08-0.25-0.29-0.44-0.49-0.6
				c-0.21-0.17-0.43-0.34-0.55-0.58c-0.49-1.02,1.48-1.68,1.54-2.65c0.05-0.75-0.78-1-0.96-1.66c-0.11-0.42,0.13-0.86,0.41-1.19
				c0.28-0.34,0.62-0.64,0.8-1.04c0.29-0.69-0.22-1.05-0.6-1.53c-0.76-0.95,0.76-1.28,0.99-2.09c0.15-0.5-0.03-1.01-0.45-1.48
				C45.02,71.56,44.73,71.44,44.49,71.31z"/>
			<path class="st9" d="M46.46,64.76c0.05,2.27,0.85,2.89,0.85,2.89l2.28,0.24c-0.57-0.43-0.76-1.76-0.76-1.76
				C47.53,67.94,46.51,64.9,46.46,64.76z"/>
		</g>
		<path class="st4" d="M48.33,71.16c-0.51-0.03-1.2-0.08-1.86-0.12c-0.67-0.02-1.33-0.11-1.8-0.19c-0.23-0.04-0.41-0.09-0.54-0.14
			c-0.01-0.01-0.01-0.01-0.02-0.01c-0.13-0.06-0.19-0.12-0.2-0.12c-0.02,0-0.03,0.11,0.06,0.27c0.09,0.15,0.27,0.33,0.52,0.46
			c0.24,0.13,0.53,0.25,0.85,0.32c0.01,0,0.03,0.01,0.04,0.01c0.33,0.06,0.69,0.12,1.04,0.14c0.62,0.03,1.23-0.03,1.72-0.09
			c0.07-0.01,0.14-0.02,0.21-0.03c0.38-0.08,0.67-0.19,0.79-0.25c0.04-0.03,0.06-0.04,0.06-0.05s-0.06-0.04-0.18-0.08
			C48.87,71.24,48.63,71.18,48.33,71.16z"/>
	</g>
</g>
</svg>
