<?xml version="1.0" encoding="utf-8"?>
<!-- Generator: Adobe Illustrator 19.1.0, SVG Export Plug-In . SVG Version: 6.00 Build 0)  -->
<svg version="1.1" id="Layer_5" xmlns="http://www.w3.org/2000/svg" xmlns:xlink="http://www.w3.org/1999/xlink" x="0px" y="0px"
	 viewBox="0 0 100 100" style="enable-background:new 0 0 100 100;" xml:space="preserve">
<style type="text/css">
	.st0{fill:#DBCAAF;stroke:#DBCAAF;stroke-width:0.04;stroke-miterlimit:10;}
	.st1{fill:#F7F0CD;stroke:#F7F0CD;stroke-width:0.04;stroke-miterlimit:10;}
	.st2{fill:#93856C;stroke:#93856C;stroke-width:0.04;stroke-miterlimit:10;}
</style>
<g id="XMLID_1_">
	<g>
		<path class="st0" d="M95.051,50.361l0.088-0.079c-0.608,0.287-1.373,0.735-2.184,1.327c-0.982,0.701-2.013,1.654-3.039,2.736
			c-1.036,1.081-2.032,2.336-2.936,3.65c-0.922,1.302-1.772,2.663-2.446,3.964c-0.18,0.356-0.364,0.752-0.577,1.144
			c0.436,0.258,0.9,0.45,1.307,0.447c0.147,0.017,0.31-0.024,0.371-0.037c0.029,0.003,0.186-0.068,0.269-0.098l0.199-0.096
			c0.328-0.181,0.528-0.366,0.767-0.636c0.483-0.579,1.049-1.367,1.638-2.014c0.297-0.343,0.592-0.666,0.907-0.997
			c0.315-0.331,0.606-0.615,0.94-0.934c0.635-0.611,1.27-1.223,1.97-1.797c0.681-0.577,1.418-1.127,2.078-1.616
			c0.325-0.24,0.643-0.511,0.952-0.783c0.308-0.262,0.65-0.57,0.917-0.827c0.268-0.267,0.522-0.575,0.656-0.797
			c0.036-0.055,0.051-0.103,0.055-0.133l-0.204-0.122C96.204,51.891,95.605,51.148,95.051,50.361z M92.529,55.417
			c-3.848,2.267-9.826,11.369-6.096,5.014c3.731-6.355,8.365-8.819,8.365-8.819C95.812,52.114,96.369,53.139,92.529,55.417z"/>
		<path class="st0" d="M97.364,47.294c-0.283-0.736-0.889-1.589-1.683-2.185c-0.102-0.061-0.203-0.132-0.287-0.182
			c-0.028-0.013-0.056-0.026-0.141-0.066l-0.217-0.094c-0.378-0.162-0.754-0.433-1.033-0.763c-0.58-0.651-0.844-1.375-1.086-2.038
			c-0.239-0.682-0.441-1.349-0.661-2.019c-0.213-0.649-0.464-1.401-0.692-1.923c-0.276-0.537-0.593-0.881-0.934-0.94
			c-0.185-0.031-0.424-0.019-0.674,0.082c-0.052,0.024-0.136,0.064-0.157,0.071l-0.266,0.158l-0.5,0.3
			c-1.348,0.778-2.709,1.584-4.001,2.477c-1.285,0.924-2.535,1.881-3.658,2.943c-1.131,1.05-2.152,2.173-3.073,3.287
			c-1.824,2.25-3.334,4.536-4.927,6.416c-0.402,0.479-0.788,0.911-1.159,1.295c-0.362,0.395-0.754,0.786-1.09,1.125
			c-0.703,0.683-1.326,1.276-1.922,1.723c-0.142,0.113-0.293,0.224-0.444,0.326c-0.18,0.098-0.261,0.198-0.669,0.3
			c-0.101,0.018-0.384,0.065-0.662-0.195c-0.229-0.254-0.207-0.44-0.216-0.54c0.013-0.197,0.041-0.273,0.071-0.359
			c0.031-0.096,0.069-0.171,0.096-0.237c-0.17,0.01-0.359,0.018-0.548,0.027c-0.037,0.154-0.077,0.328-0.096,0.495
			c-0.058,0.33-0.036,0.66,0.032,0.936c0.077,0.277,0.232,0.483,0.43,0.664c0.197,0.181,0.449,0.319,0.724,0.43
			c0.569,0.224,1.233,0.319,1.897,0.405c0.668,0.056,1.358,0.086,2.052,0.086l0.07-0.002l0.077,0.019
			c0.495,0.096,0.807,0.221,1.193,0.404c0.356,0.18,0.687,0.406,0.994,0.669c0.316,0.274,0.579,0.572,0.812,0.876l0.556,0.777
			c0.172,0.228,0.349,0.417,0.45,0.488c0.121,0.073,0.024,0.052,0.092,0.06c0.07-0.002,0.261-0.119,0.439-0.287
			c0.178-0.168,0.373-0.403,0.6-0.655c0.857-0.993,1.722-1.965,2.624-2.922c0.442-0.485,0.92-0.936,1.399-1.397
			c0.243-0.22,0.488-0.45,0.758-0.647c0.272-0.207,0.488-0.45,0.822-0.6c-0.071,0.359-0.26,0.625-0.395,0.936
			c-0.026,0.056-0.063,0.122-0.1,0.177c2.25-2.598,5.6-5.447,5.428-6.111c-0.197-0.796-8.322,7.575-11.145,7.728
			c-2.834,0.162,0.305-2.672-2.279-2.095c-1.14,0.256-0.711-0.547,0.115-1.524c-0.142,0.113-0.272,0.207-0.39,0.292
			c-0.455,0.335-0.771,0.497-0.844,0.528c0.012-0.018,0.036-0.055,0.082-0.11c-0.797,0.643-1.674,1.117-2.702,1.347
			c0.201-0.195,3.419-3.367,4.81-5.647c1.429-2.355,4.843-6.803,6.675-8.437c0,0,6.445-4.686,8.222-4.969
			c1.777-0.283-8.299,5.644-11.178,9.667c-1.311,1.843-2.375,3.774-3.523,5.407c0.668-0.816,1.436-1.809,2.243-2.886
			c0.838-1.084,1.655-2.25,2.683-3.352c1.026-1.082,2.173-2.012,3.26-2.849c1.096-0.826,2.166-1.517,3.095-2.095
			c0.955-0.545,1.749-0.99,2.326-1.271c0.282-0.126,0.513-0.239,0.67-0.31c0.124-0.045,0.206-0.066,0.236-0.072
			c-0.023,0.027-0.079,0.08-0.188,0.167c-0.131,0.104-0.327,0.26-0.577,0.45c-0.509,0.378-1.235,0.92-2.103,1.574
			c-0.434,0.327-0.901,0.68-1.389,1.051c-0.491,0.39-0.992,0.789-1.527,1.213c-1.048,0.842-2.118,1.79-3.087,2.81
			c-0.948,1.012-1.848,2.198-2.728,3.218c-0.402,0.479-0.793,0.95-1.16,1.384c1.03-0.943,9.38-8.505,12.246-9.724
			c3.054-1.306,2.082,1.299,3.227,2.302c1.144,1.003,3.281,0.96,3.456,2.814c0.174,1.864-2.258-0.546-7.328,4.784
			c-5.061,5.33-6.109,7.729-6.86,8.317c-0.557,0.452-1.927,0.642-1.704-0.532c-0.522,0.753-1.063,1.494-1.613,2.225
			c0.018,0.012,0.028,0.013,0.047,0.025c0.319,0.155,0.706,0.329,1.141,0.517c0.417,0.167,0.993,0.421,1.259,0.431
			c0.121-0.016,0.036,0.034,0.164-0.051c0.109-0.087,0.291-0.294,0.46-0.552c0.356-0.514,0.653-1.115,1.071-1.821
			c0.813-1.384,1.771-2.742,2.822-4.04c1.069-1.286,2.228-2.492,3.407-3.527c1.179-1.035,2.412-1.846,3.512-2.444
			c1.09-0.599,2.098-0.92,2.794-1.108c0.082-0.02,0.153-0.042,0.224-0.054l0.011-0.009l0.166-0.15
			c0.036,0.034,0.072,0.068,0.107,0.102c0.122-0.026,0.223-0.044,0.304-0.055c0.143-0.033,0.233-0.043,0.273-0.048
			c-0.032,0.016-0.114,0.046-0.249,0.1c-0.072,0.021-0.145,0.053-0.237,0.082l-0.001,0.01c0.137,0.105,0.261,0.228,0.386,0.351
			c0.053-0.034,0.108-0.077,0.172-0.119c0.261-0.198,0.633-0.503,0.855-0.973C97.63,48.703,97.664,48.052,97.364,47.294z"/>
		<path class="st0" d="M71.683,37.002c0.129,0.173,0.259,0.337,0.378,0.509c0.271,0.318,0.522,0.635,0.766,0.93
			c1.879,2.208,3.173,3.724,3.356,3.943c-0.1-0.081-0.469-0.411-1.056-0.914c-0.413-0.374-0.946-0.832-1.547-1.386
			c1.388,1.646,3.218,3.848,3.921,4.811c0.978-0.919,2.031-1.81,3.119-2.657c1.242-0.978,2.512-1.944,3.783-2.909
			c1.041-0.783,2.054-1.579,3.085-2.354c-0.115-0.211-0.268-0.516-0.463-0.896c-0.404-0.8-1.019-1.931-1.768-3.266
			c-0.381-0.658-0.805-1.371-1.285-2.031c-0.231-0.324-0.519-0.664-0.709-0.825c-0.027-0.023-0.193-0.131-0.249-0.167
			c-0.065-0.037-0.129-0.084-0.213-0.133c-0.168-0.089-0.339-0.158-0.501-0.216c-0.343-0.119-0.687-0.148-0.971-0.091
			c-0.143,0.033-0.277,0.077-0.395,0.163c-0.063,0.032-0.119,0.086-0.175,0.139l-0.267,0.257c-0.682,0.676-1.419,1.484-2.187,2.219
			c-0.778,0.734-1.593,1.444-2.533,2.04c-0.47,0.293-0.968,0.573-1.589,0.721c-0.529,0.118-0.925,0.202-1.35,0.361
			c-0.828,0.302-1.53,0.807-1.36,1.312C71.509,36.704,71.59,36.862,71.683,37.002z M79.442,32.614
			c2.346-3.608,3.217-1.863,3.217-1.863c1.657,0.765,2.932,5.659,2.932,5.659c-2.596,1.547-6.795,5.231-7.624,5.721
			c-0.828,0.48-4.642-5.181-4.544-6.042C73.521,35.229,77.097,36.213,79.442,32.614z"/>
		<path class="st0" d="M67.37,40.127c0.586-0.012,0.904-0.016,0.904-0.016l0.002,0.07c0.122,0.143,0.542,0.637,1.095,1.345
			c0.676,0.851,1.547,1.991,2.373,3.176c0.837,1.176,1.621,2.386,2.19,3.304c0.108,0.181,0.209,0.341,0.311,0.492
			c0.769-1.003,1.651-2.042,2.645-3.019c-0.981,0.344-2.511,0.893-2.719,1.057c-0.326,0.25-3.891-5.769-4.686-6.445
			c-0.795-0.676,0.273-0.742,0.873-0.872c0.427-0.09,1.007-0.658,1.311-0.97c-0.072-0.068-0.142-0.145-0.214-0.213
			c-0.151-0.156-0.301-0.312-0.451-0.478c-0.087-0.109-0.173-0.218-0.249-0.336c-0.099,0.088-0.2,0.185-0.32,0.281
			c-0.254,0.229-0.578,0.459-0.941,0.686c-0.374,0.235-0.774,0.437-1.241,0.622c-0.125,0.055-0.226,0.073-0.33,0.111l-0.155,0.052
			l-0.072,0.022c-0.093,0.029-0.114,0.046-0.155,0.052c-0.012,0.018-0.061,0.013-0.099,0.088c-0.027,0.066-0.059,0.172-0.072,0.279
			c-0.026,0.225-0.023,0.463-0.003,0.634C67.375,40.078,67.372,40.108,67.37,40.127z"/>
		<path class="st0" d="M5.046,43.263c0.063,0.315,0.14,0.68,0.249,1.03c0.109,0.349,0.226,0.71,0.364,1.063
			c0.06,0.166,0.129,0.342,0.2,0.509c0.307-0.173,0.614-0.336,0.928-0.489c0.97-0.504,1.962-0.946,2.849-1.419
			c0.898-0.482,1.741-1.09,2.495-1.787c0.754-0.697,1.438-1.481,2.081-2.33c0.65-0.828,1.286-1.707,2.035-2.533
			c0.785-0.882,1.602-1.522,2.407-2.233c0.814-0.7,1.614-1.372,2.37-2.089l0.488-0.45c-0.274-0.121-0.558-0.232-0.825-0.332
			c-0.744-0.254-1.492-0.389-2.191-0.35c-0.698,0.039-1.339,0.263-1.939,0.661c-0.148,0.082-0.302,0.213-0.432,0.308l-0.511,0.398
			l-1.002,0.788c-0.666,0.539-1.304,1.09-1.941,1.711c-0.312,0.301-0.608,0.634-1.071,0.958c-0.237,0.161-0.557,0.273-0.847,0.3
			c-0.289,0.016-0.479,0.025-0.62,0.048c-0.711,0.147-1.298,0.684-1.687,1.314c-0.42,0.636-0.627,1.406-0.823,2.166l-0.124,0.481
			l-0.654,0.173c-0.111,0.017-0.294,0.056-0.447,0.098s-0.298,0.095-0.435,0.159c-0.29,0.106-0.525,0.257-0.682,0.418
			c-0.158,0.17-0.246,0.329-0.29,0.542c-0.022,0.107-0.037,0.234-0.012,0.365C4.978,42.819,5.023,43.112,5.046,43.263z
			 M8.277,42.492c1.374-0.14-0.064-2.823,0.558-4.011c0.622-1.188,1.503-0.403,3.183-0.697c1.679-0.294,1.288-1.984,4.069-4.284
			c2.781-2.299,2.768,0.416,2.768,0.416c-3.184,2.442-1.613,1.362-5.616,5.852c-3.992,4.481-6.411,4.393-6.411,4.393
			C4.668,42.754,6.913,42.624,8.277,42.492z"/>
		<path class="st0" d="M13.266,59.382c-0.102,0.107-0.182,0.207-0.244,0.309c-0.179,0.267,0.013,0.497,0.187,0.616
			c0.165,0.118,0.288,0.172,0.288,0.172s-0.133,0.034-0.355-0.021c-0.115-0.033-0.267-0.09-0.389-0.243
			c-0.152-0.146-0.189-0.428-0.132-0.669c0.124-0.481,0.49-0.906,0.904-1.314c0.1-0.098,0.212-0.204,0.332-0.299
			c-0.82,0.065-1.747-0.16,1.044-2.191c4.013-2.932,11.941-8.708,15.574-16.72c0,0,0.731-0.501,1.833,0.011
			c1.1,0.522,1.634,0.97,1.634,0.97s0.294,1.243-1.051,1.218c-0.038,0.075-0.067,0.151-0.105,0.226
			c-0.18,0.356-0.358,0.792-0.526,1.308c0.223-0.044,0.505-0.081,0.837-0.122c0.401-0.043,0.865-0.109,1.387-0.169
			c-0.018-0.19-0.025-0.389-0.019-0.617c0.001-0.446,0.01-0.951,0.026-1.444c0.019-0.256-0.002-0.506-0.016-0.726
			c-0.015-0.22-0.082-0.406-0.114-0.479c-0.026-0.033-0.025-0.043,0.003-0.029c0,0,0.01,0.001,0.02,0.002
			c-0.008-0.021-0.027-0.023-0.046-0.035c-0.268-0.08-0.581-0.205-0.856-0.316c-0.549-0.231-1.044-0.496-1.446-0.79
			c-0.404-0.284-0.703-0.616-0.837-0.919c-0.072-0.147-0.118-0.271-0.127-0.362c-0.008-0.1,0.028-0.155,0.028-0.155
			s0.07-0.002,0.147,0.017c0.077,0.019,0.173,0.049,0.3,0.064c0.214,0.034,0.477,0.074,0.788,0.13
			c-0.035-0.044-0.058-0.096-0.081-0.158c-0.087-0.188-0.281-0.577-0.602-0.634c-0.291-0.053-0.693,0.337-1.044,0.803
			c-0.353,0.485-0.719,1.088-1.112,1.747c-0.796,1.327-1.72,2.907-2.837,4.524c-0.558,0.809-1.148,1.633-1.779,2.464
			c-0.638,0.809-1.279,1.648-2.003,2.428c-1.398,1.565-3.021,3.006-4.564,4.188c-1.545,1.201-2.99,2.305-4.272,3.2
			c-1.067,0.75-2.008,1.347-2.751,1.777l0.34,0.059c0,0,0.028,0.102,0.068,0.275c0.03,0.172,0.081,0.416,0.137,0.71
			c0.046,0.293,0.119,0.608,0.191,0.934c0.052,0.155,0.082,0.327,0.136,0.462c0.042,0.153,0.107,0.28,0.162,0.405
			c0.045,0.124,0.116,0.202,0.175,0.288c0.073,0.058,0.12,0.162,0.215,0.203c0.062,0.067,0.166,0.108,0.27,0.15
			c0.092,0.06,0.229,0.076,0.346,0.099c0.116,0.023,0.219,0.075,0.329,0.067c-0.095-0.298-0.172-0.575-0.236-0.8
			C13.353,59.749,13.308,59.535,13.266,59.382z"/>
		<path class="st0" d="M68.89,55.183c0.306-0.332,0.636-0.711,0.98-1.117c0.32-0.37,0.629-0.731,0.975-1.158
			c0.355-0.416,0.702-0.852,1.051-1.298c0.596-0.794,1.239-1.643,1.916-2.537c-0.149-0.176-0.323-0.384-0.504-0.623
			c-0.676-0.851-1.546-2.001-2.372-3.186c-0.827-1.175-1.611-2.385-2.19-3.304c-0.2-0.33-0.375-0.618-0.517-0.852
			c-0.221,0.024-0.725,0.096-1.451,0.201c-1.004,0.113-2.434,0.307-4.15,0.487c-1.725,0.17-3.724,0.397-5.877,0.587
			c-2.145,0.201-4.447,0.394-6.737,0.568c-2.299,0.163-4.598,0.327-6.753,0.447c-2.158,0.14-4.177,0.197-5.902,0.287
			c-1.724,0.08-3.164,0.094-4.169,0.128c-0.794,0.008-1.311,0.019-1.509,0.016c-0.145,0.231-0.309,0.45-0.473,0.67
			c-0.826,1.066-1.841,2.228-2.997,3.405c0.151,0.325,0.355,0.794,0.571,1.334c0.439,1.101,0.886,2.57,1.416,4.009
			c0.254,0.723,0.508,1.456,0.747,2.138c0.11,0.34,0.262,0.655,0.365,0.974c0.112,0.32,0.228,0.611,0.325,0.89
			c0.016,0.032,0.024,0.052,0.03,0.083c0.274-0.058,0.651-0.144,1.128-0.238c1.022-0.181,2.495-0.488,4.268-0.732
			c1.773-0.243,3.842-0.562,6.067-0.774c2.229-0.241,4.607-0.405,6.993-0.549c2.385-0.134,4.773-0.208,7.007-0.24
			c1.123-0.02,2.199,0.014,3.231,0.012c1.02,0.008,1.988,0.039,2.888,0.062c1.79,0.036,3.274,0.156,4.318,0.216
			C68.163,55.129,68.615,55.161,68.89,55.183z M32.753,45.291c1.158-0.76,4.133-0.856,5.441-0.934
			c3.602-0.203,6.715-0.372,10.312-0.526c0.966-0.038,1.934-0.096,2.894-0.165c4.569-0.33,9.113-0.881,13.67-1.283
			c0.812-0.076,1.811-0.061,2.237,0.642c-5.435,0.886-10.879,1.671-16.366,2.144c-4.667,0.408-9.389,0.691-14.071,0.453
			C36.523,45.613,32.442,45.493,32.753,45.291z M32.456,53c-0.665-0.076-1.068-1.669-2.071-3.043
			c-1.003-1.374,0.59-2.649,0.59-2.649s3.259,0.283,13.377-0.89c10.107-1.164,23.441-2.545,23.441-2.545l2.856,3.807
			c0,0-10.037,1.331-14.994,1.766c4.989-0.193,15.626-0.524,15.626-0.524s-1.843,2.595-2.901,3.347
			C67.323,53.021,33.122,53.076,32.456,53z"/>
		<path class="st0" d="M10.606,57.065c0.675-0.617,1.655-1.467,2.839-2.461c1.187-1.014,2.587-2.163,4.041-3.434
			c1.493-1.267,2.939-2.638,4.305-4.178c1.363-1.52,2.646-3.108,3.776-4.674c1.131-1.566,2.172-3.043,3.119-4.303
			c0.478-0.629,0.929-1.193,1.41-1.663c0.235-0.231,0.478-0.451,0.762-0.597c0.264-0.138,0.613-0.247,0.916-0.123
			c0.293,0.123,0.415,0.355,0.495,0.523c0.079,0.178,0.111,0.33,0.137,0.452c0.009,0.09,0.021,0.161,0.015,0.22
			c0.048,0.015,0.097,0.021,0.154,0.037c0.049,0.006,0.107,0.022,0.155,0.028c0.022-0.107,0.025-0.215,0.027-0.324
			c0.004-0.297-0.022-0.587-0.072-0.841c-0.106-0.548-0.363-0.904-0.68-1.079c-0.159-0.088-0.37-0.142-0.605-0.168l-0.454-0.022
			c-0.158-0.008-0.335-0.018-0.521-0.04c-0.372-0.043-0.724-0.083-1.163-0.232c-0.114-0.043-0.238-0.087-0.368-0.161
			c-0.06,0.092-0.12,0.185-0.191,0.285c-0.131,0.193-0.263,0.396-0.416,0.607c0.878-0.395,1.393,0.04,1.393,0.04s0,0-3.065,4.785
			c-3.065,4.785-15.955,15.804-17.09,15.585C8.392,55.097,8.797,53.2,8.46,51.902c-0.328-1.297-1.625-0.959-3.118-1.516
			c-1.483-0.556,1.264-1.69,1.264-1.69s6.129-2.789,8.332-6.8c2.204-4.011,4.701-4.697,5.933-5.33
			c1.232-0.632,2.911-2.572,2.911-2.572c1.581-1.951,2.824-1.809,2.409,0.087c-0.404,1.887-8.387,13.179-5.53,10.214
			c1.429-1.482,2.361-2.615,2.932-3.363l0.001-0.01c0.138-0.252,0.314-0.579,0.527-0.971c0.477-0.877,1.142-2.011,1.807-3.144
			c0.683-1.122,1.377-2.242,1.926-3.061c0.131-0.193,0.251-0.378,0.358-0.534c-0.045-0.124-0.068-0.275-0.052-0.412
			c0.002-0.02,0.004-0.039,0.006-0.049c-0.396-0.61-0.999-1.145-1.503-1.252c-0.587-0.156-1.309,0.178-2.013,0.781
			c-0.794,0.702-1.617,1.392-2.457,2.069c-0.86,0.675-1.754,1.296-2.618,1.912c-0.854,0.616-1.776,1.225-2.467,1.889
			c-0.745,0.708-1.412,1.514-2.083,2.35c-0.679,0.825-1.372,1.677-2.163,2.44c-0.782,0.773-1.647,1.487-2.561,2.107
			c-0.943,0.616-1.864,1.125-2.741,1.689c-0.332,0.22-0.664,0.43-0.997,0.659c0.009,0.011,0.016,0.032,0.025,0.043l-0.884,0.623
			c-0.017-0.022-0.026-0.033-0.043-0.055c-0.237,0.161-0.463,0.324-0.69,0.486c-0.421,0.299-0.842,0.598-1.245,0.918l-0.294,0.234
			l-0.011,0.009L3.412,49.66c-0.001,0.01-0.011,0.009-0.012,0.018c-0.011,0.009-0.024,0.037-0.036,0.055
			c-0.082,0.11-0.114,0.215-0.124,0.303c-0.02,0.176,0.07,0.425,0.345,0.714c0.132,0.144,0.306,0.273,0.478,0.412l0.645,0.431
			l0.331,0.226l0.39,0.322c0.263,0.218,0.445,0.447,0.655,0.69c0.39,0.491,0.705,1.032,0.929,1.584
			c0.448,1.112,0.582,2.277,0.781,3.232c0.059,0.265,0.093,0.397,0.188,0.607c0.135,0.293,0.226,0.541,0.317,0.78
			c0.175,0.466,0.383,0.896,0.591,1.079c0.196,0.28,0.768,0.137,1.358-0.172c-0.037-0.193-0.036-0.381-0.065-0.563
			c-0.026-0.469,0.013-0.891,0.091-1.229c0.041-0.184,0.081-0.358,0.136-0.5c-0.2,0.106-0.36,0.197-0.496,0.261
			c-0.178,0.079-0.291,0.115-0.342,0.129c0.025-0.047,0.115-0.136,0.249-0.269C9.998,57.61,10.265,57.363,10.606,57.065z"/>
		<path class="st0" d="M31.984,58.349c0.027,0.112,0.056,0.205,0.064,0.305c0.029,0.182,0.062,0.324,0.06,0.433
			c0.008,0.1-0.01,0.177-0.01,0.177s-0.078-0.009-0.172-0.059c-0.093-0.05-0.202-0.142-0.357-0.259
			c-0.313-0.214-0.698-0.575-1.067-1.074c-0.191-0.24-0.388-0.51-0.571-0.819c-0.184-0.299-0.386-0.609-0.565-0.957
			c-0.18-0.338-0.388-0.679-0.544-1.054c-0.165-0.376-0.351-0.744-0.475-1.135c-0.277-0.785-0.493-1.583-0.634-2.343
			c-0.162-0.752-0.218-1.472-0.207-2.096c-0.011-0.338,0.014-0.643,0.044-0.907c-1.108,1.103-2.289,2.247-3.534,3.334
			c-1.419,1.226-2.891,2.396-4.327,3.421c-0.723,0.512-1.441,0.985-2.134,1.412c-0.713,0.424-1.37,0.795-1.981,1.112
			c-0.594,0.339-1.143,0.633-1.586,0.949c-0.011,0.009-0.022,0.017-0.033,0.026l0.195-0.057c0,0,0.135,0.293,0.381,0.827
			c0.237,0.533,0.638,1.273,1.134,2.132c0.498,0.85,1.131,1.815,1.924,2.679c0.795,0.854,1.772,1.581,2.832,1.761
			c0.261,0.06,0.527,0.07,0.785,0.07c0.242-0.032,0.68-0.051,0.953-0.099c0.526-0.089,1.079-0.243,1.551-0.467
			c0.454-0.245,0.869-0.575,1.3-0.962c0.42-0.378,0.864-0.794,1.358-1.124c0.494-0.33,1.006-0.559,1.457-0.686
			c0.062-0.023,0.123-0.035,0.184-0.048c-0.323-0.295-0.606-0.595-0.85-0.89c-0.358-0.428-0.654-0.868-0.893-1.292
			c-1.134,0.118-1.875,1.312-4.421,2.945c-2.923,1.897-5.56-3.055-5.56-3.055c1.254-2.474,8.156-6.037,8.156-6.037
			c-0.042-1.363,2.063-2.867,2.575-3.096c-0.105,0.048,1.121,4.679,2.548,6.587c0.696,0.932,1.961,2.881-0.59,2.302
			c-0.784-0.169-1.54-0.751-2.19-1.4c0.026,0.033,0.062,0.067,0.088,0.099c0.475,0.53,1.02,1.138,1.607,1.73
			c0.153,0.136,0.306,0.273,0.458,0.419c0.166,0.108,0.329,0.246,0.484,0.363c0.314,0.204,0.651,0.372,0.915,0.412
			c0.068,0.008,0.127,0.015,0.195,0.032c0.07-0.002,0.122-0.026,0.181-0.019c0.126,0.024,0.236-0.072,0.369-0.107l0.093-0.029
			c0,0,0.085-0.05,0.118-0.076l0.29-0.195c0.214-0.134,0.286-0.245,0.447-0.355c0.276-0.246,0.517-0.536,0.728-0.819
			c0.202-0.294,0.365-0.593,0.488-0.886c0.123-0.293,0.244-0.577,0.314-0.837c0.048-0.163,0.085-0.308,0.13-0.441
			c-0.261,0.03-0.51,0.041-0.731,0.065C32.565,58.297,32.244,58.329,31.984,58.349z"/>
	</g>
	<g>
		<path class="st1" d="M94.799,51.611c0,0-4.634,2.464-8.365,8.819c-3.731,6.355,2.247-2.747,6.096-5.014
			C96.369,53.139,95.812,52.114,94.799,51.611z"/>
		<path class="st1" d="M75.51,53.302c0.011-0.009,0.012-0.018,0.023-0.027c1.148-1.633,2.212-3.564,3.523-5.407
			c2.879-4.023,12.956-9.95,11.178-9.667c-1.777,0.283-8.222,4.969-8.222,4.969c-1.833,1.635-5.246,6.083-6.675,8.437
			c-1.391,2.28-4.609,5.452-4.81,5.647c1.028-0.229,1.905-0.704,2.702-1.347c0.001-0.01,0.012-0.018,0.023-0.027
			c0.012-0.018,0.025-0.047,0.047-0.064c0.123-0.125,0.293-0.304,0.508-0.537C74.237,54.812,74.838,54.147,75.51,53.302z"/>
		<path class="st1" d="M96.218,47.699c-0.175-1.854-2.311-1.811-3.456-2.814c-1.144-1.003-0.172-3.609-3.227-2.302
			c-2.866,1.219-11.216,8.781-12.246,9.724c-0.01-0.001-0.01-0.001-0.011,0.009c-0.445,0.514-0.868,1.001-1.283,1.42
			c-0.574,0.599-1.126,1.091-1.582,1.435c-0.011,0.009-0.022,0.017-0.033,0.026c-0.825,0.976-1.254,1.78-0.115,1.524
			c2.584-0.577-0.555,2.256,2.279,2.095c2.823-0.153,10.948-8.524,11.145-7.728c0.172,0.664-3.178,3.513-5.428,6.111
			c-0.117,0.244-0.252,0.467-0.378,0.7c-0.351,0.555-0.693,1.12-1.063,1.663c-0.166,0.239-0.321,0.469-0.497,0.707
			c-0.223,1.174,1.147,0.984,1.704,0.532c0.751-0.588,1.799-2.987,6.86-8.317C93.96,47.153,96.391,49.563,96.218,47.699z"/>
		<path class="st1" d="M69.485,40.091c0.795,0.676,4.36,6.695,4.686,6.445c0.207-0.165,1.737-0.713,2.719-1.057
			c0.067-0.062,0.123-0.125,0.19-0.187c0.134-0.133,0.278-0.266,0.422-0.398c-0.703-0.963-2.533-3.165-3.921-4.811
			c-0.386-0.351-0.808-0.737-1.254-1.174c-0.214-0.213-0.436-0.436-0.658-0.66c-0.303,0.312-0.884,0.88-1.311,0.97
			C69.759,39.349,68.69,39.416,69.485,40.091z"/>
		<path class="st1" d="M77.967,42.132c0.829-0.49,5.028-4.174,7.624-5.721c0,0-1.275-4.895-2.932-5.659c0,0-0.871-1.745-3.217,1.863
			c-2.345,3.599-5.92,2.615-6.019,3.476C73.324,36.951,77.139,42.612,77.967,42.132z"/>
		<path class="st1" d="M36.869,45.623c4.682,0.238,9.404-0.045,14.071-0.453c5.487-0.473,10.931-1.259,16.366-2.144
			c-0.425-0.703-1.425-0.718-2.237-0.642c-4.557,0.401-9.101,0.952-13.67,1.283c-0.96,0.069-1.928,0.127-2.894,0.165
			c-3.597,0.154-6.709,0.324-10.312,0.526c-1.308,0.078-4.283,0.175-5.441,0.934C32.442,45.493,36.523,45.613,36.869,45.623z"/>
		<path class="st1" d="M70.65,47.68l-2.856-3.807c0,0-13.334,1.38-23.441,2.545c-10.118,1.173-13.377,0.89-13.377,0.89
			s-1.593,1.275-0.59,2.649c1.003,1.374,1.406,2.967,2.071,3.043c0.665,0.076,34.867,0.021,35.924-0.731
			c1.058-0.752,2.901-3.347,2.901-3.347s-10.636,0.331-15.626,0.524C60.613,49.011,70.65,47.68,70.65,47.68z M53.38,49.582
			c-0.753-0.007,0.315-0.063,2.246-0.13C54.624,49.536,53.836,49.585,53.38,49.582z"/>
		<path class="st1" d="M18.915,54.287c1.342-1.076,2.75-2.283,4.127-3.494c0.695-0.615,1.39-1.229,2.073-1.825
			c0.675-0.617,1.329-1.216,1.963-1.818c1.247-1.196,2.434-2.299,3.389-3.281c0.237-0.25,0.463-0.492,0.645-0.7
			c0.179-0.178,0.393-0.49,0.504-0.676c0.267-0.515,0.563-0.937,0.819-1.265c0.275-0.325,0.51-0.556,0.676-0.706
			c0.166-0.15,0.28-0.196,0.28-0.196s-0.043,0.114-0.163,0.299c-0.096,0.148-0.208,0.343-0.336,0.596
			c1.346,0.025,1.051-1.218,1.051-1.218s-0.534-0.448-1.634-0.97c-1.101-0.513-1.833-0.011-1.833-0.011
			c-3.633,8.012-11.56,13.788-15.574,16.72c-2.79,2.031-1.864,2.256-1.044,2.191c0.353-0.317,0.766-0.626,1.217-0.932
			c0.579-0.38,1.2-0.785,1.865-1.224C17.578,55.314,18.239,54.825,18.915,54.287z"/>
		<path class="st1" d="M27.016,51.416c-0.512,0.229-2.617,1.733-2.575,3.096c0,0-6.901,3.563-8.156,6.037
			c0,0,2.636,4.951,5.56,3.055c2.546-1.632,3.288-2.827,4.421-2.945c-0.19-0.329-0.352-0.655-0.485-0.958
			c-0.318-0.691-0.474-1.313-0.583-1.752c-0.034-0.222-0.054-0.393-0.07-0.514c-0.026-0.122,0.014-0.207,0.014-0.207
			s0.086,0.03,0.166,0.108c0.08,0.079,0.188,0.18,0.322,0.305c0.017,0.022,0.035,0.044,0.053,0.056
			c0.284,0.29,0.672,0.711,1.101,1.207c0.65,0.649,1.406,1.231,2.19,1.4c2.551,0.579,1.287-1.37,0.59-2.302
			C28.137,56.095,26.911,51.464,27.016,51.416z"/>
		<path class="st1" d="M6.827,44.161c0,0,2.419,0.088,6.411-4.393c4.003-4.49,2.432-3.41,5.616-5.852c0,0,0.013-2.715-2.768-0.416
			c-2.781,2.299-2.39,3.99-4.069,4.284c-1.679,0.294-2.561-0.491-3.183,0.697c-0.622,1.188,0.817,3.871-0.558,4.011
			C6.913,42.624,4.668,42.754,6.827,44.161z"/>
		<path class="st1" d="M29.681,34.956c0,0-0.515-0.436-1.393-0.04l-0.001,0.01c-0.497,0.707-1.076,1.523-1.665,2.338
			c-0.795,1.059-1.589,2.109-2.212,2.87c-0.615,0.782-1.058,1.277-1.058,1.277s0.09-0.178,0.243-0.478
			c-0.571,0.748-1.504,1.88-2.932,3.363c-2.857,2.965,5.126-8.327,5.53-10.214c0.415-1.896-0.828-2.038-2.409-0.087
			c0,0-1.679,1.94-2.911,2.572c-1.232,0.632-3.73,1.319-5.933,5.33c-2.204,4.011-8.332,6.8-8.332,6.8s-2.747,1.133-1.264,1.69
			c1.493,0.557,2.791,0.22,3.118,1.516c0.337,1.298-0.068,3.195,1.066,3.423c1.135,0.219,14.024-10.8,17.09-15.585
			C29.681,34.956,29.681,34.956,29.681,34.956z"/>
	</g>
	<g>
		<path class="st2" d="M98.13,51.784c-0.145-0.116-0.256-0.188-0.408-0.245c-0.17-0.158-0.331-0.315-0.501-0.474
			c0.351-0.208,0.887-0.563,1.316-1.277c0.471-0.739,0.605-1.914,0.242-2.986c-0.374-1.064-1.019-2.099-2.086-3.005
			c-0.136-0.115-0.272-0.22-0.458-0.33c-0.093-0.05-0.205-0.113-0.262-0.139l-0.131-0.065l-0.065-0.037
			c-0.187-0.101-0.322-0.215-0.462-0.38c-0.282-0.31-0.507-0.851-0.705-1.469c-0.208-0.609-0.398-1.285-0.606-1.983
			c-0.236-0.711-0.388-1.373-0.799-2.203c-0.213-0.391-0.454-0.796-0.86-1.149c-0.396-0.353-0.949-0.634-1.528-0.68
			c-0.589-0.048-1.123,0.11-1.568,0.356c-0.042,0.025-0.084,0.04-0.126,0.065c-0.08-0.168-0.175-0.377-0.287-0.608
			c-0.422-0.821-1-2.008-1.815-3.38c-0.417-0.692-0.867-1.438-1.443-2.207c-0.312-0.393-0.595-0.782-1.139-1.221
			c-0.165-0.118-0.193-0.131-0.341-0.227c-0.14-0.076-0.269-0.16-0.402-0.214c-0.262-0.139-0.547-0.241-0.845-0.325
			c-0.596-0.167-1.282-0.236-1.968-0.046c-0.347,0.089-0.691,0.238-0.984,0.453c-0.15,0.102-0.274,0.226-0.407,0.35l-0.272,0.296
			c-0.737,0.808-1.369,1.569-2.078,2.31c-0.69,0.744-1.407,1.465-2.165,2.023c-0.369,0.275-0.764,0.527-1.124,0.635
			c-0.441,0.128-1.015,0.29-1.486,0.514c-0.483,0.232-0.969,0.494-1.366,0.934c-0.194,0.226-0.374,0.493-0.47,0.819l-0.001,0.01
			c-0.184,0.048-0.492,0.142-0.865,0.278c-0.299,0.105-0.641,0.234-1.004,0.371c-0.352,0.128-0.737,0.292-1.088,0.411l-0.28,0.107
			l-0.146,0.063l-0.229,0.093c-0.302,0.124-0.618,0.375-0.841,0.677c-0.225,0.321-0.336,0.685-0.34,0.982
			c-0.025,0.305,0.025,0.558,0.091,0.764c0.056,0.205,0.126,0.371,0.209,0.51c-0.936,0.032-2.138,0.053-3.523,0.113
			c-1.726,0.09-3.746,0.157-5.902,0.287c-2.155,0.12-4.453,0.274-6.752,0.438c-2.29,0.174-4.592,0.357-6.736,0.558
			c-2.152,0.18-4.162,0.416-5.878,0.597c-0.561,0.055-1.094,0.113-1.595,0.165c0.024-0.037,0.049-0.084,0.074-0.13
			c0.228-0.43,0.446-0.95,0.557-1.572c0.055-0.311,0.123-0.64,0.105-1.009c-0.008-0.368-0.03-0.777-0.253-1.258
			c-0.112-0.231-0.281-0.488-0.537-0.676c-0.226-0.194-0.607-0.327-0.782-0.357c-0.272-0.051-0.545-0.092-0.817-0.143
			c-0.039-0.005-0.067-0.018-0.107-0.022c0.037-0.154,0.075-0.309,0.094-0.475c0.051-0.361,0.074-0.735,0.048-1.115
			c-0.035-0.391-0.107-0.796-0.3-1.194c-0.172-0.406-0.496-0.78-0.882-1.043c-0.388-0.253-0.828-0.392-1.226-0.467l-0.527-0.07
			c-0.166-0.019-0.313-0.036-0.449-0.061c-0.233-0.046-0.494-0.106-0.674-0.176l0.051-0.272c-0.305-0.63-0.638-1.094-1.098-1.583
			c-0.453-0.458-1.049-0.883-1.781-1.076s-1.536-0.096-2.171,0.168c-0.644,0.254-1.174,0.639-1.617,1.045l-0.754,0.697
			c-0.018-0.012-0.046-0.035-0.064-0.047c-0.372-0.3-0.769-0.554-1.199-0.782c-0.851-0.444-1.848-0.747-2.899-0.748
			c-1.051-0.001-2.131,0.341-2.974,0.949c-0.225,0.143-0.411,0.3-0.619,0.474l-0.469,0.462c-0.313,0.311-0.622,0.672-0.918,1.005
			c-0.593,0.676-1.142,1.406-1.658,2.101c-0.276,0.335-0.535,0.692-0.794,0.871c-0.13,0.094-0.233,0.132-0.364,0.147
			c-0.15,0.013-0.407,0.003-0.7,0.049c-1.022,0.181-1.93,0.751-2.598,1.478c-0.534,0.593-0.947,1.26-1.245,1.96
			c-0.051,0.014-0.102,0.028-0.163,0.041c-0.234,0.053-0.461,0.126-0.688,0.209c-0.448,0.187-0.914,0.451-1.308,0.862
			c-0.394,0.411-0.688,0.992-0.745,1.571c-0.042,0.283-0.034,0.561,0.006,0.814c0.042,0.322,0.072,0.415,0.123,0.659
			c0.116,0.459,0.25,0.851,0.412,1.257c0.163,0.395,0.348,0.773,0.553,1.144c0.107,0.191,0.224,0.383,0.341,0.574
			c-0.223,0.133-0.459,0.285-0.683,0.428c-0.46,0.294-0.903,0.611-1.357,0.945L2.26,48.199c-0.045,0.044-0.011,0.009-0.133,0.124
			c-0.033,0.026-0.1,0.098-0.124,0.134c-0.069,0.081-0.128,0.164-0.187,0.246c-0.226,0.331-0.382,0.74-0.413,1.182
			c-0.041,0.442,0.069,0.87,0.235,1.237c0.177,0.357,0.401,0.651,0.642,0.886c0.229,0.254,0.486,0.432,0.741,0.63l0.693,0.446
			l0.332,0.216l0.217,0.183c0.155,0.117,0.312,0.303,0.453,0.458c0.288,0.34,0.5,0.741,0.701,1.151
			c0.407,0.86,0.585,1.822,0.864,2.934c0.06,0.255,0.196,0.627,0.333,0.901c0.107,0.191,0.207,0.44,0.319,0.681
			c0.25,0.504,0.5,1.088,1.128,1.576c0.32,0.235,0.759,0.384,1.148,0.369c0.398-0.014,0.738-0.124,1.021-0.26
			c0.157-0.071,0.305-0.154,0.443-0.237c0.117,0.192,0.273,0.388,0.432,0.555c0.243,0.216,0.498,0.414,0.784,0.516
			c0.271,0.14,0.547,0.162,0.802,0.181c0.262,0.05,0.478-0.015,0.679-0.041c0.322-0.042,0.553-0.155,0.732-0.244
			c0.044,0.134,0.099,0.259,0.163,0.395c0.432,0.991,1.027,2.12,1.924,3.204c0.454,0.538,0.978,1.073,1.631,1.515
			c0.644,0.44,1.405,0.805,2.241,0.95c0.417,0.078,0.832,0.095,1.25,0.083c0.452-0.047,0.691-0.06,1.086-0.134
			c0.809-0.136,1.533-0.4,2.2-0.77c0.679-0.388,1.185-0.915,1.602-1.354c0.427-0.437,0.759-0.825,1.089-1.115
			c0.349-0.277,0.673-0.508,1.007-0.658c0.326-0.161,0.653-0.252,0.91-0.332c0.112-0.027,0.213-0.045,0.296-0.075
			c0.142,0.056,0.306,0.094,0.472,0.123l0.527,0.07c0.178,0.001,0.362-0.048,0.534-0.078c0.381-0.036,0.678-0.21,0.975-0.374
			l0.223-0.133c0.14-0.093,0.11-0.096,0.176-0.148l0.274-0.227c0.164-0.13,0.402-0.39,0.582-0.578
			c0.345-0.417,0.63-0.83,0.831-1.283c0.199-0.443,0.338-0.874,0.396-1.293c0.076-0.408,0.05-0.787,0.027-1.107
			c-0.025-0.211-0.063-0.404-0.113-0.568c0.822-0.075,1.772-0.154,2.833-0.241c1.764-0.165,3.831-0.296,6.051-0.458
			c2.209-0.154,4.576-0.31,6.941-0.446c2.363-0.117,4.726-0.233,6.95-0.346c2.212-0.094,4.286-0.204,6.066-0.248
			c1.214-0.04,2.289-0.075,3.184-0.102c-0.08,0.09-0.141,0.192-0.203,0.304c-0.178,0.346-0.333,0.745-0.326,1.202
			c-0.001,0.446,0.132,0.927,0.406,1.306c0.274,0.378,0.617,0.675,0.978,0.895c0.733,0.441,1.497,0.697,2.263,0.844
			c0.725,0.162,1.441,0.234,2.159,0.277c0.143,0.046,0.418,0.157,0.613,0.278c0.214,0.124,0.426,0.267,0.604,0.436
			c0.18,0.159,0.346,0.357,0.499,0.582c0.17,0.247,0.356,0.527,0.58,0.82c0.234,0.294,0.485,0.611,0.927,0.909
			c0.4,0.314,1.205,0.475,1.766,0.251c0.259-0.099,0.471-0.214,0.645-0.353c0.149,0.086,0.327,0.176,0.542,0.29
			c0.329,0.157,0.723,0.35,1.205,0.564c0.504,0.187,0.936,0.484,1.906,0.585c0.477,0.074,1.226-0.147,1.595-0.512
			c0.36-0.286,0.573-0.589,0.765-0.884c0.09,0.08,0.191,0.151,0.292,0.222c0.404,0.284,0.882,0.527,1.435,0.63
			c0.282,0.052,0.567,0.075,0.921,0.006c0.191-0.028,0.234-0.053,0.366-0.077c0.216-0.065,0.259-0.099,0.393-0.143
			c0.467-0.185,0.982-0.522,1.331-0.889c0.358-0.356,0.633-0.681,0.917-0.996l0.869-0.922c0.292-0.304,0.585-0.607,0.886-0.9
			l0.924-0.886c0.632-0.582,1.262-1.154,1.9-1.706c0.629-0.563,1.289-1.042,1.992-1.636c0.351-0.297,0.684-0.606,1.017-0.915
			c0.335-0.329,0.608-0.634,0.947-1.002c0.3-0.372,0.621-0.752,0.854-1.31c0.101-0.276,0.232-0.638,0.12-1.136
			C98.459,52.198,98.32,51.944,98.13,51.784z M67.372,39.414c0.012-0.108,0.044-0.213,0.072-0.279
			c0.038-0.075,0.087-0.069,0.099-0.088c0.04-0.005,0.062-0.023,0.155-0.052l0.072-0.022l0.155-0.052
			c0.103-0.038,0.205-0.056,0.33-0.111c0.467-0.185,0.867-0.387,1.241-0.622c0.363-0.226,0.687-0.457,0.941-0.686
			c0.12-0.095,0.22-0.193,0.32-0.281c0.076,0.118,0.162,0.227,0.249,0.336c0.15,0.166,0.3,0.322,0.451,0.478
			c0.072,0.068,0.142,0.145,0.214,0.213c0.222,0.224,0.445,0.447,0.658,0.66c0.446,0.438,0.868,0.823,1.254,1.174
			c0.601,0.555,1.134,1.012,1.547,1.386c0.587,0.503,0.956,0.833,1.056,0.914c-0.183-0.219-1.477-1.735-3.356-3.943
			c-0.244-0.296-0.495-0.612-0.766-0.93c-0.119-0.172-0.249-0.336-0.378-0.509c-0.093-0.14-0.174-0.297-0.207-0.44
			c-0.17-0.505,0.532-1.01,1.36-1.312c0.425-0.16,0.821-0.243,1.35-0.361c0.622-0.147,1.12-0.427,1.589-0.721
			c0.941-0.596,1.756-1.306,2.533-2.04c0.768-0.735,1.505-1.543,2.187-2.219l0.267-0.257c0.056-0.053,0.111-0.106,0.175-0.139
			c0.119-0.086,0.253-0.13,0.395-0.163c0.284-0.057,0.628-0.027,0.971,0.091c0.162,0.058,0.332,0.127,0.501,0.216
			c0.084,0.049,0.148,0.096,0.213,0.133c0.055,0.036,0.221,0.144,0.248,0.167c0.19,0.161,0.478,0.501,0.709,0.825
			c0.48,0.66,0.904,1.372,1.285,2.031c0.75,1.335,1.364,2.466,1.768,3.266c0.195,0.379,0.348,0.684,0.463,0.896
			c-1.03,0.774-2.044,1.571-3.085,2.354c-1.27,0.965-2.541,1.93-3.783,2.909c-1.088,0.847-2.142,1.738-3.12,2.657
			c-0.144,0.132-0.288,0.265-0.422,0.398c-0.067,0.062-0.123,0.125-0.19,0.187c-0.994,0.977-1.876,2.016-2.645,3.019
			c-0.102-0.15-0.202-0.311-0.311-0.492c-0.569-0.918-1.353-2.128-2.19-3.304c-0.826-1.185-1.697-2.326-2.373-3.176
			c-0.554-0.708-0.973-1.202-1.095-1.345l-0.002-0.07c0,0-0.318,0.003-0.904,0.016c0.002-0.02,0.006-0.049-0.001-0.079
			C67.349,39.877,67.346,39.639,67.372,39.414z M29.954,32.657c0.03,0.083,0.058,0.185,0.046,0.293
			c-0.034,0.214-0.06,0.261-0.183,0.386L29.954,32.657z M4.989,42.374c0.044-0.213,0.132-0.372,0.29-0.542
			c0.157-0.161,0.393-0.312,0.682-0.418c0.136-0.064,0.281-0.117,0.435-0.159c0.154-0.042,0.336-0.081,0.447-0.098l0.654-0.173
			l0.124-0.481c0.196-0.761,0.403-1.53,0.823-2.166c0.389-0.63,0.976-1.167,1.687-1.314c0.141-0.023,0.331-0.032,0.62-0.048
			c0.291-0.026,0.611-0.138,0.847-0.3c0.463-0.324,0.759-0.657,1.071-0.958c0.636-0.621,1.274-1.173,1.941-1.711l1.002-0.788
			l0.511-0.398c0.13-0.094,0.284-0.225,0.432-0.308c0.601-0.397,1.241-0.622,1.939-0.661c0.698-0.039,1.446,0.096,2.191,0.35
			c0.266,0.1,0.551,0.212,0.825,0.332l-0.488,0.45c-0.756,0.717-1.557,1.389-2.37,2.089c-0.805,0.711-1.622,1.351-2.407,2.233
			c-0.749,0.827-1.385,1.706-2.035,2.534c-0.642,0.849-1.327,1.633-2.081,2.33c-0.754,0.697-1.597,1.305-2.495,1.787
			c-0.887,0.474-1.879,0.915-2.849,1.419c-0.315,0.152-0.621,0.316-0.928,0.489c-0.07-0.167-0.139-0.343-0.2-0.509
			c-0.138-0.353-0.255-0.713-0.364-1.063c-0.109-0.35-0.186-0.715-0.249-1.03c-0.022-0.151-0.068-0.444-0.069-0.523
			C4.952,42.608,4.967,42.481,4.989,42.374z M10.606,57.065c-0.341,0.298-0.608,0.545-0.784,0.703
			c-0.134,0.133-0.224,0.222-0.249,0.269c0.051-0.014,0.164-0.051,0.342-0.129c0.136-0.064,0.295-0.155,0.496-0.261
			c-0.056,0.142-0.096,0.316-0.137,0.5c-0.078,0.338-0.117,0.76-0.091,1.229c0.029,0.182,0.027,0.37,0.065,0.563
			c-0.591,0.309-1.162,0.452-1.358,0.172c-0.207-0.182-0.416-0.613-0.591-1.079c-0.092-0.239-0.182-0.487-0.317-0.78
			c-0.095-0.209-0.129-0.342-0.188-0.607c-0.198-0.955-0.333-2.12-0.781-3.232c-0.225-0.551-0.539-1.093-0.929-1.583
			c-0.21-0.242-0.392-0.471-0.655-0.69l-0.39-0.322l-0.331-0.226l-0.645-0.431c-0.172-0.139-0.346-0.268-0.478-0.412
			c-0.274-0.289-0.365-0.537-0.345-0.714c0.01-0.088,0.042-0.193,0.124-0.303c0.012-0.018,0.025-0.047,0.036-0.055
			c0.001-0.01,0.011-0.009,0.012-0.018l0.011-0.009l0.011-0.009l0.294-0.234c0.404-0.321,0.824-0.62,1.245-0.918
			c0.227-0.162,0.454-0.325,0.69-0.486c0.017,0.022,0.026,0.033,0.043,0.055l0.884-0.623c-0.009-0.011-0.016-0.032-0.025-0.043
			c0.334-0.229,0.665-0.44,0.997-0.659c0.877-0.564,1.798-1.073,2.741-1.689c0.914-0.619,1.778-1.333,2.561-2.106
			c0.791-0.762,1.484-1.615,2.163-2.44c0.671-0.835,1.338-1.642,2.083-2.35c0.691-0.665,1.613-1.273,2.467-1.889
			c0.864-0.615,1.757-1.237,2.618-1.912c0.841-0.677,1.663-1.366,2.457-2.069c0.704-0.604,1.426-0.938,2.013-0.781
			c0.503,0.107,1.106,0.642,1.503,1.252c-0.001,0.01-0.003,0.029-0.006,0.049c-0.016,0.137,0.007,0.288,0.052,0.412
			c-0.107,0.156-0.227,0.341-0.358,0.534c-0.55,0.82-1.243,1.94-1.926,3.061c-0.665,1.133-1.33,2.267-1.807,3.144
			c-0.213,0.392-0.39,0.719-0.527,0.971l-0.001,0.01c-0.153,0.3-0.243,0.478-0.243,0.478s0.443-0.495,1.058-1.277
			c0.622-0.762,1.417-1.811,2.212-2.87c0.589-0.815,1.168-1.631,1.665-2.338l0.001-0.01c0.153-0.211,0.285-0.414,0.416-0.607
			c0.071-0.101,0.131-0.193,0.191-0.285c0.13,0.074,0.254,0.118,0.368,0.161c0.439,0.149,0.791,0.19,1.163,0.232
			c0.186,0.021,0.363,0.032,0.521,0.04l0.454,0.022c0.235,0.027,0.447,0.081,0.605,0.168c0.317,0.175,0.574,0.532,0.68,1.079
			c0.05,0.254,0.077,0.544,0.072,0.841c-0.003,0.109-0.005,0.218-0.027,0.324c-0.049-0.006-0.107-0.022-0.155-0.028
			c-0.058-0.017-0.107-0.022-0.154-0.038c0.007-0.059-0.005-0.129-0.015-0.22c-0.026-0.122-0.058-0.274-0.137-0.452
			c-0.08-0.168-0.202-0.4-0.495-0.523c-0.303-0.124-0.653-0.015-0.916,0.123c-0.284,0.146-0.528,0.366-0.762,0.597
			c-0.48,0.471-0.931,1.034-1.41,1.663c-0.947,1.26-1.988,2.737-3.119,4.303c-1.131,1.566-2.413,3.155-3.776,4.674
			c-1.366,1.539-2.811,2.911-4.305,4.177c-1.454,1.271-2.854,2.42-4.041,3.434C12.261,55.599,11.281,56.448,10.606,57.065z
			 M12.754,60.216c0.121,0.153,0.273,0.21,0.389,0.243c0.222,0.055,0.354,0.021,0.354,0.021s-0.123-0.054-0.288-0.172
			c-0.175-0.119-0.367-0.349-0.187-0.616c0.061-0.102,0.142-0.202,0.244-0.309c0.042,0.154,0.087,0.367,0.158,0.613
			c0.063,0.225,0.141,0.502,0.236,0.8c-0.11,0.007-0.213-0.044-0.329-0.067c-0.116-0.023-0.253-0.039-0.346-0.099
			c-0.104-0.042-0.209-0.083-0.27-0.15c-0.095-0.041-0.142-0.145-0.215-0.203c-0.06-0.086-0.13-0.164-0.175-0.288
			c-0.055-0.125-0.12-0.252-0.162-0.405c-0.054-0.135-0.084-0.307-0.136-0.462c-0.072-0.326-0.145-0.641-0.191-0.934
			c-0.056-0.294-0.107-0.538-0.137-0.71c-0.04-0.173-0.068-0.275-0.068-0.275l-0.34-0.059c0.743-0.431,1.684-1.027,2.751-1.777
			c1.282-0.894,2.727-1.998,4.272-3.2c1.543-1.182,3.165-2.622,4.564-4.188c0.724-0.78,1.365-1.619,2.003-2.428
			c0.63-0.83,1.22-1.655,1.779-2.464c1.117-1.617,2.041-3.197,2.837-4.524c0.393-0.659,0.759-1.262,1.112-1.747
			c0.351-0.466,0.752-0.856,1.044-0.803c0.321,0.057,0.514,0.445,0.602,0.634c0.023,0.062,0.046,0.114,0.081,0.158
			c-0.311-0.055-0.574-0.095-0.788-0.13c-0.127-0.015-0.223-0.045-0.3-0.064S31.1,36.595,31.1,36.595s-0.036,0.055-0.028,0.155
			c0.01,0.09,0.055,0.214,0.127,0.362c0.134,0.303,0.433,0.634,0.837,0.919c0.403,0.294,0.898,0.559,1.446,0.79
			c0.275,0.111,0.588,0.236,0.856,0.316c0.018,0.012,0.038,0.014,0.046,0.035c-0.01-0.001-0.02-0.002-0.02-0.002
			c-0.028-0.013-0.029-0.003-0.003,0.029c0.031,0.073,0.099,0.259,0.114,0.479s0.035,0.47,0.016,0.726
			c-0.017,0.494-0.025,0.998-0.026,1.444c-0.006,0.227,0.001,0.426,0.019,0.617c-0.522,0.059-0.986,0.125-1.387,0.169
			c-0.332,0.041-0.614,0.079-0.837,0.122c0.168-0.516,0.347-0.952,0.526-1.308c0.038-0.075,0.067-0.151,0.105-0.226
			c0.128-0.253,0.24-0.448,0.336-0.596c0.12-0.185,0.163-0.299,0.163-0.299s-0.114,0.046-0.28,0.196
			c-0.166,0.15-0.4,0.381-0.676,0.706c-0.256,0.328-0.552,0.75-0.819,1.265c-0.11,0.186-0.325,0.498-0.504,0.676
			c-0.182,0.207-0.408,0.449-0.645,0.7c-0.955,0.981-2.142,2.085-3.389,3.281c-0.634,0.602-1.287,1.201-1.963,1.818
			c-0.683,0.596-1.378,1.211-2.073,1.825c-1.378,1.211-2.785,2.418-4.127,3.494c-0.676,0.537-1.337,1.027-1.975,1.489
			c-0.665,0.44-1.286,0.844-1.865,1.224c-0.451,0.305-0.863,0.615-1.217,0.932c-0.12,0.095-0.231,0.202-0.332,0.299
			c-0.414,0.409-0.779,0.833-0.904,1.314C12.565,59.788,12.602,60.069,12.754,60.216z M33.557,58.638
			c-0.069,0.26-0.191,0.543-0.314,0.837s-0.286,0.592-0.488,0.886c-0.211,0.283-0.452,0.573-0.728,0.819
			c-0.161,0.11-0.234,0.221-0.447,0.355l-0.29,0.195c-0.033,0.026-0.118,0.076-0.118,0.076l-0.093,0.029
			c-0.133,0.034-0.243,0.131-0.369,0.107c-0.059-0.007-0.111,0.017-0.181,0.019c-0.067-0.018-0.126-0.024-0.195-0.032
			c-0.263-0.04-0.601-0.208-0.915-0.412c-0.155-0.117-0.318-0.254-0.484-0.363c-0.152-0.146-0.305-0.283-0.458-0.419
			c-0.587-0.593-1.132-1.2-1.607-1.73c-0.026-0.033-0.062-0.067-0.088-0.099c-0.429-0.495-0.817-0.916-1.101-1.207
			c-0.018-0.012-0.036-0.034-0.053-0.056c-0.134-0.124-0.242-0.226-0.322-0.305c-0.08-0.079-0.166-0.108-0.166-0.108
			s-0.039,0.085-0.014,0.207c0.016,0.121,0.036,0.292,0.07,0.514c0.108,0.439,0.265,1.061,0.583,1.752
			c0.134,0.303,0.295,0.629,0.485,0.958c0.239,0.424,0.536,0.864,0.893,1.292c0.244,0.296,0.527,0.596,0.85,0.89
			c-0.061,0.013-0.122,0.026-0.184,0.048c-0.451,0.127-0.963,0.356-1.457,0.686c-0.494,0.33-0.938,0.745-1.358,1.124
			c-0.431,0.387-0.845,0.716-1.3,0.962c-0.472,0.224-1.025,0.379-1.551,0.467c-0.273,0.048-0.712,0.067-0.953,0.099
			c-0.258,0-0.524-0.01-0.785-0.07c-1.06-0.181-2.038-0.907-2.832-1.761c-0.794-0.864-1.427-1.829-1.924-2.679
			c-0.497-0.86-0.898-1.6-1.134-2.132c-0.246-0.534-0.381-0.827-0.381-0.827l-0.195,0.057c0.011-0.009,0.022-0.017,0.033-0.026
			c0.443-0.316,0.992-0.61,1.586-0.949c0.611-0.317,1.268-0.688,1.981-1.112c0.693-0.426,1.412-0.899,2.134-1.412
			c1.436-1.026,2.908-2.196,4.327-3.422c1.245-1.087,2.426-2.231,3.534-3.334c-0.03,0.264-0.055,0.569-0.044,0.907
			c-0.012,0.623,0.045,1.344,0.207,2.096c0.141,0.76,0.357,1.558,0.634,2.343c0.124,0.391,0.31,0.759,0.475,1.135
			c0.155,0.375,0.364,0.716,0.544,1.054c0.178,0.348,0.381,0.658,0.565,0.957c0.183,0.308,0.38,0.579,0.571,0.819
			c0.369,0.498,0.754,0.86,1.067,1.074c0.155,0.117,0.264,0.209,0.357,0.259s0.172,0.059,0.172,0.059s0.019-0.077,0.01-0.177
			c0.003-0.109-0.031-0.251-0.06-0.433c-0.008-0.1-0.037-0.193-0.064-0.305c0.26-0.02,0.581-0.053,0.972-0.087
			c0.221-0.024,0.47-0.036,0.731-0.065C33.641,58.331,33.605,58.475,33.557,58.638z M63.245,54.874
			c-0.899-0.024-1.867-0.055-2.888-0.063c-1.031,0.001-2.108-0.033-3.231-0.012c-2.234,0.032-4.622,0.106-7.007,0.24
			c-2.386,0.144-4.764,0.308-6.993,0.549c-2.225,0.212-4.294,0.53-6.067,0.774c-1.773,0.243-3.245,0.551-4.268,0.732
			c-0.477,0.094-0.853,0.18-1.128,0.238c-0.006-0.03-0.014-0.051-0.03-0.083c-0.097-0.279-0.212-0.57-0.325-0.89
			c-0.102-0.319-0.255-0.634-0.365-0.974c-0.239-0.682-0.493-1.415-0.747-2.138c-0.53-1.439-0.976-2.908-1.416-4.009
			c-0.216-0.54-0.42-1.01-0.571-1.334c1.156-1.177,2.171-2.339,2.997-3.405c0.164-0.219,0.328-0.438,0.473-0.67
			c0.198,0.003,0.715-0.008,1.509-0.016c1.005-0.034,2.444-0.048,4.169-0.128c1.725-0.09,3.745-0.147,5.902-0.287
			c2.155-0.12,4.454-0.284,6.753-0.447c2.29-0.174,4.593-0.367,6.737-0.568c2.153-0.19,4.152-0.418,5.877-0.587
			c1.716-0.181,3.146-0.374,4.15-0.487c0.726-0.105,1.23-0.177,1.451-0.201c0.142,0.234,0.317,0.522,0.517,0.852
			c0.579,0.919,1.363,2.129,2.19,3.304c0.826,1.185,1.696,2.335,2.372,3.186c0.181,0.239,0.355,0.447,0.504,0.623
			c-0.677,0.894-1.32,1.743-1.916,2.537c-0.348,0.446-0.696,0.882-1.051,1.298c-0.346,0.426-0.655,0.788-0.975,1.158
			c-0.344,0.407-0.675,0.785-0.98,1.117c-0.275-0.022-0.728-0.053-1.328-0.092C66.518,55.03,65.035,54.91,63.245,54.874z
			 M96.93,52.916c-0.135,0.223-0.388,0.531-0.656,0.797c-0.267,0.257-0.61,0.565-0.917,0.827c-0.309,0.272-0.627,0.543-0.952,0.783
			c-0.661,0.49-1.398,1.04-2.079,1.616c-0.7,0.574-1.335,1.186-1.97,1.797c-0.334,0.319-0.624,0.603-0.94,0.934
			c-0.315,0.331-0.61,0.654-0.907,0.997c-0.589,0.646-1.155,1.434-1.638,2.014c-0.239,0.27-0.439,0.456-0.767,0.636l-0.199,0.096
			c-0.083,0.03-0.24,0.102-0.269,0.098c-0.061,0.013-0.224,0.054-0.371,0.037c-0.407,0.003-0.871-0.189-1.307-0.447
			c0.213-0.392,0.397-0.787,0.577-1.144c0.674-1.301,1.524-2.661,2.446-3.964c0.904-1.315,1.9-2.569,2.936-3.65
			c1.026-1.082,2.057-2.035,3.039-2.736c0.811-0.591,1.576-1.039,2.184-1.327l-0.088,0.079c0.555,0.787,1.154,1.53,1.73,2.3
			l0.204,0.122C96.981,52.813,96.966,52.86,96.93,52.916z M96.544,50.135c-0.064,0.042-0.119,0.086-0.172,0.119
			c-0.125-0.123-0.249-0.247-0.386-0.352l0.001-0.01c0.093-0.029,0.166-0.06,0.237-0.082c0.135-0.054,0.218-0.084,0.249-0.1
			c-0.04,0.005-0.131,0.015-0.273,0.048c-0.081,0.011-0.182,0.029-0.304,0.055c-0.036-0.034-0.072-0.068-0.107-0.102l-0.166,0.15
			l-0.011,0.009c-0.071,0.012-0.143,0.033-0.224,0.054c-0.696,0.188-1.704,0.509-2.794,1.108c-1.099,0.598-2.332,1.409-3.512,2.444
			c-1.179,1.035-2.338,2.241-3.407,3.527c-1.051,1.298-2.009,2.655-2.822,4.04c-0.418,0.706-0.714,1.306-1.071,1.821
			c-0.168,0.258-0.351,0.466-0.46,0.552c-0.129,0.084-0.044,0.035-0.164,0.051c-0.266-0.011-0.842-0.265-1.259-0.431
			c-0.435-0.188-0.821-0.362-1.141-0.517c-0.018-0.012-0.028-0.013-0.047-0.025c0.549-0.73,1.09-1.472,1.613-2.225
			c0.176-0.238,0.331-0.468,0.497-0.707c0.369-0.543,0.712-1.108,1.063-1.663c0.126-0.233,0.26-0.456,0.378-0.7
			c0.036-0.055,0.073-0.12,0.1-0.177c0.135-0.312,0.324-0.578,0.395-0.936c-0.334,0.15-0.551,0.393-0.822,0.6
			c-0.27,0.197-0.515,0.427-0.758,0.647c-0.479,0.461-0.957,0.912-1.399,1.397c-0.903,0.958-1.767,1.93-2.624,2.922
			c-0.227,0.252-0.423,0.487-0.6,0.655c-0.178,0.168-0.37,0.285-0.439,0.287c-0.068-0.008,0.028,0.013-0.092-0.06
			c-0.101-0.071-0.278-0.26-0.45-0.488l-0.556-0.777c-0.233-0.304-0.496-0.602-0.812-0.876c-0.307-0.263-0.638-0.489-0.994-0.669
			c-0.386-0.183-0.698-0.308-1.193-0.404l-0.077-0.019l-0.07,0.002c-0.694,0-1.385-0.029-2.052-0.086
			c-0.664-0.086-1.328-0.181-1.897-0.405c-0.275-0.111-0.527-0.249-0.724-0.43s-0.352-0.387-0.43-0.664
			c-0.068-0.275-0.089-0.605-0.032-0.936c0.019-0.166,0.059-0.34,0.096-0.495c0.189-0.008,0.379-0.016,0.548-0.027
			c-0.027,0.066-0.066,0.141-0.096,0.237c-0.03,0.086-0.058,0.162-0.071,0.359c0.008,0.1-0.013,0.286,0.216,0.54
			c0.278,0.26,0.561,0.213,0.662,0.195c0.408-0.102,0.489-0.202,0.669-0.3c0.15-0.102,0.302-0.213,0.444-0.326
			c0.596-0.447,1.22-1.04,1.922-1.723c0.336-0.338,0.728-0.73,1.09-1.125c0.371-0.384,0.758-0.816,1.159-1.295
			c1.593-1.88,3.104-4.166,4.927-6.416c0.921-1.114,1.941-2.237,3.073-3.287c1.123-1.061,2.372-2.019,3.658-2.943
			c1.292-0.893,2.653-1.699,4.001-2.477l0.5-0.3l0.266-0.158c0.021-0.008,0.105-0.047,0.157-0.071
			c0.249-0.1,0.489-0.113,0.674-0.082c0.34,0.059,0.658,0.402,0.934,0.94c0.228,0.522,0.479,1.274,0.692,1.923
			c0.221,0.67,0.422,1.337,0.661,2.019c0.242,0.662,0.506,1.386,1.086,2.038c0.28,0.329,0.655,0.6,1.033,0.763l0.217,0.094
			c0.085,0.039,0.113,0.053,0.141,0.066c0.084,0.049,0.185,0.12,0.287,0.181c0.794,0.596,1.401,1.449,1.683,2.185
			c0.3,0.758,0.265,1.408,0.034,1.868C97.176,49.632,96.804,49.937,96.544,50.135z M97.093,52.875
			c-0.009-0.011-0.036-0.034-0.053-0.056l0.12,0.073C97.103,52.876,97.14,52.9,97.093,52.875z"/>
		<path class="st2" d="M89.142,40.822c-0.577,0.281-1.372,0.726-2.326,1.271c-0.929,0.578-1.999,1.269-3.095,2.095
			c-1.087,0.837-2.234,1.767-3.26,2.849c-1.028,1.102-1.846,2.268-2.683,3.352c-0.807,1.078-1.575,2.07-2.243,2.886
			c-0.011,0.009-0.012,0.018-0.023,0.027c-0.672,0.845-1.273,1.51-1.703,1.977c-0.215,0.233-0.384,0.412-0.508,0.537
			c-0.022,0.017-0.035,0.046-0.047,0.064c-0.011,0.009-0.022,0.017-0.023,0.027c-0.046,0.054-0.07,0.091-0.082,0.11
			c0.073-0.031,0.389-0.193,0.844-0.528c0.119-0.086,0.249-0.18,0.39-0.292c0.011-0.009,0.022-0.017,0.033-0.026
			c0.456-0.344,1.008-0.837,1.582-1.435c0.415-0.419,0.837-0.906,1.283-1.42c0.001-0.01,0.001-0.01,0.011-0.009
			c0.367-0.434,0.758-0.905,1.16-1.384c0.88-1.02,1.779-2.206,2.728-3.218c0.969-1.019,2.039-1.968,3.087-2.81
			c0.534-0.425,1.036-0.823,1.527-1.214c0.489-0.37,0.955-0.724,1.389-1.051c0.868-0.654,1.594-1.196,2.103-1.574
			c0.25-0.19,0.446-0.346,0.577-0.45c0.109-0.087,0.165-0.14,0.188-0.167c-0.031,0.006-0.112,0.027-0.236,0.072
			C89.655,40.583,89.424,40.695,89.142,40.822z"/>
	</g>
</g>
</svg>
