<?xml version="1.0" encoding="utf-8"?>
<!-- Generator: Adobe Illustrator 19.1.0, SVG Export Plug-In . SVG Version: 6.00 Build 0)  -->
<svg version="1.1" id="Layer_3" xmlns="http://www.w3.org/2000/svg" xmlns:xlink="http://www.w3.org/1999/xlink" x="0px" y="0px"
	 viewBox="0 0 100 100" style="enable-background:new 0 0 100 100;" xml:space="preserve">
<style type="text/css">
	.st0{fill:#707E84;stroke:#707E84;stroke-width:0.04;stroke-miterlimit:10;}
	.st1{fill:none;}
	.st2{fill:#DD3900;}
	.st3{fill:#511D18;stroke:#511D18;stroke-width:0.04;stroke-miterlimit:10;}
	.st4{fill:#823026;stroke:#823026;stroke-width:0.04;stroke-miterlimit:10;}
	.st5{fill:#77533E;stroke:#77533E;stroke-width:0.04;stroke-miterlimit:10;}
	.st6{fill:#F9F7EA;stroke:#F9F7EA;stroke-width:0.04;stroke-miterlimit:10;}
	.st7{fill:#A01F05;stroke:#A01F05;stroke-width:0.04;stroke-miterlimit:10;}
	.st8{fill:#CC2F05;stroke:#CC2F05;stroke-width:0.04;stroke-miterlimit:10;}
	.st9{fill:#808080;stroke:#808080;stroke-width:0.04;stroke-miterlimit:10;}
	.st10{fill:#4D4D4D;stroke:#4D4D4D;stroke-width:0.04;stroke-miterlimit:10;}
	.st11{fill:#EB5F44;stroke:#EB5F44;stroke-width:0.04;stroke-miterlimit:10;}
	.st12{fill:#A7B8C1;stroke:#A7B8C1;stroke-width:0.04;stroke-miterlimit:10;}
	.st13{fill:#88979E;stroke:#88979E;stroke-width:0.04;stroke-miterlimit:10;}
	.st14{stroke:#000000;stroke-width:0.04;stroke-miterlimit:10;}
</style>
<polygon class="st0" points="60.66,12.649 60.481,11.969 61.423,11.508 61.763,12.791 "/>
<g>
	<polygon class="st1" points="3.294,45.991 1.585,47.162 1.595,47.156 	"/>
	<path class="st1" d="M59.069,35.59c-0.03,0-0.05,0-0.081,0l-0.02,0.02C58.999,35.6,59.039,35.6,59.069,35.59z"/>
	<path class="st2" d="M71.235,37c0.775-0.262,1.349-0.685,1.762-1.198c-1.954-0.03-4.048-0.06-6.204-0.081
		c0.121,0.101,0.252,0.211,0.383,0.312c0.04,0.01,0.07,0.02,0.101,0.03c0.574,0.252,1.138,0.493,1.702,0.755
		c0.171,0.091,0.332,0.191,0.493,0.302C70.026,37.222,70.62,37.202,71.235,37z"/>
	<path class="st3" d="M49.915,56.568c0,0.171,0,0.332,0,0.504c0.01,0.212,0.01,0.423,0.01,0.635c0.03,2.367,0.05,4.723,0.06,7.09
		c0.01,0.212,0.01,0.413,0,0.624c0.03,2.286,0.04,4.582,0.04,6.868c0.01,0.212,0.01,0.423,0,0.634c0.02,2.608,0.03,5.207,0.03,7.815
		c0,0.211,0,0.423,0,0.634c0,0.393,0,0.785,0,1.178l3.132-0.071c-0.081-3.615,0.383-23.263,18.238-25.63l0.03-1.118
		c0.03-1.128,0.05-2.226,0.01-3.323c-0.04-0.685-0.091-1.38-0.191-2.054c-0.02-0.222-0.05-0.443-0.091-0.655
		c-0.03-0.191-0.06-0.383-0.101-0.564c-0.393-2.145-1.188-4.23-2.477-5.972c-0.212-0.282-0.433-0.564-0.665-0.826
		c-0.211-0.242-0.433-0.483-0.675-0.705c-1.068-1.037-2.336-1.873-3.706-2.477c-1.007-0.443-2.054-0.776-3.132-0.987
		c-0.776-0.161-1.561-0.262-2.347-0.292h-0.01c-0.735,0.252-1.43,0.594-2.075,1.027c-1.027,0.675-1.923,1.541-2.669,2.548
		c-0.161,0.211-0.312,0.433-0.453,0.665c-0.322,0.493-0.614,1.017-0.866,1.551c-0.866,1.813-1.42,3.797-1.752,5.821
		c-0.03,0.141-0.05,0.282-0.07,0.423c-0.01,0.07-0.02,0.141-0.03,0.211c-0.141,1.017-0.221,2.044-0.252,3.072L49.895,54l0.01,0.866
		L49.915,56.568z"/>
	<path class="st4" d="M53.188,82.48l7.05-0.151l10.292-0.141c0.01-0.161,0.02-0.332,0.02-0.493c0.02-0.211,0.03-0.423,0.04-0.645
		c0.141-2.598,0.252-5.197,0.342-7.805c0.01-0.212,0.02-0.433,0.03-0.645c0.04-1.148,0.07-2.286,0.111-3.434l0.101-3.585l0.02-0.645
		l0.201-6.989l0.02-0.655l0.01-0.443C53.571,59.217,53.107,78.865,53.188,82.48z"/>
	<path class="st5" d="M72.635,33.304c0.06-0.242,0.091-0.473,0.091-0.594c0.01-0.121,0.01-0.191,0.01-0.191v-0.01
		c0,0,0-0.07-0.01-0.211c-0.01-0.141-0.03-0.342-0.091-0.584c-0.07-0.302-0.232-0.685-0.514-1.047
		c0.302-0.383,0.463-0.776,0.544-1.088c0.06-0.242,0.091-0.473,0.091-0.594c0-0.06,0.01-0.111,0.01-0.141c0-0.04,0-0.06,0-0.06
		v-0.01c0,0,0-0.07-0.01-0.211c-0.01-0.07-0.01-0.171-0.04-0.282c-0.01-0.091-0.02-0.191-0.05-0.302
		c-0.07-0.302-0.232-0.685-0.524-1.057c-0.171-0.232-0.403-0.463-0.685-0.665c-0.373-0.252-0.806-0.453-1.349-0.524
		c-0.483-0.07-1.068-0.02-1.591,0.201c-0.534,0.211-1.027,0.594-1.37,1.098c-0.201,0.292-0.352,0.655-0.433,1.017h-0.01
		c0,0.01-0.01,0.03-0.01,0.04c-0.07,0-0.141-0.01-0.211-0.01c-0.01,0-0.02,0-0.03,0c-0.02,0-0.05,0.01-0.081,0.01
		c-0.453,0.07-0.997,0.101-1.571,0.151c-0.574,0.03-1.188,0.05-1.803,0.04c-1.229,0-2.457-0.111-3.374-0.242
		c-0.201-0.03-0.393-0.05-0.564-0.081c-0.01,0-0.02,0-0.03-0.01c0.01,0,0.02,0,0.03,0c0-0.03-0.01-0.101-0.01-0.201
		c-0.01-0.141-0.03-0.352-0.101-0.614c-0.101-0.403-0.352-0.957-0.836-1.44c-0.121-0.121-0.262-0.242-0.423-0.352
		c-0.383-0.262-0.846-0.473-1.4-0.554c-0.514-0.07-1.118-0.01-1.662,0.211c-0.282,0.121-0.544,0.272-0.785,0.463
		c-0.242,0.201-0.463,0.423-0.634,0.695c-0.181,0.262-0.312,0.554-0.423,0.856c-0.091,0.282-0.141,0.635-0.151,0.896
		c0,0.01,0,0.03,0,0.04c0,0.171,0.01,0.332,0.04,0.493c0.071,0.483,0.262,0.937,0.524,1.339c0.02,0.03,0.04,0.06,0.07,0.091
		c-0.101,0.101-0.191,0.211-0.272,0.332c-0.352,0.514-0.554,1.188-0.564,1.823c0,0.645,0.211,1.289,0.564,1.813
		c0.262,0.383,0.594,0.695,0.977,0.927c0.141,0.091,0.292,0.171,0.443,0.232c0.282,0.101,0.554,0.181,0.856,0.211
		c0.161,0.03,0.272,0.02,0.403,0.02c0.161,0,0.282-0.01,0.423-0.03c0.413-0.05,0.796-0.191,1.118-0.383
		c0.091-0.05,0.181-0.111,0.272-0.171c0.604-0.433,0.957-0.977,1.138-1.44c0.131,0,0.262-0.01,0.403-0.02
		c1.007-0.05,2.347-0.101,3.686-0.04c0.665,0.01,1.339,0.05,1.964,0.091c0.624,0.05,1.219,0.081,1.712,0.141
		c0.111,0.01,0.222,0.02,0.322,0.04c0.091,0.302,0.232,0.574,0.403,0.836c0.211,0.322,0.493,0.594,0.796,0.796
		c0.181,0.131,0.362,0.232,0.564,0.312c0.272,0.111,0.534,0.181,0.826,0.212c0.151,0.02,0.262,0.02,0.393,0.02
		c0.151,0,0.262-0.01,0.403-0.03c0.443-0.06,0.836-0.222,1.168-0.433c0.06-0.03,0.111-0.06,0.161-0.101
		C72.161,34.503,72.514,33.798,72.635,33.304z M71.174,34.644c-0.322,0.191-0.715,0.332-1.138,0.373c-0.111,0-0.232,0-0.322,0
		c-0.111-0.01-0.252-0.02-0.342-0.04c-0.201-0.03-0.423-0.111-0.624-0.211c-0.413-0.201-0.775-0.514-1.037-0.906
		c-0.07-0.121-0.141-0.242-0.191-0.373c-0.07-0.161-0.121-0.332-0.151-0.504c-0.211-0.05-0.473-0.101-0.765-0.161
		c-0.04,0-0.081-0.01-0.131-0.02c-1.007-0.201-2.367-0.363-3.736-0.413c-1.37-0.04-2.749,0.05-3.766,0.211
		c-0.06,0.01-0.111,0.02-0.171,0.03c-0.151,0.02-0.292,0.05-0.423,0.07c0,0.01-0.01,0.03-0.01,0.05
		c-0.04,0.151-0.111,0.312-0.211,0.494c-0.171,0.352-0.473,0.735-0.927,1.017c-0.332,0.211-0.745,0.352-1.188,0.393
		c-0.111,0-0.242,0.01-0.332,0c-0.121-0.01-0.262-0.01-0.363-0.04c-0.212-0.03-0.453-0.121-0.665-0.211
		c-0.423-0.211-0.806-0.544-1.078-0.967c-0.272-0.413-0.413-0.917-0.413-1.41c-0.01-0.534,0.131-0.997,0.403-1.43
		c0.05-0.07,0.091-0.141,0.151-0.201c0.141-0.191,0.322-0.363,0.514-0.483c-0.171-0.151-0.322-0.322-0.443-0.514
		c-0.01,0-0.01-0.01-0.01-0.01c-0.181-0.272-0.292-0.584-0.352-0.906c-0.04-0.161-0.06-0.332-0.06-0.493c0-0.03,0-0.06,0.01-0.091
		c0.01-0.524,0.151-0.937,0.403-1.35c0.201-0.312,0.463-0.584,0.765-0.786c0.101-0.07,0.201-0.131,0.312-0.181
		c0.443-0.211,0.906-0.292,1.37-0.252c0.272,0.03,0.544,0.091,0.796,0.201c0.141,0.05,0.272,0.111,0.393,0.191
		c0.685,0.433,1.007,1.078,1.128,1.521c0.07,0.222,0.091,0.403,0.101,0.534c0,0.05,0.01,0.091,0.01,0.121c0,0.02,0,0.03,0,0.04
		s0,0.02,0,0.02s0.01,0.171-0.04,0.433c0.06,0.02,0.121,0.03,0.191,0.05c0.02,0.01,0.05,0.02,0.07,0.02l0.111,0.02v0.01
		c0.151,0.05,0.322,0.091,0.504,0.131c0.07,0.02,0.151,0.04,0.232,0.05c0.896,0.201,2.065,0.342,3.243,0.363
		c0.634-0.01,1.279-0.04,1.873-0.101c0.292-0.02,0.584-0.081,0.856-0.121c0.04,0,0.081-0.01,0.121-0.02
		c0.222-0.03,0.443-0.081,0.634-0.121c0.05-0.01,0.101-0.02,0.141-0.03c0-0.02,0-0.05,0.01-0.07c0.232-0.03,0.483-0.081,0.745-0.141
		c0.01-0.111,0.04-0.232,0.081-0.332c0.01-0.05,0.02-0.101,0.04-0.151c0.06-0.181,0.141-0.352,0.252-0.524
		c0.262-0.393,0.614-0.715,1.027-0.916c0.393-0.191,0.796-0.262,1.219-0.242c0.03,0,0.06,0,0.091,0
		c0.403,0.03,0.806,0.171,1.128,0.373c0.151,0.101,0.292,0.211,0.403,0.322c0.383,0.373,0.584,0.806,0.675,1.118
		c0.02,0.071,0.03,0.131,0.04,0.181c0.07,0.282,0.06,0.463,0.06,0.504c0,0,0,0.03-0.01,0.081c0,0.121-0.01,0.342-0.091,0.624
		c-0.07,0.252-0.211,0.564-0.453,0.866c-0.081,0.111-0.181,0.222-0.292,0.322c0.111,0.101,0.211,0.211,0.292,0.322
		c0.221,0.292,0.352,0.594,0.423,0.836c0.111,0.383,0.101,0.634,0.101,0.685c0,0,0.01,0.292-0.101,0.705
		C72.131,33.617,71.819,34.231,71.174,34.644z"/>
	<path class="st6" d="M60.56,15.6l-7.614,5.7l-8.651,6.365l-8.691,6.294c-2.86,2.065-5.7,4.139-8.59,6.173
		c0.201,0.282,0.413,0.665,0.634,1.047c0.06,0.131,0.131,0.262,0.191,0.383l33.123-23.888L60.56,15.6z"/>
	<path class="st6" d="M36.773,41.311l-2.598,1.934c0.07,1.148,0.151,2.518,0.242,4.048c0.272,4.784,0.564,11.169,0.836,17.553
		c0.131,3.192,0.252,6.385,0.363,9.386c0.101,2.991,0.191,5.791,0.262,8.188c0.081,3.233,0.141,5.75,0.171,7.039l2.326-0.01
		c-0.07-1.4-0.191-3.907-0.342-7.08c-0.111-2.498-0.232-5.428-0.363-8.56c-0.111-3.132-0.222-6.465-0.342-9.809
		c-0.211-6.687-0.393-13.364-0.493-18.379C36.803,43.979,36.783,42.529,36.773,41.311z"/>
	<path class="st7" d="M48.968,81.352c0.02,0.826,0.05,1.642,0.081,2.467v0.101l0.03,0.081c0.151,0.383,0.453,0.665,0.745,0.836
		c0.302,0.171,0.614,0.262,0.917,0.322c0.655,0.101,1.118,0.05,1.662,0.091l3.172,0.06l6.334,0.101c2.115,0.02,4.23,0.05,6.345,0.04
		c1.068,0,2.125-0.02,3.192-0.05l0.916-0.05l0.393-0.05l0.05-0.01h0.01l0.101-0.02l0.01-0.01l0.04-0.01l0.131-0.05
		c0.091-0.03,0.171-0.081,0.252-0.121c0.342-0.191,0.644-0.453,0.856-0.765c0.232-0.322,0.363-0.604,0.463-1.057l0.01-0.02v-0.091
		l0.081-1.41c0.796,0.01,1.561,0.01,2.286,0.02c3.192,0,5.589,0.01,6.617,0.01c0.01-0.131,0.02-0.262,0.03-0.393
		c-1.017-0.03-3.434-0.101-6.647-0.191c-0.715-0.02-1.47-0.03-2.256-0.05l0.443-7.855c0.786,0.02,1.531,0.02,2.246,0.03
		c3.394,0,5.912,0.01,6.848,0.01c0.01-0.131,0.02-0.262,0.03-0.393c-0.906-0.03-3.434-0.101-6.868-0.191
		c-0.705-0.01-1.45-0.03-2.226-0.04l0.181-3.142l0.201-3.958c0.866,0.01,1.692,0.01,2.477,0.01c3.273-0.02,5.74-0.04,6.838-0.05
		c0.01-0.131,0.03-0.262,0.04-0.393c-1.088-0.01-3.575-0.07-6.868-0.141c-0.775-0.01-1.591-0.02-2.457-0.03l0.352-7.019
		c0.926,0.01,1.813,0.01,2.649,0.02c3.323-0.01,5.831-0.01,6.959-0.02c0.01-0.131,0.02-0.272,0.04-0.403
		c-1.098-0.02-3.636-0.081-6.989-0.161c-0.826-0.01-1.702-0.03-2.628-0.04l0.07-1.42c0.141-1.843,0.111-3.706-0.06-5.569
		c1.007,0.01,1.974,0.02,2.88,0.02c3.787-0.01,6.526-0.02,7.392-0.02c0.01-0.131,0.03-0.262,0.04-0.383
		c-0.826-0.01-3.595-0.081-7.432-0.171c-0.927-0.01-1.903-0.03-2.941-0.04c-0.03-0.262-0.06-0.524-0.091-0.786
		c-0.302-2.246-0.846-4.502-1.863-6.606c1.954,0.02,3.777,0.04,5.418,0.05c4.048,0,6.949,0.01,7.674,0.01
		c0.01-0.131,0.03-0.262,0.04-0.383c-0.645-0.02-3.565-0.101-7.704-0.211c-1.732-0.03-3.676-0.06-5.75-0.101
		c-0.977-1.853-2.427-3.525-4.26-4.633c-0.161-0.111-0.322-0.211-0.493-0.302c-0.564-0.262-1.128-0.504-1.702-0.755
		c-0.03-0.01-0.06-0.02-0.101-0.03c-0.363-0.141-0.755-0.232-1.148-0.322c0.252,0,0.514,0.01,0.765,0.01
		c2.155,0.02,4.25,0.05,6.204,0.081c1.621,0.02,3.142,0.04,4.522,0.06c1.762,0.01,3.283,0.02,4.451,0.02
		c1.098,0.01,1.873,0.01,2.286,0.01c-0.151-0.141-0.312-0.272-0.463-0.403c-0.534-0.02-1.319-0.05-2.316-0.081
		c-1.088-0.03-2.427-0.081-3.948-0.131c-1.259-0.03-2.649-0.06-4.129-0.101c-0.695-0.02-1.4-0.03-2.135-0.05
		c-0.332,0.211-0.725,0.373-1.168,0.433c-0.141,0.02-0.252,0.03-0.403,0.03c-0.131,0-0.242,0-0.393-0.02
		c-0.292-0.03-0.554-0.101-0.826-0.212c-0.201-0.081-0.383-0.181-0.564-0.312c-0.614-0.02-1.239-0.03-1.863-0.05
		c-1.309-0.03-2.649-0.07-3.988-0.101c-0.806-0.01-1.601-0.03-2.407-0.04c-0.816-0.02-1.631-0.03-2.437-0.04
		c-0.322,0.191-0.705,0.332-1.118,0.383c-0.141,0.02-0.262,0.03-0.423,0.03c-0.131,0-0.242,0.01-0.403-0.02
		c-0.302-0.03-0.574-0.111-0.856-0.211c-0.151-0.06-0.302-0.141-0.443-0.232c-0.665-0.01-1.319-0.02-1.964-0.03
		c-1.893-0.02-3.666-0.04-5.247-0.05c-0.06,0-0.111,0-0.171,0c-2.145-0.01-3.928-0.02-5.166-0.02l-0.554,0.413
		c1.138,0.04,2.92,0.101,5.136,0.171c0.181,0.01,0.373,0.01,0.564,0.02c1.762,0.06,3.777,0.121,5.932,0.171
		c2.054,0.05,4.25,0.101,6.486,0.151c0.03,0,0.05,0,0.081,0c-0.03,0.01-0.07,0.01-0.101,0.02c-0.745,0.171-1.47,0.393-2.165,0.695
		c-0.645,0.272-1.269,0.604-1.853,1.007c-1.621,1.057-2.911,2.508-3.877,4.119c-2.206-0.02-4.27-0.03-6.093-0.05
		c-3.394,0-5.972,0-7.15,0c-0.171,0-0.302,0-0.413,0c0.01,0.091,0.01,0.201,0.02,0.302c0,0.03,0,0.05,0,0.081
		c0.886,0.02,3.686,0.091,7.533,0.201c1.722,0.03,3.656,0.07,5.73,0.111c-0.141,0.262-0.272,0.524-0.393,0.786
		c-0.997,2.105-1.571,4.361-1.873,6.617c-1.158-0.01-2.256-0.02-3.273-0.02c-3.736,0.02-6.455,0.02-7.362,0.02
		c0,0.131,0.01,0.262,0.02,0.393c0.927,0.02,3.636,0.081,7.332,0.171c0.997,0.01,2.075,0.03,3.203,0.05
		c-0.121,1.017-0.181,2.034-0.201,3.072c0,0.292,0,0.584,0.01,0.896l0.03,0.836l0.04,1.702c0,0.151,0.01,0.312,0.01,0.463
		c-1.057,0-2.055-0.01-2.991-0.01c-3.555,0.01-6.183,0.02-7.17,0.02c0.01,0.131,0.01,0.252,0.01,0.383
		c1.007,0.03,3.625,0.091,7.16,0.181c0.947,0.01,1.954,0.03,3.011,0.04c0.05,2.367,0.121,4.733,0.191,7.11
		c-1.118,0.01-2.175,0-3.162,0c-3.384,0.02-5.912,0.03-6.949,0.04c0.01,0.131,0.01,0.262,0.01,0.393
		c1.047,0.02,3.575,0.07,6.929,0.141c0.997,0.01,2.065,0.03,3.192,0.04c0.05,2.286,0.121,4.582,0.201,6.878
		c-1.088-0.01-2.125-0.02-3.082-0.03c-3.646,0-6.274,0-7.029,0c0,0.121,0,0.252,0.01,0.373c0.765,0.03,3.384,0.111,7.009,0.211
		c0.967,0.02,2.014,0.04,3.112,0.06c0.07,2.608,0.151,5.217,0.252,7.835c-1.219-0.01-2.367-0.02-3.434-0.03
		c-3.323,0-5.801,0-6.747,0c0,0.131,0.01,0.262,0.01,0.383c0.957,0.03,3.414,0.111,6.727,0.201
		C46.571,81.302,47.74,81.332,48.968,81.352z M72.574,83.668c-0.03,0.01-0.05,0.03-0.081,0.05h-0.01c0,0,0,0-0.01,0
		c0,0,0,0.01-0.01,0c-0.01,0.01-0.01,0.02-0.03,0.02v-0.01c-0.121,0.02-0.262,0.04-0.383,0.05l-0.665,0.04
		c-1.047,0.05-2.095,0.081-3.152,0.101l-6.325,0.111l-6.324,0.07l-3.172,0.03c-0.514-0.01-1.108,0.04-1.49-0.02
		c-0.413-0.06-0.745-0.232-0.866-0.433c0-0.201,0-0.413,0-0.614l3.142,0.01l7.05,0.02l10.695-0.06h0.272h0.01h0.01
		c0.03,0.01,0.06,0.03,0.091,0.04c0.262,0.111,0.624,0.232,0.987,0.292c0.181,0.03,0.362,0.05,0.534,0.05
		C72.766,83.517,72.675,83.608,72.574,83.668z M73.048,83.104v-0.081v-0.01h0.01L73.048,83.104z M73.068,82.52
		c-0.181-0.07-0.383-0.121-0.584-0.151c-0.362-0.07-0.735-0.081-1.027-0.07c-0.02,0-0.05,0-0.07,0c0.01-0.201,0.03-0.393,0.04-0.594
		c0.564,0,1.128,0.01,1.672,0.01L73.068,82.52z M73.128,81.1c-0.544-0.01-1.098-0.03-1.672-0.03
		c0.171-2.608,0.292-5.207,0.413-7.815c0.534,0,1.057,0,1.571,0.01L73.128,81.1z M73.591,69.499l-0.131,3.152
		c-0.514-0.01-1.027-0.02-1.561-0.03c0.05-1.138,0.101-2.286,0.151-3.424c0.05-1.208,0.091-2.407,0.131-3.615
		c0.544,0.01,1.068,0.01,1.591,0.01L73.591,69.499z M73.793,64.967c-0.514-0.01-1.047-0.01-1.591-0.02
		c0.07-2.336,0.121-4.663,0.161-6.999c0.594,0.01,1.178,0.01,1.752,0.01L73.793,64.967z M74.105,50.364
		c0.181,1.813,0.232,3.676,0.101,5.529l-0.06,1.43c-0.574,0-1.168-0.01-1.762-0.02c0.01-0.514,0.02-1.037,0.03-1.551
		c0.03-1.108,0.05-2.256-0.01-3.394c-0.04-0.665-0.091-1.339-0.181-1.994C72.866,50.364,73.491,50.374,74.105,50.364z
		 M72.161,43.063c0.524,1.037,0.927,2.145,1.229,3.283c0.262,0.957,0.443,1.924,0.584,2.91c0.02,0.161,0.04,0.322,0.06,0.493
		c-0.624-0.02-1.259-0.03-1.913-0.03c-0.04-0.252-0.081-0.504-0.141-0.755c-0.322-1.652-0.886-3.283-1.712-4.763
		c-0.302-0.534-0.634-1.047-1.007-1.531c-0.081-0.111-0.161-0.211-0.262-0.322c0.937,0.01,1.873,0.01,2.78,0.02
		C71.92,42.6,72.04,42.831,72.161,43.063z M61.939,37.212l0.403-0.01h0.06c0.01,0,0.02,0,0.02-0.01l0.02,0.01c0.01,0,0.02,0,0.03,0
		l0.211,0.02l0.846,0.07c0.554,0.06,1.168,0.06,1.621,0.232c0.483,0.141,0.977,0.211,1.45,0.403l1.41,0.634
		c1.36,0.745,2.477,1.853,3.364,3.152c-0.977-0.02-1.964-0.04-2.981-0.06c-1.269-1.37-2.85-2.437-4.572-3.132
		c-1.057-0.433-2.165-0.745-3.283-0.937c-0.312-0.05-0.624-0.101-0.947-0.131C60.358,37.302,61.144,37.222,61.939,37.212z
		 M49.905,53.194c0.03-1.027,0.111-2.055,0.252-3.072c0.01-0.07,0.02-0.141,0.03-0.211c0.02-0.141,0.04-0.282,0.07-0.423
		c0.332-2.024,0.886-4.008,1.752-5.821c0.252-0.534,0.544-1.057,0.866-1.551c0.141-0.232,0.292-0.453,0.453-0.665
		c0.745-1.007,1.642-1.873,2.669-2.548c0.645-0.433,1.339-0.776,2.075-1.027h0.01c0.786,0.03,1.571,0.131,2.347,0.292
		c1.078,0.211,2.125,0.544,3.132,0.987c1.37,0.604,2.638,1.44,3.706,2.477c0.242,0.222,0.463,0.463,0.675,0.705
		c0.232,0.262,0.453,0.544,0.665,0.826c1.289,1.742,2.085,3.827,2.477,5.972c0.04,0.181,0.07,0.373,0.101,0.564
		c0.04,0.212,0.07,0.433,0.091,0.655c0.101,0.675,0.151,1.37,0.191,2.054c0.04,1.098,0.02,2.195-0.01,3.323l-0.03,1.118l-0.01,0.443
		l-0.02,0.655l-0.201,6.989l-0.02,0.645l-0.101,3.585c-0.04,1.148-0.07,2.286-0.111,3.434c-0.01,0.212-0.02,0.433-0.03,0.645
		c-0.091,2.608-0.201,5.207-0.342,7.805c-0.01,0.222-0.02,0.433-0.04,0.645c0,0.161-0.01,0.332-0.02,0.493l-10.292,0.141
		l-7.05,0.151l-3.132,0.071c0-0.393,0-0.786,0-1.178c0-0.212,0-0.423,0-0.634c0-2.608-0.01-5.207-0.03-7.815
		c0.01-0.211,0.01-0.423,0-0.634c0-2.286-0.01-4.582-0.04-6.868c0.01-0.211,0.01-0.413,0-0.624c-0.01-2.367-0.03-4.723-0.06-7.09
		c0-0.212,0-0.423-0.01-0.635c0-0.171,0-0.332,0-0.504l-0.01-1.702L49.895,54L49.905,53.194z"/>
	<path class="st7" d="M83.118,89.459l0.01-0.151l-21.753,0.02l-22.448,0.111l0.04,1.934l22.418-0.04l21.612-0.131l0.111-1.581
		C83.108,89.57,83.118,89.52,83.118,89.459z"/>
	<path class="st7" d="M72.755,28.561c0.01,0.141,0.01,0.211,0.01,0.211v0.01c0,0,0,0.02,0,0.06c0.554,0,1.068,0,1.521-0.01
		c0.07,0,0.141,0,0.211,0c1.108-0.01,1.853-0.01,2.065-0.01c-0.141-0.141-0.282-0.272-0.423-0.403
		c-0.635-0.03-1.853-0.081-3.424-0.141C72.745,28.39,72.745,28.49,72.755,28.561z"/>
	<path class="st7" d="M62.473,22.619c0.091,0,0.181,0,0.262,0c0.433,0,0.866,0.01,1.299,0.01c1.088-0.01,2.175-0.02,3.162-0.04
		c0.141,0,0.292,0,0.433-0.01c0.453,0,0.876-0.02,1.269-0.03c0.413-0.02,0.786-0.03,1.098-0.05l-0.222-0.211
		c-0.101-0.101-0.201-0.211-0.302-0.312c-0.181,0-0.373-0.01-0.574-0.02c-1.329-0.05-3.092-0.07-4.864-0.081
		c-1.762,0.01-3.535,0.03-4.854,0.081c-0.342,0.01-0.665,0.03-0.937,0.04c-0.211,0.161-0.423,0.322-0.634,0.483
		c0.383,0.02,0.927,0.05,1.571,0.071C60.107,22.589,61.255,22.609,62.473,22.619z"/>
	<path class="st7" d="M59.059,27.947v0.01c0.171,0.03,0.363,0.05,0.564,0.081c0.916,0.131,2.145,0.242,3.374,0.242
		c0.614,0.01,1.229-0.01,1.803-0.04c0.574-0.05,1.118-0.081,1.571-0.151c0.03,0,0.06-0.01,0.081-0.01
		c-1.098-0.03-2.226-0.05-3.354-0.081C61.738,27.977,60.368,27.957,59.059,27.947z"/>
	<path class="st7" d="M52.634,27.947c0-0.01,0-0.03,0-0.04c-0.896,0-1.631,0.01-2.155,0.01c-0.181,0.141-0.363,0.272-0.534,0.413
		c0.504,0.02,1.46,0.06,2.729,0.111C52.644,28.279,52.634,28.118,52.634,27.947z"/>
	<polygon class="st7" points="24.134,86.297 13.972,83.638 14.063,85.451 23.65,88.1 34.174,90.96 34.053,88.956 	"/>
	<path class="st7" d="M23.711,79.358c2.618,0.373,5.227,0.745,7.191,0.987c1.158,0.141,2.095,0.242,2.659,0.312
		c0-0.141-0.01-0.282-0.02-0.423c-0.564-0.111-1.46-0.272-2.558-0.473c-1.944-0.342-4.552-0.745-7.16-1.148
		c-2.608-0.373-5.217-0.745-7.181-0.987c-1.44-0.161-2.538-0.292-3.011-0.352c0.01,0.141,0.02,0.282,0.03,0.423
		c0.504,0.081,1.541,0.272,2.89,0.514C18.504,78.552,21.112,78.965,23.711,79.358z"/>
	<path class="st7" d="M23.409,72.379c2.568,0.101,5.136,0.181,7.06,0.211c1.178,0.01,2.115,0.02,2.669,0.02
		c0-0.131-0.01-0.262-0.02-0.403c-0.554-0.05-1.48-0.121-2.628-0.201c-1.914-0.131-4.482-0.262-7.05-0.383
		c-2.558-0.091-5.126-0.181-7.06-0.212c-1.581-0.02-2.719-0.03-3.082-0.03c0.01,0.131,0.02,0.262,0.03,0.393
		c0.413,0.03,1.521,0.111,3.031,0.232C18.283,72.137,20.84,72.258,23.409,72.379z"/>
	<path class="st7" d="M22.925,65.742c2.558-0.101,5.126-0.211,7.05-0.322c1.289-0.091,2.286-0.151,2.81-0.191
		c-0.01-0.131-0.01-0.272-0.02-0.403c-0.524,0.01-1.531,0.01-2.81,0.01c-1.923,0.01-4.492,0.081-7.06,0.151
		c-2.568,0.101-5.126,0.201-7.05,0.322c-1.39,0.091-2.447,0.161-2.921,0.191c0.01,0.131,0.02,0.262,0.03,0.393
		c0.493,0,1.541,0,2.91,0C17.789,65.883,20.357,65.813,22.925,65.742z"/>
	<path class="st7" d="M22.784,59.358c2.608-0.363,5.217-0.725,7.16-1.027c1.078-0.181,1.964-0.322,2.528-0.423
		c-0.01-0.141-0.01-0.282-0.02-0.423c-0.574,0.06-1.47,0.151-2.578,0.262c-1.964,0.212-4.582,0.534-7.19,0.866
		c-2.608,0.352-5.207,0.715-7.16,1.027c-1.43,0.242-2.508,0.413-2.981,0.493c0.01,0.131,0.02,0.262,0.02,0.393
		c0.463-0.04,1.571-0.151,3.041-0.302C17.567,60.022,20.176,59.69,22.784,59.358z"/>
	<path class="st7" d="M22.391,52.62c2.578-0.614,5.166-1.239,7.09-1.732c1.208-0.322,2.165-0.574,2.699-0.725
		c0-0.141-0.01-0.282-0.01-0.413c-0.544,0.111-1.541,0.302-2.82,0.564c-1.954,0.403-4.542,0.987-7.13,1.581
		c-2.588,0.604-5.166,1.229-7.1,1.732c-1.511,0.403-2.628,0.705-3.031,0.816c0.01,0.121,0.02,0.252,0.03,0.383
		c0.362-0.07,1.541-0.302,3.142-0.614C17.215,53.809,19.803,53.214,22.391,52.62z"/>
	<path class="st8" d="M87.308,40.918c0.101-0.987,0.181-1.732,0.222-2.175c-1.098-0.947-2.185-1.893-3.273-2.85
		c-0.413,0-1.188,0-2.286-0.01L87.308,40.918z"/>
	<path class="st8" d="M81.477,35.409c0.997,0.03,1.783,0.06,2.316,0.081c-1.047-0.937-2.095-1.863-3.122-2.82
		c-1.229-1.128-2.437-2.286-3.656-3.424c-0.151-0.141-0.302-0.282-0.453-0.423c-0.211,0-0.957,0-2.065,0.01L81.477,35.409z"/>
	<path class="st8" d="M67.629,22.579l5.146,4.552c-0.252-0.131-0.473-0.191-0.634-0.211c0.292,0.373,0.453,0.755,0.524,1.057
		c0.03,0.111,0.04,0.211,0.05,0.302c1.571,0.06,2.79,0.111,3.424,0.141c-0.927-0.876-1.853-1.742-2.77-2.628l-3.374-3.293
		c-0.312,0.02-0.685,0.03-1.098,0.05C68.506,22.559,68.083,22.579,67.629,22.579z"/>
	<path class="st8" d="M73.43,31.874c-0.715-0.433,0.645-1.128,0.856-3.041c-0.453,0.01-0.967,0.01-1.521,0.01
		c0,0.03-0.01,0.081-0.01,0.141c0,0.121-0.03,0.352-0.091,0.594c-0.081,0.312-0.242,0.705-0.544,1.088
		c0.282,0.362,0.443,0.745,0.514,1.047c0.06,0.242,0.081,0.443,0.091,0.584c0.01,0.141,0.01,0.211,0.01,0.211v0.01
		c0,0,0,0.07-0.01,0.191c0,0.121-0.03,0.352-0.091,0.594c-0.121,0.493-0.473,1.198-1.208,1.722c-0.05,0.04-0.101,0.07-0.161,0.101
		c0.735,0.02,1.44,0.03,2.135,0.05C74.135,33.788,73.904,32.156,73.43,31.874z"/>
	<path class="st8" d="M69.261,42.67c0.373,0.483,0.705,0.997,1.007,1.531c0.554-0.272,1.642-0.282,3.122,2.145
		c-0.302-1.138-0.705-2.246-1.229-3.283c-0.121-0.232-0.242-0.463-0.383-0.695c-0.906-0.01-1.843-0.01-2.78-0.02
		C69.1,42.459,69.18,42.559,69.261,42.67z"/>
	<path class="st8" d="M63.823,38.521c1.722,0.695,3.303,1.762,4.572,3.132c1.017,0.02,2.004,0.04,2.981,0.06
		c-0.886-1.299-2.004-2.407-3.364-3.152l-1.41-0.634c-0.473-0.191-0.967-0.262-1.45-0.403c-0.453-0.171-1.068-0.171-1.621-0.232
		l-0.846-0.07l-0.211-0.02c-0.01,0-0.02,0-0.03,0l-0.02-0.01c0,0.01-0.01,0.01-0.02,0.01h-0.06l-0.403,0.01
		c-0.796,0.01-1.581,0.091-2.347,0.242c0.322,0.03,0.635,0.081,0.947,0.131C61.657,37.776,62.765,38.088,63.823,38.521z"/>
	<path class="st8" d="M64.034,21.874c1.772,0.01,3.535,0.03,4.864,0.081c0.201,0.01,0.393,0.02,0.574,0.02
		c-0.836-0.836-1.672-1.662-2.498-2.518c-0.06,0.272-0.141,0.534-0.212,0.806l-0.151,0.554l-0.544-0.01l-2.961-0.07l-0.473-0.01
		l-0.141-0.413c-0.161-0.453-0.292-0.886-0.413-1.329c-1.269,1.007-2.558,2.014-3.837,3.011c0.272-0.01,0.594-0.03,0.937-0.04
		C60.499,21.904,62.272,21.884,64.034,21.874z"/>
	<path class="st8" d="M67.116,34.251c-0.171-0.262-0.312-0.534-0.403-0.836c-0.101-0.02-0.211-0.03-0.322-0.04
		c-0.493-0.06-1.088-0.091-1.712-0.141c-0.624-0.04-1.299-0.081-1.964-0.091c-1.339-0.06-2.679-0.01-3.686,0.04
		c-0.141,0.01-0.272,0.02-0.403,0.02c-0.181,0.463-0.534,1.007-1.138,1.44c-0.091,0.06-0.181,0.121-0.272,0.171
		c0.806,0.01,1.621,0.02,2.437,0.04l0.584-0.634l5.277,0.141c0,0,0.191,0.262,0.534,0.634c0.624,0.02,1.249,0.03,1.863,0.05
		C67.609,34.845,67.327,34.573,67.116,34.251z"/>
	<path class="st8" d="M66.834,23.223l0.362-0.634c-0.987,0.02-2.075,0.03-3.162,0.04c-0.433,0-0.866-0.01-1.299-0.01l0.141,0.463
		L66.834,23.223z"/>
	<path class="st8" d="M56.803,36.305c0.695-0.302,1.42-0.524,2.165-0.695l0.02-0.02c-2.236-0.05-4.431-0.101-6.486-0.151
		C53.238,36.225,54.547,36.678,56.803,36.305z"/>
	<path class="st8" d="M46.763,34.684l5.116-3.837c0,0-0.675,2.246,0.131,3.887c0.645,0.01,1.299,0.02,1.964,0.03
		c-0.383-0.232-0.715-0.544-0.977-0.927c-0.352-0.524-0.564-1.168-0.564-1.813c0.01-0.634,0.211-1.309,0.564-1.823
		c0.081-0.121,0.171-0.232,0.272-0.332c-0.03-0.03-0.05-0.06-0.07-0.091c-0.262-0.403-0.453-0.856-0.524-1.339
		c-1.269-0.05-2.226-0.091-2.729-0.111c-1.38,1.037-2.769,2.075-4.159,3.102l-4.361,3.233c1.239,0,3.021,0.01,5.166,0.02
		C46.652,34.684,46.702,34.684,46.763,34.684z"/>
	<path class="st8" d="M52.785,27.01c0.111-0.302,0.242-0.594,0.423-0.856c0.171-0.272,0.393-0.493,0.634-0.695
		c0.242-0.191,0.504-0.342,0.785-0.463c0.544-0.222,1.148-0.282,1.662-0.211c0.554,0.081,1.017,0.292,1.4,0.554
		c0.161,0.111,0.302,0.232,0.423,0.352l4.361-3.072c-1.219-0.01-2.367-0.03-3.293-0.07c-0.645-0.02-1.188-0.05-1.571-0.071
		c-1.158,0.896-2.316,1.793-3.485,2.669c-0.111,0.081-0.221,0.171-0.332,0.252c-1.108,0.846-2.206,1.682-3.313,2.518
		c0.524,0,1.259-0.01,2.155-0.01C52.644,27.645,52.694,27.292,52.785,27.01z"/>
	<path class="st8" d="M46.007,35.248c-2.216-0.07-3.998-0.131-5.136-0.171l-3.485,2.578l-0.141,0.101
		c0.03,0.655,0.091,1.914,0.171,3.625c0.111,0,0.242,0,0.413,0L46.007,35.248z"/>
	<path class="st8" d="M32.029,44.916c-0.04-1.309-0.06-2.427-0.091-3.303l-3.001,2.175l-0.131,0.101l-0.151,0.04
		c-1.954,0.574-3.897,1.178-5.861,1.732l-5.861,1.692c-1.783,0.514-3.565,1.017-5.358,1.521c0.06,0.685,0.181,1.954,0.332,3.605
		l18.279-5.207L32.029,44.916z"/>
	<path class="st9" d="M38.787,27.675c0.01,0,0.02-0.01,0.03-0.01c0.262-0.252,0.594-0.554,0.977-0.896
		c0.987-0.886,2.346-2.014,3.746-3.092c1.39-1.057,2.81-2.075,3.907-2.81l-1.46,0.685C42.301,24.069,39.703,26.698,38.787,27.675z"
		/>
	<path class="st9" d="M32.432,33.898c0.03-0.01,0.06-0.02,0.091-0.03c0.665-0.473,1.329-0.947,1.994-1.42l8.409-5.982
		c-0.211,0.101-0.453,0.211-0.705,0.322C36.198,30.615,33.449,32.952,32.432,33.898z"/>
	<path class="st9" d="M24.919,36.225c0.131-0.111,0.272-0.252,0.433-0.393c0.816-0.725,1.944-1.641,3.112-2.498
		c1.027-0.765,2.085-1.48,2.961-2.034c-0.423,0.151-0.826,0.312-1.239,0.463C27.517,33.486,25.715,35.339,24.919,36.225z"/>
	<path class="st9" d="M25.695,38.702c0.081-0.03,0.151-0.05,0.232-0.081c1.813-1.329,3.636-2.639,5.468-3.938
		c-0.242,0.091-0.493,0.191-0.745,0.282C28.786,36.084,26.722,37.806,25.695,38.702z"/>
	<path class="st9" d="M13.912,42.761c0.735-0.594,1.642-1.289,2.568-1.934c1.017-0.705,2.065-1.38,2.931-1.883
		c-0.03,0.01-0.071,0.02-0.101,0.03c-0.393,0.131-0.786,0.252-1.158,0.362c-2.256,1.37-4.159,3.031-4.814,3.625
		C13.529,42.892,13.72,42.831,13.912,42.761z"/>
	<path class="st10" d="M40.056,27.111c-0.131,0.091-0.262,0.171-0.383,0.242c0.423-0.141,0.816-0.282,1.188-0.423
		c1.118-0.393,2.044-0.695,2.699-0.916l8.49-5.952l6.204-4.28l-9.477,4.461c-0.262,0.262-0.614,0.574-1.017,0.947
		c-0.997,0.876-2.357,2.004-3.756,3.092C42.603,25.348,41.163,26.376,40.056,27.111z"/>
	<path class="st10" d="M28.635,31.643c1.339-0.564,2.78-1.148,4.22-1.722c1.45-0.564,2.9-1.128,4.26-1.631
		c0.574-0.211,1.128-0.423,1.662-0.604c0.01,0,0.01,0,0.01-0.01c0.916-0.977,3.515-3.605,7.201-6.123l-10.272,4.834
		c-0.01,0-0.01,0.01-0.01,0.01c-0.151,0.121-0.342,0.272-0.564,0.433c-0.574,0.433-1.37,0.997-2.165,1.561
		c-0.806,0.544-1.621,1.088-2.236,1.47c-0.544,0.342-0.937,0.574-1.027,0.624c0.07-0.081,0.393-0.393,0.866-0.826
		c0.534-0.504,1.269-1.138,2.014-1.773c0.03-0.02,0.05-0.05,0.081-0.07l-2.497,1.178l-6.717,4.733l-0.745,0.514
		c0.584-0.272,1.36-0.624,2.266-1.027C26.047,32.76,27.286,32.197,28.635,31.643z"/>
	<path class="st10" d="M41.022,27.322c-1.078,0.463-2.316,1.017-3.666,1.581c-1.339,0.564-2.78,1.138-4.22,1.722
		c-0.141,0.05-0.272,0.111-0.413,0.161c-0.191,0.181-0.433,0.403-0.705,0.655c-0.816,0.715-1.944,1.631-3.112,2.498
		c-0.997,0.735-2.034,1.45-2.89,1.994c0.574-0.201,1.138-0.383,1.692-0.564c1.38-0.453,2.689-0.836,3.797-1.188
		c0.332-0.101,0.644-0.191,0.927-0.282c1.017-0.947,3.766-3.283,9.789-7.11C41.858,26.95,41.455,27.131,41.022,27.322z"/>
	<path class="st10" d="M19.098,38.34c1.359-0.504,2.83-1.017,4.29-1.531c0.473-0.161,0.947-0.322,1.42-0.473
		c0-0.01,0-0.01,0.01-0.01c0.01,0,0.01,0,0.02-0.01c0.03-0.03,0.06-0.06,0.081-0.091c0.796-0.886,2.598-2.739,5.267-4.461
		c-0.443,0.171-0.876,0.332-1.309,0.493c-1.36,0.514-2.649,0.957-3.746,1.349c-1.239,0.433-2.246,0.776-2.9,0.977
		c0,0.01,0,0.01-0.01,0l-0.01,0.01c-0.01,0-0.01,0-0.02,0.01l-5.539,3.857c-0.886,0.614-1.783,1.239-2.669,1.853
		c0.423-0.181,0.886-0.363,1.4-0.564C16.47,39.347,17.729,38.843,19.098,38.34z"/>
	<path class="st10" d="M27.93,35.993c-1.37,0.504-2.83,1.017-4.3,1.531c-1.007,0.342-2.014,0.695-3.001,1.017
		c-0.191,0.171-0.413,0.363-0.665,0.574c-0.796,0.685-1.903,1.531-3.051,2.326c-0.272,0.191-0.534,0.373-0.806,0.554
		c3.182-1.118,6.385-2.195,9.577-3.293h0.01c1.027-0.896,3.092-2.618,4.955-3.736C29.814,35.288,28.897,35.651,27.93,35.993z"/>
	<path class="st10" d="M18.152,39.337c-0.947,0.302-1.833,0.574-2.628,0.816c-0.886,0.272-1.662,0.493-2.276,0.665l-0.01,0.01
		c-1.128,0.786-2.276,1.561-3.414,2.336l-3.182,2.165c2.226-0.796,4.461-1.581,6.697-2.367
		C13.992,42.368,15.896,40.706,18.152,39.337z"/>
	<path class="st11" d="M77.519,35.862c-1.38-0.02-2.9-0.04-4.522-0.06c-0.413,0.514-0.987,0.937-1.762,1.198
		c-0.614,0.201-1.208,0.222-1.762,0.121c1.833,1.108,3.283,2.78,4.26,4.633c2.075,0.04,4.018,0.07,5.75,0.101
		c4.139,0.111,7.06,0.191,7.704,0.211c0.04-0.413,0.081-0.796,0.121-1.148l-5.338-5.035C80.802,35.883,79.281,35.872,77.519,35.862z
		"/>
	<path class="st11" d="M74.055,42.388c1.017,2.105,1.561,4.361,1.863,6.606c0.03,0.262,0.06,0.524,0.091,0.786
		c1.037,0.01,2.014,0.03,2.941,0.04c3.837,0.091,6.606,0.161,7.432,0.171c0.121-1.299,0.242-2.538,0.363-3.676
		c0.151-1.45,0.292-2.759,0.403-3.867c-0.725,0-3.626-0.01-7.674-0.01C77.831,42.429,76.008,42.408,74.055,42.388z"/>
	<path class="st11" d="M76.069,50.374c0.171,1.863,0.201,3.726,0.06,5.569l-0.07,1.42c0.927,0.01,1.803,0.03,2.628,0.04
		c3.354,0.081,5.891,0.141,6.989,0.161c0.222-2.518,0.453-4.955,0.665-7.191c-0.866,0-3.605,0.01-7.392,0.02
		C78.043,50.394,77.076,50.384,76.069,50.374z"/>
	<path class="st11" d="M76.029,57.968l-0.352,7.019c0.866,0.01,1.682,0.02,2.457,0.03c3.293,0.07,5.781,0.131,6.868,0.141
		c0.03-0.373,0.06-0.755,0.091-1.128c0.181-2.034,0.363-4.079,0.544-6.063c-1.128,0.01-3.636,0.01-6.959,0.02
		C77.841,57.978,76.955,57.978,76.029,57.968z"/>
	<path class="st11" d="M75.646,65.591l-0.201,3.958l-0.181,3.142c0.775,0.01,1.521,0.03,2.226,0.04
		c3.434,0.091,5.962,0.161,6.868,0.191c0.191-2.377,0.403-4.864,0.604-7.372c-1.098,0.01-3.565,0.03-6.838,0.05
		C77.338,65.601,76.512,65.601,75.646,65.591z"/>
	<path class="st11" d="M75.233,73.275l-0.443,7.855c0.786,0.02,1.541,0.03,2.256,0.05c3.213,0.091,5.63,0.161,6.647,0.191
		c0.181-2.336,0.383-5.015,0.614-7.875c0-0.06,0.01-0.121,0.02-0.181c-0.937,0-3.454-0.01-6.848-0.01
		C76.764,73.295,76.018,73.295,75.233,73.275z"/>
	<path class="st11" d="M83.128,89.308c0.01-0.081,0.01-0.171,0.02-0.272l0.04-0.514c0.01-0.211,0.03-0.453,0.05-0.705
		c0.03-0.383,0.06-0.826,0.091-1.309c0.091-1.289,0.201-2.9,0.332-4.743c-1.027,0-3.424-0.01-6.617-0.01
		c-0.725-0.01-1.49-0.01-2.286-0.02l-0.081,1.41v0.091l-0.01,0.02c-0.101,0.453-0.232,0.735-0.463,1.057
		c-0.212,0.312-0.514,0.574-0.856,0.765c-0.081,0.04-0.161,0.091-0.252,0.121l-0.131,0.05l-0.04,0.01l-0.01,0.01l-0.101,0.02h-0.01
		l-0.05,0.01l-0.393,0.05l-0.916,0.05c-1.068,0.03-2.125,0.05-3.192,0.05c-2.115,0.01-4.23-0.02-6.345-0.04l-6.334-0.101
		l-3.172-0.06c-0.544-0.04-1.007,0.01-1.662-0.091c-0.302-0.06-0.614-0.151-0.917-0.322c-0.292-0.171-0.594-0.453-0.745-0.836
		l-0.03-0.081V83.82c-0.03-0.826-0.06-1.642-0.081-2.467c-1.229-0.02-2.397-0.05-3.464-0.07c-3.313-0.091-5.771-0.171-6.727-0.201
		v0.161c0.01,0.383,0.02,0.745,0.03,1.108c0,0.232,0.01,0.453,0.01,0.675l0.03,1.873c0.01,0.493,0.01,0.957,0.02,1.4
		c0.02,0.876,0.03,1.642,0.04,2.286c0,0.322,0.01,0.604,0.01,0.856h0.01l22.448-0.111L83.128,89.308z"/>
	<path class="st11" d="M74.286,28.833c-0.211,1.913-1.571,2.608-0.856,3.041c0.473,0.282,0.705,1.913-0.03,3.303
		c1.48,0.04,2.87,0.07,4.129,0.101c1.521,0.05,2.86,0.101,3.948,0.131l-6.979-6.576C74.427,28.833,74.357,28.833,74.286,28.833z"/>
	<path class="st11" d="M72.403,52.358c0.06,1.138,0.04,2.286,0.01,3.394c-0.01,0.514-0.02,1.037-0.03,1.551
		c0.594,0.01,1.188,0.02,1.762,0.02l0.06-1.43c0.131-1.853,0.081-3.716-0.101-5.529c-0.614,0.01-1.239,0-1.883,0
		C72.312,51.019,72.363,51.694,72.403,52.358z"/>
	<path class="st11" d="M72.202,64.947c0.544,0.01,1.078,0.01,1.591,0.02l0.322-7.009c-0.574,0-1.158,0-1.752-0.01
		C72.322,60.284,72.272,62.61,72.202,64.947z"/>
	<path class="st11" d="M70.268,44.201c0.826,1.48,1.39,3.112,1.712,4.763c0.06,0.252,0.101,0.504,0.141,0.755
		c0.655,0,1.289,0.01,1.913,0.03c-0.02-0.171-0.04-0.332-0.06-0.493c-0.141-0.987-0.322-1.954-0.584-2.91
		C71.91,43.919,70.822,43.929,70.268,44.201z"/>
	<path class="st11" d="M72.05,69.197c-0.05,1.138-0.101,2.286-0.151,3.424c0.534,0.01,1.047,0.02,1.561,0.03l0.131-3.152
		l0.181-3.907c-0.524,0-1.047,0-1.591-0.01C72.141,66.79,72.101,67.988,72.05,69.197z"/>
	<path class="st11" d="M71.456,81.07c0.574,0,1.128,0.02,1.672,0.03l0.312-7.835c-0.514-0.01-1.037-0.01-1.571-0.01
		C71.748,75.864,71.628,78.462,71.456,81.07z"/>
	<path class="st11" d="M71.386,82.299c0.02,0,0.05,0,0.07,0c0.292-0.01,0.665,0,1.027,0.07c0.201,0.03,0.403,0.081,0.584,0.151
		l0.03-0.806c-0.544,0-1.108-0.01-1.672-0.01C71.416,81.906,71.396,82.097,71.386,82.299z"/>
	<path class="st11" d="M59.049,27.745c0,0.101,0.01,0.171,0.01,0.201c1.309,0.01,2.679,0.03,4.038,0.05
		c1.128,0.03,2.256,0.05,3.354,0.081c0.01,0,0.02,0,0.03,0c0.081-0.01,0.151-0.02,0.221-0.03h0.01
		c0.081-0.363,0.232-0.725,0.433-1.017c0.342-0.504,0.836-0.886,1.37-1.098c0.524-0.222,1.108-0.272,1.591-0.201
		c0.544,0.07,0.977,0.272,1.349,0.524c0.282,0.201,0.514,0.433,0.685,0.665c0.161,0.02,0.383,0.081,0.634,0.211l-5.146-4.552
		c-0.141,0.01-0.292,0.01-0.433,0.01l-0.362,0.634l-3.958-0.141l-0.141-0.463c-0.081,0-0.171,0-0.262,0l-4.361,3.072
		c0.483,0.483,0.735,1.037,0.836,1.44C59.019,27.393,59.039,27.604,59.049,27.745z"/>
	<path class="st11" d="M71.325,83.074c-0.03-0.01-0.06-0.03-0.091-0.04h-0.01h-0.01h-0.272l-10.695,0.06l-7.05-0.02l-3.142-0.01
		c0,0.201,0,0.413,0,0.614c0.121,0.201,0.453,0.373,0.866,0.433c0.383,0.06,0.977,0.01,1.49,0.02l3.172-0.03l6.324-0.07l6.325-0.111
		c1.057-0.02,2.105-0.05,3.152-0.101l0.665-0.04c0.121-0.01,0.262-0.03,0.383-0.05l0.03-0.01c0.01,0.01,0.01,0,0.01,0
		c0.01,0,0.01,0,0.01,0h0.01c0.03-0.02,0.05-0.04,0.081-0.05c0.101-0.06,0.191-0.151,0.272-0.252c-0.171,0-0.352-0.02-0.534-0.05
		C71.95,83.306,71.587,83.185,71.325,83.074z"/>
	<path class="st11" d="M66.028,35.711c0.393,0.091,0.786,0.181,1.148,0.322c-0.131-0.101-0.262-0.211-0.383-0.312
		C66.542,35.721,66.28,35.711,66.028,35.711z"/>
	<path class="st11" d="M60.237,34.221l-0.584,0.634c0.806,0.01,1.601,0.03,2.407,0.04c1.339,0.03,2.679,0.07,3.988,0.101
		c-0.342-0.373-0.534-0.634-0.534-0.634L60.237,34.221z"/>
	<path class="st11" d="M44.98,41.381c1.823,0.02,3.887,0.03,6.093,0.05c0.967-1.611,2.256-3.062,3.877-4.119
		c0.584-0.403,1.208-0.735,1.853-1.007c-2.256,0.373-3.565-0.081-4.3-0.866c-2.155-0.05-4.169-0.111-5.932-0.171
		c-0.191-0.01-0.383-0.01-0.564-0.02l-8.177,6.133C39.008,41.381,41.586,41.381,44.98,41.381z"/>
	<path class="st11" d="M51.879,30.847l-5.116,3.837c1.581,0.01,3.354,0.03,5.247,0.05C51.204,33.093,51.879,30.847,51.879,30.847z"
		/>
	<path class="st11" d="M48.435,49.478c0.302-2.256,0.876-4.512,1.873-6.617c0.121-0.262,0.252-0.524,0.393-0.786
		c-2.075-0.04-4.008-0.081-5.73-0.111c-3.847-0.111-6.647-0.181-7.533-0.201c0.06,1.118,0.121,2.397,0.191,3.827
		c0.06,1.208,0.111,2.508,0.171,3.887c0.906,0,3.625,0,7.362-0.02C46.179,49.458,47.276,49.468,48.435,49.478z"/>
	<path class="st11" d="M48.948,80.728c-0.101-2.618-0.181-5.227-0.252-7.835c-1.098-0.02-2.145-0.04-3.112-0.06
		c-3.626-0.101-6.244-0.181-7.009-0.211c0.01,0.393,0.02,0.775,0.03,1.158c0.06,2.477,0.111,4.814,0.161,6.919
		c0.947,0,3.424,0,6.747,0C46.581,80.708,47.73,80.718,48.948,80.728z"/>
	<path class="st11" d="M48.676,72.278c-0.081-2.296-0.151-4.592-0.201-6.878c-1.128-0.01-2.195-0.03-3.192-0.04
		c-3.354-0.07-5.881-0.121-6.929-0.141c0.081,2.387,0.141,4.753,0.211,7.029c0.755,0,3.384,0,7.029,0
		C46.551,72.258,47.589,72.268,48.676,72.278z"/>
	<path class="st11" d="M48.455,64.786c-0.07-2.377-0.141-4.743-0.191-7.11c-1.057-0.01-2.065-0.03-3.011-0.04
		c-3.535-0.091-6.153-0.151-7.16-0.181c0.081,2.135,0.161,4.32,0.232,6.516c0.01,0.282,0.02,0.574,0.02,0.856
		c1.037-0.01,3.565-0.02,6.949-0.04C46.279,64.786,47.337,64.796,48.455,64.786z"/>
	<path class="st11" d="M48.243,57.061c0-0.151-0.01-0.312-0.01-0.463l-0.04-1.702l-0.03-0.836c-0.01-0.312-0.01-0.604-0.01-0.896
		c0.02-1.037,0.081-2.054,0.201-3.072c-1.128-0.02-2.206-0.04-3.203-0.05c-3.696-0.091-6.405-0.151-7.332-0.171
		c0.081,2.246,0.181,4.683,0.262,7.201c0.987,0,3.615-0.01,7.17-0.02C46.189,57.051,47.186,57.061,48.243,57.061z"/>
	<path class="st11" d="M34.053,88.956h0.02c-0.06-0.916-0.161-2.649-0.312-4.935l-0.03-0.534l-0.07-1.128
		c-0.01-0.171-0.02-0.332-0.03-0.504c-0.02-0.393-0.04-0.786-0.071-1.198c-0.564-0.07-1.5-0.171-2.659-0.312
		c-1.964-0.242-4.572-0.614-7.191-0.987c-2.598-0.393-5.207-0.806-7.16-1.148c-1.349-0.242-2.387-0.433-2.89-0.514
		c0.01,0.292,0.03,0.564,0.04,0.836v0.01c0.101,2.407,0.171,4.23,0.211,5.076l0.06,0.02l10.161,2.659L34.053,88.956z"/>
	<path class="st11" d="M23.821,78.613c2.608,0.403,5.217,0.806,7.16,1.148c1.098,0.201,1.994,0.363,2.558,0.473
		c-0.101-1.964-0.221-4.129-0.342-6.415c-0.02-0.403-0.04-0.806-0.06-1.208c-0.554,0-1.491-0.01-2.669-0.02
		c-1.923-0.03-4.492-0.111-7.06-0.211c-2.568-0.121-5.126-0.242-7.05-0.373c-1.511-0.121-2.618-0.201-3.031-0.232
		c0.02,0.342,0.04,0.675,0.06,1.007c0.081,1.601,0.171,3.112,0.242,4.492c0.473,0.06,1.571,0.191,3.011,0.352
		C18.605,77.868,21.213,78.24,23.821,78.613z"/>
	<path class="st11" d="M23.439,71.624c2.568,0.121,5.136,0.252,7.05,0.383c1.148,0.081,2.075,0.151,2.628,0.201
		c-0.101-2.266-0.222-4.612-0.332-6.979c-0.524,0.04-1.521,0.101-2.81,0.191c-1.924,0.111-4.492,0.222-7.05,0.322
		c-2.568,0.07-5.136,0.141-7.06,0.151c-1.37,0-2.417,0-2.91,0c0.01,0.101,0.01,0.201,0.02,0.302
		c0.111,1.742,0.222,3.505,0.322,5.186c0.363,0,1.501,0.01,3.082,0.03C18.313,71.443,20.881,71.533,23.439,71.624z"/>
	<path class="st11" d="M22.895,64.987c2.568-0.07,5.136-0.141,7.06-0.151c1.279,0,2.286,0,2.81-0.01c0-0.07-0.01-0.141-0.01-0.212
		c-0.101-2.256-0.191-4.522-0.282-6.707c-0.564,0.101-1.45,0.242-2.528,0.423c-1.944,0.302-4.552,0.665-7.16,1.027
		c-2.608,0.332-5.217,0.665-7.18,0.866c-1.47,0.151-2.578,0.262-3.041,0.302c0.121,1.611,0.242,3.293,0.363,4.975
		c0.473-0.03,1.531-0.101,2.921-0.191C17.769,65.188,20.327,65.088,22.895,64.987z"/>
	<path class="st11" d="M22.683,58.612c2.608-0.332,5.227-0.655,7.19-0.866c1.108-0.111,2.004-0.201,2.578-0.262
		c-0.101-2.588-0.191-5.076-0.272-7.321c-0.534,0.151-1.491,0.403-2.699,0.725c-1.924,0.493-4.512,1.118-7.09,1.732
		c-2.588,0.594-5.176,1.188-7.13,1.591c-1.601,0.312-2.78,0.544-3.142,0.614c0.131,1.591,0.272,3.404,0.423,5.307
		c0.473-0.081,1.551-0.252,2.981-0.493C17.477,59.327,20.075,58.965,22.683,58.612z"/>
	<path class="st11" d="M22.22,51.895c2.588-0.594,5.176-1.178,7.13-1.581c1.279-0.262,2.276-0.453,2.82-0.564
		c-0.03-0.836-0.06-1.642-0.081-2.397c-0.02-0.876-0.04-1.692-0.06-2.437l-1.843,2.357l-18.279,5.207
		c0.04,0.433,0.081,0.906,0.131,1.39c0.02,0.191,0.03,0.383,0.05,0.574c0.403-0.111,1.521-0.413,3.031-0.816
		C17.054,53.124,19.632,52.499,22.22,51.895z"/>
	<path class="st12" d="M67.448,17.664c-0.04,0.171-0.091,0.332-0.131,0.504c1.188,0.977,2.346,1.984,3.525,2.971l3.766,3.313
		c1.269,1.098,2.487,2.246,3.726,3.364c1.229,1.128,2.477,2.246,3.696,3.384c2.457,2.266,4.834,4.633,7.211,6.979
		c2.236,2.216,4.471,4.451,6.778,6.586c0.111-0.141,0.221-0.282,0.332-0.423C91.356,39.105,70.419,20.333,67.448,17.664z"/>
	<path class="st12" d="M91.699,45.48l3.374-0.131c-1.027-0.937-2.085-1.873-3.132-2.79L91.699,45.48z"/>
	<path class="st12" d="M88.909,39.931c-0.111-0.091-0.222-0.191-0.332-0.282v-0.01c-0.131-0.101-0.252-0.211-0.383-0.322
		c-0.06-0.05-0.111-0.101-0.171-0.151c-0.03,0.493-0.07,1.188-0.141,2.044c-0.091,1.35-0.211,3.112-0.352,5.166
		c-0.352,4.844-0.886,11.289-1.44,17.735c-0.292,3.223-0.584,6.445-0.856,9.467c-0.292,3.021-0.564,5.841-0.796,8.248
		c-0.383,3.646-0.665,6.365-0.775,7.483h0.554h0.101l4.119-47.947l0.685,0.191l1.742,1.511l0.141-1.319
		c-0.534-0.463-1.068-0.927-1.611-1.38C89.231,40.213,89.07,40.072,88.909,39.931z"/>
	<path class="st12" d="M72.252,33.204c0.111-0.413,0.101-0.705,0.101-0.705c0-0.05,0.01-0.302-0.101-0.685
		c-0.07-0.242-0.201-0.544-0.423-0.836c-0.081-0.111-0.181-0.222-0.292-0.322c0.111-0.101,0.211-0.211,0.292-0.322
		c0.242-0.302,0.383-0.614,0.453-0.866c0.081-0.282,0.091-0.504,0.091-0.624c0.01-0.05,0.01-0.081,0.01-0.081
		c0-0.04,0.01-0.222-0.06-0.504c-0.01-0.05-0.02-0.111-0.04-0.181c-0.091-0.312-0.292-0.745-0.675-1.118
		c0.594,1.611-0.775,2.739-0.775,2.739c0.262,0.171,0.473,0.534,0.604,0.987c0.383,1.249,0.151,3.152-1.319,3.203
		c-1.984,0.07-1.561-1.631-1.561-1.631c-4.542-1.349-11.078-0.574-11.078-0.574c0.141,1.783-2.488,2.417-3.122,0.574
		c-0.644-1.853,0.917-2.769,0.917-2.769c-1.712-1.198-1.027-3.051-0.705-3.726c-0.302,0.201-0.564,0.473-0.765,0.786
		c-0.252,0.413-0.393,0.826-0.403,1.35c-0.01,0.03-0.01,0.06-0.01,0.091c0,0.161,0.02,0.332,0.06,0.493
		c0.06,0.322,0.171,0.634,0.352,0.906c0,0,0,0.01,0.01,0.01c0.121,0.191,0.272,0.363,0.443,0.514
		c-0.191,0.121-0.373,0.292-0.514,0.483c-0.06,0.06-0.101,0.131-0.151,0.201c-0.272,0.433-0.413,0.896-0.403,1.43
		c0,0.493,0.141,0.997,0.413,1.41c0.272,0.423,0.655,0.755,1.078,0.967c0.212,0.091,0.453,0.181,0.665,0.211
		c0.101,0.03,0.242,0.03,0.363,0.04c0.091,0.01,0.222,0,0.332,0c0.443-0.04,0.856-0.181,1.188-0.393
		c0.453-0.282,0.755-0.665,0.927-1.017c0.101-0.181,0.171-0.342,0.211-0.494c0-0.02,0.01-0.04,0.01-0.05
		c0.131-0.02,0.272-0.05,0.423-0.07c0.06-0.01,0.111-0.02,0.171-0.03c1.017-0.161,2.397-0.252,3.766-0.211
		c1.37,0.05,2.729,0.211,3.736,0.413c0.05,0.01,0.091,0.02,0.131,0.02c0.292,0.06,0.554,0.111,0.765,0.161
		c0.03,0.171,0.081,0.342,0.151,0.504c0.05,0.131,0.121,0.252,0.191,0.373c0.262,0.393,0.624,0.705,1.037,0.906
		c0.201,0.101,0.423,0.181,0.624,0.211c0.091,0.02,0.232,0.03,0.342,0.04c0.091,0,0.212,0,0.322,0
		c0.423-0.04,0.816-0.181,1.138-0.373C71.819,34.231,72.131,33.617,72.252,33.204z"/>
	<path class="st12" d="M69.986,26.265c-0.423-0.02-0.826,0.05-1.219,0.242c-0.413,0.201-0.765,0.524-1.027,0.916
		c-0.111,0.171-0.191,0.342-0.252,0.524c-0.02,0.05-0.03,0.101-0.04,0.151c-0.04,0.101-0.07,0.222-0.081,0.332
		c0.403-0.091,0.796-0.191,1.047-0.292C68.415,28.138,68.355,26.547,69.986,26.265z"/>
	<path class="st12" d="M60.66,12.649l0.977-0.232l0.997,3.767l0.242,0.947l0.252,0.927c0.131,0.453,0.282,0.906,0.443,1.349
		l1.924-0.03l0.987-4.33c0.191-0.816,0.373-1.621,0.524-2.427c0.05-0.201,0.05-0.373,0.03-0.473L64.991,18.5l-1.158,0.06
		l-1.803-6.536l-0.504,0.01l-0.947,0.453l-14.562,6.999c-2.618,1.249-5.237,2.518-7.865,3.746l-7.382,3.464l-0.078,0.912
		l0.121-0.059l-0.121,0.059l-0.002,0.024l30.142-14.18L60.66,12.649z"/>
	<path class="st12" d="M60.963,17.674L27.84,41.562c0.081,0.181,0.161,0.342,0.232,0.504l3.676-2.729l4.451-3.303l8.449-6.143
		c2.81-2.054,5.67-4.048,8.5-6.063c2.84-2.024,5.71-3.998,8.58-5.962l0.101,0.131l-0.141-0.584l-0.212-0.947l-0.282-1.339
		L60.56,15.6L60.963,17.674z"/>
	<path class="st12" d="M57.901,28.209l0.735,0.181c0.05-0.262,0.04-0.433,0.04-0.433s0-0.01,0-0.02s0-0.02,0-0.04
		c0-0.03-0.01-0.071-0.01-0.121c-0.01-0.131-0.03-0.312-0.101-0.534c-0.121-0.443-0.443-1.088-1.128-1.521
		c-0.121-0.081-0.252-0.141-0.393-0.191C58.576,26.527,57.901,28.209,57.901,28.209z"/>
	<path class="st12" d="M36.722,38.138l-2.739,1.994c0.04,0.675,0.101,1.742,0.191,3.112l2.598-1.934
		C36.752,39.921,36.732,38.833,36.722,38.138z"/>
	<path class="st12" d="M34.678,74.272c-0.131-3.001-0.282-6.194-0.423-9.386c-0.252-6.385-0.493-12.77-0.635-17.564
		c-0.04-1.359-0.05-2.578-0.081-3.635l-0.856,0.534c0.06,0.927,0.121,1.964,0.191,3.102c0.282,4.703,0.584,10.967,0.876,17.241
		c0.131,3.142,0.262,6.274,0.383,9.215c0.101,2.941,0.201,5.69,0.282,8.036c0.101,3.525,0.171,6.173,0.191,7.281l0.896,0.242
		c-0.07-1.319-0.221-3.766-0.403-6.888C34.98,80.053,34.829,77.263,34.678,74.272z"/>
	<path class="st12" d="M3.73,47.736l0.009,0.01L3.881,47.7l-0.143,0.047l1.452,1.772l5.468-1.823
		c1.924-0.655,3.867-1.279,5.801-1.893l5.811-1.863c1.752-0.574,3.535-1.118,5.297-1.662c-0.191-0.181-0.403-0.393-0.614-0.604
		c-0.312-0.363-0.624-0.725-0.836-1.017c-0.03-0.04-0.06-0.07-0.081-0.111c-3.756,1.239-7.493,2.497-11.259,3.696
		C11.102,45.419,7.426,46.608,3.73,47.736z"/>
	<path class="st12" d="M11.193,52.358l-0.524-0.242l-0.755,0.282l1.319,14.009l1.521,16.909l0.604,0.161
		c-0.07-0.906-0.232-2.649-0.443-4.894c-0.131-1.682-0.292-3.635-0.463-5.74c-0.151-2.105-0.312-4.341-0.473-6.586
		c-0.292-4.482-0.574-8.963-0.725-12.337C11.233,53.365,11.213,52.852,11.193,52.358z"/>
	<path class="st13" d="M33.469,40.505l-0.977,0.705c0.05,0.776,0.111,1.793,0.191,3.011l0.856-0.534
		C33.51,42.338,33.489,41.25,33.469,40.505z"/>
	<path class="st13" d="M11.193,52.358c-0.06-1.49-0.111-2.659-0.151-3.344l-1.41,0.393l0.282,2.991l0.755-0.282L11.193,52.358z"/>
	<path class="st0" d="M98.648,42.287c-2.518-2.397-4.945-4.874-7.422-7.311c-2.457-2.457-4.975-4.854-7.543-7.191
		c-2.558-2.357-5.086-4.733-7.684-7.039l-3.877-3.474l-3.756-3.283c0.091-0.342,0.161-0.695,0.242-1.037
		c0.05-0.232,0.101-0.514,0.091-0.816c-0.02-0.312-0.07-0.675-0.302-1.017c-0.221-0.352-0.574-0.594-0.906-0.705
		c-0.312-0.111-0.564-0.141-0.896-0.131h-0.091l-5.176-0.06h-0.201l-0.191,0.081l-15.761,7.402
		c-2.628,1.239-5.257,2.457-7.875,3.726l-7.845,3.766l-0.504,0.242l-0.04,0.544l-0.131,1.672l-0.008,0.006l-0.031,0.435
		l-0.001,0.002l0.001,0.002l-0.034,0.476l0.263-0.128l1.724-0.813l0.002-0.024l0.078-0.912l7.382-3.464
		c2.628-1.229,5.247-2.498,7.865-3.746l14.562-6.999l0.947-0.453l0.504-0.01l4.562-0.05h0.07l0.02-0.01
		c0.03,0,0.201,0.01,0.252,0.03c0.06,0.02,0.06,0.03,0.07,0.04c0.01,0,0.03,0.04,0.03,0.111c0.02,0.101,0.02,0.272-0.03,0.473
		c-0.151,0.806-0.332,1.611-0.524,2.427l-0.987,4.33l-1.924,0.03c-0.161-0.443-0.312-0.896-0.443-1.349l-0.252-0.927l-0.242-0.947
		l-0.997-3.767l-0.977,0.232l0.171,0.806l0.131,0.614l0.091,0.403l0.141,0.655l0.282,1.339l0.212,0.947l0.141,0.584l-0.101-0.131
		c-2.87,1.964-5.74,3.938-8.58,5.962c-2.83,2.014-5.69,4.008-8.5,6.063l-8.449,6.143l-4.451,3.303l-3.676,2.729
		c0,0.02,0.01,0.03,0.02,0.05l-0.282,0.141l0.121-0.091l0.141-0.101c-0.07-0.161-0.151-0.322-0.232-0.504
		c-0.06-0.121-0.131-0.252-0.191-0.383c-0.222-0.383-0.433-0.765-0.634-1.047c-0.04,0.03-0.091,0.06-0.131,0.091l-0.121,0.081
		l-0.121,0.04c-0.201,0.071-0.403,0.131-0.604,0.201c0.02,0.04,0.05,0.07,0.081,0.111c0.212,0.292,0.524,0.655,0.836,1.017
		c0.211,0.211,0.423,0.423,0.614,0.604c-1.762,0.544-3.545,1.088-5.297,1.662l-5.811,1.863c-1.934,0.614-3.877,1.239-5.801,1.893
		L5.19,49.518l-1.452-1.772l-0.009-0.01c-0.282,0.091-0.574,0.181-0.866,0.272l0.003-0.011l-0.401,0.121l0.032,0.035l2.128,2.322
		l0.222,0.242l0.322-0.091l3.454-0.947l1.178,16.838l1.309,17.533l0.04,0.594l0.584,0.161l2.326,0.645l-0.091-1.813l-0.06-0.02
		c-0.04-0.846-0.111-2.669-0.211-5.076v-0.01c-0.01-0.272-0.03-0.544-0.04-0.836c-0.01-0.141-0.02-0.282-0.03-0.423
		c-0.071-1.38-0.161-2.89-0.242-4.492c-0.02-0.332-0.04-0.665-0.06-1.007c-0.01-0.131-0.02-0.262-0.03-0.393
		c-0.101-1.682-0.211-3.444-0.322-5.186c-0.01-0.101-0.01-0.201-0.02-0.302c-0.01-0.131-0.02-0.262-0.03-0.393
		c-0.121-1.682-0.242-3.364-0.363-4.975c0-0.131-0.01-0.262-0.02-0.393c-0.151-1.903-0.292-3.716-0.423-5.307
		c-0.01-0.131-0.02-0.262-0.03-0.383c-0.02-0.191-0.03-0.383-0.05-0.574c-0.05-0.483-0.091-0.957-0.131-1.39
		c-0.151-1.652-0.272-2.921-0.332-3.605c1.793-0.504,3.575-1.007,5.358-1.521l5.861-1.692c1.964-0.554,3.907-1.158,5.861-1.732
		l0.151-0.04l0.131-0.101l3.001-2.175c0.03,0.876,0.05,1.994,0.091,3.303c0.02,0.745,0.04,1.561,0.06,2.437
		c0.02,0.755,0.05,1.561,0.081,2.397c0,0.131,0.01,0.272,0.01,0.413c0.081,2.246,0.171,4.733,0.272,7.321
		c0.01,0.141,0.01,0.282,0.02,0.423c0.091,2.185,0.181,4.451,0.282,6.707c0,0.07,0.01,0.141,0.01,0.212
		c0.01,0.131,0.01,0.272,0.02,0.403c0.111,2.367,0.232,4.713,0.332,6.979c0.01,0.141,0.02,0.272,0.02,0.403
		c0.02,0.403,0.04,0.806,0.06,1.208c0.121,2.286,0.242,4.451,0.342,6.415c0.01,0.141,0.02,0.282,0.02,0.423
		c0.03,0.413,0.05,0.806,0.071,1.198c0.01,0.171,0.02,0.332,0.03,0.504l0.07,1.128l0.03,0.534c0.151,2.286,0.252,4.018,0.312,4.935
		h-0.02l0.121,2.004l1.4,0.383l0.121,0.03h0.131h2.608h0.534l-0.04-1.934h-0.01c0-0.252-0.01-0.534-0.01-0.856
		c-0.01-0.644-0.02-1.41-0.04-2.286c-0.01-0.443-0.01-0.906-0.02-1.4l-0.03-1.873l-0.04-1.783V81.08c0-0.121-0.01-0.252-0.01-0.383
		c-0.05-2.105-0.101-4.441-0.161-6.919c-0.01-0.383-0.02-0.765-0.03-1.158c-0.01-0.121-0.01-0.252-0.01-0.373
		c-0.07-2.276-0.131-4.643-0.211-7.029c0-0.131,0-0.262-0.01-0.393c0-0.282-0.01-0.574-0.02-0.856
		c-0.07-2.195-0.151-4.381-0.232-6.516c0-0.131,0-0.252-0.01-0.383c-0.081-2.518-0.181-4.955-0.262-7.201
		c-0.01-0.131-0.02-0.262-0.02-0.393c-0.06-1.38-0.111-2.679-0.171-3.887c-0.07-1.43-0.131-2.709-0.191-3.827
		c-0.04,0-0.081,0-0.111,0l-0.111,0.081l-0.02-0.091c-0.04,0-0.06,0-0.06,0v-0.312l0.06,0.312c0.03,0,0.07,0,0.131,0.01l0.111-0.081
		c-0.01-0.101-0.01-0.212-0.02-0.302c-0.081-1.712-0.141-2.971-0.171-3.625l0.141-0.101l3.485-2.578l0.554-0.413l4.361-3.233
		c1.39-1.027,2.779-2.065,4.159-3.102c0.171-0.141,0.352-0.272,0.534-0.413c1.108-0.836,2.206-1.672,3.313-2.518
		c0.111-0.081,0.222-0.171,0.332-0.252c1.168-0.876,2.326-1.772,3.485-2.669c0.211-0.161,0.423-0.322,0.634-0.483
		c1.279-0.997,2.568-2.004,3.837-3.011c0.121,0.443,0.252,0.876,0.413,1.329l0.141,0.413l0.473,0.01l2.961,0.07l0.544,0.01
		l0.151-0.554c0.071-0.272,0.151-0.534,0.212-0.806c0.826,0.856,1.662,1.682,2.498,2.518c0.101,0.101,0.201,0.211,0.302,0.312
		l0.222,0.211l3.374,3.293c0.917,0.886,1.843,1.752,2.77,2.628c0.141,0.131,0.282,0.262,0.423,0.403
		c0.151,0.141,0.302,0.282,0.453,0.423c1.219,1.138,2.427,2.296,3.656,3.424c1.027,0.957,2.075,1.883,3.122,2.82
		c0.151,0.131,0.312,0.262,0.463,0.403c1.088,0.957,2.175,1.903,3.273,2.85c-0.04,0.443-0.121,1.188-0.222,2.175
		c-0.04,0.352-0.081,0.735-0.121,1.148c-0.01,0.121-0.03,0.252-0.04,0.383c-0.111,1.108-0.252,2.417-0.403,3.867
		c-0.121,1.138-0.242,2.377-0.363,3.676c-0.01,0.121-0.03,0.252-0.04,0.383c-0.211,2.236-0.443,4.673-0.665,7.191
		c-0.02,0.131-0.03,0.272-0.04,0.403c-0.181,1.984-0.363,4.028-0.544,6.063c-0.03,0.373-0.06,0.755-0.091,1.128
		c-0.01,0.131-0.03,0.262-0.04,0.393c-0.201,2.508-0.413,4.995-0.604,7.372c-0.01,0.131-0.02,0.262-0.03,0.393
		c-0.01,0.06-0.02,0.121-0.02,0.181c-0.232,2.86-0.433,5.539-0.614,7.875c-0.01,0.131-0.02,0.262-0.03,0.393
		c-0.131,1.843-0.242,3.454-0.332,4.743c-0.03,0.483-0.06,0.927-0.091,1.309c-0.02,0.252-0.04,0.493-0.05,0.705l-0.04,0.514
		c-0.01,0.101-0.01,0.191-0.02,0.272l-0.01,0.151c0,0.06-0.01,0.111-0.01,0.161l-0.111,1.581l3.948-0.02h0.856l0.07-0.846
		l2.135-24.311l1.621-19.648l4.522-0.03l0.352-0.463c0.715-0.967,1.47-1.914,2.206-2.87L99,42.63L98.648,42.287z M11.978,66.256
		c0.161,2.246,0.322,4.482,0.473,6.586c0.171,2.105,0.332,4.059,0.463,5.74c0.212,2.246,0.373,3.988,0.443,4.894l-0.604-0.161
		l-1.521-16.909L9.914,52.399l-0.282-2.991l1.41-0.393c0.04,0.685,0.091,1.853,0.151,3.344c0.02,0.493,0.04,1.007,0.06,1.561
		C11.404,57.293,11.686,61.774,11.978,66.256z M34.607,89.097c-0.02-1.108-0.091-3.756-0.191-7.281
		c-0.081-2.346-0.181-5.096-0.282-8.036c-0.121-2.941-0.252-6.073-0.383-9.215c-0.292-6.274-0.594-12.538-0.876-17.241
		c-0.071-1.138-0.131-2.175-0.191-3.102c-0.081-1.219-0.141-2.236-0.191-3.011l0.977-0.705c0.02,0.745,0.04,1.833,0.07,3.182
		c0.03,1.057,0.04,2.276,0.081,3.635c0.141,4.794,0.383,11.179,0.635,17.564c0.141,3.192,0.292,6.385,0.423,9.386
		c0.151,2.991,0.302,5.781,0.423,8.177c0.181,3.122,0.332,5.569,0.403,6.888L34.607,89.097z M37.326,64
		c0.121,3.344,0.232,6.677,0.342,9.809c0.131,3.132,0.252,6.063,0.363,8.56c0.151,3.172,0.272,5.68,0.342,7.08l-2.326,0.01
		c0.01,0.01,0.01,0.02,0,0.03h-0.01l-0.141-0.03h0.06h0.01h0.081c-0.03-1.289-0.091-3.807-0.171-7.039
		c-0.07-2.397-0.161-5.196-0.262-8.188c-0.111-3.001-0.232-6.193-0.363-9.386c-0.272-6.385-0.564-12.77-0.836-17.553
		c-0.091-1.531-0.171-2.9-0.242-4.048c-0.091-1.37-0.151-2.437-0.191-3.112l2.739-1.994c0.01,0.695,0.03,1.783,0.05,3.172
		c0.01,1.219,0.03,2.669,0.06,4.31C36.934,50.636,37.115,57.313,37.326,64z M90.863,43.063l-2.417,22.82l-2.357,23.425H84.76h-0.443
		h-0.101h-0.554c0.111-1.118,0.393-3.837,0.775-7.483c0.232-2.407,0.504-5.227,0.796-8.248c0.272-3.021,0.564-6.244,0.856-9.467
		c0.554-6.445,1.088-12.891,1.44-17.735c0.141-2.054,0.262-3.817,0.352-5.166c0.07-0.856,0.111-1.551,0.141-2.044
		c0.06,0.05,0.111,0.101,0.171,0.151c0.131,0.111,0.252,0.222,0.383,0.322v0.01c0.111,0.091,0.222,0.191,0.332,0.282
		c0.161,0.141,0.322,0.282,0.483,0.433c0.544,0.453,1.078,0.916,1.611,1.38L90.863,43.063z M91.699,45.48l0.242-2.92
		c1.047,0.916,2.105,1.853,3.132,2.79L91.699,45.48z M96.351,44.342c-0.111,0.141-0.222,0.282-0.332,0.423
		c-2.306-2.135-4.542-4.371-6.778-6.586c-2.377-2.346-4.753-4.713-7.211-6.979c-1.219-1.138-2.467-2.256-3.696-3.384
		c-1.239-1.118-2.457-2.266-3.726-3.364l-3.766-3.313c-1.178-0.987-2.336-1.994-3.525-2.971c0.04-0.171,0.091-0.332,0.131-0.504
		c0.191-0.745,0.383-1.501,0.574-2.256c0.01-0.05,0.02-0.091,0.03-0.141l3.072,3.062l3.736,3.636
		c2.487,2.427,5.025,4.794,7.553,7.18c2.508,2.397,5.066,4.743,7.684,7.029c2.487,2.195,5.015,4.351,7.462,6.576
		C97.157,43.284,96.754,43.818,96.351,44.342z"/>
	<polygon class="st14" points="73.048,83.024 73.048,83.104 73.058,83.014 73.048,83.014 	"/>
	<path class="st14" d="M72.433,83.739c0.02,0,0.02-0.01,0.03-0.02l-0.03,0.01V83.739z"/>
	<path class="st14" d="M67.368,28.43c-0.262,0.06-0.514,0.111-0.745,0.141c-0.01,0.02-0.01,0.05-0.01,0.07
		c0.292-0.06,0.554-0.131,0.755-0.191C67.368,28.44,67.368,28.44,67.368,28.43z"/>
	<path class="st14" d="M66.693,28.088c0-0.01,0.01-0.03,0.01-0.04c-0.07,0.01-0.141,0.02-0.221,0.03
		C66.552,28.078,66.622,28.088,66.693,28.088z"/>
	<path class="st14" d="M2.864,48.008c0.292-0.091,0.584-0.181,0.866-0.272c3.696-1.128,7.372-2.316,11.048-3.495
		c3.766-1.198,7.503-2.457,11.259-3.696c0.201-0.07,0.403-0.131,0.604-0.201l0.121-0.04l0.121-0.081
		c0.04-0.03,0.091-0.06,0.131-0.091c2.89-2.034,5.73-4.109,8.59-6.173l8.691-6.294l8.651-6.365l7.614-5.7l0.634-0.473l-0.141-0.655
		l-0.091-0.403l-0.131-0.614L30.69,27.634l-1.724,0.813l-0.263,0.128L3.294,45.991l-1.699,1.166l-0.01,0.005l0.03,0.03l0.056-0.01
		c0.03-0.01-0.066,0.041-0.035,0.031l0.564,0.614l0.267,0.291l0.401-0.121L2.864,48.008z M25.926,38.622
		c-0.081,0.03-0.151,0.05-0.232,0.081h-0.01c-3.192,1.098-6.395,2.175-9.577,3.293c0.272-0.181,0.534-0.363,0.806-0.554
		c1.148-0.796,2.256-1.642,3.051-2.326c0.252-0.211,0.473-0.403,0.665-0.574c0.987-0.322,1.994-0.675,3.001-1.017
		c1.47-0.514,2.931-1.027,4.3-1.531c0.967-0.342,1.883-0.705,2.719-1.027c0.252-0.091,0.504-0.191,0.745-0.282
		C29.562,35.983,27.739,37.292,25.926,38.622z M34.517,32.448c-0.665,0.473-1.329,0.947-1.994,1.42c-0.03,0.01-0.06,0.02-0.091,0.03
		c-0.282,0.091-0.594,0.181-0.927,0.282c-1.108,0.352-2.417,0.735-3.797,1.188c-0.554,0.181-1.118,0.363-1.692,0.564
		c0.856-0.544,1.893-1.259,2.89-1.994c1.168-0.866,2.296-1.783,3.112-2.498c0.272-0.252,0.514-0.473,0.705-0.655
		c0.141-0.05,0.272-0.111,0.413-0.161c1.44-0.584,2.88-1.158,4.22-1.722c1.349-0.564,2.588-1.118,3.666-1.581
		c0.433-0.191,0.836-0.373,1.198-0.534c0.252-0.111,0.493-0.222,0.705-0.322L34.517,32.448z M48.777,20.242l9.477-4.461l-6.204,4.28
		l-8.49,5.952c-0.655,0.222-1.581,0.524-2.699,0.916c-0.373,0.141-0.765,0.282-1.188,0.423c0.121-0.07,0.252-0.151,0.383-0.242
		c1.108-0.735,2.548-1.762,3.948-2.83c1.4-1.088,2.759-2.216,3.756-3.092C48.163,20.817,48.515,20.504,48.777,20.242z
		 M23.459,33.727l6.717-4.733l2.497-1.178c-0.03,0.02-0.05,0.05-0.081,0.07c-0.745,0.634-1.48,1.269-2.014,1.773
		c-0.473,0.433-0.796,0.745-0.866,0.826c0.091-0.05,0.483-0.282,1.027-0.624c0.614-0.383,1.43-0.927,2.236-1.47
		c0.796-0.564,1.591-1.128,2.165-1.561c0.221-0.161,0.413-0.312,0.564-0.433c0,0,0-0.01,0.01-0.01l10.272-4.834l1.46-0.685
		c-1.098,0.735-2.518,1.752-3.907,2.81c-1.4,1.078-2.759,2.206-3.746,3.092c-0.383,0.342-0.715,0.645-0.977,0.896
		c-0.01,0-0.02,0.01-0.03,0.01c0,0.01,0,0.01-0.01,0.01c-0.534,0.181-1.088,0.393-1.662,0.604c-1.36,0.504-2.81,1.068-4.26,1.631
		c-1.44,0.574-2.88,1.158-4.22,1.722c-1.349,0.554-2.588,1.118-3.656,1.571c-0.906,0.403-1.682,0.755-2.266,1.027L23.459,33.727z
		 M16.651,38.461l5.539-3.857c0.01-0.01,0.01-0.01,0.02-0.01l0.01-0.01c0.01,0.01,0.01,0.01,0.01,0
		c0.655-0.201,1.662-0.544,2.9-0.977c1.098-0.393,2.387-0.836,3.746-1.349c0.433-0.161,0.866-0.322,1.309-0.493
		c0.413-0.151,0.816-0.312,1.239-0.463c-0.876,0.554-1.934,1.269-2.961,2.034c-1.168,0.856-2.296,1.772-3.112,2.498
		c-0.161,0.141-0.302,0.282-0.433,0.393c-0.02,0.03-0.05,0.06-0.081,0.091c-0.01,0.01-0.01,0.01-0.02,0.01c-0.01,0-0.01,0-0.01,0.01
		c-0.473,0.151-0.947,0.312-1.42,0.473c-1.46,0.514-2.931,1.027-4.29,1.531c-1.37,0.504-2.629,1.007-3.716,1.41
		c-0.514,0.201-0.977,0.383-1.4,0.564C14.868,39.699,15.765,39.075,16.651,38.461z M9.823,43.164
		c1.138-0.775,2.286-1.551,3.414-2.336l0.01-0.01c0.614-0.171,1.39-0.393,2.276-0.665c0.796-0.242,1.682-0.514,2.628-0.816
		c0.373-0.111,0.765-0.232,1.158-0.362c0.03-0.01,0.07-0.02,0.101-0.03c-0.866,0.504-1.914,1.178-2.931,1.883
		c-0.927,0.645-1.833,1.339-2.568,1.934c-0.191,0.07-0.383,0.131-0.574,0.201c-2.236,0.786-4.471,1.571-6.697,2.367L9.823,43.164z"
		/>
	<path class="st14" d="M59.029,27.947c0.01,0.01,0.02,0.01,0.03,0.01v-0.01C59.049,27.947,59.039,27.947,59.029,27.947z"/>
	<path class="st14" d="M59.009,28.48l-0.111-0.02c0.04,0.01,0.07,0.02,0.111,0.03V28.48z"/>
	<path class="st14" d="M38.777,81.241l0.04,1.783c0-0.222-0.01-0.443-0.01-0.675C38.797,81.987,38.787,81.624,38.777,81.241z"/>
	<path class="st14" d="M37.326,41.764c0.03,0,0.07,0,0.111,0c0-0.03,0-0.05,0-0.081L37.326,41.764z"/>
	<path class="st14" d="M37.216,41.844l0.111-0.081c-0.06-0.01-0.101-0.01-0.131-0.01L37.216,41.844z"/>
	<path class="st14" d="M37.135,41.754c0,0,0.02,0,0.06,0l-0.06-0.312V41.754z"/>
	<path class="st14" d="M35.957,89.459h-0.06l0.141,0.03h0.01c0.01-0.01,0.01-0.02,0-0.03h-0.081H35.957z"/>
	<path class="st14" d="M27.809,42.257l0.282-0.141c-0.01-0.02-0.02-0.03-0.02-0.05l-0.141,0.101L27.809,42.257z"/>
	<path class="st6" d="M55.273,29.487c0,0-1.561,0.916-0.917,2.769c0.634,1.843,3.263,1.208,3.122-0.574
		c0,0,6.536-0.775,11.078,0.574c0,0-0.423,1.702,1.561,1.631c1.47-0.05,1.702-1.954,1.319-3.203
		c-0.131-0.453-0.342-0.816-0.604-0.987c0,0,1.37-1.128,0.775-2.739c-0.111-0.111-0.252-0.222-0.403-0.322
		c-0.322-0.201-0.725-0.342-1.128-0.373c-0.03,0-0.06,0-0.091,0c-1.631,0.282-1.571,1.873-1.571,1.873
		c-0.252,0.101-0.645,0.201-1.047,0.292c0,0.01,0,0.01,0,0.02c-0.201,0.06-0.463,0.131-0.755,0.191
		c-0.04,0.01-0.091,0.02-0.141,0.03c-0.191,0.04-0.413,0.091-0.634,0.121c-0.04,0.01-0.081,0.02-0.121,0.02
		c-0.272,0.04-0.564,0.101-0.856,0.121c-0.594,0.06-1.239,0.091-1.873,0.101c-1.178-0.02-2.346-0.161-3.243-0.363
		c-0.081-0.01-0.161-0.03-0.232-0.05c-0.181-0.04-0.352-0.081-0.504-0.131c-0.04-0.01-0.07-0.02-0.111-0.03
		c-0.02,0-0.05-0.01-0.07-0.02c-0.07-0.02-0.131-0.03-0.191-0.05l-0.735-0.181c0,0,0.675-1.682-0.856-2.679
		c-0.252-0.111-0.524-0.171-0.796-0.201c-0.463-0.04-0.926,0.04-1.37,0.252c-0.111,0.05-0.211,0.111-0.312,0.181
		C54.245,26.436,53.561,28.289,55.273,29.487z"/>
	<path class="st6" d="M82.413,29.145c-2.528-2.387-5.066-4.753-7.553-7.18l-3.736-3.636l-3.072-3.062
		c-0.01,0.05-0.02,0.091-0.03,0.141c-0.191,0.755-0.383,1.511-0.574,2.256c2.971,2.669,23.908,21.441,28.903,26.678
		c0.403-0.524,0.806-1.057,1.208-1.591c-2.447-2.226-4.975-4.381-7.462-6.576C87.479,33.888,84.921,31.542,82.413,29.145z"/>
	<polygon class="st6" points="88.436,41.361 84.317,89.308 84.76,89.308 86.089,89.308 88.446,65.883 90.863,43.063 89.121,41.552 	
		"/>
	<path class="st6" d="M64.991,18.5l2.044-6.355c0-0.07-0.02-0.111-0.03-0.111c-0.01-0.01-0.01-0.02-0.07-0.04
		c-0.05-0.02-0.222-0.03-0.252-0.03l-0.02,0.01h-0.07l-4.562,0.05l1.803,6.536L64.991,18.5z"/>
</g>
</svg>
