<svg id="Layer_3" xmlns="http://www.w3.org/2000/svg" viewBox="0 0 100 100">
    <style>
        .st0{fill:#0439bc;stroke:#0439bc}.st0,.st1{stroke-width:.04;stroke-miterlimit:10}.st1{fill:#ff0;stroke:#ff0}.st2{fill:#f955be;stroke:#f955be}.st2,.st3{stroke-width:.04;stroke-miterlimit:10}.st3{fill:#0042ff;stroke:#0042ff}.st4{fill:#a7d0f9;stroke:#a7d0f9}.st4,.st5{stroke-width:.04;stroke-miterlimit:10}.st5{stroke:#000}.st6{fill:#fff}.st7{fill:#666;stroke:#666}.st7,.st8{stroke-width:.04;stroke-miterlimit:10}.st8{fill:#f9f6bb;stroke:#f9f6bb}.st9{fill:#04367f;stroke:#04367f}.st9,.st10{stroke-width:.04;stroke-miterlimit:10}.st10{fill:#ffce00;stroke:#ffce00}
    </style>
    <path class="st0" d="M76.07 66.69c-.247-.45-.346-.903-.346-.903s-.136-.447-.152-.966c-.017-.25.042-.5.048-.73l-.578-.14c-.32 1.33-.476 2.358-1.214 3.89-.22.42-.66 1.28-1.333 2.216-2.383 3.51-6.468 7.238-11.17 8.91-4.567 1.856-9.267 2.596-12.708 2.753-1.742.054-3.174.065-4.154-.024-.993-.05-1.557-.086-1.557-.086s-.51-.06-1.42-.178c.49.305 1.01.587 1.64.965.14.075.303.164.505.285 4.58.41 24.91 1.186 32.47-15.938a.083.083 0 0 0-.02-.05z"/>
    <path class="st1" d="M92.057 59.22c-.553-.5-1.09-1.022-1.646-1.54.7.07 1.4-.38 1.65-1.028-.59-.235-1.11-.61-1.55-1.033.1-.37.545-.51.877-.67s.664-.595.384-.87c-.316-.275-.93.13-1.177-.175.22-.55 1.26-.583 1.268-1.198.02-.525-.76-.66-1.234-.464-.516.183-1.093.45-1.51.133a5.15 5.15 0 0 0 1.283-1.37 9.404 9.404 0 0 1-1.24.88c-1.03.625-1.893.986-1.893.986s-1.03.498-2.274.91c-1.276.475-2.775.81-3.7.995-1.344.24-2.74.117-4.047-.187-1.25-.292-1.575-1.44-1.016-2.52.114-.24.335-.53.68-.875.145-.153.346-.31.55-.47l-.674-1.23c-.38-1.4-.603-2.353-.978-3.996-.053-.235-.117-.56-.23-.99a3.47 3.47 0 0 0-.186-.664c-.156-.593-.33-1.183-.512-1.828-.236-.64-.496-1.31-.756-1.98-.28-.69-.6-1.39-.94-2.09-8.806-11.11-19.01-15.72-28.454-15.776A29.693 29.693 0 0 0 34.2 24.07C23.356 28.152 19.06 39.54 18.242 42c.52-.017 1.007.01 1.502.09 1.428.232 2.77.79 3.815 1.616 1.08.837 1.75 1.918 2.145 2.888.206.55.33 1.053.39 1.49l.004.02c1.17 2.39 1.57 5.72-2.94 8.204-5.33 2.93-8.025.118-9.106-1.65-.083-.063-.15-.13-.23-.192a6.215 6.215 0 0 1-1.785-2.547c-5.71 3.82-8.495 2.26-9.617 1-.2.434-.25 1.02-.144 1.673V54.63s1.567 2.577 4.308 1.4a14.902 14.902 0 0 1 3.34-1 3.876 3.876 0 0 0-.315-.125c1.18-.497 1.988-.16 2.13-.07l.02-.003c-.02 0 .92.6.515 2.123-.24-.152-.27-.892-1.18-.897-.197.324-.45.64-.776.85-.554.43-1.202.724-2.043.97-.413.113-1.246.414-2.7.39-.296.022-.736-.066-1.103-.165-.077.252-.042.51-.077.79 0 .15.04.44.246.693.146.24.536.502.9.583.813.223 1.635-.02 1.635-.02s.785-.257 1.74-.61c.484-.143 1.017-.328 1.534-.36.49-.07.92.06 1.11.087.37.12.67.264.853.518.038-.004 1.723-.2 8.665 5.063 1.6 1.214 3.17 2.34 4.75 3.405l.02-.004.015-.02a3.207 3.207 0 0 1 1.117-.396c.656-.11 1.45-.014 2.226.475.266.17.71.424 1.424 1.145.68.613 1.49 1.637 2.186 2.77 3.144 1.465 6.334 2.46 9.678 2.82 1.284.14 2.54.207 3.787.202 6.135.068 11.84-1.463 16.418-4.605 5.463-3.73 10.8-17.14 27.668-7.53.04-.005.096.006.13 0a7.92 7.92 0 0 1-1.19-1.9c.74.12 1.466.245 2.224.345-.502-.543-.91-1.213-1.21-1.9.52.005 1.004-.006 1.49 0 .17-.002.385-.05.38-.22.01-.07-.058-.153-.123-.22zm-63.81 2.995c-.346-.492-.035-1.205.245-1.746.964-1.92 1.18-4.28.554-6.39-.11-.4-.236-.77-.273-1.17-.082-.74 1.067.99 1.186 1.71.5 2.702.14 5.79-1.72 7.59zm3.08 2.48c-.597-.81-.26-2.012.038-2.965 1.04-3.27.898-7.272-.33-10.788-.22-.64-.493-1.273-.6-1.91-.243-1.23.016-2.458.19-3.636.582-3.878.2-8.404-1.952-11.738.133-.52.7.07.988.553 2.84 4.36 2.71 7.78 2.29 11.6-.1.78-.25 1.53-.24 2.33.028 1.245.42 2.457.73 3.66 1.2 4.526 1.21 9.737-1.11 12.904zm3.188 3.694c-.918-.99-.26-2.57.26-3.8 1.867-4.28 2.003-9.38.29-13.84-.31-.777-.68-1.564-.816-2.42-.29-1.543.22-3.12.59-4.623 1.18-5.04.89-10.808-2.23-14.94.24-.684 1.104.054 1.534.61 4.135 5.424 3.695 9.803 2.72 14.76-.198.994-.49 1.965-.52 2.993-.08 1.575.47 3.12.882 4.644 1.53 5.69 1.166 12.384-2.72 16.605zm5.285 5.26c-1.09-1.17-.304-3.05.387-4.52 2.35-5.11 2.532-11.22.486-16.49-.35-.94-.8-1.883-.973-2.883-.33-1.853.287-3.725.763-5.54C41.98 38.21 41.7 31.324 37.9 26.43c.317-.808 1.348.055 1.87.73 5.07 6.41 4.45 11.634 3.2 17.56-.266 1.19-.624 2.373-.683 3.573-.093 1.893.547 3.703 1.04 5.534 1.843 6.765 1.325 14.766-3.525 19.827zm6.49 1.17c-1.153-1.24-.31-3.198.39-4.747 2.485-5.367 2.66-11.776.53-17.27-.403-1.024-.85-1.986-1.034-3.04-.34-1.927.3-3.914.8-5.826 1.625-6.31 1.322-13.51-2.678-18.637.082-.215.218-.31.364-.33.475-.063 1.178.584 1.603 1.103 5.336 6.71 4.67 12.162 3.35 18.393-.253 1.262-.643 2.49-.71 3.763-.12 1.97.57 3.866 1.093 5.77 1.95 7.12 1.41 15.496-3.704 20.816zm6.818-2.43c-.965-1.06-.265-2.736.336-4.047 2.124-4.593 2.303-10.053.46-14.788-.337-.83-.732-1.67-.892-2.56-.267-1.675.266-3.35.69-4.99 1.364-5.38 1.13-11.547-2.3-15.915.27-.723 1.2.06 1.69.664 4.55 5.722 3.98 10.397 2.87 15.707-.225 1.074-.545 2.124-.62 3.21-.083 1.69.495 3.32.94 4.937 1.658 6.087 1.208 13.24-3.172 17.79zM61 55.1c.854 4.593.455 9.804-2.113 12.782-.546-.856-.094-2.035.263-2.96 1.292-3.192 1.47-7.163.506-10.79-.182-.646-.382-1.29-.44-1.97-.152-1.245.19-2.41.457-3.58.867-3.843.84-8.363-1.037-11.865.172-.508.688.13.96.613 2.492 4.59 2.084 7.978 1.38 11.78-.177.75-.374 1.484-.43 2.292-.074 1.22.227 2.464.453 3.7zm3.958 1.447c.683 3.61.224 7.713-2.22 10.115-.465-.68-.033-1.596.297-2.312 1.286-2.56 1.542-5.704.727-8.514-.164-.517-.347-1.032-.4-1.546-.08-.994.256-1.934.524-2.827.9-3.065.95-6.627-.71-9.34.186-.416.645.08.867.476 2.2 3.53 1.768 6.21 1.01 9.22-.14.61-.36 1.18-.42 1.82-.09.963.158 1.953.325 2.897zm3.884-.05c.735 2.095.352 4.717-1.97 6.656-.488-.305-.075-.958.24-1.504 1.205-1.81 1.395-3.81.524-5.4-.152-.3-.336-.55-.38-.88-.136-.58.185-1.22.43-1.87.8-2.046.808-4.28-.87-5.65.168-.266.644-.052.857.14 2.24 1.797 1.844 3.527 1.17 5.537-.15.393-.337.79-.39 1.21-.067.604.196 1.163.39 1.75z"/>
    <path class="st2" d="M68.452 54.745c.054-.417.242-.815.392-1.208.673-2.01 1.068-3.74-1.17-5.535-.214-.194-.69-.408-.858-.143 1.678 1.37 1.67 3.6.87 5.65-.245.64-.566 1.28-.43 1.86.044.33.228.58.38.88.87 1.59.68 3.59-.523 5.39-.316.546-.73 1.2-.24 1.504 2.32-1.94 2.704-4.56 1.97-6.656-.194-.588-.457-1.147-.39-1.75zm-3.4-2.92c.76-3.008 1.19-5.692-1.01-9.224-.22-.39-.68-.89-.864-.47 1.658 2.717 1.608 6.28.71 9.34-.27.897-.605 1.837-.524 2.83.052.515.235 1.03.4 1.547.814 2.81.558 5.954-.728 8.514-.33.716-.762 1.63-.296 2.31 2.443-2.402 2.902-6.504 2.22-10.114-.168-.945-.416-1.935-.325-2.896.06-.645.28-1.215.418-1.83zM59.596 37.33c-.27-.483-.787-1.12-.96-.612 1.88 3.502 1.906 8.02 1.038 11.864-.267 1.172-.61 2.336-.456 3.58.057.682.257 1.325.44 1.97.964 3.627.784 7.598-.507 10.792-.35.924-.81 2.103-.26 2.96 2.57-2.98 2.97-8.19 2.11-12.782-.22-1.235-.53-2.478-.45-3.698.058-.808.255-1.543.43-2.293.706-3.8 1.11-7.19-1.38-11.78zM55.34 49.68c.072-1.09.393-2.138.618-3.21 1.112-5.31 1.678-9.986-2.87-15.708-.49-.602-1.418-1.387-1.69-.66 3.43 4.367 3.664 10.533 2.3 15.914-.425 1.64-.957 3.315-.69 4.99.16.89.556 1.73.893 2.56 1.85 4.734 1.67 10.194-.45 14.786-.6 1.31-1.3 2.99-.335 4.048 4.38-4.55 4.83-11.703 3.173-17.786-.446-1.613-1.025-3.246-.94-4.933zm-6.436-1.44c.067-1.275.456-2.5.71-3.765 1.32-6.232 1.984-11.684-3.35-18.395-.426-.52-1.13-1.166-1.604-1.1-.146.02-.282.112-.364.328 4 5.127 4.303 12.326 2.677 18.637-.5 1.912-1.14 3.898-.8 5.825.183 1.055.632 2.017 1.034 3.04 2.134 5.496 1.955 11.906-.526 17.273-.69 1.548-1.54 3.508-.38 4.745 5.11-5.32 5.65-13.698 3.7-20.82-.52-1.9-1.21-3.797-1.09-5.768zm-6.62.055c.06-1.2.417-2.384.68-3.575 1.253-5.924 1.874-11.147-3.197-17.56-.52-.673-1.552-1.536-1.87-.73 3.802 4.895 4.08 11.78 2.562 17.798-.48 1.815-1.1 3.687-.77 5.54.17 1 .62 1.944.97 2.883 2.045 5.27 1.863 11.38-.487 16.49-.69 1.478-1.475 3.35-.383 4.52 4.85-5.06 5.37-13.06 3.526-19.82-.494-1.83-1.134-3.64-1.04-5.535zm-5.93-1.157c.027-1.027.32-2 .52-2.994.975-4.955 1.414-9.334-2.72-14.76-.43-.554-1.295-1.29-1.536-.607 3.12 4.13 3.41 9.9 2.224 14.94-.37 1.502-.88 3.08-.592 4.622.136.85.505 1.64.817 2.41 1.712 4.454 1.576 9.555-.292 13.833-.52 1.226-1.177 2.805-.26 3.796 3.888-4.22 4.25-10.916 2.722-16.607-.415-1.524-.963-3.068-.882-4.643zm-4.646.992c-.017-.797.14-1.545.24-2.32.423-3.82.547-7.243-2.286-11.6-.29-.48-.855-1.074-.988-.553 2.153 3.334 2.534 7.86 1.95 11.738-.172 1.178-.43 2.405-.187 3.637.106.637.38 1.27.598 1.91 1.23 3.516 1.37 7.517.33 10.787-.296.95-.633 2.15-.038 2.96 2.32-3.17 2.31-8.38 1.11-12.91-.316-1.202-.707-2.414-.73-3.66zm-2.935 4.78c.037.404.163.778.273 1.172.626 2.11.41 4.467-.554 6.387-.28.54-.59 1.25-.244 1.74 1.856-1.8 2.213-4.888 1.71-7.59-.118-.73-1.267-2.45-1.185-1.72z"/>
    <path class="st3" d="M97.6 55.405a1.73 1.73 0 0 0-.412-.558c-.17-.163-.418-.333-.573-.647-.176-.33-.08-.715-.01-.874.09-.16.125-.185.125-.185.01-.05.228-.23.327-.73a1.82 1.82 0 0 0-.105-.9 1.634 1.634 0 0 0-.258-.52 2.493 2.493 0 0 0-.197-.21 2.825 2.825 0 0 0-.572-.367c-.065-.065-.16-.09-.205-.14.045-.08.126-.165.19-.25.107-.163.293-.43.322-.49a4.28 4.28 0 0 0 .214-.61c.068-.453-.082-.86-.33-1.03a.98.98 0 0 0-.478-.233s-.115-.02-.224-.006c-.04-.012-.227.107-.413.244-.63.422-1.15.81-1.64 1.14.43-.656.59-.864.695-1.046.265-.372.494-.738.773-1.15.255-.444.253-.462.306-.618a1.29 1.29 0 0 0 .06-.773c-.086-.23-.226-.433-.48-.51-.04-.013-.11-.003-.15-.016-.134.78-.34 1.59-.874 2.574-.207.382-.685 1.1-1.63 2.086-.455.473-1.034 1-1.66 1.44-.32.51-.76.98-1.284 1.368.417.315.994.05 1.51-.133.475-.197 1.256-.06 1.235.462-.005.613-1.044.645-1.265 1.196.247.3.86-.1 1.18.173.28.277-.05.713-.383.87s-.78.29-.876.66c.45.42.966.8 1.557 1.03-.245.65-.946 1.1-1.645 1.028.557.52 1.095 1.04 1.648 1.54.064.067.13.15.123.226.004.167-.21.215-.38.22-.485-.008-.97.003-1.49 0 .3.685.71 1.355 1.21 1.9-.756-.1-1.48-.224-2.223-.345a7.86 7.86 0 0 0 1.187 1.9c-.04.005-.095-.006-.13 0-.67 0-1.325-.154-1.973-.4.146.78.36 1.533.686 2.27a4.8 4.8 0 0 0-1.92-.555c.408.483.61 1.144.607 1.796-.174-.44-.66-.746-1.146-.735.04.424.075.81.13 1.23.63.788 1.19 1.623 1.497 2.196.517.915.69 1.375.784 1.64.34.85.47 1.538.508 2.2.03.204.003.41-.01.58.015-.02.015-.02.033-.02-.07.306.374.45.46.364.19-.085.33-.27.52-.52.173-.23.362-.48.46-.735.073-.14.09-.144.095-.386a9.18 9.18 0 0 0-.24-.803c-.055-.12-.09-.246-.145-.37-.1-.19.06-.1.22-.03.29.09.796.357 1.038.36.17.015.2-.03.324-.08.22-.16.41-.41.426-.97-.015-.11.01-.06-.027-.333-.013-.24-.064-.474-.095-.693-.06-.438-.13-.82-.158-1.002-.156-.312.218-.03.382.08.183.14.344.23.43.294l.244.17s.22.12.43.15a.79.79 0 0 0 .293-.023c.27-.055.473-.213.547-.353.13-.278.133-.52.09-.68.01-.078-.17-.425-.304-.59-.105-.21-.217-.346-.31-.48l.13-.02c1.415-.12 1.116-.266 1.385-.47a1.05 1.05 0 0 0 .28-.653c.066-.494-.06-1.128-.48-1.74l.09-.14a.838.838 0 0 1-.2-.25c.6.42 1.195-.13 1.29-.498.08-.236.105-.48.06-.79a4.245 4.245 0 0 0-.082-.474c-.062-.176-.103-.34-.164-.515.01-.17.292-.28.402-.426.115-.11.278-.28.4-.612a1.938 1.938 0 0 0-.05-1.576c.02-.135-.498-.51-.3-.687l.342-.365c.08-.084.1-.086.14-.17.06-.1.12-.22.174-.356a2.048 2.048 0 0 0-.064-1.54zM87.325 38.502c-.13-2.29-.953-4.485-2.086-6.228-1.15-1.722-2.6-3.067-3.84-4.2-2.52-2.185-4.35-3.347-4.35-3.347s-.47-.29-1.25-.815c-.83-.5-1.99-1.215-3.52-1.862-3.094-1.38-7.32-3.125-12-3.746-2.373-.325-4.795-.345-7.146-.245a32.556 32.556 0 0 0-6.636.87 24.1 24.1 0 0 0-1.744.44c.28 0 .52-.016.766.006 4.777.217 11.203 1.734 17.053 5.285 2.89 1.78 5.483 4.143 7.61 6.735A30.116 30.116 0 0 1 74.92 39.7c.266.708.508 1.382.734 2.077.177.627.34 1.256.5 1.885.07.232.14.465.17.684.08.435.144.78.176 1.017.398 1.676.224 2.706.27 4.132l.673 1.23c.693-.507 1.632-1.12 2.485-1.684 1.797-1.16 3.788-2.382 5.294-4.153 1.53-1.713 2.226-4.1 2.097-6.39zM77.96 69.315c-.8-1.08-1.677-2.3-1.863-2.573C68.533 83.866 48.21 83.09 43.63 82.677c.1.06.224.137.364.21.195.067.398.188.617.288a24.03 24.03 0 0 0 1.74.692c2.49.923 5.657 1.455 8.69 1.596 3.06.193 5.956-.02 8.07-.33s3.44-.714 3.44-.714 1.335-.32 3.288-1.15c1.937-.807 4.513-2.24 6.545-4.38 1.004-1.09 1.877-2.327 2.345-3.657.503-1.335.57-2.76.206-3.9a6.382 6.382 0 0 0-.97-2.026zM30.243 22.477c1.605-.78 3.037-1.33 4.236-1.68a1.38 1.38 0 0 1-.08-.27c-.067-.866.552-1.64 1.38-2.126.415-.22 1.202-.59 2.54-.88l.436-.06s.324-.08.49-.103c.145-.02.28 0 .424-.02-.035.004-.06-.03-.077-.027-.59-.086-.986-.125-.986-.125s-.285-.054-.78-.116c-.505-.044-1.165-.1-1.924-.07-1.485.035-3.24.67-4.293 1.41-1.022.68-1.44 1.295-1.624 1.58a3.544 3.544 0 0 0-.533 1.675c-.045.36.013.78.228 1.12.197-.083.367-.2.558-.3zm8.134 61.93c-1.054-1.03-2.14-2.703-2.847-4.188-.023-.04-.067-.09-.09-.12-.246-.56-.48-1.05-.67-1.49-.32-.7-.522-1.22-.522-1.22s-.55-1.43-1.335-3.075a17.91 17.91 0 0 0-1.597-2.814c-.42-.612-.847-1.15-1.213-1.51-.656-.71-1.044-.953-1.267-1.09-1.006-.68-2.026-1.06-2.977-.67l-.02.02-.02.005-.038.025a.895.895 0 0 0-.27.187c-.424.32-.658.78-.8 1.23-.166.563-.21 1.183-.12 1.97.034.257.095.695.366 1.59.12.336.233.75.403 1.172.23.583.463 1.202.79 1.81a20.044 20.044 0 0 0 2.004 3.204c1.476 1.936 3.044 3.19 3.044 3.19s1.288 1.106 3.194 2.11c1.838 1.05 4.398 1.926 6.153 1.964a10.98 10.98 0 0 0 1.42-.084 5.887 5.887 0 0 1-1.49-.56c-.386-.227-1.137-.68-2.11-1.665z"/>
    <path class="st4" d="M24.628 47.003a5.812 5.812 0 0 0-1.73-2.424c-.875-.68-2.08-1.19-3.334-1.37-1.188-.25-2.412-.08-3.504.37-.828.34-1.566.79-2.13 1.43a.775.775 0 0 1-.197.19c-.045.08-.108.163-.173.23l-.016.02c-.11.146-.205.27-.292.45-.17.25-.287.486-.384.723a.378.378 0 0 0-.095.254c.003.02-.034.022-.03.04-.114.258-.18.583-.264.93-.02.17-.09.44-.1.758-.02.17-.01.336-.02.542 0 .148.01.35.04.552.02.33.07.677.15 1 .31 1.055.95 2.177 1.91 2.938l.23.173c.262-.52.836-1.49 1.68-2.28a3.047 3.047 0 0 1-1.046-1.9 3.118 3.118 0 0 1 2.66-3.53c1.7-.235 3.26.965 3.496 2.682a3.01 3.01 0 0 1-.383 1.95c.8.394 1.65 1.058 2.593 2.082l.287-.377c.5-.7.736-1.405.86-1.85.118-.5.154-.784.154-.784s.04-.266.04-.787c-.03-.48-.072-1.2-.41-2.028z"/>
    <path class="st5" d="M21.487 48.794c-.236-1.717-1.798-2.917-3.497-2.683a3.117 3.117 0 0 0-2.66 3.54c.106.768.496 1.44 1.044 1.905 1.122-1.05 2.714-1.79 4.73-.8.33-.57.48-1.24.383-1.952zm-1.76.614c-.675.093-1.314-.36-1.4-.98-.088-.64.408-1.23 1.084-1.322.7-.096 1.34.338 1.42.977.09.622-.4 1.23-1.1 1.325z"/>
    <path class="st6" d="M20.83 48.084c.086.62-.408 1.23-1.102 1.324-.676.093-1.315-.36-1.4-.98-.09-.64.407-1.23 1.083-1.322.7-.095 1.34.338 1.42.978zm.274 2.66c.8.394 1.653 1.058 2.595 2.08-1.11 1.27-3.33 2.08-5.71 1.94-1.23-.015-2.37-.27-3.3-.94.26-.52.835-1.494 1.68-2.28a3.03 3.03 0 0 0 2.463.74 3.068 3.068 0 0 0 2.263-1.54z"/>
    <path class="st7" d="M16.374 51.545c.64.582 1.534.868 2.466.74a3.075 3.075 0 0 0 2.264-1.54c-2.016-.988-3.608-.248-4.73.8z"/>
    <path class="st8" d="M69.32 32.12c-2.104-2.447-4.693-4.622-7.457-6.308-5.575-3.31-11.907-4.69-16.405-4.908-2.268-.116-4.168.015-5.446.19-1.297.18-2.02.335-2.02.335s-.723.15-1.982.47c-1.272.36-3.03.974-5.09 1.965-2.037 1.025-4.318 2.437-6.4 4.492-2.067 2.015-3.745 4.703-5.142 7.67-.915 2.005-1.763 4.095-2.686 6.177a8.928 8.928 0 0 1 1.553-.21c.816-2.46 5.112-13.847 15.943-17.925a29.676 29.676 0 0 1 10.535-1.898C54.17 22.23 64.37 26.84 73.18 37.95c-1.03-2-2.31-4-3.86-5.835zM11.69 50.515c-.8.817-1.687 1.535-2.62 2.073-1.07.613-2.056.88-2.583.97-1.485.298-2.8-.192-3.478-1.197-.26.08-.48.24-.56.45l-.04.12c1.12 1.26 3.902 2.818 9.612-1.002a5.21 5.21 0 0 1-.305-1c-.02-.146-.018-.276-.036-.404z"/>
    <path class="st9" d="M98.53 57.287c.285-.765.242-1.616-.094-2.295-.3-.685-.972-1.113-.987-1.223a.302.302 0 0 1 .04-.12s.32-.38.44-1.11a2.52 2.52 0 0 0-.12-1.36c-.106-.23-.217-.49-.42-.745a2.885 2.885 0 0 0-.432-.443l.042-.1a2.57 2.57 0 0 0 .272-.857c.133-.65-.108-1.454-.605-1.814-.334-.25-.667-.373-.875-.4l-.075-.007c.07-.196.186-.696.126-1.135-.024-.18-.065-.344-.174-.46-.175-.33-.567-.61-.937-.596-.073.01-.105.05-.178.06.052-.434-.99.79-1.943 2.11-.256.315-.67.95-1.552 1.853-.65.684-1.69 1.516-2.632 2.093-.94.597-1.75.95-1.75.95s-.92.464-2.13.89c-1.184.444-2.652.87-3.52 1.044-.903.2-1.363.243-1.637.28-.372-.004-.722.026-1.055.035-.65.012-1.194-.025-1.74-.21-.15-.408-.124-.895.124-1.395a2.8 2.8 0 0 1 .57-.713c.15-.133.34-.25.543-.39a68.048 68.048 0 0 1 2.526-1.54c1.8-1.105 3.87-2.32 5.543-4.208 1.7-1.853 2.58-4.506 2.478-7.024-.03-2.524-.9-4.92-2.097-6.86-1.22-1.95-2.737-3.36-3.99-4.51-2.608-2.284-4.485-3.477-4.485-3.477s-.47-.306-1.31-.842a26.837 26.837 0 0 0-3.657-1.953c-3.133-1.393-7.48-3.215-12.39-3.88-2.446-.332-4.963-.358-7.386-.248a33.4 33.4 0 0 0-6.853.92 29.99 29.99 0 0 0-2.49.7c-.89.31-1.55.66-2.12 1.093a32.97 32.97 0 0 0-1.8.194c-1.35.186-2.11.346-2.11.346s-.76.16-2.093.493c-.108.033-.25.072-.36.105.113-.39.467-.79 1.105-1.156.328-.193 1.005-.547 2.21-.843.166-.025.4-.076.4-.076s.29-.056.437-.08c.944-.164 1.406-.19 1.7-.23 1.465-.166 2.39-.497 3.52-.8 1.05-.203 1.996-.5 2.62-.847.934-.5 1.335-.837 1.57-1.018 1.4-1.18 1.788-2.297 2.02-3.706-.28.655-.7 1.12-1.122 1.57-.405.43-.86.9-1.485 1.38-.22.14-.59.452-1.427.847-1.048.52-3.04.905-4.79.79-.86-.03-1.64-.163-2.233-.27-.587-.066-.986-.123-.986-.123s-.287-.053-.816-.11c-.51-.06-1.266-.142-2.114-.08-1.71.03-3.695.75-4.917 1.607-1.18.776-1.74 1.543-2 1.95-.86 1.46-.39 2.847.526 3.577-1.94 1.05-4.04 2.42-6.006 4.366-2.255 2.152-4.033 5.06-5.436 8.12-1.18 2.525-2.18 5.12-3.313 7.584-1.016.588-1.882 1.47-2.395 2.34a6.395 6.395 0 0 0-.82 2.013 6.75 6.75 0 0 0-.07 1.237c-.94 1.154-1.98 2.116-3.09 2.716-.9.514-1.72.74-2.12.813-.75.14-1.32.18-1.89.22-.26.015-.54 0-.888-.085-.08-.025-.14-.054-.235-.08-.01-.07-.71-.142-1.154.29l-.016.02c-.554.56-.76 1.354-.67 2.29.06.29.106.9.75 1.815.205.25.55.614.924.88s.706.387.706.387c.005.038.083.064.22.12-.25.2-.39.537-.424.97.01.185 0 .652.294 1.17.313.515.882.865 1.427 1.032 1.16.32 2.145.04 2.145.04s.97-.25 1.854-.57c.055-.01.125-.04.162-.04.393.15.75.3 1.098.54.51.32 1.01.71 1.645 1.26.17.14.42.35.72.642.17.144.323.31.497.49.56.556 1.293 1.404 1.925 2.21 1.337 1.586 2.445 3.685 4.167 5.515 1.46 1.57 3.183 2.858 4.964 4.028.18.495.38 1.01.636 1.53a19.012 19.012 0 0 0 2.036 3.44c1.553 2.096 3.23 3.448 3.23 3.448s.34.307.922.766a20.67 20.67 0 0 0 2.45 1.56c1.993 1.102 4.677 2.073 6.813 2.04 1.47-.035 2.21-.305 2.617-.36 1.63-.337 2.56-.596 4.018-.424-.896-.304-1.654-.534-2.6-.646-.06-.03-.1-.04-.135-.033-1.26-.218-2.05-.816-3.32-1.535-.345-.194-1-.625-1.898-1.47-.75-.697-1.536-1.817-2.213-2.952.1.042.21.064.31.106 1.282.27 2.392.49 3.302.606a8.275 8.275 0 0 0 2.03 1.88c.203.12.507.3.874.53.22.12.44.22.643.34.5.265 1.16.584 1.805.81 2.616 1.018 5.886 1.648 9 1.833 3.12.203 6.148.03 8.335-.31 2.19-.32 3.567-.734 3.567-.734s1.408-.323 3.486-1.186c2.06-.86 4.76-2.35 6.99-4.668 1.104-1.177 2.102-2.58 2.65-4.145.57-1.53.682-3.295.246-4.705-.31-1.187-.88-2.076-1.2-2.48a5.165 5.165 0 0 0-1.28-1.05c-.08-.194-.11-.395-.24-.526-.07-.12-.355-.418-.604-.738-.233-.34-.354-.676-.354-.676s-.16-.35-.213-.734a2.677 2.677 0 0 1-.01-1.023 1.818 1.818 0 0 0-.025-.314c.43.015.952.018 1.69.103.945.112 2.274.43 3.3.867 1.05.45 1.785.927 1.785.927s.89.51 1.81 1.39c.042.03.067.085.127.114.305.31.61.64.92 1.01a12.98 12.98 0 0 1 1.224 1.71 14.4 14.4 0 0 1 .76 1.477c.19.44.39.95.808 1.938.147.26.224.548.363.88.075.14.16.37.43.446.19.03.25-.11.23-.22a.82.82 0 0 0 .28.11c.434.055.806-.22 1.096-.41.25-.2.536-.43.765-.793.13-.148.248-.5.32-.658a1.8 1.8 0 0 0 .686-.28c.497-.31.91-1.095.9-1.857a.93.93 0 0 1 .016-.284c.158.035.416.02.65-.033.53-.09 1.06-.556 1.24-.88a2.05 2.05 0 0 0 .23-1.445l-.016-.11c.12-.075.56-.415.685-.71.208-.38.276-.84.204-1.22-.144-.78-.66-1.286-1.26-1.707.42.614.546 1.25.48 1.74a1.05 1.05 0 0 1-.28.654c-.27.202.03.35-1.386.47l-.13.015c.093.136.205.27.308.48.135.167.313.514.305.59.04.162.036.404-.093.683-.075.14-.276.3-.548.354a.79.79 0 0 1-.296.024 1.482 1.482 0 0 1-.43-.144l-.246-.17c-.083-.064-.244-.154-.43-.295-.165-.11-.54-.39-.384-.08.025.185.096.566.157 1.004.03.22.083.454.098.694.036.27.01.22.025.33-.018.56-.207.81-.427.97-.123.052-.154.094-.324.08-.24-.004-.744-.27-1.035-.36-.16-.07-.32-.16-.22.03.054.123.09.25.144.37.095.285.193.588.24.805-.003.242-.02.244-.095.384-.098.255-.287.505-.46.733-.19.25-.33.437-.525.52-.08.086-.53-.057-.46-.365-.02 0-.02 0-.035.02.015-.17.04-.376.014-.58-.038-.662-.17-1.35-.51-2.2-.09-.264-.268-.724-.784-1.64-.302-.573-.864-1.407-1.494-2.196-.29-.334-.617-.698-.934-.97-1.01-.98-2.026-1.584-2.026-1.584s-.8-.54-1.926-1.016c-1.15-.513-2.616-.888-3.692-1-1.38-.164-2.245-.08-2.69-.058-1.713.124-3.06.887-3.498 2.306.38-.628 1.006-.808 1.58-.83.458-.046.925-.035 1.496-.077.15 0 .335-.01.536-.035.055-.01.17.012.26 0-.03.04-.083.066-.11.144-.04.1-.058.25-.12.48-.005.224-.064.474-.047.733.02.52.155.963.155.963s.1.45.347.9c0 0 .02.017.03.053.185.27 1.06 1.49 1.86 2.572.23.323.7 1.04.968 2.027.363 1.14.298 2.564-.207 3.9-.47 1.33-1.34 2.566-2.345 3.654-2.033 2.14-4.61 3.572-6.546 4.38-1.953.826-3.288 1.14-3.288 1.14s-1.32.405-3.436.715a40.07 40.07 0 0 1-8.07.33c-3.037-.14-6.2-.673-8.69-1.596a23.845 23.845 0 0 1-1.734-.693c-.22-.1-.42-.22-.617-.286-.14-.074-.266-.15-.367-.21a10.14 10.14 0 0 0-.504-.285c-.63-.38-1.15-.66-1.64-.965.91.118 1.42.178 1.42.178s.562.035 1.556.085c.98.087 2.414.077 4.156.023 3.44-.157 8.14-.897 12.706-2.754 4.7-1.67 8.785-5.4 11.17-8.91.67-.93 1.11-1.79 1.33-2.213.74-1.536.896-2.563 1.215-3.89.03-.06.025-.08.04-.118-.76 1.24-1.4 2.017-2.306 3.407a39.318 39.318 0 0 1-1.415 2.02c-2.38 3.267-6.14 6.78-10.575 8.38-4.41 1.78-8.924 2.51-12.255 2.653-1.663.08-3.04.104-4 .01-.96-.05-1.502-.09-1.502-.09s-.51-.06-1.49-.165c-.94-.075-2.28-.338-3.93-.688-.46-.086-.963-.24-1.445-.36-.567-1.13-.95-2.01-.95-2.01s-.62-1.403-1.47-3.092a13.91 13.91 0 0 0-.934-1.658c-.698-1.133-1.51-2.157-2.19-2.77-.714-.72-1.16-.976-1.423-1.144a3.17 3.17 0 0 0-2.226-.474 3.18 3.18 0 0 0-1.116.395c.95-.39 1.972-.01 2.977.67.225.137.61.38 1.268 1.09.367.36.794.897 1.214 1.51.58.83 1.166 1.85 1.596 2.813a48.21 48.21 0 0 1 1.34 3.076s.204.51.524 1.212c.19.44.426.928.67 1.49.023.034.067.084.09.118.708 1.485 1.795 3.16 2.848 4.187.977.983 1.728 1.438 2.11 1.664a6.05 6.05 0 0 0 1.49.56 10.98 10.98 0 0 1-1.42.085c-1.752-.04-4.31-.915-6.15-1.965-1.906-1.004-3.194-2.11-3.194-2.11s-1.57-1.257-3.045-3.194a20.115 20.115 0 0 1-2.005-3.205c-.325-.605-.56-1.224-.79-1.81-.17-.42-.28-.833-.4-1.17-.27-.893-.33-1.332-.367-1.59-.09-.786-.045-1.41.12-1.97.143-.45.378-.91.8-1.226-.074.01-.108.03-.18.06-.998.584-1.754 1.582-1.718 3.196.02.297.055.81.277 1.75-1.334-.895-2.568-1.88-3.67-2.993-1.573-1.682-2.73-3.738-4.136-5.425-.67-.82-1.4-1.67-2.004-2.258a37.575 37.575 0 0 1-.534-.502c-.32-.31-.61-.51-.8-.67-1.04-.79-1.936-1.092-2.882-1.204.687-.15 1.29-.216 1.54-.157.56-.007.956-.1 1.46.203a1.974 1.974 0 0 0-.463-.68c-.183-.254-.482-.4-.852-.516-.19-.03-.614-.156-1.11-.09-.515.036-1.05.22-1.53.36-.956.357-1.74.614-1.74.614s-.823.248-1.635.02c-.366-.08-.756-.34-.9-.58a1.16 1.16 0 0 1-.244-.69c.033-.284 0-.54.075-.792.366.1.806.188 1.1.166 1.456.024 2.29-.277 2.7-.39.843-.245 1.49-.54 2.046-.97.324-.21.58-.525.776-.85.91.005.94.745 1.185.898.405-1.528-.533-2.125-.515-2.127l-.02.004c-.143-.094-.952-.43-2.13.07.116.04.215.08.314.122h.016c.68.315.75.697.796.746-.277.15-.585.213-.87.308-1.107.34-1.606.5-1.946.604-.394.11-1.15.42-2.326.415a3.59 3.59 0 0 1-.924-.098 2.59 2.59 0 0 1-.486-.156s-.273-.09-.54-.28a3.197 3.197 0 0 1-.74-.624c-.514-.635-.572-1.056-.625-1.31l-.005-.017-.003-.02c-.11-.656-.06-1.24.14-1.677l.04-.115c.083-.217.303-.378.554-.45.684 1.008 2 1.498 3.484 1.2.527-.09 1.514-.356 2.584-.97.93-.537 1.82-1.255 2.62-2.072.016.13.015.26.035.405.062.326.164.666.303 1 .353.938.94 1.825 1.785 2.547.083.067.15.13.23.196 1.105.853 2.603 1.187 3.89 1.214 1.404.05 2.836-.093 4.07-.58 1.24-.487 2.264-1.28 2.89-2.147a7.41 7.41 0 0 0 1.063-2.285c.144-.58.15-.916.15-.916s.07-.328.06-.94c-.015-.24-.02-.557-.07-.904l-.002-.02a7.05 7.05 0 0 0-.39-1.49c-.395-.97-1.065-2.05-2.148-2.89-1.045-.824-2.388-1.384-3.816-1.616a7.698 7.698 0 0 0-1.51-.094 9 9 0 0 0-1.552.214c.924-2.082 1.77-4.172 2.687-6.178 1.395-2.966 3.073-5.654 5.14-7.67 2.08-2.055 4.363-3.467 6.4-4.492 2.06-.99 3.817-1.605 5.09-1.967 1.26-.323 1.98-.48 1.98-.48s.724-.157 2.02-.336c1.28-.174 3.18-.305 5.447-.19 4.5.22 10.834 1.6 16.408 4.91 2.764 1.686 5.353 3.86 7.458 6.31 1.556 1.83 2.837 3.833 3.857 5.833.34.698.66 1.4.94 2.086.26.67.52 1.343.757 1.98.18.646.355 1.236.51 1.83.09.247.16.48.183.662.114.434.18.76.23.995.374 1.642.6 2.598.977 3.998-.045-1.425.13-2.454-.27-4.13-.03-.237-.1-.582-.176-1.02-.03-.217-.1-.45-.17-.682-.16-.63-.32-1.26-.5-1.885a49.834 49.834 0 0 0-.733-2.077 30.13 30.13 0 0 0-4.735-8.303c-2.125-2.593-4.72-4.953-7.61-6.733-5.85-3.55-12.276-5.067-17.053-5.285-.244-.025-.484-.01-.763-.01a24.908 24.908 0 0 1 1.744-.446 32.503 32.503 0 0 1 6.638-.877c2.35-.1 4.77-.08 7.146.246 4.684.62 8.908 2.366 12.002 3.745 1.522.65 2.682 1.36 3.514 1.86.78.53 1.25.82 1.25.82s1.834 1.16 4.35 3.345c1.236 1.133 2.687 2.478 3.836 4.2 1.134 1.743 1.958 3.938 2.087 6.228.13 2.29-.566 4.677-2.098 6.395-1.507 1.77-3.498 2.994-5.293 4.154-.85.564-1.79 1.177-2.484 1.68a5.726 5.726 0 0 0-.55.47c-.342.344-.563.635-.68.874-.557 1.083-.232 2.23 1.018 2.523 1.31.302 2.703.426 4.048.186.925-.184 2.424-.52 3.7-.994 1.245-.41 2.275-.91 2.275-.91s.86-.36 1.89-.983a9.31 9.31 0 0 0 1.24-.88c.626-.44 1.205-.967 1.66-1.44.944-.985 1.42-1.703 1.63-2.085.534-.984.74-1.794.874-2.575.04.01.11 0 .15.014.254.08.393.28.48.51.05.238.05.5-.06.775-.053.156-.05.174-.306.62-.28.41-.507.776-.773 1.148-.104.183-.262.39-.693 1.046.495-.33 1.018-.72 1.65-1.14.185-.138.373-.257.41-.244a.812.812 0 0 1 .225.004.98.98 0 0 1 .48.232c.245.17.394.578.327 1.034a4.28 4.28 0 0 1-.213.607c-.03.06-.216.326-.323.49-.062.083-.143.17-.188.25.04.05.14.073.202.14.24.114.49.285.575.366.064.067.13.13.196.216.117.17.215.34.258.52.14.337.13.67.104.9-.1.498-.316.676-.327.734 0 0-.034.023-.124.185-.07.16-.167.544.01.874.154.312.4.482.572.645.15.145.305.31.413.556a2.03 2.03 0 0 1 .063 1.536 2.46 2.46 0 0 1-.175.36c-.044.08-.062.082-.143.168l-.34.364c-.2.177.316.553.3.686a1.945 1.945 0 0 1 .05 1.576 1.487 1.487 0 0 1-.4.613c-.11.143-.395.26-.408.425.06.18.102.34.163.514.04.16.063.325.083.47.043.31.02.556-.06.79-.097.367-.69.914-1.29.494a.84.84 0 0 0 .202.25c.48.38 1.328.19 1.725-.44.214-.33.304-.75.306-1.144a3.768 3.768 0 0 0-.088-.64c-.016-.11-.004-.018.012-.04a2.83 2.83 0 0 0 .61-.96 2.91 2.91 0 0 0 .098-1.875 1.57 1.57 0 0 0-.194-.456.26.26 0 0 1-.03-.07c.03-.045.11-.15.174-.23a1.96 1.96 0 0 0 .27-.52zm-8.99 16.52c.01.055.05.086.073.12.06.03.08.045.067.084l.005.04c-.042.1-.047.06-.086.05-.07-.06-.08-.17-.06-.29zM19.565 43.214c1.253.18 2.458.685 3.334 1.365.86.7 1.41 1.59 1.73 2.42.33.83.38 1.55.41 2.03-.01.52-.04.78-.04.78s-.04.283-.16.783a5.946 5.946 0 0 1-.86 1.85l-.288.374c-1.11 1.27-3.326 2.077-5.71 1.94-1.23-.017-2.363-.27-3.293-.943l-.23-.173c-.96-.76-1.598-1.883-1.91-2.94a6.197 6.197 0 0 1-.158-1 4.578 4.578 0 0 1-.04-.552c.01-.206.005-.373.02-.54.01-.32.084-.59.1-.76.08-.346.147-.67.26-.93-.002-.018.035-.023.03-.04a.39.39 0 0 1 .097-.257c.1-.234.214-.473.384-.72.088-.18.18-.304.293-.45l.016-.02c.065-.066.13-.15.172-.23a.775.775 0 0 0 .195-.195c.567-.637 1.305-1.09 2.13-1.43 1.097-.448 2.32-.616 3.51-.37zM34.48 20.796c-1.2.35-2.632.902-4.237 1.68-.19.102-.36.218-.554.3a1.692 1.692 0 0 1-.23-1.122 3.54 3.54 0 0 1 .53-1.674c.18-.286.6-.902 1.62-1.583 1.05-.74 2.81-1.373 4.29-1.41.76-.03 1.42.028 1.927.07.493.063.78.116.78.116s.395.04.984.125c.02-.003.044.03.08.026-.146.02-.28 0-.425.02a7.132 7.132 0 0 0-.49.105l-.437.06c-1.337.29-2.124.66-2.54.88-.826.485-1.445 1.26-1.38 2.125.01.094.04.183.072.272z"/>
    <path class="st10" d="M88.388 62.723c.648.246 1.302.398 1.972.4-16.866-9.61-22.205 3.8-27.667 7.53-4.575 3.143-10.284 4.673-16.417 4.605a34.104 34.104 0 0 1-3.788-.204c-3.344-.36-6.534-1.353-9.677-2.82.36.548.68 1.1.94 1.66a75.5 75.5 0 0 1 1.47 3.092s.38.878.95 2.01c.48.12.988.274 1.447.36 1.65.35 2.988.61 3.93.687.98.107 1.49.167 1.49.167s.547.037 1.504.09c.96.092 2.336.07 4-.01 3.33-.142 7.848-.875 12.256-2.655 4.432-1.597 8.192-5.112 10.572-8.38.66-.89 1.172-1.632 1.416-2.02.907-1.39 1.544-2.166 2.305-3.406-.014.03-.01.05-.04.11l.577.14c.062-.232.08-.383.12-.482.027-.078.08-.104.11-.145-.09.012-.205-.01-.26 0a4.07 4.07 0 0 1-.535.034c-.57.04-1.036.03-1.495.076-.573.024-1.2.204-1.58.833.44-1.42 1.787-2.18 3.5-2.306.444-.025 1.308-.106 2.69.057 1.076.113 2.543.49 3.693 1 1.127.478 1.927 1.02 1.927 1.02s1.012.604 2.022 1.582c.317.27.646.635.934.97-.057-.42-.09-.808-.13-1.23.482-.01.97.293 1.143.735 0-.65-.2-1.31-.6-1.8a4.784 4.784 0 0 1 1.916.555 10.12 10.12 0 0 1-.687-2.27zM26.17 49.006c.01.613-.058.94-.058.94s-.01.335-.153.914a7.394 7.394 0 0 1-1.07 2.287c-.628.868-1.65 1.66-2.89 2.147-1.237.487-2.67.628-4.07.58-1.29-.028-2.788-.362-3.89-1.215 1.08 1.76 3.774 4.58 9.104 1.65 4.517-2.49 4.114-5.82 2.947-8.21.05.34.055.66.07.9zM12.41 59.798c.213.194.358.435.466.68-.507-.302-.904-.21-1.462-.208-.25-.06-.855.006-1.542.156.946.112 1.844.416 2.883 1.204.19.16.478.362.8.672.15.147.343.325.535.503.602.587 1.333 1.436 2.004 2.256 1.405 1.69 2.563 3.75 4.135 5.43 1.1 1.12 2.33 2.1 3.67 3-.23-.937-.26-1.454-.28-1.75-.04-1.614.72-2.61 1.72-3.195.07-.03.1-.052.17-.062a.872.872 0 0 1 .27-.185l.034-.02c-1.58-1.068-3.15-2.19-4.75-3.405-6.94-5.26-8.628-5.068-8.664-5.06zm-2.462-4.762l-.018.002c-.927.165-2.096.456-3.343 1-2.742 1.178-4.306-1.4-4.306-1.4.06.254.12.674.63 1.31a3.2 3.2 0 0 0 .74.625c.27.187.54.28.54.28s.22.1.49.155c.31.07.67.113.927.096 1.174.006 1.93-.303 2.326-.413.34-.1.84-.26 1.946-.6.286-.09.594-.15.87-.3-.043-.05-.114-.43-.79-.745z"/>
</svg>
