<svg id="Layer_5" xmlns="http://www.w3.org/2000/svg" viewBox="0 0 100 100">
    <style>
        .st0{fill:#77bc4a;stroke:#77bc4a}.st0,.st1{stroke-width:.04;stroke-miterlimit:10}.st1{fill:#6ba843;stroke:#6ba843}.st2{fill:#999}.st3{fill:#519327;stroke:#519327;stroke-width:.04;stroke-miterlimit:10}.st4{fill:#dd3900;stroke:#dd3900}.st4,.st5{stroke-width:.04;stroke-miterlimit:10}.st5{fill:#c42d05;stroke:#c42d05}.st6{fill:#e8c19a;stroke:#e8c19a}.st6,.st7{stroke-width:.04;stroke-miterlimit:10}.st7{fill:#bc9e7d;stroke:#bc9e7d}.st8{fill:#b72802;stroke:#b72802}.st8,.st9{stroke-width:.04;stroke-miterlimit:10}.st9{fill:#82624a;stroke:#82624a}
    </style>
    <g id="XMLID_1_">
        <path class="st0" d="M91.98 94c-.396 0-1.013.13-1.67.08-.74.425-1.63 1.012-1.63 1.376.183.01.385.03.588.02 1.477-.06 3.015-.293 4.472-.617l.142-.04c-.598-.48-1.246-.79-1.903-.82zm-4.35-1.6c-1.053-1.092-1.933-2.356-2.985-3.216-1.032-.84-2.438-.74-3.956-.617-.79.08-1.58.142-2.38.142-1.63.58-1.14 1.23-.31 1.73 1.223.05 2.51.25 3.67.78 1.335.525 2.61 1.55 3.5 2.63 1.275.262 3.298.485 3.338-.578-.333-.294-.616-.597-.89-.88zM66.353 80.16c-.76-1.153-1.71-2.185-2.823-2.984-3.652-.85-4.967-.12-5.372.334.364.637.678 1.295.99 1.922.68 1.386 1.357 2.752 2.166 4.047.364.59.76 1.15 1.184 1.68 1.7.81 7.243 3.226 7.547 1.132-.597-.708-1.062-1.507-1.497-2.276-.728-1.346-1.365-2.66-2.195-3.865zm-16.257-9.47a20.81 20.81 0 0 1-2.68-1.69c-.476-.374-.952-.76-1.397-1.234-.65-.668-1.18-1.497-1.39-2.458-.17-.647-.61-1.74-1.05-2.873-.46-.11-1.1.283-.72 3.763.01.05.01.1.02.152.2 1.002.41 2.023.72 2.974.13.486.32.93.51 1.356.173.334.345.617.618.76.344.252.637.373.95.525.71.273 1.46.415 2.186.546.153.03.335.08.497.08-1.172-.72-2.285-1.85 1.73-1.89z"/>
        <path class="st1" d="M89.59 93.918a4.367 4.367 0 0 1-1.07-.637c-.04 1.07-2.065.84-3.34.58.102.09.193.2.264.31.496.547 1.042.93 1.67 1.094a6.267 6.267 0 0 0 1.567.2c0-.363.89-.95 1.63-1.375a2.186 2.186 0 0 1-.72-.163zm-11.28-5.21c-.738.03-1.446.03-2.174-.02-.75-.02-1.497-.07-2.276-.202a6.36 6.36 0 0 1-2.307-.85 5.972 5.972 0 0 1-1.507-1.335c-.304 2.1-5.847-.32-7.547-1.13a11.937 11.937 0 0 0 1.65 1.76 11.61 11.61 0 0 0 3.884 2.23c1.386.52 2.873.91 4.37 1.07 1.497.19 2.984.18 4.542.18.343-.01.687.01 1.05.03-.83-.49-1.324-1.14.305-1.73zM63.4 77.054c-1.185-.88-2.47-1.467-3.876-2.013l-2.184-.92-1.973-.85c-1.76-.81-3.56-1.61-5.27-2.58-4.017.04-2.904 1.18-1.73 1.9l.02.01c1.324.254 2.71.396 4.066.72 0 0 .03.01.09.02.02 0 .072.01.092.02.02 0 .06.01.09.01.02.01.062.02.082.02.02 0 .07.01.09.02.02 0 .072.01.092.01.02.01.02.01.04.01 1.32.384 2.66.94 3.65 1.973a10.84 10.84 0 0 1 1.47 2.114c.404-.454 1.72-1.183 5.37-.333-.03-.05-.09-.09-.13-.12zm-21.104-14.73l-.01.03v.04c.01.03.01.05 0 .07.182 1.266.364 2.51.577 3.734-.374-3.48.263-3.875.718-3.763-.41-.99-.83-2.033-1.17-2.782-.03.93-.06 1.81-.11 2.67z"/>
        <path class="st2" d="M42.124 58.975c.1.07.223.162.324.243-.01.05 0 .1 0 .142l-.324-.385z"/>
        <path class="st3" d="M96.54 96.366c-.01-.02-.03-.04-.04-.06-.01-.03-.03-.062-.03-.062-.05-.07-.09-.132-.12-.202a11.58 11.58 0 0 1-.324-.496c-.96-1.194-2.185-2.468-4.026-2.62-.97.05-1.467.233-2.033-.02-.567-.192-1.062-.678-1.558-1.224-1.02-1.062-1.86-2.297-3.12-3.36a4.293 4.293 0 0 0-2.35-.88c-.82-.07-1.58-.01-2.33.062-1.488.11-2.945.172-4.41.1-1.498-.1-2.945-.17-4.088-.89-1.153-.677-1.95-1.9-2.67-3.176-.72-1.305-1.397-2.67-2.277-3.935a13.36 13.36 0 0 0-3.247-3.288c-1.244-.93-2.7-1.568-4.087-2.084l-4.15-1.7c-2.7-1.19-5.46-2.4-7.84-4.11-1.192-.87-2.274-1.87-2.59-3.28-.433-1.453-.89-2.87-1.566-4.26l-1.24-1.52-.325-.38c-.07-.08-.13-.11-.21-.17a15.733 15.733 0 0 0-.82-.66c.242 2.72.576 5.433 1.092 8.124l.03.21c.314 1.52.617 3.045 1.346 4.51.18.356.434.74.82 1.004.302.212.716.405 1.1.546.75.28 1.53.423 2.297.575 1.53.282 3.046.454 4.513.81 1.47.362 2.927.87 3.938 1.95.97 1.05 1.605 2.5 2.282 3.864.657 1.388 1.324 2.794 2.154 4.12.82 1.345 1.79 2.61 2.963 3.65 1.175 1.073 2.64 1.893 4.078 2.4a21.36 21.36 0 0 0 4.584 1.214c1.555.202 3.133.202 4.67.212 1.498.04 2.985.16 4.31.8 1.397.583 2.45 1.463 3.42 2.7.556.604 1.295 1.16 2.165 1.393.76.213 1.67.274 2.428.254 1.487-.04 2.974-.264 4.43-.578.487.45 1.003.9 1.56 1.3.16.12.323.223.555.334.08.04.1.06.252.09 0 0 1.437.95 2.934.485-.163 0-1.245-.07-2.48-1.76zm-7.272-.89c-.202.01-.405-.01-.587-.02a6.314 6.314 0 0 1-1.56-.202c-.625-.162-1.172-.546-1.67-1.093-.07-.1-.16-.21-.26-.3-.89-1.08-2.164-2.1-3.5-2.63-1.162-.53-2.447-.74-3.67-.79-.365-.02-.71-.04-1.053-.03-1.56 0-3.045.01-4.542-.18-1.496-.16-2.983-.55-4.37-1.07a11.576 11.576 0 0 1-3.884-2.222 11.937 11.937 0 0 1-1.66-1.76 16.985 16.985 0 0 1-1.183-1.69c-.81-1.294-1.49-2.66-2.167-4.046-.316-.627-.63-1.285-.99-1.922-.408-.737-.87-1.445-1.48-2.112-.99-1.032-2.327-1.588-3.65-1.973-.02 0-.02 0-.04-.01-.02 0-.07-.01-.09-.01a.298.298 0 0 0-.094-.02.24.24 0 0 1-.08-.02c-.03 0-.07-.01-.09-.01a.298.298 0 0 0-.09-.02.656.656 0 0 1-.092-.02c-1.355-.324-2.74-.465-4.066-.72l-.02-.01c-.16 0-.344-.04-.496-.07-.73-.132-1.477-.273-2.185-.546-.317-.154-.61-.275-.95-.528-.277-.144-.45-.427-.62-.76-.19-.426-.385-.87-.517-1.357-.304-.95-.517-1.97-.72-2.972-.01-.05-.01-.1-.02-.15a132.44 132.44 0 0 1-.576-3.733c.01-.02.01-.04 0-.072v-.04l.01-.03c.05-.86.08-1.74.11-2.67.342.75.76 1.79 1.172 2.78.444 1.135.88 2.228 1.05 2.875.213.96.74 1.79 1.387 2.46.446.473.92.86 1.397 1.232a20.92 20.92 0 0 0 2.68 1.69c1.71.97 3.51 1.77 5.273 2.58l1.97.85 2.186.92c1.403.548 2.69 1.135 3.872 2.015.04.03.1.07.133.12 1.112.8 2.063 1.83 2.822 2.985.83 1.204 1.466 2.52 2.194 3.865.437.77.9 1.567 1.5 2.275.423.516.91.97 1.505 1.335a6.365 6.365 0 0 0 2.307.85c.78.13 1.53.18 2.277.2a18.77 18.77 0 0 0 2.173.02c.8 0 1.59-.06 2.378-.14 1.52-.122 2.926-.224 3.958.616 1.053.86 1.933 2.126 2.985 3.218.27.286.554.59.89.88.29.236.645.468 1.07.64.233.09.465.154.72.164.66.05 1.274-.08 1.67-.08.656.03 1.303.343 1.9.818l-.14.04c-1.46.325-2.998.558-4.475.618z"/>
        <path class="st2" d="M41.01 57.296l.052.152a.758.758 0 0 0-.05-.08c.01-.02 0-.042 0-.072zm-21.456-39.98c0 .02 0 .02.02.05l-.03-.01c.01-.02.01-.02.01-.04z"/>
        <path class="st4" d="M39.514 9.444c-4.198 1.86-9.813 4.32-15.337 6.93-.607.283-1.224.546-1.83.85a379.02 379.02 0 0 0 4.45 10.45 359.94 359.94 0 0 0 2.398 5.312c6.99.79 11.604-1.447 13.425-3.207.304-2.79.627-5.52.97-8.15.608-4.81 1.347-9.27 1.954-13.09.1-.64.192-1.29.314-1.887-1.104.476-3.37 1.467-6.344 2.782zM19.96 18.327c-.072.03-.153.08-.224.12-.132.062-.253.112-.384.173-.12.05-.223.12-.354.192-1.002.465-1.983.95-2.964 1.406-1.69.8-3.278 1.578-4.755 2.276a13.53 13.53 0 0 0 3.67 4.907.825.825 0 0 0 .21.21c.08.06.13.11.21.17 1.29 1.05 2.89 2.016 4.862 2.826a36.987 36.987 0 0 0 5.807 1.86c-.668-1.436-1.325-2.882-1.993-4.34-1.436-3.296-2.81-6.645-4.096-9.79zm.454-5.887c.293.738.587 1.466.88 2.204.81-.395 1.598-.8 2.408-1.194 2.68-1.254 5.362-2.49 7.9-3.58a120.93 120.93 0 0 1 7.062-2.834 67.076 67.076 0 0 1 5.3-1.76 215.89 215.89 0 0 1-13.21-.698 233.335 233.335 0 0 1-14.033-1.65l.68 1.822 3.02 7.69zm-1.467 3.388c-1.174-3.015-2.195-5.847-3.096-8.306-.35-.93-.65-1.84-.94-2.67a222.62 222.62 0 0 1-3.84 7.394c-.31.536-.592 1.103-.93 1.64 0 .02 0 .02-.01.04-.2 1.7-.24 3.934.358 6.26 1.63-.88 3.47-1.88 5.433-2.852.99-.504 2.003-1 3.035-1.506z"/>
        <path class="st5" d="M29.195 32.986a364.668 364.668 0 0 0 4.563 9.62c1.254 2.46 2.458 4.928 3.814 7.315 1.032 1.92 2.145 3.8 3.278 5.66 0-1.18.04-2.42.1-3.66.143-4.863.517-10.012.952-15.172.212-2.337.465-4.674.718-6.96-1.82 1.76-6.434 3.996-13.425 3.207zm4.967 14.892c-1.568-2.6-3.328-5.655-5.018-9.044a292.29 292.29 0 0 1-3.096-6.373 37.198 37.198 0 0 1-5.807-1.86c-1.97-.81-3.57-1.77-4.86-2.82-.08-.06-.13-.11-.21-.17-.08-.06-.16-.12-.21-.2a13.572 13.572 0 0 1-3.67-4.905c-.81.395-1.59.75-2.32 1.123-3.024 1.457-5.32 2.58-6.352 3.075 2.75 1.893 5.858 3.987 9.125 6.324.08.04.16.1.244.163.06.03.1.09.163.12.02 0 .04.03.05.06 3.833 2.73 7.86 5.735 11.866 8.76 3.985 3.116 7.98 6.232 11.613 9.277.59.496 1.184 1 1.76 1.477-.334-.454-.668-.98-1.04-1.527-.7-1.023-1.5-2.156-2.23-3.47zM10.48 20.188c-.598-2.327-.557-4.563-.355-6.262-1.993 3.53-3.986 6.95-5.746 9.712 1.1-.658 2.77-1.63 4.84-2.742.4-.222.81-.445 1.25-.708z"/>
        <path class="st6" d="M32.928 43.02a241.01 241.01 0 0 1-4.886-10.207 194.926 194.926 0 0 1-2.114-4.775 333.51 333.51 0 0 1-4.36-10.46c-.172-.335-.283-.67-.405-.993-.04-.05-.05-.1-.07-.152.252-.11.505-.243.788-.374 9.35-4.44 19.57-9.19 23.81-10.79h-1.12l-.02-.01h-.03c-.19.1-.432.16-.685.27-1.222.47-2.91 1.2-4.932 2.1-2.034.85-4.38 1.96-6.88 3.114-2.53 1.143-5.18 2.428-7.85 3.703-.83.395-1.66.79-2.457 1.184-.282.133-.535.264-.79.375a13.785 13.785 0 0 1-.382-.988 63.468 63.468 0 0 1-.91-2.276L16.67 5.01l-.78-2.133c-.08.192-.18.374-.273.567.73 2.084 2.257 6.212 4.503 11.786.12.325.243.65.384.97-.1.05-.19.09-.292.144h-.01c-.12.07-.243.12-.344.16-.183.08-.355.163-.527.244a798.294 798.294 0 0 1-8.66 4.135c-.403.19-.78.373-1.15.555-2.287 1.072-4.17 1.932-5.32 2.47-.144.272-.306.515-.467.76-.03.04-.06.1-.09.14 1.102-.525 3.722-1.79 7.192-3.46 2.53-1.243 5.52-2.67 8.67-4.177.04-.01.1-.05.14-.06l.01-.02c.09-.03.22-.102.32-.153.1-.04.224-.09.355-.16l.02-.01h.02c.1-.05.2-.1.3-.153.02.05.03.1.07.152.12.322.26.645.404.99 1.8 4.37 3.997 9.46 6.607 15.002a365.118 365.118 0 0 0 10.52 20.81c.307.262.6.515.89.78-.78-1.337-1.575-2.673-2.324-4.028-1.385-2.39-2.63-4.85-3.904-7.318z"/>
        <path class="st2" d="M2.61 26.693c-.153.08-.274.132-.355.182.01-.04.03-.06.06-.06.072-.052.153-.102.234-.163.01.01.03.03.06.04z"/>
        <path class="st7" d="M45.685 5.276C41.445 6.874 31.228 11.63 21.88 16.06c-.282.13-.535.263-.788.374.02.05.03.1.07.152.254-.13.527-.263.78-.374.577-.283 1.184-.556 1.76-.84a272.3 272.3 0 0 1 8.255-3.632c2.65-1.143 5.16-2.084 7.324-2.893 2.16-.83 3.98-1.396 5.26-1.84.557-.173.99-.315 1.336-.436.06-.44.15-.89.223-1.28-.13 0-.273-.01-.405-.01zM21.142 17.77c-.142-.344-.283-.668-.405-.99-.04-.052-.05-.102-.07-.153-.102.05-.203.1-.304.152h-.02l-.02.01c-.132.07-.253.12-.354.16-.11.05-.24.12-.33.15l-.01.02c-.04.01-.1.05-.14.06-3.15 1.51-6.14 2.93-8.67 4.18L3.62 24.82a47.38 47.38 0 0 1-1.185 1.77c.02 0 .06.03.1.06a145.04 145.04 0 0 1 6.132-3.6c.707-.39 1.476-.81 2.296-1.28a172.85 172.85 0 0 1 4.633-2.45c1.264-.647 2.6-1.285 3.914-1.953l.02-.02c.01-.02.01-.02.01-.04l.01-.02-.01.02c0 .02 0 .02.02.05.1-.05.22-.12.32-.17.1-.05.224-.09.335-.163.07-.04.12-.07.202-.1.143.323.284.667.426.99 1.324 3.156 2.73 6.475 4.22 9.732.757 1.72 1.505 3.42 2.264 5.067.89 1.955 1.77 3.836 2.66 5.657 1.65 3.4 3.23 6.557 4.696 9.177.708 1.348 1.426 2.51 2.023 3.58.54.9.994 1.68 1.42 2.33l.02.03c.04.03.08.065.11.095a364.46 364.46 0 0 1-10.52-20.81 333.812 333.812 0 0 1-6.606-15.002zm-1.355-2.387c.142.334.263.647.405.97h.01c.1-.05.192-.09.293-.14-.142-.325-.263-.65-.384-.972-2.24-5.57-3.77-9.7-4.5-11.78-.13.247-.25.52-.39.79.367.94.77 1.95 1.227 3.048.99 2.408 2.145 5.15 3.35 8.094z"/>
        <path class="st2" d="M2.447 26.592c.02 0 .06.03.1.06-.08.062-.16.112-.232.163.03-.08.09-.142.132-.223z"/>
        <path class="st8" d="M46.343 3.85a648.666 648.666 0 0 0-15.398-1.497c-5.068-.435-10.126-.8-14.315-1.022a4.614 4.614 0 0 0-.526 0 7.186 7.186 0 0 0-.81-.04 2.48 2.48 0 0 0-.454-.04c-.172.29-.334.58-.536.88-.06.11-.132.23-.202.36v.02l-.02-.01c-1.598 2.63-3.318 5.65-4.988 8.67a223.458 223.458 0 0 0-4.39 8.46 300.326 300.326 0 0 0-2.126 4.43 53.955 53.955 0 0 0-.88 2.006c-.202.445-.364.85-.526 1.234.182.12.334.263.516.395 2.72 2.092 5.746 4.47 9.014 7.01l.02.01c.08.06.142.11.223.17.08.06.142.12.223.16l-.01.02A3412.37 3412.37 0 0 1 22.69 43.93c4 3.075 8 6.14 11.73 9.023 2.26 1.75 4.41 3.42 6.427 4.986.08.06.153.14.254.21.285.21.538.413.82.656.08.06.14.09.21.172.1.07.226.16.327.24.05-.61.07-1.217.12-1.834.1-1.74.234-3.52.355-5.372.13-2.408.394-4.896.555-7.426.18-2.53.455-5.09.668-7.66a36489.2 36489.2 0 0 1 2.65-28.237c.113-1.214.214-2.337.306-3.42.04-.454.08-.9.11-1.334l-.87-.09zM41.01 57.296l.052.152a.758.758 0 0 0-.05-.08c.01-.02 0-.042 0-.072zM45.868 6.57c0 .02-.01.052-.01.092-.12.597-.212 1.244-.314 1.882-.607 3.824-1.346 8.286-1.953 13.09a388.67 388.67 0 0 0-.97 8.145 354.63 354.63 0 0 0-.72 6.96c-.43 5.15-.8 10.3-.95 15.17a76.79 76.79 0 0 0-.1 3.66c-.02.09-.01.18-.01.27a197.21 197.21 0 0 0-1.68-1.488 41.32 41.32 0 0 0-.89-.78c-.03-.03-.07-.06-.11-.09l-.02-.03c-.24-.183-.45-.385-.71-.588a195.19 195.19 0 0 1-1.76-1.478c-3.63-3.046-7.62-6.16-11.61-9.278-4-3.026-8.03-6.03-11.86-8.76-.01-.03-.03-.06-.05-.06-.06-.03-.1-.094-.163-.124a1.71 1.71 0 0 0-.242-.163c-3.267-2.335-6.372-4.43-9.124-6.32-.153.08-.274.132-.355.182.01-.04.03-.06.06-.06.03-.082.093-.143.134-.224.374-.526.76-1.113 1.184-1.77.03-.04.06-.1.09-.14a7.87 7.87 0 0 0 .465-.76c.08-.1.152-.183.192-.284 1.76-2.76 3.755-6.18 5.748-9.71.01-.02.01-.02.01-.04.333-.535.616-1.1.93-1.64a216.176 216.176 0 0 0 3.84-7.39c.113-.2.225-.413.306-.605.14-.273.262-.546.394-.79.09-.19.195-.373.276-.566 0-.02.03-.06.04-.09.263.05.536.08.8.13a233.93 233.93 0 0 0 14.03 1.65c4.623.39 9.247.602 13.212.693.182-.01.364 0 .546-.01h.03l.02.01H45.7c.13 0 .272.01.404.01-.07.394-.16.84-.223 1.284z"/>
    </g>
    <path class="st9" d="M38.138 53.462c-.425-.647-.88-1.426-1.416-2.327-.597-1.072-1.315-2.236-2.023-3.58-1.47-2.62-3.05-5.778-4.7-9.177-.89-1.82-1.77-3.703-2.66-5.655-.76-1.65-1.51-3.35-2.27-5.068-1.488-3.258-2.894-6.576-4.22-9.732-.14-.324-.28-.668-.425-.99-.08.03-.13.06-.2.1-.11.07-.234.11-.335.162-.074.038-.16.084-.24.128l-.085.043.33-.17-.34.166-.017-.005-.02.02-.136.067-16.1 7.88-.895 1.306.054-.034-.2.28 14.2-6.856c.847-.398 1.69-.808 2.55-1.208.13-.07.23-.142.353-.192.135-.06.256-.11.387-.172.07-.04.15-.09.22-.12 1.283 3.145 2.66 6.494 4.095 9.792.25.55.5 1.09.75 1.638 4.81 10.754 11.11 21.895 11.11 21.895l2.24 1.84-.03-.037.01.006zm-18.513-40.71c.283.76.597 1.53.91 2.277.122.34.244.65.385.98.253-.11.506-.25.79-.38.798-.398 1.628-.79 2.457-1.187L27.187 13l17.887-7.84-2.42.113s-3.562 1.323-9.487 3.923c-.516.217-1.035.438-1.564.67-2.54 1.094-5.22 2.328-7.9 3.582-.81.395-1.6.8-2.41 1.194-.292-.74-.586-1.467-.88-2.205L17.4 4.75l-.68-1.82c-.262-.052-.535-.082-.798-.133-.01.03-.04.07-.04.09l.78 2.136 2.963 7.73zm.565 3.602L15.44 3.798l-.225.448v-.002a6.61 6.61 0 0 1-.305.607c.283.83.587 1.74.94 2.68.9 2.46 1.923 5.29 3.097 8.307-1.032.506-2.044 1-3.035 1.507-1.963.97-3.804 1.973-5.433 2.853-.45.26-.85.484-1.26.706a121.48 121.48 0 0 0-4.75 2.685l-.13.07-.14.235c-.01.012-.013.023-.023.036h.005l-.226.39 16.225-7.956z"/>
    <path class="st9" d="M32.313 11.592c-.12.05-.235.097-.356.15a272.3 272.3 0 0 0-8.255 3.63c-.577.284-1.184.557-1.76.84a14.96 14.96 0 0 0-.78.375c.122.324.234.658.406.992a336.94 336.94 0 0 0 4.36 10.46 198.824 198.824 0 0 0 2.114 4.77 241.65 241.65 0 0 0 4.886 10.21c1.275 2.47 2.52 4.922 3.905 7.31.75 1.355 1.548 2.69 2.327 4.025.567.497 1.133 1.003 1.68 1.49 0-.09-.01-.185.01-.276-1.134-1.86-2.247-3.743-3.28-5.655-1.355-2.39-2.56-4.857-3.813-7.315a364.668 364.668 0 0 1-4.563-9.62c-.81-1.76-1.62-3.54-2.398-5.31a373.415 373.415 0 0 1-4.45-10.45l17.55-7.95a814.89 814.89 0 0 1 5.96-2.612c0-.04.01-.07.01-.09l.206-1.144-13.76 6.162z"/>
</svg>
