<?xml version="1.0" encoding="utf-8"?>
<!-- Generator: Adobe Illustrator 19.2.0, SVG Export Plug-In . SVG Version: 6.00 Build 0)  -->
<svg version="1.1" id="Layer_2" xmlns="http://www.w3.org/2000/svg" xmlns:xlink="http://www.w3.org/1999/xlink" x="0px" y="0px"
	 viewBox="0 0 100 100" style="enable-background:new 0 0 100 100;" xml:space="preserve">
<style type="text/css">
	.st0{fill:#787C87;stroke:#787C87;stroke-width:0.04;stroke-miterlimit:10;}
	.st1{fill:#B3BBC4;stroke:#BAC2CE;stroke-width:0.04;stroke-miterlimit:10;}
	.st2{fill:#F9F9F9;stroke:#F9F9F9;stroke-width:0.04;stroke-miterlimit:10;}
	.st3{fill:#D1D9E5;}
</style>
<g>
	<path class="st0" d="M96.68,53.72c-0.3-0.78-0.56-1.57-0.82-2.3c-0.24-0.74-0.46-1.43-0.65-2.02c-0.09-0.31-0.17-0.59-0.25-0.83
		c0-0.04,0-0.08,0-0.12c0-0.04-0.01-0.09-0.01-0.13c-0.09-1.54-0.66-3.05-1.5-4.31c-1.71-2.56-4.21-4.39-6.83-5.89
		c-5.31-2.97-11.33-4.74-17.5-5.92c-6.18-1.15-12.55-1.7-18.92-1.72c-6.37,0-12.75,0.56-18.93,1.71c-6.16,1.18-12.19,2.92-17.5,5.91
		c-2.62,1.5-5.13,3.33-6.84,5.9c-0.2,0.32-0.38,0.66-0.57,0.99c-0.16,0.36-0.33,0.7-0.46,1.06c-0.11,0.38-0.26,0.72-0.32,1.14
		c-0.07,0.35-0.13,0.7-0.14,1c-0.05,0.12-0.09,0.26-0.14,0.41c-0.08,0.25-0.18,0.53-0.28,0.84c-0.21,0.61-0.45,1.33-0.71,2.1
		c-0.26,0.76-0.55,1.58-0.83,2.4c-0.11,0.3-0.22,0.6-0.32,0.9c0.05,1.09,0.33,2.15,0.76,3.1c0.08,0.19,0.17,0.37,0.26,0.54
		c0.17,0.32,0.36,0.63,0.55,0.92c1.41,2.12,3.34,3.64,5.27,4.93c0.1,0.06,0.19,0.13,0.29,0.19c2.33,1.45,4.73,2.57,7.08,3.47
		c4.72,1.78,9.21,2.83,13.21,3.56c4.01,0.72,7.54,1.1,10.45,1.32c2.91,0.23,5.21,0.27,6.78,0.31c1.55,0.02,2.39,0.02,2.39,0.02
		s0.83,0,2.4-0.02c1.56-0.04,3.85-0.08,6.76-0.31c2.91-0.22,6.44-0.6,10.45-1.32c4.01-0.73,8.5-1.79,13.21-3.57
		c2.15-0.82,4.33-1.82,6.46-3.1c0.21-0.12,0.41-0.24,0.62-0.37c2.29-1.5,4.63-3.32,6.1-6.04c0.09-0.18,0.18-0.36,0.26-0.54
		c0.4-0.88,0.67-1.85,0.74-2.83C97.03,54.65,96.85,54.19,96.68,53.72z M6.96,48.42c0.05-0.73,0.23-1.44,0.52-2.12
		c0.2-0.49,0.47-0.97,0.78-1.43c0.23-0.34,0.49-0.67,0.76-0.98c1.47-1.73,3.47-3.12,5.59-4.29c0.57-0.3,1.14-0.59,1.73-0.87
		c4.67-2.23,9.92-3.67,15.28-4.67c6.05-1.1,12.32-1.58,18.58-1.59c6.26-0.02,12.53,0.48,18.58,1.58c4.52,0.85,8.96,1.98,13.04,3.65
		c0.01,0,0.01,0,0.02,0.01c1.37,0.56,2.69,1.18,3.96,1.87c1.35,0.74,2.66,1.59,3.81,2.56c0.98,0.81,1.85,1.71,2.54,2.72
		c0.34,0.48,0.61,0.99,0.82,1.52c0.28,0.66,0.44,1.35,0.49,2.04c0.02,0.24,0.02,0.47,0.01,0.7c-0.03,1.02-0.31,1.98-0.77,2.9
		c-1.16,2.24-3.2,3.93-5.25,5.31c-2.1,1.35-4.29,2.42-6.47,3.28c-4.35,1.74-8.57,2.73-12.32,3.44c-3.77,0.7-7.09,1.08-9.83,1.3
		c-2.74,0.23-4.9,0.28-6.37,0.33c-1.48,0.02-2.26,0.03-2.26,0.03s-0.79-0.01-2.27-0.03c-1.46-0.05-3.62-0.1-6.37-0.33
		c-2.74-0.22-6.06-0.6-9.82-1.3c-3.75-0.71-7.97-1.71-12.32-3.45c-2.17-0.87-4.37-1.93-6.46-3.28c-2.05-1.38-4.09-3.07-5.25-5.31
		c-0.46-0.9-0.73-1.89-0.76-2.89C6.94,48.89,6.94,48.65,6.96,48.42z M5.63,58.06c-0.06-0.09-0.11-0.17-0.15-0.26
		c-0.3-0.58-0.52-1.19-0.66-1.82c0.19-0.45,0.37-0.91,0.54-1.37c0.29-0.85,0.57-1.71,0.76-2.53c0.09,0.2,0.19,0.4,0.29,0.6
		c0.18,0.32,0.37,0.63,0.57,0.93c0.53,0.8,1.15,1.5,1.81,2.15c0,0.01-0.05,0.37-0.17,0.91c-0.09,0.38-0.22,0.84-0.39,1.31
		c-0.07,0.21-0.16,0.43-0.25,0.64c-0.23,0.59-0.52,1.14-0.81,1.58C6.58,59.54,6.05,58.84,5.63,58.06z M12.25,64.14
		c-0.05-0.03-0.11-0.06-0.16-0.1c-0.01,0-0.01,0-0.01,0c-0.36-0.22-0.72-0.43-1.07-0.65c-1.18-0.79-2.35-1.69-3.37-2.72
		c0.22-0.16,0.45-0.37,0.65-0.63c0.26-0.3,0.44-0.67,0.61-1.04c0.05-0.12,0.09-0.24,0.13-0.36c0.02-0.07,0.04-0.15,0.07-0.22
		c0.06-0.19,0.07-0.39,0.11-0.57c0.05-0.38,0.04-0.74,0-1.05c-0.05-0.39-0.16-0.68-0.24-0.86c1.03,0.97,2.15,1.78,3.26,2.51
		c0.48,0.3,0.96,0.57,1.44,0.84c-0.03,0.49-0.11,1.3-0.31,2.13c-0.04,0.16-0.09,0.32-0.14,0.48c-0.2,0.76-0.52,1.48-0.82,1.99
		c-0.03,0.05-0.06,0.1-0.09,0.15C12.29,64.08,12.27,64.11,12.25,64.14z M19.05,67.3c-0.41-0.15-0.82-0.3-1.23-0.46
		c-1.72-0.69-3.46-1.49-5.16-2.45c0.09-0.06,0.17-0.11,0.26-0.19c0.06-0.05,0.12-0.1,0.18-0.16c0.19-0.19,0.38-0.43,0.55-0.7
		c0.23-0.34,0.39-0.75,0.53-1.16c0.02-0.1,0.05-0.2,0.07-0.3c0.02-0.11,0.04-0.22,0.06-0.33c0.05-0.2,0.04-0.42,0.05-0.62
		c0.01-0.4-0.04-0.77-0.12-1.09c-0.03-0.11-0.06-0.19-0.09-0.29c1.6,0.86,3.22,1.59,4.82,2.2c0.53,0.2,1.06,0.39,1.58,0.57
		c-0.03,0.51-0.09,1.27-0.28,2.05c-0.03,0.13-0.07,0.27-0.11,0.4c0,0.01,0,0.02-0.01,0.03c-0.18,0.75-0.48,1.47-0.77,1.97
		C19.25,66.99,19.14,67.17,19.05,67.3z M26.96,69.66c-2.42-0.57-4.96-1.28-7.56-2.22c0.15-0.09,0.32-0.2,0.5-0.36
		c0.26-0.23,0.51-0.53,0.72-0.88c0.23-0.35,0.38-0.76,0.5-1.17c0-0.02,0.01-0.03,0.01-0.05c0.03-0.1,0.05-0.21,0.06-0.31
		c0.02-0.09,0.04-0.18,0.05-0.27c0.05-0.21,0.03-0.42,0.04-0.62c0-0.4-0.05-0.78-0.14-1.09c-0.02-0.08-0.05-0.13-0.07-0.2
		c2.6,0.88,5.11,1.54,7.48,2.06c-0.02,0.47-0.09,1.22-0.28,2.02c-0.05,0.19-0.1,0.39-0.16,0.58c-0.19,0.76-0.51,1.48-0.81,1.99
		C27.17,69.35,27.06,69.52,26.96,69.66z M35.46,71.2c-1.48-0.2-3.02-0.44-4.67-0.74c-1.1-0.21-2.24-0.44-3.41-0.71
		c0.14-0.08,0.28-0.17,0.43-0.3c0.26-0.22,0.52-0.52,0.74-0.87c0.23-0.34,0.39-0.75,0.52-1.16c0.05-0.21,0.1-0.42,0.13-0.63
		c0-0.01,0-0.01,0-0.02h0.01c0.04-0.19,0.02-0.41,0.04-0.6c0-0.4-0.04-0.77-0.13-1.09c-0.04-0.17-0.09-0.31-0.14-0.44
		c0.87,0.18,1.73,0.35,2.56,0.5c1.73,0.31,3.35,0.55,4.88,0.74c0.02,0.36,0.05,1.16-0.05,2.06c-0.03,0.28-0.07,0.57-0.13,0.86
		c-0.12,0.77-0.36,1.52-0.61,2.06C35.57,70.98,35.51,71.1,35.46,71.2z M44.42,69.49c-0.03,0.76-0.08,1.53-0.18,2.09
		c-0.03,0.17-0.06,0.32-0.1,0.45c-0.91-0.05-1.92-0.12-3.02-0.21c-1.54-0.12-3.26-0.3-5.12-0.54c0.06-0.06,0.11-0.1,0.17-0.16
		c0.24-0.24,0.47-0.56,0.65-0.93c0.19-0.37,0.31-0.79,0.41-1.21c0.02-0.22,0.05-0.43,0.06-0.64c0.01-0.09,0.01-0.19,0.01-0.28
		c0-0.11-0.01-0.23-0.02-0.34c-0.03-0.4-0.12-0.77-0.23-1.08c-0.11-0.31-0.24-0.55-0.35-0.72c1.73,0.22,3.34,0.37,4.78,0.48
		c1.1,0.08,2.1,0.14,3.01,0.18c0.01,0.32,0.01,1.14-0.03,2.07C44.45,68.92,44.44,69.21,44.42,69.49z M52.58,72.17
		c-1.55,0.02-2.38,0.03-2.38,0.03s-0.83-0.01-2.38-0.03c-0.86-0.03-1.94-0.06-3.23-0.12c0.09-0.11,0.17-0.22,0.24-0.36
		c0.17-0.28,0.3-0.62,0.4-0.99c0.11-0.37,0.15-0.77,0.19-1.16c-0.01-0.2-0.01-0.4-0.01-0.59c0-0.09-0.01-0.18-0.02-0.27
		c-0.01-0.1-0.03-0.2-0.04-0.3c-0.05-0.37-0.14-0.71-0.25-1c-0.13-0.36-0.29-0.63-0.39-0.79c1.28,0.05,2.36,0.08,3.21,0.1
		c1.48,0.01,2.28,0.02,2.28,0.02s0.79-0.01,2.28-0.02c0.38-0.01,0.82-0.02,1.29-0.03c-0.01,0.17-0.03,0.44-0.04,0.77
		c-0.01,0.37-0.01,0.83,0.01,1.31c0.01,0.3,0.03,0.62,0.06,0.93c0.11,0.94,0.31,1.84,0.47,2.45C53.64,72.14,53.07,72.15,52.58,72.17
		z M59.28,71.82c-1.74,0.15-3.26,0.23-4.54,0.28c0.02-0.11,0.04-0.23,0.06-0.35c0.03-0.32,0.06-0.67,0.05-1.04
		c0.01-0.37-0.03-0.76-0.05-1.14c-0.03-0.2-0.06-0.39-0.08-0.58c-0.01-0.09-0.03-0.19-0.05-0.28c-0.02-0.09-0.05-0.18-0.06-0.27
		c-0.08-0.36-0.17-0.7-0.28-1c-0.11-0.34-0.23-0.61-0.32-0.79c1.33-0.04,2.97-0.11,4.91-0.26c1.16-0.08,2.44-0.21,3.79-0.36
		c-0.02,0.18-0.05,0.42-0.07,0.72c-0.03,0.39-0.03,0.86,0.01,1.36c0.02,0.29,0.06,0.59,0.11,0.89c0.16,0.8,0.44,1.58,0.71,2.13
		c0.04,0.1,0.08,0.17,0.12,0.25C62.04,71.57,60.59,71.72,59.28,71.82z M69.61,70.46c-1.98,0.37-3.84,0.65-5.57,0.87
		c-0.01-0.14-0.01-0.29-0.03-0.45c-0.02-0.3-0.05-0.64-0.1-0.99c-0.04-0.35-0.12-0.71-0.17-1.08c-0.07-0.27-0.11-0.54-0.16-0.81
		c-0.03-0.08-0.05-0.17-0.07-0.25c-0.08-0.35-0.17-0.68-0.27-0.97c-0.1-0.32-0.2-0.59-0.27-0.78c1.81-0.21,3.77-0.48,5.89-0.86
		c0.58-0.11,1.18-0.22,1.78-0.34c-0.02,0.16-0.05,0.35-0.06,0.58c-0.03,0.42-0.03,0.95,0.05,1.5c0.02,0.24,0.07,0.48,0.13,0.72
		c0.11,0.39,0.25,0.78,0.43,1.12c0.17,0.34,0.36,0.64,0.55,0.88c0.11,0.15,0.21,0.26,0.31,0.37C71.22,70.14,70.4,70.31,69.61,70.46z
		 M72.4,69.89c-0.05-0.18-0.11-0.4-0.17-0.65c-0.08-0.27-0.16-0.58-0.25-0.91c-0.05-0.15-0.08-0.32-0.13-0.48
		c-0.05-0.16-0.09-0.33-0.12-0.5c-0.07-0.21-0.12-0.43-0.18-0.65c-0.03-0.12-0.06-0.24-0.1-0.35c-0.08-0.33-0.18-0.65-0.27-0.94
		c-0.08-0.26-0.17-0.5-0.23-0.68c2.18-0.45,4.49-1.02,6.89-1.76c0.01,0.16,0.03,0.36,0.06,0.6c0.05,0.41,0.14,0.92,0.29,1.44
		c0.01,0.04,0.02,0.08,0.03,0.12c0.07,0.22,0.14,0.43,0.23,0.65c0.18,0.38,0.37,0.76,0.6,1.08c0.11,0.16,0.21,0.32,0.34,0.45
		c0.12,0.13,0.22,0.27,0.34,0.37c0.06,0.06,0.11,0.1,0.17,0.15C77.31,68.71,74.79,69.37,72.4,69.89z M82.58,66.85
		c-0.75,0.3-1.49,0.57-2.23,0.82c-0.06-0.12-0.12-0.26-0.19-0.42c-0.07-0.12-0.11-0.28-0.19-0.42c-0.07-0.14-0.11-0.31-0.19-0.46
		c-0.08-0.14-0.11-0.32-0.2-0.47c-0.08-0.16-0.13-0.34-0.2-0.5c-0.07-0.15-0.13-0.3-0.19-0.45c-0.01-0.02-0.02-0.04-0.03-0.06
		c-0.02-0.06-0.04-0.11-0.07-0.17c-0.05-0.11-0.11-0.21-0.15-0.32c-0.15-0.33-0.29-0.65-0.45-0.92c-0.12-0.24-0.24-0.44-0.34-0.61
		c1.07-0.34,2.17-0.71,3.27-1.13c0.93-0.36,1.86-0.76,2.8-1.19c-0.01,0.15-0.01,0.34,0,0.57c0.02,0.44,0.12,0.99,0.31,1.54
		c0.06,0.17,0.13,0.35,0.21,0.52c0.2,0.4,0.46,0.77,0.71,1.08c0.21,0.23,0.41,0.44,0.6,0.6c0.11,0.11,0.22,0.19,0.32,0.27
		C85.11,65.77,83.84,66.35,82.58,66.85z M89.39,63.4c-0.54,0.35-1.08,0.67-1.63,0.98c-0.35,0.19-0.71,0.38-1.06,0.57
		c-0.02-0.06-0.05-0.11-0.08-0.17c-0.06-0.11-0.1-0.25-0.17-0.37c-0.02-0.05-0.05-0.1-0.07-0.15c-0.1-0.21-0.21-0.43-0.33-0.65
		c-0.12-0.29-0.29-0.57-0.41-0.86c-0.09-0.16-0.17-0.33-0.24-0.49c-0.06-0.13-0.12-0.25-0.18-0.37c-0.13-0.29-0.27-0.56-0.39-0.82
		c-0.13-0.25-0.25-0.48-0.34-0.65c1.23-0.58,2.46-1.23,3.67-1.99c0.4-0.26,0.8-0.54,1.2-0.82c0,0.05,0.01,0.1,0.02,0.16
		c0.08,0.54,0.3,1.23,0.67,1.86c0.02,0.06,0.06,0.13,0.1,0.19c0.43,0.68,0.99,1.26,1.46,1.64c0.06,0.05,0.12,0.1,0.18,0.14
		C91.02,62.26,90.21,62.85,89.39,63.4z M94.93,57.81c-0.69,1.33-1.67,2.47-2.78,3.47C92.1,61.19,92.05,61.1,92,61
		c-0.07-0.13-0.14-0.27-0.23-0.4c-0.07-0.14-0.15-0.3-0.25-0.43c-0.09-0.14-0.15-0.3-0.26-0.44c-0.1-0.14-0.18-0.29-0.27-0.43
		c-0.05-0.08-0.1-0.16-0.15-0.24c-0.32-0.51-0.63-1.01-0.87-1.4c-0.07-0.12-0.14-0.24-0.21-0.34c1.19-0.9,2.33-1.94,3.27-3.2
		c0.13,0.51,0.34,1.23,0.67,1.91c0.05,0.09,0.1,0.18,0.15,0.27c0.29,0.51,0.63,0.97,0.94,1.29c0.06,0.06,0.11,0.11,0.16,0.16
		C94.95,57.77,94.94,57.79,94.93,57.81z M95.22,57.16c-0.07-0.24-0.16-0.49-0.26-0.75c-0.07-0.12-0.1-0.28-0.17-0.41
		s-0.13-0.27-0.19-0.41l-0.22-0.41c-0.06-0.14-0.17-0.26-0.24-0.39c-0.16-0.26-0.32-0.5-0.5-0.71c-0.11-0.14-0.21-0.25-0.31-0.36
		c0.23-0.33,0.44-0.68,0.64-1.04c0.06-0.11,0.12-0.23,0.17-0.35c0.18,0.69,0.41,1.39,0.66,2.08c0.23,0.61,0.48,1.2,0.75,1.77
		C95.47,56.51,95.35,56.84,95.22,57.16z"/>
	<path class="st0" d="M13.19,50.98c1.42,1.95,3.39,3.13,5.27,4.1c1.9,0.97,3.84,1.66,5.71,2.25c3.75,1.15,7.28,1.82,10.41,2.27
		c3.14,0.46,5.9,0.69,8.17,0.82c2.26,0.15,4.05,0.17,5.27,0.19c1.21,0.01,1.86,0.01,1.86,0.01s0.65,0,1.87-0.01
		c1.22-0.02,3.01-0.05,5.27-0.19c2.27-0.14,5.03-0.36,8.17-0.82c3.13-0.46,6.66-1.13,10.41-2.28c1.87-0.59,3.8-1.27,5.71-2.24
		c1.88-0.98,3.85-2.16,5.27-4.11c0.35-0.48,0.62-1.04,0.83-1.63c0.07-0.31,0.18-0.69,0.19-0.96l0.03-0.3l0.01-0.12
		c0-0.24-0.02-0.34-0.03-0.52c-0.09-1.31-0.78-2.47-1.58-3.4c-1.66-1.88-3.85-3.08-6.09-4.12c-4.53-2-9.49-3.16-14.56-3.97
		c-5.07-0.79-10.29-1.16-15.49-1.18c-5.22-0.01-10.43,0.39-15.5,1.17c-5.07,0.8-10.04,1.97-14.57,3.97
		c-2.23,1.04-4.43,2.25-6.09,4.12c-0.77,0.9-1.43,1.99-1.56,3.25c-0.01,0.05-0.02,0.11-0.02,0.17c-0.08,0.63,0.04,1.29,0.2,1.89
		C12.56,49.93,12.83,50.5,13.19,50.98z M13.91,50.07c-0.47-0.77-0.73-1.64-0.63-2.54c0.07-0.97,0.62-1.92,1.33-2.73
		c1.47-1.63,3.56-2.79,5.72-3.76c4.12-1.78,8.7-2.87,13.38-3.6c0.29-0.05,0.59-0.1,0.88-0.14c0.17-0.03,0.34-0.05,0.51-0.07
		c0.14-0.03,0.28-0.05,0.43-0.06c4.7-0.65,9.54-0.91,14.35-0.92c4.42-0.02,8.83,0.21,13.16,0.75c0.32,0.04,0.63,0.08,0.95,0.12
		c0.4,0.05,0.79,0.1,1.19,0.16c4.99,0.75,9.89,1.86,14.27,3.75c2.15,0.97,4.25,2.13,5.71,3.76c0.72,0.82,1.27,1.76,1.34,2.75
		l0.03,0.33L86.5,48.3c-0.02,0.3-0.1,0.46-0.14,0.71c-0.1,0.27-0.21,0.55-0.36,0.81c-0.02,0.04-0.04,0.09-0.07,0.13
		c-0.07,0.14-0.16,0.27-0.25,0.4c-0.17,0.24-0.36,0.48-0.56,0.7c-1.17,1.33-2.74,2.31-4.28,3.11c-1.82,0.94-3.71,1.64-5.53,2.23
		c-3.67,1.16-7.15,1.86-10.25,2.33c-3.11,0.48-5.84,0.73-8.09,0.89s-4.02,0.2-5.23,0.24c-1.21,0.01-1.85,0.02-1.85,0.02
		s-0.65-0.01-1.86-0.02c-1.21-0.04-2.98-0.08-5.23-0.24s-4.98-0.41-8.08-0.89c-3.1-0.48-6.59-1.18-10.25-2.34
		c-1.83-0.59-3.71-1.28-5.53-2.23c-1.8-0.94-3.65-2.12-4.84-3.8c-0.03-0.04-0.05-0.08-0.08-0.12
		C13.98,50.18,13.94,50.13,13.91,50.07z"/>
	<path class="st0" d="M78.15,51.37c3.2,0,6.63-0.51,7.43-1.61c0.03-0.04,0.06-0.08,0.08-0.12c0.07-0.13,0.1-0.26,0.1-0.39
		c0-0.04,0-0.08-0.01-0.12c0,0,0-0.02-0.01-0.04c0-0.03-0.01-0.07-0.02-0.14c-0.03-0.12-0.06-0.29-0.15-0.51
		c-0.13-0.38-0.4-0.89-0.88-1.41c-0.07-0.07-0.14-0.15-0.22-0.23c-0.31-0.3-0.7-0.59-1.13-0.86c-0.44-0.26-0.93-0.51-1.48-0.69
		c-0.55-0.2-1.15-0.3-1.76-0.38c-0.21-0.03-0.42-0.05-0.64-0.06c-0.41-0.02-0.82-0.02-1.2-0.03c-0.59,0-1.18,0.03-1.76,0.08
		c-0.63,0.06-1.26,0.17-1.85,0.34c-1.14,0.3-2.06,0.87-2.7,1.45c-0.33,0.29-0.57,0.6-0.76,0.87c-0.01,0.02-0.02,0.03-0.03,0.05
		c-0.17,0.27-0.3,0.49-0.37,0.72c-0.18,0.44-0.17,0.66-0.19,0.67c-0.03,0.08-0.05,0.17-0.05,0.26c0,0.01,0,0.02,0,0.03
		C70.55,50.7,74.49,51.37,78.15,51.37z M72.65,47.18c0.58-0.49,1.39-0.93,2.34-1.33c0.24-0.11,0.5-0.2,0.77-0.29
		c0.77-0.23,1.63-0.37,2.48-0.36c0.74,0.01,1.44,0.14,2.08,0.32c0.41,0.12,0.79,0.26,1.16,0.41c0.96,0.36,1.77,0.84,2.33,1.34
		c0.11,0.09,0.22,0.19,0.31,0.28c0.17,0.17,0.31,0.33,0.43,0.48c0,0,0,0.01,0.01,0.02c0.07,0.12,0.4,0.73,0.2,1.2
		c0,0.45-2.34,1.31-6.61,1.31c-4.27,0-6.6-0.86-6.6-1.31c-0.21-0.4,0.27-1.24,0.27-1.24c0.01-0.01,0.02-0.03,0.04-0.04
		C72.06,47.72,72.33,47.46,72.65,47.18z"/>
	<path class="st0" d="M33.17,43.99c-0.16,0.38-0.26,0.8-0.28,1.06c-0.54,0.45-1.03,0.95-1.44,1.56l-0.29,0.45
		c-0.08,0.18-0.15,0.38-0.22,0.57c-0.18,0.42-0.18,0.7-0.21,0.99l-0.02,0.11v0.06l-0.01,0.03c0-0.02-0.01,0.11,0,0.13l0.01,0.08
		l0.03,0.2l0.08,0.55c0.1,0.34,0.25,0.67,0.39,0.99c0.7,1.2,1.72,1.94,2.7,2.54c0.98,0.61,2,1.02,2.97,1.39
		c1.97,0.69,3.81,1.11,5.46,1.39c1.64,0.29,3.09,0.42,4.28,0.51c1.21,0.07,2.15,0.11,2.77,0.11c0.64,0.01,0.97,0.01,0.97,0.01h0.01
		c0,0,0.35,0,0.98-0.01c0.64,0,1.58-0.04,2.78-0.11c1.19-0.09,2.63-0.22,4.28-0.52c1.65-0.26,3.49-0.7,5.45-1.39
		c0.98-0.37,1.99-0.79,2.97-1.4c0.98-0.59,2-1.33,2.69-2.53c0.16-0.33,0.32-0.73,0.41-1.06l0.06-0.44L70,49.18l0.02-0.14
		c0.01-0.03,0.02-0.13,0.01-0.13v-0.03l-0.01-0.07l-0.01-0.14c-0.04-0.37-0.07-0.75-0.23-1.09c-0.07-0.17-0.13-0.34-0.21-0.51
		l-0.29-0.45c-0.5-0.75-1.14-1.34-1.83-1.84c-0.03-0.2-0.08-0.39-0.16-0.57c-0.06-0.16-0.11-0.32-0.18-0.46l-0.05-0.08
		c1.49-0.34,2.52-0.88,2.52-1.62c0-0.04,0-0.08-0.01-0.13c0,0,0-0.01-0.01-0.04c0-0.03-0.01-0.07-0.02-0.13
		c-0.03-0.13-0.06-0.3-0.15-0.52c-0.12-0.35-0.38-0.82-0.8-1.32c-0.09-0.11-0.19-0.21-0.3-0.32c-0.31-0.3-0.7-0.58-1.13-0.86
		c-0.44-0.26-0.93-0.51-1.48-0.69c-0.32-0.11-0.66-0.19-1.01-0.26c-0.25-0.05-0.5-0.09-0.75-0.12c-0.6-0.07-1.26-0.08-1.84-0.09
		c-0.49,0.01-0.98,0.03-1.47,0.07c-0.74,0.05-1.46,0.16-2.14,0.35c-0.57,0.15-1.08,0.37-1.53,0.63h-0.01
		c-1.03-0.19-2.07-0.32-3.11-0.42c-0.6-0.05-1.22-0.08-1.82-0.12l-1.8-0.06c-2.42,0-4.84,0.23-7.2,0.67
		c-0.37,0.07-0.75,0.15-1.12,0.24c-0.09-0.07-0.19-0.13-0.29-0.2c-0.44-0.26-0.93-0.51-1.48-0.69c-0.55-0.19-1.15-0.3-1.76-0.38
		c-0.14-0.02-0.28-0.03-0.42-0.04c-0.48-0.03-0.97-0.04-1.42-0.05c-0.89,0.01-1.78,0.06-2.62,0.2c-0.04,0.01-0.08,0.01-0.12,0.02
		c-0.3,0.05-0.59,0.12-0.87,0.2c-1.05,0.29-1.91,0.78-2.54,1.32c-0.06,0.05-0.11,0.09-0.16,0.14c-0.33,0.28-0.57,0.59-0.76,0.87
		c-0.18,0.28-0.33,0.52-0.4,0.76c-0.18,0.45-0.17,0.67-0.19,0.67c-0.03,0.09-0.05,0.19-0.05,0.3C28.8,43.07,30.74,43.7,33.17,43.99z
		 M67.24,46.66c0.29,0.26,0.55,0.54,0.76,0.83l0.22,0.31l0.14,0.32c0.12,0.21,0.13,0.43,0.16,0.65l0.02,0.09l0.01,0.02v0.03
		l-0.02,0.16l-0.05,0.44c-0.01,0.05-0.03,0.09-0.04,0.13c-0.06,0.16-0.12,0.27-0.18,0.44c-0.44,0.85-1.27,1.55-2.13,2.1
		c-0.86,0.57-1.79,1-2.7,1.37c-0.55,0.22-1.1,0.42-1.64,0.58c0.01,0.01,0,0.01,0,0.01c-1.25,0.39-2.46,0.65-3.58,0.86
		c-1.59,0.3-3,0.45-4.17,0.56c-1.16,0.08-2.08,0.13-2.71,0.14c-0.56,0.01-0.89,0.02-0.95,0.02h-0.01c-0.06,0-0.39-0.01-0.96-0.02
		c-0.64-0.01-1.55-0.06-2.71-0.15c-1.16-0.1-2.57-0.25-4.17-0.56c-1.35-0.24-2.84-0.58-4.38-1.14c-0.27-0.09-0.55-0.2-0.83-0.31
		c-0.9-0.38-1.84-0.8-2.69-1.37c-0.86-0.55-1.69-1.25-2.13-2.1c-0.01-0.04-0.03-0.07-0.04-0.11c-0.07-0.18-0.14-0.36-0.19-0.53
		l-0.03-0.33l-0.02-0.14c0-0.02,0-0.05,0-0.05l0.02-0.09l0.06-0.44c0.02-0.17,0.1-0.2,0.13-0.31l0.12-0.27l0.21-0.3
		c0.14-0.2,0.31-0.39,0.5-0.58c0.02,0.05,0.05,0.1,0.07,0.15c0.18,0.32,0.39,0.6,0.62,0.85c0.53,0.6,1.17,1.03,1.78,1.4
		c0.87,0.54,1.76,0.9,2.62,1.22c1.77,0.61,3.41,0.99,4.88,1.23c1.41,0.24,2.65,0.36,3.68,0.44c1.05,0.06,1.88,0.09,2.43,0.09
		c0.55,0.01,0.85,0.01,0.85,0.01h0.01c0,0,0.3,0,0.86-0.01c0.56,0,1.38-0.03,2.43-0.09c1.22-0.09,2.75-0.24,4.5-0.58
		c1.25-0.24,2.61-0.59,4.05-1.1c0.86-0.32,1.76-0.68,2.62-1.22c0.71-0.42,1.43-0.93,2.01-1.69c0.14-0.17,0.27-0.36,0.39-0.56
		C67.12,46.94,67.18,46.8,67.24,46.66z M58.81,38.64c0.44-0.19,0.94-0.35,1.47-0.47c0.57-0.12,1.18-0.19,1.78-0.18
		c0.96,0.02,1.85,0.23,2.65,0.51c0.2,0.08,0.4,0.15,0.59,0.23c0.96,0.35,1.77,0.83,2.33,1.34c0.17,0.14,0.31,0.28,0.44,0.41
		c0.11,0.12,0.21,0.23,0.3,0.35c0,0,0,0.01,0.01,0.01c0.07,0.13,0.4,0.74,0.2,1.21c0,0.24-0.7,0.61-2.03,0.88
		c-0.4-0.49-0.87-0.9-1.36-1.25c-0.35-0.26-0.71-0.48-1.08-0.7c-1.81-1.01-3.79-1.66-5.83-2.1C58.45,38.8,58.63,38.72,58.81,38.64z
		 M42.69,40.69c0.22-0.05,0.43-0.09,0.65-0.13c0.05-0.01,0.09-0.02,0.14-0.02c2.19-0.38,4.46-0.52,6.72-0.53l1.75,0.02
		c0.57,0.04,1.14,0.06,1.71,0.1c0.46,0.04,0.93,0.08,1.39,0.14c0.33,0.03,0.66,0.07,0.98,0.11c0.35,0.05,0.69,0.11,1.03,0.17
		c1.88,0.34,3.73,0.79,5.38,1.49c0.3,0.13,0.59,0.27,0.87,0.41c0.35,0.19,0.69,0.39,1.01,0.6c0.08,0.06,0.16,0.12,0.24,0.18
		c0.31,0.23,0.59,0.47,0.8,0.74c0,0,0,0,0.01,0c0.01,0.01,0.01,0.01,0.02,0.02c0.07,0.07,0.13,0.15,0.18,0.22l0.18,0.26l0.12,0.27
		c0.1,0.18,0.11,0.37,0.14,0.55l0.01,0.07l0.01,0.03v0.01v0.01l-0.01,0.12l-0.03,0.25l-0.01,0.14c-0.07,0.19-0.13,0.29-0.18,0.47
		c-0.37,0.72-1.09,1.33-1.84,1.81c-0.74,0.5-1.56,0.87-2.35,1.2c-0.79,0.32-1.59,0.58-2.35,0.78s-1.5,0.36-2.2,0.49
		c-1.4,0.27-2.63,0.4-3.65,0.49c-1.02,0.08-1.82,0.12-2.37,0.13c-0.48,0.01-0.76,0.02-0.83,0.02H50.2c-0.06,0-0.35-0.01-0.84-0.02
		c-0.56-0.01-1.36-0.06-2.37-0.13c-1.02-0.09-2.26-0.22-3.65-0.49c-1.22-0.23-2.57-0.54-3.96-1.05c-0.19-0.07-0.39-0.15-0.59-0.23
		c-0.79-0.33-1.61-0.7-2.35-1.2c-0.74-0.48-1.46-1.09-1.82-1.81c-0.05-0.14-0.11-0.27-0.15-0.4c-0.02-0.05-0.04-0.09-0.05-0.14
		l-0.02-0.28l-0.02-0.08c-0.01-0.01,0-0.01,0-0.02v-0.03l0.02-0.09l0.06-0.39c0.01-0.15,0.08-0.16,0.1-0.25
		c0.04-0.07,0.06-0.14,0.1-0.22l0.19-0.26c0-0.01,0-0.01,0.01-0.01c0.02-0.03,0.04-0.05,0.06-0.08c0.22-0.28,0.49-0.55,0.8-0.78
		l0.01-0.01c0.41-0.32,0.87-0.61,1.37-0.87c0.17-0.09,0.35-0.17,0.53-0.25C39.17,41.52,40.91,41.04,42.69,40.69z M30.07,40.8
		c0.15-0.18,0.33-0.37,0.54-0.56c0.09-0.09,0.19-0.18,0.29-0.26c0.58-0.49,1.39-0.94,2.34-1.34c0.18-0.07,0.36-0.14,0.55-0.21
		c0.82-0.27,1.77-0.46,2.7-0.44c0.63,0.02,1.22,0.11,1.78,0.25c0.52,0.13,1.01,0.3,1.46,0.49c0.38,0.14,0.73,0.29,1.05,0.46
		c-1.57,0.42-3.1,0.97-4.51,1.77c-0.52,0.31-1.04,0.64-1.52,1.04c-0.41,0.34-0.8,0.74-1.13,1.21c-2.49-0.26-3.82-0.83-3.82-1.16
		C29.59,41.65,30.07,40.8,30.07,40.8z"/>
	<path class="st0" d="M45.09,45.61c-1.02,0.3-1.96,0.6-2.78,0.9c-1.94,0.67-3.18,1.3-3.18,1.3s0.07,0,0.21,0
		c0.08,0,0.18,0,0.29-0.01c0.58,0,1.62-0.04,2.92-0.18c1.02-0.09,2.2-0.25,3.46-0.45c1.18-0.2,2.43-0.43,3.67-0.71
		c0.04,0.01,0.07,0.03,0.1,0.04c1.1,0.39,2.22,0.74,3.27,1.03c1.06,0.29,2.06,0.53,2.93,0.7c0.51,0.11,0.98,0.19,1.38,0.25
		c0.96,0.14,1.56,0.17,1.56,0.17s-0.99-0.7-2.56-1.5c-0.58-0.31-1.24-0.63-1.95-0.96c-0.25-0.11-0.51-0.22-0.77-0.33
		c-0.19-0.08-0.39-0.16-0.59-0.24c0.24-0.06,0.49-0.12,0.73-0.19c1.22-0.35,2.35-0.71,3.32-1.06c0.03-0.01,0.06-0.02,0.09-0.03
		c1.88-0.67,3.09-1.27,3.09-1.27s-0.07,0-0.2,0c-0.2,0-0.55,0-1.03,0.03c-0.57,0.02-1.33,0.06-2.2,0.15
		c-1.02,0.1-2.2,0.25-3.46,0.46c-1.16,0.19-2.38,0.42-3.59,0.69c-0.89-0.3-1.78-0.58-2.63-0.82c-1.05-0.3-2.05-0.54-2.92-0.71
		c-0.86-0.19-1.59-0.3-2.1-0.37c-0.53-0.07-0.83-0.11-0.83-0.11s0.06,0.05,0.19,0.14c0.11,0.09,0.28,0.2,0.49,0.34
		c0.45,0.28,1.08,0.67,1.87,1.07c0.76,0.41,1.67,0.84,2.65,1.27c-0.3,0.08-0.61,0.16-0.89,0.24C45.45,45.5,45.27,45.55,45.09,45.61z
		"/>
	<path class="st0" d="M22.42,51.37c3.66,0,7.61-0.67,7.61-2.12c0-0.04,0-0.08-0.01-0.12c0,0,0-0.02-0.01-0.04
		c0-0.02,0-0.04-0.01-0.06c0-0.02-0.01-0.05-0.01-0.08c-0.03-0.12-0.06-0.29-0.15-0.51c-0.13-0.37-0.39-0.86-0.84-1.37
		c-0.08-0.09-0.17-0.18-0.26-0.27c-0.31-0.3-0.7-0.59-1.13-0.86c-0.44-0.26-0.93-0.51-1.48-0.69c-0.55-0.2-1.15-0.3-1.76-0.38
		c-0.28-0.04-0.57-0.06-0.87-0.07c-0.33-0.01-0.66-0.01-0.97-0.02c-0.68,0.01-1.36,0.03-2.02,0.11c-0.54,0.06-1.08,0.16-1.59,0.31
		c-1.14,0.3-2.06,0.87-2.7,1.45c-0.26,0.23-0.47,0.48-0.64,0.7c-0.04,0.06-0.08,0.12-0.12,0.17c-0.18,0.29-0.33,0.53-0.4,0.77
		c-0.18,0.44-0.17,0.66-0.19,0.67c-0.03,0.09-0.05,0.19-0.05,0.29c0,0.23,0.1,0.43,0.27,0.62C16.04,50.89,19.33,51.37,22.42,51.37z
		 M16.92,47.18c0.58-0.49,1.39-0.93,2.34-1.33c0.18-0.08,0.38-0.15,0.58-0.22c0.81-0.28,1.75-0.45,2.67-0.43
		c0.65,0.01,1.28,0.11,1.86,0.27c0.49,0.12,0.95,0.28,1.38,0.46c0.96,0.36,1.77,0.84,2.33,1.34c0.11,0.09,0.21,0.18,0.3,0.27
		c0.17,0.17,0.32,0.33,0.44,0.49c0,0,0,0.01,0.01,0.02c0.07,0.12,0.4,0.73,0.2,1.2c0,0.45-2.34,1.31-6.61,1.31
		c-4.27,0-6.6-0.86-6.6-1.31c-0.21-0.4,0.27-1.24,0.27-1.24c0.06-0.08,0.13-0.16,0.21-0.24C16.47,47.58,16.68,47.38,16.92,47.18z"/>
</g>
<g>
	<path class="st1" d="M94.79,57.59c-0.31-0.32-0.65-0.78-0.94-1.29c-0.05-0.09-0.1-0.18-0.15-0.27c-0.33-0.68-0.54-1.4-0.67-1.91
		c-0.94,1.26-2.08,2.3-3.27,3.2c0.07,0.1,0.14,0.22,0.21,0.34c0.24,0.39,0.55,0.89,0.87,1.4c0.05,0.08,0.1,0.16,0.15,0.24
		c0.09,0.14,0.17,0.29,0.27,0.43c0.11,0.14,0.17,0.3,0.26,0.44c0.1,0.13,0.18,0.29,0.25,0.43c0.09,0.13,0.16,0.27,0.23,0.4
		c0.05,0.1,0.1,0.19,0.15,0.28c1.11-1,2.09-2.14,2.78-3.47c0.01-0.02,0.02-0.04,0.02-0.06C94.9,57.7,94.85,57.65,94.79,57.59z"/>
	<path class="st1" d="M12.96,57.32c2.09,1.35,4.29,2.41,6.46,3.28c4.35,1.74,8.57,2.74,12.32,3.45c3.76,0.7,7.08,1.08,9.82,1.3
		c2.75,0.23,4.91,0.28,6.37,0.33c1.48,0.02,2.27,0.03,2.27,0.03s0.78-0.01,2.26-0.03c1.47-0.05,3.63-0.1,6.37-0.33
		c2.74-0.22,6.06-0.6,9.83-1.3c3.75-0.71,7.97-1.7,12.32-3.44c2.18-0.86,4.37-1.93,6.47-3.28c2.05-1.38,4.09-3.07,5.25-5.31
		c0.46-0.92,0.74-1.88,0.77-2.9c0.01-0.23,0.01-0.46-0.01-0.7c-0.05-0.69-0.21-1.38-0.49-2.04c-0.21-0.53-0.48-1.04-0.82-1.52
		c-0.69-1.01-1.56-1.91-2.54-2.72c1.16,1.52,1.78,3.14,1.78,4.81c0,9.16-18.59,16.58-41.54,16.58c-22.94,0-41.54-7.42-41.54-16.58
		c0-1.05,0.24-2.07,0.71-3.06c-0.27,0.31-0.53,0.64-0.76,0.98c-0.31,0.46-0.58,0.94-0.78,1.43c-0.29,0.68-0.47,1.39-0.52,2.12
		c-0.02,0.23-0.02,0.47-0.01,0.7c0.03,1,0.3,1.99,0.76,2.89C8.87,54.25,10.91,55.94,12.96,57.32z"/>
	<path class="st1" d="M90.15,59.82c-0.04-0.06-0.08-0.13-0.1-0.19c-0.37-0.63-0.59-1.32-0.67-1.86c-0.01-0.06-0.02-0.11-0.02-0.16
		c-0.4,0.28-0.8,0.56-1.2,0.82c-1.21,0.76-2.44,1.41-3.67,1.99c0.09,0.17,0.21,0.4,0.34,0.65c0.12,0.26,0.26,0.53,0.39,0.82
		c0.06,0.12,0.12,0.24,0.18,0.37c0.07,0.16,0.15,0.33,0.24,0.49c0.12,0.29,0.29,0.57,0.41,0.86c0.12,0.22,0.23,0.44,0.33,0.65
		c0.49,0.02,0.95,0.05,1.38,0.12c0.55-0.31,1.09-0.63,1.63-0.98c0.82-0.55,1.63-1.14,2.4-1.8c-0.06-0.04-0.12-0.09-0.18-0.14
		C91.14,61.08,90.58,60.5,90.15,59.82z"/>
	<path class="st1" d="M13.73,44.03c1.66-1.87,3.86-3.08,6.09-4.12c4.53-2,9.5-3.17,14.57-3.97c5.07-0.78,10.28-1.18,15.5-1.17
		c5.2,0.02,10.42,0.39,15.49,1.18c5.07,0.81,10.03,1.97,14.56,3.97c2.24,1.04,4.43,2.24,6.09,4.12c0.8,0.93,1.49,2.09,1.58,3.4
		c0.01,0.18,0.03,0.28,0.03,0.52l-0.01,0.12c0.26-0.58,0.4-1.19,0.4-1.8c0-6.85-17.01-12.4-37.99-12.4
		c-20.98,0-37.99,5.55-37.99,12.4c0,0.34,0.04,0.67,0.12,1C12.3,46.02,12.96,44.93,13.73,44.03z"/>
	<path class="st1" d="M84.53,62.66c-0.19-0.55-0.29-1.1-0.31-1.54c-0.01-0.23-0.01-0.42,0-0.57c-0.94,0.43-1.87,0.83-2.8,1.19
		c-1.1,0.42-2.2,0.79-3.27,1.13c0.1,0.17,0.22,0.37,0.34,0.61c0.16,0.27,0.3,0.59,0.45,0.92c0.04,0.11,0.1,0.21,0.15,0.32
		c0.03,0.06,0.05,0.11,0.07,0.17c0.01,0.02,0.02,0.04,0.03,0.06c1.99-0.36,4.27-0.67,6.26-0.69c-0.25-0.31-0.51-0.68-0.71-1.08
		C84.66,63.01,84.59,62.83,84.53,62.66z"/>
	<path class="st1" d="M84.12,47.55c-1.23,0.86-3.68,1.44-6.5,1.44c-2.33,0-4.41-0.4-5.76-1.02c-0.02,0.01-0.03,0.03-0.04,0.04
		c0,0-0.48,0.84-0.27,1.24c0,0.45,2.33,1.31,6.6,1.31c4.27,0,6.61-0.86,6.61-1.31c0.2-0.47-0.13-1.08-0.2-1.2
		c-0.01-0.01-0.01-0.02-0.01-0.02C84.43,47.88,84.29,47.72,84.12,47.55z"/>
	<path class="st1" d="M77.84,62.97c-2.4,0.74-4.71,1.31-6.89,1.76c0.06,0.18,0.15,0.42,0.23,0.68c0.09,0.29,0.19,0.61,0.27,0.94
		c0.04,0.11,0.07,0.23,0.1,0.35c1.81-0.38,3.55-0.8,5.21-1.27c0.01,0,0.02-0.01,0.04-0.01c0.47-0.14,0.93-0.28,1.39-0.41
		c-0.15-0.52-0.24-1.03-0.29-1.44C77.87,63.33,77.85,63.13,77.84,62.97z"/>
	<path class="st1" d="M70.64,64.8c-0.6,0.12-1.2,0.23-1.78,0.34c-2.12,0.38-4.08,0.65-5.89,0.86c0.07,0.19,0.17,0.46,0.27,0.78
		c0.1,0.29,0.19,0.62,0.27,0.97c0.02,0.08,0.04,0.17,0.07,0.25c2.45-0.29,4.8-0.67,7.05-1.12c-0.08-0.55-0.08-1.08-0.05-1.5
		C70.59,65.15,70.62,64.96,70.64,64.8z"/>
	<path class="st1" d="M68.58,42.05c0.2-0.47-0.13-1.08-0.2-1.21c-0.01,0-0.01-0.01-0.01-0.01c-0.09-0.12-0.19-0.23-0.3-0.35
		c-0.62,0.51-1.63,0.92-2.88,1.2c0.49,0.35,0.96,0.76,1.36,1.25C67.88,42.66,68.58,42.29,68.58,42.05z"/>
	<path class="st1" d="M63.43,53.55c0.91-0.37,1.84-0.8,2.7-1.37c0.86-0.55,1.69-1.25,2.13-2.1c0.06-0.17,0.12-0.28,0.18-0.44
		c-0.98-0.65-1.5-1.43-1.77-2.02c-0.58,0.76-1.3,1.27-2.01,1.69c-0.86,0.54-1.76,0.9-2.62,1.22c-1.44,0.51-2.8,0.86-4.05,1.1
		c2.57,0.22,4.54,0.89,3.8,2.5C62.33,53.97,62.88,53.77,63.43,53.55z"/>
	<path class="st1" d="M62.71,66.03c-1.35,0.15-2.63,0.28-3.79,0.36c-1.94,0.15-3.58,0.22-4.91,0.26c0.09,0.18,0.21,0.45,0.32,0.79
		c0.11,0.3,0.2,0.64,0.28,1c0.01,0.09,0.04,0.18,0.06,0.27c2.74-0.11,5.41-0.31,7.98-0.6c-0.04-0.5-0.04-0.97-0.01-1.36
		C62.66,66.45,62.69,66.21,62.71,66.03z"/>
	<path class="st1" d="M53.77,66.66c-0.47,0.01-0.91,0.02-1.29,0.03c-1.49,0.01-2.28,0.02-2.28,0.02s-0.8-0.01-2.28-0.02
		c-0.85-0.02-1.93-0.05-3.21-0.1c0.1,0.16,0.26,0.43,0.39,0.79c0.11,0.29,0.2,0.63,0.25,1c0.01,0.1,0.03,0.2,0.04,0.3
		c1.58,0.08,3.19,0.11,4.82,0.11c1.19,0,2.37-0.02,3.53-0.05c-0.02-0.48-0.02-0.94-0.01-1.31C53.74,67.1,53.76,66.83,53.77,66.66z"
		/>
	<path class="st1" d="M41.48,66.4c-1.44-0.11-3.05-0.26-4.78-0.48c0.11,0.17,0.24,0.41,0.35,0.72c0.11,0.31,0.2,0.68,0.23,1.08
		c0.01,0.11,0.02,0.23,0.02,0.34c2.32,0.27,4.71,0.47,7.16,0.59c0.04-0.93,0.04-1.75,0.03-2.07C43.58,66.54,42.58,66.48,41.48,66.4z
		"/>
	<path class="st1" d="M43.23,51.77c-1.47-0.24-3.11-0.62-4.88-1.23c-0.86-0.32-1.75-0.68-2.62-1.22c-0.61-0.37-1.25-0.8-1.78-1.4
		c-0.22,0.53-0.66,1.24-1.49,2.04c0.01,0.04,0.03,0.07,0.04,0.11c0.44,0.85,1.27,1.55,2.13,2.1c0.85,0.57,1.79,0.99,2.69,1.37
		c0.28,0.11,0.56,0.22,0.83,0.31C37.62,53.06,37.95,51.97,43.23,51.77z"/>
	<path class="st1" d="M31.54,65.14c-0.83-0.15-1.69-0.32-2.56-0.5c0.05,0.13,0.1,0.27,0.14,0.44c0.09,0.32,0.13,0.69,0.13,1.09
		c-0.02,0.19,0,0.41-0.04,0.6c2.28,0.47,4.67,0.86,7.16,1.17c0.1-0.9,0.07-1.7,0.05-2.06C34.89,65.69,33.27,65.45,31.54,65.14z"/>
	<path class="st1" d="M34.75,42c-2.02-0.33-3.56-0.97-4.14-1.76c-0.21,0.19-0.39,0.38-0.54,0.56c0,0-0.48,0.85-0.27,1.25
		c0,0.33,1.33,0.9,3.82,1.16C33.95,42.74,34.34,42.34,34.75,42z"/>
	<path class="st1" d="M28.38,47.54c-1.3,0.77-3.62,1.28-6.26,1.28c-2.37,0-4.47-0.41-5.82-1.05c-0.08,0.08-0.15,0.16-0.21,0.24
		c0,0-0.48,0.84-0.27,1.24c0,0.45,2.33,1.31,6.6,1.31c4.27,0,6.61-0.86,6.61-1.31c0.2-0.47-0.13-1.08-0.2-1.2
		c-0.01-0.01-0.01-0.02-0.01-0.02C28.7,47.87,28.55,47.71,28.38,47.54z"/>
	<path class="st1" d="M21.14,62.69c0.09,0.31,0.14,0.69,0.14,1.09c-0.01,0.2,0.01,0.41-0.04,0.62c-0.01,0.09-0.03,0.18-0.05,0.27
		c0.008,0.003,0.017,0.005,0.025,0.008c-0.017,0.121-0.036,0.239-0.058,0.292c0,0,2.034,0.37,3.189,0.661
		c0.117,0.029,0.217,0.046,0.315,0.06c1.165,0.321,2.367,0.615,3.609,0.879c0.19-0.8,0.26-1.55,0.28-2.02
		c-2.37-0.52-4.88-1.18-7.48-2.06C21.09,62.56,21.12,62.61,21.14,62.69z"/>
	<path class="st1" d="M14.15,59.55c0.03,0.1,0.06,0.18,0.09,0.29c0.08,0.32,0.13,0.69,0.12,1.09c-0.01,0.2,0,0.42-0.05,0.62
		c-0.02,0.11-0.04,0.22-0.06,0.33c-0.02,0.1-0.05,0.2-0.07,0.3c-0.14,0.41-0.3,0.82-0.53,1.16c-0.17,0.27-0.36,0.51-0.55,0.7
		c2.17,0.03,4.81,0.39,7.05,0.76c0.01-0.01,0.01-0.02,0.01-0.03c0.04-0.13,0.08-0.27,0.11-0.4c0.19-0.78,0.25-1.54,0.28-2.05
		c-0.52-0.18-1.05-0.37-1.58-0.57C17.37,61.14,15.75,60.41,14.15,59.55z"/>
	<path class="st1" d="M13.36,61.42c0.2-0.83,0.28-1.64,0.31-2.13c-0.48-0.27-0.96-0.54-1.44-0.84c-1.11-0.73-2.23-1.54-3.26-2.51
		c0.08,0.18,0.19,0.47,0.24,0.86c0.04,0.31,0.05,0.67,0,1.05c-0.04,0.18-0.05,0.38-0.11,0.57c-0.03,0.07-0.05,0.15-0.07,0.22
		C8.99,58.76,8.95,58.88,8.9,59c-0.17,0.37-0.35,0.74-0.61,1.04c-0.2,0.26-0.43,0.47-0.65,0.63c1.02,1.03,2.19,1.93,3.37,2.72
		c0.35,0.22,0.71,0.43,1.07,0.65c0,0,0,0,0.01,0c0.07,0,0.15,0,0.22,0c0.03-0.05,0.06-0.1,0.09-0.15c0.3-0.51,0.62-1.23,0.82-1.99
		C13.27,61.74,13.32,61.58,13.36,61.42z"/>
	<path class="st1" d="M8.23,57.98c0.17-0.47,0.3-0.93,0.39-1.31c0.12-0.54,0.17-0.9,0.17-0.91c-0.66-0.65-1.28-1.35-1.81-2.15
		c-0.11,0.68-0.3,1.57-0.58,2.49c-0.2,0.67-0.46,1.34-0.77,1.96c0.42,0.78,0.95,1.48,1.54,2.14c0.29-0.44,0.58-0.99,0.81-1.58
		C8.07,58.41,8.16,58.19,8.23,57.98z"/>
</g>
<g>
	<path class="st2" d="M22.58,57.29c33.49,12.33,58-1.53,58-1.53C54.87,66.38,23.79,57.64,22.58,57.29z"/>
	<path class="st3" d="M6.12,52.08c-0.19,0.82-0.47,1.68-0.76,2.53c-0.17,0.46-0.35,0.92-0.54,1.37c0.14,0.63,0.36,1.24,0.66,1.82
		c0.04,0.09,0.09,0.17,0.15,0.26c0.31-0.62,0.57-1.29,0.77-1.96c0.28-0.92,0.47-1.81,0.58-2.49c-0.2-0.3-0.39-0.61-0.57-0.93
		C6.31,52.48,6.21,52.28,6.12,52.08z"/>
	<path class="st2" d="M68.48,49.51l0.05-0.44l0.02-0.16v-0.03l-0.01-0.02l-0.02-0.09c-0.03-0.22-0.04-0.44-0.16-0.65l-0.14-0.32
		L68,47.49c-0.21-0.29-0.47-0.57-0.76-0.83c-0.06,0.14-0.12,0.28-0.18,0.4c-0.12,0.2-0.25,0.39-0.39,0.56
		c0.27,0.59,0.79,1.37,1.77,2.02C68.45,49.6,68.47,49.56,68.48,49.51z"/>
	<path class="st2" d="M33.26,46.92c-0.19,0.19-0.36,0.38-0.5,0.58l-0.21,0.3l-0.12,0.27c-0.03,0.11-0.11,0.14-0.13,0.31l-0.06,0.44
		l-0.02,0.09c0,0,0,0.03,0,0.05l0.02,0.14l0.03,0.33c0.05,0.17,0.12,0.35,0.19,0.53c0.83-0.8,1.27-1.51,1.49-2.04
		c-0.23-0.25-0.44-0.53-0.62-0.85C33.31,47.02,33.28,46.97,33.26,46.92z"/>
	<path class="st2" d="M56.03,40.38c-0.32-0.04-0.65-0.08-0.98-0.11c-0.46-0.06-0.93-0.1-1.39-0.14c-0.57-0.04-1.14-0.06-1.71-0.1
		l-1.75-0.02c-2.26,0.01-4.53,0.15-6.72,0.53c-0.05,0-0.09,0.01-0.14,0.02c-0.22,0.04-0.43,0.08-0.65,0.13
		c-1.78,0.35-3.52,0.83-5.06,1.53c-0.18,0.08-0.36,0.16-0.53,0.25c-0.5,0.26-0.96,0.55-1.37,0.87l-0.01,0.01
		c-0.31,0.23-0.58,0.5-0.8,0.78c-0.02,0.03-0.04,0.05-0.06,0.08c1.32-0.92,3.56-1.69,6.38-2.22c2.61-0.49,5.71-0.78,9.05-0.78
		c3.74,0,7.19,0.36,9.98,0.97c2.15,0.47,3.91,1.08,5.09,1.79c-0.21-0.27-0.49-0.51-0.8-0.74c-0.08-0.06-0.16-0.12-0.24-0.18
		c-0.32-0.21-0.66-0.41-1.01-0.6c-0.28-0.14-0.57-0.28-0.87-0.41c-1.65-0.7-3.5-1.15-5.38-1.49C56.72,40.49,56.38,40.43,56.03,40.38
		z"/>
	<path class="st2" d="M57.19,44.34c-0.03,0.01-0.06,0.02-0.09,0.03c-0.97,0.35-2.1,0.71-3.32,1.06c-0.24,0.07-0.49,0.13-0.73,0.19
		c0.2,0.08,0.4,0.16,0.59,0.24c0.26,0.11,0.52,0.22,0.77,0.33L57.19,44.34z"/>
	<path class="st2" d="M45.63,45.45c0.28-0.08,0.59-0.16,0.89-0.24c-0.98-0.43-1.89-0.86-2.65-1.27c-0.79-0.4-1.42-0.79-1.87-1.07
		c-0.21-0.14-0.38-0.25-0.49-0.34l-0.02,0.03l3.6,3.05C45.27,45.55,45.45,45.5,45.63,45.45z"/>
	<path class="st2" d="M39.63,47.81c0,0,6.77,0.67,9.99-0.17c0,0,5.05,1.26,7.74,0.84c-0.4-0.06-0.87-0.14-1.38-0.25
		c-0.87-0.17-1.87-0.41-2.93-0.7c-1.05-0.29-2.17-0.64-3.27-1.03c-0.03-0.01-0.06-0.03-0.1-0.04c-1.24,0.28-2.49,0.51-3.67,0.71
		c-1.26,0.2-2.44,0.36-3.46,0.45c-1.3,0.14-2.34,0.18-2.92,0.18V47.81z"/>
	<path class="st2" d="M33.79,38.43c0.27,0.43,1.15,0.75,2.2,0.75c1.21,0,2.19-0.42,2.28-0.94c-0.56-0.14-1.15-0.23-1.78-0.25
		C35.56,37.97,34.61,38.16,33.79,38.43z"/>
	<path class="st2" d="M64.71,38.5c-0.8-0.28-1.69-0.49-2.65-0.51c-0.6-0.01-1.21,0.06-1.78,0.18c0.01,0.56,1.03,1.01,2.28,1.01
		C63.55,39.18,64.4,38.89,64.71,38.5z"/>
	<path class="st2" d="M80.33,45.61c0-0.03,0-0.06-0.01-0.09c-0.64-0.18-1.34-0.31-2.08-0.32c-0.85-0.01-1.71,0.13-2.48,0.36
		c0,0.02,0,0.03,0,0.05c0,0.56,1.02,1.01,2.28,1.01C79.3,46.62,80.33,46.17,80.33,45.61z"/>
	<path class="st3" d="M94.8,54.41c-0.25-0.69-0.48-1.39-0.66-2.08c-0.05,0.12-0.11,0.24-0.17,0.35c-0.2,0.36-0.41,0.71-0.64,1.04
		c0.1,0.11,0.2,0.22,0.31,0.36c0.18,0.21,0.34,0.45,0.5,0.71c0.07,0.13,0.18,0.25,0.24,0.39l0.22,0.41
		c0.06,0.14,0.12,0.28,0.19,0.41s0.1,0.29,0.17,0.41c0.1,0.26,0.19,0.51,0.26,0.75c0.13-0.32,0.25-0.65,0.33-0.98
		C95.28,55.61,95.03,55.02,94.8,54.41z"/>
	<path class="st2" d="M50.2,32.47c-6.26,0.01-12.53,0.49-18.58,1.59c-5.36,1-10.61,2.44-15.28,4.67
		c8.23-3.09,34.03-10.81,65.48-1.03c-4.08-1.67-8.52-2.8-13.04-3.65C62.73,32.95,56.46,32.45,50.2,32.47z"/>
	<path class="st2" d="M24.4,45.61c0-0.05-0.01-0.1-0.03-0.14c-0.58-0.16-1.21-0.26-1.86-0.27c-0.92-0.02-1.86,0.15-2.67,0.43
		c0.03,0.55,1.04,0.99,2.28,0.99C23.38,46.62,24.4,46.17,24.4,45.61z"/>
	<path class="st2" d="M9.601,45.643c0.209,2.194,0.836-2.194,2.612-3.97C12.213,41.673,9.392,43.449,9.601,45.643z"/>
	<path class="st2" d="M87.875,41.604c1.267,1.2,2.087,5.551,2.375,3.725C90.499,43.758,88.656,42.19,87.875,41.604z"/>
	<path class="st2" d="M87.534,41.359c0,0,0.136,0.09,0.341,0.244C87.765,41.499,87.652,41.41,87.534,41.359z"/>
</g>
<g>
	<path class="st3" d="M86.45,64.41c0.07,0.12,0.11,0.26,0.17,0.37c0.03,0.06,0.06,0.11,0.08,0.17c0.35-0.19,0.71-0.38,1.06-0.57
		c-0.43-0.07-0.89-0.1-1.38-0.12C86.4,64.31,86.43,64.36,86.45,64.41z"/>
	<path class="st3" d="M89.61,42.14c-1.15-0.97-2.46-1.82-3.81-2.56c-1.27-0.69-2.59-1.31-3.96-1.87c-0.01-0.01-0.01-0.01-0.02-0.01
		c-31.45-9.78-57.25-2.06-65.48,1.03c-0.59,0.28-1.16,0.57-1.73,0.87c-2.12,1.17-4.12,2.56-5.59,4.29
		c-0.47,0.99-0.71,2.01-0.71,3.06c0,9.16,18.6,16.58,41.54,16.58c22.95,0,41.54-7.42,41.54-16.58
		C91.39,45.28,90.77,43.66,89.61,42.14z M22.58,57.29c1.21,0.35,32.29,9.09,58-1.53C80.58,55.76,56.07,69.62,22.58,57.29z
		 M87.63,48.08l-0.03,0.3c-0.01,0.27-0.12,0.65-0.19,0.96c-0.21,0.59-0.48,1.15-0.83,1.63c-1.42,1.95-3.39,3.13-5.27,4.11
		c-1.91,0.97-3.84,1.65-5.71,2.24c-3.75,1.15-7.28,1.82-10.41,2.28c-3.14,0.46-5.9,0.68-8.17,0.82c-2.26,0.14-4.05,0.17-5.27,0.19
		c-1.22,0.01-1.87,0.01-1.87,0.01s-0.65,0-1.86-0.01c-1.22-0.02-3.01-0.04-5.27-0.19c-2.27-0.13-5.03-0.36-8.17-0.82
		c-3.13-0.45-6.66-1.12-10.41-2.27c-1.87-0.59-3.81-1.28-5.71-2.25c-1.88-0.97-3.85-2.15-5.27-4.1c-0.36-0.48-0.63-1.05-0.84-1.64
		c-0.16-0.6-0.28-1.26-0.2-1.89c0-0.06,0.01-0.12,0.02-0.17c-0.08-0.33-0.12-0.66-0.12-1c0-6.85,17.01-12.4,37.99-12.4
		c20.98,0,37.99,5.55,37.99,12.4C88.03,46.89,87.89,47.5,87.63,48.08z"/>
	<path class="st3" d="M79.45,41.03c-4.38-1.89-9.28-3-14.27-3.75c-0.4-0.06-0.79-0.11-1.19-0.16c-0.32-0.04-0.63-0.08-0.95-0.12
		c-4.33-0.54-8.74-0.77-13.16-0.75c-4.804,0.01-9.638,0.27-14.332,0.918c-0.023,0.002-0.055,0.003-0.075,0.005
		c-0.141,0.015-0.293,0.043-0.445,0.075c0.025-0.005,0.047-0.013,0.072-0.017c-0.17,0.02-0.34,0.04-0.51,0.07
		c-0.29,0.04-0.59,0.09-0.88,0.14c-4.68,0.73-9.26,1.82-13.38,3.6c-2.16,0.97-4.25,2.13-5.72,3.76c-0.71,0.81-1.26,1.76-1.33,2.73
		c-0.1,0.9,0.16,1.77,0.63,2.54c0.03,0.06,0.07,0.11,0.11,0.16c0.03,0.04,0.05,0.08,0.08,0.12c1.19,1.68,3.04,2.86,4.84,3.8
		c1.82,0.95,3.7,1.64,5.53,2.23c3.66,1.16,7.15,1.86,10.25,2.34c3.1,0.48,5.83,0.73,8.08,0.89s4.02,0.2,5.23,0.24
		c1.21,0.01,1.86,0.02,1.86,0.02s0.64-0.01,1.85-0.02c1.21-0.04,2.98-0.08,5.23-0.24s4.98-0.41,8.09-0.89
		c3.1-0.47,6.58-1.17,10.25-2.33c1.82-0.59,3.71-1.29,5.53-2.23c1.54-0.8,3.11-1.78,4.28-3.11c0.2-0.22,0.39-0.46,0.56-0.7
		c0.09-0.13,0.18-0.26,0.25-0.4c0.03-0.04,0.05-0.09,0.07-0.13c0.15-0.26,0.26-0.54,0.36-0.81c0.04-0.25,0.12-0.41,0.14-0.71
		l0.03-0.43l-0.03-0.33c-0.07-0.99-0.62-1.93-1.34-2.75C83.7,43.16,81.6,42,79.45,41.03z M64.515,37.661
		c-0.011-0.008-0.022-0.015-0.034-0.023c-0.021-0.017-0.038-0.033-0.061-0.05C64.457,37.61,64.481,37.637,64.515,37.661z
		 M35.99,37.15c0.019,0,0.036,0.003,0.055,0.003c-0.045,0-0.087,0-0.13,0C35.941,37.153,35.964,37.15,35.99,37.15z M22.42,51.37
		c-3.09,0-6.38-0.48-7.33-1.5c-0.17-0.19-0.27-0.39-0.27-0.62c0-0.1,0.02-0.2,0.05-0.29c0.02-0.01,0.01-0.23,0.19-0.67
		c0.07-0.24,0.22-0.48,0.4-0.77c0.04-0.05,0.08-0.11,0.12-0.17c0.17-0.22,0.38-0.47,0.64-0.7c0.64-0.58,1.56-1.15,2.7-1.45
		c0.51-0.15,1.05-0.25,1.59-0.31c0,0,1.034-0.084,1.508-0.096C22.492,44.783,23.5,44.8,23.5,44.8c0.3,0.01,0.59,0.03,0.87,0.07
		c0.61,0.08,1.21,0.18,1.76,0.38c0.55,0.18,1.04,0.43,1.48,0.69c0.43,0.27,0.82,0.56,1.13,0.86c0.09,0.09,0.18,0.18,0.26,0.27
		c0.45,0.51,0.71,1,0.84,1.37c0.09,0.22,0.12,0.39,0.15,0.51c0,0.03,0.01,0.06,0.01,0.08c0.01,0.02,0.01,0.04,0.01,0.06
		c0.01,0.02,0.01,0.04,0.01,0.04c0.01,0.04,0.01,0.08,0.01,0.12C30.03,50.7,26.08,51.37,22.42,51.37z M70.02,49.04L70,49.18
		l-0.01,0.08l-0.06,0.44c-0.09,0.33-0.25,0.73-0.41,1.06c-0.69,1.2-1.71,1.94-2.69,2.53c-0.98,0.61-1.99,1.03-2.97,1.4
		c-1.96,0.69-3.8,1.13-5.45,1.39c-1.65,0.3-3.09,0.43-4.28,0.52c-1.2,0.07-2.14,0.11-2.78,0.11c-0.63,0.01-0.98,0.01-0.98,0.01
		h-0.01c0,0-0.33,0-0.97-0.01c-0.62,0-1.56-0.04-2.77-0.11c-1.19-0.09-2.64-0.22-4.28-0.51c-1.65-0.28-3.49-0.7-5.46-1.39
		c-0.97-0.37-1.99-0.78-2.97-1.39c-0.98-0.6-2-1.34-2.7-2.54c-0.14-0.32-0.29-0.65-0.39-0.99l-0.08-0.55l-0.03-0.2l-0.01-0.08
		c-0.01-0.02,0-0.15,0-0.13l0.01-0.03v-0.06l0.02-0.11c0.03-0.29,0.03-0.57,0.21-0.99c0.07-0.19,0.14-0.39,0.22-0.57l0.29-0.45
		c0.41-0.61,0.9-1.11,1.44-1.56c0.02-0.26,0.12-0.68,0.28-1.06c-2.43-0.29-4.37-0.92-4.37-1.94c0-0.11,0.02-0.21,0.05-0.3
		c0.02,0,0.01-0.22,0.19-0.67c0.07-0.24,0.22-0.48,0.4-0.76c0.19-0.28,0.43-0.59,0.76-0.87c0.05-0.05,0.1-0.09,0.16-0.14
		c0.63-0.54,1.49-1.03,2.54-1.32c0.28-0.08,0.57-0.15,0.87-0.2c0.04-0.01,0.08-0.01,0.12-0.02c0,0,0.913-0.148,1.763-0.177
		c0.85-0.029,1.935-0.019,2.277,0.027c0.14,0.01,0.28,0.02,0.42,0.04c0.61,0.08,1.21,0.19,1.76,0.38c0.55,0.18,1.04,0.43,1.48,0.69
		c0.1,0.07,0.2,0.13,0.29,0.2c0.37-0.09,0.75-0.17,1.12-0.24c2.36-0.44,4.78-0.67,7.2-0.67l1.8,0.06c0.6,0.04,1.22,0.07,1.82,0.12
		c1.04,0.1,2.08,0.23,3.11,0.42h0.01c0.45-0.26,0.96-0.48,1.53-0.63c0.68-0.19,1.4-0.3,2.14-0.35c0,0,1.297-0.11,1.912-0.078
		c0.615,0.031,1.777,0.093,2.148,0.218c0.35,0.07,0.69,0.15,1.01,0.26c0.55,0.18,1.04,0.43,1.48,0.69c0.43,0.28,0.82,0.56,1.13,0.86
		c0.11,0.11,0.21,0.21,0.3,0.32c0.42,0.5,0.68,0.97,0.8,1.32c0.09,0.22,0.12,0.39,0.15,0.52c0.01,0.06,0.02,0.1,0.02,0.13
		c0.01,0.03,0.01,0.04,0.01,0.04c0.01,0.05,0.01,0.09,0.01,0.13c0,0.74-1.03,1.28-2.52,1.62l0.05,0.08c0.07,0.14,0.12,0.3,0.18,0.46
		c0.08,0.18,0.13,0.37,0.16,0.57c0.69,0.5,1.33,1.09,1.83,1.84l0.29,0.45c0.08,0.17,0.14,0.34,0.21,0.51
		c0.16,0.34,0.19,0.72,0.23,1.09l0.01,0.14l0.01,0.07v0.03C70.04,48.91,70.03,49.01,70.02,49.04z M85.72,48.95
		c0.01,0.07,0.02,0.11,0.02,0.14c0.01,0.02,0.01,0.04,0.01,0.04c0.01,0.04,0.01,0.08,0.01,0.12c0,0.13-0.03,0.26-0.1,0.39
		c-0.02,0.04-0.05,0.08-0.08,0.12c-0.8,1.1-4.23,1.61-7.43,1.61c-3.66,0-7.6-0.67-7.6-2.12c0-0.01,0-0.02,0-0.03
		c0-0.09,0.02-0.18,0.05-0.26c0.02-0.01,0.01-0.23,0.19-0.67c0.07-0.23,0.2-0.45,0.37-0.72c0.01-0.02,0.02-0.03,0.03-0.05
		c0.19-0.27,0.43-0.58,0.76-0.87c0.64-0.58,1.56-1.15,2.7-1.45c0.59-0.17,1.22-0.28,1.85-0.34c0,0,0.905-0.096,1.56-0.1
		c0.655-0.004,1.325,0.036,1.4,0.05c0.22,0.01,0.43,0.03,0.64,0.06c0.61,0.08,1.21,0.18,1.76,0.38c0.55,0.18,1.04,0.43,1.48,0.69
		c0.43,0.27,0.82,0.56,1.13,0.86c0.08,0.08,0.15,0.16,0.22,0.23c0.48,0.52,0.75,1.03,0.88,1.41C85.66,48.66,85.69,48.83,85.72,48.95
		z"/>
	<path class="st3" d="M85.45,64.26c-1.99,0.02-4.27,0.33-6.26,0.69c0.06,0.15,0.12,0.3,0.19,0.45c0.07,0.16,0.12,0.34,0.2,0.5
		c0.09,0.15,0.12,0.33,0.2,0.47c0.08,0.15,0.12,0.32,0.19,0.46c0.08,0.14,0.12,0.3,0.19,0.42c0.07,0.16,0.13,0.3,0.19,0.42
		c0.74-0.25,1.48-0.52,2.23-0.82c1.26-0.5,2.53-1.08,3.79-1.72c-0.1-0.08-0.21-0.16-0.32-0.27C85.86,64.7,85.66,64.49,85.45,64.26z"
		/>
	<path class="st3" d="M81.48,45.93c-0.37-0.15-0.75-0.29-1.16-0.41c0.01,0.03,0.01,0.06,0.01,0.09c0,0.56-1.03,1.01-2.29,1.01
		c-1.26,0-2.28-0.45-2.28-1.01c0-0.02,0-0.03,0-0.05c-0.27,0.09-0.53,0.18-0.77,0.29c-0.95,0.4-1.76,0.84-2.34,1.33
		c-0.32,0.28-0.59,0.54-0.79,0.79c1.35,0.62,3.43,1.02,5.76,1.02c2.82,0,5.27-0.58,6.5-1.44c-0.09-0.09-0.2-0.19-0.31-0.28
		C83.25,46.77,82.44,46.29,81.48,45.93z"/>
	<path class="st3" d="M79.39,67.31c-0.13-0.13-0.23-0.29-0.34-0.45c-0.23-0.32-0.42-0.7-0.6-1.08c-0.09-0.22-0.16-0.43-0.23-0.65
		c-0.51,0.1-0.98,0.2-1.42,0.29c-0.02,0-0.03,0.01-0.04,0.01c-1.66,0.47-3.4,0.89-5.21,1.27c0.06,0.22,0.11,0.44,0.18,0.65
		c0.03,0.17,0.07,0.34,0.12,0.5c0.05,0.16,0.08,0.33,0.13,0.48c0.09,0.33,0.17,0.64,0.25,0.91c0.06,0.25,0.12,0.47,0.17,0.65
		c2.39-0.52,4.91-1.18,7.5-2.06c-0.06-0.05-0.11-0.09-0.17-0.15C79.61,67.58,79.51,67.44,79.39,67.31z"/>
	<path class="st3" d="M71.19,68.72c-0.18-0.34-0.32-0.73-0.43-1.12c-0.06-0.24-0.11-0.48-0.13-0.72c-2.25,0.45-4.6,0.83-7.05,1.12
		c0.05,0.27,0.09,0.54,0.16,0.81c0.05,0.37,0.13,0.73,0.17,1.08c0.05,0.35,0.08,0.69,0.1,0.99c0.02,0.16,0.02,0.31,0.03,0.45
		c1.73-0.22,3.59-0.5,5.57-0.87c0.79-0.15,1.61-0.32,2.44-0.49c-0.1-0.11-0.2-0.22-0.31-0.37C71.55,69.36,71.36,69.06,71.19,68.72z"
		/>
	<path class="st3" d="M67.63,40.07c-0.56-0.51-1.37-0.99-2.33-1.34c-0.19-0.08-0.39-0.15-0.59-0.23c-0.31,0.39-1.16,0.68-2.15,0.68
		c-1.25,0-2.27-0.45-2.28-1.01c-0.53,0.12-1.03,0.28-1.47,0.47c-0.18,0.08-0.36,0.16-0.53,0.24c2.04,0.44,4.02,1.09,5.83,2.1
		c0.37,0.22,0.73,0.44,1.08,0.7c1.25-0.28,2.26-0.69,2.88-1.2C67.94,40.35,67.8,40.21,67.63,40.07z"/>
	<path class="st3" d="M62.76,69c-0.05-0.3-0.09-0.6-0.11-0.89c-2.57,0.29-5.24,0.49-7.98,0.6c0.02,0.09,0.04,0.19,0.05,0.28
		c0.02,0.19,0.05,0.38,0.08,0.58c0.02,0.38,0.06,0.77,0.05,1.14c0.01,0.37-0.02,0.72-0.05,1.04c-0.02,0.12-0.04,0.24-0.06,0.35
		c1.28-0.05,2.8-0.13,4.54-0.28c1.31-0.1,2.76-0.25,4.31-0.44c-0.04-0.08-0.08-0.15-0.12-0.25C63.2,70.58,62.92,69.8,62.76,69z"/>
	<path class="st3" d="M57.99,51.63c-1.75,0.34-3.28,0.49-4.5,0.58c-1.05,0.06-1.87,0.09-2.43,0.09c-0.56,0.01-0.86,0.01-0.86,0.01
		h-0.01c0,0-0.3,0-0.85-0.01c-0.55,0-1.38-0.03-2.43-0.09c-1.03-0.08-2.27-0.2-3.68-0.44c-5.28,0.2-5.61,1.29-5.08,2.08
		c1.54,0.56,3.03,0.9,4.38,1.14c1.6,0.31,3.01,0.46,4.17,0.56c1.16,0.09,2.07,0.14,2.71,0.15c0.57,0.01,0.9,0.02,0.96,0.02h0.01
		c0.06,0,0.39-0.01,0.95-0.02c0.63-0.01,1.55-0.06,2.71-0.14c1.17-0.11,2.58-0.26,4.17-0.56c1.12-0.21,2.33-0.47,3.58-0.86
		c0,0,0.01,0,0-0.01C62.53,52.52,60.56,51.85,57.99,51.63z"/>
	<path class="st3" d="M66.01,45.29c-0.03-0.18-0.04-0.37-0.14-0.55l-0.12-0.27l-0.18-0.26c-0.05-0.07-0.11-0.15-0.18-0.22
		c-0.01,0-0.02-0.01-0.03-0.02c-1.18-0.71-2.94-1.32-5.09-1.79c-2.79-0.61-6.24-0.97-9.98-0.97c-3.34,0-6.44,0.29-9.05,0.78
		c-2.82,0.53-5.06,1.3-6.38,2.22c-0.01,0-0.01,0-0.01,0.01l-0.19,0.26c-0.04,0.08-0.06,0.15-0.1,0.22c-0.02,0.09-0.09,0.1-0.1,0.25
		l-0.06,0.39l-0.02,0.09v0.03c0,0.01-0.01,0.01,0,0.02l0.02,0.08l0.02,0.28c0.01,0.05,0.03,0.09,0.05,0.14
		c0.04,0.13,0.1,0.26,0.15,0.4c0.36,0.72,1.08,1.33,1.82,1.81c0.74,0.5,1.56,0.87,2.35,1.2c0.2,0.08,0.4,0.16,0.59,0.23
		c1.39,0.51,2.74,0.82,3.96,1.05c1.39,0.27,2.63,0.4,3.65,0.49c1.01,0.07,1.81,0.12,2.37,0.13c0.49,0.01,0.78,0.02,0.84,0.02h0.01
		c0.07,0,0.35-0.01,0.83-0.02c0.55-0.01,1.35-0.05,2.37-0.13c1.02-0.09,2.25-0.22,3.65-0.49c0.7-0.13,1.44-0.29,2.2-0.49
		s1.56-0.46,2.35-0.78c0.79-0.33,1.61-0.7,2.35-1.2c0.75-0.48,1.47-1.09,1.84-1.81c0.05-0.18,0.11-0.28,0.18-0.47l0.01-0.14
		l0.03-0.25l0.01-0.12V45.4v-0.01l-0.01-0.03L66.01,45.29z M57.19,44.34l-2.78,1.85c0.71,0.33,1.37,0.65,1.95,0.96
		c1.57,0.8,2.56,1.5,2.56,1.5s-0.6-0.03-1.56-0.17c-2.69,0.42-7.74-0.84-7.74-0.84c-3.22,0.84-9.99,0.17-9.99,0.17V47.8
		c-0.11,0.01-0.21,0.01-0.29,0.01c-0.14,0-0.21,0-0.21,0s1.24-0.63,3.18-1.3c0.82-0.3,1.76-0.6,2.78-0.9l-3.6-3.05l0.02-0.03
		c-0.13-0.09-0.19-0.14-0.19-0.14s0.3,0.04,0.83,0.11c0.51,0.07,1.24,0.18,2.1,0.37c0.87,0.17,1.87,0.41,2.92,0.71
		c0.85,0.24,1.74,0.52,2.63,0.82c1.21-0.27,2.43-0.5,3.59-0.69c1.26-0.21,2.44-0.36,3.46-0.46c0.87-0.09,1.63-0.13,2.2-0.15
		c0.48-0.03,0.83-0.03,1.03-0.03c0.13,0,0.2,0,0.2,0S59.07,43.67,57.19,44.34z"/>
	<path class="st3" d="M53.74,68.74c-1.16,0.03-2.34,0.05-3.53,0.05c-1.63,0-3.24-0.03-4.82-0.11c0.01,0.09,0.02,0.18,0.02,0.27
		c0,0.19,0,0.39,0.01,0.59c-0.04,0.39-0.08,0.79-0.19,1.16c-0.1,0.37-0.23,0.71-0.4,0.99c-0.07,0.14-0.15,0.25-0.24,0.36
		c1.29,0.06,2.37,0.09,3.23,0.12c1.55,0.02,2.38,0.03,2.38,0.03s0.83-0.01,2.38-0.03c0.49-0.02,1.06-0.03,1.69-0.05
		c-0.16-0.61-0.36-1.51-0.47-2.45C53.77,69.36,53.75,69.04,53.74,68.74z"/>
	<path class="st3" d="M37.29,68.34c-0.01,0.21-0.04,0.42-0.06,0.64c-0.1,0.42-0.22,0.84-0.41,1.21c-0.18,0.37-0.41,0.69-0.65,0.93
		c-0.06,0.06-0.11,0.1-0.17,0.16c1.86,0.24,3.58,0.42,5.12,0.54c1.1,0.09,2.11,0.16,3.02,0.21c0.04-0.13,0.07-0.28,0.1-0.45
		c0.1-0.56,0.15-1.33,0.18-2.09c0.02-0.28,0.03-0.57,0.04-0.84c-2.45-0.12-4.84-0.32-7.16-0.59C37.3,68.15,37.3,68.25,37.29,68.34z"
		/>
	<path class="st3" d="M36.27,40.96c1.41-0.8,2.94-1.35,4.51-1.77c-0.32-0.17-0.67-0.32-1.05-0.46c-0.45-0.19-0.94-0.36-1.46-0.49
		c-0.09,0.52-1.07,0.94-2.28,0.94c-1.05,0-1.93-0.32-2.2-0.75c-0.19,0.07-0.37,0.14-0.55,0.21c-0.95,0.4-1.76,0.85-2.34,1.34
		c-0.1,0.08-0.2,0.17-0.29,0.26c0.58,0.79,2.12,1.43,4.14,1.76C35.23,41.6,35.75,41.27,36.27,40.96z"/>
	<path class="st3" d="M36.37,67.94c-2.49-0.31-4.88-0.7-7.16-1.17H29.2c0,0.01,0,0.01,0,0.02c-0.03,0.21-0.08,0.42-0.13,0.63
		c-0.13,0.41-0.29,0.82-0.52,1.16c-0.22,0.35-0.48,0.65-0.74,0.87c-0.15,0.13-0.29,0.22-0.43,0.3c1.17,0.27,2.31,0.5,3.41,0.71
		c1.65,0.3,3.19,0.54,4.67,0.74c0.05-0.1,0.11-0.22,0.17-0.34c0.25-0.54,0.49-1.29,0.61-2.06C36.3,68.51,36.34,68.22,36.37,67.94z"
		/>
	<path class="st3" d="M25.75,45.93c-0.43-0.18-0.89-0.34-1.38-0.46c0.02,0.04,0.03,0.09,0.03,0.14c0,0.56-1.02,1.01-2.28,1.01
		c-1.24,0-2.25-0.44-2.28-0.99c-0.2,0.07-0.4,0.14-0.58,0.22c-0.95,0.4-1.76,0.84-2.34,1.33c-0.24,0.2-0.45,0.4-0.62,0.59
		c1.35,0.64,3.45,1.05,5.82,1.05c2.64,0,4.96-0.51,6.26-1.28c-0.09-0.09-0.19-0.18-0.3-0.27C27.52,46.77,26.71,46.29,25.75,45.93z"
		/>
	<path class="st3" d="M28.27,66.57c-1.27-0.27-2.5-0.57-3.69-0.9c-0.05-0.02-0.11-0.03-0.17-0.04c-0.64-0.14-1.83-0.39-3.28-0.65
		c0,0.02-0.01,0.03-0.01,0.05c-0.12,0.41-0.27,0.82-0.5,1.17c-0.21,0.35-0.46,0.65-0.72,0.88c-0.18,0.16-0.35,0.27-0.5,0.36
		c2.6,0.94,5.14,1.65,7.56,2.22c0.1-0.14,0.21-0.31,0.34-0.52c0.3-0.51,0.62-1.23,0.81-1.99C28.17,66.96,28.22,66.76,28.27,66.57z"
		/>
	<path class="st3" d="M13.1,64.04c-0.06,0.06-0.12,0.11-0.18,0.16c-0.09,0.08-0.17,0.13-0.26,0.19c1.7,0.96,3.44,1.76,5.16,2.45
		c0.41,0.16,0.82,0.31,1.23,0.46c0.09-0.13,0.2-0.31,0.33-0.53c0.29-0.5,0.59-1.22,0.77-1.97C17.91,64.43,15.27,64.07,13.1,64.04z"
		/>
</g>
</svg>
