<?xml version="1.0" encoding="utf-8"?>
<!-- Generator: Adobe Illustrator 19.2.0, SVG Export Plug-In . SVG Version: 6.00 Build 0)  -->
<svg version="1.1" id="Layer_5" xmlns="http://www.w3.org/2000/svg" xmlns:xlink="http://www.w3.org/1999/xlink" x="0px" y="0px"
	 viewBox="0 0 100 100" style="enable-background:new 0 0 100 100;" xml:space="preserve">
<style type="text/css">
	.st0{fill:#FFFFFF;}
	.st1{fill:#871300;stroke:#871300;stroke-width:0.04;stroke-miterlimit:10;}
	.st2{fill:#BA2700;stroke:#BA2700;stroke-width:0.04;stroke-miterlimit:10;}
	.st3{fill:#F48B76;stroke:#F48B76;stroke-width:0.04;stroke-miterlimit:10;}
	.st4{fill:#DD3900;stroke:#DD3900;stroke-width:0.04;stroke-miterlimit:10;}
	.st5{fill:#F7CCC6;stroke:#F7CCC6;stroke-width:0.04;stroke-miterlimit:10;}
	.st6{fill:#AAB3C1;stroke:#AAB3C1;stroke-width:0.04;stroke-miterlimit:10;}
	.st7{fill:#AFD4F9;stroke:#AFD4F9;stroke-width:0.04;stroke-miterlimit:10;}
	.st8{fill:#D7DBE2;stroke:#D7DBE2;stroke-width:0.04;stroke-miterlimit:10;}
	.st9{fill:#896045;stroke:#896045;stroke-width:0.04;stroke-miterlimit:10;}
	.st10{stroke:#000000;stroke-width:0.04;stroke-miterlimit:10;}
	.st11{fill:#A37857;stroke:#A37857;stroke-width:0.04;stroke-miterlimit:10;}
	.st12{fill:#545E68;stroke:#545E68;stroke-width:0.04;stroke-miterlimit:10;}
	.st13{fill:#CE9174;stroke:#CE9174;stroke-width:0.04;stroke-miterlimit:10;}
	.st14{fill:#6B4632;stroke:#6B4632;stroke-width:0.04;stroke-miterlimit:10;}
	.st15{fill:#E5A991;stroke:#E5A991;stroke-width:0.04;stroke-miterlimit:10;}
</style>
<g id="XMLID_1_">
	<path class="st0" d="M30.925,78.21c0.279-0.461,5.012-8.371,4.851-7.244C35.615,72.103,31.204,77.855,30.925,78.21z"/>
	<path class="st1" d="M86.869,1.93c-0.021-0.129-0.011-0.236-0.161-0.451c-0.097-0.118-0.129-0.129-0.15-0.15
		c-0.064-0.054-0.118-0.075-0.15-0.086c-0.043-0.011-0.086-0.011-0.14-0.032c-0.193-0.054-0.3-0.011-0.419,0.011
		c-0.129,0.032-0.225,0.075-0.3,0.118c-0.182,0.075-0.333,0.172-0.472,0.279c-0.29,0.193-0.547,0.408-0.783,0.622
		c-0.504,0.429-0.944,0.891-1.395,1.352c-0.891,0.923-1.739,1.867-2.565,2.833c-1.663,1.921-3.241,3.896-4.808,5.849
		c-3.144,3.896-6.149,7.802-9.036,11.59c-2.887,3.788-5.58,7.523-8.156,11.053c-2.522,3.563-4.915,6.933-7.115,10.045
		c-2.2,3.112-4.164,5.988-5.913,8.553c-1.749,2.554-3.273,4.776-4.486,6.632c-1.771,2.672-2.994,4.507-3.541,5.334
		c0.097,0.032,0.193,0.075,0.279,0.129l0.515,0.333c0.59-0.826,1.867-2.597,3.692-5.13c2.586-3.617,6.278-8.778,10.71-14.97
		c4.432-6.192,9.605-13.414,15.142-21.152c2.769-3.863,5.666-7.834,8.682-11.815c1.513-1.975,3.091-3.938,4.711-5.87
		c0.805-0.966,1.631-1.921,2.49-2.833c0.44-0.451,0.88-0.891,1.341-1.299c0.236-0.204,0.472-0.397,0.708-0.547
		c0.086-0.075,0.182-0.129,0.279-0.172c0.075-0.043,0.14-0.064,0.182-0.075c0-0.021,0-0.043,0-0.064
		c0-0.021-0.032-0.075,0.011-0.011h0.011c0.011,0.011,0.011,0.021,0.011,0.021h0.011v0.011c0.043,0.021,0,0,0.032,0.011
		c0,0-0.032,0.011-0.075,0.032C86,2.155,86,2.262,85.978,2.359c-0.064,0.268-0.161,0.558-0.268,0.837
		c-0.215,0.569-0.483,1.138-0.762,1.696c-0.569,1.116-1.181,2.221-1.814,3.305c-1.288,2.168-2.64,4.282-4.003,6.375
		c-2.715,4.185-5.516,8.231-8.178,12.17c-5.376,7.856-10.356,15.207-14.724,21.442c-7.469,10.678-12.813,18.308-14.198,20.283
		l0.601,0.386c0.054,0.032,0.097,0.064,0.15,0.107c0.612-0.816,1.91-2.565,3.767-5.065c2.661-3.563,6.342-8.735,10.764-14.938
		c2.2-3.123,4.572-6.493,7.094-10.055c2.5-3.584,5.13-7.362,7.759-11.343c2.651-3.96,5.301-8.113,7.931-12.373
		c1.309-2.136,2.608-4.303,3.853-6.514c0.622-1.105,1.234-2.221,1.803-3.38c0.279-0.579,0.547-1.159,0.783-1.781
		c0.118-0.311,0.225-0.622,0.29-0.977C86.869,2.359,86.89,2.166,86.869,1.93z"/>
	<path class="st2" d="M85.828,2.155l-1.985,3.08l0.107-0.15c-2.758,6.031-38.741,56.469-43.119,62.608l1.202,0.773
		c1.384-1.975,6.729-9.605,14.198-20.283c4.368-6.235,9.347-13.586,14.724-21.442c2.661-3.938,5.462-7.984,8.178-12.17
		c1.363-2.093,2.715-4.207,4.003-6.375c0.633-1.084,1.245-2.189,1.814-3.305c0.279-0.558,0.547-1.127,0.762-1.696
		c0.107-0.279,0.204-0.569,0.268-0.837C86,2.262,86,2.155,86.01,2.08C85.968,2.091,85.903,2.112,85.828,2.155z"/>
	<path class="st3" d="M85.549,2.327c-0.236,0.15-0.472,0.343-0.708,0.547c-0.461,0.408-0.901,0.848-1.341,1.299
		c-0.859,0.912-1.685,1.867-2.49,2.833c-1.62,1.932-3.198,3.895-4.711,5.87c-3.016,3.981-5.913,7.952-8.682,11.815
		c-5.537,7.737-10.71,14.96-15.142,21.152c-4.432,6.192-8.124,11.354-10.71,14.97c-1.824,2.533-3.101,4.303-3.692,5.13l1.588,1.009
		L83.843,5.235l1.985-3.08C85.731,2.198,85.635,2.252,85.549,2.327z M39.478,65.503c-0.848-0.397,24.811-34.448,26.464-36.637
		C64.451,31.034,40.326,65.89,39.478,65.503z"/>
	<path class="st4" d="M83.843,5.235L39.661,66.952l1.17,0.74c4.378-6.138,40.361-56.577,43.119-62.608L83.843,5.235z"/>
	<path class="st5" d="M65.942,28.866c-1.492,2.168-25.616,37.024-26.464,36.638C38.631,65.106,64.29,31.055,65.942,28.866z"/>
	<g>
		<path class="st6" d="M42.054,69.764l-0.558-0.354c0.397,0.698,0.14,0.837-0.225,0.805l0.343,0.225
			c0.193,0.129,0.44,0.064,0.558-0.118c0.043-0.064,0.064-0.15,0.064-0.215C42.236,69.968,42.172,69.839,42.054,69.764z"/>
		<path class="st6" d="M38.899,71.256L28.715,84.219l0.011,0.011c0.172,0.075,0.354,0.15,0.515,0.193
			c0.043,0.011,0.086,0.032,0.129,0.032c0.268-0.354,0.826-1.095,1.556-2.06c1.041-1.363,2.458-3.155,3.885-4.937
			c1.438-1.771,2.887-3.541,3.992-4.84c0.215-0.247,0.408-0.472,0.601-0.687c0.365-0.429,0.676-0.783,0.901-1.041l-0.74-0.483
			L38.899,71.256z"/>
		<path class="st6" d="M37.944,70.365c0.097,0.064,0.193,0.14,0.29,0.225l0.526-0.698l-0.3-0.193l-1.867-1.191
			c-0.172,0.279-0.397,0.655-0.655,1.116c0.311,0,0.676,0.064,1.062,0.215C37.3,69.957,37.622,70.118,37.944,70.365z"/>
	</g>
	<path class="st7" d="M37.944,70.365L27.738,83.608c0-0.011-0.011-0.021-0.021-0.021c1.599-2.221,7.898-11.043,9.283-13.747
		C37.3,69.957,37.622,70.118,37.944,70.365z"/>
	<g>
		<path class="st8" d="M36.978,66.523c-0.064-0.043-0.14-0.064-0.215-0.064c-0.14,0-0.268,0.064-0.343,0.182
			c-0.064,0.086-0.075,0.204-0.054,0.301c0.021,0.107,0.086,0.204,0.172,0.258l4.282,2.737c0.419-0.107,0.483-0.44,0.483-0.655
			L36.978,66.523z"/>
		<path class="st8" d="M27.738,83.608c0.14,0.129,0.3,0.247,0.461,0.365c0.011,0.011,0.032,0.011,0.043,0.021l9.991-13.404
			c-0.097-0.086-0.193-0.161-0.29-0.225L27.738,83.608z"/>
		<path class="st8" d="M35.937,69.624c-0.15,0.247-0.311,0.504-0.472,0.794c-0.869,1.459-2.082,3.38-3.295,5.291
			c-1.223,1.91-2.458,3.82-3.413,5.226c-0.676,0.998-1.202,1.771-1.449,2.125c0,0.011,0,0.011,0,0.011
			c0.032,0.054,0.075,0.107,0.118,0.172c0.086,0.118,0.182,0.225,0.29,0.343c1.599-2.221,7.898-11.043,9.283-13.747
			C36.613,69.689,36.248,69.624,35.937,69.624z M30.925,78.21c0.279-0.461,5.012-8.371,4.851-7.244
			C35.615,72.103,31.204,77.855,30.925,78.21z"/>
	</g>
	<path class="st9" d="M27.041,85.904c-0.14,0.14-1.256,1.288-1.374,1.374c-0.118,0.086,0.805-1.481,0.901-1.642
		c-0.161,0.107-1.395,0.955-1.513,1.073c0.054-0.086,1.03-1.18,1.159-1.331c-0.15,0.054-1.513,0.547-1.642,0.59
		c0.15-0.14,1.524-1.041,1.524-1.041s-2.071,0.14-2.672,0.193c0.118-0.054,0.247-0.118,0.365-0.172
		c0.912-0.386,1.728-0.558,2.297-0.612c0.279-0.032,0.504-0.043,0.655-0.043c0.14,0,0.215,0,0.215,0V84.23
		c0.011,0.011,0.021,0.032,0.032,0.043c0.161,0.236,0.397,0.429,0.644,0.601c0.236,0.14,0.504,0.258,0.751,0.311
		c0.054,0.193,0.118,0.451,0.204,0.783c0.032,0.343,0.118,0.73,0.129,1.202c0,0.247,0,0.504-0.011,0.773
		c-0.011,0.268-0.064,0.547-0.097,0.848c-0.097,0.58-0.258,1.213-0.515,1.846c-0.247,0.644-0.612,1.288-1.019,1.921
		c-0.419,0.633-0.923,1.245-1.481,1.824c-0.29,0.29-0.59,0.558-0.891,0.837c-0.322,0.247-0.633,0.515-0.966,0.751
		c-0.665,0.472-1.363,0.923-2.103,1.277c-0.354,0.182-0.719,0.354-1.095,0.494c-0.365,0.15-0.74,0.29-1.116,0.386
		c-1.481,0.44-2.951,0.537-4.164,0.247c-1.18-0.279-2.114-0.837-2.468-1.47c2.136,1.03,5.516,1.846,9.133-0.419
		c5.033-3.144,5.602-5.43,5.645-5.698c-0.3,0.644-1.363,1.62-1.502,1.739c2.297-3.735,1.899-6.117,1.899-6.117
		c-0.483,1.792-1.127,2.554-1.202,2.64c0.558-1.395,0.773-3.123,0.773-3.123L26.418,87.9C26.579,87.546,26.998,86.087,27.041,85.904
		z"/>
	<g>
		<path class="st10" d="M86.086,2.048c-0.032-0.011,0.011,0.011-0.032-0.011V2.026h-0.011c0,0,0-0.011-0.011-0.021h-0.011
			C85.978,1.94,86.01,1.994,86.01,2.016c0,0.021,0,0.043,0,0.064C86.053,2.058,86.086,2.048,86.086,2.048z"/>
		<path class="st10" d="M41.485,69.399l-0.182-0.118c0,0.215-0.064,0.547-0.483,0.655l0.451,0.279
			c0.365,0.032,0.622-0.107,0.225-0.805L41.485,69.399z"/>
		<polygon class="st10" points="38.234,70.59 28.242,83.994 28.21,84.037 28.629,84.327 28.715,84.219 38.899,71.256 39.564,70.408 
			38.759,69.893 		"/>
	</g>
	<path class="st11" d="M26.064,92.526c2.297-3.735,1.899-6.117,1.899-6.117c-0.483,1.792-1.127,2.554-1.202,2.64
		c0.558-1.395,0.773-3.123,0.773-3.123L26.418,87.9c0.161-0.354,0.58-1.814,0.622-1.996c-0.14,0.14-1.256,1.288-1.374,1.374
		c-0.118,0.086,0.805-1.481,0.901-1.642c-0.161,0.107-1.395,0.955-1.513,1.073c0.054-0.086,1.03-1.18,1.159-1.331
		c-0.15,0.054-1.513,0.547-1.642,0.59c0.15-0.14,1.524-1.041,1.524-1.041s-2.071,0.14-2.672,0.193
		c-0.333,0.172-0.676,0.376-1.009,0.622c-0.225,0.161-0.461,0.333-0.676,0.547c-0.225,0.182-0.44,0.408-0.644,0.644
		c-0.419,0.461-0.794,0.987-1.116,1.567c-0.343,0.569-0.622,1.213-0.88,1.846c-0.526,1.277-0.891,2.64-1.374,3.896
		c-0.247,0.622-0.537,1.234-0.923,1.749c-0.397,0.515-0.955,0.88-1.524,0.987c-0.558,0.107-1.062,0.021-1.492-0.086
		c-0.419-0.118-0.773-0.247-1.062-0.376c-0.043-0.021-0.086-0.043-0.129-0.064c0.032,0.129,0.086,0.268,0.172,0.429
		c0,0.011,0.011,0.011,0.021,0.021c2.136,1.03,5.516,1.846,9.133-0.419c5.033-3.144,5.602-5.43,5.645-5.698
		C27.266,91.431,26.203,92.407,26.064,92.526z M23.66,94.489c-1.781,1.867-4.389,2.608-4.25,2.522
		c0.107-0.075,1.288-1.599,1.61-1.975c-0.397,0.322-2.393,1.492-2.393,1.492s1.298-1.17,1.824-2.211c0,0-1.449,1.266-2.275,1.878
		c0.204-0.236,1.481-1.706,1.792-3.187c0,0-1.46,2.468-2.941,3.252c0.15-0.172,1.374-1.535,1.985-3.724
		c0.655-2.339,1.975-5.269,4.346-6.278c-0.333,0.258-2.511,2.007-2.951,5.452c0,0,1.803-3.788,3.23-4.497
		c-0.15,0.193-1.459,1.835-2.232,4.228c0,0,1.696-2.211,2.039-2.468l-0.998,2.565c0,0,3.885-4.346,3.477-3.52
		c-0.129,0.247-2.908,4.464-3.112,4.797c0.215-0.161,1.91-1.513,2.726-2.93c0,0-1.138,2.779-1.567,3.391l2.243-2.5
		C26.128,90.991,25.334,92.74,23.66,94.489z"/>
	<path class="st12" d="M42.784,68.959c-0.054-0.043-0.097-0.075-0.15-0.107l-0.601-0.386l-1.202-0.773l-1.17-0.74l-1.588-1.009
		l-0.515-0.333c-0.086-0.054-0.182-0.097-0.279-0.129c-0.258-0.107-0.547-0.129-0.837-0.064c-0.386,0.086-0.719,0.311-0.934,0.644
		c-0.204,0.333-0.279,0.73-0.193,1.116c0.011,0.075,0.032,0.14,0.064,0.204c-0.236,0.376-0.719,1.148-1.341,2.168
		c-0.891,1.449-2.028,3.413-3.166,5.377c-1.116,1.975-2.221,3.96-3.037,5.452c-0.794,1.513-1.331,2.511-1.331,2.511l0.086,0.054
		c0,0.064-0.011,0.15,0,0.268c0.011,0.107,0.032,0.247,0.075,0.386c0.064,0.193,0.14,0.418,0.29,0.633
		c0.011,0.011,0.021,0.032,0.032,0.043c0.161,0.236,0.397,0.429,0.644,0.601c0.236,0.14,0.504,0.258,0.751,0.311
		c0.021,0,0.032,0.011,0.054,0.011c0.258,0.054,0.504,0.054,0.708,0.054c0.14,0.011,0.268-0.021,0.365-0.043
		c0.054-0.021,0.097-0.032,0.129-0.032c0.054-0.011,0.086-0.021,0.118-0.032l0.032,0.032c0,0,0.783-0.837,1.964-2.082
		c1.17-1.256,2.694-2.951,4.217-4.647c1.513-1.717,3.016-3.434,4.11-4.754c0.901-1.095,1.567-1.878,1.771-2.114
		c0.483-0.011,0.944-0.247,1.234-0.676C43.492,70.268,43.353,69.431,42.784,68.959z M39.403,71.932
		c-0.193,0.215-0.386,0.44-0.601,0.687c-1.105,1.299-2.554,3.069-3.992,4.84c-1.427,1.781-2.844,3.574-3.885,4.937
		c-0.73,0.966-1.288,1.706-1.556,2.06c-0.043,0-0.086-0.021-0.129-0.032c-0.161-0.043-0.343-0.118-0.515-0.193l-0.011-0.011
		l-0.086,0.107l-0.419-0.29l0.032-0.043c-0.011-0.011-0.032-0.011-0.043-0.021c-0.161-0.118-0.322-0.236-0.461-0.365
		c0-0.011-0.011-0.021-0.021-0.021c-0.107-0.118-0.204-0.225-0.29-0.343c-0.043-0.064-0.086-0.118-0.118-0.172c0,0,0,0,0-0.011
		c0.247-0.354,0.773-1.127,1.449-2.125c0.955-1.406,2.189-3.316,3.413-5.226c1.213-1.91,2.425-3.831,3.295-5.291
		c0.161-0.29,0.322-0.547,0.472-0.794c0.258-0.461,0.483-0.837,0.655-1.116l1.867,1.191l0.3,0.193l0.805,0.515l0.74,0.483
		C40.079,71.148,39.768,71.502,39.403,71.932z M42.172,70.322c-0.118,0.182-0.365,0.247-0.558,0.118l-0.343-0.225l-0.451-0.279
		l-4.282-2.737c-0.086-0.054-0.15-0.15-0.172-0.258c-0.021-0.097-0.011-0.215,0.054-0.301c0.075-0.118,0.204-0.182,0.343-0.182
		c0.075,0,0.15,0.021,0.215,0.064l4.325,2.758l0.182,0.118l0.011,0.011l0.558,0.354c0.118,0.075,0.182,0.204,0.182,0.343
		C42.236,70.172,42.215,70.258,42.172,70.322z"/>
	<path class="st13" d="M21.052,95.005c0.021-0.021,0.043-0.032,0.043-0.043C21.095,94.962,21.074,94.972,21.052,95.005z
		 M22.812,92.815c0.215-0.161,1.91-1.513,2.726-2.93c0,0-1.138,2.779-1.567,3.391l2.243-2.5c-0.086,0.215-0.88,1.964-2.554,3.713
		c-1.781,1.867-4.389,2.608-4.25,2.522c0.107-0.075,1.288-1.599,1.61-1.975c-0.397,0.322-2.393,1.492-2.393,1.492
		s1.299-1.17,1.824-2.211c0,0-1.449,1.266-2.275,1.878c0.204-0.236,1.481-1.706,1.792-3.187c0,0-1.459,2.468-2.94,3.252
		c0.15-0.172,1.374-1.535,1.985-3.724c0.655-2.339,1.975-5.269,4.346-6.278c-0.333,0.258-2.511,2.007-2.951,5.452
		c0,0,1.803-3.788,3.23-4.497c-0.15,0.193-1.459,1.835-2.232,4.228c0,0,1.696-2.211,2.039-2.468l-0.998,2.565
		c0,0,3.885-4.346,3.477-3.52C25.796,88.265,23.016,92.483,22.812,92.815z"/>
	<path class="st14" d="M29.638,85.679c-0.054-0.182-0.097-0.333-0.129-0.472c-0.097,0.021-0.225,0.054-0.365,0.043
		c-0.204,0-0.451,0-0.708-0.054c-0.021,0-0.032-0.011-0.054-0.011c0.054,0.193,0.118,0.451,0.204,0.783
		c0.032,0.343,0.118,0.73,0.129,1.202c0,0.247,0,0.504-0.011,0.773c-0.011,0.268-0.064,0.547-0.097,0.848
		c-0.097,0.58-0.258,1.213-0.515,1.846c-0.247,0.644-0.612,1.288-1.02,1.921c-0.419,0.633-0.923,1.245-1.481,1.824
		c-0.29,0.29-0.59,0.558-0.891,0.837c-0.322,0.247-0.633,0.515-0.966,0.751c-0.665,0.472-1.363,0.923-2.103,1.277
		c-0.354,0.182-0.719,0.354-1.095,0.494c-0.365,0.15-0.74,0.29-1.116,0.386c-1.481,0.44-2.951,0.537-4.164,0.247
		c-1.181-0.279-2.114-0.837-2.468-1.47c-0.011-0.011-0.021-0.011-0.021-0.021c-0.086-0.161-0.14-0.301-0.172-0.429
		c0.043,0.021,0.086,0.043,0.129,0.064c0.29,0.129,0.644,0.258,1.062,0.376c0.429,0.107,0.934,0.193,1.492,0.086
		c0.569-0.107,1.127-0.472,1.524-0.987c0.386-0.515,0.676-1.127,0.923-1.749c0.483-1.256,0.848-2.619,1.374-3.896
		c0.258-0.633,0.537-1.277,0.88-1.846c0.322-0.58,0.698-1.105,1.116-1.567c0.204-0.236,0.419-0.461,0.644-0.644
		c0.215-0.215,0.451-0.386,0.676-0.547c0.333-0.247,0.676-0.451,1.009-0.622c0.118-0.054,0.247-0.118,0.365-0.172
		c0.912-0.386,1.728-0.558,2.297-0.612c0.279-0.032,0.504-0.043,0.655-0.043c0.14,0,0.215,0,0.215,0V84.23
		c-0.15-0.215-0.225-0.44-0.29-0.633c-0.043-0.14-0.064-0.279-0.075-0.386c-0.161,0.011-0.376,0.021-0.622,0.043
		c-0.644,0.064-1.588,0.215-2.629,0.687c-0.504,0.247-1.052,0.537-1.567,0.923c-0.258,0.204-0.515,0.397-0.751,0.644
		c-0.247,0.236-0.483,0.483-0.698,0.762c-0.451,0.537-0.848,1.138-1.17,1.781c-0.354,0.644-0.612,1.309-0.848,1.996
		c-0.472,1.363-0.773,2.747-1.17,3.992c-0.193,0.612-0.419,1.191-0.73,1.663c-0.301,0.483-0.73,0.805-1.202,0.934
		c-0.977,0.247-1.867-0.043-2.436-0.215c-0.075-0.021-0.14-0.043-0.193-0.064c-0.011,0-0.011,0-0.011,0
		c-0.021-0.011-0.043-0.011-0.054-0.021c0,0.021,0.011,0.054,0.021,0.086c0.011,0.118,0.043,0.258,0.107,0.408
		c0.011,0.032,0.021,0.064,0.032,0.097c0.322,0.708,1.245,1.438,2.5,1.814c1.245,0.376,2.833,0.419,4.421,0.032
		c0.397-0.097,0.794-0.215,1.191-0.365c0.397-0.118,0.794-0.279,1.181-0.461c0.794-0.333,1.545-0.762,2.286-1.234
		c0.365-0.236,0.698-0.515,1.052-0.773c0.333-0.279,0.665-0.569,0.977-0.859c0.612-0.612,1.18-1.245,1.653-1.932
		c0.483-0.676,0.88-1.384,1.17-2.093c0.301-0.708,0.483-1.417,0.601-2.082c0.043-0.343,0.107-0.655,0.118-0.966
		c0-0.311,0-0.601,0-0.88C29.799,86.58,29.691,86.076,29.638,85.679z"/>
</g>
<path class="st0" d="M37.885,67.779l-0.409-0.268c-0.083-0.055-0.107-0.168-0.052-0.251l0.015-0.022
	c0.055-0.083,0.168-0.107,0.251-0.052l0.409,0.268c0.083,0.055,0.107,0.168,0.052,0.251l-0.015,0.022
	C38.081,67.811,37.968,67.834,37.885,67.779z"/>
<path class="st15" d="M21.482,87.878c0,0-1.669,2.096-2.019,4.736C19.464,92.614,21.327,88.111,21.482,87.878z"/>
<path class="st15" d="M22.414,88.461c0,0-1.436,1.902-1.902,3.804c-0.466,1.902-0.854,2.174-0.854,2.174s0.893-1.009,1.203-2.251
	C21.172,90.945,22.414,88.461,22.414,88.461z"/>
<path class="st15" d="M22.181,90.829c0,0-0.854,0.815-1.281,2.329l1.048-1.475c0,0-0.97,2.484-0.738,2.174
	c0.233-0.311,1.592-1.553,2.019-2.446l-1.165,1.009C22.065,92.42,22.414,91.1,22.181,90.829z"/>
<path class="st15" d="M23.152,92.808c0,0-0.699,0.505-1.009,1.203C22.142,94.012,23.307,93.391,23.152,92.808z"/>
</svg>
