<?xml version="1.0" encoding="utf-8"?>
<!-- Generator: Adobe Illustrator 19.2.0, SVG Export Plug-In . SVG Version: 6.00 Build 0)  -->
<svg version="1.1" id="Layer_5" xmlns="http://www.w3.org/2000/svg" xmlns:xlink="http://www.w3.org/1999/xlink" x="0px" y="0px"
	 viewBox="0 0 100 100" style="enable-background:new 0 0 100 100;" xml:space="preserve">
<style type="text/css">
	.st0{fill:#E4EBF4;stroke:#E4EBF4;stroke-width:0.04;stroke-miterlimit:10;}
	.st1{fill:#CE3A4C;stroke:#CE3A4C;stroke-width:0.04;stroke-miterlimit:10;}
	.st2{fill:#EBF0F7;stroke:#EBF0F7;stroke-width:0.04;stroke-miterlimit:10;}
	.st3{fill:#9097A0;stroke:#9097A0;stroke-width:0.04;stroke-miterlimit:10;}
	.st4{fill:#7D9FE2;stroke:#7D9FE2;stroke-width:0.04;stroke-miterlimit:10;}
</style>
<g id="XMLID_1_">
	<g id="XMLID_2_">
		<g>
			<path class="st0" d="M84.16,89.25c-7.64,0.61-23.71,1.88-38.41,3.04c-0.85,1.11-1.61,2.13-2.25,3.04l40.89-3.1
				C84.34,91.6,84.27,90.59,84.16,89.25z"/>
			<path class="st0" d="M46.04,91.91c14.62-1.15,30.52-2.41,38.1-3.02c-0.07-0.86-0.14-1.83-0.22-2.91
				c-7.06,0.57-21.51,1.71-35.38,2.81C47.63,89.89,46.8,90.93,46.04,91.91z"/>
			<path class="st0" d="M48.85,88.41c13.77-1.09,28.06-2.22,35.05-2.79c-0.07-0.82-0.13-1.69-0.2-2.62
				c-6.14,0.5-19.22,1.53-32.42,2.58C50.42,86.55,49.61,87.5,48.85,88.41z"/>
			<path class="st0" d="M51.62,85.2c13.08-1.04,25.97-2.06,32.05-2.55c-0.07-0.95-0.14-1.96-0.22-3.01
				c-5.94,0.48-17.15,1.37-28.84,2.29C53.55,83.04,52.55,84.13,51.62,85.2z"/>
			<path class="st0" d="M54.97,81.55c11.55-0.91,22.59-1.78,28.45-2.25c-0.07-0.98-0.15-2-0.22-3.05
				c-5.42,0.44-14.81,1.18-24.94,1.98C57.11,79.35,56.01,80.46,54.97,81.55z"/>
			<path class="st0" d="M58.66,77.85c9.97-0.79,19.17-1.52,24.51-1.95c-0.08-1-0.15-2.03-0.23-3.09
				c-4.57,0.37-12.13,0.96-20.61,1.64C61.05,75.58,59.83,76.72,58.66,77.85z"/>
			<path class="st0" d="M62.78,74.05c8.29-0.66,15.65-1.24,20.13-1.6c-0.07-1-0.15-2.02-0.22-3.07c-3.71,0.3-9.36,0.75-15.86,1.26
				C65.42,71.77,64.07,72.91,62.78,74.05z"/>
			<path class="st0" d="M67.31,70.26c6.29-0.5,11.74-0.94,15.35-1.23c-0.08-1.06-0.16-2.14-0.25-3.23
				c-2.61,0.21-6.16,0.49-10.27,0.81C70.47,67.8,68.86,69.02,67.31,70.26z"/>
			<path class="st0" d="M72.69,66.22c3.87-0.31,7.21-0.58,9.7-0.78c-0.08-1.01-0.15-2.04-0.23-3.08c-1.18,0.09-2.56,0.2-4.1,0.32
				C76.2,63.82,74.42,65.01,72.69,66.22z"/>
			<path class="st0" d="M82.13,62.02c-0.04-0.54-0.08-1.09-0.12-1.64c-1.13,0.62-2.23,1.26-3.31,1.91
				C79.97,62.19,81.12,62.1,82.13,62.02z"/>
			<path class="st0" d="M57.76,53.89c9.92-0.79,18.85-1.49,23.63-1.88c-0.08-1-0.15-2.01-0.23-3.02
				c-4.38,0.35-11.72,0.93-20.01,1.58C59.99,51.68,58.86,52.78,57.76,53.89z"/>
			<path class="st0" d="M61.55,50.18c8.12-0.64,15.27-1.2,19.58-1.55c-0.07-1.07-0.15-2.15-0.23-3.22
				c-3.64,0.29-9.19,0.73-15.59,1.24C64.03,47.83,62.77,49.01,61.55,50.18z"/>
			<path class="st0" d="M65.73,46.26c6.21-0.49,11.59-0.92,15.14-1.21c-0.08-1.04-0.16-2.08-0.23-3.12
				c-2.67,0.21-6.53,0.52-11.1,0.88C68.24,43.96,66.97,45.11,65.73,46.26z"/>
			<path class="st0" d="M69.97,42.43c4.36-0.35,8.06-0.64,10.64-0.85c-0.08-1.07-0.16-2.14-0.24-3.19c-1.72,0.14-3.86,0.31-6.32,0.5
				C72.66,40.07,71.3,41.25,69.97,42.43z"/>
			<path class="st0" d="M74.51,38.5c2.25-0.18,4.23-0.34,5.83-0.47c-0.07-1.06-0.15-2.11-0.22-3.14c-0.44,0.04-0.91,0.07-1.41,0.11
				C77.28,36.16,75.88,37.33,74.51,38.5z"/>
			<path class="st0" d="M79.63,28.42c-0.02-0.23-0.03-0.46-0.05-0.69c-2.42,0.2-5.76,0.47-9.69,0.78c-1.29,1.21-2.53,2.4-3.74,3.57
				c3.48-0.28,6.65-0.53,9.32-0.74C76.96,30.27,78.35,29.3,79.63,28.42z"/>
			<path class="st0" d="M79.32,24.12c-1.4,0.11-3.14,0.25-5.14,0.41c-1.33,1.22-2.63,2.42-3.89,3.6c3.74-0.3,6.93-0.55,9.26-0.74
				C79.47,26.27,79.39,25.18,79.32,24.12z"/>
			<path class="st0" d="M79.06,20.67c-0.21,0.02-0.43,0.04-0.66,0.05c-1.3,1.16-2.57,2.3-3.8,3.42c1.81-0.14,3.4-0.27,4.69-0.37
				C79.21,22.7,79.13,21.67,79.06,20.67z"/>
			<path class="st0" d="M81.09,52.39c-4.93,0.39-13.85,1.1-23.71,1.87c-1.15,1.15-2.27,2.28-3.36,3.41
				c8.1-0.64,15.72-1.25,21.21-1.68C77.35,54.61,79.31,53.41,81.09,52.39z"/>
			<path class="st0" d="M50.44,61.42c6.7-0.53,13.36-1.05,19.1-1.51c1.79-1.29,3.49-2.47,5.1-3.53c-5.53,0.45-13.05,1.04-20.99,1.67
				C52.55,59.19,51.48,60.31,50.44,61.42z"/>
			<path class="st0" d="M74.92,31.73c-2.65,0.22-5.76,0.46-9.16,0.73c-1.23,1.2-2.42,2.36-3.56,3.51c2.77-0.22,5.4-0.42,7.81-0.62
				C71.74,34.05,73.39,32.84,74.92,31.73z"/>
			<path class="st0" d="M69.5,35.74c-2.39,0.19-4.97,0.4-7.69,0.62c-1.17,1.17-2.29,2.31-3.37,3.42c2.24-0.18,4.42-0.35,6.51-0.52
				C66.52,38.02,68.04,36.85,69.5,35.74z"/>
			<path class="st0" d="M47.35,64.78c5.96-0.47,12.02-0.95,17.54-1.39c1.41-1.09,2.78-2.12,4.1-3.08c-5.71,0.45-12.3,0.97-18.91,1.5
				C49.14,62.81,48.23,63.8,47.35,64.78z"/>
			<path class="st0" d="M64.46,39.66c-2.06,0.16-4.2,0.33-6.39,0.5c-1.15,1.19-2.25,2.35-3.31,3.47c1.8-0.14,3.57-0.28,5.3-0.41
				C61.56,41.97,63.03,40.78,64.46,39.66z"/>
			<path class="st0" d="M44.06,68.48c5.34-0.42,10.86-0.85,16.09-1.27c1.46-1.21,2.88-2.36,4.26-3.44c-5.5,0.44-11.5,0.91-17.4,1.38
				C46,66.28,45.01,67.38,44.06,68.48z"/>
			<path class="st0" d="M59.59,43.6c-1.69,0.14-3.42,0.27-5.18,0.41c-1.1,1.17-2.15,2.31-3.14,3.4c1.42-0.12,2.83-0.23,4.22-0.35
				C56.88,45.87,58.25,44.72,59.59,43.6z"/>
			<path class="st0" d="M40.72,72.36c4.81-0.38,9.87-0.78,14.8-1.17c1.42-1.26,2.81-2.46,4.17-3.59
				c-5.21,0.41-10.69,0.85-15.97,1.26C42.68,70.05,41.68,71.21,40.72,72.36z"/>
			<path class="st0" d="M55.03,47.46c-1.36,0.11-2.73,0.22-4.11,0.33c-1.11,1.22-2.15,2.39-3.12,3.49c1.07-0.09,2.14-0.18,3.21-0.26
				C52.36,49.8,53.7,48.62,55.03,47.46z"/>
			<path class="st0" d="M37.66,76.04c4.39-0.35,9.07-0.72,13.74-1.09c1.25-1.17,2.48-2.3,3.69-3.38c-4.9,0.39-9.92,0.78-14.68,1.16
				C39.46,73.86,38.54,74.96,37.66,76.04z"/>
			<path class="st0" d="M50.59,51.41c-1.04,0.08-2.08,0.16-3.12,0.24c-1,1.15-1.94,2.24-2.8,3.27c0.76-0.06,1.53-0.12,2.3-0.18
				C48.19,53.59,49.39,52.48,50.59,51.41z"/>
			<path class="st0" d="M50.97,75.35c-4.63,0.36-9.27,0.72-13.61,1.07c-0.93,1.13-1.81,2.24-2.66,3.31c4.01-0.32,8.35-0.66,12.77-1
				C48.65,77.56,49.82,76.44,50.97,75.35z"/>
			<path class="st0" d="M46.56,55.12c-0.74,0.06-1.48,0.12-2.21,0.18c-1.04,1.22-1.96,2.34-2.77,3.35c0.48-0.04,0.96-0.08,1.44-0.12
				C44.2,57.37,45.39,56.23,46.56,55.12z"/>
			<path class="st0" d="M47.08,79.11c-4.39,0.35-8.7,0.69-12.67,1c-0.88,1.12-1.71,2.21-2.5,3.25c3.67-0.29,7.71-0.6,11.87-0.93
				C44.9,81.28,46,80.17,47.08,79.11z"/>
			<path class="st0" d="M42.63,58.92c-0.46,0.04-0.91,0.07-1.36,0.11c-1.06,1.31-1.94,2.43-2.63,3.32c0.2-0.02,0.41-0.03,0.62-0.05
				C40.38,61.15,41.5,60.02,42.63,58.92z"/>
			<path class="st0" d="M29.23,86.96c3.38-0.27,7.14-0.56,11.07-0.88c1.06-1.12,2.09-2.21,3.11-3.27
				c-4.14,0.33-8.14,0.65-11.79,0.93C30.77,84.86,29.98,85.94,29.23,86.96z"/>
			<path class="st0" d="M38.36,62.73c-0.01,0-0.01,0-0.01,0c-0.97,1.29-1.5,2.03-1.58,2.14c0.71-0.74,1.41-1.46,2.11-2.18
				C38.7,62.7,38.53,62.71,38.36,62.73z"/>
			<path class="st0" d="M27.93,88.76l0.1,1.29c2.83-0.22,5.97-0.47,9.31-0.74c0.88-0.97,1.75-1.92,2.6-2.84
				c-3.91,0.31-7.64,0.6-10.99,0.87C28.6,87.83,28.26,88.3,27.93,88.76z"/>
			<path class="st0" d="M28.28,93.31c1.85-0.15,3.85-0.3,5.94-0.46c0.93-1.08,1.86-2.13,2.77-3.15c-3.19,0.25-6.21,0.49-8.93,0.71
				L28.28,93.31z"/>
			<path class="st0" d="M28.52,96.46l2.79-0.21c0.87-1.03,1.73-2.04,2.58-3.03c-1.96,0.16-3.83,0.3-5.58,0.44L28.52,96.46z"/>
			<path class="st0" d="M24.32,93.98c-0.76,1.12-1.4,2.11-1.93,2.94l5.63-0.43L27.8,93.7C26.57,93.79,25.41,93.89,24.32,93.98z"/>
			<path class="st0" d="M27.56,90.44c-0.29,0.02-0.58,0.04-0.86,0.06c-0.78,1.12-1.49,2.16-2.12,3.1c1.01-0.08,2.08-0.16,3.2-0.25
				L27.56,90.44z"/>
			<path class="st0" d="M27.48,89.41c-0.18,0.24-0.35,0.48-0.51,0.72c0.19-0.01,0.37-0.03,0.56-0.04L27.48,89.41z"/>
		</g>
		<polygon class="st1" points="28.31,93.66 28.28,93.31 28.06,90.41 28.03,90.05 27.93,88.76 27.83,87.43 27.8,87.07 27.57,84.06 
			27.54,83.71 27.31,80.67 27.28,80.32 27.04,77.23 27.02,76.88 26.78,73.8 26.76,73.46 26.51,70.22 26.48,69.87 26.24,66.79 
			26.22,66.45 26.01,63.7 25.98,63.35 25.74,60.25 25.71,59.9 25.47,56.78 25.45,56.44 25.22,53.41 25.19,53.06 24.94,49.83 
			24.91,49.48 24.67,46.36 24.65,46.01 24.4,42.81 24.38,42.46 24.14,39.33 24.11,38.98 23.86,35.77 23.84,35.42 23.59,32.17 
			23.56,31.81 23.31,28.56 23.28,28.21 23.04,25.1 23.02,24.76 22.8,21.9 22.77,21.55 22.55,18.62 22.52,18.27 22.28,15.21 
			22.26,14.86 21.61,6.37 21.11,6.4 21.76,14.9 21.78,15.25 22.02,18.31 22.05,18.66 22.27,21.59 22.3,21.94 22.52,24.79 
			22.54,25.14 22.78,28.24 22.81,28.59 23.06,31.85 23.09,32.21 23.34,35.46 23.36,35.81 23.61,39.02 23.63,39.36 23.88,42.5 
			23.9,42.85 24.15,46.05 24.17,46.39 24.41,49.52 24.44,49.87 24.69,53.1 24.72,53.45 24.95,56.47 24.97,56.82 25.21,59.94 
			25.24,60.29 25.48,63.39 25.51,63.74 25.72,66.48 25.74,66.82 25.98,69.91 26.01,70.26 26.25,73.5 26.28,73.85 26.52,76.91 
			26.54,77.26 26.78,80.36 26.81,80.7 27.04,83.75 27.07,84.1 27.3,87.11 27.33,87.46 27.48,89.41 27.53,90.09 27.56,90.44 
			27.78,93.35 27.8,93.7 28.02,96.49 28.52,96.46 		"/>
		<g>
			<path class="st2" d="M19.09,97.17l3.3-0.25c0.53-0.83,1.17-1.82,1.93-2.94c-2.14,0.16-3.98,0.31-5.44,0.42L19.09,97.17z"/>
			<path class="st2" d="M18.85,94.05c1.52-0.12,3.47-0.27,5.73-0.45c0.63-0.94,1.34-1.98,2.12-3.1c-3.27,0.27-6.04,0.48-8.07,0.64
				L18.85,94.05z"/>
			<path class="st2" d="M18.41,88.16l0.2,2.63c2.1-0.16,4.96-0.39,8.36-0.66c0.16-0.24,0.33-0.48,0.51-0.72l-0.15-1.95
				C23.78,87.74,20.72,87.98,18.41,88.16z"/>
			<path class="st2" d="M27.07,84.1c-0.74,0.06-1.46,0.11-2.15,0.17c0.01,0.05,0.01,0.09,0.01,0.14c0,1.41-1.14,2.56-2.55,2.56
				c-1.32,0-2.42-1.01-2.55-2.3c-0.6,0.05-1.16,0.09-1.67,0.13l0.22,3.01c2.31-0.18,5.37-0.42,8.92-0.7L27.07,84.1z"/>
			<path class="st2" d="M22.38,81.86c1.24,0,2.28,0.89,2.5,2.06c0.69-0.06,1.42-0.11,2.16-0.17l-0.23-3.05
				c-3.67,0.29-6.75,0.54-8.91,0.7l0.23,3.05c0.52-0.04,1.08-0.09,1.69-0.14C19.88,82.95,21,81.86,22.38,81.86z"/>
			<path class="st2" d="M26.54,77.26c-3.64,0.29-6.71,0.53-8.9,0.7l0.23,3.1c2.16-0.17,5.23-0.41,8.91-0.7L26.54,77.26z"/>
			<path class="st2" d="M26.28,73.85c-3.65,0.28-6.72,0.53-8.9,0.7l0.23,3.06c2.19-0.17,5.27-0.41,8.91-0.7L26.28,73.85z"/>
			<path class="st2" d="M26.01,70.26c-3.66,0.29-6.74,0.53-8.9,0.7l0.25,3.24c2.17-0.17,5.24-0.41,8.89-0.7L26.01,70.26z"/>
			<path class="st2" d="M25.74,66.82c-3.65,0.29-6.72,0.54-8.89,0.7l0.23,3.09c2.16-0.17,5.24-0.41,8.9-0.7L25.74,66.82z"/>
			<path class="st2" d="M25.51,63.74c-3.64,0.28-6.7,0.52-8.89,0.69l0.21,2.75c2.17-0.17,5.24-0.41,8.89-0.7L25.51,63.74z"/>
			<path class="st2" d="M81.93,59.27c-3.12,0.26-7.66,0.62-12.94,1.04c-1.32,0.96-2.69,1.99-4.1,3.08c5.28-0.42,10.07-0.8,13.81-1.1
				c1.08-0.65,2.18-1.29,3.31-1.91C81.99,60.01,81.96,59.64,81.93,59.27z"/>
			<path class="st2" d="M69.54,59.91c5.03-0.4,9.36-0.74,12.37-0.98c-0.08-1.03-0.16-2.07-0.23-3.11c-1.58,0.13-4.01,0.32-7.04,0.56
				C73.03,57.44,71.33,58.62,69.54,59.91z"/>
			<path class="st2" d="M81.65,55.47c-0.08-1.03-0.16-2.07-0.24-3.11c-0.1,0.01-0.21,0.02-0.32,0.03c-1.78,1.02-3.74,2.22-5.86,3.6
				C77.97,55.77,80.18,55.59,81.65,55.47z"/>
			<path class="st2" d="M70.01,35.35c3.65-0.29,6.8-0.54,9.17-0.73c0.29-0.24,0.57-0.47,0.86-0.7c-0.06-0.88-0.13-1.73-0.19-2.58
				c-1.37,0.11-3.03,0.24-4.93,0.39C73.39,32.84,71.74,34.05,70.01,35.35z"/>
			<path class="st2" d="M79.82,30.99c-0.06-0.87-0.13-1.73-0.19-2.57c-1.28,0.88-2.67,1.85-4.16,2.92
				C77.13,31.21,78.59,31.09,79.82,30.99z"/>
			<path class="st2" d="M23.02,24.76c17.22-1.36,45.59-3.6,55.82-4.42c0.06-0.05,0.12-0.1,0.18-0.16c-0.07-0.94-0.13-1.84-0.2-2.71
				c-10.66,0.86-39.08,3.1-56.02,4.43L23.02,24.76z"/>
			<path class="st2" d="M22.77,21.55c16.95-1.33,45.37-3.57,56.02-4.43c-0.07-1.05-0.14-2.03-0.21-2.94
				c-10.21,0.83-38.79,3.08-56.03,4.44L22.77,21.55z"/>
			<path class="st2" d="M22.52,18.27c17.24-1.36,45.83-3.62,56.03-4.44c-0.08-1.15-0.16-2.18-0.22-3.06
				c-10.48,0.85-38.99,3.1-56.05,4.44L22.52,18.27z"/>
			<path class="st2" d="M78.3,10.42c-0.11-1.48-0.18-2.5-0.21-2.96c-0.32-4.53-4.02-4.55-4.47-4.54L21.61,6.37l0.65,8.49
				C39.33,13.51,67.84,11.27,78.3,10.42z"/>
			<path class="st2" d="M78.4,20.72c-10.6,0.85-38.39,3.05-55.36,4.38l0.24,3.11c15.01-1.19,38.71-3.06,51.32-4.07
				C75.83,23.02,77.1,21.88,78.4,20.72z"/>
			<path class="st2" d="M78.71,35c-2.42,0.2-5.58,0.45-9.2,0.74c-0.01,0-0.01,0-0.01,0c-1.46,1.11-2.98,2.28-4.55,3.52
				c3.51-0.27,6.75-0.53,9.56-0.76C75.88,37.33,77.28,36.16,78.71,35z"/>
			<path class="st2" d="M60.15,67.21c4.49-0.35,8.77-0.69,12.54-0.99c1.73-1.21,3.51-2.4,5.37-3.54c-3.76,0.31-8.48,0.68-13.65,1.09
				C63.03,64.85,61.61,66,60.15,67.21z"/>
			<path class="st2" d="M70.29,28.13c1.26-1.18,2.56-2.38,3.89-3.6c-12.73,1.01-36.05,2.85-50.87,4.03l0.25,3.25
				C36.81,30.77,57.02,29.18,70.29,28.13z"/>
			<path class="st2" d="M60.06,43.22c3.52-0.28,6.88-0.55,9.91-0.79c1.33-1.18,2.69-2.36,4.08-3.54c-2.84,0.23-6.09,0.49-9.59,0.77
				C63.03,40.78,61.56,41.97,60.06,43.22z"/>
			<path class="st2" d="M55.52,71.19c4.08-0.32,8.08-0.64,11.79-0.93c1.55-1.24,3.16-2.46,4.83-3.65c-3.77,0.3-8.01,0.64-12.45,0.99
				C58.33,68.73,56.94,69.93,55.52,71.19z"/>
			<path class="st2" d="M69.54,42.81c-3.05,0.25-6.42,0.51-9.95,0.79c-1.34,1.12-2.71,2.27-4.1,3.46c3.55-0.27,7.01-0.55,10.24-0.8
				C66.97,45.11,68.24,43.96,69.54,42.81z"/>
			<path class="st2" d="M66.15,32.08c1.21-1.17,2.45-2.36,3.74-3.57c-13.27,1.06-33.19,2.63-46.3,3.66l0.25,3.25
				C35.68,34.48,53.1,33.11,66.15,32.08z"/>
			<path class="st2" d="M51.4,74.95c3.86-0.3,7.71-0.61,11.38-0.9c1.29-1.14,2.64-2.28,4.05-3.41c-3.7,0.3-7.69,0.61-11.74,0.93
				C53.88,72.65,52.65,73.78,51.4,74.95z"/>
			<path class="st2" d="M62.2,35.97c1.14-1.15,2.33-2.31,3.56-3.51c-13.01,1.04-30.19,2.39-41.9,3.31l0.25,3.21
				C34.82,38.14,49.88,36.95,62.2,35.97z"/>
			<path class="st2" d="M65.31,46.65c-3.25,0.26-6.72,0.53-10.27,0.81h-0.01c-1.33,1.16-2.67,2.34-4.02,3.56
				c3.59-0.28,7.15-0.57,10.54-0.84C62.77,49.01,64.03,47.83,65.31,46.65z"/>
			<path class="st2" d="M47.47,78.73c3.73-0.3,7.51-0.59,11.19-0.88c1.17-1.13,2.39-2.27,3.67-3.4c-3.67,0.29-7.51,0.59-11.36,0.9
				C49.82,76.44,48.65,77.56,47.47,78.73z"/>
			<path class="st2" d="M61.15,50.57c-3.4,0.27-6.97,0.55-10.56,0.84c-1.2,1.07-2.4,2.18-3.62,3.33c3.63-0.29,7.27-0.58,10.79-0.85
				C58.86,52.78,59.99,51.68,61.15,50.57z"/>
			<path class="st2" d="M58.44,39.78c1.08-1.11,2.2-2.25,3.37-3.42c-12.24,0.96-27.09,2.14-37.67,2.97l0.24,3.13
				C33.8,41.72,46.86,40.7,58.44,39.78z"/>
			<path class="st2" d="M43.78,82.43c3.68-0.29,7.46-0.59,11.19-0.88c1.04-1.09,2.14-2.2,3.29-3.32c-3.68,0.29-7.46,0.59-11.18,0.88
				C46,80.17,44.9,81.28,43.78,82.43z"/>
			<path class="st2" d="M57.38,54.26c-3.54,0.29-7.19,0.57-10.82,0.86c-1.17,1.11-2.36,2.25-3.54,3.41c3.67-0.29,7.38-0.58,11-0.86
				C55.11,56.54,56.23,55.41,57.38,54.26z"/>
			<path class="st2" d="M54.76,43.63c1.06-1.12,2.16-2.28,3.31-3.47c-11.48,0.91-24.36,1.92-33.67,2.65l0.25,3.2
				C33.11,45.35,44.33,44.46,54.76,43.63z"/>
			<path class="st2" d="M40.3,86.08c3.68-0.28,7.51-0.58,11.32-0.88c0.93-1.07,1.93-2.16,2.99-3.27c-3.74,0.3-7.52,0.59-11.2,0.88
				C42.39,83.87,41.36,84.96,40.3,86.08z"/>
			<path class="st2" d="M51.27,47.41c0.99-1.09,2.04-2.23,3.14-3.4c-10.33,0.81-21.38,1.69-29.74,2.35l0.24,3.12
				C32.28,48.9,41.89,48.15,51.27,47.41z"/>
			<path class="st2" d="M53.65,58.05c-3.63,0.29-7.36,0.58-11.02,0.87c-1.13,1.1-2.25,2.23-3.37,3.38
				c3.63-0.28,7.41-0.58,11.18-0.88C51.48,60.31,52.55,59.19,53.65,58.05z"/>
			<path class="st2" d="M47.8,51.28c0.97-1.1,2.01-2.27,3.12-3.49c-9.26,0.72-18.7,1.47-25.98,2.04l0.25,3.23
				C31.61,52.55,39.68,51.92,47.8,51.28z"/>
			<path class="st2" d="M37.34,89.31c3.67-0.29,7.57-0.59,11.51-0.9c0.76-0.91,1.57-1.86,2.43-2.83c-3.83,0.3-7.66,0.6-11.34,0.89
				C39.09,87.39,38.22,88.34,37.34,89.31z"/>
			<path class="st2" d="M50.08,61.81c-3.78,0.29-7.57,0.59-11.2,0.88c-0.7,0.72-1.4,1.44-2.11,2.18c0.08-0.11,0.61-0.85,1.58-2.14
				c-4.47,0.35-8.68,0.68-12.34,0.97l0.21,2.75c6-0.47,13.49-1.07,21.13-1.67C48.23,63.8,49.14,62.81,50.08,61.81z"/>
			<path class="st2" d="M34.22,92.85c3.7-0.3,7.7-0.62,11.82-0.94c0.76-0.98,1.59-2.02,2.5-3.12c-3.96,0.31-7.87,0.62-11.55,0.91
				C36.08,90.72,35.15,91.77,34.22,92.85z"/>
			<path class="st2" d="M47.01,65.15c-7.52,0.59-14.87,1.17-20.77,1.64l0.24,3.08c5.06-0.4,11.19-0.88,17.58-1.39
				C45.01,67.38,46,66.28,47.01,65.15z"/>
			<path class="st2" d="M44.67,54.92c0.86-1.03,1.8-2.12,2.8-3.27c-8,0.63-15.92,1.26-22.25,1.76l0.23,3.03
				C31.02,56,37.76,55.47,44.67,54.92z"/>
			<path class="st2" d="M31.31,96.25l12.19-0.92c0.64-0.91,1.4-1.93,2.25-3.04c-4.14,0.32-8.16,0.64-11.86,0.93
				C33.04,94.21,32.18,95.22,31.31,96.25z"/>
			<path class="st2" d="M41.58,58.65c0.81-1.01,1.73-2.13,2.77-3.35c-6.79,0.53-13.4,1.05-18.88,1.48l0.24,3.12
				C30.46,59.53,35.93,59.09,41.58,58.65z"/>
			<path class="st2" d="M43.72,68.86c-6.26,0.49-12.25,0.97-17.21,1.36l0.25,3.24c4.1-0.32,8.9-0.7,13.96-1.1
				C41.68,71.21,42.68,70.05,43.72,68.86z"/>
			<path class="st2" d="M38.64,62.35c0.69-0.89,1.57-2.01,2.63-3.32c-5.52,0.43-10.87,0.85-15.53,1.22l0.24,3.1
				C29.73,63.05,34.06,62.71,38.64,62.35z"/>
			<path class="st2" d="M40.41,72.73c-4.94,0.38-9.62,0.75-13.63,1.07l0.24,3.08c3.2-0.25,6.81-0.54,10.64-0.84
				C38.54,74.96,39.46,73.86,40.41,72.73z"/>
			<path class="st2" d="M34.7,79.73c0.85-1.07,1.73-2.18,2.66-3.31c-3.72,0.29-7.22,0.57-10.32,0.81l0.24,3.09
				C29.56,80.14,32.05,79.94,34.7,79.73z"/>
			<path class="st2" d="M34.41,80.11c-2.52,0.2-4.91,0.39-7.1,0.56l0.23,3.04c1.38-0.11,2.85-0.23,4.37-0.35
				C32.7,82.32,33.53,81.23,34.41,80.11z"/>
			<path class="st2" d="M27.57,84.06l0.23,3.01c0.47-0.04,0.94-0.07,1.43-0.11c0.75-1.02,1.54-2.1,2.39-3.22
				C30.21,83.85,28.86,83.96,27.57,84.06z"/>
			<path class="st2" d="M25.24,60.29c-3.42,0.27-6.45,0.51-8.88,0.7l0.23,3.09c2.19-0.17,5.25-0.41,8.89-0.69L25.24,60.29z"/>
			<path class="st2" d="M24.97,56.82c-3.54,0.28-6.58,0.52-8.87,0.69l0.23,3.13c2.42-0.19,5.46-0.43,8.88-0.7L24.97,56.82z"/>
			<path class="st2" d="M24.72,53.45c-3.6,0.28-6.66,0.52-8.88,0.69l0.23,3.03c2.29-0.18,5.34-0.42,8.88-0.7L24.72,53.45z"/>
			<path class="st2" d="M24.44,49.87c-0.94,0.07-1.83,0.14-2.68,0.21c-0.41,0.85-1.29,1.44-2.29,1.44c-0.87,0-1.64-0.44-2.1-1.1
				c-0.65,0.05-1.25,0.1-1.8,0.14l0.24,3.24c2.22-0.18,5.28-0.42,8.88-0.7L24.44,49.87z"/>
			<path class="st2" d="M24.41,49.52l-0.24-3.13c-1.26,0.11-2.46,0.2-3.57,0.29c0.84,0.42,1.42,1.29,1.42,2.29
				c0,0.26-0.04,0.51-0.12,0.75C22.7,49.66,23.54,49.59,24.41,49.52z"/>
			<path class="st2" d="M19.05,46.45c0.14-0.03,0.28-0.04,0.42-0.04c0.03,0,0.06,0,0.09,0c1.4-0.11,2.94-0.23,4.59-0.36l-0.25-3.2
				c-3.63,0.28-6.68,0.52-8.86,0.7l0.24,3.2c1.05-0.09,2.29-0.18,3.67-0.29C18.98,46.46,19.02,46.45,19.05,46.45z"/>
			<path class="st2" d="M23.63,39.36c-3.54,0.28-6.58,0.52-8.85,0.7l0.23,3.14c2.18-0.17,5.24-0.41,8.87-0.7L23.63,39.36z"/>
			<path class="st2" d="M23.36,35.81c-3.59,0.28-6.63,0.52-8.85,0.69l0.24,3.21c2.27-0.17,5.31-0.41,8.86-0.69L23.36,35.81z"/>
			<path class="st2" d="M23.09,32.21c-3.58,0.28-6.63,0.52-8.85,0.7l0.24,3.24c2.22-0.17,5.27-0.41,8.86-0.69L23.09,32.21z"/>
			<path class="st2" d="M22.81,28.59c-3.56,0.28-6.6,0.52-8.85,0.7l0.25,3.27c2.23-0.18,5.27-0.42,8.85-0.71L22.81,28.59z"/>
			<path class="st2" d="M22.54,25.14c-3.53,0.28-6.56,0.52-8.84,0.69l0.24,3.11c2.25-0.18,5.29-0.42,8.84-0.7L22.54,25.14z"/>
			<path class="st2" d="M22.3,21.94c-3.59,0.28-6.63,0.52-8.84,0.69l0.22,2.86c2.28-0.18,5.31-0.42,8.84-0.7L22.3,21.94z"/>
			<path class="st2" d="M22.05,18.66c-3.54,0.27-6.58,0.51-8.84,0.69l0.22,2.93c2.21-0.17,5.25-0.41,8.84-0.69L22.05,18.66z"/>
			<path class="st2" d="M21.78,15.25c-3.56,0.28-6.59,0.52-8.82,0.69L13.19,19c2.26-0.18,5.29-0.42,8.83-0.69L21.78,15.25z"/>
			<path class="st2" d="M21.11,6.4l-8.83,0.59l0.65,8.6c2.23-0.17,5.26-0.41,8.83-0.69L21.11,6.4z M16.73,15.22
				c-1.41,0-2.56-1.15-2.56-2.56c0-1.4,1.15-2.55,2.56-2.55c1.4,0,2.55,1.15,2.55,2.55C19.28,14.07,18.13,15.22,16.73,15.22z"/>
			<path class="st2" d="M16.91,48.97c0-0.86,0.43-1.63,1.09-2.09c-0.99,0.08-1.89,0.15-2.69,0.22l0.23,3.12
				c0.5-0.04,1.05-0.08,1.64-0.13C17,49.75,16.91,49.37,16.91,48.97z"/>
		</g>
		<g>
			<path class="st3" d="M85.94,92.86c-0.01-0.1-0.11-1.45-0.28-3.73c-0.01-0.12-0.02-0.24-0.03-0.37c-0.06-0.85-0.13-1.82-0.22-2.9
				c0-0.12-0.01-0.24-0.02-0.36c-0.06-0.82-0.13-1.69-0.19-2.62c-0.01-0.12-0.02-0.23-0.03-0.35c-0.07-0.96-0.15-1.97-0.23-3.02
				c-0.01-0.11-0.01-0.22-0.02-0.34c-0.08-0.97-0.15-1.99-0.23-3.04c-0.01-0.12-0.02-0.24-0.03-0.36c-0.07-1-0.15-2.03-0.23-3.08
				c-0.01-0.12-0.01-0.24-0.02-0.36c-0.08-1-0.15-2.03-0.23-3.08c-0.01-0.11-0.02-0.22-0.03-0.34c-0.08-1.06-0.16-2.14-0.24-3.23
				c-0.01-0.12-0.02-0.24-0.03-0.36c-0.07-1.02-0.15-2.05-0.22-3.08c-0.01-0.12-0.02-0.24-0.03-0.35c-0.06-0.77-0.12-1.53-0.17-2.31
				c-0.01-0.14-0.02-0.29-0.03-0.43c-0.01-0.11-0.02-0.23-0.03-0.35c-0.08-1.02-0.15-2.06-0.23-3.1c-0.01-0.12-0.02-0.24-0.03-0.36
				c-0.08-1.03-0.15-2.07-0.23-3.11c-0.01-0.12-0.02-0.23-0.03-0.35c-0.01-0.16-0.02-0.33-0.04-0.49c-0.06-0.84-0.12-1.68-0.18-2.53
				c-0.01-0.12-0.02-0.23-0.03-0.35c-0.08-1.08-0.16-2.15-0.23-3.22c-0.02-0.12-0.03-0.24-0.03-0.36c-0.08-1.04-0.16-2.08-0.24-3.11
				c-0.01-0.12-0.01-0.24-0.02-0.36c-0.08-1.07-0.16-2.14-0.24-3.19c-0.01-0.12-0.02-0.24-0.03-0.36c-0.08-1.06-0.16-2.11-0.24-3.14
				c0-0.12-0.01-0.23-0.02-0.34c-0.04-0.56-0.08-1.11-0.12-1.65c-0.04-0.52-0.08-1.04-0.12-1.56c-0.01-0.12-0.02-0.24-0.02-0.36
				c-0.09-1.11-0.17-2.19-0.25-3.25c-0.09,0.01-0.18,0.02-0.28,0.02c0.09-0.06,0.18-0.13,0.27-0.18c0-0.06,0-0.12-0.01-0.18
				c-0.09-1.12-0.17-2.21-0.24-3.27c-0.01-0.12-0.02-0.24-0.03-0.35c-0.08-1.07-0.16-2.11-0.23-3.1c-0.01-0.12-0.02-0.23-0.03-0.35
				c-0.03-0.43-0.06-0.85-0.09-1.26c-0.04-0.55-0.08-1.08-0.12-1.6c-0.01-0.11-0.02-0.23-0.02-0.34c-0.08-1.05-0.16-2.03-0.23-2.94
				c0-0.12-0.01-0.24-0.02-0.35c-0.08-1.16-0.16-2.18-0.22-3.06c-0.01-0.12-0.02-0.23-0.03-0.35c-0.1-1.46-0.18-2.48-0.21-2.94
				c-0.42-6.09-5.95-5.93-6.03-5.93L21.49,4.87l-0.5,0.04L10.67,5.59l0.76,10.12l0.03,0.35l0.23,3.06l0.03,0.35l0.22,2.93l0.03,0.35
				l0.21,2.86l0.03,0.34l0.23,3.11l0.03,0.35l0.25,3.26l0.02,0.35l0.25,3.25l0.02,0.35l0.25,3.21l0.02,0.35l0.24,3.14l0.03,0.34
				l0.24,3.21l0.02,0.35l0.24,3.12l0.03,0.34l0.24,3.23l0.03,0.35l0.23,3.02l0.02,0.35l0.24,3.12l0.02,0.35l0.24,3.1l0.02,0.36
				l0.21,2.74l0.03,0.34l0.23,3.09l0.03,0.35l0.24,3.24l0.03,0.35l0.23,3.06l0.03,0.35l0.23,3.1l0.03,0.34l0.23,3.05l0.02,0.35
				l0.23,3.01l0.03,0.35l0.2,2.63l0.02,0.35l0.22,2.91l0.03,0.35l0.32,4.26l3.69-0.28l6.73-0.51l0.5-0.04l1.34-0.1l12.42-0.94
				L86,93.61L85.94,92.86z M43.5,95.33l-12.19,0.92l-2.79,0.21l-0.5,0.03l-5.63,0.43l-3.3,0.25l-0.21-2.77l-0.03-0.35l-0.22-2.91
				l-0.02-0.35l-0.2-2.63l-0.03-0.35l-0.22-3.01l-0.03-0.35L17.9,81.4l-0.03-0.34l-0.23-3.1l-0.03-0.35l-0.23-3.06l-0.02-0.35
				l-0.25-3.24l-0.03-0.35l-0.23-3.09l-0.02-0.34l-0.21-2.75l-0.03-0.35l-0.23-3.09l-0.03-0.35l-0.23-3.13l-0.03-0.34l-0.23-3.03
				l-0.03-0.34l-0.24-3.24l-0.03-0.34l-0.23-3.12l-0.03-0.35l-0.24-3.2l-0.03-0.35l-0.23-3.14l-0.03-0.35l-0.24-3.21l-0.03-0.35
				l-0.24-3.24l-0.03-0.35l-0.25-3.27l-0.02-0.35l-0.24-3.11l-0.02-0.34l-0.22-2.86l-0.03-0.35l-0.22-2.93L13.19,19l-0.23-3.06
				l-0.03-0.35l-0.65-8.6l8.83-0.59l0.5-0.03l52.01-3.45c0.45-0.01,4.15,0.01,4.47,4.54c0.03,0.46,0.1,1.48,0.21,2.96
				c0.01,0.11,0.02,0.23,0.03,0.35c0.06,0.88,0.14,1.91,0.22,3.06c0.01,0.12,0.02,0.24,0.03,0.35c0.07,0.91,0.14,1.89,0.21,2.94
				c0.01,0.11,0.02,0.23,0.03,0.35c0.07,0.87,0.13,1.77,0.2,2.71c0,0.05,0.01,0.09,0.01,0.14c0.01,0.12,0.02,0.24,0.03,0.35
				c0.07,1,0.15,2.03,0.23,3.1c0.01,0.12,0.02,0.23,0.03,0.35c0.07,1.06,0.15,2.15,0.23,3.27c0.02,0.12,0.02,0.23,0.03,0.34
				c0.02,0.23,0.03,0.46,0.05,0.69c0.06,0.84,0.13,1.7,0.19,2.57c0.01,0.11,0.02,0.23,0.03,0.35c0.06,0.85,0.13,1.7,0.19,2.58
				c0.02,0.21,0.03,0.42,0.05,0.63c0.01,0.11,0.02,0.23,0.03,0.34c0.07,1.03,0.15,2.08,0.22,3.14c0.02,0.12,0.03,0.24,0.03,0.36
				c0.08,1.05,0.16,2.12,0.24,3.19c0.01,0.12,0.02,0.24,0.03,0.35c0.07,1.04,0.15,2.08,0.23,3.12c0.01,0.12,0.02,0.24,0.03,0.36
				c0.08,1.07,0.16,2.15,0.23,3.22c0.02,0.12,0.03,0.24,0.03,0.36c0.08,1.01,0.15,2.02,0.23,3.02c0.15-0.01,0.29-0.03,0.43-0.04
				c-0.14,0.07-0.28,0.15-0.42,0.23c0,0.06,0.01,0.11,0.01,0.16c0.08,1.04,0.16,2.08,0.24,3.11c0,0.12,0.01,0.24,0.03,0.35
				c0.07,1.04,0.15,2.08,0.23,3.11c0,0.11,0.01,0.23,0.02,0.34c0.03,0.37,0.06,0.74,0.08,1.11c0.04,0.55,0.08,1.1,0.12,1.64
				c0.01,0.12,0.02,0.23,0.03,0.34c0.08,1.04,0.15,2.07,0.23,3.08c0.01,0.12,0.02,0.24,0.02,0.36c0.09,1.09,0.17,2.17,0.25,3.23
				c0.01,0.12,0.01,0.23,0.03,0.35c0.07,1.05,0.15,2.07,0.22,3.07c0.01,0.12,0.02,0.24,0.03,0.36c0.08,1.06,0.15,2.09,0.23,3.09
				c0.01,0.11,0.02,0.23,0.03,0.35c0.07,1.05,0.15,2.07,0.22,3.05c0.01,0.11,0.02,0.23,0.03,0.34c0.08,1.05,0.15,2.06,0.22,3.01
				c0.01,0.12,0.02,0.24,0.03,0.35c0.07,0.93,0.13,1.8,0.2,2.62c0,0.12,0.01,0.24,0.02,0.36c0.08,1.08,0.15,2.05,0.22,2.91
				c0.01,0.12,0.02,0.25,0.02,0.36c0.11,1.34,0.18,2.35,0.23,2.98L43.5,95.33z"/>
			<path class="st3" d="M24.88,83.92c-0.22-1.17-1.26-2.06-2.5-2.06c-1.38,0-2.5,1.09-2.56,2.45c0,0.03,0,0.07,0,0.1
				c0,0.09,0,0.18,0.01,0.26c0.13,1.29,1.23,2.3,2.55,2.3c1.41,0,2.55-1.15,2.55-2.56c0-0.05,0-0.09-0.01-0.14
				C24.92,84.15,24.91,84.04,24.88,83.92z M22.38,85.97c-0.8,0-1.46-0.6-1.54-1.38c-0.02-0.06-0.02-0.12-0.02-0.18s0-0.12,0.02-0.17
				c0.08-0.78,0.74-1.38,1.54-1.38c0.71,0,1.31,0.48,1.49,1.14c0.04,0.11,0.05,0.23,0.05,0.35c0.01,0.02,0.01,0.04,0.01,0.06
				C23.93,85.27,23.23,85.97,22.38,85.97z"/>
			<path class="st3" d="M21.76,50.08c0.06-0.11,0.11-0.24,0.14-0.36c0.08-0.24,0.12-0.49,0.12-0.75c0-1-0.58-1.87-1.42-2.29
				c-0.31-0.16-0.67-0.26-1.04-0.27c-0.03,0-0.06,0-0.09,0c-0.14,0-0.28,0.01-0.42,0.04c-0.03,0-0.07,0.01-0.1,0.01
				c-0.34,0.07-0.66,0.22-0.94,0.42c-0.01,0-0.01,0-0.01,0c-0.66,0.46-1.09,1.23-1.09,2.09c0,0.4,0.09,0.78,0.27,1.12
				c0.05,0.12,0.12,0.23,0.19,0.33c0.46,0.66,1.23,1.1,2.1,1.1C20.47,51.52,21.35,50.93,21.76,50.08z M20.76,49.81
				c-0.09,0.15-0.21,0.28-0.35,0.38c-0.26,0.21-0.59,0.33-0.94,0.33c-0.27,0-0.53-0.07-0.75-0.2c-0.16-0.08-0.3-0.19-0.4-0.32
				c-0.26-0.27-0.41-0.64-0.41-1.03c0-0.86,0.7-1.56,1.56-1.56c0.85,0,1.55,0.7,1.55,1.56C21.02,49.28,20.93,49.57,20.76,49.81z"/>
			<path class="st3" d="M19.28,12.66c0-1.4-1.15-2.55-2.55-2.55c-1.41,0-2.56,1.15-2.56,2.55c0,1.41,1.15,2.56,2.56,2.56
				C18.13,15.22,19.28,14.07,19.28,12.66z M16.73,14.22c-0.86,0-1.56-0.7-1.56-1.56c0-0.85,0.7-1.55,1.56-1.55
				c0.85,0,1.55,0.7,1.55,1.55C18.28,13.52,17.58,14.22,16.73,14.22z"/>
		</g>
		<g>
			<path class="st4" d="M84.14,88.89c-7.58,0.61-23.48,1.87-38.1,3.02c-4.12,0.32-8.12,0.64-11.82,0.94
				c-2.09,0.16-4.09,0.31-5.94,0.46l0.03,0.35c1.75-0.14,3.62-0.28,5.58-0.44c3.7-0.29,7.72-0.61,11.86-0.93
				c14.7-1.16,30.77-2.43,38.41-3.04C84.16,89.14,84.15,89.01,84.14,88.89z"/>
			<path class="st4" d="M81.06,27.45c-0.09,0.05-0.18,0.12-0.27,0.18c0.1,0,0.19-0.01,0.28-0.02C81.07,27.55,81.06,27.5,81.06,27.45
				z"/>
			<path class="st4" d="M70.01,35.35c-2.41,0.2-5.04,0.4-7.81,0.62c-12.32,0.98-27.38,2.17-38.09,3.01l0.03,0.35
				c10.58-0.83,25.43-2.01,37.67-2.97c2.72-0.22,5.3-0.43,7.69-0.62c0,0,0,0,0.01,0c3.62-0.29,6.78-0.54,9.2-0.74
				c0.5-0.04,0.97-0.07,1.41-0.11c-0.01-0.11-0.02-0.23-0.03-0.34c-0.29,0.02-0.59,0.05-0.91,0.07
				C76.81,34.81,73.66,35.06,70.01,35.35z"/>
			<path class="st4" d="M23.04,25.1c16.97-1.33,44.76-3.53,55.36-4.38c0.23-0.01,0.45-0.03,0.66-0.05
				c-0.01-0.11-0.02-0.23-0.03-0.35c-0.06,0-0.13,0.01-0.19,0.02c-10.23,0.82-38.6,3.06-55.82,4.42L23.04,25.1z"/>
			<path class="st4" d="M22.8,21.9c16.94-1.33,45.36-3.57,56.02-4.43c-0.01-0.12-0.02-0.24-0.03-0.35
				c-10.65,0.86-39.07,3.1-56.02,4.43L22.8,21.9z"/>
			<path class="st4" d="M64.89,63.39c-5.52,0.44-11.58,0.92-17.54,1.39c-7.64,0.6-15.13,1.2-21.13,1.67l0.02,0.34
				c5.9-0.47,13.25-1.05,20.77-1.64c5.9-0.47,11.9-0.94,17.4-1.38c5.17-0.41,9.89-0.78,13.65-1.09c1.54-0.12,2.92-0.23,4.1-0.32
				c-0.01-0.11-0.02-0.22-0.03-0.34c-1.01,0.08-2.16,0.17-3.43,0.27C74.96,62.59,70.17,62.97,64.89,63.39z"/>
			<path class="st4" d="M22.55,18.62c17.24-1.36,45.82-3.61,56.03-4.44c-0.01-0.11-0.02-0.23-0.03-0.35
				c-10.2,0.82-38.79,3.08-56.03,4.44L22.55,18.62z"/>
			<path class="st4" d="M78.33,10.77c-0.01-0.12-0.02-0.24-0.03-0.35c-10.46,0.85-38.97,3.09-56.04,4.44l0.02,0.35
				C39.34,13.87,67.85,11.62,78.33,10.77z"/>
			<path class="st4" d="M66.15,32.08c-13.05,1.03-30.47,2.4-42.31,3.34l0.02,0.35c11.71-0.92,28.89-2.27,41.9-3.31
				c3.4-0.27,6.51-0.51,9.16-0.73c1.9-0.15,3.56-0.28,4.93-0.39c-0.01-0.12-0.02-0.24-0.03-0.35c-1.23,0.1-2.69,0.22-4.35,0.35
				C72.8,31.55,69.63,31.8,66.15,32.08z"/>
			<path class="st4" d="M23.28,28.21l0.03,0.35c14.82-1.18,38.14-3.02,50.87-4.03c2-0.16,3.74-0.3,5.14-0.41
				c-0.01-0.12-0.02-0.23-0.03-0.35C78,23.87,76.41,24,74.6,24.14C61.99,25.15,38.29,27.02,23.28,28.21z"/>
			<path class="st4" d="M64.95,39.26c-2.09,0.17-4.27,0.34-6.51,0.52c-11.58,0.92-24.64,1.94-34.06,2.68l0.02,0.35
				c9.31-0.73,22.19-1.74,33.67-2.65c2.19-0.17,4.33-0.34,6.39-0.5c3.5-0.28,6.75-0.54,9.59-0.77c2.46-0.19,4.6-0.36,6.32-0.5
				c0-0.12-0.01-0.24-0.03-0.36c-1.6,0.13-3.58,0.29-5.83,0.47C71.7,38.73,68.46,38.99,64.95,39.26z"/>
			<path class="st4" d="M60.15,67.21c-5.23,0.42-10.75,0.85-16.09,1.27c-6.39,0.51-12.52,0.99-17.58,1.39l0.03,0.35
				c4.96-0.39,10.95-0.87,17.21-1.36c5.28-0.41,10.76-0.85,15.97-1.26c4.44-0.35,8.68-0.69,12.45-0.99
				c4.11-0.32,7.66-0.6,10.27-0.81c0-0.12-0.01-0.24-0.02-0.36c-2.49,0.2-5.83,0.47-9.7,0.78C68.92,66.52,64.64,66.86,60.15,67.21z"
				/>
			<path class="st4" d="M23.56,31.81l0.03,0.36c13.11-1.03,33.03-2.6,46.3-3.66c3.93-0.31,7.27-0.58,9.69-0.78
				c-0.01-0.11-0.01-0.22-0.03-0.34c-2.33,0.19-5.52,0.44-9.26,0.74C57.02,29.18,36.81,30.77,23.56,31.81z"/>
			<path class="st4" d="M60.06,43.22c-1.73,0.13-3.5,0.27-5.3,0.41c-10.43,0.83-21.65,1.72-30.11,2.38l0.02,0.35
				c8.36-0.66,19.41-1.54,29.74-2.35c1.76-0.14,3.49-0.27,5.18-0.41c3.53-0.28,6.9-0.54,9.95-0.79c4.57-0.36,8.43-0.67,11.1-0.88
				c-0.01-0.11-0.02-0.23-0.03-0.35c-2.58,0.21-6.28,0.5-10.64,0.85C66.94,42.67,63.58,42.94,60.06,43.22z"/>
			<path class="st4" d="M50.44,61.42c-3.77,0.3-7.55,0.6-11.18,0.88c-0.21,0.02-0.42,0.03-0.62,0.05c-4.58,0.36-8.91,0.7-12.66,1
				l0.03,0.35c3.66-0.29,7.87-0.62,12.34-0.97c0,0,0,0,0.01,0c0.17-0.02,0.34-0.03,0.52-0.04c3.63-0.29,7.42-0.59,11.2-0.88
				c6.61-0.53,13.2-1.05,18.91-1.5c5.28-0.42,9.82-0.78,12.94-1.04c-0.01-0.11-0.02-0.23-0.02-0.34c-3.01,0.24-7.34,0.58-12.37,0.98
				C63.8,60.37,57.14,60.89,50.44,61.42z"/>
			<path class="st4" d="M55.52,71.19c-4.93,0.39-9.99,0.79-14.8,1.17c-5.06,0.4-9.86,0.78-13.96,1.1l0.02,0.34
				c4.01-0.32,8.69-0.69,13.63-1.07c4.76-0.38,9.78-0.77,14.68-1.16c4.05-0.32,8.04-0.63,11.74-0.93c6.5-0.51,12.15-0.96,15.86-1.26
				c-0.02-0.12-0.02-0.23-0.03-0.35c-3.61,0.29-9.06,0.73-15.35,1.23C63.6,70.55,59.6,70.87,55.52,71.19z"/>
			<path class="st4" d="M51.4,74.95c-4.67,0.37-9.35,0.74-13.74,1.09c-3.83,0.3-7.44,0.59-10.64,0.84l0.02,0.35
				c3.1-0.24,6.6-0.52,10.32-0.81c4.34-0.35,8.98-0.71,13.61-1.07c3.85-0.31,7.69-0.61,11.36-0.9c8.48-0.68,16.04-1.27,20.61-1.64
				c-0.01-0.12-0.02-0.24-0.03-0.36c-4.48,0.36-11.84,0.94-20.13,1.6C59.11,74.34,55.26,74.65,51.4,74.95z"/>
			<path class="st4" d="M51.01,51.02c-1.07,0.08-2.14,0.17-3.21,0.26c-8.12,0.64-16.19,1.27-22.61,1.78l0.03,0.35
				c6.33-0.5,14.25-1.13,22.25-1.76c1.04-0.08,2.08-0.16,3.12-0.24c3.59-0.29,7.16-0.57,10.56-0.84c8.29-0.65,15.63-1.23,20.01-1.58
				c0-0.12-0.01-0.24-0.03-0.36c-4.31,0.35-11.46,0.91-19.58,1.55C58.16,50.45,54.6,50.74,51.01,51.02z"/>
			<path class="st4" d="M47.47,78.73c-4.42,0.34-8.76,0.68-12.77,1c-2.65,0.21-5.14,0.41-7.42,0.59l0.03,0.35
				c2.19-0.17,4.58-0.36,7.1-0.56c3.97-0.31,8.28-0.65,12.67-1c3.72-0.29,7.5-0.59,11.18-0.88c10.13-0.8,19.52-1.54,24.94-1.98
				c-0.01-0.12-0.02-0.24-0.03-0.35c-5.34,0.43-14.54,1.16-24.51,1.95C54.98,78.14,51.2,78.43,47.47,78.73z"/>
			<path class="st4" d="M46.97,54.74c-0.77,0.06-1.54,0.12-2.3,0.18c-6.91,0.55-13.65,1.08-19.22,1.52l0.02,0.34
				c5.48-0.43,12.09-0.95,18.88-1.48c0.73-0.06,1.47-0.12,2.21-0.18c3.63-0.29,7.28-0.57,10.82-0.86
				c9.86-0.77,18.78-1.48,23.71-1.87c0.11-0.01,0.22-0.02,0.32-0.03c0-0.05-0.01-0.1-0.01-0.16c0.14-0.08,0.28-0.16,0.42-0.23
				c-0.14,0.01-0.28,0.03-0.43,0.04c-4.78,0.39-13.71,1.09-23.63,1.88C54.24,54.16,50.6,54.45,46.97,54.74z"/>
			<path class="st4" d="M55.03,47.46h0.01c3.55-0.28,7.02-0.55,10.27-0.81c6.4-0.51,11.95-0.95,15.59-1.24
				c-0.01-0.12-0.02-0.24-0.03-0.36c-3.55,0.29-8.93,0.72-15.14,1.21c-3.23,0.25-6.69,0.53-10.24,0.8c-1.39,0.12-2.8,0.23-4.22,0.35
				c-9.38,0.74-18.99,1.49-26.36,2.07l0.03,0.35c7.28-0.57,16.72-1.32,25.98-2.04C52.3,47.68,53.67,47.57,55.03,47.46z"/>
			<path class="st4" d="M43.78,82.43c-4.16,0.33-8.2,0.64-11.87,0.93c-1.52,0.12-2.99,0.24-4.37,0.35l0.03,0.35
				c1.29-0.1,2.64-0.21,4.05-0.32c3.65-0.28,7.65-0.6,11.79-0.93c3.68-0.29,7.46-0.58,11.2-0.88c11.69-0.92,22.9-1.81,28.84-2.29
				c-0.01-0.11-0.02-0.23-0.03-0.34c-5.86,0.47-16.9,1.34-28.45,2.25C51.24,81.84,47.46,82.14,43.78,82.43z"/>
			<path class="st4" d="M48.54,88.79c13.87-1.1,28.32-2.24,35.38-2.81c-0.01-0.12-0.02-0.24-0.02-0.36
				c-6.99,0.57-21.28,1.7-35.05,2.79c-3.94,0.31-7.84,0.61-11.51,0.9c-3.34,0.27-6.48,0.52-9.31,0.74l0.03,0.36
				c2.72-0.22,5.74-0.46,8.93-0.71C40.67,89.41,44.58,89.1,48.54,88.79z"/>
			<path class="st4" d="M39.94,86.47c3.68-0.29,7.51-0.59,11.34-0.89C64.48,84.53,77.56,83.5,83.7,83
				c-0.01-0.11-0.02-0.23-0.03-0.35c-6.08,0.49-18.97,1.51-32.05,2.55c-3.81,0.3-7.64,0.6-11.32,0.88
				c-3.93,0.32-7.69,0.61-11.07,0.88c-0.49,0.04-0.96,0.07-1.43,0.11l0.03,0.36c0.37-0.03,0.74-0.06,1.12-0.09
				C32.3,87.07,36.03,86.78,39.94,86.47z"/>
			<path class="st4" d="M24.58,93.6c-2.26,0.18-4.21,0.33-5.73,0.45l0.03,0.35c1.46-0.11,3.3-0.26,5.44-0.42
				c1.09-0.09,2.25-0.19,3.48-0.28l-0.02-0.35C26.66,93.44,25.59,93.52,24.58,93.6z"/>
			<path class="st4" d="M27.56,90.44l-0.03-0.35c-0.19,0.01-0.37,0.03-0.56,0.04c-3.4,0.27-6.26,0.5-8.36,0.66l0.02,0.35
				c2.03-0.16,4.8-0.37,8.07-0.64C26.98,90.48,27.27,90.46,27.56,90.44z"/>
			<path class="st4" d="M27.3,87.11c-3.55,0.28-6.61,0.52-8.92,0.7l0.03,0.35c2.31-0.18,5.37-0.42,8.92-0.7L27.3,87.11z"/>
			<path class="st4" d="M24.88,83.92c0.03,0.12,0.04,0.23,0.04,0.35c0.69-0.06,1.41-0.11,2.15-0.17l-0.03-0.35
				C26.3,83.81,25.57,83.86,24.88,83.92z"/>
			<path class="st4" d="M26.78,80.36c-3.68,0.29-6.75,0.53-8.91,0.7l0.03,0.34c2.16-0.16,5.24-0.41,8.91-0.7L26.78,80.36z"/>
			<path class="st4" d="M26.52,76.91c-3.64,0.29-6.72,0.53-8.91,0.7l0.03,0.35c2.19-0.17,5.26-0.41,8.9-0.7L26.52,76.91z"/>
			<path class="st4" d="M26.25,73.5c-3.65,0.29-6.72,0.53-8.89,0.7l0.02,0.35c2.18-0.17,5.25-0.42,8.9-0.7L26.25,73.5z"/>
			<path class="st4" d="M25.98,69.91c-3.66,0.29-6.74,0.53-8.9,0.7l0.03,0.35c2.16-0.17,5.24-0.41,8.9-0.7L25.98,69.91z"/>
			<path class="st4" d="M25.72,66.48c-3.65,0.29-6.72,0.53-8.89,0.7l0.02,0.34c2.17-0.16,5.24-0.41,8.89-0.7L25.72,66.48z"/>
			<path class="st4" d="M25.48,63.39c-3.64,0.28-6.7,0.52-8.89,0.69l0.03,0.35c2.19-0.17,5.25-0.41,8.89-0.69L25.48,63.39z"/>
			<path class="st4" d="M25.21,59.94c-3.42,0.27-6.46,0.51-8.88,0.7l0.03,0.35c2.43-0.19,5.46-0.43,8.88-0.7L25.21,59.94z"/>
			<path class="st4" d="M24.95,56.47c-3.54,0.28-6.59,0.52-8.88,0.7l0.03,0.34c2.29-0.17,5.33-0.41,8.87-0.69L24.95,56.47z"/>
			<path class="st4" d="M24.69,53.1c-3.6,0.28-6.66,0.52-8.88,0.7l0.03,0.34c2.22-0.17,5.28-0.41,8.88-0.69L24.69,53.1z"/>
			<path class="st4" d="M24.41,49.52c-0.87,0.07-1.71,0.14-2.51,0.2c-0.03,0.12-0.08,0.25-0.14,0.36c0.85-0.07,1.74-0.14,2.68-0.21
				L24.41,49.52z"/>
			<path class="st4" d="M24.15,46.05c-1.65,0.13-3.19,0.25-4.59,0.36c0.37,0.01,0.73,0.11,1.04,0.27c1.11-0.09,2.31-0.18,3.57-0.29
				L24.15,46.05z"/>
			<path class="st4" d="M23.88,42.5c-3.63,0.29-6.69,0.53-8.87,0.7l0.03,0.35c2.18-0.18,5.23-0.42,8.86-0.7L23.88,42.5z"/>
			<path class="st4" d="M23.61,39.02c-3.55,0.28-6.59,0.52-8.86,0.69l0.03,0.35c2.27-0.18,5.31-0.42,8.85-0.7L23.61,39.02z"/>
			<path class="st4" d="M23.34,35.46c-3.59,0.28-6.64,0.52-8.86,0.69l0.03,0.35c2.22-0.17,5.26-0.41,8.85-0.69L23.34,35.46z"/>
			<path class="st4" d="M23.06,31.85c-3.58,0.29-6.62,0.53-8.85,0.71l0.03,0.35c2.22-0.18,5.27-0.42,8.85-0.7L23.06,31.85z"/>
			<path class="st4" d="M22.78,28.24c-3.55,0.28-6.59,0.52-8.84,0.7l0.02,0.35c2.25-0.18,5.29-0.42,8.85-0.7L22.78,28.24z"/>
			<path class="st4" d="M22.52,24.79c-3.53,0.28-6.56,0.52-8.84,0.7l0.02,0.34c2.28-0.17,5.31-0.41,8.84-0.69L22.52,24.79z"/>
			<path class="st4" d="M22.27,21.59c-3.59,0.28-6.63,0.52-8.84,0.69l0.03,0.35c2.21-0.17,5.25-0.41,8.84-0.69L22.27,21.59z"/>
			<path class="st4" d="M22.02,18.31c-3.54,0.27-6.57,0.51-8.83,0.69l0.02,0.35c2.26-0.18,5.3-0.42,8.84-0.69L22.02,18.31z"/>
			<path class="st4" d="M21.76,14.9c-3.57,0.28-6.6,0.52-8.83,0.69l0.03,0.35c2.23-0.17,5.26-0.41,8.82-0.69L21.76,14.9z"/>
			<path class="st4" d="M19.82,84.41c0-0.03,0-0.07,0-0.1c-0.61,0.05-1.17,0.1-1.69,0.14l0.03,0.35c0.51-0.04,1.07-0.08,1.67-0.13
				C19.82,84.59,19.82,84.5,19.82,84.41z"/>
			<path class="st4" d="M18.01,46.88c0.28-0.2,0.6-0.35,0.94-0.42c-1.38,0.11-2.62,0.2-3.67,0.29l0.03,0.35
				c0.8-0.07,1.7-0.14,2.69-0.22C18,46.88,18,46.88,18.01,46.88z"/>
			<path class="st4" d="M17.18,50.09c-0.59,0.05-1.14,0.09-1.64,0.13l0.03,0.34c0.55-0.04,1.15-0.09,1.8-0.14
				C17.3,50.32,17.23,50.21,17.18,50.09z"/>
			<path class="st4" d="M42.63,58.92c3.66-0.29,7.39-0.58,11.02-0.87c7.94-0.63,15.46-1.22,20.99-1.67
				c3.03-0.24,5.46-0.43,7.04-0.56c-0.02-0.11-0.03-0.23-0.03-0.35c-1.47,0.12-3.68,0.3-6.42,0.52c-5.49,0.43-13.11,1.04-21.21,1.68
				c-3.62,0.28-7.33,0.57-11,0.86c-0.48,0.04-0.96,0.08-1.44,0.12c-5.65,0.44-11.12,0.88-15.87,1.25l0.03,0.35
				c4.66-0.37,10.01-0.79,15.53-1.22C41.72,58.99,42.17,58.96,42.63,58.92z"/>
		</g>
	</g>
</g>
</svg>
