<svg xmlns="http://www.w3.org/2000/svg" viewBox="0 0 100 100">
    <path fill="none" d="M49.82 6.34c-.01-.01-.02-.01-.02-.01-.25-.1-.52-.15-.81-.15-1.17 0-2.11.9-2.11 2.02 0 1.11.94 2.01 2.11 2.01s2.12-.9 2.12-2.01c0-.06 0-.13-.01-.19 0-.01 0-.03-.01-.05-.07-.29-.19-.57-.36-.82-.23-.33-.54-.61-.91-.8zm-.64 3.73c-.82 0-1.48-.66-1.48-1.48 0-.83.66-1.49 1.48-1.49s1.49.66 1.49 1.49c0 .82-.67 1.48-1.49 1.48z"/>
    <path d="M64.57 19.51c.01-.01.03-.01.04-.02.16-.1.3-.23.41-.38-.09-.3-.19-.59-.3-.88-.06.06-.12.12-.19.18-.09.07-.18.13-.27.2.1.29.21.59.31.9zm-.25-2.4c-.1-.26-.21-.52-.33-.78-.15.12-.34.14-.5.24-.01.01-.02.02-.03.02.13.3.26.61.39.94.13-.17.28-.31.47-.42zm-1.43-1.85c.13-.13.27-.24.43-.33-.19-.37-.38-.72-.59-1.07-.16.06-.32.11-.46.18.24.4.45.8.6 1.16.01.02.02.04.02.06zm3.24 9.86c-.11-1.7-.402-3.38-.842-5.012-.034-.126-.062-.253-.098-.378-.1.11-.2.22-.3.32l-.12.12c.203.694.383 1.43.528 2.207.162.868.28 1.786.322 2.763.18 4.03-.51 11.12-3.96 18.65.52-1 1.01-2.03 1.46-3.1.99-2.34 1.85-4.83 2.38-7.47.56-2.63.82-5.35.63-8.1zM61.9 12.55l-.3-.42c-.1.14-.25.26-.4.37.13.16.25.32.36.48.05-.19.17-.35.34-.43zm-1.81-1.39c.18.21.37.42.55.64.11-.15.23-.29.36-.43-.16-.19-.33-.38-.5-.56-.12.13-.27.24-.41.35z" fill="#F7EA8D" stroke="#F7EA8D" stroke-width=".04" stroke-miterlimit="10"/>
    <path fill="#BDCC29" d="M51.63 8.46c-.01 0-.01.02-.01.02.01.06 0 .11 0 .16.06.31.1.64.08.95.08-.26.12-.52.12-.8 0-.18-.02-.36-.06-.53l-.05.06c-.03.04-.05.09-.08.14z"/>
    <path fill="#BDCC29" d="M51.63 8.4l.08-.08.05-.06v-.01a2.37 2.37 0 0 0-.25-.75c.08.28.12.56.12.82v.08z"/>
    <path d="M65.02 19.11c-.11.15-.25.28-.41.38-.01.01-.03.01-.04.02.07.21.14.43.2.66l.12-.12c.1-.1.2-.21.3-.32-.05-.21-.11-.42-.17-.62zm-.3-.89c-.11-.35-.23-.68-.36-1.02-.01-.03-.02-.06-.04-.09-.19.11-.34.25-.47.42v.01c.14.34.27.69.41 1.07.09-.07.18-.13.27-.2.07-.06.13-.12.19-.18v-.01zm-1.4-3.29c-.16.09-.3.2-.43.33.18.41.37.85.57 1.33.01 0 .02-.01.03-.02.16-.1.35-.12.5-.24-.21-.48-.43-.95-.67-1.4zm-1.76-1.95c.26.36.5.71.71 1.06.14-.07.3-.12.46-.18-.26-.45-.54-.89-.83-1.31-.17.08-.29.24-.34.43zM61 11.37c-.13.14-.25.28-.36.43.19.23.38.47.56.7.15-.11.3-.23.4-.37-.2-.26-.4-.52-.6-.76zm-1.68-1.72c-.12.12-.2.26-.27.43.33.31.68.68 1.04 1.08.14-.11.29-.22.41-.35-.05-.07-.12-.13-.18-.2-.32-.34-.65-.66-1-.96zm-1.84-1.48c-.13.14-.19.36-.21.56.15.1.3.19.44.26.07.04.15.09.24.15.09-.13.2-.25.32-.37-.24-.18-.49-.37-.75-.57-.01-.01-.03-.02-.04-.03zm-1.67-.57c-.01.02-.02.03-.02.05.24.2.51.41.79.61.14-.16.34-.27.56-.36l-.85-.7a.95.95 0 0 0-.48.4zm-1.15-.91c.12.14.21.23.26.27.04.03.11.08.19.15.18-.16.38-.3.57-.4-.27-.23-.54-.44-.81-.66-.01.22-.09.44-.21.64zm-.99-.95c.1.08.19.16.28.23a.74.74 0 0 1 .33-.37c-.12-.1-.23-.18-.34-.26-.11.11-.2.25-.27.4zm-1.1-1.22c0 .08.01.16-.02.23-.03.05-.07.09-.1.13.21.13.41.26.59.38v-.01c-.02-.16-.03-.33.03-.47 0-.01.01-.02.02-.03-.16-.11-.33-.22-.5-.32-.01.03-.02.06-.02.09zm-.97-.36c.05.05.09.11.11.17.01.05.01.1 0 .15.05.02.1.05.14.07 0-.04.01-.07.02-.11.03-.1.1-.19.11-.29 0-.02.01-.04.01-.05-.19-.11-.38-.2-.57-.28.04.12.1.24.18.34zm-.63-.53c.03.16.03.33-.01.5.08.03.15.07.22.1.01-.03.01-.05.02-.08.03-.15.01-.31-.06-.46-.05-.02-.11-.05-.17-.06z" fill="#E85661" stroke="#E85661" stroke-width=".04" stroke-miterlimit="10"/>
    <path fill="#BDCC29" d="M50.25 11.24c.27-.22.45-.51.6-.82a2.72 2.72 0 0 1-1.22.8h-.01c-.01.01-.01.01-.02.01-.02.03-.06.04-.09.05h-.01c-.01 0-.01 0-.02.01-.18.13-.34.29-.45.5.25-.02.49-.08.71-.16.01 0 .02-.01.02-.01.14-.14.33-.25.49-.38z"/>
    <path fill="#FFF" d="M48.79 7.86a.41.41 0 0 0-.41.4c0 .22.19.4.41.4a.4.4 0 0 0 .4-.4.4.4 0 0 0-.4-.4z"/>
    <path d="M49.18 7.1c-.82 0-1.48.66-1.48 1.49 0 .82.66 1.48 1.48 1.48a1.485 1.485 0 0 0 0-2.97zm-.39 1.56a.41.41 0 0 1-.41-.4c0-.22.19-.4.41-.4.22 0 .4.18.4.4a.4.4 0 0 1-.4.4z"/>
    <path fill="#C6C1B6" stroke="#C6C1B6" stroke-width=".04" stroke-miterlimit="10" d="M51.1 8.01c.01.06.01.13.01.19 0 1.11-.95 2.01-2.12 2.01s-2.11-.9-2.11-2.01c0-1.12.94-2.02 2.11-2.02.29 0 .56.05.81.15-.03-.02-.06-.03-.1-.05a2.24 2.24 0 0 0-1.33-.18c-.45.08-.87.29-1.2.6-.33.3-.56.71-.68 1.13-.06.2-.1.43-.1.63-.02.09 0 .22.01.34 0 .08.03.2.04.3.1.4.28.76.51 1.04.46.59 1.1.81 1.52.87.41.05.69 0 .69 0 .03-.01.08-.02.16-.04.11-.03.28-.08.47-.17.39-.19.92-.59 1.2-1.29.13-.34.2-.75.17-1.15-.01-.12-.03-.24-.06-.35z"/>
    <path fill="#BDCC29" d="M49.03 11.38c.13-.06.3-.05.45-.09.01-.01.01-.01.02-.01h.01l.04-.04c-.06.02-.11.03-.16.04-.13.02-.19.04-.19.04h-.01s-.07.01-.19.02-.34.03-.58 0c-.48-.04-1.19-.29-1.8-.91-.29-.31-.55-.72-.7-1.19-.03-.13-.06-.24-.09-.38-.01-.12-.04-.23-.04-.37-.03-.28 0-.54.05-.82.05-.21.12-.42.22-.61a2.86 2.86 0 0 0-.58 1.73c0 .63.2 1.21.54 1.69.57.81 1.53 1.33 2.62 1.34.1-.18.21-.35.39-.44z"/>
    <path fill="#E5A3A3" stroke="#E5A3A3" stroke-width=".04" stroke-miterlimit="10" d="M43.96 12.96c.07.07.13.14.18.2.08.11.15.22.21.33.1-.26.12-.55.1-.86-.23-.14-.39.09-.49.33z"/>
    <path fill="#BA7F7F" stroke="#BA7F7F" stroke-width=".04" stroke-miterlimit="10" d="M44.45 12.63v-.06c-.03-.32-.09-.65-.19-.97 0 .02-.01.05-.01.07-.06.31-.2.64-.44.9-.07.07-.13.14-.21.2.14.03.26.11.36.19.1-.24.26-.47.49-.33z"/>
    <path fill="#B5BC26" d="M45.65 12.05c.2.48.29 1.04.2 1.59-.07.55-.33 1.07-.67 1.49-.33.41-.73.75-1.17 1.01l-.26.85s.75.1 1.94-1.75c.99-1.54.06-3.65-.35-4.25-.11 0-.23 0-.35.01.28.3.51.66.66 1.05zM43.26 14c-.07-.13-.14-.25-.23-.37-.08-.11-.18-.2-.3-.28-.16.1-.31.18-.44.28-.09.06-.16.26-.2.52-.03.22-.05.45-.05.71.07.12.15.23.22.35.09.15.18.29.26.44.01-.53.12-1.6.74-1.65z"/>
    <path d="M58.27 8.77c-.12.12-.23.24-.32.37.29.2.67.52 1.1.94.07-.17.15-.31.27-.43-.33-.3-.68-.58-1.05-.88zm-1.13-.87c-.22.09-.42.2-.56.36.23.17.46.33.69.47.02-.2.08-.42.21-.56l-.33-.27h-.01zm-2.03-.79c.16.13.4.32.68.54 0-.02.01-.03.02-.05.1-.18.28-.32.48-.4-.21-.17-.41-.33-.61-.49-.19.1-.39.24-.57.4zm-.83-1.51a.74.74 0 0 0-.33.37c.31.29.54.54.71.72.12-.2.2-.42.21-.64-.07-.05-.13-.11-.2-.16-.13-.1-.26-.2-.39-.29zm-1.21-.82c-.06.14-.05.31-.03.47v.01c.24.17.44.33.63.48.07-.15.16-.29.27-.4-.28-.21-.57-.41-.85-.59-.01.01-.02.02-.02.03zm-1.08-.68c0 .01-.01.03-.01.05-.01.1-.08.19-.11.29-.01.04-.02.07-.02.11.22.11.42.22.6.33.03-.04.07-.08.1-.13.03-.07.02-.15.02-.23 0-.03.01-.06.02-.09-.2-.12-.4-.23-.6-.33zm-.57-.28c-.09-.05-.18-.09-.28-.13.07.15.09.31.06.46-.01.03-.01.05-.02.08.19.08.37.17.53.25a.38.38 0 0 0 0-.15.452.452 0 0 0-.11-.17c-.08-.1-.14-.22-.18-.34zm-2.24-.68c-.46-.1-.93-.09-1.38-.12-.45.04-.87.02-1.36.12-.91.11-1.7.38-2.41.71-.71.33-1.29.79-1.74 1.29-.01.01-.02.03-.02.05.44-.26 3.97-2.63 7.49-1.5.11.04.22.07.33.11.01-.04.02-.07.04-.11-.01.04-.01.08-.02.12.3.1.59.21.85.32.04-.17.04-.34.01-.5-.59-.24-1.18-.41-1.79-.49z" fill="#F9F2B2" stroke="#F9F2B2" stroke-width=".04" stroke-miterlimit="10"/>
    <path d="M66.34 50.94a.334.334 0 0 0-.05-.12c0-.01-.04-.06-.1-.11-.06-.04-.19-.11-.29-.14-.11-.03-.22-.05-.32-.07.02.21.07.74-.29 1.72-.43 1.14-.9 1.37-.76 2.13.01.07.01.14 0 .22-.04.74-.69 1.89.84 1.55 0-.01.01-.01.01-.02.02-.01.03-.03.04-.05.05-.05.06-.1.09-.14.02-.05.08-.18.07-.2.02-.09.04-.17.05-.26.03-.2.04-.41.03-.65 0-.08-.01-.16-.01-.25 0-.28.02-.58.09-.87.07-.34.18-.62.28-.91.01-.04.03-.08.04-.12.07-.23.14-.45.19-.67.03-.09.05-.18.07-.26.06-.29.08-.58.02-.78zm-1.62-.45c0-.02 0-.03-.01-.04 0-.06-.02-.1-.04-.14-.06-.14-.17-.21-.37-.27-.25-.06-.53-.08-.75-.08 0 0 .32 1.12-.25 1.93-.57.8-.9 1.61-.81 2.51.01.07.01.14.01.21 0 .83-.37 1.83 1.09 1.49.03-.06.05-.12.06-.19.03-.13.05-.28.05-.43.02-.27.01-.57 0-.89 0-.3 0-.62.03-.95.02-.21.07-.44.14-.65.01-.05.03-.1.05-.15.04-.15.11-.3.17-.43.06-.14.12-.27.18-.4.11-.22.21-.44.3-.63.13-.29.16-.59.15-.89zm-3.67 5.76c.01 0 .02-.01.03-.03h-.04c0 .01 0 .02.01.03zm1.58-6.02a.236.236 0 0 0-.09-.08c-.01-.01-.02-.02-.03-.02-.17-.11-.43-.17-.7-.18l-.22-.01c-.41.22-1.04.73-.94 1.85.11 1.29-.07 2.27-.31 2.86-.06.17-.14.31-.21.41-.31.44-.33 1.27 1.06 1.05a1.584 1.584 0 0 0 .27-.56c0-.01.01-.02.01-.03.04-.16.05-.22.05-.48.01-.14.03-.27.06-.41.04-.29.1-.58.16-.88l.13-.64.03-.2c.02-.15.04-.32.09-.49.04-.14.1-.26.15-.38.15-.31.34-.57.45-.84.16-.36.19-.78.04-.97zm-16.19.33s-.19.67-.33 1.33-.52 1.56-.23 2.41c.07.2.1.4.13.6.09.65.04 1.21.29 1.25.19.03.46.07.68.04.03-.12.05-.25.06-.39.01-.08.01-.15.01-.22 0-.23-.02-.45-.06-.69-.01-.08-.02-.16-.04-.24a4.3 4.3 0 0 1-.03-1.13c0-.07.01-.13.02-.2.03-.29.08-.58.14-.86.01-.05.02-.1.04-.14.07-.31.16-.58.18-.8.02-.27-.03-.43-.21-.59a2.69 2.69 0 0 0-.65-.37zm-1.47 1.81c.02-.16.06-.31.1-.46.08-.37.26-.79.3-1.03.01-.1 0-.19-.04-.27a.28.28 0 0 0-.08-.12.978.978 0 0 0-.21-.18 2.43 2.43 0 0 0-.55-.22h-.01c-.29.08-.75.32-.69.95.1.9-.52 1.8-.19 2.27.28.4.4 1.09.42 1.63.01.09.01.18.01.26 0 .54-.25 1.58 1.21 1.14l.01-.01a.16.16 0 0 0 .04-.07c.09-.13.1-.26.07-.43a2.35 2.35 0 0 0-.08-.4c-.05-.16-.1-.33-.16-.51-.05-.18-.1-.37-.15-.57-.09-.3-.12-.65-.12-.98 0-.09 0-.18.01-.26.01-.26.05-.5.11-.74zm-1.93 2.44a2.62 2.62 0 0 0-.12-.54c-.05-.16-.15-.32-.24-.59a.857.857 0 0 1-.05-.27c-.05-.34.01-.68.08-.97.02-.06.03-.12.05-.17.11-.43.28-.76.27-1.06 0-.26-.08-.51-.23-.67a.12.12 0 0 0-.05-.05.12.12 0 0 0-.05-.05c-.21-.17-.5-.22-.79-.2h-.01c-.12.09-1.01.72-.62 1.7.43 1.04 1.04 1.8.52 2.6-.09.13-.15.28-.19.44-.2.77.14 1.72 1.36 1.51.06-.13.08-.3.09-.54v-.07c.02-.32.03-.62 0-.92-.01-.05-.01-.1-.02-.15z" fill="#BFA795" stroke="#BFA795" stroke-width=".04" stroke-miterlimit="10"/>
    <path fill="#BDCC29" d="M41.69 7.84c.53.12.96.34 1.37.61.21.14.41.29.6.45-.16-.31-.53-.84-1.38-1.14-.92-.31-.36-1.83-.01-2.57-.02.01-.03.02-.04.02-.43.48-.75 1-.97 1.51-.16.38-.28.75-.38 1.1.29-.06.56-.03.81.02z"/>
    <path fill="#E5D3C7" stroke="#E5D3C7" stroke-width=".04" stroke-miterlimit="10" d="M40.76 10.65s-1.13 1.18-.85 2.23c.28 1.04.85-2.23.85-2.23z"/>
    <path d="M45.1 11.65c-.18-.14-.31-.06-.41.11.11.26.19.54.23.83.08.52-.04 1.12-.4 1.56l-.28.34-.12-.41c-.08-.24-.16-.49-.29-.71-.28-.02-.4.09-.46.2.18.16.32.35.43.57.15.27.23.57.28.87.01.06.02.11.02.17.52-.46.93-1.02 1.1-1.67.14-.58.09-1.23-.1-1.86zm-3.48-.29c.05-.15.52-1.24 2.08-1.47.71-.1 1.18.05 1.47.26-.41-.4-.8-.68-1.15-.88.04.04.07.07.1.11-.87-.31-1.73-.69-2.53-.69-.4-.01-.69.07-.87.27-.02.02-.04.04-.05.06a.45.45 0 0 0-.1.14c1.67-.61 2.31.56 2.36.69-1.42-.53-2.69.31-2.69.31-.17.19-.34.44-.49.68s-.28.49-.39.76c-.18.42-.3.86-.32 1.31v.04c.28 1.72 1.63 2.01 1.63 2.01-.76-1.71.42-2.51 1.37-3.08.9-.54-.29-.52-.42-.52zm-1.71 1.52c-.28-1.05.85-2.23.85-2.23s-.57 3.27-.85 2.23z" fill="#B8A18F" stroke="#B8A18F" stroke-width=".04" stroke-miterlimit="10"/>
    <path d="M39.55 9.62c-.03.04-.06.08-.08.12 0 .04-.01.07-.01.11l.09-.23z"/>
    <path d="M64.53 54.57a.81.81 0 0 0 0-.22c-.14-.76.33-.99.76-2.13.36-.98.31-1.51.29-1.72a1.71 1.71 0 0 0-.31-.03c.07.36.04.77-.1 1.14-.05.14-.1.26-.15.39-.1.23-.19.45-.28.68-.02.05-.04.09-.06.13-.05.13-.09.26-.14.4-.04.17-.07.32-.09.51-.04.28-.04.56-.05.86 0 .29-.01.58-.04.89-.02.2-.06.41-.12.62-.01.02-.01.03-.02.05-.07.18-.17.35-.34.51.17.02.37.01.58-.03.24-.04.48-.14.69-.3.07-.06.16-.12.22-.2-1.53.34-.88-.81-.84-1.55zm-1.22 2.4c-.34.1-.66.08-.95.04 0 .05-.01.14-.06.26.07.04.17.09.29.14.27.11.5.14.77.04.28-.09.61-.28.87-.42.03-.02.06-.03.09-.05-.26-.01-.49-.08-.68-.16-.11.07-.23.13-.33.15zm-.19-.46c.01 0 .02-.01.03-.01.03-.01.06-.03.08-.04a.8.8 0 0 0 .27-.2c.02-.03.04-.06.06-.1l.03-.06c-1.46.34-1.09-.66-1.09-1.49 0-.07 0-.14-.01-.21-.09-.9.24-1.71.81-2.51.57-.81.25-1.93.25-1.93-.14 0-.27.01-.38.03.23.53.03 1.03-.18 1.41-.13.23-.28.43-.39.63-.1.16-.19.33-.23.5-.02.11-.04.23-.04.37-.03.29-.02.63-.03.92l-.03.79c-.01.16-.01.31-.02.47 0 .08-.01.25-.04.42-.01.1-.04.2-.07.27-.06.15-.12.3-.21.43-.04.07-.08.12-.12.18-.03.04-.07.08-.11.12.18.07.38.11.61.12.26.02.55 0 .81-.11zm-1.61.17c-.23.19-.51.32-.78.35-.17.02-.33.02-.47.01-.02.04-.05.07-.08.11l-.12.15c.08 0 .19.01.32.01.13.01.27.02.41.02.13 0 .27 0 .4-.02.25-.03.52-.1.76-.19.13-.05.25-.09.33-.12-.01-.01-.02-.01-.03-.01-.29-.06-.54-.17-.74-.31zm-.89-.17a.96.96 0 0 0 .43-.26c-.01-.01-.01-.02-.01-.03h.04a.5.5 0 0 0 .08-.07c.01-.01.02-.03.03-.04-1.39.22-1.37-.61-1.06-1.05.07-.1.15-.24.21-.41.24-.59.42-1.57.31-2.86-.1-1.12.53-1.63.94-1.85h-.02c-.08.01-.22 0-.25.02-.12-.01-.25.04-.37.09-.14.07-.27.15-.38.24-.22.18-.4.38-.54.56l-.17.2c-.24.3-.37.49-.37.49s.02-.23.16-.61l.06-.15a.612.612 0 0 1-.12-.05 1.5 1.5 0 0 1-.2-.16c-.48.55-.98 1.06-1.48 1.54l1.53-.03c.16 0 .33 0 .49-.01.01-.03.02-.05.02-.08.09-.49.14-.83.14-.83s.15.31.25.82c0 .03.01.06.01.09.05.24.07.51.06.8 0 .03 0 .06-.01.09-.02.3-.1.65-.22.94-.1.28-.22.53-.32.76-.02.04-.03.07-.05.11-.11.27-.21.51-.27.74 0 .01-.01.03-.01.04-.06.2-.1.39-.12.52-.01.09-.02.16-.03.2-.01.03-.01.04-.01.04s-.01-.01-.02-.04l-.47.01c.07.06.16.11.28.16.17.07.4.1.65.13.25.02.56.03.81-.06zm-1.85-.22l-.91.02c.05.07.1.15.15.23.06.08.12.16.17.25.06.07.13.14.19.22.08.05.14.12.21.14.06.05.14.05.21.06.16.02.36-.04.56-.11.13-.06.26-.12.38-.18-.28-.08-.49-.2-.66-.32a1.21 1.21 0 0 1-.3-.31zm-12.47-.14c-.25-.04-.2-.6-.29-1.25-.03-.2-.06-.4-.13-.6-.29-.85.09-1.75.23-2.41.14-.66.33-1.33.33-1.33a1.82 1.82 0 0 0-.51-.06c.06.14.07.29.06.43-.04.48-.18.77-.26 1.14-.02.09-.04.18-.06.28-.05.27-.09.54-.12.81-.01.07-.01.13-.01.19-.01.29.01.56.07.86.05.24.1.47.15.7.03.13.05.27.08.4.03.16.05.33.05.51v.08c0 .11-.01.22-.05.33-.02.06-.05.1-.09.17l-.07.1c-.04.05-.07.1-.12.14-.01.02-.02.03-.03.04.1.06.21.11.35.14.15.04.31.04.49.01.03-.01.05-.01.08-.02.13-.03.24-.1.32-.2.1-.11.17-.25.21-.42-.22.03-.49-.01-.68-.04zm-1.46.99c-.11.04-.22.06-.32.07-.02.06-.04.13-.08.2-.02.05-.05.1-.09.15.08 0 .16-.02.24-.03.23-.04.45-.14.69-.3.12-.07.24-.16.36-.25a.836.836 0 0 1-.23-.18 2.1 2.1 0 0 1-.57.34zm-1.42-4.73c0 .01-.01.03-.01.04-.09.33-.14.66-.07.94 0 .04.01.07.02.1.03.13.14.34.21.57.07.22.12.45.14.67.01.07.01.14.01.21.02.33-.01.64-.04.93-.01.05-.01.09-.02.13 0 .19-.05.46-.17.7l-.06.12c.01 0 .02 0 .03.01.28.16.78.25 1.25-.01.08-.04.16-.1.24-.16s.15-.13.21-.2c.02-.02.03-.05.05-.07.01-.02.02-.03.03-.05-1.46.44-1.21-.6-1.21-1.14 0-.08 0-.17-.01-.26-.02-.54-.14-1.23-.42-1.63-.33-.47.29-1.37.19-2.27-.06-.63.4-.87.69-.95-.08-.03-.16-.05-.23-.07-.36-.04-.71.07-.97.21.22.26.35.61.37.94.03.48-.14.89-.23 1.24zm-.05 4.5c-.08.11-.18.2-.3.26-.21.13-.43.18-.63.19-.02.05-.05.1-.09.15l-.06.09h.25c.26 0 .55-.03.82-.12.22-.06.45-.17.66-.28-.26-.05-.48-.16-.62-.27-.01-.01-.02-.02-.03-.02zm-.57-.19a.48.48 0 0 0 .17-.23c-1.22.21-1.56-.74-1.36-1.51.04-.16.1-.31.19-.44.52-.8-.09-1.56-.52-2.6-.39-.98.5-1.61.62-1.7-.57.01-.99.29-1.14.62-.17.31-.18.53-.18.53s-.05-.16.02-.44c-.16.21-.35.47-.56.72-.23.28-.48.55-.7.75-.05.04-.11.09-.15.12.5-.02 1.01-.03 1.52-.04-.02-.24 0-.41 0-.45 0 0 .13.16.31.44l.09.15c.11.19.22.41.34.63.03.05.06.11.08.14 0 .01.01.01.01.02.06.1.03.06.06.13.02.07.03.19.02.23-.02.21-.06.35-.1.49-.09.26-.19.5-.26.71-.03.1-.05.19-.07.27 0 0-.02.08-.02.21-.02.11-.02.27.02.45 0 .07.02.14.04.22.05.19.15.41.3.61l-.24.01c.09.06.2.12.29.15.09.04.24.04.38.04.29 0 .61-.05.82-.21.01-.01.02-.01.02-.02zm-1.7.22c-.06-.06-.11-.11-.16-.17l-.92.02c.03.02.05.04.08.06.29.21.66.47 1 .56.16.04.32.04.49.01.08-.02.16-.04.23-.08a.942.942 0 0 1-.37-.12 1.3 1.3 0 0 1-.35-.28z" fill="#A38978" stroke="#A38978" stroke-width=".04" stroke-miterlimit="10"/>
    <g fill="#9E8371" stroke="#9E8371" stroke-width=".04" stroke-miterlimit="10">
        <path d="M44.35 11.05h-.04v.13l.03-.02c.14.18.25.39.35.6.1-.17.23-.25.41-.11-.06-.22-.14-.43-.23-.64-.17.01-.34.02-.52.04zm-.99 1.91c-.15.11-.32.21-.47.3.11.05.22.11.32.18.06.04.11.08.16.13.06-.11.18-.22.46-.2-.13-.2-.26-.41-.47-.41zm-.43-3.11c-.05-.13-.69-1.3-2.36-.69-.05.08-.09.16-.12.26-.05.16-.09.33-.12.51l-.02.15-.07.08s1.27-.84 2.69-.31z"/>
        <path d="M44.28 10.31c.45-.05.95.04 1.27.25-.04-.06-.09-.12-.14-.19-.01-.02-.03-.03-.05-.05-.06-.06-.13-.12-.19-.17-.29-.21-.76-.36-1.47-.26-1.56.23-2.03 1.32-2.08 1.47.13 0 1.32-.02.42.52-.95.57-2.13 1.37-1.37 3.08 0 0-1.35-.29-1.63-2.01 0 .1 0 .19.01.29.03.56.25 1.09.62 1.5.19.21.39.39.63.56.23.18.45.33.66.42.05-.19.06-.5.09-.8.03-.29.06-.6.13-.93.01-.01.01-.02.01-.03.01-.04.03-.09.04-.14.1-.3.26-.66.64-.88.58-.31 1.18-.44 1.6-.74.36-.23.57-.67.72-1.13-.35.03-.71.05-1 .05-.34-.01-.59-.05-.59-.05s.17-.18.47-.37c.3-.18.74-.35 1.21-.39z"/>
    </g>
    <g fill="#7C604F" stroke="#7C604F" stroke-width=".04" stroke-miterlimit="10">
        <path d="M66.86 50.73c-.17-.41-.58-.55-.86-.58-.31-.04-.58-.01-.81.03a.88.88 0 0 0-.27-.36c-.18-.14-.38-.17-.54-.2-.34-.03-.61.01-.87.07-.16.03-.3.08-.43.13-.33-.45-.86-.52-1.22-.56-.11-.01-.22 0-.32 0-.11.01-.16 0-.3.02-.24.04-.44.14-.6.25-.25.19-.44.4-.58.6h-.05c-.12.01-.23.05-.32.1-.09.11-.19.23-.3.34.03.03.11.1.2.16.04.02.08.04.12.05l-.06.15c-.14.38-.16.61-.16.61s.13-.19.37-.49l.17-.2c.14-.18.32-.38.54-.56.11-.09.24-.17.38-.24.12-.05.25-.1.37-.09.03-.02.17-.01.25-.02h.02l.22.01c.27.01.53.07.7.18.01 0 .02.01.03.02.04.02.07.05.09.08.15.19.12.61-.04.97-.11.27-.3.53-.45.84-.05.12-.11.24-.15.38-.05.17-.07.34-.09.49l-.03.2-.13.64c-.06.3-.12.59-.16.88-.03.14-.05.27-.06.41 0 .26-.01.32-.05.48 0 .01-.01.02-.01.03a1.584 1.584 0 0 1-.27.56c-.01.01-.02.03-.03.04-.03.03-.05.05-.08.07-.01.02-.02.03-.03.03a.96.96 0 0 1-.43.26c-.25.09-.56.08-.81.06-.25-.03-.48-.06-.65-.13-.12-.05-.21-.1-.28-.16l-.11.01c.06.09.15.2.3.31.17.12.38.24.66.32-.12.06-.25.12-.38.18-.2.07-.4.13-.56.11-.07-.01-.15-.01-.21-.06-.07-.02-.13-.09-.21-.14-.06-.08-.13-.15-.19-.22-.05-.09-.11-.17-.17-.25-.05-.08-.1-.16-.15-.23l-.25.01c0 .1-.02.22.01.36.02.21.09.46.25.72.1.12.18.27.35.35.15.11.34.16.52.19.18-.01.36-.03.51-.08.16-.05.28-.14.4-.21.12-.08.22-.17.31-.26.01.01.01.02.02.03.06.06.12.19.24.27.1.11.25.2.44.27.18.06.39.09.61.07.41-.05.75-.3.92-.55.02.07.06.16.12.24.09.15.26.32.5.41.24.1.54.08.78.01.49-.18.79-.54.94-.83.07-.13.11-.25.13-.34.25-.03.5-.1.75-.24.15-.09.3-.19.42-.34.07-.06.13-.15.19-.24.02-.03.03-.05.04-.07.02-.05.04-.09.08-.19.06-.14.1-.3.13-.45.04-.22.05-.44.06-.64 0-.09.01-.18.01-.26.01-.25.03-.47.09-.7.08-.29.21-.64.3-.97.01-.04.03-.08.04-.12.08-.25.14-.52.17-.78.02-.05.02-.09.03-.14.04-.35.06-.72-.11-1.1zm-4.61 4.35c.01-.16.01-.31.02-.47l.03-.79c.01-.29 0-.63.03-.92 0-.14.02-.26.04-.37.04-.17.13-.34.23-.5.11-.2.26-.4.39-.63.21-.38.41-.88.18-1.41.11-.02.24-.03.38-.03.22 0 .5.02.75.08.2.06.31.13.37.27.02.04.04.08.04.14.01.01.01.02.01.04.01.3-.02.6-.15.89-.09.19-.19.41-.3.63-.06.13-.12.26-.18.4-.06.13-.13.28-.17.43-.02.05-.04.1-.05.15-.07.21-.12.44-.14.65-.03.33-.03.65-.03.95.01.32.02.62 0 .89 0 .15-.02.3-.05.43-.01.07-.03.13-.06.19l-.03.06c-.02.04-.04.07-.06.1a.8.8 0 0 1-.27.2c-.02.01-.05.03-.08.04-.01 0-.02.01-.03.01-.26.11-.55.13-.81.11a1.89 1.89 0 0 1-.61-.12c.04-.04.08-.08.11-.12.04-.06.08-.11.12-.18.09-.13.15-.28.21-.43.03-.07.06-.17.07-.27.03-.17.04-.34.04-.42zm-.3 2.04c-.24.09-.51.16-.76.19-.13.02-.27.02-.4.02-.14 0-.28-.01-.41-.02-.13 0-.24-.01-.32-.01l.12-.15c.03-.04.06-.07.08-.11.14.01.3.01.47-.01.27-.03.55-.16.78-.35.2.14.45.25.74.31.01 0 .02 0 .03.01-.08.03-.2.07-.33.12zm2.28-.09c-.26.14-.59.33-.87.42-.27.1-.5.07-.77-.04-.12-.05-.22-.1-.29-.14a.69.69 0 0 0 .06-.26c.29.04.61.06.95-.04.1-.02.22-.08.33-.15.19.08.42.15.68.16-.03.02-.06.03-.09.05zm1.83-4.38c-.01.04-.03.08-.04.12-.1.29-.21.57-.28.91-.07.29-.09.59-.09.87 0 .09.01.17.01.25.01.24 0 .45-.03.65-.01.09-.03.17-.05.26.01.02-.05.15-.07.2-.03.04-.04.09-.09.14-.01.02-.02.04-.04.05 0 .01-.01.01-.01.02-.06.08-.15.14-.22.2-.21.16-.45.26-.69.3-.21.04-.41.05-.58.03.17-.16.27-.33.34-.51.01-.02.01-.03.02-.05.06-.21.1-.42.12-.62.03-.31.04-.6.04-.89.01-.3.01-.58.05-.86.02-.19.05-.34.09-.51.05-.14.09-.27.14-.4.02-.04.04-.08.06-.13.09-.23.18-.45.28-.68.05-.13.1-.25.15-.39.14-.37.17-.78.1-1.14.1 0 .2.01.31.03.1.02.21.04.32.07.1.03.23.1.29.14.06.05.1.1.1.11.02.02.04.08.05.12.06.2.04.49-.02.78-.02.08-.04.17-.07.26-.05.22-.12.44-.19.67z"/>
        <path d="M59.1 55.56c.03.23.11.42.16.54.03.08.06.14.09.17h.03c.01-.04.02-.11.03-.2.02-.13.06-.32.12-.52 0-.01.01-.03.01-.04.06-.23.16-.47.27-.74.02-.04.03-.07.05-.11.1-.23.22-.48.32-.76.12-.29.2-.64.22-.94.01-.03.01-.06.01-.09.01-.29-.01-.56-.06-.8 0-.03-.01-.06-.01-.09-.1-.51-.25-.82-.25-.82s-.05.34-.14.83c0 .03-.01.05-.02.08-.03.22-.08.46-.14.72-.01.07-.03.13-.06.19-.05.21-.14.42-.23.64-.15.33-.28.7-.35 1.05-.07.29-.09.56-.06.8 0 .03.01.06.01.09zM47.41 50.5c-.33-.2-.55-.28-.88-.34-.29-.03-.53.01-.73.08v-.01c-.15-.2-.34-.32-.51-.4-.38-.15-.65-.21-1.01-.23-.55.02-.9.28-1.15.49-.04-.03-.08-.06-.13-.09-.39-.24-.82-.23-1.14-.17-.33.06-.64.2-.85.39-.09.08-.16.16-.21.25 0 0-.01 0-.01.01-.09 0-.22.02-.37.07-.31.1-.66.36-.92.68-.26.31-.43.68-.51.98-.03.13-.05.25-.05.34.08-.01.17-.01.25-.01.04-.03.1-.08.15-.12.22-.2.47-.47.7-.75.21-.25.4-.51.56-.72-.07.28-.02.44-.02.44s.01-.22.18-.53c.15-.33.57-.61 1.14-.62h.01c.29-.02.58.03.79.2.02.01.04.03.05.05.02.01.04.03.05.05.15.16.23.41.23.67.01.3-.16.63-.27 1.06-.02.05-.03.11-.05.17-.07.29-.13.63-.08.97 0 .09.02.18.05.27.09.27.19.43.24.59.06.18.1.36.12.54.01.05.01.1.02.15.03.3.02.6 0 .92v.07c-.01.24-.03.41-.09.54a.48.48 0 0 1-.17.23c0 .01-.01.01-.02.02-.21.16-.53.21-.82.21-.14 0-.29 0-.38-.04-.09-.03-.2-.09-.29-.15l-.35.01c.05.06.1.11.16.17.09.1.19.19.35.28.13.08.25.1.37.12-.07.04-.15.06-.23.08-.17.03-.33.03-.49-.01-.34-.09-.71-.35-1-.56-.03-.02-.05-.04-.08-.06l-.35.01c.03.09.07.19.13.3.17.35.52.8 1.12.98.3.08.64.05.89-.09.14-.05.23-.15.33-.22.01-.01.02-.01.02-.02.06.06.13.17.25.23.25.19.72.31 1.16.17.28-.09.51-.26.67-.45a.955.955 0 0 0 .82.33c.21-.02.43-.1.6-.21.27-.18.46-.42.57-.64.09.01.19.01.28 0 .31-.02.67-.24.84-.55.01-.01.01-.03.02-.04.14-.25.22-.52.26-.8.01-.06.01-.12.02-.18.02-.23.02-.49 0-.74-.01-.11-.02-.22-.04-.33-.04-.29-.03-.63 0-.96l.03-.28c.03-.23.07-.47.11-.71.02-.09.04-.18.06-.28.06-.23.11-.48.12-.76 0-.19-.02-.41-.12-.61-.1-.19-.25-.34-.4-.44zm-3.69 4.44c0-.07 0-.14-.01-.21a3.2 3.2 0 0 0-.14-.67c-.07-.23-.18-.44-.21-.57-.01-.03-.02-.06-.02-.1-.07-.28-.02-.61.07-.94 0-.01.01-.03.01-.04.09-.35.26-.76.23-1.24-.02-.33-.15-.68-.37-.94.26-.14.61-.25.97-.21.07.02.15.04.23.07h.01c.19.05.39.13.55.22.09.06.16.12.21.18.04.04.07.08.08.12.04.08.05.17.04.27-.04.24-.22.66-.3 1.03-.04.15-.08.3-.1.46-.06.24-.1.48-.11.74-.01.08-.01.17-.01.26 0 .33.03.68.12.98.05.2.1.39.15.57.06.18.11.35.16.51.04.15.07.28.08.4.03.17.02.3-.07.43a.16.16 0 0 1-.04.07l-.01.01c-.01.02-.02.03-.03.05-.02.02-.03.05-.05.07a1.668 1.668 0 0 1-.45.36c-.47.26-.97.17-1.25.01-.01-.01-.02-.01-.03-.01l.06-.12c.12-.24.17-.51.17-.7.01-.04.01-.08.02-.13.03-.29.06-.6.04-.93zm-.36 2.54c-.27.09-.56.12-.82.12h-.25l.06-.09c.04-.05.07-.1.09-.15.2-.01.42-.06.63-.19.12-.06.22-.15.3-.26a1.487 1.487 0 0 0 .65.29c-.21.11-.44.22-.66.28zm1.92-.25c-.24.16-.46.26-.69.3-.08.01-.16.03-.24.03.04-.05.07-.1.09-.15.04-.07.06-.14.08-.2.1-.01.21-.03.32-.07.2-.08.39-.19.57-.34.06.07.14.13.23.18a3.9 3.9 0 0 1-.36.25zm1.8-4.77c-.06.28-.11.57-.14.86-.01.07-.02.13-.02.2-.03.37-.04.74.03 1.13.02.08.03.16.04.24.04.24.06.46.06.69 0 .07 0 .14-.01.22-.01.14-.03.27-.06.39-.04.17-.11.31-.21.42a.57.57 0 0 1-.32.2c-.03.01-.05.01-.08.02-.18.03-.34.03-.49-.01-.14-.03-.25-.08-.35-.14-.02-.01-.03-.01-.04-.03l.07-.01c.05-.04.08-.09.12-.14l.07-.1c.04-.07.07-.11.09-.17.04-.11.05-.22.05-.33v-.08c0-.18-.02-.35-.05-.51-.03-.13-.05-.27-.08-.4-.05-.23-.1-.46-.15-.7-.06-.3-.08-.57-.07-.86 0-.06 0-.12.01-.19.03-.27.07-.54.12-.81.02-.1.04-.19.06-.28.08-.37.22-.66.26-1.14a.92.92 0 0 0-.06-.43c.16 0 .34.01.51.06.17.06.48.23.65.37.18.16.23.32.21.59-.02.22-.11.49-.18.8-.02.04-.03.09-.04.14z"/>
        <path d="M41.23 56.14c-.02-.08-.04-.15-.04-.22-.04-.18-.04-.34-.02-.45 0-.13.02-.21.02-.21.02-.08.04-.17.07-.27.07-.21.17-.45.26-.71.04-.14.08-.28.1-.49a.65.65 0 0 0-.02-.23c-.03-.07 0-.03-.06-.13 0-.01-.01-.01-.01-.02-.02-.03-.05-.09-.08-.14-.12-.22-.23-.44-.34-.63l-.09-.15c-.18-.28-.31-.44-.31-.44 0 .04-.02.21 0 .45 0 .08.01.17.02.27.02.2.05.42.13.67.01.02.01.04.02.06.02.06.04.13.07.2 0 0-.19.39-.26.94v.03c-.01.1-.02.21-.02.33 0 .17.01.36.05.55.02.13.05.25.09.38.1.27.24.55.47.81.01.01.01.02.01.02l.24-.01c-.15-.2-.25-.42-.3-.61z"/>
    </g>
    <path fill="#8B6B2E" stroke="#8B6B2E" stroke-width=".04" stroke-miterlimit="10" d="M44.99 11c.12-.01.24-.01.35-.01h.1c.15.01.29.01.38.05.1.02.16.03.16.03s-.01-.05-.07-.15c-.06-.07-.11-.14-.17-.2-.02-.02-.03-.04-.05-.05 0-.01-.01-.02-.02-.02-.02-.03-.05-.04-.08-.06-.01-.01-.02-.02-.04-.02v-.01c-.32-.21-.82-.3-1.27-.25-.47.04-.91.21-1.21.39-.3.19-.47.37-.47.37s.25.04.59.05c.29 0 .65-.02 1-.05-.15.46-.36.9-.72 1.13-.42.3-1.02.43-1.6.74-.38.22-.54.58-.64.88-.01.05-.03.1-.04.14 0 .01 0 .02-.01.03-.07.33-.1.64-.13.93-.03.3-.04.61-.09.8a3.13 3.13 0 0 1-.66-.42c-.24-.17-.44-.35-.63-.56-.37-.41-.59-.94-.62-1.5-.01-.1-.01-.19-.01-.29v-.04c.02-.45.14-.89.32-1.31.11-.27.24-.52.39-.76s.32-.49.49-.68l.07-.08.02-.15c.03-.18.07-.35.12-.51.03-.1.07-.18.12-.26.02-.05.06-.1.1-.14.01-.02.03-.04.05-.06.18-.2.47-.28.87-.27.8 0 1.66.38 2.53.69-.03-.04-.06-.07-.1-.11-.01-.01-.01-.02-.02-.01-.09-.13-.21-.25-.34-.36-.19-.16-.39-.31-.6-.45-.41-.27-.84-.49-1.37-.61a1.99 1.99 0 0 0-.81-.02c-.01 0-.03.01-.04.01-.14.03-.28.09-.42.16-.14.08-.28.18-.39.31-.41.45-.52.97-.56 1.44.02-.04.05-.08.08-.12l-.09.23c0-.04.01-.07.01-.11-.16.25-.28.48-.4.73-.14.29-.25.59-.34.9a5.41 5.41 0 0 0-.22 1.92c.06.64.28 1.29.64 1.84.18.28.4.54.61.76.23.23.46.46.79.66.17.08.4.24.82.12.42-.18.49-.51.56-.69.03-.11.05-.22.06-.32v-.01c.03-.24.04-.45.04-.67 0-.04 0-.08.01-.12 0-.26.02-.49.05-.71.04-.26.11-.46.2-.52.13-.1.28-.18.44-.28.12.08.22.17.3.28.09.12.16.24.23.37.04.1.08.2.12.31a3.87 3.87 0 0 1 .07 1.52l-.12.71.65-.38c.01-.01.02-.01.03-.02.44-.26.84-.6 1.17-1.01.34-.42.6-.94.67-1.49.09-.55 0-1.11-.2-1.59-.15-.39-.38-.75-.66-1.05zm-1.18 1.57c.24-.26.38-.59.44-.9 0-.02.01-.05.01-.07.1.32.16.65.19.97v.06c.02.31 0 .6-.1.86-.06-.11-.13-.22-.21-.33-.05-.06-.11-.13-.18-.2a.89.89 0 0 0-.36-.19c.08-.06.14-.13.21-.2zm1.39.94c-.17.65-.58 1.21-1.1 1.67 0-.06-.01-.11-.02-.17-.05-.3-.13-.6-.28-.87-.11-.22-.25-.41-.43-.57-.05-.05-.1-.09-.16-.13-.1-.07-.21-.13-.32-.18.15-.09.32-.19.47-.3.21 0 .34.21.47.41.13.22.21.47.29.71l.12.41.28-.34c.36-.44.48-1.04.4-1.56a3.29 3.29 0 0 0-.23-.83c-.1-.21-.21-.42-.35-.6l-.03.02v-.13h.04c.18-.02.35-.03.52-.04.09.21.17.42.23.64.19.63.24 1.28.1 1.86z"/>
    <g fill="#C1272D" stroke="#C1272D" stroke-width=".04" stroke-miterlimit="10">
        <path d="M64.57 19.51c-.22.12-.48.21-.58.44-.04.09-.05.19-.08.29-.12.38-.53.57-.9.73-.37.15-.77.36-.87.75.43-.55 1.25-.57 1.87-.91.29-.16.53-.4.76-.64-.06-.23-.13-.45-.2-.66zm-3.38-2.92c-.05.11-.09.22-.14.33.1-.12.19-.25.29-.37l-.15.04zm2.46 2.54c.16-.21.39-.36.61-.52-.14-.38-.27-.73-.41-1.07h-.01c-.45.58-.51 1.46-1.12 1.86-.39.26-.93.26-1.27.58-.24.21-.35.53-.52.8-.3.48-.81.82-1.37.91.65-.06 1.27-.33 1.75-.77.19-.18.37-.39.6-.5.33-.16.74-.13 1.05-.33.33-.21.44-.65.69-.96zm-4.28 37.18s0-.01.01-.04h-.03c.01.03.02.04.02.04zm1.76-37.18c.61-.36 1.44-.5 1.76-1.13.23-.46.16-1.11.57-1.41-.2-.48-.39-.92-.57-1.33-.31.3-.54.69-.64 1.11-.11.47-.09 1.01-.42 1.35-.15.16-.35.26-.54.37-.93.6-1.34 1.85-2.34 2.32-.41.19-.88.22-1.32.32s-.9.29-1.14.68c.59-.55 1.55-.24 2.32-.47.95-.27 1.47-1.3 2.32-1.81zm-1.36-5.76c-.26.39-.76.55-1.08.9-.24.27-.37.62-.63.87-.33.31-.84.39-1.16.73-.27.29-.4.75-.67 1.01.4-.26.69-.71 1.12-.95.36-.2.82-.25 1.14-.53.26-.23.39-.59.63-.85.33-.35.84-.48 1.13-.86.18-.23.25-.53.43-.76.14-.18.33-.3.52-.43-.18-.23-.37-.47-.56-.7-.26.31-.48.63-.63 1-.07.19-.13.39-.24.57zm-3.9-1.82c.17-.26.34-.52.6-.69.29-.19.67-.24.91-.49.25-.26.27-.65.42-.97.04-.09.09-.18.15-.26-.09-.06-.17-.11-.24-.15-.14-.07-.29-.16-.44-.26-.02.26 0 .53-.11.76-.15.35-.53.53-.78.81-.3.34-.41.81-.51 1.25z"/>
        <path d="M55.2 18.56c.28-.06.58.05.86 0 .54-.09.83-.67 1.29-.96.52-.33 1.23-.25 1.74-.59.4-.27.61-.74.98-1.04.45-.34 1.1-.42 1.42-.87.19-.26.23-.6.45-.83.09-.1.21-.17.33-.23-.21-.35-.45-.7-.71-1.06-.02.03-.02.07-.03.1-.06.25-.06.53-.16.77-.2.5-.79.71-1.19 1.08-.58.53-.83 1.44-1.56 1.75-.46.2-1.01.1-1.46.31-.55.25-.85.87-1.39 1.12-.53.25-1.18.09-1.72.32-.5.21-.83.72-1.29.99.54-.01 1.1.01 1.56-.28.3-.19.53-.5.88-.58zm2.66 1.13c.2-.11.32-.34.49-.51.35-.34.89-.36 1.34-.57.67-.31 1.06-1 1.36-1.69-.46.56-.98 1.08-1.67 1.27-.43.11-.91.09-1.28.34-.27.19-.44.5-.73.65-.42.23-.96.05-1.4.23-.47.19-.78.75-1.28.79-.21.01-.41-.06-.61-.09-.21-.03-.45.01-.55.19.49.08.98.15 1.48.22.22.04.44.07.65 0 .42-.13.66-.62 1.08-.74.36-.1.78.09 1.12-.09zm-3.31-8.21c-.11.25-.34.43-.53.62-.33.33-.57.73-.72 1.16.33-.62 1.35-.59 1.68-1.21.23-.45-.01-1.04.22-1.49.26-.48.99-.62 1.15-1.15.08-.27-.02-.56.05-.84a.61.61 0 0 1 .18-.31c-.28-.2-.55-.41-.79-.61-.26.5-.02 1.18-.27 1.69-.19.37-.6.59-.76.97-.16.37-.05.81-.21 1.17zm-1.57 2.11l-.37.29c-.06.02-.13.05-.19.09.24-.07.45-.17.56-.38zm-.34-5.26c.01.31-.07.62-.23.88.24-.1.43-.3.52-.53.08-.23.08-.48.11-.71.04-.24.12-.5.32-.63.13-.09.3-.11.42-.22.28-.27.03-.76.16-1.13 0-.01.01-.01.01-.02-.09-.07-.18-.15-.28-.23-.03.07-.06.14-.09.22-.11.34-.18.71-.4.99-.17.24-.44.41-.54.69-.07.22-.01.46 0 .69zm-.25-1.25c.1-.15.25-.27.28-.45.04-.24-.14-.49-.05-.71.15.06.32-.06.39-.2.06-.15.04-.31.03-.46-.18-.12-.38-.25-.59-.38l-.02.02c-.19.22-.12.56-.01.84.02.07.05.14.06.22 0 .17-.11.32-.19.47-.19.35-.2.8-.01 1.15-.02-.17.02-.35.11-.5zm-.91 12.47c.32.01.67.06.97-.01.11-.03.21-.07.3-.12h-.19a5.5 5.5 0 0 0-1.08.13zm.25-13.59c.06-.09.15-.18.2-.28.17-.35-.13-.76-.08-1.13-.04-.02-.09-.05-.14-.07-.02.07-.06.14-.07.22-.04.18.05.36.1.55.06.23.05.48-.01.71zm-.1 2.5c.03-.05.05-.1.08-.14l-.08.08-.05.06c.01.02.01.05.01.07v.01c.02.03.02.06.03.1 0-.05.01-.1 0-.16 0 0 0-.02.01-.02zm4.33 3.45c-.23.08-.49.15-.64.34-.19.23-.17.57-.31.84-.3.54-1.09.49-1.63.78-.6.34-.85 1.09-1.4 1.51-.37.28-.89.41-1.13.81.41-.61 1.49-.31 1.98-.87.2-.23.26-.56.43-.82.55-.83 2.07-.57 2.52-1.45.09-.17.13-.36.25-.5.17-.21.45-.26.7-.35.89-.35 1.32-1.32 1.67-2.21l.01-.13c-.52.95-1.41 1.7-2.45 2.05zm-5.3 7.87c.27-.1.54-.17.82-.23-.32-.02-.61.01-.82.23zm.18-14.91c.27.19.4.57.29.88.16-.08.26-.26.28-.45a.92.92 0 0 0-.12-.53c-.06-.12-.14-.24-.14-.37 0-.06.01-.12.03-.17-.07-.03-.14-.07-.22-.1-.04.13-.1.27-.18.38-.05.06-.1.14-.08.21.02.07.08.11.14.15zm.41 7.09a3 3 0 0 0-.79 1.17c.42-.7 1.42-.89 1.86-1.59.18-.29.25-.64.46-.9.41-.54.92-.77 1.3-1.33.28-.42.16-.67.27-1.16.08-.37.39-.75.76-1.04-.08-.07-.15-.12-.19-.15-.05-.04-.14-.13-.26-.27-.06.12-.14.23-.22.33-.3.36-.66.68-.87 1.1-.31.61-.27 1.44-.81 1.86-.21.16-.49.24-.67.44-.26.3-.21.76-.41 1.1-.11.18-.28.3-.43.44zm1.34 6.21c.38-.14.61-.52.93-.76.6-.45 1.47-.39 2.09-.81.47-.32.74-.85 1.16-1.22.3-.25.65-.4.97-.62.32-.21.61-.51.67-.89l.06-.13c-.49.8-1.61.9-2.33 1.5-.43.37-.72.92-1.24 1.15-.33.14-.71.13-1.05.27-.46.19-.75.64-1.17.92-.8.53-2.02.42-2.54 1.22.33-.37.82-.59 1.31-.6.38 0 .78.11 1.14-.03zM50.14 5.75h.02l.08-.01c.24-.35.27-.82.1-1.2-.06-.12-.13-.22-.17-.34a.865.865 0 0 1-.06-.39c.01-.04.01-.08.02-.12-.02.04-.03.07-.04.11-.11.48.07 1.02-.09 1.5-.03.1-.08.21-.1.32a.3.3 0 0 1 .1.04c.05.03.09.05.14.09zm-.59 5.49l-.04.04c.03-.01.07-.02.09-.05.01 0 .01 0 .02-.01h.01c.03-.03.06-.05.08-.08-.05.03-.09.06-.14.09 0 0-.01.01-.02.01zm-.04-5.76c.05-.07.09-.14.1-.22l-.11.21c0-.01-.01-.01-.02 0 0 .03-.01.05-.02.08.02-.02.04-.05.05-.07zm-.03-.01c.16-.41.13-.87-.09-1.25.08.21.07.45-.04.65-.03.07-.08.14-.11.21a.42.42 0 0 0-.01.33c.09.01.17.03.25.06zm-.35 11.09c.31.01.68-.02.82-.29.05-.11.05-.23.11-.33.1-.15.31-.19.48-.27.43-.19.66-.66.97-1.03.25-.29.56-.52.91-.67-.29.08-.61.13-.84.31-.25.21-.35.57-.6.78-.32.27-.82.26-1.1.57-.15.15-.22.37-.41.47-.15.08-.32.05-.49.08a.82.82 0 0 0-.67.65c.15-.27.52-.29.82-.27z"/>
        <path d="M51.8 17.23c.5-.05.97-.24 1.37-.54.31-.24.58-.54.95-.69.31-.12.67-.12.95-.3.22-.14.35-.37.55-.53.25-.22.57-.33.84-.52.4-.27.65-.71 1.01-1.03.43-.39 1-.61 1.42-1.02.42-.42.65-1.01 1.12-1.38.03-.02.05-.04.08-.06-.36-.4-.71-.77-1.04-1.08-.2.46-.28 1.04-.61 1.42-.18.2-.43.34-.61.55-.2.25-.29.58-.49.84-.4.53-1.21.65-1.56 1.21-.12.18-.2.42-.4.48-.11.03-.23.01-.34.01-.43.01-.72.41-1 .74-.79.89-1.95 1.37-3.12 1.56-.4.07-.8.11-1.17.28-.6.29-.99.9-1.25 1.52a2.94 2.94 0 0 1 2.24-1.43c.35-.03.71 0 1.06-.03zm-2.48-2.09c.51-.28 1.14-.35 1.59-.73.35-.28.55-.71.87-1.04.46-.47 1.12-.68 1.58-1.14.41-.4.64-.99.6-1.56l.85-1.49c-.27.44-1.35 1.81-1.49 2.11-.09.18-.18.36-.32.52-.34.39-.92.51-1.27.9-.18.2-.29.46-.48.66-.44.48-1.2.48-1.74.82-.61.39-.96 1.19-1.66 1.34.23.14.53.11.77 0 .25-.1.46-.27.7-.39zm-.49-1.5c.34-.29.81-.39 1.13-.7.33-.33.42-.83.67-1.24.22-.34.54-.61.76-.96.22-.34.31-.74.31-1.15.02-.31-.02-.64-.08-.95-.03.38-.13.72-.27 1.03-.13.29-.31.54-.49.74 0 0-.01 0-.01.01-.15.31-.33.6-.6.82-.16.13-.35.24-.49.38 0 0-.01.01-.02.01a.69.69 0 0 0-.11.13c-.16.26-.15.6-.32.86-.28.4-.87.4-1.27.68-.28.21-.44.55-.65.83-.18.25-.46.48-.76.48.47.09.98.14 1.38-.11.34-.22.52-.61.82-.86z"/>
        <path d="M47.65 12.86c.26-.21.69-.05.97-.24.25-.18.26-.53.39-.8.01-.01.01-.02.02-.03.11-.21.27-.37.45-.5-.15.04-.32.03-.45.09-.18.09-.29.26-.39.44-.11.19-.22.39-.41.48-.12.07-.27.08-.39.14-.16.09-.25.27-.33.43-.1.21-.21.42-.31.63.1-.14.19-.29.29-.44.04-.07.09-.15.16-.2zm-2.12 43.82c.01-.01.02-.02.03-.04l-.07.01c.01.02.02.02.04.03zM43.2 21.02c.16-.26.33-.52.54-.73.22-.21.49-.38.79-.4-.39-.15-.82.11-1.12.4-.25.25-.49.55-.79.72l-.24.74c.05-.01.11-.03.16-.05.3-.12.49-.41.66-.68zm-1.18 2.7c.14-.21.3-.42.52-.53.12-.05.26-.08.38-.14.29-.15.43-.47.6-.75.21-.32.48-.6.8-.8-.12.05-.25.09-.39.09-.16.01-.32-.02-.47.01-.49.12-.59.84-1.05 1.03-.12.05-.24.06-.36.09-.18.54-.37 1.07-.56 1.6.02 0 .04-.02.06-.03.2-.15.33-.37.47-.57zm2.93-.67c-.28.06-.57.09-.81.23-.39.23-.58.72-1 .88-.31.12-.67.03-.99.13-.31.1-.52.38-.75.61-.05.05-.11.1-.17.15-.09.27-.19.54-.29.8.19-.07.37-.2.52-.33.3-.27.57-.59.94-.74.38-.15.84-.1 1.15-.35.23-.18.35-.48.59-.64.15-.09.32-.12.47-.18.45-.18.76-.59 1.04-.99-.13.25-.43.37-.7.43zm-2.48 2.33c-.46.17-.75.63-1.16.92-.06.05-.14.09-.22.1-.1.02-.2-.02-.3-.02-.01 0-.03 0-.04.01-.05.14-.1.27-.15.41-.07.2-.15.4-.22.61.06-.03.13-.05.19-.08.39-.17.81-.3 1.1-.61.24-.26.4-.65.74-.74.18-.05.37-.01.55-.02.34-.01.66-.19.9-.43.24-.23.42-.53.59-.82-.22.27-.54.46-.88.53-.37.07-.75.01-1.1.14zm-1.81 7.15c-.28.18-.56.37-.81.58.3-.15.57-.35.81-.58zM40.34 29c.39-.35.59-.94 1.09-1.1.11-.04.23-.05.34-.08.58-.13 1.01-.63 1.27-1.16-.21.39-.72.43-1.14.56-.45.14-.85.43-1.13.81-.16.23-.34.52-.62.51-.05 0-.11-.01-.16-.02-.07.2-.14.4-.21.61.12-.03.26.02.38-.02.07-.02.13-.06.18-.11zm.73-.13c-.18.14-.31.34-.47.5-.31.34-.75.52-1.15.75h-.01l-.39 1.17c0 .01-.01.03-.01.04.11-.02.22-.03.33-.08.27-.12.38-.44.55-.69.19-.29.47-.52.8-.64.13-.04.26-.08.38-.15.2-.12.32-.34.48-.51.47-.5 1.31-.57 1.67-1.16-.43.21-.88.37-1.34.48-.29.06-.6.11-.84.29zm-1.6 3.11c-.23.17-.54.22-.76.38-.09.27-.17.54-.25.82.1-.09.22-.15.35-.18.13-.03.27-.04.38-.11.25-.15.24-.52.43-.74.21-.24.6-.24.81-.48.11-.13.15-.31.23-.47.1-.2.29-.37.5-.46-.48.12-.93.4-1.25.77-.14.16-.26.35-.44.47zm-1.75 24.01h.01c0-.02 0-.03-.01-.05v.05zm-.01-19.91c-.01.03-.03.07-.04.1-.02.15-.04.29-.04.44l.08-.54z"/>
        <path d="M38.93 33.51c-.2.15-.23.44-.39.63-.12.14-.31.21-.46.32-.13.45-.26.91-.38 1.37-.01.05-.03.11-.04.16-.01.08-.01.16-.01.24.01-.02.01-.03.02-.05.09-.63.34-1.25.85-1.61.16-.12.34-.2.47-.35.09-.11.15-.25.22-.38.16-.28.38-.52.63-.73-.2.12-.4.2-.61.27-.1.03-.21.06-.3.13zm-2.48 33.08l.07-.24-.06.12c0 .04-.01.08-.01.12zm-3.19 6.09c-.05.09-.1.17-.14.26.04-.05.09-.14.14-.26z"/>
    </g>
    <path d="M47.37 56.59c-.01.01-.01.03-.02.04-.17.31-.53.53-.84.55-.09.01-.19.01-.28 0-.11.22-.3.46-.57.64-.17.11-.39.19-.6.21a.955.955 0 0 1-.82-.33c-.16.19-.39.36-.67.45-.44.14-.91.02-1.16-.17-.12-.06-.19-.17-.25-.23 0 .01-.01.01-.02.02-.1.07-.19.17-.33.22-.25.14-.59.17-.89.09-.6-.18-.95-.63-1.12-.98-.06-.11-.1-.21-.13-.3l-1.87.05.12 1.61c.06 1.04.1 2.09.11 3.14.25-.74.82-1.92 1.88-1.76 1.52.24 1.23.95 2.51.38.31-.14.58-.2.81-.22.82.16 1.13.58 1.23.99l-1.55 4.45c-.04.18-.09.35-.14.53.66-.98 3.99-5.84 3.55-2.66.06-.14.12-.27.17-.41.46-1.14.85-2.23 1.19-3.16.06-.15.11-.3.15-.45-.9.48-1.61.85-2.13 1.1-.52.25-.82.39-.89.42.03-.02.1-.07.22-.16 0 0 .01 0 .02-.01.34-.23 1-.71 1.94-1.38.28-.2.6-.42.93-.66l.23-.17c.19-.14.39-.28.59-.44.6-.44 1.25-.94 1.95-1.49l-1.31.04-2.01.05zm18.25-31.45a19.58 19.58 0 0 0-.322-2.763c-.128 4.774-1.207 9.602-4.09 13.52-7.528 10.226-16.454 6.766-19.368 5.227 2.158-6.297 2.918-11.78 2.76-12.194h-.02c-.11.76-.23 1.52-.4 2.28-.17.97-.42 1.91-.68 2.86-.28.94-.54 1.89-.85 2.82-.29.94-.64 1.86-.98 2.78-.146.37-.302.737-.45 1.107-.217.543-.428 1.088-.66 1.623-.39.9-.79 1.8-1.21 2.68-.43.91-.88 1.8-1.36 2.67.02.58.03 1.24.01 1.98v.06c-.01.84-.03 1.78-.07 2.78.28-.01.57-.01.86-.02h.15c0-.09.02-.21.05-.34.08-.3.25-.67.51-.98.26-.32.61-.58.92-.68.15-.05.28-.07.37-.07 0-.01.01-.01.01-.01.05-.09.12-.17.21-.25.21-.19.52-.33.85-.39.32-.06.75-.07 1.14.17.05.03.09.06.13.09.25-.21.6-.47 1.15-.49.36.02.63.08 1.01.23.17.08.36.2.51.4v.01c.2-.07.44-.11.73-.08.33.06.55.14.88.34.15.1.3.25.4.44.1.2.12.42.12.61-.01.28-.06.53-.12.76l1.3-.03c2.19-.04 4.37-.09 6.5-.12a33.49 33.49 0 0 0 4.1-5c.69-1.06 1.35-2.19 1.95-3.37 3.45-7.53 4.14-14.62 3.96-18.65z" fill="#A3B929" stroke="#A3B929" stroke-width=".04" stroke-miterlimit="10"/>
    <g fill="#F1E615" stroke="#F1E615" stroke-width=".04" stroke-miterlimit="10">
        <path d="M67.65 28.28c-.08-.9-.14-1.77-.27-2.59-.07-.56-.16-1.1-.26-1.61.03.32.06.64.08.96.19 2.8.15 5.67-.22 8.43-.18 1.39-.44 2.76-.78 4.09-.33 1.34-.74 2.64-1.24 3.88-.21.53-.43 1.06-.67 1.57.05-.08.1-.16.16-.24.19-.34.36-.71.55-1.07.37-.74.79-1.5 1.06-2.36.15-.42.31-.85.48-1.28.17-.43.24-.9.37-1.35.11-.46.24-.92.34-1.39l.2-1.42c.18-.94.16-1.9.25-2.84.02-.95 0-1.88-.05-2.78zM42.23 5.21c.01 0 .02-.01.04-.02 0-.02.01-.04.02-.05-.02.02-.04.05-.06.07zm-5.54 58.56c-.06.38-.13.76-.21 1.13-.18.85-.38 1.61-.57 2.38-.05.21-.11.42-.17.63.24-.48.49-.96.72-1.44.1-.89.18-1.79.23-2.7zm6.08 2.2c0 .01 0 .01-.01.01-.37 1.34-.76 2.68-1.18 4-.28.92-.57 1.83-.88 2.74.13-.13.26-.25.39-.38.31-.38.64-.79 1-1.2.32-.45.66-.93 1.01-1.42.31-.52.63-1.06.95-1.6.29-.57.64-1.12.89-1.72.29-.58.58-1.16.82-1.76.19-.45.38-.89.56-1.32v-.01c.44-3.18-2.89 1.68-3.55 2.66z"/>
        <path d="M64.77 20.17c-.23.24-.47.48-.76.64-.62.34-1.44.36-1.87.91.1-.39.5-.6.87-.75.37-.16.78-.35.9-.73.03-.1.04-.2.08-.29.1-.23.36-.32.58-.44-.1-.31-.21-.61-.31-.9-.22.16-.45.31-.61.52-.25.31-.36.75-.69.96-.31.2-.72.17-1.05.33-.23.11-.41.32-.6.5-.48.44-1.1.71-1.75.77.56-.09 1.07-.43 1.37-.91.17-.27.28-.59.52-.8.34-.32.88-.32 1.27-.58.61-.4.67-1.28 1.12-1.86h.01v-.01c-.13-.33-.26-.64-.39-.94-.41.3-.34.95-.57 1.41-.32.63-1.15.77-1.76 1.13-.85.51-1.37 1.54-2.32 1.81-.77.23-1.73-.08-2.32.47.24-.39.7-.58 1.14-.68s.91-.13 1.32-.32c1-.47 1.41-1.72 2.34-2.32.19-.11.39-.21.54-.37.33-.34.31-.88.42-1.35.1-.42.33-.81.64-1.11 0-.02-.01-.04-.02-.06a9.23 9.23 0 0 0-.6-1.16c-.12.06-.24.13-.33.23-.22.23-.26.57-.45.83-.32.45-.97.53-1.42.87-.37.3-.58.77-.98 1.04-.51.34-1.22.26-1.74.59-.46.29-.75.87-1.29.96-.28.05-.58-.06-.86 0-.35.08-.58.39-.88.58-.46.29-1.02.27-1.56.28.46-.27.79-.78 1.29-.99.54-.23 1.19-.07 1.72-.32.54-.25.84-.87 1.39-1.12.45-.21 1-.11 1.46-.31.73-.31.98-1.22 1.56-1.75.4-.37.99-.58 1.19-1.08.1-.24.1-.52.16-.77.01-.03.01-.07.03-.1a7.5 7.5 0 0 0-.36-.48c-.19.13-.38.25-.52.43-.18.23-.25.53-.43.76-.29.38-.8.51-1.13.86-.24.26-.37.62-.63.85-.32.28-.78.33-1.14.53-.43.24-.72.69-1.12.95.27-.26.4-.72.67-1.01.32-.34.83-.42 1.16-.73.26-.25.39-.6.63-.87.32-.35.82-.51 1.08-.9.11-.18.17-.38.24-.57.15-.37.37-.69.63-1-.18-.22-.37-.43-.55-.64-.03.02-.05.04-.08.06-.47.37-.7.96-1.12 1.38-.42.41-.99.63-1.42 1.02-.36.32-.61.76-1.01 1.03-.27.19-.59.3-.84.52-.2.16-.33.39-.55.53-.28.18-.64.18-.95.3-.37.15-.64.45-.95.69-.4.3-.87.49-1.37.54-.35.03-.71 0-1.06.03-.92.09-1.78.63-2.24 1.43.26-.62.65-1.23 1.25-1.52.37-.17.77-.21 1.17-.28 1.17-.19 2.33-.67 3.12-1.56.28-.33.57-.73 1-.74.11 0 .23.02.34-.01.2-.06.28-.3.4-.48.35-.56 1.16-.68 1.56-1.21.2-.26.29-.59.49-.84.18-.21.43-.35.61-.55.33-.38.41-.96.61-1.42-.43-.42-.81-.74-1.1-.94-.06.08-.11.17-.15.26-.15.32-.17.71-.42.97-.24.25-.62.3-.91.49-.26.17-.43.43-.6.69.1-.44.21-.91.51-1.25.25-.28.63-.46.78-.81.11-.23.09-.5.11-.76-.23-.14-.46-.3-.69-.47a.61.61 0 0 0-.18.31c-.07.28.03.57-.05.84-.16.53-.89.67-1.15 1.15-.23.45.01 1.04-.22 1.49-.33.62-1.35.59-1.68 1.21.15-.43.39-.83.72-1.16.19-.19.42-.37.53-.62.16-.36.05-.8.21-1.17.16-.38.57-.6.76-.97.25-.51.01-1.19.27-1.69-.28-.22-.52-.41-.68-.54-.37.29-.68.67-.76 1.04-.11.49.01.74-.27 1.16-.38.56-.89.79-1.3 1.33-.21.26-.28.61-.46.9-.44.7-1.44.89-1.86 1.59a3 3 0 0 1 .79-1.17c.15-.14.32-.26.43-.44.2-.34.15-.8.41-1.1.18-.2.46-.28.67-.44.54-.42.5-1.25.81-1.86.21-.42.57-.74.87-1.1.08-.1.16-.21.22-.33-.17-.18-.4-.43-.71-.72 0 .01-.01.01-.01.02-.13.37.12.86-.16 1.13-.12.11-.29.13-.42.22-.2.13-.28.39-.32.63-.03.23-.03.48-.11.71-.09.23-.28.43-.52.53.16-.26.24-.57.23-.88-.01-.23-.07-.47 0-.69.1-.28.37-.45.54-.69.22-.28.29-.65.4-.99.03-.08.06-.15.09-.22-.19-.15-.39-.31-.63-.48.01.15.03.31-.03.46-.07.14-.24.26-.39.2-.09.22.09.47.05.71-.03.18-.18.3-.28.45-.09.15-.13.33-.11.5-.19-.35-.18-.8.01-1.15.08-.15.19-.3.19-.47-.01-.08-.04-.15-.06-.22-.11-.28-.18-.62.01-.84l.02-.02a8.1 8.1 0 0 0-.6-.33c-.05.37.25.78.08 1.13-.05.1-.14.19-.2.28.06-.23.07-.48.01-.71-.05-.19-.14-.37-.1-.55.01-.08.05-.15.07-.22-.16-.08-.34-.17-.53-.25-.02.05-.03.11-.03.17 0 .13.08.25.14.37.09.17.14.35.12.53-.02.19-.12.37-.28.45a.793.793 0 0 0-.29-.88c-.06-.04-.12-.08-.14-.15-.02-.07.03-.15.08-.21.08-.11.14-.25.18-.38-.26-.11-.55-.22-.85-.32-.01.13.01.27.06.39.04.12.11.22.17.34.17.38.14.85-.1 1.2l-.08.01c.46.29.81.65 1.06 1.08.12.21.22.43.28.66 0 0 .01 0 .01.01.12.23.21.48.25.75v.01c.04.17.06.35.06.53 0 .28-.04.54-.12.8 0 .41-.09.81-.31 1.15-.22.35-.54.62-.76.96-.25.41-.34.91-.67 1.24-.32.31-.79.41-1.13.7-.3.25-.48.64-.82.86-.4.25-.91.2-1.38.11.3 0 .58-.23.76-.48.21-.28.37-.62.65-.83.4-.28.99-.28 1.27-.68.17-.26.16-.6.32-.86.03-.05.07-.09.11-.13-.22.08-.46.14-.71.16-.01.01-.01.02-.02.03-.13.27-.14.62-.39.8-.28.19-.71.03-.97.24-.07.05-.12.13-.16.2-.1.15-.19.3-.29.44.1-.21.21-.42.31-.63.08-.16.17-.34.33-.43.12-.06.27-.07.39-.14.19-.09.3-.29.41-.48-1.09-.01-2.05-.53-2.62-1.34-.34-.48-.54-1.06-.54-1.69 0-.64.21-1.24.58-1.73.14-.32.35-.62.61-.89.41-.42.98-.71 1.58-.79.32-.05.66-.04.98.03a.42.42 0 0 1 .01-.33c.03-.07.08-.14.11-.21.11-.2.12-.44.04-.65.22.38.25.84.09 1.25.01-.01.02-.01.02 0l.11-.21c-.01.08-.05.15-.1.22.14.03.27.08.39.14.02-.11.07-.22.1-.32.16-.48-.02-1.02.09-1.5-.11-.04-.22-.07-.33-.11-3.52-1.13-7.05 1.24-7.49 1.5-.35.74-.91 2.26.01 2.57.85.3 1.22.83 1.38 1.14.13.11.25.23.34.36.01-.01.01 0 .02.01.35.2.74.48 1.15.88.06.05.13.11.19.17.02.02.04.03.05.05.05.07.1.13.14.19v.01c.02 0 .03.01.04.02.03.02.06.03.08.06.01 0 .02.01.02.02.02.01.03.03.05.05.06.06.11.13.17.2.06.1.07.15.07.15s-.06-.01-.16-.03c-.09-.04-.23-.04-.38-.05h-.1c.41.6 1.34 2.71.35 4.25-1.19 1.85-1.94 1.75-1.94 1.75l.26-.85c-.01.01-.02.01-.03.02l-.65.38.12-.71c.04-.23.05-.5.04-.76a3.87 3.87 0 0 0-.11-.76c-.04-.11-.08-.21-.12-.31-.62.05-.73 1.12-.74 1.65v.01c.31.57.57 1.18.7 1.84.09.42.13.86.07 1.32-.07.48-.23.85-.35 1.23l-.32.96c.3-.17.54-.47.79-.72.3-.29.73-.55 1.12-.4-.3.02-.57.19-.79.4-.21.21-.38.47-.54.73-.17.27-.36.56-.66.68-.05.02-.11.04-.16.05l-.19.57c-.05.13-.09.27-.14.4.12-.03.24-.04.36-.09.46-.19.56-.91 1.05-1.03.15-.03.31 0 .47-.01.14 0 .27-.04.39-.09-.32.2-.59.48-.8.8-.17.28-.31.6-.6.75-.12.06-.26.09-.38.14-.22.11-.38.32-.52.53-.14.2-.27.42-.47.57-.02.01-.04.03-.06.03-.08.25-.17.49-.26.73.06-.05.12-.1.17-.15.23-.23.44-.51.75-.61.32-.1.68-.01.99-.13.42-.16.61-.65 1-.88.24-.14.53-.17.81-.23.27-.06.57-.18.7-.43-.28.4-.59.81-1.04.99-.15.06-.32.09-.47.18-.24.16-.36.46-.59.64-.31.25-.77.2-1.15.35-.37.15-.64.47-.94.74-.15.13-.33.26-.52.33-.06.18-.12.36-.19.54.01-.01.03-.01.04-.01.1 0 .2.04.3.02.08-.01.16-.05.22-.1.41-.29.7-.75 1.16-.92.35-.13.73-.07 1.1-.14.34-.07.66-.26.88-.53-.17.29-.35.59-.59.82-.24.24-.56.42-.9.43-.18.01-.37-.03-.55.02-.34.09-.5.48-.74.74-.29.31-.71.44-1.1.61-.06.03-.13.05-.19.08-.13.36-.26.73-.39 1.11.05.01.11.02.16.02.28.01.46-.28.62-.51.28-.38.68-.67 1.13-.81.42-.13.93-.17 1.14-.56-.26.53-.69 1.03-1.27 1.16-.11.03-.23.04-.34.08-.5.16-.7.75-1.09 1.1-.05.05-.11.09-.18.11-.12.04-.26-.01-.38.02l-.33.99c.4-.23.84-.41 1.15-.75.16-.16.29-.36.47-.5.24-.18.55-.23.84-.29.46-.11.91-.27 1.34-.48-.36.59-1.2.66-1.67 1.16-.16.17-.28.39-.48.51-.12.07-.25.11-.38.15-.33.12-.61.35-.8.64-.17.25-.28.57-.55.69-.11.05-.22.06-.33.08-.11.34-.22.68-.33 1.03.22-.16.53-.21.76-.38.18-.12.3-.31.44-.47.32-.37.77-.65 1.25-.77-.21.09-.4.26-.5.46-.08.16-.12.34-.23.47-.21.24-.6.24-.81.48-.19.22-.18.59-.43.74-.11.07-.25.08-.38.11s-.25.09-.35.18c-.14.42-.26.85-.38 1.28.15-.11.34-.18.46-.32.16-.19.19-.48.39-.63.09-.07.2-.1.3-.13.21-.07.41-.15.61-.27-.25.21-.47.45-.63.73-.07.13-.13.27-.22.38-.13.15-.31.23-.47.35-.51.36-.76.98-.85 1.61.01-.03.03-.07.04-.1l-.08.54c0-.15.02-.29.04-.44-.01.02-.01.03-.02.05 0-.08 0-.16.01-.24-.4 1.48-.7 2.97-.95 4.48-.13.78-.22 1.57-.3 2.35-.07.79-.1 1.58-.12 2.36-.01.79.02 1.58.07 2.36 0 .05.01.1.01.15.28-.54.55-1.09.82-1.63.13-.28.27-.57.42-.85.13-.26.26-.53.39-.79.87-1.73 1.68-3.48 2.49-5.24.79-1.77 1.56-3.54 2.26-5.35.33-.91.68-1.82 1-2.74.34-.91.59-1.85.91-2.78-.03.21-.06.41-.08.62h.02c.158.413-.602 5.897-2.76 12.194 2.915 1.538 11.84 4.998 19.367-5.227 2.884-3.918 3.962-8.746 4.09-13.52a22.743 22.743 0 0 0-.527-2.207zM39.85 33.11c.25-.21.53-.4.81-.58-.24.23-.51.43-.81.58zm13.53-19.24c.54-.29 1.33-.24 1.63-.78.14-.27.12-.61.31-.84.15-.19.41-.26.64-.34 1.04-.35 1.93-1.1 2.45-2.05l-.01.13c-.35.89-.78 1.86-1.67 2.21-.25.09-.53.14-.7.35-.12.14-.16.33-.25.5-.45.88-1.97.62-2.52 1.45-.17.26-.23.59-.43.82-.49.56-1.57.26-1.98.87.24-.4.76-.53 1.13-.81.55-.42.8-1.17 1.4-1.51zm-5.53 1.66c.7-.15 1.05-.95 1.66-1.34.54-.34 1.3-.34 1.74-.82.19-.2.3-.46.48-.66.35-.39.93-.51 1.27-.9.14-.16.23-.34.32-.52.14-.3 1.22-1.67 1.49-2.11l-.85 1.49c.04.57-.19 1.16-.6 1.56-.46.46-1.12.67-1.58 1.14-.32.33-.52.76-.87 1.04-.45.38-1.08.45-1.59.73-.24.12-.45.29-.7.39-.24.11-.54.14-.77 0zm.46 1.3c.06-.33.34-.6.67-.65.17-.03.34 0 .49-.08.19-.1.26-.32.41-.47.28-.31.78-.3 1.1-.57.25-.21.35-.57.6-.78.23-.18.55-.23.84-.31.06-.04.13-.07.19-.09l.37-.29c-.11.21-.32.31-.56.38-.35.15-.66.38-.91.67-.31.37-.54.84-.97 1.03-.17.08-.38.12-.48.27-.06.1-.06.22-.11.33-.14.27-.51.3-.82.29-.3-.02-.67 0-.82.27zm4.37.75c.42-.28.71-.73 1.17-.92.34-.14.72-.13 1.05-.27.52-.23.81-.78 1.24-1.15.72-.6 1.84-.7 2.33-1.5l-.06.13c-.06.38-.35.68-.67.89-.32.22-.67.37-.97.62-.42.37-.69.9-1.16 1.22-.62.42-1.49.36-2.09.81-.32.24-.55.62-.93.76-.36.14-.76.03-1.14.03-.49.01-.98.23-1.31.6.52-.8 1.74-.69 2.54-1.22zm-.23 1.96c-.3.07-.65.02-.97.01-.28.06-.55.13-.82.23.21-.22.5-.25.82-.23a5.5 5.5 0 0 1 1.08-.13h.19c-.09.05-.19.09-.3.12zm2.56.98c-.5-.07-.99-.14-1.48-.22.1-.18.34-.22.55-.19.2.03.4.1.61.09.5-.04.81-.6 1.28-.79.44-.18.98 0 1.4-.23.29-.15.46-.46.73-.65.37-.25.85-.23 1.28-.34.69-.19 1.21-.71 1.67-1.27.05-.11.09-.22.14-.33l.15-.04c-.1.12-.19.25-.29.37-.3.69-.69 1.38-1.36 1.69-.45.21-.99.23-1.34.57-.17.17-.29.4-.49.51-.34.18-.76-.01-1.12.09-.42.12-.66.61-1.08.74-.21.07-.43.04-.65 0zM44.46 60.99c-.1-.41-.41-.83-1.23-.99-.23.02-.5.08-.81.22-1.28.57-.99-.14-2.51-.38-1.06-.16-1.63 1.02-1.88 1.76.03 1.7-.01 3.41-.15 5.13l-.01.12-.05.12c-.97 2.01-1.94 4-3.01 5.95-1.06 1.95-2.17 3.88-3.34 5.77-1.18 1.88-2.4 3.74-3.73 5.53-.66.89-1.34 1.77-2.07 2.61-.31.37-.6.74-.93 1.09.28-.11.58-.25.9-.42.25-.11.5-.26.75-.42.26-.16.54-.32.81-.52.54-.38 1.1-.84 1.67-1.35.19-.16.37-.34.56-.52l.24-.24c.3-.3.59-.62.89-.94.57-.61 1.09-1.3 1.64-1.99.54-.7 1.06-1.43 1.55-2.18 1.01-1.49 1.91-3.05 2.75-4.53.82-1.48 1.55-2.9 2.17-4.11 1.15-2.3 1.92-3.9 2.01-4.09-.03.21-.36 1.96-1.22 4.42-.34 1-.77 2.12-1.29 3.29-.07.18-.15.36-.24.55-.08.18-.17.37-.26.55-.39.77-.77 1.59-1.23 2.38-.45.8-.94 1.59-1.45 2.37-1.04 1.55-2.21 3.02-3.48 4.25-.62.63-1.27 1.18-1.93 1.66-.06.05-.13.09-.19.14-.05.27-.11.53-.16.8-.27 1.28-.57 2.56-.97 3.81-.21.63-.41 1.26-.65 1.87-.22.63-.5 1.23-.77 1.84-.3.59-.58 1.2-.93 1.77-.05.09-.1.19-.16.28.14-.08.28-.17.41-.26.59-.41 1.15-.93 1.67-1.49 1.05-1.11 1.97-2.38 2.83-3.69.85-1.31 1.66-2.67 2.41-4.06.77-1.38 1.46-2.8 2.18-4.22.69-1.42 1.35-2.86 2.02-4.31.5-1.1.99-2.22 1.48-3.33.13-.3.26-.61.4-.91.01-.04.03-.08.05-.12l.1-.24 3.61-8.52 1.55-4.45z"/>
    </g>
    <g fill="#6A770B" stroke="#6A770B" stroke-width=".04" stroke-miterlimit="10">
        <path d="M49.23 5.41c-.32-.07-.66-.08-.98-.03-.6.08-1.17.37-1.58.79-.26.27-.47.57-.61.89-.1.19-.17.4-.22.61-.05.28-.08.54-.05.82 0 .14.03.25.04.37.03.14.06.25.09.38.15.47.41.88.7 1.19.61.62 1.32.87 1.8.91.24.03.46.01.58 0s.19-.02.19-.02h.01s.06-.02.19-.04c.05-.01.1-.02.16-.04.01 0 .02-.01.02-.01.05-.03.09-.06.14-.09-.02.03-.05.05-.08.08a2.72 2.72 0 0 0 1.22-.8c0-.01.01-.01.01-.01.18-.2.36-.45.49-.74.14-.31.24-.65.27-1.03-.01-.04-.01-.07-.03-.1v-.01c0-.02 0-.05-.01-.07l.05-.06v-.08c0-.26-.04-.54-.12-.82 0-.01-.01-.01-.01-.01a2.73 2.73 0 0 0-.28-.66c-.25-.43-.6-.79-1.06-1.08h-.02c-.05-.04-.09-.06-.14-.09a.3.3 0 0 0-.1-.04c-.12-.06-.25-.11-.39-.14-.01.02-.03.05-.05.07.01-.03.02-.05.02-.08-.08-.03-.16-.05-.25-.06zm1.76 4.1c-.28.7-.81 1.1-1.2 1.29-.19.09-.36.14-.47.17-.08.02-.13.03-.16.04 0 0-.28.05-.69 0a2.37 2.37 0 0 1-1.52-.87c-.23-.28-.41-.64-.51-1.04-.01-.1-.04-.22-.04-.3-.01-.12-.03-.25-.01-.34 0-.2.04-.43.1-.63.12-.42.35-.83.68-1.13.33-.31.75-.52 1.2-.6.47-.08.91-.01 1.33.18.04.02.07.03.1.05a2.514 2.514 0 0 1 .93.81 2.504 2.504 0 0 1 .37.87c.03.11.05.23.06.35.03.4-.04.81-.17 1.15z"/>
        <path d="M68.59 28.21c-.11-.92-.17-1.82-.35-2.66-.14-.84-.33-1.62-.51-2.34-.37-1.44-.8-2.6-1.12-3.4-.24-.6-.43-1-.52-1.16a28.963 28.963 0 0 0-1.26-3.643c-.834-1.99-1.894-3.87-3.27-5.487-.89-1.07-1.97-2-2.9-2.72-.96-.82-1.89-1.61-2.81-2.39-.94-.78-1.96-1.49-3.06-2.03a9.295 9.295 0 0 0-3.43-.93c-.57-.05-1.13.01-1.67.05-.54.09-1.1.16-1.54.3-.95.23-1.88.59-2.66 1.07-1.58.96-2.5 2.41-2.81 3.64a6.24 6.24 0 0 0-.26 1.48c.14-.07.28-.13.42-.16.01 0 .03-.01.04-.01.1-.35.22-.72.38-1.1.22-.51.54-1.03.97-1.51.02-.02.04-.05.06-.07.45-.5 1.03-.96 1.74-1.29.71-.33 1.5-.6 2.41-.71.49-.1.91-.08 1.36-.12.45.03.92.02 1.38.12.61.08 1.2.25 1.79.49.06.01.12.04.17.06.1.04.19.08.28.13.19.08.38.17.57.28.2.1.4.21.6.33.17.1.34.21.5.32.28.18.57.38.85.59.11.08.22.16.34.26.13.09.26.19.39.29.07.05.13.11.2.16.27.22.54.43.81.66.2.16.4.32.61.49l.85.7h.01l.33.27c.01.01.03.02.04.03.26.2.51.39.75.57.37.3.72.58 1.05.88.35.3.68.62 1 .96.06.07.13.13.18.2.17.18.34.37.5.56.2.24.4.5.6.76l.3.42c.29.42.57.86.83 1.31.21.35.4.7.59 1.07.24.45.46.92.67 1.4.12.26.23.52.33.78.02.03.03.06.04.09.13.34.25.67.36 1.02v.01a13.008 13.008 0 0 1 .47 1.5c.036.125.064.253.098.378.44 1.633.73 3.312.842 5.012.19 2.75-.07 5.47-.63 8.1-.53 2.64-1.39 5.13-2.38 7.47-.45 1.07-.94 2.1-1.46 3.1-.6 1.18-1.26 2.31-1.95 3.37a33.49 33.49 0 0 1-4.1 5c.78-.02 1.54-.04 2.3-.05.5-.48 1-.99 1.48-1.54.11-.11.21-.23.3-.34.55-.63 1.08-1.31 1.59-2.03.38-.53.74-1.08 1.1-1.65.24-.25.5-.53.8-.84.41-.44.79-1.01 1.24-1.6.22-.3.44-.62.68-.94.21-.34.4-.71.61-1.09.41-.75.89-1.52 1.19-2.41.17-.43.34-.87.52-1.32s.26-.93.4-1.4c.12-.48.26-.95.37-1.44l.23-1.47c.21-.98.2-1.98.26-2.96 0-.98-.03-1.94-.09-2.87zm-.89 2.85c-.09.94-.07 1.9-.25 2.84l-.2 1.42c-.1.47-.23.93-.34 1.39-.13.45-.2.92-.37 1.35-.17.43-.33.86-.48 1.28-.27.86-.69 1.62-1.06 2.36-.19.36-.36.73-.55 1.07-.06.08-.11.16-.16.24.24-.51.46-1.04.67-1.57.5-1.24.91-2.54 1.24-3.88.34-1.33.6-2.7.78-4.09.37-2.76.41-5.63.22-8.43-.02-.32-.05-.64-.08-.96.1.51.19 1.05.26 1.61.13.82.19 1.69.27 2.59.05.9.07 1.83.05 2.78zM35.46 51.99l1.07-1.73c.11-.17.21-.35.31-.52-.08.87-.17 1.84-.27 2.87.14 0 .28-.01.42-.01.12 0 .24-.01.36-.01.19-.01.39-.01.58-.02.04-1 .06-1.94.07-2.78v-.06c.02-.74.01-1.4-.01-1.98.48-.87.93-1.76 1.36-2.67.42-.88.82-1.78 1.21-2.68.232-.535.443-1.08.66-1.623.148-.37.304-.738.45-1.107.34-.92.69-1.84.98-2.78.31-.93.57-1.88.85-2.82.26-.95.51-1.89.68-2.86.17-.76.29-1.52.4-2.28.02-.21.05-.41.08-.62-.32.93-.57 1.87-.91 2.78-.32.92-.67 1.83-1 2.74-.7 1.81-1.47 3.58-2.26 5.35-.81 1.76-1.62 3.51-2.49 5.24-.13.26-.26.53-.39.79-.15.28-.29.57-.42.85-.27.54-.54 1.09-.82 1.63 0-.05-.01-.1-.01-.15-.05-.78-.08-1.57-.07-2.36.02-.78.05-1.57.12-2.36.08-.78.17-1.57.3-2.35.25-1.51.55-3 .95-4.48.01-.05.03-.11.04-.16.12-.46.25-.92.38-1.37.12-.43.24-.86.38-1.28.08-.28.16-.55.25-.82.11-.35.22-.69.33-1.03 0-.01.01-.03.01-.04l.39-1.17h.01l.33-.99c.07-.21.14-.41.21-.61.13-.38.26-.75.39-1.11.07-.21.15-.41.22-.61.05-.14.1-.27.15-.41.07-.18.13-.36.19-.54.1-.26.2-.53.29-.8.09-.24.18-.48.26-.73.19-.53.38-1.06.56-1.6.05-.13.09-.27.14-.4l.19-.57.24-.74.32-.96c.12-.38.28-.75.35-1.23.06-.46.02-.9-.07-1.32-.13-.66-.39-1.27-.7-1.84v-.01c-.08-.15-.17-.29-.26-.44-.07-.12-.15-.23-.22-.35-.01.04-.01.08-.01.12 0 .22-.01.43-.04.67v.01c.26.64.46 1.3.53 1.95.03.36.02.73-.07 1.06-.07.3-.25.66-.42 1.02l-1.01 2.17c-.66 1.46-1.25 2.95-1.76 4.47-.51 1.52-1.01 3.04-1.41 4.6-.41 1.55-.78 3.11-1.1 4.68-.31 1.58-.62 3.15-.84 4.74l-.31 2.39c-.08.8-.17 1.6-.23 2.4-.05.81-.1 1.62-.12 2.43 0 .81.02 1.62.08 2.44l.13 1.98zm13.28 6c-.2.16-.4.3-.59.44l-.23.17c-.33.24-.65.46-.93.66-.94.67-1.6 1.15-1.94 1.38-.01.01-.02.01-.02.01-.12.09-.19.14-.22.16.07-.03.37-.17.89-.42.52-.25 1.23-.62 2.13-1.1-.04.15-.09.3-.15.45-.34.93-.73 2.02-1.19 3.16-.05.14-.11.27-.17.41v.01c-.18.43-.37.87-.56 1.32-.24.6-.53 1.18-.82 1.76-.25.6-.6 1.15-.89 1.72-.32.54-.64 1.08-.95 1.6-.35.49-.69.97-1.01 1.42-.36.41-.69.82-1 1.2-.13.13-.26.25-.39.38.31-.91.6-1.82.88-2.74.42-1.32.81-2.66 1.18-4 .01 0 .01 0 .01-.01.05-.18.1-.35.14-.53l-3.61 8.52-.1.24c-.02.04-.04.08-.05.12-.14.3-.27.61-.4.91-.49 1.11-.98 2.23-1.48 3.33-.67 1.45-1.33 2.89-2.02 4.31-.72 1.42-1.41 2.84-2.18 4.22-.75 1.39-1.56 2.75-2.41 4.06-.86 1.31-1.78 2.58-2.83 3.69-.52.56-1.08 1.08-1.67 1.49-.13.09-.27.18-.41.26.06-.09.11-.19.16-.28.35-.57.63-1.18.93-1.77.27-.61.55-1.21.77-1.84.24-.61.44-1.24.65-1.87.4-1.25.7-2.53.97-3.81.05-.27.11-.53.16-.8.06-.05.13-.09.19-.14.66-.48 1.31-1.03 1.93-1.66 1.27-1.23 2.44-2.7 3.48-4.25.51-.78 1-1.57 1.45-2.37.46-.79.84-1.61 1.23-2.38.09-.18.18-.37.26-.55.09-.19.17-.37.24-.55.52-1.17.95-2.29 1.29-3.29.86-2.46 1.19-4.21 1.22-4.42-.09.19-.86 1.79-2.01 4.09-.62 1.21-1.35 2.63-2.17 4.11-.84 1.48-1.74 3.04-2.75 4.53-.49.75-1.01 1.48-1.55 2.18-.55.69-1.07 1.38-1.64 1.99-.3.32-.59.64-.89.94l-.24.24c-.19.18-.37.36-.56.52-.57.51-1.13.97-1.67 1.35-.27.2-.55.36-.81.52-.25.16-.5.31-.75.42-.32.17-.62.31-.9.42.33-.35.62-.72.93-1.09.73-.84 1.41-1.72 2.07-2.61 1.33-1.79 2.55-3.65 3.73-5.53 1.17-1.89 2.28-3.82 3.34-5.77 1.07-1.95 2.04-3.94 3.01-5.95l.05-.12.01-.12c.14-1.72.18-3.43.15-5.13-.01-1.05-.05-2.1-.11-3.14l-.12-1.61-.15.01-.71.02-.79.02-.27 2.56c-.2 1.77-.44 3.54-.75 5.18-.12.81-.28 1.63-.42 2.38-.14.75-.29 1.45-.43 2.11-.15.64-.28 1.24-.42 1.76-.14.52-.27.97-.4 1.32-.05.13-.1.25-.14.35l-.06.12c-.05.12-.1.21-.14.26-.01.02-.02.03-.04.05v.02h-.01c-.89 1.68-1.8 3.35-2.72 5.02-1.08 1.92-2.18 3.82-3.31 5.71l-.87 1.41c-.28.48-.57.94-.88 1.4-.26.4-.51.82-.79 1.21-.03.06-.08.12-.12.18l-.12.18-.21.31c.08-.01.17-.02.27-.04.03-.01.07-.01.1-.02.4-.07.9-.14 1.44-.34.27-.07.56-.18.86-.31.3-.12.61-.25.92-.43.41-.21.83-.45 1.25-.73-.03.11-.07.23-.1.34a58.98 58.98 0 0 1-1.31 3.66c-.25.59-.48 1.19-.76 1.77-.26.59-.57 1.15-.85 1.72-.32.56-.61 1.12-.97 1.64-.33.55-.73 1.03-1.1 1.54l-.56.78.87.22c.44.11.63.06.9.03.25-.04.48-.11.7-.19.44-.16.84-.37 1.2-.61.73-.47 1.36-1.04 1.95-1.63 1.16-1.19 2.13-2.51 3.03-3.86.92-1.35 1.71-2.76 2.47-4.18.77-1.42 1.47-2.86 2.14-4.33.65-1.46 1.29-2.93 1.88-4.42.58-1.5 1.16-2.99 1.69-4.5.08-.24.17-.47.24-.71.05-.02.11-.05.16-.09.36-.22.76-.47 1.2-.76.39-.33.82-.69 1.26-1.1.41-.42.82-.89 1.24-1.39.37-.53.79-1.06 1.13-1.64.32-.59.71-1.17.99-1.79.58-1.24 1.09-2.51 1.44-3.73.21-.6.33-1.21.47-1.77.13-.57.23-1.11.31-1.61.07-.4.12-.77.15-1.11 1.13-.62 2.46-1.4 3.92-2.39l-1.89.05c-.7.55-1.35 1.05-1.95 1.49zm-12.83 9.29c.19-.77.39-1.53.57-2.38.08-.37.15-.75.21-1.13-.05.91-.13 1.81-.23 2.7l.06-.12-.07.24c0-.04.01-.08.01-.12-.23.48-.48.96-.72 1.44.06-.21.12-.42.17-.63z"/>
    </g>
    <path d="M78.61 20.86c-.58-2.19-1.32-4.35-2.15-6.47a96.69 96.69 0 0 0-5.66-11.9c.06.17.08.37-.02.54-.24.42-.71-1.19-1.42-1.61a.38.38 0 0 0-.18-.06c.77 1.39 4.35 7.93 5.58 10.71 1.37 3.13 3.55 8.38 3.83 11.74.29 3.36.62 4.93.38 12.03s-.66 18.13-.66 18.13-.04.53.59.42c.2-4.38.39-8.78.54-13.17.15-4.57.26-9.14.22-13.7-.05-2.23-.49-4.47-1.05-6.66zM66.77 52.75c-.01.04-.03.08-.04.12-.09.33-.22.68-.3.97-.06.23-.08.45-.09.7l10.58-.19c.04-.67.07-1.34.1-2.01-.86.03-4.07.16-8.55.35-.55.02-1.12.03-1.7.06zm-12.12.36l-5.51.15c-.5.02-1 .03-1.5.04l-.03.28c-.03.33-.04.67 0 .96.02.11.03.22.04.33l10.94-.19c.06-.35.15-.69.27-.94.13-.27.17-.53.18-.74-.69.02-1.4.03-2.12.05l-2.27.06zm-13.96 1.56c-.01.08-.03.16-.04.24 0 .03-.01.06-.01.09-.02.18 0 .38.08.55-.04-.19-.05-.38-.05-.55 0-.12.01-.23.02-.33zm-1.88-1.19c-.31.01-.62.01-.92.02-.14 0-.29.01-.43.01-.16 0-.32.01-.48.01-.17 0-.33.01-.49.01-2.42.04-4.69.06-6.69.09-2.64.02-4.84.04-6.37.05-.8.01-1.42.02-1.84.02.02.55.05 1.1.07 1.64l14.67-.26.64-.01.67-.01h.15l2.36-.04c-.02-.69.18-1.12.18-1.12l-.06-.44-1.46.03zM21.23 22.57c.62-2.22 1.39-4.39 2.26-6.52C25.17 12 27.14 8.1 29.37 4.34l-.44.2s-.1-.23 0-.94c.04-.28-.09-.38-.27-.38-3.74 8.08-6.78 14.8-8.21 19.36-1.47 4.69-.99 12.55-1.04 12.93-.05.38.19 16.9.33 19.22.1 1.69.68 1.6.99 1.42-.24-4.32-.4-8.65-.52-12.98l-.15-6.86-.03-3.44c0-1.16 0-2.28.04-3.45.07-2.34.55-4.62 1.16-6.85z" fill="#B3B3B3" stroke="#B3B3B3" stroke-width=".04" stroke-miterlimit="10"/>
    <path d="M78.97 35.84c.24-7.1-.09-8.67-.38-12.03-.28-3.36-2.46-8.61-3.83-11.74-1.23-2.78-4.81-9.32-5.58-10.71-.27-.04-.3.38-.27.74h.01c2.34 3.95 4.42 8.04 6.18 12.28.88 2.13 1.64 4.3 2.25 6.53.31 1.11.56 2.24.77 3.38.2 1.12.34 2.31.37 3.46.05 2.31.03 4.59.01 6.88l-.14 6.87c-.13 4.42-.29 8.82-.5 13.24.16 0 .31-.01.46-.03.15-.02.3-.05.44-.08l.13-.04c0-.07.01-.13.01-.2-.63.11-.59-.42-.59-.42s.42-11.03.66-18.13zM66.33 54.8c-.01.2-.02.42-.06.64l10.6-.14.01-.13c.01-.27.03-.54.04-.82l-10.58.19c0 .08-.01.17-.01.26zM59.04 53c-.01.21-.05.47-.18.74-.12.25-.21.59-.27.94l-10.94.19c.02.25.02.51 0 .74-.01.06-.01.12-.02.18l1.73-.04 2.32-.04 2.01-.04 4.85-.1.56-.01c0-.03-.01-.06-.01-.09-.03-.24-.01-.51.06-.8.07-.35.2-.72.35-1.05.09-.22.18-.43.23-.64-.09 0-.18.01-.27.01-.14 0-.28.01-.42.01zm-18.35 1.67v-.03c.07-.55.26-.94.26-.94-.03-.07-.05-.14-.07-.2-.01-.02-.01-.04-.02-.06-.2 0-.4.01-.59.01l.06.44s-.2.43-.18 1.12l-2.36.04h-.15l-.67.01-.64.01-14.67.26c.02.35.03.69.05 1.04.46-.03.87-.03 1.28-.04l1.76-.05 3.52-.08 7.03-.16.94-.02.71-.01.77-.02v-.05c.01.02.01.03.01.05l2.6-.05h.01l.47-.01c-.04-.13-.07-.25-.09-.38-.08-.17-.1-.37-.08-.55 0-.03.01-.06.01-.09.01-.08.03-.16.04-.24zm-20.95.06c-.14-2.32-.38-18.84-.33-19.22.05-.38-.43-8.24 1.04-12.93 1.43-4.56 4.47-11.28 8.21-19.36-.18 0-.43.11-.6.25v.01l-2.94 6.28c-.98 2.09-1.96 4.19-2.84 6.31-.89 2.13-1.73 4.27-2.31 6.48-.31 1.1-.52 2.22-.7 3.34a38.57 38.57 0 0 0-.32 3.41c-.06 1.14-.09 2.3-.11 3.45l-.02 3.46.08 6.94.16 6.94.08 3.47c.01.58.03 1.13.12 1.69.04.28.09.56.17.82.07.25.19.51.32.6.2.09.46.14.7.15.11 0 .21 0 .31-.02l-.03-.65c-.31.18-.89.27-.99-1.42z" fill="#A2A4A5" stroke="#A2A4A5" stroke-width=".04" stroke-miterlimit="10"/>
    <path d="M80.55 27.5c-.08-2.34-.56-4.63-1.17-6.85-.61-2.23-1.39-4.4-2.26-6.53-1.76-4.24-3.85-8.33-6.2-12.28l-.36.22s0 .01.01.02.03.03.04.06c.01 0 .01 0 0 .01.07.11.13.22.19.34a96.69 96.69 0 0 1 5.66 11.9c.83 2.12 1.57 4.28 2.15 6.47.56 2.19 1 4.43 1.05 6.66.04 4.56-.07 9.13-.22 13.7-.15 4.39-.34 8.79-.54 13.17 0 .07-.01.13-.01.2l-.13.04c-.14.03-.29.06-.44.08-.15.02-.3.03-.46.03.21-4.42.37-8.82.5-13.24l.14-6.87c.02-2.29.04-4.57-.01-6.88-.03-1.15-.17-2.34-.37-3.46-.21-1.14-.46-2.27-.77-3.38-.61-2.23-1.37-4.4-2.25-6.53-1.76-4.24-3.84-8.33-6.18-12.28h-.01l-.35.21c2.26 3.96 4.25 8.08 5.92 12.32.82 2.13 1.58 4.28 2.16 6.47.3 1.09.54 2.2.73 3.32s.32 2.21.34 3.36c.03 2.26 0 4.56-.04 6.84l-.18 6.85c-.12 3.49-.27 6.97-.45 10.45-.84 0-4.07.01-8.59.04-.49.01-.99.01-1.51.01-.03.26-.09.53-.17.78.58-.03 1.15-.04 1.7-.06 4.48-.19 7.69-.32 8.55-.35-.03.67-.06 1.34-.1 2.01-.01.28-.03.55-.04.82l-.01.13-10.6.14c-.03.15-.07.31-.13.45-.04.1-.06.14-.08.19l11.44-.37v-.02c.32.03.63.02.94-.02.18-.02.37-.06.55-.1l.27-.07c.1-.03.18-.06.29-.1l.28-.11.02-.31c.26-4.58.42-9.15.55-13.73l.15-6.87.03-3.44c0-1.15 0-2.28-.03-3.44zM57.91 52.11c-.76.01-1.52.03-2.3.05-2.13.03-4.31.08-6.5.12l-1.3.03c-.02.1-.04.19-.06.28-.04.24-.08.48-.11.71.5-.01 1-.02 1.5-.04l5.51-.15 2.27-.06c.72-.02 1.43-.03 2.12-.05.14 0 .28-.01.42-.01.09 0 .18-.01.27-.01.03-.06.05-.12.06-.19.06-.26.11-.5.14-.72-.16.01-.33.01-.49.01l-1.53.03zm1.19 3.45l-.56.01-4.85.1-2.01.04-2.32.04-1.73.04c-.04.28-.12.55-.26.8l2.01-.05 1.31-.04 1.89-.05 5.03-.13.25-.01.91-.02.11-.01.47-.01a.516.516 0 0 1-.09-.17c-.05-.12-.13-.31-.16-.54zm-18.29.37l-.47.01h-.01l-2.6.05h-.01l-.77.02-.71.01-.94.02-7.03.16-3.52.08-1.76.05c-.41.01-.82.01-1.28.04-.02-.35-.03-.69-.05-1.04-.02-.54-.05-1.09-.07-1.64.42 0 1.04-.01 1.84-.02 1.53-.01 3.73-.03 6.37-.05 2-.03 4.27-.05 6.69-.09.16 0 .32-.01.49-.01.16 0 .32-.01.48-.01.14 0 .29-.01.43-.01.3-.01.61-.01.92-.02l1.46-.03c.19 0 .39-.01.59-.01a3.14 3.14 0 0 1-.13-.67c-.01-.1-.02-.19-.02-.27-.51.01-1.02.02-1.52.04-.08 0-.17 0-.25.01h-.15c-.29.01-.58.01-.86.02-.19.01-.39.01-.58.02-.12 0-.24.01-.36.01-.14 0-.28.01-.42.01-2.46.08-4.76.17-6.79.25-2.64.09-4.83.21-6.37.29-.81.04-1.43.08-1.84.1-.15-3.37-.29-6.74-.4-10.1-.15-4.57-.26-9.15-.21-13.7.04-2.24.48-4.48 1.05-6.67.58-2.19 1.32-4.34 2.15-6.46 1.66-4.24 3.64-8.37 5.89-12.34l-.35-.21c-.11.19-.23.38-.33.57-2.23 3.76-4.2 7.66-5.88 11.71-.87 2.13-1.64 4.3-2.26 6.52-.61 2.23-1.09 4.51-1.16 6.85-.04 1.17-.04 2.29-.04 3.45l.03 3.44.15 6.86c.12 4.33.28 8.66.52 12.98l.03.65c-.1.02-.2.02-.31.02-.24-.01-.5-.06-.7-.15-.13-.09-.25-.35-.32-.6-.08-.26-.13-.54-.17-.82-.09-.56-.11-1.11-.12-1.69l-.08-3.47-.16-6.94-.08-6.94.02-3.46c.02-1.15.05-2.31.11-3.45.05-1.14.17-2.29.32-3.41.18-1.12.39-2.24.7-3.34.58-2.21 1.42-4.35 2.31-6.48.88-2.12 1.86-4.22 2.84-6.31l2.94-6.28v-.01l-.37-.19c-2.15 4.11-4.33 8.19-6.23 12.44a51.16 51.16 0 0 0-1.33 3.24c-.41 1.09-.78 2.2-1.08 3.34-.33 1.12-.56 2.28-.76 3.44-.17 1.18-.28 2.33-.32 3.5a82.18 82.18 0 0 0-.09 3.5v3.48c.03 2.32.07 4.63.16 6.95l.3 6.94.2 3.47c.04.57.08 1.18.19 1.76.05.29.12.59.22.88.11.29.2.6.55.86l.01.01h.02c.31.12.59.17.9.17.12 0 .23 0 .35-.02l.01.12.58-.01 13.95-.43.83-.02.79-.02.71-.02.15-.01 1.87-.05.35-.01.92-.02.35-.01s0-.01-.01-.02c-.23-.26-.37-.54-.47-.81z" fill="gray" stroke="gray" stroke-width=".04" stroke-miterlimit="10"/>
</svg>
