<?xml version="1.0" encoding="utf-8"?>
<!-- Generator: Adobe Illustrator 19.2.0, SVG Export Plug-In . SVG Version: 6.00 Build 0)  -->
<svg version="1.1" id="Layer_3" xmlns="http://www.w3.org/2000/svg" xmlns:xlink="http://www.w3.org/1999/xlink" x="0px" y="0px"
	 viewBox="0 0 100 100" style="enable-background:new 0 0 100 100;" xml:space="preserve">
<style type="text/css">
	.st0{fill:#4F2375;stroke:#4F2375;stroke-width:0.04;stroke-miterlimit:10;}
	.st1{fill:#9248D3;stroke:#9248D3;stroke-width:0.04;stroke-miterlimit:10;}
	.st2{fill:#F7F2ED;stroke:#F7F2ED;stroke-width:0.04;stroke-miterlimit:10;}
	.st3{fill:#6E3699;stroke:#6E3699;stroke-width:0.04;stroke-miterlimit:10;}
	.st4{fill:#BF9F7F;}
	.st5{fill:#F4E4D7;stroke:#F2DDCC;stroke-width:0.04;stroke-miterlimit:10;}
	.st6{fill:#E5CBB7;stroke:#E5CBB7;stroke-width:0.04;stroke-miterlimit:10;}
	.st7{fill:#F2DDCC;stroke:#F2DDCC;stroke-width:0.04;stroke-miterlimit:10;}
	.st8{fill:none;stroke:#6E3699;stroke-miterlimit:10;}
</style>
<g>
	<g id="XMLID_2_">
		<path class="st0" d="M98.59,50.03v0.02c0,0-0.06,1.17-0.16,3.37c-0.04,0.55-0.02,1.17-0.12,1.85c-0.1,0.67-0.21,1.42-0.33,2.22
			c-0.13,0.79-0.22,1.67-0.41,2.57c-0.23,0.89-0.47,1.85-0.73,2.85c-1.13,3.98-2.85,8.8-6.06,13.64
			c-3.14,4.85-7.59,9.83-13.51,13.86c-5.93,3.99-13.32,6.94-21.48,7.93c-1.01,0.15-2.05,0.13-3.09,0.2l-1.56,0.07l-0.78,0.04
			c-0.34,0-0.54-0.02-0.82-0.04c-2.07-0.13-4.15-0.12-6.3-0.54c-1.55-0.19-3.09-0.5-4.62-0.89c-0.06-0.01-0.12-0.02-0.18-0.05
			C24.7,93.37,12.79,83.51,6.94,69.31c-0.07-0.16-0.13-0.33-0.19-0.49c1.12,2.6,2.46,5.09,4.02,7.43c2.63,3.76,5.66,7.18,9.12,10.05
			c0.85,0.72,1.79,1.34,2.67,2.01c0.45,0.33,0.89,0.67,1.35,0.99l1.42,0.85c0.96,0.55,1.87,1.17,2.86,1.65
			c0.99,0.47,1.97,0.94,2.96,1.4c4,1.65,8.13,2.97,12.25,3.45c2.02,0.41,4.15,0.39,6.22,0.51c0.24,0.01,0.55,0.03,0.73,0.03
			l0.76-0.04l1.52-0.08c1-0.08,2.01-0.06,2.99-0.22c7.91-0.93,15.08-3.76,20.89-7.57c5.82-3.83,10.22-8.62,13.37-13.32
			c3.21-4.69,4.98-9.39,6.09-13.29c0.26-0.98,0.5-1.92,0.73-2.79c0.19-0.89,0.28-1.73,0.42-2.51c0.12-0.78,0.23-1.5,0.34-2.16
			c0.1-0.66,0.08-1.28,0.13-1.83c0.11-2.2,0.18-3.37,0.18-3.37c-0.01-0.18-0.08-1.33-0.18-3.33c-0.05-0.54-0.03-1.15-0.13-1.82
			c-0.11-0.66-0.22-1.38-0.34-2.17c-0.14-0.78-0.23-1.62-0.43-2.51c-0.22-0.88-0.47-1.81-0.73-2.79c-1.12-3.9-2.86-8.61-6.05-13.31
			c-2.15-3.24-4.89-6.52-8.29-9.52c5.75,4.8,10.45,11.01,13.5,18.42c1.45,3.52,2.45,7.12,3.03,10.73c0.03,0.18,0.06,0.36,0.08,0.54
			c0.04,0.26,0.07,0.51,0.11,0.77c0.01,0.09,0.02,0.17,0.03,0.25c0,0.01,0,0.02,0,0.03c0.03,0.47,0.03,0.92,0.06,1.32
			C98.53,48.84,98.59,50.03,98.59,50.03z"/>
		<path class="st0" d="M97.98,42.56c0.06,0.4,0.12,0.78,0.17,1.15c-0.58-3.61-1.58-7.21-3.03-10.73
			c-3.05-7.41-7.75-13.62-13.5-18.42h-0.01c-0.07-0.07-0.15-0.13-0.23-0.2c-1.48-1.29-3.08-2.52-4.81-3.67
			c-5.8-3.83-13.04-6.66-20.91-7.58c-0.97-0.15-2.01-0.12-3.03-0.19l-1.54-0.07l-0.77-0.04c-0.19,0-0.49,0.02-0.73,0.04
			c-2.04,0.13-4.12,0.12-6.17,0.54c-4.15,0.52-8.27,1.8-12.27,3.47c-0.98,0.47-1.96,0.94-2.95,1.41c-0.99,0.48-1.9,1.11-2.85,1.66
			l-1.43,0.86c-0.45,0.31-0.89,0.65-1.34,0.98c-0.88,0.68-1.81,1.3-2.67,2.02c-3.44,2.88-6.46,6.3-9.08,10.05
			c-2.55,3.81-4.51,8.02-5.96,12.43c-1.35,4.46-1.95,9.05-2.08,13.78c0.09,4.62,0.71,9.3,2.06,13.74c0.55,1.71,1.18,3.39,1.9,5.03
			c0.06,0.16,0.12,0.33,0.19,0.49c5.85,14.2,17.76,24.06,31.5,27.82c-2.65-0.68-5.25-1.64-7.82-2.74c-1-0.49-2.01-0.99-3.02-1.48
			c-1-0.51-1.93-1.16-2.9-1.74l-1.45-0.89c-0.47-0.33-0.91-0.69-1.37-1.03c-0.9-0.7-1.84-1.35-2.71-2.1
			c-3.49-2.99-6.54-6.52-9.17-10.39c-2.55-3.92-4.52-8.23-5.94-12.73L3.18,60.6l-0.21-0.86l-0.14-0.88L2.57,57.1
			c-0.46-2.34-0.42-4.69-0.58-7.09c0.09-4.67,0.7-9.47,2.04-13.99c1.41-4.51,3.36-8.84,5.92-12.77c2.63-3.86,5.7-7.39,9.19-10.37
			c0.87-0.75,1.82-1.4,2.72-2.1c0.46-0.34,0.91-0.7,1.37-1.03l1.45-0.89c0.98-0.57,1.91-1.22,2.91-1.73
			c1.01-0.49,2.02-0.98,3.03-1.47c8.14-3.68,17.08-4.79,25.13-3.85c8.2,1,15.52,3.96,21.46,7.92c5.92,4,10.38,8.96,13.55,13.79
			c3.22,4.83,4.97,9.64,6.09,13.62c0.25,1.01,0.49,1.96,0.72,2.86C97.76,40.9,97.85,41.76,97.98,42.56z"/>
		<path class="st1" d="M76.57,10.69c1.73,1.15,3.33,2.38,4.81,3.67C68.24,3.53,49.71,0.12,32.86,7.06
			C8.67,17.02-2.93,44.59,6.75,68.82c-0.72-1.64-1.35-3.32-1.9-5.03c-1.35-4.44-1.97-9.12-2.06-13.74
			c0.13-4.73,0.73-9.32,2.08-13.78c1.45-4.41,3.41-8.62,5.96-12.43c2.62-3.75,5.64-7.17,9.08-10.05c0.86-0.72,1.79-1.34,2.67-2.02
			c0.45-0.33,0.89-0.67,1.34-0.98l1.43-0.86c0.95-0.55,1.86-1.18,2.85-1.66c0.99-0.47,1.97-0.94,2.95-1.41
			c4-1.67,8.12-2.95,12.27-3.47c2.05-0.42,4.13-0.41,6.17-0.54c0.24-0.02,0.54-0.04,0.73-0.04l0.77,0.04l1.54,0.07
			c1.02,0.07,2.06,0.04,3.03,0.19C63.53,4.03,70.77,6.86,76.57,10.69z"/>
		<path class="st2" d="M52.07,71.64c0.2,0,0.39-0.01,0.59-0.02c2.44-0.13,4.86-0.74,7.16-1.86c2.95-1.44,5.35-3.56,7.15-6.13
			c4.24-6.07,5.06-14.59,1.45-22.25l-0.05,0.02c3.17,6.76,2.27,14.65-2.07,20.5c-1.34,1.81-3.01,3.43-5,4.75
			c-2.91,1.95-6.15,3.03-9.42,3.31c-7.08,0.62-14.26-2.55-18.48-8.88c-0.57-0.86-1.07-1.74-1.5-2.65l-0.05,0.02
			c0.05,0.1,0.1,0.21,0.15,0.31C36.02,67,44.06,71.83,52.07,71.64z"/>
		<g>
			<path class="st3" d="M98.31,44.77c-0.03-0.17-0.05-0.34-0.08-0.52c0.04,0.26,0.07,0.51,0.11,0.77
				C98.34,44.94,98.32,44.86,98.31,44.77z"/>
			<path class="st3" d="M97.46,44.86c-0.11-0.66-0.22-1.38-0.34-2.17c-0.14-0.78-0.23-1.62-0.43-2.51
				c-0.22-0.88-0.47-1.81-0.73-2.79c-1.12-3.9-2.86-8.61-6.05-13.31c-2.15-3.24-4.89-6.52-8.29-9.52h-0.01
				c-0.07-0.07-0.15-0.13-0.23-0.2C68.24,3.53,49.71,0.12,32.86,7.06C8.67,17.02-2.93,44.59,6.75,68.82
				c1.12,2.6,2.46,5.09,4.02,7.43c2.63,3.76,5.66,7.18,9.12,10.05c0.85,0.72,1.79,1.34,2.67,2.01c0.45,0.33,0.89,0.67,1.35,0.99
				l1.42,0.85c0.96,0.55,1.87,1.17,2.86,1.65c0.99,0.47,1.97,0.94,2.96,1.4c4,1.65,8.13,2.97,12.25,3.45
				c2.02,0.41,4.15,0.39,6.22,0.51c0.24,0.01,0.55,0.03,0.73,0.03l0.76-0.04l1.52-0.08c1-0.08,2.01-0.06,2.99-0.22
				c7.91-0.93,15.08-3.76,20.89-7.57c5.82-3.83,10.22-8.62,13.37-13.32c3.21-4.69,4.98-9.39,6.09-13.29
				c0.26-0.98,0.5-1.92,0.73-2.79c0.19-0.89,0.28-1.73,0.42-2.51c0.12-0.78,0.23-1.5,0.34-2.16c0.1-0.66,0.08-1.28,0.13-1.83
				c0.11-2.2,0.18-3.37,0.18-3.37c-0.01-0.18-0.08-1.33-0.18-3.33C97.54,46.14,97.56,45.53,97.46,44.86z M50.28,95.63
				c-25.14,0-45.6-20.46-45.6-45.6c0-25.15,20.46-45.6,45.6-45.6c25.15,0,45.6,20.45,45.6,45.6C95.88,75.17,75.43,95.63,50.28,95.63
				z"/>
			<path class="st3" d="M50.28,4.84C25.37,4.84,5.1,25.11,5.1,50.03c0,24.91,20.27,45.18,45.18,45.18
				c24.92,0,45.19-20.27,45.19-45.18C95.47,25.11,75.2,4.84,50.28,4.84z M51.99,93.17c-0.57,0.03-1.14,0.04-1.71,0.04
				C26.47,93.21,7.1,73.84,7.1,50.03c0-10.79,3.97-20.66,10.54-28.23v-0.01c7.56-8.73,18.54-14.4,30.83-14.91
				c0.6-0.03,1.2-0.04,1.81-0.04c23.82,0,43.19,19.38,43.19,43.19c0,10.44-3.72,20.02-9.9,27.49
				C75.98,86.69,64.68,92.68,51.99,93.17z"/>
			<path class="st3" d="M50.28,7.87c-0.82,0-1.63,0.02-2.44,0.07C36.45,8.59,26.25,13.8,19.03,21.75
				c-6.77,7.49-10.9,17.41-10.9,28.28c0,23.24,18.91,42.15,42.15,42.15c0.9,0,1.8-0.03,2.69-0.08c11.69-0.74,22.11-6.27,29.3-14.64
				c6.33-7.38,10.17-16.97,10.17-27.43C92.44,26.78,73.53,7.87,50.28,7.87z M81.7,77.35c-2.6,2.99-5.62,5.61-8.98,7.76
				c-5.68,3.64-12.28,5.94-19.38,6.46c-1.01,0.07-2.03,0.11-3.06,0.11C27.32,91.68,8.63,73,8.63,50.03
				c0-10.87,4.19-20.79,11.04-28.21c1.74-1.89,3.65-3.62,5.71-5.16c6.29-4.71,13.94-7.68,22.26-8.2c0.87-0.06,1.75-0.09,2.64-0.09
				c22.97,0,41.66,18.69,41.66,41.66C91.94,60.48,88.08,70.03,81.7,77.35z"/>
		</g>
		<path class="st4" d="M39.53,25.62c1.02-0.44,2.06-0.8,3.11-1.06C41.6,24.85,40.56,25.21,39.53,25.62z"/>
		<g>
			<path class="st5" d="M82.27,77.46c-7.19,8.37-17.61,13.9-29.3,14.64c-0.27,0.35-0.6,0.71-0.98,1.07
				c12.69-0.49,23.99-6.48,31.58-15.65C83.09,77.54,82.66,77.52,82.27,77.46z"/>
			<path class="st5" d="M70.64,83.27c-1.06,0.68-2.17,1.3-3.32,1.86c-4.25,2.07-8.74,3.15-13.25,3.32c0.16,0.94,0.01,1.97-0.73,3.12
				c7.1-0.52,13.7-2.82,19.38-6.46c3.36-2.15,6.38-4.77,8.98-7.76c-1.26-0.31-2.04-1.02-2.58-1.89
				C76.79,78.5,73.95,81.15,70.64,83.27z"/>
			<path class="st5" d="M70.68,80.83c2.96-1.98,5.54-4.31,7.72-6.9c-0.26-0.73-0.46-1.48-0.7-2.15c-0.53-1.47-1.17-1.78-2.08-1.83
				c-5.7,7.23-14.43,11.98-24.26,12.3c-0.15,0.52-0.04,1.12,0.51,2.01c0.51,0.83,1.18,1.69,1.67,2.64
				C59.48,86.36,65.37,84.38,70.68,80.83z"/>
			<path class="st5" d="M53.7,77.81c0.1,0.78-0.38,1.67-0.93,2.4c-0.47,0.61-0.91,1.07-1.19,1.53c9.45-0.38,17.84-4.9,23.4-11.8
				c-0.31,0.01-0.64,0.02-1.01,0.01c-1.06-0.02-2.24-0.27-2.68-1.07c-1.46,1.6-3.2,3.13-5.24,4.46
				C62.62,75.59,58.37,77.24,53.7,77.81z"/>
			<path class="st5" d="M59.82,69.76c-2.3,1.12-4.72,1.73-7.16,1.86l0.25,2c6.66-0.77,12.48-4.28,16.3-9.37
				c-0.83-0.04-1.7-0.07-2.24-0.62C65.17,66.2,62.77,68.32,59.82,69.76z"/>
			<path class="st5" d="M50.43,67.26c-0.37,1.01,0.84,1.76,1.45,2.7c3.27-0.28,6.51-1.36,9.42-3.31c1.99-1.32,3.66-2.94,5-4.75
				c-0.14-0.82-0.26-1.61-0.99-1.86c-0.74-0.25-1.66,0.35-2.3-0.1c-0.61-0.43-0.41-1.4-0.79-2.03c-0.7-1.15-2.74-0.54-3.57-1.59
				c-0.31-0.4-0.36-0.95-0.58-1.41c-0.28-0.6-0.84-1.02-1.37-1.42c-1.83-1.36-3.65-2.72-5.47-4.08c0.04-2.35,0.08-4.7,0.13-7.04
				c0.01-0.67,0.02-1.36-0.28-1.96c-0.23-0.45-0.63-0.82-0.76-1.32c-0.32-1.3,1.4-2.54,0.93-3.79c-0.26-0.69-1.15-1.13-1.12-1.87
				c0.04-0.79,1.08-1.14,1.33-1.89c0.23-0.65-0.2-1.19-0.69-1.73c-4.05-0.14-8.18,0.95-11.8,3.37c-1.32,0.88-2.5,1.89-3.53,3
				c0.37,1.06,0.22,2.46,1.24,2.79c0.75,0.25,1.65-0.37,2.3,0.07c0.62,0.42,0.43,1.4,0.83,2.02c0.71,1.14,2.74,0.5,3.58,1.54
				C43.71,43,43.77,43.54,44,44c0.29,0.6,0.85,1.01,1.39,1.4c1.84,1.34,3.69,2.67,5.53,4.01c-0.08,2.35-0.16,4.69-0.24,7.03
				c-0.02,0.66-0.03,1.36,0.26,1.96c0.22,0.46,0.62,0.83,0.73,1.33c0.31,1.3-1.43,2.52-0.98,3.78c0.25,0.7,1.14,1.15,1.09,1.89
				C51.74,66.18,50.69,66.52,50.43,67.26z"/>
			<path class="st5" d="M49.59,17.8c0.78-0.98,1.19-1.65,0.19-3.23c-0.32-0.51-0.71-1.04-1.08-1.59
				c-6.61,0.25-13.24,2.26-19.15,6.21c-2.39,1.6-4.54,3.42-6.42,5.43c0.41,0.93,0.67,1.93,1,2.8c0.45,1.19,0.95,1.6,1.61,1.74
				C31.51,22.37,40.05,18,49.59,17.8z"/>
			<path class="st5" d="M38.81,24.44c3.22-1.39,6.64-2.12,9.96-2.29c-1.32-0.85-0.66-2.39,0.17-3.52c0.08-0.11,0.17-0.22,0.25-0.32
				c-9.11,0.31-17.25,4.47-22.85,10.91c0.44,0,0.95-0.04,1.54-0.03c0.97,0.01,2.03,0.21,2.56,0.83c0.52-0.51,1.06-1.01,1.62-1.48
				C34.15,26.88,36.41,25.48,38.81,24.44z"/>
			<path class="st5" d="M47.84,7.94C48,7.6,48.2,7.25,48.47,6.88C36.18,7.39,25.2,13.06,17.64,21.79c0.51-0.05,0.97-0.06,1.39-0.04
				C26.25,13.8,36.45,8.59,47.84,7.94z"/>
			<path class="st5" d="M40.45,30.06c2.3-1.12,4.73-1.73,7.16-1.86l-0.25-2c-6.28,0.73-11.82,3.9-15.64,8.53
				c0.78,0.13,1.74,0.03,2.5,0.26C35.89,32.96,37.98,31.27,40.45,30.06z"/>
			<path class="st5" d="M27.58,17.98c1.66-1.25,3.45-2.35,5.37-3.29c4.75-2.32,9.81-3.39,14.85-3.35c-0.36-0.87-0.49-1.82-0.16-2.88
				c-8.32,0.52-15.97,3.49-22.26,8.2c-2.06,1.54-3.97,3.27-5.71,5.16c1.13,0.18,1.92,0.66,2.5,1.29
				C23.76,21.22,25.57,19.49,27.58,17.98z"/>
		</g>
		<g>
			<path class="st6" d="M49.67,28.2c-0.69-0.04-1.37-0.04-2.06,0c-2.43,0.13-4.86,0.74-7.16,1.86c-2.47,1.21-4.56,2.9-6.23,4.93
				C29.19,41.1,28,50.27,31.85,58.45l0.05-0.02c-3.5-7.46-2.04-16.3,3.54-22.25c1.03-1.11,2.21-2.12,3.53-3
				c3.62-2.42,7.75-3.51,11.8-3.37c6.27,0.19,12.35,3.32,16.1,8.94c0.57,0.86,1.07,1.74,1.5,2.65l0.05-0.02
				c-0.05-0.11-0.1-0.21-0.15-0.32C64.49,33.31,57.18,28.59,49.67,28.2z"/>
			<g>
				<path class="st7" d="M50.28,4.43c-25.14,0-45.6,20.45-45.6,45.6c0,25.14,20.46,45.6,45.6,45.6c25.15,0,45.6-20.46,45.6-45.6
					C95.88,24.88,75.43,4.43,50.28,4.43z M50.28,95.21C25.37,95.21,5.1,74.94,5.1,50.03c0-24.92,20.27-45.19,45.18-45.19
					c24.92,0,45.19,20.27,45.19,45.19C95.47,74.94,75.2,95.21,50.28,95.21z"/>
				<path class="st7" d="M50.28,8.37c-0.89,0-1.77,0.03-2.64,0.09c-0.33,1.06-0.2,2.01,0.16,2.88c-5.04-0.04-10.1,1.03-14.85,3.35
					c-1.92,0.94-3.71,2.04-5.37,3.29c-2.01,1.51-3.82,3.24-5.41,5.13c-0.58-0.63-1.37-1.11-2.5-1.29
					C12.82,29.24,8.63,39.16,8.63,50.03c0,22.97,18.69,41.65,41.65,41.65c1.03,0,2.05-0.04,3.06-0.11c0.74-1.15,0.89-2.18,0.73-3.12
					c4.51-0.17,9-1.25,13.25-3.32c1.15-0.56,2.26-1.18,3.32-1.86c3.31-2.12,6.15-4.77,8.48-7.81c0.54,0.87,1.32,1.58,2.58,1.89
					c6.38-7.32,10.24-16.87,10.24-27.32C91.94,27.06,73.25,8.37,50.28,8.37z M47.36,26.2l0.25,2c0.69-0.04,1.37-0.04,2.06,0
					c7.51,0.39,14.82,5.11,18.6,12.86c0.05,0.11,0.1,0.21,0.15,0.32c3.61,7.66,2.79,16.18-1.45,22.25c0.54,0.55,1.41,0.58,2.24,0.62
					c-3.82,5.09-9.64,8.6-16.3,9.37l-0.25-2c-0.2,0.01-0.39,0.02-0.59,0.02C44.06,71.83,36.02,67,32,58.76
					c-0.05-0.1-0.1-0.21-0.15-0.31C28,50.27,29.19,41.1,34.22,34.99c-0.76-0.23-1.72-0.13-2.5-0.26
					C35.54,30.1,41.08,26.93,47.36,26.2z M39.53,25.62c1.02-0.44,2.06-0.8,3.11-1.06C41.6,24.85,40.56,25.21,39.53,25.62z
					 M48.94,18.63c-0.83,1.13-1.49,2.67-0.17,3.52c-3.32,0.17-6.74,0.9-9.96,2.29c-2.4,1.04-4.66,2.44-6.75,4.1
					c-0.56,0.47-1.1,0.97-1.62,1.48c-0.53-0.62-1.59-0.82-2.56-0.83c-0.59-0.01-1.1,0.03-1.54,0.03c5.6-6.44,13.74-10.6,22.85-10.91
					C49.11,18.41,49.02,18.52,48.94,18.63z M52.77,80.21c0.55-0.73,1.03-1.62,0.93-2.4c4.67-0.57,8.92-2.22,12.35-4.47
					c2.04-1.33,3.78-2.86,5.24-4.46c0.44,0.8,1.62,1.05,2.68,1.07c0.37,0.01,0.7,0,1.01-0.01c-5.56,6.9-13.95,11.42-23.4,11.8
					C51.86,81.28,52.3,80.82,52.77,80.21z M29.55,19.19c5.91-3.95,12.54-5.96,19.15-6.21c0.37,0.55,0.76,1.08,1.08,1.59
					c1,1.58,0.59,2.25-0.19,3.23c-9.54,0.2-18.08,4.57-23.85,11.36c-0.66-0.14-1.16-0.55-1.61-1.74c-0.33-0.87-0.59-1.87-1-2.8
					C25.01,22.61,27.16,20.79,29.55,19.19z M70.68,80.83c-5.31,3.55-11.2,5.53-17.14,6.07c-0.49-0.95-1.16-1.81-1.67-2.64
					c-0.55-0.89-0.66-1.49-0.51-2.01c9.83-0.32,18.56-5.07,24.26-12.3c0.91,0.05,1.55,0.36,2.08,1.83c0.24,0.67,0.44,1.42,0.7,2.15
					C76.22,76.52,73.64,78.85,70.68,80.83z"/>
				<path class="st7" d="M50.28,6.84c-0.61,0-1.21,0.01-1.81,0.04C48.2,7.25,48,7.6,47.84,7.94c0.81-0.05,1.62-0.07,2.44-0.07
					c23.25,0,42.16,18.91,42.16,42.16c0,10.46-3.84,20.05-10.17,27.43c0.39,0.06,0.82,0.08,1.3,0.06c6.18-7.47,9.9-17.05,9.9-27.49
					C93.47,26.22,74.1,6.84,50.28,6.84z"/>
				<path class="st7" d="M50.32,39.09c0.13,0.5,0.53,0.87,0.76,1.32c0.3,0.6,0.29,1.29,0.28,1.96c-0.05,2.34-0.09,4.69-0.13,7.04
					c1.82,1.36,3.64,2.72,5.47,4.08c0.53,0.4,1.09,0.82,1.37,1.42c0.22,0.46,0.27,1.01,0.58,1.41c0.83,1.05,2.87,0.44,3.57,1.59
					c0.38,0.63,0.18,1.6,0.79,2.03c0.64,0.45,1.56-0.15,2.3,0.1c0.73,0.25,0.85,1.04,0.99,1.86c4.34-5.85,5.24-13.74,2.07-20.5
					c-0.43-0.91-0.93-1.79-1.5-2.65c-3.75-5.62-9.83-8.75-16.1-8.94c0.49,0.54,0.92,1.08,0.69,1.73c-0.25,0.75-1.29,1.1-1.33,1.89
					c-0.03,0.74,0.86,1.18,1.12,1.87C51.72,36.55,50,37.79,50.32,39.09z"/>
				<path class="st7" d="M8.13,50.03c0-10.87,4.13-20.79,10.9-28.28c-0.42-0.02-0.88-0.01-1.39,0.04v0.01
					C11.07,29.37,7.1,39.24,7.1,50.03c0,23.81,19.37,43.18,43.18,43.18c0.57,0,1.14-0.01,1.71-0.04c0.38-0.36,0.71-0.72,0.98-1.07
					c-0.89,0.05-1.79,0.08-2.69,0.08C27.04,92.18,8.13,73.27,8.13,50.03z"/>
				<path class="st7" d="M31.9,58.43c0.43,0.91,0.93,1.79,1.5,2.65c4.22,6.33,11.4,9.5,18.48,8.88c-0.61-0.94-1.82-1.69-1.45-2.7
					c0.26-0.74,1.31-1.08,1.35-1.86c0.05-0.74-0.84-1.19-1.09-1.89c-0.45-1.26,1.29-2.48,0.98-3.78c-0.11-0.5-0.51-0.87-0.73-1.33
					c-0.29-0.6-0.28-1.3-0.26-1.96c0.08-2.34,0.16-4.68,0.24-7.03c-1.84-1.34-3.69-2.67-5.53-4.01c-0.54-0.39-1.1-0.8-1.39-1.4
					c-0.23-0.46-0.29-1-0.61-1.4c-0.84-1.04-2.87-0.4-3.58-1.54c-0.4-0.62-0.21-1.6-0.83-2.02c-0.65-0.44-1.55,0.18-2.3-0.07
					c-1.02-0.33-0.87-1.73-1.24-2.79C29.86,42.13,28.4,50.97,31.9,58.43z"/>
			</g>
		</g>
	</g>
</g>
<circle class="st8" cx="50.105" cy="49.982" r="22.895"/>
<path class="st5" d="M34.757,31.512c0,0-1.377,0.787-2.163-0.59s8.161-7.08,15.635-6.883c0,0,1.082,1.278-0.492,1.868
	C47.737,25.908,39.576,26.989,34.757,31.512z"/>
<path class="st5" d="M66.687,67.72c0,0,1.334-0.858,2.191,0.476s-7.78,7.497-15.253,7.692c0,0-1.147-1.22,0.393-1.891
	C54.018,73.996,62.112,72.489,66.687,67.72z"/>
</svg>
