<svg id="Layer_4" xmlns="http://www.w3.org/2000/svg" viewBox="0 0 100 100">
    <style>
        .st0{fill:#82addc;stroke:#82addc;stroke-width:.04;stroke-miterlimit:10}.st1{fill:#d8e4f4}.st2{fill:#fff;stroke:#fff;stroke-width:.04;stroke-miterlimit:10}.st3{fill:#6d97cf;stroke:#6d97cf}.st3,.st4{stroke-width:.04;stroke-miterlimit:10}.st4{fill:#4c71b7;stroke:#4c71b7}
    </style>
    <path class="st0" d="M77.787 67.646c-.03-.85-.08-1.5-.132-1.935l-.06-.66.212-.01s-.172-.212-.284-.65c-.08-.434-.203-1.072-.355-1.913A42.734 42.734 0 0 0 74.99 55.4c-1.185-2.98-2.928-6.484-5.187-10.375-2.25-3.89-5.035-8.166-7.953-12.938-2.938-4.742-5.805-10.182-8.065-16.22a93.253 93.253 0 0 1-3.04-9.434c-.16-.627-.323-1.255-.475-1.894l-.1.5c-.153.84-.386 1.712-.59 2.573-1.752 6.88-4.822 13.545-8.378 19.98-3.536 6.443-7.59 12.694-11.094 19.17-1.753 3.23-3.333 6.543-4.58 9.957-1.246 3.405-2.107 6.93-2.36 10.477-.61 7.06 1.407 14.193 5.49 19.552 4.043 5.39 10.05 8.894 16.07 10.17a26.57 26.57 0 0 0 5.612.587l1.155-.04c.77-.01 1.45-.12 2.178-.18a27.57 27.57 0 0 0 8.034-2.353c4.914-2.29 8.582-5.898 11.013-9.535 2.442-3.71 3.78-7.357 4.448-10.457.66-3.097.68-5.61.62-7.3zM62.002 93.158c-8.38 4.184-18.734 3.79-26.454-1.64-6.363-4.46-11.338-13.568-11.165-22.15.172-8.592 1.54-12.37 13.394-32.97C48.507 17.73 49.66 10.474 49.783 9.28c-.1 10.343-9.807 29.23-14.58 37.588-4.438 7.77-7.953 18.36-4.255 27.082 1.298 3.067 3.453 5.685 6.09 7.703l.875 2.213 4.107.65c2.902 1.183 6.053 1.735 9.15 1.51.08-.005.153-.016.23-.022l.57.09.69-.218c3.303-.406 6.277-1.348 8.843-2.8l.753-.238.157-.307c3.726-2.38 6.496-5.92 7.99-10.58 2.745-8.58 2.066-18.203-8.41-32.97C51.515 24.2 50.483 8.75 50.483 8.75c1.387 7.893 6.14 17.416 9.796 23.76 4.64 8.033 10.45 15.632 13.78 24.346a34.27 34.27 0 0 1 2.21 10.71c.45 10.698-4.55 20.728-14.27 25.592zm-12.94-67.405c.23 1.904-1.9 8.617-11.265 22.622a151.29 151.29 0 0 0 4.986-9.687 151.04 151.04 0 0 1-4.925 9.586c9.305-13.932 11.432-20.618 11.204-22.52zm-2.532 3.09c.363-1.52.922-2.63 1.425-3.212-.502.59-1.06 1.7-1.425 3.22z"/>
    <path class="st1" d="M55.294 89.287c6.758-1.297 11.256-4.985 11.793-5.44-9.077 10.405-18.996 6.808-11.793 5.44z"/>
    <path class="st2" d="M51.212 62.874c1.374 0 2.494.826 2.494 1.843s-1.12 1.843-2.494 1.843-2.494-.826-2.494-1.843 1.12-1.843 2.494-1.843z"/>
    <path class="st3" d="M76.277 67.565a34.263 34.263 0 0 0-2.21-10.71c-3.332-8.712-9.148-16.31-13.788-24.346-3.66-6.35-8.41-15.87-9.8-23.76 0 0 1.03 15.45 11.51 30.22 10.47 14.76 11.15 24.39 8.41 32.97-2.18 6.794-7.047 11.222-13.67 13.12-.01 0-.02 0-.03.01a27.87 27.87 0 0 1-5.53.95 19.42 19.42 0 0 1-4.848-.264c-6.616-1.175-12.746-5.593-15.38-11.814-3.698-8.723-.182-19.31 4.255-27.082 4.752-8.326 14.4-27.09 14.57-37.454-.19 1.53-1.6 8.904-11.996 26.99-11.85 20.598-13.216 24.377-13.39 32.968-.17 8.582 4.803 17.69 11.166 22.148 7.72 5.43 18.075 5.826 26.454 1.64 9.728-4.862 14.72-14.892 14.277-25.59zM55.294 89.287c6.758-1.297 11.256-4.985 11.793-5.44-9.077 10.405-18.996 6.808-11.793 5.44z"/>
    <path class="st3" d="M46.328 85.255c1.6.284 3.222.385 4.843.263a27.94 27.94 0 0 0 5.54-.952c.01-.01.02-.01.03-.01 4.63-1.966 7.57-5.47 7.81-5.765-13.13 8.73-25.752 2.13-26.24 1.88 2.808 2.44 5.5 3.87 8.026 4.59z"/>
    <path class="st4" d="M79.266 67.585c-.04-.892-.1-1.57-.152-2.026s-.07-.69-.07-.69l-.214.01s.1-.25.09-.7c-.01-.45-.15-1.13-.313-2.01-.355-1.747-.993-4.28-2.2-7.34-1.195-3.08-2.947-6.667-5.207-10.62-2.25-3.96-5.015-8.265-7.872-13.03-2.877-4.74-5.623-10.04-7.8-15.985a97.078 97.078 0 0 1-2.93-9.26 88.14 88.14 0 0 1-.607-2.43c-.1-.417-.2-.87-.41-1.38a2.28 2.28 0 0 0-.21-.415c-.11-.152-.21-.375-.67-.6-.21-.11-.604-.12-.86-.02-.12.05-.2.1-.302.17-.06.054-.122.104-.182.165a2.044 2.044 0 0 0-.333.496c-.263.56-.355.986-.466 1.47l-.266 1.26c-.16.85-.382 1.66-.585 2.49-1.703 6.638-4.71 13.14-8.238 19.485-3.51 6.375-7.57 12.585-11.157 19.16-1.774 3.303-3.385 6.707-4.65 10.253-1.288 3.547-2.19 7.245-2.443 11.004-.606 7.508 1.56 15.127 5.96 20.84a28.45 28.45 0 0 0 7.82 7.063 29.597 29.597 0 0 0 9.362 3.738c6.47 1.378 12.94.294 18.092-2.2 5.21-2.47 9.08-6.32 11.62-10.202 2.516-3.87 3.934-7.77 4.6-11.02.67-3.26.67-5.9.6-7.674zM77.17 74.95c-.67 3.1-2.007 6.75-4.45 10.457-2.43 3.637-6.098 7.244-11.012 9.534a27.58 27.58 0 0 1-8.034 2.36c-.73.06-1.408.17-2.178.18l-1.155.04a26.67 26.67 0 0 1-5.61-.585c-6.01-1.276-12.02-4.78-16.07-10.17-4.08-5.36-6.1-12.493-5.49-19.555.26-3.547 1.12-7.073 2.36-10.477 1.25-3.413 2.83-6.726 4.58-9.96C33.62 40.3 37.67 34.05 41.21 27.6c3.557-6.43 6.627-13.1 8.38-19.98.203-.86.436-1.73.588-2.57l.1-.507c.154.636.316 1.264.478 1.893a93.253 93.253 0 0 0 3.04 9.433c2.26 6.04 5.127 11.48 8.065 16.22 2.92 4.77 5.708 9.05 7.957 12.94 2.26 3.89 4 7.393 5.186 10.372a42.54 42.54 0 0 1 2.18 7.07c.15.84.273 1.48.354 1.916.11.435.284.647.284.647l-.212.01.06.67c.05.435.1 1.083.134 1.934.06 1.687.04 4.2-.62 7.3z"/>
    <path class="st2" d="M49.562 17.82s.402 6.798-8.518 22.032c-4.306 7.356 8.11-5.544 8.518-22.03z"/>
</svg>
