<?xml version="1.0" encoding="utf-8"?>
<!-- Generator: Adobe Illustrator 19.1.0, SVG Export Plug-In . SVG Version: 6.00 Build 0)  -->
<svg version="1.1" id="Layer_4" xmlns="http://www.w3.org/2000/svg" xmlns:xlink="http://www.w3.org/1999/xlink" x="0px" y="0px"
	 viewBox="0 0 100 100" style="enable-background:new 0 0 100 100;" xml:space="preserve">
<style type="text/css">
	.st0{fill:#EF8FA2;stroke:#EF8FA2;stroke-width:0.04;stroke-miterlimit:10;}
	.st1{fill:#F2B8C4;stroke:#F2B8C4;stroke-width:0.04;stroke-miterlimit:10;}
	.st2{fill:#F4CED8;stroke:#F4CED8;stroke-width:0.04;stroke-miterlimit:10;}
	.st3{fill:#FFA6B3;stroke:#FFA6B3;stroke-width:0.04;stroke-miterlimit:10;}
	.st4{fill:#BF6F80;stroke:#BF6F80;stroke-width:0.04;stroke-miterlimit:10;}
</style>
<g id="XMLID_1_">
	<g>
		<g id="XMLID_2_">
			<g>
				<path class="st0" d="M57.51,8.91c0.02-0.21,0.05-0.43,0.11-0.64c0.06-0.24,0.15-0.44,0.26-0.61c0.33-0.5,0.91-0.84,1.6-0.92
					c0.56-0.07,1.07,0.03,1.57,0.13c0.18,0.03,0.37,0.06,0.55,0.09L61.92,7c0.45,0.06,0.92,0.12,1.38,0.24l0.11,0.02
					c0.71,0.18,1.6,0.4,1.63,1.67c0.03,1.78-0.88,5.63-2.82,6.95c-0.19,0.13-0.39,0.24-0.6,0.31c1.99-0.54,3.29-3.44,3.67-5.2
					c0.2-0.93,0.45-2.06,0-2.96c-0.48-0.96-1.72-1.2-2.68-1.36c-1.59-0.28-4.39-0.98-5.24,0.96c-0.33,0.78-1.12,4.7,0.62,7.03
					C57.04,12.93,57.34,10.35,57.51,8.91z"/>
				<path class="st0" d="M70.04,5.92c-0.08-0.36-0.21-0.69-0.41-0.98c-0.2-0.29-0.45-0.55-0.75-0.76c-0.19-0.14-0.42-0.26-0.63-0.36
					c0.42,0.31,1.48,1.32,1.27,3.5c-0.27,2.7,0.04,9.27-6.53,12.5c0,0-1.38,0.53-1.59,2.39c-0.21,1.85-6.52,31-6.52,31
					s-0.25,1.91,0.92,2.59c-0.69-0.8-0.7-1.99-0.44-2.7l0.55-2.53l2.16-10.11l2.15-10.12l1.03-5.06l0.51-2.54l0.13-0.63l0.07-0.31
					c0.02-0.14,0.06-0.27,0.1-0.41c0.21-0.54,0.63-0.99,1.25-1.18l1.11-0.59c0.36-0.24,0.74-0.47,1.09-0.72
					c0.33-0.29,0.7-0.53,0.98-0.85c0.31-0.3,0.6-0.61,0.86-0.96c0.28-0.32,0.48-0.7,0.72-1.06c0.19-0.38,0.42-0.75,0.57-1.15
					c0.17-0.4,0.31-0.81,0.43-1.22c0.13-0.42,0.23-0.85,0.32-1.28c0.18-0.85,0.29-1.74,0.4-2.64l0.15-1.36
					c0.05-0.45,0.13-0.94,0.15-1.34C70.14,6.65,70.11,6.27,70.04,5.92z"/>
				<path class="st0" d="M56.63,18.44c-1.56-1.35-2.23-4.13-2.52-5.89c0.01,0.14,0.02,0.28,0.04,0.42c0.15,1.27,0.45,2.52,0.93,3.66
					c0.24,0.56,0.53,1.1,0.88,1.57c0.1,0.12,0.17,0.21,0.28,0.33c0.08,0.1,0.28,0.32,0.4,0.5c0.27,0.39,0.45,0.88,0.49,1.35
					c0.03,0.23,0.03,0.46,0,0.68c0,0.11-0.02,0.24-0.04,0.34l-0.05,0.26l-0.21,1l-0.42,1.99l-0.84,3.98l-1.68,7.97l-1.67,7.97
					l-0.61,3.04l-0.81,5.65c0,0,5.99-29.41,6.52-31.69C57.85,19.29,56.63,18.44,56.63,18.44z"/>
				<path class="st0" d="M60.74,61.45c-0.56-1.03-1.33-1.87-2.17-2.46c-0.83-0.6-1.78-0.85-2.56-1.3c-0.75-0.48-1.27-1.06-1.62-1.57
					c-0.36-0.52-0.56-0.97-0.68-1.27c-0.06-0.13-0.09-0.24-0.11-0.32c-0.01-0.02-0.02-0.04-0.02-0.05
					c-0.02-0.04-0.02-0.06-0.03-0.08c-0.01-0.02-0.01-0.03-0.01-0.03l-0.76-0.04c-0.53,0.86-0.58,0.29-0.58-0.04l-1.19-0.07
					c-0.14,0.2-0.35,0.43-0.63,0.67c-0.37,0.32-0.91,0.65-1.59,0.8c-0.69,0.15-1.51,0.11-2.32-0.12c-0.78-0.2-1.67-0.16-2.55,0.09
					c-0.19,0.05-0.38,0.12-0.56,0.2c-4.37,3.66-0.7,3.81,0.48,3.35c1.23-0.47-2.31,2.25,0.48,0.82s9.73-1.57,13.54,1.36
					c3.63,2.79,2.7,0.71,2.6,0.5c0.42,0.37,0.75,0.84,1.01,1.38C61.29,62.63,61.05,62.01,60.74,61.45z"/>
			</g>
			<g>
				<path class="st1" d="M46.22,68.88c-0.46,0.07-2.77,6.9-2.91,7.33C47.24,69.56,46.7,68.81,46.22,68.88z"/>
				<path class="st1" d="M61.84,64.98c-0.09-0.59-0.21-1.16-0.37-1.71c-0.26-0.54-0.59-1.01-1.01-1.38c0.1,0.21,1.03,2.29-2.6-0.5
					c-3.81-2.93-10.75-2.79-13.54-1.36s0.75-1.29-0.48-0.82c-1.18,0.46-4.85,0.31-0.48-3.35c-0.69,0.25-1.36,0.64-1.99,1.12
					c-1.61,1.2-2.87,3.1-3.27,5.2c-0.17,1.09-0.34,2.18-0.51,3.26c-0.15,0.84-0.29,1.67-0.43,2.48c0,0.01,0,0.01,0,0.02
					c0.13,0.45,0.41,0.38,0.96-0.76c1.77-3.68,0.89,0.07,1.5,0.2c0.61,0.14,1.16-2.38,1.02-0.81c-0.09,1.01-1.06,5.67-1.73,8.84
					c0.58-1.52,1.13-3.06,1.59-4.51c0.48-1.47,0.92-2.85,1.26-4.04c0.26-0.92,0.5-1.72,0.68-2.36l-0.02-0.01
					c0.03-0.34,0.38-3.02,2.24-3.98c1.97-1.02,8.71-2.32,15.04,3.06c0,0,1.79,1.81,1.57,9.32c0.23-1.32,0.49-2.63,0.61-3.92
					C62.02,67.61,62.02,66.26,61.84,64.98z"/>
			</g>
			<g>
				<path class="st2" d="M66.24,13.6c1.22-1.63,1.36-6.19,1.36-6.19C67.6,8.5,65.01,15.24,66.24,13.6z"/>
				<path class="st2" d="M66.99,5.09C66.24,4.34,58,4.21,58,4.21S67.74,5.84,66.99,5.09z"/>
				<path class="st2" d="M57.47,16.06c2.34,4.68,6.32,0.51,6.64,0.15C60.83,18.74,57.69,16.24,57.47,16.06z"/>
				<path class="st2" d="M56.16,4.68c-0.27-0.75-0.95,0.41-0.95,0.41c-1.49,5.09,0.19,7.91,0.5,8.37
					C54.15,10.39,56.16,4.68,56.16,4.68z"/>
				<path class="st2" d="M60.01,59c-2.95-2.39-4.67-1.71-5.95-3.6c0.12,0.19,0.26,0.4,0.44,0.63c0.38,0.49,0.91,1.02,1.65,1.42
					c0.73,0.38,1.73,0.57,2.65,1.2c0.92,0.59,1.77,1.46,2.4,2.54c0.63,1.08,1.07,2.35,1.27,3.69c0.05,0.34,0.09,0.69,0.12,1.04
					C62.69,64.62,62.65,61.15,60.01,59z"/>
				<path class="st2" d="M59.09,19.8c-0.2,1.36-6.88,34.31-6.88,34.31s-0.01,0.08-0.01,0.18c0,0.33,0.05,0.9,0.58,0.04
					c0.01-0.03,0.03-0.06,0.05-0.09l7.08-34.72C59.91,19.52,59.29,18.43,59.09,19.8z"/>
				<path class="st2" d="M43.43,66.7c-1.18,4.88-5.18,15.71-5.43,16.38C47.04,64.86,44.66,61.66,43.43,66.7z"/>
				<path class="st2" d="M47.82,54.23c-0.99-0.09-1.88-0.17-2.81-0.06c-1.84,0.17-3.63,0.85-5.03,2.05
					c-0.69,0.59-1.31,1.28-1.8,2.06c-0.24,0.39-0.48,0.79-0.66,1.2c-0.18,0.38-0.39,0.9-0.5,1.29c-0.07,0.22-0.14,0.45-0.19,0.68
					l0.29,0.07c0.36-1.29,2.07-5.97,7.73-6.9c0,0,1.4,0.05,2.91,0.38c1.19,0.25,2.08-0.86,2.4-1.61c-0.19,0.24-0.44,0.43-0.71,0.55
					C48.91,54.18,48.38,54.24,47.82,54.23z"/>
				<path class="st2" d="M34.33,78.84c-0.25,2.07-1.45,6.55-2,8.5c0.17,0.08,0.36,0.17,0.57,0.26l0.17-0.37
					c0.01-0.01,0.02-0.02,0.03-0.04c0.07-0.12,0.27-0.45,0.56-0.91c0.19-0.31,0.44-0.67,0.69-1.11c0.24-0.44,0.51-0.94,0.82-1.47
					c0.31-0.53,0.59-1.15,0.92-1.77c0.33-0.62,0.6-1.32,0.95-2.01c0.34-0.69,0.62-1.44,0.95-2.18c0.32-0.74,0.59-1.52,0.9-2.28
					c0.01-0.02,0.01-0.03,0.02-0.05c0.67-3.17,1.64-7.83,1.73-8.84c0.14-1.57-0.41,0.95-1.02,0.81c-0.61-0.13,0.27-3.88-1.5-0.2
					c-0.55,1.14-0.83,1.21-0.96,0.76c-0.04,0.22-0.08,0.45-0.12,0.67c-0.36,2.05-0.78,3.95-1.1,5.59c-0.69,3.26-1.18,5.43-1.18,5.43
					s0.05-0.55,0.18-1.52c0.14-0.96,0.31-2.34,0.57-3.99c0.27-1.64,0.54-3.57,0.88-5.62c0.16-1.03,0.33-2.09,0.5-3.17
					c0.18-1.09,0.28-2.16,0.48-3.3c0.03-0.14,0.06-0.28,0.1-0.42l-0.35-0.09c-0.07,0.21-0.09,0.33-0.09,0.33
					S34.66,76.14,34.33,78.84z"/>
			</g>
			<path class="st3" d="M68.25,3.82c-0.09-0.04-0.18-0.07-0.26-0.1l-8-0.73l-2-0.13l-0.51-0.03l-0.41,0.01
				c-0.28,0.02-0.54,0.06-0.78,0.13c-0.97,0.28-1.63,1.08-1.74,2.19c-0.21,1.31-0.41,2.61-0.48,3.92c-0.08,1.15-0.07,2.3,0.04,3.43
				c0,0.01,0.01,0.03,0,0.04c0.29,1.76,0.96,4.54,2.52,5.89c0,0,1.22,0.85,0.69,3.13c-0.53,2.28-6.52,31.69-6.52,31.69l0.81-5.65
				l-0.99,4.94h-0.04c-0.06,0.31-0.21,0.59-0.41,0.83c0,0,0,0-0.01,0.01c-0.32,0.75-1.21,1.86-2.4,1.61
				c-1.51-0.33-2.91-0.38-2.91-0.38c-5.66,0.93-7.37,5.61-7.73,6.9l0.35,0.09c0.55-2.11,1.88-3.96,3.51-5.15
				c0.87-0.64,1.85-1.07,2.81-1.3c0.97-0.23,1.95-0.22,2.78,0.04c0.78,0.25,1.52,0.35,2.17,0.24c0.65-0.1,1.18-0.37,1.56-0.65
				c0.39-0.28,0.64-0.57,0.8-0.77c0.08-0.1,0.14-0.19,0.18-0.24c-0.03,0.06-0.08,0.15-0.15,0.26c-0.03,0.06-0.08,0.12-0.12,0.18
				l1.19,0.07c0-0.1,0.01-0.18,0.01-0.18s6.68-32.95,6.88-34.31c0.2-1.37,0.82-0.28,0.82-0.28l-7.08,34.72
				c-0.02,0.03-0.04,0.06-0.05,0.09l0.76,0.04c0,0,0,0.01,0.01,0.03c0.01,0.02,0.01,0.04,0.03,0.08c0,0.01,0.01,0.03,0.02,0.05
				c0.07,0.16,0.21,0.45,0.43,0.83c0.01,0.01,0.02,0.03,0.03,0.04c1.28,1.89,3,1.21,5.95,3.6c2.64,2.15,2.68,5.62,2.58,6.92
				c0,0.01,0,0.02,0,0.02c0.09,1.02,0.07,2.06-0.02,3.1c-0.13,1.41-0.38,2.8-0.61,4.2c-0.49,2.79-1.05,5.56-1.56,8.16
				c-0.51,2.6-1.07,5.01-1.52,7.09c-0.49,2.22-0.92,4.04-1.21,5.25c-0.02,0.06-0.04,0.12-0.05,0.18c-0.01,0.05-0.02,0.1-0.04,0.15
				c-0.14,0.59-0.24,1-0.29,1.18c0.01-0.09,0.04-0.25,0.07-0.46c0.17-1.02,0.55-3.33,1.1-6.39c0.76-4.17,1.76-9.73,2.77-15.29
				c0.01-0.07,0.03-0.15,0.04-0.22c0.22-7.51-1.57-9.32-1.57-9.32c-6.33-5.38-13.07-4.08-15.04-3.06c-1.86,0.96-2.21,3.64-2.24,3.98
				l0.02,0.01c0.05-0.19,0.1-0.36,0.14-0.52c0.19-0.7,0.3-1.1,0.3-1.1s-0.18,1.65-0.71,4.09c-0.28,1.21-0.59,2.63-1.05,4.12
				c-0.44,1.49-0.97,3.07-1.53,4.63c-0.32,0.77-0.62,1.55-0.96,2.29c-0.34,0.75-0.64,1.5-1.01,2.19c-0.35,0.69-0.67,1.37-1.05,1.98
				c-0.37,0.62-0.69,1.21-1.03,1.73c-0.68,1.05-1.3,1.89-1.76,2.45c-0.34,0.42-0.58,0.71-0.68,0.83c-0.01,0.02-0.02,0.03-0.03,0.04
				L32.9,87.6c-0.21-0.09-0.4-0.18-0.57-0.26c0.55-1.95,1.75-6.43,2-8.5c0.33-2.7,2.7-16.99,2.7-16.99s0.02-0.12,0.09-0.33
				l-0.29-0.07c-0.19,0.68-0.33,1.38-0.48,2.07c-0.19,0.94-0.36,1.88-0.52,2.83c-0.65,3.79-1.19,7.6-1.77,11.42l-0.44,2.86
				c-0.16,0.96-0.32,1.91-0.51,2.89c-0.1,0.5-0.21,0.94-0.33,1.43c-0.12,0.46-0.23,0.92-0.31,1.37c-0.07,0.34-0.13,0.68-0.16,1.01
				c-0.02,0.06-0.02,0.11-0.02,0.16c0,0.02-0.01,0.04-0.01,0.05c0,0.04-0.01,0.08-0.01,0.12c-0.02,0.22-0.03,0.44-0.02,0.63
				c0,0.03,0,0.06,0.01,0.09l12.9,4.2l12.49,4.12l0.14-0.35c0.04-0.11,0.08-0.23,0.12-0.34c0.04-0.13,0.09-0.27,0.13-0.41
				c0.05-0.14,0.1-0.29,0.15-0.44c0.26-0.8,0.49-1.62,0.72-2.44c0.45-1.64,0.86-3.31,1.25-4.98c0.79-3.34,1.48-6.7,2.17-10.08
				c0.38-1.69,0.62-3.35,0.91-5.03l0.25-2.52c0.07-0.84,0.04-1.68,0.07-2.52c0-0.84-0.11-1.66-0.16-2.49l-0.12-0.65
				c0-0.01,0-0.02,0-0.03l-0.1-0.54l-0.12-0.61l-0.18-0.58c-0.45-1.56-1.23-3.03-2.4-4.1c-0.59-0.53-1.24-1.01-1.97-1.36
				c-0.36-0.19-0.73-0.35-1.13-0.51l-0.66-0.27c-0.11-0.05-0.25-0.11-0.33-0.16l-0.14-0.08l-0.07-0.05l-0.01-0.01l-0.08-0.05
				l-0.04-0.04c-0.1-0.08-0.18-0.17-0.25-0.26c-1.17-0.68-0.92-2.59-0.92-2.59s6.31-29.15,6.52-31c0.21-1.86,1.59-2.39,1.59-2.39
				c6.57-3.23,6.26-9.8,6.53-12.5C69.73,5.14,68.67,4.13,68.25,3.82z M55.71,13.46c-0.31-0.46-1.99-3.28-0.5-8.37
				c0,0,0.68-1.16,0.95-0.41C56.16,4.68,54.15,10.39,55.71,13.46z M46.22,68.88c0.48-0.07,1.02,0.68-2.91,7.33
				C43.45,75.78,45.76,68.95,46.22,68.88z M43.43,66.7c1.23-5.04,3.61-1.84-5.43,16.38C38.25,82.41,42.25,71.58,43.43,66.7z
				 M66.99,5.09C67.74,5.84,58,4.21,58,4.21S66.24,4.34,66.99,5.09z M57.47,16.06c0.22,0.18,3.36,2.68,6.64,0.15
				C63.79,16.57,59.81,20.74,57.47,16.06z M65.29,10.99c-0.38,1.76-1.68,4.66-3.67,5.2c-0.29,0.12-0.59,0.18-0.9,0.18
				c-0.37,0-0.74-0.08-1.11-0.23c-0.75-0.31-1.27-0.83-1.61-1.47l-0.01-0.01c-1.74-2.33-0.95-6.25-0.62-7.03
				c0.85-1.94,3.65-1.24,5.24-0.96c0.96,0.16,2.2,0.4,2.68,1.36C65.74,8.93,65.49,10.06,65.29,10.99z M66.24,13.6
				c-1.23,1.64,1.36-5.1,1.36-6.19C67.6,7.41,67.46,11.97,66.24,13.6z"/>
			<g>
				<path class="st4" d="M63.41,7.26L63.3,7.24C62.84,7.12,62.37,7.06,61.92,7L61.6,6.96c-0.18-0.03-0.37-0.06-0.55-0.09
					c-0.5-0.1-1.01-0.2-1.57-0.13c-0.69,0.08-1.27,0.42-1.6,0.92c-0.11,0.17-0.2,0.37-0.26,0.61c-0.06,0.21-0.09,0.43-0.11,0.64
					c-0.17,1.44-0.47,4.02,0.48,5.75L58,14.67c0.34,0.64,0.86,1.16,1.61,1.47c0.37,0.15,0.74,0.23,1.11,0.23
					c0.31,0,0.61-0.06,0.9-0.18c0.21-0.07,0.41-0.18,0.6-0.31c1.94-1.32,2.85-5.17,2.82-6.95C65.01,7.66,64.12,7.44,63.41,7.26z
					 M61.66,15.06c-0.52,0.35-1.06,0.4-1.67,0.15c-2.11-0.87-1.69-4.46-1.49-6.18c0.02-0.17,0.04-0.34,0.08-0.5
					c0.04-0.14,0.08-0.25,0.14-0.33c0.16-0.25,0.49-0.42,0.88-0.47c0.08-0.01,0.17-0.01,0.25-0.01c0.33,0,0.67,0.06,1.02,0.13
					c0.2,0.04,0.4,0.07,0.6,0.1l0.32,0.04c0.43,0.06,0.87,0.12,1.27,0.22l0.11,0.02c0.75,0.19,0.86,0.25,0.87,0.72
					C64.07,10.45,63.25,13.97,61.66,15.06z"/>
				<path class="st4" d="M54.5,56.03c-0.18-0.23-0.32-0.44-0.44-0.63c-0.01-0.01-0.02-0.03-0.03-0.04
					c-0.22-0.38-0.36-0.67-0.43-0.83c0.02,0.08,0.05,0.19,0.11,0.32c0.12,0.3,0.32,0.75,0.68,1.27c0.35,0.51,0.87,1.09,1.62,1.57
					c0.78,0.45,1.73,0.7,2.56,1.3c0.84,0.59,1.61,1.43,2.17,2.46c0.31,0.56,0.55,1.18,0.73,1.82c0.16,0.55,0.28,1.12,0.37,1.71
					c0.18,1.28,0.18,2.63,0.04,3.99c-0.12,1.29-0.38,2.6-0.61,3.92c-0.01,0.07-0.03,0.15-0.04,0.22
					c-1.01,5.56-2.01,11.12-2.77,15.29c-0.55,3.06-0.93,5.37-1.1,6.39c-0.03,0.21-0.06,0.37-0.07,0.46
					c0.05-0.18,0.15-0.59,0.29-1.18c0.02-0.05,0.03-0.1,0.04-0.15c0.01-0.06,0.03-0.12,0.05-0.18c0.29-1.21,0.72-3.03,1.21-5.25
					c0.45-2.08,1.01-4.49,1.52-7.09c0.51-2.6,1.07-5.37,1.56-8.16c0.23-1.4,0.48-2.79,0.61-4.2c0.09-1.04,0.11-2.08,0.02-3.1
					c0,0,0-0.01,0-0.02c-0.03-0.35-0.07-0.7-0.12-1.04c-0.2-1.34-0.64-2.61-1.27-3.69c-0.63-1.08-1.48-1.95-2.4-2.54
					c-0.92-0.63-1.92-0.82-2.65-1.2C55.41,57.05,54.88,56.52,54.5,56.03z"/>
				<path class="st4" d="M50.3,54.79c-0.38,0.28-0.91,0.55-1.56,0.65c-0.65,0.11-1.39,0.01-2.17-0.24
					c-0.83-0.26-1.81-0.27-2.78-0.04c-0.96,0.23-1.94,0.66-2.81,1.3c-1.63,1.19-2.96,3.04-3.51,5.15c-0.04,0.14-0.07,0.28-0.1,0.42
					c-0.2,1.14-0.3,2.21-0.48,3.3c-0.17,1.08-0.34,2.14-0.5,3.17c-0.34,2.05-0.61,3.98-0.88,5.62c-0.26,1.65-0.43,3.03-0.57,3.99
					c-0.13,0.97-0.18,1.52-0.18,1.52s0.49-2.17,1.18-5.43c0.32-1.64,0.74-3.54,1.1-5.59c0.04-0.22,0.08-0.45,0.12-0.67
					c0-0.01,0-0.01,0-0.02c0.14-0.81,0.28-1.64,0.43-2.48c0.17-1.08,0.34-2.17,0.51-3.26c0.4-2.1,1.66-4,3.27-5.2
					c0.63-0.48,1.3-0.87,1.99-1.12c0.18-0.08,0.37-0.15,0.56-0.2c0.88-0.25,1.77-0.29,2.55-0.09c0.81,0.23,1.63,0.27,2.32,0.12
					c0.68-0.15,1.22-0.48,1.59-0.8c0.28-0.24,0.49-0.47,0.63-0.67c0.04-0.06,0.09-0.12,0.12-0.18c0.07-0.11,0.12-0.2,0.15-0.26
					c-0.04,0.05-0.1,0.14-0.18,0.24C50.94,54.22,50.69,54.51,50.3,54.79z"/>
				<path class="st4" d="M42.44,64.5c-0.18,0.64-0.42,1.44-0.68,2.36c-0.34,1.19-0.78,2.57-1.26,4.04
					c-0.46,1.45-1.01,2.99-1.59,4.51c-0.01,0.02-0.01,0.03-0.02,0.05c-0.31,0.76-0.58,1.54-0.9,2.28c-0.33,0.74-0.61,1.49-0.95,2.18
					c-0.35,0.69-0.62,1.39-0.95,2.01c-0.33,0.62-0.61,1.24-0.92,1.77c-0.31,0.53-0.58,1.03-0.82,1.47c-0.25,0.44-0.5,0.8-0.69,1.11
					c-0.29,0.46-0.49,0.79-0.56,0.91c0.1-0.12,0.34-0.41,0.68-0.83c0.46-0.56,1.08-1.4,1.76-2.45c0.34-0.52,0.66-1.11,1.03-1.73
					c0.38-0.61,0.7-1.29,1.05-1.98c0.37-0.69,0.67-1.44,1.01-2.19c0.34-0.74,0.64-1.52,0.96-2.29c0.56-1.56,1.09-3.14,1.53-4.63
					c0.46-1.49,0.77-2.91,1.05-4.12c0.53-2.44,0.71-4.09,0.71-4.09s-0.11,0.4-0.3,1.1C42.54,64.14,42.49,64.31,42.44,64.5z"/>
				<path class="st4" d="M71.59,5.61c-0.11-0.54-0.29-1.08-0.6-1.55c-0.3-0.47-0.69-0.89-1.12-1.22C69.42,2.51,69,2.26,68.4,2.06
					l-0.05-0.02l-0.09-0.01c-2.7-0.34-5.39-0.66-8.11-0.91l-2.07-0.17l-0.5-0.03l-0.61,0.01c-0.4,0.02-0.81,0.07-1.22,0.19
					c-0.82,0.21-1.61,0.72-2.17,1.4c-0.27,0.34-0.5,0.71-0.67,1.1c-0.09,0.21-0.15,0.39-0.22,0.65L52.6,4.81
					c-0.25,1.37-0.44,2.76-0.5,4.16c-0.09,1.4-0.05,2.82,0.13,4.24c0.18,1.41,0.51,2.84,1.12,4.19c0.31,0.67,0.68,1.32,1.16,1.93
					c0.12,0.14,0.27,0.31,0.39,0.44c0.14,0.15,0.17,0.18,0.24,0.28c0.12,0.17,0.19,0.34,0.22,0.54c0.01,0.1,0.02,0.21,0.01,0.33
					l-0.02,0.17l-0.04,0.23l-0.18,1.01l-0.37,2l-0.71,4.01l-1.44,8.01l-1.44,8.01l-1.52,8l-0.04,0.25c-0.11,0.22-0.29,0.4-0.55,0.52
					c-0.34,0.16-0.78,0.24-1.19,0.22c-0.91-0.09-1.97-0.18-2.95-0.06c-0.99,0.1-1.99,0.31-2.93,0.68c-0.93,0.38-1.82,0.9-2.6,1.53
					c-0.79,0.64-1.48,1.39-2.04,2.23c-0.27,0.43-0.54,0.86-0.76,1.33c-0.23,0.48-0.4,0.85-0.57,1.38c-0.32,0.96-0.53,1.9-0.75,2.85
					c-0.21,0.95-0.4,1.9-0.58,2.85c-0.73,3.8-1.34,7.61-1.99,11.41l-0.5,2.84c-0.17,0.94-0.35,1.89-0.55,2.79
					c-0.09,0.45-0.23,0.95-0.34,1.38c-0.13,0.48-0.25,0.96-0.36,1.45c-0.1,0.49-0.2,0.99-0.25,1.51c-0.03,0.26-0.04,0.53-0.04,0.82
					c0.01,0.15,0.02,0.3,0.05,0.47c0.01,0.09,0.03,0.18,0.06,0.29c0.02,0.04,0.05,0.11,0.07,0.17c0.06,0.1,0.02,0.1,0.24,0.34
					l0.09,0.09l0.19,0.07l13.24,4.51l13.26,4.46l0.7,0.24l0.37-0.61c0.13-0.22,0.15-0.29,0.21-0.41l0.14-0.33l0.25-0.64
					c0.15-0.43,0.29-0.85,0.42-1.27c0.26-0.84,0.5-1.68,0.73-2.52c0.44-1.68,0.85-3.37,1.23-5.05c0.76-3.38,1.47-6.77,2.09-10.16
					c0.34-1.68,0.57-3.44,0.83-5.16l0.21-2.63c0.06-0.88,0.02-1.77,0.03-2.65c-0.01-0.88-0.15-1.77-0.22-2.66l-0.27-1.32l-0.14-0.66
					l-0.21-0.64c-0.53-1.72-1.45-3.42-2.85-4.66c-0.7-0.61-1.48-1.14-2.3-1.53c-0.41-0.19-0.84-0.37-1.24-0.52l-0.54-0.21
					c-0.08-0.03-0.16-0.05-0.26-0.11l-0.14-0.08l-0.07-0.04l-0.01-0.01c-0.2-0.18-0.33-0.43-0.39-0.73
					c-0.08-0.34-0.01-0.59,0.09-1.07l0.5-2.53l2.08-10.13l2.09-10.13l1.09-5.05l0.55-2.53l0.13-0.63l0.07-0.32
					c0.02-0.08,0.04-0.15,0.06-0.21c0.08-0.26,0.34-0.45,0.51-0.5l0.1-0.02l0.03-0.02l1.26-0.64c0.4-0.26,0.81-0.5,1.2-0.78
					c0.36-0.31,0.78-0.57,1.11-0.92c0.35-0.32,0.7-0.66,1-1.05c0.32-0.35,0.57-0.77,0.85-1.17c0.23-0.42,0.5-0.84,0.67-1.28
					c0.21-0.44,0.38-0.89,0.53-1.34c0.15-0.46,0.28-0.92,0.39-1.37c0.22-0.93,0.36-1.85,0.5-2.76l0.19-1.35
					c0.06-0.46,0.15-0.87,0.2-1.38C71.7,6.69,71.69,6.14,71.59,5.61z M70.09,7.04c-0.02,0.4-0.1,0.89-0.15,1.34l-0.15,1.36
					c-0.11,0.9-0.22,1.79-0.4,2.64c-0.09,0.43-0.19,0.86-0.32,1.28c-0.12,0.41-0.26,0.82-0.43,1.22c-0.15,0.4-0.38,0.77-0.57,1.15
					c-0.24,0.36-0.44,0.74-0.72,1.06c-0.26,0.35-0.55,0.66-0.86,0.96c-0.28,0.32-0.65,0.56-0.98,0.85
					c-0.35,0.25-0.73,0.48-1.09,0.72l-1.11,0.59c-0.62,0.19-1.04,0.64-1.25,1.18c-0.04,0.14-0.08,0.27-0.1,0.41l-0.07,0.31
					l-0.13,0.63l-0.51,2.54l-1.03,5.06l-2.15,10.12l-2.16,10.11l-0.55,2.53c-0.26,0.71-0.25,1.9,0.44,2.7
					c0.07,0.09,0.15,0.18,0.25,0.26l0.04,0.04l0.08,0.05l0.01,0.01l0.07,0.05l0.14,0.08c0.08,0.05,0.22,0.11,0.33,0.16l0.66,0.27
					c0.4,0.16,0.77,0.32,1.13,0.51c0.73,0.35,1.38,0.83,1.97,1.36c1.17,1.07,1.95,2.54,2.4,4.1l0.18,0.58l0.12,0.61l0.1,0.54
					c0,0.01,0,0.02,0,0.03l0.12,0.65c0.05,0.83,0.16,1.65,0.16,2.49c-0.03,0.84,0,1.68-0.07,2.52l-0.25,2.52
					c-0.29,1.68-0.53,3.34-0.91,5.03c-0.69,3.38-1.38,6.74-2.17,10.08c-0.39,1.67-0.8,3.34-1.25,4.98
					c-0.23,0.82-0.46,1.64-0.72,2.44c-0.05,0.15-0.1,0.3-0.15,0.44c-0.04,0.14-0.09,0.28-0.13,0.41c-0.04,0.11-0.08,0.23-0.12,0.34
					l-0.14,0.35l-12.49-4.12l-12.9-4.2c-0.01-0.03-0.01-0.06-0.01-0.09c-0.01-0.19,0-0.41,0.02-0.63c0-0.04,0.01-0.08,0.01-0.12
					c0-0.01,0.01-0.03,0.01-0.05c0-0.05,0-0.1,0.02-0.16c0.03-0.33,0.09-0.67,0.16-1.01c0.08-0.45,0.19-0.91,0.31-1.37
					c0.12-0.49,0.23-0.93,0.33-1.43c0.19-0.98,0.35-1.93,0.51-2.89l0.44-2.86c0.58-3.82,1.12-7.63,1.77-11.42
					c0.16-0.95,0.33-1.89,0.52-2.83c0.15-0.69,0.29-1.39,0.48-2.07c0.05-0.23,0.12-0.46,0.19-0.68c0.11-0.39,0.32-0.91,0.5-1.29
					c0.18-0.41,0.42-0.81,0.66-1.2c0.49-0.78,1.11-1.47,1.8-2.06c1.4-1.2,3.19-1.88,5.03-2.05c0.93-0.11,1.82-0.03,2.81,0.06
					c0.56,0.01,1.09-0.05,1.63-0.29c0.27-0.12,0.52-0.31,0.71-0.55c0.01-0.01,0.01-0.01,0.01-0.01c0.2-0.24,0.35-0.52,0.41-0.83
					h0.04l0.99-4.94l0.61-3.04l1.67-7.97l1.68-7.97l0.84-3.98l0.42-1.99l0.21-1l0.05-0.26c0.02-0.1,0.04-0.23,0.04-0.34
					c0.03-0.22,0.03-0.45,0-0.68c-0.04-0.47-0.22-0.96-0.49-1.35c-0.12-0.18-0.32-0.4-0.4-0.5c-0.11-0.12-0.18-0.21-0.28-0.33
					c-0.35-0.47-0.64-1.01-0.88-1.57c-0.48-1.14-0.78-2.39-0.93-3.66c-0.02-0.14-0.03-0.28-0.04-0.42c0.01-0.01,0-0.03,0-0.04
					c-0.11-1.13-0.12-2.28-0.04-3.43c0.07-1.31,0.27-2.61,0.48-3.92c0.11-1.11,0.77-1.91,1.74-2.19c0.24-0.07,0.5-0.11,0.78-0.13
					l0.41-0.01l0.51,0.03l2,0.13l8,0.73c0.08,0.03,0.17,0.06,0.26,0.1c0.21,0.1,0.44,0.22,0.63,0.36c0.3,0.21,0.55,0.47,0.75,0.76
					c0.2,0.29,0.33,0.62,0.41,0.98C70.11,6.27,70.14,6.65,70.09,7.04z"/>
			</g>
		</g>
	</g>
</g>
</svg>
