<?xml version="1.0" encoding="utf-8"?>
<!-- Generator: Adobe Illustrator 19.1.0, SVG Export Plug-In . SVG Version: 6.00 Build 0)  -->
<svg version="1.1" id="Layer_3" xmlns="http://www.w3.org/2000/svg" xmlns:xlink="http://www.w3.org/1999/xlink" x="0px" y="0px"
	 viewBox="0 0 100 100" style="enable-background:new 0 0 100 100;" xml:space="preserve">
<style type="text/css">
	.st0{fill:#E6E6E6;stroke:#E6E6E6;stroke-width:0.02;stroke-miterlimit:10;}
	.st1{fill:#16BF82;}
	.st2{fill:#5E482A;stroke:#5E482A;stroke-width:0.04;stroke-miterlimit:10;}
	.st3{fill:#1BCC88;stroke:#1BCC88;stroke-width:0.04;stroke-miterlimit:10;}
	.st4{fill:#69CBED;stroke:#69CBED;stroke-width:0.04;stroke-miterlimit:10;}
	.st5{fill:#B7935C;stroke:#B7935C;stroke-width:0.04;stroke-miterlimit:10;}
	.st6{fill:#202020;stroke:#202020;stroke-width:0.04;stroke-miterlimit:10;}
	.st7{fill:#BDE563;stroke:#BDE563;stroke-width:0.04;stroke-miterlimit:10;}
	.st8{fill:#0E774A;stroke:#0E774A;stroke-width:0.04;stroke-miterlimit:10;}
	.st9{fill:#F9C178;stroke:#F9C178;stroke-width:0.04;stroke-miterlimit:10;}
	.st10{fill:#FFFFFF;}
</style>
<path class="st0" d="M96.152,15.287c-0.534-0.079-1.107,0.316-1.404,0.929c-0.534,0.158-1.088,0.198-1.641,0.198
	c-0.316-0.02-0.633-0.04-0.929-0.119c-0.376-0.099-0.712-0.336-0.969-0.613c-0.079-0.257-0.119-0.534-0.119-0.811
	c0-1.127,0.534-2.155,1.384-2.788c0.02,0,0.02,0,0.02,0c0.593-0.475,1.325-0.732,2.116-0.732c0.949,0,1.799,0.376,2.412,0.969
	c0.119,0.534,0.119,1.088-0.02,1.602c-0.138,0.514-0.415,0.989-0.771,1.384C96.211,15.287,96.172,15.287,96.152,15.287z"/>
<path class="st0" d="M94.748,16.216c0.297-0.613,0.87-1.008,1.404-0.929c0.02,0,0.059,0,0.079,0.02
	c-0.178,0.178-0.356,0.336-0.554,0.475c-0.04,0.02-0.079,0.04-0.119,0.079l-0.02,0.02c-0.178,0.099-0.376,0.198-0.573,0.277
	C94.886,16.177,94.827,16.216,94.748,16.216z"/>
<path class="st0" d="M76.536,15.505c0-1.147,0.751-2.076,1.681-2.076c0.237,0,0.435,0.059,0.653,0.158
	c-0.218,0.415-0.514,0.811-0.85,1.127c0-0.02,0-0.02,0-0.04c0-0.257-0.198-0.455-0.455-0.455s-0.455,0.198-0.455,0.455
	s0.178,0.435,0.435,0.455c-0.297,0.237-0.633,0.435-0.989,0.573C76.536,15.643,76.536,15.564,76.536,15.505z"/>
<path class="st0" d="M78.019,14.674c0,0.02,0,0.02,0,0.04c-0.158,0.158-0.316,0.297-0.475,0.415
	c-0.257-0.02-0.435-0.198-0.435-0.455s0.198-0.455,0.455-0.455S78.019,14.417,78.019,14.674z"/>
<path class="st1" d="M80.866,32.313c-0.178-0.178-0.297-0.395-0.316-0.692c0-0.059,0-0.119,0.02-0.158c0-0.04,0.02-0.059,0.02-0.119
	v-0.02c0.455-0.336,0.89-0.751,1.364-1.266c0.218-0.237,0.613-0.692,1.206-1.384C82.33,29.841,81.578,31.047,80.866,32.313z"/>
<path class="st0" d="M76.437,9.651c1.206,0,2.294,0.514,3.025,1.325c0.04,0.554-0.02,1.088-0.158,1.602
	c-0.099,0.356-0.237,0.692-0.435,1.008c-0.218-0.099-0.415-0.158-0.653-0.158c-0.929,0-1.681,0.929-1.681,2.076
	c0,0.059,0,0.138,0.02,0.198c-0.178,0.079-0.356,0.138-0.534,0.198c-1.088,0.316-2.333,0.218-3.263-0.415
	c-0.059-0.04-0.119-0.099-0.178-0.138c-0.198-0.475-0.297-1.008-0.297-1.542C72.284,11.51,74.143,9.651,76.437,9.651z"/>
<path class="st2" d="M66.214,47.519c0-0.04-0.059-0.079-0.079-0.119c0-0.02,0-0.04,0-0.079c-0.02,0.02-0.02,0.02-0.02,0.04
	c-0.04-0.059-0.059-0.119-0.119-0.178c-0.099-0.178-0.316-0.257-0.475-0.396c-0.356-0.237-0.692-0.415-0.692-0.415
	s-0.336-0.158-0.751-0.297c-0.316-0.119-0.653-0.198-0.89-0.237c-0.475-1.542-2.274-4.449-3.5-6.328
	c-1.602-2.452-3.658-4.944-6.15-7.099c-2.511-2.155-5.497-3.955-8.641-5.042c-3.164-1.107-6.446-1.582-9.472-1.503
	c-3.006,0.079-5.735,0.672-7.969,1.404c-2.234,0.751-3.975,1.602-5.141,2.294c-1.167,0.653-1.78,1.107-1.78,1.107
	s-0.633,0.415-1.701,1.246c-1.048,0.85-2.511,2.136-3.975,3.994c-1.463,1.839-2.927,4.232-4.014,7.04s-1.404,5.794-1.602,9.116
	c-0.415,6.486,1.028,13.308,3.935,18.212h-0.02l0.178,0.297c0.573,0.949,1.088,1.661,1.345,2.017
	c0.218,0.297,0.435,0.554,0.653,0.751c0.751,0.732,1.542,1.068,2.393,1.602c-0.178-0.119-0.356-0.237-0.494-0.376
	c0.158,0.138,0.336,0.257,0.534,0.376c0.218,0.138,0.415,0.257,0.672,0.356c0.415,0.198,1.305,0.475,2.353,0.672
	c3.263,0.672,7.415,0.573,11.054-0.633c3.678-1.167,6.585-3.322,8.879-4.41c1.147-0.593,2.096-0.969,2.788-1.206
	c0.692-0.237,1.088-0.376,1.088-0.376s1.602-0.475,4.113-1.226c2.511-0.732,5.913-2.274,8.8-4.726
	c2.927-2.412,5.359-5.596,6.783-8.622c0.376-0.732,0.692-1.542,0.929-2.155c0.079-0.218,0.158-0.415,0.218-0.613
	c0.119-0.396,0.218-0.712,0.277-0.91c0.198-0.633,0.297-1.147,0.356-1.641c0.02-0.119,0.02-0.218,0.04-0.336h0.02
	c0.079-0.613,0.119-1.186,0.138-1.641C66.253,47.5,66.233,47.519,66.214,47.519z M64.849,50.822
	c-0.079,0.198-0.178,0.494-0.297,0.87c-0.059,0.178-0.158,0.376-0.237,0.593c-0.237,0.573-0.554,1.345-0.929,2.037
	c-1.424,2.867-3.777,5.932-6.605,8.187c-2.808,2.314-5.992,3.718-8.444,4.429c-2.492,0.751-4.113,1.226-4.113,1.226
	s-0.415,0.138-1.127,0.376c-0.712,0.237-1.76,0.653-2.946,1.266c-2.373,1.147-5.3,3.223-8.721,4.192
	c-3.421,1.068-7.317,1.107-10.322,0.455c-0.989-0.218-1.74-0.455-2.096-0.593c-0.672-0.277-1.167-0.475-1.641-0.712
	c-0.237-0.119-0.494-0.237-0.751-0.395c-0.198-0.336-0.395-0.692-0.692-1.068c-0.237-0.336-0.732-1.008-1.246-1.879
	c-1.839-3.006-3.223-6.921-3.856-11.014c0.277,1.305,0.653,2.63,1.226,3.915C14.365,68.559,21.306,72.91,28.405,72
	c4.489-0.455,8.681-2.65,11.904-5.833c1.859-1.839,3.381-4.014,4.429-6.367c0.712-1.483,1.206-3.065,1.503-4.667
	c0.356-1.839,0.455-3.698,0.277-5.517c-0.04-0.455-0.099-0.91-0.178-1.345c-0.316-2.037-0.91-3.994-1.74-5.814
	c-0.336-0.751-0.712-1.483-1.127-2.195c-0.356-0.613-0.732-1.206-1.147-1.76c-0.732-1.048-1.562-2.037-2.452-2.907
	c-0.771-0.771-1.622-1.463-2.492-2.076c-0.297-0.198-0.593-0.395-0.89-0.554c-1.345-0.811-2.768-1.364-4.192-1.681
	c-0.89-0.198-1.78-0.297-2.65-0.297c-0.593-0.04-1.147,0-1.701,0.099c-0.653,0.099-1.305,0.277-1.918,0.396
	c-0.831,0.376-1.681,0.653-2.412,1.048c-0.178,0.099-0.356,0.198-0.534,0.316c-0.831,0.593-1.681,1.048-2.314,1.661
	c-0.475,0.415-0.89,0.85-1.246,1.266c-0.02,0.02-0.04,0.04-0.059,0.059c-0.138,0.138-0.257,0.277-0.376,0.415
	c-0.237,0.277-0.435,0.573-0.613,0.831c-0.534,0.791-0.89,1.503-1.147,2.017c0,0.02-0.02,0.04-0.02,0.04
	c-0.316,0.672-0.455,1.028-0.455,1.028s-0.178,0.376-0.396,1.107c-0.138,0.415-0.297,0.969-0.415,1.641c0,0,0,0.02-0.02,0.02
	c-0.079,0.475-0.178,1.028-0.237,1.622c0,0.099-0.02,0.178-0.02,0.277c-0.04,0.376-0.059,0.811-0.04,1.246
	c0,0.929,0.099,1.958,0.316,3.065c0.04,0.198,0.079,0.415,0.138,0.613c0.198,0.692,0.435,1.424,0.791,2.136
	c0.376,0.811,0.87,1.622,1.542,2.333c0.415,0.475,0.91,0.89,1.483,1.266c0.119,0.079,0.237,0.158,0.376,0.218
	c0.791,0.475,1.681,0.771,2.63,0.91c1.088,0.138,2.254,0.079,3.362-0.218c0.613-0.138,1.206-0.336,1.78-0.613
	c0.534-0.237,1.028-0.514,1.523-0.85c1.028-0.653,1.958-1.483,2.749-2.472c0.771-0.949,1.424-2.037,1.898-3.223
	c0.02-0.04,0.04-0.099,0.059-0.138c0.415-1.008,0.672-2.096,0.751-3.203c0.138-1.285,0.04-2.61-0.297-3.896
	c-0.198-0.692-0.455-1.384-0.771-2.057c-0.138-0.237-0.277-0.475-0.415-0.712c-0.059-0.119-0.138-0.218-0.218-0.336
	c-0.573-0.89-1.325-1.701-2.195-2.333c-0.475-0.356-1.008-0.672-1.562-0.91c-0.376-0.158-0.751-0.277-1.147-0.376
	c-0.494-0.138-1.028-0.218-1.562-0.237c-0.811,0-1.621,0.119-2.373,0.415c-0.138,0.04-0.277,0.099-0.415,0.158
	c-0.949,0.455-1.819,1.068-2.531,1.799c-1.107,1.088-1.918,2.452-2.373,3.935v0.02c-0.04,0.138-0.079,0.277-0.119,0.435
	c-0.257,0.929-0.336,1.938-0.257,2.946c0,0.04,0.02,0.099,0.02,0.138c0.099,0.91,0.395,1.78,0.85,2.571
	c0.04,0.099,0.099,0.178,0.178,0.277v0.02c0.336,0.514,0.831,0.969,1.404,1.246c0.257,0.158,0.514,0.257,0.791,0.336
	c0.376,0.099,0.751,0.158,1.127,0.178c0.771,0.059,1.523-0.059,2.234-0.277c0.751-0.237,1.444-0.573,2.076-1.008
	c0.099-0.059,0.178-0.119,0.257-0.198c0.672-0.475,1.285-1.107,1.72-1.839c0.514-0.791,0.831-1.701,0.87-2.67
	c0.02-0.316,0.02-0.633-0.02-0.949c-0.059-0.633-0.237-1.266-0.573-1.819c-0.119-0.237-0.277-0.475-0.475-0.672
	c-0.494-0.554-1.147-0.969-1.839-1.107c-0.356-0.099-0.712-0.138-1.088-0.119c-1.028,0.02-2.037,0.396-2.788,1.068
	c-0.396,0.336-0.732,0.751-0.969,1.246c-0.119,0.257-0.198,0.494-0.237,0.751c-0.138,0.455-0.138,0.929-0.079,1.404
	c0.02,0.217,0.059,0.415,0.119,0.613c0.119,0.356,0.277,0.712,0.514,1.028c0.059,0.079,0.119,0.158,0.198,0.237
	c0.158,0.198,0.356,0.356,0.573,0.494c0.198,0.119,0.475,0.218,0.494,0.218c0.099,0.02,0.198,0.059,0.277,0.059
	c0.613,0.119,1.147,0.02,1.582-0.178c0.494-0.237,0.85-0.593,1.008-0.87c0.277-0.415,0.376-0.91,0.297-1.345
	c-0.02-0.079-0.04-0.158-0.059-0.217c-0.138-0.475-0.435-0.791-0.751-1.009c-0.138-0.099-0.316-0.178-0.475-0.218
	c-0.119-0.039-0.218-0.059-0.336-0.059c-0.475-0.059-0.969,0.099-1.186,0.534c0.237-0.119,0.455-0.138,0.633-0.079
	c0.316,0.059,0.554,0.316,0.712,0.554c0.237,0.415,0.376,1.048,0.119,1.463c-0.079,0.178-0.732,0.751-1.859,0.178v-0.02
	c-0.04,0-0.099-0.039-0.138-0.059c-0.039,0-0.356-0.158-0.494-0.336c-0.198-0.198-0.336-0.475-0.415-0.751
	c-0.059-0.178-0.099-0.356-0.099-0.554c-0.02-0.119-0.02-0.218,0-0.336c0-0.316,0.079-0.653,0.218-0.929
	c0.257-0.554,0.929-1.008,1.681-1.266v-0.02c0.751-0.277,1.582-0.356,2.215-0.198c0.02,0,0.04,0,0.059,0.02
	c1.246,0.297,1.958,1.701,1.859,3.124c0,0.02,0,0.02,0,0.04c-0.079,1.404-0.929,2.709-2.136,3.559
	c-0.04,0.059-0.099,0.079-0.138,0.119c-0.732,0.514-1.74,0.87-2.709,0.989v0.02c-0.712,0.099-1.404,0.079-1.997-0.099
	c-0.653-0.178-1.186-0.554-1.503-1.127c-0.04-0.04-0.059-0.079-0.079-0.119s-0.04-0.079-0.059-0.119
	c-0.336-0.613-0.554-1.325-0.633-2.057c0-0.099-0.02-0.198,0-0.297h-0.02c-0.04-1.068,0.158-2.136,0.573-3.144v-0.02
	c0.514-1.305,1.364-2.472,2.432-3.342c0.455-0.396,0.969-0.712,1.503-0.969c0.692-0.336,1.839-0.435,2.59-0.475
	c0.02,0,0.04,0,0.059,0h0.02c0.771,0.079,1.859,0.237,2.531,0.514c0.751,0.336,1.444,0.811,2.037,1.384
	c0.514,0.494,0.969,1.048,1.325,1.661c0.158,0.277,0.316,0.554,0.455,0.831c0.613,1.305,0.929,2.709,0.929,4.093
	c0,1.305-0.257,2.59-0.732,3.757c-0.277,0.732-0.633,1.404-1.048,2.037c-1.147,1.78-2.729,3.164-4.489,3.955
	c-0.04,0.02-0.079,0.04-0.138,0.059c-1.582,0.692-3.619,0.89-5.319,0.573c-0.85-0.158-1.622-0.455-2.215-0.85
	c-0.455-0.297-0.87-0.653-1.226-1.028c-0.89-0.949-1.463-2.136-1.819-3.263v-0.02c-0.079-0.218-0.138-0.435-0.198-0.653
	c-0.396-1.542-0.475-2.946-0.415-4.153c0.02-0.198,0.04-0.396,0.059-0.593c0.04-0.376,0.099-0.732,0.138-1.048
	c0.099-0.653,0.218-1.206,0.396-1.641c0.04-0.099,0.059-0.198,0.099-0.297c0.02-0.059,0.04-0.099,0.079-0.158
	c0.04-0.099,0.099-0.237,0.158-0.396v-0.02h-0.02c0.02-0.02,0.04-0.059,0.059-0.119c0.039-0.099,0.079-0.217,0.099-0.297v-0.02
	c-0.02,0-0.02,0-0.02,0s0.119-0.356,0.435-0.989c0.316-0.633,0.791-1.542,1.622-2.571c0.277-0.356,0.593-0.732,0.969-1.088
	c0.158-0.178,0.336-0.336,0.534-0.494c0.573-0.534,1.364-0.949,2.096-1.483c0.396-0.277,0.929-0.475,1.483-0.672
	c0.554-0.178,1.107-0.356,1.582-0.573c0.751-0.138,1.74-0.376,2.67-0.435c0.316-0.04,0.633-0.04,0.929-0.02
	c1.345,0,2.788,0.277,4.192,0.831c0.949,0.356,1.879,0.85,2.768,1.444c0.316,0.218,0.613,0.455,0.91,0.692
	c1.088,0.87,2.116,1.898,3.025,3.065c0.653,0.791,1.246,1.661,1.78,2.571c0.455,0.791,0.89,1.641,1.266,2.511
	c0.831,1.938,1.424,4.074,1.622,6.269c0.02,0.237,0.04,0.475,0.04,0.712c0.119,2.076-0.099,4.192-0.692,6.249
	c-0.099,0.356-0.198,0.692-0.336,1.028c-0.178,0.534-0.395,1.048-0.633,1.562c-1.028,2.353-2.65,4.548-4.627,6.348
	c-2.155,1.997-4.726,3.54-7.435,4.449c-1.186,0.395-2.412,0.672-3.638,0.791c-1.186,0.158-2.373,0.178-3.54,0.04
	c-0.455-0.04-0.91-0.119-1.345-0.218c-2.076-0.415-4.014-1.266-5.695-2.432c-0.336-0.218-0.653-0.475-0.969-0.732
	c-1.167-0.949-2.175-2.076-2.946-3.302c-0.059,0.059-0.138,0.119-0.198,0.178c-0.059-0.257-0.099-0.514-0.138-0.771
	C13.218,63.22,13,62.805,12.822,62.37c-0.613-1.345-1.048-2.749-1.345-4.153c-0.099-0.475-0.178-0.949-0.237-1.424
	c-0.059-0.218-0.079-0.435-0.119-0.653l-0.119-1.028l-0.079-0.771c-0.02-0.237-0.02-0.455-0.04-0.653
	c-0.02-0.415-0.04-0.732-0.059-0.949c-0.04-0.593-0.079-1.107-0.138-1.562c-0.02-0.158-0.02-0.316-0.04-0.475
	c0-0.059,0-0.119-0.02-0.158c0.178-1.523,0.435-2.986,0.831-4.39c0.257-1.028,0.573-1.997,0.929-2.927
	c0.178-0.455,0.356-0.89,0.554-1.305c0.831-1.879,1.839-3.52,2.848-4.865c0.138-0.158,0.257-0.316,0.376-0.475
	c0.356-0.435,0.692-0.831,1.028-1.206c0.514-0.573,1.028-1.068,1.483-1.503c0.455-0.396,0.85-0.751,1.206-1.048
	c1.008-0.771,1.602-1.167,1.602-1.167s0.593-0.415,1.681-1.048c0.138-0.079,0.277-0.158,0.435-0.257
	c1.088-0.593,2.571-1.285,4.429-1.898c0.633-0.218,1.325-0.415,2.057-0.593c1.641-0.396,3.5-0.692,5.478-0.751
	c0.514-0.02,1.048,0,1.582,0.02c1.958,0.079,3.994,0.396,5.992,0.989c0.435,0.119,0.87,0.257,1.305,0.415
	c1.246,0.435,2.472,0.989,3.638,1.622c1.542,0.85,2.986,1.839,4.311,2.946c0.079,0.059,0.138,0.119,0.218,0.178
	c0.929,0.791,1.78,1.622,2.59,2.492c1.048,1.147,1.997,2.333,2.848,3.5c0.178,0.257,0.356,0.494,0.534,0.751
	c0.573,0.791,1.127,1.681,1.602,2.472c0.178,0.297,0.336,0.593,0.494,0.85c0.376,0.771,0.791,1.523,1.206,2.274
	c0.119,0.237,0.653,1.602,0.989,1.602c0.04,0,0.059,0,0.099,0s0.079,0.02,0.119,0.02c0.119,0.02,0.257,0.059,0.415,0.079
	c0.395,0.079,0.831,0.198,0.831,0.218c0,0,0.336,0.04,0.613,0.237C65.403,48.113,65.146,49.952,64.849,50.822z M29.73,42.536
	c0,0.02,0,0.059-0.02,0.079C29.69,42.576,29.69,42.556,29.73,42.536z"/>
<g>
	<path class="st3" d="M18.656,76.983c1.147,0.633,2.353,1.107,3.619,1.424c2.551,0.653,5.24,0.653,7.771-0.02
		c4.054-1.068,7.514-3.737,11.529-4.924c2.215-0.653,4.548-0.831,6.802-1.364c8.206-1.879,15.147-8.463,17.461-16.551
		c0.573-1.977,0.85-4.153,0.237-6.091c-0.059,0.494-0.158,1.008-0.356,1.641c-0.059,0.198-0.158,0.514-0.277,0.91
		c-0.059,0.198-0.138,0.395-0.218,0.613c-0.237,0.613-0.554,1.424-0.929,2.155c-1.424,3.025-3.856,6.209-6.783,8.622
		c-2.887,2.452-6.288,3.994-8.8,4.726C46.202,68.876,44.6,69.35,44.6,69.35s-0.395,0.138-1.088,0.376
		c-0.692,0.237-1.641,0.613-2.788,1.206c-2.294,1.088-5.201,3.243-8.879,4.41c-3.638,1.206-7.791,1.305-11.054,0.633
		c-1.048-0.198-1.938-0.475-2.353-0.672c-0.257-0.099-0.455-0.218-0.672-0.356c-0.198-0.119-0.376-0.237-0.534-0.376
		c0.138,0.138,0.316,0.257,0.494,0.376c-0.85-0.534-1.641-0.87-2.393-1.602C15.769,74.907,17.193,76.153,18.656,76.983z"/>
	<path class="st3" d="M76.733,42.773c0,0.415,0.138,0.831,0.257,1.226c0.198,0.573,0.494,1.226,1.088,1.285
		c0.277,0.04,0.534-0.059,0.751-0.257c0-0.02,0-0.02,0.02-0.02c0.059-0.732,0.653-2.828,3.223-2.096c0.079,0,0.158-0.02,0.237-0.04
		c0.633-0.178,1.186-0.831,0.91-1.424c-0.158-0.356-0.573-0.514-0.949-0.633c-1.088-0.356-2.254-0.653-3.381-0.396
		C77.781,40.677,76.753,41.627,76.733,42.773z"/>
	<path class="st3" d="M8.828,76.786c1.186-1.028,1.444-2.689,2.037-4.172c-0.198,0.158-0.455,0.395-0.791,0.751
		c-0.316,0.316-0.811,0.87-1.226,1.364c-0.415,0.514-0.751,0.929-0.751,0.929s-1.167,1.523-2.294,2.057
		c-0.178,0.099-0.376,0.178-0.554,0.257c0.04,0,0.079,0,0.119,0C6.594,77.794,7.899,77.596,8.828,76.786z"/>
	<path class="st3" d="M89.824,43.268c-0.396,0.613-0.949,1.127-1.582,1.483c-0.613,0.336-1.285,0.534-1.958,0.692
		c-1.088,0.277-2.234,0.455-3.342,0.336c-0.89-0.099-1.76-0.435-2.432-1.009c0.02,0.04,0.04,0.079,0.059,0.119
		c0.316,0.415,0.712,0.791,1.266,1.167c0.218,0.119,0.514,0.356,1.285,0.554c0.712,0.178,1.74,0.218,2.867,0.099
		c1.147-0.099,2.373-0.297,3.105-0.89c0.771-0.554,0.771-1.444,0.751-2.215C89.844,43.485,89.824,43.367,89.824,43.268z"/>
	<path class="st3" d="M76.635,22.445c0.138-0.02,0.257-0.059,0.376-0.099c0.297-0.079,0.593-0.218,0.85-0.396
		c0.02-0.732,0.04-1.088,0.059-1.345c0.02-0.336,0.04-0.653,0.079-0.929c-0.475,0.138-0.949,0.237-1.444,0.237
		c-0.099,0-0.198-0.02-0.277-0.02c0.059,0.316,0.119,0.672,0.178,1.068C76.476,21.2,76.536,21.615,76.635,22.445z"/>
	<path class="st3" d="M82.844,47.638c-0.929-0.297-1.325-0.593-1.562-0.751c-0.435-0.336-0.771-0.712-0.969-1.088
		c-0.217,0.771,0.396,1.542,1.028,2.057c0.653,0.554,1.424,1.147,1.444,1.997c0.02,0.396-0.138,0.771-0.356,1.088
		c-1.167,1.74-3.876,1.839-5.636,0.692c-1.76-1.147-2.768-3.124-3.54-5.082c-0.929-2.314-1.641-4.904-1.345-7.317
		c-0.653,1.206-1.186,2.432-1.404,3.5c-0.257,1.127-0.237,1.819-0.257,2.175c0.02,1.424-0.119,2.353,0.435,3.579
		c-0.376-0.435-0.751-0.85-1.028-1.325c0.079,1.424,0.929,2.788,1.839,3.915c1.127,1.384,2.432,2.709,2.927,4.41
		c0.455,1.562,0.138,3.243-0.277,4.825c-2.175,7.969-7.455,15.029-14.495,19.339c-7.02,4.311-15.721,5.833-23.789,4.153
		c-4.647-0.969-9.254-2.927-13.882-3.638c-2.076-0.316-4.172-0.396-6.268,0.02c-2.076,0.415-4.074,1.266-6.189,1.305
		c-1.582,0.02-3.164-0.435-4.489-1.305c-0.811-0.534-1.542-1.345-1.958-2.235c-0.04-0.02-0.079-0.02-0.119-0.04
		s-0.099-0.059-0.178-0.079c-0.079-0.04-0.138-0.079-0.218-0.119c-0.059-0.02-0.099-0.04-0.158-0.059
		c0.059,0.395,0.059,1.167,0.198,2.057c0.099,0.554,0.316,1.424,0.653,1.997c0.297,0.534,0.91,1.028,1.562,1.384
		c1.364,0.692,3.085,0.831,4.726,0.554c3.342-0.534,6.624-2.689,10.52-2.848c1.898-0.138,3.935,0.554,5.359,1.661
		c1.444,1.107,2.709,2.057,4.074,2.907c2.689,1.701,5.478,2.689,7.85,3.342c2.393,0.653,4.449,0.87,5.853,0.989
		c0.712,0.099,1.266,0.079,1.641,0.079c0.396,0.02,0.593,0.02,0.593,0.02s0.791,0.059,2.215-0.04
		c0.712-0.04,1.582-0.079,2.571-0.237c0.989-0.099,2.116-0.316,3.322-0.573c2.413-0.554,5.24-1.444,8.068-2.887
		c2.848-1.444,5.675-3.48,8.187-5.972c5.062-4.944,8.622-11.746,10.026-17.876c0.376-1.463,0.633-3.124,0.771-4.291
		c0.02-0.237,0.059-0.435,0.079-0.633c0.04-0.376,0.059-0.692,0.079-0.89c0-0.099,0.02-0.158,0.02-0.257
		c-0.099,0.02-0.218,0.039-0.316,0.039c-0.929,0.099-1.384,0.02-1.661,0c-1.641-0.237-2.412-0.929-3.342-1.819
		c1.147,0.653,2.017,0.771,3.441,0.949c0.237,0.02,0.633,0.079,1.463-0.02c0.138-0.02,0.336-0.059,0.534-0.099
		c0.158-0.04,0.297-0.079,0.475-0.138c0.257-0.079,0.514-0.178,0.732-0.277c0.573-0.277,1.008-0.613,1.008-0.613
		s0.356-0.257,0.751-0.672c0.395-0.396,0.791-0.969,1.008-1.384c0.514-0.969,0.573-1.641,0.692-2.057
		c0.178-0.831,0.712-1.483,1.266-1.78c0.257-0.158,0.573-0.455,0.87-0.633c-0.534,0.099-1.088,0.158-1.602,0.218
		C84.881,47.974,83.694,47.895,82.844,47.638z"/>
	<path class="st3" d="M90.912,18.688c-0.02,0.02-0.02,0.04-0.04,0.059c-0.158,0.218-0.395,0.573-0.91,1.325
		c-0.059,0.079-0.119,0.158-0.178,0.237c0.099,0.237,0.257,0.435,0.475,0.593c0.573-0.692,0.85-1.048,1.028-1.246
		c0.119-0.158,0.237-0.277,0.356-0.415C91.386,19.084,91.129,18.906,90.912,18.688z"/>
</g>
<g>
	<path class="st4" d="M79.304,12.578c-0.099,0.356-0.237,0.692-0.435,1.008c-0.218,0.415-0.514,0.811-0.85,1.127
		c-0.158,0.158-0.316,0.297-0.475,0.415c-0.297,0.237-0.633,0.435-0.989,0.573c-0.178,0.079-0.356,0.138-0.534,0.198
		c-1.088,0.316-2.333,0.218-3.263-0.415c-0.059-0.04-0.119-0.099-0.178-0.138c0.257,0.653,0.692,1.226,1.226,1.681l0.04,0.02
		c0.455,0.376,1.008,0.672,1.621,0.811c0.059,0.02,0.119,0.02,0.178,0.04c0.257,0.059,0.514,0.079,0.791,0.079
		c0.395,0,0.791-0.059,1.147-0.178c0.099-0.04,0.277-0.099,0.514-0.218c0.475-0.198,1.147-0.613,1.661-1.325
		c0.04-0.02,0.059-0.059,0.079-0.099c0.04-0.059,0.079-0.138,0.138-0.198c0.395-0.633,0.613-1.384,0.613-2.155
		c0-1.088-0.415-2.076-1.127-2.828C79.502,11.53,79.443,12.064,79.304,12.578z"/>
	<path class="st4" d="M97.022,12.321c0.119,0.534,0.119,1.088-0.02,1.602c-0.138,0.514-0.415,0.989-0.771,1.384
		c-0.178,0.178-0.356,0.336-0.554,0.475c-0.04,0.02-0.079,0.04-0.119,0.079c0,0.02,0,0.02-0.02,0.02
		c-0.178,0.099-0.376,0.198-0.573,0.277c-0.079,0.02-0.138,0.059-0.218,0.059c-0.534,0.158-1.088,0.198-1.641,0.198
		c-0.316-0.02-0.633-0.04-0.929-0.119c-0.376-0.099-0.712-0.336-0.969-0.613c0.059,0.356,0.198,0.672,0.376,0.969
		c0.079,0.138,0.178,0.277,0.297,0.396v0.02c0.297,0.376,0.653,0.672,1.088,0.89c0.119,0.079,0.237,0.138,0.376,0.158
		c0.376,0.178,0.791,0.257,1.226,0.257c0.02,0,0.02,0,0.04,0c0.218,0,0.435-0.02,0.653-0.079c-0.02,0-0.02,0-0.04-0.02
		c0.079,0,0.158-0.02,0.237-0.04c0.02-0.02,0.059-0.02,0.079-0.02c0.237-0.059,0.435-0.158,0.672-0.277h0.02h0.02h0.02
		c0.079-0.059,0.138-0.099,0.237-0.158c0.02-0.02,0.04-0.04,0.059-0.059c0.02,0.02,0.04,0,0.079-0.04c0.02,0,0.04-0.02,0.079-0.04
		c0-0.02,0.02-0.02,0.04-0.02v-0.02c0,0,0.02-0.02,0.04-0.02c0.04-0.02,0.059-0.04,0.079-0.079l0.02-0.02
		c0-0.02,0.02-0.02,0.02-0.04c0.059-0.04,0.099-0.079,0.138-0.119c0.059-0.04,0.119-0.099,0.178-0.158
		c0.119-0.119,0.198-0.237,0.277-0.376c0.376-0.534,0.593-1.206,0.593-1.918C98.11,13.883,97.694,12.973,97.022,12.321z"/>
</g>
<g>
	<path class="st5" d="M22.136,49.339c-0.277-0.079-0.534-0.178-0.791-0.336c-1.167,1.186-1.977,2.709-2.235,4.35
		c0.356,0.376,0.771,0.732,1.226,1.028c0.593,0.396,1.364,0.692,2.215,0.85c-0.336-0.475-0.494-1.186-0.475-1.799
		c0.059-1.384,0.455-2.749,1.186-3.915C22.888,49.497,22.512,49.438,22.136,49.339z"/>
	<path class="st5" d="M25.241,42.536c-0.178-0.059-0.396-0.04-0.633,0.079c0.218-0.435,0.712-0.593,1.186-0.534
		c-0.554-0.316-0.929-1.048-0.831-1.602c-0.751,0.257-1.424,0.712-1.681,1.266c-0.138,0.277-0.218,0.613-0.218,0.929
		C23.718,43.11,24.667,43.05,25.241,42.536z"/>
	<path class="st5" d="M26.605,42.358c0.316,0.218,0.613,0.534,0.751,1.009c0.02,0.059,0.04,0.138,0.059,0.217
		c0.396,0.099,0.771,0.119,1.167,0.04c0.178-0.04,0.356-0.099,0.514-0.218c0.099-1.424-0.613-2.828-1.859-3.124
		c-0.297,0.672-0.672,1.285-1.107,1.859C26.289,42.18,26.467,42.259,26.605,42.358z"/>
	<path class="st5" d="M20.396,41.152v0.02c0.475,0.573,1.305,0.91,2.037,0.751c0.04-0.257,0.119-0.494,0.237-0.751
		c0.237-0.494,0.573-0.91,0.969-1.246c-0.554-0.534-0.85-1.325-0.811-2.116C21.76,38.68,20.91,39.847,20.396,41.152z"/>
	<path class="st5" d="M44.62,57.723c0.138-0.336,0.237-0.672,0.336-1.028c0.593-2.057,0.811-4.172,0.692-6.249
		c-0.178,0.158-0.415,0.297-0.613,0.396c-1.72,0.771-3.54,1.424-5.418,1.305c-2.076-0.099-4.073-1.226-5.3-2.907
		c-0.475,1.186-1.127,2.274-1.898,3.223c0.929,2.274,2.768,4.153,5.042,5.122C39.696,58.554,42.346,58.593,44.62,57.723z"/>
	<path class="st5" d="M22.354,43.327c-0.257,0.158-0.494,0.336-0.751,0.494c-0.475,0.316-1.028,0.593-1.582,0.534
		c-0.059,0-0.119-0.02-0.178-0.04c-0.02,0.099,0,0.198,0,0.297c0.079,0.732,0.297,1.443,0.633,2.057
		c0.02,0.04,0.04,0.079,0.059,0.119s0.04,0.079,0.079,0.119c0.89-0.534,1.701-1.186,2.373-1.938
		c-0.237-0.316-0.395-0.672-0.514-1.028C22.413,43.742,22.374,43.545,22.354,43.327z"/>
	<path class="st5" d="M43.473,40.262c0.415,0.712,0.791,1.444,1.127,2.195l0.079-0.04c9.67-1.799,10.599-5.201,10.52-6.644
		c-0.811-0.87-1.661-1.701-2.59-2.492c-0.079-0.059-0.138-0.119-0.218-0.178c-0.297,1.266-1.958,3.638-10.065,5.398
		C42.741,39.056,43.117,39.649,43.473,40.262z"/>
	<path class="st5" d="M16.678,45.265c-0.059,1.206,0.02,2.61,0.415,4.153c0.059,0.218,0.119,0.435,0.198,0.653
		c0.87-0.771,1.78-1.542,2.65-2.314v-0.02c-0.079-0.099-0.138-0.178-0.178-0.277c-0.455-0.791-0.751-1.661-0.85-2.571
		C18.28,45.344,17.43,45.483,16.678,45.265z"/>
	<path class="st5" d="M29.552,46.194c0.435,0.336,1.127,0.435,1.701,0.356c1.167-0.158,2.373-0.751,3.026-1.701
		c0-1.384-0.316-2.788-0.929-4.093c-0.811,0.831-1.839,1.463-2.946,1.819c0.04,0.316,0.04,0.633,0.02,0.949
		C30.382,44.494,30.066,45.404,29.552,46.194z"/>
	<path class="st5" d="M29.651,68.896c0.653,0.593,1.424,1.028,2.274,1.186c2.709-0.91,5.28-2.452,7.435-4.449
		c-2.254,0.198-4.509-0.949-6.15-2.571c-2.155-2.136-3.441-5.102-3.54-8.127c-0.494,0.336-0.989,0.613-1.523,0.85
		c-0.573,0.277-1.167,0.475-1.78,0.613c-0.435,3.164,0,6.446,1.266,9.393C28.108,66.938,28.741,68.045,29.651,68.896z"/>
	<path class="st5" d="M34.238,33.183c-1.384,0.692-2.472,1.938-3.006,3.381c0.87,0.633,1.622,1.444,2.195,2.333
		c1.444-1.266,2.946-2.472,4.489-3.579c-0.297-0.237-0.593-0.475-0.91-0.692C36.117,34.033,35.187,33.539,34.238,33.183z"/>
	<path class="st5" d="M35.168,45.918c3.065,1.107,6.743,0.039,8.819-2.452c-0.376-0.87-0.811-1.72-1.266-2.511
		c-0.534-0.91-1.127-1.78-1.78-2.571c-1.444,1.977-3.718,3.302-6.11,3.619c0.336,1.285,0.435,2.61,0.297,3.896
		C35.148,45.918,35.148,45.918,35.168,45.918z"/>
	<path class="st5" d="M26.823,47.124c0.04-0.04,0.099-0.059,0.138-0.119c-0.079-0.02-0.158-0.059-0.237-0.119
		c-0.336-0.257-0.573-0.672-0.613-1.088c-0.435,0.198-0.969,0.297-1.582,0.178c-0.356,0.653-0.514,1.404-0.415,2.136
		C25.083,47.994,26.091,47.638,26.823,47.124z"/>
	<path class="st5" d="M17.647,40.994c-0.02,0.059-0.04,0.099-0.059,0.119h0.02v0.02c0.04,0.02,0.079,0.059,0.138,0.099
		c0.396,0.257,0.969,0.494,1.404,0.573c0.04-0.158,0.079-0.297,0.119-0.435v-0.02c0.455-1.483,1.266-2.848,2.373-3.935
		c-0.395-0.218-0.712-0.613-0.85-1.068c-0.02-0.099-0.04-0.218-0.04-0.316c-0.376,0.356-0.692,0.732-0.969,1.088
		c-0.831,1.028-1.305,1.938-1.622,2.571c-0.316,0.633-0.435,0.989-0.435,0.989s0,0,0.02,0v0.02
		C17.727,40.776,17.687,40.895,17.647,40.994z"/>
	<path class="st5" d="M46.518,49.615c0.178,1.819,0.079,3.678-0.277,5.517c12.616-3.658,13.941-10.065,13.941-12.636
		c-0.475-0.791-1.028-1.681-1.602-2.472c-0.178-0.257-0.356-0.494-0.534-0.751c-0.336,1.839-2.175,5.972-11.706,8.997
		C46.419,48.706,46.479,49.161,46.518,49.615z"/>
	<path class="st5" d="M18.518,54.223c-0.672-0.712-1.167-1.523-1.542-2.333c-2.116,1.384-4.074,3.025-5.735,4.904
		c0.059,0.475,0.138,0.949,0.237,1.424c0.297,1.404,0.732,2.808,1.345,4.153c0.178,0.435,0.396,0.85,0.633,1.266
		c-0.198-1.819,0.356-3.718,1.325-5.319C15.769,56.734,17.094,55.429,18.518,54.223z"/>
	<path class="st5" d="M27.001,36.367h-0.02c-0.435,0.751-0.633,1.622-0.554,2.492c0.376-0.02,0.732,0.02,1.088,0.119
		c0.692,0.138,1.345,0.554,1.839,1.107c0.613-0.751,1.364-1.364,2.215-1.819c-0.593-0.573-1.285-1.048-2.037-1.384
		C28.86,36.604,27.772,36.446,27.001,36.367z"/>
	<path class="st5" d="M16.026,42.932c0.02,0,0.02-0.02,0.02-0.02c0.119-0.672,0.277-1.226,0.415-1.641
		c0.218-0.732,0.396-1.107,0.396-1.107s0.138-0.356,0.455-1.028c-0.811-0.356-1.404-1.186-1.523-2.076
		c-1.008,1.345-2.017,2.986-2.848,4.865C13.613,42.872,14.938,43.327,16.026,42.932z"/>
	<path class="st5" d="M15.729,46.076c-1.226,0.91-3.026,0.929-4.271,0.079c-0.395,1.404-0.653,2.867-0.831,4.39
		c0.02,0.04,0.02,0.099,0.02,0.158c0.02,0.158,0.02,0.316,0.04,0.475c1.938-0.04,3.856-0.771,5.359-2.037
		C15.828,48.034,15.729,47.005,15.729,46.076z"/>
	<path class="st5" d="M37.382,33.519c0.87,0.613,1.72,1.305,2.492,2.076c5.379-2.59,7.455-4.548,8.206-5.438
		c-1.167-0.633-2.393-1.186-3.638-1.622c-0.435-0.158-0.87-0.297-1.305-0.415c-2.65,0.85-5.22,2.472-6.644,4.845
		C36.789,33.124,37.086,33.321,37.382,33.519z"/>
	<path class="st5" d="M27.871,54.658c0.059-0.02,0.099-0.04,0.138-0.059c1.76-0.791,3.342-2.175,4.489-3.955
		c-1.028,0.277-2.175,0.099-3.065-0.475c-0.771-0.514-1.345-1.266-1.602-2.136c-0.079,0.079-0.158,0.138-0.257,0.198
		c-0.633,0.435-1.325,0.771-2.076,1.008c-0.297,1.088-0.198,2.294,0.297,3.322C26.23,53.471,26.981,54.203,27.871,54.658z"/>
	<path class="st5" d="M64.948,47.776c-0.277-0.198-0.613-0.237-0.613-0.237c0-0.02-0.435-0.138-0.831-0.218
		c-0.158-0.02-0.297-0.059-0.415-0.079c-0.04,0-0.079-0.02-0.119-0.02c-1.048,3.816-5.616,15.503-22.661,18.944
		C37.086,69.35,32.894,71.545,28.405,72c-7.099,0.91-14.04-3.441-16.353-9.294c-0.573-1.285-0.949-2.61-1.226-3.915
		c0.633,4.093,2.017,8.009,3.856,11.014c0.514,0.87,1.008,1.542,1.246,1.879c0.297,0.376,0.494,0.732,0.692,1.068
		c0.257,0.158,0.514,0.277,0.751,0.395c0.475,0.237,0.969,0.435,1.641,0.712c0.356,0.138,1.107,0.376,2.096,0.593
		c3.006,0.653,6.901,0.613,10.322-0.455c3.421-0.969,6.348-3.045,8.721-4.192c1.186-0.613,2.234-1.028,2.946-1.266
		c0.712-0.237,1.127-0.376,1.127-0.376s1.621-0.475,4.113-1.226c2.452-0.712,5.636-2.116,8.444-4.429
		c2.828-2.254,5.181-5.319,6.605-8.187c0.376-0.692,0.692-1.463,0.929-2.037c0.079-0.218,0.178-0.415,0.237-0.593
		c0.119-0.376,0.218-0.672,0.297-0.87C65.146,49.952,65.403,48.113,64.948,47.776z"/>
	<path class="st5" d="M26.961,35.042c0.534,0.02,1.068,0.099,1.562,0.237c-0.237-0.989-0.02-2.096,0.593-2.907
		c-0.929,0.059-1.918,0.297-2.67,0.435c-0.475,0.218-1.028,0.395-1.582,0.573c-0.277,0.494-0.415,1.068-0.396,1.622
		c0,0.138,0.04,0.316,0.119,0.455C25.34,35.16,26.15,35.042,26.961,35.042z"/>
	<path class="st5" d="M19.526,35.773c0.356-0.415,0.771-0.85,1.246-1.266c0.633-0.613,1.483-1.068,2.314-1.661
		c0.178-0.119,0.356-0.218,0.534-0.316c-0.297-0.692-0.297-1.483-0.02-2.175c-0.158,0.099-0.297,0.178-0.435,0.257
		c-1.088,0.633-1.681,1.048-1.681,1.048s-0.593,0.395-1.602,1.167c-0.356,0.297-0.751,0.653-1.206,1.048
		c-0.455,0.435-0.969,0.929-1.483,1.503l2.274,0.455C19.486,35.813,19.506,35.793,19.526,35.773z"/>
	<path class="st5" d="M16.738,67.531c0.316,0.257,0.633,0.514,0.969,0.732c1.681,1.167,3.619,2.017,5.695,2.432
		c-1.266-1.147-1.799-3.065-2.017-4.865c-0.376-3.144-0.099-6.585,1.621-9.215c-0.949-0.138-1.839-0.435-2.63-0.91
		c-3.105,2.887-4.548,7.435-3.698,11.608C16.698,67.393,16.718,67.452,16.738,67.531z"/>
	<path class="st5" d="M29.651,30.988c0.87,0,1.76,0.099,2.65,0.297c0.02-0.04,0.059-0.079,0.079-0.119
		c1.147-1.76,2.828-3.164,4.766-4.034c-0.534-0.02-1.068-0.04-1.582-0.02c-1.977,0.059-3.836,0.356-5.478,0.751
		c-0.989,0.85-1.74,1.977-2.136,3.223C28.504,30.988,29.057,30.948,29.651,30.988z"/>
</g>
<g>
	<path class="st6" d="M79.087,9.394c-0.771-0.455-1.681-0.732-2.65-0.732c-2.848,0-5.141,2.314-5.141,5.141
		c0,2.432,1.661,4.469,3.935,5.003c0.791,0.119,2.235,0.198,3.401-0.336c0.198-0.099,0.395-0.198,0.573-0.316
		c0-0.02,0.02-0.02,0.02-0.02c1.404-0.91,2.353-2.511,2.353-4.331C81.578,11.945,80.57,10.304,79.087,9.394z M79.977,15.959
		c-0.059,0.059-0.099,0.138-0.138,0.198c-0.02,0.059-0.059,0.119-0.099,0.158c0-0.02,0-0.04,0.02-0.059
		c-0.514,0.712-1.186,1.127-1.661,1.325c0.02,0.02,0.04,0.02,0.059,0.02c-0.178,0.079-0.376,0.158-0.573,0.198
		c-0.356,0.119-0.751,0.178-1.147,0.178c-0.277,0-0.534-0.02-0.791-0.079c-0.059-0.02-0.119-0.02-0.178-0.04
		c-0.613-0.138-1.167-0.435-1.621-0.811l-0.04-0.02c-0.534-0.455-0.969-1.028-1.226-1.681c-0.198-0.475-0.297-1.008-0.297-1.542
		c0-2.294,1.859-4.153,4.153-4.153c1.206,0,2.294,0.514,3.025,1.325c0.712,0.751,1.127,1.74,1.127,2.828
		C80.589,14.575,80.372,15.327,79.977,15.959z"/>
	<path class="st6" d="M13.594,64.407c0.059-0.059,0.138-0.119,0.198-0.178c-0.119-0.198-0.237-0.395-0.336-0.593
		C13.495,63.893,13.534,64.15,13.594,64.407z"/>
	<path class="st6" d="M94.61,10.521c-2.393,0-4.35,1.958-4.35,4.35c0,0.771,0.218,1.523,0.573,2.136
		c0.04,0.079,0.079,0.138,0.119,0.198c0.02,0.02,0.04,0.04,0.059,0.079c0.435,0.573,1.147,1.266,2.314,1.72
		c0.059,0.04,0.138,0.059,0.218,0.079c0.02,0,0.059,0.02,0.079,0.02c0.316,0.079,0.653,0.119,0.989,0.119
		c2.393,0,4.35-1.958,4.35-4.35S97.002,10.521,94.61,10.521z M97.516,16.79c-0.079,0.138-0.158,0.257-0.277,0.376
		c-0.059,0.059-0.119,0.119-0.178,0.158c-0.04,0.059-0.099,0.119-0.158,0.158l-0.02,0.02c-0.02,0.04-0.04,0.059-0.079,0.079
		c-0.02,0-0.04,0.02-0.04,0.02v0.02c-0.02,0-0.04,0-0.04,0.02c-0.04,0.02-0.059,0.04-0.079,0.04
		c-0.059,0.079-0.119,0.119-0.198,0.158c0.02-0.02,0.04-0.04,0.059-0.059c-0.099,0.059-0.158,0.099-0.237,0.158h-0.02
		c-0.04,0.04-0.059,0.059-0.099,0.059c0.02,0,0.04-0.02,0.059-0.059c-0.237,0.119-0.435,0.218-0.672,0.277
		c0.079,0,0.178-0.02,0.257-0.059c-0.138,0.059-0.277,0.099-0.376,0.099c0.02,0,0.02,0,0.04-0.02c-0.079,0.02-0.158,0.04-0.237,0.04
		c0.02,0.02,0.02,0.02,0.04,0.02c-0.218,0.059-0.435,0.079-0.653,0.079c-0.02,0-0.02,0-0.04,0c-0.435,0-0.85-0.079-1.226-0.257
		c-0.138-0.02-0.257-0.079-0.376-0.158c-0.435-0.217-0.791-0.514-1.088-0.89v-0.02c-0.119-0.119-0.217-0.257-0.297-0.396
		c-0.178-0.297-0.316-0.613-0.376-0.969c-0.079-0.257-0.119-0.534-0.119-0.811c0-1.127,0.534-2.155,1.384-2.788
		c0.02,0,0.02,0,0.02,0c0.593-0.475,1.325-0.732,2.116-0.732c0.949,0,1.799,0.376,2.412,0.969c0.672,0.653,1.088,1.562,1.088,2.551
		C98.11,15.584,97.892,16.256,97.516,16.79z"/>
	<path class="st6" d="M29.71,42.615c0.02-0.02,0.02-0.059,0.02-0.079C29.69,42.556,29.69,42.576,29.71,42.615z"/>
</g>
<g>
	<path class="st7" d="M71.493,51.079c-0.91-1.127-1.76-2.492-1.839-3.915c-0.218-0.336-0.396-0.712-0.514-1.147
		c-0.059,0.099-0.099,0.198-0.158,0.297c-0.277,0.475-0.573,0.89-0.573,0.89s-0.297,0.415-0.653,0.85
		c-0.356,0.396-1.305,1.107-1.621,1.068h-0.02c-0.02,0.119-0.02,0.218-0.04,0.336c0.613,1.938,0.336,4.113-0.237,6.091
		c-2.314,8.088-9.254,14.673-17.461,16.551c-2.254,0.534-4.588,0.712-6.802,1.364c-4.014,1.186-7.475,3.856-11.529,4.924
		c-2.531,0.672-5.22,0.672-7.771,0.02c-1.266-0.316-2.472-0.791-3.619-1.424c-1.463-0.831-2.887-2.076-3.322-3.638
		c-0.217-0.198-0.435-0.455-0.653-0.751c-0.257-0.356-0.771-1.068-1.345-2.017c-0.653,0.534-1.226,1.048-2.116,1.74
		c-0.079,0.079-0.198,0.158-0.356,0.297c-0.593,1.483-0.85,3.144-2.037,4.172c-0.929,0.811-2.234,1.009-3.461,1.186
		c-0.04,0-0.079,0-0.119,0c-0.02,0.02-0.059,0.02-0.079,0.02C4.755,78.13,4.359,78.17,4.023,78.15
		c-0.435-0.02-0.732-0.119-0.949-0.198c0.415,0.89,1.147,1.701,1.958,2.235c1.325,0.87,2.907,1.325,4.489,1.305
		c2.116-0.04,4.113-0.89,6.189-1.305c2.096-0.415,4.192-0.336,6.268-0.02c4.627,0.712,9.235,2.67,13.882,3.638
		c8.068,1.681,16.769,0.158,23.789-4.153c7.04-4.311,12.319-11.37,14.495-19.339c0.415-1.582,0.732-3.263,0.277-4.825
		C73.925,53.788,72.62,52.463,71.493,51.079z"/>
	<path class="st7" d="M81.084,32.511c0.059,0.059,0.119,0.119,0.178,0.158c0.297,0.237,0.653,0.475,1.068,0.712
		c0.099-0.415,0.237-0.91,0.514-1.503c0.455-1.107,1.325-2.432,2.037-3.5c0.732-1.088,1.305-1.918,1.305-1.918
		s0.692-0.989,1.542-2.195c0.85-1.186,1.898-2.551,2.531-3.362c-0.218-0.158-0.376-0.356-0.475-0.593
		c-1.008,1.404-3.124,4.113-3.124,4.113s-1.997,2.531-3.164,3.876c-0.119,0.138-0.218,0.257-0.336,0.376
		c-0.831,1.167-1.582,2.373-2.294,3.638C80.926,32.392,81.005,32.471,81.084,32.511z"/>
	<path class="st7" d="M89.686,41.37c-0.079-0.613-0.257-1.483-0.692-2.274c-0.415-0.811-1.167-1.404-2.136-1.898
		c-0.969-0.494-1.938-0.989-2.729-1.404c-1.701-0.85-4.331-1.582-5.003-3.579c-0.02-0.059-0.059-0.158-0.079-0.237
		c-0.04-0.059-0.059-0.099-0.079-0.178c-0.138-0.415-0.316-1.028-0.475-1.898c-0.277-1.285-0.475-3.658-0.475-3.658
		s-0.237-2.848-0.158-4.054c0-0.079,0-0.158,0-0.237c-0.257,0.178-0.554,0.316-0.85,0.396c-0.119,0.04-0.237,0.079-0.376,0.099
		c0,0.04,0.02,0.079,0.02,0.119c0.138,1.681,0.514,4.489,0.119,7c-0.237,1.246-0.633,2.333-1.008,3.065
		c-0.356,0.751-0.593,1.186-0.593,1.186s-0.119,0.218-0.336,0.554c0,0.02,0,0.04-0.02,0.04c-0.356,0.593-0.929,1.562-1.641,2.65
		c-0.435,0.692-0.89,1.424-1.266,2.175c-0.297,2.412,0.415,5.003,1.345,7.317c0.771,1.958,1.78,3.935,3.54,5.082
		c1.76,1.147,4.469,1.048,5.636-0.692c0.218-0.316,0.376-0.692,0.356-1.088c-0.02-0.85-0.791-1.443-1.444-1.997
		c-0.633-0.514-1.246-1.285-1.028-2.057c-0.316-0.514-0.435-1.048-0.376-1.582c-0.02-0.04,0-0.079,0-0.119
		c-0.02,0.02-0.04,0.04-0.079,0.079c-0.079,0.079-0.218,0.218-0.376,0.396c-0.237,0.257-0.494,0.534-0.613,0.653
		c-0.04-0.02-0.04-0.099-0.04-0.198c-0.218,0.198-0.475,0.297-0.751,0.257c-0.593-0.059-0.89-0.712-1.088-1.285
		c-0.119-0.396-0.257-0.811-0.257-1.226c0.02-1.147,1.048-2.096,2.155-2.353c1.127-0.257,2.294,0.04,3.381,0.396
		c0.376,0.119,0.791,0.277,0.949,0.633c0.277,0.593-0.277,1.246-0.91,1.424c-0.079,0.02-0.158,0.04-0.237,0.04
		c-0.198,0.158-0.573,0.119-0.771,0.257c-0.119,0.079-0.494,0.257-0.791,0.475c-0.158,0.099-0.277,0.218-0.395,0.297
		c0.059,0.316,0.237,0.593,0.395,0.831c0.672,0.573,1.542,0.91,2.432,1.009c1.107,0.119,2.254-0.059,3.342-0.336
		c0.672-0.158,1.345-0.356,1.958-0.692c0.633-0.356,1.186-0.87,1.582-1.483c-0.02-0.554-0.02-0.89-0.02-0.89
		S89.785,41.983,89.686,41.37z"/>
</g>
<path class="st8" d="M91.011,17.284c-0.198,0.237-0.415,0.494-0.653,0.791c-0.04,0.079-0.099,0.119-0.138,0.198
	c-0.178,0.218-0.435,0.554-0.969,1.266c-0.969,1.305-3.342,4.291-3.342,4.291s-2.017,2.472-3.203,3.797
	c-0.791,0.91-1.285,1.463-1.542,1.74c-0.554,0.633-0.91,1.127-1.305,1.562c-0.099-0.316-0.198-0.712-0.297-1.226
	c-0.119-0.633-0.297-1.523-0.415-2.254s-0.198-1.305-0.198-1.305s-0.079-0.692-0.158-1.542c-0.059-0.831-0.099-1.819-0.119-2.412
	c-0.02-0.87-0.02-1.285-0.02-1.542c0.02-0.475,0.02-0.87,0.02-1.226c-0.02-0.336-0.02-0.653-0.04-0.949
	c-1.167,0.534-2.61,0.455-3.401,0.336c0.079,0.04,0.178,0.059,0.257,0.079c0.02,0.297,0,0.593,0.02,0.929
	c0.02,0.376,0.059,0.771,0.119,1.246c0.02,0.237,0.079,0.653,0.158,1.444c0,0.04,0,0.099,0,0.138
	c0.099,1.641,0.455,4.509-0.079,6.703c-0.257,1.107-0.692,2.076-1.028,2.768c-0.336,0.692-0.573,1.107-0.573,1.107
	s-0.811,1.384-1.997,3.144c-0.573,0.91-1.226,1.898-1.74,2.986c-0.534,1.048-0.91,2.155-1.127,3.105
	c-0.178,0.791-0.237,1.384-0.257,1.839c-0.158,0.079-0.969,2.373-2.689,3.164l-0.02,0.02c-0.02,0.455-0.059,1.028-0.138,1.641
	c0.316,0.04,1.266-0.672,1.621-1.068c0.356-0.435,0.653-0.85,0.653-0.85s0.297-0.415,0.573-0.89
	c0.059-0.099,0.099-0.198,0.158-0.297c0.119,0.435,0.297,0.811,0.514,1.147c0.277,0.475,0.653,0.89,1.028,1.325
	c-0.554-1.226-0.415-2.155-0.435-3.579c0.02-0.356,0-1.048,0.257-2.175c0.218-1.068,0.751-2.294,1.404-3.5
	c0.376-0.751,0.831-1.483,1.266-2.175c0.712-1.088,1.285-2.057,1.641-2.65c0.02,0,0.02-0.02,0.02-0.04
	c0.218-0.336,0.336-0.554,0.336-0.554s0.237-0.435,0.593-1.186c0.376-0.732,0.771-1.819,1.008-3.065c0.396-2.511,0.02-5.319-0.119-7
	c0-0.04-0.02-0.079-0.02-0.119c-0.099-0.831-0.158-1.246-0.178-1.483c-0.059-0.396-0.119-0.751-0.178-1.068
	c0.079,0,0.178,0.02,0.277,0.02c0.494,0,0.969-0.099,1.444-0.237c-0.04,0.277-0.059,0.593-0.079,0.929
	c-0.02,0.257-0.04,0.613-0.059,1.345c0,0.079,0,0.158,0,0.237c-0.079,1.206,0.158,4.054,0.158,4.054s0.198,2.373,0.475,3.658
	c0.158,0.87,0.336,1.483,0.475,1.898c0.02,0.079,0.039,0.119,0.079,0.178c0.02,0.079,0.059,0.178,0.079,0.237
	c0.672,1.997,3.302,2.729,5.003,3.579c0.791,0.415,1.76,0.91,2.729,1.404c0.969,0.494,1.72,1.088,2.136,1.898
	c0.435,0.791,0.613,1.661,0.692,2.274c0.099,0.613,0.119,1.008,0.119,1.008s0,0.336,0.02,0.89c0,0.099,0.02,0.217,0.02,0.336
	c0.02,0.771,0.02,1.661-0.751,2.215c-0.732,0.593-1.958,0.791-3.105,0.89c-1.127,0.119-2.155,0.079-2.867-0.099
	c-0.771-0.198-1.068-0.435-1.285-0.554c-0.554-0.376-0.949-0.751-1.266-1.167c-0.02-0.04-0.04-0.079-0.059-0.119
	c-0.158-0.237-0.336-0.514-0.395-0.831c0.119-0.079,0.237-0.198,0.395-0.297c0.297-0.218,0.672-0.395,0.791-0.475
	c0.198-0.138,0.573-0.099,0.771-0.257c-2.571-0.732-3.164,1.364-3.223,2.096c-0.02,0-0.02,0-0.02,0.02c0,0.099,0,0.178,0.04,0.198
	c0.119-0.119,0.376-0.396,0.613-0.653c0.158-0.178,0.297-0.316,0.376-0.396c0.04-0.04,0.059-0.059,0.079-0.079
	c0,0.04-0.02,0.079,0,0.119c-0.059,0.534,0.059,1.068,0.376,1.582c0.198,0.376,0.534,0.751,0.969,1.088
	c0.237,0.158,0.633,0.455,1.562,0.751c0.85,0.257,2.037,0.336,3.243,0.218c0.514-0.059,1.068-0.119,1.602-0.218
	c-0.297,0.178-0.613,0.475-0.87,0.633c-0.554,0.297-1.088,0.949-1.266,1.78c-0.119,0.415-0.178,1.088-0.692,2.057
	c-0.218,0.415-0.613,0.989-1.008,1.384c-0.396,0.415-0.751,0.672-0.751,0.672s-0.435,0.336-1.008,0.613
	c-0.218,0.099-0.475,0.198-0.732,0.277c-0.178,0.059-0.316,0.099-0.475,0.138c-0.198,0.04-0.396,0.079-0.534,0.099
	c-0.831,0.099-1.226,0.04-1.463,0.02c-1.424-0.178-2.294-0.297-3.441-0.949c0.929,0.89,1.701,1.582,3.342,1.819
	c0.277,0.02,0.732,0.099,1.661,0c0.099,0,0.218-0.02,0.316-0.039c0,0.099-0.02,0.158-0.02,0.257c-0.02,0.198-0.04,0.514-0.079,0.89
	c-0.02,0.198-0.059,0.395-0.079,0.633c-0.138,1.167-0.395,2.828-0.771,4.291c-1.404,6.13-4.963,12.932-10.026,17.876
	c-2.511,2.492-5.339,4.528-8.187,5.972c-2.828,1.444-5.655,2.333-8.068,2.887c-1.206,0.257-2.333,0.475-3.322,0.573
	c-0.989,0.158-1.859,0.198-2.571,0.237c-1.424,0.099-2.215,0.04-2.215,0.04s-0.198,0-0.593-0.02c-0.376,0-0.929,0.02-1.641-0.079
	c-1.404-0.119-3.461-0.336-5.853-0.989c-2.373-0.653-5.161-1.641-7.85-3.342c-1.364-0.85-2.63-1.799-4.074-2.907
	c-1.424-1.107-3.461-1.799-5.359-1.661c-3.896,0.158-7.178,2.314-10.52,2.848c-1.641,0.277-3.362,0.138-4.726-0.554
	c-0.653-0.356-1.266-0.85-1.562-1.384c-0.336-0.573-0.554-1.444-0.653-1.997c-0.138-0.89-0.138-1.661-0.198-2.057
	c0.059,0.02,0.099,0.04,0.158,0.059c0.079,0.04,0.138,0.079,0.218,0.119c0.059,0.02,0.119,0.04,0.178,0.079
	c0.04,0.02,0.079,0.02,0.119,0.04c0.218,0.079,0.514,0.178,0.949,0.198c0.336,0.02,0.732-0.02,1.147-0.158
	c0.02,0,0.059,0,0.079-0.02c0.178-0.079,0.376-0.158,0.554-0.257c1.127-0.534,2.294-2.057,2.294-2.057s0.336-0.415,0.751-0.929
	c0.415-0.494,0.91-1.048,1.226-1.364c0.336-0.356,0.593-0.593,0.791-0.751c0.158-0.138,0.277-0.218,0.356-0.297
	c0.89-0.692,1.463-1.206,2.116-1.74l-0.178-0.297c-0.831,0.257-1.562,0.593-2.511,1.285C10.43,71.723,10.074,72,9.342,72.574
	c-0.356,0.297-0.949,0.831-1.424,1.325c-0.237,0.237-0.435,0.475-0.593,0.653c-0.138,0.158-0.237,0.257-0.237,0.257
	S6.811,75.144,6.416,75.5c-0.395,0.376-0.91,0.771-1.266,0.949c-0.435,0.217-0.771,0.277-1.048,0.237
	c-0.257,0-0.455-0.079-0.613-0.138c-0.297-0.119-0.573-0.257-0.85-0.396c-0.059-0.04-0.119-0.059-0.178-0.099H2.401
	c-0.198-0.119-0.395-0.198-0.593-0.277c-0.02,0-0.04,0-0.059-0.02c-0.198,0.297-0.336,0.633-0.415,1.008
	c-0.079,0.257-0.138,0.494-0.178,0.771c-0.079,0.435-0.138,1.345,0.059,2.412c0.099,0.653,0.356,1.661,0.811,2.452
	c0.534,0.91,1.325,1.483,2.175,1.918c1.72,0.87,3.698,0.989,5.557,0.672c3.718-0.672,6.921-2.768,10.342-2.848
	c1.701-0.099,3.223,0.396,4.548,1.404c1.305,1.008,2.749,2.096,4.133,2.966c2.828,1.78,5.735,2.808,8.226,3.48
	c2.492,0.692,4.627,0.89,6.091,1.028c0.732,0.079,1.325,0.059,1.701,0.079c0.396,0,0.613,0.02,0.613,0.02s0.831,0.059,2.314-0.059
	c0.732-0.04,1.622-0.079,2.65-0.237c1.048-0.119,2.195-0.336,3.461-0.613c2.492-0.593,5.418-1.523,8.365-3.026
	c2.946-1.503,5.893-3.619,8.463-6.209c2.571-2.61,4.845-5.616,6.526-8.839s2.828-6.585,3.5-9.729
	c0.198-0.791,0.277-1.562,0.415-2.333c0.059-0.376,0.119-0.751,0.138-1.107c0.04-0.336,0.059-0.653,0.099-0.969
	c0.02-0.237,0.04-0.455,0.059-0.653c0.02-0.396,0-0.712,0-0.91c0.02-0.158,0-0.297,0-0.435c0.376-0.099,0.751-0.218,1.088-0.396
	c0.672-0.297,1.167-0.672,1.167-0.672s0.415-0.297,0.89-0.751c0.455-0.455,0.929-1.107,1.206-1.602
	c0.613-1.127,0.692-1.958,0.791-2.274c0.336-1.266,1.305-2.155,2.314-3.026c0.336-0.138,0.672-0.316,0.969-0.534
	c0.573-0.396,0.989-1.068,1.107-1.661c0.158-0.613,0.138-1.107,0.138-1.503c-0.02-0.791-0.04-1.285-0.04-1.285s0-0.415-0.099-1.107
	c-0.099-0.692-0.277-1.681-0.831-2.709c-0.514-1.048-1.622-1.918-2.63-2.412c-0.989-0.514-1.958-1.008-2.749-1.424
	c-0.534-0.277-0.969-0.494-1.305-0.672c0.04-0.376,0.158-0.91,0.435-1.681c0.376-0.969,1.206-2.274,1.879-3.381
	c0.653-1.107,1.226-1.938,1.226-1.938s0.672-0.989,1.503-2.175s1.859-2.551,2.492-3.362c0.059-0.079,0.119-0.158,0.178-0.237
	c0.435-0.554,0.653-0.831,0.811-1.008c0.158-0.218,0.297-0.415,0.435-0.613c0.178-0.237,0.336-0.494,0.494-0.712
	c0.138,0.059,0.297,0.099,0.455,0.138C92.158,18.55,91.446,17.858,91.011,17.284z M91.287,19.657
	c-0.178,0.198-0.455,0.554-1.028,1.246c-0.633,0.811-1.681,2.175-2.531,3.362c-0.85,1.206-1.542,2.195-1.542,2.195
	s-0.573,0.831-1.305,1.918c-0.712,1.068-1.582,2.393-2.037,3.5c-0.277,0.593-0.415,1.088-0.514,1.503
	c-0.415-0.237-0.771-0.475-1.068-0.712c-0.059-0.04-0.119-0.099-0.178-0.158c-0.079-0.04-0.158-0.119-0.218-0.198
	c-0.178-0.178-0.297-0.396-0.316-0.692c0-0.059,0-0.119,0.02-0.158c0-0.04,0.02-0.059,0.02-0.119c0,0,0,0-0.02,0
	c0-0.02,0-0.02,0-0.02h0.02c0.455-0.336,0.89-0.751,1.364-1.266c0.218-0.237,0.613-0.692,1.206-1.384
	c0.119-0.119,0.218-0.237,0.336-0.376c1.167-1.345,3.164-3.876,3.164-3.876s2.116-2.709,3.124-4.113
	c0.059-0.079,0.119-0.158,0.178-0.237c0.514-0.751,0.751-1.107,0.91-1.325c0.02-0.02,0.02-0.04,0.04-0.059
	c0.218,0.218,0.475,0.396,0.732,0.554C91.525,19.38,91.406,19.499,91.287,19.657z"/>
<g>
	<path class="st9" d="M20.001,55.488c-0.573-0.376-1.068-0.791-1.483-1.266c-1.424,1.206-2.749,2.511-3.737,4.093
		c-0.969,1.602-1.523,3.5-1.325,5.319c0.099,0.198,0.218,0.395,0.336,0.593c0.771,1.226,1.78,2.353,2.946,3.302
		c-0.02-0.079-0.04-0.138-0.059-0.218c-0.85-4.172,0.593-8.721,3.698-11.608C20.238,55.647,20.119,55.568,20.001,55.488z"/>
	<path class="st9" d="M26.071,44.553c0.257-0.415,0.119-1.048-0.119-1.463c-0.158-0.237-0.396-0.494-0.712-0.554
		c-0.573,0.514-1.523,0.573-2.175,0.138c-0.02,0.119-0.02,0.218,0,0.336c0,0.198,0.04,0.376,0.099,0.554
		c0.079,0.277,0.218,0.554,0.415,0.751c0.138,0.178,0.455,0.336,0.494,0.336c0.04,0.02,0.099,0.059,0.138,0.059v0.02
		C25.34,45.305,25.992,44.731,26.071,44.553z"/>
	<path class="st9" d="M30.046,32.352c-0.297-0.02-0.613-0.02-0.929,0.02c-0.613,0.811-0.831,1.918-0.593,2.907
		c0.396,0.099,0.771,0.218,1.147,0.376c0.554,0.237,1.088,0.554,1.562,0.91c0.534-1.444,1.622-2.689,3.006-3.381
		C32.834,32.629,31.391,32.352,30.046,32.352z"/>
	<path class="st9" d="M44.679,42.418l-0.079,0.04c0.831,1.819,1.424,3.777,1.74,5.814c9.531-3.026,11.37-7.158,11.706-8.997
		c-0.85-1.167-1.799-2.353-2.848-3.5C55.278,37.217,54.349,40.618,44.679,42.418z"/>
	<path class="st9" d="M42.326,38.502c8.108-1.76,9.769-4.133,10.065-5.398c-1.325-1.107-2.768-2.096-4.311-2.946
		c-0.751,0.89-2.828,2.848-8.206,5.438C40.764,36.465,41.594,37.454,42.326,38.502z"/>
	<path class="st9" d="M29.354,40.084c0.198,0.198,0.356,0.435,0.475,0.672c0.336,0.554,0.514,1.186,0.573,1.819
		c1.107-0.356,2.136-0.989,2.946-1.819c-0.138-0.277-0.297-0.554-0.455-0.831c-0.356-0.613-0.811-1.167-1.325-1.661
		C30.718,38.72,29.967,39.333,29.354,40.084z"/>
	<path class="st9" d="M15.729,46.076c-0.02-0.435,0-0.87,0.04-1.246c0-0.099,0.02-0.178,0.02-0.277
		c0.059-0.593,0.158-1.147,0.237-1.622c-1.088,0.396-2.412-0.059-3.085-1.008c-0.198,0.415-0.376,0.85-0.554,1.305
		c-0.356,0.929-0.672,1.898-0.929,2.927C12.704,47.005,14.503,46.985,15.729,46.076z"/>
	<path class="st9" d="M43.137,28.121c-1.997-0.593-4.034-0.91-5.992-0.989c-1.938,0.87-3.619,2.274-4.766,4.034
		c-0.02,0.04-0.059,0.079-0.079,0.119c1.424,0.316,2.848,0.87,4.192,1.681C37.916,30.592,40.487,28.971,43.137,28.121z"/>
	<path class="st9" d="M17.311,39.135c0,0,0.02-0.02,0.02-0.04c0.257-0.514,0.613-1.226,1.147-2.017
		c0.178-0.257,0.376-0.554,0.613-0.831c0.119-0.138,0.237-0.277,0.376-0.415l-2.274-0.455c-0.336,0.376-0.672,0.771-1.028,1.206
		c-0.119,0.158-0.237,0.316-0.376,0.475C15.907,37.949,16.5,38.779,17.311,39.135z"/>
	<path class="st9" d="M27.871,54.658c-0.89-0.455-1.641-1.186-2.076-2.096c-0.494-1.028-0.593-2.234-0.297-3.322
		c-0.712,0.218-1.463,0.336-2.234,0.277c-0.732,1.167-1.127,2.531-1.186,3.915c-0.02,0.613,0.138,1.325,0.475,1.799
		C24.252,55.548,26.289,55.35,27.871,54.658z"/>
	<path class="st9" d="M44.62,57.723c-2.274,0.87-4.924,0.831-7.158-0.138c-2.274-0.969-4.113-2.847-5.042-5.122
		c-0.791,0.989-1.72,1.819-2.749,2.472c0.099,3.026,1.384,5.992,3.54,8.127c1.641,1.622,3.896,2.768,6.15,2.571
		c1.977-1.799,3.599-3.994,4.627-6.348C44.224,58.771,44.442,58.257,44.62,57.723z"/>
	<path class="st9" d="M16.184,49.754c-0.059-0.198-0.099-0.415-0.138-0.613c-1.503,1.266-3.421,1.997-5.359,2.037
		c0.059,0.455,0.099,0.969,0.138,1.562c0.02,0.218,0.04,0.534,0.059,0.949c0.02,0.198,0.02,0.415,0.04,0.653l0.079,0.771
		l0.119,1.028c0.04,0.217,0.059,0.435,0.119,0.653c1.661-1.879,3.619-3.52,5.735-4.904C16.619,51.178,16.382,50.446,16.184,49.754z"
		/>
	<path class="st9" d="M24.331,36.841c-0.534,0.257-1.048,0.573-1.503,0.969c-0.039,0.791,0.257,1.582,0.811,2.116
		c0.751-0.672,1.76-1.048,2.788-1.068c-0.079-0.87,0.119-1.74,0.554-2.492c-0.02,0-0.04,0-0.059,0
		C26.17,36.406,25.023,36.505,24.331,36.841z"/>
	<path class="st9" d="M29.433,50.169c0.89,0.573,2.037,0.751,3.065,0.475c0.415-0.633,0.771-1.305,1.048-2.037
		c0.475-1.167,0.732-2.452,0.732-3.757c-0.653,0.949-1.859,1.542-3.026,1.701c-0.573,0.079-1.266-0.02-1.701-0.356
		c-0.435,0.732-1.048,1.364-1.72,1.839C28.088,48.904,28.662,49.655,29.433,50.169z"/>
	<path class="st9" d="M21.345,49.002c-0.573-0.277-1.068-0.732-1.404-1.246c-0.87,0.771-1.78,1.542-2.65,2.314v0.02
		c0.356,1.127,0.929,2.314,1.819,3.263C19.368,51.712,20.179,50.189,21.345,49.002z"/>
	<path class="st9" d="M24.964,40.46v0.02c-0.099,0.554,0.277,1.285,0.831,1.602c0.119,0,0.218,0.02,0.336,0.059
		c0.435-0.573,0.811-1.186,1.107-1.859c-0.02-0.02-0.04-0.02-0.059-0.02C26.546,40.104,25.715,40.183,24.964,40.46z"/>
	<path class="st9" d="M26.032,31.482c0.613-0.119,1.266-0.297,1.918-0.396c0.396-1.246,1.147-2.373,2.136-3.223
		c-0.732,0.178-1.424,0.376-2.057,0.593c-1.859,0.613-3.342,1.305-4.429,1.898c-0.277,0.692-0.277,1.483,0.02,2.175
		C24.351,32.135,25.201,31.858,26.032,31.482z"/>
	<path class="st9" d="M26.111,45.799c0.04,0.415,0.277,0.831,0.613,1.088c0.079,0.059,0.158,0.099,0.237,0.119
		c1.206-0.85,2.057-2.155,2.136-3.559c0-0.02,0-0.02,0-0.04c-0.158,0.119-0.336,0.178-0.514,0.218
		c-0.396,0.079-0.771,0.059-1.167-0.04c0.079,0.435-0.02,0.929-0.297,1.345C26.961,45.206,26.605,45.562,26.111,45.799z"/>
	<path class="st9" d="M24.114,48.132v-0.02c-0.099-0.732,0.059-1.483,0.415-2.136c-0.079,0-0.178-0.039-0.277-0.059
		c-0.02,0-0.297-0.099-0.494-0.218c-0.218-0.138-0.415-0.297-0.573-0.494c-0.079-0.079-0.138-0.158-0.198-0.237
		c-0.672,0.751-1.483,1.404-2.373,1.938c0.316,0.573,0.85,0.949,1.503,1.127C22.71,48.211,23.402,48.231,24.114,48.132z"/>
	<path class="st9" d="M21.642,37.415c0.712-0.732,1.582-1.345,2.531-1.799c0.138-0.059,0.277-0.119,0.415-0.158
		c-0.079-0.138-0.119-0.316-0.119-0.455c-0.02-0.554,0.119-1.127,0.396-1.622c-0.554,0.198-1.088,0.396-1.483,0.672
		c-0.732,0.534-1.523,0.949-2.096,1.483c-0.198,0.158-0.376,0.316-0.534,0.494c0,0.099,0.02,0.218,0.04,0.316
		C20.93,36.802,21.246,37.197,21.642,37.415z"/>
	<path class="st9" d="M17.746,41.231c-0.059-0.04-0.099-0.079-0.138-0.099c-0.059,0.158-0.119,0.297-0.158,0.396
		c-0.04,0.059-0.059,0.099-0.079,0.158c-0.04,0.099-0.059,0.198-0.099,0.297c-0.178,0.435-0.297,0.989-0.396,1.641
		c-0.04,0.316-0.099,0.672-0.138,1.048c-0.02,0.198-0.04,0.395-0.059,0.593c0.751,0.218,1.602,0.079,2.235-0.376
		c0-0.04-0.02-0.099-0.02-0.138c-0.079-1.008,0-2.017,0.257-2.946C18.715,41.725,18.142,41.488,17.746,41.231z"/>
	<path class="st9" d="M39.617,52.147c1.879,0.119,3.698-0.534,5.418-1.305c0.198-0.099,0.435-0.237,0.613-0.396
		c0-0.237-0.02-0.475-0.04-0.712c-0.198-2.195-0.791-4.331-1.622-6.269c-2.076,2.492-5.754,3.559-8.819,2.452
		c-0.02,0-0.02,0-0.04-0.02c-0.079,1.107-0.336,2.195-0.751,3.203c-0.02,0.04-0.04,0.099-0.059,0.138
		C35.543,50.921,37.541,52.048,39.617,52.147z"/>
	<path class="st9" d="M27.634,65.791c-1.266-2.946-1.701-6.229-1.266-9.393c-1.107,0.297-2.274,0.356-3.362,0.218
		c-1.72,2.63-1.997,6.071-1.621,9.215c0.217,1.799,0.751,3.718,2.017,4.865c0.435,0.099,0.89,0.178,1.345,0.218
		c1.167,0.138,2.353,0.119,3.54-0.04c1.226-0.119,2.452-0.396,3.638-0.791c-0.85-0.158-1.621-0.593-2.274-1.186
		C28.741,68.045,28.108,66.938,27.634,65.791z"/>
	<path class="st9" d="M20.02,44.355c0.554,0.059,1.107-0.218,1.582-0.534c0.257-0.158,0.494-0.336,0.751-0.494
		c-0.059-0.475-0.059-0.949,0.079-1.404c-0.732,0.158-1.562-0.178-2.037-0.751c-0.415,1.008-0.613,2.076-0.573,3.144h0.02
		C19.902,44.336,19.961,44.355,20.02,44.355z"/>
	<path class="st9" d="M62.872,47.223c-0.336,0-0.87-1.364-0.989-1.602c-0.415-0.751-0.831-1.503-1.206-2.274
		c-0.158-0.257-0.316-0.554-0.494-0.85c0,2.571-1.325,8.978-13.941,12.636c-0.297,1.602-0.791,3.184-1.503,4.667
		c-1.048,2.353-2.571,4.528-4.429,6.367c17.046-3.441,21.613-15.127,22.661-18.944C62.931,47.223,62.911,47.223,62.872,47.223z"/>
	<path class="st9" d="M40.942,38.384c-0.91-1.167-1.938-2.195-3.025-3.065c-1.542,1.107-3.045,2.314-4.489,3.579
		c0.079,0.119,0.158,0.218,0.218,0.336c0.138,0.237,0.277,0.475,0.415,0.712c0.316,0.672,0.573,1.364,0.771,2.057
		C37.224,41.686,39.498,40.361,40.942,38.384z"/>
</g>
<circle cx="76.216" cy="13.823" r="2.04"/>
<ellipse cx="94.285" cy="14.777" rx="1.573" ry="1.677"/>
<circle class="st10" cx="75.725" cy="13.036" r="0.615"/>
<ellipse class="st10" cx="93.972" cy="14.132" rx="0.49" ry="0.516"/>
</svg>
