<?xml version="1.0" encoding="utf-8"?>
<!-- Generator: Adobe Illustrator 19.2.0, SVG Export Plug-In . SVG Version: 6.00 Build 0)  -->
<svg version="1.1" id="Layer_3" xmlns="http://www.w3.org/2000/svg" xmlns:xlink="http://www.w3.org/1999/xlink" x="0px" y="0px"
	 viewBox="0 0 100 100" style="enable-background:new 0 0 100 100;" xml:space="preserve">
<style type="text/css">
	.st0{fill:#4D4D4D;stroke:#4D4D4D;stroke-width:0.04;stroke-miterlimit:10;}
	.st1{fill:#999999;stroke:#999999;stroke-width:0.04;stroke-miterlimit:10;}
	.st2{fill:#BDF9F6;stroke:#BDF9F6;stroke-width:0.04;stroke-miterlimit:10;}
	.st3{fill:#6E419E;stroke:#6E419E;stroke-width:0.04;stroke-miterlimit:10;}
	.st4{fill:#808080;stroke:#808080;stroke-width:0.04;stroke-miterlimit:10;}
	.st5{fill:#333333;stroke:#333333;stroke-width:0.04;stroke-miterlimit:10;}
	.st6{fill:#666666;stroke:#666666;stroke-width:0.05;stroke-miterlimit:10;}
	.st7{fill:#FCF8DE;stroke:#FCF8DE;stroke-width:0.04;stroke-miterlimit:10;}
	.st8{fill:#937A64;stroke:#937A64;stroke-width:0.04;stroke-miterlimit:10;}
	.st9{fill:#8550B2;stroke:#8550B2;stroke-width:0.04;stroke-miterlimit:10;}
	.st10{fill:#662D91;stroke:#662D91;stroke-width:0.04;stroke-miterlimit:10;}
	.st11{fill:#754C24;stroke:#754C24;stroke-width:0.04;stroke-miterlimit:10;}
	.st12{fill:#755696;stroke:#755696;stroke-width:0.04;stroke-miterlimit:10;}
	.st13{fill:#5E4382;stroke:#5E4382;stroke-width:0.04;stroke-miterlimit:10;}
	.st14{fill:#430D72;stroke:#430D72;stroke-width:0.04;stroke-miterlimit:10;}
	.st15{fill:#202020;stroke:#202020;stroke-width:0.04;stroke-miterlimit:10;}
	.st16{fill:#0071BC;stroke:#0071BC;stroke-width:0.04;stroke-miterlimit:10;}
</style>
<path d="M58.837,32.825c1.273-0.594,1.155,0.697,1.155,0.697l-0.167,0.329c0,0-0.565,0.426-0.954,0.348
	c-0.414-0.065,0,0-0.262-0.481C58.347,33.237,58.355,33.049,58.837,32.825z"/>
<g>
	<path class="st0" d="M65.632,22.821c-0.114-1.097-0.558-2.362-1.406-3.341c-0.849-0.979-2.066-1.687-3.332-1.819
		c-1.266-0.119-2.618,0.301-3.969,0.272c-1.338-0.005-2.531-0.251-3.5-0.477c-0.944-0.252-1.748-0.432-2.289-0.582
		c-0.553-0.124-0.868-0.204-0.868-0.204s-0.289-0.068-0.842-0.167c-0.301-0.055-0.703-0.12-1.167-0.159l-0.013,0
		c-0.338-0.029-0.713-0.033-1.113-0.023c-1.237,0.018-2.828,0.406-4.295,1.242l0,0.013c-0.752,0.418-1.476,0.974-2.122,1.652
		c-1.928,1.947-2.781,4.893-2.56,7.288c0.035,0.412,0.108,0.847,0.192,1.22c0.029,0.149,0.058,0.311,0.086,0.435
		c0.054,0.161,0.095,0.31,0.136,0.434c0.081,0.248,0.174,0.458,0.214,0.595c0.273,0.443,0.507,0.788,0.801,1.043
		c0.102,0.098,0.242,0.182,0.381,0.253c-0.053-0.636-0.033-1.374,0.122-2.191c0.279-1.357,0.917-2.898,1.983-4.299
		c1.053-1.413,2.548-2.662,4.328-3.493c1.754-0.855,3.835-1.144,5.739-0.99c1.892,0.179,3.701,0.535,5.326,1.045
		c0.781,0.244,1.628,0.61,2.21,0.921c0.14,0.084,0.279,0.168,0.406,0.24c0.266,0.144,0.47,0.301,0.597,0.385
		c0.955,0.714,1.284,1.406,1.668,2.272c-0.026-0.024-0.039-0.049-0.064-0.061c0.053,0.124,0.107,0.272,0.147,0.396
		c0.12,0.31,0.201,0.57,0.201,0.57s0.057,0.299,0.127,0.609c0.056,0.261,0.075,0.511,0.079,0.673
		c0.025-0.001,0.037-0.001,0.063-0.002c0.176,0.033,0.124,1.879,0.274,1.888c0.053,1.066-0.151,1.685,0,1.706
		c0.477,0.101,0.126,0.285,0.48,0.427c1.6-2.613,1.867-4.197,1.865-4.272c0,0,0.024-0.051,0.048-0.089l0-0.012
		c-0.002-0.575,0.011-1.088,0.093-1.815C65.676,24.12,65.712,23.531,65.632,22.821z"/>
	<path class="st0" d="M62.942,29.899c0.141,0.647,0.154,1.209-0.016,1.926c0.231-0.281,0.413-0.485,0.413-0.485
		s0.265-0.394,0.542-0.863c0.263-0.481,0.488-1,0.559-1.189c-0.297,0.12-0.656,0.279-1.052,0.451
		C63.239,29.805,63.09,29.846,62.942,29.899z"/>
	<path class="st0" d="M48.178,12.97c0.534-0.151,1.081-0.289,1.578-0.388c0.548-0.101,1.058-0.176,1.433-0.21
		c0.349-0.046,0.573-0.076,0.573-0.076s0.275-0.007,0.699-0.03c0.411-0.048,1-0.024,1.662-0.016c0.627,0.06,1.328,0.105,1.968,0.202
		c0.251,0.044,0.489,0.076,0.716,0.133c0.093-2.353,0.323-4.696,0.692-7.018c0.173-1.117,0.383-2.26,0.832-3.296
		c-1.044-0.25-2.095-0.312-2.96-0.403c-1.878-0.129-3.076-0.025-3.076-0.025s-1.212,0.017-2.989,0.448
		c-0.683,0.179-1.477,0.436-2.256,0.805c-0.248,0.094-0.507,0.225-0.741,0.356c-0.222,0.105-0.419,0.235-0.641,0.378
		c1.115,1.623,1.786,3.544,2.134,5.499C48.018,10.536,48.123,11.746,48.178,12.97z"/>
</g>
<path d="M58.131,34.63c0.019,0.25-0.037,0.513-0.147,0.654c-0.303,0.407-0.307,0.245-0.723,0.093
	c-0.429-0.152-0.327-0.067-0.601-0.56c-0.224-0.47,0,0,0.151-0.479c0.024-0.051,0.047-0.114,0.059-0.151
	C57.286,34.325,57.715,34.465,58.131,34.63z"/>
<path d="M57.226,33.914c0.581-0.277,0.881,0.229,0.905,0.716c-0.417-0.165-0.845-0.304-1.261-0.444
	C56.951,33.896,56.868,34.073,57.226,33.914z"/>
<path class="st1" d="M56.775,13.323c-0.239-0.044-0.503-0.1-0.779-0.144c-0.628-0.11-1.291-0.144-1.917-0.191
	c-0.613-0.01-1.188-0.021-1.587,0.014c-0.412,0.023-0.662,0.041-0.662,0.041s-0.224,0.03-0.548,0.076
	c-0.362,0.021-0.848,0.096-1.37,0.208c-0.534,0.126-1.119,0.265-1.69,0.429c0.015,0.625,0.031,1.262,0.021,1.9
	c0.113,0.01,0.213,0.007,0.3,0.018l0,0.013c0.388,0.028,0.726,0.057,0.99,0.101c0.59,0.098,0.879,0.166,0.879,0.166
	s0.326,0.055,0.892,0.178c0.553,0.124,1.333,0.318,2.314,0.544c0.918,0.215,2.022,0.401,3.198,0.397
	C56.761,15.836,56.755,14.573,56.775,13.323z"/>
<path d="M54.778,23.71c1.216,0.133,1.08,1.211,0.931,1.778c-0.022,0.113-0.069,0.239-0.104,0.353
	c-0.151,0.466-0.402,0.947-0.908,1.222c-0.543,0.276-0.988-0.514-1.094-1.286c-0.017-0.175-0.021-0.337-0.012-0.475
	C53.656,24.388,54.452,23.681,54.778,23.71z"/>
<path d="M55.958,35.733c0.11,0.397-0.399,0.572-0.399,0.572s0,0-0.222,0.105c-0.248,0.094-0.337,0.008-0.831-0.242
	c-0.088-0.035-0.165-0.084-0.19-0.108c0.545-0.201,1.038-0.513,1.491-0.899C55.899,35.359,55.929,35.571,55.958,35.733z"/>
<path d="M55.806,35.149l0,0.012c-0.453,0.386-0.946,0.698-1.491,0.899c-0.179-0.146,0.02-0.188,0.02-0.188s0.245-0.706,0.467-0.849
	C55.395,34.671,55.661,34.852,55.806,35.149z"/>
<path d="M53.091,35.065c0.637-0.016,0.737,0.507,0.704,1.17l0,0.012c-0.434,0.136-0.882,0.222-1.357,0.246l-0.012,0
	c-0.013-0.012-0.025-0.012-0.025-0.012s-0.012-0.5,0.067-0.827C52.535,35.329,52.692,35.075,53.091,35.065z"/>
<path d="M53.795,36.248c-0.012,0.038-0.011,0.075-0.01,0.1c-0.059,0.677-1.106,0.252-1.347,0.145
	C52.913,36.469,53.361,36.384,53.795,36.248z"/>
<path d="M51.442,23.304c1.61-0.127,1.008,1.863,0.784,2.431c-0.071,0.177-0.204,0.33-0.352,0.446
	c-0.293,0.27-0.715,0.417-0.926,0.473c-0.286,0.082-0.864-0.066-0.989-1.101c-0.042-0.199-0.047-0.399-0.041-0.649
	C49.953,23.253,51.442,23.304,51.442,23.304z"/>
<path d="M51.879,35.095c0.169,0.246,0.028,1.137,0.028,1.137l-0.443,0.286c-0.162,0.004-0.325-0.005-0.501-0.038
	c-0.177-0.071-0.367-0.179-0.447-0.377c-0.172-0.396-0.076-0.561,0.216-0.893c0.329-0.333,0.492-0.337,0.74-0.418
	C51.472,34.792,51.724,34.861,51.879,35.095z"/>
<path d="M51.464,36.517l-0.111,0.078c0,0-0.201-0.033-0.39-0.116C51.139,36.513,51.302,36.521,51.464,36.517z"/>
<path d="M51.761,74.352c0.004,0.162-0.042,0.314-0.126,0.453c-0.23,0.318-0.686,0.567-1.205,0.817
	c-0.729,0.343-1.395-0.304-1.587-1.524c0-0.012,0-0.012-0.001-0.025c-0.167-1.209,1.407-1.784,1.737-1.555
	C51.163,72.904,51.747,73.777,51.761,74.352z"/>
<path d="M51.071,49.128l-0.6,2.052c0,0-0.074,0.052-0.16,0.091c0.135-0.603,0.251-0.981,0.251-0.981s0.125-0.516,0.368-1.297
	C51.02,49.067,51.071,49.128,51.071,49.128z"/>
<path d="M50.713,66.226c0.66,0.421,0.713,1.045,0.673,1.471c-0.022,0.113-0.057,0.214-0.117,0.328
	c-0.19,0.43-0.641,0.891-1.084,1.164c-0.567,0.339-1.532-0.263-1.5-1.551c0-0.012-0.001-0.037-0.001-0.05
	c0.009-0.638,0.324-1.058,0.681-1.317C49.801,66.274,50.263,66.262,50.713,66.226z"/>
<path d="M51.092,59.716c0.103,0.123,0.007,0.287-0.126,0.478c-0.219-0.27-0.388-0.541-0.51-0.913
	c-0.053-0.124-0.133-0.347-0.216-0.657c0.051,0.024,0.089,0.06,0.089,0.06S50.923,59.483,51.092,59.716z"/>
<path d="M50.966,60.195l0,0.012c-0.048,0.076-0.109,0.14-0.158,0.204c-0.061,0.076-0.122,0.14-0.182,0.217
	c-0.242,0.318-0.555,0.326-0.555,0.326s-0.124,0.028-0.299,0.032c-0.175,0.004-0.363-0.016-0.527-0.087
	c-0.316-0.142-0.172-0.396-0.506-1.275c-0.359-0.891,0.152-0.416,0.453-0.911c0.253-0.394,0.846-0.183,1.048-0.088
	c0.083,0.311,0.163,0.534,0.216,0.657C50.577,59.654,50.747,59.925,50.966,60.195z"/>
<path d="M50.93,48.994c-0.244,0.781-0.368,1.297-0.368,1.297s-0.116,0.378-0.251,0.981c-0.161,0.079-0.42,0.198-0.635,0.09
	c-0.328-0.142-0.271-0.356-0.495-0.813c-0.001-0.025-0.014-0.05-0.027-0.074c-0.04-0.087-0.079-0.173-0.081-0.261
	c-0.009-0.375,0.395-0.735,0.771-1.206C50.195,48.587,50.664,48.826,50.93,48.994z"/>
<path d="M50.158,34.736c0.441,0.639-0.08,0.327-0.236,0.568c-0.156,0.254-0.975,0.024-0.975,0.024L48.45,34.94
	c0,0,0.465-0.911,0.878-0.921C49.328,34.019,49.73,34.097,50.158,34.736z"/>
<path d="M50.713,66.226c-0.449,0.036-0.911,0.047-1.349,0.045c0.344-0.246,0.742-0.331,0.894-0.259
	C50.434,66.071,50.586,66.154,50.713,66.226z"/>
<g>
	<path class="st2" d="M70.891,77.049c-0.11-1.448-0.221-2.382-0.221-2.382s-0.098-0.948-0.283-2.381
		c-0.21-1.433-0.545-3.375-1.339-5.205c-0.795-1.856-2.111-3.536-3.453-4.716c-0.307-0.305-0.677-0.584-0.957-0.777
		c-0.14-0.097-0.267-0.181-0.369-0.266c-0.241-0.157-0.42-0.29-0.559-0.374c-0.85-0.529-1.348-0.955-2.048-1.45l-0.013,0l-0.012,0
		c-1.68,1.854-3.674,3.14-5.357,3.856c-1.261,0.568-2.38,0.833-3.126,1.001c-0.784,0.144-1.233,0.205-1.233,0.205
		s-0.449,0.061-1.234,0.13c-0.787,0.032-1.924,0.047-3.293-0.207c-2.647-0.361-6.038-2.053-8.446-4.92
		c-0.309,0.158-0.63,0.328-1.024,0.55c-0.123,0.078-0.321,0.183-0.542,0.338c-0.11,0.09-0.208,0.18-0.356,0.271
		c-0.295,0.22-0.688,0.517-1.017,0.85c-1.38,1.346-2.785,3.181-3.775,5.143c-1.016,1.925-1.692,3.929-2.056,5.413
		c-0.169,0.767-0.279,1.382-0.368,1.834c-0.077,0.414-0.109,0.665-0.109,0.665s-0.019,0.25-0.07,0.702
		c-0.077,0.427-0.099,1.065-0.13,1.841c-0.004,0.35-0.007,0.725-0.01,1.125c0.005,0.2,0.023,0.437,0.028,0.649
		c0.042,1.212,0.176,2.596,0.51,4.001c0.452,2.139,1.305,4.306,2.22,5.959c0.365,0.629,0.666,1.171,0.834,1.392
		c0.286,0.431,0.519,0.762,0.751,1.057c0.09,0.098,0.192,0.195,0.295,0.305c0.024-0.026,0.024-0.026,0.049-0.039
		c0.209-0.155,0.381-0.284,0.577-0.427c0.788-0.494,1.496-0.699,1.496-0.699s0.842-0.346,1.931-0.272
		c0.551,0.049,1.13,0.198,1.648,0.435c0.481,0.251,0.903,0.616,1.148,0.922c0.489,0.588,0.537,0.987,0.617,1.198
		c0.196,0.883-0.012,1.563-0.412,2.085c0.136-0.066,0.483-0.174,0.909-0.16c0.3-0.007,0.602,0.073,0.817,0.168
		c-0.004-0.175-0.021-0.337-0.025-0.524c0.03-0.301,0.027-0.963,0.568-1.839c0.493-0.812,1.448-1.648,2.348-2.145
		c0.926-0.485,1.722-0.642,1.722-0.642s0.956-0.286,2.122-0.152c0.602,0.085,1.219,0.245,1.775,0.507
		c0.544,0.262,0.977,0.589,1.296,0.856c0.511,0.463,0.719,0.758,0.86,0.929c0.609,0.86,0.726,1.595,0.671,2.396
		c0.219-0.23,0.464-0.449,0.773-0.606c0.628-0.378,1.341-0.395,1.341-0.395s0.698-0.092,1.381,0.229
		c0.694,0.246,1.234,0.883,1.34,1.105c0.233,0.344,0.229,0.657,0.161,0.984c0.051,0.049,0.089,0.073,0.141,0.122l0.089,0.048
		c0.181-0.254,0.449-0.549,0.816-0.895c0.465-0.411,1.217-0.842,1.963-1.023c0.385-0.097,0.735-0.118,1.06-0.126
		c0.162-0.004,0.313,0.017,0.439,0.039c0.012,0,0.012,0,0.012,0s0,0-0.001-0.025c0.033-0.201,0.102-0.44,0.173-0.579
		c0.131-0.278,0.204-0.368,0.204-0.368s0.143-0.279,0.472-0.624c0.329-0.346,0.844-0.746,1.488-1.024
		c0.384-0.159,0.819-0.258,1.255-0.318c0.165-0.404,0.355-0.821,0.656-1.304c0.144-0.254,0.456-0.786,0.765-1.444
		c0.812-1.57,1.512-3.612,1.864-5.609C70.986,80.434,70.989,78.496,70.891,77.049z M64.816,77.609
		c-0.367,0.834-0.773,1.644-1.381,2.334c-0.621,0.69-1.408,1.209-2.222,1.692c-6.373,3.706-14.406,4.426-21.319,1.869
		c-2.536-0.938-5.008-2.366-6.378-4.695c-1.304-2.193-1.446-4.953-0.768-7.407c0.69-2.48,2.111-4.677,3.751-6.63
		c0.474-0.537,1.06-1.126,1.76-1.13c0.45,0.002,0.855,0.217,1.248,0.407c3.038,1.526,6.443,2.256,9.855,2.223
		c0.344-0.246,0.742-0.331,0.894-0.259c0.176,0.058,0.328,0.142,0.455,0.214c3.57-0.237,7.068-1.347,10.109-3.272
		c0.369-0.234,0.763-0.494,1.213-0.492c0.488,0.013,0.908,0.34,1.279,0.669C67.026,66.717,66.889,72.883,64.816,77.609z"/>
	<path class="st2" d="M41.389,32.462c0,0,0.134,0.372,0.537,0.987c0.389,0.591,1.047,1.425,1.993,2.277
		c1.866,1.68,5.195,3.374,8.828,3.16c2.461-0.06,4.783-1.242,6.494-2.846c0.086-0.077,0.171-0.167,0.269-0.232
		c0.708-0.705,1.302-1.482,1.732-2.292c0.348-0.609,0.559-1.164,0.665-1.429c0.011-0.05,0.022-0.113,0.046-0.151
		c0.269-0.769,0.791-2.405,0.154-5.44c-0.004-0.141-0.007-0.301-0.023-0.502c-0.007-0.3-0.064-0.561-0.064-0.561
		s-0.031-0.262-0.126-0.534c-0.069-0.286-0.202-0.583-0.229-0.682c-0.054-0.161-0.032-0.274,0.002-0.438
		c-0.433-0.327-0.878-0.616-1.45-1.002c-0.127-0.084-0.305-0.193-0.533-0.337c-0.127-0.072-0.254-0.144-0.405-0.215
		c-0.544-0.287-1.315-0.593-2.07-0.825c-3.095-0.8-7.131-1.739-10.428-0.059c-1.619,0.752-3.016,1.911-3.985,3.21
		c-0.981,1.299-1.584,2.701-1.804,3.944c-0.245,1.219-0.158,2.254,0.021,2.925C41.18,32.105,41.389,32.462,41.389,32.462z
		 M57.985,35.283c-0.303,0.407-0.307,0.245-0.723,0.093c-0.429-0.152-0.327-0.067-0.601-0.56c-0.224-0.47,0,0,0.151-0.479
		c0.024-0.051,0.047-0.114,0.059-0.151c0.081-0.289-0.003-0.112,0.356-0.271c0.581-0.277,0.881,0.229,0.905,0.716
		C58.15,34.879,58.094,35.143,57.985,35.283z M59.992,33.522l-0.167,0.329c0,0-0.565,0.426-0.954,0.348
		c-0.414-0.065,0,0-0.262-0.481c-0.262-0.481-0.254-0.669,0.228-0.893C60.111,32.231,59.992,33.522,59.992,33.522z M52.787,22.046
		c2.488,0.514,4.149,2.499,4.869,4.857c0.027,0.004,0.049,0.005,0.076,0.008c-0.018,0.002-0.032,0.003-0.05,0.006
		c-0.05,0.014,0.8,2.666,0.32,4.372c-0.084,0.52-0.107,1.759-2.195,3.86l0,0.013c0.092,0.198,0.122,0.41,0.151,0.571
		c0.11,0.397-0.399,0.572-0.399,0.572s0,0-0.222,0.105c-0.248,0.094-0.337,0.008-0.831-0.242c-0.088-0.035-0.165-0.083-0.19-0.108
		c-0.161,0.079-0.346,0.146-0.521,0.175l0,0.013c-0.012,0.038-0.011,0.075-0.01,0.1c-0.059,0.677-1.107,0.252-1.347,0.145l-0.013,0
		c-0.311,0.045-0.636,0.053-0.962,0.023l-0.111,0.078c0,0-0.201-0.033-0.39-0.116c-3.872-0.393-7.875-3.546-7.725-7.663
		C43.421,23.999,48.326,21.117,52.787,22.046z"/>
	<path class="st2" d="M50.114,27.787c0.608,0.31,1.396-0.159,1.643-0.803c0.094-0.252,0.125-0.516,0.118-0.803
		c-0.293,0.27-0.715,0.417-0.926,0.473c-0.286,0.082-0.864-0.066-0.989-1.101c-0.194,0.242-0.338,0.508-0.405,0.81
		C49.442,26.89,49.62,27.536,50.114,27.787z"/>
	<path class="st2" d="M51.415,47.345c0.22-0.705,0.478-1.424,0.686-2.129c-0.532,0.213-1.143,0.29-1.934,0.147
		c-0.013,0-0.038-0.024-0.051-0.024c-0.309,0.145-0.528,0.375-0.735,0.618c-0.109,0.153-0.205,0.318-0.313,0.495
		c-0.108,0.203-0.202,0.442-0.307,0.72c-0.071,0.177-0.164,0.442-0.237,1.068c-0.076,0.477-0.058,1.227-0.039,1.989l0.587-0.014
		c-0.009-0.375,0.395-0.735,0.771-1.206c0.352-0.421,0.821-0.182,1.087-0.014C51.044,48.516,51.23,47.937,51.415,47.345z"/>
	<path class="st2" d="M51.634,74.805c-0.23,0.318-0.686,0.567-1.205,0.817c-0.729,0.343-1.395-0.304-1.587-1.524
		c0-0.012,0-0.012-0.001-0.025c-0.723,0.593-0.831,1.795-0.251,2.544c0.568,0.749,1.687,0.997,2.553,0.613
		c0.359-0.146,0.703-0.405,0.831-0.77c0.106-0.253,0.099-0.54,0.043-0.801C51.947,75.347,51.815,75.051,51.634,74.805z"/>
	<path class="st2" d="M48.533,70.155c0.155,0.196,0.443,0.239,0.681,0.233c0.914,0.04,1.902-0.459,2.168-1.328
		c0.117-0.34,0.058-0.701-0.113-1.035c-0.19,0.43-0.641,0.891-1.084,1.164c-0.567,0.339-1.532-0.263-1.5-1.551
		c-0.439,0.448-0.431,1.298-0.327,1.983C48.387,69.808,48.417,70.008,48.533,70.155z"/>
	<path class="st2" d="M49.675,51.362c-0.328-0.142-0.271-0.356-0.495-0.813c-0.392,0.347-0.489,0.987-0.215,1.43
		c0.234,0.357,0.701,0.558,1.124,0.485c0.064-0.439,0.154-0.866,0.221-1.193C50.15,51.351,49.891,51.47,49.675,51.362z"/>
	<path class="st2" d="M39.671,58.907c0.064,0.073,0.141,0.147,0.205,0.22c1.066,1.162,2.265,2.133,3.52,2.852
		c1.444,0.79,2.918,1.242,4.173,1.449c0.829,0.155,1.568,0.199,2.193,0.197c0.338,0.004,0.613-0.002,0.862-0.008
		c0.749-0.056,1.16-0.103,1.16-0.103s0.162-0.029,0.46-0.086c0.187-0.03,0.399-0.06,0.672-0.116c0.721-0.18,1.765-0.406,2.939-0.959
		c2.364-0.995,5.323-3.168,6.968-6.483c0.798-1.607,1.291-3.457,1.335-5.258c0.044-1.789-0.35-3.604-0.959-4.99
		c-0.291-0.668-0.579-1.174-0.722-1.433c-0.468-0.751-0.694-1.296-0.985-1.951c-0.083,0.165-0.229,0.331-0.4,0.51
		c-0.464,0.461-1.092,0.827-1.462,1.036c-0.593,0.289-0.903,0.409-1.089,0.477c-0.841,0.358-1.451,0.46-2.124,0.552
		c-0.077,0.452-0.153,0.891-0.243,1.319c-0.045,0.189-0.066,0.377-0.087,0.552c1.262-0.018,2.528-0.387,3.612-1.063
		c0.111-0.078,0.258-0.169,0.409-0.147c0.226,0.019,0.343,0.242,0.424,0.452c0.81,1.943,0.89,4.191,0.201,6.196
		c-0.677,1.967-2.283,3.794-4.317,3.956c0.041,0.137,0.106,0.26,0.172,0.396c0.105,0.222,0.236,0.457,0.379,0.666
		c0.051,0.024,0.076,0.036,0.126,0.034c-0.025,0.001-0.062,0.014-0.087,0.015c-0.137,0.003-0.25,0.019-0.387,0.034
		c-0.698,0.092-1.228,0.392-1.968,0.81c-0.161,0.079-0.407,0.21-0.886,0.597l-0.012,0.013l-0.012,0.013
		c-0.526,0.463-0.865,0.934-1.047,1.151c-0.097,0.14-0.253,0.394-0.579,0.864c-0.061,0.064-0.097,0.14-0.157,0.229c0,0,0,0-0.012,0
		c-0.226-0.057-0.454-0.151-0.632-0.285c-0.128-0.109-0.244-0.257-0.347-0.404c-0.048,0.076-0.109,0.14-0.158,0.204
		c-0.061,0.077-0.122,0.141-0.182,0.217c-0.242,0.318-0.555,0.326-0.555,0.326s-0.124,0.028-0.299,0.032
		c-0.175,0.004-0.363-0.016-0.527-0.087c-0.316-0.142-0.172-0.396-0.506-1.275c-0.359-0.891,0.152-0.416,0.453-0.911
		c0.253-0.394,0.846-0.183,1.048-0.088c-0.081-0.261-0.164-0.584-0.213-1.032c-1.037,0.038-2.091-0.137-3.064-0.55
		c-0.311,0.57-0.54,0.938-0.685,1.129c-0.229,0.343-0.461,0.599-0.692,0.829c-0.11,0.115-0.219,0.23-0.33,0.321
		c-0.111,0.065-0.355,0.296-0.478,0.387c-0.013,0-0.013-0.012-0.013-0.012c-0.025,0.013-0.024,0.026-0.037,0.038
		c-0.392-0.165-0.595-0.286-0.752-0.607c-0.092-0.173-0.354-0.666-0.677-1.109c-0.311-0.43-0.619-0.785-0.619-0.785
		s-0.334-0.354-0.718-0.72c-0.383-0.341-0.879-0.691-1.045-0.8c-0.089-0.073-0.154-0.146-0.23-0.219
		c-0.115-0.11-0.231-0.257-0.347-0.404c-0.013-0.037-0.039-0.049-0.052-0.061c0.05-0.001,0.075-0.002,0.125-0.003
		c0.037-0.026,0.086-0.065,0.11-0.09c0.306-0.258,0.587-0.527,0.94-0.911c-1.3-1.018-2.163-2.56-2.39-4.18
		c-0.229-1.695,0.266-3.469,1.333-4.808c0.327-0.445,0.754-0.856,1.302-0.957c1.17-0.216,2.237,1.008,3.363,1.018
		c0.315-0.395,0.549-0.563,0.671-0.691c0.442-0.348,0.837-0.533,1.247-0.63c-0.559-0.361-0.977-0.589-0.977-0.589
		S45.582,42.936,45,42.65c-0.557-0.299-1.265-0.607-1.782-0.794c-0.795-0.318-1.286-0.456-1.538-0.525
		c-0.49-0.113-0.868-0.204-1.244-0.257c-0.049,0.039-0.098,0.077-0.159,0.129c-0.098,0.077-0.416,0.373-0.57,0.739
		c-0.071,0.164-0.117,0.328-0.127,0.441c-0.012,0.038,0.018,0.212,0.02,0.3c0.027,0.087,0.029,0.149,0.029,0.149s0,0,0.016,0.137
		c-0.012,0-0.148,0.066-0.37,0.197c-0.284,0.144-0.346,0.146-0.507,0.237c-0.296,0.17-0.475,0.499-0.523,0.6
		c-0.059,0.126-0.096,0.177-0.219,0.255c-0.111,0.078-0.258,0.169-0.318,0.308c-0.041-0.124-0.168-0.233-0.259-0.381
		c-0.18,0.317-0.878,1.947-0.878,1.947s-0.177,0.417-0.354,0.871c-0.071,0.164-0.129,0.341-0.2,0.505
		c-0.041,0.376-0.082,0.74-0.085,1.115c-0.22,3.268,1.05,7.175,3.456,9.967C39.478,58.699,39.568,58.797,39.671,58.907z"/>
	<path class="st2" d="M53.973,27.63c0.722,0.14,1.149,0.033,1.642-0.353c0.277-0.419,0.263-0.994-0.01-1.437
		c-0.151,0.466-0.402,0.947-0.908,1.222c-0.543,0.276-0.988-0.514-1.094-1.286c-0.315,0.42-0.375,1.009-0.102,1.453
		C53.63,27.401,53.783,27.522,53.973,27.63z"/>
</g>
<g>
	<path class="st3" d="M60.175,38.48c-0.083-0.336-0.076-0.561-0.08-0.723c0.01-0.6,0.053-0.889-0.054-1.174
		c-1.344,1.295-3.056,2.35-4.931,2.858c0.446,0.339,0.843,0.742,1.109,1.398c1.491-0.386,2.873-1.133,4.035-2.161
		C60.204,38.617,60.189,38.542,60.175,38.48z"/>
	<path class="st3" d="M51.806,39.797c-3.54-0.089-6.656-1.738-8.471-3.407c-0.485-0.401-0.883-0.829-1.218-1.233
		c0,0.013,0.001,0.025-0.012,0.025c-0.061,0.051-0.159,0.141-0.281,0.282c0,0.012,0,0.012,0,0.012
		c1.274,2.532,4.097,3.951,6.876,4.621c0.503,0.113,1.031,0.237,1.402,0.578c0.486,0.463,0.555,1.224,0.596,1.886
		c0.025,0.512,0.038,1.062-0.187,1.542c-0.071,0.152-0.168,0.292-0.303,0.395c0.076,0.036,0.139,0.059,0.177,0.071
		c0.705,0.208,1.246,0.357,1.82,0.318c0.243-0.806,0.45-1.561,0.474-2.099c0.048-0.614,0.003-0.913-0.039-1.074
		C52.471,40.893,52.281,40.298,51.806,39.797z"/>
	<path class="st3" d="M47.409,44.042c-0.369,0.234-0.75,0.531-1.203,0.904c-0.012,0.013-0.049,0.051-0.073,0.064
		c0.728,0.62,1.614,1.086,2.533,1.326c0.387-0.522,0.843-0.796,1.376-1.009c-0.214-0.057-0.516-0.15-1.034-0.375
		C48.59,44.763,47.98,44.391,47.409,44.042z"/>
</g>
<g>
	<path class="st4" d="M59.032,14.63c-0.016-0.162-0.072-0.398-0.104-0.685c0-0.012-0.001-0.05-0.002-0.062
		c-0.088-0.023-0.164-0.046-0.252-0.081c-0.201-0.045-0.466-0.151-1.095-0.311c-0.214-0.045-0.49-0.113-0.804-0.168
		c-0.02,1.251-0.014,2.513,0.041,3.749c0.025-0.001,0.075-0.002,0.1-0.002c0.863,0.029,1.82-0.207,2.856-0.295
		C59.456,16.133,59.205,15.564,59.032,14.63z"/>
	<path class="st4" d="M56.091,12.452c-0.64-0.097-1.341-0.142-1.968-0.202c-0.663-0.009-1.251-0.032-1.662,0.016
		c-0.424,0.023-0.699,0.03-0.699,0.03s-0.224,0.03-0.573,0.076c-0.374,0.034-0.885,0.109-1.433,0.21
		c-0.498,0.1-1.044,0.238-1.578,0.388c0.031,0.262,0.038,0.524,0.044,0.786c0.571-0.164,1.155-0.303,1.69-0.429
		c0.522-0.113,1.008-0.187,1.37-0.208c0.324-0.045,0.548-0.076,0.548-0.076s0.25-0.019,0.662-0.041
		c0.399-0.035,0.974-0.024,1.587-0.014c0.626,0.047,1.29,0.081,1.917,0.191c0.276,0.043,0.54,0.099,0.779,0.144
		c0.019-0.238,0.026-0.488,0.032-0.738C56.58,12.527,56.342,12.496,56.091,12.452z"/>
	<path class="st4" d="M46.587,14.396c-0.075,0.514-0.227,0.931-0.455,1.349c0.336-0.046,0.66-0.091,0.973-0.099
		c0.412-0.023,0.8-0.019,1.138,0.01c0.009-0.638-0.006-1.275-0.021-1.9c-0.558,0.176-1.091,0.389-1.511,0.574
		C46.649,14.345,46.636,14.357,46.587,14.396z"/>
</g>
<path d="M48.565,32.987l-0.076,0.489c0,0-0.215,0.405-0.461,0.574c-0.246,0.181-1.053-0.137-1.155-0.697
	c-0.089-0.573,0.38-0.809,0.955-0.823C47.991,32.526,48.565,32.987,48.565,32.987z"/>
<g>
	<path class="st5" d="M60.787,3.536c-0.167-0.183-0.41-0.39-0.651-0.547c-0.47-0.301-1.025-0.525-1.591-0.661
		c-0.075-0.011-0.139-0.047-0.214-0.057c-0.45,1.036-0.66,2.179-0.832,3.296c-0.368,2.322-0.599,4.665-0.692,7.018
		c0.352,0.079,0.68,0.183,0.956,0.252c0.629,0.172,0.907,0.278,1.096,0.348c-0.036-0.437-0.047-0.924-0.047-1.436
		c0.003-2.425,0.756-5.407,2.049-7.751C60.93,3.746,60.929,3.733,60.787,3.536z"/>
	<path class="st5" d="M45.667,3.83c-0.8,0.507-1.573,1.113-2.254,1.893c-0.194,0.255-0.425,0.498-0.496,0.7
		c-0.069,0.239-0.082,0.227,0.047,0.386l0.79,0.631c0.269,0.256,0.512,0.488,0.757,0.782c0.914,1.065,1.546,2.375,1.849,3.555
		c0.182,0.783,0.26,1.419,0.268,1.756c0,0,0,0,0,0.013c0.458-0.199,0.99-0.399,1.549-0.575c-0.055-1.224-0.159-2.434-0.376-3.641
		C47.454,7.374,46.782,5.453,45.667,3.83z"/>
</g>
<path d="M47.387,31.316c0.335,0.392-0.061,0.564-0.061,0.564s-0.315,0.42-0.8,0.507c-0.51,0.1-0.82-0.305-0.901-0.553
	c-0.093-0.235,0.355-0.809,0.701-0.98C46.326,30.854,47.052,30.912,47.387,31.316z"/>
<path d="M47.091,29.435c0.26,0.406-0.208,0.68-0.619,0.753c-0.41,0.085-0.889-0.041-1.145-0.297
	c-0.268-0.243,0.196-0.692,0.601-0.99C46.432,28.564,46.856,29.041,47.091,29.435z"/>
<g>
	<path class="st6" d="M59.754,14.525c-0.015-0.1-0.019-0.25-0.035-0.399c-0.015-0.087-0.017-0.175-0.044-0.261
		c-0.002-0.1-0.005-0.225-0.008-0.337c-0.215-0.12-0.481-0.226-0.783-0.344l-0.025,0.001c-0.189-0.07-0.467-0.176-1.096-0.348
		c-0.277-0.068-0.604-0.173-0.956-0.252c-0.006,0.25-0.013,0.5-0.032,0.738c0.314,0.055,0.591,0.123,0.804,0.168
		c0.629,0.16,0.894,0.266,1.095,0.311c0.088,0.035,0.164,0.058,0.252,0.081c0,0.013,0.001,0.05,0.002,0.062
		c0.032,0.287,0.088,0.523,0.104,0.685c0.173,0.933,0.424,1.502,0.74,2.145c0.05-0.001,0.112-0.003,0.175-0.004
		C59.879,16.035,59.864,15.435,59.754,14.525z"/>
	<path class="st6" d="M46.629,13.545c-0.075,0.014-0.149,0.054-0.223,0.08c-0.26,0.106-0.483,0.199-0.693,0.292
		c0.032,0.299,0.039,0.587,0.058,0.849c0.02,0.325,0.029,0.662,0.05,1.036c0.1-0.015,0.212-0.03,0.311-0.058
		c0.227-0.418,0.38-0.834,0.455-1.349c0.049-0.039,0.061-0.052,0.123-0.066c0.421-0.185,0.953-0.398,1.511-0.574
		c-0.006-0.262-0.013-0.525-0.044-0.786C47.619,13.146,47.087,13.346,46.629,13.545z"/>
</g>
<g>
	<path class="st7" d="M63.314,63.132c-0.371-0.328-0.791-0.656-1.279-0.669c-0.45-0.002-0.844,0.258-1.213,0.492
		c-3.041,1.924-6.539,3.035-10.109,3.272c0.66,0.422,0.713,1.045,0.673,1.471c-0.022,0.113-0.057,0.214-0.117,0.328
		c0.171,0.333,0.229,0.694,0.113,1.035c-0.266,0.869-1.254,1.368-2.168,1.328c-0.237,0.006-0.526-0.037-0.681-0.233
		c-0.116-0.147-0.146-0.346-0.175-0.533c-0.104-0.685-0.112-1.535,0.327-1.983c0-0.013-0.001-0.038-0.001-0.05
		c0.009-0.638,0.324-1.058,0.68-1.317c-3.412,0.033-6.818-0.697-9.855-2.223c-0.392-0.19-0.797-0.406-1.248-0.407
		c-0.7,0.005-1.286,0.594-1.76,1.13c-1.64,1.953-3.062,4.15-3.751,6.63c-0.678,2.454-0.536,5.214,0.768,7.407
		c1.369,2.329,3.842,3.757,6.378,4.695c6.913,2.557,14.946,1.836,21.319-1.869c0.813-0.482,1.601-1.002,2.222-1.692
		c0.608-0.69,1.014-1.5,1.381-2.334C66.889,72.883,67.026,66.717,63.314,63.132z M51.974,76.459
		c-0.129,0.366-0.472,0.624-0.831,0.77c-0.866,0.384-1.984,0.136-2.553-0.613c-0.581-0.748-0.473-1.951,0.251-2.544
		c-0.167-1.209,1.407-1.784,1.737-1.555c0.584,0.386,1.168,1.259,1.182,1.834c0.004,0.162-0.042,0.314-0.126,0.453
		c0.181,0.246,0.313,0.542,0.383,0.853C52.074,75.919,52.081,76.207,51.974,76.459z"/>
	<path class="st7" d="M55.828,48.375c0,0-0.105,0.84-0.128,1.941c-0.049,1.089-0.053,2.452,0.057,3.362
		c0.095,0.835,0.244,1.307,0.326,1.567c0.096,0.335,0.202,0.595,0.333,0.829c2.034-0.162,3.64-1.989,4.317-3.956
		c0.689-2.005,0.609-4.253-0.201-6.196c-0.08-0.211-0.198-0.433-0.424-0.452c-0.151-0.021-0.298,0.07-0.409,0.147
		c-1.084,0.676-2.35,1.045-3.612,1.063C55.898,47.648,55.828,48.375,55.828,48.375z"/>
	<path class="st7" d="M57.628,26.704c-0.025-0.062-0.059-0.094-0.092-0.13c-0.771-2.209-2.38-4.038-4.749-4.528
		c-4.461-0.929-9.366,1.953-9.549,6.771c-0.15,4.117,3.852,7.27,7.725,7.663c-0.177-0.071-0.367-0.179-0.447-0.377
		c-0.172-0.396-0.076-0.561,0.216-0.893c0.329-0.333,0.492-0.337,0.74-0.418c0,0,0.252,0.069,0.407,0.303
		c0.169,0.246,0.028,1.137,0.028,1.137l-0.443,0.286c0.326,0.03,0.651,0.022,0.962-0.023c-0.013-0.012-0.025-0.012-0.025-0.012
		s-0.012-0.5,0.067-0.827c0.067-0.327,0.223-0.581,0.623-0.59c0.637-0.016,0.737,0.507,0.704,1.171
		c0.174-0.029,0.36-0.096,0.521-0.175c-0.179-0.146,0.02-0.188,0.02-0.188s0.245-0.706,0.467-0.849
		c0.591-0.352,0.858-0.171,1.003,0.126c0.343-0.271,0.66-0.604,0.938-0.998C58.332,31.669,58.534,28.996,57.628,26.704z
		 M45.327,29.891c-0.268-0.243,0.196-0.692,0.601-0.99c0.504-0.337,0.929,0.14,1.163,0.534c0.26,0.406-0.208,0.68-0.619,0.753
		C46.061,30.273,45.583,30.147,45.327,29.891z M45.624,31.834c-0.093-0.235,0.355-0.809,0.701-0.98c0,0,0.727,0.057,1.061,0.462
		c0.335,0.392-0.061,0.564-0.061,0.564s-0.315,0.42-0.8,0.507C46.015,32.487,45.705,32.082,45.624,31.834z M48.029,34.051
		c-0.246,0.181-1.053-0.137-1.155-0.697c-0.089-0.573,0.38-0.809,0.955-0.823c0.162-0.004,0.736,0.457,0.736,0.457l-0.076,0.489
		C48.49,33.477,48.275,33.882,48.029,34.051z M49.922,35.305c-0.156,0.254-0.975,0.024-0.975,0.024L48.45,34.94
		c0,0,0.465-0.911,0.878-0.922c0,0,0.402,0.078,0.83,0.717C50.599,35.376,50.078,35.063,49.922,35.305z M52.227,25.735
		c-0.071,0.177-0.204,0.33-0.352,0.446c0.007,0.287-0.024,0.551-0.118,0.803c-0.247,0.644-1.036,1.113-1.643,0.803
		c-0.494-0.251-0.672-0.896-0.56-1.424c0.068-0.302,0.211-0.568,0.405-0.81c-0.042-0.199-0.047-0.399-0.041-0.649
		c0.035-1.651,1.524-1.6,1.524-1.6C53.052,23.177,52.45,25.167,52.227,25.735z M53.501,27.229c-0.273-0.443-0.213-1.032,0.102-1.453
		c-0.017-0.175-0.021-0.337-0.012-0.475c0.065-0.914,0.861-1.621,1.186-1.592c1.216,0.133,1.08,1.211,0.931,1.778
		c-0.022,0.113-0.069,0.239-0.104,0.353c0.273,0.443,0.328,0.764,0.05,1.183c0.003-0.001,0.005,0.006,0.008,0.007
		C55.304,27.29,54.459,28.221,53.501,27.229z"/>
	<path class="st7" d="M50.09,52.465c-0.423,0.073-0.891-0.128-1.124-0.485c-0.273-0.443-0.176-1.083,0.215-1.43
		c-0.001-0.025-0.014-0.05-0.027-0.074c-0.04-0.087-0.079-0.173-0.081-0.261l-0.587,0.014c0.005,0.212,0.011,0.45,0.016,0.675
		c-0.014,0.963-0.12,1.766-0.12,1.766s-0.071,0.689-0.288,1.507c-0.217,0.83-0.593,1.815-0.94,2.473
		c-0.071,0.152-0.143,0.279-0.19,0.392c0.973,0.414,2.027,0.588,3.064,0.55l0-0.012c-0.245-1.319-0.227-3.17-0.014-4.663
		C50.035,52.766,50.068,52.616,50.09,52.465z"/>
	<path class="st7" d="M41.464,54.025l0.012-0.013c0.158-0.179,0.474-0.574,0.843-1.308c0.298-0.582,0.565-1.426,0.735-2.168
		c0.17-0.729,0.318-1.32,0.318-1.32s0.158-0.704,0.412-1.56c0.229-0.843,0.706-1.83,1.131-2.328
		c0.061-0.076,0.109-0.153,0.157-0.229c-1.125-0.01-2.193-1.234-3.363-1.018c-0.548,0.101-0.975,0.511-1.302,0.957
		c-1.068,1.339-1.562,3.113-1.333,4.808C39.302,51.465,40.164,53.007,41.464,54.025z"/>
</g>
<g>
	<path class="st8" d="M77.566,38.532c-0.36,0.121-0.691,0.379-1.07,0.739c-0.747,0.656-1.567,1.351-2.387,2.071
		c-0.845,0.708-1.69,1.441-2.51,2.161c-0.417,0.348-0.87,0.721-1.402,0.947c-0.519,0.25-1.08,0.314-1.592,0.339
		c-1.111,0.052-2.022,0.112-2.485,0.123c-0.474,0.024-0.837,0.033-1.199,0.029c-0.075-0.011-0.163-0.009-0.238-0.007
		c-0.201-0.02-0.413-0.027-0.613-0.035c0.04,0.087,0.092,0.185,0.119,0.285c0.052,0.086,0.08,0.198,0.107,0.285
		c0,0.013,0,0.013,0,0.013c0.093,0.223,0.199,0.458,0.267,0.706c0.61-0.102,1.131-0.278,1.978-0.386
		c0.2-0.017,0.499-0.05,0.899-0.059c0.225-0.005,0.463,0.014,0.714,0.045l0.201,0.045c0.126,0.022,0.314,0.08,0.454,0.151
		c0.353,0.129,0.682,0.296,0.976,0.551c0.129,0.147,0.282,0.306,0.388,0.516c0.065,0.086,0.104,0.185,0.144,0.284
		c0.04,0.086,0.027,0.074,0.041,0.124l0.471-0.161l0.409-0.148c-0.052-0.086-0.335-0.417-0.502-0.588
		c-0.322-0.392-0.656-0.772-0.978-1.151c0.393-0.297,0.811-0.595,1.179-0.879c0.589-0.452,1.141-0.878,1.643-1.303
		c2.022-1.674,3.389-3.045,3.389-3.045s0.184-0.155,0.501-0.475c0.11-0.115,0.231-0.256,0.39-0.41
		c0.207-0.23,0.464-0.449,0.732-0.743c0.012-0.025,0.049-0.039,0.049-0.039S77.616,38.518,77.566,38.532z"/>
	<path class="st8" d="M38.616,42.293c-0.012,0-0.013-0.012-0.013-0.012c-0.306-0.23-0.638-0.522-0.664-0.584
		c-0.68,0.304-1.172,0.629-2.05,1.025c-0.173,0.079-0.432,0.236-1.088,0.489c-0.273,0.094-0.657,0.229-1.118,0.302
		c-0.436,0.048-0.937,0.035-1.376-0.029c-0.855-0.192-1.474-0.452-1.474-0.452s-2.119-0.786-3.292-1.207
		c-0.807-0.305-1.312-0.493-1.564-0.587c-0.971-0.364-1.517-0.701-2.204-1.171c-0.062,0.039-0.122,0.103-0.184,0.142
		c-0.136,0.078-0.332,0.221-0.578,0.377c-0.024,0.026-0.073,0.064-0.098,0.09c0.726,0.057,1.318,0.205,2.189,0.559
		c0.253,0.119,0.783,0.318,1.555,0.725c0.886,0.466,2.092,1.199,3.021,1.864c0.204,0.158,0.395,0.315,0.612,0.473l0.306,0.23
		l0.14,0.122c0.063,0.036-0.074,0.039-0.098,0.077c-0.422,0.123-0.794,0.269-1.103,0.377c0,0,0.038,0.037,0.216,0.132
		c0.278,0.118,0.841,0.154,1.426,0.028c0.609-0.165,1.254-0.343,1.888-0.521c0.608-0.202,1.178-0.391,1.587-0.551
		c0.62-0.215,0.917-0.335,1.078-0.401c0.544-0.238,0.992-0.349,1.389-0.471c0.012,0,0.012,0,0.037-0.013
		c0.112-0.028,0.236-0.068,0.348-0.096c0.099-0.027,0.223-0.08,0.322-0.108c0.134-0.153,0.292-0.32,0.477-0.437
		c0.148-0.091,0.383-0.172,0.495-0.212c-0.038-0.024-0.102-0.085-0.141-0.147C38.628,42.293,38.628,42.293,38.616,42.293z"/>
</g>
<g>
	<path class="st9" d="M60.863,39.514c-0.243-0.219-0.513-0.538-0.608-0.835c-1.163,1.028-2.545,1.775-4.035,2.161
		c0.053,0.124,0.094,0.248,0.147,0.384c0.043,0.211,0.163,0.534,0.217,1.22c0.076,0.561-0.005,1.35-0.135,2.154
		c0.568-0.276,1.074-0.539,1.841-0.895c0.173-0.092,0.457-0.211,1.012-0.525c0.345-0.196,0.937-0.535,1.29-0.932
		c0.39-0.397,0.556-0.764,0.556-0.764s0.154-0.341,0.193-0.792C61.356,40.239,61.17,39.794,60.863,39.514z"/>
	<path class="st9" d="M55.277,55.527c-0.095-0.298-0.271-0.844-0.368-1.754c-0.112-1.01-0.12-2.372-0.06-3.499
		s0.176-2.005,0.176-2.005s0.112-1.053,0.357-2.296c0.27-1.244,0.498-2.662,0.44-3.499c-0.015-0.612-0.097-0.885-0.138-1.059
		c-0.219-0.795-0.384-1.378-0.785-1.931c-0.46,0.111-0.895,0.197-1.357,0.233c0.078,0.111,0.143,0.209,0.221,0.357
		c0.093,0.223,0.359,0.891,0.475,1.551c0.141,0.647,0.168,1.259,0.168,1.259s0.039,0.587,0.018,1.275
		c-0.017,0.325-0.059,0.664-0.126,0.966c-0.043,0.276-0.15,0.504-0.185,0.63c-0.152,0.416-0.284,0.644-0.477,0.949
		c0.059-0.652,0.077-0.964,0.099-1.053c0.007-0.238,0.116-0.903,0.163-1.529c0.047-0.639,0.02-1.213,0.02-1.213
		s-0.026-0.574-0.154-1.196c-0.103-0.635-0.282-1.293-0.35-1.529c-0.029-0.162-0.057-0.299-0.086-0.435
		c-0.175,0.017-0.349,0.046-0.524,0.05c-0.25,0.019-0.488-0.001-0.737,0.005c0.572,0.374,0.984,0.889,1.181,1.796
		c0.03,0.199,0.113,0.535,0.068,1.236c-0.024,0.551-0.17,1.229-0.365,1.934c-0.253,0.906-0.592,1.877-0.844,2.796
		c-0.524,1.575-0.867,2.909-0.867,2.909s-0.286,1.095-0.501,2.537c-0.215,1.443-0.185,3.205,0.083,4.424
		c0.17,0.833,0.345,1.317,0.438,1.564c0.096,0.348,0.215,0.595,0.333,0.83c0.096-0.177,0.192-0.342,0.337-0.546
		c0.206-0.28,0.593-0.815,1.231-1.318l0.012-0.025l0.012-0.013c0.539-0.438,0.848-0.608,1.046-0.701
		c0.779-0.369,1.416-0.385,2.031-0.262C55.855,56.638,55.493,56.184,55.277,55.527z"/>
	<path class="st9" d="M50.699,42.562c-0.041-0.662-0.11-1.422-0.596-1.886c-0.371-0.341-0.899-0.466-1.402-0.578
		c-2.779-0.67-5.602-2.089-6.876-4.621c-0.11,0.115-0.256,0.281-0.389,0.447c-0.23,0.318-0.397,0.622-0.397,0.622
		s-0.18,0.329-0.308,0.708c-0.129,0.353-0.206,0.78-0.215,0.93c-0.021,0.151-0.093,0.277-0.178,0.392
		c0.385-0.084,0.723-0.093,0.91-0.097c1.263,0.032,1.904,0.654,2.435,1.403c-0.358-0.316-0.773-0.431-1.15-0.51
		c-0.389-0.078-0.792-0.181-1.292-0.194c-0.288-0.031-0.875,0.009-1.493,0.286l-0.037,0.026c-0.037,0.001-0.062,0.027-0.062,0.027
		s-0.062,0.039-0.086,0.052c-0.531,0.263-0.675,0.529-0.797,0.645c-0.291,0.357-0.419,0.76-0.448,1.123
		c-0.011,0.075-0.009,0.15-0.007,0.225c0.001,0.037,0.015,0.087,0.016,0.137c0.024-0.026,0.061-0.052,0.085-0.09
		c0.012-0.013,0.024-0.026,0.037-0.038c0.159-0.141,0.306-0.258,0.306-0.258s0.134-0.153,0.306-0.257
		c0.048-0.064,0.148-0.079,0.222-0.118c0.013,0,0.025-0.013,0.049-0.026c0.013,0,0.013,0,0.013,0
		c0.037-0.026,0.073-0.064,0.098-0.077c0.663-0.516,1.459-0.661,2.452-0.435c0.289,0.068,0.843,0.229,1.676,0.559
		c0.53,0.2,1.276,0.544,1.859,0.855c0.595,0.298,1.026,0.563,1.026,0.563s0.558,0.311,1.168,0.734
		c0.292,0.168,0.584,0.373,0.876,0.554c0.33,0.205,0.647,0.384,0.887,0.491c0.392,0.203,0.645,0.297,0.821,0.343
		c0.135-0.103,0.232-0.243,0.303-0.395C50.737,43.623,50.724,43.074,50.699,42.562z"/>
	<path class="st9" d="M45.501,45.751c-0.364,0.459-0.768,1.306-0.998,2.137c-0.243,0.794-0.389,1.497-0.389,1.497
		s-0.136,0.591-0.28,1.344c-0.182,0.755-0.484,1.674-0.794,2.295c-0.38,0.834-0.769,1.294-0.963,1.524
		c-0.256,0.281-0.501,0.475-0.772,0.631c0.228,0.132,0.698,0.421,1.144,0.76c0.471,0.326,0.83,0.717,0.83,0.717
		s0.385,0.391,0.733,0.845c0.349,0.479,0.663,1.034,0.754,1.207c0.027,0.062,0.041,0.124,0.066,0.161
		c0.048-0.101,0.12-0.203,0.204-0.33c0.266-0.369,0.411-0.598,0.567-0.839c0.132-0.228,0.434-0.648,0.828-1.408
		c0.322-0.62,0.7-1.53,0.894-2.322c0.219-0.78,0.291-1.395,0.291-1.395s0.131-0.766,0.147-1.679
		c0.027-0.926,0.037-2.064,0.183-2.742c0.133-0.678,0.289-0.982,0.346-1.184c0.119-0.24,0.252-0.444,0.372-0.634
		c-0.918-0.24-1.805-0.706-2.533-1.326C45.999,45.151,45.804,45.356,45.501,45.751z"/>
</g>
<g>
	<path class="st10" d="M61.92,39.776c-0.055-0.186-0.146-0.346-0.262-0.494c-0.026-0.037-0.077-0.086-0.116-0.135
		c-0.051-0.049-0.078-0.123-0.129-0.147c-0.309-0.355-0.425-0.515-0.467-0.714c-0.027-0.074-0.041-0.161-0.031-0.237
		c-0.015-0.112-0.018-0.212-0.02-0.287c0.006-0.263,0.024-0.551-0.02-0.812c-0.019-0.25-0.164-0.584-0.344-0.767
		c-0.013-0.012-0.026-0.024-0.026-0.037c-0.146,0.154-0.318,0.308-0.464,0.436c0.107,0.285,0.064,0.573,0.054,1.174
		c0.004,0.162-0.003,0.388,0.08,0.723c0.014,0.062,0.028,0.137,0.08,0.198c0.095,0.298,0.365,0.616,0.608,0.835
		c0.307,0.28,0.493,0.726,0.479,1.176c-0.039,0.451-0.193,0.792-0.193,0.792s-0.166,0.367-0.556,0.764
		c-0.353,0.396-0.945,0.736-1.29,0.932c-0.555,0.314-0.84,0.433-1.012,0.525c-0.766,0.356-1.273,0.619-1.841,0.895
		c0.13-0.803,0.211-1.593,0.135-2.154c-0.054-0.686-0.175-1.008-0.217-1.22c-0.053-0.136-0.094-0.26-0.147-0.384
		c-0.266-0.656-0.663-1.059-1.109-1.398c-0.075,0.002-0.137,0.028-0.211,0.043c0.401,0.553,0.565,1.136,0.785,1.931
		c0.042,0.174,0.123,0.447,0.138,1.059c0.058,0.836-0.17,2.254-0.44,3.499c-0.245,1.244-0.357,2.296-0.357,2.296
		s-0.116,0.878-0.176,2.005s-0.052,2.489,0.06,3.499c0.097,0.91,0.273,1.456,0.368,1.754c0.216,0.657,0.577,1.111,0.985,1.439
		c-0.616-0.123-1.253-0.107-2.031,0.262c-0.198,0.092-0.506,0.262-1.046,0.701l-0.012,0.013l-0.012,0.025
		c-0.638,0.503-1.025,1.038-1.231,1.318c-0.145,0.204-0.241,0.368-0.337,0.546c-0.118-0.235-0.237-0.482-0.333-0.83
		c-0.094-0.248-0.268-0.731-0.438-1.564c-0.267-1.219-0.298-2.981-0.083-4.424c0.215-1.443,0.501-2.537,0.501-2.537
		s0.343-1.333,0.867-2.909c0.253-0.919,0.592-1.89,0.844-2.796c0.195-0.705,0.341-1.383,0.365-1.934
		c0.045-0.701-0.038-1.037-0.068-1.236c-0.197-0.908-0.61-1.423-1.181-1.796c-0.1,0.002-0.162,0.004-0.263-0.006
		c0.475,0.501,0.664,1.096,0.834,1.917c0.041,0.161,0.086,0.46,0.039,1.074c-0.024,0.538-0.231,1.293-0.474,2.099
		c-0.574,0.039-1.115-0.11-1.82-0.318c-0.038-0.012-0.101-0.035-0.177-0.071c-0.176-0.046-0.428-0.14-0.821-0.343
		c-0.24-0.107-0.557-0.286-0.887-0.491c-0.292-0.18-0.584-0.386-0.876-0.554c-0.61-0.423-1.168-0.734-1.168-0.734
		s-0.432-0.265-1.026-0.563c-0.583-0.311-1.329-0.655-1.859-0.855c-0.833-0.33-1.387-0.491-1.676-0.559
		c-0.993-0.226-1.79-0.081-2.452,0.435c-0.025,0.013-0.061,0.052-0.098,0.077c0,0,0,0-0.013,0c-0.025,0.013-0.037,0.026-0.049,0.026
		c-0.074,0.039-0.174,0.054-0.222,0.118c-0.172,0.104-0.306,0.257-0.306,0.257s-0.147,0.116-0.306,0.258
		c-0.012,0.013-0.024,0.026-0.037,0.038c-0.024,0.038-0.061,0.064-0.085,0.09c-0.001-0.05-0.015-0.1-0.016-0.137
		c-0.002-0.075-0.004-0.15,0.007-0.225c0.029-0.363,0.156-0.766,0.448-1.123c0.122-0.116,0.266-0.382,0.797-0.645
		c0.025-0.013,0.086-0.052,0.086-0.052s0.024-0.026,0.062-0.027l0.037-0.026c0.618-0.278,1.205-0.317,1.493-0.286
		c0.5,0.013,0.903,0.115,1.292,0.194c0.377,0.078,0.792,0.193,1.15,0.51c-0.531-0.75-1.171-1.372-2.435-1.403
		c-0.187,0.005-0.525,0.013-0.91,0.097c0.085-0.115,0.157-0.241,0.178-0.392c0.009-0.15,0.086-0.577,0.215-0.93
		c0.128-0.378,0.308-0.708,0.308-0.708s0.168-0.304,0.397-0.622c0.133-0.166,0.279-0.332,0.389-0.447c0,0,0,0,0-0.012
		c0.122-0.141,0.219-0.23,0.281-0.282c0.012,0,0.012-0.013,0.012-0.025c-0.103-0.11-0.218-0.232-0.322-0.367
		c-0.147,0.104-0.541,0.376-0.845,0.721c-0.292,0.345-0.507,0.725-0.507,0.725s-0.217,0.33-0.369,0.759
		c-0.164,0.442-0.252,0.931-0.286,1.107c-0.02,0.225,0.072,0.398,0.213,0.545c-0.186,0.042-0.36,0.109-0.533,0.201l-0.062,0.039
		c-0.037,0.013-0.074,0.027-0.074,0.027s-0.086,0.052-0.111,0.065c-0.629,0.353-0.833,0.683-0.98,0.836
		c-0.399,0.547-0.461,1.086-0.387,1.547c0.014,0.062,0.015,0.1,0.029,0.149c0.027,0.074,0.028,0.137,0.055,0.186
		c0.026,0.062,0.359,0.354,0.664,0.584c0.012,0,0.025-0.013,0.049-0.039c0,0,0,0,0.013,0c0.026,0.037,0.064,0.061,0.102,0.085
		c-0.025,0.001-0.075-0.011-0.113-0.022c0.039,0.062,0.103,0.122,0.141,0.147c0.037-0.013,0.062-0.014,0.062-0.014
		s-0.001-0.025,0.009-0.125c0.023-0.088,0.033-0.176,0.068-0.277c0.073-0.077,0.134-0.141,0.183-0.179
		c0.037-0.038,0.061-0.064,0.061-0.064s0.147-0.129,0.28-0.294c0.099-0.052,0.108-0.203,0.181-0.267
		c0.037-0.026,0.073-0.064,0.085-0.09c-0.014-0.075-0.002-0.1,0.023-0.101c-0.001-0.025,0.012-0.025,0.012-0.025
		c0.237-0.006,0.463,0.026,0.676,0.059c0.376,0.053,0.754,0.144,1.244,0.257c0.252,0.069,0.743,0.207,1.538,0.525
		c0.517,0.187,1.225,0.495,1.782,0.794c0.582,0.286,1.013,0.538,1.013,0.538s0.418,0.227,0.977,0.589
		c-0.41,0.097-0.806,0.282-1.247,0.63c-0.122,0.128-0.355,0.296-0.671,0.691c-0.048,0.076-0.096,0.152-0.157,0.229
		c-0.425,0.498-0.901,1.485-1.131,2.328c-0.254,0.856-0.412,1.56-0.412,1.56s-0.148,0.591-0.318,1.32
		c-0.169,0.742-0.436,1.586-0.735,2.168c-0.37,0.734-0.685,1.129-0.843,1.308l-0.012,0.013c-0.353,0.384-0.634,0.653-0.94,0.911
		c-0.024,0.026-0.073,0.064-0.11,0.09c-0.037,0.013-0.049,0.051-0.073,0.064c0.116,0.147,0.232,0.294,0.347,0.404
		c0.077,0.073,0.141,0.147,0.23,0.219c0.165,0.109,0.661,0.459,1.045,0.8c0.384,0.366,0.718,0.72,0.718,0.72
		s0.309,0.355,0.619,0.785c0.323,0.442,0.585,0.936,0.677,1.109c0.158,0.321,0.361,0.441,0.752,0.607
		c0.012-0.013,0.012-0.025,0.037-0.038c0,0,0,0.013,0.013,0.012c0.123-0.091,0.367-0.321,0.478-0.387
		c0.11-0.09,0.22-0.205,0.33-0.321c0.232-0.231,0.463-0.486,0.692-0.829c0.145-0.191,0.374-0.559,0.685-1.129
		c0.047-0.114,0.119-0.24,0.19-0.392c0.347-0.659,0.723-1.643,0.94-2.473c0.218-0.818,0.288-1.507,0.288-1.507
		s0.105-0.803,0.12-1.766c-0.005-0.225-0.011-0.462-0.016-0.675c-0.019-0.762-0.037-1.512,0.039-1.989
		c0.072-0.627,0.166-0.892,0.237-1.068c0.106-0.278,0.2-0.517,0.307-0.72c0.108-0.178,0.204-0.343,0.313-0.495
		c0.207-0.243,0.426-0.473,0.735-0.618c-0.037,0.001-0.05-0.011-0.075-0.011c-0.532,0.213-0.988,0.487-1.376,1.009
		c-0.12,0.19-0.253,0.394-0.372,0.634c-0.058,0.201-0.213,0.505-0.346,1.184c-0.146,0.679-0.156,1.816-0.183,2.742
		c-0.015,0.913-0.147,1.679-0.147,1.679s-0.073,0.614-0.291,1.395c-0.193,0.792-0.571,1.702-0.894,2.322
		c-0.394,0.76-0.696,1.18-0.828,1.408c-0.157,0.241-0.301,0.47-0.567,0.839c-0.084,0.127-0.157,0.229-0.204,0.33
		c-0.026-0.037-0.04-0.099-0.066-0.161c-0.092-0.173-0.405-0.728-0.754-1.207c-0.349-0.454-0.733-0.845-0.733-0.845
		s-0.36-0.391-0.83-0.717c-0.446-0.339-0.915-0.628-1.144-0.76c0.271-0.157,0.517-0.35,0.772-0.631
		c0.194-0.23,0.583-0.689,0.963-1.524c0.31-0.62,0.613-1.54,0.794-2.295c0.144-0.754,0.28-1.344,0.28-1.344s0.145-0.704,0.389-1.497
		c0.23-0.831,0.634-1.678,0.998-2.137c0.303-0.395,0.498-0.6,0.632-0.74c0.025-0.013,0.061-0.052,0.073-0.064
		c0.453-0.374,0.834-0.67,1.203-0.904c0.571,0.349,1.18,0.721,1.597,0.911c0.518,0.225,0.82,0.318,1.034,0.375
		c0.037-0.026,0.099-0.04,0.149-0.054c-0.024,0.038-0.049,0.039-0.073,0.064c0.013,0,0.038,0.024,0.051,0.024
		c0.791,0.143,1.402,0.066,1.934-0.147c-0.208,0.705-0.465,1.424-0.686,2.129c-0.186,0.592-0.372,1.172-0.485,1.649
		c0.089,0.073,0.141,0.134,0.141,0.134l-0.6,2.052c0,0-0.074,0.052-0.16,0.091c-0.067,0.327-0.157,0.754-0.221,1.193
		c-0.021,0.151-0.055,0.301-0.077,0.452c-0.214,1.493-0.231,3.344,0.014,4.663l0,0.012c0.048,0.449,0.131,0.772,0.213,1.032
		c0.051,0.024,0.089,0.06,0.089,0.06s0.595,0.798,0.763,1.032c0.103,0.122,0.007,0.287-0.126,0.478l0,0.012
		c0.104,0.148,0.22,0.295,0.347,0.404c0.178,0.133,0.406,0.228,0.632,0.285c0.012,0,0.012,0,0.012,0
		c0.06-0.089,0.096-0.165,0.157-0.229c0.326-0.471,0.482-0.724,0.579-0.864c0.182-0.217,0.521-0.688,1.047-1.151l0.012-0.013
		l0.012-0.013c0.478-0.387,0.725-0.518,0.886-0.597c0.74-0.418,1.27-0.719,1.968-0.81c0.137-0.016,0.249-0.031,0.387-0.034
		c-0.013-0.012-0.013-0.025-0.039-0.049c-0.143-0.209-0.273-0.443-0.379-0.666c-0.066-0.136-0.131-0.259-0.172-0.396
		c-0.131-0.234-0.237-0.494-0.333-0.829c-0.081-0.261-0.23-0.732-0.326-1.567c-0.11-0.91-0.105-2.273-0.057-3.362
		c0.023-1.101,0.128-1.941,0.128-1.941s0.07-0.727,0.259-1.694c0.021-0.175,0.041-0.364,0.087-0.552
		c0.09-0.427,0.166-0.867,0.243-1.319c0.673-0.091,1.283-0.194,2.124-0.552c0.186-0.067,0.495-0.187,1.089-0.477
		c0.37-0.209,0.999-0.574,1.462-1.036c0.171-0.179,0.317-0.345,0.4-0.51c0.097-0.102,0.145-0.204,0.205-0.305
		s0.096-0.177,0.096-0.177s0.228-0.406,0.262-1.031C62.073,40.447,62.04,40.098,61.92,39.776z"/>
	<path class="st10" d="M53.766,41.712c0.128,0.622,0.154,1.196,0.154,1.196s0.026,0.574-0.02,1.213
		c-0.047,0.626-0.156,1.291-0.163,1.529c-0.023,0.088-0.04,0.401-0.099,1.053c0.193-0.305,0.325-0.533,0.477-0.949
		c0.034-0.126,0.141-0.354,0.185-0.63c0.068-0.302,0.109-0.64,0.126-0.966c0.021-0.688-0.018-1.275-0.018-1.275
		s-0.027-0.612-0.168-1.259c-0.116-0.66-0.382-1.328-0.475-1.551c-0.079-0.148-0.144-0.247-0.221-0.357
		c-0.074,0.027-0.137,0.028-0.212,0.03c0.028,0.137,0.057,0.274,0.086,0.435C53.484,40.419,53.663,41.077,53.766,41.712z"/>
</g>
<g>
	<path class="st11" d="M77.842,38.563c0,0-0.051-0.036-0.178-0.108c-0.152-0.084-0.393-0.228-0.634-0.385c0,0,0,0-0.013,0
		c-0.346,0.183-0.664,0.441-0.946,0.698c-0.086,0.065-0.172,0.142-0.245,0.206c-0.074,0.039-0.148,0.104-0.208,0.168
		c-0.391,0.36-0.808,0.707-1.224,1.08c-0.159,0.154-0.355,0.309-0.527,0.45l-0.013,0c-0.061,0.076-0.122,0.128-0.171,0.167
		c-0.832,0.733-1.677,1.478-2.497,2.199c-0.391,0.36-0.796,0.682-1.241,0.88c-0.408,0.197-0.881,0.271-1.368,0.308
		c-0.175,0.017-0.325,0.02-0.499,0.037c-0.474,0.049-0.898,0.072-1.26,0.093c-0.311,0.045-0.549,0.063-0.723,0.068
		c-0.337,0.021-0.624,0.053-0.885,0.097c-0.112,0.015-0.212,0.018-0.312,0.033c-0.311,0.058-0.598,0.102-0.908,0.172
		c0.013,0.037,0.04,0.112,0.079,0.173c0.2,0.008,0.413,0.015,0.613,0.035c0.075-0.002,0.162-0.004,0.238,0.007
		c0.363,0.004,0.725-0.005,1.199-0.029c0.462-0.011,1.373-0.071,2.485-0.123c0.512-0.025,1.073-0.089,1.592-0.339
		c0.532-0.225,0.986-0.599,1.402-0.947c0.82-0.72,1.665-1.453,2.51-2.161c0.82-0.72,1.641-1.415,2.387-2.071
		c0.379-0.359,0.71-0.617,1.07-0.739c0.05-0.014,0.075-0.014,0.075-0.014s-0.037,0.013-0.049,0.039
		c-0.268,0.294-0.525,0.513-0.732,0.743c-0.159,0.154-0.28,0.294-0.39,0.41c-0.317,0.32-0.501,0.475-0.501,0.475
		s-1.367,1.371-3.389,3.045c-0.502,0.425-1.054,0.851-1.643,1.303c-0.368,0.284-0.786,0.582-1.179,0.879
		c0.322,0.38,0.656,0.759,0.978,1.151c0.167,0.171,0.45,0.502,0.502,0.588l-0.409,0.148l-0.471,0.161
		c-0.014-0.05-0.001-0.038-0.041-0.124c-0.04-0.099-0.08-0.198-0.144-0.284c-0.105-0.21-0.259-0.369-0.388-0.516
		c-0.294-0.255-0.623-0.422-0.976-0.551c-0.139-0.072-0.328-0.13-0.454-0.151l-0.201-0.045c-0.251-0.031-0.489-0.051-0.714-0.045
		c-0.4,0.01-0.699,0.042-0.899,0.059c-0.847,0.108-1.368,0.283-1.978,0.386c0.04,0.112,0.067,0.198,0.108,0.31
		c0.591,0.123,1.215,0.095,1.963,0.002c0.175-0.017,0.474-0.062,0.823-0.07c0.175-0.004,0.363,0.029,0.564,0.049l0.176,0.033
		c0.101,0.035,0.264,0.069,0.378,0.128c0.252,0.094,0.518,0.237,0.723,0.432c0.102,0.098,0.218,0.207,0.27,0.318
		c0.051,0.049,0.065,0.123,0.104,0.185c0.014,0.075,0.044,0.286,0.061,0.449c-0.098,0.59,0.405,0.203,0.729,0.145l0.582-0.214
		l0.645-0.216l0.521-0.175c0.074-0.052,0.249-0.056,0.222-0.118l-0.193-0.208l-0.965-1.139c-0.622-0.897-0.707-0.295,0.1-1.015
		c0.589-0.439,1.141-0.878,1.668-1.303c1.213-1.005,2.191-1.904,2.778-2.468c0.11-0.09,0.171-0.167,0.269-0.244
		c0.219-0.243,0.366-0.384,0.366-0.384s0.196-0.18,0.5-0.5c0.073-0.089,0.183-0.192,0.281-0.282l0.012,0
		c0.11-0.115,0.171-0.179,0.268-0.294c0.037-0.038,0.098-0.102,0.146-0.154c0.073-0.064,0.122-0.141,0.195-0.205l0.17-0.217
		c0.073-0.089,0.146-0.166,0.206-0.255C78.007,38.671,77.842,38.563,77.842,38.563z"/>
	<path class="st11" d="M35.572,42.03c-0.173,0.079-0.445,0.211-1.04,0.425c-0.508,0.2-1.328,0.395-2.082,0.226
		c-0.716-0.158-1.335-0.418-1.335-0.418s-2.107-0.786-3.268-1.221c-0.82-0.305-1.325-0.505-1.59-0.599
		c-0.782-0.281-1.347-0.392-1.975-0.489c-0.124,0.053-0.272,0.107-0.336,0.071c-0.025-0.012-0.026-0.037-0.039-0.062l-0.025,0.001
		c-0.037,0.038-0.073,0.064-0.11,0.103c0.687,0.471,1.232,0.808,2.204,1.171c0.252,0.094,0.757,0.282,1.564,0.587
		c1.173,0.422,3.292,1.207,3.292,1.207s0.619,0.26,1.474,0.452c0.439,0.064,0.94,0.077,1.376,0.029
		c0.461-0.074,0.845-0.208,1.118-0.302c0.656-0.254,0.915-0.41,1.088-0.489c0.878-0.396,1.37-0.721,2.05-1.025
		c-0.026-0.049-0.028-0.112-0.055-0.186C37.121,41.467,36.462,41.646,35.572,42.03z"/>
	<path class="st11" d="M34.649,44.19c-0.409,0.16-0.979,0.349-1.587,0.551c-0.633,0.178-1.279,0.356-1.888,0.521
		c-0.585,0.127-1.148,0.09-1.426-0.028c-0.177-0.096-0.216-0.132-0.216-0.132c0.31-0.108,0.681-0.254,1.103-0.377
		c0.024-0.038,0.161-0.041,0.098-0.077l-0.14-0.122l-0.306-0.23c-0.216-0.157-0.408-0.315-0.612-0.473
		c-0.929-0.665-2.134-1.398-3.021-1.864c-0.772-0.406-1.302-0.606-1.555-0.725c-0.871-0.354-1.462-0.502-2.189-0.559
		c-0.074,0.052-0.148,0.091-0.222,0.143c0.698,0.408,1.23,0.695,2.126,1.073c0.24,0.107,0.758,0.319,1.505,0.713
		c0.873,0.441,2.04,1.138,2.932,1.804c0.038,0.037,0.038,0.037,0.038,0.037s0,0-0.099,0.04c-0.173,0.067-0.335,0.121-0.433,0.173
		c-0.111,0.065-0.222,0.105-0.145,0.204c0.067,0.173,0.106,0.26,0.106,0.26c0.013,0,0.016,0.125,0.17,0.308
		c0.155,0.221,0.346,0.342,0.586,0.448c0.493,0.213,1.18,0.196,1.839,0.043c0.683-0.179,1.29-0.431,1.921-0.672
		c0.607-0.24,1.177-0.441,1.586-0.589c0.619-0.253,0.904-0.372,1.077-0.439c0.248-0.094,0.47-0.199,0.656-0.291
		c0.17-0.217,0.364-0.434,0.56-0.614c-0.397,0.122-0.844,0.233-1.389,0.471C35.566,43.855,35.269,43.975,34.649,44.19z"/>
</g>
<g>
	<path class="st12" d="M84.207,27.844c-0.332-0.78-1.117-1.198-1.603-1.161c-0.038,0.001-0.075,0.002-0.112,0.015
		c-0.073,0.064-0.135,0.116-0.195,0.192c-0.412,0.535-0.571,1.202-0.705,1.855c-0.134,0.653-0.218,1.33-0.503,1.925
		c-0.286,0.594-0.797,1.145-1.47,1.248c-0.274,0.032-0.588-0.011-0.78-0.219c-0.115-0.11-0.17-0.296-0.136-0.434
		c-0.037,0.001-0.087,0.002-0.125,0.016c-0.041-0.137-0.045-0.324-0.074-0.486c-0.018-0.212-0.043-0.236-0.058-0.349
		c-0.015-0.087-0.042-0.174-0.069-0.261c-0.097-0.373-0.281-0.768-0.584-0.898c-0.291-0.155-0.664-0.059-0.907,0.235
		c-0.061,0.064-0.084,0.152-0.132,0.228c-0.048,0.089-0.109,0.165-0.156,0.254c-0.083,0.202-0.115,0.39-0.161,0.591
		c-0.099,0.565-0.078,0.902-0.111,1.078c-0.008,0.713,0.362,2.029,0.337,2.555c0.076,0.023,0.127,0.084,0.204,0.158l0.025-0.001
		c0.126,0.022,0.251,0.031,0.414,0.077s0.617,0.198,1.047,0.4c0.417,0.202,0.761,0.432,0.761,0.432s0.355,0.216,0.725,0.52
		c0.013,0.012,0.038,0.024,0.076,0.048c0.255,0.194,0.699,0.458,1.066,0.662l0.013,0l0.012,0l0.013,0
		c0.025-0.001,0.025,0.012,0.038,0.012c0,0,0.013,0,0.025-0.001c0.012,0,0.037-0.001,0.037-0.001l0.012,0l0.013,0
		c0.012-0.013,0.012-0.013,0.025-0.013c0.012-0.013,0.012-0.013,0.025-0.013c0.588-0.477,0.99-0.912,1.51-1.649
		c0.157-0.229,0.446-0.673,0.765-1.431c0.294-0.757,0.558-1.726,0.758-2.744c0.078-0.402,0.155-0.816,0.195-1.217
		C84.469,28.875,84.418,28.301,84.207,27.844z"/>
	<path class="st12" d="M81.131,37.095c-0.076-0.023-0.164-0.071-0.24-0.107c-0.014-0.062-0.041-0.124-0.067-0.173
		c0.013,0.025,0.014,0.062,0.015,0.1c-1.122-0.373-1.944-1.278-2.945-1.853c-0.013-0.025-0.013-0.025-0.013-0.025
		c-0.013,0-0.013-0.012-0.038-0.012c-0.013,0-0.025-0.012-0.025-0.012c-0.076-0.023-0.114-0.06-0.177-0.083c0-0.013,0-0.013-0.013,0
		c-0.025-0.012-0.025,0.001-0.025,0.001l-0.013,0c-0.33,0.321-0.249,1.069-0.128,1.428c0.325,1.005,1.158,1.859,2.179,2.197
		c0.29,0.105,0.616,0.16,0.929,0.14c0.012,0,0.037-0.001,0.05-0.014c0.595-0.202,0.937-1.06,0.512-1.575
		C81.131,37.095,81.131,37.095,81.131,37.095z"/>
	<path class="st12" d="M24.839,37.153c-0.077-0.098-0.142-0.197-0.194-0.283c-0.012,0.025-0.048,0.076-0.06,0.101l-0.013,0
		c-0.156,0.266-0.326,0.483-0.532,0.738c0.019-0.25,0.038-0.488,0.046-0.689c0.026-0.463,0.066-0.877,0.129-1.378
		c0.021-0.151,0.042-0.326,0.075-0.514c-0.001-0.025-0.001-0.037,0.011-0.075l0-0.013c0-0.012,0-0.012-0.001-0.025
		c0.043-0.276,0.106-0.79,0.102-1.453l0-0.013c-0.001-0.05-0.002-0.1-0.003-0.137c-0.021-0.875-0.161-1.996-0.825-2.543
		c-0.256-0.231-0.744-0.282-1.091-0.136c-0.025,0.013-0.037,0.013-0.049,0.026c0.001,0.037,0.001,0.05,0.002,0.075
		c0.059,0.374,0.279,0.693,0.487,1.013c0.195,0.32,0.366,0.666,0.413,1.04c0.034,0.374-0.093,0.79-0.376,0.997
		c-0.356,0.271-0.82,0.22-1.248,0.093l-0.013,0c-0.21,0.093-0.484,0.149-0.724,0.055c-0.556-0.261-0.592-0.686-0.708-0.833
		c-0.396-0.853-0.974-1.514-1.534-1.913c-0.585-0.411-1.151-0.535-1.526-0.55c-0.388-0.003-0.611,0.065-0.611,0.065
		s-0.199,0.03-0.558,0.189c-0.123,0.065-0.259,0.144-0.406,0.26c0.192,1.208,0.795,2.343,1.604,3.249
		c0.926,1.053,2.121,1.861,3.338,2.557c0.241,0.132,0.507,0.288,0.601,0.548c0.052,0.099,0.055,0.211,0.045,0.324
		c0.284-0.157,0.555-0.301,0.555-0.301s0.271-0.157,0.606-0.29c0.309-0.133,0.694-0.242,0.819-0.257
		c0.236-0.056,0.4,0.003,0.589,0.048c-0.146,0.154-0.23,0.306-0.441,0.386c-0.099,0.052-0.432,0.211-0.729,0.368
		c-0.259,0.156-0.517,0.313-0.517,0.313s-0.272,0.132-0.543,0.301c-0.197,0.142-0.393,0.297-0.541,0.388c-0.013,0-0.013,0,0,0.012
		c-0.022,0.113-0.02,0.201,0.007,0.3c0.112,0.472,0.666,0.659,1.142,0.71c0.226,0.032,0.451,0.039,0.663,0.021l0.013,0l0.025-0.001
		l0.013,0l0.012,0c0.147-0.116,0.233-0.193,0.319-0.245c0.123-0.078,0.221-0.155,0.32-0.208l0-0.013
		c0.333-0.196,0.629-0.34,0.939-0.473c0.012-0.025,0.048-0.064,0.06-0.089c0.074-0.039,0.334-0.133,0.479-0.349
		c0.073-0.089,0.121-0.178,0.169-0.254c0.023-0.076,0.047-0.139,0.047-0.139c0.013,0.012,0.045-0.201-0.036-0.437
		C25.134,37.446,24.903,37.227,24.839,37.153z"/>
</g>
<g>
	<path class="st13" d="M81.884,26.938c0,0-0.234,0.131-0.497,0.65c-0.036,0.051-0.059,0.126-0.108,0.203
		c-0.012,0.025-0.024,0.051-0.035,0.088c-0.153,0.379-0.266,0.869-0.5,1.525c-0.117,0.315-0.284,0.644-0.526,0.988
		c-0.121,0.165-0.255,0.319-0.439,0.473c-0.209,0.143-0.344,0.258-0.817,0.345c-0.087,0.015-0.175,0.017-0.261,0.056
		c-0.034,0.138,0.02,0.325,0.136,0.434c0.193,0.208,0.506,0.25,0.78,0.219c0.673-0.104,1.184-0.654,1.47-1.248
		c0.286-0.595,0.369-1.272,0.503-1.925c0.134-0.653,0.293-1.32,0.705-1.855c0.061-0.076,0.122-0.128,0.195-0.192
		C82.092,26.733,81.884,26.938,81.884,26.938z"/>
	<path class="st13" d="M79.642,38.556c-1.021-0.338-1.854-1.192-2.179-2.197c-0.121-0.36-0.202-1.108,0.128-1.428
		c-0.731-0.232-0.902-0.078-1.001-0.051c-0.075,0.002-0.36,0.096-0.544,0.263c-0.208,0.168-0.304,0.37-0.304,0.37
		s-0.095,0.202-0.126,0.478c-0.019,0.263,0.088,0.523,0.102,0.61c0.001,0.037,0.001,0.05,0.002,0.062
		c0.152,0.084,0.292,0.168,0.457,0.301c0.153,0.109,0.574,0.474,1.018,0.738c0.101,0.048,0.19,0.108,0.279,0.156
		c0.33,0.192,0.57,0.299,0.57,0.299s0.203,0.108,0.493,0.213c0.139,0.059,0.265,0.094,0.416,0.152
		c0.341,0.129,0.718,0.233,0.97,0.289c0.088,0.023,0.176,0.046,0.226,0.044c-0.063-0.023-0.139-0.047-0.201-0.058
		c0.211-0.068,0.424-0.06,0.623-0.103C80.258,38.716,79.932,38.662,79.642,38.556z"/>
	<path class="st13" d="M22.435,30.836c-0.001-0.025-0.001-0.037-0.002-0.075c-0.296,0.157-0.366,0.384-0.229,0.843
		c0.044,0.249,0.15,0.509,0.195,0.833c0.072,0.386-0.018,0.8-0.236,1.106c-0.096,0.165-0.243,0.306-0.452,0.424l0,0.012
		c0.428,0.127,0.892,0.178,1.248-0.093c0.282-0.207,0.41-0.623,0.376-0.997c-0.047-0.374-0.218-0.72-0.413-1.04
		C22.714,31.529,22.494,31.21,22.435,30.836z"/>
	<path class="st13" d="M21.026,39.196c-0.027-0.099-0.03-0.187-0.007-0.3c-0.049,0.039-0.086,0.065-0.123,0.078
		c-0.098,0.065-0.185,0.092-0.298,0.095c0.005,0.2-0.028,0.376-0.05,0.526c-0.068,0.277-0.113,0.503-0.084,0.652
		c0.006,0.25,0.36,0.429,0.698,0.446c0.325,0.005,0.783-0.207,1.09-0.402c0.148-0.079,0.271-0.169,0.394-0.247
		c0.074-0.052,0.136-0.078,0.185-0.117c-0.212,0.018-0.437,0.011-0.663-0.021C21.692,39.855,21.137,39.669,21.026,39.196z"/>
	<path class="st13" d="M20.508,38.471c0.098-0.09,0.405-0.322,0.7-0.53l0.012,0l0-0.012c0.01-0.113,0.007-0.225-0.045-0.324
		c-0.094-0.26-0.36-0.416-0.601-0.548c-1.217-0.695-2.412-1.504-3.338-2.557c-0.81-0.905-1.412-2.041-1.604-3.249
		c-0.245,0.193-0.476,0.462-0.617,0.853c-0.377,0.959,0.444,2.327,1.585,3.499c0.026,0.024,0.051,0.036,0.064,0.073
		c0.012-0.013,0.012,0,0.012,0c0.294,0.28,0.614,0.573,0.933,0.827c0.408,0.34,0.866,0.641,1.322,0.905
		c0.229,0.144,0.469,0.251,0.722,0.382s0.607,0.298,0.817,0.705C20.484,38.484,20.484,38.484,20.508,38.471z"/>
</g>
<g>
	<path class="st14" d="M84.8,27.592c-0.45-1.027-1.414-1.578-2.176-1.585c-0.774,0.044-1.115,0.415-1.14,0.415
		c0,0-0.111,0.078-0.281,0.269c-0.11,0.115-0.206,0.28-0.301,0.457c-0.073,0.102-0.132,0.241-0.203,0.38
		c-0.012,0.038-0.023,0.076-0.035,0.101c-0.19,0.417-0.326,0.983-0.512,1.55c-0.048,0.101-0.132,0.228-0.167,0.317
		c-0.071,0.177-0.141,0.354-0.263,0.506c-0.036,0.063-0.097,0.115-0.146,0.154c-0.048,0.076-0.121,0.153-0.195,0.217
		c-0.073,0.077-0.234,0.131-0.283,0.169c0,0-0.016-0.137-0.03-0.212c-0.014-0.062-0.028-0.137-0.055-0.186
		c-0.014-0.05-0.015-0.087-0.028-0.137c-0.028-0.137-0.081-0.261-0.147-0.409c-0.12-0.322-0.342-0.679-0.747-0.907
		c-0.381-0.228-0.842-0.167-1.224,0.03c-0.185,0.104-0.369,0.234-0.465,0.399c-0.134,0.153-0.192,0.317-0.289,0.457
		c-0.095,0.19-0.166,0.367-0.224,0.556c-0.023,0.101-0.057,0.214-0.093,0.302c-0.133,0.716-0.1,1.015-0.12,1.228
		c0.003,1.138,0.231,1.77,0.589,2.623l0.013,0l0.012,0l0,0.012c0,0.013,0.001,0.025,0.001,0.037
		c-0.013-0.012-0.013-0.025-0.026-0.037c-0.174,0.054-0.445,0.198-0.628,0.378c-0.281,0.257-0.411,0.585-0.411,0.585
		s-0.167,0.317-0.158,0.691c-0.016,0.388,0.131,0.772,0.221,0.87c0.077,0.098,0.142,0.172,0.205,0.22
		c0.1-0.002,0.406,0.228,0.736,0.432c0.038,0.037,0.064,0.061,0.102,0.073c0.089,0.073,0.204,0.158,0.331,0.229
		c0.039,0.049,0.089,0.073,0.115,0.097c0.012,0,0.038,0.024,0.051,0.036c0.038,0.012,0.051,0.036,0.089,0.073
		c0.026,0.024,0.038,0.037,0.063,0.036c0.026,0.024,0.026,0.024,0.039,0.049c0.013,0,0.013,0,0.013,0
		c0.241,0.157,0.482,0.301,0.634,0.385c0.127,0.072,0.178,0.108,0.178,0.108s0.165,0.109,0.393,0.215
		c0.101,0.048,0.19,0.083,0.315,0.117c0.012,0,0.038,0.012,0.063,0.023c0.013,0.012,0.038,0.012,0.051,0.024
		c0.038,0.024,0.063,0.036,0.114,0.047c0.013,0,0.013,0.012,0.025,0.012c0.012,0,0.012,0,0.025,0.012
		c0.292,0.168,0.571,0.349,0.898,0.441c0.831,0.255,1.699-0.054,2.118-0.802c0,0,0.228-0.406,0.203-0.905
		c0.001-0.463-0.285-0.918-0.413-1.04c-0.064-0.048-0.115-0.097-0.178-0.121c0.683-0.192,1.248-0.58,1.805-1.357
		c0.169-0.229,0.47-0.737,0.812-1.557c0.33-0.821,0.618-1.815,0.793-2.857c0.078-0.389,0.143-0.804,0.183-1.23
		c0.019-0.226,0.027-0.426,0.022-0.626C85.047,28.486,84.999,28.025,84.8,27.592z M80.62,38.682
		c-0.012,0.013-0.037,0.013-0.05,0.014c-0.199,0.042-0.412,0.035-0.623,0.103c0.063,0.011,0.138,0.034,0.201,0.058
		c-0.05,0.001-0.138-0.022-0.226-0.044c-0.251-0.056-0.629-0.16-0.97-0.289c-0.151-0.059-0.277-0.093-0.416-0.152
		c-0.29-0.105-0.493-0.213-0.493-0.213s-0.24-0.107-0.57-0.299c-0.089-0.048-0.178-0.108-0.279-0.156
		c-0.444-0.264-0.865-0.629-1.018-0.738c-0.166-0.133-0.305-0.218-0.457-0.301c0-0.012-0.001-0.025-0.002-0.062
		c-0.015-0.087-0.121-0.347-0.102-0.61c0.031-0.276,0.126-0.478,0.126-0.478s0.095-0.202,0.304-0.37
		c0.183-0.167,0.469-0.261,0.544-0.263c0.099-0.027,0.271-0.182,1.001,0.051l0.013,0c0,0,0-0.013,0.025-0.001
		c0.012-0.013,0.012-0.013,0.013,0c0.063,0.023,0.101,0.06,0.177,0.083c0,0,0.013,0.012,0.025,0.012
		c0.025-0.001,0.025,0.012,0.038,0.012c0,0,0,0,0.013,0.025c1.002,0.576,1.824,1.481,2.945,1.853
		c-0.001-0.037-0.002-0.075-0.015-0.1c0.026,0.049,0.053,0.111,0.067,0.173c0.076,0.036,0.165,0.083,0.24,0.107c0,0,0,0,0,0.013
		C81.557,37.622,81.215,38.48,80.62,38.682z M84.421,29.464c-0.04,0.401-0.118,0.815-0.195,1.217
		c-0.2,1.018-0.464,1.987-0.758,2.744c-0.319,0.758-0.608,1.202-0.765,1.431c-0.52,0.738-0.922,1.173-1.51,1.649
		c-0.013,0-0.013,0-0.025,0.013c-0.013,0-0.013,0-0.025,0.013l-0.013,0l-0.012,0l0,0.012l-0.025,0.001l-0.012,0
		c-0.012,0.013-0.024,0.038-0.073,0.064c-0.014-0.05-0.026-0.062-0.052-0.086c0.012,0,0.012,0,0.025-0.001
		c-0.367-0.204-0.811-0.468-1.066-0.662c-0.038-0.024-0.063-0.036-0.076-0.048c-0.37-0.304-0.725-0.52-0.725-0.52
		s-0.343-0.229-0.761-0.432c-0.43-0.202-0.884-0.354-1.047-0.4s-0.289-0.055-0.414-0.077l-0.025,0.001
		c-0.077-0.073-0.128-0.134-0.204-0.158c0.025-0.526-0.345-1.842-0.337-2.555c0.033-0.176,0.013-0.513,0.111-1.078
		c0.045-0.201,0.078-0.389,0.161-0.591c0.048-0.089,0.109-0.165,0.156-0.254c0.048-0.076,0.071-0.164,0.132-0.228
		c0.243-0.293,0.616-0.39,0.907-0.235c0.303,0.13,0.488,0.526,0.584,0.898c0.027,0.087,0.054,0.174,0.069,0.261
		c0.015,0.112,0.041,0.136,0.058,0.349c0.029,0.162,0.034,0.349,0.074,0.486c0.037-0.013,0.087-0.015,0.125-0.016
		c0.087-0.04,0.174-0.042,0.261-0.056c0.473-0.087,0.608-0.202,0.817-0.345c0.184-0.154,0.318-0.308,0.439-0.473
		c0.242-0.343,0.409-0.673,0.526-0.988c0.234-0.656,0.347-1.146,0.5-1.525c0.012-0.038,0.023-0.063,0.035-0.088
		c0.048-0.076,0.071-0.152,0.108-0.203c0.262-0.519,0.497-0.65,0.497-0.65s0.208-0.205,0.607-0.24
		c0.037-0.013,0.075-0.014,0.112-0.015c0.487-0.037,1.272,0.382,1.603,1.161C84.418,28.301,84.469,28.875,84.421,29.464z"/>
	<path class="st14" d="M25.152,36.646c-0.126-0.034-0.251-0.044-0.351-0.029c0.154-0.341,0.27-0.732,0.372-1.159
		c0.01-0.113,0.033-0.201,0.042-0.314c0.035-0.113,0.043-0.276,0.064-0.464c0.03-0.313,0.045-0.701,0.034-1.176
		c0.012-0.038,0.011-0.075,0.01-0.113c0-0.012-0.001-0.05-0.002-0.062c-0.06-0.924-0.092-2.236-1.14-3.173
		c-0.217-0.17-0.457-0.301-0.709-0.37c-0.441-0.127-0.927-0.09-1.36,0.096c-0.346,0.146-0.689,0.454-0.816,0.87
		c-0.153,0.391-0.081,0.79-0.011,1.075c0.082,0.298,0.163,0.546,0.219,0.77c0.029,0.162-0.005,0.3-0.114,0.44
		c-0.072,0.127-0.122,0.14-0.122,0.14l-0.013,0c-0.026-0.049-0.079-0.173-0.172-0.371c-0.498-0.951-1.155-1.735-1.879-2.217
		c-0.712-0.495-1.467-0.677-1.979-0.677c-0.513,0-0.811,0.082-0.811,0.082s-0.261,0.044-0.744,0.256
		c-0.012,0-0.049,0.026-0.062,0.039c-0.012,0.025-0.024,0.026-0.037,0.038l-0.025,0.001l-0.012,0.013
		c-0.284,0.144-0.604,0.365-0.894,0.747c-0.012,0.013-0.012,0.013-0.037,0.026c-0.158,0.204-0.29,0.42-0.408,0.71
		c-0.315,0.92,0.025,2.062,0.621,2.923c0.247,0.369,0.556,0.749,0.852,1.104c0.115,0.11,0.218,0.232,0.321,0.342
		c0.333,0.342,0.667,0.684,1.074,0.999c0.459,0.376,0.942,0.702,1.449,0.977c0.47,0.289,1.163,0.534,1.193,0.721
		c0.142,0.197-0.157,0.741-0.089,1.465c0.035,0.399,0.332,0.779,0.611,0.948c0.317,0.167,0.668,0.234,0.993,0.213
		c0.399-0.035,0.72-0.193,0.991-0.362c0.086-0.065,0.172-0.117,0.246-0.169c0.062-0.039,0.123-0.078,0.16-0.116
		c0.037-0.026,0.062-0.039,0.074-0.052c0.074-0.052,0.148-0.091,0.222-0.143c0.024-0.026,0.073-0.064,0.098-0.09
		c0.246-0.156,0.443-0.298,0.578-0.377c0.062-0.039,0.122-0.103,0.184-0.142c0.037-0.038,0.073-0.064,0.11-0.103l0.025-0.001
		c0.013,0.025,0.014,0.05,0.039,0.062c0.063,0.036,0.212-0.018,0.336-0.071c0.124-0.028,0.21-0.093,0.21-0.105
		c0,0,0.062-0.039,0.135-0.116c0.013,0,0.013,0,0.013,0c0.063,0.011,0.088,0.023,0.163,0.034c0.162-0.016,0.644-0.253,0.934-0.648
		c0.158-0.166,0.241-0.381,0.274-0.544c0.046-0.164,0.043-0.289,0.043-0.289s0.064-0.464-0.146-0.872
		C25.71,36.995,25.303,36.704,25.152,36.646z M25.226,38.156c0,0-0.023,0.063-0.047,0.139c-0.048,0.076-0.096,0.165-0.169,0.254
		c-0.145,0.216-0.405,0.31-0.479,0.349c-0.012,0.025-0.048,0.064-0.06,0.089c-0.309,0.133-0.606,0.277-0.939,0.473l0,0.013
		c-0.099,0.052-0.197,0.13-0.32,0.208c-0.086,0.052-0.172,0.129-0.319,0.245l-0.012,0l-0.013,0l-0.025,0.001l-0.013,0
		c-0.049,0.039-0.111,0.065-0.185,0.117c-0.123,0.078-0.246,0.169-0.394,0.247c-0.308,0.195-0.765,0.406-1.09,0.402
		c-0.338-0.017-0.692-0.196-0.698-0.446c-0.029-0.149,0.016-0.375,0.084-0.652c0.021-0.151,0.055-0.326,0.05-0.526
		c0.112-0.003,0.199-0.03,0.298-0.095c0.037-0.013,0.074-0.039,0.123-0.078c-0.013-0.012-0.013-0.012,0-0.012
		c0.148-0.091,0.344-0.246,0.541-0.388c0.271-0.169,0.543-0.301,0.543-0.301s0.259-0.156,0.517-0.313
		c0.296-0.157,0.63-0.315,0.729-0.368c0.211-0.08,0.294-0.232,0.441-0.386c-0.189-0.045-0.353-0.104-0.589-0.048
		c-0.125,0.016-0.51,0.125-0.819,0.257c-0.334,0.133-0.606,0.29-0.606,0.29s-0.271,0.144-0.555,0.301l0,0.012l-0.012,0
		c-0.295,0.207-0.602,0.44-0.7,0.53c-0.025,0.013-0.025,0.013-0.037,0.026c-0.21-0.407-0.564-0.574-0.817-0.705
		s-0.493-0.238-0.722-0.382c-0.456-0.264-0.914-0.565-1.322-0.905c-0.319-0.255-0.638-0.547-0.933-0.827c0,0,0-0.013-0.012,0
		c-0.013-0.037-0.039-0.049-0.064-0.073c-1.141-1.172-1.962-2.54-1.585-3.499c0.141-0.391,0.371-0.659,0.617-0.853
		c0.147-0.116,0.283-0.194,0.406-0.26c0.359-0.159,0.558-0.189,0.558-0.189s0.223-0.068,0.611-0.065
		c0.375,0.016,0.941,0.14,1.526,0.55c0.56,0.399,1.138,1.06,1.534,1.913c0.116,0.147,0.151,0.571,0.708,0.833
		c0.24,0.094,0.513,0.037,0.724-0.055l0.013,0l0-0.012c0.21-0.118,0.356-0.259,0.452-0.424c0.218-0.305,0.307-0.72,0.236-1.106
		c-0.045-0.324-0.152-0.584-0.195-0.833c-0.136-0.459-0.067-0.686,0.229-0.843c0.012-0.013,0.025-0.013,0.049-0.026
		c0.346-0.146,0.835-0.095,1.091,0.136c0.663,0.546,0.803,1.668,0.825,2.543c0.001,0.037,0.002,0.087,0.003,0.137l0,0.013
		c0.004,0.662-0.059,1.177-0.102,1.453c0,0.013,0,0.013,0.001,0.025c0.013,0,0.025-0.001,0.025-0.001
		c-0.013,0-0.012,0.013-0.025,0.013c-0.012,0.038-0.011,0.05-0.011,0.075c-0.033,0.188-0.054,0.364-0.075,0.514
		c-0.063,0.502-0.103,0.915-0.129,1.378c-0.008,0.2-0.027,0.438-0.046,0.689c0.206-0.255,0.376-0.472,0.532-0.738l0.013,0
		c0.012-0.025,0.048-0.076,0.06-0.101c0.052,0.086,0.117,0.185,0.194,0.283c0.064,0.073,0.295,0.293,0.351,0.567
		C25.271,37.955,25.239,38.169,25.226,38.156z"/>
</g>
<g>
	<path class="st15" d="M81.118,36.533c0,0-0.025,0.001-0.037,0.001c-0.013,0-0.025,0.001-0.025,0.001
		c-0.013,0-0.013-0.012-0.038-0.012l-0.013,0l-0.012,0l-0.013,0c-0.013,0-0.013,0-0.025,0.001c0.026,0.024,0.038,0.037,0.052,0.086
		c0.049-0.026,0.061-0.052,0.073-0.064l0.012,0l0.025-0.001L81.118,36.533z"/>
	<path class="st15" d="M76.288,34.287l-0.012,0l-0.013,0l0,0.012c0.013,0.012,0.013,0.025,0.026,0.037
		c0-0.012-0.001-0.025-0.001-0.037L76.288,34.287z"/>
	<path class="st15" d="M66.943,92.034c0.05-0.014,0.074-0.039,0.123-0.065c-0.05,0.014-0.074,0.027-0.112,0.028
		C66.942,92.009,66.943,92.022,66.943,92.034z"/>
	<path class="st15" d="M61.637,59.497l0.012,0l0.013,0c0.012-0.038,0.012-0.038,0.036-0.051c-0.076-0.023-0.151-0.034-0.226-0.044
		C61.536,59.45,61.574,59.474,61.637,59.497z"/>
	<path class="st15" d="M57.006,57.185c0.025-0.001,0.062-0.014,0.087-0.015c-0.05,0.001-0.075-0.011-0.126-0.034
		C56.992,57.16,56.993,57.172,57.006,57.185z"/>
	<path class="st15" d="M50.116,45.339c0.024-0.026,0.049-0.026,0.073-0.064c-0.05,0.014-0.112,0.028-0.149,0.054
		C50.066,45.327,50.079,45.339,50.116,45.339z"/>
	<path class="st15" d="M43.874,96.496c0-0.012,0-0.012,0.024-0.026c-0.025,0.001-0.037,0.001-0.037,0.001L43.874,96.496z"/>
	<path class="st15" d="M40.34,55.09c0.025-0.013,0.036-0.051,0.073-0.064c-0.05,0.001-0.075,0.002-0.125,0.003
		C40.301,55.041,40.327,55.053,40.34,55.09z"/>
	<path class="st15" d="M38.652,42.242c-0.024,0.026-0.037,0.038-0.049,0.039c0,0,0,0.013,0.013,0.012c0.013,0,0.013,0,0.038,0.012
		c0.038,0.012,0.088,0.023,0.113,0.022c-0.038-0.024-0.076-0.048-0.102-0.085C38.652,42.242,38.652,42.242,38.652,42.242z"/>
	<path class="st15" d="M24.3,35.054c0.013,0,0.012-0.013,0.025-0.013c0,0-0.013,0-0.025,0.001L24.3,35.054z"/>
	<path class="st15" d="M64.923,18.875c-0.593-0.723-1.419-1.303-2.316-1.681c-0.202-0.083-0.392-0.178-0.606-0.235
		c-0.327-0.08-0.666-0.159-1.017-0.188c-0.363-0.029-0.701-0.02-1.038,0c-0.062,0.002-0.125,0.003-0.175,0.004
		c-1.036,0.088-1.992,0.324-2.856,0.295c-0.025,0.001-0.075,0.002-0.1,0.002c-1.175,0.004-2.28-0.182-3.198-0.397
		c-0.981-0.226-1.76-0.42-2.314-0.544c-0.566-0.124-0.892-0.178-0.892-0.178s-0.289-0.068-0.879-0.166
		c-0.264-0.044-0.602-0.073-0.99-0.101l0-0.013c-0.088-0.01-0.188-0.008-0.3-0.018c-0.338-0.029-0.726-0.032-1.138-0.01
		c-0.312,0.008-0.636,0.053-0.973,0.099c-0.099,0.027-0.211,0.043-0.311,0.058c-0.834,0.158-1.74,0.43-2.629,0.864
		c-1.038,0.488-2.072,1.176-2.949,2.097c-0.903,0.897-1.576,2.014-2.01,3.174c-0.625,1.54-0.847,3.196-0.712,4.643
		c0.05,0.499,0.15,1.034,0.261,1.481c0.014,0.075,0.042,0.187,0.069,0.273c0.041,0.161,0.095,0.323,0.124,0.472
		c0.026,0.037,0.039,0.062,0.053,0.111c0.093,0.235,0.185,0.408,0.251,0.544c0.288,0.543,0.647,0.897,1.065,1.112
		c0.188,0.119,0.411,0.175,0.633,0.195c-0.012-0.118-0.021-0.215-0.028-0.285c-0.132-0.069-0.265-0.148-0.363-0.241
		c-0.294-0.255-0.527-0.6-0.801-1.043c-0.041-0.137-0.133-0.347-0.214-0.595c-0.041-0.124-0.082-0.273-0.136-0.434
		c-0.028-0.124-0.057-0.286-0.086-0.435c-0.084-0.373-0.157-0.809-0.192-1.22c-0.221-2.395,0.633-5.341,2.56-7.288
		c0.646-0.678,1.37-1.234,2.122-1.652l0-0.013c1.467-0.836,3.058-1.225,4.295-1.242c0.4-0.01,0.775-0.006,1.113,0.023l0.013,0
		c0.464,0.039,0.865,0.104,1.167,0.159c0.552,0.099,0.842,0.167,0.842,0.167s0.314,0.08,0.868,0.204
		c0.541,0.149,1.346,0.33,2.289,0.582c0.968,0.227,2.162,0.472,3.5,0.477c1.351,0.03,2.703-0.391,3.969-0.272
		c1.266,0.132,2.483,0.84,3.332,1.819c0.849,0.979,1.292,2.244,1.406,3.341c0.08,0.711,0.044,1.299,0.026,1.587
		c-0.082,0.727-0.141,1.081-0.14,1.656v-0.107c-0.024,0.038-0.053,0.427-0.053,0.427c0.002,0.075-0.146,0.507-0.23,0.672
		c0.011,0.005,0.023,0.008,0.034,0.012l-0.83,2.22c-0.07,0.189-0.295,0.707-0.559,1.189c-0.276,0.469-0.542,0.863-0.542,0.863
		s0.011-0.492-0.22-0.211l-0.193,0.709c-0.033,0.176-0.079,0.352-0.149,0.554c-0.082,0.24,0.379-0.661,0.129-0.143
		c0.183-0.167-0.5,0.835-0.16,0.426c0.528-0.588,1.182-0.816,1.603-1.521c0.737-1.234,1.247-2.587,1.661-3.959
		c0.149-0.493,0.328-0.973,0.433-1.477c0.014-0.065,0.03-0.258,0.048-0.491c0.056-0.219,0.104-0.456,0.132-0.73
		c0.017-0.338,0.064-0.964-0.031-1.787C66.45,21.488,65.926,19.988,64.923,18.875z"/>
	<path class="st15" d="M42.306,7.5l0.816,0.655c0.218,0.232,0.461,0.439,0.68,0.696c0.103,0.11,0.218,0.232,0.296,0.355
		c0.683,0.858,1.134,1.885,1.356,2.792c0.179,0.683,0.231,1.269,0.238,1.569c0.016,0.137,0.018,0.237,0.021,0.35
		c0.21-0.093,0.433-0.186,0.693-0.292c0.074-0.027,0.148-0.066,0.223-0.08c0-0.013,0-0.013,0-0.013
		c-0.008-0.337-0.086-0.973-0.268-1.756c-0.304-1.18-0.936-2.49-1.849-3.555c-0.245-0.294-0.488-0.526-0.757-0.782l-0.79-0.631
		c-0.129-0.159-0.116-0.147-0.047-0.386c0.07-0.202,0.302-0.445,0.496-0.7c0.681-0.779,1.454-1.386,2.254-1.893
		c0.221-0.143,0.418-0.273,0.641-0.378c0.234-0.131,0.494-0.262,0.741-0.356c0.779-0.369,1.572-0.626,2.256-0.805
		c1.777-0.431,2.989-0.448,2.989-0.448s1.198-0.104,3.076,0.025c0.865,0.091,1.916,0.153,2.96,0.403
		c0.075,0.011,0.139,0.047,0.214,0.057c0.566,0.136,1.121,0.36,1.591,0.661c0.241,0.157,0.484,0.363,0.651,0.547
		c0.142,0.197,0.143,0.209,0.074,0.461c-1.293,2.344-2.046,5.325-2.049,7.751c0,0.513,0.012,1,0.047,1.436l0.025-0.001
		c0.303,0.118,0.568,0.224,0.783,0.344c-0.014-0.05-0.014-0.075-0.015-0.112c-0.023-0.449-0.026-1.074,0.01-1.638
		c0.067-2.377,0.753-5.006,2.069-7.439c0.083-0.202,0.152-0.429,0.108-0.715c-0.045-0.299-0.175-0.533-0.305-0.705
		c-0.282-0.306-0.55-0.512-0.868-0.729c-0.597-0.398-1.241-0.645-1.857-0.805l-0.013,0c-1.27-0.319-2.373-0.417-3.363-0.506
		c-1.941-0.153-3.213-0.022-3.213-0.022s-0.287,0.02-0.849,0.058c-0.561,0.076-1.371,0.183-2.315,0.431
		c-0.708,0.18-1.515,0.437-2.343,0.795c-0.284,0.144-0.581,0.277-0.877,0.446c-0.247,0.143-0.505,0.3-0.751,0.456
		c-0.788,0.507-1.573,1.126-2.254,1.893c-0.062,0.039-0.098,0.102-0.147,0.141c-0.231,0.281-0.487,0.537-0.664,0.954
		c-0.107,0.215-0.176,0.492-0.119,0.778C41.947,7.108,42.153,7.366,42.306,7.5z"/>
</g>
<g>
	<path class="st16" d="M39.976,30.769c0.003,0,0.006,0.001,0.009,0.002c0.033,0.324,0.09,0.635,0.146,0.872
		c0.219,0.795,0.429,1.177,0.429,1.177s0.173,0.433,0.627,1.097c0.132,0.272,0.364,0.554,0.609,0.873
		c0.103,0.135,0.219,0.257,0.322,0.367c0.335,0.404,0.733,0.832,1.218,1.233c1.816,1.669,4.931,3.318,8.471,3.407
		c0.1,0.01,0.163,0.009,0.263,0.006c0.25-0.006,0.488,0.013,0.737-0.005c0.175-0.004,0.349-0.034,0.524-0.05
		c0.075-0.002,0.137-0.003,0.212-0.03c0.462-0.036,0.897-0.122,1.357-0.233c0.075-0.014,0.136-0.041,0.211-0.043
		c1.875-0.508,3.587-1.563,4.931-2.858c0.147-0.129,0.318-0.283,0.464-0.436c0.634-0.666,1.166-1.416,1.56-2.151
		c0.084-0.127,0.144-0.266,0.203-0.38l0.012-0.025c0.25-0.519,0.414-0.96,0.496-1.2c0.07-0.202,0.116-0.378,0.149-0.554l0-0.013
		c0.17-0.717,0.46-3.629-0.073-5.495c-0.087,0.027-0.606,0.026-0.693,0.053c0.373,2.293,0.063,4.783-0.206,5.552
		c-0.024,0.038-0.035,0.101-0.046,0.151c-0.106,0.265-0.318,0.82-0.665,1.429c-0.43,0.811-1.024,1.588-1.732,2.292
		c-0.098,0.065-0.184,0.154-0.269,0.232c-1.711,1.604-4.033,2.786-6.494,2.846c-3.633,0.214-6.962-1.481-8.828-3.16
		c-0.946-0.852-1.604-1.686-1.993-2.277c-0.403-0.615-0.537-0.987-0.537-0.987s-0.209-0.357-0.375-1.041
		c-0.179-0.671-0.267-1.706-0.021-2.925c0.22-1.243,0.823-2.645,1.804-3.944c0.969-1.299,2.365-2.458,3.985-3.21
		c3.297-1.68,7.333-0.741,10.428,0.059c0.756,0.232,1.526,0.538,2.07,0.825c0.152,0.071,0.279,0.143,0.405,0.215
		c0.229,0.144,0.406,0.253,0.533,0.337c0.572,0.386,1.394,1.279,1.448,1.44c0.027,0.099,0.16,0.396,0.229,0.682
		c0.094,0.273,0.126,0.534,0.126,0.534s0.056,0.261,0.064,0.561c0.018,0.225,0.023,0.412,0.026,0.562c0.25-0.006,0.5,0,0.726,0.02
		c-0.004-0.162-0.023-0.412-0.079-0.673c-0.07-0.311-0.127-0.609-0.127-0.609s-0.081-0.261-0.201-0.57
		c-0.041-0.124-0.094-0.273-0.147-0.396c0.025,0.012,0.038,0.037,0.064,0.061c-0.384-0.866-0.713-1.558-1.668-2.272
		c-0.127-0.084-0.331-0.242-0.597-0.385c-0.127-0.072-0.266-0.156-0.406-0.24c-0.583-0.311-1.429-0.678-2.21-0.921
		c-1.625-0.51-3.434-0.866-5.326-1.045c-1.904-0.154-3.985,0.135-5.739,0.99c-1.78,0.831-3.275,2.08-4.328,3.493
		c-1.066,1.401-1.704,2.942-1.983,4.299c-0.155,0.816-0.175,1.554-0.122,2.191c-0.007-0.003-0.012-0.009-0.018-0.012
		C39.955,30.555,39.964,30.652,39.976,30.769z"/>
	<path class="st16" d="M76.206,92.033c-0.215-0.095-0.909-0.365-1.61-0.398c-0.075,0.002-0.151-0.021-0.213-0.02
		c-0.612,0.015-1.107,0.24-1.107,0.24s-0.595,0.202-1.095,0.727c-0.271-0.343-0.603-0.635-1.135-0.91
		c-0.165-0.096-0.445-0.289-1.113-0.535c-0.379-0.153-0.919-0.278-1.496-0.351c0.158-0.204,0.327-0.445,0.507-0.737
		c0.156-0.279,0.48-0.824,0.801-1.507c0.822-1.67,1.557-3.813,1.919-5.91c0.361-2.122,0.361-4.172,0.25-5.657
		c-0.068-0.736-0.108-1.348-0.155-1.759c-0.002-0.1-0.017-0.2-0.019-0.275c-0.014-0.062-0.015-0.112-0.016-0.162
		c-0.016-0.15-0.03-0.224-0.03-0.224s-0.086-0.948-0.296-2.418c-0.223-1.445-0.56-3.487-1.421-5.466
		c-0.874-1.991-2.281-3.82-3.761-5.034c-0.345-0.304-0.74-0.595-1.032-0.813c-0.152-0.096-0.293-0.205-0.407-0.278
		c-0.254-0.144-0.469-0.264-0.596-0.348c-0.975-0.526-1.641-0.635-2.481-0.752c-0.025,0.013-0.025,0.013-0.036,0.051
		c0.7,0.496,1.198,0.921,2.048,1.45c0.14,0.084,0.318,0.217,0.559,0.374c0.102,0.085,0.229,0.169,0.369,0.266
		c0.28,0.193,0.649,0.472,0.957,0.777c1.341,1.18,2.657,2.861,3.453,4.716c0.795,1.831,1.13,3.773,1.339,5.205
		c0.185,1.433,0.283,2.381,0.283,2.381s0.11,0.935,0.221,2.382c0.098,1.448,0.095,3.386-0.256,5.394
		c-0.351,1.996-1.052,4.039-1.864,5.609c-0.309,0.658-0.621,1.19-0.765,1.444c-0.301,0.482-0.491,0.9-0.656,1.304
		c-0.436,0.061-0.871,0.159-1.255,0.318c-0.643,0.278-1.159,0.678-1.488,1.024c-0.329,0.346-0.472,0.624-0.472,0.624
		s-0.073,0.089-0.204,0.368c-0.072,0.139-0.141,0.378-0.173,0.579c0.001,0.025,0.001,0.025,0.001,0.025s0,0-0.012,0
		c-0.126-0.022-0.276-0.043-0.439-0.039c-0.325,0.008-0.674,0.029-1.06,0.126c-0.746,0.181-1.498,0.612-1.963,1.023
		c-0.367,0.346-0.634,0.641-0.816,0.895c-0.048,0.076-0.084,0.14-0.133,0.191c-0.108,0.178-0.167,0.342-0.227,0.443
		c-0.273,0.594-0.335,1.133-0.248,1.619c0.031,0.237,0.101,0.56,0.418,0.752c0.013,0.012,0.026,0.024,0.038,0.024
		c0.147-0.641,0.419-1.273,0.806-1.807c-0.001-0.037,0.011-0.05,0.023-0.076c0.094-0.227,0.309-0.645,0.885-1.147
		c0.367-0.321,0.934-0.648,1.493-0.799c0.286-0.082,0.548-0.101,0.785-0.107c0.125-0.003,0.226,0.032,0.313,0.03
		c0.2,0.008,0.389,0.078,0.54,0.099c0.938,0.515,0.547-0.626,0.677-0.967c0.044-0.239,0.092-0.315,0.127-0.428
		c0.083-0.202,0.119-0.24,0.119-0.24s0.096-0.177,0.327-0.433c0.231-0.268,0.624-0.565,1.106-0.777
		c0.124-0.041,0.298-0.082,0.435-0.123c0.037-0.001,0.062-0.014,0.112-0.028c0.336-0.083,0.709-0.155,1.06-0.126
		c0.551,0.037,1.055,0.187,1.433,0.315c0.567,0.199,0.821,0.355,0.986,0.451c0.444,0.252,0.823,0.43,1.214,0.57
		c-0.228,0.406-0.355,0.821-0.35,1.021c-0.063,0.477,0.193,0.745,0.413,1.04c-0.034-0.374,0.16-0.616,0.227-0.943
		c0.009-0.15,0.137-0.541,0.378-0.884c0.073-0.089,0.146-0.179,0.232-0.243c0.012-0.013,0.012-0.025,0.024-0.038
		c0.39-0.41,0.861-0.571,0.861-0.571s0.471-0.174,1.045-0.2c0.586-0.064,1.227,0.095,1.441,0.14
		c0.076,0.023,0.389,0.078,1.005,0.201C76.791,92.432,76.611,92.236,76.206,92.033z"/>
	<path class="st16" d="M65.247,50.633c0.027-1.438-0.182-2.871-0.576-4.136c-0.04-0.112-0.067-0.198-0.108-0.31
		c-0.069-0.248-0.174-0.483-0.267-0.706c0,0,0,0,0-0.013c-0.027-0.087-0.055-0.199-0.107-0.285c-0.027-0.099-0.08-0.198-0.119-0.285
		c-0.039-0.062-0.066-0.136-0.079-0.173c-0.052-0.086-0.079-0.161-0.131-0.247c-0.08-0.198-0.171-0.358-0.25-0.506
		c-0.078-0.123-0.156-0.259-0.196-0.345c-0.208-0.332-0.402-0.603-0.633-0.822c-0.322-0.367-0.665-0.621-1.084-0.874
		c-0.06,0.102-0.108,0.203-0.205,0.305c0.291,0.655,0.517,1.2,0.985,1.951c0.144,0.259,0.431,0.765,0.722,1.433
		c0.609,1.385,1.003,3.201,0.959,4.99c-0.044,1.801-0.536,3.651-1.335,5.258c-1.644,3.315-4.604,5.488-6.968,6.483
		c-1.174,0.554-2.219,0.779-2.939,0.959c-0.274,0.057-0.485,0.087-0.672,0.116c-0.299,0.057-0.46,0.086-0.46,0.086
		s-0.411,0.047-1.16,0.103c-0.25,0.006-0.525,0.013-0.862,0.008c-0.625,0.003-1.364-0.042-2.193-0.197
		c-1.255-0.207-2.729-0.659-4.173-1.449c-1.255-0.72-2.454-1.69-3.52-2.852c-0.064-0.073-0.141-0.147-0.205-0.22
		c-0.103-0.11-0.193-0.208-0.283-0.318c-2.105-2.442-3.34-5.738-3.469-8.713l0.031,0.088c-0.165-2.445,1.065-4.487,1.901-5.577
		c0.057-0.049,0.121-0.091,0.175-0.129c0.123-0.078,0.159-0.129,0.219-0.255c0.048-0.101,0.227-0.431,0.523-0.6
		c0.16-0.091,0.223-0.093,0.507-0.237c0.222-0.13,0.358-0.196,0.37-0.197c-0.016-0.137-0.016-0.137-0.016-0.137
		s-0.002-0.062-0.029-0.149c-0.002-0.087-0.031-0.262-0.02-0.3c0.01-0.113,0.056-0.276,0.127-0.441
		c0.154-0.366,0.471-0.662,0.57-0.739c0.061-0.052,0.11-0.09,0.159-0.129c-0.213-0.032-0.439-0.064-0.676-0.059
		c0,0-0.013,0-0.012,0.025c-0.025,0.001-0.037,0.026-0.023,0.101c-0.012,0.025-0.048,0.064-0.085,0.09
		c-0.073,0.064-0.082,0.215-0.181,0.267c-0.133,0.166-0.28,0.294-0.28,0.294s-0.024,0.026-0.061,0.064
		c-0.049,0.039-0.11,0.103-0.183,0.179c-0.035,0.101-0.045,0.189-0.068,0.277c-0.01,0.1-0.009,0.125-0.009,0.125
		s-0.025,0.001-0.062,0.014c-0.112,0.04-0.347,0.121-0.495,0.212c-0.185,0.117-0.343,0.283-0.477,0.437
		c-0.099,0.027-0.223,0.08-0.322,0.108c-0.112,0.028-0.236,0.068-0.348,0.096c-0.025,0.013-0.025,0.013-0.037,0.013
		c-0.196,0.18-0.39,0.397-0.56,0.614c-0.243,0.306-0.471,0.674-0.672,1.141c-0.047,0.139-0.153,0.379-0.234,0.668
		c-0.034,0.138-0.081,0.277-0.139,0.466c-0.159,0.641-0.338,1.533-0.368,2.359c-0.267,3.394,0.956,7.44,3.354,10.432
		c-0.298,0.07-0.621,0.178-0.991,0.362c-0.148,0.079-0.357,0.209-0.591,0.364c-0.135,0.091-0.283,0.169-0.431,0.261
		c-0.332,0.246-0.736,0.581-1.103,0.927c-1.014,0.962-1.998,2.161-2.878,3.471c-0.278,0.407-0.554,0.851-0.794,1.282
		c-0.108,0.19-0.241,0.381-0.336,0.571c-1.076,2.026-1.788,4.107-2.175,5.654c-0.18,0.805-0.29,1.445-0.379,1.897
		c-0.101,0.465-0.108,0.703-0.108,0.703s-0.044,0.264-0.082,0.727c-0.076,0.452-0.11,1.115-0.153,1.916
		c-0.006,0.263,0.001,0.575-0.004,0.863c0.005,0.212,0.011,0.437,0.016,0.675c0.033,1.349,0.158,2.896,0.522,4.488
		c0.436,1.977,1.16,3.985,1.975,5.628c-0.19-0.083-0.492-0.163-0.792-0.193c-0.075-0.011-0.15-0.009-0.225-0.007
		c-0.435,0.111-0.879,0.346-1.208,0.692c-0.293,0.282-0.497,0.625-0.676,1.004c0.112-0.003,0.199-0.03,0.261-0.081
		c0.073-0.064,0.331-0.258,0.603-0.39c0.297-0.12,0.584-0.164,0.584-0.164s0.274-0.044,0.587-0.027
		c0.314,0.042,0.628,0.135,0.716,0.158c0.101,0.035,0.188,0.033,0.312-0.008c0.087-0.015,0.198-0.08,0.31-0.108
		c0.314,0.555,0.55,1.012,0.73,1.245c0.104,0.16,0.219,0.257,0.322,0.392c-0.826-0.017-1.358,0.183-1.618,0.289
		c-1.188,0.516-1.653,1.428-1.603,2.439c0.656-0.791,1.163-1.003,2.028-1.425c0.223-0.08,0.668-0.279,1.382-0.221
		c0.151,0.034,0.326,0.042,0.49,0.113c0.075,0.011,0.151,0.059,0.227,0.094l0.139,0.059l0.279,0.181l0.304,0.168
		c0.087-0.002,0.172-0.117,0.258-0.169l0.441-0.361c0.172-0.142,0.344-0.258,0.503-0.387c0.665-0.429,1.248-0.618,1.248-0.618
		s0.693-0.279,1.532-0.25c0.876,0.029,1.788,0.507,2.149,0.973c0.347,0.404,0.379,0.678,0.445,0.814
		c0.124,0.472,0.158,0.859,0.143,1.234c-0.018,0.275-0.049,0.576-0.178,0.892c-0.136,0.066-0.283,0.169-0.38,0.309
		c-0.391,0.36-0.628,0.903-0.649,1.078c-0.024,0.026-0.023,0.076-0.023,0.101c0.428-0.398,0.921-0.672,1.467-0.836
		c0.223-0.068,0.435-0.111,0.659-0.129c0.087-0.015,0.211-0.043,0.324-0.045c0.162-0.004,0.326,0.03,0.476,0.051
		c0.012-0.013,0.05-0.001,0.063-0.002c0.114,0.047,0.227,0.082,0.278,0.118c0.076,0.023,0.151,0.021,0.238,0.019
		c0.05-0.001,0.088,0.01,0.15,0.009l0.012,0c0.214,0.057,0.404,0.14,0.606,0.248c0-0.525-0.024-1-0.015-1.65
		c0.019-0.238,0.032-0.726,0.417-1.373c0.36-0.621,1.191-1.392,1.969-1.798c0.79-0.432,1.473-0.586,1.473-0.586
		s0.82-0.22,1.822-0.119c0.99,0.088,2.041,0.638,2.577,1.1c0.472,0.389,0.64,0.622,0.756,0.757c0.556,0.762,0.906,1.253,1.224,2.02
		c-0.194,0.23-0.314,0.433-0.375,0.522c-0.059,0.126-0.082,0.227-0.117,0.315c0.394-0.247,0.852-0.433,1.273-0.606
		s0.792-0.344,1.24-0.405c0.074-0.027,0.137-0.028,0.199-0.03c0.062-0.014,0.1-0.015,0.1-0.015s0.448-0.073,0.966,0.127
		c0.215,0.082,0.43,0.202,0.609,0.348c0.013,0.037,0.051,0.049,0.064,0.061c0.013,0.012,0.038,0.012,0.063,0.023
		c0.026,0.024,0.038,0.037,0.076,0.061c0.115,0.097,0.205,0.208,0.256,0.244c0.219,0.282,0.484,0.388,0.742,0.682
		c0.011-0.05,0.023-0.101,0.021-0.151c0.067-0.327,0.072-0.639-0.161-0.984c-0.105-0.222-0.646-0.859-1.34-1.105
		c-0.683-0.321-1.381-0.229-1.381-0.229s-0.712,0.017-1.341,0.395c-0.309,0.158-0.553,0.376-0.773,0.606
		c0.055-0.801-0.062-1.536-0.671-2.396c-0.142-0.172-0.349-0.467-0.86-0.929c-0.319-0.267-0.752-0.594-1.296-0.856
		c-0.556-0.261-1.173-0.422-1.775-0.507c-1.166-0.134-2.122,0.152-2.122,0.152s-0.796,0.157-1.722,0.642
		c-0.901,0.497-1.855,1.333-2.348,2.145c-0.541,0.876-0.538,1.538-0.568,1.839c0.005,0.187,0.021,0.35,0.025,0.524
		c-0.215-0.095-0.517-0.175-0.817-0.168c-0.425-0.015-0.773,0.094-0.909,0.16c0.4-0.522,0.608-1.202,0.412-2.085
		c-0.08-0.211-0.127-0.609-0.617-1.198c-0.245-0.307-0.666-0.671-1.148-0.922c-0.518-0.237-1.097-0.386-1.648-0.435
		c-1.089-0.073-1.931,0.272-1.931,0.272s-0.708,0.205-1.496,0.699c-0.197,0.142-0.368,0.271-0.577,0.427
		c-0.025,0.013-0.025,0.013-0.049,0.039c-0.103-0.11-0.205-0.208-0.295-0.305c-0.232-0.294-0.465-0.626-0.751-1.057
		c-0.168-0.221-0.469-0.764-0.834-1.392c-0.915-1.653-1.768-3.82-2.22-5.959c-0.334-1.405-0.468-2.789-0.51-4.001
		c-0.005-0.212-0.023-0.449-0.028-0.649c0.003-0.4,0.006-0.775,0.01-1.125c0.031-0.776,0.053-1.414,0.13-1.841
		c0.052-0.451,0.07-0.702,0.07-0.702s0.031-0.251,0.109-0.665c0.089-0.452,0.199-1.067,0.368-1.834
		c0.364-1.484,1.04-3.488,2.056-5.413c0.99-1.962,2.395-3.796,3.775-5.143c0.329-0.333,0.722-0.63,1.017-0.85
		c0.148-0.091,0.246-0.181,0.356-0.271c0.221-0.155,0.419-0.26,0.542-0.338c0.395-0.222,0.716-0.393,1.024-0.55
		c2.408,2.867,5.799,4.559,8.446,4.92c1.369,0.254,2.506,0.239,3.293,0.207c0.786-0.069,1.234-0.13,1.234-0.13
		s0.449-0.061,1.233-0.205c0.746-0.168,1.865-0.433,3.126-1.001c1.683-0.716,3.677-2.002,5.357-3.856
		c-0.063-0.023-0.101-0.048-0.165-0.096c0.075,0.011,0.151,0.021,0.226,0.044c0.791-0.894,1.516-1.925,2.1-3.076
		C64.668,54.598,65.22,52.597,65.247,50.633z"/>
</g>
</svg>
