<?xml version="1.0" encoding="utf-8"?>
<!-- Generator: Adobe Illustrator 19.2.0, SVG Export Plug-In . SVG Version: 6.00 Build 0)  -->
<svg version="1.1" id="Layer_4" xmlns="http://www.w3.org/2000/svg" xmlns:xlink="http://www.w3.org/1999/xlink" x="0px" y="0px"
	 viewBox="0 0 100 100" style="enable-background:new 0 0 100 100;" xml:space="preserve">
<style type="text/css">
	.st0{fill:#C94A41;stroke:#C94A41;stroke-width:0.04;stroke-miterlimit:10;}
	.st1{fill:#F46856;stroke:#F46856;stroke-width:0.04;stroke-miterlimit:10;}
	.st2{fill:#DCEDF9;stroke:#DCEDF9;stroke-width:0.04;stroke-miterlimit:10;}
	.st3{fill:#B2C7D3;stroke:#B2C7D3;stroke-width:0.04;stroke-miterlimit:10;}
	.st4{fill:#748191;stroke:#748191;stroke-width:0.04;stroke-miterlimit:10;}
</style>
<g id="XMLID_2_">
	<path class="st0" d="M49.717,25.644l0.253,0.273c-0.182,0-0.364,0-0.557-0.03c-0.243-0.03-0.476-0.051-0.739-0.101h-0.01
		c-0.162-0.04-0.314-0.091-0.466-0.142l-0.202-0.334c0.111,0.04,0.223,0.081,0.334,0.121c0.243,0.071,0.486,0.101,0.719,0.142
		c0.223,0.051,0.445,0.051,0.648,0.071h0.01H49.717z"/>
	<path class="st0" d="M49.565,27.274l-0.314,0.213c-0.213,0.03-0.476,0.091-0.779,0.111c-0.192,0.02-0.405,0.04-0.628,0.061
		c-0.223,0.01-0.455-0.02-0.698-0.01c-0.051,0-0.091,0-0.142-0.01l0.678-0.314c0.111,0.01,0.223,0.02,0.334,0.02
		c0.273,0,0.536,0.01,0.79,0.01c0.253-0.03,0.496-0.051,0.709-0.071C49.535,27.284,49.545,27.284,49.565,27.274z"/>
	<path class="st0" d="M49.241,26.728l0.294,0.263c-0.709,0.04-1.336,0.02-1.893-0.061c-0.03-0.061-0.051-0.132-0.091-0.192
		c0.283,0.04,0.567,0.051,0.83,0.04C48.684,26.788,48.968,26.758,49.241,26.728z"/>
	<path class="st0" d="M49.261,26.07c-0.02,0-0.04,0-0.071,0.01c-0.253,0.03-0.526-0.01-0.8-0.01c-0.273,0-0.557-0.01-0.84-0.071
		c-0.061-0.01-0.132-0.01-0.192-0.03c0.152-0.061,0.354-0.101,0.536-0.121c0.243,0.071,0.496,0.121,0.729,0.162
		C48.846,26.039,49.059,26.049,49.261,26.07z"/>
	<path class="st0" d="M48.603,28.165l0.223,0.445c-0.648,0.061-1.245,0.04-1.792-0.02l-0.081-0.233c0.061,0.01,0.121,0,0.182,0
		c0.536,0,1.022-0.091,1.427-0.182C48.573,28.175,48.593,28.175,48.603,28.165z"/>
	<path class="st0" d="M48.472,28.884l-0.263,0.111c-0.334,0.051-0.729,0.051-1.134,0.061c-0.091,0-0.182,0-0.283-0.01l0.253-0.132
		c0.162,0.01,0.314,0.02,0.466,0.03C47.854,28.934,48.178,28.914,48.472,28.884z"/>
	<g>
		<path class="st1" d="M68.079,3.76c-0.132-0.142-0.263-0.294-0.415-0.435L65.852,5.37c0.213,0.152,0.425,0.283,0.628,0.395
			c0.172,0.101,0.354,0.182,0.516,0.243l1.498-1.701C68.382,4.125,68.241,3.942,68.079,3.76z"/>
		<path class="st1" d="M65.032,5.673L47.986,24.551c0.182,0.081,0.375,0.132,0.547,0.202c0.223,0.061,0.435,0.132,0.638,0.182
			c0.081,0.03,0.152,0.04,0.233,0.051L66.692,6.513c-0.162-0.051-0.324-0.121-0.496-0.192C65.821,6.159,65.427,5.936,65.032,5.673z"
			/>
		<path class="st1" d="M47.642,26.93c0.03,0.061,0.051,0.111,0.061,0.162c0.111,0.01,0.213,0.02,0.324,0.03
			c0.273,0.01,0.537,0.02,0.779,0.03c0.243-0.01,0.476-0.02,0.698-0.03c0.051,0,0.111,0,0.162-0.01l-0.132-0.121
			C48.826,27.031,48.199,27.011,47.642,26.93z"/>
		<path class="st1" d="M47.035,28.59l0.03,0.091c0.152,0.02,0.304,0.03,0.456,0.041c0.486,0.01,0.941-0.01,1.336-0.051l-0.03-0.061
			C48.178,28.671,47.581,28.651,47.035,28.59z"/>
		<path class="st1" d="M48.199,25.644l0.03,0.051c0.152,0.03,0.294,0.061,0.435,0.091C48.502,25.746,48.35,25.695,48.199,25.644z"/>
		<path class="st1" d="M46.083,29.754l-5.709,68.264c0.516-0.01,1.012-0.051,1.417-0.142l5.932-68.183
			c-0.202,0.03-0.405,0.051-0.628,0.071C46.771,29.774,46.427,29.774,46.083,29.754z"/>
	</g>
	<g>
		<path class="st1" d="M62.633,3.234l-17.38,19.212c0.213,0.283,0.506,0.567,0.81,0.87c0.04,0.04,0.091,0.081,0.132,0.111
			l17.299-19.02C63.179,4.074,62.876,3.689,62.633,3.234z"/>
		<path class="st1" d="M44.565,23.741c0.294,0.273,0.668,0.567,1.083,0.84c0.01,0,0.01,0.01,0.02,0.02l0.253-0.121
			c-0.415-0.304-0.759-0.607-1.032-0.881L44.565,23.741z"/>
		<path class="st1" d="M43.755,25.462c0.294,0.253,0.658,0.516,1.063,0.739h0.01l0.192-0.132c-0.395-0.223-0.709-0.486-0.941-0.719
			L43.755,25.462z"/>
		<path class="st1" d="M43.148,27.203c0.03,0.02,0.071,0.051,0.111,0.081c0.283,0.213,0.628,0.425,1.012,0.607l0.192-0.071
			c-0.445-0.223-0.82-0.466-1.113-0.688L43.148,27.203z"/>
		<path class="st1" d="M43.168,28.884L36.69,97.31c0.273,0.132,0.597,0.233,0.941,0.334c0.202,0.071,0.415,0.111,0.628,0.162
			l6.175-68.366c-0.132-0.04-0.273-0.091-0.405-0.142C43.704,29.187,43.421,29.035,43.168,28.884z"/>
	</g>
	<g>
		<path class="st1" d="M65.852,2.019c-0.263-0.132-0.536-0.263-0.82-0.364c-0.324,0.364-0.962,1.063-1.356,1.468
			c0.182,0.304,0.395,0.577,0.617,0.85c0.03,0.03,0.061,0.061,0.081,0.091l1.862-1.822C66.115,2.161,65.983,2.09,65.852,2.019z"/>
		<path class="st0" d="M45.233,23.438L44.889,23.6c0.273,0.273,0.617,0.577,1.032,0.881l0.253-0.121
			C45.81,24.076,45.496,23.762,45.233,23.438z"/>
		<path class="st1" d="M45.516,24.774c-0.405-0.283-0.759-0.587-1.032-0.87l0.02,0.567c0.04,0.061,0.091,0.111,0.152,0.162
			c0.162,0.182,0.354,0.334,0.567,0.506c0.182,0.121,0.364,0.243,0.577,0.344l-0.172-0.638
			C45.587,24.825,45.557,24.794,45.516,24.774z"/>
		<path class="st0" d="M44.332,25.27l-0.253,0.081c0.233,0.233,0.547,0.496,0.941,0.719l0.162-0.101
			c-0.142-0.081-0.273-0.182-0.395-0.273C44.625,25.564,44.463,25.422,44.332,25.27z"/>
		<path class="st1" d="M44.716,26.404c-0.415-0.233-0.759-0.516-1.043-0.779l0.101,0.658c0.172,0.172,0.385,0.344,0.607,0.506
			c0.182,0.132,0.375,0.253,0.587,0.354l-0.202-0.709C44.747,26.424,44.737,26.414,44.716,26.404z"/>
		<path class="st0" d="M43.603,27.051l-0.253,0.081c0.294,0.223,0.668,0.466,1.113,0.688l0.132-0.051
			c-0.233-0.121-0.445-0.263-0.638-0.415L43.603,27.051z"/>
		<path class="st1" d="M44.14,28.084c-0.385-0.213-0.709-0.445-0.982-0.668c-0.02-0.02-0.04-0.04-0.061-0.051
			c0.02,0.132,0.061,0.334,0.091,0.547c0.02,0.101,0.03,0.202,0.04,0.294c0.304,0.152,0.658,0.294,1.043,0.415
			c0.03,0.01,0.051,0.02,0.081,0.03l-0.061-0.162L44.14,28.084z"/>
	</g>
	<g>
		<path class="st2" d="M68.494,4.307l-1.498,1.701c0.526,0.213,1.002,0.294,1.326,0.253c0.202-0.02,0.344-0.101,0.405-0.132
			c0.071-0.051,0.111-0.101,0.121-0.111c0.01-0.02,0.162-0.162,0.121-0.567C68.929,5.147,68.777,4.742,68.494,4.307z"/>
		<path class="st2" d="M67.228,2.94c-0.81,0.385-1.67,0.962-2.197,1.782c0.111,0.101,0.223,0.192,0.334,0.283
			c0.162,0.132,0.324,0.253,0.486,0.364l1.812-2.045C67.532,3.193,67.38,3.072,67.228,2.94z"/>
		<path class="st2" d="M63.655,4.57c-0.051-0.051-0.101-0.101-0.162-0.162l-17.299,19.02c0.294,0.243,0.597,0.486,0.941,0.678
			l17.42-18.767c-0.091-0.071-0.182-0.142-0.263-0.202C64.07,4.955,63.858,4.762,63.655,4.57z"/>
		<path class="st2" d="M45.213,22.385c0.01,0.02,0.03,0.04,0.04,0.061l17.38-19.212c-0.02-0.03-0.04-0.071-0.061-0.111
			c-0.142-0.283-0.263-0.597-0.324-0.962c0-0.01,0-0.03,0-0.041l-8.391,9.404l-9.019,10.011l0.081,0.445
			C45,22.102,45.101,22.233,45.213,22.385z"/>
		<path class="st2" d="M45.921,24.48l-0.253,0.121c0.425,0.283,0.921,0.526,1.427,0.729c0.375,0.152,0.759,0.273,1.134,0.364
			l-0.03-0.051C47.277,25.331,46.518,24.906,45.921,24.48z"/>
		<path class="st2" d="M45.02,26.07l-0.192,0.132c0.466,0.273,1.002,0.476,1.549,0.638c0.435,0.122,0.891,0.202,1.326,0.253
			c-0.01-0.051-0.03-0.101-0.061-0.162C46.508,26.798,45.658,26.464,45.02,26.07z"/>
		<path class="st2" d="M44.463,27.821l-0.192,0.071c0.061,0.03,0.122,0.061,0.182,0.091c0.223,0.121,0.476,0.213,0.719,0.304
			c0.253,0.101,0.516,0.142,0.769,0.223c0.375,0.081,0.749,0.142,1.124,0.172l-0.03-0.091
			C46.012,28.469,45.152,28.175,44.463,27.821z"/>
		<path class="st2" d="M38.258,97.806c0.051,0.01,0.091,0.02,0.142,0.03c0.253,0.051,0.547,0.091,0.82,0.121
			c0.111,0.01,0.233,0.02,0.344,0.02l5.689-68.335c-0.283-0.051-0.557-0.121-0.82-0.202L38.258,97.806z"/>
		<path class="st2" d="M44.524,23.701c0.01,0.01,0.03,0.02,0.041,0.04l0.324-0.142c-0.243-0.243-0.435-0.456-0.557-0.618
			l-0.405,0.121C44.079,23.276,44.261,23.478,44.524,23.701z"/>
		<path class="st2" d="M43.633,25.361c0.04,0.03,0.081,0.071,0.121,0.101l0.324-0.111c-0.294-0.294-0.476-0.567-0.587-0.749
			l-0.496,0.111v0.01C43.158,24.895,43.36,25.128,43.633,25.361z"/>
		<path class="st2" d="M43.148,27.203l0.202-0.071c-0.344-0.263-0.597-0.506-0.759-0.678l-0.202,0.091
			c0.041,0.04,0.061,0.061,0.111,0.111C42.662,26.798,42.864,27.001,43.148,27.203z"/>
		<path class="st2" d="M42.813,28.671c-0.283-0.182-0.506-0.364-0.668-0.516l-0.162,0.283l-1.498,16.955l-1.609,17.046
			l-1.609,17.046l-1.67,16.803h0.04c0,0,0,0.101,0.081,0.263c0.081,0.162,0.304,0.375,0.638,0.577
			c0.101,0.061,0.213,0.121,0.334,0.182l6.478-68.426C43.046,28.813,42.925,28.742,42.813,28.671z"/>
	</g>
	<g>
		<path class="st3" d="M66.692,6.513L49.403,24.987c0.121,0.03,0.253,0.04,0.364,0.071c0.334,0.071,0.607,0.091,0.82,0.111
			l0.132-0.132l8.908-9.404l8.493-8.837C67.704,6.807,67.218,6.706,66.692,6.513z"/>
		<path class="st3" d="M64.809,4.519c0.071,0.071,0.152,0.142,0.223,0.202c0.526-0.82,1.387-1.397,2.197-1.782
			c-0.304-0.243-0.638-0.486-0.992-0.698l-1.862,1.822C64.526,4.226,64.667,4.378,64.809,4.519z"/>
		<path class="st3" d="M47.865,24.501c0.04,0.02,0.081,0.041,0.121,0.051L65.032,5.673c-0.04-0.02-0.071-0.051-0.111-0.071
			c-0.121-0.081-0.243-0.172-0.364-0.263l-17.42,18.767c0.03,0.02,0.061,0.03,0.091,0.051
			C47.419,24.298,47.652,24.379,47.865,24.501z"/>
		<path class="st3" d="M63.675,3.122c0.395-0.405,1.032-1.103,1.356-1.468c-0.202-0.071-0.405-0.132-0.607-0.182
			c-0.486-0.132-1.012-0.061-1.113,0.111c-0.142,0.152-0.101,0.678,0.132,1.113C63.513,2.839,63.584,2.991,63.675,3.122z"/>
		<path class="st3" d="M50.668,25.634c-0.233,0-0.557,0.061-0.951,0.01l0.253,0.273c0.041,0,0.081,0.01,0.121,0.01
			c0.192,0.02,0.354,0.01,0.516,0.01l0.233-0.081l-0.132-0.233C50.699,25.634,50.689,25.634,50.668,25.634z"/>
		<path class="st3" d="M50.183,26.586c-0.061,0.01-0.121,0.03-0.192,0.03c-0.233,0.03-0.476,0.071-0.749,0.111l0.294,0.263
			l0.132,0.121c0.243,0,0.456-0.04,0.638-0.061l0.03-0.01l-0.041-0.111L50.183,26.586z"/>
		<path class="st3" d="M49.251,27.487c0.061-0.01,0.111-0.02,0.162-0.03c0.081-0.01,0.132-0.02,0.192-0.02l0.101-0.061l0.304-0.162
			c-0.142,0.03-0.283,0.051-0.445,0.061L49.251,27.487z"/>
		<path class="st3" d="M49.494,27.912c-0.213,0.061-0.506,0.192-0.891,0.253l0.223,0.445l0.03,0.061c0.02-0.01,0.03-0.01,0.051-0.01
			c0.192-0.01,0.375-0.03,0.526-0.061l0.192-0.091h0.01l0.172-0.081l-0.263-0.445L49.494,27.912z"/>
		<path class="st3" d="M48.431,29.562c-0.213,0.061-0.456,0.101-0.709,0.132l-5.932,68.183c0.142-0.02,0.283-0.061,0.405-0.101
			c0.364-0.132,0.638-0.283,0.749-0.425c0.051-0.061,0.091-0.071,0.111-0.162c0.01-0.03,0.02-0.061,0.03-0.071
			c0.01-0.02,0.01-0.03,0.01-0.03l0.03,0.01c0.486-5.618,0.921-11.236,1.447-16.854l1.528-16.853l1.518-16.854l1.64-16.732
			l-0.172-0.425C48.907,29.45,48.695,29.521,48.431,29.562z"/>
		<path class="st3" d="M48.927,28.823c-0.142,0.03-0.294,0.051-0.456,0.061l-0.263,0.111c0.041,0,0.081,0,0.121-0.01
			c0.223-0.02,0.405-0.041,0.577-0.071l-0.02-0.061l0.061-0.03C48.948,28.823,48.937,28.823,48.927,28.823z"/>
		<path class="st3" d="M47.996,25.31c-0.142-0.041-0.283-0.081-0.415-0.142c-0.243-0.121-0.506-0.213-0.739-0.354
			c-0.233-0.142-0.466-0.294-0.668-0.455l-0.253,0.121c0.597,0.425,1.356,0.85,2.278,1.164L47.996,25.31z"/>
		<path class="st3" d="M46.306,27.082c-0.547-0.162-1.073-0.375-1.539-0.648l0.202,0.709c0.223,0.101,0.466,0.192,0.719,0.273
			c0.243,0.051,0.476,0.152,0.729,0.172c0.202,0.01,0.395,0.061,0.587,0.051l0.678-0.314C47.237,27.284,46.771,27.203,46.306,27.082
			z"/>
		<path class="st3" d="M45.02,26.07c0.638,0.395,1.488,0.729,2.622,0.86c-0.03-0.061-0.051-0.132-0.091-0.192
			c-0.03,0-0.061-0.01-0.091-0.01c-0.314-0.03-0.638-0.081-0.951-0.172c-0.324-0.071-0.617-0.213-0.911-0.344
			c-0.142-0.071-0.283-0.152-0.415-0.243L45.02,26.07z"/>
		<path class="st3" d="M45.911,25.543c0.263,0.111,0.516,0.223,0.8,0.283c0.213,0.071,0.425,0.122,0.648,0.142
			c0.152-0.061,0.354-0.101,0.536-0.121c-0.294-0.071-0.597-0.162-0.891-0.283c-0.496-0.192-0.962-0.445-1.377-0.719l0.172,0.638
			C45.83,25.513,45.87,25.523,45.911,25.543z"/>
		<path class="st3" d="M44.14,28.084l0.152,0.405l0.061,0.162c0.405,0.142,0.85,0.233,1.296,0.304
			c0.162,0.03,0.334,0.051,0.496,0.061c0.03,0,0.061,0.01,0.101,0.01c0.192,0.01,0.375,0.02,0.547,0.02l0.253-0.132
			c-0.111-0.01-0.223-0.01-0.334-0.02c-0.273-0.04-0.547-0.091-0.82-0.142c-0.273-0.081-0.547-0.132-0.8-0.243
			c-0.253-0.091-0.506-0.192-0.739-0.314C44.281,28.155,44.21,28.124,44.14,28.084z"/>
		<path class="st3" d="M46.954,28.357c-0.202,0-0.415-0.03-0.638-0.051c-0.283-0.01-0.567-0.111-0.85-0.162
			c-0.304-0.101-0.597-0.223-0.871-0.375l-0.132,0.051c0.688,0.354,1.549,0.648,2.571,0.769L46.954,28.357z"/>
		<path class="st3" d="M45.536,29.703c-0.091-0.02-0.192-0.04-0.283-0.061l-5.689,68.335c0.273,0.03,0.547,0.04,0.81,0.04
			l5.709-68.264C45.901,29.744,45.719,29.724,45.536,29.703z"/>
		<path class="st3" d="M45.233,23.438c-0.162-0.192-0.304-0.395-0.425-0.587l-0.111,0.03l-0.364,0.101
			c0.122,0.162,0.314,0.375,0.557,0.618L45.233,23.438z"/>
		<path class="st3" d="M44.231,24.096c0.081,0.121,0.172,0.253,0.273,0.375l-0.02-0.567c-0.03-0.03-0.061-0.051-0.081-0.081
			c-0.213-0.223-0.364-0.415-0.486-0.587l0.04,0.364C44.028,23.752,44.119,23.924,44.231,24.096z"/>
		<path class="st3" d="M44.332,25.27c-0.071-0.071-0.132-0.142-0.182-0.213c-0.142-0.162-0.253-0.344-0.354-0.526l-0.121,0.03
			l-0.182,0.041c0.111,0.182,0.294,0.456,0.587,0.749L44.332,25.27z"/>
		<path class="st3" d="M43.441,25.918c0.091,0.121,0.202,0.243,0.334,0.364l-0.101-0.658c-0.051-0.051-0.101-0.091-0.152-0.142
			c-0.202-0.213-0.354-0.405-0.486-0.577l0.132,0.638C43.249,25.665,43.34,25.786,43.441,25.918z"/>
		<path class="st3" d="M43.603,27.051c-0.425-0.486-0.537-0.638-0.638-0.779l-0.375,0.182c0.162,0.172,0.415,0.415,0.759,0.678
			L43.603,27.051z"/>
		<path class="st3" d="M42.5,27.537l-0.091,0.152l-0.03,0.061c0.182,0.111,0.425,0.253,0.739,0.405
			c0.04,0.02,0.071,0.04,0.111,0.051c-0.01-0.091-0.02-0.192-0.04-0.294c-0.03-0.213-0.071-0.415-0.091-0.547
			c-0.385-0.334-0.617-0.628-0.749-0.8l-0.051,0.02l0.172,0.779L42.5,27.537z"/>
	</g>
	<path class="st4" d="M68.554,3.376c-0.182-0.243-0.395-0.496-0.638-0.739c-0.445-0.476-0.992-0.941-1.63-1.346
		c-0.486-0.304-1.022-0.587-1.64-0.749C64.333,0.46,63.999,0.41,63.635,0.44c-0.182,0.01-0.375,0.04-0.567,0.132
		c-0.091,0.02-0.223,0.101-0.324,0.182c-0.121,0.101-0.081,0.071-0.223,0.202c-0.061,0.081-0.101,0.162-0.142,0.243l-9.08,9.819
		L44.079,21.12l-0.142,0.152l0.04,0.213l0.121,0.688l-0.79,0.223l-0.344,0.101l0.04,0.354l0.101,0.941l-0.719,0.152l-0.415,0.091
		l0.081,0.425l0.223,1.154l-0.688,0.314l-0.324,0.152l0.081,0.354l0.192,0.951l-0.395,0.688l-0.051,0.081l-0.01,0.101l-1.599,17.046
		l-1.498,17.056l-1.498,17.056L35.07,96.47h0.04c0.01,0.081,0.01,0.182,0.041,0.294c0.101,0.324,0.364,0.698,0.749,1.002
		c0.202,0.172,0.445,0.324,0.709,0.456c0.223,0.121,0.476,0.233,0.729,0.324c0.273,0.101,0.567,0.192,0.86,0.253
		c0.314,0.071,0.607,0.121,0.911,0.162c0.121,0.01,0.253,0.02,0.375,0.03c1.113,0.081,2.217-0.081,3.016-0.486
		c0.456-0.202,0.79-0.526,0.951-0.82c0.091-0.152,0.132-0.334,0.132-0.375c0-0.071,0-0.111,0-0.111l-0.385-0.081l0.435,0.04
		c0.567-5.618,1.184-11.226,1.721-16.843l1.64-16.833l1.64-16.843l1.518-16.864l0.01-0.101l-0.04-0.101l-0.101-0.263l0.597-0.283
		l0.445-0.202l-0.253-0.415l-0.283-0.486l0.536-0.294l0.324-0.172l-0.111-0.344l-0.152-0.445l0.476-0.172l0.476-0.172l-0.243-0.435
		l-0.283-0.496l8.634-9.231l8.776-9.515l-0.04-0.041c0.051-0.03,0.111-0.061,0.152-0.091c0.111-0.111,0.152-0.152,0.152-0.152
		l0.02-0.02c-0.02,0.01,0.314-0.334,0.253-0.941C69.445,4.803,69.101,4.094,68.554,3.376z M44.484,23.903
		c0.273,0.283,0.628,0.587,1.032,0.87c0.04,0.02,0.071,0.051,0.111,0.071c0.415,0.273,0.881,0.526,1.377,0.719
		c0.294,0.121,0.597,0.213,0.891,0.283c0.243,0.071,0.496,0.121,0.729,0.162c0.223,0.03,0.435,0.04,0.638,0.061
		c-0.02,0-0.041,0-0.071,0.01c-0.253,0.03-0.526-0.01-0.8-0.01c-0.273,0-0.557-0.01-0.84-0.071c-0.061-0.01-0.132-0.01-0.192-0.03
		c-0.223-0.02-0.435-0.071-0.648-0.142c-0.283-0.061-0.537-0.172-0.8-0.283c-0.041-0.02-0.081-0.03-0.111-0.061
		c-0.213-0.101-0.395-0.223-0.577-0.344c-0.213-0.172-0.405-0.324-0.567-0.506c-0.061-0.051-0.111-0.101-0.152-0.162
		c-0.101-0.121-0.192-0.253-0.273-0.375c-0.111-0.172-0.202-0.344-0.273-0.496l-0.04-0.364c0.121,0.172,0.273,0.364,0.486,0.587
		C44.423,23.853,44.453,23.873,44.484,23.903z M42.348,26.566c0.132,0.172,0.364,0.466,0.749,0.8c0.02,0.01,0.04,0.03,0.061,0.051
		c0.273,0.223,0.597,0.456,0.982,0.668c0.071,0.04,0.142,0.071,0.213,0.111c0.233,0.121,0.486,0.223,0.739,0.314
		c0.253,0.111,0.526,0.162,0.8,0.243c0.273,0.051,0.547,0.101,0.82,0.142c0.111,0.01,0.223,0.01,0.334,0.02
		c0.162,0.01,0.314,0.02,0.466,0.03c0.344-0.01,0.668-0.03,0.962-0.061c0.162-0.01,0.314-0.03,0.456-0.061c0.01,0,0.02,0,0.02,0
		l-0.061,0.03l0.02,0.061c-0.172,0.03-0.354,0.051-0.577,0.071c-0.04,0.01-0.081,0.01-0.121,0.01
		c-0.334,0.051-0.729,0.051-1.134,0.061c-0.091,0-0.182,0-0.283-0.01c-0.172,0-0.354-0.01-0.547-0.02c-0.04,0-0.071-0.01-0.101-0.01
		c-0.162-0.01-0.334-0.03-0.496-0.061c-0.445-0.071-0.891-0.162-1.296-0.304c-0.03-0.01-0.051-0.02-0.081-0.03
		c-0.385-0.121-0.739-0.263-1.043-0.415c-0.04-0.01-0.071-0.03-0.111-0.051c-0.314-0.152-0.557-0.294-0.739-0.405l0.03-0.061
		l0.091-0.152l-0.03-0.172l-0.172-0.779L42.348,26.566z M47.622,46.537L46.103,63.39l-1.528,16.853
		c-0.526,5.618-0.962,11.236-1.447,16.854l-0.03-0.01c0,0,0,0.01-0.01,0.03c-0.01,0.01-0.02,0.04-0.03,0.071
		c-0.02,0.091-0.061,0.101-0.111,0.162c-0.111,0.142-0.385,0.294-0.749,0.425c-0.121,0.041-0.263,0.081-0.405,0.101
		c-0.405,0.091-0.901,0.132-1.417,0.142c-0.263,0-0.536-0.01-0.81-0.04c-0.111,0-0.233-0.01-0.344-0.02
		c-0.273-0.03-0.567-0.071-0.82-0.121c-0.051-0.01-0.091-0.02-0.142-0.03c-0.213-0.051-0.425-0.091-0.628-0.162
		c-0.344-0.101-0.668-0.202-0.941-0.334c-0.121-0.061-0.233-0.122-0.334-0.182c-0.334-0.202-0.557-0.415-0.638-0.577
		c-0.081-0.162-0.081-0.263-0.081-0.263h-0.04l1.67-16.803l1.609-17.046l1.609-17.046l1.498-16.955l0.162-0.283
		c0.162,0.152,0.385,0.334,0.668,0.516c0.111,0.071,0.233,0.142,0.354,0.213c0.253,0.152,0.536,0.304,0.86,0.415
		c0.132,0.051,0.273,0.101,0.405,0.142c0.263,0.081,0.536,0.152,0.82,0.202c0.091,0.02,0.192,0.04,0.283,0.061
		c0.182,0.02,0.364,0.041,0.547,0.051c0.344,0.02,0.688,0.02,1.012,0.01c0.223-0.02,0.425-0.04,0.628-0.071
		c0.253-0.03,0.496-0.071,0.709-0.132c0.263-0.04,0.476-0.111,0.658-0.182l0.172,0.425L47.622,46.537z M49.636,28.509h-0.01
		L49.433,28.6c-0.152,0.03-0.334,0.051-0.526,0.061c-0.02,0-0.03,0-0.051,0.01c-0.395,0.041-0.85,0.061-1.336,0.051
		c-0.152-0.01-0.304-0.02-0.456-0.041c-0.375-0.03-0.749-0.091-1.124-0.172c-0.253-0.081-0.516-0.121-0.769-0.223
		c-0.243-0.091-0.496-0.182-0.719-0.304c-0.061-0.03-0.122-0.061-0.182-0.091c-0.385-0.182-0.729-0.395-1.012-0.607
		c-0.04-0.03-0.081-0.061-0.111-0.081c-0.283-0.202-0.486-0.405-0.648-0.547c-0.051-0.051-0.071-0.071-0.111-0.111l0.202-0.091
		l0.375-0.182c0.101,0.142,0.213,0.294,0.638,0.779l0.354,0.304c0.192,0.152,0.405,0.294,0.638,0.415
		c0.273,0.152,0.567,0.273,0.871,0.375c0.283,0.051,0.567,0.152,0.85,0.162c0.223,0.02,0.435,0.051,0.638,0.051
		c0.061,0.01,0.121,0,0.182,0c0.537,0,1.022-0.091,1.427-0.182c0.01,0,0.03,0,0.04-0.01c0.385-0.061,0.678-0.192,0.891-0.253
		l0.051,0.071l0.263,0.445L49.636,28.509z M49.707,27.375l-0.101,0.061c-0.061,0-0.111,0.01-0.192,0.02
		c-0.051,0.01-0.101,0.02-0.162,0.03c-0.213,0.03-0.476,0.091-0.779,0.111c-0.192,0.02-0.405,0.041-0.628,0.061
		c-0.223,0.01-0.456-0.02-0.698-0.01c-0.051,0-0.091,0-0.142-0.01c-0.192,0.01-0.385-0.041-0.587-0.051
		c-0.253-0.02-0.486-0.121-0.729-0.172c-0.253-0.081-0.496-0.172-0.719-0.273c-0.213-0.101-0.405-0.223-0.587-0.354
		c-0.223-0.162-0.435-0.334-0.607-0.506c-0.132-0.121-0.243-0.243-0.334-0.364c-0.101-0.132-0.192-0.253-0.273-0.375l-0.132-0.638
		c0.132,0.172,0.283,0.364,0.486,0.577c0.051,0.051,0.101,0.091,0.152,0.142c0.283,0.263,0.628,0.547,1.043,0.779
		c0.02,0.01,0.03,0.02,0.051,0.03c0.466,0.273,0.992,0.486,1.539,0.648c0.466,0.121,0.931,0.202,1.377,0.243
		c0.111,0.01,0.223,0.02,0.334,0.02c0.273,0,0.537,0.01,0.79,0.01c0.253-0.03,0.496-0.051,0.709-0.071c0.02,0,0.03,0,0.051-0.01
		c0.162-0.01,0.304-0.03,0.445-0.061L49.707,27.375z M50.304,27.051c-0.182,0.02-0.395,0.061-0.638,0.061
		c-0.051,0.01-0.111,0.01-0.162,0.01c-0.223,0.01-0.456,0.02-0.698,0.03c-0.243-0.01-0.506-0.02-0.779-0.03
		c-0.111-0.01-0.213-0.02-0.324-0.03c-0.435-0.051-0.891-0.132-1.326-0.253c-0.547-0.162-1.083-0.364-1.549-0.638h-0.01
		c-0.405-0.223-0.769-0.486-1.063-0.739c-0.041-0.03-0.081-0.071-0.121-0.101c-0.273-0.233-0.476-0.466-0.638-0.638v-0.01
		l0.496-0.111l0.182-0.041l0.121-0.03c0.101,0.182,0.213,0.364,0.354,0.526c0.051,0.071,0.111,0.142,0.182,0.213
		c0.132,0.152,0.294,0.294,0.456,0.425c0.121,0.091,0.253,0.192,0.395,0.273c0.132,0.091,0.273,0.172,0.415,0.243
		c0.294,0.132,0.587,0.273,0.911,0.344c0.314,0.091,0.638,0.142,0.951,0.172c0.03,0,0.061,0.01,0.091,0.01
		c0.283,0.04,0.567,0.051,0.83,0.04c0.304,0.01,0.587-0.02,0.86-0.051c0.273-0.04,0.516-0.081,0.749-0.111
		c0.071,0,0.132-0.02,0.192-0.03l0.111,0.344l0.041,0.111L50.304,27.051z M50.608,25.938c-0.162,0-0.324,0.01-0.516-0.01
		c-0.04,0-0.081-0.01-0.121-0.01c-0.182,0-0.364,0-0.557-0.03c-0.243-0.03-0.476-0.051-0.739-0.101h-0.01
		c-0.142-0.03-0.283-0.061-0.435-0.091c-0.375-0.091-0.759-0.213-1.134-0.364c-0.506-0.202-1.002-0.445-1.427-0.729
		c-0.01-0.01-0.01-0.02-0.02-0.02c-0.415-0.273-0.79-0.567-1.083-0.84c-0.01-0.02-0.03-0.03-0.041-0.04
		c-0.263-0.223-0.445-0.425-0.597-0.597l0.405-0.121l0.364-0.101l0.111-0.03c0.121,0.192,0.263,0.395,0.425,0.587
		c0.263,0.324,0.577,0.638,0.941,0.921c0.202,0.162,0.435,0.314,0.668,0.455c0.233,0.142,0.496,0.233,0.739,0.354
		c0.132,0.061,0.273,0.101,0.415,0.142c0.111,0.04,0.223,0.081,0.334,0.121c0.243,0.071,0.486,0.101,0.719,0.142
		c0.223,0.051,0.445,0.051,0.648,0.071h0.01h0.01c0.395,0.051,0.719-0.01,0.951-0.01c0.02,0,0.03,0,0.041-0.01l0.132,0.233
		L50.608,25.938z M59.627,15.634l-8.908,9.404l-0.132,0.132c-0.213-0.02-0.486-0.041-0.82-0.111
		c-0.111-0.03-0.243-0.041-0.364-0.071c-0.081-0.01-0.152-0.02-0.233-0.051c-0.202-0.051-0.415-0.122-0.638-0.182
		c-0.172-0.071-0.364-0.121-0.547-0.202c-0.041-0.01-0.081-0.03-0.121-0.051c-0.213-0.121-0.445-0.202-0.638-0.344
		c-0.03-0.02-0.061-0.03-0.091-0.051c-0.344-0.192-0.648-0.435-0.941-0.678c-0.04-0.03-0.091-0.071-0.132-0.111
		c-0.304-0.304-0.597-0.587-0.81-0.87c-0.01-0.02-0.03-0.04-0.04-0.061c-0.111-0.152-0.213-0.283-0.294-0.405l-0.081-0.445
		l9.019-10.011l8.391-9.404c0,0.01,0,0.03,0,0.041c0.061,0.364,0.182,0.678,0.324,0.962c0.02,0.041,0.041,0.081,0.061,0.111
		c0.243,0.455,0.547,0.84,0.86,1.174c0.061,0.061,0.111,0.111,0.162,0.162c0.202,0.192,0.415,0.385,0.638,0.567
		c0.081,0.061,0.172,0.132,0.263,0.202c0.121,0.091,0.243,0.182,0.364,0.263c0.04,0.02,0.071,0.051,0.111,0.071
		c0.395,0.263,0.79,0.486,1.164,0.648c0.172,0.071,0.334,0.142,0.496,0.192c0.526,0.192,1.012,0.294,1.427,0.283L59.627,15.634z
		 M68.848,6.017c-0.01,0.01-0.051,0.061-0.121,0.111c-0.061,0.03-0.202,0.111-0.405,0.132c-0.324,0.04-0.8-0.041-1.326-0.253
		c-0.162-0.061-0.344-0.142-0.516-0.243c-0.202-0.111-0.415-0.243-0.628-0.395c-0.162-0.111-0.324-0.233-0.486-0.364
		c-0.111-0.091-0.223-0.182-0.334-0.283c-0.071-0.061-0.152-0.132-0.223-0.202c-0.142-0.142-0.283-0.294-0.435-0.456
		c-0.02-0.03-0.051-0.061-0.081-0.091c-0.223-0.273-0.435-0.547-0.617-0.85c-0.091-0.132-0.162-0.283-0.233-0.425
		c-0.233-0.435-0.273-0.962-0.132-1.113c0.101-0.172,0.628-0.243,1.113-0.111c0.202,0.051,0.405,0.111,0.607,0.182
		c0.283,0.101,0.557,0.233,0.82,0.364c0.132,0.071,0.263,0.142,0.385,0.223c0.354,0.213,0.688,0.456,0.992,0.698
		c0.152,0.132,0.304,0.253,0.435,0.385c0.152,0.142,0.283,0.294,0.415,0.435c0.162,0.182,0.304,0.364,0.415,0.547
		c0.283,0.435,0.435,0.84,0.476,1.144C69.01,5.855,68.858,5.997,68.848,6.017z"/>
</g>
</svg>
