<?xml version="1.0" encoding="utf-8"?>
<!-- Generator: Adobe Illustrator 18.1.1, SVG Export Plug-In . SVG Version: 6.00 Build 0)  -->
<svg version="1.1" id="Layer_1" xmlns="http://www.w3.org/2000/svg" xmlns:xlink="http://www.w3.org/1999/xlink" x="0px" y="0px"
	 viewBox="0 0 500 500" enable-background="new 0 0 500 500" xml:space="preserve">
<symbol  id="New_Symbol" viewBox="-163.4 -83.2 326.7 166.3">
	<path fill="#A2C947" stroke="#7D953B" stroke-width="2.8504" stroke-miterlimit="10" d="M160.3-35.7
		c-70.4-105.5-322.2,3.4-322.2,3.4C-159.4,3.4-125-2.2-125-2.2c17.6,44,56.1,20,56.1,20c24.8,70.9,67.9,65.3,91.4,55.6
		c5.8,6.9,17.2,10.1,28.8,7.3c5.8-1.4,10.9-4,14.8-7.4c29.7-0.6,47.8-35.6,47.8-35.6S172.3-17.6,160.3-35.7z"/>
	<polygon display="none" fill="none" points="-164,83 164,83 164,-83 -164,-83 	"/>
</symbol>
<symbol  id="New_Symbol_1" viewBox="-18.5 -12.8 37.1 25.7">
	<path fill="#3C8740" d="M-5.8-12.8c0,0-6.1,0-11.5,9.5c-5.4,9.5,9.3-0.9,10.2,2c2,6.8,8.8,28.5,14.2-0.7c0,0,25.8,10.9,0-10.2"/>
</symbol>
<symbol  id="New_Symbol_2" viewBox="-20.3 -24.9 40.7 49.8">
	<path fill="#3C8740" d="M3.7-24.9L20.3,4.2c0,0-6.7,2.5-13.6-4.5S6.1,1.7,6.1,1.7l11.1,23.2c0,0-17.7-2.9-24.8-26.8
		c0,0,1.4,14.5-4.9,18c0,0-0.4-20.9-7.9-26L3.7-24.9z"/>
</symbol>
<g>
	<defs>
		<rect id="SVGID_1_" width="500" height="500"/>
	</defs>
	<clipPath id="SVGID_2_">
		<use xlink:href="#SVGID_1_"  overflow="visible"/>
	</clipPath>
	<g clip-path="url(#SVGID_2_)">
		<rect x="-985.8" y="-608" fill="#B1ABD4" width="1575.1" height="1089.7"/>
		<path fill="#5CBA59" stroke="#3C8740" stroke-width="5.5565" stroke-miterlimit="10" d="M-992.6,83.4L589.3,65.5
			c0.4-0.1,44.9-0.4,44.9,0l-27.8,492.8c0,0.4-0.3,0.6-0.6,0.6H-973.3c-0.3,0-0.6-0.3-0.6-0.6c-0.3-9.8-178.9-441-176-442.2
			C-1149.8,116.1-992.7,83.4-992.6,83.4z"/>

			<use xlink:href="#New_Symbol"  width="326.7" height="166.3" x="-163.4" y="-83.2" transform="matrix(1.9231 0 0 -1.9231 436.5385 169.2308)" overflow="visible"/>

			<use xlink:href="#New_Symbol_2"  width="40.7" height="49.8" x="-20.3" y="-24.9" transform="matrix(1.9231 0 0 -1.9231 440.2156 355.6115)" overflow="visible"/>

			<use xlink:href="#New_Symbol_2"  width="40.7" height="49.8" x="-20.3" y="-24.9" transform="matrix(-1.7602 -0.1113 0.1214 -1.9192 139.4216 334.4908)" overflow="visible"/>
		<g>
		</g>

			<use xlink:href="#New_Symbol_1"  width="37.1" height="25.7" x="-18.5" y="-12.8" transform="matrix(1.0851 0 0 -1.0851 335.7741 471.5111)" overflow="visible"/>

			<use xlink:href="#New_Symbol_1"  width="37.1" height="25.7" x="-18.5" y="-12.8" transform="matrix(1.643 0 0 -1.643 32.3811 435.4945)" overflow="visible"/>

			<use xlink:href="#New_Symbol_1"  width="37.1" height="25.7" x="-18.5" y="-12.8" transform="matrix(0.8912 0 0 -0.8912 117.4047 181.1009)" overflow="visible"/>

			<use xlink:href="#New_Symbol_1"  width="37.1" height="25.7" x="-18.5" y="-12.8" transform="matrix(0.8912 0 0 -0.8912 16.0022 182.7783)" overflow="visible"/>

			<use xlink:href="#New_Symbol_1"  width="37.1" height="25.7" x="-18.5" y="-12.8" transform="matrix(0.8912 0 0 -0.8912 32.3814 214.7799)" overflow="visible"/>

			<use xlink:href="#New_Symbol_1"  width="37.1" height="25.7" x="-18.5" y="-12.8" transform="matrix(0.8912 0 0 -0.8912 97.9499 269.8592)" overflow="visible"/>

			<use xlink:href="#New_Symbol_1"  width="37.1" height="25.7" x="-18.5" y="-12.8" transform="matrix(0.6312 0 0 -0.6312 78.525 149.2578)" overflow="visible"/>

			<use xlink:href="#New_Symbol_1"  width="37.1" height="25.7" x="-18.5" y="-12.8" transform="matrix(0.6312 0 0 -0.6312 21.9603 117.2854)" overflow="visible"/>

			<use xlink:href="#New_Symbol_1"  width="37.1" height="25.7" x="-18.5" y="-12.8" transform="matrix(0.6312 0 0 -0.6312 124.9997 134.4485)" overflow="visible"/>

			<use xlink:href="#New_Symbol_2"  width="40.7" height="49.8" x="-20.3" y="-24.9" transform="matrix(-1.7474 0.2389 -0.2605 -1.9054 61.231 360.9459)" overflow="visible"/>

			<use xlink:href="#New_Symbol"  width="326.7" height="166.3" x="-163.4" y="-83.2" transform="matrix(-1.9194 -0.1194 0.1139 -1.831 -214.9294 221.4962)" overflow="visible"/>
		<path fill="#936034" stroke="#683E1F" stroke-width="5.5565" stroke-miterlimit="10" d="M495.6-336.4c0,0-128.7,185.9-128.7,414.8
			s15.7,236,27.2,247.4c11.4,11.4,58.6,30,78.7,62.9c7.9,7.9,21.4,7.9,14.3,18.6c-5.7,8.6-42.9,10-60.1,4.3
			c-21.9-7.3-25.7-28.6-55.8-27.2c0,0,12.7,36.7,39.2,51.8c5.3,3,9,9.7,6.1,15.1c-8,14.6-73.4,11.8-138.2-38.3
			c-44.3-24.3-64.4,31.5-155.9,48.6c-57.2,4.3-68.7-11.4-67.2-20c1.4-8.6,27.2-7.2,41.5-14.3c14.3-7.2,28.6-22.9,41.5-27.2
			c0,0-15.5-9.7-37.2,10c-15.7,14.3-71.5,0-70.1-10c1.4-10,21.5-10,27.2-12.9c5.7-2.9,33.2-38,55.8-48.6
			c24.3-11.4,28.6-24.3,34.3-44.3c5.7-20-2.9-437.7,31.5-566.4c34.3-128.7,141.6-324.7,141.6-324.7l47.2-20c0,0,0,47.2-21.5,78.7
			c-21.5,31.5-87.2,151.6-84.4,236c0,0,160.2-195.9,180.2-300.4l55.8-7.2c0,0-8.6,65.8-47.2,135.9c-38.6,70.1-84.4,123-94.4,188.8
			c0,0,88.7-32.9,161.6-174.5l11.4,93L495.6-336.4z"/>
		<g>
			<path fill="#936034" d="M326.5,42.9c0,0-2.3-63.8-28.4-112.6"/>
			<path fill="#683E1F" d="M326.5,42.9c0,0-0.1-0.5-0.3-1.3c-0.2-0.8-0.5-2.1-0.8-3.7c-0.3-1.6-0.8-3.5-1.2-5.7
				c-0.5-2.2-1-4.6-1.6-7.3c-1.1-5.3-2.5-11.5-3.9-18.2c-0.7-3.3-1.5-6.7-2.2-10.2c-0.4-1.7-0.8-3.5-1.2-5.2
				c-0.4-1.8-0.8-3.5-1.2-5.3c-0.9-3.5-1.6-7-2.6-10.4c-0.5-1.7-0.9-3.4-1.3-5.1c-0.4-1.7-0.9-3.3-1.4-5c-0.4-1.6-0.9-3.2-1.3-4.8
				c-0.4-1.6-0.9-3.1-1.3-4.6c-0.4-1.5-0.8-2.9-1.3-4.4c-0.4-1.4-0.8-2.8-1.2-4.1c-0.8-2.6-1.6-5-2.2-7.1c-0.7-2.1-1.3-4-1.8-5.5
				c-0.5-1.5-0.9-2.8-1.1-3.6c-0.2-0.8-0.4-1.3-0.4-1.3s0.3,0.4,0.8,1.1c0.5,0.7,1.3,1.7,2.2,3.1c0.9,1.3,2.1,3,3.3,4.9
				c1.1,1.9,2.4,4.2,3.7,6.6c1.4,2.4,2.6,5.2,3.9,8.1c0.6,1.5,1.3,2.9,2,4.5c0.6,1.6,1.2,3.2,1.8,4.8c1.3,3.2,2.4,6.7,3.4,10.2
				c1.1,3.5,2,7.1,2.9,10.7c0.9,3.6,1.6,7.2,2.3,10.8c0.3,1.8,0.6,3.6,0.9,5.3c0.3,1.8,0.6,3.5,0.7,5.2c0.4,3.4,0.8,6.8,1,9.9
				c0.1,1.6,0.2,3.1,0.3,4.6c0,1.5,0.1,2.9,0.1,4.3c0.1,2.8,0,5.3,0,7.6c-0.1,2.3-0.2,4.2-0.3,5.8c-0.1,1.6-0.3,2.9-0.3,3.7
				C326.6,42.4,326.5,42.9,326.5,42.9z"/>
		</g>
		<g>
			<path fill="#936034" d="M180.7,52.8c0,0-12.9-31.6-2.2-57.9"/>
			<path fill="#683E1F" d="M180.7,52.8c0,0-0.1-0.2-0.4-0.6c-0.2-0.4-0.6-0.9-1-1.6c-0.8-1.4-1.9-3.5-3-6.2
				c-0.5-1.3-1.1-2.8-1.6-4.3c-0.5-1.5-1-3.2-1.4-4.9c-0.2-0.9-0.4-1.7-0.6-2.7c-0.2-0.9-0.3-1.8-0.5-2.7c-0.2-1.9-0.5-3.7-0.6-5.7
				c0-1.9-0.2-3.8-0.1-5.7c0.1-1.9,0.1-3.7,0.4-5.5c0.1-0.9,0.2-1.8,0.4-2.6c0.1-0.9,0.4-1.7,0.5-2.5c0.4-1.6,0.7-3.1,1.3-4.5
				c0.5-1.3,1-2.6,1.4-3.6c0.5-1,1.1-1.9,1.5-2.6c0.8-1.4,1.4-2.2,1.4-2.2s-0.1,1-0.3,2.6c-0.1,0.8-0.3,1.8-0.4,2.9
				c-0.1,1.1-0.2,2.4-0.4,3.7c-0.1,0.7-0.2,1.4-0.2,2.1c0,0.7-0.1,1.5-0.1,2.3c0,0.8-0.2,1.6-0.1,2.4c0,0.8,0,1.6,0,2.5
				c0,0.8-0.1,1.7,0,2.6c0,0.9,0.1,1.7,0.1,2.6c0,1.8,0.2,3.6,0.2,5.3c0,0.9,0.1,1.8,0.2,2.7c0.1,0.9,0.1,1.8,0.2,2.7
				c0.2,1.8,0.3,3.5,0.6,5.2c0.2,1.7,0.4,3.3,0.6,4.9c0.2,1.6,0.4,3,0.6,4.4C180.2,49.2,180.7,52.8,180.7,52.8z"/>
		</g>
		<g>
			<path fill="#936034" d="M343.3,65.5c0,0,0,45.8-37.2,95.8c-37.2,50.1-30,143-5.7,180.2"/>
			<path fill="#683E1F" d="M343.3,65.5c0,0,0,0.3,0,0.8c0,0.6,0.1,1.4,0,2.5c0,2.2-0.1,5.3-0.5,9.3c-0.2,2-0.4,4.2-0.8,6.6
				c-0.2,1.2-0.4,2.5-0.6,3.8c-0.2,1.3-0.5,2.6-0.8,4c-0.5,2.8-1.3,5.7-2,8.8c-0.4,1.5-0.9,3.1-1.3,4.7c-0.5,1.6-0.9,3.3-1.5,4.9
				c-1.1,3.3-2.2,6.8-3.6,10.2c-0.7,1.7-1.4,3.5-2.1,5.3c-0.8,1.8-1.6,3.6-2.5,5.4c-1.6,3.7-3.6,7.3-5.5,11
				c-0.9,1.9-2.1,3.7-3.2,5.5c-1.1,1.8-2.2,3.7-3.3,5.6c-2.4,3.6-4.9,7.2-7.4,10.9c-1.2,1.8-2.6,3.7-3.5,5.5
				c-0.5,0.9-1.1,1.8-1.6,2.7c-0.5,0.9-1,1.9-1.5,2.9c-4.1,7.7-7.3,16-9.9,24.5c-2.6,8.5-4.4,17.3-5.7,26.1
				c-1.3,8.7-2,17.4-2.2,25.9c-0.2,8.4-0.1,16.6,0.4,24.4c0.3,3.9,0.7,7.6,1.1,11.3c0.2,1.8,0.4,3.6,0.7,5.3
				c0.3,1.7,0.5,3.5,0.8,5.1c1.1,6.7,2.5,12.8,3.9,18.1c1.4,5.3,3,9.9,4.4,13.6c1.5,3.7,2.8,6.6,3.7,8.5c1,1.9,1.5,2.9,1.5,2.9
				s-0.7-0.9-1.9-2.7c-0.7-0.9-1.3-2-2.2-3.3c-0.9-1.3-1.7-2.9-2.7-4.7c-1.9-3.6-4-8-5.9-13.3c-2-5.3-3.9-11.4-5.6-18.1
				c-1.7-6.8-3.1-14.2-4-22.1c-1-7.9-1.6-16.3-1.6-25.1c0-8.7,0.4-17.8,1.6-26.9c1.2-9.1,3-18.3,5.7-27.3c2.7-9,6.3-17.8,10.8-26
				c0.6-1,1.1-2,1.7-3.1c0.6-1,1.3-2,1.9-3c1.2-2.1,2.6-3.8,3.8-5.6c2.6-3.6,5.1-7.1,7.6-10.5c1.2-1.8,2.3-3.5,3.4-5.3
				c1.1-1.7,2.3-3.4,3.3-5.2c2-3.5,4.2-6.9,5.9-10.3c0.9-1.7,1.8-3.4,2.7-5.1c0.8-1.7,1.6-3.4,2.4-5c1.6-3.3,2.9-6.6,4.3-9.7
				c0.7-1.6,1.2-3.1,1.8-4.6c0.6-1.5,1.1-3,1.6-4.5c1-2.9,2-5.7,2.7-8.4c0.4-1.3,0.8-2.6,1.1-3.9c0.3-1.3,0.6-2.5,0.9-3.6
				c0.6-2.3,1.1-4.5,1.5-6.4c0.8-3.9,1.4-7,1.6-9.1C343.2,66.6,343.3,65.5,343.3,65.5z"/>
		</g>
		<g>
			<path fill="#936034" d="M320.4,182.8c0,0-10,54.3,0,134.4"/>
			<path fill="#683E1F" d="M320.4,182.8c0,0-0.1,8.4-0.2,21.1c0,3.1,0,6.6-0.1,10.2c0,1.8,0,3.7,0,5.5c0,1.9,0,3.8,0,5.8
				c0,3.9,0,8,0,12.1c0,4.1,0,8.3,0,12.5c0,4.2,0.1,8.4,0.1,12.5c0.1,4.1,0.1,8.2,0.1,12.1c0.1,3.9,0.1,7.7,0.1,11.3
				c0,1.8,0,3.6,0.1,5.3c0,1.7,0,3.3,0,4.9c0,3.2,0,6.1,0,8.6c0,2.6,0,4.8,0,6.7c0,1.9-0.1,3.3-0.1,4.3c0,1-0.1,1.5-0.1,1.5
				s-0.1-0.5-0.4-1.5c-0.2-1-0.6-2.4-1.1-4.2c-0.4-1.8-1-4-1.5-6.5c-0.6-2.5-1.1-5.4-1.6-8.5c-0.5-3.1-1.1-6.5-1.6-10.2
				c-0.4-3.6-0.9-7.4-1.3-11.4c-0.3-4-0.6-8.1-0.8-12.2c-0.2-4.2-0.3-8.4-0.3-12.7c0.1-4.2,0-8.5,0.2-12.7c0.2-4.2,0.4-8.3,0.7-12.3
				c0.2-2,0.3-3.9,0.5-5.8c0.2-1.9,0.4-3.8,0.7-5.6c0.4-3.6,1-7,1.5-10.2c0.6-3.1,1.1-6,1.7-8.5c0.5-2.5,1.1-4.7,1.6-6.5
				c0.5-1.8,0.9-3.2,1.2-4.2C320.2,183.3,320.4,182.8,320.4,182.8z"/>
		</g>
		<g>
			<path fill="#754C28" d="M216,251.4c0,0-2.9,52.9-21.5,98.7"/>
			<path fill="#683E1F" d="M216,251.4c0,0,0.1,0.4,0.2,1.2c0.1,0.8,0.2,1.9,0.3,3.3c0.2,2.8,0.5,6.8,0.4,11.6c0,1.2,0,2.5-0.1,3.8
				c-0.1,1.3-0.1,2.6-0.2,4c-0.1,2.8-0.4,5.6-0.7,8.6c-0.2,1.5-0.4,3-0.6,4.5c-0.2,1.5-0.4,3.1-0.7,4.6c-0.5,3.1-1,6.3-1.7,9.4
				c-0.3,1.6-0.7,3.1-1,4.7c-0.3,1.6-0.8,3.1-1.2,4.6c-0.8,3.1-1.7,6-2.6,8.9c-0.5,1.4-0.9,2.8-1.4,4.2c-0.5,1.4-1,2.7-1.5,4
				c-1,2.6-2,5-3,7.2c-1,2.2-2,4.2-2.9,5.9c-0.9,1.7-1.8,3.2-2.5,4.4c-0.7,1.2-1.3,2.2-1.7,2.8c-0.4,0.6-0.6,1-0.6,1
				s0.1-0.4,0.2-1.2c0.1-0.7,0.3-1.8,0.6-3.2c0.3-1.4,0.6-3,1-4.9c0.4-1.9,0.8-4,1.3-6.4c0.5-2.3,1-4.8,1.6-7.5
				c0.3-1.3,0.6-2.7,0.9-4.1c0.3-1.4,0.6-2.8,0.9-4.2c0.3-1.4,0.6-2.9,1-4.4c0.3-1.5,0.6-3,0.9-4.5c0.7-3,1.3-6.1,1.9-9.1
				c0.7-3.1,1.3-6.1,1.9-9.1c0.6-3,1.2-6,1.9-8.9c0.6-2.9,1.2-5.7,1.8-8.3c0.6-2.6,1.2-5.2,1.7-7.5c0.6-2.3,1.1-4.4,1.5-6.3
				c0.4-1.9,0.9-3.5,1.2-4.9c0.3-1.4,0.6-2.4,0.8-3.2C215.9,251.8,216,251.4,216,251.4z"/>
		</g>
		<g>
			<path fill="#683E1F" d="M119.2,366.8c0,0,0.1-0.3,0.3-0.9c0.2-0.6,0.6-1.4,1-2.5c0.8-2.1,2-5.1,3.5-8.6c0.7-1.8,1.5-3.7,2.3-5.7
				c0.8-2,1.7-4.1,2.5-6.3c0.4-1.1,0.9-2.2,1.3-3.3c0.4-1.1,0.8-2.3,1.3-3.4c0.9-2.3,1.8-4.6,2.6-7l0.7-1.7l0.6-1.8
				c0.4-1.2,0.9-2.3,1.3-3.5c0.9-2.3,1.6-4.6,2.4-6.8c0.4-1.1,0.8-2.2,1.1-3.3c0.4-1.1,0.7-2.1,1.1-3.1c0.8-2,1.4-4,2-5.8
				c0.3-0.9,0.6-1.8,0.9-2.6c0.3-0.8,0.6-1.6,0.8-2.3c0.5-1.5,1-2.8,1.4-3.8c0.8-2.1,1.4-3.4,1.4-3.4s0.2,1.3,0.3,3.6
				c0.1,1.1,0.1,2.5,0.2,4.1c0,1.6-0.1,3.4-0.2,5.3c-0.1,2-0.3,4.1-0.6,6.3c-0.4,2.2-0.7,4.6-1.2,7c-0.3,1.2-0.6,2.4-0.9,3.6
				c-0.3,1.2-0.6,2.5-1,3.7c-0.4,1.2-0.7,2.5-1.2,3.7l-0.6,1.9l-0.7,1.8c-1,2.4-1.9,4.9-3,7.2c-1,2.4-2.2,4.6-3.4,6.7
				c-1.1,2.2-2.5,4.2-3.6,6.1c-1.3,1.9-2.5,3.6-3.7,5.2c-0.6,0.8-1.2,1.5-1.7,2.2c-0.6,0.7-1.1,1.3-1.7,1.9c-1,1.2-2,2.2-2.8,3
				C120.3,366,119.2,366.8,119.2,366.8z"/>
		</g>
		<g>
			<path fill="#936034" d="M351.9,232.8c0,0-7.2,93,17.2,144.5"/>
			<path fill="#683E1F" d="M351.9,232.8c0,0,0,0.6,0.1,1.7c0.1,1.1,0.2,2.7,0.3,4.7c0.3,4,0.6,9.8,1,16.6c0.4,6.8,0.9,14.8,1.4,23.4
				c0.1,2.1,0.3,4.3,0.4,6.5c0.2,2.2,0.3,4.4,0.5,6.6c0.2,2.2,0.4,4.5,0.5,6.7c0.2,2.3,0.4,4.5,0.6,6.8c0.4,4.5,0.9,9,1.3,13.5
				c0.3,2.2,0.5,4.4,0.8,6.6c0.3,2.2,0.5,4.3,0.8,6.4c0.3,2.1,0.6,4.2,0.9,6.2c0.3,2,0.6,4,0.9,5.9c0.3,1.9,0.7,3.8,1,5.6
				c0.3,1.8,0.7,3.5,1,5.2c0.7,3.3,1.3,6.4,2,9.1c0.6,2.7,1.3,5,1.8,7c0.5,1.9,1,3.4,1.3,4.5c0.3,1,0.4,1.6,0.4,1.6
				s-0.3-0.5-0.9-1.4c-0.5-0.9-1.5-2.3-2.4-4.1c-0.9-1.8-2.2-4-3.3-6.6c-1.2-2.6-2.4-5.5-3.6-8.8c-0.6-1.7-1.2-3.4-1.8-5.2
				c-0.5-1.8-1.1-3.7-1.7-5.6c-0.5-1.9-1-3.9-1.6-6c-0.5-2-0.9-4.1-1.4-6.3c-0.9-4.3-1.7-8.7-2.3-13.2c-0.7-4.5-1.2-9.1-1.6-13.7
				c-0.8-9.2-1.2-18.5-1.1-27.2c0-4.3,0.1-8.5,0.4-12.5c0.2-4,0.5-7.7,0.8-11.2c0.3-3.5,0.7-6.6,1-9.4c0.4-2.8,0.8-5.2,1.1-7.2
				c0.3-2,0.6-3.6,0.8-4.6C351.7,233.4,351.9,232.8,351.9,232.8z"/>
		</g>
		<g>
			<path fill="#683E1F" d="M157.4,350.1c0,0,0.4,0.8,0.8,2.2c0.4,1.4,0.8,3.5,1,6c0.2,2.5,0.1,5.4-0.3,8.5c-0.2,1.5-0.5,3.1-1,4.7
				c-0.4,1.6-1,3.2-1.6,4.8c-0.3,0.8-0.7,1.6-1.1,2.3c-0.4,0.8-0.8,1.5-1.3,2.2c-0.5,0.7-0.9,1.4-1.4,2.1c-0.5,0.7-1,1.3-1.5,1.9
				c-0.5,0.6-1,1.2-1.6,1.8c-0.6,0.6-1.1,1.1-1.7,1.5c-0.6,0.5-1.1,0.9-1.7,1.3c-0.6,0.4-1.1,0.8-1.7,1.1c-0.6,0.3-1.1,0.6-1.7,0.8
				c-0.6,0.2-1.1,0.4-1.6,0.6c-1,0.3-1.9,0.6-2.6,0.7c-1.5,0.2-2.3,0.3-2.3,0.3s0.6-0.7,1.5-1.7c0.4-0.5,1-1.2,1.6-1.9
				c0.6-0.7,1.2-1.6,1.9-2.5c0.3-0.4,0.7-0.9,1-1.4c0.3-0.5,0.7-1,1-1.5c0.2-0.3,0.3-0.5,0.5-0.8c0.2-0.3,0.3-0.6,0.5-0.8
				c0.3-0.6,0.7-1.1,1-1.7c0.7-1.2,1.2-2.4,1.9-3.7c0.6-1.3,1.2-2.6,1.7-3.9c0.6-1.3,1.1-2.7,1.6-4c0.5-1.4,1-2.7,1.5-4
				c1-2.7,1.9-5.2,2.7-7.4c0.8-2.2,1.6-4.1,2.1-5.4c0.3-0.7,0.5-1.2,0.7-1.6C157.3,350.3,157.4,350.1,157.4,350.1z"/>
		</g>
		<g>
			<path fill="#936034" d="M158.8,85.5c0,0,3.3,34.8,11,79.6c7.6,44.8,0,88.7,0,88.7"/>
			<path fill="#683E1F" d="M158.8,85.5c0,0,0.1,0.6,0.4,1.9c0.3,1.2,0.7,3,1.2,5.3c0.5,2.3,1.1,5,1.7,8.2c0.6,3.2,1.4,6.7,2.1,10.6
				c1.5,7.8,3.2,16.9,5,26.6c0.9,4.9,1.8,9.9,2.7,15c0.5,2.6,0.9,5.1,1.4,7.7c0.2,1.3,0.4,2.6,0.7,4l0.6,3.9l0.6,3.9
				c0.1,1.3,0.3,2.7,0.4,4c0.1,1.3,0.3,2.7,0.4,4c0.1,1.3,0.2,2.7,0.3,4c0.1,1.3,0.2,2.6,0.3,3.9c0.1,1.3,0.1,2.6,0.1,3.9
				c0.1,2.6,0.2,5.1,0.1,7.7c0,5-0.2,9.9-0.5,14.5c-0.3,4.6-0.8,8.9-1.3,12.9c-0.3,2-0.5,3.9-0.8,5.7c-0.3,1.8-0.6,3.5-0.9,5.1
				c-0.6,3.2-1.2,6-1.7,8.3c-0.5,2.3-1,4.1-1.3,5.3c-0.3,1.2-0.5,1.8-0.5,1.8s0.1-2.7,0.2-7.3c0-2.3,0.1-5.1,0.1-8.4
				c0-3.2,0-6.9,0-10.8c0-7.9-0.2-17.1-0.8-26.9c-0.3-4.9-0.7-9.9-1.2-15c-0.1-1.3-0.2-2.6-0.4-3.8c-0.2-1.3-0.3-2.5-0.5-3.8
				c-0.2-1.3-0.3-2.6-0.5-3.8l-0.6-3.9l-0.6-3.9c-0.2-1.3-0.4-2.6-0.6-3.8c-0.4-2.6-0.8-5.2-1.2-7.8c-0.4-2.6-0.7-5.2-1.1-7.7
				c-0.3-2.5-0.7-5-0.9-7.5c-1.2-9.9-2-19.2-2.5-27.1c-0.3-4-0.4-7.6-0.5-10.9c-0.1-3.2-0.2-6.1-0.2-8.4c0-2.3,0-4.2,0-5.4
				C158.8,86.2,158.8,85.5,158.8,85.5z"/>
		</g>
		<g>
			<defs>
				<path id="SVGID_3_" d="M188.2-39.4c0,0,91.1-94.6,112.5,90.8c3.5,30.6-43.2,60.6-58.2,60.4c-84.5-1.3-37.3-133.4-37.3-133.4
					L188.2-39.4z"/>
			</defs>
			<use xlink:href="#SVGID_3_"  overflow="visible" fill="#4F2E1D"/>
			<clipPath id="SVGID_4_">
				<use xlink:href="#SVGID_3_"  overflow="visible"/>
			</clipPath>
			<g clip-path="url(#SVGID_4_)">
				<path fill="#3B2314" d="M226.1-27.2c0,0,77.4-73.8,75.5,87.7c-0.3,26.6-38.2,48.6-49.4,47.1c-63.1-8.2-15.1-118-15.1-118
					L226.1-27.2z"/>
				<g>
					<path fill="#683E1F" d="M225.9-27.4c5.6-5.5,11.9-10.2,19-13.7c3.6-1.7,7.3-3.2,11.3-3.9c4-0.8,8.1-0.9,12.3-0.2
						c2,0.4,4.1,1.1,6,2c1.9,0.9,3.7,2,5.3,3.3c3.3,2.6,6,5.7,8.3,9.1c4.6,6.8,7.5,14.4,9.7,22c1.1,3.8,2.1,7.7,2.8,11.6
						c0.8,3.9,1.5,7.8,2,11.7c1,7.8,1.7,15.7,2.1,23.5c0.2,3.9,0.3,7.8,0.4,11.8c0,2,0.1,3.9,0.1,5.9l0,2.9l0,1.5l0,0.8l0,0.7
						c-0.1,4.4-1.3,8.7-2.9,12.6c-1.7,3.9-3.9,7.5-6.4,10.8c-5,6.6-11.3,12-18,16.5c-3.4,2.3-6.9,4.3-10.6,6
						c-1.9,0.9-3.8,1.7-5.8,2.3c-2,0.7-4.1,1.2-6.5,1.5c-0.6,0.1-1.2,0.1-1.9,0.1c-0.3,0-0.7,0-1-0.1c-0.2,0-0.3,0-0.6-0.1l-0.4-0.1
						c-0.9-0.1-2-0.3-3.1-0.5c-2.1-0.4-4.1-1-6.1-1.7c-4-1.4-7.9-3.5-11.2-6.3c-3.3-2.8-6.1-6.2-8.1-9.9c-2.1-3.7-3.5-7.7-4.4-11.7
						c-1.8-8.1-1.9-16.2-1.3-24.1c0.6-7.9,2-15.7,3.8-23.4c1.8-7.7,4-15.2,6.6-22.6c2.6-7.4,5.5-14.6,8.8-21.8l0.1,1
						c-1.7-2.9-3.5-5.7-5.2-8.6l-5.2-8.8L225.9-27.4z M226.3-27.2l11,16.6l0.1,0.1l0,0.1c-3,7.1-5.6,14.5-8,21.9
						c-2.3,7.4-4.4,14.9-6,22.5c-1.6,7.6-2.8,15.3-3.2,23c-0.4,7.7-0.1,15.6,1.7,23.1c0.9,3.7,2.3,7.4,4.2,10.7
						c1.9,3.3,4.4,6.4,7.3,8.8c3,2.4,6.4,4.3,10,5.5c1.8,0.6,3.7,1.1,5.6,1.5c0.9,0.2,1.9,0.3,2.9,0.5c0.9,0.2,1.9,0.2,2.8,0
						c3.8-0.5,7.4-1.9,10.9-3.5c3.5-1.6,6.8-3.6,10.1-5.8c6.4-4.3,12.3-9.5,17-15.6c2.4-3.1,4.4-6.4,5.9-9.9
						c1.5-3.5,2.5-7.3,2.6-11.1c0.1-7.7,0-15.5-0.2-23.3c-0.3-7.8-0.9-15.5-1.8-23.2c-1-7.7-2.3-15.4-4.3-22.9
						c-2.1-7.5-4.7-14.8-8.9-21.3c-2.1-3.2-4.6-6.2-7.6-8.6c-1.5-1.2-3.1-2.2-4.9-3.1c-1.7-0.8-3.5-1.5-5.4-1.9
						c-3.8-0.8-7.7-0.9-11.5-0.2c-3.8,0.6-7.5,1.9-11,3.5C238.5-36.7,232.1-32.3,226.3-27.2z"/>
				</g>
			</g>
			<use xlink:href="#SVGID_3_"  overflow="visible" fill="none" stroke="#683E1F" stroke-width="5.5565" stroke-miterlimit="10"/>
		</g>

			<use xlink:href="#New_Symbol_1"  width="37.1" height="25.7" x="-18.5" y="-12.8" transform="matrix(1.9231 0 0 -1.9231 445.5303 417.8561)" overflow="visible"/>
	</g>
</g>
</svg>
