<?xml version="1.0" encoding="utf-8"?>
<!-- Generator: Adobe Illustrator 18.1.1, SVG Export Plug-In . SVG Version: 6.00 Build 0)  -->
<svg version="1.1" id="Layer_1" xmlns="http://www.w3.org/2000/svg" xmlns:xlink="http://www.w3.org/1999/xlink" x="0px" y="0px"
	 viewBox="0 0 500 500" enable-background="new 0 0 500 500" xml:space="preserve">
<symbol  id="New_Symbol" viewBox="-10.2 -10.2 20.3 20.3">
	<path opacity="0.46" fill="#FFFFFF" stroke="#AFA88A" stroke-width="0.7825" stroke-miterlimit="10" d="M9.8,0
		c0-5.4-4.4-9.8-9.8-9.8c-5.4,0-9.8,4.4-9.8,9.8c0,5.4,4.4,9.8,9.8,9.8C5.4,9.8,9.8,5.4,9.8,0z"/>
</symbol>
<symbol  id="New_Symbol_1" viewBox="-12.9 -10.5 25.7 20.9">

		<path fill="#FFFFFF" stroke="#8C3743" stroke-width="3.3054" stroke-linecap="round" stroke-linejoin="round" stroke-miterlimit="10" d="
		M11.2,8.7c0,0-7.6,1-17.7-2.3"/>

		<path fill="none" stroke="#8C3743" stroke-width="3.3054" stroke-linecap="round" stroke-linejoin="round" stroke-miterlimit="10" d="
		M6.3-8.8c0,0-6.9,3.4-17.5,3.5"/>
</symbol>
<symbol  id="New_Symbol_2" viewBox="-33.6 -21.2 67.3 42.3">

		<path fill="none" stroke="#8C3743" stroke-width="3.3054" stroke-linecap="round" stroke-linejoin="round" stroke-miterlimit="10" d="
		M22.8,19.5c0,0,10.6-10.9,9-27.3"/>

		<path fill="none" stroke="#8C3743" stroke-width="3.3054" stroke-linecap="round" stroke-linejoin="round" stroke-miterlimit="10" d="
		M-3.2,17.8c0,0,11.9-9.5,12.5-25.9"/>

		<path fill="none" stroke="#8C3743" stroke-width="3.3054" stroke-linecap="round" stroke-linejoin="round" stroke-miterlimit="10" d="
		M-32,4.9c0,0,12.8-8.1,15.2-24.4"/>
</symbol>
<symbol  id="New_Symbol_3" viewBox="-1.8 -2.1 3.7 4.3">
	<path fill="#6D6E70" stroke="#333333" stroke-width="0.7825" stroke-miterlimit="10" d="M-1,0.9c0,0-0.9-2.2-0.2-2.7
		c0.7-0.5,2.3,3.3,2.3,3.3L-1,0.9z"/>
</symbol>
<g>
	<rect fill="#F4DC7A" width="500" height="500"/>
	<g>
		<path fill="#DFC680" stroke="#A78E51" stroke-width="1.5048" stroke-miterlimit="10" d="M319.3,454
			c-27.3,13.1-75.1,12.8-80.1,12.8c0,0-0.1,0-0.1,0c-2.7,0-52.4,0.7-80.5-12.8c0,0,22.1-31.8,80.1-31.9h0.4
			C297.1,422.3,319.3,454,319.3,454z"/>
		<path fill="#F8F6DC" stroke="#B5AE7D" stroke-width="1.5048" stroke-miterlimit="10" d="M275.1,426.8L275.1,426.8
			c-10-2.8-21.8-4.6-35.7-4.7h-0.8c-13.9,0-25.7,1.9-35.7,4.7l0,0c0-2.8,1.9-5.2,4.6-5.8c8.9-2.1,19.3-3.5,31.1-3.5h0.8
			c11.8,0,22.1,1.4,31.1,3.5C273.2,421.6,275.1,424,275.1,426.8z"/>

			<use xlink:href="#New_Symbol_3"  width="3.7" height="4.3" x="-1.8" y="-2.1" transform="matrix(1.9231 0 0 -1.9231 248.008 422.0905)" overflow="visible"/>

			<use xlink:href="#New_Symbol_3"  width="3.7" height="4.3" x="-1.8" y="-2.1" transform="matrix(2.2082 0 0 -2.4638 251.2808 428.0528)" overflow="visible"/>

			<use xlink:href="#New_Symbol_3"  width="3.7" height="4.3" x="-1.8" y="-2.1" transform="matrix(2.1941 0.2489 0.2777 -2.4481 253.757 436.885)" overflow="visible"/>

			<use xlink:href="#New_Symbol_3"  width="3.7" height="4.3" x="-1.8" y="-2.1" transform="matrix(2.2082 0 0 -2.4638 257.9857 444.4445)" overflow="visible"/>

			<use xlink:href="#New_Symbol_3"  width="3.7" height="4.3" x="-1.8" y="-2.1" transform="matrix(2.2082 0 0 -2.4638 263.0855 448.7653)" overflow="visible"/>
		<g>

				<use xlink:href="#New_Symbol_3"  width="3.7" height="4.3" x="-1.8" y="-2.1" transform="matrix(1.0279 1.9544 -2.1806 1.1469 218.3926 359.2074)" overflow="visible"/>

				<use xlink:href="#New_Symbol_3"  width="3.7" height="4.3" x="-1.8" y="-2.1" transform="matrix(1.0279 1.9544 -2.1806 1.1469 216.9892 350.4507)" overflow="visible"/>

				<use xlink:href="#New_Symbol_3"  width="3.7" height="4.3" x="-1.8" y="-2.1" transform="matrix(1.0279 1.9544 -2.1806 1.1469 214.9702 342.3311)" overflow="visible"/>

				<use xlink:href="#New_Symbol_3"  width="3.7" height="4.3" x="-1.8" y="-2.1" transform="matrix(1.0279 1.9544 -2.1806 1.1469 212.5965 333.9693)" overflow="visible"/>

				<use xlink:href="#New_Symbol_3"  width="3.7" height="4.3" x="-1.8" y="-2.1" transform="matrix(1.0279 1.9544 -2.1806 1.1469 209.3774 326.4797)" overflow="visible"/>
		</g>

			<use xlink:href="#New_Symbol_3"  width="3.7" height="4.3" x="-1.8" y="-2.1" transform="matrix(2.2082 0 0 -2.4638 269.5456 451.3132)" overflow="visible"/>
		<path fill="#FFFFFF" stroke="#808184" stroke-width="1.5048" stroke-miterlimit="10" d="M245.9,418c0,0-1.5-10.5,1.8-20.5
			l13.1,2.2c0,0-0.5,9.9,13.1,35.8c8.6,16.4-8,23.6-17.4,6.9c-5-9.4-6.8-17.9-6.8-17.9S246.2,422.3,245.9,418z"/>
		<g>

				<path fill="#FFFFFF" stroke="#9B3434" stroke-width="2.0064" stroke-linecap="round" stroke-linejoin="round" stroke-miterlimit="10" d="
				M238.7,322.4c0,0-5.2,16.5,4.7,50.9c3.7,12.4,6.3,35.3,6.3,35.3s7.3,8.9,13.1,1.1c0,0-6.4-31.3,0.3-80.4L238.7,322.4z"/>

				<path fill="#D84C45" stroke="#9B3434" stroke-width="2.0064" stroke-linecap="round" stroke-linejoin="round" stroke-miterlimit="10" d="
				M261,348.9c0.5-6.1,1.2-12.7,2.1-19.6l-24.4-6.9c0,0-5.2,16.5,4.7,50.9c3.7,12.4,6.3,35.3,6.3,35.3s1,1.1,2.6,2.1
				c0,0-5.8-39.7-6.2-62.8c0,0,2,0.9,6.9,1.9C258.2,350.9,261,348.9,261,348.9z"/>
		</g>
		<path fill="#FFFFFF" stroke="#808184" stroke-width="1.5048" stroke-miterlimit="10" d="M253.2,412c0,0,6-8.1,9.6-2.4v7.8h-7.3
			L253.2,412z"/>

			<path fill="#D84C45" stroke="#9B3434" stroke-width="2.0064" stroke-linecap="round" stroke-linejoin="round" stroke-miterlimit="10" d="
			M281.4,48.9c0,0,0-5.1,5.1-5.1c5.1,0,5.2,7,5.2,7L281.4,48.9z"/>
		<path fill="#FFFFFF" stroke="#808184" stroke-width="1.5048" stroke-miterlimit="10" d="M198.3,319.3c0,0,4.4-0.2,8.1,0.4
			c5.9,1,5,13.8,5,13.8s13.4,28.9,3.1,33.6c-9.3,4.3-20.8-37.6-20.8-37.6L198.3,319.3z"/>
		<g>

				<path fill="#FFFFFF" stroke="#9B3434" stroke-width="2.0064" stroke-linecap="round" stroke-linejoin="round" stroke-miterlimit="10" d="
				M176,327.5c0,0,16.2,4.4,23.1,6.7c0,0,6.1,0.9,4.8-10.3c0,0-2.2-1.6-4.3-5.3c-2.8-5.1-5.6-8.7-8.5-10.5L176,327.5z"/>

				<path fill="#D84C45" stroke="#9B3434" stroke-width="2.0064" stroke-linecap="round" stroke-linejoin="round" stroke-miterlimit="10" d="
				M204.1,327.6c0-1.1,0-2.3-0.1-3.7c0,0-2.2-1.6-4.3-5.3c-2.8-5.1-5.6-8.7-8.5-10.5L176,327.5c0,0,6.6,1.8,13.2,3.7c0,0,5,1,7.6-10
				l0,0L204.1,327.6z"/>
		</g>
		<path fill="#FFFFFF" stroke="#808184" stroke-width="1.5048" stroke-miterlimit="10" d="M195.1,334.7c0,0-1.7-2.6,1.3-3.4
			c3-0.8,7.7,1.7,7.7,1.7l1.9,3.6l-8.5,1.6L195.1,334.7z"/>
		<path fill="#815C51" stroke="#563C36" stroke-width="1.0032" stroke-miterlimit="10" d="M246.6,251.9c0,0,3.8-14.6,14.8-15.8
			c23.7-2.6,37.5,37.5,26.6,43.3c0,0-1.1,23.9-12.7,24.3c-4.1,0-6.1-3-6.1-3s-2,6.5-7.5,7.9C256.2,310,246.6,251.9,246.6,251.9z"/>

			<path fill="#F1CC7D" stroke="#BB914A" stroke-width="1.8006" stroke-linecap="round" stroke-linejoin="round" stroke-miterlimit="10" d="
			M250.2,189.3c0,0-0.9,31.4,8,54.3c0,0,6,8.5,11.7,0c0,0-8.1-20.2-4.3-48.8L250.2,189.3z"/>

			<path fill="#815C51" stroke="#563C36" stroke-width="1.0032" stroke-linecap="round" stroke-linejoin="round" stroke-miterlimit="10" d="
			M273.5,260.4c0,0,1.4,2.3,1.5,6.8c0.2,9.3,5.7,16,13,12.3"/>
		<path fill="#815C51" stroke="#563C36" stroke-width="1.0032" stroke-miterlimit="10" d="M253.7,258.9c0,0,4.6,10.7,17.6,12.3"/>

			<path fill="#815C51" stroke="#563C36" stroke-width="1.0032" stroke-linecap="round" stroke-linejoin="round" stroke-miterlimit="10" d="
			M269.1,270.9c0,0,4.2,0.1,1,21.9"/>
		<path fill="#815C51" stroke="#563C36" stroke-width="1.0032" stroke-miterlimit="10" d="M260.8,267.5c0,0,4.1,0.8-2.7,21.8"/>
		<path fill="#FFFFFF" stroke="#ABA3BB" stroke-width="1.5048" stroke-miterlimit="10" d="M286.4,122.1c0,0,1.5,12.1-3.9,28.2
			c-4.9,14.5-7.1,33.9-5.3,47c0,0-17.9,1.1-32.5-6.7C244.7,190.6,249.5,144.1,286.4,122.1z"/>
		<path fill="#FFFFFF" stroke="#231F20" stroke-width="1.0032" stroke-miterlimit="10" d="M283,129.4c0,0-0.6,14.6-13.9,26.1"/>
		<path fill="#FFFFFF" stroke="#ABA3BB" stroke-width="1.5048" stroke-miterlimit="10" d="M158.3,180.8c0,0,12.8,27.5,47.7,27.5
			c21.3-1.3,30.2-6,30.2-6s28.2,58.7,29.6,120.3c0,28.9-30.2,19-32.6-10.1c-1.6-20.1-16.5-61-34.3-84.3c0,0-15.9-4.1-5.8,67.4
			c4.8,36.7-16.7,42.3-27,21.3C155.8,295.9,136.8,211.5,158.3,180.8z"/>

			<use xlink:href="#New_Symbol"  width="20.3" height="20.3" x="-10.2" y="-10.2" transform="matrix(1.0331 0 0 -1.0331 230.1709 64.0158)" overflow="visible"/>

			<path fill="#D84C45" stroke="#9B3434" stroke-width="2.0064" stroke-linecap="round" stroke-linejoin="round" stroke-miterlimit="10" d="
			M166.2,188.8c-2.9-3.1-5.4-6.6-7.4-10.6c0,0-4,5.5-5.8,12.5c0,0,1.7,4.5,7.9,10C161.8,197.7,163.4,193.1,166.2,188.8z"/>
		<g>

				<path fill="#D84C45" stroke="#9B3434" stroke-width="2.0064" stroke-linecap="round" stroke-linejoin="round" stroke-miterlimit="10" d="
				M187.3,204.1c-0.2,2-0.2,4-0.2,5.7c3.4,0,7-0.4,11-1.2C198.1,208.6,193.5,207.2,187.3,204.1z"/>

				<path fill="#D84C45" stroke="#9B3434" stroke-width="2.0064" stroke-linecap="round" stroke-linejoin="round" stroke-miterlimit="10" d="
				M181.4,200.9c-3.5-2.1-7.1-4.6-10.6-7.6c-2.5,4.1-4,8.4-4.7,11.1c3.9,2.4,8.9,4.3,14.9,5.1C180.9,207,180.9,204,181.4,200.9z"/>
		</g>
		<path fill="#FFFFFF" stroke="#ABA3BB" stroke-width="1.5048" stroke-miterlimit="10" d="M247.9,313.5c0,0-8.2,2.4-15.2-5.4
			c0,0,2.6,15,15.2,18.6"/>
		<path fill="#FFFFFF" stroke="#ABA3BB" stroke-width="1.5048" stroke-miterlimit="10" d="M158.3,180.8c0,0-2.3-42.2,104.5-80.7
			l24.7,15.1c0,0,5.4,21.9-25.3,46.2c-24.2,19.2-26,40.9-26,40.9S184.5,226.2,158.3,180.8z"/>

			<path fill="none" stroke="#9B3434" stroke-width="2.0064" stroke-linecap="round" stroke-linejoin="round" stroke-miterlimit="10" d="
			M229.9,113.6c0,0,25.7,0.1,13.8,31c-5.3,12.8-29.5,29.3-37.8,63.7"/>

			<path fill="#F1CC7D" stroke="#BB914A" stroke-width="1.8006" stroke-linecap="round" stroke-linejoin="round" stroke-miterlimit="10" d="
			M250.2,107.7c0,0,11.3,6.2,13.9,29.5l18.9-10L250.2,107.7z"/>

			<path fill="none" stroke="#9B3434" stroke-width="2.0064" stroke-linecap="round" stroke-linejoin="round" stroke-miterlimit="10" d="
			M264.1,137.1c0,0,3.8,19.6-19,35.4c-16.7,13.1-20.5,34.1-20.5,34.1"/>

			<path fill="#F1CC7D" stroke="#BB914A" stroke-width="1.8006" stroke-linecap="round" stroke-linejoin="round" stroke-miterlimit="10" d="
			M300.5,122.1c0,0,10.2,2.5,16.2-4.4c9-10.3-0.8-16.8-7.4-10.8"/>

			<ellipse transform="matrix(0.988 0.1543 -0.1543 0.988 18.5564 -42.1912)" fill="#F1CC7D" stroke="#BB914A" stroke-width="1.8006" stroke-linecap="round" stroke-linejoin="round" stroke-miterlimit="10" cx="281.1" cy="98.5" rx="37.5" ry="30.7"/>

			<path fill="#F1CC7D" stroke="#BB914A" stroke-width="1.8006" stroke-linecap="round" stroke-linejoin="round" stroke-miterlimit="10" d="
			M265.7,107.9c0,0,6.2,8.4,15,11.9"/>

			<path fill="#F1CC7D" stroke="#BB914A" stroke-width="1.8006" stroke-linecap="round" stroke-linejoin="round" stroke-miterlimit="10" d="
			M291.7,100.1c0,0,10.2,4.5,7.1,11.6c-2.9,6.6-12.2,1.9-12.2,1.9"/>

			<ellipse transform="matrix(-0.9835 -0.1809 0.1809 -0.9835 535.0534 236.9002)" fill="#231F20" cx="278.3" cy="94.1" rx="2.5" ry="5.7"/>

			<ellipse transform="matrix(-0.9835 -0.1809 0.1809 -0.9835 580.6633 253.7351)" fill="#231F20" cx="301.9" cy="100.4" rx="2.5" ry="5.7"/>

			<path fill="#F1CC7D" stroke="#BB914A" stroke-width="1.8006" stroke-linecap="round" stroke-linejoin="round" stroke-miterlimit="10" d="
			M340.4,221.3c0,0,5.4,25.7,11.2,27.5c6.3,1.9-0.2-16.5-0.2-16.5L340.4,221.3z"/>

			<path fill="#F1CC7D" stroke="#BB914A" stroke-width="1.5048" stroke-linecap="round" stroke-linejoin="round" stroke-miterlimit="10" d="
			M214.2,141.6c7.2,15,37.9,50.6,91.1,71.2c13.1,5.1,26.2,9.5,33.7,12.7c6.5,12.5,16.8,17.5,16.8,17.5s2.3,8.8,5.5,14.6
			c5.9,10.9,9.3-4.1,4.1-17.4c-2.9-7.4-7.2-19.9-21.7-25.4c-14.4-5.5-74.7-27.5-99-79.3C230.9,106,205.8,124.1,214.2,141.6z"/>

			<path fill="#D84C45" stroke="#9B3434" stroke-width="2.0064" stroke-linecap="round" stroke-linejoin="round" stroke-miterlimit="10" d="
			M314.3,217.8l18,7.3c0,0,6.2-2.6,6.9-13.4c0,0-7-5.4-17.1-7.4C322.1,204.3,317.4,208.6,314.3,217.8z"/>
		<path fill="#FFFFFF" stroke="#ABA3BB" stroke-width="1.5048" stroke-miterlimit="10" d="M210.6,136.8
			c-2.1-10.5,9.6-23.5,22.7-16.9c6,3.2,12.8,19,27,31.4c0,0-18.5,2.7-16.4,34.4C243.9,185.6,216.8,168.4,210.6,136.8z"/>
		<path fill="#FFFFFF" stroke="#ABA3BB" stroke-width="1.5048" stroke-miterlimit="10" d="M290.3,47.4
			c-42.7-6.7-41.8,34.4-41.8,34.4c29.8-29.3,65.8,4.2,65.8,4.2C314.6,73.8,312.2,50.8,290.3,47.4z"/>

			<text transform="matrix(0.7357 0.1117 -0.1501 0.9887 289.1883 67.165)" fill="#BF3C3C" font-family="'ChalkboardSE-Bold'" font-size="22.1744">A</text>

			<path fill="#F1CC7D" stroke="#BB914A" stroke-width="1.8006" stroke-linecap="round" stroke-linejoin="round" stroke-miterlimit="10" d="
			M246.4,105.8c0,0-9.7-6.6-8.5-16.9c1.9-15.2,14.6-11.8,14.5-1.9"/>
		<path fill="#FFFFFF" d="M206,331.1c0,0-8.5,3.6-9,6.3c-0.4,2.3,3.4,6,9,5.1c1.2-0.2,2.4-4.2,2.4-4.2L206,331.1z"/>
		<g>

				<path fill="none" stroke="#9B3434" stroke-width="1.5048" stroke-linecap="round" stroke-linejoin="round" stroke-miterlimit="10" d="
				M204.1,356.3c0,0,3.1,1.1,5.9-0.9c0,0-4.4-9.8-5.9-18.4c0,0-5.1,1.5-6.6,1.3C197.5,338.2,200.3,351.4,204.1,356.3z"/>

				<path fill="none" stroke="#9B3434" stroke-width="1.5048" stroke-linecap="round" stroke-linejoin="round" stroke-miterlimit="10" d="
				M204.1,337c0,0-2.1,3.6-5.9,4.4c0,0,3.6,1.3,7,0.5c0,0-1.6,2.9-6,3c0,0,2.8,2,7.3,1.2c0,0-1.8,2.5-6.1,2.6c0,0,3.9,1.9,7.4,1.3
				c0,0-2.7,2.5-5.8,2.7c0,0,4.1,1.1,7.2,0.7c0,0-1.8,2.9-5.1,2.9"/>
		</g>
		<path fill="#FFFFFF" d="M249,409.6c0,0,3.6,2.8,7.3,2.9l4.6-2c0,0,1.9-5.7,4.4,12.5l-10.1,1.7l-5-8.7L249,409.6z"/>
		<g>
			<g>

					<path fill="none" stroke="#231F20" stroke-width="1.0032" stroke-linecap="round" stroke-linejoin="round" stroke-miterlimit="10" d="
					M272,435.7c0,0-2.1,1.9-6.6,0.7c0,0-3.7-10.5-9.2-19.1c0,0,6.2,0.1,7.5-0.5C263.7,416.7,271.7,430,272,435.7z"/>

					<path fill="none" stroke="#231F20" stroke-width="1.0032" stroke-linecap="round" stroke-linejoin="round" stroke-miterlimit="10" d="
					M256.3,417.2c0,0,5,2.9,9.3,2.7c0,0-2.5,2.1-6.4,2.3c0,0,3.9,2.4,8.3,1.3c0,0-1.1,2.7-6.1,3c0,0,3.8,1.9,8,0.9
					c0,0-2.4,2.8-6.2,3.2c0,0,4.7,1.7,7.9,1.1c0,0-3.1,2.1-6.5,2.5c0,0,4.1,2.3,7.4,1.5"/>
			</g>
			<g>

					<path fill="none" stroke="#9B3434" stroke-width="1.5048" stroke-linecap="round" stroke-linejoin="round" stroke-miterlimit="10" d="
					M272,435.7c0,0-2.1,1.9-6.6,0.7c0,0-3.7-10.5-9.2-19.1c0,0,6.2,0.1,7.5-0.5C263.7,416.7,271.7,430,272,435.7z"/>

					<path fill="none" stroke="#9B3434" stroke-width="1.5048" stroke-linecap="round" stroke-linejoin="round" stroke-miterlimit="10" d="
					M256.3,417.2c0,0,5,2.9,9.3,2.7c0,0-2.5,2.1-6.4,2.3c0,0,3.9,2.4,8.3,1.3c0,0-1.1,2.7-6.1,3c0,0,3.8,1.9,8,0.9
					c0,0-2.4,2.8-6.2,3.2c0,0,4.7,1.7,7.9,1.1c0,0-3.1,2.1-6.5,2.5c0,0,4.1,2.3,7.4,1.5"/>
			</g>
		</g>

			<path fill="#D84C45" stroke="#9B3434" stroke-width="2.0064" stroke-linecap="round" stroke-linejoin="round" stroke-miterlimit="10" d="
			M255.2,76.3c0,0,9.6,7.9,16.1,6.9c6.5-1,37.3-8.9,49.1,11c0,0-4.9-16.6-35.2-23.4C264.1,66.3,255.2,76.3,255.2,76.3z"/>

			<use xlink:href="#New_Symbol"  width="20.3" height="20.3" x="-10.2" y="-10.2" transform="matrix(1.6036 0 0 -1.6036 218.3471 56.9855)" overflow="visible"/>

			<use xlink:href="#New_Symbol"  width="20.3" height="20.3" x="-10.2" y="-10.2" transform="matrix(1.9231 0 0 -1.9231 204.3472 54.7427)" overflow="visible"/>
		<g>

				<circle fill="#FFFFFF" stroke="#998379" stroke-width="0.8429" stroke-linecap="round" stroke-linejoin="round" stroke-miterlimit="10" cx="188.3" cy="55.9" r="21.4"/>

				<path fill="none" stroke="#8C3743" stroke-width="0.8429" stroke-linecap="round" stroke-linejoin="round" stroke-miterlimit="10" d="
				M184.4,76.9c-4.2,0-10.8-11-2.6-22.4c8.6-12,26.4-12.2,27.8-1.4"/>

				<path fill="#FFFFFF" stroke="#8C3743" stroke-width="0.8429" stroke-linecap="round" stroke-linejoin="round" stroke-miterlimit="10" d="
				M167.1,53.4c0,0,3.1-0.1,7.2-5.5c4.1-5.4,4.8-10.6,4.8-10.6"/>

				<use xlink:href="#New_Symbol_2"  width="67.3" height="42.3" x="-33.6" y="-21.2" transform="matrix(0.255 0 0 -0.255 194.3735 47.8682)" overflow="visible"/>

				<use xlink:href="#New_Symbol_2"  width="67.3" height="42.3" x="-33.6" y="-21.2" transform="matrix(2.450284e-02 0.2538 -0.2538 2.450284e-02 180.0163 62.3692)" overflow="visible"/>

				<use xlink:href="#New_Symbol_1"  width="25.7" height="20.9" x="-12.9" y="-10.5" transform="matrix(0.2557 0 0 -0.2557 177.4559 41.5214)" overflow="visible"/>

				<use xlink:href="#New_Symbol_1"  width="25.7" height="20.9" x="-12.9" y="-10.5" transform="matrix(5.123450e-02 0.2255 -0.2493 5.664510e-02 171.7037 50.4939)" overflow="visible"/>
		</g>
	</g>
</g>
</svg>
