<?xml version="1.0" encoding="utf-8"?>
<!-- Generator: Adobe Illustrator 18.1.1, SVG Export Plug-In . SVG Version: 6.00 Build 0)  -->
<svg version="1.1" id="Layer_1" xmlns="http://www.w3.org/2000/svg" xmlns:xlink="http://www.w3.org/1999/xlink" x="0px" y="0px"
	 viewBox="0 0 500 500" enable-background="new 0 0 500 500" xml:space="preserve">
<g>
	<defs>
		<rect id="SVGID_1_" y="0" width="500" height="500"/>
	</defs>
	<clipPath id="SVGID_2_">
		<use xlink:href="#SVGID_1_"  overflow="visible"/>
	</clipPath>
	<g clip-path="url(#SVGID_2_)">
		<g>
			<rect x="-273.3" y="-48.3" fill="#745FA8" width="1240" height="1179.5"/>
			<g>
				<path fill="#C2E6EB" stroke="#4C9EBC" stroke-width="7.5066" stroke-miterlimit="10" d="M342.9,940.2c7,136.3,25,276.2,63,364.9
					l-605.1,0.2c0,0,7.7-179.3,44.6-374.5c0,0-97.7-0.7-174.1-167.5c0,0,209.2-362,452.3-329.2c70.2-9.5,118.2,1.4,150.8,24.3
					c29.6,8.5,146.7,59.4,244.4,345.2C518.8,803.5,470.6,909.5,342.9,940.2z"/>

					<path fill="#FCCB98" stroke="#C08857" stroke-width="7.7699" stroke-linecap="round" stroke-linejoin="round" stroke-miterlimit="10" d="
					M290.9,429.6l-16.1,52.6c-6.2,20.1-9.2,34.2-22.2,50.3c-16.6,20.5-79.2,22-138.2,7.8c-69.1-16.6-84.4-47.7-84.4-47.7l15.3-65.1
					L290.9,429.6z"/>
				<g>
					<path fill="#FCCB98" d="M386,382.7c31.9,6.6,60.2-9.9,81.1-32.8c20.9-22.9,33.3-53.5,34.2-84.5c0.6-19.7-4.6-41.4-20.7-52.8
						c-12.8-9-30.2-9.5-44.9-4.2c-14.7,5.3-27.1,15.7-37.7,27.2"/>
					<g>
						<path fill="#C08857" d="M385,386.4c47.4,9.4,90-28.6,108.2-69.3c9.4-21.1,14.3-45.1,11.1-68.2c-1.4-10.2-4.7-20.5-10.8-29
							c-6.6-9.1-16.2-15.5-27.3-17.8c-27.9-5.8-52.8,11.1-70.9,30.5c-3.4,3.7,2.1,9.2,5.5,5.5c14.9-15.9,34-30.6,57-29.4
							c10.1,0.5,19.7,4.6,26.5,12c6.3,6.9,9.8,16,11.7,25.1c4.1,20.4,0.2,42.5-7.2,61.7c-7.8,20.3-21,38.3-37.7,52.2
							c-17.9,14.8-40.7,23.7-64,19C382.2,378,380.1,385.5,385,386.4L385,386.4z"/>
					</g>
				</g>

					<ellipse fill="#FCCB98" stroke="#C08857" stroke-width="7.7699" stroke-linecap="round" stroke-linejoin="round" stroke-miterlimit="10" cx="201.9" cy="277.1" rx="279.5" ry="207.5"/>

					<path fill="#FFFFFF" stroke="#C2986B" stroke-width="4.8562" stroke-linecap="round" stroke-linejoin="round" stroke-miterlimit="10" d="
					M182.2,434c0,0,43.2-68.5,123.6-72.7c80.5-4.2,47.8,63.7,47.8,63.7s1.9-22.6-45.7-22.4C266.5,402.7,229.4,431.6,182.2,434z"/>

					<path fill="#FFFFFF" stroke="#929497" stroke-width="4.8562" stroke-linecap="round" stroke-linejoin="round" stroke-miterlimit="10" d="
					M211.5,401.2c0,0,134.4-4.7,148.3-9.7"/>

					<path fill="#FCCB98" stroke="#C08857" stroke-width="7.7699" stroke-linecap="round" stroke-linejoin="round" stroke-miterlimit="10" d="
					M266.6,183.1c0,0,7.1,19.8-22.7,25.3c-58.5,10.8-95.4,37-95.4,37"/>

					<path fill="#FCCB98" stroke="#C08857" stroke-width="7.7699" stroke-linecap="round" stroke-linejoin="round" stroke-miterlimit="10" d="
					M353.6,187.2c0,0-6.3,21.2,13.2,22.9c36.2,3.2,56.9,29.3,56.9,29.3"/>
				<g>
					<path fill="#231F20" d="M157.1,275.4c0,0,0.3-0.4,0.9-1c0.6-0.6,1.4-1.6,2.6-2.7c1.1-1.1,2.6-2.4,4.3-3.8
						c1.7-1.4,3.7-2.9,5.9-4.4c2.2-1.5,4.7-3.1,7.4-4.6c2.7-1.5,5.6-3,8.7-4.3c1.6-0.7,3.2-1.3,4.8-1.9c0.8-0.3,1.7-0.6,2.5-0.9
						c0.8-0.3,1.7-0.5,2.6-0.8c1.7-0.5,3.5-1.1,5.3-1.4c1.8-0.4,3.6-0.8,5.4-1.1c1.8-0.3,3.7-0.5,5.5-0.7c0.9-0.1,1.9-0.1,2.8-0.2
						c0.9,0,1.9-0.1,2.8-0.1c1.9,0,3.7-0.1,5.6,0.1c0.9,0.1,1.8,0.1,2.8,0.2c0.9,0.1,1.8,0.3,2.7,0.4c0.9,0.2,1.8,0.3,2.7,0.5
						c0.9,0.2,1.7,0.4,2.6,0.7c0.9,0.2,1.7,0.4,2.5,0.7c0.8,0.3,1.6,0.6,2.4,0.9c0.8,0.3,1.6,0.6,2.3,1c0.7,0.4,1.5,0.7,2.2,1.1
						c0.7,0.3,1.4,0.8,2,1.2c0.7,0.4,1.3,0.8,1.9,1.2c2.4,1.7,4.4,3.5,6,5.3c0.4,0.4,0.8,0.9,1.1,1.3c0.3,0.4,0.6,0.9,0.9,1.3
						c0.5,0.8,1.1,1.6,1.5,2.3c0.5,0.7,0.7,1.4,1,2c0.3,0.6,0.5,1.1,0.7,1.5c0.3,0.8,0.5,1.2,0.5,1.2l-0.8,0.6c0,0-0.3-0.3-0.8-0.9
						c-0.6-0.6-1.3-1.5-2.4-2.5c-0.6-0.5-1.2-1-1.9-1.6c-0.3-0.3-0.7-0.6-1.1-0.9c-0.4-0.3-0.8-0.5-1.2-0.8c-1.7-1.2-3.7-2.3-6-3.4
						c-1.2-0.5-2.4-1-3.7-1.5c-0.7-0.2-1.3-0.4-2-0.6c-0.7-0.2-1.4-0.4-2.1-0.6c-1.4-0.3-2.9-0.7-4.4-0.9c-0.8-0.1-1.5-0.2-2.3-0.3
						c-0.8-0.1-1.6-0.1-2.4-0.2c-0.8,0-1.6-0.1-2.4-0.1c-0.8,0-1.6,0-2.4,0c-1.6-0.1-3.3,0.1-5,0.2c-1.7,0.1-3.4,0.3-5,0.5
						c-1.7,0.3-3.4,0.5-5.1,0.8c-1.7,0.3-3.4,0.6-5,0.9c-0.8,0.2-1.7,0.4-2.5,0.5c-0.8,0.2-1.6,0.4-2.5,0.6
						c-3.3,0.8-6.4,1.8-9.5,2.7c-3.1,1-6,2-8.7,3.1c-2.8,1-5.3,2.1-7.7,3.1c-4.7,2-8.6,3.8-11.3,5.2c-2.7,1.3-4.2,2.2-4.2,2.2
						L157.1,275.4z"/>
				</g>
				<g>
					<path fill="#231F20" d="M415.1,269.2c0,0-0.3-0.1-1-0.2c-0.6-0.2-1.5-0.3-2.6-0.6c-2.2-0.5-5.3-1.4-8.8-2.5
						c-1.7-0.5-3.6-1.1-5.5-1.7c-1.9-0.6-3.8-1.3-5.9-1.9c-1-0.3-2-0.6-3-1c-0.5-0.1-1-0.3-1.5-0.4c-0.5-0.2-1-0.3-1.5-0.5
						c-1-0.3-2-0.6-3-0.8c-1-0.3-2-0.5-2.9-0.7c-1.9-0.5-3.8-0.8-5.6-1c-0.4-0.1-0.9-0.1-1.3-0.2c-0.4,0-0.8-0.1-1.3-0.1
						c-0.2,0-0.4,0-0.6-0.1l-0.6,0c-0.4,0-0.8,0-1.2,0c-1.5,0.1-3.1,0.2-4.6,0.6c-0.4,0.1-0.8,0.2-1.1,0.2c-0.4,0.1-0.7,0.3-1.1,0.4
						c-0.4,0.1-0.7,0.2-1.1,0.4c-0.3,0.2-0.7,0.3-1,0.5c-0.4,0.2-0.7,0.3-1.1,0.5c-0.4,0.1-0.6,0.4-1,0.6c-0.7,0.4-1.3,0.7-1.9,1.1
						c-1.1,0.8-2.3,1.5-3.2,2.2c-0.9,0.7-1.6,1.2-2.1,1.6c-0.5,0.4-0.8,0.6-0.8,0.6l-0.9-0.4c0,0,0.5-1.1,1.5-3.1
						c0.5-1,1.2-2.1,2-3.4c0.9-1.2,1.9-2.7,3.3-3.9c0.3-0.3,0.7-0.7,1-1c0.4-0.3,0.8-0.6,1.2-0.9c0.4-0.3,0.8-0.6,1.2-0.9
						c0.5-0.3,0.9-0.5,1.4-0.8c1.9-1.1,4.1-1.9,6.4-2.5c2.3-0.4,4.8-0.8,7.2-0.6c1.2,0,2.5,0.2,3.7,0.3c1.2,0.2,2.5,0.4,3.7,0.7
						c1.2,0.3,2.4,0.6,3.6,1c1.2,0.4,2.3,0.8,3.5,1.2c1.1,0.4,2.2,0.9,3.3,1.4c1.1,0.5,2.2,1,3.2,1.5c2.1,1.1,4,2.1,5.8,3.2
						c1.8,1.1,3.5,2.2,5,3.2c1.5,1,2.9,2,4.1,2.9c1.2,0.9,2.2,1.7,3,2.4c1.7,1.4,2.6,2.2,2.6,2.2L415.1,269.2z"/>
				</g>

					<path fill="#FCCB98" stroke="#C08857" stroke-width="7.7699" stroke-linecap="round" stroke-linejoin="round" stroke-miterlimit="10" d="
					M345.7,259.7c0,0,52,8.8,47.9,51.4c-2.3,24.1-31.6,35.7-66.8,29.5"/>
			</g>
		</g>
		<rect x="-273.3" y="-48.3" fill="none" width="1240" height="1179.5"/>
		<path fill="#593320" stroke="#23130C" stroke-width="7.2843" stroke-miterlimit="10" d="M517.8,261.9c0,0-115.1-186.5-365.4-155.7
			c-56.3,5.7-114,26.9-114,26.9S50.7,241-10.5,310c0,0-27.7-50.2-65.7-41.2l-16.8-23c0,0,11.5-54.3,35.1-86.1l-32.8-12.5
			c0,0,16.2-24.1,38.9-16.2l-40.6-33.1c0,0,32.8-17.3,64.5,6.6l-15.9-39.7c0,0,26.9,7.2,51,36.2c0,0,222.2-122.9,401.5-63.7
			l-66.3,24.1c0,0,106.9,9,164.3,88.1l-67.3-14.7C439.3,134.8,492,176.9,517.8,261.9z"/>
		<path fill="#C8E9F1" stroke="#5E8BC8" stroke-width="4.9162" stroke-miterlimit="10" d="M260.7,282c0,0,3.9,27.1,3.4,42.9
			c-0.1,4.7,4.6,8,8.9,6c3.5-1.6,6.9-5.1,8.5-12.6C285.3,300.6,260.7,282,260.7,282z"/>
	</g>
</g>
</svg>
