<?xml version="1.0" encoding="utf-8"?>
<!-- Generator: Adobe Illustrator 18.1.1, SVG Export Plug-In . SVG Version: 6.00 Build 0)  -->
<svg version="1.1" id="Layer_1" xmlns="http://www.w3.org/2000/svg" xmlns:xlink="http://www.w3.org/1999/xlink" x="0px" y="0px"
	 viewBox="0 0 500 500" enable-background="new 0 0 500 500" xml:space="preserve">
<symbol  id="New_Symbol" viewBox="-4.5 -12.9 9 25.7">

		<path fill="#D0D2D3" stroke="#6D6E70" stroke-width="0.9651" stroke-linecap="round" stroke-linejoin="round" stroke-miterlimit="10" d="
		M1.3-12.2c1.5,0.5,2.5,2.1,2.7,3.7c0.2,1.6-0.2,3.3-0.7,4.9C1.8,1.7,0.4,7-1.1,12.4C-2,7.3-2.8,2.1-3.6-3C-4-5-4.3-7.2-3.6-9.2
		s2.8-3.6,4.8-3.1C1.2-12.3,1.3-12.2,1.3-12.2z"/>
</symbol>
<g>
	<defs>
		<rect id="SVGID_1_" y="0" width="500" height="500"/>
	</defs>
	<use xlink:href="#SVGID_1_"  overflow="visible" fill="#BE1E2D"/>
	<clipPath id="SVGID_2_">
		<use xlink:href="#SVGID_1_"  overflow="visible"/>
	</clipPath>
	<g clip-path="url(#SVGID_2_)">
		<rect x="0.1" y="0" fill="#9D303D" width="500" height="500"/>
		<g>

				<path fill="#F0CBA1" stroke="#C2986B" stroke-width="2.8789" stroke-linecap="round" stroke-linejoin="round" stroke-miterlimit="10" d="
				M182.7,259c-14.3-9-24.2-24.6-26.3-41.4c-0.9-6.8-0.4-13.9,2.7-20c3.1-6.1,9.3-10.8,16.1-10.9c6.8-0.1,13.6,5.6,13.6,12.4"/>
			<path fill="#F7EC30" stroke="#958731" stroke-width="4.2171" stroke-miterlimit="10" d="M381.5,112.1
				c-2.2-6.7-5.8-13.1-10.3-18.5c-10.5-12.4-25.4-20.3-40.8-25.7c-17.6-6.2-36.9-9.5-54.9-4.5c-8.5,2.3-16.9,6.9-20.9,14.8
				s-1.7,19.1,6.4,22.6c34.8,15,56.5,35.6,84.7,60.9c15,2.9,31.1-8,36.1-22.7C384.7,130.3,384.3,120.8,381.5,112.1z"/>
			<path fill="#F7EC30" stroke="#958731" stroke-width="4.2171" stroke-miterlimit="10" d="M357.6,156.6c3.8,3.2,7.2,6.7,10,10.7
				c11.5,16.2,10.3,39.9-1.6,55.6c-2.4-3.5-4.7-7-7.1-10.4c-6.2-9.1-12.3-18.2-18-27.7c-15.8-5.8-31.6-11.6-47.4-17.4
				c-16.7-6.1-34.1-12.3-51.7-13.1c-24.8,8.3-46.5,25.5-60.2,47.7c-6.6-5-11-12.9-11.8-21.1c-0.7-8.4,2.4-17.1,8.2-23.1
				c3.1-3.2,6.9-5.7,10.9-7.9c-9.3-13.9-7.2-34.1,3.6-47C204,89.3,223,83.6,240.4,86.5c16.7,2.7,31.4,12.3,45.5,21.6
				c18.7,12.4,37.4,24.8,56.1,37.2C347.4,148.8,352.8,152.4,357.6,156.6z"/>
			<g>
				<g>
					<path fill="#F7EC30" d="M273.5,100.4c-4.2-5.8-3.9-14.6,0.9-20"/>
					<g>
						<path fill="#958731" d="M274,100.1c-3.5-6.5-2.9-13.2,1.4-19.1c0.8-1.1-0.9-2.3-1.8-1.4c-5.3,5.6-5.4,15.4-0.5,21.2
							C273.5,101.3,274.3,100.7,274,100.1L274,100.1z"/>
					</g>
				</g>
				<g>
					<path fill="#F7EC30" d="M288.7,106.4c-3-4.3-4.1-9.9-2.9-15.1c1.2-5.1,4.7-9.7,9.3-12.2"/>
					<g>
						<path fill="#958731" d="M289.3,106.2c-1.9-4.9-3.7-9.2-2.3-14.6c1.3-4.9,4.6-8.7,8.8-11.4c1.4-0.9,0.2-3-1.3-2.2
							c-5,2.5-8.7,7.5-9.9,13c-1.1,5.1-0.3,12.1,3.7,15.9C288.6,107.2,289.5,106.8,289.3,106.2L289.3,106.2z"/>
					</g>
				</g>
				<g>
					<path fill="#F7EC30" d="M303.9,118.2c-2.1-12.9,4.4-26.8,15.6-33.5"/>
					<g>
						<path fill="#958731" d="M304.9,118.2c-1.2-12.9,4.2-25.2,15.4-32.2c1.6-1,0.1-3.6-1.5-2.6c-11.5,6.9-18.6,21.7-15.8,35.1
							C303.2,119.5,305,119.3,304.9,118.2L304.9,118.2z"/>
					</g>
				</g>
				<g>
					<path fill="#F7EC30" d="M342.4,139.1c8.8-0.7,17.2-5.8,21.9-13.4"/>
					<g>
						<path fill="#958731" d="M342.4,140c9.2,0,18.2-6.1,23.1-13.6c1-1.5-1.5-2.9-2.4-1.4c-2.3,3.7-5.4,6.8-9.1,9.1
							c-3.7,2.3-7.6,3.3-11.8,4.1C341.2,138.4,341.4,140,342.4,140L342.4,140z"/>
					</g>
				</g>
				<g>
					<path fill="#F7EC30" d="M354.7,147.3c5.4,0.6,11-1.3,14.9-5.1"/>
					<g>
						<path fill="#958731" d="M354.6,148c5.6,1.7,11.9-1.1,16-4.8c1.3-1.1-0.7-3.1-1.9-1.9c-4,3.9-8.6,4.9-14,5.4
							C354,146.8,353.8,147.8,354.6,148L354.6,148z"/>
					</g>
				</g>
				<g>
					<path fill="#F7EC30" d="M236.9,120.1c-2.4,5.1-2.5,11.1-0.4,16.3s6.4,9.5,11.7,11.5"/>
					<g>
						<path fill="#958731" d="M236,119.6c-5.4,11.1-0.5,25.9,11.8,29.8c1.6,0.5,2.7-2,1.2-2.8c-4.4-2.2-8.2-5.1-10.5-9.6
							c-2.6-5.2-2.6-11.2-0.6-16.6C238.3,119.3,236.5,118.5,236,119.6L236,119.6z"/>
					</g>
				</g>
				<g>
					<path fill="#F7EC30" d="M223,148c-11.1-3.8-18.8-15.7-17.7-27.3"/>
					<g>
						<path fill="#958731" d="M223.5,147.1c-10.5-4.6-17.4-14.9-16.7-26.5c0.1-2-2.9-2-3.1,0c-1,12.2,7.2,24.8,19,28.3
							C223.8,149.2,224.5,147.6,223.5,147.1L223.5,147.1z"/>
					</g>
				</g>
				<g>
					<path fill="#F7EC30" d="M208.2,159.8c-5.3-0.1-10.5-2.8-13.6-7"/>
					<g>
						<path fill="#958731" d="M208.2,159c-5.2-0.7-9.4-3.1-12.7-7.2c-0.9-1.1-2.8,0.4-1.9,1.5c3.3,4.6,8.9,7.5,14.6,7.1
							C209.2,160.5,209.1,159.2,208.2,159L208.2,159z"/>
					</g>
				</g>
			</g>

				<path fill="#F0CBA1" stroke="#C2986B" stroke-width="2.8789" stroke-linecap="round" stroke-linejoin="round" stroke-miterlimit="10" d="
				M161.2,400c-4.9-8.5-43.1-37.9-47-46.9c-1.8-15.6,22.1-19,20.3-34.6c10.8,11.4,27.7,33,34.5,47.2c3.3,4.9,6.8,9.7,10.5,14.3"/>

				<path fill="#5E499D" stroke="#7D7DBB" stroke-width="3.7118" stroke-linecap="round" stroke-linejoin="round" stroke-miterlimit="10" d="
				M232.6,361.5c4.5-10,9.4-19.7,15-29.1c16-26.6,38.6-50.4,67.4-61.9c28.9-11.5,64.5-8.7,87.7,11.9c19.2,17,27.6,43.1,32.5,68.3
				c10,51.8,8.6,105.9-3.9,157.1c-90.4,0-180.8,0-271.1,0C197.6,468.3,209.9,411.8,232.6,361.5z"/>

				<path fill="#FFFFFF" stroke="#68CBE3" stroke-width="3.5846" stroke-linecap="round" stroke-linejoin="round" stroke-miterlimit="10" d="
				M349.9,397.1c29.9-8.7,56.6-28.3,73.9-54.3c0,9.7,0,22.4,0,25.9c14.5-15.8,21.9-37.9,20-59.2c2.1,7.1,4.3,14.1,6.4,21.2
				c11.5-29.1-7.6-62.6-35.1-76.7c-26.4-13.6-58-12.6-87.1-6.7c-53.8,10.8-104.3,37.2-143.9,75.2c5.5,0.3,11.1,0.6,16.6,0.9
				c-12.2,12.3-19.3,29.7-18.8,47.1c7.2-5.2,14.4-10.3,21.6-15.5c-22.3,24-32.2,59-25.2,91.1c4-21.8,15.5-42,32.1-56.7
				c0,0,2.3-2,4.6-4c-5.1,5.2-10.2,10.5-10.2,10.5c-10,10.3-10.7,26.2-10.8,40.5c-0.2,27.2-0.4,54.3-0.6,81.5c14,0.2,28,0.4,42,0.5
				c42.4-49.2,93.5-90.9,150.1-122.8c-11,0.4-21.9,0.8-32.9,1.2c0.8-0.3,1.6-0.5,2.4-0.8"/>

				<path fill="#F0CBA1" stroke="#C2986B" stroke-width="2.8789" stroke-linecap="round" stroke-linejoin="round" stroke-miterlimit="10" d="
				M64,257.1c13.1-12.3,33.2-13.3,48.4-4.3c15.2,9,25.3,26.6,28.2,45.3c2.7,17-0.2,34.7-6.4,50.6c-37-12-66-49.6-70.9-91.6"/>

				<path fill="#F0CBA1" stroke="#C2986B" stroke-width="2.8789" stroke-linecap="round" stroke-linejoin="round" stroke-miterlimit="10" d="
				M126.8,513.3c-6.1-1-12.2-1.9-18.3-2.9c-11.6-52.7-6.4-108.3,15.2-158.6c7.9,3.7,16.4,6.3,25.1,7.7c-9.3,40.2-8.9,82.2,1.4,122.3
				c3.4,13.2,8.1,26.6,16.3,37.8C153.3,517.4,140,515.4,126.8,513.3z"/>

				<ellipse transform="matrix(-0.9995 -3.197426e-02 3.197426e-02 -0.9995 237.4855 543.0554)" fill="#F0CBA1" stroke="#C2986B" stroke-width="2.8789" stroke-linecap="round" stroke-linejoin="round" stroke-miterlimit="10" cx="123.1" cy="269.6" rx="10.8" ry="20.9"/>

				<path fill="#F0CBA1" stroke="#C2986B" stroke-width="2.8789" stroke-linecap="round" stroke-linejoin="round" stroke-miterlimit="10" d="
				M268.9,338.4c2.5,6.3,5,12.5,7.5,18.8c18.1-17.9,38.8-33.1,61.3-45c-2.7-15.7-2.8-31.8-0.1-47.5c-27.8,12.8-57.3,21.9-87.4,27
				C256.4,307.3,262.6,322.9,268.9,338.4z"/>

				<use xlink:href="#New_Symbol"  width="9" height="25.7" x="-4.5" y="-12.9" transform="matrix(1.9231 0 0 -1.9231 179.6659 273.7951)" overflow="visible"/>

				<ellipse fill="#F0CBA1" stroke="#C2986B" stroke-width="2.8789" stroke-linecap="round" stroke-linejoin="round" stroke-miterlimit="10" cx="268" cy="229.2" rx="96.1" ry="77"/>

				<path fill="#FFFFFF" stroke="#C2986B" stroke-width="2.8789" stroke-linecap="round" stroke-linejoin="round" stroke-miterlimit="10" d="
				M293.6,262.1c2-1.4,4-2.9,6.1-4.3c-28.6,4.8-58.7,1.5-85.5-9.5c2.8,8.7,8.4,16.5,15.7,21.8c9.1,6.5,20.7,9.3,31.8,7.5
				C273.5,275.7,283.6,269.1,293.6,262.1z"/>
			<g>
				<path fill="#FBDE60" stroke="#B09430" stroke-width="3.5433" stroke-miterlimit="10" d="M27.4,145.7c1.8-3.2,5.1-5.6,8.7-6.5
					c5-1.2,10.4,0.3,14.5,3.4c5.2,3.9,8.5,10,10.1,16.3c1.5,5.8,1.8,11.8,2,17.8c-5.1,0.6-10,2.3-14.3,5c-7-6-13.8-12.2-18.7-19.9
					c-2.3-3.6-4.2-7.9-3.6-12.1C26.3,148.2,26.7,146.9,27.4,145.7z"/>
				<g>
					<defs>
						<path id="SVGID_3_" d="M41.3,180.2c-6.2,7.2-9,17.4-6.8,26.6c2.3,9.6,9.3,17.4,16.9,23.8s16,11.7,22.9,18.9
							c27.3,28.4,28.4,90.6,55.7,119.4c6.3,0.1,12.6-1.6,17.9-4.9c-20.9-40.7-40.5-98.7-47.3-143.9c-2.3-15.1-4.4-31.7-15.7-42.1
							c-9.5-8.7-24.7-10.6-35.9-4.2C46,175.5,43.5,177.7,41.3,180.2z"/>
					</defs>
					<use xlink:href="#SVGID_3_"  overflow="visible" fill="#FBDE60"/>
					<clipPath id="SVGID_4_">
						<use xlink:href="#SVGID_3_"  overflow="visible"/>
					</clipPath>
					<g clip-path="url(#SVGID_4_)">
						<path fill="#FBDE60" stroke="#B09430" stroke-width="3.5433" stroke-miterlimit="10" d="M74,163.6c6.5,10.6,9.5,23.4,8.3,35.8
							c-2.6-2.6-5.3-5.4-8.7-6.9c-3.2-1.4-7.2-1.4-9.8,0.9c-1.8,1.6-2.7,4-2.8,6.5c-0.2,2.5,0.4,4.9,0.8,7.3
							c-8.6-10.1-21.4-16.5-34.6-17.3"/>
						<path fill="#FBDE60" stroke="#B09430" stroke-width="3.5433" stroke-miterlimit="10" d="M102.2,195.2
							c1.1,3.5,2.1,7.1,2.1,10.8c0,3.7-1,7.5-3.4,10.2c-2.4,2.8-6.4,4.3-9.9,3.3c-6.7-2-9.1-11.5-15.8-13.1c1.5,7.3,0.7,15-2.2,21.8
							c-1.1,2.7-2.7,5.3-5.2,6.8c-2.8,1.6-6.3,1.4-9.5,1.2c-3.6-0.3-7.2-0.5-10.8-0.8"/>
					</g>
					<use xlink:href="#SVGID_3_"  overflow="visible" fill="none" stroke="#B09430" stroke-width="3.5433" stroke-miterlimit="10"/>
				</g>
			</g>

				<path fill="#F0CBA1" stroke="#C2986B" stroke-width="2.8789" stroke-linecap="round" stroke-linejoin="round" stroke-miterlimit="10" d="
				M64.5,284.4c4.5,17,13.4,32.9,25.7,45.5c6.7-3.8,12.3-9.5,16-16.2c4.7-8.5,6.4-18.7,4.6-28.3c-8.2-14.6-21.3-26.3-36.7-32.9
				c-4.4-1.9-9.2-3.3-13.8-2.1c-7.3,1.9-13.1,12.7,1.2,17.8C62.1,273.7,63.1,279.1,64.5,284.4z"/>
			<g>
				<path fill="#5E499D" d="M277.1,537.2c17.5-46.5,54.2-85.5,99.5-106"/>
				<g>
					<path fill="#7D7DBB" d="M278.1,537.5c14.9-35.5,40.3-67,72.2-88.5c4.4-3,9-5.8,13.7-8.4c2.3-1.3,4.7-2.5,7.1-3.7
						c2.5-1.2,5-2.2,7.1-4.1c1.3-1.2,0.4-4-1.6-3.8c-4.8,0.6-9.5,3.7-13.7,6c-4.2,2.3-8.4,4.8-12.5,7.5
						c-8.3,5.4-16.2,11.5-23.6,18.1c-14.7,13.3-27.5,28.8-37.3,46c-5.5,9.6-10,19.8-13.5,30.3C275.6,538.2,277.6,538.7,278.1,537.5
						L278.1,537.5z"/>
				</g>
			</g>

				<path fill="#F0CBA1" stroke="#C2986B" stroke-width="2.8789" stroke-linecap="round" stroke-linejoin="round" stroke-miterlimit="10" d="
				M143.6,329.2c-8.7-7.6-20.6-11.5-32.1-10.7c-11.5,0.8-22.7,6.4-30.3,15.1c-6.4,7.4-10.3,18.1-6.2,27c3.8,8.2,13.2,12.5,22.1,13.7
				s18.1,0,27.1,1c13.8,1.4,27,8,36.4,18.1"/>

				<ellipse transform="matrix(0.9007 -0.4344 0.4344 0.9007 -146.4664 95.7878)" fill="#FBDE60" stroke="#B09430" stroke-width="3.5433" stroke-miterlimit="10" cx="136.3" cy="368.3" rx="16" ry="15.3"/>

				<ellipse transform="matrix(0.9007 -0.4344 0.4344 0.9007 -150.9822 99.4498)" fill="#FBDE60" stroke="#B09430" stroke-width="3.5433" stroke-miterlimit="10" cx="142.1" cy="380" rx="29.3" ry="20.8"/>

				<ellipse transform="matrix(0.9007 -0.4344 0.4344 0.9007 -152.1622 100.3922)" fill="#FBDE60" stroke="#B09430" stroke-width="3.5433" stroke-miterlimit="10" cx="143.6" cy="383.1" rx="21.5" ry="15.3"/>
			<path stroke="#6D6E70" stroke-width="2.1086" stroke-miterlimit="10" d="M189.2,215.6c-1.4-3.5-2.2-7.2-2.6-10.9
				c-0.5-4.7-0.3-9.4,0.1-14.2c57.4,3.7,114.8,7.4,172.3,11.2c-0.2,3.3-1.1,6.5-2.7,9.4c-10.6-0.4-21.2-0.8-31.8-1.3
				c-5.1,16-21.9,27.4-38.6,26.3c-16.2-1.1-30.8-13.9-34.4-29.7c-5.8-0.3-11.6-0.6-17.5-1c-1.9,5.9-4.1,11.9-7.9,16.8
				c-3.4,4.5-8.3,8-13.8,8.9c-6.8,1-13.8-2.3-18.3-7.5C191.9,221.2,190.4,218.5,189.2,215.6z"/>

				<path fill="#F0CBA1" stroke="#C2986B" stroke-width="2.8789" stroke-linecap="round" stroke-linejoin="round" stroke-miterlimit="10" d="
				M342,213.6c-0.6,0.6-1.1,1.3-1.7,1.9c4.8-4.8,10.5-8.9,17-11c6.5-2.1,13.8-1.9,19.9,1.1c9.7,4.9,14.7,16.9,13,27.7
				c-1.7,10.8-9,20.1-18.2,26c-9.2,5.9-20,8.7-30.7,10.3"/>

				<use xlink:href="#New_Symbol"  width="9" height="25.7" x="-4.5" y="-12.9" transform="matrix(1.9231 0 0 -1.9231 362.1858 272.1523)" overflow="visible"/>
			<g>
				<path fill="#FFFFFF" d="M200.5,503.4c8.8-56.1,34.6-109.3,73.3-150.9c38.6-41.6,89.9-71.2,145.2-84"/>
				<path fill="#7FCEE7" d="M200.3,503.4c0,0,0.2-1.3,0.5-3.8c0.2-1.2,0.3-2.8,0.6-4.6c0.1-0.9,0.2-1.9,0.4-2.9
					c0.2-1,0.4-2.1,0.6-3.3c0.4-2.3,0.8-4.9,1.4-7.6c0.6-2.8,1.2-5.7,1.9-8.9c0.8-3.2,1.6-6.5,2.5-10.1c1-3.5,2.2-7.2,3.3-11
					c0.7-1.9,1.3-3.8,2-5.8c0.7-2,1.3-4,2.2-6c1.6-4,3.2-8.2,5.1-12.4c3.6-8.5,8-17.2,13-26c1.3-2.2,2.6-4.4,3.9-6.6
					c0.6-1.1,1.3-2.2,2-3.3c0.7-1.1,1.4-2.2,2.1-3.3c2.7-4.4,5.8-8.7,8.9-13c3.2-4.2,6.4-8.5,9.9-12.6c1.7-2.1,3.4-4.2,5.2-6.2
					l5.4-6.1c7.3-7.6,15.2-15.2,23.2-22.1c4.1-3.4,8.1-6.8,12.3-9.8c1-0.8,2.1-1.6,3.1-2.3c1-0.8,2.1-1.5,3.1-2.3
					c2.1-1.5,4.2-2.9,6.3-4.3c8.4-5.6,16.8-10.6,25-14.8c4-2.2,8.1-4.1,12-6c1.9-1,3.9-1.7,5.8-2.6c1.9-0.8,3.8-1.6,5.7-2.4
					c3.8-1.4,7.3-2.9,10.8-4.1c3.5-1.2,6.8-2.3,9.9-3.3c3.1-0.9,6.1-1.8,8.8-2.6c2.7-0.8,5.2-1.3,7.5-1.9c1.1-0.3,2.2-0.6,3.2-0.8
					c1-0.3,2-0.4,2.9-0.6c1.8-0.4,3.3-0.7,4.5-0.9c2.4-0.5,3.8-0.7,3.8-0.7c0.1,0,0.2,0,0.2,0.2c0,0.1,0,0.2-0.2,0.2
					c0,0-1.3,0.3-3.7,0.9c-2.4,0.6-6,1.4-10.4,2.8c-2.2,0.7-4.7,1.3-7.4,2.2c-2.7,0.9-5.5,1.9-8.6,2.9c-3,1.1-6.3,2.3-9.7,3.6
					c-3.4,1.4-6.9,2.9-10.6,4.4c-1.8,0.8-3.7,1.7-5.5,2.6c-1.9,0.9-3.8,1.7-5.7,2.7c-3.8,2-7.8,3.9-11.8,6.2
					c-8,4.3-16.2,9.5-24.4,15.1c-8.2,5.7-16.3,12-24.3,18.7c-7.9,6.9-15.5,14.2-22.8,22c-7.2,7.8-14,16-20.3,24.4
					c-6.2,8.5-11.9,17-16.9,25.6c-5,8.6-9.5,17.1-13.3,25.5c-2,4.1-3.6,8.2-5.3,12.2c-0.9,2-1.6,4-2.3,5.9c-0.7,1.9-1.5,3.8-2.2,5.7
					c-1.3,3.8-2.5,7.4-3.6,10.8c-1,3.5-2,6.8-2.9,9.9c-0.8,3.1-1.6,6.1-2.3,8.8c-0.7,2.7-1.2,5.2-1.7,7.5c-1,4.5-1.6,8.2-2,10.6
					c-0.4,2.5-0.7,3.8-0.7,3.8c0,0.1-0.1,0.2-0.2,0.2C200.3,503.6,200.3,503.5,200.3,503.4L200.3,503.4z"/>
			</g>

				<path fill="#F0CBA1" stroke="#C2986B" stroke-width="2.8789" stroke-linecap="round" stroke-linejoin="round" stroke-miterlimit="10" d="
				M179.5,380c36,45.4,89.2,77.1,146.3,86.5c-10.1,7.1-19.1,15.8-26.6,25.6c-5.7,7.4-10.5,15.4-14.3,23.9
				c-51.5-25.2-95.1-66.2-123.7-115.9"/>

				<path fill="#F0CBA1" stroke="#C2986B" stroke-width="2.8789" stroke-linecap="round" stroke-linejoin="round" stroke-miterlimit="10" d="
				M245.9,241.4c-5.9,2.4-12.5,3.6-18.6,2s-11.7-6.4-12.9-12.7c-1.4-6.9,2.7-14,8.5-18.1c5.8-4.1,12.9-5.6,19.8-6.8"/>
		</g>
	</g>
</g>
</svg>
