<?xml version="1.0" encoding="utf-8"?>
<!-- Generator: Adobe Illustrator 18.1.1, SVG Export Plug-In . SVG Version: 6.00 Build 0)  -->
<svg version="1.1" id="Layer_1" xmlns="http://www.w3.org/2000/svg" xmlns:xlink="http://www.w3.org/1999/xlink" x="0px" y="0px"
	 viewBox="0 0 500 500" enable-background="new 0 0 500 500" xml:space="preserve">
<symbol  id="New_Symbol" viewBox="-39.1 -13.6 78.2 27.2">

		<path fill="#F1CB7D" stroke="#B9904A" stroke-width="0.9466" stroke-linecap="round" stroke-linejoin="round" stroke-miterlimit="10" d="
		M35.2-3.4c0,0-24.6-5.5-48.6,2.2c0,0-4.2,10.5-7.3,9.8c-3.1-0.7-0.1-6.6-0.1-6.6s-7,8-11.8,10.2c-4,1.9-6.6,1.4-6-3.3
		c0.9-6.3,17-16.1,23.9-16.5c0,0,26.6-8.7,53.3-4.1L35.2-3.4z"/>
</symbol>
<symbol  id="New_Symbol_1" viewBox="-24.7 -26.1 49.5 52.3">

		<path fill="#FFFFFF" stroke="#6D6F71" stroke-width="0.9466" stroke-linecap="round" stroke-linejoin="round" stroke-miterlimit="10" d="
		M-20.1,5.3c0,0,1.8-17.1,4.7-29.2c0.3-1.1,1.1-2.1,2.2-1.8l9.6,2.8c1.2,0.3,1.9,1.6,1.5,2.8C-3.9-14.2-9,1.7-10.8,4.6L-20.1,5.3z"
		/>
	<path fill="#2C4351" stroke="#6D6F71" stroke-width="0.9466" stroke-miterlimit="10" d="M-20-0.6c0,0-4.7,10.5-4.2,19.2
		c0.1,1.2,0.9,2.2,2,2.6c6.8,2.2,32.1,9.5,45.8-1.2c1-0.8,0.9-2.3-0.1-3c-1.9-1.2-5.2-2.8-10.9-3.6C2.7,12-6.9,4-9.1,0.1
		C-9.1,0.1-16.4,7.9-20-0.6z"/>
</symbol>
<symbol  id="New_Symbol_2" viewBox="-24.4 -8 48.8 16.1">
	<g>
		<path d="M-24.4,4.6c0,0,0.2,0.1,0.5,0.2c0.4,0.2,0.9,0.4,1.6,0.7c0.3,0.1,0.7,0.3,1.1,0.4c0.4,0.1,0.9,0.3,1.4,0.4
			c0.5,0.1,1,0.3,1.6,0.5c0.6,0.1,1.2,0.2,1.8,0.4c0.6,0.1,1.3,0.3,1.9,0.4c0.7,0.1,1.4,0.1,2.1,0.2C-10.9,8-9.4,8-7.8,8
			c1.6-0.1,3.3-0.1,4.9-0.4c1.7-0.2,3.3-0.6,5-0.9c1.6-0.5,3.3-1,4.8-1.6c1.6-0.5,3.1-1.3,4.5-2c1.4-0.8,2.8-1.5,3.9-2.4
			C16,0.4,16.6,0,17.1-0.4c0.5-0.4,1-0.9,1.5-1.3c0.5-0.4,1-0.8,1.4-1.2c0.4-0.4,0.8-0.8,1.2-1.2C22-4.7,22.5-5.4,23-6
			c0.5-0.6,0.8-1,1-1.3c0.2-0.3,0.4-0.5,0.4-0.5L24.2-8c0,0-0.6,0.5-1.7,1.4c-0.5,0.5-1.2,1-2,1.6c-0.4,0.3-0.8,0.6-1.3,0.9
			c-0.5,0.3-1,0.6-1.5,1c-0.5,0.3-1,0.7-1.6,1c-0.6,0.3-1.2,0.7-1.8,1c-0.6,0.4-1.2,0.7-1.9,1c-0.7,0.3-1.3,0.7-2,1
			C9,1.4,7.6,2.1,6.1,2.5C4.6,3.1,3,3.5,1.4,3.9c-1.6,0.3-3.2,0.8-4.7,1C-4.9,5.2-6.5,5.4-8,5.5c-0.8,0.1-1.5,0.1-2.2,0.1
			c-0.7,0-1.4,0.1-2.1,0c-0.7,0-1.4,0-2,0c-0.7,0-1.3-0.1-1.9-0.1c-0.6,0-1.2-0.1-1.7-0.1c-0.5-0.1-1.1-0.1-1.6-0.2
			c-1-0.1-1.8-0.3-2.5-0.4c-1.4-0.3-2.2-0.4-2.2-0.4L-24.4,4.6z"/>
	</g>
</symbol>
<symbol  id="New_Symbol_3" viewBox="-8.4 -0.5 16.8 1">
	<g>
		<line fill="#FFFFFF" x1="-8.4" y1="0" x2="8.4" y2="0"/>
		<path d="M-8.4,0.1c0,0,4.2,0.2,8.4,0.3c1,0,2.1,0.1,3.1,0.1c1,0,1.9-0.1,2.7-0.1c0.8-0.1,1.4-0.1,1.9-0.2C8.1,0.1,8.4,0,8.4,0
			l0-0.1c0,0-0.3-0.1-0.7-0.1C7.2-0.3,6.6-0.3,5.8-0.4C5-0.5,4.1-0.5,3.1-0.5c-1,0-2,0.1-3.1,0.1C-4.2-0.2-8.4,0-8.4,0.1L-8.4,0.1z"
			/>
	</g>
</symbol>
<symbol  id="New_Symbol_4" viewBox="-8.4 -8.4 16.8 16.8">
	<g>
		<line fill="#FFFFFF" x1="5.4" y1="-6.4" x2="-5.4" y2="6.4"/>
		<path d="M5.4-6.4c0,0-2.9,3.1-5.7,6.2C-1,0.6-1.7,1.3-2.4,2.1C-3,2.8-3.6,3.5-4,4.2c-0.5,0.6-0.8,1.2-1.1,1.6
			c-0.2,0.4-0.4,0.6-0.4,0.6l0.1,0.1c0,0,0.2-0.2,0.6-0.5C-4.5,5.7-4,5.2-3.4,4.7c0.6-0.6,1.2-1.2,1.8-2C-1,1.9-0.4,1.1,0.3,0.3
			C2.9-3,5.5-6.3,5.4-6.4L5.4-6.4z"/>
	</g>
	<g>
		<line fill="#FFFFFF" x1="-6.4" y1="-5.4" x2="6.4" y2="5.5"/>
		<path d="M-6.4-5.4c0,0,3.1,2.9,6.2,5.7C0.5,1,1.3,1.8,2,2.4C2.8,3,3.5,3.6,4.2,4.1c0.6,0.5,1.2,0.8,1.6,1.1
			c0.4,0.2,0.6,0.4,0.6,0.4l0.1-0.1c0,0-0.2-0.2-0.5-0.6C5.7,4.5,5.2,4,4.6,3.5c-0.6-0.6-1.2-1.2-2-1.8C1.9,1,1.1,0.4,0.2-0.3
			C-3-2.9-6.4-5.4-6.4-5.4L-6.4-5.4z"/>
	</g>
	<g>
		<line fill="#FFFFFF" x1="0" y1="-8.4" x2="0" y2="8.4"/>
		<path d="M-0.1-8.4c0,0-0.2,4.2-0.3,8.4c0,1-0.1,2.1-0.1,3.1c0,1,0.1,1.9,0.1,2.7c0.1,0.8,0.1,1.4,0.2,1.9C-0.1,8.1,0,8.4,0,8.4
			l0.1,0c0,0,0.1-0.3,0.1-0.7c0.1-0.5,0.1-1.1,0.2-1.9C0.5,5,0.5,4.1,0.5,3.1c0-1-0.1-2-0.1-3.1C0.2-4.2,0-8.4-0.1-8.4L-0.1-8.4z"/>
	</g>

		<use xlink:href="#New_Symbol_3"  width="16.8" height="1" x="-8.4" y="-0.5" transform="matrix(1 0 0 1 0 -1.174927e-02)" overflow="visible"/>
</symbol>
<g>
	<rect fill="#FAAF40" width="500" height="500"/>

		<use xlink:href="#New_Symbol"  width="78.2" height="27.2" x="-39.1" y="-13.6" transform="matrix(-1.917 -0.1522 -0.1522 1.917 414.0415 300.3192)" overflow="visible"/>
	<g>
		<path fill="#F8F4B5" d="M167.3,344.3c1.7,6.2-11.2,61.3-7.7,63.8c3.4,2.4,57.4-48.2,63.3-49.5c5.9-1.2,76.1,36.7,80.8,34.9
			c4.7-1.8-29.7-34.9-27.8-39.7c1.9-4.8,94.7-18.1,94.7-22.8c0-4.8-81.9-13.9-86.3-18.8c-4.4-4.8,94.2-69,86.3-71
			c-7.9-2-146.3,77.2-147.4,76.9c-1.9-0.5-19-26.2-30.8-32.1c7,8.1,11.7,18.1,13.8,28.6c-32.9-11.7-101.2,3.7-101.2,8.5
			C104.9,327.9,165.6,338.1,167.3,344.3z"/>
		<path fill="#A89933" d="M167.3,344.3c0.2,1,0.2,2.1,0.1,3.1c-0.1,1-0.1,2.1-0.3,3.1c-0.2,2.1-0.5,4.1-0.8,6.2l-1.9,12.3
			c-1.3,8.2-2.7,16.3-3.7,24.5c-0.3,2-0.5,4.1-0.7,6.1c-0.2,2-0.3,4.1-0.2,6.1c0,0.5,0.1,1,0.2,1.4c0,0.2,0.1,0.4,0.1,0.3
			c-0.1-0.1,0.1,0-0.2-0.1c0,0,0.2,0.1,0.2,0c-0.1-0.1-0.2,0-0.1-0.1c0.3-0.1,0.7-0.3,1.2-0.5c0.4-0.2,0.8-0.5,1.3-0.8
			c1.7-1.1,3.3-2.4,4.9-3.7c6.4-5.2,12.5-10.7,18.7-16.2c6.2-5.5,12.3-11,18.6-16.5c3.1-2.7,6.3-5.4,9.6-7.9
			c1.7-1.3,3.3-2.6,5.2-3.8c0.5-0.3,0.9-0.6,1.5-0.9c0.1-0.1,0.3-0.1,0.5-0.2c0.2-0.1,0.3-0.1,0.6-0.2c0.2,0,0.1,0,0.6-0.1l0.2,0
			c0,0,0.1,0,0.3,0l0.4,0c0.3,0,0.4,0,0.6,0.1c0.2,0,0.3,0.1,0.5,0.1c0.3,0.1,0.6,0.1,0.9,0.2c0.6,0.1,1.1,0.3,1.6,0.5
			c4.1,1.4,7.9,3.1,11.7,4.8c3.8,1.7,7.5,3.5,11.3,5.3l22.4,10.8c7.5,3.6,14.9,7.2,22.4,10.4c1.9,0.8,3.8,1.6,5.6,2.2
			c0.5,0.2,0.9,0.3,1.4,0.4c0.4,0.1,0.9,0.2,1.1,0.2c0.1,0,0.1,0,0.1,0c0,0,0,0-0.1,0c-0.2,0.1,0.1-0.1-0.5,0.2l0.2-0.1
			c0,0-0.4,0.3-0.5,0.5c-0.2,0.3-0.3,0.6-0.3,0.7c0,0.1,0,0.1,0,0.1c0,0,0,0.1,0,0.1c0,0,0,0,0-0.1c0-0.1-0.1-0.3-0.2-0.4
			c-0.3-0.7-0.9-1.5-1.4-2.3c-0.6-0.8-1.1-1.6-1.8-2.4c-1.2-1.6-2.5-3.2-3.8-4.8c-5.2-6.3-10.8-12.5-15.9-19.1
			c-1.3-1.7-2.5-3.4-3.7-5.3c-0.3-0.5-0.6-1-0.8-1.6c-0.2-0.6-0.5-1.2-0.6-2.2c0-0.2,0-0.6,0-0.9c0-0.2,0.1-0.4,0.1-0.6
			c0.3-0.6,0.1-0.2,0.3-0.6c0.2-0.3,0.4-0.5,0.5-0.6c0.1-0.1,0.2-0.2,0.3-0.3c0.2-0.2,0.4-0.3,0.5-0.4c0.6-0.4,1.2-0.6,1.7-0.8
			c2.1-0.8,4.1-1.4,6.2-1.9c2-0.5,4.1-1,6.1-1.5c16.2-3.6,32.5-6.5,48.7-9.7c8.1-1.6,16.2-3.2,24.1-5.3c1.9-0.5,3.9-1.1,5.6-1.8
			c0.4-0.2,0.8-0.4,0.9-0.5c0,0,0,0,0,0c0,0,0,0,0,0c0,0.1-0.2,0.2-0.4,0.7c-0.1,0.3,0.1,1.3,0,0.7c0-0.1-0.1-0.2,0,0.1
			c0.1,0.2,0.2,0.4,0.3,0.5c0.1,0.1,0,0,0,0.1c0,0,0,0,0,0l-0.1,0c-0.1,0-0.1-0.1-0.2-0.1c-0.2-0.1-0.3-0.2-0.5-0.2
			c-0.4-0.2-0.8-0.3-1.3-0.5c-3.7-1.2-7.8-2-11.8-2.8c-16.2-3.1-32.5-5.5-48.9-8.4c-4.1-0.7-8.2-1.5-12.3-2.4
			c-2-0.4-4.1-0.9-6.2-1.5c-1-0.3-2.1-0.6-3.2-1.2c-0.3-0.1-0.6-0.3-1-0.5c-0.1-0.1-0.4-0.3-0.6-0.5c-0.1-0.1-0.6-0.7-0.4-0.5
			c0.1,0.1-0.4-0.6-0.4-0.9c-0.1-0.3-0.1-0.5-0.1-0.8c0-0.2,0-0.4,0.1-0.6c0-0.1,0.1-0.3,0.1-0.4l0.1-0.3c0.2-0.4,0.4-0.7,0.6-1
			c0.8-1.1,1.5-1.9,2.3-2.7c0.8-0.8,1.6-1.5,2.3-2.2c1.6-1.4,3.2-2.8,4.8-4.1c3.2-2.6,6.5-5.2,9.8-7.7c13.2-10,26.7-19.7,40-29.5
			c6.6-4.9,13.3-9.8,19.6-15c1.6-1.3,3.1-2.6,4.6-4c0.7-0.7,1.4-1.4,2-2c0.3-0.3,0.5-0.7,0.6-0.8c0,0,0,0,0,0.1c0,0,0,0.2,0,0.3
			c0,0.1,0,0.3,0.1,0.5c0.1,0.5,0.6,0.9,0.9,1c0.2,0.1-0.1,0,0.6,0.2l-0.2,0c-0.4-0.1-0.2,0-0.3,0c0,0-0.1,0-0.2,0l-0.3,0.1
			c-0.4,0.1-0.9,0.2-1.3,0.4c-0.9,0.3-1.8,0.7-2.8,1c-1.9,0.8-3.7,1.6-5.6,2.4c-7.4,3.4-14.8,7.2-22.1,11
			c-7.3,3.8-14.6,7.7-21.9,11.6c-14.6,7.8-29.1,15.8-43.6,23.8c-14.5,8-28.9,16.1-43.5,24l-2.8,1.5c-0.5,0.3-0.9,0.5-1.5,0.8
			c-0.2,0.1,0.2,0-0.6,0.2c-0.4,0.3-1.8-0.2-1.6-0.2l-0.2-0.1c-0.1-0.1-0.3-0.2-0.4-0.3c-0.1-0.1-0.3-0.2-0.4-0.3l-0.2-0.2l-0.3-0.3
			c-1.5-1.7-2.8-3.3-4.1-4.9c-2.6-3.2-5.1-6.5-7.8-9.6c-2.6-3.1-5.3-6.2-8.2-9c-2.9-2.8-5.9-5.6-9.2-7.2l2.6-3.4l1.3,1.6l1.3,1.6
			l1.2,1.7l1.2,1.7l1.1,1.8l1,1.8l1,1.8l0.9,1.9l0.9,1.9l0.8,1.9l0.7,1.9l0.7,2l0.6,2l0.6,2l0.5,2l0.4,2l0.8,3.7l-3.7-1.3
			c-6.4-2.2-13.3-3.3-20.3-3.8c-3.5-0.3-7-0.3-10.5-0.3c-3.5,0-7,0.2-10.5,0.3c-3.5,0.2-7,0.4-10.5,0.6c-3.5,0.3-7,0.6-10.5,1.1
			c-7,0.8-14,2-20.9,3.4c-3.4,0.7-6.9,1.5-10.2,2.6c-1.7,0.5-3.3,1.1-4.8,1.8c-0.4,0.2-0.7,0.4-1,0.6L106,323c0,0-0.1,0.1-0.1,0.1
			c0,0,0,0,0,0c0,0,0-0.1,0-0.1l0,0c0,0.1,0-0.2,0-0.2l0,0.1c0,0,0,0.2,0,0.1c0,0,0-0.1,0-0.1c0,0,0,0,0,0l0.1,0.1
			c0.1,0.1,0.2,0.2,0.4,0.3c0.3,0.2,0.7,0.4,1,0.6c1.5,0.8,3.2,1.4,4.8,2c1.7,0.6,3.3,1.1,5,1.7c3.4,1.1,6.8,2,10.2,3
			c6.8,1.9,13.7,3.7,20.5,5.6c3.4,1,6.8,2,10.2,3.1c1.7,0.6,3.4,1.2,5,1.9c0.8,0.4,1.6,0.7,2.4,1.2c0.4,0.2,0.8,0.5,1.1,0.8
			C166.9,343.5,167.2,343.8,167.3,344.3z M167.3,344.3c-0.1-0.4-0.5-0.8-0.8-1c-0.3-0.3-0.7-0.5-1.1-0.8c-0.8-0.4-1.6-0.8-2.4-1.2
			c-1.6-0.7-3.3-1.3-5-1.8c-3.4-1.1-6.8-2.1-10.2-3c-6.9-1.8-13.8-3.4-20.7-5.1c-3.4-0.8-6.9-1.7-10.3-2.6c-1.7-0.5-3.4-0.9-5.1-1.4
			c-1.7-0.5-3.4-1.1-5.1-1.9c-0.4-0.2-0.8-0.4-1.3-0.7c-0.2-0.1-0.4-0.3-0.7-0.5l-0.2-0.2c0-0.1-0.1-0.1-0.2-0.3
			c-0.1-0.1-0.1-0.2-0.2-0.4c0-0.1,0-0.1-0.1-0.2l0-0.1c0,0,0-0.3,0-0.2l0-0.1c0-0.1,0-0.3,0.1-0.4c0.1-0.2,0.2-0.4,0.3-0.5
			c0.1-0.1,0.2-0.2,0.3-0.4l0.3-0.3c0.4-0.3,0.8-0.6,1.2-0.8c1.7-0.9,3.3-1.6,5-2.2c3.4-1.2,6.8-2.2,10.3-3.1
			c6.9-1.8,13.9-3.2,21-4.4c3.5-0.6,7.1-1.1,10.6-1.5c3.6-0.4,7.1-0.8,10.7-1c3.6-0.2,7.2-0.3,10.8-0.3c3.6,0,7.2,0.1,10.8,0.4
			c7.2,0.5,14.4,1.6,21.4,4L204,315l-0.4-1.9l-0.5-1.9l-0.5-1.9l-0.6-1.8l-0.6-1.8l-0.7-1.8l-0.8-1.8l-0.8-1.8l-0.9-1.7l-0.9-1.7
			l-1-1.7l-1-1.6l-1.1-1.6l-1.1-1.6l-1.2-1.5l-1.2-1.5l-6.8-8.2l9.4,4.8c2.1,1.1,3.9,2.4,5.5,3.7c1.7,1.4,3.2,2.8,4.7,4.3
			c3,3,5.8,6.1,8.5,9.3c2.7,3.2,5.3,6.5,7.8,9.7c1.3,1.6,2.6,3.3,3.8,4.6l0.2,0.2l0.1,0.1c0,0-0.1-0.1-0.1-0.1c0,0-0.1,0-0.1,0
			c0,0,0.1,0.1,0.1,0.1c0.4,0.1-0.9-0.4-1.2-0.2c-0.7,0.2-0.1,0-0.3,0.1c0.3-0.1,0.8-0.4,1.2-0.6l2.7-1.4c14.5-7.9,28.9-16,43.4-24
			c14.5-8,29-16,43.6-23.8c7.3-3.9,14.6-7.8,22-11.6c7.4-3.8,14.8-7.6,22.3-11.1c1.9-0.9,3.8-1.7,5.8-2.5c1-0.4,2-0.8,3-1.1
			c0.5-0.2,1.1-0.3,1.7-0.5l0.5-0.1c0.2,0,0.3-0.1,0.6-0.1c0.5-0.1,1.1-0.1,1.3,0l0.2,0c0.8,0.2,0.6,0.2,0.9,0.3
			c0.5,0.2,1.2,0.8,1.4,1.6c0.1,0.3,0.1,0.7,0.1,0.9c0,0.2-0.1,0.5-0.1,0.6c-0.1,0.4-0.2,0.6-0.3,0.8c-0.4,0.8-0.8,1.2-1.2,1.7
			c-0.8,0.9-1.6,1.6-2.3,2.4c-1.6,1.5-3.2,2.8-4.8,4.1c-6.5,5.3-13.1,10.2-19.8,15.1c-13.3,9.8-26.8,19.5-39.9,29.4
			c-3.3,2.5-6.5,5-9.7,7.6c-1.6,1.3-3.1,2.6-4.6,4c-0.7,0.7-1.5,1.4-2.2,2c-0.7,0.7-1.3,1.4-1.8,2c-0.1,0.1-0.2,0.3-0.2,0.3
			c0,0,0,0,0,0c0,0,0,0,0-0.1c0,0,0-0.1,0-0.2c0-0.1,0-0.2,0-0.4c0-0.2-0.4-0.8-0.3-0.6c0.2,0.3-0.2-0.2-0.1-0.2c0,0-0.1-0.1,0,0
			c0.1,0,0.2,0.1,0.4,0.2c0.7,0.3,1.7,0.6,2.6,0.9c1.9,0.5,3.9,1,5.9,1.4c4,0.9,8,1.6,12.1,2.3c16.3,2.9,32.6,5.3,49,8.5
			c4.1,0.8,8.1,1.6,12.3,3c0.5,0.2,1.1,0.4,1.6,0.6c0.6,0.3,1.1,0.5,1.9,1.1c0.1,0.1,0.2,0.1,0.3,0.3c0.2,0.2,0.4,0.5,0.5,0.8
			c0.2,0.4,0.2,0.4,0.2,0.5c0-0.4,0.1,0.7,0,1.1c-0.2,0.8-0.5,1.2-0.7,1.4c-0.1,0.1-0.2,0.2-0.3,0.3c-0.1,0.1-0.2,0.2-0.3,0.2
			c-0.7,0.5-1.2,0.7-1.8,1c-2.1,0.9-4.2,1.4-6.2,2c-8.1,2.1-16.3,3.7-24.4,5.3c-16.2,3.2-32.6,6.1-48.6,9.7c-2,0.5-4,0.9-6,1.4
			c-2,0.5-3.9,1.1-5.7,1.7c-0.4,0.2-0.8,0.4-1.1,0.5c0,0-0.1,0.1-0.1,0.1c0,0,0,0,0,0c0,0,0.1-0.1,0.2-0.3c0.1-0.3-0.2,0.3,0.1-0.2
			c0-0.1,0-0.1,0.1-0.2c0-0.1,0-0.1,0-0.1c0,0,0.1,0.4,0.3,0.8c0.2,0.4,0.4,0.8,0.6,1.2c0.9,1.6,2.2,3.3,3.4,4.9
			c5,6.4,10.5,12.6,15.8,19c1.3,1.6,2.6,3.2,3.9,4.9c0.6,0.8,1.3,1.7,1.9,2.6c0.6,0.9,1.2,1.8,1.8,3c0.1,0.3,0.3,0.6,0.4,1
			c0.1,0.2,0.1,0.4,0.2,0.7c0,0.1,0,0.3,0,0.4c0,0.1,0,0.3,0,0.5c0,0.4-0.1,0.9-0.5,1.4c-0.2,0.3-0.7,0.7-0.8,0.7l-0.2,0.1
			c-0.8,0.4-0.6,0.2-0.9,0.3c-0.2,0-0.4,0-0.5,0c-0.3,0-0.5,0-0.7,0c-0.8-0.1-1.3-0.2-1.9-0.4c-0.6-0.2-1.1-0.3-1.6-0.5
			c-2.1-0.7-4-1.5-5.9-2.3c-7.7-3.3-15.1-6.9-22.6-10.5l-22.4-10.8c-3.7-1.8-7.5-3.5-11.2-5.2c-3.7-1.7-7.5-3.4-11.3-4.6
			c-0.5-0.2-0.9-0.3-1.4-0.4c-0.2-0.1-0.4-0.1-0.6-0.2c-0.1,0-0.2,0-0.3,0c-0.1,0-0.2,0-0.1,0c0,0,0,0,0,0c0,0,0,0-0.1,0l-0.2,0
			c0.4-0.1,0.1,0,0.2,0c0,0,0,0-0.1,0c-0.1,0-0.1,0.1-0.2,0.1c-0.3,0.2-0.7,0.4-1.1,0.7c-1.6,1.1-3.2,2.3-4.8,3.6
			c-3.2,2.5-6.4,5.2-9.6,7.8l-19.2,15.7c-6.4,5.2-12.9,10.5-19.6,15.4c-1.7,1.2-3.4,2.4-5.2,3.5c-0.5,0.3-0.9,0.5-1.4,0.8
			c-0.5,0.2-1,0.5-1.7,0.6c-0.1,0-0.1,0-0.3,0c-0.2,0-0.4,0-0.5-0.1c-0.1,0-0.1-0.1-0.2-0.1c-0.4-0.2-0.3-0.2-0.5-0.4
			c-0.3-0.4-0.4-0.8-0.5-1.1c-0.1-0.6-0.1-1.2-0.1-1.7c0-2.2,0.3-4.2,0.5-6.3c0.3-2.1,0.6-4.1,1-6.2c1.4-8.2,3-16.3,4.5-24.4
			c0.7-4.1,1.5-8.1,2.1-12.2c0.3-2,0.6-4.1,0.8-6.1c0.1-1,0.2-2.1,0.3-3.1C167.5,346.3,167.5,345.3,167.3,344.3z"/>
	</g>

		<path fill="#F1CB7D" stroke="#B9904A" stroke-width="1.8204" stroke-linecap="round" stroke-linejoin="round" stroke-miterlimit="10" d="
		M413.8,299.4l4,5.1c0,0,21.9-24,8.5-29.5c-13.4-5.6-69.8-25.9-100-23.2c-37.5,3.4-130,1.4-136.4,69.2
		c-8.2,86.6,138.2-35.9,138.2-35.9S365.4,290.9,413.8,299.4z"/>
	<g>
		<path fill="#F1CB7D" stroke="#B9904A" stroke-width="2.014" stroke-miterlimit="10" d="M273.1,224c0,0-1.5-10.8-7.2-13
			c-10.8-4.3-10.3,22.2-4.4,26.4c4.4,3.1,8.4-10.2,8.4-10.2L273.1,224z"/>

			<ellipse transform="matrix(-0.9243 -0.3816 0.3816 -0.9243 501.9572 577.8137)" fill="#F1CB7D" stroke="#B9904A" stroke-width="2.014" stroke-miterlimit="10" cx="308.3" cy="239.1" rx="48.3" ry="37.3"/>

			<ellipse transform="matrix(-0.7318 -0.6815 0.6815 -0.7318 391.9806 605.5109)" fill="#231F20" cx="315.1" cy="225.6" rx="2.3" ry="5"/>

			<ellipse transform="matrix(-0.6942 -0.7198 0.7198 -0.6942 330.6518 575.762)" fill="#231F20" cx="287.6" cy="217.6" rx="2.1" ry="4.6"/>
		<path fill="#F1CB7D" stroke="#B9904A" stroke-width="2.014" stroke-miterlimit="10" d="M290.5,235.2c0,0-2.5-3.1-2-5.3
			c1.9-7.3,20.1-3.9,21.4,6.1c0.4,3.1-2.4,3.9-2.4,3.9"/>
		<path fill="#F1CB7D" stroke="#B9904A" stroke-width="2.014" stroke-miterlimit="10" d="M316.7,217.5c0,0,2.6,0.4,6.8,3.9"/>
		<path fill="#F1CB7D" stroke="#B9904A" stroke-width="2.014" stroke-miterlimit="10" d="M293.2,207.8c0,0-4.9-0.5-8.9,2.8"/>
		<path fill="#101230" stroke="#0E1016" stroke-width="2.014" stroke-miterlimit="10" d="M269.1,209.4c0,0,22-18.5,57-0.4
			c7.9,3.9,15.6,9.9,15.6,9.9s-4.9,13.7,1.8,26.3c0,0,5.5-5.2,10.6-1.8l3.1-2.1c0,0-0.1-7.9-2.5-13.4l5.1,0.2c0,0-1.6-4.1-5.1-4.3
			l6.8-2.2c0,0-4.2-4.1-9.5-2.7l3.5-4.4c0,0-4.1-0.5-8.4,2c0,0-28.3-28.8-55.8-30.8l8.8,6.9c0,0-15.6-4.7-26.2,2.6l10.1,1.8
			C284,196.8,275.2,199.5,269.1,209.4z"/>
		<path fill="none" stroke="#000000" stroke-width="1.8204" stroke-miterlimit="10" d="M274.9,243.9c1.9-0.9,4-2.8,5.7-2.8
			c1.7,0,3.9,9.1,4.5,9.4c0.7,0.3,12-7.5,13.9-5.6c1.8,1.9,3.2,8.5,5.5,10.2c1.9,1.3,7.7-5,10.7-7c0.7-0.5,1.8-0.3,2.2,0.5l6.2,10.7
			"/>
	</g>

		<path fill="#39B24A" stroke="#0A8041" stroke-width="2.1864" stroke-linecap="round" stroke-linejoin="round" stroke-miterlimit="10" d="
		M255.2,335.9c-0.6-0.8,22.4-19.8-22.8-35.9c0,0-37.2-2.9-28.4-13.1c28.8-33,92.7-32.4,122.3-35.1c30.2-2.7,86.6,17.6,100,23.2
		c13.4,5.6-8.5,29.5-8.5,29.5l-4-5.1c-48.5-8.5-85.7-14.3-85.7-14.3S253,343.1,255.2,335.9"/>

		<use xlink:href="#New_Symbol"  width="78.2" height="27.2" x="-39.1" y="-13.6" transform="matrix(1.9231 0 0 -1.9231 134.1525 286.8577)" overflow="visible"/>

		<path fill="#39B24A" stroke="#0A8041" stroke-width="2.1864" stroke-linecap="round" stroke-linejoin="round" stroke-miterlimit="10" d="
		M134.2,286.6l-4.5-4.7c0,0-19.5,25.9-5.7,30.2c13.9,4.3,63.9,8.8,72.1,6.1c8.2-2.7,10.8-17.7,10.8-17.7S183.2,290.5,134.2,286.6z"
		/>
	<g>

			<path fill="#F1CB7D" stroke="#B9904A" stroke-width="1.8204" stroke-linecap="round" stroke-linejoin="round" stroke-miterlimit="10" d="
			M120.8,173.9c0,0,54,24.8,62.5,29.9c8.5,5.1,24.1,32.7,24.1,32.7l-25.1,15.3c0,0-8.8-22-14.8-27.4c-6-5.4-55.6-35.6-55.6-35.6
			L120.8,173.9z"/>

			<path fill="#F1CB7D" stroke="#B9904A" stroke-width="1.8204" stroke-linecap="round" stroke-linejoin="round" stroke-miterlimit="10" d="
			M246.9,146.3c0,0,14.4,47.8,19.4,101.2l-28.6-6.3c0,0,0-35.9-8.9-90.3L246.9,146.3z"/>

			<use xlink:href="#New_Symbol_1"  width="49.5" height="52.3" x="-24.7" y="-26.1" transform="matrix(1.9231 0 0 -1.9231 253.6031 105.1058)" overflow="visible"/>

			<use xlink:href="#New_Symbol_1"  width="49.5" height="52.3" x="-24.7" y="-26.1" transform="matrix(1.1028 -1.5754 -1.5754 -1.1028 92.6376 144.0287)" overflow="visible"/>
	</g>
	<path fill="#8A7349" stroke="#5E4E35" stroke-width="2.1864" stroke-miterlimit="10" d="M163.2,235.4c0.8,4.9-9,98,24.5,111.9
		c33.5,13.9,29.5-66.2,29.5-66.2s-11.5-66.6-17.2-66.2C194.2,215.4,163.2,235.4,163.2,235.4z"/>
	<path fill="#8A7349" stroke="#5E4E35" stroke-width="2.1864" stroke-miterlimit="10" d="M187.7,347.5
		c56.3,23.7,63.7-33.5,63.7-33.5s20.7-71.3,17-75.6c-6.7-7.8-45-18-45-18c-3,1-19.4,27.6-31.6,56.4"/>

		<use xlink:href="#New_Symbol_4"  width="16.8" height="16.8" x="-8.4" y="-8.4" transform="matrix(1.9231 0 0 -1.9231 315.9257 148.4855)" overflow="visible"/>

		<use xlink:href="#New_Symbol_4"  width="16.8" height="16.8" x="-8.4" y="-8.4" transform="matrix(1.2865 0 0 -1.2865 348.7356 196.1157)" overflow="visible"/>

		<use xlink:href="#New_Symbol_4"  width="16.8" height="16.8" x="-8.4" y="-8.4" transform="matrix(1.2865 0 0 -1.2865 274.8867 160.7414)" overflow="visible"/>

		<use xlink:href="#New_Symbol_2"  width="48.8" height="16.1" x="-24.4" y="-8" transform="matrix(1.9231 0 0 -1.9231 73.9768 103.2491)" overflow="visible"/>

		<use xlink:href="#New_Symbol_2"  width="48.8" height="16.1" x="-24.4" y="-8" transform="matrix(2.1758 0.6608 0.7188 -2.3667 121.9846 69.5155)" overflow="visible"/>
</g>
</svg>
