<?xml version="1.0" encoding="utf-8"?>
<!-- Generator: Adobe Illustrator 18.1.1, SVG Export Plug-In . SVG Version: 6.00 Build 0)  -->
<svg version="1.1" id="Layer_1" xmlns="http://www.w3.org/2000/svg" xmlns:xlink="http://www.w3.org/1999/xlink" x="0px" y="0px"
	 viewBox="0 0 500 500" enable-background="new 0 0 500 500" xml:space="preserve">
<g>
	<rect y="0" fill="#7BCFDF" width="500" height="500"/>
	<g>
		<g>
			<defs>
				<path id="SVGID_1_" d="M390.8,286.2c-3.7,7.4-7.5,14.8-11.2,22.2c-2.5,5-5.1,10.4-4.7,16c-3.3,5.7-6.5,11.4-9.8,17.1
					c-0.5,0.6-0.7,1-0.7,1c-4.8,6.4-11.4,11.5-18.8,14.5c0,0-1.2,0.5-3.1,1.2c-2.5,0.7-4.9,1.3-7.4,2c-6.9,6.8-13.8,13.7-20.8,20.5
					c-18.8,4.6-38,7.5-57.3,8.5c-8-2.8-16.1-5.6-24.1-8.3c-12.7,1.4-25.6,1-38.2-1.4c-12.2-6.2-23.8-13.7-34.5-22.2
					c-2.6-9.2-5.1-18.3-7.7-27.5c-4.9-0.9-9.3-4.5-11.3-9.1c2.2-5.5-0.2-20.9-1.3-24.8l-3.3-6.7c-6.9-11.5-13.7-23-20.6-34.5
					c0-2.6,0-5.3,0-7.9c2-5.1,3.1-10.6,3-16.1c-1.4-4-2.7-8.1-4.1-12.1c0.3-11.8,0.6-18.9,0.9-30c3.8-4.3,7.7-8.4,12.5-12
					c9.7-7.3,19.5-13.2,27.8-22.2c13.2-14.1,25.9-28.1,43.5-36.2c13.5,0,27.1-0.1,40.6-0.1c21.4,9.4,42.8,18.9,64.2,28.3
					c10.2,4.5,21.3,9.1,32.2,9.3c8,7.2,17.3,13,27.3,17c2.8,7.7,5.7,15.3,8.5,23c3,4.2,6,8.4,9,12.5c-0.2,2.1-0.5,4.3-0.7,6.4
					c5.3,5.7,10.7,11.3,16,17c0.4,5.2,0.8,10.4,1.3,15.6c-0.9,3.5-2.9,6.6-5.7,8.8c1.6,5.5,3.3,11.1,4.9,16.6
					C395.3,277.2,393,281.7,390.8,286.2z"/>
			</defs>
			<use xlink:href="#SVGID_1_"  overflow="visible" fill="#7A89A3"/>
			<clipPath id="SVGID_2_">
				<use xlink:href="#SVGID_1_"  overflow="visible"/>
			</clipPath>
			<path clip-path="url(#SVGID_2_)" fill="#455E7C" d="M133.4,328.8c-1.4,2.2,1.8,4.8,2.8,7.1c7.3,17.2,18.4,33.2,33.5,44.9
				c16.5,12.8,37,20.1,57.6,25.2c32.3,8,66.7,11.2,99.3,5.8c15.8-9.3,28.8-22.9,38.8-38c12.8-19.2,21.3-40.7,29.7-62.1
				c5-12.7,10-25.3,14.9-38l-12.3-4.7l-44.3,47.7c-4.8,13.6-11.6,26.6-20.1,38.5c-5.4,4.3-10.4,9-14.8,14.2
				c-2.2,2.6-6.2,2.8-8.7,0.5c-4.3-4-8.6-7.9-12.9-11.9c-18.2-8-36.2-5.2-51.3-17.9l-36.9-23.8l-4.6-5.8c-17.3-9-14.1-0.7-33.1-5.7
				c-15.7,0.2-22.4,2.8-22.4,2.8C143.2,322.6,146.6,308,133.4,328.8z"/>
			<use xlink:href="#SVGID_1_"  overflow="visible" fill="none" stroke="#2E4151" stroke-width="4.5342" stroke-miterlimit="10"/>
		</g>
		<g>
			<path fill="#455E7C" d="M254.4,380.9c-5.6-5.9-11.8-11.3-18.4-16.1c-7.2-1.2-14.3-3.3-21-6.2c-2.5-2.2-5.1-4.5-7.6-6.7
				c-12.8-5.7-25.6-11.4-38.3-17.1"/>
			<path fill="#2E4151" d="M254.2,381.1c-2.9-2.8-6-5.6-9.1-8.1c-3.2-2.6-6.4-5-9.8-7.2l0.5,0.2c-7.4-1-14.6-3-21.5-5.7l-0.2-0.1
				l-0.3-0.2l-7.8-6.5l0.5,0.3l-4.9-2c-1.6-0.7-3.2-1.3-4.8-2c-1.6-0.7-3.2-1.4-4.8-2.2c-1.6-0.7-3.1-1.5-4.7-2.3
				c-1.6-0.8-3.1-1.6-4.7-2.4c-1.6-0.8-3.1-1.7-4.6-2.5c-0.8-0.4-1.5-0.9-2.3-1.3c-0.8-0.4-1.5-0.9-2.3-1.3c-1.5-0.9-3-1.8-4.5-2.8
				l0.2-0.4c1.7,0.5,3.4,1,5.1,1.5c0.8,0.3,1.7,0.5,2.5,0.8c0.8,0.3,1.7,0.5,2.5,0.8c1.7,0.6,3.3,1.2,4.9,1.8
				c1.6,0.6,3.3,1.2,4.9,1.9c1.6,0.7,3.3,1.3,4.9,2c1.6,0.7,3.2,1.4,4.8,2.1c1.6,0.7,3.2,1.5,4.7,2.2l4.7,2.3l0.4,0.2l0.2,0.2l7.4,7
				l-0.5-0.3c6.5,3,13.4,5.3,20.6,6.7l0.3,0.1l0.2,0.1c3.3,2.5,6.4,5.2,9.4,8c3,2.8,5.9,5.8,8.5,8.9L254.2,381.1z"/>
		</g>
		<g>
			<path fill="#455E7C" d="M157.6,316.5c9.6,3,19.2,5.9,28.9,8.9c14.3,9.6,31.2,15.6,48.4,16.9c7.4,4.7,14.2,10.3,20.4,16.6
				c0,0,3.7,5.3,8.5,12.3c10.4,5.7,22.2,8.9,34,9.1"/>
			<path fill="#2E4151" d="M157.7,316.2l14.6,4l14.5,4.1l0.1,0l0.2,0.1l2.7,1.7l2.8,1.6l2.8,1.5l2.9,1.4l2.9,1.3l2.9,1.2l3,1.1l3,1
				l3,0.9l3.1,0.8l3.1,0.7l3.1,0.6l3.1,0.5l3.1,0.4l3.2,0.3l3.2,0.2l0.5,0l0.5,0.3c3.8,2.3,7.5,4.9,11.1,7.6
				c1.8,1.4,3.5,2.8,5.2,4.3c1.7,1.5,3.3,3,4.9,4.6l0.2,0.2l0.1,0.2c1.4,2.1,2.8,4.1,4.2,6.2c1.4,2.1,2.7,4.2,4.1,6.3l-0.9-0.8
				l1.9,1.1l1.9,1l1.9,1l1.9,0.9l2,0.9l2,0.8l2,0.8l2.1,0.7c1.4,0.4,2.8,0.9,4.2,1.3l2.1,0.6l2.1,0.5l2.2,0.5l2.2,0.4
				c1.5,0.2,2.9,0.5,4.4,0.7l0,0.5l-2.2,0.2l-2.3,0.1l-2.3,0l-2.3-0.1l-2.3-0.2l-2.3-0.3l-2.2-0.3l-2.2-0.4l-2.2-0.5l-2.2-0.6
				l-2.2-0.7l-2.2-0.7c-1.4-0.5-2.9-1.1-4.3-1.7l-2.1-1l-2.1-1l-0.5-0.2l-0.4-0.6c-1.5-2-3-4-4.4-6.1c-1.5-2-2.9-4.1-4.3-6.1
				l0.3,0.4c-1.5-1.6-3-3.1-4.6-4.5c-1.6-1.5-3.1-2.9-4.8-4.3c-3.2-2.8-6.7-5.4-10.2-7.8l1,0.3l-3.3-0.4l-3.3-0.5l-3.3-0.6l-3.2-0.7
				l-3.2-0.8l-3.2-0.9l-3.1-1l-3.1-1.1l-3.1-1.2l-3-1.3l-3-1.4l-2.9-1.5l-2.9-1.6l-2.8-1.7l-2.8-1.8l-2.7-1.9l0.3,0.1l-14.3-4.8
				l-14.3-4.8L157.7,316.2z"/>
		</g>
		<g>
			<path fill="#455E7C" d="M336.8,357.1c8.2-9.7,14.5-21,18.6-33c3.4-4.5,6.8-8.9,10.1-13.4c7.9-6.5,14.8-14,20.6-22.4"/>
			<path fill="#2E4151" d="M336.6,356.9c1-1.3,1.9-2.6,2.8-3.9l1.3-2l1.3-2c0.8-1.3,1.6-2.7,2.4-4.1c0.8-1.4,1.5-2.8,2.2-4.2
				c0.7-1.4,1.4-2.8,2-4.3c0.6-1.4,1.3-2.9,1.8-4.3l0.8-2.2l0.8-2.2c0.5-1.5,1-3,1.5-4.4l0.1-0.2l0.2-0.3c1.6-2.3,3.2-4.6,4.8-6.9
				c1.6-2.3,3.1-4.7,4.8-6.9l0.1-0.2l0.3-0.3l5.6-4.9l2.8-2.5l2.8-2.5l2.7-2.6l2.7-2.6l2.7-2.7c0.9-0.9,1.8-1.8,2.8-2.7l0.4,0.3
				c-0.5,1.2-1,2.4-1.7,3.5l-0.9,1.7l-1,1.7c-0.7,1.1-1.4,2.2-2.1,3.3c-0.7,1.1-1.5,2.1-2.3,3.1c-0.8,1-1.6,2-2.5,3
				c-0.9,1-1.8,1.9-2.7,2.9c-0.9,0.9-1.9,1.8-2.8,2.7c-1,0.9-2,1.7-3,2.5l0.4-0.5c-1.8,2.2-3.6,4.3-5.4,6.5
				c-1.8,2.2-3.6,4.3-5.3,6.5l0.3-0.6c-0.6,1.5-1.2,3-1.8,4.5c-0.6,1.5-1.3,2.9-2,4.4c-0.7,1.4-1.5,2.9-2.3,4.3L350,340l-1.3,2.1
				c-0.9,1.4-1.7,2.7-2.7,4c-0.9,1.3-1.9,2.6-2.8,3.9c-1,1.3-2,2.5-3,3.7c-1.1,1.2-2.1,2.4-3.2,3.6L336.6,356.9z"/>
		</g>
		<g>
			<path fill="#455E7C" d="M354.5,346.9c6.9-7.2,12.5-15.7,16.4-24.8"/>
			<path fill="#2E4151" d="M354.4,346.8c0,0,0.3-0.4,0.8-1c0.5-0.7,1.2-1.6,2-2.7c1.7-2.3,3.7-5.3,5.6-8.5c0.4-0.8,0.9-1.6,1.3-2.4
				c0.4-0.8,0.8-1.6,1.2-2.4c0.8-1.5,1.8-2.8,2.5-4c0.8-1.1,1.5-2.1,2-2.7c0.5-0.7,0.9-1,0.9-1l0.3,0.1c0,0-0.1,2-1,4.7
				c-0.1,0.3-0.2,0.7-0.4,1.1c-0.1,0.4-0.3,0.7-0.5,1.1c-0.3,0.8-0.7,1.5-1.1,2.3c-0.9,1.5-2.1,3-3.2,4.6c-1.1,1.5-2.3,3-3.5,4.4
				c-0.6,0.7-1.1,1.3-1.7,1.9c-0.6,0.6-1.1,1.1-1.6,1.6c-1,1-1.9,1.8-2.5,2.4c-0.6,0.5-1,0.9-1,0.9L354.4,346.8z"/>
		</g>
		<g>
			<path fill="#455E7C" d="M171.3,350.7c6.9,7.5,15.4,13.5,24.7,17.5c7.5,2.1,14.9,4.1,22.4,6.2"/>
			<path fill="#2E4151" d="M171.4,350.6c0.9,0.9,1.8,1.8,2.8,2.6c0.9,0.8,1.9,1.7,2.9,2.5c1,0.8,2,1.6,3,2.3c1,0.7,2.1,1.4,3.1,2.1
				c1.1,0.7,2.1,1.4,3.2,2c1.1,0.6,2.2,1.2,3.3,1.8c1.1,0.6,2.2,1.1,3.4,1.6c1.1,0.5,2.3,1,3.5,1.4l-0.2-0.1
				c1.9,0.4,3.8,0.8,5.7,1.3c1.9,0.5,3.7,1.1,5.6,1.7c1.8,0.6,3.7,1.3,5.5,2c0.9,0.4,1.8,0.7,2.7,1.1c0.9,0.4,1.8,0.8,2.7,1.2
				l-0.1,0.3c-1-0.1-2-0.2-2.9-0.3c-1-0.1-1.9-0.3-2.9-0.4c-1.9-0.3-3.8-0.7-5.7-1.1c-1.9-0.4-3.8-0.9-5.6-1.4
				c-1.9-0.5-3.7-1.2-5.5-1.8l-0.1,0l0,0c-1.2-0.6-2.3-1.2-3.5-1.8c-1.1-0.6-2.3-1.3-3.4-1.9c-1.1-0.7-2.2-1.4-3.3-2.1
				c-1.1-0.7-2.1-1.5-3.1-2.3l-1.5-1.2l-1.5-1.2c-1-0.8-1.9-1.7-2.9-2.6c-0.9-0.9-1.8-1.8-2.7-2.7c-0.9-0.9-1.7-1.9-2.5-2.9
				L171.4,350.6z"/>
		</g>
		<path fill="#A8B3C1" d="M123.9,187.1l-3.5,30l4.9,17.7l-2.4,17.6l22.1,35.8c5.6-4,30.7-4.8,34.9,0c0,0-18.7-44.3-17.2-45.8
			c4.6-4.4,8.7-9.1,8.7-9.1s50.2,10.1,51.6,9.2c2.7-1.8,9.1-5.1,12.1-8.1c14.5-14.5,21.6-32.7,21.6-32.7l12-16.7l5.3-22.2
			l-38.2-40.8l-38.4,2.5L171.3,147l-13.7,17.5L123.9,187.1z"/>
		<g>
			<path fill="#455E7C" d="M237.9,124.2l18.4,18.9c6.2,6.3,12.2,12.6,18.4,18.9l0.3,0.3l0,0.4c-0.2,3.9-0.7,7.7-1.6,11.5
				c-0.9,3.8-2,7.5-3.5,11.1l-0.1,0.2l-0.2,0.2l-1.6,1.9l-1.5,2l-1.5,2l-1.4,2l-1.4,2.1l-1.3,2.1c-0.8,1.4-1.7,2.8-2.5,4.3l-1.2,2.2
				l-1.1,2.2l-1.1,2.2l-1,2.3l-1,2.3l-0.9,2.3l-0.9,2.3l-0.8,2.4l-0.1,0.3l-0.2,0.2c-2.5,2.3-5,4.7-7.5,6.9
				c-1.3,1.2-2.5,2.3-3.8,3.4c-1.3,1.1-2.6,2.3-3.9,3.4l-0.2-0.2c1.1-1.3,2.2-2.6,3.4-3.9c1.1-1.3,2.3-2.6,3.4-3.8
				c2.3-2.5,4.6-5,6.9-7.5l-0.3,0.5l0.7-2.5l0.7-2.4l0.8-2.4l0.9-2.4l1-2.4l1-2.3l1.1-2.3l1.2-2.3l1.3-2.2l1.3-2.2l1.4-2.1l1.5-2.1
				l1.5-2l1.6-2l1.6-2l1.7-1.9l-0.2,0.4c3.1-6.8,5-14.2,5.5-21.7l0.3,0.7c-5.9-6.5-11.9-12.9-17.8-19.5l-17.7-19.5L237.9,124.2z"/>
		</g>
		<g>
			<path fill="#7A89A3" d="M168.5,233.3c4.5,1.3,9.3,1.5,13.9,0.8c1.3-1.6,2.5-3.3,3.8-4.9c5.7-0.5,11.5-1.4,17.1-2.8
				c-0.1,4.2-0.2,8.4-0.3,12.6c0.1,2.7,0.2,4.8,0.2,4.8c0.2,4.7,2.4,9.3,5.9,12.4c2.1,0.8,4.2,1.5,6.3,2.3c2.9,5,5.8,10.1,8.7,15.1
				c0.4,4.5-1.1,9.3-4.2,12.6c1.3,5.1,2.7,10.1,4,15.2c1.9,2.1,4.3,3.8,6.6,5.5c4.7,3.4,9.3,6.8,14,10.2"/>
			<path fill="#455E7C" d="M168.6,233c1.1,0.3,2.3,0.5,3.4,0.6c1.1,0.1,2.3,0.2,3.4,0.2c2.3,0,4.6-0.2,6.8-0.7l-0.6,0.3l3.6-5
				l0.3-0.4l0.5-0.1c5.7-0.7,11.3-1.8,16.8-3.3l2.1-0.6l0,2.3l0.1,7.9l0,3.9l0,0.5l0,0.2l0,0l0,0l0,0c0,0,0-0.2,0-0.1l0,0.1l0,0.1
				l0.1,1l0.1,2c0,0.6,0.1,1.4,0.1,1.9c0.1,0.7,0.1,1.1,0.2,1.7c0.2,1.1,0.6,2.2,1,3.2c0.9,2.1,2.3,3.9,4,5.3l-0.8-0.5l6.4,2.1
				l0.9,0.3l0.6,0.9c3,5,6.2,9.9,9.3,14.8l0.3,0.5l0.1,0.8c0.2,1.4,0.2,2.8,0.1,4.1c-0.1,0.7-0.2,1.4-0.3,2c-0.1,0.7-0.3,1.3-0.5,2
				c-0.2,0.7-0.4,1.3-0.7,1.9c-0.3,0.6-0.6,1.2-0.9,1.9c-0.4,0.6-0.7,1.2-1.1,1.7c-0.4,0.6-0.9,1.1-1.3,1.6l0.8-3.3l0.9,3.8l0.9,3.8
				c0.6,2.6,1.1,5.1,1.6,7.7l-0.7-1.2c1.2,1.5,2.6,2.8,4.2,4.3c1.6,1.4,3.3,2.8,4.9,4.3c1.6,1.4,3.2,2.9,4.8,4.4
				c0.8,0.7,1.6,1.5,2.4,2.2c0.8,0.7,1.6,1.5,2.3,2.3l-0.4,0.5c-1-0.5-1.9-1-2.9-1.5c-1-0.5-1.9-1-2.9-1.6c-1.9-1.1-3.8-2.2-5.6-3.3
				c-1.9-1.1-3.7-2.2-5.6-3.4c-1.9-1.2-3.8-2.6-5.5-4.3l-0.4-0.4l-0.3-0.8c-0.8-2.5-1.6-5-2.4-7.5l-1.1-3.8l-1.1-3.8l-0.5-1.7
				l1.3-1.6c0.3-0.3,0.6-0.7,0.8-1c0.3-0.4,0.5-0.7,0.7-1.1c0.2-0.4,0.4-0.8,0.6-1.2c0.2-0.4,0.3-0.8,0.5-1.3
				c0.1-0.4,0.3-0.9,0.4-1.3c0.1-0.4,0.2-0.9,0.2-1.3c0.1-0.9,0.2-1.8,0.1-2.7l0.4,1.4c-2.7-5.1-5.4-10.3-8.2-15.4l1.5,1.2l-6.2-2.4
				l-0.5-0.2l-0.3-0.3c-2.2-2.1-3.9-4.6-5-7.4c-0.5-1.4-0.9-2.8-1.2-4.3c-0.1-0.7-0.2-1.6-0.2-2.2c0-0.8,0-1.3,0-2l0-2l0-1l0-0.4
				l0-0.2l0-0.5l0.2-3.9l0.4-7.9l2.1,1.7c-5.7,1.2-11.6,1.9-17.4,2.2l0.8-0.4l-4,4.8l-0.2,0.3l-0.3,0c-2.4,0.3-4.8,0.4-7.2,0.2
				c-1.2-0.1-2.4-0.3-3.5-0.5c-1.2-0.2-2.3-0.6-3.4-0.9L168.6,233z"/>
		</g>
		<g>
			<path fill="#455E7C" d="M158.6,200.7l-1,1.2l-0.9,1.2c-0.6,0.8-1.2,1.6-1.8,2.4c-0.6,0.8-1.1,1.7-1.6,2.5c-0.5,0.9-1,1.7-1.4,2.6
				c-0.4,0.9-0.9,1.8-1.3,2.7c-0.4,0.9-0.8,1.8-1.1,2.7c-0.3,0.9-0.6,1.9-0.9,2.8l-0.4,1.4l-0.3,1.4l-0.1,0.3l-0.4,0.5
				c-0.5,0.6-1,1.2-1.5,1.8c-0.5,0.6-1.1,1.1-1.7,1.7c-0.6,0.5-1.2,1-1.9,1.4c-0.6,0.5-1.3,0.9-2,1.2c-0.7,0.4-1.4,0.7-2.1,1
				c-0.7,0.3-1.5,0.6-2.2,0.8c-1.5,0.5-3,0.8-4.6,0.8l-0.2-0.4c0.6-0.5,1.2-1,1.7-1.5c0.3-0.3,0.6-0.5,0.9-0.7
				c0.3-0.2,0.6-0.5,0.8-0.7l3.3-2.8c0.5-0.5,1.1-0.9,1.6-1.4c0.5-0.5,1.1-0.9,1.6-1.4l1.6-1.3c0.5-0.4,1.1-0.9,1.6-1.4l-0.5,0.8
				c0.4-1,0.8-2,1.2-3c0.4-1,0.9-1.9,1.3-2.9c0.5-0.9,1-1.9,1.5-2.8c0.6-0.9,1.1-1.8,1.7-2.6l0.9-1.3l1-1.2c0.7-0.8,1.4-1.6,2.1-2.3
				c0.7-0.7,1.5-1.5,2.2-2.2c0.8-0.7,1.6-1.3,2.4-2L158.6,200.7z"/>
		</g>
		<g>
			<path fill="#7A89A3" d="M162.1,159.4c1.4,7.3,2,14.8,1.8,22.2c-0.9,4.6-1.8,9.2-2.7,13.8"/>
			<path fill="#455E7C" d="M162.4,159.4c0.6,1.8,1,3.6,1.5,5.4c0.4,1.8,0.8,3.7,1.1,5.6c0.3,1.9,0.5,3.7,0.7,5.6l0.5,5.7l0,0.4
				c-0.1,1.2-0.3,2.3-0.5,3.5c-0.1,0.6-0.3,1.1-0.4,1.7c-0.2,0.6-0.3,1.1-0.5,1.7c-0.4,1.1-0.8,2.2-1.3,3.3
				c-0.3,0.5-0.5,1.1-0.8,1.6c-0.3,0.5-0.6,1.1-1,1.6l-0.4-0.1c-0.1-0.6-0.2-1.2-0.3-1.9c-0.1-0.6-0.1-1.2-0.1-1.8
				c0-1.2-0.1-2.4,0-3.6c0-0.6,0.1-1.2,0.1-1.8c0.1-0.6,0.1-1.2,0.2-1.8c0.2-1.2,0.5-2.3,0.8-3.4l0,0.4c0.1-0.9,0.2-1.8,0.3-2.7
				c0.1-0.9,0.1-1.8,0.2-2.7c0-0.9,0.1-1.8,0.1-2.8l0-2.8c0-1.8,0-3.7-0.1-5.6c0-0.9-0.1-1.9-0.1-2.8l-0.2-2.8L162.4,159.4z"/>
		</g>
		<g>
			<path fill="#7A89A3" d="M362.5,179.1c-0.4,3-0.9,6-1.3,9c3.3,9.1,5.1,18.7,5.4,28.3c2.8,5.6,5.6,11.2,8.5,16.8"/>
			<path fill="#455E7C" d="M362.8,179.1c-0.2,3-0.5,6.1-0.7,9.1l0-0.4c0.5,1.1,0.9,2.3,1.4,3.4c0.4,1.1,0.8,2.3,1.2,3.5
				c0.4,1.2,0.7,2.3,1.1,3.5c0.3,1.2,0.6,2.4,0.9,3.6c0.3,1.2,0.5,2.4,0.8,3.6c0.2,1.2,0.4,2.4,0.6,3.6c0.4,2.4,0.8,4.9,0.9,7.4
				l-0.2-1c0.7,1.4,1.4,2.8,2,4.2c0.6,1.4,1.2,2.9,1.8,4.4c0.3,0.7,0.6,1.5,0.8,2.2c0.3,0.7,0.5,1.5,0.7,2.3
				c0.5,1.5,0.9,3.1,1.2,4.7l-0.4,0.2c-1.1-1.2-2.1-2.5-3-3.7c-0.5-0.6-0.9-1.3-1.4-1.9c-0.5-0.6-0.9-1.3-1.3-2
				c-0.9-1.3-1.7-2.7-2.5-4c-0.8-1.4-1.5-2.7-2.2-4.2l-0.2-0.5l0-0.5c0-0.6,0-1.2,0-1.8l0-1.8c0-1.2,0-2.4-0.1-3.5
				c-0.1-2.4-0.4-4.7-0.7-7.1c-0.2-1.2-0.4-2.3-0.6-3.5c-0.2-1.2-0.4-2.3-0.7-3.5c-0.3-1.2-0.5-2.3-0.8-3.5
				c-0.3-1.2-0.6-2.3-0.9-3.5l-0.1-0.2l0-0.2c0.6-3,1.2-6,1.9-8.9L362.8,179.1z"/>
		</g>
		<g>
			<path fill="#7A89A3" d="M266.9,147c4.1,5.3,8.9,10,14.1,14.1c13.5,6.3,28,10.4,42.7,12.3c6.1,2.8,12.2,5.7,18.4,8.5
				c1.3,0.1,3,0.2,3,0.2c4.4,0.2,8.9-1.6,12-4.8"/>
			<path fill="#455E7C" d="M267.2,146.8c1.1,1.3,2.2,2.5,3.4,3.6c1.2,1.2,2.4,2.3,3.6,3.4c2.5,2.2,5.1,4.2,7.8,6.1l-0.3-0.2
				c1.7,0.7,3.4,1.3,5.2,2c1.7,0.6,3.5,1.2,5.2,1.8c1.7,0.6,3.5,1.1,5.3,1.6l2.7,0.7l2.7,0.7c1.8,0.4,3.6,0.8,5.4,1.2l2.7,0.5
				l2.7,0.5c1.8,0.3,3.6,0.5,5.4,0.7l2.7,0.3c0.9,0.1,1.8,0.1,2.7,0.2l0.4,0l0.6,0.3c0.8,0.3,1.6,0.6,2.3,1c0.8,0.3,1.6,0.7,2.3,1
				l2.3,1.1l2.3,1.1c1.5,0.8,3,1.6,4.5,2.4c1.5,0.8,3,1.6,4.4,2.5l-1-0.3l2,0.3l0.5,0.1l0.3,0l0.1,0l0.1,0l0,0l0,0c0,0,0.1,0-0.1,0
				l0,0l0,0c0.3,0,0.7,0.1,1,0.1c0.5,0.1,1.1,0.1,1.7,0.1c0.6,0,1.2,0,1.8-0.1c0.6-0.1,1.2-0.2,1.8-0.3c0.6-0.1,1.2-0.3,1.8-0.5
				c0.3-0.1,0.6-0.2,0.9-0.4c0.3-0.1,0.6-0.3,0.9-0.4c0.6-0.3,1.2-0.6,1.8-1l0.5,0.5c-0.4,0.6-0.8,1.2-1.3,1.8
				c-0.5,0.6-1,1.1-1.6,1.6c-0.6,0.5-1.2,0.9-1.8,1.3c-0.6,0.4-1.3,0.7-2,1.1c-0.7,0.3-1.4,0.6-2.2,0.8c-0.8,0.2-1.5,0.3-2.4,0.4
				c-0.4,0.1-0.7,0.1-1.1,0.1l-1.1,0.1l-2,0.1l-0.3,0l-0.7-0.3c-1.6-0.6-3.2-1.2-4.8-1.8c-1.6-0.6-3.1-1.2-4.7-1.9l-2.3-1l-2.3-1
				c-0.8-0.3-1.5-0.7-2.3-1.1c-0.8-0.4-1.5-0.7-2.3-1.1l1,0.3c-0.9-0.2-1.9-0.3-2.8-0.5l-2.8-0.6L315,175l-2.8-0.7
				c-1.8-0.5-3.7-0.9-5.5-1.5c-1.8-0.5-3.6-1.1-5.4-1.7c-1.8-0.6-3.6-1.2-5.4-1.9c-1.8-0.7-3.5-1.4-5.3-2.1
				c-1.7-0.7-3.5-1.5-5.2-2.3c-1.7-0.8-3.4-1.7-5-2.5l-0.2-0.1l-0.1-0.1c-2.6-2.2-5-4.6-7.3-7.1c-2.3-2.5-4.4-5.2-6.2-7.9
				L267.2,146.8z"/>
		</g>
		<g>
			<path fill="#455E7C" d="M193.2,185.6c2,0.2,4.1,0.4,6.1,0.6l6.1,0.6c4.1,0.4,8.2,0.8,12.2,1.3l-1.2,0.2c4.2-2.3,8.5-4.5,12.8-6.8
				l-1.1,1c1.4-2.4,2.8-4.9,4.1-7.3c0.7-1.2,1.4-2.4,2.1-3.6c0.7-1.2,1.5-2.4,2.3-3.5l0.4-0.6l0.5-0.3c0.3-0.2,0.6-0.4,0.9-0.6
				c0.3-0.2,0.6-0.5,0.9-0.7c0.6-0.5,1.2-1,1.8-1.5c0.6-0.5,1.1-1.1,1.7-1.6c0.3-0.3,0.5-0.6,0.8-0.9l0.8-0.9c0.5-0.6,1-1.3,1.5-1.9
				l0.7-1l0.7-1.1c0.2-0.4,0.4-0.7,0.6-1.1l0.6-1.1l0.6-1.2c0.2-0.4,0.4-0.8,0.6-1.2l0.7,0.1c0.1,0.5,0.1,0.9,0.2,1.4l0.1,1.4
				c0,0.9-0.1,1.9-0.2,2.8l-0.3,1.4c-0.1,0.5-0.2,0.9-0.3,1.4l-0.4,1.4l-0.5,1.3c-0.4,0.9-0.8,1.8-1.3,2.6l-0.8,1.2
				c-0.3,0.4-0.6,0.8-0.9,1.2l-0.9,1.1l-1,1.1c-0.7,0.7-1.4,1.4-2.2,2l0.9-0.9c-0.7,1.2-1.5,2.4-2.3,3.5c-0.8,1.2-1.6,2.3-2.5,3.4
				c-1.7,2.2-3.4,4.4-5.1,6.7l-0.5,0.7l-0.6,0.2c-4.5,1.8-8.9,3.7-13.4,5.4l-0.7,0.3l-0.5-0.1c-4-0.9-8-1.9-12-2.9l-6-1.5
				c-2-0.5-4-1-6-1.5L193.2,185.6z"/>
		</g>
		<g>
			<path fill="#7A89A3" d="M378.7,270.7c2.2-2.5,4.5-5.1,6.7-7.6c-3.8-10.8-7.6-21.6-11.3-32.5"/>
			<path fill="#455E7C" d="M378.5,270.5c1.9-2.8,3.8-5.6,5.8-8.4l-0.3,1.6l-1.8-3.9c-0.6-1.3-1.2-2.6-1.8-3.9l-1.8-3.9
				c-0.6-1.3-1.3-2.6-1.9-3.9c-0.6-1.3-1.2-2.6-1.6-4c-0.4-1.4-0.7-2.8-1-4.2c-0.2-1.4-0.4-2.9-0.5-4.4c0-0.7,0-1.5,0-2.3
				c0-0.8,0.1-1.5,0.2-2.3l0.6-0.2c0.6,0.6,1.1,1.1,1.6,1.7c0.5,0.6,1,1.2,1.4,1.8c0.9,1.2,1.7,2.5,2.4,3.7c0.7,1.3,1.3,2.6,1.9,3.9
				c0.5,1.3,0.9,2.7,1.2,4.1c0.3,1.4,0.6,2.8,0.9,4.2l1.1,4.2c0.4,1.4,0.7,2.8,1,4.2l1,4.2l0.3,1.1l-0.6,0.5
				c-2.5,2.3-5.1,4.5-7.7,6.8L378.5,270.5z"/>
		</g>
	</g>
</g>
</svg>
