<?xml version="1.0" encoding="utf-8"?>
<!-- Generator: Adobe Illustrator 18.1.1, SVG Export Plug-In . SVG Version: 6.00 Build 0)  -->
<svg version="1.1" id="Layer_1" xmlns="http://www.w3.org/2000/svg" xmlns:xlink="http://www.w3.org/1999/xlink" x="0px" y="0px"
	 viewBox="0 0 260 260" enable-background="new 0 0 260 260" xml:space="preserve">
<g>
	<defs>
		<rect id="SVGID_1_" x="0" y="0" width="260" height="260"/>
	</defs>
	<clipPath id="SVGID_2_">
		<use xlink:href="#SVGID_1_"  overflow="visible"/>
	</clipPath>
	<g clip-path="url(#SVGID_2_)">
		<rect x="-50.2" y="-54.1" fill="#B4E2F4" width="314.1" height="314.1"/>
		<g>
			<g>
				<g>
					<g>
						<defs>
							<path id="SVGID_3_" d="M248.9,222.5c-1.1,1.1-5.2,1.4-6.2,1.4c0,0-0.1,0-0.1,0c0,0,0,0,0,0c0,0-0.1,0-0.1,0
								c-1,0-5-0.3-6.2-1.4c-1.3-1.3-4.7-10.4-3.5-22.5c0.9-9.3,6.1-16.3,6.1-21.8c0-5.5-3-12-3-17.3c0-2,1.2-3.5,2.7-4.5
								c2.4-1.7,5.6-1.7,8,0c1.4,1,2.7,2.5,2.7,4.5c0,5.3-3,11.8-3,17.3c0,5.5,5.2,12.6,6.1,21.8C253.6,212,250.2,221.2,248.9,222.5
								z"/>
						</defs>
						<use xlink:href="#SVGID_3_"  overflow="visible" fill="#FFFFFF"/>
						<clipPath id="SVGID_4_">
							<use xlink:href="#SVGID_3_"  overflow="visible"/>
						</clipPath>
						<g clip-path="url(#SVGID_4_)">

								<line fill="#FFFFFF" stroke="#EC1944" stroke-width="5.4642" stroke-miterlimit="10" x1="232.5" y1="184.2" x2="252.6" y2="184.2"/>

								<line fill="#FFFFFF" stroke="#EC1944" stroke-width="5.4642" stroke-miterlimit="10" x1="232.5" y1="174.1" x2="252.6" y2="174.1"/>
						</g>

							<use xlink:href="#SVGID_3_"  overflow="visible" fill="none" stroke="#808184" stroke-width="1.4105" stroke-miterlimit="10"/>
					</g>
					<g>
						<defs>
							<path id="SVGID_5_" d="M196.6,222.5c-1.1,1.1-5.2,1.4-6.2,1.4c0,0-0.1,0-0.1,0c0,0,0,0,0,0c0,0-0.1,0-0.1,0
								c-1,0-5-0.3-6.2-1.4c-1.3-1.3-4.7-10.4-3.5-22.5c0.9-9.3,6.1-16.3,6.1-21.8c0-5.5-3-12-3-17.3c0-2,1.2-3.5,2.7-4.5
								c2.4-1.7,5.6-1.7,8,0c1.4,1,2.7,2.5,2.7,4.5c0,5.3-3,11.8-3,17.3c0,5.5,5.2,12.6,6.1,21.8C201.3,212,197.9,221.2,196.6,222.5
								z"/>
						</defs>
						<use xlink:href="#SVGID_5_"  overflow="visible" fill="#FFFFFF"/>
						<clipPath id="SVGID_6_">
							<use xlink:href="#SVGID_5_"  overflow="visible"/>
						</clipPath>
						<g clip-path="url(#SVGID_6_)">

								<line fill="#FFFFFF" stroke="#EC1944" stroke-width="5.4642" stroke-miterlimit="10" x1="180.3" y1="184.2" x2="200.4" y2="184.2"/>

								<line fill="#FFFFFF" stroke="#EC1944" stroke-width="5.4642" stroke-miterlimit="10" x1="180.3" y1="174.1" x2="200.4" y2="174.1"/>
						</g>

							<use xlink:href="#SVGID_5_"  overflow="visible" fill="none" stroke="#808184" stroke-width="1.4105" stroke-miterlimit="10"/>
					</g>
					<g>
						<defs>
							<path id="SVGID_7_" d="M236.3,226.3c-1.2,1.2-5.6,1.5-6.7,1.5c0,0-0.1,0-0.1,0c0,0,0,0,0,0c0,0-0.1,0-0.1,0
								c-1.1-0.1-5.4-0.3-6.7-1.5c-1.4-1.4-5-11.3-3.7-24.3c1-10,6.6-17.6,6.6-23.5c0-5.9-3.2-13-3.2-18.7c0-2.2,1.3-3.8,2.9-4.9
								c2.6-1.8,6-1.8,8.6,0c1.5,1.1,2.9,2.7,2.9,4.9c0,5.7-3.2,12.7-3.2,18.7c0,5.9,5.6,13.5,6.6,23.5
								C241.4,215,237.7,224.8,236.3,226.3z"/>
						</defs>
						<use xlink:href="#SVGID_7_"  overflow="visible" fill="#FFFFFF"/>
						<clipPath id="SVGID_8_">
							<use xlink:href="#SVGID_7_"  overflow="visible"/>
						</clipPath>
						<g clip-path="url(#SVGID_8_)">

								<line fill="#FFFFFF" stroke="#EC1944" stroke-width="5.4642" stroke-miterlimit="10" x1="218.7" y1="185" x2="240.4" y2="185"/>

								<line fill="#FFFFFF" stroke="#EC1944" stroke-width="5.4642" stroke-miterlimit="10" x1="218.7" y1="174.2" x2="240.4" y2="174.2"/>
						</g>

							<use xlink:href="#SVGID_7_"  overflow="visible" fill="none" stroke="#808184" stroke-width="1.4105" stroke-miterlimit="10"/>
					</g>
					<g>
						<defs>
							<path id="SVGID_9_" d="M210.2,226.3c-1.2,1.2-5.6,1.5-6.7,1.5c0,0-0.1,0-0.1,0c0,0,0,0,0,0c0,0-0.1,0-0.1,0
								c-1.1-0.1-5.4-0.3-6.7-1.5c-1.4-1.4-5-11.3-3.7-24.3c1-10,6.6-17.6,6.6-23.5c0-5.9-3.2-13-3.2-18.7c0-2.2,1.3-3.8,2.9-4.9
								c2.6-1.8,6-1.8,8.6,0c1.5,1.1,2.9,2.7,2.9,4.9c0,5.7-3.2,12.7-3.2,18.7c0,5.9,5.6,13.5,6.6,23.5
								C215.2,215,211.6,224.8,210.2,226.3z"/>
						</defs>
						<use xlink:href="#SVGID_9_"  overflow="visible" fill="#FFFFFF"/>
						<clipPath id="SVGID_10_">
							<use xlink:href="#SVGID_9_"  overflow="visible"/>
						</clipPath>
						<g clip-path="url(#SVGID_10_)">

								<line fill="#FFFFFF" stroke="#EC1944" stroke-width="5.4642" stroke-miterlimit="10" x1="192.6" y1="185" x2="214.2" y2="185"/>

								<line fill="#FFFFFF" stroke="#EC1944" stroke-width="5.4642" stroke-miterlimit="10" x1="192.6" y1="174.2" x2="214.2" y2="174.2"/>
						</g>

							<use xlink:href="#SVGID_9_"  overflow="visible" fill="none" stroke="#808184" stroke-width="1.4105" stroke-miterlimit="10"/>
					</g>
					<g>
						<defs>
							<path id="SVGID_11_" d="M223.5,228c-1.3,1.3-5.7,1.5-6.9,1.6c0,0-0.1,0-0.1,0c0,0,0,0,0,0c0,0-0.1,0-0.1,0
								c-1.1-0.1-5.6-0.3-6.9-1.6c-1.5-1.5-5.2-11.6-3.9-25.1c1-10.3,6.8-18.2,6.8-24.3c0-6.1-3.3-13.4-3.3-19.3c0-2.3,1.4-3.9,3-5
								c2.7-1.9,6.2-1.9,8.9,0c1.6,1.1,3,2.8,3,5c0,5.9-3.3,13.2-3.3,19.3c0,6.1,5.8,14,6.8,24.3C228.7,216.3,225,226.5,223.5,228z"
								/>
						</defs>
						<use xlink:href="#SVGID_11_"  overflow="visible" fill="#FFFFFF"/>
						<clipPath id="SVGID_12_">
							<use xlink:href="#SVGID_11_"  overflow="visible"/>
						</clipPath>
						<g clip-path="url(#SVGID_12_)">

								<line fill="#FFFFFF" stroke="#EC1944" stroke-width="5.4642" stroke-miterlimit="10" x1="205.3" y1="185.3" x2="227.7" y2="185.3"/>

								<line fill="#FFFFFF" stroke="#EC1944" stroke-width="5.4642" stroke-miterlimit="10" x1="205.3" y1="174.1" x2="227.7" y2="174.1"/>
						</g>

							<use xlink:href="#SVGID_11_"  overflow="visible" fill="none" stroke="#808184" stroke-width="1.4105" stroke-miterlimit="10"/>
					</g>
				</g>
				<g>
					<path fill="#916445" stroke="#3B2314" stroke-width="1.2551" stroke-miterlimit="10" d="M18.5,193.9c0,0-0.4-18.9-5.8-41.5
						L2,156.3c0,0,4.8,13.8,9.1,38.2L18.5,193.9z"/>

						<path fill="#FFFFFF" stroke="#6D6E70" stroke-width="1.3985" stroke-linecap="round" stroke-linejoin="round" stroke-miterlimit="10" d="
						M20.2,207.6c0,0,0.2-5.9-0.3-15.4c-0.1-0.8-0.8-1.4-1.6-1.2l-7.5,1.7c-0.7,0.2-1.1,0.8-1,1.5c0.5,3,1.8,10.7,3,14.3l4.4,5.9
						l2.9-6"/>
					<path fill="#484068" stroke="#372869" stroke-width="1.2551" stroke-miterlimit="10" d="M48.3,224.3c0.5-0.1,0.9-0.6,0.7-1.1
						c-0.6-2-3.1-6.3-12.5-7.7c-12.3-1.8-17-8-17-8l-2.3,3.3l-4-4.2c-0.7-0.8-2-0.3-2.1,0.7c-0.6,4.8-1.6,14.7,0.8,14.9
						C14.9,222.5,33.3,225.8,48.3,224.3z"/>
					<path fill="#BB9354" stroke="#5E4E35" stroke-width="1.3985" stroke-miterlimit="10" d="M-41.4,157.5c17,5.6,32.7,4,43.7,1.1
						c8.8-2.2,14.6-5.2,15.6-5.8c0.1-0.1,0.2-0.1,0.2-0.1s-4.9-13.2-21.6-25.2l-28.9-13.1c0,0-2.2,3.7-1.5,10
						C-36.3,147.1-41.4,157.5-41.4,157.5z"/>
					<path fill="#916445" stroke="#3B2314" stroke-width="1.2551" stroke-miterlimit="10" d="M35.6,133.8c0,0-12.1-8.9-17.7-39.5
						L8.2,96c0,0,3.8,25.4,25.2,44.5c12,6.3,21.3,2.3,25.3-3.6c0.5-0.7,0.3-1.8-0.4-2.3c-3.4-2.5-15.5,1.1-15.5,1.1s6.3-3.1,4.4-6.1
						C45.9,127.6,35.6,133.8,35.6,133.8z"/>
					<path fill="#916445" stroke="#3B2314" stroke-width="1.2551" stroke-miterlimit="10" d="M47.7,54c0,0,4.3,3.1,3,5.7
						s-4.2,1.9-5.2,1L47.7,54z"/>

						<path fill="#37B34A" stroke="#058040" stroke-width="1.2551" stroke-linecap="round" stroke-linejoin="round" stroke-miterlimit="10" d="
						M30.1,93.3c0,0-12.7,6.7-23.3,4.9c0,0-1.9-18.9,9.7-26.5S23.1,80.3,30.1,93.3z"/>

						<path fill="#37B34A" stroke="#058040" stroke-width="1.2551" stroke-linecap="round" stroke-linejoin="round" stroke-miterlimit="10" d="
						M20.9,65.8c0,0,3.4,3.9,2.6,16.6c-1,17.3-13.4,19.7-13.4,19.7s-9.9,18.4-10.9,25.8c0,0-16.7,1.5-33.1-12.5
						C-34,115.4,3.5,43.3,20.9,65.8z"/>
					<path fill="#916445" stroke="#3B2314" stroke-width="1.2551" stroke-miterlimit="10" d="M28.8,65.6l-6.7,7.3
						c0,0-4.5-2.2-8.5-11.4l3.9-4.2L28.8,65.6z"/>
					<path fill="#916445" stroke="#3B2314" stroke-width="1.2551" stroke-miterlimit="10" d="M46.5,60.1c-5.3,8-17,9.5-26.1,3.3
						S8.4,45.6,13.7,37.5s17-9.5,26.1-3.3S51.9,52.1,46.5,60.1z"/>
					<path fill="#916445" stroke="#3B2314" stroke-width="1.2551" stroke-miterlimit="10" d="M38.3,58.3c0,0,0.1,3.4,3.6,6"/>
					<path fill="#231F20" d="M46.9,50c-0.5,1.4-1.6,2.3-2.3,2c-0.7-0.3-0.9-1.7-0.3-3.1c0.5-1.4,1.6-2.3,2.3-2
						C47.3,47.2,47.4,48.6,46.9,50z"/>

						<path fill="#37B34A" stroke="#058040" stroke-width="1.2551" stroke-linecap="round" stroke-linejoin="round" stroke-miterlimit="10" d="
						M14,66.5c2.3,4.5,1.2,14.8-20.2,23.9c0,0-9.6-7.4-9.8-23.7C-16,66.8,9.8,58.2,14,66.5z"/>
					<path fill="#916445" stroke="#3B2314" stroke-width="1.2551" stroke-miterlimit="10" d="M23.2,49.6c0,0-3.8-4.1-2.3-7.9
						c1.7-4.1,4.7-3.4,5.8-2.5c1.1,0.9,2.3,2.5,1.6,5.6"/>
					<g>

							<path fill="#271D13" stroke="#59351A" stroke-width="1.2551" stroke-linecap="round" stroke-linejoin="round" stroke-miterlimit="10" d="
							M51.2,45.7c0,0,0.8,5.6-0.7,6.5c-1.5,0.9-3.6-6.7-3.9-9.5c0,0-6,7.6-8.7,6.3c-2.7-1.3,0.5-6.8,0.5-6.8s-5.2,8.3-10.2,8.8
							c0,0-4.1,7-7.3,5.8c-3.2-1.2-1.1-7.7-1.1-7.7s-5.3,2.4-6.3,2.1c0,0-5,4.3-6.6,3.2s-0.3-7,2-9.2c0,0-1.8,1.3-2.5,1.1
							s0-5.6,3.8-7.9c0,0-3.4,2-4.1,1.4s0.9-4.6,5.4-6.6c0,0-2.5,0.4-2.8-0.1c-0.6-1,1.5-7,15.6-8.1c0,0-5.4-2-4.8-4.1
							s10.1,0.4,12.9,2.5c0,0-2.8-3.4-1.8-4.9c1.1-1.6,8.7,4,12.2,9.5c0,0-1.4-5.2,0.1-6.4s4.2,8.7,4.2,8.7s0.6-3.5,2.1-3.4
							c1.5,0.1,1.8,5.3,1,6.1c0,0,6,2.5,5.6,5.3c-0.2,1.5-5.5-0.1-5.5-0.1s8.3,7.2,6.6,10.4C56,50.6,51.2,45.7,51.2,45.7z"/>

							<path fill="#271D13" stroke="#59351A" stroke-width="1.2551" stroke-linecap="round" stroke-linejoin="round" stroke-miterlimit="10" d="
							M26.5,30.6c0,0-6.3,4.5-0.8,7.3c0,0-8.9,2.5-4.8,9c0,0-0.9,1-1.5,3"/>

							<path fill="#271D13" stroke="#59351A" stroke-width="1.2551" stroke-linecap="round" stroke-linejoin="round" stroke-miterlimit="10" d="
							M17.5,42.6c0,0-3.7,3.4-5.8,2c-1.8-1.2,0.5-9.8,4.4-13.7c0,0-3.2,0.7-4.6,2.1"/>

							<path fill="#271D13" stroke="#59351A" stroke-width="1.2551" stroke-linecap="round" stroke-linejoin="round" stroke-miterlimit="10" d="
							M24.9,25.8c0,0-5.1-0.9-8.9,3.3"/>

							<path fill="#271D13" stroke="#59351A" stroke-width="1.2551" stroke-linecap="round" stroke-linejoin="round" stroke-miterlimit="10" d="
							M48.9,36.2c0,0-0.6-3-4.8-6.4"/>
					</g>
				</g>
				<g>
					<circle fill="#404041" stroke="#7C7D7D" stroke-width="1.3342" stroke-miterlimit="10" cx="150.3" cy="206.2" r="21.6"/>
					<g>
						<g>
							<circle fill="#404041" stroke="#7C7D7D" stroke-width="1.3342" stroke-miterlimit="10" cx="153.4" cy="206.1" r="2.2"/>
							<circle fill="#404041" stroke="#7C7D7D" stroke-width="1.3342" stroke-miterlimit="10" cx="163.1" cy="209.9" r="2.2"/>
						</g>
						<circle fill="#404041" stroke="#7C7D7D" stroke-width="1.3342" stroke-miterlimit="10" cx="161.7" cy="199.7" r="2.2"/>
					</g>
				</g>
				<g>
					<g>
						<path fill="#221F1F" d="M174.5,210.9c0,0,0,0.5,0,1.3c0,0.4,0,0.9-0.1,1.5c-0.1,0.6-0.2,1.2-0.3,1.9c-0.1,0.3-0.2,0.7-0.3,1.1
							c-0.1,0.4-0.2,0.7-0.4,1.1c-0.2,0.8-0.6,1.6-1,2.4c-0.4,0.8-0.8,1.6-1.4,2.4c-0.5,0.8-1.1,1.5-1.7,2.3c-0.7,0.7-1.3,1.4-2,2
							c-0.7,0.7-1.4,1.2-2.1,1.7c-0.8,0.5-1.5,1-2.2,1.3c-0.4,0.2-0.7,0.4-1,0.6c-0.4,0.1-0.7,0.3-1,0.4c-0.6,0.3-1.3,0.5-1.8,0.7
							c-0.5,0.2-1,0.3-1.4,0.4c-0.8,0.2-1.3,0.3-1.3,0.3s0.4-0.2,1.2-0.5c0.4-0.1,0.8-0.4,1.3-0.6c0.5-0.2,1.1-0.5,1.7-0.9
							c0.3-0.2,0.6-0.3,0.9-0.5c0.3-0.2,0.6-0.4,1-0.6c0.7-0.4,1.3-0.9,2-1.4c0.6-0.6,1.3-1.1,1.9-1.7c0.7-0.6,1.2-1.3,1.8-1.9
							c0.6-0.7,1.2-1.4,1.6-2.1c0.5-0.7,1-1.5,1.4-2.2c0.4-0.8,0.8-1.5,1.1-2.2c0.2-0.4,0.3-0.7,0.5-1c0.1-0.3,0.3-0.7,0.4-1
							c0.3-0.6,0.4-1.2,0.6-1.8c0.2-0.5,0.3-1,0.4-1.4C174.4,211.4,174.5,210.9,174.5,210.9z"/>
					</g>
					<g>
						<path fill="#221F1F" d="M175.7,219.3c0,0,0,0.3-0.1,0.8c-0.1,0.5-0.3,1.2-0.5,1.9c-0.3,0.8-0.7,1.7-1.2,2.6
							c-0.3,0.4-0.5,0.9-0.9,1.4c-0.3,0.5-0.7,0.9-1,1.3c-0.4,0.4-0.8,0.8-1.2,1.2c-0.4,0.4-0.8,0.7-1.2,1c-0.8,0.6-1.7,1.2-2.4,1.5
							c-0.4,0.2-0.7,0.3-1,0.5c-0.3,0.1-0.6,0.2-0.8,0.3c-0.5,0.1-0.7,0.2-0.7,0.2s0.2-0.2,0.6-0.5c0.4-0.3,0.9-0.7,1.5-1.2
							c0.3-0.2,0.6-0.5,1-0.8c0.4-0.3,0.7-0.6,1.1-1c0.7-0.7,1.5-1.4,2.2-2.2c0.7-0.8,1.3-1.6,1.9-2.4c0.3-0.4,0.6-0.8,0.8-1.2
							c0.2-0.4,0.5-0.7,0.7-1.1c0.4-0.7,0.8-1.3,1-1.7C175.5,219.6,175.7,219.3,175.7,219.3z"/>
					</g>
				</g>
				<g>
					<g>
						<path fill="#221F1F" d="M145.1,180.9c0,0-0.4,0.1-1.2,0.3c-0.4,0.1-0.9,0.2-1.4,0.4c-0.5,0.2-1.1,0.4-1.8,0.6
							c-0.3,0.1-0.7,0.3-1,0.4c-0.3,0.2-0.7,0.3-1,0.5c-0.7,0.3-1.4,0.8-2.2,1.2c-0.7,0.5-1.5,0.9-2.2,1.5c-0.7,0.5-1.4,1.1-2.1,1.7
							c-0.6,0.6-1.3,1.3-1.9,1.9c-0.6,0.7-1.1,1.4-1.6,2c-0.4,0.7-1,1.4-1.3,2.1c-0.2,0.3-0.4,0.7-0.6,1c-0.2,0.3-0.3,0.7-0.5,1
							c-0.3,0.6-0.6,1.2-0.8,1.7c-0.2,0.5-0.4,1-0.5,1.4c-0.3,0.8-0.4,1.2-0.4,1.2s0.1-0.5,0.2-1.3c0.1-0.4,0.2-0.9,0.4-1.4
							c0.2-0.5,0.3-1.2,0.6-1.8c0.1-0.3,0.3-0.7,0.4-1c0.2-0.3,0.3-0.7,0.5-1.1c0.3-0.7,0.8-1.5,1.3-2.2c0.5-0.7,1-1.5,1.6-2.2
							c0.6-0.7,1.3-1.4,1.9-2.1c0.7-0.6,1.4-1.2,2.2-1.8c0.7-0.6,1.5-1,2.3-1.5c0.8-0.4,1.5-0.8,2.3-1.1c0.4-0.1,0.7-0.3,1.1-0.4
							c0.4-0.1,0.7-0.2,1.1-0.3c0.7-0.2,1.3-0.4,1.9-0.5c0.6-0.1,1-0.2,1.5-0.2C144.7,181,145.1,180.9,145.1,180.9z"/>
					</g>
					<g>
						<path fill="#221F1F" d="M136.7,180.1c0,0-0.2,0.1-0.7,0.4c-0.4,0.2-1,0.6-1.7,1c-0.3,0.2-0.7,0.5-1.1,0.7
							c-0.4,0.3-0.8,0.6-1.2,0.9c-0.8,0.6-1.6,1.3-2.4,2c-0.8,0.7-1.5,1.5-2.1,2.3c-0.3,0.4-0.6,0.8-0.9,1.1c-0.3,0.4-0.5,0.7-0.8,1
							c-0.5,0.7-0.8,1.2-1.1,1.6c-0.2,0.4-0.4,0.6-0.4,0.6s0.1-0.3,0.2-0.7c0.2-0.5,0.4-1.1,0.7-1.9c0.3-0.8,0.9-1.6,1.4-2.4
							c0.3-0.4,0.6-0.9,1-1.3c0.4-0.4,0.7-0.8,1.1-1.2c0.4-0.4,0.8-0.8,1.3-1.1c0.4-0.4,0.9-0.6,1.3-0.9c0.9-0.6,1.7-1,2.5-1.4
							c0.8-0.3,1.4-0.5,1.9-0.7C136.4,180.2,136.7,180.1,136.7,180.1z"/>
					</g>
				</g>
			</g>
			<g>
				<g>
					<path fill="#221F1F" d="M117.6,207.7c0,0-9.7-1.2-19.5-2.4c-2.4-0.3-4.9-0.6-7.2-0.9c-2.3-0.3-4.4-0.7-6.2-0.9
						c-3.6-0.6-6-1.1-6-1.1l0-0.1c0,0,2.5,0.2,6.1,0.6c1.8,0.2,4,0.5,6.2,0.8c2.3,0.3,4.7,0.7,7.1,1.1
						C107.9,206.2,117.6,207.7,117.6,207.7L117.6,207.7z"/>
				</g>
				<g>
					<path fill="#221F1F" d="M119.7,199.2c0,0-6.8-1.2-13.6-2.4c-1.7-0.3-3.4-0.6-5-0.9c-1.6-0.3-3.1-0.7-4.3-0.9
						c-2.5-0.6-4.2-1.1-4.2-1.1l0-0.1c0,0,1.7,0.2,4.3,0.6c1.3,0.2,2.8,0.5,4.3,0.8c1.6,0.3,3.3,0.7,4.9,1.1
						C113,197.7,119.8,199.1,119.7,199.2L119.7,199.2z"/>
				</g>
				<g>
					<path fill="#221F1F" d="M119.3,215.8c0,0-6.3-0.4-12.5-0.8c-1.6-0.1-3.1-0.2-4.6-0.3c-1.5-0.1-2.8-0.3-4-0.4
						c-2.3-0.3-3.9-0.6-3.9-0.6l0-0.1c0,0,1.6,0,3.9,0.1c1.2,0.1,2.5,0.1,4,0.3c1.5,0.2,3,0.3,4.6,0.5
						C113,215.1,119.3,215.7,119.3,215.8L119.3,215.8z"/>
				</g>
			</g>
		</g>
	</g>
</g>
</svg>
