<?xml version="1.0" encoding="utf-8"?>
<!-- Generator: Adobe Illustrator 19.0.0, SVG Export Plug-In . SVG Version: 6.00 Build 0)  -->
<svg version="1.1" id="Layer_1" xmlns="http://www.w3.org/2000/svg" xmlns:xlink="http://www.w3.org/1999/xlink" x="0px" y="0px"
	 width="500px" height="500px" viewBox="0 0 500 500" style="enable-background:new 0 0 500 500;" xml:space="preserve">
<style type="text/css">
	.st0{clip-path:url(#SVGID_3_);}
	.st1{fill:#9FD192;}
	.st2{fill:#F0CBA1;stroke:#C2986B;stroke-width:2.72;stroke-linecap:round;stroke-linejoin:round;stroke-miterlimit:10;}
	.st3{fill:#F9EC31;stroke:#978832;stroke-width:2.9281;stroke-miterlimit:10;}
	.st4{fill:#0E1030;stroke:#0A0B14;stroke-width:3.3064;stroke-miterlimit:10;}
	.st5{fill:#231F20;}
	.st6{fill:#0E1030;stroke:#0A0B14;stroke-width:3.8463;stroke-miterlimit:10;}
	.st7{fill:#EDD3B3;stroke:#C9A783;stroke-width:2.1959;stroke-linecap:round;stroke-linejoin:round;stroke-miterlimit:10;}
	.st8{fill:#FFFFFF;stroke:#231F20;stroke-width:2.2147;stroke-miterlimit:10;}
	.st9{fill:#569A44;stroke:#368440;stroke-width:2.8661;stroke-miterlimit:10;}
	.st10{opacity:0.8;}
	.st11{opacity:0.54;enable-background:new    ;}
	.st12{clip-path:url(#SVGID_5_);}
	.st13{fill:none;stroke:#4C4C4C;stroke-width:2.0879;stroke-miterlimit:10;}
	.st14{fill:#231F20;stroke:#4C4C4C;stroke-width:2.0879;stroke-miterlimit:10;}
	.st15{opacity:0.54;fill:none;stroke:#4C4C4C;stroke-width:3.7414;stroke-miterlimit:10;enable-background:new    ;}
	.st16{fill:#2C1A12;stroke:#603A17;stroke-width:1.6478;stroke-linecap:round;stroke-linejoin:round;stroke-miterlimit:10;}
	.st17{fill:#0F113D;stroke:#244E6B;stroke-width:3.8928;stroke-miterlimit:10;}
	.st18{fill:#368440;}
	.st19{fill:#754C28;stroke:#603813;stroke-width:3.8795;stroke-miterlimit:10;}
	.st20{fill:#C3996B;stroke:#A87C4F;stroke-width:3.1034;stroke-miterlimit:10;}
	.st21{fill:#754C28;stroke:#603813;stroke-width:4.2733;stroke-miterlimit:10;}
	.st22{fill:#569A44;stroke:#368440;stroke-width:2.9;stroke-miterlimit:10;}
	.st23{fill:#569A44;}
	.st24{fill:#F0CBA1;}
</style>
<g>
	<g>
		<defs>
			<rect id="SVGID_2_" width="500" height="500"/>
		</defs>
		<clipPath id="SVGID_3_">
			<use xlink:href="#SVGID_2_"  style="overflow:visible;"/>
		</clipPath>
		<g class="st0">
			<rect class="st1" width="500" height="500"/>
			<path class="st2" d="M360.5,314.5c0,0-41.3-38.5-76.5-116.6c0,0,4-37.5-5.6-43.9c-7.9-3.1-5.9,12.5-5.9,12.5S256.6,120.8,239,127
				c-16.6,5.8,7,66.1,29.9,79.9c0,0,33.5,90.5,75.2,129.8L360.5,314.5z"/>
			<path class="st2" d="M471.4,279c0,0,0-56.4-33.2-135.5c0,0-30.2-22.6-28.3-34c3.1-7.9,13.1,4.2,13.1,4.2s-22.6-42.8-6.1-51.4
				c15.6-8.1,43.6,50.1,38.1,76.4c0,0,43.4,86.2,43.7,143.5L471.4,279z"/>
			<path class="st3" d="M488.2,358.3c2.8,7.1,5.3,15.1,7.5,24.3c9.7,38.8,23.2,71.7,47.7,106.3c0,0-30.8,25.8-68.4,33.1
				c0,0-69,13.9-87.8,6c0,0,8.4-60.3,2.9-92.1c0,0-17.1-20.5-16.5-53.8c-27.4-8.7-63.3-48.2-63.3-48.2c17.1-38,46.4-47.1,46.4-47.1
				c11.7,21.4,23.2,39.7,31.6,45.1c9.6-5.8,31.8-11.5,56.4-19c7.3-7.2,17.9-31.2,23.5-64.2c0,0,39.6,4.3,55.4,28.7
				C523.5,277.5,529.4,330.6,488.2,358.3z"/>
			<path class="st4" d="M384.3,279.6l12.5,26.1c0,0-14.4,8.4-35.7,9.4l-2.4-13.7L384.3,279.6z"/>
			<path class="st4" d="M468.9,252.8l12.5,26.1c0,0-14.4,8.4-35.7,9.4l-2.4-13.7L468.9,252.8z"/>
			<path class="st2" d="M365.4,292.9c-8.6,3.8-13.8,1.1-17.4-3.4c-3.7-4.5-14.1-23-5.1-25.3c8.9-2.2,14.1,2.7,14.1,2.7L365.4,292.9z
				"/>
			<path class="st2" d="M442.5,291.7l0.4,26.9c0,0-19.2,22.2-27.4,36.1c0,0-17.6-14.4-17.9-29.2l-0.3-26.2L442.5,291.7z"/>

				<ellipse transform="matrix(-0.3264 -0.9452 0.9452 -0.3264 284.4377 735.7519)" class="st2" cx="404.4" cy="266.5" rx="47.8" ry="57.5"/>

				<ellipse transform="matrix(0.3345 0.9424 -0.9424 0.3345 511.8478 -211.4127)" class="st5" cx="405.6" cy="256.7" rx="6.7" ry="3.2"/>

				<ellipse transform="matrix(0.3345 0.9424 -0.9424 0.3345 499.0056 -176.0802)" class="st5" cx="374.2" cy="265.3" rx="6.7" ry="2.9"/>
			<path class="st2" d="M382.7,268.8c0,0-5.6,13.1,5.5,15c6.9,1.2,11.9-6,11.9-6"/>
			<path class="st5" d="M382.6,290.8c0,0,32.7,1.5,17.7,10.8C388.6,308.9,382.6,290.8,382.6,290.8z"/>
			<path class="st6" d="M452.4,239.1c0,0-43.2-1-69.2-14.7c0,0-34.4,16.1-37.1,42.8c0,0-15-36.5,16.9-56.6
				c34.3-21.6,89.2-15,96.7,22.5C460.4,235.9,452.3,235.9,452.4,239.1z"/>
			<path class="st2" d="M453.3,242.4c0,0,1.3-7,9.9-10.4c8.7-3.4,10.9,17.8,10.5,23.6c-0.4,5.8-3,11-12.2,12.8L453.3,242.4z"/>
			<path class="st7" d="M127.8,482.8c0,0-37.3,5.8-41-1.9c-8-16.5-14.2-37-20.4-60c0,0,10-36.4,1.5-44.2c-7.3-4.3-7.8,11.4-7.8,11.4
				s-8.4-47.6-26.7-44.4c-17.3,3.1-3.7,66.3,16.7,83.7c0,0,6.5,33.4,19.1,70c8.6,25.1,45.4,19,63.4,17.3L127.8,482.8z"/>
			<path class="st3" d="M149,417.2c0,0-9.3,1.5-56.6,64.5c0,0,5.4,24.2,33.6,29.9L149,417.2z"/>
			<path class="st8" d="M228.9,284.6c0,0,3,22.1,8.6,32.9"/>
			<path class="st8" d="M189.3,344c0,0,7.9-1.1,61.9,38.4c0,0,1.6,21-19.9,32.6L189.3,344z"/>
			<path class="st8" d="M183.6,335.7c19.2,5.5,15.9,52.1,10.9,80.7c0,0-18.9,15.5-60.6-9.7C133.9,406.7,153.3,327.1,183.6,335.7z"/>
			<path class="st9" d="M162.3,498.1c0,0-0.6-76-5.7-81.4c-15.1-15.8-23.3-52.5-21.9-69.2c1.6-19.3,22.9-40,40-45.6
				c19.8-6.4,27.3-8.5,51.8,2.3c41.2-5,42.9,122.3,67.6,184.7L162.3,498.1z"/>
			<g class="st10">
				<g class="st11">
					<defs>
						<path id="SVGID_4_" class="st11" d="M429.1,355.4c20.4-4.1,37.5,9.7,38.1,30.8c0.6,21.1-15.4,41.6-35.8,45.7
							c-20.4,4.1-37.5-9.7-38.1-30.8C392.6,380,408.7,359.5,429.1,355.4z"/>
					</defs>
					<clipPath id="SVGID_5_">
						<use xlink:href="#SVGID_4_"  style="overflow:visible;"/>
					</clipPath>
					<g class="st12">
						<path class="st13" d="M416.9,414.5c6.9,5.1,15.3,8.1,24.3,8.8"/>
						<path class="st13" d="M406.8,426.6c-0.6-3.8-0.2-7.9,1.3-11.8"/>
						<path class="st13" d="M401.8,405.3c-2.7-1.6-5-4-6.6-6.8"/>
						<path class="st13" d="M410.6,393.8c-0.4-7.4,0.6-15.3,3.1-22.8"/>
						<path class="st13" d="M443.1,376.1c-4.4-4.9-10.1-8.6-16.4-10.4"/>
						<path class="st13" d="M428,359.4c2.7-2.3,5.7-4.2,8.8-5.4"/>
						<path class="st13" d="M452,373.4c1.6-3.9,2.7-8,3.1-12"/>
						<path class="st13" d="M466.2,392.3c-1.8-3.3-4.5-6.1-7.7-7.9"/>
						<path class="st13" d="M445.3,416.2c4.2-7.6,5.7-16.4,4.3-24.1"/>
						<path class="st13" d="M419.6,399.8c6.5-5.2,13.9-9.2,21.5-11.4"/>
						<path class="st13" d="M416,432.3c7.2,0.6,15.1-1.9,21.5-6.8"/>
						<path class="st13" d="M393.6,389c2.8-8.6,9-16.6,16.5-21.5"/>
						<g>
							<path class="st14" d="M447.5,371.5c1.7-0.3,3.5-0.5,5.1-0.5c3.4,3.9,6,8.7,7.4,14c-2.5,4.8-5.8,9.1-9.8,12.7
								c-4.6-2-8.8-4.7-12.4-8.1c0.1-5.2,0.9-10.5,2.5-15.9C442.7,372.7,445.1,371.9,447.5,371.5z"/>
							<path class="st14" d="M404.2,412.3c-1.7-2.7-3-5.6-4.1-8.7c3.1-4.4,6.6-8.7,10.3-12.6c4.5,1.6,8.6,3.8,12.3,6.7
								c0.1,6-1.1,12.1-3.5,18c-3.9,1.1-7.9,1.6-11.7,1.4C406.4,415.6,405.2,414,404.2,412.3z"/>
							<path class="st14" d="M409,367.4c-0.9,0.9-1.9,2-2.8,3.1c1.8,2.3,3.9,4.1,6.3,5.7c4.8-4.2,10.2-7.7,15.9-10.2
								c1-2.8,1.6-5.7,1.9-8.5c-4.2,0-8.5,0.9-12.7,2.7C414.5,362.2,411.7,364.7,409,367.4z"/>
							<path class="st14" d="M443.3,354.4c6.7,2,12.8,5.6,17.7,10.5c-1.9-0.6-4-0.7-6.1-0.3c-3.5-4.3-7.8-7.8-12.5-10.6
								C442.6,354.4,443,354.4,443.3,354.4z"/>
							<path class="st14" d="M467.3,387.1c-0.8,1.1-1.6,2.4-2.4,3.5c-0.1,3.4-0.9,7.1-2.3,10.4c0.6,3-0.1,6.7-2.1,9.6
								c4.7-7.5,7.3-16.1,7.5-24.3C467.7,386.5,467.5,386.8,467.3,387.1z"/>
							<path class="st14" d="M404.5,425.9c-0.2,0-0.4,0.1-0.5,0.1c3.6,3.5,7.9,6.3,12.6,7.9c-3.4-2.4-6.5-5.2-9-8.7
								C406.5,425.5,405.5,425.7,404.5,425.9z"/>
							<path class="st14" d="M395.2,383.9c0-0.2-0.1-0.3-0.1-0.5c-2.2,5.6-3.2,11.3-3.2,16.9c1.3,0.5,3.1-0.1,4.2-1.3
								c0.2-3.6,0.4-7.3,0.7-11C396.1,386.8,395.6,385.4,395.2,383.9z"/>
							<path class="st14" d="M452.2,415.2c0.4,0,0.7,0.1,1.2,0.2c-1.3,3-3.1,5.9-5.2,8.5c-3,2.2-6.2,4.3-9.4,5.9
								c-2.6,0.4-5.2,0.2-7.4-0.7c0.3-2.5,0.9-5,1.9-7.5c4.3-3.4,9-6.2,13.9-8C448.7,414.4,450.4,415,452.2,415.2z"/>
						</g>
						<g>
							<path id="SVGID_1_" class="st15" d="M429.1,355.4c20.4-4.1,37.5,9.7,38.1,30.8c0.6,21.1-15.4,41.6-35.8,45.7
								c-20.4,4.1-37.5-9.7-38.1-30.8C392.6,380,408.7,359.5,429.1,355.4z"/>
						</g>
					</g>
				</g>
			</g>
			<path class="st3" d="M316.1,526c0,0-125.2-171.8-186.8-119.7c-68.3,49,43.9,115.5,74.7,196.3L316.1,526z"/>
			<path class="st7" d="M152.5,380.5l-3.9,26.7c0,0-22.6,18.8-32.9,31.2c0,0-15.1-17-13-31.7l3.9-25.9L152.5,380.5z"/>

				<ellipse transform="matrix(-0.1708 -0.9853 0.9853 -0.1708 -224.8408 534.7905)" class="st7" cx="112.6" cy="362" rx="47.8" ry="57.5"/>

				<ellipse transform="matrix(0.1792 0.9838 -0.9838 0.1792 426.5831 202.7583)" class="st5" cx="91.8" cy="357" rx="6.7" ry="3.2"/>
			<ellipse transform="matrix(0.1792 0.9838 -0.9838 0.1792 407.8657 225.1944)" class="st5" cx="69" cy="357" rx="6.7" ry="3.2"/>
			<path class="st5" d="M68.2,383.2c0,0,32.1,6.8,15.7,13.5C71.2,402,68.2,383.2,68.2,383.2z"/>
			<path class="st7" d="M167.3,454.8c-13.7,14.3-18.1,39.5-25.4,45c0,0-12.3-34.3-17.6-55c0,0,10.4-36.3,2-44.2
				c-7.2-4.4-7.9,11.3-7.9,11.3s-7.8-47.7-26.2-44.7c-17.3,2.9-4.5,66.3,15.8,83.9c0,0,12.2,43.3,22.7,76.7
				c8.6,27.4,45.6-37.3,55.3-56.3L167.3,454.8z"/>
			<path class="st3" d="M190.9,417.3c-14.3-5-32.4,25.3-41.7,45.2c0,0,5,17.7,41.7,20.2C190.9,482.7,213.4,425.1,190.9,417.3z"/>
			<path class="st7" d="M66.6,362.8c0,0-11.2,8.7-2.4,15.8c5.5,4.4,13.3,0.5,13.3,0.5"/>
			<path class="st16" d="M253.1,280.2c0,0,2.9,9.3,0.4,15.1"/>
			<path class="st16" d="M239.3,276.6c0,0,0.3,16.1-6.1,21.6"/>
			<path class="st17" d="M56.7,356.3c0,0-4.6-27.1,22.3-43.3c26.9-16.1,73.5-5.9,82.1,5.1c8.5,11,13.8,19.8,11.8,38.9
				c0,0-31.5-25.7-36.1-29.4c0,0-73.9,14.9-65.3-1.2C71.4,326.4,62.1,337.5,56.7,356.3z"/>
			<path class="st7" d="M151.6,350.8c0,0,5-7.9,11-7.2c6,0.7,12.2,6.3,11.9,20.4s-15,19.3-15,19.3"/>
			<g>
				<path class="st18" d="M206.4,388.8c0,0,0.8,0.1,2.2,0c0.7,0,1.6-0.1,2.6-0.2c1-0.1,2.1-0.2,3.3-0.5c1.2-0.2,2.5-0.5,3.8-0.8
					c0.7-0.2,1.3-0.4,2-0.6c0.3-0.1,0.7-0.2,1.1-0.3c0.4-0.1,0.7-0.3,1.1-0.4c0.7-0.3,1.4-0.6,2.1-0.8c0.7-0.3,1.4-0.7,2.1-1
					c1.5-0.6,2.8-1.6,4.2-2.4c0.7-0.4,1.3-0.9,2-1.4c0.6-0.5,1.3-1,1.9-1.4c1.2-1,2.3-2.1,3.4-3.1c1.1-1,2.1-2.1,3.1-3
					c0.5-0.5,1-1,1.4-1.5c0.4-0.5,0.9-0.9,1.3-1.4c0.8-0.9,1.6-1.7,2.2-2.5c0.6-0.8,1.2-1.4,1.7-2c0.9-1.1,1.5-1.7,1.5-1.7l0.3,0.1
					c0,0-0.3,0.8-0.9,2.1c-0.3,0.7-0.7,1.5-1.1,2.4c-0.4,0.9-1.1,1.9-1.8,3c-0.7,1-1.4,2.2-2.4,3.3c-1,1.1-2,2.3-3.1,3.4
					c-1.2,1-2.5,2.1-3.9,3c-0.7,0.4-1.4,0.9-2.1,1.4c-0.7,0.4-1.4,0.9-2.2,1.3c-1.5,0.8-3,1.6-4.5,2.2c-0.8,0.3-1.5,0.6-2.3,0.9
					c-0.8,0.2-1.5,0.5-2.3,0.7c-0.4,0.1-0.7,0.2-1.1,0.3c-0.4,0.1-0.7,0.2-1.1,0.3c-0.7,0.2-1.5,0.3-2.2,0.5c-1.4,0.2-2.8,0.5-4,0.5
					c-1.2,0.1-2.4,0.2-3.4,0.2c-1,0-1.9,0-2.6-0.1c-1.4-0.1-2.3-0.2-2.3-0.2L206.4,388.8z"/>
			</g>
			<path class="st19" d="M232.5,232.4c0,0,9.3,0.3,18.9-7.1c0,0,5.5,11.6-5.5,23.4c0,0,14.6,5.9,19.7,5.2c0,0-28.5,21.3-46.5,0.5
				l-2.7-13.8L232.5,232.4z"/>
			<path class="st19" d="M153.5,282.4c0,0-8.5,27.1-28.8,11.1c0,0,7-6.1,7.1-13c0,0-12.9,4.5-17-2.6c0,0,12.3-8.5,16.3-14l10.8-1.7
				l12.9,19.9"/>
			<path class="st20" d="M214.7,284.6l1.7,26.2c0,0-20.4,21.2-29.2,34.6c0,0-16.9-15.2-16.4-30.1l-1.6-25.5L214.7,284.6z"/>

				<ellipse transform="matrix(-0.2779 -0.9606 0.9606 -0.2779 -2.7569 496.1224)" class="st20" cx="185.1" cy="249.1" rx="47.8" ry="57.5"/>

				<ellipse transform="matrix(0.2861 0.9582 -0.9582 0.2861 362.6942 -8.0293)" class="st5" cx="186.7" cy="239.4" rx="6.7" ry="3.2"/>

				<ellipse transform="matrix(0.2861 0.9582 -0.9582 0.2861 348.4101 24.1263)" class="st5" cx="158" cy="245.9" rx="6.7" ry="3.2"/>
			<path class="st5" d="M163.2,273.3c0,0,32.7,1.5,17.7,10.8C169.1,291.3,163.2,273.3,163.2,273.3z"/>
			<path class="st20" d="M163.3,250.3c0,0-6.3,12.8,4.7,15.2c6.8,1.5,12.2-5.4,12.2-5.4"/>
			<path class="st21" d="M237.3,222.2l-6.8,8.5c0,0-29.7-6.1-39.1-20.8c0,0-21.6,5.6-27.6-3.6c0,0-14.2,15.2-23,13.8
				c0,0-8.6,6.3-13.2,26.9c0,0-7.4-8.1-5.3-21.7c2-13.6,20.2-40.1,45.4-40.3C167.7,185,221.8,165.8,237.3,222.2z"/>
			<g>
				<path class="st20" d="M224.8,263.5c0,0-2.4-56.4-38.8-133.9c0,0-31.1-21.4-29.7-32.8c2.8-8,13.3,3.7,13.3,3.7s-20.4-18.9-4.2-28
					c24-13.4,41.6,25.2,37.2,51.6c0,0,47,84.3,49.7,141.5L224.8,263.5z"/>
				<path class="st20" d="M161.9,88.1c6.5,5.5,17.5,4.1,22.4-2.8c0.9-1.2,1.5-2.7,2.4-3.9"/>
			</g>
			<path class="st22" d="M250.4,338.6c17.6,2.1,24.4-44.1,24-79.7c0,0-24.2-13.3-55.4,4.2c0,0,4.3,28.4-0.7,49.4
				C218.3,312.4,234.9,336.7,250.4,338.6z"/>
			<polygon class="st23" points="206,330.7 227.3,302.7 259.3,315.3 251.3,346 			"/>
			<path class="st24" d="M443.5,244.7l19-4.7l5,17.2c0,0-5.5,17.2-19.5,17.2L443.5,244.7z"/>
		</g>
	</g>
</g>
</svg>
