<?xml version="1.0" encoding="utf-8"?>
<!-- Generator: Adobe Illustrator 18.1.1, SVG Export Plug-In . SVG Version: 6.00 Build 0)  -->
<svg version="1.1" id="Layer_1" xmlns="http://www.w3.org/2000/svg" xmlns:xlink="http://www.w3.org/1999/xlink" x="0px" y="0px"
	 viewBox="0 0 500 500" enable-background="new 0 0 500 500" xml:space="preserve">
<symbol  id="New_Symbol" viewBox="-10.1 -34.1 20.2 68.1">
	<path fill="#B2D57C" stroke="#88A23C" stroke-width="1.4312" stroke-miterlimit="10" d="M9.4-33C6.2-14.3,5,5.4,4.7,24.4
		c2.2,3.5-0.9,9.2-5.1,8.9s-8.3-3.2-8.5-7.4c-0.6-19.7-1.5-40.4,1.5-59.9"/>
</symbol>
<symbol  id="New_Symbol_1" viewBox="-9.5 -2.2 19 4.4">
	<g opacity="0.69">
		<path fill="#C1B49A" d="M-9.5,2.2c5.9-2.6,12.6-3.6,19-2.8"/>
		<path fill="#E5D3B3" d="M-9.5,2.2c0,0,0.3,0,0.9,0c0.6,0,1.3-0.1,2.2-0.2C-4.6,1.7-2.3,1.4,0,1c2.3-0.3,4.6-0.7,6.4-1
			c0.9-0.2,1.7-0.3,2.2-0.4c0.5-0.1,0.9-0.2,0.9-0.2S9.2-0.8,8.7-1C8.2-1.2,7.4-1.5,6.5-1.7c-0.9-0.2-2-0.4-3.2-0.5
			c-0.6,0-1.2,0-1.8,0C0.9-2.1,0.2-2-0.4-2C-1-1.9-1.7-1.8-2.3-1.6C-2.9-1.5-3.4-1.3-4-1.1C-5.1-0.7-6.1-0.2-7,0.3
			c-0.8,0.5-1.5,1-1.9,1.3C-9.3,1.9-9.5,2.2-9.5,2.2z"/>
	</g>
</symbol>
<symbol  id="New_Symbol_2" viewBox="-11.2 -4.6 22.4 9.2">
	<g opacity="0.69">
		<path fill="#C1B49A" d="M-11.2-4.3C8.3-1.7,11.2,4.6,11.2,4.6"/>
		<path fill="#E5D3B3" d="M-11.2-4.3c0,0,0.4,0.2,1,0.5c0.3,0.1,0.7,0.3,1.2,0.5c0.4,0.2,1,0.3,1.5,0.5C-7-2.7-6.4-2.5-5.8-2.3
			c0.6,0.2,1.3,0.4,2,0.6C-3.2-1.4-2.4-1.2-1.8-1c0.7,0.2,1.4,0.4,2.1,0.7C1.1,0,1.8,0.2,2.5,0.4c0.7,0.3,1.4,0.5,2,0.7
			c0.7,0.2,1.3,0.5,1.9,0.7C7,2.1,7.5,2.4,8,2.6c0.5,0.2,1,0.5,1.4,0.7c0.4,0.2,0.7,0.4,1,0.6c0.6,0.4,0.8,0.7,0.8,0.7
			s-0.1-0.4-0.4-1.1c-0.2-0.3-0.4-0.7-0.7-1.1C9.8,2,9.5,1.6,9,1.2C8.6,0.8,8.1,0.3,7.5-0.1C7.2-0.3,6.9-0.5,6.6-0.7
			C6.3-0.9,6-1.1,5.6-1.3C5-1.7,4.3-2,3.6-2.3C2.8-2.6,2.1-2.9,1.3-3.2C0.6-3.4-0.2-3.6-1-3.8C-1.7-4-2.5-4.1-3.2-4.2
			c-1.5-0.3-2.9-0.3-4-0.4c-0.6,0-1.1,0-1.6,0c-0.5,0-0.9,0.1-1.2,0.1C-10.8-4.4-11.2-4.3-11.2-4.3z"/>
	</g>
</symbol>
<symbol  id="New_Symbol_3" viewBox="-15.8 -5.1 31.7 10.3">
	<g opacity="0.69">
		<path fill="#C1B49A" d="M-15.8,5.1C-8-1.7,4-4.3,15.8-4.5"/>
		<path fill="#E5D3B3" d="M-15.8,5.1c0,0,0.5-0.2,1.3-0.7c0.4-0.2,0.9-0.5,1.5-0.7c0.6-0.3,1.2-0.6,1.9-0.9c0.7-0.3,1.5-0.6,2.3-1
			c0.8-0.3,1.7-0.7,2.6-1c0.5-0.2,0.9-0.3,1.4-0.5C-4.4,0.3-3.9,0.1-3.4,0c1-0.3,1.9-0.6,2.9-0.8c1-0.3,2-0.5,3-0.8
			c1-0.2,2-0.4,2.9-0.7c1.9-0.4,3.7-0.8,5.2-1.1c1.6-0.3,2.8-0.6,3.8-0.8c0.9-0.2,1.4-0.3,1.4-0.3s-0.5-0.1-1.5-0.3
			c-0.5-0.1-1-0.2-1.7-0.2C12-5,11.3-5.1,10.5-5.1C7.3-5.3,2.9-4.9-1.2-3.8c-1,0.3-2.1,0.6-3.1,1c-1,0.4-2,0.8-2.9,1.2
			C-8.2-1.2-9-0.6-9.8-0.2c-0.8,0.5-1.5,1-2.2,1.5c-0.7,0.5-1.2,1-1.7,1.4c-0.5,0.5-0.9,0.9-1.2,1.2C-15.5,4.7-15.8,5.1-15.8,5.1z"
			/>
	</g>
</symbol>
<symbol  id="New_Symbol_4" viewBox="-6 -2 11.9 4.1">
	<path fill="#C1B49A" stroke="#676667" stroke-width="0.3924" stroke-miterlimit="10" d="M-5.9-1c1,0.7,7.2,2.4,10.8,2.8
		C5.7,1.9,6.1,1,5.5,0.5c-2.7-2.3-8.7-2.4-10-2.3"/>
</symbol>
<g>
	<defs>
		<rect id="SVGID_1_" width="500" height="500"/>
	</defs>
	<clipPath id="SVGID_2_">
		<use xlink:href="#SVGID_1_"  overflow="visible"/>
	</clipPath>
	<g clip-path="url(#SVGID_2_)">

			<rect x="-23.6" y="-15.2" fill="#916445" stroke="#3B2314" stroke-width="1.12" stroke-miterlimit="10" width="528.1" height="525"/>
		<path fill="#C1B49A" stroke="#676667" stroke-width="0.7546" stroke-miterlimit="10" d="M249.4,177.9c24.8-8,40.4-2.3,57.4,19.6
			c6.8,8.8,24.7,31.3,34.1,37.2c19.8,12.6,31.7,22.3,39.1,41.7c5.5,14.3-3.1,48,19.6,63.7c8.1,5.6,5,10.7-2.3,5.3
			c-10.1-7.4-17.5-18.8-18.9-31.2c-1-9.4,1-19-0.8-28.2c-2.4-12.6-11.3-22.9-21.2-31.1c-9.8-8.2-20.9-15-29.8-24.1
			c-7.9-8.1-13.9-17.9-21.1-26.7c-7.2-8.8-16.1-16.8-27.1-19.7c-11-2.8-25.3,1-30.4,11.1c18.1-0.4,45.1,12.5,51.1,29.7
			c3.4,9.6,1.6,25.7,6.1,34.8c7.5,14.9,27.2,10.9,31,27.2c2.7,11.5-4.7,31.8-6.1,43.5c-1.9,15.6,3.5,32.8,15.6,42.9
			c1.4,1.1,2.8,2.3,3.4,4c0.5,1.7-0.5,4-2.3,3.9c-1.2-0.1-2-1.1-2.8-2c-9.8-12.5-20-26.3-19.9-42.2c0.1-9.2,3.6-18,5.7-26.9
			c2.1-9,2.4-19.2-3.3-26.5c-5.8-7.5-16.5-9.9-22.4-17.3c-6.8-8.6-5.1-21-8.3-31.6c-4.1-13.7-16.6-23.6-30.1-28.5
			c-6.4-2.3-13.8-3.6-19.8-0.3c-5.9,3.3-10,15.5-3.6,17.7c54.3,18.9,33.4,77.2,49.4,106.7c5.8,10.8,12.7,22.3,10.8,34.5
			c-1.6,10-8.8,18-14.4,26.4c-5.6,8.4-10,19.5-5.3,28.4c2.5,4.8,7.2,8.2,9.2,13.2c2,5-6,25.8-9.3,24.9c-2.5-3.6,7.6-20.1,4.7-24.9
			c-2.9-4.8-9.8-13.7-11.6-19c-3-8.9,1.2-18.6,6.2-26.5c5-8,11-15.9,11.7-25.3c1.2-14.4-10.1-26.4-15-40c-6.5-18.4-1-39.5-8.3-57.6
			c-6.5-16.1-37.9-35.5-38-30c-0.5,29.1-13.1,46.1,13,80.5c12.1,15.9-0.1,46.5,2.9,66.3c2.1,14,10.6,26.9,9.5,41
			c-1.1,13.2-10.4,26.7-4.5,38.5c1.7,3.4,4.6,7.8,1.8,10.5c-2.3,2.2-4.9-4.5-6.6-7.1c-10.2-15.4,1.7-27,3.1-44.2
			c1.3-16.2-7.7-31.6-8.3-47.9c-0.7-17.2,7.7-35.5-0.2-50.8c-4.6-8.9-14.1-14.7-17.7-24.1c-3.2-8.3-6.4-26.1-6.1-35
			c1.3-40.2-10.5-19.4-15.5-5.4c-5,13.9-9.7,29.8-3.2,43.1c3.4,6.9,9.6,12.6,10.9,20.3c1.7,10.2-6,19.5-7.6,29.8
			c-2,12.7,5.6,24.6,9.2,36.9c11.3,37.8-1,66.7-4.4,71.7c-6.9,15.8-9.5,4.4-1.9-12c8.5-18.3,6.4-41.5,0.5-60.8
			c-3.6-12-11.8-23.4-9.6-35.7c1.5-8.3,7.5-15.6,6.9-24c-0.6-7.9-6.8-14-10.2-21.1c-4.8-10.2-3.7-22.2-0.7-33s7.7-21.2,9.9-32.2
			c3.9-19.7-0.7-23.9-12.5-40.2c-0.4-0.6-1.3-0.7-1.8-0.2c-6.1,6.2-7.1,16.1-5.9,24.9c1.2,9.2,4.4,18.2,4.2,27.5
			c-0.6,28.6-30.7,48.7-35.9,76.9c-3.8,20.8,16.1,49.1,21,75.7c5,27-11.9,79-17.5,79c-4.6-7.1,13.2-42.4,14.3-64.6
			c1.6-31.3-27-58.8-23.2-89.9c3.6-30.1,36.6-52.1,35.5-82.5c-0.3-10.2-4.6-19.8-5.8-29.9c-1-9.1,1.6-19.7,9-24.3
			c0.8-0.5,0.5-1.8-0.5-1.8c-8.6-0.3-16.8,6.3-20.7,14.3c-4.3,9-4.5,19.3-4.9,29.3s-1.4,20.4-6.9,28.7
			c-9.8,14.6-30.8,18.3-40.6,32.8c-6.8,10-6.8,23-7.6,35.1c-1.5,21.2-6.8,65.7-14.3,61.9c-5.1-3.1,3.5-9.2,6.9-32.8
			c2-13.9,1.9-63.1,17.6-76.7c8.8-7.6,20.3-11.8,28.1-20.4c8.2-8.9,10.5-21.7,11.6-33.7c1.1-12.1,1.6-24.6,7.3-35.3
			c5.7-10.7,18.5-18.8,29.9-14.6"/>

			<use xlink:href="#New_Symbol_4"  width="11.9" height="4.1" x="-6" y="-2" transform="matrix(1.9231 0 0 -1.9231 313.3044 191.2402)" overflow="visible"/>

			<use xlink:href="#New_Symbol_4"  width="11.9" height="4.1" x="-6" y="-2" transform="matrix(1.7525 0.7919 0.7919 -1.7525 341.2411 229.439)" overflow="visible"/>

			<use xlink:href="#New_Symbol_4"  width="11.9" height="4.1" x="-6" y="-2" transform="matrix(1.6329 1.0158 1.0158 -1.6329 381.3709 266.1763)" overflow="visible"/>

			<use xlink:href="#New_Symbol_4"  width="11.9" height="4.1" x="-6" y="-2" transform="matrix(0.7576 1.7676 1.7676 -0.7576 387.7811 311.6225)" overflow="visible"/>

			<use xlink:href="#New_Symbol_4"  width="11.9" height="4.1" x="-6" y="-2" transform="matrix(0.4251 1.8755 -1.8755 0.4251 389.1583 348.1449)" overflow="visible"/>

			<use xlink:href="#New_Symbol_4"  width="11.9" height="4.1" x="-6" y="-2" transform="matrix(-1.4562 1.2561 -1.2561 -1.4562 369.1345 293.6163)" overflow="visible"/>

			<use xlink:href="#New_Symbol_4"  width="11.9" height="4.1" x="-6" y="-2" transform="matrix(0.4026 1.8805 -1.8805 0.4026 340.7837 384.1688)" overflow="visible"/>

			<use xlink:href="#New_Symbol_4"  width="11.9" height="4.1" x="-6" y="-2" transform="matrix(1.6994 0.9001 0.9001 -1.6994 343.5046 358.9615)" overflow="visible"/>

			<use xlink:href="#New_Symbol_4"  width="11.9" height="4.1" x="-6" y="-2" transform="matrix(-0.5339 1.8475 -1.8475 -0.5339 321.5612 354.6294)" overflow="visible"/>

			<use xlink:href="#New_Symbol_4"  width="11.9" height="4.1" x="-6" y="-2" transform="matrix(-0.8456 1.7272 -1.7272 -0.8456 326.5235 306.9984)" overflow="visible"/>

			<use xlink:href="#New_Symbol_4"  width="11.9" height="4.1" x="-6" y="-2" transform="matrix(-0.456 1.8682 -1.8682 -0.456 290.0143 240.6807)" overflow="visible"/>

			<use xlink:href="#New_Symbol_4"  width="11.9" height="4.1" x="-6" y="-2" transform="matrix(-0.9989 1.6433 -1.6433 -0.9989 267.9278 293.8174)" overflow="visible"/>

			<use xlink:href="#New_Symbol_4"  width="11.9" height="4.1" x="-6" y="-2" transform="matrix(1.7477 0.8023 0.8023 -1.7477 298.1424 328.776)" overflow="visible"/>

			<use xlink:href="#New_Symbol_4"  width="11.9" height="4.1" x="-6" y="-2" transform="matrix(-1.6595 0.9718 -0.9718 -1.6595 281.2807 378.3384)" overflow="visible"/>

			<use xlink:href="#New_Symbol_4"  width="11.9" height="4.1" x="-6" y="-2" transform="matrix(-0.5193 1.8516 -1.8516 -0.5193 240.3945 338.1051)" overflow="visible"/>

			<use xlink:href="#New_Symbol_4"  width="11.9" height="4.1" x="-6" y="-2" transform="matrix(-0.5193 1.8516 -1.8516 -0.5193 245.2942 410.908)" overflow="visible"/>

			<use xlink:href="#New_Symbol_4"  width="11.9" height="4.1" x="-6" y="-2" transform="matrix(-1.0163 1.6326 -1.6326 -1.0163 237.6076 460.2049)" overflow="visible"/>

			<use xlink:href="#New_Symbol_4"  width="11.9" height="4.1" x="-6" y="-2" transform="matrix(-0.7229 1.782 -1.782 -0.7229 202.9122 393.4101)" overflow="visible"/>

			<use xlink:href="#New_Symbol_4"  width="11.9" height="4.1" x="-6" y="-2" transform="matrix(-1.9193 0.1198 -0.1198 -1.9193 191.4897 341.9119)" overflow="visible"/>

			<use xlink:href="#New_Symbol_4"  width="11.9" height="4.1" x="-6" y="-2" transform="matrix(-1.0232 1.6282 -1.6282 -1.0232 160.0159 405.0021)" overflow="visible"/>

			<use xlink:href="#New_Symbol_4"  width="11.9" height="4.1" x="-6" y="-2" transform="matrix(-1.0232 1.6282 -1.6282 -1.0232 141.4563 333.7289)" overflow="visible"/>

			<use xlink:href="#New_Symbol_4"  width="11.9" height="4.1" x="-6" y="-2" transform="matrix(-1.9229 -2.425857e-02 2.425857e-02 -1.9229 122.1292 270.2879)" overflow="visible"/>

			<use xlink:href="#New_Symbol_4"  width="11.9" height="4.1" x="-6" y="-2" transform="matrix(-1.5651 1.1175 -1.1175 -1.5651 95.9887 308.6807)" overflow="visible"/>

			<use xlink:href="#New_Symbol_4"  width="11.9" height="4.1" x="-6" y="-2" transform="matrix(-1.6175 1.0402 -1.0402 -1.6175 88.4645 348.041)" overflow="visible"/>

			<use xlink:href="#New_Symbol_4"  width="11.9" height="4.1" x="-6" y="-2" transform="matrix(-0.6401 1.8134 -1.8134 -0.6401 83.2626 397.9175)" overflow="visible"/>

			<use xlink:href="#New_Symbol_4"  width="11.9" height="4.1" x="-6" y="-2" transform="matrix(-1.0232 1.6282 -1.6282 -1.0232 176.1772 259.7184)" overflow="visible"/>

			<use xlink:href="#New_Symbol_4"  width="11.9" height="4.1" x="-6" y="-2" transform="matrix(-1.5561 1.13 -1.13 -1.5561 154.5962 453.9664)" overflow="visible"/>

			<use xlink:href="#New_Symbol_4"  width="11.9" height="4.1" x="-6" y="-2" transform="matrix(-0.9634 1.6644 -1.6644 -0.9634 206.7455 433.634)" overflow="visible"/>

			<use xlink:href="#New_Symbol_4"  width="11.9" height="4.1" x="-6" y="-2" transform="matrix(-1.5648 1.1179 -1.1179 -1.5648 275.8063 451.9658)" overflow="visible"/>

			<use xlink:href="#New_Symbol_4"  width="11.9" height="4.1" x="-6" y="-2" transform="matrix(0.5482 1.8433 1.8433 -0.5482 289.6653 406.5202)" overflow="visible"/>
		<g>
			<defs>
				<path id="SVGID_3_" d="M196.1,183.6c-44-32.4-79.5-74.3-79.5-103.8c0-33.5,44.1-48.6,98.6-48.6s94.1,6.3,94.1,39.8
					c0,26.1-26,79.5-59.9,108"/>
			</defs>
			<use xlink:href="#SVGID_3_"  overflow="visible" fill="#C1B49A"/>
			<clipPath id="SVGID_4_">
				<use xlink:href="#SVGID_3_"  overflow="visible"/>
			</clipPath>
			<g clip-path="url(#SVGID_4_)">

					<use xlink:href="#New_Symbol_2"  width="22.4" height="9.2" x="-11.2" y="-4.6" transform="matrix(1.9231 0 0 -1.9231 267.8726 134.8248)" overflow="visible"/>

					<use xlink:href="#New_Symbol_2"  width="22.4" height="9.2" x="-11.2" y="-4.6" transform="matrix(1.9046 -0.2661 -0.2661 -1.9046 285.5752 102.8367)" overflow="visible"/>

					<use xlink:href="#New_Symbol_3"  width="31.7" height="10.3" x="-15.8" y="-5.1" transform="matrix(1.9231 0 0 -1.9231 156.4413 117.2836)" overflow="visible"/>

					<use xlink:href="#New_Symbol_3"  width="31.7" height="10.3" x="-15.8" y="-5.1" transform="matrix(2.7494 0.1034 7.227218e-02 -1.9217 158.028 94.1387)" overflow="visible"/>

					<use xlink:href="#New_Symbol_1"  width="19" height="4.4" x="-9.5" y="-2.2" transform="matrix(1.614 -1.0456 -1.0456 -1.614 272.4987 149.2081)" overflow="visible"/>

					<use xlink:href="#New_Symbol_1"  width="19" height="4.4" x="-9.5" y="-2.2" transform="matrix(1.9187 0.1296 0.1296 -1.9187 154.5183 135.7762)" overflow="visible"/>
			</g>
			<use xlink:href="#SVGID_3_"  overflow="visible" fill="none" stroke="#676667" stroke-width="0.7546" stroke-miterlimit="10"/>
		</g>
		<ellipse fill="#D7C6AC" cx="212.4" cy="58.8" rx="71.4" ry="28.6"/>

			<use xlink:href="#New_Symbol"  width="20.2" height="68.1" x="-10.1" y="-34.1" transform="matrix(1.7846 0.7166 0.6464 -1.6096 268.4385 -8.1902)" overflow="visible"/>

			<use xlink:href="#New_Symbol"  width="20.2" height="68.1" x="-10.1" y="-34.1" transform="matrix(1.8727 0.4374 0.3945 -1.6891 246.2105 -7.8414)" overflow="visible"/>

			<use xlink:href="#New_Symbol"  width="20.2" height="68.1" x="-10.1" y="-34.1" transform="matrix(-1.7846 0.74 -0.6464 -1.662 153.6129 -6.3066)" overflow="visible"/>

			<use xlink:href="#New_Symbol"  width="20.2" height="68.1" x="-10.1" y="-34.1" transform="matrix(-1.8727 0.4516 -0.3945 -1.7441 175.8409 -5.9464)" overflow="visible"/>

			<use xlink:href="#New_Symbol"  width="20.2" height="68.1" x="-10.1" y="-34.1" transform="matrix(1.9231 0 0 -1.9231 212.9761 1.2064)" overflow="visible"/>
	</g>
</g>
</svg>
