<?xml version="1.0" encoding="utf-8"?>
<!-- Generator: Adobe Illustrator 18.1.1, SVG Export Plug-In . SVG Version: 6.00 Build 0)  -->
<svg version="1.1" id="Layer_1" xmlns="http://www.w3.org/2000/svg" xmlns:xlink="http://www.w3.org/1999/xlink" x="0px" y="0px"
	 viewBox="0 0 500 500" enable-background="new 0 0 500 500" xml:space="preserve">
<symbol  id="New_Symbol" viewBox="-15 -58.9 29.9 117.7">
	<g opacity="0.8">
		<path fill="#EFB4C1" stroke="#C599A4" stroke-width="1.5141" stroke-miterlimit="10" d="M13.7,55.7c-4.5,1-10.4,1.5-16,1.8
			c0.3-6.8,0.5-24.4-2.7-43.7c-3.5-21.1-7.4-60-8.5-71.2c8.6,1.1,9.1,4.4,9.3,5.7c0.6,4.4,2.7,15.7,9,44.2
			C14,34.4,13.7,55.7,13.7,55.7z"/>
		<path fill="#EFB4C1" stroke="#C599A4" stroke-width="1.5141" stroke-miterlimit="10" d="M-14.1-58l0.1,0.6
			c1.1,11.4,5,50.2,8.5,71.2c3.2,19.3,3,36.9,2.7,43.6l0,0.6l0.6,0c6.7-0.3,12.1-1,16.1-1.8l0.4-0.1l0-0.4c0-0.2,0.2-21.8-8.9-63.4
			c-6.4-28.7-8.3-40-9-44.2c-0.2-1.2-0.7-5-9.7-6.1L-14.1-58z M-1.8,57c0.2-7.1,0.4-24.4-2.8-43.3C-8-6.9-11.8-44.6-13-56.8
			c7.6,1.1,8.1,4.1,8.2,5.1c0.6,4.2,2.6,15.5,9,44.2c8.5,38.3,8.9,59.5,8.9,62.7C9.4,56.1,4.4,56.6-1.8,57z"/>
	</g>
</symbol>
<g>
	<rect fill="#ACD9DA" width="500" height="500"/>
	<g>
		<g>
			<g>

					<path fill="#FFFFFF" stroke="#4CABC0" stroke-width="2.9117" stroke-linecap="round" stroke-linejoin="round" stroke-miterlimit="10" d="
					M197.5,125.9l-13.2-53.1l-56.8-46.3c-1.7-1.4-4-1.4-5.7-0.1l-0.3,0.2c-2.4,1.8-2.5,5.4-0.2,7.4l55,44.8l13.2,53.1L197.5,125.9z"
					/>

					<polyline opacity="0.41" fill="none" stroke="#AD5373" stroke-width="1.9264" stroke-linecap="round" stroke-linejoin="round" stroke-miterlimit="10" points="
					122.1,25.9 181.7,74.5 195,127.5 				"/>
			</g>
			<g>

					<path fill="#9D3A47" stroke="#DA4D3F" stroke-width="1.9264" stroke-linecap="round" stroke-linejoin="round" stroke-miterlimit="10" d="
					M251.9,124.3l-22-7.7c0,0-6.1-20.6,6.6-28.5c9-5.6,14,4.9,14,4.9s10.5-5.1,14,4.9C269.5,112,251.9,124.3,251.9,124.3z"/>

					<path fill="#C04752" stroke="#DA4D3F" stroke-width="1.9264" stroke-linecap="round" stroke-linejoin="round" stroke-miterlimit="10" d="
					M245.8,91.3c0,0-0.8,3.6,10.9,3.8"/>
				<g>
					<path fill="#006838" d="M250.2,92.9c0,0,0.1-1,0.3-2.7c0.2-1.7,0.6-4.2,1.3-7.1c0.7-2.9,1.6-6.3,3.1-9.8
						c0.7-1.8,1.6-3.6,2.5-5.3c1-1.8,2.1-3.5,3.4-5.2c1.2-1.7,2.7-3.3,4.2-4.8c0.8-0.7,1.5-1.5,2.4-2c0.4-0.3,0.9-0.6,1.3-0.9
						c0.4-0.3,0.9-0.5,1.4-0.8c1.8-1,3.8-1.6,5.6-1.9c1.9-0.3,3.6-0.4,5.3-0.3c0.4,0,0.8,0,1.2,0.1c0.4,0.1,0.7,0.1,1.1,0.2
						c0.7,0.1,1.4,0.2,2,0.4c1.2,0.4,2.3,0.7,3.1,1.1c1.7,0.8,2.5,1.3,2.5,1.3c0.1,0.1,0.2,0.3,0.1,0.4c-0.1,0.1-0.1,0.1-0.2,0.1
						l0,0c0,0-1,0.1-2.8,0.2c-0.4,0-0.9,0.1-1.4,0.1c-0.5,0-1,0.1-1.6,0.1c-0.6,0.1-1.2,0.2-1.8,0.3c-0.6,0.1-1.3,0.2-1.9,0.3
						c-1.3,0.3-2.7,0.6-4.1,1.1c-0.7,0.3-1.4,0.5-2.1,0.8c-0.7,0.3-1.5,0.6-2.1,1c-0.4,0.2-0.7,0.3-1.1,0.5
						c-0.4,0.2-0.7,0.4-1.1,0.6c-0.8,0.4-1.4,0.9-2.2,1.4c-1.4,1-2.8,2.2-4.1,3.5c-1.3,1.3-2.4,2.8-3.5,4.3c-1,1.5-2,3.1-2.9,4.7
						c-0.9,1.6-1.6,3.1-2.4,4.6c-0.7,1.5-1.3,3-1.8,4.3c-1.1,2.7-1.8,5.1-2.3,6.7c-0.5,1.6-0.7,2.6-0.7,2.6c0,0.2-0.2,0.3-0.4,0.2
						C250.3,93.2,250.2,93,250.2,92.9z"/>
				</g>
			</g>

				<path fill="#F9F8E6" stroke="#B6B48D" stroke-width="2.9117" stroke-linecap="round" stroke-linejoin="round" stroke-miterlimit="10" d="
				M318.5,143.9l-1.8,4.2c-1.2,2.8-4,4.6-7,4.6H185.1c-3,0-5.8-1.8-7-4.6l-1.8-4.2c-5.5-6.1,0-9.6,0-9.6c-2.4-15.5,8-16.9,8-16.9
				c-3.7-13.4,10.7-11.9,10.7-11.9c5.5-16.4,18.8-9.9,18.8-9.9c16.9-13.4,25.3,6,25.3,6c4-2.2,7-1.2,8.3-0.5
				c1.3-0.7,4.3-1.7,8.3,0.5c0,0,8.4-19.3,25.3-6c0,0,13.4-6.4,18.8,9.9c0,0,14.4-1.5,10.7,11.9c0,0,10.5,1.3,8,16.9
				C318.5,134.3,324,137.8,318.5,143.9z"/>

				<path fill="#F9F8E6" stroke="#B6B48D" stroke-width="1.9264" stroke-linecap="round" stroke-linejoin="round" stroke-miterlimit="10" d="
				M189.5,110c0,0,8.9-3.5,11.4,7.9c0,0,13.4-5.7,18.3,3.8c0,0,28.3-15.9,47.9,4.1c0,0,10.1-8.9,16.5,0c0,0,14.9-18.3,23.3-8.2"/>

				<path fill="#F9F8E6" stroke="#B6B48D" stroke-width="1.9264" stroke-linecap="round" stroke-linejoin="round" stroke-miterlimit="10" d="
				M208.4,105.6c0,0,6.5-8.4,12.9-5.5c6.4,3,10.4,11.9,10.4,11.9"/>

				<path fill="#F9F8E6" stroke="#B6B48D" stroke-width="1.9264" stroke-linecap="round" stroke-linejoin="round" stroke-miterlimit="10" d="
				M253.5,109.5c0,0,6.4-3,10.9,0c0,0,8.2-12.9,21.4-3.8"/>
		</g>
		<path opacity="0.7" fill="#FFFFFF" stroke="#231F20" stroke-width="1.9264" stroke-miterlimit="10" d="M310.4,185.4
			c0,0,0.5,37.3-12.2,96.9c-12.7,59.5-22.2,108.8-22.2,108.8s-0.7,12.5-27.9,12.7h-0.5c-27.2-0.1-27.9-12.7-27.9-12.7
			s-9.5-49.2-22.2-108.8c-12.7-59.6-12.2-96.9-12.2-96.9c-14.1-16.4-8-32.3-8-32.3c6.4-9.6,67.4-7.4,70.7-7.3
			c4.9-0.2,64.2-2.2,70.5,7.3C318.5,153.2,324.6,169.1,310.4,185.4z"/>
		<g>
			<g>
				<path opacity="0.8" fill="#FDF0F4" stroke="#A77780" stroke-width="2.9117" stroke-miterlimit="10" d="M319.5,183.9
					c0,50.9-34.4,200.3-34.4,221.5c0,21.1,37,30.4,37,41c0,24.5-58.2,27.1-74,27.1s-74-2.6-74-27.1c0-10.6,37-19.8,37-41
					c0-21.2-34.4-170.6-34.4-221.5l-1-1c-3.2-3.2-5-7.5-5-12v-21.2c0-1.7,0.9-3.2,2.4-4c5.3-2.8,22-6.8,75-6.8s69.7,4,75,6.8
					c1.5,0.8,2.4,2.3,2.4,4V171c0,4.5-1.8,8.8-5,12L319.5,183.9z"/>
				<path fill="#FDF0F4" stroke="#A77780" stroke-width="2.9117" stroke-miterlimit="10" d="M248.1,474.5c-7.7,0-75-0.8-75-28.1
					c0-4.9,6.6-9.2,14.2-14.2c10.1-6.6,22.8-14.9,22.8-26.7c0-8.2-5.4-36.9-11.7-70.2c-10.1-53.3-22.6-119.7-22.7-150.9l-0.7-0.7
					c-3.4-3.4-5.2-7.9-5.2-12.7v-21.2c0-2,1.1-3.9,2.9-4.8c6-3.2,24-6.9,75.4-6.9c51.4,0,69.4,3.8,75.4,6.9c1.8,0.9,2.9,2.8,2.9,4.8
					V171c0,4.8-1.9,9.3-5.2,12.7l-0.7,0.7c-0.1,31.2-12.6,97.6-22.7,150.9c-6.3,33.2-11.7,62-11.7,70.2c0,11.9,12.6,20.1,22.8,26.7
					c7.6,5,14.2,9.3,14.2,14.2C323.2,473.7,255.8,474.5,248.1,474.5z M248.1,139.9c-53.7,0-69.7,4.2-74.5,6.7
					c-1.2,0.6-1.9,1.8-1.9,3.1V171c0,4.3,1.7,8.3,4.7,11.3l1.3,1.3v0.4c0,30.9,12.6,97.5,22.7,151c6.5,34.7,11.7,62.1,11.7,70.5
					c0,12.9-13.1,21.5-23.7,28.4c-7.2,4.7-13.3,8.7-13.3,12.6c0,20.6,45.9,26.1,73.1,26.1c27.1,0,73.1-5.5,73.1-26.1
					c0-3.8-6.2-7.9-13.3-12.6c-10.5-6.9-23.7-15.5-23.7-28.4c0-8.4,5.2-35.8,11.7-70.5c10.1-53.5,22.7-120.1,22.7-151v-0.4l1.3-1.3
					c3-3,4.7-7,4.7-11.3v-21.2c0-1.3-0.7-2.5-1.9-3.1C317.8,144.1,301.8,139.9,248.1,139.9z"/>
			</g>
			<g opacity="0.81">
				<path opacity="0.8" fill="#EFB4C1" stroke="#C599A4" stroke-width="2.9117" stroke-miterlimit="10" d="M319.9,153.2v15.5
					c0,6.6-6,10.6-6,10.6c-16.2-5.3-60.6-5.3-65.6-5.3c-0.3,0-0.5,0-0.5,0c-5.1,0-49.4,0-65.6,5.3c0,0-6-3.9-6-10.6v-15.5
					c0-1.5,1-2.9,2.4-3.3c5.4-1.7,21.9-4.9,69.1-5h0.5c47.2,0,63.7,3.3,69.1,5C319,150.3,319.9,151.7,319.9,153.2z"/>
				<path fill="#EFB4C1" stroke="#C599A4" stroke-width="2.9117" stroke-miterlimit="10" d="M182.1,180.4l-0.4-0.3
					c-0.3-0.2-6.4-4.3-6.4-11.4v-15.5c0-2,1.3-3.7,3.1-4.3c5.9-1.9,22.7-5,69.4-5h0.5c46.7,0,63.5,3.1,69.4,5
					c1.9,0.6,3.1,2.3,3.1,4.3v15.5c0,7.1-6.1,11.2-6.4,11.4l-0.4,0.3l-0.5-0.1c-15.2-5-56.1-5.2-64.1-5.2l-1.7,0l-1.2,0
					c-8,0-48.9,0.3-64.1,5.2L182.1,180.4z M249.6,173c8,0,48.3,0.2,64.2,5.2c1.2-1,5.1-4.4,5.1-9.5v-15.5c0-1.1-0.7-2-1.7-2.4
					c-4.7-1.5-20.7-4.9-68.8-4.9h-0.5c-48.2,0-64.2,3.4-68.8,4.9c-1,0.3-1.7,1.3-1.7,2.4v15.5c0,5.1,3.9,8.5,5.1,9.5
					c15.9-4.9,56.2-5.2,64.2-5.2l1.7,0L249.6,173z"/>
			</g>
			<path opacity="0.59" fill="#FDF0F4" stroke="#C599A4" stroke-width="4.3675" stroke-miterlimit="10" d="M308.5,453
				c-5.8,5.8-21,12.5-60.4,12.5c-39.4,0-54.6-6.8-60.4-12.5c-3.2-3.1-2.1-8.4,1.8-10.5c19.5-10.2,25.9-23.1,27.8-28.2
				c0.3-0.7,1.5-1,1.7-0.2c1.9,7.1,29,6.5,29,6.5s27.1,0.6,29-6.5c0.2-0.8,1.4-0.6,1.7,0.2c1.9,5.2,8.4,18,27.8,28.2
				C310.6,444.6,311.7,449.9,308.5,453z"/>

				<use xlink:href="#New_Symbol"  width="29.9" height="117.7" x="-15" y="-58.9" transform="matrix(1.9231 0 0 -1.9231 285.6237 291.7553)" overflow="visible"/>

				<use xlink:href="#New_Symbol"  width="29.9" height="117.7" x="-15" y="-58.9" transform="matrix(-1.9231 0 0 -1.9231 210.5356 291.7553)" overflow="visible"/>
			<g opacity="0.8">
				<g>
					<path fill="#EFB4C1" stroke="#C599A4" stroke-width="2.9117" stroke-miterlimit="10" d="M267.1,180.7
						c-8.8-0.2-15.8-0.1-18.6-0.1c0,0,0,0,0,0c-2.2,0-9.7-0.1-19.3,0.1c-0.2,22.2,0.1,54,2.4,89.5c2.3,33.6,10.7,111.4,13,132.5
						c1.1,0,2.3,0.1,3.6,0.1c1.3,0,2.4,0,3.6-0.1c2.3-21.1,10.7-99,13-132.5C267.1,234.7,267.4,202.8,267.1,180.7z"/>
					<path fill="#EFB4C1" stroke="#C599A4" stroke-width="2.9117" stroke-miterlimit="10" d="M248.1,403.8c-1.3,0-2.4,0-3.6-0.1
						l-0.9,0l-0.1-0.8c-2.5-22.7-10.8-99.3-13-132.6c-2.4-36.3-2.7-68.7-2.4-89.6l0-1l1,0c9.6-0.2,17.2-0.1,19.4-0.1
						c2.8,0,9.9-0.1,18.7,0.1l1,0l0,1c0.2,20.8,0,53.3-2.4,89.6c-2.2,33.3-10.5,109.9-13,132.6l-0.1,0.9l-0.9,0
						C250.6,403.7,249.4,403.8,248.1,403.8z M245.5,401.7c1.7,0.1,3.6,0.1,5.3,0c2.6-23.7,10.7-98.7,12.9-131.6
						c2.4-35.7,2.7-67.6,2.4-88.5c-8.3-0.2-14.9-0.1-17.6,0c-2.2,0-9.3-0.1-18.4,0c-0.2,20.8,0.1,52.8,2.4,88.5
						C234.8,302.9,242.9,378,245.5,401.7z"/>
				</g>
			</g>
		</g>
	</g>
</g>
</svg>
