<?xml version="1.0" encoding="utf-8"?>
<!-- Generator: Adobe Illustrator 18.1.1, SVG Export Plug-In . SVG Version: 6.00 Build 0)  -->
<svg version="1.1" id="Layer_1" xmlns="http://www.w3.org/2000/svg" xmlns:xlink="http://www.w3.org/1999/xlink" x="0px" y="0px"
	 viewBox="0 0 260 260" enable-background="new 0 0 260 260" xml:space="preserve">
<g>
	<g>
		<defs>
			<rect id="SVGID_1_" y="-0.2" width="260" height="260"/>
		</defs>
		<clipPath id="SVGID_2_">
			<use xlink:href="#SVGID_1_"  overflow="visible"/>
		</clipPath>
		<g clip-path="url(#SVGID_2_)">
			<rect x="-32.9" y="-8.6" fill="#B9C8E6" width="325.8" height="272.4"/>
			<path fill="#233268" stroke="#686BB0" stroke-width="1.0854" stroke-miterlimit="10" d="M248.3,177H12.6c-2.8,0-5-2.2-5-5V62.4
				c0-3.7,3-6.8,6.8-6.8h232.1c3.7,0,6.8,3,6.8,6.8V172C253.3,174.8,251,177,248.3,177z"/>
			<path fill="#233268" stroke="#686BB0" stroke-width="1.0321" stroke-miterlimit="10" d="M243.8,170.3H17.1c-2.8,0-5-2.2-5-5V66.7
				c0-3.7,3-6.8,6.8-6.8H242c3.7,0,6.8,3,6.8,6.8v98.6C248.8,168.1,246.5,170.3,243.8,170.3z"/>
			<g>
				<g>
					<g>

							<rect x="22.7" y="71.3" fill="#231F20" stroke="#515251" stroke-width="1.1478" stroke-miterlimit="10" width="54.3" height="18.6"/>
						<g>
							<path fill="#B98E2F" d="M39.7,79.5c0.2,0.1,0.4,0.2,0.5,0.4c0.1,0.2,0.2,0.4,0.2,0.6c0,0.2-0.1,0.4-0.2,0.6
								c-0.1,0.2-0.3,0.3-0.5,0.3v2.6c0,0.3-0.1,0.5-0.2,0.7c-0.1,0.2-0.3,0.3-0.5,0.4c-0.2,0.1-0.4,0.1-0.6,0.1s-0.4-0.2-0.5-0.4
								c-0.1-0.1-0.1-0.2-0.1-0.4c0-0.1,0-0.3,0-0.4v-2.6h-3.5v2.6c0,0.1,0,0.2,0,0.3c0,0.1-0.1,0.2-0.1,0.3
								c-0.1,0.2-0.3,0.4-0.5,0.5s-0.4,0.1-0.6,0c-0.2-0.1-0.4-0.2-0.5-0.4c-0.1-0.2-0.2-0.4-0.2-0.7v-7.9c0-0.3,0.1-0.5,0.2-0.7
								c0.2-0.2,0.3-0.3,0.5-0.4c0.2-0.1,0.4-0.1,0.6,0c0.2,0.1,0.4,0.2,0.5,0.5c0,0.1,0.1,0.2,0.1,0.2c0,0.1,0,0.1,0,0.2v3.4h3.5
								v-3.3c0-0.2,0-0.4,0.1-0.6c0.1-0.2,0.3-0.4,0.5-0.5c0.2-0.1,0.4-0.1,0.6-0.1c0.2,0,0.4,0.1,0.5,0.3c0.1,0.2,0.2,0.4,0.2,0.6
								V79.5z"/>
							<path fill="#B98E2F" d="M41,81.1c0.1-0.3,0.2-0.6,0.3-0.9c0.1-0.3,0.3-0.6,0.5-0.8c0.2-0.3,0.4-0.5,0.6-0.7
								c0.2-0.2,0.5-0.4,0.7-0.5c0.5-0.2,0.9-0.4,1.4-0.4c0.5,0,0.9,0.1,1.3,0.3s0.8,0.5,1,0.9s0.5,0.8,0.6,1.4
								c0.1,0.3,0.1,0.7,0.1,1c0,0.3,0,0.6-0.1,1c-0.1,0.5-0.3,1-0.6,1.4c-0.3,0.5-0.7,0.9-1.1,1.2c-0.4,0.3-0.9,0.5-1.4,0.6
								c-0.5,0.1-1,0-1.5-0.2c-0.2-0.1-0.4-0.2-0.6-0.4c-0.2-0.1-0.4-0.3-0.5-0.5c-0.2-0.2-0.3-0.5-0.4-0.7
								c-0.1-0.2-0.2-0.5-0.2-0.8c-0.1-0.3-0.1-0.6-0.1-0.9S40.9,81.5,41,81.1L41,81.1z M42.8,81.4c0,0.2-0.1,0.3-0.1,0.5
								c0,0.2,0,0.3,0,0.5c0,0.2,0.1,0.4,0.2,0.6c0.1,0.2,0.2,0.3,0.4,0.5c0.2,0.1,0.3,0.2,0.5,0.2c0.2,0,0.4-0.1,0.7-0.2
								c0.3-0.2,0.5-0.4,0.8-0.8c0.2-0.4,0.3-0.7,0.4-1.1s0-0.8-0.1-1.1c-0.1-0.4-0.4-0.6-0.8-0.8c-0.3,0-0.5,0-0.7,0.1
								s-0.4,0.2-0.6,0.4c-0.2,0.2-0.3,0.3-0.4,0.6C43,81,42.9,81.2,42.8,81.4z"/>
							<path fill="#B98E2F" d="M52.4,80.4v-0.2c-0.1-0.2-0.2-0.4-0.4-0.5c-0.2-0.1-0.4-0.2-0.7-0.2c-0.1,0-0.2,0.1-0.3,0.1
								c-0.1,0.1-0.2,0.1-0.2,0.2c-0.1,0.1-0.1,0.1-0.2,0.2c-0.1,0.1-0.1,0.2-0.2,0.2v4c0,0.3-0.1,0.6-0.3,0.7
								c-0.2,0.2-0.4,0.3-0.6,0.3c-0.2,0-0.4,0-0.6-0.2c-0.2-0.1-0.3-0.4-0.3-0.7c0-0.8,0-1.7,0-2.7c0-1,0-2.1,0-3.3
								c0-0.2,0.1-0.4,0.2-0.5s0.3-0.2,0.5-0.3c0.2-0.1,0.4,0,0.5,0c0.2,0.1,0.3,0.2,0.5,0.3c0.6-0.3,1.1-0.4,1.7-0.3
								c0.6,0.1,1.1,0.4,1.5,0.8c0.2-0.2,0.4-0.4,0.7-0.5s0.5-0.3,0.8-0.3c0.3-0.1,0.6,0,1,0c0.3,0.1,0.6,0.2,0.9,0.4
								c0.3,0.2,0.5,0.4,0.7,0.6c0.2,0.3,0.4,0.5,0.5,0.8C58,79.7,58,79.9,58,80v4.1c0,0.1,0,0.2,0,0.4c-0.1,0.3-0.2,0.4-0.4,0.6
								c-0.2,0.1-0.4,0.1-0.6,0.1c-0.2,0-0.4-0.1-0.5-0.3c-0.2-0.2-0.2-0.4-0.2-0.7v-4.1c-0.1-0.2-0.2-0.4-0.4-0.5
								c-0.2-0.1-0.4-0.2-0.5-0.2c-0.2,0-0.4,0.1-0.5,0.2s-0.3,0.3-0.4,0.5v4c0,0.3-0.1,0.5-0.3,0.7c-0.2,0.2-0.4,0.3-0.6,0.4
								s-0.4,0-0.6-0.1c-0.2-0.1-0.3-0.3-0.3-0.5L52.4,80.4z"/>
							<path fill="#B98E2F" d="M65,82.7c0.2-0.1,0.5-0.1,0.6,0c0.2,0.1,0.3,0.2,0.4,0.3c0.1,0.1,0.1,0.3,0.1,0.5
								c0,0.2-0.1,0.4-0.3,0.6c-0.1,0.2-0.3,0.3-0.5,0.4c-0.2,0.1-0.5,0.2-0.7,0.3c-0.5,0.2-1,0.3-1.4,0.4c-0.4,0.1-0.9,0.1-1.3,0
								c-0.4-0.1-0.8-0.2-1.1-0.4s-0.7-0.5-1-0.9c-0.2-0.3-0.4-0.6-0.4-0.9c-0.1-0.4-0.1-0.7-0.2-1.1c0-0.4,0-0.7,0.1-1.1
								c0.1-0.4,0.2-0.7,0.3-1c0.2-0.4,0.4-0.7,0.8-1c0.4-0.3,0.8-0.5,1.2-0.7c0.5-0.2,0.9-0.3,1.4-0.3c0.5,0,0.9,0,1.3,0.2
								c0.3,0.1,0.6,0.3,0.8,0.6c0.2,0.3,0.4,0.6,0.4,0.9c0.1,0.3,0.1,0.6,0,1c-0.1,0.3-0.2,0.6-0.5,0.9c-0.3,0.3-0.5,0.5-0.8,0.6
								c-0.3,0.2-0.6,0.3-0.9,0.4c-0.3,0.1-0.7,0.2-1,0.3c-0.3,0.1-0.7,0.2-1,0.3c0.2,0.2,0.5,0.4,0.7,0.5c0.3,0.1,0.6,0.1,0.9,0
								c0.3,0,0.6-0.1,0.9-0.3C64.4,83,64.7,82.9,65,82.7L65,82.7z M61.9,80.1c-0.2,0.1-0.4,0.3-0.5,0.5c-0.1,0.2-0.2,0.5-0.2,0.8
								c0.3-0.1,0.6-0.2,0.9-0.3c0.3-0.1,0.6-0.2,0.9-0.3c0.3-0.1,0.5-0.2,0.7-0.3c0.2-0.1,0.3-0.3,0.3-0.4c0-0.1,0-0.2,0-0.2
								c0-0.1-0.1-0.1-0.2-0.2c-0.3-0.1-0.6-0.1-0.9-0.1c-0.3,0.1-0.6,0.1-0.8,0.3L61.9,80.1z"/>
						</g>
					</g>
					<g>

							<rect x="22.7" y="95.2" fill="#231F20" stroke="#515251" stroke-width="1.1478" stroke-miterlimit="10" width="54.3" height="34.6"/>
					</g>
				</g>
				<g>
					<g>

							<rect x="183.5" y="71.1" fill="#231F20" stroke="#515251" stroke-width="1.1478" stroke-miterlimit="10" width="54.3" height="18.6"/>
						<g>
							<path fill="#B98E2F" d="M197.1,79.1c0.2,0.1,0.4,0.2,0.5,0.3c0.1,0.1,0.2,0.3,0.3,0.5c0,0.2,0,0.3,0,0.5
								c-0.1,0.2-0.2,0.3-0.4,0.5c0,0,0,0.2,0,0.4c0,0.2,0,0.5,0,0.8c0,0.3,0,0.6,0,0.9c0,0.3-0.1,0.5-0.1,0.7
								c-0.1,0.1-0.2,0.3-0.3,0.4c-0.1,0.1-0.2,0.2-0.3,0.3c-0.4,0.3-0.8,0.6-1.2,0.7c-0.4,0.2-0.9,0.3-1.3,0.3
								c-0.5,0-0.9,0-1.4-0.1c-0.5-0.1-0.9-0.3-1.3-0.6c-0.5-0.3-1-0.8-1.4-1.3c-0.4-0.5-0.6-1.1-0.8-1.7c-0.1-0.4-0.2-0.8-0.2-1.2
								c0-0.4,0-0.9,0.1-1.3s0.2-0.8,0.4-1.2c0.2-0.4,0.4-0.7,0.7-1c0.3-0.4,0.7-0.7,1.1-0.9c0.4-0.2,0.9-0.4,1.3-0.6
								c0.3-0.1,0.7-0.3,1.1-0.3c0.4-0.1,0.7-0.1,1.1-0.1c0.3,0,0.6,0.1,0.9,0.1c0.3,0.1,0.6,0.2,0.9,0.4c0.1,0.1,0.2,0.2,0.3,0.3
								c0.1,0.1,0.1,0.3,0.1,0.4c0,0.1,0,0.3-0.1,0.4c-0.1,0.1-0.1,0.2-0.3,0.3c-0.1,0.1-0.3,0.2-0.4,0.2c-0.1,0-0.3,0-0.5,0
								c-0.2,0-0.3-0.1-0.5-0.1c-0.2-0.1-0.3-0.1-0.4-0.2c-0.1,0-0.2-0.1-0.4-0.1c-0.1,0-0.3,0-0.4,0c-0.4,0.1-0.7,0.2-1.1,0.4
								c-0.4,0.1-0.7,0.3-1,0.5c-0.3,0.2-0.6,0.5-0.8,0.8c-0.2,0.3-0.4,0.7-0.4,1.1c-0.1,0.5-0.1,1,0.1,1.6c0.1,0.5,0.4,1,0.7,1.4
								c0.2,0.3,0.5,0.5,0.8,0.6c0.3,0.2,0.6,0.3,1,0.3c0.3,0,0.7,0,1-0.1c0.3-0.1,0.6-0.3,0.9-0.5V81c-0.2,0-0.4,0-0.6,0.1
								c-0.2,0-0.4,0-0.7,0c-0.2,0-0.4,0-0.6,0c-0.2,0-0.4-0.1-0.6-0.2c-0.2-0.1-0.3-0.2-0.4-0.4c-0.1-0.2-0.1-0.3-0.1-0.5
								c0-0.2,0.1-0.3,0.2-0.5c0.1-0.1,0.3-0.2,0.5-0.3c0.1,0,0.2,0,0.3,0c0.1,0,0.3,0,0.4,0c0.1,0,0.3,0,0.4,0c0.1,0,0.2,0,0.3,0
								c0.4,0,0.8,0,1.2,0C196.3,79.1,196.7,79.1,197.1,79.1z"/>
							<path fill="#B98E2F" d="M205.7,83.4c0.1,0.1,0.1,0.3,0.2,0.5c0,0.2,0,0.4-0.1,0.5c-0.1,0.2-0.1,0.3-0.3,0.4
								c-0.1,0.1-0.3,0.1-0.5,0.1c-0.3,0-0.5-0.1-0.6-0.3c-0.2-0.2-0.3-0.4-0.5-0.6c-0.4,0.3-0.8,0.6-1.2,0.7
								c-0.4,0.1-0.8,0.2-1.3,0.1c-0.4-0.1-0.8-0.2-1.2-0.5c-0.4-0.3-0.7-0.6-0.9-1.1c-0.2-0.4-0.4-0.9-0.4-1.4c0-0.5,0-1,0-1.5
								c0-0.2,0-0.3,0-0.5c0-0.2,0-0.3,0-0.5c0-0.1,0-0.3,0-0.4c0-0.1,0-0.2,0-0.4c0-0.1,0-0.2,0.1-0.3s0.1-0.2,0.2-0.3
								c0.1-0.1,0.3-0.2,0.4-0.2c0.2,0,0.3,0,0.5,0.1c0.2,0.1,0.3,0.2,0.4,0.3c0.1,0.1,0.2,0.3,0.2,0.5c0,0.5,0,1.1,0,1.6
								c0,0.5,0,1.1,0,1.6c0,0.2,0.1,0.5,0.2,0.8c0.1,0.3,0.3,0.4,0.5,0.6c0.2,0.1,0.5,0.1,0.7,0c0.2-0.1,0.4-0.3,0.6-0.4
								c0.1-0.1,0.1-0.2,0.2-0.3c0.1-0.1,0.1-0.2,0.2-0.3c0-0.4-0.1-0.7-0.1-1.1c0-0.4,0-0.7,0-1.1c0-0.2,0-0.4,0-0.6
								c0-0.2,0.1-0.5,0.1-0.7c0.1-0.2,0.2-0.4,0.3-0.6c0.1-0.2,0.3-0.3,0.6-0.3c0.1,0,0.2,0,0.3,0c0.1,0,0.2,0.1,0.3,0.2
								c0.1,0.1,0.2,0.3,0.3,0.4s0.1,0.3,0.1,0.5c0,0.2,0,0.4,0,0.5c0,0.2,0,0.3-0.1,0.5c0,0.3,0,0.6,0,0.9c0,0.3,0,0.6,0,1
								c0,0.3,0.1,0.6,0.2,0.9C205.3,82.9,205.5,83.2,205.7,83.4z"/>
							<path fill="#B98E2F" d="M212.3,82.6c0.2-0.1,0.5-0.1,0.7,0c0.2,0.1,0.3,0.2,0.4,0.3c0.1,0.1,0.1,0.3,0.1,0.5
								c0,0.2-0.1,0.4-0.3,0.6c-0.1,0.2-0.3,0.3-0.6,0.4c-0.2,0.1-0.5,0.2-0.7,0.3c-0.5,0.2-1,0.3-1.4,0.4c-0.5,0.1-0.9,0.1-1.3,0
								c-0.4-0.1-0.8-0.2-1.1-0.4c-0.3-0.2-0.7-0.5-1-1c-0.2-0.3-0.4-0.6-0.5-1c-0.1-0.4-0.2-0.7-0.2-1.1c0-0.4,0-0.7,0.1-1.1
								c0.1-0.4,0.2-0.7,0.3-1c0.2-0.4,0.5-0.7,0.8-1c0.4-0.3,0.8-0.5,1.3-0.7c0.5-0.2,0.9-0.3,1.4-0.3c0.5,0,0.9,0,1.3,0.2
								c0.3,0.1,0.6,0.4,0.8,0.6c0.2,0.3,0.4,0.6,0.5,0.9c0.1,0.3,0.1,0.6,0,1c-0.1,0.3-0.2,0.6-0.5,0.9c-0.3,0.3-0.5,0.5-0.9,0.6
								c-0.3,0.2-0.6,0.3-1,0.4c-0.3,0.1-0.7,0.2-1,0.3c-0.3,0.1-0.7,0.2-1,0.3c0.2,0.2,0.5,0.4,0.7,0.5c0.3,0.1,0.6,0.1,0.9,0
								c0.3,0,0.6-0.1,0.9-0.3C211.6,82.9,211.9,82.8,212.3,82.6L212.3,82.6z M209.1,79.9c-0.2,0.1-0.4,0.3-0.5,0.5
								c-0.1,0.2-0.2,0.5-0.2,0.8c0.3-0.1,0.6-0.2,0.9-0.3c0.3-0.1,0.7-0.2,1-0.3c0.3-0.1,0.6-0.2,0.8-0.3c0.2-0.1,0.3-0.3,0.3-0.4
								c0-0.1,0-0.2,0-0.2c0-0.1-0.1-0.1-0.2-0.2c-0.3-0.1-0.6-0.1-0.9-0.1c-0.3,0.1-0.6,0.1-0.8,0.3L209.1,79.9z"/>
							<path fill="#B98E2F" d="M214.3,83.6c-0.1-0.2-0.1-0.3-0.1-0.5c0-0.2,0.1-0.3,0.1-0.5c0.1-0.1,0.2-0.2,0.3-0.3
								c0.1-0.1,0.3-0.1,0.5-0.1c0.1,0,0.2,0,0.3,0.1c0.1,0.1,0.2,0.1,0.3,0.2c0.1,0.1,0.2,0.1,0.2,0.2c0.1,0.1,0.2,0.2,0.2,0.2
								c0.2,0.1,0.4,0.2,0.6,0.3c0.2,0.1,0.4,0.1,0.6,0.1c0.1,0,0.3,0,0.3-0.1c0.1-0.1,0.1-0.2,0.2-0.3c0-0.1,0-0.2,0-0.3
								c0-0.1-0.1-0.2-0.1-0.3c-0.2-0.2-0.4-0.3-0.6-0.3c-0.3-0.1-0.5-0.1-0.7-0.2c-0.3-0.1-0.6-0.2-0.9-0.4
								c-0.3-0.2-0.5-0.4-0.7-0.7c-0.2-0.3-0.3-0.6-0.3-0.9c0-0.3,0-0.6,0.1-1c0.1-0.3,0.2-0.6,0.4-0.9c0.2-0.3,0.5-0.5,0.7-0.6
								c0.2-0.1,0.5-0.2,0.7-0.2c0.3,0,0.5,0,0.8,0c0.3,0,0.5,0.1,0.8,0.1c0.3,0.1,0.5,0.2,0.7,0.3c0.2,0.1,0.4,0.3,0.6,0.5
								c0.1,0.2,0.2,0.4,0.2,0.6c0,0.2-0.1,0.4-0.2,0.5c-0.1,0.2-0.3,0.2-0.6,0.2c-0.2,0-0.3,0-0.4-0.1c-0.1-0.1-0.3-0.1-0.4-0.2
								c-0.2-0.1-0.4-0.1-0.6-0.1c-0.2,0-0.4,0-0.5,0c0,0-0.1,0-0.1,0.1c-0.1,0.1-0.1,0.1-0.1,0.2c0,0.1,0,0.2,0,0.2
								c0,0.1,0.1,0.1,0.2,0.2c0.2,0.1,0.5,0.2,0.8,0.3c0.3,0.1,0.6,0.2,0.8,0.2c0.3,0.1,0.5,0.2,0.7,0.4c0.2,0.1,0.4,0.4,0.6,0.6
								c0.2,0.4,0.3,0.8,0.3,1.2c0,0.4-0.1,0.8-0.3,1.2c-0.2,0.4-0.4,0.7-0.8,1c-0.3,0.3-0.7,0.4-1.2,0.5c-0.3,0-0.6,0-0.9-0.1
								c-0.3-0.1-0.6-0.2-0.9-0.3c-0.3-0.1-0.6-0.3-0.8-0.5C214.8,84.1,214.5,83.9,214.3,83.6L214.3,83.6z"/>
							<path fill="#B98E2F" d="M221.5,79.5c-0.2-0.1-0.4-0.1-0.5-0.3c-0.1-0.1-0.3-0.3-0.3-0.4c-0.1-0.2-0.1-0.3,0-0.5
								c0.1-0.2,0.2-0.3,0.4-0.5c0.2-0.1,0.4-0.2,0.6-0.2c0.2,0,0.4,0,0.6,0c0-0.1,0-0.2,0-0.5c0-0.2,0-0.5,0-0.8
								c0-0.3,0-0.6,0.1-0.8c0-0.3,0.1-0.4,0.2-0.5c0.2-0.3,0.5-0.4,0.8-0.4c0.3,0,0.6,0.2,0.7,0.4c0,0.1,0.1,0.1,0.1,0.2
								c0,0.1,0.1,0.1,0.1,0.2c0,0.4,0,0.7,0,1.1c0,0.4,0,0.7,0,1.1h1.2c0.2,0,0.3,0.1,0.5,0.2c0.1,0.1,0.2,0.3,0.3,0.4
								c0.1,0.2,0.1,0.3,0,0.5c0,0.2-0.1,0.3-0.2,0.4c-0.2,0.2-0.5,0.3-0.8,0.3c-0.3,0-0.6,0-1,0c0,0.6,0,1.1,0,1.7
								c0,0.6,0,1.1,0,1.7c0,0.2,0,0.5,0,0.8c0,0.3,0,0.5-0.1,0.7c-0.1,0.2-0.1,0.3-0.3,0.4c-0.1,0.1-0.3,0.2-0.4,0.2
								c-0.2,0-0.3,0-0.5,0c-0.2,0-0.3-0.1-0.5-0.3c-0.1-0.1-0.1-0.2-0.2-0.4c0-0.2-0.1-0.4-0.1-0.6c0-0.2,0-0.5,0-0.7
								c0-0.2,0-0.5,0-0.8c0-0.3,0-0.7,0-1s0-0.7,0-1c0-0.3,0-0.6,0-0.8L221.5,79.5z"/>
							<path fill="#B98E2F" d="M226.7,83.6c-0.1-0.2-0.1-0.3-0.1-0.5c0-0.2,0.1-0.3,0.1-0.5c0.1-0.1,0.2-0.2,0.3-0.3
								c0.1-0.1,0.3-0.1,0.5-0.1c0.1,0,0.2,0,0.3,0.1c0.1,0.1,0.2,0.1,0.3,0.2c0.1,0.1,0.2,0.1,0.2,0.2c0.1,0.1,0.2,0.2,0.2,0.2
								c0.2,0.1,0.4,0.2,0.6,0.3c0.2,0.1,0.4,0.1,0.6,0.1c0.1,0,0.3,0,0.3-0.1c0.1-0.1,0.1-0.2,0.2-0.3c0-0.1,0-0.2,0-0.3
								c0-0.1-0.1-0.2-0.1-0.3c-0.2-0.2-0.4-0.3-0.6-0.3c-0.3-0.1-0.5-0.1-0.7-0.2c-0.3-0.1-0.6-0.2-0.9-0.4
								c-0.3-0.2-0.5-0.4-0.7-0.7c-0.2-0.3-0.3-0.6-0.3-0.9s0-0.6,0.1-1c0.1-0.3,0.2-0.6,0.4-0.9c0.2-0.3,0.5-0.5,0.7-0.6
								c0.2-0.1,0.5-0.2,0.7-0.2c0.3,0,0.5,0,0.8,0c0.3,0,0.5,0.1,0.8,0.1c0.3,0.1,0.5,0.2,0.7,0.3c0.2,0.1,0.4,0.3,0.6,0.5
								c0.1,0.2,0.2,0.4,0.2,0.6c0,0.2-0.1,0.4-0.2,0.5c-0.1,0.2-0.3,0.2-0.6,0.2c-0.2,0-0.3,0-0.4-0.1c-0.1-0.1-0.3-0.1-0.4-0.2
								c-0.2-0.1-0.4-0.1-0.6-0.1c-0.2,0-0.4,0-0.5,0c0,0-0.1,0-0.1,0.1c-0.1,0.1-0.1,0.1-0.1,0.2c0,0.1,0,0.2,0,0.2
								c0,0.1,0.1,0.1,0.2,0.2c0.2,0.1,0.5,0.2,0.8,0.3c0.3,0.1,0.6,0.2,0.8,0.2c0.3,0.1,0.5,0.2,0.7,0.4c0.2,0.1,0.4,0.4,0.6,0.6
								c0.2,0.4,0.3,0.8,0.3,1.2c0,0.4-0.1,0.8-0.3,1.2s-0.4,0.7-0.8,1c-0.3,0.3-0.7,0.4-1.2,0.5c-0.3,0-0.6,0-0.9-0.1
								c-0.3-0.1-0.6-0.2-0.9-0.3c-0.3-0.1-0.6-0.3-0.8-0.5C227.1,84.1,226.9,83.9,226.7,83.6L226.7,83.6z"/>
						</g>
					</g>
					<g>

							<rect x="183.5" y="95.2" fill="#231F20" stroke="#515251" stroke-width="1.1478" stroke-miterlimit="10" width="54.3" height="34.6"/>
					</g>
				</g>
			</g>
			<g>
				<g>
					<g>
						<path fill="#F1F1F2" d="M97.9,130.8c0-0.1,0.1-0.2,0.2-0.3c0.1-0.1,0.2-0.2,0.3-0.3c0.1-0.1,0.2-0.1,0.3-0.2
							c0.1,0,0.2,0,0.4,0c0.4-0.2,0.8-0.3,1.2-0.4c0.4-0.1,0.8-0.2,1.2-0.2c0.4,0,0.8,0,1.2,0.1c0.4,0.1,0.7,0.2,1.1,0.5
							c0.3,0.2,0.5,0.4,0.8,0.7c0.2,0.3,0.4,0.6,0.5,0.9c0.2,0.5,0.4,1.1,0.3,1.6c0,0.5-0.1,1-0.4,1.5c-0.2,0.5-0.6,0.9-1,1.2
							c-0.4,0.4-0.9,0.6-1.5,0.8c-0.4,0.1-0.9,0.2-1.3,0.2c-0.4,0-0.9,0-1.3-0.1v1.5c0,0.1,0,0.2,0,0.4c0,0.1,0,0.2,0,0.4
							c0,0.1,0,0.2,0,0.4c0,0.1-0.1,0.2-0.1,0.3c-0.1,0.2-0.3,0.3-0.5,0.4c-0.2,0-0.4,0-0.6,0c-0.2-0.1-0.3-0.2-0.5-0.3
							c-0.1-0.2-0.2-0.3-0.2-0.6v-2.7c-0.2-0.1-0.3-0.2-0.4-0.4c-0.1-0.2-0.1-0.3-0.1-0.5c0-0.2,0.1-0.3,0.2-0.4
							c0.1-0.1,0.2-0.3,0.4-0.4L97.9,130.8L97.9,130.8z M102.3,131.5c-0.4-0.2-0.9-0.2-1.3-0.2c-0.4,0.1-0.9,0.2-1.3,0.4v3.3
							c0.5,0.1,1,0.1,1.5,0.1c0.5,0,1-0.2,1.4-0.5c0.3-0.2,0.5-0.4,0.6-0.7c0.1-0.3,0.2-0.6,0.1-0.9c0-0.3-0.1-0.6-0.3-0.9
							C102.8,131.8,102.6,131.6,102.3,131.5z"/>
						<path fill="#F1F1F2" d="M111.2,137.3c0.2-0.1,0.5-0.1,0.6,0c0.2,0.1,0.3,0.2,0.4,0.3c0.1,0.1,0.1,0.3,0.1,0.5
							c0,0.2-0.1,0.4-0.3,0.6c-0.1,0.2-0.3,0.3-0.5,0.4c-0.2,0.1-0.5,0.2-0.7,0.3c-0.5,0.2-1,0.3-1.4,0.4c-0.4,0.1-0.9,0.1-1.3,0
							c-0.4-0.1-0.8-0.2-1.1-0.4s-0.7-0.5-1-0.9c-0.2-0.3-0.4-0.6-0.4-0.9c-0.1-0.4-0.1-0.7-0.2-1.1c0-0.4,0-0.7,0.1-1.1
							s0.2-0.7,0.3-1c0.2-0.4,0.4-0.7,0.8-1c0.4-0.3,0.8-0.5,1.2-0.7s0.9-0.3,1.4-0.3c0.5,0,0.9,0,1.3,0.2c0.3,0.1,0.6,0.3,0.8,0.6
							c0.2,0.3,0.4,0.6,0.4,0.9c0.1,0.3,0.1,0.6,0,1c-0.1,0.3-0.2,0.6-0.5,0.9c-0.3,0.3-0.5,0.5-0.8,0.6c-0.3,0.2-0.6,0.3-0.9,0.4
							c-0.3,0.1-0.7,0.2-1,0.3c-0.3,0.1-0.7,0.2-1,0.3c0.2,0.2,0.5,0.4,0.7,0.5c0.3,0.1,0.6,0.1,0.9,0c0.3,0,0.6-0.1,0.9-0.3
							C110.6,137.7,110.9,137.5,111.2,137.3L111.2,137.3z M108.2,134.7c-0.2,0.1-0.4,0.3-0.5,0.5c-0.1,0.2-0.2,0.5-0.2,0.8
							c0.3-0.1,0.6-0.2,0.9-0.3c0.3-0.1,0.6-0.2,0.9-0.3c0.3-0.1,0.5-0.2,0.7-0.3c0.2-0.1,0.3-0.3,0.3-0.4c0-0.1,0-0.2,0-0.2
							c0-0.1-0.1-0.1-0.2-0.2c-0.3-0.1-0.6-0.1-0.9-0.1c-0.3,0.1-0.6,0.1-0.8,0.3L108.2,134.7z"/>
						<path fill="#F1F1F2" d="M114,134.7c0-0.1,0-0.2,0-0.4c-0.2-0.1-0.3-0.2-0.4-0.4c-0.1-0.1-0.1-0.3-0.2-0.5c0-0.2,0-0.3,0.1-0.5
							c0.1-0.1,0.2-0.3,0.4-0.4c0.2-0.1,0.5-0.2,0.8-0.1c0.3,0.1,0.5,0.2,0.7,0.4c0.3-0.2,0.5-0.4,0.8-0.5c0.3-0.1,0.6-0.2,0.8-0.3
							c0.3,0,0.6,0,0.9,0c0.3,0.1,0.6,0.2,0.9,0.4c0.1,0.1,0.3,0.2,0.4,0.3c0.1,0.1,0.2,0.3,0.2,0.5c0.1,0.3,0,0.5-0.1,0.7
							c-0.1,0.2-0.2,0.3-0.4,0.4c-0.2,0.1-0.3,0.1-0.5,0.1c-0.2,0-0.4-0.1-0.6-0.3c-0.1,0-0.1-0.1-0.1-0.1c0,0-0.1-0.1-0.2-0.1
							c-0.2,0-0.3,0-0.5,0c-0.2,0.1-0.3,0.1-0.5,0.3s-0.3,0.2-0.4,0.4c-0.1,0.1-0.2,0.2-0.3,0.3v3.9c0,0.2,0,0.3-0.1,0.4
							c-0.1,0.2-0.2,0.4-0.4,0.5c-0.2,0.1-0.4,0.1-0.6,0.1c-0.2,0-0.4-0.1-0.5-0.3c-0.1-0.2-0.2-0.4-0.2-0.6L114,134.7
							C114,134.7,114,134.7,114,134.7z"/>
						<path fill="#F1F1F2" d="M120.3,130.3c0-0.4,0.2-0.7,0.4-0.8c0.2-0.2,0.4-0.3,0.7-0.3c0.2,0,0.5,0.1,0.7,0.3s0.3,0.4,0.3,0.8
							c0,0.3-0.1,0.6-0.3,0.8c-0.2,0.2-0.4,0.3-0.7,0.3c-0.3,0-0.5,0-0.7-0.2c-0.2-0.2-0.4-0.4-0.4-0.8L120.3,130.3z M122.3,138.9
							c0,0.2-0.1,0.4-0.2,0.5c-0.1,0.2-0.3,0.3-0.4,0.3c-0.2,0.1-0.3,0.1-0.5,0c-0.2,0-0.3-0.2-0.5-0.3c-0.1-0.1-0.1-0.2-0.2-0.3
							c0-0.1-0.1-0.3-0.1-0.4c0-0.1,0-0.3,0-0.4c0-0.1,0-0.3,0-0.4c0-0.6,0-1.2,0-1.8c0-0.6,0-1.2,0-1.8c0-0.2,0-0.5,0-0.7
							c0-0.2,0-0.5,0-0.7c0.1-0.2,0.1-0.3,0.3-0.5c0.1-0.1,0.3-0.2,0.4-0.3c0.2-0.1,0.3-0.1,0.5,0c0.2,0,0.3,0.1,0.4,0.3
							c0.2,0.2,0.2,0.4,0.2,0.6c0,0.2,0,0.4,0,0.7c0,0.3,0,0.7,0,1c0,0.3,0,0.7,0,1c0,0.5,0,1,0,1.5c0,0.5,0,1,0,1.5V138.9z"/>
						<path fill="#F1F1F2" d="M123.8,135.7c0.1-0.3,0.2-0.6,0.3-0.9c0.1-0.3,0.3-0.6,0.5-0.8c0.2-0.3,0.4-0.5,0.6-0.7
							c0.2-0.2,0.5-0.4,0.7-0.5c0.5-0.2,0.9-0.4,1.4-0.4c0.5,0,0.9,0.1,1.3,0.3s0.8,0.5,1,0.9c0.3,0.4,0.5,0.8,0.6,1.4
							c0.1,0.3,0.1,0.7,0.1,1c0,0.3,0,0.6-0.1,1c-0.1,0.5-0.3,1-0.6,1.4c-0.3,0.5-0.7,0.9-1.1,1.2c-0.4,0.3-0.9,0.5-1.4,0.6
							c-0.5,0.1-1,0-1.5-0.2c-0.2-0.1-0.4-0.2-0.6-0.4c-0.2-0.1-0.4-0.3-0.5-0.5c-0.2-0.2-0.3-0.5-0.4-0.7c-0.1-0.2-0.2-0.5-0.2-0.8
							c-0.1-0.3-0.1-0.6-0.1-0.9C123.7,136.4,123.7,136.1,123.8,135.7L123.8,135.7z M125.6,136c0,0.2-0.1,0.3-0.1,0.5
							c0,0.2,0,0.3,0,0.5c0,0.2,0.1,0.4,0.2,0.6c0.1,0.2,0.2,0.3,0.4,0.5c0.2,0.1,0.3,0.2,0.5,0.2c0.2,0,0.4-0.1,0.7-0.2
							c0.3-0.2,0.5-0.4,0.8-0.8c0.2-0.4,0.3-0.7,0.4-1.1c0.1-0.4,0-0.8-0.1-1.1c-0.1-0.4-0.4-0.6-0.8-0.8c-0.3,0-0.5,0-0.7,0.1
							s-0.4,0.2-0.6,0.4c-0.2,0.2-0.3,0.3-0.4,0.6S125.7,135.8,125.6,136z"/>
						<path fill="#F1F1F2" d="M138.4,138.1c0.2,0.3,0.2,0.6,0.2,0.8c-0.1,0.2-0.2,0.4-0.3,0.5c-0.2,0.1-0.4,0.2-0.6,0.1
							c-0.2,0-0.5-0.2-0.7-0.4c-0.2,0.2-0.5,0.3-0.8,0.4c-0.3,0.1-0.5,0.2-0.8,0.3c-0.5,0.1-0.9,0.1-1.3,0c-0.4-0.1-0.8-0.3-1.1-0.6
							c-0.3-0.3-0.6-0.6-0.8-1c-0.2-0.4-0.3-0.8-0.3-1.3c0-0.5,0-1,0.1-1.5c0.1-0.5,0.3-0.9,0.5-1.3c0.2-0.4,0.5-0.7,0.9-1
							c0.4-0.3,0.8-0.5,1.3-0.6c0.3-0.1,0.6-0.1,0.9-0.1c0.3,0,0.6,0,0.9,0.1c0-0.2,0-0.5,0-0.8c0-0.3,0-0.6,0-0.8
							c0-0.3,0-0.5,0-0.7c0-0.2,0-0.4,0.1-0.5c0.1-0.2,0.2-0.3,0.3-0.4c0.1-0.1,0.3-0.1,0.5-0.2c0.2,0,0.3,0,0.5,0.1
							c0.2,0.1,0.3,0.2,0.4,0.4c0,0.1,0,0.1,0.1,0.1c0,0,0,0.1,0,0.1c0,1.3,0,2.6,0,3.9c0,1.3,0,2.6,0,3.9
							C138.3,138.1,138.3,138.1,138.4,138.1z M136.3,137.3c0,0,0.1-0.1,0.1-0.1c0.1,0,0.1-0.1,0.1-0.1c0-0.4,0-0.8,0-1.3
							c0-0.4,0-0.8,0-1.3c-0.2-0.1-0.5-0.1-0.8-0.1c-0.3,0-0.5,0-0.8,0.1c-0.2,0.1-0.5,0.2-0.7,0.3c-0.2,0.1-0.4,0.3-0.5,0.6
							c-0.1,0.2-0.1,0.4-0.2,0.6c-0.1,0.2-0.1,0.4-0.1,0.6c0,0.2,0,0.4,0.1,0.5c0.1,0.2,0.1,0.3,0.3,0.5c0,0,0.1,0.1,0.1,0.1
							c0.1,0,0.2,0.1,0.3,0.2c0.4,0,0.7,0,1.1-0.1C135.7,137.8,136,137.6,136.3,137.3z"/>
					</g>

						<rect x="146.6" y="122.2" fill="#231F20" stroke="#515251" stroke-width="1.1478" stroke-miterlimit="10" width="16.9" height="24.6"/>
				</g>
				<g>

						<rect x="83.2" y="71.4" fill="#231F20" stroke="#515251" stroke-width="1.1478" stroke-miterlimit="10" width="94.1" height="34.1"/>
				</g>
			</g>
		</g>
	</g>
	<g>
		<path fill="#F7B617" stroke="#FCD356" stroke-width="0.988" stroke-miterlimit="10" d="M44.2,105.8c0-2.5-0.9-3.2-2.3-3.2
			s-2.3,0.8-2.3,2.7v1.8h-4.1v-1.5c0-4.4,2.2-7,6.5-7s6.5,2.5,6.5,7v0.7c0,3-1,4.8-3.1,5.7c2.2,1,3.1,3,3.1,5.8v2.2
			c0,4.4-2.2,7-6.5,7s-6.5-2.5-6.5-7v-2.3h4.1v2.6c0,2,0.9,2.7,2.3,2.7s2.3-0.7,2.3-3.1v-2.2c0-2.6-0.9-3.5-2.9-3.5h-1.5v-4h1.7
			c1.6,0,2.6-0.7,2.6-2.9V105.8z"/>
		<path fill="#F7B617" stroke="#FCD356" stroke-width="0.988" stroke-miterlimit="10" d="M55.5,117.8v2.6c0,2,0.9,2.7,2.3,2.7
			s2.3-0.7,2.3-2.7v-6.1c0-2-0.9-2.7-2.3-2.7s-2.3,0.8-2.3,2.7v0.8h-4.1L52.1,99h11.5v4h-7.6l-0.4,6.6c0.8-1.3,2.1-2,3.8-2
			c3.2,0,4.8,2.3,4.8,6.4v6.2c0,4.4-2.2,7-6.5,7c-4.3,0-6.5-2.5-6.5-7v-2.3H55.5z"/>
	</g>
	<g>
		<path fill="#F7B617" stroke="#FCD356" stroke-width="0.988" stroke-miterlimit="10" d="M205.3,105.8c0-2.5-0.9-3.2-2.3-3.2
			c-1.4,0-2.3,0.8-2.3,2.7v1.8h-4.1v-1.5c0-4.4,2.2-7,6.5-7c4.3,0,6.5,2.5,6.5,7v0.7c0,3-1,4.8-3.1,5.7c2.2,1,3.1,3,3.1,5.8v2.2
			c0,4.4-2.2,7-6.5,7c-4.3,0-6.5-2.5-6.5-7v-2.3h4.1v2.6c0,2,0.9,2.7,2.3,2.7c1.4,0,2.3-0.7,2.3-3.1v-2.2c0-2.6-0.9-3.5-2.9-3.5
			h-1.5v-4h1.7c1.6,0,2.6-0.7,2.6-2.9V105.8z"/>
		<path fill="#F7B617" stroke="#FCD356" stroke-width="0.988" stroke-miterlimit="10" d="M216.5,117.8v2.6c0,2,0.9,2.7,2.3,2.7
			s2.3-0.7,2.3-2.7v-6.1c0-2-0.9-2.7-2.3-2.7s-2.3,0.8-2.3,2.7v0.8h-4.1l0.8-16.1h11.5v4h-7.6l-0.4,6.6c0.8-1.3,2.1-2,3.8-2
			c3.2,0,4.8,2.3,4.8,6.4v6.2c0,4.4-2.2,7-6.5,7c-4.3,0-6.5-2.5-6.5-7v-2.3H216.5z"/>
	</g>
	<g>
		<path fill="#F6921E" d="M154.8,128.6c-0.8,0-1.3,0.4-1.3,1.5v1.7h-2.3v-1.5c0-2.5,1.2-3.9,3.6-3.9c2.4,0,3.6,1.4,3.6,3.9
			c0,5.1-5.3,6.8-4.8,9.5h4.6v2.2h-7v-1.9c0-4.5,4.8-5.3,4.8-9.8C156.1,128.9,155.6,128.6,154.8,128.6z"/>
	</g>
	<g>
		<path fill="#D92253" d="M119.1,91.3v2.1c0,1.6,0.7,2.2,1.8,2.2c1.1,0,1.8-0.6,1.8-2.2v-5c0-1.6-0.7-2.2-1.8-2.2
			c-1.1,0-1.8,0.6-1.8,2.2v0.7h-3.4l0.6-13.1h9.4v3.2h-6.2l-0.3,5.4c0.6-1.1,1.7-1.6,3.1-1.6c2.6,0,3.9,1.8,3.9,5.2v5
			c0,3.6-1.8,5.7-5.3,5.7c-3.5,0-5.3-2.1-5.3-5.7v-1.9H119.1z"/>
		<path fill="#D92253" d="M134.7,94.4v3.4h-3.4v-3.4H134.7z"/>
		<path fill="#D92253" d="M138.7,78.9c2.7,0,3.4-1.3,3.9-2.8h2.4v22.6h-3.6V81.4h-2.7V78.9z"/>
	</g>
</g>
</svg>
