<?xml version="1.0" encoding="utf-8"?>
<!-- Generator: Adobe Illustrator 18.1.1, SVG Export Plug-In . SVG Version: 6.00 Build 0)  -->
<svg version="1.1" id="Layer_1" xmlns="http://www.w3.org/2000/svg" xmlns:xlink="http://www.w3.org/1999/xlink" x="0px" y="0px"
	 viewBox="0 0 500 500" enable-background="new 0 0 500 500" xml:space="preserve">
<symbol  id="New_Symbol" viewBox="-24.3 -21 48.5 42.1">
	<path fill="#FFF100" stroke="#D6DE23" stroke-width="1.1665" stroke-miterlimit="10" d="M19,20.2c8.2-11.7,5.3-27.9-6.5-36
		c-11.7-8.2-27.9-5.3-36,6.5L19,20.2z"/>
	<path fill="#FFF100" stroke="#D6DE23" stroke-width="1.1665" stroke-miterlimit="10" d="M14.1,16.8c6.3-9,4.1-21.4-5-27.7
		c-9-6.3-21.4-4.1-27.7,5L14.1,16.8z"/>
	<path fill="#FFF100" stroke="#D6DE23" stroke-width="1.1665" stroke-miterlimit="10" d="M2.2,8.5C3.9,6.1,3.3,2.7,0.9,1
		c-2.5-1.7-5.8-1.1-7.5,1.4L2.2,8.5z"/>
	<line fill="#FFF100" stroke="#D6DE23" stroke-width="1.1665" stroke-miterlimit="10" x1="0.6" y1="0.8" x2="8.9" y2="-11"/>
	<line fill="#FFF100" stroke="#D6DE23" stroke-width="1.1665" stroke-miterlimit="10" x1="3.2" y1="5.1" x2="17.4" y2="2.6"/>
	<line fill="#FFF100" stroke="#D6DE23" stroke-width="1.1665" stroke-miterlimit="10" x1="-4.5" y1="0.9" x2="-7.1" y2="-13.4"/>
	<line fill="#FFF100" stroke="#D6DE23" stroke-width="1.1665" stroke-miterlimit="10" x1="-6.2" y1="1.2" x2="-15.1" y2="-10.2"/>
	<line fill="#FFF100" stroke="#D6DE23" stroke-width="1.1665" stroke-miterlimit="10" x1="2.9" y1="7.8" x2="16.7" y2="12.2"/>
	<line fill="#FFF100" stroke="#D6DE23" stroke-width="1.1665" stroke-miterlimit="10" x1="-1.6" y1="0.3" x2="1" y2="-13.9"/>
	<line fill="#FFF100" stroke="#D6DE23" stroke-width="1.1665" stroke-miterlimit="10" x1="2.2" y1="2.2" x2="14.7" y2="-5.1"/>
</symbol>
<symbol  id="New_Symbol_1" viewBox="-14.8 -13.8 29.5 27.6">
	<path fill="#FFFFFF" stroke="#D1ECF2" stroke-width="1.4581" stroke-miterlimit="10" d="M13.9,5.8c0,0-12.3,8.6-21.9,7.1
		c0,0-7.5-15.4-5.8-19.1c0,0,12.7-8.2,18.7-6.7C4.9-12.9,9.5-9,13.9,5.8z"/>
</symbol>
<symbol  id="New_Symbol_2" viewBox="-17.6 -16 35.1 31.9">
	<path fill="#FFFFFF" stroke="#D1ECF2" stroke-width="1.4581" stroke-miterlimit="10" d="M-16.7,5c0,0,6.8-17.4,19.4-20.2
		c0,0,12.7,5.7,14,10.4c0,0-5.3,16.9-11.8,20C5,15.2-1.9,15.1-16.7,5z"/>
</symbol>
<g>
	<rect x="0" fill="#BFE6F5" width="500" height="500"/>
	<path fill="#EFF8F8" stroke="#85B2CC" stroke-width="4.1006" stroke-miterlimit="10" d="M357.6,303.7c0,0,14.3-41.9,28.9-78.4
		c35.4-88.5,42.6-135,13.9-156.8c-26.6-20.2-72.9,27.6-72.9,27.6l12.7,29c0,0,31.2-47.3,48.8-30.5c19.7,18.9,4.6,58.1-15,92.9
		c-22.3,39.6-33.7,68.2-33.7,68.2L357.6,303.7z"/>
	<path fill="#EFF8F8" stroke="#74A0B6" stroke-width="4.1006" stroke-miterlimit="10" d="M371.7,305.2
		c0.7,87-10.2,156.7-127.7,157.5c-108.9,0.7-127.7-70.5-127.7-157.5c0-40.9,16.7-79.3,33.1-109.9c7.6-14.2,32.3-39.4-22.9-90.4
		c-28.3-26.1-12.9-54.7,102.3-58.8C350.7,41.7,343,93.3,343,131C343,181.9,371.1,236.9,371.7,305.2z"/>
	<path fill="#F8EDA0" stroke="#F7DD42" stroke-width="4.1507" stroke-miterlimit="10" d="M359.6,306.4c1.6,71.7-8.6,134.4-115.5,135
		c-99,0.6-116.4-63.4-116.7-135c-0.2-42.1,19.2-75.1,19.2-75.1c9.9-14.9,50.9-26,100-26c49.1,0,90.1,11.1,100,26
		C346.6,231.3,358.7,265.7,359.6,306.4z"/>
	<path fill="#BDE5F2" stroke="#9EC8EA" stroke-width="3.3609" stroke-miterlimit="10" d="M316,75c0.6,9.6-34.8,12-86.8,15.4
		c-52,3.4-90.4-3.4-91-13c-0.6-9.6,36.2-18.1,91-20.2C281.3,55.1,315.4,65.4,316,75z"/>

		<use xlink:href="#New_Symbol"  width="48.5" height="42.1" x="-24.3" y="-21" transform="matrix(0.989 1.3042 1.3042 -0.989 234.8507 255.4087)" overflow="visible"/>

		<use xlink:href="#New_Symbol_2"  width="35.1" height="31.9" x="-17.6" y="-16" transform="matrix(1.9208 0 0 -1.9208 250.1362 219.5999)" overflow="visible"/>

		<use xlink:href="#New_Symbol_1"  width="29.5" height="27.6" x="-14.8" y="-13.8" transform="matrix(1.9208 0 0 -1.9208 178.6884 224.4289)" overflow="visible"/>

		<use xlink:href="#New_Symbol_1"  width="29.5" height="27.6" x="-14.8" y="-13.8" transform="matrix(1.9208 0 0 -1.9208 213.47 224.4289)" overflow="visible"/>

		<use xlink:href="#New_Symbol"  width="48.5" height="42.1" x="-24.3" y="-21" transform="matrix(1.7765 -5.261254e-02 -5.261254e-02 -1.7765 217.1478 295.4151)" overflow="visible"/>

		<use xlink:href="#New_Symbol"  width="48.5" height="42.1" x="-24.3" y="-21" transform="matrix(1.9208 0 0 -1.9208 282.2795 298.5898)" overflow="visible"/>

		<use xlink:href="#New_Symbol_1"  width="29.5" height="27.6" x="-14.8" y="-13.8" transform="matrix(-1.8967 -0.3033 0.3033 -1.8967 318.1602 224.8041)" overflow="visible"/>

		<use xlink:href="#New_Symbol_1"  width="29.5" height="27.6" x="-14.8" y="-13.8" transform="matrix(1.9208 0 0 -1.9208 290.3966 228.6457)" overflow="visible"/>
</g>
</svg>
