<?xml version="1.0" encoding="utf-8"?>
<!-- Generator: Adobe Illustrator 18.1.1, SVG Export Plug-In . SVG Version: 6.00 Build 0)  -->
<svg version="1.1" id="Layer_1" xmlns="http://www.w3.org/2000/svg" xmlns:xlink="http://www.w3.org/1999/xlink" x="0px" y="0px"
	 viewBox="0 0 500 500" enable-background="new 0 0 500 500" xml:space="preserve">
<g>
	<rect x="0" fill="#B2D57C" width="500" height="500"/>
	<g>
		<g>
			<path fill="none" d="M393,232.3"/>
		</g>
		<g>
			<path fill="none" d="M386.8,211.1"/>
		</g>
		<g>
			<defs>
				<path id="SVGID_1_" d="M467.7,184.7c7.9-1.6,16.2,6.4,18.5,17.8c2.3,11.4-2.4,21.9-10.3,23.5c-7.9,1.6-23.1-5.1-25.4-16.5
					C448.2,198.1,459.7,186.2,467.7,184.7z"/>
			</defs>
			<use xlink:href="#SVGID_1_"  overflow="visible" fill="#CBBA7F"/>
			<clipPath id="SVGID_2_">
				<use xlink:href="#SVGID_1_"  overflow="visible"/>
			</clipPath>
			<g clip-path="url(#SVGID_2_)">
				<g>
					<path fill="#CBBA7F" stroke="#92814C" stroke-width="3.0789" stroke-miterlimit="10" d="M461,188.1c9.6-1.9,18.9,4.9,21,15.3
						c2,10.3-4.1,20.2-13.6,22.1c-9.6,1.9-27.2-3.3-29.3-13.6C437,201.5,451.4,189.9,461,188.1z"/>
					<path fill="#CBBA7F" stroke="#92814C" stroke-width="3.0789" stroke-miterlimit="10" d="M453.7,194.5
						c9.7-1.9,18.7,2.4,20.1,9.6c1.4,7.2-5.3,14.6-15,16.6c-9.7,1.9-27.2-0.7-28.6-8C428.9,205.5,444,196.4,453.7,194.5z"/>
				</g>
				<path fill="#CBBA7F" stroke="#92814C" stroke-width="3.0789" stroke-miterlimit="10" d="M447.1,202.3c8.7-1.7,16.3-0.1,17,3.5
					c0.7,3.7-5.7,8-14.4,9.7c-8.7,1.7-23.9,1.6-24.6-2C424.4,209.8,438.4,204,447.1,202.3z"/>
			</g>
			<use xlink:href="#SVGID_1_"  overflow="visible" fill="none" stroke="#92814C" stroke-width="3.0789" stroke-miterlimit="10"/>
		</g>
		<g>
			<defs>
				<path id="SVGID_3_" d="M364.2,213.8l93.5-15.6c5.6-0.9,9.1,3,10.1,8.3l0,0c1.1,5.4-0.7,10.3-6.2,11.6l-89.8,20.7"/>
			</defs>
			<use xlink:href="#SVGID_3_"  overflow="visible" fill="#635B75"/>
			<clipPath id="SVGID_4_">
				<use xlink:href="#SVGID_3_"  overflow="visible"/>
			</clipPath>
			<g clip-path="url(#SVGID_4_)">
				<defs>
					<path id="SVGID_5_" d="M369.3,239.2c5.7-1.4,7.3-7.5,5.9-14.4l0,0c-1.4-6.9-5.2-12-11-11l52.8-29.7l58.9,9.1l5,26.4
						c0,0-42,37.4-46.3,37.2C430.3,256.6,369.3,239.2,369.3,239.2z"/>
				</defs>
				<use xlink:href="#SVGID_5_"  overflow="visible" fill="#635B75"/>
				<clipPath id="SVGID_6_">
					<use xlink:href="#SVGID_5_"  overflow="visible"/>
				</clipPath>
				<g clip-path="url(#SVGID_6_)">
					<path fill="#635B75" stroke="#9086A8" stroke-width="3.0789" stroke-miterlimit="10" d="M388.2,209c6.8-0.7,8.2,5.2,5.9,12.9
						l0,0c-2.3,7.7-7.4,14.4-14.3,15.6"/>
					<path fill="#635B75" stroke="#9086A8" stroke-width="3.0789" stroke-miterlimit="10" d="M405.7,206.1c6.8-1.2,8.8,4.2,7.3,11.5
						l0,0c-1.5,7.3-5.9,14-12.8,15.7"/>
					<path fill="#635B75" stroke="#9086A8" stroke-width="3.0789" stroke-miterlimit="10" d="M424.9,203.3c6.2-1.1,8,3.8,6.7,10.6
						l0,0c-1.4,6.7-5.5,12.9-11.7,14.4"/>
					<path fill="#635B75" stroke="#9086A8" stroke-width="3.0789" stroke-miterlimit="10" d="M441.5,200c6.1-1.1,8,3.8,6.6,10.5l0,0
						c-1.4,6.7-5.4,12.8-11.6,14.3"/>
					<path fill="#635B75" stroke="#9086A8" stroke-width="3.0789" stroke-miterlimit="10" d="M456.7,196.6c6.1-1.3,8.1,3.5,7,10.2v0
						c-1.1,6.7-4.9,13-11.1,14.7"/>
				</g>
				<use xlink:href="#SVGID_5_"  overflow="visible" fill="none" stroke="#9086A8" stroke-width="3.0789" stroke-miterlimit="10"/>
			</g>
			<use xlink:href="#SVGID_3_"  overflow="visible" fill="none" stroke="#9086A8" stroke-width="3.0789" stroke-miterlimit="10"/>
		</g>
		<g>
			<defs>
				<path id="SVGID_7_" d="M371.9,238.7L39.8,315.2c0,0-21.3,4.2-25.8-18.5c-4.6-23.4,16.8-27.3,16.8-27.3l333.5-55.7
					c0,0,8.3-1.5,11,11C377.6,235.8,371.9,238.7,371.9,238.7z"/>
			</defs>
			<use xlink:href="#SVGID_7_"  overflow="visible" fill="#CBBA7F"/>
			<clipPath id="SVGID_8_">
				<use xlink:href="#SVGID_7_"  overflow="visible"/>
			</clipPath>
			<g clip-path="url(#SVGID_8_)">
				<path fill="#CBBA7F" stroke="#92814C" stroke-width="3.0789" stroke-miterlimit="10" d="M401.2,212L46.1,276.9
					c-5,1-8.4,5.4-7.6,9.8c0.8,4.5,5.5,7.3,10.6,6.3l353.6-73.3"/>
				<path fill="none" stroke="#92814C" stroke-width="3.0789" stroke-miterlimit="10" d="M395.1,209L33.8,271.4
					c-6.8,1.3-11,9.7-9.4,18.9c1.6,9.1,8.4,15.5,15.2,14.2l359.3-75.3"/>
				<path fill="none" stroke="#92814C" stroke-width="3.0789" stroke-miterlimit="10" d="M386.8,211.1l-358,57.6
					c-9,2-14.3,13.4-11.8,25.5c2.5,12.1,11.8,20.3,20.8,18.3L393,232.3"/>
			</g>
			<use xlink:href="#SVGID_7_"  overflow="visible" fill="none" stroke="#92814C" stroke-width="3.0789" stroke-miterlimit="10"/>
		</g>
	</g>
</g>
</svg>
