<?xml version="1.0" encoding="utf-8"?>
<!-- Generator: Adobe Illustrator 18.1.1, SVG Export Plug-In . SVG Version: 6.00 Build 0)  -->
<svg version="1.1" id="Layer_1" xmlns="http://www.w3.org/2000/svg" xmlns:xlink="http://www.w3.org/1999/xlink" x="0px" y="0px"
	 viewBox="0 0 260 260" enable-background="new 0 0 260 260" xml:space="preserve">
<g>
	<rect fill="#564C72" width="260" height="260"/>
	<g>
		<defs>
			<rect id="SVGID_1_" x="0" width="260.1" height="258.5"/>
		</defs>
		<clipPath id="SVGID_2_">
			<use xlink:href="#SVGID_1_"  overflow="visible"/>
		</clipPath>
		<g clip-path="url(#SVGID_2_)">
			<polygon fill="#F4E0A5" stroke="#988A41" stroke-width="1.6028" stroke-miterlimit="10" points="118.7,104.1 107.4,100.2
				97.7,107.4 98,95.4 88.2,88.4 99.7,85 103.3,73.6 110.1,83.4 122.1,83.3 114.9,92.8 			"/>
			<g>
				<path fill="#F4E0A5" d="M115.7,72.6c0,0,0.2-0.5,0.5-1.3c0.3-0.8,0.8-2,1.4-3.5c0.6-1.4,1.4-3,2.2-4.8c0.9-1.7,1.8-3.5,2.8-5.3
					c0.5-0.9,1-1.8,1.5-2.6c0.5-0.9,1-1.7,1.5-2.5c1-1.6,2-3.1,2.9-4.4c0.9-1.3,1.7-2.3,2.2-3c0.6-0.7,0.9-1.1,0.9-1.1
					s-0.2,0.5-0.5,1.3c-0.3,0.8-0.8,2-1.4,3.5c-0.6,1.4-1.4,3-2.2,4.8c-0.4,0.9-0.9,1.7-1.3,2.6c-0.5,0.9-1,1.8-1.5,2.7
					c-1,1.8-2,3.5-3.1,5.2c-1,1.6-2,3.1-2.9,4.4c-0.9,1.3-1.7,2.3-2.2,3C116.1,72.2,115.7,72.6,115.7,72.6z"/>
			</g>
			<g>
				<path fill="#F4E0A5" d="M94.7,77.3c0,0-0.4-0.3-1.1-0.9c-0.7-0.6-1.7-1.4-2.8-2.4c-1.2-1-2.5-2.3-3.8-3.6
					c-1.4-1.3-2.8-2.8-4.2-4.3c-0.7-0.8-1.4-1.5-2-2.3c-0.7-0.7-1.3-1.5-1.9-2.3c-1.2-1.5-2.4-2.9-3.3-4.1c-0.9-1.2-1.7-2.3-2.2-3
					c-0.5-0.8-0.8-1.2-0.8-1.2s0.4,0.3,1.1,0.9c0.7,0.6,1.7,1.4,2.8,2.4c1.2,1,2.5,2.3,3.8,3.6c0.7,0.7,1.4,1.4,2.1,2.1
					c0.7,0.7,1.4,1.5,2.1,2.2c1.4,1.5,2.7,3,4,4.5c1.2,1.5,2.4,2.9,3.3,4.1c0.9,1.2,1.7,2.3,2.2,3C94.4,76.9,94.7,77.3,94.7,77.3z"
					/>
			</g>
			<g>
				<path fill="#F4E0A5" d="M127.4,93.1c0,0,0.5,0,1.4,0c0.9,0,2.2,0,3.7,0.1c1.5,0.1,3.3,0.2,5.2,0.4c1.9,0.2,3.9,0.4,6,0.7
					c1,0.2,2,0.3,3,0.5c1,0.2,2,0.4,2.9,0.5c1.9,0.4,3.6,0.8,5.1,1.1c1.5,0.4,2.7,0.7,3.6,1c0.9,0.3,1.4,0.4,1.4,0.4s-0.5,0-1.4,0
					c-0.9,0-2.2,0-3.7-0.1c-1.5-0.1-3.3-0.2-5.2-0.4c-1-0.1-1.9-0.2-2.9-0.3c-1-0.1-2-0.3-3-0.4c-2-0.3-4-0.7-5.9-1
					c-1.9-0.4-3.6-0.8-5.1-1.1c-1.5-0.4-2.7-0.7-3.6-1C127.9,93.3,127.4,93.1,127.4,93.1z"/>
			</g>
			<g>
				<path fill="#F4E0A5" d="M110.2,110.2c0,0,0.2,0.5,0.5,1.3c0.3,0.8,0.8,2.1,1.2,3.5c0.5,1.5,1,3.2,1.5,5c0.5,1.9,1,3.8,1.4,5.8
					c0.2,1,0.4,2,0.6,3c0.2,1,0.4,2,0.5,2.9c0.3,1.9,0.6,3.7,0.8,5.2c0.2,1.5,0.3,2.8,0.4,3.7c0.1,0.9,0.1,1.4,0.1,1.4
					s-0.2-0.5-0.5-1.3c-0.3-0.8-0.8-2.1-1.2-3.5c-0.5-1.5-1-3.2-1.5-5c-0.2-0.9-0.5-1.9-0.7-2.9c-0.2-1-0.5-2-0.7-3
					c-0.4-2-0.8-4-1.2-5.9c-0.3-1.9-0.6-3.7-0.8-5.2c-0.2-1.5-0.3-2.8-0.4-3.7C110.2,110.7,110.2,110.2,110.2,110.2z"/>
			</g>
			<g>
				<path fill="#F4E0A5" d="M93.7,113.7c0,0-0.5,1.8-1.5,4.3c-0.5,1.3-1.1,2.7-1.8,4.2c-0.4,0.8-0.7,1.6-1.1,2.4
					c-0.4,0.8-0.8,1.6-1.2,2.4c-0.4,0.8-0.8,1.6-1.2,2.4c-0.4,0.8-0.9,1.5-1.3,2.3c-0.8,1.5-1.6,2.8-2.4,3.9
					c-1.4,2.3-2.6,3.7-2.6,3.7s0.5-1.8,1.5-4.3c0.5-1.3,1.1-2.7,1.8-4.2c0.4-0.8,0.7-1.6,1.1-2.4c0.4-0.8,0.8-1.6,1.2-2.4
					c0.4-0.8,0.8-1.6,1.2-2.4c0.4-0.8,0.9-1.5,1.3-2.3c0.8-1.5,1.6-2.8,2.4-3.9C92.6,115.2,93.7,113.7,93.7,113.7z"/>
			</g>
			<g>
				<path fill="#F4E0A5" d="M127.7,108.6c0,0,1.2,0.7,2.8,1.9c0.8,0.6,1.7,1.3,2.7,2.1c1,0.8,2,1.7,3,2.5c0.5,0.4,1,0.9,1.5,1.3
					c0.5,0.4,0.9,0.9,1.4,1.3c0.9,0.9,1.7,1.7,2.4,2.4c1.4,1.5,2.2,2.6,2.2,2.6s-1.2-0.7-2.8-1.9c-0.8-0.6-1.7-1.3-2.7-2.1
					c-0.5-0.4-1-0.8-1.5-1.2c-0.5-0.4-1-0.9-1.5-1.3c-1-0.9-2-1.8-2.9-2.7c-0.9-0.9-1.7-1.7-2.4-2.4
					C128.5,109.7,127.7,108.6,127.7,108.6z"/>
			</g>
			<g>
				<path fill="#F4E0A5" d="M98.8,40.8c0,0,0.5,1.3,1.1,3.2c0.3,1,0.6,2.1,0.9,3.3c0.3,1.2,0.6,2.5,0.9,3.8c0.1,0.7,0.2,1.3,0.4,2
					c0.1,0.6,0.2,1.3,0.3,1.9c0.2,1.2,0.3,2.4,0.4,3.4c0.2,2,0.2,3.4,0.2,3.4s-0.5-1.3-1.1-3.2c-0.3-1-0.6-2.1-0.9-3.3
					c-0.1-0.6-0.3-1.2-0.4-1.9c-0.1-0.6-0.3-1.3-0.4-1.9c-0.2-1.3-0.5-2.6-0.7-3.9c-0.2-1.2-0.3-2.4-0.4-3.4
					C98.8,42.2,98.8,40.8,98.8,40.8z"/>
			</g>
			<g>
				<path fill="#F4E0A5" d="M131.3,77.1c0,0,1.3-0.5,3.2-1.1c1-0.3,2.1-0.6,3.3-0.9c1.2-0.3,2.5-0.6,3.8-0.9c0.7-0.1,1.3-0.2,2-0.4
					c0.6-0.1,1.3-0.2,1.9-0.3c1.2-0.2,2.4-0.3,3.4-0.4c2-0.2,3.4-0.2,3.4-0.2s-1.3,0.5-3.2,1.1c-1,0.3-2.1,0.6-3.3,0.9
					c-0.6,0.1-1.2,0.3-1.9,0.4c-0.6,0.1-1.3,0.3-1.9,0.4c-1.3,0.2-2.6,0.5-3.9,0.7c-1.2,0.2-2.4,0.3-3.4,0.4
					C132.7,77.1,131.3,77.1,131.3,77.1z"/>
			</g>
			<g>
				<path fill="#F4E0A5" d="M58.9,75.6c0,0,1.3,0.3,3.2,0.9c1,0.3,2.1,0.7,3.2,1.1c1.2,0.4,2.4,0.9,3.6,1.5c0.6,0.3,1.2,0.5,1.8,0.8
					c0.6,0.3,1.2,0.6,1.7,0.8c1.1,0.5,2.2,1.1,3,1.6c1.8,1,2.9,1.7,2.9,1.7s-1.3-0.3-3.2-0.9c-1-0.3-2.1-0.7-3.2-1.1
					c-0.6-0.2-1.2-0.4-1.8-0.7c-0.6-0.3-1.2-0.5-1.8-0.8c-1.2-0.5-2.4-1.1-3.6-1.6c-1.1-0.5-2.2-1.1-3-1.6
					C60,76.4,58.9,75.6,58.9,75.6z"/>
			</g>
			<g>
				<path fill="#F4E0A5" d="M87,98.5c0,0-0.5,0.2-1.3,0.6c-0.8,0.4-2,0.9-3.5,1.4c-1.4,0.5-3.1,1.1-5,1.7c-1.8,0.6-3.8,1.2-5.8,1.7
					c-1,0.3-2,0.5-3,0.8c-1,0.2-1.9,0.4-2.9,0.7c-1.9,0.4-3.6,0.8-5.2,1c-1.5,0.3-2.8,0.4-3.7,0.5c-0.9,0.1-1.4,0.1-1.4,0.1
					s0.5-0.2,1.3-0.6c0.8-0.4,2-0.9,3.5-1.4c1.4-0.5,3.1-1.1,5-1.7c0.9-0.3,1.9-0.6,2.8-0.9c1-0.3,2-0.5,2.9-0.8c2-0.5,4-1,5.8-1.4
					c1.9-0.4,3.6-0.8,5.2-1c1.5-0.3,2.8-0.4,3.7-0.5C86.5,98.5,87,98.5,87,98.5z"/>
			</g>
		</g>
	</g>
</g>
</svg>
