<?xml version="1.0" encoding="utf-8"?>
<!-- Generator: Adobe Illustrator 18.1.1, SVG Export Plug-In . SVG Version: 6.00 Build 0)  -->
<svg version="1.1" id="Layer_1" xmlns="http://www.w3.org/2000/svg" xmlns:xlink="http://www.w3.org/1999/xlink" x="0px" y="0px"
	 viewBox="0 0 500 500" enable-background="new 0 0 500 500" xml:space="preserve">
<g>
	<defs>
		<rect id="SVGID_1_" x="0" width="500" height="500"/>
	</defs>
	<use xlink:href="#SVGID_1_"  overflow="visible" fill="#FFFFFF"/>
	<clipPath id="SVGID_2_">
		<use xlink:href="#SVGID_1_"  overflow="visible"/>
	</clipPath>
	<g clip-path="url(#SVGID_2_)">
		<rect x="0" fill="#D1E7C4" width="500" height="500"/>
		<g>
			<path fill="#C17F5F" stroke="#955535" stroke-width="2.5467" stroke-miterlimit="10" d="M323.3,314.1c22.4-6.8,44.3-15.6,65-26.4
				c83-43.3,172.3-108.6,190.6-134.1l-75.8-72.7c-88.9,121.1-187.8,146.5-212.4,150.7L323.3,314.1z"/>
			<path fill="#C17F5F" stroke="#955535" stroke-width="2.5467" stroke-miterlimit="10" d="M264.3,204.4c4.2,2,8.4,4.2,12.4,6.6
				c21.9,13.5,39.8,33.3,51,56.5c1.9,3.9,3.9,9.5,5.7,14.9c5.7,17.6,5.1,36.6-22,66.1c-10.8,11.8-14.4,6.8-14.4,6.9
				c-10.1,18.6,2.2,3.5-4.3,8.8c-16,13-21.4,11.9-32.8,29.1c-43.3-8-102.9-40.3-103.9-39.8c8.4-30.9,33.9-62.9,58-72
				c6.1-13,15.8-24.3,28.3-31.5c-2.7-2.6-5.2-5.4-7.6-8.2"/>

				<path fill="#F1CC7D" stroke="#A47C3A" stroke-width="2.1967" stroke-linecap="round" stroke-linejoin="round" stroke-miterlimit="10" d="
				M-4,57.1c64.9,93,152.8,159.8,190,179.2c22.5-4.2,45.4-1.6,67.2,5.3c20.3,6.4,39.5,15.8,58.5,25.4c2.9,1.5,5.2,3.9,6.4,7
				c10.3,26.5,9.5,56.6-1.6,82.7c-3.7,8.6-10.7,15.4-19.5,18.8c-20.6,8-43.1,11.9-65,12.5l7.5-39c-12.3-8.4-28.2-9-42.3-13.8
				c-21.4-7.3-39.6-19.6-46.1-41.2c-19.6-6.8-38.6-15.5-56.7-25.7C68.6,253.5-15.2,203.1-96,131L-4,57.1z"/>
			<path fill="#C17F5F" stroke="#955535" stroke-width="2.5467" stroke-miterlimit="10" d="M253.4,397.1
				c-35.9-3.3-70.7-18.7-97.1-43.2c10.4-3.2,17.4-12,24.9-19.9c7.4-7.9,14.3-16.6,23-23c8.8-6.5,20-10.6,30.6-7.8
				c12.5,3.2,20.9,14.8,26.5,26.4c8.6,17.9,10.5,38.4,9.4,53C270,391.4,262.2,397.9,253.4,397.1z"/>
			<path fill="#C17F5F" stroke="#955535" stroke-width="2.5467" stroke-miterlimit="10" d="M191.6,305.6c5.2,7.7-3.8,22.8-20.1,33.7
				c-16.3,10.9-26,9.2-31.2,1.5c-5.2-7.7-3.8-18.5,12.5-29.4C169.1,300.5,186.5,297.9,191.6,305.6z"/>
			<path fill="#C17F5F" d="M292.9,237.5c2.3-0.2,36.7,30.1,38.3,64.9l30.6-11.7l-20.9-58.4L292.9,237.5z"/>
			<path fill="#C17F5F" stroke="#955535" stroke-width="2.5467" stroke-miterlimit="10" d="M296.8,259.1
				c-14.1-3.8-29.6-11.8-41.7-12.9c-11.5-1-19.8-5.6-21.5-7.2c-13.7,3.5-29.1,1-41.7-5.4c-7.3-3.7-14.5-10.3-12.1-19.1
				c0.6-2.3,1.9-4.3,3.5-6c4.5-4.8,10.9-6.6,17.1-7.8c20.6-4.2,51.8-2,66.2,4.7"/>
			<path fill="#C17F5F" stroke="#955535" stroke-width="2.5467" stroke-miterlimit="10" d="M262.5,203.8c0,0,5.3,1.9,8.7,4"/>
		</g>
	</g>
</g>
</svg>
