<?xml version="1.0" encoding="utf-8"?>
<!-- Generator: Adobe Illustrator 18.1.1, SVG Export Plug-In . SVG Version: 6.00 Build 0)  -->
<svg version="1.1" id="Layer_1" xmlns="http://www.w3.org/2000/svg" xmlns:xlink="http://www.w3.org/1999/xlink" x="0px" y="0px"
	 viewBox="0 0 500 500" enable-background="new 0 0 500 500" xml:space="preserve">
<symbol  id="New_Symbol" viewBox="-10 -52.6 20.1 105.2">
	<path fill="none" stroke="#137766" stroke-width="2.2763" stroke-miterlimit="10" d="M-3.7,52.4C4.1,18.1,8.3-17.1,8.9-52.2"/>
	<path fill="none" stroke="#137766" stroke-width="2.2763" stroke-miterlimit="10" d="M-8.9,52C-1.1,17.7,3.1-17.4,3.7-52.6"/>
</symbol>
<symbol  id="New_Symbol_1" viewBox="-44.4 -5.7 88.8 11.4">
	<path fill="none" stroke="#137766" stroke-width="2.2763" stroke-miterlimit="10" d="M-44.2-1.2c29.2-6,60-3.9,88.2,5.8"/>
</symbol>
<symbol  id="New_Symbol_2" viewBox="-18.8 -30.8 37.5 61.7">
	<path fill="#C08ABD" stroke="#824391" stroke-width="1.214" stroke-miterlimit="10" d="M-17.9-21.5c0,0,5.4,9.3,6.8,23.4
		s4.3,28.8,13,28.4s16.9-13.3,16.2-60C18.1-29.8,4.1-33-17.9-21.5z"/>
</symbol>
<g>
	<defs>
		<rect id="SVGID_1_" width="500" height="500"/>
	</defs>
	<clipPath id="SVGID_2_">
		<use xlink:href="#SVGID_1_"  overflow="visible"/>
	</clipPath>
	<g clip-path="url(#SVGID_2_)">
		<rect fill="#9DD7D6" width="500" height="500"/>

			<use xlink:href="#New_Symbol_2"  width="37.5" height="61.7" x="-18.8" y="-30.8" transform="matrix(1.906 0.256 0.256 -1.906 308.0386 216.7471)" overflow="visible"/>
		<g>
			<defs>
				<path id="SVGID_3_" d="M211.1,371.4c-1.5,1-68.1-90.6-66.8-94c3.4-9.3,50.2-31.2,54.3-26.7C200.7,252.8,214.1,369.4,211.1,371.4
					z"/>
			</defs>
			<use xlink:href="#SVGID_3_"  overflow="visible" fill="#F8B95D"/>
			<clipPath id="SVGID_4_">
				<use xlink:href="#SVGID_3_"  overflow="visible"/>
			</clipPath>
			<g clip-path="url(#SVGID_4_)">
				<path fill="none" stroke="#B9713B" stroke-width="1.6689" stroke-miterlimit="10" d="M256.3,277.4c0,0-44.8-38.8-98.6-45.6"/>
				<path fill="none" stroke="#B9713B" stroke-width="1.6689" stroke-miterlimit="10" d="M252.6,287.3c0,0-44.8-38.8-98.6-45.6"/>
				<path fill="none" stroke="#B9713B" stroke-width="1.6689" stroke-miterlimit="10" d="M247.8,298.8c0,0-44.8-38.8-98.6-45.6"/>
				<path fill="none" stroke="#B9713B" stroke-width="1.6689" stroke-miterlimit="10" d="M241.3,310.9c0,0-44.8-38.8-98.6-45.6"/>
				<path fill="none" stroke="#B9713B" stroke-width="1.6689" stroke-miterlimit="10" d="M237,321.6c0,0-44.8-38.8-98.6-45.6"/>
				<path fill="none" stroke="#B9713B" stroke-width="1.6689" stroke-miterlimit="10" d="M232.2,333.1c0,0-44.8-38.8-98.6-45.6"/>
				<path fill="none" stroke="#B9713B" stroke-width="1.6689" stroke-miterlimit="10" d="M231.3,346c0,0-44.8-38.8-98.6-45.6"/>
				<path fill="none" stroke="#B9713B" stroke-width="1.6689" stroke-miterlimit="10" d="M224.9,374.5c0,0-44.8-38.8-98.6-45.6"/>
				<path fill="none" stroke="#B9713B" stroke-width="1.6689" stroke-miterlimit="10" d="M226.5,357.5c0,0-44.8-38.8-98.6-45.6"/>
				<path fill="none" stroke="#B9713B" stroke-width="1.6689" stroke-miterlimit="10" d="M161.6,224c0,0-22.9,57.7-17.3,121.5"/>
				<path fill="none" stroke="#B9713B" stroke-width="1.6689" stroke-miterlimit="10" d="M170.7,226.9c0,0-22.9,57.7-17.3,121.5"/>
				<path fill="none" stroke="#B9713B" stroke-width="1.6689" stroke-miterlimit="10" d="M181.2,231c0,0-22.9,57.7-17.3,121.5"/>
				<path fill="none" stroke="#B9713B" stroke-width="1.6689" stroke-miterlimit="10" d="M192.7,236.9c0,0-22.9,57.7-17.3,121.5"/>
				<path fill="none" stroke="#B9713B" stroke-width="1.6689" stroke-miterlimit="10" d="M202.4,240.5c0,0-22.9,57.7-17.3,121.5"/>
				<path fill="none" stroke="#B9713B" stroke-width="1.6689" stroke-miterlimit="10" d="M212.9,244.5c0,0-22.9,57.7-17.3,121.5"/>
				<path fill="none" stroke="#B9713B" stroke-width="1.6689" stroke-miterlimit="10" d="M223.9,243.8c0,0-22.9,57.7-17.3,121.5"/>
				<path fill="none" stroke="#B9713B" stroke-width="1.6689" stroke-miterlimit="10" d="M235,255.8c0,0-22.9,57.7-17.3,121.5"/>
			</g>
			<use xlink:href="#SVGID_3_"  overflow="visible" fill="none" stroke="#B9713B" stroke-width="2.9184" stroke-miterlimit="10"/>
		</g>
		<path fill="#EFCAA0" stroke="#C1966B" stroke-width="2.3347" stroke-miterlimit="10" d="M318.3,352.5
			c-0.3-28.4-4.7-56.7-13.1-83.8c-1.9-6.2-4.1-12.4-7.7-17.8c-3.3-5-8-9.4-13.7-11.4c7.9,40.4,8.7,82.1,2.3,122.7
			c-10.3,11.4-16.6,26.4-17.6,41.7c-0.1,2.1-0.2,4.2,0.6,6.2c0.7,2,2.3,3.7,4.4,4c5.1,0.8,8.4-6.9,8.6-10.4
			c-1.1,6.3-2.2,12.7-2.2,19.2c-0.1,6.7,1.1,13.6,4.2,19.5c2.9,5.4,8.6,10.3,14.6,9.1c9.6-33.1,16.5-61.1,18.6-95.4L318.3,352.5z"/>
		<path fill="#EFCAA0" stroke="#C1966B" stroke-width="2.3347" stroke-miterlimit="10" d="M227.4,168.3c3-2,5.1-5.4,5.1-9
			c-8.1-3-15.4-8.1-21.1-14.7c-3.5,4.6-4.9,10.8-3,16.3c1.9,5.4,7.4,9.6,13.1,9.4C223.7,170.2,225.7,169.5,227.4,168.3z"/>
		<g>
			<defs>
				<path id="SVGID_5_" d="M301.8,367.1c0,2.9-16.1,112.4-13.1,189.7h153.2c0,0-16.1-70.8-19-105.8c-2.9-35-10.9-77.3-19.7-92.7
					L301.8,367.1z"/>
			</defs>
			<use xlink:href="#SVGID_5_"  overflow="visible" fill="#009179"/>
			<clipPath id="SVGID_6_">
				<use xlink:href="#SVGID_5_"  overflow="visible"/>
			</clipPath>
			<g clip-path="url(#SVGID_6_)">
				<g>
					<path fill="none" stroke="#137766" stroke-width="4.3775" stroke-miterlimit="10" d="M328.7,373.6
						c-10.4,66.8-14,134.8-10.5,202.4"/>
					<path fill="none" stroke="#137766" stroke-width="4.3775" stroke-miterlimit="10" d="M338.7,373.6
						c-10.4,66.8-14,134.8-10.5,202.4"/>
				</g>

					<use xlink:href="#New_Symbol"  width="20.1" height="105.2" x="-10" y="-52.6" transform="matrix(1.9231 0 0 -1.9231 407.6429 471.4526)" overflow="visible"/>

					<use xlink:href="#New_Symbol"  width="20.1" height="105.2" x="-10" y="-52.6" transform="matrix(1.9177 0.1436 0.1436 -1.9177 368.8623 471.2885)" overflow="visible"/>

					<use xlink:href="#New_Symbol_1"  width="88.8" height="11.4" x="-44.4" y="-5.7" transform="matrix(1.9231 0 0 -1.9231 362.9899 396.5628)" overflow="visible"/>

					<use xlink:href="#New_Symbol_1"  width="88.8" height="11.4" x="-44.4" y="-5.7" transform="matrix(1.9231 0 0 -1.9231 362.9899 426.6576)" overflow="visible"/>

					<use xlink:href="#New_Symbol_1"  width="88.8" height="11.4" x="-44.4" y="-5.7" transform="matrix(1.9231 0 0 -1.9231 362.9899 457.5703)" overflow="visible"/>

					<use xlink:href="#New_Symbol_1"  width="88.8" height="11.4" x="-44.4" y="-5.7" transform="matrix(1.9231 0 0 -1.9231 362.8503 489.7681)" overflow="visible"/>
			</g>
			<use xlink:href="#SVGID_5_"  overflow="visible" fill="none" stroke="#085147" stroke-width="1.4592" stroke-miterlimit="10"/>
		</g>
		<path fill="#C08ABD" stroke="#824391" stroke-width="2.3347" stroke-miterlimit="10" d="M401.7,270.1
			c-6.5-33.1-16.6-65.5-30.1-96.5c-3.5-7.9-7.2-15.9-13.1-22.3s-14.2-11-22.8-10.5c-9.6,0.5-17.8,7.1-24.3,14.2
			c-16.4,17.9-26.9,41.1-29.5,65.2c-2.7,24.6,2.9,49.9,15.5,71.1c2,30.4-0.3,61.1-7.1,90.8c39.8,7.6,81.4,5.2,120-6.8
			C411.5,340.1,408.6,304.7,401.7,270.1z"/>
		<g>
			<path fill="#231F20" d="M116,359.1c0,0,0-0.3-0.1-0.8c-0.1-0.5-0.2-1.2-0.4-2.2c-0.1-0.9-0.3-2.1-0.4-3.4
				c-0.1-0.7-0.1-1.4-0.2-2.1c0-0.7,0-1.5-0.1-2.3c0-0.8,0-1.7,0-2.5c0-0.9,0.1-1.8,0.1-2.7c0.1-1.9,0.3-3.8,0.5-5.8
				c0.3-2,0.5-4.1,1.1-6.2c0.4-2.1,1-4.2,1.5-6.3c0.7-2.1,1.3-4.1,2.1-6.1c0.7-2,1.6-3.9,2.4-5.8c0.9-1.8,1.7-3.6,2.7-5.2
				c0.5-0.8,0.9-1.6,1.3-2.3c0.5-0.7,0.9-1.4,1.4-2.1c0.4-0.7,0.9-1.3,1.3-1.9c0.4-0.6,0.9-1.2,1.3-1.7c0.8-1.1,1.5-2,2.1-2.7
				c0.6-0.7,1.1-1.3,1.5-1.6c0.3-0.4,0.5-0.6,0.5-0.6l0.2,0.2c0,0-0.6,0.9-1.5,2.5c-0.5,0.8-1.1,1.8-1.7,2.9c-0.3,0.6-0.7,1.2-1,1.8
				c-0.3,0.6-0.7,1.3-1.1,2c-0.8,1.4-1.5,2.9-2.3,4.6c-0.8,1.6-1.5,3.4-2.3,5.2c-0.7,1.9-1.5,3.8-2.1,5.7c-0.7,2-1.3,4-1.9,6
				c-0.5,2-1.2,4.1-1.6,6.1c-0.5,2-0.9,4-1.3,6c-0.3,2-0.7,3.8-0.9,5.7c-0.2,1.8-0.4,3.5-0.5,5.1c-0.1,0.8-0.1,1.6-0.2,2.3
				c0,0.7-0.1,1.4-0.1,2.1c-0.1,1.3-0.1,2.4-0.1,3.3c0,1.9,0,2.9,0,2.9L116,359.1z"/>
		</g>
		<g>
			<path fill="#231F20" d="M104.2,368.5c0,0-0.1-0.2-0.3-0.7c-0.2-0.4-0.5-1.1-0.8-1.9c-0.3-0.8-0.7-1.8-1.1-3
				c-0.2-0.6-0.4-1.2-0.6-1.9c-0.2-0.7-0.4-1.4-0.6-2.1c-0.2-0.7-0.4-1.5-0.6-2.3c-0.2-0.8-0.3-1.6-0.5-2.5
				c-0.4-1.7-0.6-3.5-0.8-5.4c-0.2-1.9-0.4-3.8-0.4-5.8c-0.1-2,0-4,0-6c0.2-2,0.3-4,0.5-6c0.2-2,0.6-3.9,0.9-5.7
				c0.4-1.8,0.8-3.6,1.3-5.3c0.2-0.8,0.5-1.6,0.7-2.4c0.2-0.8,0.5-1.5,0.8-2.2c0.3-0.7,0.5-1.4,0.7-2c0.3-0.6,0.5-1.2,0.8-1.8
				c0.5-1.1,0.9-2.1,1.3-2.9c0.4-0.8,0.7-1.4,1-1.8c0.2-0.4,0.3-0.6,0.3-0.6l0.3,0.1c0,0-0.3,0.9-0.8,2.6c-0.3,0.8-0.6,1.8-0.9,3
				c-0.3,1.1-0.7,2.5-1,3.9c-0.4,1.4-0.7,3-1,4.6c-0.4,1.6-0.6,3.4-0.9,5.2c-0.2,1.8-0.5,3.7-0.7,5.6c-0.2,1.9-0.3,3.9-0.4,5.8
				c0,2-0.1,3.9-0.1,5.9c0,1.9,0.1,3.8,0.2,5.7c0.2,1.8,0.2,3.6,0.5,5.3c0.2,1.7,0.4,3.3,0.6,4.7c0.2,1.5,0.5,2.8,0.7,4
				c0.2,1.2,0.4,2.2,0.6,3c0.4,1.7,0.6,2.6,0.6,2.6L104.2,368.5z"/>
		</g>
		<g>
			<path fill="#231F20" d="M85.5,324.8c0,0,0,0.2,0.1,0.4c0,0.3,0.1,0.7,0.2,1.2c0.1,1.1,0.3,2.5,0.5,4.3c0.1,0.9,0.2,1.8,0.3,2.8
				c0.1,1,0.2,2,0.3,3.1c0.1,1.1,0.2,2.2,0.3,3.3c0.1,1.1,0.2,2.3,0.3,3.4c0.1,1.1,0.2,2.3,0.4,3.4c0.1,1.1,0.2,2.2,0.4,3.3
				c0.2,1.1,0.2,2.1,0.4,3.1c0.1,1,0.2,1.9,0.3,2.8c0.1,0.9,0.2,1.7,0.2,2.4c0.1,0.7,0.1,1.4,0.2,1.9c0.1,0.5,0,1,0.1,1.2
				c0,0.3,0,0.4,0,0.4l-0.3,0.1c0,0-0.2-0.6-0.6-1.5c-0.2-0.5-0.4-1.1-0.6-1.8c-0.2-0.7-0.5-1.5-0.7-2.3c-0.3-0.9-0.5-1.8-0.8-2.8
				c-0.3-1-0.5-2-0.7-3.1c-0.4-2.2-0.8-4.5-1.1-6.9c-0.2-2.4-0.3-4.7-0.3-7c0-1.1,0-2.2,0.1-3.2c0-1,0.1-2,0.2-2.9
				c0.1-0.9,0.2-1.7,0.2-2.4c0.1-0.7,0.2-1.3,0.2-1.9c0.2-1,0.2-1.6,0.2-1.6L85.5,324.8z"/>
		</g>
		<path fill="#EFCAA0" stroke="#C1966B" stroke-width="2.9184" stroke-miterlimit="10" d="M161.7,315.7c0.5-2.4,1.7-4.6,3.3-6.5
			c2.4-2.8,5.5-4.9,8.7-6.7c9.7-5.5,20.4-9,31.5-10.3c-0.6-4-1.1-8.1-1.7-12.1c10.1-1.7,20.9,0.2,29.7,5.7
			c36.9-1.3,73-19.2,96.2-47.9c11.3,6.5,24.2,10.2,37.2,10.6c-28,38.4-74.4,62.7-121.9,63.9c-16.6,18.1-43.5,26.3-67.3,20.2
			c-7.1-1.8-14.9-6-15.8-13.2C161.4,318.1,161.4,316.9,161.7,315.7z"/>
		<path fill="#EFCAA0" stroke="#C1966B" stroke-width="2.3347" stroke-miterlimit="10" d="M322.6,126.6c7.4-15.2,8.2-32,0.5-46
			c-14.1-25.7-51.3-32.4-83-15c-31.7,17.4-46,52.4-31.9,78.1c6.9,12.5,19.2,20.5,33.7,23.4c5.2-5.5,15.4-14,24.5-14.5
			c0,0,2.6,4.3-2.1,15.1c5.7-0.8,11.5-2.3,17.2-4.5c6.6,5.8,18.4,16.4,18.4,16.4s22.6-34.9,32.8-38.4L322.6,126.6z"/>

			<ellipse transform="matrix(0.8097 -0.5869 0.5869 0.8097 -39.055 153.7636)" fill="#231F20" cx="217.5" cy="137.1" rx="3.8" ry="9.4"/>
		<path fill="#EFCAA0" stroke="#C1966B" stroke-width="2.3347" stroke-miterlimit="10" d="M206.3,117.2c3.2,2.4,7.3,3.6,11.3,3.4"/>
		<path fill="#603813" stroke="#A87C4F" stroke-width="2.3347" stroke-miterlimit="10" d="M363.3,115.6c0.5-1.1,0.9-2.2,1.2-3.4
			c-4.9,0.7-10,0.8-14.9,0.4c8.9-6.1,15.2-16,17.1-26.6c-7.9,0.4-15.7,0.8-23.6,1.1c1.3-8,0-16.4-3.5-23.8c-2.7,3.5-6,6.8-10.3,7.3
			c-3.7,0.4-7.4-1.5-10.1-4.1c-2.7-2.7-4.5-6-6.4-9.3c-5.3-9.4-11.5-18.8-20.8-24.3c-14.4-8.4-33.3-5.3-47.4,3.6
			c-12.8,8-22.5,20-31.7,32.2c-8.5,0-17.3,0.2-24.9,3.9c-7.8,3.8-14,12.4-12.1,20.8c1.3,5.7,5.9,10.1,11.3,12.4
			c5.4,2.2,11.3,2.5,17.1,2c12-0.9,23.6-4.7,35.5-6.4c10.6-1.5,22-1.2,31.3,3.6c8.3-1.5,16.3,3.4,22.3,9.2
			c5.7,5.6,10.5,12.2,17,16.8c9.7,6.8,23,8.2,34,3.6C353,131.1,359.8,124,363.3,115.6z"/>
		<g>
			<g>
				<path fill="#603813" d="M250,68.3c17.2-8.8,39.5-6.4,54.4,5.9"/>
				<path fill="#C3996B" d="M249.9,68.1c0,0,0.2-0.1,0.5-0.4c0.3-0.3,0.8-0.7,1.5-1.1c0.3-0.2,0.7-0.5,1.1-0.7
					c0.4-0.3,0.9-0.5,1.4-0.8c0.5-0.3,1.1-0.6,1.6-0.9c0.6-0.3,1.2-0.5,1.9-0.8c0.7-0.3,1.3-0.6,2-0.8c0.7-0.2,1.5-0.4,2.3-0.7
					c0.8-0.2,1.6-0.4,2.4-0.6c0.8-0.2,1.7-0.3,2.6-0.5c1.8-0.2,3.6-0.5,5.4-0.4c1.9-0.1,3.8,0.1,5.6,0.2c1.9,0.3,3.8,0.5,5.6,1
					c1.8,0.3,3.5,1,5.2,1.6c0.8,0.3,1.6,0.7,2.4,1c0.8,0.3,1.5,0.7,2.2,1.1c0.7,0.4,1.4,0.8,2.1,1.1c0.7,0.4,1.2,0.8,1.8,1.2
					c0.6,0.4,1.1,0.8,1.6,1.2c0.5,0.4,0.9,0.8,1.4,1.2c0.4,0.4,0.8,0.7,1.2,1c0.4,0.3,0.7,0.7,0.9,1c0.6,0.6,1,1.1,1.3,1.4
					c0.3,0.3,0.4,0.5,0.4,0.5l-0.2,0.2c0,0-0.7-0.5-2-1.5c-0.3-0.2-0.7-0.5-1-0.8c-0.4-0.3-0.8-0.5-1.3-0.8c-0.5-0.3-1-0.6-1.5-0.9
					c-0.5-0.3-1.1-0.6-1.7-0.9c-0.6-0.3-1.2-0.7-1.9-1c-0.7-0.3-1.4-0.6-2.1-0.9c-0.7-0.3-1.4-0.6-2.2-0.9c-0.8-0.3-1.5-0.6-2.3-0.8
					c-1.6-0.5-3.3-1-5-1.3c-1.7-0.4-3.5-0.6-5.3-0.9c-1.8-0.1-3.6-0.3-5.3-0.3c-1.8-0.1-3.5,0.1-5.2,0.2c-0.8,0.1-1.7,0.2-2.5,0.3
					c-0.8,0.1-1.6,0.2-2.3,0.4c-0.8,0.2-1.5,0.3-2.2,0.5c-0.7,0.2-1.4,0.4-2,0.6c-0.6,0.2-1.3,0.4-1.9,0.5c-0.6,0.2-1.1,0.4-1.6,0.6
					c-0.5,0.2-1,0.4-1.4,0.5c-0.4,0.2-0.8,0.4-1.2,0.5c-1.4,0.7-2.3,1-2.3,1L249.9,68.1z"/>
			</g>
			<g>
				<path fill="#603813" d="M244.9,47.7c22.2-7.5,48.4-1.4,65.1,15"/>
				<path fill="#C3996B" d="M244.8,47.6c0,0,0.2-0.1,0.7-0.4c0.5-0.2,1.1-0.6,2-1c0.4-0.2,0.9-0.4,1.5-0.7c0.6-0.2,1.2-0.4,1.8-0.6
					c0.7-0.2,1.4-0.5,2.1-0.7c0.7-0.2,1.5-0.4,2.4-0.6c0.8-0.2,1.7-0.4,2.6-0.6c0.9-0.1,1.8-0.3,2.8-0.4c0.5-0.1,1-0.1,1.5-0.2
					c0.5,0,1-0.1,1.5-0.1c1-0.1,2.1-0.1,3.1-0.1c2.1,0.1,4.3,0,6.6,0.3c2.2,0.2,4.5,0.7,6.7,1.1c2.2,0.6,4.4,1.2,6.5,2
					c2.1,0.7,4.1,1.7,6,2.6c1,0.5,1.9,1,2.8,1.5c0.4,0.3,0.9,0.5,1.3,0.8c0.4,0.3,0.8,0.5,1.2,0.8c0.8,0.5,1.6,1.1,2.3,1.6
					c0.7,0.5,1.4,1.1,2.1,1.7c0.6,0.5,1.3,1,1.9,1.6c0.5,0.5,1.1,1.1,1.6,1.5c0.5,0.5,0.9,0.9,1.3,1.4c0.4,0.4,0.7,0.9,1.1,1.2
					c0.6,0.7,1.1,1.4,1.4,1.8c0.3,0.4,0.5,0.6,0.5,0.6l-0.2,0.2c0,0-0.8-0.7-2.2-2c-0.4-0.3-0.7-0.7-1.2-1.1
					c-0.5-0.4-0.9-0.7-1.5-1.2c-0.5-0.4-1.1-0.8-1.7-1.3c-0.6-0.4-1.3-0.9-1.9-1.3c-0.7-0.4-1.4-1-2.1-1.4c-0.8-0.4-1.6-0.9-2.4-1.4
					c-0.4-0.2-0.8-0.5-1.2-0.7c-0.4-0.2-0.9-0.4-1.3-0.6c-0.9-0.4-1.8-0.9-2.7-1.3c-1.9-0.8-3.8-1.6-5.9-2.2c-2-0.7-4.2-1.2-6.3-1.8
					c-2.1-0.4-4.3-0.9-6.4-1.1c-2.1-0.3-4.2-0.4-6.3-0.6c-1,0-2,0-3,0c-0.5,0-1,0-1.5,0c-0.5,0-1,0.1-1.4,0.1
					c-0.9,0.1-1.8,0.1-2.7,0.2c-0.9,0.1-1.7,0.2-2.5,0.3c-0.8,0.1-1.6,0.2-2.3,0.3c-0.7,0.2-1.4,0.3-2.1,0.4
					c-0.7,0.1-1.3,0.3-1.8,0.4c-0.6,0.1-1.1,0.3-1.5,0.4c-1.8,0.5-2.9,0.8-2.9,0.8L244.8,47.6z"/>
			</g>
			<g>
				<path fill="#603813" d="M271.6,32.4c13.4,0.8,26.2,8.3,33.3,19.6"/>
				<path fill="#C3996B" d="M271.6,32.3c0,0,0.2,0,0.5-0.1c0.3-0.1,0.7-0.2,1.3-0.2c0.6-0.1,1.2-0.2,2.1-0.2c0.4,0,0.8,0,1.3-0.1
					c0.5,0,0.9,0,1.4,0.1c0.5,0,1,0,1.5,0.1c0.5,0.1,1.1,0.2,1.6,0.3c1.1,0.2,2.3,0.5,3.5,0.8c1.2,0.4,2.4,0.7,3.6,1.3
					c1.2,0.5,2.4,1.2,3.5,1.8c1.1,0.7,2.2,1.4,3.3,2.2c1.1,0.7,2,1.7,2.9,2.5c0.9,0.9,1.7,1.8,2.4,2.7c0.3,0.4,0.7,0.9,1,1.3
					c0.3,0.4,0.6,0.9,0.8,1.3c0.3,0.4,0.5,0.8,0.7,1.2c0.2,0.4,0.4,0.8,0.6,1.1c0.4,0.7,0.6,1.4,0.8,1.9c0.2,0.5,0.3,1,0.4,1.3
					C305,51.8,305,52,305,52l-0.2,0.2c0,0-0.4-0.5-1-1.4c-0.3-0.5-0.7-1-1.2-1.6c-0.5-0.6-1-1.3-1.6-2c-0.6-0.7-1.3-1.4-2.1-2.2
					c-0.7-0.8-1.6-1.5-2.5-2.3c-0.9-0.7-1.8-1.5-2.9-2.2c-1-0.7-2.1-1.4-3.1-2c-1.1-0.6-2.2-1.2-3.3-1.8c-1.1-0.6-2.2-1-3.3-1.5
					c-1.1-0.4-2.2-0.8-3.2-1.1c-1-0.3-2-0.6-2.9-0.8c-0.5-0.1-0.9-0.2-1.3-0.3c-0.4-0.1-0.8-0.1-1.2-0.2c-0.7-0.1-1.4-0.2-2-0.3
					c-1.1-0.1-1.7-0.2-1.7-0.2L271.6,32.3z"/>
			</g>
		</g>
		<path fill="#EFCAA0" stroke="#C1966B" stroke-width="2.9184" stroke-miterlimit="10" d="M268.5,105.2c0,0-5-15.7,9.6-24.4
			s33.9,16.8,19.7,39.4"/>

			<use xlink:href="#New_Symbol_2"  width="37.5" height="61.7" x="-18.8" y="-30.8" transform="matrix(1.9231 0 0 -1.9231 344.3357 200.3785)" overflow="visible"/>
		<g>
			<g>
				<defs>
					<path id="SVGID_7_" d="M127.3,410.7c-5.5,0.4-9.6,33.3-36.5,25.4c-28.7-8.4-16.2-35.9-20.2-39.6c-11-10.3-0.1-15.2-0.1-15.2
						c6.8-3.3,38.9-6.3,63.4,15.4C139,401.1,134.9,410.1,127.3,410.7z"/>
				</defs>
				<use xlink:href="#SVGID_7_"  overflow="visible" fill="#DFACCE"/>
				<clipPath id="SVGID_8_">
					<use xlink:href="#SVGID_7_"  overflow="visible"/>
				</clipPath>

					<ellipse transform="matrix(0.9699 0.2435 -0.2435 0.9699 97.4821 -13.4183)" clip-path="url(#SVGID_8_)" fill="#EFD4E6" cx="103" cy="387.6" rx="32.4" ry="11.1"/>
				<use xlink:href="#SVGID_7_"  overflow="visible" fill="none" stroke="#A473A7" stroke-width="2.1888" stroke-miterlimit="10"/>
			</g>
			<path fill="#DFACCE" stroke="#A473A7" stroke-width="2.1888" stroke-miterlimit="10" d="M76.4,394.1c0,0-1.9,4.5,2.6,6.5
				c0,0-5,6.3,2.2,8"/>
			<path fill="#DFACCE" stroke="#A473A7" stroke-width="2.1888" stroke-miterlimit="10" d="M111.4,426c0,0,5.5-1.2,4.3-6.7
				c0,0,9.2,0.5,5.9-7.4"/>
		</g>
	</g>
</g>
</svg>
