<?xml version="1.0" encoding="utf-8"?>
<!-- Generator: Adobe Illustrator 18.1.1, SVG Export Plug-In . SVG Version: 6.00 Build 0)  -->
<svg version="1.1" id="Layer_1" xmlns="http://www.w3.org/2000/svg" xmlns:xlink="http://www.w3.org/1999/xlink" x="0px" y="0px"
	 viewBox="0 0 500 500" enable-background="new 0 0 500 500" xml:space="preserve">
<symbol  id="New_Symbol" viewBox="-72.2 -45.3 144.4 90.7">

		<path fill="#FCCB98" stroke="#C08857" stroke-width="1.8556" stroke-linecap="round" stroke-linejoin="round" stroke-miterlimit="10" d="
		M71.3-9c0-10.6,0-21.2,0-31.8c-12.7-2.5-25.9-4.9-38.6-2.6c-20.3,3.7-36.3,18.6-52.7,31C-33-2.7-46.8,5.8-59.6,15.5
		c-3.5,2.7-7,5.5-9.3,9.2c-2.3,3.7-3.3,8.6-1.4,12.5c2.9,6.1,10.9,7.8,17.7,7C-32.3,41.8-16.5,25.4,3,19.1"/>

		<path fill="#FCCB98" stroke="#C08857" stroke-width="1.8556" stroke-linecap="round" stroke-linejoin="round" stroke-miterlimit="10" d="
		M-25.9,34.3c5.7,0.9,11.7-0.1,16.7-2.9c5-2.8,9.9-7,12.1-12.3"/>
</symbol>
<symbol  id="New_Symbol_1" viewBox="-70.1 -43 140.2 86">

		<path fill="#FCCB98" stroke="#C08857" stroke-width="1.8556" stroke-linecap="round" stroke-linejoin="round" stroke-miterlimit="10" d="
		M-9.4-39.8c2.4,1,4.7,2.3,6.7,4C-25.7-21.3-47.9-5.5-69.2,11.5c2.9-10.8,6.4-21.7,12.4-31.1c5.9-9.3,14.3-17.3,24.8-20.7
		C-24.7-42.8-16.4-42.7-9.4-39.8z"/>

		<path fill="#FCCB98" stroke="#C08857" stroke-width="1.8556" stroke-linecap="round" stroke-linejoin="round" stroke-miterlimit="10" d="
		M-68.9,22.8c1.1,2.2,2.7,4.2,4.4,6c4.2,4.1,9.5,6.6,15,8.6c17.8,6.3,37.5,6,55.8,1.5c18.3-4.6,35.4-13.3,51.2-23.6
		c3.9-2.5,7.7-5.1,11.6-7.6c0-11.9,0-23.9,0-35.8"/>
</symbol>
<g>
	<defs>
		<rect id="SVGID_1_" x="0" width="500" height="500"/>
	</defs>
	<clipPath id="SVGID_2_">
		<use xlink:href="#SVGID_1_"  overflow="visible"/>
	</clipPath>
	<g clip-path="url(#SVGID_2_)">
		<rect x="0" fill="#8EACDA" width="500" height="500"/>

			<use xlink:href="#New_Symbol_1"  width="140.2" height="86" x="-70.1" y="-43" transform="matrix(-1.9201 -0.1069 0.1069 -1.9201 26.6388 216.8272)" overflow="visible"/>

			<use xlink:href="#New_Symbol_1"  width="140.2" height="86" x="-70.1" y="-43" transform="matrix(1.9231 0 0 -1.9231 474.8189 201.0941)" overflow="visible"/>
		<path fill="#FFFFFF" stroke="#80929D" stroke-width="2.7449" stroke-miterlimit="10" d="M411.7,397.4
			c-22.1-80.3-18.8-167.4,9.5-245.7c-49.4-12.4-97.3-26-145.4-42.9c1.6,5.8,3.4,14.3,1.2,20c4.8,4.1,9.3,9.3,6.9,15.2
			c-10.2,2.9-18.3,11.3-22.6,21c2.5,2.1,5.5,5.5,8.1,7.6c-1.8,1.8-3.4,3.7-5.2,5.5c-1,6.7,3.2,13,7.2,18.5c4,5.5,7.9,12.4,6.7,19.1
			c-5.3-14.2-25.4-20.2-29.2-34.8c1.3-0.6,2.9-2.7,2.7-4.1c-2.3-1.1-3.9-1.6-6.2-2.7c0.5-2.1,1.7-4.9,2.1-6.9
			c-5.3-2.3-9.6-6.4-13.1-11c3.2-0.7,5.1-3,5.5-6.2c-7.6-2-14.5-5.1-20.6-10.1c-47.5,0.2-95.1,7.5-140.8,20.3
			c13.4,13.8,21.1,32.4,24.6,51.4c3.5,18.9,3,38.4,1.7,57.6c-2.9,45.2-9.7,90.2-20.2,134.2C209.9,421.4,315.5,420.1,411.7,397.4z"/>

			<path fill="#FCCB98" stroke="#C08857" stroke-width="3.5684" stroke-linecap="round" stroke-linejoin="round" stroke-miterlimit="10" d="
			M82,189.8c-10.8-2.4-22.4-1.1-32.4,3.8c-10,4.8-19.8,12.3-24.6,22.3"/>

			<use xlink:href="#New_Symbol"  width="144.4" height="90.7" x="-72.2" y="-45.3" transform="matrix(1.9231 0 0 -1.9231 470.7367 238.0105)" overflow="visible"/>

			<use xlink:href="#New_Symbol"  width="144.4" height="90.7" x="-72.2" y="-45.3" transform="matrix(-1.9201 -0.1069 0.1069 -1.9201 28.6626 253.9135)" overflow="visible"/>
	</g>
</g>
</svg>
