<?xml version="1.0" encoding="utf-8"?>
<!-- Generator: Adobe Illustrator 18.1.1, SVG Export Plug-In . SVG Version: 6.00 Build 0)  -->
<svg version="1.1" id="Layer_1" xmlns="http://www.w3.org/2000/svg" xmlns:xlink="http://www.w3.org/1999/xlink" x="0px" y="0px"
	 viewBox="0 0 500 500" enable-background="new 0 0 500 500" xml:space="preserve">
<g>
	<defs>
		<rect id="SVGID_1_" width="500" height="500"/>
	</defs>
	<clipPath id="SVGID_2_">
		<use xlink:href="#SVGID_1_"  overflow="visible"/>
	</clipPath>
	<g clip-path="url(#SVGID_2_)">
		<rect x="-15.5" y="-15.7" fill="#B9C5E5" width="770" height="574.6"/>
		<g>
			<path fill="#80491E" stroke="#5B2E11" stroke-width="4" stroke-miterlimit="10" d="M479,265.2c0,118.5,0,397.8,0,397.8h-731
				c0,0,0-279.3,0-397.8c0-118.5,105.5-212.9,365.5-212.9S479,146.8,479,265.2z"/>
			<path fill="#80491E" stroke="#5B2E11" stroke-width="4" stroke-miterlimit="10" d="M404,289.9c0,95.5,0,318.1,0,318.1h-581
				c0,0,0-222.6,0-318.1c0-95.5,83.5-171.6,290.5-171.6S404,194.5,404,289.9z"/>
		</g>
		<g>
			<path fill="#FFFFFF" stroke="#919396" stroke-width="2.6822" stroke-miterlimit="10" d="M140.4,204.6c0,0,39,97.2-19.4,219.5
				c0,0-219.8,29.5-249.5-9.6c-65.2-85.7,19.3-197.5,19.3-197.5s71.4-19.9,114.5,1.6C5.3,218.7,63.8,184.7,140.4,204.6z"/>
			<g>
				<defs>
					<path id="SVGID_3_" d="M142.7,264.4c0,0,10.1,76.3-20.2,141.1C122.6,405.4,108.2,359.4,142.7,264.4z"/>
				</defs>
				<use xlink:href="#SVGID_3_"  overflow="visible" fill="#82C5EC"/>
				<clipPath id="SVGID_4_">
					<use xlink:href="#SVGID_3_"  overflow="visible"/>
				</clipPath>
				<g clip-path="url(#SVGID_4_)">
					<g>
						<path fill="none" stroke="#1D76BB" stroke-width="2.6822" stroke-miterlimit="10" d="M132.8,378.8c0,0-2.2-20.5-11.9-24.8"/>
						<path fill="none" stroke="#1D76BB" stroke-width="2.6822" stroke-miterlimit="10" d="M135,370.2c0,0,0.5-15.1-13-22.1"/>
					</g>
					<g>
						<path fill="none" stroke="#1D76BB" stroke-width="2.6822" stroke-miterlimit="10" d="M140.2,345.9c0,0-4-20.2-14.1-23.6"/>
						<path fill="none" stroke="#1D76BB" stroke-width="2.6822" stroke-miterlimit="10" d="M141.5,337.1c0,0-0.8-15.1-14.9-20.9"/>
					</g>
					<path fill="none" stroke="#1D76BB" stroke-width="2.6822" stroke-miterlimit="10" d="M143.7,312.8c0,0-3.8-12.7-10.7-19"/>
					<path fill="none" stroke="#1D76BB" stroke-width="2.6822" stroke-miterlimit="10" d="M144.2,303.9c0,0-1.5-9.5-9.5-15.6"/>
				</g>
			</g>
		</g>
		<g>
			<path fill="#FFFFFF" stroke="#919396" stroke-width="2.6822" stroke-miterlimit="10" d="M430.7,204.6c0,0,39,97.2-19.4,219.5
				c0,0-219.8,29.5-249.5-9.6c-65.2-85.7,8.4-210,8.4-210s60.3,0.1,82.9,26.6C253.2,231.2,345.9,191.6,430.7,204.6z"/>
			<g>
				<defs>
					<path id="SVGID_5_" d="M433,264.4c0,0,10.1,76.3-20.2,141.1C412.9,405.4,398.5,359.4,433,264.4z"/>
				</defs>
				<use xlink:href="#SVGID_5_"  overflow="visible" fill="#82C5EC"/>
				<clipPath id="SVGID_6_">
					<use xlink:href="#SVGID_5_"  overflow="visible"/>
				</clipPath>
				<g clip-path="url(#SVGID_6_)">
					<g>
						<path fill="none" stroke="#1D76BB" stroke-width="2.6822" stroke-miterlimit="10" d="M423.1,378.8c0,0-2.2-20.5-11.9-24.8"/>
						<path fill="none" stroke="#1D76BB" stroke-width="2.6822" stroke-miterlimit="10" d="M425.3,370.2c0,0,0.5-15.1-13-22.1"/>
					</g>
					<g>
						<path fill="none" stroke="#1D76BB" stroke-width="2.6822" stroke-miterlimit="10" d="M430.4,345.9c0,0-4-20.2-14.1-23.6"/>
						<path fill="none" stroke="#1D76BB" stroke-width="2.6822" stroke-miterlimit="10" d="M431.8,337.1c0,0-0.8-15.1-14.9-20.9"/>
					</g>
					<path fill="none" stroke="#1D76BB" stroke-width="2.6822" stroke-miterlimit="10" d="M434,312.8c0,0-3.8-12.7-10.7-19"/>
					<path fill="none" stroke="#1D76BB" stroke-width="2.6822" stroke-miterlimit="10" d="M434.5,303.9c0,0-1.5-9.5-9.5-15.6"/>
				</g>
			</g>
		</g>
		<path fill="#8682BE" stroke="#5653A2" stroke-width="2.6822" stroke-miterlimit="10" d="M422.4,542.7v-78.5
			c0-25.1-20.4-45.5-45.5-45.5H-417c-47.4,0-85.8,38.4-85.8,85.8v306h30.8c8.2-29.2,32.7-65.3,104.4-65.3c120.1,0,259.4,0,259.4,0
			s-116,0-90.3,0"/>
		<g>

				<path fill="#36B04A" stroke="#0A8041" stroke-width="2.6822" stroke-linecap="round" stroke-linejoin="round" stroke-miterlimit="10" d="
				M264.6,300.8c0,0-34.5,7.3-51.7,75.7c0,0,7.9,18.6,50.1,19.6l4.3-41"/>

				<path fill="#36B04A" stroke="#0A8041" stroke-width="4" stroke-linecap="round" stroke-linejoin="round" stroke-miterlimit="10" d="
				M294.6,277.5c0,0,89.7-40.5,95.1,203.5H217.4c0,0,13.6-43.7,18.1-102.9C241.2,304.8,268.2,275.5,294.6,277.5z"/>

				<path fill="#36B04A" stroke="#0A8041" stroke-width="2.6822" stroke-linecap="round" stroke-linejoin="round" stroke-miterlimit="10" d="
				M340.2,293.5c0,0,42,4.1,65.9,89.3c0,0-10.5,20.3-66.8,21.3l-5.7-44.7"/>
			<g>

					<path fill="#F79839" stroke="#CC6732" stroke-width="2.6822" stroke-linecap="round" stroke-linejoin="round" stroke-miterlimit="10" d="
					M323.4,274.7c0,0,36-67.6,40.3-54.3c12.7,38.7,27.5,48.5,33.9,52.9c0,0-1.9,10.6-14,11.9c0,0,4.2,6,9.1,9.1
					c0,0-12.7,13.9-32.1,4.8l3.1,10C363.8,308.9,326.3,310.5,323.4,274.7z"/>

					<path fill="#F79839" stroke="#CC6732" stroke-width="2.6822" stroke-linecap="round" stroke-linejoin="round" stroke-miterlimit="10" d="
					M264,295.3c-4.2,29.6-44.8,22.4-44.8,22.4c4.8-6.6,7.9-9.7,7.9-9.7c-18.8,4.2-31.5-7.9-31.5-7.9c2.9-2.5,3.8-4.8,6-7.9
					c-10.3,0-15.7-10.3-15.7-10.3c12.7-8.5,21.2-32.7,21.2-32.7l11.5,22.9L264,295.3z"/>

					<path fill="#EDC89F" stroke="#BF956B" stroke-width="2.6822" stroke-linecap="round" stroke-linejoin="round" stroke-miterlimit="10" d="
					M259,305.6l2.6,7c1.5,4.2,4.9,7.4,9.1,8.7c18.1,5.4,45.2-1.2,61.8-18.7c2-2.2,2.9-5.2,2.4-8.2l-1.2-20.7L259,305.6z"/>

					<path fill="#EDC89F" stroke="#BF956B" stroke-width="2.6822" stroke-linecap="round" stroke-linejoin="round" stroke-miterlimit="10" d="
					M225.1,240.8c0,0-5.3-21.1-21.5-21.4c-22.5-0.5-14.9,50.3,8.1,50.1"/>

					<ellipse fill="#EDC89F" stroke="#BF956B" stroke-width="2.6822" stroke-linecap="round" stroke-linejoin="round" stroke-miterlimit="10" cx="278.8" cy="240.4" rx="82" ry="70.3"/>
				<ellipse cx="271.9" cy="226.3" rx="4.3" ry="8.8"/>
				<ellipse cx="227.6" cy="226.4" rx="4.1" ry="8.3"/>

					<path fill="#EDC89F" stroke="#BF956B" stroke-width="2.6822" stroke-linecap="round" stroke-linejoin="round" stroke-miterlimit="10" d="
					M238.5,231.2c0,0-12.2,3.1-11,15.1c1.2,12,15.5,12.7,23.3,8.5"/>
				<g>
					<path fill="#FFFFFF" stroke="#BE202E" stroke-width="2.6822" stroke-miterlimit="10" d="M173.7,287.6c3-3.7,7.7-3.4,10.6-1.7
						L231,267c1.9-0.8,4.1,0.2,4.9,2.1l0,0c0.8,1.9-0.2,4.1-2.1,4.9l-46.7,18.9c-0.6,2.3-2,5.5-4.5,6.5c-4.1,1.7-8.7-0.2-10.3-4.3
						C171.4,292.5,172,289.6,173.7,287.6z"/>
					<circle fill="#BE202E" stroke="#FFFFFF" stroke-width="2.6822" stroke-miterlimit="10" cx="179.6" cy="292" r="4.6"/>

						<line fill="#FFFFFF" stroke="#BE202E" stroke-width="2.6822" stroke-miterlimit="10" x1="182.7" y1="290.6" x2="236.8" y2="268.8"/>

						<line fill="#FFFFFF" stroke="#BE202E" stroke-width="2.6822" stroke-linecap="round" stroke-miterlimit="10" x1="191.2" y1="284.1" x2="192.7" y2="287.6"/>

						<line fill="#FFFFFF" stroke="#BE202E" stroke-width="2.6822" stroke-linecap="round" stroke-miterlimit="10" x1="201.7" y1="279.9" x2="203.1" y2="283.4"/>

						<line fill="#FFFFFF" stroke="#BE202E" stroke-width="2.6822" stroke-linecap="round" stroke-miterlimit="10" x1="212.2" y1="275.7" x2="213.6" y2="279.1"/>

						<line fill="#FFFFFF" stroke="#BE202E" stroke-width="2.6822" stroke-linecap="round" stroke-miterlimit="10" x1="220.9" y1="272.1" x2="222.3" y2="275.6"/>
				</g>

					<path fill="#EDC89F" stroke="#BF956B" stroke-width="2.6822" stroke-linecap="round" stroke-linejoin="round" stroke-miterlimit="10" d="
					M230.1,276.3c7.9-3.6,3.6-10,3.6-10s2-0.2,5.4-0.6c25.4-3,40.8,9.7,40.8,9.7"/>

					<path fill="#EDC89F" stroke="#BF956B" stroke-width="2.6822" stroke-linecap="round" stroke-linejoin="round" stroke-miterlimit="10" d="
					M267,213.6c0,0,5.2,7.1,17,9.9"/>

					<path fill="#EDC89F" stroke="#BF956B" stroke-width="2.6822" stroke-linecap="round" stroke-linejoin="round" stroke-miterlimit="10" d="
					M221,223.4c0,0,6-2.7,10-8.6"/>

					<path fill="#F79839" stroke="#CC6732" stroke-width="2.6822" stroke-linecap="round" stroke-linejoin="round" stroke-miterlimit="10" d="
					M197.8,230.2c0,0,6.6-26.2,31.2-40.7c33.2-19.6,30.1-24.8,30.1-24.8S181.7,146.6,197.8,230.2z"/>

					<path fill="#F79839" stroke="#CC6732" stroke-width="2.6822" stroke-linecap="round" stroke-linejoin="round" stroke-miterlimit="10" d="
					M211,196.2c0,0-12.1,13.8-13.2,31.8c0,0-1.6-33,15.9-50.5"/>

					<path fill="#F79839" stroke="#CC6732" stroke-width="2.6822" stroke-linecap="round" stroke-linejoin="round" stroke-miterlimit="10" d="
					M233.7,164.1c0,0,33.9,74.5,128.7,60.4l1,0.2c0,0,4.2-37.9-26.3-53.4C285.7,145.4,233.7,164.1,233.7,164.1z"/>

					<path fill="#F79839" stroke="#CC6732" stroke-width="2.6822" stroke-linecap="round" stroke-linejoin="round" stroke-miterlimit="10" d="
					M362.4,224.5c-17.1-28.1-71.5-39.9-71.5-39.9"/>

					<path fill="#F79839" stroke="#CC6732" stroke-width="2.6822" stroke-linecap="round" stroke-linejoin="round" stroke-miterlimit="10" d="
					M324.4,176.5c0,0,30.8,10,38.6,45.6"/>

					<path fill="#EDC89F" stroke="#BF956B" stroke-width="2.6822" stroke-linecap="round" stroke-linejoin="round" stroke-miterlimit="10" d="
					M337.1,233.7c0,0,6-21.8,23-17.7c23.5,5.7,13.3,53.8-16.9,51.1"/>
			</g>

				<path fill="#EDC89F" stroke="#BF956B" stroke-width="2.6822" stroke-linecap="round" stroke-linejoin="round" stroke-miterlimit="10" d="
				M309.9,327.5c0,0,52.6-0.5,88,67.1l5-4.1c0,0,6.7,16.6,0.6,33.6C397.5,441.1,309.9,327.5,309.9,327.5z"/>
		</g>

			<path fill="#8682BE" stroke="#5653A2" stroke-width="2.6822" stroke-linecap="round" stroke-linejoin="round" stroke-miterlimit="10" d="
			M421.5,494c0,0-8.2-191.4-171.9-156c-144,31.1-168.3,79.8-632.7,81.5"/>

			<path fill="#8682BE" stroke="#5653A2" stroke-width="2.6822" stroke-linecap="round" stroke-linejoin="round" stroke-miterlimit="10" d="
			M391.6,549.9c0,0,0-215.3-171-175.7C77,407.5,52.3,454.1-412.1,455.8"/>
		<polygon fill="#8682BE" points="110,431.4 110,506 362.5,506 371.6,458.6 344.3,420 		"/>

			<path fill="#EDC89F" stroke="#BF956B" stroke-width="2.6822" stroke-linecap="round" stroke-linejoin="round" stroke-miterlimit="10" d="
			M306.4,324.7c0,0-23.3,14.7-14.7,24.1c4.3,4.3,19-5.2,19-5.2s-21.6,31-2.6,38.8c19,7.8,50-22.4,51.8-25.9S343.4,314.3,306.4,324.7
			z"/>

			<path fill="#EDC89F" stroke="#BF956B" stroke-width="2.6822" stroke-linecap="round" stroke-linejoin="round" stroke-miterlimit="10" d="
			M239.9,333.1c0,0,18.6,17.1,9.2,24.1c-4.6,3.1-16.3-7.9-16.3-7.9s14.3,31.4-4.2,35.1c-18.5,3.7-41.5-28.6-42.5-31.9
			C185.2,349.1,208.1,317.6,239.9,333.1z"/>
		<g>

				<path fill="#B1A758" stroke="#676028" stroke-width="4" stroke-linecap="round" stroke-linejoin="round" stroke-miterlimit="10" d="
				M559.8,377.1c0,1.3-0.3,53.9-0.3,53.9H444.2c0,0-0.3-52.5-0.3-53.9c0-31.6,25.4-56.8,57.4-57.4c0.2,0,0.4,0.2,0.6,0.2
				c0.2,0,0.4-0.4,0.6-0.4C534.4,320.2,559.8,345.5,559.8,377.1z"/>
			<g>

					<circle fill="#FFFFFF" stroke="#676028" stroke-width="2.6822" stroke-linecap="round" stroke-linejoin="round" stroke-miterlimit="10" cx="502.2" cy="378" r="41.5"/>
				<g>
					<g>
						<line fill="none" stroke="#343433" stroke-width="4" stroke-miterlimit="10" x1="479" y1="379" x2="467" y2="379"/>
						<g>

								<line fill="none" stroke="#343433" stroke-width="2.6822" stroke-miterlimit="10" x1="481.6" y1="390.3" x2="472.1" y2="395.6"/>

								<line fill="none" stroke="#343433" stroke-width="2.6822" stroke-miterlimit="10" x1="490.3" y1="399.1" x2="484.8" y2="408.5"/>
						</g>
						<g>

								<line fill="none" stroke="#343433" stroke-width="2.6822" stroke-miterlimit="10" x1="472.1" y1="362" x2="481.6" y2="367.3"/>

								<line fill="none" stroke="#343433" stroke-width="2.6822" stroke-miterlimit="10" x1="484.8" y1="349.1" x2="490.3" y2="358.5"/>
						</g>
					</g>
				</g>
			</g>
		</g>
		<g>
			<g>

					<polygon fill="#FFEFB0" stroke="#D7AA68" stroke-width="2.6822" stroke-linecap="round" stroke-linejoin="round" stroke-miterlimit="10" points="
					714.8,251.8 488.9,251.8 532.1,74 671.6,74 				"/>
			</g>
		</g>
		<g>
			<g>

					<path fill="#CDCCCB" stroke="#808080" stroke-width="2.6822" stroke-linecap="round" stroke-linejoin="round" stroke-miterlimit="10" d="
					M324.8,135l-3.6,14.1l-38.7-9.8l3.6-14.1c1.8-7,11.4-8.3,22-5.6C318.8,122.3,326.6,128,324.8,135z"/>

					<ellipse transform="matrix(0.9691 0.2465 -0.2465 0.9691 44.5014 -70.0942)" fill="#CDCCCB" stroke="#808080" stroke-width="2.6822" stroke-linecap="round" stroke-linejoin="round" stroke-miterlimit="10" cx="302.2" cy="142.7" rx="20" ry="10.9"/>
			</g>
			<path fill="#0D72B9" stroke="#2F368F" stroke-width="2.6822" stroke-miterlimit="10" d="M253.4,164.5c25.6,9.6,54.8,15.2,82.2,14
				c27.4-1.2,7.8-39.6-40.8-46.6c-39.4-5.7-70.8,12.7-76.9,27.3c-1.7,4-2,12.1,12,7.3C240.6,162.9,253.4,164.5,253.4,164.5z"/>

				<path fill="#0D72B9" stroke="#2F368F" stroke-width="2.6822" stroke-linecap="round" stroke-linejoin="round" stroke-miterlimit="10" d="
				M247.4,142.5c0,0,12.6-14.7,52.9-9.8"/>

				<path fill="#0D72B9" stroke="#2F368F" stroke-width="2.6822" stroke-linecap="round" stroke-linejoin="round" stroke-miterlimit="10" d="
				M307.9,134.6c0,0,20.5,7.5,25.9,21.1"/>

				<path fill="#0D72B9" stroke="#2F368F" stroke-width="2.6822" stroke-linecap="round" stroke-linejoin="round" stroke-miterlimit="10" d="
				M246.5,161.5c0,0-1.2,0.2,8.4,3.5"/>
		</g>
		<g>

				<polygon fill="#7998CE" stroke="#3A67B0" stroke-width="2.6822" stroke-linecap="round" stroke-linejoin="round" stroke-miterlimit="10" points="
				111.5,344.5 43.3,347.5 61.1,423.2 129.9,427 			"/>
			<g>

					<path fill="#7998CE" stroke="#3A67B0" stroke-width="2.6822" stroke-linecap="round" stroke-linejoin="round" stroke-miterlimit="10" d="
					M111.5,344.5l41.8-25.8l17.3,73.8L129.8,427C129.8,427,111,344.2,111.5,344.5z"/>

					<polygon fill="#7998CE" stroke="#3A67B0" stroke-width="2.6822" stroke-linecap="round" stroke-linejoin="round" stroke-miterlimit="10" points="
					43.3,346.8 91.2,322.3 153.3,318.6 111.5,344.5 				"/>
			</g>
			<ellipse transform="matrix(0.9736 -0.2282 0.2282 0.9736 -73.1268 32.2722)" cx="103" cy="332.4" rx="24.7" ry="3.8"/>
			<g>

					<path fill="#FFFFFF" stroke="#989897" stroke-width="2.6822" stroke-linecap="round" stroke-linejoin="round" stroke-miterlimit="10" d="
					M120.9,326c-1.9,7.8-1.8-4.8-2-4.6c-1.4,2.2-3,7.7-14,10.3c-12.3,2.9-22.6,3.5-23.1,1.5c0,0-4.5-21.8-10.6-48.1
					c0,0,29.2,3.2,38.5,0.6c11.3-3.2,19.8-10.8,19.8-10.8S127.1,300.9,120.9,326z"/>

					<path fill="#FFFFFF" stroke="#989897" stroke-width="2.6822" stroke-linecap="round" stroke-linejoin="round" stroke-miterlimit="10" d="
					M127,326.8c0.1,0.2,0,0.5-0.2,0.7c-1.5,2.2-11.1,5.9-22.9,8.6c-13.3,3.1-24.4,4-24.9,1.9c0,0-10-4.9-11.2-43.3
					c0,0,23.6-1.2,33.9-2.7c12.5-1.8,32.9-12.3,32.9-12.3L127,326.8z"/>

					<path fill="#FFFFFF" stroke="#989897" stroke-width="2.6822" stroke-linecap="round" stroke-linejoin="round" stroke-miterlimit="10" d="
					M88.4,310.1c0,0,0.2,15.1,9.9,27.2"/>

					<path fill="#FFFFFF" stroke="#989897" stroke-width="2.6822" stroke-linecap="round" stroke-linejoin="round" stroke-miterlimit="10" d="
					M113.4,313.6c0,0-2.5,8-0.9,20.2"/>
			</g>
		</g>
		<g>
			<g>
				<path fill="#603A17" stroke="#815326" stroke-width="2.6822" stroke-miterlimit="10" d="M711.6,450.1v276.5c0,2.3-2,4.2-4.5,4.2
					h-11.4c-2.4,0-4.4-1.8-4.5-4.1c-0.2-32.9-4.5-121.3-68.7-121.3c-29.8,0-51.2,0-51.2,0s-21.3,0-51.2,0
					c-64.2,0-68.5,88.4-68.7,121.3c0,2.3-2,4.1-4.5,4.1h-12.4c-2.5,0-4.5-1.9-4.5-4.2V450.1H711.6z"/>
			</g>
			<path fill="#603A17" stroke="#815326" stroke-width="2.6822" stroke-miterlimit="10" d="M728.7,457.6H414.3c-3.7,0-6.7-3-6.7-6.7
				V439c0-3.7,3-6.7,6.7-6.7h314.4c3.7,0,6.7,3,6.7,6.7v11.9C735.5,454.6,732.5,457.6,728.7,457.6z"/>
		</g>
	</g>
</g>
</svg>
