<?xml version="1.0" encoding="utf-8"?>
<!-- Generator: Adobe Illustrator 18.1.1, SVG Export Plug-In . SVG Version: 6.00 Build 0)  -->
<svg version="1.1" id="Layer_1" xmlns="http://www.w3.org/2000/svg" xmlns:xlink="http://www.w3.org/1999/xlink" x="0px" y="0px"
	 viewBox="0 0 500 500" enable-background="new 0 0 500 500" xml:space="preserve">
<symbol  id="New_Symbol" viewBox="-20.7 -20.7 41.3 41.3">
	<path fill="#D0D2D3" stroke="#929497" stroke-width="1.7012" stroke-miterlimit="10" d="M17.3-17.3c-3.3-3.3-8.7-3.3-12,0
		c-2.3,2.3-3,5.5-2.1,8.4L0-4.9l-3.2-4c0.8-2.9,0.1-6.1-2.1-8.4c-3.3-3.3-8.7-3.3-12,0c-3.3,3.3-3.3,8.7,0,12c2.3,2.3,5.5,3,8.4,2.1
		l4,3.2l-4,3.2c-2.9-0.8-6.1-0.1-8.4,2.1c-3.3,3.3-3.3,8.7,0,12c3.3,3.3,8.7,3.3,12,0c2.3-2.3,3-5.5,2.1-8.4l3.2-4l3.2,4
		c-0.8,2.9-0.1,6.1,2.1,8.4c3.3,3.3,8.7,3.3,12,0c3.3-3.3,3.3-8.7,0-12c-2.3-2.3-5.5-3-8.4-2.1L4.9,0l4-3.2c2.9,0.8,6.1,0.1,8.4-2.1
		C20.6-8.6,20.6-14,17.3-17.3z"/>
</symbol>
<g>
	<rect x="0" fill="#EDF7FA" width="500" height="500"/>

		<use xlink:href="#New_Symbol"  width="41.3" height="41.3" x="-20.7" y="-20.7" transform="matrix(1.9231 0 0 -1.9231 158.674 166.9707)" overflow="visible"/>
	<path fill="#EFEEEE" stroke="#C8C8C8" stroke-width="3.2716" stroke-miterlimit="10" d="M473.5,299.1l-18,35.2
		c-36.2,70.9-109,115.5-188.6,115.5h-33.9c-79.6,0-152.4-44.6-188.6-115.5l-18-35.2c-1.8-3.6,0.7-7.9,4.7-8l218-7l0.8,0l0.8,0l218,7
		C472.8,291.2,475.4,295.5,473.5,299.1z"/>
	<ellipse fill="#FFFFFF" stroke="#C8C8C8" stroke-width="3.2716" stroke-miterlimit="10" cx="250.1" cy="283" rx="228.4" ry="75"/>
	<g>
		<defs>
			<ellipse id="SVGID_1_" cx="250" cy="275.3" rx="189.3" ry="59.5"/>
		</defs>
		<use xlink:href="#SVGID_1_"  overflow="visible" fill="#F4F4F4"/>
		<clipPath id="SVGID_2_">
			<use xlink:href="#SVGID_1_"  overflow="visible"/>
		</clipPath>

			<ellipse clip-path="url(#SVGID_2_)" fill="#A1CEE5" stroke="#83A9B9" stroke-width="3.2716" stroke-miterlimit="10" cx="250" cy="349.9" rx="163.3" ry="51.3"/>
		<use xlink:href="#SVGID_1_"  overflow="visible" fill="none" stroke="#C8C8C8" stroke-width="3.2716" stroke-miterlimit="10"/>
	</g>
	<g>
		<circle fill="#D0D2D3" stroke="#929497" stroke-width="3.2716" stroke-miterlimit="10" cx="249.9" cy="155.8" r="49.2"/>
		<circle fill="#E6E7E8" stroke="#A6A8AB" stroke-width="3.2716" stroke-miterlimit="10" cx="249.9" cy="155.8" r="40.3"/>
		<path fill="#E6E7E8" stroke="#A6A8AB" stroke-width="3.2716" stroke-miterlimit="10" d="M265.4,240h-31v-81.8
			c0-7.3,5.9-13.2,13.2-13.2h4.6c7.3,0,13.2,5.9,13.2,13.2V240z"/>
		<path fill="#D0D2D3" stroke="#A6A8AB" stroke-width="3.2716" stroke-miterlimit="10" d="M271.4,244.3c0,0,0,5.7-21.5,5.7
			c-21.5,0-21.5-5.7-21.5-5.7v-20.5c0-2.1,1.7-3.8,3.8-3.8h35.4c2.1,0,3.8,1.7,3.8,3.8V244.3z"/>
	</g>
	<circle fill="#26A9E0" stroke="#1B75BB" stroke-width="3.2716" stroke-miterlimit="10" cx="158.7" cy="167" r="5.2"/>

		<use xlink:href="#New_Symbol"  width="41.3" height="41.3" x="-20.7" y="-20.7" transform="matrix(1.9231 0 0 -1.9231 341.148 166.9707)" overflow="visible"/>
	<circle fill="#EE4036" stroke="#BE1E2D" stroke-width="3.2716" stroke-miterlimit="10" cx="341.1" cy="167" r="5.2"/>
</g>
</svg>
