<?xml version="1.0" encoding="utf-8"?>
<!-- Generator: Adobe Illustrator 18.1.1, SVG Export Plug-In . SVG Version: 6.00 Build 0)  -->
<svg version="1.1" id="Layer_1" xmlns="http://www.w3.org/2000/svg" xmlns:xlink="http://www.w3.org/1999/xlink" x="0px" y="0px"
	 viewBox="0 0 500 500" enable-background="new 0 0 500 500" xml:space="preserve">
<g>
	<g>
		<g>
			<g>
				<defs>
					<rect id="SVGID_2_" width="500" height="500"/>
				</defs>
				<clipPath id="SVGID_3_">
					<use xlink:href="#SVGID_2_"  overflow="visible"/>
				</clipPath>
				<g clip-path="url(#SVGID_3_)">

						<rect x="-23.8" y="-98.4" fill="#625E76" stroke="#000000" stroke-width="2.4795" stroke-miterlimit="10" width="825.1" height="696.8"/>
					<linearGradient id="SVGID_5_" gradientUnits="userSpaceOnUse" x1="105.8" y1="428.1167" x2="717.4" y2="428.1167">
						<stop  offset="0" style="stop-color:#FFFFFF"/>
						<stop  offset="0.3724" style="stop-color:#FDFDFD;stop-opacity:0.6274"/>
						<stop  offset="0.5065" style="stop-color:#F6F6F6;stop-opacity:0.4931"/>
						<stop  offset="0.6022" style="stop-color:#EBEBEB;stop-opacity:0.3974"/>
						<stop  offset="0.6795" style="stop-color:#DADADA;stop-opacity:0.32"/>
						<stop  offset="0.7457" style="stop-color:#C4C4C4;stop-opacity:0.2537"/>
						<stop  offset="0.8044" style="stop-color:#A8A8A8;stop-opacity:0.195"/>
						<stop  offset="0.8575" style="stop-color:#888888;stop-opacity:0.1419"/>
						<stop  offset="0.9063" style="stop-color:#626262;stop-opacity:9.308982e-02"/>
						<stop  offset="0.9517" style="stop-color:#373737;stop-opacity:4.767627e-02"/>
						<stop  offset="0.9919" style="stop-color:#090909;stop-opacity:7.380247e-03"/>
						<stop  offset="0.9993" style="stop-color:#000000;stop-opacity:0"/>
					</linearGradient>
					<path opacity="0.81" fill="url(#SVGID_5_)" enable-background="new    " d="M105.8,217.1l317.4,622.4c0,0,294.2,16.5,294.2,0
						s0-830.1,0-830.1H552.1L201.3,100L105.8,217.1z"/>
					<g>
						<path fill="#717373" stroke="#C2C2C3" stroke-width="2.4795" stroke-miterlimit="10" d="M22.3,317.8L67,339.6
							c0.6,0.3,1,0.9,1.1,1.6l24.2,170.3l-56.1,16.7L-4.2,329.3c-0.1-0.4,0.1-0.8,0.5-1L22.3,317.8z"/>
						<path fill="#4E4E4E" stroke="#B3B2B3" stroke-width="2.4795" stroke-miterlimit="10" d="M-2.6,329.4l46.5,22
							c0.8,0.4,1.2,1.2,1.2,2l-8.9,171.8c-0.1,1.5-1.6,2.4-2.9,1.8l-123.7-52.4c-1.2-0.5-1.6-1.9-1-3l86.2-141.4
							C-4.8,329.3-3.6,328.9-2.6,329.4z"/>
						<line fill="none" stroke="#C2C2C3" stroke-width="2.4795" stroke-miterlimit="10" x1="45.1" y1="351.9" x2="67.9" y2="340"/>
						<path fill="#717373" stroke="#C2C2C3" stroke-width="2.4795" stroke-miterlimit="10" d="M37.8,337.9l9.3-5.5l74.7-205.5
							l-6-8.1l-15,12.5L31,320.5l5,16.7C36.2,338,37.1,338.4,37.8,337.9z"/>

							<ellipse transform="matrix(-0.9687 0.2482 -0.2482 -0.9687 120.7727 688.5094)" fill="#4E4E4E" stroke="#B3B2B3" stroke-width="2.4795" stroke-miterlimit="10" cx="17" cy="351.9" rx="8.3" ry="9.5"/>

							<ellipse transform="matrix(-0.9687 0.2482 -0.2482 -0.9687 112.574 691.7966)" fill="#686969" stroke="#B3B2B3" stroke-width="2.4795" stroke-miterlimit="10" cx="12.7" cy="353" rx="8.3" ry="9.5"/>
						<path fill="#4E4E4E" stroke="#B3B2B3" stroke-width="2.4795" stroke-miterlimit="10" d="M115.8,118.8L36.7,338
							c-0.1,0.4-0.6,0.6-1,0.4L17,329.8c-0.3-0.2-0.5-0.6-0.4-0.9l78.6-217.5L115.8,118.8z"/>
					</g>
					<g>
						<path fill="#4E4E4E" stroke="#B3B2B3" stroke-width="2.4795" stroke-miterlimit="10" d="M46.8,139.8c-2-2.2-5-5.2-6.4-6.9
							c-0.3-0.4-0.5-0.9-0.5-1.3c0.1-2.4,0.9-10.4,8-16.7c1.2-1,6.9,0.3,10.2,0.4"/>
						<path fill="#FFFFFF" stroke="#000000" stroke-width="2.4795" stroke-miterlimit="10" d="M248.2,90.6"/>
						<path fill="#4E4E4E" stroke="#B3B2B3" stroke-width="2.4795" stroke-miterlimit="10" d="M71.3,94.8c4.1-4.3,22.1-1,32.8-1.8
							c8.8-0.6,27.9-16.9,53.6-19c57.9-4.9,92.3,16.8,92.3,16.8l-97.2,210.8c0,0-38.8-12.1-72.7-59.3c-15-20.9-15-46-20.3-53.1
							c-5.6-7.6-14.5-18.1-18.6-23.9c-1-1.4-1.4-3.1-1.2-4.9C41.1,151.3,46.5,120.7,71.3,94.8z"/>
						<path fill="#FFFFFF" stroke="#000000" stroke-width="2.4795" stroke-miterlimit="10" d="M90.7,69.4"/>
						<g>
							<g>

									<ellipse id="SVGID_4_" transform="matrix(-0.4189 0.908 -0.908 -0.4189 463.9431 95.954)" fill="#B3B2B3" cx="201.3" cy="196.4" rx="115.9" ry="49.3"/>
							</g>
							<g>
								<g>
									<defs>
										<path id="SVGID_6_" d="M158.8,175.7c27.1-58.9,69.3-97,94.3-85s23.2,69.5-4,128.4s-69.3,97-94.3,85
											S131.7,234.6,158.8,175.7z"/>
									</defs>
									<clipPath id="SVGID_7_">
										<use xlink:href="#SVGID_6_"  overflow="visible"/>
									</clipPath>
									<g clip-path="url(#SVGID_7_)">

											<ellipse id="SVGID_1_" transform="matrix(-0.4189 0.908 -0.908 -0.4189 463.9431 95.954)" fill="none" cx="201.3" cy="196.4" rx="107.1" ry="45.6"/>
									</g>
								</g>

									<line fill="none" stroke="#E6E7E8" stroke-width="4.2796" stroke-linecap="round" stroke-linejoin="round" stroke-miterlimit="10" x1="49.5" y1="153.6" x2="63" y2="170.2"/>

									<line fill="none" stroke="#E6E7E8" stroke-width="4.2796" stroke-linecap="round" stroke-linejoin="round" stroke-miterlimit="10" x1="66.5" y1="116.1" x2="85.6" y2="124.4"/>

									<line fill="none" stroke="#E6E7E8" stroke-width="4.2796" stroke-linecap="round" stroke-linejoin="round" stroke-miterlimit="10" x1="77.1" y1="102.6" x2="98.4" y2="105"/>

									<line fill="none" stroke="#E6E7E8" stroke-width="4.2796" stroke-linecap="round" stroke-linejoin="round" stroke-miterlimit="10" x1="55.5" y1="136.3" x2="72.9" y2="147.8"/>
							</g>
						</g>
					</g>
				</g>
			</g>
		</g>
	</g>
	<path fill="#F3F2F2" stroke="#C9E8EA" stroke-width="2.4947" stroke-miterlimit="10" d="M197.5,142.6c-5.7-2.6-11.6-3.9-17.6-4
		c-6.9,10.6-13.4,22.2-19.4,34.5c-7.2,14.9-12.9,29.6-17.2,43.9c4,4.6,8.9,8.4,14.7,11.1c22.6,10.4,49.8-0.3,60.7-23.9
		C229.6,180.6,220.1,153,197.5,142.6z"/>
</g>
</svg>
