<?xml version="1.0" encoding="utf-8"?>
<!-- Generator: Adobe Illustrator 18.1.1, SVG Export Plug-In . SVG Version: 6.00 Build 0)  -->
<svg version="1.1" id="Layer_1" xmlns="http://www.w3.org/2000/svg" xmlns:xlink="http://www.w3.org/1999/xlink" x="0px" y="0px"
	 viewBox="0 0 500 500" enable-background="new 0 0 500 500" xml:space="preserve">
<symbol  id="New_Symbol" viewBox="-81.6 -100.8 163.2 201.5">
	<g>
		<path fill="#565757" stroke="#404041" stroke-width="2.8298" stroke-miterlimit="10" d="M18.5,25.9c-0.1,0.5-0.2,1.1-0.2,1.6
			c17.2-2.1,34.5-4.2,51.7-6.3c2.3-20.8,4.7-62.9,7-83.7c-16.5,3.1-33.1,6.2-49.6,9.3C24.4-34,21.4,6.6,18.5,25.9z"/>
		<path fill="#404041" stroke="#6D6E70" stroke-width="1.3265" stroke-miterlimit="10" d="M15.1,34.2c-1.6-0.7-2.9-2.3-3.1-4
			c-0.1-1.1,0.2-2.2,0.5-3.3c0,0,0,0,0,0c0.4-1.1,1.1-2.1,2.2-2.6c16.2-8.3,35.7-10.7,54.8-6.9c3.2,0.6,5.4,3.9,4.7,7
			c-0.1,0.2-0.1,0.4-0.2,0.7c-0.7,2.7-2.8,4.6-5.5,5.2c-15,3.3-30.7,4.8-46.5,4.2c-1.7-0.1-3.5,0-5.2,0
			C16.3,34.6,15.7,34.5,15.1,34.2z"/>
		<g opacity="0.25">
			<path fill="#D0D2D3" d="M68.6,29c0,0,0.1,0,0.2,0c0.1,0,0.3,0,0.4-0.2c0.4-0.3,0.3-1.2-0.5-1.6c-0.4-0.1-0.8-0.1-1.3-0.2
				C67,27.1,66.5,27,66,27c-0.5-0.1-1.1-0.1-1.6-0.2c-0.6,0-1.2,0-1.8,0c-5.1-0.1-11.9,0.1-18.7,0.7c-3.4,0.3-6.8,0.7-9.9,1.2
				c-3.2,0.5-6.1,1-8.6,1.5c-0.6,0.1-1.2,0.2-1.8,0.4c-0.6,0.2-1.1,0.3-1.6,0.5c-1,0.3-1.9,0.5-2.6,0.8c-1.4,0.5-2.2,0.7-2.2,0.7
				s0.8-0.1,2.3-0.4c0.7-0.1,1.6-0.3,2.6-0.4c1-0.2,2.2-0.3,3.4-0.6c2.5-0.5,5.4-1,8.6-1.5c3.1-0.5,6.5-0.9,9.9-1.2
				c6.8-0.6,13.5-0.8,18.6-0.7c0.6,0,1.2,0.1,1.8,0c0.6,0,1.1,0,1.6-0.1c0.5,0,1,0,1.5,0c0.4,0,0.9-0.1,1.2,0
				c0.6,0.2,0.8,0.9,0.5,1.2C68.9,29,68.6,29,68.6,29z"/>
		</g>
	</g>
	<g>
		<path fill="#BE1E2D" stroke="#404041" stroke-width="3.5374" stroke-miterlimit="10" d="M-52.1-51.7l91.6,8.3L9.1,80.4
			c-2.5,11.4-14.6,19.7-27,18.5l-43.5-4.1c-12.4-1.2-20.5-11.3-18-22.7L-52.1-51.7z"/>
		<path fill="#BE1E2D" stroke="#EC1C24" stroke-width="1.7493" stroke-miterlimit="10" d="M-46.9-51.2l91.6,8.3L14.4,80.8
			c-2.5,11.4-14.6,19.7-27,18.5l-43.5-4.1c-12.4-1.2-20.5-11.3-18-22.7L-46.9-51.2z"/>
		<g>
			<path fill="#EC1C24" d="M-54.2,85c0,0,0,0-0.1-0.1c-0.1-0.1-0.2-0.2-0.4-0.4c-0.3-0.3-0.7-0.8-1.1-1.5c-0.4-0.7-0.7-1.6-0.8-2.7
				c-0.1-1.1-0.1-2.3,0.1-3.6c0.2-1.3,0.7-2.7,1.2-4.3c0.5-1.6,1.1-3.3,1.6-5c0.5-1.8,1.1-3.5,1.6-5.4c0.5-1.8,1-3.7,1.5-5.6
				c0.5-1.9,0.9-3.8,1.3-5.6c0.5-1.9,0.8-3.7,1.2-5.5c0.4-1.8,0.7-3.5,1-5.2c0.3-1.6,0.6-3.2,0.8-4.7c0.5-2.9,0.7-5.3,0.9-7
				c0.1-0.9,0.1-1.5,0.2-2c0-0.5,0.1-0.7,0.1-0.7l-0.3-0.1c0,0-3.9,15.1-7.8,30.1c-0.9,3.8-1.9,7.5-2.8,11.1
				c-0.4,1.8-0.9,3.5-1.3,5.1c-0.4,1.6-0.7,3.2-0.8,4.7c-0.1,1.5,0,2.8,0.3,4c0.3,1.2,0.8,2.1,1.3,2.8c0.5,0.7,1,1.2,1.4,1.4
				c0.4,0.3,0.6,0.4,0.6,0.4L-54.2,85z"/>
		</g>
		<g>
			<path fill="#EC1C24" d="M-3.8,90.5c0,0,0.2,0,0.7,0c0.5,0,1.2,0,2-0.2c1.7-0.3,4.2-1.4,6.4-3.7c0.6-0.6,1.1-1.1,1.6-1.9
				c0.4-0.6,1-1.4,1.4-2.2c0.9-1.5,1.6-3.2,2.2-5c0.6-1.8,1.2-3.6,1.6-5.4c0.5-1.8,1-3.7,1.5-5.5c0.4-1.9,0.9-3.7,1.3-5.5
				c0.5-1.8,0.8-3.6,1.2-5.4c0.4-1.7,0.7-3.5,1-5.1c0.3-1.6,0.6-3.2,0.8-4.6c0.5-2.8,0.7-5.2,0.9-6.9c0.1-0.8,0.1-1.5,0.2-2
				c0-0.5,0.1-0.7,0.1-0.7l-0.3-0.1c0,0-3.9,14.8-7.7,29.5c-0.5,1.9-0.9,3.7-1.4,5.5c-0.5,1.8-0.9,3.6-1.4,5.3
				c-0.5,1.7-1.1,3.3-1.8,4.8c-0.7,1.5-1.5,2.8-2.4,3.9c-1.8,2.2-3.9,3.5-5.4,4c-0.8,0.3-1.4,0.4-1.8,0.5c-0.4,0.1-0.7,0.1-0.7,0.1
				L-3.8,90.5z"/>
		</g>
	</g>
	<g>
		<path fill="#BE1E2D" stroke="#EC1C24" stroke-width="1.7493" stroke-miterlimit="10" d="M-36.1-55.9c3.9,17.1,11.5,34.3,19.4,49.5
			c1.9,3.7,4.9,6.6,8.7,8.7c17.8,9.4,36.5,14.4,58.2,16.2c9.7,0.8,20.2-4,26.3-12.3c0.2-0.2,0.3-0.5,0.5-0.7
			c-0.4-4.7-2.4-9.1-5.2-12.7c-3.6-4.7-8.4-8.4-13.2-12C38.3-34.5,17-48.5-5.3-61.4c-5.2-3-10.7-6-17.3-6.2c-5.1-0.1-11,2-14.7,5.8
			C-36.9-59.9-36.5-57.9-36.1-55.9z"/>
		<path fill="#BE1E2D" stroke="#EC1C24" stroke-width="1.7493" stroke-miterlimit="10" d="M-28.2-70.8l27.7,53.6
			c1,2,2.8,3.5,5.1,4.2L73.4,9.7c1.1,0.4,4.5-0.5,6.1-4.9C82.2-3.2,67.6-42.1-28.2-70.8z"/>
		<path fill="#6D6E70" stroke="#404041" stroke-width="2.8298" stroke-miterlimit="10" d="M-23.8-75.6L3.8-22.1c1,2,2.8,3.5,5.1,4.2
			L77.8,4.9c1.1,0.4,2.4-0.6,2.4-1.7C79.8-7.1,72-46.9-23.8-75.6z"/>
		<g>
			<path fill="#BE1E2D" d="M-8.9,1.5c-1.2-0.8-2.2-2-2.6-3.4C-12.1-4.3-11.4-7-10-9.5c1.4-2.5,3.3-4.7,5.3-6.9"/>
			<path fill="#EC1C24" d="M-8.9,1.5c0,0-0.3-0.2-0.6-0.7c-0.4-0.4-0.8-1.1-1.1-1.9c-0.1-0.2-0.1-0.4-0.2-0.7c0-0.1,0-0.2-0.1-0.3
				c0-0.1-0.1-0.3-0.1-0.4c0-0.5,0-1,0-1.6c0.1-1.1,0.5-2.3,1-3.4c0.2-0.6,0.5-1.1,0.8-1.7c0.3-0.6,0.6-1.1,0.9-1.6
				c0.6-1,1.3-1.9,1.8-2.8c0.5-0.8,1-1.5,1.3-2c0.3-0.5,0.5-0.8,0.5-0.8s-1.1,0.8-2.5,2.1c-0.7,0.7-1.5,1.5-2.3,2.5
				c-0.4,0.5-0.8,1.1-1.1,1.6c-0.3,0.6-0.7,1.2-0.9,1.8c-0.3,0.6-0.5,1.3-0.6,2c-0.2,0.7-0.2,1.4-0.2,2c0,0.7,0.1,1.3,0.3,1.9
				c0,0.2,0.1,0.3,0.1,0.4l0.1,0.2l0.1,0.2c0.1,0.3,0.3,0.5,0.4,0.7c0.6,0.9,1.3,1.5,1.8,1.8c0.3,0.2,0.5,0.2,0.6,0.3
				C-9,1.4-8.9,1.5-8.9,1.5z"/>
		</g>
	</g>
	<g>
		<path fill="#565757" stroke="#404041" stroke-width="2.8298" stroke-miterlimit="10" d="M-62.5-2.1c-0.1,0.6-0.2,1.2-0.3,1.7
			c18.5-4.6,37-9.2,55.4-13.8c2.5-22.6,7.6-62,10.1-84.6C-15-93.2-32.7-87.6-50.4-82C-53.6-61-59.4-23.2-62.5-2.1z"/>
		<path fill="#404041" stroke="#6D6E70" stroke-width="1.3265" stroke-miterlimit="10" d="M-66.1,7.3c-1.7-0.5-3.1-2-3.3-3.8
			c-0.1-1.2,0.2-2.4,0.6-3.6c0,0,0,0,0,0c0.4-1.3,1.2-2.4,2.3-3.1c17.3-11,38.3-16.3,58.7-14.8c3.4,0.2,5.8,3.5,5,6.9
			c-0.1,0.2-0.1,0.5-0.2,0.7c-0.8,3-3,5.3-5.9,6.3C-24.9,1.5-41.7,5.2-58.7,6.8c-1.9,0.2-3.7,0.5-5.6,0.7
			C-64.9,7.6-65.5,7.5-66.1,7.3z"/>
		<g opacity="0.25">
			<path fill="#D0D2D3" d="M-8.8-5.5c0,0,0.3,0,0.6-0.3C-8-5.9-7.8-6.2-7.9-6.6C-8-6.9-8.3-7.3-8.8-7.4c-0.9,0-1.8,0-3,0.1
				c-0.6,0-1.2,0-1.8,0.1c-0.6,0-1.3,0.1-2,0.2c-2.8,0.3-6,0.7-9.4,1.3c-3.4,0.5-7.1,1.2-10.7,2C-43-2.1-50.2-0.1-55.5,1.7
				c-0.7,0.2-1.3,0.4-1.9,0.6C-57.9,2.6-58.5,2.8-59,3c-1,0.4-2,0.8-2.7,1.1c-1.5,0.7-2.3,1-2.3,1s0.9-0.3,2.4-0.7
				c0.8-0.2,1.7-0.5,2.8-0.8c1.1-0.3,2.3-0.6,3.6-1.1c5.3-1.8,12.4-3.8,19.7-5.4c3.6-0.8,7.3-1.5,10.7-2c3.4-0.6,6.6-1,9.4-1.3
				c0.7-0.1,1.4-0.1,2-0.2c0.6-0.1,1.2-0.2,1.8-0.3C-10.6-6.8-9.5-7-8.8-7c0.3,0,0.6,0.3,0.7,0.5C-8-6.2-8.1-6-8.2-5.8
				C-8.5-5.5-8.8-5.5-8.8-5.5z"/>
		</g>
	</g>
</symbol>
<symbol  id="New_Symbol_1" viewBox="-27.6 -5.3 55.2 10.6">
	<line fill="#7A94BB" stroke="#ADB8D6" stroke-width="2.3324" stroke-miterlimit="10" x1="27.4" y1="4.1" x2="-27.4" y2="-4.1"/>
</symbol>
<symbol  id="New_Symbol_2" viewBox="-81.5 -101 163.1 201.9">
	<g>
		<path fill="#FFFFFF" stroke="#000000" stroke-width="1.8659" stroke-miterlimit="10" d="M18.5,23.7c-0.1,0.5-0.2,1.1-0.2,1.6
			c17.4-3.7,34.7-7.3,52.1-11C72.6-6.7,75-49,77.4-70c-16.7,4.6-33.3,9.2-50,13.8C24.4-36.7,21.4,4.2,18.5,23.7z"/>
		<path fill="#FFFFFF" stroke="#000000" stroke-width="1.8659" stroke-miterlimit="10" d="M15.1,32.4c-1.6-0.6-2.9-2-3.1-3.7
			c-0.1-1.1,0.2-2.2,0.5-3.3c0,0,0,0,0,0c0.4-1.2,1.1-2.2,2.2-2.8C31,12.9,50.6,8.7,69.9,10.7c3.2,0.3,5.5,3.5,4.7,6.6
			c-0.1,0.2-0.1,0.4-0.2,0.7c-0.7,2.7-2.8,4.9-5.5,5.7c-15.1,4.7-30.9,7.5-46.9,8.4c-1.8,0.1-3.5,0.3-5.2,0.5
			C16.2,32.7,15.6,32.6,15.1,32.4z"/>
		<g>
			<path d="M69,22.4c0,0,0.2,0.1,0.6-0.2c0.2-0.1,0.4-0.5,0.3-0.8c0-0.4-0.3-0.8-0.8-0.9c-0.1,0-0.3-0.1-0.4-0.1c-0.1,0-0.2,0-0.3,0
				c-0.2,0-0.4,0-0.7-0.1c-0.5,0-1-0.1-1.5-0.1c-0.5,0-1.1-0.1-1.7-0.1c-0.6,0-1.2,0.1-1.9,0.1c-2.6,0.2-5.6,0.5-8.9,0.9
				c-3.2,0.4-6.7,0.9-10.1,1.5C36.8,23.8,30,25.5,25,27c-0.6,0.2-1.2,0.3-1.8,0.5c-0.5,0.2-1.1,0.5-1.6,0.7c-1,0.4-1.8,0.8-2.5,1.2
				c-1.4,0.7-2.1,1.1-2.1,1.1s0.9-0.2,2.4-0.4c0.7-0.1,1.7-0.3,2.7-0.5c0.5-0.1,1.1-0.2,1.7-0.3c0.6-0.1,1.2-0.4,1.8-0.5
				c5-1.5,11.7-3.1,18.4-4.3c3.4-0.6,6.8-1.1,10-1.5c3.2-0.4,6.2-0.7,8.8-0.9c0.6-0.1,1.3,0,1.8-0.1c0.6-0.1,1.1-0.2,1.7-0.3
				c1-0.2,1.9-0.3,2.6-0.5c0.2,0,0.5,0.2,0.6,0.4c0.1,0.2,0.1,0.4,0,0.6C69.2,22.3,68.9,22.3,69,22.4z"/>
		</g>
	</g>
	<g>
		<path fill="#7A94BB" stroke="#ADB8D6" stroke-width="1.8659" stroke-miterlimit="10" d="M-52.7-47.5l92.3,0.1L9,79.1
			c-2.5,11.6-14.7,21-27.2,20.9L-62,99.9c-12.5,0-20.6-9.5-18.1-21.1L-52.7-47.5z"/>
		<path fill="#7A94BB" stroke="#ADB8D6" stroke-width="1.8659" stroke-miterlimit="10" d="M-47.4-47.5l92.3,0.1L14.3,79.1
			C11.8,90.7-0.4,100-12.9,100l-43.8-0.2c-12.5,0-20.6-9.5-18.1-21.1L-47.4-47.5z"/>
		<g>
			<path fill="#7A94BB" d="M-54.8,89.5c-2.2-1.1-3.4-3.6-3.6-6.1c-0.2-2.5,0.4-5.1,1.1-7.6c3.9-15.5,7.7-31,11.6-46.5"/>
			<path fill="#ADB8D6" d="M-54.8,89.5c0,0-0.1,0-0.1-0.1c-0.1-0.1-0.3-0.2-0.4-0.3c-0.3-0.3-0.8-0.8-1.2-1.5
				c-0.4-0.7-0.8-1.6-1-2.7c-0.2-1.1-0.1-2.4,0.1-3.7c0.2-1.4,0.7-2.9,1.1-4.5c0.5-1.6,1-3.3,1.5-5.1c0.5-1.8,1-3.6,1.5-5.5
				c0.5-1.9,1-3.8,1.5-5.7c0.5-1.9,0.9-3.8,1.4-5.7c0.5-1.9,0.8-3.8,1.2-5.6c0.4-1.8,0.7-3.6,1.1-5.2c0.3-1.7,0.6-3.2,0.9-4.7
				c0.5-2.9,0.9-5.4,1.1-7.1c0.1-0.9,0.2-1.5,0.3-2c0.1-0.5,0.1-0.7,0.1-0.7l-0.2,0c0,0-3.9,15.3-7.7,30.6
				c-0.9,3.8-1.9,7.7-2.8,11.2c-0.4,1.8-0.9,3.5-1.3,5.2c-0.4,1.6-0.8,3.2-0.9,4.7c-0.1,1.5-0.1,2.9,0.2,4c0.3,1.2,0.8,2.1,1.3,2.8
				c0.5,0.7,1.1,1.1,1.5,1.4c0.2,0.1,0.4,0.2,0.5,0.3c0.1,0.1,0.2,0.1,0.2,0.1L-54.8,89.5z"/>
		</g>
		<g>
			<path fill="#7A94BB" d="M-4.1,90.3c3.9-0.7,7.3-3.7,9.4-7.3c2.1-3.5,3.1-7.5,4.1-11.4c3.1-12.4,6.3-24.8,9.4-37.2"/>
			<path fill="#ADB8D6" d="M-4,90.4c0,0,0.2,0,0.7-0.1c0.5-0.1,1.2-0.2,2-0.5c1.7-0.6,4-1.8,6.1-4.2c0.5-0.6,1-1.2,1.5-1.9
				c0.3-0.4,0.4-0.7,0.7-1.1c0.2-0.4,0.4-0.8,0.7-1.2c0.8-1.6,1.5-3.3,2.1-5.1c0.6-1.8,1.1-3.6,1.6-5.5c0.5-1.9,1-3.8,1.5-5.7
				c0.5-1.9,0.9-3.8,1.4-5.7c0.5-1.9,0.8-3.7,1.3-5.5c0.4-1.8,0.8-3.5,1.1-5.2c0.3-1.7,0.6-3.2,0.9-4.7c0.5-2.9,0.9-5.3,1.2-7
				c0.1-0.8,0.2-1.5,0.3-2c0.1-0.5,0.1-0.7,0.1-0.7l-0.2,0c0,0-3.9,15.2-7.8,30.4c-0.5,1.9-1,3.8-1.4,5.7c-0.5,1.9-0.9,3.7-1.4,5.5
				c-0.5,1.8-1.1,3.4-1.8,5c-0.7,1.5-1.5,2.9-2.4,4c-1.8,2.3-3.9,3.7-5.4,4.4C-2.3,89.7-3,89.9-3.4,90c-0.4,0.1-0.7,0.1-0.7,0.1
				L-4,90.4z"/>
		</g>
	</g>
	<g>
		<path fill="#FFFFFF" stroke="#000000" stroke-width="1.8659" stroke-miterlimit="10" d="M-36.5-53.2C-32.6-36.4-24.9-19.9-17-5.4
			c1.9,3.5,4.9,6.2,8.8,7.9c17.9,7.8,36.8,11.1,58.7,10.9c9.7-0.1,20.4-5.8,26.5-14.7c0.2-0.2,0.3-0.5,0.5-0.7
			C77-6.7,75-10.9,72.2-14.3c-3.6-4.4-8.4-7.6-13.3-10.8C38.4-38.4,16.9-50.6-5.5-61.4c-5.2-2.5-10.8-5.1-17.5-4.6
			c-5.1,0.3-11.1,3-14.8,7.1C-37.4-57-37-55.1-36.5-53.2z"/>
		<path fill="#FFFFFF" stroke="#000000" stroke-width="1.8659" stroke-miterlimit="10" d="M-28.6-68.8l27.9,51.1
			c1,1.9,2.9,3.2,5.2,3.8L73.7,2.6c1.1,0.3,4.6-0.9,6.1-5.4C82.7-11.1,67.9-48.7-28.6-68.8z"/>
		<path fill="#FFFFFF" stroke="#000000" stroke-width="1.8659" stroke-miterlimit="10" d="M-24.2-74L3.7-22.9c1,1.9,2.9,3.2,5.2,3.8
			L78.2-2.6c1.1,0.3,2.4-0.8,2.4-1.9C80.2-14.8,72.4-53.9-24.2-74z"/>
		<g>
			<path d="M-9.2,1.8c0,0-0.3-0.2-0.7-0.6c-0.4-0.4-0.8-1.1-1.1-1.9c-0.1-0.4-0.2-0.9-0.3-1.4c0-0.5,0-1,0.1-1.6
				c0.1-0.6,0.2-1.1,0.4-1.7c0.2-0.6,0.4-1.2,0.6-1.7C-9.9-7.9-9.6-8.4-9.3-9c0.3-0.5,0.6-1.1,0.9-1.6c0.6-1,1.2-2,1.8-2.9
				c0.5-0.8,1-1.6,1.2-2.1c0.3-0.5,0.4-0.8,0.4-0.8s-1.1,0.8-2.5,2.2c-0.7,0.7-1.5,1.6-2.3,2.6c-0.4,0.5-0.8,1.1-1.1,1.7
				c-0.3,0.6-0.7,1.2-1,1.8c-0.3,0.7-0.5,1.3-0.7,2c-0.2,0.7-0.3,1.4-0.3,2.1c0,0.7,0,1.3,0.2,2c0.1,0.6,0.4,1.2,0.7,1.6
				c0.6,1,1.3,1.5,1.9,1.8c0.3,0.1,0.5,0.2,0.6,0.3C-9.2,1.8-9.2,1.8-9.2,1.8z"/>
		</g>
	</g>
	<g>
		<path fill="#7A94BB" stroke="#ADB8D6" stroke-width="1.8659" stroke-miterlimit="10" d="M-63.2,3c-0.1,0.6-0.2,1.2-0.3,1.8
			C-44.8-1.5-26.2-7.7-7.6-14C-5-36.8,3.5-76.7,6-99.5C-11.9-92.3-29.9-85.2-47.8-78C-51-56.6-60-18.3-63.2,3z"/>
		<path fill="#7A94BB" stroke="#ADB8D6" stroke-width="1.8659" stroke-miterlimit="10" d="M-66.8,12.8c-1.7-0.4-3.2-1.7-3.3-3.5
			c-0.1-1.2,0.2-2.4,0.6-3.6c0,0,0,0,0,0c0.4-1.3,1.2-2.5,2.4-3.3C-49.7-10.2-28.6-17.4-8-17.8c3.5-0.1,5.9,3,5.1,6.4
			C-3-11.1-3-10.9-3.1-10.6c-0.8,3-3,5.6-5.9,6.8C-25.2,3.3-42.2,8.5-59.3,11.6c-1.9,0.3-3.7,0.8-5.6,1.2
			C-65.5,13-66.2,12.9-66.8,12.8z"/>
		<g>
			<path fill="#7A94BB" d="M-9-5.2c0.1,0,0.2-0.1,0.3-0.1c0.9-0.5,0.5-1.8-0.6-1.6c-19,3.2-37.8,9.1-55.4,17.4"/>
			<path fill="#ADB8D6" d="M-9-5.2c0,0,0.3,0,0.7-0.3C-8.2-5.6-8-5.9-8-6.4c0-0.4-0.4-0.9-1-0.9c-0.3,0-0.5,0-0.7,0
				c-0.2,0-0.5,0-0.7,0c-0.5,0-1.1,0.1-1.6,0.1C-12.8-7.1-13.4-7-14-7c-0.7,0.1-1.3,0.3-2,0.4c-5.6,1.1-13.1,2.9-20.4,5.2
				C-43.9,0.9-51,3.5-56.3,5.8c-0.7,0.3-1.3,0.5-1.9,0.8c-0.6,0.3-1.1,0.6-1.6,0.9c-1,0.6-1.9,1.1-2.6,1.6c-1.4,0.9-2.2,1.4-2.2,1.4
				s0.9-0.3,2.5-0.8c0.8-0.2,1.8-0.6,2.9-0.9c0.6-0.2,1.1-0.4,1.8-0.5c0.6-0.2,1.2-0.5,1.9-0.8c5.3-2.2,12.4-4.9,19.7-7.1
				c7.3-2.2,14.7-4,20.3-5.1c0.7-0.2,1.4-0.2,2-0.4c0.6-0.2,1.2-0.4,1.8-0.5c1.1-0.3,2.1-0.6,2.8-0.9c0.3-0.1,0.5,0.1,0.6,0.3
				c0.1,0.2,0.1,0.5,0,0.6C-8.7-5.3-9-5.2-9-5.2z"/>
		</g>
	</g>
</symbol>
<symbol  id="New_Symbol_3" viewBox="-162.5 -102 325 204.1">

		<use xlink:href="#New_Symbol_2"  width="163.1" height="201.9" x="-81.5" y="-101" transform="matrix(0.6116 0 0 0.9695 112.6522 -2.634)" overflow="visible"/>

		<use xlink:href="#New_Symbol_2"  width="163.1" height="201.9" x="-81.5" y="-101" transform="matrix(0.6116 0 0 0.9695 94.6534 -1.4651)" overflow="visible"/>

		<use xlink:href="#New_Symbol_2"  width="163.1" height="201.9" x="-81.5" y="-101" transform="matrix(0.6302 0 0 0.9693 79.7984 0.8587)" overflow="visible"/>

		<use xlink:href="#New_Symbol_2"  width="163.1" height="201.9" x="-81.5" y="-101" transform="matrix(0.6302 0 0 0.9693 62.3465 1.8952)" overflow="visible"/>

		<use xlink:href="#New_Symbol_2"  width="163.1" height="201.9" x="-81.5" y="-101" transform="matrix(0.6302 0 0 0.9693 39.2021 3.206)" overflow="visible"/>

		<use xlink:href="#New_Symbol_2"  width="163.1" height="201.9" x="-81.5" y="-101" transform="matrix(0.7768 0 0 0.986 -9.1746 2.4971)" overflow="visible"/>

		<use xlink:href="#New_Symbol_2"  width="163.1" height="201.9" x="-81.5" y="-101" transform="matrix(1 0 0 1 -80.9887 -1.0847)" overflow="visible"/>
</symbol>
<g>
	<defs>
		<rect id="SVGID_1_" x="0" width="500" height="500"/>
	</defs>
	<use xlink:href="#SVGID_1_"  overflow="visible" fill="#FFFFFF"/>
	<clipPath id="SVGID_2_">
		<use xlink:href="#SVGID_1_"  overflow="visible"/>
	</clipPath>
	<g clip-path="url(#SVGID_2_)">
		<rect x="0.2" fill="#56476B" width="500" height="500"/>
		<g>

				<use xlink:href="#New_Symbol_2"  width="163.1" height="201.9" x="-81.5" y="-101" transform="matrix(1.1762 0 0 -1.8644 454.8557 327.1641)" overflow="visible"/>

				<use xlink:href="#New_Symbol_2"  width="163.1" height="201.9" x="-81.5" y="-101" transform="matrix(1.1762 0 0 -1.8644 435.3639 321.3948)" overflow="visible"/>

				<use xlink:href="#New_Symbol_2"  width="163.1" height="201.9" x="-81.5" y="-101" transform="matrix(1.1762 0 0 -1.8644 409.7108 315.6256)" overflow="visible"/>

				<use xlink:href="#New_Symbol_2"  width="163.1" height="201.9" x="-81.5" y="-101" transform="matrix(1.1762 0 0 -1.8644 378.9439 311.7794)" overflow="visible"/>

				<use xlink:href="#New_Symbol_2"  width="163.1" height="201.9" x="-81.5" y="-101" transform="matrix(1.212 0 0 -1.864 346.5305 306.1455)" overflow="visible"/>

				<use xlink:href="#New_Symbol_2"  width="163.1" height="201.9" x="-81.5" y="-101" transform="matrix(1.212 0 0 -1.864 303.3537 300.3061)" overflow="visible"/>

				<use xlink:href="#New_Symbol_2"  width="163.1" height="201.9" x="-81.5" y="-101" transform="matrix(1.2117 2.492014e-02 3.832691e-02 -1.8636 247.3068 295.8622)" overflow="visible"/>

				<use xlink:href="#New_Symbol_2"  width="163.1" height="201.9" x="-81.5" y="-101" transform="matrix(1.4928 5.559441e-02 7.056748e-02 -1.8949 154.2747 293.1917)" overflow="visible"/>

				<use xlink:href="#New_Symbol_2"  width="163.1" height="201.9" x="-81.5" y="-101" transform="matrix(1.9227 3.972307e-02 3.972307e-02 -1.9227 39.2476 284.8827)" overflow="visible"/>
		</g>

			<use xlink:href="#New_Symbol_3"  width="325" height="204.1" x="-162.5" y="-102" transform="matrix(1.9231 0 0 -1.9231 272.9408 352.1725)" overflow="visible"/>
		<g>

				<use xlink:href="#New_Symbol"  width="163.2" height="201.5" x="-81.6" y="-100.8" transform="matrix(0.8912 0 0 -1.5942 503.0426 383.3736)" overflow="visible"/>

				<use xlink:href="#New_Symbol"  width="163.2" height="201.5" x="-81.6" y="-100.8" transform="matrix(1.1209 0 0 -1.6126 449.4184 393.5474)" overflow="visible"/>

				<use xlink:href="#New_Symbol"  width="163.2" height="201.5" x="-81.6" y="-100.8" transform="matrix(1.3993 0 0 -1.6907 360.6406 414.7348)" overflow="visible"/>

				<use xlink:href="#New_Symbol"  width="163.2" height="201.5" x="-81.6" y="-100.8" transform="matrix(1.9231 0 0 -1.9231 230.2003 456.1449)" overflow="visible"/>
		</g>
		<path fill="#7A94BB" stroke="#ADB8D6" stroke-width="4.4854" stroke-miterlimit="10" d="M-58.9,379.8l98.5,33v72.7l96.6,34
			c0.8,6.6,0,55.5,0,55.5H-21.9L-58.9,379.8z"/>

			<use xlink:href="#New_Symbol_1"  width="55.2" height="10.6" x="-27.6" y="-5.3" transform="matrix(1.9231 0 0 -1.9231 -13.0524 420.7319)" overflow="visible"/>

			<use xlink:href="#New_Symbol_1"  width="55.2" height="10.6" x="-27.6" y="-5.3" transform="matrix(1.9163 -0.1612 -0.1612 -1.9163 -10.5178 498.2993)" overflow="visible"/>
	</g>
	<use xlink:href="#SVGID_1_"  overflow="visible" fill="none" stroke="#000000" stroke-width="0.8503" stroke-miterlimit="10"/>
</g>
</svg>
