<?xml version="1.0" encoding="utf-8"?>
<!-- Generator: Adobe Illustrator 18.1.1, SVG Export Plug-In . SVG Version: 6.00 Build 0)  -->
<svg version="1.1" id="Layer_1" xmlns="http://www.w3.org/2000/svg" xmlns:xlink="http://www.w3.org/1999/xlink" x="0px" y="0px"
	 viewBox="0 0 500 500" enable-background="new 0 0 500 500" xml:space="preserve">
<symbol  id="New_Symbol" viewBox="-46.6 -40.7 93.1 81.4">
	<g>
		<path fill="#F8AC24" d="M-46.1,3.6c0.3,4.2,1.7,8.4,4,12c2.9,4.3,7.1,7.7,11.9,9.5c0.8,4.3,4.1,7.9,8,9.8
			c4.4,2.1,9.5,2.4,14.4,1.8c3.7,2.8,8.5,4.1,13.2,3.4c3.7-0.5,7.3-2.3,10-5c2.9,0.1,5.7-0.1,8.5-0.7c3.4-0.7,6.7-2.3,9.1-4.8
			c2.4-2.5,3.8-6.1,3.1-9.5c4-1.8,7.3-5.2,8.9-9.4c1.7-4.5,1.3-9.8-0.9-14.1C45-8.6,43.8-14.3,41-18.8c-2.5-4.1-6.5-7.2-10.9-9
			c-2.9-6.5-9.8-10.6-16.9-11.9C6.9-40.8,0.6-40-5.7-39c-10.4-3.5-22.9,0.3-29.2,9.4c-3.4,7.9-6.7,15.8-10.1,23.8
			c-0.3,1.3-0.5,2.4-0.5,2.4C-46.1-1.1-46.2,1.3-46.1,3.6z"/>
		<g>
			<path fill="#AB6828" d="M-45.6,3.6c0.5,5.2,2.3,10.1,5.8,14.1c1.3,1.5,2.8,2.9,4.5,4.1c0.8,0.6,1.7,1.1,2.6,1.6
				c0.6,0.3,2.5,0.9,2.8,1.3c0.9,1,1,2.9,1.7,4.2c1.1,1.8,2.6,3.4,4.4,4.5c4.1,2.7,9.1,3.3,13.9,3c0.7,0,1.7-0.3,2.3-0.2
				c0.7,0.2,1.5,1,2.2,1.4c2.3,1.3,4.9,2,7.6,2.2c2.1,0.1,4.3-0.2,6.3-0.9c1.2-0.4,2.4-1,3.5-1.7c1-0.6,2-2,3.1-2.4
				c1.4-0.5,3.6-0.1,5.1-0.2c2.3-0.2,4.6-0.6,6.7-1.4c5.3-2,9.6-6.8,8.8-12.8c0-0.2,0-0.4,0.2-0.5c4.9-2.4,8.6-6.8,9.5-12.2
				c0.5-2.8,0.2-5.8-0.8-8.5c-0.3-0.7-0.8-1.6-1-2.4c-0.3-1.4,0.3-3.5,0.2-5c-0.4-5.7-3.1-11.2-7.4-15c-1-0.9-2.1-1.7-3.3-2.4
				c-0.9-0.5-2.7-1-3.3-1.6c-0.4-0.4-0.6-1-0.9-1.5c-0.7-1.2-1.5-2.4-2.5-3.4c-3.5-3.8-8.4-6-13.4-6.9c-3.1-0.6-6.2-0.6-9.3-0.5
				c-1.6,0.1-3.2,0.2-4.7,0.4c-1.5,0.2-3.2,0.8-4.7,0.7c-0.8,0-1.7-0.5-2.5-0.7c-1.2-0.3-2.4-0.5-3.7-0.5c-2.5-0.2-5.1,0-7.5,0.5
				c-4.6,1-8.9,3.2-12.3,6.5c-2.4,2.3-3.5,4.9-4.8,8c-1.4,3.2-2.7,6.4-4.1,9.6C-43.2-9-46-3.3-45.6,3.6c0,0.6-0.9,0.6-0.9,0
				c-0.3-4.8,0.8-8.9,2.7-13.3c2.5-5.8,4.9-11.6,7.4-17.4c3.2-7.6,11-12.3,19.1-13.4c2.1-0.3,4.2-0.3,6.3-0.1
				c2.5,0.2,4.7,1.1,7.2,0.9c5.3-0.5,10.5-1.3,15.9-0.6c4.4,0.6,8.8,2.2,12.4,4.9c1.4,1.1,2.7,2.3,3.9,3.7c0.8,1,1.2,2.1,2,3
				c0.7,0.9,1.9,1.2,2.9,1.8c3.9,2.1,7.1,5.4,9.2,9.3c1.1,2,1.8,4.2,2.2,6.5c0.4,2.4,0.1,4.6,0.2,6.9c0.1,2,1.3,4,1.6,6
				c0.4,2.2,0.3,4.5-0.2,6.7c-0.9,4-3.3,7.6-6.6,10.1c-0.7,0.5-2,0.9-2.5,1.6c-0.6,0.8-0.3,2.1-0.4,3.1c-0.3,1.9-1.1,3.8-2.2,5.4
				c-2.6,3.6-7,5.6-11.3,6.4c-1.3,0.2-2.6,0.4-3.9,0.4c-1.3,0.1-2.8-0.2-4.1,0.5c-2,1.1-3.5,2.7-5.7,3.5c-4.4,1.7-9.4,1.6-13.8-0.3
				c-1-0.5-1.9-1.2-3-1.6c-1.4-0.6-3.2-0.1-4.8-0.1c-2.8,0-5.6-0.3-8.2-1.3c-4.2-1.5-8-4.6-9.7-8.8c-0.5-1.4-0.6-1.8-1.9-2.5
				c-1.1-0.6-2.3-1.2-3.4-1.9c-2.1-1.4-4-3-5.6-4.9c-3.4-4.1-5.3-9.1-5.8-14.4C-46.6,3.1-45.7,3.1-45.6,3.6z"/>
		</g>
	</g>
	<g>
		<path fill="#D58528" d="M1.7,6.8C1.6,6.9,1.6,7.1,1.5,7.2c-2.6-3.9-2.9-9-1.9-13.7c1-4.6,3.2-8.9,5.3-13.2s4-8.7,4.6-13.4l0.6-2.2
			C14.8-29.1,12.5-15.8,1.7,6.8z"/>
	</g>
	<g>
		<path fill="#D58528" d="M13,9c3.3-2.9,5.8-6.5,9-9.6c8.7-8.6,10.2-16.1,6.8-22.2c-3,12.4-9.2,24-17.3,33.2C11.9,9.8,12.5,9.4,13,9
			z"/>
	</g>
	<g>
		<path fill="#D58528" d="M-11.9-34.8c0.5-0.6,1-1.1,1.6-1.6c-2.3,14.7-1.4,29.8,2.5,44.1c-4.8-6-8.5-13-9.7-20.5
			C-18.9-20.5-17.1-28.9-11.9-34.8z"/>
	</g>
	<g>
		<path fill="#D58528" d="M-31.9-23.5c-1.4,4.2-1.5,8.8-0.3,13c1.4,5.1,4.7,9.5,8.5,13.1c2.5,2.4,5.4,4.5,8.3,6.4
			c-9.9-9-15.6-22.5-15-35.9C-31-25.8-31.5-24.6-31.9-23.5z"/>
	</g>
	<g>
		<path fill="#D58528" d="M-40.3-5.2c0.1-0.5,0.3-0.9,0.5-1.3c0.9,5.1,3.3,9.8,6.9,13.6c4,4.2,10.6,7.7,16.4,8.6
			c-4-0.7-7.9-1.5-11.7-3c-3.7-1.5-7.3-3.7-9.6-7C-40.2,2.6-41.3-1.5-40.3-5.2z"/>
	</g>
	<g>
		<path fill="#D58528" d="M-26.6,25c0,0,0.2,0.1,0.5,0.2c0.3,0.1,0.8,0.2,1.4,0.3c0.6,0.1,1.3,0.1,2.1,0.1c0.8,0,1.6-0.2,2.3-0.3
			c0.4-0.1,0.8-0.2,1.1-0.4c0.4-0.1,0.7-0.3,1.1-0.5c0.7-0.3,1.3-0.7,1.8-1.1c0.5-0.4,0.9-0.7,1.1-0.9c0.2-0.3,0.4-0.4,0.4-0.4
			s-0.2,0.1-0.5,0.3c-0.3,0.2-0.7,0.4-1.3,0.7c-1,0.5-2.5,1.1-3.9,1.5c-1.5,0.4-3,0.6-4.2,0.6c-0.6,0-1.1,0-1.4,0
			C-26.4,25-26.6,25-26.6,25z"/>
	</g>
	<g>
		<path fill="#D58528" d="M-7,35.1c0,0,0.1-0.1,0.4-0.4c0.2-0.3,0.6-0.6,0.9-1.2c0.3-0.5,0.7-1.1,1-1.8c0.3-0.7,0.5-1.5,0.7-2.3
			C-4.1,29-4,28.6-4,28.2c0-0.4,0-0.8,0-1.2c0-0.8-0.1-1.5-0.2-2c-0.1-0.6-0.3-1.1-0.4-1.4c-0.1-0.3-0.2-0.5-0.2-0.5s0,0.2,0,0.5
			c0,0.3,0.1,0.8,0.1,1.4c0,1.2-0.1,2.7-0.3,4.2c-0.3,1.5-0.7,3-1.2,4c-0.2,0.5-0.4,1-0.6,1.3C-6.9,34.9-7,35.1-7,35.1z"/>
	</g>
	<g>
		<path fill="#D58528" d="M-7.9,34.7c0,0,0.4-0.4,0.9-1.1c0.5-0.7,0.9-1.7,1.2-2.8c0.3-1.1,0.4-2.2,0.3-3c0-0.8-0.2-1.4-0.2-1.4
			s-0.1,0.5-0.3,1.3c-0.2,0.8-0.4,1.8-0.7,2.9c-0.3,1-0.6,2-0.8,2.8C-7.8,34.2-7.9,34.7-7.9,34.7z"/>
	</g>
	<g>
		<path fill="#D58528" d="M-0.5,23.8c0,0,0.1,0.3,0.3,0.7c0.2,0.4,0.5,1,1,1.7c0.5,0.7,1.1,1.5,1.8,2.2c0.4,0.4,0.7,0.8,1.1,1.1
			C4.1,30,4.6,30.3,5,30.7c0.4,0.3,0.9,0.7,1.4,1c0.4,0.3,0.9,0.6,1.4,0.8c0.9,0.5,1.8,0.9,2.6,1.2c0.8,0.3,1.5,0.5,1.9,0.6
			c0.5,0.1,0.7,0.2,0.7,0.2s-0.2-0.1-0.7-0.3c-0.4-0.2-1-0.5-1.8-0.9c-1.4-0.7-3.3-1.9-5-3.2c-0.8-0.7-1.6-1.4-2.4-2.1
			c-0.4-0.4-0.7-0.7-1-1c-0.3-0.3-0.6-0.7-0.9-1c-0.5-0.6-1-1.1-1.3-1.5C-0.3,24-0.5,23.8-0.5,23.8z"/>
	</g>
	<g>
		<path fill="#D58528" d="M3.2,17.1c0,0,0.4,0.3,1.1,0.8c0.3,0.3,0.8,0.5,1.3,0.8c0.5,0.3,1.1,0.7,1.7,1c0.6,0.4,1.4,0.7,2.1,1
			c0.8,0.4,1.6,0.6,2.5,0.9c0.9,0.2,1.8,0.6,2.7,0.7c0.9,0.2,1.9,0.4,2.9,0.5c1,0.1,1.9,0.2,2.9,0.2c1,0.1,1.9,0,2.8,0
			c0.9-0.1,1.8-0.2,2.6-0.3c0.8-0.1,1.6-0.3,2.3-0.5c0.7-0.2,1.4-0.4,1.9-0.5c0.6-0.2,1.1-0.3,1.4-0.5c0.8-0.3,1.2-0.5,1.2-0.5
			s-0.5,0.1-1.3,0.3c-0.4,0.1-0.9,0.2-1.5,0.4c-0.6,0.1-1.2,0.3-1.9,0.4c-0.7,0.1-1.5,0.2-2.3,0.3c-0.8,0.1-1.7,0.1-2.6,0.2
			c-0.9,0-1.8,0-2.8,0c-0.9,0-1.9-0.1-2.8-0.2c-0.9-0.1-1.9-0.3-2.8-0.5c-0.9-0.2-1.8-0.4-2.7-0.6c-0.8-0.3-1.7-0.5-2.5-0.8
			c-0.8-0.3-1.5-0.6-2.2-0.9c-0.7-0.3-1.3-0.6-1.8-0.8c-0.5-0.3-1-0.5-1.3-0.7C3.6,17.4,3.2,17.1,3.2,17.1z"/>
	</g>
	<g>
		<path fill="#D58528" d="M20,16.3c10.3-1.8,19.4-9.9,22.3-19.9c-0.4-0.3-0.9-0.4-1.3-0.3c-0.6,0.1-1.1,0.5-1.6,0.8
			c-3.1,2.3-4.8,5.9-6.7,9.3c-2.7,4.8-8,7.7-12.9,10.1C19.8,16.4,19.9,16.4,20,16.3z"/>
	</g>
	<g>
		<path fill="#A7C553" stroke="#637332" stroke-width="0.7178" stroke-miterlimit="10" d="M0.8,25.1c-2,3.3-4.6,6.2-7.7,8.5
			c-1,0.7-2.3,0.8-3.4,0.2c-0.8-0.5-1.5-1.2-2.1-2c-0.7-1-0.7-2.4,0-3.5c1.5-2,2.6-4.4,3.2-6.8c-0.9-1.7-1.7-3.4-2.6-5.1
			c0.9-0.9,1.9-1.7,2.9-2.4c3.2-2,7.4-1.6,10.2,1c0.9,0.8,1.7,1.7,2.5,2.6C3.2,20.3,2.1,22.8,0.8,25.1z"/>
		<g>
			<path fill="#A7C553" d="M0.7,19.1c-0.9,4-3,7.7-6,10.6"/>
			<path fill="#637332" d="M0.7,19.1c0,0-0.1,0.2-0.2,0.5C0.4,20,0.2,20.4,0,20.9c-0.4,1.1-1.1,2.4-1.8,3.8
				c-0.7,1.3-1.6,2.6-2.3,3.5c-0.3,0.5-0.6,0.8-0.8,1.1c-0.2,0.3-0.3,0.4-0.3,0.4s0.6-0.4,1.5-1.3c0.4-0.4,0.9-0.9,1.3-1.5
				c0.5-0.6,0.9-1.2,1.3-1.9c0.4-0.7,0.7-1.4,1-2.1c0.3-0.7,0.5-1.3,0.6-1.9C0.7,19.9,0.7,19.1,0.7,19.1z"/>
		</g>
		<g>
			<path fill="#A7C553" d="M-0.7,16.2c-1,5.9-4.1,11.3-8.6,15.2"/>
			<path fill="#637332" d="M-0.7,16.2c0,0-0.1,0.3-0.2,0.7c-0.1,0.5-0.3,1.1-0.6,1.9c-0.1,0.4-0.3,0.8-0.5,1.3
				c-0.2,0.4-0.4,0.9-0.6,1.4c-0.4,0.9-0.9,1.9-1.4,2.9c-0.5,1-1.1,1.9-1.7,2.7c-0.3,0.4-0.6,0.8-0.9,1.2c-0.3,0.4-0.6,0.7-0.8,1
				c-0.5,0.6-1,1.2-1.3,1.5c-0.3,0.4-0.5,0.6-0.5,0.6S-9,31.3-8.6,31c0.4-0.3,0.9-0.7,1.5-1.3c0.6-0.6,1.3-1.3,1.9-2.1
				c0.6-0.8,1.3-1.8,1.8-2.8c0.5-1,1-2,1.4-3c0.4-1,0.6-1.9,0.8-2.8c0.2-0.8,0.3-1.5,0.3-2C-0.7,16.5-0.7,16.2-0.7,16.2z"/>
		</g>
		<g>
			<path fill="#A7C553" d="M-5.3,17.7c0.1,3.9-1.2,7.8-3.7,10.9"/>
			<path fill="#637332" d="M-5.3,17.7c0,0,0,0.2-0.1,0.5c0,0.3-0.1,0.8-0.2,1.3c-0.2,1.1-0.5,2.5-1,3.8c-0.5,1.4-1,2.7-1.6,3.6
				c-0.3,0.5-0.5,0.9-0.6,1.2c-0.2,0.3-0.2,0.4-0.2,0.4s0.6-0.5,1.2-1.4c0.3-0.4,0.7-1,1-1.6c0.3-0.6,0.6-1.3,0.9-2
				c0.2-0.7,0.4-1.4,0.5-2.1c0.1-0.7,0.2-1.3,0.2-1.9c0-0.6,0-1-0.1-1.3C-5.2,17.8-5.3,17.7-5.3,17.7z"/>
		</g>
	</g>
</symbol>
<symbol  id="New_Symbol_1" viewBox="-33.2 -33.1 66.5 66.3">
	<g>
		<g>
			<path fill="#8A324B" d="M0.7,27.2c-2.6-1.5-5.6-2.4-8.5-2.1c0.2-3.7-0.6-7.5-2.3-10.8c0.1,1.3-0.1,2.6-0.6,3.7
				c-2.5,0.4-5,1.3-7.1,2.7c-0.1-3.1-1-6.3-2.6-9c0.8-2,2-3.8,3.6-5.2c-1.7-0.5-3.5-1-5.2-1.6c1.4-1.4,2.7-2.7,4.1-4.1
				c1.1-1.1,2.3-2.2,3.7-2.9c0.6-0.3,1.7-0.6,2.7-0.7c-1-0.4-2-1-2.6-1.4c-1.3-1-2.3-2.4-3.3-3.8c-1.2-1.7-2.4-3.4-3.6-5.1
				c1.8-0.1,3.6-0.1,5.3-0.2c-1.3-1.8-2.3-3.9-2.9-6c2-2.2,3.3-5.1,3.7-8.2c1.9,1.9,4.2,3.5,6.6,4.5c0.4,1.2,0.5,2.6,0.2,3.8
				c2.1-2.9,3.3-6.4,3.5-10.1c2.8,1,5.8,0.9,8.6,0.2c2.9-0.8,5.5-2.3,8-3.8c-0.3,2.3-0.3,4.7-0.2,7c0,0.4,0,0.8,0.1,1.1
				c0.1,1.1,0.2,2.3,0.7,3.3c0.4,0.9,1.2,1.6,2.1,1.8c-1.2,2.6-3.1,4.7-5.5,6.1c7.5,2,9.3-0.3,13.8,1.1c-0.6,1.8-0.4,3.9,0.6,5.5
				c0.7,1.2,1.7,2.1,2.9,2.6c0.2,2.5,1.8,5.2,6,7.2C32.7,2.9,32.8,2.9,33,3c-0.1,0-0.3,0.1-0.4,0.1c-4.3,0.9-6.3,3.2-6.8,5.5
				c-1.2,0.2-2.4,0.9-3.2,1.8c-1.2,1.4-1.6,3.4-1.2,5.3c-4.6,0.2-6.1-2.6-13.7-2.5c2.1,2,3.8,4.6,4.6,7.5c-0.9,0-1.7,0.5-2.3,1.2
				c-0.6,0.9-0.9,2-1.1,3.1c-0.1,0.4-0.1,0.7-0.2,1.1c-0.4,2.3-0.6,4.6-0.6,6.9C5.9,30.8,3.5,28.7,0.7,27.2z"/>
			<path fill="#C04752" d="M0.8,27.1c-2.6-1.5-5.5-2.4-8.5-2.1l0.1,0.1c0.3-3.8-0.5-7.6-2.2-10.9l-0.4-0.9l0.1,1
				c0.1,1.2-0.1,2.5-0.6,3.6l0.2-0.1c-2.6,0.4-5,1.3-7.2,2.7l0.4,0.2c0-3.2-1-6.4-2.6-9.2l0,0.3c0.8-1.9,2-3.7,3.5-5.1l0.5-0.4
				l-0.6-0.2l-5.2-1.6l0.2,0.7l4.7-4.7c0.8-0.8,1.6-1.5,2.5-2c0.9-0.5,2-0.7,3-0.9l1.7-0.3l-1.6-0.7c-0.5-0.2-1-0.5-1.5-0.8
				c-0.2-0.1-0.5-0.3-0.7-0.5c-0.2-0.1-0.4-0.3-0.6-0.5c-0.8-0.7-1.5-1.7-2.2-2.6l-4-5.9l-0.5,0.9l5.3-0.2l1.2,0l-0.7-1
				c-1.3-1.7-2.2-3.7-2.7-5.8l-0.1,0.6c2.1-2.4,3.4-5.4,3.9-8.5l-1.3,0.4c2,2,4.3,3.6,6.9,4.7l-0.5-0.5c0.3,1.1,0.4,2.3,0.1,3.4
				l-0.9,3.9l2.4-3.2c2.2-3,3.5-6.7,3.8-10.5l-1.2,0.8c1.5,0.6,3.1,0.8,4.6,0.9c0.8,0,1.6,0,2.3-0.2C3-27.8,3.7-28,4.5-28.2
				C5.2-28.4,6-28.7,6.7-29c0.7-0.3,1.4-0.6,2.1-1c1.3-0.7,2.6-1.5,3.9-2.2L11.3-33c-0.2,2.4-0.3,4.9-0.2,7.3c0,0.6,0.1,1.2,0.1,1.8
				c0.1,0.6,0.2,1.3,0.4,1.9c0.2,0.6,0.6,1.3,1,1.8c0.5,0.5,1.1,1,1.9,1.2L14-20.1c-1.1,2.4-2.9,4.5-5.1,5.9l-1.5,0.9l1.7,0.4
				c0.6,0.1,1.2,0.3,1.7,0.4c0.6,0.1,1.2,0.2,1.8,0.3c1.2,0.1,2.4,0.2,3.6,0.1c1.2-0.1,2.4-0.2,3.5-0.3c0.6,0,1.1,0,1.6,0.1
				c0.5,0.1,1.1,0.2,1.6,0.3l-0.4-0.8C21.9-11,22-9.2,22.7-7.5c0.3,0.8,0.8,1.6,1.5,2.2c0.6,0.6,1.4,1.1,2.2,1.5L26-4.3
				c0.2,1.9,1.1,3.6,2.4,4.8c0.6,0.6,1.3,1.2,2.1,1.7c0.7,0.5,1.5,0.9,2.3,1.3l0.1-0.9c-0.2,0-0.4,0.1-0.6,0.1l-0.6,0.1
				c-0.4,0.1-0.8,0.2-1.2,0.4c-0.8,0.3-1.5,0.7-2.2,1.2c-0.7,0.5-1.3,1.1-1.8,1.8c-0.5,0.7-0.8,1.5-1,2.4l0.3-0.3
				c-0.8,0.2-1.6,0.5-2.3,1c-0.3,0.2-0.7,0.5-0.9,0.8c-0.1,0.2-0.3,0.3-0.4,0.5c-0.1,0.2-0.2,0.4-0.3,0.5c-0.8,1.5-1,3.2-0.7,4.8
				l0.3-0.4c-0.6,0-1.1,0-1.7-0.1c-0.6-0.1-1.1-0.2-1.7-0.3c-1.1-0.3-2.2-0.7-3.3-1.1c-1.1-0.3-2.3-0.6-3.5-0.7C10,13,8.8,13,7.7,13
				l-0.7,0l0.5,0.5c2.1,2,3.7,4.5,4.6,7.3l0.2-0.3c-0.6,0-1.3,0.2-1.8,0.6c-0.5,0.4-0.9,0.9-1.1,1.5C9,23.7,8.8,24.9,8.6,26
				c-0.4,2.3-0.5,4.7-0.6,7l0.2-0.1C5.9,30.8,3.5,28.7,0.8,27.1z M0.7,27.2c2.7,1.6,5.1,3.7,7.4,5.8l0.1,0.1l0-0.1
				c0-2.3,0.2-4.7,0.6-7c0.2-1.2,0.4-2.3,0.8-3.4c0.2-0.5,0.6-1,1-1.4c0.5-0.4,1-0.6,1.6-0.5l0.1,0l0-0.1c-0.9-2.8-2.5-5.4-4.7-7.5
				l0,0.1c1.2,0,2.3,0,3.5,0.2c1.2,0.2,2.3,0.4,3.4,0.8c1.1,0.3,2.2,0.8,3.3,1.1c0.6,0.2,1.1,0.3,1.7,0.4c0.6,0.1,1.2,0.1,1.8,0.1
				l0.1,0l0-0.1c-0.3-1.5-0.1-3.1,0.7-4.5c0.8-1.4,2.2-2.3,3.7-2.6l0,0l0,0c0.2-0.8,0.5-1.5,0.9-2.2c0.5-0.7,1-1.2,1.7-1.7
				c0.7-0.5,1.4-0.8,2.1-1.1c0.7-0.3,1.5-0.5,2.3-0.6l0.2,0L33,2.9c-0.8-0.4-1.5-0.8-2.2-1.2c-0.7-0.5-1.4-1-2-1.6
				c-1.2-1.2-2-2.8-2.1-4.5l0,0l0,0c-1.5-0.7-2.7-1.9-3.3-3.4c-0.6-1.5-0.7-3.2-0.2-4.7l0-0.1l-0.1,0c-0.6-0.2-1.1-0.3-1.7-0.4
				c-0.6-0.1-1.2-0.1-1.8-0.1c-1.2,0-2.3,0.2-3.5,0.2c-1.2,0.1-2.3,0-3.5-0.1c-0.6-0.1-1.1-0.2-1.7-0.3c-0.6-0.1-1.1-0.3-1.7-0.4
				l0,0.2c2.4-1.5,4.3-3.7,5.5-6.2l0.1-0.1l-0.1,0c-0.6-0.1-1.1-0.5-1.5-0.9c-0.4-0.4-0.7-1-0.9-1.5c-0.4-1.1-0.4-2.3-0.5-3.5
				c-0.1-2.4,0-4.8,0.2-7.2l0-0.2L12.1-33c-2.5,1.5-5.1,3-7.9,3.8c-2.8,0.8-5.9,0.9-8.6-0.1l-0.1,0l0,0.1c-0.2,3.6-1.4,7.1-3.5,10
				l0.2,0.1c0.3-1.3,0.2-2.6-0.2-3.9l0,0l0,0c-2.5-1-4.7-2.6-6.6-4.5l-0.1-0.1l0,0.2c-0.4,3-1.7,5.9-3.7,8.2l0,0l0,0
				c0.6,2.2,1.5,4.3,2.9,6.1l0.1-0.1l-5.3,0.2l-0.2,0l0.1,0.1l4.1,5.8c0.7,1,1.4,1.9,2.3,2.7c0.9,0.8,2,1.3,3.1,1.8l0-0.2
				c-1.1,0.2-2.2,0.4-3.2,1c-1,0.5-1.8,1.3-2.6,2.1l-4.7,4.7L-22.2,5l0.1,0l5.2,1.6l0-0.1c-1.6,1.5-2.8,3.3-3.6,5.2l0,0l0,0
				c1.6,2.7,2.6,5.8,2.6,9l0,0.1l0.1-0.1c2.1-1.4,4.5-2.4,7.1-2.7l0,0l0,0c0.5-1.2,0.8-2.5,0.6-3.8l-0.1,0c1.7,3.3,2.5,7.1,2.3,10.8
				l0,0.1l0.1,0C-4.8,24.9-1.8,25.8,0.7,27.2z"/>
		</g>
		<g>
			<path fill="#8A324B" d="M27.9,3C15.4,3.7,2.7,1.9-9.4-2.3"/>
			<path fill="#C04752" d="M27.9,2.9c0,0-2.4-0.1-5.9-0.4c-0.9,0-1.8-0.1-2.8-0.2c-1-0.1-2.1-0.2-3.2-0.3c-1.1-0.1-2.2-0.2-3.4-0.4
				c-1.1-0.1-2.3-0.3-3.5-0.5C6.8,0.9,4.5,0.5,2.3,0.1C1.2-0.1,0.2-0.3-0.8-0.5c-1-0.2-1.9-0.4-2.8-0.6C-5.3-1.5-6.8-1.7-7.8-2
				c-1-0.2-1.6-0.3-1.6-0.3l0,0.1c0,0,0.6,0.2,1.5,0.5c1,0.3,2.4,0.8,4.1,1.3C-2.9-0.2-2,0-1,0.3C0,0.5,1,0.8,2.1,1
				C4.3,1.5,6.6,1.9,9,2.2c4.7,0.7,9.4,0.9,13,0.9c1.8,0,3.3,0,4.3-0.1c1,0,1.6-0.1,1.6-0.1L27.9,2.9z"/>
		</g>
		<g>
			<path fill="#8A324B" d="M9.7-26.7C5.8-16.8-1.3-8.4-10.1-3.1"/>
			<path fill="#C04752" d="M9.6-26.7c0,0-0.3,0.4-0.7,1.2c-0.4,0.8-1.1,1.8-1.8,3c-0.4,0.6-0.8,1.3-1.3,2c-0.4,0.7-1,1.4-1.5,2.2
				c-0.5,0.7-1.1,1.5-1.7,2.2c-0.6,0.8-1.2,1.5-1.8,2.2c-0.6,0.7-1.2,1.5-1.9,2.2c-0.6,0.7-1.3,1.4-1.9,2C-3.4-9.1-4-8.4-4.6-7.9
				c-0.6,0.6-1.2,1.1-1.7,1.6c-1.1,1-2,1.8-2.7,2.3c-0.7,0.5-1,0.9-1,0.9l0.1,0.1c0,0,0.4-0.3,1.1-0.7C-8.6-4-8.1-4.3-7.6-4.6
				C-7.1-5-6.6-5.3-6-5.8c0.6-0.4,1.2-0.9,1.9-1.5c0.7-0.5,1.3-1.1,2-1.8c0.7-0.6,1.4-1.3,2-2c0.7-0.7,1.3-1.4,2-2.2
				C2.4-14,3-14.7,3.6-15.5c0.6-0.8,1.1-1.6,1.6-2.3c0.5-0.8,1-1.5,1.4-2.3c0.4-0.7,0.8-1.4,1.1-2.1c0.3-0.6,0.6-1.3,0.9-1.8
				c0.3-0.5,0.5-1,0.6-1.4C9.5-26.2,9.7-26.7,9.6-26.7L9.6-26.7z"/>
		</g>
		<g>
			<path fill="#8A324B" d="M-10.2-2C-3,6.9,2.3,17.4,5.4,28.4"/>
			<path fill="#C04752" d="M-10.2-2c0,0,0.3,0.5,0.8,1.3c0.5,0.8,1.2,2,2,3.3C-7,3.3-6.6,4.1-6.1,4.8c0.5,0.8,0.9,1.6,1.4,2.5
				c1,1.7,2,3.6,3,5.5c1,1.9,1.9,3.8,2.8,5.6c0.4,0.9,0.8,1.8,1.2,2.6c0.4,0.8,0.7,1.6,1,2.4c0.6,1.5,1.2,2.7,1.5,3.6
				c0.4,0.9,0.6,1.4,0.6,1.4l0.1,0c0,0-0.2-0.5-0.4-1.4c-0.3-0.9-0.7-2.2-1.2-3.7c-0.3-0.8-0.6-1.6-0.9-2.5
				c-0.3-0.9-0.7-1.8-1.1-2.7c-0.8-1.9-1.7-3.8-2.7-5.7c-1-1.9-2.1-3.8-3.1-5.5c-0.5-0.9-1-1.7-1.6-2.5c-0.5-0.8-1-1.5-1.5-2.2
				c-0.9-1.3-1.7-2.4-2.3-3.1C-9.8-1.6-10.2-2-10.2-2L-10.2-2z"/>
		</g>
		<g>
			<path fill="#8A324B" d="M-13.8-21.8c-0.4,6.4,0.6,13.1,2.9,19.2"/>
			<path fill="#C04752" d="M-13.9-21.8c0,0-0.1,0.3-0.2,0.8c-0.1,0.5-0.3,1.3-0.4,2.2c-0.1,0.9-0.2,2-0.1,3.2c0,0.6,0,1.2,0.1,1.8
				c0.1,0.6,0.1,1.2,0.2,1.9c0.1,0.6,0.2,1.2,0.4,1.8c0.1,0.6,0.3,1.2,0.4,1.7c0.3,1.1,0.7,2.2,1.1,3c0.4,0.9,0.8,1.5,1,2
				c0.3,0.5,0.4,0.7,0.4,0.7l0.1,0c0,0-0.4-1.1-1-2.9c-0.5-1.8-1.1-4.1-1.5-6.6c-0.4-2.4-0.6-4.9-0.6-6.7c0-1.8,0.1-3.1,0.1-3.1
				L-13.9-21.8z"/>
		</g>
		<g>
			<path fill="#8A324B" d="M-11-1.5c-0.8,6.8-2.3,13.4-4.6,19.6"/>
			<path fill="#C04752" d="M-11-1.5c0,0-0.1,0.3-0.3,0.8c-0.1,0.5-0.4,1.3-0.6,2.2c-0.3,0.9-0.5,2-0.8,3.1c-0.3,1.1-0.6,2.4-0.9,3.6
				c-0.3,1.2-0.6,2.4-0.8,3.6c-0.3,1.1-0.5,2.2-0.7,3.2c-0.2,0.9-0.3,1.7-0.4,2.3c-0.1,0.6-0.1,0.9-0.1,0.9l0.1,0c0,0,0.4-1.2,1-3
				c0.6-1.8,1.3-4.2,1.9-6.7c0.6-2.5,1-5,1.3-6.8c0.3-1.9,0.4-3.1,0.4-3.1L-11-1.5z"/>
		</g>
		<g>
			<path fill="#8A324B" d="M9.9-11.3C4.6-9.9-0.1-6.6-3-2"/>
			<path fill="#C04752" d="M9.9-11.3c0,0-0.3,0-0.7,0c-0.2,0-0.5,0-0.8,0.1c-0.3,0-0.7,0.1-1.1,0.2c-0.8,0.2-1.6,0.5-2.6,0.8
				C4.3-9.9,3.8-9.8,3.4-9.5C3-9.2,2.5-8.9,2.1-8.6C1.6-8.3,1.2-8,0.8-7.7C0.4-7.3,0.1-6.9-0.3-6.6c-0.7,0.7-1.2,1.5-1.6,2.1
				c-0.2,0.3-0.4,0.7-0.5,0.9C-2.6-3.2-2.7-3-2.8-2.7C-2.9-2.3-3-2.1-3-2.1L-2.9-2c0,0,0.1-0.2,0.4-0.6C-2.3-2.9-1.9-3.5-1.4-4
				c1-1.2,2.4-2.6,4.1-3.7C4.3-9,6.1-9.9,7.6-10.4c0.7-0.3,1.3-0.5,1.7-0.6c0.4-0.1,0.7-0.2,0.7-0.2L9.9-11.3z"/>
		</g>
		<g>
			<path fill="#8A324B" d="M8.1,12.2C3.1,9.8-1,5.9-3.2,1.3"/>
			<path fill="#C04752" d="M8.2,12.1c0,0-0.2-0.2-0.5-0.5c-0.4-0.3-0.8-0.7-1.4-1.2C5.9,10.3,5.6,10,5.3,9.8C5,9.5,4.6,9.2,4.3,8.9
				C3.6,8.3,2.9,7.7,2.2,7c-0.4-0.3-0.7-0.7-1-1c-0.3-0.3-0.7-0.7-1-1C-0.4,4.3-1,3.7-1.5,3.2c-0.5-0.6-0.9-1-1.2-1.4
				c-0.3-0.3-0.5-0.5-0.5-0.5l-0.1,0c0,0,0.1,0.2,0.3,0.6C-2.7,2.3-2.4,2.9-2,3.5c0.8,1.3,2,2.9,3.5,4.3c1.5,1.4,3.1,2.5,4.4,3.3
				c0.6,0.4,1.2,0.7,1.6,0.9C7.9,12.1,8.1,12.2,8.2,12.1L8.2,12.1z"/>
		</g>
		<g>
			<path fill="#8A324B" d="M19.8-11C15.3-8.4,11.5-4.5,9,0.2"/>
			<path fill="#C04752" d="M19.7-11c0,0-0.3,0.1-0.7,0.2c-0.4,0.2-1,0.3-1.7,0.7c-0.7,0.3-1.4,0.8-2.2,1.4c-0.4,0.3-0.8,0.6-1.1,0.9
				c-0.4,0.3-0.7,0.7-1.1,1c-0.3,0.4-0.7,0.8-1,1.1c-0.3,0.4-0.6,0.8-0.9,1.2c-0.5,0.8-1,1.6-1.3,2.3C9.5-1.6,9.3-0.9,9.2-0.5
				C9-0.1,9,0.2,9,0.2l0.1,0c0,0,0.5-0.9,1.3-2.1c0.8-1.2,2-2.8,3.4-4.2c1.3-1.4,2.8-2.7,4.1-3.5C18.9-10.4,19.8-10.9,19.7-11
				L19.7-11z"/>
		</g>
		<g>
			<path fill="#8A324B" d="M24.6-2.6c-2.6,0.9-4.8,3-6,5.6"/>
			<path fill="#C04752" d="M24.6-2.7c0,0-0.2,0-0.4,0c-0.2,0-0.6,0-1,0.1c-0.4,0.1-0.9,0.3-1.4,0.5c-0.2,0.1-0.5,0.3-0.7,0.4
				c-0.2,0.2-0.4,0.4-0.7,0.5c-0.2,0.2-0.4,0.4-0.6,0.6c-0.2,0.2-0.3,0.5-0.5,0.7c-0.3,0.5-0.5,0.9-0.6,1.3C18.5,2.4,18.6,3,18.6,3
				l0.1,0c0,0,0.2-0.5,0.6-1.2c0.4-0.7,1-1.5,1.8-2.2c0.7-0.7,1.6-1.3,2.3-1.7C24.2-2.4,24.7-2.6,24.6-2.7L24.6-2.7z"/>
		</g>
		<g>
			<path fill="#8A324B" d="M18.3,3.9c0.8,1.8,2.8,2.9,4.6,2.8"/>
			<path fill="#C04752" d="M18.2,3.9c0,0,0,0.1,0,0.3c0,0.2,0,0.5,0.1,0.8c0.1,0.3,0.2,0.6,0.5,1c0.1,0.1,0.2,0.3,0.4,0.4
				c0.2,0.1,0.3,0.3,0.5,0.4C19.8,6.9,20,7,20.2,7c0.2,0.1,0.4,0.1,0.6,0.2c0.4,0.1,0.8,0.1,1.1,0c0.3-0.1,0.6-0.2,0.7-0.3
				c0.2-0.1,0.2-0.2,0.2-0.2l0-0.1c0,0-0.4,0-0.9-0.1c-0.5-0.1-1.2-0.3-1.8-0.7c-0.6-0.4-1.1-0.9-1.4-1.3
				C18.5,4.2,18.3,3.9,18.2,3.9L18.2,3.9z"/>
		</g>
		<g>
			<path fill="#8A324B" d="M9,3.3C11.2,8,14.8,12,19.1,14.6"/>
			<path fill="#C04752" d="M9,3.3c0,0,0,0.2,0.1,0.7c0.1,0.4,0.3,1,0.5,1.7c0.3,0.7,0.7,1.5,1.1,2.3c0.3,0.4,0.5,0.8,0.8,1.2
				c0.3,0.4,0.6,0.8,0.9,1.2c0.3,0.4,0.7,0.7,1,1.1c0.3,0.3,0.7,0.6,1.1,0.9c0.7,0.6,1.5,1.1,2.1,1.4c0.6,0.4,1.2,0.6,1.6,0.7
				c0.4,0.1,0.7,0.2,0.7,0.2l0.1-0.1c0,0-0.2-0.1-0.6-0.4c-0.4-0.2-0.8-0.6-1.4-1c-1.1-0.9-2.6-2.1-3.8-3.6c-1.3-1.4-2.4-3-3.1-4.2
				C9.5,4.2,9.1,3.3,9,3.3L9,3.3z"/>
		</g>
		<g>
			<path fill="#8A324B" d="M-1.4-26.7c0.7,3.4,2.5,6.6,5,9"/>
			<path fill="#C04752" d="M-1.5-26.7c0,0,0,0.2-0.1,0.5c0,0.3-0.1,0.7,0,1.3c0,0.5,0.1,1.1,0.3,1.7c0.1,0.3,0.2,0.6,0.3,0.9
				c0.1,0.3,0.3,0.6,0.4,0.9c0.2,0.3,0.4,0.6,0.6,0.9c0.2,0.3,0.4,0.5,0.6,0.8c0.4,0.5,0.9,0.9,1.3,1.2c0.8,0.6,1.5,0.8,1.5,0.8
				l0.1-0.1c0,0-0.5-0.4-1.1-1.2c-0.6-0.7-1.4-1.8-2-2.9C-0.2-23-0.7-24.2-1-25.2c-0.3-0.9-0.4-1.6-0.4-1.6L-1.5-26.7z"/>
		</g>
		<g>
			<path fill="#8A324B" d="M5.2-16.4c2.8,0,5.5-0.9,7.7-2.5"/>
			<path fill="#C04752" d="M5.2-16.3c0,0,0.5,0.3,1.3,0.4c0.4,0.1,0.9,0.1,1.4,0.1c0.3,0,0.5,0,0.8-0.1C9-16,9.3-16,9.5-16.1
				c0.3-0.1,0.5-0.2,0.8-0.3c0.3-0.1,0.5-0.3,0.7-0.4c0.4-0.3,0.8-0.6,1.1-0.9c0.6-0.6,0.8-1.1,0.8-1.1l-0.1-0.1
				c0,0-0.4,0.3-1.1,0.7c-0.7,0.4-1.6,0.8-2.6,1.1c-1,0.3-2,0.5-2.7,0.6c-0.8,0.1-1.3,0.1-1.3,0.1L5.2-16.3z"/>
		</g>
		<g>
			<path fill="#8A324B" d="M-5.1-19.2c-0.6,3.4-0.6,6.9-0.2,10.4"/>
			<path fill="#C04752" d="M-5.2-19.2c0,0-0.4,0.6-0.7,1.5c-0.2,0.5-0.3,1-0.4,1.7c0,0.3-0.1,0.6-0.1,1c0,0.3,0,0.7-0.1,1
				c0,0.3,0,0.7,0,1c0,0.3,0.1,0.6,0.1,1c0.1,0.6,0.2,1.2,0.4,1.7c0.3,1,0.7,1.6,0.7,1.6l0.1,0c0,0-0.3-2.6-0.2-5.2
				c0-2.6,0.4-5.2,0.4-5.2L-5.2-19.2z"/>
		</g>
		<g>
			<path fill="#8A324B" d="M10.5,19c-2.2-2-5.1-3.2-7.9-3.1"/>
			<path fill="#C04752" d="M10.5,19c0,0-0.1-0.1-0.2-0.4c-0.1-0.2-0.3-0.6-0.6-0.9c-0.3-0.4-0.6-0.7-1.1-1c-0.2-0.1-0.5-0.3-0.7-0.5
				c-0.3-0.1-0.5-0.3-0.8-0.4c-0.3-0.1-0.6-0.2-0.8-0.3c-0.3-0.1-0.6-0.1-0.8-0.2c-0.5-0.1-1.1-0.1-1.5,0c-0.9,0.1-1.4,0.4-1.4,0.4
				l0,0.1c0,0,0.5,0,1.3,0.1c0.8,0.1,1.9,0.3,2.9,0.7c1,0.4,1.9,0.9,2.6,1.4C10,18.7,10.4,19.1,10.5,19L10.5,19z"/>
		</g>
		<g>
			<path fill="#8A324B" d="M-2.6,14.4c-2.2,2.6-3.6,6-3.9,9.6"/>
			<path fill="#C04752" d="M-2.6,14.3c0,0-0.2,0.1-0.4,0.2c-0.3,0.2-0.6,0.4-1,0.8c-0.4,0.3-0.8,0.8-1.2,1.3
				c-0.2,0.3-0.4,0.5-0.5,0.9c-0.2,0.3-0.3,0.6-0.4,0.9c-0.1,0.3-0.2,0.7-0.3,1c-0.1,0.3-0.1,0.7-0.2,1c-0.1,0.6-0.1,1.2-0.1,1.8
				c0,1,0.3,1.7,0.3,1.7l0.1,0c0,0,0-0.7,0.2-1.6c0.2-1,0.5-2.2,1-3.4c0.5-1.2,1.1-2.4,1.7-3.2C-3,14.9-2.5,14.4-2.6,14.3L-2.6,14.3
				z"/>
		</g>
		<g>
			<path fill="#8A324B" d="M-7.2,4.1c-1.5,3.3-1.6,7.3-0.1,10.8"/>
			<path fill="#C04752" d="M-7.2,4.1c0,0-0.1,0.1-0.4,0.4c-0.2,0.2-0.5,0.6-0.8,1.1C-8.6,6.1-8.9,6.7-9,7.3C-9.1,7.7-9.2,8-9.2,8.4
				c0,0.4-0.1,0.7-0.1,1.1c0,0.4,0,0.7,0.1,1.1c0,0.4,0.1,0.7,0.2,1.1c0.2,0.7,0.4,1.3,0.7,1.8c0.2,0.5,0.5,0.9,0.7,1.1
				c0.2,0.3,0.3,0.4,0.3,0.4l0.1,0c0,0-0.1-0.2-0.2-0.4c-0.1-0.3-0.2-0.7-0.4-1.2c-0.3-1-0.5-2.4-0.5-3.8c0-1.4,0.2-2.8,0.5-3.7
				c0.1-0.5,0.3-0.9,0.4-1.2C-7.2,4.3-7.1,4.1-7.2,4.1L-7.2,4.1z"/>
		</g>
		<g>
			<path fill="#8A324B" d="M-9.2-18.3c-0.4,2-1.8,3.8-3.7,4.5"/>
			<path fill="#C04752" d="M-9.3-18.3c0,0-0.1,0.1-0.2,0.2c-0.1,0.1-0.3,0.3-0.5,0.5c-0.2,0.2-0.4,0.4-0.6,0.7
				c-0.2,0.2-0.4,0.5-0.6,0.7c-0.1,0.1-0.2,0.3-0.3,0.4c-0.1,0.1-0.2,0.3-0.3,0.4c-0.2,0.2-0.4,0.5-0.5,0.7
				c-0.2,0.2-0.3,0.4-0.4,0.6c-0.1,0.2-0.2,0.3-0.2,0.3l0,0.1c0,0,0.4-0.1,0.9-0.4c0.5-0.3,1.1-0.8,1.6-1.4c0.5-0.6,0.8-1.3,1-1.8
				c0.2-0.5,0.3-0.9,0.3-0.9L-9.3-18.3z"/>
		</g>
		<g>
			<path fill="#8A324B" d="M-8-10.7c-0.6,1.8-2.3,3-4.1,3.1"/>
			<path fill="#C04752" d="M-8-10.7c0,0-0.1,0.1-0.3,0.1c-0.2,0.1-0.3,0.2-0.5,0.4C-9-10.1-9.3-9.9-9.5-9.8
				c-0.2,0.1-0.4,0.3-0.7,0.5c-0.2,0.2-0.4,0.3-0.6,0.5c-0.2,0.2-0.4,0.3-0.6,0.5c-0.2,0.2-0.4,0.3-0.5,0.4
				c-0.1,0.1-0.2,0.2-0.2,0.2l0,0.1c0,0,0.3,0,0.8-0.1c0.5-0.1,1.1-0.4,1.7-0.8c0.5-0.4,1-1,1.2-1.4C-8-10.4-7.9-10.7-8-10.7
				L-8-10.7z"/>
		</g>
		<g>
			<path fill="#8A324B" d="M-17-10.1c1.1,0.2,2.1,0.5,3.2,0.7"/>
			<path fill="#C04752" d="M-17-10c0,0,0.1,0.3,0.4,0.6c0.1,0.1,0.3,0.3,0.4,0.4c0.1,0,0.2,0.1,0.3,0.1l0.3,0.1l0.3,0
				c0.1,0,0.2,0,0.3,0c0.2,0,0.4-0.1,0.6-0.2c0.3-0.1,0.6-0.4,0.6-0.4l0-0.1c0,0-0.8-0.2-1.6-0.4c-0.8-0.2-1.6-0.3-1.6-0.3L-17-10z"
				/>
		</g>
		<g>
			<path fill="#8A324B" d="M-16.8,2c1.3-0.7,3.1-0.6,4.4,0.4"/>
			<path fill="#C04752" d="M-16.8,2.1c0,0,0.1,0,0.3,0.1c0.2,0,0.3,0.1,0.6,0.1c0.2,0.1,0.4,0.1,0.6,0.1c0.1,0,0.2,0.1,0.3,0.1
				c0.1,0,0.2,0,0.3,0c0.2,0,0.4,0,0.7,0c0.2,0,0.5,0,0.7,0c0.4,0,0.8-0.1,0.8-0.1l0.1-0.1c0,0-0.2-0.2-0.6-0.4
				c-0.4-0.2-0.9-0.4-1.5-0.5c-0.6-0.1-1.2,0-1.6,0.2C-16.6,1.8-16.9,2-16.8,2.1L-16.8,2.1z"/>
		</g>
		<g>
			<path fill="#8A324B" d="M-14.3,9.6c-2.1-0.4-4.2,1.1-4.6,3.3"/>
			<path fill="#C04752" d="M-14.3,9.6c0,0-0.1-0.1-0.2-0.2C-14.6,9.3-15,9.1-15.3,9c-0.3-0.1-0.8-0.1-1.2,0
				c-0.2,0.1-0.4,0.1-0.7,0.2c-0.2,0.1-0.4,0.2-0.6,0.3c-0.2,0.2-0.4,0.3-0.5,0.5c-0.2,0.2-0.3,0.4-0.4,0.5
				c-0.2,0.4-0.4,0.8-0.4,1.1c0,0.3,0,0.6,0,0.8c0.1,0.2,0.1,0.3,0.1,0.3l0.1,0c0,0,0-0.1,0.1-0.3c0-0.2,0.1-0.4,0.3-0.6
				c0.2-0.5,0.7-1.1,1.4-1.6c0.6-0.5,1.4-0.7,1.9-0.8c0.3,0,0.5,0,0.7,0c0.2,0,0.3,0,0.3,0L-14.3,9.6z"/>
		</g>
		<g>
			<path fill="#8A324B" d="M-33.2-1.5c7-2.2,14.7-2.7,22.1-1.3"/>
			<path fill="#C04752" d="M-33.2-1.4c0,0,0.4,0,1-0.1c0.6-0.1,1.5-0.2,2.5-0.3C-29.2-1.9-28.6-2-28-2c0.6-0.1,1.2-0.1,1.9-0.2
				c1.3-0.1,2.6-0.2,4-0.3c1.4-0.1,2.7-0.1,4-0.2c0.6,0,1.3,0,1.9,0c0.6,0,1.2,0,1.7,0c1,0,1.9,0,2.5,0c0.6,0,1,0,1,0l0-0.1
				c0,0-0.3-0.1-0.9-0.2c-0.6-0.1-1.5-0.2-2.5-0.3c-2.1-0.2-4.9-0.4-7.7-0.2C-25-3.4-27.8-3-29.9-2.5c-1,0.2-1.9,0.5-2.5,0.6
				c-0.6,0.2-0.9,0.3-0.9,0.3L-33.2-1.4z"/>
		</g>
	</g>
</symbol>
<symbol  id="New_Symbol_2" viewBox="-12.8 -26.2 25.5 52.5">
	<g>
		<path fill="#F7C453" d="M-11.3-0.8c-0.8-3.2-1.1-6.5-0.7-9.8c0.3,0.1,0.7,0.1,1,0.2c-0.6-5.2-0.6-10.5-0.1-15.7
			C-4.8-23,0.3-17.5,3.1-11.1c0.8-0.1,1.6-0.2,2.4-0.3c1.1,1.6,1.9,3.5,2.2,5.4C8.6-6,9.4-6.1,10.3-6.2c0.9,2.1,1.2,4.4,0.9,6.7
			c0.5,0.1,1,0.2,1.5,0.2c-0.4,9-3.4,18-8.6,25.4c-4.3-3.4-8-7.5-10.9-12.1c0.6-0.1,1.2-0.1,1.8-0.2c-3.4-3.9-6-8.4-7.7-13.3
			c0.6,0,1.2,0,1.8,0C-11.1,0.1-11.2-0.4-11.3-0.8z"/>
		<path fill="#D35634" d="M-11.3-0.8c-0.8-3.2-1-6.5-0.7-9.8l-0.1,0.1l1,0.2l0.1,0l0-0.1c-0.3-2.6-0.4-5.2-0.4-7.8
			c0-2.6,0.2-5.2,0.5-7.8l-0.4,0.2c0.8,0.4,1.5,0.8,2.3,1.3c0.7,0.5,1.4,1,2.1,1.5c0.7,0.5,1.3,1.1,2,1.7c0.6,0.6,1.2,1.2,1.8,1.8
			c0.6,0.6,1.1,1.3,1.7,2c0.5,0.7,1,1.4,1.5,2.1c0.5,0.7,0.9,1.5,1.3,2.2c0.4,0.8,0.7,1.6,1.1,2.4l0.2,0.4l0.5-0.1l2.4-0.2l-0.6-0.3
			C6-9.4,6.7-7.6,7-5.8l0.1,0.6l0.7-0.1l2.6-0.3L9.6-5.9c0.8,2,1.1,4.2,0.8,6.4l-0.1,0.7l0.7,0.1l1.5,0.2l-0.6-0.8
			c-0.1,1.1-0.1,2.2-0.2,3.3c-0.1,1.1-0.3,2.2-0.5,3.3c-0.2,1.1-0.4,2.2-0.7,3.3c-0.3,1.1-0.6,2.2-0.9,3.2L9,15.4L8.4,17
			C8,18,7.5,19,7,20.1c-0.5,1-1,2-1.6,3l-0.9,1.4l-0.9,1.4l0.7-0.1c-4.3-3.3-8.1-7.3-11.1-11.9l-0.1,0.3L-5,14l0.3,0l-0.2-0.2
			c-1.7-1.9-3.2-4-4.5-6.2c-1.3-2.2-2.4-4.6-3.2-7l-0.1,0.1l1.8,0l0.1,0l0-0.1L-11.3-0.8z M-11.4-0.8l0.4,1.4l0-0.1l-1.8,0l-0.1,0
			l0,0.1c1.7,4.9,4.3,9.4,7.7,13.3l0-0.1L-6.9,14L-7,14l0,0.1C-4,18.7-0.3,22.8,4,26.2l0.1,0l0-0.1l0.9-1.4L6,23.3
			c0.6-1,1.1-2,1.6-3c0.5-1,1-2,1.4-3.1c0.4-1,0.8-2.1,1.2-3.2c0.4-1.1,0.7-2.2,1-3.3c0.3-1.1,0.5-2.2,0.8-3.3
			c0.2-1.1,0.4-2.2,0.5-3.4c0.1-1.1,0.2-2.3,0.3-3.4l0-0.1l-0.1,0l-1.5-0.2l0.1,0.1c0.3-2.3-0.1-4.6-0.9-6.8l0-0.1l-0.1,0L7.7-6
			l0.1,0.1c-0.3-1.9-1.1-3.8-2.3-5.4l0,0l0,0l-2.4,0.3l0.1,0c-0.4-0.8-0.7-1.6-1.1-2.4c-0.4-0.8-0.9-1.5-1.4-2.3
			c-0.5-0.7-1-1.5-1.5-2.1c-0.6-0.7-1.1-1.4-1.7-2c-0.6-0.6-1.2-1.3-1.9-1.8c-0.7-0.6-1.3-1.1-2.1-1.7c-0.7-0.5-1.4-1-2.2-1.5
			c-0.8-0.5-1.5-0.9-2.3-1.3l-0.1,0l0,0.1c-0.5,5.2-0.5,10.5,0.1,15.7l0.1-0.1l-1-0.2l-0.1,0l0,0.1C-12.4-7.4-12.2-4-11.4-0.8z"/>
	</g>
	<g>
		<path fill="#F7C453" d="M-9-21.2C-1.9-7.3,2.1,8.3,2.7,23.9"/>
		<path fill="#D35634" d="M-9-21.2c0,0,0.3,0.7,0.8,1.9c0.5,1.2,1.2,2.9,1.9,4.9c0.4,1,0.8,2.1,1.2,3.3c0.4,1.2,0.8,2.5,1.3,3.7
			C-3.4-6-3-4.7-2.6-3.3c0.4,1.4,0.8,2.8,1.1,4.2c0.4,1.4,0.7,2.8,1,4.2c0.3,1.4,0.6,2.8,0.9,4.1c0.2,1.4,0.5,2.6,0.7,3.9
			c0.2,1.2,0.4,2.4,0.5,3.5c0.3,2.2,0.6,4,0.7,5.3c0.1,1.3,0.2,2,0.2,2l0.1,0c0,0,0-0.7-0.1-2c0-0.6-0.1-1.4-0.1-2.3
			c-0.1-0.9-0.1-1.9-0.3-3c-0.1-1.1-0.3-2.3-0.4-3.5c-0.2-1.3-0.4-2.6-0.6-3.9C0.9,7.8,0.7,6.4,0.4,5c-0.3-1.4-0.7-2.8-1-4.3
			C-1-0.7-1.4-2.1-1.8-3.5c-0.4-1.4-0.9-2.7-1.3-4c-0.5-1.3-0.9-2.6-1.4-3.7c-0.5-1.2-0.9-2.3-1.3-3.3c-0.4-1-0.8-1.9-1.2-2.8
			c-0.4-0.8-0.7-1.5-1-2.1C-8.6-20.6-8.9-21.2-9-21.2L-9-21.2z"/>
	</g>
	<g>
		<path fill="#F7C453" d="M3.8-8.7c0,3.3-1.2,6.5-3.1,9.1"/>
		<path fill="#D35634" d="M3.8-8.7c0,0-0.1,0.2-0.2,0.4C3.6-8,3.4-7.6,3.3-7.2C3.1-6.8,3-6.3,2.8-5.8C2.6-5.2,2.5-4.7,2.3-4.1
			C2.1-3.6,1.9-3,1.7-2.5C1.5-2,1.3-1.5,1.2-1.1C1-0.7,0.9-0.3,0.8,0C0.7,0.2,0.6,0.4,0.6,0.4l0.1,0.1c0,0,0.4-0.5,0.9-1.3
			c0.5-0.8,1.1-1.9,1.5-3C3.4-5,3.7-6.2,3.8-7.1C3.9-8.1,3.9-8.7,3.8-8.7L3.8-8.7z"/>
	</g>
	<g>
		<path fill="#F7C453" d="M3.6,8.7c2.9-3.6,4.7-8,5.1-12.6"/>
		<path fill="#D35634" d="M3.6,8.7c0,0,0.2-0.1,0.5-0.4c0.3-0.3,0.7-0.6,1.1-1.1c0.4-0.5,0.9-1.1,1.3-1.8C6.8,5,7,4.6,7.2,4.2
			C7.4,3.8,7.6,3.4,7.8,3c0.1-0.4,0.3-0.8,0.4-1.3c0.1-0.4,0.2-0.8,0.3-1.2C8.7-0.3,8.8-1,8.8-1.7c0-0.7,0-1.2,0-1.6
			c0-0.4-0.1-0.6-0.1-0.6l-0.1,0c0,0-0.1,0.9-0.3,2.1C8.1-0.5,7.6,1.1,7,2.7C6.4,4.3,5.5,5.8,4.8,6.9C4.1,8,3.6,8.6,3.6,8.7L3.6,8.7
			z"/>
	</g>
	<g>
		<path fill="#F7C453" d="M4,18c3.3-3.6,5.4-8.2,5.9-13"/>
		<path fill="#D35634" d="M4,18c0,0,0.2-0.1,0.5-0.4c0.3-0.3,0.8-0.6,1.3-1.1c0.5-0.5,1-1.1,1.5-1.8c0.2-0.4,0.5-0.7,0.7-1.1
			c0.2-0.4,0.4-0.8,0.6-1.2C8.8,11.9,9,11.4,9.2,11c0.2-0.4,0.3-0.9,0.4-1.3C9.8,8.9,9.9,8.1,10,7.4c0.1-0.7,0-1.3,0-1.7
			C10,5.3,10,5,10,5L9.9,5c0,0,0,0.2-0.1,0.6C9.7,6,9.6,6.6,9.5,7.2c-0.3,1.3-0.8,3.1-1.6,4.7c-0.7,1.6-1.7,3.2-2.5,4.3
			c-0.4,0.5-0.8,1-1,1.3C4.1,17.8,4,18,4,18L4,18z"/>
	</g>
	<g>
		<path fill="#F7C453" d="M-10.7-7.8c3.5,2.4,6.4,5.6,8.5,9.3"/>
		<path fill="#D35634" d="M-10.7-7.8c0,0,0.1,0.2,0.4,0.4c0.3,0.3,0.6,0.6,1,1.1C-9-5.9-8.5-5.4-8-4.9c0.5,0.5,1,1.1,1.5,1.7
			c0.5,0.6,1,1.1,1.5,1.7C-4.5-1-4-0.5-3.6,0c0.4,0.4,0.7,0.8,1,1.1c0.2,0.3,0.4,0.4,0.4,0.4l0.1,0c0,0-0.4-0.7-1-1.7
			c-0.6-1-1.6-2.3-2.6-3.5C-6.9-4.9-8.1-6-9.1-6.7C-10-7.4-10.7-7.9-10.7-7.8L-10.7-7.8z"/>
	</g>
	<g>
		<path fill="#F7C453" d="M-10.3,3.2c4.5,1.9,8.4,5.2,11,9.4"/>
		<path fill="#D35634" d="M-10.3,3.2c0,0,0.2,0.2,0.5,0.4c0.3,0.2,0.8,0.6,1.4,1C-8.1,4.7-7.8,5-7.5,5.2c0.3,0.2,0.6,0.5,1,0.7
			c0.7,0.5,1.4,1.1,2,1.7c0.7,0.6,1.3,1.2,1.9,1.8c0.3,0.3,0.6,0.6,0.9,0.8c0.3,0.3,0.5,0.5,0.8,0.8c0.5,0.5,0.9,0.9,1.2,1.2
			c0.3,0.3,0.5,0.5,0.5,0.5l0.1,0c0,0-0.1-0.2-0.3-0.5c-0.2-0.3-0.5-0.8-1-1.4c-0.8-1.1-2-2.5-3.4-3.7c-1.4-1.2-3-2.2-4.2-2.8
			c-0.6-0.3-1.1-0.6-1.5-0.7C-10,3.2-10.3,3.1-10.3,3.2L-10.3,3.2z"/>
	</g>
	<g>
		<path fill="#F7C453" d="M-3.9,15.4c2,0.2,3.8,1.2,5.2,2.6"/>
		<path fill="#D35634" d="M-3.9,15.4c0,0,0.1,0.1,0.2,0.2c0.2,0.1,0.3,0.2,0.6,0.4c0.2,0.1,0.5,0.3,0.8,0.5c0.3,0.2,0.6,0.3,0.9,0.5
			c0.3,0.1,0.6,0.3,0.9,0.4c0.3,0.1,0.6,0.3,0.8,0.4c0.3,0.1,0.5,0.2,0.7,0.2C1.1,18,1.2,18,1.2,18L1.3,18c0,0-0.2-0.3-0.7-0.6
			c-0.4-0.4-1-0.8-1.7-1.2c-0.7-0.3-1.4-0.6-1.9-0.7C-3.6,15.4-3.9,15.4-3.9,15.4L-3.9,15.4z"/>
	</g>
</symbol>
<symbol  id="New_Symbol_3" viewBox="-43.2 -44 86.4 88">
	<g>
		<g>
			<path fill="#F7C453" d="M9.1,17.7c1.9-2,3.2-4.6,3.7-7.3"/>
			<path fill="#D35634" d="M9.2,17.7c0,0,0.1-0.1,0.3-0.2c0.2-0.1,0.5-0.3,0.8-0.6c0.3-0.3,0.7-0.6,1-1c0.1-0.2,0.3-0.4,0.5-0.6
				c0.1-0.2,0.3-0.5,0.4-0.7c0.1-0.3,0.2-0.5,0.3-0.7c0.1-0.2,0.2-0.5,0.2-0.8c0.1-0.5,0.2-1,0.2-1.4c0-0.4,0-0.8,0-1
				c0-0.2-0.1-0.4-0.1-0.4l-0.1,0c0,0-0.1,0.5-0.3,1.3c-0.2,0.7-0.6,1.7-1,2.6c-0.5,0.9-1,1.8-1.5,2.4C9.4,17.2,9.1,17.6,9.2,17.7
				L9.2,17.7z"/>
		</g>
		<g>
			<path fill="#F7C453" d="M3.8,16.4c4-0.9,7.5-3.5,9.6-7"/>
			<path fill="#D35634" d="M3.8,16.5c0,0,0.2,0,0.5,0c0.3,0,0.8,0,1.4-0.2C6.3,16.2,7,16,7.7,15.7c0.3-0.2,0.7-0.3,1-0.5
				c0.3-0.2,0.7-0.4,1-0.6c0.3-0.2,0.6-0.5,0.9-0.8c0.3-0.2,0.6-0.5,0.8-0.8c0.5-0.6,0.9-1.1,1.2-1.6c0.3-0.5,0.5-1,0.6-1.3
				c0.1-0.3,0.2-0.5,0.2-0.5l-0.1,0c0,0-0.1,0.2-0.3,0.4c-0.2,0.3-0.4,0.7-0.8,1.1c-0.7,0.9-1.8,2-3,2.9c-1.2,0.9-2.6,1.6-3.6,2
				c-0.5,0.2-1,0.3-1.3,0.4C4,16.3,3.8,16.4,3.8,16.5L3.8,16.5z"/>
		</g>
		<g>
			<path fill="#F7C453" d="M11.6,6c0.8,1.5,1.2,3.2,1.1,4.9"/>
			<path fill="#D35634" d="M11.5,6c0,0,0,0.1,0,0.3c0,0.2,0,0.4,0,0.6c0,0.2,0,0.5,0.1,0.8c0,0.3,0.1,0.6,0.2,0.9
				c0.1,0.3,0.1,0.6,0.2,0.8c0.1,0.3,0.2,0.5,0.3,0.7c0.1,0.2,0.2,0.4,0.3,0.5c0.1,0.1,0.1,0.2,0.1,0.2l0.1,0c0,0,0.1-1.3-0.2-2.5
				C12.2,7.1,11.6,6,11.5,6L11.5,6z"/>
		</g>
		<g>
			<path fill="#F7C453" d="M12.9,10.4c1.5-1.6,3.9-2.4,6.1-2.1"/>
			<path fill="#D35634" d="M13,10.4c0,0,0.1,0,0.3-0.1c0.2-0.1,0.4-0.1,0.7-0.3c0.3-0.1,0.6-0.2,0.9-0.4c0.3-0.1,0.7-0.3,1-0.4
				c0.4-0.1,0.7-0.2,1.1-0.4c0.3-0.1,0.7-0.2,1-0.3c0.3-0.1,0.6-0.2,0.7-0.2C18.9,8.3,19,8.3,19,8.3l0-0.1c0,0-0.4-0.1-1-0.1
				c-0.6,0-1.5,0.1-2.3,0.4c-0.8,0.3-1.5,0.7-2,1.1C13.2,10,12.9,10.3,13,10.4L13,10.4z"/>
		</g>

			<use xlink:href="#New_Symbol_2"  width="25.5" height="52.5" x="-12.8" y="-26.2" transform="matrix(1 0 0 1 8.0018 -17.7897)" overflow="visible"/>

			<use xlink:href="#New_Symbol_2"  width="25.5" height="52.5" x="-12.8" y="-26.2" transform="matrix(0.6556 -0.7551 0.7551 0.6556 -13.9377 -7.5608)" overflow="visible"/>

			<use xlink:href="#New_Symbol_2"  width="25.5" height="52.5" x="-12.8" y="-26.2" transform="matrix(0.1003 -0.8486 0.9284 0.1097 -17.7099 16.4892)" overflow="visible"/>

			<use xlink:href="#New_Symbol_2"  width="25.5" height="52.5" x="-12.8" y="-26.2" transform="matrix(0.7604 0.3632 0.3013 -0.6309 -0.1195 31.4769)" overflow="visible"/>

			<use xlink:href="#New_Symbol_2"  width="25.5" height="52.5" x="-12.8" y="-26.2" transform="matrix(0.3632 0.7604 -0.6309 0.3013 30.6373 -2.0926)" overflow="visible"/>
	</g>
</symbol>
<symbol  id="New_Symbol_4" viewBox="-29.8 -29.3 59.6 58.7">
	<g>
		<g>
			<path fill="#ED693B" d="M-23.2-7c1.7-1.9,3-4.4,3.2-7.1c3.3,1.3,6.9,1.7,10.2,1.1c-1.2-0.3-2.3-0.9-3.3-1.7
				c0-2.4-0.5-4.9-1.4-7.2c2.9,0.9,5.9,1,8.6,0.2c1.7,1.3,3.1,2.9,4.2,4.7c0.7-1.4,1.5-2.8,2.2-4.3c1,1.6,2.1,3.3,3.1,4.9
				c0.8,1.3,1.7,2.7,2.1,4.1c0.2,0.7,0.3,1.7,0.3,2.7c0.5-0.8,1.2-1.5,1.7-1.9c1.1-0.9,2.5-1.4,3.9-1.8c1.7-0.6,3.4-1.1,5.2-1.7
				c-0.2,1.6-0.4,3.2-0.6,4.9c1.8-0.7,3.9-1,5.9-0.8c1.7,2.4,4.1,4.4,6.9,5.7c-2.1,1.2-3.8,2.8-5.1,4.7c-1.2,0-2.4-0.3-3.5-0.9
				c2.3,2.7,5.3,4.9,8.6,6.1c-1.4,2.2-1.7,5-1.5,7.7c0.3,2.8,1.2,5.6,2.3,8.3c-2.1-0.9-4.2-1.7-6.3-2.3c-0.3-0.1-0.7-0.2-1-0.3
				c-1-0.3-2.1-0.5-3.1-0.3c-0.8,0.1-1.6,0.6-1.9,1.4c-2.1-1.8-3.8-4.2-4.7-6.7c-3,6.2-1.1,8.5-3.1,12.2c-1.5-1.1-3.4-1.5-5.1-1.1
				c-1.2,0.3-2.1,1-2.8,1.9c-2.3-0.5-5,0.2-7.4,3.3c-0.1,0.1-0.2,0.2-0.2,0.3c0-0.1,0-0.3,0-0.4c-0.2-4.2-1.9-6.6-4-7.7
				c0-1.2-0.4-2.4-1.2-3.4c-1.1-1.5-2.8-2.5-4.6-2.7c0.5-4.2,3.2-4.8,4.4-11.7c-2.2,1.3-4.8,2-7.5,2c0.2-0.8-0.2-1.7-0.7-2.4
				c-0.7-0.8-1.7-1.4-2.6-1.9c-0.3-0.2-0.6-0.3-1-0.5c-2-1-4.1-1.9-6.2-2.6C-27.3-3.5-25-5-23.2-7z"/>
			<path fill="#F9A74C" d="M-23.2-7c1.8-1.9,3-4.4,3.2-7.1l-0.1,0.1c3.2,1.3,6.8,1.7,10.2,1.1l0.6-0.1l-0.6-0.1
				c-1.2-0.3-2.3-0.8-3.2-1.6l0.1,0.1c0.1-2.5-0.5-5-1.4-7.3l-0.2,0.2c2.8,0.9,5.8,1,8.7,0.3l-0.2,0c1.6,1.3,3,2.9,4.1,4.7l0.3,0.5
				l0.3-0.5L0.7-21l-0.6,0l3.4,5.6c0.6,0.9,1.1,1.9,1.4,2.8c0.3,1,0.4,2,0.4,3.1l0,1.7l1-1.4c0.3-0.4,0.6-0.8,0.9-1.1
				c0.2-0.2,0.3-0.3,0.5-0.5c0.2-0.1,0.4-0.3,0.6-0.4c0.8-0.5,1.7-0.9,2.7-1.2l5.9-1.9L15.9-15l-0.7,4.9L15-9l1.1-0.4
				c1.8-0.6,3.7-0.9,5.6-0.7l-0.6-0.3c1.8,2.6,4.3,4.7,7.1,6l-0.1-1.5c-2.1,1.2-4,2.9-5.4,4.9l0.7-0.4c-1.1,0-2.1-0.3-3.1-0.9
				l-4.2-2.4l3.1,3.7c2.4,2.8,5.5,5.1,8.9,6.4l-0.5-1.3c-0.8,1.3-1.3,2.8-1.5,4.2c-0.2,1.5-0.2,3,0,4.4c0,0.3,0.1,0.7,0.2,1.1
				c0.1,0.4,0.1,0.7,0.2,1.1c0.2,0.7,0.3,1.4,0.5,2.1c0.4,1.4,0.9,2.7,1.4,4l1.2-1.1c-2.1-0.9-4.2-1.7-6.4-2.3l-0.8-0.2l-0.8-0.2
				c-0.6-0.1-1.2-0.2-1.8-0.3c-0.3,0-0.7,0-1,0.1l-0.1,0l-0.1,0c-0.1,0-0.2,0-0.3,0.1c-0.2,0-0.3,0.1-0.5,0.2
				c-0.6,0.3-1.3,0.8-1.6,1.6l1.3-0.3c-2-1.7-3.6-3.9-4.5-6.4l-0.7-1.9l-0.8,1.8c-0.2,0.5-0.5,1-0.6,1.5c-0.2,0.5-0.4,1-0.5,1.6
				c-0.3,1.1-0.5,2.1-0.6,3.2c-0.1,1.1-0.1,2.2-0.3,3.1c-0.1,0.5-0.2,1-0.3,1.4c-0.1,0.5-0.3,0.9-0.5,1.3l1-0.2
				c-1.3-0.9-2.9-1.4-4.6-1.3c-0.4,0-0.8,0.1-1.2,0.2c-0.2,0-0.4,0.1-0.6,0.2c-0.2,0.1-0.4,0.2-0.6,0.3c-0.7,0.4-1.4,1-1.8,1.6
				l0.6-0.2c-1.6-0.4-3.3-0.1-4.7,0.7C-4,26-4.6,26.5-5.2,27c-0.6,0.5-1.1,1.2-1.5,1.8l0.9,0.3c0-0.4,0-0.8-0.1-1.2
				c0-0.4-0.1-0.8-0.2-1.2c-0.2-0.8-0.4-1.6-0.7-2.4c-0.7-1.5-1.8-2.9-3.3-3.6l0.2,0.3c0-0.8-0.2-1.6-0.5-2.4
				c-0.2-0.4-0.4-0.7-0.6-1.1c-0.1-0.2-0.2-0.3-0.4-0.5c-0.1-0.2-0.3-0.3-0.4-0.4c-1.1-1.1-2.6-1.8-4.2-2l0.3,0.3
				c0.1-0.5,0.2-1,0.3-1.5c0.2-0.5,0.3-1,0.6-1.4c0.4-0.9,1-1.8,1.5-2.7c0.5-0.9,0.9-1.9,1.2-2.9c0.3-1,0.5-2,0.7-3.1l0.1-0.4
				l-0.3,0.2c-2.2,1.4-4.8,2-7.4,2l0.1,0.2c0.1-0.6,0-1.2-0.3-1.7c-0.3-0.5-0.7-1-1.1-1.4c-0.9-0.7-1.9-1.2-2.9-1.8
				c-2-1-4.2-1.9-6.3-2.6l0,0.2C-27.3-3.4-25-4.9-23.2-7z M-23.3-7c-1.8,2-4.1,3.6-6.4,5L-29.8-2l0.1,0c2.2,0.7,4.3,1.6,6.3,2.6
				c1,0.5,2,1,2.9,1.7c0.4,0.4,0.8,0.8,1,1.3c0.2,0.5,0.4,1.1,0.3,1.6l0,0.1l0.1,0c2.6,0,5.3-0.6,7.5-2l-0.1-0.1
				c-0.2,1-0.4,2.1-0.7,3c-0.3,1-0.7,2-1.2,2.9c-0.5,0.9-1.1,1.8-1.5,2.7c-0.2,0.5-0.4,1-0.6,1.5c-0.2,0.5-0.3,1-0.3,1.5l0,0.1
				l0.1,0c1.5,0.2,2.9,0.9,4,2c1.1,1.1,1.7,2.5,1.7,4l0,0l0,0c1.4,0.8,2.4,2,3,3.4c0.6,1.4,0.9,3,0.9,4.6l0,0.2l0.1-0.2
				c0.5-0.6,0.9-1.2,1.5-1.7c0.5-0.5,1.1-1,1.8-1.3c1.3-0.7,2.9-0.9,4.3-0.6l0.1,0l0,0c0.9-1.2,2.3-1.9,3.7-2
				c1.5-0.1,2.9,0.4,4.1,1.2l0.1,0.1l0-0.1c0.2-0.5,0.5-1,0.6-1.5c0.2-0.5,0.3-1,0.3-1.6c0.2-1.1,0.2-2.1,0.3-3.1
				c0.1-1,0.3-2.1,0.7-3.1c0.3-1,0.7-2,1.2-2.9l-0.2,0c1,2.6,2.7,4.9,4.8,6.8l0.1,0.1l0.1-0.1c0.2-0.5,0.6-0.9,1.1-1.1
				c0.5-0.2,1-0.3,1.6-0.3c1.1,0,2.2,0.4,3.2,0.7c2.1,0.6,4.2,1.4,6.3,2.3l0.2,0.1l-0.1-0.2c-1-2.6-1.9-5.2-2.2-8
				c-0.3-2.7,0-5.6,1.4-8l0.1-0.1l-0.1,0c-3.3-1.3-6.3-3.4-8.5-6.1L20-1.3c1.1,0.6,2.3,0.9,3.5,1l0.1,0l0,0c1.3-1.9,3.1-3.5,5.1-4.7
				l0.2-0.1l-0.2-0.1c-2.7-1.3-5.1-3.2-6.8-5.7l0,0l0,0c-2-0.1-4.1,0.1-6,0.8L16-10l0.6-4.9l0-0.1l-0.1,0l-5.9,2
				c-1,0.3-2,0.7-2.8,1.3c-0.9,0.6-1.5,1.4-2.1,2.3l0.1,0c0-1.1-0.1-2.2-0.4-3.3c-0.4-1-0.9-2-1.5-2.9l-3.5-5.6l-0.1-0.1l-0.1,0.1
				l-2.2,4.3l0.1,0c-1.1-1.8-2.5-3.4-4.2-4.7l0,0l0,0c-2.8,0.7-5.8,0.6-8.5-0.2l-0.1,0l0.1,0.1c0.9,2.3,1.4,4.7,1.4,7.2l0,0l0,0
				c0.9,0.8,2.1,1.4,3.3,1.7l0-0.1c-3.4,0.6-6.9,0.2-10.1-1.1l-0.1,0l0,0.1C-20.3-11.4-21.5-9-23.3-7z"/>
		</g>
		<g>
			<path fill="#ED693B" d="M-5.5,24.5C-4.2,13.1-0.6,2.1,5-7.6"/>
			<path fill="#F9A74C" d="M-5.4,24.5c0,0,0.1-0.5,0.4-1.4c0.2-0.9,0.5-2.2,0.9-3.7c0.2-0.8,0.4-1.6,0.6-2.5
				c0.2-0.9,0.5-1.8,0.8-2.8c0.5-1.9,1.1-3.9,1.8-5.9c0.3-1,0.6-2,1-3c0.3-1,0.7-1.9,1-2.9c0.3-0.9,0.7-1.8,1-2.7
				c0.3-0.8,0.6-1.6,1-2.4c0.6-1.5,1.1-2.7,1.5-3.6C4.8-7.1,5-7.6,5-7.6L4.9-7.6c0,0-0.3,0.5-0.7,1.3c-0.5,0.8-1.1,2-1.8,3.4
				C1.7-1.5,0.9,0.2,0.2,2C-0.6,3.9-1.3,5.9-2,7.9c-0.6,2-1.2,4.1-1.7,6c-0.2,1-0.4,1.9-0.6,2.8c-0.2,0.9-0.3,1.7-0.5,2.5
				c-0.3,1.6-0.5,2.9-0.6,3.8c-0.1,0.9-0.2,1.5-0.2,1.5L-5.4,24.5z"/>
		</g>
		<g>
			<path fill="#ED693B" d="M24.2,16.7C15.8,10.3,9.3,1.5,5.8-8"/>
			<path fill="#F9A74C" d="M24.2,16.7c0,0-0.3-0.4-0.9-1c-0.6-0.6-1.4-1.5-2.4-2.5c-0.5-0.5-1-1.1-1.6-1.7c-0.6-0.6-1.1-1.3-1.7-2
				c-1.2-1.4-2.4-2.9-3.5-4.4c-0.6-0.8-1.2-1.5-1.7-2.3c-0.5-0.8-1.1-1.5-1.6-2.3c-0.5-0.8-1-1.5-1.4-2.2C9-2.4,8.5-3.1,8.2-3.7
				C7.5-5,6.9-6.1,6.5-6.8C6.1-7.6,5.9-8,5.9-8L5.8-8c0,0,0.2,0.5,0.5,1.3C6.5-5.9,7-4.8,7.6-3.5C8.3-2.1,9.1-0.6,10,0.9
				c0.5,0.8,1,1.6,1.5,2.4c0.5,0.8,1.1,1.6,1.7,2.4C13.8,6.5,14.3,7.3,15,8c0.6,0.7,1.3,1.4,1.9,2.1c0.6,0.7,1.2,1.3,1.8,1.9
				c0.6,0.6,1.2,1.1,1.7,1.6c1.1,1,2,1.8,2.7,2.3C23.7,16.5,24.1,16.8,24.2,16.7L24.2,16.7z"/>
		</g>
		<g>
			<path fill="#ED693B" d="M4.8-8.4c-9.2,3.9-19.5,5.7-30,5.3"/>
			<path fill="#F9A74C" d="M4.8-8.4c0,0-0.5,0.1-1.3,0.3c-0.8,0.2-2,0.5-3.4,0.9C-0.5-7-1.3-6.9-2.1-6.7c-0.8,0.2-1.6,0.4-2.5,0.6
				C-5.4-6-6.3-5.8-7.2-5.6C-8.1-5.4-9.1-5.2-10-5.1c-1.9,0.3-3.7,0.6-5.5,0.8c-0.9,0.1-1.7,0.2-2.5,0.3c-0.8,0.1-1.6,0.2-2.3,0.2
				c-1.4,0.1-2.6,0.3-3.5,0.3c-0.8,0.1-1.3,0.1-1.3,0.1l0,0.1c0,0,0.5,0,1.3,0c0.8,0,2,0,3.5,0c2.9,0,6.7-0.3,10.5-1
				c3.8-0.7,7.5-1.7,10.2-2.6c1.4-0.5,2.5-0.9,3.3-1.2C4.4-8.2,4.9-8.4,4.8-8.4L4.8-8.4z"/>
		</g>
		<g>
			<path fill="#ED693B" d="M23.3-5.9c-5.8-2.2-11.9-3.3-17.9-3"/>
			<path fill="#F9A74C" d="M23.3-6c0,0-0.2-0.2-0.7-0.4c-0.4-0.2-1.1-0.6-1.9-1C20-7.8,19.1-8.2,18-8.5c-0.5-0.1-1.1-0.3-1.6-0.4
				c-0.6-0.1-1.1-0.2-1.7-0.4c-0.6-0.1-1.2-0.2-1.7-0.2c-0.6-0.1-1.1-0.1-1.7-0.1c-1.1,0-2.1,0-3,0.1C7.5-9.4,6.7-9.2,6.2-9.2
				C5.7-9,5.5-9,5.5-9l0,0.1c0,0,1.1-0.1,2.8,0c1.7,0,4,0.2,6.2,0.6c2.2,0.4,4.5,0.9,6.1,1.4C22.2-6.3,23.3-5.9,23.3-6L23.3-6z"/>
		</g>
		<g>
			<path fill="#ED693B" d="M4.5-9.3c-6-2.7-11.7-6-17.1-9.9"/>
			<path fill="#F9A74C" d="M4.5-9.3c0,0-0.2-0.2-0.7-0.5c-0.5-0.3-1.1-0.8-1.9-1.3c-0.8-0.5-1.7-1.1-2.7-1.7c-0.5-0.3-1-0.6-1.5-0.9
				c-0.5-0.3-1-0.6-1.6-0.9C-4.9-15.2-6-15.8-7-16.4c-1-0.6-2-1.1-2.8-1.5c-0.8-0.4-1.5-0.7-2-1c-0.5-0.2-0.8-0.4-0.8-0.4l-0.1,0.1
				c0,0,1,0.7,2.5,1.8c1.5,1.1,3.6,2.4,5.7,3.6c2.1,1.2,4.3,2.4,6,3.2C3.3-9.7,4.4-9.2,4.5-9.3L4.5-9.3z"/>
		</g>
		<g>
			<path fill="#ED693B" d="M10.1,12.5C9.7,7.2,7.4,2.1,3.8-1.9"/>
			<path fill="#F9A74C" d="M10.2,12.5c0,0,0.1-0.3,0.1-0.7c0-0.4,0.1-1.1,0.1-1.9c0-0.8-0.2-1.7-0.4-2.6c-0.1-0.5-0.2-1-0.4-1.4
				C9.4,5.3,9.2,4.9,9,4.4C8.8,3.9,8.6,3.4,8.3,3C8.1,2.5,7.8,2.1,7.5,1.7c-0.6-0.8-1.1-1.5-1.7-2C5.3-0.9,4.7-1.2,4.4-1.5
				C4-1.8,3.8-1.9,3.8-1.9L3.7-1.8c0,0,0.2,0.2,0.5,0.5C4.5-1,4.9-0.5,5.3,0.1C6.2,1.3,7.3,3,8,4.8C8.9,6.6,9.4,8.5,9.7,10
				c0.2,0.7,0.2,1.3,0.3,1.8c0,0.4,0.1,0.7,0.1,0.7L10.2,12.5z"/>
		</g>
		<g>
			<path fill="#ED693B" d="M-10.8,4c2.9-3.9,7.1-6.4,11.6-7"/>
			<path fill="#F9A74C" d="M-10.8,4c0,0,0.2-0.1,0.5-0.4C-10,3.5-9.5,3.1-9,2.7c0.3-0.2,0.5-0.4,0.8-0.6c0.3-0.2,0.6-0.4,0.9-0.7
				c0.7-0.4,1.3-0.9,2-1.3c0.4-0.2,0.7-0.4,1.1-0.6c0.4-0.2,0.7-0.4,1-0.6c0.7-0.4,1.3-0.7,1.9-1c0.6-0.3,1.1-0.5,1.4-0.7
				C0.6-2.9,0.8-3,0.8-3l0-0.1c0,0-0.2,0-0.6,0.1c-0.4,0.1-0.9,0.2-1.5,0.3c-1.3,0.3-2.9,1-4.4,1.9c-1.5,0.9-2.8,2.1-3.7,3.1
				c-0.4,0.5-0.8,0.9-1,1.2C-10.7,3.8-10.9,4-10.8,4L-10.8,4z"/>
		</g>
		<g>
			<path fill="#ED693B" d="M8.4,21.2c-1.6-4.8-4.6-9.3-8.4-12.9"/>
			<path fill="#F9A74C" d="M8.4,21.2c0,0,0-0.3-0.1-0.7c-0.1-0.4-0.1-1.1-0.4-1.8c-0.2-0.7-0.5-1.6-0.9-2.4
				c-0.2-0.4-0.4-0.9-0.6-1.3c-0.2-0.4-0.5-0.9-0.8-1.3c-0.3-0.4-0.6-0.8-0.9-1.2c-0.3-0.4-0.6-0.8-0.9-1.1C3.3,10.7,2.6,10.1,2,9.7
				c-0.6-0.5-1.1-0.8-1.5-1C0.2,8.4,0,8.3,0,8.3l-0.1,0.1c0,0,0.7,0.7,1.7,1.7c1,1.1,2.2,2.6,3.3,4.2c1.1,1.6,2,3.3,2.6,4.7
				C8,20.3,8.3,21.3,8.4,21.2L8.4,21.2z"/>
		</g>
		<g>
			<path fill="#ED693B" d="M0.1,23.2c-0.4-2.6-2-5.2-4.2-7"/>
			<path fill="#F9A74C" d="M0.1,23.2c0,0,0-0.1,0.1-0.4c0.1-0.2,0.1-0.6,0.1-1c0-0.4-0.1-0.9-0.2-1.4c-0.1-0.2-0.2-0.5-0.3-0.8
				c-0.1-0.3-0.2-0.5-0.4-0.7c-0.2-0.2-0.3-0.5-0.5-0.7c-0.2-0.2-0.4-0.4-0.5-0.6c-0.4-0.4-0.8-0.7-1.1-0.9
				c-0.7-0.4-1.3-0.5-1.3-0.5l-0.1,0.1c0,0,0.4,0.3,0.9,0.9c0.5,0.6,1.2,1.4,1.7,2.3c0.5,0.9,1,1.8,1.2,2.6c0.2,0.7,0.3,1.3,0.3,1.3
				L0.1,23.2z"/>
		</g>
		<g>
			<path fill="#ED693B" d="M-4.8,15.6c-1.7,0.2-3.1,1.6-3.2,3.3"/>
			<path fill="#F9A74C" d="M-4.9,15.5c0,0-0.1-0.1-0.2-0.1c-0.1-0.1-0.4-0.1-0.7-0.2c-0.3,0-0.6,0-1,0.2c-0.2,0.1-0.3,0.1-0.5,0.3
				c-0.2,0.1-0.3,0.2-0.5,0.4c-0.1,0.1-0.3,0.3-0.4,0.5c-0.1,0.2-0.2,0.3-0.2,0.5c-0.1,0.3-0.2,0.7-0.1,1c0,0.3,0.1,0.5,0.2,0.7
				c0.1,0.2,0.1,0.2,0.1,0.2l0.1,0c0,0,0-0.3,0.2-0.7c0.1-0.4,0.5-1,0.9-1.4c0.4-0.4,0.9-0.8,1.4-0.9c0.4-0.2,0.7-0.2,0.7-0.2
				L-4.9,15.5z"/>
		</g>
		<g>
			<path fill="#ED693B" d="M-2.9,7.4c-4.6,0.6-8.7,2.7-11.8,5.8"/>
			<path fill="#F9A74C" d="M-2.9,7.4c0,0-0.2,0-0.6-0.1c-0.4,0-0.9-0.1-1.6,0c-0.7,0-1.4,0.2-2.2,0.4C-7.7,7.7-8.1,7.8-8.5,8
				c-0.4,0.2-0.8,0.3-1.2,0.5c-0.4,0.2-0.8,0.4-1.1,0.6c-0.4,0.2-0.7,0.5-1,0.7c-0.6,0.5-1.2,1-1.6,1.5c-0.4,0.5-0.7,0.9-0.9,1.3
				c-0.2,0.3-0.3,0.5-0.3,0.5l0.1,0.1c0,0,0.1-0.1,0.4-0.4c0.3-0.3,0.6-0.6,1.1-1c1-0.8,2.4-1.7,3.9-2.4C-7.8,8.7-6.2,8.1-5,7.9
				c1.2-0.3,2-0.4,2-0.4L-2.9,7.4z"/>
		</g>
		<g>
			<path fill="#ED693B" d="M25.9,6.7C22.7,6.3,19.5,7,17,8.6"/>
			<path fill="#F9A74C" d="M25.9,6.7c0,0-0.1-0.1-0.4-0.2c-0.2-0.1-0.6-0.3-1.1-0.4c-0.4-0.1-1-0.2-1.6-0.2c-0.3,0-0.6,0-0.9,0
				c-0.3,0-0.6,0.1-0.9,0.1c-0.3,0.1-0.6,0.2-0.9,0.2c-0.3,0.1-0.6,0.2-0.8,0.3c-0.5,0.2-1,0.5-1.3,0.8c-0.7,0.6-1.1,1.2-1.1,1.2
				L17,8.6c0,0,0.5-0.3,1.3-0.7c0.8-0.4,1.9-0.7,3-1c1.1-0.2,2.3-0.3,3.2-0.3c0.9,0,1.4,0.1,1.4,0.1L25.9,6.7z"/>
		</g>
		<g>
			<path fill="#ED693B" d="M15.5,9.7c-0.4,2.5,0,5.2,1.1,7.7"/>
			<path fill="#F9A74C" d="M15.4,9.7c0,0-0.4,0.4-0.6,1.2c-0.1,0.4-0.2,0.8-0.3,1.3c0,0.2-0.1,0.5,0,0.8c0,0.3,0,0.5,0.1,0.8
				c0,0.3,0.1,0.5,0.2,0.8c0,0.3,0.2,0.5,0.2,0.7c0.2,0.5,0.4,0.9,0.6,1.2c0.5,0.7,0.9,1,0.9,1l0.1,0c0,0-0.2-0.4-0.4-1.1
				c-0.2-0.7-0.5-1.6-0.6-2.6c-0.2-1-0.2-1.9-0.1-2.7c0-0.7,0.1-1.2,0.1-1.2L15.4,9.7z"/>
		</g>
		<g>
			<path fill="#ED693B" d="M19.7,1.2c-3-1.5-6.1-2.6-9.3-3.2"/>
			<path fill="#F9A74C" d="M19.7,1.1c0,0-0.4-0.5-1.2-1.1c-0.4-0.3-0.9-0.6-1.4-0.9c-0.3-0.1-0.5-0.3-0.8-0.4
				c-0.3-0.1-0.6-0.2-0.9-0.3c-0.3-0.1-0.6-0.2-0.9-0.3C14.2-2,13.9-2,13.6-2.1c-0.6-0.1-1.1-0.1-1.6-0.1c-1,0-1.6,0.2-1.6,0.2
				l0,0.1c0,0,2.4,0.5,4.8,1.3C17.4,0.1,19.6,1.2,19.7,1.1L19.7,1.1z"/>
		</g>
		<g>
			<path fill="#ED693B" d="M-17.4,4.1c2.2-1.4,3.6-3.7,4-6.2"/>
			<path fill="#F9A74C" d="M-17.3,4.2c0,0,0.1,0,0.4,0c0.2,0,0.6-0.1,0.9-0.3c0.4-0.2,0.8-0.4,1.1-0.7c0.2-0.2,0.4-0.3,0.5-0.5
				c0.2-0.2,0.3-0.4,0.5-0.6c0.1-0.2,0.3-0.5,0.4-0.7c0.1-0.2,0.2-0.5,0.3-0.7c0.1-0.5,0.2-0.9,0.2-1.3c0-0.8-0.2-1.3-0.2-1.3
				l-0.1,0c0,0-0.1,0.5-0.3,1.2c-0.2,0.7-0.6,1.6-1.1,2.4c-0.5,0.8-1.1,1.5-1.7,2C-17,3.8-17.4,4.1-17.3,4.2L-17.3,4.2z"/>
		</g>
		<g>
			<path fill="#ED693B" d="M-11.1-6.3c-2-2.8-4.9-5-8.1-6.3"/>
			<path fill="#F9A74C" d="M-11.1-6.3c0,0-0.1-0.7-0.6-1.6c-0.2-0.5-0.6-0.9-1-1.4c-0.2-0.2-0.4-0.5-0.7-0.7
				c-0.2-0.2-0.5-0.4-0.8-0.7c-0.3-0.2-0.6-0.4-0.8-0.6c-0.3-0.2-0.6-0.3-0.9-0.5c-0.6-0.3-1.1-0.5-1.6-0.6c-1-0.3-1.7-0.2-1.7-0.2
				l0,0.1c0,0,0.6,0.2,1.5,0.7c0.9,0.4,2,1.1,3,1.9c1,0.8,2,1.7,2.6,2.4C-11.6-6.8-11.2-6.2-11.1-6.3L-11.1-6.3z"/>
		</g>
		<g>
			<path fill="#ED693B" d="M-1.2-7.5c-2.7-2.3-6.4-3.5-9.8-3.2"/>
			<path fill="#F9A74C" d="M-1.1-7.5c0,0-0.1-0.2-0.2-0.4c-0.2-0.3-0.4-0.6-0.8-1C-2.5-9.3-3-9.7-3.6-10.1c-0.3-0.2-0.6-0.4-0.9-0.5
				c-0.3-0.1-0.6-0.3-1-0.4c-0.3-0.1-0.7-0.2-1-0.3c-0.3-0.1-0.7-0.1-1-0.1c-0.7-0.1-1.3,0-1.8,0.1c-0.5,0.1-0.9,0.2-1.2,0.3
				c-0.3,0.1-0.4,0.2-0.4,0.2l0,0.1c0,0,0.7-0.1,1.6,0c1,0,2.3,0.3,3.5,0.7c1.2,0.4,2.4,1,3.2,1.5C-1.7-7.9-1.2-7.4-1.1-7.5
				L-1.1-7.5z"/>
		</g>
		<g>
			<path fill="#ED693B" d="M19.4-2.8c-1.8-1-3.1-2.7-3.6-4.6"/>
			<path fill="#F9A74C" d="M19.5-2.8c0,0,0-0.1-0.1-0.3c-0.1-0.2-0.2-0.4-0.3-0.6c-0.1-0.2-0.3-0.5-0.5-0.8
				c-0.2-0.3-0.4-0.5-0.6-0.8c-0.1-0.1-0.2-0.2-0.3-0.4c-0.1-0.1-0.2-0.2-0.3-0.4c-0.2-0.2-0.4-0.5-0.6-0.7
				c-0.4-0.4-0.7-0.7-0.7-0.7l-0.1,0c0,0,0.1,0.4,0.3,0.9c0.2,0.5,0.5,1.2,1,1.8c0.5,0.6,1,1.1,1.5,1.4C19.1-2.9,19.4-2.7,19.5-2.8
				L19.5-2.8z"/>
		</g>
		<g>
			<path fill="#ED693B" d="M12.4-3.9C10.9-5,10-6.8,10.1-8.5"/>
			<path fill="#F9A74C" d="M12.4-3.9c0,0,0-0.1-0.1-0.3c-0.1-0.2-0.1-0.4-0.2-0.6c-0.1-0.2-0.2-0.5-0.3-0.7
				c-0.1-0.3-0.2-0.5-0.3-0.8c-0.1-0.1-0.1-0.2-0.2-0.4c-0.1-0.1-0.1-0.2-0.2-0.4c-0.1-0.2-0.3-0.5-0.4-0.7
				c-0.1-0.2-0.3-0.4-0.4-0.5c-0.1-0.1-0.2-0.2-0.2-0.2l-0.1,0c0,0,0,0.3,0,0.8c0,0.5,0.2,1.2,0.5,1.8c0.3,0.6,0.7,1.1,1.1,1.5
				C12.1-4,12.3-3.8,12.4-3.9L12.4-3.9z"/>
		</g>
		<g>
			<path fill="#ED693B" d="M13.2-12.2c-0.4,0.9-0.7,1.8-1.1,2.7"/>
			<path fill="#F9A74C" d="M13.1-12.2c0,0-0.3,0-0.6,0.2c-0.2,0.1-0.3,0.2-0.4,0.3c-0.1,0.1-0.1,0.1-0.2,0.2l-0.1,0.2L11.7-11
				c0,0.1,0,0.2,0,0.3c0,0.2,0,0.4,0.1,0.5C11.8-9.8,12-9.6,12-9.6l0.1,0c0,0,0.3-0.7,0.6-1.3C13-11.5,13.2-12.2,13.1-12.2
				L13.1-12.2z"/>
		</g>
		<g>
			<path fill="#ED693B" d="M2.2-15.6c0.5,1.4,0,3-1,3.8"/>
			<path fill="#F9A74C" d="M2.1-15.6c0,0-0.1,0.1-0.1,0.2C2-15.2,1.9-15,1.8-14.9c-0.1,0.2-0.2,0.4-0.2,0.6
				c-0.1,0.2-0.1,0.4-0.2,0.6c0,0.1,0,0.2-0.1,0.3c0,0.1,0,0.2,0,0.3c0,0.2,0,0.4-0.1,0.6c0,0.4-0.1,0.8-0.1,0.8l0.1,0.1
				c0,0,0.2-0.2,0.5-0.5c0.3-0.3,0.5-0.8,0.7-1.3c0.1-0.5,0.1-1.1,0-1.5c-0.1-0.4-0.2-0.6-0.2-0.6L2.1-15.6z"/>
		</g>
		<g>
			<path fill="#ED693B" d="M-5.1-15.5c0.6-1.8-0.4-4.1-2.2-5.1"/>
			<path fill="#F9A74C" d="M-5-15.5c0,0,0.1-0.1,0.2-0.2c0.1-0.1,0.3-0.4,0.5-0.7c0.1-0.2,0.1-0.3,0.2-0.5c0-0.2,0.1-0.4,0-0.6
				c0-0.2,0-0.4-0.1-0.7c-0.1-0.2-0.1-0.4-0.2-0.6c-0.1-0.2-0.2-0.4-0.3-0.6c-0.1-0.2-0.3-0.3-0.4-0.5c-0.3-0.3-0.6-0.5-1-0.6
				c-0.3-0.1-0.6-0.2-0.8-0.2c-0.2,0-0.3,0-0.3,0l0,0.1c0,0,0.3,0.2,0.8,0.5c0.4,0.4,0.9,1,1.2,1.6c0.3,0.7,0.5,1.4,0.4,2
				c0,0.3-0.1,0.5-0.1,0.7c0,0.2-0.1,0.3-0.1,0.3L-5-15.5z"/>
		</g>
		<g>
			<path fill="#ED693B" d="M7.9-29.3c0.9,7,0.2,14-2.2,20.3"/>
			<path fill="#F9A74C" d="M7.8-29.3c0,0,0,0.3-0.1,0.9c0,0.6-0.1,1.4-0.1,2.3c-0.1,1-0.1,2.1-0.2,3.3c-0.1,1.2-0.2,2.4-0.3,3.7
				C7-18.5,7-17.9,6.9-17.2c-0.1,0.6-0.2,1.2-0.2,1.8c-0.2,1.2-0.3,2.3-0.5,3.2C6-11.3,5.9-10.4,5.8-9.9C5.7-9.3,5.6-9,5.6-9l0.1,0
				c0,0,0.1-0.3,0.3-0.8c0.2-0.5,0.5-1.3,0.7-2.2c0.6-1.9,1.1-4.4,1.4-7c0.3-2.6,0.3-5.2,0.1-7.1c-0.1-1-0.1-1.8-0.2-2.3
				C8-29,7.9-29.3,7.9-29.3L7.8-29.3z"/>
		</g>
	</g>
</symbol>
<symbol  id="New_Symbol_5" viewBox="-8.6 -11 17.1 21.9">
	<g>
		<path fill="#BE8057" d="M7.4-0.7C7.6-2,7.4-3.3,6.8-4.6c-0.2,0-0.4,0.1-0.6,0.1c-0.2-2-0.8-4.1-1.7-6.1C0.9-9.1-1.7-6.8-2.6-4.2
			c-0.5,0-1,0-1.5,0C-4.7-3.5-4.9-2.8-4.9-2C-5.5-2-6-2-6.6-2c-0.3,0.9-0.2,1.8,0.2,2.6c-0.3,0-0.6,0.1-0.9,0.1
			c1.3,3.5,4.1,6.8,8.2,9.5C3.2,8.8,5,7.1,6.3,5.2c-0.4,0-0.8,0-1.2,0C6.8,3.5,8,1.7,8.4-0.3c-0.4,0-0.7,0-1.1,0.1
			C7.4-0.4,7.4-0.6,7.4-0.7z"/>
		<path fill="#7C5539" d="M7.5-0.7c0.2-1.3-0.1-2.7-0.6-3.9l0-0.1l-0.1,0L6.2-4.6l0.2,0.1C6.2-5.6,6-6.6,5.8-7.6
			c-0.3-1-0.6-2.1-1-3.1L4.7-11l-0.3,0.1c-1.6,0.6-3.1,1.3-4.4,2.4c-1.3,1-2.6,2.4-3.3,4L-2.6-5C-3.1-5-3.6-5-4.1-5l-0.4,0l-0.3,0.3
			C-5.4-4-5.8-3-5.8-2l0.9-0.9l-1.6,0l-0.6,0l-0.2,0.6C-7.8-1.3-7.7,0-7.2,1l0.7-1.3c-0.3,0-0.6,0.1-0.9,0.1L-8.6,0l0.4,1
			c0.8,2.1,2.1,4,3.6,5.6c0.4,0.4,0.8,0.8,1.2,1.2C-3,8.2-2.5,8.6-2.1,8.9c0.9,0.7,1.8,1.3,2.7,1.9L0.9,11l0.3-0.2
			c2.1-1.5,4-3.3,5.3-5.4l0.3-0.4l-0.5,0L5.2,5l0.1,0.3C6.8,3.8,8,1.9,8.5-0.2l0-0.1l-0.1,0L7.4-0.3l0.1,0.1L7.5-0.7z M7.4-0.8
			L7.3-0.2l0,0.1l0.1,0l1.1-0.1L8.4-0.3C7.9,1.8,6.7,3.6,5.1,5.1L5,5.2h0.2l1.2,0L6.3,5.1c-1.4,2.1-3.3,3.7-5.4,5.1l0.1,0
			C-0.8,9-2.5,7.7-3.9,6.1c-1.4-1.6-2.6-3.4-3.3-5.4l-0.1,0.1l0.9-0.1l0.1,0l-0.1-0.1C-6.7-0.2-6.8-1.2-6.5-2l-0.1,0.1l1.6,0l0.1,0
			l0-0.1c0-0.8,0.3-1.5,0.8-2.1l-0.1,0l1.5,0l0.1,0l0-0.1C-2-5.7-0.9-7,0.3-8c1.2-1,2.7-1.9,4.2-2.5l-0.1,0c0.9,1.9,1.5,4,1.7,6.1
			l0,0.1l0.1,0l0.6-0.1l-0.1,0C7.3-3.4,7.5-2.1,7.4-0.8z"/>
	</g>
	<g>
		<path fill="#BE8057" d="M3.7-8.6C0.9-2.9,0.1,3.3,1.5,9.4"/>
		<path fill="#7C5539" d="M3.6-8.6c0,0-0.2,0.2-0.5,0.6C3-7.7,2.8-7.5,2.6-7.2C2.4-6.9,2.2-6.5,2-6.1C1.6-5.3,1.2-4.4,0.8-3.3
			C0.7-2.8,0.5-2.2,0.4-1.7C0.3-1.1,0.2-0.5,0.1,0.1C0,0.7,0,1.3,0,1.9c0,0.6,0,1.2,0,1.7c0.1,1.1,0.2,2.1,0.5,3
			C0.6,7,0.7,7.4,0.8,7.8C0.9,8.1,1,8.4,1.1,8.6c0.2,0.5,0.3,0.7,0.3,0.7l0.1,0c0,0-0.1-0.3-0.2-0.8C1.3,8.1,1.2,7.4,1.1,6.5
			C1,6.1,1,5.6,1,5.1c0-0.5,0-1-0.1-1.6c0-1.1,0.1-2.2,0.2-3.4C1.3-0.9,1.5-2,1.7-3.1c0.1-0.5,0.3-1,0.4-1.5
			c0.1-0.5,0.3-0.9,0.4-1.3c0.3-0.8,0.6-1.5,0.8-1.9C3.6-8.3,3.7-8.5,3.6-8.6L3.6-8.6z"/>
	</g>
	<g>
		<path fill="#BE8057" d="M-2.8-3.2c0.4,1.3,1.4,2.5,3,3.4"/>
		<path fill="#7C5539" d="M-2.9-3.2c0,0,0,0.1-0.1,0.2C-3-2.8-3.1-2.6-3.1-2.3c0,0.3,0.1,0.6,0.2,0.9C-2.8-1.3-2.7-1.2-2.6-1
			c0.1,0.1,0.2,0.3,0.3,0.4c0.2,0.2,0.5,0.4,0.8,0.6C-1.3,0.1-1,0.2-0.8,0.2c0.5,0.1,0.9,0,0.9,0l0.1-0.1c0,0-1-0.6-1.7-1.5
			C-2-1.8-2.3-2.2-2.5-2.6C-2.7-3-2.8-3.3-2.9-3.2L-2.9-3.2z"/>
	</g>
	<g>
		<path fill="#BE8057" d="M-0.8,3.5c-2.2-1.3-3.8-2.9-4.6-4.7"/>
		<path fill="#7C5539" d="M-0.7,3.4c0,0,0-0.1-0.2-0.3C-1,3-1.1,2.7-1.3,2.5C-1.5,2.2-1.7,1.9-2,1.6c-0.1-0.1-0.2-0.3-0.4-0.4
			l-0.4-0.4C-2.9,0.7-3,0.5-3.2,0.4C-3.3,0.3-3.4,0.2-3.6,0c-0.3-0.2-0.5-0.5-0.8-0.6C-4.8-1-5.3-1.2-5.3-1.2l-0.1,0
			c0,0,0.2,0.4,0.5,0.9C-4.6,0.3-4.1,1-3.5,1.6C-2.3,2.7-0.8,3.5-0.7,3.4L-0.7,3.4z"/>
	</g>
	<g>
		<path fill="#BE8057" d="M0,7.1c-2.4-1.3-4.2-3-5.1-4.8"/>
		<path fill="#7C5539" d="M0.1,7.1c0,0-0.1-0.1-0.2-0.3c-0.1-0.2-0.3-0.4-0.5-0.7c-0.2-0.3-0.5-0.5-0.8-0.8
			c-0.1-0.1-0.3-0.3-0.4-0.4C-2,4.7-2.1,4.5-2.3,4.4C-2.4,4.3-2.6,4.1-2.7,4c-0.1-0.1-0.3-0.2-0.5-0.4c-0.3-0.2-0.6-0.5-0.9-0.7
			c-0.3-0.2-0.5-0.4-0.7-0.5C-4.9,2.3-5,2.3-5,2.3l-0.1,0c0,0,0.2,0.4,0.5,1C-4.2,3.9-3.6,4.6-3,5.2C-1.6,6.4,0,7.2,0.1,7.1L0.1,7.1
			z"/>
	</g>
	<g>
		<path fill="#BE8057" d="M6.3-3.4C4.4-2.4,2.9-1,2,0.5"/>
		<path fill="#7C5539" d="M6.2-3.5c0,0-0.5-0.1-1.1,0c-0.3,0.1-0.6,0.2-1,0.3C4.1-3,3.9-3,3.7-2.8C3.6-2.7,3.4-2.6,3.3-2.5
			C3-2.2,2.7-1.9,2.5-1.6c-0.2,0.3-0.3,0.6-0.4,1C1.9,0,2,0.4,2,0.4l0.1,0.1c0,0,0.2-0.3,0.5-0.7c0.3-0.4,0.8-1,1.4-1.4
			C5-2.7,6.3-3.4,6.2-3.5L6.2-3.5z"/>
	</g>
	<g>
		<path fill="#BE8057" d="M7.2,0.8C4.6,1.7,2.6,3.2,1.5,4.9"/>
		<path fill="#7C5539" d="M7.2,0.8c0,0-0.5-0.1-1.2-0.1C5.6,0.8,5.2,0.8,4.8,1C4.3,1.1,3.9,1.4,3.5,1.6C3.1,1.9,2.7,2.2,2.4,2.6
			C2.1,2.9,1.9,3.3,1.7,3.6C1.4,4.3,1.4,4.9,1.4,4.9l0.1,0.1c0,0,0.2-0.4,0.7-0.9C2.7,3.6,3.3,3,4.1,2.5C5.5,1.5,7.3,0.9,7.2,0.8
			L7.2,0.8z"/>
	</g>
	<g>
		<path fill="#BE8057" d="M4.7,5.8C3.5,6,2.4,6.4,1.7,7"/>
		<path fill="#7C5539" d="M4.7,5.8c0,0-0.2-0.3-0.6-0.4C3.9,5.3,3.7,5.2,3.4,5.2c-0.1,0-0.2,0-0.3,0C3,5.3,2.9,5.3,2.8,5.3
			C2.6,5.4,2.3,5.5,2.2,5.7C2,5.9,1.9,6.1,1.8,6.2C1.6,6.6,1.7,7,1.7,7l0.1,0.1c0,0,0.1-0.1,0.4-0.3c0.3-0.2,0.6-0.3,1-0.5
			C3.9,6,4.7,5.9,4.7,5.9L4.7,5.8z"/>
	</g>
</symbol>
<symbol  id="New_Symbol_6" viewBox="-16.6 -10.7 33.2 21.3">
	<g>
		<path fill="#BE8057" d="M4.8-1.9c1.9,1.3,3.6,2.9,5,4.6C9.6,2.7,9.4,2.8,9.1,2.8c2.8,2.4,5.2,4.9,7.3,7.6
			C11.4,10.7,5.9,9.6,1.4,7.2C0.9,7.5,0.5,7.8,0.1,8c-1.4-0.5-2.7-1.1-3.8-2C-4.1,6.3-4.6,6.6-5,6.9c-1.5-0.8-2.7-1.8-3.6-3
			C-9,4-9.3,4.1-9.6,4.3c-4-4.5-6.4-9.7-6.9-14.8c4,0.4,8.1,1.3,11.9,2.7c-0.3,0.2-0.6,0.4-1,0.6C-1.9-6.3,1.7-4.9,5-3
			C4.6-2.8,4.3-2.7,4-2.5C4.2-2.3,4.5-2.1,4.8-1.9z"/>
		<path fill="#7C5539" d="M4.8-1.9c1.9,1.3,3.5,2.8,4.9,4.6l0.1-0.2L9.1,2.7L8.9,2.8L9,3c1.3,1.2,2.6,2.4,3.8,3.7
			c1.2,1.3,2.3,2.6,3.3,4.1l0.3-0.6c-2.6,0.1-5.1-0.2-7.6-0.8C7.6,8.9,6.4,8.5,5.2,8.1C4.6,7.8,4,7.6,3.4,7.3
			C2.9,7.1,2.3,6.8,1.7,6.5L1.3,6.3L0.9,6.5l-1.2,0.8l0.7-0.1c-1.3-0.4-2.5-1.1-3.5-1.9L-3.6,5l-0.5,0.3l-1.3,0.9l0.9,0
			C-5.9,5.4-7,4.5-7.9,3.4l-0.4-0.5L-8.9,3l-1,0.3l1,0.3c-1.8-2-3.4-4.2-4.6-6.6c-0.3-0.6-0.6-1.2-0.8-1.8c-0.3-0.6-0.5-1.2-0.7-1.9
			c-0.4-1.3-0.7-2.6-0.9-3.9l-0.7,0.7c4,0.3,8,1.1,11.8,2.4l-0.1-0.5l-0.9,0.6l-0.5,0.3L-5.7-7C-3.8-6.6-2-6-0.2-5.4
			c1.8,0.7,3.5,1.5,5.1,2.4l0-0.1l-1,0.5L3.8-2.5l0.1,0.1L4.8-1.9z M4.8-2L4-2.5l0,0.1l1-0.5l0.1,0L5-3C1.7-5-1.9-6.4-5.6-7.3l0,0.1
			l1-0.6l0.1-0.1l-0.1,0c-3.8-1.4-7.8-2.3-11.9-2.7l-0.1,0l0,0.1c0.3,2.8,1.1,5.5,2.3,8c1.2,2.5,2.8,4.8,4.6,6.9l0,0.1l0.1,0l1-0.3
			l-0.1,0c1,1.3,2.3,2.3,3.7,3L-5,7l0,0l1.3-0.9l-0.1,0c1.1,0.9,2.5,1.5,3.8,2l0,0l0,0l1.2-0.8l-0.1,0c2.3,1.2,4.8,2.1,7.4,2.6
			c2.6,0.5,5.2,0.8,7.8,0.6l0.1,0l-0.1-0.1c-2.2-2.8-4.7-5.3-7.3-7.6l0,0.1l0.7-0.2l0.1,0L9.8,2.6C8.4,0.8,6.7-0.7,4.8-2z"/>
	</g>
	<g>
		<path fill="#BE8057" d="M13,8.7C2.4,3.9-7.1-2.5-14.7-9.9"/>
		<path fill="#7C5539" d="M13,8.6c0,0-0.4-0.3-1.2-0.8c-0.8-0.4-1.9-1.2-3.2-2C7.8,5.5,7.1,5.1,6.3,4.6C5.6,4.1,4.8,3.6,4,3.1
			C2.3,2.1,0.6,1-1.2-0.2C-2-0.8-2.9-1.3-3.7-1.9c-0.8-0.6-1.7-1.2-2.5-1.7c-1.6-1.1-3.1-2.2-4.3-3.1c-1.2-1-2.3-1.7-3-2.3
			c-0.7-0.6-1.2-0.9-1.2-0.9l-0.1,0.1c0,0,0.4,0.4,1,1c0.7,0.6,1.6,1.5,2.8,2.5c2.4,2.1,5.7,4.7,9.1,7C1.8,3,5.4,5,8.2,6.5
			c1.4,0.7,2.6,1.3,3.4,1.7C12.5,8.5,12.9,8.7,13,8.6L13,8.6z"/>
	</g>
	<g>
		<path fill="#BE8057" d="M-0.2,6.3c-1.5-1.6-2.4-3.5-2.4-5.3"/>
		<path fill="#7C5539" d="M-0.1,6.2c0,0,0-0.1,0-0.3c0-0.2-0.1-0.4-0.2-0.7c-0.1-0.3-0.2-0.6-0.3-0.9C-0.7,4.2-0.7,4-0.8,3.9
			C-0.9,3.7-0.9,3.6-1,3.4C-1.1,3.3-1.2,3.1-1.2,3c-0.1-0.2-0.2-0.3-0.2-0.4C-1.6,2.3-1.8,2-1.9,1.8c-0.3-0.5-0.6-0.8-0.6-0.8
			l-0.1,0c0,0,0,0.4,0.1,0.9c0.1,0.6,0.3,1.3,0.6,2c0.3,0.7,0.8,1.3,1.1,1.7C-0.5,6-0.2,6.3-0.1,6.2L-0.1,6.2z"/>
	</g>
	<g>
		<path fill="#BE8057" d="M-8.1-2.2c0,2.6,1.1,5.2,3,7.6"/>
		<path fill="#7C5539" d="M-8.2-2.2c0,0-0.1,0.1-0.2,0.4c-0.1,0.2-0.2,0.6-0.2,1c-0.1,0.4-0.1,0.9,0,1.4c0.1,0.5,0.2,1.1,0.4,1.6
			C-8,2.4-7.9,2.7-7.8,2.9c0.1,0.2,0.3,0.5,0.4,0.7c0.3,0.4,0.6,0.8,1,1c0.6,0.6,1.2,0.8,1.2,0.8l0.1-0.1c0,0-1.3-1.6-2.1-3.6
			c-0.4-0.9-0.7-1.9-0.8-2.7c-0.1-0.8-0.1-1.3-0.1-1.3L-8.2-2.2z"/>
	</g>
	<g>
		<path fill="#BE8057" d="M-12.7-6.6c-0.2,2.7,0.7,5.5,2.7,8"/>
		<path fill="#7C5539" d="M-12.7-6.6c0,0-0.1,0.1-0.2,0.4c-0.1,0.2-0.2,0.6-0.3,1c0,0.2-0.1,0.5-0.1,0.7c0,0.2,0,0.5,0,0.8
			c0,0.6,0.2,1.1,0.3,1.7c0.1,0.3,0.2,0.5,0.3,0.8c0.1,0.3,0.3,0.5,0.4,0.7c0.3,0.5,0.6,0.8,1,1.1c0.6,0.6,1.2,0.8,1.2,0.8l0.1-0.1
			c0,0-0.3-0.4-0.8-1.1c-0.4-0.7-0.9-1.6-1.3-2.7c-0.4-1-0.6-2.1-0.6-2.9c-0.1-0.8,0-1.3,0-1.3L-12.7-6.6z"/>
	</g>
	<g>
		<path fill="#BE8057" d="M7.7,1.7c-3.1-0.1-6.3-0.8-9.1-2"/>
		<path fill="#7C5539" d="M7.7,1.6c0,0-0.6-0.3-1.4-0.6C5.9,0.8,5.4,0.7,4.9,0.5C4.6,0.5,4.4,0.4,4.1,0.3C3.8,0.3,3.5,0.2,3.3,0.1
			C2.7,0,2.1-0.1,1.6-0.2c-0.5-0.1-1-0.2-1.5-0.2c-0.9-0.1-1.5,0-1.5,0l0,0.1c0,0,2.2,1,4.5,1.5c2.3,0.5,4.7,0.6,4.7,0.6L7.7,1.6z"
			/>
	</g>
	<g>
		<path fill="#BE8057" d="M2.4-3.6C-1.1-3.2-4.9-3.7-8.3-5"/>
		<path fill="#7C5539" d="M2.4-3.6c0,0-0.2-0.1-0.5-0.1C1.6-3.8,1.2-3.9,0.7-4C0.2-4.1-0.4-4.2-1-4.3c-0.3,0-0.6-0.1-0.9-0.1
			c-0.3,0-0.6-0.1-1-0.1c-0.6-0.1-1.3-0.2-1.9-0.2C-5.4-4.9-6-4.9-6.5-4.9C-7-5-7.5-5-7.8-5c-0.3,0-0.5,0-0.5,0l0,0.1
			c0,0,0.6,0.3,1.6,0.6c1,0.3,2.3,0.6,3.6,0.8c1.3,0.2,2.7,0.2,3.7,0.2c1,0,1.7-0.1,1.7-0.1L2.4-3.6z"/>
	</g>
	<g>
		<path fill="#BE8057" d="M-7-7.7c-1.2,0.5-2.7,0.5-4.2,0.2"/>
		<path fill="#7C5539" d="M-7-7.7c0,0-0.4-0.2-0.8-0.3c-0.2-0.1-0.4-0.1-0.7-0.1c-0.1,0-0.2,0-0.3,0l-0.3,0c-0.2,0-0.5,0-0.7,0.1
			C-10-8-10.2-8-10.4-7.9c-0.4,0.2-0.7,0.4-0.7,0.4l0,0.1c0,0,1,0.3,2.1,0.2c0.5,0,1.1-0.1,1.4-0.2C-7.2-7.5-6.9-7.6-7-7.7L-7-7.7z"
			/>
	</g>
</symbol>
<g>
	<rect x="0" fill="#FBDE95" width="500" height="500"/>
	<g>
		<g>
			<g>
				<path fill="#8A324B" d="M423.2,166.6c-3.9,3.3-6.9,7.6-7.9,12.2c-6-2.3-12.8-3-19.2-2.1c2.2,0.5,4.3,1.5,5.8,3
					c-0.7,4.2-0.4,8.4,0.8,12.5c-5.2-1.6-11-1.8-16.4-0.6c-2.9-2.3-5.2-5.2-6.8-8.3c-1.8,2.4-3.6,4.9-5.4,7.3
					c-1.5-2.9-3.1-5.7-4.7-8.6c-1.3-2.3-2.5-4.7-2.9-7.3c-0.1-1.1-0.1-2.9,0.2-4.6c-1.3,1.4-2.7,2.6-3.7,3.3c-2.4,1.5-5.2,2.3-8,3.1
					c-3.5,1-6.9,1.9-10.4,2.9c0.8-2.8,1.7-5.6,2.5-8.4c-3.7,1.1-7.7,1.6-11.6,1.3c-2.7-4.2-6.8-7.8-11.7-10.1c4.2-2,8-4.7,11.1-8
					c2.3,0.1,4.5,0.6,6.5,1.7c-3.6-4.8-8.8-8.6-14.9-10.9c3.2-3.8,4.7-8.6,4.8-13.3c0.2-4.9-0.9-9.7-2.1-14.5
					c3.7,1.6,7.6,3,11.5,4.1c0.6,0.2,1.3,0.3,1.9,0.5c1.9,0.5,3.9,0.9,5.9,0.6c1.6-0.2,3.3-1.1,4-2.3c3.6,3.2,6.2,7.4,7.3,11.8
					c7.3-10.7,4.4-14.7,9.1-21c2.6,1.9,6.2,2.7,9.5,2c2.3-0.5,4.4-1.6,5.9-3.2c4.2,1,9.6-0.1,15.1-5.6c0.2-0.2,0.3-0.3,0.5-0.5
					c0,0.2-0.1,0.5-0.1,0.7c-0.8,7.2,1.9,11.5,5.6,13.5c-0.3,2,0.2,4.2,1.3,5.9c1.7,2.6,4.8,4.3,8.2,4.7c-2.1,7.3-7.5,8.2-11.5,20.1
					c4.5-2.3,9.7-3.4,14.9-3.3c-0.5,1.3-0.1,3,0.8,4.2c1.1,1.4,2.8,2.4,4.5,3.3c0.6,0.3,1.1,0.6,1.7,0.9c3.6,1.8,7.4,3.3,11.2,4.6
					C432,160.5,427.2,163.1,423.2,166.6z"/>
				<path fill="#C04752" d="M423.3,166.6c-1.8,1.6-3.5,3.4-4.9,5.5c-0.7,1-1.3,2.1-1.8,3.2c-0.2,0.6-0.5,1.1-0.7,1.7
					c-0.2,0.6-0.3,1.2-0.5,1.8l0,0.2l-0.2-0.1c-6.1-2.3-12.7-3-19.1-2l0-0.5c2.2,0.5,4.3,1.5,6,3l0.1,0.1l0,0.2
					c-0.7,4.1-0.4,8.4,0.8,12.4l0.2,0.6l-0.6-0.2c-2.6-0.8-5.3-1.2-8.1-1.3c-2.7-0.1-5.5,0.2-8.1,0.8l-0.2,0l-0.2-0.1
					c-2.9-2.3-5.3-5.1-7-8.4l1,0.1l-5.3,7.4l-0.6,0.9l-0.5-1l-5.4-9.7c-0.9-1.7-1.8-3.4-2.2-5.4c-0.2-1-0.3-2-0.3-3
					c0-1,0.1-1.9,0.3-2.9l1.7,0.8c-0.7,0.8-1.5,1.5-2.3,2.2c-0.4,0.3-0.8,0.7-1.3,1c-0.5,0.3-0.9,0.6-1.4,0.9
					c-1.9,1.1-3.9,1.7-5.9,2.3l-11.7,3.4l-2.1,0.6l0.6-2.2l2.4-8.5l1.7,1.7c-3.9,1.2-8,1.7-12.1,1.5l-0.7,0l-0.4-0.6
					c-1.3-2.1-3-3.9-4.9-5.5c-1.9-1.6-4-2.9-6.2-4l-3.1-1.4l3.1-1.5c4-1.9,7.6-4.5,10.5-7.7l0.5-0.6l0.8,0c2.5,0.1,5,0.7,7.3,1.9
					l-2.2,2.5c-3.6-4.6-8.6-8.2-14.1-10.2l-2.3-0.9l1.6-1.9c0.3-0.4,0.7-0.9,1-1.3c0.3-0.5,0.6-0.9,0.9-1.4c0.3-0.5,0.5-1,0.7-1.5
					c0.2-0.5,0.4-1,0.6-1.6c0.4-1.1,0.6-2.1,0.8-3.3c0.1-0.6,0.2-1.1,0.2-1.7c0.1-0.6,0.1-1.1,0.1-1.7c0-0.6,0-1.2,0-1.7
					c0-0.6,0-1.1-0.1-1.7c-0.1-1.2-0.2-2.3-0.4-3.5c-0.4-2.3-0.9-4.6-1.5-7l-0.9-3.5l3.3,1.4c1.9,0.8,3.8,1.6,5.7,2.3
					c1,0.3,1.9,0.7,2.9,1l1.5,0.5l1.5,0.4l1.5,0.4c0.5,0.1,1,0.2,1.4,0.4c1,0.2,1.9,0.4,2.8,0.4c0.4,0,0.9,0,1.3-0.1
					c0.4-0.1,0.8-0.2,1.2-0.3c0.7-0.3,1.4-0.7,1.6-1.2l1-1.7l1.4,1.3c3.7,3.3,6.5,7.7,7.7,12.6l-2.8-0.5c0.5-0.8,1.1-1.5,1.5-2.3
					l0.7-1.2l0.6-1.2c0.2-0.4,0.4-0.8,0.6-1.2c0.2-0.4,0.4-0.8,0.5-1.3c0.4-0.8,0.6-1.7,0.9-2.6c0.3-0.9,0.5-1.8,0.7-2.7
					c0.2-0.9,0.5-1.9,0.8-2.9c0.2-0.5,0.3-1,0.5-1.5c0.2-0.5,0.4-0.9,0.7-1.4c0.2-0.5,0.5-0.9,0.8-1.4l0.9-1.3l0.8-1.1l1.1,0.8
					c2,1.4,4.6,2.2,7.1,2.1c0.3,0,0.6,0,0.9-0.1c0.3,0,0.6-0.1,0.9-0.2c0.6-0.1,1.2-0.3,1.8-0.6c1.1-0.5,2.2-1.2,3.1-2.1l0.5-0.5
					l0.6,0.1c1.3,0.3,2.6,0.4,4,0.2c0.3-0.1,0.7-0.1,1-0.2c0.3-0.1,0.7-0.1,1-0.2c0.7-0.2,1.3-0.4,1.9-0.7c0.6-0.3,1.3-0.6,1.8-0.9
					c0.6-0.3,1.2-0.7,1.8-1.1c0.6-0.4,1.1-0.9,1.7-1.3c0.5-0.5,1-0.9,1.6-1.5l1.9-1.9l-0.3,2.7c0,0.3-0.1,0.6-0.1,1l-0.1,1l0,0.9
					c0,0.3,0,0.6,0,1c0,0.6,0.1,1.3,0.2,1.9c0,0.3,0.1,0.6,0.2,0.9c0.1,0.3,0.1,0.6,0.3,0.9c0.1,0.3,0.2,0.6,0.3,0.9
					c0.1,0.3,0.3,0.6,0.4,0.9c0.3,0.6,0.6,1.1,1,1.6c0.4,0.5,0.8,0.9,1.3,1.3c0.2,0.2,0.5,0.4,0.7,0.6c0.2,0.2,0.5,0.3,0.8,0.5
					l0.5,0.3l-0.1,0.5c-0.2,1.2-0.1,2.4,0.3,3.6c0.2,0.6,0.4,1.1,0.8,1.7c0.1,0.2,0.4,0.6,0.5,0.8c0.2,0.2,0.4,0.5,0.6,0.7
					c1.7,1.8,4.1,2.9,6.7,3.3l0.7,0.1l-0.2,0.6c-0.2,0.5-0.3,1-0.5,1.4c-0.2,0.5-0.4,0.9-0.6,1.4c-0.5,0.9-1,1.7-1.6,2.5
					c-1.2,1.6-2.5,3-3.6,4.6c-0.6,0.8-1.1,1.5-1.7,2.4c-0.3,0.4-0.5,0.8-0.7,1.2c-0.2,0.4-0.5,0.8-0.7,1.3l-0.6,1.3l-0.6,1.3
					c-0.4,0.9-0.7,1.8-1,2.7l-0.5-0.4c4.6-2.3,9.9-3.4,15-3.3l0.4,0l-0.2,0.4c-0.3,0.9-0.3,1.9,0.1,2.7c0.2,0.4,0.4,0.9,0.7,1.2
					c0.3,0.4,0.6,0.7,1,1.1c1.5,1.3,3.3,2.1,5.1,3.1c3.6,1.8,7.3,3.3,11.1,4.6l0.4,0.1l-0.4,0.2
					C432.2,160.6,427.4,163.2,423.3,166.6z M423.2,166.5c4.1-3.5,8.9-6.1,13.7-8.5l0,0.2c-3.8-1.3-7.6-2.8-11.2-4.6
					c-1.8-0.9-3.6-1.8-5.2-3.1c-0.8-0.7-1.5-1.5-1.9-2.4c-0.4-0.9-0.5-2.1-0.1-3l0.1,0.2c-5.1-0.1-10.2,1-14.8,3.3l-0.3,0.1l0.1-0.3
					c0.3-0.9,0.6-1.8,1-2.7l0.6-1.3l0.6-1.3c0.2-0.4,0.5-0.9,0.7-1.3c0.2-0.4,0.5-0.8,0.7-1.3c0.5-0.8,1.1-1.6,1.7-2.4
					c1.2-1.6,2.5-3,3.6-4.6c0.6-0.8,1.1-1.6,1.5-2.5c0.2-0.4,0.4-0.9,0.6-1.3c0.2-0.5,0.3-0.9,0.5-1.4l0.1,0.2
					c-2.7-0.3-5.2-1.5-7.1-3.4c-0.9-1-1.7-2.1-2.1-3.4c-0.4-1.3-0.5-2.7-0.4-4l0.1,0.1c-0.3-0.2-0.6-0.3-0.9-0.5
					c-0.3-0.2-0.6-0.4-0.8-0.6c-0.5-0.4-1-0.9-1.5-1.5c-0.4-0.5-0.8-1.1-1.1-1.7c-0.2-0.3-0.3-0.6-0.4-0.9c-0.1-0.3-0.3-0.6-0.4-1
					c-0.1-0.3-0.2-0.7-0.3-1c-0.1-0.3-0.2-0.7-0.2-1c-0.1-0.7-0.2-1.4-0.2-2c0-0.3,0-0.7,0-1l0-1c0.1-0.7,0.1-1.3,0.2-2l0.3,0.1
					c-0.5,0.5-1.1,1-1.6,1.5c-0.6,0.5-1.1,1-1.7,1.4c-0.6,0.4-1.2,0.9-1.8,1.2c-0.6,0.4-1.3,0.7-2,1c-0.7,0.3-1.4,0.6-2.1,0.8
					c-0.4,0.1-0.7,0.2-1.1,0.3c-0.4,0.1-0.7,0.1-1.1,0.2c-1.5,0.2-3,0.1-4.4-0.2l0.1,0c-2,2-4.7,3.3-7.6,3.4c-2.8,0.2-5.7-0.6-8-2.3
					l0.2,0l-0.8,1.2c-0.2,0.4-0.5,0.8-0.7,1.2c-0.2,0.4-0.4,0.9-0.6,1.3c-0.2,0.4-0.3,0.9-0.5,1.3c-0.6,1.8-0.9,3.7-1.5,5.6
					c-0.3,0.9-0.6,1.9-0.9,2.7c-0.2,0.5-0.4,0.9-0.6,1.3c-0.2,0.4-0.4,0.9-0.6,1.3l-0.7,1.3l-0.7,1.3c-0.5,0.8-1,1.6-1.6,2.4
					l-0.2,0.3l-0.1-0.4c-1.2-4.5-3.8-8.6-7.3-11.7l0.3,0c-0.6,0.9-1.5,1.6-2.5,2c-1,0.4-2.1,0.5-3.1,0.5c-2.1,0-4.2-0.6-6.2-1.2
					c-4-1.1-8-2.5-11.8-4.1l0.3-0.2c0.6,2.4,1.2,4.7,1.6,7.1c0.4,2.4,0.6,4.9,0.6,7.3c-0.1,2.5-0.5,4.9-1.3,7.2
					c-0.2,0.6-0.4,1.1-0.7,1.7c-0.3,0.6-0.5,1.1-0.8,1.6c-0.3,0.5-0.6,1.1-1,1.6c-0.4,0.5-0.7,1-1.1,1.5l-0.1-0.3
					c5.8,2.2,11.1,6,14.9,10.9l0.6,0.7l-0.8-0.5c-1.9-1.1-4.1-1.7-6.4-1.7l0.1-0.1c-3.1,3.4-7,6.1-11.1,8v-0.3
					c4.7,2.2,8.9,5.7,11.7,10.1l-0.1-0.1c3.9,0.3,7.8-0.2,11.5-1.3l0.3-0.1l-0.1,0.3l-2.5,8.4l-0.2-0.2l11.8-3.2
					c1.9-0.6,3.9-1.2,5.7-2.1c1.8-0.9,3.3-2.4,4.7-3.8l0.3-0.4l-0.1,0.5c-0.3,1.8-0.5,3.7-0.1,5.5c0.4,1.8,1.2,3.5,2,5.1l5.3,9.8
					l-0.2,0l5.4-7.3l0.1-0.2l0.1,0.2c1.6,3.2,3.9,6,6.7,8.3l-0.1,0c5.4-1.2,11.1-0.9,16.5,0.6l-0.2,0.2c-1.2-4.1-1.5-8.4-0.8-12.6
					l0,0.1c-1.6-1.5-3.7-2.5-5.8-2.9l-0.6-0.1l0.6-0.1c6.5-0.9,13.2-0.2,19.3,2.2l-0.1,0.1c0.1-0.6,0.3-1.2,0.5-1.8
					c0.2-0.6,0.4-1.2,0.7-1.7c0.5-1.1,1.1-2.2,1.8-3.2C419.6,169.9,421.3,168.1,423.2,166.5z"/>
			</g>
			<g>
				<path fill="#8A324B" d="M397.4,111.4c-5.4,19.8-15.2,38.8-28.5,55.5"/>
				<path fill="#C04752" d="M397.5,111.4c0,0,0,0.2-0.1,0.7c-0.1,0.5-0.2,1.1-0.3,2c-0.1,0.8-0.4,1.9-0.6,3.1
					c-0.1,0.6-0.3,1.2-0.4,1.9c-0.2,0.7-0.4,1.3-0.5,2.1c-0.4,1.4-0.8,3-1.4,4.6c-0.5,1.6-1.1,3.3-1.8,5.1c-0.7,1.7-1.4,3.5-2.2,5.3
					c-0.8,1.8-1.7,3.6-2.6,5.3c-0.9,1.7-1.9,3.5-2.9,5.2c-0.9,1.7-2,3.3-3,4.9c-1,1.5-2,3-3.1,4.4c-0.5,0.7-1,1.3-1.5,2
					c-0.5,0.6-1,1.2-1.5,1.8c-0.9,1.2-1.8,2.2-2.6,3.1c-0.8,0.9-1.5,1.7-2.1,2.3c-0.6,0.6-1.1,1.1-1.4,1.4c-0.3,0.3-0.5,0.5-0.5,0.5
					l-0.2-0.1c0,0,0.6-0.8,1.6-2.1c0.5-0.7,1.2-1.5,1.9-2.5c0.7-1,1.5-2,2.3-3.3c0.9-1.2,1.7-2.5,2.7-3.9c0.9-1.4,1.9-2.9,2.8-4.5
					c0.9-1.6,1.9-3.2,2.9-4.9c1-1.7,1.9-3.4,2.8-5.2c0.9-1.8,1.8-3.5,2.6-5.2c0.8-1.7,1.6-3.5,2.3-5.2c0.7-1.7,1.4-3.3,2-4.9
					c0.6-1.6,1.2-3.1,1.6-4.5c0.5-1.4,0.9-2.7,1.3-3.8c0.4-1.1,0.7-2.1,0.9-3c0.5-1.6,0.8-2.6,0.8-2.6L397.5,111.4z"/>
			</g>
			<g>
				<path fill="#8A324B" d="M338.5,124.2c14.4,11.4,24.6,26.8,28.7,43.4"/>
				<path fill="#C04752" d="M338.5,124.1c0,0,0.2,0.1,0.5,0.3c0.3,0.2,0.8,0.5,1.5,0.9c0.6,0.4,1.4,0.9,2.2,1.5
					c0.8,0.6,1.8,1.2,2.8,2.1c0.5,0.4,1,0.8,1.5,1.2c0.5,0.4,1,0.9,1.6,1.4c1.1,1,2.1,2.1,3.2,3.2c0.5,0.6,1.1,1.2,1.6,1.8
					c0.3,0.3,0.5,0.6,0.8,0.9l0.8,1c1,1.3,2,2.7,3,4.1c0.5,0.7,0.9,1.4,1.3,2.1c0.4,0.7,0.9,1.4,1.3,2.2c0.8,1.4,1.5,2.9,2.2,4.4
					c0.7,1.4,1.2,2.9,1.7,4.2c0.5,1.4,0.9,2.7,1.2,3.9c0.2,0.6,0.3,1.2,0.5,1.7c0.1,0.6,0.2,1.1,0.3,1.6c0.2,1,0.4,1.9,0.5,2.6
					c0.1,0.7,0.2,1.3,0.2,1.7c0,0.4,0.1,0.6,0.1,0.6l-0.2,0c0,0-0.2-0.8-0.6-2.2c-0.2-0.7-0.5-1.5-0.8-2.5c-0.2-0.5-0.3-1-0.5-1.5
					c-0.2-0.5-0.4-1.1-0.6-1.7c-0.4-1.2-1-2.4-1.5-3.7c-0.6-1.3-1.2-2.7-1.9-4c-0.4-0.7-0.7-1.4-1.1-2.1c-0.4-0.7-0.8-1.4-1.2-2.1
					c-0.4-0.7-0.8-1.4-1.3-2.1c-0.5-0.7-0.9-1.4-1.3-2.1c-0.9-1.4-1.9-2.7-2.9-4c-1-1.3-2-2.5-3-3.7c-1-1.2-2-2.3-3-3.3
					c-0.5-0.5-1-1-1.4-1.5c-0.5-0.5-0.9-0.9-1.4-1.3c-0.9-0.9-1.7-1.6-2.5-2.3c-0.7-0.7-1.4-1.3-2-1.7c-1.1-0.9-1.8-1.5-1.8-1.5
					L338.5,124.1z"/>
			</g>
			<g>
				<path fill="#8A324B" d="M368.9,168.3c18.6-6.5,38.9-9.3,58.9-8.4"/>
				<path fill="#C04752" d="M368.9,168.2c0,0,0.2-0.1,0.6-0.3c0.4-0.2,1-0.5,1.7-0.8c0.7-0.3,1.7-0.7,2.7-1.2
					c0.5-0.2,1.1-0.5,1.7-0.7c0.6-0.2,1.2-0.5,1.9-0.7c1.3-0.5,2.8-1,4.3-1.4c1.5-0.5,3.2-0.9,4.9-1.4c1.7-0.4,3.5-0.9,5.3-1.2
					c1.8-0.4,3.7-0.6,5.6-1c1.9-0.2,3.8-0.5,5.6-0.6c1.9-0.2,3.7-0.2,5.5-0.3c1.8-0.1,3.5-0.1,5.1,0c1.6,0,3.2,0.1,4.6,0.2
					c1.4,0.1,2.7,0.2,3.8,0.4c1.1,0.1,2.1,0.2,3,0.4c0.8,0.1,1.5,0.2,1.9,0.3c0.4,0.1,0.7,0.1,0.7,0.1l0,0.2c0,0-0.9,0-2.6-0.1
					c-0.8,0-1.8-0.1-2.9-0.1c-1.1,0-2.4,0-3.8,0c-1.4,0-2.9,0.1-4.5,0.1c-1.6,0-3.3,0.2-5,0.3c-1.7,0.2-3.6,0.3-5.4,0.5
					c-1.8,0.2-3.7,0.4-5.5,0.7c-1.8,0.3-3.7,0.5-5.5,0.9c-1.8,0.3-3.6,0.7-5.3,1c-1.7,0.4-3.4,0.7-4.9,1.1c-1.6,0.4-3,0.8-4.4,1.1
					c-1.4,0.4-2.6,0.7-3.7,1.1c-1.1,0.3-2,0.6-2.8,0.9c-1.6,0.5-2.4,0.8-2.4,0.8L368.9,168.2z"/>
			</g>
			<g>
				<path fill="#8A324B" d="M334.1,163.5c10.5,4,22,6,33.5,5.6"/>
				<path fill="#C04752" d="M334.1,163.4c0,0,0.6,0,1.5,0.2c1,0.1,2.3,0.3,3.8,0.6c0.8,0.1,1.6,0.3,2.5,0.4c0.9,0.2,1.8,0.3,2.8,0.5
					c1,0.2,2,0.3,3,0.5c1,0.2,2,0.3,3.1,0.5c1,0.2,2.1,0.4,3.1,0.5c1,0.2,2,0.3,3,0.5c1,0.1,1.9,0.3,2.8,0.4
					c0.9,0.1,1.7,0.3,2.5,0.4c1.6,0.3,2.9,0.5,3.8,0.7c0.9,0.2,1.5,0.3,1.5,0.3l0,0.2c0,0-0.5,0-1.5,0c-0.9,0-2.3,0-3.9,0
					c-0.8,0-1.7-0.1-2.6-0.1c-0.9,0-1.9-0.1-2.9-0.2c-2-0.2-4.1-0.4-6.2-0.8c-4.2-0.7-8.4-1.8-11.4-2.8c-1.5-0.5-2.8-0.9-3.7-1.3
					c-0.9-0.3-1.4-0.5-1.4-0.5L334.1,163.4z"/>
			</g>
			<g>
				<path fill="#8A324B" d="M369.4,169.8c10.8,4.8,21,10.7,30.2,17.6"/>
				<path fill="#C04752" d="M369.5,169.7c0,0,0.6,0.1,1.5,0.3c0.5,0.1,1.1,0.2,1.7,0.4c0.7,0.2,1.4,0.4,2.2,0.7
					c0.8,0.3,1.6,0.6,2.5,0.9c0.9,0.3,1.8,0.7,2.8,1.2c0.9,0.5,1.9,0.9,2.9,1.4c1,0.5,1.9,1,2.9,1.6c0.9,0.6,1.9,1.2,2.8,1.7
					c0.9,0.6,1.8,1.2,2.6,1.8c0.8,0.6,1.6,1.2,2.4,1.8c0.7,0.6,1.4,1.2,2,1.7c1.2,1.1,2.2,2.1,2.9,2.8c0.7,0.7,1,1.2,1,1.2l-0.1,0.2
					c0,0-1.8-1.3-4.5-3.2c-2.7-1.9-6.4-4.2-10.2-6.4c-3.8-2.2-7.6-4.3-10.6-5.7c-2.9-1.4-4.9-2.3-4.9-2.3L369.5,169.7z"/>
			</g>
			<g>
				<path fill="#8A324B" d="M364.3,131.9c-0.6,9.1,2.5,18.1,8.4,25.1"/>
				<path fill="#C04752" d="M364.4,131.9c0,0,0.1,0.4,0.3,1.2c0.2,0.7,0.4,1.8,0.7,3c0.1,0.6,0.3,1.3,0.5,1.9
					c0.1,0.7,0.4,1.4,0.5,2.1c0.2,0.7,0.4,1.5,0.7,2.2c0.2,0.8,0.5,1.5,0.7,2.3c0.3,0.8,0.5,1.5,0.8,2.3c0.3,0.7,0.6,1.5,0.8,2.2
					c0.3,0.7,0.6,1.4,0.9,2c0.3,0.7,0.6,1.3,0.8,1.8c0.5,1.2,1,2.1,1.3,2.8c0.3,0.7,0.5,1.1,0.5,1.1l-0.2,0.1c0,0-0.3-0.3-0.7-0.9
					c-0.2-0.3-0.5-0.6-0.8-1.1c-0.3-0.4-0.7-0.9-1-1.4c-0.4-0.5-0.7-1.1-1.1-1.7c-0.4-0.6-0.7-1.3-1.1-2c-0.3-0.7-0.7-1.5-1-2.2
					c-0.3-0.8-0.6-1.6-0.9-2.4c-0.2-0.8-0.5-1.6-0.7-2.4c-0.2-0.8-0.4-1.6-0.5-2.4c-0.1-0.8-0.3-1.5-0.3-2.3
					c-0.1-0.7-0.1-1.4-0.2-2.1c0-0.6-0.1-1.2,0-1.7c0-0.5,0-1,0-1.3c0-0.7,0.1-1.2,0.1-1.2L364.4,131.9z"/>
			</g>
			<g>
				<path fill="#8A324B" d="M402.2,147.1c-6.6,6.6-15.3,10.9-24.1,11.9"/>
				<path fill="#C04752" d="M402.3,147.2c0,0-0.2,0.4-0.6,1.1c-0.2,0.3-0.5,0.7-0.8,1.2c-0.3,0.4-0.7,0.9-1.2,1.4
					c-0.2,0.2-0.5,0.5-0.7,0.8c-0.3,0.3-0.5,0.5-0.8,0.8c-0.5,0.5-1.2,1.1-1.8,1.6c-0.7,0.5-1.3,1-2.1,1.5c-0.7,0.5-1.5,0.9-2.3,1.3
					c-0.8,0.4-1.6,0.7-2.5,1.1c-0.8,0.3-1.7,0.6-2.5,0.8c-0.8,0.2-1.6,0.4-2.4,0.5c-0.8,0.1-1.5,0.2-2.1,0.3c-0.7,0.1-1.3,0.1-1.8,0
					c-0.5,0-1,0-1.4-0.1c-0.8-0.1-1.2-0.2-1.2-0.2l0-0.2c0,0,0.4-0.1,1.2-0.2c0.4,0,0.8-0.1,1.3-0.2c0.5-0.1,1.1-0.2,1.7-0.4
					c1.3-0.3,2.7-0.7,4.2-1.3c0.8-0.3,1.5-0.6,2.3-0.9c0.8-0.3,1.5-0.7,2.3-1.1c0.8-0.4,1.5-0.8,2.2-1.2c0.7-0.4,1.4-0.9,2.1-1.3
					c0.7-0.5,1.3-0.9,1.9-1.3c0.6-0.4,1.1-0.9,1.6-1.3c1-0.8,1.8-1.5,2.3-2c0.5-0.5,0.9-0.8,0.9-0.8L402.3,147.2z"/>
			</g>
			<g>
				<path fill="#8A324B" d="M370,116.7c1.9,8.4,6.3,16.3,12.8,22.7"/>
				<path fill="#C04752" d="M370.1,116.7c0,0,0.2,0.4,0.6,1c0.4,0.7,0.9,1.5,1.4,2.6c0.6,1.1,1.2,2.3,1.9,3.6c0.3,0.7,0.8,1.3,1.1,2
					c0.4,0.7,0.8,1.4,1.2,2.1c0.4,0.7,0.8,1.4,1.2,2.1c0.4,0.7,0.8,1.3,1.2,2c0.4,0.6,0.7,1.3,1.1,1.9c0.4,0.6,0.7,1.2,1,1.7
					c0.6,1.1,1.1,2,1.5,2.6c0.4,0.6,0.5,1,0.5,1l-0.1,0.1c0,0-0.3-0.3-0.8-0.8c-0.5-0.5-1.2-1.3-2-2.2c-1.6-1.9-3.6-4.5-5.3-7.4
					c-1.6-2.9-2.9-6-3.6-8.3c-0.4-1.2-0.6-2.2-0.8-2.9c-0.2-0.7-0.3-1.1-0.3-1.1L370.1,116.7z"/>
			</g>
			<g>
				<path fill="#8A324B" d="M386.4,113.5c0.1,4.6,2.4,9.1,6.2,12.3"/>
				<path fill="#C04752" d="M386.5,113.5c0,0,0.2,0.2,0.4,0.6c0.2,0.4,0.5,0.8,0.8,1.4c0.2,0.3,0.3,0.6,0.5,0.9
					c0.2,0.3,0.4,0.6,0.5,1c0.2,0.3,0.4,0.7,0.5,1c0.2,0.3,0.4,0.7,0.5,1.1c0.4,0.7,0.7,1.4,1.1,2.1c0.2,0.3,0.3,0.7,0.5,1
					c0.2,0.3,0.3,0.6,0.4,0.9c0.3,0.6,0.5,1.1,0.6,1.5c0.2,0.4,0.2,0.7,0.2,0.7l-0.1,0.2c0,0-0.2-0.1-0.5-0.4
					c-0.3-0.3-0.7-0.6-1.2-1.1c-0.9-1-2-2.4-2.9-4c-0.8-1.6-1.3-3.3-1.5-4.7c-0.1-0.7-0.1-1.2-0.2-1.6c0-0.4,0-0.6,0-0.6
					L386.5,113.5z"/>
			</g>
			<g>
				<path fill="#8A324B" d="M393.8,126.9c3.4-0.4,6.3-2.8,7.1-5.7"/>
				<path fill="#C04752" d="M393.8,126.8c0,0,0.1-0.2,0.4-0.4c0.1-0.1,0.3-0.3,0.4-0.4c0.1-0.1,0.3-0.3,0.4-0.5
					c0.2-0.2,0.3-0.3,0.5-0.5c0.2-0.2,0.3-0.3,0.5-0.5c0.4-0.3,0.7-0.6,1.1-0.9c0.2-0.1,0.4-0.3,0.6-0.4c0.2-0.1,0.4-0.3,0.6-0.4
					c0.2-0.1,0.4-0.2,0.6-0.4c0.2-0.1,0.4-0.2,0.6-0.4c0.4-0.2,0.7-0.5,1-0.6c0.3-0.2,0.4-0.3,0.4-0.3l0.2,0c0,0,0,0.1-0.1,0.4
					c-0.1,0.3-0.2,0.6-0.4,1c-0.4,0.8-1.2,1.8-2.1,2.6c-1,0.7-2.1,1.2-3,1.5c-0.4,0.1-0.8,0.2-1.1,0.2c-0.3,0-0.4,0-0.4,0
					L393.8,126.8z"/>
			</g>
			<g>
				<path fill="#8A324B" d="M388,141c8.9-1,17.5-4.4,24.1-9.8"/>
				<path fill="#C04752" d="M388,140.9c0,0,0.4-0.2,1.1-0.5c0.7-0.3,1.6-0.7,2.8-1.1c0.6-0.2,1.2-0.5,1.8-0.7c0.7-0.2,1.3-0.5,2-0.8
					c0.7-0.3,1.4-0.6,2.1-0.8c0.7-0.3,1.5-0.6,2.2-0.9c0.7-0.3,1.5-0.6,2.2-0.9c0.7-0.3,1.4-0.6,2.1-0.9c1.4-0.6,2.7-1.2,3.8-1.6
					c1.1-0.5,2.1-0.9,2.8-1.2c0.7-0.3,1.1-0.4,1.1-0.4l0.1,0.2c0,0-0.3,0.3-0.9,0.7c-0.6,0.4-1.4,1.1-2.4,1.7c-2,1.4-5,3-8,4.3
					c-3.1,1.2-6.3,2.1-8.7,2.5c-1.2,0.2-2.2,0.4-3,0.5c-0.7,0.1-1.1,0.1-1.1,0.1L388,140.9z"/>
			</g>
			<g>
				<path fill="#8A324B" d="M332.5,141.5c6,0.8,12.4-0.3,17.6-3"/>
				<path fill="#C04752" d="M332.6,141.4c0,0,0.3-0.1,0.8-0.3c0.5-0.1,1.2-0.3,2-0.5c0.4-0.1,0.9-0.2,1.3-0.3
					c0.5-0.1,0.9-0.2,1.4-0.3c0.5-0.1,1-0.2,1.5-0.3c0.5-0.1,1-0.2,1.6-0.3c0.5-0.1,1.1-0.1,1.6-0.3c0.5-0.1,1-0.1,1.5-0.2
					c0.5-0.1,1-0.1,1.5-0.2c0.5-0.1,0.9-0.1,1.3-0.2c0.8-0.1,1.6-0.2,2.1-0.2c0.5,0,0.8,0,0.8,0l0.1,0.2c0,0-0.3,0.1-0.7,0.4
					c-0.4,0.2-1.1,0.5-1.9,0.8c-1.6,0.7-3.8,1.3-6,1.7c-2.3,0.4-4.5,0.4-6.2,0.4c-0.9,0-1.6-0.1-2.1-0.2c-0.5-0.1-0.8-0.1-0.8-0.1
					L332.6,141.4z"/>
			</g>
			<g>
				<path fill="#8A324B" d="M353.2,136.6c1.4-4.3,1.4-9,0-13.3"/>
				<path fill="#C04752" d="M353.1,136.6c0,0-0.1-0.2-0.2-0.7c-0.1-0.4-0.2-1-0.2-1.6c0-0.3-0.1-0.7-0.1-1c0-0.3-0.1-0.7-0.1-1.1
					c0-0.7-0.1-1.5-0.1-2.3c0-0.8,0-1.5,0.1-2.3c0-0.4,0.1-0.7,0.1-1.1c0-0.3,0.1-0.7,0.1-1c0.1-0.6,0.2-1.2,0.2-1.6
					c0.1-0.4,0.2-0.7,0.2-0.7l0.2-0.1c0,0,0.1,0.2,0.2,0.6c0.1,0.4,0.3,0.9,0.4,1.5c0.3,1.2,0.6,2.9,0.6,4.7c0,1.7-0.3,3.4-0.6,4.7
					c-0.1,0.6-0.3,1.1-0.4,1.5c-0.1,0.4-0.2,0.6-0.2,0.6L353.1,136.6z"/>
			</g>
			<g>
				<path fill="#8A324B" d="M343,151.3c5.3,2.7,11.1,4.6,17.1,5.8"/>
				<path fill="#C04752" d="M343.1,151.2c0,0,0.3,0,0.8,0c0.5,0,1.3,0.1,2.1,0.3c0.4,0.1,0.9,0.1,1.4,0.3c0.5,0.1,1,0.2,1.5,0.4
					c0.5,0.1,1,0.2,1.5,0.4c0.5,0.2,1,0.3,1.6,0.5c0.5,0.2,1,0.4,1.5,0.6c0.5,0.2,1,0.4,1.5,0.6c0.5,0.2,0.9,0.4,1.4,0.6
					c0.4,0.2,0.9,0.4,1.2,0.6c0.8,0.4,1.4,0.8,1.8,1.1c0.4,0.3,0.7,0.5,0.7,0.5l0,0.2c0,0-1.1-0.2-2.8-0.6c-1.7-0.4-3.9-0.9-6-1.6
					c-2.1-0.7-4.2-1.6-5.8-2.3c-1.5-0.7-2.5-1.2-2.5-1.2L343.1,151.2z"/>
			</g>
			<g>
				<path fill="#8A324B" d="M414.9,147.1c-4.5,2.4-7.9,6.3-9.3,10.7"/>
				<path fill="#C04752" d="M414.9,147.2c0,0-0.1,0.2-0.4,0.6c-0.3,0.4-0.6,0.8-1,1.4c-0.2,0.3-0.4,0.6-0.7,0.8
					c-0.2,0.3-0.5,0.6-0.7,0.9c-0.5,0.6-1.1,1.2-1.6,1.8c-0.3,0.3-0.5,0.6-0.8,0.9c-0.3,0.3-0.5,0.6-0.8,0.9c-0.5,0.6-1,1.1-1.5,1.6
					c-0.5,0.5-0.9,0.9-1.2,1.2c-0.3,0.3-0.5,0.5-0.5,0.5l-0.2-0.1c0,0,0.1-0.2,0.2-0.6c0.1-0.4,0.3-0.9,0.6-1.6
					c0.6-1.3,1.5-2.8,2.7-4.2c1.2-1.4,2.7-2.5,3.8-3.3c0.6-0.4,1.1-0.7,1.4-0.8c0.4-0.2,0.6-0.3,0.6-0.3L414.9,147.2z"/>
			</g>
			<g>
				<path fill="#8A324B" d="M400.2,165c3.1,4.9,8,8.8,13.8,11.1"/>
				<path fill="#C04752" d="M400.2,164.9c0,0,0.3,0.2,0.7,0.5c0.4,0.3,1,0.7,1.7,1.2c0.3,0.3,0.7,0.5,1.1,0.8
					c0.4,0.3,0.8,0.6,1.2,0.9c0.4,0.3,0.8,0.6,1.2,0.9c0.4,0.3,0.8,0.6,1.2,1c0.4,0.3,0.8,0.7,1.2,1c0.4,0.3,0.8,0.7,1.2,1
					c0.4,0.3,0.8,0.6,1.1,0.9c0.4,0.3,0.7,0.6,1,0.9c0.6,0.5,1.2,1.1,1.5,1.4c0.4,0.4,0.6,0.6,0.6,0.6l-0.1,0.2c0,0-0.3-0.1-0.7-0.3
					c-0.5-0.2-1.1-0.5-1.9-0.8c-1.5-0.7-3.5-1.9-5.3-3.3c-1.8-1.4-3.3-3.1-4.4-4.4c-0.5-0.7-0.9-1.3-1.2-1.7
					c-0.3-0.4-0.4-0.6-0.4-0.6L400.2,164.9z"/>
			</g>
			<g>
				<path fill="#8A324B" d="M380.7,166.8c4.6,4.1,11.3,6.3,17.9,5.9"/>
				<path fill="#C04752" d="M380.8,166.7c0,0,0.3,0.1,0.9,0.3c0.5,0.2,1.2,0.4,2.1,0.7c0.8,0.3,1.8,0.6,2.8,1c0.5,0.2,1,0.3,1.5,0.5
					c0.5,0.2,1.1,0.3,1.6,0.5c0.5,0.2,1.1,0.4,1.6,0.5c0.5,0.2,1.1,0.3,1.6,0.5c0.5,0.1,1,0.3,1.5,0.4c0.5,0.1,0.9,0.3,1.4,0.4
					c0.9,0.3,1.6,0.5,2.1,0.7c0.5,0.2,0.8,0.3,0.8,0.3l0,0.2c0,0-0.3,0-0.8,0c-0.5,0-1.3,0-2.2,0c-1.8-0.1-4.2-0.4-6.6-1.1
					c-2.3-0.8-4.5-1.9-6-2.9c-0.8-0.5-1.4-1-1.8-1.3c-0.4-0.3-0.6-0.5-0.6-0.5L380.8,166.7z"/>
			</g>
			<g>
				<path fill="#8A324B" d="M342.4,158.1c3.2,1.8,5.3,4.8,5.6,8.1"/>
				<path fill="#C04752" d="M342.5,158c0,0,0.2,0,0.6-0.1c0.2,0,0.4,0,0.6,0c0.2,0,0.5,0.1,0.8,0.1c0.3,0.1,0.6,0.2,0.9,0.3
					c0.3,0.1,0.6,0.3,0.9,0.5c0.3,0.2,0.6,0.4,0.8,0.7c0.3,0.3,0.5,0.5,0.7,0.8c0.4,0.6,0.8,1.3,0.9,2c0.1,0.3,0.1,0.7,0.2,1
					c0,0.3,0,0.6,0,0.9c0,0.3-0.1,0.5-0.2,0.8c-0.1,0.2-0.1,0.4-0.2,0.6c-0.2,0.3-0.3,0.5-0.3,0.5l-0.2,0c0,0-0.1-0.6-0.3-1.5
					c-0.3-0.9-0.8-2.1-1.5-3.1c-0.7-1-1.6-1.9-2.4-2.5c-0.7-0.6-1.3-0.9-1.3-0.9L342.5,158z"/>
			</g>
			<g>
				<path fill="#8A324B" d="M355.7,160.2c2.6,1.9,3.8,5.1,3.1,8"/>
				<path fill="#C04752" d="M355.7,160.2c0,0,0.2,0,0.5,0c0.2,0,0.3,0,0.6,0.1c0.2,0,0.5,0.1,0.7,0.2c0.2,0.1,0.5,0.2,0.7,0.4
					c0.3,0.2,0.5,0.4,0.7,0.6c0.2,0.2,0.5,0.5,0.6,0.8c0.2,0.3,0.3,0.6,0.5,0.9c0.2,0.7,0.4,1.4,0.4,2c0,0.3-0.1,0.7-0.1,0.9
					c-0.1,0.3-0.2,0.6-0.3,0.8c-0.1,0.2-0.2,0.5-0.4,0.6c-0.1,0.2-0.3,0.3-0.4,0.4c-0.2,0.2-0.4,0.3-0.4,0.3l-0.2-0.1
					c0,0,0.1-0.6,0.1-1.4c0-0.8-0.1-2-0.6-3c-0.4-1-1-2-1.6-2.6c-0.6-0.6-1-1-1-1L355.7,160.2z"/>
			</g>
			<g>
				<path fill="#8A324B" d="M352,174.6c0.9-1.5,1.9-3,2.8-4.6"/>
				<path fill="#C04752" d="M351.9,174.6c0,0-0.3-0.6-0.4-1.2c-0.1-0.3,0-0.7,0-1c0.1-0.3,0.2-0.7,0.4-0.9c0.2-0.3,0.4-0.5,0.7-0.7
					c0.1-0.1,0.3-0.2,0.4-0.3c0.1-0.1,0.3-0.1,0.5-0.2c0.6-0.2,1.3-0.2,1.3-0.2l0.2,0.1c0,0-0.2,0.3-0.4,0.7c-0.3,0.4-0.6,1-0.9,1.6
					c-0.4,0.6-0.7,1.1-1,1.5c-0.3,0.4-0.5,0.7-0.5,0.7L351.9,174.6z"/>
			</g>
			<g>
				<path fill="#8A324B" d="M372.1,180.8c-0.5-2.5,0.7-5.1,3-6.6"/>
				<path fill="#C04752" d="M372,180.8c0,0-0.2-0.1-0.4-0.3c-0.1-0.1-0.2-0.2-0.4-0.4c-0.1-0.2-0.3-0.4-0.3-0.6
					c-0.1-0.2-0.2-0.5-0.3-0.7c-0.1-0.3-0.1-0.5-0.1-0.8c0-0.6,0.1-1.2,0.4-1.8c0.1-0.3,0.3-0.5,0.5-0.8c0.2-0.2,0.4-0.4,0.6-0.6
					c0.2-0.2,0.5-0.3,0.7-0.4c0.2-0.1,0.5-0.2,0.7-0.3c0.4-0.1,0.9-0.1,1.2-0.1c0.3,0,0.5,0.1,0.5,0.1l0.1,0.2c0,0-0.4,0.3-0.9,0.8
					c-0.5,0.5-1.1,1.2-1.5,2.1c-0.4,0.8-0.6,1.8-0.6,2.5c0,0.7,0.1,1.2,0.1,1.2L372,180.8z"/>
			</g>
			<g>
				<path fill="#8A324B" d="M386.1,180.8c-1.7,3.1-0.3,7.2,3,8.9"/>
				<path fill="#C04752" d="M386.2,180.8c0,0,0.1,0.2,0.1,0.6c0,0.2,0.1,0.4,0.1,0.6c0,0.2,0.1,0.4,0.2,0.6c0,0.2,0.1,0.4,0.2,0.7
					c0.1,0.2,0.2,0.5,0.2,0.7c0.1,0.2,0.2,0.4,0.2,0.7c0.1,0.2,0.2,0.5,0.2,0.7c0.1,0.5,0.3,0.9,0.5,1.4c0.1,0.2,0.1,0.5,0.2,0.7
					c0.1,0.2,0.2,0.5,0.3,0.7c0.2,0.4,0.3,0.8,0.5,1.1c0.1,0.3,0.2,0.5,0.2,0.5l-0.1,0.2c0,0-0.1-0.1-0.4-0.2
					c-0.3-0.1-0.6-0.4-1-0.7c-0.4-0.3-0.8-0.8-1.2-1.3c-0.2-0.3-0.4-0.5-0.5-0.8c-0.2-0.3-0.3-0.6-0.4-0.9c-0.4-1.3-0.4-2.7-0.2-3.6
					c0-0.2,0.1-0.5,0.2-0.7c0.1-0.2,0.1-0.4,0.2-0.5c0.1-0.3,0.2-0.4,0.2-0.4L386.2,180.8z"/>
			</g>
			<g>
				<path fill="#8A324B" d="M357.6,204.5c0.1-12.2,3.4-24.3,9.6-35.3"/>
				<path fill="#C04752" d="M357.5,204.5c0,0-0.1-0.6-0.3-1.6c-0.1-0.5-0.2-1.1-0.2-1.8c-0.1-0.7-0.1-1.5-0.2-2.4c0-0.9,0-1.8,0-2.9
					c0-1,0.1-2.1,0.2-3.2c0.2-1.1,0.3-2.2,0.5-3.4c0.2-1.1,0.5-2.3,0.8-3.4c0.3-1.1,0.7-2.3,1.1-3.4c0.3-1.1,0.9-2.1,1.3-3.2
					c0.5-1,0.9-2,1.4-2.9c0.5-0.9,1-1.7,1.4-2.5c0.4-0.8,0.9-1.4,1.3-2c0.4-0.6,0.8-1.1,1.1-1.5c0.7-0.8,1.1-1.2,1.1-1.2l0.2,0.1
					c0,0-0.3,0.5-0.8,1.4c-0.5,0.9-1.1,2.2-1.9,3.7c-0.4,0.8-0.7,1.6-1.1,2.6c-0.4,0.9-0.8,1.9-1.2,2.9c-0.4,1-0.7,2.1-1.1,3.1
					c-0.4,1.1-0.7,2.2-1,3.3c-0.3,1.1-0.6,2.2-0.8,3.3c-0.3,1.1-0.5,2.2-0.7,3.3c-0.2,1.1-0.4,2.1-0.5,3.1c-0.1,1-0.2,1.9-0.3,2.8
					c-0.1,0.9-0.1,1.6-0.2,2.3c0,0.7-0.1,1.3-0.1,1.8c0,1,0,1.6,0,1.6L357.5,204.5z"/>
			</g>
		</g>

			<use xlink:href="#New_Symbol_4"  width="59.6" height="58.7" x="-29.8" y="-29.3" transform="matrix(1.9231 0 0 -1.9231 139.969 191.8642)" overflow="visible"/>

			<use xlink:href="#New_Symbol_1"  width="66.5" height="66.3" x="-33.2" y="-33.1" transform="matrix(-1.7182 -1.3622 -1.3622 1.7182 70.9919 231.8705)" overflow="visible"/>

			<use xlink:href="#New_Symbol_1"  width="66.5" height="66.3" x="-33.2" y="-33.1" transform="matrix(1.8675 -0.2163 0.2163 1.8675 425.2065 291.1824)" overflow="visible"/>

			<use xlink:href="#New_Symbol"  width="93.1" height="81.4" x="-46.6" y="-40.7" transform="matrix(1.9231 0 0 -1.9231 300.0575 221.4011)" overflow="visible"/>

			<use xlink:href="#New_Symbol"  width="93.1" height="81.4" x="-46.6" y="-40.7" transform="matrix(-1.6469 0 0 -1.6469 187.9545 270.8484)" overflow="visible"/>

			<use xlink:href="#New_Symbol_3"  width="86.4" height="88" x="-43.2" y="-44" transform="matrix(1.9231 0 0 -1.9231 109.4018 344.6928)" overflow="visible"/>
		<g>
			<g>
				<path fill="#7C5539" d="M357.2,327.5c0,0-0.3,0-0.9,0c-0.6,0-1.4,0-2.5,0.1c-2.1,0.1-5.2,0.6-8.8,1.2c-1.8,0.3-3.8,0.7-5.9,1
					c-2.1,0.3-4.3,0.5-6.6,0.8c-1.1,0.1-2.3,0.2-3.5,0.3c-1.2,0.1-2.4,0.1-3.6,0.2c-2.4,0.1-4.9,0.1-7.3,0c-2.5-0.1-4.9-0.2-7.3-0.4
					c-1.2-0.1-2.4-0.2-3.6-0.4c-1.2-0.1-2.4-0.3-3.5-0.5c-2.3-0.4-4.5-0.8-6.5-1.4c-1-0.3-2-0.5-3-0.8c-1-0.3-1.9-0.6-2.8-0.9
					c-0.9-0.3-1.7-0.6-2.5-0.9c-0.8-0.3-1.5-0.6-2.2-0.9c-1.4-0.6-2.6-1.1-3.6-1.6c-1.9-1-3-1.5-3-1.5l0.1-0.2c0,0,1.2,0.4,3.2,1.1
					c1,0.3,2.3,0.7,3.7,1.1c1.4,0.4,3,0.9,4.8,1.3c1.8,0.5,3.7,0.9,5.7,1.3c2,0.4,4.2,0.9,6.4,1.2c1.1,0.2,2.3,0.4,3.4,0.6
					c1.2,0.2,2.3,0.4,3.5,0.5c2.4,0.3,4.8,0.5,7.2,0.7c2.4,0.1,4.9,0.2,7.3,0.2c1.2,0,2.4,0,3.6-0.1c1.2-0.1,2.3-0.1,3.5-0.2
					c2.3-0.1,4.5-0.3,6.6-0.5c2.1-0.2,4-0.5,5.9-0.7c3.6-0.5,6.7-0.8,8.9-0.8c1.1,0,1.9,0,2.5,0c0.6,0,0.9,0,0.9,0L357.2,327.5z"/>
			</g>
			<g>
				<path fill="#BE8057" d="M339.8,338c-0.3-2.9,0.6-6.1,2.5-8.9"/>
				<path fill="#7C5539" d="M339.7,338c0,0-0.2-0.1-0.4-0.4c-0.2-0.2-0.5-0.7-0.6-1.1c-0.1-0.2-0.2-0.5-0.2-0.8
					c-0.1-0.3-0.1-0.6-0.1-0.9c0-0.6,0.1-1.3,0.3-1.9c0.2-0.6,0.5-1.2,0.8-1.7c0.2-0.3,0.4-0.5,0.6-0.7c0.2-0.2,0.4-0.4,0.6-0.5
					c0.4-0.3,0.8-0.5,1.1-0.6c0.3-0.1,0.5-0.2,0.5-0.2l0.2,0.1c0,0-0.3,0.5-0.7,1.3c-0.4,0.8-0.9,1.8-1.2,3
					c-0.4,1.1-0.5,2.3-0.6,3.1c-0.1,0.9,0,1.5,0,1.5L339.7,338z"/>
			</g>
			<g>
				<path fill="#BE8057" d="M346.7,339.8c-3.5-3-5.1-7.4-4.3-11.8"/>
				<path fill="#7C5539" d="M346.6,339.9c0,0-0.2,0-0.6-0.1c-0.2,0-0.4-0.1-0.7-0.2c-0.3-0.1-0.6-0.3-0.9-0.5
					c-0.3-0.2-0.6-0.4-0.9-0.7c-0.3-0.3-0.6-0.6-0.9-0.9c-0.3-0.3-0.6-0.7-0.8-1.1c-0.2-0.4-0.4-0.8-0.6-1.3
					c-0.1-0.5-0.3-0.9-0.4-1.4c-0.1-0.5-0.1-0.9-0.1-1.4c0-0.4,0-0.9,0.1-1.3c0.1-0.4,0.2-0.8,0.3-1.1c0.1-0.3,0.2-0.6,0.4-0.9
					c0.1-0.3,0.3-0.5,0.4-0.6c0.3-0.3,0.4-0.5,0.4-0.5l0.2,0c0,0,0,0.2-0.1,0.6c0,0.4-0.1,0.9-0.1,1.5c0,1.2,0.2,2.9,0.8,4.4
					c0.1,0.4,0.3,0.8,0.5,1.1c0.2,0.4,0.4,0.7,0.5,1c0.4,0.6,0.8,1.2,1.2,1.7c0.4,0.5,0.7,0.8,1,1.1c0.3,0.3,0.4,0.4,0.4,0.4
					L346.6,339.9z"/>
			</g>
			<g>
				<path fill="#BE8057" d="M347.5,325.7c-2.2,1-4.1,2.3-5.6,3.9"/>
				<path fill="#7C5539" d="M347.6,325.8c0,0,0,0.2-0.1,0.4c-0.1,0.3-0.2,0.6-0.4,0.9c-0.1,0.2-0.2,0.3-0.3,0.5
					c-0.1,0.2-0.2,0.3-0.3,0.5c-0.3,0.3-0.5,0.6-0.9,0.8c-0.3,0.2-0.7,0.4-1,0.5c-0.4,0.1-0.7,0.2-1.1,0.3c-0.4,0.1-0.7,0.1-1,0.1
					c-0.3,0-0.4,0-0.4,0l-0.1-0.1c0,0,0.3-0.3,0.7-0.8c0.5-0.5,1.1-1,1.8-1.5c0.7-0.5,1.5-0.9,2.1-1.2c0.6-0.3,1-0.4,1-0.4
					L347.6,325.8z"/>
			</g>
			<g>
				<path fill="#BE8057" d="M342.1,329c-0.2-2.4-2.1-4.4-4.8-5.4"/>
				<path fill="#7C5539" d="M342,329.1c0,0-0.2-0.1-0.4-0.3c-0.2-0.2-0.5-0.3-0.8-0.5c-0.1-0.1-0.3-0.2-0.4-0.3
					c-0.2-0.1-0.3-0.2-0.4-0.3c-0.1-0.1-0.3-0.2-0.4-0.3c-0.1-0.1-0.2-0.2-0.4-0.4c-0.2-0.3-0.5-0.5-0.7-0.8
					c-0.1-0.1-0.2-0.3-0.3-0.5c-0.1-0.2-0.2-0.3-0.3-0.5c-0.2-0.3-0.3-0.7-0.5-0.9c-0.1-0.3-0.2-0.4-0.2-0.4l0.1-0.2
					c0,0,0.1,0,0.3,0.1c0.2,0.1,0.5,0.2,0.8,0.3c0.7,0.3,1.5,0.8,2.2,1.5c0.7,0.7,1.1,1.6,1.4,2.3c0.1,0.3,0.2,0.7,0.2,0.9
					c0,0.2,0,0.3,0,0.3L342,329.1z"/>
			</g>

				<use xlink:href="#New_Symbol_6"  width="33.2" height="21.3" x="-16.6" y="-10.7" transform="matrix(1.9231 0 0 -1.9231 376.6028 307.3349)" overflow="visible"/>

				<use xlink:href="#New_Symbol_6"  width="33.2" height="21.3" x="-16.6" y="-10.7" transform="matrix(1.5046 1.1977 1.1977 -1.5046 386.328 331.2001)" overflow="visible"/>

				<use xlink:href="#New_Symbol_6"  width="33.2" height="21.3" x="-16.6" y="-10.7" transform="matrix(0.3083 1.5688 1.581 -0.3107 362.0219 354.8107)" overflow="visible"/>

				<use xlink:href="#New_Symbol_5"  width="17.1" height="21.9" x="-8.6" y="-11" transform="matrix(1.9231 0 0 -1.9231 337.8224 352.4874)" overflow="visible"/>

				<use xlink:href="#New_Symbol_5"  width="17.1" height="21.9" x="-8.6" y="-11" transform="matrix(1.7767 -0.7359 0.7359 1.7767 332.524 309.582)" overflow="visible"/>
		</g>
	</g>
</g>
</svg>
