<?xml version="1.0" encoding="utf-8"?>
<!-- Generator: Adobe Illustrator 18.1.1, SVG Export Plug-In . SVG Version: 6.00 Build 0)  -->
<svg version="1.1" id="Layer_1" xmlns="http://www.w3.org/2000/svg" xmlns:xlink="http://www.w3.org/1999/xlink" x="0px" y="0px"
	 viewBox="0 0 500 500" enable-background="new 0 0 500 500" xml:space="preserve">
<g>
	<rect x="0" fill="#6E6D99" width="500" height="500"/>
	<g>
		<path fill="#B0BCC8" stroke="#84959A" stroke-width="2.1536" stroke-miterlimit="10" d="M62.7,297v-44.5h407V306
			c0,18.9-28.2,39.5-84.5,46.3c-1.7,1-3.4,2-3.4,2S214.7,453,75.5,411.9c-33.3-9.8-46.3-24.1-48.7-39.1l-0.4-27.6L62.7,297z"/>
		<path fill="#D1D9E0" stroke="#576263" stroke-width="4.3072" stroke-miterlimit="10" d="M465.2,266.4c0,31.4-89.1,56.9-198.9,56.9
			S67.4,297.8,67.4,266.4"/>
		<path fill="#B0BCC8" stroke="#84959A" stroke-width="2.1536" stroke-miterlimit="10" d="M469.8,264.1c0,32.1-91.1,58.2-203.5,58.2
			s-203.5-26-203.5-58.2v-32.4h407V264.1z"/>

			<ellipse fill="#D1D9E0" stroke="#84959A" stroke-width="2.1536" stroke-miterlimit="10" cx="266.3" cy="231.7" rx="203.5" ry="58.2"/>
		<path fill="none" stroke="#566C71" stroke-width="2.1536" stroke-miterlimit="10" d="M469.8,284.2c0,32.1-91.1,58.2-203.5,58.2
			s-203.5-26-203.5-58.2"/>
		<path fill="#D1D9E0" stroke="#84959A" stroke-width="2.1536" stroke-miterlimit="10" d="M266.3,342.8
			c-112.4,0-203.5-26-203.5-58.2v2.8C49.6,301.9-18.8,365.2,75.5,393c139.1,41.1,306.3-57.7,306.3-57.7c53.1-10.5,87.9-28,87.9-47.9
			v-2.8C469.8,316.8,378.7,342.8,266.3,342.8z"/>
		<g>
			<g>
				<g>
					<path fill="#929EB1" d="M140.7,248.8c9.9-6.6,17.9-17.3,23.2-27.8c5-9.9,8.6-21.9,7.7-33.1c-0.2-2.8-4.2-2.8-4.4,0
						c-0.3,5.3-0.6,10.6-1.9,15.8c-1.2,5.3-3,10.5-5.4,15.4c-2.4,4.9-5.2,9.6-8.5,14c-3.7,5-8,9.3-12.1,13.9
						C138.6,247.9,139.6,249.5,140.7,248.8L140.7,248.8z"/>
				</g>
			</g>
			<g>
				<g>
					<path fill="#929EB1" d="M134.4,250.4c-0.1-2.1-1.1-4.1-1.7-6.2c-0.7-2.3-1.3-4.6-1.8-7c-1-4.9-1.5-9.8-1.7-14.8
						c-0.3-9.7,0.8-19.4,3.2-28.8c0.6-2.5-3.2-3.5-3.8-1.1c-2.5,9.9-3.4,20.2-2.3,30.3c0.5,4.9,1.5,9.7,2.6,14.5
						c0.6,2.5,1.3,4.9,2.1,7.3c0.7,2,1.3,4.3,2.6,6C133.9,251,134.4,250.8,134.4,250.4L134.4,250.4z"/>
				</g>
			</g>
			<g>
				<g>
					<path fill="#929EB1" d="M139.5,253.3c-0.2-4.7-0.7-9.3-0.5-14.1c0.2-4.7,0.7-9.4,1.4-14c0.7-4.5,1.8-9,3.2-13.3
						c1.4-4.5,3.6-8.7,5.2-13.1c0.8-2-2.3-3.2-3.4-1.4c-2.5,3.9-4.1,8.7-5.5,13.1c-1.5,4.7-2.7,9.5-3.3,14.4
						c-1.3,9.2-1.4,19.6,1.1,28.7C138,254.5,139.5,254.3,139.5,253.3L139.5,253.3z"/>
				</g>
			</g>
			<g>
				<g>
					<path fill="#929EB1" d="M115.4,218.6c-1.9,6.5,0.5,15,3.2,21c3,6.6,7.7,12.9,13.8,16.8c1.7,1.1,3.8-1.5,2.2-2.9
						c-5.2-4.5-9.6-9.3-12.5-15.6c-1.5-3.1-2.6-6.3-3.3-9.7c-0.7-3.2-0.7-6.5-1.3-9.7C117.2,217.6,115.7,217.7,115.4,218.6
						L115.4,218.6z"/>
				</g>
			</g>
			<g>
				<g>
					<path fill="#929EB1" d="M110.5,240c5.5,4.8,11.8,8.8,18,12.6c1.8,1.2,3.4-1.7,1.7-2.9c-5.9-4-12.1-8.1-18.6-11.2
						C110.7,238.2,109.6,239.3,110.5,240L110.5,240z"/>
				</g>
			</g>
			<g>
				<g>
					<path fill="#929EB1" d="M132.2,254.7c0.8,3,1.2,6.5,0.8,9.6c-0.5,3.2-2.2,6-3.2,9.1c-0.6,1.9,1.9,2.6,3,1.2
						c2.2-2.8,2.4-6.5,2.5-9.9c0.1-3.7-0.1-6.9-1.4-10.5C133.5,253.2,131.9,253.6,132.2,254.7L132.2,254.7z"/>
				</g>
			</g>
			<path fill="#FAFAF2" stroke="#DFDED9" stroke-width="2.385" stroke-miterlimit="10" d="M46.2,277.1c1.7-3,4.9-4.9,8-6.6
				c29.3-15.6,63-22.7,96.1-20.6c-0.8,1.3-1.7,2.6-2.5,4c-35.3,1.6-70.2,12.9-99.7,32.3c-2.9-1.6-3.5-6-1.9-9
				C46.2,277.2,46.2,277.2,46.2,277.1z"/>

				<path fill="#FFFFFF" stroke="#BDCFEA" stroke-width="2.385" stroke-linecap="round" stroke-linejoin="round" stroke-miterlimit="10" d="
				M443.6,69.6L443.6,69.6c-1.9-0.6-3.8-0.2-5.8,0.2c-23.1,4.8-62.6,34.3-86.1,60.9c3.3-5.9,6.7-11.8,10-17.7
				c-40,17.8-77.2,41.7-110,70.7l8.3-15.2c-10.1,2.5-24.4,9.5-31.8,17.1c-8.3,8.5-9.2,13.2-17.1,20.2c2.1-4.7,4.2-9.4,6.3-14.2
				c-18.9,9.1-30.3,13.6-50.4,37c2.1-6.4,2.9-9.1,5-15.5c-12.4,12.4-21.2,23.6-27.9,39.8c9.9,14.5,29,19.7,46.6,21.3
				c46.7,4.2,94.8-9.6,132.3-37.9c-4.1-1.8-8.5-2.8-13-2.9c38.6-9.1,73.9-32,97.8-63.7c-7.6-0.6-15.4,0.5-22.5,3.1
				c0,0-1.5,0.6-3.7,1.4c9-4.4,17.5-9.8,25.5-15.8c20.4-15.5,35.9-36.9,43.8-61.3c0-0.1,0.1-0.3,0.1-0.4c2.7-8.3,4-18.7-2.6-24.4
				C446.9,71,445.3,70.2,443.6,69.6z"/>
			<g>
				<path fill="#FFFFFF" d="M438.6,74.3c-21.2,7.1-39.4,21.3-55.2,37.1s-29.9,33.3-46,49c-32.7,31.8-73.5,59.3-117.4,73"/>
				<path fill="#BDCFEA" d="M438.6,74.5c0,0-1,0.4-2.8,1.2c-1.9,0.8-4.5,2.1-7.8,3.8c-3.3,1.8-7.2,4-11.4,6.9
					c-1.1,0.7-2.1,1.5-3.3,2.3c-1.1,0.8-2.2,1.7-3.4,2.5c-2.3,1.8-4.6,3.7-7,5.7c-4.8,4.1-9.8,8.8-14.9,14
					c-5.1,5.2-10.2,10.9-15.5,16.9c-5.3,6-10.8,12.2-16.3,18.6c-2.8,3.2-5.7,6.3-8.7,9.4c-3,3.1-6,6.2-9.1,9.2
					c-6.2,6.1-12.7,11.8-19.3,17.2c-3.3,2.7-6.6,5.3-9.9,7.8c-3.3,2.5-6.7,4.9-10.1,7.2c-6.7,4.6-13.3,8.8-19.8,12.4
					c-6.5,3.7-12.7,6.9-18.6,9.6c-2.9,1.4-5.8,2.6-8.5,3.8c-2.7,1.1-5.4,2.1-7.8,3c-4.9,1.8-9.3,3.2-12.9,4.3
					c-3.6,1.1-6.5,1.8-8.4,2.3c-2,0.5-3,0.7-3,0.7l-0.1-0.5c0,0,1-0.3,2.9-0.9c1.9-0.6,4.7-1.6,8.2-2.9c7-2.6,16.9-6.7,28.3-12.5
					c11.4-5.9,24.3-13.6,37.3-22.9c6.5-4.7,13.1-9.7,19.5-15.1c6.5-5.4,12.8-11.1,19-17c12.4-11.8,23.6-24.8,34.4-36.6
					c5.4-5.9,10.8-11.5,16.1-16.6c5.3-5.1,10.5-9.7,15.6-13.7c5-4,9.9-7.4,14.4-10.1c4.5-2.7,8.5-4.8,11.9-6.4
					c1.7-0.8,3.2-1.5,4.6-2c1.4-0.5,2.5-1,3.5-1.3c1.9-0.7,2.9-1,2.9-1L438.6,74.5z"/>
			</g>
			<g>
				<path fill="#FFFFFF" d="M313.3,189c22.9-16,49.4-26.8,77-31.5"/>
				<path fill="#BDCFEA" d="M313.2,188.9c0,0,0.2-0.2,0.7-0.6c0.5-0.4,1.1-1,2-1.7c0.9-0.7,2-1.6,3.3-2.6c0.6-0.5,1.3-1,2-1.6
					c0.7-0.5,1.5-1.1,2.3-1.6c0.8-0.6,1.7-1.2,2.6-1.7c0.9-0.6,1.8-1.2,2.8-1.8c1.9-1.2,4-2.4,6.2-3.6c2.2-1.1,4.4-2.4,6.8-3.5
					c2.3-1.1,4.8-2.2,7.2-3.2c2.5-0.9,4.9-1.9,7.4-2.8c2.4-0.9,4.9-1.6,7.3-2.3c2.4-0.7,4.7-1.3,6.9-1.8c1.1-0.2,2.2-0.5,3.2-0.7
					c1-0.2,2.1-0.4,3-0.6c1-0.2,1.9-0.4,2.8-0.5c0.9-0.1,1.7-0.2,2.5-0.3c1.6-0.2,3-0.4,4.1-0.5c1.1-0.1,2.1-0.2,2.7-0.2
					c0.6,0,0.9-0.1,0.9-0.1l0,0.2c0,0-1.3,0.2-3.5,0.7c-1.1,0.2-2.5,0.5-4,0.8c-1.6,0.3-3.3,0.7-5.2,1.2c-1.9,0.4-4,1-6.1,1.6
					c-2.2,0.6-4.4,1.3-6.8,2c-2.3,0.8-4.7,1.6-7.1,2.5c-2.4,0.9-4.8,1.9-7.3,2.8c-2.4,1-4.8,2-7.2,3.1c-2.4,1-4.6,2.2-6.8,3.3
					c-2.2,1.1-4.3,2.2-6.3,3.3c-2,1.1-3.8,2.1-5.5,3.2c-1.7,1-3.2,1.9-4.6,2.8c-1.4,0.8-2.5,1.6-3.5,2.2c-1.9,1.3-3,2-3,2
					L313.2,188.9z"/>
			</g>
			<g>
				<path fill="#FFFFFF" d="M194.3,227.9c2.6-3.6,5.2-7.2,7.8-10.7"/>
				<path fill="#BDCFEA" d="M194.2,227.9c0,0,0-0.1,0-0.2c0-0.1,0-0.3,0-0.5c0-0.4,0.1-1,0.3-1.7c0.3-1.3,1-2.9,2-4.2
					c1-1.3,2.2-2.5,3.4-3.2c0.6-0.4,1.1-0.6,1.5-0.8c0.2-0.1,0.4-0.1,0.5-0.2c0.1,0,0.2-0.1,0.2-0.1l0.2,0.1c0,0-0.5,0.7-1.2,1.7
					c-0.7,1-1.7,2.4-2.6,3.7c-1,1.3-2,2.7-2.7,3.7c-0.7,1-1.3,1.6-1.3,1.6L194.2,227.9z"/>
			</g>
			<g>
				<path fill="#FFFFFF" d="M185.8,250c34.9-12.8,72.9-17,109.7-12.3"/>
				<path fill="#BDCFEA" d="M185.8,249.9c0,0,0.4-0.2,1.1-0.5c0.7-0.3,1.8-0.9,3.2-1.4c1.4-0.6,3.1-1.3,5.1-2.1
					c1-0.4,2.1-0.8,3.2-1.2c1.1-0.4,2.3-0.8,3.6-1.2c1.2-0.4,2.5-0.9,3.9-1.3c1.4-0.4,2.8-0.8,4.2-1.2c2.9-0.9,6-1.6,9.2-2.3
					c3.2-0.7,6.5-1.4,10-1.9c3.4-0.6,6.9-1,10.4-1.5c3.5-0.3,7-0.7,10.5-0.8c3.4-0.3,6.9-0.2,10.1-0.3c1.6,0,3.3,0,4.8,0.1
					c1.6,0,3.1,0.1,4.6,0.2c1.5,0.1,3,0.2,4.4,0.3c1.4,0.1,2.8,0.3,4.1,0.4c1.3,0.1,2.6,0.2,3.7,0.4c1.2,0.2,2.3,0.3,3.4,0.5
					c2.1,0.3,3.9,0.6,5.5,0.9c1.5,0.3,2.7,0.5,3.5,0.7c0.8,0.2,1.2,0.3,1.2,0.3l0,0.2c0,0-1.7-0.2-4.8-0.5c-1.5-0.2-3.4-0.3-5.5-0.5
					c-1.1-0.1-2.2-0.2-3.4-0.3c-1.2-0.1-2.4-0.1-3.7-0.2c-1.3-0.1-2.7-0.2-4.1-0.2c-1.4,0-2.9-0.1-4.4-0.1c-1.5,0-3,0-4.6,0
					c-1.6,0-3.2,0-4.8,0.1c-3.3,0.1-6.6,0.2-10,0.5c-3.4,0.2-6.9,0.6-10.3,0.9c-3.5,0.4-6.9,0.8-10.3,1.4c-3.4,0.5-6.7,1.1-9.9,1.7
					c-1.6,0.3-3.2,0.7-4.7,1c-1.5,0.3-3,0.7-4.5,1c-1.5,0.4-2.9,0.7-4.2,1c-1.4,0.3-2.7,0.7-3.9,1.1c-1.3,0.4-2.5,0.7-3.6,1
					c-1.1,0.4-2.2,0.7-3.2,1c-2,0.6-3.8,1.2-5.2,1.7c-2.9,1-4.5,1.6-4.5,1.6L185.8,249.9z"/>
			</g>
			<g>
				<path fill="#FFFFFF" d="M259.7,205.7c19.8-14.6,37.1-32.6,50.9-52.9"/>
				<path fill="#BDCFEA" d="M259.6,205.6c0,0,0.2-0.2,0.6-0.6c0.4-0.4,0.9-1,1.7-1.6c1.5-1.4,3.5-3.4,6-5.8c1.2-1.2,2.6-2.5,4-3.8
					c1.4-1.3,2.9-2.8,4.4-4.3c1.5-1.5,3.1-3.1,4.7-4.7c1.6-1.6,3.2-3.2,4.8-4.9c1.6-1.6,3.2-3.3,4.7-4.9c1.5-1.6,3-3.3,4.5-4.8
					c1.4-1.6,2.9-3.1,4.1-4.6c1.3-1.5,2.5-2.9,3.7-4.2c2.3-2.6,4.2-4.7,5.5-6.3c0.6-0.8,1.2-1.3,1.6-1.8c0.4-0.4,0.6-0.6,0.6-0.6
					l0.2,0.1c0,0-0.7,0.9-1.8,2.6c-0.6,0.8-1.3,1.8-2.1,3c-0.8,1.1-1.8,2.4-2.8,3.8c-1,1.4-2.2,2.9-3.4,4.4c-1.2,1.6-2.6,3.2-4,4.8
					c-1.4,1.6-2.9,3.3-4.4,5c-1.5,1.7-3.1,3.4-4.7,5.1c-1.6,1.6-3.2,3.3-4.9,4.9c-1.6,1.6-3.3,3.1-4.9,4.6c-1.6,1.4-3.2,2.9-4.7,4.1
					c-1.5,1.3-2.9,2.5-4.3,3.6c-1.3,1.1-2.6,2.1-3.7,3c-1.1,0.9-2.1,1.6-2.9,2.2c-1.6,1.2-2.5,1.9-2.5,1.9L259.6,205.6z"/>
			</g>
			<g>
				<path fill="#FFFFFF" d="M357,152.2c19-24.2,47.1-41.2,77.4-46.9"/>
				<path fill="#BDCFEA" d="M356.9,152.1c0,0,0.2-0.3,0.6-0.9c0.4-0.6,0.9-1.4,1.6-2.4c0.4-0.5,0.8-1.1,1.2-1.7c0.5-0.6,1-1.3,1.5-2
					c0.5-0.7,1.1-1.5,1.7-2.3c0.6-0.8,1.3-1.5,2.1-2.4c0.7-0.8,1.5-1.7,2.3-2.5c0.8-0.8,1.7-1.7,2.6-2.6c0.9-0.9,1.8-1.8,2.8-2.7
					c1-0.9,2-1.8,3-2.7c2.1-1.7,4.3-3.6,6.7-5.2c2.3-1.7,4.8-3.3,7.3-4.9c2.6-1.4,5.1-2.9,7.7-4.2c2.5-1.4,5.2-2.4,7.7-3.5
					c1.3-0.5,2.5-1,3.8-1.4c1.2-0.5,2.5-0.9,3.7-1.3c1.2-0.4,2.4-0.7,3.5-1.1c1.1-0.3,2.3-0.6,3.3-0.8c1.1-0.3,2.1-0.5,3.1-0.7
					c1-0.2,1.9-0.3,2.8-0.5c0.9-0.2,1.7-0.3,2.4-0.4c0.8-0.1,1.5-0.2,2.1-0.3c1.3-0.2,2.3-0.3,2.9-0.3c0.7-0.1,1-0.1,1-0.1l0,0.2
					c0,0-1.4,0.3-3.9,0.8c-0.6,0.1-1.3,0.3-2,0.4c-0.7,0.2-1.5,0.4-2.4,0.6c-0.8,0.2-1.8,0.5-2.7,0.7c-0.9,0.3-1.9,0.6-3,0.9
					c-1,0.3-2.1,0.6-3.2,1c-1.1,0.4-2.2,0.8-3.4,1.2c-1.2,0.4-2.4,0.9-3.5,1.4c-1.2,0.5-2.4,1-3.7,1.5c-2.4,1.2-5,2.3-7.5,3.6
					c-2.5,1.3-5,2.8-7.5,4.2c-2.4,1.6-4.9,3-7.2,4.7c-2.4,1.6-4.5,3.3-6.7,5c-1.1,0.8-2.1,1.7-3.1,2.5c-1,0.8-2,1.7-2.9,2.5
					c-0.9,0.8-1.8,1.7-2.7,2.4c-0.9,0.8-1.6,1.6-2.4,2.4c-0.8,0.8-1.5,1.5-2.2,2.2c-0.7,0.7-1.3,1.4-1.9,2.1
					c-0.6,0.6-1.1,1.3-1.7,1.8c-0.5,0.6-0.9,1.1-1.3,1.6c-1.6,1.9-2.5,3.1-2.5,3.1L356.9,152.1z"/>
			</g>
			<g>
				<path fill="#FFFFFF" d="M381.8,122.2c11.5-12.1,26.7-20.5,43-23.7"/>
				<path fill="#BDCFEA" d="M381.8,122.1c0,0,0.1-0.2,0.3-0.5c0.2-0.3,0.5-0.8,0.9-1.3c0.4-0.6,0.9-1.2,1.5-2c0.3-0.4,0.6-0.8,1-1.2
					c0.4-0.4,0.8-0.8,1.2-1.3c0.4-0.4,0.8-0.9,1.3-1.4c0.5-0.5,1-0.9,1.5-1.4c1-0.9,2.1-1.9,3.3-2.8c1.2-0.9,2.4-1.9,3.8-2.7
					c1.3-0.9,2.7-1.7,4.1-2.5c1.4-0.7,2.8-1.5,4.3-2.1c1.4-0.7,2.9-1.2,4.3-1.7c1.4-0.5,2.8-0.9,4.1-1.3c0.7-0.2,1.3-0.4,1.9-0.5
					c0.6-0.1,1.2-0.2,1.8-0.4c0.6-0.1,1.1-0.2,1.7-0.3c0.5-0.1,1.1-0.1,1.5-0.2c1-0.1,1.8-0.2,2.5-0.2c0.7,0,1.2,0,1.6-0.1
					c0.4,0,0.6,0,0.6,0l0,0.2c0,0-0.8,0.2-2.1,0.5c-0.7,0.1-1.5,0.3-2.4,0.6c-0.9,0.2-2,0.5-3.1,0.9c-1.1,0.3-2.3,0.7-3.6,1.2
					c-1.3,0.4-2.6,1-3.9,1.5c-1.3,0.6-2.7,1.2-4.1,1.9c-1.4,0.6-2.7,1.4-4.1,2.1c-1.3,0.8-2.7,1.5-4,2.3c-1.3,0.8-2.5,1.7-3.8,2.5
					c-1.2,0.9-2.3,1.7-3.4,2.5c-1.1,0.8-2,1.6-2.9,2.4c-0.9,0.7-1.7,1.5-2.4,2.1c-0.7,0.6-1.3,1.2-1.8,1.7c-1,1-1.5,1.5-1.5,1.5
					L381.8,122.1z"/>
			</g>
			<g>
				<path fill="#FFFFFF" d="M350.8,163.1c12.4-7.4,26-13,40.2-16.3"/>
				<path fill="#BDCFEA" d="M350.7,163c0,0,0.1-0.1,0.4-0.3c0.2-0.2,0.6-0.6,1-1c0.5-0.4,1-0.9,1.7-1.4c0.7-0.5,1.4-1.1,2.3-1.7
					c0.8-0.6,1.8-1.2,2.8-1.8c1-0.6,2.1-1.3,3.2-1.9c1.2-0.6,2.3-1.3,3.6-1.8c1.2-0.6,2.5-1.1,3.8-1.7c1.3-0.5,2.6-1,3.9-1.4
					c1.3-0.5,2.6-0.8,3.8-1.2c1.2-0.4,2.5-0.6,3.6-0.9c1.2-0.3,2.3-0.5,3.3-0.6c1-0.2,2-0.3,2.8-0.4c0.8-0.1,1.6-0.1,2.2-0.2
					c0.6,0,1.1,0,1.4,0c0.3,0,0.5,0,0.5,0l0.1,0.2c0,0-0.7,0.2-1.8,0.5c-1.2,0.3-2.8,0.7-4.7,1.3c-1,0.3-2,0.6-3.1,1
					c-1.1,0.3-2.3,0.8-3.5,1.2c-2.4,0.8-4.9,1.8-7.5,2.8c-2.5,1-5,2.1-7.3,3.2c-1.1,0.6-2.3,1.1-3.3,1.6c-1,0.5-2,1-2.9,1.5
					c-1.8,0.9-3.3,1.8-4.3,2.4c-1,0.6-1.6,0.9-1.6,0.9L350.7,163z"/>
			</g>
			<g>
				<path fill="#FFFFFF" d="M297.3,201.1c12.9-4.6,27.1-5.6,40.5-2.6"/>
				<path fill="#BDCFEA" d="M297.3,201c0,0,0.1-0.1,0.4-0.3c0.3-0.2,0.6-0.4,1.1-0.7c0.5-0.3,1.1-0.6,1.8-1c0.7-0.4,1.6-0.8,2.5-1.1
					c0.5-0.2,0.9-0.4,1.4-0.6c0.5-0.2,1-0.3,1.6-0.5c1.1-0.4,2.2-0.7,3.4-0.9c1.2-0.2,2.5-0.6,3.8-0.7c1.3-0.2,2.6-0.3,3.9-0.4
					c1.3,0,2.6-0.1,3.9-0.1c1.3,0,2.6,0.1,3.8,0.2c1.2,0.1,2.4,0.3,3.5,0.5c1.1,0.2,2.2,0.4,3.1,0.7c1,0.2,1.8,0.5,2.6,0.8
					c0.8,0.2,1.4,0.5,2,0.7c0.5,0.2,0.9,0.4,1.2,0.5c0.3,0.1,0.4,0.2,0.4,0.2l-0.1,0.2c0,0-0.6-0.1-1.7-0.3c-0.5-0.1-1.2-0.2-2-0.3
					c-0.8-0.1-1.6-0.3-2.6-0.4c-1-0.1-2-0.2-3.1-0.3c-1.1-0.1-2.3-0.1-3.5-0.2c-1.2,0-2.4-0.1-3.7,0c-1.3,0-2.5,0.1-3.8,0.2
					c-1.3,0.1-2.6,0.2-3.8,0.3c-1.3,0.1-2.5,0.3-3.7,0.5c-1.2,0.2-2.3,0.4-3.4,0.6c-1.1,0.2-2.1,0.5-3,0.7c-0.9,0.2-1.8,0.5-2.5,0.7
					c-0.8,0.2-1.4,0.4-1.9,0.6c-1.1,0.4-1.7,0.6-1.7,0.6L297.3,201z"/>
			</g>
			<g>
				<path fill="#FFFFFF" d="M277.6,213.5c10.9-3.5,22.5-4.9,34-4.2"/>
				<path fill="#BDCFEA" d="M277.6,213.4c0,0,0.1-0.1,0.3-0.2c0.2-0.1,0.5-0.4,1-0.6c0.4-0.2,0.9-0.5,1.5-0.8c0.6-0.3,1.3-0.6,2.1-1
					c0.8-0.3,1.6-0.7,2.5-1c0.9-0.3,1.8-0.6,2.8-0.9c1-0.2,2-0.6,3.1-0.7c1.1-0.2,2.2-0.4,3.2-0.5c1.1-0.1,2.2-0.2,3.3-0.3
					c1.1-0.1,2.2,0,3.2-0.1c1,0,2,0.1,3,0.2c0.9,0.1,1.8,0.2,2.6,0.3c0.8,0.1,1.6,0.3,2.2,0.4c0.7,0.1,1.2,0.3,1.7,0.4
					c0.5,0.1,0.8,0.3,1.1,0.3c0.2,0.1,0.4,0.1,0.4,0.1l0,0.2c0,0-0.5,0-1.5-0.1c-0.9,0-2.3-0.1-3.9-0.1c-1.6,0-3.5,0.1-5.5,0.2
					c-2,0.1-4.1,0.3-6.3,0.6c-2.1,0.3-4.3,0.6-6.2,0.9c-2,0.4-3.8,0.8-5.4,1.2c-1.6,0.4-2.9,0.7-3.8,1c-0.9,0.3-1.4,0.4-1.4,0.4
					L277.6,213.4z"/>
			</g>
			<g>
				<path fill="#FFFFFF" d="M161.1,256.4c20.4,8.2,43.3,9.9,64.6,4.9"/>
				<path fill="#BDCFEA" d="M161.1,256.3c0,0,0.3,0.1,0.7,0.2c0.5,0.1,1.2,0.2,2.1,0.5c0.9,0.2,1.9,0.5,3.2,0.7
					c1.2,0.3,2.6,0.5,4.1,0.9c1.5,0.3,3.1,0.6,4.8,0.9c0.9,0.2,1.7,0.3,2.6,0.4c0.9,0.1,1.8,0.3,2.8,0.5c1.9,0.3,3.8,0.5,5.8,0.7
					c2,0.3,4,0.4,6,0.6c2,0.1,4,0.3,6,0.3c2,0.1,3.9,0.1,5.8,0.1c0.9,0,1.9,0,2.8,0c0.9,0,1.8,0,2.7,0c1.7-0.1,3.4-0.1,4.9-0.2
					c1.5-0.1,2.9-0.1,4.2-0.2c1.3-0.1,2.3-0.1,3.2-0.2c0.9-0.1,1.6-0.1,2.1-0.2c0.5,0,0.7,0,0.7,0l0.1,0.2c0,0-1,0.2-2.8,0.6
					c-0.9,0.2-2,0.4-3.2,0.6c-0.6,0.1-1.3,0.2-2,0.3c-0.7,0.1-1.4,0.2-2.2,0.3c-1.5,0.2-3.2,0.4-5,0.6c-1.8,0.2-3.6,0.3-5.6,0.4
					c-1.9,0-3.9,0.1-6,0.1c-2,0-4.1-0.1-6.1-0.2c-2.1-0.2-4.1-0.4-6.1-0.7c-2-0.2-4-0.6-5.9-0.9c-1.9-0.4-3.7-0.7-5.4-1.2
					c-1.7-0.4-3.3-0.8-4.8-1.3c-0.7-0.2-1.4-0.4-2.1-0.6c-0.7-0.2-1.3-0.4-1.9-0.6c-1.2-0.4-2.2-0.8-3.1-1.1c-1.7-0.6-2.6-1-2.6-1
					L161.1,256.3z"/>
			</g>
			<g>
				<path fill="#FFFFFF" d="M195.3,253.6c16.3-1.5,32.6-2.9,48.9-4.4"/>
				<path fill="#BDCFEA" d="M195.3,253.5c0,0,0.2-0.1,0.5-0.2c0.4-0.1,0.9-0.3,1.5-0.4c1.3-0.3,3.2-0.8,5.5-1.3
					c1.1-0.2,2.4-0.5,3.7-0.7c1.3-0.2,2.7-0.5,4.1-0.6c1.4-0.2,2.9-0.4,4.4-0.6c1.5-0.2,3-0.3,4.6-0.5c1.5-0.1,3.1-0.2,4.6-0.3
					c1.5-0.1,3-0.1,4.4-0.2c1.4-0.1,2.8-0.1,4.2-0.1c1.3,0,2.6,0,3.7,0c2.3,0,4.2,0.2,5.6,0.3c0.7,0,1.2,0.1,1.6,0.2
					c0.4,0,0.6,0.1,0.6,0.1l0,0.2c0,0-12.2,1.2-24.4,2.3c-12.2,1-24.4,2.1-24.4,2.1L195.3,253.5z"/>
			</g>
			<g>
				<path fill="#FFFFFF" d="M176.3,237.6c3-3.9,6.1-7.9,9.1-11.8"/>
				<path fill="#BDCFEA" d="M176.2,237.5c0,0,0-0.1,0-0.2c0-0.1,0-0.3,0.1-0.6c0.1-0.5,0.2-1.1,0.4-1.8c0.4-1.4,1.3-3.1,2.4-4.6
					c1.1-1.5,2.5-2.7,3.8-3.5c0.6-0.4,1.2-0.7,1.6-0.9c0.2-0.1,0.4-0.1,0.5-0.2c0.1,0,0.2-0.1,0.2-0.1l0.2,0.1c0,0-0.5,0.8-1.4,1.9
					c-0.8,1.1-2,2.6-3.1,4.1c-1.2,1.5-2.3,2.9-3.2,4c-0.9,1.1-1.5,1.8-1.5,1.8L176.2,237.5z"/>
			</g>
			<g>
				<path fill="#FFFFFF" d="M157.7,240.3c0.8-2.6,1.6-5.2,2.4-7.8"/>
				<path fill="#BDCFEA" d="M157.6,240.3c0,0,0,0-0.1-0.1c0-0.1-0.1-0.2-0.2-0.3c-0.2-0.3-0.3-0.7-0.5-1.1c-0.3-0.9-0.3-1.9,0-2.9
					c0.3-1,0.9-1.8,1.6-2.4c0.3-0.3,0.7-0.5,1-0.7c0.1-0.1,0.3-0.1,0.4-0.2c0.1,0,0.1-0.1,0.1-0.1l0.2,0.1c0,0-0.1,0.5-0.3,1.2
					c-0.2,0.7-0.5,1.7-0.8,2.7c-0.3,1-0.6,1.9-0.9,2.6c-0.2,0.7-0.4,1.2-0.4,1.2L157.6,240.3z"/>
			</g>
			<g>
				<path fill="#FFFFFF" d="M242.5,211.8c6.6-7.6,13.1-15.1,19.7-22.7"/>
				<path fill="#BDCFEA" d="M242.5,211.8c0,0,0-0.1,0.1-0.3c0.1-0.2,0.2-0.5,0.4-0.9c0.4-0.8,0.9-1.8,1.7-3.1
					c0.4-0.6,0.8-1.3,1.2-1.9c0.5-0.7,0.9-1.4,1.5-2.1c0.5-0.7,1-1.5,1.6-2.2c0.6-0.7,1.2-1.4,1.8-2.2c0.6-0.7,1.3-1.4,1.9-2.1
					c0.6-0.7,1.3-1.3,1.9-1.9c0.6-0.6,1.3-1.2,1.9-1.7c0.6-0.6,1.2-1,1.8-1.5c1.1-0.9,2.1-1.6,2.8-2.1c0.3-0.2,0.7-0.4,0.8-0.5
					c0.2-0.1,0.3-0.2,0.3-0.2l0.2,0.2c0,0-4.9,5.7-9.7,11.4c-5,5.6-9.9,11.3-9.9,11.3L242.5,211.8z"/>
			</g>
			<g>
				<path fill="#FFFFFF" d="M297.3,183.8c17.9-13.6,32.1-32.2,40.4-53.2"/>
				<path fill="#BDCFEA" d="M297.3,183.7c0,0,0.2-0.2,0.5-0.6c0.3-0.4,0.8-0.9,1.5-1.6c1.4-1.3,3.1-3.2,5.3-5.5
					c1.1-1.1,2.2-2.4,3.4-3.7c0.6-0.7,1.2-1.3,1.8-2.1c0.6-0.7,1.3-1.4,1.9-2.2c1.3-1.5,2.5-3,3.8-4.6c1.3-1.6,2.6-3.2,3.8-4.9
					c1.2-1.7,2.5-3.3,3.7-5c1.2-1.7,2.3-3.3,3.4-4.9c1-1.7,2.1-3.2,3.1-4.7c0.9-1.5,1.9-3,2.7-4.3c0.8-1.4,1.6-2.6,2.2-3.7
					c0.7-1.1,1.2-2.1,1.7-2.9c0.4-0.8,0.8-1.4,1.1-1.9c0.3-0.4,0.4-0.7,0.4-0.7l0.2,0.1c0,0-0.4,1-1.1,2.7c-0.3,0.9-0.8,1.9-1.3,3.1
					c-0.5,1.2-1.1,2.5-1.9,3.9c-0.7,1.4-1.5,2.9-2.4,4.5c-0.9,1.6-1.9,3.2-2.9,5c-1.1,1.7-2.1,3.4-3.3,5.1c-1.1,1.7-2.4,3.4-3.7,5.1
					c-1.3,1.7-2.6,3.3-4,4.9c-1.3,1.6-2.7,3.1-4.1,4.6c-1.4,1.4-2.7,2.8-4,4.1c-1.3,1.3-2.5,2.5-3.7,3.5c-1.2,1.1-2.3,2-3.3,2.8
					c-1,0.8-1.8,1.6-2.6,2.1c-1.5,1.1-2.3,1.8-2.3,1.8L297.3,183.7z"/>
			</g>
			<g>
				<path fill="#FFFFFF" d="M244.6,187.5c-17.2,22-35.2,44.6-59.9,57.7"/>
				<path fill="#BDCFEA" d="M244.8,187.7c0,0-0.1,0.3-0.4,0.9c-0.3,0.6-0.6,1.4-1.2,2.4c-0.5,1-1.2,2.3-2,3.7
					c-0.4,0.7-0.8,1.5-1.3,2.3c-0.4,0.8-1,1.6-1.5,2.4c-0.5,0.8-1.1,1.7-1.6,2.6c-0.6,0.9-1.2,1.8-1.8,2.8c-1.3,1.9-2.6,3.9-4.2,5.8
					c-1.6,1.9-3.1,4-4.8,6c-1.7,2-3.5,4-5.3,5.9c-1.9,1.9-3.8,3.8-5.8,5.5c-1.9,1.8-4,3.4-6,5c-2,1.5-4,2.9-6,4.2
					c-1,0.6-1.9,1.2-2.9,1.8c-0.9,0.6-1.9,1-2.8,1.5c-0.9,0.5-1.7,0.9-2.6,1.3c-0.8,0.4-1.7,0.7-2.4,1c-0.8,0.3-1.4,0.6-2.1,0.9
					c-0.7,0.3-1.3,0.4-1.8,0.6c-1.1,0.4-2,0.6-2.6,0.8c-0.6,0.2-0.9,0.3-0.9,0.3l-0.2-0.4c0,0,1.1-0.7,3.1-1.8
					c1-0.6,2.2-1.3,3.5-2.2c0.7-0.4,1.4-0.9,2.1-1.4c0.7-0.5,1.5-1.1,2.3-1.6c0.8-0.6,1.6-1.1,2.5-1.8c0.8-0.6,1.7-1.3,2.6-2
					c0.9-0.7,1.8-1.4,2.7-2.2c0.9-0.8,1.8-1.5,2.8-2.3c1.8-1.6,3.7-3.3,5.6-5.1c1.9-1.8,3.7-3.6,5.5-5.5c1.8-1.9,3.6-3.8,5.3-5.7
					c1.7-1.9,3.4-3.8,5-5.7c1.6-1.9,3.1-3.7,4.6-5.4c1.4-1.7,2.8-3.4,4-4.9c4.9-6.1,8.2-10.2,8.2-10.2L244.8,187.7z"/>
			</g>
			<g>
				<g>
					<path fill="#929EB1" d="M140.4,256.4c2.8,3.6,6.1,6.9,8.6,10.7c2.6,3.9,4.8,8.2,6.9,12.4c2,4.3,3.8,8.6,5.2,13.1
						c1.4,4.5,1.8,9.3,3.2,13.8c0.6,2.1,3.8,1.7,3.8-0.5c0-4.7-1.7-9.9-3.1-14.4c-1.5-4.7-3.4-9.2-5.7-13.6c-2.3-4.2-5-8-8-11.7
						c-3.1-3.8-6.1-7.8-10.1-10.7C140.7,255.4,140.1,256,140.4,256.4L140.4,256.4z"/>
				</g>
			</g>
			<g>
				<g>
					<path fill="#929EB1" d="M140.9,254.7c4.1,1.8,8.2,3.3,12.1,5.6c3.9,2.4,7.9,4.9,11.5,7.7c3.7,2.8,7.1,5.8,10.3,9.1
						c1.6,1.6,3.1,3.3,4.5,5c1.5,1.8,2.7,3.9,4.4,5.5c1.5,1.5,3.6-0.4,2.8-2.2c-1.8-4-5.6-7.7-8.7-10.8c-3.3-3.4-7-6.5-10.9-9.2
						c-3.8-2.7-7.7-5-12-6.7c-4.4-1.8-9.1-3.8-13.8-4.6C140.8,253.9,140.5,254.5,140.9,254.7L140.9,254.7z"/>
				</g>
			</g>
			<g>
				<g>
					<path fill="#929EB1" d="M142,255.1c4.8,1.9,9.4,4.6,13.2,8.1c1.8,1.7,3.4,3.5,4.8,5.5c1.4,2,2.2,4.5,3.8,6.4
						c0.8,1,2.7,0.2,2.6-1.1c-0.5-5.1-5.3-10.3-8.9-13.6c-4.2-3.7-9.3-6.3-14.9-7.2C141.2,253,140.8,254.6,142,255.1L142,255.1z"/>
				</g>
			</g>
			<g>
				<g>
					<path fill="#929EB1" d="M137.4,252.9c1.7,5,3.2,9.9,3.7,15.2c0.5,5.1,0.2,10.1-0.5,15.2c-0.3,1.9,2.9,2.3,3.3,0.4
						c2.3-10.3,0.8-22.6-4.4-31.8C138.9,250.8,137,251.6,137.4,252.9L137.4,252.9z"/>
				</g>
			</g>
			<g>
				<path fill="#FFFFFF" d="M153.5,249.6c29.2-0.4,38.2-8.6,66.2-17s76.9-17,105.5-10.9"/>
				<path fill="#BDCFEA" d="M153.5,249.3c0,0,0.7,0,2-0.1c1.3-0.1,3.2-0.2,5.5-0.4c2.4-0.2,5.3-0.6,8.5-1.2c0.8-0.1,1.7-0.3,2.5-0.5
					c0.9-0.2,1.7-0.4,2.7-0.6c0.9-0.2,1.8-0.4,2.8-0.7c0.9-0.3,1.9-0.5,2.9-0.8c7.8-2.3,16.6-6.2,26.2-9.9c4.8-1.8,9.9-3.6,15.1-5.2
					c5.2-1.6,10.6-3,15.9-4.3c5.4-1.3,10.8-2.5,16.1-3.5c5.3-1,10.6-1.8,15.8-2.5c5.1-0.6,10.1-1,14.9-1.3c4.8-0.2,9.2-0.4,13.4-0.3
					c4.2,0,8,0.3,11.3,0.6c3.4,0.3,6.3,0.7,8.7,1.2c1.2,0.2,2.3,0.4,3.2,0.6c0.9,0.2,1.7,0.4,2.3,0.6c1.2,0.3,1.9,0.5,1.9,0.5
					l-0.1,0.5c0,0-0.7-0.1-2-0.2c-0.6-0.1-1.4-0.1-2.4-0.2c-0.9-0.1-2-0.2-3.2-0.2c-2.4-0.2-5.3-0.2-8.6-0.2
					c-3.3,0-7.1,0.1-11.1,0.4c-4.1,0.3-8.5,0.6-13.1,1.1c-4.7,0.5-9.5,1.1-14.6,1.9c-5.1,0.7-10.3,1.6-15.6,2.5
					c-5.3,0.9-10.6,1.9-16,3c-5.3,1.1-10.7,2.4-15.8,3.8c-2.6,0.7-5.1,1.4-7.7,2.2c-2.5,0.8-5,1.5-7.4,2.4c-4.9,1.6-9.5,3.3-14,4.9
					c-4.5,1.6-8.8,2.9-12.8,3.9c-1,0.3-2,0.5-3,0.7c-1,0.2-1.9,0.4-2.9,0.6c-0.9,0.2-1.8,0.3-2.7,0.5c-0.9,0.1-1.8,0.2-2.6,0.3
					c-1.7,0.2-3.2,0.3-4.7,0.5c-1.4,0.1-2.8,0.2-4,0.2c-2.4,0.1-4.3,0.1-5.6,0.1c-1.3,0-2,0-2,0L153.5,249.3z"/>
			</g>
		</g>
		<g>
			<path fill="#AAC5B2" stroke="#748B79" stroke-width="2.0491" stroke-miterlimit="10" d="M137.7,385.7l-85.4-24.3
				c-4.2-1.2-5.9-5.2-3.2-7.7l24.1-22.3c4-3.7,10.7-4.9,16.9-3.2l79.3,22.5c4.2,1.2,5.9,5.2,3.2,7.7l-28,25.9
				C142.9,385.9,140.2,386.4,137.7,385.7z"/>

				<text transform="matrix(0.8911 0.2532 -0.7347 0.6784 62.5799 350.5717)" fill="#748B79" font-family="'Chalkboard-Bold'" font-size="29.2274">0.0001</text>
		</g>
	</g>
</g>
</svg>
