<?xml version="1.0" encoding="utf-8"?>
<!-- Generator: Adobe Illustrator 18.1.1, SVG Export Plug-In . SVG Version: 6.00 Build 0)  -->
<svg version="1.1" id="Layer_1" xmlns="http://www.w3.org/2000/svg" xmlns:xlink="http://www.w3.org/1999/xlink" x="0px" y="0px"
	 viewBox="0 0 500 500" enable-background="new 0 0 500 500" xml:space="preserve">
<g>
	<defs>
		<rect id="SVGID_1_" x="0" width="500" height="500"/>
	</defs>
	<clipPath id="SVGID_2_">
		<use xlink:href="#SVGID_1_"  overflow="visible"/>
	</clipPath>
	<g clip-path="url(#SVGID_2_)">
		<rect x="0" fill="#F4E0A5" width="500" height="500"/>
		<path fill="#C3996B" stroke="#8E6944" stroke-width="3.4173" stroke-miterlimit="10" d="M484.5,229.6c-0.3-6.7-0.5-13.4-0.2-20.1
			c0.7-18.9,4.2-37.6,7.7-56.2c6.6-34.9,30.8-121.7,47.3-153.3c-75.8,0-149.9,0-149.9,0c-6.2,26.1-30.2,103.3-39.3,128.5
			c-6.1,16.8-13.5,33.5-25.7,46.5c-11.6,12.4-26.8,20.6-41.8,28.7c-32.4,17.4-64.9,34.9-97.3,52.3c-13.3,7.1-26.6,14.3-41,18.8
			c-30.7,9.6-65.2,6.2-93.3-9.6c-13.3-0.8-27,7.9-31.2,20.7c-4.8,14.8,4.2,32.7,19,37.7c0,0,3,1,6.1,2.1c-0.8,0.1-1.6,0.3-1.6,0.3
			c-8,1.4-12.5,11.5-9.5,19.1c3,7.6,11.4,12,19.6,12.1c7.4,0.1,14.6-2.9,20.9-6.9c-5,7.8-3.1,19.4,4.3,25.2
			c7.6,5.9,19.9,4.6,26.1-2.9c1.4,8.5,8.2,15.6,16.5,17.6c6.5,1.6,13.8,0,19.1-4.2c2,9.3,12.5,15.1,22.2,15.3
			c10.1,0.1,19.7-4.3,29.1-8c28.7-11.2,59.8-16.4,90.6-14.9c25.9,1.2,51.3,6.9,76.9,10.3c25.7,3.4,52.3,4.3,76.9-3.7
			c22.2-7.3,42.6-23.1,51.5-44.4C495,304.8,486.4,266.9,484.5,229.6z"/>
		<path fill="#C3996B" stroke="#8E6944" stroke-width="3.4173" stroke-miterlimit="10" d="M269,364.8c35.8-2,72.4-4.3,105.2-18.9"/>
		<path fill="#C3996B" stroke="#8E6944" stroke-width="3.4173" stroke-miterlimit="10" d="M389.4,270.6c8.8-2.8,18.1-3.2,26.9-6
			c19.4-6.2,34.1-25,35.4-45.3"/>
		<path fill="#C3996B" stroke="#8E6944" stroke-width="3.4173" stroke-miterlimit="10" d="M45,325.6c10.9-12.6,28.5-22.7,44.9-25.3"
			/>
		<path fill="#C3996B" stroke="#8E6944" stroke-width="3.4173" stroke-miterlimit="10" d="M72.1,354.5c5.1-17.1,24-26.8,40.2-34.2"
			/>
		<path fill="#C3996B" stroke="#8E6944" stroke-width="3.4173" stroke-miterlimit="10" d="M105.1,374.4c-0.6-19,20-31,38.9-35.8"/>
		<path fill="#C3996B" stroke="#8E6944" stroke-width="3.4173" stroke-miterlimit="10" d="M140.9,388.2c-3.3-17.5,18.2-32.6,36.9-35
			"/>
	</g>
</g>
</svg>
