<?xml version="1.0" encoding="utf-8"?>
<!-- Generator: Adobe Illustrator 18.1.1, SVG Export Plug-In . SVG Version: 6.00 Build 0)  -->
<svg version="1.1" id="Layer_1" xmlns="http://www.w3.org/2000/svg" xmlns:xlink="http://www.w3.org/1999/xlink" x="0px" y="0px"
	 viewBox="0 0 500 500" enable-background="new 0 0 500 500" xml:space="preserve">
<symbol  id="New_Symbol" viewBox="-11.3 -17.5 22.7 35.1">
	<path fill="#819A48" d="M5.1-4.3v0.2l0,0.1c1.2,2.2,2,6.1,2.1,7.5c0,0.3,0,0.6,0,0.9c0,0,0,0,0,0.1C6.8,6.9,4.4,9,1,10
		c0.8,0.7,1.4,1.6,1.5,2.7c0.2,2.4-1.9,4.6-4.6,4.8C-5,17.8-7.4,16-7.6,13.6c0-0.1,0-0.2,0-0.3l-2.8-3.9l3.8,0.3
		c-2.7-0.9-4.5-2.8-4.7-5c-0.2-2.3,2.4-10,6.1-9.6l0.3-0.4l-0.3-1.5l0.9-10.7L11.3-15L5.1-4.3z"/>
</symbol>
<g>
	<g>
		<defs>
			<rect id="SVGID_1_" x="0" width="500" height="500"/>
		</defs>
		<clipPath id="SVGID_2_">
			<use xlink:href="#SVGID_1_"  overflow="visible"/>
		</clipPath>
		<g clip-path="url(#SVGID_2_)">
			<rect x="-1.7" y="-51.3" fill="#C0DB86" width="510.1" height="583.2"/>

				<path fill="#F1CC7D" stroke="#BB914A" stroke-width="1.8469" stroke-linecap="round" stroke-linejoin="round" stroke-miterlimit="10" d="
				M129.2,290.7c5.3,2.4-1.9,13.8,3.4,16.1c29.9-12.2,70.8-41.6,89-69.4c0,0,1.2-1.9,2.4-3.7c0.1-0.1,0.1-0.2,0.1-0.2
				c4.3-7.5,10.9-14.5,16.1-21.3c3.3-1.5,7-4.9,9.6-7.6c2.2-2.2,3.7-5.1,4.3-8.2c3.3-18.9-2.5-32-7-32.7
				c5.8-6.8,31.4-14.6,33.1-20.1c0.6-2.1-0.3-4.3-2-5.5c-1.2-0.8-2.4-1.2-3.7-1.3c-18.2,2.8-35.6,12.2-48.4,26.2
				c-12.3,13.5-20.4,31-22.5,49.2c-10.6,14.1-24,25.9-39,34.5c-21.1,14.1-44.6,24-69,29.1C106.8,280.8,118,285.8,129.2,290.7z"/>
			<g>

					<path fill="#3BC2EC" stroke="#2188B7" stroke-width="1.5144" stroke-linecap="round" stroke-linejoin="round" stroke-miterlimit="10" d="
					M141.7,315.2c0.2,4.9,0.1,9.9-0.3,14.9c-16.9,6.1-40.9,14.2-85.2,13.7c-14.7-20.1,1.1-44.2-19.5-57.1
					c27.2-3.3,54.6-13.8,79.4-30.3C131.3,270.5,140.5,291.9,141.7,315.2z"/>

					<path fill="#3BC2EC" stroke="#2188B7" stroke-width="1.5144" stroke-linecap="round" stroke-linejoin="round" stroke-miterlimit="10" d="
					M119.3,259.6c8.9,9.5,15.5,21.6,19.1,35.1l-15.8,8.2L104,270.3L119.3,259.6z"/>
				<path fill="#3BC2EC" d="M116.7,258c6.4,4.7,22.6,32.5,22,42.6l-16.5,6.2l-21.3-39.7L116.7,258z"/>
			</g>
			<g>
				<path fill="#819A48" d="M309.9,52.4l0.9-0.1c-0.1-0.1-0.2-0.2-0.2-0.2C310.3,52.2,310.1,52.3,309.9,52.4z"/>

					<use xlink:href="#New_Symbol"  width="22.7" height="35.1" x="-11.3" y="-17.5" transform="matrix(1.9231 0 0 -1.9231 360.3782 66.9823)" overflow="visible"/>

					<use xlink:href="#New_Symbol"  width="22.7" height="35.1" x="-11.3" y="-17.5" transform="matrix(1.8418 0.1239 0.1239 -1.8418 324.0368 69.8283)" overflow="visible"/>
				<path fill="#819A48" d="M509.7,61.9c-16.2,2.9-32.1,8-46.7,15.7l-7-8.3c0,0,18.2-17.6,28.8-21.8c0,0-54.2,4.2-81.4,22.3
					c-10.7,7.1-26.6,11.6-42.5,14.2c-2.4,0.4-4.7,0.7-7,1c-0.8,0.1-1.6,0.2-2.4,0.3c-5.8,0.7-11.5,1.2-16.7,1.5
					c-2,0.1-4,0.2-5.8,0.2c-11,0.3-19.3-0.3-21.8-1.3l-0.3-8.9l-0.1-1.4c0,0,0.4,0,1.1,0c0.7,0,1.5,0,2.7-0.1
					c2.8-0.1,7.1-0.4,12.3-1c1.1-0.1,2.3-0.3,3.5-0.4c5.1-0.7,10.8-1.6,16.9-3c1.2-0.3,2.4-0.6,3.7-0.8c7.8-1.9,16.1-4.5,23.9-8.1
					c6.7-3,13.2-6.7,18.8-11.2c9.4-7.5,28-15.5,47.2-22.1c-2.4-3.5-3.9-6.7-3.9-6.7c-30.9,14.9-42.4,2.2-46.3-6
					c-4,2.4-9.3,4.9-16.3,6.9c-12.6,3.6-28.6,0.7-28.6,0.7C329,39.2,320,27.7,320,27.7s-17.7,10.5-24.6,10.5
					c-5.1,0-7.7-11.5-7.7-11.5c-19.1,21.7-36,15.5-36,15.5c1.3,10.6-22,14.1-22,14.1c-5.5-8.9,0.6-19.4,0.6-19.4
					c-13,4.9-23-11.5-23-11.5c-3.2,8.9-10.8,14.4-16.9,16.3c-6.1,1.9-7.3-4.8-7.3-4.8s-42,10.2-47.2,3.8c0,0,4.7-4.8,10-9.8
					c-9.6,0.2-19.6-1-28.4-5.1c0,0,0.2-12.8,15.1-19.2c6.2-2.6,12.7-4.6,19-6c-12-0.7-16.9-17-16.9-17c-5.3,7.8-14.1,11.2-20.5,11.5
					c-6.4,0.3-5.9-6.5-5.9-6.5s-43.3-0.7-46.7-8.2c0,0,20.5-12.5,27.4-14c50.5-10.8,205.9,18.3,205.9,18.3l0.8,0.8l42.7,2.5
					c14.9-1.3,24.3-2,24.3-2l6.9,3.8L505.7-2L509.7,61.9z"/>
			</g>

				<path fill="#3BC2EC" stroke="#2188B7" stroke-width="1.7479" stroke-linecap="round" stroke-linejoin="round" stroke-miterlimit="10" d="
				M117.7,329.9c-8.3-27.4-25.7-53.9-52.5-63.9c-9.8-3.7-20.8-4.9-30.9-1.9c-11.4,3.4-20.5,11.9-27.9,21.2
				c-23.5,29.5-32.1,68.3-35,105.9c-3.5,46.8,0.9,94.2,13.1,139.6c30.7,6.2,61.6,11.8,92.8,13.5c31.9,1.8,64.4-0.5,94.8-9.9
				c-20.9-35.5-34.9-75-41-115.8c-4.3-28.9-4.8-58.6-12.8-86.7C118,331.2,117.9,330.6,117.7,329.9z"/>

				<path fill="#F1CC7D" stroke="#BB914A" stroke-width="1.7479" stroke-linecap="round" stroke-linejoin="round" stroke-miterlimit="10" d="
				M88.7,295.7c-0.6,1.4-1.1,2.8-1.7,4.1c-11.8,4.9-24.9,6.6-37.6,4.9c-15.7-2.2-30.6-9.9-41.7-21.3c0.6-7.9,1.1-15.7,1.7-23.6
				c30-4.6,61.4-0.8,89.4,11C95.4,279.1,92.1,287.4,88.7,295.7z"/>

				<ellipse transform="matrix(-0.9294 0.369 -0.369 -0.9294 202.0789 371.7206)" fill="#F1CC7D" stroke="#BB914A" stroke-width="1.7479" stroke-linecap="round" stroke-linejoin="round" stroke-miterlimit="10" cx="65.5" cy="205.2" rx="88" ry="84"/>

				<path fill="#F1CC7D" stroke="#BB914A" stroke-width="1.899" stroke-linecap="round" stroke-linejoin="round" stroke-miterlimit="10" d="
				M-2.9,393.4c12.4,1.3,24.8,1.5,37.2,0.6c-3.1,51.8,0.9,104.4,11.8,155.1c-10.3,1.2-20.8,0.5-31-2C-1.2,497.7-9.9,445-10.3,392.5
				C-7.8,392.8-5.4,393.1-2.9,393.4z"/>

				<path fill="#3BC2EC" stroke="#2188B7" stroke-width="1.7479" stroke-linecap="round" stroke-linejoin="round" stroke-miterlimit="10" d="
				M41.3,325.5c10,22.6,16.7,46.6,19.9,71.2c-28.9,11.4-61.6,13.3-91.7,5.2c-4.2-28.5,0.2-58.4,12.8-84.4
				c5.4-11.1,14-22.7,26.4-23.3c7.1-0.3,14,3.3,19,8.4c5,5.1,8.4,11.5,11.4,18C39.8,322.1,40.6,323.8,41.3,325.5z"/>

				<path fill="#F1CC7D" stroke="#BB914A" stroke-width="1.7479" stroke-linecap="round" stroke-linejoin="round" stroke-miterlimit="10" d="
				M76.8,186.8c0.2-6.5,3-12.9,7.6-17.4"/>

				<path fill="#6E3D45" stroke="#BB914A" stroke-width="1.7479" stroke-linecap="round" stroke-linejoin="round" stroke-miterlimit="10" d="
				M136.1,228.8c-8.8,6.6-26.3,6.9-37.3,7.5c0,0,0.4,19.1,13.3,18C125,253.4,136.1,228.8,136.1,228.8z"/>

				<path fill="#0F113D" stroke="#244E6B" stroke-width="1.7479" stroke-linecap="round" stroke-linejoin="round" stroke-miterlimit="10" d="
				M110.2,129c-0.7-0.2-1.4-0.4-2.1-0.6c6.7,3.5,12.6,8.3,17.4,14.2c-6.6-1.1-13.5-0.3-19.6,2.3c-7.6-6.5-16.7-11.4-26.4-14.2
				c8.5,5.3,15.7,12.8,20.5,21.5c-19.2,10.5-36.6,24.3-51.3,40.5c-6.4-10.5-11.2-21.9-14.1-33.9c-1.6,20.7,1.5,41.7,9,61
				c-4.5,3.3-9.1,6.5-13.6,9.8c-2.6,10.8-5.3,21.7-7.9,32.5c1.4,6.5,3.3,12.9,5.5,19.1c-19.3-2.7-37.5-12.7-50-27.7
				c-4.1-0.4-8.2-0.7-12.4-1c-12-35.2-5.7-76.1,16.4-106.1c-4.9,3.9-11.3,6-17.5,5.5c6.6-8.9,16.4-15.3,27.2-17.7
				c-3.2-2.4-6.4-4.7-9.5-7.1c6.5-2.3,14.3-0.6,19,4.6c-0.4-3.4-0.7-6.8-1.1-10.1c3.1,0.6,6,2.3,8.1,4.6
				c41.3-20.8,94.7-14.6,130.2,15c-1.6,0.6-3.3,0.9-4.9,0.9C126.7,136,118.8,131.5,110.2,129z"/>

				<path fill="#0F113D" stroke="#244E6B" stroke-width="1.7479" stroke-linecap="round" stroke-linejoin="round" stroke-miterlimit="10" d="
				M1.5,188.6c-3.8-16.3-0.5-34.1,9-47.9"/>

				<path fill="#0F113D" stroke="#244E6B" stroke-width="1.7479" stroke-linecap="round" stroke-linejoin="round" stroke-miterlimit="10" d="
				M68.1,174.3c-2.5-7-6.4-13.5-11.4-19.1"/>

				<path fill="#0F113D" stroke="#244E6B" stroke-width="1.7479" stroke-linecap="round" stroke-linejoin="round" stroke-miterlimit="10" d="
				M78.9,166.1c-4.7-8.2-11-15.5-18.2-21.5"/>

				<path fill="#0F113D" stroke="#244E6B" stroke-width="1.7479" stroke-linecap="round" stroke-linejoin="round" stroke-miterlimit="10" d="
				M112.1,141.6c-4.5-4.2-9.7-7.5-15.3-9.9"/>

				<ellipse transform="matrix(-0.9294 0.369 -0.369 -0.9294 258.0926 347.571)" fill="#231F20" cx="95.8" cy="198.5" rx="5.7" ry="12.2"/>

				<path fill="#F1CC7D" stroke="#BB914A" stroke-width="1.4565" stroke-linecap="round" stroke-linejoin="round" stroke-miterlimit="10" d="
				M130,161.6c-3.9-4.9-8.8-8.2-13.6-9"/>

				<ellipse transform="matrix(0.9294 -0.369 0.369 0.9294 -57.3272 61.6658)" fill="#231F20" cx="132.6" cy="180.7" rx="4.3" ry="12.2"/>

				<path fill="#F1CC7D" stroke="#BB914A" stroke-width="1.7479" stroke-linecap="round" stroke-linejoin="round" stroke-miterlimit="10" d="
				M33.5,267C20,265.2,7.7,256.5,1.3,244.5c-2.2-4.2-3.7-8.9-3.6-13.7c0.2-4.8,2.1-9.6,5.9-12.5c4.4-3.4,10.5-3.8,15.8-2.1
				c5.3,1.7,9.7,5.3,13.6,9.2"/>

				<path fill="#F1CC7D" stroke="#BB914A" stroke-width="1.7479" stroke-linecap="round" stroke-linejoin="round" stroke-miterlimit="10" d="
				M131.8,217c6.1,1,12.6-3,14.6-8.8c2-5.8-0.4-12.9-5.6-16.3c-5.2-3.4-12.5-3-17.3,0.9"/>
			<g>
				<g>

						<line fill="none" stroke="#231F20" stroke-width="3.8954" stroke-linecap="round" stroke-linejoin="round" x1="146.2" y1="174.6" x2="152.8" y2="170.5"/>

						<line fill="none" stroke="#231F20" stroke-width="3.8954" stroke-linecap="round" stroke-linejoin="round" stroke-dasharray="14.3451,14.3451" x1="164.9" y1="162.9" x2="280.4" y2="90.5"/>

						<line fill="none" stroke="#231F20" stroke-width="3.8954" stroke-linecap="round" stroke-linejoin="round" x1="286.5" y1="86.7" x2="293.1" y2="82.6"/>
				</g>
			</g>
		</g>
	</g>

		<path fill="#F1CC7D" stroke="#BB914A" stroke-width="1.8469" stroke-linecap="round" stroke-linejoin="round" stroke-miterlimit="10" d="
		M247.2,163.8c0,0-1.2,16.2-1.2,26.4c0,11.2,3,19.4-15.6,34.3"/>

		<path fill="#F1CC7D" stroke="#BB914A" stroke-width="1.7217" stroke-linecap="round" stroke-linejoin="round" stroke-miterlimit="10" d="
		M233.7,183.3c0,0,9.5-16.1,17-19.2c7.5-3,13.9,10.3-4.9,36.9"/>
</g>
</svg>
