<?xml version="1.0" encoding="utf-8"?>
<!-- Generator: Adobe Illustrator 18.1.1, SVG Export Plug-In . SVG Version: 6.00 Build 0)  -->
<svg version="1.1" id="Layer_1" xmlns="http://www.w3.org/2000/svg" xmlns:xlink="http://www.w3.org/1999/xlink" x="0px" y="0px"
	 viewBox="0 0 500 500" enable-background="new 0 0 500 500" xml:space="preserve">
<symbol  id="New_Symbol" viewBox="-6.1 -6.1 12.3 12.3">
	<g>
		<path fill="#909092" stroke="#7A7A7B" stroke-width="1.5141" stroke-miterlimit="10" d="M2.3-4.9C-0.4-6.1-3.6-5-4.9-2.3
			C-6.1,0.4-5,3.6-2.3,4.9C0.4,6.1,3.6,5,4.9,2.3C6.1-0.4,5-3.6,2.3-4.9z"/>
		<line fill="#7A7A7B" stroke="#B7B7B7" stroke-width="1.5141" stroke-miterlimit="10" x1="-1.2" y1="2.6" x2="1.2" y2="-2.6"/>
	</g>
</symbol>
<g>
	<rect x="0" fill="#F4DC7A" width="500" height="500"/>
	<path fill="#7A7A7B" stroke="#B7B7B7" stroke-width="2.9117" stroke-miterlimit="10" d="M248.6,175.5l226.9,178.3
		c5.1,4,6.8,10.8,4.3,16.7l-27.4,64.3c0,0-6.1-3.3-8.7-10.2c0,0-4.6,5.6-16.6,6.5c0,0-7.1-7.1-6.6-13.9c0,0-8.5,4.5-17.3,3.7
		c0,0-5.5-5.5-5.9-16.5c0,0-4.9,3.6-15.5,4.7c0,0-5-5.2-6.5-16.8c0,0-10.3,6.7-16.6,4.1c0,0-6-6-7.8-14.6c0,0-6.5,2.6-12.6,3.4
		c0,0-2.6-1.7-7.3-11.5c0,0-7.9,4.1-18.8,1.2c0,0-4.6-8.5-5-12.8c0,0-7.1,4.7-15.3,1.6c0,0-2.5-0.7-6.9-11c0,0-8.6,4.7-16.3,1.1
		c0,0-5.4-7-6.4-12.2c0,0-10,4.2-16.4,2.4c0,0-6.3-6.4-7.1-11.8c0,0-11.5,3.4-16.9,1.5c0,0-4.4-3.2-5.4-13.1c0,0-4.5,3.8-13.1,2.9
		c0,0-8-3.7-8.5-13.3c0,0-12,7.7-16.1,3.2c0,0-3.9-2-7.2-13.1c0,0-11.4,6.6-17.2,3.5c0,0-6.2-7.7-6.8-13.1c0,0-10.8,4.8-14.3,1.5
		c0,0-3.2-5.7-5.5-11.7c0,0-11.4,4.6-17.7,2.5c0,0-7.1-9.5-7.2-14c0,0-13,1.6-18.3-0.3c0,0,4.4-15.2,32.2-58.5
		c10-15.6,63.4-39.8,63.4-39.8L248.6,175.5z"/>
	<g>
		<path fill="#7A7A7B" d="M160.9,127.1l296.2,234c4.3,3.2,5.7,9,3.6,13.9l-13.8,31.1"/>
		<path fill="#B7B7B7" d="M160.9,127.1c0,0,5.3,4.1,14.6,11.2c4.6,3.6,10.2,7.9,16.7,12.9c6.4,5,13.7,10.6,21.6,16.7
			c7.9,6.1,16.5,12.8,25.5,19.8c9,7.1,18.6,14.4,28.4,22.2c19.7,15.5,40.6,31.9,61.6,48.4c10.5,8.2,20.9,16.6,31.2,24.7
			c10.3,8.2,20.4,16.2,30.2,24c9.8,7.8,19.3,15.3,28.2,22.5c8.9,7.2,17.4,14,25.2,20.2c3.9,3.1,7.6,6.1,11.2,9
			c0.9,0.7,1.8,1.4,2.6,2.1c0.4,0.3,0.9,0.8,1.3,1.2l0.6,0.7l0.5,0.7c1.3,1.9,1.9,4.1,2,6.3c0.1,2.1-0.4,4.2-1.3,6
			c-0.8,1.7-1.6,3.4-2.3,5c-1.5,3.2-2.8,6.1-4,8.8c-2.5,5.3-4.4,9.5-5.7,12.3c-1.3,2.8-2,4.3-2,4.3s0.6-1.5,1.8-4.4
			c1.2-2.9,3-7.1,5.3-12.5c1.1-2.7,2.4-5.7,3.8-8.9c0.7-1.6,1.4-3.3,2.1-5.1c0.8-1.7,1.2-3.5,1-5.5c-0.1-1.9-0.8-3.8-1.9-5.5
			l-0.4-0.6l-0.5-0.6c-0.4-0.4-0.7-0.7-1.1-1c-0.9-0.7-1.8-1.4-2.6-2.1c-3.6-2.8-7.4-5.7-11.3-8.8c-7.9-6.1-16.5-12.8-25.5-19.8
			c-9.1-7-18.6-14.5-28.4-22.2c-9.8-7.7-20-15.7-30.3-23.8c-10.3-8.1-20.8-16.3-31.3-24.6c-20.9-16.6-41.8-33.2-61.4-48.7
			c-9.8-7.8-19.2-15.4-28.2-22.5c-8.9-7.2-17.4-14-25.2-20.2c-7.8-6.3-14.9-12-21.3-17.1c-6.3-5.1-11.8-9.6-16.4-13.2
			C166,131.4,160.9,127.1,160.9,127.1z"/>
	</g>
	<path fill="#FFCC05" stroke="#CA9731" stroke-width="2.9117" stroke-miterlimit="10" d="M246.6,166.2c-3.4-4.6-29.3-26.3-38.3-29.1
		c-7.4-2.3-13.6-7.2-17.8-13.7c-12.3-18.8-28.7-34.5-50.3-41c-26.1-7.8-28.5,4.6-28.7,10.6c-0.2,6,3.9,13.1,0,24.2
		C87.2,130.1,53,173.6,53,173.6c-59,4.1-21.9,33.4-21.9,33.4s14.2,14,61.7,36.7c1.6,0.7,11.2,1.2,21.4,1.4
		c16.3,0.3,32.3-4.8,45.5-14.4l18.4-13.4c8.5-6.2,18.6-9.6,29.1-9.9l4.1-0.1c7.9-0.2,15.2-3.9,20.1-10.1l15-19.3
		C249,174.3,249.1,169.7,246.6,166.2z M165.5,167.3c-6,4.3-13.3,6.2-20.1,9.3c-10,4.5-18.7,11.8-24.9,20.9
		c-5.1,7.4-10.3,17-19.2,17.1c-6.9,0.1-12.6-6.3-13.7-13.1c-1.2-6.8,1.3-13.7,4.4-19.8c11.2-21.7,33-37.6,57-41.7
		c4.5-0.8,9.2-1.2,13.6,0c4.4,1.1,8.6,4,10.3,8.2C175.8,155,171.5,163,165.5,167.3z"/>

		<use xlink:href="#New_Symbol"  width="12.3" height="12.3" x="-6.1" y="-6.1" transform="matrix(1.9231 0 0 -1.9231 136.6565 214.9534)" overflow="visible"/>

		<use xlink:href="#New_Symbol"  width="12.3" height="12.3" x="-6.1" y="-6.1" transform="matrix(-1.7154 0.8692 0.8692 1.7154 174.3421 187.9632)" overflow="visible"/>

		<use xlink:href="#New_Symbol"  width="12.3" height="12.3" x="-6.1" y="-6.1" transform="matrix(1.3528 1.3668 1.3668 -1.3528 213.3348 174.9768)" overflow="visible"/>
</g>
</svg>
