<?xml version="1.0" encoding="utf-8"?>
<!-- Generator: Adobe Illustrator 18.1.1, SVG Export Plug-In . SVG Version: 6.00 Build 0)  -->
<svg version="1.1" id="Layer_1" xmlns="http://www.w3.org/2000/svg" xmlns:xlink="http://www.w3.org/1999/xlink" x="0px" y="0px"
	 viewBox="0 0 500 500" enable-background="new 0 0 500 500" xml:space="preserve">
<g>
	<defs>
		<rect id="SVGID_1_" x="0" width="500" height="500"/>
	</defs>
	<clipPath id="SVGID_2_">
		<use xlink:href="#SVGID_1_"  overflow="visible"/>
	</clipPath>
	<g clip-path="url(#SVGID_2_)">
		<rect x="-156.6" y="-23.5" fill="#188B8B" width="867.7" height="587"/>
		<g opacity="0.5">
			<path fill="#B7D8C6" d="M25.8,390.4c0,0,0.5-1.7,2-4.7c1.5-3,3.8-7.4,7.5-12.4c3.7-5.1,8.6-10.9,14.9-16.9
				c6.3-6,13.8-12.5,22.8-18.4c1.1-0.8,2.2-1.5,3.4-2.2c1.2-0.7,2.3-1.5,3.5-2.2c1.2-0.8,2.4-1.5,3.6-2.3c1.2-0.7,2.5-1.4,3.7-2.1
				c2.5-1.4,5-3,7.7-4.4c2.7-1.4,5.4-2.8,8.1-4.2c2.7-1.5,5.6-2.7,8.4-4c1.4-0.7,2.9-1.3,4.3-2c0.7-0.3,1.5-0.7,2.2-1
				c0.7-0.3,1.5-0.6,2.2-0.9c6-2.5,12.1-5,18.4-7.1c3.2-1.1,6.3-2.3,9.6-3.3c3.3-1,6.5-2,9.8-3c6.6-2.2,13.4-3.7,20.1-5.6
				c3.4-0.9,6.8-1.6,10.3-2.4c3.5-0.8,6.9-1.5,10.4-2.3c1.7-0.4,3.5-0.7,5.2-1l5.3-1c3.5-0.7,7-1.3,10.5-2c7-1.2,14.1-2.1,21.1-3.2
				c1.8-0.3,3.5-0.5,5.3-0.7c1.8-0.2,3.5-0.4,5.3-0.6c3.5-0.4,7-0.8,10.5-1.2c1.7-0.2,3.5-0.4,5.2-0.6c1.7-0.2,3.5-0.3,5.2-0.5
				c3.5-0.3,6.9-0.5,10.3-0.8c3.4-0.3,6.8-0.5,10.2-0.8c3.4-0.2,6.7-0.3,10.1-0.5c3.3-0.2,6.6-0.3,9.9-0.5c3.3-0.2,6.5-0.4,9.7-0.4
				c6.4-0.1,12.7-0.2,18.8-0.3c3.1,0,6.1-0.1,9-0.1c3,0,5.9,0.1,8.8,0.1c5.7,0.1,11.3,0.1,16.6,0.2c10.7,0.1,20.4,0.7,29,1.1
				c8.6,0.3,16.2,1,22.4,1.4c6.2,0.4,11.1,0.9,14.4,1.1c3.3,0.3,5.1,0.4,5.1,0.4l0,0.5c0,0-7.1-0.3-19.5-0.7
				c-6.2-0.2-13.7-0.6-22.4-0.7c-4.3-0.1-8.9-0.1-13.8-0.2c-2.4,0-4.9-0.1-7.4-0.1c-1.3,0-2.6,0-3.9-0.1c-1.3,0-2.6,0-3.9,0
				c-5.3,0-10.9,0.1-16.6,0.2c-2.9,0-5.8,0.1-8.7,0.1c-3,0-6,0.2-9,0.3c-6.1,0.2-12.3,0.4-18.7,0.6c-6.4,0.3-12.9,0.8-19.5,1.1
				c-3.3,0.2-6.7,0.4-10,0.6c-3.4,0.3-6.7,0.6-10.1,0.9c-3.4,0.3-6.8,0.6-10.3,0.9c-1.7,0.2-3.4,0.3-5.2,0.5
				c-1.7,0.2-3.5,0.4-5.2,0.6c-3.5,0.4-6.9,0.8-10.4,1.3c-3.5,0.4-7,0.8-10.5,1.3c-7,1.1-14,2.1-21,3.2c-3.5,0.6-7,1.3-10.4,1.9
				l-5.2,1c-1.7,0.3-3.5,0.6-5.2,1c-3.4,0.8-6.9,1.5-10.3,2.3c-3.4,0.8-6.9,1.4-10.2,2.4c-3.4,0.9-6.7,1.7-10.1,2.6
				c-1.7,0.4-3.3,0.8-5,1.3c-1.6,0.5-3.3,1-4.9,1.5c-3.3,1-6.5,1.9-9.8,2.9c-3.2,1-6.4,2.1-9.5,3.2c-6.3,2-12.4,4.5-18.3,6.8
				c-0.7,0.3-1.5,0.6-2.2,0.9c-0.7,0.3-1.5,0.6-2.2,1c-1.4,0.6-2.9,1.3-4.3,1.9c-2.8,1.3-5.7,2.4-8.4,3.8c-2.7,1.3-5.4,2.7-8.1,4
				c-2.6,1.3-5.2,2.8-7.7,4.1c-1.3,0.7-2.5,1.4-3.7,2c-1.2,0.7-2.4,1.5-3.6,2.2c-1.2,0.7-2.3,1.4-3.5,2.1c-1.2,0.7-2.3,1.4-3.4,2.2
				c-2.2,1.5-4.3,2.9-6.5,4.4c-2.1,1.5-4,3-6,4.4c-2,1.4-3.7,3-5.5,4.4c-0.9,0.7-1.7,1.5-2.6,2.2c-0.8,0.7-1.6,1.5-2.4,2.2
				c-6.4,5.8-11.5,11.4-15.3,16.3c-3.8,4.9-6.3,9-7.9,12c-1.6,2.9-2.1,4.6-2.1,4.6L25.8,390.4z"/>
		</g>
		<g opacity="0.5">
			<path fill="#B7D8C6" d="M-3.9,369c0,0,0.9-1.7,2.9-4.7c2-3,5.1-7.3,9.7-12.2c4.5-5,10.4-10.7,17.5-16.8c0.9-0.8,1.8-1.5,2.7-2.3
				c0.9-0.8,1.9-1.6,2.9-2.3c2-1.5,4-3.1,6.1-4.7c4.3-3,8.8-6.3,13.7-9.3c4.8-3.2,10.1-6.1,15.4-9.3c2.7-1.5,5.5-3,8.3-4.5
				c1.4-0.8,2.8-1.6,4.3-2.3c1.5-0.7,2.9-1.4,4.4-2.2c11.8-6,24.7-11.4,38.1-16.6c3.4-1.2,6.8-2.4,10.3-3.7c1.7-0.6,3.5-1.2,5.2-1.9
				c1.7-0.6,3.5-1.1,5.3-1.7c3.5-1.1,7.1-2.3,10.7-3.4l2.7-0.8l2.7-0.8c1.8-0.5,3.6-1,5.5-1.5c3.6-1,7.3-2,11-3.1
				c3.7-0.9,7.4-1.8,11.1-2.7c3.7-0.9,7.4-1.9,11.2-2.7c3.7-0.8,7.5-1.6,11.3-2.4c3.8-0.8,7.5-1.6,11.3-2.3c3.8-0.7,7.5-1.3,11.3-2
				c3.8-0.7,7.5-1.3,11.3-2c3.8-0.6,7.5-1.1,11.2-1.7c3.7-0.5,7.5-1.1,11.2-1.6c3.7-0.5,7.4-0.9,11.1-1.3c3.7-0.4,7.3-0.8,10.9-1.2
				c3.6-0.4,7.2-0.9,10.8-1.1c7.2-0.6,14.2-1.3,21.1-1.8c3.4-0.3,6.9-0.4,10.2-0.6c3.4-0.2,6.7-0.4,10-0.5c13.1-0.8,25.6-1,37-1.4
				c2.9-0.1,5.7-0.2,8.4-0.2c2.7,0,5.4,0,8,0c5.2,0,10.2,0.1,14.8,0.1c2.3,0,4.6,0,6.8,0c1.1,0,2.2,0,3.2,0c1,0,2.1,0.1,3.1,0.1
				c4,0.1,7.7,0.2,11.1,0.3c6.7,0.2,11.9,0.4,15.5,0.5c3.6,0.1,5.5,0.2,5.5,0.2l0,0.5c0,0-7.6,0-21,0c-3.3,0-7,0-11.1,0
				c-1,0-2,0-3.1,0c-1,0-2.1,0.1-3.2,0.1c-2.2,0.1-4.4,0.1-6.7,0.2c-4.6,0.1-9.6,0.2-14.8,0.4c-2.6,0.1-5.3,0.1-8,0.2
				c-2.7,0.1-5.5,0.3-8.4,0.4c-11.4,0.6-23.8,1-36.9,2.1c-3.3,0.2-6.6,0.5-9.9,0.7c-3.4,0.3-6.8,0.4-10.2,0.8
				c-6.9,0.7-13.9,1.3-21,2c-3.6,0.3-7.1,0.8-10.7,1.2c-3.6,0.4-7.2,0.9-10.9,1.3c-3.6,0.5-7.3,0.8-11,1.4
				c-3.7,0.6-7.4,1.1-11.1,1.7c-3.7,0.6-7.4,1.1-11.2,1.7c-3.7,0.7-7.5,1.3-11.2,2c-3.7,0.7-7.5,1.4-11.2,2
				c-3.7,0.7-7.5,1.5-11.2,2.3c-3.7,0.8-7.5,1.6-11.2,2.3c-3.7,0.8-7.4,1.8-11.1,2.6c-3.7,0.9-7.4,1.8-11.1,2.7c-3.6,1-7.3,2-10.9,3
				c-14.5,3.9-28.5,8.5-42,13.3c-13.4,5-26.3,10.1-38,15.9c-1.5,0.7-3,1.4-4.4,2.1c-1.5,0.7-2.9,1.5-4.3,2.2
				c-2.8,1.5-5.6,2.9-8.4,4.3c-5.4,3-10.6,5.9-15.4,8.9c-4.9,2.9-9.4,6.1-13.8,9c-2.1,1.5-4.2,3-6.2,4.5c-1,0.7-2,1.5-2.9,2.2
				c-0.9,0.7-1.9,1.5-2.8,2.2c-7.3,5.8-13.2,11.3-17.9,16.1c-4.6,4.8-7.9,8.9-10,11.8c-2.1,2.9-3,4.5-3,4.5L-3.9,369z"/>
		</g>
		<g opacity="0.5">
			<path fill="#B7D8C6" d="M-21.7,359.9c0,0,0.1-0.4,0.3-1.2c0.2-0.8,0.6-1.9,1.2-3.4c1.2-2.9,3.2-7.1,6.5-12
				c3.3-4.9,7.8-10.5,13.6-16.3C5.6,321,12.8,315,21,309.2c2.1-1.4,4.1-3,6.4-4.4c2.2-1.4,4.5-2.9,6.8-4.3c1.1-0.8,2.3-1.4,3.5-2.1
				c1.2-0.7,2.4-1.4,3.6-2.1c1.2-0.7,2.5-1.4,3.7-2.1c1.2-0.7,2.5-1.3,3.8-2c2.6-1.3,5.2-2.7,7.8-4c2.7-1.3,5.4-2.5,8.1-3.8
				c1.4-0.6,2.8-1.3,4.1-1.9c1.4-0.7,2.8-1.2,4.3-1.8c2.9-1.2,5.7-2.4,8.7-3.6L84,276l2.2-0.8c1.5-0.6,3-1.1,4.5-1.7
				c3-1.1,6-2.3,9.1-3.4c6.1-2,12.3-4.2,18.7-6.1c3.2-0.9,6.3-1.9,9.5-2.8c1.6-0.5,3.2-0.9,4.8-1.4c1.6-0.5,3.2-0.9,4.8-1.3
				c3.2-0.8,6.5-1.7,9.7-2.5c3.2-0.8,6.5-1.7,9.8-2.4c3.3-0.7,6.5-1.5,9.8-2.2l4.9-1.1l2.4-0.5l2.5-0.5c6.5-1.3,13.1-2.5,19.5-3.8
				c13-2.2,25.8-4.3,38.2-5.9c12.4-1.8,24.5-2.9,35.9-4.1c11.4-1.2,22.3-1.8,32.2-2.6c10-0.7,19.2-1,27.3-1.4c2-0.1,4-0.2,5.9-0.3
				c1.9,0,3.7-0.1,5.5-0.1c3.5-0.1,6.7-0.2,9.7-0.2c5.8-0.2,10.4-0.2,13.5-0.2c3.1,0,4.8-0.1,4.8-0.1l0,0.5c0,0-6.7,0.4-18.3,1.1
				c-2.9,0.2-6.1,0.4-9.6,0.6c-1.8,0.1-3.6,0.2-5.5,0.3c-1.9,0.1-3.8,0.3-5.9,0.5c-8.1,0.7-17.2,1.3-27.2,2.2
				c-5,0.5-10.1,1-15.5,1.6c-2.7,0.3-5.4,0.5-8.2,0.8c-1.4,0.1-2.8,0.3-4.2,0.4c-1.4,0.2-2.8,0.3-4.2,0.5
				c-11.4,1.4-23.4,2.7-35.7,4.7c-12.4,1.7-25.1,4-38,6.2c-6.4,1.3-12.9,2.6-19.4,3.8l-2.4,0.5l-2.4,0.6l-4.9,1.1
				c-3.2,0.7-6.5,1.5-9.7,2.2c-3.3,0.7-6.5,1.5-9.7,2.4c-3.2,0.8-6.4,1.6-9.7,2.5c-1.6,0.4-3.2,0.8-4.8,1.3
				c-1.6,0.5-3.2,0.9-4.8,1.4c-3.2,0.9-6.3,1.8-9.5,2.7c-3.2,0.9-6.2,1.9-9.3,2.9c-3.1,1-6.2,2-9.2,3c-3,1-6,2.2-9,3.2
				c-1.5,0.5-3,1.1-4.5,1.6l-2.2,0.8l-2.2,0.9c-5.8,2.4-11.5,4.5-17,7.1c-2.7,1.2-5.5,2.4-8.1,3.7c-2.6,1.3-5.2,2.6-7.8,3.9
				c-1.3,0.6-2.6,1.2-3.8,1.9c-1.2,0.7-2.5,1.4-3.7,2c-1.2,0.7-2.4,1.3-3.6,2c-1.2,0.7-2.4,1.3-3.5,2c-2.3,1.4-4.6,2.8-6.8,4.1
				c-2.2,1.3-4.3,2.8-6.4,4.2c-8.2,5.6-15.5,11.3-21.3,16.9c-5.9,5.6-10.5,10.9-13.9,15.6c-3.4,4.7-5.6,8.7-6.9,11.6
				c-1.3,2.8-1.7,4.4-1.7,4.4L-21.7,359.9z"/>
		</g>

			<path fill="#CDCCCB" stroke="#28B19F" stroke-width="2.7445" stroke-linecap="round" stroke-linejoin="round" stroke-miterlimit="10" d="
			M30.9,279.1c0,0,115.9-121.5,411.4-72.2l14.6,7.9l-35.8,78.7l-108.5,42.9l-106.9,16l-121-12.3l-54.4-35.9L30.9,279.1z"/>

			<path fill="none" stroke="#B3B2B3" stroke-width="2.7445" stroke-linecap="round" stroke-linejoin="round" stroke-miterlimit="10" d="
			M168.4,217.8c0,0-1.6,49.5,8,71.5c10,22.8,45.8,50.9,45.8,50.9"/>
		<path fill="none" stroke="#B3B2B3" stroke-width="2.7445" stroke-miterlimit="10" d="M123.3,228.1c0,0,3,57.3,16.6,78.1
			c13.7,20.9,42.4,45.9,42.4,45.9"/>

			<path fill="none" stroke="#B3B2B3" stroke-width="2.7445" stroke-linecap="round" stroke-linejoin="round" stroke-miterlimit="10" d="
			M78.4,250c0,0,6.6,56.2,21.9,75.8c15.3,19.7,46,42.3,46,42.3"/>

			<path fill="none" stroke="#B3B2B3" stroke-width="2.7445" stroke-linecap="round" stroke-linejoin="round" stroke-miterlimit="10" d="
			M214.6,208c0,0-0.5,48.3,7,68.7c8.6,23.4,44,51.2,44,51.2"/>
		<path fill="none" stroke="#000000" stroke-width="2.7445" stroke-miterlimit="10" d="M264.3,199.6c0,0-5.7,43.9,3,65.6
			c5.9,14.8,46.8,51.5,46.8,51.5"/>
		<path fill="none" stroke="#B3B2B3" stroke-width="2.7445" stroke-miterlimit="10" d="M308.4,194c0,0-6.7,44.1,3,65.4
			c10.3,22.7,47.2,50.4,47.2,50.4"/>
		<path fill="none" stroke="#B3B2B3" stroke-width="2.7445" stroke-miterlimit="10" d="M352.5,193c0,0-4.3,38.1,2.4,62.1
			c4,14.4,52.2,46.2,52.2,46.2"/>
		<path fill="none" stroke="#B3B2B3" stroke-width="2.7445" stroke-miterlimit="10" d="M400.1,200.1c0,0-3.8,29.5,2.2,53.7
			c2.1,8.5,18.9,20.2,32.6,28.5"/>
		<polygon fill="#EC4040" stroke="#BC2025" stroke-width="2.7445" stroke-miterlimit="10" points="469.1,199.2 472,207.8
			460.8,228.2 444.4,214.5 453.2,199.5 		"/>
		<path fill="#F4DC7A" stroke="#BA925E" stroke-width="2.7445" stroke-miterlimit="10" d="M55.7,318c0,0,14-22.5,42.4-27.5
			l82.9,47.3l-24.9,19.7l-74.2-7L55.7,318z"/>
		<g opacity="0.5">
			<path fill="#B7D8C6" d="M454.6,301.8c0,0-0.3,1.6-1.3,4.6c-1,2.9-2.6,7.2-5.4,12.3c-2.7,5.1-6.4,11.1-11.3,17.6
				c-4.9,6.4-11.1,13.2-18.5,19.9c-7.3,6.8-16.1,13.3-25.7,19.4c-2.4,1.5-4.9,3-7.4,4.6c-2.6,1.4-5.2,2.8-7.8,4.3
				c-1.3,0.7-2.6,1.5-4,2.2c-1.4,0.6-2.7,1.3-4.1,2c-2.8,1.3-5.6,2.7-8.4,3.9c-2.9,1.2-5.8,2.4-8.7,3.6c-1.5,0.6-2.9,1.2-4.4,1.8
				c-1.5,0.5-3,1.1-4.5,1.6c-3,1.1-6.1,2.2-9.1,3.2c-1.5,0.6-3.1,1-4.7,1.4c-1.6,0.5-3.1,0.9-4.7,1.4c-3.1,0.9-6.3,1.9-9.5,2.7
				c-3.2,0.8-6.4,1.6-9.6,2.4c-6.4,1.7-12.9,2.9-19.4,4.2l-4.9,0.9c-1.6,0.3-3.3,0.5-4.9,0.8c-3.3,0.5-6.5,1-9.8,1.5
				c-6.5,1.1-13,1.7-19.5,2.4c-3.2,0.3-6.5,0.8-9.7,1c-3.2,0.2-6.4,0.4-9.6,0.6c-6.4,0.4-12.6,0.9-18.8,1
				c-6.2,0.2-12.3,0.4-18.2,0.5c-6-0.1-11.8-0.1-17.4-0.2c-2.8,0-5.6-0.1-8.4-0.1c-2.8-0.1-5.5-0.2-8.1-0.3
				c-5.3-0.3-10.5-0.5-15.4-0.7c-4.9-0.2-9.7-0.6-14.1-1c-4.5-0.4-8.7-0.8-12.7-1.1c-8-0.6-14.9-1.6-20.6-2.2
				c-5.7-0.6-10.2-1.3-13.3-1.7c-3.1-0.4-4.7-0.6-4.7-0.6l0-0.5c0,0,6.5,0.5,18,1.5c5.7,0.4,12.7,1.2,20.7,1.5
				c4,0.2,8.2,0.4,12.7,0.7c4.5,0.2,9.2,0.6,14.1,0.6c4.9,0.1,10.1,0.2,15.4,0.4c2.7,0.1,5.4,0.1,8.1,0.2c2.7,0,5.5,0,8.3-0.1
				c5.6,0,11.4-0.1,17.4-0.2c5.9-0.3,12-0.5,18.1-0.8c6.2-0.2,12.4-0.8,18.7-1.2c3.2-0.2,6.3-0.5,9.5-0.7c3.2-0.3,6.4-0.7,9.6-1.1
				c6.4-0.8,12.9-1.4,19.3-2.5c3.2-0.5,6.5-1,9.7-1.5c1.6-0.3,3.2-0.5,4.9-0.8l4.8-1c6.4-1.3,12.9-2.4,19.2-4.1
				c3.2-0.8,6.3-1.5,9.5-2.3c3.2-0.8,6.2-1.8,9.3-2.7c1.5-0.5,3.1-0.9,4.6-1.4c1.5-0.5,3.1-0.9,4.6-1.4c3-1,6-2.1,9-3.1
				c1.5-0.5,3-1,4.5-1.5c1.5-0.6,2.9-1.2,4.4-1.7c2.9-1.2,5.8-2.3,8.6-3.4c2.8-1.2,5.6-2.5,8.3-3.8c1.4-0.6,2.7-1.3,4.1-1.9
				c1.3-0.7,2.6-1.4,4-2c2.6-1.4,5.2-2.7,7.8-4.1c2.5-1.5,4.9-2.9,7.4-4.4c9.6-5.9,18.3-12,25.7-18.6c7.4-6.4,13.7-12.9,18.8-19.1
				c5-6.2,8.9-12,11.8-17c2.9-5,4.7-9.1,5.8-12c1.1-2.9,1.5-4.4,1.5-4.4L454.6,301.8z"/>
		</g>
		<g opacity="0.5">
			<path fill="#B7D8C6" d="M487.8,324c0,0-0.3,1.6-1.1,4.6c-0.9,3-2.2,7.3-4.7,12.6c-2.5,5.2-5.9,11.4-10.5,18.1
				c-4.6,6.7-10.5,13.8-17.5,20.8c-7,7.2-15.4,14-24.7,20.7c-2.4,1.6-4.8,3.3-7.2,4.9c-2.5,1.5-5,3.1-7.6,4.7
				c-1.3,0.8-2.6,1.6-3.9,2.3c-1.3,0.7-2.7,1.4-4,2.2c-2.7,1.4-5.4,2.9-8.2,4.3c-2.8,1.3-5.7,2.7-8.5,4c-1.4,0.7-2.9,1.4-4.3,2
				c-1.5,0.6-2.9,1.2-4.4,1.8c-3,1.2-5.9,2.5-8.9,3.7c-1.5,0.6-3,1.1-4.6,1.7c-1.5,0.5-3.1,1.1-4.6,1.6c-3.1,1.1-6.2,2.2-9.3,3.2
				c-3.1,0.9-6.3,1.9-9.5,2.8c-6.3,2-12.8,3.5-19.2,5.2l-4.8,1.2c-1.6,0.4-3.2,0.7-4.9,1c-3.2,0.7-6.5,1.3-9.7,2
				c-6.4,1.4-12.9,2.3-19.4,3.4c-3.2,0.5-6.4,1.1-9.6,1.5c-3.2,0.4-6.4,0.7-9.6,1.1c-6.3,0.7-12.6,1.6-18.8,2
				c-6.2,0.5-12.2,1-18.2,1.4c-5.9,0.2-11.8,0.5-17.4,0.7c-2.8,0.1-5.6,0.2-8.4,0.3c-2.8,0.1-5.5,0.1-8.1,0.1c-5.3,0-10.5,0-15.4,0
				c-4.9,0.1-9.7-0.1-14.2-0.3c-4.5-0.2-8.8-0.3-12.8-0.5c-8-0.2-15-0.8-20.7-1.2c-5.7-0.4-10.2-0.8-13.3-1
				c-3.1-0.2-4.7-0.4-4.7-0.4l0-0.5c0,0,6.6,0.2,18,0.6c5.7,0.2,12.7,0.5,20.7,0.5c4,0,8.3,0,12.7,0.1c4.5,0,9.2,0.1,14.1-0.1
				c4.9-0.1,10-0.3,15.4-0.4c2.7-0.1,5.4-0.1,8.1-0.2c2.7-0.2,5.5-0.3,8.3-0.5c5.6-0.3,11.4-0.7,17.3-1c5.9-0.5,11.9-1.1,18.1-1.7
				c6.1-0.5,12.3-1.4,18.6-2.2c3.1-0.4,6.3-0.8,9.5-1.2c3.2-0.5,6.3-1,9.5-1.5c6.4-1.1,12.8-2,19.2-3.5c3.2-0.7,6.4-1.3,9.6-2
				c1.6-0.4,3.2-0.6,4.8-1l4.8-1.2c6.4-1.6,12.8-3,19-5c3.1-0.9,6.3-1.8,9.4-2.8c3.1-0.9,6.1-2.1,9.2-3.1c1.5-0.5,3-1.1,4.6-1.6
				c1.5-0.5,3.1-1,4.5-1.6c3-1.2,5.9-2.4,8.9-3.5c1.5-0.6,2.9-1.2,4.4-1.8c1.4-0.7,2.9-1.3,4.3-2c2.8-1.3,5.7-2.6,8.5-3.9
				c2.7-1.4,5.4-2.8,8.1-4.2c1.3-0.7,2.7-1.4,4-2.1c1.3-0.7,2.6-1.5,3.9-2.2c2.6-1.5,5.1-3,7.6-4.4c2.4-1.6,4.8-3.2,7.1-4.7
				c9.3-6.4,17.7-12.9,24.8-19.8c7.1-6.8,13.1-13.6,17.9-20c4.7-6.4,8.3-12.4,10.9-17.5c2.6-5.1,4.2-9.3,5.2-12.2
				c1-2.9,1.3-4.5,1.3-4.5L487.8,324z"/>
		</g>
		<g opacity="0.5">
			<path fill="#B7D8C6" d="M500.2,349.2c0,0,0,1.4-0.4,3.9c-0.4,2.5-1,6.3-2.5,10.9c-1.4,4.6-3.6,10.1-6.6,16.1
				c-3,6-7.1,12.5-12.1,19c-5,6.7-11.1,13.2-18.1,19.7c-1.8,1.6-3.6,3.2-5.4,4.8c-1.9,1.5-3.8,3.1-5.7,4.7c-1,0.8-1.9,1.6-2.9,2.3
				c-1,0.7-2.1,1.5-3.1,2.2c-2.1,1.5-4.1,3-6.3,4.5c-2.2,1.4-4.4,2.8-6.6,4.2c-1.1,0.7-2.2,1.4-3.3,2.1c-1.1,0.7-2.3,1.3-3.4,2
				c-2.3,1.3-4.6,2.7-7,4c-2.4,1.3-4.8,2.4-7.2,3.7c-2.4,1.2-4.8,2.5-7.3,3.6c-2.5,1.1-5,2.2-7.5,3.3c-5,2.3-10.1,4.2-15.2,6.3
				c-5.1,2.1-10.3,3.7-15.5,5.5c-5.1,1.8-10.4,3.3-15.6,4.8c-2.6,0.7-5.2,1.6-7.7,2.2c-2.6,0.6-5.2,1.3-7.7,1.9
				c-5.1,1.2-10.2,2.6-15.2,3.5c-5,1-9.9,2.1-14.8,3c-4.9,0.8-9.6,1.6-14.3,2.3c-2.3,0.4-4.6,0.8-6.8,1.1c-2.3,0.3-4.5,0.6-6.7,0.9
				c-4.4,0.5-8.6,1.1-12.7,1.6c-4.1,0.5-8,0.9-11.7,1.2c-3.7,0.3-7.2,0.6-10.5,0.9c-6.6,0.6-12.4,0.8-17.2,1.1
				c-4.8,0.3-8.5,0.4-11,0.5c-2.5,0.1-3.9,0.2-3.9,0.2l0-0.5c0,0,5.4-0.5,14.9-1.4c4.7-0.5,10.5-0.9,17-1.8
				c3.3-0.4,6.8-0.8,10.5-1.3c3.7-0.5,7.6-0.9,11.6-1.5c4-0.6,8.2-1.3,12.6-1.9c2.2-0.3,4.4-0.7,6.6-1c2.2-0.4,4.5-0.8,6.8-1.3
				c4.6-0.9,9.3-1.7,14.1-2.6c4.8-1.1,9.7-2.2,14.6-3.3c5-1,10-2.4,15-3.7c2.5-0.7,5.1-1.3,7.6-2c2.6-0.7,5.1-1.5,7.7-2.3
				c5.1-1.6,10.3-3,15.4-4.9c5.1-1.8,10.3-3.4,15.3-5.5c5-2,10.2-3.8,15.1-6.1c2.5-1.1,4.9-2.2,7.4-3.3c2.5-1.1,4.8-2.4,7.2-3.5
				c2.4-1.2,4.8-2.3,7.1-3.6c2.3-1.3,4.6-2.6,6.9-3.8c1.1-0.6,2.3-1.3,3.4-1.9c1.1-0.7,2.2-1.4,3.3-2c2.2-1.4,4.4-2.7,6.5-4.1
				c2.1-1.4,4.2-2.9,6.2-4.3c1-0.7,2-1.4,3.1-2.1c1-0.7,2-1.5,2.9-2.2c1.9-1.5,3.9-3,5.7-4.4c1.8-1.6,3.6-3.1,5.4-4.6
				c6.9-6.2,13.2-12.5,18.3-18.8c5.1-6.3,9.3-12.5,12.6-18.3c3.2-5.8,5.5-11.1,7.1-15.5c1.6-4.5,2.5-8.1,3-10.6
				c0.5-2.5,0.6-3.8,0.6-3.8L500.2,349.2z"/>
		</g>
		<g opacity="0.5">
			<path fill="#B7D8C6" d="M683.9,433.2c0,0,0,0.9-0.3,2.5c-0.2,1.6-0.7,4-1.6,6.9c-0.9,2.9-2.3,6.4-4.2,10.3c-2,3.8-4.5,8-7.8,12.2
				c-3.2,4.2-7.2,8.4-11.6,12.6c-1.1,1-2.3,2.1-3.4,3.1c-1.2,1-2.4,2-3.7,3c-0.6,0.5-1.2,1-1.9,1.5c-0.7,0.5-1.3,0.9-2,1.4
				c-1.3,0.9-2.7,1.9-4,2.8c-1.4,0.9-2.8,1.8-4.2,2.7c-0.7,0.5-1.4,0.9-2.1,1.4c-0.7,0.4-1.5,0.8-2.2,1.3c-1.5,0.8-3,1.7-4.5,2.6
				c-1.5,0.8-3.1,1.6-4.6,2.4c-1.6,0.8-3.1,1.6-4.7,2.3c-1.6,0.7-3.2,1.4-4.8,2.1c-3.2,1.5-6.5,2.7-9.7,4c-3.3,1.3-6.6,2.4-9.9,3.5
				c-3.3,1.2-6.7,2.1-10,3.1c-1.7,0.5-3.3,1-5,1.4c-1.7,0.4-3.3,0.8-5,1.2c-3.3,0.8-6.5,1.7-9.7,2.3c-3.2,0.7-6.4,1.4-9.5,1.9
				c-3.1,0.5-6.2,1-9.1,1.5c-1.5,0.2-2.9,0.5-4.4,0.7c-1.4,0.2-2.9,0.4-4.3,0.6c-2.8,0.4-5.5,0.7-8.1,1c-5.2,0.7-10,1-14.2,1.4
				c-4.2,0.4-7.9,0.5-11,0.7c-3,0.2-5.4,0.2-7.1,0.3c-1.6,0.1-2.5,0.1-2.5,0.1l0-0.3c0,0,3.5-0.3,9.5-0.9c3-0.3,6.7-0.6,10.9-1.1
				c2.1-0.3,4.3-0.5,6.7-0.8c2.4-0.3,4.8-0.6,7.4-1c2.6-0.4,5.3-0.8,8-1.2c1.4-0.2,2.8-0.4,4.2-0.7c1.4-0.3,2.9-0.5,4.3-0.8
				c2.9-0.6,6-1.1,9-1.7c3.1-0.7,6.2-1.4,9.4-2.1c3.2-0.7,6.4-1.6,9.6-2.4c1.6-0.4,3.3-0.8,4.9-1.3c1.6-0.5,3.3-1,4.9-1.5
				c3.3-1,6.6-1.9,9.9-3.1c3.3-1.2,6.6-2.2,9.8-3.5c3.2-1.3,6.5-2.5,9.7-3.9c1.6-0.7,3.2-1.4,4.7-2.1c1.6-0.7,3.1-1.5,4.6-2.3
				c1.5-0.8,3.1-1.5,4.6-2.3c1.5-0.8,3-1.6,4.4-2.5c0.7-0.4,1.5-0.8,2.2-1.2c0.7-0.4,1.4-0.9,2.1-1.3c1.4-0.9,2.8-1.7,4.2-2.6
				c1.3-0.9,2.7-1.8,4-2.7c0.7-0.5,1.3-0.9,2-1.4c0.6-0.5,1.3-1,1.9-1.4c1.2-1,2.5-1.9,3.7-2.8c1.2-1,2.3-2,3.4-3
				c4.4-4,8.5-8,11.7-12.1c3.3-4,6-8,8.1-11.7c2.1-3.7,3.5-7.1,4.6-9.9c1-2.9,1.6-5.2,1.9-6.8c0.3-1.6,0.4-2.5,0.4-2.5L683.9,433.2z
				"/>
		</g>
		<path fill="#F4DC7A" stroke="#BA925E" stroke-width="2.7445" stroke-miterlimit="10" d="M179.6,249.3c0,0,15.7-11.1,37.3-10.5
			L373,311.5l-44.2,16.1L179.6,249.3z"/>
		<path fill="none" stroke="#000000" stroke-width="2.7445" stroke-miterlimit="10" d="M76.3,381.5c0,0,63.4,24.8,141.9,15.5"/>

			<path fill="#EDC89F" stroke="#BF956B" stroke-width="2.7445" stroke-linecap="round" stroke-linejoin="round" stroke-miterlimit="10" d="
			M299.3,230.7c0,0-2.2,29.6-9.9,35.4c-11.9,9.1-36.3,19-36.3,19s-12.9,40.7-9.4,59.7c0,0-15.9,19.9-40.2,15.8
			c0,0,26.9-13.3,28.9-25.2c0,0-3.2-30.1,5.9-61l20-18.6c0,0-27,2.1-47.5,13.2c0,0-8.1,37.5-8.5,50.5c0,0-13.4,16.5-41.6,6.3
			l31-10.1c0,0,2.9-49.1,8.5-61.7c0,0,37.3-20.7,58.3-18.7l5.5-11.6L299.3,230.7z"/>
		<path fill="#8A7349" stroke="#5E4E36" stroke-width="2.7445" stroke-miterlimit="10" d="M231,274.4c0,0,12.6,4.8,21.9,22.8
			c0,0,21.3-18.5,41-29.7c12.6-7.2,8.7-32.7,8.7-32.7l-41.4-13.5l-4.6,9.7c0,0-26.8,2.7-56.6,19.5c0,0,4.3-3.1,17.3,20.2
			c0,0,26.2-10.5,30.8-10.4C248.3,260.3,233.7,270.5,231,274.4z"/>
		<path fill="#EC4040" stroke="#BC2025" stroke-width="2.7445" stroke-miterlimit="10" d="M19.6,285c0,0-2.9,65.5,45,91.4
			c0,0,48.2,22.8,64.7,25.7c23.9,4.1,199.9-4.5,284.4-79.5c0,0,53.6-44.4,47.4-107.9c0-0.3-9.5,17.4-12.3,21.2
			c-10.9,15.1-30.6,37.7-30.6,37.7l-56.9,30.1l-104.9,24.6l-141.8,0.6l-22.1-3L19.6,285z"/>
		<path fill="none" stroke="#BC2025" stroke-width="2.7445" stroke-miterlimit="10" d="M459.8,243.5c0,0-26.3,63.9-142.1,97.8
			c-115.8,33.9-220.9,7.2-220.9,7.2l-76.9-45"/>
		<path fill="none" stroke="#BC2025" stroke-width="2.7445" stroke-miterlimit="10" d="M455.5,259.9c0,0-27.4,60.3-142.1,97.8
			c-99.6,32.6-223.3,2.7-223.3,2.7l-66.8-40.6"/>
		<path fill="none" stroke="#BC2025" stroke-width="2.7445" stroke-miterlimit="10" d="M450,274c0,0-25.9,60-140.6,97.2
			c-111.8,36.3-227.3,1-227.3,1l-50.3-30.6"/>
		<path fill="none" stroke="#BC2025" stroke-width="2.7445" stroke-miterlimit="10" d="M98.2,326.9c0,0,5.1,57.1-38.7,47.4"/>
		<path fill="#FFFFFF" stroke="#676767" stroke-width="2.7445" stroke-miterlimit="10" d="M469.1,199.1l-15.9-8.9l-9.6,13.1
			c0,0-138-28.9-270.8,5.3c-132.8,34.1-153.5,76-153.5,76l75.5,42.8c0,0,93.9,19.8,229.1-10.4c132.5-29.5,136.6-103.7,136.6-103.7
			L469.1,199.1z M317,309.8c-129,27.2-220.8,8.1-220.8,8.1l-63.7-36.8c0,0,22.4-37.1,149-68c72.7-17.7,146.2-16.7,195.6-12.6
			L440,242C425.7,263.6,392.8,293.8,317,309.8"/>

			<path fill="#EDC89F" stroke="#BF956B" stroke-width="2.7445" stroke-linecap="round" stroke-linejoin="round" stroke-miterlimit="10" d="
			M247,146.2c0,0,0.1,24.5-67.6,38.7l2.7,8.3c0,0,57.4-3.4,81.4-42.1C263.4,151.1,259.4,159,247,146.2z"/>
		<path fill="#662F8C" stroke="#492B75" stroke-width="2.7445" stroke-miterlimit="10" d="M237.3,156.8c0,0,3.2,10.1,11.9,14.4
			c0,0,16.4-10.3,20.9-21.8l-1.9-10c0,0-4.5-4.6-12.4-1.9C247.5,140.5,244.8,150.5,237.3,156.8z"/>
		<path fill="#662F8C" stroke="#492B75" stroke-width="2.7445" stroke-miterlimit="10" d="M306.6,242.6c0,0,10.1-107.8-49.3-99.9
			c-20.8,13.3,11.2,40-0.1,89.7C257.2,232.4,279.4,253.6,306.6,242.6z"/>

			<path fill="#EDC89F" stroke="#BF956B" stroke-width="2.7445" stroke-linecap="round" stroke-linejoin="round" stroke-miterlimit="10" d="
			M248.2,139.2l4.2,14.4c0,0,12.6,4.9,18.3-5.7l-2-17.9L248.2,139.2z"/>
		<g>

				<ellipse transform="matrix(0.9989 -4.721723e-02 4.721723e-02 0.9989 -5.5931 11.8816)" fill="#EDC89F" stroke="#BF956B" stroke-width="2.7445" stroke-linecap="round" stroke-linejoin="round" stroke-miterlimit="10" cx="248.7" cy="124.3" rx="28.8" ry="24.1"/>

				<path fill="#EDC89F" stroke="#BF956B" stroke-width="2.7445" stroke-linecap="round" stroke-linejoin="round" stroke-miterlimit="10" d="
				M226.5,130.3c0,0-6.2,6.8-1.8,11.4c4.5,4.6,10-1.9,10-1.9"/>

				<path fill="#EDC89F" stroke="#BF956B" stroke-width="2.7445" stroke-linecap="round" stroke-linejoin="round" stroke-miterlimit="10" d="
				M235.9,145.5c0,0,12.6,4,18-8.8"/>
			<ellipse transform="matrix(-0.9765 0.2153 -0.2153 -0.9765 470.0261 201.5558)" cx="224" cy="126.4" rx="2" ry="4.4"/>
			<ellipse transform="matrix(-0.9765 0.2154 -0.2154 -0.9765 497.7097 201.1329)" cx="237.9" cy="127.7" rx="2" ry="4.4"/>

				<path fill="#EDC89F" stroke="#BF956B" stroke-width="2.7445" stroke-linecap="round" stroke-linejoin="round" stroke-miterlimit="10" d="
				M264.5,119.9c0,0,1.7-9.3,8.8-8.3c6.2,0.9,7,15,0.4,18.2"/>
		</g>

			<ellipse transform="matrix(0.9897 0.1431 -0.1431 0.9897 17.5883 -34.7276)" fill="#C9C92F" stroke="#969837" stroke-width="2.7445" stroke-linecap="round" stroke-linejoin="round" stroke-miterlimit="10" cx="250.2" cy="104.9" rx="47" ry="11.1"/>

			<path fill="#C9C92F" stroke="#969837" stroke-width="2.7445" stroke-linecap="round" stroke-linejoin="round" stroke-miterlimit="10" d="
			M280.7,104.3c-0.6,6.2-16.5,4.6-26.9,3.1c-12.4-1.9-27.5-5.4-26.9-11.6c0,0,2.9-17.3,10.8-18.6c11.4-1.7,40.1,5.2,42.1,13.6
			C281.8,99.2,280.7,104.3,280.7,104.3z"/>
		<path fill="#F3BD6D" stroke="#B6823C" stroke-width="2.7445" stroke-miterlimit="10" d="M484,380.7L210.8,214.5
			c0,0-7.2-5.6-11.3,0.7c-3.4,5.2,1.9,9.6,1.9,9.6l275.4,167.9c0,0,9,23.2,33.1,34.9c8.1,3.9,84.6,45,84.6,45s20.4,10,29.1-8.8
			c8.8-18.8-10.8-29.7-10.8-29.7l-84.9-45.1C527.9,389.1,504.3,376,484,380.7z"/>
		<path fill="#F3BD6D" stroke="#B6823C" stroke-width="2.7445" stroke-miterlimit="10" d="M32,209.8l180.6-34.9c0,0,7.3-1.8,6.6,4.9
			c-0.5,5.1-10.9,6-10.9,6L26.1,221.1c0,0-17.5,14.5-31.5,15.4c-4.7,0.3-51.7,5.9-51.7,5.9s-11.9,0.8-2-16.3S-37,207.3-37,207.3
			l51.8-5.8C14.9,201.5,29.6,199.5,32,209.8z"/>

			<path fill="#EDC89F" stroke="#BF956B" stroke-width="2.7445" stroke-linecap="round" stroke-linejoin="round" stroke-miterlimit="10" d="
			M287.7,163c-6.4,31.7-35.2,52.4-51.3,61.8c0,2.9-2.9,4.4-2.9,4.4c-14.7,11.9-17,6.5-27.8,1.9c-2.5-19.2,12-14.5,18.7-11.4
			c32.7-19.9,45.1-46.8,49.7-61.6c2.3-7.3,13-6.8,14.2,0.7C288.7,161.3,287.7,163,287.7,163z"/>
		<path fill="#662F8C" stroke="#492B75" stroke-width="2.7445" stroke-miterlimit="10" d="M261,179.3c0,0,10.5,7.3,21.5,9.7
			c0,0,18.6-34.6,3.3-42.3C272.4,140,261,179.3,261,179.3z"/>

			<path fill="#EDC89F" stroke="#BF956B" stroke-width="2.7445" stroke-linecap="round" stroke-linejoin="round" stroke-miterlimit="10" d="
			M162.4,183c0,0-2.4,9.5,2.7,9.7c5.4,0.2,14.8-3.9,19.5-11.8c0,0-1.4-8.2-11.2-3.9C163.7,181.3,162.4,183,162.4,183z"/>

			<ellipse transform="matrix(1 -3.983725e-03 3.983725e-03 1 -0.7643 0.7217)" fill="#EDC89F" stroke="#BF956B" stroke-width="2.7445" stroke-linecap="round" stroke-linejoin="round" stroke-miterlimit="10" cx="180.8" cy="192.2" rx="5.6" ry="3"/>
		<path fill="#188B8B" d="M497.5,433c0,0,118.6,27.9,125-1.3l32.4,12.4L632.6,483l-101.9,12.8L497.5,433z"/>
		<path fill="#188B8B" d="M483.4,424l27.7,18l82.5,11.3c0,0,22.4-5.6,27.9-10.7c7.6-7-6.6-26.5-6.6-26.5l54.9,14.3l-7.7,20.9
			l-26.5,36l-107.7,22l-32.8-31.1L483.4,424z"/>
		<path fill="#188B8B" d="M-21.5,254.1c0,0-42.6,1.4-46-16.9c-3.4-18.3,57.8-39.4,65.3-40l2.5-48.7l-69.2-29.6l-41.7,34.5
			c0,0-21.2,84-20.7,86.2c0.5,2.1,52.5,44.1,52.5,44.1L-21.5,254.1z"/>
		<g opacity="0.5">
			<path fill="#B7D8C6" d="M7.9,184.1c0,0-0.6,0.1-1.7,0.3c-1.1,0.2-2.7,0.6-4.7,1.1c-2,0.5-4.5,1-7.3,1.8c-1.4,0.4-2.9,0.8-4.4,1.2
				c-1.6,0.4-3.2,0.9-4.9,1.4c-3.4,1-7.1,2.1-11,3.4c-1.9,0.6-3.9,1.3-5.9,2.1c-2,0.7-4,1.5-6.1,2.3c-2.1,0.8-4.1,1.7-6.2,2.5
				c-1,0.5-2.1,0.9-3.1,1.4c-1.1,0.4-2.1,0.9-3.2,1.4c-2.1,1-4.2,1.9-6.3,3c-1,0.5-2.1,1-3.1,1.6l-3.1,1.7c-2.1,1.1-4.1,2.3-6.1,3.5
				c-2,1.2-3.9,2.5-5.9,3.7c-0.9,0.7-1.9,1.3-2.8,2c-0.9,0.7-1.9,1.3-2.8,2c-0.9,0.7-1.8,1.4-2.7,2c-0.4,0.3-0.9,0.7-1.3,1
				c-0.4,0.4-0.8,0.7-1.3,1.1c-1.7,1.4-3.3,2.8-4.9,4.3c-0.8,0.7-1.5,1.4-2.3,2.1c-0.8,0.7-1.4,1.5-2.1,2.2
				c-0.7,0.7-1.4,1.4-2.1,2.1c-0.7,0.7-1.3,1.5-1.9,2.2c-1.2,1.5-2.5,2.8-3.4,4.3c-1,1.4-2,2.8-3,4.1c-0.9,1.4-1.7,2.6-2.5,3.8
				c-0.2,0.3-0.4,0.6-0.6,0.9c-0.2,0.3-0.3,0.6-0.5,0.9c-0.3,0.6-0.6,1.2-0.9,1.7c-0.6,1.1-1.1,2.1-1.6,3c-0.8,1.9-1.5,3.4-2,4.4
				c-0.5,1-0.7,1.6-0.7,1.6l-0.3-0.1c0,0,0.8-2.2,2.3-6.1c0.4-0.9,0.9-2,1.5-3.1c0.3-0.6,0.5-1.2,0.8-1.8c0.1-0.3,0.3-0.6,0.4-0.9
				c0.2-0.3,0.4-0.6,0.5-0.9c0.7-1.3,1.5-2.6,2.3-4c0.8-1.4,1.8-2.8,2.8-4.3c1-1.5,2.2-2.9,3.3-4.5c0.6-0.7,1.2-1.6,1.8-2.3
				c0.7-0.7,1.3-1.5,2-2.3c0.7-0.8,1.3-1.6,2.1-2.3c0.7-0.7,1.5-1.5,2.3-2.3c1.5-1.6,3.2-3,4.9-4.5c0.4-0.4,0.8-0.7,1.3-1.1
				c0.4-0.4,0.9-0.7,1.3-1.1c0.9-0.7,1.8-1.4,2.7-2.1c1.8-1.4,3.8-2.7,5.6-4.1c2-1.3,3.9-2.6,6-3.8c2.1-1.2,4.1-2.5,6.2-3.6l3.2-1.7
				c1.1-0.6,2.1-1.1,3.2-1.6c2.1-1.1,4.3-2,6.4-3c2.1-1,4.3-1.8,6.4-2.7c2.2-0.8,4.3-1.7,6.4-2.4c2.1-0.7,4.2-1.5,6.2-2.1
				c2-0.7,4.1-1.3,6-1.9c3.9-1.2,7.7-2.2,11.1-3c13.9-3.4,23.4-4.5,23.4-4.5L7.9,184.1z"/>
		</g>
	</g>
</g>
</svg>
