<?xml version="1.0" encoding="utf-8"?>
<!-- Generator: Adobe Illustrator 18.1.1, SVG Export Plug-In . SVG Version: 6.00 Build 0)  -->
<svg version="1.1" id="Layer_1" xmlns="http://www.w3.org/2000/svg" xmlns:xlink="http://www.w3.org/1999/xlink" x="0px" y="0px"
	 viewBox="0 0 500 500" enable-background="new 0 0 500 500" xml:space="preserve">
<symbol  id="New_Symbol" viewBox="-19.9 -2.9 39.8 5.8">
	<path fill="none" stroke="#FFC52A" stroke-width="5.7837" stroke-miterlimit="10" d="M-17-2.6c0,0,0,2.6,17,2.6c17,0,17-2.6,17-2.6
		"/>
</symbol>
<g>
	<rect x="0" fill="#B4E1E5" width="500" height="500"/>
	<g>
		<path fill="#58595B" stroke="#231F20" stroke-width="1.3903" stroke-miterlimit="10" d="M252.5,465.2c0,6.9-0.8,10.4-1.5,12.2
			c-0.4,1-1.8,1-2.2,0c-0.7-1.8-1.5-5.3-1.5-12.2H252.5z"/>
		<g>
			<defs>
				<polyline id="SVGID_1_" points="260.1,405 254.2,470.2 245.7,470.2 239.7,405 				"/>
			</defs>
			<defs>
				<path id="SVGID_2_" d="M239.7,405c0,0-5.5-20.8-5.5-49.4c0-32.9-0.9-103.1,0-222.6c0-3.8,14.5-0.3,15.7,0c0,0,0,0,0,0
					c1.2-0.3,15.6-3.8,15.7,0c0.9,119.5,0,189.7,0,222.6c0,28.6-5.5,49.4-5.5,49.4"/>
			</defs>
			<use xlink:href="#SVGID_1_"  overflow="visible" fill="#FFC52A"/>
			<use xlink:href="#SVGID_2_"  overflow="visible" fill="#4A3E97"/>
			<clipPath id="SVGID_3_">
				<use xlink:href="#SVGID_1_"  overflow="visible"/>
			</clipPath>
			<clipPath id="SVGID_4_" clip-path="url(#SVGID_3_)">
				<use xlink:href="#SVGID_2_"  overflow="visible"/>
			</clipPath>
			<polygon clip-path="url(#SVGID_4_)" fill="#FFC52A" stroke="#CA9731" stroke-width="1.3903" stroke-miterlimit="10" points="
				224.9,404.3 281.5,404.3 285.8,470.2 213.5,470.2 			"/>
			<use xlink:href="#SVGID_1_"  overflow="visible" fill="none" stroke="#CA9731" stroke-width="1.3903" stroke-miterlimit="10"/>
			<use xlink:href="#SVGID_2_"  overflow="visible" fill="none" stroke="#7271B4" stroke-width="1.3903" stroke-miterlimit="10"/>
		</g>
		<path fill="none" stroke="#231F20" stroke-width="1.3903" stroke-miterlimit="10" d="M250,205.6"/>
		<path fill="none" stroke="#231F20" stroke-width="1.3903" stroke-miterlimit="10" d="M250,17.8"/>
		<path fill="none" stroke="#231F20" stroke-width="1.3903" stroke-miterlimit="10" d="M254.1,205.6"/>
		<path fill="#FFC52A" stroke="#CA9731" stroke-width="1.3903" stroke-miterlimit="10" d="M237.4,31v10c-3.8-0.5-10,2.9-10,2.9
			s-2.8,10.3-1.9,114.3c2.3,1.2,4,4.6,4,8.6c0,5-2.7,9.1-6,9.1c-3.3,0-6-4.1-6-9.1c0-4.3,2-7.9,4.6-8.8
			c-5.8-103.6-1.5-119.2-1.5-119.2C226.3,33,237.4,31,237.4,31z"/>
		<g>
			<defs>
				<path id="SVGID_5_" d="M269.2,209.3c-0.3,2-8.6,0.5-19.2,0.4l0,0c-10.6,0.1-19,1.6-19.3-0.4c-2.9-19,0-184,0-184
					c0-4.1,8.6-7.5,19.2-7.5h0.1c10.6,0,19.2,3.4,19.2,7.5C269.2,25.3,272,190.3,269.2,209.3z"/>
			</defs>
			<use xlink:href="#SVGID_5_"  overflow="visible" fill="#4A3E97"/>
			<clipPath id="SVGID_6_">
				<use xlink:href="#SVGID_5_"  overflow="visible"/>
			</clipPath>
			<g clip-path="url(#SVGID_6_)">
				<path fill="none" stroke="#FFC52A" stroke-width="2.7806" stroke-miterlimit="10" d="M217.3,44.6c0,0,0.1-13.7,32.7-13.7
					c32.8,0,32.7,13.7,32.7,13.7"/>

					<use xlink:href="#New_Symbol"  width="39.8" height="5.8" x="-19.9" y="-2.9" transform="matrix(1.9231 0 0 -1.9231 250.0001 195.8328)" overflow="visible"/>

					<use xlink:href="#New_Symbol"  width="39.8" height="5.8" x="-19.9" y="-2.9" transform="matrix(1.9231 0 0 -1.9231 250.0001 175.7921)" overflow="visible"/>
			</g>
			<use xlink:href="#SVGID_5_"  overflow="visible" fill="none" stroke="#7271B4" stroke-width="1.3903" stroke-miterlimit="10"/>
		</g>
	</g>
</g>
</svg>
