<?xml version="1.0" encoding="utf-8"?>
<!-- Generator: Adobe Illustrator 18.1.1, SVG Export Plug-In . SVG Version: 6.00 Build 0)  -->
<svg version="1.1" id="Layer_1" xmlns="http://www.w3.org/2000/svg" xmlns:xlink="http://www.w3.org/1999/xlink" x="0px" y="0px"
	 viewBox="0 0 500 500" enable-background="new 0 0 500 500" xml:space="preserve">
<symbol  id="New_Symbol" viewBox="-14.8 -14.8 29.5 29.7">
	<path fill="#FFFFFF" stroke="#A7A0B6" stroke-width="1.0731" stroke-miterlimit="10" d="M-14.1,1.6c0,0,10.1-8.7,19.8-15.6
		c0,0,5.5,8.5,8.5,17c0,0-7.2,8.5-19.3,11.3C-5.1,14.2-12.4,5.6-14.1,1.6z"/>

		<path fill="#A6A252" stroke="#D3CE56" stroke-width="1.0731" stroke-linecap="round" stroke-linejoin="round" stroke-miterlimit="10" d="
		M-1,9.3c0-1.2-0.9-2.2-2.1-2.3c-1.2,0-2.2,0.9-2.3,2.1c0,1.2,0.9,2.2,2.1,2.3C-2,11.4-1,10.5-1,9.3z"/>
</symbol>
<g>
	<defs>
		<rect id="SVGID_1_" width="500" height="500"/>
	</defs>
	<clipPath id="SVGID_2_">
		<use xlink:href="#SVGID_1_"  overflow="visible"/>
	</clipPath>
	<g clip-path="url(#SVGID_2_)">

			<path fill="#EDD3B3" stroke="#C9A783" stroke-width="2.0637" stroke-linecap="round" stroke-linejoin="round" stroke-miterlimit="10" d="
			M156.4,430l-10.6,2.7l-21.1,6.3c0,0-1.9-24.4,10.6-38.3l17.6,2.3"/>

			<path fill="#EDD3B3" stroke="#C9A783" stroke-width="2.0637" stroke-linecap="round" stroke-linejoin="round" stroke-miterlimit="10" d="
			M320.3,172.8c0,0,17.7,6.7,28.7-7.6c16.6-21.5-11.6-32.5-19.2-15.6"/>

			<path fill="#372216" stroke="#6F4A21" stroke-width="2.0637" stroke-linecap="round" stroke-linejoin="round" stroke-miterlimit="10" d="
			M335.7,118.2c0,0,8.3,16.4,8.3,37c0,0,26.6-23.4,6.9-41.1L335.7,118.2z"/>

			<path fill="#372216" stroke="#6F4A21" stroke-width="2.0637" stroke-linecap="round" stroke-linejoin="round" stroke-miterlimit="10" d="
			M353.1,131.9c0,0,2.4,4.9-1.7,14.7"/>
		<rect x="-76.8" y="-83.3" fill="#F8F1B7" width="649.3" height="869.9"/>
		<path fill="#E3CE55" d="M-54,692.3c23-12.6,617.3-212.9,617.3-212.9L567,858H-54V692.3z"/>

			<path fill="#372216" stroke="#6F4A21" stroke-width="4" stroke-linecap="round" stroke-linejoin="round" stroke-miterlimit="10" d="
			M146.2,409.8c-20.6-2-38.2,11-38.2,29.1v41.9l17,5.7v-43.6c0-9.5,9.6-16.4,20.5-15.3c10.8,1.1,16.5,9.7,16.5,19.2v50.5l15,4.4
			v-55.5C181,428.2,166.8,411.9,146.2,409.8z"/>

			<path fill="#EDD3B3" stroke="#C9A783" stroke-width="2.0637" stroke-linecap="round" stroke-linejoin="round" stroke-miterlimit="10" d="
			M349.2,155.9c-3.3,21.8-24.3,37.3-50,39.4c-3.6,5.9-7.6,12.4-7.6,12.4l-46.6-15.8l3.2-11.7c-13.8-11-21.5-26.8-19-42.8
			c4.1-26.5,34.3-43.8,67.5-38.7C329.7,103.7,353.3,129.4,349.2,155.9z"/>
		<g>
			<defs>
				<path id="SVGID_3_" d="M110.5,273.7c0,0,4.5,20.5,25.1,30.2c0,0,85.3-88.6,89.1-107.9c0,0-20.4,12-37.7,27.6
					C165.6,242.8,142.5,261.8,110.5,273.7z"/>
			</defs>
			<use xlink:href="#SVGID_3_"  overflow="visible" fill="#C04740"/>
			<clipPath id="SVGID_4_">
				<use xlink:href="#SVGID_3_"  overflow="visible"/>
			</clipPath>
			<path clip-path="url(#SVGID_4_)" fill="#C04740" stroke="#E24739" stroke-width="2.0637" stroke-miterlimit="10" d="M122.8,262.9
				c0,0,6.6,28.4,33.9,38.5"/>
			<path clip-path="url(#SVGID_4_)" fill="#C04740" stroke="#E24739" stroke-width="2.0637" stroke-miterlimit="10" d="M130.9,256.3
				c0,0,6.6,28.4,33.9,38.5"/>
			<use xlink:href="#SVGID_3_"  overflow="visible" fill="none" stroke="#E24739" stroke-width="2.0637" stroke-miterlimit="10"/>
		</g>
		<g>
			<defs>
				<path id="SVGID_5_" d="M243.7,185.9c0,0-29.7,11.8-57.8,47.6c-31.8,40.4-50.9,57-87.8,73.8c0,0,15.4,27.9,36,30.2
					c0,0,66.9-27.6,103-111.7L243.7,185.9z"/>
			</defs>
			<use xlink:href="#SVGID_5_"  overflow="visible" fill="#C04740"/>
			<clipPath id="SVGID_6_">
				<use xlink:href="#SVGID_5_"  overflow="visible"/>
			</clipPath>
			<path clip-path="url(#SVGID_6_)" fill="#C04740" stroke="#E24739" stroke-width="2.0637" stroke-miterlimit="10" d="M115.7,294.2
				c0,0,9.4,27.6,37.5,35"/>
			<path clip-path="url(#SVGID_6_)" fill="#C04740" stroke="#E24739" stroke-width="2.0637" stroke-miterlimit="10" d="M126,287.5
				c0,0,9.4,27.6,37.5,35"/>
			<use xlink:href="#SVGID_5_"  overflow="visible" fill="none" stroke="#E24739" stroke-width="2.0637" stroke-miterlimit="10"/>
		</g>
		<path fill="#60639F" stroke="#8A8FC6" stroke-width="2.0637" stroke-miterlimit="10" d="M166.5,388.1c0,0,14.3-68.9,59.1-106.8
			l10.1-71.6c0,0-91.7,54.9-103.6,172C132.1,381.6,147,388.1,166.5,388.1z"/>
		<ellipse transform="matrix(-0.9661 -0.2582 0.2582 -0.9661 545.3561 328.9205)" cx="294.3" cy="128.7" rx="4.3" ry="9.8"/>
		<ellipse transform="matrix(-0.9661 -0.2582 0.2582 -0.9661 611.6667 362.3825)" cx="329.6" cy="141" rx="4" ry="8.6"/>

			<path fill="#EDD3B3" stroke="#C9A783" stroke-width="2.0637" stroke-linecap="round" stroke-linejoin="round" stroke-miterlimit="10" d="
			M315.5,137.7c0,0,16.3,7.3,14,19.8c-2.3,12.7-17.8,10.4-22.1,7.1"/>

			<path fill="none" stroke="#C9A783" stroke-width="2.0637" stroke-linecap="round" stroke-linejoin="round" stroke-miterlimit="10" d="
			M260.7,147.3c0,0,6.4,25.1,35.4,33.7c25.4,7.5,37.4-9.7,37.4-9.7"/>

			<path fill="#372216" stroke="#6F4A21" stroke-width="2.0637" stroke-linecap="round" stroke-linejoin="round" stroke-miterlimit="10" d="
			M243.1,128.4c0,0,4.3-9.9,13.7-13.1c13.8-4.7,19-15.3,19-15.3s44.1-8.2,68,28.3c0,0,31.1-5.6,4.8-37.2c0,0-4.2-1.4-7.8,0.3
			c0,0,2.2-26.8-35.5-25.5c-22.9,5-23.1,12.3-58,18.8c0,0-27.2,1.5-29.5,10.5l5.3,0.9c0,0-6.2,1.8-4.1,16.4
			c2.1,14.6-0.9,18.9-0.9,18.9s-1.5,32.5,22.5,44.3c0,0-9.9-12.7-13.2-34.1l9.1-24.9C236.4,116.6,238.3,126.4,243.1,128.4z"/>

			<path fill="none" stroke="#6F4A21" stroke-width="2.0637" stroke-linecap="round" stroke-linejoin="round" stroke-miterlimit="10" d="
			M352.7,107.8c0,0,2.1,11.5-14,13.3"/>

			<path fill="none" stroke="#6F4A21" stroke-width="2.0637" stroke-linecap="round" stroke-linejoin="round" stroke-miterlimit="10" d="
			M340.2,101.2c0,0-1.7,8.4-11.5,11.2"/>

			<path fill="none" stroke="#6F4A21" stroke-width="2.0637" stroke-linecap="round" stroke-linejoin="round" stroke-miterlimit="10" d="
			M281.6,78.1c10.1-1.4,15.4-8,32.1-4.5c11.9,2.5,17.4,19.9,3.5,31.1"/>

			<path fill="none" stroke="#6F4A21" stroke-width="2.0637" stroke-linecap="round" stroke-linejoin="round" stroke-miterlimit="10" d="
			M228.5,118.3c0,0,6.3-6.4,15-8.4c14-3.1,13.3-4.2,17.1-6.3"/>

			<path fill="none" stroke="#6F4A21" stroke-width="2.0637" stroke-linecap="round" stroke-linejoin="round" stroke-miterlimit="10" d="
			M225.7,113.7c0,0,6.6-11.9,18.8-14.7"/>

			<path fill="#EDD3B3" stroke="#C9A783" stroke-width="2.0637" stroke-linecap="round" stroke-linejoin="round" stroke-miterlimit="10" d="
			M233.7,154.5c0,0-21.1-5.5-21.9-26.5c-1.1-31.4,32.7-22.8,28.6-1.7"/>

			<path fill="#EDD3B3" stroke="#C9A783" stroke-width="2.0637" stroke-linecap="round" stroke-linejoin="round" stroke-miterlimit="10" d="
			M159.8,419.4c0,0,2.3,19.3,8.4,15.4c11.9-7.7,0-35.6,0-35.6l-24.4-2.1c0,0-7,1.4-1.4,10.5c4.8,7.8,4.2,1.4,4.2,1.4L159.8,419.4z"
			/>

			<path fill="#EDD3B3" stroke="#C9A783" stroke-width="2.0637" stroke-linecap="round" stroke-linejoin="round" stroke-miterlimit="10" d="
			M160.5,442.8c0,0-11.2,11.5-35.6-1.8c0,0-6.9-24.7,11-34.3C153.7,397.1,160.5,442.8,160.5,442.8z"/>
		<g>
			<path fill="#6F4A21" stroke="#98764F" stroke-width="2.0637" stroke-miterlimit="10" d="M246.7,611.7c0,0-17.8,9.4-53.1,11.2
				c-15.5,1.8-43.7,4.7-76.1,5.9c-31.6,1.1-61.1,0.8-77.6,0.5c-8.4-0.2-15.7-6.7-17.5-15.7c-3.8-19.5-6.5-46.5-7.4-76.3
				c-0.7-25.7-0.1-49.3,2.1-67.7c1.2-10.2,9.7-14.9,9.7-14.9s17.8-10.5,45-12.6l2.8,16.3c10.4,1.4,21.8,2.9,33.6,4.6
				c38.5,5.4,66.2,10.1,80.5,12.7c7.1,1.3,12.9,7.2,14.4,14.8c3.2,15.9,5.6,37.7,6.4,61.7c0.7,20.9,0.1,40.1-1.5,55.2
				c-0.1,0.6-0.2,1.3-0.3,1.9L246.7,611.7z"/>
			<path fill="none" stroke="#98764F" stroke-width="2.0637" stroke-miterlimit="10" d="M96.9,629.2c-10.9,0.4-33.2-0.3-41.4-1.7
				c-8.3-1.3-15.7-6.8-17.5-15.8c-3.8-19.6-6.5-50-7.4-80c-0.7-25.9-2-50,2.1-68.2C35.9,449.8,45,447,54,444.9"/>
			<path fill="#6F4A21" stroke="#98764F" stroke-width="2.0637" stroke-miterlimit="10" d="M234.5,464.7c7.3,1.3,13.2,7.4,14.8,15.2
				c3.3,16.3,5.8,38.6,6.6,63.1c0.7,21.4,0.1,41-1.5,56.4c-0.9,8.5-7,15-14.9,15.9c-15.8,1.9-44.7,4.8-77.9,6
				c-32.3,1.1-62.5,0.8-79.4,0.5c-8.6-0.2-16.1-6.9-17.9-16c-3.9-19.9-6.7-47.6-7.5-78.1c-0.7-26.3,0.1-50.4,2.1-69.3
				c1.1-10.4,9.6-17.6,19.3-16.5c16.5,2,43.6,5.4,74,9.7C191.6,457.2,219.8,462.1,234.5,464.7z"/>
			<g>

					<path fill="#A6A252" stroke="#D3CE56" stroke-width="2.0637" stroke-linecap="round" stroke-linejoin="round" stroke-miterlimit="10" d="
					M49.3,444.2c0,0-9.4,8.4,3.7,12c0,0-4.7,19.4,3.7,25.1c0,0,14.1,1,18.3-26.7c0,0,15.2-1,18.8-12c0,0-14.7-4.2-24.1-3.1
					C56.1,441.1,49.3,444.2,49.3,444.2z"/>

					<path fill="#A6A252" stroke="#D3CE56" stroke-width="2.0637" stroke-linecap="round" stroke-linejoin="round" stroke-miterlimit="10" d="
					M223.1,461.5c0,0-1.6,15.2,14.1,17.3c0,0-0.5,16.2,15.7,19.9c0,0,0-18.8-5.2-27.2C242.5,463.1,223.1,461.5,223.1,461.5z"/>

					<path fill="#A6A252" stroke="#D3CE56" stroke-width="2.0637" stroke-linecap="round" stroke-linejoin="round" stroke-miterlimit="10" d="
					M14.2,493.1c0,0,5.9-3.5,7.3-27.6c0,0,7.7-4.5,9.1-15c0,0-4.9,1.7-11.5,10.1S14.2,493.1,14.2,493.1z"/>
			</g>
		</g>
		<path fill="#423A74" stroke="#7D7DBB" stroke-width="2.0637" stroke-miterlimit="10" d="M179.6,659.3c0,0,73.6-149.9,87.8-262.2
			l-45.7-48.7l-29.7,47.8c0,0-3.4,3.6-3.7,74.9C188,557,142,644.5,142,644.5S162.9,641,179.6,659.3z"/>
		<path fill="#423A74" stroke="#7D7DBB" stroke-width="2.0637" stroke-miterlimit="10" d="M308.6,397c0,0,58.3,67.8,70.5,177
			c0,0-7.8,16.3-32.6,7.4c0,0-8.3-76.5-67.6-114.9c-66.6-43.1-64.7-92.7-64.7-92.7L308.6,397z"/>
		<path fill="#60639F" stroke="#8A8FC6" stroke-width="2.0637" stroke-miterlimit="10" d="M294.8,224.3c0,0,25.7,15.9,34,54.7
			c0,0,0.9,5.6-13.7,28.4L294.8,224.3z"/>
		<path fill="#60639F" stroke="#8A8FC6" stroke-width="2.0637" stroke-miterlimit="10" d="M316.8,271.7c0,0,11.8,19.1,13.1,35.9
			c0,0-0.5,65.7-20.3,97.1L316.8,271.7z"/>
		<path fill="#60639F" stroke="#8A8FC6" stroke-width="2.0637" stroke-miterlimit="10" d="M258.8,199.7c0,0-46.8-2.8-49.1,62.7
			c-2.4,65.5-12.7,113-37.1,177.4c0,0-0.9,4.2,17.6,6.3c4.4-6.9,15.3-23.4,23.7-64.3c0,0-1.3,32-13,65.2c20.1,1.8,62.1,0.3,109.8-34
			C310.6,413,358.3,221.4,258.8,199.7z"/>
		<path fill="#C04740" stroke="#E24739" stroke-width="2.0637" stroke-miterlimit="10" d="M223.3,215.7c0,0,34.6-22.1,83.7,23
			c0,0,0-18.1-2.8-36.3c0,0-15.4-25.1-60.5-21C243.8,181.4,222.2,203.8,223.3,215.7z"/>

			<path fill="#EDD3B3" stroke="#C9A783" stroke-width="2.0637" stroke-linecap="round" stroke-linejoin="round" stroke-miterlimit="10" d="
			M432.1,150.3c0,0,26.2-26,20.4-33.4c-5.8-7.4-15.7,7.1-15.7,7.1s25.1-35.8,12.5-48.5c-12.7-12.7-52.2,31.8-44.3,65.6L432.1,150.3z
			"/>
		<path fill="#60639F" stroke="#8A8FC6" stroke-width="2.0637" stroke-miterlimit="10" d="M293.4,212.5
			c17.9-0.3,65.3-8.5,109.2-81.3l32.1,19.1c0,0-56.5,102.6-139.2,113.1c0,0-20.9,2.8-26.5-17.9c-2.8-10.2,0-17.8,4-23.2
			C277.9,216,285.5,212.6,293.4,212.5z"/>

			<use xlink:href="#New_Symbol"  width="29.5" height="29.7" x="-14.8" y="-14.8" transform="matrix(1.9231 0 0 -1.9231 410.297 156.4913)" overflow="visible"/>

			<use xlink:href="#New_Symbol"  width="29.5" height="29.7" x="-14.8" y="-14.8" transform="matrix(-1.7527 0.7913 0.7913 1.7527 149.4994 383.3949)" overflow="visible"/>

			<use xlink:href="#New_Symbol"  width="29.5" height="29.7" x="-14.8" y="-14.8" transform="matrix(-1.7728 0.6183 0.6548 1.8772 148.1008 383.1873)" display="none" overflow="visible"/>
		<path fill="#60639F" stroke="#8A8FC6" stroke-width="2.0637" stroke-miterlimit="10" d="M303.2,345.2c0,0-2.9,16.5-3.5,26.3
			c-1.4,23,2.4,35.3,10.3,32.5c12.1-4.2,13-50,13-50S318.1,343.1,303.2,345.2z"/>
	</g>
</g>
</svg>
