<?xml version="1.0" encoding="utf-8"?>
<!-- Generator: Adobe Illustrator 18.1.1, SVG Export Plug-In . SVG Version: 6.00 Build 0)  -->
<svg version="1.1" id="Layer_1" xmlns="http://www.w3.org/2000/svg" xmlns:xlink="http://www.w3.org/1999/xlink" x="0px" y="0px"
	 viewBox="0 0 500 500" enable-background="new 0 0 500 500" xml:space="preserve">
<g>
	<rect fill="#FAAF40" width="500" height="500"/>
	<g>

			<ellipse fill="#1B75BB" stroke="#2B388F" stroke-width="1.7288" stroke-miterlimit="10" cx="250" cy="401.4" rx="98.4" ry="47.2"/>
		<ellipse fill="#1B75BB" cx="250" cy="394.7" rx="95.9" ry="40.5"/>
		<g>
			<defs>
				<path id="SVGID_1_" d="M460.9,181.5C460.9,312.1,366.5,418,250,418C133.5,418,39.1,312.1,39.1,181.5H460.9"/>
			</defs>
			<use xlink:href="#SVGID_1_"  overflow="visible" fill="#51B1D2"/>
			<clipPath id="SVGID_2_">
				<use xlink:href="#SVGID_1_"  overflow="visible"/>
			</clipPath>
			<g clip-path="url(#SVGID_2_)">
				<path fill="#1B75BB" d="M453.2,262.8c0,45-91,81.5-203.2,81.5c-112.2,0-203.2-36.5-203.2-81.5L65,302.4c0,41,82.8,74.2,185,74.2
					c102.1,0,185-33.2,185-74.2L453.2,262.8z"/>
			</g>
			<use xlink:href="#SVGID_1_"  overflow="visible" fill="none" stroke="#2B388F" stroke-width="1.7288" stroke-miterlimit="10"/>
		</g>

			<ellipse fill="#1B75BB" stroke="#2B388F" stroke-width="1.7288" stroke-miterlimit="10" cx="250" cy="186.4" rx="210.9" ry="86.8"/>
		<ellipse fill="none" stroke="#2B388F" stroke-width="1.7288" stroke-miterlimit="10" cx="250" cy="186.4" rx="178.9" ry="71.6"/>
		<g>
			<defs>
				<ellipse id="SVGID_3_" cx="250" cy="186.4" rx="178.9" ry="71.6"/>
			</defs>
			<clipPath id="SVGID_4_">
				<use xlink:href="#SVGID_3_"  overflow="visible"/>
			</clipPath>
			<ellipse clip-path="url(#SVGID_4_)" fill="#2B388F" cx="250" cy="299.8" rx="161.8" ry="64.8"/>
		</g>
	</g>
</g>
</svg>
