<?xml version="1.0" encoding="utf-8"?>
<!-- Generator: Adobe Illustrator 18.1.1, SVG Export Plug-In . SVG Version: 6.00 Build 0)  -->
<svg version="1.1" id="Layer_1" xmlns="http://www.w3.org/2000/svg" xmlns:xlink="http://www.w3.org/1999/xlink" x="0px" y="0px"
	 viewBox="0 0 500 500" enable-background="new 0 0 500 500" xml:space="preserve">
<symbol  id="New_Symbol" viewBox="-109.5 -43.1 218.9 86.3">
	<g>
		<g>
			<g>
				<path fill="#835631" d="M-90.7-43.1c0,0-0.3,0.3-0.8,1c-0.5,0.6-1.2,1.5-2.1,2.8c-0.9,1.2-1.9,2.7-3,4.5c-1.1,1.8-2.4,3.8-3.6,6
					c-1.2,2.3-2.5,4.8-3.6,7.5c-1.2,2.7-2.3,5.7-3.2,8.8c-0.5,1.6-0.9,3.2-1.3,4.8c-0.4,1.6-0.7,3.4-0.9,5.2
					c-0.4,3.6-0.4,7.5,0.9,11.6c0.7,2,1.6,4.1,3,6.1c0.4,0.5,0.7,1,1.1,1.5l1.2,1.4c0.9,0.9,2,2,3.7,2.9c0.4,0.2,0.9,0.4,1.3,0.6
					l0.2,0.1l0.2,0.1l0.2,0.1l0.4,0.1l0.4,0.1c1,0.1,1.8,0.1,2.6,0c1.5-0.2,2.6-0.7,3.5-1.2l0.2-0.1l0.2-0.1l0.1,0L-90,20l0.5-0.4
					l1.1-0.7c0.7-0.5,1.4-1.2,2.1-1.8c2.6-2.4,4.3-5.1,5.9-7.7c1.6-2.5,2.8-5,4.1-7.2c0.6-1.1,1.2-2.1,1.9-3.1
					c0.3-0.5,0.6-1,0.9-1.4c0.3-0.4,0.6-0.9,0.9-1.3c0.6-0.8,1.3-1.5,1.8-2.2c0.6-0.6,1.2-1.2,1.7-1.7c0.6-0.4,1.1-0.9,1.5-1.3
					c0.4-0.4,0.9-0.6,1.2-0.8c0.7-0.5,1.1-0.7,1.1-0.7l-0.1-0.3c0,0-0.4,0.2-1.1,0.6c-0.4,0.2-0.9,0.4-1.4,0.7
					c-0.5,0.3-1.1,0.7-1.7,1.1c-0.6,0.5-1.3,1-2,1.6c-0.6,0.7-1.4,1.3-2.1,2.1c-1.4,1.5-2.8,3.4-4.3,5.5c-1.5,2.1-2.9,4.5-4.6,6.9
					c-1.7,2.4-3.6,4.8-6,7c-0.6,0.5-1.3,1-2,1.5c-0.7,0.4-1.5,0.9-2.2,1.3c-0.8,0.4-1.6,0.7-2.6,0.9c-0.9,0.1-2,0-2.9-0.5
					c-0.9-0.5-1.7-1.2-2.4-2l-1-1.2c-0.3-0.4-0.6-0.8-0.9-1.2c-1.1-1.7-1.9-3.5-2.5-5.3c-0.6-1.8-0.9-3.6-1.1-5.3
					c-0.1-1.8-0.1-3.6,0-5.3c0.3-3.4,1-6.7,1.7-9.8c1.5-6.2,3.7-11.8,5.8-16.4c1-2.3,2.1-4.4,3.1-6.2c1-1.8,1.9-3.4,2.6-4.7
					c0.8-1.3,1.4-2.3,1.8-2.9c0.4-0.7,0.6-1,0.6-1L-90.7-43.1z"/>
			</g>
			<g>
				<path fill="#835631" d="M-55.9-26.3c0,0-0.2,0.4-0.5,1.1c-0.3,0.7-0.8,1.8-1.4,3.2c-0.6,1.4-1.2,3.1-1.9,5
					c-0.7,2-1.4,4.2-2.1,6.7c-0.7,2.5-1.3,5.2-1.8,8.1c-0.5,2.9-0.9,6-1.1,9.3c-0.1,1.6-0.1,3.3-0.1,5c0,1.7,0.1,3.5,0.3,5.2
					c0.2,1.8,0.6,3.6,1.1,5.5c0.6,1.9,1.3,3.7,2.4,5.5c1.1,1.8,2.5,3.7,4.3,5.3c0.5,0.4,0.9,0.8,1.4,1.2l1.5,1.1
					c1.1,0.7,2.4,1.5,4.2,2c0.5,0.1,0.9,0.2,1.4,0.2l0.2,0l0.3,0l0.2,0l0.4,0l0.4,0c1-0.1,1.8-0.3,2.5-0.6c1.4-0.6,2.3-1.3,3.1-2
					l0.1-0.1l0.2-0.2l0.1-0.1l0.2-0.2l0.4-0.5l0.9-1c0.6-0.7,1.1-1.5,1.7-2.3c2-3,3-6,4-8.8c0.9-2.8,1.6-5.5,2.3-7.9
					c0.4-1.2,0.7-2.3,1.1-3.4c0.2-0.5,0.4-1.1,0.6-1.6c0.2-0.5,0.4-1,0.6-1.4c0.4-0.9,0.9-1.7,1.3-2.6c0.5-0.7,0.9-1.4,1.3-2.1
					C-26,3-25.6,2.5-25.2,2c0.4-0.5,0.7-0.8,1-1.1c0.6-0.6,0.9-0.9,0.9-0.9l-0.2-0.2c0,0-0.3,0.3-1,0.8c-0.3,0.3-0.7,0.6-1.2,1
					c-0.4,0.4-0.9,0.9-1.4,1.5c-0.5,0.6-1,1.3-1.6,2c-0.5,0.8-1.1,1.6-1.6,2.5c-1,1.8-2,4-2.9,6.4c-0.9,2.4-1.8,5-2.9,7.7
					c-1.1,2.7-2.4,5.6-4.3,8.2c-0.5,0.6-1,1.3-1.6,1.9c-0.6,0.6-1.2,1.2-1.9,1.8c-0.7,0.6-1.4,1.1-2.3,1.4c-0.9,0.3-1.9,0.4-2.9,0.2
					c-1-0.2-1.9-0.8-2.8-1.4L-53,33c-0.4-0.3-0.8-0.7-1.2-1c-1.5-1.4-2.7-2.9-3.7-4.5c-1.9-3.3-2.9-6.7-3.4-10.1
					c-0.5-3.4-0.6-6.8-0.6-10C-61.7,1.1-61-4.8-60-9.8c0.5-2.5,1-4.8,1.5-6.8c0.5-2,1-3.7,1.4-5.1c0.4-1.4,0.8-2.5,1-3.3
					c0.3-0.8,0.4-1.2,0.4-1.2L-55.9-26.3z"/>
			</g>
			<g>
				<path fill="#835631" d="M-18-17.8c0,0-0.1,0.4-0.2,1.2c-0.2,0.8-0.4,1.9-0.6,3.4c-0.2,1.5-0.5,3.3-0.7,5.4
					c-0.2,2.1-0.4,4.4-0.5,7c-0.1,2.6-0.1,5.4,0.1,8.3c0.2,3,0.5,6.1,1.1,9.3c0.3,1.6,0.6,3.2,1,4.9c0.4,1.6,0.9,3.4,1.5,5.1
					c1.3,3.4,3,6.8,6,9.9c1.5,1.6,3.3,2.9,5.4,4.1c0.5,0.3,1.1,0.6,1.6,0.8l1.7,0.7c1.2,0.5,2.7,0.9,4.6,0.9c0.5,0,1,0,1.5-0.1
					l0.2,0l0.3,0l0.2,0l0.4-0.1l0.4-0.1C6.7,42.4,7.4,42,8,41.6c1.2-0.9,2-1.8,2.6-2.7l0.1-0.2l0.1-0.2l0-0.1l0.2-0.3l0.3-0.6
					l0.6-1.1c0.4-0.8,0.8-1.7,1.1-2.6c1.2-3.3,1.6-6.5,1.8-9.5c0.3-3,0.3-5.7,0.4-8.2c0.1-1.2,0.2-2.5,0.3-3.6
					c0.1-0.6,0.1-1.1,0.2-1.7c0.1-0.5,0.2-1,0.3-1.5c0.2-1,0.5-1.9,0.6-2.8c0.3-0.8,0.5-1.6,0.8-2.3c0.3-0.7,0.6-1.3,0.8-1.8
					C18.5,2,18.8,1.6,19,1.3c0.4-0.7,0.6-1.1,0.6-1.1L19.4,0c0,0-0.3,0.4-0.8,1c-0.2,0.3-0.6,0.7-0.9,1.2c-0.3,0.5-0.6,1.1-1,1.8
					c-0.3,0.7-0.7,1.5-1,2.3c-0.3,0.9-0.7,1.8-0.9,2.8c-0.6,2-1,4.4-1.4,6.9c-0.3,2.5-0.6,5.3-1,8.2c-0.4,2.9-1,5.9-2.2,9
					C9.7,34,9.4,34.8,9,35.5c-0.5,0.7-0.9,1.5-1.4,2.2c-0.5,0.7-1.1,1.4-1.9,1.9c-0.8,0.5-1.8,0.9-2.8,0.8c-1,0-2.1-0.3-3-0.6
					l-1.4-0.6C-2,39-2.5,38.7-2.9,38.5c-1.8-1-3.3-2.2-4.6-3.5c-2.6-2.7-4.4-5.9-5.7-9c-1.3-3.2-2.1-6.4-2.8-9.5
					c-1.4-6.3-2-12.2-2.2-17.3c-0.1-2.5-0.1-4.9-0.1-6.9c0-2.1,0.1-3.9,0.2-5.3c0.1-1.5,0.2-2.6,0.3-3.4c0.1-0.8,0.1-1.2,0.1-1.2
					L-18-17.8z"/>
			</g>
			<g>
				<path fill="#835631" d="M20.6-18.5c0,0,0,0.4,0,1.2c0,0.8,0.1,2,0.2,3.5c0.1,1.5,0.3,3.3,0.6,5.4C21.6-6.3,22-4,22.5-1.5
					c0.5,2.5,1.2,5.2,2.1,8.1c0.9,2.8,1.9,5.8,3.2,8.8c0.7,1.5,1.4,3,2.1,4.5c0.7,1.5,1.6,3,2.6,4.5c2,3,4.5,5.9,8.1,8.3
					c1.8,1.1,3.9,2.1,6.2,2.7c0.6,0.1,1.2,0.3,1.8,0.4c0,0,0.5,0.1,0.9,0.2c0.5,0.1,0.9,0.1,0.9,0.1c1.3,0.1,2.8,0.2,4.6-0.2
					c0.5-0.1,0.9-0.2,1.4-0.4l0.2-0.1l0.2-0.1l0.2-0.1l0.3-0.2l0.4-0.2c0.8-0.5,1.5-1.1,2-1.7c1-1.1,1.5-2.2,1.9-3.2l0.1-0.2
					l0.1-0.2l0-0.1l0.1-0.3l0.2-0.6l0.4-1.2c0.2-0.9,0.3-1.8,0.5-2.7c0.4-3.5,0-6.7-0.4-9.7c-0.4-2.9-1-5.6-1.5-8.1
					c-0.2-1.2-0.4-2.4-0.5-3.5c-0.1-0.6-0.2-1.1-0.2-1.6c0-0.5-0.1-1.1-0.1-1.6c-0.1-1,0-2,0-2.8c0.1-0.9,0.2-1.7,0.2-2.4
					c0.2-0.7,0.3-1.4,0.4-1.9c0.1-0.6,0.3-1,0.4-1.4c0.2-0.8,0.4-1.2,0.4-1.2l-0.3-0.1c0,0-0.2,0.4-0.5,1.2
					c-0.1,0.4-0.4,0.9-0.6,1.4c-0.2,0.6-0.4,1.2-0.6,2c-0.1,0.7-0.3,1.6-0.5,2.5c-0.1,0.9-0.2,1.9-0.2,2.9c-0.1,2.1,0,4.5,0.3,7
					c0.3,2.6,0.6,5.3,0.9,8.2c0.3,2.9,0.4,6-0.1,9.2c-0.2,0.8-0.3,1.6-0.5,2.4c-0.3,0.8-0.5,1.7-0.8,2.5c-0.3,0.8-0.8,1.6-1.4,2.3
					c-0.6,0.7-1.5,1.2-2.5,1.4c-1,0.2-2.1,0.2-3.1,0.1L50,33.1c-0.5-0.1-1-0.2-1.5-0.3c-1.9-0.6-3.7-1.4-5.3-2.4
					c-1.6-1-3-2.1-4.3-3.4c-1.3-1.3-2.4-2.6-3.4-4c-2-2.8-3.6-5.7-5-8.6c-2.8-5.7-4.8-11.4-6.2-16.3c-0.7-2.4-1.2-4.7-1.7-6.7
					c-0.4-2-0.8-3.8-1-5.2c-0.2-1.5-0.4-2.6-0.5-3.4c-0.1-0.8-0.2-1.2-0.2-1.2L20.6-18.5z"/>
			</g>
			<g>
				<path fill="#835631" d="M58.2-28.1c0,0,0.1,0.4,0.3,1.2c0.2,0.8,0.5,1.9,1,3.3c0.5,1.4,1,3.2,1.8,5.1c0.7,1.9,1.6,4.1,2.7,6.5
					c1.1,2.3,2.4,4.8,3.9,7.4C69.3-2,71,0.6,73,3.2c1,1.3,2,2.6,3.1,3.9c1.1,1.3,2.3,2.6,3.6,3.8c2.6,2.4,5.8,4.8,9.8,6.2
					c2,0.7,4.3,1.2,6.6,1.3c0.6,0,1.2,0,1.8,0l1.8-0.1c1.3-0.2,2.8-0.4,4.5-1.2c0.4-0.2,0.8-0.5,1.3-0.8l0.2-0.1l0.2-0.2l0.2-0.1
					l0.3-0.2l0.3-0.3c0.7-0.7,1.2-1.4,1.5-2c0.7-1.3,1-2.5,1.1-3.5l0-0.2l0-0.2l0-0.1l0-0.3l0-0.7l0.1-1.3c0-0.9-0.1-1.9-0.2-2.8
					c-0.4-3.5-1.5-6.5-2.6-9.3c-1.1-2.8-2.3-5.2-3.3-7.5c-0.5-1.2-1-2.3-1.3-3.3c-0.2-0.5-0.4-1-0.6-1.6c-0.2-0.5-0.3-1-0.5-1.5
					c-0.3-1-0.4-1.9-0.7-2.8c-0.1-0.9-0.2-1.7-0.4-2.4c0-0.7-0.1-1.4-0.1-2c0-0.6,0-1.1,0.1-1.5c0-0.8,0.1-1.3,0.1-1.3l-0.3,0
					c0,0-0.1,0.4-0.2,1.3c-0.1,0.4-0.2,0.9-0.2,1.5c0,0.6-0.1,1.3-0.1,2.1c0,0.8,0.1,1.6,0.1,2.5c0.1,0.9,0.2,1.9,0.4,2.9
					c0.4,2.1,1.1,4.3,1.9,6.8c0.8,2.4,1.8,5,2.8,7.8c0.9,2.8,1.8,5.8,2,9.1c0,0.8,0.1,1.6,0,2.5c-0.1,0.9-0.1,1.7-0.3,2.6
					c-0.1,0.9-0.4,1.7-0.9,2.6c-0.5,0.8-1.2,1.6-2.1,2c-0.9,0.4-2,0.6-3,0.7l-1.6,0.1c-0.5,0-1,0-1.5,0c-1,0-2-0.2-2.9-0.3
					c-1-0.2-1.9-0.5-2.8-0.8c-3.6-1.2-6.5-3.2-9.1-5.5c-2.6-2.3-4.8-4.8-6.9-7.3c-4.1-5-7.3-9.9-9.8-14.4c-1.2-2.2-2.3-4.3-3.2-6.2
					c-0.9-1.9-1.6-3.5-2.2-4.9c-0.6-1.4-1-2.4-1.3-3.2c-0.3-0.7-0.5-1.1-0.5-1.1L58.2-28.1z"/>
			</g>
		</g>
	</g>
</symbol>
<symbol  id="New_Symbol_1" viewBox="-30.9 -43.8 61.7 87.6">
	<g>
		<g>
			<g>
				<path fill="#835631" d="M-19.4-43.8c0,0-0.1,0.2-0.3,0.4c-0.2,0.3-0.4,0.7-0.8,1.3c-0.3,0.6-0.7,1.2-1.1,2
					c-0.4,0.8-0.8,1.7-1.2,2.7c-0.4,1-0.8,2.1-1.2,3.3c-0.4,1.2-0.7,2.5-1,3.9c-0.1,0.7-0.2,1.4-0.3,2.1c-0.1,0.7-0.2,1.5-0.2,2.2
					c0,1.5,0.1,3.1,0.8,4.8c0.3,0.8,0.8,1.7,1.4,2.4c0.2,0.2,0.3,0.4,0.5,0.6l0.5,0.5c0.4,0.4,0.8,0.8,1.6,1.1
					c0.2,0.1,0.4,0.1,0.6,0.2l0.1,0l0.1,0l0.1,0l0.1,0l0.2,0c0.4,0,0.7,0,1.1-0.1c0.6-0.1,1-0.4,1.4-0.6l0.1,0l0.1-0.1l0,0l0.1-0.1
					l0.2-0.2l0.4-0.3c0.3-0.2,0.6-0.5,0.9-0.8c1-1.1,1.7-2.3,2.3-3.4c0.6-1.1,1.1-2.2,1.6-3.1c0.3-0.5,0.5-0.9,0.7-1.3
					c0.1-0.2,0.2-0.4,0.4-0.6c0.1-0.2,0.2-0.4,0.4-0.6c0.2-0.4,0.5-0.7,0.7-1c0.3-0.3,0.5-0.5,0.7-0.8c0.2-0.2,0.4-0.4,0.6-0.6
					c0.2-0.2,0.4-0.3,0.5-0.4c0.3-0.2,0.4-0.3,0.4-0.3L-7-30.4c0,0-0.2,0.1-0.5,0.3c-0.2,0.1-0.4,0.2-0.6,0.3
					c-0.2,0.1-0.5,0.3-0.7,0.5c-0.2,0.2-0.5,0.5-0.8,0.7c-0.3,0.3-0.6,0.6-0.9,0.9c-0.6,0.7-1.1,1.5-1.7,2.5c-0.6,0.9-1.2,2-1.8,3
					c-0.7,1.1-1.4,2.1-2.4,3.1c-0.3,0.2-0.5,0.5-0.8,0.7c-0.3,0.2-0.6,0.4-0.9,0.6c-0.3,0.2-0.7,0.4-1,0.4c-0.4,0.1-0.8,0.1-1.2-0.1
					c-0.4-0.2-0.7-0.5-1-0.7l-0.4-0.5c-0.1-0.2-0.3-0.3-0.4-0.5c-0.5-0.7-0.9-1.4-1.2-2.1c-0.6-1.5-0.8-3-0.8-4.4
					c0-1.5,0.2-2.9,0.3-4.2c0.4-2.7,1-5.2,1.7-7.2c0.3-1,0.7-2,1-2.8c0.3-0.8,0.6-1.5,0.9-2.1c0.3-0.6,0.5-1,0.6-1.3
					c0.1-0.3,0.2-0.5,0.2-0.5L-19.4-43.8z"/>
			</g>
			<g>
				<path fill="#835631" d="M-2.7-37.2c0,0-0.1,0.2-0.2,0.5c-0.1,0.3-0.3,0.8-0.5,1.4C-3.7-34.7-4-34-4.2-33.1
					c-0.3,0.8-0.5,1.8-0.8,2.9c-0.2,1.1-0.5,2.2-0.6,3.5c-0.2,1.3-0.3,2.6-0.3,4c0,0.7,0,1.4,0,2.1c0,0.7,0.1,1.5,0.2,2.2
					c0.2,1.5,0.6,3.1,1.5,4.6c0.5,0.8,1,1.5,1.8,2.2c0.2,0.2,0.4,0.3,0.6,0.5l0.6,0.5c0.4,0.3,1,0.6,1.7,0.8c0.2,0,0.4,0.1,0.6,0.1
					l0.1,0l0.1,0l0.1,0l0.1,0l0.2,0c0.4,0,0.7-0.1,1-0.2c0.6-0.2,1-0.5,1.3-0.8l0.1-0.1L4.1-11l0,0l0.1-0.1l0.2-0.2l0.4-0.4
					c0.2-0.3,0.5-0.6,0.7-1c0.8-1.3,1.3-2.5,1.7-3.7c0.4-1.2,0.7-2.3,1-3.4c0.2-0.5,0.3-1,0.5-1.4c0.1-0.2,0.2-0.5,0.2-0.7
					c0.1-0.2,0.2-0.4,0.3-0.6c0.2-0.4,0.4-0.7,0.6-1.1c0.2-0.3,0.4-0.6,0.6-0.9c0.2-0.2,0.4-0.5,0.5-0.7c0.2-0.2,0.3-0.3,0.4-0.5
					c0.2-0.2,0.4-0.4,0.4-0.4L11.7-26c0,0-0.1,0.1-0.4,0.3c-0.1,0.1-0.3,0.2-0.5,0.4c-0.2,0.2-0.4,0.4-0.6,0.6
					c-0.2,0.2-0.4,0.5-0.7,0.8c-0.2,0.3-0.5,0.7-0.7,1.1C8.3-22,7.9-21,7.4-20c-0.4,1-0.8,2.1-1.3,3.3c-0.5,1.2-1,2.4-1.8,3.5
					c-0.2,0.3-0.4,0.6-0.7,0.8c-0.3,0.3-0.5,0.5-0.8,0.8c-0.3,0.2-0.6,0.5-1,0.6c-0.4,0.1-0.8,0.2-1.2,0.1c-0.4-0.1-0.8-0.3-1.1-0.6
					l-0.5-0.4c-0.2-0.1-0.3-0.3-0.5-0.4c-0.6-0.6-1.1-1.2-1.5-1.9c-0.8-1.4-1.2-2.8-1.5-4.3c-0.2-1.4-0.3-2.8-0.3-4.2
					c-0.1-2.7,0.2-5.3,0.5-7.4c0.2-1.1,0.4-2,0.5-2.9c0.2-0.9,0.4-1.6,0.5-2.2c0.2-0.6,0.3-1.1,0.4-1.4c0.1-0.3,0.1-0.5,0.1-0.5
					L-2.7-37.2z"/>
			</g>
			<g>
				<path fill="#835631" d="M14.7-33.4c0,0,0,0.2-0.1,0.5c-0.1,0.3-0.2,0.8-0.3,1.4c-0.1,0.6-0.2,1.4-0.4,2.3
					c-0.1,0.9-0.2,1.9-0.3,3c-0.1,1.1-0.1,2.3,0,3.5c0.1,1.3,0.2,2.6,0.4,4c0.1,0.7,0.2,1.4,0.4,2.1c0.1,0.7,0.3,1.4,0.6,2.2
					c0.5,1.4,1.2,2.9,2.3,4.3c0.6,0.7,1.3,1.3,2.1,1.8c0.2,0.1,0.4,0.3,0.6,0.4l0.7,0.3c0.5,0.2,1.1,0.4,1.9,0.5c0.2,0,0.4,0,0.6,0
					l0.1,0l0.1,0l0.1,0l0.1,0l0.2,0c0.4-0.1,0.7-0.3,1-0.4c0.5-0.3,0.9-0.7,1.1-1.1l0-0.1L26-8.9l0,0L26.1-9l0.1-0.2l0.3-0.5
					c0.2-0.3,0.4-0.7,0.5-1.1c0.6-1.4,0.8-2.7,1-4c0.2-1.2,0.3-2.4,0.4-3.5c0.1-0.5,0.1-1,0.2-1.5c0-0.2,0.1-0.5,0.1-0.7
					c0.1-0.2,0.1-0.4,0.2-0.6c0.1-0.4,0.3-0.8,0.3-1.2c0.1-0.3,0.3-0.7,0.4-1c0.1-0.3,0.3-0.5,0.4-0.7c0.1-0.2,0.3-0.4,0.4-0.5
					c0.2-0.3,0.3-0.4,0.3-0.4L30.8-25c0,0-0.1,0.1-0.4,0.4c-0.1,0.1-0.3,0.3-0.4,0.5c-0.1,0.2-0.3,0.5-0.5,0.7
					c-0.2,0.3-0.3,0.6-0.5,1c-0.1,0.4-0.3,0.7-0.5,1.2c-0.3,0.8-0.5,1.8-0.8,2.9c-0.2,1.1-0.4,2.2-0.7,3.5c-0.3,1.2-0.6,2.5-1.2,3.8
					c-0.2,0.3-0.3,0.6-0.5,0.9c-0.2,0.3-0.4,0.6-0.6,0.9c-0.2,0.3-0.5,0.6-0.8,0.8c-0.3,0.2-0.7,0.3-1.2,0.3c-0.4,0-0.8-0.2-1.2-0.3
					l-0.6-0.3c-0.2-0.1-0.4-0.2-0.5-0.3c-0.7-0.5-1.3-1-1.8-1.6c-1.1-1.2-1.7-2.5-2.2-3.9c-0.5-1.4-0.8-2.8-1.1-4.1
					c-0.5-2.7-0.7-5.2-0.8-7.4c0-1.1,0-2.1,0-3c0-0.9,0.1-1.6,0.1-2.3c0.1-0.6,0.1-1.1,0.1-1.5c0-0.3,0.1-0.5,0.1-0.5L14.7-33.4z"/>
			</g>
		</g>
	</g>
	<g>
		<g>
			<g>
				<path fill="#835631" d="M-17.9-13.3c0,0-0.1,0.1-0.3,0.3c-0.2,0.2-0.5,0.5-0.8,0.9c-0.3,0.4-0.8,0.9-1.2,1.5
					c-0.4,0.6-0.9,1.3-1.4,2c-0.5,0.8-1,1.6-1.5,2.6c-0.5,0.9-1,1.9-1.4,3c-0.2,0.5-0.4,1.1-0.6,1.7c-0.2,0.6-0.4,1.2-0.5,1.8
					c-0.3,1.3-0.4,2.6-0.1,4.1c0.1,0.7,0.4,1.5,0.8,2.2c0.1,0.2,0.2,0.4,0.3,0.5l0.4,0.5c0.3,0.3,0.6,0.8,1.1,1.1
					c0.1,0.1,0.3,0.2,0.4,0.2l0.1,0l0.1,0l0.1,0l0.1,0l0.1,0c0.3,0.1,0.6,0.1,0.9,0.1c0.5,0,0.9-0.2,1.3-0.3l0.1,0l0.1,0l0,0
					l0.1-0.1l0.2-0.1l0.4-0.2c0.3-0.2,0.6-0.4,0.8-0.5c1-0.7,1.8-1.6,2.4-2.4c0.7-0.8,1.2-1.6,1.8-2.3c0.3-0.3,0.5-0.7,0.8-1
					c0.1-0.2,0.3-0.3,0.4-0.4c0.1-0.1,0.3-0.3,0.4-0.4c0.2-0.3,0.5-0.5,0.7-0.7c0.3-0.2,0.5-0.4,0.7-0.5c0.2-0.1,0.4-0.3,0.6-0.4
					c0.2-0.1,0.3-0.2,0.5-0.2c0.3-0.1,0.4-0.2,0.4-0.2l0-0.1c0,0-0.2,0-0.4,0.1c-0.1,0.1-0.3,0.1-0.5,0.2c-0.2,0.1-0.4,0.2-0.7,0.3
					c-0.2,0.1-0.5,0.3-0.8,0.5c-0.3,0.2-0.6,0.4-0.8,0.6c-0.6,0.5-1.2,1.1-1.8,1.8c-0.6,0.7-1.3,1.4-1.9,2.2
					c-0.7,0.8-1.5,1.6-2.4,2.2C-19.5,7.7-19.7,7.9-20,8c-0.3,0.1-0.6,0.3-0.8,0.4c-0.3,0.1-0.6,0.2-0.9,0.2c-0.3,0-0.7-0.1-1-0.3
					c-0.3-0.2-0.5-0.5-0.7-0.8l-0.3-0.4c-0.1-0.1-0.2-0.3-0.3-0.5c-0.3-0.6-0.5-1.3-0.6-1.9c-0.2-1.3-0.2-2.6,0.1-3.8
					c0.2-1.2,0.6-2.3,0.9-3.4c0.7-2.2,1.7-4.1,2.5-5.7c0.4-0.8,0.9-1.5,1.2-2.1c0.4-0.6,0.7-1.2,1-1.6c0.3-0.4,0.5-0.8,0.7-1
					C-17.9-13.1-17.8-13.2-17.9-13.3L-17.9-13.3z"/>
			</g>
			<g>
				<path fill="#835631" d="M-6.1-5.7c0,0-0.1,0.1-0.2,0.4c-0.2,0.2-0.4,0.6-0.7,1c-0.3,0.5-0.6,1-0.9,1.7C-8.3-2-8.7-1.2-9-0.4
					c-0.4,0.8-0.7,1.8-1.1,2.8c-0.3,1-0.6,2.1-0.9,3.2c-0.1,0.6-0.2,1.1-0.3,1.7c-0.1,0.6-0.2,1.2-0.2,1.9c0,1.3,0.1,2.7,0.6,4.1
					c0.3,0.7,0.7,1.4,1.2,2.1c0.1,0.2,0.3,0.3,0.4,0.5l0.5,0.5c0.3,0.3,0.7,0.6,1.3,0.9c0.2,0.1,0.3,0.1,0.5,0.2l0.1,0l0.1,0l0.1,0
					l0.1,0l0.2,0c0.3,0,0.6,0,0.9-0.1c0.5-0.1,0.9-0.3,1.2-0.5l0.1,0l0.1,0l0,0l0.1-0.1l0.2-0.1l0.4-0.3c0.2-0.2,0.5-0.5,0.7-0.7
					c0.9-0.9,1.4-1.9,1.9-2.9c0.5-0.9,0.9-1.8,1.3-2.6C0.5,9.7,0.7,9.3,0.9,9C1,8.8,1.1,8.6,1.2,8.5C1.3,8.3,1.4,8.1,1.5,8
					c0.2-0.3,0.4-0.6,0.6-0.8c0.2-0.2,0.4-0.5,0.6-0.6C2.9,6.4,3,6.2,3.2,6.1c0.1-0.1,0.3-0.2,0.4-0.3C3.8,5.6,4,5.5,4,5.5L3.9,5.4
					c0,0-0.1,0.1-0.4,0.2C3.4,5.7,3.2,5.8,3.1,5.9C2.9,6,2.7,6.2,2.5,6.3C2.3,6.5,2,6.7,1.8,6.9C1.6,7.2,1.3,7.4,1.1,7.7
					C0.6,8.3,0.2,9-0.3,9.8c-0.5,0.8-1,1.6-1.5,2.5c-0.5,0.9-1.2,1.8-2,2.6c-0.2,0.2-0.4,0.4-0.7,0.6c-0.2,0.2-0.5,0.4-0.8,0.5
					c-0.3,0.2-0.6,0.3-0.9,0.4c-0.3,0.1-0.7,0-1-0.1C-7.4,16.2-7.7,16-8,15.7l-0.4-0.4c-0.1-0.1-0.2-0.3-0.3-0.4
					c-0.4-0.5-0.8-1.2-1-1.8c-0.5-1.2-0.6-2.5-0.6-3.7c0-1.2,0.2-2.4,0.4-3.5c0.4-2.3,1-4.3,1.6-6C-8.1-1-7.8-1.8-7.5-2.4
					C-7.2-3.1-7-3.7-6.7-4.2C-6.5-4.6-6.3-5-6.2-5.3C-6.1-5.5-6-5.7-6.1-5.7L-6.1-5.7z"/>
			</g>
			<g>
				<path fill="#835631" d="M6.4-0.6c0,0-0.1,0.1-0.2,0.4C6.2,0,6,0.4,5.8,0.9C5.7,1.4,5.5,2,5.3,2.8C5.1,3.5,4.8,4.3,4.7,5.2
					C4.5,6.1,4.3,7.1,4.2,8.1C4.1,9.2,4,10.3,4,11.4c0,0.6,0,1.2,0.1,1.8c0,0.6,0.1,1.2,0.2,1.9c0.2,1.2,0.7,2.6,1.5,3.8
					c0.4,0.6,1,1.2,1.7,1.8c0.2,0.1,0.3,0.3,0.5,0.4l0.6,0.4c0.4,0.2,0.9,0.5,1.6,0.6c0.2,0,0.3,0,0.5,0l0.1,0l0.1,0l0.1,0l0.1,0
					l0.2,0c0.3,0,0.6-0.1,0.9-0.3c0.5-0.2,0.8-0.5,1.1-0.8l0-0.1l0.1-0.1l0,0l0.1-0.1l0.1-0.2l0.3-0.4c0.2-0.3,0.4-0.6,0.5-0.8
					c0.6-1.1,0.9-2.2,1.2-3.2c0.3-1,0.4-2,0.6-2.9c0.1-0.4,0.2-0.9,0.3-1.2c0.1-0.2,0.1-0.4,0.2-0.6c0.1-0.2,0.1-0.4,0.2-0.5
					c0.1-0.3,0.3-0.6,0.4-0.9c0.1-0.3,0.3-0.5,0.4-0.8c0.1-0.2,0.3-0.4,0.4-0.6c0.1-0.2,0.2-0.3,0.3-0.4c0.2-0.2,0.3-0.3,0.3-0.3
					l-0.1-0.1c0,0-0.1,0.1-0.3,0.3c-0.1,0.1-0.2,0.2-0.4,0.4c-0.1,0.2-0.3,0.4-0.5,0.6c-0.1,0.2-0.3,0.5-0.5,0.8
					c-0.1,0.3-0.3,0.6-0.5,0.9c-0.3,0.7-0.6,1.5-0.8,2.3c-0.3,0.9-0.5,1.8-0.8,2.8c-0.3,1-0.7,2-1.3,3c-0.2,0.2-0.3,0.5-0.5,0.7
					c-0.2,0.2-0.4,0.5-0.6,0.7c-0.2,0.2-0.5,0.4-0.8,0.6c-0.3,0.1-0.7,0.2-1,0.1c-0.4-0.1-0.7-0.2-1-0.4l-0.5-0.3
					c-0.1-0.1-0.3-0.2-0.4-0.3c-0.6-0.5-1-1-1.4-1.5c-0.8-1.1-1.2-2.3-1.5-3.5c-0.3-1.2-0.4-2.4-0.4-3.5c-0.1-2.3,0-4.4,0.3-6.2
					c0.1-0.9,0.3-1.7,0.4-2.4C5.8,2.1,6,1.5,6.1,1c0.1-0.5,0.2-0.9,0.3-1.2C6.5-0.5,6.5-0.6,6.4-0.6L6.4-0.6z"/>
			</g>
		</g>
	</g>
	<g>
		<g>
			<g>
				<path fill="#835631" d="M-29.6,21.5c0,0,0,0.1-0.1,0.4c-0.1,0.3-0.2,0.7-0.3,1.2c-0.1,0.5-0.3,1.2-0.4,1.9
					c-0.1,0.7-0.2,1.6-0.3,2.5c-0.1,0.9-0.1,1.9-0.1,3c0,1.1,0,2.2,0.2,3.3c0.1,0.6,0.1,1.2,0.2,1.8c0.1,0.6,0.2,1.2,0.4,1.8
					c0.3,1.2,0.9,2.5,1.8,3.7c0.5,0.6,1,1.1,1.7,1.6c0.2,0.1,0.3,0.2,0.5,0.3l0.6,0.3c0.4,0.2,0.9,0.4,1.5,0.5c0.2,0,0.3,0,0.5,0
					l0.1,0l0.1,0l0.1,0l0.1,0l0.1,0c0.3-0.1,0.6-0.2,0.8-0.3c0.5-0.3,0.7-0.6,1-0.8l0-0.1l0-0.1l0,0l0.1-0.1l0.1-0.2l0.3-0.4
					c0.2-0.3,0.3-0.6,0.5-0.9c0.6-1.1,0.8-2.2,1-3.3c0.2-1,0.3-2,0.5-2.9c0.1-0.4,0.2-0.9,0.3-1.3c0-0.2,0.1-0.4,0.1-0.6
					c0.1-0.2,0.1-0.4,0.2-0.5c0.1-0.3,0.2-0.7,0.3-1c0.1-0.3,0.3-0.5,0.4-0.8c0.1-0.2,0.3-0.4,0.4-0.6c0.1-0.2,0.2-0.3,0.3-0.4
					c0.2-0.2,0.3-0.4,0.3-0.4l-0.1-0.1c0,0-0.1,0.1-0.3,0.3c-0.1,0.1-0.2,0.2-0.4,0.4c-0.1,0.2-0.3,0.4-0.5,0.6
					c-0.1,0.2-0.3,0.5-0.5,0.8c-0.1,0.3-0.3,0.6-0.5,1c-0.3,0.7-0.5,1.5-0.8,2.4c-0.2,0.9-0.5,1.8-0.7,2.8c-0.3,1-0.6,2.1-1.1,3.1
					c-0.2,0.2-0.3,0.5-0.5,0.8c-0.2,0.2-0.4,0.5-0.6,0.7c-0.2,0.2-0.4,0.5-0.7,0.6c-0.3,0.2-0.6,0.2-1,0.2c-0.4,0-0.7-0.2-1-0.3
					l-0.5-0.3c-0.1-0.1-0.3-0.2-0.4-0.3c-0.6-0.4-1.1-0.9-1.5-1.4c-0.8-1-1.3-2.2-1.7-3.4c-0.4-1.2-0.6-2.3-0.7-3.5
					c-0.3-2.3-0.4-4.4-0.4-6.2c0-0.9,0.1-1.7,0.1-2.5c0.1-0.7,0.1-1.4,0.2-1.9c0.1-0.5,0.1-0.9,0.2-1.2c0-0.3,0.1-0.4,0.1-0.4
					L-29.6,21.5z"/>
			</g>
			<g>
				<path fill="#835631" d="M-15.6,22.8c0,0,0,0.2,0,0.4c0,0.3-0.1,0.7-0.1,1.2c0,0.5-0.1,1.2-0.1,1.9c0,0.7,0,1.6,0.1,2.5
					c0.1,0.9,0.2,1.9,0.3,2.9c0.2,1,0.4,2.1,0.7,3.2c0.2,0.6,0.3,1.1,0.5,1.7c0.2,0.6,0.4,1.2,0.7,1.7c0.5,1.2,1.3,2.3,2.4,3.3
					c0.6,0.5,1.2,0.9,2,1.3c0.2,0.1,0.4,0.2,0.6,0.2l0.6,0.2c0.4,0.1,1,0.2,1.6,0.2c0.2,0,0.3,0,0.5-0.1l0.1,0l0.1,0l0.1,0l0.1,0
					l0.1-0.1c0.3-0.1,0.6-0.3,0.8-0.5c0.4-0.3,0.6-0.7,0.8-1l0-0.1l0-0.1l0,0l0-0.1l0.1-0.2l0.2-0.4c0.1-0.3,0.2-0.6,0.3-0.9
					c0.3-1.2,0.4-2.4,0.4-3.4c0-1.1-0.1-2-0.1-2.9c0-0.4,0-0.9,0-1.3c0-0.2,0-0.4,0-0.6c0-0.2,0-0.4,0-0.6c0-0.4,0.1-0.7,0.1-1
					c0.1-0.3,0.1-0.6,0.2-0.8C-2.1,29.4-2,29.2-2,29c0.1-0.2,0.2-0.3,0.2-0.5c0.1-0.3,0.2-0.4,0.2-0.4L-1.6,28c0,0-0.1,0.1-0.2,0.4
					c-0.1,0.1-0.2,0.3-0.3,0.5c-0.1,0.2-0.2,0.4-0.3,0.7c-0.1,0.3-0.2,0.5-0.3,0.8C-2.9,30.7-3,31-3,31.4c-0.2,0.7-0.2,1.6-0.3,2.5
					c0,0.9-0.1,1.9-0.1,2.9c-0.1,1-0.2,2.1-0.5,3.2c-0.1,0.3-0.2,0.5-0.3,0.8c-0.1,0.3-0.3,0.6-0.4,0.8c-0.2,0.3-0.4,0.5-0.6,0.7
					c-0.3,0.2-0.6,0.3-1,0.4c-0.4,0-0.7-0.1-1.1-0.2L-8,42.5c-0.2-0.1-0.3-0.1-0.5-0.2c-0.6-0.3-1.2-0.7-1.7-1.1
					c-1-0.9-1.7-1.9-2.3-3c-0.5-1.1-0.9-2.2-1.3-3.3c-0.7-2.2-1.1-4.3-1.4-6c-0.1-0.9-0.2-1.7-0.3-2.4c-0.1-0.7-0.1-1.4-0.1-1.9
					c0-0.5,0-0.9,0-1.2c0-0.3,0-0.4,0-0.4L-15.6,22.8z"/>
			</g>
			<g>
				<path fill="#835631" d="M-2.2,21.5c0,0,0,0.2,0,0.4c0,0.3,0.1,0.7,0.2,1.2c0.1,0.5,0.2,1.2,0.3,1.9c0.1,0.7,0.3,1.5,0.6,2.4
					c0.2,0.9,0.5,1.8,0.9,2.8c0.4,1,0.8,2,1.4,3c0.3,0.5,0.6,1,0.9,1.6c0.3,0.5,0.7,1.1,1.1,1.6c0.8,1,1.8,2,3.1,2.7
					c0.7,0.4,1.4,0.6,2.3,0.8c0.2,0,0.4,0.1,0.6,0.1l0.7,0.1c0.5,0,1,0,1.7-0.2c0.2-0.1,0.3-0.1,0.5-0.2l0.1,0l0.1,0l0.1,0l0.1-0.1
					l0.1-0.1c0.3-0.2,0.5-0.4,0.7-0.6c0.3-0.4,0.5-0.8,0.6-1.2l0-0.1l0-0.1l0,0l0-0.1l0-0.2l0.1-0.5c0-0.3,0.1-0.7,0.1-1
					c0-1.3-0.2-2.4-0.5-3.4c-0.2-1-0.6-2-0.8-2.8c-0.1-0.4-0.2-0.8-0.3-1.2c0-0.2-0.1-0.4-0.1-0.6c0-0.2-0.1-0.4-0.1-0.6
					c-0.1-0.4-0.1-0.7-0.1-1c0-0.3,0-0.6,0-0.9c0-0.3,0-0.5,0.1-0.7c0-0.2,0.1-0.4,0.1-0.5c0.1-0.3,0.1-0.4,0.1-0.4l-0.1,0
					c0,0,0,0.1-0.1,0.4c0,0.1-0.1,0.3-0.2,0.5c0,0.2-0.1,0.4-0.1,0.7c0,0.3-0.1,0.6-0.1,0.9c0,0.3,0,0.7,0,1.1
					c0,0.7,0.2,1.6,0.3,2.5c0.2,0.9,0.4,1.9,0.6,2.9c0.2,1,0.3,2.1,0.2,3.3c0,0.3-0.1,0.6-0.1,0.9c-0.1,0.3-0.1,0.6-0.2,0.9
					c-0.1,0.3-0.2,0.6-0.5,0.9c-0.2,0.3-0.5,0.5-0.9,0.6c-0.4,0.1-0.7,0.1-1.1,0.1l-0.6-0.1c-0.2,0-0.4-0.1-0.5-0.1
					c-0.7-0.1-1.4-0.4-2-0.7c-1.2-0.6-2.1-1.5-2.9-2.5c-0.8-0.9-1.4-1.9-2-2.9c-1.2-2-2-3.9-2.6-5.6C-0.7,26.5-1,25.7-1.2,25
					c-0.2-0.7-0.4-1.3-0.5-1.8c-0.1-0.5-0.2-0.9-0.3-1.2C-2,21.7-2.1,21.5-2.2,21.5L-2.2,21.5z"/>
			</g>
		</g>
	</g>
</symbol>
<g>
	<defs>
		<rect id="SVGID_1_" y="0" width="500" height="500"/>
	</defs>
	<clipPath id="SVGID_2_">
		<use xlink:href="#SVGID_1_"  overflow="visible"/>
	</clipPath>
	<g clip-path="url(#SVGID_2_)">
		<rect y="0" fill="#9EC8EA" width="500" height="500"/>
		<g>
			<defs>
				<path id="SVGID_3_" d="M202.1,98.2C166.6,55.3,148.8-1.9,153.9-57.4L124.1-72c-5.7,43.3,1.1,102.5,15,143.9L202.1,98.2z"/>
			</defs>
			<use xlink:href="#SVGID_3_"  overflow="visible" fill="#562F15"/>
			<clipPath id="SVGID_4_">
				<use xlink:href="#SVGID_3_"  overflow="visible"/>
			</clipPath>
			<g clip-path="url(#SVGID_4_)">

					<use xlink:href="#New_Symbol_1"  width="61.7" height="87.6" x="-30.9" y="-43.8" transform="matrix(1 0 0 -1 147.7296 29.5018)" overflow="visible"/>
			</g>
			<use xlink:href="#SVGID_3_"  overflow="visible" fill="none" stroke="#835631" stroke-width="3.708" stroke-miterlimit="10"/>
		</g>
		<g>
			<defs>
				<path id="SVGID_5_" d="M366-81.2c-9.9,32.6-19.7,65.2-29.6,97.7c-4.2,13.8-8.4,28-6.5,42.3c1.8,14.3,11.5,28.6,25.6,31
					l-35.2,29.4h-56.5l-60.1-25.5c25.8-47.5,40.6-100.9,42.9-154.8l59.1-37.3L366-81.2z"/>
			</defs>
			<use xlink:href="#SVGID_5_"  overflow="visible" fill="#562F15"/>
			<clipPath id="SVGID_6_">
				<use xlink:href="#SVGID_5_"  overflow="visible"/>
			</clipPath>
			<g clip-path="url(#SVGID_6_)">
				<g>
					<g>
						<path fill="#835631" d="M216,118c0,0-0.2-0.3-0.7-1c-0.5-0.7-1.1-1.6-1.9-2.9c-0.8-1.3-1.8-2.8-2.8-4.6
							c-1-1.8-2.2-3.9-3.2-6.2c-1.1-2.3-2.2-4.9-3.2-7.7c-1-2.8-2-5.8-2.7-8.9c-0.4-1.6-0.7-3.2-1-4.9c-0.3-1.6-0.5-3.4-0.6-5.2
							c-0.2-3.6,0.2-7.4,1.7-11.5c0.8-2,1.9-4,3.5-5.9c0.4-0.5,0.8-0.9,1.2-1.4c0,0,0.3-0.3,0.7-0.7c0.3-0.3,0.7-0.7,0.7-0.7
							c1-0.9,2.2-1.8,3.9-2.6c0.4-0.2,0.9-0.4,1.4-0.5l0.2,0l0.3-0.1l0.2,0l0.4-0.1l0.5,0c1-0.1,1.9,0,2.6,0.2
							c1.5,0.3,2.5,0.9,3.4,1.5l0.2,0.1l0.2,0.1l0.1,0l0.3,0.2l0.5,0.4l1,0.8c0.7,0.6,1.4,1.3,2,2c2.4,2.6,3.9,5.5,5.3,8.1
							c1.3,2.7,2.4,5.2,3.5,7.5c0.5,1.1,1.1,2.2,1.6,3.2c0.3,0.5,0.5,1,0.8,1.5c0.3,0.5,0.5,0.9,0.8,1.3c0.5,0.9,1.1,1.6,1.6,2.4
							c0.6,0.7,1.1,1.3,1.6,1.9c0.5,0.5,1,1,1.4,1.4c0.4,0.4,0.8,0.7,1.1,0.9c0.6,0.5,1,0.8,1,0.8l-0.2,0.2c0,0-0.4-0.2-1.1-0.7
							c-0.3-0.2-0.8-0.5-1.3-0.8c-0.5-0.4-1-0.8-1.6-1.3c-0.6-0.5-1.2-1.1-1.8-1.8c-0.6-0.7-1.3-1.4-1.9-2.3
							c-1.3-1.7-2.5-3.7-3.8-5.9c-1.3-2.2-2.5-4.7-4-7.2c-1.5-2.5-3.2-5.2-5.5-7.5c-0.6-0.5-1.2-1.1-1.9-1.7c-0.7-0.5-1.4-1-2.1-1.5
							c-0.8-0.5-1.6-0.9-2.5-1c-0.9-0.2-2-0.1-2.9,0.3c-1,0.4-1.8,1.1-2.6,1.8l-1.1,1.1c-0.4,0.4-0.7,0.8-1,1.2
							c-1.3,1.6-2.2,3.3-3,5.1c-1.4,3.5-1.8,7.2-1.8,10.6c0,3.4,0.5,6.7,1.1,9.9c1.2,6.3,3,12,4.8,16.7c0.9,2.4,1.8,4.5,2.7,6.4
							c0.9,1.9,1.7,3.5,2.3,4.8c0.7,1.3,1.2,2.3,1.6,3c0.4,0.7,0.6,1.1,0.6,1.1L216,118z"/>
					</g>
					<g>
						<path fill="#835631" d="M252.1,104c0,0-0.1-0.4-0.4-1.2c-0.3-0.8-0.6-1.9-1.1-3.3c-0.4-1.4-0.9-3.2-1.4-5.2
							c-0.5-2-1-4.3-1.4-6.9c-0.4-2.5-0.8-5.3-1-8.3c-0.2-3-0.3-6.1-0.1-9.4c0.1-1.6,0.2-3.3,0.4-5c0.2-1.7,0.5-3.4,0.9-5.2
							c0.4-1.8,1-3.6,1.7-5.3c0.8-1.8,1.8-3.5,3.1-5.3c0.7-0.9,1.4-1.7,2.2-2.5c0.8-0.8,1.7-1.5,2.7-2.2c0.5-0.3,1-0.7,1.5-1
							l1.6-0.9c1.2-0.6,2.6-1.2,4.5-1.4c0.5-0.1,1-0.1,1.5-0.1l0.2,0l0.3,0l0.2,0l0.4,0l0.4,0.1c1,0.2,1.8,0.5,2.5,0.9
							c1.3,0.7,2.2,1.6,2.9,2.4l0.1,0.1l0.1,0.2l0,0.1l0.2,0.3l0.4,0.5l0.8,1.1c0.5,0.8,0.9,1.6,1.4,2.4c1.6,3.2,2.3,6.4,2.8,9.3
							c0.6,2.9,0.9,5.7,1.3,8.1c0.2,1.2,0.4,2.4,0.6,3.5c0.1,0.6,0.2,1.1,0.3,1.6c0.1,0.5,0.3,1,0.4,1.5c0.3,1,0.6,1.8,0.9,2.7
							c0.4,0.8,0.7,1.6,1,2.2c0.4,0.6,0.7,1.2,1,1.7c0.3,0.5,0.6,0.9,0.8,1.2c0.5,0.7,0.7,1,0.7,1l-0.2,0.2c0,0-0.3-0.3-0.8-0.9
							c-0.3-0.3-0.7-0.7-1-1.2c-0.3-0.5-0.7-1.1-1.2-1.7c-0.4-0.7-0.8-1.4-1.3-2.2c-0.4-0.8-0.8-1.7-1.2-2.7c-0.8-2-1.4-4.2-2-6.7
							c-0.6-2.5-1.2-5.2-1.9-8.1c-0.7-2.9-1.6-5.8-3.2-8.7c-0.4-0.7-0.8-1.4-1.3-2.1c-0.5-0.7-1.1-1.4-1.6-2
							c-0.6-0.6-1.3-1.3-2.1-1.7c-0.8-0.4-1.9-0.6-2.9-0.5c-1,0.1-2.1,0.5-3,1c0,0-0.3,0.2-0.7,0.4c-0.3,0.2-0.7,0.4-0.7,0.4
							c-0.4,0.3-0.9,0.6-1.3,0.9c-1.7,1.2-3.1,2.6-4.2,4.1c-2.3,3-3.7,6.4-4.6,9.7c-0.9,3.3-1.3,6.7-1.7,9.8
							c-0.6,6.4-0.5,12.3-0.1,17.4c0.2,2.5,0.5,4.9,0.8,6.9c0.3,2,0.6,3.8,0.9,5.3c0.3,1.5,0.5,2.6,0.7,3.4c0.2,0.8,0.3,1.2,0.3,1.2
							L252.1,104z"/>
					</g>
					<g>
						<path fill="#835631" d="M290.7,100.5c0,0,0-0.4,0-1.2c0-0.8-0.1-2-0.1-3.5c0-1.5,0-3.3,0.1-5.4c0.1-2.1,0.3-4.4,0.6-7
							c0.3-2.6,0.7-5.3,1.4-8.2c0.6-2.9,1.4-5.9,2.5-9c0.5-1.6,1.1-3.1,1.8-4.7c0.6-1.5,1.4-3.2,2.3-4.7c1.8-3.1,4.1-6.3,7.6-8.8
							c1.7-1.2,3.8-2.4,6.1-3.1c0.6-0.2,1.2-0.4,1.8-0.5l1.8-0.4c1.3-0.2,2.8-0.4,4.7-0.1c0.5,0.1,1,0.2,1.4,0.4l0.2,0.1l0.2,0.1
							l0.2,0.1l0.3,0.1l0.4,0.2c0.9,0.5,1.6,1,2.1,1.5c1.1,1.1,1.6,2.1,2.1,3.1l0.1,0.2l0.1,0.2l0,0.1l0.1,0.3l0.2,0.6l0.4,1.2
							c0.3,0.9,0.5,1.8,0.7,2.7c0.6,3.5,0.4,6.7,0.1,9.7c-0.3,3-0.8,5.7-1.1,8.2c-0.1,1.2-0.3,2.4-0.4,3.6c0,0.6-0.1,1.1-0.1,1.7
							c0,0.5,0,1.1,0,1.6c0,1,0.1,1.9,0.1,2.8c0.1,0.9,0.2,1.7,0.3,2.4c0.2,0.7,0.3,1.4,0.5,1.9c0.1,0.6,0.3,1,0.5,1.4
							c0.3,0.8,0.4,1.2,0.4,1.2l-0.3,0.1c0,0-0.2-0.4-0.5-1.2c-0.2-0.4-0.4-0.8-0.6-1.4c-0.2-0.6-0.4-1.2-0.7-1.9
							c-0.2-0.7-0.4-1.6-0.6-2.5c-0.1-0.9-0.3-1.9-0.4-2.9c-0.2-2.1-0.2-4.5-0.1-7c0.1-2.6,0.4-5.3,0.5-8.2c0.1-2.9,0.1-6-0.6-9.2
							c-0.2-0.8-0.4-1.6-0.7-2.4c-0.3-0.8-0.6-1.6-1-2.4c-0.4-0.8-0.9-1.6-1.6-2.2c-0.7-0.7-1.6-1.1-2.7-1.3c-1-0.2-2.1-0.1-3.1,0.1
							l-1.5,0.4c-0.5,0.1-1,0.3-1.5,0.5c-1.9,0.7-3.7,1.6-5.2,2.7c-3.1,2.2-5.4,5-7.2,8c-1.8,3-3.1,6-4.4,9
							c-2.4,5.9-3.9,11.7-4.9,16.7c-0.5,2.5-0.9,4.8-1.1,6.8c-0.3,2-0.5,3.8-0.6,5.3c-0.1,1.5-0.2,2.6-0.3,3.4
							c-0.1,0.8-0.1,1.2-0.1,1.2L290.7,100.5z"/>
					</g>
					<g>
						<path fill="#835631" d="M328.7,107.9c0,0,0.1-0.4,0.3-1.2c0.2-0.8,0.5-1.9,0.9-3.4c0.4-1.4,0.9-3.2,1.6-5.2
							c0.7-2,1.5-4.2,2.5-6.5c1-2.4,2.2-4.9,3.6-7.5c1.4-2.6,3-5.3,4.9-8c1-1.3,2-2.7,3-4c1-1.3,2.2-2.7,3.5-3.9
							c2.6-2.5,5.7-4.9,9.7-6.4c2-0.7,4.3-1.2,6.7-1.4c0.6,0,1.2,0,1.8,0l1.9,0.1c1.3,0.2,2.8,0.3,4.6,1.2c0.4,0.2,0.9,0.5,1.3,0.8
							l0.2,0.1l0.2,0.2l0.2,0.1l0.3,0.2l0.3,0.3c0.7,0.7,1.2,1.4,1.6,2c0.8,1.3,1,2.5,1.2,3.6l0,0.2l0,0.2l0,0.1l0,0.3l0,0.7
							l0.1,1.3c0,0.9-0.1,1.9-0.1,2.8c-0.4,3.5-1.5,6.5-2.6,9.3c-1.1,2.8-2.3,5.3-3.3,7.6c-0.5,1.2-1,2.3-1.3,3.3
							c-0.2,0.5-0.4,1-0.6,1.6c-0.2,0.5-0.3,1-0.5,1.5c-0.3,1-0.4,1.9-0.7,2.8c-0.1,0.9-0.2,1.7-0.3,2.4c0,0.7,0,1.4-0.1,2
							c0,0.6,0,1.1,0,1.5c0,0.8,0.1,1.3,0.1,1.3l-0.3,0c0,0-0.1-0.4-0.2-1.3c0-0.4-0.2-0.9-0.2-1.5c0-0.6-0.1-1.3-0.1-2
							c0-0.8,0.1-1.6,0.1-2.5c0.1-0.9,0.2-1.9,0.4-2.9c0.4-2.1,1.1-4.4,1.9-6.8c0.8-2.4,1.8-5,2.7-7.8c0.9-2.8,1.7-5.8,1.9-9.1
							c0-0.8,0.1-1.7,0-2.5c-0.1-0.9-0.2-1.8-0.3-2.6c-0.2-0.9-0.4-1.7-0.9-2.6c-0.5-0.8-1.2-1.6-2.2-2c-0.9-0.5-2-0.7-3.1-0.7
							l-1.6-0.1c-0.5,0-1,0-1.5,0c-2,0.1-4,0.5-5.8,1.2c-3.6,1.3-6.5,3.3-9.1,5.7c-2.5,2.3-4.7,4.9-6.7,7.4c-3.9,5-7,10.2-9.4,14.7
							c-1.2,2.3-2.2,4.4-3,6.3c-0.8,1.9-1.5,3.6-2,4.9c-0.5,1.4-0.9,2.5-1.2,3.2c-0.3,0.7-0.4,1.1-0.4,1.1L328.7,107.9z"/>
					</g>
				</g>
			</g>
			<g clip-path="url(#SVGID_6_)">
				<g>
					<g>
						<path fill="#835631" d="M239.5,51.2c0,0-0.2-0.4-0.5-1.1c-0.3-0.7-0.7-1.8-1.2-3.2c-0.5-1.4-1.1-3.1-1.7-5.1
							c-0.6-2-1.2-4.3-1.8-6.8c-0.6-2.5-1.1-5.3-1.4-8.2c-0.4-2.9-0.6-6.1-0.6-9.3c0-1.6,0-3.3,0.1-5c0.1-1.7,0.3-3.5,0.6-5.3
							c0.6-3.6,1.8-7.2,4.2-10.8c1.2-1.8,2.8-3.6,4.7-5c0.5-0.4,1-0.7,1.5-1.1l1.6-1c1.1-0.6,2.5-1.4,4.4-1.7c0.5-0.1,1-0.1,1.5-0.1
							l0.2,0l0.3,0l0.2,0l0.4,0l0.4,0c1,0.1,1.8,0.4,2.5,0.7c1.4,0.7,2.3,1.4,3,2.2l0.1,0.1l0.1,0.2l0.1,0.1l0.2,0.3l0.4,0.5l0.8,1
							c0.5,0.7,1,1.6,1.5,2.4c1.8,3.1,2.6,6.2,3.4,9.1c0.7,2.9,1.2,5.6,1.8,8c0.3,1.2,0.5,2.4,0.9,3.5c0.2,0.5,0.3,1.1,0.4,1.6
							c0.2,0.5,0.3,1,0.5,1.5c0.3,1,0.8,1.8,1.1,2.6c0.4,0.8,0.8,1.5,1.1,2.1c0.4,0.6,0.8,1.2,1.1,1.7c0.3,0.5,0.7,0.9,0.9,1.2
							c0.5,0.6,0.8,1,0.8,1l-0.2,0.2c0,0-0.3-0.3-0.9-0.9c-0.3-0.3-0.7-0.6-1.1-1.1c-0.4-0.5-0.8-1-1.3-1.6
							c-0.4-0.6-0.9-1.3-1.4-2.1c-0.4-0.8-0.9-1.7-1.4-2.6c-0.9-1.9-1.7-4.1-2.5-6.6c-0.8-2.5-1.5-5.1-2.4-7.9
							c-0.9-2.8-2-5.7-3.7-8.5c-0.5-0.7-0.9-1.4-1.4-2c-0.6-0.6-1.2-1.3-1.7-1.9c-0.6-0.6-1.4-1.2-2.2-1.6c-0.9-0.4-1.9-0.6-2.9-0.4
							c-1,0.2-2,0.7-2.9,1.2l-1.3,0.9c-0.4,0.3-0.8,0.6-1.2,0.9c-1.6,1.3-2.9,2.7-4,4.3c-2.2,3.2-3.4,6.6-4.1,9.9
							c-0.7,3.3-1,6.7-1.1,9.9c-0.3,6.5,0.2,12.4,1,17.4c0.4,2.5,0.8,4.8,1.2,6.8c0.4,2,0.8,3.8,1.2,5.2c0.4,1.4,0.7,2.6,0.9,3.3
							c0.2,0.8,0.3,1.2,0.3,1.2L239.5,51.2z"/>
					</g>
					<g>
						<path fill="#835631" d="M275.1,45.4c0,0-0.1-0.4-0.2-1.2c-0.1-0.8-0.3-2-0.4-3.4c-0.1-1.5-0.3-3.3-0.4-5.4
							c-0.1-2.1-0.1-4.4,0-7c0.1-2.6,0.3-5.4,0.7-8.3c0.4-2.9,0.9-6,1.7-9.2c0.4-1.6,0.9-3.2,1.4-4.8c0.5-1.6,1.1-3.3,1.9-4.9
							c1.5-3.3,3.5-6.6,6.7-9.5c1.6-1.4,3.5-2.6,5.7-3.7c0.6-0.2,1.1-0.5,1.7-0.7l1.8-0.6c1.2-0.4,2.7-0.7,4.7-0.5
							c0.5,0,1,0.1,1.5,0.2l0.2,0l0.3,0.1l0.2,0.1l0.4,0.1l0.4,0.2c0.9,0.4,1.6,0.8,2.2,1.3c1.2,0.9,1.8,2,2.4,2.9l0.1,0.2l0.1,0.2
							l0,0.1l0.1,0.3l0.3,0.6l0.5,1.2c0.3,0.8,0.6,1.8,0.9,2.7c1,3.4,1,6.6,1,9.6c0,3-0.2,5.7-0.3,8.2c0,1.2-0.1,2.5,0,3.6
							c0,0.6,0,1.1,0,1.7c0,0.5,0.1,1.1,0.1,1.6c0.1,1,0.3,1.9,0.4,2.8c0.2,0.9,0.4,1.7,0.6,2.4c0.3,0.7,0.5,1.3,0.6,1.9
							c0.2,0.6,0.4,1,0.6,1.4c0.3,0.7,0.5,1.1,0.5,1.1l-0.3,0.1c0,0-0.2-0.4-0.7-1.1c-0.2-0.4-0.5-0.8-0.8-1.3
							c-0.3-0.5-0.5-1.2-0.9-1.9c-0.3-0.7-0.5-1.5-0.8-2.4c-0.2-0.9-0.5-1.8-0.7-2.9c-0.4-2.1-0.6-4.4-0.8-7
							c-0.1-2.6-0.2-5.3-0.3-8.2c-0.2-2.9-0.5-6-1.5-9.2c-0.3-0.8-0.5-1.6-0.9-2.3c-0.4-0.8-0.8-1.6-1.2-2.3c-0.5-0.7-1-1.5-1.8-2
							c-0.7-0.6-1.7-1-2.7-1.1c-1-0.1-2.1,0.1-3.1,0.4c0,0-0.4,0.1-0.7,0.3c-0.4,0.1-0.7,0.3-0.7,0.3c-0.5,0.2-1,0.4-1.4,0.6
							c-1.9,0.9-3.5,2-4.9,3.2c-0.7,0.6-1.4,1.3-2,1.9c-0.6,0.7-1.2,1.4-1.7,2.1c-1,1.5-1.9,3-2.7,4.5c-1.5,3.1-2.6,6.2-3.5,9.3
							c-1.9,6.1-2.9,12.1-3.4,17.1c-0.3,2.5-0.4,4.9-0.5,6.9c-0.1,2.1-0.1,3.9-0.1,5.3c0,1.5,0,2.6,0,3.4c0,0.8,0,1.2,0,1.2
							L275.1,45.4z"/>
					</g>
					<g>
						<path fill="#835631" d="M311.1,48.6c0,0,0.1-0.4,0.1-1.2c0.1-0.8,0.2-2,0.5-3.4c0.2-1.5,0.5-3.3,1-5.3c0.4-2,1-4.3,1.7-6.8
							c0.7-2.5,1.6-5.1,2.7-7.9c1.1-2.8,2.4-5.7,3.9-8.5c0.8-1.4,1.6-2.9,2.5-4.3c0.9-1.4,1.9-2.9,3-4.3c1.1-1.4,2.4-2.8,3.9-4.1
							c1.5-1.3,3.1-2.5,5-3.5c1.9-1,4.1-1.7,6.5-2.2c0.6-0.1,1.2-0.2,1.8-0.3c0,0,0.5,0,0.9-0.1c0.5,0,0.9,0,0.9,0
							c1.3,0,2.8,0,4.7,0.6c0.5,0.1,0.9,0.3,1.4,0.6l0.2,0.1l0.2,0.1l0.2,0.1l0.3,0.2l0.4,0.2c0.8,0.6,1.4,1.2,1.8,1.8
							c0.9,1.3,1.3,2.4,1.6,3.4l0.1,0.2l0.1,0.2l0,0.1l0.1,0.3l0.1,0.6l0.2,1.3c0.1,0.9,0.2,1.9,0.2,2.8c0.1,3.6-0.6,6.6-1.4,9.5
							c-0.7,2.9-1.6,5.5-2.3,7.9c-0.3,1.2-0.7,2.4-0.9,3.5c-0.1,0.6-0.3,1.1-0.4,1.6c-0.1,0.5-0.2,1-0.3,1.5c-0.2,1-0.2,1.9-0.3,2.8
							c0,0.9,0,1.7,0,2.4c0.1,0.7,0.1,1.4,0.2,2c0,0.6,0.2,1.1,0.2,1.5c0.1,0.8,0.2,1.2,0.2,1.2l-0.3,0.1c0,0-0.1-0.4-0.4-1.2
							c-0.1-0.4-0.3-0.9-0.4-1.5c-0.1-0.6-0.2-1.3-0.4-2c-0.1-0.8-0.1-1.6-0.2-2.5c0-0.9,0-1.9,0.1-3c0.1-2.1,0.5-4.5,1-7
							c0.5-2.5,1.2-5.2,1.7-8.1c0.5-2.9,1-5.9,0.8-9.2c-0.1-0.8-0.1-1.6-0.3-2.5c-0.2-0.8-0.4-1.7-0.6-2.6c-0.3-0.8-0.6-1.7-1.2-2.4
							c-0.6-0.7-1.4-1.4-2.4-1.7c-1-0.3-2.1-0.4-3.1-0.4l-1.6,0.1c-0.5,0-1,0.1-1.5,0.2c-2,0.4-3.9,1.1-5.6,1.9
							c-3.4,1.7-6.1,4.1-8.3,6.7c-2.2,2.6-4.1,5.4-5.7,8.2c-3.3,5.5-5.7,10.9-7.5,15.7c-0.9,2.4-1.6,4.6-2.2,6.6
							c-0.6,2-1.1,3.7-1.4,5.1c-0.4,1.4-0.6,2.6-0.8,3.3c-0.2,0.8-0.3,1.2-0.3,1.2L311.1,48.6z"/>
					</g>
				</g>
			</g>
			<use xlink:href="#SVGID_5_"  overflow="visible" fill="none" stroke="#835631" stroke-width="3.708" stroke-miterlimit="10"/>
		</g>
		<g>
			<defs>
				<path id="SVGID_7_" d="M407.4-61.9c2.5,19.4,4.9,38.8,7.4,58.3l-49.3,66.5c8.5-41.3,10.5-83.9,6-125.8L407.4-61.9z"/>
			</defs>
			<use xlink:href="#SVGID_7_"  overflow="visible" fill="#562F15"/>
			<clipPath id="SVGID_8_">
				<use xlink:href="#SVGID_7_"  overflow="visible"/>
			</clipPath>
			<g transform="matrix(1 0 0 1 3.051758e-05 9.536743e-07)" clip-path="url(#SVGID_8_)">

					<use xlink:href="#New_Symbol_1"  width="61.7" height="87.6" x="-30.9" y="-43.8" transform="matrix(-0.9595 0.2817 -0.2817 -0.9595 381.1429 10.3158)" overflow="visible"/>
			</g>
			<use xlink:href="#SVGID_7_"  overflow="visible" fill="none" stroke="#835631" stroke-width="3.708" stroke-miterlimit="10"/>
		</g>
		<g>
			<defs>
				<path id="SVGID_9_" d="M-2.2,91c30.6-4.5,62,4.8,88.9,20c26.9,15.2,73.4,62,72.3,61c3.4,22.4,4.9,45.7-0.7,67.6
					c-14.2,7.9-24.8,19.2-30.6,34.4c4.9,18,16.5,34.1,32.1,44.3c0,93.2-6.9,180.4-18.9,272.9l267.6,8.8
					c-20.8-82-34.2-165.8-40-250.2c9-13.7,15.3-30.3,17.6-46.5c-7.5-9.9-16.8-19-24.3-28.9l-6.1-89.1c10.3-44,34-74.1,70.4-101.1
					s82.4-40.6,127.5-37.7l-22-16.2c-38.6,1.4-77.7,14.5-112.3,31.7c17.7-26.2,38.4-50.3,61.5-71.8l-11.2-37.2L411-29.8
					C392.3,3.8,373.2,38,344.9,64.1c-28.2,26.1-66.1,52.9-101.9,39C161.1,71.2,88.8,14.9,37.8-56.7L-39.8-56
					c29.6,39.1,63.1,78.7,99.7,111.3C32,52.1,3.6,53.5-23.9,59.3l-11,32.7l10.9,8.2L-2.2,91z"/>
			</defs>
			<use xlink:href="#SVGID_9_"  overflow="visible" fill="#562F15"/>
			<clipPath id="SVGID_10_">
				<use xlink:href="#SVGID_9_"  overflow="visible"/>
			</clipPath>
			<g clip-path="url(#SVGID_10_)">

					<ellipse transform="matrix(-0.9721 0.2346 -0.2346 -0.9721 785.4172 715.2598)" fill="#321B0F" cx="350.2" cy="404.4" rx="10.1" ry="22.7"/>
				<path fill="#835631" d="M340.5,406.7c0,0,0.1,0.4,0.3,1.2c0.2,0.8,0.6,1.8,1,3.2c0.3,0.7,0.5,1.4,0.9,2.2
					c0.4,0.8,0.8,1.7,1.3,2.5c1,1.8,2.1,3.7,3.8,5.5c0.4,0.4,0.8,0.9,1.3,1.3c0.2,0.2,0.5,0.4,0.7,0.6c0.2,0.2,0.5,0.4,0.8,0.5
					c1,0.7,2.2,1.2,3.2,1.2c0.2,0,0.5,0,0.7-0.1l0.3-0.1l0.2,0c0.2-0.1-0.2,0.1-0.2,0l0,0l0.1,0l0.1-0.1l0.5-0.2
					c0.1,0,0.2-0.1,0.2-0.1l0.1-0.1c0.1-0.2,0.2-0.2,0.4-0.4c0.7-0.8,1.1-1.9,1.5-3.2c0.6-2.6,0.7-5.6,0.5-8.6
					c0-0.8-0.2-1.5-0.2-2.3c-0.1-0.8-0.2-1.5-0.3-2.3c-0.1-0.8-0.3-1.5-0.4-2.3l-0.5-2.3l-0.6-2.3c-0.2-0.7-0.4-1.4-0.7-2.2
					c-0.3-0.7-0.5-1.5-0.8-2.2c-0.3-0.7-0.5-1.4-0.8-2.1c-1.2-2.8-2.6-5.4-4.3-7.4c-0.9-1-1.8-1.8-2.8-2.2c-0.5-0.2-0.9-0.3-1.4-0.3
					l-0.1,0l0,0l0,0c0,0,0.3-0.1,0.2-0.1l-0.3,0.1l-0.5,0.1c-0.2,0-0.3,0.1-0.3,0.1c-0.1,0-0.2,0.1-0.3,0.1
					c-0.9,0.5-1.7,1.5-2.3,2.5c-0.1,0.3-0.3,0.5-0.4,0.8c-0.1,0.3-0.2,0.6-0.3,0.9c-0.3,0.6-0.4,1.2-0.6,1.7
					c-0.7,2.3-0.8,4.6-0.9,6.6c0,1,0,2,0,2.8c0.1,0.9,0.2,1.7,0.2,2.4c0.2,1.4,0.4,2.6,0.6,3.3C340.4,406.3,340.5,406.7,340.5,406.7
					z M340.2,406.8c0,0-0.1-0.4-0.3-1.2c-0.2-0.8-0.4-1.9-0.6-3.3c-0.2-1.5-0.4-3.2-0.5-5.3c-0.1-2,0-4.4,0.5-6.8
					c0.1-0.6,0.2-1.3,0.5-1.9c0.1-0.3,0.2-0.6,0.3-1c0.1-0.3,0.3-0.6,0.4-0.9c0.6-1.2,1.3-2.5,2.5-3.4c0.3-0.2,0.7-0.5,1-0.6
					l0.5-0.2l0.3-0.1c0.2,0,0.2,0,0.3-0.1c0.8-0.1,1.6-0.1,2.3,0.1c1.5,0.4,2.9,1.3,4,2.4c2.3,2.2,4.1,5,5.6,8
					c1.4,3,2.6,6.2,3.4,9.4c0.8,3.3,1.2,6.6,1.3,9.9c0.1,3.3-0.3,6.6-1.3,9.6c-0.6,1.5-1.3,2.9-2.5,4c-0.6,0.5-1.3,1-2,1.2
					c-0.8,0.2-1.5,0.2-2.3,0.1c-1.5-0.3-2.7-1-3.8-1.9c-0.3-0.2-0.5-0.4-0.8-0.7c-0.2-0.2-0.5-0.5-0.7-0.7c-0.5-0.5-0.9-1-1.3-1.5
					c-1.6-2-2.7-4-3.5-5.9c-0.9-1.8-1.5-3.5-2-4.9c-0.4-1.4-0.8-2.5-1-3.3C340.3,407.2,340.2,406.8,340.2,406.8z"/>
			</g>
			<g clip-path="url(#SVGID_10_)">

					<use xlink:href="#New_Symbol"  width="218.9" height="86.3" x="-109.5" y="-43.1" transform="matrix(1.158 0 0 -1 270.6269 520.1061)" overflow="visible"/>

					<use xlink:href="#New_Symbol"  width="218.9" height="86.3" x="-109.5" y="-43.1" transform="matrix(1 0 0 -1 266.0789 453.6399)" overflow="visible"/>

					<use xlink:href="#New_Symbol"  width="218.9" height="86.3" x="-109.5" y="-43.1" transform="matrix(0.9562 0 0 -1 265.2857 375.5612)" overflow="visible"/>

					<use xlink:href="#New_Symbol"  width="218.9" height="86.3" x="-109.5" y="-43.1" transform="matrix(0.9716 0 0 -1 262.6565 299.6214)" overflow="visible"/>

					<use xlink:href="#New_Symbol"  width="218.9" height="86.3" x="-109.5" y="-43.1" transform="matrix(0.8832 0 0 -1 258.0789 217.4702)" overflow="visible"/>
				<g>
					<g>
						<g>
							<path fill="#835631" d="M276,159.8c0,0-0.1-0.4-0.3-1.2c-0.2-0.8-0.5-1.9-0.7-3.4c-0.3-1.5-0.6-3.3-0.9-5.3
								c-0.3-2.1-0.6-4.4-0.8-7c-0.2-2.6-0.3-5.4-0.3-8.3c0.1-3,0.2-6.1,0.8-9.3c0.3-1.6,0.6-3.3,0.9-4.9c0.4-1.6,0.8-3.4,1.5-5.1
								c1.3-3.4,3.2-6.9,6.4-10c0.8-0.8,1.7-1.5,2.7-2.2c1-0.7,2.1-1.3,3.2-1.8c0.6-0.3,1.2-0.5,1.8-0.8c0,0,0.5-0.2,0.9-0.3
								c0.5-0.2,0.9-0.3,0.9-0.3c1.3-0.4,2.9-0.8,5-0.7c0.5,0,1.1,0.1,1.6,0.2l0.2,0l0.3,0.1l0.2,0.1l0.4,0.1l0.5,0.1
								c1,0.3,1.8,0.8,2.4,1.3c1.3,1,2,2,2.6,2.9l0.1,0.2l0.1,0.2l0,0.1l0.2,0.3l0.3,0.6l0.6,1.2c0.4,0.9,0.7,1.8,1,2.7
								c1,3.4,1.1,6.7,1.1,9.6c0,3-0.2,5.7-0.3,8.2c0,1.3-0.1,2.5-0.1,3.6c0,0.6,0,1.1,0,1.7c0,0.5,0.1,1.1,0.1,1.6
								c0,1,0.3,1.9,0.3,2.8c0.2,0.9,0.4,1.6,0.5,2.4c0.2,0.7,0.4,1.3,0.6,1.9c0.2,0.6,0.4,1,0.5,1.4c0.3,0.7,0.5,1.1,0.5,1.1
								l-0.2,0.1c0,0-0.2-0.4-0.6-1.1c-0.2-0.4-0.5-0.8-0.7-1.3c-0.2-0.5-0.5-1.2-0.8-1.9c-0.2-0.7-0.5-1.5-0.8-2.4
								c-0.2-0.9-0.5-1.9-0.6-2.9c-0.4-2.1-0.6-4.4-0.7-7c-0.1-2.6-0.2-5.3-0.4-8.3c-0.2-2.9-0.6-6-1.7-9.2c-0.3-0.8-0.6-1.5-1-2.3
								c-0.4-0.8-0.9-1.6-1.3-2.3c-0.5-0.8-1.1-1.5-2-2c-0.8-0.6-1.9-1-3-1c-1.1-0.1-2.3,0.2-3.3,0.5l-1.6,0.5
								c-0.5,0.2-1,0.4-1.5,0.6c-1.9,1-3.6,2.1-5.1,3.4c-2.9,2.7-4.8,5.8-6.1,9c-1.3,3.2-2.2,6.5-2.8,9.6
								c-1.3,6.3-1.7,12.3-1.7,17.3c0,2.5,0.1,4.9,0.2,6.9c0.1,2.1,0.3,3.9,0.5,5.3c0.2,1.5,0.3,2.6,0.4,3.4
								c0.1,0.8,0.2,1.2,0.2,1.2L276,159.8z"/>
						</g>
						<g>
							<path fill="#835631" d="M309.2,161.9c0,0,0.1-0.4,0.2-1.2c0.1-0.8,0.3-1.9,0.6-3.4c0.3-1.5,0.7-3.2,1.2-5.3
								c0.5-2,1.2-4.3,2-6.7c0.8-2.4,1.8-5.1,3-7.7c1.2-2.7,2.6-5.5,4.4-8.3c0.9-1.4,1.8-2.8,2.8-4.2c1-1.4,2.1-2.8,3.3-4.1
								c2.5-2.7,5.5-5.1,9.6-6.8c2.1-0.8,4.4-1.3,6.9-1.5c0.6,0,1.3,0,1.9,0l2,0.1c1.4,0.1,3,0.4,4.8,1.2c0.5,0.2,0.9,0.5,1.4,0.7
								l0.2,0.1l0.2,0.2l0.2,0.1l0.3,0.2l0.4,0.3c0.8,0.7,1.3,1.4,1.7,2.1c0.8,1.4,1.1,2.5,1.3,3.6l0,0.2l0,0.2l0,0.1l0,0.3l0.1,0.7
								l0.1,1.3c0,0.9,0,1.9-0.1,2.8c-0.3,3.6-1.4,6.6-2.5,9.4c-1.1,2.8-2.3,5.2-3.3,7.5c-0.5,1.2-1,2.3-1.4,3.3
								c-0.2,0.5-0.4,1-0.6,1.5c-0.2,0.5-0.3,1-0.5,1.5c-0.3,1-0.5,1.9-0.7,2.7c-0.1,0.9-0.3,1.7-0.4,2.4c0,0.7-0.1,1.4-0.2,2
								c-0.1,0.6,0,1.1,0,1.5c0,0.8,0,1.2,0,1.2l-0.3,0c0,0-0.1-0.4-0.2-1.2c0-0.4-0.2-0.9-0.2-1.5c0-0.6,0-1.3-0.1-2.1
								c0-0.8,0.1-1.6,0.2-2.5c0.2-0.9,0.2-1.9,0.5-2.9c0.4-2.1,1.1-4.3,1.9-6.8c0.8-2.4,1.8-5,2.7-7.8c0.9-2.8,1.7-5.8,1.9-9.1
								c0-0.8,0-1.7,0-2.5c-0.1-0.9-0.2-1.8-0.4-2.6c-0.2-0.9-0.5-1.8-1-2.6c-0.5-0.9-1.3-1.6-2.4-2c-1-0.5-2.1-0.7-3.2-0.8
								l-1.7-0.1c-0.5,0-1.1,0-1.6,0c-2.1,0.1-4.1,0.6-5.9,1.3c-3.6,1.3-6.6,3.6-9,6c-2.4,2.4-4.5,5.1-6.3,7.8
								c-3.7,5.3-6.3,10.6-8.3,15.3c-1,2.3-1.8,4.5-2.5,6.5c-0.7,1.9-1.2,3.7-1.7,5.1c-0.4,1.4-0.8,2.5-1,3.3
								c-0.2,0.8-0.3,1.2-0.3,1.2L309.2,161.9z"/>
						</g>
						<g>
							<path fill="#835631" d="M340,176.7c0,0,0.2-0.4,0.6-1c0.4-0.7,1-1.7,1.9-2.9c0.8-1.2,1.8-2.8,3.1-4.4
								c1.2-1.7,2.7-3.6,4.3-5.5c1.7-2,3.5-4,5.7-6.1c2.1-2.1,4.5-4.2,7.1-6.1c1.3-1,2.7-1.9,4.1-2.9c1.4-0.9,3-1.8,4.6-2.6
								c1.6-0.8,3.4-1.4,5.3-1.9c1.9-0.5,4-0.8,6.2-0.8c2.2,0,4.6,0.4,7,1.2c0.6,0.2,1.2,0.4,1.8,0.7c0,0,0.5,0.2,0.9,0.4
								c0.4,0.2,0.9,0.4,0.9,0.4c1.2,0.7,2.6,1.5,4.1,3c0.3,0.4,0.7,0.8,1,1.3l0.1,0.2l0.2,0.2l0.1,0.2l0.2,0.3l0.2,0.4
								c0.5,1,0.8,1.8,0.9,2.6c0.2,1.6,0.1,2.8-0.1,3.9l0,0.2l-0.1,0.2l0,0.1l-0.1,0.3l-0.2,0.6l-0.4,1.3c-0.3,0.9-0.8,1.8-1.2,2.6
								c-1.7,3.2-3.9,5.6-5.9,7.7c-2.1,2.1-4.2,3.9-6,5.6c-0.9,0.9-1.8,1.7-2.6,2.5c-0.4,0.4-0.8,0.8-1.2,1.2
								c-0.4,0.4-0.7,0.8-1,1.2c-0.7,0.8-1.2,1.6-1.7,2.2c-0.5,0.7-0.9,1.4-1.3,2c-0.3,0.7-0.6,1.2-0.9,1.7c-0.3,0.5-0.4,1-0.6,1.3
								c-0.3,0.7-0.5,1.1-0.5,1.1l-0.3-0.1c0,0,0.1-0.4,0.4-1.2c0.1-0.4,0.2-0.9,0.4-1.4c0.2-0.5,0.5-1.2,0.7-1.9
								c0.3-0.7,0.7-1.4,1.1-2.3c0.5-0.8,1-1.7,1.6-2.5c1.2-1.7,2.7-3.5,4.4-5.5c1.7-1.9,3.6-3.9,5.5-6.2c1.9-2.3,3.8-4.7,5.2-7.7
								c0.3-0.8,0.6-1.5,0.9-2.4c0.2-0.9,0.5-1.7,0.7-2.6c0.2-0.9,0.2-1.8,0-2.8c-0.2-1-0.7-2-1.4-2.8c-0.8-0.8-1.8-1.4-2.8-1.9
								l-1.5-0.7c-0.5-0.2-1-0.4-1.5-0.6c-2.1-0.7-4.1-1-6-1.1c-3.9-0.1-7.4,0.8-10.6,2.2c-3.2,1.4-6,3.1-8.7,4.9
								c-5.4,3.6-9.8,7.5-13.4,11.1c-1.8,1.8-3.4,3.5-4.7,5.1c-1.4,1.6-2.5,3-3.4,4.1c-0.9,1.2-1.6,2.1-2.1,2.7
								c-0.5,0.6-0.7,1-0.7,1L340,176.7z"/>
						</g>
					</g>
				</g>
				<g>
					<g>
						<g>
							<path fill="#835631" d="M339,113.5c0,0-0.1-0.4-0.2-1.2c-0.1-0.8-0.3-1.9-0.5-3.4c-0.2-1.5-0.4-3.3-0.5-5.4
								c-0.1-2.1-0.2-4.4-0.1-7c0.1-2.6,0.2-5.4,0.5-8.3c0.3-2.9,0.8-6.1,1.4-9.2c0.3-1.6,0.7-3.2,1.1-4.8c0.4-1.6,0.9-3.3,1.6-5
								c1.3-3.3,3-6.8,5.8-9.8c1.4-1.5,3.2-2.9,5.2-4.1c0.5-0.3,1-0.6,1.6-0.8l1.7-0.7c1.2-0.4,2.6-0.9,4.5-0.9c0.5,0,1,0,1.5,0.1
								l0.2,0l0.3,0l0.2,0l0.4,0.1l0.4,0.1c1,0.3,1.7,0.7,2.4,1.1c1.3,0.9,2,1.8,2.7,2.7l0.1,0.2l0.1,0.2l0,0.1l0.2,0.3l0.3,0.6
								l0.7,1.1c0.4,0.8,0.8,1.7,1.2,2.6c1.3,3.4,1.6,6.5,1.8,9.5c0.2,3,0.2,5.7,0.3,8.2c0.1,1.2,0.1,2.5,0.2,3.6
								c0.1,0.6,0.1,1.1,0.1,1.7c0.1,0.5,0.1,1,0.2,1.5c0.1,1,0.4,1.9,0.5,2.8c0.2,0.8,0.5,1.6,0.7,2.3c0.3,0.7,0.5,1.3,0.7,1.8
								c0.2,0.5,0.5,1,0.6,1.3c0.4,0.7,0.5,1.1,0.5,1.1l-0.2,0.2c0,0-0.2-0.4-0.7-1.1c-0.2-0.4-0.5-0.8-0.8-1.3
								c-0.3-0.5-0.6-1.1-0.9-1.8c-0.3-0.7-0.6-1.5-1-2.3c-0.2-0.9-0.6-1.8-0.8-2.8c-0.5-2-0.9-4.4-1.2-6.9c-0.3-2.5-0.6-5.3-1-8.2
								c-0.4-2.9-1-6-2.3-9c-0.4-0.7-0.7-1.5-1.1-2.3c-0.5-0.7-0.9-1.5-1.4-2.2c-0.5-0.7-1.2-1.4-2-1.9c-0.8-0.5-1.8-0.8-2.8-0.8
								c-1,0-2.1,0.3-3,0.7c0,0-0.4,0.1-0.7,0.3c-0.4,0.2-0.7,0.3-0.7,0.3c-0.5,0.2-0.9,0.5-1.3,0.7c-1.7,1-3.2,2.2-4.5,3.5
								c-2.6,2.7-4.3,5.8-5.5,9c-1.3,3.2-2.1,6.4-2.9,9.5c-1.5,6.2-2.4,12.1-2.9,17.2c-0.2,2.5-0.3,4.9-0.4,6.9
								c-0.1,2.1-0.1,3.9,0,5.3c0,1.5,0.1,2.6,0.1,3.4c0,0.8,0.1,1.2,0.1,1.2L339,113.5z"/>
						</g>
						<g>
							<path fill="#835631" d="M376.5,114.3c0,0,0-0.4,0.1-1.2c0.1-0.8,0.2-2,0.4-3.4c0.2-1.5,0.5-3.3,0.8-5.3
								c0.4-2.1,0.8-4.4,1.5-6.9c0.6-2.5,1.4-5.2,2.4-8c1-2.8,2.2-5.7,3.8-8.6c0.8-1.4,1.6-2.9,2.5-4.3c0.9-1.4,1.9-2.9,3.1-4.3
								c1.2-1.4,2.5-2.7,4.1-4c0.8-0.6,1.6-1.2,2.6-1.7c0.9-0.5,1.9-1,3-1.4c1.1-0.4,2.2-0.8,3.5-1c1.2-0.2,2.5-0.4,3.9-0.5
								c0.7,0,1.4,0,2.1,0c0,0,0.5,0,1.1,0.1c0.5,0.1,1.1,0.1,1.1,0.1c0.8,0.1,1.6,0.2,2.5,0.5c0.9,0.2,1.9,0.6,3,1.1
								c0.5,0.3,1.1,0.5,1.6,0.9l0.2,0.1l0.3,0.2l0.2,0.2l0.4,0.3l0.4,0.4c0.9,0.8,1.6,1.6,2,2.4c0.9,1.6,1.3,2.8,1.5,4l0,0.2l0,0.2
								l0,0.1l0,0.4l0.1,0.7l0.1,1.4c0,1-0.1,2-0.2,2.9c-0.5,3.7-1.9,6.6-3.3,9.2c-1.4,2.6-2.9,4.9-4.2,7.1
								c-0.6,1.1-1.3,2.1-1.8,3.1c-0.3,0.5-0.6,1-0.8,1.4c-0.2,0.5-0.5,0.9-0.7,1.4c-0.5,0.9-0.8,1.8-1.2,2.6
								c-0.3,0.8-0.6,1.6-0.8,2.3c-0.2,0.7-0.4,1.3-0.6,1.8c-0.2,0.5-0.2,1-0.3,1.4c-0.2,0.8-0.3,1.2-0.3,1.2l-0.3,0
								c0,0,0.1-0.4,0.2-1.2c0.1-0.4,0.1-0.9,0.2-1.4c0.1-0.6,0.2-1.2,0.4-2c0.2-0.7,0.4-1.5,0.6-2.4c0.3-0.8,0.5-1.8,0.9-2.8
								c0.7-2,1.6-4.1,2.7-6.5c1.1-2.3,2.3-4.8,3.5-7.5c1.1-2.7,2.1-5.7,2.4-9.1c0-0.9,0-1.7,0-2.6c-0.1-0.9-0.2-1.9-0.4-2.8
								c-0.2-1-0.6-1.9-1.2-2.8c-0.6-0.9-1.5-1.8-2.7-2.3c-1.1-0.5-2.4-0.9-3.6-1l-1.8-0.2c-0.6,0-1.2,0-1.8,0
								c-2.3,0.1-4.5,0.5-6.4,1.2c-1.9,0.7-3.6,1.6-5.1,2.7c-1.5,1.1-2.8,2.3-4,3.5c-2.4,2.5-4.3,5.3-6,8.1
								c-3.4,5.5-5.7,11-7.3,15.8c-0.8,2.4-1.5,4.6-2,6.6c-0.5,2-1,3.7-1.3,5.2c-0.3,1.4-0.6,2.6-0.7,3.4c-0.2,0.8-0.2,1.2-0.2,1.2
								L376.5,114.3z"/>
						</g>
					</g>
				</g>
				<g>
					<g>
						<g>
							<path fill="#835631" d="M369.7,54c0,0,0-0.2-0.1-0.6c-0.1-0.4-0.2-1-0.4-1.7c-0.1-0.7-0.3-1.6-0.5-2.7
								c-0.1-1-0.3-2.2-0.4-3.5c-0.1-1.3-0.2-2.7-0.1-4.2c0-1.5,0.1-3,0.4-4.7c0.1-0.8,0.3-1.6,0.4-2.4c0.2-0.8,0.4-1.7,0.7-2.5
								c0.6-1.7,1.4-3.5,2.9-5.1c0.7-0.8,1.6-1.5,2.7-2.1c0.3-0.1,0.5-0.3,0.8-0.4l0.9-0.4c0.6-0.2,1.3-0.5,2.3-0.5
								c0.2,0,0.5,0,0.7,0l0.1,0l0.1,0l0.1,0l0.2,0l0.2,0.1c0.5,0.1,0.9,0.3,1.2,0.5c0.6,0.4,1,0.9,1.3,1.3l0.1,0.1l0.1,0.1l0,0
								l0.1,0.1l0.2,0.3l0.3,0.6c0.2,0.4,0.4,0.9,0.6,1.3c0.6,1.7,0.8,3.3,1,4.8c0.1,1.5,0.2,2.9,0.2,4.1c0.1,0.6,0.1,1.2,0.2,1.8
								c0,0.3,0.1,0.6,0.1,0.8c0,0.3,0.1,0.5,0.1,0.8c0.1,0.5,0.2,0.9,0.3,1.4c0.1,0.4,0.3,0.8,0.4,1.1c0.2,0.3,0.3,0.6,0.4,0.9
								c0.1,0.3,0.3,0.5,0.4,0.6c0.2,0.4,0.3,0.5,0.3,0.5l-0.1,0.1c0,0-0.1-0.2-0.4-0.5c-0.1-0.2-0.3-0.4-0.4-0.6
								c-0.2-0.3-0.3-0.5-0.5-0.9c-0.2-0.3-0.3-0.7-0.5-1.1c-0.1-0.4-0.3-0.9-0.5-1.4c-0.3-1-0.5-2.2-0.7-3.4
								c-0.2-1.3-0.3-2.7-0.6-4.1c-0.2-1.5-0.5-3-1.2-4.5c-0.2-0.4-0.4-0.7-0.6-1.1c-0.2-0.4-0.5-0.7-0.7-1.1
								c-0.3-0.3-0.6-0.7-1-0.9c-0.4-0.3-0.9-0.4-1.4-0.4c-0.5,0-1,0.1-1.5,0.3l-0.7,0.3c-0.2,0.1-0.5,0.2-0.7,0.4
								c-0.9,0.5-1.7,1.1-2.3,1.8c-0.7,0.7-1.2,1.4-1.6,2.2c-0.4,0.8-0.8,1.6-1.1,2.4c-0.6,1.6-1,3.3-1.3,4.8
								c-0.6,3.2-0.8,6.1-0.8,8.6c0,1.3,0,2.4,0.1,3.5c0.1,1,0.1,1.9,0.2,2.7c0.1,0.7,0.2,1.3,0.2,1.7c0.1,0.4,0.1,0.6,0.1,0.6
								L369.7,54z"/>
						</g>
						<g>
							<path fill="#835631" d="M390.5,54.3c0,0,0-0.2,0-0.6c0-0.4,0.1-1,0.1-1.7c0.1-0.7,0.2-1.6,0.4-2.7c0.2-1,0.4-2.2,0.7-3.4
								c0.3-1.3,0.7-2.6,1.2-4c0.5-1.4,1-2.9,1.7-4.3c0.4-0.7,0.7-1.5,1.1-2.2c0.4-0.7,0.9-1.5,1.4-2.2c1.1-1.4,2.4-2.9,4.2-4
								c0.9-0.5,2-0.9,3.2-1.2c0.3-0.1,0.6-0.1,0.9-0.2l0.9-0.1c0.6-0.1,1.4-0.1,2.3,0.2c0.2,0.1,0.5,0.2,0.7,0.3l0.1,0l0.1,0.1
								l0.1,0l0.2,0.1l0.2,0.1c0.4,0.3,0.7,0.6,1,0.9c0.5,0.6,0.7,1.1,0.9,1.6l0,0.1l0,0.1l0,0l0,0.2l0.1,0.3l0.1,0.6
								c0.1,0.5,0.1,0.9,0.2,1.4c0.1,1.8-0.2,3.4-0.5,4.8c-0.3,1.5-0.7,2.8-1,4c-0.1,0.6-0.3,1.2-0.4,1.8c0,0.3-0.1,0.6-0.1,0.8
								c0,0.3-0.1,0.5-0.1,0.8c-0.1,0.5,0,1-0.1,1.4c0,0.4,0,0.8,0,1.2c0.1,0.4,0.1,0.7,0.1,1c0,0.3,0.1,0.5,0.2,0.7
								c0.1,0.4,0.1,0.6,0.1,0.6l-0.1,0c0,0-0.1-0.2-0.2-0.6c-0.1-0.2-0.2-0.4-0.2-0.7c-0.1-0.3-0.2-0.6-0.2-1
								c-0.1-0.4-0.1-0.8-0.2-1.2c0-0.5-0.1-1,0-1.5c0-1.1,0.1-2.2,0.3-3.5c0.2-1.3,0.5-2.6,0.7-4.1c0.2-1.4,0.4-3,0.2-4.6
								c-0.1-0.4-0.1-0.8-0.2-1.2c-0.1-0.4-0.2-0.8-0.4-1.2c-0.2-0.4-0.4-0.8-0.7-1.2c-0.3-0.4-0.7-0.7-1.2-0.8
								c-0.5-0.1-1-0.2-1.6-0.1l-0.8,0.1c-0.3,0-0.5,0.1-0.8,0.2c-1,0.2-1.9,0.6-2.7,1.1c-1.6,0.9-2.9,2.2-4,3.6
								c-1.1,1.4-1.9,2.8-2.7,4.2c-1.5,2.8-2.6,5.6-3.4,8c-0.4,1.2-0.7,2.3-0.9,3.3c-0.2,1-0.4,1.9-0.6,2.6
								c-0.1,0.7-0.2,1.3-0.3,1.7c-0.1,0.4-0.1,0.6-0.1,0.6L390.5,54.3z"/>
						</g>
						<g>
							<path fill="#835631" d="M410.5,60.7c0,0,0.1-0.2,0.2-0.6c0.1-0.4,0.3-0.9,0.6-1.6c0.3-0.7,0.7-1.5,1.1-2.5
								c0.5-0.9,1-2,1.7-3.1c0.7-1.1,1.4-2.3,2.3-3.5c0.9-1.2,1.8-2.4,2.9-3.6c0.6-0.6,1.1-1.2,1.7-1.8c0.6-0.6,1.3-1.2,2-1.7
								c1.4-1.1,3.2-2.1,5.2-2.6c1-0.2,2.2-0.3,3.4-0.2c0.3,0,0.6,0.1,0.9,0.1l0.9,0.2c0.6,0.1,1.4,0.4,2.2,0.9
								c0.2,0.1,0.4,0.3,0.6,0.5l0.1,0.1l0.1,0.1l0.1,0.1l0.1,0.1l0.2,0.2c0.3,0.4,0.5,0.8,0.7,1.1c0.3,0.7,0.4,1.3,0.4,1.8l0,0.1
								l0,0.1l0,0l0,0.2l0,0.3l0,0.7c-0.1,0.5-0.2,0.9-0.2,1.4c-0.4,1.7-1.2,3.2-1.9,4.5c-0.7,1.3-1.5,2.5-2.1,3.5
								c-0.3,0.5-0.6,1.1-0.9,1.6c-0.1,0.3-0.3,0.5-0.4,0.7c-0.1,0.2-0.2,0.5-0.3,0.7c-0.2,0.5-0.3,0.9-0.5,1.3
								c-0.1,0.4-0.2,0.8-0.3,1.2c-0.1,0.4-0.1,0.7-0.2,1c-0.1,0.3-0.1,0.5-0.1,0.7c0,0.4-0.1,0.6-0.1,0.6l-0.1,0c0,0,0-0.2,0-0.6
								c0-0.2,0-0.5,0-0.8c0-0.3,0-0.6,0.1-1c0.1-0.4,0.1-0.8,0.2-1.2c0.1-0.4,0.2-0.9,0.4-1.4c0.3-1,0.8-2.1,1.4-3.2
								c0.6-1.2,1.2-2.4,1.9-3.7c0.6-1.3,1.2-2.8,1.6-4.4c0.1-0.4,0.1-0.8,0.2-1.2c0-0.4,0-0.9,0-1.3c0-0.4-0.1-0.9-0.3-1.3
								c-0.2-0.4-0.5-0.9-1-1.1c-0.4-0.3-1-0.5-1.5-0.6c0,0-0.2,0-0.4-0.1c-0.2,0-0.4-0.1-0.4-0.1c-0.3,0-0.5,0-0.8-0.1
								c-1-0.1-2,0-2.9,0.2c-1.9,0.4-3.4,1.2-4.8,2.2c-1.4,1-2.6,2.1-3.8,3.3c-2.3,2.3-4.1,4.6-5.6,6.7c-0.7,1-1.3,2-1.9,2.9
								c-0.5,0.9-1,1.7-1.3,2.3c-0.3,0.7-0.6,1.2-0.8,1.5c-0.2,0.4-0.3,0.5-0.3,0.5L410.5,60.7z"/>
						</g>
					</g>
				</g>
				<g>
					<g>
						<g>
							<path fill="#835631" d="M426.1,51.2c0,0,0.1-0.2,0.2-0.5c0.1-0.4,0.3-0.9,0.5-1.5c0.2-0.7,0.5-1.5,0.9-2.4
								c0.4-0.9,0.8-1.9,1.4-3c0.5-1.1,1.2-2.2,1.9-3.4c0.7-1.2,1.6-2.4,2.5-3.6c0.5-0.6,1-1.2,1.5-1.7c0.5-0.6,1.1-1.2,1.8-1.7
								c1.3-1.1,2.9-2.1,4.9-2.6c1-0.2,2.1-0.3,3.2-0.3c0.3,0,0.6,0,0.9,0.1l0.9,0.1c0.6,0.1,1.4,0.3,2.1,0.8
								c0.2,0.1,0.4,0.3,0.6,0.4l0.1,0.1l0.1,0.1l0.1,0.1l0.1,0.1l0.1,0.2c0.3,0.4,0.5,0.7,0.7,1c0.3,0.7,0.4,1.2,0.4,1.7l0,0.1
								l0,0.1l0,0l0,0.2l0,0.3l0,0.6c0,0.4-0.1,0.9-0.2,1.3c-0.3,1.6-1,3-1.7,4.2c-0.6,1.2-1.3,2.3-1.9,3.3c-0.3,0.5-0.6,1-0.8,1.5
								c-0.1,0.2-0.2,0.5-0.4,0.7c-0.1,0.2-0.2,0.5-0.3,0.7c-0.2,0.4-0.3,0.9-0.5,1.2c-0.1,0.4-0.2,0.8-0.3,1.1
								c0,0.3-0.1,0.6-0.2,0.9c-0.1,0.3,0,0.5-0.1,0.7c0,0.4,0,0.6,0,0.6l-0.1,0c0,0,0-0.2,0-0.6c0-0.2,0-0.4,0-0.7
								c0-0.3,0-0.6,0.1-0.9c0.1-0.3,0.1-0.7,0.2-1.2c0.1-0.4,0.2-0.9,0.4-1.3c0.3-0.9,0.7-2,1.2-3.1c0.5-1.1,1.1-2.2,1.7-3.5
								c0.6-1.2,1.1-2.6,1.4-4.1c0-0.4,0.1-0.8,0.1-1.2c0-0.4,0-0.8,0-1.2c0-0.4-0.1-0.8-0.3-1.3c-0.2-0.4-0.5-0.8-1-1.1
								c-0.4-0.3-0.9-0.4-1.4-0.5l-0.8-0.1c-0.3,0-0.5,0-0.7-0.1c-1,0-1.9,0.1-2.8,0.3c-1.7,0.4-3.2,1.3-4.5,2.3
								c-1.3,1-2.4,2.1-3.4,3.2c-2,2.2-3.6,4.5-4.8,6.6c-0.6,1-1.1,2-1.6,2.8c-0.4,0.9-0.8,1.6-1.1,2.3c-0.3,0.6-0.5,1.1-0.7,1.5
								c-0.1,0.3-0.2,0.5-0.2,0.5L426.1,51.2z"/>
						</g>
						<g>
							<path fill="#835631" d="M441.1,61c0,0,0.1-0.2,0.4-0.4c0.2-0.3,0.6-0.7,1-1.3c0.5-0.5,1-1.2,1.7-1.9c0.7-0.7,1.4-1.5,2.3-2.3
								c0.9-0.8,1.9-1.7,3-2.5c1.1-0.8,2.3-1.7,3.6-2.4c0.7-0.4,1.3-0.8,2-1.1c0.7-0.4,1.5-0.7,2.3-1c1.6-0.5,3.4-1,5.4-0.8
								c1,0.1,2.1,0.4,3.1,0.8c0.3,0.1,0.5,0.2,0.8,0.4l0.8,0.4c0.5,0.3,1.1,0.8,1.7,1.5c0.1,0.2,0.3,0.4,0.4,0.6l0,0.1l0.1,0.1
								l0,0.1l0.1,0.2l0.1,0.2c0.2,0.4,0.3,0.8,0.3,1.2c0.1,0.7-0.1,1.3-0.2,1.8l0,0.1l0,0.1l0,0l-0.1,0.1l-0.1,0.3l-0.2,0.6
								c-0.2,0.4-0.4,0.8-0.6,1.2c-0.9,1.4-2,2.5-3,3.4c-1,0.9-2,1.7-2.9,2.5c-0.4,0.4-0.9,0.8-1.2,1.1c-0.2,0.2-0.4,0.4-0.6,0.5
								c-0.2,0.2-0.3,0.4-0.5,0.5c-0.3,0.3-0.6,0.7-0.8,1c-0.2,0.3-0.5,0.7-0.6,0.9c-0.2,0.3-0.3,0.6-0.5,0.8
								c-0.1,0.2-0.2,0.5-0.3,0.6c-0.2,0.4-0.2,0.5-0.2,0.5l-0.1,0c0,0,0.1-0.2,0.2-0.6c0.1-0.2,0.1-0.4,0.2-0.7
								c0.1-0.3,0.2-0.6,0.4-0.9c0.2-0.3,0.3-0.7,0.6-1c0.2-0.3,0.5-0.8,0.8-1.1c0.6-0.8,1.3-1.6,2.2-2.5c0.8-0.9,1.8-1.7,2.7-2.7
								c0.9-1,1.9-2.1,2.7-3.4c0.2-0.4,0.4-0.7,0.5-1.1c0.1-0.4,0.3-0.8,0.4-1.2c0.1-0.4,0.2-0.8,0.1-1.3c0-0.4-0.2-0.9-0.5-1.3
								c-0.3-0.4-0.7-0.7-1.1-1l-0.6-0.4c-0.2-0.1-0.5-0.2-0.7-0.3c-0.9-0.4-1.8-0.6-2.7-0.7c-1.8-0.2-3.4,0.1-5,0.6
								c-1.5,0.5-3,1.2-4.3,1.9c-2.7,1.4-4.9,3-6.8,4.4c-0.9,0.7-1.7,1.4-2.5,2.1c-0.7,0.6-1.3,1.2-1.8,1.7
								c-0.5,0.5-0.9,0.9-1.1,1.1C441.3,60.9,441.2,61.1,441.1,61L441.1,61z"/>
						</g>
						<g>
							<path fill="#835631" d="M452.2,75.6c0,0,0.2-0.1,0.5-0.3c0.3-0.2,0.8-0.5,1.4-0.9c0.6-0.4,1.3-0.8,2.2-1.2
								c0.9-0.5,1.8-1,2.9-1.4c1.1-0.5,2.3-1,3.6-1.4c1.3-0.4,2.7-0.8,4.2-1.1c0.7-0.1,1.5-0.3,2.3-0.4c0.8-0.1,1.6-0.2,2.5-0.2
								c1.7,0,3.5,0.2,5.4,1c0.9,0.4,1.8,1,2.7,1.7c0.2,0.2,0.4,0.4,0.6,0.6c0,0,0.2,0.2,0.3,0.3c0.1,0.2,0.3,0.3,0.3,0.3
								c0.4,0.5,0.8,1.1,1.1,1.9c0.1,0.2,0.1,0.4,0.2,0.7l0,0.1l0,0.1l0,0.1l0,0.2l0,0.2c0,0.5,0,0.9-0.1,1.2
								c-0.2,0.7-0.5,1.2-0.8,1.6l-0.1,0.1l-0.1,0.1l0,0l-0.1,0.1l-0.2,0.2l-0.4,0.5c-0.3,0.3-0.6,0.6-1,0.9
								c-1.3,1.1-2.6,1.7-3.9,2.3c-1.3,0.6-2.5,1-3.6,1.5c-0.5,0.2-1.1,0.4-1.5,0.7c-0.2,0.1-0.5,0.2-0.7,0.3
								c-0.2,0.1-0.4,0.2-0.6,0.3c-0.4,0.2-0.8,0.5-1.1,0.7c-0.3,0.2-0.6,0.5-0.9,0.7c-0.3,0.2-0.5,0.4-0.7,0.6
								c-0.2,0.2-0.3,0.4-0.5,0.5c-0.3,0.3-0.4,0.4-0.4,0.4l-0.1-0.1c0,0,0.1-0.2,0.3-0.5c0.1-0.2,0.2-0.4,0.4-0.6
								c0.2-0.2,0.4-0.5,0.6-0.7c0.3-0.2,0.5-0.5,0.8-0.8c0.3-0.3,0.7-0.6,1.1-0.8c0.8-0.6,1.8-1.1,2.8-1.7c1.1-0.5,2.2-1.1,3.5-1.7
								c1.2-0.6,2.5-1.4,3.6-2.4c0.3-0.3,0.6-0.5,0.8-0.8c0.3-0.3,0.5-0.6,0.7-1c0.2-0.3,0.4-0.7,0.5-1.2c0.1-0.4,0.1-0.9-0.1-1.4
								c-0.2-0.5-0.5-0.9-0.8-1.3l-0.5-0.6c-0.2-0.2-0.3-0.3-0.5-0.5c-0.8-0.6-1.6-1.1-2.4-1.5c-1.6-0.7-3.3-1-4.9-1
								c-1.6,0-3.2,0.2-4.7,0.4c-3,0.5-5.7,1.2-7.9,2c-1.1,0.4-2.1,0.8-3,1.2c-0.9,0.4-1.6,0.7-2.3,1c-0.6,0.3-1.1,0.5-1.4,0.7
								c-0.3,0.2-0.5,0.3-0.5,0.3L452.2,75.6z"/>
						</g>
					</g>
				</g>
				<g>
					<g>
						<g>
							<path fill="#835631" d="M386.2,20.2c0,0,0-0.2-0.1-0.6c-0.1-0.4-0.2-1-0.4-1.7c-0.1-0.7-0.3-1.6-0.5-2.7
								c-0.1-1-0.3-2.2-0.4-3.5c-0.1-1.3-0.2-2.7-0.1-4.2c0-1.5,0.1-3,0.4-4.7c0.1-0.8,0.3-1.6,0.4-2.4c0.2-0.8,0.4-1.7,0.7-2.5
								c0.6-1.7,1.4-3.5,2.9-5.1c0.7-0.8,1.6-1.5,2.7-2.1c0.3-0.1,0.5-0.3,0.8-0.4l0.9-0.4c0.6-0.2,1.3-0.5,2.3-0.5
								c0.2,0,0.5,0,0.7,0l0.1,0l0.1,0l0.1,0l0.2,0l0.2,0.1c0.5,0.1,0.9,0.3,1.2,0.5c0.6,0.4,1,0.9,1.3,1.3l0.1,0.1l0.1,0.1l0,0
								l0.1,0.1l0.2,0.3l0.3,0.6c0.2,0.4,0.4,0.9,0.6,1.3c0.6,1.7,0.8,3.3,1,4.8c0.1,1.5,0.2,2.9,0.2,4.1c0.1,0.6,0.1,1.2,0.2,1.8
								c0,0.3,0.1,0.6,0.1,0.8c0,0.3,0.1,0.5,0.1,0.8c0.1,0.5,0.2,0.9,0.3,1.4c0.1,0.4,0.3,0.8,0.4,1.1c0.2,0.3,0.3,0.6,0.4,0.9
								c0.1,0.3,0.3,0.5,0.4,0.6c0.2,0.4,0.3,0.5,0.3,0.5l-0.1,0.1c0,0-0.1-0.2-0.4-0.5c-0.1-0.2-0.3-0.4-0.4-0.6
								c-0.2-0.3-0.3-0.5-0.5-0.9c-0.2-0.3-0.3-0.7-0.5-1.1c-0.1-0.4-0.3-0.9-0.5-1.4c-0.3-1-0.5-2.2-0.7-3.4
								c-0.2-1.3-0.3-2.7-0.6-4.1c-0.2-1.5-0.5-3-1.2-4.5c-0.2-0.4-0.4-0.7-0.6-1.1c-0.2-0.4-0.5-0.7-0.7-1.1
								c-0.3-0.3-0.6-0.7-1-0.9c-0.4-0.3-0.9-0.4-1.4-0.4c-0.5,0-1,0.1-1.5,0.3l-0.7,0.3c-0.2,0.1-0.5,0.2-0.7,0.4
								c-0.9,0.5-1.7,1.1-2.3,1.8c-0.7,0.7-1.2,1.4-1.6,2.2c-0.4,0.8-0.8,1.6-1.1,2.4c-0.6,1.6-1,3.3-1.3,4.8
								c-0.6,3.2-0.8,6.1-0.8,8.6c0,1.3,0,2.4,0.1,3.5c0.1,1,0.1,1.9,0.2,2.7c0.1,0.7,0.2,1.3,0.2,1.7c0.1,0.4,0.1,0.6,0.1,0.6
								L386.2,20.2z"/>
						</g>
						<g>
							<path fill="#835631" d="M407.1,20.4c0,0,0-0.2,0-0.6c0-0.4,0.1-1,0.1-1.7c0.1-0.7,0.2-1.6,0.4-2.7c0.2-1,0.4-2.2,0.7-3.4
								c0.3-1.3,0.7-2.6,1.2-4c0.5-1.4,1-2.9,1.7-4.3c0.4-0.7,0.7-1.5,1.1-2.2c0.4-0.7,0.9-1.5,1.4-2.2c1.1-1.4,2.4-2.9,4.2-4
								c0.9-0.5,2-0.9,3.2-1.2c0.3-0.1,0.6-0.1,0.9-0.2l0.9-0.1c0.6-0.1,1.4-0.1,2.3,0.2c0.2,0.1,0.5,0.2,0.7,0.3l0.1,0l0.1,0.1
								l0.1,0l0.2,0.1l0.2,0.1c0.4,0.3,0.7,0.6,1,0.9c0.5,0.6,0.7,1.1,0.9,1.6l0,0.1l0,0.1l0,0l0,0.2l0.1,0.3l0.1,0.6
								c0.1,0.5,0.1,0.9,0.2,1.4c0.1,1.8-0.2,3.4-0.5,4.8c-0.3,1.5-0.7,2.8-1,4c-0.1,0.6-0.3,1.2-0.4,1.8c0,0.3-0.1,0.6-0.1,0.8
								c0,0.3-0.1,0.5-0.1,0.8c-0.1,0.5,0,1-0.1,1.4c0,0.4,0,0.8,0,1.2c0.1,0.4,0.1,0.7,0.1,1c0,0.3,0.1,0.5,0.2,0.7
								c0.1,0.4,0.1,0.6,0.1,0.6l-0.1,0c0,0-0.1-0.2-0.2-0.6c-0.1-0.2-0.2-0.4-0.2-0.7c-0.1-0.3-0.2-0.6-0.2-1
								c-0.1-0.4-0.1-0.8-0.2-1.2c0-0.5-0.1-1,0-1.5c0-1.1,0.1-2.2,0.3-3.5c0.2-1.3,0.5-2.6,0.7-4.1c0.2-1.4,0.4-3,0.2-4.6
								c-0.1-0.4-0.1-0.8-0.2-1.2c-0.1-0.4-0.2-0.8-0.4-1.2c-0.2-0.4-0.4-0.8-0.7-1.2c-0.3-0.4-0.7-0.7-1.2-0.8
								c-0.5-0.1-1-0.2-1.6-0.1l-0.8,0.1c-0.3,0-0.5,0.1-0.8,0.2c-1,0.2-1.9,0.6-2.7,1.1c-1.6,0.9-2.9,2.2-4,3.6
								c-1.1,1.4-1.9,2.8-2.7,4.2c-1.5,2.8-2.6,5.6-3.4,8c-0.4,1.2-0.7,2.3-0.9,3.3c-0.2,1-0.4,1.9-0.6,2.6
								c-0.1,0.7-0.2,1.3-0.3,1.7c-0.1,0.4-0.1,0.6-0.1,0.6L407.1,20.4z"/>
						</g>
						<g>
							<path fill="#835631" d="M427.1,26.9c0,0,0.1-0.2,0.2-0.6c0.1-0.4,0.3-0.9,0.6-1.6c0.3-0.7,0.7-1.5,1.1-2.5
								c0.5-0.9,1-2,1.7-3.1c0.7-1.1,1.4-2.3,2.3-3.5c0.9-1.2,1.8-2.4,2.9-3.6c0.6-0.6,1.1-1.2,1.7-1.8c0.6-0.6,1.3-1.2,2-1.7
								c1.4-1.1,3.2-2.1,5.2-2.6c1-0.2,2.2-0.3,3.4-0.2c0.3,0,0.6,0.1,0.9,0.1l0.9,0.2c0.6,0.1,1.4,0.4,2.2,0.9
								c0.2,0.1,0.4,0.3,0.6,0.5l0.1,0.1l0.1,0.1l0.1,0.1l0.1,0.1l0.2,0.2c0.3,0.4,0.5,0.8,0.7,1.1c0.3,0.7,0.4,1.3,0.4,1.8l0,0.1
								l0,0.1l0,0l0,0.2l0,0.3l0,0.7c-0.1,0.5-0.2,0.9-0.2,1.4c-0.4,1.7-1.2,3.2-1.9,4.5c-0.7,1.3-1.5,2.5-2.1,3.5
								c-0.3,0.5-0.6,1.1-0.9,1.6c-0.1,0.3-0.3,0.5-0.4,0.7c-0.1,0.2-0.2,0.5-0.3,0.7c-0.2,0.5-0.3,0.9-0.5,1.3
								c-0.1,0.4-0.2,0.8-0.3,1.2c-0.1,0.4-0.1,0.7-0.2,1c-0.1,0.3-0.1,0.5-0.1,0.7c0,0.4-0.1,0.6-0.1,0.6l-0.1,0c0,0,0-0.2,0-0.6
								c0-0.2,0-0.5,0-0.8c0-0.3,0-0.6,0.1-1c0.1-0.4,0.1-0.8,0.2-1.2c0.1-0.4,0.2-0.9,0.4-1.4c0.3-1,0.8-2.1,1.4-3.2
								c0.6-1.2,1.2-2.4,1.9-3.7c0.6-1.3,1.2-2.8,1.6-4.4c0.1-0.4,0.1-0.8,0.2-1.2c0-0.4,0-0.9,0-1.3c0-0.4-0.1-0.9-0.3-1.3
								c-0.2-0.4-0.5-0.9-1-1.1c-0.4-0.3-1-0.5-1.5-0.6c0,0-0.2,0-0.4-0.1c-0.2,0-0.4-0.1-0.4-0.1c-0.3,0-0.5,0-0.8-0.1
								c-1-0.1-2,0-2.9,0.2c-1.9,0.4-3.4,1.2-4.8,2.2c-1.4,1-2.6,2.1-3.8,3.3c-2.3,2.3-4.1,4.6-5.6,6.7c-0.7,1-1.3,2-1.9,2.9
								c-0.5,0.9-1,1.7-1.3,2.3c-0.3,0.7-0.6,1.2-0.8,1.5c-0.2,0.4-0.3,0.5-0.3,0.5L427.1,26.9z"/>
						</g>
					</g>
				</g>
				<g>
					<g>
						<g>
							<path fill="#835631" d="M161.4,176.9c0,0-0.4-0.1-1.2-0.4c-0.8-0.2-1.9-0.6-3.3-1c-1.4-0.5-3.2-1-5.1-1.7
								c-2-0.7-4.2-1.6-6.5-2.6c-2.3-1-4.9-2.3-7.4-3.7c-2.6-1.5-5.2-3.2-7.8-5.2c-1.3-1-2.6-2.1-3.8-3.3c-1.3-1.1-2.5-2.5-3.6-3.9
								c-1.1-1.4-2.2-3-3.1-4.8c-0.5-0.9-0.9-1.9-1.2-2.9c-0.3-1-0.6-2.1-0.8-3.2c-0.2-1.1-0.3-2.3-0.3-3.6c0-0.6,0-1.3,0-1.9
								c0.1-0.6,0.1-1.3,0.2-2c0.1-0.7,0.2-1.3,0.4-2l0.5-2.1c0.4-1.4,1.1-3,2.4-4.8c0.3-0.4,0.7-0.9,1.1-1.3l0.2-0.2l0.2-0.2
								l0.2-0.2l0.3-0.3l0.4-0.3c0.9-0.6,1.8-1.1,2.6-1.4c1.6-0.6,2.8-0.7,3.9-0.6l0.2,0l0.2,0l0.1,0l0.3,0l0.7,0.1l1.3,0.2
								c0.9,0.2,1.9,0.4,2.8,0.7c3.5,1.1,6.1,2.9,8.6,4.6c2.4,1.7,4.6,3.5,6.5,5c1,0.7,2,1.5,2.9,2.1c0.5,0.3,0.9,0.7,1.4,0.9
								c0.5,0.3,0.9,0.6,1.3,0.8c0.9,0.5,1.7,0.9,2.5,1.4c0.8,0.4,1.5,0.7,2.2,1c0.7,0.2,1.3,0.4,1.9,0.6c0.5,0.2,1,0.2,1.4,0.4
								c0.8,0.2,1.2,0.3,1.2,0.3l0,0.3c0,0-0.4-0.1-1.2-0.1c-0.4-0.1-0.9-0.1-1.5-0.2c-0.6-0.1-1.2-0.3-2-0.4
								c-0.7-0.2-1.5-0.5-2.4-0.8c-0.8-0.4-1.8-0.7-2.7-1.2c-1.9-0.9-3.9-2.1-6.1-3.4c-2.2-1.4-4.5-2.9-7-4.4
								c-2.5-1.5-5.3-3-8.5-3.8c-0.8-0.2-1.6-0.3-2.5-0.5c-0.9-0.1-1.8-0.1-2.7-0.1c-0.9,0-1.9,0.2-2.9,0.5c-1,0.4-1.9,1.1-2.6,2.1
								c-0.7,1-1.2,2.1-1.5,3.2c0,0-0.1,0.4-0.2,0.8c-0.1,0.4-0.2,0.9-0.2,0.9c-0.1,0.6-0.2,1.1-0.3,1.7c-0.3,2.3-0.4,4.3,0,6.4
								c0.7,4.1,2.3,7.3,4.3,10.2c2.1,2.9,4.4,5.2,6.8,7.4c4.8,4.3,9.8,7.6,14.3,10c2.2,1.2,4.3,2.2,6.2,3.1
								c1.9,0.9,3.5,1.6,4.9,2.1c1.4,0.6,2.4,1,3.2,1.3c0.7,0.3,1.1,0.4,1.1,0.4L161.4,176.9z"/>
						</g>
						<g>
							<path fill="#835631" d="M177.6,154.7c0,0-0.3-0.3-0.9-0.9c-0.6-0.6-1.4-1.4-2.4-2.5c-1-1.1-2.3-2.4-3.6-4
								c-1.4-1.6-2.9-3.4-4.4-5.4c-1.5-2.1-3.2-4.3-4.7-6.9c-1.5-2.5-3.1-5.3-4.3-8.3c-0.7-1.5-1.3-3.1-1.9-4.7
								c-0.6-1.6-1.1-3.3-1.4-5.1c-0.4-1.8-0.6-3.6-0.7-5.6c0-1,0-2,0.1-3.1c0.1-1,0.3-2.1,0.6-3.1c0.6-2.1,1.4-4.4,2.8-6.6
								c0.4-0.5,0.7-1.1,1.1-1.6l1.2-1.6c0.9-1.1,2-2.2,3.8-3.3c0.4-0.3,0.9-0.5,1.4-0.7l0.2-0.1l0.3-0.1l0.2-0.1l0.4-0.1l0.5-0.1
								c1-0.2,1.9-0.3,2.7-0.2c1.6,0.1,2.7,0.6,3.7,1l0.2,0.1l0.2,0.1l0.1,0l0.3,0.2l0.6,0.3l1.1,0.7c0.8,0.5,1.5,1.1,2.3,1.7
								c2.7,2.3,4.5,5,6.2,7.5c1.6,2.5,2.9,4.9,4.2,7.1c0.7,1.1,1.3,2.1,1.9,3c0.3,0.5,0.6,1,0.9,1.4c0.3,0.4,0.6,0.9,0.9,1.3
								c0.6,0.8,1.3,1.5,1.8,2.2c0.6,0.6,1.2,1.2,1.7,1.7c0.6,0.5,1.1,0.9,1.5,1.2c0.4,0.4,0.9,0.6,1.2,0.8c0.7,0.4,1,0.7,1,0.7
								l-0.1,0.3c0,0-0.4-0.2-1.1-0.6c-0.4-0.2-0.8-0.4-1.3-0.7c-0.5-0.3-1.1-0.7-1.7-1.1c-0.6-0.5-1.3-1-2-1.6
								c-0.6-0.7-1.4-1.3-2.1-2.1c-1.5-1.5-2.9-3.4-4.4-5.4c-1.5-2.1-3-4.4-4.8-6.7c-1.8-2.3-3.8-4.8-6.4-6.8
								c-0.7-0.5-1.3-1-2.1-1.4c-0.8-0.4-1.6-0.8-2.4-1.2c-0.8-0.4-1.7-0.6-2.7-0.7c-1,0-2.1,0.2-3,0.8c-1,0.6-1.8,1.4-2.5,2.2
								c0,0-0.3,0.3-0.5,0.6c-0.3,0.3-0.5,0.7-0.5,0.7c-0.3,0.4-0.6,0.9-0.9,1.4c-1.1,1.8-1.9,3.7-2.4,5.6c-1,3.8-0.9,7.4-0.3,10.9
								c0.6,3.4,1.6,6.6,2.7,9.6c2.2,6,5.1,11.3,7.8,15.6c1.4,2.1,2.7,4,3.9,5.7c1.2,1.7,2.3,3.1,3.2,4.2c0.9,1.2,1.7,2.1,2.2,2.7
								c0.5,0.6,0.8,0.9,0.8,0.9L177.6,154.7z"/>
						</g>
						<g>
							<path fill="#835631" d="M205.2,139c0,0-0.2-0.4-0.5-1.1c-0.3-0.7-0.8-1.8-1.4-3.2c-0.6-1.4-1.3-3.1-2-5
								c-0.7-2-1.5-4.2-2.2-6.7c-0.7-2.5-1.4-5.2-1.9-8.1c-0.5-2.9-1-6-1.2-9.3c-0.1-1.6-0.1-3.3-0.2-5c0-1.7,0.1-3.5,0.3-5.3
								c0.5-3.5,1.4-7.4,3.7-11.1c1.1-1.8,2.6-3.7,4.4-5.2c0.5-0.4,0.9-0.8,1.4-1.2l1.5-1.1c1.1-0.7,2.4-1.5,4.3-1.9
								c0.5-0.1,0.9-0.2,1.4-0.2l0.2,0l0.3,0l0.2,0l0.4,0l0.4,0c1,0.1,1.8,0.3,2.5,0.6c1.4,0.6,2.3,1.3,3.1,2l0.1,0.1l0.2,0.2
								l0.1,0.1l0.2,0.2l0.4,0.5l0.9,1c0.6,0.7,1.1,1.5,1.6,2.3c1.9,3,3,6,3.9,8.9c0.9,2.8,1.6,5.5,2.3,7.9c0.4,1.2,0.7,2.4,1.1,3.4
								c0.2,0.5,0.3,1.1,0.5,1.6c0.2,0.5,0.4,1,0.6,1.4c0.4,0.9,0.9,1.8,1.2,2.6c0.5,0.7,0.9,1.4,1.3,2.1c0.5,0.6,0.9,1.1,1.2,1.6
								c0.4,0.5,0.7,0.8,1,1.1c0.6,0.6,0.9,0.9,0.9,0.9l-0.2,0.2c0,0-0.3-0.3-1-0.8c-0.3-0.3-0.8-0.6-1.2-1
								c-0.4-0.4-0.9-0.9-1.4-1.5c-0.5-0.6-1-1.3-1.6-2c-0.5-0.8-1.1-1.6-1.5-2.5c-1-1.8-1.9-4-2.9-6.4c-0.9-2.4-1.8-5-2.8-7.8
								c-1.1-2.7-2.3-5.6-4.2-8.3c-0.5-0.6-1-1.3-1.5-2c-0.6-0.6-1.2-1.3-1.8-1.8c-0.7-0.6-1.4-1.1-2.3-1.5
								c-0.9-0.3-1.9-0.4-2.9-0.2c-1,0.2-1.9,0.7-2.8,1.3l-1.3,0.9c-0.4,0.3-0.8,0.7-1.2,1c-1.5,1.4-2.8,2.9-3.8,4.5
								c-2,3.3-3,6.7-3.6,10.1c-0.5,3.4-0.6,6.7-0.6,9.9c0.1,6.4,0.9,12.4,1.9,17.3c0.5,2.5,1.1,4.7,1.6,6.7c0.5,2,1.1,3.7,1.5,5.1
								c0.5,1.4,0.8,2.5,1.1,3.3c0.3,0.8,0.4,1.2,0.4,1.2L205.2,139z"/>
						</g>
						<g>
							<path fill="#835631" d="M240.2,131.2c0,0-0.1-0.4-0.3-1.2c-0.2-0.8-0.4-1.9-0.7-3.4c-0.3-1.5-0.6-3.3-0.8-5.3
								c-0.2-2.1-0.5-4.4-0.6-7c-0.1-2.6-0.1-5.4,0-8.3c0.1-3,0.4-6.1,0.9-9.3c0.3-1.6,0.6-3.2,0.9-4.9c0.3-1.6,0.8-3.4,1.4-5.1
								c1.1-3.4,2.8-6.9,5.4-10.1c1.4-1.6,3-3.1,4.9-4.3c0.5-0.3,1-0.6,1.5-0.9l1.5-0.8c1.1-0.5,2.4-1,4.1-1.2c0.4,0,0.9,0,1.3,0
								l0.2,0l0.2,0l0.2,0l0.3,0.1l0.4,0.1c0.9,0.2,1.6,0.6,2.2,1c1.2,0.8,1.9,1.6,2.6,2.4l0.1,0.2l0.1,0.2l0,0.1l0.2,0.3l0.3,0.5
								l0.7,1.1c0.4,0.8,0.9,1.6,1.3,2.5c1.4,3.2,2.1,6.3,2.6,9.3c0.6,2.9,0.9,5.7,1.3,8.1c0.2,1.2,0.4,2.4,0.7,3.5
								c0.1,0.6,0.2,1.1,0.4,1.6c0.1,0.5,0.3,1,0.4,1.5c0.3,1,0.7,1.8,1,2.7c0.4,0.8,0.7,1.5,1.1,2.2c0.4,0.6,0.8,1.2,1.1,1.7
								c0.3,0.5,0.7,0.9,0.9,1.2c0.5,0.6,0.8,1,0.8,1l-0.2,0.2c0,0-0.3-0.3-0.9-0.9c-0.3-0.3-0.7-0.6-1.1-1.1
								c-0.4-0.5-0.8-1-1.3-1.6c-0.4-0.6-0.9-1.4-1.4-2.2c-0.4-0.8-0.9-1.7-1.3-2.7c-0.8-1.9-1.5-4.2-2.1-6.7
								c-0.6-2.5-1.2-5.2-1.8-8c-0.7-2.8-1.5-5.8-2.9-8.7c-0.4-0.7-0.8-1.4-1.2-2.1c-0.5-0.7-1-1.4-1.5-2.1
								c-0.5-0.7-1.1-1.3-1.9-1.8c-0.8-0.5-1.7-0.7-2.6-0.6c-1,0.1-1.9,0.4-2.8,0.8l-1.3,0.7c-0.4,0.2-0.8,0.5-1.2,0.8
								c-1.6,1.1-3,2.3-4.2,3.7c-2.4,2.8-4,6-5.1,9.2c-1.2,3.2-1.9,6.5-2.5,9.6c-1.3,6.3-1.8,12.2-2,17.3c-0.1,2.5,0,4.9,0,6.9
								c0.1,2.1,0.2,3.9,0.3,5.3c0.1,1.5,0.2,2.6,0.3,3.4c0.1,0.8,0.1,1.2,0.1,1.2L240.2,131.2z"/>
						</g>
					</g>
				</g>
				<g>
					<g>
						<g>
							<path fill="#835631" d="M106.3,126.4c0,0-0.4,0-1.2-0.1c-0.8,0-2-0.1-3.5-0.2c-1.5-0.1-3.3-0.2-5.4-0.5
								c-2.1-0.2-4.4-0.5-6.9-1c-2.5-0.5-5.3-1-8.1-1.9c-2.8-0.8-5.8-1.8-8.8-3.2c-1.5-0.7-3-1.4-4.5-2.3c-1.5-0.8-3-1.8-4.4-2.9
								c-2.9-2.3-5.7-5.2-7.6-9.4c-0.9-2.1-1.6-4.6-1.9-7.3c0-0.7-0.1-1.4-0.1-2.1c0,0,0-0.5,0-1.1c0-0.5,0-1.1,0-1.1
								c0.1-1.5,0.3-3.3,1.2-5.4c0.2-0.5,0.5-1.1,0.8-1.6l0.1-0.2l0.2-0.3l0.1-0.2l0.2-0.4l0.3-0.4c0.7-0.9,1.5-1.5,2.2-2
								c1.4-1,2.6-1.4,3.7-1.6l0.2,0l0.2,0l0.1,0l0.3,0l0.7-0.1l1.3-0.2c0.9-0.1,1.9,0,2.9,0c3.7,0.2,6.7,1.4,9.4,2.5
								c2.8,1.1,5.2,2.4,7.5,3.5c1.1,0.5,2.2,1,3.3,1.5c0.5,0.2,1,0.5,1.5,0.6c0.5,0.2,1,0.4,1.5,0.5c0.9,0.4,1.9,0.5,2.7,0.8
								c0.8,0.2,1.6,0.4,2.3,0.5c0.7,0.1,1.4,0.2,1.9,0.3c0.6,0.1,1.1,0.1,1.4,0.1c0.8,0,1.2,0.1,1.2,0.1l0,0.3c0,0-0.4,0-1.2,0.1
								c-0.4,0-0.9,0.1-1.5,0.1c-0.6,0-1.2,0-2-0.1c-0.7-0.1-1.6-0.2-2.5-0.3c-0.9-0.2-1.9-0.3-2.9-0.6c-2-0.5-4.3-1.2-6.7-2
								c-2.4-0.9-5-1.9-7.8-2.8c-2.8-0.9-5.8-1.7-9.2-1.7c-0.9,0-1.7,0-2.6,0.1c-0.9,0.2-1.8,0.3-2.7,0.5c-0.9,0.3-1.8,0.6-2.7,1.3
								c-0.9,0.6-1.6,1.6-2.1,2.7c-0.5,1.1-0.7,2.3-0.8,3.6l-0.1,1.8c0,0.6,0,1.2,0.1,1.7c0.2,2.3,0.7,4.4,1.5,6.3
								c0.8,1.9,1.8,3.5,2.9,5c1.2,1.5,2.4,2.7,3.7,3.9c2.6,2.3,5.6,4,8.4,5.5c5.6,3,11.3,5,16.2,6.3c2.4,0.7,4.7,1.1,6.7,1.5
								c2,0.4,3.8,0.7,5.3,0.9c1.5,0.2,2.6,0.4,3.4,0.5c0.8,0.1,1.2,0.2,1.2,0.2L106.3,126.4z"/>
						</g>
						<g>
							<path fill="#835631" d="M119.9,98.3c0,0-0.3-0.3-0.9-0.8c-0.6-0.5-1.5-1.3-2.6-2.3c-1.1-1-2.4-2.2-3.9-3.7
								c-1.5-1.5-3.1-3.2-4.8-5.1c-1.7-1.9-3.5-4.1-5.2-6.5c-1.7-2.4-3.4-5.1-4.9-8c-0.7-1.5-1.4-3-2.1-4.5
								c-0.6-1.5-1.3-3.3-1.7-5.1c-0.8-3.5-1.2-7.6-0.1-12.1c0.6-2.3,1.6-4.6,3.1-6.9c0.4-0.6,0.8-1.1,1.2-1.7l1.4-1.7
								c1-1.1,2.3-2.3,4.3-3.5c0.5-0.3,1-0.5,1.6-0.7l0.2-0.1l0.3-0.1l0.2-0.1l0.4-0.1l0.5-0.1c1.1-0.3,2.1-0.3,3-0.2
								c1.7,0.1,2.9,0.6,3.9,1.1l0.2,0.1l0.2,0.1l0.1,0l0.3,0.2l0.6,0.4l1.2,0.7c0.8,0.5,1.5,1.2,2.3,1.8c2.7,2.4,4.3,5.3,5.8,7.8
								c1.5,2.6,2.6,5.1,3.7,7.4c0.6,1.1,1.1,2.2,1.7,3.2c0.3,0.5,0.5,1,0.8,1.4c0.3,0.5,0.6,0.9,0.8,1.3c0.5,0.9,1.1,1.6,1.6,2.4
								c0.5,0.7,1.1,1.3,1.5,1.9c0.5,0.5,1,1,1.3,1.4c0.4,0.4,0.8,0.7,1.1,1c0.6,0.5,0.9,0.8,0.9,0.8l-0.1,0.2c0,0-0.3-0.3-1-0.7
								c-0.3-0.3-0.8-0.5-1.2-0.9c-0.4-0.4-1-0.8-1.5-1.3c-0.5-0.5-1.1-1.1-1.8-1.8c-0.6-0.7-1.3-1.4-1.9-2.2
								c-1.3-1.6-2.6-3.6-4-5.8c-1.4-2.2-2.7-4.6-4.4-7c-1.6-2.4-3.5-4.9-6.1-7.1c-0.7-0.5-1.3-1-2.1-1.5c-0.8-0.4-1.6-0.9-2.4-1.3
								c-0.9-0.4-1.8-0.7-2.9-0.7c-1.1,0-2.2,0.2-3.3,0.8c-1.1,0.6-2,1.4-2.8,2.3l-1.2,1.3c-0.4,0.5-0.7,0.9-1,1.4
								c-0.6,1-1.2,1.9-1.6,2.9c-0.5,1-0.8,2-1.1,3c-0.6,1.9-0.8,3.9-0.8,5.7c0,1.9,0.2,3.6,0.5,5.3c0.7,3.4,1.8,6.6,3.1,9.6
								c2.6,6,5.7,10.9,8.8,15c1.5,2,3,3.8,4.3,5.4c1.3,1.6,2.5,2.9,3.5,4c1,1.1,1.8,1.9,2.4,2.5c0.6,0.6,0.8,0.9,0.8,0.9
								L119.9,98.3z"/>
						</g>
					</g>
				</g>
				<g>
					<g>
						<g>
							<path fill="#835631" d="M49.5,95.4c0,0-0.4,0-1.2,0.1c-0.8,0.1-2,0.2-3.5,0.3c-1.5,0.1-3.3,0.2-5.4,0.2c-2.1,0-4.4,0-7-0.1
								c-2.6-0.1-5.4-0.4-8.3-0.9c-2.9-0.5-6-1.1-9.1-2c-1.6-0.5-3.1-1-4.7-1.6c-1.6-0.6-3.3-1.3-4.8-2.2c-1.6-0.9-3.2-1.9-4.7-3.1
								c-0.8-0.6-1.5-1.3-2.3-2.1c-0.7-0.7-1.4-1.6-2.1-2.5c-0.6-0.9-1.2-1.9-1.8-3c-0.5-1.1-1-2.2-1.4-3.4C-7,74.6-7.2,74-7.3,73.3
								c0,0-0.1-0.5-0.2-1c-0.1-0.5-0.2-1-0.2-1c-0.2-1.4-0.4-3,0-5.1c0.1-0.5,0.2-1,0.4-1.6l0.1-0.2l0.1-0.3l0.1-0.2l0.2-0.4
								l0.2-0.4c0.5-0.9,1-1.7,1.6-2.2c1.1-1.1,2.2-1.7,3.2-2.2l0.2-0.1l0.2-0.1l0.1,0l0.3-0.1l0.6-0.2l1.3-0.4
								c0.9-0.2,1.9-0.4,2.8-0.6c3.6-0.6,6.8-0.2,9.7,0.2c2.9,0.4,5.6,1,8.1,1.5c1.2,0.2,2.4,0.4,3.6,0.5c0.6,0.1,1.1,0.2,1.6,0.2
								c0.5,0,1.1,0.1,1.6,0.1c1,0.1,2,0,2.8,0.1c0.9-0.1,1.7-0.1,2.4-0.2c0.7-0.1,1.4-0.2,1.9-0.3c0.6-0.1,1-0.3,1.4-0.3
								c0.8-0.2,1.2-0.3,1.2-0.3l0.1,0.3c0,0-0.4,0.2-1.2,0.4c-0.4,0.1-0.9,0.4-1.4,0.5c-0.6,0.2-1.2,0.3-2,0.5
								c-0.7,0.1-1.6,0.3-2.5,0.4c-0.9,0.1-1.9,0.2-3,0.2c-2.1,0.1-4.4,0-7-0.2c-2.6-0.2-5.3-0.6-8.2-0.8c-2.9-0.2-6.1-0.3-9.3,0.4
								c-0.8,0.2-1.6,0.4-2.4,0.7c-0.8,0.3-1.7,0.7-2.5,1c-0.8,0.4-1.6,0.9-2.3,1.7c-0.7,0.7-1.2,1.7-1.4,2.8
								C-5.3,67.8-5.2,68.9-5,70l0.3,1.6c0.1,0.5,0.3,1,0.4,1.6c0.7,2.1,1.6,3.9,2.7,5.5C0.7,82,3.5,84.3,6.6,86
								c3,1.8,6.1,3,9.1,4.1c6.1,2.2,11.9,3.3,16.9,4c2.5,0.3,4.8,0.6,6.9,0.7c2.1,0.1,3.9,0.2,5.3,0.3c1.5,0,2.6,0.1,3.4,0.1
								c0.8,0,1.2,0,1.2,0L49.5,95.4z"/>
						</g>
						<g>
							<path fill="#835631" d="M55.9,63.3c0,0-0.4-0.1-1.2-0.4c-0.8-0.2-1.9-0.6-3.3-1.1c-1.4-0.5-3.1-1.1-5-2
								c-1.9-0.8-4.1-1.7-6.4-2.9c-2.3-1.2-4.8-2.5-7.2-4.1c-2.5-1.6-5.1-3.4-7.6-5.5c-1.3-1.1-2.5-2.2-3.7-3.3
								c-1.2-1.1-2.4-2.5-3.6-3.9c-2.3-2.9-4.3-6.2-5.3-10.6c-0.5-2.2-0.6-4.6-0.4-7.2c0.1-0.6,0.2-1.3,0.3-1.9l0.4-2
								c0.3-1.4,0.9-2.9,2-4.7c0.3-0.4,0.6-0.9,1-1.3l0.1-0.2l0.2-0.2l0.2-0.2l0.3-0.3l0.4-0.3c0.8-0.7,1.6-1.1,2.4-1.4
								c1.5-0.6,2.7-0.7,3.8-0.7l0.2,0l0.2,0l0.1,0l0.3,0l0.7,0l1.3,0.1c0.9,0.1,1.9,0.3,2.8,0.5c3.5,0.9,6.3,2.5,8.8,4.1
								c2.5,1.6,4.8,3.2,6.9,4.6c1.1,0.7,2.1,1.4,3,1.9c0.5,0.3,1,0.6,1.4,0.9c0.5,0.3,0.9,0.5,1.4,0.7c0.9,0.5,1.8,0.8,2.6,1.2
								c0.8,0.3,1.6,0.6,2.3,0.8c0.7,0.2,1.4,0.3,1.9,0.5c0.6,0.2,1,0.2,1.4,0.3c0.8,0.1,1.2,0.2,1.2,0.2l0,0.3c0,0-0.4,0-1.2-0.1
								c-0.4,0-0.9,0-1.5-0.1c-0.6-0.1-1.3-0.2-2-0.3c-0.7-0.2-1.6-0.4-2.4-0.6c-0.8-0.3-1.8-0.6-2.8-1c-2-0.8-4.1-1.8-6.3-3.1
								c-2.3-1.2-4.6-2.6-7.2-4c-2.6-1.3-5.4-2.7-8.7-3.3c-0.8-0.1-1.7-0.3-2.5-0.4c-0.9,0-1.8-0.1-2.7,0c-0.9,0.1-1.8,0.2-2.8,0.6
								c-0.9,0.4-1.8,1.1-2.4,2.1c-0.6,0.9-1,2-1.3,3.1l-0.3,1.7c-0.1,0.5-0.2,1.1-0.2,1.6c-0.2,2.1-0.1,4.2,0.3,6.1
								c0.7,3.8,2.5,7.1,4.6,9.9c2,2.8,4.4,5.2,6.8,7.4c4.7,4.4,9.6,7.8,13.9,10.4c2.2,1.3,4.2,2.4,6,3.4c1.8,0.9,3.4,1.7,4.8,2.4
								c1.3,0.6,2.4,1.1,3.1,1.4C55.6,62.9,56,63,56,63L55.9,63.3z"/>
						</g>
						<g>
							<path fill="#835631" d="M74.6,36.5c0,0-0.3-0.3-0.9-0.8c-0.6-0.5-1.5-1.3-2.6-2.3c-1.1-1-2.4-2.3-3.8-3.8
								c-1.4-1.5-3-3.2-4.7-5.2c-1.6-2-3.4-4.2-5-6.7c-1.7-2.5-3.3-5.1-4.7-8.1c-0.7-1.5-1.4-3-2.1-4.5c-0.7-1.5-1.3-3.3-1.7-5
								c-0.5-1.7-0.8-3.6-0.9-5.6c-0.1-2-0.1-4.1,0.3-6.2c0.4-2.2,1.2-4.5,2.5-6.7c0.3-0.6,0.6-1.1,1-1.7c0,0,0.3-0.4,0.6-0.8
								c0.3-0.4,0.6-0.8,0.6-0.8c0.9-1.1,1.9-2.3,3.7-3.5c0.4-0.3,0.9-0.5,1.4-0.8l0.2-0.1l0.3-0.1l0.2-0.1l0.4-0.1l0.5-0.1
								c1-0.3,1.9-0.4,2.7-0.4c1.6,0.1,2.8,0.4,3.8,0.8l0.2,0.1l0.2,0.1l0.1,0l0.3,0.2l0.6,0.3l1.2,0.6c0.8,0.5,1.6,1.1,2.4,1.6
								c2.8,2.2,4.8,4.8,6.5,7.2c1.7,2.4,3.1,4.8,4.5,6.9c0.7,1,1.4,2.1,2,3c0.3,0.5,0.6,0.9,1,1.4c0.3,0.4,0.7,0.8,1,1.2
								c0.6,0.8,1.3,1.4,1.9,2.1c0.6,0.6,1.2,1.1,1.8,1.6c0.6,0.4,1.1,0.8,1.5,1.2c0.5,0.4,0.9,0.6,1.2,0.8c0.7,0.4,1,0.7,1,0.7
								l-0.1,0.3c0,0-0.4-0.2-1.1-0.6c-0.4-0.2-0.8-0.4-1.3-0.7c-0.5-0.3-1.1-0.7-1.7-1.1c-0.6-0.5-1.3-1-2-1.5
								c-0.7-0.6-1.4-1.3-2.2-2C83.5-4.2,82-6,80.4-8c-1.6-2-3.2-4.3-5.1-6.5c-1.9-2.3-3.9-4.6-6.7-6.5c-0.7-0.4-1.4-0.9-2.2-1.3
								c-0.8-0.4-1.6-0.8-2.4-1.1c-0.9-0.3-1.8-0.5-2.8-0.5c-1,0-2.1,0.3-3,0.9c-1,0.6-1.7,1.5-2.4,2.4l-1,1.4
								c-0.3,0.5-0.6,0.9-0.9,1.4c-1,1.9-1.7,3.8-2.1,5.7c-0.8,3.9-0.5,7.5,0.3,10.9c0.8,3.4,2,6.5,3.2,9.5c2.6,5.9,5.7,11,8.6,15.1
								c1.5,2.1,2.9,3.9,4.2,5.5c1.3,1.6,2.5,3,3.4,4.1c1,1.1,1.8,2,2.3,2.6c0.5,0.6,0.8,0.9,0.8,0.9L74.6,36.5z"/>
						</g>
					</g>
				</g>
				<g>
					<g>
						<g>
							<path fill="#835631" d="M27.6,6.3c0,0-0.4,0-1.2,0.1c-0.8,0.1-2,0.2-3.5,0.3c-1.5,0.1-3.3,0.2-5.4,0.3
								c-2.1,0.1-4.4,0.1-7,0.1C7.9,7,5.1,6.8,2.2,6.4c-2.9-0.4-6.1-1-9.1-2c-1.6-0.5-3.1-1.1-4.7-1.7c-1.6-0.6-3.2-1.5-4.7-2.5
								c-1.5-1-3.1-2.2-4.5-3.7c-1.4-1.5-2.8-3.3-3.8-5.5c-0.5-1.1-1-2.3-1.4-3.6c-0.4-1.3-0.7-2.7-0.8-4.2
								c-0.1-0.8-0.1-1.5-0.2-2.3l0.1-2.4c0.1-1.6,0.4-3.6,1.3-6c0.2-0.6,0.5-1.2,0.9-1.8l0.1-0.2l0.2-0.3l0.1-0.2l0.3-0.4l0.3-0.5
								c0.8-1,1.6-1.7,2.3-2.3c1.5-1.1,2.8-1.5,3.9-1.8l0.2-0.1l0.2-0.1l0.1,0l0.4-0.1l0.7-0.1l1.4-0.2c1-0.1,2,0,3,0
								c3.7,0.2,6.7,1.5,9.4,2.8C0.6-31.6,3-30.2,5.2-29c1.1,0.6,2.2,1.2,3.2,1.6c0.5,0.2,1,0.5,1.5,0.7c0.5,0.2,1,0.4,1.4,0.6
								c0.9,0.4,1.8,0.7,2.6,1c0.8,0.3,1.6,0.5,2.3,0.7c0.7,0.2,1.3,0.3,1.9,0.5c0.5,0.2,1,0.2,1.4,0.3c0.8,0.1,1.2,0.2,1.2,0.2
								l0,0.3c0,0-0.4,0-1.2-0.1c-0.4,0-0.9,0-1.4-0.1c-0.6-0.1-1.2-0.2-2-0.3c-0.7-0.1-1.5-0.3-2.4-0.5c-0.9-0.3-1.8-0.5-2.8-0.8
								c-2-0.6-4.2-1.4-6.6-2.4c-2.4-1-4.9-2.1-7.7-3c-2.8-1-5.8-1.8-9.3-1.8c-0.9,0.1-1.7,0.1-2.6,0.2c-0.9,0.2-1.9,0.4-2.8,0.6
								c-0.9,0.3-1.9,0.7-2.8,1.5c-0.9,0.7-1.7,1.8-2.2,3c-0.5,1.3-0.7,2.6-0.8,3.9c0,0,0,0.5,0,1c0,0.5,0,1,0,1
								c0,0.6,0.1,1.3,0.1,1.9c0.2,2.5,0.8,4.7,1.7,6.7c0.8,2,2,3.7,3.2,5.1c1.2,1.5,2.6,2.7,4,3.7c2.8,2.1,5.9,3.6,8.9,4.8
								c6,2.4,11.8,3.5,16.9,4.1c2.5,0.3,4.8,0.4,6.9,0.5c2.1,0.1,3.9,0.1,5.3,0.1c1.5,0,2.6,0,3.4,0c0.8,0,1.2,0,1.2,0L27.6,6.3z"
								/>
						</g>
					</g>
				</g>
			</g>
			<use xlink:href="#SVGID_9_"  overflow="visible" fill="none" stroke="#835631" stroke-width="3.708" stroke-miterlimit="10"/>
		</g>
	</g>
</g>
</svg>
