<?xml version="1.0" encoding="utf-8"?>
<!-- Generator: Adobe Illustrator 18.1.1, SVG Export Plug-In . SVG Version: 6.00 Build 0)  -->
<svg version="1.1" id="Layer_1" xmlns="http://www.w3.org/2000/svg" xmlns:xlink="http://www.w3.org/1999/xlink" x="0px" y="0px"
	 viewBox="0 0 500 500" enable-background="new 0 0 500 500" xml:space="preserve">
<symbol  id="New_Symbol" viewBox="-35.6 -23.4 71.1 46.9">
	<g>
		<path fill="#231F20" d="M-35.6,5.2c0,0,1.2,0.1,3.4,0.3c0.5,0,1.1,0.1,1.8,0.1c0.7,0,1.4,0,2.1,0c0.8,0,1.6,0,2.4,0
			c0.8,0,1.7-0.1,2.7-0.2c0.9-0.1,1.9-0.1,2.9-0.2c1-0.1,2-0.3,3.1-0.4c1.1-0.1,2.1-0.3,3.2-0.5c1.1-0.2,2.2-0.4,3.4-0.7
			C-8.3,3-6,2.5-3.6,1.7c2.4-0.7,4.7-1.6,7-2.4c2.3-1,4.6-2,6.8-3.1c2.2-1,4.3-2.3,6.3-3.5c1-0.6,2-1.2,2.9-1.9
			c0.9-0.6,1.9-1.2,2.7-1.9c0.9-0.6,1.7-1.3,2.5-1.9c0.8-0.6,1.5-1.3,2.2-1.9c0.7-0.6,1.4-1.2,2-1.7c0.6-0.6,1.2-1.1,1.7-1.7
			c0.5-0.5,1.1-1,1.5-1.5c0.5-0.5,0.9-0.9,1.2-1.3c1.5-1.6,2.3-2.5,2.3-2.5s-1,0.8-2.7,2.1c-0.8,0.7-1.9,1.5-3.1,2.3
			c-0.6,0.4-1.2,0.9-1.9,1.4c-0.7,0.5-1.4,1-2.2,1.5c-0.8,0.5-1.5,1.1-2.4,1.6c-0.8,0.5-1.7,1.1-2.6,1.6c-0.9,0.6-1.8,1.1-2.8,1.6
			c-1,0.5-1.9,1.1-2.9,1.7c-2,1.1-4.1,2.2-6.3,3.2c-2.1,1.1-4.4,2-6.6,2.9C0-2.6-2.2-1.7-4.5-1c-2.3,0.8-4.5,1.4-6.7,2
			c-1.1,0.3-2.2,0.5-3.3,0.8c-1.1,0.3-2.1,0.5-3.1,0.7c-1,0.2-2,0.4-3,0.6c-1,0.2-1.9,0.3-2.8,0.5C-24.3,3.8-25.2,4-26,4.1
			c-0.8,0.1-1.6,0.2-2.3,0.3c-1.5,0.2-2.8,0.4-3.9,0.4C-34.3,5-35.6,5.2-35.6,5.2z"/>
	</g>
	<g>
		<path fill="#231F20" d="M-25,23.2c0,0,0.9,0.1,2.6,0.1c0.8,0,1.8,0.1,3,0c0.6,0,1.2,0,1.8-0.1c0.6,0,1.3-0.1,2-0.2
			c0.7-0.1,1.4-0.1,2.2-0.2c0.8-0.1,1.5-0.3,2.3-0.4c1.6-0.3,3.3-0.7,5-1.1c1.7-0.5,3.5-1,5.2-1.6c1.8-0.6,3.5-1.4,5.2-2.1
			C6,16.8,7.8,16,9.4,15c1.6-0.9,3.1-2,4.6-2.9c1.4-1,2.8-2,4.1-3.1c0.6-0.5,1.2-1,1.8-1.5c0.6-0.5,1.1-1,1.6-1.5
			c0.5-0.5,1-1,1.4-1.4c0.4-0.5,0.8-0.9,1.2-1.4c0.8-0.8,1.4-1.6,1.9-2.3c1-1.3,1.6-2.1,1.6-2.1s-0.7,0.6-2,1.6
			c-0.6,0.5-1.4,1.1-2.3,1.9c-0.9,0.7-1.9,1.5-3,2.3c-1.1,0.8-2.3,1.7-3.6,2.6c-0.6,0.5-1.3,0.9-2,1.3C14,9,13.3,9.5,12.6,10
			c-1.5,0.9-3,1.8-4.6,2.6c-1.6,0.9-3.2,1.6-4.9,2.4c-1.7,0.7-3.3,1.5-5,2.1c-1.7,0.7-3.3,1.3-5,1.8c-0.8,0.3-1.6,0.5-2.4,0.7
			c-0.8,0.3-1.6,0.5-2.3,0.7c-1.5,0.4-3,0.8-4.3,1.1c-0.7,0.2-1.3,0.3-1.9,0.4c-0.6,0.1-1.2,0.2-1.8,0.3c-1.1,0.2-2.1,0.4-2.9,0.5
			C-24.1,23.1-25,23.2-25,23.2z"/>
	</g>
</symbol>
<symbol  id="New_Symbol_1" viewBox="-78 -88.1 156 176.3">
	<g>
		<path fill="#754C28" stroke="#603813" stroke-width="1.764" stroke-miterlimit="10" d="M31.7-74.1L6.4,80.7l11.9-4.3L42.2-69.4
			C39-71,35.5-72.6,31.7-74.1z"/>
		<path fill="#754C28" stroke="#603813" stroke-width="1.764" stroke-miterlimit="10" d="M-36.1-77.7L-59.7,66.4l10.1,6.1
			l25.2-153.3C-28.3-80.1-32.2-79.1-36.1-77.7z"/>
		<path fill="#754C28" stroke="#603813" stroke-width="1.764" stroke-miterlimit="10" d="M-74.4,50.6l1.3-0.1c2.7-0.1,5.3,1,7.1,3.1
			c28.7,32.9,78.3,23.6,98.9,16.1c-4.8-4-4.1-15.6,3.8-18.6c1.2-0.5,3.1-0.8,4.4-0.8c16.3-0.4,14.8,15,11,19.5
			c-2.3,2.7-5.3,4.7-7.8,6.1c-0.4,0.2-0.7,0.4-1,0.5c0,0-0.1,0-0.1,0.1c-1.2,0.5-2.4,1-3.5,1.5C-25,104.9-65.5,65.7-75.8,53.9
			C-76.9,52.7-76,50.7-74.4,50.6z"/>
		<path fill="#754C28" stroke="#603813" stroke-width="1.764" stroke-miterlimit="10" d="M59.5-55.8C45.4-65.5-0.4-93-44-72.7
			c-2.7,1.2-5.7,1.3-8.4,0.2l-1.2-0.5c-1.6-0.7-1.6-2.9-0.1-3.6c15.5-7.2,74.5-29.1,129.6,24.4c1.1,1,0.1,2.8-1.4,2.5l-4.3-1.1
			C66.3-51.9,62.8-53.5,59.5-55.8z"/>
	</g>
	<polygon display="none" fill="none" points="-78,88 78,88 78,-88 -78,-88 	"/>
</symbol>
<symbol  id="New_Symbol_2" viewBox="-24.3 -18.2 48.6 36.4">
	<path fill="#754C28" stroke="#603813" stroke-width="2.2985" stroke-miterlimit="10" d="M-21.6-5.2c0,0,17.3-23.6,37-4.3
		c0,0-9.9,4.3-11.9,10.7c0,0,16.5-1.4,19.3,6.1c0,0-16.9,5.4-23,9.7l-13.2-0.7l-9.9-21.5"/>
</symbol>
<symbol  id="New_Symbol_3" viewBox="-8.4 -13.6 16.7 27.2">
	<path fill="#C3996B" stroke="#A87C4F" stroke-width="1.47" stroke-miterlimit="10" d="M6.2,8.2c0,0-2.8,4.6-9.9,4.6
		c-7.1,0-2.8-15.6-0.9-19.7c1.9-4,5.2-6.9,12.2-5.8L6.2,8.2z"/>
</symbol>
<symbol  id="New_Symbol_4" viewBox="-3.2 -5.1 6.4 10.2">
	<path d="M-2.6,1c-1.1-2.8-0.8-5.4,0.6-6s3.4,1.2,4.5,4c1.1,2.8,0.8,5.4-0.6,6C0.5,5.5-1.5,3.7-2.6,1z"/>
</symbol>
<symbol  id="New_Symbol_5" viewBox="-2.7 -2.8 5.3 5.6">
	<path d="M-1,0.9c-1.4-1.5-2-3.1-1.5-3.6C-1.9-3.2-0.4-2.4,1-0.9c1.4,1.5,2,3.1,1.5,3.6C1.9,3.2,0.4,2.4-1,0.9z"/>
</symbol>
<symbol  id="New_Symbol_6" viewBox="-28.3 -74.3 56.6 148.6">

		<path fill="none" stroke="#FAAF40" stroke-width="1.8086" stroke-linecap="round" stroke-linejoin="round" stroke-miterlimit="10" d="
		M2.6,73.4C2.6,73.4,2.4,8-13.5-53"/>

		<path fill="none" stroke="#FAAF40" stroke-width="1.8086" stroke-linecap="round" stroke-linejoin="round" stroke-miterlimit="10" d="
		M-10.5,73.4c0,0,0.5-45.2-8.9-96.1"/>

		<path fill="none" stroke="#FAAF40" stroke-width="1.8086" stroke-linecap="round" stroke-linejoin="round" stroke-miterlimit="10" d="
		M-23.4,73.1c0,0,0.3-27.2-3.9-63.1"/>

		<path fill="none" stroke="#FAAF40" stroke-width="1.8086" stroke-linecap="round" stroke-linejoin="round" stroke-miterlimit="10" d="
		M15.2,72.3C15.2,72.3,15.9,9,0-52"/>

		<path fill="none" stroke="#FAAF40" stroke-width="1.8086" stroke-linecap="round" stroke-linejoin="round" stroke-miterlimit="10" d="
		M27.4,51.4c0,0,1-63.8-14.9-124.8"/>
	<polygon display="none" fill="none" points="-29,74 29,74 29,-74 -29,-74 	"/>
</symbol>
<g>
	<defs>
		<rect id="SVGID_1_" width="500" height="500"/>
	</defs>
	<clipPath id="SVGID_2_">
		<use xlink:href="#SVGID_1_"  overflow="visible"/>
	</clipPath>
	<g clip-path="url(#SVGID_2_)">
		<rect fill="#C2E6EB" width="500" height="500"/>

			<use xlink:href="#New_Symbol_3"  width="16.7" height="27.2" x="-8.4" y="-13.6" transform="matrix(-1.9231 0 0 -1.9231 330.1983 157.5118)" overflow="visible"/>

			<use xlink:href="#New_Symbol_1"  width="156" height="176.3" x="-78" y="-88.1" transform="matrix(1.9231 0 0 -1.9231 373.0769 480.7692)" overflow="visible"/>
		<path fill="#754C28" stroke="#603813" stroke-width="3.4781" stroke-miterlimit="10" d="M206,211.5c0,0-6.2-29.3-28.6-102.7
			C154.9,35.5-0.3,40.4,21.4,131.3C43.1,222.3,68.8,319.5,72.2,365c3.2,44,1.2,87.2,6.5,108.5c5,20.5,18.4,87,145.5,67.5
			C351.1,521.5,206,211.5,206,211.5z"/>
		<path fill="#C2E6EB" stroke="#4C9EBC" stroke-width="2.827" stroke-miterlimit="10" d="M189.8,215.4c0,0-5.9-26.6-26-92.8
			c-20.1-66.2-138.6-58-118.3,24.2c20.3,82.3,43.9,170.2,48.3,211.6c4.3,40,14.5,74.4,19.4,93.7c4.7,18.6,7.6,83.8,103.9,62.9
			C313.4,494.1,189.8,215.4,189.8,215.4z"/>

			<path fill="#F79838" stroke="#FAAF40" stroke-width="3.4781" stroke-linecap="round" stroke-linejoin="round" stroke-miterlimit="10" d="
			M114.9,105.4c15.6,0,32.5,1.8,42.6,3.1c2.6,4.2,4.8,8.9,6.3,14c20.1,66.2,26,92.8,26,92.8S313.4,494.1,217.1,515
			c-96.3,20.9-95.9-26.7-100.6-45.3c-4.9-19.3-18.4-71.3-22.7-111.3c-4.4-41.3-28-129.3-48.3-211.6c-3.8-15.3-2.8-27.9,1.5-38.1
			C70.7,106.2,97.7,105.4,114.9,105.4z"/>

			<path fill="none" stroke="#FAAF40" stroke-width="3.4781" stroke-linecap="round" stroke-linejoin="round" stroke-miterlimit="10" d="
			M49.1,109.8c0,0,0.4,18.4-0.9,45"/>
		<g>

				<use xlink:href="#New_Symbol_6"  width="56.6" height="148.6" x="-28.3" y="-74.3" transform="matrix(1.9231 0 0 -1.9231 119.2308 248.0769)" overflow="visible"/>

				<path fill="none" stroke="#FAAF40" stroke-width="3.4781" stroke-linecap="round" stroke-linejoin="round" stroke-miterlimit="10" d="
				M124.4,107.1c0,0,20.8,33.8,45.8,84.6"/>

				<path fill="none" stroke="#FAAF40" stroke-width="3.4781" stroke-linecap="round" stroke-linejoin="round" stroke-miterlimit="10" d="
				M99.6,107.1c0,0,34.5,56,68,132.2"/>

				<path fill="none" stroke="#FAAF40" stroke-width="3.4781" stroke-linecap="round" stroke-linejoin="round" stroke-miterlimit="10" d="
				M74.9,107.3c0,0,49.6,80.4,87.6,179.6"/>

				<path fill="none" stroke="#FAAF40" stroke-width="3.4781" stroke-linecap="round" stroke-linejoin="round" stroke-miterlimit="10" d="
				M50.3,109.5c0,0,66.5,107.8,104.5,227.8"/>

				<path fill="none" stroke="#FAAF40" stroke-width="3.4781" stroke-linecap="round" stroke-linejoin="round" stroke-miterlimit="10" d="
				M148.9,108.7c0,0,9.4,15.2,23.1,40.6"/>

				<path fill="none" stroke="#FAAF40" stroke-width="3.4781" stroke-linecap="round" stroke-linejoin="round" stroke-miterlimit="10" d="
				M48.2,154.6c0,0,58.7,107.2,96.8,224.8"/>

				<path fill="none" stroke="#FAAF40" stroke-width="3.4781" stroke-linecap="round" stroke-linejoin="round" stroke-miterlimit="10" d="
				M65.7,227.7c0,0,23,56.2,48,131.9"/>
		</g>
		<path fill="#16B8D9" stroke="#0E91A2" stroke-width="2.827" stroke-miterlimit="10" d="M334,300.7c-0.4-0.9-0.8-1.7-1.3-2.6
			c-13.2-27.6-30.5-56.1-57.5-69.3c22.4,36.2,29.4,81.6,19.3,122.9c10.9,26,27.9,49.4,49,68c15.3-12.1,29.2-25.9,41.3-41.2
			C360.4,359.2,347.5,329,334,300.7z"/>

			<use xlink:href="#New_Symbol_2"  width="48.6" height="36.4" x="-24.3" y="-18.2" transform="matrix(1.9231 0 0 -1.9231 297.9696 208.7976)" overflow="visible"/>

			<use xlink:href="#New_Symbol_2"  width="48.6" height="36.4" x="-24.3" y="-18.2" transform="matrix(-1.9231 0 0 -2.122 151.1371 203.2544)" overflow="visible"/>
		<path fill="#16B8D9" stroke="#0E91A2" stroke-width="2.827" stroke-miterlimit="10" d="M286.1,248.6c-4.3-6.9-8.2-13.1-11-18.5
			c-11.3-22.1-105.4-65.3-149.1,29.8c-30.1,65.4-1.9,198.1,19.8,229.9c54.6,13.6,162.4,2.9,192.5-17.5c-8.3-21.2-34.5-69.1-37.8-92
			c0,0,24.1-28.3,20.5-53.7C316.9,296.7,299.4,269.6,286.1,248.6z"/>
		<path fill="#C3996B" stroke="#A87C4F" stroke-width="2.827" stroke-miterlimit="10" d="M266.3,205.1l-12.2,22.8
			c0,0-12.6,9.7-47.2-0.6c-20.6-6.1-21.7-21.1-21.7-21.1l8.9-19.5L266.3,205.1z"/>
		<path fill="#C3996B" stroke="#A87C4F" stroke-width="2.827" stroke-miterlimit="10" d="M152.3,149.5c1.3,38.4,46.4,70.1,92.8,68.9
			c51.2-1.3,92.8-30.9,92.8-68.9s-41.6-68.9-92.8-68.9C193.9,80.6,151,111.4,152.3,149.5z"/>
		<path fill="#C3996B" stroke="#A87C4F" stroke-width="2.827" stroke-miterlimit="10" d="M211,186.9c0,0,6.1,16.1,38.9,22.8
			c32.8,6.7,47.2-17.2,47.2-17.2"/>

			<use xlink:href="#New_Symbol_4"  width="6.4" height="10.2" x="-3.2" y="-5.1" transform="matrix(1.9231 0 0 -1.9231 240.4125 169.4895)" overflow="visible"/>

			<use xlink:href="#New_Symbol_4"  width="6.4" height="10.2" x="-3.2" y="-5.1" transform="matrix(1.9231 0 0 -1.9231 292.2579 169.4895)" overflow="visible"/>
		<path fill="#C3996B" stroke="#A87C4F" stroke-width="2.827" stroke-miterlimit="10" d="M252.5,188.8c4,14.7,37.8,11.8,31.2-5.9"/>
		<path fill="#1B75BB" stroke="#26A9E0" stroke-width="2.827" stroke-miterlimit="10" d="M378.5,523.3
			c-100.6,1.2-201.3,2.4-301.9,3.6c0.2-5.2,2-10.4,4.7-14.8c4.5-7.1,11.2-12.5,18-17.4c44.5-31.8,98.1-46.7,151.8-58.5
			c16.6-3.6,33.6-4.8,50.5-3.6c75.6,5.5,106.4-4.7,136.4,5.6c30,10.3,105.4,52.5,115,83C495,521.9,436.8,522.6,378.5,523.3z"/>
		<path fill="#F398C0" stroke="#CC6699" stroke-width="2.827" stroke-miterlimit="10" d="M157.4,435.1
			c15.7-20.2,38.9-35.4,62.3-46.9c28.8-14.2,65.9-26.3,97.9-24.4c73,4.2,85.6,20.8,91.2,41.5c7.2,26.3-7.6,53.3-32.7,63.7
			c-2.3,0.9-4.5,1.8-6.8,2.5c-21.6,7.1-44.7,7.3-67.4,6.7c-22.7-0.5-45.6-1.7-67.9,2.8c-21.8,4.4-42.3,14.2-64.1,18.8
			c-4.7,1-9.5,1.2-14.1,0c-17.4-4.4-17.8-22.3-13.6-35.9C145.4,453.4,150.7,443.8,157.4,435.1z"/>
		<g>
			<path fill="#F398C0" d="M274.4,373.4c6.2,20.3,17.8,38.8,33.3,53.2"/>
			<g>
				<path fill="#CC6699" d="M273,373.8c6.3,20.5,18,39.2,33.7,53.8c1.3,1.2,3.3-0.8,2-2c-15.4-14.3-26.8-32.5-32.9-52.6
					C275.2,371.3,272.5,372.1,273,373.8L273,373.8z"/>
			</g>
		</g>
		<g>
			<path fill="#F398C0" d="M301.4,365.9c11.2,15,25.3,27.7,41.2,37.4"/>
			<g>
				<path fill="#CC6699" d="M300.2,366.6c11.4,15.2,25.5,28,41.7,37.9c1.6,0.9,3-1.5,1.4-2.4c-15.8-9.6-29.6-22.1-40.7-36.9
					C301.5,363.7,299.1,365.1,300.2,366.6L300.2,366.6z"/>
			</g>
		</g>
		<g>
			<path fill="#C3996B" d="M311.4,354.1c13.5,6.7,28.7,9.9,43.7,9.4"/>
			<g>
				<path fill="#A87C4F" d="M310.7,355.3c13.8,6.7,29.1,10,44.4,9.6c1.8-0.1,1.8-2.9,0-2.8c-14.9,0.4-29.6-2.7-43-9.2
					C310.5,352.1,309.1,354.5,310.7,355.3L310.7,355.3z"/>
			</g>
		</g>
		<path fill="#C3996B" stroke="#A87C4F" stroke-width="2.827" stroke-miterlimit="10" d="M308.3,324.4c0.1-2.4-0.5-4.7-2.2-6.4
			c-3.6-3.5-9.4-2.5-14.2-0.9c-12.1,4-23.4,10-33.5,17.7c12.4-2.6,26.6,0.2,38.8,2.8c3.4-1.8,6.7-3.9,8.9-7
			C307.3,328.8,308.1,326.6,308.3,324.4z"/>

			<path fill="#F0CBA1" stroke="#C2986B" stroke-width="2.537" stroke-linecap="round" stroke-linejoin="round" stroke-miterlimit="10" d="
			M282.8,324.3c0,0,6.4-7.2,6.7-14.3c0.5-10.7-6.9-12.2-8.4,2.4c0,0,0,0.4,0.1,0.7c-0.1-0.7-0.3-1.5-0.3-1.5
			c-1.3-6.3-5.9-24-14.5-18.3c-9.2,6.1-0.8,31.1-1,35.2c-0.5,13.6,0.5,25.9,2.3,32.7c6.3-1.6,12.5-3.8,18.4-6.3
			c-3.6-9.2-5.2-19.2-4.7-29C281.9,325.3,282.4,324.8,282.8,324.3z"/>
		<path fill="#754C28" stroke="#603813" stroke-width="3.6185" stroke-miterlimit="10" d="M150.9,131.3l14,9.6
			c0,0,45.5-17.7,55.1-41.1c0,0,36.7,1,43-13.7c0,0,28.4,16.6,41.9,11.8c0,0,16.1,6.1,31,33.1c0,0,8.9-13.5,0.6-31.8
			c-8.2-18.3-46.9-49.2-87.5-41.6C249.1,57.8,155.3,48.2,150.9,131.3z"/>
		<path fill="#C3996B" stroke="#A87C4F" stroke-width="2.827" stroke-miterlimit="10" d="M146.3,412.7c-2.5-18.6,9.1-38.2,26.6-45
			c0,0,3.1-1.2,6.5-2.5c17,2,34.5,0,50.6-5.8c10.3-8.9,20-18.6,28.7-29c2.5-3,5.9-5.2,9.8-6c18.5-3.5,38.9,3,51.6,16.9
			c2.2,2.4,3.1,5.8,2.1,8.8c-2.7,8.7-11.2,15.8-19.7,20.3c-13,6.8-25.9,5.2-40.5,6.1c-28.6,28.9-74.5,46.7-113.8,36.5"/>
		<path fill="#16B8D9" stroke="#0E91A2" stroke-width="2.827" stroke-miterlimit="10" d="M165.7,223.4c13.4,4.9,15.4,24.6,14.2,39.6
			c-1.2,15-7,29.5-12.9,43.7c-5.9,14.2-12,28.5-13.8,43.5c3.9,2.3,4.6,1.7,7.2,5.4c3.7,0.6,18.6,2,23.9,3.2c2.2,0.5,2.4,3.5,0.3,4.7
			c-15.7,8.5-20,37.2-22.7,52.1c-1.8,9.9-15.9,1.6-19.5,1.7c-9.8,0.1-19.5-0.8-29.1-2.4c-8.9-1.6-15.7-8.5-17.5-17.5
			c-6-29.3-6.4-81.6,23.6-144C119.4,253.2,139.8,214,165.7,223.4z"/>
		<g>
			<path fill="#16B8D9" d="M134.2,383.1c2.1-14,14.7-25.7,28.8-26.8"/>
			<g>
				<path fill="#0E91A2" d="M135.6,383.5c2.2-13.5,13.8-24.5,27.4-25.8c1.8-0.2,1.8-3,0-2.8c-14.8,1.4-27.7,13.1-30.2,27.8
					C132.6,384.5,135.3,385.3,135.6,383.5L135.6,383.5z"/>
			</g>
		</g>
		<g>
			<path fill="#16B8D9" d="M127.3,353.2c9.9-6.8,24.5-6,33.6,1.9"/>
			<g>
				<path fill="#0E91A2" d="M128,354.4c9.6-6.4,23-5.8,31.9,1.7c1.4,1.2,3.4-0.8,2-2c-9.8-8.3-24.6-9.3-35.3-2.1
					C125.1,352.9,126.5,355.4,128,354.4L128,354.4z"/>
			</g>
		</g>

			<ellipse transform="matrix(-0.7466 -0.6652 0.6652 -0.7466 436.3862 911.4519)" fill="#F0CBA1" stroke="#C2986B" stroke-width="2.537" stroke-linecap="round" stroke-linejoin="round" stroke-miterlimit="10" cx="391.8" cy="372.6" rx="50.2" ry="42.4"/>

			<use xlink:href="#New_Symbol_5"  width="5.3" height="5.6" x="-2.7" y="-2.8" transform="matrix(1.9231 0 0 -1.9231 372.6761 345.9706)" overflow="visible"/>

			<use xlink:href="#New_Symbol_5"  width="5.3" height="5.6" x="-2.7" y="-2.8" transform="matrix(1.9231 0 0 -1.9231 365.9851 332.585)" overflow="visible"/>

			<path fill="#F0CBA1" stroke="#C2986B" stroke-width="2.537" stroke-linecap="round" stroke-linejoin="round" stroke-miterlimit="10" d="
			M364.5,337c-11.9-8.9-24.2,7-9,17"/>

			<path fill="#F0CBA1" stroke="#C2986B" stroke-width="2.537" stroke-linecap="round" stroke-linejoin="round" stroke-miterlimit="10" d="
			M346.3,354c0,0-6.1,11.5,14.2,18.6"/>

			<path fill="#F0CBA1" stroke="#C2986B" stroke-width="2.537" stroke-linecap="round" stroke-linejoin="round" stroke-miterlimit="10" d="
			M366.5,395.1c3.5,5.9,9.6,10,16.1,10.9c6.4,0.9,13-1.6,17.2-6.4c3.2-3.7,5-9.6,2.4-14.2c-2.2-3.9-6.8-5.5-10.9-6.8"/>
		<g>
			<path fill="#C3996B" d="M406.1,394.7c0.9,3.5,3,6.6,4.8,9.8c1.6,2.8,3.1,5.9,3.3,9.1c-8.1-4.6-14.7-11.5-23-15.8
				c-8.9-4.5-21.6-4.6-26.8,3.9c-3.1,5.1-3.3,17.8-1.9,23.6c3.7,14.9,14.3,24.4,20.2,28.7c10.6,5.6,34.4,4.8,44.9-1
				c6.6-3.6,12.4-13.7,13.1-25.9c-1.4-16.2-9.1-31.9-22.1-41.8c-1.6-1.2-3.4-2.4-5.4-2.6c-4.5-0.3-7.8,4.8-7.5,9.3
				C405.7,393,405.8,393.9,406.1,394.7z"/>
			<g>
				<path fill="#A87C4F" d="M404.7,395.1c1.9,6.5,7.3,11.7,8.1,18.5c0.7-0.4,1.4-0.8,2.1-1.2c-9.4-5.4-17-14.3-27.6-17.6
					c-7.7-2.4-17.8-2-23.2,4.9c-2.3,2.9-3,6.6-3.5,10.2c-0.5,4.3-0.6,8.8,0.1,13.1c1.3,9.1,6.3,17.6,12.5,24.3
					c2.5,2.7,5.2,5.3,8.2,7.4c2.9,2,6.7,2.9,10.1,3.5c8.8,1.6,18.2,1.3,27-0.6c3.6-0.8,7.3-1.8,10.5-3.7c3.5-2.1,6.2-5.5,8.3-9
					c2.5-4.4,4-9.4,4.7-14.4c0.7-5.1-0.4-10.3-1.8-15.2c-3.1-11.1-9.2-21.5-18-29.1c-3.6-3.1-8.3-6.7-13.1-3.8
					C404.6,385.1,403.7,390.5,404.7,395.1c0.4,1.8,3.1,1,2.7-0.8c-0.9-3.9,0.7-11,6.1-10.1c2.3,0.4,4.4,2.3,6.2,3.8
					c1.8,1.5,3.4,3.1,5,4.8c6.2,6.8,10.5,15.1,12.8,24c1.2,4.7,2.1,9.4,1.4,14.2c-0.7,4.5-2.1,8.9-4.4,12.9c-1.8,3.2-4.3,6.1-7.5,8
					c-3,1.6-6.3,2.6-9.6,3.2c-7.8,1.6-16,1.9-23.9,0.7c-3.2-0.5-6.7-1.1-9.6-2.7c-2.4-1.3-4.7-3.6-6.6-5.5c-5.9-5.8-10.6-13-12.9-21
					c-1.9-6.7-2-15.3,0.3-21.9c3.1-8.9,14.3-9.5,21.9-7.1c10.3,3.2,17.8,12.1,26.9,17.3c0.8,0.5,2.2-0.1,2.1-1.2
					c-0.8-7.3-6.2-12.4-8.2-19.3C406.9,392.6,404.2,393.4,404.7,395.1z"/>
			</g>
		</g>

			<use xlink:href="#New_Symbol"  width="71.1" height="46.9" x="-35.6" y="-23.4" transform="matrix(1.9231 0 0 -1.9231 452.3051 298.071)" overflow="visible"/>

			<use xlink:href="#New_Symbol"  width="71.1" height="46.9" x="-35.6" y="-23.4" transform="matrix(0.5092 -1.3394 -1.5225 -0.5788 4.1142 380.4042)" overflow="visible"/>

			<use xlink:href="#New_Symbol_1"  width="156" height="176.3" x="-78" y="-88.1" transform="matrix(1.9231 0 0 -1.9231 169.2308 528.8461)" overflow="visible"/>

			<use xlink:href="#New_Symbol_3"  width="16.7" height="27.2" x="-8.4" y="-13.6" transform="matrix(1.9231 0 0 -1.9231 151.0816 157.5118)" overflow="visible"/>
		<ellipse fill="#C3996B" cx="176.3" cy="162.4" rx="24.9" ry="21.2"/>
	</g>
</g>
</svg>
