<?xml version="1.0" encoding="utf-8"?>
<!-- Generator: Adobe Illustrator 18.1.1, SVG Export Plug-In . SVG Version: 6.00 Build 0)  -->
<svg version="1.1" id="Layer_1" xmlns="http://www.w3.org/2000/svg" xmlns:xlink="http://www.w3.org/1999/xlink" x="0px" y="0px" viewBox="0 0 500 500" enable-background="new 0 0 500 500" xml:space="preserve"><clipPath id="SVGID_2_">
			<use xlink:href="#SVGID_1_" overflow="visible"/>
		</clipPath>
<symbol id="New_Symbol" viewBox="-1.8 -2.2 3.7 4.3">

		<path fill="#FCF8CD" stroke="#B7B68B" stroke-width="0.6842" stroke-linecap="round" stroke-linejoin="round" stroke-miterlimit="10" d="
		M-1.5,1.8c0,0,1.8-4,2.9-3.6c0.6,0.2-0.9,3.5-0.9,3.5L-1.5,1.8z"/>
</symbol>
<symbol id="New_Symbol_1" viewBox="-0.8 -1.6 1.6 3.3">
	<path fill="#765751" d="M0.6,0c0.3-0.9,0.3-1.7,0-1.7S-0.3-0.9-0.6,0s-0.3,1.7,0,1.7S0.3,0.9,0.6,0z"/>
</symbol>
<symbol id="New_Symbol_2" viewBox="-1.2 -2.6 2.5 5.2">
	<path fill="#231F20" d="M-1.1-0.3C-0.8-1.7,0-2.7,0.6-2.6s0.8,1.4,0.5,2.8S0,2.7-0.6,2.6S-1.4,1.2-1.1-0.3z"/>
</symbol>
<symbol id="New_Symbol_3" viewBox="-12.4 -13.8 24.8 27.6">
	<g>
		<defs>
			<path id="SVGID_1_" d="M-11.8,2.2c0,0,2.9-0.6,4.9-7.6c0,0,4.1-1.6,7.6-1c9.1,1.5,11,13.6,8.3,19.5C9.1,13.1-6.2,14.6-11.8,2.2z"/>
		</defs>
		<use xlink:href="#SVGID_1_" overflow="visible" fill="#6B4B41"/>

		<path clip-path="url(#SVGID_2_)" fill="#6B4B41" stroke="#4C2A25" stroke-width="0.9122" stroke-miterlimit="10" d="M-9.4-3.7
			c0,0,4.9-1,8.2-8.4c0,0,3-2.3,6.2-0.5c3.3,1.8,9.5,19.9,5.8,26C10.8,13.3-5.9,11-9.4-3.7z"/>
		<use xlink:href="#SVGID_1_" overflow="visible" fill="none" stroke="#4C2A25" stroke-width="0.9122" stroke-miterlimit="10"/>
	</g>
</symbol>
<g>
	<rect fill="#424170" width="500" height="500"/>
	<g>
		<path fill="#988577" stroke="#695242" stroke-width="1.7542" stroke-miterlimit="10" d="M29.3,227.9c24-0.2,48-3.2,71.3-9
			c4.1-1,8.3-2.1,12.5-1.7c4.2,0.4,8.5,2.6,10.1,6.6c1.1,2.7,0.7,5.7,0.7,8.5c0,7,0.5,20,7.4,19.1c5.6-0.7,159.8-66.4,149.8-63.5
			c-6.4,1.8-83.1-12.3-102.7-27.8c-1.7-1.4-1.9-3.9-0.3-5.5c3.4-3.5,8-12,6.6-13c-4.7-3.2-57,31.2-67.7,35.6
			c3.4-4.9,43.8-31,43.8-31c0.5-0.3,0.1-1.1-0.4-0.9c-20.4,7.4-109,40.8-137.4,74.3L29.3,227.9z"/>
		<path fill="#6B4B41" stroke="#4C2A25" stroke-width="1.7542" stroke-miterlimit="10" d="M28.8,227.8c-2.5,1.8-4.3,4.5-6.7,6.4
			c-1.4,1.1-3.4,2.1-5.5,2.3c-2.6,0.2-4.9-1.5-5.5-4c-1.3-5.3-2.7-17.4,7.7-31.1c0.5-0.7,1.7-0.2,1.5,0.7l-4,18.9
			c34.2-28.7,73.6-51.1,115.6-65.9c0,0,11.6-4,27.9-9.7c-16.9,6.6-29.2,11.4-29.2,11.4c-34.9,13.5-67.5,33-95.9,57.4
			c11.7-2.8,22.5-8.3,33.1-13.8c30.6-15.9,60.9-32.2,91-48.9c7.8-4.3,15.8-8.8,24.5-10.9c0.8-0.2,1.3,0.9,0.5,1.3
			c-50.3,26.4-87.4,59.5-132.5,76.4c32.9-8.1,65.2-19.4,98.8-23.8c42.7-5.6,86.3,0.1,128.8-6.3c-6.3,3.8-14.7,6.2-88.8,10.4
			c-8.2,0.5-16.3,0.2-24.5,0.7c-27.4,1.9-53.8,10.5-79.9,18.9c8.3-1.8,16.6-3.5,25.2-3.1c0.6,0,0.7,1,0.1,1.1c-3.3,0.8-8.5,2-11,2.6
			c-7.3,1.8-14.7,3.4-22.1,4.6C61.8,226.3,45.3,227.8,28.8,227.8"/>

			<use xlink:href="#New_Symbol_3" width="24.8" height="27.6" x="-12.4" y="-13.8" transform="matrix(-1.9231 0 0 -1.9231 140.3651 242.4503)" overflow="visible"/>
		<path fill="#DFB2A8" stroke="#A27571" stroke-width="1.7542" stroke-miterlimit="10" d="M158,280.8c2.8,0.3,5.5,1.3,7.6,3
			c-0.9,3.2-3,5.9-5.3,8.4c-3.6,4-7.6,7.7-11.8,11c-3.2,2.5-7.1,4.8-11,4.5c-1.1-0.5-2.9-1.4-2.9-1.4c-2.4-1.2-4.4-3-5.8-5.3
			c-0.3-0.5-0.5-0.4-0.5-1c0-0.8,0.6-2,1.2-2.6c9.2-8.6,8.4-12.2,9.1-16.8c4.5-1.9,6.2,1.2,11.1,0.5
			C152.4,280.7,155.3,280.5,158,280.8z"/>
		<g>
			<path fill="#CA2027" d="M134.5,304.5c-0.3-3.3,0.7-6.7,2.5-9.6s4.2-5.3,6.6-7.5c2.7-2.4,5.4-4.8,8.3-7c4.7-0.6,9.5,0,14,1.6
				c-7.8,10.4-17.8,19.6-30.2,23.4c-0.5,0.1-1.2,0.1-1.2-0.4"/>
			<g>
				<path fill="#8B191C" d="M135.4,304.5c-0.5-7.5,5-13.1,10.2-17.7c2.5-2.2,5.5-5.6,9-5.7c3.8-0.1,7.5,0.5,11.1,1.8
					c-0.2-0.4-0.3-0.9-0.5-1.3c-3.8,5-8,9.8-12.9,13.8c-2.4,2-4.9,3.7-7.6,5.3c-0.8,0.5-9,4.6-9.3,4c-0.5-1-2-0.1-1.5,0.9
					c1,2.3,5.3-0.2,6.8-0.9c3.6-1.6,7-3.6,10.2-5.9c6.1-4.5,11.3-10.1,15.9-16.2c0.4-0.5,0-1.1-0.5-1.3c-4-1.4-8.2-2.1-12.4-1.8
					c-1.9,0.1-2.4,0.4-3.8,1.5c-1.8,1.4-3.5,2.8-5.2,4.3c-5.7,5-11.7,11.1-11.1,19.2C133.7,305.6,135.5,305.6,135.4,304.5
					L135.4,304.5z"/>
			</g>
		</g>

			<use xlink:href="#New_Symbol" width="3.7" height="4.3" x="-1.8" y="-2.2" transform="matrix(1.9231 0 0 -1.9231 137.4733 290.6288)" overflow="visible"/>

			<use xlink:href="#New_Symbol" width="3.7" height="4.3" x="-1.8" y="-2.2" transform="matrix(1.9231 0 0 -1.9231 123.9777 288.9101)" overflow="visible"/>
		<path fill="#BCA8A2" stroke="#96776F" stroke-width="1.7542" stroke-miterlimit="10" d="M120.8,286.7c-2.6-3.6-5.2-9.7-3.8-13.9
			c0.4-1.1,1-2.3,2.2-2.5c1.5-0.3,4.8,1.1,6.2,1.3c1.9,0.3,3.4-1.5,4.3-3.2c2.2-3.7,4-7.6,5.3-11.7c1.9-1.2,4.1-2.1,6.3-2.8
			c5.4-1.8,11-3.1,16.6-2.9c5.6,0.2,11.4,2,15.5,5.9c5.4,5,7.5,12.9,6.6,20.2c-0.7,6.1-3.3,11.8-6.6,17c-7.8,3.4-15.8,6.7-22.8,11.6
			c-1.6,1.1-3.2,2.3-5,3c-3.5,1.3-7.4,0.3-11-0.7c-0.7-0.2-1.4-0.4-2.1-0.6l-3.9-6.3c-0.1-0.1,0.1-0.3,0.2-0.2c0,0,4,3.4,8.5,1.1
			c7.6-3.8,16.8-11.1,20.2-16.3c-6.1,2.5-12,3.8-18.6,3.1C135.8,288.6,121.2,286.8,120.8,286.7z"/>

			<use xlink:href="#New_Symbol_2" width="2.5" height="5.2" x="-1.2" y="-2.6" transform="matrix(1.9231 0 0 -1.9231 149.846 266.4746)" overflow="visible"/>
		<path fill="none" stroke="#231F20" stroke-width="1.7542" stroke-miterlimit="10" d="M195.9,259.5c0,0,1.2-9.5,7.3-15.6
			c8.3-8.3,12.7-18,13.6-22.4"/>

			<path fill="#A58861" stroke="#56432E" stroke-width="1.7542" stroke-linecap="round" stroke-linejoin="round" stroke-miterlimit="10" d="
			M370.3,227.8c-8.3,2.5-19,5.8-25.3,5.8c-6.3,0-14.1-1.5-14.1-1.5c-25.3,18.5-49.2,19-49.2,19l-6.8-2.3c-11.8,4.6-23,10.9-33,18.7
			c-11.4,8.9-21.5,19.7-34.4,26c2,0.1,4,0.6,5.8,1.4c-9.8,5.8-23.1,3.8-34.1,1.8c-6.7,3.7-14.1,6.1-21.5,4.6
			c2.6-2.9,7.1-3.4,9.8-6.2c1.3-1.3,2-3.1,2.8-4.8c1.4-3,3.2-5.8,5.2-8.4c0.1-3.2-0.7-6.4-2.1-9.2c-3.5,0.6-7.2,0.4-10.7-0.6
			c-1.8-6.6-13.3-15.2-18-14.8c-4.2,0.4-2.6,7.3-5.2,8.4c-2.6,1.1-3.3-0.5-6-4.9c0,0-2.5,4-3.3,5.8c-2.4-5.5-4.2-11.2-5.4-17.1
			c-0.7-3.3-1.1-6.8-0.6-10.1c0.5-3.5,2.1-6.7,3.8-9.8c4.3-7.8,9.9-15,16.4-21.1c-0.3,2.6-0.6,5.1-0.9,7.7
			c12.7-13,30.1-21.2,48.2-23c-1.4,2.3-2.9,4.6-4.3,6.9c10.7-1.6,21.8-0.3,31.8,3.7c-0.1,0.1-0.1,0.1-0.2,0.2
			c5.9-4.4,12.4-7.9,19.2-10.6c7.3-2.9,15-4.7,22.9-5.3c-1.9,2.4-3.9,4.6-6.2,6.6c9.9-4,20.9-5.2,31.4-3.5c-2.2,2-4.9,3.5-7.7,4.3
			c11.1,1.6,22.6,3.4,32.4,8.6c1.4,0.8,2.8,1.6,4.2,2.5c1.2,0.9,2.5,1.8,3.6,2.9c2.4,2.3,4.3,5.1,4.8,8.2c2.7,0.8,5.6,1.7,8.4,2.4
			c8.8,2.4,15.1,1,15.1,1s8.5-6.3,16.1-7.7c-1.5,1.4-2.9,2.8-3.5,3.8l8.6-3.9c0,0,0.1,0,0.1,0c2.9,0.7,5.2,1.7,6.8,2.9
			c-5.4,1.6-9.7,4-9.7,4l12.1-1.1C378.8,222.5,376.6,225.9,370.3,227.8z"/>

			<path fill="#A58861" stroke="#56432E" stroke-width="1.7542" stroke-linecap="round" stroke-linejoin="round" stroke-miterlimit="10" d="
			M348.9,203.9c-1.5,7.3-15.6,3.9-22.9,3.9c-2.6,0-5.1,0.9-7.3,2c-1.1-1.1-2.3-2.1-3.6-2.9c-1.4-0.9-2.7-1.8-4.2-2.5l9.7-1.9
			c0,0,4.9-4.9,11.2-6.3c0.2,0,0.4-0.1,0.7-0.1c-1.6,1.5-3,2.9-3.6,4l9.4-4.3c2.5,0.2,4.9,0.8,6.9,1.8c-5.5,2.2-10,5.4-10,5.4
			l13.6-1.6C349,202.1,349.1,203,348.9,203.9z"/>

			<path fill="#A58861" stroke="#56432E" stroke-width="1.7542" stroke-linecap="round" stroke-linejoin="round" stroke-miterlimit="10" d="
			M179.2,296.9c0,0,4-1.7,6.9-4.6s8.4-11.3,8.4-11.3"/>
		<path fill="#988577" stroke="#695242" stroke-width="1.7542" stroke-miterlimit="10" d="M231,318.7c3.4-9.2,4.5-25.5,2.4-35.1
			c-0.2-0.8-0.4-1.7-1-2.3c-0.9-0.9-2.3-1-3.6-1c-7.1-0.1-14.2-1-21.1-2.7c0,0,0,0,0,0c-1.6-0.4-3-1.3-3.8-2.7
			c-1.4-2.3-1.6-5.2-0.9-7.8c0.7-3,2.4-5.6,4.2-8.1c9.9-13.7,21.9-23.8,38.4-28.4c2.4-0.7,2.5,2.4,0.8,4.4c-2.6,3-3.3,2.9-4.9,4.6
			c5.9,0.9,28.9-4.9,34.5-6.9c7-2.6,14.3-4.3,21.8-5.1c-2.9,5.8-3.2,12.9-0.6,18.9c0.4,0.9,0.9,1.9,1.8,2.4c1.1,0.6,2.4,0.3,3.6,0.1
			c29-6.8,55.2-23.4,84.6-28c2.1-0.3,4.3-0.6,6.5-0.4c-6.8,8-8.2,19.5-5.6,29.6c2.5,9.8,8.5,18.4,15.4,25.8
			c21.3,22.8,51.4,35,80.4,46.5c-0.8,3.6-3.2,6.5-5.4,9.4c-5.9,7.7-11.5,15.8-15,24.8c-1,2.6-1.9,5.3-2.1,8.1
			c-0.8,9.2,6.2,18.4,15.2,20.2c-17.4,8.5-29.5,13.7-55.4,16.9C313.3,411,241,382.5,232.6,378.9c-1.8-0.8-4.1-1.6-3.4-4
			c-1.7-4-2.6-8.4-2.2-12.7c1.2-13.7,2.3-29.1,4.5-45.2"/>
		<path fill="#6B4B41" stroke="#4C2A25" stroke-width="1.7542" stroke-miterlimit="10" d="M229,392.4c5.7,0.1,11.4-1.6,16.1-4.8
			c-7-1.3-13.8-3.4-20.3-6.3c-4.2-4.5-4-11.5-2.5-17.3c4.9-19.1,8.7-45.4,12-76.8c-0.1,23.9-0.6,48-6.7,71.1
			c8-30.5,18.9-60.2,32.7-88.6c8.1-16.8,18.2-34,34.8-42.4c1.4-0.7,3.4-1.2,4,0.6c0.4,1.1-0.1,2.2-1.1,2.8
			c-5.2,3.4-11.1,10.2-15.8,16.2c-2.5,3.2-4.5,6.7-6.2,10.3c-17.4,38.3-35.5,77-42,118.7c9.2-4.1,17-11,24.3-18
			c38.3-36.4,70.8-78.4,107.3-116.6c8.3-8.7,17.3-17.5,28.5-21.9c1-0.4,2.2,0.3,2.1,1.4c-0.1,3.1-7.6,6.6-14.9,13.8
			c-21.8,21.3-38.2,43.8-58,67c-4.9,5.8-10.1,11.3-15.2,16.9c-9.5,10.3-19,20.7-28.4,31c-9.4,10.3-19,20.7-30.8,28
			c73.9-9.8,148.7-20.1,217.2-49.1c10-4.2,17.3-6.2,22.1-7.2c1.4-0.3,2,1.6,0.7,2.2c-11.4,5.3-35,16.3-48.2,22.2
			c-9,4-18,8-27.3,11.3c-7.2,2.5-14.6,4.6-22,6.6c-34.6,9.2-69.9,15.7-105.5,19.5l-0.1,0c4.4-0.2,8.8-0.3,8.8-0.3
			c32.9-1.3,65.4,6.6,98.3,8.2c51.2,2.5,74.9-5.3,86.8-6.1c1.3-0.1,1.7,1.8,0.4,2.2c-41.1,14.1-86.1,11.9-129.5,8.2
			c-20.3-1.7-40.5-3.7-60.8-5.9c42.9,12.9,88.2,17.7,132.8,14c-35.7,8.8-95.9,2.5-137.4-6.3c-10-2.1-20.1-4.3-30.1-6.4
			c-7.9,4.1-17.1,5.7-25.9,4.5c-0.7-0.1-1.4-0.3-1.8-0.9c-0.3-0.6,0.3-1.6,0.9-1.2"/>
		<path fill="#BCA8A2" stroke="#96776F" stroke-width="1.7542" stroke-miterlimit="10" d="M133.1,261.8c0,0-5.5-7.7-5.5-1.5
			c0,0,0.9,3.9,2.8,6.4L133.1,261.8z"/>

			<use xlink:href="#New_Symbol_1" width="1.6" height="3.3" x="-0.8" y="-1.6" transform="matrix(1.9231 0 0 -1.9231 120.5487 279.1616)" overflow="visible"/>

			<use xlink:href="#New_Symbol_3" width="24.8" height="27.6" x="-12.4" y="-13.8" transform="matrix(1.9231 0 0 -1.9231 183.1712 243.3274)" overflow="visible"/>

			<use xlink:href="#New_Symbol_2" width="2.5" height="5.2" x="-1.2" y="-2.6" transform="matrix(1.9231 0 0 -1.9231 132.0657 266.319)" overflow="visible"/>
		<path fill="#BCA8A2" stroke="#96776F" stroke-width="1.7542" stroke-miterlimit="10" d="M136.6,258.5c-0.6-0.7-1.8-0.6-2.2,0.4
			c-1.2,3.3-2.8,6.6-4.6,9.6c-1,1.6-2.5,3.4-4.3,3.2l4.8,13.2l15.7-15.1L136.6,258.5z"/>
		<path fill="#BCA8A2" d="M120.2,271.5c0,0,5.3,1.8,10.2,0.2c0,0,9.2-8.9,13-8.4c2.7,0.4,5.6,8.4,5.6,8.4l-2.9,11.7l-9.3,3.8
			c0,0-13.4-0.1-13.5-3.3L120.2,271.5z"/>

			<use xlink:href="#New_Symbol_1" width="1.6" height="3.3" x="-0.8" y="-1.6" transform="matrix(1.9231 0 0 -1.9231 130.2285 280.6278)" overflow="visible"/>
	</g>
</g>
</svg>
