<?xml version="1.0" encoding="utf-8"?>
<!-- Generator: Adobe Illustrator 18.1.1, SVG Export Plug-In . SVG Version: 6.00 Build 0)  -->
<svg version="1.1" id="Layer_1" xmlns="http://www.w3.org/2000/svg" xmlns:xlink="http://www.w3.org/1999/xlink" x="0px" y="0px"
	 viewBox="0 0 500 500" enable-background="new 0 0 500 500" xml:space="preserve">
<symbol  id="New_Symbol_1" viewBox="-13.1 -9.2 26.3 18.5">
	<path fill="#B0BCC8" stroke="#465560" stroke-width="0.6604" stroke-miterlimit="10" d="M12.7-7.6L1,8.6C0.8,8.9,0.3,9,0,8.8
		C-0.3,9-0.8,8.9-1,8.6L-12.7-7.6c-0.3-0.4-0.2-0.9,0.2-1.1c0.4-0.3,0.9-0.2,1.1,0.2L0,7.3L11.4-8.6c0.3-0.4,0.8-0.4,1.1-0.2
		C12.8-8.5,12.9-8,12.7-7.6z"/>
</symbol>
<symbol  id="New_Symbol_10" viewBox="-1.2 -3.3 2.5 6.7">
	<path fill="#231F20" d="M1.2-2.3c0-0.6-0.3-1.1-0.7-1.1s-0.7,0.5-0.7,1.1c0,0.6,0.3,1.1,0.7,1.1S1.2-1.7,1.2-2.3z"/>
	<path fill="none" stroke="#3B2416" stroke-width="0.6604" stroke-linecap="round" stroke-miterlimit="10" d="M-0.9,1.6
		C-0.9,1.6,0,3,0.7,3"/>
</symbol>
<symbol  id="New_Symbol_11" viewBox="-15 -3.6 30 7.1">
	<path fill="#FBDE60" stroke="#B09430" stroke-width="0.6604" stroke-miterlimit="10" d="M14.5-2.3C10.6-0.5,6.4,0.7,2,1
		c0,0,0,0,0,0.1c0,1.2-0.9,2.2-2.1,2.2c-1.1,0-2.1-1-2.1-2.2c0,0,0,0,0-0.1c-4.1-0.3-8.3-1.5-12.6-3.9C-15.7-3.5,16.9-3.4,14.5-2.3z
		"/>
</symbol>
<symbol  id="New_Symbol_12" viewBox="-14.2 -7.1 28.4 14.2">

		<path fill="#13123D" stroke="#234F6C" stroke-width="0.6604" stroke-linecap="round" stroke-linejoin="round" stroke-miterlimit="10" d="
		M8-0.8C7.5-0.6,7.1-0.5,6.7-0.4c-3.1,0.8-6.3,1-9.4,1.8c-3,0.8-6,2.5-7.3,5.3c-1.3-0.1-2.6-0.1-3.9-0.2c0.7-3,1.5-6,2.2-9.1
		c2.2-0.1,4.4-0.4,6.5-1c3.6-0.9,7-2.4,10.6-3c2.8-0.5,5.9-0.4,8.5,0.8C12.8-3.3,10.5-1.7,8-0.8z"/>
</symbol>
<symbol  id="New_Symbol_13" viewBox="-12.1 -6.6 24.2 13.2">

		<path fill="#13123D" stroke="#234F6C" stroke-width="0.6604" stroke-linecap="round" stroke-linejoin="round" stroke-miterlimit="10" d="
		M6.7-1.2C6.4-1,6-0.9,5.7-0.8C3.1-0.1,0.3,0-2.3,0.7C-4.8,1.4-4,3.9-5.1,6.3c-1.1-0.1-5.6-1.1-6.7-1.2c0.6-2.6,1.2-5.1,1.9-7.7
		C-8-2.7-6.2-3-4.4-3.4c3-0.8,5.9-2,9-2.6c2.4-0.4,5-0.3,7.2,0.7C10.8-3.3,8.9-1.9,6.7-1.2z"/>
</symbol>
<symbol  id="New_Symbol_14" viewBox="-60.5 -30.8 121.1 61.5">
	<polygon fill="#CB954F" stroke="#8B6C2A" stroke-width="0.6604" stroke-miterlimit="10" points="39.5,11.3 -16.6,-14.6 -20.3,-6.6
		35.9,19.3 	"/>
	<path fill="#ECC564" stroke="#AE8D44" stroke-width="0.6604" stroke-miterlimit="10" d="M56.6,15.8L39,10.4l-4.2,9.1l15.5,9.9
		c2.5,1.6,5.7,0.9,6.9-1.5l2.7-5.8C61,19.6,59.4,16.7,56.6,15.8z"/>
	<path fill="#818282" stroke="#465560" stroke-width="0.6604" stroke-miterlimit="10" d="M46.9,28.5l-3.2-2.1
		c-0.3-0.2-0.8-0.1-1,0.2l-0.4,0.6c-0.2,0.3-0.1,0.8,0.2,1l3.2,2.1c0.3,0.2,0.8,0.1,1-0.2l0.4-0.6C47.3,29.2,47.2,28.7,46.9,28.5z"
		/>
	<path fill="#818282" stroke="#465560" stroke-width="0.6604" stroke-miterlimit="10" d="M39,23.5l-3.2-2.1c-0.3-0.2-0.8-0.1-1,0.2
		l-0.4,0.6c-0.2,0.3-0.1,0.8,0.2,1l3.2,2.1c0.3,0.2,0.8,0.1,1-0.2l0.4-0.6C39.4,24.1,39.3,23.7,39,23.5z"/>
	<path fill="#818282" stroke="#465560" stroke-width="0.6604" stroke-miterlimit="10" d="M53.6,13.9L50,12.8
		c-0.4-0.1-0.6-0.5-0.5-0.9l0.2-0.7c0.1-0.4,0.5-0.6,0.9-0.5l3.6,1.1c0.4,0.1,0.6,0.5,0.5,0.9l-0.2,0.7C54.4,13.7,54,14,53.6,13.9z"
		/>
	<path fill="#818282" stroke="#465560" stroke-width="0.6604" stroke-miterlimit="10" d="M43.9,10.8l-3.6-1.1
		c-0.4-0.1-0.6-0.5-0.5-0.9L40,8.1c0.1-0.4,0.5-0.6,0.9-0.5l3.6,1.1c0.4,0.1,0.6,0.5,0.5,0.9l-0.2,0.7
		C44.7,10.7,44.3,10.9,43.9,10.8z"/>
	<polygon fill="#CB954F" stroke="#8B6C2A" stroke-width="0.6604" stroke-miterlimit="10" points="38.7,12.2 26.3,6.5 23.6,12.4
		36,18.2 	"/>
	<polygon fill="#CB954F" stroke="#8B6C2A" stroke-width="0.6604" stroke-miterlimit="10" points="25,5.8 12.6,0.1 9.8,6.1
		22.2,11.8 	"/>
	<polyline fill="none" stroke="#B7C2C8" stroke-width="0.6604" stroke-miterlimit="10" points="-40.5,-17.5 36.5,18 37.4,22.1 	"/>
	<polyline fill="none" stroke="#B7C2C8" stroke-width="0.6604" stroke-miterlimit="10" points="-39.7,-19.4 37.3,16.1 46.6,28.3
		"/>
	<polyline fill="none" stroke="#B7C2C8" stroke-width="0.6604" stroke-miterlimit="10" points="-38.7,-21.4 38.3,14.1 51.6,13.5
		"/>
	<polyline fill="none" stroke="#B7C2C8" stroke-width="0.6604" stroke-miterlimit="10" points="-37.8,-23.3 39.1,12.2 41.9,10.2
		"/>
	<polygon fill="#818282" stroke="#465560" stroke-width="0.6604" stroke-miterlimit="10" points="-36.7,-25.8 -38.6,-26.7
		-43.4,-16.2 -41.5,-15.4 	"/>
	<polygon fill="#B3AFBC" stroke="#465560" stroke-width="0.6604" stroke-miterlimit="10" points="-26.5,-21.2 -29.6,-22.6
		-34.4,-12.1 -31.3,-10.7 	"/>
	<polygon fill="#B3AFBC" stroke="#465560" stroke-width="0.6604" stroke-miterlimit="10" points="-15.1,-15.9 -18.1,-17.3
		-22.9,-6.9 -19.9,-5.4 	"/>

		<line fill="#FFFFFF" stroke="#B7C2C8" stroke-width="0.6604" stroke-miterlimit="10" x1="-40.5" y1="-17.5" x2="-57.3" y2="-27.5"/>
	<path fill="#FFFFFF" stroke="#B7C2C8" stroke-width="0.6604" stroke-miterlimit="10" d="M-39.7-19.4c0,0-17-8-17.3-8.9"/>
	<line fill="#FFFFFF" stroke="#B7C2C8" stroke-width="0.6604" stroke-miterlimit="10" x1="-37.5" y1="-24.1" x2="-57" y2="-28.3"/>
	<line fill="#FFFFFF" stroke="#B7C2C8" stroke-width="0.6604" stroke-miterlimit="10" x1="-38.7" y1="-21.4" x2="-57" y2="-28.3"/>
	<path fill="#B3AFBC" stroke="#465560" stroke-width="0.6604" stroke-miterlimit="10" d="M-52.8-30.4l-5.9,0.4
		c-1.3,0.1-1.9,1.6-1,2.6l3.9,4.1L-52.8-30.4z"/>
	<path fill="#818282" stroke="#465560" stroke-width="0.6604" stroke-miterlimit="10" d="M43,20.5c0.4-0.8,0-1.7-0.7-2
		c-0.8-0.4-1.7,0-2,0.7c-0.4,0.8,0,1.7,0.7,2C41.7,21.6,42.6,21.3,43,20.5z"/>
	<path fill="#818282" stroke="#465560" stroke-width="0.6604" stroke-miterlimit="10" d="M49.9,23.7c0.4-0.8,0-1.7-0.7-2
		c-0.8-0.4-1.7,0-2,0.7c-0.4,0.8,0,1.7,0.7,2C48.6,24.8,49.5,24.5,49.9,23.7z"/>
	<path fill="#818282" stroke="#465560" stroke-width="0.6604" stroke-miterlimit="10" d="M45.3,15.4c0.4-0.8,0-1.7-0.7-2
		c-0.8-0.4-1.7,0-2,0.7c-0.4,0.8,0,1.7,0.7,2C44.1,16.5,45,16.2,45.3,15.4z"/>
	<path fill="#818282" stroke="#465560" stroke-width="0.6604" stroke-miterlimit="10" d="M52.2,18.6c0.4-0.8,0-1.7-0.7-2
		c-0.8-0.4-1.7,0-2,0.7s0,1.7,0.7,2C51,19.7,51.9,19.4,52.2,18.6z"/>
</symbol>
<symbol  id="New_Symbol_15" viewBox="-3.4 -5.7 6.8 11.4">

		<path fill="#C17F5F" stroke="#955635" stroke-width="0.6604" stroke-linecap="round" stroke-linejoin="round" stroke-miterlimit="10" d="
		M2.7-5.4C0.1-4.4-2-2.2-2.8,0.5c-0.3,0.9-0.4,2-0.1,2.9c0.3,0.9,1.1,1.8,2,1.9C0,5.5,0.8,5.1,1.5,4.6c0.6-0.5,1.1-1.2,1.6-1.9"/>
</symbol>
<symbol  id="New_Symbol_16" viewBox="-1.2 -2.4 2.3 4.8">
	<path d="M-1.2,0c0-1.3,0.5-2.4,1.2-2.4c0.6,0,1.2,1.1,1.2,2.4c0,1.3-0.5,2.4-1.2,2.4C-0.6,2.4-1.2,1.3-1.2,0z"/>
</symbol>
<symbol  id="New_Symbol_17" viewBox="-6.3 -2.4 12.6 4.8">

		<use xlink:href="#New_Symbol_16"  width="2.3" height="4.8" x="-1.2" y="-2.4" transform="matrix(1 0 0 1 -5.1596 0)" overflow="visible"/>

		<use xlink:href="#New_Symbol_16"  width="2.3" height="4.8" x="-1.2" y="-2.4" transform="matrix(1 0 0 1 5.1596 0)" overflow="visible"/>
</symbol>
<symbol  id="New_Symbol_18" viewBox="-3.9 -6.6 7.9 13.3">

		<path fill="#9B785B" stroke="#49301D" stroke-width="0.6604" stroke-linecap="round" stroke-linejoin="round" stroke-miterlimit="10" d="
		M3.2-6.3C0.1-5.2-2.4-2.6-3.3,0.5C-3.6,1.6-3.8,2.9-3.4,4C-3.1,5.1-2.2,6.1-1,6.3C0,6.4,1,6,1.7,5.4S3,4,3.6,3.2"/>
</symbol>
<symbol  id="New_Symbol_19" viewBox="-4.2 -7.6 8.5 15.1">
	<path fill="#F5AA5A" stroke="#9A5724" stroke-width="0.6604" stroke-miterlimit="10" d="M1.5,5.7c0.3,0.4,0.6,0.8,1,1.2
		C4.8,2.2,4.3-3,0.8-7c-1,2.1-2.6,4-4.6,5.3C-2.1,0.9-0.3,3.3,1.5,5.7z"/>
</symbol>
<symbol  id="New_Symbol_2" viewBox="-1.6 -40.5 3.1 80.9">
	<path fill="#B0BCC8" stroke="#465560" stroke-width="0.6629" stroke-miterlimit="10" d="M1.2-39.3L0.4,39.3c0,0.4-0.4,0.8-0.8,0.8
		l0,0c-0.4,0-0.8-0.4-0.8-0.8l0.9-78.7c0-0.4,0.4-0.8,0.8-0.8l0,0C0.9-40.1,1.2-39.8,1.2-39.3z"/>
</symbol>
<symbol  id="New_Symbol_20" viewBox="-6.2 -6.7 12.4 13.3">
	<path fill="#F5AA5A" stroke="#9A5724" stroke-width="0.6604" stroke-miterlimit="10" d="M0.8-5.2C0.5-5.6,0.2-5.9,0-6.3
		C-2-5.6-3.9-4.8-5.8-4.1C-4.5,0-2.6,7-2.9,6.3c3,0.1,5.9-0.4,8.6-1.6C4.6,1.2,2.9-2.2,0.8-5.2z"/>
</symbol>
<symbol  id="New_Symbol_3" viewBox="-19.6 -9.5 39.3 19">
	<path fill="#B0BCC8" stroke="#465560" stroke-width="0.6604" stroke-miterlimit="10" d="M18.8-7.6l-37,16.8c-0.4,0.2-0.9,0-1.1-0.4
		l0,0c-0.2-0.4,0-0.9,0.4-1.1l37-16.8c0.4-0.2,0.9,0,1.1,0.4l0,0C19.4-8.3,19.2-7.8,18.8-7.6z"/>
</symbol>
<symbol  id="New_Symbol_4" viewBox="-23.6 -5.5 47.2 10.9">
	<path fill="#FBDE60" stroke="#B09430" stroke-width="0.6604" stroke-miterlimit="10" d="M23,3.7C16.4,4.3,9.5,4.4,2.6,3.5
		c0,0,0,0,0,0.1C2.4,4.7,0.8,5.4-1,5.1c-1.8-0.3-3.1-1.5-2.9-2.7c0,0,0,0,0-0.1c-6.5-1.4-13-3.8-19.3-7.4C-24.7-5.9,27,3.3,23,3.7z"
		/>
</symbol>
<symbol  id="New_Symbol_5" viewBox="-17.8 -16.2 35.6 32.3">
	<polygon fill="#2E3A6D" stroke="#6071A5" stroke-width="0.6604" stroke-miterlimit="10" points="16.7,-11.2 -16.7,-11.2
		-16.7,11.3 16.7,11.3 	"/>
	<polygon fill="#CCD8E2" stroke="#465560" stroke-width="0.6604" stroke-miterlimit="10" points="16.7,13.1 -16.7,13.1 -16.7,15.8
		16.7,15.8 	"/>
	<polygon fill="#CCD8E2" stroke="#465560" stroke-width="0.6604" stroke-miterlimit="10" points="16.7,-15.8 -16.7,-15.8
		-16.7,-13.1 16.7,-13.1 	"/>
	<polygon fill="#B0BCC8" stroke="#465560" stroke-width="0.6604" stroke-miterlimit="10" points="15.9,7.1 17.5,7.1 17.5,14.2
		15.9,14.2 	"/>
	<polygon fill="#B0BCC8" stroke="#465560" stroke-width="0.6604" stroke-miterlimit="10" points="-17.5,7.1 -15.9,7.1 -15.9,14.2
		-17.5,14.2 	"/>
	<polygon fill="#B0BCC8" stroke="#465560" stroke-width="0.6604" stroke-miterlimit="10" points="-0.8,7.7 0.8,7.7 0.8,14.8
		-0.8,14.8 	"/>
	<polygon fill="#B0BCC8" stroke="#465560" stroke-width="0.6604" stroke-miterlimit="10" points="15.9,-14.8 17.5,-14.8 17.5,-7.7
		15.9,-7.7 	"/>
	<polygon fill="#B0BCC8" stroke="#465560" stroke-width="0.6604" stroke-miterlimit="10" points="-17.5,-14.8 -15.9,-14.8
		-15.9,-7.7 -17.5,-7.7 	"/>
	<polygon fill="#B0BCC8" stroke="#465560" stroke-width="0.6604" stroke-miterlimit="10" points="-0.8,-14.2 0.8,-14.2 0.8,-7.1
		-0.8,-7.1 	"/>
</symbol>
<symbol  id="New_Symbol_6" viewBox="-17.3 -24.5 34.6 49">

		<path fill="#13123D" stroke="#234F6C" stroke-width="0.6604" stroke-linecap="round" stroke-linejoin="round" stroke-miterlimit="10" d="
		M-3.5-10.1c-0.4-0.3-0.6-0.6-0.8-1c-0.6-1.1-2.4-3.9-6.7-5.4c-5.4-1.9-6.9-4.9-5.4-6c1.5-1.1,7.6-3.2,13,0c4.2,2.2,5,1.3,6,2
		c1,0.8,3.3,8.8,3,9.3c-0.6,1.1-3.9,2.6-3.9,2.6S-1.5-8.7-3.5-10.1z"/>

		<path fill="#EFCAA1" stroke="#C1976B" stroke-width="0.6604" stroke-linecap="round" stroke-linejoin="round" stroke-miterlimit="10" d="
		M17,17.2c0,0-3.3-2.5-8-3.1C8.5,12.2,5.9,4.6,4.6-4.3l-5.2,1.6c0,0-0.4,22.5,5.8,25.4c0,0,0,0,0.1,0L6.1,23l3.9,1.1
		C10.1,24.1,15,24.8,17,17.2z"/>
	<path fill="#FFFFFF" stroke="#6D6F71" stroke-width="0.6604" stroke-miterlimit="10" d="M-1.1-8.8c0.9-0.1,3.2-0.6,3.6-1.3
		c0.4-0.7,0.7-3.3,0.7-3.3l0.5,0.2C5-8,5.8-4,6.1-2.2c0.1,0.6-0.3,1.1-0.9,1.1C3-0.8,0.9-0.3-0.3,0.1c-0.6,0.2-1.2-0.2-1.3-0.8
		C-1.9-3.8-2.2-6.5-2.2-9C-2-8.8-1.4-8.8-1.1-8.8z"/>

		<path fill="#13123D" stroke="#234F6C" stroke-width="0.6604" stroke-linecap="round" stroke-linejoin="round" stroke-miterlimit="10" d="
		M-10.5-18.2c0,0,2.2,0.5,4.1-1.3c0,0,4.3,3,5.2,5.7c0,0-2.2,1.5-3.5,1.1C-4.7-12.8-7.9-16.8-10.5-18.2z"/>

		<path fill="#13123D" stroke="#234F6C" stroke-width="0.6604" stroke-linecap="round" stroke-linejoin="round" stroke-miterlimit="10" d="
		M-1.1-14.4c0,0-2.7,0.6-4.6,0.5c0,0,2.3-1.2,3-2.1c0,0-3.4,1.1-4.8,1c0,0,3.6-2.5,2.8-2C-5-16.8-8.5-16-9.4-16.2
		c0,0,2.1-0.9,3.2-1.9c0,0-3.4,1.2-5.4,1"/>
</symbol>
<symbol  id="New_Symbol_7" viewBox="-16.2 -11.1 32.4 22.2">
	<g>
		<path fill="#A87C4F" stroke="#754C28" stroke-width="0.6604" stroke-miterlimit="10" d="M13.4,8.1l-28.2-18.8
			c-0.3-0.2-0.7-0.1-0.9,0.2l0,0c-0.2,0.3-0.1,0.7,0.2,0.9L12.7,9.2C13,9.4,13.4,9.3,13.6,9l0,0C13.8,8.7,13.7,8.3,13.4,8.1z"/>
		<path fill="#A87C4F" stroke="#754C28" stroke-width="0.6604" stroke-miterlimit="10" d="M14.7,8.6c-0.9-0.6-1.8-0.7-2.1-0.3
			c-0.3,0.4,0.1,1.3,1,1.9c0.9,0.6,1.8,0.7,2.1,0.3C16.1,10.1,15.6,9.2,14.7,8.6z"/>
	</g>
</symbol>
<symbol  id="New_Symbol_8" viewBox="-7.8 -19.5 15.6 38.9">
	<path fill="#EFCAA1" stroke="#C1976B" stroke-width="0.6604" stroke-miterlimit="10" d="M6.4,18.9c-1.5,0.3-5.7,0.7-7.5-2.3
		c-1-1.7-2-8.2-2-8.2l0,0c-11.6-23,3.5-27.5,3.5-27.5l3.1,7c-8.3,5.1-2.7,17.5-2.1,19c0,0,0,0,0,0.1c0.2,0,5.2,0.2,4.4,6.7
		c0,0,1.4,2,1.6,3.7C7.6,18.1,7.1,18.8,6.4,18.9z"/>
</symbol>
<symbol  id="New_Symbol_9" viewBox="-3.3 -4 6.7 8">
	<path fill="#EFCAA1" stroke="#C1976B" stroke-width="0.6604" stroke-miterlimit="10" d="M-1,2.5c0,0,1.2,1.4,3,1s1.9-5.8-4.8-7.1
		L-1,2.5z"/>
</symbol>
<g>
	<rect fill="#8FD5E2" width="500" height="500"/>
	<g>
		<path fill="#FFFFFF" stroke="#000000" stroke-width="1.2701" stroke-miterlimit="10" d="M156.5,320.5"/>
		<g>

				<use xlink:href="#New_Symbol_5"  width="35.6" height="32.3" x="-17.8" y="-16.2" transform="matrix(1.8316 -0.5861 -0.5861 -1.8316 299.9425 213.9714)" overflow="visible"/>
			<path fill="#13123D" stroke="#234F6C" stroke-width="1.2701" stroke-miterlimit="10" d="M194.8,116.5
				c1.6-24.5,10.1-30.8,10.1-30.8l1.6,11.6l4.9-18.4c4.5,2.5,6,17.8,6.8,13.2c0.8-4.1,6.1-11.6,6.1-11.6s4.7,7.4,5.5,11.6
				c0.9,4.6,2.1-10.7,6.6-13.2l4.7,18.4l1.6-11.5c0,0,8.4,6.3,10,30.8c0,0-3.2-13.8-17.4-18c-5-1.9-11.1-1.8-11.1-1.8
				s-6.6-0.2-11.6,1.8C198.5,102.8,194.8,116.5,194.8,116.5z"/>
			<path fill="#C1B499" stroke="#686767" stroke-width="1.2701" stroke-miterlimit="10" d="M184.5,213c0,0,0.7-7.4,11.7-8.5h55.9
				c0,0,10.6,4.2,11.3,8.1c0,0-3.4,5.4-8.9,9.4c-2.8,2,0.3,24.4,0.3,24.4s-12,4.7-20.9,0.2c0,0-2.9-6.4-6.3-13.1c0,0-7.4,9.6-6.7,14
				c0,0-7.9,3.1-20.9-0.7c0,0-2.2-24.7-2.7-25C194.2,219.7,184.5,213,184.5,213z"/>

				<use xlink:href="#New_Symbol_6"  width="34.6" height="49" x="-17.3" y="-24.5" transform="matrix(1.9231 0 0 -1.9231 178.0743 259.7276)" overflow="visible"/>

				<use xlink:href="#New_Symbol_6"  width="34.6" height="49" x="-17.3" y="-24.5" transform="matrix(-1.9231 0 0 -1.9231 263.8597 262.5094)" overflow="visible"/>

				<use xlink:href="#New_Symbol_8"  width="15.6" height="38.9" x="-7.8" y="-19.5" transform="matrix(1.9231 0 0 -1.9231 191.1199 112.0277)" overflow="visible"/>

				<use xlink:href="#New_Symbol_8"  width="15.6" height="38.9" x="-7.8" y="-19.5" transform="matrix(-1.9231 0 0 -1.9231 257.5312 112.0277)" overflow="visible"/>
			<path fill="#37B34A" stroke="#006838" stroke-width="1.2701" stroke-miterlimit="10" d="M248.8,163.9c0,0,4.2,13.8,5.2,43.9
				c0,0-15.5,5.5-30.4,6c-14.9-0.5-29.8-8.8-29.8-8.8c1-30.1,5.4-41,5.4-41c-12.5-8.7-19.5-19.4-19.5-19.4s7.2-8.5,18.7-14
				c0.3,0,8.8,10.1,8.8,10.1s8-8.4,16.5-5.3c8.5-3.1,16.9,5.3,16.9,5.3s8.7-10.1,9-10.1c11.5,5.5,18.8,14,18.8,14
				S261.4,155.2,248.8,163.9z"/>

				<use xlink:href="#New_Symbol_5"  width="35.6" height="32.3" x="-17.8" y="-16.2" transform="matrix(1.817 -0.6298 -0.6298 -1.817 272.1891 194.5303)" overflow="visible"/>

				<use xlink:href="#New_Symbol_7"  width="32.4" height="22.2" x="-16.2" y="-11.1" transform="matrix(1.9231 0 0 -1.9231 221.7638 71.592)" overflow="visible"/>

				<use xlink:href="#New_Symbol_7"  width="32.4" height="22.2" x="-16.2" y="-11.1" transform="matrix(-1.9076 -0.2433 0.2433 -1.9076 230.5912 70.6131)" overflow="visible"/>
			<g>

					<ellipse fill="#EFCAA1" stroke="#C1976B" stroke-width="1.2701" stroke-miterlimit="10" cx="224" cy="137.3" rx="11.3" ry="11.3"/>
				<g>

						<use xlink:href="#New_Symbol_9"  width="6.7" height="8" x="-3.3" y="-4" transform="matrix(1.9231 0 0 -1.9231 253.7657 120.7618)" overflow="visible"/>

						<use xlink:href="#New_Symbol_9"  width="6.7" height="8" x="-3.3" y="-4" transform="matrix(-1.9231 0 0 -1.9231 194.7807 120.7618)" overflow="visible"/>
				</g>

					<ellipse fill="#EFCAA1" stroke="#C1976B" stroke-width="1.2701" stroke-miterlimit="10" cx="224" cy="116.9" rx="30.4" ry="20.5"/>
				<g>

						<path fill="#EFCAA1" stroke="#C1976B" stroke-width="1.2701" stroke-linecap="round" stroke-linejoin="round" stroke-miterlimit="10" d="
						M220.6,118.5c0,0-1.2-0.2-1.2,1.7c0,1.8,1.8,2.2,4.7,2.2"/>

						<path fill="#EFCAA1" stroke="#C1976B" stroke-width="1.2701" stroke-linecap="round" stroke-linejoin="round" stroke-miterlimit="10" d="
						M227.5,118.5c0,0,1.2-0.2,1.2,1.7c0,1.8-1.8,2.2-4.7,2.2"/>
				</g>
				<g>

						<path fill="none" stroke="#C1976B" stroke-width="1.2701" stroke-linecap="round" stroke-linejoin="round" stroke-miterlimit="10" d="
						M211.1,121.7c0,0,1.7,1.3,4.5,0"/>

						<path fill="none" stroke="#C1976B" stroke-width="1.2701" stroke-linecap="round" stroke-linejoin="round" stroke-miterlimit="10" d="
						M213.9,122.2c0,0,0.7,5.2,10.5,5.2c6.7,0,6.7-3,6.7-3"/>
				</g>

					<use xlink:href="#New_Symbol_10"  width="2.5" height="6.7" x="-1.2" y="-3.3" transform="matrix(1.9231 0 0 -1.9231 215.1697 109.0897)" overflow="visible"/>

					<use xlink:href="#New_Symbol_10"  width="2.5" height="6.7" x="-1.2" y="-3.3" transform="matrix(-1.9231 0 0 -1.9231 233.1642 109.0897)" overflow="visible"/>
			</g>

				<use xlink:href="#New_Symbol_1"  width="26.3" height="18.5" x="-13.1" y="-9.2" transform="matrix(1.9231 0 0 -1.9231 323.4958 295.1192)" overflow="visible"/>

				<use xlink:href="#New_Symbol_2"  width="3.1" height="80.9" x="-1.6" y="-40.5" transform="matrix(1.9231 0 0 -1.9231 322.5404 201.9521)" overflow="visible"/>
			<g>

					<use xlink:href="#New_Symbol_1"  width="26.3" height="18.5" x="-13.1" y="-9.2" transform="matrix(1.9231 0 0 -1.9231 310.7123 314.6361)" overflow="visible"/>

					<use xlink:href="#New_Symbol_2"  width="3.1" height="80.9" x="-1.6" y="-40.5" transform="matrix(1.9231 0 0 -1.9231 309.7569 221.4691)" overflow="visible"/>
			</g>

				<use xlink:href="#New_Symbol_3"  width="39.3" height="19" x="-19.6" y="-9.5" transform="matrix(1.9231 0 0 -1.9231 329.5089 128.9649)" overflow="visible"/>

				<use xlink:href="#New_Symbol_4"  width="47.2" height="10.9" x="-23.6" y="-5.5" transform="matrix(1.9231 0 0 -1.9231 297.7291 117.5299)" overflow="visible"/>

				<use xlink:href="#New_Symbol_1"  width="26.3" height="18.5" x="-13.1" y="-9.2" transform="matrix(-1.9231 0 0 -1.9231 113.431 285.1994)" overflow="visible"/>

				<use xlink:href="#New_Symbol_2"  width="3.1" height="80.9" x="-1.6" y="-40.5" transform="matrix(-1.9231 0 0 -1.7447 114.3864 199.2508)" overflow="visible"/>

				<use xlink:href="#New_Symbol_3"  width="39.3" height="19" x="-19.6" y="-9.5" transform="matrix(-1.9231 0 0 -1.9231 107.4179 134.4297)" overflow="visible"/>

				<use xlink:href="#New_Symbol_4"  width="47.2" height="10.9" x="-23.6" y="-5.5" transform="matrix(-1.8871 0.3703 -0.3703 -1.8871 146.5622 119.1866)" overflow="visible"/>

				<use xlink:href="#New_Symbol_4"  width="47.2" height="10.9" x="-23.6" y="-5.5" transform="matrix(-1.8871 0.3703 -0.3703 -1.8871 163.0741 179.1505)" overflow="visible"/>
			<g>

					<use xlink:href="#New_Symbol_11"  width="30" height="7.1" x="-15" y="-3.6" transform="matrix(1.9231 0 0 -1.9231 308.5574 142.617)" overflow="visible"/>

					<use xlink:href="#New_Symbol_11"  width="30" height="7.1" x="-15" y="-3.6" transform="matrix(1.9231 0 0 1.9231 308.7899 153.4755)" overflow="visible"/>
			</g>

				<use xlink:href="#New_Symbol_1"  width="26.3" height="18.5" x="-13.1" y="-9.2" transform="matrix(3.6623 0 0 -1.9231 235.6994 316.6738)" overflow="visible"/>

				<use xlink:href="#New_Symbol_1"  width="26.3" height="18.5" x="-13.1" y="-9.2" transform="matrix(-1.9231 0 0 -1.9231 174.6495 290.4647)" overflow="visible"/>

				<use xlink:href="#New_Symbol_5"  width="35.6" height="32.3" x="-17.8" y="-16.2" transform="matrix(1.9231 0 0 -1.9231 176.1938 251.7171)" overflow="visible"/>
			<g>
				<circle fill="#2E3A6D" stroke="#6071A5" stroke-width="1.2701" stroke-miterlimit="10" cx="238" cy="282.1" r="56.6"/>
				<circle fill="#0E1932" stroke="#6071A5" stroke-width="1.2701" stroke-miterlimit="10" cx="237.8" cy="282.2" r="48.6"/>
			</g>
		</g>
		<g>
			<g>
				<g>

						<path fill="#C17F5F" stroke="#955635" stroke-width="1.2701" stroke-linecap="round" stroke-linejoin="round" stroke-miterlimit="10" d="
						M149.7,291.4c-1.7,0.5-3.4,1-5.1,1.5c-23.4-15.6-42.1-38.2-53.1-64.2c0.8-5.8,1.6-11.6,2.3-17.4c4.4,1.8,8.1,5.2,10.9,9.1
						c3.7,4.9,6.2,10.7,8.9,16.2c9.8,20,23,38.4,39,54C151.7,290.8,150.7,291.1,149.7,291.4z"/>

						<path fill="#C17F5F" stroke="#955635" stroke-width="1.2701" stroke-linecap="round" stroke-linejoin="round" stroke-miterlimit="10" d="
						M151.1,337.6c-10.8-22.6-26.5-43-45.6-59.2C94,288.3,81.5,297,68.2,304.3c4.1,9.6-0.7,20.2-7.7,27.4
						c-6.4,6.5-14.6,10.9-22.1,16.1c-6.9,4.8-13.6,10.8-16.8,18.5c0.8,2.2,2.3,4.1,4.2,5.4c1-1.2,1.6-1.9,1.6-1.9
						c7.4-8.7,17.4-14.8,27.3-20.6c9.9-5.8,20-11.4,28.2-19.4c6.7-6.5,11.9-14.9,13.5-24c2.3-0.3,4.6-0.6,7-1
						c20.2,10.6,36.7,27.9,46.3,48.6c2.5-0.3,5-1.1,7.2-2.3C155.1,346.6,153.2,342.1,151.1,337.6z"/>
					<g>
						<path fill="#2F2E49" d="M140.2,312.5c-9.6-14.4-22.7-26.5-37.7-35.1c-10.9,8-23.6,13.6-36.8,16.5c-0.5,2.5-0.9,5-1,7.5
							C59.1,312,50.9,321.2,41,327.9c12.8,8.3,27.7,13.4,43,14.8c6.6-9.1,11.5-19.3,14.6-30.1c6.9,7.2,12.4,15.7,16,25
							c11.2-4.9,20.5-13.9,25.7-24.9C140.3,312.7,140.2,312.6,140.2,312.5z"/>
						<g>
							<path fill="#A1A0CF" d="M140.6,312.2c-9.8-14.5-22.7-26.6-37.9-35.2c-0.2-0.1-0.4-0.1-0.5,0c-11,7.9-23.5,13.5-36.7,16.4
								c-0.2,0-0.3,0.2-0.4,0.4c-0.4,1.8-0.7,3.5-0.8,5.3c-0.2,2.1-0.8,3.5-1.9,5.3c-1.8,3.1-3.9,6.1-6.2,8.9
								c-4.5,5.4-9.7,10.2-15.5,14.2c-0.3,0.2-0.3,0.7,0,0.9c11.7,7.5,25,12.5,38.8,14.4c1.1,0.2,3.3,0.9,4.4,0.5
								c0.7-0.2,1.1-1.1,1.5-1.7c2-2.9,3.9-5.9,5.6-9c3.4-6.3,6.1-12.9,8.1-19.7c-0.3,0.1-0.6,0.2-0.9,0.2
								c6.8,7.2,12.2,15.6,15.9,24.8c0.1,0.3,0.4,0.5,0.8,0.3c6.2-2.8,11.8-6.7,16.6-11.6c2.2-2.3,4.2-4.8,5.9-7.4
								c1-1.5,1.9-3.1,2.7-4.7C140.4,313.7,141.1,313,140.6,312.2c-0.4-0.6-1.3,0-0.9,0.5c0.2,0.4-1.8,3.3-2.1,3.8
								c-0.7,1.1-1.4,2.2-2.1,3.3c-1.8,2.6-3.9,5-6.2,7.3c-4.4,4.2-9.4,7.6-15,10.1c0.3,0.1,0.5,0.2,0.8,0.3
								c-3.8-9.4-9.2-17.9-16.2-25.2c-0.3-0.3-0.8-0.1-0.9,0.2c-1.9,6.5-4.4,12.7-7.6,18.7c-1.5,2.7-3,5.4-4.7,8
								c-1,1.6-1.5,2.9-3.5,2.8c-1.8,0-3.7-0.5-5.4-0.8c-12.6-2.1-24.7-6.9-35.5-13.8c0,0.3,0,0.6,0,0.9
								c6.7-4.6,12.6-10.2,17.5-16.7c1.2-1.6,2.4-3.3,3.5-5c0.9-1.5,2.5-3.4,2.9-5.1c0.5-1.9-0.5-6,1.4-7.3c0.8-0.5,2.4-0.6,3.4-0.8
								c1.1-0.3,2.2-0.6,3.3-0.9c8.5-2.5,16.6-6.2,24.1-10.9c1.3-0.8,4-3.5,5.5-3.2c0.8,0.1,2.1,1.2,2.8,1.7c1.1,0.7,2.1,1.3,3.1,2
								c3.7,2.5,7.3,5.2,10.7,8.1c7.7,6.6,14.4,14.2,20.1,22.6C140.1,313.3,141,312.8,140.6,312.2z"/>
						</g>
					</g>

						<use xlink:href="#New_Symbol_13"  width="24.2" height="13.2" x="-12.1" y="-6.6" transform="matrix(1.9231 0 0 -1.9231 168.0546 359.6814)" overflow="visible"/>

						<use xlink:href="#New_Symbol_13"  width="24.2" height="13.2" x="-12.1" y="-6.6" transform="matrix(1.9226 4.402349e-02 4.402349e-02 -1.9226 40.9804 375.1319)" overflow="visible"/>
					<path fill="#A58AC0" stroke="#3F2D78" stroke-width="1.2701" stroke-miterlimit="10" d="M96.5,219.4c0.3,2.2,0.5,4.3,0.6,6.4
						c1.6,20.8,7.3,41.2,16.6,59.9c-14.8,7.8-31.6,11.9-48.3,11.6c-4.6-13.9-9.2-28-10.2-42.7c-1.1-14.8,1.8-30.5,11-42.3
						c2.7-3.4,6-6.6,10-8.3c4-1.7,8.9-1.9,12.6,0.3C93.9,207.3,95.7,213.3,96.5,219.4z"/>

						<path fill="#C17F5F" stroke="#955635" stroke-width="1.2701" stroke-linecap="round" stroke-linejoin="round" stroke-miterlimit="10" d="
						M72.7,206.9c0.4,1,0.9,1.9,1.5,2.8c2.2,3.6,5.5,6.5,9.2,6.8c4.1,0.4,8-2.4,10.7-6.1c2.4-3.4,3.9-7.5,5.4-11.6
						c-9.6,2.6-19.5,3-29.2,1.2C70.9,202.4,71.7,204.7,72.7,206.9z"/>
					<g>

							<path fill="#372216" stroke="#6F4A21" stroke-width="1.2701" stroke-linecap="round" stroke-linejoin="round" stroke-miterlimit="10" d="
							M64,176.4c1-7.2,5.6-13.9,12.3-17c5.3-2.5,11.3-2.7,17.2-2.4c4.3,0.2,8.7,0.8,12.5,2.9c4.3,2.3,7.3,6.5,9.3,10.9
							c1.3,2.8,2.1,5.8,2.8,8.9c-4.5-1.7-9.6-2.1-14.3-0.9c-1.8-1.8-3.6-3.7-5.4-5.5c0.5,1.7,1,3.3,1.5,5c-5.5,1.6-11.4,2.1-17,1.3
							c-0.7-1.7-1.3-3.3-2-5c-0.5,2.3-1.1,4.6-1.6,6.9c-5.2,0.1-10.4-0.3-15.5-1.3C63.8,179,63.8,177.7,64,176.4z"/>

							<use xlink:href="#New_Symbol_15"  width="6.8" height="11.4" x="-3.4" y="-5.7" transform="matrix(1.9231 0 0 -1.9231 58.7295 188.4995)" overflow="visible"/>

							<use xlink:href="#New_Symbol_15"  width="6.8" height="11.4" x="-3.4" y="-5.7" transform="matrix(-1.9231 0 0 -1.9231 116.2075 188.4995)" overflow="visible"/>

							<ellipse fill="#C17F5F" stroke="#955635" stroke-width="1.2701" stroke-linecap="round" stroke-linejoin="round" stroke-miterlimit="10" cx="89.2" cy="186.2" rx="29.2" ry="23.1"/>

							<path fill="#C17F5F" stroke="#955635" stroke-width="1.2701" stroke-linecap="round" stroke-linejoin="round" stroke-miterlimit="10" d="
							M97.1,183.4c1.4,1.4,2.9,3,3,5c0.1,1.8-1,3.5-2.5,4.4c-1.5,0.9-3.4,1-5.2,0.7c-1.7-0.3-3.4-1.1-4.9-2"/>

							<use xlink:href="#New_Symbol_17"  width="12.6" height="4.8" x="-6.3" y="-2.4" transform="matrix(1.9231 0 0 -1.9231 90.9909 182.4588)" overflow="visible"/>

							<path fill="#372216" stroke="#6F4A21" stroke-width="1.2701" stroke-linecap="round" stroke-linejoin="round" stroke-miterlimit="10" d="
							M59.7,173.5c1-7.2,5.6-13.9,12.3-17c5.3-2.5,11.3-2.7,17.2-2.4c4.3,0.2,8.7,0.8,12.5,2.9c4.3,2.3,7.3,6.5,9.3,10.9
							c1.3,2.8,2.1,5.8,2.8,8.9c-4.5-1.7-9.6-2.1-14.3-0.9c-1.8-1.8-3.6-3.7-5.4-5.5c0.5,1.7,1,3.3,1.5,5c-5.5,1.6-11.4,2.1-17,1.3
							c-0.7-1.7-1.3-3.3-2-5c-0.5,2.3-1.1,4.6-1.6,6.9c-5.2,0.1-10.4-0.3-15.5-1.3C59.4,176.1,59.5,174.8,59.7,173.5z"/>

							<path fill="#372216" stroke="#6F4A21" stroke-width="1.2701" stroke-linecap="round" stroke-linejoin="round" stroke-miterlimit="10" d="
							M71.5,163c-2.2,3.2-3.3,7.1-3,11"/>

							<path fill="#372216" stroke="#6F4A21" stroke-width="1.2701" stroke-linecap="round" stroke-linejoin="round" stroke-miterlimit="10" d="
							M83.8,163.1c0.4,1.7,0.9,3.5,1.3,5.2"/>

							<path fill="#372216" stroke="#6F4A21" stroke-width="1.2701" stroke-linecap="round" stroke-linejoin="round" stroke-miterlimit="10" d="
							M104.1,162c2.7,2.7,4.7,6.1,5.7,9.7"/>

							<path fill="#C17F5F" stroke="#955635" stroke-width="1.2701" stroke-linecap="round" stroke-linejoin="round" stroke-miterlimit="10" d="
							M76.4,194.5c0,0,3.1,4.8,17.4,7.1"/>
					</g>
				</g>
				<g>
					<path fill="#1C826F" stroke="#15715F" stroke-width="1.2701" stroke-miterlimit="10" d="M119.7,329.7
						c5.2-6.5-15.2-18.1-16.4-23.8c-0.2-0.8-0.3-1.7,0-2.5c0.5-1.1,1.6-1.6,2.6-2.1c6.2-3.4,9.9-10.7,8.9-17.7s-5.1-13.5-13.5-14.5
						c-10.3-1.2-21.2,19.4-36.4,6.6c-9.6-8.1-25.6-6.3-34.1,2.9c-5.3,5.7-7.7,13.8-7.4,21.6c0.3,7.8,5.5,32,21.9,37.3
						c16.5,5.2,29.2-12.2,38-15.8C92.1,318.1,112.7,338.5,119.7,329.7z"/>
					<path fill="#269985" stroke="#15715F" stroke-width="1.2701" stroke-miterlimit="10" d="M124.6,330
						c5.2-6.5-15.2-18.1-16.4-23.8c-0.2-0.8-0.3-1.7,0-2.5c0.5-1.1,1.6-1.6,2.6-2.1c6.2-3.4,9.9-10.7,8.9-17.7
						c-1-6.9-5.1-13.5-13.5-14.5c-10.3-1.2-21.2,19.4-36.4,6.6c-9.6-8.1-25.6-6.3-34.1,2.9c-5.3,5.7-7.7,13.8-7.4,21.6
						c0.3,7.8,5.5,32,21.9,37.3c16.5,5.2,29.2-12.2,38-15.8C97,318.4,117.6,338.8,124.6,330z"/>

						<use xlink:href="#New_Symbol_14"  width="121.1" height="61.5" x="-60.5" y="-30.8" transform="matrix(1.5543 0.4734 0.4662 -1.5307 132.9005 292.0836)" overflow="visible"/>
				</g>
			</g>

				<path fill="#C17F5F" stroke="#955635" stroke-width="1.2701" stroke-linecap="round" stroke-linejoin="round" stroke-miterlimit="10" d="
				M55.1,220c-0.1,0.1-0.2,0.2-0.3,0.3c-13.9,17.9-20.6,41.2-18.6,63.8c-2.6,7.6-2.3,16.2,0.8,23.7c0.9,2.1,2.1,4.3,4.1,5.5
				c2,1.2,4.9,1.1,6.3-0.7c1-1.3,1-3.1,1-4.8c0-2.3-0.1-4.7-0.1-7c0.3,1.2,0.7,2.4,1.5,3.2c1,1,2.7,1.4,3.7,0.5
				c0.9-0.8,0.9-2.2,0.7-3.3c-0.6-6.1-2.7-12.1-6.1-17.3c0.6-17.8,7.4-35.3,19.1-48.8c2.7-3.1,5.6-6.1,7.2-9.8
				c1.6-3.8,1.4-8.6-1.7-11.3c-2.7-2.4-6.9-2.3-10.2-0.8C59.6,214.7,57.2,217.3,55.1,220z"/>

				<path fill="#C17F5F" stroke="#955635" stroke-width="1.2701" stroke-linecap="round" stroke-linejoin="round" stroke-miterlimit="10" d="
				M152.1,294.5c0.2,0.2,0.4,0.3,0.5,0.5c2.6,2.4,5.7,4.6,9.1,5.3c-6.3,3.2-13.9,3.9-20.7,1.7c-1.7-2.7-3-5.6-3.9-8.6
				c-0.7-2.2-1-4.9,0.8-6.3c1.5-1.1,3.6-0.6,5.3,0.2C146.7,289,149.3,291.8,152.1,294.5z"/>
		</g>
		<g>
			<g>
				<g>
					<g>

							<use xlink:href="#New_Symbol_12"  width="28.4" height="14.2" x="-14.2" y="-7.1" transform="matrix(1.9231 0 0 -1.9231 422.057 413.573)" overflow="visible"/>

							<use xlink:href="#New_Symbol_12"  width="28.4" height="14.2" x="-14.2" y="-7.1" transform="matrix(-1.9231 0 0 -1.9231 264.7252 413.573)" overflow="visible"/>
						<path fill="#594D6D" stroke="#332B44" stroke-width="1.2701" stroke-miterlimit="10" d="M330.2,332.3
							c-20.4,19.3-33.8,46.1-36.7,74.1c-5.1,1.4-10.7,1-15.5-1c5.4-33.9,17.2-66.7,34.6-96.2c16.9,6.6,36.5,6.2,53.1-1
							c7.8,37.3,24.8,72.6,49.1,102c-3.2,0.8-6.6,1.1-10,0.9c-4.1-0.3-8.1-1.3-11.8-3c-0.2-0.5-0.4-0.7-0.4-0.7
							c-9.6-19.3-19.3-38.7-28.9-58c-2.9-5.8-5.8-11.6-10.3-16.2c-4.2-4.3-10-7.5-16-7.2C335,327.9,332.6,330.1,330.2,332.3z"/>
					</g>
					<path fill="#F5AA5A" stroke="#9A5724" stroke-width="1.2701" stroke-miterlimit="10" d="M357.3,238.1c0.4-1-0.8-4.6-0.4-5.7
						c7.7,9.3,20,18.7,31.7,21.9c10.7,3,22.3,2.8,32.9-0.4c-1.3,5.3-2.5,10.6-3.8,15.9c-23.2,1.8-47.3-6.1-64.4-22
						C354.7,244.6,356,241.4,357.3,238.1z"/>
					<path fill="#F5AA5A" stroke="#9A5724" stroke-width="1.2701" stroke-miterlimit="10" d="M275.9,270.6
						c9.8-17.2,24.2-31.8,41.5-41.4c0.1,0.8,0.1,1.6,0.1,2.5c1.7-1.9,3.6-3.7,5.6-5.2c6.2-4.6,14.3-6.9,21.9-5.3
						c4.1,0.9,8.2,3,10.3,6.7c1.8,3.2,1.9,7,1.9,10.6c0.1,13-0.4,26.1,1.2,39.1c1.5,12.2,4.8,24.5,11.5,34.8c-1.6,0.4-3.2,0.7-4.8,1
						c-11.1,2.1-22.3,4.2-33.5,4.3c-8,0.1-16-1-23.5-3.6c-3.4-15.1-4.4-30.8-3.2-46.3c0.4-4.4,0.9-8.8,1.9-13.2
						c-8,6.4-14.9,14.1-20.5,22.7"/>

						<use xlink:href="#New_Symbol_19"  width="8.5" height="15.1" x="-4.2" y="-7.6" transform="matrix(1.9231 0 0 -1.9231 349.4758 235.2634)" overflow="visible"/>

						<use xlink:href="#New_Symbol_19"  width="8.5" height="15.1" x="-4.2" y="-7.6" transform="matrix(-1.9231 0 0 -1.9231 324.5753 235.2634)" overflow="visible"/>
					<path fill="#4892CC" stroke="#21557D" stroke-width="1.2701" stroke-miterlimit="10" d="M337.5,300.6c1.9,1.9,3.9,3.8,5.8,5.6
						c1.5-5,3-10,4.5-15c-2.3-14.5-4.6-29-6.9-43.5c1.3-2.2,2.2-4.6,2.6-7.2c-3.7,0.3-7.5-0.2-11-1.5c-0.3,3.8,1.4,7.8,4.4,10.2
						c-1.3,15.6-2.7,31.3-4,46.9C334.4,297.6,336,299.1,337.5,300.6z"/>

						<path fill="#9B785B" stroke="#49301D" stroke-width="1.2701" stroke-linecap="round" stroke-linejoin="round" stroke-miterlimit="10" d="
						M324.9,233.6c0.5,1,1.1,1.9,1.8,2.8c2.6,3.6,6.5,6.5,10.9,6.8c4.8,0.4,9.5-2.4,12.6-6.1c2.9-3.4,4.7-7.5,6.3-11.6
						c-11.3,2.6-23,3-34.5,1.2C322.8,229.1,323.7,231.5,324.9,233.6z"/>
					<g>

							<use xlink:href="#New_Symbol_18"  width="7.9" height="13.3" x="-3.9" y="-6.6" transform="matrix(1.9231 0 0 -1.9231 302.4454 208.719)" overflow="visible"/>

							<use xlink:href="#New_Symbol_18"  width="7.9" height="13.3" x="-3.9" y="-6.6" transform="matrix(-1.9231 0 0 -1.9231 369.9642 208.719)" overflow="visible"/>

							<ellipse fill="#9B785B" stroke="#49301D" stroke-width="1.2701" stroke-linecap="round" stroke-linejoin="round" stroke-miterlimit="10" cx="338.4" cy="206" rx="34.4" ry="27.3"/>

							<path fill="#FFFFFF" stroke="#49301D" stroke-width="1.2701" stroke-linecap="round" stroke-linejoin="round" stroke-miterlimit="10" d="
							M331.1,218.8c5.7-1.9,11.9-2,17.6-0.3c-1.4,1.5-2.5,3.2-3.3,5.1c-0.8,2.1-2.9,3.4-5.1,3c-4.6-1-8.9-3.3-12.2-6.7
							C329.1,219.6,330.1,219.2,331.1,218.8z"/>

							<path fill="#9B785B" stroke="#49301D" stroke-width="1.2701" stroke-linecap="round" stroke-linejoin="round" stroke-miterlimit="10" d="
							M347.7,202.7c1.7,1.7,3.4,3.5,3.6,5.9c0.1,2.1-1.2,4.1-3,5.1c-1.8,1-4,1.2-6.1,0.8c-2.1-0.4-4-1.3-5.8-2.4"/>

							<path fill="#271E14" stroke="#59351B" stroke-width="1.8152" stroke-linecap="round" stroke-linejoin="round" stroke-miterlimit="10" d="
							M305.7,198.3c0,0,1.3-0.9,11.5-10.7c0,0,33-11.5,50.4,3.9c0,0,6.3,7.9,5.3,14.6c0,0,11.2-6.7,1.4-14.6c0,0,4.9-12-7.6-12.8
							c0,0,2.3-15.5-17.1-13c0,0-4.2-8.7-20.7,2.6c0,0-18.3-6.6-17.5,6.7c0,0-13.5,5-10.2,14.8C301.1,189.6,296.6,193.9,305.7,198.3
							z"/>

							<use xlink:href="#New_Symbol_17"  width="12.6" height="4.8" x="-6.3" y="-2.4" transform="matrix(2.2697 0 0 -2.2697 340.3257 201.9168)" overflow="visible"/>
					</g>
					<path fill="#F5AA5A" stroke="#9A5724" stroke-width="1.2701" stroke-miterlimit="10" d="M314.7,266.1c-0.3-0.5-0.5-1.1-0.7-1.6
						c-1.7-4.6-1.6-9.9,0.2-14.5c5,0.6,10.1,1.1,15.1,1.7c-0.5,4.8-1.9,9.4-4,13.7c-1,2-2.3,4-4.4,4.5c-1.6,0.3-3.2-0.3-4.4-1.4
						C315.8,267.9,315.2,267,314.7,266.1z"/>

						<use xlink:href="#New_Symbol_20"  width="12.4" height="13.3" x="-6.2" y="-6.7" transform="matrix(1.9231 0 0 -1.9231 419.2401 264.797)" overflow="visible"/>
				</g>
				<g>
					<g>
						<path fill="#881724" stroke="#570F16" stroke-width="1.2701" stroke-miterlimit="10" d="M373.9,330c3.6-9.2-23.6-15.2-27-21.2
							c-0.5-0.9-1-1.8-0.9-2.9c0.1-1.4,1.3-2.4,2.2-3.3c5.8-6,7.4-15.6,3.8-23.1c-3.6-7.5-10.6-13.5-20.4-11.6
							c-12.1,2.3-17.2,29.5-38.9,20.4c-13.7-5.8-31.3,1.9-37.7,15.3c-4,8.4-3.9,18.4-0.8,27.1c3.1,8.8,17.5,34.4,38,34.5
							c20.5,0.1,28.8-24.2,37.5-31.4C338.5,326.6,369,342.5,373.9,330z"/>
						<path fill="#BE1E2D" stroke="#82151F" stroke-width="1.2701" stroke-miterlimit="10" d="M379.6,328.7
							c3.6-9.2-23.6-15.2-27-21.2c-0.5-0.9-1-1.8-0.9-2.9c0.1-1.4,1.3-2.4,2.2-3.3c5.8-6,7.4-15.6,3.8-23.1
							c-3.6-7.5-10.6-13.5-20.4-11.6c-12.1,2.3-17.2,29.5-38.9,20.4c-13.7-5.8-31.3,1.9-37.7,15.3c-4,8.4-3.9,18.4-0.8,27.1
							c3.1,8.8,17.5,34.4,38,34.5c20.5,0.1,28.8-24.2,37.5-31.4C344.2,325.2,374.7,341.1,379.6,328.7z"/>

							<rect x="368.6" y="277.4" transform="matrix(0.9081 -0.4187 0.4187 0.9081 -83.7289 185.8621)" fill="#CB954F" stroke="#8B6C2A" stroke-width="1.2701" stroke-miterlimit="10" width="26.3" height="12.6"/>

							<rect x="342.1" y="289.6" transform="matrix(0.9081 -0.4187 0.4187 0.9081 -91.2599 175.9149)" fill="#CB954F" stroke="#8B6C2A" stroke-width="1.2701" stroke-miterlimit="10" width="26.3" height="12.6"/>

							<use xlink:href="#New_Symbol_14"  width="121.1" height="61.5" x="-60.5" y="-30.8" transform="matrix(1.9231 0 0 -1.9231 375.1443 282.8444)" overflow="visible"/>
					</g>
				</g>
			</g>

				<ellipse transform="matrix(-0.7168 -0.6973 0.6973 -0.7168 546.7654 732.1529)" fill="#9B785B" stroke="#49301D" stroke-width="1.2701" stroke-linecap="round" stroke-linejoin="round" stroke-miterlimit="10" cx="422.1" cy="255" rx="3.2" ry="6.4"/>

				<path fill="#9B785B" stroke="#49301D" stroke-width="1.2701" stroke-linecap="round" stroke-linejoin="round" stroke-miterlimit="10" d="
				M434.6,262.9c2.4,0.6,4.9,1.1,7.3,1.7c-4.5,7-11.6,12.3-19.5,14.8c-3.2-0.3-6.1-2.4-7.4-5.3c-1.5-3.4-0.4-7.8,2.4-10.2
				c2.1-1.8,4.9-2.5,7.6-2.5c2.7,0,5.4,0.6,8.1,1.2C433.6,262.7,434.1,262.8,434.6,262.9z"/>
			<path fill="#F5AA5A" stroke="#9A5724" stroke-width="1.2701" stroke-miterlimit="10" d="M286.3,277.2c-3.6,5.6-6.6,11.5-9,17.7
				c-1.7,0-3.4-0.1-5-0.3c-2.1-0.2-4.2-0.5-6.3-1c2.4-8,5.7-15.8,9.9-23.1"/>

				<path fill="#9B785B" stroke="#49301D" stroke-width="1.2701" stroke-linecap="round" stroke-linejoin="round" stroke-miterlimit="10" d="
				M268.3,300.1c0-1.2,0.1-2.3,0.2-3.5c4.4,0.3,8.8-0.3,13-1.9c3,4.4,4.8,10,5.1,15.8c0,0.8-0.4,2.1-1,3.2c-0.5,1-2.1,0.8-2.3-0.4
				c-0.5-3.2-1.8-6.2-3.7-8.5c-2.8,0.6-3.7,4.2-3.3,7.3c0.4,2.4,1.4,4.5,2.2,6.7c0.5,1.2,0.6,3.8,0.6,6.1c0,1.5-1.9,2.1-2.8,0.9
				C271.2,318.9,268.3,309.5,268.3,300.1z"/>
			<path d="M285,322c-2.1-0.8-4-1.8-5.9-3c-1.4-0.9-1.6-2.8-0.6-4.1l0-0.1c1.3-1.6,3.8-1.4,4.7,0.4l2.9,5.4
				C286.6,321.4,285.9,322.3,285,322z"/>

				<use xlink:href="#New_Symbol_20"  width="12.4" height="13.3" x="-6.2" y="-6.7" transform="matrix(-0.9038 1.6975 -1.6975 -0.9038 274.0617 292.0835)" overflow="visible"/>
		</g>
	</g>
</g>
</svg>
