<?xml version="1.0" encoding="utf-8"?>
<!-- Generator: Adobe Illustrator 18.1.1, SVG Export Plug-In . SVG Version: 6.00 Build 0)  -->
<svg version="1.1" id="Layer_1" xmlns="http://www.w3.org/2000/svg" xmlns:xlink="http://www.w3.org/1999/xlink" x="0px" y="0px"
	 viewBox="0 0 500 500" enable-background="new 0 0 500 500" xml:space="preserve">
<symbol  id="New_Symbol" viewBox="-74 -18.6 148 37.3">
	<polygon fill="#94869F" stroke="#5C5261" stroke-width="0.9721" stroke-miterlimit="10" points="-73.5,-18.1 73.5,9.2 73.5,18.1
		-73.5,-7.4 	"/>
</symbol>
<symbol  id="New_Symbol_1" viewBox="-70 -49.1 140 98.3">
	<polygon fill="#94869F" stroke="#5C5261" stroke-width="0.9721" stroke-miterlimit="10" points="5.5,-39.3 -66.1,24.9 -69.4,15.3
		2.7,-48.3 	"/>
	<polygon fill="#94869F" stroke="#5C5261" stroke-width="0.9721" stroke-miterlimit="10" points="6.7,-39 67.1,48.1 69.5,40.9
		9.4,-46.4 	"/>
</symbol>
<symbol  id="New_Symbol_10" viewBox="-10 -3.3 20 6.5">
	<path fill="#6D6E70" stroke="#333333" stroke-width="0.5501" stroke-miterlimit="10" d="M-8.9,0.3c1.4-1.6,3.7-2.8,6-3.1
		C1.9-3.6,7-1.5,9.6,2.1C9.9,2.5,9.6,3,9.1,3C3.2,3-2.6,3-8.4,3c-1,0-1.6-0.9-1.2-1.7C-9.4,0.9-9.2,0.6-8.9,0.3z"/>
</symbol>
<symbol  id="New_Symbol_11" viewBox="-1.5 -2.6 3 5.3">
	<path fill="#231F20" d="M-1.3,0.3c-0.4-1.5-0.2-2.8,0.6-2.9c0.7-0.2,1.6,0.9,2,2.3c0.4,1.5,0.2,2.8-0.6,2.9C0,2.8-0.9,1.7-1.3,0.3z
		"/>
</symbol>
<symbol  id="New_Symbol_12" viewBox="-6.6 -13.3 13.1 26.7">
	<path fill="#C1B49A" stroke="#676667" stroke-width="0.5501" stroke-miterlimit="10" d="M6.1-11.5c-0.1,0-0.3-0.2-0.5-0.3
		c-0.2-0.1-1-0.3-1.2-0.4c-0.4,0.8-0.9,2.1-1.4,2.8C2.6-8.7,3-9.1,2.5-8.5c0.4-1.6,0.3-2.3,0.5-3.9c-0.3-0.1-0.7-0.2-1-0.3
		c-2.4-0.3-4.6-0.3-7.7,0.9c0,1.4,0.2,3.3-0.4,4.6c-0.5,1,0.4,3.2,0.5,3.2c0.2,1,0.2,1.9,0.2,2.9C-5.9-0.6-6.2,0.2-6.3,1v0.1
		c0,0.7,0.2,1.3,0.6,1.9C-6.5,6-6.4,9.1-5.2,12c2.6,0.3,5.3,0.7,7.9,1C1.4,11,0.5,8.9,0.1,6.6C0,6-0.1,5.4-0.2,4.7
		C0.5,4.5,1,4.1,1.4,3.6c0.4-0.5,0.7-1.2,0.8-1.8c0.1-1.3-0.6-2.7-1.9-3.4c0.1-0.7,0.3-1.4,0.6-2.1c0.7-0.3,1.2-0.4,2.2-1.6
		C4.6-7.1,5.7-9.4,6.1-11.5z"/>
	<path fill="#271D13" stroke="#59351A" stroke-width="0.5501" stroke-miterlimit="10" d="M-6-7.4c0.6-1.3,0.4-3.2,0.4-4.5
		c3-1.3,5.3-1.3,7.7-0.9c0.3,0.1,0.7,0.2,1,0.3c-0.2,1.6,0,2-0.4,3.6c0.6-0.6,0.1-0.2,0.6-0.8c0.5-0.7,0.4-1.8,0.8-2.6
		c0.2,0.1,1.5,0.4,1.7,0.5c0.1,0,0.3,0.2,0.5,0.3c-0.3,1.4-0.9,3-1.8,4.4C2.9-7.8-2.6-9.2-6-7.4z"/>
</symbol>
<symbol  id="New_Symbol_13" viewBox="-49.3 -39.3 98.5 78.6">

		<use xlink:href="#New_Symbol_12"  width="13.1" height="26.7" x="-6.6" y="-13.3" transform="matrix(1 0 0 1 -8.9102 -17.643)" overflow="visible"/>

		<use xlink:href="#New_Symbol_10"  width="20" height="6.5" x="-10" y="-3.3" transform="matrix(-1 4.489659e-11 4.489659e-11 1 39.2422 24.4625)" overflow="visible"/>
	<path fill="#FFFFFF" stroke="#231F20" stroke-width="0.5501" stroke-linecap="round" stroke-miterlimit="10" d="M16.2,32.3
		c0.3-0.7,0.2-1.8,0.2-2.6c1.5-0.7,2.7-0.7,3.9-0.5c0.2,0.1,0.3,0.1,0.5,0.2c-0.1,0.9,0,1.1-0.2,2c0.3-0.3,0.1-0.1,0.3-0.5
		c0.3-0.4,0.2-1,0.4-1.5c0.1,0,0.8,0.2,0.9,0.3c0.1,0,0.2,0.1,0.2,0.2c-0.2,0.8-0.5,1.7-0.9,2.5C20.7,32,17.9,31.2,16.2,32.3z"/>

		<path fill="#FFFFFF" stroke="#231F20" stroke-width="0.5501" stroke-linecap="round" stroke-linejoin="round" stroke-miterlimit="10" d="
		M10.3,18.3c0.1,0,0.2-0.2,0.3-0.2c0.1,0,0.6-0.2,0.7-0.2c0.2,0.6,0.5,1.4,0.9,1.9c0.3,0.4,0,0.2,0.4,0.6c-0.3-1.1-0.2-1.6-0.3-2.7
		c0.2-0.1,0.4-0.1,0.6-0.2c1.5-0.2,2.8-0.2,4.7,0.6c0,1-0.1,2.2,0.3,3.1c0.3,0.7-0.2,2.2-0.3,2.2c-0.1,0.7-0.1,1.3-0.1,2
		c0.3,0.4,0.5,1,0.5,1.5V27c0,0.5-0.1,0.9-0.3,1.3c0.5,2,0.4,4.2-0.3,6.2c-1.6,0.2-3.2,0.5-4.8,0.7c0.8-1.3,1.3-2.8,1.6-4.4
		c0.1-0.4,0.1-0.9,0.1-1.3c-0.4-0.1-0.7-0.4-0.9-0.8c-0.3-0.4-0.4-0.8-0.5-1.2c-0.1-0.9,0.4-1.8,1.1-2.4c-0.1-0.5-0.2-1-0.4-1.4
		c-0.4-0.2-0.7-0.2-1.4-1.1C11.2,21.4,10.5,19.7,10.3,18.3z"/>
	<path fill="#FFFFFF" stroke="#231F20" stroke-width="0.5501" stroke-linecap="round" stroke-miterlimit="10" d="M17.7,21.2
		c-0.3-0.9-0.3-2.2-0.2-3.1c-1.9-0.9-3.2-0.9-4.7-0.6c-0.2,0.1-0.4,0.1-0.6,0.2c0.1,1.1,0,1.4,0.2,2.5c-0.3-0.4-0.1-0.1-0.4-0.6
		c-0.3-0.5-0.2-1.2-0.5-1.8c-0.1,0-0.9,0.3-1,0.3c-0.1,0-0.2,0.2-0.3,0.2c0.2,1,0.6,2.1,1.1,3C12.3,20.9,15.6,19.9,17.7,21.2z"/>

		<path fill="#FFFFFF" stroke="#231F20" stroke-width="0.5501" stroke-linecap="round" stroke-linejoin="round" stroke-miterlimit="10" d="
		M7.3,12.4c0.1,0,0.2-0.2,0.3-0.2c0.1,0,0.6-0.2,0.7-0.2c0.2,0.6,0.5,1.4,0.9,1.9c0.3,0.4,0,0.2,0.4,0.6c-0.3-1.1-0.2-1.6-0.3-2.7
		c0.2-0.1,0.4-0.1,0.6-0.2c1.5-0.2,2.8-0.2,4.7,0.6c0,1-0.1,2.2,0.3,3.1c0.3,0.7-0.2,2.2-0.3,2.2c-0.1,0.7-0.1,1.3-0.1,2
		c0.3,0.4,0.5,1,0.5,1.5v0.1c0,0.5-0.1,0.9-0.3,1.3c0.5,2,0.4,4.2-0.3,6.2c-1.6,0.2-3.2,0.5-4.8,0.7c0.8-1.3,1.3-2.8,1.6-4.4
		c0.1-0.4,0.1-0.9,0.1-1.3c-0.4-0.1-0.7-0.4-0.9-0.8C10,22.5,9.8,22,9.7,21.6c-0.1-0.9,0.4-1.8,1.1-2.4c-0.1-0.5-0.2-1-0.4-1.4
		c-0.4-0.2-0.7-0.2-1.4-1.1C8.3,15.5,7.6,13.9,7.3,12.4z"/>
	<path fill="#FFFFFF" stroke="#231F20" stroke-width="0.5501" stroke-linecap="round" stroke-miterlimit="10" d="M14.7,15.3
		c-0.3-0.9-0.3-2.2-0.2-3.1c-1.9-0.9-3.2-0.9-4.7-0.6c-0.2,0.1-0.4,0.1-0.6,0.2c0.1,1.1,0,1.4,0.2,2.5c-0.3-0.4-0.1-0.1-0.4-0.6
		c-0.3-0.5-0.2-1.2-0.5-1.8c-0.1,0-0.9,0.3-1,0.3c-0.1,0-0.2,0.2-0.3,0.2c0.2,1,0.6,2.1,1.1,3C9.3,15,12.6,14,14.7,15.3z"/>

		<path fill="#FFFFFF" stroke="#231F20" stroke-width="0.5501" stroke-linecap="round" stroke-linejoin="round" stroke-miterlimit="10" d="
		M-2.2,14.4c0.1,0,0.2-0.2,0.3-0.2c0.1,0,0.6-0.2,0.7-0.2c0.2,0.6,0.5,1.4,0.9,1.9c0.3,0.4,0,0.2,0.4,0.6c-0.3-1.1-0.2-1.6-0.3-2.7
		c0.2-0.1,0.4-0.1,0.6-0.2c1.5-0.2,2.8-0.2,4.7,0.6c0,1-0.1,2.2,0.3,3.1C5.5,18,5,19.5,4.9,19.5c-0.1,0.7-0.1,1.3-0.1,2
		c0.3,0.4,0.5,1,0.5,1.5v0.1c0,0.5-0.1,0.9-0.3,1.3c0.5,2,0.4,4.2-0.3,6.2c-1.6,0.2-3.2,0.5-4.8,0.7c0.8-1.3,1.3-2.8,1.6-4.4
		c0.1-0.4,0.1-0.9,0.1-1.3c-0.4-0.1-0.7-0.4-0.9-0.8c-0.3-0.4-0.4-0.8-0.5-1.2c-0.1-0.9,0.4-1.8,1.1-2.4c-0.1-0.5-0.2-1-0.4-1.4
		c-0.4-0.2-0.7-0.2-1.4-1.1C-1.3,17.4-2,15.8-2.2,14.4z"/>
	<path fill="#FFFFFF" stroke="#231F20" stroke-width="0.5501" stroke-linecap="round" stroke-miterlimit="10" d="M5.2,17.2
		c-0.3-0.9-0.3-2.2-0.2-3.1c-1.9-0.9-3.2-0.9-4.7-0.6c-0.2,0.1-0.4,0.1-0.6,0.2c0.1,1.1,0,1.4,0.2,2.5c-0.3-0.4-0.1-0.1-0.4-0.6
		c-0.3-0.5-0.2-1.2-0.5-1.8c-0.1,0-0.9,0.3-1,0.3c-0.1,0-0.2,0.2-0.3,0.2c0.2,1,0.6,2.1,1.1,3C-0.3,16.9,3.1,16,5.2,17.2z"/>

		<path fill="#FFFFFF" stroke="#231F20" stroke-width="0.5501" stroke-linecap="round" stroke-linejoin="round" stroke-miterlimit="10" d="
		M21.2,15.3c0.1,0,0.2-0.2,0.3-0.2c0.1,0,0.6-0.2,0.7-0.2c0.2,0.6,0.5,1.4,0.9,1.9c0.3,0.4,0,0.2,0.4,0.6c-0.3-1.1-0.2-1.6-0.3-2.7
		c0.2-0.1,0.4-0.1,0.6-0.2c1.5-0.2,2.8-0.2,4.7,0.6c0,1-0.1,2.2,0.3,3.1c0.3,0.7-0.2,2.2-0.3,2.2c-0.1,0.7-0.1,1.3-0.1,2
		c0.3,0.4,0.5,1,0.5,1.5v0.1c0,0.5-0.1,0.9-0.3,1.3c0.5,2,0.4,4.2-0.3,6.2c-1.6,0.2-3.2,0.5-4.8,0.7c0.8-1.3,1.3-2.8,1.6-4.4
		C25,27.4,25,27,25,26.5c-0.4-0.1-0.7-0.4-0.9-0.8c-0.3-0.4-0.4-0.8-0.5-1.2c-0.1-0.9,0.4-1.8,1.1-2.4c-0.1-0.5-0.2-1-0.4-1.4
		c-0.4-0.2-0.7-0.2-1.4-1.1C22.2,18.4,21.5,16.8,21.2,15.3z"/>
	<path fill="#FFFFFF" stroke="#231F20" stroke-width="0.5501" stroke-linecap="round" stroke-miterlimit="10" d="M28.6,18.2
		c-0.3-0.9-0.3-2.2-0.2-3.1c-1.9-0.9-3.2-0.9-4.7-0.6c-0.2,0.1-0.4,0.1-0.6,0.2c0.1,1.1,0,1.4,0.2,2.5C23,16.7,23.2,17,23,16.5
		c-0.3-0.5-0.2-1.2-0.5-1.8c-0.1,0-0.9,0.3-1,0.3c-0.1,0-0.2,0.2-0.3,0.2c0.2,1,0.6,2.1,1.1,3C23.2,17.9,26.5,16.9,28.6,18.2z"/>
	<path fill="#FFFFFF" stroke="#808184" stroke-width="0.5501" stroke-miterlimit="10" d="M-42.3,19.4c-5.5-2.9-4.4-13.9-4-18.4
		c0.3-3.2,0.4-6.9-2.3-9c2-0.4,4.1,0.9,4.4,2.7c-0.5-0.4-0.1-1.2,0.5-1.4c0.6-0.2,1.3,0,1.9,0.2c2,0.9,3.4,2.7,3.6,4.7
		c0.3,2.3-1.1,4.8-3.5,5.9c-2.4,4.2,7.3,11.2,4.9,15.4"/>

		<use xlink:href="#New_Symbol_12"  width="13.1" height="26.7" x="-6.6" y="-13.3" transform="matrix(1 0 0 1 -3.9102 -25.9764)" overflow="visible"/>

		<use xlink:href="#New_Symbol_12"  width="13.1" height="26.7" x="-6.6" y="-13.3" transform="matrix(1 0 0 1 11.7565 -23.3097)" overflow="visible"/>

		<use xlink:href="#New_Symbol_12"  width="13.1" height="26.7" x="-6.6" y="-13.3" transform="matrix(1 0 0 1 -26.5768 -22.3097)" overflow="visible"/>
	<path fill="#FFFFFF" stroke="#808184" stroke-width="0.5501" stroke-miterlimit="10" d="M28.5-6.2c0.3-1.3,0.1-2.8-0.7-3.9
		c-0.7-1.1-1.9-1.9-3.2-2.3c-0.4-1.3-1.1-2.4-2.3-3.3c-1.3-0.9-2.9-1.4-4.6-1.4c-1.5-2-4.1-3.4-6.9-3.4c-2.8-0.1-5.6,1.2-7.2,3.1
		c-1.8-0.3-3.7-0.1-5.4,0.5c-1.1-1-2.7-1.7-4.3-1.9c-1.9-0.2-3.8,0.2-5.3,1.2c-0.9-0.5-2-0.7-3.1-0.8c-0.9,0-1.7,0.1-2.6,0.3
		c-1.2-0.6-2.7-0.9-4.1-0.7c-1.7,0.3-3.2,1.2-4.1,2.5c-0.8-0.1-1.6-0.2-2.4-0.1c-1.1,0.1-2.2,0.5-3.1,1c-0.5,0.3-1,0.7-1.3,1.2
		c-0.4,0.5-0.7,1.1-0.8,1.8c-2.2,0.2-4.3,1.3-5.5,3c-1,1.4-1.3,3.1-1,4.7c-1.6,0.9-2.8,2.2-3.5,3.7c-0.8,1.7-0.9,3.5-0.3,5.3
		c-1,0.9-1.7,2-2,3.2c-0.4,1.5-0.1,3.1,0.7,4.4c-0.7,1.2-1,2.7-0.8,4c0.2,1.6,1.2,3.2,2.6,4.3c-0.5,1.8,0,3.8,1.3,5.2
		c1.1,1.2,2.8,2,4.5,2.2c0.8,1.7,2.6,3,4.7,3.5c1.7,0.4,3.5,0.3,5.3-0.1c1.2,1.2,3.1,2,5,2.1c2.1,0.1,4.2-0.6,6-1.7
		c0.8,0.8,1.9,1.3,3.1,1.4c1,0.1,2,0,2.9-0.3c1.2,0.6,2.6,0.9,4,0.7c0.4,2,2.1,3.7,4.3,4.3c1.9,0.5,4.1,0.1,5.7-0.9
		C5.5,38,7.5,38.9,9.5,39c2.2,0.1,4.4-0.8,5.8-2.4c1.2,0.9,3.1,1.3,4.6,0.8c1.7-0.5,3.1-1.7,3.8-3.2c2.2,0,4.5-1,5.7-2.6
		c1.5-2,1.5-4.7,0-6.7c0.8-3.9,1.5-7.7,2.3-11.6c-0.1-1.6-0.2-3.1-0.3-4.7C34,3.8,32.7-2.4,28.5-6.2z"/>
	<path fill="#FFFFFF" stroke="#808184" stroke-width="0.5501" stroke-miterlimit="10" d="M-6.5,31.4c-1.9-0.6-3.5-2.1-4-3.8
		c-0.5-1.6,0-3.4,1.1-4.7c-1.2-0.7-2.2-1.8-2.6-3c-0.4-1.2-0.4-2.4,0-3.6c-1.3-1.7-1.7-4-1-5.9c0.6-1.6,1.9-3,3.6-3.7
		C-9.8,4.9-9.6,3-8.7,1.3c0.9-1.6,2.4-3,4.2-3.9C-4.7-3.8-4.4-5-3.6-6c1-1.2,2.6-2,4.3-2.1c0.4-1.5,1.9-2.8,3.6-3.2
		c1.9-0.6,4-0.3,6,0.2c0.9-0.9,2.2-1.6,3.6-1.7c1.8-0.2,3.6,0.4,4.9,1.5"/>
	<path fill="#FFFFFF" stroke="#808184" stroke-width="0.5501" stroke-miterlimit="10" d="M-9.9-15.8c-1.9-1.1-4.4-1.3-6.4-0.5
		c-1.7,0.6-3,1.9-3.7,3.4c-1.5-0.1-3.1,0.4-4.2,1.4c-0.9,0.8-1.4,1.9-1.5,3c-1.5,0.3-2.8,1.2-3.5,2.4c-0.9,1.4-0.9,3.2-0.1,4.6"/>
	<path fill="#FFFFFF" stroke="#808184" stroke-width="0.5501" stroke-miterlimit="10" d="M-34.9,25.9c-1.6-0.3-3-1.2-3.7-2.5
		c-0.4-0.8-0.6-1.7-0.4-2.6c-1.4-0.9-2.3-2.4-2.4-3.9c-0.1-1.5,0.5-3,1.6-4.1c-0.9-2.1-0.5-4.6,1-6.4"/>
	<path fill="#FFFFFF" stroke="#808184" stroke-width="0.5501" stroke-miterlimit="10" d="M-37.4-2.4c-0.8-1.9,0-4.2,1.7-5.4"/>
	<path fill="#FFFFFF" stroke="#808184" stroke-width="0.5501" stroke-miterlimit="10" d="M26.3-6.5c2.2,1.2,3.9,3.3,4.4,5.6"/>
	<path fill="#EE4C67" stroke="#BE1E2D" stroke-width="0.5501" stroke-miterlimit="10" d="M27.1-3.6c0-0.1-0.1-0.2-0.2-0.2
		c-0.6-0.5-1.6-0.3-2.3,0.1c-2,1.1-3.5,2.7-4.6,4.5c-0.5,0.8-0.9,1.6-1.2,2.4c-0.2,0.6,0.5,1.1,1.1,0.8c2.1-1.1,4.3-1.9,6.6-2.5
		c0.5-1.3,0.7-2.7,0.8-4.1C27.3-2.9,27.3-3.3,27.1-3.6z"/>
	<path fill="#C1B49A" stroke="#676667" stroke-width="0.5501" stroke-miterlimit="10" d="M32.1,27c-1.8,3.1-6.6,4-10.3,2.7
		c-3.6-1.3-6.2-4.3-7.7-7.5c-1.2-2.4-1.8-5.2-0.8-7.7c0.8-1.9,2.4-3.4,3.4-5.2c1-1.8,1.3-3.7,1.9-5.6C19,2.9,19.4,2,19.9,1.2
		c1.7-3.6,6.9-4.7,10.4-2.8c3.2,1.7,4.5,5.3,5.2,8.6c0.8,3.8,1.3,7.7,0.6,11.6c-0.6,3.8-2.5,7.6-5.7,10.2"/>

		<use xlink:href="#New_Symbol_10"  width="20" height="6.5" x="-10" y="-3.3" transform="matrix(1 0 0 1 9.2422 24.4625)" overflow="visible"/>
	<g>
		<path fill="#676667" d="M24.3,4.9c0.5-0.5,0.9-1,1.4-1.4c0.5-0.4,1-0.8,1.6-1.1c0.6-0.3,1.1-0.6,1.8-0.9c0.3-0.1,0.6-0.2,0.9-0.3
			C30.4,1.1,30.7,1,31,1l-0.2,0C31.4,1,32,1.2,32.4,1.5c0.5,0.3,0.9,0.7,1.3,1.2c0.4,0.5,0.7,1,0.9,1.6C34.8,4.8,35,5.4,35.2,6
			l0.1,0c-0.2-1.3-0.5-2.5-1.2-3.6c-0.4-0.5-0.8-1-1.3-1.4c-0.5-0.4-1.1-0.6-1.8-0.7l0,0l0,0C28.2,1,25.8,2.6,24.3,4.9L24.3,4.9z"/>
	</g>
	<path fill="#C1B49A" stroke="#676667" stroke-width="0.5501" stroke-miterlimit="10" d="M26.2-2.5c3.6,0.4,4.4,1.6,5,3.2"/>

		<use xlink:href="#New_Symbol_11"  width="3" height="5.3" x="-1.5" y="-2.6" transform="matrix(1 0 0 1 25.1101 20.2048)" overflow="visible"/>

		<use xlink:href="#New_Symbol_11"  width="3" height="5.3" x="-1.5" y="-2.6" transform="matrix(-0.8125 0 0 1 32.7498 20.2048)" overflow="visible"/>
</symbol>
<symbol  id="New_Symbol_2" viewBox="-3.1 -49.9 6.1 99.7">
	<polygon fill="#94869F" stroke="#5C5261" stroke-width="0.9721" stroke-miterlimit="10" points="2.6,-47.7 2.6,49.3 -2.6,48.4
		-2.6,-49.2 	"/>
</symbol>
<symbol  id="New_Symbol_3" viewBox="-72.5 -66.3 145 132.7">
	<polygon fill="#94869F" stroke="#5C5261" stroke-width="0.9721" stroke-miterlimit="10" points="72,-23.7 72,65.8 67.6,65
		67.6,-25 	"/>
	<polygon fill="#94869F" stroke="#5C5261" stroke-width="0.9721" stroke-miterlimit="10" points="-65.8,-63.9 -65.8,42.7 -72,41.7
		-72,-65.7 	"/>
</symbol>
<symbol  id="New_Symbol_4" viewBox="-74.2 -66.3 148.3 132.7">

		<use xlink:href="#New_Symbol_1"  width="140" height="98.3" x="-70" y="-49.1" transform="matrix(1 0 0 1 0.2951 12.0072)" overflow="visible"/>
	<g>

			<use xlink:href="#New_Symbol_2"  width="6.1" height="99.7" x="-3.1" y="-49.9" transform="matrix(1 0 0 1 8.9039 6.3601)" overflow="visible"/>

			<use xlink:href="#New_Symbol_2"  width="6.1" height="99.7" x="-3.1" y="-49.9" transform="matrix(1 0 0 1 4.0462 5.2804)" overflow="visible"/>
	</g>

		<use xlink:href="#New_Symbol_3"  width="145" height="132.7" x="-72.5" y="-66.3" transform="matrix(1 0 0 1 -4.438974e-02 0)" overflow="visible"/>

		<use xlink:href="#New_Symbol"  width="148" height="37.3" x="-74" y="-18.6" transform="matrix(1 0 0 1 -0.1502 43.9509)" overflow="visible"/>

		<use xlink:href="#New_Symbol"  width="148" height="37.3" x="-74" y="-18.6" transform="matrix(0.9938 3.261574e-02 0 1 -0.6093 20.6763)" overflow="visible"/>

		<use xlink:href="#New_Symbol"  width="148" height="37.3" x="-74" y="-18.6" transform="matrix(0.9904 5.589047e-02 0 1 -0.8629 -2.4153)" overflow="visible"/>

		<use xlink:href="#New_Symbol"  width="148" height="37.3" x="-74" y="-18.6" transform="matrix(1.0021 7.996901e-02 0 1 3.156348e-03 -24.6969)" overflow="visible"/>
</symbol>
<symbol  id="New_Symbol_5" viewBox="-75.2 -10.6 150.3 21.2">
	<polygon fill="#675872" stroke="#453D4C" stroke-width="0.9721" stroke-miterlimit="10" points="-74.7,1.2 74.7,-10.1 74.7,-1.3
		-74.7,10.1 	"/>
</symbol>
<symbol  id="New_Symbol_6" viewBox="-3.1 -45.2 6.3 90.4">
	<polygon fill="#675872" stroke="#453D4C" stroke-width="0.9721" stroke-miterlimit="10" points="2.7,-44.7 2.7,44.2 -2.7,44.7
		-2.7,-44.3 	"/>
</symbol>
<symbol  id="New_Symbol_7" viewBox="-3.1 -45.1 6.3 90.3">
	<polygon fill="#675872" stroke="#453D4C" stroke-width="0.9721" stroke-miterlimit="10" points="2.7,-44.6 2.7,44.2 -2.7,44.6
		-2.7,-44.2 	"/>
</symbol>
<symbol  id="New_Symbol_8" viewBox="-71.1 -42.2 142.3 84.4">
	<polygon fill="#675872" stroke="#453D4C" stroke-width="0.9721" stroke-miterlimit="10" points="-0.5,-33.6 -67.7,41.3 -70.6,34
		-3.4,-40.8 	"/>
	<polygon fill="#675872" stroke="#453D4C" stroke-width="0.9721" stroke-miterlimit="10" points="0.6,-33.6 67.7,31 70.6,23.3
		3.5,-41.3 	"/>
</symbol>
<symbol  id="New_Symbol_9" viewBox="-75.2 -50.3 150.3 100.6">

		<use xlink:href="#New_Symbol_8"  width="142.3" height="84.4" x="-71.1" y="-42.2" transform="matrix(1 0 0 1 -0.2658 3.6167)" overflow="visible"/>
	<g>

			<use xlink:href="#New_Symbol_6"  width="6.3" height="90.4" x="-3.1" y="-45.2" transform="matrix(1 0 0 1 2.871 -0.53)" overflow="visible"/>

			<use xlink:href="#New_Symbol_6"  width="6.3" height="90.4" x="-3.1" y="-45.2" transform="matrix(1 0 0 1 -2.6042 -2.972626e-02)" overflow="visible"/>
	</g>
	<g>

			<use xlink:href="#New_Symbol_7"  width="6.3" height="90.3" x="-3.1" y="-45.1" transform="matrix(1 0 0 1 70.3136 -5.1667)" overflow="visible"/>

			<use xlink:href="#New_Symbol_7"  width="6.3" height="90.3" x="-3.1" y="-45.1" transform="matrix(1 0 0 1 -70.6864 5.1667)" overflow="visible"/>
	</g>
	<g>

			<use xlink:href="#New_Symbol_5"  width="150.3" height="21.2" x="-75.2" y="-10.6" transform="matrix(1 0 0 1 0 36.2106)" overflow="visible"/>

			<use xlink:href="#New_Symbol_5"  width="150.3" height="21.2" x="-75.2" y="-10.6" transform="matrix(1 0 0 1 0 15.2035)" overflow="visible"/>

			<use xlink:href="#New_Symbol_5"  width="150.3" height="21.2" x="-75.2" y="-10.6" transform="matrix(1 0 0 1 0 -5.1977)" overflow="visible"/>

			<use xlink:href="#New_Symbol_5"  width="150.3" height="21.2" x="-75.2" y="-10.6" transform="matrix(1 0 0 1 0 -25.9018)" overflow="visible"/>
		<polygon fill="#675872" stroke="#453D4C" stroke-width="0.9721" stroke-miterlimit="10" points="-74.7,-24.7 74.7,-36 74.7,-27.1
			-74.7,-15.8 		"/>
	</g>
</symbol>
<g>
	<defs>
		<rect id="SVGID_1_" width="500" height="500"/>
	</defs>
	<clipPath id="SVGID_2_">
		<use xlink:href="#SVGID_1_"  overflow="visible"/>
	</clipPath>
	<g clip-path="url(#SVGID_2_)">
		<rect x="-45.6" y="-163.1" fill="#C2E6EB" width="602" height="539.3"/>
		<g>
			<path fill="#569A44" d="M556,151.3c1.3,52.4,4.8,379.5,10.5,431.8c-200,56.3-420.3,74.8-633,53.2c2.5-62.5,9.5-399.6,20.8-461.6
				c70.9,4.2,142.2-4.2,211.9-14.5c71.5-10.5,142.8-23.1,215.7-26.3c58.8-2.6,119.5,1.3,174,16.5C556,150.6,556,151,556,151.3z"/>
			<g>
				<path fill="#368440" d="M555.3,151.3c0.4,15.3,0.6,30.6,0.8,45.9c0.4,25.4,0.8,50.8,1.2,76.3c0.5,30.4,1,60.8,1.5,91.2
					c0.6,30.6,1.2,61.3,1.9,91.9c0.6,25.7,1.3,51.4,2.2,77.1c0.6,15.9,1,32,2.6,47.8c0.1,1.5,0.1,1.1-1.6,1.5c-3,0.6-6,1.7-8.9,2.5
					c-6,1.6-11.9,3.2-17.9,4.8c-12,3.1-24.1,6.1-36.2,9c-24.3,5.7-48.8,10.9-73.4,15.5c-50.2,9.4-100.8,16.6-151.6,21.5
					c-50.7,4.9-101.6,7.6-152.5,8c-51.1,0.5-102.3-1.3-153.3-5.4c-12.3-1-24.5-2.1-36.8-3.3c0.2,0.2,0.5,0.5,0.7,0.7
					c0.6-16,1.1-32,1.5-48.1c0.7-25.3,1.4-50.6,2.2-75.9c0.9-30.4,1.8-60.9,2.9-91.3c1-31,2.2-62.1,3.5-93.1
					c1.2-27.4,2.5-54.9,4.2-82.3c1.2-19.6,2.5-39.3,4.8-58.8c0.4-3.2,0.8-6.3,1.3-9.5c0.1-0.4,0.1-1.5,0.3-1.9
					c0.5-0.6,6.7,0.3,8.2,0.4c6.4,0.3,12.9,0.5,19.3,0.6c26.2,0.4,52.3-0.7,78.4-2.8c51.8-4.2,103.1-12.3,154.5-20.1
					c51.6-7.8,103.4-15.4,155.6-18.4c50.1-2.9,100.8-1.5,150.2,7.9c5.9,1.1,11.7,2.3,17.6,3.7c2.8,0.6,5.6,1.3,8.4,2
					C548,148.9,555.3,150.1,555.3,151.3c0,0.9,1.4,0.9,1.4,0c0-0.3,0-0.7,0-1c0-0.3-0.2-0.6-0.5-0.7
					c-74.1-20.6-152.6-20.1-228.6-12.6C248,145,169.4,160.9,89.9,169.3c-45,4.8-90.3,7.2-135.6,4.6c-0.3,0-0.6,0.2-0.7,0.5
					c-3.8,20.9-4.8,42.4-6.1,63.5c-2.2,34-3.8,68.1-5.2,102.2c-1.6,38.6-2.9,77.2-4.1,115.7c-1.1,35.1-2.1,70.3-3.1,105.4
					c-0.7,23.4-1.3,46.7-2.1,70.1c-0.1,1.6-0.1,3.3-0.2,4.9c0,0.4,0.3,0.6,0.7,0.7c41.7,4.2,83.6,6.9,125.5,8.1
					c42,1.2,84.1,0.8,126-1c41.7-1.8,83.3-5.1,124.7-10c41-4.8,81.8-11,122.3-18.7c40.3-7.7,80.4-16.9,120-27.6
					c4.8-1.3,9.7-2.6,14.5-4c0.3-0.1,0.5-0.4,0.5-0.7c-2.1-19.3-2.4-38.8-3.1-58.2c-1.1-32-1.9-64-2.6-96
					c-0.8-36.7-1.5-73.4-2.1-110c-0.6-33.1-1.1-66.2-1.6-99.3c-0.3-21.3-0.6-42.6-1.1-63.9c0-1.4-0.1-2.9-0.1-4.3
					C556.7,150.4,555.3,150.4,555.3,151.3z"/>
			</g>
		</g>
		<g>

				<use xlink:href="#New_Symbol_9"  width="150.3" height="100.6" x="-75.2" y="-50.3" transform="matrix(1.9231 0 0 -1.9231 395.2265 222.228)" overflow="visible"/>

				<use xlink:href="#New_Symbol_9"  width="150.3" height="100.6" x="-75.2" y="-50.3" transform="matrix(-1.8378 0 0 -1.9231 113.8162 222.228)" overflow="visible"/>
		</g>
		<g>

				<use xlink:href="#New_Symbol_13"  width="98.5" height="78.6" x="-49.3" y="-39.3" transform="matrix(1.9231 0 0 -1.9231 290.4045 239.175)" overflow="visible"/>

				<use xlink:href="#New_Symbol_13"  width="98.5" height="78.6" x="-49.3" y="-39.3" transform="matrix(1.9231 0 0 -1.9231 209.6353 223.7904)" overflow="visible"/>

				<use xlink:href="#New_Symbol_13"  width="98.5" height="78.6" x="-49.3" y="-39.3" transform="matrix(2.0535 6.959615e-02 0 -2.0535 138.4664 266.962)" overflow="visible"/>

				<use xlink:href="#New_Symbol_13"  width="98.5" height="78.6" x="-49.3" y="-39.3" transform="matrix(-1.7189 0.1796 0 -1.9684 374.5672 262.3134)" overflow="visible"/>

				<use xlink:href="#New_Symbol_13"  width="98.5" height="78.6" x="-49.3" y="-39.3" transform="matrix(1.9231 0 0 -1.9231 248.7379 309.6879)" overflow="visible"/>
		</g>
		<g>

				<use xlink:href="#New_Symbol_4"  width="148.3" height="132.7" x="-74.2" y="-66.3" transform="matrix(1.9231 0 0 -1.9231 397.6815 273.2606)" overflow="visible"/>

				<use xlink:href="#New_Symbol_4"  width="148.3" height="132.7" x="-74.2" y="-66.3" transform="matrix(-1.9581 0 0 -1.9231 112.5703 273.2606)" overflow="visible"/>
		</g>
	</g>
</g>
</svg>
