<?xml version="1.0" encoding="utf-8"?>
<!-- Generator: Adobe Illustrator 18.1.1, SVG Export Plug-In . SVG Version: 6.00 Build 0)  -->
<svg version="1.1" id="Layer_1" xmlns="http://www.w3.org/2000/svg" xmlns:xlink="http://www.w3.org/1999/xlink" x="0px" y="0px"
	 viewBox="0 0 500 500" enable-background="new 0 0 500 500" xml:space="preserve">
<g>
	<g>
		<defs>
			<rect id="SVGID_1_" x="0" width="500" height="500"/>
		</defs>
		<clipPath id="SVGID_2_">
			<use xlink:href="#SVGID_1_"  overflow="visible"/>
		</clipPath>
		<rect x="0" clip-path="url(#SVGID_2_)" fill="#8BC53F" width="500" height="500"/>
		<g clip-path="url(#SVGID_2_)">
			<path fill="#FFFFFF" stroke="#726659" stroke-width="2.903" stroke-miterlimit="10" d="M148.8,378.2c0,0-11.6-24.8-5.8-26.2
				c5.8-1.5,17.5,20.4,17.5,20.4L148.8,378.2z"/>
			<path fill="#FFFFFF" stroke="#726659" stroke-width="2.903" stroke-miterlimit="10" d="M170.1,377c0,0-11.6-24.8-5.8-26.2
				c5.8-1.5,17.5,20.4,17.5,20.4L170.1,377z"/>
			<path fill="#F1EBDC" stroke="#9A847A" stroke-width="3.8707" stroke-miterlimit="10" d="M60,169.9c0,0-17.8-25.3,10.2-62.6
				c8.7-11.6,43.7,17.5,43.7,17.5s34.9,0,110.7,34.9c0,0,24.8-4.4,33.5-16c8.7-11.6,43.2-20.9,51-17.5c14.1,6.2,87.4,37.9,106.3,83
				c18.9,45.1,0,49.5,20.4,71.3c20.4,21.8,91.7,67,91.7,67l8.7,155.8l-171.8,8.7c0,0-37.9-93.2-99-136.9c0,0-17.5-10.2-33.5,2.9
				c-16,13.1-64.1,37.9-90.3,0c0,0,68.4-30.6,61.2-48.1c-7.3-17.5-27.7-39.3-53.9-39.3C122.6,290.8,41,244.2,60,169.9z"/>
			<path fill="#CB802B" d="M285.7,331.6C223,318.4,246.3,218,246.3,218c-45.1-30.6-33.8-55.5-33.8-55.5s6.3,3.2,15.8,4.7
				c25.1,4.2,51.6-38.2,88.8-28.4c30,7.9,110.1,42.6,92.3,125.5c-19.9,92.6,9.9,7.1,9.9,7.1L285.7,331.6z"/>
			<path fill="#2B1B13" d="M266.9,177c-1.8,6.7-1.4,12.6,0.9,13.2c2.3,0.6,5.7-4.2,7.5-10.9c1.8-6.7,1.4-12.6-0.9-13.2
				C272.1,165.4,268.8,170.3,266.9,177z"/>
			<path fill="#2B3C90" stroke="#282561" stroke-width="5.0184" stroke-miterlimit="10" d="M60.6,172.1c0,0,10.9-29.8,43.5-35.1
				c0,0,0-6.5,11.3-12.3c0,0-33.1-26.1-41.4-20.1C65.8,110.6,43.5,145.9,60.6,172.1z"/>
			<path fill="#CB802B" d="M406.7,336.1c0,0-45.8,161,113.6,149.9s28.4,0,28.4,0l-17.4-129.4c0,0-39.5-31.6-48.9-31.6
				s-34.7,30-47.3,14.2c-12.6-15.8,12.6-31.6,6.3-41c-6.3-9.5-28.4-30-28.4-30L406.7,336.1z"/>
			<path fill="#B36A28" stroke="#8B5F38" stroke-width="3.8707" stroke-miterlimit="10" d="M343.9,197.6c0,0-14.6-10.2-29.1,13.1
				c-14.6,23.3-50.6,221.3-16,249C327.9,483,426.1,353,424,305.3c-1.5-33.5-11.6-74.3-52.4-87.4"/>
			<path fill="#BE202E" stroke="#881827" stroke-width="4.1998" stroke-miterlimit="10" d="M332.3,459.7c0,0,123.8-77.2,163.1-135.4
				c0,0,10.2-2.9,13.1,5.8c0,0-8.7,46.6-168.9,141.2C339.5,471.3,329.3,469.9,332.3,459.7z"/>

				<ellipse fill="#FDD915" stroke="#8A5F3D" stroke-width="3.6783" stroke-miterlimit="10" cx="336.6" cy="496.1" rx="10.2" ry="26.2"/>
			<ellipse fill="none" stroke="#8A5F3D" stroke-width="2.8708" stroke-miterlimit="10" cx="332.5" cy="500" rx="6.2" ry="26.2"/>
			<ellipse fill="#A0673D" cx="70" cy="200.1" rx="3.2" ry="5.2"/>
			<ellipse fill="#A0673D" cx="83.1" cy="209.4" rx="3.7" ry="6"/>
			<ellipse fill="#A0673D" cx="94.7" cy="218.9" rx="3.7" ry="6"/>
			<ellipse fill="#A0673D" cx="73.2" cy="215.4" rx="3.7" ry="6"/>
			<ellipse fill="#A0673D" cx="83.2" cy="228.8" rx="3.7" ry="6"/>
			<ellipse fill="#A0673D" cx="97.4" cy="232.8" rx="3" ry="4.8"/>
			<path fill="#603B17" d="M285.8,428.2c0,0,46.8,20.7,120.1-68.1c0,0-56.8,103.6-98.2,103.6C288.1,463.7,285.8,428.2,285.8,428.2z"
				/>
			<path fill="#282561" stroke="#282561" stroke-width="3.8707" stroke-miterlimit="10" d="M65.1,139.6c0,0-4.9-14.2,4.6-18.9
				c5.3-2.6,2.8,12.9,1.9,15.8C70.7,139.3,65.1,139.6,65.1,139.6z"/>
			<path fill="none" stroke="#282561" stroke-width="3.7275" stroke-miterlimit="10" d="M98.9,137.2c0,0-28.4,13.4-33.8,2.4"/>
			<g>
				<path fill="#8B5F38" d="M268,152.9c0,0,0.1-0.1,0.4-0.2c0.1-0.1,0.3-0.1,0.5-0.2c0.2-0.1,0.4-0.1,0.7-0.2
					c0.3-0.1,0.6-0.1,0.9-0.1c0.3,0,0.7,0,1.1,0.1c0.4,0.1,0.8,0.1,1.2,0.3c0.4,0.2,0.9,0.3,1.3,0.6c0.4,0.3,0.9,0.5,1.3,0.9
					c0.4,0.4,0.8,0.7,1.2,1.1c0.4,0.4,0.7,0.9,1,1.3c0.2,0.2,0.3,0.5,0.5,0.7c0.1,0.2,0.3,0.5,0.4,0.7c0.3,0.5,0.6,1,0.8,1.6
					c0.3,0.5,0.4,1.1,0.7,1.6c0.2,0.6,0.4,1.1,0.6,1.7l0.5,1.7c0.3,1.1,0.7,2.3,1,3.4c0.3,1.1,0.6,2.2,0.7,3.3c0,1.1,0,2.1-0.2,3.1
					c-0.2,1-0.3,1.9-0.6,2.8c-0.3,0.8-0.6,1.6-0.9,2.3c-0.3,0.7-0.6,1.3-0.9,1.7c-0.3,0.5-0.5,0.8-0.7,1.1c-0.2,0.3-0.3,0.4-0.3,0.4
					l-0.8,0c0,0-0.1-0.1-0.3-0.4c-0.2-0.3-0.4-0.6-0.7-1.1c-0.3-0.5-0.6-1.1-0.8-1.7c-0.3-0.7-0.6-1.4-0.8-2.2
					c-0.2-0.8-0.5-1.7-0.7-2.6c-0.2-0.9-0.3-1.8-0.4-2.8c-0.1-1,0-2,0.1-3c0.1-1.1,0.1-2.1,0.1-3.1L275,164c-0.1-0.5-0.1-1-0.2-1.5
					c-0.1-0.5-0.1-1-0.2-1.5c-0.1-0.5-0.2-0.9-0.3-1.4c0-0.2-0.1-0.5-0.1-0.7c-0.1-0.2-0.1-0.4-0.2-0.6c-0.1-0.4-0.3-0.8-0.4-1.2
					c-0.2-0.4-0.4-0.7-0.5-1c-0.2-0.3-0.4-0.6-0.6-0.8c-0.2-0.3-0.5-0.4-0.7-0.7c-0.2-0.2-0.5-0.3-0.7-0.5c-0.2-0.2-0.5-0.2-0.7-0.3
					c-0.2-0.1-0.5-0.1-0.7-0.2c-0.4-0.1-0.8-0.1-1-0.1c-0.2,0-0.4,0-0.4,0L268,152.9z"/>
			</g>
		</g>
	</g>
	<g>
		<path fill="#231F20" d="M110.2,355.4c0,0-2.5,3-6.3,7.4c-1.9,2.2-4.1,4.8-6.6,7.5c-2.4,2.7-5,5.6-7.6,8.5
			c-1.3,1.4-2.6,2.9-3.8,4.4c-1.2,1.5-2.5,2.9-3.8,4.2c-2.6,2.6-5.2,4.8-7.5,6.6c-1.2,0.9-2.3,1.7-3.3,2.4c-1,0.7-1.9,1.3-2.6,1.7
			c-1.5,0.9-2.4,1.4-2.4,1.4l-0.4-0.4c0,0,0.4-0.9,1.4-2.4c0.5-0.8,1-1.6,1.7-2.6c0.7-1,1.5-2.1,2.4-3.3c1.8-2.3,4-5,6.6-7.5
			c1.3-1.3,2.7-2.5,4.2-3.8c1.5-1.2,2.9-2.5,4.4-3.8c2.9-2.6,5.8-5.2,8.5-7.6c2.7-2.4,5.3-4.7,7.5-6.6c4.4-3.8,7.4-6.3,7.4-6.3
			L110.2,355.4z"/>
	</g>
	<g>
		<path fill="#231F20" d="M92.8,330.4c0,0-3.7,1.2-9.3,2.8c-2.8,0.8-6.1,1.8-9.6,2.8c-3.5,1-7.3,2-11,3c-1.9,0.5-3.7,1.1-5.6,1.6
			c-1.8,0.6-3.6,1.1-5.4,1.5c-3.6,0.8-7,1.2-9.9,1.5c-1.5,0.1-2.8,0.2-4,0.2c-1.2,0-2.3,0-3.1,0c-1.8,0-2.8-0.2-2.8-0.2l-0.1-0.6
			c0,0,0.9-0.5,2.4-1.3c0.8-0.4,1.7-0.8,2.9-1.3c1.1-0.5,2.4-1,3.8-1.5c2.8-1,6-2,9.6-2.8c1.8-0.4,3.7-0.7,5.6-0.9
			c1.9-0.3,3.8-0.5,5.8-0.9c3.8-0.6,7.7-1.3,11.3-1.8c3.6-0.6,7-1.1,9.9-1.5c5.8-0.9,9.7-1.4,9.7-1.4L92.8,330.4z"/>
	</g>
	<g>
		<path fill="#231F20" d="M91.4,299.7c0,0-3.8-1-9.4-2.7c-2.8-0.8-6.1-1.8-9.6-2.8c-3.5-1-7.2-2.2-10.9-3.4
			c-1.9-0.6-3.7-1.1-5.6-1.6c-1.9-0.5-3.7-1.1-5.4-1.7c-3.4-1.3-6.5-2.7-9.1-4.1c-1.3-0.7-2.5-1.3-3.5-2c-1-0.6-1.9-1.2-2.6-1.7
			c-1.5-1-2.2-1.6-2.2-1.6l0.2-0.5c0,0,1,0,2.8,0.2c0.9,0.1,1.9,0.2,3.1,0.4c1.2,0.2,2.5,0.5,4,0.8c2.9,0.7,6.2,1.5,9.6,2.8
			c1.7,0.7,3.4,1.4,5.2,2.2c1.7,0.8,3.5,1.6,5.3,2.4c3.6,1.5,7.2,3,10.5,4.5c3.3,1.5,6.4,2.9,9.1,4.1c5.3,2.4,8.9,4.1,8.9,4.1
			L91.4,299.7z"/>
	</g>
</g>
</svg>
