<?xml version="1.0" encoding="utf-8"?>
<!-- Generator: Adobe Illustrator 18.1.1, SVG Export Plug-In . SVG Version: 6.00 Build 0)  -->
<svg version="1.1" id="Layer_1" xmlns="http://www.w3.org/2000/svg" xmlns:xlink="http://www.w3.org/1999/xlink" x="0px" y="0px"
	 viewBox="0 0 500 500" enable-background="new 0 0 500 500" xml:space="preserve">
<g>
	<defs>
		<rect id="SVGID_1_" y="0" width="500" height="500"/>
	</defs>
	<clipPath id="SVGID_2_">
		<use xlink:href="#SVGID_1_"  overflow="visible"/>
	</clipPath>
	<g clip-path="url(#SVGID_2_)">
		<rect x="-109.9" y="-6.3" fill="#B7E0EA" width="730.8" height="512.6"/>
		<circle fill="#FFFFFF" stroke="#82A5B6" stroke-width="2.9183" stroke-miterlimit="10" cx="438.6" cy="307.5" r="10.1"/>
		<circle fill="#FFFFFF" stroke="#82A5B6" stroke-width="2.9183" stroke-miterlimit="10" cx="515.8" cy="424.2" r="16.4"/>
		<g>
			<path fill="#231F20" d="M54.6,416c0,0,0-0.5,0-1.5c0-1-0.1-2.4-0.1-4.3c0-0.9,0-1.9,0-3.1c0-1.1,0.1-2.3,0.2-3.6
				c0.1-1.3,0.1-2.7,0.2-4.1c0.1-1.5,0.3-3,0.5-4.6c0.2-1.6,0.3-3.3,0.6-5c0.3-1.7,0.6-3.5,0.9-5.3c0.2-0.9,0.3-1.8,0.5-2.7
				c0.2-0.9,0.4-1.8,0.6-2.8c0.4-1.9,0.9-3.8,1.4-5.7c1.1-3.8,2.1-7.9,3.6-11.8c1.3-4,3-7.9,4.6-11.9c1.9-3.9,3.6-7.8,5.7-11.4
				c1.9-3.8,4.2-7.2,6.3-10.6c1.1-1.7,2.2-3.3,3.3-4.9c0.6-0.8,1.1-1.6,1.6-2.3c0.6-0.8,1.1-1.5,1.7-2.2c1.1-1.4,2.2-2.9,3.3-4.2
				c1.1-1.3,2.2-2.6,3.3-3.8c1.1-1.2,2-2.4,3-3.4c1-1,2-2,2.9-2.9c0.9-0.9,1.8-1.8,2.6-2.6c0.8-0.8,1.6-1.4,2.3-2.1
				c1.4-1.3,2.5-2.2,3.2-2.8c0.8-0.6,1.2-1,1.2-1l0.2,0.2c0,0-1.5,1.5-4,4.2c-0.6,0.7-1.4,1.4-2.1,2.2c-0.7,0.8-1.5,1.7-2.4,2.7
				c-0.8,1-1.7,2-2.7,3.1c-0.9,1.1-1.8,2.3-2.8,3.5c-1,1.2-2,2.5-3,3.9c-1,1.4-2,2.8-3.1,4.3c-0.5,0.7-1.1,1.5-1.6,2.2
				c-0.5,0.8-1,1.6-1.5,2.4c-1,1.6-2.1,3.2-3.1,4.9c-2,3.4-4.1,6.9-6,10.6c-2,3.6-3.7,7.5-5.5,11.3c-1.6,3.9-3.3,7.7-4.6,11.7
				c-1.5,3.9-2.6,7.8-3.8,11.6c-0.5,1.9-1,3.8-1.5,5.6c-0.2,0.9-0.5,1.8-0.7,2.7c-0.2,0.9-0.4,1.8-0.6,2.7c-0.4,1.8-0.7,3.5-1.1,5.2
				c-0.3,1.7-0.5,3.3-0.8,4.9c-0.2,1.6-0.5,3.1-0.7,4.5c-0.2,1.4-0.3,2.8-0.5,4.1c-0.1,1.3-0.3,2.5-0.4,3.6c-0.1,1.1-0.1,2.1-0.2,3
				c-0.2,3.7-0.4,5.8-0.4,5.8L54.6,416z"/>
		</g>
		<g>
			<path fill="#231F20" d="M34.8,369.7c0,0,0-0.3,0.1-0.8c0.1-0.5,0.1-1.3,0.2-2.3c0.1-1,0.3-2.2,0.5-3.5c0.1-0.7,0.2-1.4,0.4-2.2
				c0.1-0.8,0.4-1.5,0.5-2.4c0.2-0.8,0.4-1.7,0.6-2.6c0.2-0.9,0.5-1.8,0.8-2.7c0.5-1.9,1.2-3.8,1.9-5.8c0.8-2,1.5-4,2.5-6.1
				c0.9-2,1.9-4.1,3-6.1c1.1-2,2.2-4,3.4-5.8c1.1-1.9,2.5-3.7,3.6-5.4c1.2-1.7,2.5-3.4,3.7-4.8c0.6-0.7,1.2-1.5,1.8-2.2
				c0.6-0.7,1.2-1.3,1.8-1.9c0.6-0.6,1.1-1.2,1.7-1.8c0.6-0.5,1.1-1,1.6-1.5c1-1,1.9-1.8,2.6-2.4c0.7-0.7,1.4-1.1,1.8-1.5
				c0.4-0.3,0.6-0.5,0.6-0.5l0.2,0.2c0,0-0.7,0.8-2,2.3c-0.7,0.7-1.4,1.6-2.3,2.7c-0.9,1-1.8,2.2-2.8,3.6c-1,1.3-2.1,2.8-3.2,4.3
				c-1.1,1.5-2.2,3.2-3.4,5c-1.1,1.8-2.3,3.6-3.4,5.5c-1.1,1.9-2.2,3.8-3.2,5.8c-1,2-2.1,3.9-3,5.9c-1,2-1.8,3.9-2.7,5.8
				c-0.8,1.9-1.6,3.8-2.2,5.6c-0.7,1.8-1.3,3.5-1.8,5.1c-0.5,1.6-1,3-1.4,4.3c-0.4,1.3-0.7,2.4-1,3.4c-0.5,1.9-0.8,3-0.8,3
				L34.8,369.7z"/>
		</g>
		<g>
			<path fill="#231F20" d="M144.9,257.7c0,0-0.4-0.4-1-1.3c-0.7-0.8-1.7-2-2.9-3.6c-0.6-0.8-1.3-1.6-2-2.6c-0.7-1-1.4-2-2.2-3.2
				c-0.8-1.1-1.6-2.4-2.5-3.6c-0.8-1.3-1.6-2.7-2.5-4.2c-0.8-1.5-1.8-3-2.6-4.6c-0.8-1.6-1.7-3.3-2.5-5.1c-0.4-0.9-0.9-1.8-1.3-2.7
				c-0.4-0.9-0.8-1.9-1.2-2.8c-0.8-1.9-1.6-3.8-2.4-5.8c-1.4-4-3-8.1-4-12.5c-1.3-4.3-2.1-8.8-3.1-13.2c-0.6-4.5-1.4-9-1.7-13.5
				c-0.5-4.5-0.5-8.9-0.6-13.1c0-2.1,0.1-4.2,0.2-6.3c0-1,0.1-2,0.1-3c0.1-1,0.2-2,0.3-3c0.2-1.9,0.4-3.8,0.6-5.6
				c0.2-1.8,0.6-3.6,0.9-5.2c0.3-1.7,0.5-3.3,0.9-4.8c0.4-1.5,0.7-2.9,1.1-4.3c0.3-1.3,0.7-2.6,0.9-3.7c0.3-1.1,0.7-2.2,1-3.1
				c0.6-1.9,1.1-3.3,1.4-4.3c0.3-1,0.5-1.5,0.5-1.5l0.3,0.1c0,0-0.5,2.2-1.5,6c-0.2,1-0.5,2-0.8,3.2c-0.2,1.2-0.4,2.4-0.7,3.8
				c-0.2,1.3-0.5,2.8-0.8,4.3c-0.2,1.5-0.4,3.1-0.6,4.8c-0.2,1.7-0.5,3.4-0.6,5.2c-0.1,1.8-0.3,3.7-0.4,5.6c-0.1,1-0.2,1.9-0.2,2.9
				c0,1,0,2,0,3c0,2-0.1,4.1,0,6.2c0.2,4.2,0.3,8.5,0.8,12.9c0.3,4.4,1.1,8.8,1.8,13.2c0.9,4.4,1.7,8.8,2.9,13
				c1,4.3,2.5,8.4,3.7,12.4c0.7,2,1.5,3.9,2.2,5.8c0.4,0.9,0.7,1.9,1.1,2.8c0.4,0.9,0.8,1.8,1.2,2.7c0.8,1.8,1.6,3.5,2.3,5.1
				c0.8,1.6,1.6,3.2,2.4,4.7c0.8,1.5,1.5,2.9,2.2,4.3c0.8,1.3,1.5,2.6,2.2,3.7c0.7,1.2,1.4,2.3,2,3.3c0.6,1,1.3,1.9,1.8,2.7
				c2.2,3.2,3.5,5.1,3.5,5.1L144.9,257.7z"/>
		</g>
		<g>
			<path fill="#231F20" d="M113.8,241c0,0-0.2-0.2-0.5-0.7c-0.4-0.4-0.9-1-1.5-1.9c-0.7-0.8-1.4-1.8-2.2-3c-0.4-0.6-0.9-1.2-1.3-1.9
				c-0.5-0.7-0.9-1.4-1.4-2.2c-0.5-0.8-1-1.5-1.5-2.4c-0.5-0.8-0.9-1.7-1.4-2.6c-1-1.8-1.9-3.7-2.9-5.8c-0.9-2.1-1.9-4.2-2.6-6.4
				c-0.8-2.2-1.5-4.5-2.3-6.7c-0.6-2.3-1.2-4.6-1.7-6.9c-0.6-2.3-0.9-4.6-1.2-6.8c-0.3-2.2-0.6-4.4-0.7-6.4c-0.1-1-0.2-2-0.2-3
				c0-1,0-1.9-0.1-2.8c0-0.9,0-1.7,0-2.6c0-0.8,0.1-1.6,0.1-2.3c0-1.4,0.1-2.7,0.3-3.7c0.1-1,0.2-1.8,0.3-2.4
				c0.1-0.6,0.1-0.8,0.1-0.8l0.3,0c0,0,0,1.2,0.1,3.2c0,1,0.1,2.3,0.2,3.7c0,0.7,0.1,1.5,0.2,2.3c0.1,0.8,0.2,1.6,0.3,2.5
				c0.2,1.7,0.4,3.6,0.7,5.6c0.3,2,0.7,4.1,1,6.2c0.5,2.1,0.9,4.4,1.5,6.6c0.5,2.2,1.2,4.5,1.8,6.7c0.7,2.2,1.3,4.5,2.1,6.6
				c0.7,2.2,1.6,4.3,2.3,6.3c0.9,2,1.6,4,2.5,5.8c0.8,1.8,1.6,3.6,2.4,5.1c0.4,0.8,0.8,1.5,1.1,2.2c0.4,0.7,0.7,1.4,1.1,2
				c0.7,1.3,1.3,2.3,1.8,3.2c1,1.8,1.6,2.8,1.6,2.8L113.8,241z"/>
		</g>
		<g>
			<path fill="#231F20" d="M434,125.5c0,0,0.1,0.5,0.4,1.4c0.3,0.9,0.7,2.2,1.1,3.9c0.2,0.9,0.5,1.8,0.7,2.8c0.2,1,0.4,2.2,0.7,3.4
				c0.2,1.2,0.5,2.5,0.8,3.9c0.2,1.4,0.4,2.8,0.6,4.3c0.2,1.5,0.4,3.1,0.5,4.7c0.1,1.6,0.2,3.3,0.2,5.1c0,0.9,0.1,1.8,0.1,2.7
				c0,0.9,0,1.8,0,2.7c0,1.8-0.1,3.7-0.2,5.6c-0.4,3.8-0.6,7.8-1.3,11.7c-0.5,4-1.6,7.9-2.4,11.9c-1.2,3.9-2.2,7.9-3.7,11.6
				c-1.3,3.8-3,7.4-4.6,10.9c-0.8,1.7-1.7,3.4-2.6,5c-0.4,0.8-0.9,1.6-1.3,2.4c-0.4,0.8-0.9,1.5-1.4,2.3c-0.9,1.5-1.8,2.9-2.7,4.3
				c-0.9,1.4-1.9,2.6-2.8,3.9c-0.9,1.2-1.7,2.4-2.6,3.5c-0.9,1.1-1.8,2-2.6,3c-0.8,0.9-1.6,1.8-2.3,2.6c-0.7,0.8-1.4,1.5-2,2.1
				c-1.2,1.3-2.2,2.2-2.9,2.9c-0.7,0.7-1,1-1,1l-0.2-0.2c0,0,1.3-1.5,3.6-4.2c0.6-0.7,1.2-1.4,1.9-2.2c0.6-0.8,1.3-1.8,2-2.7
				c0.7-1,1.5-2,2.3-3.1c0.8-1.1,1.5-2.3,2.4-3.6c0.8-1.3,1.7-2.5,2.5-3.9c0.8-1.4,1.6-2.9,2.5-4.4c0.4-0.8,0.9-1.5,1.3-2.3
				c0.4-0.8,0.8-1.6,1.2-2.4c0.8-1.6,1.6-3.3,2.4-5c1.4-3.5,3-7,4.3-10.7c1.4-3.7,2.4-7.6,3.5-11.4c0.9-3.9,1.9-7.8,2.5-11.7
				c0.8-3.9,1.1-7.7,1.5-11.5c0.2-1.9,0.2-3.7,0.3-5.5c0-0.9,0.1-1.8,0.1-2.7c0-0.9,0-1.8,0-2.6c0-1.7,0-3.4,0-5
				c0-1.6-0.2-3.2-0.3-4.7c-0.1-1.5-0.2-2.9-0.3-4.3c-0.2-1.4-0.3-2.6-0.5-3.8c-0.2-1.2-0.3-2.3-0.4-3.4c-0.2-1-0.4-2-0.5-2.9
				c-0.7-3.4-1.1-5.4-1.1-5.4L434,125.5z"/>
		</g>
		<g>
			<path fill="#231F20" d="M434.9,224c0,0,0.1-0.2,0.3-0.6c0.2-0.4,0.4-1,0.8-1.8c0.7-1.5,1.7-3.7,3-6.3c0.6-1.3,1.2-2.7,1.9-4.2
				c0.4-0.7,0.7-1.5,1-2.3c0.3-0.8,0.7-1.6,1.1-2.4c0.7-1.6,1.4-3.3,2.1-5c0.7-1.7,1.4-3.5,2.1-5.2c0.7-1.8,1.4-3.5,1.9-5.2
				c0.6-1.7,1.2-3.5,1.8-5.1c0.5-1.7,1.1-3.3,1.5-4.8c0.5-1.6,0.9-3,1.3-4.4c0.8-2.8,1.5-5,1.9-6.7c0.2-0.8,0.4-1.4,0.6-1.9
				c0.1-0.4,0.2-0.7,0.2-0.7l0.3,0c0,0-0.1,1-0.3,2.6c-0.1,0.8-0.2,1.8-0.4,3c-0.2,1.2-0.4,2.5-0.6,3.9c-0.2,1.4-0.6,2.9-0.9,4.6
				c-0.3,1.6-0.8,3.3-1.2,5c-0.5,1.7-1,3.5-1.6,5.3c-0.5,1.8-1.2,3.6-1.9,5.4c-0.7,1.8-1.4,3.6-2.2,5.3c-0.7,1.7-1.6,3.4-2.4,5
				c-0.8,1.6-1.6,3.1-2.4,4.6c-0.8,1.4-1.6,2.8-2.4,4c-0.7,1.2-1.5,2.3-2.1,3.3c-0.6,1-1.2,1.8-1.7,2.5c-1,1.4-1.5,2.1-1.5,2.1
				L434.9,224z"/>
		</g>
		<g>
			<path fill="#231F20" d="M422.3,281.7c0,0,0.4,0.4,1,1.2c0.7,0.8,1.7,1.9,2.9,3.5c0.6,0.8,1.3,1.6,2,2.5c0.7,0.9,1.5,2,2.3,3.1
				c0.8,1.1,1.7,2.3,2.6,3.5c0.9,1.2,1.8,2.6,2.7,4c0.9,1.4,1.9,2.8,2.9,4.4c0.9,1.6,1.9,3.2,2.9,4.8c0.5,0.8,1,1.7,1.5,2.5
				c0.5,0.9,1,1.7,1.4,2.6c1,1.8,2,3.6,2.9,5.5c1.8,3.8,3.8,7.7,5.5,11.8c1.8,4.1,3.3,8.3,4.9,12.5c1.4,4.3,2.8,8.6,4,12.8
				c1.3,4.2,2.1,8.5,3.1,12.6c0.4,2.1,0.8,4.1,1.1,6.1c0.2,1,0.3,2,0.5,3c0.2,1,0.3,2,0.4,2.9c0.3,1.9,0.5,3.8,0.7,5.6
				c0.2,1.8,0.3,3.6,0.5,5.2c0.1,1.7,0.3,3.3,0.4,4.8c0,1.5,0.1,3,0.1,4.4c0,1.4,0.1,2.6,0.1,3.8c0,1.2,0,2.3,0,3.2
				c0,2-0.1,3.5-0.1,4.5c0,1-0.1,1.6-0.1,1.6l-0.3,0c0,0-0.1-2.2-0.3-6.1c-0.1-1-0.1-2.1-0.2-3.2c-0.1-1.2-0.2-2.4-0.3-3.8
				c-0.1-1.4-0.3-2.8-0.4-4.3c-0.2-1.5-0.4-3.1-0.6-4.8c-0.2-1.7-0.4-3.4-0.7-5.2c-0.3-1.8-0.6-3.6-0.9-5.5
				c-0.2-0.9-0.3-1.9-0.5-2.9c-0.2-1-0.4-1.9-0.6-2.9c-0.4-2-0.8-4-1.3-6c-1-4-2-8.2-3.3-12.4c-1.1-4.2-2.6-8.4-4-12.7
				c-1.6-4.2-3-8.4-4.8-12.4c-1.6-4.1-3.5-8-5.2-11.8c-0.9-1.9-1.9-3.7-2.8-5.5c-0.5-0.9-0.9-1.8-1.3-2.7c-0.5-0.9-0.9-1.7-1.4-2.5
				c-0.9-1.7-1.8-3.3-2.7-4.9c-0.9-1.6-1.8-3-2.7-4.5c-0.9-1.4-1.7-2.8-2.5-4.1c-0.8-1.3-1.6-2.5-2.4-3.6c-0.7-1.1-1.4-2.2-2.1-3.2
				c-0.7-1-1.3-1.8-1.9-2.6c-2.3-3.2-3.6-5-3.6-5L422.3,281.7z"/>
		</g>
		<g>
			<path fill="#231F20" d="M463.1,305.7c0,0,0.2,0.2,0.6,0.6c0.4,0.4,1,0.9,1.7,1.6c0.7,0.7,1.6,1.6,2.5,2.7c0.5,0.5,1,1.1,1.5,1.7
				c0.5,0.6,1,1.3,1.5,2c0.5,0.7,1.1,1.4,1.7,2.1c0.5,0.8,1.1,1.6,1.7,2.4c1.1,1.6,2.3,3.4,3.4,5.3c1.1,1.9,2.3,3.8,3.2,5.9
				c1,2,2,4.1,3,6.3c0.8,2.2,1.7,4.3,2.5,6.5c0.8,2.1,1.4,4.3,2,6.4c0.6,2.1,1.1,4.1,1.5,6.1c0.2,1,0.4,1.9,0.6,2.8
				c0.2,0.9,0.3,1.8,0.4,2.7c0.1,0.9,0.3,1.7,0.4,2.5c0.1,0.8,0.1,1.5,0.2,2.2c0.1,1.4,0.2,2.6,0.2,3.6c0,1,0,1.8,0,2.3
				c0,0.5,0,0.8,0,0.8l-0.3,0c0,0-0.2-1.1-0.5-3.1c-0.2-1-0.4-2.2-0.7-3.5c-0.3-1.4-0.6-2.9-1-4.5c-0.4-1.7-0.9-3.4-1.4-5.3
				c-0.5-1.9-1.2-3.8-1.8-5.9c-0.7-2-1.4-4.1-2.2-6.2c-0.8-2.1-1.7-4.2-2.5-6.3c-0.9-2.1-1.8-4.2-2.8-6.2c-0.9-2-2-4-3-5.9
				c-1-1.9-2-3.7-3-5.4c-1-1.7-2-3.3-2.9-4.7c-0.9-1.4-1.8-2.7-2.6-3.9c-0.8-1.1-1.5-2.1-2.1-2.9c-1.2-1.6-1.9-2.5-1.9-2.5
				L463.1,305.7z"/>
		</g>
		<circle fill="#FFFFFF" stroke="#82A5B6" stroke-width="2.9183" stroke-miterlimit="10" cx="65.5" cy="465.6" r="19.2"/>
		<circle fill="#FFFFFF" stroke="#82A5B6" stroke-width="2.9183" stroke-miterlimit="10" cx="48.7" cy="184.4" r="21.5"/>
		<circle fill="#FFFFFF" stroke="#82A5B6" stroke-width="2.9183" stroke-miterlimit="10" cx="-13.2" cy="96.3" r="17.1"/>
		<circle fill="#FFFFFF" stroke="#82A5B6" stroke-width="2.9183" stroke-miterlimit="10" cx="160.3" cy="240.9" r="16.4"/>
		<circle fill="#FFFFFF" stroke="#82A5B6" stroke-width="2.9183" stroke-miterlimit="10" cx="445.4" cy="73.2" r="16.4"/>
		<circle fill="#FFFFFF" stroke="#82A5B6" stroke-width="2.9183" stroke-miterlimit="10" cx="507.8" cy="13.8" r="20.1"/>
		<circle fill="#FFFFFF" stroke="#82A5B6" stroke-width="2.9183" stroke-miterlimit="10" cx="505.8" cy="230.7" r="14.7"/>
		<circle fill="#FFFFFF" stroke="#82A5B6" stroke-width="2.9183" stroke-miterlimit="10" cx="174.6" cy="-7.2" r="14.7"/>
		<circle fill="#FFFFFF" stroke="#82A5B6" stroke-width="2.9183" stroke-miterlimit="10" cx="127.4" cy="284.7" r="9.9"/>
		<circle fill="#FFFFFF" stroke="#82A5B6" stroke-width="2.9183" stroke-miterlimit="10" cx="487.7" cy="126.5" r="9.9"/>
		<circle fill="#FFFFFF" stroke="#82A5B6" stroke-width="2.9183" stroke-miterlimit="10" cx="37.9" cy="307.5" r="16.2"/>
		<circle fill="none" stroke="#E0F1F3" stroke-width="5.8367" stroke-miterlimit="10" cx="520.5" cy="284.7" r="46.7"/>
		<ellipse fill="none" stroke="#231F20" stroke-width="1.3611" stroke-miterlimit="10" cx="499.7" cy="198.9" rx="0" ry="0.5"/>
		<circle fill="none" stroke="#E0F1F3" stroke-width="5.8367" stroke-miterlimit="10" cx="86" cy="73.3" r="54.3"/>
		<circle fill="none" stroke="#E0F1F3" stroke-width="5.8367" stroke-miterlimit="10" cx="29.5" cy="351.9" r="35"/>
		<g>
			<g>
				<path fill="#E0F1F3" d="M464.7,249.5c26.8,21.6,54.7,41.8,83.7,60.2c8.3,5.3,16.7,10.4,25.1,15.4c3.2,1.9,6.2-3.1,2.9-5
					c-29.3-17.3-57.6-36.2-84.7-56.7c-7.8-5.9-15.4-11.9-23-18C465.9,243,461.7,247.1,464.7,249.5L464.7,249.5z"/>
			</g>
		</g>
		<g>
			<g>
				<path fill="#E0F1F3" d="M471.4,333.6c32.9-27.1,65.9-54.2,98.8-81.3c2.9-2.4-1.2-6.5-4.1-4.1c-32.9,27.1-65.9,54.2-98.8,81.3
					C464.3,331.9,468.5,336,471.4,333.6L471.4,333.6z"/>
			</g>
		</g>
		<g>
			<g>
				<path fill="#E0F1F3" d="M463.5,294.6c29.9-1.6,59.8-3.9,89.7-5.8c9.3-0.6,18.7-1.1,28-1.7c3.7-0.2,3.8-6,0-5.8
					c-29.9,1.6-59.8,3.9-89.7,5.8c-9.3,0.6-18.7,1.1-28,1.7C459.7,288.9,459.7,294.8,463.5,294.6L463.5,294.6z"/>
			</g>
		</g>
		<g>
			<g>
				<path fill="#E0F1F3" d="M34.4,397.8c-1.1-31-2.3-62.1-3.4-93.1c-0.1-3.7-6-3.8-5.8,0c1.1,31,2.3,62.1,3.4,93.1
					C28.7,401.5,34.5,401.5,34.4,397.8L34.4,397.8z"/>
			</g>
		</g>
		<g>
			<g>
				<path fill="#E0F1F3" d="M-7,317c26.5,24.2,52.9,48.4,79.4,72.7c2.8,2.5,6.9-1.6,4.1-4.1c-26.5-24.2-52.9-48.4-79.4-72.7
					C-5.6,310.3-9.7,314.4-7,317L-7,317z"/>
			</g>
		</g>
		<g>
			<g>
				<path fill="#E0F1F3" d="M-1.8,391.3C19,365.2,39.9,339.1,60.8,313c2.3-2.9-1.8-7.1-4.1-4.1C35.8,334.9,14.9,361-6,387.1
					C-8.3,390-4.2,394.2-1.8,391.3L-1.8,391.3z"/>
			</g>
		</g>
		<g>
			<g>
				<path fill="#E0F1F3" d="M-21.2,354.6c34.7-2.9,69.3-6.5,104-9.4c3.7-0.3,3.7-6.2,0-5.8c-34.7,2.9-69.3,6.5-104,9.4
					C-24.9,349.1-24.9,354.9-21.2,354.6L-21.2,354.6z"/>
			</g>
		</g>
		<g>
			<g>
				<path fill="#E0F1F3" d="M64.5,147.5c-0.4,1.2-0.8,2.3-1.2,3.5c1.9,0.5,3.8,1,5.6,1.6c12-37.5,25-74.7,38.8-111.5
					c3.9-10.4,7.8-20.7,11.9-31c1.4-3.5-4.3-5-5.6-1.6c-14.3,36.7-27.8,73.7-40.3,111c-3.5,10.5-7,21-10.3,31.5
					c-1.2,3.6,4.4,5.1,5.6,1.6c0.4-1.2,0.8-2.3,1.2-3.5C71.3,145.5,65.7,144,64.5,147.5L64.5,147.5z"/>
			</g>
		</g>
		<g>
			<g>
				<path fill="#E0F1F3" d="M55.7,10C72.6,43.3,88.6,77,103.8,111.2c4.3,9.8,8.6,19.6,12.8,29.5c1.5,3.4,6.5,0.5,5-2.9
					C107,103.4,91.4,69.4,75.1,35.8C70.4,26.2,65.6,16.6,60.7,7C59,3.7,54,6.6,55.7,10L55.7,10z"/>
			</g>
		</g>
		<g>
			<g>
				<path fill="#E0F1F3" d="M30.4,114.7C65,95.8,99.6,76.9,134.2,58c9.9-5.4,19.8-10.8,29.7-16.2c3.3-1.8,0.4-6.8-2.9-5
					C126.3,55.6,91.7,74.5,57.1,93.4c-9.9,5.4-19.8,10.8-29.7,16.2C24.1,111.4,27.1,116.5,30.4,114.7L30.4,114.7z"/>
			</g>
		</g>
		<g>
			<g>
				<path fill="#E0F1F3" d="M12.2,56.1c37.6,11,75.2,22.1,112.9,33.1c10.9,3.2,21.8,6.4,32.6,9.6c3.6,1.1,5.2-4.6,1.6-5.6
					C121.6,82.2,84,71.1,46.4,60.1c-10.9-3.2-21.8-6.4-32.7-9.6C10.1,49.4,8.6,55.1,12.2,56.1L12.2,56.1z"/>
			</g>
		</g>
		<g>
			<polygon fill="#B6B4D9" stroke="#8E8EC0" stroke-width="2.5357" stroke-miterlimit="10" points="115.8,386.2 129.5,421.7
				212.3,393.6 228.8,296.9 180.7,283.6 			"/>
			<path fill="#B6B4D9" stroke="#8E8EC0" stroke-width="2.5357" stroke-miterlimit="10" d="M366.1,324.1
				c7.2,17.3,13.1,35.4,18.4,53.2c15.2,51.5,27,104.1,35.2,157.2c-88.5,0.9-177,1.8-265.5,2.6c-0.7-47.2,0.3-94.7,8.1-141.3
				c7.9-47,23-93.3,49-133.2c12.3-18.9,29.4-37.6,51.8-39.5c17.9-1.5,34.8,8.2,48.4,19.9C336.4,264.7,353.3,293.3,366.1,324.1z"/>
			<path fill="#B6B4D9" stroke="#8E8EC0" stroke-width="2.5357" stroke-miterlimit="10" d="M194.1,288.2c-3.4-6.2-11.9-8.1-18.7-6.1
				c-6.8,2-12.3,7-17.4,11.9c-18.4,17.9-35.5,37.3-48.6,59.3c-13.1,22-22.1,46.8-23.7,72.4c-0.8,14.1,1.1,29.4,10.7,39.7
				c12.5,13.4,34,13.9,51.6,8.3c45.7-14.4,74.6-58.9,114.2-85.8c9.8-18.4,24.8-34,42.9-44.5c-26.6-10.4-56.3-13.1-84.2-7
				c-36.4,7.9-69.4,30.4-90.1,61.3"/>
			<path fill="#B6B4D9" stroke="#8E8EC0" stroke-width="2.5357" stroke-miterlimit="10" d="M396.4,334.6c-1.3-2.3-2.7-4.6-4.1-6.8
				c-7.8-12.2-17-23.3-26.8-33.9c5.5,26.3,7.8,53.3,6.8,80.1c-10.1,4.7-21.7,6.6-32.9,6c-19-1.1-36.4,14.5-53.5,6.1
				c-17.1-8.3-34.5-40.7-52.7-46.3c-12.3-3.8-26-5.7-38-0.8c0,0-3.9,1.6-9.4,3.9c-3,2.8-5.5,6-7.5,9.6c-4.6,8.1-6.3,17.8-4.8,27.1
				c21.6,32.8,57.1,53.9,93,70.1c19.3,8.7,39.3,16.4,60.4,18.4c21,2,43.4-2.3,59.8-15.6c17.8-14.3,26.8-37.7,26.6-60.5
				C413.2,371.8,406.5,352.2,396.4,334.6z"/>
			<path fill="#F398C0" stroke="#CC6699" stroke-width="2.5357" stroke-miterlimit="10" d="M101.1,352.1c7.9-10,18.8-17.6,30-23.9
				c9.7-5.4,20.1-10.1,31.2-10.2c9.6-0.1,19.6,3.8,25.2,11.4c-10.1,6.2-18.1,15.8-22.6,26.8c-5.1-0.4-10.1-1.4-15.2-1.7
				c-13-0.8-26.3,3-37,10.5c-10,7-17.7,17.2-21.7,28.7c-3.7-12.9,0.1-27.3,7.8-38.3C99.5,354.2,100.3,353.2,101.1,352.1z"/>
			<path fill="#F398C0" stroke="#CC6699" stroke-width="2.5357" stroke-miterlimit="10" d="M186,324.9c11.6-3.8,22.6,6,21.9,11.3
				c-16.1,7.8-32.8,25.1-33.9,42.9c-3,0.4-6.2-0.2-8.7-1.9c-7.3-5.1-7.2-13.7-5.7-21.3C163,342.4,177,327.8,186,324.9z"/>
			<g>
				<path fill="#EE4C67" stroke="#BE1E2D" stroke-width="2.5357" stroke-miterlimit="10" d="M204.2,314c25.5,13.6,54.8,20,83.6,18
					c25.4-1.8,50.3-10.3,71.8-24c10.4-6.6,15.4-19.4,12.1-31.3c-4.1-15.1-11.2-29.4-20.8-41.7c-19.9,14.5-43.7,23.5-68.2,25.7
					c-27,2.4-54.6-3.4-78.4-16.4c-9,11.1-15.5,24.2-18.9,38c-2.7,10.7,2.1,22,11.6,27.7C199.4,311.3,201.8,312.7,204.2,314z"/>
				<path fill="#EE4C67" stroke="#BE1E2D" stroke-width="2.5357" stroke-miterlimit="10" d="M213,315.1c-1.6-8.7-0.6-17.8,2.9-25.9"
					/>
				<path fill="#EE4C67" stroke="#BE1E2D" stroke-width="2.5357" stroke-miterlimit="10" d="M200.7,303.6
					c-1.3-11.9,1.9-24.1,8.8-33.9"/>
				<path fill="#EE4C67" stroke="#BE1E2D" stroke-width="2.5357" stroke-miterlimit="10" d="M189.2,294.9
					c0.3-13.7,4.9-27.2,13.1-38.1"/>
			</g>
			<g>
				<defs>
					<path id="SVGID_3_" d="M348.2,261.8c44.2,66,76.2,140.1,93.8,217.5c-19.7,19-45.6,31.6-72.8,35.2
						c-0.1-88.3-27-176.5-76.3-249.8c17-5.1,34.9-7.4,52.7-6.7C346.4,259.2,347.3,260.5,348.2,261.8z"/>
				</defs>
				<use xlink:href="#SVGID_3_"  overflow="visible" fill="#EE4C67"/>
				<clipPath id="SVGID_4_">
					<use xlink:href="#SVGID_3_"  overflow="visible"/>
				</clipPath>
				<g clip-path="url(#SVGID_4_)">
					<path fill="#EE4C67" stroke="#BE1E2D" stroke-width="2.5357" stroke-miterlimit="10" d="M375.3,474c3.8,19.3,6,38.9,6.7,58.6"
						/>
					<path fill="#EE4C67" stroke="#BE1E2D" stroke-width="2.5357" stroke-miterlimit="10" d="M426.2,451c6.1,15.5,10.7,31.6,13.6,48
						"/>
					<path fill="#EE4C67" stroke="#BE1E2D" stroke-width="2.5357" stroke-miterlimit="10" d="M418,455.9
						c5.3,18.1,9.1,36.7,11.3,55.5"/>
					<path fill="#EE4C67" stroke="#BE1E2D" stroke-width="2.5357" stroke-miterlimit="10" d="M407.6,457.6
						c2.8,17.6,5.6,35.2,8.4,52.9"/>
					<path fill="#EE4C67" stroke="#BE1E2D" stroke-width="2.5357" stroke-miterlimit="10" d="M397.9,466.3c2.9,19.5,5.8,39,8.7,58.6
						"/>
					<path fill="#EE4C67" stroke="#BE1E2D" stroke-width="2.5357" stroke-miterlimit="10" d="M387.1,469.2
						c2.6,17.3,5.1,34.6,7.7,51.9"/>
					<path fill="#EE4C67" stroke="#BE1E2D" stroke-width="2.5357" stroke-miterlimit="10" d="M366.1,485.1
						c27.4-6.6,53.4-18.8,76-35.5c-3.5-14.9-8-29.6-13.6-44c-22.3,15.2-47.3,26.6-73.5,33.4c3.7,15.4,6.1,31.1,7.2,46.9
						C363.6,485.7,364.8,485.4,366.1,485.1z"/>
				</g>
				<use xlink:href="#SVGID_3_"  overflow="visible" fill="none" stroke="#BE1E2D" stroke-width="2.5357" stroke-miterlimit="10"/>
			</g>
			<g>
				<defs>
					<path id="SVGID_5_" d="M386.5,451.9c24.3-4.7,47.1-17.1,64.3-35c-16.7-66-53-126.8-103-172.9c-16.4,9.7-34.4,16.9-53.1,21
						c67.1,89.1,79.4,149.6,85.7,188C382.5,452.6,384.5,452.3,386.5,451.9z"/>
				</defs>
				<use xlink:href="#SVGID_5_"  overflow="visible" fill="#EE4C67"/>
				<clipPath id="SVGID_6_">
					<use xlink:href="#SVGID_5_"  overflow="visible"/>
				</clipPath>
				<g clip-path="url(#SVGID_6_)">
					<path fill="#EE4C67" stroke="#BE1E2D" stroke-width="2.5357" stroke-miterlimit="10" d="M379.7,401.9
						c5.2,16.9,8.7,34.4,10.3,52.1"/>
					<path fill="#EE4C67" stroke="#BE1E2D" stroke-width="2.5357" stroke-miterlimit="10" d="M390.8,399.9c6.5,16,10.5,33,11.8,50.2
						"/>
					<path fill="#EE4C67" stroke="#BE1E2D" stroke-width="2.5357" stroke-miterlimit="10" d="M402.1,396.9
						c6.3,17,10.8,34.6,13.5,52.5"/>
					<path fill="#EE4C67" stroke="#BE1E2D" stroke-width="2.5357" stroke-miterlimit="10" d="M411.9,395.4c6.4,14,11,28.8,13.9,43.9
						"/>
					<path fill="#EE4C67" stroke="#BE1E2D" stroke-width="2.5357" stroke-miterlimit="10" d="M420.8,388.5
						c8.1,14.1,13.7,29.5,16.6,45.5"/>
					<path fill="#EE4C67" stroke="#BE1E2D" stroke-width="2.5357" stroke-miterlimit="10" d="M430.7,379c7.5,14.8,12.8,30.7,15.7,47
						"/>
					<path fill="#EE4C67" stroke="#BE1E2D" stroke-width="2.5357" stroke-miterlimit="10" d="M445.4,371.5
						c-21.3,21.5-50.4,35.1-80.6,37.8l-10.2-32.8c30.2-2.7,59.2-16.3,80.6-37.8L445.4,371.5z"/>
				</g>
				<use xlink:href="#SVGID_5_"  overflow="visible" fill="none" stroke="#BE1E2D" stroke-width="2.5357" stroke-miterlimit="10"/>
			</g>
			<path fill="#F398C0" stroke="#CC6699" stroke-width="2.5357" stroke-miterlimit="10" d="M328.7,25.1c0.2,0.5,0.5,0.9,0.7,1.4
				c-2.1-7.5-0.2-15.9,4.8-21.8c0.8-0.9,1.6-1.8,2.7-2.3c1.1-0.5,2.4-0.6,3.5,0c1.3,0.7,1.8,2.2,2.1,3.6c0.8,3.4,1.2,6.9,1.1,10.4
				c2.1-5.8,6.8-10.5,12.5-12.8c1.1-0.4,2.3-0.7,3.3-0.2c1.6,0.8,1.8,2.9,1.6,4.7c-0.4,3.8-1.6,7.5-3.6,10.9
				c3.2-2.7,7.1-4.5,11.2-5.2c2.2-0.4,4.8-0.3,6.2,1.3c1.7,1.9,1,4.9-0.2,7.2c-2.7,5.2-7.6,9.2-13.3,10.9c0,0-1.5,0.4-3,0.9
				c1.7,0.1,3.4,0.2,3.4,0.2c25.2,7.9,16.4,17,10.4,17c-4.4,0-8.5-0.4-12.6-2.1c0.1-0.1,0.1-0.1,0.2-0.2c2.2,4.4,4.5,9.1,4.4,14.1
				c0,1.5-0.5,3.2-1.8,3.9c-1.7,1-3.8-0.3-5.3-1.6c-2.7-2.4-5.1-5.3-6.8-8.6c0.3,4.7-0.2,9.4-1.3,14c-0.4,1.6-1,3.3-2.5,3.9
				c-1,0.4-2.1,0.2-3-0.4s-1.6-1.3-2.2-2.1c-3.1-4.1-4.7-9.3-4.3-14.4c-1.4,4.6-4.7,8.6-9,10.8c-1.5,0.8-3.4,1.3-4.8,0.5
				c-1.7-1-1.9-3.4-1.8-5.4c0.4-5.3,1.9-10.5,4.2-15.2c-2-4.7-3.9-9.4-5.5-14.2c-4.1-4.3-6.6-10.2-6.8-16.2c0-1.3,0-2.7,0.6-4
				c0.6-1.2,1.7-2.3,3-2.4c1.8-0.1,3.2,1.3,4.4,2.6C324.2,17.6,326.7,21.3,328.7,25.1z"/>
			<path fill="#F0CCA2" stroke="#C1986C" stroke-width="2.5357" stroke-miterlimit="10" d="M171.1,221.5
				c-15.6-3.6-26.8-18.6-29.7-34.4c-0.9-4.8-1.1-9.8,0.5-14.4c1.6-4.6,5.4-8.6,10.2-9.4c4.3-0.7,8.8,1.2,12.1,4.2
				c3.3,3,5.6,6.8,7.8,10.6"/>

				<ellipse fill="#F0CCA2" stroke="#C1986C" stroke-width="2.5357" stroke-miterlimit="10" cx="274" cy="184.4" rx="112.7" ry="86.8"/>
			<path fill="#EE4C67" stroke="#BE1E2D" stroke-width="2.5357" stroke-miterlimit="10" d="M201.5,96.3c-2.7,1-5.3,2.2-7.9,3.4
				c14.6-35.7,47.2-63.5,84.8-72.1c20.8-4.7,44.3-3.3,61,9.8c2.9,2.2,5.7,5.3,5.3,8.9c-0.4,3.8-4,6.3-7.5,7.7
				c-6.3,2.5-13.4,3.1-20.1,1.7c20.2,8.9,36.9,25.5,46.3,45.5c-19.3-6.3-39.8-9.2-60.1-11.5c-32.8-3.7-66.8-5.9-97.9,5
				C204.2,95.3,202.9,95.8,201.5,96.3z"/>
			<path fill="#EE4C67" stroke="#BE1E2D" stroke-width="2.5357" stroke-miterlimit="10" d="M165.5,165.8c-0.4-4.8-0.1-7.9,1.4-9.2
				c20-17.2,48-21.1,74.4-22.7c41.6-2.5,84.8-0.9,122.4,17c5.8,2.7,11.5,5.9,15.8,10.6c3.9,4.2,6.7,9.7,6.8,15.4
				c5.8-0.6,9.8-6.3,10.6-12c0.7-5.6-1-11.2-2.7-16.6c-4.9-15.6-10.1-35.3-35.9-49c-7.3-2.4-15.1-4-22.7-5.4
				c-28.3-5.2-57.1-9-85.9-7c-23.6,1.7-47.3,7.4-68,18.7c-5.3,2.9-9.5,7.3-12.3,12.6c-0.2,0.4-0.4,0.8-0.6,1.1
				c-3.8,7.6-6.2,15.9-8.6,24.1c-1.2,4.2-2.4,8.5-2,12.9c0.4,4.3,2.7,8.8,6.8,10.4"/>
			<g>
				<path fill="#EE4C67" d="M166.6,156c-2.1-1.8-3-4.8-2.9-7.6c0.1-2.8,0.9-5.5,1.9-8.2c3.3-9.5,7.4-18.8,12.1-27.8"/>
				<g>
					<path fill="#BE1E2D" d="M167.5,155.1c-5.7-5.5-0.6-15.2,1.7-21.2c2.8-7.1,5.9-14.1,9.5-20.8c0.8-1.4-1.4-2.7-2.2-1.3
						c-4.1,7.8-7.6,15.8-10.7,24.1c-2.5,6.6-6,15.2,0,21C166.9,158.1,168.7,156.3,167.5,155.1L167.5,155.1z"/>
				</g>
			</g>
			<g>
				<path fill="#EE4C67" d="M175.9,149.5c-2-1.6-2.9-4.2-2.8-6.8c0-2.5,0.8-5,1.6-7.4c2.5-7.7,5-15.4,7.6-23.1"/>
				<g>
					<path fill="#BE1E2D" d="M176.8,148.7c-5.1-4.4-1.1-12.4,0.6-17.6c2-6.2,4-12.3,6.1-18.5c0.5-1.6-1.9-2.2-2.4-0.7
						c-2.4,7.4-4.8,14.8-7.3,22.2c-1.8,5.3-3.7,12,1.2,16.3C176.3,151.5,178.1,149.7,176.8,148.7L176.8,148.7z"/>
				</g>
			</g>
			<g>
				<path fill="#EE4C67" d="M193.9,141.2c-1.7-1.2-2.5-3.4-2.5-5.4c-0.1-2.1,0.5-4.1,1.1-6.1c2.9-9.7,5.7-19.5,8.6-29.2"/>
				<g>
					<path fill="#BE1E2D" d="M194.8,140.3c-2.9-2.4-2.2-6.2-1.3-9.4c0.9-3.3,1.9-6.5,2.9-9.8c2-6.8,4-13.5,6-20.3
						c0.5-1.6-2-2.2-2.4-0.7c-2.4,8-4.7,16-7.1,24c-1.6,5.4-5.3,13.5,0.2,17.9C194.3,143.1,196.1,141.3,194.8,140.3L194.8,140.3z"/>
				</g>
			</g>
			<g>
				<path fill="#EE4C67" d="M349.8,145.2c2.2-6.8,2-14.4-0.6-21.2"/>
				<g>
					<path fill="#BE1E2D" d="M351,145.6c2.2-7.2,2-14.8-0.6-21.8c-0.6-1.5-3-0.9-2.4,0.7c2.4,6.7,2.6,13.7,0.6,20.5
						C348.1,146.5,350.5,147.1,351,145.6L351,145.6z"/>
				</g>
			</g>
			<g>
				<path fill="#EE4C67" d="M363.3,150.1c2.1-0.3,3.5-2.3,3.9-4.4s-0.1-4.2-0.6-6.2c-2-8.3-4.4-16.5-7-24.7"/>
				<g>
					<path fill="#BE1E2D" d="M363.7,151.4c6.7-1.7,4.9-9.6,3.6-14.5c-1.9-7.5-4.1-15-6.5-22.4c-0.5-1.5-3-0.9-2.4,0.7
						c1.8,5.6,3.5,11.2,5,16.9c0.7,2.7,1.5,5.5,2.1,8.3c0.7,3,1.4,7.6-2.5,8.6C361.4,149.3,362.1,151.8,363.7,151.4L363.7,151.4z"/>
				</g>
			</g>
			<g>
				<path fill="#EE4C67" d="M378.5,160.4c2.2-1.3,3.4-4,3.5-6.6c0.1-2.6-0.6-5.1-1.3-7.6c-2.8-9.5-5.5-19-8.3-28.5"/>
				<g>
					<path fill="#BE1E2D" d="M379.1,161.5c6.2-4.2,3.8-12,2-18c-2.5-8.7-5.1-17.4-7.6-26.1c-0.5-1.6-2.9-0.9-2.4,0.7
						c2.1,7.1,4.2,14.3,6.2,21.4c1,3.3,2.1,6.7,2.9,10.1c0.8,3.4,0.9,7.6-2.3,9.8C376.5,160.2,377.7,162.4,379.1,161.5L379.1,161.5z
						"/>
				</g>
			</g>
			<g>
				<path fill="#EE4C67" d="M386,172.8c2.5-1.3,4.1-4,4.7-6.8c0.6-2.8,0.3-5.7,0-8.5c-1.7-12.5-6-24.6-12.4-35.4"/>
				<g>
					<path fill="#BE1E2D" d="M386.7,173.9c8.4-4.9,5.6-16.8,3.9-24.6c-2.2-9.8-6-19.3-11.1-27.9c-0.8-1.4-3-0.1-2.2,1.3
						c4.4,7.5,7.8,15.5,10,23.9c1.1,4.2,2,8.4,2.4,12.7c0.5,4.6,0.1,9.8-4.3,12.4C384,172.5,385.2,174.7,386.7,173.9L386.7,173.9z"
						/>
				</g>
			</g>
			<g>
				<path fill="#F0CCA2" d="M243.3,181.2c-4.6-0.2-9,2.4-12.2,5.7c-3.3,3.4-5.8,7.6-6.5,12.3c-0.7,4.7,0.6,9.7,3.9,13
					c3.2,3.2,7.9,4.6,12.4,4.6c4.5,0.1,9-1,13.4-2.1"/>
				<g>
					<path fill="#C1986C" d="M243.3,179.9c-11.8-0.2-21.8,13.5-19.9,24.7c1,5.8,4.9,10.3,10.4,12.2c6.8,2.4,14,0.7,20.7-1
						c1.6-0.4,0.9-2.8-0.7-2.4c-5.7,1.4-11.7,3-17.6,1.5c-5.2-1.3-9.2-4.9-10.3-10.3c-2.1-9.8,6.9-22.4,17.3-22.3
						C245,182.5,245,180,243.3,179.9L243.3,179.9z"/>
				</g>
			</g>
			<ellipse fill="#231F20" cx="279" cy="172.9" rx="6.9" ry="15.8"/>
			<ellipse fill="#231F20" cx="221.9" cy="176.9" rx="6.9" ry="15.8"/>
			<path fill="#F0CCA2" stroke="#C1986C" stroke-width="2.5357" stroke-miterlimit="10" d="M377.9,182.4c2.1-7.2,10.5-11.5,17.8-10
				c7.3,1.5,13.1,7.8,15,15c1.9,7.2,0.4,15-3,21.7c-8.3,16.1-28.3,25.2-45.9,20.9"/>
			<g>
				<g>
					<path fill="#C1986C" d="M207.5,157.5c2.1-10.2,8.1-19.3,16.8-25.1c1.3-0.9,0.1-3.1-1.3-2.2c-9.2,6.2-15.7,15.8-18,26.6
						C204.7,158.4,207.2,159,207.5,157.5L207.5,157.5z"/>
				</g>
			</g>
			<g>
				<g>
					<path fill="#C1986C" d="M274.7,128.5c8.3,3.5,14.8,10.4,17.8,18.9c0.5,1.5,3,0.9,2.4-0.7c-3.3-9.4-10.4-16.8-19.6-20.7
						C273.9,125.4,273.2,127.9,274.7,128.5L274.7,128.5z"/>
				</g>
			</g>
			<path fill="#F398C0" stroke="#CC6699" stroke-width="2.5357" stroke-miterlimit="10" d="M332.3,377.9
				c11.8,20.2,17.7,43.7,16.8,67c-0.4,9.5-2.6,20.1-10.6,25.2c-9.9,6.3-23.1,0.7-32.3-6.6c-17-13.5-29.2-32.9-34.3-54
				c-2.4-10.5-1.6-15-2.4-22.5c6.7-21.6,23.5-35.1,45.1-40.6c22.5,5.9,41.3,23.8,48.3,45.9c1.2,3.9,1.7,9.1-1.8,11.3
				c-3.6,2.2-8.1-0.7-11.2-3.7c-6.2-6.1-11.8-12.8-16.6-20.1"/>
			<path fill="#F398C0" stroke="#CC6699" stroke-width="2.5357" stroke-miterlimit="10" d="M307.9,339.8
				c-23.2,3.5-52.6,31-45.6,48.2c1.4,3.5,4.1,8.8,7.7,7.7c8.8-22,33.3-41.4,56.8-44.7C326.3,348,322.1,337.7,307.9,339.8z"/>
			<g>
				<defs>
					<path id="SVGID_7_" d="M328.7,232.2c0,0.9-0.1,1.9-0.4,2.8c-1.8,6.4-9.3,9.7-16,9.3c-6.7-0.5-12.8-3.7-18.9-6.3
						c-19.4-8-41.5-9.3-61.7-3.8c20.5-13.6,46.1-17.8,70.7-17.7c6.2,0,12.6,0.3,18.1,3.3C325.1,222.2,328.7,227.2,328.7,232.2z"/>
				</defs>
				<use xlink:href="#SVGID_7_"  overflow="visible" fill="#FFFFFF"/>
				<clipPath id="SVGID_8_">
					<use xlink:href="#SVGID_7_"  overflow="visible"/>
				</clipPath>
				<g clip-path="url(#SVGID_8_)">
					<path fill="none" stroke="#D0D2D3" stroke-width="2.5357" stroke-miterlimit="10" d="M311.1,248.9
						c5.8-10.5,10.8-21.4,14.8-32.7"/>
					<path fill="none" stroke="#D0D2D3" stroke-width="2.5357" stroke-miterlimit="10" d="M293.2,243.5c3.1-12.8,6.1-25.6,9.2-38.4"
						/>
					<path fill="none" stroke="#D0D2D3" stroke-width="2.5357" stroke-miterlimit="10" d="M276.4,240.7c0.6-11.4,1.3-22.7,1.9-34.1"
						/>
					<path fill="none" stroke="#D0D2D3" stroke-width="2.5357" stroke-miterlimit="10" d="M228.8,235.5
						c36.7-14.1,79.3-11.9,114.3,5.9"/>
				</g>
				<use xlink:href="#SVGID_7_"  overflow="visible" fill="none" stroke="#C1986C" stroke-width="2.5357" stroke-miterlimit="10"/>
			</g>
		</g>
	</g>
</g>
</svg>
