<?xml version="1.0" encoding="utf-8"?>
<!-- Generator: Adobe Illustrator 18.1.1, SVG Export Plug-In . SVG Version: 6.00 Build 0)  -->
<svg version="1.1" id="Layer_1" xmlns="http://www.w3.org/2000/svg" xmlns:xlink="http://www.w3.org/1999/xlink" x="0px" y="0px" viewBox="0 0 500 500" enable-background="new 0 0 500 500" xml:space="preserve"><clipPath id="SVGID_10_">
			<use xlink:href="#SVGID_9_" overflow="visible"/>
		</clipPath><clipPath id="SVGID_8_">
				<use xlink:href="#SVGID_7_" overflow="visible"/>
			</clipPath><clipPath id="SVGID_6_">
			<use xlink:href="#SVGID_5_" overflow="visible"/>
		</clipPath><clipPath id="SVGID_4_">
			<use xlink:href="#SVGID_3_" overflow="visible"/>
		</clipPath><clipPath id="SVGID_2_">
			<use xlink:href="#SVGID_1_" overflow="visible"/>
		</clipPath>
<symbol id="New_Symbol_15" viewBox="-93.8 -40.1 187.5 80.2">
	<g>
		<path fill="#E6E7E8" stroke="#808184" stroke-miterlimit="10" d="M61.5-0.6C65.4-5.8,57-15.3,57-15.3c-0.1-2.5,2.5-4.7,2.5-4.7
			l5.7,0.2c9.2,0.6,10.4-2.4,10.6-3c0.2-0.6-0.9-0.9-0.9-0.9c0.2-1.5-2-1.2-2.5-0.2c-0.5,1-2.3,1.1-2.3,1.1c1.2-0.5,1.2-2.4,0.2-2.4
			s-2.8,0.9-3.9,1.6s-5.4,0-5.4,0s-0.5-0.6-3.9-0.4s-5.7,6.5-5.7,6.5l-3.6,5.4c-3.3,6,3.4,13.6,3.4,13.6c-1.6,2.9-2.9,5.9,1.4,12.1
			L61.5-0.6z"/>
		<g>
			<path fill="#808184" d="M67.1-19.8c0,0,0.6,0,1.5,0c0.9,0,2-0.2,3.2-0.6c0.3-0.1,0.6-0.2,0.8-0.3c0.3-0.1,0.5-0.3,0.8-0.4
				c0.2-0.2,0.5-0.4,0.6-0.6c0.2-0.2,0.3-0.4,0.5-0.6c0.1-0.2,0.2-0.4,0.2-0.6c0.1-0.2,0.1-0.4,0.1-0.5c0-0.3,0-0.4,0-0.4l-0.1,0
				c0,0-0.1,0.1-0.2,0.3c-0.1,0.1-0.1,0.2-0.3,0.3c-0.1,0.1-0.2,0.3-0.4,0.4c-0.2,0.1-0.3,0.3-0.5,0.4c-0.2,0.1-0.4,0.3-0.6,0.4
				c-0.2,0.1-0.4,0.3-0.6,0.4c-0.2,0.1-0.5,0.3-0.7,0.4c-1,0.5-2.1,0.8-2.9,1C67.7-19.9,67.1-19.9,67.1-19.8L67.1-19.8z"/>
		</g>
	</g>
	<path fill="#231F20" stroke="#231F20" stroke-miterlimit="10" d="M74.4,12.1c0,0,1.8,1.7,3.3,2.2c0.3,0.1,0.5,0.4,0.5,0.7
		c0,1.3-0.5,4.4-3.9,5.4c-5.1,1.5-6.5-3.5-6.1-4.8S69,12.2,74.4,12.1z"/>
	<g>
		<defs>
			<path id="SVGID_1_" d="M-16.1-9.7c0,0,0.4-6.7-14-10c-11.2-2.5-58,3.4-62.5-11c-3.9-12.8,30.1-5.6,48.6-8.7
				c2.3-0.4,3.4,0.7,1.4,1.2s-6.2,3.1-27,3c-22.8-0.1-19.9,5.8-7.2,8.5c17.7,3.8,59-4,65,9.8L-16.1-9.7z"/>
		</defs>
		<use xlink:href="#SVGID_1_" overflow="visible" fill="#E4B8D5"/>
		
		<g clip-path="url(#SVGID_2_)">
			<g>
				<path fill="#E4B8D5" d="M-21.5-18.1c0.3-0.5,0-3.7,4.5-6.2"/>
				<path fill="#CE8DBD" d="M-21.5-18.1c0,0,0.1-0.1,0.1-0.3c0.1-0.2,0.2-0.5,0.3-0.9c0.3-0.7,0.7-1.5,1.3-2.2
					c0.3-0.4,0.7-0.6,1-0.9c0.3-0.3,0.6-0.6,0.9-0.8c0.2-0.3,0.5-0.5,0.6-0.7c0.1-0.2,0.2-0.3,0.2-0.3l0-0.1c0,0-0.1,0-0.4,0.1
					c-0.2,0-0.5,0.1-0.9,0.3c-0.4,0.2-0.7,0.4-1.1,0.7c-0.4,0.3-0.7,0.8-1,1.2c-0.6,0.9-0.9,1.9-1,2.6c-0.1,0.4-0.1,0.7-0.1,0.9
					C-21.5-18.3-21.6-18.1-21.5-18.1L-21.5-18.1z"/>
			</g>
			<g>
				<path fill="#E4B8D5" d="M-19.5-17.8c0.4-0.4,0.5-3.6,5.3-5.5"/>
				<path fill="#CE8DBD" d="M-19.4-17.8c0,0,0.1-0.1,0.2-0.3c0.1-0.2,0.2-0.5,0.4-0.8c0.3-0.6,0.9-1.4,1.6-2
					c0.4-0.3,0.8-0.5,1.1-0.8c0.4-0.2,0.7-0.5,1-0.7c0.3-0.2,0.5-0.4,0.7-0.6c0.2-0.1,0.3-0.2,0.3-0.2l0-0.1c0,0-0.1,0-0.4,0
					c-0.2,0-0.6,0.1-0.9,0.2c-0.4,0.1-0.8,0.3-1.2,0.6c-0.4,0.3-0.8,0.7-1.1,1.1c-0.7,0.8-1.2,1.7-1.4,2.5c-0.1,0.4-0.2,0.7-0.2,0.9
					C-19.4-17.9-19.5-17.8-19.4-17.8L-19.4-17.8z"/>
			</g>
			<g>
				<path fill="#E4B8D5" d="M-18.1-16.2c0.4-0.4,0.8-3.6,5.7-5"/>
				<path fill="#CE8DBD" d="M-18-16.2c0,0,0.1-0.1,0.2-0.3c0.1-0.2,0.3-0.5,0.5-0.8c0.4-0.6,1-1.4,1.8-1.9c0.4-0.3,0.8-0.5,1.2-0.7
					c0.4-0.2,0.7-0.4,1-0.6c0.3-0.2,0.6-0.4,0.7-0.5c0.2-0.1,0.3-0.2,0.3-0.2l0-0.1c0,0-0.1,0-0.4,0c-0.2,0-0.6,0-0.9,0.1
					c-0.4,0.1-0.8,0.2-1.3,0.5c-0.4,0.3-0.8,0.6-1.2,1c-0.8,0.7-1.3,1.6-1.6,2.4c-0.1,0.4-0.2,0.7-0.3,0.9
					C-18-16.3-18.1-16.2-18-16.2L-18-16.2z"/>
			</g>
			<g>
				<path fill="#E4B8D5" d="M-87.4-27.9c0,0,2.8,0,3-2.2"/>
				<path fill="#CE8DBD" d="M-87.4-27.9c0,0,0.3,0,0.7,0.1c0.4,0,0.9-0.1,1.5-0.3c0.3-0.1,0.6-0.3,0.8-0.5c0.2-0.2,0.3-0.5,0.3-0.8
					c0-0.2,0-0.4-0.1-0.6c0-0.1-0.1-0.2-0.1-0.2l-0.1,0c0,0-0.2,0.2-0.5,0.5c-0.1,0.1-0.2,0.2-0.4,0.4c-0.1,0.1-0.2,0.3-0.4,0.5
					c-0.3,0.3-0.8,0.5-1.1,0.6C-87.1-28.1-87.4-28-87.4-27.9L-87.4-27.9z"/>
			</g>
			<g>
				<path fill="#E4B8D5" d="M-85.1-26.4c0,0,2.3-1.7,1.1-3.5"/>
				<path fill="#CE8DBD" d="M-85.1-26.4c0,0,0.2-0.1,0.6-0.3c0.3-0.2,0.7-0.6,1-1.1c0.1-0.3,0.3-0.5,0.3-0.8c0-0.3-0.1-0.6-0.2-0.8
					c-0.1-0.2-0.3-0.3-0.4-0.4c-0.1-0.1-0.2-0.1-0.2-0.1l-0.1,0.1c0,0,0,0.3-0.1,0.7c0,0.2-0.1,0.3-0.1,0.5c0,0.2,0,0.4,0,0.6
					c-0.1,0.4-0.4,0.9-0.5,1.2C-85-26.7-85.1-26.5-85.1-26.4L-85.1-26.4z"/>
			</g>
			<g>
				<path fill="#E4B8D5" d="M-89-37.8c0,0-1.5,2.8,0.2,4.8"/>
				<path fill="#CE8DBD" d="M-89.1-37.8c0,0-0.2,0.3-0.4,0.7c-0.2,0.4-0.5,1.1-0.5,1.8c0,0.3-0.1,0.7,0,1c0.1,0.3,0.2,0.6,0.4,0.8
					c0.2,0.2,0.4,0.4,0.5,0.4c0.1,0.1,0.2,0.1,0.2,0.1l0.1-0.1c0,0,0-0.1,0-0.2c0-0.2-0.1-0.3-0.1-0.6c0-0.2-0.1-0.5-0.1-0.7
					c0-0.1-0.1-0.3-0.1-0.4c-0.1-0.1-0.1-0.3-0.1-0.4c-0.1-0.6,0-1.2,0.1-1.7C-89.1-37.5-89-37.8-89.1-37.8L-89.1-37.8z"/>
			</g>
			<g>
				<path fill="#E4B8D5" d="M-92-35.8c0,0-1,3.5,1.8,4"/>
				<path fill="#CE8DBD" d="M-92.1-35.8c0,0-0.1,0.3-0.3,0.8c-0.1,0.5-0.2,1.1-0.1,1.9c0.1,0.3,0.2,0.7,0.4,1
					c0.1,0.1,0.3,0.3,0.4,0.3c0.1,0.1,0.3,0.1,0.4,0.2c0.3,0.1,0.5,0,0.7,0c0.2,0,0.2-0.1,0.2-0.1l0-0.1c0,0-0.1-0.1-0.2-0.2
					c-0.1-0.1-0.1-0.1-0.2-0.2c-0.1-0.1-0.1-0.1-0.2-0.2c-0.2-0.1-0.3-0.3-0.4-0.5c-0.2-0.1-0.3-0.3-0.5-0.6
					c-0.2-0.5-0.3-1.1-0.3-1.6C-92-35.5-92-35.8-92.1-35.8L-92.1-35.8z"/>
			</g>
			<g>
				<path fill="#E4B8D5" d="M-93.7-32.1c0,0,1.7,3.7,3.7,3.5"/>
				<path fill="#CE8DBD" d="M-93.8-32.1c0,0,0.1,0.3,0.3,0.8c0.2,0.5,0.5,1.1,0.9,1.7c0.2,0.3,0.4,0.6,0.7,0.8
					c0.3,0.2,0.6,0.4,0.9,0.4c0.1,0,0.3,0,0.4,0c0.1,0,0.2,0,0.3-0.1c0.2-0.1,0.2-0.1,0.2-0.1l0-0.1c0,0-0.1-0.1-0.2-0.1
					c-0.1,0-0.1-0.1-0.2-0.1c-0.1-0.1-0.2-0.1-0.2-0.2c-0.1-0.1-0.2-0.1-0.3-0.2c-0.1-0.1-0.2-0.2-0.3-0.3c-0.2-0.2-0.5-0.3-0.7-0.5
					c-0.5-0.4-0.9-0.9-1.2-1.3C-93.5-31.9-93.7-32.1-93.8-32.1L-93.8-32.1z"/>
			</g>
			<g>
				<path fill="#E4B8D5" d="M-53.9-39.6c0,0-0.3,2.2,1,3.2"/>
				<path fill="#CE8DBD" d="M-53.9-39.6c0,0-0.4,0.9-0.2,1.8c0,0.2,0,0.5,0.1,0.7c0.1,0.2,0.3,0.4,0.5,0.5c0.3,0.2,0.7,0.2,0.7,0.2
					l0.1-0.1c0,0,0-0.1,0-0.2c0-0.1,0-0.3-0.1-0.4c0-0.1-0.1-0.3-0.1-0.4c-0.1-0.1-0.2-0.3-0.3-0.5c-0.2-0.4-0.3-0.8-0.3-1.1
					C-53.8-39.4-53.8-39.6-53.9-39.6L-53.9-39.6z"/>
			</g>
			<g>
				<path fill="#E4B8D5" d="M-52.4-40.1c0,0-0.3,2.2,1,3.2"/>
				<path fill="#CE8DBD" d="M-52.4-40.1c0,0-0.4,0.9-0.2,1.8c0,0.2,0,0.5,0.1,0.7c0.1,0.2,0.3,0.4,0.5,0.5c0.3,0.2,0.7,0.2,0.7,0.2
					l0.1-0.1c0,0,0-0.1,0-0.2c0-0.1,0-0.3-0.1-0.4c0-0.1-0.1-0.3-0.1-0.4c-0.1-0.1-0.2-0.3-0.3-0.5c-0.2-0.4-0.3-0.8-0.3-1.1
					C-52.3-39.9-52.3-40.1-52.4-40.1L-52.4-40.1z"/>
			</g>
			<g>
				<path fill="#E4B8D5" d="M-49.2-39.9c0,0-0.3,2.2,1,3.2"/>
				<path fill="#CE8DBD" d="M-49.3-40c0,0-0.4,0.9-0.2,1.8c0,0.2,0,0.5,0.1,0.7c0.1,0.2,0.3,0.4,0.5,0.5c0.3,0.2,0.7,0.2,0.7,0.2
					l0.1-0.1c0,0,0-0.1,0-0.2c0-0.1,0-0.3-0.1-0.4c0-0.1-0.1-0.3-0.1-0.4c-0.1-0.1-0.2-0.3-0.3-0.5c-0.2-0.4-0.3-0.8-0.3-1.1
					C-49.1-39.7-49.2-39.9-49.3-40L-49.3-40z"/>
			</g>
		</g>
		<use xlink:href="#SVGID_1_" overflow="visible" fill="none" stroke="#B276A5" stroke-miterlimit="10"/>
	</g>
	<g>
		<g>
			<path fill="#A7A9AC" d="M80.9,14.2c0,0,0.3,0.9,0.9,2.1c0.6,1.2,1.7,2.8,2.9,4.2c0.6,0.7,1.2,1.4,1.8,2.1
				c0.6,0.6,1.2,1.2,1.8,1.6c0.5,0.5,1,0.8,1.3,1.1c0.3,0.2,0.5,0.4,0.5,0.4l0,0c0,0-0.7-0.6-1.7-1.6c-0.5-0.5-1.1-1.1-1.7-1.7
				c-0.3-0.3-0.6-0.6-0.9-1c-0.3-0.3-0.6-0.7-0.9-1c-1.2-1.4-2.3-2.9-3-4.1C81.2,15.1,80.9,14.2,80.9,14.2L80.9,14.2z"/>
		</g>
		<g>
			<path fill="#A7A9AC" d="M92.1,20.8c0,0-0.6-0.4-1.5-1.1c-0.9-0.7-2.1-1.6-3.2-2.6c-0.6-0.5-1.1-1-1.6-1.5c-0.5-0.5-1-0.9-1.4-1.3
				c-0.4-0.4-0.7-0.7-0.9-1c-0.2-0.2-0.4-0.4-0.4-0.4l0,0c0,0,0.1,0.2,0.3,0.4c0.2,0.3,0.5,0.7,0.8,1.1c0.4,0.4,0.8,0.9,1.3,1.4
				c0.5,0.5,1.1,1,1.7,1.5c1.2,1,2.4,1.8,3.3,2.5C91.5,20.4,92.1,20.8,92.1,20.8L92.1,20.8z"/>
		</g>
		<g>
			<path fill="#A7A9AC" d="M84.9,11.6c0,0,1.2,1.1,2.7,1.9c0.4,0.2,0.7,0.4,1.1,0.5c0.4,0.1,0.7,0.2,1.1,0.2c0.3,0,0.6,0,0.8,0
				c0.2,0,0.3,0,0.3,0l0,0c0,0-0.4-0.1-1-0.2c-0.6-0.2-1.3-0.4-2.1-0.7C86.3,12.5,84.9,11.5,84.9,11.6L84.9,11.6z"/>
		</g>
		<g>
			<path fill="#A7A9AC" d="M85.6,9.3c0,0,1.8,0.5,3.6,0.5c0.5,0,0.9,0,1.3,0c0.4,0,0.8-0.1,1.2-0.2c0.3-0.1,0.6-0.2,0.8-0.3
				c0.2-0.1,0.3-0.1,0.3-0.1l0,0c0,0-0.4,0.1-1.1,0.2c-0.7,0.1-1.5,0.2-2.4,0.2C87.3,9.5,85.6,9.2,85.6,9.3L85.6,9.3z"/>
		</g>
		<g>
			<path fill="#A7A9AC" d="M84.4,7.5c0,0,0.7,0.1,1.7-0.2c0.5-0.1,1.1-0.3,1.7-0.5c0.6-0.2,1.2-0.6,1.8-0.9c0.3-0.2,0.6-0.4,0.9-0.6
				c0.3-0.2,0.6-0.4,0.8-0.6c0.5-0.4,0.9-0.8,1.3-1.2c0.4-0.4,0.6-0.7,0.8-1c0.2-0.2,0.3-0.4,0.3-0.4l0,0c0,0-0.1,0.1-0.4,0.3
				c-0.2,0.2-0.5,0.5-0.9,0.9c-0.4,0.4-0.8,0.7-1.3,1.1c-0.2,0.2-0.5,0.4-0.8,0.6c-0.3,0.2-0.6,0.4-0.8,0.6c-0.6,0.4-1.2,0.7-1.8,1
				c-0.6,0.3-1.2,0.5-1.7,0.6C85.1,7.5,84.4,7.5,84.4,7.5L84.4,7.5z"/>
		</g>
		<g>
			<path fill="#A7A9AC" d="M84.5,6.8c0,0,0.1-0.1,0.4-0.2c0.2-0.1,0.6-0.3,1-0.5c0.8-0.4,1.8-1,2.7-1.8c0.9-0.8,1.7-1.7,2.1-2.5
				c0.2-0.4,0.4-0.7,0.5-1c0.1-0.2,0.2-0.4,0.2-0.4l0,0c0,0-0.1,0.1-0.2,0.3C91,1,90.8,1.3,90.5,1.7c-0.1,0.2-0.3,0.4-0.4,0.6
				c-0.2,0.2-0.3,0.4-0.5,0.6c-0.4,0.4-0.7,0.9-1.2,1.3c-0.8,0.8-1.8,1.5-2.6,1.9c-0.4,0.2-0.7,0.4-0.9,0.5
				C84.6,6.6,84.5,6.7,84.5,6.8L84.5,6.8z"/>
		</g>
	</g>
	<g>
		<defs>
			<path id="SVGID_3_" d="M52.5,27.9c0,0,1,0.5,1,3.7c0,2.7-0.5,5.3,0.7,7.2c0.4,0.7,1.3,0.9,2,0.5c1.9-1,5.5-5.7,4.5-13.4
				L52.5,27.9z"/>
		</defs>
		<use xlink:href="#SVGID_3_" overflow="visible" fill="#E6E7E8"/>
		
		<path clip-path="url(#SVGID_4_)" fill="#929497" stroke="#696C70" stroke-miterlimit="10" d="M54.1,26.1c0,0,1.7,1,1.3,5.2
			c-0.3,4.2-1.8,10,1.8,8l8.7-6.5l1.5-5.5l-4.3-7.7L54.1,26.1z"/>
		<use xlink:href="#SVGID_3_" overflow="visible" fill="none" stroke="#808184" stroke-miterlimit="10"/>
	</g>
	<g>
		<defs>
			<path id="SVGID_5_" d="M78.5,16.6c-3.7,1.7-10.6,7.8-15,9.8c-11.6,5.5-22.4,1.4-28-1.7l0,0c-0.7,0.5-1.5,0.9-2.4,1.2
				c-2.8,1.1-9.8,3.6-13.6,4.3c-5.9,1-9.9,0.7-9.9,0.7c0.8-1.5,1.9-1.5,1.9-1.5c-6.5,0.4-10.2-3-14.2-3.2s-6-1.5-6-1.5l1.5-1.2
				c-6.2-3-5.5-4.5-5.5-4.5l2.5,0.8c-4.5-2.5-4-5.5-4-5.5l2.2,1.8c0,0-3.8-5.5-4.8-9.5s0-13,0-14c0-2.1-0.8-3.7-1.2-4.5
				c-0.2-0.3-0.2-0.7-0.1-1c2.7-7.2,10.6-7.4,10.6-7.4s16.5,0.2,36.5-2.2S59.6-8.2,60.4-6.7c0.3,0.6,1.1,1.3,2,2
				c4,0.5,6.1,3.3,6.1,3.3s1.7,0.3,4.3,0.7c3.2,0.5,5.8,0.2,5.8,0.2c4.5,0.2,5.8,5.8,5.8,5.8C90.5,11.2,82.1,14.9,78.5,16.6z"/>
		</defs>
		<use xlink:href="#SVGID_5_" overflow="visible" fill="#E6E7E8"/>
		
		<path clip-path="url(#SVGID_6_)" fill="#F9F9F4" stroke="#CCCBC4" stroke-miterlimit="10" d="M33.1-11.3C30-10.3,30-7.9,30-7.9
			l3.2-0.8c0,0-2.2,2.2-2.5,4.3c-0.1,0.8-0.2,1.5-0.4,2c0,0.2,0.1,0.3,0.3,0.2c1-0.5,3.7-0.9,6.2,0.8l-0.2-2.5c0,0,1.4-0.4,3.4,0.6
			s5.9,4,8.4,3.9c0,0-2.4,1.4-4,3.9c-0.1,0.2,0.1,0.5,0.3,0.4c1.2-0.5,3-1.2,5.3-1.7c2.7-0.5,5.5-0.4,8.1,0.5c0.8,0.3,1.5,0.6,1.8,1
			c0,0-2,0.4-2.8,1.8c0,0,4.2,3.1,10.4,2.2c5.8-0.7,14-0.6,14-0.6l10.2,1.5l-4.9-20.1L56.4-33.1l-56.6,2.5l-13,10.8
			c4.5-1.2,3.8,0.5,3.8,0.5s-0.4,1.9,0.6,2.8c1,0.9,1.4,1.9,1.4,1.9c-0.6,1.1,1.2,1.6,1.2,1.6c-0.2-0.1-2.9,0.5-2.9,0.5
			c0.4,1.9,4.1,2,4.1,2c-3.5,0.4-4,2.9-4,2.9c1.6,3,10.8,0.9,15-0.9s9.6-1.6,9.6-1.6c-0.1-5.2,4.5-8.5,4.9-9.9s0.9-2.1,0.9-2.1
			l7.1-0.8l-0.9,1.5c-2.5,0.8-5.2,6.6-5.8,8c0,0.1,0.1,0.2,0.2,0.1c0.5-0.2,1.8-0.7,3-0.7c0,0-2,1.8-2,3l3.4-0.2c0,0-1.4,0.9-0.9,2
			c0,0,3.8-3,6.8-2.4C33.5-11.4,33.1-11.3,33.1-11.3z"/>
		<path clip-path="url(#SVGID_6_)" fill="#E4B8D5" stroke="#B276A5" stroke-miterlimit="10" d="M72.2,7.7c-0.3,0-0.4,0.4-0.2,0.6
			c0.9,0.8,2.6,2.1,4.3,2.2c2.4,0.1,7.4-1.1,9-0.8c0,0,1.4,0.5-0.1,2.3s3.8,0,3.5-3.4s-2-2-2.6-2.8C85,4.3,82,4.3,82,4.3
			c-0.1,0-0.2,0.1-0.1,0.2l0.8,2.1c0,0,0.6,0.5-3.8,0.4C76.9,6.9,73.6,7.4,72.2,7.7z"/>
		<use xlink:href="#SVGID_5_" overflow="visible" fill="none" stroke="#808184" stroke-miterlimit="10"/>
	</g>
	<g>
		<path fill="#808184" d="M68.5-1.5c-0.5-0.5-1.1-1-1.8-1.4c-0.6-0.4-1.3-0.7-2-1c-0.7-0.3-1.4-0.5-2.1-0.7
			c-0.7-0.2-1.5-0.3-2.2-0.4L60-5.1l0.1,0.4L60.5-3l0.3-0.3c-1.2-0.4-2.4-0.6-3.6-0.8c-1.2-0.1-2.5-0.1-3.7,0L53-4.1l0.3,0.5
			C53.5-3.3,53.7-3,54-2.7c0.3,0.3,0.6,0.5,1,0.7l0.2-0.8c-0.9,0-1.7,0-2.6,0.1c-0.8,0.1-1.7,0.3-2.5,0.6c-0.4,0.1-0.8,0.3-1.2,0.5
			c-0.4,0.2-0.8,0.4-1.1,0.6c-0.4,0.2-0.7,0.5-1,0.8c-0.3,0.3-0.6,0.6-0.9,0.9c-1,1.3-2.1,2.5-3.3,3.7c-1.1,1.2-2.3,2.4-3.4,3.6
			l0.1,0.1c1.3-1,2.6-2.1,3.8-3.2c1.2-1.1,2.4-2.3,3.5-3.5c0.3-0.3,0.5-0.6,0.8-0.8c0.3-0.3,0.6-0.5,0.9-0.7
			c0.7-0.4,1.4-0.8,2.1-1.1c0.7-0.3,1.5-0.5,2.3-0.6C53.5-2,54.3-2.1,55.1-2l2.3,0l-2.1-0.8c-0.5-0.2-1-0.7-1.3-1.2l-0.3,0.6
			c1.2-0.2,2.4-0.2,3.5-0.1c1.2,0.1,2.4,0.3,3.5,0.6l0.5,0.1L61-3.2l-0.5-1.7l-0.2,0.3c0.7,0.1,1.5,0.2,2.2,0.3
			c0.7,0.2,1.4,0.4,2.1,0.6c0.7,0.3,1.4,0.6,2,0.9C67.2-2.3,67.9-1.9,68.5-1.5L68.5-1.5z"/>
	</g>
	<g>
		<path fill="#E6E7E8" d="M41.8,14.4c-7-1.2-11.8,4.5-13.7,7.3c-1,1.6-2.5,4.3-3.4,5.7c-0.6,1-1.1,2.2-1.2,3.4
			c-0.3,2.2,0.6,5.7,5.3,6c6.3,0.3,10.9-2.4,14.2-4.7c2.7-1.8,7.3-4.2,9.8-4.8"/>
		<path fill="#808184" d="M41.8,14.4c0,0-0.2-0.1-0.7-0.1c-0.5-0.1-1.1-0.2-2-0.2c-0.9,0-1.9,0.1-3.1,0.5c-0.6,0.2-1.2,0.4-1.8,0.7
			c-0.6,0.3-1.2,0.7-1.8,1.2c-1.2,0.9-2.4,2-3.4,3.3c-1.1,1.3-2,2.9-2.9,4.4c-0.5,0.8-0.9,1.6-1.4,2.4c-0.5,0.8-1,1.7-1.3,2.6
			c-0.6,1.9-0.5,4.2,0.8,6c0.7,0.8,1.6,1.4,2.6,1.7c1,0.3,2.1,0.4,3,0.4c2,0,3.9-0.3,5.7-0.8c1.8-0.5,3.4-1.3,4.9-2.1
			c1.5-0.8,2.8-1.8,4-2.5c1.2-0.7,2.3-1.5,3.3-2.1c1-0.6,1.9-1.1,2.7-1.4c1.5-0.8,2.4-1.1,2.4-1.1s-1,0.2-2.6,0.7
			c-0.8,0.3-1.8,0.7-2.9,1.1c-1.1,0.5-2.3,1-3.6,1.8c-1.3,0.8-2.5,1.7-3.9,2.5c-1.4,0.8-3,1.5-4.7,2c-1.7,0.5-3.5,0.8-5.4,0.8
			c-1,0-1.8-0.1-2.7-0.3c-0.8-0.3-1.6-0.7-2.2-1.4c-1.1-1.4-1.2-3.4-0.6-5c0.3-0.9,0.7-1.6,1.2-2.4c0.5-0.8,0.9-1.6,1.4-2.4
			c0.9-1.6,1.8-3.1,2.8-4.3c1-1.3,2.1-2.3,3.3-3.2c0.6-0.4,1.1-0.8,1.7-1.1c0.5-0.3,1.1-0.6,1.6-0.8c1-0.5,2-0.7,2.9-0.8
			c0.8-0.1,1.5-0.1,1.9-0.1C41.5,14.4,41.8,14.4,41.8,14.4z"/>
	</g>
	<g>
		<path fill="#929497" d="M35.9,24.8c6.1-3.9,6.2-6.6,5.8-7.8c-0.1-0.4-0.5-0.7-1-0.7C32.8,16,29.5,22,27.7,25
			c-2.2,3.7-3.5,6.3-1.6,8.2c0.8,0.8,7.3,2.5,14.7-2.6c4.8-3.3,6.6-4.9,7.4-5.4c0.2-0.1,0.2-0.5,0-0.6c-1.3-0.6-4.9-1.5-11.3,1.7"/>
		<path fill="#696C70" d="M35.9,24.8c0,0,0.3-0.1,0.7-0.4c0.5-0.3,1.2-0.7,2-1.3c0.8-0.6,1.8-1.4,2.7-2.6c0.4-0.6,0.8-1.3,1-2.2
			c0.1-0.5,0-0.9-0.2-1.4c-0.2-0.6-0.8-1-1.5-1c-0.4,0-0.9,0-1.3,0c-0.5,0-1,0.1-1.5,0.2c-0.5,0.1-1,0.2-1.5,0.3
			c-0.5,0.2-1,0.3-1.5,0.5c-1.9,0.8-3.7,2.2-5.1,4c-1.4,1.8-2.5,3.7-3.7,5.7c-0.6,1-1.1,2.1-1.4,3.3c-0.1,0.6-0.2,1.3-0.1,2
			c0.1,0.7,0.5,1.3,1,1.8c0.2,0.2,0.2,0.2,0.4,0.3c0.2,0.1,0.4,0.2,0.5,0.2c0.3,0.1,0.6,0.2,0.9,0.3c0.6,0.1,1.2,0.2,1.8,0.3
			c1.2,0.1,2.4,0,3.6-0.2c2.3-0.4,4.5-1.3,6.5-2.4c1.9-1.2,3.6-2.4,5.2-3.6c0.8-0.6,1.6-1.2,2.3-1.8c0.4-0.3,0.7-0.6,1.1-0.8
			l0.3-0.2l0.2-0.1c0.1-0.1,0.2-0.2,0.3-0.3c0.1-0.2,0.1-0.5,0-0.8c-0.1-0.2-0.5-0.4-0.5-0.4c-1.8-0.7-3.5-0.6-4.9-0.3
			c-1.4,0.3-2.6,0.7-3.6,1.1c-1,0.4-1.7,0.8-2.2,1c-0.5,0.3-0.7,0.4-0.7,0.4s0.3-0.1,0.8-0.3c0.5-0.2,1.3-0.5,2.2-0.8
			c1-0.3,2.2-0.6,3.6-0.7c0.7-0.1,1.4-0.1,2.2,0c0.8,0.1,1.5,0.2,2.3,0.5c0.4-0.6-0.8,0.4-1.5,0.9c-0.7,0.6-1.5,1.2-2.3,1.8
			c-1.6,1.2-3.3,2.5-5.1,3.6c-1.9,1.1-3.9,1.9-6.1,2.2c-1.1,0.2-2.2,0.2-3.3,0.2c-0.6,0-1.1-0.1-1.6-0.2c-0.3-0.1-0.5-0.1-0.8-0.2
			c-0.1,0-0.2-0.1-0.3-0.1c0,0-0.3-0.2-0.3-0.2c-0.7-0.7-0.9-1.7-0.7-2.8c0.3-1,0.8-2.1,1.3-3.1c1.1-2,2.3-4,3.6-5.6
			c1.3-1.7,3-3,4.7-3.7c0.4-0.2,0.9-0.3,1.3-0.5c0.4-0.1,0.9-0.2,1.3-0.3c0.4,0,0.9-0.1,1.3-0.1c0.5,0,0.9,0,1.3,0
			c0.2,0,0.5,0.2,0.5,0.4c0.1,0.3,0.1,0.6,0.1,1c0,0.7-0.3,1.4-0.6,1.9c-0.7,1.2-1.6,2-2.3,2.7c-0.8,0.7-1.4,1.2-1.8,1.5
			C36.2,24.6,35.9,24.8,35.9,24.8z"/>
	</g>
	<path fill="#231F20" stroke="#231F20" stroke-miterlimit="10" d="M66.7,11.8c0,0,1.8,1.7,3.3,2.2c0.3,0.1,0.5,0.4,0.5,0.7
		c0,1.3-0.5,4.4-3.9,5.4c-5.1,1.5-6.5-3.5-6.1-4.8S61.4,11.9,66.7,11.8z"/>
	<path fill="#FFFFFF" d="M65.7,17.1c0-0.6-0.5-1.1-1.1-1.1s-1.1,0.5-1.1,1.1c0,0.6,0.5,1.1,1.1,1.1S65.7,17.7,65.7,17.1z"/>
	<g>
		<path fill="#808184" d="M61.2,20.7c0,0,0,0.2,0.1,0.6c0.1,0.4,0.2,0.8,0.5,1.2c0.1,0.2,0.3,0.4,0.5,0.6c0.2,0.1,0.5,0.2,0.7,0.2
			c0.4,0,0.7-0.2,0.7-0.2l0-0.1c0,0-0.2-0.2-0.4-0.4c-0.1-0.1-0.2-0.2-0.3-0.3c-0.1-0.1-0.3-0.2-0.5-0.3c-0.3-0.2-0.6-0.6-0.8-0.8
			C61.4,20.9,61.3,20.7,61.2,20.7L61.2,20.7z"/>
	</g>
	<path fill="none" stroke="#7F5978" stroke-miterlimit="10" d="M72.5,2.4c0,0,0-1.8,3.1-1.2c0,0,0.4-1.8,3.1-1.8"/>
	<path fill="#5E537C" d="M78,4.2c-0.5-0.2-0.8-0.4-0.7-0.6c0.1-0.2,0.5-0.2,0.9,0C78.7,3.7,79,4,78.9,4.2C78.9,4.3,78.4,4.3,78,4.2z
		"/>
	<path fill="#5E537C" d="M79.8,3.7c-0.5-0.2-0.8-0.4-0.7-0.6c0.1-0.2,0.5-0.2,0.9,0c0.5,0.2,0.8,0.4,0.7,0.6
		C80.7,3.8,80.3,3.9,79.8,3.7z"/>
	<path fill="#5E537C" d="M76.1,4.9c-0.5-0.2-0.8-0.4-0.7-0.6s0.5-0.2,0.9,0c0.5,0.2,0.8,0.4,0.7,0.6C77,5.1,76.6,5.1,76.1,4.9z"/>
	<path fill="#5E537C" d="M73,3.9c-0.5-0.2-0.8-0.4-0.7-0.6c0.1-0.2,0.5-0.2,0.9,0C73.7,3.5,74,3.8,74,3.9C73.9,4.1,73.5,4.1,73,3.9z
		"/>
	<path fill="#5E537C" d="M75.3,2.8c-0.5-0.2-0.8-0.4-0.7-0.6c0.1-0.2,0.5-0.2,0.9,0c0.5,0.2,0.8,0.4,0.7,0.6
		C76.2,2.9,75.8,2.9,75.3,2.8z"/>
	<path fill="#5E537C" d="M77.4,2.2c-0.5-0.2-0.8-0.4-0.8-0.6c0.1-0.2,0.5-0.2,0.9,0c0.5,0.2,0.8,0.4,0.8,0.6
		C78.3,2.3,77.9,2.3,77.4,2.2z"/>
	<path fill="#5E537C" d="M79.8,2.1c-0.4-0.2-0.7-0.5-0.7-0.7s0.5-0.1,0.9,0.1c0.4,0.2,0.7,0.5,0.7,0.7C80.7,2.4,80.3,2.3,79.8,2.1z"/>
	<path fill="#5E537C" d="M74.4,6.6c-0.5-0.2-0.9-0.5-0.8-0.7c0.1-0.2,0.5-0.2,1,0c0.5,0.2,0.9,0.5,0.8,0.7
		C75.4,6.7,74.9,6.7,74.4,6.6z"/>
	<path fill="#5E537C" d="M70.8,5.4c-0.5-0.2-0.9-0.5-0.8-0.7c0.1-0.2,0.5-0.2,1,0c0.5,0.2,0.9,0.5,0.8,0.7
		C71.7,5.6,71.3,5.6,70.8,5.4z"/>
	<g>
		<path fill="#231F20" d="M12.7-21.6c0,0,0.5,0.1,1.4,0.1c0.8,0,1.9-0.1,3-0.4c0.5-0.2,1.1-0.4,1.6-0.7c0.2-0.2,0.5-0.3,0.6-0.5
			c0.2-0.2,0.3-0.4,0.4-0.6c0.1-0.2,0.2-0.4,0.3-0.5c0.1-0.2,0.1-0.3,0.1-0.4c0.1-0.2,0.1-0.4,0.1-0.4l-0.1,0c0,0-0.1,0.1-0.3,0.3
			c-0.1,0.1-0.2,0.2-0.3,0.3c-0.1,0.1-0.3,0.2-0.4,0.3c-0.1,0.1-0.3,0.2-0.5,0.4c-0.2,0.1-0.4,0.2-0.6,0.4c-0.2,0.2-0.4,0.3-0.6,0.4
			c-0.2,0.1-0.4,0.2-0.7,0.4c-0.9,0.4-2,0.6-2.8,0.8C13.2-21.7,12.7-21.7,12.7-21.6L12.7-21.6z"/>
	</g>
	<g>
		<g>
			<defs>
				<path id="SVGID_7_" d="M21.7,11.1c-4.6-6.2-3.2-9.2-1.5-12.1c0,0-7.1-7.6-3.6-13.6l3.9-5.4c0,0,2.5-6.2,6.1-6.5s4.1,0.4,4.1,0.4
					s4.6,0.8,5.8,0s3.1-1.6,4.1-1.6s1,1.9-0.2,2.4c0,0,2-0.1,2.5-1.1s2.9-1.2,2.6,0.2c0,0,1.2,0.2,1,0.9s-1.5,3.6-11.4,3L29-22.7
					c0,0-1.4,1.1-2.2,2.6s-1.5,2.8-1.4,5.2c0,0,2-1.6,3.8-1.6"/>
			</defs>
			<use xlink:href="#SVGID_7_" overflow="visible" fill="#E6E7E8"/>
			
			<path clip-path="url(#SVGID_8_)" fill="#F9F9F4" stroke="#CCCBC4" stroke-linecap="round" stroke-miterlimit="10" d="M33.9-10.9
				c-4.5,0.6-5.2,4-3.9,3c1.3-1,3.2-0.8,3.2-0.8s-2.2,2.2-2.5,4.3c-0.1,0.8-0.2,1.5-0.4,2c0,0.2,0.1,0.3,0.3,0.2
				c1-0.5,2.4-1.6,5.7-0.7l-0.8-0.8c0,0,2.5-0.6,4.5,0.4s5.9,4,8.4,3.9c0,0-2.4,1.4-4,3.9c-0.1,0.2,0.1,0.5,0.3,0.4
				c1.2-0.5,3-1.2,5.3-1.7c2.7-0.5,5.5-0.4,8.1,0.5c0.8,0.3,1.5,0.6,1.8,1c0,0-2,0.4-2.8,1.8c0,0,4.2,3.1,10.4,2.2
				c5.8-0.7,14-0.6,14-0.6l10.2,1.5l-4.9-20.1L56.4-33.1l-56.6,2.5l-13,10.8c4.5-1.2,3.8,0.5,3.8,0.5s-0.4,1.9,0.6,2.8
				c1,0.9,1.4,1.9,1.4,1.9c-0.6,1.1,1.2,1.6,1.2,1.6c-0.2-0.1-2.9,0.5-2.9,0.5c0.4,1.9,4.1,2,4.1,2c-3.5,0.4-4,2.9-4,2.9
				c1.6,3,10.8,0.9,15-0.9s9.6-1.6,9.6-1.6c-0.1-5.2,4.5-8.5,4.9-9.9s0.9-2.1,0.9-2.1l3.9-8.9c0,0,20.3-0.4,24.7,1
				c4,1.3,8.7,9.5,8.7,9.5l-30-2c-2.5,0.8-6.2,7.8-6.8,9.1c0,0.1,1.1,1.2,1.1,2.4l3.1-1.4c0,0-1.1,2-0.6,3.1c0,0,3.8-3,6.8-2.4
				C33.5-11.4,33.9-10.9,33.9-10.9z"/>
			<use xlink:href="#SVGID_7_" overflow="visible" fill="none" stroke="#808184" stroke-miterlimit="10"/>
		</g>
		<g>
			<path fill="#808184" d="M37.1-22.4c0,0,0.6,0,1.5,0c0.5,0,1-0.1,1.6-0.2c0.6-0.1,1.2-0.2,1.8-0.4c0.3-0.1,0.6-0.2,0.9-0.3
				c0.3-0.1,0.6-0.3,0.8-0.4c0.3-0.2,0.5-0.4,0.7-0.6c0.2-0.2,0.3-0.5,0.5-0.7c0.1-0.2,0.2-0.5,0.3-0.6c0.1-0.2,0.1-0.4,0.1-0.5
				c0-0.3,0-0.4,0-0.4l-0.1,0c0,0-0.1,0.1-0.3,0.3c-0.1,0.1-0.1,0.2-0.3,0.4c-0.1,0.1-0.2,0.3-0.4,0.4c-0.2,0.1-0.3,0.3-0.5,0.4
				c-0.2,0.1-0.4,0.3-0.6,0.4c-0.4,0.3-0.9,0.6-1.4,0.9c-1.1,0.5-2.2,0.8-3.1,1c-0.9,0.2-1.5,0.3-1.5,0.3L37.1-22.4z"/>
		</g>
	</g>
	<path fill="none" stroke="#CCCBC4" stroke-miterlimit="10" d="M26.5-10c0,0,1-1,4.3-1.8"/>
	<path fill="#FFFFFF" d="M27.8-12.9c0,0-0.7,2.3,0.9,1l2.5-1.5l-0.4-0.7L27.8-12.9z"/>
	<g>
		<defs>
			<path id="SVGID_9_" d="M-15.4-6.3c0,0-0.3-5.8,1.8-7.5c0,0-0.5-2.2-1.4-2.8c-0.9-0.6-5.6-7.2,8.8-8.2c0,0,11.3,0.7,14.2,0.2
				c0,0,2.1-1.1,2.6-2.5s3.1-1.5,3.4-0.7c0.3,0.8-0.3,2.5-1.8,3c0,0,2.8-0.7,3.1-1.8c0.3-1.2,3.2-1.1,3.2-0.2c0,0,1.8-0.2,1.9,0.2
				c0.1,0.4,0.8,0.8-0.8,2.7c0,0,0.6,1.6-1.8,2c-2.4,0.4-9.3,0.5-10.3,0.4s-4.8-0.2-6.6,1.9"/>
		</defs>
		<use xlink:href="#SVGID_9_" overflow="visible" fill="#E6E7E8"/>
		
		<path clip-path="url(#SVGID_10_)" fill="#F9F9F4" stroke="#CCCBC4" stroke-linecap="round" stroke-miterlimit="10" d="M33.9-10.9
			c-4.5,0.6-5.2,4-3.9,3c1.3-1,3.2-0.8,3.2-0.8s-2.2,2.2-2.5,4.3c-0.1,0.8-0.2,1.5-0.4,2c0,0.2,0.1,0.3,0.3,0.2
			c1-0.5,2.4-1.6,5.7-0.7l-0.8-0.8c0,0,2.5-0.6,4.5,0.4s5.9,4,8.4,3.9c0,0-2.4,1.4-4,3.9c-0.1,0.2,0.1,0.5,0.3,0.4
			c1.2-0.5,3-1.2,5.3-1.7c2.7-0.5,5.5-0.4,8.1,0.5c0.8,0.3,1.5,0.6,1.8,1c0,0-2,0.4-2.8,1.8c0,0,4.2,3.1,10.4,2.2
			c5.8-0.7,14-0.6,14-0.6l10.2,1.5l-4.9-20.1L56.4-33.1l-56.6,2.5c0,0-16.8,4.9-16.3,10.3c0.3,3.5,7.3,3.5,10.3,7.2
			c0.1,0.1-2.9,0.5-2.9,0.5c0.4,1.9,4.1,2,4.1,2c-3.5,0.4-4,2.9-4,2.9c1.6,3,10.8,0.9,15-0.9s9.6-1.6,9.6-1.6
			c-0.1-5.2,4.5-8.5,4.9-9.9s0.9-2.1,0.9-2.1l3.9-8.9c0,0,20.3-0.4,24.7,1c4,1.3,8.7,9.5,8.7,9.5l-30-2c-2.5,0.8-6.2,7.8-6.8,9.1
			c0,0.1,1.1,1.2,1.1,2.4l3.1-1.4c0,0-1.1,2-0.6,3.1c0,0,3.8-3,6.8-2.4C33.5-11.4,33.9-10.9,33.9-10.9z"/>
		<use xlink:href="#SVGID_9_" overflow="visible" fill="none" stroke="#808184" stroke-miterlimit="10"/>
	</g>
	<g>
		<path fill="#808184" d="M13.4-16.8c0,0-0.1-0.2-0.2-0.6c-0.1-0.2-0.2-0.4-0.4-0.7c-0.2-0.2-0.4-0.5-0.6-0.8
			c-0.1-0.1-0.3-0.3-0.4-0.4c-0.2-0.1-0.3-0.2-0.5-0.4c-0.3-0.2-0.7-0.5-1.1-0.7c-0.4-0.2-0.9-0.4-1.3-0.5c-0.5-0.2-0.9-0.2-1.4-0.3
			c-0.5-0.1-1-0.1-1.4-0.1c-0.5-0.1-0.9,0-1.4,0c-0.9,0.1-1.7,0.4-2.4,0.6c-0.3,0.1-0.6,0.3-0.9,0.4c-0.3,0.1-0.5,0.3-0.7,0.4
			c-0.4,0.2-0.6,0.4-0.6,0.4l0,0.1c0,0,0.2,0,0.7,0c0.4,0,1,0,1.7-0.1c0.3,0,0.7,0,1.1-0.1c0.4,0,0.8-0.1,1.2-0.1
			c0.4,0,0.8-0.1,1.3-0.2c0.4,0,0.9-0.1,1.3-0.1c0.4,0,0.9,0,1.3,0.1c0.4,0,0.8,0.2,1.2,0.3c0.4,0.1,0.7,0.3,1.1,0.5
			c0.2,0.1,0.3,0.2,0.5,0.3c0.1,0.1,0.3,0.2,0.4,0.3c0.3,0.2,0.5,0.4,0.7,0.6c0.2,0.2,0.3,0.4,0.4,0.6c0.2,0.3,0.3,0.5,0.3,0.5
			L13.4-16.8z"/>
	</g>
	<g>
		<path fill="#808184" d="M9.9-21.5c0,0,0.7,0,1.7-0.1c0.5,0,1.1-0.1,1.7-0.3c0.6-0.1,1.3-0.4,1.9-0.6c0.3-0.1,0.6-0.3,1-0.5
			c0.3-0.2,0.6-0.4,0.9-0.6c0.2-0.2,0.5-0.5,0.7-0.7c0.2-0.3,0.3-0.5,0.4-0.8c0.1-0.3,0.2-0.5,0.2-0.7c0-0.2,0.1-0.4,0.1-0.6
			c0-0.3,0-0.5,0-0.5l-0.1,0c0,0-0.1,0.1-0.3,0.4c-0.1,0.1-0.2,0.3-0.3,0.4c-0.1,0.2-0.3,0.3-0.4,0.5c-0.1,0.2-0.3,0.4-0.5,0.6
			c-0.2,0.2-0.4,0.4-0.6,0.6c-0.2,0.2-0.5,0.4-0.7,0.6c-0.3,0.2-0.5,0.4-0.8,0.5c-0.6,0.3-1.2,0.6-1.8,0.8c-0.6,0.2-1.1,0.4-1.6,0.5
			C10.5-21.6,9.9-21.6,9.9-21.5L9.9-21.5z"/>
	</g>
	<path fill="none" stroke="#CCCBC4" stroke-miterlimit="10" d="M-8.6-15c0,0,1.8,1,2.3,1.9l-2.9,0.5c0,0,0.3,1.2,2.4,1.8"/>
	<g>
		<g>
			<path fill="#BCBEC0" d="M52.6,16.2c0,0,4.8-0.6,9.5-1.8c1.2-0.3,2.4-0.6,3.4-0.9c0.5-0.2,1.1-0.4,1.5-0.6
				c0.5-0.2,0.9-0.4,1.4-0.6c0.4-0.2,0.8-0.4,1.1-0.6c0.3-0.2,0.6-0.4,0.8-0.6c0.4-0.4,0.6-0.6,0.6-0.6l0,0c0,0-0.3,0.2-0.7,0.5
				c-0.2,0.2-0.5,0.3-0.8,0.4c-0.3,0.2-0.7,0.3-1.1,0.5c-0.8,0.4-1.8,0.7-2.9,1c-0.5,0.2-1.1,0.3-1.7,0.5c-0.6,0.2-1.1,0.3-1.7,0.5
				C57.4,15.3,52.6,16.2,52.6,16.2L52.6,16.2z"/>
		</g>
		<g>
			<path fill="#BCBEC0" d="M47.1,9.7c0,0,1.4,0.1,3.5,0.2c2.1,0.1,4.9,0.2,7.7,0.2c1.4,0,2.8,0,4.1-0.1c1.3-0.1,2.6-0.2,3.6-0.4
				c0.5-0.1,1-0.2,1.4-0.3C68,9.2,68.3,9.1,68.6,9c0.3-0.1,0.5-0.2,0.7-0.3c0.1-0.1,0.2-0.1,0.2-0.1l0,0c0,0-0.1,0-0.2,0.1
				c-0.2,0-0.4,0.1-0.7,0.2C68.3,8.9,67.9,9,67.5,9c-0.4,0.1-0.9,0.1-1.4,0.2c-1,0.1-2.3,0.2-3.6,0.2c-1.3,0.1-2.7,0.2-4.1,0.2
				C52.8,9.8,47.1,9.7,47.1,9.7L47.1,9.7z"/>
		</g>
		<g>
			<path fill="#BCBEC0" d="M60.7,5.3c0,0,1.9,0.8,4,1.4c0.5,0.2,1,0.3,1.5,0.4c0.5,0.1,0.9,0.1,1.3,0.2c0.8,0,1.3-0.1,1.3-0.1v0
				c0,0-0.5-0.1-1.3-0.3c-0.4-0.1-0.8-0.2-1.3-0.3c-0.5-0.1-1-0.2-1.5-0.3C62.8,5.9,60.8,5.3,60.7,5.3L60.7,5.3z"/>
		</g>
		<g>
			<path fill="#BCBEC0" d="M60.5-0.1c0,0,2.4,1.7,5,3.1c0.7,0.4,1.3,0.7,1.9,1c0.6,0.3,1.3,0.5,1.8,0.7c0.3,0.1,0.5,0.1,0.7,0.2
				c0.2,0,0.4,0.1,0.6,0.1c0.3,0,0.5,0,0.5,0l0,0c0,0-0.2-0.1-0.5-0.1c-0.2,0-0.3-0.1-0.5-0.2c-0.2-0.1-0.4-0.2-0.7-0.3
				c-0.5-0.2-1.1-0.5-1.7-0.8c-0.6-0.3-1.3-0.6-2-0.9C63.1,1.4,60.5-0.1,60.5-0.1L60.5-0.1z"/>
		</g>
		<g>
			<path fill="#BCBEC0" d="M65-2.2c0,0,1.3,1.5,2.8,2.8c0.4,0.3,0.7,0.7,1.1,0.9c0.4,0.3,0.8,0.5,1.1,0.6c0.3,0.2,0.7,0.2,0.9,0.3
				c0.2,0,0.3,0,0.3,0l0,0c0,0-0.1-0.1-0.3-0.2c-0.2-0.1-0.5-0.2-0.7-0.5c-0.3-0.2-0.6-0.5-1-0.7c-0.4-0.3-0.8-0.5-1.2-0.8
				C66.5-0.8,65-2.2,65-2.2L65-2.2z"/>
		</g>
	</g>
</symbol>
<use xlink:href="#New_Symbol_15" width="187.5" height="80.2" id="XMLID_107_" x="-93.8" y="-40.1" transform="matrix(2.2671 0 0 -2.2671 250.0017 250)" overflow="visible"/>
</svg>
