<?xml version="1.0" encoding="utf-8"?>
<!-- Generator: Adobe Illustrator 18.1.1, SVG Export Plug-In . SVG Version: 6.00 Build 0)  -->
<svg version="1.1" id="Layer_1" xmlns="http://www.w3.org/2000/svg" xmlns:xlink="http://www.w3.org/1999/xlink" x="0px" y="0px" width="500px" height="500px" viewBox="0 0 500 500" enable-background="new 0 0 500 500" xml:space="preserve"><clipPath id="SVGID_10_">
			<use xlink:href="#SVGID_9_" overflow="visible"/>
		</clipPath><clipPath id="SVGID_8_">
				<use xlink:href="#SVGID_7_" overflow="visible"/>
			</clipPath><clipPath id="SVGID_6_">
			<use xlink:href="#SVGID_5_" overflow="visible"/>
		</clipPath><clipPath id="SVGID_4_">
			<use xlink:href="#SVGID_3_" overflow="visible"/>
		</clipPath><clipPath id="SVGID_2_">
			<use xlink:href="#SVGID_1_" overflow="visible"/>
		</clipPath>
<symbol id="New_Symbol_15" viewBox="-93.76 -40.123 187.517 80.246">
	<g>
		<path fill="#E6E7E8" stroke="#808184" stroke-miterlimit="10" d="M61.494-0.574c3.875-5.25-4.5-14.75-4.5-14.75
			c-0.117-2.5,2.511-4.75,2.511-4.75l5.728,0.25c9.235,0.625,10.404-2.375,10.638-3c0.234-0.625-0.935-0.875-0.935-0.875
			c0.234-1.5-1.987-1.25-2.455-0.25c-0.468,1-2.338,1.125-2.338,1.125c1.169-0.5,1.169-2.375,0.234-2.375s-2.806,0.875-3.858,1.625
			s-5.378,0-5.378,0s-0.468-0.625-3.858-0.375s-5.728,6.5-5.728,6.5l-3.624,5.375c-3.273,6,3.39,13.625,3.39,13.625
			c-1.637,2.875-2.923,5.875,1.403,12.125L61.494-0.574z"/>
		<g>
			<path fill="#808184" d="M67.104-19.776c0,0,0.581,0.037,1.454-0.006c0.875-0.03,2.042-0.197,3.185-0.567
				c0.29-0.081,0.569-0.197,0.849-0.31c0.288-0.094,0.537-0.273,0.793-0.412c0.243-0.162,0.45-0.372,0.642-0.56
				c0.177-0.21,0.323-0.43,0.453-0.627c0.11-0.214,0.181-0.427,0.248-0.604c0.078-0.173,0.067-0.356,0.084-0.489
				c0.025-0.272,0.018-0.42,0.018-0.42l-0.094-0.023c0,0-0.103,0.123-0.244,0.326c-0.085,0.096-0.135,0.23-0.266,0.345
				c-0.109,0.119-0.232,0.254-0.366,0.401c-0.159,0.124-0.311,0.267-0.477,0.411c-0.196,0.118-0.365,0.276-0.572,0.41
				c-0.207,0.136-0.403,0.302-0.636,0.436c-0.225,0.146-0.462,0.281-0.716,0.395c-1.001,0.479-2.112,0.76-2.946,0.951
				c-0.839,0.185-1.412,0.245-1.412,0.245L67.104-19.776z"/>
		</g>
	</g>
	<path fill="#231F20" stroke="#231F20" stroke-miterlimit="10" d="M74.369,12.051c0,0,1.81,1.709,3.265,2.242
		c0.309,0.113,0.508,0.403,0.5,0.732c-0.031,1.317-0.475,4.425-3.89,5.401c-5.102,1.458-6.5-3.5-6.125-4.75
		S68.994,12.176,74.369,12.051z"/>
	<g>
		<defs>
			<path id="SVGID_1_" d="M-16.131-9.699c0,0,0.417-6.75-14-10c-11.221-2.53-58.048,3.415-62.5-11
				c-3.938-12.75,30.062-5.625,48.625-8.688c2.302-0.38,3.375,0.688,1.375,1.188s-6.244,3.076-27,3
				c-22.75-0.083-19.915,5.812-7.25,8.5c17.667,3.75,59-4,65,9.75L-16.131-9.699z"/>
		</defs>
		<use xlink:href="#SVGID_1_" overflow="visible" fill="#E4B8D5"/>
		
		<g clip-path="url(#SVGID_2_)">
			<g>
				<path fill="#E4B8D5" d="M-21.548-18.116c0.333-0.5,0-3.667,4.5-6.167"/>
				<path fill="#CE8DBD" d="M-21.503-18.094c0,0,0.072-0.095,0.145-0.326c0.068-0.211,0.154-0.51,0.279-0.854
					c0.252-0.688,0.685-1.548,1.32-2.247c0.311-0.355,0.687-0.642,1.014-0.93c0.332-0.287,0.615-0.588,0.878-0.842
					c0.246-0.273,0.478-0.477,0.617-0.661c0.149-0.169,0.227-0.284,0.227-0.284l-0.049-0.087c0,0-0.134,0.014-0.357,0.069
					c-0.227,0.049-0.548,0.131-0.896,0.309c-0.36,0.157-0.747,0.407-1.121,0.728c-0.351,0.349-0.666,0.777-0.95,1.218
					c-0.577,0.882-0.928,1.883-1.021,2.643c-0.056,0.378-0.08,0.69-0.104,0.903c-0.017,0.197-0.071,0.319-0.071,0.319
					L-21.503-18.094z"/>
			</g>
			<g>
				<path fill="#E4B8D5" d="M-19.461-17.798c0.401-0.448,0.518-3.63,5.327-5.469"/>
				<path fill="#CE8DBD" d="M-19.42-17.77c0,0,0.085-0.084,0.19-0.302c0.097-0.199,0.225-0.483,0.397-0.806
					c0.347-0.645,0.897-1.435,1.625-2.038c0.358-0.307,0.771-0.538,1.135-0.778c0.369-0.238,0.692-0.495,0.988-0.71
					c0.282-0.236,0.541-0.404,0.705-0.567c0.171-0.147,0.265-0.249,0.265-0.249l-0.036-0.093c0,0-0.135-0.005-0.364,0.017
					c-0.232,0.016-0.561,0.052-0.931,0.179c-0.378,0.105-0.797,0.298-1.212,0.562c-0.397,0.296-0.769,0.675-1.113,1.072
					c-0.696,0.791-1.185,1.733-1.384,2.472c-0.109,0.366-0.177,0.672-0.231,0.88c-0.044,0.192-0.115,0.306-0.115,0.306L-19.42-17.77
					z"/>
			</g>
			<g>
				<path fill="#E4B8D5" d="M-18.079-16.196c0.434-0.415,0.798-3.579,5.735-5.039"/>
				<path fill="#CE8DBD" d="M-18.04-16.164c0,0,0.091-0.077,0.213-0.286c0.113-0.191,0.261-0.464,0.458-0.773
					c0.396-0.616,1.006-1.361,1.778-1.905c0.381-0.278,0.81-0.477,1.192-0.687c0.386-0.208,0.729-0.44,1.04-0.631
					c0.299-0.213,0.571-0.361,0.746-0.511c0.182-0.133,0.283-0.228,0.283-0.228l-0.028-0.096c0,0-0.134-0.016-0.364-0.011
					c-0.232-0.002-0.564,0.009-0.942,0.106c-0.385,0.075-0.818,0.235-1.252,0.467c-0.418,0.265-0.819,0.614-1.193,0.982
					c-0.756,0.735-1.316,1.636-1.572,2.357c-0.137,0.357-0.228,0.656-0.298,0.859c-0.06,0.188-0.138,0.296-0.138,0.296
					L-18.04-16.164z"/>
			</g>
			<g>
				<path fill="#E4B8D5" d="M-87.381-27.949c0,0,2.833,0,3-2.167"/>
				<path fill="#CE8DBD" d="M-87.381-27.899c0,0,0.26,0.05,0.662,0.061c0.404,0.02,0.949-0.057,1.494-0.282
					c0.265-0.121,0.558-0.256,0.763-0.482c0.197-0.228,0.295-0.514,0.31-0.75c0.022-0.24-0.015-0.432-0.083-0.564
					c-0.049-0.129-0.096-0.196-0.096-0.196l-0.1-0.008c-0.016-0.005-0.228,0.248-0.466,0.477c-0.116,0.119-0.239,0.232-0.356,0.363
					c-0.098,0.145-0.214,0.324-0.381,0.472c-0.339,0.289-0.794,0.483-1.142,0.624c-0.354,0.133-0.606,0.185-0.606,0.185
					L-87.381-27.899z"/>
			</g>
			<g>
				<path fill="#E4B8D5" d="M-85.11-26.436c0,0,2.278-1.685,1.123-3.526"/>
				<path fill="#CE8DBD" d="M-85.079-26.396c0,0,0.239-0.114,0.568-0.345c0.337-0.224,0.729-0.61,1.033-1.115
					c0.141-0.255,0.296-0.538,0.327-0.841c0.023-0.3-0.069-0.589-0.197-0.788c-0.125-0.207-0.269-0.338-0.402-0.404
					c-0.116-0.075-0.194-0.1-0.194-0.1l-0.085,0.053c-0.016,0.005-0.036,0.335-0.091,0.661c-0.023,0.165-0.054,0.328-0.07,0.504
					c0.008,0.175,0.021,0.388-0.026,0.606c-0.101,0.435-0.352,0.861-0.547,1.181c-0.205,0.318-0.377,0.509-0.377,0.509
					L-85.079-26.396z"/>
			</g>
			<g>
				<path fill="#E4B8D5" d="M-89.048-37.783c0,0-1.5,2.833,0.167,4.833"/>
				<path fill="#CE8DBD" d="M-89.093-37.805c0,0-0.196,0.264-0.425,0.705c-0.235,0.439-0.459,1.077-0.549,1.77
					c-0.035,0.345-0.083,0.71-0.018,1.049c0.069,0.335,0.236,0.627,0.415,0.836c0.178,0.214,0.358,0.355,0.517,0.422
					c0.141,0.079,0.232,0.107,0.232,0.107l0.077-0.064c0,0-0.002-0.102-0.024-0.25c-0.019-0.151-0.054-0.345-0.082-0.565
					c-0.032-0.219-0.068-0.455-0.116-0.707c-0.049-0.12-0.066-0.254-0.114-0.389c-0.051-0.134-0.056-0.281-0.087-0.425
					c-0.07-0.587,0.015-1.204,0.081-1.672c0.079-0.467,0.182-0.771,0.182-0.771L-89.093-37.805z"/>
			</g>
			<g>
				<path fill="#E4B8D5" d="M-92.048-35.783c0,0-1,3.5,1.833,4"/>
				<path fill="#CE8DBD" d="M-92.096-35.796c0,0-0.136,0.293-0.264,0.766c-0.139,0.472-0.211,1.144-0.068,1.854
					c0.086,0.346,0.198,0.731,0.445,1.013c0.122,0.141,0.258,0.258,0.415,0.326c0.145,0.086,0.289,0.146,0.432,0.165
					c0.278,0.069,0.508,0.05,0.669,0.004c0.157-0.03,0.243-0.067,0.243-0.067l0.017-0.098c0,0-0.066-0.077-0.175-0.176
					c-0.053-0.055-0.117-0.111-0.188-0.169c-0.071-0.058-0.134-0.145-0.21-0.21c-0.15-0.141-0.288-0.301-0.427-0.468
					c-0.163-0.144-0.335-0.334-0.465-0.574c-0.241-0.492-0.312-1.104-0.343-1.563C-92.037-35.456-92-35.769-92-35.769
					L-92.096-35.796z"/>
			</g>
			<g>
				<path fill="#E4B8D5" d="M-93.715-32.116c0,0,1.667,3.667,3.667,3.5"/>
				<path fill="#CE8DBD" d="M-93.76-32.095c0,0,0.094,0.326,0.28,0.803c0.177,0.483,0.488,1.094,0.891,1.677
					c0.203,0.289,0.403,0.6,0.677,0.829c0.273,0.222,0.607,0.354,0.904,0.402c0.139,0.04,0.296,0.014,0.413,0.013
					c0.12-0.002,0.226-0.038,0.31-0.076c0.165-0.063,0.243-0.119,0.243-0.119l-0.008-0.1c0,0-0.089-0.061-0.215-0.133
					c-0.063-0.04-0.134-0.078-0.209-0.144c-0.075-0.064-0.156-0.102-0.238-0.184c-0.08-0.083-0.171-0.13-0.26-0.224
					c-0.087-0.091-0.19-0.156-0.292-0.251c-0.222-0.151-0.486-0.323-0.719-0.536c-0.473-0.423-0.875-0.945-1.193-1.328
					c-0.31-0.391-0.493-0.671-0.493-0.671L-93.76-32.095z"/>
			</g>
			<g>
				<path fill="#E4B8D5" d="M-53.881-39.616c0,0-0.333,2.167,1,3.167"/>
				<path fill="#CE8DBD" d="M-53.931-39.623c0,0-0.355,0.852-0.241,1.83c0.029,0.24,0.043,0.502,0.14,0.726
					c0.107,0.217,0.281,0.385,0.452,0.491c0.345,0.224,0.679,0.159,0.668,0.167l0.06-0.08c0,0-0.006-0.082-0.028-0.191
					c-0.017-0.114-0.046-0.253-0.078-0.399c-0.031-0.148-0.07-0.297-0.139-0.447c-0.087-0.139-0.212-0.29-0.301-0.468
					c-0.172-0.357-0.264-0.766-0.346-1.08c-0.071-0.317-0.089-0.536-0.089-0.536L-53.931-39.623z"/>
			</g>
			<g>
				<path fill="#E4B8D5" d="M-52.381-40.116c0,0-0.333,2.167,1,3.167"/>
				<path fill="#CE8DBD" d="M-52.431-40.123c0,0-0.355,0.852-0.241,1.83c0.029,0.24,0.043,0.502,0.14,0.726
					c0.107,0.217,0.281,0.385,0.452,0.491c0.345,0.224,0.679,0.159,0.668,0.167l0.06-0.08c0,0-0.006-0.082-0.028-0.191
					c-0.017-0.114-0.046-0.253-0.078-0.399c-0.031-0.148-0.07-0.297-0.139-0.447c-0.087-0.139-0.212-0.29-0.301-0.468
					c-0.172-0.357-0.264-0.766-0.346-1.08c-0.071-0.317-0.089-0.536-0.089-0.536L-52.431-40.123z"/>
			</g>
			<g>
				<path fill="#E4B8D5" d="M-49.215-39.949c0,0-0.333,2.167,1,3.167"/>
				<path fill="#CE8DBD" d="M-49.264-39.956c0,0-0.355,0.852-0.24,1.83c0.029,0.24,0.043,0.502,0.14,0.726
					c0.107,0.217,0.281,0.385,0.453,0.491c0.345,0.224,0.679,0.159,0.668,0.167l0.06-0.08c0,0-0.006-0.082-0.028-0.191
					c-0.017-0.114-0.046-0.253-0.078-0.399c-0.031-0.148-0.07-0.297-0.139-0.447c-0.087-0.139-0.212-0.29-0.301-0.467
					c-0.172-0.357-0.263-0.766-0.346-1.08c-0.071-0.317-0.089-0.536-0.089-0.536L-49.264-39.956z"/>
			</g>
		</g>
		<use xlink:href="#SVGID_1_" overflow="visible" fill="none" stroke="#B276A5" stroke-miterlimit="10"/>
	</g>
	<g>
		<g>
			<path fill="#A7A9AC" d="M80.914,14.181c0,0,0.262,0.902,0.923,2.137c0.644,1.243,1.685,2.803,2.876,4.241
				c0.587,0.726,1.206,1.427,1.813,2.057c0.611,0.628,1.22,1.173,1.75,1.63c0.523,0.465,0.996,0.809,1.318,1.058
				c0.326,0.245,0.512,0.385,0.512,0.385l0.022-0.027c0,0-0.666-0.648-1.665-1.621c-0.502-0.481-1.072-1.057-1.677-1.68
				c-0.315-0.299-0.611-0.636-0.93-0.961c-0.321-0.324-0.621-0.676-0.929-1.022c-1.223-1.392-2.291-2.914-2.983-4.12
				c-0.703-1.203-0.997-2.088-0.997-2.088L80.914,14.181z"/>
		</g>
		<g>
			<path fill="#A7A9AC" d="M92.128,20.786c0,0-0.626-0.409-1.526-1.079c-0.897-0.672-2.08-1.586-3.192-2.58
				c-0.554-0.499-1.094-1.013-1.587-1.505c-0.502-0.484-0.965-0.941-1.352-1.343c-0.388-0.401-0.706-0.742-0.925-0.985
				c-0.223-0.241-0.351-0.378-0.351-0.378l-0.028,0.021c0,0,0.103,0.157,0.284,0.432c0.172,0.283,0.459,0.654,0.812,1.096
				c0.364,0.431,0.798,0.929,1.305,1.419c0.508,0.49,1.081,0.978,1.659,1.457c1.156,0.959,2.37,1.842,3.304,2.467
				c0.932,0.628,1.578,1.009,1.578,1.009L92.128,20.786z"/>
		</g>
		<g>
			<path fill="#A7A9AC" d="M84.92,11.564c0,0,1.238,1.108,2.728,1.869c0.367,0.197,0.748,0.373,1.118,0.51
				c0.375,0.125,0.741,0.189,1.054,0.233c0.319,0.015,0.581,0.031,0.765-0.007c0.181-0.024,0.285-0.038,0.285-0.038l-0.002-0.035
				c0,0-0.415-0.05-1-0.193c-0.581-0.162-1.348-0.402-2.099-0.721c-1.493-0.661-2.827-1.644-2.827-1.644L84.92,11.564z"/>
		</g>
		<g>
			<path fill="#A7A9AC" d="M85.552,9.255c0,0,1.755,0.468,3.581,0.53c0.455,0.02,0.912,0.026,1.341-0.005
				c0.429-0.038,0.823-0.127,1.156-0.211c0.329-0.107,0.601-0.195,0.777-0.298c0.178-0.09,0.28-0.142,0.28-0.142l-0.013-0.033
				c0,0-0.445,0.104-1.102,0.2c-0.661,0.08-1.54,0.18-2.436,0.208c-1.792,0.03-3.577-0.284-3.577-0.284L85.552,9.255z"/>
		</g>
		<g>
			<path fill="#A7A9AC" d="M84.43,7.506c0,0,0.702,0.05,1.726-0.172c0.51-0.113,1.096-0.285,1.702-0.533
				c0.604-0.249,1.231-0.561,1.827-0.924c0.293-0.188,0.602-0.356,0.876-0.565c0.276-0.204,0.563-0.387,0.809-0.604
				c0.507-0.416,0.938-0.85,1.292-1.234c0.366-0.373,0.619-0.731,0.807-0.969c0.184-0.242,0.288-0.38,0.288-0.38L93.73,2.102
				c0,0-0.128,0.117-0.352,0.323c-0.233,0.196-0.515,0.522-0.913,0.852c-0.375,0.354-0.831,0.743-1.327,1.15
				c-0.235,0.22-0.511,0.404-0.771,0.619c-0.259,0.218-0.551,0.395-0.831,0.594c-0.571,0.378-1.174,0.707-1.758,0.975
				c-0.587,0.263-1.154,0.463-1.651,0.6c-0.998,0.271-1.695,0.256-1.695,0.256L84.43,7.506z"/>
		</g>
		<g>
			<path fill="#A7A9AC" d="M84.504,6.752c0,0,0.12-0.092,0.35-0.2c0.235-0.109,0.572-0.265,0.975-0.451
				c0.805-0.382,1.84-0.997,2.745-1.785c0.929-0.76,1.702-1.703,2.145-2.485c0.236-0.383,0.397-0.72,0.5-0.961
				c0.106-0.238,0.166-0.375,0.166-0.375L91.353,0.48c0,0-0.087,0.12-0.24,0.331c-0.154,0.209-0.351,0.52-0.625,0.866
				c-0.13,0.178-0.265,0.373-0.432,0.563c-0.167,0.188-0.311,0.413-0.502,0.609c-0.351,0.419-0.736,0.861-1.167,1.258
				c-0.849,0.811-1.844,1.452-2.615,1.885c-0.391,0.21-0.718,0.385-0.946,0.508c-0.233,0.127-0.344,0.224-0.344,0.224L84.504,6.752z
				"/>
		</g>
	</g>
	<g>
		<defs>
			<path id="SVGID_3_" d="M52.452,27.884c0,0,1,0.5,1,3.667c0,2.666-0.472,5.331,0.671,7.202c0.407,0.667,1.272,0.874,1.956,0.496
				c1.888-1.045,5.54-5.698,4.54-13.364L52.452,27.884z"/>
		</defs>
		<use xlink:href="#SVGID_3_" overflow="visible" fill="#E6E7E8"/>
		
		<path clip-path="url(#SVGID_4_)" fill="#929497" stroke="#696C70" stroke-miterlimit="10" d="M54.119,26.051
			c0,0,1.667,1,1.333,5.167c-0.333,4.167-1.833,10,1.833,8l8.667-6.5l1.5-5.5l-4.333-7.667L54.119,26.051z"/>
		<use xlink:href="#SVGID_3_" overflow="visible" fill="none" stroke="#808184" stroke-miterlimit="10"/>
	</g>
	<g>
		<defs>
			<path id="SVGID_5_" d="M78.452,16.551c-3.667,1.667-10.624,7.754-15,9.833c-11.586,5.506-22.383,1.38-27.988-1.728l0,0
				c-0.74,0.492-1.533,0.899-2.364,1.213c-2.846,1.075-9.785,3.613-13.565,4.264c-5.868,1.012-9.917,0.667-9.917,0.667
				c0.75-1.5,1.917-1.5,1.917-1.5c-6.5,0.417-10.167-3-14.167-3.25s-6-1.5-6-1.5l1.5-1.25c-6.25-3-5.5-4.5-5.5-4.5l2.5,0.75
				c-4.5-2.5-4-5.5-4-5.5l2.25,1.75c0,0-3.75-5.5-4.75-9.5s0-13,0-14c0-2.082-0.765-3.741-1.203-4.519
				c-0.18-0.319-0.228-0.706-0.099-1.049c2.709-7.195,10.552-7.432,10.552-7.432s16.5,0.25,36.5-2.25s30.5,14.75,31.25,16.25
				c0.292,0.584,1.114,1.318,2.009,1.998c3.975,0.549,6.074,3.252,6.074,3.252s1.73,0.256,4.333,0.667
				c3.167,0.5,5.833,0.167,5.833,0.167c4.5,0.167,5.833,5.833,5.833,5.833C90.452,11.217,82.119,14.884,78.452,16.551z"/>
		</defs>
		<use xlink:href="#SVGID_5_" overflow="visible" fill="#E6E7E8"/>
		
		<path clip-path="url(#SVGID_6_)" fill="#F9F9F4" stroke="#CCCBC4" stroke-miterlimit="10" d="M33.119-11.283
			c-3.167,1-3.167,3.333-3.167,3.333l3.167-0.833c0,0-2.25,2.208-2.5,4.333c-0.1,0.848-0.247,1.537-0.356,1.975
			c-0.046,0.185,0.149,0.337,0.318,0.248c0.952-0.506,3.705-0.89,6.205,0.777l-0.167-2.5c0,0,1.375-0.375,3.375,0.625
			s5.875,4,8.375,3.875c0,0-2.407,1.393-4.028,3.934C44.21,4.689,44.416,4.94,44.637,4.84c1.162-0.529,2.999-1.235,5.314-1.696
			c2.707-0.539,5.526-0.411,8.126,0.514c0.833,0.296,1.541,0.643,1.791,1.018c0,0-2,0.375-2.75,1.75c0,0,4.173,3.059,10.375,2.25
			c5.75-0.75,14-0.625,14-0.625l10.25,1.5l-4.875-20.125l-30.5-22.5l-56.625,2.5l-13,10.75c4.5-1.25,3.75,0.5,3.75,0.5
			s-0.375,1.875,0.625,2.75c1,0.875,1.375,1.875,1.375,1.875c-0.625,1.125,1.25,1.625,1.25,1.625c-0.161-0.062-2.875,0.5-2.875,0.5
			c0.375,1.875,4.125,2,4.125,2c-3.5,0.375-4,2.875-4,2.875c1.625,3,10.75,0.875,15-0.875s9.625-1.625,9.625-1.625
			c-0.125-5.25,4.5-8.5,4.875-9.875s0.875-2.125,0.875-2.125l7.125-0.75l-0.875,1.5c-2.538,0.772-5.172,6.608-5.756,7.968
			c-0.042,0.099,0.061,0.192,0.158,0.147c0.532-0.246,1.752-0.739,2.973-0.739c0,0-2,1.75-2,3l3.375-0.25c0,0-1.375,0.875-0.875,2
			c0,0,3.75-3,6.75-2.375C33.491-11.439,33.119-11.283,33.119-11.283z"/>
		<path clip-path="url(#SVGID_6_)" fill="#E4B8D5" stroke="#B276A5" stroke-miterlimit="10" d="M72.196,7.69
			c-0.286,0.048-0.377,0.437-0.152,0.633c0.867,0.756,2.628,2.093,4.324,2.19c2.375,0.135,7.375-1.081,9-0.81
			c0,0,1.375,0.54-0.125,2.296s3.75,0,3.5-3.377s-2.019-2.037-2.625-2.837c-1.125-1.486-4.165-1.468-4.165-1.468
			c-0.096-0.008-0.166,0.096-0.13,0.192l0.795,2.086c0,0,0.625,0.54-3.75,0.405C76.943,6.942,73.635,7.45,72.196,7.69z"/>
		<use xlink:href="#SVGID_5_" overflow="visible" fill="none" stroke="#808184" stroke-miterlimit="10"/>
	</g>
	<g>
		<path fill="#808184" d="M68.488-1.484c-0.531-0.54-1.148-0.977-1.789-1.371c-0.643-0.391-1.322-0.723-2.018-1.012
			c-0.7-0.279-1.417-0.519-2.148-0.706c-0.73-0.193-1.474-0.327-2.221-0.441l-0.349-0.053l0.099,0.351l0.471,1.675l0.339-0.324
			c-1.183-0.397-2.38-0.639-3.605-0.776c-1.222-0.141-2.463-0.143-3.696-0.011l-0.607,0.065l0.346,0.51
			c0.215,0.317,0.44,0.583,0.707,0.844c0.267,0.255,0.571,0.492,0.952,0.657l0.173-0.776c-0.882-0.044-1.717,0.012-2.568,0.127
			c-0.845,0.119-1.683,0.313-2.5,0.587c-0.409,0.138-0.808,0.303-1.2,0.489c-0.388,0.19-0.779,0.389-1.139,0.634
			c-0.364,0.241-0.716,0.499-1.041,0.794c-0.347,0.268-0.624,0.614-0.931,0.924c-1.049,1.275-2.15,2.484-3.269,3.703
			c-1.116,1.215-2.26,2.41-3.408,3.607l0.065,0.076c1.34-0.988,2.604-2.07,3.832-3.192c1.23-1.116,2.395-2.324,3.529-3.538
			c0.286-0.266,0.528-0.576,0.845-0.808c0.292-0.259,0.612-0.484,0.942-0.696c0.662-0.415,1.358-0.796,2.109-1.058
			c0.743-0.278,1.517-0.491,2.306-0.633c0.784-0.139,1.606-0.221,2.38-0.212l2.255,0.026l-2.082-0.802
			c-0.496-0.191-0.984-0.683-1.34-1.165l-0.261,0.575c1.166-0.16,2.356-0.195,3.539-0.094c1.179,0.094,2.372,0.302,3.492,0.641
			l0.49,0.148l-0.151-0.472l-0.529-1.658l-0.25,0.298c0.734,0.082,1.467,0.182,2.189,0.342c0.724,0.153,1.435,0.36,2.133,0.605
			c0.694,0.256,1.374,0.554,2.023,0.914c0.645,0.362,1.274,0.77,1.813,1.276L68.488-1.484z"/>
	</g>
	<g>
		<path fill="#E6E7E8" d="M41.785,14.384c-7-1.167-11.833,4.5-13.667,7.333c-1.024,1.583-2.527,4.258-3.394,5.677
			c-0.626,1.025-1.069,2.161-1.213,3.354c-0.269,2.222,0.563,5.721,5.273,5.969c6.333,0.333,10.859-2.393,14.167-4.667
			c2.667-1.833,7.333-4.167,9.833-4.833"/>
		<path fill="#808184" d="M41.785,14.384c0,0-0.237-0.051-0.683-0.146c-0.451-0.073-1.12-0.186-1.985-0.172
			c-0.861,0.014-1.924,0.118-3.095,0.469c-0.585,0.173-1.201,0.393-1.822,0.689c-0.617,0.305-1.205,0.727-1.813,1.163
			c-1.205,0.891-2.375,2.021-3.446,3.346c-1.09,1.324-1.976,2.884-2.9,4.44c-0.459,0.782-0.925,1.577-1.398,2.382
			c-0.479,0.772-1.005,1.673-1.299,2.635c-0.628,1.893-0.549,4.245,0.816,5.967c0.674,0.849,1.644,1.421,2.636,1.721
			c0.984,0.308,2.056,0.355,2.981,0.363c1.976,0.008,3.885-0.29,5.674-0.817c1.785-0.533,3.425-1.29,4.893-2.129
			c1.478-0.823,2.766-1.791,3.97-2.528c1.223-0.742,2.318-1.492,3.345-2.061c1.017-0.586,1.925-1.064,2.684-1.434
			c1.512-0.755,2.438-1.055,2.438-1.055s-0.961,0.17-2.569,0.746c-0.802,0.288-1.766,0.668-2.855,1.146
			c-1.079,0.494-2.326,1.017-3.577,1.796c-1.256,0.804-2.501,1.718-3.931,2.521c-1.419,0.811-2.987,1.533-4.684,2.04
			c-1.691,0.5-3.528,0.783-5.365,0.776c-0.976-0.009-1.845-0.055-2.71-0.319c-0.845-0.258-1.614-0.719-2.15-1.392
			c-1.087-1.362-1.207-3.358-0.644-5.036c0.27-0.868,0.703-1.616,1.206-2.429c0.473-0.806,0.941-1.603,1.4-2.387
			c0.927-1.562,1.785-3.068,2.815-4.318c1.021-1.263,2.133-2.335,3.264-3.171c0.559-0.429,1.148-0.756,1.695-1.081
			c0.541-0.339,1.081-0.619,1.605-0.847c1.047-0.465,2.037-0.692,2.861-0.81c0.827-0.11,1.491-0.116,1.943-0.109
			C41.543,14.37,41.785,14.384,41.785,14.384z"/>
	</g>
	<g>
		<path fill="#929497" d="M35.945,24.771c6.094-3.899,6.215-6.616,5.813-7.824c-0.142-0.426-0.547-0.722-0.999-0.735
			c-7.985-0.22-11.233,5.743-13.074,8.799c-2.233,3.706-3.5,6.262-1.566,8.206c0.797,0.801,7.333,2.5,14.697-2.631
			c4.783-3.332,6.555-4.923,7.364-5.432c0.238-0.15,0.217-0.504-0.04-0.619c-1.332-0.596-4.892-1.47-11.342,1.66"/>
		<path fill="#696C70" d="M35.945,24.771c0,0,0.253-0.147,0.727-0.423c0.471-0.275,1.171-0.69,1.997-1.309
			c0.818-0.625,1.821-1.41,2.711-2.617c0.437-0.604,0.841-1.34,0.992-2.249c0.058-0.461,0.033-0.942-0.152-1.44
			c-0.231-0.582-0.782-1.007-1.474-1.021c-0.438,0.009-0.885,0.018-1.34,0.027c-0.468,0.035-0.962,0.107-1.454,0.163
			c-0.482,0.102-0.971,0.202-1.46,0.337c-0.477,0.175-0.983,0.295-1.451,0.534c-1.931,0.823-3.695,2.247-5.109,3.994
			c-1.438,1.756-2.529,3.743-3.698,5.746c-0.559,1.021-1.115,2.084-1.415,3.308c-0.145,0.609-0.211,1.281-0.064,1.951
			c0.143,0.669,0.507,1.291,0.969,1.751c0.223,0.201,0.222,0.2,0.44,0.321c0.174,0.094,0.357,0.182,0.497,0.225
			c0.302,0.12,0.601,0.191,0.902,0.272c0.601,0.131,1.204,0.221,1.807,0.259c1.204,0.077,2.408,0.023,3.574-0.182
			c2.34-0.381,4.533-1.254,6.475-2.363c1.942-1.152,3.605-2.427,5.243-3.615c0.802-0.61,1.581-1.203,2.336-1.777
			c0.371-0.285,0.736-0.564,1.094-0.839l0.26-0.184l0.157-0.107c0.111-0.082,0.214-0.212,0.263-0.328
			c0.114-0.248,0.1-0.538-0.035-0.775c-0.107-0.244-0.472-0.398-0.506-0.401c-1.774-0.749-3.529-0.599-4.948-0.329
			c-1.438,0.269-2.627,0.696-3.583,1.081c-0.958,0.382-1.675,0.757-2.159,1.015c-0.484,0.259-0.741,0.397-0.741,0.397
			s0.272-0.106,0.783-0.305c0.508-0.201,1.266-0.47,2.24-0.755c0.973-0.281,2.174-0.576,3.559-0.69
			c0.691-0.058,1.428-0.071,2.183,0.016c0.751,0.089,1.543,0.173,2.283,0.494c0.355-0.558-0.802,0.422-1.464,0.919
			c-0.749,0.57-1.523,1.159-2.319,1.764c-1.608,1.168-3.318,2.47-5.145,3.551c-1.854,1.058-3.935,1.884-6.138,2.243
			c-1.098,0.194-2.227,0.243-3.343,0.171c-0.558-0.035-1.111-0.119-1.649-0.235c-0.263-0.071-0.532-0.135-0.773-0.232
			c-0.14-0.044-0.217-0.091-0.304-0.126c-0.05,0.007-0.282-0.186-0.27-0.181c-0.748-0.724-0.924-1.737-0.651-2.781
			c0.252-1.041,0.771-2.063,1.316-3.051c1.144-1.962,2.25-3.962,3.597-5.597c1.34-1.653,2.965-2.956,4.735-3.711
			c0.428-0.221,0.895-0.327,1.332-0.49c0.449-0.123,0.904-0.215,1.344-0.31c0.446-0.048,0.872-0.115,1.311-0.149
			c0.455-0.009,0.902-0.018,1.34-0.027c0.191,0.002,0.45,0.169,0.504,0.38c0.094,0.294,0.125,0.649,0.111,0.982
			c-0.041,0.682-0.302,1.354-0.642,1.935c-0.687,1.172-1.58,2.048-2.314,2.736c-0.75,0.682-1.371,1.186-1.811,1.517
			C36.178,24.594,35.945,24.771,35.945,24.771z"/>
	</g>
	<path fill="#231F20" stroke="#231F20" stroke-miterlimit="10" d="M66.744,11.801c0,0,1.81,1.709,3.265,2.242
		c0.309,0.113,0.508,0.403,0.5,0.732c-0.031,1.317-0.475,4.425-3.89,5.401c-5.102,1.458-6.5-3.5-6.125-4.75
		S61.369,11.926,66.744,11.801z"/>
	<path fill="#FFFFFF" d="M65.744,17.113c0-0.587-0.476-1.062-1.062-1.062s-1.062,0.476-1.062,1.062c0,0.587,0.476,1.062,1.062,1.062
		S65.744,17.7,65.744,17.113z"/>
	<g>
		<path fill="#808184" d="M61.196,20.69c0,0,0.013,0.232,0.084,0.578c0.064,0.35,0.238,0.797,0.507,1.227
			c0.14,0.209,0.283,0.443,0.487,0.6c0.209,0.146,0.458,0.21,0.667,0.213c0.428,0.019,0.68-0.224,0.675-0.208l0.007-0.1
			c0.001-0.012-0.209-0.228-0.41-0.445c-0.104-0.11-0.209-0.219-0.341-0.314c-0.141-0.078-0.323-0.153-0.482-0.274
			c-0.317-0.245-0.58-0.585-0.789-0.843c-0.2-0.265-0.308-0.463-0.308-0.463L61.196,20.69z"/>
	</g>
	<path fill="none" stroke="#7F5978" stroke-miterlimit="10" d="M72.452,2.384c0,0,0-1.75,3.083-1.167c0,0,0.417-1.833,3.083-1.833"/>
	<path fill="#5E537C" d="M77.985,4.179c-0.464-0.16-0.792-0.431-0.732-0.604c0.06-0.173,0.485-0.184,0.949-0.024
		c0.464,0.16,0.792,0.431,0.732,0.604C78.874,4.329,78.449,4.339,77.985,4.179z"/>
	<path fill="#5E537C" d="M79.843,3.698c-0.464-0.16-0.792-0.431-0.732-0.604c0.06-0.173,0.485-0.184,0.949-0.024
		c0.464,0.16,0.792,0.431,0.732,0.604C80.733,3.848,80.308,3.859,79.843,3.698z"/>
	<path fill="#5E537C" d="M76.093,4.948c-0.464-0.16-0.792-0.431-0.732-0.604S75.846,4.16,76.31,4.32
		c0.464,0.16,0.792,0.431,0.732,0.604C76.983,5.098,76.558,5.109,76.093,4.948z"/>
	<path fill="#5E537C" d="M73.01,3.948c-0.464-0.16-0.792-0.431-0.732-0.604c0.06-0.173,0.485-0.184,0.949-0.024
		c0.464,0.16,0.792,0.431,0.732,0.604C73.899,4.098,73.474,4.109,73.01,3.948z"/>
	<path fill="#5E537C" d="M75.343,2.782c-0.464-0.16-0.792-0.431-0.732-0.604c0.06-0.173,0.485-0.184,0.949-0.024
		c0.464,0.16,0.792,0.431,0.732,0.604C76.233,2.931,75.808,2.942,75.343,2.782z"/>
	<path fill="#5E537C" d="M77.396,2.167c-0.471-0.163-0.808-0.421-0.755-0.577c0.054-0.156,0.479-0.151,0.95,0.012
		c0.471,0.163,0.808,0.421,0.755,0.577C78.292,2.335,77.867,2.329,77.396,2.167z"/>
	<path fill="#5E537C" d="M79.819,2.068c-0.446-0.222-0.747-0.522-0.674-0.67s0.495-0.088,0.94,0.134
		c0.446,0.222,0.747,0.522,0.674,0.67C80.685,2.351,80.264,2.29,79.819,2.068z"/>
	<path fill="#5E537C" d="M74.391,6.561c-0.507-0.175-0.865-0.471-0.799-0.66c0.065-0.189,0.529-0.201,1.036-0.026
		c0.507,0.175,0.865,0.471,0.799,0.66C75.361,6.725,74.897,6.737,74.391,6.561z"/>
	<path fill="#5E537C" d="M70.75,5.394c-0.507-0.175-0.865-0.471-0.799-0.66c0.065-0.189,0.529-0.201,1.036-0.026
		c0.507,0.175,0.865,0.471,0.799,0.66C71.721,5.557,71.257,5.569,70.75,5.394z"/>
	<g>
		<path fill="#231F20" d="M12.698-21.566c0,0,0.542,0.096,1.372,0.124c0.829,0.034,1.949-0.063,3.049-0.379
			c0.544-0.171,1.104-0.358,1.572-0.66c0.222-0.167,0.451-0.31,0.611-0.517c0.167-0.196,0.344-0.358,0.447-0.562
			c0.116-0.191,0.208-0.373,0.288-0.53c0.065-0.168,0.102-0.323,0.131-0.448c0.064-0.247,0.08-0.39,0.08-0.39l-0.09-0.043
			c0,0-0.12,0.093-0.294,0.257c-0.093,0.078-0.19,0.181-0.305,0.289c-0.128,0.1-0.27,0.21-0.409,0.336
			c-0.132,0.133-0.324,0.228-0.485,0.364c-0.162,0.135-0.367,0.238-0.551,0.377c-0.174,0.155-0.4,0.255-0.597,0.41
			c-0.21,0.135-0.443,0.247-0.672,0.366c-0.947,0.428-1.999,0.646-2.793,0.78c-0.799,0.12-1.343,0.125-1.343,0.125L12.698-21.566z"/>
	</g>
	<g>
		<g>
			<defs>
				<path id="SVGID_7_" d="M21.744,11.051c-4.625-6.25-3.25-9.25-1.5-12.125c0,0-7.125-7.625-3.625-13.625l3.875-5.375
					c0,0,2.5-6.25,6.125-6.5s4.125,0.375,4.125,0.375s4.625,0.75,5.75,0s3.125-1.625,4.125-1.625s1,1.875-0.25,2.375
					c0,0,2-0.125,2.5-1.125s2.875-1.25,2.625,0.25c0,0,1.25,0.25,1,0.875s-1.5,3.625-11.375,3l-6.125-0.25
					c0,0-1.375,1.125-2.25,2.625s-1.5,2.75-1.375,5.25c0,0,2-1.625,3.75-1.625"/>
			</defs>
			<use xlink:href="#SVGID_7_" overflow="visible" fill="#E6E7E8"/>
			
			<path clip-path="url(#SVGID_8_)" fill="#F9F9F4" stroke="#CCCBC4" stroke-linecap="round" stroke-miterlimit="10" d="
				M33.869-10.949c-4.5,0.625-5.25,4-3.917,3c1.333-1,3.167-0.833,3.167-0.833s-2.25,2.208-2.5,4.333
				c-0.1,0.848-0.247,1.537-0.356,1.975c-0.046,0.185,0.149,0.337,0.318,0.248c0.952-0.506,2.438-1.577,5.663-0.723l-0.75-0.75
				c0,0,2.5-0.625,4.5,0.375s5.875,4,8.375,3.875c0,0-2.407,1.393-4.028,3.934C44.21,4.689,44.416,4.94,44.637,4.84
				c1.162-0.529,2.999-1.235,5.314-1.696c2.707-0.539,5.526-0.411,8.126,0.514c0.833,0.296,1.541,0.643,1.791,1.018
				c0,0-2,0.375-2.75,1.75c0,0,4.173,3.059,10.375,2.25c5.75-0.75,14-0.625,14-0.625l10.25,1.5l-4.875-20.125l-30.5-22.5
				l-56.625,2.5l-13,10.75c4.5-1.25,3.75,0.5,3.75,0.5s-0.375,1.875,0.625,2.75c1,0.875,1.375,1.875,1.375,1.875
				c-0.625,1.125,1.25,1.625,1.25,1.625c-0.161-0.062-2.875,0.5-2.875,0.5c0.375,1.875,4.125,2,4.125,2c-3.5,0.375-4,2.875-4,2.875
				c1.625,3,10.75,0.875,15-0.875s9.625-1.625,9.625-1.625c-0.125-5.25,4.5-8.5,4.875-9.875s0.875-2.125,0.875-2.125l3.917-8.917
				c0,0,20.342-0.362,24.667,1c4.009,1.263,8.667,9.5,8.667,9.5l-30-2c-2.538,0.772-6.172,7.775-6.756,9.134
				c-0.042,0.099,1.131,1.157,1.131,2.407l3.125-1.375c0,0-1.125,2-0.625,3.125c0,0,3.75-3,6.75-2.375
				C33.491-11.439,33.869-10.949,33.869-10.949z"/>
			<use xlink:href="#SVGID_7_" overflow="visible" fill="none" stroke="#808184" stroke-miterlimit="10"/>
		</g>
		<g>
			<path fill="#808184" d="M37.12-22.398c0,0,0.615,0.039,1.542-0.005c0.464-0.02,1.006-0.067,1.583-0.162
				c0.575-0.104,1.192-0.226,1.796-0.429c0.307-0.085,0.604-0.205,0.901-0.325c0.305-0.099,0.572-0.284,0.843-0.432
				c0.26-0.168,0.479-0.392,0.684-0.589c0.191-0.22,0.345-0.454,0.485-0.661c0.12-0.225,0.195-0.451,0.268-0.638
				c0.083-0.183,0.074-0.377,0.092-0.518c0.028-0.288,0.021-0.446,0.021-0.446l-0.1-0.024c0,0-0.109,0.13-0.26,0.345
				c-0.09,0.101-0.145,0.243-0.284,0.364c-0.116,0.126-0.248,0.267-0.391,0.422c-0.17,0.13-0.33,0.283-0.509,0.433
				c-0.209,0.124-0.388,0.292-0.61,0.432c-0.428,0.297-0.899,0.638-1.44,0.874c-1.064,0.503-2.243,0.799-3.128,1
				c-0.89,0.194-1.498,0.258-1.498,0.258L37.12-22.398z"/>
		</g>
	</g>
	<path fill="none" stroke="#CCCBC4" stroke-miterlimit="10" d="M26.452-9.991c0,0,1-1,4.333-1.75"/>
	<path fill="#FFFFFF" d="M27.785-12.949c0,0-0.708,2.292,0.917,0.958l2.5-1.5l-0.417-0.667L27.785-12.949z"/>
	<g>
		<defs>
			<path id="SVGID_9_" d="M-15.381-6.283c0,0-0.333-5.833,1.75-7.5c0,0-0.5-2.167-1.417-2.75c-0.917-0.583-5.583-7.167,8.833-8.25
				c0,0,11.333,0.667,14.167,0.25c0,0,2.083-1.083,2.583-2.5s3.083-1.5,3.417-0.667c0.333,0.833-0.333,2.5-1.75,3
				c0,0,2.75-0.667,3.083-1.833c0.333-1.167,3.25-1.083,3.167-0.25c0,0,1.833-0.25,1.917,0.167c0.083,0.417,0.75,0.75-0.833,2.667
				c0,0,0.583,1.583-1.833,2c-2.417,0.417-9.25,0.5-10.333,0.417s-4.833-0.25-6.583,1.917"/>
		</defs>
		<use xlink:href="#SVGID_9_" overflow="visible" fill="#E6E7E8"/>
		
		<path clip-path="url(#SVGID_10_)" fill="#F9F9F4" stroke="#CCCBC4" stroke-linecap="round" stroke-miterlimit="10" d="
			M33.869-10.949c-4.5,0.625-5.25,4-3.917,3c1.333-1,3.167-0.833,3.167-0.833s-2.25,2.208-2.5,4.333
			c-0.1,0.848-0.247,1.537-0.356,1.975c-0.046,0.185,0.149,0.337,0.318,0.248c0.952-0.506,2.438-1.577,5.663-0.723l-0.75-0.75
			c0,0,2.5-0.625,4.5,0.375s5.875,4,8.375,3.875c0,0-2.407,1.393-4.028,3.934C44.21,4.689,44.416,4.94,44.637,4.84
			c1.162-0.529,2.999-1.235,5.314-1.696c2.707-0.539,5.526-0.411,8.126,0.514c0.833,0.296,1.541,0.643,1.791,1.018
			c0,0-2,0.375-2.75,1.75c0,0,4.173,3.059,10.375,2.25c5.75-0.75,14-0.625,14-0.625l10.25,1.5l-4.875-20.125l-30.5-22.5l-56.625,2.5
			c0,0-16.808,4.872-16.292,10.292c0.333,3.5,7.333,3.5,10.292,7.208c0.108,0.135-2.875,0.5-2.875,0.5c0.375,1.875,4.125,2,4.125,2
			c-3.5,0.375-4,2.875-4,2.875c1.625,3,10.75,0.875,15-0.875s9.625-1.625,9.625-1.625c-0.125-5.25,4.5-8.5,4.875-9.875
			s0.875-2.125,0.875-2.125l3.917-8.917c0,0,20.342-0.362,24.667,1c4.009,1.263,8.667,9.5,8.667,9.5l-30-2
			c-2.538,0.772-6.172,7.775-6.756,9.134c-0.042,0.099,1.131,1.157,1.131,2.407l3.125-1.375c0,0-1.125,2-0.625,3.125
			c0,0,3.75-3,6.75-2.375C33.491-11.439,33.869-10.949,33.869-10.949z"/>
		<use xlink:href="#SVGID_9_" overflow="visible" fill="none" stroke="#808184" stroke-miterlimit="10"/>
	</g>
	<g>
		<path fill="#808184" d="M13.356-16.806c0,0-0.051-0.235-0.217-0.616c-0.088-0.188-0.2-0.416-0.365-0.657
			c-0.155-0.246-0.362-0.507-0.607-0.771c-0.129-0.128-0.262-0.262-0.401-0.401c-0.154-0.122-0.313-0.247-0.477-0.377
			c-0.335-0.247-0.724-0.469-1.136-0.661c-0.418-0.183-0.855-0.37-1.321-0.48c-0.459-0.152-0.937-0.222-1.417-0.297
			c-0.481-0.106-0.96-0.093-1.437-0.142c-0.48-0.058-0.942-0.018-1.392,0.016c-0.905,0.062-1.697,0.354-2.375,0.569
			c-0.34,0.105-0.629,0.272-0.893,0.392c-0.26,0.131-0.484,0.25-0.665,0.356c-0.363,0.209-0.559,0.353-0.559,0.353l0.044,0.143
			c0,0,0.248,0.024,0.662,0.021c0.417,0.01,0.991-0.047,1.669-0.094c0.341-0.012,0.706-0.038,1.086-0.079
			c0.382-0.045,0.78-0.072,1.19-0.108c0.409-0.043,0.832-0.142,1.26-0.166c0.427-0.033,0.873-0.101,1.305-0.067
			c0.436,0.014,0.877,0.022,1.295,0.108c0.431,0.045,0.831,0.164,1.223,0.28c0.387,0.122,0.748,0.286,1.081,0.453
			c0.164,0.092,0.323,0.181,0.478,0.268c0.143,0.104,0.281,0.205,0.414,0.302c0.259,0.203,0.485,0.411,0.663,0.614
			c0.185,0.199,0.323,0.391,0.44,0.55c0.219,0.327,0.306,0.534,0.306,0.534L13.356-16.806z"/>
	</g>
	<g>
		<path fill="#808184" d="M9.87-21.483c0,0,0.682,0.033,1.705-0.057c0.511-0.048,1.11-0.121,1.739-0.276
			c0.632-0.142,1.298-0.352,1.947-0.631c0.33-0.125,0.635-0.314,0.956-0.462c0.301-0.187,0.597-0.378,0.861-0.596
			c0.237-0.249,0.496-0.463,0.659-0.739c0.166-0.272,0.348-0.509,0.442-0.77c0.1-0.258,0.176-0.497,0.241-0.705
			c0.049-0.214,0.053-0.412,0.065-0.568c0.024-0.312,0.017-0.485,0.017-0.485l-0.098-0.021c0,0-0.106,0.15-0.255,0.403
			c-0.084,0.123-0.157,0.28-0.267,0.444c-0.123,0.158-0.259,0.332-0.391,0.525c-0.133,0.192-0.335,0.359-0.5,0.563
			c-0.171,0.2-0.407,0.365-0.603,0.575c-0.207,0.204-0.456,0.38-0.685,0.593c-0.26,0.175-0.512,0.375-0.798,0.529
			c-0.562,0.32-1.165,0.589-1.751,0.79c-0.585,0.205-1.147,0.366-1.634,0.487c-0.979,0.235-1.651,0.302-1.651,0.302L9.87-21.483z"/>
	</g>
	<path fill="none" stroke="#CCCBC4" stroke-miterlimit="10" d="M-8.569-15.012c0,0,1.812,1,2.312,1.938l-2.875,0.5
		c0,0,0.312,1.188,2.375,1.75"/>
	<g>
		<g>
			<path fill="#BCBEC0" d="M52.622,16.2c0,0,4.811-0.629,9.531-1.791c1.179-0.29,2.358-0.591,3.445-0.944
				c0.537-0.194,1.067-0.351,1.547-0.57c0.483-0.205,0.943-0.389,1.35-0.606c0.411-0.204,0.785-0.395,1.095-0.609
				c0.311-0.21,0.6-0.358,0.794-0.551c0.399-0.357,0.627-0.56,0.627-0.56l-0.034-0.037c0,0-0.252,0.166-0.692,0.456
				c-0.211,0.152-0.518,0.266-0.835,0.443c-0.315,0.181-0.709,0.318-1.12,0.498c-0.825,0.356-1.825,0.688-2.895,1.042
				c-0.529,0.195-1.094,0.349-1.656,0.539c-0.569,0.169-1.148,0.341-1.727,0.513c-4.662,1.28-9.437,2.128-9.437,2.128L52.622,16.2z"/>
		</g>
		<g>
			<path fill="#BCBEC0" d="M47.118,9.701c0,0,1.406,0.07,3.515,0.176c2.11,0.097,4.926,0.172,7.745,0.171
				c1.409,0.005,2.82-0.012,4.143-0.072c1.322-0.069,2.553-0.216,3.604-0.37c0.525-0.085,1.001-0.2,1.425-0.283
				c0.42-0.112,0.781-0.23,1.075-0.325c0.291-0.113,0.505-0.244,0.655-0.312c0.148-0.074,0.227-0.114,0.227-0.114l-0.026-0.043
				c0,0-0.083,0.029-0.238,0.084c-0.158,0.049-0.375,0.147-0.669,0.22c-0.299,0.058-0.663,0.128-1.08,0.209
				c-0.423,0.051-0.9,0.108-1.42,0.17c-1.045,0.099-2.268,0.175-3.581,0.243c-1.312,0.077-2.715,0.153-4.12,0.192
				C52.75,9.794,47.119,9.651,47.119,9.651L47.118,9.701z"/>
		</g>
		<g>
			<path fill="#BCBEC0" d="M60.735,5.324c0,0,1.943,0.79,3.966,1.366c0.503,0.153,1.01,0.299,1.493,0.407
				c0.485,0.1,0.948,0.143,1.345,0.171c0.8,0.042,1.329-0.067,1.329-0.067v-0.05c0,0-0.51-0.11-1.275-0.276
				c-0.379-0.084-0.821-0.182-1.294-0.287C65.821,6.496,65.31,6.4,64.8,6.303c-2.035-0.445-4.048-1.026-4.048-1.026L60.735,5.324z"/>
		</g>
		<g>
			<path fill="#BCBEC0" d="M60.48-0.053c0,0,2.44,1.672,5.05,3.081c0.65,0.356,1.303,0.71,1.939,1
				c0.637,0.284,1.255,0.5,1.797,0.652c0.269,0.082,0.521,0.137,0.748,0.174c0.227,0.037,0.418,0.087,0.587,0.083
				c0.328,0.01,0.516,0.015,0.516,0.015l0.004-0.05c0,0-0.177-0.05-0.488-0.138c-0.154-0.034-0.335-0.119-0.545-0.186
				c-0.211-0.065-0.44-0.172-0.694-0.273c-0.509-0.196-1.088-0.472-1.713-0.751c-0.631-0.269-1.302-0.567-1.968-0.88
				c-2.649-1.283-5.206-2.767-5.206-2.767L60.48-0.053z"/>
		</g>
		<g>
			<path fill="#BCBEC0" d="M64.975-2.182c0,0,1.282,1.52,2.781,2.843c0.371,0.334,0.745,0.67,1.127,0.948
				c0.383,0.276,0.776,0.487,1.125,0.644c0.347,0.157,0.66,0.248,0.882,0.282c0.224,0.033,0.348,0.041,0.348,0.041l0.011-0.049
				c0,0-0.112-0.065-0.302-0.159c-0.186-0.106-0.451-0.25-0.748-0.463c-0.306-0.193-0.644-0.452-1.013-0.72
				c-0.378-0.255-0.78-0.537-1.174-0.831c-1.558-1.202-3-2.569-3-2.569L64.975-2.182z"/>
		</g>
	</g>
</symbol>
<g>
	
		<use xlink:href="#New_Symbol_15" width="187.517" height="80.246" x="-93.76" y="-40.123" transform="matrix(1.3152 0 0 -1.3152 136.6609 212.0935)" overflow="visible"/>
	
		<use xlink:href="#New_Symbol_15" width="187.517" height="80.246" x="-93.76" y="-40.123" transform="matrix(1.3152 0 0 -1.3152 274.7563 250.054)" overflow="visible"/>
	
		<use xlink:href="#New_Symbol_15" width="187.517" height="80.246" x="-93.76" y="-40.123" transform="matrix(-1.3152 0 0 -1.3152 363.3391 151.9209)" overflow="visible"/>
	
		<use xlink:href="#New_Symbol_15" width="187.517" height="80.246" x="-93.76" y="-40.123" transform="matrix(-1.3152 0 0 -1.3152 324.7701 347.9214)" overflow="visible"/>
</g>
</svg>
