<?xml version="1.0" encoding="utf-8"?>
<!-- Generator: Adobe Illustrator 18.1.1, SVG Export Plug-In . SVG Version: 6.00 Build 0)  -->
<svg version="1.1" id="Layer_1" xmlns="http://www.w3.org/2000/svg" xmlns:xlink="http://www.w3.org/1999/xlink" x="0px" y="0px" viewBox="0 0 500 500" enable-background="new 0 0 500 500" xml:space="preserve"><clipPath id="SVGID_10_">
						<use xlink:href="#SVGID_9_" overflow="visible"/>
					</clipPath><clipPath id="SVGID_8_">
					<use xlink:href="#SVGID_7_" overflow="visible"/>
				</clipPath><clipPath id="SVGID_6_">
				<use xlink:href="#SVGID_5_" overflow="visible"/>
			</clipPath><clipPath id="SVGID_4_">
					<use xlink:href="#SVGID_3_" overflow="visible"/>
				</clipPath><clipPath id="SVGID_2_">
										<use xlink:href="#SVGID_1_" overflow="visible"/>
									</clipPath>
<symbol id="New_Symbol_32" viewBox="-1.1 -1.1 2.2 2.2">
	<g>
		<g>
			<path fill="#72627F" stroke="#534560" stroke-width="0.5" stroke-miterlimit="10" d="M0.9,0c0-0.5-0.4-0.9-0.9-0.9
				S-0.9-0.5-0.9,0S-0.5,0.9,0,0.9S0.9,0.5,0.9,0z"/>
		</g>
	</g>
</symbol>
<symbol id="New_Symbol_33" viewBox="-2.3 -1.2 4.6 2.5">
	<g>
		<g>
			<path fill="#5F526D" stroke="#877993" stroke-width="0.25" stroke-miterlimit="10" d="M-2.1,0.4c0,0,1.7,0.5,3.8-1.5
				c0,0,0.7-0.1,0.4,0.4S0,1.1-1.3,1.1C-1.3,1.1-2.3,1.2-2.1,0.4z"/>
		</g>
	</g>
</symbol>
<symbol id="New_Symbol_49" viewBox="-11.9 -23.4 23.7 46.8">
	<g>
		<g>
			<g>
				<g>
					<g>
						<g>
							<g>
								<path fill="#FCCB98" stroke="#C08857" stroke-linecap="round" stroke-linejoin="round" stroke-miterlimit="10" d="M9.8,3.5
									c0,0,0.1,8.3-0.6,15.4l-8.8,4.1c0,0,1.9-7.4,3.3-19.3L9.8,3.5z"/>
								<g>
									<path fill="#FFFFFF" stroke="#A19DB2" stroke-width="0.75" stroke-miterlimit="10" d="M3.9-9.4c0,0,0.2,3.9-0.3,7.9
										C3.2,1.1,3.1,3.2,3,4.3C3,4.7,3.3,5,3.8,5c0.7-0.2,1.9-0.3,3.8-0.1c2.2,0.2,2.4,0.4,2.4,0.4s0.6-0.1,0.8-1.3
										S10-11.6,10-11.6L8-13L3.9-9.4z"/>
									<g>
										<path fill="#A19DB2" d="M5,0.3c0,0,0.2-0.4,0.3-1C5.4-1.2,5.5-2,5.6-2.8c0.1-0.8,0.1-1.6,0-2.2c0-0.6-0.1-1-0.1-1
											s-0.2,0.4-0.3,1C5.1-4.5,4.9-3.7,4.9-2.9c-0.1,0.8-0.1,1.6,0,2.2C4.9-0.1,5,0.3,5,0.3z"/>
									</g>
									<g>
										<path fill="#A19DB2" d="M6.9,1.4c0,0,0.1-0.5,0.2-1.2c0.1-0.7,0.2-1.7,0.2-2.7c0-1,0-1.9-0.1-2.7C7.2-5.9,7.1-6.4,7.1-6.4
											S6.9-5.9,6.8-5.1C6.7-4.4,6.6-3.5,6.6-2.5c0,1,0,1.9,0.1,2.7C6.8,0.9,6.9,1.4,6.9,1.4z"/>
									</g>
									<g>
										<path fill="#A19DB2" d="M9,2.3c0,0,0.1-0.6,0.1-1.4c0-0.8,0-1.9,0-3C9.1-3.2,9-4.3,8.8-5.1C8.7-5.9,8.5-6.5,8.5-6.5
											S8.4-5.9,8.4-5.1c0,0.8,0,1.9,0,3C8.5-1,8.6,0.1,8.7,1C8.9,1.8,9,2.3,9,2.3z"/>
									</g>
								</g>
								<g>
									<defs>
										<path id="SVGID_1_" d="M10.1-9c0,0,0.8,0.6,0.8-8c0,0,0.2-0.4,0.2-2.1c0,0-2.5-1.2-7.2-0.9l-0.5,1.5l-0.8-1.8
											c0,0-9.5-4.8-13.8-1.6c0,0-0.5,0.9-0.2,1.8s4.3,3.2,6.7,3.9c0,0,3.6,3.6,4.4,3.9c0,0,1.7,1.9,2.4,3.4
											c0.3,0.7,1,1.2,1.7,1.3c0.4,0,0.9-0.1,1.3-0.6c0,0,1.8-2.6,3-2.6l0.6,0c0.4,0,0.7,0.3,0.9,0.6L10.1-9z"/>
									</defs>
									<use xlink:href="#SVGID_1_" overflow="visible" fill="#A999B5"/>
									
									<path clip-path="url(#SVGID_2_)" fill="#A999B5" stroke="#72627F" stroke-width="0.75" stroke-miterlimit="10" d="
										M-10.3-18.2c0,0-3.4-3.2,2.8-3.1s10.9,3.4,10.9,3.4s4.1-0.9,8.3,1.1"/>
									
										<use xlink:href="#SVGID_1_" overflow="visible" fill="none" stroke="#72627F" stroke-width="0.75" stroke-miterlimit="10"/>
								</g>
								
									<use xlink:href="#New_Symbol_32" width="2.2" height="2.2" x="-1.1" y="-1.1" transform="matrix(0.9281 0 0 0.8322 -1.8929 -17.3122)" overflow="visible"/>
								
									<use xlink:href="#New_Symbol_32" width="2.2" height="2.2" x="-1.1" y="-1.1" transform="matrix(0.9281 0 0 0.8322 0.5655 -15.2158)" overflow="visible"/>
								
									<use xlink:href="#New_Symbol_32" width="2.2" height="2.2" id="XMLID_155_" x="-1.1" y="-1.1" transform="matrix(0.9281 0 0 0.8322 3.4949 -13.5255)" overflow="visible"/>
								
									<use xlink:href="#New_Symbol_33" width="4.6" height="2.5" x="-2.3" y="-1.2" transform="matrix(0.9281 0 0 0.8322 -3.6174 -16.5235)" overflow="visible"/>
								
									<use xlink:href="#New_Symbol_33" width="4.6" height="2.5" x="-2.3" y="-1.2" transform="matrix(0.9281 0 0 0.8322 -1.217 -14.4011)" overflow="visible"/>
								
									<use xlink:href="#New_Symbol_33" width="4.6" height="2.5" id="XMLID_153_" x="-2.3" y="-1.2" transform="matrix(0.6324 -0.1871 0.1719 0.8983 -0.3865 -13.445)" overflow="visible"/>
								
									<use xlink:href="#New_Symbol_33" width="4.6" height="2.5" id="XMLID_151_" x="-2.3" y="-1.2" transform="matrix(0.6936 -0.2031 0.1885 0.975 2.0542 -11.6473)" overflow="visible"/>
								
									<use xlink:href="#New_Symbol_33" width="4.6" height="2.5" x="-2.3" y="-1.2" transform="matrix(0.6837 -0.1993 0.3521 0.9568 -2.6043 -15.6695)" overflow="visible"/>
								
									<use xlink:href="#New_Symbol_33" width="4.6" height="2.5" id="XMLID_142_" x="-2.3" y="-1.2" transform="matrix(1.1032 0 0 0.8988 1.2338 -12.5938)" overflow="visible"/>
							</g>
						</g>
					</g>
				</g>
			</g>
		</g>
	</g>
</symbol>
<symbol id="New_Symbol_5" viewBox="-4.6 -4.6 9.3 9.3">
	<g>
		<g>
			<path fill="#13123D" d="M1.1-4.4c-1,0-1.8,0.5-2,0.8l-3.5,1.3L-4,1.4l6.3,2.8L2.1,3.7C1.6,1.9,1.8,0.3,1.8,0.3
				c0.4-1.2,2-1.9,2-1.9l0.3-0.2L3.9-2.1C3.5-2.5,3-2.7,2.4-2.7c-0.3,0-0.6,0.1-0.9,0.1l0.9-1.6L2.2-4.2C1.8-4.3,1.5-4.4,1.1-4.4
				C1.1-4.4,1.1-4.4,1.1-4.4z"/>
			<path fill="#234F6B" d="M1.8,3.7C1.3,1.9,1.6,0.2,1.6,0.2c0.5-1.3,2.2-2.1,2.2-2.1C3.3-2.3,2.9-2.4,2.4-2.4C1.6-2.4,1-2,1-2
				l1.2-2c-0.4-0.1-0.7-0.2-1-0.2c-1.2,0-1.9,0.7-1.9,0.8l-3.4,1.2l0.3,3.3L1.8,3.7 M2.6,4.6l-1-0.4L-4,1.7l-0.3-0.1l0-0.3l-0.3-3.3
				l0-0.4l0.4-0.1l3.2-1.2c0.4-0.4,1.2-0.9,2.2-0.9c0.4,0,0.8,0.1,1.2,0.2l0.6,0.2L2.6-3.7L2.1-2.9c0.1,0,0.2,0,0.4,0
				c0.6,0,1.2,0.2,1.7,0.6l0.5,0.5L4-1.4c0,0-1.5,0.7-1.9,1.8C2,0.6,1.9,2,2.3,3.6L2.6,4.6L2.6,4.6z"/>
		</g>
		<g>
			<path fill="#234F6B" d="M0.2,2.9c0,0-0.1-1.1,0-2.2c0-0.3,0.1-0.5,0.1-0.8c0-0.2,0-0.5,0.1-0.7c0.1-0.4,0.2-0.6,0.2-0.6l0,0
				c0,0-0.1,0-0.1,0.1C0.2-1.2,0.1-1,0-0.8c-0.2,0.4-0.2,1-0.2,1.5C-0.1,1.8,0.1,2.9,0.2,2.9L0.2,2.9z"/>
		</g>
		<g>
			<path fill="#234F6B" d="M-1.5,1.6c0,0,0-1.2,0.1-2.4c0-0.3,0.1-0.6,0.1-0.9c0-0.3,0.1-0.5,0.1-0.7C-1-2.9-0.9-3.2-0.9-3.2l0,0
				c0,0-0.1,0.1-0.2,0.2c-0.1,0.1-0.2,0.3-0.3,0.5c-0.2,0.4-0.3,1.1-0.3,1.7C-1.7,0.4-1.5,1.6-1.5,1.6L-1.5,1.6z"/>
		</g>
	</g>
</symbol>
<symbol id="New_Symbol_50" viewBox="-12.6 -28.2 25.3 56.5">
	<g>
		<g>
			<path fill="#C07F5F" stroke="#945535" stroke-miterlimit="10" d="M-10-17.8c0,0-0.9,3.9-0.9,20.5s-1.2,24-1.2,24l9.9,1
				c0,0,0.1-10.6-1.8-27.5c-0.8-7.3,0-12,0-12s1.7-5.1,8.4-8.7l-3.5-2.7L-10-17.8z"/>
			<path fill="#0F113D" stroke="#244E6B" stroke-linecap="round" stroke-linejoin="round" stroke-miterlimit="10" d="M-11-20
				c0,0-0.7,4.9,0.6,6.3c0.2-2.5,1.1-3.3,1.1-3.3s8.4-4.5,9.6-4.2c0,0,1.8,2.2,3.4,1.8c0,0,8.4-3.7,8.4-7.1c0,0-0.6-4.3-18.9,4.4
				C-10.2-21.6-11-20-11-20z"/>
		</g>
	</g>
</symbol>
<symbol id="New_Symbol_51" viewBox="-9.1 -35.1 18.1 70.1">
	<g>
		<g>
			<g>
				<path fill="#C07F5F" stroke="#945535" stroke-miterlimit="10" d="M6.1,28.5c0,0-3.3-7.3-4-17.7s-5-22-5-22S1.2-21.8-1-25
					c-1.1-1.7-2.9,4.4-2.9,4.4s-0.3-4.6,0.8-8.1c1.1-3.6,0.4-5.5-0.4-5.8c-0.7-0.3-5.2,4.7-5.1,17.2c0,2.7,0.7,6.3,1.2,9
					c0.5,2.6,1.2,6.3,1.5,8.3C-5.5,3.1-4.4,8-3.9,9c0,0,1,12,3.4,19.3c1.3,4.2,7.8,7.2,9,6.1L6.1,28.5z"/>
			</g>
		</g>
	</g>
</symbol>
<symbol id="New_Symbol_52" viewBox="-26.3 -87.8 52.7 176.6">
	<g>
		<path fill="#2C1A12" stroke="#603A17" stroke-miterlimit="10" d="M-19.4,66.5c0,0,0.2-6.4,3.9-9c0,0-0.4-2.6-1.2-4.1
			s-3.1-16.1,4.9-22.7l7.6,22.9v7.1L-19.4,66.5z"/>
		<g>
			<g>
				<path fill="#603A17" d="M-16.9,61.7c0,0,1.3-1.1,2.2-2.5c0.2-0.4,0.5-0.7,0.7-1.1c0.2-0.4,0.3-0.8,0.3-1.1c0-0.2,0-0.3,0-0.5
					c0-0.1,0-0.3-0.1-0.3c-0.1-0.2-0.1-0.3-0.1-0.3l-0.1,0c0,0,0,0.1-0.1,0.3c0,0.2-0.1,0.4-0.2,0.7c-0.1,0.1-0.1,0.3-0.2,0.4
					c-0.1,0.2-0.1,0.3-0.2,0.5c-0.1,0.3-0.3,0.7-0.5,1.1C-15.9,60.3-16.9,61.7-16.9,61.7L-16.9,61.7z"/>
			</g>
			<g>
				<path fill="#603A17" d="M-15.4,62.2c0,0,0.5-0.3,1.2-1c0.7-0.6,1.6-1.5,2.2-2.6c0.2-0.3,0.3-0.5,0.5-0.8
					c0.1-0.3,0.3-0.6,0.4-0.8c0.1-0.3,0.2-0.6,0.2-0.8c0-0.3,0.1-0.5,0.1-0.8c0-0.5,0-0.9-0.1-1.1c-0.1-0.3-0.1-0.4-0.1-0.4l-0.1,0
					c0,0,0,0.2-0.1,0.4c0,0.1,0,0.3-0.1,0.5c0,0.2-0.1,0.4-0.1,0.6c0,0.2-0.1,0.4-0.2,0.7c-0.1,0.2-0.1,0.5-0.2,0.8
					c-0.1,0.3-0.2,0.5-0.3,0.8c-0.1,0.3-0.2,0.5-0.3,0.8c-0.5,1.1-1.3,2-1.9,2.7C-15,61.7-15.5,62.1-15.4,62.2L-15.4,62.2z"/>
			</g>
			<g>
				<path fill="#603A17" d="M-11.1,59.7c0,0,0.2,0,0.6-0.1c0.4-0.1,0.8-0.3,1.2-0.7c0.2-0.2,0.4-0.3,0.5-0.5
					c0.1-0.2,0.2-0.4,0.2-0.6c0.1-0.4,0-0.6,0-0.6l-0.1,0c0,0-0.1,0-0.1,0.1c-0.1,0.1-0.2,0.2-0.3,0.3c-0.1,0.1-0.2,0.3-0.3,0.4
					c-0.1,0.2-0.2,0.4-0.3,0.5c-0.2,0.3-0.6,0.6-0.8,0.8C-10.9,59.5-11.1,59.6-11.1,59.7L-11.1,59.7z"/>
			</g>
		</g>
	</g>
	<g>
		<g>
			
				<use xlink:href="#New_Symbol_50" width="25.3" height="56.5" x="-12.6" y="-28.2" transform="matrix(0.9998 -2.232047e-02 2.232047e-02 0.9998 12.0172 -59.3247)" overflow="visible"/>
			
				<use xlink:href="#New_Symbol_50" width="25.3" height="56.5" id="XMLID_61_" x="-12.6" y="-28.2" transform="matrix(-0.9998 -2.232047e-02 -2.232047e-02 0.9998 -12.0171 -59.3247)" overflow="visible"/>
		</g>
		<g>
			
				<use xlink:href="#New_Symbol_51" width="18.1" height="70.1" x="-9.1" y="-35.1" transform="matrix(1 0 0 1 -17.2622 19.481)" overflow="visible"/>
			
				<use xlink:href="#New_Symbol_51" width="18.1" height="70.1" id="XMLID_60_" x="-9.1" y="-35.1" transform="matrix(-1 4.489700e-11 4.489700e-11 1 17.2622 19.481)" overflow="visible"/>
		</g>
		<path fill="#7D53A1" stroke="#262261" stroke-miterlimit="10" d="M14,42.9c0,0,2.3,3.2,1,9.2c0,0-4.3,5.8-14.8,6.1v0
			c-0.1,0-0.2,0-0.3,0c-0.1,0-0.2,0-0.3,0v0C-10.8,57.9-15.1,52-15.1,52c-1.3-6,1-9.2,1-9.2c-1.8-7.4,0.4-11,1.4-13.9
			c0.5-1.4,0.5-3,0.2-4.5c-1.7-7.1,1.4-8.1,1.4-8.1l0.5-1.9h10.3h0.6h10.3l0.5,1.9c0,0,3.1,0.9,1.4,8.1c-0.4,1.5-0.3,3,0.2,4.5
			C13.6,31.9,15.8,35.5,14,42.9z"/>
		<g>
			<g>
				<defs>
					<path id="SVGID_3_" d="M15-7.8c1,12.2-2.2,16.9-2.2,16.9c0,3.5-1,7.2-1,7.2c-4-0.9-10-1.1-11.8-1.1c-1.8,0-7.8,0.2-11.8,1.1
						c0,0-1-3.7-1-7.2c0,0-3.2-4.7-2.2-16.9c1-12.2-1.2-33.1-1.2-33.1s0.9-1.3,4.4-1.3v-1.5c0,0,3.2-1,7.7-1v-1c0,0-0.2-0.6,3.5-0.8
						c0,0,0,0,0,0c0.2,0,0.4,0,0.5,0c0.2,0,0.3,0,0.5,0c0,0,0,0,0,0C4.2-46.4,4-45.7,4-45.7v1c4.5,0,7.7,1,7.7,1v1.5
						c3.5,0,4.4,1.3,4.4,1.3S14-20,15-7.8z"/>
				</defs>
				<use xlink:href="#SVGID_3_" overflow="visible" fill="#7D53A1"/>
				
				<path clip-path="url(#SVGID_4_)" fill="#2D2C72" stroke="#9172CE" stroke-width="0.75" stroke-miterlimit="10" d="M12.8,9.1
					c0,0-5.1-1.8-12.8-1.7c-7.6,0-12.8,1.7-12.8,1.7L-14,19.5h28.2L12.8,9.1z"/>
				<use xlink:href="#SVGID_3_" overflow="visible" fill="none" stroke="#262261" stroke-miterlimit="10"/>
			</g>
			<g>
				<path fill="#7D53A1" d="M-3.3-25.5c0,0,0.1-4.8-0.4-8.9c-0.5-4.5-0.4-8.4-0.4-10.4"/>
				<path fill="#262261" d="M-3.3-25.5c0,0,0.2-1.2,0.3-3c0-0.9,0.1-2,0-3.1c0-1.1-0.1-2.4-0.3-3.6c-0.3-2.4-0.4-4.8-0.5-6.6
					c-0.1-0.9-0.1-1.7-0.2-2.2c0-0.5-0.1-0.8-0.1-0.8s-0.2,1.2-0.3,3c-0.1,1.8-0.1,4.2,0.1,6.7c0.3,2.4,0.5,4.8,0.7,6.6
					c0.1,0.9,0.2,1.7,0.2,2.2C-3.3-25.8-3.3-25.5-3.3-25.5z"/>
			</g>
			<g>
				<path fill="#7D53A1" d="M-11.8-42.2c0,0-0.1,5.6-0.4,9.9c-1.2,4.3-1.2,14-1.2,14"/>
				<path fill="#262261" d="M-11.8-42.2c-0.2,1.6-0.4,3.3-0.5,4.9c-0.1,1.6-0.2,3.3-0.3,4.9l0-0.1c-0.2,0.6-0.3,1.2-0.4,1.8
					c-0.1,0.6-0.2,1.2-0.3,1.8c-0.2,1.2-0.2,2.4-0.3,3.5c0,1.2-0.1,2.4,0,3.5c0,1.2,0.1,2.4,0.2,3.5l0.7-7c0.1-1.2,0.2-2.3,0.4-3.5
					c0.1-0.6,0.2-1.1,0.3-1.7c0.1-0.6,0.2-1.1,0.4-1.7l0-0.1l0,0c0-1.6,0.1-3.3,0.1-4.9C-11.6-38.9-11.7-40.6-11.8-42.2z"/>
			</g>
			<g>
				<path fill="#7D53A1" d="M3.3-25.5c0,0-0.1-4.8,0.4-8.9c0.5-4.5,0.4-8.4,0.4-10.4"/>
				<path fill="#262261" d="M3.3-25.5c0,0,0-0.3,0.1-0.8c0-0.5,0.1-1.3,0.2-2.2c0.2-1.8,0.4-4.2,0.7-6.6c0.3-2.4,0.2-4.9,0.1-6.7
					c-0.1-1.8-0.3-3-0.3-3s0,0.3-0.1,0.8c0,0.5-0.1,1.3-0.2,2.2c-0.1,1.8-0.3,4.2-0.5,6.6C3.1-34,3-32.7,3-31.6c0,1.1,0,2.2,0,3.1
					C3.1-26.7,3.3-25.5,3.3-25.5z"/>
			</g>
			<g>
				<path fill="#7D53A1" d="M11.8-42.2c0,0,0.1,5.6,0.4,9.9c1.2,4.3,1.2,14,1.2,14"/>
				<path fill="#262261" d="M11.8-42.2c-0.1,1.7-0.1,3.3-0.2,5c0,1.7,0,3.3,0.1,4.9l0,0l0,0.1c0.1,0.5,0.3,1.1,0.4,1.7
					c0.1,0.6,0.2,1.1,0.3,1.7c0.2,1.2,0.3,2.3,0.4,3.5l0.7,7c0.1-1.2,0.2-2.4,0.2-3.5c0-1.2,0-2.4,0-3.5c-0.1-1.2-0.1-2.4-0.3-3.5
					c-0.1-0.6-0.2-1.2-0.3-1.8c-0.1-0.6-0.2-1.2-0.4-1.8l0,0.1c-0.1-1.6-0.2-3.3-0.3-4.9C12.2-39,12-40.6,11.8-42.2z"/>
			</g>
		</g>
		<path fill="#C07F5F" stroke="#945535" stroke-width="0.9331" stroke-miterlimit="10" d="M0,64.8l-7.3-2.3l0.8-6.5
			c0,0,0.9-6.8,0.9-7.3c0-0.5,5.6-5.8,5.6-5.8s5.6,5.3,5.6,5.8c0,0.5,0.9,7.3,0.9,7.3l0.8,6.5L0,64.8z"/>
		<polygon fill="#7D53A1" points="-10.4,52 -0.2,49.1 8.8,52 10.4,45.8 6.7,40 -4.6,36.3 		"/>
		<g>
			<g>
				<path fill="#C07F5F" stroke="#945535" stroke-width="0.9331" stroke-miterlimit="10" d="M-17.6,71.7c0,0-1.2,3.1-3.6,3
					c-1,0-1.9-0.9-2.1-1.9c-0.4-2,0-5.8,7.6-7.9L-17.6,71.7z"/>
			</g>
		</g>
		<path fill="#C07F5F" stroke="#945535" stroke-width="0.9331" stroke-miterlimit="10" d="M19.6,71.8c0-7.6-8.8-13.7-19.6-13.7
			s-19.6,6.1-19.6,13.7c0,7.6,8.8,13.7,19.6,13.7S19.6,79.3,19.6,71.8z"/>
		<path fill="#231F20" d="M-4.1,72.6c0-1.5-0.5-2.7-1.1-2.7s-1.1,1.2-1.1,2.7s0.5,2.7,1.1,2.7S-4.1,74-4.1,72.6z"/>
		
			<path fill="none" stroke="#945535" stroke-width="0.9331" stroke-linecap="round" stroke-linejoin="round" stroke-miterlimit="10" d="
			M-7.2,77.1c0,0,0.6,1.8,2.7,2.2"/>
		<path fill="#231F20" d="M4.3,72.6c0-1.5,0.5-2.7,1.1-2.7s1.1,1.2,1.1,2.7s-0.5,2.7-1.1,2.7S4.3,74,4.3,72.6z"/>
		
			<path fill="none" stroke="#945535" stroke-width="0.9331" stroke-linecap="round" stroke-linejoin="round" stroke-miterlimit="10" d="
			M7.4,77.1c0,0-0.6,1.8-2.7,2.2"/>
		
			<path fill="none" stroke="#945535" stroke-width="0.9331" stroke-linecap="round" stroke-linejoin="round" stroke-miterlimit="10" d="
			M-1.9,70.5c0,0-1.2-0.6-1.2-1.8c0-1.3,0.9-2.3,3.1-2.2c2.2,0,3.1,1,3.1,2.2c0,1.2-1.2,1.8-1.2,1.8"/>
		
			<path fill="none" stroke="#945535" stroke-width="0.9331" stroke-linecap="round" stroke-linejoin="round" stroke-miterlimit="10" d="
			M-7.8,66.1c0,0,0.7-2.6,7.8-2.6s7.8,2.6,7.8,2.6"/>
		<path fill="#936DBC" stroke="#262261" stroke-miterlimit="10" d="M7.4,56.9L7,57.1l-0.6-2c-0.4-1.2-1-2.3-1.9-3.3
			c-1-1-2.6-2.3-4.5-2.9c-1.9,0.6-3.4,1.8-4.5,2.9c-0.9,0.9-1.5,2-1.9,3.3l-0.6,2l-0.4-0.2c-0.7-0.4-1-1.3-0.8-2.1
			c0.4-1.2,1.5-3.6,2.3-4.6c1.1-1.4,3.2-2.5,5.1-3.2c0,0,0.5-0.3,0.7-0.2c0.2-0.1,0.7,0.2,0.7,0.2c1.9,0.7,4,1.8,5.1,3.2
			c0.8,1,2,3.4,2.3,4.6C8.4,55.6,8.1,56.5,7.4,56.9z"/>
	</g>
	<g>
		<path fill="#2C1A12" stroke="#603A17" stroke-miterlimit="10" d="M-12.8,81.3c0,0-0.2-2.1,9.8-2.1c10,0,19,0.1,15-15
			c0,0-1.6-4.8-8.5-5.6c0,0-0.9-3.2-0.4-7.6s-1-14-2-17.1c0,0,3.5,0.9,4.9,7.1c0,0-0.2-5.6-0.9-7.1c0,0,6.6-0.5,8.6,6.6
			c0,0,0.6,3.8,0,8.3c0,0,1.8-3.6,3.8-4.8c0,0-0.1,2.6-2.9,7.9S15,62,16.7,63.6s8.6,11.7-5.4,19.8c0,0-5.3,6.4-20.7,4.5
			c-1.5-0.2-3-0.7-4.3-1.6c-3.7-2.8-10.3-9.5-6.1-17.9c0.8,0.3-0.2,3.3-0.2,3.3S-12.6,75-12.8,81.3z"/>
		<g>
			<g>
				<path fill="#603A17" d="M5.3,43.5c0,0,0,0.2,0,0.7c0,0.4,0,1-0.1,1.7c-0.1,1.4-0.3,3.3-0.6,5.2c-0.1,0.5-0.2,1-0.2,1.4
					c-0.1,0.5-0.1,1-0.1,1.4c0,0.9,0.1,1.8,0.2,2.5c0.3,1.5,0.7,2.3,0.7,2.3l0.1,0c0,0-0.1-1-0.2-2.4c0-0.7,0-1.5,0-2.4
					c0-0.9,0.1-1.8,0.2-2.8c0.2-1.9,0.3-3.9,0.3-5.3c0-0.7,0-1.3-0.1-1.8C5.4,43.8,5.4,43.5,5.3,43.5L5.3,43.5z"/>
			</g>
			<g>
				<path fill="#603A17" d="M-19.4,74.5c0,0-0.1,0.7,0.1,1.7c0.1,0.5,0.2,1.1,0.3,1.8c0.2,0.6,0.4,1.3,0.7,2
					c0.3,0.7,0.6,1.3,0.9,1.9c0.4,0.5,0.8,1,1.2,1.4c0.4,0.4,0.7,0.6,1,0.8c0.3,0.2,0.4,0.3,0.4,0.3l0.1-0.1c0,0-0.1-0.2-0.3-0.4
					c-0.1-0.1-0.2-0.3-0.3-0.4c-0.1-0.2-0.2-0.4-0.4-0.6c-0.1-0.2-0.3-0.4-0.5-0.7c-0.1-0.3-0.3-0.5-0.5-0.8c-0.4-0.5-0.7-1.1-1-1.7
					c-0.6-1.2-1.1-2.5-1.3-3.5C-19.3,75.2-19.4,74.5-19.4,74.5L-19.4,74.5z"/>
			</g>
			<g>
				<path fill="#603A17" d="M-17.2,75.5c0,0,0,0.3,0,0.8c0.1,0.5,0.2,1.1,0.5,1.7c0.1,0.3,0.3,0.6,0.4,0.8c0.2,0.2,0.4,0.4,0.6,0.6
					c0.4,0.3,0.7,0.4,0.7,0.4l0.1-0.1c0,0,0-0.1-0.1-0.2c0-0.1-0.1-0.3-0.2-0.5c-0.1-0.2-0.2-0.4-0.4-0.7c-0.2-0.2-0.4-0.4-0.5-0.7
					c-0.3-0.5-0.6-1-0.8-1.4C-17.1,75.8-17.1,75.5-17.2,75.5L-17.2,75.5z"/>
			</g>
			<g>
				<path fill="#603A17" d="M-11.8,85.2c0,0-0.3-0.3-0.6-0.8c-0.2-0.2-0.3-0.5-0.5-0.9c-0.1-0.2-0.1-0.3-0.2-0.5
					c0-0.2-0.1-0.3,0-0.5c0-0.2,0.1-0.3,0.1-0.5c0-0.2,0.2-0.3,0.2-0.4c0.2-0.3,0.4-0.5,0.5-0.7c0.1-0.1,0.2-0.2,0.2-0.3
					c0.1-0.1,0.2-0.2,0.2-0.2c0.1-0.1,0.2-0.2,0.2-0.2l0-0.1c0,0-0.1,0-0.3,0.1c-0.2,0.1-0.4,0.1-0.7,0.3c-0.1,0.1-0.3,0.2-0.4,0.3
					c-0.1,0.1-0.3,0.3-0.4,0.5c-0.1,0.2-0.2,0.4-0.2,0.6c0,0.2-0.1,0.5,0,0.7c0,0.2,0.1,0.4,0.1,0.6c0.1,0.2,0.1,0.4,0.3,0.6
					c0.2,0.4,0.4,0.6,0.6,0.8C-12.2,85.1-11.9,85.3-11.8,85.2L-11.8,85.2z"/>
			</g>
			<g>
				<path fill="#603A17" d="M-9.2,83.7c0,0,0.3-0.3,0.9-0.6c0.6-0.3,1.6-0.6,2.8-0.8c1.2-0.2,2.6-0.3,4.1-0.3c0.8,0,1.5,0,2.3,0
					c0.8,0,1.6-0.1,2.4-0.2c0.8-0.1,1.6-0.2,2.4-0.4c0.8-0.2,1.6-0.4,2.3-0.6c0.7-0.3,1.4-0.6,2-0.9c0.6-0.3,1.2-0.7,1.7-1.1
					c0.5-0.4,0.9-0.8,1.3-1.1c0.3-0.4,0.6-0.7,0.8-1c0.2-0.3,0.3-0.6,0.4-0.7c0.1-0.2,0.1-0.3,0.1-0.3l-0.1,0c0,0-0.1,0.1-0.2,0.2
					c-0.1,0.1-0.3,0.4-0.5,0.6c-0.2,0.3-0.5,0.6-0.9,0.9c-0.4,0.3-0.8,0.6-1.3,0.9c-0.5,0.3-1.1,0.6-1.7,0.9c-0.6,0.3-1.3,0.6-2,0.8
					c-0.7,0.3-1.4,0.5-2.2,0.7C4.8,80.8,4,81,3.2,81.1c-0.8,0.1-1.6,0.2-2.4,0.3c-0.8,0.1-1.6,0.1-2.3,0.1c-0.8,0-1.5,0.1-2.2,0.2
					c-0.7,0.1-1.3,0.2-1.9,0.3c-1.2,0.3-2.2,0.6-2.8,0.9C-9,83.3-9.3,83.6-9.2,83.7L-9.2,83.7z"/>
			</g>
			<g>
				<path fill="#603A17" d="M-3,85.5c0,0,1.2-0.1,3-0.3c0.9-0.2,2-0.3,3.1-0.6c1.1-0.3,2.3-0.7,3.4-1.1c0.6-0.2,1.2-0.4,1.7-0.7
					c0.5-0.3,1.1-0.5,1.6-0.8c0.5-0.3,1-0.6,1.4-0.9c0.4-0.3,0.8-0.6,1.2-1c0.3-0.3,0.6-0.6,0.9-0.9c0.3-0.3,0.4-0.6,0.6-0.8
					c0.3-0.4,0.5-0.7,0.5-0.7l-0.1,0c0,0-0.2,0.2-0.6,0.6c-0.2,0.2-0.4,0.4-0.7,0.6c-0.3,0.2-0.6,0.5-1,0.8
					c-0.3,0.3-0.8,0.5-1.2,0.8c-0.4,0.3-0.9,0.6-1.4,0.8c-0.5,0.3-1,0.6-1.5,0.8c-0.5,0.3-1.1,0.5-1.6,0.8c-1.1,0.5-2.2,0.9-3.3,1.2
					c-1.1,0.3-2.1,0.6-3,0.8C-1.8,85.3-3,85.4-3,85.5L-3,85.5z"/>
			</g>
			<g>
				<path fill="#603A17" d="M9.3,40.5c0.2,1,0.2,2.1,0.2,3.2c0,1.1-0.1,2.1-0.3,3.1c-0.1,0.5-0.2,1-0.3,1.5c-0.1,0.5-0.3,1-0.4,1.5
					c-0.3,1-0.7,2-1,3l0,0.1l0,0.1c0,1.1,0,2.3,0.1,3.4c0,1.1,0.1,2.3,0.3,3.4h0.1c0.1-1.1,0.2-2.3,0.3-3.4c0.1-1.1,0.1-2.3,0.1-3.4
					l0,0.1c0.4-1,0.7-2,0.9-3.1c0.1-0.5,0.2-1,0.3-1.6c0.1-0.5,0.2-1.1,0.2-1.6c0.1-1.1,0.2-2.1,0.1-3.2C9.8,42.6,9.7,41.5,9.3,40.5
					L9.3,40.5z"/>
			</g>
			<g>
				<path fill="#603A17" d="M10.5,55.9c0,0-0.1,0.4-0.3,1.1c-0.1,0.7-0.2,1.6-0.1,2.5c0,0.5,0.1,0.9,0.1,1.3
					c0.1,0.4,0.2,0.8,0.4,1.1c0.3,0.6,0.7,1,0.7,1l0.1,0c0,0,0-0.1,0-0.3c0-0.1,0-0.2-0.1-0.4c0-0.1,0-0.3-0.1-0.5
					c0-0.2-0.1-0.3-0.1-0.5c0-0.2-0.1-0.4-0.1-0.6c-0.1-0.4-0.2-0.8-0.3-1.2c-0.2-0.9-0.2-1.7-0.2-2.4
					C10.5,56.3,10.5,55.9,10.5,55.9L10.5,55.9z"/>
			</g>
			<g>
				<path fill="#603A17" d="M16,72.7c0,0,0.2-0.9,0.3-2.3c0.1-0.7,0.1-1.5,0-2.4c-0.1-0.9-0.2-1.9-0.6-2.8c-0.2-0.5-0.4-0.9-0.6-1.3
					c-0.2-0.4-0.3-0.8-0.4-1.3c-0.2-0.8-0.4-1.6-0.6-2.3c-0.3-1.4-0.5-2.3-0.5-2.3l-0.1,0c0,0-0.1,1,0,2.4c0.1,0.7,0.2,1.6,0.4,2.4
					c0.1,0.4,0.3,0.9,0.5,1.3c0.2,0.4,0.5,0.9,0.7,1.3c0.4,0.8,0.6,1.7,0.7,2.6c0.1,0.9,0.1,1.7,0.1,2.4
					C16.1,71.7,15.9,72.6,16,72.7L16,72.7z"/>
			</g>
			<g>
				<path fill="#603A17" d="M18.5,72.2c0,0,0.2-0.5,0.3-1.4c0.1-0.8,0.1-2-0.1-3.1c-0.1-0.6-0.2-1.1-0.4-1.7c-0.2-0.5-0.4-1-0.7-1.3
					c-0.2-0.4-0.5-0.6-0.6-0.8c-0.2-0.2-0.3-0.3-0.3-0.3l-0.1,0c0,0,0,0.1,0.1,0.4c0,0.1,0.1,0.3,0.1,0.4c0.1,0.2,0.1,0.3,0.2,0.5
					c0.1,0.4,0.3,0.8,0.5,1.3c0.2,0.5,0.4,1,0.5,1.5c0.3,1.1,0.4,2.2,0.4,3C18.6,71.7,18.4,72.2,18.5,72.2L18.5,72.2z"/>
			</g>
		</g>
	</g>
</symbol>
<symbol id="New_Symbol_53" viewBox="-24.4 -88.5 48.9 177.1">
	<g>
		<g>
			
				<use xlink:href="#New_Symbol_49" width="23.7" height="46.8" id="XMLID_136_" x="-11.9" y="-23.4" transform="matrix(1 0 0 1 -10.9691 -64.9015)" overflow="visible"/>
			
				<use xlink:href="#New_Symbol_49" width="23.7" height="46.8" x="-11.9" y="-23.4" transform="matrix(-1 4.489700e-11 4.489700e-11 1 10.8434 -65.089)" overflow="visible"/>
		</g>
		<g>
			<defs>
				<path id="SVGID_5_" d="M11.9,8.7H-0.1H-12c-5.3-20.4-0.6-39-0.6-39s0.4-9.8,0.6-11.8c0.2-2,0-6,0-6c7.1-2.1,11.9,0,11.9,0
					s0,8.2-0.8,17.1c-1,11,0.8,19.4,0.8,19.4s1.9-8.4,0.8-19.4C-0.1-39.8-0.1-48-0.1-48s4.8-2.1,11.9,0c0,0-0.2,3.9,0,6
					c0.2,2,0.6,11.8,0.6,11.8S17.2-11.7,11.9,8.7z"/>
			</defs>
			<use xlink:href="#SVGID_5_" overflow="visible" fill="#C3996B"/>
			
			<g clip-path="url(#SVGID_6_)">
				<g>
					<path fill="#C3996B" stroke="#886037" stroke-miterlimit="10" d="M-15.6-5.9c0,0,3.3,1,4.7,14.6"/>
				</g>
				<g>
					<path fill="#C3996B" stroke="#886037" stroke-miterlimit="10" d="M15.5-5.9c0,0-3.3,1-4.7,14.6"/>
				</g>
			</g>
			<use xlink:href="#SVGID_5_" overflow="visible" fill="none" stroke="#886037" stroke-miterlimit="10"/>
		</g>
		<g>
			<g>
				<g>
					<path fill="#FCCB98" stroke="#C08857" stroke-linecap="round" stroke-linejoin="round" stroke-miterlimit="10" d="M-11.5,41.7
						c0,0-2.9-7.2-3.3-17.3S-18.9,3-18.9,3s4.1-10.2,2.1-13.4c-1-1.6-2.8,4.2-2.8,4.2s-0.2-4.4,0.9-7.9s0.5-5.3-0.2-5.6
						c-0.6-0.3-4.9,4.4-5.1,16.5c0,2.6,0.5,6.2,0.9,8.7c0.4,2.5,0.9,6.1,1.2,8c0.4,3.2,1.2,7.9,1.7,8.9c0,0,1.1,13,3,20.2
						c0.4,1.6,2.2,2.1,3.3,1.1L-11.5,41.7z"/>
				</g>
			</g>
			<g>
				<g>
					<path fill="#FCCB98" stroke="#C08857" stroke-linecap="round" stroke-linejoin="round" stroke-miterlimit="10" d="M11.4,41.7
						c0,0,2.9-7.2,3.3-17.3S18.8,3,18.8,3s-4.1-10.2-2.1-13.4c1-1.6,2.8,4.2,2.8,4.2s0.2-4.4-0.9-7.9c-1.1-3.4-0.5-5.3,0.2-5.6
						c0.6-0.3,4.9,4.4,5.1,16.5c0,2.6-0.5,6.2-0.9,8.7c-0.4,2.5-0.9,6.1-1.2,8c-0.4,3.2-1.2,7.9-1.7,8.9c0,0-1.1,13-3,20.2
						c-0.4,1.6-2.2,2.1-3.3,1.1L11.4,41.7z"/>
				</g>
			</g>
		</g>
		<g>
			<g>
				<defs>
					<path id="SVGID_7_" d="M21.8,13.8c0,0,0.2,1.2-0.4,4.4c-0.7,3.2-1.2,9-1.7,15.7c-0.5,6.7-7,21.7-19.1,20.3
						c-14.2,0.9-19.9-13.7-20.4-20.3c-0.5-6.7-1-12.5-1.7-15.7c-0.7-3.2-0.4-4.4-0.4-4.4l-1.7-5.1c1.7-2.5,7.2-1.7,7.2-1.7
						c-0.5,1.1,0,5.6,0,5.6c1.7,1.2,1.2,6.2,1.2,6.2c1.8,0.9,1.2,4.4,1.2,4.4s1.8,0.1,0.8,4.8c0.8,9.2,2.2,13.6,2.2,13.6
						s-2-8.1,0-13.1c0,0,0.2-4.8-0.4-7.2c-0.5-2.1-1.4-5.9-0.5-9.3c0,0-0.6-1.5-1-3.4c0,0,2.1-3.6,13.7-2.9
						c11.6-0.7,12.2,2.9,12.2,2.9c-0.4,1.9-1,3.4-1,3.4c0.9,3.4,0,7.2-0.5,9.3c-0.6,2.3-0.4,7.2-0.4,7.2c2,5,0,13.1,0,13.1
						s1.3-4.4,2.2-13.6c-1-4.7,0.8-4.8,0.8-4.8s-0.7-3.5,1.2-4.4c0,0-0.6-5.1,1.2-6.2c0,0,0.5-4.5,0-5.6c0,0,5.5-0.8,7.2,1.7
						L21.8,13.8z"/>
				</defs>
				<use xlink:href="#SVGID_7_" overflow="visible" fill="#2EA6A0"/>
				
				<g clip-path="url(#SVGID_8_)">
					<path fill="#2EA6A0" stroke="#187067" stroke-width="0.75" stroke-miterlimit="10" d="M14.6,12.8c0,0,3.3-0.5,8.9,1.4"/>
					<path fill="#2EA6A0" stroke="#187067" stroke-width="0.75" stroke-miterlimit="10" d="M-14.7,12.8c0,0-3.3-0.5-8.9,1.4"/>
				</g>
				<use xlink:href="#SVGID_7_" overflow="visible" fill="none" stroke="#187067" stroke-width="0.75" stroke-miterlimit="10"/>
			</g>
			<g>
				<g>
					<path fill="#187067" d="M17.3,17.9c0,0,0.3-1.3,0.5-2.5c0.1-0.3,0.2-0.6,0.2-0.9c0-0.3,0.1-0.6,0.1-0.8c0-0.2,0-0.4,0-0.6
						c0-0.1,0-0.2,0-0.2c0,0,0,0-0.1,0c0,0,0,0,0,0c0,0-0.1,0.1-0.2,0.2c-0.1,0.1-0.2,0.3-0.3,0.5c-0.1,0.2-0.2,0.5-0.3,0.8
						c0,0.3,0,0.6,0,1C17.1,16.6,17.2,17.9,17.3,17.9C17.2,17.9,17.3,18,17.3,17.9C17.3,18,17.3,17.9,17.3,17.9z"/>
				</g>
				<g>
					<path fill="#187067" d="M20.2,17.4c0,0,0.2-1,0.4-2c0-0.3,0.1-0.5,0.1-0.7c0-0.2-0.1-0.5-0.1-0.6c-0.1-0.2-0.1-0.3-0.2-0.4
						c-0.1-0.1-0.1-0.2-0.1-0.2c0,0-0.1,0-0.1,0c0,0,0,0,0,0c0,0,0,0.1-0.1,0.2c-0.1,0.1-0.1,0.3-0.2,0.5c-0.1,0.2-0.1,0.4-0.1,0.6
						c0,0.2,0.1,0.5,0.1,0.7C20,16.4,20.2,17.4,20.2,17.4C20.2,17.4,20.2,17.5,20.2,17.4C20.2,17.5,20.2,17.4,20.2,17.4z"/>
				</g>
				<g>
					<path fill="#187067" d="M15.1,16.8c0,0,0,0.6,0.1,1.5c0.1,0.4,0.1,1,0.3,1.5c0.1,0.3,0.2,0.6,0.3,0.8c0.1,0.3,0.3,0.5,0.4,0.8
						c0.3,0.5,0.5,1,0.7,1.5c0.2,0.5,0.4,0.9,0.6,1.3c0.2,0.4,0.3,0.7,0.4,1c0.1,0.2,0.1,0.4,0.1,0.4c0,0,0,0,0.1,0c0,0,0,0,0,0
						c0,0,0.1-0.1,0.1-0.4c0.1-0.3,0.1-0.7,0-1.1c-0.1-0.5-0.2-1-0.4-1.5c-0.2-0.5-0.6-1-0.9-1.5c-0.2-0.3-0.4-0.5-0.5-0.7
						c-0.1-0.2-0.3-0.4-0.4-0.7c-0.2-0.5-0.4-1-0.5-1.4C15.3,17.4,15.2,16.8,15.1,16.8C15.2,16.8,15.1,16.8,15.1,16.8
						C15.1,16.8,15.1,16.8,15.1,16.8z"/>
				</g>
				<g>
					<path fill="#187067" d="M13.8,22.2c0,0,0,0.1,0,0.3c0,0.2,0.1,0.5,0.2,0.8c0.2,0.6,0.7,1.4,1,2.2c0.2,0.4,0.3,0.8,0.4,1.2
						c0.1,0.4,0.2,0.7,0.3,1c0.1,0.3,0.1,0.6,0.2,0.7c0,0.2,0.1,0.3,0.1,0.3c0,0,0,0,0.1,0c0,0,0,0,0,0c0,0,0.1-0.1,0.1-0.3
						c0.1-0.2,0.1-0.5,0.2-0.8c0-0.4,0-0.8-0.1-1.2c-0.1-0.4-0.4-0.8-0.6-1.2c-0.5-0.8-1-1.5-1.3-2c-0.2-0.3-0.3-0.5-0.3-0.7
						C13.9,22.3,13.9,22.2,13.8,22.2C13.9,22.2,13.9,22.2,13.8,22.2C13.8,22.2,13.8,22.2,13.8,22.2z"/>
				</g>
				
					<path fill="none" stroke="#187067" stroke-width="0.8188" stroke-linecap="round" stroke-linejoin="round" stroke-miterlimit="10" d="
					M10.8,12.1c0,0-0.5-1.8-10.6-1.8c-10.6-0.1-11.1,1.8-11.1,1.8"/>
				<g>
					<path fill="#187067" d="M6.2,9.5c0,0,0.3-0.6,0.5-1.2c0.1-0.2,0.1-0.3,0.2-0.5c0-0.2,0-0.3,0-0.4C6.8,7.2,6.8,7.1,6.7,7
						c0-0.1-0.1-0.1-0.1-0.1c0,0-0.1,0-0.1,0c0,0-0.1,0-0.1,0.1C6.4,7.1,6.3,7.2,6.2,7.3C6.2,7.4,6.1,7.5,6.1,7.7c0,0.1,0,0.3,0,0.5
						C6.1,8.8,6.1,9.5,6.2,9.5C6.1,9.5,6.1,9.5,6.2,9.5C6.2,9.5,6.2,9.5,6.2,9.5z"/>
				</g>
				<g>
					<path fill="#187067" d="M9.1,10.3c0,0,0.1-0.1,0.3-0.3c0.2-0.2,0.3-0.5,0.5-0.9c0.1-0.2,0.2-0.3,0.2-0.5c0-0.2,0-0.3,0-0.5
						C10,7.8,9.9,7.7,9.9,7.7c0,0-0.1,0-0.1,0c0,0-0.1,0-0.1,0.1C9.6,7.8,9.5,7.9,9.5,8C9.4,8.1,9.3,8.3,9.3,8.4c0,0.2,0,0.3,0,0.5
						c0,0.3-0.1,0.7-0.1,0.9C9.1,10.1,9.1,10.2,9.1,10.3C9,10.3,9.1,10.3,9.1,10.3C9.1,10.3,9.1,10.3,9.1,10.3z"/>
				</g>
				<g>
					<path fill="#187067" d="M11.1,11.2c0,0,0.4-0.4,0.7-1c0.1-0.1,0.2-0.3,0.2-0.4c0-0.1,0-0.3,0-0.4C12,9.1,11.8,9,11.8,9
						c0,0-0.1,0-0.1,0c0,0-0.2,0.1-0.3,0.3c-0.1,0.1-0.1,0.2-0.2,0.3c0,0.1,0,0.3,0,0.4C11.2,10.6,11.1,11.2,11.1,11.2
						C11,11.2,11.1,11.2,11.1,11.2C11.1,11.2,11.1,11.2,11.1,11.2z"/>
				</g>
				<g>
					<path fill="#187067" d="M-17.4,17.9c0,0,0.1-1.3,0-2.6c0-0.3,0-0.7,0-1c-0.1-0.3-0.1-0.6-0.3-0.8c-0.1-0.2-0.2-0.4-0.3-0.5
						c-0.1-0.1-0.2-0.2-0.2-0.2c0,0,0,0-0.1,0c0,0,0,0,0,0c0,0,0,0.1,0,0.2c0,0.1,0,0.3,0,0.6c0,0.2,0,0.5,0.1,0.8
						c0.1,0.3,0.2,0.6,0.2,0.9C-17.7,16.7-17.4,17.9-17.4,17.9C-17.4,17.9-17.4,18-17.4,17.9C-17.4,18-17.4,17.9-17.4,17.9z"/>
				</g>
				<g>
					<path fill="#187067" d="M-20.3,17.4c0,0,0.1-1,0.2-2c0-0.2,0.1-0.5,0.1-0.7c0-0.2,0-0.4-0.1-0.6c-0.1-0.2-0.1-0.3-0.2-0.5
						c0-0.1-0.1-0.2-0.1-0.2c0,0,0,0-0.1,0c0,0,0,0,0,0c0,0-0.1,0.1-0.1,0.2c-0.1,0.1-0.1,0.3-0.2,0.4c-0.1,0.2-0.1,0.4-0.1,0.6
						c0,0.2,0.1,0.5,0.1,0.7C-20.6,16.4-20.4,17.4-20.3,17.4C-20.4,17.4-20.3,17.5-20.3,17.4C-20.3,17.4-20.3,17.4-20.3,17.4z"/>
				</g>
				<g>
					<path fill="#187067" d="M-15.3,16.8c0,0-0.1,0.6-0.4,1.4c-0.1,0.4-0.3,0.9-0.5,1.4c-0.1,0.2-0.2,0.5-0.4,0.7
						c-0.2,0.2-0.3,0.4-0.5,0.7c-0.3,0.5-0.7,1-0.9,1.5c-0.2,0.5-0.4,1.1-0.4,1.5c-0.1,0.5,0,0.9,0,1.1c0,0.3,0.1,0.4,0.1,0.4
						c0,0,0,0,0.1,0c0,0,0,0,0,0c0,0,0-0.1,0.1-0.4c0.1-0.2,0.2-0.6,0.4-1c0.2-0.4,0.4-0.8,0.6-1.3c0.2-0.5,0.4-1,0.7-1.5
						c0.1-0.2,0.3-0.5,0.4-0.8c0.2-0.3,0.3-0.6,0.3-0.8c0.2-0.5,0.3-1.1,0.3-1.5C-15.2,17.4-15.2,16.8-15.3,16.8
						C-15.2,16.8-15.2,16.8-15.3,16.8C-15.3,16.8-15.3,16.8-15.3,16.8z"/>
				</g>
				<g>
					<path fill="#187067" d="M-14,22.2c0,0,0,0.1-0.1,0.3c-0.1,0.2-0.2,0.4-0.3,0.7c-0.3,0.5-0.9,1.2-1.3,2
						c-0.2,0.4-0.5,0.8-0.6,1.2c-0.1,0.4-0.2,0.8-0.1,1.2c0,0.4,0.1,0.6,0.2,0.8c0.1,0.2,0.1,0.3,0.1,0.3c0,0,0,0,0.1,0c0,0,0,0,0,0
						c0,0,0-0.1,0.1-0.3c0-0.2,0.1-0.4,0.2-0.7c0.1-0.3,0.2-0.6,0.3-1c0.1-0.4,0.2-0.8,0.4-1.2c0.3-0.8,0.8-1.5,1-2.2
						c0.1-0.3,0.2-0.6,0.2-0.8C-13.9,22.3-13.9,22.2-14,22.2C-13.9,22.2-13.9,22.2-14,22.2C-14,22.2-14,22.2-14,22.2z"/>
				</g>
				<g>
					<path fill="#187067" d="M-6.2,9.5c0,0,0-0.7,0-1.3c0-0.2,0-0.3,0-0.5c0-0.1-0.1-0.3-0.2-0.4C-6.4,7.2-6.5,7.1-6.6,7
						c-0.1-0.1-0.1-0.1-0.1-0.1c0,0-0.1,0-0.1,0c0,0,0,0-0.1,0.1C-6.9,7.1-6.9,7.2-7,7.3c0,0.1-0.1,0.3,0,0.4c0,0.2,0.1,0.3,0.2,0.5
						C-6.6,8.9-6.3,9.5-6.2,9.5C-6.3,9.5-6.3,9.5-6.2,9.5C-6.2,9.5-6.2,9.5-6.2,9.5z"/>
				</g>
				<g>
					<path fill="#187067" d="M-9.2,10.2c0,0,0-0.2-0.1-0.4c0-0.3-0.1-0.6-0.1-0.9c0-0.2,0-0.3,0-0.5c0-0.1-0.1-0.3-0.2-0.4
						c-0.1-0.1-0.1-0.2-0.2-0.3c-0.1-0.1-0.1-0.1-0.1-0.1c0,0-0.1,0-0.1,0c0,0-0.2,0.2-0.2,0.5c0,0.1,0,0.3,0,0.5
						c0,0.2,0.1,0.3,0.2,0.5c0.2,0.3,0.3,0.6,0.5,0.9C-9.4,10.1-9.2,10.3-9.2,10.2C-9.2,10.3-9.2,10.3-9.2,10.2
						C-9.2,10.3-9.2,10.2-9.2,10.2z"/>
				</g>
				<g>
					<path fill="#187067" d="M-11.2,11.2c0,0-0.1-0.6-0.2-1.2c0-0.1,0-0.3,0-0.4c0-0.1-0.1-0.2-0.2-0.3C-11.7,9.1-11.9,9-11.9,9
						c0,0-0.1,0-0.1,0c0,0-0.2,0.2-0.3,0.4c0,0.1,0,0.3,0,0.4c0,0.1,0.1,0.3,0.2,0.4C-11.7,10.8-11.2,11.2-11.2,11.2
						C-11.2,11.2-11.2,11.2-11.2,11.2C-11.2,11.2-11.2,11.2-11.2,11.2z"/>
				</g>
			</g>
		</g>
		<path fill="#FCCB98" stroke="#C08857" stroke-linecap="round" stroke-linejoin="round" stroke-miterlimit="10" d="M-0.1,62.3
			L-7.4,60l0.8-6.5c0,0,0.9-6.8,0.9-7.3c0-0.5,5.6-5.8,5.6-5.8s5.6,5.3,5.6,5.8c0,0.5,0.9,7.3,0.9,7.3L7.2,60L-0.1,62.3z"/>
		<g>
			<g>
				<g>
					<path fill="#FCCB98" stroke="#C08857" stroke-linecap="round" stroke-linejoin="round" stroke-miterlimit="10" d="M-16.8,67.5
						c0,0-1.4,3.3-4.3,3.1c-1.2,0-2.2-0.9-2.5-2c-0.5-2.1,0-6.1,9-8.4L-16.8,67.5z"/>
				</g>
			</g>
			<g id="XMLID_132_">
				<g>
					<path fill="#FCCB98" stroke="#C08857" stroke-linecap="round" stroke-linejoin="round" stroke-miterlimit="10" d="M17,67.5
						c0,0,1.4,3.3,4.4,3.1c1.2,0,2.3-0.9,2.5-2c0.5-2.1,0-6.1-9.1-8.4L17,67.5z"/>
				</g>
			</g>
		</g>
		<path fill="#FCCB98" stroke="#C08857" stroke-linecap="round" stroke-linejoin="round" stroke-miterlimit="10" d="M19.6,69.3
			c0-7.6-8.8-13.7-19.6-13.7s-19.6,6.1-19.6,13.7S-10.8,83,0,83S19.6,76.9,19.6,69.3z"/>
		<path fill="#231F20" d="M-4,70.1c0-1.5-0.5-2.7-1.1-2.7s-1.1,1.2-1.1,2.7s0.5,2.7,1.1,2.7S-4,71.6-4,70.1z"/>
		<path fill="none" stroke="#C08857" stroke-linecap="round" stroke-linejoin="round" stroke-miterlimit="10" d="M-7.2,74.7
			c0,0,0.6,1.8,2.7,2.2"/>
		<path fill="#231F20" d="M4.3,70.1c0-1.5,0.5-2.7,1.1-2.7s1.1,1.2,1.1,2.7S6,72.8,5.4,72.8S4.3,71.6,4.3,70.1z"/>
		<path fill="none" stroke="#C08857" stroke-linecap="round" stroke-linejoin="round" stroke-miterlimit="10" d="M7.4,74.7
			c0,0-0.6,1.8-2.7,2.2"/>
		<path fill="none" stroke="#C08857" stroke-linecap="round" stroke-linejoin="round" stroke-miterlimit="10" d="M-1.9,68
			c0,0-1.2-0.6-1.2-1.8C-3,65-2.2,64,0,64c2.2,0,3.1,1,3.1,2.2c0,1.2-1.2,1.8-1.2,1.8"/>
		<path fill="none" stroke="#C08857" stroke-linecap="round" stroke-linejoin="round" stroke-miterlimit="10" d="M-7.7,63.7
			c0,0,0.7-2.6,7.8-2.6s7.8,2.6,7.8,2.6"/>
		<polygon fill="#2EA6A0" points="-7.3,50.5 -2.5,49.5 -0.1,46.6 3,49.5 7.2,50.5 7.2,41.7 -2,35.9 -6.3,43.2 		"/>
		<g>
			
				<path fill="#FFFFFF" stroke="#858199" stroke-width="0.898" stroke-linecap="round" stroke-linejoin="round" stroke-miterlimit="10" d="
				M-9.7,46.6c0,0-0.6,3.8,0.6,5.4s1.9,2.7,1.9,2.7l0.4-1.9c0,0,5.1-1.2,6.8-6.2c0,0-0.7-0.7-1.6,0c-0.9,0.7-2.2,2.6-3.3,2.6
				S-9.7,46.6-9.7,46.6z"/>
			
				<path fill="#FFFFFF" stroke="#858199" stroke-width="0.898" stroke-linecap="round" stroke-linejoin="round" stroke-miterlimit="10" d="
				M9.6,46.6c0,0,0.6,3.8-0.6,5.4c-1.2,1.6-1.9,2.7-1.9,2.7l-0.4-1.9c0,0-5.1-1.2-6.8-6.2c0,0,0.7-0.7,1.6,0
				c0.9,0.7,2.2,2.6,3.3,2.6S9.6,46.6,9.6,46.6z"/>
		</g>
		<g>
			<g>
				<path fill="#886037" d="M-11-42.1c0,0,0.4-0.3,1-0.6c0.7-0.3,1.6-0.6,2.5-0.9c0.5-0.1,0.9-0.2,1.4-0.3c0.4-0.1,0.8-0.2,1.2-0.3
					c0.7-0.2,1.2-0.4,1.2-0.4l0,0c0,0-0.5,0-1.2,0.1c-0.4,0.1-0.8,0.1-1.2,0.2c-0.4,0.1-0.9,0.3-1.4,0.5c-0.9,0.3-1.8,0.7-2.4,1.1
					C-10.6-42.4-11-42.1-11-42.1L-11-42.1z"/>
			</g>
			<g>
				<path fill="#886037" d="M10.9-42.1c0,0-0.4-0.3-1-0.7c-0.6-0.4-1.5-0.8-2.4-1.1c-0.5-0.2-0.9-0.3-1.4-0.5
					c-0.4-0.1-0.9-0.2-1.2-0.2c-0.7-0.1-1.2-0.1-1.2-0.1l0,0c0,0,0.5,0.2,1.2,0.4c0.3,0.1,0.8,0.2,1.2,0.3c0.4,0.1,0.9,0.2,1.4,0.3
					c0.9,0.3,1.8,0.6,2.5,0.9C10.4-42.4,10.8-42.1,10.9-42.1L10.9-42.1z"/>
			</g>
		</g>
	</g>
	<g>
		
			<path fill="#F79838" stroke="#CC6632" stroke-width="0.9" stroke-linecap="round" stroke-linejoin="round" stroke-miterlimit="10" d="
			M-23.4,70.3c0.5,0.1,3.3-0.3,4.9-3.6c0,0,1.6,2.2,2.4,5.4c0.8,3.2,3.2,8.6,22.6,6.9c0,0,2.1-4.7,9.4-8.5c1.3-0.7,3.3-2.5,3.8-3.3
			c0.2-0.3,0.7-0.2,0.7,0.2c0.5,2.6,1.4,9.4-2.9,11.4c0,0,0.9,1.2,0.2,3.6c-1,3.2-7.9,8.7-11.8,3.9c0,0-9.4,1.6-12-1.4
			c0,0-14.8,2.2-14-11c0,0-2.4-0.5-3.5-3.3C-23.6,70.4-23.5,70.3-23.4,70.3z"/>
		<g>
			<g>
				<path fill="#CC6632" d="M-2,82.3c0,0,0,0.2,0.1,0.5c0.1,0.3,0.3,0.8,0.9,1.2c0.3,0.1,0.6,0.3,0.9,0.3c0.3,0.1,0.7,0.1,1.1,0.1
					c0.1,0,0.2,0,0.3,0l0.3,0c0.2,0,0.4-0.1,0.6-0.1c0.4-0.1,0.8-0.3,1.1-0.5c0.7-0.4,1.3-1,1.8-1.5c0.5-0.6,0.8-1.2,1.1-1.7
					c0.5-1.1,0.7-1.9,0.7-1.9c0,0,0,0,0-0.1c0,0,0,0,0,0c0,0-0.5,0.6-1.2,1.5c-0.4,0.4-0.8,1-1.2,1.5c-0.2,0.3-0.4,0.5-0.7,0.8
					c-0.2,0.3-0.5,0.5-0.8,0.7c-0.3,0.2-0.6,0.4-0.9,0.5c-0.1,0.1-0.3,0.1-0.5,0.2l-0.3,0.1c0,0-0.2,0-0.2,0c-0.3,0-0.7,0.1-1,0
					c-0.3,0-0.6-0.1-0.8-0.2c-0.5-0.2-0.8-0.6-0.9-0.9C-1.9,82.5-1.9,82.3-2,82.3C-1.9,82.3-1.9,82.2-2,82.3C-2,82.2-2,82.3-2,82.3z
					"/>
			</g>
			<g>
				<path fill="#CC6632" d="M4.5,86.4c1,0,1.9-0.4,2.7-0.8c0.4-0.2,0.8-0.5,1.2-0.7c0.4-0.3,0.8-0.6,1.1-0.9c0.4-0.3,0.7-0.6,1.1-1
					c0.3-0.3,0.6-0.7,1-1l0.9-1.1l0.8-1.1L13,80c1.2,0,2.3-0.2,3.5-0.5c0.6-0.2,1.1-0.4,1.6-0.7c0.3-0.2,0.5-0.3,0.7-0.6
					c0.1-0.1,0.2-0.2,0.3-0.4c0.1-0.1,0.1-0.3,0.2-0.4c0,0,0,0,0-0.1c0,0,0,0-0.1,0l0,0l-0.3,0.3c-0.1,0.1-0.2,0.2-0.3,0.2
					c-0.2,0.1-0.5,0.3-0.7,0.4c-0.2,0.1-0.5,0.2-0.8,0.2c-0.3,0.1-0.5,0.1-0.8,0.2c-1.1,0.2-2.2,0.3-3.3,0.4l0,0
					c-0.1,0-0.3,0.1-0.3,0.2l-0.7,1.2l-0.8,1.1c-0.3,0.4-0.6,0.7-0.9,1.1c-0.3,0.3-0.6,0.7-1,1c-0.3,0.3-0.7,0.6-1,0.9
					c-0.4,0.3-0.7,0.5-1.1,0.8C6.3,85.8,5.4,86.2,4.5,86.4C4.5,86.3,4.5,86.4,4.5,86.4C4.5,86.4,4.5,86.4,4.5,86.4z"/>
			</g>
			<g>
				<path fill="#CC6632" d="M15.3,73.6c0,0,0.5-0.1,1.3-0.4c0.4-0.2,0.8-0.4,1.2-0.7c0.4-0.3,0.8-0.7,1.2-1.1c0.4-0.4,0.7-0.8,1-1.3
					c0.2-0.5,0.4-0.9,0.5-1.3c0.1-0.4,0.1-0.7,0.1-1c0-0.2,0-0.4,0-0.4c0,0,0,0-0.1,0c0,0,0,0,0,0c0,0-0.1,0.1-0.2,0.3
					c-0.1,0.2-0.3,0.5-0.5,0.8c-0.1,0.2-0.2,0.4-0.3,0.5c-0.1,0.2-0.2,0.4-0.3,0.6c-0.2,0.4-0.4,0.9-0.7,1.3c-0.6,0.8-1.3,1.5-2,1.9
					C15.8,73.3,15.3,73.5,15.3,73.6C15.3,73.5,15.2,73.5,15.3,73.6C15.3,73.6,15.3,73.6,15.3,73.6z"/>
			</g>
			<g>
				<path fill="#CC6632" d="M13.1,77.8c0,0,0.2,0,0.5-0.1c0.3-0.1,0.8-0.3,1.3-0.5c0.5-0.2,1.1-0.5,1.7-0.9c0.3-0.2,0.6-0.4,0.9-0.7
					c0.3-0.2,0.6-0.5,0.9-0.8c0.3-0.3,0.6-0.6,0.8-0.9c0.2-0.3,0.5-0.6,0.7-0.9c0.2-0.3,0.4-0.7,0.5-1c0.1-0.3,0.2-0.6,0.3-0.9
					c0.1-0.3,0.1-0.6,0.1-0.8c0-0.2,0-0.5,0-0.6c0-0.3,0-0.5,0-0.5c0,0,0,0-0.1,0c0,0,0,0,0,0l0,0c0,0-0.1,0.2-0.2,0.5
					c-0.1,0.2-0.1,0.3-0.2,0.6c-0.1,0.2-0.2,0.4-0.3,0.7c-0.1,0.3-0.2,0.5-0.4,0.8c-0.1,0.3-0.3,0.6-0.5,0.9
					c-0.1,0.3-0.4,0.6-0.5,0.9c-0.2,0.3-0.4,0.6-0.7,0.9c-0.3,0.3-0.5,0.6-0.8,0.8c-0.3,0.3-0.5,0.5-0.8,0.7
					c-0.5,0.4-1.1,0.8-1.6,1.1c-0.5,0.3-0.9,0.5-1.2,0.6C13.3,77.7,13.1,77.7,13.1,77.8C13.1,77.7,13,77.7,13.1,77.8
					C13.1,77.8,13.1,77.8,13.1,77.8z"/>
			</g>
			<g>
				<path fill="#CC6632" d="M12.4,83.2c0,0,0.3-0.2,0.7-0.4c0.4-0.3,0.9-0.7,1.4-1.1c0.2-0.2,0.5-0.4,0.7-0.7
					c0.2-0.3,0.3-0.5,0.4-0.8c0.1-0.2,0.1-0.5,0.1-0.6c0-0.2,0-0.2,0-0.2c0,0,0,0-0.1,0c0,0,0,0,0,0c0,0-0.3,0.2-0.6,0.5
					c-0.2,0.2-0.3,0.4-0.5,0.6c-0.1,0.2-0.3,0.5-0.5,0.8c-0.3,0.5-0.8,1-1,1.3C12.6,82.9,12.3,83.1,12.4,83.2
					C12.3,83.1,12.3,83.2,12.4,83.2C12.4,83.2,12.4,83.2,12.4,83.2z"/>
			</g>
			<g>
				<path fill="#CC6632" d="M15.8,83.2c0,0,0.2-0.2,0.5-0.5c0.3-0.3,0.6-0.8,0.8-1.4c0.1-0.3,0.2-0.6,0.3-0.8c0-0.3,0-0.5-0.1-0.8
					c-0.1-0.2-0.1-0.4-0.2-0.5C17,79,16.9,79,16.9,79c0,0-0.1,0-0.1,0c0,0,0,0,0,0c0,0,0,0.1-0.1,0.2c-0.1,0.1-0.1,0.3-0.2,0.5
					c-0.1,0.2-0.1,0.4-0.2,0.6c0,0.2,0,0.5,0,0.8c-0.1,0.5-0.2,1-0.4,1.4C15.8,82.9,15.7,83.1,15.8,83.2
					C15.7,83.1,15.7,83.2,15.8,83.2C15.7,83.2,15.7,83.2,15.8,83.2z"/>
			</g>
			<g>
				<path fill="#CC6632" d="M6.4,86.8c0,0,0.2,0.1,0.6,0.3c0.3,0.2,0.8,0.3,1.4,0.4c0.3,0,0.5,0.1,0.8,0.1c0.2,0,0.5-0.1,0.6-0.2
					c0.4-0.2,0.5-0.5,0.5-0.5c0,0,0-0.1,0-0.1c0,0,0,0,0,0c0,0-0.3-0.1-0.6-0.1c-0.2,0-0.4,0-0.6,0c-0.2,0-0.4,0.1-0.7,0.1
					c-0.5,0.1-0.9,0.1-1.3,0.1C6.6,86.7,6.4,86.7,6.4,86.8C6.4,86.7,6.3,86.7,6.4,86.8C6.3,86.7,6.3,86.7,6.4,86.8z"/>
			</g>
			<g>
				<path fill="#CC6632" d="M-0.3,81c0,0,0,0.1,0.1,0.2c0.1,0.1,0.3,0.3,0.6,0.4c0.3,0.1,0.7,0.1,1,0c0.4-0.1,0.7-0.2,1.1-0.4
					c0.4-0.2,0.7-0.3,1-0.5c0.3-0.2,0.5-0.5,0.7-0.7c0.4-0.5,0.5-0.8,0.5-0.8c0,0,0-0.1,0-0.1c0,0,0,0,0,0c0,0-0.4,0.1-0.9,0.4
					c-0.3,0.1-0.5,0.3-0.8,0.5c-0.3,0.2-0.5,0.5-0.8,0.7c-0.6,0.4-1.2,0.7-1.7,0.7C0,81.4-0.2,81-0.3,81C-0.2,81-0.2,81-0.3,81
					C-0.3,81-0.3,81-0.3,81z"/>
			</g>
			<g>
				<path fill="#CC6632" d="M-10.7,82.8c0,0,0-0.3,0.1-0.8c0.1-0.5,0.3-1.1,0.8-1.6c0.2-0.2,0.5-0.4,0.7-0.5
					c0.1-0.1,0.2-0.1,0.3-0.2c0.1-0.1,0.2-0.1,0.3-0.2c0.2-0.1,0.4-0.2,0.5-0.3c0.1-0.1,0.2-0.2,0.2-0.2c0,0,0,0,0-0.1c0,0,0,0,0,0
					c0,0-0.1,0-0.3-0.1c-0.2,0-0.4-0.1-0.7,0c-0.3,0-0.6,0.1-1,0.3c-0.3,0.2-0.6,0.5-0.8,0.9c-0.4,0.7-0.5,1.4-0.5,2
					C-10.9,82.4-10.8,82.8-10.7,82.8C-10.8,82.8-10.8,82.8-10.7,82.8C-10.7,82.8-10.7,82.8-10.7,82.8z"/>
			</g>
			<g>
				<path fill="#CC6632" d="M-13.4,80c0,0,0.2-0.2,0.5-0.4c0.3-0.2,0.8-0.4,1.3-0.5c0.2-0.1,0.5-0.1,0.7-0.1
					c0.2-0.1,0.4-0.2,0.6-0.3c0.3-0.2,0.6-0.4,0.6-0.4c0,0,0-0.1,0-0.1c0,0,0,0,0,0c0,0-0.3-0.2-0.7-0.2c-0.2,0-0.5,0-0.7,0.1
					c-0.3,0.1-0.5,0.2-0.7,0.4c-0.5,0.3-0.9,0.6-1.2,1C-13.4,79.7-13.5,80-13.4,80C-13.5,80-13.5,80-13.4,80
					C-13.4,80-13.4,80-13.4,80z"/>
			</g>
			<g>
				<path fill="#CC6632" d="M-19.6,71.4c0,0,0.1,0.2,0.2,0.5c0.1,0.3,0.2,0.7,0.3,1.3c0.1,0.3,0.1,0.6,0.2,0.9
					c0,0.1,0.1,0.3,0.1,0.5c0,0.2,0.1,0.3,0.1,0.5c0.3,0.7,0.7,1.4,1.3,1.9c0.6,0.5,1.3,0.9,2,1.1c0.7,0.2,1.4,0.2,2,0.2
					c0.6,0,1-0.2,1.3-0.3c0.3-0.1,0.5-0.2,0.5-0.2c0,0,0,0,0-0.1c0,0,0,0,0,0c0,0-0.2,0-0.5,0c-0.3,0-0.8,0-1.3-0.1
					c-0.3,0-0.5-0.1-0.8-0.1c-0.3-0.1-0.6-0.1-0.9-0.2c-0.6-0.2-1.3-0.4-1.8-0.8c-0.5-0.4-1-0.9-1.3-1.5c-0.1-0.1-0.1-0.3-0.2-0.5
					c-0.1-0.2-0.1-0.3-0.1-0.4c-0.1-0.3-0.2-0.6-0.3-0.8c-0.2-0.5-0.3-1-0.5-1.2C-19.4,71.5-19.5,71.3-19.6,71.4
					C-19.5,71.3-19.5,71.3-19.6,71.4C-19.6,71.3-19.6,71.4-19.6,71.4z"/>
			</g>
			<g>
				<path fill="#CC6632" d="M-17.7,71.2c0,0,0.2,0.2,0.4,0.6c0.2,0.4,0.5,0.9,0.8,1.4c0.1,0.3,0.2,0.5,0.4,0.8
					c0.1,0.2,0.3,0.4,0.5,0.6C-15.3,74.8-15,75-15,75c0,0,0.1,0,0.1,0c0,0,0,0,0,0c0,0,0-0.4-0.1-0.8c-0.1-0.2-0.2-0.5-0.3-0.7
					c-0.2-0.2-0.4-0.4-0.6-0.7c-0.4-0.5-0.8-0.9-1.1-1.2C-17.4,71.2-17.6,71.1-17.7,71.2C-17.7,71.1-17.7,71.1-17.7,71.2
					C-17.7,71.1-17.7,71.2-17.7,71.2z"/>
			</g>
			<g>
				<path fill="#CC6632" d="M-6,84.8c0,0-0.3-0.3-0.6-0.9c-0.3-0.6-0.6-1.3-0.7-2.1c0-0.2,0-0.4,0.1-0.6c0-0.2,0.1-0.3,0.2-0.5
					c0-0.2,0.1-0.3,0.2-0.4c0.1-0.1,0.1-0.3,0.2-0.4c0.1-0.1,0.1-0.3,0.2-0.4c0.1-0.1,0.1-0.2,0.2-0.3c0.1-0.2,0.2-0.3,0.2-0.3l0,0
					c0,0,0-0.1,0-0.1c0,0,0,0,0,0c0,0-0.1,0-0.3,0.1c-0.1,0-0.2,0.1-0.3,0.1c-0.1,0.1-0.3,0.2-0.4,0.3c-0.1,0.1-0.3,0.2-0.4,0.4
					C-7.8,80-7.9,80.2-8,80.4c-0.1,0.2-0.1,0.5-0.1,0.7c0,0.2,0,0.5,0.1,0.7c0.1,0.2,0.1,0.5,0.2,0.7c0.1,0.2,0.2,0.4,0.3,0.6
					c0.2,0.4,0.4,0.7,0.6,0.9C-6.4,84.5-6.1,84.8-6,84.8C-6.1,84.8-6,84.8-6,84.8C-6,84.8-6,84.8-6,84.8z"/>
			</g>
			<g>
				<path fill="#CC6632" d="M-4.4,81c0,0-0.2,0.5-0.3,1.2c0,0.2,0,0.4,0,0.6c0,0.2,0,0.5,0.1,0.7c0.1,0.2,0.2,0.5,0.3,0.7
					c0.1,0.2,0.3,0.5,0.4,0.7c0.2,0.2,0.4,0.4,0.6,0.6c0.2,0.2,0.4,0.3,0.6,0.5c0.2,0.1,0.4,0.2,0.7,0.3c0.2,0.1,0.4,0.1,0.6,0.1
					c0.4,0.1,0.7,0,0.9,0c0.2,0,0.4,0,0.4,0c0,0,0,0,0-0.1c0,0,0,0,0,0c0,0-0.1-0.1-0.3-0.2c-0.2-0.1-0.5-0.2-0.8-0.4
					c-0.2-0.1-0.3-0.2-0.5-0.3c-0.2-0.1-0.4-0.2-0.5-0.3c-0.2-0.1-0.4-0.2-0.6-0.3c-0.2-0.1-0.4-0.3-0.5-0.4
					c-0.2-0.2-0.3-0.3-0.4-0.5c-0.1-0.2-0.2-0.4-0.3-0.6c-0.1-0.2-0.1-0.4-0.2-0.6c0-0.2-0.1-0.4-0.1-0.6C-4.4,81.5-4.3,81-4.4,81
					C-4.3,81-4.3,81-4.4,81C-4.3,81-4.4,81-4.4,81z"/>
			</g>
		</g>
	</g>
</symbol>
<symbol id="New_Symbol_6" viewBox="-7 -4.8 13.7 9.6">
	<g>
		<g>
			<g>
				<g>
					<defs>
						<path id="SVGID_9_" d="M5.9,4.5c0,0,0.4-4.1,0.1-6.2c0,0-0.9-0.4-2.9-0.3L2.9-1.5c0,0-3.4-3.9-8.3-2.9c-2.2,1.2,1.6,2.7,2.1,3
							c0,0,2.4,1.2,2.5,1.6c0,0,1.1,2.4,3.1,4.1C2.3,4.4,5.9,4.6,5.9,4.5z"/>
					</defs>
					<use xlink:href="#SVGID_9_" overflow="visible" fill="#8A5E51"/>
					
					<path clip-path="url(#SVGID_10_)" fill="#8A5E51" stroke="#5B382F" stroke-width="0.498" stroke-miterlimit="10" d="M-6.8-2.7
						c3.2-2.7,9.7,1.7,9.7,1.7s2-0.2,3.8,0.5"/>
					<use xlink:href="#SVGID_9_" overflow="visible" fill="none" stroke="#5B382F" stroke-width="0.498" stroke-miterlimit="10"/>
				</g>
			</g>
		</g>
	</g>
</symbol>
<symbol id="New_Symbol_8" viewBox="-3 -1.7 6 3.5">
	<g>
		<path fill="#8A7349" stroke="#5E4E35" stroke-width="0.5" stroke-miterlimit="10" d="M-2.7-0.8c0,0,1.6-1.1,5.4-0.4v2
			C2.7,0.9,2.6,1,2.5,1c-0.8,0-3-0.1-4.9,0.5c-0.2,0-0.3-0.1-0.3-0.2L-2.7-0.8z"/>
	</g>
</symbol>
<symbol id="New_Symbol_9" viewBox="-14.3 -47.4 28.6 94.7">
	<g>
		<path fill="#8A7349" stroke="#5E4E35" stroke-width="0.5" stroke-miterlimit="10" d="M7.3,2.4C6.6,4.6,5.9,5.9,5.9,5.9H0.1h-0.3
			h-5.7c0,0-0.8-1.3-1.5-3.6c-0.7-2.2-1-4.6-0.9-7c0-2,0.2-5.2,0.6-7.7c0.7-4.2,2.1-18.3,2.4-25.3h5.1h0.3h5.1
			c0.3,7,1.8,21.2,2.4,25.3c0.4,2.6,0.5,5.7,0.6,7.7C8.3-2.2,8,0.1,7.3,2.4z M0.4-20.2c-0.1-2.6-0.4-8-0.4-8s-0.3,5.4-0.4,8
			C-0.7-13.1-0.9-8.6,0-5.2C0.9-8.6,0.7-13.1,0.4-20.2z"/>
		<line fill="#8A7349" stroke="#5E4E35" stroke-width="0.5" stroke-miterlimit="10" x1="0" y1="-28.2" x2="0" y2="-37.6"/>
	</g>
	
		<use xlink:href="#New_Symbol_6" width="13.7" height="9.6" id="XMLID_154_" x="-7" y="-4.8" transform="matrix(1 0 0 1 -6.4167 -42.5636)" overflow="visible"/>
	
		<use xlink:href="#New_Symbol_6" width="13.7" height="9.6" x="-7" y="-4.8" transform="matrix(-1 4.489700e-11 4.489700e-11 1 6.4166 -42.5636)" overflow="visible"/>
	<g>
		
			<use xlink:href="#New_Symbol_8" width="6" height="3.5" x="-3" y="-1.7" transform="matrix(1 0 0 1 -2.8334 -36.9647)" overflow="visible"/>
		
			<use xlink:href="#New_Symbol_8" width="6" height="3.5" id="XMLID_150_" x="-3" y="-1.7" transform="matrix(-1 4.489700e-11 4.489700e-11 1 2.8333 -36.9647)" overflow="visible"/>
	</g>
	<g>
		<path fill="#8A7349" stroke="#5E4E35" stroke-width="0.5" stroke-miterlimit="10" d="M8.1-2.6c0,0-1.8,0.5-2.5,7.8"/>
		<path fill="#8A7349" stroke="#5E4E35" stroke-width="0.5" stroke-miterlimit="10" d="M-8.1-2.6c0,0,1.8,0.5,2.5,7.8"/>
	</g>
	<g>
		<g>
			<g>
				<path fill="#F0CB7E" stroke="#B98F49" stroke-width="0.5" stroke-miterlimit="10" d="M-6.2,23.4c0,0-1.8-3.8-2.1-9.1
					S-11,3.1-11,3.1s2.2-5.4,1-7.1c-0.6-0.9-1.5,2.2-1.5,2.2s-0.2-2.3,0.4-4.2c0.6-1.8,0.2-2.8-0.2-3C-11.7-9-14.1-6.5-14-0.1
					c0,1.4,0.4,3.3,0.6,4.6c0.3,1.3,0.6,3.2,0.8,4.2c0.2,1.7,0.8,4.2,1.1,4.7c0,0,0.8,6.9,2,10.6c0.3,0.8,1.3,1.1,1.9,0.5L-6.2,23.4
					z"/>
			</g>
		</g>
		<g id="XMLID_149_">
			<g>
				<path fill="#F0CB7E" stroke="#B98F49" stroke-width="0.5" stroke-miterlimit="10" d="M6.2,23.4c0,0,1.8-3.8,2.1-9.1
					S11,3.1,11,3.1S8.8-2.3,10-4c0.6-0.9,1.5,2.2,1.5,2.2s0.2-2.3-0.4-4.2c-0.6-1.8-0.2-2.8,0.2-3C11.7-9,14.1-6.5,14-0.1
					c0,1.4-0.4,3.3-0.6,4.6c-0.3,1.3-0.6,3.2-0.8,4.2c-0.2,1.7-0.8,4.2-1.1,4.7c0,0-0.8,6.9-2,10.6c-0.3,0.8-1.3,1.1-1.9,0.5
					L6.2,23.4z"/>
			</g>
		</g>
	</g>
	<g>
		
			<use xlink:href="#New_Symbol_5" width="9.3" height="9.3" id="XMLID_148_" x="-4.6" y="-4.6" transform="matrix(1 0 0 1 6.804 30.944)" overflow="visible"/>
		
			<use xlink:href="#New_Symbol_5" width="9.3" height="9.3" x="-4.6" y="-4.6" transform="matrix(-1 4.489700e-11 4.489700e-11 1 -6.804 30.944)" overflow="visible"/>
	</g>
	<path fill="#27AAE1" stroke="#1C75BC" stroke-width="0.498" stroke-miterlimit="10" d="M9.9,23.6c0,0-2.2,5-7.5,6.5L0,32l-2.4-1.9
		c-5.3-1.6-7.5-6.5-7.5-6.5c0.7-1.3,2.9-2,2.9-2c-0.8-5,1-5.8,1-5.8s0.2-4.5-0.3-6.5C-6.8,7.2-7,5.8-7,4.9c0-0.9,7-1,7-1s7,0.1,7,1
		c0,0.9-0.2,2.3-0.7,4.4C5.8,11.4,6,15.8,6,15.8s1.8,0.7,1,5.8C7,21.6,9.3,22.3,9.9,23.6z"/>
	<path fill="#F0CB7E" stroke="#B98F49" stroke-width="0.5" stroke-miterlimit="10" d="M0,33.9l-3.9-1.2l0.4-3.5c0,0,0.5-3.7,0.5-3.9
		s3-3.1,3-3.1s3,2.8,3,3.1s0.5,3.9,0.5,3.9l0.4,3.5L0,33.9z"/>
	<path fill="#60CAEF" stroke="#1C75BC" stroke-width="0.498" stroke-miterlimit="10" d="M3.7,30c0,0-0.4-4.6-3.7-7.5
		C-3.3,25.4-3.7,30-3.7,30c-0.9-0.3-0.8-1-0.8-1s0.6-5.2,4.4-8.1c0,0,0-0.1,0.1,0c0,0,0.1,0,0.1,0C3.9,23.9,4.5,29,4.5,29
		S4.6,29.7,3.7,30z"/>
	<g>
		<g>
			<g>
				<path fill="#F0CB7E" stroke="#B98F49" stroke-width="0.5" stroke-miterlimit="10" d="M-9.6,38.3c0,0-0.6,1.7-1.9,1.6
					c-0.6,0-1-0.5-1.1-1c-0.2-1.1,0-3.1,4.1-4.3L-9.6,38.3z"/>
			</g>
		</g>
		<g id="XMLID_141_">
			<g>
				<path fill="#F0CB7E" stroke="#B98F49" stroke-width="0.5" stroke-miterlimit="10" d="M9.6,38.3c0,0,0.6,1.7,1.9,1.6
					c0.6,0,1-0.5,1.1-1c0.2-1.1,0-3.1-4.1-4.3L9.6,38.3z"/>
			</g>
		</g>
	</g>
	<path fill="#F0CB7E" stroke="#B98F49" stroke-width="0.5" stroke-miterlimit="10" d="M10.5,37.7c0-4.1-4.7-7.3-10.5-7.3
		s-10.5,3.3-10.5,7.3S-5.8,45,0,45S10.5,41.7,10.5,37.7z"/>
	<g id="New_Symbol_3_7_">
		<path fill="#231F20" d="M-2.2,38.1c0-0.8-0.3-1.4-0.6-1.4s-0.6,0.6-0.6,1.4c0,0.8,0.3,1.4,0.6,1.4S-2.2,38.9-2.2,38.1z"/>
		
			<path fill="none" stroke="#B98F49" stroke-width="0.5" stroke-linecap="round" stroke-linejoin="round" stroke-miterlimit="10" d="
			M-3.9,40.5c0,0,0.3,1,1.5,1.2"/>
	</g>
	<g id="New_Symbol_3_6_">
		<path fill="#231F20" d="M2.2,38.1c0-0.8,0.3-1.4,0.6-1.4s0.6,0.6,0.6,1.4c0,0.8-0.3,1.4-0.6,1.4S2.2,38.9,2.2,38.1z"/>
		
			<path fill="none" stroke="#B98F49" stroke-width="0.5" stroke-linecap="round" stroke-linejoin="round" stroke-miterlimit="10" d="
			M3.9,40.5c0,0-0.3,1-1.5,1.2"/>
	</g>
	<path fill="none" stroke="#B98F49" stroke-width="0.5" stroke-linecap="round" stroke-linejoin="round" stroke-miterlimit="10" d="
		M-1,37c0,0-0.6-0.3-0.6-1c0-0.7,0.5-1.2,1.6-1.2c1.2,0,1.6,0.5,1.6,1.2c0,0.7-0.6,1-0.6,1"/>
	<path fill="none" stroke="#B98F49" stroke-width="0.5" stroke-linecap="round" stroke-linejoin="round" stroke-miterlimit="10" d="
		M-4.2,34.7c0,0,0.4-1.4,4.2-1.4s4.2,1.4,4.2,1.4"/>
	<g>
		<path fill="#13123D" stroke="#234F6B" stroke-width="0.5" stroke-miterlimit="10" d="M-6.4,43.1c0,0-3.5-3.6-0.6-7.5
			c0,0-0.3,6.3,4.3,7.5c0,0,6.8-0.4,7.6,1.3c0,0,3.8-2.2,5.5-6c0,0,1,3.6-1.8,6.5c-0.8,0.9-2.1,1.2-3.2,0.8l0,0c0,0-1.2,1.6-3.2,1.4
			c-2-0.2-5-1.2-6.5-1.5c-1.5-0.2-7.4-1.8-6.2-6.8C-10.5,38.9-9.2,42.4-6.4,43.1z"/>
		<g>
			<path fill="#234F6B" d="M6.7,44.8c0,0,0.4-0.2,1-0.7c0.6-0.5,1.2-1.2,1.7-2c0.3-0.4,0.5-0.8,0.7-1.3c0.2-0.4,0.3-0.8,0.3-1.2
				c0.1-0.4,0.1-0.7,0.1-0.9c0-0.2,0-0.3,0-0.3l0,0c0,0,0,0.1-0.1,0.3c-0.1,0.2-0.1,0.5-0.2,0.8C10.1,39.8,10,40,10,40.1
				c-0.1,0.2-0.1,0.4-0.2,0.6c-0.2,0.4-0.3,0.8-0.6,1.2c-0.4,0.8-1,1.5-1.6,2C7.1,44.5,6.7,44.8,6.7,44.8L6.7,44.8z"/>
		</g>
		<g>
			<path fill="#234F6B" d="M-6.7,41.3c0,0,0,0.2,0.2,0.5c0.1,0.3,0.4,0.7,0.8,1.1c0.2,0.2,0.4,0.4,0.7,0.6c0.3,0.2,0.6,0.3,0.9,0.4
				C-3.7,44-3.3,44-3,44.1c0.4,0,0.7,0.1,1.1,0.1c1.5,0.2,2.9,0.5,4,0.8c1.1,0.3,1.7,0.7,1.7,0.7l0,0c0,0-0.1-0.1-0.4-0.3
				c-0.3-0.2-0.7-0.4-1.2-0.6c-0.5-0.2-1.2-0.4-1.9-0.5C-0.3,44-1.1,44-1.8,43.9c-0.4,0-0.7-0.1-1.1-0.1c-0.4,0-0.7-0.1-1-0.2
				c-0.3-0.1-0.6-0.2-0.9-0.4c-0.3-0.2-0.5-0.3-0.7-0.5C-6,42.4-6.3,42-6.4,41.7C-6.6,41.4-6.6,41.2-6.7,41.3L-6.7,41.3z"/>
		</g>
		<g>
			<path fill="#234F6B" d="M3.9,44.8c0,0,0-0.1-0.1-0.2c-0.1-0.1-0.2-0.2-0.4-0.3c-0.4-0.2-0.9-0.5-1.5-0.7
				c-0.3-0.1-0.6-0.2-0.8-0.3c-0.3-0.1-0.5-0.1-0.7-0.1c-0.4,0-0.7,0-0.7,0l0,0c0,0,0.3,0.1,0.7,0.3c0.4,0.2,1,0.3,1.5,0.4
				c0.6,0.1,1.1,0.3,1.5,0.5c0.2,0.1,0.3,0.2,0.4,0.3C3.8,44.7,3.8,44.8,3.9,44.8L3.9,44.8z"/>
		</g>
		<g>
			<path fill="#234F6B" d="M-3.8,45c0,0,0.4,0.1,1.1,0.3c0.6,0.2,1.5,0.5,2.4,0.8c0.4,0.2,0.9,0.3,1.3,0.4c0.4,0.1,0.8,0.2,1.2,0.2
				c0.4,0,0.6-0.1,0.8-0.1c0.2-0.1,0.3-0.1,0.3-0.1l0,0c0,0-0.1,0-0.3,0c-0.2,0-0.5,0-0.8,0c-0.6-0.1-1.5-0.3-2.4-0.6
				c-0.9-0.3-1.7-0.5-2.4-0.6C-3.3,45-3.8,45-3.8,45L-3.8,45z"/>
		</g>
		<g>
			<path fill="#234F6B" d="M-10.5,38.9c0,0,0,0.4,0.1,0.9c0.1,0.5,0.3,1.2,0.6,1.9c0.2,0.3,0.4,0.6,0.6,0.9c0.2,0.3,0.5,0.5,0.7,0.6
				c0.5,0.3,0.9,0.3,0.8,0.4l0,0c0,0-0.1-0.1-0.2-0.2c-0.1-0.1-0.3-0.2-0.5-0.4c-0.2-0.2-0.4-0.4-0.6-0.6c-0.2-0.2-0.4-0.5-0.6-0.8
				c-0.4-0.6-0.6-1.3-0.7-1.8C-10.5,39.2-10.5,38.9-10.5,38.9L-10.5,38.9z"/>
		</g>
	</g>
	<path fill="#27AAE1" stroke="#1C75BC" stroke-width="0.498" stroke-miterlimit="10" d="M-6.9,5.9c3.4-0.7,6.8-0.7,6.8-0.7
		c0,0,3.4,0,7,0.7"/>
	<g>
		<g>
			<path fill="#27AAE1" stroke="#1C75BC" stroke-width="0.498" stroke-miterlimit="10" d="M-6.6,23.5c0,0-0.3-0.8-0.5-1.9"/>
			<path fill="#27AAE1" stroke="#1C75BC" stroke-width="0.498" stroke-miterlimit="10" d="M6.4,23.5c0,0,0.3-0.8,0.5-1.9"/>
		</g>
		<path fill="#27AAE1" stroke="#1C75BC" stroke-width="0.498" stroke-miterlimit="10" d="M-9.5,24.6c0,0,1.1-1.5,2.7-1.8"/>
		<path fill="#27AAE1" stroke="#1C75BC" stroke-width="0.498" stroke-miterlimit="10" d="M9.5,24.6c0,0-1.1-1.5-2.7-1.8"/>
	</g>
</symbol>
<g>
	
		<use xlink:href="#New_Symbol_9" width="28.6" height="94.7" id="XMLID_63_" x="-14.3" y="-47.4" transform="matrix(4.2528 0 0 -4.2528 113.3343 249.3426)" overflow="visible"/>
	
		<use xlink:href="#New_Symbol_53" width="48.9" height="177.1" id="XMLID_137_" x="-24.4" y="-88.5" transform="matrix(2.2788 0 0 -2.2788 391.6071 248.124)" overflow="visible"/>
	
		<use xlink:href="#New_Symbol_52" width="52.7" height="176.6" id="XMLID_129_" x="-26.3" y="-87.8" transform="matrix(2.2788 0 0 -2.2788 252.918 253.6646)" overflow="visible"/>
</g>
</svg>
