<?xml version="1.0" encoding="utf-8"?>
<!-- Generator: Adobe Illustrator 18.1.1, SVG Export Plug-In . SVG Version: 6.00 Build 0)  -->
<svg version="1.1" id="Layer_1" xmlns="http://www.w3.org/2000/svg" xmlns:xlink="http://www.w3.org/1999/xlink" x="0px" y="0px"
	 viewBox="0 0 500 500" enable-background="new 0 0 500 500" xml:space="preserve">
<symbol  id="New_Symbol_14" viewBox="-51.2 -109.8 102.4 219.7">
	
		<path fill="#FCCB98" stroke="#C08857" stroke-width="1.5" stroke-linecap="round" stroke-linejoin="round" stroke-miterlimit="10" d="
		M-49-60.7c-1.2-1.4-1.7-3.3-1.4-5.2c0.4-2.4,1-5.6,1.6-6.5c1-1.5,4-1.5,4-1.5v-3.7c0-0.6,0.2-1.3,0.6-1.8c0.8-1,1.9-1.9,3-2.6
		c1.4-0.9,2.9-1.4,4.5-1.6l2.2-0.5c0-3.5,3.2-6.3,3.2-6.3c1.3-1,2.9-2.1,4.2-3c1.5-1,3.1-1.6,4.9-1.7l2.4-0.2l0.3-0.7
		c0.5-1.2,1.4-2.1,2.7-2.4c2-0.6,5.1-1.4,7.6-1.4c4,0,8.2,3.2,8.2,3.2c0-3.3,1.3-5.9,2-7.6c1-2.4,3.3-4.1,5.9-4.3l3.2-0.3
		c2.9-0.3,5.9,0.2,8.6,1.5c4.7,2.2,11.8,6.2,13.2,10.1c2,6,2.5,15,2.5,15c6.5,10,11.5,26.5,11,34s-4.5,12.5-4.5,12.5l1,7.5
		c0,0,2,0,3.5,1.5s8.5,4.5,3.5,31.5c0,0-2,21-5.5,40c0,0,4,9,3.5,20s-17,44.5-17,44.5h-55.5c0,0,11-38,12-46s0.5-10.5,0.5-10.5
		s-5-24-4-30s2.5-11,2.5-11s-9.5-12-12.5-25.5l-8.5-16c0,0-6.5-6-7.5-10s-1-14-1-14s-4-3-4-6L-49-60.7z"/>
	<g>
		<path fill="#C08857" d="M-1.2-96.8c-0.1,0.9-0.1,1.8-0.1,2.7c0.1,0.9,0.2,1.8,0.5,2.8c0.2,0.5,0.4,0.9,0.6,1.3l0.6,1.2
			c0.4,0.8,0.9,1.6,1.3,2.4c0.9,1.6,2,3.1,3.1,4.6c1.1,1.5,2.4,2.8,3.7,4.1l-0.2-0.2c0.2,0.3,0.4,0.7,0.6,1.1
			c0.2,0.4,0.3,0.8,0.5,1.2c0.3,0.8,0.5,1.7,0.7,2.6c0.2,0.9,0.3,1.8,0.4,2.7c0,0.4,0.1,0.9,0.1,1.4l0,0.3l0,0.2l0,0.2l0.1,0.7
			c0.1,0.5,0.2,1.1,0.4,1.5c0.1,0.5,0.3,0.9,0.5,1.4c0.2,0.4,0.4,0.9,0.7,1.3c0.2,0.4,0.5,0.8,0.8,1.2c0.6,0.8,1.1,1.5,1.8,2.3
			c0.6,0.7,1.3,1.4,2,2l0.1-0.1c-1.2-1.4-2.3-2.9-3.3-4.6c-0.2-0.4-0.5-0.8-0.7-1.2c-0.2-0.4-0.4-0.8-0.6-1.3
			c-0.2-0.4-0.3-0.9-0.4-1.3c-0.1-0.4-0.2-0.9-0.3-1.4c0-0.5-0.1-0.9-0.1-1.4c0-0.5,0-0.9-0.1-1.4c-0.1-0.9-0.2-1.9-0.4-2.8
			c-0.2-0.9-0.4-1.8-0.7-2.7c-0.3-0.9-0.7-1.8-1.2-2.6l0,0l0,0c-2.6-2.4-4.9-5.3-6.8-8.3c-0.5-0.8-1-1.5-1.4-2.3
			c-0.4-0.8-0.9-1.6-1.3-2.4c-0.3-0.8-0.5-1.7-0.6-2.6C-1-95-1.1-95.9-1.1-96.8L-1.2-96.8z"/>
	</g>
	<g>
		<path fill="#C08857" d="M8.6-61.7c0,0,0.3-1,0.6-2.6c0.3-1.5,0.7-3.6,0.9-5.7c0.1-1.1,0.2-2.1,0.2-3.1c0-0.5,0-1-0.1-1.4
			c-0.1-0.5-0.1-0.9-0.2-1.3c-0.1-0.4-0.2-0.8-0.3-1.1c-0.1-0.3-0.2-0.6-0.3-0.8c-0.2-0.4-0.3-0.7-0.3-0.7l-0.1,0c0,0,0,0.3,0,0.7
			c0,0.2,0,0.5,0,0.8c0,0.3,0,0.7,0,1.1c0,0.8,0,1.7,0,2.6c0,1,0,2,0,3.1C9.2-68,9-65.9,8.8-64.4C8.7-62.8,8.5-61.8,8.6-61.7
			L8.6-61.7z"/>
	</g>
	<g>
		<path fill="#C08857" d="M-2.1-58.8c0-1.1-0.2-2.2-0.4-3.3c-0.2-1.1-0.5-2.2-0.9-3.2c-0.4-1.1-0.8-2.1-1.4-3.1l-0.5-0.7
			c-0.2-0.2-0.4-0.4-0.6-0.7c-0.2-0.2-0.4-0.4-0.7-0.6l-0.4-0.2c0,0-0.2-0.1-0.2-0.1l-0.2-0.1c-0.2-0.2-0.5-0.3-0.6-0.5
			c-0.2-0.2-0.3-0.4-0.5-0.6c-0.3-0.4-0.6-0.9-0.8-1.4c-0.2-0.5-0.4-1-0.6-1.5c-0.2-0.5-0.4-1-0.5-1.6c-0.6-2.1-1.1-4.3-1.4-6.5
			l0-0.2l-0.2-0.1c-1.2-0.8-2.4-1.7-3.5-2.5c-0.6-0.4-1.1-0.9-1.7-1.3c-0.6-0.5-1.1-0.9-1.6-1.4c-0.3-0.2-0.5-0.5-0.7-0.8
			c-0.1-0.1-0.2-0.3-0.3-0.4c-0.1-0.1-0.2-0.3-0.3-0.4c0-0.1-0.1-0.2-0.1-0.2l-0.1-0.3c-0.1-0.2-0.1-0.3-0.1-0.5
			c-0.1-0.3-0.1-0.7-0.1-1c0-0.7,0.1-1.4,0.2-2.1c0.2-0.7,0.4-1.4,0.7-2l-0.1-0.1c-0.4,0.6-0.8,1.3-1,2c-0.3,0.7-0.4,1.4-0.5,2.2
			c0,0.4,0,0.8,0,1.2c0,0.2,0.1,0.4,0.1,0.6l0.1,0.3l0.1,0.3c0.1,0.2,0.2,0.4,0.3,0.5c0.1,0.2,0.2,0.3,0.3,0.5
			c0.2,0.3,0.5,0.6,0.7,0.9c1,1.1,2.2,2,3.3,2.9c1.2,0.9,2.4,1.7,3.6,2.5l-0.2-0.3c0.4,2.2,1,4.4,1.7,6.5c0.2,0.5,0.4,1.1,0.6,1.6
			c0.2,0.5,0.4,1,0.7,1.5c0.3,0.5,0.5,1,0.9,1.5c0.2,0.2,0.4,0.5,0.6,0.7c0.2,0.2,0.4,0.4,0.7,0.5l0.2,0.1l0.2,0.1l0.3,0.2
			c0.2,0.1,0.4,0.3,0.6,0.5c0.2,0.2,0.4,0.4,0.5,0.6l0.5,0.7c0.6,0.9,1.1,1.9,1.5,2.9c0.4,1,0.7,2.1,1,3.2
			C-2.5-61-2.2-59.9-2.1-58.8L-2.1-58.8z"/>
	</g>
	<g>
		<path fill="#C08857" d="M-34.5-84.1c-0.2,0.6-0.2,1.3-0.1,1.9c0.1,0.6,0.4,1.3,0.9,1.7c0.2,0.2,0.5,0.4,0.7,0.6l0.7,0.6l1.5,1.1
			c2,1.5,4.1,2.9,6.1,4.4l-0.2-0.3c0.1,1.3,0.3,2.6,0.5,4c0.1,0.7,0.3,1.3,0.6,1.9c0.1,0.3,0.2,0.6,0.4,1c0.1,0.3,0.4,0.6,0.5,0.9
			c0.4,0.5,0.8,1.1,1.2,1.6c0.4,0.5,0.9,1,1.3,1.5c0.9,0.9,1.8,1.9,2.8,2.8l-0.1-0.3c-0.2,0.7-0.2,1.3-0.2,1.9
			c0,0.6,0.2,1.3,0.5,1.9l0.1,0c-0.2-0.6-0.2-1.2-0.1-1.8c0.1-0.6,0.2-1.2,0.4-1.7l0.1-0.2l-0.1-0.2c-0.9-1-1.7-1.9-2.6-2.9
			l-1.3-1.5c-0.4-0.5-0.8-1-1.2-1.5c-0.2-0.3-0.3-0.5-0.5-0.8c-0.1-0.3-0.3-0.6-0.4-0.8c-0.2-0.6-0.4-1.2-0.6-1.8
			c-0.3-1.2-0.5-2.5-0.7-3.8l0-0.2l-0.1-0.1l-6.2-4.2l-1.6-1.1l-0.8-0.5c-0.2-0.2-0.5-0.4-0.7-0.6C-34.5-81.5-34.7-82.9-34.5-84.1
			L-34.5-84.1z"/>
	</g>
	<g>
		<path fill="#C08857" d="M-44.9-73.9c-0.1,0.2-0.1,0.5,0,0.7c0,0.2,0.1,0.5,0.2,0.7c0.2,0.5,0.4,0.9,0.7,1.2c0.3,0.4,0.6,0.7,1,1.1
			c0.2,0.2,0.4,0.3,0.5,0.5c0.2,0.2,0.4,0.3,0.6,0.5c0.4,0.3,0.8,0.6,1.2,0.8c0.4,0.3,0.8,0.5,1.2,0.7c0.8,0.5,1.7,0.9,2.5,1.3
			l-0.2-0.4c-0.1,0.4-0.1,0.8-0.1,1.3c0,0.4,0,0.8,0.1,1.3c0.1,0.4,0.2,0.9,0.5,1.3c0.1,0.1,0.1,0.2,0.2,0.3l0.2,0.2l0.4,0.5
			c1,1.2,2.1,2.4,3.2,3.5l-0.1-0.2c0.1,0.9,0.3,1.8,0.6,2.7l0.1,0c-0.1-0.9-0.1-1.8-0.1-2.7l0-0.1l-0.1-0.1
			c-0.9-1.3-1.9-2.5-2.9-3.7l-0.4-0.4l-0.2-0.2c0,0-0.1-0.1-0.1-0.2c-0.2-0.3-0.3-0.6-0.4-0.9c-0.2-0.7-0.2-1.5-0.2-2.2l0-0.3
			l-0.3-0.1c-0.9-0.4-1.7-0.7-2.5-1.2c-0.4-0.2-0.8-0.4-1.2-0.7c-0.4-0.2-0.8-0.5-1.2-0.7c-0.2-0.1-0.4-0.3-0.6-0.4
			c-0.2-0.1-0.4-0.3-0.5-0.4c-0.4-0.3-0.7-0.6-1-1c-0.3-0.4-0.6-0.7-0.8-1.1c-0.1-0.2-0.2-0.4-0.2-0.6
			C-44.8-73.5-44.8-73.7-44.9-73.9L-44.9-73.9z"/>
	</g>
	<g>
		<path fill="#C08857" d="M-4.1-60.7c0,0,0.1-0.3,0.2-0.9c0.1-0.5,0.2-1.2,0.3-2c0-0.4,0.1-0.7,0.1-1.1c0-0.3-0.1-0.6-0.2-0.9
			c-0.2-0.5-0.4-0.9-0.4-0.9l-0.1,0c0,0-0.2,0.4-0.3,0.9c0,0.3-0.1,0.6-0.1,0.9c0,0.3,0.1,0.7,0.1,1c0.1,0.7,0.1,1.4,0.2,1.9
			C-4.2-61.1-4.2-60.8-4.1-60.7L-4.1-60.7z"/>
	</g>
	<g>
		<path fill="#C08857" d="M-41.5-52.1c0,0-0.1,1.5-0.1,3.6c0,1.1,0.1,2.4,0.2,3.7c0.1,1.4,0.4,2.8,0.6,4.3c0.2,0.7,0.3,1.4,0.5,2.1
			c0.2,0.7,0.4,1.4,0.6,2c0.3,0.6,0.5,1.3,0.8,1.8c0.3,0.6,0.5,1.1,0.8,1.6c0.3,0.5,0.6,0.9,0.8,1.3c0.3,0.4,0.5,0.7,0.7,0.9
			c0.4,0.5,0.7,0.8,0.7,0.8l0.1-0.1c0,0-0.2-0.3-0.4-0.9c-0.1-0.3-0.3-0.6-0.5-1c-0.2-0.4-0.4-0.9-0.6-1.3c-0.2-0.5-0.4-1-0.7-1.6
			c-0.2-0.6-0.5-1.2-0.7-1.8c-0.3-0.6-0.4-1.3-0.7-2c-0.2-0.7-0.4-1.4-0.6-2.1c-0.4-1.4-0.6-2.8-0.9-4.1c-0.2-1.3-0.4-2.6-0.5-3.7
			C-41.5-50.6-41.4-52.1-41.5-52.1L-41.5-52.1z"/>
	</g>
	<g>
		<path fill="#C08857" d="M-29.9-25.4c0,0,0.1,3,0.5,5.9c0.1,0.7,0.2,1.5,0.4,2.2c0.2,0.7,0.4,1.3,0.6,1.8c0.2,0.5,0.5,0.9,0.7,1.2
			c0.2,0.3,0.3,0.4,0.3,0.4l0.1,0c0,0,0-0.2-0.1-0.5c-0.1-0.3-0.1-0.8-0.2-1.3c-0.1-0.5-0.2-1.2-0.4-1.8c-0.2-0.7-0.4-1.4-0.6-2.1
			c-0.4-1.4-0.6-2.9-0.9-3.9C-29.6-24.7-29.8-25.4-29.9-25.4L-29.9-25.4z"/>
	</g>
	<g>
		<path fill="#C08857" d="M44.3-14.4c0,0-0.3-1.3-0.6-3.3c-0.3-2-0.7-4.7-1.1-7.4c-0.1-1.4-0.3-2.7-0.4-4c-0.2-1.3-0.4-2.4-0.6-3.4
			c-0.4-2-0.8-3.3-0.8-3.3l-0.1,0c0,0,0,0.3-0.1,0.9c-0.1,0.6-0.1,1.5-0.1,2.5c0,1,0.1,2.2,0.2,3.5c0.2,1.3,0.5,2.6,0.7,4
			c0.5,2.7,1.1,5.4,1.7,7.3c0.5,2,1,3.3,1,3.3L44.3-14.4z"/>
	</g>
	<g>
		<path fill="#C08857" d="M39.6,22.3c0,0,0.3-0.3,0.8-0.7c0.5-0.5,1.1-1.2,1.7-2.2c0.3-0.5,0.7-1,1-1.6c0.3-0.6,0.6-1.2,0.9-1.9
			c0.3-0.7,0.6-1.4,0.8-2.1c0.2-0.7,0.4-1.5,0.7-2.2c0.2-0.8,0.3-1.5,0.5-2.3C46,8.5,46.1,7.8,46.2,7c0-0.7,0-1.4,0-2.1
			c0-0.7-0.1-1.3-0.2-1.9c-0.1-1.2-0.4-2.1-0.5-2.8c-0.2-0.7-0.3-1-0.3-1l-0.1,0c0,0,0,0.4,0,1.1c0,0.3,0,0.7,0,1.2c0,0.5,0,1,0,1.6
			c0,0.6,0,1.2,0,1.8c0,0.6-0.1,1.3-0.1,2c0,0.7-0.1,1.4-0.2,2.2c-0.1,0.7-0.2,1.5-0.3,2.2c-0.2,0.7-0.3,1.5-0.5,2.2
			c-0.2,0.7-0.4,1.4-0.7,2.1c-0.2,0.7-0.5,1.3-0.8,1.9c-0.3,0.6-0.6,1.1-0.9,1.6c-0.6,1-1.2,1.7-1.6,2.3
			C39.8,21.9,39.5,22.2,39.6,22.3L39.6,22.3z"/>
	</g>
	<g>
		<path fill="#C08857" d="M-9.5,14.9c0,0,0.1,0.2,0.2,0.5c0.1,0.3,0.3,0.7,0.6,1.3c0.3,0.5,0.7,1.2,1.1,1.9c0.5,0.7,1.1,1.4,1.8,2.2
			c1.4,1.5,3.3,3,5.4,4.6c0.5,0.4,1,0.8,1.5,1.2c0.3,0.2,0.5,0.4,0.7,0.7l0.7,0.7c0.4,0.5,0.9,1,1.5,1.5c0.5,0.5,1,0.9,1.6,1.4
			c1.1,0.9,2.2,1.7,3.3,2.5c0.6,0.4,1.2,0.7,1.8,1c0.6,0.3,1.2,0.6,1.8,0.9c1.2,0.5,2.4,0.9,3.6,1.2c0.6,0.1,1.2,0.3,1.7,0.3
			c0.3,0,0.6,0.1,0.8,0.1c0.3,0,0.5,0,0.8,0c0.3,0,0.5,0,0.8,0c0.3,0,0.5,0,0.7,0c0.5,0,0.9,0,1.4-0.1c0.4-0.1,0.8-0.1,1.2-0.2
			c0.4-0.1,0.7-0.2,1-0.3c0.6-0.2,1-0.4,1.3-0.5c0.3-0.1,0.4-0.2,0.4-0.2l0-0.1c0,0-0.2,0-0.5,0.1c-0.3,0.1-0.7,0.3-1.3,0.4
			c-0.3,0.1-0.6,0.1-1,0.2C23,35.9,22.7,36,22.2,36c-0.4,0.1-0.8,0-1.3,0c-0.5,0-0.9,0-1.4-0.1c-0.3,0-0.5-0.1-0.8-0.1
			c-0.3,0-0.5-0.1-0.8-0.1c-0.5-0.1-1.1-0.2-1.6-0.4c-1.1-0.3-2.3-0.7-3.4-1.2c-0.6-0.2-1.2-0.5-1.7-0.8c-0.6-0.3-1.2-0.6-1.7-0.9
			c-1.1-0.7-2.3-1.4-3.3-2.3c-0.5-0.4-1.1-0.8-1.6-1.3c-0.5-0.4-1-0.9-1.5-1.4l-0.7-0.7c-0.3-0.3-0.5-0.5-0.8-0.7
			C1,25.5,0.5,25.1,0,24.8c-2.1-1.5-4-2.9-5.5-4.3c-0.7-0.7-1.3-1.4-1.9-2.1c-0.5-0.7-0.9-1.3-1.2-1.8c-0.3-0.5-0.5-0.9-0.6-1.2
			C-9.4,15-9.4,14.9-9.5,14.9L-9.5,14.9z"/>
	</g>
	<g>
		<path fill="#C08857" d="M-6.4,31.6c0,0-0.1-1.4-0.6-3.4c-0.1-0.5-0.2-1-0.4-1.6c-0.2-0.6-0.5-1.2-0.8-1.7
			c-0.6-1.1-1.2-2.3-1.8-3.5c-0.6-1.2-1.1-2.5-1.6-3.6c-0.5-1.1-1-2.2-1.5-3.1c-0.2-0.5-0.4-0.9-0.6-1.2c-0.2-0.4-0.3-0.7-0.5-1
			c-0.3-0.5-0.4-0.8-0.4-0.8l-0.1,0c0,0,0.1,0.3,0.2,0.9c0.1,0.6,0.4,1.4,0.7,2.4c0.3,1,0.8,2.1,1.3,3.3c0.6,1.2,1.2,2.4,1.9,3.6
			c0.7,1.2,1.4,2.4,2,3.5c0.4,0.5,0.6,1,0.8,1.6c0.2,0.5,0.4,1.1,0.5,1.5C-6.8,30.2-6.5,31.6-6.4,31.6L-6.4,31.6z"/>
	</g>
	<g>
		<path fill="#C08857" d="M-13.8,63.3c0,0,0.3-1.3,0.7-3.3c0.4-2,0.8-4.6,1.1-7.3c0.2-1.3,0.3-2.7,0.4-3.9c0.1-1.3,0.1-2.4,0.1-3.5
			c-0.1-2-0.3-3.4-0.3-3.4h-0.1c0,0-0.1,0.3-0.1,0.9c0,0.3-0.1,0.6-0.1,1.1c0,0.4-0.1,0.9-0.2,1.4c0,0.5-0.1,1-0.2,1.6
			c0,0.6-0.1,1.2-0.1,1.8c-0.1,1.2-0.1,2.6-0.2,3.9c-0.2,2.7-0.5,5.3-0.7,7.3C-13.7,61.9-13.9,63.2-13.8,63.3L-13.8,63.3z"/>
	</g>
	
		<path opacity="0.8" fill="#FFDFCA" stroke="#AA7E66" stroke-width="1.1" stroke-linecap="round" stroke-linejoin="round" stroke-miterlimit="10" d="
		M4.4-93.4c0.1,2.2,1.9,4.8,4.1,5.8c2.2,1.1,5.2,0.9,7.8,0.6c4-0.4,5.2-4.3,5.4-5.5c0-0.2,0-0.4-0.1-0.6c-0.9-1.2-4.3-5.5-7.8-6.2
		c-2.4-0.5-5.8-0.3-8.8,1.3C4.3-97.6,4.2-95.4,4.4-93.4z"/>
	
		<path opacity="0.8" fill="#FFDFCA" stroke="#AA7E66" stroke-width="1.1" stroke-linecap="round" stroke-linejoin="round" stroke-miterlimit="10" d="
		M-18-90.2c1.5-0.1,4.1-0.6,5.4-1.9c0,0,4.2,1.2,5.5,3.2s-4.3,4-6.3,2.8l-4.9-3.4C-18.5-89.8-18.3-90.2-18-90.2z"/>
	
		<path opacity="0.8" fill="#FFDFCA" stroke="#AA7E66" stroke-width="1.1" stroke-linecap="round" stroke-linejoin="round" stroke-miterlimit="10" d="
		M-32.8-82.5c1.4-0.1,3.8-0.5,5.1-1.6c0,0,4,1.1,5.1,2.7s-4,3.4-5.8,2.3l-4.5-2.9C-33.2-82.1-33.1-82.5-32.8-82.5z"/>
	
		<path opacity="0.8" fill="#FFDFCA" stroke="#AA7E66" stroke-width="1.1" stroke-linecap="round" stroke-linejoin="round" stroke-miterlimit="10" d="
		M-42.6-72.4c0,0,2.5,3,4.8,3c0,0,3.8-0.8,3.8-3.5c0,0-3.6-2-6.5-1.2C-41.6-73.9-42.6-72.4-42.6-72.4z"/>
	
		<path opacity="0.8" fill="#FFDFCA" stroke="#AA7E66" stroke-width="1.1" stroke-linecap="round" stroke-linejoin="round" stroke-miterlimit="10" d="
		M-47.6-65.2c0,0,0.5-2,1.8-2.2c0,0,4.5-0.2,5.8,1c0,0,0.5,4.5-4.8,5C-44.8-61.4-46.8-63.2-47.6-65.2z"/>
</symbol>
<g>
	
		<use xlink:href="#New_Symbol_14"  width="102.4" height="219.7" id="XMLID_36_" x="-51.2" y="-109.8" transform="matrix(1.5675 0 0 -1.5675 166.197 250.0005)" overflow="visible"/>
	
		<use xlink:href="#New_Symbol_14"  width="102.4" height="219.7" id="XMLID_35_" x="-51.2" y="-109.8" transform="matrix(-1.5675 0 0 -1.5675 333.5328 250.0005)" overflow="visible"/>
</g>
</svg>
