<?xml version="1.0" encoding="utf-8"?>
<!-- Generator: Adobe Illustrator 18.1.1, SVG Export Plug-In . SVG Version: 6.00 Build 0)  -->
<svg version="1.1" id="Layer_1" xmlns="http://www.w3.org/2000/svg" xmlns:xlink="http://www.w3.org/1999/xlink" x="0px" y="0px" viewBox="0 0 500 500" enable-background="new 0 0 500 500" xml:space="preserve"><clipPath id="SVGID_4_">
				<use xlink:href="#SVGID_3_" overflow="visible"/>
			</clipPath><clipPath id="SVGID_2_">
				<use xlink:href="#SVGID_1_" overflow="visible"/>
			</clipPath>
<symbol id="New_Symbol_26" viewBox="-12.5 -11 25 22">
	<g>
		<g>
			<defs>
				<path id="SVGID_1_" d="M2.1,10.6c0,0,0.5-4.2-2.5-6.2s-15.2-8.5-10-14.3c0,0,2.5-1.7,7.3,0.2C1.4-8.1,4.3-4.5,9.9-3.1
					c0.8,0.2,1.4,0.9,1.4,1.7c0,2.1,0,6.3-0.6,10.5L2.1,10.6z"/>
			</defs>
			<use xlink:href="#SVGID_1_" overflow="visible" fill="#354657"/>
			
			<path clip-path="url(#SVGID_2_)" fill="#354657" stroke="#667E91" stroke-width="0.75" stroke-miterlimit="10" d="M-11-1.9
				c0,0-4.2-6.5,4-5.8s9.5,6.8,19.5,7.7"/>
			<use xlink:href="#SVGID_1_" overflow="visible" fill="none" stroke="#667E91" stroke-width="0.75" stroke-miterlimit="10"/>
		</g>
		<path fill="#354657" stroke="#667E91" stroke-width="0.75" stroke-miterlimit="10" d="M-9.2-1.6c0,0,2.1,1.4,5.6-0.8
			c0.3-0.2,0.7-0.2,1,0.1l0,0C-2.1-2-2.1-1.4-2.5-1c-1.1,0.8-3.1,2-4.9,0.8L-9.2-1.6z"/>
		<path fill="#354657" stroke="#667E91" stroke-width="0.75" stroke-miterlimit="10" d="M-5.8,1.1c0,0,2.2,1.2,5.5-1.3
			c0.3-0.2,0.7-0.3,1,0l0,0C1.2,0,1.2,0.7,0.8,1C-0.2,2-2.1,3.3-4,2.3L-5.8,1.1z"/>
		<path fill="#354657" stroke="#667E91" stroke-width="0.75" stroke-miterlimit="10" d="M-2.2,3.6c0,0,2.4,0.8,5.2-2.2
			c0.3-0.3,0.7-0.4,1-0.2l0,0c0.5,0.2,0.6,0.9,0.3,1.3c-0.9,1.1-2.6,2.7-4.5,2L-2.2,3.6z"/>
	</g>
</symbol>
<symbol id="New_Symbol_27" viewBox="-7.4 -9.4 14.8 18.9">
	<g>
		<path fill="#D8BCC8" stroke="#AF8C9C" stroke-miterlimit="10" d="M-1.5,0c0,0-0.6-4.8,2.8-8.8c0,0,4.8,3.1,5.6,10.9
			c0,0-0.6,4.8-4,6.8C2.9,8.9-0.5,6.7-1.5,0z"/>
		<path fill="#D8BCC8" stroke="#AF8C9C" stroke-miterlimit="10" d="M-2.4,0.1c0,0,0,5-1.6,6.8c0,0-2.5-3-2.9-7.9c0,0-0.1-4.8,0.8-7
			C-6.1-8-3.7-5.9-2.4,0.1z"/>
	</g>
</symbol>
<symbol id="New_Symbol_28" viewBox="-1.5 -1.8 3.1 3.7">
	<g>
		<g>
			<path fill="#A19DB2" d="M-0.5,1.8c0,0,0-0.2,0-0.5c0-0.3-0.1-0.7-0.3-1.1c-0.1-0.4-0.3-0.8-0.5-1c-0.2-0.3-0.3-0.4-0.3-0.4
				s0,0.2,0,0.5c0,0.3,0.1,0.7,0.3,1.1c0.1,0.4,0.3,0.8,0.5,1C-0.6,1.7-0.5,1.8-0.5,1.8z"/>
		</g>
		<g>
			<path fill="#A19DB2" d="M1.4,1.4c0,0,0.1-0.2,0.1-0.5c0-0.3,0-0.7,0-1.1c0-0.4-0.1-0.8-0.2-1.1C1.2-1.6,1-1.8,1-1.8S1-1.6,1-1.3
				c0,0.3,0,0.7,0,1.1c0,0.4,0.1,0.8,0.2,1.1C1.3,1.2,1.4,1.4,1.4,1.4z"/>
		</g>
	</g>
</symbol>
<symbol id="New_Symbol_31" viewBox="-28.1 -88.9 56.2 177.9">
	<g>
		<g>
			<g>
				
					<use xlink:href="#New_Symbol_26" width="25" height="22" id="XMLID_54_" x="-12.5" y="-11" transform="matrix(1 0 0 1 -11.375 -77.8497)" overflow="visible"/>
				
					<use xlink:href="#New_Symbol_26" width="25" height="22" x="-12.5" y="-11" transform="matrix(-1 4.489700e-11 4.489700e-11 1 11.375 -77.8497)" overflow="visible"/>
			</g>
			<g>
				
					<path fill="#D1C99A" stroke="#89886B" stroke-width="1.014" stroke-linecap="round" stroke-linejoin="round" stroke-miterlimit="10" d="
					M13.4-0.8L0-1.5l-13.4,0.7c0,0-3.1-11.3-1-28c2.1-16.7,3.8-33,3.1-40.8c0,0,3.1-2,11.3,0c8.2-2,11.3,0,11.3,0
					c-0.7,7.8,1,24.2,3.1,40.8C16.5-12.1,13.4-0.8,13.4-0.8z M0-50.6c0,0-1.2,15.5-1.2,22.3C-1.2-17.5,0-11.1,0-11.1
					s1.2-6.3,1.2-17.2C1.2-35.1,0-50.6,0-50.6z"/>
				
					<line fill="#D1C99A" stroke="#89886B" stroke-width="1.014" stroke-linecap="round" stroke-linejoin="round" stroke-miterlimit="10" x1="0" y1="-69.6" x2="0" y2="-50.6"/>
				<g>
					
						<path fill="#D1C99A" stroke="#89886B" stroke-width="1.014" stroke-linecap="round" stroke-linejoin="round" stroke-miterlimit="10" d="
						M-15.1-13.1c0,0,3.5,1.5,3.5,12.3"/>
					
						<path fill="#D1C99A" stroke="#89886B" stroke-width="1.014" stroke-linecap="round" stroke-linejoin="round" stroke-miterlimit="10" d="
						M15.1-13.1c0,0-3.5,1.5-3.5,12.3"/>
				</g>
			</g>
		</g>
		<g>
			<g id="New_Symbol_25_3_">
				<g>
					<path fill="#C07F5F" stroke="#945535" stroke-linecap="round" stroke-linejoin="round" stroke-miterlimit="10" d="M18.2-13.1
						c-0.2,3,2.1,6.7,2.1,6.7c1,8.4-0.9,14-2.9,21.1c-0.9,3.3-0.4,8.1-0.4,8.1l5.6,0.4c1.3-7.4,1.7-11,1.7-12.6
						c0-1.1,0.1-2.1,0.3-3.2C26.4-4,26.3-8.6,26.3-8.6c0.5-6.6-3.1-12.8-6.4-14.2c-0.7-0.3-1.4,0.3-1.3,1c0.7,3.4,3.6,5.8,3.5,11.8
						c0,0-1.4-2.3-1.8-3.3C19.7-14.9,18.3-14.1,18.2-13.1z"/>
				</g>
			</g>
			<g>
				<g>
					<g>
						<path fill="#C07F5F" stroke="#945535" stroke-linecap="round" stroke-linejoin="round" stroke-miterlimit="10" d="M-18.2-13.1
							c0.2,3-2.1,6.7-2.1,6.7c-1,8.4,0.9,14,2.9,21.1c0.9,3.3,0.4,8.1,0.4,8.1l-5.6,0.4c-1.3-7.4-1.7-11-1.7-12.6
							c0-1.1-0.1-2.1-0.3-3.2C-26.4-4-26.3-8.6-26.3-8.6c-0.5-6.6,3.1-12.8,6.4-14.2c0.7-0.3,1.4,0.3,1.3,1
							c-0.7,3.4-3.6,5.8-3.5,11.8c0,0,1.4-2.3,1.8-3.3C-19.7-14.9-18.3-14.1-18.2-13.1z"/>
					</g>
				</g>
			</g>
		</g>
		<g>
			<path fill="#535EAE" stroke="#324187" stroke-miterlimit="10" d="M20.2-3.2c1-0.6,3.4-1.6,6.7,0.2c0.4,0.2,0.6,0.7,0.5,1.1
				L27-0.8l-0.3,3.1l-6.4-0.3l-0.1-2.6l-0.4-1.6C19.7-2.6,19.8-3,20.2-3.2z"/>
			<path fill="#535EAE" stroke="#324187" stroke-miterlimit="10" d="M-20.2-3.2c-1-0.6-3.4-1.6-6.7,0.2c-0.4,0.2-0.6,0.7-0.5,1.1
				l0.3,1.1l0.3,3.1l6.4-0.3l0.1-2.6l0.4-1.6C-19.7-2.6-19.8-3-20.2-3.2z"/>
		</g>
		<path fill="#535EAE" stroke="#324187" stroke-miterlimit="10" d="M22.7,28.4C20.4,48,9.3,52.6,2.6,53.6v0.1c0,0-1,0.1-2.6,0.1
			c-1.6,0-2.6-0.1-2.6-0.1v-0.1c-6.7-1-17.8-5.5-20.1-25.2C-24,16.8-27.5,7.8-27.6,3.6c0-0.8,0.5-1.4,1.3-1.6c1.6-0.4,4.1-0.2,5.5,0
			c0.6,0.1,0.8,0.6,1.2,1c2,2.3,3.3,13.3,4.5,20.5c1.7,9.8,4.6,14.6,4.6,14.6s-1.6-6.6-3.3-18.1c-1.6-10.3-1-18.8-1-18.8
			c-0.9-1.5-0.9-4-0.9-4C-13.9-4.5-4.6-5.2,0-5.1c5.1,0,13.9,0.5,15.8,2.2c0,0,0,2.5-0.9,4c0,0,0.6,8.4-1,18.8
			C12.1,31.4,10.5,38,10.5,38s2.9-4.8,4.6-14.6c1.2-7.2,2.5-18.2,4.5-20.5c0.4-0.4,0.6-1,1.2-1c1.4-0.2,3.9-0.4,5.5,0
			c0.7,0.2,1.3,0.9,1.3,1.6C27.5,7.8,24,16.8,22.7,28.4z"/>
		<g>
			
				<use xlink:href="#New_Symbol_27" width="14.8" height="18.9" x="-7.4" y="-9.4" transform="matrix(0.94 0 0 1 -6.7713 21.8481)" overflow="visible"/>
			
				<use xlink:href="#New_Symbol_27" width="14.8" height="18.9" id="XMLID_52_" x="-7.4" y="-9.4" transform="matrix(-0.94 0 0 1 6.7407 21.8481)" overflow="visible"/>
		</g>
		<g>
			<g>
				<g>
					<g>
						<line fill="#FFFFFF" x1="-23.5" y1="0.6" x2="-23.7" y2="-2.7"/>
						<path fill="#A19DB2" d="M-23.5,0.6c0,0,0.1-0.2,0.1-0.5c0-0.3,0.1-0.7,0.1-1.1c0-0.4-0.1-0.8-0.2-1.1
							c-0.1-0.3-0.2-0.5-0.2-0.5s-0.1,0.2-0.1,0.5c0,0.3-0.1,0.7-0.1,1.1c0,0.4,0.1,0.8,0.2,1.1C-23.6,0.4-23.5,0.6-23.5,0.6z"/>
					</g>
					<g>
						<line fill="#FFFFFF" x1="-25.1" y1="0.7" x2="-25.8" y2="-2.5"/>
						<path fill="#A19DB2" d="M-25.1,0.7c0,0,0-0.2,0-0.5c0-0.3,0-0.7-0.1-1.1c-0.1-0.4-0.2-0.8-0.3-1.1c-0.1-0.3-0.2-0.5-0.2-0.5
							s0,0.2,0,0.5c0,0.3,0,0.7,0.1,1.1c0.1,0.4,0.2,0.8,0.3,1.1C-25.3,0.5-25.1,0.7-25.1,0.7z"/>
					</g>
					<g>
						<line fill="#FFFFFF" x1="-21.8" y1="0.7" x2="-21.2" y2="-2.5"/>
						<path fill="#A19DB2" d="M-21.8,0.7c0,0,0.1-0.2,0.2-0.5c0.1-0.3,0.2-0.7,0.3-1.1c0.1-0.4,0.1-0.8,0.1-1.1c0-0.3,0-0.5,0-0.5
							s-0.1,0.2-0.2,0.5c-0.1,0.3-0.2,0.7-0.3,1.1c-0.1,0.4-0.1,0.8-0.1,1.1C-21.8,0.5-21.8,0.7-21.8,0.7z"/>
					</g>
				</g>
			</g>
			<g>
				<g>
					<g>
						<line fill="#FFFFFF" x1="23.5" y1="0.6" x2="23.7" y2="-2.7"/>
						<path fill="#A19DB2" d="M23.5,0.6c0,0,0.1-0.2,0.2-0.5c0.1-0.3,0.1-0.7,0.2-1.1c0-0.4,0-0.8-0.1-1.1c0-0.3-0.1-0.5-0.1-0.5
							s-0.1,0.2-0.2,0.5c-0.1,0.3-0.1,0.7-0.2,1.1c0,0.4,0,0.8,0.1,1.1C23.5,0.4,23.5,0.6,23.5,0.6z"/>
					</g>
					<g>
						<line fill="#FFFFFF" x1="25.1" y1="0.7" x2="25.8" y2="-2.5"/>
						<path fill="#A19DB2" d="M25.1,0.7c0,0,0.1-0.2,0.2-0.5c0.1-0.3,0.3-0.7,0.3-1.1c0.1-0.4,0.1-0.8,0.1-1.1c0-0.3,0-0.5,0-0.5
							S25.7-2.3,25.6-2c-0.1,0.3-0.3,0.7-0.3,1.1c-0.1,0.4-0.1,0.8-0.1,1.1C25.1,0.4,25.1,0.7,25.1,0.7z"/>
					</g>
					<g>
						<line fill="#FFFFFF" x1="21.8" y1="0.7" x2="21.2" y2="-2.5"/>
						<path fill="#A19DB2" d="M21.8,0.7c0,0,0-0.2,0-0.5c0-0.3,0-0.7-0.1-1.1c-0.1-0.4-0.2-0.8-0.3-1.1c-0.1-0.3-0.2-0.5-0.2-0.5
							s0,0.2,0,0.5c0,0.3,0,0.7,0.1,1.1c0.1,0.4,0.2,0.8,0.3,1.1C21.7,0.5,21.8,0.7,21.8,0.7z"/>
					</g>
				</g>
			</g>
		</g>
		<g>
			
				<use xlink:href="#New_Symbol_28" width="3.1" height="3.7" x="-1.5" y="-1.8" transform="matrix(1 0 0 1 -12.2501 -1.5885)" overflow="visible"/>
			
				<use xlink:href="#New_Symbol_28" width="3.1" height="3.7" id="XMLID_47_" x="-1.5" y="-1.8" transform="matrix(-1 4.489700e-11 4.489700e-11 1 12.2499 -1.5885)" overflow="visible"/>
		</g>
		<path fill="#535EAE" stroke="#324187" stroke-miterlimit="10" d="M-13.2,0.7c0,0,3.8-1.6,14.1-1.6s12.4,1.5,12.4,1.5"/>
	</g>
	<g>
		<polygon fill="#C07F5F" stroke="#945535" stroke-linecap="round" stroke-linejoin="round" stroke-miterlimit="10" points="0,60.3 
			0,60.3 0,60.3 0,60.3 0,60.3 -7.4,59.4 -6.7,53.9 -4.2,51 -1,49 0,48.7 0,48.7 0,48.7 0,48.7 0,48.7 1,49 4.2,51 6.7,53.9 
			7.4,59.4 		"/>
		<path fill="#FFFFFF" stroke="#C2C0CB" stroke-miterlimit="10" d="M7.5,55.7c0,0-2-1.5-3-3c-0.9-1.4-2.6-3-4.5-3.5
			c-1.9,0.5-3.6,2.2-4.5,3.5c-1,1.5-3,3-3,3c-4.9-0.5-5.2-8.2-5.2-8.2c3.2,0.1,5,3.6,6.9,3.6c4-3.4,5.6-3.1,5.6-3.1L0,48.2l0.2-0.3
			c0,0,1.6-0.3,5.6,3.1c1.9,0,3.7-3.5,6.9-3.6C12.7,47.4,12.4,55.2,7.5,55.7z"/>
	</g>
	<g id="New_Symbol_30_3_">
		<g id="New_Symbol_4_7_">
			<g>
				<path fill="#C07F5F" stroke="#945535" stroke-linecap="round" stroke-linejoin="round" stroke-miterlimit="10" d="M-17.1,68.4
					c0,0-1.2,3.1-3.7,3c-1-0.1-1.9-0.9-2.1-1.9c-0.4-2.1,0-5.9,7.8-8.1L-17.1,68.4z"/>
			</g>
		</g>
		<g id="New_Symbol_4_6_">
			<g>
				<path fill="#C07F5F" stroke="#945535" stroke-linecap="round" stroke-linejoin="round" stroke-miterlimit="10" d="M17.1,68.6
					c0,0,1.2,3.2,3.7,3.1c1.1,0,1.9-0.9,2.1-1.9c0.4-2.1,0.1-5.9-7.7-8.2L17.1,68.6z"/>
			</g>
		</g>
		<path fill="#C07F5F" stroke="#945535" stroke-linecap="round" stroke-linejoin="round" stroke-miterlimit="10" d="M18.2,68.6
			c0-6.8-8.1-12.4-18.2-12.4c-10.1-0.1-18.3,5.4-18.4,12.2c0,6.8,8.1,12.4,18.2,12.4S18.2,75.5,18.2,68.6z"/>
		<g>
			<path fill="#231F20" d="M-4.2,70.6c0-1.4-0.4-2.5-1-2.5s-1,1.1-1,2.5c0,1.4,0.4,2.5,1,2.5C-4.7,73.1-4.2,72-4.2,70.6z"/>
			<path fill="none" stroke="#945535" stroke-linecap="round" stroke-linejoin="round" stroke-miterlimit="10" d="M-7.2,74.9
				c0,0,0.6,1.7,2.6,2"/>
			<path fill="#231F20" d="M4.2,70.6c0-1.4,0.5-2.5,1-2.5c0.6,0,1,1.1,1,2.5s-0.5,2.5-1,2.5C4.6,73.2,4.1,72,4.2,70.6z"/>
			<path fill="none" stroke="#945535" stroke-linecap="round" stroke-linejoin="round" stroke-miterlimit="10" d="M7.1,74.9
				c0,0-0.6,1.7-2.6,2"/>
			<path fill="none" stroke="#945535" stroke-linecap="round" stroke-linejoin="round" stroke-miterlimit="10" d="M7.7,62.5
				c0,0-1-3.1-7.7-3c-6.8-0.1-7.9,3-7.9,3"/>
			<path fill="none" stroke="#945535" stroke-linecap="round" stroke-linejoin="round" stroke-miterlimit="10" d="M2.1,67.5
				c0,0,1-0.5,1-1.9c0-1.5-1.6-1.8-3.2-1.8c-1.5,0-3.2,0.2-3.2,1.7c0,1.4,1,1.9,1,1.9"/>
		</g>
	</g>
	<polygon fill="#C07F5F" points="-2.5,82.4 9.2,76.7 17,74.7 15.1,80 7.4,84.4 	"/>
	<g>
		<path fill="#2C1A12" stroke="#603A17" stroke-width="1.0057" stroke-miterlimit="10" d="M-14,76.5c0,0,3.2-1.9,13.8,0.9
			s12.7,2.2,12.7,2.2s2-7.7,5.7-9.1c0,0,4.8,14.5-5.7,12.3c0,0,0.8,7.2-10.6,5.2c0,0-7.9,0.6-13.1-4.7c0,0-14.4-4.2-7.5-14.4
			C-18.7,69-17.3,75.9-14,76.5z"/>
		<g>
			<g>
				<path fill="#603A17" d="M-15.4,80.4c0,0-0.1-0.1-0.2-0.2c-0.1-0.1-0.3-0.4-0.4-0.7c-0.1-0.1-0.1-0.3-0.1-0.5c0-0.2,0-0.3,0-0.5
					c0.1-0.2,0.1-0.3,0.3-0.4c0.1-0.1,0.3-0.2,0.4-0.4c0.2-0.1,0.3-0.2,0.5-0.3c0.2-0.1,0.4-0.1,0.5-0.2c0.2-0.1,0.3-0.2,0.5-0.2
					c0.2-0.1,0.3-0.2,0.4-0.3c0.6-0.3,0.9-0.6,0.9-0.6l0-0.1c0,0-0.5-0.1-1.2,0c-0.2,0-0.4,0.1-0.5,0.1c-0.2,0.1-0.4,0.1-0.6,0.2
					c-0.2,0.1-0.4,0.2-0.6,0.4c-0.2,0.2-0.4,0.3-0.5,0.5c-0.2,0.2-0.3,0.4-0.5,0.6c-0.1,0.2-0.2,0.5-0.2,0.7c0,0.2,0,0.5,0.1,0.7
					c0.1,0.2,0.2,0.4,0.3,0.5c0.2,0.3,0.4,0.5,0.6,0.6C-15.6,80.4-15.5,80.5-15.4,80.4L-15.4,80.4z"/>
			</g>
			<g>
				<path fill="#603A17" d="M-10.9,81.2c0,0,0.3-0.2,0.9-0.5c0.6-0.2,1.5-0.5,2.7-0.6c0.6-0.1,1.2-0.1,1.8,0c0.6,0,1.3,0.1,2,0.2
					c0.7,0.1,1.4,0.3,2.1,0.5c0.7,0.2,1.4,0.5,2.1,0.7c0.7,0.3,1.4,0.6,2.1,0.9c0.7,0.3,1.3,0.6,2,0.9c0.7,0.3,1.4,0.5,2,0.6
					c0.7,0.2,1.3,0.3,1.9,0.3c0.6,0.1,1.2,0,1.6,0c0.5-0.1,0.9-0.2,1.2-0.5c0.3-0.2,0.4-0.5,0.4-0.7c0-0.2,0-0.3,0-0.3l-0.1,0
					c0,0,0,0.4-0.6,0.7c-0.5,0.3-1.5,0.3-2.5,0c-0.5-0.1-1.1-0.3-1.7-0.5c-0.6-0.2-1.3-0.4-1.9-0.7c-0.7-0.2-1.3-0.5-2.1-0.8
					c-0.7-0.3-1.4-0.5-2.2-0.8c-0.7-0.2-1.5-0.5-2.2-0.6c-0.7-0.2-1.5-0.3-2.2-0.4c-0.7-0.1-1.4-0.1-2.1-0.1c-0.7,0-1.3,0.1-1.9,0.2
					c-1.2,0.2-2.1,0.5-2.7,0.8C-10.7,80.9-11,81.2-10.9,81.2L-10.9,81.2z"/>
			</g>
			<g>
				<path fill="#603A17" d="M-1.4,84.1c0,0,0.8,0.3,2.1,0.7c1.3,0.4,3,0.8,4.8,1.1c0.9,0.1,1.8,0.2,2.7,0.2c0.9-0.1,1.7-0.3,2.3-0.6
					c0.7-0.3,1.1-0.8,1.3-1.2c0.2-0.4,0.2-0.6,0.2-0.6l-0.1,0c0,0-0.1,0.2-0.4,0.4c-0.1,0.1-0.3,0.2-0.5,0.4
					c-0.2,0.1-0.5,0.2-0.8,0.3c-0.3,0.1-0.6,0.1-1,0.2C8.9,85,8.6,85,8.2,85c-0.8,0.1-1.7,0.1-2.5,0c-1.7-0.1-3.5-0.4-4.8-0.6
					C-0.5,84.2-1.3,84-1.4,84.1L-1.4,84.1z"/>
			</g>
			<g>
				<path fill="#603A17" d="M4.1,87.4c0,0,0.6,0,1.5,0c0.9,0,2.1-0.1,3.2-0.5c0.3-0.1,0.6-0.2,0.9-0.3c0.3-0.1,0.6-0.2,0.8-0.4
					c0.3-0.1,0.5-0.3,0.7-0.5c0.2-0.2,0.4-0.4,0.5-0.6c0.1-0.2,0.2-0.4,0.3-0.6c0.1-0.2,0.1-0.4,0.1-0.5c0-0.3,0-0.4,0-0.4l-0.1,0
					c0,0-0.1,0.1-0.3,0.3c-0.1,0.1-0.2,0.2-0.3,0.3c-0.1,0.1-0.3,0.2-0.4,0.4c-0.2,0.1-0.3,0.2-0.5,0.4c-0.2,0.1-0.4,0.3-0.6,0.4
					C9.5,85.7,9,86,8.5,86.2c-1,0.4-2.2,0.7-3,0.9c-0.8,0.2-1.4,0.2-1.4,0.2L4.1,87.4z"/>
			</g>
			<g>
				<path fill="#603A17" d="M14.4,79.9c0,0,0.6-0.3,1.2-1.1c0.7-0.7,1.4-1.9,1.9-3.1c0.3-0.6,0.5-1.2,0.7-1.8
					c0.1-0.6,0.2-1.2,0.2-1.7c0-0.5,0-0.9-0.1-1.2c0-0.3-0.1-0.5-0.1-0.5l-0.1,0c0,0-0.1,0.2-0.2,0.4c-0.1,0.3-0.2,0.7-0.4,1.1
					c-0.1,0.5-0.3,1-0.4,1.6c0,0.3-0.1,0.6-0.2,0.9c0,0.3-0.1,0.6-0.2,0.9c-0.3,1.2-0.9,2.3-1.4,3.1C14.9,79.4,14.4,79.8,14.4,79.9
					L14.4,79.9z"/>
			</g>
			<g>
				<path fill="#603A17" d="M16.3,81.7c0,0,0.2,0,0.4-0.2c0.2-0.2,0.6-0.5,0.8-0.9c0.6-0.9,1-2.2,1.2-3.5c0.1-0.7,0.2-1.3,0.3-2
					c0-0.6,0-1.2-0.1-1.7c-0.2-1-0.4-1.7-0.4-1.7l-0.1,0c0,0-0.2,0.7-0.3,1.7C18,73.8,18,74.3,18,75c0,0.6,0,1.3,0,1.9
					c0,0.7-0.1,1.3-0.2,1.9c-0.1,0.6-0.3,1.1-0.5,1.6c-0.2,0.4-0.4,0.8-0.6,1C16.4,81.5,16.3,81.6,16.3,81.7L16.3,81.7z"/>
			</g>
			<g>
				<path fill="#603A17" d="M-18.2,77.1c0,0-0.2-0.5-0.4-1.2c-0.1-0.7-0.3-1.8-0.2-2.8c0-0.3,0-0.5,0.1-0.7c0-0.2,0.1-0.5,0.1-0.7
					c0-0.5,0-0.9,0-1.3c0-0.8-0.1-1.3-0.1-1.3l-0.1,0c0,0-0.1,0.1-0.2,0.3c-0.1,0.2-0.3,0.5-0.4,0.9c-0.1,0.4-0.2,0.8-0.3,1.3
					c0,0.5,0,1,0.1,1.6c0.1,1.1,0.4,2.1,0.7,2.8C-18.6,76.7-18.3,77.1-18.2,77.1L-18.2,77.1z"/>
			</g>
		</g>
	</g>
</symbol>
<symbol id="New_Symbol_34" viewBox="-11.9 -8.4 23.7 16.8">
	<g>
		<g>
			<defs>
				<path id="SVGID_3_" d="M11.3,8c0,0,0.3-5.6,0-8.7c0,0-2.8-2-4.4-1.3L5.7-0.7v-2.4c0,0-10.2-7.6-16.1-4c-0.7,0.4-1.2,1.2-1.2,2
					c0,0.9,0.2,2.1,1.3,2.7c1.9,1.2,6.2,3.2,7.6,4.6c0,0,3.7,4.4,5.8,5.2L11.3,8z"/>
			</defs>
			<use xlink:href="#SVGID_3_" overflow="visible" fill="#7E673E"/>
			
			<path clip-path="url(#SVGID_4_)" fill="#7E673E" stroke="#5B4624" stroke-width="0.75" stroke-miterlimit="10" d="M-10.5-1.1
				c0,0-2.7-5.3,3.6-5.3c3.2,0,11.1,3.2,12.6,5.1c3.9,0.7,5.8,2.6,5.8,2.6"/>
			<use xlink:href="#SVGID_3_" overflow="visible" fill="none" stroke="#5B4624" stroke-width="0.75" stroke-miterlimit="10"/>
		</g>
		<g>
			<g>
				<g>
					<path fill="#9B743B" stroke="#775425" stroke-width="0.5" stroke-miterlimit="10" d="M-1.1-1c0-0.5-0.4-0.9-0.9-0.9
						S-2.9-1.5-2.9-1S-2.5-0.1-2-0.1S-1.1-0.5-1.1-1z"/>
				</g>
			</g>
		</g>
		<g>
			<g>
				<g>
					<path fill="#9B743B" stroke="#775425" stroke-width="0.5" stroke-miterlimit="10" d="M2.1,1.3c0-0.5-0.4-0.9-0.9-0.9
						S0.3,0.8,0.3,1.3s0.4,0.9,0.9,0.9S2.1,1.7,2.1,1.3z"/>
				</g>
			</g>
		</g>
		<g id="XMLID_100_">
			<g>
				<g>
					<path fill="#9B743B" stroke="#775425" stroke-width="0.5" stroke-miterlimit="10" d="M5.2,3.3c0-0.5-0.4-0.9-0.9-0.9
						S3.5,2.8,3.5,3.3s0.4,0.9,0.9,0.9S5.2,3.8,5.2,3.3z"/>
				</g>
			</g>
		</g>
		<g>
			<g>
				<g>
					<path fill="#C19C61" stroke="#9B743B" stroke-width="0.5" stroke-miterlimit="10" d="M-6,0.3c0,0,1.7,0.5,3.8-1.5
						c0,0,0.7-0.1,0.4,0.4s-2.1,1.8-3.4,1.8C-5.1,1.1-6.1,1.2-6,0.3z"/>
				</g>
			</g>
		</g>
		<g>
			<g>
				<g>
					<path fill="#C19C61" stroke="#9B743B" stroke-width="0.5" stroke-miterlimit="10" d="M-2.9,2.6c0,0,1.7,0.5,3.8-1.5
						c0,0,0.7-0.1,0.4,0.4S-0.8,3.4-2,3.3C-2,3.3-3,3.4-2.9,2.6z"/>
				</g>
			</g>
		</g>
		<g>
			<g>
				<g>
					<path fill="#C19C61" stroke="#9B743B" stroke-width="0.5" stroke-miterlimit="10" d="M-1.2,4.3c0,0,1.3,0.2,2.3-2.4
						c0,0,0.4-0.3,0.4,0.4c0,0.7-1.1,2.4-2,2.7C-0.5,4.9-1.2,5.2-1.2,4.3z"/>
				</g>
			</g>
		</g>
		<g>
			<g>
				<g>
					<path fill="#C19C61" stroke="#9B743B" stroke-width="0.5" stroke-miterlimit="10" d="M1.3,6.5c0,0,1.4,0.2,2.6-2.7
						c0,0,0.5-0.3,0.4,0.4S3,6.9,2.1,7.2C2.1,7.2,1.3,7.5,1.3,6.5z"/>
				</g>
			</g>
		</g>
		<g>
			<g>
				<g>
					<path fill="#C19C61" stroke="#9B743B" stroke-width="0.5" stroke-miterlimit="10" d="M-3.9,1.7c0,0,1.3,0.2,2-2.4
						c0,0,0.4-0.3,0.4,0.4c0,0.6-0.8,2.4-1.6,2.6C-3,2.3-3.7,2.6-3.9,1.7z"/>
				</g>
			</g>
		</g>
		<g id="XMLID_99_">
			<g>
				<g>
					<path fill="#C19C61" stroke="#9B743B" stroke-width="0.5" stroke-miterlimit="10" d="M-0.7,4.8c0,0,2,0.5,4.5-1.6
						c0,0,0.8-0.1,0.5,0.5s-2.5,2-4,1.9C0.4,5.6-0.8,5.7-0.7,4.8z"/>
				</g>
			</g>
		</g>
	</g>
</symbol>
<symbol id="New_Symbol_36" viewBox="-4.8 -10.9 9.7 21.8">
	<path fill="#FFFFFF" stroke="#A19DB2" stroke-width="0.75" stroke-miterlimit="10" d="M-3.5-6.4c0,0-0.2,6.6-0.7,11.1
		C-4.6,7.5-4.4,9.1-4.2,10c0.1,0.4,0.5,0.6,0.9,0.4c0.8-0.3,2.7-0.6,6.9,0c0,0,0.8-0.3,0.8-1.4C4.5,8,3.8-7.5,3.8-7.5L2.7-9.4
		l-2.4-1.1l-2.5,2.2L-3.5-6.4z"/>
	<g>
		<path fill="#A19DB2" d="M-2.4,5c0,0,0.1-0.5,0.3-1.2C-2,3.1-1.9,2.1-1.9,1.1c0-1,0-1.9,0-2.6C-2-2.2-2-2.7-2-2.7s-0.1,0.5-0.3,1.2
			c-0.1,0.7-0.2,1.7-0.3,2.6c0,1,0,1.9,0,2.6C-2.5,4.5-2.4,5-2.4,5z"/>
	</g>
	<g>
		<path fill="#A19DB2" d="M-0.2,5.8c0,0,0.1-0.6,0.2-1.6c0.1-1,0.2-2.2,0.2-3.5c0-1.3,0-2.6-0.1-3.5C0.1-3.8,0-4.5,0-4.5
			s-0.1,0.6-0.3,1.6c-0.1,1-0.2,2.2-0.2,3.5c0,1.3,0,2.6,0.1,3.5C-0.3,5.1-0.2,5.8-0.2,5.8z"/>
	</g>
	<g>
		<path fill="#A19DB2" d="M2.5,5c0,0,0.1-0.5,0.2-1.2C2.7,3,2.7,2,2.7,1.1c0-1-0.1-1.9-0.2-2.7C2.3-2.3,2.2-2.8,2.2-2.8
			S2.1-2.3,2-1.6C2-0.8,1.9,0.1,2,1.1c0,1,0.1,1.9,0.2,2.7C2.3,4.5,2.5,5,2.5,5z"/>
	</g>
</symbol>
<symbol id="New_Symbol_37" viewBox="-6.1 -4.7 11.4 9.5">
	<path fill="#404666" stroke="#6E7DAA" stroke-width="0.987" stroke-miterlimit="10" d="M-5.5,4.2c0,0-0.2-3.7,0-6.8
		c0-0.4,0.3-0.8,0.7-0.9C-2.8-4,3-5,3.8-3.2c0,0,1.3,2.5,0.9,6.5c0,0.2-0.2,0.4-0.5,0.4C2.7,3.7-2.5,3.7-5.5,4.2z"/>
</symbol>
<symbol id="New_Symbol_38" viewBox="-5.5 -11.4 10.9 22.8">
	<path fill="#906445" stroke="#3B2416" stroke-miterlimit="10" d="M4.8-10.8c0,0,0.6,4.6-0.9,20.4l-8.8,1.2c0,0,2.5-11,2.6-20.9
		L4.8-10.8z"/>
</symbol>
<symbol id="New_Symbol_45" viewBox="-5.4 -4.9 10.7 9.7">
	<path fill="#271D14" stroke="#59351B" stroke-linecap="round" stroke-linejoin="round" stroke-miterlimit="10" d="M4.7-1.3
		c0,0,0.8-2.8-1.3-3C1.2-4.5,0.5-2.8,0.5-2.8S-3.1-4.4-4.6-1c-1.3,3,2.8,5.3,2.8,5.3l4.2-1L4.7-1.3z"/>
	<g>
		<path fill="#59351B" d="M-2.4,1.6c0,0-0.1-0.3-0.2-0.8c0-0.2,0-0.5,0-0.7c0-0.1,0.1-0.2,0.1-0.3c0-0.1,0.1-0.2,0.2-0.3
			C-2.1-0.5-2-0.6-1.9-0.6c0.1,0,0.2-0.1,0.3-0.1C-1.3-0.8-1.1-0.9-0.9-1c0.2-0.1,0.4-0.2,0.5-0.2c0.1-0.1,0.2-0.1,0.2-0.1l0-0.1
			c0,0-0.1-0.1-0.2-0.1c-0.1,0-0.2-0.1-0.3-0.1c-0.1,0-0.2-0.1-0.4-0.1c-0.1,0-0.3,0-0.4,0c-0.2,0-0.3,0-0.5,0.1
			c-0.2,0.1-0.3,0.2-0.5,0.3C-2.5-1.3-2.7-1.1-2.8-1C-2.9-0.8-3-0.6-3.1-0.4c-0.1,0.2-0.1,0.4-0.1,0.5C-3.1,0.4-3,0.7-2.9,1
			C-2.7,1.4-2.5,1.7-2.4,1.6L-2.4,1.6z"/>
	</g>
</symbol>
<symbol id="New_Symbol_46" viewBox="-2.1 -3.9 4.2 7.8">
	<g>
		<path fill="#59351B" d="M-0.6-3.9c0,0-0.2,0.1-0.5,0.3C-1.4-3.4-1.8-3-2-2.5c-0.1,0.3-0.2,0.6-0.1,0.8C-2-1.4-1.9-1.1-1.8-1
			c0.1,0.2,0.3,0.2,0.4,0.3c0.1,0,0.2,0.1,0.2,0.1l0.1-0.1c0,0,0-0.1,0-0.2c0-0.1,0-0.1-0.1-0.2c0-0.1,0-0.2,0-0.2
			c0-0.1,0-0.2-0.1-0.2c0-0.1-0.1-0.2,0-0.2c-0.1-0.2-0.1-0.3-0.1-0.5c0.1-0.4,0.3-0.8,0.5-1.1C-0.7-3.7-0.5-3.8-0.6-3.9L-0.6-3.9z"/>
	</g>
	<g>
		<path fill="#59351B" d="M-0.2-0.2c0,0-0.3,0.1-0.6,0.4c-0.4,0.2-0.8,0.7-1.1,1.3C-2,1.6-2,1.7-2.1,1.9c0,0.2,0,0.3,0,0.5
			C-2,2.7-1.9,3-1.7,3.2c0.2,0.2,0.3,0.3,0.5,0.3C-1.1,3.6-1,3.6-1,3.6L-1,3.5c0,0,0-0.1-0.1-0.2c0-0.1,0-0.1-0.1-0.2
			c0-0.1,0-0.2-0.1-0.3c0-0.1-0.1-0.2-0.1-0.3c0-0.1-0.1-0.2-0.1-0.3c0-0.1,0-0.2-0.1-0.3c0-0.1,0-0.2,0-0.4
			c0.1-0.5,0.5-0.9,0.7-1.3C-0.4,0-0.1-0.2-0.2-0.2L-0.2-0.2z"/>
	</g>
	<g>
		<path fill="#59351B" d="M1.2,1.2c0,0-0.1,0.2-0.2,0.4C0.9,1.9,0.8,2.3,0.8,2.8C0.8,3,0.9,3.3,1,3.5c0.1,0.2,0.3,0.3,0.5,0.4
			c0.2,0.1,0.3,0.1,0.4,0c0.1,0,0.2,0,0.2,0l0-0.1c0,0,0-0.1-0.1-0.1c0,0-0.1-0.1-0.1-0.1c0,0-0.1-0.1-0.1-0.2c0,0-0.1-0.1-0.1-0.2
			c0-0.1-0.1-0.1-0.1-0.2C1.6,2.9,1.5,2.8,1.4,2.7C1.3,2.4,1.3,2,1.3,1.7C1.3,1.4,1.3,1.2,1.2,1.2L1.2,1.2z"/>
	</g>
</symbol>
<symbol id="New_Symbol_61" viewBox="-26.2 -84.2 52.4 168.4">
	<g>
		<g id="XMLID_25_">
			<g>
				<path fill="#FCCB98" stroke="#C08857" stroke-linecap="round" stroke-linejoin="round" stroke-miterlimit="10" d="M17.6-11.3
					c-0.2,3,2.1,6.7,2.1,6.7c1,8.4-0.9,14-2.9,21.1c-0.9,3.3-0.4,8.1-0.4,8.1L22,25c1.3-7.4,1.7-11,1.7-12.6c0-1.1,0.1-2.1,0.3-3.2
					c1.7-11.3,1.6-15.9,1.6-15.9c0.5-6.6-3.1-12.8-6.4-14.2c-0.7-0.3-1.4,0.3-1.3,1c0.7,3.4,3.6,5.8,3.5,11.8c0,0-1.4-2.3-1.8-3.3
					C19-13,17.6-12.3,17.6-11.3z"/>
			</g>
		</g>
		<g>
			<g>
				<path fill="#FCCB98" stroke="#C08857" stroke-linecap="round" stroke-linejoin="round" stroke-miterlimit="10" d="M-17.4-11.3
					c0.2,3-2.1,6.7-2.1,6.7c-1,8.4,0.9,14,2.9,21.1c0.9,3.3,0.4,8.1,0.4,8.1l-5.6,0.4c-1.3-7.4-1.7-11-1.7-12.6
					c0-1.1-0.1-2.1-0.3-3.2c-1.7-11.3-1.6-15.9-1.6-15.9c-0.5-6.6,3.1-12.8,6.4-14.2c0.7-0.3,1.4,0.3,1.3,1
					c-0.7,3.4-3.6,5.8-3.5,11.8c0,0,1.4-2.3,1.8-3.3C-18.8-13-17.4-12.3-17.4-11.3z"/>
			</g>
		</g>
	</g>
	<g>
		<path fill="#404666" stroke="#6E7DAA" stroke-width="0.987" stroke-miterlimit="10" d="M13.6,4.5L0,3.7l-13.6,0.7
			c0,0-2.9-12.3-0.6-29.7c2.3-16.8,4.1-32.6,3.5-40c0,0,2.9-1.9,10.6,0c7.7-1.9,10.6,0,10.6,0c-0.6,7.4,1.3,23.2,3.5,40
			C16.5-7.8,13.6,4.5,13.6,4.5z M0-47.1c0,0-1.2,15.4-1.2,22.4c0,11.3,1.2,18,1.2,18s1.2-6.7,1.2-18C1.2-31.7,0-47.1,0-47.1z"/>
		<g>
			<path fill="#404666" stroke="#6E7DAA" stroke-width="0.987" stroke-miterlimit="10" d="M-15-8.8c0,0,3.5,1.6,3.4,13.3"/>
			<path fill="#404666" stroke="#6E7DAA" stroke-width="0.987" stroke-miterlimit="10" d="M15.2-8.8c0,0-3.5,1.6-3.4,13.3"/>
		</g>
		<line fill="#404666" stroke="#6E7DAA" stroke-width="0.987" stroke-miterlimit="10" x1="0" y1="-45.3" x2="0" y2="-65.2"/>
	</g>
	<g>
		
			<use xlink:href="#New_Symbol_34" width="23.7" height="16.8" id="XMLID_24_" x="-11.9" y="-8.4" transform="matrix(1.0317 0 0 1 -11.8854 -75.7958)" overflow="visible"/>
		
			<use xlink:href="#New_Symbol_34" width="23.7" height="16.8" id="XMLID_23_" x="-11.9" y="-8.4" transform="matrix(-1.0317 4.631800e-11 4.489700e-11 1 12.1146 -75.7958)" overflow="visible"/>
	</g>
	<g>
		
			<use xlink:href="#New_Symbol_37" width="11.4" height="9.5" id="XMLID_22_" x="-6.1" y="-4.7" transform="matrix(1.0856 0 0 0.8897 6.2671 -66.1243)" overflow="visible"/>
		
			<use xlink:href="#New_Symbol_37" width="11.4" height="9.5" id="XMLID_21_" x="-6.1" y="-4.7" transform="matrix(-1.0856 0 0 0.8897 -6.0819 -66.1243)" overflow="visible"/>
	</g>
	<path fill="#8DC63F" stroke="#009444" stroke-width="0.951" stroke-miterlimit="10" d="M24,15.2c0.9,2.1,0.1,3.1,0.1,3.1
		C25.5,18.8,24,21,24,21c0.6,2.3-1.8,5.4-1.8,5.4c-0.8,5.1-2.9,12.9-5.6,17.2c-2.3,3.6-12.5,5.7-15.9,6.3v0.2c0,0-0.2,0-0.6-0.1
		c-0.4,0.1-0.6,0.1-0.6,0.1v-0.2c-3.4-0.6-13.6-2.7-15.9-6.3c-2.8-4.3-4.9-12.1-5.6-17.2c0,0-2.4-3.1-1.8-5.4c0,0-1.6-2.2-0.1-2.7
		c0,0-0.8-1,0.1-3.1c0,0-0.3-4.1-0.7-5.2c0,0,0-2.4,5.9-2.6c0,0,0.7,3.6,1.7,7.1c0.9,3.5,0.6,2.9,0.6,2.9s0.8,1.2,0.9,4.8
		c0,0,0.4,3.4,3.8,11.6c0,0-0.1-5.7-0.9-10.9c-0.8-5.2-2-14.1-2.2-19.5c0,0,2.1-2.3,14.4-2.4v0c0.2,0,0.4,0,0.6,0c0.2,0,0.4,0,0.6,0
		v0C13,0.9,15.1,3.2,15.1,3.2c-0.2,5.4-1.4,14.3-2.2,19.5C12,27.9,12,33.7,12,33.7c3.4-8.2,3.8-11.6,3.8-11.6
		c0.1-3.5,0.9-4.8,0.9-4.8s-0.4,0.6,0.6-2.9s1.7-7.1,1.7-7.1c5.9,0.2,5.9,2.6,5.9,2.6C24.3,11,24,15.2,24,15.2z"/>
	<g>
		<g>
			<g>
				<g>
					<path fill="#009444" d="M19.2,12c0,0,0.2-0.3,0.4-0.7c0.2-0.4,0.4-1,0.5-1.5c0.1-0.6,0.1-1.2,0.1-1.6c0-0.4-0.1-0.8-0.1-0.8
						s-0.2,0.3-0.4,0.7c-0.2,0.4-0.4,1-0.5,1.5c-0.1,0.6-0.1,1.2-0.1,1.6C19.1,11.6,19.2,12,19.2,12z"/>
				</g>
				<g>
					<path fill="#009444" d="M20.6,12c0,0,0.2-0.3,0.4-0.7c0.2-0.4,0.4-1,0.5-1.5c0.1-0.6,0.1-1.2,0.1-1.6c0-0.4-0.1-0.8-0.1-0.8
						s-0.2,0.3-0.4,0.7c-0.2,0.4-0.4,1-0.5,1.5c-0.1,0.6-0.1,1.2-0.1,1.6C20.5,11.6,20.6,12,20.6,12z"/>
				</g>
				<g>
					<path fill="#009444" d="M22.8,12.8c0,0,0.2-0.2,0.4-0.6c0.2-0.4,0.4-0.9,0.5-1.5c0.1-0.5,0.1-1.1,0.1-1.5
						c0-0.4-0.2-0.7-0.2-0.7s-0.2,0.2-0.4,0.6c-0.2,0.4-0.4,0.9-0.5,1.5c-0.1,0.5-0.1,1.1-0.1,1.5C22.7,12.5,22.8,12.8,22.8,12.8z"/>
				</g>
			</g>
			<g>
				<g>
					<path fill="#009444" d="M9.6,5.7c0,0,0.2-0.1,0.3-0.4c0.2-0.2,0.3-0.6,0.4-0.9c0.1-0.3,0-0.7,0-1C10.2,3.1,10,2.9,10,2.9
						S9.9,3.1,9.7,3.3C9.5,3.6,9.4,3.9,9.3,4.3c-0.1,0.3,0,0.7,0,1C9.4,5.5,9.6,5.7,9.6,5.7z"/>
				</g>
				<g>
					<path fill="#009444" d="M11.1,6.4c0,0,0.2-0.2,0.3-0.5c0.2-0.3,0.3-0.7,0.3-1.2c0-0.4,0-0.9-0.1-1.2C11.6,3.3,11.4,3,11.4,3
						s-0.2,0.2-0.3,0.5c-0.2,0.3-0.3,0.7-0.3,1.2c0,0.4,0,0.9,0.1,1.2C10.9,6.2,11.1,6.4,11.1,6.4z"/>
				</g>
				<g>
					<path fill="#009444" d="M12.9,7.4c0,0,0.2-0.2,0.4-0.5c0.2-0.3,0.3-0.8,0.4-1.2c0.1-0.5,0.1-0.9,0-1.3c0-0.4-0.2-0.6-0.2-0.6
						S13.4,4,13.3,4.3c-0.2,0.3-0.3,0.8-0.4,1.2c-0.1,0.5-0.1,0.9,0,1.3C12.8,7.1,12.9,7.4,12.9,7.4z"/>
				</g>
			</g>
			<g>
				<g>
					<path fill="#009444" d="M10.2,39.3c0,0,0.3-0.3,0.6-0.7c0.4-0.5,0.7-1.2,1-1.9c0.1-0.4,0.3-0.7,0.4-1.1c0.1-0.4,0.1-0.7,0-1
						c-0.1-0.6-0.3-1-0.3-1l-0.1,0c0,0-0.2,0.4-0.4,0.9c-0.1,0.3-0.2,0.6-0.2,0.9c0,0.3-0.1,0.7-0.1,1.1c-0.1,0.7-0.4,1.4-0.6,1.9
						C10.4,39,10.2,39.3,10.2,39.3L10.2,39.3z"/>
				</g>
				<g>
					<path fill="#009444" d="M13,40.3c0,0,0.1-0.5,0.3-1.3c0.2-0.8,0.3-1.8,0.3-2.9c0-0.5,0-1.1,0-1.6c-0.1-0.5-0.2-1-0.3-1.3
						c-0.1-0.4-0.3-0.7-0.4-0.9c-0.1-0.2-0.2-0.3-0.2-0.3l-0.1,0c0,0,0,0.1,0,0.4c0,0.2,0,0.6,0,1c0,0.4,0,0.8,0.1,1.3
						c0.1,0.5,0.2,1,0.2,1.5c0.1,1,0.1,2.1,0.1,2.8C12.9,39.8,12.9,40.3,13,40.3L13,40.3z"/>
				</g>
				<g>
					<path fill="#009444" d="M19.2,22.8c0,0,1.7-1,3.2-2.2c0.4-0.3,0.8-0.6,1.1-0.9c0.3-0.3,0.5-0.7,0.7-1.1
						c0.1-0.2,0.1-0.3,0.2-0.5c0-0.2,0.1-0.3,0.1-0.4c0-0.2,0-0.4,0-0.4l-0.1,0c0,0-0.1,0.1-0.2,0.3c-0.1,0.1-0.2,0.2-0.2,0.3
						c-0.1,0.1-0.2,0.2-0.3,0.3c-0.2,0.2-0.5,0.5-0.8,0.8c-0.3,0.3-0.6,0.7-0.9,1.1C20.6,21.4,19.2,22.7,19.2,22.8L19.2,22.8z"/>
				</g>
				<g>
					<path fill="#009444" d="M17.2,22.7c0,0,0.3-1.4,0.4-2.8c0-0.4,0.1-0.7,0-1.1c0-0.3-0.2-0.7-0.3-0.9c-0.1-0.3-0.3-0.5-0.5-0.6
						c-0.2-0.1-0.3-0.1-0.3-0.1l-0.1,0.1c0,0,0,0.1,0,0.2c0,0.1,0,0.2,0,0.3c0,0.1,0,0.2,0,0.3c0,0.2,0,0.5,0,0.8
						c0.1,0.3,0.1,0.6,0.2,1C17,21.3,17.1,22.7,17.2,22.7L17.2,22.7z"/>
				</g>
				<g>
					<path fill="#009444" d="M21.1,25.4c0,0,0.2-0.4,0.5-0.9c0.3-0.5,0.7-1.2,1.1-1.8c0.2-0.3,0.5-0.6,0.7-0.8
						c0.2-0.3,0.4-0.5,0.5-0.8c0.2-0.2,0.3-0.4,0.4-0.6c0.1-0.2,0.1-0.3,0.1-0.3l-0.1-0.1c0,0-0.1,0-0.3,0.1c-0.2,0-0.4,0.2-0.7,0.3
						c-0.3,0.2-0.5,0.4-0.8,0.7c-0.2,0.3-0.4,0.7-0.6,1C21.3,23.9,21,25.4,21.1,25.4L21.1,25.4z"/>
				</g>
				<g>
					<path fill="#009444" d="M18.3,18.3c0.1,0.4,0.5,0.9,1,1c0.1,0,0.2,0,0.4,0c0.1,0,0.2,0,0.4-0.1c0.2-0.1,0.5-0.1,0.7-0.3
						c0.4-0.2,0.8-0.5,1.1-0.8c0.4-0.3,0.7-0.6,1-0.9l0.2-0.2l-0.1-0.2c-0.1-0.2-0.1-0.4-0.2-0.6c-0.1-0.2-0.2-0.4-0.3-0.5
						c-0.2-0.3-0.6-0.6-0.9-0.8c-0.7-0.4-1.5-0.5-2.3-0.2l0,0.1c0.7,0.3,1.3,0.5,1.8,0.9c0.2,0.2,0.4,0.4,0.6,0.6
						c0.2,0.2,0.3,0.5,0.5,0.8l0.1-0.4c-0.3,0.3-0.5,0.7-0.8,1c-0.3,0.3-0.6,0.6-0.9,0.8c-0.2,0.1-0.3,0.2-0.5,0.3
						c-0.1,0-0.2,0.1-0.3,0.1c-0.1,0-0.2,0-0.3,0C18.9,19,18.6,18.7,18.3,18.3L18.3,18.3z"/>
				</g>
			</g>
		</g>
		<g>
			<g>
				<g>
					<path fill="#009444" d="M-19,12c0,0,0.1-0.3,0.1-0.8c0-0.5,0-1-0.1-1.6c-0.1-0.6-0.3-1.1-0.5-1.5c-0.2-0.4-0.4-0.7-0.4-0.7
						S-20,7.7-20,8.2c0,0.5,0,1,0.1,1.6c0.1,0.6,0.3,1.1,0.5,1.5C-19.2,11.7-19,12-19,12z"/>
				</g>
				<g>
					<path fill="#009444" d="M-20.4,12c0,0,0.1-0.3,0.1-0.8c0-0.5,0-1-0.1-1.6c-0.1-0.6-0.3-1.1-0.5-1.5c-0.2-0.4-0.4-0.7-0.4-0.7
						s-0.1,0.3-0.1,0.8c0,0.5,0,1,0.1,1.6c0.1,0.6,0.3,1.1,0.5,1.5C-20.6,11.7-20.4,12-20.4,12z"/>
				</g>
				<g>
					<path fill="#009444" d="M-22.6,12.8c0,0,0.1-0.3,0.2-0.7c0-0.4,0-1-0.1-1.5c-0.1-0.5-0.3-1.1-0.5-1.5c-0.2-0.4-0.4-0.6-0.4-0.6
						s-0.1,0.3-0.2,0.7c0,0.4,0,1,0.1,1.5c0.1,0.5,0.3,1.1,0.5,1.5C-22.8,12.5-22.6,12.8-22.6,12.8z"/>
				</g>
			</g>
			<g>
				<g>
					<path fill="#009444" d="M-9.3,5.7c0,0,0.1-0.2,0.2-0.5c0.1-0.3,0.1-0.6,0-1c-0.1-0.3-0.2-0.7-0.4-0.9c-0.2-0.2-0.3-0.4-0.3-0.4
						S-10,3.1-10,3.4c-0.1,0.3-0.1,0.6,0,1c0.1,0.3,0.2,0.7,0.4,0.9C-9.5,5.6-9.3,5.7-9.3,5.7z"/>
				</g>
				<g>
					<path fill="#009444" d="M-10.9,6.4c0,0,0.1-0.2,0.2-0.6c0.1-0.3,0.1-0.8,0.1-1.2c0-0.4-0.2-0.8-0.3-1.2C-11,3.2-11.2,3-11.2,3
						s-0.1,0.2-0.2,0.6c-0.1,0.3-0.1,0.8-0.1,1.2c0,0.4,0.2,0.8,0.3,1.2C-11,6.2-10.9,6.4-10.9,6.4z"/>
				</g>
				<g>
					<path fill="#009444" d="M-12.7,7.4c0,0,0.1-0.3,0.2-0.6c0.1-0.4,0-0.8,0-1.3C-12.7,5-12.9,4.6-13,4.3c-0.2-0.3-0.4-0.5-0.4-0.5
						s-0.1,0.3-0.2,0.6c-0.1,0.4,0,0.8,0,1.3c0.1,0.5,0.3,0.9,0.4,1.2C-12.9,7.2-12.7,7.4-12.7,7.4z"/>
				</g>
			</g>
			<g>
				<g>
					<path fill="#009444" d="M-10,39.3c0,0-0.2-0.3-0.4-0.8c-0.2-0.5-0.4-1.2-0.6-1.9c-0.1-0.4-0.1-0.7-0.1-1.1
						c-0.1-0.3-0.2-0.6-0.2-0.9c-0.2-0.5-0.4-0.9-0.4-0.9l-0.1,0c0,0-0.2,0.4-0.3,1c0,0.3,0,0.6,0,1c0.1,0.4,0.2,0.7,0.4,1.1
						c0.3,0.7,0.6,1.4,1,1.9C-10.3,39.1-10,39.3-10,39.3L-10,39.3z"/>
				</g>
				<g>
					<path fill="#009444" d="M-12.7,40.3c0,0-0.1-0.5-0.1-1.3c0-0.8,0-1.8,0.1-2.8c0-0.5,0.2-1,0.2-1.5c0-0.5,0.1-0.9,0.1-1.3
						c0-0.4,0-0.7,0-1c0-0.2,0-0.4,0-0.4l-0.1,0c0,0-0.1,0.1-0.2,0.3c-0.1,0.2-0.3,0.5-0.4,0.9c-0.1,0.4-0.3,0.8-0.3,1.3
						c0,0.5,0,1,0,1.6c0,1.1,0.2,2.1,0.3,2.9C-12.9,39.8-12.8,40.3-12.7,40.3L-12.7,40.3z"/>
				</g>
				<g>
					<path fill="#009444" d="M-19,22.7c0,0-1.4-1.3-2.7-2.7c-0.3-0.3-0.6-0.7-0.9-1.1c-0.3-0.3-0.6-0.6-0.8-0.8
						c-0.1-0.1-0.2-0.2-0.3-0.3c-0.1-0.1-0.2-0.2-0.2-0.3c-0.1-0.2-0.2-0.3-0.2-0.3l-0.1,0c0,0,0,0.1,0,0.4c0,0.1,0,0.2,0.1,0.4
						c0,0.2,0.1,0.3,0.2,0.5c0.2,0.4,0.4,0.7,0.7,1.1c0.3,0.3,0.7,0.6,1.1,0.9C-20.7,21.8-19,22.8-19,22.7L-19,22.7z"/>
				</g>
				<g>
					<path fill="#009444" d="M-16.9,22.7c0,0,0.1-1.4,0.3-2.8c0-0.3,0.1-0.7,0.2-1c0-0.3,0-0.6,0-0.8c0-0.1,0-0.2,0-0.3
						c0-0.1,0-0.2,0-0.3c0-0.1,0-0.2,0-0.2l-0.1-0.1c0,0-0.1,0-0.3,0.1c-0.2,0.1-0.3,0.3-0.5,0.6c-0.1,0.3-0.3,0.6-0.3,0.9
						c0,0.3,0,0.7,0,1.1C-17.3,21.4-17,22.7-16.9,22.7L-16.9,22.7z"/>
				</g>
				<g>
					<path fill="#009444" d="M-20.8,25.4c0,0-0.3-1.5-1-3c-0.2-0.4-0.3-0.7-0.6-1c-0.2-0.3-0.5-0.5-0.8-0.7
						c-0.3-0.2-0.5-0.3-0.7-0.3c-0.2-0.1-0.3-0.1-0.3-0.1l-0.1,0.1c0,0,0,0.1,0.1,0.3c0.1,0.2,0.2,0.4,0.4,0.6
						c0.1,0.2,0.3,0.5,0.5,0.8c0.2,0.3,0.5,0.5,0.7,0.8c0.5,0.6,0.8,1.3,1.1,1.8C-21,25.1-20.9,25.4-20.8,25.4L-20.8,25.4z"/>
				</g>
				<g>
					<path fill="#009444" d="M-18.2,18.3c-0.2,0.4-0.5,0.7-0.9,0.7c-0.1,0-0.2,0-0.3,0c-0.1,0-0.2-0.1-0.3-0.1
						c-0.2-0.1-0.4-0.2-0.5-0.3c-0.3-0.2-0.7-0.5-0.9-0.8c-0.3-0.3-0.6-0.7-0.8-1l0.1,0.4c0.1-0.3,0.3-0.5,0.5-0.8
						c0.2-0.2,0.4-0.4,0.6-0.6c0.5-0.4,1.1-0.7,1.8-0.9l0-0.1c-0.7-0.2-1.5-0.1-2.3,0.2c-0.4,0.2-0.7,0.5-0.9,0.8
						c-0.1,0.2-0.2,0.3-0.3,0.5c-0.1,0.2-0.1,0.4-0.2,0.6l-0.1,0.2l0.2,0.2c0.3,0.3,0.6,0.6,1,0.9c0.3,0.3,0.7,0.6,1.1,0.8
						c0.2,0.1,0.4,0.2,0.7,0.3c0.1,0,0.2,0.1,0.4,0.1c0.1,0,0.2,0,0.4,0C-18.5,19.2-18.2,18.7-18.2,18.3L-18.2,18.3z"/>
				</g>
			</g>
		</g>
	</g>
	<g>
		<polygon fill="#FCCB98" stroke="#C08857" stroke-linecap="round" stroke-linejoin="round" stroke-miterlimit="10" points="
			-0.5,60.4 -0.5,60.4 -0.6,60.4 -0.6,60.4 -0.6,60.4 -7.9,59.4 -6.7,45 -4.3,42.4 -1.4,40.6 -0.6,40.3 -0.6,40.3 -0.6,40.3 
			-0.5,40.3 -0.5,40.3 0.3,40.6 3.2,42.4 5.5,45 6.7,59.4 		"/>
		<g>
			<g id="XMLID_18_">
				<g>
					<g>
						<g>
							<g>
								<g>
									<g id="XMLID_20_">
										<g>
											<path fill="#FCCB98" stroke="#C08857" stroke-linecap="round" stroke-linejoin="round" stroke-miterlimit="10" d="
												M-16.9,65.6c0,0-1.2,3-3.6,2.9c-1,0-1.8-0.9-2.1-1.8c-0.4-2,0-5.7,7.4-7.8L-16.9,65.6z"/>
										</g>
									</g>
									<g>
										<g>
											<path fill="#FCCB98" stroke="#C08857" stroke-linecap="round" stroke-linejoin="round" stroke-miterlimit="10" d="
												M15.9,65.6c0,0,1.2,3,3.6,2.9c1,0,1.8-0.9,2.1-1.8c0.4-2,0-5.7-7.4-7.8L15.9,65.6z"/>
										</g>
									</g>
								</g>
								
									<path fill="#FCCB98" stroke="#C08857" stroke-width="0.9621" stroke-linecap="round" stroke-linejoin="round" stroke-miterlimit="10" d="
									M17,65.6c0-6.6-7.9-11.9-17.6-11.9s-17.6,5.3-17.6,11.9s7.9,11.9,17.6,11.9S17,72.2,17,65.6z"/>
								<g>
									<g>
										<g id="XMLID_19_">
											<g>
												<path fill="#231F20" d="M-4.5,67.6c0-1.3-0.4-2.4-1-2.4s-1,1.1-1,2.4s0.4,2.4,1,2.4S-4.5,69-4.5,67.6z"/>
												<path fill="#FCCB98" stroke="#C08857" stroke-linecap="round" stroke-linejoin="round" stroke-miterlimit="10" d="
													M-7.4,71.8c0,0,0.6,1.6,2.5,2"/>
											</g>
										</g>
										<g>
											<g>
												<path fill="#231F20" d="M3.5,67.6c0-1.3,0.4-2.4,1-2.4s1,1.1,1,2.4s-0.4,2.4-1,2.4S3.5,69,3.5,67.6z"/>
												<path fill="#FCCB98" stroke="#C08857" stroke-linecap="round" stroke-linejoin="round" stroke-miterlimit="10" d="
													M6.4,71.8c0,0-0.6,1.6-2.5,2"/>
											</g>
										</g>
									</g>
									
										<path fill="#FCCB98" stroke="#C08857" stroke-width="0.9621" stroke-linecap="round" stroke-linejoin="round" stroke-miterlimit="10" d="
										M6.9,59.8c0,0-1-2.9-7.5-2.9c-6.6-0.1-7.5,2.9-7.5,2.9"/>
									
										<path fill="#FCCB98" stroke="#C08857" stroke-width="0.9621" stroke-linecap="round" stroke-linejoin="round" stroke-miterlimit="10" d="
										M1.5,64.6c0,0,1-0.5,1-1.8c0-1.4-1.6-1.7-3.1-1.7c-1.5,0-3.1,0.3-3.1,1.7c0,1.4,1,1.8,1,1.8"/>
								</g>
							</g>
						</g>
					</g>
				</g>
			</g>
			<g>
				<path fill="#FCCB98" d="M-16.9,67.3L-16.9,67.3l8,7.3l5.6,2.2L-3.9,80l-9.7-1.6l-2.6-2.5C-17.8,74-19,68.7-16.9,67.3z"/>
				<path fill="#FCCB98" d="M6.1,75l4.9-6.4l5.2-2.3l0.4,2.7c0.1,0.8-0.2,1.7-0.8,2.3l-5.2,5.2L6.1,75z"/>
			</g>
			<g>
				<path fill="#F9EC31" stroke="#978832" stroke-width="0.8" stroke-miterlimit="10" d="M-10.3,76.3c0,0,2.5-0.5,5.9-0.1
					c0,0,4.8-3.4,21.1-5.9c0,0,0.9-1.6,0.7-4c0,0,1.1-1.2,3-0.1c0.9,0.5,1.4,1.4,1.6,3.4l-2-1.4c0,0,0.3,1.3,0,2.4
					C19.4,72.1,12.3,82.4,0,83.6s-11.6-4.5-11.6-4.5s-3,0.5-4.4-0.8s-3.4-7.4-8.2-7.1c0,0-0.2-1.6,1.6-2.2l-2.9-0.5
					c0,0,1.7-2.2,4.4-1.2c0,0,0.3-2.3,2.8-4.1c0,0-0.6,4.1,0.1,7.1c0,0,2.8,3.6,3.8,3.9S-11,75.5-10.3,76.3z"/>
				<g>
					<g>
						<path fill="#978832" d="M-9.1,81.3c0,0,1.1,0.4,2.8,0.7c0.8,0.2,1.9,0.3,2.9,0.4c1.1,0,2.2,0.1,3.4-0.1c0.6,0,1.2-0.1,1.7-0.2
							c0.6-0.1,1.1-0.2,1.6-0.3c0.5-0.1,1-0.3,1.5-0.5c0.5-0.2,0.9-0.4,1.3-0.6c0.4-0.2,0.7-0.4,1-0.6c0.3-0.2,0.6-0.4,0.8-0.5
							c0.4-0.3,0.6-0.5,0.6-0.5l0-0.1c0,0-0.3,0.1-0.7,0.3c-0.2,0.1-0.5,0.2-0.8,0.3c-0.3,0.1-0.7,0.2-1.1,0.4
							c-0.4,0.1-0.8,0.3-1.3,0.4c-0.5,0.1-0.9,0.3-1.5,0.4c-0.5,0.1-1,0.3-1.6,0.4c-0.5,0.1-1.1,0.3-1.7,0.3
							c-1.1,0.2-2.2,0.2-3.3,0.2c-1.1,0-2.1-0.1-2.9-0.2C-7.9,81.6-9,81.3-9.1,81.3L-9.1,81.3z"/>
					</g>
					<g>
						<path fill="#978832" d="M1.2,78.5c0,0,1.5-0.1,3.8-0.5c2.3-0.4,5.3-1.1,8.1-2.3l1-0.5c0.3-0.2,0.7-0.4,1-0.6
							c0.3-0.2,0.6-0.4,0.9-0.6c0.3-0.2,0.6-0.4,0.9-0.7c0.3-0.3,0.5-0.5,0.7-0.8c0.2-0.3,0.4-0.6,0.6-0.9c0.4-0.6,0.6-1.2,0.7-1.8
							c0.1-0.6,0-1.2-0.2-1.7c-0.2-0.5-0.4-0.8-0.6-1.1c-0.4-0.5-0.8-0.7-0.8-0.7l-0.1,0.1c0,0,0.3,0.3,0.6,0.8
							c0.2,0.3,0.3,0.6,0.4,1.1c0.1,0.4,0.1,0.9,0,1.4c-0.1,0.5-0.3,1.1-0.7,1.5c-0.2,0.2-0.4,0.5-0.6,0.8c-0.2,0.2-0.5,0.5-0.7,0.7
							c-0.2,0.3-0.5,0.5-0.8,0.7c-0.3,0.2-0.5,0.5-0.9,0.6c-0.3,0.2-0.6,0.4-0.9,0.6l-1,0.5c-2.7,1.4-5.6,2.1-7.8,2.6
							C2.7,78.3,1.2,78.4,1.2,78.5L1.2,78.5z"/>
					</g>
					<g>
						<path fill="#978832" d="M2.2,75.9c0,0,0.7-0.5,1.9-1c1.2-0.5,2.8-1.1,4.4-1.5c0.8-0.2,1.7-0.4,2.4-0.5
							c0.8-0.2,1.5-0.4,2.1-0.5c0.6-0.2,1.1-0.3,1.5-0.4c0.4-0.1,0.6-0.2,0.6-0.2l0-0.1c0,0-0.2,0-0.6,0c-0.4,0-0.9,0-1.6,0.1
							c-0.7,0.1-1.4,0.2-2.2,0.3c-0.8,0.2-1.6,0.5-2.4,0.7C6.7,73.3,5.1,74,4,74.7C2.8,75.3,2.2,75.8,2.2,75.9L2.2,75.9z"/>
					</g>
					<g>
						<path fill="#978832" d="M9.1,75.6c0,0,2.2-0.3,4.2-1.2c0.5-0.2,1-0.4,1.5-0.7c0.4-0.3,0.8-0.6,1.1-0.9
							c0.3-0.3,0.5-0.6,0.6-0.8c0.1-0.2,0.2-0.3,0.2-0.3l-0.1,0c0,0-0.1,0.1-0.3,0.2c-0.1,0.1-0.2,0.2-0.3,0.2
							c-0.1,0.1-0.3,0.2-0.5,0.3c-0.3,0.2-0.7,0.4-1.1,0.7c-0.4,0.3-0.8,0.6-1.3,0.8c-0.9,0.5-1.9,0.9-2.7,1.2
							C9.6,75.3,9.1,75.5,9.1,75.6L9.1,75.6z"/>
					</g>
					<g>
						<path fill="#978832" d="M-9.9,78.7c0,0,0.2,0.1,0.6,0.3c0.4,0.1,1,0.2,1.7,0c0.3-0.1,0.7-0.2,1.1-0.3c0.4-0.1,0.8-0.3,1.2-0.5
							c0.8-0.4,1.6-0.8,2.4-1.2c0.8-0.4,1.7-0.8,2.4-1.1c0.8-0.4,1.5-0.7,2.1-1c0.6-0.3,1.1-0.5,1.5-0.6C3.5,74.1,3.7,74,3.7,74
							l0-0.1c0,0-1,0-2.3,0.4c-0.3,0.1-0.7,0.2-1.1,0.3c-0.4,0.1-0.8,0.3-1.2,0.5c-0.8,0.4-1.6,0.9-2.4,1.3c-0.8,0.5-1.6,1-2.3,1.4
							c-0.7,0.4-1.4,0.8-2.1,0.9c-0.7,0.2-1.2,0.2-1.6,0.1C-9.7,78.8-9.9,78.7-9.9,78.7L-9.9,78.7z"/>
					</g>
					<g>
						<path fill="#978832" d="M-11.1,80c0,0,0-0.2,0-0.6c0.1-0.4,0.1-0.8,0.3-1.3c0.1-0.2,0.2-0.4,0.3-0.6c0.1-0.2,0.1-0.4,0.2-0.6
							c0-0.1,0-0.2,0-0.2c0-0.1,0-0.1,0-0.2c0-0.1,0-0.2,0-0.2l-0.1-0.1c0,0-0.3,0.1-0.6,0.4c-0.2,0.1-0.3,0.4-0.4,0.6
							c-0.1,0.2-0.1,0.5-0.1,0.8C-11.6,79.1-11.2,80.1-11.1,80L-11.1,80z"/>
					</g>
					<g>
						<path fill="#978832" d="M-9.2,78.6c0,0,0.2-0.7,0.6-1.3c0.1-0.1,0.2-0.3,0.3-0.4c0.1-0.1,0.1-0.2,0.1-0.4
							c0.1-0.3,0.1-0.5,0.1-0.5l0-0.1c0,0-0.1,0-0.2,0c-0.1,0-0.1,0-0.2,0c-0.1,0-0.1,0-0.2,0.1c-0.1,0.1-0.3,0.2-0.4,0.4
							c-0.1,0.2-0.1,0.4-0.1,0.6C-9.4,77.9-9.2,78.6-9.2,78.6L-9.2,78.6z"/>
					</g>
					<g>
						<path fill="#978832" d="M-7.6,78.5c0,0,0.1-0.2,0.3-0.4c0.2-0.2,0.5-0.5,0.9-0.7c0.2-0.1,0.4-0.2,0.5-0.3
							c0.2-0.1,0.3-0.2,0.4-0.3c0.1-0.1,0.2-0.2,0.3-0.3c0.1-0.1,0.1-0.2,0.1-0.2l0-0.1c0,0-0.3-0.1-0.6,0c-0.2,0-0.4,0.1-0.5,0.2
							c-0.2,0.1-0.3,0.3-0.5,0.5c-0.3,0.3-0.6,0.7-0.7,1C-7.6,78.2-7.7,78.5-7.6,78.5L-7.6,78.5z"/>
					</g>
					<g>
						<path fill="#978832" d="M-22.2,67.4c0,0,0.4,0,0.9,0.3c0.5,0.3,1.1,0.8,1.6,1.4c0.3,0.3,0.5,0.6,0.7,1
							c0.2,0.3,0.4,0.6,0.7,0.8c0.2,0.2,0.4,0.4,0.5,0.5c0.1,0.1,0.2,0.2,0.2,0.2l0.1,0c0,0-0.1-0.4-0.3-1c-0.1-0.3-0.3-0.6-0.5-0.9
							c-0.1-0.2-0.3-0.3-0.4-0.5c-0.2-0.1-0.3-0.3-0.5-0.4c-0.6-0.6-1.4-1.1-2-1.2C-21.8,67.3-22.2,67.3-22.2,67.4L-22.2,67.4z"/>
					</g>
					<g>
						<path fill="#978832" d="M-21.4,70.5c0,0,0.5,0,1.1,0.3c0.6,0.2,1.5,0.6,2.2,1.1c0.4,0.3,0.7,0.6,1,0.8
							c0.3,0.3,0.6,0.5,0.9,0.7c0.1,0.1,0.3,0.2,0.4,0.3c0.1,0.1,0.2,0.2,0.3,0.2c0.2,0.1,0.3,0.2,0.3,0.2l0.1-0.1
							c0,0-0.2-0.5-0.6-1c-0.2-0.3-0.5-0.6-0.8-0.9c-0.4-0.3-0.8-0.5-1.2-0.7c-0.8-0.5-1.7-0.8-2.4-0.9
							C-20.9,70.4-21.4,70.4-21.4,70.5L-21.4,70.5z"/>
					</g>
					<g>
						<path fill="#978832" d="M-15.5,76.3c0,0,0.3,0.2,0.7,0.5c0.4,0.3,1.1,0.6,1.8,0.7c0.2,0.1,0.4,0.1,0.5,0.1c0.2,0,0.4,0,0.5,0
							c0.2-0.1,0.4-0.1,0.5-0.2c0.1-0.1,0.3-0.2,0.4-0.3c0.4-0.4,0.4-0.8,0.5-0.8l-0.1,0c0,0-0.1,0-0.2,0.1c-0.1,0-0.1,0.1-0.2,0.1
							c-0.1,0-0.2,0.1-0.3,0.1c-0.2,0.1-0.4,0.1-0.7,0.2c-0.3,0-0.5,0.1-0.9,0.1c-0.6,0-1.3-0.2-1.7-0.4
							C-15.1,76.4-15.4,76.3-15.5,76.3L-15.5,76.3z"/>
					</g>
					<g>
						<path fill="#978832" d="M-19.7,68.1c0,0,0-0.3,0.1-0.8c0.1-0.5,0.2-1.1,0.5-1.7c0.1-0.3,0.3-0.6,0.4-0.8
							c0.1-0.3,0.2-0.5,0.3-0.7c0.1-0.2,0.1-0.4,0.2-0.6c0-0.1,0-0.2,0-0.2l-0.1,0c0,0-0.3,0.2-0.7,0.5c-0.2,0.2-0.3,0.4-0.5,0.7
							c-0.1,0.3-0.2,0.6-0.3,1c-0.1,0.7-0.2,1.3-0.2,1.8C-19.8,67.8-19.7,68.1-19.7,68.1L-19.7,68.1z"/>
					</g>
				</g>
			</g>
		</g>
		<path fill="#86C423" stroke="#009444" stroke-width="0.951" stroke-miterlimit="10" d="M6.3,50.1c0,0-2.2-6.1-6.9-9.6
			c-4.7,3.5-6.9,9.6-6.9,9.6s-1.5-0.8-1.7-2.2c0,0,1.3-5.2,8.6-10.7C6.7,42.7,8,47.9,8,47.9C7.8,49.3,6.3,50.1,6.3,50.1z"/>
	</g>
</symbol>
<symbol id="New_Symbol_62" viewBox="-11.8 -26.3 23.6 52.6">
	
		<use xlink:href="#New_Symbol_38" width="10.9" height="22.8" x="-5.5" y="-11.4" transform="matrix(1 0 0 1 5.5255 14.8857)" overflow="visible"/>
	
		<use xlink:href="#New_Symbol_36" width="9.7" height="21.8" x="-4.8" y="-10.9" transform="matrix(1 0 0 1 6.9398 -4.31)" overflow="visible"/>
	<g id="XMLID_15_">
		
			<path fill="#994762" stroke="#702540" stroke-width="0.75" stroke-linecap="round" stroke-linejoin="round" stroke-miterlimit="10" d="
			M-9.2-20.9c0,0,7.4,4.8,8.3,6.4c0,0,2.6,4.4,4.5,5.3c0,0,1.5,0.7,3.8-3.3c0,0,1.2,0,1.8,0.3S11-9.9,11-9.9s0.5-1.3,0.3-2.3
			S11-15.9,11-16.8l-4.8-3.4l-5.7-2.7l-3.9-1L-9.2-20.9z"/>
		<path fill="#FFFFFF" stroke="#686163" stroke-width="0.75" stroke-miterlimit="10" d="M-11.1-21.9c0,0.1,0.1,0.3,0.2,0.4
			c0.3,0.5,1.2,1.7,3.6,1.8c2.9,0.1,5.3-2.8,5.3-2.8s6.2,1.1,8.4,3.7c0,0,2.5,1.9,4.7,2.5c0,0,0.4-0.8,0.2-1.9l-3.7-2.1
			c0,0-6.6-6.1-14-5.4c-1.9,0-3.2,0.4-4,0.8c-0.8,0.4-1.2,1.4-0.9,2.3L-11.1-21.9z"/>
		<path fill="#FFFFFF" stroke="#686163" stroke-width="0.75" stroke-miterlimit="10" d="M10.2-14.6c-0.1-0.8-0.4-1.5-0.7-1.5
			c-0.4,0-0.6,0.7-0.5,1.6c0.1,0.8,0.4,1.5,0.7,1.5C10-13.1,10.3-13.8,10.2-14.6z"/>
		<g>
			<g>
				<g>
					<g>
						
							<path fill="#CC5A83" stroke="#702540" stroke-width="0.5" stroke-linecap="round" stroke-linejoin="round" stroke-miterlimit="10" d="
							M-1.1-18.9c0-0.4-0.3-0.8-0.8-0.8c-0.5-0.1-0.9,0.2-1,0.6c0,0.4,0.3,0.8,0.8,0.8C-1.6-18.2-1.2-18.5-1.1-18.9z"/>
					</g>
				</g>
			</g>
			<g>
				<g>
					<g>
						
							<path fill="#CC5A83" stroke="#702540" stroke-width="0.5" stroke-linecap="round" stroke-linejoin="round" stroke-miterlimit="10" d="
							M1.8-16.6c0-0.4-0.3-0.8-0.8-0.8c-0.5-0.1-0.9,0.2-1,0.6c0,0.4,0.3,0.8,0.8,0.8C1.4-16,1.8-16.2,1.8-16.6z"/>
					</g>
				</g>
			</g>
			<g id="XMLID_17_">
				<g>
					<g>
						
							<path fill="#CC5A83" stroke="#702540" stroke-width="0.5" stroke-linecap="round" stroke-linejoin="round" stroke-miterlimit="10" d="
							M4.8-14.6c0-0.4-0.3-0.8-0.8-0.8s-0.9,0.2-1,0.6s0.3,0.8,0.8,0.8S4.7-14.2,4.8-14.6z"/>
					</g>
				</g>
			</g>
			<g>
				<g>
					<g>
						
							<path fill="#CC5A83" stroke="#702540" stroke-width="0.5" stroke-linecap="round" stroke-linejoin="round" stroke-miterlimit="10" d="
							M-6.1-18.4c0,0,1.7,0.6,3.9-0.8c0,0,0.7,0,0.4,0.4s-2.3,1.3-3.5,1.1C-5.3-17.6-6.3-17.7-6.1-18.4z"/>
					</g>
				</g>
			</g>
			<g>
				<g>
					<g>
						
							<path fill="#CC5A83" stroke="#702540" stroke-width="0.5" stroke-linecap="round" stroke-linejoin="round" stroke-miterlimit="10" d="
							M-3.2-16.1c0,0,1.7,0.6,3.9-0.8c0,0,0.7,0,0.4,0.4s-2.3,1.3-3.5,1.1C-2.4-15.4-3.4-15.4-3.2-16.1z"/>
					</g>
				</g>
			</g>
			<g>
				<g>
					<g>
						
							<path fill="#CC5A83" stroke="#702540" stroke-width="0.5" stroke-linecap="round" stroke-linejoin="round" stroke-miterlimit="10" d="
							M-1.7-14.5c0,0,1.2,0.3,2.6-1.8c0,0,0.4-0.2,0.3,0.4s-1.3,1.9-2.2,2C-1.1-13.9-1.8-13.7-1.7-14.5z"/>
					</g>
				</g>
			</g>
			<g>
				<g>
					<g>
						
							<path fill="#CC5A83" stroke="#702540" stroke-width="0.5" stroke-linecap="round" stroke-linejoin="round" stroke-miterlimit="10" d="
							M0.5-12.3c0,0,1.4,0.3,2.8-1.9c0,0,0.5-0.2,0.4,0.4c-0.1,0.6-1.5,2.1-2.4,2.2C1.3-11.7,0.5-11.5,0.5-12.3z"/>
					</g>
				</g>
			</g>
			<g>
				<g>
					<g>
						
							<path fill="#CC5A83" stroke="#702540" stroke-width="0.5" stroke-linecap="round" stroke-linejoin="round" stroke-miterlimit="10" d="
							M-4.1-16.9c0,0,1.3,0.3,2.2-1.8c0,0,0.4-0.2,0.4,0.4c0,0.6-1,1.9-1.8,2C-3.3-16.3-4-16.2-4.1-16.9z"/>
					</g>
				</g>
			</g>
			<g id="XMLID_16_">
				<g>
					<g>
						
							<path fill="#CC5A83" stroke="#702540" stroke-width="0.5" stroke-linecap="round" stroke-linejoin="round" stroke-miterlimit="10" d="
							M-1.2-14c0,0,2,0.7,4.7-0.8c0,0,0.8,0,0.5,0.5S1.2-13-0.2-13.2C-0.2-13.2-1.4-13.2-1.2-14z"/>
					</g>
				</g>
			</g>
		</g>
	</g>
</symbol>
<symbol id="New_Symbol_63" viewBox="-26.1 -86.1 52.1 172.1">
	<g id="New_Symbol_48_2_">
		<g id="New_Symbol_25_6_">
			<g>
				<path fill="#906445" stroke="#3B2416" stroke-miterlimit="10" d="M17.5-14c-0.2,3,2.1,6.7,2.1,6.7c1,8.4-0.9,14-2.9,21.1
					c-0.9,3.3-0.4,8.1-0.4,8.1l5.6,0.4c1.3-7.4,1.7-11,1.7-12.6c0-1.1,0.1-2.1,0.3-3.2c1.7-11.3,1.6-15.9,1.6-15.9
					c0.5-6.6-3.1-12.8-6.4-14.2c-0.7-0.3-1.4,0.3-1.3,1c0.7,3.4,3.6,5.8,3.5,11.8c0,0-1.4-2.3-1.8-3.3C18.9-15.8,17.5-15.1,17.5-14z
					"/>
			</g>
		</g>
		<g id="New_Symbol_25_5_">
			<g>
				<path fill="#906445" stroke="#3B2416" stroke-miterlimit="10" d="M-17.5-14c0.2,3-2.1,6.7-2.1,6.7c-1,8.4,0.9,14,2.9,21.1
					c0.9,3.3,0.4,8.1,0.4,8.1l-5.6,0.4c-1.3-7.4-1.7-11-1.7-12.6c0-1.1-0.1-2.1-0.3-3.2c-1.7-11.3-1.6-15.9-1.6-15.9
					c-0.5-6.6,3.1-12.8,6.4-14.2c0.7-0.3,1.4,0.3,1.3,1c-0.7,3.4-3.6,5.8-3.5,11.8c0,0,1.4-2.3,1.8-3.3
					C-18.9-15.8-17.5-15.1-17.5-14z"/>
			</g>
		</g>
		
			<use xlink:href="#New_Symbol_62" width="23.6" height="52.6" x="-11.8" y="-26.3" transform="matrix(1 0 0 1 -11.5939 -59.7948)" overflow="visible"/>
		
			<use xlink:href="#New_Symbol_62" width="23.6" height="52.6" id="XMLID_11_" x="-11.8" y="-26.3" transform="matrix(-1 4.489659e-11 4.489659e-11 1 11.149 -59.7948)" overflow="visible"/>
		<g>
			<g>
				<path fill="#8A7349" stroke="#5E4E35" stroke-width="0.951" stroke-miterlimit="10" d="M13.5-10.3c0,0,2.5-2.4,3.3-9.2
					c0,0-0.1-1.4-1.1-2.5c0,0,1.2-11.6-3.2-11.1L13.5-10.3z"/>
				<path fill="#8A7349" stroke="#5E4E35" stroke-width="0.951" stroke-miterlimit="10" d="M13.3-15.9c0,0,1.3-1.2,2.4-6.1"/>
			</g>
			<g>
				<path fill="#8A7349" stroke="#5E4E35" stroke-width="0.951" stroke-miterlimit="10" d="M-13.3-10.3c0,0-2.5-2.4-3.2-9.2
					c0,0,0.1-1.4,1.1-2.5c0,0-1.2-11.6,3.2-11.1L-13.3-10.3z"/>
				<path fill="#8A7349" stroke="#5E4E35" stroke-width="0.951" stroke-miterlimit="10" d="M-13.1-15.9c0,0-1.3-1.2-2.4-6.1"/>
			</g>
			<path fill="#8A7349" stroke="#5E4E35" stroke-width="0.951" stroke-miterlimit="10" d="M12.7,2.4H0.5h-0.7h-12.2
				c0,0-2.3-5.5-2.3-8.3c0,0,0.2-3.6,0.7-5.7c0,0,0-17.8,1.7-24.4c0,0,5.3-2.5,11.3-0.7c0,0-0.1,9.9,1.3,14.5
				c1.3-4.6,1.3-14.5,1.3-14.5c6-1.8,11.3,0.7,11.3,0.7c1.7,6.7,1.7,24.4,1.7,24.4C14.9-9.5,15-5.9,15-5.9C15-3.1,12.7,2.4,12.7,2.4
				z"/>
		</g>
		<polygon fill="#906445" stroke="#3B2416" stroke-miterlimit="10" points="-1.6,57.6 -1.6,57.6 -1.6,57.6 -1.7,57.6 -1.7,57.6 
			-8.9,56.6 -7.7,42.2 -5.4,39.6 -2.5,37.8 -1.6,37.5 -1.6,37.5 -1.6,37.5 -1.6,37.5 -1.6,37.5 -0.7,37.8 2.1,39.6 4.5,42.2 
			5.7,56.6 		"/>
		<g>
			<path fill="#F89838" stroke="#CD6632" stroke-linecap="round" stroke-linejoin="round" stroke-miterlimit="10" d="M-1.6,43.1
				c-3.5,0-6.4,1.5-7.1,3.6c0,0.1-0.2,0.1-0.2,0v-48c0-0.2,0-0.3,0-0.3l1.3-0.2c3.9-0.8,8-0.8,11.9,0l1.3,0.2c0,0,0,0.1,0,0.3v48
				c0,0.1-0.1,0.1-0.2,0C4.7,44.6,1.9,43.1-1.6,43.1z"/>
			<path fill="none" stroke="#CD6632" stroke-linecap="round" stroke-linejoin="round" stroke-miterlimit="10" d="M5.6,45.4
				c0-2.5-3.2-4.5-7.2-4.5s-7.2,2-7.2,4.5"/>
			<path fill="#F89838" stroke="#CD6632" stroke-linecap="round" stroke-linejoin="round" stroke-miterlimit="10" d="M-8.8,1
				c0-0.2,0-0.3,0-0.3l1.3-0.2c3.9-0.8,8-0.8,11.9,0l1.3,0.2c0,0,0,0.1,0,0.3"/>
		</g>
		<g>
			
				<use xlink:href="#New_Symbol_45" width="10.7" height="9.7" x="-5.4" y="-4.9" transform="matrix(1 0 0 1 -17.8518 56.0999)" overflow="visible"/>
			
				<use xlink:href="#New_Symbol_45" width="10.7" height="9.7" id="XMLID_10_" x="-5.4" y="-4.9" transform="matrix(-1 4.489700e-11 4.489700e-11 1 14.0232 56.0999)" overflow="visible"/>
		</g>
		<path fill="#906445" stroke="#3B2416" stroke-miterlimit="10" d="M15,63c0,0,1.2,3.1,3.6,3c1,0,1.8-0.9,2.1-1.9
			c0.4-2,0-5.8-7.4-7.9L15,63z"/>
		<path fill="#906445" stroke="#3B2416" stroke-miterlimit="10" d="M-18,63c0,0-1.2,3.1-3.6,3c-1,0-1.8-0.9-2.1-1.9
			c-0.4-2,0-5.8,7.4-7.9L-18,63z"/>
		<path fill="#906445" stroke="#3B2416" stroke-miterlimit="10" d="M16,62.8C16,56.3,8.1,51-1.6,51s-17.6,5.3-17.6,11.9
			s7.9,11.9,17.6,11.9S16,69.4,16,62.8z"/>
		<g id="New_Symbol_3_5_">
			<path fill="#231F20" d="M-5.5,64.9c0-1.3-0.4-2.4-1-2.4s-1,1.1-1,2.4c0,1.3,0.4,2.4,1,2.4S-5.5,66.2-5.5,64.9z"/>
			<path fill="none" stroke="#3B2416" stroke-linecap="round" stroke-linejoin="round" stroke-miterlimit="10" d="M-8.4,69
				c0,0,0.6,1.6,2.5,2"/>
		</g>
		<g id="New_Symbol_3_4_">
			<path fill="#231F20" d="M2.5,64.9c0-1.3,0.4-2.4,1-2.4s1,1.1,1,2.4c0,1.3-0.4,2.4-1,2.4S2.5,66.2,2.5,64.9z"/>
			<path fill="none" stroke="#3B2416" stroke-linecap="round" stroke-linejoin="round" stroke-miterlimit="10" d="M5.4,69
				c0,0-0.6,1.6-2.5,2"/>
		</g>
		<path fill="none" stroke="#3B2416" stroke-linecap="round" stroke-linejoin="round" stroke-miterlimit="10" d="M5.9,57
			c0,0-1-2.9-7.5-2.9C-8.1,54-9.1,57-9.1,57"/>
		<path fill="none" stroke="#3B2416" stroke-linecap="round" stroke-linejoin="round" stroke-miterlimit="10" d="M0.5,61.8
			c0,0,1-0.5,1-1.8c0-1.4-1.6-1.7-3.1-1.7c-1.5,0-3.1,0.3-3.1,1.7c0,1.4,1,1.8,1,1.8"/>
		<path fill="#271D14" stroke="#59351B" stroke-miterlimit="10" d="M18.9,65.9c0.4,0,0.7-0.1,1-0.3c0.6,2.1-1,3.3-1,3.3
			c1.8,4.3-1.1,5.4-1.1,5.4c0,3.4-3.2,3.4-3.2,3.4s-0.1,2.3-1.8,3.3c-1.4,0.8-2.8-0.1-2.8-0.1c-0.1,2-0.7,3-2.1,3
			c-1.2,0-1.3-1.4-1.3-1.4s-0.1,1.8-2.1,2c-1.6,0.1-2.3-1.1-2.3-1.1s-0.8,2.3-3.9,2.2c-3.3,0-4.5-2.9-4.5-2.9
			c-3.5,2.4-5.6-2.1-5.6-2.1s-3.5,1.7-5.3,0.4c-1.8-1.2-1-3.8-1-3.8s-1.8,0.4-2.8-0.6c-1.1-1-0.5-2.4-0.5-2.4s-2,0.5-3.2-1.1
			c-1.5-2.8,0.7-4.9,0.7-4.9c-2.4-1.8-0.7-4.1,0.3-5.1c0,0.3,0,0.6,0.1,0.9c0.2,1,1.1,1.8,2.1,1.8c1.1,0,2-0.6,2.6-1.3
			c0.3,0.7,0.9,1.5,1.6,2.2c1.2,1.1,1.6,2.3,1.7,3.1c0.1,0.5,0.4,0.9,0.9,1.1c3.1,1.2,14.1,4.7,25.4,0.5c0.5-0.2,0.8-0.6,0.9-1.2
			c0.1-0.8,0.5-2.2,1.7-3.3c1.2-1.2,2.1-2.5,2.5-3.3C16.3,64.6,17.3,65.9,18.9,65.9z"/>
		<g>
			
				<use xlink:href="#New_Symbol_46" width="4.2" height="7.8" x="-2.1" y="-3.9" transform="matrix(1 0 0 0.9249 -20.8753 69.2404)" overflow="visible"/>
			
				<use xlink:href="#New_Symbol_46" width="4.2" height="7.8" id="XMLID_8_" x="-2.1" y="-3.9" transform="matrix(-1 0 0 0.9249 15.458 69.2404)" overflow="visible"/>
		</g>
		<g>
			<g>
				<path fill="#6B7473" stroke="#414C4A" stroke-width="0.951" stroke-miterlimit="10" d="M4.7,43.2c0,0-0.9-8.1,0-14
					S5.6-2.9,5.6-2.9s2.1-0.2,4.8,1.4s4.3,3.3,4.3,3.3s-0.8,10.7-1.3,14.1s-2.6,12.5-2.8,16.4c0,0,2.6-6.9,3.2-9.6
					c0,0,6.2,0.5,7.5,2.1c0,0,0,2.3-1.5,6.7c-1.4,4.3-1.9,5.4-1.9,5.4s-0.1,1.2-0.4,3c-0.3,1.8-3,2.8-3,2.8s-4.4,3.9-8.1,4.6
					L4.7,43.2z"/>
				<path fill="#6B7473" stroke="#414C4A" stroke-width="0.951" stroke-miterlimit="10" d="M6.7,31.8c0.9,0,3.5-0.1,5.1,0.5
					c0.2,0.1,0.4-0.1,0.4-0.3l0-5.3c0,0,0.3-4.1-2.3-4.1S7,25.1,7,25.1l-0.6,6.4C6.5,31.7,6.6,31.8,6.7,31.8z"/>
				<path fill="#6B7473" stroke="#414C4A" stroke-width="0.951" stroke-miterlimit="10" d="M4.3,39.2c0,0-1,2.5,0,4.7
					c0,0,0.6,1.5,0.7,5.7c0,0.2,0.2,0.3,0.4,0.2c0.8-0.4,2.9-1.5,3.6-3.3c0,0,1-3.5,0.8-6c0,0-0.7-0.2-1.7,0.5
					c-1,0.7-1.7,1.4-2.6,1.4c0,0-0.3-0.8-0.3-2.6C5.2,39.6,5.1,39.5,4.3,39.2z"/>
				<path fill="#6B7473" stroke="#414C4A" stroke-width="0.951" stroke-miterlimit="10" d="M12.8,24.3c0,0,0.6-4.4,1.4-6.1
					c0,0,4.2-0.9,8.4,1.9c0,0,0.2,3.2-0.3,6.4c-0.1,0.3-0.4,0.5-0.6,0.4L12.8,24.3z"/>
			</g>
			<g>
				<path fill="#6B7473" stroke="#414C4A" stroke-width="0.951" stroke-miterlimit="10" d="M-7.6,43.3c0,0,1.5-8,1.1-14
					S-5-2.8-5-2.8S-7-3.2-9.9-1.7s-4.6,2.9-4.6,2.9s0,10.7,0.2,14.1s1.6,12.6,1.6,16.6c0,0-2-7.1-2.4-9.8c0,0-6.3,0-7.7,1.5
					c0,0-0.1,2.3,0.9,6.8s1.5,5.5,1.5,5.5s0.1,1.2,0.2,3.1c0.1,1.8,2.7,3,2.7,3s4.1,4.3,7.7,5.2L-7.6,43.3z"/>
				<path fill="#6B7473" stroke="#414C4A" stroke-width="0.951" stroke-miterlimit="10" d="M-6.9,39.3c0,0,0.8,2.6-0.4,4.7
					c0,0-0.7,1.4-1.2,5.6c0,0.2-0.2,0.3-0.4,0.2c-0.8-0.5-2.8-1.8-3.3-3.5c0,0-0.7-3.6-0.4-6c0,0,0.7-0.1,1.6,0.6
					c0.9,0.7,1.6,1.5,2.5,1.6c0,0,0.3-0.8,0.5-2.6C-7.8,39.6-7.7,39.6-6.9,39.3z"/>
				<path fill="#6B7473" stroke="#414C4A" stroke-width="0.951" stroke-miterlimit="10" d="M-14.2,23.8c0,0-0.3-4.5-0.9-6.2
					c0,0-4.2-1.2-8.6,1.3c0,0-0.5,3.2-0.2,6.4c0,0.3,0.3,0.5,0.6,0.4L-14.2,23.8z"/>
			</g>
		</g>
	</g>
</symbol>
<g>
	
		<use xlink:href="#New_Symbol_61" width="52.4" height="168.4" id="XMLID_9_" x="-26.2" y="-84.2" transform="matrix(2.3075 0 0 -2.3075 117.6444 254.6715)" overflow="visible"/>
	
		<use xlink:href="#New_Symbol_31" width="56.2" height="177.9" id="XMLID_34_" x="-28.1" y="-88.9" transform="matrix(2.2056 0 0 -2.2056 380.8237 254.381)" overflow="visible"/>
	
		<use xlink:href="#New_Symbol_63" width="52.1" height="172.1" id="XMLID_4_" x="-26.1" y="-86.1" transform="matrix(2.3075 0 0 -2.3075 252.6583 248.241)" overflow="visible"/>
</g>
</svg>
