<?xml version="1.0" encoding="utf-8"?>
<!-- Generator: Adobe Illustrator 18.1.1, SVG Export Plug-In . SVG Version: 6.00 Build 0)  -->
<svg version="1.1" id="Layer_1" xmlns="http://www.w3.org/2000/svg" xmlns:xlink="http://www.w3.org/1999/xlink" x="0px" y="0px"
	 width="500px" height="500px" viewBox="0 0 500 500" enable-background="new 0 0 500 500" xml:space="preserve">
<g>
	<g>
		<g>
			<g>
				<g>
					<defs>
						<path id="SVGID_1_" d="M245.069,359.474c-3.545-5.262-8.699-9.437-14.613-11.737l-9.982,1.588l-9.982-1.588
							c-5.914,2.299-11.068,6.475-14.613,11.737c-1.212,1.799-1.196,4.224-0.061,6.072c2.16,3.513,4.755,6.758,7.715,9.629
							c0.969,0.941,1.978,1.842,3.024,2.699c5.988-0.026,11.435-0.034,13.916-0.036c2.481,0.002,7.928,0.009,13.916,0.036
							c1.046-0.857,2.055-1.758,3.024-2.699c2.96-2.871,5.555-6.116,7.715-9.629C246.266,363.698,246.281,361.273,245.069,359.474z"
							/>
					</defs>
					<use xlink:href="#SVGID_1_"  overflow="visible" fill="#707B8D"/>
					<clipPath id="SVGID_2_">
						<use xlink:href="#SVGID_1_"  overflow="visible"/>
					</clipPath>
					
						<line clip-path="url(#SVGID_2_)" fill="#707B8D" stroke="#3E4856" stroke-width="3.5" stroke-miterlimit="10" x1="185.283" y1="362.806" x2="251.089" y2="362.806"/>
					<use xlink:href="#SVGID_1_"  overflow="visible" fill="none" stroke="#3E4856" stroke-width="3.5" stroke-miterlimit="10"/>
				</g>
				<g>
					<defs>
						<path id="SVGID_3_" d="M222.53,349.721c4.896,0.001,9.792,0.008,14.688,0.023c3.136-2.733,5.476-6.394,6.57-10.406
							c-8.307-12.153-16.579-24.329-24.847-36.508c-7.275,2.636-13.791,7.278-18.763,13.2c-2.52,3.001-3.367,7.035-2.631,10.885
							c1.552,8.12,4.724,15.934,9.293,22.822C212.07,349.727,217.3,349.72,222.53,349.721z"/>
					</defs>
					<use xlink:href="#SVGID_3_"  overflow="visible" fill="#707B8D"/>
					<clipPath id="SVGID_4_">
						<use xlink:href="#SVGID_3_"  overflow="visible"/>
					</clipPath>
					<path clip-path="url(#SVGID_4_)" fill="#707B8D" stroke="#3E4856" stroke-width="3.5" stroke-miterlimit="10" d="
						M190.787,315.008c16.899,15.988,37.173,28.392,59.101,36.16"/>
					<use xlink:href="#SVGID_3_"  overflow="visible" fill="none" stroke="#3E4856" stroke-width="3.5" stroke-miterlimit="10"/>
				</g>
				<path fill="#707B8D" stroke="#3E4856" stroke-width="3.5" stroke-miterlimit="10" d="M238.178,392.662
					c-0.351-3.839-0.712-7.724-1.999-11.357c-0.637-1.798-1.529-3.542-2.683-5.059c-3.511,0-7.023,0-10.534,0
					c-1.659,0-3.316,0-4.975,0c-3.511,0-7.023,0-10.534,0c-1.154,1.517-2.046,3.261-2.683,5.059
					c-1.287,3.633-1.648,7.518-1.999,11.357c-0.697,7.618-1.395,15.237-2.091,22.856c0.698,0,1.396,0,2.095,0
					c5.071,0,10.141,0,15.211,0c1.659,0,3.316,0,4.975,0h8.776c4.58,0,8.171-3.934,7.754-8.495
					C239.054,402.235,238.616,397.449,238.178,392.662z"/>
				<g>
					<defs>
						<path id="SVGID_5_" d="M234.981,405.737c1.887,6.457,2.878,13.202,3.652,19.949c0.157,1.369-0.923,2.57-2.301,2.57
							c-14.342-0.001-28.683-0.001-43.025-0.001c-1.454,0-2.599-1.342-2.306-2.766c2.492-12.106,8.55-23.465,17.253-32.242
							c3.511-3.541,8.102-6.868,13.031-6.109c5.048,0.777,8.455,5.538,10.586,10.18C233.125,400.05,234.142,402.865,234.981,405.737
							z"/>
					</defs>
					<use xlink:href="#SVGID_5_"  overflow="visible" fill="#ECC58D"/>
					<clipPath id="SVGID_6_">
						<use xlink:href="#SVGID_5_"  overflow="visible"/>
					</clipPath>
					
						<line clip-path="url(#SVGID_6_)" fill="#ECC58D" stroke="#86673A" stroke-width="3.5" stroke-miterlimit="10" x1="182.927" y1="415.517" x2="249.497" y2="415.517"/>
					<use xlink:href="#SVGID_5_"  overflow="visible" fill="none" stroke="#86673A" stroke-width="3.5" stroke-miterlimit="10"/>
				</g>
			</g>
			<g>
				<g>
					<defs>
						<path id="SVGID_7_" d="M254.931,359.474c3.545-5.262,8.699-9.437,14.613-11.737l9.982,1.588l9.982-1.588
							c5.914,2.299,11.068,6.475,14.613,11.737c1.212,1.799,1.196,4.224,0.061,6.072c-2.16,3.513-4.755,6.758-7.715,9.629
							c-0.969,0.941-1.978,1.842-3.024,2.699c-5.988-0.026-11.435-0.034-13.916-0.036c-2.481,0.002-7.928,0.009-13.916,0.036
							c-1.046-0.857-2.055-1.758-3.024-2.699c-2.96-2.871-5.555-6.116-7.715-9.629C253.734,363.698,253.719,361.273,254.931,359.474
							z"/>
					</defs>
					<use xlink:href="#SVGID_7_"  overflow="visible" fill="#707B8D"/>
					<clipPath id="SVGID_8_">
						<use xlink:href="#SVGID_7_"  overflow="visible"/>
					</clipPath>
					
						<line clip-path="url(#SVGID_8_)" fill="#707B8D" stroke="#3E4856" stroke-width="3.5" stroke-miterlimit="10" x1="314.717" y1="362.806" x2="248.911" y2="362.806"/>
					<use xlink:href="#SVGID_7_"  overflow="visible" fill="none" stroke="#3E4856" stroke-width="3.5" stroke-miterlimit="10"/>
				</g>
				<g>
					<defs>
						<path id="SVGID_9_" d="M277.47,349.721c-4.896,0.001-9.792,0.008-14.688,0.023c-3.136-2.733-5.476-6.394-6.57-10.406
							c8.307-12.153,16.579-24.329,24.847-36.508c7.275,2.636,13.791,7.278,18.763,13.2c2.52,3.001,3.367,7.035,2.631,10.885
							c-1.552,8.12-4.724,15.934-9.293,22.822C287.93,349.727,282.7,349.72,277.47,349.721z"/>
					</defs>
					<use xlink:href="#SVGID_9_"  overflow="visible" fill="#707B8D"/>
					<clipPath id="SVGID_10_">
						<use xlink:href="#SVGID_9_"  overflow="visible"/>
					</clipPath>
					<path clip-path="url(#SVGID_10_)" fill="#707B8D" stroke="#3E4856" stroke-width="3.5" stroke-miterlimit="10" d="
						M309.213,315.008c-16.899,15.988-37.173,28.392-59.101,36.16"/>
					<use xlink:href="#SVGID_9_"  overflow="visible" fill="none" stroke="#3E4856" stroke-width="3.5" stroke-miterlimit="10"/>
				</g>
				<path fill="#707B8D" stroke="#3E4856" stroke-width="3.5" stroke-miterlimit="10" d="M261.822,392.662
					c0.351-3.839,0.712-7.724,1.999-11.357c0.637-1.798,1.529-3.542,2.683-5.059c3.511,0,7.023,0,10.534,0c1.659,0,3.316,0,4.975,0
					c3.511,0,7.023,0,10.534,0c1.154,1.517,2.046,3.261,2.683,5.059c1.287,3.633,1.648,7.518,1.999,11.357
					c0.697,7.618,1.395,15.237,2.091,22.856c-0.698,0-1.396,0-2.095,0c-5.071,0-10.141,0-15.211,0c-1.659,0-3.316,0-4.975,0h-8.776
					c-4.58,0-8.171-3.934-7.754-8.495C260.946,402.235,261.384,397.449,261.822,392.662z"/>
				<g>
					<defs>
						<path id="SVGID_11_" d="M265.019,405.737c-1.887,6.457-2.878,13.202-3.652,19.949c-0.157,1.369,0.923,2.57,2.301,2.57
							c14.342-0.001,28.683-0.001,43.025-0.001c1.454,0,2.599-1.342,2.306-2.766c-2.492-12.106-8.55-23.465-17.253-32.242
							c-3.511-3.541-8.102-6.868-13.031-6.109c-5.048,0.777-8.455,5.538-10.586,10.18
							C266.875,400.05,265.858,402.865,265.019,405.737z"/>
					</defs>
					<use xlink:href="#SVGID_11_"  overflow="visible" fill="#ECC58D"/>
					<clipPath id="SVGID_12_">
						<use xlink:href="#SVGID_11_"  overflow="visible"/>
					</clipPath>
					
						<line clip-path="url(#SVGID_12_)" fill="#ECC58D" stroke="#86673A" stroke-width="3.5" stroke-miterlimit="10" x1="317.073" y1="415.517" x2="250.503" y2="415.517"/>
					<use xlink:href="#SVGID_11_"  overflow="visible" fill="none" stroke="#86673A" stroke-width="3.5" stroke-miterlimit="10"/>
				</g>
			</g>
		</g>
		<path fill="#3B4549" stroke="#76878B" stroke-width="3.5" stroke-miterlimit="10" d="M276.634,286.028h-24.08h-5.109h-24.079
			c-15.391,5.307-10.349,19.105-10.349,19.105l25.816,35.897c1.284,1.785,3.349,2.844,5.548,2.844h3.063h5.109h3.064
			c2.198,0,4.263-1.058,5.547-2.844l25.817-35.897C286.983,305.133,292.023,291.335,276.634,286.028z"/>
	</g>
	<path fill="#ECC58D" stroke="#86673A" stroke-width="3.5" stroke-miterlimit="10" d="M258.531,277.271h-17.062h-34.758v8.343
		c0,5.064,4.53,9.17,10.118,9.17h24.64h17.062h24.64c5.588,0,10.117-4.106,10.117-9.17v-8.343H258.531z"/>
	<g>
		<g>
			<g>
				<g>
					<defs>
						<path id="SVGID_13_" d="M127.339,319.427c-0.602,0.351-1.197,0.715-1.785,1.09c-7.674-19.849-10.603-42.253-3.815-62.411
							c6.707-19.919,24.266-36.863,45.09-39.108c-1.109,8.82-1.201,17.763-0.319,26.609c-7.992,2.081-14.503,8.535-18.129,16.031
							c-3.927,8.118-4.909,17.344-4.988,26.361c-0.076,8.707,0.713,17.704,4.915,25.347c-1.972-0.488-4.145-0.177-6.165,0.272
							C136.948,314.774,131.936,316.745,127.339,319.427z"/>
					</defs>
					<use xlink:href="#SVGID_13_"  overflow="visible" fill="#B4B8C7"/>
					<clipPath id="SVGID_14_">
						<use xlink:href="#SVGID_13_"  overflow="visible"/>
					</clipPath>
					<g clip-path="url(#SVGID_14_)">
						<path fill="#B4B8C7" stroke="#4E5668" stroke-width="3.5" stroke-miterlimit="10" d="M140.048,225.618
							c3.697,10.212,9.862,19.521,17.822,26.909"/>
						<path fill="#B4B8C7" stroke="#4E5668" stroke-width="3.5" stroke-miterlimit="10" d="M120.982,246.387
							c6.978,9.005,16.88,15.707,27.834,18.839"/>
						<path fill="#B4B8C7" stroke="#4E5668" stroke-width="3.5" stroke-miterlimit="10" d="M114.881,274.799
							c8.785,6.254,20.176,8.717,30.759,6.651"/>
						<path fill="#B4B8C7" stroke="#4E5668" stroke-width="3.5" stroke-miterlimit="10" d="M113.774,297.144
							c10.556,5.135,23.663,4.63,33.793-1.302"/>
					</g>
					<use xlink:href="#SVGID_13_"  overflow="visible" fill="none" stroke="#4E5668" stroke-width="3.5" stroke-miterlimit="10"/>
				</g>
				
					<path fill="#89878D" stroke="#413F42" stroke-width="3.5" stroke-linecap="round" stroke-linejoin="round" stroke-miterlimit="10" d="
					M141.768,355.847l2.958-11.038c-2.041-0.492-3.985-1.495-5.578-3.088c-4.608-4.608-4.607-12.078,0.001-16.686
					c4.607-4.607,12.077-4.607,16.685,0c1.593,1.593,2.596,3.536,3.088,5.577l11.038-2.957l0.113,0.113
					c-0.986-3.987-2.954-7.785-6.07-10.901c-9.119-9.119-23.904-9.119-33.022-0.001c-9.119,9.119-9.119,23.904,0,33.023
					c3.117,3.117,6.914,5.085,10.902,6.071L141.768,355.847z"/>
			</g>
			<path fill="#ECC58D" stroke="#86673A" stroke-width="3.5" stroke-miterlimit="10" d="M184.64,202.602v69.097h-0.064
				c-14.902,0-27.065-12.1-27.065-27.065v-14.966c0-14.965,12.164-27.065,27.065-27.065H184.64z"/>
		</g>
		<g>
			<g>
				<g>
					<defs>
						<path id="SVGID_15_" d="M372.661,319.427c0.602,0.351,1.197,0.715,1.785,1.09c7.674-19.849,10.603-42.253,3.815-62.411
							c-6.707-19.919-24.266-36.863-45.09-39.108c1.109,8.82,1.201,17.763,0.319,26.609c7.992,2.081,14.503,8.535,18.129,16.031
							c3.927,8.118,4.909,17.344,4.988,26.361c0.076,8.707-0.713,17.704-4.915,25.347c1.972-0.488,4.145-0.177,6.165,0.272
							C363.052,314.774,368.064,316.745,372.661,319.427z"/>
					</defs>
					<use xlink:href="#SVGID_15_"  overflow="visible" fill="#B4B8C7"/>
					<clipPath id="SVGID_16_">
						<use xlink:href="#SVGID_15_"  overflow="visible"/>
					</clipPath>
					<g clip-path="url(#SVGID_16_)">
						<path fill="#B4B8C7" stroke="#4E5668" stroke-width="3.5" stroke-miterlimit="10" d="M359.952,225.618
							c-3.697,10.212-9.862,19.521-17.822,26.909"/>
						<path fill="#B4B8C7" stroke="#4E5668" stroke-width="3.5" stroke-miterlimit="10" d="M379.018,246.387
							c-6.978,9.005-16.88,15.707-27.834,18.839"/>
						<path fill="#B4B8C7" stroke="#4E5668" stroke-width="3.5" stroke-miterlimit="10" d="M385.119,274.799
							c-8.785,6.254-20.176,8.717-30.759,6.651"/>
						<path fill="#B4B8C7" stroke="#4E5668" stroke-width="3.5" stroke-miterlimit="10" d="M386.226,297.144
							c-10.556,5.135-23.663,4.63-33.793-1.302"/>
					</g>
					<use xlink:href="#SVGID_15_"  overflow="visible" fill="none" stroke="#4E5668" stroke-width="3.5" stroke-miterlimit="10"/>
				</g>
				
					<path fill="#89878D" stroke="#413F42" stroke-width="3.5" stroke-linecap="round" stroke-linejoin="round" stroke-miterlimit="10" d="
					M358.232,355.847l-2.958-11.038c2.041-0.492,3.985-1.495,5.578-3.088c4.608-4.608,4.607-12.078-0.001-16.686
					c-4.607-4.607-12.077-4.607-16.685,0c-1.593,1.593-2.596,3.536-3.088,5.577l-11.038-2.957l-0.113,0.113
					c0.986-3.987,2.954-7.785,6.07-10.901c9.119-9.119,23.904-9.119,33.022-0.001c9.119,9.119,9.119,23.904,0,33.023
					c-3.117,3.117-6.914,5.085-10.902,6.071L358.232,355.847z"/>
			</g>
			<path fill="#ECC58D" stroke="#86673A" stroke-width="3.5" stroke-miterlimit="10" d="M315.36,202.602v69.097h0.064
				c14.902,0,27.065-12.1,27.065-27.065v-14.966c0-14.965-12.164-27.065-27.065-27.065H315.36z"/>
		</g>
	</g>
	<path fill="#3B4549" stroke="#76878B" stroke-width="3.5" stroke-miterlimit="10" d="M305.552,183.338h-47.82h-15.464h-47.82
		c-9.893,0-17.913,8.02-17.913,17.913v63.941c0,9.893,8.02,17.913,17.913,17.913h47.82h15.464h47.82
		c9.893,0,17.913-8.02,17.913-17.913v-63.941C323.465,191.358,315.445,183.338,305.552,183.338z"/>
	<g>
		<path fill="#ECC58D" stroke="#86673A" stroke-width="3.5" stroke-miterlimit="10" d="M277.879,211.2h-19.041h-17.676H222.12
			c-9.031,0-16.352,7.321-16.352,16.352v6.037c0,9.031,7.321,16.352,16.352,16.352h19.041h17.676h19.041
			c9.032,0,16.352-7.321,16.352-16.352v-6.037C294.231,218.521,286.911,211.2,277.879,211.2z"/>
		<g>
			<circle fill="#8BC53F" stroke="#60893C" stroke-width="3.5" stroke-miterlimit="10" cx="221.624" cy="227.651" r="5.838"/>
			<circle fill="#ED3149" stroke="#A31D29" stroke-width="3.5" stroke-miterlimit="10" cx="250" cy="227.651" r="5.838"/>
			<circle fill="#F8E511" stroke="#B3A032" stroke-width="3.5" stroke-miterlimit="10" cx="278.376" cy="227.651" r="5.838"/>
		</g>
	</g>
	<g>
		<defs>
			<path id="SVGID_17_" d="M311.861,184.629c0,0-34.381,4.776-61.861,3.821c-27.48,0.955-61.861-3.821-61.861-3.821
				s-4.034-84.713,51.515-110.6c6.534-3.045,14.157-3.045,20.692,0C315.895,99.916,311.861,184.629,311.861,184.629z"/>
		</defs>
		<use xlink:href="#SVGID_17_"  overflow="visible" fill="#BBDDD1"/>
		<clipPath id="SVGID_18_">
			<use xlink:href="#SVGID_17_"  overflow="visible"/>
		</clipPath>
		
			<rect x="243.385" y="170.602" clip-path="url(#SVGID_18_)" fill="#ECC58D" stroke="#86673A" stroke-width="3.5" stroke-miterlimit="10" width="12.582" height="21.493"/>
		<g clip-path="url(#SVGID_18_)">
			<g>
				<circle fill="#D0D2D3" stroke="#808184" stroke-width="3.5" stroke-miterlimit="10" cx="284.96" cy="140.787" r="13.11"/>
				<circle fill="#D0D2D3" stroke="#808184" stroke-width="3.5" stroke-miterlimit="10" cx="284.96" cy="140.787" r="6.364"/>
			</g>
			<g>
				<circle fill="#D0D2D3" stroke="#808184" stroke-width="3.5" stroke-miterlimit="10" cx="214.393" cy="140.787" r="13.11"/>
				<circle fill="#D0D2D3" stroke="#808184" stroke-width="3.5" stroke-miterlimit="10" cx="214.393" cy="140.787" r="6.364"/>
			</g>
		</g>
		<g clip-path="url(#SVGID_18_)">
			<g>
				<path fill="#FAAF40" stroke="#B1722A" stroke-width="3.5" stroke-miterlimit="10" d="M251.114,104.197l-0.017-4.179
					l-11.742,0.046c0,0-2.879-0.095-2.981-0.646c-0.819-4.414-2.807-3.71-2.807-3.71l0.019,4.742h-0.002v8.557
					c0,0,1.99,0.697,2.792-3.721c0.1-0.551,2.979-0.657,2.979-0.657h11.742v-0.433H251.114z"/>
				<path fill="#FAAF40" stroke="#B1722A" stroke-width="3.5" stroke-miterlimit="10" d="M248.239,104.197l0.017-4.179l11.742,0.046
					c0,0,2.879-0.095,2.981-0.646c0.819-4.414,2.807-3.71,2.807-3.71l-0.019,4.742h0.002v8.557c0,0-1.99,0.697-2.792-3.721
					c-0.099-0.551-2.979-0.657-2.979-0.657h-11.742v-0.433H248.239z"/>
			</g>
			<path fill="#FAAF40" stroke="#B1722A" stroke-width="3.5" stroke-miterlimit="10" d="M260.821,88.493
				c0-2.968-4.989-5.373-11.145-5.373c-6.155,0-11.145,2.406-11.145,5.373c0,2.485,3.517,4.555,8.268,5.17v23.82h5.753v-23.82
				C257.304,93.048,260.821,90.977,260.821,88.493z"/>
		</g>
		<path clip-path="url(#SVGID_18_)" fill="#3B4549" stroke="#76878B" stroke-width="3.5" stroke-miterlimit="10" d="
			M269.681,116.205h-18.566h-2.876h-18.567c-2.576,0-4.664,2.089-4.664,4.665v45.751h23.231h2.876h23.231v-45.751
			C274.346,118.294,272.257,116.205,269.681,116.205z"/>
		<g clip-path="url(#SVGID_18_)">
			
				<rect x="262.546" y="124.431" fill="#FAAF40" stroke="#B1722A" stroke-width="3.5" stroke-miterlimit="10" width="4.246" height="20.166"/>
			
				<rect x="247.553" y="124.431" fill="#FAAF40" stroke="#B1722A" stroke-width="3.5" stroke-miterlimit="10" width="4.246" height="20.166"/>
			
				<rect x="232.561" y="124.431" fill="#FAAF40" stroke="#B1722A" stroke-width="3.5" stroke-miterlimit="10" width="4.246" height="20.166"/>
		</g>
		<path clip-path="url(#SVGID_18_)" fill="#F8E511" stroke="#3B4549" stroke-width="3.5" stroke-miterlimit="10" d="
			M280.228,160.784h-7.208v3.98h-21.905h-2.876h-21.905v-3.98h-7.208c-2.614,0-4.733,2.119-4.733,4.733v6.18
			c0,1.154,0.935,2.089,2.09,2.089h31.756h2.876h31.756c1.154,0,2.09-0.936,2.09-2.089v-6.18
			C284.96,162.902,282.841,160.784,280.228,160.784z"/>
		<use xlink:href="#SVGID_17_"  overflow="visible" fill="none" stroke="#49685D" stroke-width="3.5" stroke-miterlimit="10"/>
	</g>
</g>
</svg>
