<?xml version="1.0" encoding="utf-8"?>
<!-- Generator: Adobe Illustrator 18.1.1, SVG Export Plug-In . SVG Version: 6.00 Build 0)  -->
<svg version="1.1" id="Layer_1" xmlns="http://www.w3.org/2000/svg" xmlns:xlink="http://www.w3.org/1999/xlink" x="0px" y="0px"
	 viewBox="0 0 220 220" enable-background="new 0 0 220 220" xml:space="preserve">
<g>
	<g>
		<path fill="#383A3D" stroke="#76787B" stroke-width="1.571" stroke-miterlimit="10" d="M141.4,100.5c0,8-8.8,17.5-8.8,17.5
			c-0.8,1-1.8,1.9-2.9,2.8c-9.7,8-29.1,13.5-51.4,13.5c-22.3,0-41.7-5.5-51.4-13.5c-1.1-0.9-2.1-1.9-2.9-2.8c0,0-8.8-9.4-8.8-17.5
			c0,0,44.3,0,63.1,0S141.4,100.5,141.4,100.5z"/>
		<g>
			<defs>
				<ellipse id="SVGID_1_" cx="78.2" cy="100.5" rx="63.1" ry="20.8"/>
			</defs>
			<use xlink:href="#SVGID_1_"  overflow="visible" fill="#B8BBBA"/>
			<clipPath id="SVGID_2_">
				<use xlink:href="#SVGID_1_"  overflow="visible"/>
			</clipPath>
			
				<ellipse clip-path="url(#SVGID_2_)" fill="#4E5250" stroke="#757C7A" stroke-width="1.571" stroke-miterlimit="10" cx="78.2" cy="113.1" rx="48.3" ry="17.1"/>
			<use xlink:href="#SVGID_1_"  overflow="visible" fill="none" stroke="#D1D6DA" stroke-width="1.571" stroke-miterlimit="10"/>
		</g>
	</g>
	<g>
		<defs>
			<path id="SVGID_3_" d="M110.9,126.3c1.5-1.1,5.1-3.9,7.3-7c0.1-0.2,0.3-0.3,0.5-0.3c1.2-0.1,6.3-0.6,11.6-3.5
				c0.3-0.2,0.7-0.3,1.1-0.2l22.6,4.4l-11,5.1l-8.6,4.1c-2.4,1.1-5,1.5-7.6,1l-15.7-2.9C110.8,126.9,110.7,126.5,110.9,126.3z"/>
		</defs>
		<use xlink:href="#SVGID_3_"  overflow="visible" fill="#EAEAEA"/>
		<clipPath id="SVGID_4_">
			<use xlink:href="#SVGID_3_"  overflow="visible"/>
		</clipPath>
		<polygon clip-path="url(#SVGID_4_)" fill="#B5B5B8" stroke="#76787B" stroke-width="1.571" stroke-miterlimit="10" points="
			171.3,128.3 118.4,119 102.8,130 138.6,140.6 		"/>
		<use xlink:href="#SVGID_3_"  overflow="visible" fill="none" stroke="#808687" stroke-width="1.571" stroke-miterlimit="10"/>
	</g>
	<g>
		<defs>
			<path id="SVGID_5_" d="M130,130.5v-10l8.5-3.8c0.6-0.3,1.3-0.4,2-0.2l58.9,11.9c5.4,1.5,5.9,5.5,5.2,7c-1.6,3.2-5.8,6.4-19.1,4
				c-6.6-0.6-21.3-7.7-31.3-9.2c-9.8-1.5-16,1.9-23.9,0.7C130.2,130.9,130,130.7,130,130.5z"/>
		</defs>
		<use xlink:href="#SVGID_5_"  overflow="visible" fill="#DDA078"/>
		<clipPath id="SVGID_6_">
			<use xlink:href="#SVGID_5_"  overflow="visible"/>
		</clipPath>
		<path clip-path="url(#SVGID_6_)" fill="#AE7954" stroke="#70452C" stroke-width="1.571" stroke-miterlimit="10" d="M195.5,140.1
			c3.9-0.3,3.7-5.9-5-7.3c-5.4-0.9-60.5-12.3-60.5-12.3l-5.5,4.4l2.1,16.2l64.4,8.6L195.5,140.1z"/>
		<use xlink:href="#SVGID_5_"  overflow="visible" fill="none" stroke="#8B5F3E" stroke-width="1.571" stroke-miterlimit="10"/>
	</g>
	<path fill="#563828" d="M195.9,130.1c-0.2,0.6-2.6,0.7-5.4,0.3s-5-1.3-4.9-1.9c0.2-0.6,2.6-0.7,5.4-0.3S196.1,129.5,195.9,130.1z"
		/>
</g>
</svg>
