<?xml version="1.0" encoding="utf-8"?>
<!-- Generator: Adobe Illustrator 18.1.1, SVG Export Plug-In . SVG Version: 6.00 Build 0)  -->
<svg version="1.1" id="Layer_1" xmlns="http://www.w3.org/2000/svg" xmlns:xlink="http://www.w3.org/1999/xlink" x="0px" y="0px"
	 width="500px" height="500px" viewBox="0 0 500 500" enable-background="new 0 0 500 500" xml:space="preserve">
<g>
	<g>
		<path fill="#232647" stroke="#4C5175" stroke-width="2.2612" stroke-miterlimit="10" d="M429.38,178.871
			c0,0,5.653-4.711,29.773-2.261c0,0,10.929-19.032,18.09-7.726l-0.754,17.148l-41.456,5.653L429.38,178.871z"/>
		<g>
			<defs>
				<path id="SVGID_1_" d="M318.013,204.687c0,0,1.131-10.552,12.814-11.306c11.491-0.741,44.491,5.444,79.279-30.566
					c1.424-1.475,3.543-2.221,5.513-1.653c2.326,0.671,5.409,2.534,8.296,7.345c0,0,9.422-0.754,16.582,12.437
					c0,0,22.236-1.507,33.165-0.377c0,0,3.392-11.306,0-15.075c0,0,5.276,0,5.276,10.176c0,0,6.784,22.612,5.276,35.803
					l-54.647,6.784l-62.561,3.015L318.013,204.687z"/>
			</defs>
			<use xlink:href="#SVGID_1_"  overflow="visible" fill="#616580"/>
			<clipPath id="SVGID_2_">
				<use xlink:href="#SVGID_1_"  overflow="visible"/>
			</clipPath>
			<g clip-path="url(#SVGID_2_)">
				<path fill="#8A90A8" stroke="#636A7F" stroke-width="2.2612" stroke-miterlimit="10" d="M437.106,172.653l4.431,10.761
					c0.502,1.22,1.722,1.986,3.039,1.899c5.294-0.35,19.163-1.139,30.395-0.663c0.934,0.04,1.793-0.439,2.196-1.283
					c1.201-2.515,2.824-8.9-0.866-22.021l-9.705-3.015L437.106,172.653z"/>
				<path fill="#DDE0E8" stroke="#A3A9B5" stroke-width="2.2612" stroke-miterlimit="10" d="M406.155,189.352
					c3.213,2.937,9.028,10.045,15.216,26.359l27.418-2.827c0,0-5.653-26.004-14.415-30.244c0,0,0.565-9.61,1.696-12.154
					l-5.936-4.523c0,0-2.852,10.426-9.61,13.285c-5.372,2.273-10.442,4.545-13.885,6.377
					C405.224,186.377,404.973,188.271,406.155,189.352z"/>
			</g>
			<use xlink:href="#SVGID_1_"  overflow="visible" fill="none" stroke="#363C56" stroke-width="2.2612" stroke-miterlimit="10"/>
		</g>
		<path fill="#FFFFFF" stroke="#6D6E71" stroke-width="1.7185" stroke-miterlimit="10" d="M487.552,213.568
			c0.039,0.736-0.442,1.425-1.157,1.607c-5.045,1.281-24.603,6.071-35.05,6.071c-12.06,0-20.226-0.258-50.042,4.923
			c-33.494,5.82-78.418-12.434-84.787-15.125c-0.494-0.209-0.8-0.643-0.832-1.179c-0.143-2.4-0.175-9.083,3.837-9.7
			c0,0,54.534,19.597,82.102,15.452c26.245-3.947,33.793-5.306,53.197-5.833c21.104-0.573,29.395-5.473,29.395-5.473
			S487.002,203.265,487.552,213.568z"/>
	</g>
	<g>
		<g>
			<defs>
				<path id="SVGID_3_" d="M72.91,205.585c0,0-3.737-18.022-0.778-40.695c0,0-0.367-9.698,0.319-17.355
					c-1.277-3.17,0.811-6.363,1.647-7.938c0,0-4.579-2.928-2.02-12.024c0,0-4.832-11.216,1.918-13.041
					c6.75-1.825,25.337-5.573,25.337-5.573s18.23-22.4,29.229-9.04c0,0,5.389,15.729,5.127,31.565c0,0,18.703,31.871,62.407,40.648
					c0,0,6.239,1.012,19.444,11.502c0,0,22.054,0.144,27.944,12.47l-24.631,12.91l-84.216,1.61L72.91,205.585z"/>
			</defs>
			<use xlink:href="#SVGID_3_"  overflow="visible" fill="#5B4A6A"/>
			<clipPath id="SVGID_4_">
				<use xlink:href="#SVGID_3_"  overflow="visible"/>
			</clipPath>
			<g clip-path="url(#SVGID_4_)">
				<g>
					<path fill="#2F2629" stroke="#685D61" stroke-width="2.2612" stroke-miterlimit="10" d="M67.39,144.808
						c0,0,4.931,4.442,17.148,0.754c9.987-3.015,23.366-15.075,33.353-19.597l-12.437-28.266l-35.426,0.754L67.39,144.808z"/>
					<path fill="#2F2629" stroke="#685D61" stroke-width="2.2612" stroke-miterlimit="10" d="M74.362,138.024
						c0,0,4.668-0.844,6.972-1.884c5.842-2.638,19.974-12.814,26.758-13.944"/>
					<path fill="#2F2629" stroke="#685D61" stroke-width="2.2612" stroke-miterlimit="10" d="M72.572,125.964
						c0,0,4.573-3.961,14.227-6.03c10.552-2.261,20.54-6.218,20.54-6.218"/>
				</g>
				<path fill="#94EAEA" stroke="#6DBFBD" stroke-width="1.7185" stroke-miterlimit="10" d="M126.559,159.317l-16.017-16.959
					c0,0-34.673,17.148-35.803,30.715l6.304,8.826c5.206-10.4,21.161-25.504,24.6-22.581c3.769,3.203-8.668,18.655-12.248,24.497
					c-2.327,3.796-2.974,8.274-3.148,10.969l1.452,2.033l9.234,5.653C100.932,202.469,99.989,189.467,126.559,159.317z"/>
				<path fill="#2F2629" stroke="#685D61" stroke-width="2.2612" stroke-miterlimit="10" d="M68.52,174.581
					c0,0,1.979-13.002,7.066-5.653c3.169,4.578,14.981,26.004,33.919,36.745l-27.418,3.957l-17.242-5.936L68.52,174.581z"/>
				<path fill="#5DC9B5" stroke="#389B88" stroke-width="1.7185" stroke-miterlimit="10" d="M67.955,157.998
					c0,0,1.884,11.306,44.094,19.597c42.21,8.291,49.747,0.754,59.546,30.527l-31.657-1.131c0,0,0-13.191-19.974-17.336
					c-18.265-3.791-39.572-10.929-52.386-26.758L67.955,157.998z"/>
				<path fill="#3F324C" stroke="#5C4F6B" stroke-width="2.2612" stroke-miterlimit="10" d="M99.047,97.887
					c0,0,4.831,35.367,16.638,38.255c0.981,0.24,1.768,0.973,2.121,1.919c1.385,3.715,6.657,12.784,26.278,21.069
					c20.178,8.52,38.354,18.701,40.951,20.171c0.197,0.112,0.393,0.057,0.535-0.119c1.079-1.343,6.423-6.524,21.836-1.16
					l-73.114-88.754l-29.403-2.498L99.047,97.887z"/>
				<g>
					<path fill="#FFFFFF" stroke="#5A6D6B" stroke-width="1.7185" stroke-miterlimit="10" d="M121.813,147.225
						c-0.611,0.657-0.749,1.708-0.33,2.501c0.418,0.79,1.36,1.267,2.244,1.137c3.928-4.386,8.737-7.961,14.035-10.527
						c1.114-0.54,2.432-1.305,2.409-2.543c-0.017-0.926-0.826-1.643-1.655-2.057c-2.968-1.482-7.016-0.402-8.693,2.535
						c-3.147,2.36-5.863,5.292-7.975,8.611"/>
					<path fill="#FFFFFF" stroke="#5A6D6B" stroke-width="1.7185" stroke-miterlimit="10" d="M134.323,157.769
						c-0.704,0.556-1.001,1.574-0.708,2.422c0.292,0.845,1.151,1.46,2.045,1.466c4.552-3.736,9.849-6.535,15.478-8.262
						c1.184-0.363,2.603-0.919,2.769-2.146c0.124-0.918-0.566-1.75-1.322-2.285c-2.707-1.917-6.873-1.468-8.978,1.179
						c-3.47,1.853-6.602,4.335-9.195,7.293"/>
					<path fill="#FFFFFF" stroke="#5A6D6B" stroke-width="1.7185" stroke-miterlimit="10" d="M148.02,167.981
						c-0.704,0.556-1.001,1.574-0.708,2.422c0.292,0.845,1.151,1.46,2.045,1.466c4.552-3.736,9.849-6.535,15.478-8.262
						c1.184-0.363,2.603-0.919,2.769-2.146c0.124-0.918-0.566-1.75-1.322-2.285c-2.707-1.917-6.873-1.468-8.978,1.179
						c-3.47,1.853-6.602,4.335-9.195,7.293"/>
				</g>
				<path fill="#6C5D7C" stroke="#857993" stroke-width="2.2612" stroke-miterlimit="10" d="M142.199,157.998
					c36.003,15.345,47.28,24.221,50.479,27.35c0.497,0.486,0.162,1.358-0.532,1.364c-21.285,0.163-24.696-8.739-65.776-24.191
					c-14.48-5.446-19.974-20.728-19.974-20.728c-0.517-5.942,2.155-8.342,3.886-9.264c0.782-0.416,1.714-0.379,2.49,0.047
					c1.61,0.884,4.504,2.602,5.307,3.94C119.21,138.401,122.633,149.659,142.199,157.998z"/>
			</g>
			<use xlink:href="#SVGID_3_"  overflow="visible" fill="none" stroke="#897A99" stroke-width="2.2612" stroke-miterlimit="10"/>
		</g>
		<g>
			<path fill="#FFFFFF" d="M142.242,137.888c-0.193,0.431-0.495,0.806-0.918,1.081c-0.851,0.554-1.935,0.575-2.954,0.578
				c-6.898,0.016-13.795,0.033-20.693,0.049c-0.884,0.002-1.79,0.001-2.622-0.297c-0.832-0.298-0.874-0.399-0.918-1.274
				c-0.141-2.827,14.372-6.11,20.986-6.1c2.122,0.003,4.411,0.225,6.014,1.602C142.359,134.575,142.857,136.513,142.242,137.888z"/>
			<g>
				<path fill="#5A6D6B" d="M141.497,137.452c-0.59,0.949-2.604,1.225-3.619,1.233c-0.657,0.005-1.314,0.003-1.971,0.005
					c-1.478,0.003-2.956,0.007-4.434,0.01c-3.12,0.007-6.241,0.015-9.361,0.022c-0.827,0.002-7.605,0.27-6.983-0.937
					c0.522-1.015,2.674-1.601,3.632-1.948c3.427-1.241,25.37-6.753,22.648,1.821c-0.337,1.061,1.329,1.516,1.665,0.459
					c2.207-6.951-7.151-7.307-11.525-6.836c-5.195,0.559-10.947,1.508-15.653,3.898c-1.152,0.585-2.548,1.407-2.621,2.845
					c-0.139,2.726,3.594,2.431,5.388,2.432c4.927,0.005,9.854-0.023,14.78-0.035c3.078-0.007,7.641,0.961,9.544-2.098
					C143.576,137.377,142.083,136.509,141.497,137.452z"/>
			</g>
		</g>
		<g>
			<path fill="#FFFFFF" d="M156.426,151.641c-0.193,0.431-0.495,0.806-0.918,1.081c-0.851,0.554-1.935,0.575-2.954,0.578
				c-6.898,0.016-13.795,0.033-20.693,0.049c-0.884,0.002-1.79,0.001-2.622-0.297c-0.832-0.298-0.874-0.399-0.918-1.274
				c-0.141-2.827,14.372-6.11,20.986-6.1c2.122,0.003,4.411,0.225,6.014,1.602C156.544,148.328,157.041,150.266,156.426,151.641z"/>
			<g>
				<path fill="#5A6D6B" d="M155.681,151.205c-0.59,0.949-2.604,1.225-3.619,1.233c-0.657,0.005-1.314,0.003-1.971,0.005
					c-1.478,0.003-2.956,0.007-4.434,0.01c-3.12,0.007-6.241,0.015-9.361,0.022c-0.827,0.002-7.605,0.27-6.983-0.937
					c0.522-1.015,2.674-1.601,3.632-1.948c3.427-1.241,25.37-6.753,22.648,1.821c-0.337,1.061,1.329,1.516,1.665,0.459
					c2.207-6.951-7.151-7.307-11.525-6.836c-5.195,0.559-10.947,1.508-15.653,3.898c-1.152,0.585-2.548,1.407-2.621,2.845
					c-0.139,2.726,3.594,2.431,5.388,2.432c4.927,0.005,9.854-0.023,14.78-0.035c3.078-0.007,7.641,0.961,9.544-2.098
					C157.76,151.13,156.267,150.262,155.681,151.205z"/>
			</g>
		</g>
		<g>
			<path fill="#FFFFFF" d="M172.027,160.771c-0.166,0.309-0.444,0.589-0.849,0.813c-0.815,0.45-1.893,0.558-2.908,0.647
				c-6.87,0.608-13.74,1.216-20.61,1.824c-0.881,0.078-1.783,0.155-2.63,0.025c-0.846-0.13-0.894-0.195-0.991-0.784
				c-0.311-1.904,13.95-5.387,20.539-5.953c2.114-0.182,4.407-0.23,6.087,0.566C171.946,158.514,172.558,159.785,172.027,160.771z"
				/>
			<g>
				<path fill="#5A6D6B" d="M171.282,160.335c-1.342,1.756-6.841,1.372-8.9,1.554c-2.944,0.261-5.889,0.521-8.833,0.782
					c-0.767,0.068-8.587,0.4-8.652,0.694c0.146-0.662,2.586-1.318,3.095-1.5c3.248-1.163,6.648-1.958,10.026-2.638
					c1.673-0.337,14.525-2.696,13.177,1.315c-0.355,1.056,1.312,1.508,1.665,0.459c2.017-6.002-9.156-4.499-12.059-4.031
					c-5.133,0.828-10.777,1.832-15.49,4.127c-0.9,0.438-2.122,1.045-2.135,2.2c-0.03,2.757,5.071,1.57,6.446,1.449
					c4.58-0.405,9.16-0.811,13.74-1.216c2.837-0.251,7.46,0.229,9.41-2.322C173.447,160.324,171.949,159.463,171.282,160.335z"/>
			</g>
		</g>
		<g>
			<path fill="#FFFFFF" d="M182.416,166.988c-0.138,0.308-0.374,0.587-0.721,0.809c-0.698,0.446-1.633,0.55-2.512,0.636
				c-5.955,0.582-11.91,1.163-17.865,1.745c-0.764,0.075-1.546,0.149-2.284,0.015c-0.738-0.133-0.781-0.198-0.877-0.787
				c-0.309-1.903,12.006-5.329,17.718-5.869c1.833-0.173,3.823-0.213,5.299,0.588C182.298,164.734,182.856,166.006,182.416,166.988z
				"/>
			<g>
				<path fill="#5A6D6B" d="M181.67,166.552c-0.818,1.266-3.191,1.085-4.473,1.211c-1.323,0.129-2.647,0.259-3.97,0.388
					c-2.316,0.226-4.632,0.452-6.947,0.679c-0.572,0.056-7.168,0.895-7.23,0.558c-0.076-0.418,2.533-1.399,2.759-1.49
					c2.771-1.122,5.709-1.894,8.621-2.55c1.833-0.413,12.272-2.702,11.154,1.411c-0.292,1.074,1.373,1.532,1.665,0.459
					c2.465-9.064-20.896-1.817-24.125,0.027c-0.872,0.498-1.891,1.145-1.814,2.276c0.164,2.419,4.103,1.511,5.497,1.375
					c4.301-0.42,8.602-0.84,12.903-1.26c2.397-0.234,5.956,0.106,7.452-2.211C183.766,166.488,182.272,165.621,181.67,166.552z"/>
			</g>
		</g>
		<g>
			<path fill="#FFFFFF" d="M194.515,171.589c-0.124,0.32-0.339,0.618-0.657,0.866c-0.639,0.499-1.497,0.671-2.306,0.82
				c-5.472,1.012-10.944,2.025-16.416,3.037c-0.702,0.13-1.42,0.26-2.1,0.179s-0.72-0.143-0.812-0.73
				c-0.299-1.895,11-6.226,16.248-7.18c1.684-0.306,3.514-0.488,4.878,0.212C194.389,169.328,194.912,170.569,194.515,171.589z"/>
			<g>
				<path fill="#5A6D6B" d="M193.769,171.154c-1.017,1.827-5.395,1.835-7.274,2.183c-2.253,0.417-4.506,0.834-6.759,1.251
					c-0.364,0.067-6.616,1.059-6.619,1.105c0.042-0.536,1.936-1.397,2.31-1.599c2.544-1.37,5.3-2.388,8.042-3.28
					c1.735-0.565,11.068-3.568,10.213,0.547c-0.225,1.084,1.439,1.548,1.665,0.459c1.93-9.292-19.324-0.475-22.453,1.793
					c-0.794,0.576-1.664,1.297-1.502,2.38c0.282,1.884,2.636,1.373,3.974,1.154c3.873-0.636,7.728-1.43,11.588-2.144
					c2.588-0.479,6.85-0.359,8.306-2.976C195.801,171.053,194.31,170.182,193.769,171.154z"/>
			</g>
		</g>
		<path fill="#FFFFFF" stroke="#6D6E71" stroke-width="1.7185" stroke-miterlimit="10" d="M70.976,200.138
			c-0.457-0.242-1.003,0.115-1.021,0.632c-0.104,3.011-0.109,9.589,1.769,10.745c2.45,1.508,12.814,6.784,58.604,2.638
			c0,0,16.959,0.377,30.904,2.261c13.767,1.86,57.654,11.618,82.524-11.705c0.652-0.612,1.034-1.457,1.093-2.349
			c0.185-2.815,0.089-8.758-4.096-8.181c0,0-14.51,13.191-47.298,13.379c-32.788,0.188-49.182-5.276-60.111-5.653
			C123.104,201.551,78.299,204.01,70.976,200.138z"/>
	</g>
	<g>
		<path fill="#772232" stroke="#601727" stroke-width="2.2612" stroke-miterlimit="10" d="M205.472,296.293
			c0,0,19.409-3.769,34.107-0.942l-2.073,8.668L205.472,296.293z"/>
		<g>
			<defs>
				<path id="SVGID_5_" d="M202.269,378.452c0,0-3.203-11.118-1.884-29.773c-3.623-24.308-3.246-46.921-3.246-46.921
					s-2.416-10.238,32.633-4.397c0,0,1.894-8.605,17.723-4.083c0,0,2.862-2.335,4.172,0.762
					c5.653,13.367,21.807,72.352,70.826,87.427c0,0,22.174-0.754,28.8,9.799l-8.449,12.437l-57.285,9.422l-46.732-19.221
					L202.269,378.452z"/>
			</defs>
			<use xlink:href="#SVGID_5_"  overflow="visible" fill="#8E2E3C"/>
			<clipPath id="SVGID_6_">
				<use xlink:href="#SVGID_5_"  overflow="visible"/>
			</clipPath>
			<g clip-path="url(#SVGID_6_)">
				<path fill="#7F2637" stroke="#671720" stroke-width="2.2612" stroke-miterlimit="10" d="M258.284,291.795
					c10.497,17.15,26.79,30.392,41.197,44.703c14.659,14.562,27.821,30.795,44.085,43.502c0.329,0.257,0.289,0.762-0.078,0.96
					c-13.614,7.354-27.519,14.189-41.669,20.477c-0.395,0.175-0.813-0.127-0.79-0.558c0.435-8.268-3.716-16.574-9.314-22.888
					c-6.486-7.315-14.812-12.713-22.176-19.142c-14.437-12.603-25.188-29.379-30.608-47.761c-0.994-3.37-1.851-6.876-3.881-9.744
					c-1.741-2.46-4.614-4.367-7.551-4.332c-1.052,0.012-1.642-1.277-0.963-2.08c3.178-3.758,8.03-6.182,12.952-7.06
					c5.608-1.001,11.342-0.318,16.954,0.763C257.034,289.703,257.648,290.756,258.284,291.795z"/>
				<path fill="#8E2E3C" stroke="#671720" stroke-width="2.2612" stroke-miterlimit="10" d="M246.263,296.205
					c-0.178,0.786-0.238,1.599-0.17,2.386c0.259,3.014,1.898,5.708,3.458,8.3c6.473,10.754,12.321,21.888,19.207,32.382
					c6.886,10.494,14.907,20.424,24.972,27.923c10.478,7.806,23.366,12.849,36.449,12.134c-32.271-23.4-58.757-53.697-79.012-88.028
					C249.059,291.862,246.757,294.022,246.263,296.205z"/>
				<g>
					<path fill="#FFFFFF" stroke="#5A6D6B" stroke-width="1.7185" stroke-miterlimit="10" d="M259.522,319.399
						c1.317-0.071,2.655-0.305,3.932,0.022c1.277,0.328,2.491,1.246,2.773,2.535c0.392,1.787-1.172,3.514-2.924,4.038
						c-1.752,0.525-3.628,0.194-5.446-0.012c-4.004-0.453-8.078-0.273-12.026,0.532c-0.928,0.189-1.872,0.414-2.813,0.307
						c-0.942-0.107-1.902-0.624-2.243-1.508s0.22-2.083,1.165-2.152C241.941,323.163,252.537,319.776,259.522,319.399z"/>
					<path fill="#FFFFFF" stroke="#5A6D6B" stroke-width="1.7185" stroke-miterlimit="10" d="M266.428,333.639
						c1.208-0.194,2.42-0.553,3.632-0.347c1.212,0.206,2.425,1.006,2.816,2.261c0.542,1.741-0.726,3.606-2.291,4.292
						c-1.564,0.686-3.329,0.533-5.028,0.499c-3.741-0.075-7.484,0.487-11.047,1.658c-0.838,0.275-1.686,0.588-2.565,0.57
						c-0.88-0.018-1.819-0.442-2.223-1.29c-0.404-0.848-0.008-2.093,0.858-2.25C250.58,339.033,260.018,334.67,266.428,333.639z"/>
					<path fill="#FFFFFF" stroke="#5A6D6B" stroke-width="1.7185" stroke-miterlimit="10" d="M275.504,346.738
						c1.125-0.186,2.253-0.536,3.384-0.322c1.132,0.214,2.268,1.022,2.641,2.279c0.517,1.743-0.653,3.598-2.107,4.273
						c-1.454,0.675-3.101,0.51-4.685,0.464c-3.489-0.101-6.975,0.435-10.29,1.581c-0.779,0.27-1.568,0.576-2.388,0.552
						c-0.821-0.024-1.699-0.454-2.082-1.304s-0.022-2.091,0.784-2.243C260.763,352.019,269.534,347.724,275.504,346.738z"/>
					<path fill="#FFFFFF" stroke="#5A6D6B" stroke-width="1.7185" stroke-miterlimit="10" d="M287.655,358.893
						c1.034-0.351,2.069-0.868,3.113-0.814c1.044,0.054,2.097,0.711,2.45,1.932c0.491,1.695-0.571,3.746-1.904,4.64
						s-2.85,0.964-4.309,1.146c-3.213,0.401-6.418,1.446-9.459,3.087c-0.715,0.386-1.438,0.81-2.194,0.904
						c-0.756,0.094-1.568-0.216-1.927-1.024c-0.359-0.807-0.037-2.119,0.704-2.389C274.128,366.376,282.167,360.753,287.655,358.893
						z"/>
					<path fill="#FFFFFF" stroke="#5A6D6B" stroke-width="1.7185" stroke-miterlimit="10" d="M295.331,367.888
						c1.014-0.516,2.027-1.202,3.051-1.308s3.409,0.133,3.758,1.319c0.485,1.646,0.558,2.62-0.747,3.734s-2.793,1.42-4.223,1.831
						c-3.15,0.904-6.291,2.462-9.27,4.599c-0.701,0.503-1.409,1.045-2.15,1.258c-0.741,0.212-1.538,0.023-1.892-0.742
						c-0.354-0.765-0.041-2.147,0.685-2.536C284.543,376.043,289.954,370.627,295.331,367.888z"/>
					<path fill="#FFFFFF" stroke="#5A6D6B" stroke-width="1.7185" stroke-miterlimit="10" d="M306.52,376.02
						c1.014-0.516,2.027-1.202,3.051-1.308c1.024-0.106,3.409,0.133,3.758,1.319c0.485,1.646,0.558,2.62-0.747,3.734
						s-2.793,1.42-4.223,1.831c-3.15,0.904-6.291,2.462-9.27,4.599c-0.701,0.503-1.409,1.046-2.15,1.258
						c-0.741,0.212-1.538,0.023-1.892-0.742c-0.354-0.765-0.041-2.147,0.685-2.536C295.732,384.175,301.143,378.759,306.52,376.02z"
						/>
				</g>
			</g>
			<path clip-path="url(#SVGID_6_)" fill="#8E2E3C" stroke="#671720" stroke-width="2.2612" stroke-miterlimit="10" d="
				M300.208,393.249c-1.452-5.59-4.628-10.899-8.493-15.259c-6.486-7.315-14.812-12.713-22.176-19.142
				c-14.437-12.603-25.188-29.379-30.608-47.761c-0.994-3.37-1.851-6.876-3.881-9.744c-0.571-0.807-1.264-1.555-2.042-2.194
				l-14.87,7.08l32.888,68.46l39.453,26.375L300.208,393.249z"/>
			<path clip-path="url(#SVGID_6_)" fill="#8E2E3C" d="M210.884,300.815c0,0,26.264-8.017,23.146,5.414l25.513,62.424
				c0,0,48.817,12.943,38.84,35.166l-5.713,3.268l-62.898-32.398L210.884,300.815z"/>
			<use xlink:href="#SVGID_5_"  overflow="visible" fill="none" stroke="#671720" stroke-width="2.2612" stroke-miterlimit="10"/>
		</g>
		
			<ellipse transform="matrix(-0.9971 0.0757 -0.0757 -0.9971 446.5451 653.7759)" fill="#FFFFFF" stroke="#CCC8CE" stroke-width="1.7185" stroke-miterlimit="10" cx="210.884" cy="335.35" rx="7.161" ry="16.819"/>
		<path fill="#FFFFFF" stroke="#58595B" stroke-width="1.7185" stroke-miterlimit="10" d="M298.56,411.145
			c0,0-2.961-17.582,15.263-24.591c3.674-1.413,6.784-2.827,8.128-4.296c0.792-0.866,2.044-1.126,3.217-1.141
			c6.135-0.083,24.333,0.594,27.379,11.373l-16.677,16.394L298.56,411.145z"/>
		<circle fill="#D1D3D4" stroke="#5B6163" stroke-width="1.7185" stroke-miterlimit="10" cx="229.771" cy="310.487" r="4.258"/>
		<circle fill="#D1D3D4" stroke="#5B6163" stroke-width="1.7185" stroke-miterlimit="10" cx="235.321" cy="321.261" r="4.258"/>
		<circle fill="#D1D3D4" stroke="#5B6163" stroke-width="1.7185" stroke-miterlimit="10" cx="242.477" cy="337.902" r="4.258"/>
		<circle fill="#D1D3D4" stroke="#5B6163" stroke-width="1.7185" stroke-miterlimit="10" cx="255.284" cy="354.678" r="4.258"/>
		<circle fill="#D1D3D4" stroke="#5B6163" stroke-width="1.7185" stroke-miterlimit="10" cx="266.288" cy="366.062" r="4.258"/>
		<circle fill="#D1D3D4" stroke="#5B6163" stroke-width="1.7185" stroke-miterlimit="10" cx="277.381" cy="374.689" r="4.258"/>
		<circle fill="#D1D3D4" stroke="#5B6163" stroke-width="1.7185" stroke-miterlimit="10" cx="285.81" cy="384.604" r="4.258"/>
		
			<ellipse fill="#D1D3D4" stroke="#5B6163" stroke-width="1.7185" stroke-miterlimit="10" cx="293.737" cy="391.122" rx="2.129" ry="4.258"/>
		<path fill="#FFFFFF" stroke="#5A6D6B" stroke-width="1.7185" stroke-miterlimit="10" d="M248.518,304.572
			c1.317-0.071,2.655-0.305,3.932,0.022c1.277,0.328,2.491,1.246,2.773,2.535c0.391,1.787-1.172,3.514-2.924,4.038
			s-3.628,0.194-5.446-0.012c-4.004-0.453-8.078-0.273-12.026,0.532c-0.928,0.189-1.872,0.414-2.813,0.307s-1.902-0.624-2.243-1.508
			c-0.341-0.884,0.22-2.083,1.165-2.152C230.936,308.335,241.533,304.949,248.518,304.572z"/>
		<g>
			<path fill="#FFFFFF" stroke="#5A6D6B" stroke-width="1.7185" stroke-miterlimit="10" d="M255.793,310.229
				c-0.673,0.822-1.933,1.215-3.019,1.544c-4.129,1.25-7.902,3.657-10.775,6.876c-0.923,1.034-1.77,2.163-2.902,2.963
				c-1.132,0.8-2.652,1.223-3.918,0.66c-1.681-0.747-1.473-1.858,0.321-4.182c2.03-2.703,4.119-5.389,6.687-7.58
				c2.735-2.334,6.095-4.095,9.684-4.304c1.046-0.061,2.145,0.023,3.047,0.558s1.543,1.616,1.293,2.634
				C256.134,309.716,255.988,309.99,255.793,310.229z"/>
			<path fill="#FFFFFF" stroke="#5A6D6B" stroke-width="1.7185" stroke-miterlimit="10" d="M262.556,323.992
				c-0.564,0.901-1.764,1.449-2.8,1.912c-3.939,1.761-7.378,4.624-9.822,8.179c-0.785,1.142-1.483,2.369-2.505,3.305
				c-1.022,0.936-2.476,1.547-3.804,1.149c-1.762-0.529-1.695-1.658-0.208-4.189c1.673-2.938,3.407-5.865,5.678-8.363
				c2.419-2.66,5.53-4.83,9.064-5.49c1.03-0.192,2.131-0.247,3.093,0.169c0.962,0.416,1.734,1.409,1.615,2.45
				C262.829,323.441,262.719,323.731,262.556,323.992z"/>
			<path fill="#FFFFFF" stroke="#5A6D6B" stroke-width="1.7185" stroke-miterlimit="10" d="M273.842,340.009
				c-0.564,0.901-1.764,1.449-2.8,1.912c-3.939,1.761-7.378,4.624-9.822,8.179c-0.785,1.142-1.483,2.369-2.505,3.305
				s-2.476,1.547-3.804,1.149c-1.762-0.529-1.695-1.658-0.208-4.189c1.673-2.938,3.407-5.865,5.678-8.363
				c2.419-2.66,5.53-4.83,9.064-5.49c1.03-0.192,2.131-0.247,3.093,0.169s1.734,1.409,1.615,2.45
				C274.116,339.458,274.006,339.749,273.842,340.009z"/>
			<path fill="#FFFFFF" stroke="#5A6D6B" stroke-width="1.7185" stroke-miterlimit="10" d="M281.793,352.962
				c-0.421,0.847-1.353,1.295-2.158,1.671c-3.061,1.431-5.698,3.994-7.532,7.319c-0.589,1.068-1.107,2.228-1.888,3.073
				c-0.781,0.846-1.913,1.336-2.971,0.836c-1.404-0.663-1.382-1.775-0.277-4.163c1.242-2.776,2.531-5.536,4.257-7.829
				c1.838-2.442,4.234-4.344,7.006-4.718c0.808-0.109,1.675-0.076,2.445,0.412c0.77,0.488,1.406,1.532,1.34,2.553
				C281.994,352.438,281.915,352.716,281.793,352.962z"/>
			<path fill="#FFFFFF" stroke="#5A6D6B" stroke-width="1.7185" stroke-miterlimit="10" d="M290.383,360.203
				c-0.281,0.903-1.131,1.493-1.866,1.992c-2.795,1.899-4.992,4.847-6.275,8.422c-0.412,1.148-0.739,2.375-1.377,3.334
				c-0.637,0.959-1.677,1.622-2.801,1.297c-1.492-0.431-1.646-1.534-0.934-4.066c0.786-2.938,1.62-5.868,2.96-8.406
				c1.427-2.703,3.491-4.961,6.168-5.77c0.78-0.236,1.642-0.341,2.48,0.019c0.838,0.36,1.632,1.289,1.728,2.309
				C290.499,359.654,290.465,359.942,290.383,360.203z"/>
			<path fill="#FFFFFF" stroke="#5A6D6B" stroke-width="1.7185" stroke-miterlimit="10" d="M299.432,369.485
				c-0.28,0.903-1.127,1.492-1.86,1.991c-2.787,1.897-4.977,4.843-6.255,8.417c-0.41,1.148-0.736,2.374-1.371,3.333
				c-0.635,0.958-1.672,1.621-2.793,1.295c-1.489-0.432-1.644-1.534-0.934-4.066c0.782-2.937,1.613-5.866,2.948-8.402
				c1.422-2.701,3.48-4.958,6.15-5.765c0.779-0.235,1.638-0.34,2.474,0.021s1.629,1.29,1.726,2.309
				C299.547,368.936,299.513,369.223,299.432,369.485z"/>
			<path fill="#FFFFFF" stroke="#5A6D6B" stroke-width="1.7185" stroke-miterlimit="10" d="M309.41,375.447
				c-0.344,0.922-1.31,1.546-2.146,2.075c-3.179,2.012-5.726,5.064-7.276,8.717c-0.498,1.174-0.904,2.423-1.646,3.413
				s-1.923,1.695-3.165,1.404c-1.648-0.386-1.783-1.493-0.904-4.075c0.974-2.993,2.003-5.981,3.581-8.589
				c1.681-2.777,4.057-5.128,7.068-6.035c0.878-0.264,1.841-0.4,2.763-0.064c0.922,0.335,1.775,1.247,1.848,2.273
				C309.557,374.888,309.509,375.18,309.41,375.447z"/>
		</g>
		<g>
			<defs>
				<path id="SVGID_7_" d="M199.401,373.963c-0.069-0.872,0.769-1.562,1.584-1.244c7.682,3.002,38.849,15.257,51.032,21.184
					c13.944,6.784,30.15,15.075,39.949,13.567c9.404-1.447,46.231-7.753,58.177-16.921c0.849-0.651,2.027-0.504,2.614,0.391
					c1.161,1.771,2.702,5.079,2.604,10.079c-0.02,1.05-0.462,2.046-1.18,2.812c-4.564,4.876-23.752,22.112-65.231,19.844
					c-15.829-1.507-56.531-22.612-56.531-22.612s-27.889-8.668-31.657-13.944C200.761,387.12,200.103,382.837,199.401,373.963z"/>
			</defs>
			<use xlink:href="#SVGID_7_"  overflow="visible" fill="#FFFFFF"/>
			<clipPath id="SVGID_8_">
				<use xlink:href="#SVGID_7_"  overflow="visible"/>
			</clipPath>
			<g clip-path="url(#SVGID_8_)">
				<path fill="#FFFFFF" stroke="#808285" stroke-width="1.7185" stroke-miterlimit="10" d="M291.589,430.083
					c-1.968-7.477-2.637-15.294-1.967-22.996"/>
				<path fill="#FFFFFF" stroke="#808285" stroke-width="1.7185" stroke-miterlimit="10" d="M193.425,376.955
					c0,0,10.488,10.648,29.101,15.224c6.235,1.533,42.619,21.935,66.844,26.406"/>
			</g>
			<use xlink:href="#SVGID_7_"  overflow="visible" fill="none" stroke="#58595B" stroke-width="1.7185" stroke-miterlimit="10"/>
		</g>
	</g>
	<g>
		<path fill="#724844" stroke="#512E2C" stroke-width="2.2612" stroke-miterlimit="10" d="M15.587,252.595
			c0,0-8.291-10.364,24.497-8.291l-11.872,12.814L15.587,252.595z"/>
		<g>
			<defs>
				<path id="SVGID_9_" d="M15.964,311.765c0,0-7.914-16.959,0-37.876l-1.621-22.932c-0.074-1.05,0.757-1.942,1.809-1.942h9.422
					c0,0,14.133-10.176,29.962-10.176c0,0,9.61-9.953,13.567-2.827l0,0c0,0,41.833,47.486,67.837,62.75
					c14.342,8.418,39.572,6.784,37.311,21.482l-29.962,10.176l-35.049,3.392L61.754,320.81L15.964,311.765z"/>
			</defs>
			<use xlink:href="#SVGID_9_"  overflow="visible" fill="#A06B65"/>
			<clipPath id="SVGID_10_">
				<use xlink:href="#SVGID_9_"  overflow="visible"/>
			</clipPath>
			<g clip-path="url(#SVGID_10_)">
				<path fill="#724F40" stroke="#4F3229" stroke-width="2.2612" stroke-miterlimit="10" d="M77.078,243.826
					c-3.877,1.768-6.904,5.292-8.108,9.374c-0.781,0.701-0.334,1.982,0.545,2.26c0.751,0.237,1.665-0.306,1.755-1.11
					c1.401-2.858,3.67-5.264,6.411-6.88c0.713-0.42,1.481-0.809,1.975-1.473c0.494-0.664,0.598-1.71-0.022-2.257
					c-0.644-0.568-1.647-0.318-2.431,0.03C77.16,243.788,77.119,243.807,77.078,243.826z"/>
				<path fill="#724F40" stroke="#4F3229" stroke-width="2.2612" stroke-miterlimit="10" d="M85.121,253.557
					c-3.877,1.768-6.904,5.292-8.108,9.374c-0.781,0.701-0.334,1.982,0.545,2.26c0.751,0.237,1.665-0.306,1.755-1.11
					c1.401-2.858,3.67-5.264,6.411-6.88c0.713-0.42,1.481-0.809,1.975-1.473c0.494-0.664,0.598-1.71-0.022-2.257
					c-0.644-0.568-1.647-0.318-2.431,0.03C85.204,253.52,85.163,253.538,85.121,253.557z"/>
				<path fill="#724F40" stroke="#4F3229" stroke-width="2.2612" stroke-miterlimit="10" d="M94.992,262.79
					c-3.877,1.768-6.904,5.292-8.108,9.374c-0.781,0.701-0.334,1.982,0.545,2.26c0.751,0.237,1.665-0.306,1.755-1.11
					c1.401-2.858,3.67-5.264,6.411-6.88c0.713-0.42,1.481-0.809,1.975-1.473c0.494-0.664,0.598-1.71-0.022-2.257
					c-0.644-0.568-1.647-0.318-2.431,0.03C95.075,262.753,95.034,262.771,94.992,262.79z"/>
				<path fill="#724F40" stroke="#4F3229" stroke-width="2.2612" stroke-miterlimit="10" d="M103.103,271.603
					c-3.584,2.304-6.076,6.225-6.683,10.438c-0.672,0.806-0.047,2.009,0.863,2.159c0.777,0.127,1.604-0.541,1.578-1.349
					c0.978-3.029,2.879-5.735,5.361-7.727c0.645-0.518,1.35-1.013,1.743-1.741c0.394-0.728,0.347-1.778-0.345-2.231
					c-0.718-0.47-1.675-0.079-2.402,0.378C103.18,271.554,103.141,271.578,103.103,271.603z"/>
				<path fill="#875854" stroke="#542F2E" stroke-width="2.2612" stroke-miterlimit="10" d="M10.687,268.424
					c0,0,12.625-1.319,11.683-25.816l-12.437,4.711L10.687,268.424z"/>
				<path fill="#A06B65" stroke="#562F2E" stroke-width="2.2612" stroke-miterlimit="10" d="M36.315,242.231
					c0,0,11.036-5.737,20.54,6.407c3.392,4.334,29.019,40.137,51.066,48.051l1.884-5.276c0,0-27.7-26.947-39.949-43.152
					S36.315,242.231,36.315,242.231L36.315,242.231z"/>
				<path fill="#875854" stroke="#542F2E" stroke-width="2.2612" stroke-miterlimit="10" d="M44.041,319.302
					c0,0-2.073-19.786,9.422-21.482c11.495-1.696,46.921,2.261,46.921,2.261s3.215-5.954,4.628-10.762
					c0.712-2.421,2.814-4.175,5.328-4.39c0.892-0.076,3.133-0.073,3.988,0.078c0,0,2.073-1.508,0.942-4.146l68.78,26.57
					l0.185,26.733l-87.623,11.872L44.041,319.302z"/>
			</g>
			<use xlink:href="#SVGID_9_"  overflow="visible" fill="none" stroke="#562F2E" stroke-width="2.2612" stroke-miterlimit="10"/>
		</g>
		<path fill="#7A4844" stroke="#542F2D" stroke-width="2.2612" stroke-miterlimit="10" d="M13.891,310.069
			c6.595,0.188,11.683,5.653,50.878,6.03c0,0,47.769,29.114,111.272,1.884c1.319,0.188,1.413,4.146-0.094,6.03
			c0,0-41.833,26.381-108.917,1.508l-9.422-3.015c0,0-36.557,0.377-42.587-6.784C15.021,315.722,13.325,311.67,13.891,310.069z"/>
		<path fill="#875854" stroke="#542F2E" stroke-width="2.2612" stroke-miterlimit="10" d="M19.544,264.655h19.032l-0.48,21.756
			c-0.048,2.172-1.792,3.797-3.955,4.004c-2.537,0.243-8.411-0.105-8.411-0.105c-2.8-0.722-5.042-2.815-5.957-5.558h0
			c-0.277-0.83-0.413-1.7-0.405-2.575L19.544,264.655z"/>
		<circle fill="#7A665C" stroke="#B6A297" stroke-width="1.5829" stroke-miterlimit="10" cx="64.109" cy="247.423" r="2.921"/>
		<circle fill="#7A665C" stroke="#B6A297" stroke-width="1.5829" stroke-miterlimit="10" cx="73.06" cy="257.118" r="2.921"/>
		<circle fill="#7A665C" stroke="#B6A297" stroke-width="1.5829" stroke-miterlimit="10" cx="80.389" cy="265.985" r="2.921"/>
		<circle fill="#7A665C" stroke="#B6A297" stroke-width="1.5829" stroke-miterlimit="10" cx="89.402" cy="275.217" r="2.921"/>
		<circle fill="#7A665C" stroke="#B6A297" stroke-width="1.5829" stroke-miterlimit="10" cx="100.33" cy="285.68" r="2.921"/>
		<g>
			<path fill="#724F40" stroke="#4F3229" stroke-width="2.2612" stroke-miterlimit="10" d="M75.007,240.629
				c-4.261-0.013-8.483,1.925-11.281,5.132c-1.002,0.311-1.131,1.662-0.448,2.281c0.583,0.529,1.64,0.417,2.058-0.276
				c2.467-2.011,5.533-3.25,8.699-3.574c0.823-0.084,1.683-0.117,2.409-0.514s1.258-1.304,0.922-2.061
				c-0.348-0.785-1.363-0.976-2.221-0.987C75.098,240.63,75.053,240.63,75.007,240.629z"/>
			<path fill="#724F40" stroke="#4F3229" stroke-width="2.2612" stroke-miterlimit="10" d="M84.021,250.574
				c-4.261-0.013-8.483,1.925-11.281,5.132c-1.002,0.311-1.131,1.662-0.448,2.281c0.583,0.529,1.64,0.417,2.058-0.276
				c2.467-2.011,5.533-3.25,8.699-3.574c0.823-0.084,1.683-0.117,2.409-0.514c0.726-0.397,1.258-1.304,0.922-2.061
				c-0.348-0.785-1.363-0.976-2.221-0.987C84.112,250.574,84.066,250.574,84.021,250.574z"/>
			<path fill="#724F40" stroke="#4F3229" stroke-width="2.2612" stroke-miterlimit="10" d="M91.329,259.191
				c-4.261-0.013-8.483,1.925-11.281,5.132c-1.002,0.311-1.131,1.662-0.448,2.281c0.583,0.529,1.64,0.417,2.058-0.276
				c2.467-2.011,5.533-3.25,8.699-3.574c0.823-0.084,1.683-0.117,2.409-0.514c0.726-0.397,1.258-1.304,0.922-2.061
				c-0.348-0.785-1.363-0.977-2.221-0.987C91.42,259.192,91.375,259.191,91.329,259.191z"/>
			<path fill="#724F40" stroke="#4F3229" stroke-width="2.2612" stroke-miterlimit="10" d="M100.262,268.424
				c-4.261-0.013-8.483,1.925-11.281,5.132c-1.002,0.311-1.131,1.662-0.448,2.281c0.583,0.529,1.64,0.417,2.058-0.276
				c2.467-2.011,5.533-3.25,8.699-3.574c0.823-0.084,1.683-0.117,2.409-0.514c0.726-0.397,1.258-1.304,0.922-2.061
				c-0.348-0.785-1.363-0.976-2.221-0.987C100.353,268.425,100.308,268.424,100.262,268.424z"/>
			<path fill="#724F40" stroke="#4F3229" stroke-width="2.2612" stroke-miterlimit="10" d="M111.512,277.934
				c-4.261-0.013-8.483,1.925-11.281,5.132c-1.002,0.311-1.131,1.662-0.448,2.281c0.583,0.529,1.64,0.417,2.058-0.276
				c2.467-2.011,5.533-3.25,8.699-3.574c0.823-0.084,1.683-0.117,2.409-0.514s1.258-1.304,0.922-2.061
				c-0.348-0.785-1.363-0.977-2.221-0.987C111.603,277.935,111.557,277.934,111.512,277.934z"/>
		</g>
	</g>
	<g>
		<path fill="#E8DDD9" stroke="#998985" stroke-width="2.2612" stroke-miterlimit="10" d="M178.446,248.011
			c0,0,21.547-2.66,32.223-6.218c11.872-3.957,27.418-11.306,34.767-11.589c0,0,54.27-18.655,57.944-12.154l-47.769,24.874
			l-65.859,9.045L178.446,248.011z"/>
		<path fill="#B5A49E" stroke="#99857E" stroke-width="2.2612" stroke-miterlimit="10" d="M208.047,248.972
			c0,0,21.934-15.376,36.971-10.854l-18.486,19.221L208.047,248.972z"/>
		<g>
			<defs>
				<path id="SVGID_11_" d="M130.677,258.47c0,0-3.107-14.133,36.888-14.133c0,0,34.563,4.808,53.218,0.851
					c18-3.818,58.424-24.217,81.047-27.169c1.434-0.187,2.797,0.68,3.314,2.031c2.774,7.25,10.39,29.941,1.911,41.247l-48.617,5.653
					l-37.655,13.002l-75.031-13.568L130.677,258.47z"/>
			</defs>
			<use xlink:href="#SVGID_11_"  overflow="visible" fill="#DACBC4"/>
			<clipPath id="SVGID_12_">
				<use xlink:href="#SVGID_11_"  overflow="visible"/>
			</clipPath>
			<path clip-path="url(#SVGID_12_)" fill="#DACBC4" stroke="#AA978F" stroke-width="2.2612" stroke-miterlimit="10" d="
				M287.915,268.631c0,0,5.653-1.131,6.501-17.525s4.805-24.591,13.85-30.244c0,0,13.002,16.394,10.176,40.42l-13.85,8.762
				L287.915,268.631z"/>
			<path clip-path="url(#SVGID_12_)" fill="#E8DDD9" stroke="#B5A7A3" stroke-width="2.2612" stroke-miterlimit="10" d="
				M184.304,244.902c0,0,25.439,10.641,42.884,4.07c23.884-8.996,49.439-21.249,73.57-26.3c22.16-4.639,2.45-14.515,2.45-14.515
				l-94.595,18.655L184.304,244.902z"/>
			<use xlink:href="#SVGID_11_"  overflow="visible" fill="none" stroke="#917E77" stroke-width="2.2612" stroke-miterlimit="10"/>
		</g>
		<path fill="#F4ECE6" stroke="#918277" stroke-width="2.2612" stroke-miterlimit="10" d="M129.846,262.98
			c0.264,0.981,1.01,1.773,1.965,2.12c9.118,3.317,57.383,20.218,86.301,17.156c32.034-3.392,45.602-10.552,45.602-10.552
			s37.687,1.334,46.862-1.645c0.909-0.295,1.537-1.066,1.729-2.002c0.467-2.275,0.974-6.959-1.481-11.051
			c0,0-1.384,3.461-35.333,2.091c-2.884-0.116-5.756,0.517-8.371,1.737c-11.471,5.35-49.007,18.784-109.684,1.447
			c-7.621-2.177-26.815-8.928-26.381-9.045C131.054,253.236,127.313,253.576,129.846,262.98z"/>
		<g>
			<g>
				<path fill="#F9E1E3" stroke="#A58489" stroke-width="2.2612" stroke-miterlimit="10" d="M181.666,252.202
					c0,0,6.107,8.958,12.625,10.979c5.826,1.806,11.118-3.113,5.465-10.979c0,0,8.602-15.115-10.774-8.381L181.666,252.202z"/>
				<path fill="#F9E1E3" stroke="#A58489" stroke-width="2.2612" stroke-miterlimit="10" d="M176.201,251.236
					c0,0-12.248-0.261-15.075,0c-2.827,0.261-5.18-7.808,4.665-9.144c0,0,4.946-7.092,10.41,1.509V251.236z"/>
				<path fill="#F9E1E3" stroke="#CEB2B5" stroke-width="2.2612" stroke-miterlimit="10" d="M168.633,244.525l5.307,0.768
					c0,0-1.891-1.461-2.653-1.6"/>
				<path fill="#F9E1E3" stroke="#CEB2B5" stroke-width="2.2612" stroke-miterlimit="10" d="M194.291,252.823
					c0-1.312-2.548-2.548-2.548-2.548s2.404-0.608,4.743,0"/>
			</g>
			<g>
				
					<ellipse transform="matrix(0.9836 0.1806 -0.1806 0.9836 47.7616 -28.6039)" fill="#ABB4B7" stroke="#8E989B" stroke-width="2.2612" stroke-miterlimit="10" cx="180.977" cy="248.011" rx="9.756" ry="7.443"/>
				
					<ellipse transform="matrix(0.9836 0.1806 -0.1806 0.9836 47.4856 -28.681)" fill="#ABB4B7" stroke="#8E989B" stroke-width="2.2612" stroke-miterlimit="10" cx="181.263" cy="246.457" rx="7.78" ry="4.805"/>
			</g>
		</g>
	</g>
	<g>
		<path fill="#7A654F" stroke="#544232" stroke-width="2.2612" stroke-miterlimit="10" d="M347.303,91.48
			c0,0,3.533,2.12,5.794,1.555c2.201-0.55,13.002-9.045,20.437-2.231c0.438,0.402,0.624,1.049,0.417,1.606l-6.014,16.171
			l-18.09,0.283L347.303,91.48z"/>
		<g>
			<defs>
				<path id="SVGID_13_" d="M224.819,152.589c0,0-2.638-17.956,11.26-17.956c3.551,0,7.207,2.261,12.86,6.03
					c0,0,6.407-2.261,23.743-3.015c0,0,26.004-22.77,38.818-42.666c5.276-8.966,7.161-7.459,7.161-7.459s4.899-10.176,9.045-11.306
					c4.146-1.131,11.683,7.914,11.683,7.914s9.799,2.857,13.191,10.85c0,0,3.769,5.355,4.899,8.37l7.537,0.377
					c0,0,3.693-11.038,7.538-12.814c6.51-3.007,1.884,38.441,1.884,38.441s6.03,2.261,3.769,15.829l-26.004,15.075l-30.527,14.321
					l-11.306,6.784l-48.24-4.899L224.819,152.589z"/>
			</defs>
			<use xlink:href="#SVGID_13_"  overflow="visible" fill="#917A61"/>
			<clipPath id="SVGID_14_">
				<use xlink:href="#SVGID_13_"  overflow="visible"/>
			</clipPath>
			<path clip-path="url(#SVGID_14_)" fill="#333335" stroke="#5E5E66" stroke-width="2.2612" stroke-miterlimit="10" d="
				M354.851,97.416c0,0,2.261,0.848,1.413,7.349c-0.481,3.687-0.848,17.525,10.458,13.567c11.306-3.957,10.458-23.178,10.458-23.178
				l-2.261-17.242l-17.525-1.696L354.851,97.416z"/>
			<use xlink:href="#SVGID_13_"  overflow="visible" fill="none" stroke="#634E39" stroke-width="2.2612" stroke-miterlimit="10"/>
		</g>
		<path fill="#DBC2B2" stroke="#997D71" stroke-width="2.2612" stroke-miterlimit="10" d="M289.369,122.949
			c0,0,5.653-7.726,24.497-3.392l0.754-3.203c0,0-7.349-3.957-20.917-0.188C293.703,116.165,288.238,116.542,289.369,122.949z"/>
		<path fill="#DBC2B2" stroke="#997D71" stroke-width="2.2612" stroke-miterlimit="10" d="M299.921,112.773
			c0,0,5.653-7.726,24.497-3.392l0.754-3.203c0,0-7.349-3.957-20.917-0.188C304.255,105.99,298.791,106.367,299.921,112.773z"/>
		<path fill="#FFFFFF" stroke="#231F20" stroke-width="1.7185" stroke-miterlimit="10" d="M309.038,99.831
			c0,0,9.003-4.726,27.865,7.466l2.006-2.649c0,0-6.516-6.86-22.649-9.24C316.26,95.409,310.185,93.39,309.038,99.831z"/>
		<g>
			<defs>
				<path id="SVGID_15_" d="M283.056,132.748c0,0,6.218-7.914,10.458-11.024c0,0,12.437-13.85,14.415-18.373
					c0,0,9.045-18.09,18.655-26.57c0,0,4.24-3.675,13.85,8.197c0,0,10.741,1.979,11.306,12.154l-32.505,33.919l-21.199,12.437
					L283.056,132.748z"/>
			</defs>
			<use xlink:href="#SVGID_15_"  overflow="visible" fill="#917A61"/>
			<clipPath id="SVGID_16_">
				<use xlink:href="#SVGID_15_"  overflow="visible"/>
			</clipPath>
			<g clip-path="url(#SVGID_16_)">
				<path fill="#C4AA9B" stroke="#A58C7F" stroke-width="2.2612" stroke-miterlimit="10" d="M281.926,134.726
					c0,0,18.373-0.283,22.047-5.088l14.981-18.938c0,0,4.522-11.872,12.719-16.394c8.197-4.522,7.349-12.154-8.48-15.829
					L304.255,99.96l-25.722,35.332L281.926,134.726z"/>
				
					<ellipse transform="matrix(-0.8767 -0.481 0.481 -0.8767 560.4655 323.7533)" fill="#BC7034" stroke="#99501F" stroke-width="2.2612" stroke-miterlimit="10" cx="321.722" cy="90.053" rx="2.968" ry="6.195"/>
			</g>
			<use xlink:href="#SVGID_15_"  overflow="visible" fill="none" stroke="#634E39" stroke-width="2.2612" stroke-miterlimit="10"/>
		</g>
		<path fill="none" stroke="#634E39" stroke-width="2.2612" stroke-miterlimit="10" d="M338.457,113.527
			c0,0,12.72,10.176,21.765,40.137"/>
		<path fill="#A0866D" stroke="#634E39" stroke-width="2.2612" stroke-miterlimit="10" d="M297.189,140.662
			c0,0,8.762,4.805,15.546,0c6.241-4.421,36.645-37.31,41.47-42.545c0.355-0.385,0.275-0.969-0.162-1.258
			c-2.39-1.58-9.449-5.764-12.477-2.27c-2.415,2.787-11.793,16.444-21.307,27.644C313.83,129.8,305.957,136.004,297.189,140.662
			L297.189,140.662z"/>
		<path fill="#DBC2B2" stroke="#997D71" stroke-width="2.2612" stroke-miterlimit="10" d="M298.885,110.701l3.628-0.202
			c4.188-0.233,8.294,1.228,11.394,4.053l5.191,4.731c0.729,0.664,1.666,1.053,2.651,1.1l2.307,0.11
			c1.326,0.063,2.605-0.499,3.454-1.519c0,0,1.451-1.26,1.76-2.056c0.321-0.826,0.126-2.747-0.283-3.533
			c-1.448-2.789-9.249-8.594-9.249-8.594c-2.876-2.387-6.518-3.652-10.254-3.561h0l-3.251,0.848c0,0-2.261-3.392,2.685-4.522h2.053
			c3.346,0,6.602,1.085,9.279,3.093l2.579,1.934c0.054,0.04,0.106,0.084,0.155,0.13c0,0,3.544,2.434,6.29,5.334
			c4.519,4.772,3.966,8.464,3.966,8.464c-0.342,1.339-0.829,2.65-1.766,3.61l-2.359,2.42c-1.069,1.097-2.559,1.68-4.089,1.601
			l-2.658-0.137c-2.033-0.105-3.978-0.867-5.542-2.17l-4.94-4.117c-2.915-2.429-6.613-3.714-10.406-3.617l-5.14,0.132
			C296.341,114.234,295.776,111.266,298.885,110.701z"/>
		<path fill="#DBC2B2" stroke="#997D71" stroke-width="2.2612" stroke-miterlimit="10" d="M287.698,121.626l3.628,0.209
			c4.188,0.242,8.102,2.157,10.863,5.314l4.623,5.287c0.649,0.742,1.537,1.235,2.51,1.392l2.28,0.37
			c1.31,0.212,2.644-0.202,3.604-1.119c0,0,1.585-1.088,1.981-1.844c0.412-0.785,0.435-2.715,0.118-3.543
			c-1.124-2.935-8.219-9.583-8.219-9.583c-2.588-2.696-6.064-4.364-9.787-4.696l0,0l-3.326,0.475c0,0-1.864-3.626,3.179-4.19
			l2.039,0.232c3.325,0.378,6.437,1.824,8.871,4.121l2.344,2.213c0.049,0.046,0.095,0.095,0.139,0.147c0,0,3.246,2.819,5.647,6.011
			c3.951,5.252,2.985,8.858,2.985,8.858c-0.491,1.292-1.123,2.539-2.162,3.388l-2.617,2.138c-1.186,0.969-2.732,1.38-4.243,1.129
			l-2.625-0.437c-2.009-0.334-3.855-1.31-5.262-2.782l-4.444-4.648c-2.622-2.742-6.151-4.437-9.93-4.769l-5.122-0.45
			C284.771,124.849,284.545,121.836,287.698,121.626z"/>
		<g>
			<path fill="#AF9A8C" stroke="#70584D" stroke-width="2.2612" stroke-miterlimit="10" d="M339.022,161.579
				c0,0-6.861-25.197-11.721-34.001l-1.782-6.064c-0.276-0.938-0.055-1.924,0.574-2.563c0,0,2.53-3.412,3.767-3.212
				c1.903,0.306,4.145,6.679,4.145,6.679s5.477,1.518,17.64,29.751L339.022,161.579z"/>
			
				<line fill="#AF9A8C" stroke="#70584D" stroke-width="2.2612" stroke-miterlimit="10" x1="334.004" y1="122.417" x2="330.261" y2="125.453"/>
		</g>
		<g>
			<path fill="#333335" stroke="#5E5E66" stroke-width="2.2612" stroke-miterlimit="10" d="M320.345,176.348
				c0,0,3.785-2.644-5.532-19.096c-4.076-5.713-5.863-9.648-5.771-13.05c0.055-2.035-1.276-3.834-3.1-4.705
				c-2.219-1.059-5.62-2.574-10.638-4.573c-6.115-2.644,0.422-6.871,0-9.107c-0.39-2.066-7.57-3.525-7.57-3.525
				s-4.076-0.881-5.532,6.757c0,0-4.95,2.938-7.57,6.757l-14.376,0.604c-4.354,0.183-8.635,1.188-12.621,2.962l-3.867,1.721
				l10.773,17.04l30.864,23.797l27.661-0.881L320.345,176.348z"/>
			<path fill="#333335" stroke="#5E5E66" stroke-width="2.2612" stroke-miterlimit="10" d="M292.684,130.223
				c-2.621-1.763-6.988-2.938-6.988-2.938"/>
		</g>
		<g>
			<path fill="#AF9A8C" stroke="#70584D" stroke-width="2.2612" stroke-miterlimit="10" d="M323.759,171.754
				c0,0-5.088-23.46-9.328-31.657l-1.355-5.646c-0.21-0.874,0.08-1.792,0.754-2.386c0,0,2.77-3.176,3.993-2.991
				c1.881,0.285,3.674,6.218,3.674,6.218s5.371,1.413,15.546,27.7L323.759,171.754z"/>
			
				<line fill="#AF9A8C" stroke="#70584D" stroke-width="2.2612" stroke-miterlimit="10" x1="321.497" y1="135.292" x2="317.54" y2="138.118"/>
		</g>
		
			<ellipse transform="matrix(-0.8248 -0.5654 0.5654 -0.8248 558.4859 386.5132)" fill="#231F20" cx="339.116" cy="106.743" rx="1.225" ry="3.298"/>
		<g>
			<defs>
				<path id="SVGID_17_" d="M240.177,135.574c0,0,6.784,4.24,17.807,10.741c11.306,1.413,18.938,10.176,18.938,10.176
					c16.394-3.957,25.156,20.634,25.156,20.634c14.981-1.979,35.332-13.285,43.812-20.351c8.48-7.066,11.306-2.261,11.306-2.261
					c3.957-1.696,7.349-8.48,7.349-8.48c7.632-17.242,11.589-15.546,11.589-15.546c7.066,6.501-0.283,27.7-0.283,27.7
					s-8.762,7.349-15.829,10.176c-7.066,2.827-16.959-2.261-16.959-2.261l-9.61,5.088c-3.957,8.762-8.197,10.458-8.197,10.458
					c-52.291,22.33-102.321-19.786-102.321-19.786s-2.544-11.306,1.413-13.002C224.348,148.859,225.196,129.921,240.177,135.574z"/>
			</defs>
			<use xlink:href="#SVGID_17_"  overflow="visible" fill="#5F5345"/>
			<clipPath id="SVGID_18_">
				<use xlink:href="#SVGID_17_"  overflow="visible"/>
			</clipPath>
			<g clip-path="url(#SVGID_18_)">
				<path fill="none" stroke="#84786B" stroke-width="2.2612" stroke-miterlimit="10" d="M357.677,149.707
					c0,0,21.199-3.675,21.482-14.415"/>
				<path fill="none" stroke="#84786B" stroke-width="2.2612" stroke-miterlimit="10" d="M354.851,152.816l3.044,4.414
					c1.647,2.388,4.758,3.236,7.388,2.013c4.26-1.98,8.843-4.219,13.594-11.515"/>
			</g>
			<use xlink:href="#SVGID_17_"  overflow="visible" fill="none" stroke="#84786B" stroke-width="2.2612" stroke-miterlimit="10"/>
		</g>
		<path fill="none" stroke="#84786B" stroke-width="2.2612" stroke-miterlimit="10" d="M224.546,149.33
			c0,0,6.399,1.455,12.378,5.579c8.627,5.951,28.882,25.662,66.766,22.687"/>
	</g>
	<g>
		<path fill="#9EA0AC" stroke="#646877" stroke-width="2.2612" stroke-miterlimit="10" d="M391.791,256.145
			c0,0,4.899-0.377,8.48,2.827c3.58,3.203,15.452-8.48,20.54-12.814c4.937-4.206,24.959-18.882,38.882-0.631
			c0.779,1.021,0.75,2.464,0.002,3.507l-26.07,36.318l-48.617-13.379L391.791,256.145z"/>
		<path fill="#646877" stroke="#494D5B" stroke-width="2.2612" stroke-miterlimit="10" d="M397.999,267.327
			c0,0,4.389-0.771,8.223,2.088c3.835,2.858,12.526-9.602,16.373-14.28c3.733-4.54,19.298-20.609,35.255-3.795
			c0.892,0.94,1.127,2.363,0.634,3.449l-17.164,37.85l-46.637-9.19L397.999,267.327z"/>
		<g>
			<defs>
				<path id="SVGID_19_" d="M303.791,338.115l15.263,6.784c0,0,29.396,13.002,84.231-27.135c0,0,53.139-5.088,58.792-26.004
					c0,0,1.131-11.306,0-40.702c0,0-2.827-11.872-9.61-7.349c-3.582,2.388-10.176,22.612-26.004,26.57
					c0,0-11.872-3.392-24.874-2.827c0,0-0.794-6.353-7.042-11.739c-2.227-1.919-5.416-2.241-7.896-0.662
					c-0.584,0.372-1.23,0.784-1.932,1.233c-5.177-1.081-8.495,2.62-11.772,4.761c-5.088,1.696-17.902,11.683-21.036,17.168
					c-8.561,6.037-16.696,12.128-22.116,16.99C312.836,310.415,280.613,317.198,303.791,338.115z"/>
			</defs>
			<use xlink:href="#SVGID_19_"  overflow="visible" fill="#83CBC9"/>
			<clipPath id="SVGID_20_">
				<use xlink:href="#SVGID_19_"  overflow="visible"/>
			</clipPath>
			<g clip-path="url(#SVGID_20_)">
				<g>
					<g>
						<g>
							<path fill="#FFFFFF" d="M351.467,337.117c14.295-13.494,28.782-27.148,46.004-36.878
								c16.632-9.397,35.313-15.287,50.172-27.646c7.109-5.913,13.004-13.161,16.434-21.801c0.408-1.028-1.253-1.474-1.657-0.457
								c-6.746,16.993-22.924,27.29-38.634,35.034c-8.92,4.397-18.093,8.292-26.777,13.157
								c-8.115,4.546-15.681,10.001-22.875,15.884c-8.295,6.783-16.095,14.141-23.883,21.492
								C349.446,336.663,350.663,337.877,351.467,337.117L351.467,337.117z"/>
						</g>
					</g>
					<g>
						<g>
							<path fill="#FFFFFF" d="M393.624,329.301c10.834-11.372,19.671-24.951,32.897-33.818c6.196-4.154,12.611-7.551,18.1-12.708
								c5.296-4.975,9.587-10.948,11.785-17.922c0.333-1.057-1.325-1.51-1.657-0.457c-2.311,7.332-7.073,13.45-12.792,18.481
								c-5.836,5.135-12.783,8.396-18.969,13.008c-11.976,8.928-20.371,21.485-30.58,32.201
								C391.646,328.886,392.859,330.103,393.624,329.301L393.624,329.301z"/>
						</g>
					</g>
					<g>
						<g>
							<path fill="#FFFFFF" d="M424.711,322.317c15.216-15.909,26.505-36.941,31.703-58.312c0.261-1.074-1.395-1.533-1.657-0.457
								c-5.127,21.08-16.249,41.858-31.261,57.554C422.732,321.901,423.945,323.118,424.711,322.317L424.711,322.317z"/>
						</g>
					</g>
				</g>
				<path fill="#A9E0DD" stroke="#6FADAA" stroke-width="2.2612" stroke-miterlimit="10" d="M335.744,309.164
					c-3.174,2.018-10.56,7.109-13.769,12.651c0,0,4.899,7.914,18.09,7.537c13.191-0.377,29.554-1.772,36.259,8.536l-35.505,20.484
					l-40.744-12.311l-10.887-29.114l4.899-1.538c0,0,13.567-6.784,19.221-5.653c0,0,6.548-5.074,12.305-6.886
					c0.871-0.274,1.814-0.118,2.611,0.328l7.453,4.174C336.37,307.761,336.416,308.737,335.744,309.164z"/>
				<g>
					<defs>
						<path id="SVGID_21_" d="M322.455,305.044c0,0,5.37,9.328,18.09,8.197c0,0,3.109,3.109,33.353-24.308
							c30.244-27.418,55.118-30.527,55.118-30.527l-42.681-8.197l-39.572,20.069l-8.762,17.525
							C338.001,287.802,326.978,291.477,322.455,305.044z"/>
					</defs>
					<use xlink:href="#SVGID_21_"  overflow="visible" fill="#A9E0DD"/>
					<clipPath id="SVGID_22_">
						<use xlink:href="#SVGID_21_"  overflow="visible"/>
					</clipPath>
					<g clip-path="url(#SVGID_22_)">
						<defs>
							<path id="SVGID_23_" d="M412.057,268.299c-2.982-0.806-5.941-1.198-8.648-1.347c-6.624-0.365-13.148,1.64-18.484,5.58
								l-40.328,29.777c-1.036,0.765-2.448,0.765-3.469-0.021c-1.981-1.526-5.313-3.9-7.742-4.644
								c-0.51-0.156-0.619-0.802-0.205-1.138l7.929-6.442l11.589-11.589c0,0,11.589-14.981,24.874-20.634
								c0,0,7.066-4.805,12.437-4.805l21.765,6.501L412.057,268.299z"/>
						</defs>
						<use xlink:href="#SVGID_23_"  overflow="visible" fill="#6BAAA7"/>
						<clipPath id="SVGID_24_">
							<use xlink:href="#SVGID_23_"  overflow="visible"/>
						</clipPath>
						<g clip-path="url(#SVGID_24_)">
							<path fill="#FFFFFF" stroke="#5A6D6B" stroke-width="1.7185" stroke-miterlimit="10" d="M335.457,292.466
								c0,0,10.317-1.555,23.602,3.392l1.272-2.261c0,0-8.197-6.784-22.471-3.957C337.86,289.639,333.479,290.487,335.457,292.466z"
								/>
							<path fill="#FFFFFF" stroke="#5A6D6B" stroke-width="1.7185" stroke-miterlimit="10" d="M344.608,284.052
								c0,0,9.604-0.23,21.97,6.422l1.184-2.098c0,0-7.63-7.836-20.918-6.842C346.845,281.534,342.766,281.82,344.608,284.052z"/>
							<path fill="#FFFFFF" stroke="#5A6D6B" stroke-width="1.7185" stroke-miterlimit="10" d="M355.896,276.499
								c0,0,8.249,0.169,18.536,7.326l1.117-2.046c0,0-6.166-8.144-17.613-7.702C357.936,274.076,354.424,274.192,355.896,276.499z"
								/>
						</g>
						
							<use xlink:href="#SVGID_23_"  overflow="visible" fill="none" stroke="#457773" stroke-width="2.2612" stroke-miterlimit="10"/>
					</g>
					
						<use xlink:href="#SVGID_21_"  overflow="visible" fill="none" stroke="#6FADAA" stroke-width="2.2612" stroke-miterlimit="10"/>
				</g>
			</g>
			<use xlink:href="#SVGID_19_"  overflow="visible" fill="none" stroke="#46847F" stroke-width="2.2612" stroke-miterlimit="10"/>
		</g>
		<path fill="#FFFFFF" stroke="#6D6E71" stroke-width="1.7185" stroke-miterlimit="10" d="M296.065,328.316
			c0,0,22.236,29.019,80.274,6.03c0,0-40.702,22.989-66.33,11.683C297.196,341.507,296.065,328.316,296.065,328.316z"/>
		<path fill="#FFFFFF" stroke="#6D6E71" stroke-width="1.7185" stroke-miterlimit="10" d="M404.605,317.764
			c0,0,20.085-5.461,35.049-8.668c15.829-3.392,22.424-17.336,22.424-17.336s1.319,1.507,0.188,6.407
			c0,0-1.131,10.176-25.251,16.206C421.088,318.354,404.605,317.764,404.605,317.764z"/>
		<g>
			<circle fill="#D1D3D4" stroke="#5B6163" stroke-width="1.7185" stroke-miterlimit="10" cx="348.365" cy="305.609" r="3.109"/>
			<circle fill="#D1D3D4" stroke="#5B6163" stroke-width="1.7185" stroke-miterlimit="10" cx="357.222" cy="298.355" r="3.109"/>
			<circle fill="#D1D3D4" stroke="#5B6163" stroke-width="1.7185" stroke-miterlimit="10" cx="365.89" cy="291.006" r="3.109"/>
			<circle fill="#D1D3D4" stroke="#5B6163" stroke-width="1.7185" stroke-miterlimit="10" cx="375.312" cy="282.714" r="3.109"/>
			<path fill="#FFFFFF" stroke="#5A6D6B" stroke-width="1.7185" stroke-miterlimit="10" d="M338.143,288.509
				c0,0,5.512,9.469,7.773,15.687c0,0,0.942,2.12,2.45,1.413c1.507-0.707-2.308-12.154-6.124-18.797c0,0-1.979-1.837-4.099-0.565
				C336.023,287.519,338.143,288.509,338.143,288.509z"/>
			<path fill="#FFFFFF" stroke="#5A6D6B" stroke-width="1.7185" stroke-miterlimit="10" d="M347.47,281.725
				c0,0,5.512,9.469,7.773,15.687c0,0,0.942,2.12,2.45,1.413s-2.308-12.154-6.124-18.797c0,0-1.979-1.837-4.098-0.565
				C345.35,280.736,347.47,281.725,347.47,281.725z"/>
			<path fill="#FFFFFF" stroke="#5A6D6B" stroke-width="1.7185" stroke-miterlimit="10" d="M358.136,274.868
				c0,0,4.648,9.276,6.449,15.368c0,0,0.772,2.077,2.191,1.385c1.419-0.692-1.578-11.907-4.792-18.414c0,0-1.739-1.8-3.747-0.554
				S358.136,274.868,358.136,274.868z"/>
			<path fill="#FFFFFF" stroke="#5A6D6B" stroke-width="1.7185" stroke-miterlimit="10" d="M367.734,267.79
				c0,0,4.581,8.74,6.356,14.479c0,0,0.761,1.957,2.16,1.304c1.399-0.652-1.555-11.218-4.723-17.349c0,0-1.714-1.696-3.693-0.522
				C365.855,266.877,367.734,267.79,367.734,267.79z"/>
		</g>
		<g>
			<path fill="#FFFFFF" stroke="#5A6D6B" stroke-width="1.7185" stroke-miterlimit="10" d="M388.974,300.05
				c-0.754-15.829-6.407-30.527-8.668-34.673l-2.45,0.377c0,0-0.189,24.12-1.884,34.861c-1.696,10.741,3.769,14.321,5.842,15.075
				C383.886,316.444,389.727,315.879,388.974,300.05z M382.378,308.342c-5.465,0-0.189-26.193-0.189-26.193
				S387.843,308.342,382.378,308.342z"/>
			<path fill="#FFFFFF" stroke="#5A6D6B" stroke-width="1.7185" stroke-miterlimit="10" d="M380.494,265.943
				c0,0,2.638,12.06,0.754,22.047"/>
			<path fill="none" stroke="#5A6D6B" stroke-width="1.7185" stroke-miterlimit="10" d="M375.971,302.312
				c0,0,3.015,7.914,6.784,7.914c3.769,0,6.407-8.291,6.407-8.291"/>
			<path fill="#FFFFFF" stroke="#5A6D6B" stroke-width="1.7185" stroke-miterlimit="10" d="M351.475,277.25l4.334-1.696
				c0,0,0.565-4.711,6.595-3.58l3.957-4.334c0,0,0.565-3.203,4.711-2.073c0,0,2.261-2.261,5.276-2.073l4.334-3.58
				c0,0-6.595-6.03-8.857,0.942C371.826,260.856,352.04,268.77,351.475,277.25z"/>
			<path fill="#FFFFFF" stroke="#5A6D6B" stroke-width="1.7185" stroke-miterlimit="10" d="M381.248,264.059
				c0,0,20.351,26.381,20.54,42.21l2.261,4.146c0,0-0.754,1.884-2.073,0.754l-2.45-4.522c0,0-3.987-1.077-7.538-13.756
				c-3.957-14.133-11.683-27.512-11.683-27.512L381.248,264.059z"/>
			<path fill="#FFFFFF" stroke="#5A6D6B" stroke-width="1.7185" stroke-miterlimit="10" d="M375.406,263.871
				c0,0,1.884,0,2.073,2.638c0.188,2.638,5.842,2.073,5.653-1.131s-0.476-3.988-1.508-5.088
				C380.328,258.908,377.102,256.898,375.406,263.871z"/>
		</g>
	</g>
</g>
</svg>
