<?xml version="1.0" encoding="utf-8"?>
<!-- Generator: Adobe Illustrator 18.1.1, SVG Export Plug-In . SVG Version: 6.00 Build 0)  -->
<svg version="1.1" id="Layer_1" xmlns="http://www.w3.org/2000/svg" xmlns:xlink="http://www.w3.org/1999/xlink" x="0px" y="0px" viewBox="0 0 500 500" enable-background="new 0 0 500 500" xml:space="preserve"><clipPath id="SVGID_8_">
						<use xlink:href="#SVGID_7_" overflow="visible"/>
					</clipPath><clipPath id="SVGID_6_">
						<use xlink:href="#SVGID_5_" overflow="visible"/>
					</clipPath><clipPath id="SVGID_4_">
					<use xlink:href="#SVGID_3_" overflow="visible"/>
				</clipPath><clipPath id="SVGID_2_">
					<use xlink:href="#SVGID_1_" overflow="visible"/>
				</clipPath>
<symbol id="New_Symbol_9" viewBox="-70.7 -35.9 141.5 72.1">
	<g id="New_Symbol_5_5_">
		<g>
			<path fill="#E5B053" stroke="#D19800" stroke-miterlimit="10" d="M-26.9,35.5c-6.3,0.5-12.6,0.1-18.7-1.1
				c-2.1-0.4-4.6-1.2-5.3-3.3c-0.7-1.9,0.5-4,2.2-5.1c1.1-0.7,2.3-1.1,3.6-1.3C-16.3,16.1,12.6,7.5,41.6-1
				c7.9-3.4,16.9-4.2,25.3-2.3c1.4,0.3,3,0.9,3.3,2.3c0.2,0.9-0.2,1.8-0.9,2.5c-0.7,0.6-1.5,1-2.4,1.4c-1.8,0.8-3.6,1.6-5.4,2.4
				c-25.8,9.5-51.5,19-77.3,28.5C-19.4,34.6-23.2,35.2-26.9,35.5z"/>
			
				<line fill="#EFC062" stroke="#D19800" stroke-width="1.5" stroke-linecap="round" stroke-linejoin="round" stroke-miterlimit="10" x1="41.9" y1="8.7" x2="38.3" y2="4"/>
			
				<line fill="#EFC062" stroke="#D19800" stroke-width="1.5" stroke-linecap="round" stroke-linejoin="round" stroke-miterlimit="10" x1="66.8" y1="-1.3" x2="60.7" y2="-22.1"/>
			
				<line fill="#EFC062" stroke="#D19800" stroke-width="1.5" stroke-linecap="round" stroke-linejoin="round" stroke-miterlimit="10" x1="60.7" y1="-22.1" x2="58.8" y2="-1.3"/>
			
				<line fill="#EFC062" stroke="#D19800" stroke-width="1.5" stroke-linecap="round" stroke-linejoin="round" stroke-miterlimit="10" x1="58.8" y1="-1.3" x2="53" y2="-20.2"/>
			
				<line fill="#EFC062" stroke="#D19800" stroke-width="1.5" stroke-linecap="round" stroke-linejoin="round" stroke-miterlimit="10" x1="56.5" y1="-1.9" x2="49.5" y2="-21.6"/>
			<path fill="#EFC062" stroke="#D19800" stroke-miterlimit="10" d="M66.1-25.8c0.6,0,0.9,0.8,0.4,1.2c-1.6,1.3-3.8,2-5.9,2.5
				C48-19,35.3-15.8,22.6-12.6c-4.4-0.8-12.2-1.9-16.6-2.7C18.8-18.8,49.4-25,49.4-25C54.5-25.6,62.7-25.8,66.1-25.8z"/>
			<path fill="#D3A759" stroke="#D19800" stroke-miterlimit="10" d="M-50.5-12.2c0.3,0,0.6,0,0.8,0c-1.4-1.3-2.8-2.6-4.2-3.9
				c-0.5,0-0.9,0.1-1.4,0.1c0.1,1.3,0.3,2.6,0.4,3.9C-53.3-12.1-51.9-12.2-50.5-12.2z"/>
			<path fill="#4E4E4E" stroke="#989898" stroke-width="0.5" stroke-miterlimit="10" d="M-52.6-16.8c0-1.2-1-2.2-2.2-2.2
				c-1.2,0-2.2,1-2.2,2.2c0,1.2,1,2.2,2.2,2.2C-53.6-14.5-52.6-15.5-52.6-16.8z"/>
			<path fill="#4E4E4E" stroke="#989898" stroke-width="0.5" stroke-miterlimit="10" d="M-54-16.8c0-0.5-0.4-0.9-0.9-0.9
				c-0.5,0-0.9,0.4-0.9,0.9c0,0.5,0.4,0.9,0.9,0.9C-54.4-15.9-54-16.3-54-16.8z"/>
			
				<path fill="#9ED8BE" stroke="#375146" stroke-width="0.6921" stroke-linecap="round" stroke-linejoin="round" stroke-miterlimit="10" d="
				M7,9.6c-0.9,1.1-2,2.2-3.1,3.1C1,12-1.2,9.4-1.7,6.5C1.5,7.2,4.6,8,7.7,8.7C7.5,9,7.2,9.3,7,9.6z"/>
			
				<path fill="#9ED8BE" stroke="#375146" stroke-width="0.6921" stroke-linecap="round" stroke-linejoin="round" stroke-miterlimit="10" d="
				M-11.3,6.6c0.5-0.5,1-1,1.4-1.6c-3-0.3-5.9-0.5-8.9-0.8c0.1,2.3,1.8,4.5,4.1,5.1C-13.4,8.6-12.3,7.7-11.3,6.6z"/>
			<g>
				<defs>
					<path id="SVGID_1_" d="M34.1,9c-5.5,2.1-11.6,2.2-17.5,1.8c-6.1-0.3-12.2-1.1-18.2-2C-2,8.4-2.5,8-3,7.7C-4.3,6.6-6,5.9-7.7,6
						c-0.3,0-0.7,0.1-1,0.2c-1.9,0.1-4.7,0.3-6.6,0.5c-1.3-0.2-2.7-0.4-4-0.7c-0.2-0.3-0.5-0.6-0.7-0.8c-0.7-0.6-1.6-0.8-2.4-0.4
						c-0.2,0.1-0.5,0.7-2.2,0.9c-7.6-1.3-13.6-2.9-21.3-4.1c-1.1,5-2.8,9.9-4.9,14.5c-1.2,2.6-2.9,5.5-6,5.4c-1.5,0-2.8-0.9-3.8-2
						c-1-1.2-1.5-2.5-1.9-3.9c-0.3-1.1-0.4-2.3-0.6-3.5c-0.7-5.2-1.4-10.4-2-15.6c-0.4-3,1-6,3.7-7.5c0,0,0,0,0.1,0
						c2.6-1.4,5.5-1.9,8.4-2.3c27.9-4.2,56.3-4.4,84.2-0.4C32.9-1.7,32.7-3.2,34.1,9z"/>
				</defs>
				<use xlink:href="#SVGID_1_" overflow="visible" fill="#EFC062"/>
				
				<g clip-path="url(#SVGID_2_)">
					<g>
						<line fill="none" stroke="#D19800" stroke-miterlimit="10" x1="-59.7" y1="3.4" x2="-70.7" y2="2.5"/>
						<line fill="none" stroke="#D19800" stroke-miterlimit="10" x1="-58.7" y1="6.7" x2="-69.5" y2="5.9"/>
						<line fill="none" stroke="#D19800" stroke-miterlimit="10" x1="-58.2" y1="10.2" x2="-69.2" y2="9.2"/>
						<line fill="none" stroke="#D19800" stroke-miterlimit="10" x1="-57.7" y1="13.5" x2="-68.7" y2="12.6"/>
						<path fill="none" stroke="#D19800" stroke-miterlimit="10" d="M-70.7-1l11,0.9l2.5,17.2c0,0,0,0.1,0,0.2
							c-5.2-0.5-13.5-1.3-13.5-1.3"/>
					</g>
					<path fill="#ED1C24" stroke="#BE1E2D" stroke-width="1.0305" stroke-miterlimit="10" d="M-21.7-17c-3,0.6-5.3,3.4-6.2,6.5
						s-0.9,6.4-0.8,9.6c0,1.2,0.1,2.5,0.4,3.6c0.4,1.5,1.3,2.7,2.3,3.8c1.6,1.8,3.4,3.2,5.5,4.4l-11.1-2.6c-2-1-3.9-2.4-5.5-4
						c-1-1-1.9-2.2-2.3-3.5c-0.3-1.1-0.4-2.2-0.4-3.3c-0.1-3-0.1-6,0.8-8.8s3.2-5.4,6.3-6L-21.7-17z"/>
				</g>
				<use xlink:href="#SVGID_1_" overflow="visible" fill="none" stroke="#D19800" stroke-miterlimit="10"/>
			</g>
			<path fill="#EFC062" stroke="#D19800" stroke-miterlimit="10" d="M29.4-15.3c-3.2-0.2-6.2,5.7-6.8,13.3
				c-0.6,7.6,1.5,13.9,4.7,14.1l8,0.5l2-26.1L29.4-15.3z"/>
			<path opacity="0.25" fill="#D9EDF8" stroke="#FFFFFF" stroke-miterlimit="10" enable-background="new    " d="M44.8,0.8
				c0.9-9.5-2.5-17.6-7.5-18.1c-5-0.5-9.8,6.9-10.6,16.4s2.5,17.6,7.5,18.1C39.2,17.7,44,10.3,44.8,0.8z"/>
			<g>
				<defs>
					<path id="SVGID_3_" d="M41.8,0c0.5-7.2-1.5-13.2-4.5-13.5c-3-0.2-5.9,5.4-6.5,12.6c-0.5,7.2,1.5,13.2,4.5,13.5
						C38.3,12.8,41.2,7.2,41.8,0z"/>
				</defs>
				<use xlink:href="#SVGID_3_" overflow="visible" fill="#DD9F17"/>
				
				<path clip-path="url(#SVGID_4_)" fill="#563602" stroke="#D19800" stroke-miterlimit="10" d="M38.3,0c0.5-7.2-1.5-13.2-4.5-13.5
					c-3-0.2-5.9,5.4-6.5,12.6c-0.5,7.2,1.5,13.2,4.5,13.5C34.8,12.8,37.7,7.2,38.3,0z"/>
				<use xlink:href="#SVGID_3_" overflow="visible" fill="none" stroke="#D19800" stroke-miterlimit="10"/>
			</g>
			<g>
				<path fill="#B4B4B4" stroke="#4E4E4E" stroke-width="0.6921" stroke-miterlimit="10" d="M35.6-0.4L35.6-0.4
					C35.6-0.5,35.6-0.4,35.6-0.4z"/>
				<path fill="#B4B4B4" stroke="#4E4E4E" stroke-width="0.6921" stroke-miterlimit="10" d="M43.8,0.2C43.8,0.2,43.8,0.2,43.8,0.2
					L43.8,0.2c-0.1,0.4-0.7,3.2-7.6,3.2c-2.2-0.2-1.6-7.7,0.6-7.6C43.5-3.1,43.8-0.2,43.8,0.2L43.8,0.2C43.8,0.2,43.8,0.2,43.8,0.2z
					"/>
			</g>
			
				<line fill="#EFC062" stroke="#D19800" stroke-width="2" stroke-linecap="round" stroke-linejoin="round" stroke-miterlimit="10" x1="-25" y1="-6.4" x2="-12" y2="26.8"/>
			
				<line fill="#EFC062" stroke="#D19800" stroke-width="2" stroke-linecap="round" stroke-linejoin="round" stroke-miterlimit="10" x1="-25" y1="-6.4" x2="-25" y2="23.8"/>
			
				<line fill="#EFC062" stroke="#D19800" stroke-width="2" stroke-linecap="round" stroke-linejoin="round" stroke-miterlimit="10" x1="-25" y1="23.8" x2="-33.7" y2="-4.3"/>
			
				<line fill="#EFC062" stroke="#D19800" stroke-width="2" stroke-linecap="round" stroke-linejoin="round" stroke-miterlimit="10" x1="-28.1" y1="22.5" x2="-36.8" y2="-4.3"/>
			
				<line fill="#EFC062" stroke="#D19800" stroke-width="1.5" stroke-linecap="round" stroke-linejoin="round" stroke-miterlimit="10" x1="6" y1="14" x2="11.5" y2="4"/>
			
				<line fill="#EFC062" stroke="#D19800" stroke-width="1.5" stroke-linecap="round" stroke-linejoin="round" stroke-miterlimit="10" x1="12.8" y1="17" x2="18.3" y2="5.2"/>
			<g>
				<path fill="#4E4E4E" stroke="#989898" stroke-width="0.5" stroke-miterlimit="10" d="M35.8-30.8c-0.1-2.8-1.8-5-3.8-4.9
					c-2,0.1-3.5,2.4-3.3,5.2s1.8,5,3.8,4.9C34.4-25.7,35.9-28,35.8-30.8z"/>
				<g>
					<defs>
						<path id="SVGID_5_" d="M33.2-30.7c-0.1-2-1.1-3.6-2.2-3.6s-1.9,1.7-1.8,3.8s1.1,3.6,2.2,3.6C32.4-27,33.3-28.7,33.2-30.7z"/>
					</defs>
					<use xlink:href="#SVGID_5_" overflow="visible" fill="#4E4E4E"/>
					
					<path clip-path="url(#SVGID_6_)" fill="#4E4E4E" stroke="#989898" stroke-width="0.5" stroke-miterlimit="10" d="M33.9-30.7
						c-0.1-1.5-0.9-2.7-1.8-2.7c-0.9,0-1.6,1.3-1.6,2.8c0.1,1.5,0.9,2.7,1.8,2.7C33.3-27.9,34-29.2,33.9-30.7z"/>
					<use xlink:href="#SVGID_5_" overflow="visible" fill="none" stroke="#989898" stroke-width="0.5" stroke-miterlimit="10"/>
				</g>
			</g>
			
				<line fill="#EFC062" stroke="#D19800" stroke-width="1.2" stroke-linecap="round" stroke-linejoin="round" stroke-miterlimit="10" x1="8.2" y1="-23.2" x2="16.2" y2="-10.5"/>
			<line fill="#EFC062" stroke="#D19800" stroke-miterlimit="10" x1="6.9" y1="-12" x2="6.8" y2="-11.9"/>
			
				<line fill="#EFC062" stroke="#D19800" stroke-width="1.2" stroke-linecap="round" stroke-linejoin="round" stroke-miterlimit="10" x1="6.8" y1="-11.9" x2="10.3" y2="-19.9"/>
			
				<line fill="#EFC062" stroke="#D19800" stroke-width="1.2" stroke-linecap="round" stroke-linejoin="round" stroke-miterlimit="10" x1="25.8" y1="-14.2" x2="31.9" y2="-28.7"/>
			
				<line fill="#EFC062" stroke="#D19800" stroke-width="1.2" stroke-linecap="round" stroke-linejoin="round" stroke-miterlimit="10" x1="9.1" y1="-21.8" x2="30.4" y2="-25.2"/>
			
				<line fill="#EFC062" stroke="#D19800" stroke-width="1.2" stroke-linecap="round" stroke-linejoin="round" stroke-miterlimit="10" x1="23" y1="-14.8" x2="29.5" y2="-23.2"/>
			<path fill="#EFC062" stroke="#D19800" stroke-miterlimit="10" d="M-31.3-2.3c-5.1,0.9-10.2,1.7-15.4,2.1c-2,0.1-4.2,0.2-6-0.8
				c-0.7-0.4-1.3-0.9-1.7-1.6c-0.6-0.9,0-2.2,1.1-2.4l35.4-6.8c6.5-0.3,13-0.5,19.5-0.8c1.7-0.1,3.3-0.1,4.9,0.4
				c0.7,0.2,1.3,0.6,1.9,1c0.8,0.6,0.4,1.8-0.5,2C-4.3-7.1-16.6-4.9-28.9-2.7C-29.7-2.6-30.5-2.5-31.3-2.3z"/>
			<g>
				<path fill="#4E4E4E" stroke="#989898" stroke-width="0.5" stroke-miterlimit="10" d="M10.9-27.1c-0.2-3.6-2.4-6.4-4.9-6.2
					c-2.5,0.1-4.4,3.1-4.3,6.7s2.4,6.4,4.9,6.2S11.1-23.6,10.9-27.1z"/>
				<g>
					<defs>
						<path id="SVGID_7_" d="M7.6-27c-0.1-2.6-1.4-4.6-2.8-4.6s-2.5,2.2-2.4,4.8c0.1,2.6,1.4,4.6,2.8,4.6S7.7-24.4,7.6-27z"/>
					</defs>
					<use xlink:href="#SVGID_7_" overflow="visible" fill="#4E4E4E"/>
					
					<path clip-path="url(#SVGID_8_)" fill="#4E4E4E" stroke="#989898" stroke-width="0.5" stroke-miterlimit="10" d="M8.6-27
						c-0.1-2-1.1-3.5-2.3-3.4s-2.1,1.7-2,3.6c0.1,2,1.1,3.5,2.3,3.4C7.8-23.4,8.7-25.1,8.6-27z"/>
					<use xlink:href="#SVGID_7_" overflow="visible" fill="none" stroke="#989898" stroke-width="0.5" stroke-miterlimit="10"/>
				</g>
			</g>
		</g>
	</g>
</symbol>
<use xlink:href="#New_Symbol_9" width="141.5" height="72.1" id="XMLID_7_" x="-70.7" y="-35.9" transform="matrix(3.1202 0 0 -3.1202 244.2323 237.2941)" overflow="visible"/>
</svg>
