<?xml version="1.0" encoding="utf-8"?>
<!-- Generator: Adobe Illustrator 18.1.1, SVG Export Plug-In . SVG Version: 6.00 Build 0)  -->
<svg version="1.1" id="Layer_1" xmlns="http://www.w3.org/2000/svg" xmlns:xlink="http://www.w3.org/1999/xlink" x="0px" y="0px"
	 viewBox="0 0 220 220" enable-background="new 0 0 220 220" xml:space="preserve">
<g>
	<g>
		<path fill="#F3EB85" stroke="#9A9143" stroke-width="1.0546" stroke-miterlimit="10" d="M155.8,39.2c0,0,3,2.1,6.7,2.2
			c0,0-0.4,3.3-5.4,1.6l-2.8-1.7L155.8,39.2z"/>
		<g>
			<path fill="#F3EB85" d="M155.8,39.2c0,0,1,3,4.8,3"/>
			<path fill="#9A9143" d="M155.8,39.2c0,0,0.3,0.3,0.7,0.7c0.2,0.2,0.4,0.4,0.7,0.6c0.3,0.2,0.5,0.4,0.8,0.6
				c0.3,0.2,0.6,0.3,0.9,0.5c0.3,0.1,0.6,0.3,0.8,0.4c0.3,0.1,0.5,0.2,0.6,0.3c0.2,0.1,0.3,0.1,0.3,0.1s-0.1,0-0.3,0.1
				c-0.2,0-0.4,0.1-0.7,0.1c-0.3,0-0.7,0-1-0.1c-0.4-0.1-0.8-0.2-1.1-0.5c-0.7-0.4-1.2-1.1-1.4-1.7
				C155.8,39.6,155.8,39.2,155.8,39.2z"/>
		</g>
		<g>
			<defs>
				<path id="SVGID_1_" d="M71,101.1c-0.6,3.4-2,6.6-3.9,9.4c4.7,0.3,8.9-3.1,10.8-7.3c1.9-4.1,1.9-8.8,1.5-13.2
					c-0.4-4.5-1.2-8.9-1-13.4c0-1.1,0.2-2.2,0.9-3c0.7-0.7,2-0.9,2.6-0.1c0.5-0.8,0.9-1.7,1.4-2.5c-1.1-1.7-3.5-2.5-5.5-2.1
					c-2.2,0.4-4.1,2-5.4,3.8s-2.1,4-2.9,6.1c-2.3,6.1-4.5,12.7-2.9,19c0.7-1.5,1.5-2.9,2.2-4.4c-1,3.1-0.9,6.5,0.4,9.4
					c0.7-1.3,1.4-2.6,2.2-3.9C71.2,99.6,71.1,100.3,71,101.1z"/>
			</defs>
			<use xlink:href="#SVGID_1_"  overflow="visible" fill="#F3EB85"/>
			<clipPath id="SVGID_2_">
				<use xlink:href="#SVGID_1_"  overflow="visible"/>
			</clipPath>
			<g clip-path="url(#SVGID_2_)">
				<g>
					<path fill="#F3EB85" d="M74.6,84.6c0,0,2.5,11.5,0,18.1"/>
					<path fill="#9A9143" d="M74.6,84.6c0,0,0.1,0.3,0.3,0.8c0.1,0.5,0.4,1.2,0.5,2c0.2,0.8,0.4,1.8,0.5,2.9
						c0.2,1.1,0.2,2.2,0.3,3.4c0,0.6,0,1.2,0,1.7c0,0.6-0.1,1.1-0.1,1.7c-0.1,0.5-0.1,1.1-0.2,1.6c-0.1,0.5-0.2,1-0.3,1.4
						c-0.2,0.8-0.5,1.5-0.7,2c-0.2,0.5-0.3,0.7-0.3,0.7s0-0.3,0.1-0.8c0-0.2,0.1-0.5,0.2-0.9c0-0.3,0.1-0.7,0.1-1.2
						c0-0.4,0.1-0.9,0.1-1.4c0-0.5,0-1,0.1-1.5c0-1.1,0-2.2,0-3.3c0-1.1-0.1-2.3-0.2-3.3c-0.1-1.1-0.1-2.1-0.2-2.9
						C74.7,85.8,74.6,84.6,74.6,84.6z"/>
				</g>
				<g>
					<path fill="#F3EB85" d="M70,87.3c0,0-1.4-6.5,2.2-11.4"/>
					<path fill="#9A9143" d="M70,87.3c0,0-0.3-0.7-0.5-1.8c-0.1-0.6-0.2-1.2-0.2-1.9c0-0.7,0-1.5,0.2-2.2c0.1-0.8,0.3-1.5,0.6-2.2
						c0.1-0.3,0.3-0.7,0.4-1c0.1-0.3,0.3-0.6,0.5-0.8c0.3-0.5,0.6-0.9,0.9-1.1c0.2-0.2,0.4-0.4,0.4-0.4s-0.1,0.2-0.2,0.5
						c-0.1,0.1-0.1,0.3-0.2,0.5c-0.1,0.2-0.2,0.4-0.3,0.7c-0.2,0.5-0.4,1.1-0.6,1.8c-0.1,0.3-0.2,0.7-0.2,1
						c-0.1,0.3-0.1,0.7-0.2,1.1c-0.1,0.7-0.2,1.4-0.3,2.1c-0.1,0.7-0.1,1.3-0.1,1.9C70,86.5,70,87.3,70,87.3z"/>
				</g>
				<g>
					<path fill="#F3EB85" d="M72.2,86.8c0,0,0.8,6.1,0,7.7"/>
					<path fill="#9A9143" d="M72.2,86.8c0,0,0.2,0.5,0.4,1.2c0.2,0.7,0.4,1.7,0.4,2.7c0,0.5,0,1,0,1.4c0,0.5-0.1,0.9-0.2,1.3
						c-0.1,0.4-0.2,0.7-0.4,0.9c-0.1,0.2-0.2,0.3-0.2,0.3s0-0.1,0-0.3c0-0.2,0-0.5,0-0.9c0-0.4-0.1-0.8-0.1-1.2
						c0-0.4-0.1-0.9-0.1-1.4c0-0.9,0-1.9,0-2.6C72,87.3,72.2,86.8,72.2,86.8z"/>
				</g>
				<g>
					<path fill="#F3EB85" d="M75.2,71.9c0,0,3.1-4.6,8.1,0"/>
					<path fill="#9A9143" d="M75.2,71.9c0,0,0-0.1,0.2-0.4c0.1-0.2,0.3-0.6,0.7-0.9c0.2-0.2,0.4-0.3,0.6-0.5
						c0.2-0.2,0.5-0.3,0.7-0.4c0.3-0.1,0.6-0.2,0.9-0.3c0.3-0.1,0.6-0.1,1-0.1c0.3,0.1,0.7,0.1,1,0.2c0.3,0.1,0.6,0.2,0.9,0.3
						c0.5,0.3,1,0.6,1.3,0.9c0.4,0.3,0.6,0.6,0.7,0.8c0.2,0.2,0.2,0.3,0.2,0.3s-0.1-0.1-0.4-0.2c-0.2-0.1-0.5-0.3-0.9-0.5
						c-0.2-0.1-0.4-0.2-0.6-0.3c-0.2-0.1-0.5-0.2-0.7-0.3c-0.2-0.1-0.5-0.1-0.7-0.2c-0.3-0.1-0.5-0.1-0.8-0.1c-0.3,0-0.5,0-0.8,0
						c-0.3,0-0.5,0.1-0.7,0.1c-0.5,0.1-0.9,0.3-1.3,0.5c-0.4,0.2-0.7,0.4-0.9,0.6C75.3,71.8,75.2,71.9,75.2,71.9z"/>
				</g>
				<g>
					<path fill="#F3EB85" d="M78.1,71.9c0,0,2.6-1.7,6.7,1"/>
					<path fill="#9A9143" d="M78.1,71.9c0,0,0.3-0.4,1-0.7c0.3-0.1,0.7-0.3,1.2-0.3c0.4-0.1,0.9,0,1.4,0.1c0.9,0.2,1.8,0.6,2.3,1.1
						c0.3,0.2,0.5,0.4,0.6,0.6c0.1,0.2,0.2,0.2,0.2,0.2s-0.1,0-0.3-0.1c-0.2,0-0.5-0.1-0.8-0.2c-0.2,0-0.3-0.1-0.5-0.2
						c-0.2,0-0.4-0.1-0.6-0.2c-0.2-0.1-0.4-0.1-0.6-0.1c-0.2-0.1-0.4-0.1-0.6-0.1c-0.4-0.1-0.8-0.1-1.2-0.2c-0.4,0-0.7,0-1.1,0
						C78.6,71.8,78.1,71.9,78.1,71.9z"/>
				</g>
			</g>
			<use xlink:href="#SVGID_1_"  overflow="visible" fill="none" stroke="#9A9143" stroke-width="1.0546" stroke-miterlimit="10"/>
		</g>
		<path fill="#E08227" stroke="#843B1C" stroke-width="1.0546" stroke-miterlimit="10" d="M81.7,72.6c0,0,0.7-2.5,1.9-2.7l3.7-0.6
			l-1.8,7l-3.4-1.9C81.5,74,81.3,73.2,81.7,72.6z"/>
		<g>
			<g>
				<defs>
					<path id="SVGID_3_" d="M123.6,78.4c-0.1,1.9,0.3,3.8,0.9,5.6c1.1,3,2.9,5.8,4.6,8.5c5,8.2,9.1,16.8,13.3,25.5
						c1,2.2,2.1,4.4,3.1,6.5c2.8-0.9,5.5-2.3,7.9-4.2c-1.4-0.8-2.7-1.5-4.1-2.3c-2.8-4-5.3-8.2-7.3-12.7c0.3-3.5-0.4-7.1-1.9-10.2
						c0,0-0.2-0.4-0.5-1c-0.2-3.1,0.4-6.3,0.6-9.4c0.3-3.9,0-8.3-2.7-11.2c-1.9-2-4.8-3-7.6-2.6c-1.8,0.3-3.6,1.2-4.8,2.6
						C124.1,75.1,123.7,76.7,123.6,78.4z"/>
				</defs>
				<use xlink:href="#SVGID_3_"  overflow="visible" fill="#AA7D50"/>
				<clipPath id="SVGID_4_">
					<use xlink:href="#SVGID_3_"  overflow="visible"/>
				</clipPath>
				<path clip-path="url(#SVGID_4_)" fill="#272135" stroke="#4B415E" stroke-width="1.0546" stroke-miterlimit="10" d="
					M140.7,122.1c0,0,2-1.3,10-4.5l7.2,3.3l-15.9,7.2L140.7,122.1z"/>
				<use xlink:href="#SVGID_3_"  overflow="visible" fill="none" stroke="#754D29" stroke-width="1.0546" stroke-miterlimit="10"/>
			</g>
			<circle fill="#AA7D50" stroke="#8D6439" stroke-width="1.0546" stroke-miterlimit="10" cx="134.1" cy="88.3" r="1.9"/>
			<circle fill="#AA7D50" stroke="#8D6439" stroke-width="1.0546" stroke-miterlimit="10" cx="132.3" cy="80.5" r="1.9"/>
		</g>
		<g>
			<g>
				<defs>
					<path id="SVGID_5_" d="M90.3,128.1c-3.1-0.4-6.1-1.3-8.8-2.7c0.7-7.5,2.1-14.9,4.3-22c3.6-3.8,5.6-9.1,5.3-14.4
						c-0.1-2.9-0.9-5.6-1.2-8.5c-0.4-2.8-0.3-5.9,1.1-8.4c0.8-1.5,2.3-2.8,3.9-3.3c2.9-1.1,6.2-0.2,8.3,2c1.2,1.3,2,2.9,2.5,4.6
						c2,6,1.6,12.8-1.1,18.5c-2.7,5.9-7.9,10.7-14,13.1c-1.4,5.3-2.2,10.8-2.3,16.3c1,1.4,1.7,3,2.1,4.7
						C90.4,128.1,90.3,128.1,90.3,128.1z"/>
				</defs>
				<use xlink:href="#SVGID_5_"  overflow="visible" fill="#AA7D50"/>
				<clipPath id="SVGID_6_">
					<use xlink:href="#SVGID_5_"  overflow="visible"/>
				</clipPath>
				<path clip-path="url(#SVGID_6_)" fill="#272135" stroke="#4B415E" stroke-width="1.0546" stroke-miterlimit="10" d="M81.5,120.3
					c0,0,2.3,0.5,10.2,4.2l2.5,7.6L78,125.4L81.5,120.3z"/>
				<use xlink:href="#SVGID_5_"  overflow="visible" fill="none" stroke="#754D29" stroke-width="1.0546" stroke-miterlimit="10"/>
			</g>
			<circle fill="#AA7D50" stroke="#8D6439" stroke-width="1.0546" stroke-miterlimit="10" cx="97.6" cy="88.3" r="1.9"/>
			<circle fill="#AA7D50" stroke="#8D6439" stroke-width="1.0546" stroke-miterlimit="10" cx="97.6" cy="80.5" r="1.9"/>
		</g>
		<path fill="#991B26" stroke="#E83E52" stroke-width="1.0546" stroke-miterlimit="10" d="M161.4,112.5c-6.2,5.1-20.2,14.3-45.3,15
			c-25.1,0.8-39.7-7.5-46.2-12.2c-1.5-1.1-2.8,0.2-2,1.9c5.5,10.4,27.2,19.1,48.4,18.4s42.3-10.6,47.2-21.3
			C164.3,112.5,162.9,111.3,161.4,112.5z"/>
		<g>
			<defs>
				<path id="SVGID_7_" d="M134.5,63.6c0.2-0.3,0.4-0.7,0.6-1c1.3-2.4,1.7-5.2,2-7.9c0.3-2.7,0.6-5.5,1.6-8.1
					c1.9-4.8,5.6-9.1,14.9-10.1c2.1-0.7,4.1-1.6,6.1-2.7c0.3,1.4,0,2.8-0.8,4c-0.7,1.1-1.8,1.9-3.1,2.2c2.3,0.7,3.7,3.2,4.2,5.6
					c0.5,2.6,0.2,5.4,0.9,8c0.5,2,1.6,3.8,2.1,5.8c0.7,2.5,0.4,5.7-2.6,6.7c-0.8,0.3-1.6,0.3-2.5,0.2c-2.4-0.4-4.2-2.2-5.6-4
					c-0.6-0.8-1.5-1.7-2.5-1.5c-0.6,0.1-1.1,0.6-1.3,1.3c1.3,5.1,1.8,10.3,1.6,15.6c-0.1,1.4-0.3,2.7-0.6,4.1
					c-1,3.8-2.4,7.4-4.5,10.8c-1.6,2.6-4.3,4.2-7.3,4.6c-1.2,0.1-2.3,0.2-3.5,0.1c-5.3-0.1-10.5-1.5-15.7-2.8
					c-10-2.4-20.1-4-30.3-5.6c-2.5-4.4-3.7-9.6-3.5-14.6c0.1-1.6,0.6-3.1,1.5-4.3c1.2-1.7,2.7-3.3,4.2-4.8c2-1.8,4.6-2.6,7.2-2.4
					c2.2,0.1,4.7,0.4,6,0.7l15.6,3.4c1.5,0.3,3,0.5,4.5,0.5C130.9,67.3,132.8,66.1,134.5,63.6z"/>
			</defs>
			<use xlink:href="#SVGID_7_"  overflow="visible" fill="#C3996B"/>
			<clipPath id="SVGID_8_">
				<use xlink:href="#SVGID_7_"  overflow="visible"/>
			</clipPath>
			<g clip-path="url(#SVGID_8_)">
				<path fill="#E08227" stroke="#843B1C" stroke-width="1.0546" stroke-miterlimit="10" d="M163.2,53c-2.6,1-4.9,2.4-6.7,3.9
					l-5.6-6.4c1.4-3.1,4-6.3,8.8-9l0.1-2.5c-5.6,2.9-8.7,6.3-10.4,9.8l-5.1-5.8l-1.3,1.9l5.4,6.2c-1.6,4.9-0.6,9.3-0.1,11
					c0.1,0.4,0.6,0.5,0.9,0.3l1.1-0.7c0,0-1.5-4-0.2-8.8l4.8,5.4c-2.3,2.2-3.7,4-3.7,4l1.7,1.9c0,0,4.7-6.6,12-9.4L163.2,53z"/>
				<circle fill="#F6C444" stroke="#A36A28" stroke-width="1.0546" stroke-miterlimit="10" cx="149.6" cy="50.7" r="1.5"/>
				<circle fill="#F6C444" stroke="#A36A28" stroke-width="1.0546" stroke-miterlimit="10" cx="156.1" cy="58.4" r="1.5"/>
			</g>
			<use xlink:href="#SVGID_7_"  overflow="visible" fill="none" stroke="#754D29" stroke-width="1.0546" stroke-miterlimit="10"/>
		</g>
		<g>
			<g>
				<defs>
					<path id="SVGID_9_" d="M86.9,128.1c-3.1-0.4-6.1-1.3-8.8-2.7c0.7-7.5,2.1-14.9,4.3-22c3.6-3.8,5.6-9.1,5.3-14.4
						c-0.1-2.9-0.9-5.6-1.2-8.5c-0.4-2.8-0.3-5.9,1.1-8.4c0.8-1.5,2.3-2.8,3.9-3.3c2.9-1.1,6.2-0.2,8.3,2c1.2,1.3,2,2.9,2.5,4.6
						c2,6,1.6,12.8-1.1,18.5c-2.7,5.9-7.9,10.7-14,13.1c-1.4,5.3-2.2,10.8-2.3,16.3c1,1.4,1.7,3,2.1,4.7
						C87,128.1,87,128.1,86.9,128.1z"/>
				</defs>
				<use xlink:href="#SVGID_9_"  overflow="visible" fill="#C3996B"/>
				<clipPath id="SVGID_10_">
					<use xlink:href="#SVGID_9_"  overflow="visible"/>
				</clipPath>
				<path clip-path="url(#SVGID_10_)" fill="#272135" stroke="#4B415E" stroke-width="1.0546" stroke-miterlimit="10" d="
					M78.1,120.3c0,0,2.3,0.5,10.2,4.2l2.5,7.6l-16.2-6.6L78.1,120.3z"/>
				<use xlink:href="#SVGID_9_"  overflow="visible" fill="none" stroke="#754D29" stroke-width="1.0546" stroke-miterlimit="10"/>
			</g>
			<circle fill="#E4B687" stroke="#986B44" stroke-width="1.0546" stroke-miterlimit="10" cx="94.2" cy="88.3" r="1.9"/>
			<circle fill="#E4B687" stroke="#986B44" stroke-width="1.0546" stroke-miterlimit="10" cx="94.2" cy="80.5" r="1.9"/>
		</g>
		<g>
			<g>
				<defs>
					<path id="SVGID_11_" d="M126,78.4c-0.1,1.9,0.3,3.8,0.9,5.6c1.1,3,2.9,5.8,4.6,8.5c5,8.2,9.1,16.8,13.3,25.5
						c1,2.2,2.1,4.4,3.1,6.5c2.8-0.9,5.5-2.3,7.9-4.2c-1.4-0.8-2.7-1.5-4.1-2.3c-2.8-4-5.3-8.2-7.3-12.7c0.3-3.5-0.4-7.1-1.9-10.2
						c0,0-0.2-0.4-0.5-1c-0.2-3.1,0.4-6.3,0.6-9.4c0.3-3.9,0-8.3-2.7-11.2c-1.9-2-4.8-3-7.6-2.6c-1.8,0.3-3.6,1.2-4.8,2.6
						C126.5,75.1,126.1,76.7,126,78.4z"/>
				</defs>
				<use xlink:href="#SVGID_11_"  overflow="visible" fill="#C3996B"/>
				<clipPath id="SVGID_12_">
					<use xlink:href="#SVGID_11_"  overflow="visible"/>
				</clipPath>
				<path clip-path="url(#SVGID_12_)" fill="#272135" stroke="#4B415E" stroke-width="1.0546" stroke-miterlimit="10" d="
					M143.1,122.1c0,0,2-1.3,10-4.5l7.2,3.3l-15.9,7.2L143.1,122.1z"/>
				<use xlink:href="#SVGID_11_"  overflow="visible" fill="none" stroke="#754D29" stroke-width="1.0546" stroke-miterlimit="10"/>
			</g>
			<circle fill="#E4B687" stroke="#986B44" stroke-width="1.0546" stroke-miterlimit="10" cx="136.6" cy="88.3" r="1.9"/>
			<circle fill="#E4B687" stroke="#986B44" stroke-width="1.0546" stroke-miterlimit="10" cx="134.7" cy="80.5" r="1.9"/>
		</g>
		<path fill="#F3EB85" stroke="#9A9143" stroke-width="1.0546" stroke-miterlimit="10" d="M130.4,66.7c0,0,8.7,6.4,11.5-7l0.9,3.6
			c0,0,2.4-1,0-10.5l1.9,2.2c0,0,0.6-2.2-0.9-7.5c0,0,0.7-3,3.7-5.5s3.8-5.2,3.8-5.2s-11.4-4.7-16,10.3
			C132.8,55.3,136.3,63.6,130.4,66.7z"/>
		<path fill="#E08227" stroke="#9A4C23" stroke-width="1.0546" stroke-miterlimit="10" d="M111.1,86.4l1.7,7.4
			c0.1,0.4,0.4,0.7,0.7,0.8l3.6,0.8c0.7,0.2,1.3-0.5,1.2-1.2l-1.8-9.1L111.1,86.4z"/>
		<polygon fill="#E08227" stroke="#9A4C23" stroke-width="1.0546" stroke-miterlimit="10" points="109.6,64.7 120.4,67 121.8,79.7 
			118.3,85.2 110.1,84.1 107.4,77.5 		"/>
		
			<path fill="none" stroke="#674322" stroke-width="1.0546" stroke-linecap="round" stroke-linejoin="round" stroke-miterlimit="10" d="
			M155.8,60.9c0,0,0.6,6.2,4.6,5.2"/>
		
			<ellipse transform="matrix(-0.678 -0.7351 0.7351 -0.678 225.4171 200.1411)" fill="#231F20" cx="156.5" cy="50.7" rx="0.7" ry="1.9"/>
		
			<path fill="none" stroke="#674322" stroke-width="1.0546" stroke-linecap="round" stroke-linejoin="round" stroke-miterlimit="10" d="
			M159.8,60.2c0,0-0.1,1.8,1.3,2.3c0,0,0.1-1.3-0.9-3L159.8,60.2z"/>
		<g>
			<defs>
				<path id="SVGID_13_" d="M164.7,113.3c-6.7,5.5-21.7,15.3-48.6,16.1c-26.9,0.8-42.5-8-49.5-13.1c-1.6-1.2-3,0.2-2.1,2
					c5.9,11.2,29.1,20.4,51.9,19.7c22.8-0.7,45.4-11.4,50.6-22.9C167.7,113.3,166.2,112,164.7,113.3z"/>
			</defs>
			<use xlink:href="#SVGID_13_"  overflow="visible" fill="#BE1E2D"/>
			<clipPath id="SVGID_14_">
				<use xlink:href="#SVGID_13_"  overflow="visible"/>
			</clipPath>
			<path clip-path="url(#SVGID_14_)" fill="#262261" stroke="#5657A4" stroke-width="1.0546" stroke-miterlimit="10" d="
				M163.8,114.7l-0.6,11.3l-8.4-5.2l-3.5,11.6l-8.5-6.7l-3.9,11.3l-8.3-8.5l-4.5,11.3l-9.8-10.1c0,0-9.6,10.6-9.6,10.6l-5.1-11.1
				l-7.8,9l-4.5-11.1l-8.1,7.2l-4.2-11.4l-8.1,5.7l-1.2-11.2l-7.1,3.8l3.9,16.1l43.9,8.1l12.8,2.1c0,0-0.3-0.9-0.7-2.3l4-0.2
				l43.4-10.5l3-16.3L163.8,114.7z"/>
			<use xlink:href="#SVGID_13_"  overflow="visible" fill="none" stroke="#E83E52" stroke-width="1.0546" stroke-miterlimit="10"/>
		</g>
		<g>
			<path fill="#F3EB85" d="M135.3,64.5c0,0,1-4,0.4-12.5s3.8-11.5,3.8-11.5"/>
			<path fill="#9A9143" d="M135.3,64.5c0,0,0-0.4,0.1-1.1c0.1-0.7,0.1-1.7,0.1-2.8c0-1.2,0-2.5-0.1-4c0-0.7-0.1-1.5-0.1-2.3
				c0-0.8-0.1-1.5-0.1-2.3c0-0.8-0.1-1.6,0-2.4c0-0.4,0-0.8,0.1-1.2c0.1-0.4,0.1-0.8,0.2-1.1c0.3-1.5,0.8-2.8,1.4-3.9
				c0.6-1.1,1.3-1.8,1.8-2.3c0.5-0.5,0.9-0.7,0.9-0.7s-0.3,0.3-0.7,0.8c-0.4,0.5-0.9,1.4-1.4,2.4c-0.5,1.1-0.8,2.4-1,3.8
				c-0.1,0.7-0.2,1.5-0.2,2.2c0,0.7,0,1.5,0,2.3c0,0.8,0.1,1.6,0.1,2.3c0,0.8,0,1.5,0,2.3c0,1.5-0.1,2.9-0.3,4.1
				c-0.1,1.2-0.3,2.2-0.5,2.8C135.4,64.2,135.3,64.5,135.3,64.5z"/>
		</g>
		<g>
			<path fill="#F3EB85" d="M138.3,61.1c0,0,0.8-3.4-1-10.6"/>
			<path fill="#9A9143" d="M138.3,61.1c0,0,0-0.7-0.1-1.7c-0.1-0.5-0.1-1.1-0.2-1.7c-0.1-0.6-0.1-1.3-0.2-1.9
				c-0.1-0.7-0.1-1.3-0.2-1.9c-0.1-0.6-0.1-1.2-0.2-1.7c-0.1-1-0.1-1.7-0.1-1.7s0.3,0.6,0.7,1.6c0.3,1,0.7,2.3,0.8,3.6
				c0.2,1.3,0.1,2.7,0,3.7C138.6,60.5,138.3,61.1,138.3,61.1z"/>
		</g>
		<g>
			<path fill="#F3EB85" d="M141.9,47.2c0,0-0.9-4.6,4.6-7c5.2-2.2,4.9-3.4,4.9-3.4c-5.3-1.6-8.5,2.2-8.5,2.2"/>
			<path fill="#9A9143" d="M141.9,47.2c-0.2-0.6-0.2-1.3-0.1-1.9c0-0.3,0.1-0.6,0.2-1c0.1-0.3,0.2-0.6,0.3-0.9
				c0.2-0.3,0.3-0.6,0.5-0.9c0.2-0.3,0.4-0.5,0.6-0.8c0.4-0.5,1-0.9,1.5-1.3c0.3-0.2,0.6-0.3,0.9-0.5c0.3-0.2,0.6-0.3,0.9-0.4
				c0.6-0.3,1.1-0.5,1.7-0.8c0.5-0.3,1.1-0.6,1.6-0.9c0.2-0.2,0.5-0.4,0.7-0.6c0.1-0.1,0.2-0.2,0.2-0.3c0,0,0.1-0.1,0.1-0.1
				c0,0,0-0.1,0,0.1l0.3,0.4l-0.5-0.1c-0.2,0-0.4-0.1-0.5-0.1c-0.4-0.1-0.7-0.1-1.1-0.1c-0.4,0-0.7,0-1.1,0c-0.2,0-0.4,0-0.5,0.1
				c-0.2,0-0.4,0-0.5,0.1c-0.4,0.1-0.7,0.2-1.1,0.3c-0.3,0.1-0.7,0.3-1,0.4c-0.7,0.3-1.3,0.8-1.9,1.3c0.5-0.6,1.1-1.2,1.7-1.6
				c0.3-0.2,0.7-0.4,1-0.6c0.4-0.2,0.7-0.3,1.1-0.4c0.2-0.1,0.4-0.1,0.6-0.2c0.2,0,0.4-0.1,0.6-0.1c0.4-0.1,0.8-0.1,1.2-0.1
				c0.4,0,0.8,0,1.2,0.1c0.2,0,0.4,0.1,0.6,0.1l0.6,0.1l0.3,0.1l0,0.3c0,0.3,0,0.4-0.1,0.5c0,0.1-0.1,0.2-0.1,0.3
				c-0.1,0.2-0.2,0.3-0.4,0.5c-0.2,0.3-0.5,0.5-0.8,0.7c-0.5,0.4-1.1,0.7-1.7,1c-0.6,0.3-1.2,0.6-1.7,0.8c-0.3,0.1-0.6,0.2-0.9,0.4
				c-0.3,0.1-0.6,0.2-0.8,0.4c-0.5,0.3-1,0.6-1.5,1c-0.2,0.2-0.4,0.4-0.6,0.6c-0.2,0.2-0.4,0.5-0.5,0.7c-0.2,0.3-0.3,0.5-0.4,0.8
				c-0.1,0.3-0.2,0.6-0.3,0.9C141.9,45.9,141.8,46.6,141.9,47.2z"/>
		</g>
		<path fill="#F89B36" stroke="#9A4C23" stroke-width="1.0546" stroke-miterlimit="10" d="M123.5,77.3l-1.1-10
			c-0.1-0.7-0.7-1.2-1.4-1l-1.8-0.4c-0.4-0.1-0.8,0.3-0.8,0.7l1.2,12.1c0,4.8-5.2,4.5-5.2,4.5s-5.2,0.3-5.2-4.5l1.3-13.9
			c0-0.3-0.2-0.7-0.5-0.7l-1.7-0.3c-0.7-0.1-1.3,0.4-1.4,1l-1.5,12.6c-0.2,1.8,0,3.7,0.7,5.4c2.3,5.6,7.8,5.6,8.5,5.5
			c0.6,0,6,0.1,8.4-5.4C123.5,81.2,123.7,79.2,123.5,77.3z"/>
		<circle fill="#F6C444" stroke="#A36A28" stroke-width="1.0546" stroke-miterlimit="10" cx="108.5" cy="66.8" r="0.8"/>
		<circle fill="#F6C444" stroke="#A36A28" stroke-width="1.0546" stroke-miterlimit="10" cx="107.9" cy="71.3" r="0.8"/>
		<circle fill="#F6C444" stroke="#A36A28" stroke-width="1.0546" stroke-miterlimit="10" cx="107.3" cy="76.9" r="0.8"/>
		<circle fill="#F6C444" stroke="#A36A28" stroke-width="1.0546" stroke-miterlimit="10" cx="108.2" cy="82.3" r="0.8"/>
		<circle fill="#F6C444" stroke="#A36A28" stroke-width="1.0546" stroke-miterlimit="10" cx="112.4" cy="85.3" r="0.8"/>
		<circle fill="#F6C444" stroke="#A36A28" stroke-width="1.0546" stroke-miterlimit="10" cx="117.7" cy="84.7" r="0.8"/>
		<circle fill="#F6C444" stroke="#A36A28" stroke-width="1.0546" stroke-miterlimit="10" cx="121.3" cy="81.3" r="0.8"/>
		<circle fill="#F6C444" stroke="#A36A28" stroke-width="1.0546" stroke-miterlimit="10" cx="121.4" cy="77.1" r="0.8"/>
		<circle fill="#F6C444" stroke="#A36A28" stroke-width="1.0546" stroke-miterlimit="10" cx="120.9" cy="72.4" r="0.8"/>
		<circle fill="#F6C444" stroke="#A36A28" stroke-width="1.0546" stroke-miterlimit="10" cx="120.6" cy="68.7" r="0.8"/>
	</g>
	<g>
		<path fill="#C3996B" stroke="#8D6439" stroke-width="1.0546" stroke-miterlimit="10" d="M194.8,100.1c0-1.8-1.7-3.2-3.9-3.2
			c-2.2,0-3.9,1.4-3.9,3.2c0,1.2,0.8,2.2,1.9,2.7v10.4h4.1v-10.4C194.1,102.2,194.8,101.2,194.8,100.1z"/>
		<path fill="#0B80B8" stroke="#035D80" stroke-width="1.0546" stroke-miterlimit="10" d="M208,138h-34.1c-1.8,0-3.3-1.5-3.3-3.3v0
			c0-1.8,1.5-3.3,3.3-3.3H208c1.8,0,3.3,1.5,3.3,3.3v0C211.3,136.5,209.8,138,208,138z"/>
		<path fill="#00A54D" stroke="#016836" stroke-width="1.0546" stroke-miterlimit="10" d="M203.5,131.2h-25.1c-2.2,0-4-1.8-4-4v0
			c0-2.2,1.8-4,4-4h25.1c2.2,0,4,1.8,4,4v0C207.5,129.4,205.7,131.2,203.5,131.2z"/>
		<path fill="#F8E511" stroke="#B3A032" stroke-width="1.0546" stroke-miterlimit="10" d="M200.9,122.7H181c-1.8,0-3.3-1.5-3.3-3.3
			v0c0-1.8,1.5-3.3,3.3-3.3h19.9c1.8,0,3.3,1.5,3.3,3.3v0C204.2,121.3,202.7,122.7,200.9,122.7z"/>
		<path fill="#F89B36" stroke="#B66528" stroke-width="1.0546" stroke-miterlimit="10" d="M199,115.7h-16.2c-1.6,0-2.9-1.3-2.9-2.9
			v0c0-1.6,1.3-2.9,2.9-2.9H199c1.6,0,2.9,1.3,2.9,2.9v0C201.9,114.4,200.6,115.7,199,115.7z"/>
		<path fill="#ED3149" stroke="#A31D29" stroke-width="1.0546" stroke-miterlimit="10" d="M196.3,109.4h-10.7
			c-1.6,0-2.8-1.3-2.8-2.8v0c0-1.6,1.3-2.8,2.8-2.8h10.7c1.6,0,2.8,1.3,2.8,2.8v0C199.1,108.1,197.9,109.4,196.3,109.4z"/>
	</g>
	<g>
		<g>
			<g>
				<g>
					<g>
						<defs>
							<path id="SVGID_15_" d="M31.6,125.6c-0.6-0.9-1.6-1.7-2.6-2.1l-1.8,0.3l-1.8-0.3c-1.1,0.4-2,1.2-2.6,2.1
								c-0.2,0.3-0.2,0.8,0,1.1c0.4,0.6,0.9,1.2,1.4,1.7c0.2,0.2,0.4,0.3,0.5,0.5c1.1,0,2.1,0,2.5,0c0.4,0,1.4,0,2.5,0
								c0.2-0.2,0.4-0.3,0.5-0.5c0.5-0.5,1-1.1,1.4-1.7C31.8,126.4,31.8,126,31.6,125.6z"/>
						</defs>
						<use xlink:href="#SVGID_15_"  overflow="visible" fill="#707B8D"/>
						<clipPath id="SVGID_16_">
							<use xlink:href="#SVGID_15_"  overflow="visible"/>
						</clipPath>
						
							<line clip-path="url(#SVGID_16_)" fill="#707B8D" stroke="#3E4856" stroke-width="0.8613" stroke-miterlimit="10" x1="20.8" y1="126.2" x2="32.7" y2="126.2"/>
						
							<use xlink:href="#SVGID_15_"  overflow="visible" fill="none" stroke="#3E4856" stroke-width="0.8613" stroke-miterlimit="10"/>
					</g>
					<g>
						<defs>
							<path id="SVGID_17_" d="M27.5,123.9c0.9,0,1.8,0,2.6,0c0.6-0.5,1-1.2,1.2-1.9c-1.5-2.2-3-4.4-4.5-6.6
								c-1.3,0.5-2.5,1.3-3.4,2.4c-0.5,0.5-0.6,1.3-0.5,2c0.3,1.5,0.9,2.9,1.7,4.1C25.6,123.9,26.6,123.9,27.5,123.9z"/>
						</defs>
						<use xlink:href="#SVGID_17_"  overflow="visible" fill="#707B8D"/>
						<clipPath id="SVGID_18_">
							<use xlink:href="#SVGID_17_"  overflow="visible"/>
						</clipPath>
						<path clip-path="url(#SVGID_18_)" fill="#707B8D" stroke="#3E4856" stroke-width="0.8613" stroke-miterlimit="10" d="
							M21.8,117.6c3,2.9,6.7,5.1,10.7,6.5"/>
						
							<use xlink:href="#SVGID_17_"  overflow="visible" fill="none" stroke="#3E4856" stroke-width="0.8613" stroke-miterlimit="10"/>
					</g>
					<path fill="#707B8D" stroke="#3E4856" stroke-width="0.8613" stroke-miterlimit="10" d="M30.4,131.6c-0.1-0.7-0.1-1.4-0.4-2
						c-0.1-0.3-0.3-0.6-0.5-0.9c-0.6,0-1.3,0-1.9,0c-0.3,0-0.6,0-0.9,0c-0.6,0-1.3,0-1.9,0c-0.2,0.3-0.4,0.6-0.5,0.9
						c-0.2,0.7-0.3,1.4-0.4,2c-0.1,1.4-0.3,2.7-0.4,4.1c0.1,0,0.3,0,0.4,0c0.9,0,1.8,0,2.7,0c0.3,0,0.6,0,0.9,0h1.6
						c0.8,0,1.5-0.7,1.4-1.5C30.5,133.3,30.4,132.5,30.4,131.6z"/>
					<g>
						<defs>
							<path id="SVGID_19_" d="M29.8,134c0.3,1.2,0.5,2.4,0.7,3.6c0,0.2-0.2,0.5-0.4,0.5c-2.6,0-5.2,0-7.8,0c-0.3,0-0.5-0.2-0.4-0.5
								c0.4-2.2,1.5-4.2,3.1-5.8c0.6-0.6,1.5-1.2,2.3-1.1c0.9,0.1,1.5,1,1.9,1.8C29.4,133,29.6,133.5,29.8,134z"/>
						</defs>
						<use xlink:href="#SVGID_19_"  overflow="visible" fill="#ECC58D"/>
						<clipPath id="SVGID_20_">
							<use xlink:href="#SVGID_19_"  overflow="visible"/>
						</clipPath>
						
							<line clip-path="url(#SVGID_20_)" fill="#ECC58D" stroke="#86673A" stroke-width="0.8613" stroke-miterlimit="10" x1="20.4" y1="135.7" x2="32.4" y2="135.7"/>
						
							<use xlink:href="#SVGID_19_"  overflow="visible" fill="none" stroke="#86673A" stroke-width="0.8613" stroke-miterlimit="10"/>
					</g>
				</g>
				<g>
					<g>
						<defs>
							<path id="SVGID_21_" d="M33.4,125.6c0.6-0.9,1.6-1.7,2.6-2.1l1.8,0.3l1.8-0.3c1.1,0.4,2,1.2,2.6,2.1c0.2,0.3,0.2,0.8,0,1.1
								c-0.4,0.6-0.9,1.2-1.4,1.7c-0.2,0.2-0.4,0.3-0.5,0.5c-1.1,0-2.1,0-2.5,0c-0.4,0-1.4,0-2.5,0c-0.2-0.2-0.4-0.3-0.5-0.5
								c-0.5-0.5-1-1.1-1.4-1.7C33.2,126.4,33.2,126,33.4,125.6z"/>
						</defs>
						<use xlink:href="#SVGID_21_"  overflow="visible" fill="#707B8D"/>
						<clipPath id="SVGID_22_">
							<use xlink:href="#SVGID_21_"  overflow="visible"/>
						</clipPath>
						
							<line clip-path="url(#SVGID_22_)" fill="#707B8D" stroke="#3E4856" stroke-width="0.8613" stroke-miterlimit="10" x1="44.2" y1="126.2" x2="32.3" y2="126.2"/>
						
							<use xlink:href="#SVGID_21_"  overflow="visible" fill="none" stroke="#3E4856" stroke-width="0.8613" stroke-miterlimit="10"/>
					</g>
					<g>
						<defs>
							<path id="SVGID_23_" d="M37.4,123.9c-0.9,0-1.8,0-2.6,0c-0.6-0.5-1-1.2-1.2-1.9c1.5-2.2,3-4.4,4.5-6.6
								c1.3,0.5,2.5,1.3,3.4,2.4c0.5,0.5,0.6,1.3,0.5,2c-0.3,1.5-0.9,2.9-1.7,4.1C39.3,123.9,38.4,123.9,37.4,123.9z"/>
						</defs>
						<use xlink:href="#SVGID_23_"  overflow="visible" fill="#707B8D"/>
						<clipPath id="SVGID_24_">
							<use xlink:href="#SVGID_23_"  overflow="visible"/>
						</clipPath>
						<path clip-path="url(#SVGID_24_)" fill="#707B8D" stroke="#3E4856" stroke-width="0.8613" stroke-miterlimit="10" d="
							M43.2,117.6c-3,2.9-6.7,5.1-10.7,6.5"/>
						
							<use xlink:href="#SVGID_23_"  overflow="visible" fill="none" stroke="#3E4856" stroke-width="0.8613" stroke-miterlimit="10"/>
					</g>
					<path fill="#707B8D" stroke="#3E4856" stroke-width="0.8613" stroke-miterlimit="10" d="M34.6,131.6c0.1-0.7,0.1-1.4,0.4-2
						c0.1-0.3,0.3-0.6,0.5-0.9c0.6,0,1.3,0,1.9,0c0.3,0,0.6,0,0.9,0c0.6,0,1.3,0,1.9,0c0.2,0.3,0.4,0.6,0.5,0.9
						c0.2,0.7,0.3,1.4,0.4,2c0.1,1.4,0.3,2.7,0.4,4.1c-0.1,0-0.3,0-0.4,0c-0.9,0-1.8,0-2.7,0c-0.3,0-0.6,0-0.9,0h-1.6
						c-0.8,0-1.5-0.7-1.4-1.5C34.5,133.3,34.5,132.5,34.6,131.6z"/>
					<g>
						<defs>
							<path id="SVGID_25_" d="M35.2,134c-0.3,1.2-0.5,2.4-0.7,3.6c0,0.2,0.2,0.5,0.4,0.5c2.6,0,5.2,0,7.8,0c0.3,0,0.5-0.2,0.4-0.5
								c-0.4-2.2-1.5-4.2-3.1-5.8c-0.6-0.6-1.5-1.2-2.3-1.1c-0.9,0.1-1.5,1-1.9,1.8C35.5,133,35.3,133.5,35.2,134z"/>
						</defs>
						<use xlink:href="#SVGID_25_"  overflow="visible" fill="#ECC58D"/>
						<clipPath id="SVGID_26_">
							<use xlink:href="#SVGID_25_"  overflow="visible"/>
						</clipPath>
						
							<line clip-path="url(#SVGID_26_)" fill="#ECC58D" stroke="#86673A" stroke-width="0.8613" stroke-miterlimit="10" x1="44.6" y1="135.7" x2="32.6" y2="135.7"/>
						
							<use xlink:href="#SVGID_25_"  overflow="visible" fill="none" stroke="#86673A" stroke-width="0.8613" stroke-miterlimit="10"/>
					</g>
				</g>
			</g>
			<path fill="#3B4549" stroke="#76878B" stroke-width="0.8613" stroke-miterlimit="10" d="M37.3,112.4h-4.3H32h-4.3
				c-2.8,1-1.9,3.4-1.9,3.4l4.7,6.5c0.2,0.3,0.6,0.5,1,0.5H32h0.9h0.6c0.4,0,0.8-0.2,1-0.5l4.7-6.5
				C39.2,115.8,40.1,113.3,37.3,112.4z"/>
		</g>
		<path fill="#ECC58D" stroke="#86673A" stroke-width="0.8613" stroke-miterlimit="10" d="M34,110.8h-3.1h-6.3v1.5
			c0,0.9,0.8,1.7,1.8,1.7h4.4H34h4.4c1,0,1.8-0.7,1.8-1.7v-1.5H34z"/>
		<g>
			<g>
				<g>
					<g>
						<defs>
							<path id="SVGID_27_" d="M10.4,118.4c-0.1,0.1-0.2,0.1-0.3,0.2c-1.4-3.6-1.9-7.6-0.7-11.3c1.2-3.6,4.4-6.6,8.1-7.1
								c-0.2,1.6-0.2,3.2-0.1,4.8c-1.4,0.4-2.6,1.5-3.3,2.9c-0.7,1.5-0.9,3.1-0.9,4.8c0,1.6,0.1,3.2,0.9,4.6c-0.4-0.1-0.7,0-1.1,0
								C12.1,117.6,11.2,117.9,10.4,118.4z"/>
						</defs>
						<use xlink:href="#SVGID_27_"  overflow="visible" fill="#B4B8C7"/>
						<clipPath id="SVGID_28_">
							<use xlink:href="#SVGID_27_"  overflow="visible"/>
						</clipPath>
						<g clip-path="url(#SVGID_28_)">
							<path fill="#B4B8C7" stroke="#4E5668" stroke-width="0.8613" stroke-miterlimit="10" d="M12.7,101.5c0.7,1.8,1.8,3.5,3.2,4.9
								"/>
							<path fill="#B4B8C7" stroke="#4E5668" stroke-width="0.8613" stroke-miterlimit="10" d="M9.2,105.2c1.3,1.6,3,2.8,5,3.4"/>
							<path fill="#B4B8C7" stroke="#4E5668" stroke-width="0.8613" stroke-miterlimit="10" d="M8.1,110.4c1.6,1.1,3.6,1.6,5.5,1.2"
								/>
							<path fill="#B4B8C7" stroke="#4E5668" stroke-width="0.8613" stroke-miterlimit="10" d="M7.9,114.4c1.9,0.9,4.3,0.8,6.1-0.2"
								/>
						</g>
						
							<use xlink:href="#SVGID_27_"  overflow="visible" fill="none" stroke="#4E5668" stroke-width="0.8613" stroke-miterlimit="10"/>
					</g>
					
						<path fill="#89878D" stroke="#413F42" stroke-width="0.8613" stroke-linecap="round" stroke-linejoin="round" stroke-miterlimit="10" d="
						M13,125l0.5-2c-0.4-0.1-0.7-0.3-1-0.6c-0.8-0.8-0.8-2.2,0-3c0.8-0.8,2.2-0.8,3,0c0.3,0.3,0.5,0.6,0.6,1l2-0.5l0,0
						c-0.2-0.7-0.5-1.4-1.1-2c-1.6-1.6-4.3-1.6-6,0c-1.6,1.6-1.6,4.3,0,6C11.6,124.5,12.3,124.8,13,125L13,125z"/>
				</g>
				<path fill="#ECC58D" stroke="#86673A" stroke-width="0.8613" stroke-miterlimit="10" d="M20.7,97.3v12.5h0
					c-2.7,0-4.9-2.2-4.9-4.9v-2.7C15.8,99.5,18,97.3,20.7,97.3L20.7,97.3z"/>
			</g>
			<g>
				<g>
					<g>
						<defs>
							<path id="SVGID_29_" d="M54.6,118.4c0.1,0.1,0.2,0.1,0.3,0.2c1.4-3.6,1.9-7.6,0.7-11.3c-1.2-3.6-4.4-6.6-8.1-7.1
								c0.2,1.6,0.2,3.2,0.1,4.8c1.4,0.4,2.6,1.5,3.3,2.9c0.7,1.5,0.9,3.1,0.9,4.8c0,1.6-0.1,3.2-0.9,4.6c0.4-0.1,0.7,0,1.1,0
								C52.9,117.6,53.8,117.9,54.6,118.4z"/>
						</defs>
						<use xlink:href="#SVGID_29_"  overflow="visible" fill="#B4B8C7"/>
						<clipPath id="SVGID_30_">
							<use xlink:href="#SVGID_29_"  overflow="visible"/>
						</clipPath>
						<g clip-path="url(#SVGID_30_)">
							<path fill="#B4B8C7" stroke="#4E5668" stroke-width="0.8613" stroke-miterlimit="10" d="M52.3,101.5
								c-0.7,1.8-1.8,3.5-3.2,4.9"/>
							<path fill="#B4B8C7" stroke="#4E5668" stroke-width="0.8613" stroke-miterlimit="10" d="M55.8,105.2c-1.3,1.6-3,2.8-5,3.4"/>
							<path fill="#B4B8C7" stroke="#4E5668" stroke-width="0.8613" stroke-miterlimit="10" d="M56.9,110.4
								c-1.6,1.1-3.6,1.6-5.5,1.2"/>
							<path fill="#B4B8C7" stroke="#4E5668" stroke-width="0.8613" stroke-miterlimit="10" d="M57.1,114.4
								c-1.9,0.9-4.3,0.8-6.1-0.2"/>
						</g>
						
							<use xlink:href="#SVGID_29_"  overflow="visible" fill="none" stroke="#4E5668" stroke-width="0.8613" stroke-miterlimit="10"/>
					</g>
					
						<path fill="#89878D" stroke="#413F42" stroke-width="0.8613" stroke-linecap="round" stroke-linejoin="round" stroke-miterlimit="10" d="
						M52,125l-0.5-2c0.4-0.1,0.7-0.3,1-0.6c0.8-0.8,0.8-2.2,0-3c-0.8-0.8-2.2-0.8-3,0c-0.3,0.3-0.5,0.6-0.6,1l-2-0.5l0,0
						c0.2-0.7,0.5-1.4,1.1-2c1.6-1.6,4.3-1.6,6,0c1.6,1.6,1.6,4.3,0,6C53.4,124.5,52.7,124.8,52,125L52,125z"/>
				</g>
				<path fill="#ECC58D" stroke="#86673A" stroke-width="0.8613" stroke-miterlimit="10" d="M44.3,97.3v12.5h0
					c2.7,0,4.9-2.2,4.9-4.9v-2.7C49.2,99.5,47,97.3,44.3,97.3L44.3,97.3z"/>
			</g>
		</g>
		<path fill="#3B4549" stroke="#76878B" stroke-width="0.8613" stroke-miterlimit="10" d="M42.5,93.9h-8.6h-2.8h-8.6
			c-1.8,0-3.2,1.4-3.2,3.2v11.5c0,1.8,1.4,3.2,3.2,3.2h8.6h2.8h8.6c1.8,0,3.2-1.4,3.2-3.2V97.1C45.7,95.3,44.3,93.9,42.5,93.9z"/>
		<g>
			<path fill="#ECC58D" stroke="#86673A" stroke-width="0.8613" stroke-miterlimit="10" d="M37.5,98.9h-3.4h-3.2h-3.4
				c-1.6,0-2.9,1.3-2.9,2.9v1.1c0,1.6,1.3,2.9,2.9,2.9h3.4h3.2h3.4c1.6,0,2.9-1.3,2.9-2.9v-1.1C40.5,100.2,39.1,98.9,37.5,98.9z"/>
			<g>
				<circle fill="#8BC53F" stroke="#60893C" stroke-width="0.8613" stroke-miterlimit="10" cx="27.4" cy="101.9" r="1.1"/>
				<circle fill="#ED3149" stroke="#A31D29" stroke-width="0.8613" stroke-miterlimit="10" cx="32.5" cy="101.9" r="1.1"/>
				<circle fill="#F8E511" stroke="#B3A032" stroke-width="0.8613" stroke-miterlimit="10" cx="37.6" cy="101.9" r="1.1"/>
			</g>
		</g>
		<g>
			<defs>
				<path id="SVGID_31_" d="M43.6,94.1c0,0-6.2,0.9-11.2,0.7c-5,0.2-11.2-0.7-11.2-0.7s-0.7-15.3,9.3-19.9c1.2-0.5,2.6-0.5,3.7,0
					C44.4,78.8,43.6,94.1,43.6,94.1z"/>
			</defs>
			<use xlink:href="#SVGID_31_"  overflow="visible" fill="#BBDDD1"/>
			<clipPath id="SVGID_32_">
				<use xlink:href="#SVGID_31_"  overflow="visible"/>
			</clipPath>
			
				<rect x="31.3" y="91.6" clip-path="url(#SVGID_32_)" fill="#ECC58D" stroke="#86673A" stroke-width="0.8613" stroke-miterlimit="10" width="2.3" height="3.9"/>
			<g clip-path="url(#SVGID_32_)">
				<g>
					<circle fill="#D0D2D3" stroke="#808184" stroke-width="0.8613" stroke-miterlimit="10" cx="38.8" cy="86.2" r="2.4"/>
					<circle fill="#D0D2D3" stroke="#808184" stroke-width="0.8613" stroke-miterlimit="10" cx="38.8" cy="86.2" r="1.1"/>
				</g>
				<g>
					<circle fill="#D0D2D3" stroke="#808184" stroke-width="0.8613" stroke-miterlimit="10" cx="26.1" cy="86.2" r="2.4"/>
					<circle fill="#D0D2D3" stroke="#808184" stroke-width="0.8613" stroke-miterlimit="10" cx="26.1" cy="86.2" r="1.1"/>
				</g>
			</g>
			<g clip-path="url(#SVGID_32_)">
				<g>
					<path fill="#FAAF40" stroke="#B1722A" stroke-width="0.8613" stroke-miterlimit="10" d="M32.7,79.6l0-0.8l-2.1,0
						c0,0-0.5,0-0.5-0.1c-0.1-0.8-0.5-0.7-0.5-0.7l0,0.9h0v1.5c0,0,0.4,0.1,0.5-0.7c0-0.1,0.5-0.1,0.5-0.1L32.7,79.6L32.7,79.6
						L32.7,79.6z"/>
					<path fill="#FAAF40" stroke="#B1722A" stroke-width="0.8613" stroke-miterlimit="10" d="M32.2,79.6l0-0.8l2.1,0
						c0,0,0.5,0,0.5-0.1c0.1-0.8,0.5-0.7,0.5-0.7l0,0.9h0v1.5c0,0-0.4,0.1-0.5-0.7c0-0.1-0.5-0.1-0.5-0.1L32.2,79.6L32.2,79.6
						L32.2,79.6z"/>
				</g>
				<path fill="#FAAF40" stroke="#B1722A" stroke-width="0.8613" stroke-miterlimit="10" d="M34.4,76.8c0-0.5-0.9-1-2-1
					c-1.1,0-2,0.4-2,1c0,0.4,0.6,0.8,1.5,0.9V82h1v-4.3C33.8,77.6,34.4,77.2,34.4,76.8z"/>
			</g>
			<path clip-path="url(#SVGID_32_)" fill="#3B4549" stroke="#76878B" stroke-width="0.8613" stroke-miterlimit="10" d="M36,81.8
				h-3.3h-0.5h-3.3c-0.5,0-0.8,0.4-0.8,0.8v8.3h4.2h0.5h4.2v-8.3C36.9,82.1,36.5,81.8,36,81.8z"/>
			<g clip-path="url(#SVGID_32_)">
				
					<rect x="34.8" y="83.2" fill="#FAAF40" stroke="#B1722A" stroke-width="0.8613" stroke-miterlimit="10" width="0.8" height="3.6"/>
				
					<rect x="32" y="83.2" fill="#FAAF40" stroke="#B1722A" stroke-width="0.8613" stroke-miterlimit="10" width="0.8" height="3.6"/>
				
					<rect x="29.3" y="83.2" fill="#FAAF40" stroke="#B1722A" stroke-width="0.8613" stroke-miterlimit="10" width="0.8" height="3.6"/>
			</g>
			<path clip-path="url(#SVGID_32_)" fill="#F8E511" stroke="#3B4549" stroke-width="0.8613" stroke-miterlimit="10" d="M37.9,89.8
				h-1.3v0.7h-4h-0.5h-4v-0.7h-1.3c-0.5,0-0.9,0.4-0.9,0.9v1.1c0,0.2,0.2,0.4,0.4,0.4h5.7h0.5h5.7c0.2,0,0.4-0.2,0.4-0.4v-1.1
				C38.8,90.2,38.4,89.8,37.9,89.8z"/>
			<use xlink:href="#SVGID_31_"  overflow="visible" fill="none" stroke="#49685D" stroke-width="0.8613" stroke-miterlimit="10"/>
		</g>
	</g>
	<g>
		<g>
			<circle fill="#B2B5C1" stroke="#4A4A4C" stroke-width="1.0546" stroke-miterlimit="10" cx="65.9" cy="181.1" r="5.1"/>
			<circle fill="#6F6F76" cx="65.9" cy="181.1" r="2.3"/>
		</g>
		<g>
			<circle fill="#B2B5C1" stroke="#4A4A4C" stroke-width="1.0546" stroke-miterlimit="10" cx="87.7" cy="181.1" r="5.1"/>
			<circle fill="#6F6F76" cx="87.7" cy="181.1" r="2.3"/>
		</g>
		
			<rect x="60.9" y="152.1" fill="#ED3244" stroke="#AC1F25" stroke-width="1.0546" stroke-miterlimit="10" width="6.3" height="11.8"/>
		<path fill="#646E6D" stroke="#2E3836" stroke-width="1.0546" stroke-miterlimit="10" d="M67.5,148.6H64h-0.6H60
			c0,0-1.1,0.5-1.1,3.4h4.6H64h4.6C68.6,149.1,67.5,148.6,67.5,148.6z"/>
		<g>
			<defs>
				<path id="SVGID_33_" d="M57.6,182.5v-15.9c0,0-5.3,6.5-8.4,14.8c-0.2,0.5,0.2,1.1,0.8,1.1H57.6z"/>
			</defs>
			<use xlink:href="#SVGID_33_"  overflow="visible" fill="#FFFFFF"/>
			<clipPath id="SVGID_34_">
				<use xlink:href="#SVGID_33_"  overflow="visible"/>
			</clipPath>
			<g clip-path="url(#SVGID_34_)">
				
					<line fill="#FFFFFF" stroke="#333132" stroke-width="1.0546" stroke-miterlimit="10" x1="56.8" y1="168.7" x2="50.5" y2="184.1"/>
				
					<line fill="#FFFFFF" stroke="#333132" stroke-width="1.0546" stroke-miterlimit="10" x1="57.6" y1="168.3" x2="53.7" y2="184.7"/>
			</g>
			<use xlink:href="#SVGID_33_"  overflow="visible" fill="none" stroke="#333132" stroke-width="1.0546" stroke-miterlimit="10"/>
		</g>
		<path fill="#646E6D" stroke="#2E3836" stroke-width="1.0546" stroke-miterlimit="10" d="M58.9,178c-1.4,0-2.5-3.6-2.5-8.1
			s1.1-8.1,2.5-8.1h22.1V178H58.9z"/>
		<path fill="#2EABDB" stroke="#035D80" stroke-width="1.0546" stroke-miterlimit="10" d="M73.7,178v-16.2h11.2v15.9
			C84.9,177.7,73.4,177.7,73.7,178z"/>
		<polygon fill="#0B80B8" stroke="#035D80" stroke-width="1.0546" stroke-miterlimit="10" points="76,174.2 79.4,172.4 79.4,155.1 
			93.9,155.1 93.9,177.4 76,177.4 		"/>
		<path fill="#2EABDB" stroke="#035D80" stroke-width="1.0546" stroke-miterlimit="10" d="M95.4,154.7l-1.6-2.6h-6.1h-2h-6.1
			l-1.6,2.6c-0.3,0.4,0,1,0.6,1h7.2h2h7.2C95.4,155.7,95.7,155.1,95.4,154.7z"/>
		<g>
			<circle fill="#0B80B8" stroke="#FFFFFF" stroke-width="1.0546" stroke-miterlimit="10" cx="86.9" cy="169.7" r="3.7"/>
			<g>
				<path fill="#FFFFFF" d="M85.2,171.1c0-0.1,0-0.2,0-0.3c0-0.1,0-0.3,0.1-0.4c0.1-0.1,0.1-0.2,0.2-0.3c0.1-0.1,0.2-0.2,0.3-0.3
					c0.1-0.1,0.2-0.2,0.3-0.2c-0.1-0.1-0.2-0.2-0.3-0.3c-0.1-0.1-0.1-0.2-0.2-0.3c-0.2-0.3-0.2-0.6-0.2-0.8c0-0.2,0.1-0.4,0.3-0.6
					c0.2-0.2,0.4-0.3,0.6-0.4c0.3-0.1,0.5-0.1,0.8-0.1c0.3,0,0.5,0.1,0.8,0.2c0.2,0.1,0.4,0.3,0.5,0.5c0.1,0.1,0.1,0.2,0.1,0.3
					c0,0.1,0,0.2,0,0.3c0,0.1,0,0.2-0.1,0.3c0,0.1-0.1,0.2-0.1,0.3c-0.1,0.1-0.2,0.2-0.3,0.3c-0.1,0.1-0.2,0.2-0.4,0.3
					c0.1,0.1,0.3,0.2,0.4,0.3c0.1,0.1,0.2,0.2,0.3,0.3c0.1,0.2,0.2,0.4,0.2,0.6c0,0.2,0,0.4-0.1,0.5c-0.1,0.2-0.2,0.3-0.3,0.5
					c-0.1,0.1-0.3,0.3-0.5,0.3c-0.2,0.1-0.4,0.1-0.6,0.2c-0.2,0-0.4,0-0.6,0c-0.2,0-0.4-0.1-0.6-0.2c-0.2-0.1-0.3-0.2-0.5-0.4
					c-0.1-0.1-0.1-0.2-0.2-0.3C85.2,171.3,85.2,171.2,85.2,171.1z M86.8,170.1c-0.1,0.1-0.3,0.2-0.4,0.3c-0.1,0.1-0.2,0.2-0.3,0.3
					c0,0,0,0,0,0c0,0,0,0.1,0,0.2c0,0,0,0.1,0,0.1c0,0,0,0.1,0,0.1c0.1,0.1,0.2,0.2,0.4,0.3c0.2,0,0.3,0.1,0.5,0
					c0.2,0,0.3-0.1,0.4-0.2c0.1-0.1,0.2-0.2,0.3-0.4c0-0.1-0.1-0.2-0.1-0.2c-0.1-0.1-0.1-0.1-0.2-0.2c-0.1-0.1-0.2-0.1-0.3-0.2
					C87,170.2,86.9,170.2,86.8,170.1z M86.4,168.3C86.3,168.4,86.3,168.4,86.4,168.3c0,0.1,0,0.1,0,0.2c0.1,0.1,0.2,0.2,0.2,0.3
					c0.1,0.1,0.2,0.2,0.3,0.3c0.1-0.1,0.2-0.2,0.4-0.3c0.1-0.1,0.2-0.2,0.3-0.3c0-0.1,0-0.1,0-0.1c0,0,0-0.1,0-0.1
					c-0.1-0.1-0.2-0.1-0.3-0.2c-0.1,0-0.2,0-0.3,0c-0.1,0-0.2,0-0.3,0.1C86.5,168.2,86.4,168.2,86.4,168.3
					C86.4,168.3,86.4,168.3,86.4,168.3z"/>
			</g>
		</g>
		<rect x="81.5" y="157.6" fill="#3861AC" stroke="#214285" stroke-width="1.0546" stroke-miterlimit="10" width="4" height="4.5"/>
		<rect x="87.2" y="157.6" fill="#3861AC" stroke="#214285" stroke-width="1.0546" stroke-miterlimit="10" width="4" height="4.5"/>
		<path fill="#172B27" stroke="#424C48" stroke-width="1.0546" stroke-miterlimit="10" d="M58.5,177.4h6.2v-5.5h-6.2
			c-1.5,0-2.1,1.2-2.1,2.8l0,0C56.3,176.1,56.9,177.4,58.5,177.4z"/>
		<polygon fill="#DE2241" stroke="#9B1C2A" stroke-width="1.0546" stroke-miterlimit="10" points="56.8,177.4 56.8,184 60,184 
			61.8,180 65.9,180 69.9,180 71.8,184 81.8,184 83.7,180 87.7,180 91.7,180 93.6,184 96.6,184 96.6,177.4 		"/>
	</g>
	<g>
		<path fill="none" stroke="#564060" stroke-width="1.0546" stroke-miterlimit="10" d="M156.9,168.9c6.9,2.4-2.8,16,22.5,12
			c4.8-0.8,9.9-0.5,14.2,2.8"/>
		<g>
			<path fill="#F9E600" stroke="#C0B030" stroke-width="1.0546" stroke-miterlimit="10" d="M142.5,147.7c-1.2,0.7-2.2,1.9-2.8,3.3
				c-0.9,2.1-0.6,4.6,0.4,6.7c1.4,2.7,4,4.6,6.9,5.4c11.3-2.2,10.4-12,5.1-15.5C149.7,146,145.8,145.7,142.5,147.7z"/>
			<path fill="#F9E600" stroke="#C0B030" stroke-width="1.0546" stroke-miterlimit="10" d="M130.6,163.7c2.9-0.3,5.8-0.3,8.7-0.8
				c3.4-0.6,6.7-1.8,10.2-2.3c0,0,0,0,0,0c3-0.4,7.9,1.3,9.6,5c1.5,3.2,0.4,8.1-1.7,10.6c-1.9,2.3-4.8,4.7-11.4,5.9
				c0,0-17.2,3.5-27-9.2c-1.8-2.4-1.6-3.7-0.3-5.2C121.7,164.4,128.9,163.8,130.6,163.7z"/>
			<path fill="#F9E600" stroke="#C0B030" stroke-width="1.0546" stroke-miterlimit="10" d="M128,172.2c-1-1-0.3-2.7,1.1-2.8
				c3-0.2,4.6-0.4,6.8-1c2.1-0.6,4.1-1.5,6.3-2c2.1-0.6,4.4-0.8,6.5-0.1c0.8,0.3,1.5,0.7,2.2,1.2c1.7,1.4,2,4,0.7,5.8
				c-0.6,0.8-1.2,1.5-1.9,2.1c-2.2,1.9-5.2,3-8.1,2.9c-2.5-0.1-5-0.7-7.3-1.9C131.2,174.8,129.3,173.4,128,172.2z"/>
			
				<ellipse transform="matrix(-0.9956 -9.357371e-02 9.357371e-02 -0.9956 289.7543 319.7345)" fill="#231F20" cx="152.4" cy="153.1" rx="0.9" ry="1.6"/>
			<path fill="#FAAF40" stroke="#AE6628" stroke-width="1.0546" stroke-miterlimit="10" d="M158.3,153.3c0,0,2.4,0.3,2.7,1.4
				c0.2,0.9-0.8,1.8-2.1,1.5c-0.3,0.3-1.9,1.1-3.2,1.1c-2.1,1.1-1-1.8-0.8-3.8c0.1-0.7-0.3-2,0.2-2.3
				C156.3,151.5,157.2,152.8,158.3,153.3z"/>
			<g>
				<path fill="#FAAF40" d="M154.6,156.1c1.3,0.8,3.1,0.5,4.3,0.2"/>
				<g>
					<path fill="#AE6628" d="M154.3,156.5c1.4,0.8,3.1,0.7,4.7,0.3c0.7-0.2,0.4-1.2-0.3-1c-1.3,0.3-2.7,0.5-3.9-0.2
						C154.3,155.3,153.8,156.2,154.3,156.5L154.3,156.5z"/>
				</g>
			</g>
		</g>
		<g>
			<circle fill="#13783C" stroke="#37B34A" stroke-width="1.0546" stroke-miterlimit="10" cx="132.2" cy="182" r="4.2"/>
			<circle fill="#37B34A" cx="132.2" cy="182" r="1.6"/>
		</g>
		<g>
			<circle fill="#13783C" stroke="#37B34A" stroke-width="1.0546" stroke-miterlimit="10" cx="152" cy="181.2" r="4.9"/>
			<circle fill="#37B34A" cx="152" cy="181.2" r="1.9"/>
		</g>
		<circle fill="#ED3149" stroke="#A31D29" stroke-width="1.0546" stroke-miterlimit="10" cx="193.8" cy="183.5" r="2.3"/>
	</g>
</g>
</svg>
