<?xml version="1.0" encoding="utf-8"?>
<!-- Generator: Adobe Illustrator 18.1.1, SVG Export Plug-In . SVG Version: 6.00 Build 0)  -->
<svg version="1.1" id="Layer_1" xmlns="http://www.w3.org/2000/svg" xmlns:xlink="http://www.w3.org/1999/xlink" x="0px" y="0px"
	 viewBox="0 0 500 500" enable-background="new 0 0 500 500" xml:space="preserve">
<g>
	<g>
		<path fill="none" stroke="#231F20" stroke-width="4.6028" stroke-miterlimit="10" d="M181.4,374.1c-24-1.5-48.3,1.5-71.1,8.9
			c-12.1,3.9-24,9.1-33.3,17.7c-5.5,5-10.3,12.1-8.9,19.4c2.1,10.5,15.1,14.5,25.8,14.9c18.2,0.7,36.4-2.6,54.7-2.9
			s37.6,3.2,51.3,15.2"/>
		<path fill="#58595B" stroke="#414042" stroke-width="3.0685" stroke-miterlimit="10" d="M201.1,437.1c-1.9-0.7-4-0.9-6.3-0.3
			c-2.9,0.9-5.3,3.3-6.2,6.2c-1.2,4.1,0.4,7.9,3.2,10.2l13.1,10.4l15.6-20.2l-13.2-3.9C205.2,438.8,203.2,437.9,201.1,437.1z"/>
		<path fill="#58595B" stroke="#414042" stroke-width="3.0685" stroke-miterlimit="10" d="M226.5,459c-2.4,7.9-2.4,18.4-16.3,10.7
			c-6-3.3-9.9-10.1-7.4-18c2.4-7.9,9.8-13,16.3-10.7C237.1,447.5,228.9,451.1,226.5,459z"/>
		
			<ellipse transform="matrix(0.9554 0.2953 -0.2953 0.9554 145.1707 -44.7829)" fill="#58595B" stroke="#414042" stroke-width="3.0685" stroke-miterlimit="10" cx="220.9" cy="458.3" rx="12.4" ry="15"/>
		<path fill="#D1D3D4" stroke="#6D6E71" stroke-width="3.0685" stroke-miterlimit="10" d="M223,450.7l1.3,11.7l9.5,5.3
			c1.6,0.9,3.2-0.5,2.9-2.6l-1.3-7.7c-0.2-1-0.8-1.9-1.7-2.3L223,450.7z"/>
		<path fill="#D1D3D4" stroke="#6D6E71" stroke-width="3.0685" stroke-miterlimit="10" d="M215.9,455.5l1.5,11.7l10.4,5.8
			c1.8,1,3.6-0.4,3.2-2.4l-1.5-7.8c-0.2-1-0.9-2-1.9-2.3L215.9,455.5z"/>
	</g>
	<g>
		<g>
			<defs>
				<path id="SVGID_2_" d="M215.2,343.6c20.7-6.7,43.2-7,64.7-3.9c12.3,1.8,28.4,7.3,37.6,15.7c9.6,8.8,14.2,21.1,9.2,24.2
					c1.9,3.8,3,5.8,2.2,7.2c-0.6,1.2-1.7,2-2.8,2.8c-7.7,5.4-15.8,10.5-24.7,13.4c-6.6,2.2-13.8,3.1-20.6,2
					c-11.7,5.6-25.2,6.6-38.1,5c-13.3-1.7-26.1-5.9-38.8-10.2c-15.2-5.1-30.5-10.2-45.7-15.3c0.4-5.5,0.5-12.2,4.8-16
					c3.1-2.8,7.3-3.3,11.5-4.2C186.8,355.3,200.7,348.3,215.2,343.6z"/>
			</defs>
			<use xlink:href="#SVGID_2_"  overflow="visible" fill="#CEE0DC"/>
			<clipPath id="SVGID_4_">
				<use xlink:href="#SVGID_2_"  overflow="visible"/>
			</clipPath>
			<g clip-path="url(#SVGID_4_)">
				<path fill="none" stroke="#738182" stroke-width="3.0685" stroke-miterlimit="10" d="M246.2,390.1c2.1,3.2,2.5,7.4,0.4,10.6
					c-1.2,1.8-2.9,3.3-5,4c0,0-0.3,0.1-0.8,0.3c-26.9-5.9-53.3-13.6-79.2-23.1c-0.3-0.7-0.5-1.1-0.5-1.2c0.1-4.8,0.8-8.8,9.2-9.1
					c0,0,0.7,0,2,0c2.3,0,4.7,0.1,7,0.4c16.9,2,33.6,5.2,50.2,8.4C239.4,382.4,244,386.8,246.2,390.1z"/>
				<path fill="#AAC1BC" stroke="#738182" stroke-width="3.0685" stroke-miterlimit="10" d="M147.4,380.1c0.8-4.5,1.7-8.9,2.8-13.3
					c21.7-2,43.3-4,65-6c17.4-1.6,36.2-2.9,51.3,5.9c6.7,3.9,12.2,9.7,16.9,15.8c7.9,10.4,13.8,22.2,17.3,34.7
					c-23.8,0.2-47.8-3.2-71.5-6.6c-28.2-4-56.3-8.1-84.5-12.1C145.4,392.4,146.3,386.2,147.4,380.1z"/>
				<path fill="none" stroke="#738182" stroke-width="3.0685" stroke-miterlimit="10" d="M168.2,348.9c28.6-8,58.5-10.1,88.2-9.6
					c11.2,0.2,22.6,0.8,33,4.8c22.9,8.9,36.3,32.2,47.9,53.8"/>
				<path fill="#CEE0DC" stroke="#738182" stroke-width="3.0685" stroke-miterlimit="10" d="M280.4,400.4c1.3,4.7,1.8,9.6,1.4,14.4
					c-51.8,1-103.8-5.6-153.7-19.4c6.1-11.5,6.1-19,13.7-29.6c28.6-0.9,64.3-3.4,92.8,0c6.2,0.7,12.4,1.6,18.3,3.7
					C266.3,374.5,276.7,386.6,280.4,400.4z"/>
			</g>
			<use xlink:href="#SVGID_2_"  overflow="visible" fill="none" stroke="#738182" stroke-width="3.0685" stroke-miterlimit="10"/>
		</g>
		<path fill="#BACCC8" stroke="#738182" stroke-width="3.0685" stroke-miterlimit="10" d="M238.7,246.1c-1.9-7.1-3.6-14.2-5.4-21.4
			c-9.6,1.8-19.2,3.5-28.8,4.9c6.8,30.7,12.2,61.7,16.1,92.8c1.1,8.6,1.3,19-4.9,24.6c-0.5,0.4-0.2,1.3,0.4,1.4
			c18.5,2.7,37.5,2.1,55.8-1.7c0.5-0.1,0.8-0.7,0.5-1.2c-5.7-8.5-9.2-18.3-12.5-28C252.2,294,245,270.2,238.7,246.1z"/>
	</g>
	<path fill="#93AAA5" stroke="#738182" stroke-width="3.0685" stroke-miterlimit="10" d="M166.5,169.7c-3.1,1.7-6,3.8-8.6,6.2
		c0,0-0.1,0.1-0.1,0.1c-7.9,7.5-10.2,19.2-6.5,29.5c3.3,9.4,9.9,17.6,18.6,22.4c5.2,2.9,11,4.6,16.8,6c-3.4-11.1-6.6-22.4-8.2-33.9
		c-1.6-11.9-1.4-24.3,2-35.8C175.6,165.5,170.9,167.3,166.5,169.7z"/>
	<path fill="#A7BCB7" stroke="#738182" stroke-width="3.0685" stroke-miterlimit="10" d="M275.8,259.9c-18.5-0.4-55-1.8-78.2-7.6
		c-3.3-0.8-6.3-2.5-8.8-4.7l0,0c-21.3-19.1-28.8-52.1-17.9-78.6c3.1-7.5,7.9-14.8,15.1-18.5c0,0,3-1.5,7.8-4
		c16.4-6.7,33-13,49.8-18.9c0,0,50.2-9.2,62.7,56.9c5.1,27,2.7,48.9-7,63.5C294.1,255.8,285.1,260.1,275.8,259.9z"/>
	
		<ellipse fill="none" stroke="#465560" stroke-width="3.8356" stroke-linecap="round" stroke-linejoin="round" stroke-miterlimit="10" cx="237.4" cy="185.9" rx="67.2" ry="112.8"/>
	<path fill="#E3EEEC" stroke="#738182" stroke-width="3.0685" stroke-miterlimit="10" d="M288.4,237.8c-1.2-11-2.2-22.1-3-33.2
		c9.7,0.9,17.5-1.6,27.2-0.8c8.1,13,17.5,29.6,24.6,43.2c2.3,4.4,2.9,9.4,1.6,14.2c-0.6,2.4-1.4,4.7-2.4,7
		c-4.4,10.4-13,19.3-24.1,22c-2.2,0.6-4.6,0.8-6.8,0.4c-9.3-1.6-11.5-10.9-12.7-18.9C291.1,260.4,289.7,249.1,288.4,237.8z"/>
	<path fill="#E3EEEC" stroke="#738182" stroke-width="3.0685" stroke-miterlimit="10" d="M335.8,109.8c-2.4-2-5.2-3.3-8.2-3
		c-2.6,0.2-5,1.6-7.2,3.1c-11.1,7.6-31.6,41.2-34.5,54.3c2.7,4.1,18.6-1.9,21,2.4c5.9,11,9.6,11.3,12.9,23.3
		c9.8,0,20.4,6.1,28.5,0.8c7.2-4.7,7.3-15.1,6.4-23.7c-1.8-17.6-4.1-35.9-13.5-50.9C339.6,113.8,337.9,111.5,335.8,109.8z"/>
	
		<path fill="none" stroke="#465560" stroke-width="3.8356" stroke-linecap="round" stroke-linejoin="round" stroke-miterlimit="10" d="
		M312,207.5c6.8,17.4,13.6,34.9,20.4,52.3c2.3,5.9,4.7,12.1,4.2,18.3c-0.4,6.2-3.7,12.2-9,16.4"/>
	<path fill="none" stroke="#231F20" stroke-width="3.8356" stroke-miterlimit="10" d="M319.2,186.4c22.5,1,44,3.6,44,3.6"/>
	<path fill="#BACCC8" stroke="#738182" stroke-width="3.0685" stroke-miterlimit="10" d="M281.5,207.6c-7.4,0-13.4-10.7-13.4-23.8
		c0-13.2,6-23.8,13.4-23.8h25.3v47.7H281.5z"/>
	
		<ellipse fill="none" stroke="#465560" stroke-width="3.8356" stroke-linecap="round" stroke-linejoin="round" stroke-miterlimit="10" cx="275.3" cy="185.9" rx="85.6" ry="135.2"/>
	<path fill="#E3EEEC" stroke="#738182" stroke-width="3.0685" stroke-miterlimit="10" d="M207.9,246.2c1.4,9,4,17.7,8,25.9
		c2.8,5.8,6.4,11.5,11.8,14.9c5.4,3.5,13,4.2,18.1,0.2c2.9-2.3,4.7-5.7,6.3-9c11.2-22.8,22.4-45.6,33.6-68.4c-5-7.8-8-16.8-8.7-26.1
		c-2.4-1.4-4.7-2.9-6.9-4.6c-8.8-5-18.6-11.7-29.1-10.4c-10.9,1.3-19,10.8-24,20.6C208.1,206.6,205,226.8,207.9,246.2z"/>
	<path fill="#E3EEEC" stroke="#738182" stroke-width="3.0685" stroke-miterlimit="10" d="M242.4,86.6c-6.4,2.8-12.5,6.3-17.6,11.1
		c-4.1,3.8-7.5,8.6-9.6,13.8c-3.2,7.9-1.1,16.9,4.9,22.9l24.8,24.8c11.4,11.3,24.4,23.4,39.9,25.3c-0.1-7.1,2.1-14.2,6.2-20
		c-0.4-15.8,3.6-31.5,4.4-47.4c0.4-6.9-0.1-14.2-1.7-21.1c-0.7-2.9-2.1-5.6-4.1-7.7c0,0,0,0,0,0c-2.4-2.5-4.9-5.1-7.9-6.8
		c-7.6-4.2-17-2.3-25.4,0.2C251.6,83.1,246.9,84.7,242.4,86.6z"/>
	
		<path fill="none" stroke="#465560" stroke-width="3.8356" stroke-linecap="round" stroke-linejoin="round" stroke-miterlimit="10" d="
		M313.1,166.6c4.8-14.9,9.3-29.9,13.3-45c2.3-8.4,4.4-16.9,4.4-25.5s-2.4-17.5-8.3-24.2"/>
	
		<path fill="none" stroke="#465560" stroke-width="3.8356" stroke-linecap="round" stroke-linejoin="round" stroke-miterlimit="10" d="
		M296.2,206.4c-7.8,26.9-16.7,57-24.5,83.9c-1.9,6.5-4,13.3-9.3,17.6c-6.5,5.2-15.8,4.9-24.2,4.4"/>
	
		<path fill="none" stroke="#465560" stroke-width="3.8356" stroke-linecap="round" stroke-linejoin="round" stroke-miterlimit="10" d="
		M170.5,191c6.1-4.3,14-4.9,21.4-5.2c26.7-1.1,72.6-2.1,99.3,0"/>
	
		<ellipse fill="none" stroke="#465560" stroke-width="3.8356" stroke-linecap="round" stroke-linejoin="round" stroke-miterlimit="10" cx="285.8" cy="182.4" rx="63.8" ry="105.7"/>
	
		<ellipse fill="#BACCC8" stroke="#738182" stroke-width="3.0685" stroke-miterlimit="10" cx="306.8" cy="183.8" rx="13.4" ry="23.8"/>
	
		<ellipse fill="#BACCC8" stroke="#738182" stroke-width="3.0685" stroke-miterlimit="10" cx="309.3" cy="183.8" rx="8.6" ry="15.3"/>
	
		<path fill="none" stroke="#465560" stroke-width="3.8356" stroke-linecap="round" stroke-linejoin="round" stroke-miterlimit="10" d="
		M222.8,72c12.9-0.7,26,5.6,33.5,16c3.5,4.8,5.8,10.4,8,15.8c9.7,23.5,18.2,43.7,27.9,67.1"/>
	
		<ellipse fill="none" stroke="#465560" stroke-width="3.8356" stroke-linecap="round" stroke-linejoin="round" stroke-miterlimit="10" cx="300.8" cy="182.4" rx="27.5" ry="45.7"/>
</g>
</svg>
