<?xml version="1.0" encoding="utf-8"?>
<!-- Generator: Adobe Illustrator 18.1.1, SVG Export Plug-In . SVG Version: 6.00 Build 0)  -->
<svg version="1.1" id="Layer_1" xmlns="http://www.w3.org/2000/svg" xmlns:xlink="http://www.w3.org/1999/xlink" x="0px" y="0px"
	 viewBox="0 0 220 220" enable-background="new 0 0 220 220" xml:space="preserve">
<g>
	<path fill="#8BC540" stroke="#019147" stroke-width="0.9448" stroke-miterlimit="10" d="M70.9,165.1c0,0,0-9.5-4.8-7.7
		c0,0,0-11.6-4.8-10.6c0,0-3.7-10.4-9.5-3.3c0,0-7.1-5.7-8.3,3.3c0,0-5.4-1.9-6.3,6.3c0,0-5.1-0.8-6,7.9c0,0-1.4,0.1-1.4,4.5
		L70.9,165.1z"/>
	<g>
		<g>
			<g>
				<polygon fill="#9B1C27" stroke="#CB203C" stroke-width="0.6561" stroke-miterlimit="10" points="66.3,65.1 66.3,99.9 52.6,99.9 
					52.6,168.1 49.9,168.1 49.9,74.3 49.9,74.3 49.9,65.1 				"/>
				
					<rect x="48" y="59.9" fill="#9B1C27" stroke="#CB203C" stroke-width="0.6561" stroke-miterlimit="10" width="19.7" height="5.2"/>
			</g>
			<line fill="#9B1C27" stroke="#CB203C" stroke-width="0.6561" stroke-miterlimit="10" x1="49.6" y1="67.8" x2="66" y2="67.8"/>
			<line fill="#9B1C27" stroke="#CB203C" stroke-width="0.6561" stroke-miterlimit="10" x1="49.6" y1="73" x2="66" y2="73"/>
			<line fill="#9B1C27" stroke="#CB203C" stroke-width="0.6561" stroke-miterlimit="10" x1="49.6" y1="77.6" x2="66" y2="77.6"/>
			<line fill="#9B1C27" stroke="#CB203C" stroke-width="0.6561" stroke-miterlimit="10" x1="49.6" y1="82.9" x2="66" y2="82.9"/>
			<line fill="#9B1C27" stroke="#CB203C" stroke-width="0.6561" stroke-miterlimit="10" x1="49.6" y1="88.1" x2="66" y2="88.1"/>
			<line fill="#9B1C27" stroke="#CB203C" stroke-width="0.6561" stroke-miterlimit="10" x1="49.6" y1="92.7" x2="66" y2="92.7"/>
			<line fill="#9B1C27" stroke="#CB203C" stroke-width="0.6561" stroke-miterlimit="10" x1="49.6" y1="97.9" x2="66" y2="97.9"/>
			
				<line fill="#9B1C27" stroke="#CB203C" stroke-width="0.6561" stroke-miterlimit="10" x1="49.6" y1="103.2" x2="52.9" y2="103.2"/>
			
				<line fill="#9B1C27" stroke="#CB203C" stroke-width="0.6561" stroke-miterlimit="10" x1="49.6" y1="109.8" x2="52.9" y2="109.8"/>
			
				<line fill="#9B1C27" stroke="#CB203C" stroke-width="0.6561" stroke-miterlimit="10" x1="49.6" y1="115.7" x2="52.9" y2="115.7"/>
			
				<line fill="#9B1C27" stroke="#CB203C" stroke-width="0.6561" stroke-miterlimit="10" x1="49.6" y1="122.2" x2="52.9" y2="122.2"/>
			
				<line fill="#9B1C27" stroke="#CB203C" stroke-width="0.6561" stroke-miterlimit="10" x1="49.6" y1="128.8" x2="52.9" y2="128.8"/>
			
				<line fill="#9B1C27" stroke="#CB203C" stroke-width="0.6561" stroke-miterlimit="10" x1="49.6" y1="160.9" x2="52.9" y2="160.9"/>
			
				<line fill="#9B1C27" stroke="#CB203C" stroke-width="0.6561" stroke-miterlimit="10" x1="49.6" y1="153.7" x2="52.9" y2="153.7"/>
			
				<line fill="#9B1C27" stroke="#CB203C" stroke-width="0.6561" stroke-miterlimit="10" x1="49.6" y1="147.8" x2="52.9" y2="147.8"/>
			
				<line fill="#9B1C27" stroke="#CB203C" stroke-width="0.6561" stroke-miterlimit="10" x1="49.6" y1="141.9" x2="52.9" y2="141.9"/>
			
				<line fill="#9B1C27" stroke="#CB203C" stroke-width="0.6561" stroke-miterlimit="10" x1="49.6" y1="134.7" x2="52.9" y2="134.7"/>
		</g>
		
			<rect x="52.6" y="90.7" fill="#E9E9C0" stroke="#676449" stroke-width="0.6561" stroke-miterlimit="10" width="120.7" height="77.4"/>
		<polygon fill="#FFFFFF" stroke="#406F9D" stroke-width="0.6561" stroke-miterlimit="10" points="128.7,103.8 128.7,109.8 
			126,109.8 126,164.2 121.5,164.2 121.5,109.8 63.1,109.8 63.1,164.2 58.5,164.2 58.5,109.8 55.2,109.8 55.2,103.8 		"/>
		<g>
			
				<rect x="110.3" y="107.1" fill="#FFFFFF" stroke="#406F9D" stroke-width="0.6561" stroke-miterlimit="10" width="3.3" height="3.9"/>
			
				<rect x="117.5" y="107.1" fill="#FFFFFF" stroke="#406F9D" stroke-width="0.6561" stroke-miterlimit="10" width="2.6" height="3.9"/>
			
				<rect x="124.1" y="107.1" fill="#FFFFFF" stroke="#406F9D" stroke-width="0.6561" stroke-miterlimit="10" width="2.6" height="3.9"/>
			
				<rect x="90.6" y="107.1" fill="#FFFFFF" stroke="#406F9D" stroke-width="0.6561" stroke-miterlimit="10" width="3.3" height="3.9"/>
			
				<rect x="97.2" y="107.1" fill="#FFFFFF" stroke="#406F9D" stroke-width="0.6561" stroke-miterlimit="10" width="3.3" height="3.9"/>
			
				<rect x="103.7" y="107.1" fill="#FFFFFF" stroke="#406F9D" stroke-width="0.6561" stroke-miterlimit="10" width="3.3" height="3.9"/>
			
				<rect x="70.9" y="107.1" fill="#FFFFFF" stroke="#406F9D" stroke-width="0.6561" stroke-miterlimit="10" width="2.6" height="3.9"/>
			
				<rect x="77.5" y="107.1" fill="#FFFFFF" stroke="#406F9D" stroke-width="0.6561" stroke-miterlimit="10" width="2.6" height="3.9"/>
			
				<rect x="84.1" y="107.1" fill="#FFFFFF" stroke="#406F9D" stroke-width="0.6561" stroke-miterlimit="10" width="2.6" height="3.9"/>
			
				<rect x="57.8" y="107.1" fill="#FFFFFF" stroke="#406F9D" stroke-width="0.6561" stroke-miterlimit="10" width="2.6" height="3.9"/>
			
				<rect x="64.4" y="107.1" fill="#FFFFFF" stroke="#406F9D" stroke-width="0.6561" stroke-miterlimit="10" width="2.6" height="3.9"/>
		</g>
		
			<rect x="52.6" y="90.7" fill="#949063" stroke="#6D6841" stroke-width="0.6561" stroke-miterlimit="10" width="120.7" height="9.2"/>
		<polygon fill="#936D68" stroke="#5B3533" stroke-width="0.6561" stroke-miterlimit="10" points="129.9,107.1 54,107.1 58,95.3 
			125.6,95.3 		"/>
		
			<line fill="#FFFFFF" stroke="#000000" stroke-width="0.6561" stroke-miterlimit="10" x1="100.1" y1="145.8" x2="104.7" y2="145.8"/>
		
			<rect x="98.5" y="119.6" fill="#FFFFFF" stroke="#000000" stroke-width="0.6561" stroke-miterlimit="10" width="21.7" height="41.3"/>
		
			<rect x="101.8" y="122.2" fill="#6D1E13" stroke="#AF3B31" stroke-width="0.6561" stroke-miterlimit="10" width="15.7" height="38.7"/>
		<g>
			
				<rect x="103.7" y="124.2" fill="#2C2A6C" stroke="#406F9D" stroke-width="0.6561" stroke-miterlimit="10" width="5.2" height="5.2"/>
			
				<rect x="109.6" y="124.2" fill="#2C2A6C" stroke="#406F9D" stroke-width="0.6561" stroke-miterlimit="10" width="5.9" height="5.2"/>
			
				<rect x="109.6" y="130.7" fill="#2C2A6C" stroke="#406F9D" stroke-width="0.6561" stroke-miterlimit="10" width="5.9" height="5.9"/>
			
				<rect x="103.7" y="130.7" fill="#2C2A6C" stroke="#406F9D" stroke-width="0.6561" stroke-miterlimit="10" width="5.2" height="5.9"/>
		</g>
		<circle fill="#FFFFFF" stroke="#000000" stroke-width="0.7873" stroke-miterlimit="10" cx="104" cy="141.2" r="1.5"/>
		<polygon fill="#E9E9C0" stroke="#676449" stroke-width="0.7873" stroke-miterlimit="10" points="154,71.9 113,72 72.1,71.9 
			113,49.6 		"/>
		<g>
			<polygon fill="#FFFFFF" stroke="#406F9D" stroke-width="0.7873" stroke-miterlimit="10" points="112.9,54.2 145.4,71.9 
				153.8,71.9 112.9,49.6 71.9,71.9 80.4,71.9 			"/>
			<g>
				<polygon fill="#2C2A6C" stroke="#406F9D" stroke-width="0.6561" stroke-miterlimit="10" points="118.9,64.9 114.9,62.6 
					114.9,71 117,71 				"/>
				<polygon fill="#2C2A6C" stroke="#406F9D" stroke-width="0.6561" stroke-miterlimit="10" points="121.5,66.4 119.7,71 130.5,71 
									"/>
			</g>
			<g>
				<polygon fill="#2C2A6C" stroke="#406F9D" stroke-width="0.6561" stroke-miterlimit="10" points="106.8,64.9 111,62.6 111,71 
					108.7,71 				"/>
				<polygon fill="#2C2A6C" stroke="#406F9D" stroke-width="0.6561" stroke-miterlimit="10" points="104.2,66.4 106,71 95.2,71 				
					"/>
			</g>
		</g>
		<polygon fill="#5B526B" stroke="#8E7FA2" stroke-width="0.6561" stroke-miterlimit="10" points="178.3,89.2 113,88.8 47.8,89.3 
			71.9,71 154.2,71 		"/>
		
			<rect x="44.7" y="88.8" fill="#676767" stroke="#B3B2B3" stroke-width="0.6561" stroke-miterlimit="10" width="137.8" height="2"/>
		
			<line fill="#FFFFFF" stroke="#406F9D" stroke-width="0.6561" stroke-miterlimit="10" x1="56.8" y1="142.6" x2="104.7" y2="142.6"/>
		<path fill="#8BC540" stroke="#019147" stroke-width="0.7873" stroke-miterlimit="10" d="M157.1,169.5c0,0,0-5.9,5.4-4.9
			c0,0,0-7.3,5.4-6.6c0,0,4-6.5,10.6-2.1c0,0,7.9-3.6,9.2,2.1c0,0,6-1.2,7,3.9c0,0,5.7-0.5,6.7,5c0,0,1.6,0.1,1.6,2.8L157.1,169.5z"
			/>
		<path fill="#8BC540" stroke="#019147" stroke-width="0.7873" stroke-miterlimit="10" d="M132.5,169.5c0,0,0-5.9,5.4-4.9
			c0,0,0-7.3,5.4-6.6c0,0,4-6.5,10.6-2.1c0,0,7.9-3.6,9.2,2.1c0,0,6-1.2,7,3.9c0,0,5.7-0.5,6.7,5c0,0,1.6,0.1,1.6,2.8L132.5,169.5z"
			/>
		<path fill="#8BC540" stroke="#019147" stroke-width="0.7098" stroke-miterlimit="10" d="M54.3,170.2c0,0,0-5.9-4.4-4.9
			c0,0,0-7.3-4.4-6.6c0,0-3.3-6.5-8.6-2.1c0,0-6.4-3.6-7.5,2.1c0,0-4.9-1.2-5.7,3.9c0,0-4.6-0.5-5.4,5c0,0-1.3,0.1-1.3,2.8
			L54.3,170.2z"/>
		
			<rect x="56.5" y="154.4" fill="#FFFFFF" stroke="#406F9D" stroke-width="0.6561" stroke-miterlimit="10" width="48.5" height="4.6"/>
		
			<rect x="138.5" y="109.1" fill="#2C2A6C" stroke="#5D5EA5" stroke-width="0.6561" stroke-miterlimit="10" width="22.3" height="38.1"/>
		
			<rect x="66.3" y="120.9" fill="#2C2A6C" stroke="#5D5EA5" stroke-width="0.6561" stroke-miterlimit="10" width="28.2" height="23.6"/>
		<path fill="#FFFFFF" stroke="#406F9D" stroke-width="0.6561" stroke-miterlimit="10" d="M137.9,107.8v6.7v2.5v32.8h24.3V117v-2.5
			v-6.7H137.9z M139.8,117.6h9.2v11.2h-9.2V117.6z M139.8,130.1h9.2v17.1h-9.2V130.1z M160.2,147.1H151v-17.1h9.2V147.1z
			 M160.2,128.8H151v-11.2h9.2V128.8z M160.2,115h-20.3v-4.6h20.3V115z"/>
		
			<rect x="137.2" y="147.1" fill="#FFFFFF" stroke="#406F9D" stroke-width="0.6561" stroke-miterlimit="10" width="25.6" height="2.6"/>
		
			<line fill="#FFFFFF" stroke="#406F9D" stroke-width="0.6561" stroke-miterlimit="10" x1="137.5" y1="148.5" x2="162.5" y2="148.5"/>
		<path fill="#FFFFFF" stroke="#406F9D" stroke-width="0.6561" stroke-miterlimit="10" d="M65,119.6v24.9h30.8v-24.9H65z
			 M67.7,131.4h12.5v11.2H67.7V131.4z M93.2,142.6H82.1v-11.2h11.2V142.6z M93.2,130.1H67.7v-7.2h25.6V130.1z"/>
		<g>
			
				<rect x="65.7" y="145.8" fill="#FFFFFF" stroke="#406F9D" stroke-width="0.6561" stroke-miterlimit="10" width="1.3" height="8.5"/>
			
				<rect x="70.9" y="145.8" fill="#FFFFFF" stroke="#406F9D" stroke-width="0.6561" stroke-miterlimit="10" width="1.3" height="8.5"/>
			
				<rect x="76.2" y="145.8" fill="#FFFFFF" stroke="#406F9D" stroke-width="0.6561" stroke-miterlimit="10" width="1.3" height="8.5"/>
			
				<rect x="80.8" y="145.8" fill="#FFFFFF" stroke="#406F9D" stroke-width="0.6561" stroke-miterlimit="10" width="1.3" height="8.5"/>
			
				<rect x="86" y="145.8" fill="#FFFFFF" stroke="#406F9D" stroke-width="0.6561" stroke-miterlimit="10" width="1.3" height="8.5"/>
			
				<rect x="91.3" y="145.8" fill="#FFFFFF" stroke="#406F9D" stroke-width="0.6561" stroke-miterlimit="10" width="1.3" height="8.5"/>
			
				<rect x="96.5" y="145.8" fill="#FFFFFF" stroke="#406F9D" stroke-width="0.6561" stroke-miterlimit="10" width="1.3" height="8.5"/>
		</g>
		<polygon fill="#FFFFFF" stroke="#406F9D" stroke-width="0.6561" stroke-miterlimit="10" points="105.1,141.2 105.1,161.6 
			100.5,161.6 100.5,145.8 57.2,145.8 57.2,141.2 		"/>
		
			<rect x="55.2" y="160.9" fill="#FFFFFF" stroke="#5B3533" stroke-width="0.6561" stroke-miterlimit="10" width="74.8" height="8.5"/>
		
			<rect x="105.7" y="163.5" fill="#979797" stroke="#4D4E4E" stroke-width="0.6561" stroke-miterlimit="10" width="15.7" height="5.9"/>
	</g>
</g>
</svg>
