<?xml version="1.0" encoding="utf-8"?>
<!-- Generator: Adobe Illustrator 18.1.1, SVG Export Plug-In . SVG Version: 6.00 Build 0)  -->
<svg version="1.1" id="Layer_1" xmlns="http://www.w3.org/2000/svg" xmlns:xlink="http://www.w3.org/1999/xlink" x="0px" y="0px" width="500px" height="500px" viewBox="0 0 500 500" enable-background="new 0 0 500 500" xml:space="preserve"><clipPath id="SVGID_8_">
			<use xlink:href="#SVGID_7_" overflow="visible"/>
		</clipPath><clipPath id="SVGID_6_">
			<use xlink:href="#SVGID_5_" overflow="visible"/>
		</clipPath><clipPath id="SVGID_4_">
			<use xlink:href="#SVGID_3_" overflow="visible"/>
		</clipPath><clipPath id="SVGID_2_">
			<use xlink:href="#SVGID_1_" overflow="visible"/>
		</clipPath>
<symbol id="New_Symbol_3" viewBox="-71.441 -57.737 142.881 115.473">
	<g>
		<path fill="#716127" stroke="#473A10" stroke-miterlimit="10" d="M43.756-5.827c0.687,0.122,1.36,0.318,2.004,0.585
			c1.249-0.088,2.691-0.046,3.645,0.214c0.303,0.083,0.622,0.196,0.805,0.452c0.183,0.255,0.137,0.689-0.157,0.799v0
			c-1.28,0.477-2.644,0.689-4.009,0.626c-0.905-0.042-1.81-0.083-2.715-0.122c-5.146,1.638-10.491-0.752-15.197-3.246
			c-4.144-2.197-8.539-4.598-13.161-4.548c-0.505-2.842-1.601-5.584-3.198-7.995c3.107-0.392,6.314,0.017,9.221,1.186
			c4.552,1.831,8.228,5.406,12.759,7.287c2.99,1.241,6.998,1.952,10.212,1.571c1.316-0.156,1.939-0.702,3.256-0.558
			c1.363,0.149,3.097,0.6,2.702,1.767c-0.285,0.512-0.588,0.661-1.129,0.767c-2.52,0.497-5.056,0.995-7.624,1.057
			c0.616,0.007,1.059,0.013,1.059,0.013C42.743-5.965,43.253-5.916,43.756-5.827z"/>
		<path fill="#716127" stroke="#473A10" stroke-miterlimit="10" d="M21.397-11.342c3.014-0.447,5.996,0.786,8.794,1.993
			c1.841,0.794,3.681,1.588,5.522,2.381c1.748,0.754,4.357,1.282,6.524,0.949"/>
	</g>
	<g>
		<defs>
			<path id="SVGID_1_" d="M28.231,23.085c4.698-13.569,9.752-27.7,20.121-37.603c1.825-0.276,3.74-0.03,5.561,0.371
				c2.401,0.529,4.762,1.317,7.214,1.497c1.722,0.127,3.54-0.093,5.071-0.839c0.361-0.326,0.6-0.542,0.6-0.542
				c0.295-0.267,0.211-0.785-0.075-1.062s-0.702-0.366-1.097-0.414c-1.64-0.201-3.338,0.12-4.794,0.9
				c-2.103-1.078-4.42-1.736-6.775-1.924c2.354-0.482,4.707-0.965,7.061-1.447c1.908-0.391,3.837-0.789,5.601-1.615
				c1.292-0.605,2.475-1.441,3.482-2.45c0.586-0.796,1.088-2.003,0.427-2.56c-0.604-0.508-1.571-0.228-2.266,0.146
				c-0.696,0.374-1.264,0.941-1.884,1.43c-3.149,2.484-7.437,2.857-11.448,2.878c-3.565,0.019-7.258-0.136-10.607,0.977
				c1.337-1.485,2.381-3.232,3.056-5.113c0.121-0.338,0.231-0.71,0.116-1.05c-0.227-0.67-1.174-0.78-1.816-0.481
				c-0.777,0.362-1.307,1.091-1.803,1.791c-0.575,0.811-1.151,1.623-1.726,2.434c-0.407,0.573-0.868,1.186-1.554,1.343
				c-2.618-1.458-5.554-2.34-8.539-2.574c-2.132-2.263-5.223-3.583-8.329-3.574c-0.297,0.001-0.614,0.02-0.856,0.192
				c-0.473,0.337-0.403,1.109-0.02,1.546c0.383,0.437,0.964,0.631,1.51,0.831c3.413,1.253,6.47,3.456,8.743,6.293
				C30.111-9.878,26.147-2.575,21.413,4.189l1.49,12.626L28.231,23.085z"/>
		</defs>
		<use xlink:href="#SVGID_1_" overflow="visible" fill="#716127"/>
		
		<path clip-path="url(#SVGID_2_)" fill="#EDE3C8" stroke="#D3BA7D" stroke-width="0.7493" stroke-miterlimit="10" d="M23.577,5.426
			c-1.108,0.38-2.236,0.704-3.377,0.97c-0.438,0.102-0.938,0.185-1.306-0.076c2.18-4.518,4.361-9.037,6.541-13.555
			c1.906-3.949,3.838-7.986,4.465-12.32c1.738,0.068,3.326,1.416,4.025,3.052c0.769,1.801,0.66,3.857,0.299,5.783
			c-0.504,2.689-1.463,5.264-2.481,7.806c-0.286,0.714-0.874,1.238-1.575,1.555c-0.782,0.354-1.393,0.996-1.373,1.831
			c0.008,0.346,0.122,0.701,0.239,1.05c0.247,0.739-0.082,1.547-0.774,1.905l0,0C26.75,4.207,25.184,4.876,23.577,5.426z"/>
		<use xlink:href="#SVGID_1_" overflow="visible" fill="none" stroke="#473A10" stroke-miterlimit="10"/>
	</g>
	<g>
		<path fill="#473A10" d="M37.917-19.654c0,0,0.751,0.111,1.492,0.139c0.186,0.011,0.375,0.052,0.547,0.044
			c0.17-0.023,0.323-0.088,0.452-0.166c0.258-0.149,0.415-0.372,0.415-0.372l-0.011-0.09c0,0-0.206-0.179-0.493-0.261
			c-0.144-0.044-0.308-0.071-0.479-0.052c-0.169,0.034-0.343,0.119-0.52,0.175c-0.712,0.206-1.414,0.494-1.414,0.494L37.917-19.654z
			"/>
	</g>
	<g>
		<path fill="#473A10" d="M39.047-17.191c0-0.028,0.326,0.424,1.106,0.605c0.768,0.194,1.853,0.004,2.766-0.584
			c0.199-0.121,0.43-0.294,0.628-0.444c0.204-0.154,0.383-0.326,0.552-0.493c0.318-0.352,0.556-0.714,0.743-1.031
			c0.372-0.63,0.564-1.113,0.564-1.113l-0.066-0.066c0,0-0.5,0.205-1.066,0.696c-0.286,0.24-0.593,0.534-0.89,0.857
			c-0.141,0.166-0.286,0.338-0.434,0.512c-0.153,0.176-0.293,0.319-0.485,0.489c-0.323,0.278-0.728,0.516-1.125,0.656
			c-0.4,0.144-0.798,0.206-1.141,0.196c-0.344-0.008-0.629-0.104-0.807-0.192c-0.186-0.088-0.288-0.164-0.288-0.164L39.047-17.191z"/>
	</g>
	<g>
		<path fill="#473A10" d="M47.274-13.782c0,0,0.092-0.103,0.253-0.284c0.166-0.183,0.402-0.406,0.742-0.626
			c0.661-0.456,1.666-0.838,2.72-1.04c0.529-0.1,1.068-0.148,1.571-0.22c0.501-0.09,0.968-0.209,1.368-0.335
			c0.804-0.242,1.31-0.556,1.31-0.556l-0.019-0.091c0,0-0.575-0.095-1.406-0.089c-0.417,0.002-0.904,0.027-1.421,0.116
			c-0.515,0.102-1.056,0.283-1.595,0.456c-0.538,0.185-1.069,0.398-1.543,0.652c-0.471,0.259-0.887,0.548-1.19,0.854
			c-0.313,0.285-0.539,0.588-0.663,0.786c-0.128,0.205-0.201,0.323-0.201,0.323L47.274-13.782z"/>
	</g>
	<g>
		<defs>
			<path id="SVGID_3_" d="M-49.161-19.07c0.017-0.042,0.026-0.063,0.026-0.063c2.164-5.186,7.012-8.707,11.842-11.578
				c3.324-1.975,6.751-3.777,10.261-5.396c14.277-0.876,28.839,4.273,39.375,13.952c4.764,8.007,8.214,16.796,10.161,25.908
				c6.229,3.563,9.632,10.65,12.382,17.35c1.535,3.74,3.005,7.52,4.005,11.436c2.502,1.253,4.797,2.918,6.765,4.91
				c2.49,0.085,3.967,2.786,3.737,5.15c-0.212,2.178-1.498,4.09-2.839,5.82c-0.356,1.301-2.642,2.492-3.918,2.928
				c-1.209,0.413-2.606,0.221-3.663-0.493c-0.672,2.309-2.256,4.338-4.33,5.554c-0.722,0.423-1.516,0.755-2.351,0.817
				c-0.889,0.066-1.77-0.176-2.62-0.445c-1.341-0.424-2.68-0.93-3.809-1.769c-1.344-0.999-2.376-2.531-2.281-4.259
				c-2.548,1.202-5.847,5.064-11.882,4.986c-2.284-0.029-4.44-0.998-6.307-2.314c-0.801-0.564-1.585-1.176-2.176-1.957
				c-1.375-1.815-1.502-4.254-1.078-6.529c-5.288-3.102-10.417-6.474-15.361-10.1c-2.063-1.513-4.14-3.122-5.623-5.182
				c-15.958-3.262-30.074-14.627-36.654-29.529c0.28-2.593,0.811-5.15,1.522-7.673C-51.525-13.404-49.418-18.454-49.161-19.07z"/>
		</defs>
		<use xlink:href="#SVGID_3_" overflow="visible" fill="#716127"/>
		
		<path clip-path="url(#SVGID_4_)" fill="#EDE3C8" stroke="#D3BA7D" stroke-width="0.7493" stroke-miterlimit="10" d="
			M-12.42-16.612L8.403,4.71l4.365,6.381c0,0,2.635,4.766,1.135,5.431c-1.5,0.665-4.667,0.998-4.667,0.998s1,3.161-4.5,2.828
			c0,0,1,1.497-4.333,0.665c0,0-0.833,0.832,1.333,2.329c2.167,1.497,3.667,4.658,5.667,5.158s8.167,2.496,10.167,3.494
			c2,0.998,10.5,4.653,14.834,3.987l13.5,3.667c0,0-1.167-4.5-7.011-7.264L52.737,8.869L22.57-43.206l-43-11.979
			c0,0-22,29.282-21.833,29.781c0.167,0.499,12.258,0.907,12.258,0.907c2.076-2.606,5.291-4.275,8.621-4.475
			c0.589-0.035,1.194-0.025,1.749,0.173c0.999,0.356,1.71,1.285,2.048,2.289s0.354,2.084,0.331,3.143
			c-0.045,2.027-0.221,4.051-0.527,6.055c0.715-0.316,1.457-0.57,2.236-0.639C-14.357-18.055-13.042-17.631-12.42-16.612"/>
		<use xlink:href="#SVGID_3_" overflow="visible" fill="none" stroke="#473A10" stroke-miterlimit="10"/>
	</g>
	<g>
		<defs>
			<path id="SVGID_5_" d="M-53.279-1.041c-1.027,0.361-2.094,0.606-3.175,0.729c-0.944,0.107-2.069,0.04-2.601-0.747
				c-0.486-0.719-0.238-1.687,0.061-2.502c0.851-2.324,1.975-4.549,3.344-6.612c-2.809,2.95-6.111,6.074-10.218,6.628
				c-1.812,0.244-3.98-0.25-4.747-1.91c-0.362-0.782-0.324-1.732,0.078-2.492c-1.276-4.007,0.713-8.317,2.654-12.085
				c1.958-3.8,3.916-7.601,5.874-11.401c0.529-2.966,1.767-5.796,3.565-8.209c4.091-3.572,8.526-6.75,13.223-9.477
				c0.703-0.408,1.483-0.677,2.289-0.784c3.238-0.43,6.507-0.62,9.774-0.561c1.958-0.936,2.442-3.276,2.68-5.348
				c0.044-0.381,0.095-0.787,0.344-1.079c0.405-0.477,1.206-0.434,1.696-0.044c0.489,0.39,0.719,1.022,0.828,1.637
				c0.299,1.688-0.173,3.498-1.262,4.822c3.796-1.047,7.875-0.062,11.838,0.165c1.052,0.06,2.2,0.037,3.013-0.652
				c0.587-0.204,1.064-0.676,1.468-1.16c0.46-0.552,0.886-1.157,1.496-1.535c0.611-0.378,1.483-0.456,1.999,0.042
				c0.104,0.101,0.191,0.224,0.226,0.365c0.043,0.177-0.001,0.362-0.052,0.536c-0.432,1.489-1.392,2.819-2.675,3.689
				c0.373-0.071,0.747-0.141,1.12-0.212c0.619-0.117,1.358-0.198,1.786,0.264c0.375,0.405,0.311,1.078-0.001,1.533
				c-0.312,0.456-0.812,0.741-1.303,0.994c-1.284,0.662-2.664,1.219-4.107,1.257c-0.682,0.018-1.361-0.08-2.041-0.132
				c-1.089-0.084-2.187-0.049-3.267,0.103c-0.714,1.573-2.53,2.261-4.213,2.256c-1.555-0.005-3.061-0.493-4.575-0.845
				c-1.421-0.331-2.87-0.545-4.326-0.64c3.882,1.9,7.282,4.779,9.79,8.3c-0.451,3.398-1.983,6.683-4.05,9.455
				c-2.865,3.839-6.693,6.836-10.547,9.681s-7.812,5.616-11.065,9.133"/>
		</defs>
		<use xlink:href="#SVGID_5_" overflow="visible" fill="#716127"/>
		
		<path clip-path="url(#SVGID_6_)" fill="#EDE3C8" stroke="#D3BA7D" stroke-width="0.75" stroke-miterlimit="10" d="M-23.858-40.061
			c1.934,2.524,3.28,5.497,3.806,8.629l-3.539,0.673c-1.153,1.7-2.844,3.029-4.762,3.763c-0.294,0.113-0.553-0.238-0.36-0.486
			c0.644-0.827,1.178-1.751,1.161-2.779c-0.003-0.191-0.04-0.407-0.2-0.512c-0.12-0.079-0.66,0.177-1.19,0.466
			c-0.344,0.187-0.728-0.143-0.611-0.517c0.416-1.335,0.712-2.708,0.883-4.096c0.198-1.603-0.329-3.2-1.35-4.451
			c-0.083-0.102-0.165-0.206-0.244-0.314c-1.256-1.715-7.167-6.667,2-3.167C-25.166-41.524-25.911-42.741-23.858-40.061z"/>
		<use xlink:href="#SVGID_5_" overflow="visible" fill="none" stroke="#473A10" stroke-miterlimit="10"/>
	</g>
	<g>
		<path fill="#473A10" d="M-21.52,28.996c0.711,0.173,1.416,0.328,2.113,0.525c0.694,0.202,1.388,0.389,2.068,0.62
			c1.366,0.436,2.701,0.949,3.998,1.537l-0.29-0.337c0.01,0.043,0.018,0.096,0.018,0.096c0.006,0.005-0.016-0.016,0.031-0.131
			c0.025-0.058,0.053-0.1,0.112-0.154c0.078-0.072,0.179-0.111,0.279-0.12c0.215-0.002,0.28,0.068,0.337,0.111
			c0.074,0.086,0.19,0.176,0.102,0.484c-0.028,0.065-0.066,0.124-0.12,0.17c-0.105,0.079,0.023-0.012-0.072,0.051
			c-0.099,0.051-0.139,0.048-0.197,0.053c-0.183-0.005-0.227-0.094-0.245-0.102l0.487,0.655c0.34,0.446,0.7,0.867,1.071,1.277
			c0.737,0.825,1.542,1.587,2.392,2.29c0.854,0.699,1.754,1.34,2.7,1.898c0.949,0.553,1.931,1.047,2.954,1.431l-1.335-0.935
			c-0.438-0.318-0.86-0.655-1.286-0.982c-0.842-0.668-1.657-1.361-2.432-2.096c-0.778-0.729-1.514-1.5-2.218-2.296
			c-0.351-0.4-0.682-0.816-1.013-1.221l-0.496-0.642c-0.094-0.119-0.26-0.297-0.581-0.305c-0.091,0.004-0.165,0.009-0.295,0.075
			c-0.11,0.07,0.003-0.01-0.114,0.079c-0.063,0.059-0.118,0.128-0.149,0.211c-0.111,0.373,0.04,0.535,0.162,0.666
			c0.082,0.063,0.178,0.154,0.428,0.148c0.118-0.007,0.232-0.058,0.325-0.139c0.07-0.065,0.105-0.123,0.141-0.195
			c0.069-0.18,0.052-0.27,0.052-0.332c-0.009-0.137-0.032-0.215-0.054-0.304l-0.058-0.241l-0.232-0.096
			C-15.663,29.615-18.598,28.986-21.52,28.996z"/>
	</g>
	<g>
		<path fill="#473A10" d="M43.385,35.685c0.761,0.481,1.392,1.138,1.866,1.881c0.119,0.186,0.225,0.379,0.32,0.578
			c0.104,0.203,0.172,0.391,0.231,0.612l0.385,1.292l0.197-0.252c-1.461-0.202-2.882-0.623-4.29-1.094
			c-1.407-0.474-2.815-1.008-4.268-1.418c-2.912-0.844-5.95-1.192-8.979-1.178l0.108,0.011c-0.504-0.12-1.062-0.247-1.553-0.399
			c-0.503-0.141-1.014-0.313-1.516-0.49c-1.007-0.357-1.997-0.769-2.993-1.182c-1.987-0.837-3.963-1.756-6.022-2.515
			c-1.037-0.384-2.075-0.714-3.15-0.979c-1.067-0.272-2.154-0.461-3.245-0.59c-2.183-0.258-4.391-0.262-6.567-0.023l0.13,0.022
			c-1.159-0.489-2.255-1.15-3.226-1.972c-0.97-0.822-1.826-1.788-2.529-2.866c1.203,2.279,3.184,4.16,5.544,5.308l0.055,0.027
			l0.075-0.005c2.144-0.152,4.301-0.063,6.415,0.269c1.057,0.168,2.102,0.397,3.136,0.663c1.027,0.267,2.056,0.608,3.047,0.99
			c2.003,0.767,3.953,1.703,5.951,2.576c0.997,0.442,2.019,0.842,3.061,1.197c0.523,0.177,1.042,0.345,1.585,0.49
			c0.548,0.159,1.05,0.266,1.602,0.39l0.055,0.012l0.053-0.001c2.946-0.073,5.898,0.299,8.762,0.988
			c1.439,0.347,2.848,0.82,4.29,1.246c1.437,0.427,2.916,0.802,4.433,0.901l0.296,0.019l-0.1-0.271l-0.465-1.264
			c-0.069-0.209-0.169-0.439-0.284-0.629c-0.112-0.2-0.235-0.394-0.369-0.579C44.892,36.705,44.181,36.102,43.385,35.685z"/>
	</g>
	<path fill="#716127" stroke="#473A10" stroke-miterlimit="10" d="M23.862,50.315c6.004,1.466,13.381,0.968,14.875,0.375"/>
	<g>
		<path fill="#473A10" d="M14.619,22.587c-1.152-0.73-2.377-1.359-3.625-1.934c-0.628-0.282-1.261-0.56-1.916-0.783
			c-0.654-0.226-1.316-0.432-1.989-0.614c-1.345-0.356-2.732-0.615-4.148-0.697c-0.708-0.022-1.419-0.006-2.131,0.046l-1.064,0.123
			l-1.057,0.194l0.589,0.081c-0.912-0.508-1.892-1.018-3.097-1.196c-0.596-0.09-1.271-0.054-1.909,0.175
			c-0.172,0.064-0.28,0.113-0.493,0.225l-0.16,0.1l-0.225,0.163c-0.284,0.225-0.501,0.461-0.697,0.728
			c-0.377,0.532-0.612,1.122-0.728,1.718c-0.058,0.299-0.093,0.6-0.097,0.902c-0.002,0.321,0.017,0.571,0.058,0.882
			c0.165,1.147,0.598,2.144,1.001,3.07l-0.058-0.388c-0.048,0.609-0.074,1.219-0.078,1.828c0.01,0.61,0.062,1.217,0.125,1.821
			c0.139,1.207,0.38,2.398,0.716,3.556c0.174,0.578,0.359,1.15,0.58,1.71c0.234,0.555,0.488,1.099,0.759,1.632
			c0.279,0.53,0.575,1.047,0.889,1.553c0.318,0.503,0.68,0.977,1.042,1.443l0.084-0.055c-2.556-3.931-3.722-8.743-3.243-13.4
			l0.002-0.021l-0.008-0.02c-0.386-0.924-0.765-1.861-0.889-2.846c-0.134-0.973,0.057-2.01,0.633-2.802
			c0.146-0.194,0.317-0.37,0.505-0.517c0.186-0.151,0.414-0.264,0.632-0.35c0.453-0.168,0.952-0.211,1.438-0.144
			c0.98,0.126,1.899,0.565,2.774,1.039l0.029,0.016l0.034-0.007l0.993-0.199l1.005-0.133c0.674-0.06,1.349-0.087,2.026-0.077
			c0.676,0.02,1.351,0.07,2.023,0.151c0.671,0.089,1.339,0.205,2.001,0.347c2.65,0.582,5.193,1.582,7.63,2.773L14.619,22.587z"/>
	</g>
	<g>
		<path fill="#473A10" d="M-67.746-12.384c1.054-2.718,2.337-5.335,3.855-7.812c1.52-2.473,3.24-4.821,5.162-6.987
			c1.911-2.179,4.036-4.151,6.303-5.954c2.268-1.807,4.658-3.519,6.755-5.629l0.032-0.033l0.036-0.054
			c0.368-0.552,0.738-1.106,1.18-1.601c0.425-0.509,0.907-0.965,1.406-1.4c0.999-0.871,2.161-1.554,3.402-2.056
			c1.25-0.486,2.557-0.874,3.9-0.952c1.339-0.089,2.714,0.082,3.968,0.654l0.047-0.088c-1.186-0.739-2.617-1.082-4.029-1.092
			c-1.421-0.008-2.835,0.255-4.169,0.727c-1.337,0.476-2.619,1.155-3.742,2.052c-1.129,0.89-2.067,2.005-2.841,3.205l0.068-0.087
			c-1.993,2.056-4.291,3.842-6.529,5.726c-2.247,1.881-4.367,3.937-6.247,6.187c-3.792,4.476-6.721,9.657-8.651,15.16
			L-67.746-12.384z"/>
	</g>
	<g>
		<path fill="#473A10" d="M-29.413-46.609c0,0,0.295,0.023,0.802,0.032c0.503-0.012,1.232,0.046,2.087,0.018
			c0.856-0.03,1.858,0.011,2.921-0.014c1.062-0.013,2.195-0.027,3.328-0.041c1.127-0.034,2.286-0.017,3.399-0.148
			c0.558-0.047,1.09-0.16,1.604-0.289c0.49-0.128,0.979-0.287,1.394-0.463c0.852-0.342,1.451-0.853,1.833-1.204
			c0.192-0.181,0.313-0.351,0.398-0.461c0.081-0.113,0.124-0.174,0.124-0.174l-0.065-0.066c0,0-0.196,0.208-0.601,0.497
			c-0.406,0.285-1.037,0.631-1.854,0.882c-0.815,0.259-1.808,0.411-2.878,0.462c-1.07,0.056-2.217,0.022-3.366,0.033
			c-2.298,0.039-4.59,0.227-6.299,0.436c-1.71,0.206-2.841,0.408-2.841,0.408L-29.413-46.609z"/>
	</g>
	<g>
		<path fill="#473A10" d="M-24.097-45.552c0,0,0.417,0.286,1.042,0.488c0.312,0.11,0.677,0.201,1.068,0.26
			c0.195,0.022,0.397,0.072,0.602,0.072c0.205,0.01,0.413,0.019,0.622,0.029c0.417-0.018,0.833-0.031,1.224-0.103
			c0.391-0.061,0.755-0.151,1.068-0.261c0.625-0.202,1.042-0.486,1.042-0.486v-0.1c0,0-1.667-0.025-3.333-0.05
			c-1.667,0.025-3.333,0.05-3.333,0.05V-45.552z"/>
	</g>
	<g>
		<path fill="#473A10" d="M-32.763-48.075c0,0,0.1,0.053,0.267,0.107c0.16,0.037,0.446,0.113,0.752,0.094
			c0.312-0.012,0.677-0.092,1.026-0.251c0.166-0.088,0.357-0.16,0.508-0.281c0.162-0.111,0.313-0.231,0.463-0.353
			c0.136-0.135,0.268-0.272,0.39-0.408c0.131-0.131,0.218-0.291,0.324-0.429c0.192-0.287,0.34-0.577,0.44-0.844
			c0.109-0.259,0.147-0.519,0.197-0.68c0.038-0.172,0.042-0.284,0.042-0.284l-0.071-0.062c0,0-0.237,0.259-0.592,0.648
			c-0.358,0.385-0.837,0.899-1.361,1.356c-0.504,0.48-1.086,0.867-1.571,1.055c-0.481,0.19-0.833,0.239-0.833,0.239L-32.763-48.075z
			"/>
	</g>
	<g>
		<path fill="#716127" d="M-57.756-6.628c1.039-1.848,2.078-3.696,3.117-5.544c1.375-2.446,2.754-4.898,4.36-7.199
			c1.505-5.063,3.432-10.253,7.379-13.801"/>
		<path fill="#473A10" d="M-57.756-6.628c0.781-0.974,1.491-1.988,2.238-2.981c0.192-0.246,0.306-0.534,0.461-0.8l0.453-0.805
			l0.905-1.61c1.208-2.142,2.436-4.263,3.829-6.261l0.046-0.066l0.023-0.077c0.75-2.519,1.584-5.01,2.723-7.347
			c0.573-1.165,1.208-2.298,1.971-3.338c0.169-0.274,0.323-0.562,0.487-0.845l0.528-0.827c0.376-0.536,0.772-1.064,1.19-1.587
			l-0.821,0.582l-0.774,0.649c-0.498,0.455-0.99,0.926-1.441,1.437c-0.373,0.566-0.75,1.126-1.089,1.709
			c-0.336,0.584-0.653,1.178-0.95,1.781c-1.178,2.418-2.026,4.959-2.783,7.501l0.069-0.143c-1.426,2.045-2.669,4.194-3.88,6.342
			l-0.906,1.611l-0.453,0.805c-0.147,0.271-0.334,0.519-0.444,0.81C-56.833-8.935-57.33-7.802-57.756-6.628z"/>
	</g>
	<g>
		<path fill="#716127" d="M-50.765-4.693c-0.367,8.04,3.167,16.17,9.297,21.386"/>
		<path fill="#473A10" d="M-50.765-4.693c0,0-0.05,0.376-0.113,1.035c-0.038,0.328-0.055,0.73-0.064,1.195
			C-50.964-1.997-50.973-1.47-50.93-0.9c0.014,0.573,0.076,1.191,0.165,1.842c0.071,0.654,0.216,1.334,0.359,2.038
			c0.183,0.694,0.337,1.423,0.595,2.134c0.22,0.723,0.523,1.429,0.8,2.145c0.333,0.691,0.644,1.394,1.023,2.048
			c0.342,0.674,0.772,1.284,1.154,1.891c0.418,0.584,0.814,1.155,1.245,1.652c0.416,0.509,0.825,0.976,1.235,1.377
			c0.388,0.421,0.778,0.772,1.132,1.073c0.346,0.309,0.651,0.572,0.919,0.769c0.527,0.405,0.835,0.624,0.835,0.624
			s-0.251-0.287-0.703-0.767c-0.456-0.474-1.066-1.192-1.751-2.077c-0.354-0.434-0.702-0.93-1.072-1.451
			c-0.38-0.513-0.715-1.101-1.1-1.678c-0.349-0.602-0.714-1.22-1.043-1.87c-0.356-0.636-0.643-1.32-0.957-1.99
			c-0.277-0.686-0.581-1.362-0.803-2.057c-0.253-0.684-0.454-1.373-0.657-2.039c-0.16-0.675-0.362-1.321-0.477-1.949
			c-0.128-0.626-0.254-1.219-0.329-1.774c-0.179-1.107-0.288-2.032-0.323-2.696C-50.727-4.315-50.765-4.693-50.765-4.693z"/>
	</g>
	<path fill="#211A05" stroke="#473A10" stroke-miterlimit="10" d="M30.457,47.318c-0.104-0.323-0.143-0.667-0.103-1.004
		c2.15,0.8,4.423,1.267,6.715,1.379c-1.467,0.883-3.187,1.334-4.896,1.306c-0.272-0.123-0.431-0.196-0.431-0.196
		C31.127,48.523,30.663,47.96,30.457,47.318z"/>
	<path fill="#F2BD7B" stroke="#A5763D" stroke-miterlimit="10" d="M16.051,51.632c0.852-0.831,1.63-1.737,2.322-2.706
		c0.578-0.809,0.662-1.891,0.176-2.759c-1.173-2.095-2.908-3.878-4.984-5.088c-1.828-0.361-3.717-0.41-5.563-0.152
		c-1.112,0.155-2.118,0.752-2.8,1.644c-0.85,1.112-1.454,2.412-1.746,3.781c0.152,3.015,2.067,5.915,4.876,7.109
		c2.395,0.455,4.958,0.037,7.057-1.213C15.615,52.048,15.835,51.842,16.051,51.632z"/>
	<g>
		<path fill="#473A10" d="M2.618,45.398c0,0,0.021-0.238,0.031-0.626c0.01-0.378-0.005-0.88-0.059-1.373
			c-0.099-0.992-0.397-1.92-0.397-1.92s0.058,0.974-0.085,1.913c-0.067,0.47-0.169,0.928-0.265,1.264
			c-0.104,0.336-0.173,0.56-0.173,0.56L2.618,45.398z"/>
	</g>
	<path stroke="#1D4F35" stroke-width="0.106" stroke-miterlimit="10" d="M9.037,49.996c-0.879-0.322-1.697-0.81-2.388-1.435
		c-0.661-0.598-0.75-1.646-0.125-2.281c0.926-0.941,2.253-1.404,3.552-1.342c0.369,0.018,0.721,0.162,0.987,0.418
		c0.772,0.743,1.545,1.485,2.318,2.227c0.428,0.41,0.642,1.019,0.49,1.591c-0.002,0.006-0.003,0.013-0.005,0.019
		c-0.167,0.618-0.717,1.068-1.349,1.167C11.353,50.544,10.147,50.403,9.037,49.996z"/>
	<g>
		<defs>
			<path id="SVGID_7_" d="M16.133,13.022c-0.38-3.382-2.19-6.581-4.895-8.648c-1.872-1.431-4.13-2.331-5.869-3.921
				C4.728-0.133,4.169-0.804,3.65-1.501c-1.785-2.4-3.111-5.141-3.884-8.03C-0.26-9.628-0.258-9.731-0.228-9.826
				c1.476-4.66,4.523-8.799,7.398-12.827c2.91-4.077,5.809-8.466,6.805-13.298c0.054-0.263,0.304-0.44,0.568-0.389
				c2.841,0.549,5.573,1.668,7.978,3.277c0.572,0.383,1.342,0.795,1.888,0.376c0.444-0.341,0.41-1.03,0.192-1.546
				c-0.711-1.684-2.745-2.455-4.547-2.492c-0.111-0.002-0.217-0.041-0.301-0.114c-0.46-0.398-0.921-0.798-1.38-1.198
				c6.703,0.207,13.391,0.853,20.01,1.931c0.865,0.141,1.749,0.289,2.614,0.148c0.383-0.063,0.765-0.193,1.098-0.392l0.104-0.214
				c0.422-0.873-0.062-1.934-1.028-2.149c-1.688-0.369-3.439-0.045-5.122,0.372c-0.095,0.024-0.192,0.017-0.283-0.019
				c-3.897-1.537-9.44-2.143-13.843-1.676c5.491,0.149,10.68-2.999,16.117-2.913c0.797,0.013,1.234-0.966,0.674-1.532
				c-0.471-0.476-1.166-0.817-1.829-0.939c-3.339-0.614-6.548,1.518-9.924,1.867c-3.627,0.375-7.105-1.318-10.666-2.1
				c-5.5-1.208-11.463-0.165-16.217,2.858c-2.417-0.43-5.043-0.502-7.117,0.79c-0.318,0.198-0.629,0.438-0.798,0.773
				c-0.169,0.335-0.159,0.784,0.11,1.046c0.226,0.219,0.569,0.258,0.884,0.264c1.568,0.029,3.129-0.462,4.688-0.286
				c0.668,0.075,1.323,0.274,1.914,0.579c-4.889,8.193-9.316,16.663-13.253,25.353c-0.743,1.641-0.841,3.503-0.301,5.222
				c3.007,9.576,8.267,18.442,15.25,25.653"/>
		</defs>
		<use xlink:href="#SVGID_7_" overflow="visible" fill="#716127"/>
		
		<path clip-path="url(#SVGID_8_)" fill="#EDE3C8" stroke="#D3BA7D" stroke-width="0.75" stroke-miterlimit="10" d="M14.282,16.501
			c0.087-1.825-0.704-3.626-1.514-5.293c-0.205-0.421-0.417-0.849-0.746-1.182c-0.646-0.654-1.613-0.833-2.495-1.093
			C9.198,8.836,8.861,8.71,8.553,8.543c-0.101-0.534-0.09-1.092-0.206-1.628C8.211,6.293,7.825,5.65,7.202,5.519
			C6.942,5.464,6.673,5.505,6.407,5.52c-0.551,0.031-1.106-0.062-1.62-0.259C3.03,2.932,1.379,0.521-0.157-1.96
			C-0.928-3.207-1.69-4.53-1.799-5.991c-0.195-2.609,1.69-4.868,3.424-6.813c1.131,4.417,4.116,8.121,7.23,11.46
			c2.679,2.872,5.549,5.64,7.716,8.891c0.631,3.521-0.276,7.31-2.477,10.135C14.204,17.289,14.263,16.894,14.282,16.501z"/>
		<use xlink:href="#SVGID_7_" overflow="visible" fill="none" stroke="#473A10" stroke-miterlimit="10"/>
	</g>
	<g>
		<path fill="#716127" d="M-0.296-39.614c0.763-1.419,2.124-2.441,3.596-3.094s3.067-0.973,4.646-1.289"/>
		<path fill="#473A10" d="M0.138-39.366c0,0,0.071-0.151,0.186-0.355c0.108-0.198,0.301-0.504,0.571-0.827
			c0.535-0.655,1.452-1.407,2.505-1.931c1.061-0.541,2.214-0.892,3.086-1.135c0.877-0.23,1.461-0.383,1.461-0.383
			s-0.598,0.092-1.495,0.23c-0.448,0.076-0.971,0.173-1.527,0.305c-0.553,0.131-1.153,0.306-1.721,0.523
			c-1.167,0.437-2.237,1.134-2.926,1.816c-0.348,0.34-0.596,0.651-0.768,0.901c-0.169,0.241-0.238,0.359-0.238,0.359L0.138-39.366z"/>
	</g>
	<g>
		<path fill="#716127" d="M14.05-36.023c0.336-1.478,0.287-3.043-0.142-4.497"/>
		<path fill="#473A10" d="M14.54-35.92c0,0,0.036-0.279,0.057-0.742c0.021-0.449,0.001-1.045-0.08-1.627
			c-0.148-1.174-0.608-2.232-0.608-2.232s0.215,1.135,0.108,2.247c-0.045,0.555-0.148,1.096-0.255,1.491
			c-0.102,0.382-0.2,0.656-0.2,0.656L14.54-35.92z"/>
	</g>
	<path fill="#FFFFFF" d="M8.929,48.331c-0.407-0.726-1.105-1.107-1.559-0.853c-0.453,0.255-0.491,1.049-0.084,1.775
		s1.105,1.107,1.559,0.853S9.336,49.057,8.929,48.331z"/>
</symbol>
<use xlink:href="#New_Symbol_3" width="142.881" height="115.473" id="XMLID_2_" x="-71.441" y="-57.737" transform="matrix(2.851 0 0 -2.851 250.0011 249.9973)" overflow="visible"/>
</svg>
