<?xml version="1.0" encoding="utf-8"?>
<!-- Generator: Adobe Illustrator 18.1.1, SVG Export Plug-In . SVG Version: 6.00 Build 0)  -->
<svg version="1.1" id="Layer_1" xmlns="http://www.w3.org/2000/svg" xmlns:xlink="http://www.w3.org/1999/xlink" x="0px" y="0px" width="500px" height="500px" viewBox="0 0 500 500" enable-background="new 0 0 500 500" xml:space="preserve"><clipPath id="SVGID_4_">
			<use xlink:href="#SVGID_3_" overflow="visible"/>
		</clipPath><clipPath id="SVGID_2_">
			<use xlink:href="#SVGID_1_" overflow="visible"/>
		</clipPath>
<symbol id="New_Symbol_4" viewBox="-32.875 -56.311 65.995 112.623">
	<path fill="#BDB6BE" stroke="#504C51" stroke-width="0.75" stroke-miterlimit="10" d="M32.429-42.999
		c0-7.145-14.495-12.936-32.375-12.936s-32.375,5.792-32.375,12.936v88.538c0,0.583,0.473,1.056,1.056,1.056h62.639
		c0.583,0,1.056-0.473,1.056-1.056V-42.999z"/>
	<g>
		<defs>
			<path id="SVGID_1_" d="M32.375,43.237c0-5.16-14.495-9.342-32.375-9.342s-32.375,4.183-32.375,9.342v-82.394
				c0-7.145,14.495-12.936,32.375-12.936s32.375,5.792,32.375,12.936V43.237z"/>
		</defs>
		<use xlink:href="#SVGID_1_" overflow="visible" fill="#F7D02A"/>
		
		<path clip-path="url(#SVGID_2_)" fill="#1F72B5" stroke="#0B4E76" stroke-miterlimit="10" d="M32.375,3.173
			C32.375-2.909,17.881-7.84,0-7.84S-32.375-2.909-32.375,3.173v50.764h64.75V3.173z"/>
		<g clip-path="url(#SVGID_2_)">
			<path fill="#CBB278" stroke="#8B7444" stroke-width="0.75" stroke-miterlimit="10" d="M-26.724-39.396
				c0.001-1.642-1.271-2.29-2.793-1.334c-1.523,0.954-2.716,3.15-2.716,4.792c0,1.645,1.193,2.112,2.716,1.159
				C-27.995-35.735-26.723-37.751-26.724-39.396z"/>
			<path fill="#CBB278" stroke="#8B7444" stroke-width="0.75" stroke-miterlimit="10" d="M-19.548-42.701
				c0.001-1.642-1.335-2.484-2.948-1.766c-1.614,0.715-2.891,2.718-2.891,4.36c0,1.645,1.277,2.306,2.891,1.591
				C-20.884-39.234-19.548-41.056-19.548-42.701z"/>
			<path fill="#CBB278" stroke="#8B7444" stroke-width="0.75" stroke-miterlimit="10" d="M-12.071-44.939
				c0-1.642-1.378-2.678-3.056-2.199c-1.679,0.476-3.018,2.286-3.018,3.928c0,1.645,1.34,2.5,3.018,2.023
				C-13.449-41.665-12.07-43.294-12.071-44.939z"/>
			<path fill="#CBB278" stroke="#8B7444" stroke-width="0.75" stroke-miterlimit="10" d="M-4.408-46.108
				c0.001-1.642-1.4-2.871-3.117-2.631c-1.718,0.237-3.099,1.854-3.098,3.495c0,1.645,1.381,2.693,3.098,2.456
				C-5.807-43.028-4.407-44.463-4.408-46.108z"/>
			<path fill="#CBB278" stroke="#8B7444" stroke-width="0.75" stroke-miterlimit="10" d="M3.325-46.21
				c0-1.642-1.401-3.065-3.131-3.063c-1.73-0.001-3.132,1.421-3.131,3.063c0,1.645,1.401,2.887,3.131,2.888
				C1.924-43.323,3.325-44.565,3.325-46.21z"/>
			<path fill="#CBB278" stroke="#8B7444" stroke-width="0.75" stroke-miterlimit="10" d="M11.01-45.243
				c0-1.642-1.381-3.258-3.098-3.495c-1.717-0.24-3.118,0.989-3.117,2.631c0,1.645,1.4,3.08,3.117,3.32
				C9.629-42.55,11.01-43.598,11.01-45.243z"/>
			<path fill="#CBB278" stroke="#8B7444" stroke-width="0.75" stroke-miterlimit="10" d="M18.532-43.209
				c0-1.642-1.339-3.452-3.018-3.928c-1.678-0.479-3.057,0.557-3.056,2.198c0,1.645,1.378,3.274,3.056,3.753
				C17.193-40.71,18.532-41.564,18.532-43.209z"/>
			<path fill="#CBB278" stroke="#8B7444" stroke-width="0.75" stroke-miterlimit="10" d="M25.774-40.107
				c-0.001-1.642-1.276-3.645-2.891-4.36c-1.613-0.718-2.948,0.124-2.948,1.766c0,1.645,1.335,3.467,2.948,4.185
				C24.497-37.801,25.774-38.463,25.774-40.107z"/>
			<path fill="#CBB278" stroke="#8B7444" stroke-width="0.75" stroke-miterlimit="10" d="M32.62-35.938
				c-0.001-1.642-1.194-3.839-2.717-4.792c-1.522-0.956-2.793-0.308-2.793,1.334c-0.001,1.645,1.271,3.661,2.793,4.617
				C31.427-33.825,32.62-34.293,32.62-35.938z"/>
		</g>
		<use xlink:href="#SVGID_1_" overflow="visible" fill="none" stroke="#0B4E76" stroke-width="0.75" stroke-miterlimit="10"/>
	</g>
	<path fill="#D5AB6F" stroke="#6D4B20" stroke-width="0.75" stroke-miterlimit="10" d="M9.702-9.396
		c0-5.358-4.344-9.702-9.702-9.702s-9.702,4.344-9.702,9.702S-5.358,0.305,0,0.305S9.702-4.038,9.702-9.396z"/>
	<path fill="#E5E3E4" stroke="#504C51" stroke-width="0.75" stroke-miterlimit="10" d="M32.429,46.595
		c0-5.16-14.495-9.342-32.375-9.342s-32.375,4.183-32.375,9.342s14.495,9.342,32.375,9.342S32.429,51.754,32.429,46.595z"/>
	<g>
		<defs>
			<path id="SVGID_3_" d="M29.84,47.133c0-4.08-13.336-7.387-29.786-7.387s-29.786,3.307-29.786,7.387s13.336,7.387,29.786,7.387
				S29.84,51.213,29.84,47.133z"/>
		</defs>
		<use xlink:href="#SVGID_3_" overflow="visible" fill="#E5E3E4"/>
		
		<g clip-path="url(#SVGID_4_)">
			<path fill="#E5E3E4" stroke="#737173" stroke-miterlimit="10" d="M28.375,45.385c0-4.079-12.68-7.385-28.321-7.385
				s-28.321,3.307-28.321,7.385s12.68,7.385,28.321,7.385S28.375,49.464,28.375,45.385z"/>
			<path fill="#E5E3E4" stroke="#737173" stroke-miterlimit="10" d="M25.118,43.237c0-4.197-11.222-7.6-25.064-7.6
				s-25.064,3.402-25.064,7.6s11.222,7.6,25.064,7.6S25.118,47.434,25.118,43.237z"/>
			<path fill="#E5E3E4" stroke="#737173" stroke-miterlimit="10" d="M21.869,43.237c0-2.859-9.767-5.177-21.815-5.177
				s-21.815,2.318-21.815,5.177s9.767,5.177,21.815,5.177S21.869,46.096,21.869,43.237z"/>
			<path fill="#E5E3E4" stroke="#737173" stroke-miterlimit="10" d="M17.119,42.701c0-2.563-7.64-4.641-17.065-4.641
				s-17.065,2.078-17.065,4.641c0,2.563,7.64,4.641,17.065,4.641S17.119,45.264,17.119,42.701z"/>
		</g>
		<use xlink:href="#SVGID_3_" overflow="visible" fill="none" stroke="#737173" stroke-miterlimit="10"/>
	</g>
	<g>
		<path fill="#FFFFFF" stroke="#BBBDBF" stroke-width="0.75" stroke-miterlimit="10" d="M-20.253,21.912
			c0.185-0.089,0.326-0.213,0.419-0.374c0.093-0.161,0.138-0.32,0.134-0.475c-0.004-0.156-0.053-0.293-0.146-0.413
			c-0.093-0.12-0.23-0.183-0.407-0.19c0-0.679,0-1.358,0-2.038c0-0.195-0.049-0.36-0.146-0.494
			c-0.097-0.134-0.216-0.219-0.355-0.256c-0.139-0.036-0.287-0.021-0.443,0.043c-0.155,0.064-0.294,0.196-0.418,0.391
			c-0.054,0.089-0.091,0.186-0.111,0.291c-0.019,0.105-0.029,0.201-0.029,0.286c0,0.675,0,1.351,0,2.026
			c-0.903,0.178-1.804,0.367-2.703,0.566c0-0.664,0-1.327,0-1.991c0-0.086-0.008-0.172-0.023-0.258
			c-0.015-0.086-0.042-0.16-0.081-0.222c-0.101-0.165-0.228-0.257-0.382-0.277c-0.155-0.019-0.304,0.017-0.451,0.109
			c-0.147,0.092-0.271,0.223-0.375,0.392c-0.104,0.169-0.156,0.359-0.156,0.569c0,2.018,0,4.036,0,6.055
			c0,0.203,0.06,0.364,0.179,0.485c0.119,0.12,0.256,0.192,0.41,0.215c0.155,0.023,0.31-0.009,0.469-0.096
			c0.158-0.087,0.276-0.236,0.353-0.448c0.024-0.068,0.039-0.128,0.046-0.18c0.008-0.053,0.011-0.11,0.012-0.172
			c0-0.882,0-1.764,0-2.646c0.899-0.2,1.801-0.389,2.703-0.566c0,0.835,0,1.671,0,2.506c0,0.156,0.035,0.297,0.105,0.424
			c0.084,0.155,0.207,0.253,0.366,0.292c0.159,0.039,0.314,0.029,0.466-0.031c0.152-0.06,0.283-0.16,0.396-0.302
			c0.112-0.142,0.169-0.318,0.169-0.529C-20.253,23.708-20.253,22.81-20.253,21.912z"/>
		<path fill="#FFFFFF" stroke="#BBBDBF" stroke-width="0.75" stroke-miterlimit="10" d="M-19.263,20.541
			c0.054,0.217,0.13,0.426,0.228,0.628c0.096,0.202,0.215,0.39,0.355,0.566c0.14,0.176,0.298,0.331,0.473,0.466
			c0.176,0.135,0.364,0.237,0.567,0.307c0.358,0.131,0.718,0.17,1.081,0.12c0.363-0.05,0.7-0.171,1.012-0.363
			c0.312-0.192,0.578-0.449,0.797-0.771c0.218-0.322,0.362-0.69,0.433-1.105c0.039-0.271,0.06-0.525,0.064-0.764
			c0.004-0.239-0.021-0.483-0.076-0.734c-0.078-0.357-0.236-0.701-0.474-1.032c-0.239-0.331-0.524-0.597-0.855-0.796
			c-0.332-0.199-0.694-0.308-1.088-0.327c-0.394-0.019-0.789,0.106-1.186,0.373c-0.179,0.115-0.341,0.241-0.485,0.378
			c-0.144,0.137-0.274,0.294-0.391,0.47c-0.132,0.194-0.235,0.391-0.308,0.591c-0.074,0.2-0.135,0.406-0.181,0.617
			c-0.055,0.228-0.074,0.452-0.058,0.672c0.016,0.22,0.043,0.432,0.082,0.636C-19.27,20.495-19.266,20.518-19.263,20.541z
			 M-17.862,20.06c-0.023-0.121-0.043-0.241-0.058-0.359c-0.016-0.119-0.016-0.242,0-0.369c0.023-0.183,0.072-0.355,0.146-0.515
			c0.074-0.16,0.17-0.293,0.291-0.397c0.121-0.105,0.259-0.172,0.415-0.2c0.156-0.028,0.323-0.005,0.503,0.07
			c0.226,0.098,0.422,0.275,0.584,0.529c0.164,0.253,0.265,0.528,0.305,0.823c0.039,0.295,0.008,0.585-0.094,0.868
			c-0.101,0.284-0.301,0.506-0.596,0.666c-0.195,0.029-0.375,0.019-0.538-0.03c-0.164-0.05-0.306-0.125-0.427-0.227
			c-0.121-0.102-0.226-0.228-0.315-0.378C-17.735,20.391-17.807,20.231-17.862,20.06z"/>
		<path fill="#FFFFFF" stroke="#BBBDBF" stroke-width="0.75" stroke-miterlimit="10" d="M-10.491,19.912c0,0.055,0,0.109,0,0.164
			c-0.071,0.186-0.185,0.324-0.341,0.413c-0.157,0.09-0.326,0.151-0.505,0.186c-0.102-0.021-0.184-0.047-0.247-0.08
			c-0.062-0.032-0.117-0.069-0.164-0.111c-0.046-0.042-0.09-0.09-0.128-0.144c-0.04-0.054-0.086-0.11-0.141-0.166
			c0-1.023,0-2.046,0-3.068c0-0.242-0.072-0.423-0.217-0.544c-0.144-0.12-0.305-0.18-0.482-0.18
			c-0.176,0.001-0.338,0.063-0.486,0.185c-0.149,0.123-0.227,0.311-0.235,0.561c-0.015,0.603-0.021,1.287-0.018,2.051
			c0.004,0.765,0.006,1.619,0.006,2.564c0,0.164,0.049,0.294,0.147,0.392c0.096,0.097,0.214,0.157,0.351,0.18
			c0.137,0.023,0.278,0.005,0.423-0.055c0.144-0.059,0.265-0.161,0.358-0.303c0.438,0.17,0.875,0.193,1.309,0.068
			c0.435-0.125,0.828-0.366,1.181-0.725c0.157,0.142,0.325,0.269,0.506,0.378c0.179,0.11,0.376,0.176,0.588,0.198
			c0.243,0.02,0.489-0.008,0.736-0.085c0.248-0.076,0.476-0.188,0.688-0.334c0.212-0.147,0.398-0.323,0.56-0.528
			c0.161-0.205,0.281-0.423,0.359-0.654c0.039-0.159,0.059-0.3,0.059-0.425c0-1.062,0-2.124,0-3.186
			c0-0.093-0.012-0.182-0.035-0.267c-0.071-0.199-0.182-0.335-0.336-0.408c-0.153-0.073-0.31-0.092-0.471-0.058
			c-0.161,0.034-0.301,0.118-0.418,0.251c-0.117,0.133-0.176,0.305-0.176,0.516c0,1.05,0,2.1,0,3.15
			c-0.071,0.192-0.172,0.336-0.306,0.432c-0.133,0.096-0.271,0.145-0.412,0.148c-0.141,0.003-0.277-0.037-0.406-0.121
			c-0.129-0.083-0.234-0.203-0.311-0.361c0-1.023,0-2.046,0-3.068c0-0.21-0.069-0.381-0.206-0.51
			c-0.137-0.129-0.288-0.205-0.453-0.23c-0.165-0.024-0.319,0.006-0.465,0.089c-0.144,0.084-0.228,0.232-0.252,0.445
			C-10.452,17.753-10.471,18.833-10.491,19.912z"/>
		<path fill="#FFFFFF" stroke="#BBBDBF" stroke-width="0.75" stroke-miterlimit="10" d="M-0.751,17.621
			c0.188,0.045,0.354,0.045,0.501,0.002c0.146-0.044,0.258-0.116,0.336-0.218c0.079-0.102,0.114-0.227,0.106-0.375
			c-0.008-0.148-0.075-0.305-0.201-0.468c-0.103-0.132-0.244-0.245-0.425-0.337c-0.181-0.092-0.35-0.165-0.506-0.218
			c-0.385-0.136-0.752-0.227-1.096-0.275c-0.346-0.047-0.67-0.039-0.973,0.025c-0.303,0.064-0.585,0.186-0.848,0.368
			c-0.263,0.182-0.509,0.433-0.737,0.756c-0.157,0.218-0.273,0.463-0.347,0.736c-0.075,0.273-0.116,0.55-0.124,0.832
			c-0.008,0.281,0.016,0.557,0.071,0.828c0.054,0.27,0.133,0.513,0.235,0.727c0.134,0.267,0.345,0.508,0.637,0.722
			c0.291,0.215,0.613,0.383,0.966,0.505c0.354,0.121,0.716,0.188,1.085,0.2c0.368,0.012,0.696-0.05,0.978-0.186
			c0.236-0.112,0.438-0.272,0.607-0.481c0.169-0.208,0.285-0.433,0.348-0.675c0.063-0.242,0.069-0.486,0.018-0.732
			c-0.051-0.245-0.179-0.469-0.384-0.671c-0.196-0.194-0.412-0.349-0.648-0.467c-0.236-0.118-0.48-0.219-0.732-0.304
			c-0.252-0.085-0.508-0.155-0.772-0.21c-0.264-0.056-0.517-0.118-0.76-0.188c0.164-0.193,0.353-0.318,0.565-0.374
			c0.212-0.057,0.434-0.073,0.667-0.046c0.231,0.026,0.465,0.086,0.701,0.179c0.236,0.094,0.456,0.198,0.661,0.313
			C-0.798,17.598-0.774,17.609-0.751,17.621z M-3.133,19.683c-0.181-0.096-0.315-0.218-0.4-0.368
			c-0.086-0.149-0.15-0.36-0.189-0.632c0.205,0.055,0.433,0.114,0.689,0.177s0.498,0.131,0.726,0.203
			c0.227,0.072,0.42,0.155,0.577,0.245C-1.573,19.4-1.494,19.5-1.494,19.61c0,0.062-0.01,0.123-0.03,0.182
			c-0.02,0.059-0.061,0.101-0.124,0.125c-0.22,0.082-0.448,0.102-0.683,0.061c-0.236-0.041-0.433-0.102-0.59-0.183
			C-2.992,19.757-3.062,19.72-3.133,19.683z"/>
		<path fill="#FFFFFF" stroke="#BBBDBF" stroke-width="0.75" stroke-miterlimit="10" d="M3.707,19.444c0,0.055,0,0.109,0,0.164
			c-0.071,0.178-0.185,0.301-0.342,0.371c-0.157,0.07-0.326,0.111-0.507,0.123c-0.102-0.033-0.185-0.07-0.248-0.111
			c-0.063-0.04-0.118-0.084-0.165-0.132c-0.046-0.048-0.09-0.101-0.129-0.16c-0.04-0.059-0.087-0.121-0.142-0.184
			c0-1.023,0-2.046,0-3.068c0-0.242-0.073-0.432-0.218-0.571c-0.146-0.138-0.307-0.218-0.484-0.24
			c-0.177-0.021-0.34,0.021-0.489,0.125c-0.149,0.105-0.228,0.282-0.236,0.532c-0.016,0.601-0.022,1.284-0.018,2.049
			c0.004,0.765,0.005,1.62,0.006,2.564c0,0.164,0.049,0.3,0.148,0.411c0.097,0.109,0.215,0.184,0.353,0.224
			c0.138,0.04,0.279,0.039,0.425-0.002c0.146-0.041,0.266-0.128,0.36-0.259c0.44,0.225,0.878,0.302,1.315,0.231
			c0.436-0.071,0.831-0.263,1.185-0.578c0.157,0.162,0.326,0.309,0.507,0.441c0.18,0.132,0.376,0.222,0.589,0.271
			c0.244,0.05,0.489,0.052,0.737,0.007c0.247-0.046,0.476-0.129,0.689-0.249c0.212-0.12,0.398-0.273,0.56-0.458
			c0.161-0.185,0.281-0.388,0.359-0.609c0.039-0.154,0.059-0.293,0.059-0.417c0-1.062,0-2.124,0-3.186
			c0-0.093-0.011-0.184-0.035-0.271c-0.071-0.208-0.182-0.358-0.336-0.45c-0.153-0.092-0.31-0.13-0.471-0.117
			c-0.161,0.014-0.3,0.081-0.418,0.199c-0.117,0.119-0.176,0.283-0.176,0.494c0,1.05,0,2.1,0,3.15
			c-0.071,0.184-0.173,0.314-0.306,0.393c-0.134,0.079-0.271,0.111-0.413,0.097c-0.142-0.015-0.277-0.072-0.407-0.171
			c-0.13-0.099-0.234-0.232-0.312-0.4c0-1.023,0-2.046,0-3.068c0-0.21-0.069-0.389-0.206-0.535
			c-0.137-0.146-0.289-0.241-0.454-0.287c-0.165-0.045-0.32-0.034-0.466,0.031c-0.146,0.066-0.229,0.204-0.253,0.414
			C3.746,17.29,3.726,18.367,3.707,19.444z"/>
		<path fill="#FFFFFF" stroke="#BBBDBF" stroke-width="0.75" stroke-miterlimit="10" d="M14.047,17.38
			c0.062-0.219,0.051-0.407-0.035-0.566c-0.086-0.158-0.205-0.272-0.358-0.341c-0.153-0.068-0.319-0.081-0.498-0.039
			c-0.18,0.043-0.336,0.15-0.47,0.323c-0.219-0.188-0.433-0.325-0.64-0.413c-0.206-0.087-0.444-0.148-0.71-0.181
			c-0.4-0.054-0.758-0.041-1.07,0.037c-0.313,0.078-0.578,0.215-0.794,0.409C9.255,16.8,9.097,17.052,8.995,17.36
			c-0.102,0.308-0.138,0.67-0.106,1.087c0.016,0.173,0.045,0.343,0.088,0.51c0.042,0.167,0.092,0.331,0.146,0.492
			c0.063,0.176,0.151,0.367,0.265,0.571c0.114,0.204,0.229,0.381,0.347,0.531c0.424,0.55,0.952,0.967,1.587,1.254
			c0.11,0.049,0.259,0.099,0.447,0.149c0.187,0.05,0.377,0.083,0.569,0.099c0.192,0.016,0.376,0.011,0.552-0.017
			c0.176-0.027,0.306-0.094,0.393-0.202c0.07-0.086,0.121-0.162,0.152-0.229c0.031-0.067,0.049-0.139,0.053-0.217
			c0.004-0.078,0.004-0.162,0-0.251c-0.004-0.09-0.006-0.202-0.006-0.335c0-0.219-0.002-0.431-0.006-0.639
			c-0.004-0.207-0.002-0.416,0.006-0.626c0-0.07,0-0.162,0-0.275c0-0.113,0.004-0.231,0.012-0.356
			c0.007-0.124,0.018-0.242,0.029-0.354c0.012-0.112,0.029-0.202,0.053-0.269C13.734,17.983,13.891,17.681,14.047,17.38z
			 M11.559,17.636c0.086,0.063,0.184,0.133,0.294,0.21c0.109,0.077,0.207,0.164,0.293,0.258c-0.07,0.406-0.112,0.816-0.123,1.229
			c-0.012,0.412-0.01,0.831,0.006,1.254c-0.352-0.098-0.669-0.282-0.951-0.55c-0.283-0.269-0.478-0.571-0.587-0.909
			c-0.047-0.137-0.087-0.277-0.118-0.42c-0.031-0.143-0.043-0.281-0.035-0.413c0.008-0.179,0.054-0.325,0.141-0.438
			c0.085-0.114,0.189-0.196,0.311-0.247c0.122-0.051,0.251-0.075,0.388-0.069C11.314,17.545,11.441,17.577,11.559,17.636z"/>
		<path fill="#FFFFFF" stroke="#BBBDBF" stroke-width="0.75" stroke-miterlimit="10" d="M20.304,18.73
			c0.132-0.203,0.177-0.398,0.134-0.585c-0.042-0.187-0.13-0.338-0.262-0.451c-0.132-0.113-0.294-0.176-0.484-0.189
			c-0.191-0.013-0.374,0.056-0.554,0.205c-0.187-0.164-0.382-0.299-0.584-0.406c-0.203-0.106-0.417-0.205-0.642-0.294
			c-0.351-0.132-0.688-0.177-1.012-0.135c-0.323,0.043-0.61,0.148-0.86,0.317c-0.25,0.168-0.453,0.393-0.61,0.673
			c-0.157,0.28-0.242,0.595-0.257,0.944c-0.023,0.388,0.006,0.766,0.088,1.136c0.082,0.37,0.212,0.715,0.392,1.035
			c0.179,0.321,0.416,0.607,0.709,0.859c0.292,0.252,0.637,0.45,1.035,0.596c0.234,0.082,0.471,0.142,0.708,0.179
			c0.237,0.037,0.472,0.055,0.706,0.054c-0.008,0.17-0.014,0.366-0.018,0.588c-0.004,0.222-0.006,0.438-0.006,0.649
			c0,0.211,0.008,0.401,0.023,0.572c0.016,0.171,0.036,0.293,0.058,0.367c0.055,0.149,0.138,0.27,0.251,0.363
			c0.114,0.093,0.231,0.152,0.356,0.177c0.123,0.025,0.246,0.014,0.367-0.031c0.12-0.046,0.216-0.129,0.286-0.249
			c0.016-0.037,0.035-0.07,0.058-0.101c0.023-0.031,0.035-0.066,0.035-0.105c0.007-1.022,0.01-2.032,0.006-3.032
			c-0.003-1-0.007-2.011-0.006-3.034C20.253,18.791,20.281,18.757,20.304,18.73z M18.682,19.099
			c0.015,0.026,0.045,0.054,0.088,0.085c0.042,0.03,0.065,0.065,0.064,0.104c0,0.328,0,0.65,0,0.966
			c0,0.316-0.004,0.638-0.012,0.964c-0.187,0.009-0.382,0.001-0.584-0.024c-0.203-0.025-0.399-0.074-0.59-0.15
			c-0.191-0.076-0.366-0.18-0.527-0.313c-0.16-0.133-0.286-0.308-0.38-0.524c-0.047-0.155-0.09-0.31-0.129-0.464
			c-0.039-0.154-0.061-0.301-0.064-0.442c-0.004-0.141,0.013-0.277,0.053-0.408c0.039-0.131,0.105-0.252,0.199-0.364
			c0.03-0.027,0.067-0.053,0.11-0.078c0.043-0.025,0.127-0.067,0.252-0.127c0.289,0.019,0.564,0.088,0.825,0.207
			C18.248,18.651,18.479,18.84,18.682,19.099z"/>
		<path fill="#FFFFFF" stroke="#BBBDBF" stroke-width="0.75" stroke-miterlimit="10" d="M25.752,20.462
			c0.184,0.089,0.348,0.128,0.491,0.119c0.142-0.01,0.253-0.056,0.33-0.14c0.077-0.083,0.111-0.2,0.104-0.35
			c-0.007-0.15-0.074-0.322-0.197-0.515c-0.1-0.156-0.239-0.301-0.417-0.436c-0.178-0.135-0.342-0.246-0.497-0.336
			c-0.379-0.226-0.737-0.402-1.077-0.53c-0.34-0.127-0.659-0.195-0.958-0.202c-0.298-0.006-0.576,0.05-0.836,0.171
			c-0.259,0.12-0.502,0.315-0.727,0.584c-0.155,0.181-0.269,0.399-0.342,0.655c-0.074,0.256-0.115,0.523-0.122,0.803
			c-0.008,0.279,0.015,0.561,0.07,0.845c0.053,0.283,0.131,0.544,0.232,0.782c0.132,0.298,0.341,0.588,0.628,0.871
			c0.287,0.283,0.605,0.526,0.952,0.73c0.349,0.204,0.705,0.355,1.068,0.452c0.363,0.098,0.683,0.112,0.961,0.042
			c0.232-0.057,0.429-0.171,0.595-0.34c0.166-0.169,0.279-0.367,0.341-0.594c0.062-0.228,0.068-0.47,0.017-0.728
			c-0.05-0.257-0.176-0.511-0.376-0.76c-0.193-0.239-0.404-0.445-0.636-0.618c-0.231-0.173-0.471-0.331-0.719-0.475
			c-0.247-0.143-0.5-0.273-0.759-0.39c-0.26-0.117-0.509-0.239-0.748-0.365c0.162-0.155,0.348-0.236,0.557-0.243
			c0.209-0.008,0.428,0.028,0.656,0.109c0.227,0.079,0.457,0.194,0.689,0.343c0.232,0.149,0.448,0.305,0.649,0.467
			C25.706,20.428,25.729,20.445,25.752,20.462z M23.41,21.97c-0.178-0.138-0.31-0.292-0.394-0.461
			c-0.085-0.169-0.148-0.394-0.186-0.676c0.202,0.103,0.428,0.215,0.679,0.337c0.252,0.122,0.49,0.246,0.714,0.372
			c0.223,0.125,0.413,0.253,0.568,0.38c0.154,0.127,0.232,0.246,0.232,0.356c0,0.063-0.01,0.121-0.029,0.175
			c-0.019,0.054-0.06,0.086-0.122,0.096c-0.217,0.03-0.44-0.002-0.672-0.099c-0.232-0.096-0.426-0.203-0.581-0.321
			C23.55,22.076,23.48,22.023,23.41,21.97z"/>
	</g>
	<g>
		<path fill="#A4943E" d="M-15.013,10.492c0.073,0.059,0.157,0.084,0.251,0.077c0.093-0.007,0.179-0.037,0.257-0.089
			c0.078-0.052,0.139-0.123,0.182-0.212c0.043-0.09,0.053-0.187,0.031-0.293c-0.028-0.105-0.081-0.198-0.158-0.277
			c-0.079-0.079-0.156-0.151-0.234-0.213c-0.178-0.154-0.375-0.253-0.594-0.298c-0.217-0.045-0.435-0.042-0.657,0.011
			c-0.221,0.052-0.438,0.153-0.65,0.302c-0.212,0.149-0.402,0.345-0.57,0.587c-0.101,0.144-0.185,0.29-0.253,0.44
			c-0.067,0.15-0.12,0.303-0.156,0.459c-0.055,0.23-0.08,0.462-0.075,0.696c0.004,0.234,0.04,0.454,0.109,0.659
			c0.068,0.205,0.164,0.391,0.29,0.557c0.125,0.166,0.279,0.298,0.461,0.395c0.133,0.071,0.265,0.129,0.4,0.173
			c0.134,0.044,0.277,0.082,0.428,0.114c0.087,0.018,0.176,0.035,0.267,0.05c0.091,0.015,0.185,0.022,0.281,0.021
			c0.097-0.002,0.193-0.015,0.289-0.039c0.096-0.025,0.19-0.064,0.281-0.119c0.064-0.041,0.128-0.092,0.193-0.153
			c0.064-0.061,0.123-0.128,0.178-0.201c0.054-0.073,0.103-0.148,0.143-0.225c0.042-0.077,0.07-0.149,0.089-0.217
			c0.015-0.063,0.017-0.124,0.011-0.186c-0.007-0.061-0.026-0.114-0.055-0.159c-0.029-0.045-0.07-0.08-0.12-0.105
			c-0.05-0.025-0.107-0.036-0.172-0.032c-0.105,0.006-0.186,0.034-0.243,0.083c-0.057,0.049-0.103,0.104-0.138,0.166
			c-0.034,0.062-0.067,0.123-0.099,0.183c-0.032,0.059-0.078,0.107-0.138,0.142c-0.037,0.008-0.063,0.011-0.082,0.01
			c-0.155-0.009-0.311-0.033-0.469-0.071c-0.158-0.038-0.303-0.092-0.438-0.165c-0.135-0.072-0.252-0.164-0.352-0.274
			c-0.101-0.111-0.173-0.245-0.219-0.4c-0.054-0.186-0.074-0.382-0.061-0.588c0.014-0.206,0.068-0.41,0.164-0.611
			c0.054-0.118,0.127-0.227,0.218-0.325c0.092-0.099,0.192-0.18,0.301-0.243c0.109-0.063,0.222-0.101,0.335-0.114
			c0.114-0.013,0.223,0.005,0.329,0.051c0.091,0.045,0.173,0.108,0.247,0.188C-15.14,10.325-15.072,10.407-15.013,10.492z"/>
		<path fill="#A4943E" d="M-9.776,10.162c-0.078-0.248-0.178-0.487-0.301-0.717c-0.122-0.23-0.271-0.43-0.446-0.599
			c-0.174-0.169-0.379-0.296-0.611-0.381c-0.233-0.085-0.498-0.104-0.797-0.056c-0.193,0.04-0.347,0.083-0.459,0.127
			c-0.113,0.044-0.222,0.101-0.328,0.17c-0.188,0.087-0.35,0.205-0.485,0.351c-0.135,0.146-0.249,0.308-0.34,0.487
			c-0.092,0.178-0.162,0.363-0.21,0.554c-0.048,0.191-0.08,0.373-0.093,0.547c-0.024,0.304,0.002,0.604,0.076,0.898
			c0.072,0.296,0.191,0.558,0.351,0.79c0.16,0.231,0.362,0.419,0.606,0.563c0.243,0.145,0.522,0.221,0.834,0.231
			c0.16,0.002,0.325-0.015,0.49-0.05c0.166-0.035,0.326-0.092,0.484-0.17c0.129-0.066,0.248-0.136,0.359-0.212
			c0.11-0.076,0.217-0.167,0.318-0.274c0.134-0.138,0.245-0.292,0.339-0.461c0.092-0.17,0.159-0.342,0.2-0.518
			c0.051-0.224,0.073-0.441,0.069-0.652C-9.726,10.58-9.744,10.37-9.776,10.162z M-11.566,9.251c0.139,0.038,0.259,0.1,0.363,0.183
			c0.103,0.084,0.194,0.179,0.273,0.287c0.078,0.109,0.143,0.227,0.196,0.356c0.054,0.128,0.1,0.258,0.142,0.391
			c0.027,0.171,0.042,0.349,0.045,0.533c0.002,0.184-0.036,0.365-0.114,0.542c-0.064,0.148-0.163,0.281-0.294,0.399
			c-0.132,0.119-0.275,0.209-0.432,0.273c-0.156,0.063-0.313,0.096-0.473,0.098c-0.159,0.002-0.3-0.036-0.425-0.117
			c-0.174-0.119-0.315-0.26-0.423-0.423c-0.108-0.164-0.19-0.351-0.244-0.563c-0.047-0.167-0.072-0.347-0.076-0.54
			c-0.005-0.193,0.026-0.382,0.089-0.569c0.051-0.138,0.124-0.268,0.224-0.392c0.098-0.123,0.21-0.225,0.334-0.305
			c0.124-0.081,0.256-0.136,0.397-0.166C-11.843,9.208-11.704,9.213-11.566,9.251z"/>
		<path fill="#A4943E" d="M-6.303,12.122c0.027,0.09,0.073,0.162,0.135,0.217c0.062,0.055,0.13,0.088,0.205,0.101
			c0.074,0.013,0.149,0.002,0.226-0.032c0.076-0.034,0.143-0.094,0.198-0.181c0.018-0.024,0.036-0.053,0.052-0.087
			c0.016-0.033,0.024-0.064,0.025-0.092c0.008-0.66,0.006-1.318-0.011-1.974c-0.017-0.655-0.044-1.312-0.08-1.969
			c0-0.106-0.034-0.186-0.101-0.241C-5.721,7.81-5.797,7.778-5.883,7.769c-0.085-0.009-0.173,0.007-0.26,0.049
			C-6.231,7.859-6.296,7.924-6.338,8.01c-0.004,0.005-0.007,0.01-0.007,0.014c0-0.005,0-0.009,0-0.014
			C-6.646,8.53-6.963,9.033-7.296,9.52c-0.333,0.487-0.68,0.974-1.04,1.462c0-0.521,0-1.042,0-1.563c0-0.212,0-0.39,0-0.532
			c0-0.143-0.003-0.259-0.007-0.349C-8.347,8.449-8.354,8.379-8.36,8.329c-0.007-0.05-0.018-0.092-0.031-0.128
			c-0.04-0.106-0.105-0.172-0.191-0.199c-0.085-0.027-0.172-0.026-0.259,0.003C-8.93,8.034-9.007,8.089-9.071,8.171
			c-0.064,0.082-0.097,0.178-0.097,0.288c0,0.064,0,0.166,0,0.304c0,0.139,0,0.295,0,0.471c0,0.175,0,0.363,0,0.563
			c0,0.201,0,0.397,0,0.591c0,0.193-0.001,0.375-0.004,0.543c-0.002,0.168-0.003,0.31-0.003,0.426c0,0.157-0.002,0.312-0.007,0.468
			c-0.005,0.155-0.005,0.311,0,0.467c0,0.078,0.019,0.143,0.059,0.193c0.039,0.05,0.089,0.087,0.149,0.11
			c0.061,0.022,0.125,0.032,0.195,0.028c0.068-0.004,0.136-0.021,0.201-0.051c0.055-0.025,0.111-0.069,0.169-0.134
			c0.058-0.064,0.114-0.133,0.17-0.206c0.055-0.073,0.108-0.146,0.156-0.218c0.049-0.072,0.089-0.131,0.121-0.176
			c0.121-0.16,0.259-0.345,0.416-0.552c0.158-0.207,0.303-0.402,0.437-0.586c0.134-0.188,0.266-0.376,0.392-0.563
			c0.127-0.187,0.251-0.373,0.372-0.558c0.013,0.418,0.024,0.835,0.028,1.249c0.004,0.415,0.007,0.832,0.007,1.251
			C-6.307,12.095-6.305,12.109-6.303,12.122z"/>
		<path fill="#A4943E" d="M-4.232,7.609c-0.121,0.03-0.224,0.092-0.309,0.185C-4.628,7.887-4.67,7.998-4.67,8.127
			c0,0.971,0,1.941,0,2.912c-0.083-0.008-0.165,0.007-0.243,0.047c-0.079,0.04-0.141,0.09-0.187,0.151
			c-0.047,0.061-0.074,0.13-0.081,0.206c-0.007,0.077,0.017,0.147,0.074,0.213c0.06,0.074,0.131,0.135,0.215,0.183
			c0.083,0.047,0.172,0.085,0.264,0.114c0.093,0.029,0.19,0.052,0.289,0.069c0.1,0.017,0.196,0.032,0.289,0.045
			c0.259,0.027,0.52,0.024,0.779-0.008c0.261-0.032,0.506-0.099,0.738-0.2c0.233-0.101,0.444-0.236,0.637-0.408
			c0.192-0.171,0.349-0.383,0.47-0.634c0.074-0.153,0.128-0.313,0.16-0.477c0.032-0.164,0.052-0.33,0.055-0.496
			c0.005-0.217-0.02-0.426-0.076-0.628c-0.056-0.202-0.14-0.39-0.251-0.565c-0.112-0.175-0.246-0.33-0.404-0.463
			c-0.158-0.134-0.334-0.244-0.529-0.329c-0.172-0.072-0.354-0.123-0.547-0.152C-3.21,7.678-3.4,7.655-3.585,7.636
			c-0.093-0.009-0.192-0.019-0.296-0.03C-3.985,7.596-4.086,7.594-4.183,7.6C-4.199,7.603-4.216,7.606-4.232,7.609z M-3.481,11.241
			c-0.06,0.003-0.118,0.003-0.171,0.001c-0.053-0.002-0.11-0.006-0.17-0.012c0-0.924,0-1.849,0-2.773
			c0.027-0.001,0.051,0,0.07,0.004c0.017,0.003,0.036,0.005,0.055,0.004c0.018-0.001,0.036,0,0.049,0.004
			c0.064,0.006,0.118,0.01,0.16,0.013c0.042,0.003,0.08,0.007,0.118,0.012c0.037,0.005,0.076,0.011,0.115,0.019
			C-3.215,8.52-3.17,8.53-3.119,8.541C-2.85,8.599-2.637,8.7-2.482,8.844C-2.326,8.989-2.21,9.191-2.13,9.452
			c0.051,0.15,0.074,0.304,0.069,0.461c-0.004,0.156-0.033,0.307-0.087,0.452c-0.053,0.145-0.132,0.278-0.233,0.398
			c-0.102,0.121-0.228,0.219-0.376,0.294c-0.121,0.06-0.24,0.102-0.358,0.126C-3.234,11.206-3.356,11.226-3.481,11.241z"/>
		<path fill="#A4943E" d="M1.846,8.616c0.084-0.003,0.157-0.023,0.219-0.06c0.062-0.038,0.114-0.084,0.152-0.138
			c0.04-0.054,0.063-0.117,0.07-0.188C2.294,8.158,2.28,8.085,2.243,8.01C2.229,7.978,2.2,7.939,2.156,7.894
			C2.112,7.849,2.071,7.821,2.034,7.811C1.737,7.717,1.432,7.657,1.119,7.632c-0.314-0.024-0.624-0.02-0.93,0.012
			C0.1,7.654,0.004,7.664-0.101,7.673c-0.105,0.01-0.195,0.041-0.274,0.092C-0.52,7.858-0.591,7.99-0.591,8.161
			c0,0.982,0,1.964,0,2.946c-0.051,0.038-0.094,0.084-0.125,0.14c-0.033,0.056-0.053,0.114-0.06,0.177
			c-0.007,0.062,0.001,0.122,0.025,0.179c0.024,0.057,0.063,0.107,0.118,0.147c0.093,0.073,0.2,0.121,0.321,0.145
			c0.121,0.025,0.239,0.046,0.355,0.064c0.242,0.036,0.483,0.055,0.725,0.057c0.241,0.002,0.488,0.007,0.738,0.016
			c0.074,0.001,0.159,0.009,0.258,0.022c0.098,0.013,0.183,0.007,0.258-0.019c0.087-0.03,0.157-0.079,0.208-0.147
			c0.05-0.068,0.082-0.14,0.09-0.219c0.01-0.078-0.006-0.154-0.045-0.229c-0.039-0.075-0.109-0.134-0.206-0.178
			c-0.116-0.049-0.24-0.072-0.373-0.071c-0.132,0.002-0.259,0.002-0.38,0.001c-0.176-0.003-0.352-0.006-0.529-0.012
			c-0.176-0.006-0.353-0.02-0.529-0.044c0-0.32,0-0.641,0-0.961c0.167-0.009,0.334-0.009,0.502,0.002
			c0.167,0.01,0.334,0.023,0.502,0.039c0.073,0.006,0.148,0.014,0.222,0.024c0.075,0.01,0.151,0.012,0.23,0.004
			c0.102-0.012,0.181-0.052,0.237-0.12c0.055-0.068,0.089-0.144,0.101-0.23c0.011-0.085-0.004-0.17-0.046-0.254
			C1.964,9.56,1.896,9.498,1.804,9.459c-0.079-0.034-0.186-0.06-0.321-0.078C1.349,9.362,1.208,9.349,1.059,9.34
			C0.91,9.332,0.764,9.327,0.62,9.326C0.477,9.325,0.355,9.328,0.258,9.332c0-0.284,0-0.567,0-0.851
			c0.256-0.032,0.513-0.035,0.773-0.01C1.29,8.497,1.546,8.545,1.797,8.615C1.814,8.615,1.83,8.616,1.846,8.616z"/>
		<path fill="#A4943E" d="M5.701,12.038c0.027,0.094,0.072,0.174,0.135,0.238c0.063,0.065,0.131,0.109,0.205,0.133
			c0.074,0.024,0.149,0.025,0.226,0.004c0.076-0.022,0.142-0.072,0.198-0.15c0.019-0.021,0.035-0.048,0.052-0.079
			c0.016-0.031,0.025-0.06,0.025-0.088c0.009-0.659,0.006-1.317-0.011-1.975C6.515,9.463,6.488,8.802,6.451,8.139
			c0-0.106-0.034-0.192-0.101-0.257C6.283,7.817,6.208,7.773,6.121,7.75c-0.085-0.023-0.173-0.02-0.26,0.008
			C5.772,7.786,5.707,7.841,5.666,7.921C5.661,7.925,5.659,7.93,5.659,7.934c0-0.005,0-0.009,0-0.014
			C5.357,8.392,5.04,8.845,4.706,9.28c-0.333,0.435-0.682,0.867-1.043,1.298c0-0.521,0-1.042,0-1.563c0-0.212,0-0.39,0-0.532
			c0-0.143-0.003-0.259-0.007-0.35c-0.005-0.09-0.011-0.161-0.018-0.212C3.631,7.87,3.621,7.826,3.607,7.788
			C3.566,7.676,3.502,7.599,3.415,7.559C3.33,7.519,3.243,7.506,3.155,7.52c-0.088,0.015-0.165,0.059-0.23,0.13
			C2.86,7.722,2.827,7.813,2.828,7.924c0,0.064,0,0.166,0,0.304c0,0.139,0,0.295,0,0.471c0,0.175,0,0.363,0,0.563
			c0,0.201,0,0.397,0,0.591c0,0.193-0.001,0.375-0.004,0.543c-0.002,0.168-0.003,0.31-0.003,0.425c0,0.157-0.002,0.312-0.007,0.467
			c-0.005,0.154-0.005,0.31,0,0.467c0,0.078,0.02,0.146,0.059,0.203c0.039,0.057,0.09,0.101,0.149,0.133
			c0.061,0.032,0.126,0.052,0.196,0.059c0.068,0.007,0.137,0.001,0.201-0.02c0.056-0.016,0.112-0.052,0.17-0.107
			c0.058-0.055,0.115-0.115,0.171-0.179c0.056-0.064,0.108-0.129,0.156-0.193c0.049-0.065,0.089-0.117,0.122-0.157
			c0.121-0.141,0.261-0.304,0.418-0.486c0.158-0.182,0.304-0.355,0.438-0.517c0.134-0.167,0.266-0.334,0.393-0.501
			c0.127-0.167,0.251-0.333,0.372-0.5c0.014,0.42,0.023,0.839,0.028,1.253c0.004,0.415,0.007,0.833,0.007,1.252
			C5.696,12.01,5.699,12.024,5.701,12.038z"/>
		<path fill="#A4943E" d="M7.25,8.548c-0.033,0.085-0.043,0.171-0.031,0.26c0.012,0.088,0.041,0.166,0.09,0.233
			C7.357,9.107,7.42,9.157,7.5,9.19c0.078,0.033,0.167,0.033,0.264,0.002c0.088-0.028,0.162-0.075,0.225-0.14
			c0.063-0.065,0.137-0.114,0.225-0.146c0.121-0.047,0.243-0.078,0.368-0.092C8.669,8.8,8.757,8.795,8.845,8.798
			c0.087,0.003,0.177,0.01,0.27,0.021c0.07,0.027,0.129,0.052,0.18,0.077c0.051,0.024,0.106,0.07,0.166,0.137
			c0.07,0.068,0.114,0.145,0.135,0.231c0.021,0.086,0.021,0.168,0,0.246C9.576,9.587,9.538,9.656,9.479,9.716
			c-0.058,0.06-0.128,0.096-0.211,0.11c-0.163,0.036-0.324,0.06-0.485,0.072c-0.161,0.012-0.319,0.03-0.472,0.055
			c-0.151,0.025-0.297,0.07-0.433,0.132c-0.137,0.062-0.263,0.16-0.378,0.292c-0.065,0.072-0.107,0.137-0.125,0.196
			c-0.019,0.058-0.039,0.132-0.062,0.222C7.27,11.012,7.288,11.2,7.364,11.36c0.077,0.159,0.171,0.307,0.288,0.442
			c0.148,0.176,0.315,0.316,0.503,0.421c0.187,0.105,0.383,0.181,0.589,0.23C8.95,12.5,9.158,12.52,9.368,12.511
			c0.211-0.009,0.41-0.043,0.599-0.102c0.11-0.032,0.181-0.094,0.211-0.187c0.03-0.093,0.031-0.187,0.003-0.283
			c-0.027-0.096-0.081-0.179-0.158-0.249c-0.079-0.07-0.171-0.102-0.278-0.097c-0.111,0.009-0.213,0.021-0.311,0.034
			C9.336,11.64,9.24,11.65,9.143,11.657c-0.073,0.006-0.153-0.002-0.239-0.021c-0.086-0.019-0.167-0.043-0.243-0.072
			c-0.076-0.029-0.147-0.06-0.211-0.092c-0.065-0.032-0.114-0.064-0.146-0.095c-0.037-0.036-0.072-0.081-0.108-0.136
			c-0.034-0.054-0.054-0.114-0.059-0.179c-0.009-0.08,0.022-0.141,0.09-0.184c0.07-0.044,0.144-0.072,0.222-0.087
			c0.153-0.016,0.31-0.03,0.472-0.041c0.161-0.011,0.321-0.034,0.477-0.068c0.158-0.034,0.304-0.083,0.44-0.149
			c0.136-0.066,0.252-0.162,0.349-0.287c0.107-0.106,0.183-0.232,0.229-0.378c0.045-0.146,0.064-0.296,0.052-0.45
			c-0.012-0.153-0.047-0.305-0.106-0.453c-0.061-0.149-0.144-0.283-0.249-0.403c-0.074-0.083-0.152-0.157-0.233-0.22
			C9.8,8.278,9.713,8.215,9.621,8.153C9.436,8.034,9.238,7.962,9.025,7.937C8.813,7.912,8.6,7.919,8.387,7.959
			c-0.212,0.039-0.413,0.107-0.603,0.2c-0.19,0.094-0.352,0.202-0.486,0.324C7.282,8.505,7.266,8.526,7.25,8.548z"/>
		<path fill="#A4943E" d="M13.502,9.757c0.083,0.01,0.155,0.001,0.217-0.027c0.062-0.029,0.112-0.066,0.151-0.115
			c0.04-0.048,0.062-0.107,0.069-0.177c0.006-0.071-0.008-0.146-0.045-0.226c-0.013-0.035-0.042-0.078-0.085-0.13
			c-0.044-0.052-0.084-0.085-0.12-0.101c-0.294-0.14-0.596-0.246-0.906-0.319c-0.311-0.072-0.617-0.115-0.922-0.13
			c-0.087-0.004-0.184-0.009-0.287-0.016c-0.104-0.006-0.194,0.011-0.272,0.05c-0.143,0.071-0.214,0.193-0.215,0.363
			c0,0.982,0,1.964,0,2.946c-0.051,0.03-0.092,0.07-0.124,0.121c-0.033,0.051-0.053,0.106-0.06,0.168
			c-0.007,0.061,0.001,0.122,0.024,0.183c0.023,0.061,0.062,0.116,0.117,0.166c0.093,0.087,0.198,0.151,0.318,0.194
			c0.12,0.043,0.237,0.082,0.352,0.118c0.239,0.073,0.479,0.129,0.718,0.168c0.238,0.038,0.483,0.082,0.731,0.128
			c0.073,0.013,0.158,0.033,0.255,0.062c0.096,0.028,0.18,0.035,0.255,0.021c0.086-0.017,0.156-0.055,0.206-0.115
			c0.051-0.06,0.081-0.128,0.089-0.205c0.009-0.076-0.005-0.155-0.045-0.236c-0.039-0.081-0.107-0.151-0.203-0.209
			c-0.114-0.067-0.237-0.109-0.368-0.128c-0.131-0.018-0.255-0.037-0.375-0.058c-0.174-0.029-0.349-0.06-0.524-0.093
			c-0.174-0.033-0.35-0.074-0.524-0.124c0-0.32,0-0.641,0-0.961c0.165,0.016,0.331,0.042,0.497,0.078
			c0.165,0.035,0.331,0.074,0.497,0.116c0.073,0.017,0.147,0.037,0.22,0.058c0.074,0.022,0.149,0.035,0.228,0.039
			c0.101,0.004,0.179-0.024,0.234-0.083c0.055-0.06,0.089-0.131,0.1-0.214c0.011-0.083-0.003-0.17-0.046-0.261
			c-0.041-0.09-0.108-0.162-0.199-0.215c-0.078-0.046-0.184-0.089-0.317-0.127c-0.133-0.039-0.273-0.074-0.42-0.105
			c-0.147-0.031-0.292-0.059-0.434-0.081c-0.142-0.023-0.263-0.039-0.359-0.049c0-0.284,0-0.567,0-0.851
			c0.253,0.007,0.509,0.043,0.766,0.109c0.257,0.065,0.51,0.152,0.758,0.26C13.47,9.752,13.486,9.755,13.502,9.757z"/>
		<path fill="#A4943E" d="M15.138,8.944c-0.119-0.001-0.221,0.035-0.305,0.106c-0.086,0.071-0.127,0.171-0.127,0.3
			c0,0.971,0,1.941,0,2.912c-0.082-0.03-0.163-0.035-0.241-0.015c-0.078,0.02-0.14,0.054-0.185,0.103
			c-0.047,0.049-0.073,0.111-0.08,0.186c-0.007,0.075,0.017,0.152,0.073,0.231c0.059,0.09,0.13,0.168,0.213,0.237
			c0.082,0.068,0.17,0.129,0.261,0.181c0.092,0.052,0.187,0.1,0.285,0.142c0.098,0.042,0.194,0.082,0.285,0.119
			c0.256,0.093,0.513,0.157,0.768,0.19c0.256,0.034,0.498,0.03,0.726-0.012c0.228-0.042,0.437-0.123,0.625-0.246
			c0.189-0.122,0.342-0.294,0.461-0.515c0.072-0.135,0.126-0.28,0.157-0.436c0.032-0.156,0.05-0.317,0.054-0.482
			c0.005-0.216-0.02-0.431-0.074-0.647c-0.055-0.216-0.136-0.426-0.246-0.629c-0.11-0.204-0.242-0.392-0.396-0.566
			c-0.155-0.174-0.328-0.329-0.519-0.463c-0.169-0.116-0.347-0.213-0.537-0.29c-0.19-0.078-0.376-0.149-0.558-0.215
			c-0.092-0.033-0.189-0.068-0.291-0.105c-0.104-0.037-0.203-0.065-0.298-0.084C15.17,8.945,15.154,8.944,15.138,8.944z
			 M15.879,12.767c-0.06-0.013-0.116-0.027-0.168-0.042c-0.052-0.015-0.108-0.034-0.167-0.055c0-0.924,0-1.849,0-2.773
			c0.027,0.006,0.05,0.013,0.069,0.021c0.018,0.008,0.036,0.014,0.054,0.018c0.019,0.004,0.035,0.009,0.048,0.017
			c0.064,0.022,0.116,0.04,0.158,0.053c0.041,0.013,0.08,0.027,0.116,0.042c0.037,0.015,0.074,0.03,0.113,0.048
			c0.039,0.017,0.084,0.039,0.133,0.063c0.265,0.126,0.474,0.281,0.626,0.465c0.153,0.184,0.267,0.416,0.346,0.697
			c0.05,0.163,0.073,0.323,0.068,0.479c-0.004,0.155-0.033,0.299-0.085,0.43c-0.052,0.131-0.129,0.244-0.229,0.339
			c-0.101,0.095-0.224,0.161-0.37,0.198c-0.119,0.029-0.235,0.041-0.352,0.035C16.122,12.794,16.002,12.783,15.879,12.767z"/>
	</g>
	<g display="none">
		<path display="inline" fill="#CBB278" stroke="#8B7444" stroke-miterlimit="10" d="M-26.724-40.316
			c0.001-1.642-1.271-2.29-2.793-1.334c-1.523,0.954-2.716,3.15-2.716,4.792c0,1.645,1.193,2.112,2.716,1.159
			C-27.995-36.655-26.723-38.671-26.724-40.316z"/>
		<path display="inline" fill="#CBB278" stroke="#8B7444" stroke-miterlimit="10" d="M-19.548-43.621
			c0.001-1.642-1.335-2.484-2.948-1.766c-1.614,0.715-2.891,2.718-2.891,4.36c0,1.645,1.277,2.306,2.891,1.591
			C-20.884-40.154-19.548-41.976-19.548-43.621z"/>
		<path display="inline" fill="#CBB278" stroke="#8B7444" stroke-miterlimit="10" d="M-12.071-45.859
			c0-1.642-1.378-2.678-3.056-2.199c-1.679,0.476-3.018,2.286-3.018,3.928c0,1.645,1.34,2.5,3.018,2.023
			C-13.449-42.585-12.07-44.214-12.071-45.859z"/>
		<path display="inline" fill="#CBB278" stroke="#8B7444" stroke-miterlimit="10" d="M-4.408-47.028
			c0.001-1.642-1.4-2.871-3.117-2.631c-1.718,0.237-3.099,1.854-3.098,3.495c0,1.645,1.381,2.693,3.098,2.456
			C-5.807-43.948-4.407-45.383-4.408-47.028z"/>
		<path display="inline" fill="#CBB278" stroke="#8B7444" stroke-miterlimit="10" d="M3.325-47.13c0-1.642-1.401-3.065-3.131-3.063
			c-1.73-0.001-3.132,1.421-3.131,3.063c0,1.645,1.401,2.887,3.131,2.888C1.924-44.243,3.325-45.485,3.325-47.13z"/>
		<path display="inline" fill="#CBB278" stroke="#8B7444" stroke-miterlimit="10" d="M11.01-46.163c0-1.642-1.381-3.258-3.098-3.495
			c-1.717-0.24-3.118,0.989-3.117,2.631c0,1.645,1.4,3.08,3.117,3.32C9.629-43.47,11.01-44.519,11.01-46.163z"/>
		<path display="inline" fill="#CBB278" stroke="#8B7444" stroke-miterlimit="10" d="M18.532-44.129
			c0-1.642-1.339-3.452-3.018-3.928c-1.678-0.479-3.057,0.557-3.056,2.198c0,1.645,1.378,3.274,3.056,3.753
			C17.193-41.63,18.532-42.485,18.532-44.129z"/>
		<path display="inline" fill="#CBB278" stroke="#8B7444" stroke-miterlimit="10" d="M25.774-41.028
			c-0.001-1.642-1.276-3.645-2.891-4.36c-1.613-0.718-2.948,0.124-2.948,1.766c0,1.645,1.335,3.467,2.948,4.185
			C24.497-38.722,25.774-39.383,25.774-41.028z"/>
		<path display="inline" fill="#CBB278" stroke="#8B7444" stroke-miterlimit="10" d="M32.62-36.858
			c-0.001-1.642-1.194-3.839-2.717-4.792c-1.522-0.956-2.793-0.308-2.793,1.334c-0.001,1.645,1.271,3.661,2.793,4.617
			C31.427-34.745,32.62-35.213,32.62-36.858z"/>
	</g>
</symbol>
<g>
	
		<use xlink:href="#New_Symbol_4" width="65.995" height="112.623" id="XMLID_1_" x="-32.875" y="-56.311" transform="matrix(3.1757 0 0 -3.1757 249.6099 250.0024)" overflow="visible"/>
	<g>
		
			<path fill="#CA2E27" stroke="#711011" stroke-width="2.1595" stroke-linecap="round" stroke-linejoin="round" stroke-miterlimit="10" d="
			M193.237,327.899c0.414-0.357,0.887-0.487,1.414-0.391c0.531,0.098,1.015,0.341,1.456,0.732c0.443,0.392,0.786,0.898,1.034,1.521
			c0.245,0.623,0.304,1.287,0.174,1.995c-0.156,0.7-0.457,1.299-0.896,1.798c-0.44,0.499-0.881,0.941-1.32,1.327
			c-1.01,0.947-2.129,1.513-3.352,1.693c-1.221,0.181-2.453,0.022-3.697-0.475c-1.24-0.497-2.453-1.328-3.634-2.487
			c-1.18-1.159-2.242-2.627-3.175-4.395c-0.557-1.046-1.024-2.105-1.402-3.172c-0.376-1.068-0.668-2.146-0.867-3.231
			c-0.303-1.599-0.44-3.188-0.415-4.766c0.023-1.58,0.225-3.034,0.602-4.363c0.379-1.331,0.915-2.507,1.608-3.535
			c0.694-1.028,1.548-1.799,2.561-2.319c0.735-0.385,1.479-0.678,2.234-0.882c0.751-0.204,1.549-0.363,2.394-0.483
			c0.487-0.065,0.983-0.122,1.498-0.168c0.511-0.047,1.036-0.035,1.578,0.031c0.54,0.067,1.08,0.21,1.622,0.427
			c0.541,0.217,1.071,0.536,1.589,0.958c0.363,0.309,0.723,0.683,1.086,1.13c0.363,0.446,0.699,0.927,1.012,1.447
			c0.312,0.521,0.583,1.051,0.817,1.592c0.235,0.54,0.401,1.045,0.506,1.513c0.08,0.429,0.099,0.849,0.058,1.257
			c-0.037,0.409-0.141,0.759-0.309,1.05c-0.172,0.289-0.397,0.506-0.683,0.651c-0.285,0.142-0.609,0.188-0.972,0.132
			c-0.596-0.1-1.055-0.329-1.379-0.686c-0.322-0.356-0.578-0.755-0.774-1.194c-0.195-0.439-0.381-0.869-0.56-1.288
			c-0.183-0.42-0.441-0.766-0.776-1.039c-0.206-0.072-0.363-0.11-0.462-0.114c-0.879-0.026-1.756,0.042-2.642,0.198
			c-0.883,0.159-1.703,0.434-2.456,0.83c-0.753,0.396-1.406,0.933-1.969,1.614c-0.56,0.68-0.963,1.529-1.219,2.546
			c-0.307,1.217-0.42,2.525-0.341,3.929c0.075,1.403,0.38,2.82,0.913,4.251c0.306,0.841,0.711,1.627,1.221,2.359
			c0.507,0.731,1.071,1.347,1.684,1.846c0.612,0.499,1.241,0.83,1.88,0.988c0.641,0.159,1.255,0.11,1.846-0.146
			c0.517-0.253,0.979-0.626,1.39-1.125C192.529,328.96,192.9,328.44,193.237,327.899z"/>
		
			<path fill="#CA2E27" stroke="#711011" stroke-width="2.1595" stroke-linecap="round" stroke-linejoin="round" stroke-miterlimit="10" d="
			M218.495,326.718c0.635,0.334,1.117,0.814,1.436,1.445c0.317,0.631,0.47,1.258,0.458,1.878c-0.016,0.621-0.178,1.178-0.499,1.667
			c-0.321,0.491-0.783,0.76-1.395,0.807c0,2.712,0,5.423,0,8.135c0,0.78-0.166,1.443-0.499,1.99
			c-0.335,0.547-0.738,0.899-1.215,1.058c-0.478,0.158-0.983,0.115-1.514-0.131c-0.528-0.245-1.007-0.757-1.431-1.531
			c-0.183-0.35-0.308-0.734-0.375-1.155c-0.07-0.419-0.1-0.799-0.1-1.142c0-2.697,0-5.393,0-8.09
			c-3.083-0.652-6.153-1.388-9.206-2.208c0,2.649,0,5.299,0,7.949c0.001,0.344-0.025,0.688-0.077,1.032
			c-0.054,0.344-0.143,0.638-0.275,0.884c-0.343,0.654-0.775,1.02-1.296,1.093c-0.524,0.071-1.033-0.082-1.528-0.457
			c-0.495-0.378-0.92-0.909-1.273-1.589c-0.35-0.681-0.525-1.445-0.525-2.284c0-8.058,0-16.115,0-24.173
			c0-0.811,0.2-1.451,0.605-1.924c0.403-0.473,0.867-0.751,1.387-0.834c0.524-0.083,1.053,0.051,1.587,0.4
			c0.537,0.352,0.938,0.953,1.198,1.801c0.08,0.271,0.132,0.512,0.157,0.722c0.029,0.209,0.04,0.439,0.04,0.688
			c0,3.522,0,7.044,0,10.566c3.052,0.82,6.122,1.556,9.206,2.208c0-3.335,0-6.67,0-10.005c-0.001-0.623,0.118-1.19,0.356-1.702
			c0.29-0.625,0.709-1.022,1.253-1.192c0.544-0.171,1.072-0.144,1.592,0.079c0.517,0.225,0.967,0.613,1.353,1.166
			c0.384,0.555,0.58,1.251,0.58,2.094C218.495,319.549,218.495,323.134,218.495,326.718z"/>
		
			<path fill="#CA2E27" stroke="#711011" stroke-width="2.1595" stroke-linecap="round" stroke-linejoin="round" stroke-miterlimit="10" d="
			M232.43,339.693c0.699,0.1,1.274,0.394,1.73,0.886c0.455,0.493,0.753,1.041,0.886,1.642c0.136,0.606,0.095,1.185-0.12,1.744
			c-0.214,0.559-0.659,0.965-1.329,1.217c-0.48,0.173-1.053,0.258-1.707,0.255c-0.657-0.005-1.314-0.052-1.971-0.142
			c-0.651-0.09-1.263-0.193-1.824-0.309c-0.562-0.116-0.99-0.195-1.283-0.233c-0.789-0.104-1.578-0.212-2.366-0.327
			c-0.56-0.081-1.041-0.334-1.441-0.753c-0.399-0.419-0.685-0.895-0.858-1.42c-0.172-0.527-0.212-1.064-0.119-1.61
			c0.09-0.546,0.34-1.021,0.739-1.427c0.374-0.378,0.865-0.553,1.482-0.524c0.615,0.028,1.227,0.114,1.842,0.26
			c0-6.172,0-12.344,0-18.516c-0.615-0.083-1.19-0.171-1.723-0.265c-0.536-0.094-1.07-0.399-1.601-0.918
			c-0.4-0.405-0.666-0.844-0.799-1.318c-0.136-0.473-0.154-0.929-0.063-1.365c0.094-0.436,0.274-0.837,0.541-1.2
			c0.267-0.363,0.6-0.609,1-0.734c0.375-0.131,0.761-0.167,1.161-0.109c1.362,0.197,2.733,0.37,4.11,0.52
			c1.375,0.15,2.763,0.307,4.157,0.472c0.135,0.013,0.263,0.071,0.383,0.176c0.12,0.106,0.246,0.195,0.383,0.27
			c0.616,0.461,1.033,1.073,1.247,1.84c0.215,0.765,0.136,1.492-0.241,2.177c-0.187,0.358-0.424,0.626-0.706,0.803
			c-0.282,0.178-0.589,0.289-0.924,0.335c-0.334,0.046-0.678,0.051-1.024,0.016c-0.352-0.036-0.686-0.07-1.005-0.105
			c0,6.203,0,12.406,0,18.609c0.211,0.023,0.406,0.037,0.581,0.038c0.175,0.002,0.367-0.001,0.582-0.011
			C232.243,339.675,232.336,339.684,232.43,339.693z"/>
		
			<path fill="#CA2E27" stroke="#711011" stroke-width="2.1595" stroke-linecap="round" stroke-linejoin="round" stroke-miterlimit="10" d="
			M253.028,337.184c0.431-0.506,0.924-0.805,1.472-0.9c0.551-0.093,1.057-0.024,1.513,0.209c0.461,0.233,0.815,0.616,1.072,1.15
			c0.254,0.535,0.313,1.179,0.181,1.932c-0.163,0.756-0.472,1.463-0.929,2.119c-0.457,0.656-0.913,1.256-1.37,1.801
			c-1.05,1.31-2.214,2.279-3.493,2.9c-1.277,0.621-2.566,0.91-3.874,0.864c-1.304-0.046-2.583-0.435-3.832-1.162
			c-1.25-0.727-2.375-1.806-3.367-3.231c-0.593-0.841-1.09-1.727-1.493-2.656c-0.403-0.928-0.711-1.899-0.925-2.911
			c-0.323-1.487-0.473-3.025-0.443-4.612c0.025-1.589,0.241-3.117,0.643-4.585c0.404-1.47,0.975-2.845,1.714-4.128
			c0.738-1.283,1.644-2.367,2.72-3.26c0.779-0.654,1.567-1.22,2.363-1.699c0.792-0.478,1.634-0.928,2.522-1.355
			c0.512-0.242,1.034-0.48,1.574-0.712c0.536-0.232,1.088-0.412,1.653-0.541c0.566-0.128,1.13-0.18,1.694-0.159
			c0.566,0.022,1.117,0.15,1.656,0.386c0.378,0.178,0.752,0.423,1.129,0.74c0.378,0.315,0.725,0.677,1.05,1.084
			c0.324,0.41,0.606,0.841,0.847,1.299c0.241,0.456,0.415,0.901,0.523,1.332c0.082,0.401,0.102,0.814,0.06,1.236
			c-0.038,0.422-0.146,0.81-0.32,1.16c-0.178,0.351-0.412,0.649-0.707,0.895c-0.295,0.244-0.631,0.406-1.008,0.481
			c-0.62,0.114-1.097,0.05-1.434-0.191c-0.337-0.239-0.601-0.547-0.806-0.916c-0.203-0.37-0.397-0.731-0.584-1.086
			c-0.189-0.355-0.459-0.608-0.809-0.759c-0.215,0.003-0.377,0.02-0.482,0.052c-0.916,0.29-1.836,0.676-2.767,1.154
			c-0.925,0.479-1.788,1.053-2.583,1.722c-0.794,0.67-1.484,1.446-2.078,2.332c-0.593,0.885-1.021,1.882-1.291,2.992
			c-0.324,1.329-0.444,2.679-0.361,4.054c0.082,1.376,0.402,2.681,0.967,3.917c0.322,0.729,0.752,1.367,1.291,1.912
			c0.536,0.546,1.128,0.956,1.776,1.232c0.643,0.276,1.304,0.38,1.977,0.305c0.672-0.073,1.317-0.346,1.936-0.815
			c0.539-0.44,1.024-0.981,1.453-1.627C252.29,338.501,252.678,337.846,253.028,337.184z"/>
		
			<path fill="#CA2E27" stroke="#711011" stroke-width="2.1595" stroke-linecap="round" stroke-linejoin="round" stroke-miterlimit="10" d="
			M264.07,343.166c-0.083,0.694-0.31,1.313-0.687,1.856c-0.373,0.544-0.804,0.928-1.289,1.15c-0.481,0.221-0.967,0.253-1.448,0.097
			c-0.485-0.157-0.862-0.586-1.131-1.289c-0.134-0.335-0.227-0.945-0.282-1.831c-0.054-0.886-0.093-1.809-0.121-2.775
			c-0.025-0.965-0.035-1.861-0.019-2.688c0.012-0.826,0.018-1.333,0.019-1.519c0-3.257,0-6.515,0-9.772
			c0.001-0.094-0.006-0.561-0.019-1.402c-0.016-0.841-0.016-1.768,0-2.782c0.012-1.013,0.055-1.997,0.12-2.953
			c0.066-0.954,0.194-1.607,0.384-1.961c0.24-0.482,0.535-0.832,0.887-1.058c0.349-0.225,0.704-0.333,1.068-0.327
			c0.361,0.007,0.726,0.106,1.086,0.296c0.365,0.192,0.665,0.495,0.905,0.912c0.108,0.148,0.21,0.327,0.304,0.537
			c0.093,0.211,0.139,0.409,0.139,0.596c0.029,1.494,0.029,2.967,0,4.418c-0.025,1.452-0.038,2.926-0.038,4.422
			c0.966-0.734,1.857-1.554,2.673-2.461c0.817-0.907,1.616-1.932,2.392-3.08c0.186-0.3,0.454-0.752,0.805-1.354
			c0.347-0.602,0.723-1.222,1.124-1.863c0.401-0.642,0.801-1.246,1.202-1.812c0.402-0.566,0.75-0.947,1.043-1.143
			c0.589-0.423,1.149-0.627,1.682-0.61c0.535,0.015,0.973,0.191,1.322,0.526c0.345,0.337,0.566,0.801,0.66,1.394
			c0.095,0.593-0.007,1.24-0.299,1.94c-0.108,0.297-0.219,0.549-0.343,0.754c-0.12,0.206-0.239,0.396-0.359,0.57
			c-0.118,0.175-0.249,0.365-0.381,0.572c-0.133,0.206-0.267,0.444-0.4,0.714c-0.345,0.705-0.763,1.427-1.24,2.164
			c-0.483,0.739-0.989,1.462-1.525,2.171c-0.532,0.708-1.082,1.393-1.643,2.053c-0.562,0.66-1.1,1.283-1.607,1.869
			c0.67,0.767,1.338,1.531,2.008,2.29c0.668,0.758,1.349,1.512,2.046,2.26c0.161,0.166,0.507,0.516,1.039,1.049
			c0.536,0.532,1.103,1.119,1.703,1.76c0.6,0.643,1.147,1.28,1.641,1.917c0.491,0.639,0.778,1.152,0.857,1.544
			c0.132,0.602,0.108,1.19-0.078,1.767c-0.188,0.577-0.473,1.068-0.861,1.472c-0.385,0.405-0.826,0.662-1.321,0.768
			c-0.494,0.106-0.978-0.009-1.46-0.344c-0.213-0.157-0.435-0.35-0.661-0.583c-0.227-0.233-0.442-0.476-0.639-0.73
			c-0.202-0.253-0.397-0.498-0.583-0.739c-0.186-0.24-0.348-0.43-0.479-0.57c-1.258-1.425-2.502-2.835-3.734-4.229
			c-1.235-1.393-2.482-2.814-3.74-4.263c-0.137,0.075-0.283,0.158-0.443,0.249c-0.161,0.091-0.31,0.173-0.443,0.246
			c0,1.591,0.012,3.171,0.041,4.743c0.024,1.572,0.068,3.15,0.12,4.735C264.07,342.947,264.07,343.056,264.07,343.166z"/>
		
			<path fill="#CA2E27" stroke="#711011" stroke-width="2.1595" stroke-linecap="round" stroke-linejoin="round" stroke-miterlimit="10" d="
			M295.314,333.584c0.471-0.096,0.883-0.061,1.238,0.106c0.352,0.167,0.639,0.405,0.86,0.717c0.222,0.311,0.354,0.701,0.394,1.173
			c0.036,0.473-0.046,0.987-0.256,1.546c-0.081,0.242-0.245,0.544-0.49,0.909c-0.251,0.367-0.479,0.61-0.688,0.73
			c-1.672,1.056-3.397,1.873-5.174,2.448c-1.778,0.574-3.54,0.936-5.285,1.087c-0.505,0.045-1.056,0.097-1.649,0.155
			c-0.598,0.057-1.123-0.042-1.573-0.298c-0.823-0.466-1.234-1.28-1.234-2.433c0-6.639,0-13.279,0-19.918
			c-0.294-0.196-0.533-0.463-0.717-0.804c-0.186-0.342-0.298-0.719-0.339-1.132c-0.041-0.414,0.007-0.828,0.138-1.24
			c0.136-0.413,0.361-0.791,0.68-1.128c0.529-0.597,1.14-1.046,1.831-1.352c0.689-0.305,1.362-0.589,2.025-0.85
			c1.377-0.534,2.752-0.96,4.123-1.278c1.372-0.318,2.767-0.675,4.186-1.074c0.418-0.108,0.904-0.274,1.454-0.498
			c0.55-0.225,1.036-0.303,1.454-0.231c0.497,0.08,0.889,0.312,1.174,0.699c0.29,0.384,0.46,0.835,0.511,1.35
			c0.053,0.515-0.034,1.055-0.256,1.616c-0.221,0.563-0.608,1.062-1.156,1.495c-0.654,0.494-1.356,0.824-2.103,0.991
			c-0.745,0.167-1.461,0.335-2.145,0.507c-1,0.251-1.997,0.508-3.003,0.773c-1.001,0.264-2.004,0.583-3.008,0.953
			c0,2.166,0,4.332,0,6.499c0.951-0.14,1.902-0.352,2.853-0.636c0.951-0.282,1.896-0.587,2.842-0.918
			c0.421-0.135,0.845-0.29,1.261-0.459c0.421-0.17,0.854-0.284,1.299-0.34c0.579-0.06,1.022,0.099,1.338,0.481
			c0.312,0.381,0.502,0.851,0.568,1.41c0.064,0.559-0.018,1.151-0.256,1.777c-0.234,0.626-0.615,1.137-1.136,1.525
			c-0.447,0.339-1.051,0.664-1.812,0.968c-0.763,0.306-1.563,0.584-2.403,0.834c-0.844,0.251-1.675,0.469-2.493,0.655
			c-0.819,0.186-1.504,0.32-2.06,0.408c0,1.917,0,3.834,0,5.751c1.454-0.092,2.919-0.395,4.395-0.908
			c1.472-0.51,2.919-1.176,4.333-1.993C295.131,333.633,295.223,333.608,295.314,333.584z"/>
		
			<path fill="#CA2E27" stroke="#711011" stroke-width="2.1595" stroke-linecap="round" stroke-linejoin="round" stroke-miterlimit="10" d="
			M316.059,304.629c0.153-0.686,0.397-1.3,0.741-1.849c0.34-0.546,0.713-0.968,1.119-1.263c0.405-0.296,0.815-0.442,1.232-0.434
			c0.416,0.007,0.773,0.225,1.075,0.653c0.101,0.112,0.196,0.256,0.282,0.437c0.089,0.177,0.133,0.361,0.133,0.549
			c0.049,4.434,0.032,8.893-0.056,13.373c-0.088,4.482-0.235,8.995-0.433,13.54c0,0.716-0.184,1.359-0.549,1.923
			c-0.365,0.564-0.783,1.001-1.249,1.311c-0.469,0.308-0.941,0.446-1.423,0.412c-0.481-0.034-0.833-0.286-1.064-0.754
			c-0.024-0.021-0.036-0.047-0.036-0.078c0,0.031,0,0.062,0,0.093c-1.653-2.659-3.395-5.18-5.241-7.565
			c-1.844-2.385-3.775-4.75-5.791-7.105c0,3.522,0,7.045,0,10.568c0,1.433,0,2.633,0,3.599c0,0.967-0.013,1.758-0.04,2.375
			c-0.024,0.616-0.057,1.103-0.098,1.459c-0.036,0.355-0.093,0.67-0.174,0.946c-0.231,0.824-0.587,1.439-1.069,1.845
			c-0.479,0.403-0.965,0.62-1.459,0.65c-0.493,0.031-0.922-0.151-1.284-0.538c-0.365-0.388-0.548-0.957-0.546-1.705
			c0-0.436,0-1.123,0-2.058c0-0.935,0-1.994,0-3.179c0-1.185,0-2.455,0-3.811c0-1.355,0-2.687,0-3.998
			c0.001-1.309-0.009-2.529-0.022-3.664c-0.013-1.133-0.019-2.089-0.018-2.869c0-1.059-0.011-2.109-0.04-3.143
			c-0.024-1.038-0.024-2.089,0-3.157c0.001-0.529,0.11-1.015,0.332-1.455c0.222-0.441,0.5-0.814,0.84-1.122
			c0.337-0.305,0.7-0.537,1.09-0.691c0.389-0.154,0.765-0.212,1.128-0.174c0.311,0.025,0.626,0.18,0.95,0.463
			c0.324,0.284,0.64,0.599,0.951,0.946c0.312,0.349,0.599,0.702,0.871,1.062c0.27,0.359,0.496,0.647,0.678,0.865
			c0.67,0.767,1.443,1.639,2.315,2.617c0.872,0.979,1.678,1.903,2.42,2.774c0.741,0.905,1.464,1.809,2.164,2.718
			c0.7,0.909,1.379,1.821,2.042,2.735c0.076-2.867,0.125-5.709,0.15-8.525c0.027-2.816,0.037-5.642,0.039-8.479
			C316.034,304.827,316.046,304.728,316.059,304.629z"/>
		
			<path fill="#CA2E27" stroke="#711011" stroke-width="2.1595" stroke-linecap="round" stroke-linejoin="round" stroke-miterlimit="10" d="
			M205.905,371.533c-0.183-0.638-0.242-1.245-0.177-1.823c0.065-0.574,0.239-1.036,0.514-1.386c0.276-0.351,0.634-0.557,1.082-0.616
			c0.448-0.061,0.949,0.116,1.502,0.529c0.501,0.369,0.929,0.836,1.284,1.402c0.357,0.567,0.784,1.045,1.288,1.438
			c0.686,0.559,1.387,1.008,2.101,1.345c0.503,0.262,1.006,0.467,1.509,0.615c0.504,0.149,1.019,0.274,1.551,0.377
			c0.397-0.048,0.742-0.108,1.036-0.179c0.29-0.07,0.61-0.277,0.956-0.619c0.397-0.333,0.659-0.771,0.778-1.312
			c0.119-0.54,0.12-1.092,0-1.659c-0.118-0.567-0.347-1.106-0.677-1.617c-0.333-0.511-0.736-0.888-1.216-1.134
			c-0.93-0.547-1.859-1.017-2.784-1.409c-0.928-0.392-1.829-0.826-2.699-1.296c-0.872-0.473-1.696-1.059-2.474-1.756
			c-0.779-0.698-1.498-1.612-2.155-2.744c-0.366-0.62-0.604-1.149-0.71-1.58c-0.106-0.431-0.223-0.976-0.353-1.633
			c-0.235-1.557-0.139-2.794,0.294-3.713c0.435-0.918,0.98-1.716,1.637-2.398c0.846-0.885,1.798-1.493,2.866-1.829
			c1.071-0.335,2.194-0.466,3.374-0.396c1.178,0.071,2.369,0.334,3.579,0.789c1.209,0.454,2.362,1.051,3.454,1.79
			c0.637,0.415,1.043,0.961,1.22,1.642c0.173,0.681,0.178,1.323,0.019,1.921c-0.16,0.598-0.467,1.065-0.921,1.397
			c-0.453,0.332-0.982,0.386-1.595,0.156c-0.64-0.264-1.239-0.535-1.797-0.807c-0.56-0.272-1.114-0.522-1.673-0.755
			c-0.425-0.175-0.881-0.279-1.373-0.315c-0.491-0.036-0.953-0.029-1.39,0.021c-0.437,0.049-0.841,0.12-1.211,0.211
			c-0.372,0.092-0.65,0.21-0.832,0.357c-0.211,0.172-0.418,0.407-0.614,0.706c-0.198,0.298-0.312,0.662-0.336,1.094
			c-0.053,0.518,0.118,0.993,0.514,1.424c0.397,0.431,0.82,0.774,1.269,1.025c0.873,0.406,1.772,0.804,2.701,1.19
			c0.928,0.387,1.841,0.843,2.748,1.366c0.903,0.524,1.746,1.13,2.531,1.822c0.785,0.692,1.462,1.547,2.02,2.569
			c0.613,0.906,1.053,1.891,1.318,2.958c0.267,1.068,0.368,2.111,0.302,3.13c-0.065,1.02-0.274,1.979-0.62,2.878
			c-0.35,0.898-0.827,1.66-1.44,2.28c-0.428,0.432-0.872,0.788-1.338,1.069c-0.467,0.281-0.968,0.547-1.497,0.798
			c-1.065,0.468-2.208,0.586-3.427,0.348c-1.221-0.238-2.44-0.701-3.654-1.385c-1.219-0.687-2.365-1.542-3.445-2.563
			c-1.083-1.021-2-2.086-2.761-3.184C206.09,371.893,205.998,371.713,205.905,371.533z"/>
		
			<path fill="#CA2E27" stroke="#711011" stroke-width="2.1595" stroke-linecap="round" stroke-linejoin="round" stroke-miterlimit="10" d="
			M249.985,368.422c-0.459,1.747-1.046,3.454-1.758,5.115c-0.712,1.661-1.58,3.139-2.602,4.424c-1.025,1.287-2.216,2.31-3.571,3.063
			c-1.358,0.75-2.909,1.074-4.656,0.953c-1.129-0.142-2.018-0.331-2.678-0.558c-0.657-0.228-1.295-0.544-1.91-0.946
			c-1.102-0.479-2.046-1.181-2.834-2.097c-0.79-0.914-1.453-1.952-1.985-3.11c-0.536-1.159-0.944-2.371-1.223-3.641
			c-0.28-1.266-0.464-2.483-0.542-3.648c-0.136-2.045,0.014-4.081,0.441-6.113c0.425-2.033,1.11-3.868,2.047-5.516
			c0.934-1.649,2.11-3.027,3.534-4.147c1.419-1.121,3.043-1.811,4.87-2.085c0.94-0.12,1.894-0.122,2.861-0.007
			c0.966,0.117,1.909,0.378,2.822,0.787c0.754,0.341,1.453,0.723,2.1,1.145c0.644,0.422,1.263,0.95,1.856,1.583
			c0.779,0.824,1.44,1.764,1.977,2.826c0.539,1.064,0.928,2.169,1.171,3.322c0.295,1.465,0.433,2.914,0.403,4.347
			C250.281,365.554,250.171,366.989,249.985,368.422z M239.534,376.034c0.808-0.358,1.51-0.861,2.117-1.504
			c0.607-0.642,1.136-1.363,1.592-2.157c0.456-0.793,0.841-1.646,1.151-2.556c0.307-0.911,0.585-1.83,0.828-2.759
			c0.162-1.181,0.247-2.394,0.26-3.641c0.015-1.246-0.205-2.436-0.666-3.571c-0.374-0.945-0.946-1.763-1.713-2.463
			c-0.768-0.698-1.608-1.201-2.521-1.514c-0.914-0.312-1.834-0.421-2.76-0.329c-0.928,0.094-1.755,0.451-2.479,1.077
			c-1.019,0.915-1.845,1.952-2.474,3.123c-0.63,1.172-1.107,2.486-1.429,3.949c-0.266,1.157-0.414,2.388-0.439,3.694
			c-0.028,1.305,0.146,2.572,0.521,3.795c0.294,0.903,0.731,1.744,1.305,2.515c0.579,0.774,1.226,1.393,1.952,1.859
			c0.725,0.468,1.497,0.754,2.317,0.861C237.914,376.52,238.729,376.393,239.534,376.034z"/>
		
			<path fill="#CA2E27" stroke="#711011" stroke-width="2.1595" stroke-linecap="round" stroke-linejoin="round" stroke-miterlimit="10" d="
			M268.681,352.513c0.161-0.639,0.419-1.183,0.783-1.63c0.359-0.446,0.755-0.757,1.184-0.933c0.43-0.176,0.864-0.201,1.303-0.069
			c0.442,0.131,0.823,0.454,1.144,0.972c0.107,0.142,0.206,0.315,0.299,0.521c0.095,0.204,0.141,0.401,0.142,0.588
			c-0.001,0.343-0.012,0.921-0.041,1.735c-0.024,0.814-0.047,1.644-0.06,2.486c-0.011,0.844-0.033,1.596-0.06,2.253
			c-0.028,0.658-0.04,1.003-0.041,1.034c-0.052,1.691-0.146,3.378-0.281,5.064c-0.133,1.687-0.318,3.386-0.561,5.102
			c-0.214,1.337-0.467,2.578-0.76,3.722c-0.296,1.145-0.696,2.177-1.205,3.094c-0.507,0.919-1.152,1.735-1.929,2.443
			c-0.777,0.708-1.741,1.306-2.892,1.787c-0.459,0.197-0.933,0.348-1.43,0.453c-0.496,0.104-0.972,0.173-1.431,0.207
			c-1.341,0.102-2.711-0.106-4.109-0.626c-1.586-0.634-2.784-1.776-3.59-3.404c-0.806-1.626-1.374-3.46-1.694-5.495
			c-0.323-2.034-0.48-4.096-0.466-6.185c0.017-2.089,0.024-3.928,0.022-5.518c0.002-0.654,0.005-1.317,0.019-1.988
			c0.012-0.67,0.035-1.333,0.06-1.988c0-0.468,0.013-0.959,0.041-1.474c0.025-0.515,0.107-1.007,0.241-1.478
			c0.136-0.469,0.342-0.879,0.625-1.23c0.282-0.35,0.679-0.593,1.193-0.735c0.296-0.071,0.609-0.051,0.948,0.06
			c0.335,0.113,0.639,0.28,0.907,0.502c0.266,0.223,0.497,0.493,0.685,0.812c0.187,0.319,0.282,0.664,0.282,1.038
			c0,0.499,0,0.896,0,1.192c0,0.298,0,0.562,0,0.795c0,0.234-0.009,0.476-0.019,0.725c-0.017,0.25-0.022,0.578-0.022,0.983
			c-0.054,2.06-0.079,4.111-0.079,6.154c0,2.04,0.107,4.07,0.323,6.085c0.079,0.838,0.199,1.705,0.361,2.601
			c0.162,0.896,0.484,1.659,0.967,2.286c0.431,0.568,0.988,0.947,1.673,1.136c0.686,0.187,1.385,0.208,2.096,0.058
			c0.709-0.149,1.38-0.44,2.013-0.87c0.631-0.43,1.119-0.976,1.467-1.635c0.346-0.658,0.618-1.417,0.803-2.278
			c0.189-0.862,0.329-1.747,0.424-2.663c0.095-0.912,0.161-1.816,0.202-2.709c0.037-0.892,0.073-1.715,0.098-2.465
			c0.054-0.879,0.094-1.631,0.12-2.258c0.029-0.626,0.053-1.376,0.082-2.253c0.024-0.657,0.042-1.313,0.041-1.967
			c0-0.656,0.013-1.311,0.038-1.969C268.626,353.891,268.653,353.202,268.681,352.513z"/>
		
			<path fill="#CA2E27" stroke="#711011" stroke-width="2.1595" stroke-linecap="round" stroke-linejoin="round" stroke-miterlimit="10" d="
			M276.453,351.954c0.079-0.355,0.211-0.71,0.399-1.067c0.185-0.356,0.406-0.68,0.66-0.97c0.252-0.29,0.531-0.515,0.839-0.675
			c0.306-0.159,0.619-0.204,0.939-0.135c0.981-0.635,1.988-1.207,3.009-1.713c1.023-0.505,2.044-0.887,3.064-1.147
			c1.019-0.26,2.021-0.369,3.012-0.328c0.989,0.041,1.947,0.305,2.866,0.796c0.739,0.38,1.391,0.919,1.953,1.615
			c0.563,0.697,1.031,1.463,1.399,2.3c0.627,1.517,0.915,3.113,0.865,4.793c-0.055,1.684-0.383,3.323-0.983,4.917
			c-0.605,1.595-1.451,3.078-2.542,4.44c-1.091,1.363-2.375,2.467-3.854,3.298c-1.11,0.623-2.242,1.047-3.393,1.267
			c-1.152,0.22-2.286,0.354-3.401,0.402c0,1.512,0,3.024,0,4.536c-0.001,0.343,0.011,0.698,0.041,1.067
			c0.025,0.369,0.031,0.743,0.019,1.119c-0.014,0.376-0.053,0.751-0.119,1.12c-0.07,0.37-0.194,0.729-0.379,1.076
			c-0.32,0.681-0.73,1.136-1.235,1.364c-0.508,0.229-0.992,0.28-1.46,0.154c-0.466-0.126-0.864-0.405-1.197-0.835
			c-0.332-0.431-0.499-0.99-0.5-1.676c0-2.805,0-5.61,0-8.415c-0.505-0.233-0.883-0.568-1.12-0.999
			c-0.242-0.432-0.349-0.891-0.321-1.379c0.025-0.486,0.16-0.966,0.4-1.438c0.238-0.473,0.573-0.881,1-1.228c0-3.99,0-7.98,0-11.969
			C276.426,352.146,276.44,352.05,276.453,351.954z M288.038,351.815c-1.109-0.281-2.237-0.193-3.39,0.259
			c-1.153,0.454-2.276,1.077-3.363,1.868c0,3.397,0,6.795,0,10.192c1.247,0.022,2.52-0.164,3.819-0.558
			c1.297-0.392,2.487-1.122,3.569-2.181c0.765-0.766,1.292-1.64,1.579-2.613c0.291-0.974,0.398-1.919,0.317-2.834
			c-0.077-0.916-0.342-1.749-0.789-2.501C289.334,352.696,288.75,352.152,288.038,351.815z"/>
	</g>
</g>
</svg>
