<?xml version="1.0" encoding="utf-8"?>
<!-- Generator: Adobe Illustrator 18.1.1, SVG Export Plug-In . SVG Version: 6.00 Build 0)  -->
<svg version="1.1" id="Layer_1" xmlns="http://www.w3.org/2000/svg" xmlns:xlink="http://www.w3.org/1999/xlink" x="0px" y="0px" width="500px" height="500px" viewBox="0 0 500 500" enable-background="new 0 0 500 500" xml:space="preserve"><clipPath id="XMLID_71_">
				<use xlink:href="#XMLID_253_" overflow="visible"/>
			</clipPath><clipPath id="XMLID_70_">
					<use xlink:href="#XMLID_338_" overflow="visible"/>
				</clipPath><clipPath id="XMLID_69_">
				<use xlink:href="#XMLID_342_" overflow="visible"/>
			</clipPath>
<symbol id="New_Symbol" viewBox="-42.805 -42.805 85.61 85.61">
	<path id="XMLID_534_" fill="none" stroke="#231F20" stroke-width="7.6098" stroke-miterlimit="10" d="M39,0
		c0-21.539-17.461-39-39-39S-39-21.539-39,0s17.461,39,39,39S39,21.539,39,0z"/>
	<path id="XMLID_533_" fill="none" stroke="#55676D" stroke-width="7" stroke-miterlimit="10" d="M36.413,0
		C36.413-20.111,20.11-36.414,0-36.414S-36.414-20.111-36.414,0S-20.111,36.413,0,36.413S36.413,20.111,36.413,0z"/>
	
		<line id="XMLID_532_" fill="none" stroke="#55676D" stroke-width="7" stroke-miterlimit="10" x1="0" y1="-36.414" x2="0" y2="36.413"/>
	
		<line id="XMLID_531_" fill="none" stroke="#55676D" stroke-width="7" stroke-miterlimit="10" x1="29.626" y1="-21.171" x2="-29.627" y2="21.171"/>
	
		<line id="XMLID_530_" fill="none" stroke="#55676D" stroke-width="7" stroke-miterlimit="10" x1="-29.627" y1="-21.171" x2="29.626" y2="21.171"/>
	<path id="XMLID_520_" fill="#416972" stroke="#264247" stroke-width="2" stroke-miterlimit="10" d="M10,0c0-5.523-4.477-10-10-10
		S-10-5.523-10,0s4.477,10,10,10S10,5.523,10,0z"/>
</symbol>
<symbol id="New_Symbol_1" viewBox="-21.916 -27.026 43.833 53.767">
	<path id="XMLID_559_" fill="#D6B250" stroke="#A28231" stroke-width="1.5" stroke-miterlimit="10" d="M19.001,18.39
		c0,10.133-38,10.133-38,0l0-41.6h38L19.001,18.39z"/>
	<path id="XMLID_551_" fill="#B8CCCA" stroke="#846625" stroke-width="1.5" stroke-miterlimit="10" d="M14.417,15.123
		c0,7.689-28.833,7.689-28.833,0l0-36.066h28.833L14.417,15.123z"/>
	<path id="XMLID_112_" fill="#E0BB61" stroke="#A28231" stroke-width="1.5" stroke-miterlimit="10" d="M20.39-23.61h-40.78
		c-0.429,0-0.777,0.348-0.777,0.777v3.78c0,0.429,0.348,0.777,0.777,0.777h40.78c0.429,0,0.777-0.348,0.777-0.777v-3.78
		C21.167-23.262,20.819-23.61,20.39-23.61z"/>
	<path id="XMLID_60_" fill="#B28F42" stroke="#A28231" stroke-width="1.5" stroke-miterlimit="10" d="M14.167-26.276h-28.333
		c-1.473,0-2.667,1.194-2.667,2.667v0h33.667v0C16.834-25.082,15.64-26.276,14.167-26.276z"/>
</symbol>
<symbol id="New_Symbol_4" viewBox="-18.982 -4.37 37.964 8.74">
	<polygon id="XMLID_38_" fill="#2F5C75" stroke="#48646E" stroke-width="2" stroke-miterlimit="10" points="17.982,-3.37 
		-17.982,-3.37 -17.982,3.37 17.982,3.37 	"/>
</symbol>
<symbol id="New_Symbol_5" viewBox="-104.047 -7.841 208.095 15.682">
	<g id="XMLID_535_">
		<polygon id="XMLID_538_" fill="#C49A6C" stroke="#7C5B3A" stroke-width="1.5" stroke-miterlimit="10" points="-89.798,-7.091 
			-103.297,-7.091 -103.297,7.091 -89.798,7.091 		"/>
		<polygon id="XMLID_537_" fill="#C49A6C" stroke="#7C5B3A" stroke-width="1.5" stroke-miterlimit="10" points="-51.672,-7.091 
			-65.172,-7.091 -65.172,7.091 -51.672,7.091 		"/>
		<polygon id="XMLID_536_" fill="#C49A6C" stroke="#7C5B3A" stroke-width="1.5" stroke-miterlimit="10" points="-13.547,-7.091 
			-27.046,-7.091 -27.046,7.091 -13.547,7.091 		"/>
	</g>
	<g id="XMLID_516_">
		<polygon id="XMLID_519_" fill="#C49A6C" stroke="#7C5B3A" stroke-width="1.5" stroke-miterlimit="10" points="27.047,-7.091 
			13.547,-7.091 13.547,7.091 27.047,7.091 		"/>
		<polygon id="XMLID_518_" fill="#C49A6C" stroke="#7C5B3A" stroke-width="1.5" stroke-miterlimit="10" points="65.172,-7.091 
			51.673,-7.091 51.673,7.091 65.172,7.091 		"/>
		<polygon id="XMLID_517_" fill="#C49A6C" stroke="#7C5B3A" stroke-width="1.5" stroke-miterlimit="10" points="103.298,-7.091 
			89.798,-7.091 89.798,7.091 103.298,7.091 		"/>
	</g>
</symbol>
<symbol id="New_Symbol_6" viewBox="-55.346 -38.743 110.693 77.485">
	<path id="XMLID_432_" fill="#142D3D" stroke="#264B60" stroke-width="1.2846" stroke-miterlimit="10" d="M44.773-28.231h-89.546
		c-0.619,0-1.121,0.502-1.121,1.121v15.114h91.788V-27.11C45.895-27.729,45.393-28.231,44.773-28.231z"/>
	<path id="XMLID_431_" fill="#BC2445" stroke="#961A38" stroke-width="1.2846" stroke-miterlimit="10" d="M46.186,32.875h-92.37
		c-0.33,0-0.597,0.313-0.597,0.698v2.437c0,2.787,93.564,2.787,93.564,0v-2.437C46.783,33.187,46.515,32.875,46.186,32.875z"/>
	<path id="XMLID_430_" fill="#CE2542" stroke="#961A38" stroke-width="1.2846" stroke-miterlimit="10" d="M50.305-20.141H-50.303
		c-0.925,0-1.676,0.75-1.676,1.676V30.68H51.98v-49.146C51.98-19.391,51.23-20.141,50.305-20.141z"/>
	<path id="XMLID_429_" fill="#BC2445" stroke="#961A38" stroke-width="1.2846" stroke-miterlimit="10" d="M54.006,30.68H-54.005
		c-0.386,0-0.698,0.313-0.698,0.698v2.437c0,2.787,109.408,2.787,109.408,0v-2.437C54.705,30.993,54.392,30.68,54.006,30.68z"/>
	<g id="XMLID_424_">
		
			<use xlink:href="#New_Symbol_1" width="43.833" height="53.767" id="XMLID_428_" x="-21.916" y="-27.026" transform="matrix(0.4181 0 0 0.4181 -37.9813 10.0655)" overflow="visible"/>
		
			<use xlink:href="#New_Symbol_1" width="43.833" height="53.767" id="XMLID_427_" x="-21.916" y="-27.026" transform="matrix(0.4181 0 0 0.4181 -12.6603 10.0655)" overflow="visible"/>
		
			<use xlink:href="#New_Symbol_1" width="43.833" height="53.767" id="XMLID_426_" x="-21.916" y="-27.026" transform="matrix(0.4181 0 0 0.4181 12.6606 10.0655)" overflow="visible"/>
		
			<use xlink:href="#New_Symbol_1" width="43.833" height="53.767" id="XMLID_425_" x="-21.916" y="-27.026" transform="matrix(0.4181 0 0 0.4181 37.9816 10.0655)" overflow="visible"/>
	</g>
	<path id="XMLID_420_" fill="#D6B250" stroke="#A28231" stroke-miterlimit="10" d="M51.109-6.842H-51.108
		c-0.981,0-1.777,0.795-1.777,1.777v0c0,0.981,0.795,1.777,1.777,1.777H51.109c0.981,0,1.777-0.795,1.777-1.777v0
		C52.886-6.046,52.09-6.842,51.109-6.842z"/>
	<path id="XMLID_410_" fill="#D6B250" stroke="#A28231" stroke-miterlimit="10" d="M51.109,22.319H-51.108
		c-0.981,0-1.777,0.795-1.777,1.777v0c0,0.981,0.795,1.777,1.777,1.777H51.109c0.981,0,1.777-0.795,1.777-1.777v0
		C52.886,23.114,52.09,22.319,51.109,22.319z"/>
	<g id="XMLID_394_">
		<g id="XMLID_396_">
			
				<use xlink:href="#New_Symbol" width="85.61" height="85.61" id="XMLID_400_" x="-42.805" y="-42.805" transform="matrix(0.2748 0 0 0.2748 -35.9646 -26.9812)" overflow="visible"/>
			
				<use xlink:href="#New_Symbol" width="85.61" height="85.61" id="XMLID_399_" x="-42.805" y="-42.805" transform="matrix(0.2748 0 0 0.2748 -11.975 -26.9812)" overflow="visible"/>
			
				<use xlink:href="#New_Symbol" width="85.61" height="85.61" id="XMLID_398_" x="-42.805" y="-42.805" transform="matrix(0.2748 0 0 0.2748 12.0146 -26.9812)" overflow="visible"/>
		</g>
		
			<use xlink:href="#New_Symbol" width="85.61" height="85.61" id="XMLID_395_" x="-42.805" y="-42.805" transform="matrix(0.2748 0 0 0.2748 35.9648 -26.9812)" overflow="visible"/>
	</g>
</symbol>
<symbol id="New_Symbol_7" viewBox="-242.294 -50.661 484.587 101.323">
	<g id="XMLID_380_">
		<path id="XMLID_386_" fill="#393444" stroke="#736F80" stroke-width="0.9965" stroke-linejoin="round" stroke-miterlimit="10" d="
			M26.77-1.089c0,0,0.623,5.633,5.009,6.343c0,0,0.451,3.524,5.288,3.585c0,0,1.557,4.738,6.75,4.658c0,0,4.919,4.371,13.665,0
			c0,0,6.832,3.242,12.298,0c0,0,7.106,1.548,10.385-3.218c0,0,5.087,1.043,6.643-3.104c0,0,5.109-1.295,6.749-6.221
			c0,0,3.419,0.216,3.759-4.727c0,0,3.076-1.536,1.978-4.166c0,0,4.101-2.142,1.368-5.412H26.77V-1.089z"/>
		<path id="XMLID_385_" fill="#736F80" d="M87.474,2.231c0.288,0.021,0.573-0.011,0.855-0.066c0.279-0.067,0.56-0.15,0.815-0.29
			c0.134-0.059,0.256-0.139,0.377-0.22c0.127-0.075,0.238-0.17,0.349-0.266c0.117-0.091,0.221-0.194,0.316-0.306
			c0.097-0.11,0.205-0.214,0.282-0.339l0.251-0.364l0.204-0.39c0.146-0.258,0.219-0.541,0.328-0.813
			c0.076-0.28,0.147-0.562,0.211-0.846l0.128-0.858l-0.196,0.294c0.224-0.108,0.408-0.219,0.601-0.345
			c0.19-0.125,0.374-0.259,0.548-0.409c0.177-0.146,0.344-0.308,0.499-0.484c0.075-0.091,0.16-0.173,0.225-0.274
			c0.068-0.098,0.14-0.194,0.205-0.296l0.176-0.322c0.055-0.11,0.093-0.23,0.139-0.346c0.051-0.115,0.072-0.24,0.099-0.364
			c0.026-0.124,0.057-0.248,0.058-0.376c0.007-0.127,0.016-0.255,0.018-0.383L93.92-6.209c-0.022-0.256-0.119-0.484-0.185-0.726
			l-0.26,0.718c0.159-0.079,0.277-0.151,0.408-0.234c0.123-0.085,0.253-0.163,0.369-0.258c0.237-0.185,0.468-0.38,0.669-0.612
			c0.105-0.11,0.206-0.226,0.294-0.355c0.094-0.123,0.181-0.251,0.256-0.391c0.079-0.136,0.159-0.27,0.214-0.423
			c0.057-0.15,0.129-0.291,0.154-0.454c0.029-0.16,0.078-0.313,0.085-0.474c0.006-0.162,0.011-0.323,0.008-0.481l-0.087-0.466
			c-0.018-0.157-0.101-0.292-0.155-0.434c-0.061-0.14-0.114-0.281-0.206-0.4l-0.253-0.361c-0.08-0.121-0.199-0.211-0.296-0.314
			c-0.101-0.101-0.208-0.195-0.31-0.29c-0.023-0.021-0.058-0.02-0.079,0.003c-0.016,0.017-0.019,0.042-0.01,0.062l0.003,0.007
			l0.173,0.376c0.054,0.124,0.127,0.237,0.165,0.364l0.12,0.372c0.052,0.118,0.061,0.246,0.08,0.368
			c0.009,0.124,0.057,0.24,0.041,0.361L95.11-9.901c-0.029,0.114-0.05,0.226-0.07,0.337c-0.021,0.111-0.08,0.215-0.115,0.321
			c-0.03,0.108-0.108,0.203-0.156,0.305c-0.047,0.103-0.122,0.197-0.191,0.291c-0.064,0.097-0.142,0.187-0.226,0.273
			c-0.077,0.09-0.157,0.179-0.249,0.261c-0.171,0.169-0.361,0.33-0.558,0.479c-0.096,0.078-0.198,0.148-0.298,0.222l-0.294,0.193
			c-0.241,0.158-0.339,0.451-0.262,0.713L92.692-6.5c0.049,0.165,0.145,0.326,0.173,0.494l0.058,0.252l0.013,0.254
			c0.013,0.086-0.005,0.17-0.015,0.255c-0.011,0.085-0.014,0.172-0.046,0.255c-0.027,0.083-0.043,0.17-0.076,0.253L92.69-4.487
			c-0.042,0.081-0.094,0.159-0.14,0.239c-0.043,0.082-0.11,0.153-0.163,0.231c-0.114,0.151-0.243,0.297-0.384,0.432
			c-0.137,0.139-0.289,0.267-0.446,0.387c-0.153,0.119-0.328,0.239-0.481,0.327l-0.018,0.01c-0.106,0.061-0.169,0.171-0.178,0.284
			l-0.061,0.805c-0.041,0.264-0.087,0.528-0.137,0.791c-0.083,0.25-0.128,0.52-0.236,0.76l-0.15,0.369l-0.194,0.345
			c-0.059,0.121-0.146,0.219-0.224,0.326c-0.075,0.11-0.16,0.211-0.257,0.301c-0.091,0.096-0.183,0.193-0.292,0.27
			c-0.103,0.084-0.207,0.168-0.325,0.233c-0.222,0.151-0.474,0.251-0.728,0.344c-0.258,0.081-0.528,0.141-0.799,0.15
			c-0.031,0-0.056,0.025-0.056,0.056C87.422,2.204,87.446,2.228,87.474,2.231z"/>
		<path id="XMLID_384_" fill="#736F80" d="M77.597,1.117c0.518,0.009,1.038-0.082,1.528-0.27c0.245-0.093,0.481-0.212,0.709-0.348
			l0.329-0.225l0.303-0.261c0.105-0.084,0.184-0.194,0.277-0.29c0.094-0.097,0.178-0.201,0.251-0.314
			c0.075-0.111,0.158-0.219,0.226-0.334l0.184-0.358c0.132-0.236,0.196-0.496,0.297-0.745c0.075-0.255,0.13-0.515,0.195-0.775
			l-0.191,0.247c0.197-0.08,0.367-0.165,0.545-0.257c0.175-0.093,0.346-0.194,0.514-0.302c0.168-0.109,0.33-0.229,0.489-0.357
			c0.155-0.134,0.311-0.27,0.451-0.431c0.074-0.075,0.142-0.157,0.204-0.249c0.062-0.09,0.134-0.171,0.182-0.275
			c0.051-0.101,0.11-0.197,0.152-0.304l0.11-0.334c0.026-0.115,0.035-0.236,0.051-0.356c0.023-0.12-0.002-0.239-0.008-0.359
			c-0.009-0.121-0.021-0.242-0.063-0.35l-0.107-0.336l-0.254,0.673c0.135-0.057,0.242-0.113,0.359-0.173
			c0.115-0.059,0.225-0.123,0.335-0.19c0.218-0.135,0.429-0.285,0.629-0.45c0.203-0.164,0.387-0.355,0.565-0.554
			c0.086-0.103,0.166-0.215,0.248-0.323c0.083-0.106,0.139-0.242,0.207-0.361c0.072-0.116,0.107-0.263,0.155-0.395
			c0.055-0.13,0.068-0.279,0.08-0.423c0.006-0.072,0.015-0.143,0.016-0.214l-0.028-0.215c-0.018-0.143-0.037-0.283-0.104-0.407
			c-0.059-0.125-0.1-0.258-0.175-0.367l-0.24-0.311c-0.071-0.108-0.183-0.178-0.276-0.261c-0.095-0.081-0.196-0.156-0.291-0.231
			c-0.022-0.017-0.053-0.013-0.07,0.008c-0.013,0.016-0.014,0.038-0.004,0.055l0.004,0.007l0.176,0.313
			c0.055,0.103,0.128,0.195,0.159,0.305l0.117,0.311c0.037,0.101,0.036,0.21,0.056,0.309c0.027,0.1,0.009,0.201,0.002,0.297
			L85.879-8.92c-0.012,0.047-0.031,0.093-0.045,0.138c-0.031,0.091-0.05,0.181-0.105,0.265c-0.051,0.085-0.078,0.173-0.15,0.251
			c-0.066,0.079-0.115,0.161-0.189,0.236c-0.073,0.075-0.14,0.152-0.215,0.224l-0.242,0.208l-0.259,0.196
			c-0.179,0.125-0.362,0.246-0.55,0.364L83.836-6.87l-0.28,0.152l-0.01,0.005c-0.241,0.13-0.342,0.419-0.244,0.668l0.077,0.197
			c0.035,0.065,0.045,0.132,0.056,0.198c0.009,0.066,0.04,0.134,0.028,0.201c-0.004,0.067,0.002,0.136-0.005,0.205l-0.046,0.208
			c-0.02,0.07-0.057,0.137-0.083,0.208c-0.022,0.072-0.074,0.136-0.112,0.205c-0.037,0.069-0.083,0.136-0.137,0.2
			c-0.095,0.134-0.217,0.254-0.337,0.376c-0.126,0.118-0.258,0.231-0.399,0.338c-0.141,0.106-0.287,0.207-0.438,0.303
			c-0.149,0.092-0.311,0.187-0.458,0.259l-0.008,0.004c-0.099,0.049-0.165,0.142-0.184,0.243c-0.043,0.237-0.075,0.479-0.126,0.715
			c-0.075,0.227-0.115,0.472-0.218,0.688l-0.14,0.332c-0.054,0.107-0.117,0.208-0.175,0.314c-0.055,0.108-0.122,0.207-0.197,0.301
			c-0.075,0.093-0.136,0.2-0.223,0.284l-0.251,0.262l-0.281,0.232c-0.197,0.143-0.404,0.275-0.626,0.383
			c-0.442,0.216-0.929,0.363-1.426,0.407l-0.003,0c-0.027,0.002-0.047,0.027-0.045,0.054C77.55,1.098,77.572,1.117,77.597,1.117z"/>
		<path id="XMLID_383_" fill="#736F80" d="M58.723,9.419c0.846,0.501,1.756,0.885,2.694,1.185c0.233,0.08,0.475,0.134,0.712,0.202
			c0.237,0.072,0.482,0.107,0.724,0.161c0.242,0.056,0.487,0.088,0.734,0.117c0.246,0.031,0.493,0.07,0.742,0.073
			c0.249,0.008,0.498,0.03,0.748,0.027l0.75-0.035c0.251-0.006,0.497-0.067,0.746-0.099c0.25-0.034,0.498-0.077,0.739-0.153
			l0.73-0.202l0.704-0.283c0.24-0.085,0.463-0.204,0.682-0.331l0.665-0.369L69.7,9.725c0.174,0.1,0.329,0.176,0.496,0.253
			c0.164,0.075,0.33,0.146,0.499,0.208c0.336,0.13,0.683,0.232,1.034,0.319c0.175,0.045,0.356,0.07,0.534,0.106
			c0.178,0.037,0.362,0.044,0.543,0.067c0.181,0.026,0.366,0.021,0.549,0.026c0.184,0.008,0.368,0.004,0.553-0.017
			c0.184-0.021,0.371-0.017,0.553-0.063l0.549-0.11l0.534-0.172c0.182-0.05,0.349-0.135,0.519-0.215
			c0.166-0.085,0.346-0.151,0.502-0.254l0.471-0.306c0.162-0.097,0.295-0.228,0.437-0.348l0.42-0.369L77.454,9.02
			c0.252,0.011,0.464,0.012,0.691,0.004c0.223-0.009,0.444-0.029,0.665-0.05c0.442-0.041,0.876-0.124,1.309-0.211l0.642-0.161
			l0.632-0.195c0.416-0.145,0.83-0.297,1.226-0.492c0.404-0.173,0.784-0.4,1.164-0.617l0.546-0.367
			c0.186-0.115,0.353-0.259,0.522-0.397c0.167-0.141,0.342-0.27,0.5-0.42l0.459-0.464c0.308-0.302,0.563-0.658,0.83-0.99
			c0.019-0.024,0.015-0.059-0.009-0.079c-0.021-0.017-0.05-0.016-0.07,0l-0.004,0.003c-0.168,0.132-0.339,0.258-0.501,0.392
			c-0.162,0.133-0.322,0.268-0.501,0.379l-0.519,0.35c-0.172,0.116-0.357,0.213-0.534,0.32c-0.35,0.219-0.731,0.384-1.094,0.573
			c-0.383,0.151-0.75,0.33-1.142,0.453c-0.193,0.066-0.383,0.14-0.582,0.189c-0.197,0.054-0.389,0.12-0.587,0.169L80.503,7.55
			l-0.6,0.111c-0.401,0.069-0.804,0.117-1.206,0.158c-0.201,0.017-0.403,0.034-0.603,0.041c-0.196,0.013-0.408,0.019-0.58,0.017
			c-0.169-0.001-0.325,0.065-0.439,0.171L76.73,8.369c-0.116,0.106-0.224,0.223-0.356,0.305l-0.377,0.278
			c-0.124,0.097-0.269,0.155-0.402,0.235c-0.136,0.076-0.27,0.158-0.419,0.206l-0.436,0.17l-0.456,0.115
			c-0.15,0.048-0.311,0.05-0.466,0.077c-0.156,0.027-0.314,0.04-0.474,0.04c-0.159,0.004-0.319,0.018-0.479,0.001
			c-0.16-0.014-0.321-0.01-0.481-0.037c-0.159-0.025-0.321-0.039-0.479-0.073c-0.318-0.063-0.635-0.141-0.944-0.245
			c-0.156-0.049-0.308-0.107-0.459-0.167c-0.148-0.06-0.304-0.13-0.431-0.195l-0.004-0.002c-0.128-0.065-0.275-0.054-0.389,0.015
			L69.08,9.459c-0.197,0.128-0.399,0.248-0.618,0.335l-0.641,0.293l-0.671,0.218c-0.222,0.082-0.452,0.132-0.685,0.174
			c-0.232,0.041-0.461,0.107-0.698,0.128l-0.708,0.075c-0.237,0.017-0.476,0.01-0.714,0.017c-0.239,0.012-0.477-0.011-0.716-0.027
			c-0.239-0.014-0.479-0.031-0.716-0.071c-0.237-0.038-0.478-0.057-0.712-0.114c-0.235-0.053-0.474-0.09-0.706-0.155
			c-0.934-0.238-1.856-0.564-2.716-1.007c-0.027-0.015-0.061-0.005-0.076,0.021C58.688,9.37,58.698,9.404,58.723,9.419z"/>
		<path id="XMLID_382_" fill="#736F80" d="M30.983-3.236c0.118,0.275,0.272,0.531,0.438,0.778c0.171,0.243,0.345,0.486,0.55,0.703
			c0.193,0.229,0.409,0.434,0.629,0.636c0.212,0.213,0.463,0.376,0.694,0.568c0.239,0.18,0.499,0.329,0.749,0.495
			c0.255,0.158,0.529,0.281,0.794,0.423c0.262,0.151,0.551,0.234,0.827,0.354l0.419,0.166l0.432,0.124
			c0.289,0.077,0.576,0.176,0.869,0.235l0.884,0.167c0.294,0.066,0.593,0.088,0.89,0.118l0.895,0.088
			c0.299,0.013,0.597,0.012,0.897,0.019c0.299,0.003,0.599,0.015,0.898,0.009l1.79-0.105l-0.406-0.151
			c0.196,0.217,0.378,0.402,0.576,0.59c0.194,0.186,0.393,0.367,0.596,0.542c0.404,0.353,0.832,0.679,1.277,0.981l0.681,0.433
			c0.229,0.141,0.475,0.254,0.712,0.382c0.234,0.134,0.492,0.221,0.739,0.331l0.373,0.156l0.387,0.123
			c0.26,0.076,0.51,0.177,0.776,0.231c0.263,0.063,0.527,0.119,0.79,0.174c0.266,0.046,0.536,0.07,0.802,0.105
			c0.133,0.016,0.267,0.031,0.401,0.042l0.404,0.004c0.269-0.001,0.536,0.012,0.802-0.006c0.267-0.031,0.532-0.056,0.795-0.092
			c0.264-0.025,0.523-0.089,0.78-0.156c0.257-0.061,0.511-0.13,0.762-0.202c0.03-0.008,0.047-0.039,0.038-0.069
			c-0.007-0.024-0.029-0.04-0.053-0.041l-0.006,0c-0.263-0.004-0.522-0.005-0.778,0.002c-0.256,0.008-0.511,0.013-0.766-0.021
			l-0.758-0.054c-0.251-0.031-0.499-0.079-0.747-0.114l-0.371-0.057l-0.365-0.09c-0.243-0.061-0.487-0.109-0.726-0.178
			c-0.237-0.08-0.473-0.158-0.71-0.231c-0.239-0.066-0.464-0.18-0.695-0.266C48.717,3.82,48.49,3.721,48.267,3.61
			c-0.223-0.108-0.452-0.204-0.669-0.327c-0.441-0.228-0.875-0.471-1.302-0.729c-0.419-0.27-0.838-0.542-1.238-0.843
			c-0.2-0.15-0.398-0.302-0.587-0.465c-0.188-0.158-0.38-0.332-0.541-0.491L43.913,0.74c-0.106-0.104-0.251-0.149-0.389-0.134
			l-1.718,0.195c-0.287,0.02-0.574,0.022-0.862,0.034c-0.288,0.008-0.576,0.024-0.864,0.026L39.22,0.82
			c-0.287-0.014-0.576-0.02-0.859-0.069l-0.854-0.116c-0.284-0.042-0.559-0.123-0.84-0.183l-0.42-0.097l-0.409-0.132
			c-0.269-0.097-0.555-0.158-0.812-0.285c-0.26-0.119-0.532-0.218-0.786-0.353c-0.248-0.143-0.509-0.269-0.75-0.426
			c-0.232-0.168-0.487-0.31-0.704-0.5c-0.225-0.18-0.448-0.364-0.649-0.573c-0.213-0.197-0.397-0.421-0.579-0.645
			c-0.178-0.229-0.343-0.467-0.475-0.724c-0.013-0.028-0.047-0.04-0.075-0.026C30.983-3.295,30.972-3.263,30.983-3.236z"/>
		<path id="XMLID_381_" fill="#736F80" d="M30.229-0.813c0.107,0.359,0.24,0.709,0.388,1.053c0.145,0.345,0.311,0.682,0.495,1.009
			c0.088,0.166,0.184,0.328,0.287,0.486c0.1,0.16,0.198,0.321,0.313,0.471c0.114,0.151,0.214,0.313,0.34,0.455l0.368,0.436
			l0.407,0.404c0.13,0.142,0.293,0.248,0.439,0.373C33.415,4,33.57,4.115,33.739,4.213c0.167,0.099,0.324,0.216,0.503,0.296
			l0.536,0.241c0.18,0.079,0.374,0.116,0.562,0.176l0.285,0.081c0.096,0.02,0.195,0.028,0.292,0.042l0.588,0.076l-0.322-0.238
			c0.064,0.179,0.125,0.316,0.202,0.462c0.071,0.146,0.158,0.28,0.241,0.418c0.095,0.129,0.177,0.268,0.283,0.388
			c0.102,0.124,0.202,0.25,0.318,0.361c0.221,0.233,0.469,0.443,0.733,0.626c0.136,0.086,0.262,0.191,0.407,0.261l0.428,0.226
			l0.447,0.18c0.148,0.067,0.305,0.098,0.458,0.144c0.155,0.038,0.308,0.097,0.466,0.115l0.472,0.077
			c0.158,0.033,0.315,0.034,0.473,0.046l0.475,0.029c0.314-0.004,0.628-0.02,0.942-0.039L41.97,7.896
			c0.115,0.202,0.217,0.36,0.334,0.528c0.114,0.165,0.232,0.326,0.36,0.48c0.254,0.308,0.53,0.596,0.825,0.864l0.459,0.384
			c0.158,0.121,0.327,0.23,0.49,0.345c0.16,0.118,0.343,0.206,0.513,0.309c0.169,0.106,0.352,0.187,0.536,0.266
			c0.184,0.079,0.362,0.167,0.555,0.222c0.19,0.061,0.378,0.126,0.569,0.179l0.584,0.112c0.192,0.046,0.391,0.051,0.587,0.063
			c0.197,0.005,0.39,0.035,0.586,0.019l0.581-0.048c0.193-0.007,0.381-0.058,0.569-0.095c0.188-0.037,0.373-0.086,0.557-0.13
			c0.03-0.007,0.049-0.037,0.042-0.067c-0.006-0.025-0.027-0.042-0.051-0.043l-0.007,0c-0.189-0.01-0.377-0.026-0.561-0.03
			c-0.185-0.008-0.368-0.003-0.55-0.04l-0.541-0.081c-0.179-0.018-0.353-0.082-0.527-0.119c-0.173-0.047-0.348-0.077-0.514-0.146
			l-0.5-0.178l-0.479-0.224c-0.162-0.066-0.31-0.165-0.461-0.252c-0.152-0.088-0.302-0.175-0.443-0.279
			c-0.141-0.104-0.293-0.189-0.425-0.305c-0.275-0.216-0.534-0.451-0.788-0.691c-0.244-0.251-0.488-0.502-0.708-0.774
			c-0.112-0.134-0.224-0.267-0.328-0.407c-0.103-0.134-0.208-0.288-0.284-0.408l-0.011-0.018c-0.12-0.191-0.335-0.286-0.545-0.266
			l-0.83,0.084L41.15,7.154c-0.138,0-0.278,0.012-0.412-0.008l-0.409-0.04c-0.139-0.005-0.267-0.05-0.401-0.073
			c-0.132-0.031-0.27-0.047-0.395-0.097l-0.386-0.127l-0.367-0.17c-0.127-0.05-0.233-0.134-0.352-0.199
			c-0.23-0.141-0.447-0.305-0.643-0.491c-0.104-0.087-0.193-0.19-0.285-0.29c-0.096-0.097-0.171-0.211-0.258-0.315
			c-0.075-0.112-0.156-0.222-0.221-0.34c-0.069-0.112-0.132-0.244-0.175-0.341l-0.006-0.014c-0.058-0.131-0.182-0.213-0.316-0.224
			l-0.519-0.04c-0.086-0.008-0.174-0.009-0.26-0.022l-0.254-0.059c-0.168-0.045-0.344-0.066-0.507-0.128l-0.49-0.19
			c-0.165-0.062-0.311-0.164-0.469-0.242c-0.16-0.077-0.309-0.173-0.452-0.28c-0.142-0.107-0.301-0.193-0.431-0.318l-0.408-0.353
			l-0.378-0.39c-0.13-0.127-0.236-0.276-0.355-0.413c-0.12-0.137-0.226-0.286-0.333-0.434c-0.11-0.146-0.214-0.296-0.311-0.452
			c-0.201-0.306-0.386-0.624-0.557-0.95c-0.172-0.325-0.331-0.659-0.464-1.002c-0.011-0.029-0.043-0.044-0.072-0.033
			C30.236-0.871,30.221-0.841,30.229-0.813z"/>
	</g>
	<g id="XMLID_244_">
		<g id="XMLID_371_">
			<g id="XMLID_373_">
				<path id="XMLID_376_" fill="#2F5C75" stroke="#48646E" stroke-miterlimit="10" d="M-206.107-16.035v10.996h-1.463v-10.996
					h-2.125v10.996h-1.463v-10.996h-2.125v10.996h-1.463v-10.996h-2.09v7.348c0,1.229-0.239,2.448-0.704,3.592l-0.023,0.056h-1.816
					l0.306-0.777c0.465-1.181,0.704-2.439,0.704-3.709v-15.873c0-1.794,1.454-3.248,3.248-3.248h1.577h9.737v1.44v11.172H-206.107z"/>
				<path id="XMLID_375_" fill="#D6B250" stroke="#A28231" stroke-miterlimit="10" d="M-202.878-6.154h-16.145
					c-0.429,0-0.777,0.348-0.777,0.777v0.676c0,0.429,0.348,0.777,0.777,0.777h16.145c0.429,0,0.777-0.348,0.777-0.777v-0.676
					C-202.101-5.807-202.449-6.154-202.878-6.154z"/>
				<path id="XMLID_374_" fill="#D6B250" stroke="#A28231" stroke-miterlimit="10" d="M-202.459-17.15h-16.145
					c-0.429,0-0.777,0.348-0.777,0.777v0.676c0,0.429,0.348,0.777,0.777,0.777h16.145c0.429,0,0.777-0.348,0.777-0.777v-0.676
					C-201.683-16.802-202.031-17.15-202.459-17.15z"/>
			</g>
		</g>
		<path id="XMLID_370_" fill="#FFFFFF" stroke="#231F20" stroke-width="0.75" stroke-miterlimit="10" d="M-217.987,12.208"/>
		<path id="XMLID_369_" fill="#18354A" stroke="#2D5A73" stroke-width="1.2846" stroke-miterlimit="10" d="M166.386,16.459
			c-0.4,2.447-2.798,4.33-5.704,4.33c-2.906,0-5.304-1.883-5.704-4.33h-0.065V-0.114h11.538v16.573H166.386z"/>
		
			<use xlink:href="#New_Symbol_4" width="37.964" height="8.74" id="XMLID_368_" x="-18.982" y="-4.37" transform="matrix(0.5202 0 0 0.4181 -94.7929 -26.1692)" overflow="visible"/>
		
			<use xlink:href="#New_Symbol_4" width="37.964" height="8.74" id="XMLID_367_" x="-18.982" y="-4.37" transform="matrix(0.4826 0 0 0.4181 18.2269 -26.1692)" overflow="visible"/>
		
			<use xlink:href="#New_Symbol_4" width="37.964" height="8.74" id="XMLID_366_" x="-18.982" y="-4.37" transform="matrix(0.456 0 0 0.4181 109.0662 -26.1692)" overflow="visible"/>
		
			<use xlink:href="#New_Symbol_6" width="110.693" height="77.485" id="XMLID_365_" x="-55.346" y="-38.743" transform="matrix(1 0 0 1 -38.2869 -9.1932)" overflow="visible"/>
		
			<use xlink:href="#New_Symbol_6" width="110.693" height="77.485" id="XMLID_364_" x="-55.346" y="-38.743" transform="matrix(1 0 0 1 -152.1655 -9.1932)" overflow="visible"/>
		<g id="XMLID_353_">
			<path id="XMLID_363_" fill="#142D3D" stroke="#264B60" stroke-width="1.2846" stroke-miterlimit="10" d="M97.016-37.425H31.269
				c-0.619,0-1.121,0.502-1.121,1.121v15.114h67.99v-15.114C98.138-36.923,97.636-37.425,97.016-37.425z"/>
			<path id="XMLID_362_" fill="#CE2542" stroke="#961A38" stroke-width="1.2846" stroke-miterlimit="10" d="M26.187,3.405H66
				c0.798,0,1.544-0.399,1.987-1.063l1.8-2.699l34.699-12.124v-15.23c0-0.362-0.294-0.656-0.656-0.656H24.456
				c-0.362,0-0.656,0.294-0.656,0.656V1.017C23.799,2.336,24.868,3.405,26.187,3.405z"/>
			<path id="XMLID_358_" fill="#D6B250" stroke="#A28231" stroke-miterlimit="10" d="M104.167-16.035H24.118
				c-0.956,0-1.732,0.775-1.732,1.732v0.09c0,0.956,0.775,1.732,1.732,1.732h80.049c0.956,0,1.732-0.775,1.732-1.732v-0.09
				C105.899-15.26,105.124-16.035,104.167-16.035z"/>
			<g id="XMLID_354_">
				
					<use xlink:href="#New_Symbol" width="85.61" height="85.61" id="XMLID_357_" x="-42.805" y="-42.805" transform="matrix(0.2748 0 0 0.2748 40.1534 -36.1744)" overflow="visible"/>
				
					<use xlink:href="#New_Symbol" width="85.61" height="85.61" id="XMLID_356_" x="-42.805" y="-42.805" transform="matrix(0.2748 0 0 0.2748 64.1429 -36.1744)" overflow="visible"/>
				
					<use xlink:href="#New_Symbol" width="85.61" height="85.61" id="XMLID_355_" x="-42.805" y="-42.805" transform="matrix(0.2748 0 0 0.2748 88.1325 -36.1744)" overflow="visible"/>
			</g>
		</g>
		<path id="XMLID_352_" fill="#142D3D" stroke="#264B60" stroke-width="1.2846" stroke-miterlimit="10" d="M188.178-37.425h-72.462
			c-0.619,0-1.121,0.502-1.121,1.121v15.114h74.704v-15.114C189.299-36.923,188.797-37.425,188.178-37.425z"/>
		<path id="XMLID_346_" fill="#12222B" stroke="#4F7180" stroke-miterlimit="10" d="M219.721-44.732l-19.547,22.843h-14.846v-23.053
			c0-0.178,0.144-0.322,0.322-0.322h33.826C219.751-45.264,219.9-44.941,219.721-44.732z M213.108-40.074h-5.418l-4.947,12.117
			L213.108-40.074z M199.415-24.76l6.252-15.314h-4.944l-3.068,15.314H199.415z M193.877-24.76h1.755l3.068-15.314h-4.823V-24.76z
			 M189.299-24.76h2.555v-15.314h-2.555V-24.76z"/>
		<g id="XMLID_341_">
			<defs>
				<path id="XMLID_342_" d="M177.948,44.023l0-8.573c0-1.104,0.218-2.196,0.643-3.215l7.719-18.536V5.913h12.333v7.786
					l7.719,18.536c0.424,1.019,0.643,2.111,0.643,3.215l0,8.573C207.003,48.394,177.948,48.394,177.948,44.023z"/>
			</defs>
			<use xlink:href="#XMLID_342_" overflow="visible" fill="#18354A"/>
			
			<g id="XMLID_343_" clip-path="url(#XMLID_69_)">
				<path id="XMLID_345_" fill="#31566B" stroke="#F9D668" stroke-width="1.2846" stroke-miterlimit="10" d="M206.903,34.373
					c0,0.838-6.453,1.517-14.413,1.517c-7.076,0-12.96-0.537-14.181-1.244c-0.339-0.196-0.734-0.273-1.126-0.273h-4.357v15.646
					h38.462V34.373H206.903z"/>
				<path id="XMLID_344_" fill="#18354A" stroke="#2D5A73" stroke-width="1.2849" stroke-miterlimit="10" d="M199.16,13.564
					c-0.295,0.002-0.576,0.094-0.84,0.224c-0.711,0.351-3.079,0.609-5.89,0.609c-3.373,0-6.108-0.371-6.108-0.829h-3.775V1.941
					h19.858v11.601L199.16,13.564z"/>
			</g>
			<use xlink:href="#XMLID_342_" overflow="visible" fill="none" stroke="#35667C" stroke-width="1.2849" stroke-miterlimit="10"/>
		</g>
		<g id="XMLID_336_">
			<path id="XMLID_340_" fill="#416972" stroke="#617F89" stroke-miterlimit="10" d="M204.96-17.655h-8.319V0.739h8.319
				C207.769,0.739,207.769-17.655,204.96-17.655z"/>
			<g id="XMLID_337_">
				<defs>
					<path id="XMLID_338_" d="M142.058-22.986h58.935c4.556,0,4.556,29.056,0,29.056h-58.935V-22.986z"/>
				</defs>
				<use xlink:href="#XMLID_338_" overflow="visible" fill="#18354A"/>
				
				<polygon id="XMLID_339_" clip-path="url(#XMLID_70_)" fill="#2F5C75" stroke="#48646E" stroke-miterlimit="10" points="
					211.565,-32.131 185.851,-32.131 185.851,10.303 211.565,10.303 				"/>
				
					<use xlink:href="#XMLID_338_" overflow="visible" fill="none" stroke="#2D5A73" stroke-width="1.2846" stroke-miterlimit="10"/>
			</g>
		</g>
		<g id="XMLID_332_">
			<path id="XMLID_334_" fill="#CE2542" stroke="#961A38" stroke-width="1.2846" stroke-miterlimit="10" d="M110.625,20.336v-43.322
				h31.564v43.322H110.625z"/>
			<path id="XMLID_333_" fill="#BC2445" stroke="#961A38" stroke-width="1.2846" stroke-miterlimit="10" d="M145.847,18.873h-38.88
				v3.135c0,2.787,38.88,2.787,38.88,0V18.873z"/>
		</g>
		<path id="XMLID_328_" fill="#D6B250" stroke="#A28231" stroke-miterlimit="10" d="M185.407-16.035h-73.862
			c-0.956,0-1.732,0.775-1.732,1.732v0.09c0,0.956,0.775,1.732,1.732,1.732h73.862c0.956,0,1.732-0.775,1.732-1.732v-0.09
			C187.139-15.26,186.363-16.035,185.407-16.035z"/>
		
			<use xlink:href="#New_Symbol" width="85.61" height="85.61" id="XMLID_327_" x="-42.805" y="-42.805" transform="matrix(0.4181 0 0 0.4181 129.4637 -30.0404)" overflow="visible"/>
		
			<use xlink:href="#New_Symbol" width="85.61" height="85.61" id="XMLID_259_" x="-42.805" y="-42.805" transform="matrix(0.4181 0 0 0.4181 165.6264 -30.0404)" overflow="visible"/>
		
			<use xlink:href="#New_Symbol_1" width="43.833" height="53.767" id="XMLID_258_" x="-21.916" y="-27.026" transform="matrix(0.4181 0 0 0.4181 126.4066 3.4048)" overflow="visible"/>
		
			<line id="XMLID_257_" fill="#18354A" stroke="#2D5A73" stroke-width="1.3576" stroke-linecap="round" stroke-linejoin="round" stroke-miterlimit="10" x1="154.239" y1="8.7" x2="167.125" y2="8.7"/>
		
			<line id="XMLID_256_" fill="#18354A" stroke="#2D5A73" stroke-width="1.3576" stroke-linecap="round" stroke-linejoin="round" stroke-miterlimit="10" x1="154.239" y1="16.668" x2="167.125" y2="16.668"/>
		<polygon id="XMLID_255_" fill="#46839E" stroke="#405960" stroke-miterlimit="10" points="165.626,-31.488 189.471,-22.461 
			188.276,-20.16 164.432,-29.186 		"/>
		<g id="XMLID_252_">
			<defs>
				<path id="XMLID_253_" d="M198.7-26.169l-14.187,0c-0.369,0-0.669,0.3-0.669,0.669v12.349c0,0.369,0.3,0.669,0.669,0.669H198.7
					C200.445-12.482,200.445-26.169,198.7-26.169z"/>
			</defs>
			<use xlink:href="#XMLID_253_" overflow="visible" fill="#18354A"/>
			
			
				<path id="XMLID_254_" clip-path="url(#XMLID_71_)" fill="#18354A" stroke="#F9D668" stroke-width="1.2846" stroke-miterlimit="10" d="
				M196.073-26.169l-14.856,0v13.688h14.856C197.818-12.482,197.818-26.169,196.073-26.169z"/>
			<use xlink:href="#XMLID_253_" overflow="visible" fill="none" stroke="#2D5A73" stroke-width="1.2846" stroke-miterlimit="10"/>
		</g>
		<polygon id="XMLID_251_" fill="#46839E" stroke="#405960" stroke-miterlimit="10" points="165.626,-31.194 129.464,-31.194 
			129.464,-28.887 165.626,-28.887 		"/>
		<path id="XMLID_250_" fill="#63A9C1" stroke="#3E575E" stroke-miterlimit="10" d="M131.446-30.041
			c0-1.095-0.887-1.982-1.982-1.982s-1.982,0.887-1.982,1.982c0,1.095,0.887,1.982,1.982,1.982S131.446-28.946,131.446-30.041z"/>
		<path id="XMLID_249_" fill="#63A9C1" stroke="#3E575E" stroke-miterlimit="10" d="M167.608-30.041
			c0-1.095-0.887-1.982-1.982-1.982s-1.982,0.887-1.982,1.982c0,1.095,0.887,1.982,1.982,1.982S167.608-28.946,167.608-30.041z"/>
		<path id="XMLID_245_" fill="#D6B250" stroke="#A28231" stroke-miterlimit="10" d="M186.106-2.44h-44.194
			c-0.429,0-0.777,0.348-0.777,0.777v0.676c0,0.429,0.348,0.777,0.777,0.777h44.194c0.429,0,0.777-0.348,0.777-0.777v-0.676
			C186.883-2.092,186.535-2.44,186.106-2.44z"/>
	</g>
	<g id="XMLID_147_">
		
			<line id="XMLID_243_" fill="none" stroke="#414042" stroke-width="3" stroke-linecap="round" stroke-linejoin="round" stroke-miterlimit="10" x1="-240.794" y1="-47.936" x2="240.794" y2="-47.936"/>
		<g id="XMLID_148_">
			
				<use xlink:href="#New_Symbol_5" width="208.095" height="15.682" id="XMLID_242_" x="-104.047" y="-7.841" transform="matrix(0.4181 0 0 0.2328 -191.647 -48.8362)" overflow="visible"/>
			
				<use xlink:href="#New_Symbol_5" width="208.095" height="15.682" id="XMLID_241_" x="-104.047" y="-7.841" transform="matrix(0.4181 0 0 0.2328 -95.8235 -48.8362)" overflow="visible"/>
			
				<use xlink:href="#New_Symbol_5" width="208.095" height="15.682" id="XMLID_240_" x="-104.047" y="-7.841" transform="matrix(0.4181 0 0 0.2328 -4.943487e-05 -48.8362)" overflow="visible"/>
			
				<use xlink:href="#New_Symbol_5" width="208.095" height="15.682" id="XMLID_239_" x="-104.047" y="-7.841" transform="matrix(0.4181 0 0 0.2328 95.8234 -48.8362)" overflow="visible"/>
			
				<use xlink:href="#New_Symbol_5" width="208.095" height="15.682" id="XMLID_149_" x="-104.047" y="-7.841" transform="matrix(0.4181 0 0 0.2328 191.6469 -48.8362)" overflow="visible"/>
		</g>
	</g>
</symbol>
<symbol id="New_Symbol_8" viewBox="-55.346 -40.122 110.693 80.244">
	<path id="XMLID_573_" fill="#142D3D" stroke="#264B60" stroke-width="1.2846" stroke-miterlimit="10" d="M-44.773-26.852h89.546
		c0.619,0,1.121,0.502,1.121,1.121v15.114h-91.788v-15.114C-45.894-26.35-45.392-26.852-44.773-26.852z"/>
	<path id="XMLID_572_" fill="#0E6638" stroke="#08512B" stroke-width="1.2846" stroke-miterlimit="10" d="M-46.185,34.254h92.37
		c0.33,0,0.597,0.313,0.597,0.698v2.437c0,2.787-93.564,2.787-93.564,0v-2.437C-46.782,34.566-46.515,34.254-46.185,34.254z"/>
	<path id="XMLID_568_" fill="#117744" stroke="#08512B" stroke-width="1.2846" stroke-miterlimit="10" d="M-50.304-18.762H50.304
		c0.925,0,1.676,0.75,1.676,1.676v49.146H-51.979v-49.146C-51.979-18.012-51.229-18.762-50.304-18.762z"/>
	<path id="XMLID_567_" fill="#0E6638" stroke="#08512B" stroke-width="1.2846" stroke-miterlimit="10" d="M-54.006,32.059H54.006
		c0.386,0,0.698,0.313,0.698,0.698v2.437c0,2.787-109.408,2.787-109.408,0v-2.437C-54.704,32.372-54.391,32.059-54.006,32.059z"/>
	<g id="XMLID_562_">
		
			<use xlink:href="#New_Symbol_1" width="43.833" height="53.767" id="XMLID_566_" x="-21.916" y="-27.026" transform="matrix(-0.4181 1.877000e-11 1.877000e-11 0.4181 37.9819 11.4451)" overflow="visible"/>
		
			<use xlink:href="#New_Symbol_1" width="43.833" height="53.767" id="XMLID_565_" x="-21.916" y="-27.026" transform="matrix(-0.4181 1.877000e-11 1.877000e-11 0.4181 12.6609 11.4451)" overflow="visible"/>
		
			<use xlink:href="#New_Symbol_1" width="43.833" height="53.767" id="XMLID_564_" x="-21.916" y="-27.026" transform="matrix(-0.4181 1.877000e-11 1.877000e-11 0.4181 -12.6601 11.4451)" overflow="visible"/>
		
			<use xlink:href="#New_Symbol_1" width="43.833" height="53.767" id="XMLID_563_" x="-21.916" y="-27.026" transform="matrix(-0.4181 1.877000e-11 1.877000e-11 0.4181 -37.981 11.4451)" overflow="visible"/>
	</g>
	<path id="XMLID_555_" fill="#D6B250" stroke="#A28231" stroke-miterlimit="10" d="M-51.108-5.462H51.109
		c0.981,0,1.777,0.795,1.777,1.777v0c0,0.981-0.795,1.777-1.777,1.777l-102.217,0c-0.981,0-1.777-0.795-1.777-1.777v0
		C-52.885-4.667-52.09-5.462-51.108-5.462z"/>
	<path id="XMLID_548_" fill="#D6B250" stroke="#A28231" stroke-miterlimit="10" d="M-51.108,23.698H51.109
		c0.981,0,1.777,0.795,1.777,1.777v0c0,0.981-0.795,1.777-1.777,1.777l-102.217,0c-0.981,0-1.777-0.795-1.777-1.777v0
		C-52.885,24.493-52.09,23.698-51.108,23.698z"/>
	<g id="XMLID_504_">
		<g id="XMLID_506_">
			
				<use xlink:href="#New_Symbol" width="85.61" height="85.61" id="XMLID_547_" x="-42.805" y="-42.805" transform="matrix(-0.2748 1.233600e-11 1.233600e-11 0.2748 35.9651 -25.6016)" overflow="visible"/>
			
				<use xlink:href="#New_Symbol" width="85.61" height="85.61" id="XMLID_546_" x="-42.805" y="-42.805" transform="matrix(-0.2748 1.233600e-11 1.233600e-11 0.2748 11.9755 -25.6016)" overflow="visible"/>
			
				<use xlink:href="#New_Symbol" width="85.61" height="85.61" id="XMLID_545_" x="-42.805" y="-42.805" transform="matrix(-0.2748 1.233600e-11 1.233600e-11 0.2748 -12.014 -25.6016)" overflow="visible"/>
		</g>
		
			<use xlink:href="#New_Symbol" width="85.61" height="85.61" id="XMLID_505_" x="-42.805" y="-42.805" transform="matrix(-0.2748 1.233600e-11 1.233600e-11 0.2748 -35.9643 -25.6016)" overflow="visible"/>
	</g>
</symbol>
<symbol id="New_Symbol_9" viewBox="-55.346 -38.743 110.693 77.486">
	<path id="XMLID_574_" fill="#142D3D" stroke="#264B60" stroke-width="1.2846" stroke-miterlimit="10" d="M44.773-28.231h-89.546
		c-0.619,0-1.121,0.502-1.121,1.121v15.114h91.788V-27.11C45.894-27.729,45.392-28.231,44.773-28.231z"/>
	<path id="XMLID_544_" fill="#16698E" stroke="#0F5787" stroke-width="1.2846" stroke-miterlimit="10" d="M46.185,32.875h-92.37
		c-0.33,0-0.597,0.313-0.597,0.698v2.437c0,2.787,93.564,2.787,93.564,0v-2.437C46.782,33.187,46.515,32.875,46.185,32.875z"/>
	<path id="XMLID_543_" fill="#1C75BC" stroke="#0F5787" stroke-width="1.2846" stroke-miterlimit="10" d="M50.304-20.141H-50.304
		c-0.925,0-1.676,0.75-1.676,1.676V30.68H51.98v-49.146C51.98-19.391,51.229-20.141,50.304-20.141z"/>
	<path id="XMLID_542_" fill="#16698E" stroke="#0F5787" stroke-width="1.2846" stroke-miterlimit="10" d="M54.006,30.68H-54.006
		c-0.386,0-0.698,0.313-0.698,0.698v2.437c0,2.787,109.408,2.787,109.408,0v-2.437C54.704,30.993,54.392,30.68,54.006,30.68z"/>
	<g id="XMLID_528_">
		
			<use xlink:href="#New_Symbol_1" width="43.833" height="53.767" id="XMLID_541_" x="-21.916" y="-27.026" transform="matrix(0.4181 0 0 0.4181 -37.9817 10.0652)" overflow="visible"/>
		
			<use xlink:href="#New_Symbol_1" width="43.833" height="53.767" id="XMLID_540_" x="-21.916" y="-27.026" transform="matrix(0.4181 0 0 0.4181 -12.6608 10.0652)" overflow="visible"/>
		
			<use xlink:href="#New_Symbol_1" width="43.833" height="53.767" id="XMLID_539_" x="-21.916" y="-27.026" transform="matrix(0.4181 0 0 0.4181 12.6602 10.0652)" overflow="visible"/>
		
			<use xlink:href="#New_Symbol_1" width="43.833" height="53.767" id="XMLID_529_" x="-21.916" y="-27.026" transform="matrix(0.4181 0 0 0.4181 37.9812 10.0652)" overflow="visible"/>
	</g>
	<path id="XMLID_524_" fill="#D6B250" stroke="#A28231" stroke-miterlimit="10" d="M51.109-6.842H-51.108
		c-0.981,0-1.777,0.795-1.777,1.777v0c0,0.981,0.795,1.777,1.777,1.777H51.109c0.981,0,1.777-0.795,1.777-1.777v0
		C52.885-6.046,52.09-6.842,51.109-6.842z"/>
	<path id="XMLID_515_" fill="#D6B250" stroke="#A28231" stroke-miterlimit="10" d="M51.109,22.319H-51.108
		c-0.981,0-1.777,0.795-1.777,1.777v0c0,0.981,0.795,1.777,1.777,1.777H51.109c0.981,0,1.777-0.795,1.777-1.777v0
		C52.885,23.114,52.09,22.319,51.109,22.319z"/>
	<g id="XMLID_481_">
		<g id="XMLID_483_">
			
				<use xlink:href="#New_Symbol" width="85.61" height="85.61" id="XMLID_514_" x="-42.805" y="-42.805" transform="matrix(0.2748 0 0 0.2748 -35.965 -26.9815)" overflow="visible"/>
			
				<use xlink:href="#New_Symbol" width="85.61" height="85.61" id="XMLID_513_" x="-42.805" y="-42.805" transform="matrix(0.2748 0 0 0.2748 -11.9754 -26.9815)" overflow="visible"/>
			
				<use xlink:href="#New_Symbol" width="85.61" height="85.61" id="XMLID_512_" x="-42.805" y="-42.805" transform="matrix(0.2748 0 0 0.2748 12.0142 -26.9815)" overflow="visible"/>
		</g>
		
			<use xlink:href="#New_Symbol" width="85.61" height="85.61" id="XMLID_482_" x="-42.805" y="-42.805" transform="matrix(0.2748 0 0 0.2748 35.9644 -26.9815)" overflow="visible"/>
	</g>
</symbol>
<g id="XMLID_1_">
	
		<use xlink:href="#New_Symbol_7" width="484.587" height="101.323" id="XMLID_2_" x="-242.294" y="-50.661" transform="matrix(1 0 0 -1 250.0001 102.9734)" overflow="visible"/>
	<g id="XMLID_6_">
		<g id="XMLID_229_">
			
				<path id="XMLID_235_" fill="#393444" stroke="#736F80" stroke-width="0.9965" stroke-linejoin="round" stroke-miterlimit="10" d="
				M276.77,398.116c0,0,0.623-5.633,5.009-6.343c0,0,0.451-3.524,5.288-3.585c0,0,1.557-4.738,6.75-4.658c0,0,4.919-4.371,13.665,0
				c0,0,6.832-3.242,12.298,0c0,0,7.106-1.548,10.385,3.218c0,0,5.087-1.043,6.643,3.104c0,0,5.109,1.295,6.749,6.221
				c0,0,3.419-0.216,3.759,4.727c0,0,3.076,1.536,1.978,4.166c0,0,4.101,2.142,1.368,5.412H276.77V398.116z"/>
			<path id="XMLID_234_" fill="#736F80" d="M337.474,394.796c0.288-0.021,0.573,0.011,0.855,0.066c0.279,0.067,0.56,0.15,0.815,0.29
				c0.134,0.059,0.256,0.139,0.377,0.22c0.127,0.075,0.238,0.17,0.349,0.266c0.117,0.091,0.221,0.194,0.316,0.306
				c0.097,0.11,0.205,0.214,0.282,0.339l0.251,0.364l0.204,0.39c0.146,0.258,0.219,0.541,0.328,0.813
				c0.076,0.28,0.147,0.562,0.211,0.846l0.128,0.858l-0.196-0.294c0.224,0.108,0.408,0.219,0.601,0.345
				c0.19,0.125,0.374,0.259,0.548,0.409c0.177,0.146,0.344,0.308,0.499,0.484c0.075,0.091,0.16,0.173,0.225,0.274
				c0.068,0.098,0.14,0.194,0.205,0.296l0.176,0.322c0.055,0.11,0.093,0.23,0.139,0.346c0.051,0.115,0.072,0.24,0.099,0.364
				c0.026,0.124,0.057,0.248,0.058,0.376c0.007,0.127,0.016,0.255,0.018,0.383l-0.042,0.377c-0.022,0.256-0.119,0.484-0.185,0.726
				l-0.26-0.718c0.159,0.079,0.277,0.151,0.408,0.234c0.123,0.085,0.253,0.163,0.369,0.258c0.237,0.185,0.468,0.38,0.669,0.612
				c0.105,0.11,0.206,0.226,0.294,0.355c0.094,0.123,0.181,0.251,0.256,0.391c0.079,0.136,0.159,0.27,0.214,0.423
				c0.057,0.15,0.129,0.291,0.154,0.454c0.029,0.16,0.078,0.313,0.085,0.474c0.006,0.162,0.011,0.323,0.008,0.481l-0.087,0.466
				c-0.018,0.157-0.101,0.292-0.155,0.434c-0.061,0.14-0.114,0.281-0.206,0.4l-0.253,0.361c-0.08,0.121-0.199,0.211-0.296,0.314
				c-0.101,0.101-0.208,0.195-0.31,0.29c-0.023,0.021-0.058,0.02-0.079-0.003c-0.016-0.017-0.019-0.042-0.01-0.062l0.003-0.007
				l0.173-0.376c0.053-0.124,0.127-0.237,0.165-0.364l0.12-0.372c0.052-0.118,0.061-0.246,0.08-0.368
				c0.009-0.124,0.057-0.24,0.041-0.361l-0.008-0.352c-0.029-0.114-0.05-0.226-0.07-0.337c-0.021-0.111-0.08-0.215-0.115-0.321
				c-0.03-0.108-0.108-0.203-0.156-0.305c-0.047-0.103-0.122-0.197-0.191-0.291c-0.064-0.097-0.142-0.187-0.226-0.273
				c-0.077-0.09-0.157-0.179-0.249-0.26c-0.171-0.169-0.361-0.33-0.558-0.479c-0.096-0.078-0.198-0.148-0.298-0.222l-0.294-0.193
				c-0.241-0.158-0.339-0.451-0.262-0.713l0.002-0.006c0.049-0.165,0.145-0.326,0.173-0.494l0.058-0.252l0.013-0.254
				c0.013-0.086-0.005-0.17-0.015-0.255c-0.011-0.085-0.014-0.172-0.046-0.255c-0.027-0.083-0.043-0.17-0.076-0.253l-0.109-0.248
				c-0.042-0.081-0.094-0.159-0.14-0.239c-0.043-0.082-0.11-0.153-0.163-0.231c-0.114-0.151-0.243-0.297-0.384-0.432
				c-0.137-0.139-0.289-0.267-0.446-0.387c-0.153-0.119-0.328-0.239-0.48-0.327l-0.018-0.01c-0.106-0.061-0.169-0.171-0.178-0.284
				l-0.06-0.805c-0.041-0.264-0.087-0.528-0.137-0.791c-0.083-0.25-0.128-0.52-0.236-0.76l-0.15-0.369l-0.194-0.345
				c-0.059-0.121-0.146-0.219-0.224-0.326c-0.075-0.11-0.16-0.211-0.257-0.301c-0.091-0.096-0.183-0.193-0.292-0.27
				c-0.103-0.084-0.207-0.168-0.325-0.233c-0.222-0.151-0.474-0.251-0.728-0.344c-0.258-0.081-0.528-0.141-0.799-0.15
				c-0.031,0-0.056-0.025-0.056-0.056C337.422,394.823,337.446,394.799,337.474,394.796z"/>
			<path id="XMLID_233_" fill="#736F80" d="M327.597,395.91c0.518-0.009,1.038,0.082,1.528,0.27
				c0.245,0.093,0.481,0.212,0.709,0.348l0.329,0.225l0.303,0.261c0.105,0.084,0.184,0.194,0.277,0.29
				c0.094,0.097,0.178,0.201,0.251,0.314c0.075,0.111,0.158,0.219,0.226,0.334l0.184,0.358c0.132,0.236,0.196,0.496,0.297,0.745
				c0.075,0.255,0.13,0.515,0.195,0.775l-0.191-0.247c0.198,0.08,0.367,0.165,0.545,0.257c0.175,0.093,0.346,0.194,0.514,0.302
				c0.168,0.109,0.33,0.229,0.489,0.357c0.155,0.134,0.311,0.27,0.451,0.431c0.074,0.075,0.142,0.157,0.204,0.249
				c0.062,0.09,0.134,0.171,0.182,0.275c0.051,0.101,0.11,0.197,0.152,0.304l0.11,0.334c0.026,0.115,0.035,0.236,0.051,0.356
				c0.023,0.12-0.002,0.239-0.008,0.359c-0.009,0.121-0.021,0.242-0.063,0.35l-0.107,0.336l-0.254-0.673
				c0.135,0.057,0.242,0.113,0.359,0.173c0.115,0.059,0.225,0.123,0.335,0.19c0.218,0.135,0.429,0.285,0.629,0.45
				c0.203,0.164,0.387,0.355,0.565,0.554c0.086,0.103,0.166,0.215,0.248,0.323c0.083,0.106,0.139,0.242,0.207,0.361
				c0.072,0.116,0.107,0.263,0.155,0.395c0.055,0.13,0.068,0.279,0.08,0.423c0.006,0.072,0.015,0.143,0.016,0.214l-0.028,0.215
				c-0.018,0.143-0.037,0.283-0.104,0.407c-0.059,0.125-0.1,0.258-0.175,0.367l-0.24,0.311c-0.071,0.108-0.183,0.178-0.276,0.261
				c-0.095,0.081-0.196,0.156-0.291,0.231c-0.022,0.017-0.053,0.013-0.07-0.008c-0.013-0.016-0.014-0.038-0.004-0.055l0.004-0.007
				l0.176-0.313c0.055-0.103,0.128-0.195,0.159-0.305l0.117-0.311c0.037-0.101,0.036-0.21,0.056-0.309
				c0.027-0.1,0.009-0.201,0.002-0.297l-0.009-0.143c-0.012-0.047-0.031-0.093-0.045-0.138c-0.031-0.091-0.05-0.181-0.105-0.265
				c-0.051-0.085-0.078-0.173-0.15-0.251c-0.066-0.079-0.115-0.161-0.189-0.236c-0.073-0.075-0.14-0.152-0.215-0.224l-0.242-0.208
				l-0.259-0.196c-0.179-0.125-0.362-0.246-0.55-0.364l-0.286-0.168l-0.28-0.152l-0.01-0.005c-0.241-0.13-0.342-0.419-0.244-0.668
				l0.077-0.197c0.035-0.065,0.045-0.132,0.056-0.198c0.009-0.066,0.04-0.134,0.028-0.201c-0.004-0.067,0.002-0.136-0.005-0.205
				l-0.046-0.208c-0.02-0.07-0.057-0.137-0.083-0.208c-0.022-0.072-0.074-0.136-0.112-0.205c-0.037-0.069-0.083-0.136-0.137-0.2
				c-0.095-0.134-0.217-0.254-0.337-0.376c-0.126-0.118-0.258-0.232-0.399-0.338c-0.141-0.106-0.287-0.207-0.438-0.303
				c-0.149-0.092-0.311-0.187-0.458-0.259l-0.008-0.004c-0.099-0.049-0.164-0.142-0.183-0.243c-0.043-0.237-0.075-0.479-0.126-0.715
				c-0.075-0.227-0.115-0.472-0.218-0.688l-0.14-0.332c-0.054-0.107-0.117-0.208-0.175-0.314c-0.055-0.108-0.122-0.207-0.197-0.301
				c-0.075-0.093-0.136-0.2-0.223-0.284l-0.251-0.262l-0.281-0.232c-0.197-0.143-0.404-0.275-0.626-0.383
				c-0.442-0.216-0.929-0.363-1.426-0.407l-0.003,0c-0.027-0.002-0.047-0.027-0.045-0.054
				C327.55,395.929,327.572,395.91,327.597,395.91z"/>
			<path id="XMLID_232_" fill="#736F80" d="M308.723,387.607c0.846-0.501,1.756-0.885,2.694-1.185
				c0.233-0.08,0.475-0.134,0.712-0.202c0.237-0.072,0.482-0.107,0.724-0.161c0.242-0.056,0.487-0.088,0.734-0.117
				c0.246-0.031,0.493-0.07,0.742-0.073c0.249-0.008,0.498-0.03,0.748-0.027l0.75,0.035c0.251,0.006,0.497,0.067,0.746,0.099
				c0.25,0.034,0.498,0.077,0.739,0.153l0.73,0.202l0.704,0.283c0.24,0.085,0.463,0.204,0.682,0.331l0.665,0.369l-0.392-0.013
				c0.174-0.1,0.329-0.176,0.496-0.253c0.164-0.075,0.33-0.146,0.499-0.208c0.336-0.13,0.683-0.232,1.034-0.319
				c0.175-0.045,0.356-0.07,0.534-0.106c0.178-0.037,0.362-0.044,0.543-0.067c0.181-0.026,0.366-0.021,0.549-0.026
				c0.184-0.008,0.368-0.004,0.553,0.017c0.184,0.021,0.371,0.017,0.553,0.063l0.549,0.11l0.534,0.172
				c0.182,0.05,0.349,0.135,0.519,0.215c0.166,0.085,0.346,0.151,0.502,0.254l0.471,0.306c0.162,0.097,0.295,0.228,0.437,0.348
				l0.42,0.369l-0.439-0.171c0.252-0.011,0.464-0.012,0.691-0.004c0.223,0.009,0.444,0.029,0.665,0.05
				c0.441,0.041,0.876,0.124,1.309,0.211l0.642,0.161l0.632,0.195c0.416,0.145,0.83,0.297,1.226,0.492
				c0.404,0.173,0.784,0.4,1.164,0.617l0.546,0.367c0.186,0.115,0.353,0.259,0.522,0.397c0.167,0.141,0.342,0.27,0.5,0.42
				l0.459,0.464c0.308,0.302,0.563,0.658,0.83,0.99c0.019,0.024,0.015,0.059-0.009,0.079c-0.021,0.017-0.05,0.016-0.07,0
				l-0.004-0.003c-0.168-0.132-0.339-0.258-0.501-0.392c-0.162-0.133-0.322-0.268-0.501-0.379l-0.519-0.35
				c-0.172-0.116-0.357-0.213-0.534-0.32c-0.35-0.219-0.731-0.384-1.094-0.573c-0.383-0.151-0.75-0.33-1.142-0.453
				c-0.193-0.066-0.383-0.14-0.582-0.189c-0.197-0.054-0.389-0.12-0.587-0.169l-0.594-0.141l-0.6-0.111
				c-0.401-0.069-0.804-0.117-1.206-0.158c-0.201-0.017-0.403-0.034-0.603-0.041c-0.196-0.013-0.408-0.019-0.58-0.017
				c-0.169,0.001-0.325-0.065-0.439-0.171l-0.345-0.321c-0.116-0.106-0.224-0.223-0.356-0.305l-0.377-0.278
				c-0.124-0.097-0.269-0.155-0.402-0.235c-0.136-0.076-0.27-0.158-0.419-0.206l-0.436-0.17l-0.456-0.115
				c-0.15-0.048-0.311-0.05-0.466-0.077c-0.156-0.027-0.314-0.04-0.474-0.04c-0.159-0.004-0.319-0.018-0.479-0.001
				c-0.16,0.014-0.321,0.01-0.481,0.037c-0.159,0.025-0.321,0.039-0.479,0.073c-0.318,0.063-0.635,0.141-0.944,0.245
				c-0.156,0.049-0.308,0.107-0.459,0.167c-0.148,0.06-0.304,0.13-0.431,0.195l-0.004,0.002c-0.128,0.065-0.275,0.054-0.389-0.015
				l-0.599-0.367c-0.198-0.128-0.399-0.247-0.618-0.335l-0.641-0.293l-0.671-0.218c-0.222-0.082-0.452-0.132-0.685-0.174
				c-0.232-0.041-0.461-0.107-0.698-0.128l-0.708-0.075c-0.237-0.017-0.476-0.01-0.714-0.017c-0.239-0.012-0.477,0.011-0.716,0.027
				c-0.239,0.014-0.479,0.031-0.716,0.071c-0.237,0.038-0.478,0.057-0.712,0.114c-0.235,0.053-0.474,0.09-0.706,0.155
				c-0.934,0.238-1.856,0.564-2.716,1.007c-0.027,0.015-0.061,0.005-0.076-0.021C308.688,387.657,308.698,387.623,308.723,387.607z"/>
			<path id="XMLID_231_" fill="#736F80" d="M280.983,400.263c0.118-0.275,0.272-0.531,0.438-0.778
				c0.171-0.243,0.345-0.486,0.55-0.703c0.193-0.229,0.409-0.434,0.629-0.636c0.212-0.213,0.463-0.376,0.694-0.568
				c0.239-0.18,0.499-0.329,0.749-0.495c0.255-0.158,0.529-0.281,0.794-0.423c0.262-0.151,0.551-0.234,0.827-0.354l0.419-0.166
				l0.432-0.124c0.289-0.077,0.576-0.176,0.869-0.235l0.884-0.167c0.294-0.066,0.593-0.088,0.891-0.118l0.895-0.088
				c0.299-0.013,0.597-0.012,0.897-0.019c0.299-0.003,0.599-0.015,0.898-0.009l1.79,0.105l-0.406,0.151
				c0.196-0.217,0.378-0.402,0.576-0.59c0.194-0.186,0.393-0.367,0.596-0.542c0.404-0.353,0.832-0.679,1.277-0.981l0.681-0.433
				c0.229-0.141,0.475-0.254,0.712-0.382c0.234-0.134,0.492-0.221,0.739-0.331l0.373-0.156l0.387-0.123
				c0.26-0.076,0.51-0.177,0.776-0.231c0.263-0.063,0.527-0.119,0.79-0.174c0.266-0.046,0.536-0.07,0.802-0.105
				c0.133-0.016,0.267-0.031,0.401-0.042l0.404-0.004c0.269,0.001,0.536-0.012,0.802,0.006c0.267,0.031,0.532,0.056,0.795,0.092
				c0.264,0.025,0.523,0.089,0.78,0.156c0.257,0.061,0.511,0.13,0.762,0.202c0.03,0.008,0.047,0.039,0.038,0.069
				c-0.007,0.024-0.029,0.04-0.053,0.041l-0.006,0c-0.263,0.004-0.522,0.005-0.778-0.002c-0.256-0.008-0.511-0.013-0.766,0.021
				l-0.758,0.054c-0.251,0.031-0.499,0.079-0.747,0.114l-0.371,0.057l-0.365,0.09c-0.243,0.061-0.487,0.109-0.726,0.178
				c-0.237,0.08-0.473,0.158-0.71,0.231c-0.239,0.066-0.464,0.18-0.695,0.266c-0.232,0.088-0.459,0.188-0.681,0.298
				c-0.223,0.108-0.452,0.204-0.669,0.327c-0.441,0.228-0.875,0.471-1.302,0.729c-0.419,0.27-0.838,0.542-1.238,0.843
				c-0.2,0.15-0.398,0.302-0.587,0.465c-0.188,0.158-0.38,0.332-0.541,0.491l-0.017,0.017c-0.106,0.104-0.251,0.149-0.389,0.134
				l-1.718-0.195c-0.287-0.02-0.574-0.022-0.862-0.034c-0.288-0.008-0.576-0.024-0.864-0.026l-0.861,0.042
				c-0.287,0.014-0.576,0.02-0.859,0.069l-0.854,0.116c-0.284,0.042-0.559,0.123-0.84,0.183l-0.42,0.097l-0.409,0.132
				c-0.269,0.097-0.555,0.158-0.812,0.285c-0.26,0.119-0.532,0.218-0.786,0.353c-0.248,0.143-0.509,0.269-0.75,0.426
				c-0.232,0.168-0.487,0.31-0.704,0.5c-0.225,0.18-0.448,0.364-0.649,0.573c-0.213,0.197-0.397,0.421-0.579,0.645
				c-0.177,0.229-0.343,0.467-0.475,0.724c-0.013,0.028-0.047,0.04-0.075,0.026C280.983,400.322,280.972,400.29,280.983,400.263z"/>
			<path id="XMLID_230_" fill="#736F80" d="M280.229,397.84c0.107-0.359,0.24-0.709,0.388-1.053
				c0.145-0.345,0.311-0.682,0.495-1.009c0.088-0.166,0.184-0.328,0.287-0.486c0.1-0.16,0.198-0.321,0.313-0.471
				c0.114-0.151,0.214-0.312,0.34-0.455l0.368-0.436l0.407-0.404c0.13-0.142,0.293-0.248,0.439-0.373
				c0.147-0.126,0.302-0.241,0.471-0.338c0.167-0.099,0.324-0.216,0.503-0.296l0.536-0.241c0.18-0.079,0.374-0.116,0.562-0.176
				l0.285-0.081c0.096-0.02,0.195-0.028,0.292-0.042l0.588-0.076l-0.322,0.238c0.064-0.179,0.125-0.316,0.202-0.462
				c0.071-0.146,0.158-0.28,0.241-0.418c0.095-0.129,0.177-0.268,0.283-0.388c0.102-0.124,0.202-0.25,0.318-0.361
				c0.221-0.233,0.469-0.443,0.733-0.626c0.136-0.086,0.262-0.191,0.407-0.261l0.428-0.226l0.447-0.18
				c0.148-0.067,0.305-0.098,0.458-0.144c0.155-0.038,0.308-0.097,0.466-0.115l0.472-0.077c0.158-0.033,0.315-0.034,0.473-0.046
				l0.475-0.029c0.314,0.004,0.628,0.02,0.942,0.039l-0.556,0.283c0.115-0.202,0.217-0.36,0.334-0.528
				c0.114-0.165,0.232-0.326,0.36-0.48c0.254-0.308,0.53-0.596,0.825-0.864l0.459-0.384c0.158-0.121,0.327-0.23,0.49-0.345
				c0.16-0.118,0.343-0.206,0.513-0.309c0.169-0.106,0.352-0.187,0.536-0.266c0.184-0.079,0.362-0.167,0.555-0.222
				c0.19-0.061,0.378-0.126,0.569-0.179l0.584-0.112c0.192-0.046,0.391-0.051,0.587-0.063c0.197-0.005,0.39-0.035,0.586-0.019
				l0.581,0.048c0.193,0.007,0.381,0.058,0.569,0.095c0.188,0.036,0.373,0.086,0.557,0.13c0.03,0.007,0.049,0.037,0.042,0.067
				c-0.006,0.025-0.027,0.042-0.051,0.043l-0.007,0c-0.189,0.01-0.377,0.026-0.561,0.03c-0.185,0.008-0.368,0.003-0.55,0.04
				l-0.541,0.081c-0.179,0.018-0.353,0.082-0.527,0.119c-0.173,0.047-0.348,0.077-0.514,0.146l-0.5,0.178l-0.479,0.224
				c-0.162,0.066-0.31,0.165-0.461,0.252c-0.152,0.088-0.302,0.175-0.443,0.279c-0.141,0.104-0.293,0.189-0.425,0.305
				c-0.275,0.216-0.534,0.451-0.788,0.691c-0.244,0.251-0.488,0.502-0.708,0.774c-0.112,0.134-0.224,0.267-0.328,0.407
				c-0.103,0.134-0.208,0.288-0.284,0.408l-0.011,0.018c-0.12,0.191-0.335,0.286-0.545,0.266l-0.83-0.084l-0.413-0.005
				c-0.138,0-0.278-0.012-0.412,0.008l-0.409,0.04c-0.139,0.005-0.267,0.05-0.401,0.073c-0.132,0.031-0.27,0.047-0.395,0.097
				l-0.386,0.127l-0.367,0.17c-0.127,0.05-0.233,0.134-0.352,0.199c-0.23,0.141-0.447,0.305-0.643,0.491
				c-0.104,0.087-0.193,0.19-0.285,0.29c-0.096,0.097-0.171,0.211-0.258,0.315c-0.075,0.112-0.156,0.223-0.221,0.34
				c-0.069,0.112-0.132,0.244-0.175,0.341l-0.006,0.014c-0.058,0.131-0.182,0.213-0.316,0.224l-0.519,0.04
				c-0.086,0.008-0.174,0.009-0.26,0.022l-0.254,0.059c-0.168,0.045-0.344,0.066-0.507,0.128l-0.49,0.19
				c-0.165,0.062-0.311,0.164-0.469,0.242c-0.16,0.077-0.309,0.173-0.452,0.28c-0.142,0.107-0.301,0.193-0.431,0.318l-0.408,0.353
				l-0.378,0.39c-0.13,0.127-0.236,0.276-0.355,0.413c-0.12,0.137-0.226,0.286-0.333,0.434c-0.11,0.146-0.214,0.296-0.311,0.452
				c-0.201,0.306-0.386,0.624-0.557,0.95c-0.172,0.325-0.331,0.659-0.464,1.002c-0.011,0.029-0.043,0.044-0.072,0.033
				C280.236,397.898,280.221,397.868,280.229,397.84z"/>
		</g>
		<g id="XMLID_129_">
			<g id="XMLID_220_">
				<g>
					<path id="XMLID_110_" fill="#2F5C75" stroke="#48646E" stroke-miterlimit="10" d="M43.893,413.062v-10.996H42.43v10.996h-2.125
						v-10.996h-1.463v10.996h-2.125v-10.996h-1.463v10.996h-2.09v-7.348c0-1.229-0.239-2.448-0.704-3.592l-0.023-0.056h-1.816
						l0.306,0.777c0.465,1.181,0.704,2.439,0.704,3.709v15.873c0,1.794,1.454,3.248,3.248,3.248h1.577h9.737v-1.44v-11.172H43.893z"/>
					<path id="XMLID_109_" fill="#D6B250" stroke="#A28231" stroke-miterlimit="10" d="M47.123,403.181H30.978
						c-0.429,0-0.777-0.348-0.777-0.777v-0.676c0-0.429,0.348-0.777,0.777-0.777h16.145c0.429,0,0.777,0.348,0.777,0.777v0.676
						C47.899,402.833,47.552,403.181,47.123,403.181z"/>
					<path id="XMLID_106_" fill="#D6B250" stroke="#A28231" stroke-miterlimit="10" d="M47.541,414.177H31.396
						c-0.429,0-0.777-0.348-0.777-0.777v-0.676c0-0.429,0.348-0.777,0.777-0.777h16.145c0.429,0,0.777,0.348,0.777,0.777v0.676
						C48.317,413.829,47.97,414.177,47.541,414.177z"/>
				</g>
			</g>
			<path id="XMLID_219_" fill="#FFFFFF" stroke="#231F20" stroke-width="0.75" stroke-miterlimit="10" d="M32.013,384.819"/>
			<path id="XMLID_218_" fill="#18354A" stroke="#2D5A73" stroke-width="1.2846" stroke-miterlimit="10" d="M416.386,380.567
				c-0.4-2.447-2.798-4.33-5.704-4.33s-5.304,1.883-5.704,4.33h-0.065v16.573h11.538v-16.573H416.386z"/>
			
				<use xlink:href="#New_Symbol_4" width="37.964" height="8.74" id="XMLID_217_" x="-18.982" y="-4.37" transform="matrix(0.5202 0 0 -0.4181 155.2072 423.1956)" overflow="visible"/>
			
				<use xlink:href="#New_Symbol_4" width="37.964" height="8.74" id="XMLID_216_" x="-18.982" y="-4.37" transform="matrix(0.4826 0 0 -0.4181 268.227 423.1956)" overflow="visible"/>
			
				<use xlink:href="#New_Symbol_4" width="37.964" height="8.74" id="XMLID_215_" x="-18.982" y="-4.37" transform="matrix(0.456 0 0 -0.4181 359.0663 423.1956)" overflow="visible"/>
			
				<use xlink:href="#New_Symbol_9" width="110.693" height="77.486" id="XMLID_214_" x="-55.346" y="-38.743" transform="matrix(1 0 0 -1 211.7136 406.2193)" overflow="visible"/>
			
				<use xlink:href="#New_Symbol_9" width="110.693" height="77.486" id="XMLID_35_" x="-55.346" y="-38.743" transform="matrix(1 0 0 -1 97.8347 406.2193)" overflow="visible"/>
			<g id="XMLID_202_">
				<path id="XMLID_212_" fill="#142D3D" stroke="#264B60" stroke-width="1.2846" stroke-miterlimit="10" d="M347.016,434.452
					h-65.747c-0.619,0-1.121-0.502-1.121-1.121v-15.114h67.99v15.114C348.138,433.95,347.636,434.452,347.016,434.452z"/>
				<path id="XMLID_211_" fill="#1C75BC" stroke="#0F5787" stroke-width="1.2846" stroke-miterlimit="10" d="M276.187,393.622
					h39.813c0.798,0,1.544,0.399,1.987,1.063l1.8,2.699l34.699,12.124v15.23c0,0.362-0.294,0.656-0.656,0.656h-79.374
					c-0.362,0-0.656-0.294-0.656-0.656V396.01C273.8,394.691,274.869,393.622,276.187,393.622z"/>
				<path id="XMLID_207_" fill="#D6B250" stroke="#A28231" stroke-miterlimit="10" d="M354.167,413.062h-80.049
					c-0.956,0-1.732-0.775-1.732-1.732v-0.09c0-0.956,0.775-1.732,1.732-1.732h80.049c0.956,0,1.732,0.775,1.732,1.732v0.09
					C355.899,412.287,355.124,413.062,354.167,413.062z"/>
				<g id="XMLID_203_">
					
						<use xlink:href="#New_Symbol" width="85.61" height="85.61" id="XMLID_206_" x="-42.805" y="-42.805" transform="matrix(0.2748 0 0 -0.2748 290.1534 433.2008)" overflow="visible"/>
					
						<use xlink:href="#New_Symbol" width="85.61" height="85.61" id="XMLID_205_" x="-42.805" y="-42.805" transform="matrix(0.2748 0 0 -0.2748 314.143 433.2008)" overflow="visible"/>
					
						<use xlink:href="#New_Symbol" width="85.61" height="85.61" id="XMLID_204_" x="-42.805" y="-42.805" transform="matrix(0.2748 0 0 -0.2748 338.1326 433.2008)" overflow="visible"/>
				</g>
			</g>
			<path id="XMLID_201_" fill="#142D3D" stroke="#264B60" stroke-width="1.2846" stroke-miterlimit="10" d="M438.178,434.452
				h-72.462c-0.619,0-1.121-0.502-1.121-1.121v-15.114h74.704v15.114C439.299,433.95,438.797,434.452,438.178,434.452z"/>
			<path id="XMLID_195_" fill="#12222B" stroke="#4F7180" stroke-miterlimit="10" d="M469.721,441.759l-19.547-22.843h-14.846
				v23.053c0,0.178,0.144,0.322,0.323,0.322h33.826C469.751,442.291,469.9,441.968,469.721,441.759z M463.108,437.101h-5.418
				l-4.947-12.117L463.108,437.101z M449.415,421.787l6.252,15.314h-4.944l-3.068-15.314H449.415z M443.877,421.787h1.755
				l3.068,15.314h-4.823V421.787z M439.299,421.787h2.555v15.314h-2.555V421.787z"/>
			<g id="XMLID_190_">
				<defs>
					<path id="XMLID_191_" d="M427.948,353.004v8.573c0,1.104,0.218,2.196,0.643,3.215l7.719,18.536v7.786h12.333v-7.786
						l7.719-18.536c0.424-1.019,0.643-2.111,0.643-3.215v-8.573C457.003,348.633,427.948,348.633,427.948,353.004z"/>
				</defs>
				<use xlink:href="#XMLID_191_" overflow="visible" fill="#18354A"/>
				<clipPath id="XMLID_72_">
					<use xlink:href="#XMLID_191_" overflow="visible"/>
				</clipPath>
				<g id="XMLID_192_" clip-path="url(#XMLID_72_)">
					<path id="XMLID_194_" fill="#31566B" stroke="#F9D668" stroke-width="1.2846" stroke-miterlimit="10" d="M456.904,362.654
						c0-0.838-6.453-1.517-14.413-1.517c-7.076,0-12.96,0.537-14.181,1.244c-0.339,0.196-0.734,0.273-1.126,0.273h-4.357v-15.646
						h38.462v15.646H456.904z"/>
					<path id="XMLID_193_" fill="#18354A" stroke="#2D5A73" stroke-width="1.2849" stroke-miterlimit="10" d="M449.16,383.463
						c-0.295-0.002-0.576-0.094-0.84-0.224c-0.711-0.351-3.079-0.609-5.89-0.609c-3.373,0-6.108,0.371-6.108,0.829h-3.775v11.627
						h19.858v-11.601L449.16,383.463z"/>
				</g>
				
					<use xlink:href="#XMLID_191_" overflow="visible" fill="none" stroke="#35667C" stroke-width="1.2849" stroke-miterlimit="10"/>
			</g>
			<g id="XMLID_181_">
				<path id="XMLID_189_" fill="#416972" stroke="#617F89" stroke-miterlimit="10" d="M454.961,414.682h-8.319v-18.395h8.319
					C457.769,396.287,457.769,414.682,454.961,414.682z"/>
				<g id="XMLID_182_">
					<defs>
						<path id="XMLID_183_" d="M392.058,420.013h58.935c4.556,0,4.556-29.056,0-29.056h-58.935V420.013z"/>
					</defs>
					<use xlink:href="#XMLID_183_" overflow="visible" fill="#18354A"/>
					<clipPath id="XMLID_73_">
						<use xlink:href="#XMLID_183_" overflow="visible"/>
					</clipPath>
					
						<rect id="XMLID_184_" x="435.851" y="386.724" clip-path="url(#XMLID_73_)" fill="#2F5C75" stroke="#48646E" stroke-miterlimit="10" width="25.714" height="42.434"/>
					
						<use xlink:href="#XMLID_183_" overflow="visible" fill="none" stroke="#2D5A73" stroke-width="1.2846" stroke-miterlimit="10"/>
				</g>
			</g>
			<g id="XMLID_173_">
				<path id="XMLID_179_" fill="#1C75BC" stroke="#0F5787" stroke-width="1.2846" stroke-miterlimit="10" d="M360.625,376.691
					v43.322h31.564v-43.322H360.625z"/>
				<path id="XMLID_178_" fill="#16698E" stroke="#0F5787" stroke-width="1.2846" stroke-miterlimit="10" d="M395.847,378.154
					h-38.88v-3.135c0-2.787,38.88-2.787,38.88,0V378.154z"/>
			</g>
			<path id="XMLID_168_" fill="#D6B250" stroke="#A28231" stroke-miterlimit="10" d="M435.407,413.062h-73.863
				c-0.956,0-1.732-0.775-1.732-1.732v-0.09c0-0.956,0.775-1.732,1.732-1.732h73.863c0.956,0,1.732,0.775,1.732,1.732v0.09
				C437.139,412.287,436.364,413.062,435.407,413.062z"/>
			
				<use xlink:href="#New_Symbol" width="85.61" height="85.61" id="XMLID_167_" x="-42.805" y="-42.805" transform="matrix(0.4181 0 0 -0.4181 379.4638 427.0668)" overflow="visible"/>
			
				<use xlink:href="#New_Symbol" width="85.61" height="85.61" id="XMLID_166_" x="-42.805" y="-42.805" transform="matrix(0.4181 0 0 -0.4181 415.6265 427.0668)" overflow="visible"/>
			
				<use xlink:href="#New_Symbol_1" width="43.833" height="53.767" id="XMLID_165_" x="-21.916" y="-27.026" transform="matrix(0.4181 0 0 -0.4181 376.4067 393.6216)" overflow="visible"/>
			
				<line id="XMLID_164_" fill="#18354A" stroke="#2D5A73" stroke-width="1.3576" stroke-linecap="round" stroke-linejoin="round" stroke-miterlimit="10" x1="404.239" y1="388.327" x2="417.125" y2="388.327"/>
			
				<line id="XMLID_163_" fill="#18354A" stroke="#2D5A73" stroke-width="1.3576" stroke-linecap="round" stroke-linejoin="round" stroke-miterlimit="10" x1="404.239" y1="380.359" x2="417.125" y2="380.359"/>
			<polygon id="XMLID_162_" fill="#46839E" stroke="#405960" stroke-miterlimit="10" points="415.626,428.515 439.471,419.488 
				438.276,417.187 414.432,426.213 			"/>
			<g id="XMLID_159_">
				<defs>
					<path id="XMLID_160_" d="M448.7,423.196h-14.187c-0.369,0-0.669-0.3-0.669-0.669v-12.349c0-0.37,0.3-0.669,0.669-0.669H448.7
						C450.445,409.509,450.445,423.196,448.7,423.196z"/>
				</defs>
				<use xlink:href="#XMLID_160_" overflow="visible" fill="#18354A"/>
				<clipPath id="XMLID_74_">
					<use xlink:href="#XMLID_160_" overflow="visible"/>
				</clipPath>
				
					<path id="XMLID_161_" clip-path="url(#XMLID_74_)" fill="#18354A" stroke="#F9D668" stroke-width="1.2846" stroke-miterlimit="10" d="
					M446.073,423.196h-14.856v-13.688h14.856C447.818,409.509,447.818,423.196,446.073,423.196z"/>
				
					<use xlink:href="#XMLID_160_" overflow="visible" fill="none" stroke="#2D5A73" stroke-width="1.2846" stroke-miterlimit="10"/>
			</g>
			
				<rect id="XMLID_158_" x="379.464" y="425.914" fill="#46839E" stroke="#405960" stroke-miterlimit="10" width="36.163" height="2.307"/>
			<circle id="XMLID_157_" fill="#63A9C1" stroke="#3E575E" stroke-miterlimit="10" cx="379.464" cy="427.067" r="1.982"/>
			<circle id="XMLID_156_" fill="#63A9C1" stroke="#3E575E" stroke-miterlimit="10" cx="415.626" cy="427.067" r="1.982"/>
			<path id="XMLID_130_" fill="#D6B250" stroke="#A28231" stroke-miterlimit="10" d="M436.106,399.466h-44.194
				c-0.429,0-0.777-0.348-0.777-0.777v-0.676c0-0.429,0.348-0.777,0.777-0.777h44.194c0.429,0,0.777,0.348,0.777,0.777v0.676
				C436.883,399.119,436.535,399.466,436.106,399.466z"/>
		</g>
		<g id="XMLID_17_">
			
				<line id="XMLID_96_" fill="none" stroke="#414042" stroke-width="3" stroke-linecap="round" stroke-linejoin="round" stroke-miterlimit="10" x1="9.206" y1="444.963" x2="490.794" y2="444.963"/>
			<g id="XMLID_18_">
				
					<use xlink:href="#New_Symbol_5" width="208.095" height="15.682" id="XMLID_95_" x="-104.047" y="-7.841" transform="matrix(0.4181 0 0 -0.2328 58.3531 445.8626)" overflow="visible"/>
				
					<use xlink:href="#New_Symbol_5" width="208.095" height="15.682" id="XMLID_43_" x="-104.047" y="-7.841" transform="matrix(0.4181 0 0 -0.2328 154.1765 445.8626)" overflow="visible"/>
				
					<use xlink:href="#New_Symbol_5" width="208.095" height="15.682" id="XMLID_42_" x="-104.047" y="-7.841" transform="matrix(0.4181 0 0 -0.2328 250 445.8626)" overflow="visible"/>
				
					<use xlink:href="#New_Symbol_5" width="208.095" height="15.682" id="XMLID_41_" x="-104.047" y="-7.841" transform="matrix(0.4181 0 0 -0.2328 345.8235 445.8626)" overflow="visible"/>
				
					<use xlink:href="#New_Symbol_5" width="208.095" height="15.682" id="XMLID_19_" x="-104.047" y="-7.841" transform="matrix(0.4181 0 0 -0.2328 441.647 445.8626)" overflow="visible"/>
			</g>
		</g>
	</g>
	<g id="XMLID_137_">
		<path id="XMLID_143_" fill="#393444" stroke="#736F80" stroke-width="0.9965" stroke-linejoin="round" stroke-miterlimit="10" d="
			M223.23,251.166c0,0-0.623-5.633-5.009-6.343c0,0-0.451-3.524-5.288-3.585c0,0-1.557-4.738-6.75-4.658c0,0-4.919-4.371-13.665,0
			c0,0-6.832-3.242-12.298,0c0,0-7.106-1.548-10.385,3.218c0,0-5.087-1.043-6.643,3.104c0,0-5.109,1.295-6.749,6.221
			c0,0-3.419-0.216-3.759,4.727c0,0-3.076,1.536-1.978,4.166c0,0-4.101,2.142-1.368,5.412h73.892V251.166z"/>
		<path id="XMLID_142_" fill="#736F80" d="M162.526,247.845c-0.288-0.021-0.573,0.011-0.855,0.066
			c-0.279,0.067-0.56,0.15-0.815,0.29c-0.134,0.059-0.256,0.139-0.377,0.22c-0.127,0.075-0.238,0.17-0.349,0.266
			c-0.117,0.091-0.221,0.194-0.316,0.306c-0.097,0.11-0.205,0.214-0.282,0.339l-0.251,0.364l-0.204,0.39
			c-0.146,0.258-0.219,0.541-0.328,0.813c-0.076,0.28-0.147,0.562-0.211,0.846l-0.128,0.858l0.196-0.294
			c-0.224,0.108-0.408,0.219-0.601,0.345c-0.19,0.125-0.374,0.259-0.548,0.409c-0.177,0.146-0.344,0.308-0.499,0.484
			c-0.075,0.091-0.16,0.173-0.225,0.274c-0.068,0.098-0.14,0.194-0.205,0.296l-0.176,0.322c-0.055,0.11-0.093,0.23-0.139,0.346
			c-0.051,0.115-0.072,0.24-0.099,0.364c-0.026,0.124-0.057,0.248-0.058,0.376c-0.007,0.127-0.016,0.255-0.018,0.383l0.042,0.377
			c0.022,0.256,0.119,0.484,0.185,0.726l0.26-0.718c-0.159,0.079-0.277,0.151-0.408,0.234c-0.123,0.085-0.253,0.163-0.369,0.258
			c-0.237,0.185-0.468,0.38-0.669,0.612c-0.105,0.11-0.206,0.226-0.294,0.355c-0.094,0.123-0.181,0.251-0.256,0.391
			c-0.079,0.136-0.159,0.27-0.214,0.423c-0.057,0.15-0.129,0.291-0.154,0.454c-0.029,0.16-0.078,0.313-0.085,0.474
			c-0.006,0.162-0.011,0.323-0.008,0.481l0.087,0.466c0.018,0.157,0.101,0.292,0.155,0.434c0.061,0.14,0.114,0.281,0.206,0.4
			l0.253,0.361c0.08,0.121,0.199,0.211,0.296,0.314c0.101,0.101,0.208,0.195,0.31,0.29c0.023,0.021,0.058,0.02,0.079-0.003
			c0.016-0.017,0.019-0.042,0.01-0.062l-0.003-0.007l-0.173-0.376c-0.054-0.124-0.127-0.237-0.165-0.364l-0.12-0.372
			c-0.052-0.118-0.061-0.246-0.08-0.368c-0.009-0.124-0.057-0.24-0.041-0.361l0.008-0.352c0.029-0.114,0.05-0.226,0.07-0.337
			c0.021-0.111,0.08-0.215,0.115-0.321c0.03-0.108,0.108-0.203,0.156-0.305c0.047-0.103,0.122-0.197,0.191-0.291
			c0.064-0.097,0.142-0.187,0.226-0.273c0.077-0.09,0.157-0.179,0.249-0.26c0.171-0.169,0.361-0.33,0.558-0.479
			c0.096-0.078,0.198-0.148,0.298-0.222l0.294-0.193c0.241-0.158,0.339-0.451,0.262-0.713l-0.002-0.006
			c-0.049-0.165-0.145-0.326-0.173-0.494l-0.058-0.252l-0.013-0.254c-0.013-0.086,0.005-0.17,0.015-0.255
			c0.011-0.085,0.014-0.172,0.046-0.255c0.027-0.083,0.043-0.17,0.076-0.253l0.109-0.248c0.042-0.081,0.094-0.159,0.14-0.239
			c0.043-0.082,0.11-0.153,0.163-0.231c0.114-0.151,0.243-0.297,0.384-0.432c0.137-0.139,0.289-0.267,0.446-0.387
			c0.153-0.119,0.328-0.239,0.481-0.327l0.018-0.01c0.106-0.061,0.169-0.171,0.178-0.284l0.061-0.805
			c0.041-0.264,0.087-0.528,0.137-0.791c0.083-0.25,0.128-0.52,0.236-0.76l0.15-0.369l0.194-0.345
			c0.059-0.121,0.146-0.219,0.224-0.326c0.075-0.11,0.16-0.211,0.257-0.301c0.092-0.096,0.183-0.193,0.292-0.27
			c0.103-0.084,0.207-0.168,0.325-0.233c0.222-0.151,0.474-0.251,0.728-0.344c0.258-0.081,0.528-0.141,0.799-0.15
			c0.031,0,0.056-0.025,0.056-0.056C162.578,247.873,162.554,247.849,162.526,247.845z"/>
		<path id="XMLID_141_" fill="#736F80" d="M172.403,248.959c-0.518-0.009-1.038,0.082-1.528,0.27
			c-0.245,0.093-0.481,0.212-0.709,0.348l-0.329,0.225l-0.303,0.261c-0.105,0.084-0.184,0.194-0.277,0.29
			c-0.094,0.097-0.178,0.201-0.251,0.314c-0.075,0.111-0.158,0.219-0.226,0.334l-0.184,0.358c-0.132,0.236-0.196,0.496-0.297,0.745
			c-0.075,0.255-0.13,0.515-0.195,0.775l0.191-0.247c-0.197,0.08-0.367,0.165-0.545,0.257c-0.175,0.093-0.346,0.194-0.514,0.302
			c-0.168,0.109-0.33,0.229-0.489,0.357c-0.155,0.134-0.311,0.27-0.451,0.431c-0.074,0.075-0.142,0.157-0.204,0.249
			c-0.062,0.09-0.134,0.171-0.182,0.275c-0.051,0.101-0.11,0.197-0.152,0.304l-0.11,0.334c-0.026,0.115-0.035,0.236-0.051,0.356
			c-0.023,0.12,0.002,0.239,0.008,0.359c0.009,0.121,0.021,0.242,0.063,0.35l0.107,0.336l0.254-0.673
			c-0.135,0.057-0.242,0.113-0.359,0.173c-0.115,0.059-0.225,0.123-0.335,0.19c-0.218,0.135-0.429,0.285-0.629,0.45
			c-0.203,0.164-0.387,0.355-0.565,0.554c-0.086,0.103-0.166,0.215-0.248,0.323c-0.083,0.106-0.139,0.242-0.207,0.361
			c-0.072,0.116-0.107,0.263-0.155,0.395c-0.055,0.13-0.068,0.279-0.08,0.423c-0.006,0.072-0.015,0.143-0.016,0.214l0.028,0.215
			c0.018,0.143,0.037,0.283,0.104,0.407c0.059,0.125,0.1,0.258,0.175,0.367l0.24,0.311c0.071,0.108,0.183,0.178,0.276,0.261
			c0.095,0.081,0.196,0.156,0.291,0.231c0.022,0.017,0.053,0.013,0.07-0.008c0.013-0.016,0.014-0.038,0.004-0.055l-0.004-0.007
			l-0.176-0.313c-0.055-0.103-0.128-0.195-0.159-0.305l-0.117-0.311c-0.037-0.101-0.036-0.21-0.056-0.309
			c-0.027-0.1-0.009-0.201-0.002-0.297l0.009-0.143c0.012-0.047,0.031-0.093,0.045-0.138c0.031-0.091,0.05-0.181,0.105-0.265
			c0.051-0.085,0.078-0.173,0.15-0.251c0.066-0.079,0.115-0.161,0.189-0.236c0.073-0.075,0.14-0.152,0.215-0.224l0.242-0.208
			l0.259-0.196c0.179-0.125,0.362-0.246,0.55-0.364l0.286-0.168l0.28-0.152l0.01-0.005c0.241-0.13,0.342-0.419,0.244-0.668
			l-0.077-0.197c-0.035-0.066-0.045-0.132-0.056-0.198c-0.009-0.066-0.04-0.134-0.028-0.201c0.004-0.067-0.002-0.136,0.005-0.205
			l0.046-0.208c0.02-0.07,0.057-0.137,0.083-0.208c0.022-0.072,0.074-0.136,0.112-0.205c0.037-0.069,0.083-0.136,0.137-0.2
			c0.095-0.134,0.217-0.254,0.337-0.376c0.126-0.118,0.258-0.232,0.399-0.338c0.141-0.106,0.287-0.207,0.438-0.303
			c0.149-0.092,0.311-0.187,0.458-0.259l0.008-0.004c0.099-0.049,0.165-0.142,0.184-0.243c0.043-0.237,0.075-0.479,0.126-0.715
			c0.075-0.227,0.115-0.472,0.218-0.688l0.14-0.332c0.054-0.107,0.117-0.208,0.175-0.314c0.055-0.108,0.122-0.207,0.197-0.301
			c0.075-0.093,0.136-0.2,0.223-0.284l0.251-0.262l0.281-0.232c0.197-0.143,0.404-0.275,0.626-0.383
			c0.442-0.216,0.929-0.363,1.426-0.407l0.003,0c0.027-0.002,0.047-0.027,0.045-0.054
			C172.45,248.979,172.428,248.96,172.403,248.959z"/>
		<path id="XMLID_140_" fill="#736F80" d="M191.277,240.657c-0.846-0.501-1.756-0.885-2.694-1.185
			c-0.233-0.08-0.475-0.134-0.712-0.202c-0.237-0.072-0.482-0.107-0.724-0.161c-0.242-0.056-0.487-0.088-0.734-0.117
			c-0.246-0.031-0.493-0.07-0.742-0.073c-0.249-0.008-0.498-0.03-0.748-0.027l-0.75,0.035c-0.251,0.006-0.497,0.067-0.746,0.099
			c-0.25,0.034-0.498,0.077-0.739,0.153l-0.73,0.202l-0.704,0.283c-0.24,0.085-0.463,0.204-0.682,0.331l-0.665,0.369l0.392-0.013
			c-0.174-0.1-0.329-0.176-0.496-0.253c-0.164-0.075-0.33-0.146-0.499-0.208c-0.336-0.13-0.683-0.232-1.034-0.319
			c-0.175-0.045-0.356-0.07-0.534-0.106c-0.178-0.037-0.362-0.044-0.543-0.067c-0.181-0.026-0.366-0.021-0.549-0.026
			c-0.184-0.008-0.368-0.004-0.553,0.017c-0.184,0.021-0.371,0.017-0.553,0.063l-0.549,0.11l-0.534,0.172
			c-0.182,0.05-0.349,0.135-0.519,0.215c-0.166,0.085-0.346,0.151-0.502,0.254l-0.471,0.306c-0.162,0.097-0.295,0.228-0.437,0.348
			l-0.42,0.369l0.439-0.171c-0.252-0.011-0.464-0.012-0.691-0.004c-0.223,0.009-0.444,0.029-0.665,0.05
			c-0.442,0.041-0.876,0.124-1.309,0.211l-0.642,0.161l-0.632,0.195c-0.416,0.145-0.83,0.297-1.226,0.492
			c-0.404,0.173-0.784,0.4-1.164,0.617l-0.546,0.367c-0.186,0.115-0.353,0.259-0.522,0.397c-0.167,0.141-0.342,0.27-0.5,0.42
			l-0.459,0.464c-0.308,0.302-0.563,0.658-0.83,0.99c-0.019,0.024-0.015,0.059,0.009,0.079c0.021,0.017,0.05,0.016,0.07,0
			l0.004-0.003c0.168-0.132,0.339-0.258,0.501-0.392c0.162-0.133,0.322-0.268,0.501-0.379l0.519-0.35
			c0.172-0.116,0.357-0.213,0.534-0.32c0.35-0.219,0.731-0.384,1.094-0.573c0.383-0.151,0.75-0.33,1.142-0.453
			c0.193-0.066,0.383-0.14,0.582-0.189c0.197-0.054,0.389-0.12,0.587-0.169l0.594-0.141l0.6-0.111
			c0.401-0.069,0.804-0.117,1.206-0.158c0.201-0.017,0.403-0.035,0.603-0.041c0.196-0.013,0.408-0.019,0.58-0.017
			c0.169,0.001,0.325-0.065,0.439-0.171l0.345-0.321c0.116-0.106,0.224-0.223,0.356-0.305l0.377-0.278
			c0.124-0.097,0.269-0.155,0.402-0.235c0.136-0.076,0.27-0.158,0.419-0.206l0.436-0.17l0.456-0.115
			c0.15-0.048,0.311-0.05,0.466-0.077c0.156-0.027,0.314-0.04,0.474-0.04c0.159-0.004,0.319-0.018,0.479-0.001
			c0.16,0.014,0.321,0.01,0.481,0.037c0.159,0.025,0.321,0.039,0.479,0.073c0.318,0.063,0.635,0.141,0.944,0.245
			c0.156,0.049,0.308,0.107,0.459,0.167c0.148,0.06,0.304,0.13,0.431,0.195l0.004,0.002c0.128,0.065,0.275,0.054,0.389-0.015
			l0.599-0.367c0.197-0.128,0.399-0.247,0.618-0.335l0.641-0.293l0.671-0.218c0.222-0.082,0.452-0.132,0.685-0.174
			c0.232-0.041,0.461-0.107,0.698-0.128l0.708-0.075c0.237-0.017,0.476-0.01,0.714-0.017c0.239-0.012,0.477,0.011,0.716,0.027
			c0.239,0.014,0.479,0.031,0.716,0.071c0.237,0.038,0.478,0.057,0.712,0.114c0.235,0.053,0.474,0.09,0.706,0.155
			c0.934,0.238,1.856,0.564,2.716,1.007c0.027,0.015,0.061,0.005,0.076-0.021C191.312,240.707,191.302,240.673,191.277,240.657z"/>
		<path id="XMLID_139_" fill="#736F80" d="M219.018,253.312c-0.118-0.275-0.272-0.531-0.438-0.778
			c-0.171-0.243-0.345-0.486-0.55-0.703c-0.193-0.229-0.409-0.434-0.629-0.636c-0.212-0.213-0.463-0.376-0.694-0.568
			c-0.239-0.18-0.499-0.329-0.749-0.495c-0.255-0.158-0.529-0.281-0.794-0.423c-0.262-0.151-0.551-0.234-0.827-0.354l-0.419-0.166
			l-0.432-0.124c-0.289-0.077-0.576-0.176-0.869-0.235l-0.884-0.167c-0.294-0.066-0.593-0.088-0.891-0.118l-0.895-0.088
			c-0.299-0.013-0.597-0.012-0.897-0.019c-0.299-0.003-0.599-0.015-0.898-0.009l-1.79,0.105l0.406,0.151
			c-0.196-0.217-0.378-0.402-0.576-0.59c-0.194-0.186-0.393-0.367-0.596-0.542c-0.404-0.353-0.832-0.679-1.277-0.981l-0.681-0.433
			c-0.229-0.141-0.475-0.254-0.712-0.382c-0.234-0.134-0.492-0.221-0.739-0.331l-0.373-0.156l-0.387-0.123
			c-0.26-0.076-0.51-0.177-0.776-0.231c-0.263-0.063-0.527-0.119-0.79-0.174c-0.266-0.046-0.536-0.07-0.802-0.105
			c-0.133-0.016-0.267-0.031-0.401-0.042l-0.404-0.004c-0.269,0.001-0.536-0.012-0.802,0.006c-0.267,0.031-0.532,0.056-0.795,0.092
			c-0.264,0.025-0.523,0.089-0.78,0.156c-0.257,0.061-0.511,0.13-0.762,0.202c-0.03,0.008-0.047,0.039-0.038,0.069
			c0.007,0.024,0.029,0.04,0.053,0.041l0.006,0c0.263,0.004,0.522,0.005,0.778-0.002c0.256-0.008,0.511-0.013,0.766,0.021
			l0.758,0.054c0.251,0.031,0.499,0.079,0.747,0.114l0.371,0.057l0.365,0.09c0.243,0.061,0.487,0.109,0.726,0.178
			c0.237,0.08,0.473,0.158,0.71,0.231c0.239,0.066,0.464,0.18,0.695,0.266c0.232,0.088,0.459,0.188,0.681,0.298
			c0.223,0.108,0.452,0.204,0.669,0.327c0.441,0.228,0.875,0.471,1.302,0.729c0.419,0.27,0.838,0.542,1.238,0.843
			c0.2,0.15,0.398,0.302,0.587,0.465c0.188,0.158,0.38,0.332,0.541,0.491l0.017,0.017c0.106,0.104,0.251,0.149,0.389,0.134
			l1.718-0.195c0.287-0.02,0.574-0.022,0.862-0.034c0.288-0.008,0.576-0.024,0.864-0.026l0.861,0.042
			c0.287,0.014,0.576,0.02,0.859,0.069l0.854,0.116c0.284,0.042,0.559,0.123,0.84,0.183l0.42,0.097l0.409,0.132
			c0.269,0.097,0.555,0.158,0.812,0.285c0.26,0.119,0.532,0.218,0.786,0.353c0.248,0.143,0.509,0.269,0.75,0.426
			c0.232,0.168,0.487,0.31,0.704,0.5c0.225,0.18,0.448,0.364,0.649,0.573c0.213,0.197,0.397,0.421,0.579,0.645
			c0.178,0.229,0.343,0.467,0.475,0.724c0.013,0.028,0.047,0.04,0.075,0.026C219.017,253.372,219.028,253.339,219.018,253.312z"/>
		<path id="XMLID_138_" fill="#736F80" d="M219.771,250.89c-0.107-0.359-0.24-0.709-0.388-1.053
			c-0.145-0.345-0.311-0.682-0.495-1.009c-0.088-0.166-0.184-0.328-0.287-0.486c-0.1-0.16-0.198-0.321-0.313-0.471
			c-0.114-0.151-0.214-0.312-0.34-0.455l-0.368-0.436l-0.407-0.404c-0.13-0.142-0.293-0.248-0.439-0.373
			c-0.147-0.126-0.302-0.241-0.471-0.338c-0.167-0.099-0.324-0.216-0.503-0.296l-0.536-0.241c-0.18-0.079-0.374-0.116-0.562-0.176
			l-0.285-0.081c-0.096-0.02-0.195-0.028-0.292-0.042l-0.588-0.076l0.322,0.238c-0.064-0.179-0.125-0.316-0.202-0.462
			c-0.071-0.146-0.158-0.28-0.241-0.418c-0.095-0.129-0.177-0.268-0.283-0.388c-0.102-0.124-0.202-0.25-0.318-0.361
			c-0.221-0.233-0.469-0.443-0.733-0.626c-0.136-0.086-0.262-0.191-0.407-0.261l-0.428-0.226l-0.447-0.18
			c-0.148-0.067-0.305-0.098-0.458-0.144c-0.155-0.038-0.308-0.097-0.466-0.115l-0.472-0.077c-0.158-0.033-0.315-0.034-0.473-0.046
			l-0.475-0.029c-0.314,0.004-0.628,0.02-0.942,0.039l0.556,0.283c-0.115-0.202-0.217-0.36-0.334-0.528
			c-0.114-0.165-0.232-0.326-0.36-0.48c-0.254-0.308-0.53-0.596-0.825-0.864l-0.459-0.384c-0.158-0.121-0.327-0.23-0.49-0.345
			c-0.161-0.118-0.343-0.206-0.513-0.309c-0.169-0.106-0.352-0.187-0.536-0.266c-0.184-0.079-0.362-0.167-0.555-0.222
			c-0.19-0.061-0.378-0.126-0.569-0.179l-0.584-0.112c-0.192-0.046-0.391-0.051-0.587-0.063c-0.197-0.005-0.39-0.035-0.586-0.019
			l-0.581,0.048c-0.193,0.007-0.381,0.058-0.569,0.095c-0.188,0.037-0.373,0.086-0.557,0.13c-0.03,0.007-0.049,0.037-0.042,0.067
			c0.006,0.025,0.027,0.042,0.051,0.043l0.007,0c0.189,0.01,0.377,0.026,0.561,0.03c0.185,0.008,0.368,0.003,0.55,0.04l0.541,0.081
			c0.179,0.018,0.353,0.082,0.527,0.119c0.173,0.047,0.348,0.077,0.514,0.146l0.5,0.178l0.479,0.224
			c0.162,0.066,0.31,0.165,0.461,0.252c0.152,0.088,0.302,0.175,0.443,0.279c0.141,0.104,0.293,0.189,0.425,0.305
			c0.275,0.216,0.534,0.451,0.788,0.691c0.244,0.251,0.488,0.502,0.708,0.774c0.112,0.134,0.224,0.267,0.328,0.407
			c0.103,0.134,0.208,0.288,0.284,0.408l0.011,0.018c0.12,0.191,0.335,0.286,0.545,0.266l0.83-0.084l0.413-0.005
			c0.138,0,0.278-0.012,0.412,0.008l0.409,0.04c0.139,0.005,0.267,0.05,0.401,0.073c0.132,0.031,0.27,0.047,0.395,0.097l0.386,0.127
			l0.367,0.17c0.127,0.05,0.233,0.134,0.352,0.199c0.23,0.141,0.447,0.305,0.643,0.491c0.104,0.087,0.193,0.19,0.285,0.29
			c0.096,0.097,0.171,0.211,0.258,0.315c0.075,0.112,0.156,0.222,0.221,0.34c0.069,0.112,0.132,0.244,0.175,0.341l0.006,0.014
			c0.058,0.131,0.182,0.213,0.316,0.224l0.519,0.04c0.086,0.008,0.174,0.009,0.26,0.022l0.254,0.059
			c0.168,0.045,0.344,0.066,0.507,0.128l0.49,0.19c0.165,0.062,0.311,0.164,0.469,0.242c0.16,0.077,0.309,0.173,0.452,0.28
			c0.142,0.107,0.301,0.193,0.431,0.318l0.408,0.353l0.378,0.39c0.13,0.127,0.236,0.276,0.355,0.413
			c0.12,0.137,0.226,0.286,0.333,0.434c0.11,0.146,0.214,0.296,0.311,0.452c0.201,0.306,0.386,0.624,0.557,0.95
			c0.172,0.325,0.331,0.659,0.464,1.002c0.011,0.029,0.043,0.044,0.072,0.033C219.764,250.948,219.779,250.918,219.771,250.89z"/>
	</g>
	<g id="XMLID_15_">
		<g id="XMLID_128_">
			<g>
				<path id="XMLID_105_" fill="#2F5C75" stroke="#48646E" stroke-miterlimit="10" d="M456.107,266.112v-10.996h1.463v10.996h2.125
					v-10.996h1.463v10.996h2.125v-10.996h1.463v10.996h2.09v-7.348c0-1.229,0.239-2.448,0.704-3.592l0.023-0.056h1.816l-0.306,0.777
					c-0.465,1.181-0.704,2.439-0.704,3.709v15.873c0,1.794-1.454,3.248-3.248,3.248h-1.577h-9.737v-1.44v-11.172H456.107z"/>
				<path id="XMLID_104_" fill="#D6B250" stroke="#A28231" stroke-miterlimit="10" d="M452.878,256.231h16.145
					c0.429,0,0.777-0.348,0.777-0.777v-0.676c0-0.429-0.348-0.777-0.777-0.777h-16.145c-0.429,0-0.777,0.348-0.777,0.777v0.676
					C452.101,255.883,452.449,256.231,452.878,256.231z"/>
				<path id="XMLID_103_" fill="#D6B250" stroke="#A28231" stroke-miterlimit="10" d="M452.46,267.227h16.145
					c0.429,0,0.777-0.348,0.777-0.777v-0.676c0-0.429-0.348-0.777-0.777-0.777H452.46c-0.429,0-0.777,0.348-0.777,0.777v0.676
					C451.683,266.879,452.031,267.227,452.46,267.227z"/>
			</g>
		</g>
		<path id="XMLID_127_" fill="#FFFFFF" stroke="#231F20" stroke-width="0.75" stroke-miterlimit="10" d="M467.987,237.868"/>
		<path id="XMLID_126_" fill="#18354A" stroke="#2D5A73" stroke-width="1.2846" stroke-miterlimit="10" d="M83.614,233.617
			c0.4-2.447,2.798-4.33,5.704-4.33s5.304,1.883,5.704,4.33h0.065v16.573H83.549v-16.573H83.614z"/>
		
			<use xlink:href="#New_Symbol_4" width="37.964" height="8.74" id="XMLID_125_" x="-18.982" y="-4.37" transform="matrix(-0.5202 0 0 -0.4181 344.7929 276.2458)" overflow="visible"/>
		
			<use xlink:href="#New_Symbol_4" width="37.964" height="8.74" id="XMLID_124_" x="-18.982" y="-4.37" transform="matrix(-0.4826 0 0 -0.4181 231.7731 276.2458)" overflow="visible"/>
		
			<use xlink:href="#New_Symbol_4" width="37.964" height="8.74" id="XMLID_117_" x="-18.982" y="-4.37" transform="matrix(-0.456 0 0 -0.4181 140.9339 276.2458)" overflow="visible"/>
		
			<use xlink:href="#New_Symbol_8" width="110.693" height="80.244" id="XMLID_34_" x="-55.346" y="-40.122" transform="matrix(1 0 0 -1 288.2864 260.6494)" overflow="visible"/>
		
			<use xlink:href="#New_Symbol_8" width="110.693" height="80.244" id="XMLID_37_" x="-55.346" y="-40.122" transform="matrix(1 0 0 -1 402.165 260.6494)" overflow="visible"/>
		<g id="XMLID_89_">
			<path id="XMLID_107_" fill="#142D3D" stroke="#264B60" stroke-width="1.2846" stroke-miterlimit="10" d="M152.984,287.502h65.747
				c0.619,0,1.121-0.502,1.121-1.121v-15.114h-67.99v15.114C151.862,287,152.365,287.502,152.984,287.502z"/>
			<path id="XMLID_98_" fill="#117744" stroke="#08512B" stroke-width="1.2846" stroke-miterlimit="10" d="M223.813,246.672H184
				c-0.798,0-1.544,0.399-1.987,1.063l-1.8,2.699l-34.699,12.124v15.23c0,0.362,0.294,0.656,0.656,0.656h79.374
				c0.362,0,0.656-0.294,0.656-0.656V249.06C226.201,247.741,225.132,246.672,223.813,246.672z"/>
			<path id="XMLID_94_" fill="#D6B250" stroke="#A28231" stroke-miterlimit="10" d="M145.833,266.112h80.049
				c0.956,0,1.732-0.775,1.732-1.732v-0.09c0-0.956-0.775-1.732-1.732-1.732h-80.049c-0.956,0-1.732,0.775-1.732,1.732v0.09
				C144.101,265.337,144.877,266.112,145.833,266.112z"/>
			<g id="XMLID_90_">
				
					<use xlink:href="#New_Symbol" width="85.61" height="85.61" id="XMLID_93_" x="-42.805" y="-42.805" transform="matrix(-0.2748 0 0 -0.2748 209.8467 286.251)" overflow="visible"/>
				
					<use xlink:href="#New_Symbol" width="85.61" height="85.61" id="XMLID_92_" x="-42.805" y="-42.805" transform="matrix(-0.2748 0 0 -0.2748 185.8571 286.251)" overflow="visible"/>
				
					<use xlink:href="#New_Symbol" width="85.61" height="85.61" id="XMLID_91_" x="-42.805" y="-42.805" transform="matrix(-0.2748 0 0 -0.2748 161.8676 286.251)" overflow="visible"/>
			</g>
		</g>
		<path id="XMLID_87_" fill="#142D3D" stroke="#264B60" stroke-width="1.2846" stroke-miterlimit="10" d="M61.822,287.502h72.462
			c0.619,0,1.121-0.502,1.121-1.121v-15.114H60.701v15.114C60.701,287,61.203,287.502,61.822,287.502z"/>
		<path id="XMLID_59_" fill="#12222B" stroke="#4F7180" stroke-miterlimit="10" d="M30.524,295.341H64.35
			c0.178,0,0.322-0.144,0.322-0.322v-23.053H49.826l-19.547,22.843C30.1,295.018,30.249,295.341,30.524,295.341z M47.257,278.034
			l-4.947,12.117h-5.418L47.257,278.034z M52.345,274.837l-3.068,15.314h-4.944l6.252-15.314H52.345z M56.123,290.151H51.3
			l3.068-15.314h1.755V290.151z M60.701,290.151h-2.555v-15.314h2.555V290.151z"/>
		<g id="XMLID_53_">
			<defs>
				<path id="XMLID_54_" d="M72.052,206.053l0,8.573c0,1.104-0.218,2.196-0.643,3.215l-7.719,18.536v7.786H51.358v-7.786
					l-7.719-18.536c-0.424-1.019-0.643-2.111-0.643-3.215l0-8.573C42.997,201.682,72.052,201.682,72.052,206.053z"/>
			</defs>
			<use xlink:href="#XMLID_54_" overflow="visible" fill="#18354A"/>
			<clipPath id="XMLID_75_">
				<use xlink:href="#XMLID_54_" overflow="visible"/>
			</clipPath>
			<g id="XMLID_55_" clip-path="url(#XMLID_75_)">
				<path id="XMLID_57_" fill="#31566B" stroke="#F9D668" stroke-width="1.2846" stroke-miterlimit="10" d="M43.097,215.703
					c0-0.838,6.453-1.517,14.413-1.517c7.076,0,12.96,0.537,14.181,1.244c0.339,0.196,0.734,0.273,1.126,0.273h4.357v-15.646H38.712
					v15.646H43.097z"/>
				<path id="XMLID_56_" fill="#18354A" stroke="#2D5A73" stroke-width="1.2849" stroke-miterlimit="10" d="M50.84,236.512
					c0.295-0.002,0.576-0.094,0.84-0.224c0.711-0.351,3.079-0.609,5.89-0.609c3.373,0,6.108,0.371,6.108,0.829h3.775v11.627H47.596
					v-11.601L50.84,236.512z"/>
			</g>
			<use xlink:href="#XMLID_54_" overflow="visible" fill="none" stroke="#35667C" stroke-width="1.2849" stroke-miterlimit="10"/>
		</g>
		<g id="XMLID_48_">
			<path id="XMLID_52_" fill="#416972" stroke="#617F89" stroke-miterlimit="10" d="M45.04,267.732h8.319v-18.395H45.04
				C42.231,249.337,42.231,267.732,45.04,267.732z"/>
			<g id="XMLID_49_">
				<defs>
					<path id="XMLID_50_" d="M107.942,273.062H49.008c-4.556,0-4.556-29.056,0-29.056h58.935V273.062z"/>
				</defs>
				<use xlink:href="#XMLID_50_" overflow="visible" fill="#18354A"/>
				<clipPath id="XMLID_76_">
					<use xlink:href="#XMLID_50_" overflow="visible"/>
				</clipPath>
				
					<rect id="XMLID_51_" x="38.436" y="239.774" clip-path="url(#XMLID_76_)" fill="#2F5C75" stroke="#48646E" stroke-miterlimit="10" width="25.714" height="42.434"/>
				<use xlink:href="#XMLID_50_" overflow="visible" fill="none" stroke="#2D5A73" stroke-width="1.2846" stroke-miterlimit="10"/>
			</g>
		</g>
		<g id="XMLID_44_">
			<path id="XMLID_46_" fill="#117744" stroke="#08512B" stroke-width="1.2846" stroke-miterlimit="10" d="M107.812,229.74v43.322
				h31.564V229.74H107.812z"/>
			<path id="XMLID_45_" fill="#0E6638" stroke="#08512B" stroke-width="1.2846" stroke-miterlimit="10" d="M104.154,231.204h38.88
				v-3.135c0-2.787-38.88-2.787-38.88,0V231.204z"/>
		</g>
		<path id="XMLID_40_" fill="#D6B250" stroke="#A28231" stroke-miterlimit="10" d="M64.593,266.112h73.862
			c0.956,0,1.732-0.775,1.732-1.732v-0.09c0-0.956-0.775-1.732-1.732-1.732H64.593c-0.956,0-1.732,0.775-1.732,1.732v0.09
			C62.861,265.337,63.637,266.112,64.593,266.112z"/>
		
			<use xlink:href="#New_Symbol" width="85.61" height="85.61" id="XMLID_39_" x="-42.805" y="-42.805" transform="matrix(-0.4181 0 0 -0.4181 120.5363 280.1171)" overflow="visible"/>
		
			<use xlink:href="#New_Symbol" width="85.61" height="85.61" id="XMLID_30_" x="-42.805" y="-42.805" transform="matrix(-0.4181 0 0 -0.4181 84.3737 280.1171)" overflow="visible"/>
		
			<use xlink:href="#New_Symbol_1" width="43.833" height="53.767" id="XMLID_29_" x="-21.916" y="-27.026" transform="matrix(-0.4181 0 0 -0.4181 123.5934 246.6718)" overflow="visible"/>
		
			<line id="XMLID_28_" fill="#18354A" stroke="#2D5A73" stroke-width="1.3576" stroke-linecap="round" stroke-linejoin="round" stroke-miterlimit="10" x1="95.761" y1="241.377" x2="82.875" y2="241.377"/>
		
			<line id="XMLID_27_" fill="#18354A" stroke="#2D5A73" stroke-width="1.3576" stroke-linecap="round" stroke-linejoin="round" stroke-miterlimit="10" x1="95.761" y1="233.409" x2="82.875" y2="233.409"/>
		<polygon id="XMLID_26_" fill="#46839E" stroke="#405960" stroke-miterlimit="10" points="84.374,281.564 60.529,272.538 
			61.724,270.237 85.568,279.263 		"/>
		<g id="XMLID_23_">
			<defs>
				<path id="XMLID_24_" d="M51.3,276.246h14.187c0.369,0,0.669-0.3,0.669-0.669v-12.349c0-0.37-0.3-0.669-0.669-0.669H51.3
					C49.555,262.559,49.555,276.246,51.3,276.246z"/>
			</defs>
			<use xlink:href="#XMLID_24_" overflow="visible" fill="#18354A"/>
			<clipPath id="XMLID_77_">
				<use xlink:href="#XMLID_24_" overflow="visible"/>
			</clipPath>
			
				<path id="XMLID_25_" clip-path="url(#XMLID_77_)" fill="#18354A" stroke="#F9D668" stroke-width="1.2846" stroke-miterlimit="10" d="
				M53.927,276.246h14.856v-13.688H53.927C52.182,262.559,52.182,276.246,53.927,276.246z"/>
			<use xlink:href="#XMLID_24_" overflow="visible" fill="none" stroke="#2D5A73" stroke-width="1.2846" stroke-miterlimit="10"/>
		</g>
		
			<rect id="XMLID_22_" x="84.374" y="278.964" fill="#46839E" stroke="#405960" stroke-miterlimit="10" width="36.163" height="2.307"/>
		<circle id="XMLID_21_" fill="#63A9C1" stroke="#3E575E" stroke-miterlimit="10" cx="120.536" cy="280.117" r="1.982"/>
		<circle id="XMLID_20_" fill="#63A9C1" stroke="#3E575E" stroke-miterlimit="10" cx="84.374" cy="280.117" r="1.982"/>
		<path id="XMLID_16_" fill="#D6B250" stroke="#A28231" stroke-miterlimit="10" d="M63.894,252.516h44.194
			c0.429,0,0.777-0.348,0.777-0.777v-0.676c0-0.429-0.348-0.777-0.777-0.777H63.894c-0.429,0-0.777,0.348-0.777,0.777v0.676
			C63.117,252.169,63.465,252.516,63.894,252.516z"/>
	</g>
	<g id="XMLID_4_">
		
			<line id="XMLID_14_" fill="none" stroke="#414042" stroke-width="3" stroke-linecap="round" stroke-linejoin="round" stroke-miterlimit="10" x1="490.794" y1="298.013" x2="9.206" y2="298.013"/>
		<g id="XMLID_8_">
			
				<use xlink:href="#New_Symbol_5" width="208.095" height="15.682" id="XMLID_13_" x="-104.047" y="-7.841" transform="matrix(-0.4181 0 0 -0.2328 441.6471 298.9129)" overflow="visible"/>
			
				<use xlink:href="#New_Symbol_5" width="208.095" height="15.682" id="XMLID_12_" x="-104.047" y="-7.841" transform="matrix(-0.4181 0 0 -0.2328 345.8236 298.9129)" overflow="visible"/>
			
				<use xlink:href="#New_Symbol_5" width="208.095" height="15.682" id="XMLID_11_" x="-104.047" y="-7.841" transform="matrix(-0.4181 0 0 -0.2328 250.0001 298.9129)" overflow="visible"/>
			
				<use xlink:href="#New_Symbol_5" width="208.095" height="15.682" id="XMLID_10_" x="-104.047" y="-7.841" transform="matrix(-0.4181 0 0 -0.2328 154.1766 298.9129)" overflow="visible"/>
			
				<use xlink:href="#New_Symbol_5" width="208.095" height="15.682" id="XMLID_9_" x="-104.047" y="-7.841" transform="matrix(-0.4181 0 0 -0.2328 58.3531 298.9129)" overflow="visible"/>
		</g>
	</g>
</g>
</svg>
