<?xml version="1.0" encoding="utf-8"?>
<!-- Generator: Adobe Illustrator 18.1.1, SVG Export Plug-In . SVG Version: 6.00 Build 0)  -->
<svg version="1.1" id="Layer_1" xmlns="http://www.w3.org/2000/svg" xmlns:xlink="http://www.w3.org/1999/xlink" x="0px" y="0px" width="500px" height="500px" viewBox="0 0 500 500" enable-background="new 0 0 500 500" xml:space="preserve"><clipPath id="SVGID_6_">
				<use xlink:href="#SVGID_5_" overflow="visible"/>
			</clipPath><clipPath id="SVGID_4_">
				<use xlink:href="#SVGID_3_" overflow="visible"/>
			</clipPath><clipPath id="SVGID_2_">
				<use xlink:href="#SVGID_1_" overflow="visible"/>
			</clipPath>
<symbol id="New_Symbol" viewBox="-48.335 -64.332 96.667 128.667">
	<path fill="#C40808" stroke="#840303" stroke-linecap="round" stroke-linejoin="round" stroke-miterlimit="10" d="M28.889-51.029
		c-0.135-7.097-13.071-12.802-28.894-12.802s-28.759,5.705-28.893,12.802l-2.764,27.244l63.144,0L28.889-51.029z"/>
	<path fill="#C40808" stroke="#840303" stroke-linecap="round" stroke-linejoin="round" stroke-miterlimit="10" d="M31.406-44.364
		c-0.147-7.159-14.209-12.914-31.41-12.914s-31.263,5.755-31.409,12.914l-2.857,29.107l68.361,0L31.406-44.364z"/>
	<path fill="#C40808" stroke="#840303" stroke-linecap="round" stroke-linejoin="round" stroke-miterlimit="10" d="M34.626-21.844
		c-0.164-7.371-15.669-13.295-34.631-13.295s-34.466,5.924-34.63,13.295l-3.438,52.072h75.966L34.626-21.844z"/>
	<path fill="#C40808" stroke="#840303" stroke-linecap="round" stroke-linejoin="round" stroke-miterlimit="10" d="M38.553,28.491
		C38.41,22.55,21.148,17.766-0.003,17.766s-38.413,4.784-38.555,10.725l-1.864,11.508h80.709L38.553,28.491z"/>
	<path fill="#C40808" stroke="#840303" stroke-linecap="round" stroke-linejoin="round" stroke-miterlimit="10" d="M41.461,39.361
		c-0.155-6.022-18.718-10.87-41.464-10.87s-41.309,4.849-41.463,10.87l-1.805,8.167h85.715L41.461,39.361z"/>
	<path fill="#C40808" stroke="#840303" stroke-linecap="round" stroke-linejoin="round" stroke-miterlimit="10" d="M43.482,45.29
		C43.319,39.224,23.85,34.34-0.004,34.34s-43.323,4.884-43.485,10.95l-1.745,6.711h90.333L43.482,45.29z"/>
	<path fill="#FFFFFF" stroke="#999999" stroke-miterlimit="10" d="M47.831,52.002c0-6.535-21.416-11.833-47.833-11.833
		s-47.833,5.298-47.833,11.833S-26.42,63.835-0.002,63.835S47.831,58.537,47.831,52.002z"/>
	<g>
		<g>
			<defs>
				<path id="SVGID_1_" d="M41.094,53.534c0-4.216-18.399-7.634-41.096-7.634s-41.096,3.418-41.096,7.634s18.399,7.634,41.096,7.634
					S41.094,57.75,41.094,53.534z"/>
			</defs>
			
			<path clip-path="url(#SVGID_2_)" fill="#E8E6E6" d="M41.094,43.709c0-4.216-18.399-7.634-41.096-7.634
				s-41.096,3.418-41.096,7.634s18.399,7.634,41.096,7.634S41.094,47.925,41.094,43.709z"/>
		</g>
		<g>
			<defs>
				<path id="SVGID_3_" d="M41.094,53.534c0-4.216-18.399-7.634-41.096-7.634s-41.096,3.418-41.096,7.634s18.399,7.634,41.096,7.634
					S41.094,57.75,41.094,53.534z"/>
			</defs>
			<use xlink:href="#SVGID_3_" overflow="visible" fill="#E8E6E6"/>
			
			<path clip-path="url(#SVGID_4_)" fill="#D3D3D3" stroke="#999999" stroke-miterlimit="10" d="M41.094,43.709
				c0-4.216-18.399-7.634-41.096-7.634s-41.096,3.418-41.096,7.634s18.399,7.634,41.096,7.634S41.094,47.925,41.094,43.709z"/>
			<use xlink:href="#SVGID_3_" overflow="visible" fill="none" stroke="#999999" stroke-miterlimit="10"/>
		</g>
		<g>
			<defs>
				<path id="SVGID_5_" d="M41.094,53.534c0-4.216-18.399-7.634-41.096-7.634s-41.096,3.418-41.096,7.634s18.399,7.634,41.096,7.634
					S41.094,57.75,41.094,53.534z"/>
			</defs>
			
			<path clip-path="url(#SVGID_6_)" fill="none" stroke="#999999" stroke-miterlimit="10" d="M41.094,43.709
				c0-4.216-18.399-7.634-41.096-7.634s-41.096,3.418-41.096,7.634s18.399,7.634,41.096,7.634S41.094,47.925,41.094,43.709z"/>
		</g>
	</g>
</symbol>
<use xlink:href="#New_Symbol" width="96.667" height="128.667" id="XMLID_1_" x="-48.335" y="-64.332" transform="matrix(2.7688 0 0 -2.7688 250.0054 250.0045)" overflow="visible"/>
</svg>
