<?xml version="1.0" encoding="utf-8"?>
<!-- Generator: Adobe Illustrator 18.1.1, SVG Export Plug-In . SVG Version: 6.00 Build 0)  -->
<svg version="1.1" id="Layer_1" xmlns="http://www.w3.org/2000/svg" xmlns:xlink="http://www.w3.org/1999/xlink" x="0px" y="0px" viewBox="0 0 500 500" enable-background="new 0 0 500 500" xml:space="preserve"><clipPath id="SVGID_4_">
						<use xlink:href="#SVGID_3_" overflow="visible"/>
					</clipPath><clipPath id="SVGID_2_">
				<use xlink:href="#SVGID_1_" overflow="visible"/>
			</clipPath>
<symbol id="New_Symbol_3" viewBox="-35.1 -21.2 70.2 42.6">
	<g>
		<g>
			<path fill="#5AB140" stroke="#3D7A29" stroke-width="0.5" stroke-miterlimit="10" d="M-24.1-14.9c0,0,0.5,0.8,1.2,1.2
				c0,0,0.3,0.8,0.9,0.9c0,0,0.5,6.2,2,6.6l5.8-3.7l-2.3-6.1c0,0-3.4-0.1-3.6,0.4c0,0-0.8-0.7-1.4-0.9c0,0,0.2,1,0.9,1.6
				c0,0-0.4-0.2-1-0.1c0,0-1.2-0.5-2.2-1.3c0,0-0.3,0.7,0.8,1.6C-23-14.7-23.6-15-24.1-14.9z"/>
			<g>
				<path fill="#3D7A29" d="M-20.9-12.6c0,0,0.3,0.1,0.6,0c0.4-0.1,0.8-0.3,1.2-0.6c0.2-0.2,0.4-0.3,0.5-0.5
					c0.2-0.2,0.3-0.3,0.4-0.5c0.2-0.3,0.3-0.5,0.3-0.5s-0.2,0.1-0.5,0.4c-0.3,0.2-0.7,0.5-1,0.8c-0.2,0.2-0.4,0.3-0.6,0.4
					c-0.2,0.1-0.3,0.2-0.5,0.3C-20.6-12.6-20.9-12.6-20.9-12.6z"/>
			</g>
			<g>
				<path fill="#3D7A29" d="M-19.6-12.6c0,0,0.2,0,0.4-0.1c0.2-0.1,0.5-0.2,0.8-0.3c0.3-0.1,0.6-0.3,0.8-0.4
					c0.2-0.1,0.4-0.2,0.4-0.2s-0.2,0-0.4,0c-0.3,0-0.6,0.1-0.9,0.2c-0.1,0.1-0.3,0.2-0.4,0.2c-0.1,0.1-0.2,0.2-0.3,0.2
					C-19.5-12.8-19.6-12.6-19.6-12.6z"/>
			</g>
			
				<path fill="none" stroke="#3D7A29" stroke-width="0.4" stroke-linecap="round" stroke-linejoin="round" stroke-miterlimit="10" d="
				M-23-14.7c0,0,0.6,0.6,1,0.5c0,0,0.3,0.6,0.6,0.8"/>
			
				<path fill="none" stroke="#3D7A29" stroke-width="0.4" stroke-linecap="round" stroke-linejoin="round" stroke-miterlimit="10" d="
				M-20.6-14.8c0,0,0.5,0.3,0.5,0.7"/>
		</g>
		<g>
			<path fill="#5AB140" stroke="#3D7A29" stroke-width="0.5" stroke-miterlimit="10" d="M-13.2-11.4c0,0-10.7,5-13.7,12
				c0,0-2.9,1.8-4.8,4.5l-1.8,1.8c-0.1,0.1-0.2,0.3-0.2,0.5l0.1,1c-0.6-0.1-1,0-1.2,0.1c0,0-0.1,1.2,0.5,2.4l0.2,0.5
				c0.2,0.4,0.6,0.7,1,0.7c0,0,1.4,0.1,2.7,0c0.4,0,1-0.5,1-0.5h1.4c0.6,0,1.3-0.3,1.6-0.8l0.1-0.2l2.6-1.7c0.5-0.3,0.9-0.7,1.2-1.2
				l0.5-0.8c0.3-0.5,0.5-1,0.5-1.5l0.2-1.3c0,0,1.6-3.8,3.1-6l7.1-1.8l1.5-4L-13.2-11.4z"/>
			<g>
				<path fill="#3D7A29" d="M-33.3,8.4c0-0.3,0.1-0.6,0.2-0.8c0.2-0.3,0.4-0.5,0.7-0.6c0.6-0.3,1.2-0.5,1.9-0.5l0,0
					c0,0,0.1,0,0.1-0.1l0.1-0.6l-0.1,0.1c0.6,0,1.2,0.3,1.5,0.8c-0.3-0.6-0.9-0.9-1.5-0.9c0,0-0.1,0-0.1,0l0,0l-0.1,0.6l0.1-0.1
					c-0.7,0-1.4,0.1-2.1,0.4c-0.3,0.2-0.6,0.4-0.9,0.7c-0.2,0.3-0.4,0.7-0.4,1.1c0,0.1,0.1,0.3,0.3,0.3C-33.4,8.6-33.3,8.5-33.3,8.4
					C-33.3,8.4-33.3,8.4-33.3,8.4L-33.3,8.4z"/>
			</g>
			<g>
				<path fill="#3D7A29" d="M-30,3.2c0,0,0.1-0.1,0.3-0.3c0.2-0.2,0.5-0.3,0.8-0.4c0.2-0.1,0.3-0.1,0.5-0.1c0.2,0,0.3-0.1,0.4-0.1
					c0.1,0,0.2,0,0.3-0.1c0.1,0,0.1,0,0.1,0c0,0,0,0,0,0s0,0,0,0c0,0-0.2-0.1-0.5-0.2c-0.3-0.1-0.7,0-1,0.2C-29.6,2.5-30,3.2-30,3.2
					C-30,3.2-30,3.2-30,3.2C-30,3.2-30,3.2-30,3.2z"/>
			</g>
			<g>
				<path fill="#3D7A29" d="M-23.3-2.9c0,0,1.5-1.3,3.2-2.1c0.9-0.4,1.7-0.7,2.4-1c0.7-0.2,1.2-0.3,1.2-0.3c0,0,0,0,0,0c0,0,0,0,0,0
					c0,0-0.1,0-0.3,0c-0.2,0-0.5,0-0.9,0.1c-0.4,0.1-0.8,0.2-1.2,0.3c-0.4,0.2-0.9,0.4-1.3,0.7c-0.8,0.5-1.6,1.1-2.2,1.6
					C-23-3.3-23.3-2.9-23.3-2.9C-23.4-2.9-23.4-2.9-23.3-2.9C-23.3-2.9-23.3-2.9-23.3-2.9z"/>
			</g>
			<g>
				<path fill="#3D7A29" d="M-27.6,1.1c0,0,0.2-0.1,0.6-0.2c0.3-0.2,0.7-0.5,1.1-0.8c0.2-0.2,0.4-0.3,0.5-0.5
					c0.2-0.2,0.3-0.3,0.4-0.5c0.2-0.3,0.3-0.5,0.3-0.5c0,0,0,0,0,0c0,0,0,0,0,0c0,0-0.2,0.1-0.5,0.4c-0.1,0.1-0.3,0.3-0.4,0.4
					c-0.1,0.2-0.3,0.4-0.4,0.6c-0.3,0.4-0.6,0.7-0.9,0.9C-27.4,0.9-27.6,1-27.6,1.1C-27.6,1-27.6,1.1-27.6,1.1
					C-27.6,1.1-27.6,1.1-27.6,1.1z"/>
			</g>
			<g>
				<path fill="#3D7A29" d="M-23.5,6.2c0,0,0.2,0,0.5-0.1c0.1-0.1,0.3-0.1,0.5-0.2c0.2-0.1,0.3-0.2,0.5-0.4c0.1-0.2,0.3-0.3,0.4-0.5
					c0.1-0.2,0.2-0.4,0.2-0.5c0.1-0.3,0-0.5,0-0.5l0,0c0,0,0,0,0,0c0,0,0,0,0,0c0,0-0.1,0.2-0.2,0.4c-0.1,0.3-0.4,0.6-0.6,0.9
					C-22.8,5.8-23.5,6.2-23.5,6.2C-23.5,6.2-23.5,6.2-23.5,6.2C-23.5,6.2-23.5,6.2-23.5,6.2L-23.5,6.2z"/>
			</g>
			<g>
				<path fill="#3D7A29" d="M-21.3,2.2c0,0,0.3-0.5,0.8-1.2c0.4-0.7,0.9-1.8,1.5-2.7c0.3-0.5,0.6-0.9,1-1.3c0.3-0.4,0.6-0.8,0.9-1.1
					c0.3-0.3,0.6-0.5,0.8-0.6c0.1-0.1,0.2-0.1,0.3-0.1c0.1,0,0.1,0,0.1,0l0,0c0,0,0,0,0,0c0,0,0,0,0,0c0,0,0,0-0.1,0
					c-0.1,0-0.2,0-0.3,0c-0.3,0-0.6,0.2-1,0.5c-0.4,0.3-0.7,0.6-1,1.1c-0.3,0.4-0.6,0.9-0.9,1.4c-0.6,1-1,2.1-1.4,2.8
					C-21.1,1.7-21.4,2.2-21.3,2.2C-21.4,2.2-21.4,2.2-21.3,2.2C-21.4,2.2-21.4,2.2-21.3,2.2z"/>
			</g>
			<g>
				<path fill="#3D7A29" d="M-18.7-5.1c0,0,0.1-0.1,0.4-0.3c0.3-0.1,0.6-0.3,1-0.3c0.2,0,0.4,0,0.6-0.1c0.2,0,0.4-0.1,0.5-0.1
					c0.3-0.1,0.5-0.2,0.5-0.2c0,0,0,0,0,0c0,0,0,0,0,0c0,0-0.2-0.1-0.5-0.1c-0.2,0-0.3,0-0.5,0c-0.2,0-0.4,0.1-0.6,0.2
					c-0.4,0.1-0.8,0.3-1,0.5C-18.6-5.3-18.8-5.1-18.7-5.1C-18.8-5.1-18.8-5.1-18.7-5.1C-18.7-5.1-18.7-5.1-18.7-5.1z"/>
			</g>
			<g>
				<path fill="#3D7A29" d="M-33.8,11.4c0-0.3,0-0.7,0.2-0.8c0.1,0,0.3-0.1,0.4-0.1c0.1,0,0.3,0,0.4,0c0.1,0,0.1,0,0.1-0.1l0,0
					c0.1-0.3,0.2-0.6,0.3-0.9l0.2-0.9c0,0,0,0,0,0c0,0,0,0,0,0c-0.3,0.2-0.4,0.5-0.6,0.8c-0.1,0.3-0.2,0.6-0.2,0.9l0.2-0.1
					c-0.2,0-0.3,0-0.5,0.1l-0.2,0.1c-0.1,0-0.2,0-0.2,0.1c-0.2,0.1-0.2,0.3-0.2,0.5C-33.9,11.1-33.9,11.2-33.8,11.4
					C-33.8,11.4-33.8,11.4-33.8,11.4C-33.8,11.4-33.8,11.4-33.8,11.4z"/>
			</g>
			<g>
				<path fill="#FFFFFF" d="M-24.6,5.2c0,0-0.6-1.4-1.3-2"/>
				<path fill="#3D7A29" d="M-24.6,5.2c0,0,0-0.2-0.1-0.4c0-0.1-0.1-0.3-0.1-0.4C-24.9,4.3-24.9,4.1-25,4c-0.2-0.3-0.4-0.5-0.6-0.7
					c-0.2-0.1-0.4-0.2-0.4-0.2s0.1,0.1,0.2,0.3c0.1,0.1,0.1,0.2,0.2,0.3c0.1,0.1,0.1,0.2,0.2,0.4c0.2,0.2,0.3,0.5,0.5,0.7
					C-24.7,5.1-24.6,5.2-24.6,5.2z"/>
			</g>
			<g>
				<path fill="#3D7A29" d="M-31.1,11.4c-0.3-0.2-0.7-0.4-0.8-0.7c-0.1-0.2-0.1-0.3-0.1-0.5c0-0.2,0-0.4,0-0.5
					c0.1-0.3,0.2-0.6,0.4-0.9c0.2-0.2,0.5-0.4,0.8-0.6C-30.5,8-30.2,8-29.8,8c0.3,0,0.7,0.1,1,0.2c0.3,0.1,0.4,0.4,0.4,0.8
					c0,0.3-0.1,0.7-0.3,0.9l0,0c0,0,0,0.1,0,0.1c0,0,0,0,0.1,0c0.3,0,0.7-0.1,1-0.2c-0.3,0.1-0.6,0.1-1,0l0,0.1
					c0.4-0.2,0.4-0.7,0.5-1c0.1-0.4-0.1-0.9-0.5-1.1c-0.4-0.2-0.8-0.2-1.1-0.3c-0.2,0-0.4,0-0.6,0c-0.2,0-0.4,0.1-0.6,0.2
					c-0.3,0.2-0.6,0.4-0.9,0.7c-0.3,0.3-0.4,0.7-0.5,1.1c0,0.2,0,0.4,0,0.6c0,0.2,0.1,0.4,0.2,0.6C-31.8,11.2-31.4,11.3-31.1,11.4z"/>
			</g>
			<path fill="#231F20" d="M-30.8,9.6c0-0.5,0.1-0.8,0.3-0.9c0.2,0,0.4,0.3,0.4,0.8c0,0.5-0.1,0.8-0.3,0.9
				C-30.6,10.4-30.8,10.1-30.8,9.6z"/>
			
				<path fill="none" stroke="#3D7A29" stroke-width="0.4" stroke-linecap="round" stroke-linejoin="round" stroke-miterlimit="10" d="
				M-31.3,10.3c0,0,0.9,1.2,1.6-1.1"/>
		</g>
		<path fill="#B8AB0D" stroke="#7C7005" stroke-width="0.75" stroke-miterlimit="10" d="M-11.8-12.1c0,0,8.8-4.8,16.2-2.5
			c0,0,8.8-1.3,11.2-0.1c0,0,5.4,0.2,7.8,1.4l-1,6.8l-28.2,4L-11.8-12.1z"/>
		<g>
			<path fill="#5AB140" stroke="#3D7A29" stroke-width="0.5" stroke-miterlimit="10" d="M-19.5-18.6c0,0-0.2,1.2,0.7,2.1l0.9-0.6
				C-17.9-17-18.7-17.7-19.5-18.6z"/>
			<path fill="#5AB140" stroke="#3D7A29" stroke-width="0.5" stroke-miterlimit="10" d="M-17.7-18.5c0,0-0.5,1.1,0.1,2.2l1-0.3
				C-16.6-16.5-17.2-17.4-17.7-18.5z"/>
			<path fill="#5AB140" stroke="#3D7A29" stroke-width="0.5" stroke-miterlimit="10" d="M-12.2-17.2c0.2,0,0.3,0.2,0.3,0.4
				c0,0.2,0.1,0.6,0,1.2c0,0,0.9,0,0.8,0.9c0,0,1.2,0.1,1,2.2c0,0,0.9-0.1,1.1,0.2c0,0,4.1-0.8,6-1.2c2.5-0.6,5.6,0.5,6.5,0.9
				C5-12,9.7-11.3,9.7-11.3l-20.8,6.7c-7.5-3.6-7.6-10.8-7.6-10.8c-0.8-0.3-1.2-1.2-1.2-1.2s-1.7-1.1-1.6-2.2
				c1.4,1.1,1.9,1.5,1.9,1.5s0.6-0.4,1.6-0.7c1-0.4,2.1-0.4,3.2-0.1L-12.2-17.2z"/>
			<g>
				<path fill="#3D7A29" d="M-12.2-6.3c0,0,0.3-0.3,0.6-0.8c0.2-0.3,0.4-0.6,0.6-0.9c0.2-0.3,0.4-0.7,0.6-1.1c0.4-0.7,0.8-1.5,1-2.1
					c0.2-0.6,0.3-1,0.3-1s0,0.1-0.1,0.3c-0.1,0.2-0.2,0.4-0.4,0.7c-0.3,0.5-0.7,1.3-1.2,2c-0.4,0.7-0.8,1.5-1.1,2.1
					C-12-6.7-12.2-6.3-12.2-6.3z"/>
			</g>
			<g>
				<path fill="#3D7A29" d="M-10.8-7.5c0,0,0.2-0.2,0.5-0.6c0.3-0.4,0.6-1,0.9-1.6c0.3-0.6,0.5-1.2,0.6-1.7c0.1-0.5,0-0.8,0-0.8
					s0,0.3-0.2,0.8c-0.1,0.2-0.2,0.5-0.3,0.8c-0.1,0.3-0.3,0.6-0.4,0.9C-9.9-9.6-10-9.3-10.1-9c-0.1,0.3-0.2,0.5-0.3,0.8
					C-10.7-7.8-10.8-7.5-10.8-7.5z"/>
			</g>
			<g>
				<path fill="#3D7A29" d="M-11.7-9c0,0,0.2-0.2,0.5-0.4c0.3-0.3,0.7-0.7,1-1.1c0.2-0.2,0.3-0.4,0.5-0.6c0.1-0.2,0.3-0.4,0.4-0.6
					c0.2-0.4,0.2-0.6,0.2-0.6s-0.7,0.8-1.4,1.6c-0.2,0.2-0.3,0.4-0.5,0.6c-0.2,0.2-0.3,0.4-0.4,0.6C-11.6-9.2-11.7-9-11.7-9z"/>
			</g>
			<g>
				<path fill="#3D7A29" d="M-8.1-7.2c0,0,0.3-0.3,0.8-0.7c0.2-0.2,0.5-0.5,0.8-0.7c0.3-0.3,0.6-0.5,1-0.8c0.6-0.5,1.3-1,1.9-1.4
					c0.5-0.3,0.9-0.6,0.9-0.6s-0.1,0-0.3,0.1c-0.2,0.1-0.4,0.1-0.7,0.3c-0.3,0.1-0.6,0.3-1,0.5c-0.3,0.2-0.7,0.5-1,0.7
					c-0.7,0.5-1.3,1.2-1.7,1.7C-7.9-7.6-8.1-7.2-8.1-7.2z"/>
			</g>
			<g>
				<path fill="#3D7A29" d="M-17.2-16.2c0,0,0.3-0.1,0.9-0.1c0.5,0,1.2,0.1,1.9,0.1c0.7,0,1.4,0,1.9,0.1c0.2,0,0.4,0.1,0.5,0.2
					c0.1,0.1,0.1,0.2,0.1,0.2c0,0,0-0.1-0.1-0.2c-0.1-0.1-0.3-0.3-0.5-0.4c-0.3-0.1-0.6-0.2-0.9-0.2c-0.3,0-0.7,0-1-0.1
					c-0.3,0-0.7,0-1,0c-0.3,0-0.6,0.1-0.9,0.1C-16.9-16.4-17.2-16.2-17.2-16.2z"/>
			</g>
			<g>
				<path fill="#3D7A29" d="M-16.5-15.5c0,0,0.2-0.1,0.6-0.2c0.3-0.1,0.8-0.1,1.3,0c0.5,0,1-0.1,1.3-0.1c0.4,0,0.6,0,0.6,0
					s-0.2-0.1-0.6-0.2c-0.4-0.1-0.9-0.1-1.3-0.1c-0.2,0-0.5,0-0.7,0c-0.2,0-0.5,0.1-0.6,0.2C-16.3-15.7-16.5-15.5-16.5-15.5z"/>
			</g>
			<g>
				<path fill="#3D7A29" d="M-16.5-15c0,0,0.3-0.2,0.8-0.3c0.2-0.1,0.5-0.1,0.8-0.1c0.3,0,0.6,0,1,0c0.7,0,1.3-0.2,1.8-0.2
					c0.2,0,0.4,0,0.6,0c0.1,0,0.2,0.1,0.2,0.1c0,0-0.3-0.3-0.8-0.3c-0.5-0.1-1.2,0-1.8,0c-0.3,0-0.7,0-1,0.1
					c-0.3,0.1-0.6,0.2-0.8,0.3C-16.3-15.2-16.5-15-16.5-15z"/>
			</g>
			<g>
				<path fill="#3D7A29" d="M-1-11.8c0,0,0.3-0.2,0.8-0.3c0.5-0.2,1.1-0.3,1.8-0.4c0.3,0,0.7-0.1,1,0c0.3,0,0.6,0,0.9,0.1
					c0.3,0,0.5,0.1,0.6,0.1c0.2,0,0.2,0,0.2,0s-0.1,0-0.2-0.1c-0.1-0.1-0.3-0.2-0.6-0.2C3-12.9,2.3-13,1.5-12.9
					c-0.3,0-0.7,0.1-1,0.2c-0.3,0.1-0.6,0.2-0.8,0.4C-0.7-12.1-1-11.8-1-11.8z"/>
			</g>
			<g>
				<path fill="#3D7A29" d="M-2.1-12.5c0,0,0.3,0,0.8-0.1c0.2,0,0.5-0.1,0.8-0.1c0.3,0,0.6-0.1,0.9-0.1c0.6-0.1,1.3-0.1,1.7-0.1
					c0.2,0,0.4,0,0.6,0c0.1,0,0.2,0,0.2,0s-0.1,0-0.2-0.1c-0.1,0-0.3-0.1-0.6-0.2c-0.2,0-0.5-0.1-0.8-0.1c-0.3,0-0.6,0-1,0
					c-0.6,0.1-1.3,0.2-1.7,0.4C-1.8-12.6-2.1-12.5-2.1-12.5z"/>
			</g>
		</g>
		<path fill="#5AB140" stroke="#3D7A29" stroke-width="0.5" stroke-miterlimit="10" d="M28.5-8.9c0,0,4.1-0.4,5.3-2.9
			c0.1-0.2,0.1-0.5-0.1-0.7c-0.3-0.3-0.9-0.6-1.8-1l-6.3,4L28.5-8.9z"/>
		<g>
			<path fill="#5AB140" stroke="#3D7A29" stroke-width="0.5" stroke-miterlimit="10" d="M26.7-9.3c0.8-0.3,2.5-0.5,2.7-0.8
				c0.7,0,1-0.1,1.2-0.2c0,0,3.5,0.5,4.2,0.2c0,0-0.2-1-2.9-1.7c-1.9-0.5-4.2-0.3-4.2-0.3l-4.2,1.3L26.7-9.3z"/>
			<g>
				<path fill="#3D7A29" d="M29.5-10.2C29.5-10.2,29.4-10.2,29.5-10.2c-0.1,0-0.1-0.1-0.1-0.1c0,0,0-0.1,0-0.2c0-0.1,0-0.2,0-0.2
					c0-0.1,0-0.2,0-0.3c0-0.1,0-0.2,0-0.2c0-0.1-0.1-0.2-0.1-0.2s-0.1,0.1-0.1,0.2C29-11.1,29-10.9,29-10.7c0,0.2,0,0.4,0.2,0.6
					C29.3-10.1,29.4-10.1,29.5-10.2C29.5-10.1,29.5-10.2,29.5-10.2z"/>
			</g>
			<g>
				<path fill="#3D7A29" d="M30.6-10.4c0,0,0.1,0,0.1-0.1c0.1,0,0.1-0.1,0.2-0.1c0,0,0-0.1,0-0.1c0,0,0-0.1,0-0.1c0-0.1,0-0.2,0-0.2
					s-0.1,0-0.2,0c-0.1,0-0.2,0.1-0.3,0.2c0,0.1,0,0.1-0.1,0.2c0,0.1,0,0.1,0,0.2C30.6-10.4,30.6-10.4,30.6-10.4z"/>
			</g>
			<g>
				<path fill="#3D7A29" d="M30.1-10.3C30.1-10.3,30.1-10.3,30.1-10.3C30-10.3,30-10.4,30-10.4c0-0.1,0-0.1,0.1-0.2
					c0-0.1,0.1-0.2,0.1-0.3c0-0.1,0.1-0.2,0.1-0.3c0-0.1,0-0.2,0.1-0.3c0-0.2,0-0.3,0-0.3s-0.1,0.1-0.2,0.2
					c-0.1,0.1-0.2,0.3-0.3,0.5c-0.1,0.2-0.1,0.5,0,0.7C29.8-10.2,30-10.2,30.1-10.3C30.1-10.2,30.1-10.3,30.1-10.3z"/>
			</g>
		</g>
		<g>
			<path fill="#5AB140" stroke="#3D7A29" stroke-width="0.5" stroke-miterlimit="10" d="M15-11c0,0,6-4.9,8.7-4.1c0,0,1.5-0.5,2-1.1
				c0,0-1.8-0.9,0.4-4v2.1c0,0,1.7-0.2,2.4,0c0,0,1.2-1.7,3-2.6c0,0-1.1,1.9-1.8,2.9c0,0,2.1-0.2,2.5,0.4c0,0,1-0.8,2.1-1l-1.2,1.6
				c0,0,0.9,0.3,0.9,1.5s-1.9,2.9-4.8,3.8s-4.5,0.5-4.5,0.5l-1,1.3L15-11z"/>
			<g>
				<path fill="#3D7A29" d="M25.7-16.2c0.4,0.4,1,0.6,1.6,0.7c0.6,0.1,1.2,0.1,1.7,0l-0.1,0c1,0.5,2,1,3.1,0.9
					c-0.5-0.1-1-0.3-1.5-0.5c-0.5-0.2-1-0.4-1.4-0.7c0,0-0.1,0-0.1,0c-0.5,0.1-1.1,0.1-1.6,0C26.8-15.9,26.2-16,25.7-16.2z"/>
			</g>
			<g>
				<path fill="#3D7A29" d="M26-18c0,0,0.1,0.1,0.2,0.2c0.1,0,0.1,0.1,0.2,0.2c0.1,0,0.1,0.1,0.2,0.1c0.2,0.1,0.3,0.2,0.4,0.2
					c0.1,0.1,0.2,0.1,0.2,0.1s0-0.1,0-0.3c-0.1-0.2-0.2-0.3-0.4-0.4c-0.2-0.1-0.4-0.2-0.5-0.2C26.1-18,26-18,26-18z"/>
			</g>
			<g>
				<path fill="#3D7A29" d="M29.6-17.7c0,0,0.1,0.1,0.2,0.1c0.1,0.1,0.2,0.1,0.4,0.2c0.1,0,0.2,0.1,0.4,0.1c0.1,0,0.2,0.1,0.2,0.1
					s0-0.1,0-0.2c-0.1-0.1-0.2-0.3-0.4-0.4c-0.1,0-0.2,0-0.3-0.1c-0.1,0-0.2,0-0.2,0C29.7-17.7,29.6-17.7,29.6-17.7z"/>
			</g>
			<g>
				<path fill="#3D7A29" d="M33.5-15.6c0,0,0-0.1,0-0.2c0-0.1-0.1-0.3-0.1-0.4c0-0.1-0.1-0.1-0.1-0.2c0-0.1-0.1-0.1-0.1-0.2
					c0-0.1,0-0.2,0-0.2s0,0-0.1,0c0,0-0.1,0.1-0.1,0.1c-0.1,0.2,0,0.4,0,0.5c0,0.1,0.1,0.2,0.1,0.2c0,0.1,0.1,0.1,0.2,0.2
					C33.4-15.6,33.5-15.6,33.5-15.6z"/>
			</g>
			
				<path fill="none" stroke="#3D7A29" stroke-width="0.4" stroke-linecap="round" stroke-linejoin="round" stroke-miterlimit="10" d="
				M31.1-16.5c0,0,0.7-0.5,1.2-0.9"/>
			
				<path fill="none" stroke="#3D7A29" stroke-width="0.4" stroke-linecap="round" stroke-linejoin="round" stroke-miterlimit="10" d="
				M28.7-18.3c0,0-1.2,1.3-0.4,2.1"/>
			<g>
				<path fill="#3D7A29" d="M22.5-15.2c0,0,0.2,0,0.5,0.1c0.2,0,0.3,0.1,0.5,0.2c0.2,0.1,0.4,0.2,0.5,0.3c0.4,0.2,0.7,0.5,0.9,0.7
					c0.2,0.2,0.4,0.3,0.4,0.3s0-0.1-0.1-0.1c-0.1-0.1-0.1-0.2-0.2-0.4c-0.2-0.3-0.5-0.6-0.9-0.9c-0.4-0.2-0.9-0.4-1.2-0.4
					C22.7-15.3,22.5-15.2,22.5-15.2z"/>
			</g>
			<g>
				<path fill="#3D7A29" d="M27.1-12.8c0,0-0.1-0.3-0.3-0.6c-0.1-0.2-0.2-0.4-0.4-0.6c-0.2-0.2-0.4-0.4-0.6-0.6
					c-0.2-0.2-0.5-0.3-0.7-0.4c-0.2-0.1-0.5-0.1-0.7-0.2c-0.4-0.1-0.7,0-0.7,0s0.3,0,0.6,0.2c0.4,0.1,0.8,0.4,1.2,0.7
					c0.2,0.1,0.4,0.3,0.6,0.5c0.2,0.2,0.3,0.3,0.5,0.5C26.9-13,27.1-12.8,27.1-12.8z"/>
			</g>
			<g>
				<path fill="#3D7A29" d="M28.3-12.6c0,0-0.1-0.3-0.4-0.7c-0.1-0.2-0.3-0.4-0.5-0.6c-0.2-0.2-0.5-0.4-0.8-0.6
					c-0.6-0.3-1.2-0.5-1.7-0.6c-0.2-0.1-0.4,0-0.6-0.1c-0.1,0-0.2,0-0.2,0s0.1,0,0.2,0.1c0.1,0,0.3,0.1,0.5,0.2
					c0.2,0.1,0.5,0.2,0.7,0.3c0.3,0.1,0.5,0.3,0.8,0.4c0.5,0.3,1,0.7,1.3,1C28.1-12.9,28.3-12.6,28.3-12.6z"/>
			</g>
			<g>
				<path fill="#3D7A29" d="M28.1-15.6c0,0,0.1,0.2,0.3,0.4c0.2,0.2,0.4,0.4,0.7,0.6c0.3,0.2,0.6,0.4,0.9,0.4c0.3,0.1,0.5,0,0.5,0
					s-0.2-0.1-0.4-0.2c-0.1-0.1-0.2-0.2-0.3-0.2c-0.1-0.1-0.3-0.2-0.4-0.3c-0.3-0.2-0.6-0.4-0.8-0.5C28.2-15.6,28.1-15.6,28.1-15.6z
					"/>
			</g>
		</g>
		<g>
			<defs>
				<path id="SVGID_1_" d="M-18.7-0.1c1.1,1.1,2.9,2.9,3.8,3.4l4.9,10.2c0.4,0.8,1,1.4,1.8,1.7l8.4,3.5C1,19,1.8,19.2,2.6,19.2
					c2.5,0.1,8.2,0.1,12.8-1.3c0,0,5.2-3.6,9.7-9.8c0.4-0.5,0.6-1.2,0.7-1.8c0.2-1.6,0.5-4.9,0.8-9.4c0,0,2-3.6,2.9-5.9
					c0,0,0.1-0.8-3.2-1.1c0,0-0.1-0.8-2.4-1.1c0,0-9-0.8-13.8-0.6c0,0-5.9,0.2-8.1,1c0,0-5.1-0.2-8.4,2.9c0,0-2.8,0.7-5.8,2.7
					c0,0-1.4,0.2-4.4,2.3l-2,1.3C-19.1-1.3-19.2-0.6-18.7-0.1z"/>
			</defs>
			<use xlink:href="#SVGID_1_" overflow="visible" fill="#756D0B"/>
			
			<g clip-path="url(#SVGID_2_)">
				<g>
					<defs>
						<path id="SVGID_3_" d="M-14.5,5.5c0,0-0.8-2.6,0.1-3.2l2.1-1l1.5-1.9c0.6-0.7,1.4-1.3,2.3-1.6c2.2-0.8,6.4-2.4,7.5-2.8
							c0.8-0.4,2.3-1.1,3.3-1.6C3-7.1,3.9-7.3,4.8-7.3c2.2,0.1,6.3,0.4,8.1,1.4c0,0,1.7-0.8,2.5-0.8s5.9,1.2,7.6,2.4
							c0,0,0.2,0.7,0.2,1.8l0.4-0.9c0,0,1.4-0.1,2,0.2C26.3-2.7,27-1.5,27-1.5l0.9,12.2L16.1,15l-25.2,3.3L-14.5,5.5z"/>
					</defs>
					<use xlink:href="#SVGID_3_" overflow="visible" fill="#756D0B"/>
					
					<g clip-path="url(#SVGID_4_)">
						<path fill="#756D0B" stroke="#685A05" stroke-width="0.75" stroke-miterlimit="10" d="M-13.2,0.1l3.8,6.2c0,0,1.7,6,5.5,7.4"/>
						<path fill="#756D0B" stroke="#685A05" stroke-width="0.75" stroke-miterlimit="10" d="M-1.7-6.3c0,0,0.4,1.9,1.2,3
							c0,0,0.3,8.8,1.5,10.1c0,0,0.3,2.2,0,3.7"/>
						<path fill="#756D0B" stroke="#685A05" stroke-width="0.75" stroke-miterlimit="10" d="M8.8,11.8c0,0,1.7-1.8,3.3-8.9
							c0,0,1-3.5,1-5.2s-0.2-4.8-0.2-4.8"/>
						<path fill="#756D0B" stroke="#685A05" stroke-width="0.75" stroke-miterlimit="10" d="M24-5.5c0,0-0.8,4.8-2.3,9.6
							c0,0,0,7.1-4,9.4"/>
					</g>
					<use xlink:href="#SVGID_3_" overflow="visible" fill="none" stroke="#685A05" stroke-width="0.75" stroke-miterlimit="10"/>
				</g>
				<path fill="#756D0B" stroke="#6B600C" stroke-width="0.75" stroke-miterlimit="10" d="M-9.4,15l2.4-0.1c0,0-1.8-0.8-2.3-1.5
					c0,0-0.1-0.8,0.2-1.1c0,0,1.9-0.4,3.4,0.2c0,0-0.7-0.7-1.2-1.2c-0.1-0.1-0.1-0.3,0-0.4l2.3-2.4c0.5-0.5,1.2-0.9,1.9-1.1L-1,7.1
					C-0.5,7,0,7.2,0.3,7.7c0.3,0.4,0.6,1,0.9,1.2c0,0,0.7-0.4,1-1.2c0.2-0.5,0.6-0.8,1.1-0.9l2-0.4C6,6.3,6.6,6.3,7.1,6.5
					c0.5,0.2,1.3,0.4,1.8,0.7c0.4,0.2,0.6,0.5,0.6,0.9l0.2,1.7c0,0,1.1-0.6,1.8-1.4c0.4-0.4,0.8-0.8,1.4-1c1.5-0.5,4.5-1.5,5.9-1.2
					c0,0,1,0.8,1.6,2.1c0,0,0.3,1.2-0.8,3.1c0,0,1.6-1.6,2.2-3.4c0.2-0.5,0.5-0.8,1-0.9L24.5,7c0,0,1.4,0.6-1.4,4.1l-4.9,9.2
					L-1.9,21L-9.4,15z"/>
			</g>
			<use xlink:href="#SVGID_1_" overflow="visible" fill="none" stroke="#494205" stroke-width="0.75" stroke-miterlimit="10"/>
		</g>
	</g>
	<g>
		<g>
			<path fill="#8C7B18" d="M-9.4,0.8c0,0,0.4-0.3,1.1-0.7c0.7-0.4,1.6-0.9,2.5-1.2c0.5-0.2,1-0.3,1.4-0.5C-4-1.7-3.6-1.9-3.2-2
				c0.4-0.2,0.7-0.3,0.9-0.4C-2.2-2.5-2-2.5-2-2.5l0-0.1c0,0-0.1,0-0.4,0c-0.2,0-0.6,0-1,0c-0.4,0-0.8,0.1-1.3,0.3
				c-0.5,0.2-0.9,0.4-1.4,0.7C-7-1.2-7.9-0.6-8.5-0.1C-9.1,0.4-9.5,0.8-9.4,0.8L-9.4,0.8z"/>
		</g>
		<g>
			<path fill="#8C7B18" d="M-9.4,2.9c0,0,1.7-1,3.5-1.6C-5.5,1.1-5,1-4.6,0.9c0.4-0.1,0.8-0.3,1.1-0.4c0.3-0.1,0.6-0.2,0.8-0.3
				C-2.4,0-2.3,0-2.3,0l0-0.1c0,0-0.1,0-0.3,0c-0.2,0-0.5,0-0.9,0c-0.4,0-0.8,0.1-1.2,0.3c-0.4,0.2-0.9,0.4-1.3,0.6
				C-7,1.1-7.9,1.7-8.5,2.1C-9,2.5-9.4,2.9-9.4,2.9L-9.4,2.9z"/>
		</g>
		<g>
			<path fill="#8C7B18" d="M-2.1,1.6c0,0-0.4,0-1,0.1C-3.6,1.8-4.4,2-5.2,2.2c-0.4,0.1-0.8,0.2-1.1,0.4C-6.6,2.8-6.9,3-7.1,3.2
				c-0.2,0.2-0.4,0.4-0.5,0.5c-0.1,0.1-0.2,0.2-0.2,0.2l0,0.1c0,0,0.1,0,0.3-0.1c0.2,0,0.4-0.1,0.7-0.2c0.3-0.1,0.6-0.2,0.9-0.4
				c0.3-0.2,0.7-0.3,1-0.5C-3.6,2.1-2,1.7-2.1,1.6L-2.1,1.6z"/>
		</g>
		<g>
			<path fill="#8C7B18" d="M-1.7,3.1c0,0-0.4,0-1.1,0.1c-0.7,0.1-1.6,0.3-2.4,0.6c-0.4,0.2-0.9,0.3-1.2,0.5C-6.8,4.5-7.2,4.7-7.4,5
				c-0.2,0.2-0.4,0.5-0.5,0.6C-8,5.8-8.1,5.9-8.1,5.9l0.1,0.1c0,0,0.1,0,0.3-0.1C-7.6,5.7-7.3,5.6-7,5.5c0.3-0.1,0.6-0.3,1-0.5
				C-5.7,4.7-5.4,4.5-5,4.3c0.8-0.4,1.6-0.7,2.2-0.9C-2.2,3.2-1.7,3.2-1.7,3.1L-1.7,3.1z"/>
		</g>
		<g>
			<path fill="#8C7B18" d="M-1.6,4.6c0,0-0.5,0-1.2,0.1C-3.5,4.7-4.4,5-5.3,5.4C-5.8,5.6-6.2,5.8-6.6,6c-0.2,0.1-0.4,0.3-0.5,0.4
				c-0.2,0.1-0.3,0.3-0.4,0.4C-7.9,7.5-8.1,8-8.1,8L-8,8C-8,8-7.9,8-7.8,7.8c0.2-0.1,0.4-0.3,0.7-0.5c0.3-0.2,0.6-0.4,0.9-0.7
				C-5.8,6.4-5.4,6.1-5,5.9c0.8-0.5,1.7-0.8,2.3-1C-2,4.7-1.5,4.7-1.6,4.6L-1.6,4.6z"/>
		</g>
		<g>
			<path fill="#8C7B18" d="M-1.4,5.9c0,0-0.4,0-0.9,0.1C-2.8,6-3.5,6.2-4.2,6.5c-0.3,0.1-0.7,0.3-1,0.5c-0.3,0.2-0.5,0.4-0.7,0.6
				c-0.2,0.2-0.3,0.4-0.4,0.6c-0.1,0.1-0.1,0.2-0.1,0.2l0.1,0.1c0,0,0.1,0,0.2-0.1C-6,8.2-5.8,8.1-5.5,8C-5.3,7.9-5,7.7-4.8,7.6
				C-4.5,7.4-4.2,7.2-4,7c0.6-0.4,1.2-0.6,1.7-0.8C-1.7,6.1-1.4,6-1.4,5.9L-1.4,5.9z"/>
		</g>
		<g>
			<path fill="#8C7B18" d="M-13.6,4.2c0,0,0.3-0.2,0.6-0.3c0.1,0,0.2,0,0.2,0c0.1,0,0.1-0.1,0.2-0.1c0.1-0.1,0.2-0.2,0.2-0.2l0-0.1
				c0,0-0.1-0.2-0.3-0.3c-0.1-0.1-0.2-0.1-0.3,0c-0.1,0-0.2,0.1-0.3,0.2c-0.2,0.2-0.3,0.3-0.4,0.5C-13.7,4.1-13.7,4.1-13.6,4.2
				L-13.6,4.2z"/>
		</g>
		<g>
			<path fill="#8C7B18" d="M-12.4,5.4c0,0,0.5-0.2,0.9-0.3c0.1,0,0.2,0,0.3-0.1c0.1,0,0.2-0.1,0.2-0.2c0.1-0.1,0.1-0.1,0.1-0.2
				c0-0.1,0.1-0.1,0.1-0.1l0-0.1c0,0,0,0-0.1-0.1c-0.1,0-0.2-0.1-0.3-0.1c-0.1,0-0.2,0-0.3,0c-0.1,0.1-0.2,0.2-0.3,0.3
				C-12.3,4.9-12.5,5.3-12.4,5.4L-12.4,5.4z"/>
		</g>
		<g>
			<path fill="#8C7B18" d="M-11.8,7.6c0,0,0.5-0.4,1-0.6c0.1-0.1,0.3-0.1,0.4-0.1c0.1-0.1,0.2-0.1,0.3-0.2C-10,6.6-10,6.5-9.9,6.4
				c0-0.1,0.1-0.1,0.1-0.1l0-0.1c0,0,0,0-0.1-0.1c-0.1,0-0.2,0-0.3-0.1c-0.1,0-0.3,0-0.4,0.1c-0.1,0.1-0.2,0.2-0.4,0.3
				c-0.2,0.2-0.4,0.5-0.5,0.7C-11.8,7.4-11.8,7.6-11.8,7.6L-11.8,7.6z"/>
		</g>
		<g>
			<path fill="#8C7B18" d="M-10.9,10c0,0,0.5-0.4,1-0.6c0.1,0,0.3-0.1,0.4-0.1c0.1-0.1,0.2-0.1,0.3-0.2C-9.1,9-9.1,8.9-9,8.8
				C-9,8.8-9,8.7-9,8.7l0-0.1c0,0,0,0-0.1-0.1c-0.1,0-0.2-0.1-0.3-0.1c-0.1,0-0.3,0-0.4,0.1c-0.1,0.1-0.3,0.2-0.4,0.3
				c-0.2,0.2-0.5,0.5-0.6,0.7C-10.9,9.8-11,9.9-10.9,10L-10.9,10z"/>
		</g>
		<g>
			<path fill="#8C7B18" d="M-9.4,10.7c0,0,0.3-0.1,0.6-0.2c0.1,0,0.1,0,0.2,0c0.1,0,0.1-0.1,0.1-0.1c0.1-0.1,0.1-0.3,0.1-0.3l0-0.1
				c0,0,0,0-0.1-0.1c0-0.1-0.1-0.1-0.2-0.1c-0.1,0-0.2,0-0.3,0C-9,9.9-9.1,10-9.1,10c-0.1,0.1-0.2,0.3-0.3,0.4
				C-9.5,10.6-9.5,10.7-9.4,10.7L-9.4,10.7z"/>
		</g>
		<g>
			<path fill="#8C7B18" d="M-9.5,12.3c0,0,0.5-0.3,1-0.5c0.1-0.1,0.3-0.1,0.4-0.1c0.1-0.1,0.2-0.2,0.3-0.2c0.1-0.1,0.1-0.2,0.1-0.3
				c0-0.1,0-0.1,0-0.1l0-0.1c0,0,0,0-0.1,0c-0.1,0-0.2,0-0.3,0c-0.1,0-0.3,0-0.4,0.1c-0.1,0.1-0.2,0.2-0.3,0.3
				C-9.3,11.7-9.6,12.2-9.5,12.3L-9.5,12.3z"/>
		</g>
		<g>
			<path fill="#8C7B18" d="M1.8,5.4c0,0,1.9-0.2,3.7-0.1c0.5,0,0.9,0.1,1.4,0.2c0.4,0,0.8,0.1,1.2,0.1c0.4,0,0.6,0,0.9,0
				c0.2,0,0.3,0,0.3,0l0-0.1c0,0-0.1-0.1-0.3-0.2C8.8,5.2,8.5,5.1,8.2,5C7.8,4.8,7.4,4.8,7,4.7c-0.5,0-0.9,0-1.4,0
				c-1,0-1.9,0.2-2.6,0.3C2.2,5.2,1.8,5.3,1.8,5.4L1.8,5.4z"/>
		</g>
		<g>
			<path fill="#8C7B18" d="M1.7,4.2c0,0,2-0.3,4-0.2c0.5,0,1,0.1,1.4,0.1c0.5,0,0.9,0,1.3,0.1c0.4,0,0.7,0,0.9,0c0.2,0,0.4,0,0.4,0
				l0-0.1c0,0-0.1-0.1-0.3-0.2C9.2,3.9,8.9,3.8,8.5,3.7C8.1,3.6,7.7,3.5,7.2,3.4c-0.5,0-1,0-1.5,0c-1,0.1-2,0.2-2.8,0.4
				C2.2,4,1.7,4.2,1.7,4.2L1.7,4.2z"/>
		</g>
		<g>
			<path fill="#8C7B18" d="M4.2,2.2c0,0,1.6-0.1,3.2-0.1c0.4,0,0.8,0.1,1.1,0.1c0.4,0,0.7,0,1,0c0.3,0,0.5,0,0.7-0.1
				c0.2,0,0.3-0.1,0.3-0.1l0-0.1c0,0-0.1-0.1-0.3-0.1c-0.2-0.1-0.4-0.2-0.7-0.3c-0.3-0.1-0.6-0.1-1-0.2c-0.4,0-0.8,0-1.2,0.1
				C6.6,1.6,5.8,1.7,5.2,1.8C4.6,2,4.2,2.1,4.2,2.2L4.2,2.2z"/>
		</g>
		<g>
			<path fill="#8C7B18" d="M1.7,1c0,0,0.4-0.1,1-0.2c0.6-0.1,1.4-0.1,2.1-0.1c0.4,0,0.8,0.1,1.1,0.1c0.4,0,0.7,0,1,0
				c0.3,0,0.5,0,0.7,0c0.2,0,0.3,0,0.3,0l0-0.1c0,0-0.1-0.1-0.2-0.2C7.6,0.5,7.3,0.4,7,0.2C6.8,0.1,6.4,0.1,6,0C5.6,0,5.2,0,4.8,0.1
				C4,0.2,3.2,0.3,2.6,0.5C2.1,0.7,1.7,0.9,1.7,1L1.7,1z"/>
		</g>
		<g>
			<path fill="#8C7B18" d="M1.8-1.1c0,0,0.6-0.2,1.5-0.4c0.9-0.2,2.1-0.3,3.3-0.3c0.6,0,1.2,0.1,1.8,0.2C9-1.5,9.5-1.4,10-1.4
				c0.5,0,0.8,0.1,1.1,0.1c0.3,0,0.4,0,0.4,0l0-0.1c0,0-0.1-0.1-0.4-0.2c-0.2-0.1-0.6-0.3-1.1-0.4C9.9-2.1,9.6-2.1,9.3-2.2
				C9.1-2.3,8.8-2.3,8.5-2.3c-0.6,0-1.2,0-1.9,0C5.4-2.2,4.1-2,3.2-1.7C2.3-1.4,1.8-1.1,1.8-1.1L1.8-1.1z"/>
		</g>
		<g>
			<path fill="#8C7B18" d="M2-3.2c0,0,0.6-0.1,1.4-0.3c0.8-0.1,1.9-0.2,3.1-0.2c0.6,0,1.1,0.1,1.6,0.2c0.5,0,1,0.1,1.4,0.1
				c0.4,0,0.8,0,1,0.1c0.2,0,0.4,0,0.4,0l0-0.1c0,0-0.1-0.1-0.4-0.2C10.4-3.7,10-3.8,9.6-4C9.4-4,9.2-4.1,8.9-4.2
				C8.7-4.2,8.4-4.2,8.2-4.3c-0.5,0-1.1,0-1.7,0C5.3-4.2,4.2-4,3.4-3.7C2.5-3.5,2-3.3,2-3.2L2-3.2z"/>
		</g>
		<g>
			<path fill="#8C7B18" d="M2.5-5.2c0,0,1-0.1,1.9,0c0.2,0,0.5,0,0.7,0.1c0.2,0,0.4,0,0.6-0.1C5.8-5.3,5.9-5.4,6-5.4
				c0.1,0,0.2-0.1,0.2-0.1l0-0.1c0,0-0.1,0-0.2-0.1C5.9-5.7,5.8-5.8,5.6-5.9C5.4-5.9,5.2-5.9,5-5.9c-0.2,0-0.5,0.1-0.7,0.1
				C3.3-5.6,2.4-5.2,2.5-5.2L2.5-5.2z"/>
		</g>
		<g>
			<path fill="#8C7B18" d="M13,5.7c0,0,1.5,0,3,0.2c0.4,0.1,0.7,0.1,1.1,0.2c0.3,0,0.7,0.1,1,0.1c0.3,0,0.5,0,0.7,0
				c0.2,0,0.3,0,0.3,0l0-0.1c0,0-0.1-0.1-0.2-0.2c-0.2-0.1-0.4-0.2-0.7-0.3c-0.3-0.1-0.6-0.2-1-0.3c-0.4,0-0.8,0-1.2,0
				c-0.8,0-1.6,0-2.1,0.1C13.4,5.6,13,5.7,13,5.7L13,5.7z"/>
		</g>
		<g>
			<path fill="#8C7B18" d="M14.2,4.2c0,0,0.4-0.1,1-0.1c0.6,0,1.4,0.1,2.1,0.3c0.4,0.1,0.7,0.3,1,0.4C18.7,5,19,5.2,19.3,5.3
				c0.3,0.1,0.5,0.2,0.7,0.3c0.2,0.1,0.3,0.1,0.3,0.1l0-0.1c0,0-0.2-0.4-0.7-0.8c-0.1-0.1-0.3-0.2-0.4-0.3c-0.2-0.1-0.3-0.2-0.5-0.3
				c-0.4-0.1-0.8-0.2-1.2-0.3c-0.8-0.1-1.7-0.1-2.3,0C14.6,4,14.2,4.1,14.2,4.2L14.2,4.2z"/>
		</g>
		<g>
			<path fill="#8C7B18" d="M13.4,2.8c0,0,0.5,0,1.2,0c0.7,0.1,1.6,0.2,2.5,0.5c0.4,0.1,0.8,0.3,1.2,0.5C18.6,4,19,4.1,19.3,4.2
				c0.3,0.1,0.6,0.2,0.8,0.3c0.2,0.1,0.3,0.1,0.3,0.1l0-0.1c0,0-0.1-0.1-0.2-0.3c-0.1-0.2-0.4-0.4-0.7-0.6c-0.3-0.2-0.7-0.4-1.1-0.6
				c-0.4-0.1-0.9-0.2-1.4-0.3c-0.9-0.2-1.9-0.2-2.6-0.1C13.8,2.7,13.4,2.8,13.4,2.8L13.4,2.8z"/>
		</g>
		<g>
			<path fill="#8C7B18" d="M13.9,1.3c0,0,0.5,0,1.1,0c0.7,0,1.6,0.2,2.4,0.4c0.4,0.1,0.8,0.3,1.2,0.5c0.4,0.2,0.7,0.3,1,0.4
				C20,2.8,20.2,2.9,20.4,3c0.2,0.1,0.3,0.1,0.3,0.1l0-0.1c0,0-0.1-0.1-0.2-0.3c-0.1-0.2-0.3-0.4-0.6-0.6c-0.1-0.1-0.3-0.2-0.5-0.3
				c-0.2-0.1-0.4-0.2-0.6-0.3c-0.4-0.2-0.9-0.3-1.3-0.4C16.6,1,15.7,1,15,1.1C14.3,1.2,13.9,1.3,13.9,1.3L13.9,1.3z"/>
		</g>
		<g>
			<path fill="#8C7B18" d="M15.1-0.4c0,0,1.6,0.2,3.1,0.8c0.4,0.1,0.7,0.3,1.1,0.5c0.3,0.1,0.7,0.2,0.9,0.3c0.3,0.1,0.5,0.1,0.7,0.2
				c0.2,0,0.3,0.1,0.3,0.1l0-0.1c0,0-0.1-0.1-0.2-0.2c-0.1-0.1-0.3-0.3-0.6-0.5c-0.3-0.2-0.6-0.4-0.9-0.5c-0.4-0.1-0.8-0.2-1.2-0.3
				c-0.8-0.2-1.6-0.3-2.2-0.3C15.5-0.5,15.1-0.5,15.1-0.4L15.1-0.4z"/>
		</g>
		<g>
			<path fill="#8C7B18" d="M14.9-2.6c0,0,0.4,0,1.1,0.1c0.6,0.1,1.5,0.3,2.2,0.6c0.4,0.2,0.7,0.4,1.1,0.6c0.4,0.2,0.7,0.3,1,0.5
				c0.3,0.1,0.5,0.2,0.7,0.3c0.2,0.1,0.3,0.1,0.3,0.1l0-0.1c0,0-0.1-0.1-0.2-0.3c-0.1-0.2-0.3-0.4-0.6-0.6c-0.2-0.2-0.6-0.5-0.9-0.7
				c-0.4-0.2-0.8-0.3-1.2-0.4c-0.9-0.2-1.7-0.3-2.4-0.3C15.4-2.7,14.9-2.7,14.9-2.6L14.9-2.6z"/>
		</g>
		<g>
			<path fill="#8C7B18" d="M15-4.2c0,0,0.3,0,0.8,0c0.5,0.1,1.1,0.2,1.7,0.4c0.3,0.1,0.6,0.2,0.8,0.4c0.3,0.1,0.5,0.2,0.8,0.2
				c0.2,0.1,0.4,0.1,0.6,0.1c0.1,0,0.2,0,0.2,0l0-0.1c0,0,0-0.1-0.1-0.2c-0.1-0.1-0.2-0.3-0.4-0.4c-0.2-0.2-0.5-0.3-0.8-0.4
				c-0.3-0.1-0.6-0.2-1-0.2c-0.7-0.1-1.3-0.1-1.8,0C15.3-4.4,15-4.3,15-4.2L15-4.2z"/>
		</g>
		<g>
			<path fill="#8C7B18" d="M23.1,6.1c0,0,0.4,0.2,0.7,0.4c0.1,0.1,0.2,0.1,0.3,0.1c0.1,0,0.2,0,0.3,0c0.1,0,0.2-0.1,0.2-0.1
				c0.1,0,0.1-0.1,0.1-0.1l0-0.1c0,0,0,0,0-0.1c0-0.1-0.1-0.1-0.1-0.2C24.4,6,24.4,6,24.3,6c-0.1,0-0.2,0-0.3,0
				C23.6,6,23.1,6.1,23.1,6.1L23.1,6.1z"/>
		</g>
		<g>
			<path fill="#8C7B18" d="M22.7,4.6c0,0,0.7,0.2,1.2,0.6c0.1,0.1,0.2,0.2,0.4,0.3c0.1,0.1,0.3,0.1,0.4,0.1c0.1,0,0.2,0,0.3,0.1
				c0.1,0,0.1,0,0.1,0l0.1-0.1c0,0,0-0.1,0-0.1c0-0.1-0.1-0.2-0.1-0.3c-0.1-0.1-0.2-0.2-0.3-0.3c-0.2-0.1-0.3-0.1-0.5-0.2
				c-0.4-0.1-0.7-0.1-1-0.1C22.9,4.5,22.7,4.5,22.7,4.6L22.7,4.6z"/>
		</g>
		<g>
			<path fill="#8C7B18" d="M23.6,3.1c0,0,0.5,0.4,0.9,0.8c0.1,0.1,0.2,0.2,0.3,0.3c0.1,0.1,0.2,0.1,0.3,0.2c0.1,0,0.2,0.1,0.3,0.1
				c0.1,0,0.1,0,0.1,0l0.1-0.1c0,0,0-0.1,0-0.1c0-0.1,0-0.2-0.1-0.3c0-0.1-0.1-0.2-0.2-0.3c-0.1-0.1-0.3-0.1-0.4-0.2
				C24.3,3.1,23.6,3,23.6,3.1L23.6,3.1z"/>
		</g>
		<g>
			<path fill="#8C7B18" d="M24.1,0.2c0,0,0.4,0.4,0.7,0.8c0.1,0.1,0.1,0.2,0.2,0.3c0.1,0.1,0.2,0.1,0.3,0.2c0.1,0,0.2,0.1,0.3,0.1
				c0.1,0,0.1,0,0.1,0l0.1,0c0,0,0-0.1,0-0.1c0-0.1,0-0.2,0-0.3c0-0.1-0.1-0.2-0.2-0.3c-0.1-0.1-0.2-0.2-0.4-0.2
				C24.7,0.2,24.1,0.2,24.1,0.2L24.1,0.2z"/>
		</g>
		<g>
			<path fill="#8C7B18" d="M25-1.4c0,0,0.3,0.5,0.5,1.1c0,0.1,0.1,0.3,0.1,0.4c0.1,0.1,0.1,0.2,0.2,0.3C25.9,0.5,26,0.6,26,0.6
				c0.1,0,0.1,0.1,0.1,0.1l0.1,0c0,0,0,0,0.1-0.1c0-0.1,0.1-0.2,0.1-0.3c0-0.1,0-0.3-0.1-0.4c-0.1-0.1-0.2-0.3-0.3-0.4
				C25.6-1.1,25.1-1.4,25-1.4L25-1.4z"/>
		</g>
		<g>
			<path fill="#8C7B18" d="M3.3,11.2c0,0,0.1-0.2,0-0.5c0-0.2-0.1-0.3,0-0.5C3.5,10,3.7,9.9,3.9,9.8C4.4,9.7,5,9.5,5.6,9.4
				c0.3-0.1,0.6-0.2,0.9-0.2c0.3,0,0.5,0.2,0.8,0.4c0.2,0.2,0.5,0.5,0.8,0.7c0.3,0.2,0.5,0.4,0.6,0.7c0.2,0.2,0.2,0.4,0.2,0.6
				c0,0.2-0.1,0.5-0.1,0.8c-0.1,0.5-0.3,0.9-0.3,1.2C8.4,13.8,8.3,14,8.3,14l0.1,0c0,0,0.5-0.5,1-1.5c0.1-0.3,0.2-0.5,0.3-0.9
				c0.1-0.4-0.1-0.8-0.3-1.2c-0.2-0.3-0.5-0.5-0.8-0.7C8.2,9.5,8,9.3,7.7,9.1C7.4,8.9,7,8.7,6.5,8.7c-0.4,0-0.8,0.1-1.1,0.3
				C4.9,9.2,4.3,9.4,3.8,9.6c-0.2,0.1-0.5,0.3-0.6,0.5c-0.1,0.2,0,0.5,0,0.6C3.3,11,3.3,11.2,3.3,11.2L3.3,11.2z"/>
		</g>
		<g>
			<path fill="#8C7B18" d="M4.5,13c0,0-0.1-0.1-0.1-0.2c0-0.2,0-0.4,0.2-0.6c0.2-0.2,0.6-0.3,0.9-0.5c0.2-0.1,0.4-0.2,0.6-0.3
				c0.1,0,0.2-0.1,0.2-0.1c0,0,0,0,0.1,0.1c0.1,0.1,0.3,0.3,0.4,0.4C6.9,11.8,7,12,7.1,12.1c0.1,0.1,0.1,0.2,0,0.3
				c0,0.1-0.1,0.2-0.2,0.4c-0.2,0.3-0.2,0.7-0.2,0.9c0,0.2,0.1,0.3,0.1,0.3l0.1,0c0,0,0-0.1,0.1-0.3c0-0.1,0.1-0.2,0.2-0.3
				c0.1-0.1,0.2-0.2,0.3-0.3c0.1-0.1,0.2-0.3,0.4-0.5c0.1-0.2,0.1-0.6,0-0.8c-0.1-0.3-0.3-0.4-0.4-0.6c-0.2-0.2-0.3-0.3-0.6-0.4
				c-0.1-0.1-0.3-0.2-0.5-0.1c-0.2,0.1-0.3,0.1-0.4,0.2c-0.2,0.1-0.4,0.2-0.5,0.3c-0.3,0.2-0.7,0.4-0.9,0.7
				c-0.2,0.3-0.2,0.6-0.2,0.8C4.4,12.9,4.5,13,4.5,13L4.5,13z"/>
		</g>
		<g>
			<path fill="#8C7B18" d="M5.6,13.3C5.7,13.1,5.9,13,6,12.9l-0.3-0.1c0,0.2-0.1,0.5-0.1,0.7c0,0.1,0,0.2,0,0.3
				c0,0.1,0.1,0.3,0.2,0.4l0.1,0C6,14.2,6.1,14.1,6.2,14c0.1-0.1,0.1-0.3,0.1-0.4c0-0.3-0.1-0.6-0.2-0.8L6,12.4l-0.2,0.2
				C5.6,12.8,5.5,13,5.6,13.3L5.6,13.3z"/>
		</g>
		<g>
			<path fill="#8C7B18" d="M-2.7,13.7c0,0-0.1-0.1-0.4-0.3c-0.1-0.1-0.2-0.2-0.4-0.4c-0.1-0.1-0.4-0.3-0.5-0.5
				c-0.1-0.2-0.2-0.4-0.1-0.7c0.1-0.3,0.1-0.6,0.3-0.9c0.1-0.3,0.3-0.6,0.5-0.8C-3.2,10-3.1,10-3,10c0.1,0,0.3,0,0.5,0.1
				c0.3,0.1,0.6,0.1,0.9,0.3c0.1,0.1,0.5,0.5,0.7,0.6c0.5,0.5,0.9,0.9,1.3,1.2c0.4,0.3,0.7,0.6,1,0.8c0.2,0.2,0.4,0.3,0.4,0.3
				l0.1-0.1c0,0-0.1-0.2-0.3-0.4c-0.2-0.3-0.4-0.6-0.8-1c-0.3-0.4-0.7-0.9-1.2-1.4c-0.2-0.2-0.3-0.2-0.4-0.4l-0.2-0.2
				c-0.1-0.1-0.2-0.1-0.3-0.2c-0.4-0.2-0.8-0.2-1.1-0.2c-0.2,0-0.3,0-0.6,0c-0.3,0-0.5,0.2-0.6,0.4c-0.2,0.3-0.4,0.6-0.5,1
				c-0.1,0.3-0.2,0.7-0.2,1c0,0.3,0,0.7,0.2,0.9c0.2,0.2,0.4,0.3,0.6,0.5c0.2,0.1,0.3,0.2,0.4,0.3C-2.9,13.6-2.8,13.7-2.7,13.7
				L-2.7,13.7z"/>
		</g>
		<g>
			<path fill="#8C7B18" d="M1,14.8c0,0-0.7-0.9-1.5-1.7c-0.2-0.2-0.4-0.4-0.5-0.6c-0.2-0.2-0.4-0.3-0.6-0.4
				c-0.2-0.1-0.4-0.2-0.5-0.2c-0.1,0-0.2-0.1-0.2-0.1l-0.1,0.1c0,0,0,0.1,0.1,0.2c0,0.1,0.1,0.3,0.3,0.5c0.1,0.2,0.3,0.4,0.5,0.6
				c0.2,0.2,0.4,0.3,0.7,0.5C0,14.2,1,14.8,1,14.8L1,14.8z"/>
		</g>
		<g>
			<path fill="#8C7B18" d="M2.8,14c0,0,0.1,0.5,0.3,0.8c0.1,0.1,0.1,0.2,0.2,0.3c0.1,0.1,0.2,0.1,0.3,0.1c0.1,0,0.2,0,0.3,0
				c0.1,0,0.1,0,0.1,0l0-0.1c0,0,0-0.1,0-0.1c0-0.1,0-0.2,0-0.3c0-0.1-0.1-0.2-0.1-0.2c-0.1-0.1-0.2-0.1-0.3-0.2
				C3.3,14.2,2.9,14,2.8,14L2.8,14z"/>
		</g>
		<g>
			<path fill="#8C7B18" d="M-6,11.6c0,0,0,0.2,0,0.4c0,0,0,0.1,0,0.1c0,0,0.1,0,0.1,0c0.1,0,0.2-0.1,0.3-0.1l0.1,0
				c0,0,0.1-0.1,0.1-0.2c0-0.1,0-0.1,0-0.1c0,0-0.1,0-0.1,0C-5.7,11.5-6,11.5-6,11.6L-6,11.6z"/>
		</g>
		<g>
			<path fill="#8C7B18" d="M-2.7,15.7c0,0-0.9-0.5-1.7-1c-0.2-0.1-0.4-0.3-0.6-0.4C-5.2,14.1-5.4,14-5.6,14
				c-0.2-0.1-0.3-0.1-0.5-0.1c-0.1,0-0.2,0-0.2,0l0,0.1c0,0,0,0.1,0.1,0.2c0.1,0.1,0.2,0.2,0.3,0.4c0.1,0.2,0.3,0.3,0.5,0.4
				c0.2,0.1,0.5,0.2,0.7,0.3C-3.7,15.6-2.7,15.8-2.7,15.7L-2.7,15.7z"/>
		</g>
		<g>
			<path fill="#8C7B18" d="M-6,15.4c0,0,0.8,0.7,1.8,1.2c0.2,0.1,0.5,0.3,0.7,0.4c0.2,0.1,0.5,0.1,0.7,0.1c0.2,0,0.4,0,0.5,0
				c0.1,0,0.2,0,0.2,0l0-0.1c0,0-0.1-0.1-0.2-0.1c-0.1-0.1-0.2-0.2-0.4-0.3c-0.2-0.1-0.4-0.2-0.6-0.3C-3.5,16.1-3.8,16.1-4,16
				C-5,15.7-6,15.4-6,15.4L-6,15.4z"/>
		</g>
		<g>
			<path fill="#8C7B18" d="M11.2,11c0,0,0.3,0.2,0.5,0.7c0.1,0.2,0.1,0.5,0,0.8c0,0.2,0,0.3-0.1,0.5c0,0.1,0,0.2,0,0.2l-0.1,0.2
				c0,0.1-0.1,0.1-0.2,0.2c-0.1,0.1-0.3,0.2-0.4,0.2c-0.3,0.2-0.5,0.4-0.7,0.6c-0.3,0.4-0.5,0.8-0.5,0.8l0.1,0.1c0,0,0.1,0,0.2-0.1
				c0.1-0.1,0.3-0.2,0.6-0.3c0.2-0.1,0.5-0.3,0.7-0.4c0.1-0.1,0.3-0.2,0.4-0.3c0.1-0.1,0.4-0.3,0.4-0.6l0-0.3c0-0.2,0-0.2,0-0.3
				c0-0.2,0-0.4,0-0.5c0-0.3-0.1-0.7-0.2-0.9C11.7,11,11.2,10.9,11.2,11L11.2,11z"/>
		</g>
		<g>
			<path fill="#8C7B18" d="M14,14.5c0,0,0.7-0.2,1.8-0.7c0.5-0.3,1.1-0.6,1.7-1c0.3-0.2,0.6-0.4,0.9-0.8c0.1-0.2,0.3-0.4,0.3-0.6
				c0-0.3,0-0.5,0-0.7c-0.1-0.4-0.2-0.8-0.3-1.1c-0.1-0.3-0.2-0.8-0.7-1.2c-0.1,0-0.1-0.1-0.2-0.1c-0.1,0-0.2,0-0.2,0
				c-0.1,0-0.3,0-0.4,0c-0.2,0.1-0.4,0.1-0.5,0.2c-0.3,0.1-0.6,0.2-0.8,0.3c-0.5,0.2-1,0.3-1.3,0.4c-0.3,0.1-0.5,0.1-0.5,0.1l0,0.1
				c0,0,0.8,0.1,2-0.1c0.3-0.1,0.6-0.1,0.9-0.2c0.3-0.1,0.6-0.2,0.7-0.1c0.1,0,0.3,0.4,0.4,0.7c0.1,0.3,0.3,0.7,0.4,1
				c0.1,0.3,0.1,0.6-0.1,0.9c-0.2,0.3-0.5,0.5-0.8,0.7c-0.6,0.4-1.1,0.8-1.6,1.1C14.7,14.1,14,14.4,14,14.5L14,14.5z"/>
		</g>
		<g>
			<path fill="#8C7B18" d="M14.2,11.2c0.5-0.2,1.1-0.4,1.6-0.3c0.1,0,0.2,0.1,0.4,0.1c0.1,0.1,0.2,0.1,0.3,0.2
				c0.1,0.2,0.2,0.4,0.3,0.7l0.1-0.3c-0.5,0.4-1,0.8-1.5,1.1c-0.5,0.4-1,0.7-1.6,1.2l0,0.1c0.3,0,0.7-0.1,1-0.2
				c0.3-0.1,0.6-0.2,0.9-0.4c0.6-0.3,1.1-0.9,1.5-1.4l0.1-0.2l-0.1-0.2c-0.1-0.3-0.3-0.6-0.5-0.8c-0.1-0.1-0.3-0.2-0.4-0.3
				c-0.2-0.1-0.3-0.1-0.5-0.1C15.3,10.5,14.7,10.8,14.2,11.2L14.2,11.2z"/>
		</g>
		<g>
			<path fill="#8C7B18" d="M13.9,12.5c0,0,0.1,0,0.3-0.1c0.1,0,0.2,0,0.3,0.1c0,0,0,0,0,0.1c0,0,0,0,0,0c0,0-0.1,0.1-0.1,0.1
				c0,0-0.1,0.1-0.1,0.1c0,0,0,0.1-0.1,0.1c0,0.1-0.1,0.2-0.1,0.3c0,0.1-0.1,0.1-0.1,0.1l0,0.1c0,0,0.2,0.1,0.5,0
				c0.1,0,0.1,0,0.2-0.1c0.1,0,0.1-0.1,0.2-0.2c0.1-0.2,0.2-0.4,0.1-0.7c0-0.1-0.1-0.2-0.2-0.3c-0.1-0.1-0.2-0.1-0.3-0.1
				c-0.2,0-0.3,0.1-0.4,0.1C14,12.3,13.9,12.4,13.9,12.5L13.9,12.5z"/>
		</g>
		<g>
			<path fill="#8C7B18" d="M20.7,12.1c0,0,0.4-0.2,0.7-0.6c0.1-0.1,0.2-0.2,0.2-0.3c0-0.1,0-0.2,0-0.3c0-0.1-0.1-0.2-0.1-0.2
				c0-0.1-0.1-0.1-0.1-0.1l-0.1,0c0,0-0.2,0.1-0.3,0.2c-0.1,0.1-0.1,0.1-0.1,0.2c0,0.1,0,0.2,0,0.3C20.7,11.7,20.6,12.1,20.7,12.1
				L20.7,12.1z"/>
		</g>
		<g>
			<path fill="#8C7B18" d="M17,16.1c0,0,0.5-0.3,1.3-0.8c0.8-0.5,1.7-1.3,2.6-2.1c0.4-0.4,0.9-0.9,1.2-1.3c0.3-0.5,0.6-0.9,0.8-1.3
				c0.2-0.4,0.3-0.8,0.4-1C23.4,9.2,23.5,9,23.5,9l-0.1,0c0,0-0.1,0.1-0.3,0.3c-0.2,0.2-0.4,0.5-0.7,0.8c-0.3,0.4-0.6,0.8-0.9,1.2
				c-0.3,0.4-0.7,0.9-1,1.4c-0.8,0.9-1.6,1.7-2.3,2.3C17.4,15.7,16.9,16,17,16.1L17,16.1z"/>
		</g>
		<g>
			<path fill="none" d="M23.5,8.7"/>
		</g>
		<g>
			<path fill="#8C7B18" d="M-0.5,17.4c0,0,0.6-0.3,1.1-0.4c0.1,0,0.3-0.1,0.4-0.1c0.1-0.1,0.2-0.1,0.3-0.2c0.1-0.1,0.1-0.2,0.2-0.3
				c0-0.1,0.1-0.1,0.1-0.1l0-0.1c0,0,0,0-0.1-0.1c-0.1,0-0.2,0-0.3-0.1c-0.1,0-0.3,0-0.4,0.1c-0.1,0.1-0.2,0.2-0.4,0.3
				C-0.2,16.8-0.6,17.3-0.5,17.4L-0.5,17.4z"/>
		</g>
		<g>
			<path fill="#8C7B18" d="M-1.3,15.7c0,0,0.7,0.3,1.4,0.5c0.2,0.1,0.3,0.1,0.5,0.2c0.2,0,0.3,0,0.5,0c0.1,0,0.3-0.1,0.4-0.1
				c0.1,0,0.1-0.1,0.1-0.1l0-0.1c0,0,0-0.1-0.1-0.1c-0.1-0.1-0.2-0.1-0.3-0.2c-0.1-0.1-0.3-0.1-0.4-0.2c-0.2,0-0.4,0-0.5,0
				C-0.5,15.5-1.3,15.6-1.3,15.7L-1.3,15.7z"/>
		</g>
		<g>
			<path fill="#8C7B18" d="M12.4,15.8c0,0,0.8,0.2,1.5,0.5c0.2,0.1,0.3,0.2,0.5,0.3c0.2,0.1,0.3,0.1,0.5,0.1c0.2,0,0.3,0,0.4,0
				c0.1,0,0.2,0,0.2,0l0-0.1c0,0,0-0.1-0.1-0.2c-0.1-0.1-0.1-0.2-0.3-0.3c-0.1-0.1-0.3-0.2-0.5-0.3c-0.2-0.1-0.4-0.1-0.6-0.1
				c-0.4-0.1-0.8-0.1-1.2,0C12.6,15.7,12.4,15.8,12.4,15.8L12.4,15.8z"/>
		</g>
		<g>
			<path fill="#8C7B18" d="M14.4,16.1c0,0,0.3,0,0.8-0.1c0.5-0.1,1.1-0.5,1.6-0.8c0.3-0.2,0.5-0.4,0.8-0.5c0.2-0.2,0.4-0.4,0.5-0.6
				c0.3-0.4,0.4-0.7,0.4-0.7l0-0.1c0,0-0.1,0-0.2,0.1c-0.1,0-0.3,0.1-0.6,0.2c-0.2,0.1-0.4,0.3-0.7,0.5c-0.2,0.2-0.4,0.4-0.6,0.7
				c-0.4,0.4-0.9,0.8-1.3,1C14.7,15.9,14.4,16,14.4,16.1L14.4,16.1z"/>
		</g>
		<g>
			<path fill="#8C7B18" d="M2.6,18.6L2,18.1l0,0.1c0.3-0.4,0.8-0.4,1.3-0.5c0.5-0.1,1-0.1,1.5-0.2c1-0.1,2-0.1,3-0.1c1,0,2,0,3,0.1
				c0.5,0,1,0.1,1.4,0.2c0.2,0,0.5,0.1,0.6,0.2c0.1,0.1,0.1,0.4-0.1,0.3l0,0.1c0.3,0.2,0.7-0.3,0.5-0.6c-0.2-0.3-0.5-0.4-0.7-0.5
				c-0.5-0.2-1-0.3-1.5-0.4c-1-0.2-2.1-0.1-3.1,0c-1,0.1-2,0.2-3,0.3c-0.5,0.1-1,0.2-1.5,0.3c-0.5,0.1-1,0.3-1.4,0.7l0,0.1l0.1,0
				L2.6,18.6L2.6,18.6z"/>
		</g>
		<g>
			<path fill="#8C7B18" d="M5.5,19.2l-0.6-0.6l0,0.2c0.9-0.4,1.9-0.3,2.9-0.2c0.5,0,1,0,1.5,0c0.5,0,0.9,0,1.4,0.1l0-0.1
				c-0.3-0.5-0.9-0.7-1.4-0.8c-0.5-0.1-1,0-1.5,0c-0.5,0.1-1,0.1-1.5,0.2c-0.5,0.1-1,0.2-1.5,0.5l-0.1,0.1l0.1,0.1L5.5,19.2
				L5.5,19.2z"/>
		</g>
		<g>
			<path fill="#8C7B18" d="M-16.2-1.5c0,0,0.3,0.4,0.8,1c0.2,0.3,0.5,0.7,0.8,1.1c0.1,0.1,0.3,0.3,0.5,0.2c0.2,0,0.3-0.1,0.4-0.2
				c0.2-0.1,0.5-0.3,0.7-0.4l0.4-0.2c0.1-0.1,0.2-0.1,0.3-0.2c0.2-0.2,0.5-0.4,0.6-0.7c0.1-0.3,0.1-0.6,0.1-0.9
				c-0.1-0.3-0.2-0.5-0.3-0.7c-0.3-0.3-0.6-0.5-0.8-0.6C-12.9-3.3-13-3.3-13-3.3l0,0.1c0,0,0.1,0.1,0.2,0.3c0.1,0.2,0.3,0.4,0.5,0.8
				c0.1,0.1,0.1,0.3,0.1,0.5c0,0.2,0,0.3-0.1,0.5c0,0.1-0.2,0.3-0.3,0.4c-0.1,0.1-0.2,0.2-0.3,0.2l-0.3,0.2
				c-0.2,0.2-0.4,0.3-0.6,0.4c-0.1,0.1-0.2,0.1-0.2,0.2c0,0,0,0-0.1-0.1c-0.4-0.3-0.7-0.7-1-0.9C-15.8-1.2-16.2-1.6-16.2-1.5
				L-16.2-1.5z"/>
		</g>
		<g>
			<path fill="#8C7B18" d="M-15-2.3c0,0,0.1,0.2,0.2,0.5c0.1,0.2,0.2,0.3,0.3,0.5c0.2,0.2,0.5,0.3,0.8,0.3c0.2,0,0.4-0.1,0.5-0.4
				l0-0.1c0-0.1,0-0.1,0-0.2c0-0.1,0-0.2,0-0.3c-0.1-0.3-0.3-0.4-0.4-0.5c-0.3-0.2-0.4-0.3-0.4-0.3l-0.1,0c0,0,0,0.1-0.1,0.2
				c0,0.1,0,0.3,0.1,0.5c0.1,0.2,0.2,0.4,0.2,0.4c0,0,0,0,0,0c0,0,0,0,0,0l0,0.1c0-0.1,0,0,0,0c-0.1,0.1-0.2,0.1-0.4,0
				c-0.1-0.1-0.3-0.2-0.4-0.3C-14.8-2.2-15-2.4-15-2.3L-15-2.3z"/>
		</g>
		<g>
			<path fill="#8C7B18" d="M-17.6-0.1c0,0,0.3,0.5,0.7,1c0.1,0.1,0.2,0.3,0.3,0.4c0.1,0.1,0.2,0.2,0.4,0.2c0.1,0,0.2,0.1,0.3,0.1
				c0.1,0,0.1,0,0.1,0l0.1-0.1c0,0,0-0.1,0-0.1c0-0.1,0-0.2-0.1-0.3c0-0.1-0.1-0.2-0.2-0.3c-0.1-0.1-0.3-0.2-0.4-0.2
				C-17,0.1-17.5-0.2-17.6-0.1L-17.6-0.1z"/>
		</g>
		<g>
			<path fill="#8C7B18" d="M-10.7-5.1c0,0,0.1,0.1,0.1,0.3c0.1,0.2,0.1,0.4,0.3,0.8c0.1,0.3,0.4,0.7,0.8,1c0.4,0.3,0.9,0.4,1.5,0.3
				c0.3,0,0.5-0.1,0.7-0.3c0.2-0.1,0.4-0.3,0.6-0.6c0.1-0.1,0.1-0.3,0.1-0.5c0-0.2-0.1-0.3-0.1-0.4C-6.9-4.6-6.9-4.8-7-5
				c-0.2-0.3-0.3-0.5-0.5-0.7c-0.1-0.2-0.2-0.3-0.2-0.3l-0.1,0c0,0,0,0.1,0,0.3c0,0.2,0.1,0.5,0.1,0.8c0,0.2,0.1,0.3,0.1,0.5
				C-7.4-4-7.4-4-7.4-3.9c0,0.1-0.2,0.2-0.3,0.4c-0.1,0.1-0.3,0.2-0.5,0.3C-8.6-3.2-9-3.3-9.3-3.4c-0.3-0.2-0.6-0.4-0.7-0.7
				c-0.2-0.3-0.3-0.6-0.4-0.7C-10.6-5-10.6-5.1-10.7-5.1L-10.7-5.1z"/>
		</g>
		<g>
			<path fill="#8C7B18" d="M-9.7-5.4c0,0,0.1,0.2,0.2,0.5c0.1,0.1,0.1,0.3,0.2,0.5c0,0.1,0.1,0.2,0.2,0.3C-9-4.1-8.9-4-8.7-4
				c0,0,0.1,0,0.2,0c0.1,0,0.1-0.1,0.2-0.1c0.2-0.2,0.2-0.3,0.2-0.5c0-0.2,0-0.3,0-0.4c-0.1-0.2-0.2-0.4-0.3-0.5
				c-0.3-0.2-0.6-0.3-0.6-0.3l-0.1,0.1c0,0,0,0.2,0.1,0.5C-9-5.1-9-4.9-9-4.8c0,0.1,0.1,0.2,0.1,0.2c0,0,0,0.1,0,0.1c0,0,0,0,0,0
				c0,0,0.1,0,0,0c0.1,0,0.1,0,0,0c0,0-0.1-0.1-0.2-0.1C-9-4.8-9.1-4.9-9.2-5.1C-9.4-5.3-9.6-5.4-9.7-5.4L-9.7-5.4z"/>
		</g>
		<g>
			<path fill="#8C7B18" d="M-5.8-7.2c0,0,0.2,0.5,0.5,1.2C-5.2-5.7-5-5.2-4.8-4.8l0.1,0.2c0,0,0,0,0.1,0.1c0,0,0.1,0.1,0.1,0.1
				C-4.3-4.3-4.1-4.3-4-4.3c0.3,0,0.5,0,0.8-0.1c0.3-0.1,0.6-0.2,0.8-0.5C-2.1-5.1-2-5.5-2-5.8c0-0.6-0.3-1.1-0.5-1.4
				C-2.7-7.5-2.9-7.7-3-7.9c-0.1-0.2-0.2-0.3-0.2-0.3l-0.1,0c0,0,0,0.1,0.1,0.4c0,0.2,0.1,0.5,0.3,0.9c0.1,0.4,0.3,0.7,0.3,1.1
				c0,0.4-0.1,0.7-0.5,0.8C-3.5-4.9-3.7-4.9-4-4.9c-0.1,0-0.2,0-0.3,0c0,0,0,0,0,0c0.1,0.1,0,0,0,0c0,0-0.1-0.1-0.1-0.1
				c-0.3-0.4-0.5-0.8-0.7-1.1C-5.5-6.8-5.8-7.2-5.8-7.2L-5.8-7.2z"/>
		</g>
		<g>
			<path fill="#8C7B18" d="M-4.8-7.6c0,0,0.1,0.3,0.2,0.6c0,0.1,0,0.2,0,0.2c0,0,0.1,0.1,0.2,0.1c0.1,0,0.3,0,0.3,0l0.1,0
				c0,0,0,0,0.1-0.1c0-0.1,0-0.1,0.1-0.2c0-0.1,0-0.2,0-0.2C-4-7.2-4.1-7.3-4.2-7.3C-4.4-7.5-4.8-7.6-4.8-7.6L-4.8-7.6z"/>
		</g>
		<g>
			<path fill="#8C7B18" d="M-1.7-8.9c0,0,0.1,0.4,0.3,0.9c0.1,0.3,0.2,0.6,0.3,1C-1-6.8-0.8-6.6-0.6-6.5C-0.3-6.4,0-6.4,0.2-6.4
				c0.2,0,0.4-0.1,0.6-0.1C1-6.6,1.2-6.7,1.4-6.8c0,0,0.1-0.1,0.1-0.1l0,0l0,0l0-0.1c0.1-0.1,0.1-0.2,0.2-0.3c0.1-0.2,0.1-0.4,0-0.6
				C1.8-8.4,1.7-8.6,1.6-8.8C1.5-8.9,1.4-9,1.4-9L1.4-9c0,0,0,0.4-0.1,1c0,0.1-0.1,0.2-0.1,0.3c0,0.1-0.1,0.1-0.1,0.1l0,0.1l0,0l0,0
				c0,0,0,0,0,0l0,0l0,0l0,0L0.9-7.4C0.8-7.3,0.4-7.1,0-7c-0.2,0-0.3,0.1-0.4,0c-0.1,0-0.2-0.1-0.3-0.2C-0.8-7.5-1-7.8-1.2-8.1
				C-1.4-8.6-1.6-8.9-1.7-8.9L-1.7-8.9z"/>
		</g>
		<g>
			<path fill="#8C7B18" d="M-0.4-9.2c0,0,0,0.1,0,0.3c0,0.1-0.1,0.2,0,0.4c0,0,0,0.1,0.1,0.1c0.1,0.1,0,0,0,0.1c0,0,0.1,0.1,0.1,0.1
				c0.1,0.1,0.3,0.1,0.4,0c0.2,0,0.4-0.2,0.5-0.4c0-0.1,0-0.2,0-0.3c0-0.1-0.1-0.1-0.1-0.2C0.4-9.3,0.2-9.4,0.2-9.4l-0.1,0
				C0.1-9.3,0-9.2,0-9c0,0,0,0.1,0,0.1c0,0,0,0,0,0c0-0.1,0.1,0,0.1,0c0,0,0,0,0,0c0,0,0,0,0,0c0,0-0.1,0,0,0c0,0,0,0,0,0
				c0,0-0.1-0.1-0.1-0.2C-0.2-9.2-0.4-9.3-0.4-9.2L-0.4-9.2z"/>
		</g>
		<g>
			<path fill="#8C7B18" d="M3.7-10.2c0,0,0.1,0.4,0.1,1.1c0,0.2,0,0.3,0.1,0.6C4-8.3,4.3-8.1,4.6-8C4.8-8,5-8,5.2-8
				c0.2,0,0.4,0,0.7,0.1c0.5,0,0.9,0.1,1.3,0.1C7.5-7.8,7.8-7.9,8-8c0.2-0.2,0.4-0.3,0.5-0.5c0.2-0.4,0.2-0.7,0.2-0.9
				c0-0.2,0-0.3,0-0.3l-0.1,0c0,0-0.1,0.1-0.2,0.3C8.3-9.3,8.2-9.1,8-8.9C7.9-8.8,7.7-8.7,7.6-8.7C7.5-8.6,7.4-8.6,7.2-8.6
				c-0.4,0-0.9,0-1.3,0.1c-0.2,0-0.5,0-0.7,0c-0.2,0-0.5,0-0.6,0c-0.2,0-0.2-0.1-0.3-0.2C4.2-8.8,4.2-9,4.1-9.2
				C3.9-9.8,3.8-10.2,3.7-10.2L3.7-10.2z"/>
		</g>
		<g>
			<path fill="#8C7B18" d="M5-10.2c0,0-0.1,0-0.1,0.2c0,0.1-0.1,0.3,0,0.5C5.1-9.3,5.3-9.1,5.6-9C5.9-9,6.2-9,6.4-8.9
				c0.3,0,0.6,0,0.9,0c0.1-0.1,0.3-0.1,0.4-0.2c0.1-0.1,0.2-0.2,0.3-0.3C8-9.8,8.1-10,8-10.1c0-0.1-0.1-0.2-0.1-0.2l-0.1,0
				c0,0-0.1,0.3-0.4,0.4c-0.1,0-0.1,0.1-0.2,0.1c0,0-0.2,0.1-0.2,0.1C6.9-9.7,6.6-9.6,6.4-9.5c-0.5,0.1-1,0.1-1.2-0.1
				C5-9.9,5.1-10.2,5-10.2L5-10.2z"/>
		</g>
		<g>
			<path fill="#8C7B18" d="M6.2-10.8c0,0,0,0.1,0.1,0.2c0.1,0.1,0.3,0.2,0.5,0.3c0.1,0,0.2,0,0.3,0c0.1-0.1,0.2-0.1,0.2-0.2
				c0.1-0.2,0-0.4,0-0.4l-0.1,0c0,0-0.2,0-0.3-0.1c-0.1,0-0.1,0-0.1,0c0,0-0.1,0.1-0.1,0.1c-0.1,0.1-0.2,0.1-0.3,0.1
				C6.3-10.8,6.2-10.8,6.2-10.8L6.2-10.8z"/>
		</g>
		<g>
			<path fill="#8C7B18" d="M11.1-10.4c0,0,0,0.1,0,0.2c0,0.1-0.1,0.3-0.2,0.5c-0.1,0.1-0.1,0.3-0.2,0.4c0,0.2,0,0.4,0.1,0.5
				c0.1,0.4,0.4,0.7,0.8,0.8c0.4,0.2,0.8,0.2,1.1,0.2c0.3,0,0.6-0.1,0.9-0.2c0.5-0.1,0.8-0.2,0.8-0.2l0-0.1c0,0-0.1-0.1-0.2-0.1
				c-0.1-0.1-0.4-0.1-0.6-0.2c-0.3,0-0.6,0-0.9,0c-0.3,0-0.6,0-0.9,0c-0.3-0.1-0.5-0.2-0.6-0.5c-0.1-0.1-0.1-0.2-0.1-0.3
				c0-0.1,0-0.2,0-0.4c0.1-0.2,0.1-0.5,0.1-0.6C11.2-10.3,11.1-10.4,11.1-10.4L11.1-10.4z"/>
		</g>
		<g>
			<path fill="#8C7B18" d="M12.3-10.5c0,0-0.1,0.1-0.2,0.3c-0.1,0.2-0.1,0.5,0,0.8c0,0.2,0.1,0.3,0.2,0.5c0.1,0.1,0.2,0.2,0.4,0.2
				c0.3,0.1,0.5-0.1,0.5-0.1l0-0.1c0,0-0.1-0.2-0.1-0.4c0-0.1-0.1-0.2-0.1-0.2c-0.1-0.1-0.2-0.1-0.2-0.2c-0.1-0.2-0.2-0.4-0.2-0.6
				C12.4-10.3,12.4-10.5,12.3-10.5L12.3-10.5z"/>
		</g>
		<g>
			<path fill="#8C7B18" d="M13.7-10.4c0,0-0.1,0-0.1,0.2c-0.1,0.1,0,0.3,0,0.5c0,0.1,0.1,0.2,0.1,0.3c0.1,0.1,0.2,0.1,0.3,0
				c0.2,0,0.3-0.2,0.3-0.2l0-0.1c0,0-0.1-0.2-0.1-0.3c0-0.1,0-0.1,0-0.1c0,0-0.1,0-0.1,0c-0.1,0-0.2-0.1-0.2-0.2
				C13.8-10.3,13.7-10.4,13.7-10.4L13.7-10.4z"/>
		</g>
		<g>
			<path fill="#8C7B18" d="M17.8-10.5c0,0,0,0.1,0,0.2c0,0.1-0.1,0.3-0.2,0.5c-0.2,0.4-0.3,1-0.5,1.5C17-8.1,17-8,17-7.8
				c0,0.1,0,0.1,0,0.2l0,0.1c0,0.1,0.1,0.2,0.1,0.3c0.2,0.3,0.6,0.4,0.8,0.5c0.5,0.1,0.8,0,0.8,0l0-0.1c0,0-0.1-0.1-0.2-0.1
				c-0.1-0.1-0.3-0.2-0.4-0.3c-0.2-0.1-0.3-0.3-0.4-0.4c0,0,0-0.1-0.1-0.1l0-0.1c0,0,0,0,0,0c0-0.1,0-0.2,0-0.3
				c0.1-0.6,0.2-1.2,0.2-1.6c0-0.2,0.1-0.4,0-0.5C17.9-10.5,17.8-10.5,17.8-10.5L17.8-10.5z"/>
		</g>
		<g>
			<path fill="#8C7B18" d="M19.4-10.3c0,0-0.2,0.1-0.3,0.4c-0.1,0.1-0.2,0.3-0.2,0.6c0,0.1,0,0.2,0,0.3c0,0.1,0.1,0.4,0.3,0.5
				c0.3,0.1,0.5,0,0.6,0C19.8-8.6,20-8.7,20-8.8c0.1-0.1,0.2-0.3,0.3-0.4c0.1-0.2,0.1-0.3,0.1-0.4c0-0.1,0-0.2,0-0.2l-0.1-0.1
				c0,0-0.1,0-0.2,0c-0.1,0-0.2,0.1-0.4,0.2c-0.1,0.1-0.3,0.2-0.4,0.3l-0.1,0.2c0,0-0.1,0,0,0.1c0,0,0,0.1,0,0c0-0.1,0-0.2-0.1-0.2
				c0-0.2,0-0.3,0-0.5C19.3-10.1,19.4-10.3,19.4-10.3L19.4-10.3z"/>
		</g>
		<g>
			<path fill="#8C7B18" d="M22.9-10.1c0,0-0.2,0.3-0.4,0.7c-0.3,0.4-0.5,1-0.7,1.6c-0.1,0.3-0.3,0.6-0.3,1c0,0.2,0,0.3,0.1,0.5
				c0.1,0.2,0.1,0.3,0.2,0.4c0.2,0.2,0.4,0.4,0.6,0.4c0.2,0,0.3,0,0.3,0l0-0.1c0,0-0.3-0.2-0.4-0.6c0-0.1,0-0.2-0.1-0.3
				c0-0.1,0-0.2,0-0.3c0-0.2,0-0.5,0.1-0.9c0.1-0.6,0.3-1.3,0.4-1.7C22.8-9.8,23-10,22.9-10.1L22.9-10.1z"/>
		</g>
		<g>
			<path fill="#8C7B18" d="M24-9.5c-0.5,0.4-0.8,1.1-1,1.7L23-7.3l0.5,0c0.3,0,0.5-0.1,0.7-0.3c0.2-0.2,0.4-0.4,0.4-0.7l-0.1,0
				c-0.3,0.1-0.5,0.1-0.7,0.2c-0.2,0.1-0.4,0.1-0.6,0.2l0.4,0.4C23.7-8.2,23.8-8.8,24-9.5L24-9.5z"/>
		</g>
		<g>
			<path fill="#8C7B18" d="M26.7-8.9c0,0-0.1,0.4-0.4,0.8c-0.3,0.5-0.7,1-1.1,1.7c-0.2,0.3-0.4,0.6-0.6,0.9
				c-0.1,0.2-0.1,0.3-0.2,0.5c0,0.1,0,0.2,0,0.4c0.1,0.2,0.2,0.2,0.2,0.3C24.9-4.1,25-4.1,25.1-4C25.2-4,25.3-4,25.4-3.9
				c0.2,0.1,0.3,0.1,0.3,0.1l0-0.1c0,0,0-0.1-0.1-0.2c0-0.1-0.1-0.2-0.2-0.2c-0.1-0.1-0.2-0.2-0.2-0.3c0-0.1,0,0,0-0.1
				c0.1-0.1,0.1-0.3,0.2-0.4c0.1-0.3,0.2-0.6,0.4-1c0.3-0.6,0.7-1.3,0.8-1.9C26.8-8.5,26.8-8.9,26.7-8.9L26.7-8.9z"/>
		</g>
		<g>
			<path fill="#8C7B18" d="M26.9-6.1c0,0-0.1-0.1,0.1-0.3c0.1-0.1,0.4-0.3,0.6-0.6c0.1-0.1,0.2-0.2,0.3-0.3C27.9-7.4,28-7.5,28-7.6
				c0-0.1,0-0.2,0-0.3c0-0.1,0-0.1,0-0.1l-0.1,0c0,0-0.1,0-0.1,0c-0.1,0-0.2,0.1-0.3,0.1c-0.1,0.1-0.2,0.1-0.3,0.3
				c-0.1,0.1-0.1,0.3-0.2,0.4c-0.1,0.3-0.3,0.5-0.3,0.8c0,0.1,0,0.3,0,0.3C26.8-6.1,26.8-6.1,26.9-6.1L26.9-6.1z"/>
		</g>
	</g>
</symbol>
<g>
	
		<use xlink:href="#New_Symbol_3" width="70.2" height="42.6" id="XMLID_7_" x="-35.1" y="-21.2" transform="matrix(4.5242 0 0 -4.5242 312.0722 350.276)" overflow="visible"/>
	
		<use xlink:href="#New_Symbol_3" width="70.2" height="42.6" id="XMLID_1_" x="-35.1" y="-21.2" transform="matrix(4.5242 0 0 -4.5242 187.8837 150.2965)" overflow="visible"/>
</g>
</svg>
