<?xml version="1.0" encoding="utf-8"?>
<!-- Generator: Adobe Illustrator 18.1.1, SVG Export Plug-In . SVG Version: 6.00 Build 0)  -->
<svg version="1.1" id="Layer_1" xmlns="http://www.w3.org/2000/svg" xmlns:xlink="http://www.w3.org/1999/xlink" x="0px" y="0px"
	 width="500px" height="500px" viewBox="0 0 500 500" enable-background="new 0 0 500 500" xml:space="preserve">
<g>
	<g>
		<path fill="#F2BB64" stroke="#A06D24" stroke-width="3" stroke-miterlimit="10" d="M173.825,423.428
			c-20.061,3.704-40.771,3.942-62.282-0.096c-2.669-0.501-4.74-2.414-5.293-4.796l-5.984-25.794
			c-0.826-3.561,2.549-6.734,6.594-6.269c23.125,2.656,45.081,3.063,65.271,0.072c3.465-0.513,6.593,1.933,6.593,5.066v26.366
			C178.724,420.591,176.695,422.898,173.825,423.428z"/>
		<path fill="#F2BB64" stroke="#A06D24" stroke-width="3" stroke-miterlimit="10" d="M326.175,422.204
			c20.061,3.582,40.771,3.811,62.282-0.093c2.669-0.484,4.74-2.334,5.293-4.637l5.984-24.941c0.826-3.443-2.549-6.511-6.594-6.062
			c-23.125,2.568-45.081,2.962-65.271,0.069c-3.465-0.497-6.593,1.869-6.593,4.898v25.494
			C321.277,419.46,323.305,421.691,326.175,422.204z"/>
		<path fill="#F2BB64" stroke="#A06D24" stroke-width="3" stroke-miterlimit="10" d="M341.203,351.791
			c20.061,3.827,40.771,4.072,62.282-0.099c2.669-0.517,4.74-2.494,5.293-4.955l5.984-26.648c0.826-3.679-2.549-6.956-6.594-6.477
			c-23.125,2.744-45.081,3.165-65.271,0.074c-3.465-0.53-6.593,1.997-6.593,5.233v27.239
			C336.305,348.86,338.333,351.244,341.203,351.791z"/>
		<path fill="#F2BB64" stroke="#A06D24" stroke-width="3" stroke-miterlimit="10" d="M214.403,315.361
			c-20.148,3.827-40.864,4.072-62.28-0.099c-2.657-0.517-4.683-2.494-5.18-4.955l-5.375-26.648
			c-0.742-3.679,2.708-6.956,6.742-6.477c23.062,2.744,45.009,3.165,65.269,0.074c3.477-0.53,6.547,1.997,6.473,5.233l-0.622,27.239
			C219.369,312.43,217.286,314.813,214.403,315.361z"/>
		<path fill="#F2BB64" stroke="#A06D24" stroke-width="3" stroke-miterlimit="10" d="M285.597,315.361
			c20.148,3.827,40.864,4.072,62.28-0.099c2.657-0.517,4.683-2.494,5.18-4.955l5.375-26.648c0.742-3.679-2.708-6.956-6.742-6.477
			c-23.062,2.744-45.009,3.165-65.269,0.074c-3.477-0.53-6.547,1.997-6.473,5.233l0.622,27.239
			C280.631,312.43,282.714,314.813,285.597,315.361z"/>
		<path fill="#F2BB64" stroke="#A06D24" stroke-width="3" stroke-miterlimit="10" d="M222.454,388.222
			c-20.148,3.827-40.864,4.072-62.28-0.099c-2.657-0.517-4.683-2.494-5.18-4.955l-5.375-26.648
			c-0.742-3.679,2.708-6.956,6.742-6.477c23.062,2.744,45.009,3.165,65.269,0.074c3.477-0.53,6.547,1.997,6.473,5.233l-0.622,27.239
			C227.42,385.291,225.337,387.674,222.454,388.222z"/>
		<path fill="#F2BB64" stroke="#A06D24" stroke-width="3" stroke-miterlimit="10" d="M277.546,388.222
			c20.148,3.827,40.864,4.072,62.28-0.099c2.657-0.517,4.683-2.494,5.18-4.955l5.375-26.648c0.742-3.679-2.708-6.956-6.742-6.477
			c-23.062,2.744-45.009,3.165-65.269,0.074c-3.477-0.53-6.547,1.997-6.473,5.233l0.622,27.239
			C272.58,385.291,274.663,387.674,277.546,388.222z"/>
		<path fill="#F2BB64" stroke="#A06D24" stroke-width="3" stroke-miterlimit="10" d="M158.797,351.791
			c-20.061,3.827-40.771,4.072-62.282-0.099c-2.669-0.517-4.74-2.494-5.293-4.955l-5.984-26.648
			c-0.826-3.679,2.549-6.956,6.594-6.477c23.125,2.744,45.081,3.165,65.271,0.074c3.465-0.53,6.593,1.997,6.593,5.233v27.239
			C163.695,348.86,161.667,351.244,158.797,351.791z"/>
		<path fill="#F2BB64" stroke="#A06D24" stroke-width="3" stroke-miterlimit="10" d="M280.581,351.791
			c-20.505,3.827-41.243,4.072-62.271-0.099c-2.609-0.517-4.451-2.494-4.718-4.955l-2.891-26.648
			c-0.399-3.679,3.357-6.956,7.345-6.477c22.807,2.744,44.714,3.165,65.262,0.074c3.527-0.53,6.361,1.997,5.985,5.233l-3.161,27.239
			C285.819,348.86,283.515,351.244,280.581,351.791z"/>
		<path fill="#F2BB64" stroke="#A06D24" stroke-width="3" stroke-miterlimit="10" d="M276.764,424.652
			c-19.385,3.827-38.992,4.072-58.871-0.099c-2.466-0.517-4.208-2.494-4.46-4.955l-2.733-26.648
			c-0.377-3.679,3.173-6.956,6.944-6.477c21.562,2.744,42.273,3.165,61.699,0.074c3.334-0.53,6.014,1.997,5.659,5.233l-2.989,27.239
			C281.717,421.721,279.538,424.105,276.764,424.652z"/>
		<path fill="#F2BB64" stroke="#A06D24" stroke-width="3" stroke-miterlimit="10" d="M142.337,278.93
			c-20.061,3.827-40.771,4.072-62.282-0.099c-2.669-0.517-4.74-2.494-5.293-4.955l-5.984-26.648
			c-0.826-3.679,2.549-6.956,6.594-6.477c23.125,2.744,45.081,3.165,65.271,0.074c3.465-0.53,6.593,1.997,6.593,5.233v27.239
			C147.235,275.999,145.207,278.383,142.337,278.93z"/>
		<path fill="#F2BB64" stroke="#A06D24" stroke-width="3" stroke-miterlimit="10" d="M280.581,278.93
			c-20.505,3.827-41.243,4.072-62.271-0.099c-2.609-0.517-4.451-2.494-4.718-4.955l-2.891-26.648
			c-0.399-3.679,3.357-6.956,7.345-6.477c22.807,2.744,44.714,3.165,65.262,0.074c3.527-0.53,6.361,1.997,5.985,5.233l-3.161,27.239
			C285.819,275.999,283.515,278.383,280.581,278.93z"/>
		<path fill="#F2BB64" stroke="#A06D24" stroke-width="3" stroke-miterlimit="10" d="M357.663,278.93
			c20.061,3.827,40.771,4.072,62.282-0.099c2.669-0.517,4.74-2.494,5.293-4.955l5.984-26.648c0.826-3.679-2.549-6.956-6.594-6.477
			c-23.125,2.744-45.081,3.165-65.271,0.074c-3.465-0.53-6.593,1.997-6.593,5.233v27.239
			C352.765,275.999,354.793,278.383,357.663,278.93z"/>
		<path fill="#F4C573" stroke="#A06D24" stroke-width="3" stroke-miterlimit="10" d="M344.693,388.222
			c18.234,3.827,37.058,4.072,56.61-0.099c2.426-0.517,4.309-2.494,4.811-4.955l5.439-26.648c0.751-3.679-2.317-6.956-5.993-6.477
			c-21.019,2.744-40.976,3.165-59.327,0.074c-3.15-0.53-5.992,1.997-5.992,5.233v27.239
			C340.241,385.291,342.085,387.674,344.693,388.222z"/>
		<path fill="#F4C573" stroke="#A06D24" stroke-width="3" stroke-miterlimit="10" d="M354.085,315.361
			c20.061,3.827,40.771,4.072,62.282-0.099c2.669-0.517,4.74-2.494,5.293-4.955l5.984-26.648c0.826-3.679-2.549-6.956-6.594-6.477
			c-23.125,2.744-45.081,3.165-65.271,0.074c-3.465-0.53-6.593,1.997-6.593,5.233v27.239
			C349.187,312.43,351.215,314.813,354.085,315.361z"/>
		<path fill="#F4C573" stroke="#A06D24" stroke-width="3" stroke-miterlimit="10" d="M287.386,278.93
			c20.148,3.827,40.864,4.072,62.28-0.099c2.657-0.517,4.683-2.494,5.18-4.955l5.375-26.648c0.742-3.679-2.708-6.956-6.742-6.477
			c-23.062,2.744-45.009,3.165-65.269,0.074c-3.477-0.53-6.547,1.997-6.473,5.233l0.622,27.239
			C282.421,275.999,284.503,278.383,287.386,278.93z"/>
		<path fill="#F4C573" stroke="#A06D24" stroke-width="3" stroke-miterlimit="10" d="M279.156,351.791
			c20.148,3.827,40.864,4.072,62.28-0.099c2.657-0.517,4.683-2.494,5.18-4.955l5.375-26.648c0.742-3.679-2.708-6.956-6.742-6.477
			c-23.062,2.744-45.009,3.165-65.269,0.074c-3.477-0.53-6.547,1.997-6.473,5.233l0.622,27.239
			C274.191,348.86,276.273,351.244,279.156,351.791z"/>
		<path fill="#F4C573" stroke="#A06D24" stroke-width="3" stroke-miterlimit="10" d="M271.642,424.652
			c20.148,3.827,40.864,4.072,62.28-0.099c2.657-0.517,4.683-2.494,5.18-4.955l5.375-26.648c0.742-3.679-2.708-6.956-6.742-6.477
			c-23.062,2.744-45.009,3.165-65.269,0.074c-3.477-0.53-6.547,1.997-6.473,5.233l0.622,27.239
			C266.676,421.721,268.759,424.105,271.642,424.652z"/>
		<path fill="#F4C573" stroke="#A06D24" stroke-width="3" stroke-miterlimit="10" d="M145.915,315.361
			c-20.061,3.827-40.771,4.072-62.282-0.099c-2.669-0.517-4.74-2.494-5.293-4.955l-5.984-26.648
			c-0.826-3.679,2.549-6.956,6.594-6.477c23.125,2.744,45.081,3.165,65.271,0.074c3.465-0.53,6.593,1.997,6.593,5.233v27.239
			C150.813,312.43,148.785,314.813,145.915,315.361z"/>
		<path fill="#F4C573" stroke="#A06D24" stroke-width="3" stroke-miterlimit="10" d="M162.017,388.222
			c-20.061,3.827-40.771,4.072-62.282-0.099c-2.669-0.517-4.74-2.494-5.293-4.955l-5.984-26.648
			c-0.826-3.679,2.549-6.956,6.594-6.477c23.125,2.744,45.081,3.165,65.271,0.074c3.465-0.53,6.593,1.997,6.593,5.233v27.239
			C166.915,385.291,164.887,387.674,162.017,388.222z"/>
		<path fill="#F4C573" stroke="#A06D24" stroke-width="3" stroke-miterlimit="10" d="M228.358,424.652
			c-20.148,3.827-40.864,4.072-62.28-0.099c-2.657-0.517-4.683-2.494-5.18-4.955l-5.375-26.648
			c-0.742-3.679,2.708-6.956,6.742-6.477c23.062,2.744,45.009,3.165,65.269,0.074c3.477-0.53,6.547,1.997,6.473,5.233l-0.622,27.239
			C233.324,421.721,231.241,424.105,228.358,424.652z"/>
		<path fill="#F4C573" stroke="#A06D24" stroke-width="3" stroke-miterlimit="10" d="M220.844,351.791
			c-20.148,3.827-40.864,4.072-62.28-0.099c-2.657-0.517-4.683-2.494-5.18-4.955l-5.375-26.648
			c-0.742-3.679,2.708-6.956,6.742-6.477c23.062,2.744,45.009,3.165,65.269,0.074c3.477-0.53,6.547,1.997,6.473,5.233l-0.622,27.239
			C225.809,348.86,223.727,351.244,220.844,351.791z"/>
		<path fill="#F4C573" stroke="#A06D24" stroke-width="3" stroke-miterlimit="10" d="M212.614,278.93
			c-20.148,3.827-40.864,4.072-62.28-0.099c-2.657-0.517-4.683-2.494-5.18-4.955l-5.375-26.648
			c-0.742-3.679,2.708-6.956,6.742-6.477c23.062,2.744,45.009,3.165,65.269,0.074c3.477-0.53,6.547,1.997,6.473,5.233l-0.622,27.239
			C217.58,275.999,215.497,278.383,212.614,278.93z"/>
		<path fill="#F4C573" stroke="#A06D24" stroke-width="3" stroke-miterlimit="10" d="M275.492,388.222
			c-19.012,3.827-38.241,4.072-57.738-0.099c-2.419-0.517-4.127-2.494-4.375-4.955l-2.681-26.648
			c-0.37-3.679,3.112-6.956,6.811-6.477c21.147,2.744,41.459,3.165,60.512,0.074c3.27-0.53,5.898,1.997,5.55,5.233l-2.931,27.239
			C280.35,385.291,278.213,387.674,275.492,388.222z"/>
		<path fill="#F4C573" stroke="#A06D24" stroke-width="3" stroke-miterlimit="10" d="M280.581,315.361
			c-20.505,3.827-41.243,4.072-62.271-0.099c-2.609-0.517-4.451-2.494-4.718-4.955l-2.891-26.648
			c-0.399-3.679,3.357-6.956,7.345-6.477c22.807,2.744,44.714,3.165,65.262,0.074c3.527-0.53,6.361,1.997,5.985,5.233l-3.161,27.239
			C285.819,312.43,283.515,314.813,280.581,315.361z"/>
	</g>
	<path fill="#C18B42" stroke="#87581A" stroke-width="3" stroke-miterlimit="10" d="M144.937,220.533
		c6.028-13.365,41.641-91.061,79.677-146.921c0.627-0.92,1.762-1.391,2.85-1.154c7.609,1.659,14.245,5.303,20.115,10.51
		c0.971,0.861,1.181,2.288,0.518,3.403c-25.469,42.812-69.991,132.297-77.467,147.385c-0.617,1.246-2.083,1.838-3.386,1.354
		c-7.749-2.874-14.97-6.521-21.445-11.258C144.76,223.094,144.408,221.705,144.937,220.533z"/>
	<path fill="#C18B42" stroke="#87581A" stroke-width="3" stroke-miterlimit="10" d="M355.063,220.533
		c-6.028-13.365-41.641-91.061-79.677-146.921c-0.627-0.92-1.762-1.391-2.85-1.154c-7.609,1.659-14.245,5.303-20.115,10.51
		c-0.971,0.861-1.181,2.288-0.518,3.403c25.469,42.812,69.991,132.297,77.467,147.385c0.617,1.246,2.083,1.838,3.386,1.354
		c7.749-2.874,14.97-6.521,21.445-11.258C355.24,223.094,355.592,221.705,355.063,220.533z"/>
	<path fill="#DB953A" stroke="#915E1A" stroke-width="3" stroke-miterlimit="10" d="M445.922,200.94H277.216h-54.432H54.078
		c-3.15,0-5.613,2.665-5.303,5.738l2.854,28.286c0.629,6.231,5.974,10.979,12.361,10.979h158.794h54.432H436.01
		c6.387,0,11.732-4.748,12.361-10.979l2.854-28.286C451.534,203.605,449.072,200.94,445.922,200.94z"/>
	<path fill="#C6812E" stroke="#915D19" stroke-width="3" stroke-miterlimit="10" d="M437.15,189.566
		c0,0-51.978-12.363-74.554-13.352h-92.882h-7.54h-24.347h-7.54h-92.882c-22.575,0.989-74.554,13.352-74.554,13.352
		c-7.465,2.353-6.699,10.88-3.552,10.88h168.549h2.439h39.428h2.439h168.549C443.849,200.446,444.615,191.919,437.15,189.566z"/>
	<path fill="#F7C67F" stroke="#936221" stroke-width="3" stroke-miterlimit="10" d="M180.09,237.765
		c7.062-12.849,47.771-88,69.569-151.968c0.359-1.054,0.053-2.244-0.79-2.971c-5.898-5.085-12.798-8.201-20.488-9.764
		c-1.271-0.258-2.538,0.431-3.031,1.631c-18.919,46.083-63.7,135.439-71.268,150.48c-0.625,1.242-0.218,2.769,0.952,3.521
		c6.954,4.468,14.207,8.048,21.884,10.378C178.148,239.445,179.471,238.892,180.09,237.765z"/>
	<circle fill="#A06D24" stroke="#89591A" stroke-width="3" stroke-miterlimit="10" cx="171.779" cy="221.875" r="5.275"/>
	<path fill="#F7C67F" stroke="#936221" stroke-width="3" stroke-miterlimit="10" d="M319.91,237.765
		c-7.062-12.849-47.771-88-69.569-151.968c-0.359-1.054-0.053-2.244,0.79-2.971c5.898-5.085,12.798-8.201,20.488-9.764
		c1.271-0.258,2.538,0.431,3.031,1.631c18.919,46.083,63.7,135.439,71.268,150.48c0.625,1.242,0.218,2.769-0.952,3.521
		c-6.953,4.468-14.207,8.048-21.884,10.378C321.852,239.445,320.529,238.892,319.91,237.765z"/>
	<circle fill="#A06D24" stroke="#89591A" stroke-width="3" stroke-miterlimit="10" cx="328.221" cy="221.875" r="5.275"/>
</g>
</svg>
