<?xml version="1.0" encoding="utf-8"?>
<!-- Generator: Adobe Illustrator 18.1.1, SVG Export Plug-In . SVG Version: 6.00 Build 0)  -->
<svg version="1.1" id="Layer_1" xmlns="http://www.w3.org/2000/svg" xmlns:xlink="http://www.w3.org/1999/xlink" x="0px" y="0px" width="500px" height="500px" viewBox="0 0 500 500" enable-background="new 0 0 500 500" xml:space="preserve"><clipPath id="SVGID_2_">
				<use xlink:href="#SVGID_1_" overflow="visible"/>
			</clipPath>
<symbol id="New_Symbol_1" viewBox="-45.957 -56.448 91.914 112.895">
	<g>
		<path fill="#1F0E3A" stroke="#8E66AB" stroke-width="0.5881" stroke-miterlimit="10" d="M16.906,0.898
			c0,0-6.05-12.504-1.822-18.869c0.385-8.054-20.901-25.968-20.901-25.968s-7.095-12.52-4.571-12.209
			c2.993,0.369,6.616,4.125,6.627,10.203c0,0,18.947,12.119,21.472,23.593C19.032-16.353,16.906,0.898,16.906,0.898z"/>
		<path fill="#1F0E3A" stroke="#8E66AB" stroke-width="0.5881" stroke-miterlimit="10" d="M4.834,6.449
			c0,0-3.132-12.791,1.095-19.156c0.385-8.054-20.901-25.968-20.901-25.968s-7.095-12.52-4.571-12.209
			c2.993,0.369,6.26,4.67,6.27,10.747c0,0,23.752,16.645,23.236,28.383C9.748-6.848,4.834,6.449,4.834,6.449z"/>
		<path fill="#1F0E3A" stroke="#8E66AB" stroke-width="0.5881" stroke-miterlimit="10" d="M11.338,6.144
			c0,0,5.797-16.656,10.088-16.023c0,0,6.868,2.511,6.147,15.112c0,0,4.368,0.85,6.035,2.512c1.435,1.43-3.411,3.899-7.446-1.562
			c-0.148-0.2-0.243-0.437-0.281-0.683C25.608,3.712,24.261-4.13,21.381-6.14C21.381-6.14,16.699,3.997,11.338,6.144z"/>
		<path fill="#1F0E3A" stroke="#8E66AB" stroke-width="0.5881" stroke-miterlimit="10" d="M20.062,4.549
			c0,0,7.19-17.943,11.912-17.246c0,0,7.557,2.763,6.764,16.629c0,0,4.806,0.936,6.641,2.764c1.579,1.574-3.753,4.291-8.194-1.719
			c-0.163-0.22-0.267-0.481-0.309-0.752C36.576,2.258,35.093-6.37,31.924-8.583C31.924-8.583,25.962,2.186,20.062,4.549z"/>
		<path fill="#1F0E3A" stroke="#8E66AB" stroke-width="0.5881" stroke-miterlimit="10" d="M17.648,1.848
			c0,0,0.435-13.281,5.213-20.475C23.296-27.731,4.53-42.634,4.53-42.634s-6.028-11.731-3.176-11.38
			c3.382,0.417,6.886,5.427,6.021,10.586c0,0,23,15.884,19.885,26.259C24.319-6.315,17.648,1.848,17.648,1.848z"/>
		<g>
			<path fill="#F3F0E0" stroke="#E1D1A5" stroke-width="0.5881" stroke-miterlimit="10" d="M10.496,12.818
				c0,0-38.129,17.976-40.76,16.905c-2.63-1.071-6.356-12.179,11.101-17.698c6.953-2.198,15.922,0.67,19.601,0.85
				s8.203-1.36,9.424-1.588C11.708,10.943,10.496,12.818,10.496,12.818z"/>
			<path fill="#F3F0E0" stroke="#E1D1A5" stroke-width="0.5881" stroke-miterlimit="10" d="M1.222,17.069
				c-0.587,0.11-14.086,4.976-15.08,2.905s4.878-5.946,14.664-6.994"/>
			<path fill="#F3F0E0" stroke="#E1D1A5" stroke-width="0.5881" stroke-miterlimit="10" d="M-32.19,25.917
				c0,0,5.338-3.949,20.936-5.475"/>
			<path fill="#F3F0E0" stroke="#E1D1A5" stroke-width="0.5881" stroke-miterlimit="10" d="M-12.216,17.15c0,0-4.627-2-16.074-0.555
				"/>
			<path fill="#F3F0E0" stroke="#E1D1A5" stroke-width="0.5881" stroke-miterlimit="10" d="M-8.205,14.925
				c0,0-2.572-3.078-7.786-3.579"/>
		</g>
		<path fill="#1F0E3A" stroke="#8E66AB" stroke-width="0.5881" stroke-miterlimit="10" d="M23.502,27.886
			c0,0-0.382,1.026,0.522,4.846c0.889,3.759,3.026,9.98-1.616,17.936c-0.151,0.259-0.343,0.497-0.521,0.738
			c-1.251,1.688,0.264,2.737,1.719,1.479c1.686-1.457,5.931-8.734,1.459-19.712c-0.855-2.032-0.723-4.907-0.723-4.907
			S24.167,27.348,23.502,27.886z"/>
		<path fill="#FBCD65" stroke="#CB7128" stroke-width="0.5881" stroke-miterlimit="10" d="M20.719,13.615
			c0,0,1.189,3.351-1.847,7.556s-1.223,9.922,7.485,9.85s12.831-11.238,10.23-16.137c0,0-2.959-0.136-5.745,2.039
			c0,0,0.417-3.382,2.894-4.908c0,0-2.203-2.561-7.077-2.017c0,0-1.752-2.505-3.84-4.136L20.719,13.615z"/>
		<path d="M31.864,21.627c0.184-1.494,0.838-2.644,1.461-2.567c0.623,0.077,0.978,1.35,0.794,2.845
			c-0.184,1.494-0.838,2.644-1.461,2.567C32.035,24.396,31.68,23.122,31.864,21.627z"/>
		<path fill="#8E66AB" stroke="#1F0E3A" stroke-width="0.5881" stroke-miterlimit="10" d="M-15.678-43.98
			c0,0,0.013-6.279,2.703-9.485c0.296-0.353,0.882-0.143,0.906,0.317c0.096,1.807,0.371,5.364,1.124,7.919L-15.678-43.98z"/>
		<path fill="#FBCD65" stroke="#EB8523" stroke-width="0.5881" stroke-miterlimit="10" d="M15.059,0.098
			c0,0-22.265,6.985-35.595-9.309s-0.296-32.887,6.136-36.787c0,0,13.034-1.529,26.243,20.175
			C15.207-20.298,20.273-7.844,15.059,0.098z"/>
		<g>
			<defs>
				<path id="SVGID_1_" d="M15.059,0.098c0,0-22.265,6.985-35.595-9.309s-0.296-32.887,6.136-36.787c0,0,13.034-1.529,26.243,20.175
					C15.207-20.298,20.273-7.844,15.059,0.098z"/>
			</defs>
			<use xlink:href="#SVGID_1_" overflow="visible" fill="#FBCD65"/>
			
			<path clip-path="url(#SVGID_2_)" fill="#1F0E3A" stroke="#8E66AB" stroke-width="0.5881" stroke-miterlimit="10" d="
				M-27.646-34.639c0,0,13.504-13.445,28.945-6.391l3.642,3.883c0,0-20.735-0.323-33.719,20.053L-27.646-34.639z"/>
			<path clip-path="url(#SVGID_2_)" fill="#1F0E3A" stroke="#8E66AB" stroke-width="0.5881" stroke-miterlimit="10" d="
				M-14.247,1.522c0,0,17.281-6.814,28.506-27.906l2.609,5.301c0,0-3.644,21.516-18.901,24.768L-14.247,1.522z"/>
			<path clip-path="url(#SVGID_2_)" fill="#1F0E3A" stroke="#8E66AB" stroke-width="0.5881" stroke-miterlimit="10" d="
				M-24.198-8.289c0,0,5.402-17.362,33.054-25.8l4.87,5.064c0,0-19.196,9.481-29.984,28.754L-24.198-8.289z"/>
			<use xlink:href="#SVGID_1_" overflow="visible" fill="none" stroke="#CB7128" stroke-width="0.5881" stroke-miterlimit="10"/>
		</g>
		<path fill="#D68B58" stroke="#763718" stroke-width="0.5881" stroke-miterlimit="10" d="M-2.128,2.1c0,0,17.043,0.555,19.54-9.953
			c0,0,9.742,1.339,8.339,12.83c-0.531,4.344-2.499,8.468-5.931,11.184c-3.617,2.863-7.124,3.104-7.124,3.104l0.698-3.806
			c0,0-5.718,1.813-11.077-1.136l3.067-2.598c0,0-7.778-0.043-9.564-5.986l3.778,0.923C-0.401,6.663-2.048,3.77-2.128,2.1z"/>
		<path fill="#1F0E3A" stroke="#8E66AB" stroke-width="0.5881" stroke-miterlimit="10" d="M25.697,29.179
			c0,0-0.216,1.142,1.416,4.979c1.605,3.775,4.958,9.903,1.527,19.063c-0.112,0.298-0.27,0.582-0.413,0.866
			c-1.006,1.992,0.767,2.818,2.065,1.24c1.503-1.827,4.64-10.206-2.01-20.894c-1.26-1.973-1.638-5.006-1.638-5.006
			S26.296,28.496,25.697,29.179z"/>
		<g>
			<path fill="#F3F0E0" stroke="#E1D1A5" stroke-width="0.5881" stroke-miterlimit="10" d="M14.218,10.639
				c0,0-55.631,7.451-58.537,5.033c-2.907-2.419-3.159-18.016,21.217-17.988c9.71,0.011,19.937,7.264,24.533,8.976
				s10.958,1.579,12.6,1.782C16.511,8.747,14.218,10.639,14.218,10.639z"/>
			<path fill="#F3F0E0" stroke="#E1D1A5" stroke-width="0.5881" stroke-miterlimit="10" d="M0.736,12.297
				c-0.789-0.097-19.881,0.64-20.309-2.388c-0.428-3.029,8.586-5.581,21.427-2.968"/>
			<path fill="#F3F0E0" stroke="#E1D1A5" stroke-width="0.5881" stroke-miterlimit="10" d="M-45.231,10.065
				c0,0,8.365-2.861,28.775,1.486"/>
			<path fill="#F3F0E0" stroke="#E1D1A5" stroke-width="0.5881" stroke-miterlimit="10" d="M-16.351,6.986
				c0,0-5.066-4.402-20.176-7.179"/>
			<path fill="#F3F0E0" stroke="#E1D1A5" stroke-width="0.5881" stroke-miterlimit="10" d="M-10.365,5.778
				c0,0-2.023-4.942-8.439-7.679"/>
		</g>
	</g>
</symbol>
<use xlink:href="#New_Symbol_1" width="91.914" height="112.895" id="XMLID_1_" x="-45.957" y="-56.448" transform="matrix(3.1624 0 0 -3.1624 249.9998 249.9989)" overflow="visible"/>
</svg>
