<?xml version="1.0" encoding="utf-8"?>
<!-- Generator: Adobe Illustrator 18.1.1, SVG Export Plug-In . SVG Version: 6.00 Build 0)  -->
<svg version="1.1" id="Layer_1" xmlns="http://www.w3.org/2000/svg" xmlns:xlink="http://www.w3.org/1999/xlink" x="0px" y="0px"
	 width="500px" height="500px" viewBox="0 0 500 500" enable-background="new 0 0 500 500" xml:space="preserve">
<symbol  id="New_Symbol_2" viewBox="-42.3 -53.9 84.7 107.8">
	<g>
		<path fill="#764C29" stroke="#4C2B12" stroke-width="0.75" stroke-miterlimit="10" d="M19.1-4.6h-3.5c0,0-3.3-1.5-6.5-4.2
			c0,0-0.4,2,1,4.2H8.3c0,0-1.4-2.5-1.4-5.6c0,0-2.5-3.7-4.2-4.5c-0.4-0.2-0.7-0.3-1-0.4c-0.1,2-0.2,6.1,0,11.6l4.9,1.2
			C6.7-0.8,8,0,8,0c1.2,0.2,1.3,0.6,1.3,0.6c2.4,0.4,4.6,0,4.6,0l7.8,2L20.1,5c-4.3-1.8-9.3-1-9.3-1l3.3,4l-5.2,2.9
			c0.5-1.8,0.8-4.5,0.8-4.5S5.5,1.7,3.3,1.3c-0.6-0.1-1-0.1-1.4-0.1C2,3.3,2.2,5.6,2.4,7.9c1.2,2.5,3.6,5.9,8.1,8l-1.6,1
			c0,0-3.8-1.4-6.1-3.7c0.3,2.8,0.7,5.7,1.1,8.7l-4.5,0.9c0,0-0.9-3-2-8.2c-0.6,1.4-1.5,3.6-2,5.2l-3.2-1c0,0,3.2-3.5,4.4-7.9
			c0-0.2-0.1-0.4-0.1-0.6c-3.4,1-6.8,3.4-6.8,3.4l0.8-2.6c3-1.6,4.6-3.3,5.4-4.5C-4.6,1.1-5.3-5.6-5.4-13.2l3.1-4.5l3.8-0.7l0.4-0.7
			c0,0,3.7,4.1,4.6,4.7s6,0.6,6,0.6l4,4c0,0-4.9-1.4-6.5-1.4C10-11.2,10.8-8.9,19.1-4.6z"/>
		<g>
			<path fill="#4C2B12" d="M-2.3,7.9c0,0-0.1,2,0.1,4c0,0.5,0.1,1,0.2,1.5c0.1,0.5,0.2,0.9,0.3,1.3c0.2,0.7,0.5,1.2,0.5,1.2l0,0
				c0,0,0-0.5-0.1-1.3c-0.1-0.4-0.1-0.8-0.2-1.3s-0.2-0.9-0.3-1.4C-2.1,9.9-2.2,7.9-2.3,7.9L-2.3,7.9z"/>
		</g>
		<g>
			<path fill="#4C2B12" d="M-0.9,9c0,0,0.1,2,0.4,4.1c0.1,0.5,0.1,1,0.2,1.5s0.2,0.9,0.3,1.3c0.2,0.7,0.4,1.2,0.4,1.2l0,0
				c0,0,0-0.5-0.1-1.3c-0.1-0.4-0.1-0.8-0.2-1.3s-0.2-1-0.3-1.5C-0.6,11-0.9,9-0.9,9L-0.9,9z"/>
		</g>
		<g>
			<path fill="#4C2B12" d="M0.3,8.5c0,0,0,1.5,0.3,3.1c0,0.4,0.1,0.8,0.2,1.1c0.1,0.4,0.2,0.7,0.3,1c0.2,0.6,0.4,0.9,0.4,0.9l0,0
				c0,0,0-0.4-0.1-1c0-0.3-0.1-0.6-0.1-1c-0.1-0.3-0.2-0.7-0.3-1.1C0.7,10,0.4,8.5,0.3,8.5L0.3,8.5z"/>
		</g>
		<g>
			<path fill="#4C2B12" d="M1.9,10.7c0,0,0.4,0.4,0.9,1.1c0.5,0.6,1.3,1.5,2.1,2.2c0.4,0.4,0.9,0.7,1.3,1s0.9,0.5,1.3,0.7
				c0.8,0.4,1.3,0.6,1.3,0.6l0,0c0,0-0.4-0.4-1.1-0.9s-1.7-1-2.5-1.7c-0.9-0.7-1.7-1.5-2.3-2C2.3,11.1,1.9,10.7,1.9,10.7L1.9,10.7z"
				/>
		</g>
		<g>
			<path fill="#4C2B12" d="M1.2,7.9c0,0,0.6,0.9,1.2,1.7c0.2,0.2,0.3,0.4,0.5,0.6c0.2,0.2,0.3,0.3,0.5,0.5C3.7,11,4,11.1,4,11.1l0,0
				c0,0-0.1-0.3-0.3-0.6c-0.1-0.2-0.2-0.4-0.4-0.5C3.1,9.7,3,9.5,2.8,9.3C2,8.6,1.3,7.8,1.2,7.9L1.2,7.9z"/>
		</g>
		<g>
			<path fill="#4C2B12" d="M2.1,13.4c0,0,0-0.1,0.1-0.2c0-0.1,0.2-0.3,0.3-0.2l0,0l0,0c0,0,0.1,0.1,0.2,0.1c0.1,0.1,0.2,0.1,0.2,0.1
				l0,0c0,0,0-0.1,0-0.3c0-0.1,0-0.2-0.1-0.3l-0.2-0.1c-0.1,0-0.2,0-0.3,0C2,12.6,1.9,13,2,13.1C2,13.3,2.1,13.4,2.1,13.4L2.1,13.4z
				"/>
		</g>
		<g>
			<path fill="#4C2B12" d="M-6.1,18.1c0,0,0.9-0.7,1.7-1.6c0.2-0.2,0.4-0.4,0.5-0.7c0.1-0.2,0.2-0.5,0.3-0.7
				c0.2-0.4,0.2-0.7,0.2-0.7l0,0c0,0-0.2,0.2-0.5,0.5c-0.1,0.2-0.3,0.4-0.4,0.6c-0.1,0.2-0.3,0.5-0.4,0.7C-5.3,17.2-6.1,18-6.1,18.1
				L-6.1,18.1z"/>
		</g>
		<g>
			<path fill="#4C2B12" d="M-7.4,10.9c0,0,1-0.4,2.1-0.8C-5,10-4.8,10-4.5,9.9C-4.3,9.8-4,9.7-3.8,9.6c0.4-0.2,0.6-0.3,0.6-0.3l0,0
				c0,0-0.3,0-0.7,0c-0.2,0-0.5,0.1-0.7,0.2c-0.2,0.1-0.5,0.2-0.8,0.3C-6.5,10.2-7.4,10.9-7.4,10.9L-7.4,10.9z"/>
		</g>
		<g>
			<path fill="#4C2B12" d="M-6.6,9.1c0,0,0.7-0.1,1.5-0.1c0.2,0,0.4,0,0.5,0c0.2-0.1,0.3-0.2,0.5-0.2c0.3-0.1,0.4-0.2,0.4-0.2l0,0
				c0,0-0.2-0.1-0.5-0.1c-0.1,0-0.3,0-0.5,0s-0.4,0.1-0.5,0.1C-5.9,8.7-6.6,9-6.6,9.1L-6.6,9.1z"/>
		</g>
		<g>
			<path fill="#4C2B12" d="M0.4,4.4c0,0,0.3,0.5,0.4,1c0,0.1,0,0.3,0,0.4S0.9,6,0.9,6.1C0.9,6.4,1,6.6,1,6.6l0,0
				c0,0,0.1-0.1,0.2-0.4c0-0.1,0.1-0.3,0.1-0.4S1.2,5.5,1.2,5.4C1,5.1,0.9,4.8,0.7,4.7C0.5,4.5,0.4,4.4,0.4,4.4L0.4,4.4z"/>
		</g>
		<g>
			<path fill="#4C2B12" d="M-2.1,5.5c0,0,0.5,0.1,0.8,0.3C-1.1,5.8-1.1,5.9-1,6c0.1,0,0.2,0.1,0.3,0.1c0.2,0,0.3,0,0.3,0l0,0
				c0,0,0-0.2-0.1-0.3c-0.1-0.1-0.1-0.2-0.2-0.2C-0.8,5.5-1,5.4-1.1,5.4C-1.6,5.3-2.1,5.4-2.1,5.5L-2.1,5.5z"/>
		</g>
		<g>
			<path fill="#4C2B12" d="M2.3,17.3C2.3,17.2,2.3,17.2,2.3,17.3C2.3,17.3,2.4,17.3,2.3,17.3c0,0.1,0.1,0.3,0.1,0.5
				c0,0.3,0,0.8-0.1,1.2c0,0.2-0.1,0.4-0.1,0.6s0,0.4,0,0.6c0,0.3,0,0.6,0,0.6l0,0c0,0,0.2-0.2,0.3-0.5c0.1-0.2,0.1-0.4,0.2-0.6
				c0-0.2,0-0.5,0-0.7c0-0.5-0.1-0.9-0.2-1.3c0-0.2-0.1-0.3-0.1-0.4C2.4,17.2,2.4,17.2,2.3,17.3C2.3,17.2,2.3,17.2,2.3,17.3
				L2.3,17.3L2.3,17.3z"/>
		</g>
		<g>
			<path fill="#4C2B12" d="M7.1,2.6c0,0,0.3,0.1,0.7,0.5C8.1,3.5,8.6,4,9.1,4.6c0.1,0.3,0.3,0.6,0.5,0.8c0.2,0.3,0.4,0.5,0.5,0.7
				c0.3,0.5,0.5,0.8,0.5,0.8l0,0c0,0,0-0.4-0.2-0.9c-0.1-0.3-0.2-0.6-0.4-0.8C9.8,4.9,9.6,4.6,9.3,4.3c-0.5-0.5-1-1-1.4-1.3
				C7.5,2.7,7.1,2.6,7.1,2.6L7.1,2.6z"/>
		</g>
		<g>
			<path fill="#4C2B12" d="M2.2-1.2c0,0,0.3,0.3,0.8,0.6c0.5,0.4,1.2,0.8,2,1.3c0.4,0.2,0.8,0.4,1.1,0.5c0.4,0.2,0.7,0.3,1,0.3
				c0.6,0.2,1.1,0.2,1.1,0.2l0,0c0,0-0.4-0.2-0.9-0.5C7,1.1,6.7,0.9,6.3,0.8C6,0.6,5.6,0.5,5.2,0.3C3.6-0.4,2.2-1.3,2.2-1.2L2.2-1.2
				z"/>
		</g>
		<g>
			<path fill="#4C2B12" d="M10.7,2.9c0,0,0.8,0,1.7,0.1c0.2,0,0.4,0.1,0.6,0.1c0.2,0,0.4,0,0.5,0C13.8,3.1,14,3,14,3l0,0
				c0,0-0.2-0.2-0.5-0.3c-0.2-0.1-0.3-0.1-0.5-0.1s-0.4,0-0.6,0C11.6,2.6,10.7,2.8,10.7,2.9L10.7,2.9z"/>
		</g>
		<g>
			<path fill="#4C2B12" d="M-2.2-16.1c0,0,0,0.6-0.1,1.2c0,0.1-0.1,0.3-0.1,0.4c0,0.1,0,0.3,0,0.4c0,0.2,0.1,0.4,0.1,0.4l0,0
				c0,0,0.1-0.1,0.2-0.3c0-0.1,0.1-0.2,0.1-0.4c0-0.1,0-0.3,0-0.5C-1.9-15.5-2.1-16.1-2.2-16.1L-2.2-16.1z"/>
		</g>
		<g>
			<path fill="#4C2B12" d="M-1.2-14.6c0,0,0.4,0.2,0.5,0.9c0.1,0.6,0.1,1.5,0,2.3C-0.8-11-0.9-10.6-1-10.2c-0.1,0.4-0.2,0.8-0.3,1.1
				s-0.1,0.6-0.2,0.8C-1.5-8.1-1.6-8-1.6-8l0,0c0,0,0.3-0.3,0.6-1c0.1-0.3,0.3-0.7,0.4-1.1c0.1-0.4,0.1-0.9,0.2-1.3
				c0-0.9,0-1.8-0.2-2.4c-0.1-0.3-0.3-0.6-0.4-0.7S-1.2-14.6-1.2-14.6L-1.2-14.6z"/>
		</g>
		<g>
			<path fill="#4C2B12" d="M0.3-17.7c0,0,0.3,1.9,0.3,3.9c0,0.5,0,1-0.1,1.4c0,0.5,0,0.9,0,1.2c0,0.7,0,1.2,0,1.2l0,0
				c0,0,0.2-0.5,0.3-1.2C0.9-11.6,0.9-12,1-12.5c0-0.5,0-1,0-1.5c-0.1-1-0.2-2-0.4-2.7C0.5-17.3,0.4-17.7,0.3-17.7L0.3-17.7z"/>
		</g>
		<g>
			<path fill="#4C2B12" d="M1.1-16.9c0,0,0.5,0.2,1.1,0.7c0.7,0.4,1.5,1.1,2.2,1.8c0.4,0.4,0.7,0.8,1,1.2s0.6,0.7,0.9,1
				c0.6,0.6,1.1,0.8,1.1,0.8l0,0c0,0-0.4-0.4-0.9-1c-0.2-0.3-0.5-0.7-0.8-1.1c-0.3-0.4-0.7-0.8-1.1-1.1c-0.8-0.7-1.7-1.4-2.4-1.7
				C1.6-16.7,1.1-16.9,1.1-16.9L1.1-16.9z"/>
		</g>
		<g>
			<path fill="#4C2B12" d="M9.1-13.3c0,0,1.5,0.3,3,0.6c0.4,0.1,0.7,0.2,1,0.3s0.6,0.2,0.9,0.3c0.5,0.2,0.9,0.3,0.9,0.3l0,0
				c0,0-0.2-0.3-0.7-0.7c-0.3-0.2-0.6-0.3-0.9-0.4c-0.4-0.1-0.8-0.2-1.2-0.2C10.6-13.3,9.1-13.4,9.1-13.3L9.1-13.3z"/>
		</g>
		<g>
			<path fill="#4C2B12" d="M11.1-12.1c0,0,1.2,0.1,2.4,0.5c0.3,0.1,0.6,0.2,0.8,0.3c0.3,0.1,0.5,0.2,0.7,0.3
				c0.4,0.1,0.7,0.2,0.7,0.2l0,0c0,0-0.2-0.3-0.6-0.5c-0.2-0.1-0.4-0.3-0.7-0.4c-0.3-0.1-0.6-0.2-0.9-0.2c-0.6-0.2-1.2-0.2-1.7-0.2
				C11.4-12.1,11.1-12.1,11.1-12.1L11.1-12.1z"/>
		</g>
		<g>
			<path fill="#4C2B12" d="M8.1-9.9c0,0-0.1,0.3-0.2,0.7c-0.1,0.4-0.1,1,0,1.5C7.9-7.4,8-7.1,8-6.9c0.1,0.2,0.2,0.5,0.3,0.6
				c0.2,0.4,0.4,0.6,0.4,0.6l0,0c0,0,0-0.3-0.1-0.7c0-0.2-0.1-0.4-0.2-0.7c0.1-0.2,0-0.5-0.1-0.7c-0.1-0.5-0.2-1-0.2-1.4
				C8.1-9.7,8.1-9.9,8.1-9.9L8.1-9.9z"/>
		</g>
		<g>
			<path fill="#4C2B12" d="M9.1-10.6c0,0,0.4,0.5,1.1,1.2c0.7,0.7,1.7,1.5,2.8,2.3c0.5,0.4,1.1,0.8,1.6,1.1c0.5,0.3,1.1,0.6,1.5,0.8
				c0.9,0.4,1.6,0.6,1.6,0.6l0,0c0,0-0.6-0.4-1.4-0.9c-0.4-0.4-0.9-0.7-1.4-1s-1.1-0.6-1.6-1C11.1-8.8,9.2-10.6,9.1-10.6L9.1-10.6z"
				/>
		</g>
		<g>
			<path fill="#4C2B12" d="M10.1-8.6c0,0,1.5,1.1,3,2.4c0.4,0.3,0.7,0.6,1,0.9s0.7,0.5,1,0.8c0.6,0.4,1,0.7,1,0.7l0,0
				c0,0-0.3-0.4-0.8-0.9c-0.2-0.3-0.5-0.6-0.9-0.9c-0.3-0.3-0.7-0.6-1.1-0.8C11.8-7.7,10.2-8.7,10.1-8.6L10.1-8.6z"/>
		</g>
		<g>
			<path fill="#4C2B12" d="M-0.4-8c0,0,0.2-0.2,0.4-0.4c0-0.1,0.1-0.1,0.1-0.2c0-0.1,0-0.1,0-0.2C0.1-8.9,0-9,0-9l0,0
				c0,0-0.1,0-0.2,0.1l-0.1,0.1c0,0.1,0,0.1,0,0.2C-0.4-8.3-0.4-8-0.4-8L-0.4-8z"/>
		</g>
		<g>
			<path fill="#4C2B12" d="M0.8,2.1c0,0,0.1-0.2,0.2-0.4C1.1,1.4,1.1,1,1.4,0.9c0.1-0.1,0.3-0.1,0.4-0.1s0.3-0.1,0.4-0.1
				c0.3-0.1,0.5-0.2,0.5-0.2l0,0c0,0-0.2-0.1-0.5-0.2c-0.1,0-0.3,0-0.5,0c-0.3-0.1-0.5,0-0.6,0.2C1.1,0.6,1,0.6,1,0.6
				C0.9,0.7,0.9,0.8,0.9,0.8c0,0.1-0.1,0.2-0.1,0.3c0,0.2,0,0.3,0,0.5C0.8,1.9,0.7,2,0.8,2.1L0.8,2.1z"/>
		</g>
	</g>
	<g>
		<path fill="#764C29" stroke="#4C2B12" stroke-width="0.75" stroke-miterlimit="10" d="M4.2-31.7c-0.6,2.3-2.1,7-3,9.3l-9.3,1
			c2.6-6,5.1-14.9,5.6-21.4c-0.1-0.8-0.2-1.7-0.4-2.5c-0.4-1.3-1.2-2.5-2.4-3.1s-2.5-0.6-3.8-0.8c-2-0.3-4.8-1.7-6-2.2
			c0-0.2,0.2-0.5,0.4-0.6c0.3-0.2,0.6-0.2,1-0.2c1.1-0.1,2.3,0.1,3.3,0.7c0.4,0,0.9-0.1,1.3,0.1c0.5,0.2,0.9,0.5,1.5,0.5
			c0.4,0,2-0.1,2.3,0.1c-1.1,0-2.6-1-3.7-1.7c0.1-0.9,2.4-0.5,3.2,0c0.6,0.1,1.2,0.2,1.9,0.3c-0.2-0.3-0.4-0.7-0.5-1.2
			c0.8-0.3,1.7-0.2,2.5,0.1c0.2,0.2,0.5,0.5,0.6,0.8c0.7,0.4,1.3,0.7,2,1c1.7-0.2,3.6,0,5.2,0.8c1.2-0.2,2.4-0.7,3.3-1.6
			c0.1-0.1,0.3-0.3,0.5-0.4c0.2-0.1,0.4-0.2,0.7-0.2c0.7-0.1,1.5-0.1,2.1,0.2c0.5-0.1,1.1-0.2,1.6-0.4c0.2,0,0.4-0.1,0.6,0
			c0.1,0.1,0.2,0.3,0.1,0.4c0.2,0,0.3,0,0.5-0.1s0.4-0.1,0.7-0.1c0.2,0.1,0.3,0.2,0.3,0.4c0.8,0,1.5,0.1,2.3,0.2
			c0.2,0,0.4,0.1,0.6,0c0.2,0,0.4-0.2,0.6-0.3c0.5-0.3,1.2-0.5,1.8-0.6c0.4,0,0.8,0,1.1,0.1c0.2,0.1,0.4,0.2,0.5,0.4
			c-0.3,0.2-0.5,0.5-0.8,0.7c-0.5,0.3-1.1,0.4-1.6,0.5c-0.2,0-0.3,0-0.5,0.1c-0.8,0.1-1.5,0.5-2.1,0.9s-1.8,0.9-2.5,1.1
			c-1,0.3-1.6,0.4-2.6,0.5c-0.4,0.1-0.9,0.1-1.3,0.2c-3.2,2.8-4.9,7-6.1,11.1C5-35.6,4.6-33.7,4.2-31.7z"/>
		<g>
			<path fill="#4C2B12" d="M-4.3-53c0,0,0.2,0.4,0.5,1c0.1,0.3,0.3,0.7,0.6,1s0.6,0.6,1,0.9c0.7,0.6,1.1,1.2,1.3,1.8
				c0.1,0.3,0.2,0.5,0.2,0.7s0.1,0.3,0.1,0.3l0,0c0,0,0.2-0.4,0.1-1.1c-0.1-0.3-0.2-0.7-0.5-1.1c-0.1-0.3-0.2-0.5-0.4-0.6
				s-0.4-0.3-0.5-0.4c-0.4-0.3-0.7-0.5-1-0.8c-0.1-0.1-0.3-0.3-0.4-0.4c-0.1-0.1-0.2-0.3-0.3-0.4C-3.9-52.7-4.2-53.1-4.3-53L-4.3-53
				z"/>
		</g>
		<g>
			<path fill="#4C2B12" d="M-4.5-49.6c0,0,0.6,0.4,1.1,0.9c0.1,0.1,0.2,0.3,0.3,0.4c0.1,0.1,0.2,0.2,0.3,0.3
				c0.2,0.2,0.4,0.3,0.4,0.3l0,0c0,0,0-0.2-0.1-0.5c-0.1-0.1-0.1-0.3-0.2-0.4c-0.1-0.1-0.3-0.2-0.4-0.3C-3.8-49.5-4.5-49.7-4.5-49.6
				L-4.5-49.6z"/>
		</g>
		<g>
			<path fill="#4C2B12" d="M0-49.7c0,0,0.4,1.1,0.5,2.3c0,0.3,0,0.6,0,0.8c0,0.3,0,0.5,0,0.7c0,0.4,0.1,0.7,0.1,0.7l0,0
				c0,0,0.2-0.3,0.3-0.7C1-46.1,1-46.4,1-46.7c0-0.1-0.1-0.4-0.1-0.7C0.8-48,0.6-48.6,0.4-49C0.2-49.4,0.1-49.7,0-49.7L0-49.7z"/>
		</g>
		<g>
			<path fill="#4C2B12" d="M2.2-49.3c0,0,0.2,0.4,0.2,0.8c0,0.1,0,0.2,0,0.3S2.5-48,2.5-48c0.1,0.1,0.2,0.3,0.2,0.3l0,0
				c0,0,0.1-0.1,0.2-0.3c0-0.1,0-0.2,0-0.3s-0.1-0.2-0.1-0.3C2.7-49,2.3-49.3,2.2-49.3L2.2-49.3z"/>
		</g>
		<g>
			<path fill="#4C2B12" d="M1.6-50.6c0,0,0.3,0.1,0.6,0.2c0.3,0.2,0.8,0.5,1.1,0.9c0.1,0.2,0.3,0.4,0.4,0.6c0.1,0.2,0.2,0.4,0.3,0.5
				c0.2,0.3,0.3,0.6,0.3,0.6l0,0c0,0,0.1-0.3,0-0.7c0-0.2-0.1-0.4-0.2-0.7c-0.1-0.2-0.3-0.4-0.5-0.6c-0.4-0.4-0.9-0.7-1.3-0.8
				C1.8-50.7,1.6-50.7,1.6-50.6L1.6-50.6z"/>
		</g>
		<g>
			<path fill="#4C2B12" d="M5.3-49c0,0-0.7,0.8-1.2,1.7c-0.1,0.2-0.2,0.5-0.3,0.7S3.7-46.1,3.6-46c0,0.4,0,0.7,0,0.7l0,0
				c0,0,0.2-0.2,0.3-0.6c0.1-0.2,0.2-0.4,0.3-0.6c0.1-0.2,0.1-0.5,0.2-0.7C4.9-48.1,5.4-49,5.3-49L5.3-49z"/>
		</g>
		<g>
			<path fill="#4C2B12" d="M6-48c0,0,0.6-0.7,1.2-1.2c0.2-0.1,0.3-0.3,0.5-0.4C7.8-49.7,8-49.9,8.1-50c0.2-0.2,0.3-0.5,0.3-0.5l0,0
				c0,0-0.2,0-0.5,0.2c-0.1,0.1-0.3,0.2-0.5,0.3S7.1-49.7,7-49.5C6.3-48.8,5.9-48,6-48L6-48z"/>
		</g>
		<g>
			<path fill="#4C2B12" d="M7.4-47.7c0,0-0.4,0.2-0.7,0.6c-0.1,0.1-0.2,0.2-0.2,0.2c-0.1,0.1-0.1,0.2-0.1,0.3c0,0.2,0,0.3,0,0.3l0,0
				c0,0,0.1,0,0.3-0.1c0.1-0.1,0.2-0.2,0.2-0.3S7-46.9,7-47C7.2-47.3,7.4-47.7,7.4-47.7L7.4-47.7z"/>
		</g>
		<g>
			<path fill="#4C2B12" d="M7.2-45.8c0,0-0.9,1.5-1.5,3.2c-0.2,0.4-0.3,0.8-0.5,1.2C5.1-41,5-40.6,4.9-40.3
				c-0.1,0.7-0.1,1.1-0.1,1.1l0,0c0,0,0.2-0.4,0.5-1c0.1-0.3,0.3-0.7,0.4-1c0-0.5,0.2-0.9,0.3-1.3C6.5-44.2,7.2-45.8,7.2-45.8
				L7.2-45.8z"/>
		</g>
		<g>
			<path fill="#4C2B12" d="M3.1-36.9c0,0-0.1,0.2-0.2,0.5c-0.1,0.3-0.2,0.8-0.3,1.3c-0.2,1.2-0.1,2.7-0.3,4.2
				c-0.1,0.4-0.1,0.7-0.2,1.1c-0.1,0.4-0.2,0.7-0.4,1c-0.3,0.7-0.6,1.4-0.8,1.9c-0.5,1-0.8,1.8-0.8,1.8l0,0c0,0,0.5-0.6,1.1-1.6
				c0.3-0.5,0.6-1.1,0.9-1.8c0.1-0.3,0.2-0.7,0.3-1.1s0.1-0.8,0.2-1.2c0.1-1.6,0-3.1,0.1-4.2c0-0.6,0.1-1,0.2-1.4
				C3.1-36.7,3.1-36.9,3.1-36.9L3.1-36.9z"/>
		</g>
		<g>
			<path fill="#4C2B12" d="M3.8-35.6c0,0-0.2,0.4-0.3,1.1c-0.1,0.7,0,1.6-0.2,2.5c-0.1,0.5-0.2,0.9-0.3,1.3s-0.2,0.8-0.2,1.2
				c-0.1,0.7-0.2,1.2-0.2,1.2l0,0c0,0,0.2-0.4,0.5-1.1c0.1-0.3,0.3-0.7,0.4-1.1c0.1-0.4,0.1-0.9,0.2-1.4c0.1-1-0.1-1.9-0.1-2.6
				C3.7-35.1,3.8-35.6,3.8-35.6L3.8-35.6z"/>
		</g>
		<g>
			<path fill="#4C2B12" d="M3.6-43.4c0,0-0.4,0.9-0.8,2.2c-0.5,1.3-0.9,3.2-1.2,5.1c-0.3,1.9-0.3,3.8-0.8,5.1
				c-0.2,0.6-0.6,1.1-0.8,1.4c-0.3,0.3-0.5,0.4-0.5,0.4l0,0c0,0,0.2-0.1,0.5-0.4s0.7-0.7,1.1-1.4c0.3-0.7,0.5-1.5,0.6-2.4
				c0.1-0.8,0.1-1.7,0.2-2.7c0.2-1.9,0.6-3.7,1-5.1C3.3-42.5,3.6-43.4,3.6-43.4L3.6-43.4z"/>
		</g>
		<g>
			<path fill="#4C2B12" d="M0.2-33c0,0,0,0.6-0.3,1.2c-0.1,0.1-0.1,0.3-0.2,0.4s-0.1,0.3-0.1,0.4c-0.1,0.2-0.1,0.4-0.1,0.4l0,0
				c0,0,0.2-0.1,0.4-0.2C0-30.9,0.1-31,0.2-31.1c0.1-0.1,0.1-0.3,0.1-0.5c0.1-0.3,0.1-0.7,0-0.9C0.3-32.9,0.2-33,0.2-33L0.2-33z"/>
		</g>
		<g>
			<path fill="#4C2B12" d="M1.9-42c0,0-0.5,1.1-1.1,2.7c-0.6,1.6-1.3,3.9-2,6.1c-0.3,1.1-0.6,2.3-0.8,3.3c-0.2,1.1-0.4,2.1-0.5,3
				C-2.7-25.2-2.8-24-2.8-24l0,0c0,0,0.2-1.1,0.6-2.9c0.2-0.9,0.4-1.9,0.6-2.9c0.2-1.1,0.5-2.2,0.7-3.4C0.3-37.6,1.9-42,1.9-42
				L1.9-42z"/>
		</g>
		<g>
			<path fill="#4C2B12" d="M1-43c0,0-0.4,0.6-0.8,1.6c-0.5,0.9-1,2.3-1.4,3.6c-0.2,0.7-0.4,1.4-0.5,2c-0.1,0.7-0.2,1.3-0.2,1.8
				c-0.1,1.1,0,1.8,0,1.8l0,0c0,0,0.1-0.7,0.3-1.7c0.1-0.5,0.2-1.1,0.3-1.7c0.1-0.6,0.2-1.3,0.4-2c0.3-1.3,0.8-2.7,1.2-3.6
				C0.8-42.4,1.1-43,1-43L1-43z"/>
		</g>
		<g>
			<path fill="#4C2B12" d="M-1.3-44.6c0,0,0,0.8-0.1,1.9c-0.1,1.1-0.3,2.6-0.7,4.1c-0.2,0.7-0.4,1.4-0.6,2.1
				c-0.2,0.7-0.3,1.3-0.4,1.9C-3.2-33.4-3-32.7-3-32.7l0,0c0,0,0-0.2,0-0.5s0.1-0.8,0.2-1.3c0.2-1.1,0.7-2.5,1-4s0.4-3,0.4-4.1
				C-1.2-43.9-1.2-44.6-1.3-44.6L-1.3-44.6z"/>
		</g>
		<g>
			<path fill="#4C2B12" d="M-3.3-30.8c0,0-0.5,1.8-1.2,3.4c-0.2,0.4-0.4,0.8-0.6,1.2c-0.2,0.4-0.3,0.7-0.5,1.1c-0.2,0.6-0.3,1-0.3,1
				l0,0c0,0,0.3-0.3,0.7-0.9c0.2-0.3,0.4-0.6,0.6-1s0.3-0.8,0.5-1.3c0.3-0.9,0.5-1.7,0.7-2.4C-3.3-30.3-3.3-30.8-3.3-30.8L-3.3-30.8
				z"/>
		</g>
		<g>
			<path fill="#4C2B12" d="M-3.6-26.7c0,0-0.4,0.6-0.6,1.3c-0.1,0.2-0.1,0.3-0.2,0.5c0,0.2,0,0.3,0,0.5c0,0.3,0.1,0.5,0.1,0.5l0,0
				c0,0,0.1-0.2,0.3-0.4c0.1-0.1,0.1-0.3,0.2-0.4c0-0.2,0-0.3,0.1-0.5C-3.6-25.9-3.5-26.7-3.6-26.7L-3.6-26.7z"/>
		</g>
		<g>
			<path fill="#4C2B12" d="M-0.8-26.9c0,0-0.3,0.7-0.3,1.5c0,0.2,0,0.4,0,0.6s0.1,0.3,0.2,0.5c0.1,0.3,0.3,0.4,0.3,0.4l0,0
				c0,0,0-0.2,0-0.5c0-0.1,0-0.3,0-0.5s-0.1-0.3-0.1-0.5C-0.8-26.1-0.7-26.9-0.8-26.9L-0.8-26.9z"/>
		</g>
		<g>
			<path fill="#4C2B12" d="M8.3-48.2c0,0,0.1-0.1,0.3-0.3s0.4-0.4,0.8-0.6c0.7-0.4,1.8-0.8,2.9-1c0.6-0.1,1.2-0.1,1.7-0.3
				s1-0.6,1.3-0.9c0.6-0.6,0.9-1.2,0.9-1.2l0,0c0,0-0.1,0.1-0.3,0.2c-0.2,0.2-0.5,0.4-0.8,0.6c-0.3,0.3-0.7,0.5-1.2,0.7
				s-1,0.3-1.6,0.4c-1.1,0.2-2.3,0.7-3,1.2c-0.4,0.3-0.6,0.5-0.8,0.7C8.3-48.4,8.2-48.3,8.3-48.2L8.3-48.2z"/>
		</g>
		<g>
			<path fill="#4C2B12" d="M11.5-51c0,0,0.2-0.1,0.5-0.1s0.8,0,1.3-0.1c0.1,0,0.3-0.1,0.4-0.1c0.1,0,0.2-0.1,0.3-0.2
				c0.2-0.1,0.3-0.3,0.4-0.5c0.2-0.3,0.2-0.6,0.2-0.6l0,0c0,0-0.2,0.1-0.5,0.3c-0.1,0.1-0.3,0.2-0.4,0.3c-0.1,0.1-0.2,0.1-0.2,0.2
				c-0.1,0.1-0.2,0.1-0.3,0.1c-0.4,0.1-0.9,0.2-1.2,0.3C11.6-51.3,11.5-51.1,11.5-51L11.5-51z"/>
		</g>
		<g>
			<path fill="#4C2B12" d="M14.7-50.2c0,0,1.3-0.5,2.7-0.6c0.3,0,0.7,0,1,0s0.6-0.1,0.9-0.1c0.5-0.1,0.8-0.4,0.8-0.4l0,0
				c0,0-0.4,0.1-0.9,0c-0.3,0-0.6,0-0.9,0s-0.7,0.1-1,0.2C16-50.9,14.7-50.2,14.7-50.2L14.7-50.2z"/>
		</g>
		<g>
			<path fill="#4C2B12" d="M-5.1-50.9c0,0,0.4,0.2,0.7,0.4c0.1,0.1,0.1,0.1,0.2,0.2c0.1,0,0.2,0,0.2,0.1c0.1,0,0.3,0,0.3,0l0,0
				c0,0,0-0.1-0.1-0.3c0-0.1-0.1-0.1-0.2-0.2c-0.1,0-0.2-0.1-0.3-0.1C-4.7-51-5.1-50.9-5.1-50.9L-5.1-50.9z"/>
		</g>
	</g>
	<g>
		<path fill="#056839" stroke="#1D995B" stroke-width="0.75" stroke-miterlimit="10" d="M16-19.7c0,0-7,3.7-8.2,7
			c0,0,2.8,2.8,7.9,3.4c0,0,4.2,4.5,10.7,1L32.5-8c0,0-0.2-1.5-1.6-2.1c0,0,5.7-0.3,7.1,0.3c1.4,0.7,2.7,1.2,3.8,1.2
			c0,0-0.1-1.6-3.1-3.1c0,0,3.5-0.1-1.7-2.3c0,0,3-0.8,2.4-2.1c-0.6-1.2-2.4-1.3-2.4-1.3s1-0.8,0.5-1.8s-4.2-0.6-4.2-0.6
			s1.1-1.2,0.6-2.1c-0.5-0.8-3.6-0.8-7.6,0c0,0-2.3-0.4-7.7,0L16-19.7z"/>
		<g>
			<path fill="#17AD5E" d="M12-15.7c0.7,0,1.4-0.1,2.1-0.4c0.6-0.3,1.3-0.6,1.9-0.8c0.3-0.1,0.6-0.2,0.9-0.2c0.2,0,0.3,0,0.4,0h0.1
				c0.1,0,0,0,0,0s0,0,0,0.1c-0.1,0.2-0.3,0.5-0.5,0.7c-0.2,0.2-0.5,0.5-0.8,0.7l-0.9,0.7l1.1-0.3c0.9-0.2,1.8-0.4,2.7-0.6
				c0.9-0.2,1.8-0.3,2.7-0.4c-0.9-0.1-1.9,0-2.8,0.1s-1.8,0.3-2.8,0.5l0.2,0.4c0.3-0.2,0.6-0.4,0.8-0.7c0.2-0.3,0.5-0.5,0.7-1
				c0-0.1,0-0.3-0.1-0.4c-0.2-0.2-0.2-0.2-0.3-0.2c-0.2-0.1-0.4-0.1-0.6,0c-0.4,0-0.7,0.2-1.1,0.3c-0.7,0.3-1.3,0.6-1.9,0.9
				C13.3-16,12.7-15.7,12-15.7z"/>
		</g>
		<g>
			<path fill="#17AD5E" d="M13.7-10.4c0.2,0.2,0.5,0.3,0.7,0.4c0.3,0.1,0.5,0.2,0.8,0.3c0.5,0.2,1.1,0.3,1.6,0.5
				c0.5,0.1,1.1,0.2,1.6,0.3c0.6,0.1,1.1,0.1,1.7,0.1c0.3,0,0.6,0,0.8,0c0.3,0,0.6-0.1,0.8-0.1c0.3-0.2,0.6-0.2,0.9-0.3l0.8-0.2
				l0.8-0.3c0.3-0.1,0.5-0.3,0.7-0.4c0.2-0.2,0.5-0.3,0.7-0.5l0.6-0.6l0.2-0.2l-0.2-0.1c-0.4-0.2-0.9-0.2-1.3-0.2s-0.9,0.1-1.3,0.2
				c0.4-0.1,0.9-0.1,1.3-0.1s0.9,0.1,1.2,0.3v-0.2L25.5-11c-0.2,0.2-0.4,0.3-0.7,0.4c-0.2,0.1-0.4,0.3-0.7,0.4l-0.7,0.3l-0.8,0.2
				c-0.3,0.1-0.5,0.1-0.8,0.2c-0.3,0-0.5,0.1-0.8,0.1s-0.5,0.1-0.8,0.1c-0.5,0-1.1,0-1.6,0c-0.3,0-0.5-0.1-0.8-0.1S17.3-9.5,17-9.5
				c-0.5-0.1-1.1-0.2-1.6-0.3c-0.5-0.2-0.7-0.2-1-0.3C14.2-10.2,13.9-10.3,13.7-10.4z"/>
		</g>
		<g>
			<path fill="#17AD5E" d="M24-20.2c0.7,0.2,1.3,0.3,2,0.4c0.7,0,1.4,0,2,0.1c0.3,0,0.7,0.1,0.9,0.2l0.1,0.1l0,0
				c-0.1,0.1-0.2,0.2-0.4,0.2c-0.3,0.1-0.6,0.3-0.9,0.4l-0.5,0.2l0,0l0,0l0,0l0,0c0,0-0.1,0.1-0.1,0.2c0.1,0.1,0.1,0.1,0.1,0.1l0,0
				c0,0,0,0,0.1,0l0,0l0,0h0.1h0.2c0.7,0.1,1.3,0.2,2,0.3c0.7,0.1,1.3,0.3,1.9,0.5c0.3,0.1,0.6,0.3,0.6,0.3c0,0.1-0.4,0.3-0.7,0.4
				c-0.6,0.2-1.3,0.3-1.9,0.5l-1.2,0.2l1.2,0.1c0.8,0.1,1.6,0.3,2.4,0.6s1.5,0.7,2.2,1.1c-0.6-0.6-1.4-1-2.1-1.4
				c-0.8-0.3-1.6-0.6-2.4-0.7v0.4c0.7-0.1,1.4-0.2,2-0.4c0.2-0.1,0.3-0.1,0.5-0.2s0.4-0.1,0.5-0.4c0-0.1,0-0.2,0-0.3
				c0-0.1,0-0.1-0.1-0.1v-0.1c-0.1-0.1-0.1-0.1-0.1-0.1l-0.1-0.1c-0.2-0.1-0.3-0.2-0.5-0.3c-1.3-0.5-2.7-0.7-4-0.9h-0.3h-0.1l0,0
				l0,0c0,0,0,0,0.1,0l0,0c0,0,0.1,0,0.1,0.1c0,0.2-0.1,0.2-0.1,0.2l0,0l0,0l0,0l0,0l0.5-0.2c0.3-0.1,0.6-0.2,1-0.4
				c0.2-0.1,0.3-0.2,0.5-0.3c0.1-0.1,0.2-0.2,0.1-0.4c-0.1-0.2-0.2-0.2-0.3-0.3c-0.4-0.2-0.7-0.2-1.1-0.2c-0.7,0-1.4,0-2,0.1
				C25.3-20,24.7-20,24-20.2z"/>
		</g>
		<g>
			<path fill="#17AD5E" d="M22-7c0,0,0.2,0,0.5,0s0.8,0,1.3-0.2s1.1-0.4,1.7-0.7s1.2-0.6,1.8-0.9c0.6-0.3,1.2-0.6,1.8-0.8
				c0.6-0.2,1.2-0.4,1.7-0.5c0.3,0,0.5-0.1,0.7-0.1s0.4,0,0.5,0c0.3,0,0.5,0,0.5,0s-0.2,0-0.5-0.1c-0.2,0-0.3-0.1-0.6-0.1
				c-0.2,0-0.5,0-0.7,0c-0.5,0.1-1.2,0.1-1.8,0.3c-0.6,0.2-1.3,0.5-1.9,0.8c-1.3,0.6-2.4,1.4-3.4,1.8c-0.5,0.2-0.9,0.3-1.2,0.3
				C22.2-7,22-7,22-7z"/>
		</g>
	</g>
	<g>
		<path fill="#035128" stroke="#1D995B" stroke-width="0.75" stroke-miterlimit="10" d="M11.2,9.7c0,0-1.2-1.6,3.8-3.6
			s8.4-4.5,12.5-3.8l-1.9,1.6c0,0,7.8-2.2,10.8,1c0,0,2.7,0.2,3.6,2.7c0,0,1.2-0.4,1.8,0.1s-0.8,2.5-3.9,3.5s-2,0.9-2,0.9s2,0,2,1
			s-2.1,2.1-4.4,2.4c0,0,0.8,1.1-0.1,2.5c0,0-4.4-6.9-7-5.4L11.2,9.7z"/>
		<g>
			<path fill="#035128" d="M23.2,10.3c0,0,4.4-0.5,9.2,2.3"/>
			<path fill="#1D995B" d="M23.2,10.3c0,0,0.6,0.1,1.5,0.2c0.4,0.1,1,0.2,1.5,0.3s1.1,0.2,1.7,0.4c1.1,0.3,2.3,0.7,3.1,1
				c0.4,0.1,0.8,0.3,1,0.4c0.3,0.1,0.4,0.1,0.4,0.1s-0.1-0.1-0.3-0.3s-0.5-0.4-0.9-0.6c-0.4-0.2-0.9-0.5-1.4-0.7s-1.1-0.4-1.7-0.6
				c-1.2-0.3-2.4-0.4-3.4-0.4C23.8,10.1,23.2,10.3,23.2,10.3z"/>
		</g>
		<g>
			<path fill="#035128" d="M25.5,5.5c0,0,3.5-1.2,4.5-0.7s-0.8,1.8-0.8,1.8"/>
			<path fill="#1D995B" d="M25.5,5.5c0,0,0.4,0,1.1-0.1c0.6-0.1,1.5-0.2,2.3-0.3c0.2,0,0.4,0,0.6,0s0.3,0,0.4,0.1s0,0,0.1,0v0.1
				c0,0.1-0.1,0.3-0.2,0.4c-0.2,0.3-0.3,0.5-0.5,0.6c-0.1,0.2-0.2,0.2-0.2,0.2s0.4-0.1,1-0.6c0.1-0.1,0.3-0.3,0.4-0.5
				c0.1-0.1,0.1-0.3,0.1-0.4c0-0.2-0.2-0.4-0.3-0.4c-0.2-0.2-0.5-0.2-0.7-0.3c-0.2,0-0.5,0-0.7,0c-0.9,0.1-1.8,0.4-2.4,0.6
				C25.9,5.3,25.5,5.5,25.5,5.5z"/>
		</g>
	</g>
	<g>
		<path fill="#035128" stroke="#1D995B" stroke-width="0.75" stroke-miterlimit="10" d="M21.4,7.8C20,6.2,17,7.1,13.8,7.7
			C11.8,8.1,11,9,11,9c-6.2-1.9-7.1,6.1-7.1,6.1s1.4,0.1,2.8,0c0,0-1.8,1.3-2.1,5.8l16.9,3c0,0,4.9,0,6,0.8s1.6,0,1.6,0l-0.6-1.2
			c0,0,1.4,0.8,2,2.6c0.2,0.4,0.7,0.5,1,0.2c0.6-0.7,1-2.3-0.7-5.3c0,0,0.7,0.9,1.2,0.2c0,0,1-1.8-3-5.2c0,0,0.8-3.3-1.3-3.3
			c0,0,0.2-3.2-8.9-3.5C18.7,9,21.7,8.8,21.4,7.8z"/>
		<g>
			<path fill="#1D995B" d="M9.6,17.5c-0.3-0.3-0.5-0.6-0.7-0.9c-0.1-0.2-0.2-0.3-0.2-0.5c-0.1-0.2,0-0.4,0.1-0.5
				c0-0.1,0.1-0.1,0.2-0.2l0.2-0.1c0.1,0,0.2,0,0.3-0.1c0.1,0,0.2,0,0.3,0c0.4,0,0.7,0,1.1,0h0.5l-0.5-0.3c-0.4-0.2-0.7-0.5-1-0.8
				s-0.6-0.7-0.6-1c0-0.2,0-0.4,0.2-0.5c0.1-0.1,0.3-0.2,0.5-0.2c0.4-0.1,0.9-0.1,1.3-0.1c1.8,0,3.6,0.2,5.3,0.5h0.1h0.1
				c0.9-0.5,2-0.8,3-0.9c0.1,0,0.2,0,0.4,0c0.1,0,0.2,0.1,0.3,0.1c0.1,0.1,0.2,0.1,0.3,0.2c0.1,0.1,0,0.1,0,0.2
				c-0.1,0.2-0.2,0.4-0.4,0.5c-0.2,0.2-0.4,0.3-0.6,0.5l-1.4,0.9l1.6-0.6c1-0.4,2.1-0.6,3.2-0.5c0.3,0,0.6,0,0.8,0.1
				c0.3,0,0.6,0.1,0.8,0.2c0.5,0.1,1.1,0.4,1.5,0.7c-0.5-0.3-1-0.6-1.5-0.8c-0.3-0.1-0.5-0.2-0.8-0.2c-0.3-0.1-0.6-0.1-0.8-0.1
				c-0.6,0-1.1,0-1.7,0.1s-1.1,0.2-1.7,0.4l0.2,0.3c0.2-0.1,0.5-0.3,0.7-0.5s0.4-0.4,0.6-0.7c0.1-0.2,0-0.4-0.1-0.6
				c-0.1-0.2-0.3-0.2-0.4-0.3c-0.2-0.1-0.3-0.1-0.4-0.1s-0.3,0-0.4,0c-0.6,0-1.1,0.1-1.7,0.3c-0.5,0.2-1,0.4-1.6,0.6h0.2
				c-2.2-0.5-4-0.7-5.8-0.7c-0.5,0-0.9,0-1.4,0.2c-0.2,0.1-0.5,0.1-0.7,0.4c-0.2,0.2-0.3,0.5-0.2,0.8c0,0.3,0.1,0.5,0.3,0.7
				c0.1,0.2,0.3,0.4,0.5,0.5c0.4,0.3,0.7,0.6,1.1,0.8l0.1-0.3c-0.4,0-0.8,0-1.1,0.1c-0.1,0-0.2,0-0.3,0.1c-0.1,0-0.2,0-0.3,0.1
				l-0.3,0.2c-0.1,0.1-0.2,0.1-0.2,0.2c-0.1,0.2-0.1,0.4,0,0.6c0.1,0.2,0.2,0.4,0.3,0.5C9,17,9.3,17.3,9.6,17.5z"/>
		</g>
	</g>
	<g>
		<path fill="#4C2B12" d="M7.6,0.1c0,0,0.1,0.1,0.3,0.2c0.2,0.1,0.5,0.3,0.9,0.5c0.8,0.4,1.9,0.6,3,0.9c0.5,0.1,1.1,0.2,1.6,0.3
			s1,0.2,1.4,0.3c0.8,0.2,1.4,0.3,1.4,0.3l0,0c0,0-0.5-0.3-1.3-0.6c-0.4-0.1-0.9-0.3-1.4-0.4s-1.1-0.2-1.6-0.2
			c-1.1-0.2-2.2-0.4-3-0.7C8.1,0.3,7.6,0,7.6,0.1L7.6,0.1z"/>
	</g>
	<g>
		<path fill="#4C2B12" d="M5.2-15c0,0,0.3,0.5,0.8,1c0.1,0.1,0.2,0.2,0.3,0.3c0.1,0.1,0.3,0.1,0.4,0.2c0.2,0.1,0.4,0.1,0.4,0.1l0,0
			c0,0-0.1-0.2-0.2-0.4c-0.1-0.1-0.2-0.2-0.3-0.3c-0.1-0.1-0.3-0.2-0.4-0.2C5.8-14.6,5.3-15,5.2-15L5.2-15z"/>
	</g>
	<g>
		<path fill="#035128" stroke="#1D995B" stroke-width="0.75" stroke-miterlimit="10" d="M-30.5-6.9c0,0-1.7,0.4-1.7,1.8
			S-18.3,1.1-6.7-6c0,0,6.9-1.1,5.4-7c0,0-1.2-1.3-9.8-1.6s-15.6-1.1-15.6-1.1s-2.7,0.8-0.6,2.4c0,0-2.5-0.8-4.2,1.6l1.9,1.1
			c0,0-5.9-0.3-6.2,4.9C-34.3-4.6-32.8-6.7-30.5-6.9z"/>
		<g>
			<path fill="#035128" d="M-24.1-4.2C-27.2-7.4-30.9-8-30.9-8s0.7-1.8,3.4-0.8c0,0-0.5-2.9,3.8-1.9"/>
			<path fill="#1D995B" d="M-24.1-4.2c-0.4-0.5-0.9-1-1.4-1.4s-1.1-0.8-1.6-1.2c-0.6-0.4-1.2-0.7-1.8-0.9c-0.3-0.1-0.6-0.3-1-0.4
				c-0.3-0.1-0.6-0.2-1-0.3l0.3,0.5c0,0,0-0.1,0.1-0.1c0-0.1,0.1-0.1,0.1-0.1c0.1-0.1,0.2-0.2,0.3-0.3c0.2-0.1,0.5-0.2,0.7-0.3
				c0.3,0,0.6,0,0.9,0s0.6,0.1,0.9,0.2l0.5,0.2l-0.1-0.5c0-0.2,0-0.4,0-0.5c0-0.2,0.1-0.4,0.2-0.5c0.2-0.3,0.5-0.6,0.8-0.7
				c0.4-0.1,0.8-0.2,1.2-0.2c0.2,0,0.4,0,0.6,0l0.6,0.1l-0.6-0.2c-0.2-0.1-0.4-0.1-0.6-0.1s-0.4,0-0.7-0.1c-0.2,0-0.5,0-0.7,0.1
				c-0.4,0.1-0.9,0.4-1.2,0.8c-0.1,0.2-0.2,0.4-0.3,0.7c0,0.2-0.1,0.5,0,0.7l0.4-0.4c-0.6-0.2-1.3-0.4-2-0.3c-0.4,0-0.7,0.2-1.1,0.4
				c-0.2,0.1-0.3,0.2-0.4,0.4c0,0-0.1,0.1-0.1,0.2c-0.1,0.1-0.1,0.2-0.2,0.3l-0.2,0.4l0.5,0.1c0.6,0.1,1.2,0.3,1.8,0.5
				c0.6,0.2,1.2,0.5,1.8,0.8C-26.2-5.7-25.1-5-24.1-4.2z"/>
		</g>
		<g>
			<path fill="#035128" d="M-11.1-11.8c0,0,3.4-1.8,4.8-0.9c0,0-0.4,0.8-1.2,1.6c0,0,1.9-1.1,3.5-0.9"/>
			<path fill="#1D995B" d="M-11.1-11.8c0.8-0.3,1.6-0.5,2.4-0.7c0.4-0.1,0.8-0.1,1.2-0.1c0.2,0,0.4,0,0.6,0l0.2,0.1l0.2,0.1
				l-0.1-0.5c-0.1,0.3-0.3,0.5-0.5,0.8s-0.4,0.5-0.6,0.7l-1.4,1.6l1.9-1.1c0.5-0.3,1-0.6,1.6-0.8s1.1-0.4,1.7-0.4
				c-0.3-0.1-0.6-0.1-0.9-0.1c-0.3,0-0.6,0-0.9,0.1c-0.6,0.1-1.2,0.3-1.8,0.6l0.4,0.5c0.3-0.2,0.5-0.5,0.7-0.8s0.4-0.6,0.6-0.9
				l0.2-0.3h-0.5l-0.4-0.2l-0.4-0.1c-0.2,0-0.5,0-0.7,0c-0.5,0-0.9,0.1-1.3,0.3C-9.6-12.7-10.4-12.3-11.1-11.8z"/>
		</g>
	</g>
	<g>
		<path fill="#035128" stroke="#1D995B" stroke-width="0.75" stroke-miterlimit="10" d="M-1.5-18.3c0,0,5.8,3.3,9.2,1.4
			c0,0,1,0.2,4-1.1s9.1-0.9,9.1-0.9s-0.2-1.2-2.9-1.3c0,0,7.4-1.1,7.7-2.1s-1.6-2.1-6.1-1.3c0,0,3.5-2.7,2.3-4.2s-7.6,1.2-7.6,1.2
			s1.1-1.4,0.6-1.7s-3.3,0.9-5.4,2.7c0,0,1.3-1.5,0.8-2.1c-0.3-0.5-5.3,3.7-5.6,6.4L-1.5-18.3z"/>
		<g>
			<path fill="#035128" d="M12.5-24.7c0,0,6.8-2.4,4.9,0.2"/>
			<path fill="#1D995B" d="M12.5-24.7c0,0,0.4,0,1-0.1s1.4-0.2,2.1-0.4c0.4-0.1,0.8-0.1,1.1-0.2c0.3,0,0.7,0,0.7,0.1
				c0.1,0.1,0.1,0.4,0,0.5c-0.1,0.2-0.1,0.3-0.1,0.3s0.1-0.1,0.2-0.2s0.1-0.2,0.2-0.3c0.1-0.1,0.1-0.3,0-0.5s-0.3-0.4-0.5-0.4
				c-0.1-0.2-0.3-0.2-0.5-0.2c-0.4,0-0.8,0-1.2,0.1c-0.8,0.2-1.6,0.5-2.1,0.7C12.8-25,12.5-24.7,12.5-24.7z"/>
		</g>
		<g>
			<path fill="#035128" d="M10.6-19.4c0,0,5.3-1.3,7.5-3.7"/>
			<path fill="#1D995B" d="M10.6-19.4c0,0,0.5,0,1.3-0.2s1.8-0.5,2.8-0.9s1.9-1,2.5-1.6c0.6-0.6,0.9-1,0.9-1S18-23,17.8-22.9
				c-0.2,0.1-0.5,0.3-0.8,0.5s-0.7,0.4-1.2,0.6c-0.4,0.2-0.9,0.4-1.4,0.6c-1,0.4-1.9,0.8-2.6,1.2C11.1-19.6,10.6-19.4,10.6-19.4z"/>
		</g>
	</g>
	<g>
		<path fill="#035128" stroke="#1D995B" stroke-width="0.75" stroke-miterlimit="10" d="M-16.1-21.7c0,0-3.8-1.9-5.1-1.9
			c-2.6-0.1-4.3-2.2,1.1-3.1c0,0-2.4-0.2-1.9-1s2.9-0.7,2.9-0.7s-2.7-1.7-2-2.8c0.7-1.1,6,0.1,8.7,2.6c0,0-0.8-1.7,0-1.9
			c0.8-0.2,2.8,2.8,2.8,2.8s-0.4-1.8,0.5-2s1.6,2.2,1.8,3.2c0.7,2.8,3.6,6.1,3.6,6.1l-4,2.2L-16.1-21.7z"/>
		<g>
			<path fill="#035128" d="M-16.8-27.2c0,0-1.1-1.5,0-2s4.4,3.2,4.4,3.2"/>
			<path fill="#1D995B" d="M-16.8-27.2c0,0,0-0.1-0.1-0.3c-0.1-0.2-0.2-0.5-0.2-0.8c0-0.2,0.1-0.3,0.1-0.4s0.1-0.1,0.2-0.1h0.1l0,0
				l0,0l0,0c0.1,0-0.1,0-0.1,0l0,0l0,0h0.2c0.1,0,0.1,0,0.2,0.1c0.1,0,0.2,0.1,0.3,0.1c0.2,0.1,0.4,0.2,0.6,0.4
				c0.8,0.6,1.5,1.2,2.1,1.7c0.6,0.5,1,0.8,1,0.8s-0.2-0.5-0.7-1.1s-1.1-1.4-2-2c-0.2-0.1-0.4-0.3-0.7-0.4c-0.1-0.1-0.3-0.1-0.4-0.1
				c-0.2,0-0.4-0.1-0.5,0h-0.2l0,0H-17l0,0l0,0l0,0l-0.1,0.1c-0.1,0.1-0.2,0.2-0.3,0.3c-0.2,0.3-0.1,0.5-0.1,0.8
				c0.1,0.4,0.3,0.7,0.5,0.9C-16.9-27.3-16.8-27.2-16.8-27.2z"/>
		</g>
		<g>
			<path fill="#035128" d="M-11.3-25.7c0,0-0.3-2.5,2.6,1.3"/>
			<path fill="#1D995B" d="M-11.3-25.7c0,0,0-0.1,0.1-0.2c0-0.1,0.1-0.3,0.2-0.4c0-0.1,0.1,0,0.1,0s0,0,0.1,0l0.1,0.1
				c0.1,0.1,0.3,0.3,0.5,0.4c0.3,0.3,0.7,0.7,1,0.9c0.3,0.2,0.6,0.4,0.6,0.4s-0.1-0.3-0.2-0.6c-0.2-0.4-0.5-0.8-0.9-1.2
				c-0.2-0.2-0.4-0.4-0.7-0.5c-0.1,0-0.1-0.1-0.2-0.1c-0.1,0-0.2,0-0.3,0c-0.2,0-0.4,0.2-0.4,0.3c-0.1,0.3,0,0.4,0,0.6
				C-11.3-25.7-11.3-25.7-11.3-25.7z"/>
		</g>
		<g>
			<path fill="#035128" d="M-8.1-21.3c0,0-0.6-0.8-0.1-1.4s3,1.6,3,1.6"/>
			<path fill="#1D995B" d="M-8.1-21.3c0,0,0-0.1,0-0.2s0-0.3,0-0.5c0-0.1,0-0.2,0.1-0.3l0.1-0.1c0,0,0,0,0.1,0l0,0l0,0
				c0,0,0.1-0.1-0.1,0.1l0,0l0,0l0,0l0,0c0.1-0.1,0,0.1,0,0h0.1c0.1,0,0.2,0.1,0.4,0.2c0.5,0.3,1.1,0.6,1.5,0.8
				c0.4,0.2,0.7,0.3,0.7,0.3s-0.2-0.3-0.5-0.7c-0.3-0.4-0.8-0.8-1.4-1.1c-0.1-0.2-0.3-0.3-0.5-0.3c-0.1,0-0.2,0-0.3,0
				C-8-23.1-8.3-23-8.3-23c-0.2,0.2-0.3,0.4-0.3,0.5c0,0.2,0,0.3,0,0.5c0.1,0.3,0.2,0.4,0.3,0.6C-8.2-21.4-8.1-21.3-8.1-21.3z"/>
		</g>
	</g>
	<g>
		<path fill="#FFFFFF" stroke="#231F20" stroke-width="0.5" stroke-miterlimit="10" d="M1.4-19.2C1.6-19.4,4-20,5.9-21.8"/>
		<g>
			<path fill="#056839" stroke="#1D995B" stroke-width="0.75" stroke-miterlimit="10" d="M-12.4-13.4c0,0,12-1.5,11.9-3.2l-1-0.9
				c0,0,8.2,0.1,11.1-2.6c0.4-0.4-2.3-0.2-2.3-0.2s3.3-1.1,3.1-1.7S6-22,6-22s1.9-1.9-0.4-1.2c0,0,1.1-2.5-1-2.4c0,0,0.5-1.5,0-2.1
				s-3.2,0.3-7,3.9l0.3-1.1c0,0-2.8-1.1-6.3,8L-12.4-13.4z"/>
			<g>
				<path fill="#17AD5E" d="M-6.1-19.5c0,0,0.1,0.2,0.2,0.5c0.2,0.3,0.5,0.6,0.8,0.8c0.4,0.2,0.8,0.4,1.1,0.4s0.5-0.1,0.5-0.1
					s0,0-0.1-0.1c-0.1,0-0.2-0.1-0.3-0.2c-0.3-0.1-0.6-0.3-0.9-0.5c-0.3-0.1-0.6-0.4-0.9-0.5C-5.9-19.4-6.1-19.5-6.1-19.5z"/>
			</g>
			<g>
				<path fill="#17AD5E" d="M-2.3-21.9c0.2-0.2,0.5-0.3,0.7-0.4l0.8-0.4c0.5-0.2,1-0.5,1.5-0.7c0.3-0.1,0.5-0.2,0.8-0.2
					c0.1,0,0.2,0,0.4,0c0.1,0,0.2,0,0.3,0.1c0.1,0,0.1,0.1,0.1,0.1s0,0.1-0.1,0.2c-0.1,0.2-0.3,0.4-0.5,0.6l-0.5,0.5l0.6-0.1
					c0.7-0.1,1.4-0.4,1.9-0.9c-0.6,0.3-1.3,0.5-1.9,0.6l0.1,0.2c0.3-0.2,0.5-0.4,0.7-0.6c0.1-0.1,0.2-0.3,0.1-0.6
					c0-0.2-0.2-0.4-0.4-0.5c0,0-0.2-0.1-0.4-0.1s-0.3,0-0.5,0c-0.3,0-0.6,0.1-0.9,0.3C0-23.6-0.6-23.3-1-23
					c-0.2,0.2-0.5,0.3-0.7,0.5S-2.2-22.1-2.3-21.9z"/>
			</g>
			<g>
				<path fill="#17AD5E" d="M4.1-23.8c0,0,0.2,0,0.4-0.1c0.2-0.2,0.4-0.4,0.6-0.7c0.1-0.2,0.1-0.4,0-0.6s-0.2-0.3-0.3-0.4
					c-0.1-0.1-0.2-0.1-0.3-0.1c-0.1,0-0.1,0-0.1,0s0.1,0.1,0.2,0.3c0.1,0.1,0.1,0.2,0.1,0.3c0,0.1,0,0.2-0.1,0.3
					c-0.1,0.2-0.2,0.5-0.4,0.6C4.1-24,4.1-23.8,4.1-23.8z"/>
			</g>
		</g>
	</g>
	<g>
		<path fill="#056839" stroke="#1D995B" stroke-width="0.75" stroke-miterlimit="10" d="M-5.4-14.2c0,0,2.1-2-1.3-4.9
			c0,0,1.1-1.7,0.4-2.2s-2.8,0.9-2.8,0.9s1.2-1.9,0.4-2.2c-0.8-0.3-3.3,1.7-3.3,1.7s-0.6-3.6-2.5-3.8c-0.6,0,0,1.7,0,1.7
			s-1.8-2.1-5.3-1.7c-1.2,0.4,1.1,2,1.1,2s-2.2-0.4-3.7,0.6c0,0,0.1-0.7-0.1-0.9c-0.5-0.4-3.5,1.1-3.5,1.1s0.9-1.1,0.4-1.3
			s-3.5,0-6.8,3.2c0,0,0.4-1.6-0.4-1.7c-0.8-0.1-4.6,1.8-4.7,6c0,0-1.6,0-1.7,0.8c0,0.8,1.5,2,5.3,0.2c0,0-0.8,1.3-0.2,1.8
			c0,0,2.7-2.4,3.9-2.4c3,0,7.5,2.6,11.2,2c0,0-2.2,0.3-2.4,1.2c0,0,5,0.1,7.2,0.3s3.7,0.8,7.2-2.5L-5.4-14.2z"/>
		<g>
			<path fill="#17AD5E" d="M-19.6-19.4c0,0-0.1,0-0.3-0.1c-0.2-0.1-0.4-0.2-0.7-0.3c-0.1-0.1-0.3-0.2-0.3-0.3c0-0.1,0-0.1,0-0.1
				s0-0.1,0,0l0.1-0.1c0.1,0,0.3-0.1,0.5-0.1s0.4-0.1,0.6-0.1c0.9-0.1,1.8-0.1,2.4-0.1c0.7,0,1.1-0.1,1.1-0.1s-0.4-0.1-1.1-0.2
				s-1.6-0.2-2.5-0.1c-0.3-0.1-0.7-0.1-1.3,0.2l-0.1,0.1c-0.1,0.1-0.1,0.1-0.1,0.2s0,0.3,0,0.4c0.2,0.2,0.3,0.3,0.5,0.4
				c0.3,0.1,0.6,0.2,0.8,0.2C-19.7-19.4-19.6-19.4-19.6-19.4z"/>
		</g>
		<g>
			<path fill="#17AD5E" d="M-28.4-18.3c0,0-0.1,0-0.3-0.1c-0.2,0-0.4-0.1-0.6-0.3c-0.1-0.1-0.1-0.2-0.1-0.3l0,0l0,0l0.1-0.1
				c0.1-0.1,0.1-0.1,0.2-0.1c0.2-0.2,0.6-0.3,1-0.4c0.7-0.2,1.5-0.3,2.1-0.4s1-0.2,1-0.2s-0.4-0.1-1-0.1s-1.4,0-2.2,0.2
				c-0.4,0.1-0.8,0.3-1.1,0.5c-0.1,0.1-0.2,0.2-0.2,0.2l-0.1,0.1v0.1v0.1c-0.1,0.2,0.1,0.5,0.2,0.6c0.3,0.2,0.6,0.1,0.7,0.2
				C-28.5-18.2-28.4-18.3-28.4-18.3z"/>
		</g>
		<g>
			<path fill="#17AD5E" d="M-29.4-19c-0.6,0-1.1,0.1-1.7,0.3c-0.3,0.1-0.5,0.2-0.8,0.4c-0.1,0.1-0.2,0.2-0.3,0.4
				c-0.1,0.2-0.1,0.3-0.2,0.5v0.3h0.3c0.9-0.1,1.8-0.1,2.7,0c0.4,0.1,0.9,0.1,1.3,0.2c0.5,0.1,0.9,0.1,1.4,0
				c-0.5-0.1-0.9-0.2-1.3-0.3c-0.4-0.1-0.9-0.3-1.3-0.4c-0.9-0.2-1.9-0.1-2.8,0l0.3,0.2c0-0.1,0-0.2,0.1-0.3
				c0.1-0.1,0.1-0.2,0.2-0.3c0.2-0.2,0.4-0.3,0.6-0.4C-30.5-18.6-30-18.8-29.4-19z"/>
		</g>
	</g>
	<g>
		<path fill="#056839" stroke="#1D995B" stroke-width="0.75" stroke-miterlimit="10" d="M7.7-3.7c0,0,5.6,8.1,18.2,8.9l9.9,1
			c0,0-0.5-1.8-2.2-2.8c0,0,2.6,0.6,3.4,0.1s-2.3-2.6-2.3-2.6s4.5-1.1-2.6-3.5c0,0-0.1-2.2-3.5-2.3c0,0,0.6-5-8.4-2.4
			S4.6-6.6,4.6-6.6L7.7-3.7z"/>
		<g>
			<path fill="#17AD5E" d="M15.8-2.8c0.9,0,1.7-0.1,2.6-0.3c0.8-0.2,1.7-0.6,2.4-1C21.5-4.5,22.2-5,23-5.3c0.8-0.3,1.6-0.4,2.4-0.4
				l-0.2-0.1c0,0,0,0.1,0.1,0.2c0,0.1,0,0.2,0,0.2c0,0.2,0,0.3-0.1,0.5c-0.1,0.2-0.3,0.5-0.5,0.8l-0.5,0.5l0.7-0.2
				c1-0.2,2-0.4,3.1-0.4c0.5,0,1,0,1.6,0c0.3,0,0.5,0.1,0.8,0.1L30.8-4l0.3,0.2c-0.2-0.2-0.4-0.3-0.7-0.4c-0.2-0.1-0.5-0.2-0.8-0.2
				c-0.5-0.1-1.1-0.2-1.6-0.2c-1.1,0-2.1,0.1-3.2,0.3L25-3.9c0.3-0.3,0.5-0.6,0.7-1c0.1-0.2,0.1-0.4,0.1-0.6c0-0.1,0-0.2,0-0.3
				c0-0.1,0-0.2-0.1-0.3l-0.1-0.1h-0.1c-0.9-0.1-1.8,0.1-2.6,0.5c-0.8,0.3-1.5,0.8-2.3,1.3c-0.7,0.5-1.4,0.9-2.2,1.1
				C17.5-3.1,16.7-2.9,15.8-2.8z"/>
		</g>
		<g>
			<path fill="#17AD5E" d="M28.2-0.7c0,0,0.3,0,0.8,0.1c0.5,0,1.2,0.1,1.8,0.1c0.3,0,0.6,0.1,0.9,0.1c0.3,0.1,0.5,0.2,0.5,0.3
				c0,0.2-0.1,0.4-0.1,0.5C32,0.5,32,0.6,32,0.6s0.1,0,0.2-0.1c0.1-0.1,0.1-0.1,0.2-0.2c0.1-0.1,0.1-0.2,0.1-0.4s-0.1-0.4-0.2-0.5
				c-0.1-0.1-0.3-0.2-0.5-0.3c-0.3-0.1-0.7-0.2-1-0.2c-0.7-0.1-1.4,0-1.9,0.1C28.5-0.8,28.2-0.7,28.2-0.7z"/>
		</g>
		<g>
			<path fill="#17AD5E" d="M12.2-0.2c0,0,0.4,0.4,1.1,0.9c0.7,0.5,1.7,1,2.8,1.4c0.5,0.2,1.1,0.4,1.6,0.5s1,0.2,1.4,0.2
				c0.4,0.1,0.8,0.1,1,0.1s0.4,0,0.4,0s-0.6-0.2-1.4-0.4S17.3,2,16.2,1.6c-1-0.4-2-0.8-2.8-1.2C12.6,0.1,12.2-0.2,12.2-0.2z"/>
		</g>
	</g>
	<g>
		<path fill="#035128" stroke="#1D995B" stroke-width="0.75" stroke-miterlimit="10" d="M-7.8-2.6c0,0,5.9,2.3,10.2,1.6
			c2.7-0.4,4.7,0.6,4.7,0.6s0-1.3-1.4-1.7c0,0,8.5,0.6,9.8-2.4h-1.6c0,0,2.8-1.6,2.1-3.2s-5.5,0.9-8.7,0.8c0,0,1.4-1.1,0.9-1.8
			C7.7-9.3,5.4-8.1,4.1-8c0,0,0.3-1.3-0.7-1.3c-3.2,0-5.6,2.1-7.5,2.6C-6.8-6-9.6-5.2-7.8-2.6z"/>
		<g>
			<path fill="#035128" d="M-3.5-5.6c0,0,0.8,0.1,1.7-0.2S2.3-7,3.1-6.6c0.8,0.4-0.7,1-0.7,1S5-5.8,6-5.5"/>
			<path fill="#1D995B" d="M-3.5-5.6c0.7,0.2,1.4,0.1,2.1,0l2-0.4c0.7-0.1,1.4-0.3,2-0.2c0.1,0,0.3,0,0.3,0.1L3-6l0,0
				c0-0.1,0-0.1,0-0.1S2.9-5.9,2.7-5.9c-0.1-0.1-0.3,0-0.4,0L0.5-5.1l1.9-0.2l1.8-0.2c0.6,0,1.2-0.1,1.8-0.1
				C5.4-5.7,4.8-5.8,4.2-5.8C3.6-5.9,3-5.9,2.4-5.9l0.1,0.6c0.2,0,0.4-0.1,0.5-0.2c0.2-0.1,0.3-0.2,0.5-0.4c0-0.1,0.1-0.2,0.1-0.3
				c0-0.1,0-0.2-0.1-0.3c0-0.1-0.1-0.2-0.2-0.2c0.1-0.1,0-0.1,0-0.2C3-7,2.8-7,2.6-7C2.2-7.1,1.9-7,1.5-6.9s-0.7,0.1-1,0.2
				c-0.7,0.2-1.3,0.4-2,0.6C-2.2-5.8-2.8-5.6-3.5-5.6z"/>
		</g>
		<g>
			<path fill="#035128" d="M9.5-3.2c0,0,2.8-0.9,3.4-2.8"/>
			<path fill="#1D995B" d="M9.5-3.2c0,0,0.3,0,0.7-0.1s1-0.3,1.5-0.7c0.2-0.2,0.5-0.4,0.7-0.6c0.2-0.2,0.3-0.5,0.4-0.7
				c0.1-0.3,0.1-0.6,0.1-0.6s-0.1,0.1-0.1,0.2c-0.1,0.1-0.2,0.2-0.3,0.4c-0.2,0.1-0.4,0.2-0.6,0.4c-0.2,0.1-0.4,0.3-0.6,0.5
				c-0.4,0.3-0.9,0.6-1.2,0.9C9.7-3.3,9.5-3.2,9.5-3.2z"/>
		</g>
	</g>
	<g>
		<path fill="#056839" stroke="#1D995B" stroke-width="0.75" stroke-miterlimit="10" d="M-34.3,19.5c0,0,0.3,1.1-1.6,2.7
			c0,0,0.6,1.2,2.7,0v1.7c0,0,1.1,0.3,2.7,0c0,0,1.7,3,3.4,2.8c0,0,0.2-1.8,0-2.8c0,0,7.7,10,16.9-8.2c0,0,1.9,3.8,5.5-7.8
			c0,0,4.9-3.4,8.3-4.3C3.8,3.5,4,3.3,3.8,3C3.4,2.4,2.5,1.5,0.2,1.3c0,0,4.6-2.3-3.9-3.5c0,0,1.7-4.5-7.2-1.8c0,0-2.9-4.5-3.6-0.9
			c0,0-3.7-3.4-5.9-2.3s1.8,3.8,1.8,3.8s-6.6-3.4-14.3,3.3c0,0,0.2,0.9,1.8,0.4c0,0-4.2,1.6-6.8,6.6c0,0,0.4,0.6,2.2-0.1
			c0,0-4.1,2.2-4.8,7c0,0,0,0.7,2,0.2c0,0-1.7,0.6-2,1.7s1.9,1.3,1.9,1.3s-1.1,0.2-2-0.2c-0.9-0.4-1.4,0-1.4,0.6
			C-42.1,18.9-39.1,22.3-34.3,19.5z"/>
		<g>
			<path fill="#17AD5E" d="M-32.4,10.1c-1.2,0.5-2.3,1.2-3,2.2c-0.2,0.3-0.4,0.5-0.5,0.8c-0.1,0.1-0.1,0.3-0.1,0.5s-0.1,0.3-0.1,0.5
				c-0.1,0.3,0,0.7,0,1c0.1,0.4,0.4,0.7,0.8,0.7c0.2,0,0.4,0,0.5-0.1l0.5-0.1l0.9-0.1c0.6-0.1,1.2-0.2,1.9-0.3
				c0.6-0.2,1.2-0.2,1.8-0.3c0.6,0,1.2-0.1,1.9-0.1v-0.5c-0.9,0.2-1.9,0.5-2.6,1.1c-0.2,0.2-0.4,0.3-0.5,0.6c-0.2,0.3,0,0.8,0.4,0.9
				c0.2,0.1,0.3,0,0.4,0h0.3h0.7c1.9,0,3.7-0.1,5.6-0.6l-0.3-0.3c-0.2,0.6-0.4,1.3-0.4,2c0,0.2,0,0.3,0,0.5s0.1,0.3,0.2,0.5
				s0.2,0.3,0.3,0.4c0.1,0.1,0.1,0.1,0.2,0.2l0.3,0.1l0,0l0,0c0.6-0.2,1.1-0.4,1.6-0.7c0.5-0.3,1-0.6,1.4-1c0.9-0.7,1.7-1.6,2.4-2.4
				c-0.8,0.8-1.6,1.6-2.6,2.3c-0.5,0.3-0.9,0.6-1.4,0.9s-1,0.5-1.5,0.6h0.1l-0.2-0.1c-0.1,0-0.1-0.1-0.2-0.1
				c-0.1-0.1-0.2-0.2-0.2-0.3c-0.1-0.3-0.2-0.6-0.1-0.9c0-0.6,0.2-1.3,0.4-1.8l0.1-0.4l-0.4,0.1c-1.8,0.4-3.6,0.5-5.5,0.5H-30h-0.3
				c-0.1,0-0.3,0-0.3,0c-0.1,0-0.1-0.2-0.1-0.2c0.1-0.1,0.2-0.3,0.4-0.4c0.7-0.5,1.5-0.9,2.4-1.1v-0.5c-0.6,0-1.3,0-1.9,0.1
				s-1.3,0.1-1.9,0.3c-0.6,0.1-1.2,0.3-1.8,0.4l-0.9,0.2c-0.3,0-0.7,0.2-0.9,0.2s-0.5-0.2-0.5-0.5s-0.1-0.6,0-0.9
				c0-0.2,0-0.3,0.1-0.4c0-0.1,0.1-0.3,0.1-0.4c0.1-0.3,0.2-0.6,0.4-0.8C-34.6,11.4-33.6,10.6-32.4,10.1z"/>
		</g>
		<g>
			<path fill="#17AD5E" d="M-29.9,8.6c0,0-0.5-0.1-1.2-0.3c-0.3-0.1-0.7-0.3-1.1-0.5c-0.2-0.1-0.4-0.2-0.5-0.4
				c-0.1-0.1-0.1-0.3-0.1-0.4s0.1-0.2,0.1-0.3c0.1-0.1,0.1-0.1,0.2-0.2c0.2-0.1,0.3-0.3,0.5-0.4c0.4-0.2,0.8-0.4,1.1-0.5
				c0.7-0.3,1.1-0.4,1.1-0.4s-0.5,0-1.2,0.1c-0.4,0.1-0.8,0.2-1.2,0.4c-0.2,0.1-0.4,0.2-0.6,0.4c-0.1,0.1-0.2,0.2-0.3,0.3
				c0,0.2-0.1,0.4-0.1,0.5c-0.1,0.3,0,0.7,0.2,0.9s0.4,0.3,0.6,0.4c0.4,0.2,0.9,0.3,1.2,0.3C-30.4,8.6-29.9,8.6-29.9,8.6z"/>
		</g>
		<g>
			<path fill="#17AD5E" d="M-14.4,15c1.7-0.5,3.2-1.3,4.6-2.4c0.7-0.5,1.3-1.1,1.9-1.8c0.3-0.3,0.6-0.7,0.8-1
				c0.3-0.3,0.5-0.7,0.7-1.1l0,0c0.5-0.4,1-0.8,1.5-1.2c0.5-0.4,1.1-0.7,1.7-1.1c1.1-0.7,2.3-1.3,3.5-1.9C-1,4.9-2.2,5.4-3.3,6.1
				c-0.6,0.5-1.2,0.8-1.8,1.2S-6.2,8-6.7,8.5l0,0l0,0c-0.2,0.3-0.5,0.7-0.7,1c-0.3,0.3-0.5,0.7-0.8,1c-0.6,0.6-1.2,1.2-1.8,1.8
				s-1.3,1.1-2.1,1.5C-12.9,14.3-13.6,14.7-14.4,15z"/>
		</g>
		<path fill="#FFFFFF" stroke="#17AD5E" stroke-width="0.5" stroke-miterlimit="10" d="M-11.9,18.6c0,0,1.7-2.8,2.4-5.2"/>
		<g>
			<path fill="#17AD5E" d="M-23.8,13.1c-0.6,0-1.2,0-1.7-0.1c-0.3-0.1-0.6-0.1-0.8-0.2c-0.1-0.1-0.2-0.1-0.3-0.2
				c-0.1-0.1-0.1-0.2-0.1-0.3v0.1c0,0,0.1-0.1,0.2-0.2c0.1-0.1,0.1-0.1,0.2-0.1c0.2-0.1,0.3-0.2,0.5-0.2c0.4-0.1,0.7-0.2,1.1-0.3
				c0.8-0.1,1.6-0.1,2.3-0.1h0.9l-0.8-0.5c-0.3-0.2-0.5-0.4-0.7-0.7c-0.1-0.1-0.1-0.3-0.2-0.4c0-0.1,0-0.3,0-0.4
				c0.1-0.3,0.3-0.5,0.6-0.8c0.3-0.2,0.5-0.4,0.8-0.6c0.3-0.2,0.6-0.3,0.9-0.5s0.7-0.3,1-0.4c0.7-0.3,1.4-0.5,2-0.8
				C-18.6,6.6-19.3,6.7-20,7c-0.3,0.1-0.7,0.2-1,0.4c-0.3,0.1-0.7,0.3-1,0.5c-0.3,0.2-0.6,0.4-0.9,0.6c-0.3,0.3-0.6,0.6-0.7,1
				c-0.1,0.2-0.1,0.4-0.1,0.6c0,0.2,0.1,0.4,0.2,0.6c0.1,0.2,0.2,0.3,0.4,0.5c0.1,0.1,0.3,0.3,0.5,0.4l0.1-0.5c-0.8,0-1.6,0-2.4,0.2
				c-0.4,0.1-0.8,0.2-1.2,0.3c-0.2,0.1-0.4,0.2-0.6,0.3c-0.1,0.1-0.2,0.1-0.3,0.2c-0.1,0.1-0.2,0.1-0.2,0.3l0,0l0,0
				c0,0.2,0.1,0.4,0.2,0.5s0.3,0.2,0.4,0.2c0.3,0.1,0.6,0.1,0.9,0.2C-24.9,13.2-24.3,13.2-23.8,13.1z"/>
		</g>
		<g>
			<path fill="#17AD5E" d="M-25.8,2.6c0.4-0.5,1-0.8,1.7-0.9c0.6-0.1,1.3,0,1.9,0.1l1.3,0.3l-1.2-0.6c-0.5-0.2-1-0.6-1.3-1
				c-0.2-0.2-0.3-0.4-0.3-0.7c0-0.2,0-0.5,0.1-0.7l0.1-0.1c0,0,0.1,0,0.1-0.1c0.1-0.1,0.2-0.1,0.3-0.1c0.3-0.1,0.5-0.1,0.8-0.1
				c0.5,0,1.1,0,1.7,0.1c2.2,0.2,4.5,0.7,6.7,1.2l0.9,0.2l-0.7-0.5c-0.3-0.3-0.7-0.8-0.5-1c0.1-0.1,0.2-0.1,0.3-0.1s0.2-0.1,0.3-0.1
				c0.2,0,0.5,0,0.7,0c1,0.1,2,0.6,2.7,1.2c-0.7-0.7-1.7-1.3-2.7-1.5c-0.3,0-0.5-0.1-0.8,0c-0.1,0-0.3,0-0.4,0.1
				c-0.1,0-0.3,0.1-0.4,0.2c-0.1,0.1-0.2,0.3-0.2,0.5s0.1,0.3,0.1,0.4c0.1,0.3,0.3,0.5,0.5,0.7l0.2-0.3C-15-0.5-16.1-0.7-17.2-1
				c-1.1-0.2-2.2-0.4-3.4-0.5c-0.6,0-1.1-0.1-1.7-0.1c-0.3,0-0.6,0-0.9,0.1c-0.2,0-0.3,0.1-0.5,0.2c-0.1,0-0.2,0.1-0.2,0.2
				c-0.1,0-0.1,0-0.2,0.1c-0.2,0.3-0.2,0.6-0.2,1c0.1,0.3,0.2,0.6,0.4,0.8c0.4,0.4,0.9,0.8,1.5,1l0.1-0.3c-0.3-0.1-0.7-0.1-1-0.1
				s-0.7,0-1,0.1C-24.9,1.7-25.5,2.1-25.8,2.6z"/>
		</g>
		<g>
			<path fill="#17AD5E" d="M0.8,3.3c-1-0.1-2,0-2.9,0v0.4c0.3,0,0.6-0.1,0.9-0.2C-1,3.4-0.9,3.4-0.7,3.2c0.1-0.1,0.2-0.3,0.2-0.4
				c0-0.2-0.1-0.2-0.2-0.3c0,0-0.1-0.1-0.2-0.2s-0.2-0.1-0.3-0.1c-0.2-0.1-0.3-0.1-0.5-0.1C-2,2-2.3,2-2.6,1.9
				c-1.3,0-2.5,0.3-3.7,0.5c1.2,0,2.4-0.1,3.6,0c0.3,0,0.6,0,0.9,0.1c0.1,0,0.3,0.1,0.4,0.1c0.2,0.1,0.2,0.1,0.3,0.2
				c0,0,0.1,0.1,0,0.1l0,0c0,0-0.1,0.1-0.2,0.2c-0.2,0.1-0.5,0.2-0.8,0.2l0,0c-0.1,0-0.2,0.1-0.2,0.2c0,0.1,0.1,0.2,0.2,0.2
				C-1.1,3.6-0.1,3.5,0.8,3.3z"/>
		</g>
		<g>
			<path fill="#17AD5E" d="M-19.8,17.7c0,0,0.2,0.1,0.5,0.1s0.8,0,1.2,0c0.4-0.1,0.8-0.2,1.1-0.4c0.1-0.1,0.2-0.2,0.3-0.3
				c0.1-0.1,0.1-0.1,0.1-0.1s-0.1,0-0.1,0.1c-0.1,0-0.2,0-0.4,0.1c-0.3,0.1-0.7,0.1-1.1,0.2s-0.8,0.2-1.1,0.3
				C-19.6,17.6-19.8,17.7-19.8,17.7z"/>
		</g>
		<g>
			<path fill="#17AD5E" d="M-34.3,19.5c0.9,0,1.8-0.1,2.7-0.3c0.9-0.2,1.8-0.6,2.5-1.2l-0.4-0.3c-0.2,0.5-0.3,1-0.3,1.5
				c0,0.3,0,0.5,0.2,0.8c0.1,0.3,0.3,0.5,0.5,0.7l0.1,0.1l0.1-0.1c0.6-0.3,1.2-0.7,1.8-1.2c0.5-0.5,1.1-1,1.3-1.7H-26
				c0.3,0.3,0.6,0.6,0.9,0.8c0.3,0.2,0.7,0.4,1.1,0.3c-0.4,0-0.7-0.2-1-0.4c-0.3-0.2-0.5-0.5-0.8-0.8l-0.1-0.2l-0.1,0.2
				c-0.3,0.6-0.8,1-1.3,1.4s-1.1,0.8-1.7,1.1h0.3c-0.3-0.3-0.5-0.7-0.5-1.1s0.1-0.9,0.3-1.3l0.4-0.9l-0.7,0.6
				c-0.7,0.6-1.5,1-2.3,1.3C-32.6,19.2-33.4,19.4-34.3,19.5z"/>
		</g>
		<g>
			<path fill="#17AD5E" d="M-30.3,21.2c-0.2,0.2-0.3,0.5-0.4,0.8s-0.1,0.6,0,0.9V23h0.1c0.9,0.2,1.8,0.1,2.6-0.3l-0.3-0.1
				c0.3,0.6,0.6,1.1,1.1,1.5c0.4,0.5,0.9,0.8,1.5,1.1c-0.4-0.4-0.8-0.9-1.2-1.3c-0.3-0.5-0.7-1-0.9-1.5l-0.1-0.2l-0.2,0.1
				c-0.4,0.2-0.7,0.3-1.2,0.3c-0.4,0.1-0.8,0.1-1.2,0.1l0.1,0.1C-30.6,22.3-30.5,21.7-30.3,21.2z"/>
		</g>
	</g>
	<g>
		<path fill="#056839" stroke="#1D995B" stroke-width="0.75" stroke-miterlimit="10" d="M-6.5,19.5c0,0-1.4,0.1-5,0
			s-6.6,0.6-8.1,3.8h2.5c0,0-1.7,0.4-3.1,2.4s-4.5,3.2-5.2,3.8s-0.5,1.2,1.4,1.2c0,0-5.7,4.7-1.8,4.5c0,0-0.2,0.6-1.8,0.7
			c-1.1,0.1-0.9,4.3,6.5,0.9c0,0-0.2,2.2,0,3.8s0.4,4.1,0.4,4.1s1,0.2,1.6-1.1c0,0,0,2.1-0.4,3.7c0,0,1.8,1.3,3.4-2
			c0,0,0.7,0.9,2.4,2.3c1.8,1.4,2.2,2.5,2.2,2.5s0.8-0.4,0.1-2l2.7,2.8c0,0,1.4-1.2-0.2-4l1.5,0.9c0,0,1-1.3-0.8-2.8
			c0,0,1.7,0.7,3.2,2.8c1.5,2.2,3.2,2.9,4.3,3.1l-0.4-1.6c0,0,3.2,3.5,7.4,2.4c0,0-0.1-0.8-0.8-1.2c0,0,2.7,0.4,4.6,3
			c0,0,1.7,0.2,0.9-3.3c0,0,2.2,0.2,5.3-2.1c1.6-1.2,3.6-1.2,3.6-1.2s0.3-1.8-2.1-1.5c0,0,4.2-1.1,4.8-3.7c0,0-0.2-0.4-1.9-0.1
			c0,0,3.7-1.8,3.2-4.7c-1.2-1.1-2.5,0.5-4.4-1.5c0,0,0.3-0.2,2,0s3.1,1.3,5.7,0.7c0,0,0.1-0.8-0.8-1.1c0,0,4,0.6,4.6-0.5l1.5,0.7
			c0,0,1.6-1.7-1.8-3.3c-1.8-0.8-2.2-1.8-2.2-1.8s1.6,0.3,2.2,0.1c0,0-0.5-2.8-3.3-3.9c0,0-0.5-1.8-2.1-2.2c0,0,2.5-0.7,2.4-3.3
			c-1.8-1.1-4.1,0.7-7.5,1.2c0,0,1.8-1.3,1.2-4.5c0,0-1.2,0.2-2.9,1.2c0,0,1-2,0.7-2.6c0,0-1.8-0.8-6.3,1.6c0,0,0.3-1.3-0.4-1.7
			c0,0-1.6,2.4-4.5,3.4c0,0,0.8-0.9,0.2-1.7s-4.9,2-4.9,2S1.9,18.8,1,18s-2.7-2.8-3.2-0.8c0,0-5.4-2.5-7.2,0.8
			C-9.5,18-8.8,19.4-6.5,19.5z"/>
		<g>
			<path fill="#17AD5E" d="M-20.2,38.4c0,0,0-0.2,0.1-0.5c0-0.3,0.2-0.8,0.4-1.3c0.2-0.5,0.5-1.1,0.9-1.7c0.4-0.6,0.8-1.2,1.3-1.8
				s1-1.2,1.5-1.7s1-1,1.4-1.4s0.8-0.7,1-0.9c0.2-0.2,0.4-0.4,0.4-0.4s-0.2,0.1-0.4,0.3c-0.3,0.2-0.7,0.4-1.1,0.8
				c-0.4,0.4-1,0.8-1.5,1.3s-1.1,1.1-1.6,1.7s-0.9,1.2-1.3,1.9c-0.2,0.3-0.3,0.6-0.5,1c-0.1,0.3-0.2,0.6-0.3,0.9
				c-0.2,0.6-0.2,1.1-0.2,1.4C-20.2,38.2-20.2,38.4-20.2,38.4z"/>
		</g>
		<g>
			<path fill="#17AD5E" d="M-20.8,33.1c0,0-0.2,0.1-0.5,0.4c-0.1,0.1-0.3,0.3-0.5,0.6c-0.1,0.1-0.2,0.2-0.2,0.4
				c-0.1,0.2,0,0.5,0.3,0.5c0.5,0.1,0.8-0.2,1.2-0.3c0.3-0.2,0.7-0.4,1-0.7c0.7-0.5,1.4-1.1,2-1.8c0.6-0.6,1.2-1.4,1.8-1.9
				c0.6-0.6,1.2-1,1.8-1.3c1.2-0.7,2-0.9,2-0.9s-0.9,0.1-2.2,0.6c-0.6,0.3-1.3,0.7-2,1.3c-0.7,0.6-1.2,1.3-1.9,1.9
				c-0.6,0.6-1.3,1.2-1.9,1.8c-0.3,0.3-0.6,0.5-1,0.7c-0.3,0.2-0.7,0.4-0.9,0.4c-0.3,0-0.1-0.4,0-0.6c0.1-0.2,0.3-0.4,0.4-0.6
				C-20.9,33.3-20.8,33.1-20.8,33.1z"/>
		</g>
		<g>
			<path fill="#17AD5E" d="M-14.2,32.3c-0.6,0.7-1.2,1.5-1.6,2.3c-0.2,0.4-0.4,0.9-0.5,1.3c-0.1,0.5-0.2,0.9-0.3,1.4V38l0.1,0.7
				l0.2,0.7l0.3,0.7v0.1c0,0,0,0,0.1,0.1s0.1,0.1,0.2,0.2c0.2,0.1,0.3,0.1,0.5,0c0.2,0,0.3-0.2,0.4-0.3c0.1-0.1,0.1-0.2,0.2-0.3
				l0.6-1.3l-0.5-0.1c0,1,0.2,2,0.4,3c0.1,0.2,0.1,0.5,0.2,0.7c0.1,0.2,0.2,0.5,0.3,0.7s0.3,0.4,0.5,0.6l0.3,0.2l0.4,0.2h0.1
				l0.1-0.1c0.1-0.1,0.1-0.1,0.2-0.2c0-0.1,0.1-0.1,0.1-0.2c0.1-0.1,0.1-0.2,0.2-0.3c0.1-0.2,0.1-0.4,0.2-0.7c0.1-0.5,0.1-0.9,0-1.4
				h-0.4c0.1,0.5,0.4,1,0.6,1.4c0.3,0.4,0.6,0.8,1,1.1s0.8,0.6,1.2,0.8s0.9,0.4,1.4,0.5c-0.5-0.2-0.9-0.4-1.3-0.6
				c-0.4-0.2-0.8-0.6-1.1-0.9c-0.3-0.3-0.6-0.7-0.9-1.1c-0.2-0.4-0.4-0.9-0.5-1.3l-0.4-1.7V41c0,0.4,0,0.9-0.1,1.3
				c0,0.2-0.1,0.4-0.2,0.6c0,0.1-0.1,0.2-0.1,0.3l-0.1,0.1l-0.1,0.1h0.2l-0.3-0.1l-0.3-0.2c-0.2-0.2-0.3-0.3-0.4-0.5
				c-0.1-0.2-0.2-0.4-0.3-0.6c-0.1-0.2-0.2-0.5-0.2-0.7c-0.2-0.9-0.4-1.9-0.4-2.9v-1.1l-0.4,1l-0.5,1.3l-0.1,0.3
				c0,0.1-0.1,0.1-0.1,0.1c-0.1,0-0.1,0-0.2,0h-0.1c0,0,0,0,0-0.1c0,0,0,0,0-0.1l-0.3-0.6l-0.2-0.6l-0.1-0.7v-0.7
				c0-0.5,0.1-0.9,0.2-1.4c0.1-0.4,0.3-0.9,0.4-1.3C-15.2,33.8-14.8,33-14.2,32.3z"/>
		</g>
		<g>
			<path fill="#17AD5E" d="M-11.8,36.3c0.4,2.1,1.4,4.2,2.9,5.8c0.2,0.2,0.4,0.4,0.6,0.6c0.2,0.2,0.4,0.4,0.6,0.5
				c0.4,0.3,0.9,0.6,1.3,0.9c0.9,0.6,1.7,1.3,2.4,2.1l0,0l0,0c0.2,0.1,0.3,0.1,0.4,0.1c0.2,0,0.3,0,0.5-0.2c0.2-0.1,0.2-0.3,0.3-0.5
				c0-0.1,0-0.1,0-0.2c0-0.1,0-0.1,0-0.2c0-0.3-0.1-0.5-0.2-0.8c-0.1-0.2-0.2-0.5-0.3-0.7L-3.7,44c1.1,0.8,2.3,1.4,3.6,1.9
				c0.6,0.2,1.3,0.4,2,0.4c0.3,0,0.7,0,1,0s0.7-0.1,1-0.1H4l0,0c0.1-0.2,0.1-0.4,0.1-0.6c0-0.2-0.1-0.3-0.1-0.5
				c-0.1-0.3-0.3-0.6-0.5-0.9c-0.4-0.5-0.8-1-1.3-1.5c0.4,0.5,0.9,1,1.2,1.5c0.2,0.3,0.3,0.6,0.4,0.9c0,0.2,0.1,0.3,0.1,0.5
				c0,0.1,0,0.3-0.1,0.4l0.1-0.1c-0.3,0-0.6,0.1-1,0.1c-0.3,0-0.6,0-1-0.1c-0.4,0-1-0.2-1.6-0.4c-1.2-0.4-2.4-1.1-3.4-1.8l-0.7-0.5
				l0.3,0.8c0.2,0.4,0.4,0.9,0.4,1.3c0,0.2,0,0.4-0.1,0.5s-0.3,0.1-0.5,0l0.1,0.1c-0.8-0.8-1.6-1.5-2.5-2.1
				c-0.4-0.3-0.9-0.6-1.3-0.9c-0.2-0.1-0.4-0.3-0.6-0.5c-0.2-0.2-0.4-0.3-0.6-0.5c-0.4-0.4-0.7-0.8-1.1-1.2
				c-0.3-0.4-0.6-0.9-0.9-1.3C-11.1,38.3-11.5,37.3-11.8,36.3z"/>
		</g>
		<g>
			<path fill="#17AD5E" d="M-7.5,32.2c-0.1,0.7,0,1.4,0.1,2c0.1,0.3,0.2,0.7,0.3,1c0.1,0.2,0.2,0.3,0.3,0.5c0.1,0.1,0.3,0.3,0.5,0.4
				h0.1h0.1c0.1,0,0.2-0.1,0.3-0.1c0.1-0.1,0.2-0.1,0.2-0.2c0.1-0.1,0.3-0.3,0.3-0.4c0.2-0.3,0.3-0.7,0.3-1.1h-0.5
				c0,0.5,0.1,0.9,0.3,1.4c0.2,0.4,0.4,0.8,0.6,1.2c0.5,0.8,1.2,1.4,2,1.7c-0.3-0.3-0.7-0.6-1-0.9c-0.3-0.3-0.6-0.7-0.8-1
				c-0.2-0.4-0.4-0.8-0.5-1.2c-0.1-0.4-0.2-0.8-0.2-1.2h-0.5c0,0.3-0.1,0.6-0.2,0.8c-0.1,0.1-0.1,0.2-0.2,0.3c0,0-0.1,0.1-0.2,0.1
				s-0.1,0.1-0.2,0.1h0.2c-0.5-0.2-0.8-0.9-1-1.5C-7.3,33.5-7.4,32.9-7.5,32.2z"/>
		</g>
		<g>
			<path fill="#17AD5E" d="M9.4,44.6c0.9,0.2,1.7,0.4,2.6,0.5c0.4,0,0.9,0.1,1.4,0c0.5,0,0.9-0.1,1.4-0.3c0.2-0.1,0.4-0.2,0.6-0.5
				c0.1-0.1,0.1-0.2,0.2-0.3c0-0.1,0.1-0.1,0.1-0.2v-0.2c0-0.2,0-0.5,0-0.7s-0.1-0.5-0.2-0.7c-0.2-0.4-0.5-0.8-0.8-1.1
				s-0.7-0.6-1.1-0.8l-0.1,0.5c0.8,0,1.6,0,2.4-0.3c0.2-0.1,0.4-0.2,0.6-0.3s0.3-0.3,0.4-0.6c0-0.1,0-0.2,0.1-0.3
				c0-0.2,0-0.2-0.1-0.3c-0.1-0.2-0.2-0.4-0.4-0.6c-0.2-0.1-0.3-0.3-0.5-0.4c-0.2-0.1-0.4-0.2-0.5-0.3c-0.4-0.2-0.7-0.3-1.1-0.4
				c-0.8-0.2-1.5-0.3-2.3-0.4c0.8,0.2,1.5,0.4,2.2,0.6c0.7,0.3,1.5,0.5,2,1c0.1,0.1,0.2,0.2,0.2,0.4c0,0.1,0,0.2,0,0.2
				c0,0.1,0,0.2,0,0.2c-0.1,0.1-0.1,0.3-0.3,0.4c-0.1,0.1-0.3,0.2-0.4,0.2c-0.7,0.2-1.5,0.3-2.2,0.2l-1-0.1l0.8,0.5
				c0.7,0.4,1.4,1,1.8,1.7c0.1,0.2,0.2,0.4,0.2,0.6c0,0.2,0.1,0.4,0,0.6v0.2v0.1c0,0.1,0,0.2-0.1,0.2c-0.1,0.1-0.3,0.2-0.4,0.4
				c-0.4,0.2-0.8,0.3-1.2,0.3s-0.9,0.1-1.3,0C11.2,44.8,10.3,44.7,9.4,44.6z"/>
		</g>
		<g>
			<path fill="#17AD5E" d="M-12.3,20.8c-0.5,0-1,0.1-1.4,0.3c-0.2,0.1-0.4,0.3-0.5,0.5s-0.2,0.5-0.2,0.7v0.1h0.1
				c0.4-0.1,0.7-0.1,1.1-0.1c0.4,0,0.7,0,1,0.2v-0.3c-0.7,0.4-1.3,0.9-1.8,1.5c-0.2,0.3-0.4,0.7-0.6,1c-0.1,0.2-0.1,0.4-0.2,0.6
				c0,0.2-0.1,0.4-0.1,0.6c0,0.5,0.4,0.9,0.9,1c0.2,0,0.5,0,0.7-0.1s0.4-0.1,0.5-0.1c0.7-0.2,1.5-0.2,2.2-0.1l-0.2-0.4
				c-0.2,0.3-0.4,0.6-0.5,0.9s-0.3,0.7-0.3,1.1v0.3l0.3-0.1c0.4-0.1,0.8-0.2,1.2-0.2s0.8,0.1,1.2,0.2s0.8,0.3,1.1,0.5
				c0.4,0.2,0.7,0.5,1,0.8l0.2-0.4c-0.4-0.1-0.9-0.2-1.3-0.2s-0.9,0-1.3,0.2l-0.3,0.1l0.2,0.2c0.5,0.4,1,0.6,1.5,0.9
				s1.1,0.5,1.6,0.7c1.1,0.5,2.2,0.9,3.3,1.2C-4,32-5.1,31.5-6.1,31c-0.5-0.3-1-0.5-1.6-0.8c-0.5-0.3-1-0.6-1.5-0.9v0.3
				c0.7-0.3,1.6-0.1,2.4,0l0.8,0.2l-0.6-0.5c-0.3-0.3-0.7-0.6-1.1-0.8c-0.4-0.2-0.8-0.4-1.2-0.5c-0.4-0.1-0.9-0.2-1.3-0.2
				c-0.5,0-0.9,0-1.4,0.2l0.3,0.2c0-0.2,0.1-0.5,0.2-0.8c0.1-0.3,0.3-0.6,0.5-0.8l0.2-0.3l-0.4-0.1c-0.8-0.1-1.6,0-2.4,0.1
				c-0.2,0-0.4,0.1-0.6,0.2c-0.2,0.1-0.3,0.1-0.5,0.1c-0.3,0-0.5-0.3-0.5-0.6c0-0.2,0-0.3,0.1-0.5c0-0.2,0.1-0.4,0.2-0.5
				c0.1-0.3,0.3-0.7,0.5-1c0.4-0.6,1-1.1,1.6-1.5l0.3-0.2l-0.3-0.1c-0.4-0.1-0.8-0.2-1.1-0.1c-0.4,0-0.7,0.1-1.1,0.2l0.1,0.1
				c0-0.2,0-0.5,0.2-0.7c0.1-0.2,0.3-0.4,0.5-0.5C-13.2,20.9-12.7,20.8-12.3,20.8z"/>
		</g>
		<g>
			<path fill="#17AD5E" d="M-8.8,25c-0.6-0.3-1.2-0.4-1.8-0.4l0.1,0.1c0-0.2,0-0.5,0.1-0.7s0.3-0.4,0.5-0.5s0.5-0.2,0.7-0.2
				c0.3,0,0.5,0,0.8,0h0.5l-0.3-0.4c-0.1-0.2-0.2-0.4-0.2-0.6c0-0.1,0-0.2,0.1-0.3c0-0.1,0.1-0.2,0.2-0.2c0.1-0.1,0.2-0.1,0.3-0.2
				c0.1,0,0.2-0.1,0.3-0.1c0.2-0.1,0.5-0.1,0.8-0.2s0.5-0.1,0.8-0.1s0.5,0,0.8,0s0.5,0,0.8,0s0.5,0,0.8,0C-4,21.1-4.6,21-5.1,20.9
				c-0.3,0-0.5-0.1-0.8-0.1s-0.6,0-0.8,0c-0.3,0-0.6,0.1-0.8,0.1c-0.1,0-0.3,0.1-0.4,0.1s-0.3,0.2-0.4,0.2c-0.1,0.1-0.2,0.2-0.3,0.4
				c-0.1,0.2-0.1,0.3-0.1,0.5c0,0.3,0.1,0.6,0.3,0.9l0.2-0.4c-0.6,0-1.2,0-1.8,0.3c-0.3,0.2-0.5,0.4-0.6,0.7c-0.1,0.3-0.1,0.6,0,0.9
				v0.1h0.1C-10,24.8-9.4,24.8-8.8,25z"/>
		</g>
		<g>
			<path fill="#17AD5E" d="M6.9,21.3c0.5-0.2,1-0.5,1.5-0.7s1-0.3,1.5-0.4c0.2,0,0.5,0,0.7,0.1c0,0,0.1,0,0,0l0.1,0.1l0,0
				c0,0,0,0.1-0.1,0.2c-0.3,0.3-0.8,0.6-1.3,0.9l-1.5,0.8l1.6-0.4c0.8-0.2,1.6-0.4,2.4-0.8c0.8-0.3,1.5-0.7,2.1-1.3
				c-0.7,0.4-1.4,0.7-2.2,1c-0.8,0.2-1.6,0.4-2.3,0.6l0.1,0.5c0.5-0.3,1-0.5,1.4-1c0.1-0.1,0.2-0.3,0.2-0.5c0-0.1-0.1-0.3-0.2-0.4
				l0,0c-0.1-0.1-0.1,0-0.1-0.1c-0.3-0.1-0.6-0.1-0.9-0.1c-0.6,0.1-1.1,0.3-1.6,0.5C7.8,20.6,7.3,20.9,6.9,21.3z"/>
		</g>
		<g>
			<path fill="#17AD5E" d="M3,35.1c1.6,0,3.2-0.1,4.8-0.3c0.8-0.1,1.6-0.2,2.4-0.5c0.8-0.2,1.5-0.6,2.3-0.9c0.7-0.4,1.4-0.7,2.2-1.1
				c0.4-0.2,0.7-0.4,1.1-0.5c0.4-0.2,0.7-0.3,1.1-0.4c0.1,0,0.2,0,0.2,0s0,0,0.1,0l0,0l0,0v0.1c0.1,0.1,0.1,0.1,0.1,0.2s0,0.1,0,0.2
				c-0.1,0.3-0.3,0.6-0.6,0.9c-0.5,0.6-1.1,1.1-1.8,1.6l-0.7,0.5l0.7-0.2c0.6-0.2,1.2-0.3,1.9-0.4c0.3-0.1,0.6-0.1,1-0.1
				c0.3,0,0.6,0,1,0.1c-0.6-0.2-1.3-0.2-1.9-0.1c-0.7,0.1-1.3,0.2-1.9,0.3l0.1,0.3c0.7-0.5,1.3-1,1.9-1.6c0.3-0.3,0.6-0.6,0.7-1.1
				c0-0.1,0.1-0.2,0-0.4c0-0.2-0.1-0.3-0.1-0.4v-0.1l0,0c-0.1-0.1,0,0-0.1-0.1c-0.1,0-0.1-0.1-0.2-0.1s-0.3,0-0.4,0
				c-0.5,0.1-0.8,0.2-1.2,0.4c-0.4,0.2-0.7,0.3-1.1,0.5L12.5,33c-0.7,0.4-1.4,0.7-2.2,0.9S8.8,34.3,8,34.4C6.2,34.7,4.6,34.9,3,35.1
				z"/>
		</g>
		<g>
			<path fill="#17AD5E" d="M9,32.3c1.4-0.5,2.8-1.1,4.2-1.7c0.7-0.3,1.4-0.7,2-1.2c0.3-0.2,0.6-0.5,0.9-0.7c0.3-0.2,0.6-0.4,1-0.6
				c0.7-0.4,1.3-0.7,2-1s1.4-0.6,2.1-0.7c0.4-0.1,0.7-0.1,1-0.1c0.1,0,0.2,0,0.2,0h0.1l0.1,0.1c0.1,0.1,0.1,0.1,0,0.3
				c-0.1,0.3-0.3,0.6-0.6,0.8c-0.3,0.3-0.5,0.5-0.8,0.7l-0.7,0.7l0.9-0.2c0.5-0.1,1-0.1,1.4-0.1c0.5,0,1,0.1,1.4,0.2
				c0.5,0.1,0.9,0.3,1.4,0.6c0.2,0.1,0.4,0.3,0.6,0.4s0.4,0.3,0.6,0.5c-0.2-0.2-0.3-0.4-0.5-0.5c-0.2-0.2-0.4-0.3-0.6-0.5
				c-0.4-0.3-0.9-0.5-1.4-0.7s-1-0.3-1.5-0.3s-1,0-1.6,0.1l0.2,0.3c0.3-0.2,0.6-0.4,0.9-0.7c0.3-0.3,0.6-0.6,0.7-1
				c0-0.1,0.1-0.2,0-0.4c0-0.1-0.1-0.3-0.2-0.4l-0.1-0.1C22.6,26,22.6,26,22.5,26c0-0.1-0.1-0.1-0.2-0.1c-0.4,0-0.8,0-1.2,0.1
				c-1.5,0.4-2.9,1-4.2,1.8c-0.3,0.2-0.7,0.4-1,0.6c-0.3,0.2-0.6,0.5-0.9,0.7c-0.6,0.5-1.2,0.8-1.9,1.2C11.7,31.1,10.4,31.7,9,32.3z
				"/>
		</g>
		<g>
			<path fill="#17AD5E" d="M9.4,31.4c0,0,0.4-0.1,1.1-0.3c0.6-0.3,1.4-0.7,2.1-1.3c0.3-0.3,0.7-0.6,0.9-0.9c0.3-0.3,0.5-0.6,0.7-0.9
				s0.3-0.5,0.4-0.7c0.1-0.2,0.1-0.3,0.1-0.3s-0.1,0.1-0.2,0.2c-0.1,0.1-0.3,0.3-0.5,0.6c-0.5,0.5-1.1,1.1-1.7,1.6
				c-0.7,0.5-1.4,1.1-1.9,1.4C9.8,31.2,9.4,31.4,9.4,31.4z"/>
		</g>
		<g>
			<path fill="#17AD5E" d="M19.1,22.7c-0.7,0.8-1.6,1.5-2.5,2.2l-1.3,1l1.5-0.6c0.7-0.3,1.5-0.6,2.2-0.6c0.2,0,0.3,0,0.5,0.1
				c0.1,0,0.2,0.1,0.2,0.1l0.1,0.1l0,0c0,0.1-0.1,0.2-0.2,0.3c-0.1,0.1-0.3,0.3-0.4,0.4c-0.6,0.5-1.3,0.9-1.9,1.4
				c-0.7,0.5-1.3,1-1.9,1.5c1.3-0.9,2.7-1.6,4.1-2.5c0.2-0.1,0.3-0.3,0.5-0.4c0.1-0.2,0.3-0.3,0.4-0.7c0-0.1,0-0.2-0.1-0.3
				c0-0.1-0.1-0.1-0.1-0.1c-0.1-0.1-0.2-0.1-0.3-0.2c-0.2-0.1-0.5-0.1-0.7-0.1c-0.4,0-0.9,0.1-1.2,0.2c-0.4,0.1-0.8,0.3-1.1,0.5
				l0.2,0.3C17.7,24.4,18.5,23.6,19.1,22.7z"/>
		</g>
	</g>
</symbol>
<use xlink:href="#New_Symbol_2"  width="84.7" height="107.8" id="XMLID_2_" x="-42.3" y="-53.9" transform="matrix(3.5426 0 0 -3.5426 250.0003 249.9998)" overflow="visible"/>
</svg>
