<?xml version="1.0" encoding="utf-8"?>
<!-- Generator: Adobe Illustrator 18.1.1, SVG Export Plug-In . SVG Version: 6.00 Build 0)  -->
<svg version="1.1" id="Layer_1" xmlns="http://www.w3.org/2000/svg" xmlns:xlink="http://www.w3.org/1999/xlink" x="0px" y="0px"
	 viewBox="0 0 500 500" enable-background="new 0 0 500 500" xml:space="preserve">
<symbol  id="New_Symbol_4" viewBox="-0.8 -1 1.6 2">
	<path fill="#F4D851" stroke="#E0A010" stroke-width="0.32" stroke-miterlimit="10" d="M0-0.4c0-0.2-0.1-0.4-0.3-0.4
		s-0.3,0.2-0.3,0.4S-0.5,0-0.3,0S0-0.2,0-0.4z"/>
	<path fill="#F4D851" stroke="#E0A010" stroke-width="0.32" stroke-miterlimit="10" d="M-0.1,0.4C-0.1,0.2-0.3,0-0.4,0
		s-0.3,0.2-0.3,0.4s0.1,0.4,0.3,0.4S-0.1,0.6-0.1,0.4z"/>
	<path fill="#F4D851" stroke="#E0A010" stroke-width="0.32" stroke-miterlimit="10" d="M0.7,0.1c0-0.2-0.1-0.4-0.3-0.4
		S0.1-0.1,0.1,0.1s0.1,0.4,0.3,0.4S0.7,0.3,0.7,0.1z"/>
</symbol>
<g>
	<g>
		<path fill="#8DC63F" stroke="#547219" stroke-width="2.1643" stroke-miterlimit="10" d="M231.9,439.1l-3.7-1.9
			c-1.1-0.6-2.1-1.3-2.9-2.3l-4.4-5.1c0,0,16-7.6,22.5-17.3c6.5-9.7,8.1-26.8,8.1-26.8l7.1-2.3c1.8-0.6,3.8-0.3,5.4,0.8l7,4.8
			l-0.5-4.9l-6.1-4.3c-2.2-1.6-4.9-2.4-7.6-2.4c-4.1,0-10.2,0.5-14.7,3.3c-4.7,3-14.8,13.5-21.4,20.6c-4.4,4.7-7.8,10.3-10,16.4
			c-2.7,7.6-5.8,18-5.1,25.4c0.2,2,1.8,4.8,3.3,6.1l2.2,2c1.7,1.5,3.8,2.3,6,2.4c4.1,0.1,10.6-0.4,13.9-4.7c0,0,4.8-0.4,7.9-2.1
			c0.8-0.4,1.3-1.3,1.3-2.2c0-2.9-0.9-9.7-8.2-13.5V439.1z"/>
		<g>
			<path fill="#638921" d="M232.3,435.9c0,0,0.1,0.3,0.3,0.8c0.2,0.5,0.3,1.3,0.5,2.3c0.1,0.5,0.1,1,0.2,1.6c0,0.6,0.1,1.1,0,1.8
				c0,0.6-0.1,1.2-0.1,1.9c-0.1,0.6-0.2,1.3-0.4,1.9c-0.2,0.6-0.4,1.3-0.7,1.9c-0.3,0.6-0.5,1.2-1,1.8c-0.2,0.3-0.4,0.5-0.6,0.8
				c-0.2,0.2-0.5,0.4-0.7,0.6c-0.2,0.2-0.5,0.4-0.7,0.5c-0.2,0.2-0.5,0.3-0.7,0.4c-0.5,0.2-0.9,0.4-1.3,0.6c-0.4,0.1-0.8,0.2-1,0.2
				c-0.6,0.1-0.9,0.1-0.9,0.1l-0.1-0.2c0,0,0.2-0.3,0.7-0.6c0.2-0.2,0.5-0.4,0.7-0.6c0.3-0.2,0.5-0.6,0.9-0.9c0.3-0.3,0.6-0.7,0.9-1
				c0.2-0.2,0.3-0.4,0.5-0.6c0.1-0.2,0.3-0.4,0.4-0.6c0.4-0.4,0.6-0.9,1-1.3c0.2-0.2,0.3-0.5,0.4-0.7l0.4-0.8
				c0.2-0.6,0.4-1.1,0.6-1.7c0.1-0.6,0.3-1.1,0.4-1.7c0.1-0.6,0.1-1.1,0.2-1.6c0.1-0.5,0.1-1,0.1-1.5c0-1.9-0.2-3.1-0.2-3.1
				L232.3,435.9z"/>
		</g>
		<g>
			<path fill="#638921" d="M225.2,427.3c0,0-1.8,0.8-4.4,2.3c-0.6,0.4-1.3,0.8-2.1,1.3c-0.7,0.5-1.5,1-2.2,1.5
				c-0.8,0.5-1.5,1.1-2.2,1.8c-0.7,0.6-1.4,1.3-2.1,2c-0.6,0.7-1.2,1.5-1.7,2.3c-0.5,0.8-0.8,1.6-1.1,2.4c-0.2,0.4-0.2,0.8-0.4,1.2
				c0,0.4-0.2,0.8-0.2,1.1c0,0.4-0.1,0.7,0,1.1c0,0.4,0,0.7,0.1,1.1c0.1,0.7,0.3,1.3,0.4,1.9c0.2,0.5,0.4,1,0.5,1.4
				c0.4,0.8,0.5,1.3,0.5,1.3l-0.2,0.1c0,0-0.4-0.3-1-1c-0.3-0.3-0.6-0.8-1-1.3c-0.3-0.6-0.7-1.2-0.9-2c-0.3-0.8-0.4-1.7-0.4-2.7
				c0-0.5,0.1-1,0.1-1.5c0.1-0.5,0.2-1,0.4-1.5c0.4-1,0.9-1.9,1.5-2.8c0.7-0.8,1.3-1.6,2.1-2.3c0.7-0.7,1.6-1.4,2.4-2
				c0.8-0.6,1.6-1.2,2.5-1.6c1.6-1,3.2-1.8,4.6-2.4c2.8-1.2,4.7-1.8,4.7-1.8L225.2,427.3z"/>
		</g>
		<g>
			<path fill="#638921" d="M213.1,420c0,0,2.3-3.1,5.8-7.6c3.5-4.6,8.2-10.7,12.9-16.7c1.2-1.5,2.3-3,3.5-4.6c1.2-1.5,2.4-3,3.6-4.3
				c1.2-1.3,2.6-2.6,3.9-3.6c1.3-1.1,2.7-2,4-2.7c0.7-0.3,1.3-0.7,1.9-0.9c0.3-0.1,0.6-0.3,0.9-0.4c0.3-0.1,0.6-0.2,0.9-0.3
				c0.6-0.2,1.1-0.3,1.6-0.4c0.3-0.1,0.5-0.1,0.7-0.2c0.2,0,0.5-0.1,0.7-0.1c0.9-0.1,1.5-0.1,2-0.1c0.5,0,0.7,0,0.7,0l0,0.2
				c0,0-0.2,0.1-0.7,0.2c-0.4,0.1-1.1,0.2-1.9,0.5c-0.2,0.1-0.4,0.1-0.6,0.2c-0.2,0.1-0.4,0.2-0.7,0.3c-0.5,0.2-1,0.4-1.5,0.6
				c-1,0.5-2.1,1.2-3.3,1.9c-1.1,0.8-2.3,1.7-3.5,2.8c-1.2,1.1-2.4,2.3-3.6,3.6c-2.5,2.5-4.9,5.5-7.4,8.4c-5,5.9-9.9,11.8-13.7,16.1
				c-3.8,4.4-6.3,7.3-6.3,7.3L213.1,420z"/>
		</g>
		<g>
			<path fill="#638921" d="M209.7,436.1c0,0-0.3-0.5-0.6-1.3c-0.2-0.4-0.3-0.9-0.5-1.4c-0.1-0.5-0.2-1.1-0.3-1.7
				c-0.1-0.6-0.2-1.2-0.2-1.7c0.1-0.5,0.2-1,0.5-1.4c0.4-0.8,1.1-1.2,1.1-1.2l0.2,0.1c0,0,0.1,0.2,0.2,0.4c0.1,0.3,0.2,0.6,0.2,1
				c0.1,0.4,0.1,0.9,0.1,1.3c-0.1,0.5-0.3,1-0.3,1.5c-0.1,1-0.2,2.1-0.2,2.9c0,0.8,0.1,1.4,0.1,1.4L209.7,436.1z"/>
		</g>
		<g>
			<path fill="#638921" d="M217.3,428.8c0,0,0-0.5,0.1-1.3c0-0.8,0-1.8,0-2.8c0-0.5-0.2-1-0.2-1.5c0-0.5,0.1-0.9,0.2-1.3
				c0.1-0.4,0.3-0.7,0.4-1c0.1-0.2,0.2-0.4,0.2-0.4l0.2,0c0,0,0.5,0.5,0.9,1.3c0.2,0.4,0.3,0.9,0.3,1.4c0,0.5-0.2,1.1-0.3,1.6
				c-0.2,1.1-0.6,2.1-0.9,2.9c-0.3,0.8-0.6,1.2-0.6,1.2L217.3,428.8z"/>
		</g>
		<g>
			<path fill="#638921" d="M227.3,422.3c0,0,0-1,0-2.5c0-1.5-0.1-3.5-0.3-5.4c-0.1-0.5-0.1-1-0.2-1.4c-0.1-0.5-0.2-0.9-0.2-1.4
				c-0.1-0.9-0.1-1.8-0.1-2.5c0-0.7,0.1-1.4,0.1-1.8c0.1-0.5,0.1-0.7,0.1-0.7l0.2-0.1c0,0,0.7,0.9,1.3,2.3c0.1,0.4,0.3,0.8,0.4,1.2
				c0.1,0.4,0.2,0.9,0.3,1.4c0.1,1,0,2,0,3c-0.1,2-0.3,4.1-0.6,5.6c-0.3,1.5-0.6,2.5-0.6,2.5L227.3,422.3z"/>
		</g>
		<g>
			<path fill="#638921" d="M240.5,412.7c0,0,0-1.3-0.1-3.1c-0.1-1.9-0.3-4.4-0.8-6.8c-0.1-0.6-0.2-1.2-0.4-1.8
				c-0.1-0.6-0.3-1.2-0.4-1.7c-0.2-1.1-0.4-2.2-0.5-3.1c-0.1-0.9-0.2-1.7-0.2-2.3c0-0.6,0-0.9,0-0.9l0.2-0.1c0,0,0.9,1,1.7,2.8
				c0.2,0.4,0.4,0.9,0.6,1.5c0.2,0.5,0.3,1.1,0.5,1.7c0.2,1.2,0.3,2.5,0.3,3.8c0.1,2.6,0.1,5.1-0.1,7c-0.1,0.9-0.2,1.7-0.3,2.3
				c-0.1,0.5-0.2,0.9-0.2,0.9L240.5,412.7z"/>
		</g>
		<g>
			<path fill="#638921" d="M248.3,396.4c0,0,0.1-0.7,0.1-1.8c0-1.1,0-2.5-0.1-3.9c-0.1-0.7-0.3-1.4-0.4-2c-0.1-0.6,0-1.3,0-1.8
				c0.1-0.5,0.1-1,0.2-1.4c0.1-0.3,0.2-0.6,0.2-0.6l0.2-0.1c0,0,0.7,0.6,1.1,1.7c0.3,0.5,0.5,1.2,0.5,1.9c0.1,0.7-0.1,1.5-0.2,2.2
				c-0.1,0.8-0.2,1.5-0.3,2.2c-0.2,0.7-0.3,1.3-0.5,1.9c-0.3,1.1-0.7,1.7-0.7,1.7L248.3,396.4z"/>
		</g>
	</g>
	<g>
		<path fill="#8DC63F" stroke="#547219" stroke-width="2.1643" stroke-miterlimit="10" d="M62.2,178.6c-1.2,0.6-2.5-0.7-1.9-1.8
			c3.3-6.4,11.1-19.2,21.4-24.4c0,0,5.2-3.2,23,0.3c6.3,1.2,12.1,4.3,16.8,8.7l8.4,7.8c0,0,18.4-6.5,38.4,4.9l50.3,35.2l-48.2,31.4
			c0,0-56.8-6-77.4-63.8l-9.6-2.6c-5.3-1.4-10.9-0.8-15.8,1.7L62.2,178.6z"/>
		<g>
			<path fill="#638921" d="M75.9,155.7c0,0,0.6-0.5,1.7-1.3c0.6-0.4,1.3-0.8,2.2-1.1c0.9-0.3,1.9-0.6,3.2-0.6c1.2,0,2.6,0.5,3.6,1.4
				c1.1,0.9,1.9,2.2,2.5,3.5c0.6,1.4,1,2.8,1.5,4.2c0.4,1.4,0.9,2.9,1.3,4.3c0.9,2.9,1.8,5.8,2.7,8.5c0.4,1.3,0.8,2.6,1.2,3.9
				c0.4,1.2,0.8,2.4,1.1,3.5c0.7,2.2,1.3,3.9,1.7,5.2c0.4,1.3,0.7,2,0.7,2l-0.2,0.1c0,0-0.4-0.6-1.2-1.8c-0.4-0.6-0.8-1.3-1.2-2.1
				c-0.4-0.8-0.9-1.8-1.4-2.8c-0.5-1-1-2.2-1.5-3.4c-0.5-1.2-0.9-2.5-1.4-3.9c-0.4-1.4-0.8-2.8-1.1-4.3c-0.3-1.5-0.7-2.9-1-4.4
				c-0.4-1.5-0.7-2.9-1.1-4.4c-0.4-1.4-0.7-2.9-1.2-4.1c-0.5-1.3-1.1-2.4-2-3.3c-0.8-0.9-1.9-1.3-3-1.4c-1.1-0.1-2.1,0.1-2.9,0.3
				c-0.9,0.3-1.6,0.6-2.2,0.9c-1.2,0.6-1.7,1.1-1.7,1.1L75.9,155.7z"/>
		</g>
		<g>
			<path fill="#638921" d="M138,221c0,0,0.6-0.2,1.7-0.4c0.5-0.1,1.2-0.3,1.9-0.6c0.7-0.2,1.6-0.5,2.5-0.8c0.9-0.3,1.9-0.7,2.9-1.1
				c1-0.4,2.1-0.9,3.1-1.3c1.1-0.5,2.2-1,3.3-1.6c1.1-0.6,2.2-1.2,3.3-1.8c1.1-0.7,2.1-1.3,3.1-2.1c1-0.7,2-1.4,2.9-2.1
				c0.9-0.7,1.9-1.4,2.7-2c0.9-0.6,1.7-1.2,2.4-1.8c0.8-0.6,1.4-1.1,2-1.6c0.6-0.5,1.2-0.9,1.6-1.2c0.9-0.7,1.4-1.1,1.4-1.1l0.2,0.1
				c0,0-0.3,0.5-1,1.5c-0.3,0.5-0.8,1-1.3,1.6c-0.5,0.6-1.1,1.3-1.8,2c-0.3,0.3-0.7,0.7-1.1,1.1c-0.4,0.4-0.8,0.7-1.2,1.1
				c-0.8,0.8-1.8,1.5-2.7,2.2c-1,0.7-2,1.4-3.2,2c-1.1,0.7-2.2,1.3-3.4,1.9c-1.2,0.6-2.3,1.2-3.5,1.7c-1.1,0.5-2.3,1-3.4,1.4
				c-1.1,0.4-2.2,0.8-3.3,1.1c-1.1,0.3-2.1,0.6-3,0.8c-0.9,0.3-1.8,0.4-2.6,0.6c-0.8,0.2-1.4,0.3-2,0.4c-1.1,0.2-1.7,0.3-1.7,0.3
				L138,221z"/>
		</g>
		<g>
			<path fill="#638921" d="M117.8,205.8c0,0,0.7-0.1,1.8-0.3c1.1-0.2,2.8-0.5,4.7-0.9c1-0.2,2-0.5,3.1-0.7c1.1-0.3,2.2-0.6,3.4-0.9
				c1.2-0.4,2.4-0.7,3.6-1.2c1.2-0.4,2.5-0.9,3.7-1.3c1.2-0.5,2.4-1,3.6-1.5c1.2-0.5,2.3-1.1,3.4-1.6c2.2-1,4.3-2,6.1-2.8
				c1.8-0.8,3.3-1.5,4.3-2c1.1-0.5,1.7-0.7,1.7-0.7l0.1,0.2c0,0-0.5,0.5-1.4,1.2c-0.4,0.4-1,0.8-1.7,1.3c-0.7,0.5-1.4,1-2.2,1.6
				c-0.4,0.3-0.9,0.6-1.3,0.8c-0.5,0.3-1,0.6-1.5,0.8c-1,0.6-2.1,1.1-3.2,1.7c-1.2,0.5-2.3,1-3.6,1.4c-1.2,0.5-2.5,0.9-3.8,1.3
				c-1.3,0.4-2.6,0.8-3.8,1.1c-1.3,0.4-2.5,0.7-3.7,0.9c-1.2,0.3-2.4,0.5-3.5,0.7c-1.1,0.2-2.2,0.4-3.2,0.5c-1,0.1-1.9,0.3-2.7,0.3
				c-0.8,0.1-1.5,0.2-2.1,0.2c-1.2,0.1-1.8,0.1-1.8,0.1L117.8,205.8z"/>
		</g>
		<g>
			<path fill="#638921" d="M104.1,184.2c0,0,0.6,0.1,1.6,0.2c0.5,0.1,1.1,0.1,1.8,0.2c0.7,0.1,1.5,0.1,2.3,0.2
				c0.9,0.1,1.8,0.1,2.8,0.1c1,0,2,0,3.1,0c1.1-0.1,2.2-0.1,3.3-0.2c1.1-0.1,2.2-0.3,3.4-0.4c1.1-0.2,2.2-0.4,3.3-0.6
				c1.1-0.3,2.2-0.5,3.2-0.8c1-0.2,2-0.5,3-0.7c1-0.2,1.8-0.4,2.7-0.6c0.8-0.2,1.6-0.4,2.3-0.6c0.7-0.2,1.3-0.3,1.8-0.4
				c1-0.3,1.6-0.4,1.6-0.4l0.1,0.2c0,0-0.5,0.3-1.4,0.9c-0.4,0.3-1,0.6-1.6,0.9c-0.6,0.3-1.4,0.7-2.2,1c-0.4,0.2-0.8,0.4-1.3,0.5
				c-0.4,0.2-0.9,0.3-1.4,0.5c-0.9,0.4-2,0.6-3.1,0.9c-1.1,0.2-2.2,0.4-3.3,0.6c-1.1,0.2-2.3,0.3-3.5,0.4c-1.2,0.1-2.3,0.2-3.5,0.2
				c-1.1,0-2.3,0-3.4,0c-1.1-0.1-2.1-0.1-3.1-0.2c-1-0.1-1.9-0.2-2.8-0.3c-0.9-0.1-1.7-0.2-2.4-0.4c-0.7-0.1-1.3-0.2-1.8-0.4
				c-1-0.2-1.5-0.3-1.5-0.3L104.1,184.2z"/>
		</g>
		<g>
			<path fill="#638921" d="M96.3,164.1c0,0,0.5,0.2,1.3,0.5c0.8,0.3,2,0.7,3.4,1.2c1.4,0.5,3.1,0.9,4.9,1.4c1.8,0.4,3.8,0.8,5.7,1.1
				c1,0.1,2,0.3,2.9,0.4c1,0.1,1.9,0.2,2.9,0.3c1.8,0.2,3.6,0.4,5,0.6c1.5,0.2,2.7,0.4,3.6,0.5c0.9,0.1,1.4,0.3,1.4,0.3l0,0.2
				c0,0-2,0.6-5.1,0.7c-0.8,0.1-1.6,0.1-2.5,0c-0.9,0-1.8-0.1-2.8-0.2c-1.9-0.2-3.9-0.7-5.9-1.2c-2-0.5-3.9-1-5.7-1.6
				c-0.9-0.3-1.8-0.6-2.6-0.9c-0.8-0.3-1.6-0.6-2.3-0.9c-1.4-0.6-2.5-1.1-3.3-1.5c-0.8-0.4-1.2-0.6-1.2-0.6L96.3,164.1z"/>
		</g>
		<g>
			<path fill="#638921" d="M129.2,168.6c0,0,0.7,0.7,1.9,1.8c0.6,0.6,1.3,1.3,2.2,2c0.8,0.8,1.8,1.6,2.9,2.5
				c1.1,0.9,2.3,1.9,3.6,2.8c1.3,1,2.7,2,4.1,3c1.5,1,2.9,2,4.5,3c1.5,1,3.2,1.9,4.8,2.9c1.7,0.9,3.3,1.8,5,2.6
				c1.7,0.8,3.3,1.6,4.9,2.3c1.6,0.7,3.1,1.4,4.6,2.1c1.5,0.6,2.9,1.3,4.2,1.8c0.6,0.3,1.3,0.5,1.9,0.8c0.6,0.2,1.2,0.5,1.7,0.7
				c1.1,0.4,2,0.8,2.8,1.1c1.5,0.6,2.4,1,2.4,1l-0.1,0.2c0,0-0.9-0.1-2.6-0.4c-0.8-0.1-1.8-0.3-2.9-0.6c-1.1-0.3-2.4-0.6-3.8-1
				c-0.7-0.2-1.4-0.4-2.1-0.7c-0.7-0.3-1.5-0.5-2.2-0.8c-1.6-0.5-3.1-1.2-4.8-2c-1.6-0.8-3.3-1.6-4.9-2.5c-1.6-0.9-3.3-1.9-4.9-2.9
				c-1.6-1-3.2-2-4.7-3.1c-1.6-1-3-2.2-4.4-3.2c-1.4-1.1-2.8-2.1-4-3.2c-1.2-1.1-2.4-2.1-3.4-3.1c-1-1-2-1.9-2.8-2.7
				c-0.8-0.8-1.5-1.5-2.1-2.1c-1.1-1.2-1.8-1.9-1.8-1.9L129.2,168.6z"/>
		</g>
		<g>
			<path fill="#638921" d="M146.2,181.1c0,0-1.3-2-2.3-4.1c-0.3-0.5-0.6-1-0.8-1.5c-0.2-0.5-0.3-1-0.3-1.5c-0.1-0.9,0.2-1.6,0.2-1.6
				l0.2-0.1c0,0,0.7,0.4,1.2,1.1c0.3,0.4,0.6,0.8,0.8,1.3c0.2,0.5,0.2,1.1,0.4,1.7c0.6,2.3,0.9,4.6,0.9,4.6L146.2,181.1z"/>
		</g>
		<g>
			<path fill="#638921" d="M158.9,188.3c0,0-0.1-0.9-0.3-2.2c-0.2-1.3-0.7-2.9-1.3-4.5c-0.3-0.8-0.7-1.5-1-2.3
				c-0.3-0.7-0.5-1.4-0.6-2.1c-0.2-0.6-0.3-1.2-0.3-1.6c-0.1-0.4-0.1-0.7-0.1-0.7l0.2-0.1c0,0,0.9,0.5,1.8,1.6
				c0.4,0.5,0.9,1.2,1.2,2c0.3,0.8,0.4,1.7,0.6,2.6c0.2,0.9,0.3,1.8,0.3,2.6c0.1,0.8,0.1,1.6,0,2.3c0,0.7-0.1,1.2-0.1,1.6
				c-0.1,0.4-0.1,0.6-0.1,0.6L158.9,188.3z"/>
		</g>
	</g>
	<path fill="#54750A" stroke="#3F5600" stroke-width="2.1643" stroke-miterlimit="10" d="M301.4,267.6c0,0-3.8-5.3-10.3-12.3
		c-0.5-2.3-1.2-4.6-1.8-6.9c0.6-7.5,3-18.3,10.7-25.6l-11.9-1.8c0,0-2.6,6-3.5,14.1c-7.5-18.3-18.3-33.9-27.4-42.2l-9.1,3.6
		c0,0,20.9,16.3,31,47.1c-5.3-4.6-11.3-9.3-17.8-13.2c-2.5-4.7-7.3-14.6-8.9-23.4l-6.1,4.3c0,0,2.2,6.6,5.8,13.2
		c-16.5-11.6-24.6-22.9-24.6-22.9l1.8,9c0,0,7.4,11,27.4,24.6c-0.6,1.2-3.6,2.4-5.8,2.9c-6.9,1.4-10.8-2.2-10.8-2.2l0.7,7.2
		c0,0,12.8,2.4,22.2-3.7c7.5,5.3,14.2,11.9,19.7,18.2c2.1,11.5,2.7,24.6,0.3,39.2c-3.9,24.3-24.5,73.6-8.7,184c0,0,5.1,3.6,7.9-5.8
		c0,0-16.4-111.7,7.2-172.4c3.8-9.7,4.9-20.2,4.1-30.9c3.8,5.5,6,9.2,6,9.2L301.4,267.6z"/>
	<g>
		<path fill="#8DC63F" stroke="#547219" stroke-width="2.1643" stroke-miterlimit="10" d="M284.6,228.1c0,0-8.6-20.6-11.2-39.1
			c-1.3-9.1,1.1-18.4,6.3-26l9.1-13.3c6.5-9.4,16.2-16.2,27.3-18.8c10.6-2.5,24.3-4.7,36.5-3.5c4.5,0.4,8.9,2.1,12.8,4.4
			c7,4.2,18.8,11.8,25.8,19.5c0,0,28.7,1,23.5,35c-0.2,1.5-2.3,2.1-2.9,0.7c-2.7-6-7-9.6-10.2-12.5l-2.5,2.2c-1.2,1-2.5,2-3.8,2.8
			l-17.4,10.7c0,0-7.6,8.7-15.7,14.6c-9.1,6.7-38.9,21.9-59.5,25.4C286.8,233,284.6,228.1,284.6,228.1z"/>
		<g>
			<path fill="#638921" d="M288.3,223.8c0,0-0.1-0.6-0.2-1.7c-0.1-1.1-0.1-2.8,0-4.9c0-1.1,0.1-2.2,0.3-3.5c0.1-0.6,0.1-1.3,0.2-2
				c0.1-0.7,0.2-1.4,0.3-2.1c0.2-1.5,0.6-3,0.9-4.6c0.3-1.6,0.9-3.3,1.4-5c0.2-0.9,0.6-1.7,0.9-2.6c0.3-0.9,0.7-1.8,1-2.7
				c0.8-1.8,1.7-3.6,2.6-5.5c1-1.8,2.1-3.7,3.3-5.5c1.3-1.8,2.5-3.6,3.9-5.4c1.5-1.7,2.9-3.5,4.5-5.2c1.7-1.6,3.4-3.3,5.1-5
				c1.8-1.5,3.7-3.1,5.5-4.6c1.9-1.5,4-2.9,6.2-3.9c2.2-1.1,4.6-1.8,7-2.4c2.3-0.5,4.7-1,7-1.4c4.7-0.8,9.3-1.5,13.8-2
				c4.5-0.5,8.9-0.9,13-1.1c4.1-0.2,8.1-0.3,11.7-0.3c3.6,0,6.9,0.1,9.9,0.2c2.9,0.1,5.5,0.3,7.6,0.4c4.2,0.3,6.6,0.6,6.6,0.6l0,0.2
				c0,0-2.4,0-6.6,0c-2.1,0-4.7,0-7.6,0.1c-2.9,0-6.2,0.2-9.8,0.3c-3.6,0.2-7.5,0.4-11.6,0.7c-4.1,0.3-8.4,0.7-12.9,1.2
				c-4.5,0.5-9.1,1.1-13.7,1.8c-2.3,0.4-4.7,0.8-7,1.2c-2.3,0.4-4.5,1.1-6.7,2.1c-2.1,1-4.1,2.1-6,3.6c-1.9,1.5-3.7,3-5.5,4.4
				c-1.7,1.6-3.4,3.2-5.1,4.8c-1.6,1.7-3,3.4-4.5,5.1c-1.4,1.7-2.6,3.6-3.9,5.3c-1.2,1.8-2.2,3.6-3.3,5.4c-0.9,1.8-1.9,3.6-2.7,5.3
				c-0.4,0.9-0.7,1.8-1.1,2.6c-0.4,0.9-0.7,1.7-1,2.6c-0.5,1.7-1.2,3.3-1.5,4.9c-0.4,1.6-0.8,3.1-1,4.5c-0.1,0.7-0.3,1.4-0.4,2.1
				c-0.1,0.7-0.2,1.3-0.2,2c-0.2,1.3-0.3,2.4-0.3,3.5c-0.3,4.2,0,6.6,0,6.6L288.3,223.8z"/>
		</g>
		<g>
			<path fill="#638921" d="M398.9,176.7c0,0,0.7-1,1.9-2.5c1.2-1.5,2.9-3.3,4.8-5c0.5-0.4,1-0.8,1.5-1.2c0.5-0.4,1-0.8,1.6-1.1
				c0.6-0.3,1.2-0.5,1.8-0.6c0.6-0.1,1.2-0.1,1.8,0c0.6,0.1,1.1,0.4,1.5,0.7c0.2,0.2,0.3,0.3,0.5,0.5c0.1,0.2,0.2,0.3,0.3,0.5
				c0.2,0.3,0.2,0.5,0.2,0.7c0,0.2,0.1,0.2,0.1,0.2l-0.2,0.1c0,0-0.1,0-0.2-0.1c-0.1-0.1-0.3-0.2-0.5-0.3c-0.2-0.1-0.5-0.2-0.8-0.3
				c-0.3-0.1-0.6-0.1-1,0c-0.3,0-0.7,0.2-1.2,0.3c-0.4,0.2-0.9,0.4-1.3,0.6c-0.5,0.2-1,0.5-1.5,0.7c-0.5,0.3-1,0.6-1.5,0.9
				c-2,1.3-3.9,3-5.3,4.2c-1.4,1.2-2.3,2.1-2.3,2.1L398.9,176.7z"/>
		</g>
		<g>
			<path fill="#638921" d="M291.8,151.8c-0.2,1.7-0.3,3.4-0.3,5.2c-0.1,1.7-0.1,3.5-0.1,5.2c0,1.7,0,3.5,0,5.2
				c0,1.7,0.1,3.4,0.2,5.2l0.2,2.6c0.1,0.9,0.2,1.7,0.3,2.6c0.1,0.9,0.2,1.7,0.3,2.6l0.4,2.5c0.1,0.8,0.3,1.7,0.5,2.5
				c0.1,0.8,0.4,1.7,0.6,2.5c0.2,0.8,0.4,1.7,0.7,2.5l0.8,2.4l-0.1-0.2c0.1,0.1,0.4,0.4,0.6,0.5c0.2,0.2,0.5,0.4,0.8,0.5
				c0.6,0.4,1.2,0.6,1.8,0.9l1.9,0.8l2,0.7c1.3,0.4,2.6,0.8,4,1.1c1.4,0.3,2.7,0.6,4.1,0.8c1.4,0.2,2.7,0.5,4.1,0.7l4.1,0.5
				c1.4,0.2,2.8,0.3,4.1,0.4c1.4,0.1,2.8,0.3,4.2,0.4l4.2,0.3c1.4,0.1,2.8,0.2,4.2,0.3l4.2,0.3c1.4,0.1,2.8,0.2,4.2,0.2
				c2.8,0.1,5.6,0.4,8.4,0.4c1.4,0,2.8,0.1,4.2,0.2c1.4,0.1,2.8,0.1,4.2,0.2l0,0.2c-1.4,0.1-2.8,0.2-4.2,0.3
				c-1.4,0.1-2.8,0.2-4.2,0.2c-1.4,0.1-2.8,0.1-4.2,0.1l-4.2,0.1c-1.4,0-2.8,0-4.2,0l-4.2-0.1c-1.4,0-2.8-0.1-4.2-0.2l-4.2-0.3
				c-1.4-0.1-2.8-0.3-4.2-0.4c-1.4-0.2-2.8-0.3-4.2-0.5l-4.2-0.7c-1.4-0.2-2.8-0.5-4.1-0.8c-1.4-0.3-2.7-0.7-4.1-1
				c-1.4-0.4-2.7-0.8-4.1-1.2l-2-0.7l-2-0.9c-0.6-0.3-1.3-0.6-1.9-1c-0.3-0.2-0.6-0.4-0.9-0.6c-0.3-0.2-0.6-0.4-0.9-0.8l-0.1-0.1
				l0-0.1l-0.8-2.5c-0.3-0.8-0.4-1.7-0.6-2.5c-0.2-0.9-0.4-1.7-0.5-2.6c-0.1-0.9-0.3-1.7-0.4-2.6l-0.3-2.6c-0.1-0.9-0.2-1.7-0.2-2.6
				c-0.1-0.9-0.1-1.7-0.2-2.6l-0.1-2.6c0-1.7-0.1-3.5-0.1-5.2c0-1.7,0.1-3.5,0.1-5.2c0.1-1.7,0.2-3.5,0.3-5.2
				c0.1-1.7,0.3-3.5,0.5-5.2L291.8,151.8z"/>
		</g>
		<g>
			<path fill="#638921" d="M315.2,136.4c0,0-0.8,2-1.8,5.2c-0.2,0.8-0.4,1.6-0.7,2.5c-0.2,0.9-0.5,1.9-0.6,2.9c-0.2,1-0.4,2-0.6,3.1
				c-0.2,1.1-0.3,2.1-0.4,3.2c-0.1,1.1-0.2,2.2-0.3,3.2c-0.1,1.1-0.1,2.1-0.1,3.1c-0.1,1-0.1,2-0.2,2.9c-0.1,0.9-0.1,1.8-0.1,2.6
				c0,0.8-0.1,1.6-0.1,2.2c0,0.7,0,1.2-0.1,1.7c-0.1,1-0.1,1.5-0.1,1.5l-0.2,0c0,0-0.2-0.5-0.4-1.5c-0.1-0.5-0.3-1-0.4-1.7
				c-0.1-0.7-0.2-1.4-0.3-2.3c-0.1-0.4-0.1-0.8-0.2-1.3c0-0.4,0-0.9-0.1-1.4c0-1-0.1-2,0-3c0.1-1,0.1-2.1,0.4-3.2
				c0.2-1.1,0.3-2.2,0.6-3.3c0.2-1.1,0.4-2.2,0.7-3.2c0.2-1.1,0.5-2.1,0.8-3.1c0.6-2,1.2-3.8,1.8-5.4c1.2-3.1,2.3-5,2.3-5
				L315.2,136.4z"/>
		</g>
		<g>
			<path fill="#638921" d="M324.8,159.7c0,0,0.3-2.1,1.2-5.1c0.4-1.5,0.9-3.3,1.6-5.1c0.3-0.9,0.7-1.9,1.1-2.8
				c0.4-1,0.8-1.9,1.3-2.9c0.4-1,1-1.9,1.4-2.8c0.5-0.9,1.1-1.8,1.6-2.6c0.6-0.8,1.2-1.6,1.9-2.2c0.7-0.6,1.3-1.2,1.9-1.8
				c0.7-0.5,1.3-0.9,1.8-1.3c0.5-0.4,1.1-0.6,1.5-0.8c0.9-0.4,1.3-0.6,1.3-0.6l0.1,0.2c0,0-0.4,0.4-1,1c-0.2,0.2-0.3,0.3-0.5,0.5
				c-0.2,0.2-0.4,0.4-0.6,0.6c-0.4,0.5-0.9,1-1.4,1.5c-0.5,0.6-1,1.2-1.5,1.9c-0.5,0.7-1,1.4-1.6,2.2c-0.5,0.8-1.1,1.6-1.7,2.4
				c-0.5,0.8-1.1,1.7-1.6,2.6c-0.5,0.9-1,1.8-1.5,2.7c-0.5,0.9-0.9,1.8-1.3,2.7c-0.4,0.9-0.8,1.7-1.1,2.5c-0.3,0.8-0.6,1.6-0.9,2.3
				c-1.1,2.9-1.7,4.9-1.7,4.9L324.8,159.7z"/>
		</g>
		<g>
			<path fill="#638921" d="M351.8,154.7c0,0,0.2-1.4,0.9-3.5c0.2-0.5,0.3-1.1,0.5-1.6c0.2-0.6,0.5-1.2,0.7-1.8
				c0.5-1.2,1.1-2.5,1.8-3.8c0.3-0.6,0.7-1.3,1.1-1.9c0.3-0.6,0.7-1.2,1.2-1.8c0.4-0.5,0.9-1,1.3-1.5c0.2-0.2,0.4-0.4,0.7-0.6
				c0.2-0.2,0.5-0.4,0.7-0.5c0.4-0.3,0.8-0.6,1.2-0.9c0.4-0.2,0.7-0.4,1-0.6c0.6-0.3,0.9-0.4,0.9-0.4l0.1,0.2c0,0-0.2,0.3-0.5,0.8
				c-0.2,0.3-0.4,0.6-0.7,0.9c-0.3,0.3-0.5,0.8-0.8,1.2c-0.3,0.4-0.6,0.9-1,1.3c-0.3,0.5-0.7,1-1.1,1.5c-0.4,0.5-0.8,1-1.3,1.5
				c-0.4,0.5-0.9,1.1-1.2,1.6c-0.8,1.1-1.5,2.3-2.2,3.4c-0.6,1.1-1.2,2.2-1.6,3.2c-0.9,1.9-1.4,3.2-1.4,3.2L351.8,154.7z"/>
		</g>
		<g>
			<path fill="#638921" d="M369.9,153.2c0,0,0.3-0.7,0.8-1.6c0.3-0.5,0.6-1,1-1.6c0.4-0.6,0.9-1.1,1.4-1.7c0.3-0.3,0.5-0.6,0.8-0.8
				c0.2-0.3,0.5-0.5,0.8-0.7c0.3-0.2,0.6-0.4,0.9-0.5c0.3-0.1,0.7-0.2,0.9-0.2c0.3-0.1,0.6,0,0.8,0c0.2,0,0.5,0.1,0.6,0.1
				c0.4,0.1,0.5,0.2,0.5,0.2l0,0.2c0,0-0.2,0.2-0.4,0.4c-0.1,0.1-0.3,0.2-0.4,0.4c-0.2,0.1-0.3,0.3-0.5,0.4
				c-0.2,0.2-0.4,0.3-0.6,0.5c-0.2,0.2-0.4,0.3-0.7,0.5c-0.2,0.2-0.5,0.3-0.8,0.5c-0.3,0.2-0.6,0.3-0.9,0.5
				c-1.1,0.8-2.2,1.7-2.9,2.4c-0.8,0.7-1.3,1.2-1.3,1.2L369.9,153.2z"/>
		</g>
		<g>
			<path fill="#638921" d="M311.8,170.1c0,0,0.2-0.1,0.7-0.3c0.4-0.2,1.1-0.4,2-0.6c0.9-0.2,2-0.4,3.2-0.3c1.3,0.1,2.7,0.5,4,1.4
				c1.3,0.9,2.5,1.9,3.9,2.9c1.4,1,2.9,2,4.5,2.9c0.8,0.5,1.6,1,2.5,1.4c0.8,0.5,1.7,0.9,2.6,1.4c1.7,0.9,3.5,1.8,5.4,2.6
				c0.9,0.4,1.8,0.8,2.7,1.2c0.9,0.4,1.8,0.7,2.8,1.1c1.8,0.7,3.7,1.3,5.4,2c1.8,0.6,3.5,1.2,5.1,1.8c1.6,0.5,3.2,1.1,4.6,1.5
				c1.4,0.4,2.7,0.9,3.9,1.3c1.2,0.4,2.2,0.7,3,1c1.7,0.5,2.6,0.9,2.6,0.9l0,0.2c0,0-1-0.1-2.8-0.3c-0.9-0.1-1.9-0.3-3.2-0.5
				c-1.2-0.2-2.6-0.5-4.1-0.8c-1.5-0.3-3.1-0.8-4.7-1.2c-1.7-0.5-3.4-1.1-5.2-1.7c-1.8-0.7-3.6-1.4-5.4-2.2
				c-0.9-0.4-1.8-0.8-2.7-1.2c-0.9-0.4-1.8-0.9-2.7-1.3c-1.8-0.9-3.6-1.8-5.3-2.9c-0.9-0.5-1.7-1-2.6-1.5c-0.8-0.5-1.7-1-2.4-1.5
				c-1.6-1-3.1-2.1-4.5-3.1c-1.4-1-2.7-2.2-3.8-3.1c-1.1-0.9-2.4-1.3-3.6-1.4c-1.2-0.1-2.2,0-3.1,0.1c-0.9,0.2-1.5,0.4-1.9,0.5
				c-0.4,0.2-0.7,0.3-0.7,0.3L311.8,170.1z"/>
		</g>
		<g>
			<path fill="#638921" d="M334.9,157.5c0,0,0.2-0.1,0.6-0.2c0.4-0.1,1-0.3,1.8-0.3c0.8-0.1,1.8,0,2.9,0.2c1.1,0.2,2.3,0.6,3.6,1.1
				c0.6,0.3,1.3,0.5,1.9,0.9c0.7,0.3,1.3,0.7,2,1.1c0.7,0.4,1.4,0.8,2,1.3c0.7,0.5,1.4,0.9,2,1.5c0.7,0.5,1.3,1.1,2,1.6
				c0.6,0.6,1.3,1.2,2,1.8c1.3,1.1,2.7,2.3,4.1,3.3c0.7,0.5,1.4,1,2.2,1.5c0.7,0.5,1.5,1,2.2,1.4c1.5,0.9,3,1.7,4.5,2.4
				c0.7,0.4,1.5,0.7,2.2,1.1c0.7,0.3,1.4,0.7,2.1,1c1.4,0.6,2.7,1.2,3.9,1.7c4.9,2,8.3,3.1,8.3,3.1l0,0.2c0,0-0.9,0-2.5-0.3
				c-0.8-0.1-1.7-0.3-2.8-0.5c-1.1-0.2-2.3-0.5-3.6-0.9c-1.3-0.4-2.7-0.9-4.2-1.4c-0.7-0.3-1.5-0.6-2.2-0.9
				c-0.7-0.3-1.5-0.7-2.3-1.1c-1.5-0.8-3-1.7-4.5-2.7c-0.8-0.5-1.5-1-2.2-1.6c-0.7-0.5-1.5-1.1-2.2-1.7c-1.5-1.1-2.7-2.3-4-3.6
				c-0.6-0.6-1.2-1.2-1.8-1.8c-0.6-0.6-1.3-1.1-1.9-1.7c-1.3-1.1-2.5-2.1-3.8-2.9c-0.6-0.5-1.2-0.8-1.9-1.2c-0.6-0.4-1.2-0.7-1.8-1
				c-1.2-0.6-2.3-1-3.4-1.2c-1-0.2-2-0.4-2.7-0.4c-0.8,0-1.4,0.1-1.8,0.2c-0.4,0.1-0.6,0.2-0.6,0.2L334.9,157.5z"/>
		</g>
		<g>
			<path fill="#638921" d="M362.4,154.2c0,0,0.1,0,0.4,0.1c0.3,0.1,0.7,0.2,1.1,0.5c0.9,0.5,2.1,1.4,3.4,2.6c2.6,2.3,6,5.6,9.7,8.3
				c1.8,1.4,3.8,2.6,5.7,3.7c1.8,1.1,3.5,2.2,5,3.1c1.5,0.9,2.7,1.7,3.6,2.2c0.9,0.5,1.4,0.9,1.4,0.9l-0.1,0.2c0,0-0.6-0.1-1.6-0.3
				c-1-0.2-2.4-0.7-4.1-1.3c-0.8-0.3-1.7-0.7-2.6-1.2c-0.9-0.4-1.9-1-2.8-1.6c-0.9-0.6-1.9-1.3-2.8-2c-0.9-0.7-1.8-1.5-2.7-2.2
				c-1.8-1.5-3.5-3.2-5-4.8c-1.5-1.6-2.9-3.1-4.1-4.4c-1.2-1.3-2.2-2.3-3.1-2.8c-0.4-0.3-0.8-0.4-1-0.5c-0.3-0.1-0.4-0.1-0.4-0.1
				L362.4,154.2z"/>
		</g>
		<g>
			<path fill="#638921" d="M383,152.9c0,0,0.9,1.2,2.4,2.9c0.7,0.9,1.6,1.8,2.6,2.9c0.5,0.5,1,1,1.5,1.6c0.5,0.5,1.1,1,1.6,1.5
				c0.6,0.5,1.1,1,1.7,1.4c0.6,0.4,1.1,0.9,1.7,1.3c0.5,0.4,1,0.9,1.5,1.3c0.5,0.4,0.9,0.8,1.4,1.2c0.4,0.3,0.8,0.7,1.2,1
				c0.3,0.3,0.7,0.5,0.9,0.7c0.5,0.4,0.8,0.7,0.8,0.7l-0.1,0.2c0,0-0.4,0-1.1-0.2c-0.3-0.1-0.8-0.2-1.2-0.3c-0.4-0.2-1-0.4-1.5-0.6
				c-0.5-0.3-1.1-0.6-1.7-0.9c-0.6-0.3-1.1-0.8-1.7-1.2c-1.1-1-2.1-2.1-3.2-3.3c-0.5-0.6-1-1.2-1.5-1.8c-0.5-0.6-0.9-1.2-1.4-1.7
				c-0.9-1.1-1.6-2.3-2.2-3.2c-1.2-1.9-2-3.3-2-3.3L383,152.9z"/>
		</g>
		<g>
			<path fill="#638921" d="M390.9,152.8c0,0,1.1,0.2,2.8,0.7c0.8,0.2,1.8,0.5,2.8,0.9c1,0.4,2.1,0.8,3.2,1.3
				c0.5,0.2,1.1,0.5,1.6,0.7c0.5,0.2,1,0.5,1.5,0.8c0.5,0.3,0.9,0.7,1.2,1.1c0.4,0.3,0.7,0.8,1,1.1c0.3,0.3,0.5,0.8,0.6,1.1
				c0.1,0.2,0.2,0.3,0.2,0.5c0,0.2,0.1,0.3,0.1,0.4c0.1,0.5,0.2,0.8,0.2,0.8l-0.2,0.1c0,0-0.3-0.2-0.6-0.5c-0.2-0.2-0.4-0.4-0.7-0.5
				c-0.3-0.2-0.5-0.4-0.9-0.7c-0.2-0.1-0.3-0.2-0.5-0.4c-0.2-0.1-0.3-0.3-0.5-0.4c-0.4-0.2-0.8-0.5-1.2-0.8c-0.4-0.3-0.8-0.6-1.2-1
				c-0.4-0.3-0.9-0.6-1.4-1c-0.9-0.6-1.9-1.2-2.8-1.7c-0.9-0.5-1.8-0.9-2.6-1.3c-1.5-0.7-2.6-1.2-2.6-1.2L390.9,152.8z"/>
		</g>
	</g>
	<g>
		<path fill="#8DC63F" stroke="#547219" stroke-width="2.1643" stroke-miterlimit="10" d="M274.6,253.4c5.6-3.2,15-6.8,30.8-9.3
			c0,0,14.8-16.6,40.9-20.9c4.2-0.7,8.5,0.1,12.2,2.3c7.2,4.2,19.9,12.5,28.9,22.5c3.8,4.2,6.4,9.4,7.7,14.9
			c2.4,9.9,5.1,29.2,1.9,59c0,0,0,35.3-8.7,50.5c0,0-11.5-18-25.2-18.8c-13.7-0.7-38.2-4.3-54.1-11.5c-15-6.8-40.4-33.1-42.4-73.8
			C266.2,262.4,269.3,256.5,274.6,253.4z"/>
		<g>
			<path fill="#638921" d="M311.2,246.2c0,0,2.1,0.8,5.6,2.4c1.7,0.8,3.9,1.8,6.2,3.3c2.3,1.5,4.7,3.3,7.2,5.4
				c2.6,2.1,5.3,4.4,8.2,6.9c2.8,2.5,5.8,5.2,8.7,8.1c2.9,2.9,5.9,6,8.6,9.4c1.4,1.7,2.7,3.5,3.9,5.4c1.2,1.8,2.3,3.8,3.4,5.7
				c2.2,3.8,4.3,7.8,6.1,11.7c1.9,3.9,3.6,7.8,5.2,11.7c1.5,3.9,3,7.6,4.1,11.2c1.2,3.6,2.3,7,3.1,10.2c0.9,3.2,1.6,6.2,2.2,8.8
				c0.6,2.6,1,4.9,1.4,6.8c0.6,3.8,1,6,1,6l-0.2,0c0,0-0.6-2.1-1.5-5.9c-0.5-1.9-1.1-4.1-1.9-6.7c-0.4-1.3-0.8-2.6-1.2-4.1
				c-0.5-1.4-0.9-2.9-1.4-4.5c-0.5-1.6-1.1-3.2-1.6-4.9c-0.5-1.7-1.2-3.4-1.8-5.2c-1.3-3.5-2.7-7.3-4.3-11.1
				c-1.5-3.8-3.2-7.7-5-11.6c-1.8-3.9-3.7-7.9-5.8-11.7c-1-1.9-2.1-3.8-3.3-5.7c-1.1-1.8-2.4-3.6-3.7-5.3c-2.6-3.4-5.5-6.5-8.4-9.5
				c-2.9-3-5.8-5.7-8.5-8.3c-2.8-2.6-5.5-4.9-8-7c-2.5-2.1-4.9-4-7.1-5.5c-2.2-1.5-4.3-2.5-6-3.4c-3.4-1.7-5.5-2.5-5.5-2.5
				L311.2,246.2z"/>
		</g>
		<g>
			<path fill="#638921" d="M373.2,351.6c0,0,0.2-0.7,0.6-1.7c0.2-0.5,0.5-1.1,0.9-1.7c0.3-0.6,0.8-1.2,1.2-1.8
				c0.5-0.6,0.9-1.2,1.4-1.7c0.5-0.5,1.1-0.8,1.7-1c1.1-0.4,1.9-0.4,1.9-0.4l0.1,0.2c0,0-0.1,0.2-0.3,0.5c-0.2,0.3-0.4,0.7-0.8,1.1
				c-0.3,0.4-0.7,0.9-1.2,1.3c-0.5,0.4-1.1,0.7-1.6,1.2c-1,0.9-2,1.9-2.7,2.7c-0.7,0.8-1.1,1.4-1.1,1.4L373.2,351.6z"/>
		</g>
		<g>
			<path fill="#638921" d="M354,347.8c0,0,0.2-0.4,0.6-1.2c0.4-0.8,1-1.9,1.7-3.1c0.4-0.6,0.8-1.3,1.3-2c0.5-0.7,1-1.4,1.5-2.2
				c1.1-1.5,2.4-3.1,3.7-4.6c1.3-1.5,2.7-3,4.1-4.2c0.7-0.6,1.4-1.2,2.2-1.7c0.7-0.5,1.4-0.9,2-1.3c1.3-0.8,2.4-1.3,3.3-1.6
				c0.8-0.3,1.3-0.5,1.3-0.5l0.1,0.2c0,0-0.4,0.4-1,1c-0.6,0.6-1.6,1.4-2.7,2.4c-1.1,1-2.4,2.1-3.7,3.3c-0.7,0.6-1.4,1.2-2.2,1.8
				c-0.7,0.6-1.4,1.3-2.2,1.9c-1.4,1.3-2.7,2.8-4,4.1c-1.2,1.4-2.3,2.7-3.1,3.9c-0.9,1.2-1.6,2.2-2.1,2.9c-0.5,0.7-0.8,1.1-0.8,1.1
				L354,347.8z"/>
		</g>
		<g>
			<path fill="#638921" d="M333.4,343.7c0,0,0.3-0.8,0.8-2.1c0.3-0.7,0.6-1.5,1-2.4c0.4-0.9,0.9-2,1.4-3.1c0.5-1.1,1.2-2.3,1.8-3.6
				c0.7-1.3,1.5-2.5,2.3-3.9c0.8-1.3,1.7-2.7,2.7-4c0.9-1.4,2-2.7,3-4c1.1-1.3,2.1-2.6,3.2-3.8c1.1-1.3,2.2-2.4,3.3-3.5
				c1.2-1.1,2.3-2.1,3.4-3c0.6-0.4,1.1-0.9,1.6-1.3c0.5-0.4,1.1-0.8,1.6-1.1c1-0.7,2-1.3,2.9-1.9c0.9-0.5,1.6-1,2.3-1.3
				c1.3-0.7,2-1,2-1l0.1,0.2c0,0-0.6,0.6-1.7,1.5c-0.6,0.5-1.2,1-2,1.7c-0.4,0.3-0.8,0.7-1.2,1c-0.4,0.4-0.9,0.8-1.3,1.2
				c-0.9,0.8-1.9,1.7-2.9,2.7c-1,0.9-2.1,2-3.2,3c-1.1,1.1-2.3,2.1-3.4,3.3c-1.2,1.1-2.2,2.4-3.3,3.6c-1,1.3-2.1,2.5-3.1,3.8
				c-1,1.3-1.9,2.6-2.8,3.8c-0.8,1.3-1.7,2.5-2.4,3.7c-0.7,1.2-1.4,2.3-2,3.4c-0.6,1.1-1.1,2.1-1.6,3c-0.5,0.9-0.9,1.7-1.2,2.3
				c-0.6,1.3-1,2.1-1,2.1L333.4,343.7z"/>
		</g>
		<g>
			<path fill="#638921" d="M316.2,337.8c0,0,0.4-0.9,1.1-2.6c0.3-0.8,0.8-1.8,1.4-2.9c0.3-0.6,0.6-1.2,0.9-1.8c0.3-0.6,0.7-1.3,1-2
				c0.7-1.4,1.5-2.8,2.4-4.4c0.4-0.8,0.9-1.5,1.4-2.3c0.5-0.8,1-1.6,1.5-2.4c1.1-1.6,2.2-3.3,3.5-4.9c1.2-1.6,2.5-3.2,3.8-4.8
				c1.4-1.6,2.7-3.1,4.1-4.6c1.4-1.5,2.8-2.9,4.2-4.2c0.7-0.6,1.5-1.3,2.2-1.9c0.7-0.6,1.4-1.2,2.1-1.7c0.7-0.5,1.4-1.1,2.1-1.6
				c0.7-0.5,1.4-0.9,2-1.4c1.3-0.9,2.5-1.6,3.6-2.3c0.5-0.3,1.1-0.6,1.5-0.9c0.5-0.3,0.9-0.5,1.3-0.7c1.6-0.8,2.5-1.3,2.5-1.3
				l0.1,0.2c0,0-0.8,0.7-2.2,1.7c-0.7,0.5-1.6,1.2-2.6,2c-0.5,0.4-1,0.8-1.6,1.2c-0.5,0.4-1.1,0.9-1.7,1.4c-1.2,1-2.5,2-3.8,3.2
				c-1.3,1.1-2.7,2.4-4.1,3.6c-1.4,1.3-2.9,2.6-4.3,4c-1.5,1.4-2.8,2.9-4.3,4.3c-1.3,1.5-2.7,3-4,4.6c-1.3,1.5-2.5,3.1-3.6,4.7
				c-1.1,1.6-2.2,3.1-3.1,4.5c-1,1.5-1.9,2.9-2.6,4.2c-0.4,0.7-0.8,1.3-1.1,1.9c-0.3,0.6-0.7,1.2-1,1.7c-0.6,1.1-1.1,2.1-1.5,2.9
				c-0.8,1.6-1.3,2.5-1.3,2.5L316.2,337.8z"/>
		</g>
		<g>
			<path fill="#638921" d="M302.1,329.1c0,0,0.4-1,1.2-2.8c0.4-0.9,0.9-1.9,1.5-3.1c0.3-0.6,0.6-1.2,0.9-1.9
				c0.4-0.7,0.7-1.4,1.1-2.1c0.4-0.7,0.8-1.5,1.2-2.3c0.5-0.8,0.9-1.6,1.4-2.4c0.5-0.8,1-1.6,1.6-2.5c0.6-0.8,1.1-1.7,1.7-2.5
				c1.2-1.7,2.4-3.4,3.8-5.1c1.3-1.7,2.8-3.4,4.2-5.1c1.5-1.6,2.9-3.3,4.5-4.8c1.5-1.6,3.1-3,4.6-4.4c0.8-0.7,1.6-1.3,2.4-1.9
				c0.8-0.6,1.5-1.3,2.3-1.8c0.8-0.6,1.5-1.1,2.2-1.6c0.7-0.5,1.5-1,2.2-1.4c1.4-0.9,2.7-1.7,3.9-2.3c0.6-0.3,1.1-0.6,1.6-0.9
				c0.5-0.3,1-0.5,1.4-0.7c1.7-0.9,2.7-1.3,2.7-1.3l0.1,0.2c0,0-0.9,0.7-2.4,1.8c-0.8,0.5-1.7,1.2-2.8,2c-0.5,0.4-1.1,0.8-1.7,1.3
				c-0.6,0.5-1.2,0.9-1.8,1.4c-1.3,1-2.7,2.1-4.1,3.3c-1.5,1.2-2.9,2.5-4.5,3.8c-1.5,1.3-3.1,2.7-4.7,4.2c-1.6,1.4-3.1,3-4.6,4.6
				c-1.5,1.6-3,3.2-4.3,4.9c-1.4,1.6-2.7,3.3-3.9,4.9c-1.2,1.7-2.4,3.2-3.4,4.8c-0.5,0.8-1,1.5-1.5,2.3c-0.5,0.7-0.9,1.5-1.3,2.2
				c-0.4,0.7-0.8,1.4-1.2,2c-0.4,0.7-0.7,1.3-1,1.9c-0.7,1.2-1.2,2.2-1.6,3c-0.9,1.7-1.4,2.7-1.4,2.7L302.1,329.1z"/>
		</g>
		<g>
			<path fill="#638921" d="M291.4,315.1c0,0,0.4-0.9,1.1-2.6c0.4-0.8,0.8-1.8,1.4-3c0.3-0.6,0.6-1.2,0.9-1.8c0.3-0.6,0.7-1.3,1.1-2
				c0.7-1.4,1.6-2.8,2.5-4.4c0.4-0.8,0.9-1.5,1.5-2.3c0.5-0.8,1-1.6,1.6-2.4c1.2-1.6,2.3-3.2,3.6-4.8c1.2-1.6,2.6-3.2,4-4.8
				c1.4-1.5,2.8-3.1,4.3-4.5c1.4-1.5,3-2.8,4.4-4.2c0.8-0.6,1.5-1.2,2.3-1.8c0.7-0.6,1.5-1.2,2.2-1.7c0.7-0.5,1.5-1,2.1-1.5
				c0.7-0.5,1.4-0.9,2.1-1.3c1.3-0.9,2.6-1.5,3.7-2.1c0.6-0.3,1.1-0.6,1.6-0.8c0.5-0.2,1-0.4,1.4-0.6c1.7-0.8,2.6-1.2,2.6-1.2
				l0.1,0.2c0,0-0.8,0.6-2.3,1.6c-0.7,0.5-1.6,1.2-2.7,1.9c-0.5,0.4-1.1,0.8-1.6,1.2c-0.6,0.4-1.1,0.9-1.8,1.3
				c-1.2,0.9-2.5,2-3.9,3.1c-1.4,1.1-2.8,2.3-4.3,3.5c-1.5,1.3-3,2.5-4.5,3.9c-1.5,1.3-2.9,2.8-4.4,4.2c-1.4,1.5-2.8,3-4.1,4.6
				c-1.3,1.5-2.5,3.1-3.7,4.6c-1.1,1.6-2.3,3.1-3.2,4.5c-1,1.5-1.9,2.9-2.7,4.2c-0.4,0.7-0.8,1.3-1.2,1.9c-0.3,0.6-0.7,1.2-1,1.7
				c-0.6,1.1-1.1,2.1-1.5,2.9c-0.8,1.6-1.3,2.5-1.3,2.5L291.4,315.1z"/>
		</g>
		<g>
			<path fill="#638921" d="M282.5,300c0,0,0.5-0.8,1.3-2.3c0.4-0.7,0.9-1.6,1.6-2.6c0.3-0.5,0.6-1,1-1.6c0.4-0.5,0.8-1.1,1.2-1.7
				c0.8-1.2,1.7-2.4,2.7-3.7c0.5-0.7,1-1.3,1.6-2c0.6-0.7,1.1-1.3,1.7-2c1.2-1.3,2.4-2.7,3.8-4.1c1.3-1.4,2.7-2.7,4.1-4
				c1.4-1.3,2.9-2.6,4.4-3.7c1.4-1.2,3-2.3,4.4-3.4c0.7-0.5,1.5-1,2.2-1.4c0.7-0.5,1.5-0.9,2.2-1.3c0.7-0.4,1.4-0.8,2.1-1.2
				c0.7-0.4,1.4-0.7,2-1c1.3-0.6,2.5-1.2,3.6-1.6c0.5-0.2,1-0.4,1.5-0.6c0.5-0.2,0.9-0.3,1.3-0.5c1.6-0.5,2.5-0.8,2.5-0.8l0.1,0.2
				c0,0-0.8,0.5-2.3,1.3c-0.7,0.4-1.6,0.9-2.6,1.5c-0.5,0.3-1,0.6-1.6,0.9c-0.6,0.3-1.1,0.7-1.7,1.1c-1.2,0.7-2.5,1.6-3.9,2.4
				c-1.4,0.9-2.8,1.9-4.2,2.8c-1.4,1-3,2-4.5,3.1c-1.5,1.1-3,2.3-4.5,3.4c-1.4,1.2-2.9,2.4-4.2,3.7c-1.4,1.2-2.6,2.6-3.9,3.8
				c-1.2,1.3-2.4,2.6-3.4,3.8c-1.1,1.2-2.1,2.4-2.9,3.5c-0.4,0.6-0.9,1.1-1.3,1.6c-0.4,0.5-0.7,1-1.1,1.5c-0.7,0.9-1.3,1.8-1.7,2.5
				c-0.9,1.4-1.4,2.2-1.4,2.2L282.5,300z"/>
		</g>
		<g>
			<path fill="#638921" d="M276.5,280.3c0,0,0.4-0.6,1.2-1.8c0.4-0.6,0.9-1.2,1.4-2c0.6-0.8,1.2-1.6,2-2.5c0.7-0.9,1.6-1.9,2.5-2.8
				c0.9-1,1.9-2,3-3c1.1-1,2.2-2,3.4-3c1.2-1,2.4-1.9,3.7-2.9c1.3-0.9,2.6-1.8,3.9-2.6c1.3-0.9,2.6-1.6,3.9-2.3
				c1.3-0.6,2.6-1.3,3.9-1.7c0.6-0.2,1.2-0.5,1.8-0.7c0.6-0.2,1.2-0.4,1.8-0.6c1.1-0.4,2.2-0.6,3.1-0.8c0.9-0.2,1.7-0.4,2.4-0.5
				c1.4-0.2,2.1-0.3,2.1-0.3l0.1,0.2c0,0-0.7,0.3-2,0.8c-0.6,0.3-1.4,0.6-2.2,1c-0.4,0.2-0.9,0.4-1.4,0.6c-0.5,0.2-1,0.4-1.5,0.7
				c-1.1,0.5-2.2,1-3.4,1.6c-1.2,0.6-2.4,1.2-3.7,1.8c-1.3,0.7-2.6,1.3-3.9,2c-1.3,0.7-2.6,1.5-3.9,2.3c-1.3,0.9-2.6,1.7-3.7,2.6
				c-1.2,0.9-2.4,1.8-3.5,2.7c-1.1,1-2.1,1.9-3.1,2.8c-1,0.9-1.9,1.8-2.7,2.6c-0.8,0.8-1.5,1.6-2.1,2.3c-0.6,0.7-1.2,1.3-1.6,1.9
				c-0.8,1.1-1.3,1.7-1.3,1.7L276.5,280.3z"/>
		</g>
		<g>
			<path fill="#638921" d="M278.6,259.9c0,0,0.4-0.3,1.2-0.8c0.8-0.5,1.9-1.2,3.2-2c0.7-0.4,1.4-0.8,2.2-1.2
				c0.8-0.4,1.6-0.9,2.5-1.3c1.8-0.9,3.7-1.7,5.6-2.6c1.9-0.8,3.9-1.7,5.7-2.3c0.9-0.3,1.9-0.6,2.7-0.7c0.9-0.2,1.7-0.4,2.5-0.5
				c3.1-0.5,5.3-0.5,5.3-0.5l0,0.2c0,0-0.5,0.2-1.3,0.6c-0.8,0.4-2.1,0.8-3.5,1.4c-1.5,0.5-3.2,1.1-5,1.7c-0.9,0.3-1.9,0.6-2.9,0.8
				c-1,0.3-2,0.6-2.9,0.9c-2,0.7-3.9,1.4-5.7,2.1c-1.8,0.7-3.5,1.4-4.9,2.1c-1.4,0.6-2.6,1.2-3.4,1.6c-0.8,0.4-1.3,0.6-1.3,0.6
				L278.6,259.9z"/>
		</g>
		<g>
			<path fill="#638921" d="M314.8,244.6c0,0,0.2-0.3,0.5-0.7c0.3-0.5,0.7-1.1,1.3-1.9c0.3-0.4,0.6-0.8,0.9-1.2
				c0.3-0.4,0.7-0.8,1.1-1.3c0.8-0.9,1.7-1.7,2.6-2.6c1-0.8,1.9-1.7,2.9-2.4c0.5-0.3,1-0.6,1.5-0.8c0.5-0.2,1-0.4,1.4-0.6
				c1.8-0.6,3.2-0.6,3.2-0.6l0.1,0.2c0,0-0.2,0.2-0.7,0.6c-0.4,0.4-1,0.8-1.8,1.4c-0.7,0.5-1.6,1.2-2.5,1.8c-0.5,0.3-1,0.6-1.5,0.9
				c-0.5,0.3-1,0.6-1.5,0.9c-1,0.7-2,1.4-2.8,2.1c-0.9,0.7-1.7,1.4-2.3,2.1c-0.7,0.6-1.2,1.2-1.6,1.6c-0.4,0.4-0.6,0.6-0.6,0.6
				L314.8,244.6z"/>
		</g>
		<g>
			<path fill="#638921" d="M326,247.1c0,0,0.4-0.5,1-1.5c0.3-0.5,0.7-1,1.2-1.6c0.2-0.3,0.5-0.6,0.8-1c0.3-0.3,0.6-0.7,0.9-1
				c0.6-0.7,1.4-1.5,2.2-2.3c0.4-0.4,0.8-0.8,1.3-1.1c0.5-0.4,0.9-0.8,1.4-1.2c1-0.7,2-1.5,3.1-2.2c1.1-0.7,2.2-1.3,3.4-2
				c1.2-0.6,2.4-1.2,3.6-1.7c1.2-0.6,2.4-0.9,3.6-1.3c0.6-0.2,1.2-0.3,1.8-0.4c0.6-0.1,1.2-0.2,1.7-0.3c0.6-0.1,1.1-0.1,1.6-0.2
				c0.5-0.1,1.1-0.1,1.5-0.1c1-0.1,1.9,0,2.7,0c0.8,0,1.5,0.1,2.1,0.2c1.1,0.2,1.8,0.3,1.8,0.3l0,0.2c0,0-0.7,0.1-1.8,0.2
				c-0.6,0-1.2,0.2-2,0.3c-0.4,0.1-0.8,0.1-1.2,0.2c-0.4,0.1-0.9,0.2-1.3,0.3c-0.9,0.2-1.9,0.4-3,0.6c-1.1,0.2-2.1,0.6-3.3,0.8
				c-1.1,0.3-2.3,0.6-3.5,1c-1.2,0.3-2.3,0.9-3.5,1.3c-1.1,0.6-2.3,1.1-3.4,1.7c-1.1,0.6-2.1,1.3-3.1,1.9c-1,0.7-1.9,1.4-2.7,2.1
				c-0.9,0.7-1.6,1.3-2.3,2c-0.3,0.3-0.7,0.6-1,0.9c-0.3,0.3-0.6,0.6-0.8,0.9c-0.5,0.6-1,1.1-1.3,1.5c-0.7,0.9-1.1,1.4-1.1,1.4
				L326,247.1z"/>
		</g>
		<g>
			<path fill="#638921" d="M334.5,254.6c0,0,0.6-0.4,1.5-1.2c0.5-0.4,1.1-0.8,1.8-1.4c0.7-0.5,1.5-1.1,2.4-1.7
				c0.9-0.6,1.9-1.2,2.9-1.8c1.1-0.6,2.2-1.2,3.4-1.8c1.2-0.5,2.5-1.2,3.8-1.6c1.3-0.5,2.7-1,4-1.5c1.4-0.4,2.8-0.8,4.1-1.2
				c1.4-0.4,2.8-0.6,4.1-0.8c1.3-0.2,2.6-0.3,3.9-0.3c0.6,0,1.2,0,1.8,0c0.6,0,1.1,0,1.7,0.1c1.1,0,2.1,0.1,2.9,0.3
				c0.9,0.1,1.6,0.2,2.2,0.4c1.2,0.2,1.9,0.4,1.9,0.4l0,0.2c0,0-0.7,0.1-2,0.1c-0.6,0-1.4,0.1-2.2,0.1c-0.4,0-0.9,0-1.4,0.1
				c-0.5,0-1,0.1-1.5,0.1c-1,0.1-2.2,0.2-3.4,0.3c-1.2,0.1-2.4,0.3-3.7,0.5c-1.3,0.2-2.6,0.4-4,0.6c-1.4,0.2-2.7,0.5-4.1,0.8
				c-1.3,0.4-2.7,0.7-4,1.2c-1.3,0.4-2.6,0.9-3.8,1.4c-1.2,0.5-2.4,1-3.5,1.6c-1.1,0.5-2.1,1-3,1.6c-0.9,0.5-1.8,1-2.5,1.5
				c-0.7,0.4-1.4,0.8-1.9,1.2c-1,0.7-1.6,1.1-1.6,1.1L334.5,254.6z"/>
		</g>
		<g>
			<path fill="#638921" d="M344.6,265.1c0,0,0.7-0.2,1.9-0.7c0.6-0.2,1.4-0.5,2.2-0.7c0.9-0.3,1.8-0.6,2.9-0.9
				c1.1-0.3,2.2-0.6,3.5-0.9c1.2-0.3,2.6-0.6,3.9-0.9c2.7-0.6,5.7-1.1,8.7-1.5c1.5-0.2,3-0.4,4.4-0.5c1.5-0.2,2.9-0.2,4.3-0.3
				c1.4,0,2.8,0,4.1,0.1c0.6,0,1.3,0.1,1.9,0.1c0.6,0.1,1.2,0.1,1.7,0.2c1.1,0.1,2.1,0.3,3,0.4c0.9,0.1,1.7,0.3,2.3,0.4
				c1.3,0.3,2,0.5,2,0.5l0,0.2c0,0-0.8,0.1-2.1,0.1c-1.3,0-3.2,0.1-5.4,0.1c-2.2,0.1-4.8,0.1-7.5,0.2c-1.4,0-2.8,0-4.3,0.1
				c-1.5,0-2.9,0.1-4.4,0.2c-2.9,0.2-5.9,0.6-8.6,1c-2.7,0.4-5.3,0.9-7.5,1.3c-1.1,0.2-2.1,0.5-3,0.7c-0.9,0.2-1.6,0.4-2.3,0.6
				c-1.3,0.3-2,0.5-2,0.5L344.6,265.1z"/>
		</g>
		<g>
			<path fill="#638921" d="M355.1,274.5c0,0,0.6-0.2,1.5-0.5c0.5-0.2,1.1-0.3,1.8-0.5c0.7-0.2,1.5-0.4,2.3-0.5
				c0.9-0.2,1.8-0.4,2.8-0.5c1-0.2,2.1-0.3,3.2-0.4c1.1-0.1,2.2-0.2,3.4-0.2c1.2-0.1,2.3,0,3.5,0c1.2,0.1,2.4,0.1,3.5,0.2
				c1.2,0.1,2.3,0.3,3.4,0.4c1.1,0.2,2.1,0.4,3.1,0.8c0.5,0.2,1,0.3,1.4,0.4c0.5,0.2,0.9,0.3,1.3,0.5c0.8,0.3,1.6,0.7,2.2,1
				c0.7,0.3,1.2,0.6,1.7,0.9c0.9,0.5,1.4,0.9,1.4,0.9l-0.1,0.2c0,0-0.6-0.1-1.6-0.3c-0.5-0.1-1.1-0.3-1.8-0.4
				c-0.7-0.2-1.5-0.3-2.3-0.5c-0.8-0.2-1.8-0.4-2.7-0.6c-1-0.2-2-0.4-3-0.6c-1-0.2-2.1-0.4-3.2-0.6c-1.1-0.2-2.2-0.3-3.4-0.5
				c-1.1-0.1-2.3-0.2-3.4-0.2c-1.1-0.1-2.2,0-3.3,0c-1.1,0-2.1,0.1-3.1,0.1c-1,0.1-1.9,0.1-2.8,0.3c-0.9,0.1-1.6,0.2-2.3,0.3
				c-0.7,0.1-1.3,0.2-1.8,0.3c-1,0.2-1.6,0.3-1.6,0.3L355.1,274.5z"/>
		</g>
		<g>
			<path fill="#638921" d="M364.2,289.8c0,0,0.5-0.1,1.3-0.2c0.4-0.1,0.9-0.1,1.5-0.1c0.6-0.1,1.3-0.1,2-0.1c0.7,0,1.5,0,2.4,0
				c0.8,0,1.7,0.1,2.6,0.2c0.9,0.1,1.9,0.2,2.8,0.4c1,0.1,1.9,0.4,2.9,0.6c0.9,0.3,1.9,0.5,2.8,0.8c0.9,0.3,1.8,0.6,2.7,1
				c0.8,0.4,1.7,0.8,2.4,1.2c0.4,0.2,0.7,0.4,1.1,0.6c0.3,0.2,0.6,0.5,0.9,0.7c0.6,0.4,1.1,0.9,1.6,1.3c0.5,0.4,0.8,0.7,1.1,1.1
				c0.6,0.6,0.9,1,0.9,1l-0.1,0.2c0,0-0.5-0.2-1.2-0.6c-0.4-0.2-0.8-0.4-1.4-0.6c-0.5-0.3-1.1-0.5-1.8-0.8c-0.6-0.3-1.3-0.6-2.1-0.9
				c-0.7-0.3-1.5-0.7-2.3-1c-0.8-0.3-1.6-0.8-2.5-1.1c-0.8-0.4-1.7-0.7-2.6-1c-0.9-0.3-1.8-0.6-2.7-0.8c-0.9-0.3-1.8-0.4-2.7-0.6
				c-0.9-0.1-1.7-0.3-2.5-0.4c-0.8-0.1-1.6-0.2-2.3-0.3c-0.7-0.1-1.4-0.1-1.9-0.1c-0.6,0-1.1,0-1.5,0c-0.8,0-1.3,0-1.3,0
				L364.2,289.8z"/>
		</g>
		<g>
			<path fill="#638921" d="M368.9,302.1c0,0,0.4,0,1.1-0.1c0.7,0,1.7-0.1,2.9,0c0.6,0,1.3,0.1,1.9,0.1c0.7,0,1.4,0.2,2.2,0.2
				c1.5,0.2,3.1,0.5,4.7,0.9c1.6,0.4,3.1,0.8,4.6,1.4c0.7,0.3,1.4,0.6,2,1c0.6,0.4,1.2,0.7,1.6,1.1c1,0.7,1.7,1.4,2.2,1.9
				c0.5,0.5,0.8,0.8,0.8,0.8l-0.1,0.2c0,0-0.4-0.1-1.1-0.4c-0.7-0.2-1.6-0.6-2.7-1.1c-1.1-0.5-2.3-1-3.7-1.6c-0.7-0.3-1.3-0.6-2-0.9
				c-0.7-0.3-1.4-0.6-2.1-0.9c-1.5-0.5-3-1-4.4-1.4c-1.4-0.3-2.8-0.6-3.9-0.8c-1.2-0.2-2.1-0.3-2.8-0.4c-0.7-0.1-1.1-0.1-1.1-0.1
				L368.9,302.1z"/>
		</g>
		<g>
			<path fill="#638921" d="M377.6,322.3c0,0,0.3,0.1,0.8,0.4c0.5,0.3,1.2,0.7,2,1.2c1.6,1,3.7,2.5,5.6,4.1c1,0.8,2,1.7,2.8,2.5
				c0.4,0.5,0.8,0.9,1.1,1.4c0.3,0.5,0.6,0.9,0.8,1.3c1,1.7,1.2,3,1.2,3l-0.2,0.1c0,0-0.3-0.2-0.7-0.5c-0.4-0.4-1-0.9-1.7-1.5
				c-0.7-0.6-1.4-1.4-2.2-2.3c-0.4-0.4-0.7-0.9-1.1-1.4c-0.4-0.5-0.8-0.9-1.2-1.4c-1.6-1.8-3.5-3.5-4.9-4.8c-1.4-1.2-2.4-2-2.4-2
				L377.6,322.3z"/>
		</g>
		<g>
			<path fill="#638921" d="M383.4,341.7c0,0,0.2,0.1,0.5,0.2c0.3,0.1,0.8,0.3,1.3,0.5c0.5,0.2,1.1,0.5,1.8,0.9
				c0.6,0.4,1.3,0.8,1.9,1.3c0.6,0.5,1.3,0.9,1.8,1.5c0.5,0.6,0.8,1.2,1,1.8c0.4,1.1,0.4,2,0.4,2l-0.2,0.1c0,0-0.2-0.1-0.5-0.3
				c-0.3-0.2-0.7-0.5-1.1-0.8c-0.4-0.4-0.9-0.8-1.3-1.3c-0.4-0.5-0.8-1.1-1.2-1.7c-0.9-1.1-2-2.1-2.9-2.8c-0.9-0.7-1.5-1.1-1.5-1.1
				L383.4,341.7z"/>
		</g>
	</g>
	<g>
		<path fill="#8DC63F" stroke="#547219" stroke-width="2.1643" stroke-miterlimit="10" d="M274,369c0,0-10.5-1.8-17.7-15.9
			s-6.1-23.4-6.1-23.4S270.4,350.2,274,369z"/>
		<path fill="#8DC63F" stroke="#547219" stroke-width="2.1643" stroke-miterlimit="10" d="M200.2,363.9c0,0,3.3-17.1,13.5-28.1
			c13.5-14.6,30.3-48.7,32.5-62.2c1.9-11.9,7-60.1-33-76.8c0,0-39.3,4.5-58,39.5c-8.2,15.4-9.7,33.4-5.4,50.2
			c2.5,9.9,6.5,22.4,12.5,33.6C174.8,343.4,200.2,363.9,200.2,363.9z"/>
		<g>
			<path fill="#638921" d="M196,351.3c0,0-3.2-8.8-6.1-22.6c-0.7-3.4-1.5-7.2-2.1-11.2c-0.7-4-1.2-8.2-1.6-12.6
				c-0.2-2.2-0.4-4.4-0.6-6.7c-0.1-1.1-0.1-2.3-0.2-3.4c0-1.1-0.1-2.3-0.1-3.5c-0.1-2.3-0.1-4.6-0.1-7c0-2.3,0.1-4.7,0.2-7.1
				c0.2-4.7,0.6-9.4,1.2-14c0.2-1.2,0.3-2.3,0.5-3.4c0.2-1.1,0.4-2.3,0.6-3.4c0.2-1.1,0.4-2.2,0.6-3.3c0.3-1.1,0.5-2.2,0.8-3.3
				c0.5-2.2,1.1-4.2,1.7-6.3c0.6-2.1,1.3-4,2-5.9c0.7-1.9,1.5-3.7,2.2-5.5c0.4-0.9,0.8-1.7,1.1-2.6c0.4-0.8,0.8-1.6,1.2-2.4
				c1.5-3.2,3.3-5.9,4.8-8.4c1.6-2.4,3-4.4,4.2-6.1c2.6-3.2,4.1-5,4.1-5l0.2,0.1c0,0-1.3,2-3.6,5.3c-0.6,0.9-1.1,1.8-1.8,2.9
				c-0.6,1.1-1.4,2.2-2,3.4c-0.7,1.3-1.4,2.6-2.1,4c-0.4,0.7-0.8,1.4-1.1,2.2c-0.3,0.8-0.7,1.5-1.1,2.3c-0.4,0.8-0.7,1.6-1.1,2.4
				c-0.3,0.8-0.7,1.7-1,2.6c-0.7,1.7-1.4,3.5-2,5.4c-0.6,1.9-1.3,3.8-1.9,5.8c-0.6,2-1.2,4.1-1.7,6.2c-0.3,1.1-0.5,2.1-0.8,3.2
				c-0.3,1.1-0.4,2.2-0.7,3.3c-0.2,1.1-0.4,2.2-0.7,3.3c-0.2,1.1-0.4,2.2-0.5,3.4c-0.7,4.5-1.2,9.2-1.5,13.8c-0.1,2.3-0.2,4.7-0.3,7
				c0,2.3-0.1,4.6,0,6.9c0,1.1,0,2.3,0.1,3.4c0.1,1.1,0.1,2.3,0.2,3.4c0.1,2.3,0.3,4.5,0.4,6.7c0.2,2.2,0.4,4.3,0.6,6.4
				c0.3,2.1,0.5,4.1,0.8,6.1c0.5,4,1.2,7.7,1.8,11.2c0.7,3.4,1.3,6.6,2,9.4c0.6,2.8,1.3,5.2,1.8,7.2c1.1,4,1.8,6.2,1.8,6.2
				L196,351.3z"/>
		</g>
		<g>
			<path fill="#638921" d="M189.5,348.4c0,0-0.2-0.6-0.4-1.5c-0.1-0.5-0.2-1-0.3-1.6c-0.1-0.6-0.1-1.2,0-1.9c0-0.6,0-1.3,0.1-1.9
				c0.2-0.6,0.4-1.1,0.7-1.5c0.6-0.8,1.3-1.1,1.3-1.1l0.2,0.1c0,0,0.1,0.2,0.1,0.5c0,0.3,0.1,0.7,0.1,1.2c0,0.5,0,1-0.2,1.5
				c-0.1,0.5-0.4,1-0.6,1.6c-0.3,1.1-0.5,2.3-0.6,3.1c-0.1,0.9-0.1,1.5-0.1,1.5L189.5,348.4z"/>
		</g>
		<g>
			<path fill="#638921" d="M181.1,339.4c0,0,0-0.3,0-0.8c0-0.5,0.1-1.2,0.2-2.1c0-0.4,0.1-0.9,0.2-1.4c0.1-0.5,0.2-1,0.3-1.5
				c0.2-1.1,0.6-2.2,0.9-3.3c0.4-1.1,0.7-2.2,1.3-3.2c0.3-0.5,0.5-0.9,0.9-1.3c0.3-0.4,0.6-0.8,0.9-1.1c1.2-1.3,2.3-1.9,2.3-1.9
				l0.2,0.1c0,0-0.1,0.3-0.3,0.8c-0.2,0.5-0.5,1.1-0.8,1.9c-0.3,0.8-0.7,1.6-1.2,2.5c-0.2,0.5-0.5,0.9-0.8,1.4
				c-0.3,0.5-0.5,1-0.8,1.4c-0.5,1-0.9,2-1.3,3c-0.4,1-0.7,1.9-0.9,2.7c-0.3,0.8-0.4,1.5-0.5,2c-0.1,0.5-0.2,0.8-0.2,0.8
				L181.1,339.4z"/>
		</g>
		<g>
			<path fill="#638921" d="M171.3,327.4c0,0-0.1-0.1-0.2-0.3c-0.1-0.2-0.3-0.5-0.5-1c-0.4-0.9-0.7-2.2-0.5-3.8
				c0.1-0.8,0.3-1.7,0.6-2.6c0.3-0.9,0.8-1.8,1.2-2.6c1-1.7,2.2-3.4,3.3-5.2c1.2-1.7,2.3-3.5,3.5-5c1.2-1.5,2.4-2.9,3.5-4
				c2.2-2.3,3.9-3.5,3.9-3.5l0.2,0.1c0,0-0.2,0.5-0.7,1.3c-0.5,0.8-1.2,1.9-2,3.2c-0.9,1.3-1.9,2.8-3.1,4.3
				c-1.2,1.5-2.6,3.1-3.9,4.7c-1.3,1.6-2.6,3.3-3.7,4.8c-0.5,0.8-1,1.6-1.4,2.3c-0.4,0.8-0.6,1.5-0.8,2.3c-0.3,1.5-0.1,2.7,0.1,3.6
				c0.1,0.4,0.3,0.7,0.4,0.9c0.1,0.2,0.2,0.3,0.2,0.3L171.3,327.4z"/>
		</g>
		<g>
			<path fill="#638921" d="M164,309.8c0,0-0.1-0.1-0.3-0.4c-0.2-0.3-0.4-0.7-0.6-1.3c-0.5-1.1-0.8-2.9-0.7-4.9
				c0.1-1,0.3-2.2,0.7-3.3c0.4-1.1,0.9-2.3,1.6-3.4c1.3-2.3,3.1-4.4,4.9-6.4c1.8-2,3.6-4,5.5-5.8c1.8-1.8,3.7-3.3,5.3-4.5
				c3.2-2.5,5.6-3.9,5.6-3.9l0.1,0.2c0,0-0.4,0.5-1.2,1.4c-0.8,0.9-2,2.1-3.4,3.6c-1.4,1.5-3.1,3.1-4.9,4.9
				c-1.8,1.7-3.8,3.5-5.8,5.4c-1.9,1.9-3.8,3.8-5.1,5.8c-0.7,1-1.3,2.1-1.7,3.1c-0.4,1-0.7,2.1-0.9,3c-0.3,1.9-0.1,3.6,0.3,4.7
				c0.2,0.6,0.3,1,0.5,1.3c0.1,0.3,0.2,0.4,0.2,0.4L164,309.8z"/>
		</g>
		<g>
			<path fill="#638921" d="M156.4,293.2c0,0,0-0.2,0.1-0.6c0-0.4,0.1-0.9,0.2-1.6c0.1-0.7,0.3-1.5,0.5-2.4c0.1-0.5,0.3-1,0.4-1.5
				c0.2-0.5,0.3-1,0.5-1.6c0.4-1.1,0.9-2.3,1.5-3.5c0.6-1.2,1.3-2.5,2.1-3.7c0.8-1.2,1.7-2.5,2.7-3.7c1-1.2,2-2.4,3.1-3.5
				c1.1-1.1,2.2-2.2,3.4-3.3c1.2-1,2.3-2,3.5-2.9c1.2-0.9,2.4-1.7,3.5-2.4c1.1-0.7,2.2-1.4,3.3-1.9c2.1-1.1,3.8-2,5-2.6
				c1.2-0.6,2-0.9,2-0.9l0.1,0.2c0,0-0.6,0.5-1.7,1.3c-0.5,0.4-1.2,0.9-2,1.5c-0.8,0.6-1.6,1.2-2.6,1.9c-1.9,1.4-4,3-6.4,4.7
				c-1.2,0.8-2.3,1.7-3.6,2.7c-1.2,0.9-2.3,1.9-3.5,3c-1.1,1-2.2,2.1-3.2,3.2c-1,1.1-1.9,2.3-2.8,3.4c-1.7,2.3-3,4.7-4,6.8
				c-0.2,0.5-0.4,1-0.6,1.5c-0.2,0.5-0.3,1-0.5,1.4c-0.3,0.9-0.5,1.7-0.7,2.3c-0.2,0.7-0.2,1.2-0.3,1.5c-0.1,0.4-0.1,0.5-0.1,0.5
				L156.4,293.2z"/>
		</g>
		<g>
			<path fill="#638921" d="M153.8,264.9c0,0,0.5-0.6,1.2-1.7c0.4-0.6,0.9-1.2,1.5-1.9c0.6-0.8,1.2-1.6,2-2.5
				c0.7-0.9,1.6-1.8,2.5-2.8c0.9-1,1.9-2,3-3c1.1-1,2.2-2,3.4-3c1.2-1,2.4-1.9,3.6-2.9c1.3-0.9,2.5-1.8,3.8-2.7
				c1.3-0.9,2.6-1.6,3.8-2.4c1.3-0.7,2.6-1.3,3.8-1.9c0.6-0.3,1.2-0.5,1.8-0.8c0.6-0.2,1.2-0.4,1.7-0.6c1.1-0.4,2.1-0.7,3.1-1
				c0.9-0.3,1.7-0.5,2.4-0.6c1.3-0.3,2.1-0.4,2.1-0.4l0.1,0.2c0,0-0.7,0.4-1.9,0.9c-0.6,0.3-1.3,0.6-2.2,1.1
				c-0.4,0.2-0.9,0.4-1.3,0.6c-0.5,0.2-1,0.5-1.5,0.7c-1,0.5-2.1,1.1-3.3,1.7c-1.2,0.6-2.4,1.3-3.6,1.9c-1.3,0.7-2.6,1.4-3.9,2.1
				c-1.3,0.7-2.6,1.6-3.9,2.4c-1.2,0.9-2.5,1.7-3.7,2.7c-1.2,0.9-2.3,1.9-3.5,2.8c-1.1,1-2.1,1.9-3.1,2.8c-1,0.9-1.9,1.8-2.7,2.6
				c-0.8,0.8-1.5,1.6-2.2,2.3c-0.6,0.7-1.2,1.3-1.6,1.8c-0.9,1-1.4,1.6-1.4,1.6L153.8,264.9z"/>
		</g>
		<g>
			<path fill="#638921" d="M164.9,232.8c0,0,0.5-0.3,1.3-1c0.8-0.6,2.1-1.5,3.6-2.4c0.7-0.5,1.6-1,2.4-1.5c0.9-0.5,1.8-1.1,2.8-1.6
				c2-1.1,4.1-2.2,6.3-3.2c1.1-0.5,2.2-1,3.3-1.5c1.1-0.5,2.2-0.9,3.2-1.3c1.1-0.3,2.1-0.7,3.1-0.9c1-0.3,1.9-0.5,2.8-0.6
				c3.5-0.7,6-0.7,6-0.7l0,0.2c0,0-0.6,0.3-1.5,0.6c-1,0.4-2.4,0.9-4,1.5c-1.7,0.6-3.6,1.3-5.7,2c-1,0.3-2.1,0.7-3.2,1
				c-1.1,0.3-2.2,0.8-3.3,1.2c-2.2,0.8-4.4,1.8-6.4,2.7c-2,0.9-3.9,1.8-5.4,2.7c-1.6,0.8-2.8,1.6-3.7,2.1c-0.9,0.5-1.4,0.8-1.4,0.8
				L164.9,232.8z"/>
		</g>
		<g>
			<path fill="#638921" d="M191.4,209.7c0,0,1-0.3,2.5-0.6c1.5-0.3,3.6-0.5,5.7-0.6c1,0,2.1-0.1,3.1,0c0.5,0.1,1,0.1,1.4,0.3
				c0.4,0.1,0.8,0.2,1.2,0.4c1.5,0.5,2.4,1.3,2.4,1.3l-0.1,0.2c0,0-0.3,0.1-0.7,0.1c-0.5,0.1-1.1,0.1-1.9,0.1c-0.8,0-1.6,0-2.6-0.1
				c-0.5-0.1-0.9-0.2-1.4-0.3c-0.5-0.1-1-0.2-1.5-0.2c-2-0.3-4-0.3-5.5-0.4c-1.5,0-2.5,0-2.5,0L191.4,209.7z"/>
		</g>
		<g>
			<path fill="#638921" d="M187.2,299.3c0,0,2,1.4,4.9,3.4c3,2,6.8,4.8,10.8,7.6c2,1.4,3.9,2.8,5.6,4.4c0.8,0.8,1.6,1.6,2.3,2.4
				c0.7,0.8,1.3,1.6,1.7,2.4c0.5,0.8,0.9,1.6,1.2,2.3c0.1,0.4,0.3,0.7,0.4,1c0.1,0.3,0.2,0.6,0.3,0.9c0.2,0.5,0.2,0.9,0.3,1.2
				c0,0.3,0.1,0.4,0.1,0.4l-0.2,0.1c0,0-0.1-0.1-0.2-0.4c-0.2-0.2-0.3-0.6-0.6-1c-0.5-0.9-1.4-2.1-2.5-3.4c-0.6-0.7-1.2-1.3-1.9-2.1
				c-0.7-0.7-1.5-1.4-2.3-2.2c-0.8-0.8-1.6-1.5-2.5-2.3c-0.9-0.8-1.8-1.5-2.7-2.3c-3.7-3-7.4-6-10.2-8.4c-2.8-2.3-4.6-3.8-4.6-3.8
				L187.2,299.3z"/>
		</g>
		<g>
			<path fill="#638921" d="M189.2,321.7c0,0,1.2,0.7,2.9,1.9c1.7,1.1,3.9,2.8,6.1,4.6c1.1,0.9,2.2,1.7,3.1,2.7
				c0.5,0.5,0.9,0.9,1.2,1.4c0.4,0.5,0.7,0.9,1,1.4c1.2,1.7,1.7,3.1,1.7,3.1l-0.2,0.1c0,0-0.3-0.2-0.8-0.5c-0.5-0.4-1.2-0.9-2-1.5
				c-0.8-0.7-1.7-1.4-2.6-2.4c-0.4-0.5-0.9-1-1.3-1.5c-0.4-0.5-0.9-1-1.4-1.5c-1.9-2-3.9-3.8-5.4-5.2c-1.5-1.4-2.6-2.3-2.6-2.3
				L189.2,321.7z"/>
		</g>
		<g>
			<path fill="#638921" d="M192.2,337.8c0,0,2.5,1.4,4.8,3.1c0.6,0.4,1.2,0.7,1.7,1.1c0.5,0.4,0.9,0.9,1.2,1.4
				c0.6,0.9,0.9,1.7,0.9,1.7l-0.1,0.2c0,0-0.9-0.1-1.8-0.6c-0.5-0.2-1-0.5-1.5-1c-0.5-0.4-0.9-1-1.4-1.5c-2-2-3.8-4.2-3.8-4.2
				L192.2,337.8z"/>
		</g>
		<g>
			<path fill="#638921" d="M186.4,275.7c0,0,0.7,0.4,1.9,1.2c0.6,0.4,1.4,0.8,2.2,1.4c0.9,0.5,1.8,1.1,2.8,1.8
				c1,0.7,2.1,1.4,3.3,2.3c1.2,0.8,2.3,1.7,3.6,2.7c1.2,1,2.5,1.9,3.7,3c1.3,1,2.5,2.1,3.7,3.2c1.2,1.1,2.4,2.2,3.6,3.3
				c1.2,1.1,2.3,2.3,3.4,3.4c1,1.2,2,2.3,2.9,3.4c0.4,0.6,0.9,1.1,1.3,1.6c0.4,0.5,0.8,1.1,1.1,1.6c0.7,1,1.4,1.9,1.9,2.8
				c0.5,0.8,1,1.6,1.4,2.2c0.7,1.2,1.1,2,1.1,2l-0.2,0.1c0,0-0.6-0.6-1.5-1.7c-1-1.1-2.3-2.6-4-4.4c-1.6-1.8-3.6-3.9-5.6-6.1
				c-1-1.1-2.1-2.3-3.2-3.5c-1.1-1.2-2.2-2.3-3.4-3.5c-1.2-1.1-2.3-2.3-3.5-3.3c-1.2-1.1-2.4-2.1-3.5-3.1c-2.3-2-4.5-3.8-6.5-5.3
				c-1-0.8-1.9-1.4-2.7-2c-0.8-0.6-1.5-1.1-2.1-1.5c-1.2-0.8-1.9-1.3-1.9-1.3L186.4,275.7z"/>
		</g>
		<g>
			<path fill="#638921" d="M189.2,256.9c0,0,0.9,0.3,2.3,0.9c0.7,0.3,1.6,0.7,2.7,1.1c1,0.5,2.2,1,3.4,1.6c1.2,0.6,2.6,1.3,4,2.1
				c1.4,0.7,2.8,1.6,4.3,2.5c1.4,0.9,3,1.9,4.4,3c1.5,1,3,2.2,4.4,3.3c1.4,1.2,2.9,2.3,4.3,3.5c1.4,1.2,2.7,2.4,3.9,3.6
				c1.2,1.3,2.4,2.5,3.4,3.7c0.5,0.6,1,1.2,1.5,1.8c0.5,0.6,0.9,1.2,1.3,1.7c0.8,1.1,1.5,2.2,2.1,3.1c0.6,0.9,1.1,1.8,1.5,2.5
				c0.8,1.4,1.2,2.2,1.2,2.2l-0.2,0.1c0,0-0.6-0.7-1.7-1.9c-0.5-0.6-1.2-1.3-1.9-2.2c-0.4-0.4-0.7-0.9-1.2-1.3
				c-0.4-0.5-0.9-0.9-1.3-1.5c-0.9-1-1.9-2.1-3-3.2c-1.1-1.1-2.2-2.3-3.4-3.5c-1.2-1.2-2.4-2.5-3.7-3.7c-1.3-1.3-2.6-2.5-4-3.7
				c-1.4-1.2-2.8-2.3-4.2-3.4c-1.4-1.1-2.9-2.1-4.2-3.1c-1.4-0.9-2.8-1.9-4.1-2.7c-1.3-0.8-2.6-1.6-3.8-2.3
				c-1.2-0.7-2.3-1.3-3.3-1.8c-1-0.5-1.8-1-2.6-1.3c-1.4-0.7-2.3-1.1-2.3-1.1L189.2,256.9z"/>
		</g>
		<g>
			<path fill="#638921" d="M195.4,236.5c0,0,0.9,0.4,2.4,1.1c0.8,0.3,1.7,0.8,2.8,1.4c0.5,0.3,1.1,0.6,1.7,0.9
				c0.6,0.3,1.2,0.7,1.8,1c1.3,0.7,2.6,1.5,4.1,2.4c0.7,0.4,1.4,0.9,2.2,1.4c0.7,0.5,1.5,1,2.2,1.5c1.5,1.1,3,2.2,4.5,3.5
				c1.5,1.2,2.9,2.5,4.4,3.8c1.4,1.4,2.8,2.7,4.2,4.1c1.4,1.4,2.6,2.8,3.8,4.2c0.6,0.7,1.1,1.4,1.6,2.2c0.5,0.7,1,1.4,1.5,2.1
				c0.5,0.7,0.9,1.4,1.3,2.1c0.4,0.7,0.8,1.3,1.2,2c0.8,1.3,1.4,2.5,1.9,3.5c0.3,0.5,0.5,1,0.7,1.5c0.2,0.5,0.4,0.9,0.5,1.3
				c0.7,1.6,1,2.5,1,2.5l-0.2,0.1c0,0-0.6-0.8-1.5-2.2c-0.5-0.7-1-1.6-1.7-2.5c-0.3-0.5-0.7-1-1-1.6c-0.4-0.5-0.8-1.1-1.2-1.7
				c-0.8-1.2-1.8-2.4-2.7-3.8c-1-1.3-2.1-2.7-3.2-4.1c-1.1-1.4-2.3-2.9-3.5-4.3c-1.2-1.5-2.6-2.8-3.9-4.2c-1.4-1.3-2.7-2.7-4.2-4
				c-1.4-1.3-2.9-2.5-4.2-3.6c-1.4-1.1-2.8-2.2-4.2-3.1c-1.4-1-2.6-1.9-3.9-2.6c-0.6-0.4-1.2-0.8-1.8-1.1c-0.6-0.3-1.1-0.6-1.6-0.9
				c-1-0.6-1.9-1.1-2.7-1.5c-1.5-0.8-2.4-1.2-2.4-1.2L195.4,236.5z"/>
		</g>
		<g>
			<path fill="#638921" d="M201.8,217.8c0,0,0.8,0.5,2.3,1.4c0.8,0.4,1.6,1,2.6,1.7c0.5,0.3,1,0.7,1.6,1.1c0.6,0.4,1.1,0.8,1.7,1.3
				c1.2,0.9,2.5,1.9,3.8,3c0.7,0.5,1.4,1.1,2,1.7c0.7,0.6,1.4,1.2,2.1,1.8c1.4,1.3,2.8,2.6,4.1,4.1c1.4,1.4,2.7,2.9,4,4.4
				c1.3,1.6,2.6,3.1,3.8,4.7c1.2,1.5,2.3,3.2,3.4,4.7c0.5,0.8,1,1.6,1.4,2.4c0.5,0.8,0.9,1.6,1.3,2.3c0.4,0.8,0.8,1.5,1.2,2.2
				c0.4,0.7,0.7,1.5,1,2.1c0.6,1.4,1.1,2.7,1.6,3.8c0.2,0.6,0.4,1.1,0.6,1.6c0.2,0.5,0.3,1,0.4,1.4c0.5,1.7,0.8,2.6,0.8,2.6
				l-0.2,0.1c0,0-0.5-0.9-1.3-2.4c-0.4-0.8-0.9-1.7-1.5-2.8c-0.3-0.5-0.6-1.1-0.9-1.7c-0.3-0.6-0.7-1.2-1.1-1.9
				c-0.7-1.3-1.5-2.7-2.4-4.1c-0.9-1.5-1.9-3-2.8-4.5c-1-1.5-2-3.2-3.1-4.8c-1.1-1.6-2.3-3.2-3.5-4.8c-1.3-1.5-2.5-3.1-3.8-4.5
				c-1.3-1.5-2.6-2.8-3.9-4.2c-1.3-1.3-2.6-2.6-3.9-3.7c-1.3-1.1-2.5-2.2-3.6-3.1c-0.6-0.5-1.1-0.9-1.7-1.4
				c-0.5-0.4-1.1-0.8-1.5-1.2c-1-0.7-1.8-1.4-2.5-1.9c-1.4-1-2.3-1.6-2.3-1.6L201.8,217.8z"/>
		</g>
		<g>
			<path fill="#638921" d="M208.8,209.8c0,0,0.7,0.4,2,1c0.6,0.3,1.4,0.7,2.2,1.2c0.9,0.5,1.8,1.1,2.8,1.7c1,0.6,2.1,1.4,3.3,2.2
				c1.2,0.8,2.3,1.8,3.5,2.7c1.1,1,2.4,2,3.5,3.2c1.2,1.1,2.3,2.3,3.4,3.5c1.1,1.2,2.2,2.4,3.2,3.7c1.1,1.2,1.9,2.6,2.8,3.8
				c0.4,0.6,0.8,1.3,1.2,1.9c0.4,0.6,0.7,1.3,1.1,1.9c0.3,0.6,0.6,1.2,0.9,1.8c0.3,0.6,0.5,1.2,0.8,1.8c0.5,1.1,0.9,2.2,1.2,3.1
				c0.2,0.5,0.3,0.9,0.5,1.3c0.1,0.4,0.2,0.8,0.3,1.1c0.4,1.4,0.5,2.2,0.5,2.2l-0.2,0.1c0,0-0.4-0.7-1.1-2c-0.3-0.6-0.7-1.4-1.2-2.2
				c-0.2-0.4-0.5-0.9-0.7-1.4c-0.3-0.5-0.6-1-0.9-1.5c-0.6-1-1.3-2.2-2-3.3c-0.7-1.2-1.5-2.4-2.3-3.6c-0.8-1.2-1.7-2.5-2.6-3.8
				c-0.9-1.3-1.9-2.5-2.9-3.8c-1-1.2-2.1-2.4-3.2-3.6c-1.1-1.2-2.2-2.2-3.3-3.3c-1.1-1-2.2-2-3.3-2.9c-1.1-0.9-2.1-1.7-3.1-2.4
				c-1-0.7-1.9-1.4-2.7-1.9c-0.8-0.6-1.5-1-2.1-1.4c-1.2-0.7-1.9-1.2-1.9-1.2L208.8,209.8z"/>
		</g>
	</g>
	<g>
		<path fill="#8DC63F" stroke="#547219" stroke-width="2.1643" stroke-miterlimit="10" d="M266.2,122.1l43-38.7
			c4.2-3.7,7.6-8.2,10.2-13.2L337.1,36l1.6,0.4c3.6,1,6.8,3.1,8.8,6.2c0.7,1,1.3,2.2,1.8,3.5c0.6,1.5,2.7,1.4,3.1-0.2
			c1.7-7.4,2.5-20.2-9.3-27.2c0,0-13-1.6-28.7,4.3l-3.2-0.7c-3.3-0.7-6.6-0.7-9.9-0.1c-8.4,1.6-24.6,6-37,18.2
			c-2.4,2.3-4,5.4-4.3,8.7c-0.7,6.9-0.6,20.6,6.8,37.2l-2.7,28.1L266.2,122.1z"/>
		<g>
			<path fill="#638921" d="M269.6,107.4c0,0,0.6-1.5,1.5-4.1c0.9-2.7,2.1-6.5,3.3-11.1c0.6-2.3,1.2-4.9,1.7-7.5
				c0.5-2.7,1-5.6,1.6-8.5c0.6-3,1.4-6,2.2-9c0.5-1.5,1-3,1.5-4.6c0.6-1.5,1.1-3,1.7-4.5c0.7-1.5,1.3-3,2-4.4
				c0.7-1.4,1.5-2.9,2.2-4.3c0.8-1.4,1.7-2.7,2.5-4.1c0.9-1.3,1.8-2.5,2.7-3.8c0.9-1.3,1.9-2.3,2.9-3.4c0.5-0.6,1-1.1,1.4-1.6
				c0.5-0.5,1-1,1.5-1.5c1-1,2-1.9,3-2.8c1-0.8,2-1.6,3-2.3c1.9-1.6,3.8-2.7,5.5-3.7c0.8-0.5,1.6-1,2.3-1.5c0.8-0.4,1.5-0.7,2.1-1
				c2.5-1.3,4-1.9,4-1.9l0.1,0.2c0,0-1.3,0.9-3.7,2.4c-0.6,0.4-1.2,0.8-1.9,1.2c-0.7,0.5-1.4,1-2.2,1.6c-0.8,0.6-1.6,1.2-2.5,1.8
				c-0.2,0.2-0.4,0.3-0.7,0.5c-0.2,0.2-0.4,0.4-0.6,0.6c-0.4,0.4-0.9,0.8-1.3,1.2c-0.9,0.8-1.8,1.6-2.8,2.4
				c-0.9,0.9-1.8,1.9-2.8,2.8c-0.5,0.5-1,1-1.4,1.5c-0.5,0.5-0.9,1.1-1.4,1.6c-0.9,1.1-1.9,2.1-2.8,3.4c-0.9,1.2-1.8,2.4-2.7,3.6
				c-0.8,1.3-1.7,2.6-2.5,3.9c-0.8,1.4-1.5,2.7-2.3,4.1c-0.7,1.4-1.4,2.8-2.1,4.3c-0.6,1.5-1.2,2.9-1.8,4.4c-0.5,1.5-1.1,3-1.6,4.5
				c-0.9,3-1.8,6-2.4,8.9c-0.7,2.9-1.2,5.8-1.9,8.5c-0.6,2.7-1.3,5.2-2,7.5c-1.4,4.6-2.7,8.4-3.7,11c-1,2.6-1.6,4.1-1.6,4.1
				L269.6,107.4z"/>
		</g>
		<g>
			<path fill="#638921" d="M335.2,40.3c0,0,0.5-1.6,1.3-4.1c0.7-2.4,1.7-5.7,2.4-9c0.2-0.8,0.3-1.6,0.4-2.4c0-0.6-0.1-1.6,0.4-2.7
				c0.4-1,1.2-1.8,2.1-2.1c0.9-0.4,1.8-0.5,2.5-0.4c0.8,0.1,1.4,0.4,1.9,0.7c0.5,0.3,0.9,0.6,1.1,0.9c0.3,0.3,0.5,0.6,0.6,0.7
				c0.1,0.2,0.2,0.3,0.2,0.3l-0.2,0.2c0,0-0.1,0-0.3-0.1c-0.2-0.1-0.4-0.2-0.8-0.4c-0.6-0.3-1.6-0.6-2.7-0.5c-0.5,0.1-1,0.2-1.5,0.5
				c-0.4,0.3-0.8,0.7-1,1.2c-0.2,0.4-0.3,1.1-0.4,2.1c-0.2,0.9-0.4,1.7-0.7,2.6c-0.5,1.7-1.1,3.3-1.7,4.8c-0.6,1.5-1.2,2.9-1.7,4
				c-1,2.3-1.8,3.9-1.8,3.9L335.2,40.3z"/>
		</g>
		<g>
			<path fill="#638921" d="M273.6,90.5c0,0,0-0.2,0-0.5c0-0.3-0.1-0.8-0.2-1.3c-0.1-0.6-0.2-1.2-0.4-2c-0.2-0.8-0.4-1.6-0.7-2.6
				c-0.6-1.9-1.4-4-2.4-6.2c-1-2.2-2.1-4.6-3.2-7c-1.1-2.4-2.1-4.9-2.7-7.4c-0.3-1.2-0.5-2.5-0.6-3.6c-0.1-1.2-0.1-2.3,0-3.3
				c0-0.5,0.1-1,0.2-1.5c0.1-0.5,0.2-0.9,0.3-1.3c0.2-0.8,0.4-1.5,0.7-2c0.2-0.6,0.5-1,0.6-1.2c0.2-0.3,0.2-0.4,0.2-0.4l0.2,0.1
				c0,0,0,0.2-0.1,0.5c0,0.3-0.2,0.7-0.2,1.3c-0.1,0.6-0.1,1.2-0.2,2c0,0.4,0,0.8,0,1.2c0,0.4,0,0.9,0.1,1.4c0.1,0.9,0.2,2,0.4,3
				c0.2,1.1,0.4,2.2,0.7,3.4c0.2,1.2,0.6,2.4,0.9,3.6c0.4,1.2,0.8,2.4,1.2,3.7c1,2.5,1.9,4.9,2.8,7.2c0.9,2.3,1.6,4.6,2,6.5
				c0.2,1,0.4,1.9,0.5,2.7c0.1,0.8,0.2,1.5,0.2,2.1c0,0.6,0,1,0,1.3c0,0.3,0,0.5,0,0.5L273.6,90.5z"/>
		</g>
		<g>
			<path fill="#638921" d="M279.8,66c0,0-0.2-0.3-0.6-0.9c-0.4-0.6-0.9-1.5-1.4-2.6c-0.3-0.5-0.6-1.1-0.9-1.8
				c-0.3-0.6-0.5-1.3-0.8-2c-0.5-1.4-1-3-1.4-4.6c-0.4-1.6-0.8-3.2-0.9-4.8c0-0.8-0.1-1.5-0.1-2.2c0-0.7,0.1-1.4,0.2-2
				c0.2-1.2,0.4-2.2,0.6-2.9c0.2-0.7,0.4-1.1,0.4-1.1l0.2,0c0,0,0.1,0.4,0.2,1.1c0.1,0.7,0.2,1.7,0.3,2.9c0.1,1.2,0.3,2.5,0.4,4
				c0.1,0.7,0.1,1.5,0.2,2.3c0,0.8,0.2,1.6,0.2,2.3c0.2,1.6,0.6,3.1,0.9,4.6c0.4,1.4,0.8,2.8,1.2,3.9c0.4,1.1,0.8,2,1.1,2.7
				c0.3,0.6,0.4,1,0.4,1L279.8,66z"/>
		</g>
		<g>
			<path fill="#638921" d="M287.6,46.9c0,0,0-0.3-0.1-0.8c-0.1-0.5-0.1-1.2-0.1-2.1c0-0.4,0-0.9,0-1.4c0-0.5,0.1-1,0.1-1.6
				c0.1-1.1,0.4-2.3,0.6-3.4c0.3-1.1,0.6-2.3,1.1-3.3c0.3-0.5,0.5-1,0.8-1.4c0.3-0.4,0.6-0.8,0.9-1.1c0.6-0.7,1.2-1.2,1.6-1.5
				c0.4-0.3,0.7-0.4,0.7-0.4l0.2,0.1c0,0-0.1,0.3-0.3,0.8c-0.2,0.5-0.5,1.1-0.8,1.9c-0.3,0.8-0.7,1.7-1.2,2.6
				c-0.2,0.5-0.5,0.9-0.8,1.4c-0.3,0.5-0.5,1-0.7,1.5c-0.4,1-0.8,2.1-1.1,3.1c-0.2,1-0.5,2-0.6,2.8c-0.1,0.8-0.2,1.5-0.2,2
				c0,0.5-0.1,0.8-0.1,0.8L287.6,46.9z"/>
		</g>
		<g>
			<path fill="#638921" d="M300.2,31.6c0,0,0.9-1.8,2-3.4c0.3-0.4,0.4-0.9,0.7-1.2c0.3-0.3,0.7-0.6,1-0.8c0.7-0.4,1.4-0.4,1.4-0.4
				l0.2,0.1c0,0,0.1,0.7-0.2,1.4c-0.1,0.4-0.3,0.8-0.6,1.1c-0.3,0.3-0.8,0.6-1.1,0.9c-1.5,1.3-3.1,2.4-3.1,2.4L300.2,31.6z"/>
		</g>
		<g>
			<path fill="#638921" d="M276.5,89.9c0,0,0.6-0.1,1.6-0.4c0.5-0.1,1.1-0.3,1.8-0.4c0.7-0.2,1.5-0.4,2.3-0.6
				c0.8-0.2,1.7-0.5,2.7-0.9c0.9-0.3,1.9-0.7,2.9-1.1c1-0.4,2-0.8,3.1-1.3c1-0.5,2.1-1,3.1-1.5c1-0.6,2-1.1,3-1.7
				c1-0.6,1.9-1.2,2.8-1.8c0.9-0.6,1.8-1.1,2.6-1.7c0.8-0.5,1.6-1,2.4-1.5c0.7-0.5,1.4-0.9,2-1.3c0.6-0.4,1.1-0.7,1.5-1
				c0.9-0.6,1.4-0.9,1.4-0.9l0.1,0.2c0,0-0.3,0.5-1,1.3c-0.3,0.4-0.7,0.9-1.2,1.4c-0.5,0.5-1.1,1.1-1.7,1.7c-0.3,0.3-0.7,0.6-1,0.9
				c-0.4,0.3-0.8,0.6-1.2,0.9c-0.8,0.7-1.7,1.2-2.6,1.9c-1,0.6-2,1.2-3,1.6c-1,0.5-2.1,1-3.2,1.5c-1.1,0.5-2.2,0.9-3.3,1.3
				c-1.1,0.4-2.2,0.8-3.2,1.1c-1.1,0.3-2.1,0.7-3.1,0.9c-1,0.2-1.9,0.5-2.8,0.6c-0.9,0.2-1.7,0.3-2.4,0.4c-0.7,0.1-1.3,0.2-1.8,0.3
				c-1,0.1-1.6,0.2-1.6,0.2L276.5,89.9z"/>
		</g>
		<g>
			<path fill="#638921" d="M281.9,68.1c0,0,0.6,0,1.7,0c0.5,0,1.2,0,2-0.1c0.8,0,1.6-0.1,2.5-0.2c0.9-0.1,1.9-0.2,3-0.4
				c1.1-0.1,2.2-0.3,3.3-0.5c1.1-0.2,2.3-0.5,3.5-0.8c1.2-0.3,2.3-0.7,3.5-1c1.2-0.4,2.3-0.8,3.4-1.3c1.1-0.4,2.2-0.9,3.3-1.4
				c1.1-0.4,2.1-0.9,3-1.3c1-0.4,1.9-0.8,2.7-1.2c0.8-0.4,1.6-0.7,2.3-1c0.7-0.3,1.3-0.6,1.8-0.8c1-0.5,1.6-0.7,1.6-0.7l0.1,0.2
				c0,0-0.4,0.4-1.3,1.2c-0.4,0.4-0.9,0.8-1.6,1.3c-0.6,0.5-1.3,1-2.1,1.5c-0.4,0.3-0.8,0.5-1.3,0.8c-0.4,0.2-0.9,0.5-1.4,0.8
				c-0.9,0.5-2,1-3.1,1.5c-1.1,0.4-2.3,0.9-3.5,1.2c-1.2,0.4-2.4,0.7-3.6,1c-1.2,0.3-2.5,0.6-3.7,0.8c-1.2,0.2-2.4,0.4-3.6,0.6
				c-1.2,0.1-2.3,0.3-3.4,0.3c-1.1,0.1-2.1,0.1-3,0.1c-0.9,0-1.8,0-2.6,0c-0.8,0-1.4,0-2-0.1c-1.1-0.1-1.7-0.1-1.7-0.1L281.9,68.1z"
				/>
		</g>
		<g>
			<path fill="#638921" d="M290.2,50.7c0,0,0.5-0.1,1.5-0.3c0.5-0.1,1.1-0.2,1.7-0.3c0.7-0.1,1.4-0.3,2.2-0.5
				c3.2-0.8,7.3-2.3,11.5-3.7c1.1-0.3,2.1-0.7,3.2-1c1-0.4,2.1-0.6,3.1-0.9c1-0.2,2-0.4,3-0.5c0.5,0,1-0.1,1.4-0.1
				c0.5,0,0.9,0,1.3,0c0.8,0,1.6,0,2.3,0.1c0.7,0.1,1.3,0.1,1.8,0.3c1,0.2,1.5,0.4,1.5,0.4l0,0.2c0,0-0.6,0.1-1.5,0.2
				c-0.5,0-1.1,0.1-1.7,0.2c-0.3,0.1-0.7,0.1-1,0.1c-0.4,0.1-0.7,0.1-1.1,0.2c-1.6,0.3-3.4,0.7-5.4,1.1c-1,0.2-2,0.4-3.1,0.6
				c-1.1,0.2-2.1,0.5-3.2,0.7c-2.1,0.6-4.3,1.1-6.3,1.6c-1,0.2-2,0.5-2.9,0.7c-0.9,0.2-1.8,0.4-2.6,0.5c-0.8,0.1-1.6,0.2-2.3,0.3
				c-0.7,0.1-1.3,0.1-1.7,0.2c-1,0.1-1.5,0.1-1.5,0.1L290.2,50.7z"/>
		</g>
		<g>
			<path fill="#638921" d="M304.4,34.4c0,0,1.6-0.5,4-1.2c2.4-0.7,5.7-1.4,9.1-2c1.7-0.3,3.3-0.7,4.9-0.8c0.8-0.1,1.6-0.1,2.3-0.1
				c0.7,0,1.4,0,2.1,0c2.6,0.1,4.2,0.5,4.2,0.5l0,0.2c0,0-0.4,0.1-1.1,0.3c-0.7,0.2-1.8,0.4-3,0.6c-1.2,0.2-2.7,0.5-4.2,0.6
				c-0.8,0.1-1.6,0.1-2.4,0.1c-0.8,0-1.7,0.1-2.5,0.2c-3.3,0.3-6.7,0.7-9.1,1.1c-2.5,0.4-4.2,0.6-4.2,0.6L304.4,34.4z"/>
		</g>
		<g>
			<path fill="#638921" d="M318.3,24.4c0,0,0.2-0.1,0.7-0.2c0.4-0.1,1.1-0.3,1.9-0.5c1.5-0.4,3.7-0.7,5.8-0.8c1.1,0,2.2-0.1,3.2,0
				c0.5,0.1,1,0.1,1.4,0.3c0.5,0.1,0.9,0.2,1.3,0.4c1.5,0.6,2.4,1.3,2.4,1.3l-0.1,0.2c0,0-0.3,0.1-0.8,0.1c-0.5,0-1.1,0.1-1.9,0.1
				c-0.8,0-1.7,0-2.6-0.1c-0.5-0.1-1-0.2-1.5-0.2c-0.5-0.1-1-0.1-1.5-0.2c-2-0.2-4.1-0.2-5.7-0.1c-1.6,0.1-2.6,0.2-2.6,0.2
				L318.3,24.4z"/>
		</g>
	</g>
	<g>
		<path fill="#8DC63F" stroke="#547219" stroke-width="2.1643" stroke-miterlimit="10" d="M168.3,180.5l-26.8-19
			c-10.3-7.3-17.5-18.1-20.4-30.3l-2-8.6l-5.5-4.2c-2.5-1.9-5.2-3.5-8-4.8l-1.7-0.8c0,0,33.5-26.5,64.4-10.3
			c21.6,14.6,49.2,57.9,49.2,57.9L168.3,180.5z"/>
		<g>
			<path fill="#638921" d="M116.4,111.3c0,0,1.3-0.1,3.6-0.2c2.3-0.1,5.6-0.1,9.5,0.1c2,0.1,4.1,0.4,6.3,0.8
				c1.1,0.2,2.3,0.5,3.4,0.9c1.2,0.4,2.3,1,3.4,1.5c2.2,1.1,4.4,2.4,6.7,3.7c2.2,1.3,4.4,2.7,6.6,4.2c2.2,1.4,4.4,2.9,6.5,4.4
				c2.1,1.5,4.2,2.9,6.2,4.4c1.9,1.5,3.8,2.9,5.6,4.4c1.8,1.4,3.4,2.8,4.8,4.1c1.5,1.3,2.8,2.5,3.9,3.7c1.2,1.1,2.1,2.1,2.9,2.9
				c0.8,0.8,1.4,1.5,1.8,2c0.4,0.5,0.6,0.7,0.6,0.7l-0.2,0.2c0,0-0.3-0.2-0.7-0.6c-0.5-0.4-1.1-1-2.1-1.7c-0.9-0.7-2-1.6-3.2-2.6
				c-1.2-1-2.7-2.1-4.2-3.3c-1.6-1.2-3.2-2.5-5-3.8c-1.8-1.3-3.7-2.8-5.6-4.2c-1.9-1.5-4-3-6-4.6c-2.1-1.5-4.2-3.1-6.3-4.6
				c-2.1-1.5-4.3-3-6.4-4.3c-2.2-1.4-4.3-2.7-6.4-3.9c-0.5-0.3-1.1-0.6-1.6-0.8c-0.5-0.3-1-0.5-1.6-0.7c-1.1-0.4-2.2-0.7-3.2-1
				c-2.2-0.5-4.2-0.8-6.2-1.1c-3.9-0.4-7.1-0.5-9.4-0.5c-2.3,0-3.6,0.1-3.6,0.1L116.4,111.3z"/>
		</g>
		<g>
			<path fill="#638921" d="M124.3,122.6c0,0,1.7,0,4.1,0c2.5,0,5.8-0.1,9-0.3c0.8-0.1,1.6-0.1,2.4-0.2c0.8-0.1,1.6-0.2,2.4-0.2
				c1.5-0.1,3-0.1,4.2-0.1c1.2,0,2.3,0.1,3,0.2c0.7,0.1,1.2,0.1,1.2,0.1l0,0.2c0,0-1.6,0.7-4,1.2c-0.6,0.1-1.3,0.3-2,0.4
				c-0.7,0.1-1.5,0.2-2.2,0.2c-1.6,0.1-3.2,0-4.9-0.1c-3.3-0.1-6.6-0.3-9.1-0.6c-2.5-0.3-4.1-0.6-4.1-0.6L124.3,122.6z"/>
		</g>
		<g>
			<path fill="#638921" d="M152.7,120.9c0,0,0-0.2,0-0.7c0-0.4,0-1,0-1.8c0-0.7-0.1-1.6-0.2-2.5c-0.1-0.9-0.3-1.8-0.5-2.7
				c-0.1-0.5-0.2-0.9-0.4-1.3c-0.1-0.4-0.3-0.9-0.4-1.3c-0.2-0.8-0.4-1.6-0.5-2.3c-0.1-0.7-0.2-1.3-0.3-1.8
				c-0.1-0.4-0.1-0.7-0.1-0.7l0.2-0.1c0,0,0.9,0.6,1.7,1.9c0.2,0.3,0.4,0.7,0.6,1.1c0.2,0.4,0.4,0.8,0.5,1.3c0.2,0.9,0.3,2,0.4,3
				c0.1,1,0.1,2,0,3c0,0.5-0.1,0.9-0.1,1.4c-0.1,0.4-0.1,0.8-0.2,1.2c-0.1,0.7-0.3,1.4-0.4,1.8c-0.1,0.4-0.2,0.6-0.2,0.6
				L152.7,120.9z"/>
		</g>
		<g>
			<path fill="#638921" d="M139,112.9c0,0-0.2-0.5-0.6-1.3c-0.4-0.7-1-1.6-1.6-2.5c-0.3-0.4-0.8-0.7-1-1.1c-0.3-0.4-0.5-0.8-0.6-1.2
				c-0.2-0.4-0.3-0.7-0.3-1c-0.1-0.3-0.1-0.5-0.1-0.5l0.1-0.2c0,0,0.7,0,1.6,0.5c0.4,0.2,0.8,0.6,1.2,1c0.3,0.5,0.5,1.1,0.7,1.6
				c0.2,0.6,0.4,1.1,0.6,1.6c0.1,0.5,0.2,1,0.3,1.5c0.1,0.9,0.1,1.4,0.1,1.4L139,112.9z"/>
		</g>
		<g>
			<path fill="#638921" d="M126.8,114c0,0,3.3-0.5,6.5-0.7c0.8-0.1,1.6-0.2,2.4-0.2c0.8,0,1.5,0.1,2.1,0.3c1.2,0.3,2,0.8,2,0.8
				l0,0.2c0,0-0.8,0.5-2,0.7c-0.6,0.1-1.3,0.2-2.1,0.2c-0.8,0-1.6-0.2-2.4-0.3c-3.2-0.3-6.5-0.8-6.5-0.8L126.8,114z"/>
		</g>
		<g>
			<path fill="#638921" d="M134.4,137.6c0,0,0.5,0,1.4-0.1c0.9,0,2.2-0.1,3.7-0.3c1.5-0.1,3.3-0.4,5.3-0.6c1.9-0.3,3.9-0.6,6-1
				c1-0.2,2-0.4,3-0.7c1-0.3,1.9-0.5,2.9-0.8c1.9-0.5,3.6-0.8,5.1-1.2c1.5-0.3,2.8-0.6,3.7-0.7c0.9-0.2,1.4-0.2,1.4-0.2l0.1,0.2
				c0,0-1.8,1.2-4.7,2.4c-0.7,0.3-1.5,0.6-2.4,0.9c-0.9,0.3-1.8,0.6-2.7,0.8c-1.9,0.4-4,0.7-6.1,1c-2.1,0.3-4.2,0.5-6.1,0.6
				c-1,0-1.9,0.1-2.8,0.1c-0.9,0-1.7,0-2.5,0c-1.6,0-2.9-0.1-3.8-0.1c-0.9-0.1-1.4-0.1-1.4-0.1L134.4,137.6z"/>
		</g>
		<g>
			<path fill="#638921" d="M168.6,130.8c0,0,0-0.4,0.1-1c0-0.6,0.1-1.5,0.1-2.5c0-1-0.1-2.3-0.2-3.6c-0.1-1.3-0.3-2.7-0.6-4
				c-0.2-0.7-0.3-1.3-0.5-2c-0.2-0.7-0.4-1.3-0.6-1.9c-0.3-1.2-0.6-2.4-0.8-3.4c-0.2-1-0.4-1.9-0.5-2.5c-0.1-0.6-0.2-1-0.2-1
				l0.2-0.1c0,0,0.3,0.3,0.7,0.8c0.4,0.5,0.9,1.2,1.5,2.2c0.3,0.5,0.5,1,0.8,1.6c0.3,0.6,0.4,1.2,0.6,1.9c0.3,1.3,0.5,2.8,0.6,4.2
				c0.1,1.4,0.2,2.9,0.1,4.2c0,0.7,0,1.3-0.1,1.9c-0.1,0.6-0.1,1.2-0.2,1.7c-0.1,1.1-0.3,1.9-0.5,2.5c-0.1,0.6-0.2,0.9-0.2,0.9
				L168.6,130.8z"/>
		</g>
		<g>
			<path fill="#638921" d="M145.2,153.7c0,0,1.7-0.4,4.1-1.2c1.2-0.4,2.6-0.9,4.1-1.4c1.5-0.5,3.1-1.2,4.6-1.8
				c0.8-0.4,1.5-0.7,2.3-1.1c0.7-0.4,1.5-0.7,2.2-1.1c1.4-0.7,2.8-1.2,4-1.7c1.2-0.5,2.2-0.8,2.9-1.1c0.7-0.2,1.2-0.4,1.2-0.4
				l0.1,0.2c0,0-1.2,1.3-3.4,2.8c-0.5,0.4-1.1,0.7-1.8,1.1c-0.6,0.4-1.4,0.7-2.1,1.1c-1.5,0.7-3.2,1.2-4.8,1.7
				c-3.3,1.1-6.7,1.9-9.2,2.4c-1.3,0.2-2.3,0.4-3.1,0.5c-0.7,0.1-1.2,0.1-1.2,0.1L145.2,153.7z"/>
		</g>
		<g>
			<path fill="#638921" d="M156.4,165c0,0,0.4-0.2,1-0.4c0.6-0.3,1.5-0.6,2.6-1.1c1-0.5,2.2-1.1,3.5-1.8c1.3-0.7,2.6-1.5,3.9-2.3
				c0.6-0.4,1.3-0.8,1.9-1.3c0.6-0.4,1.2-0.9,1.8-1.3c1.2-0.8,2.3-1.5,3.3-2.1c1-0.6,1.8-1.1,2.5-1.4c0.6-0.3,1-0.5,1-0.5l0.1,0.2
				c0,0-0.8,1.4-2.5,3.1c-0.4,0.4-0.9,0.9-1.4,1.3c-0.5,0.5-1.1,0.9-1.7,1.3c-1.2,0.8-2.7,1.5-4.1,2.2c-1.4,0.7-2.8,1.3-4.2,1.9
				c-0.7,0.3-1.3,0.5-2,0.8c-0.6,0.2-1.2,0.4-1.8,0.6c-1.1,0.4-2.1,0.6-2.7,0.8c-0.7,0.2-1,0.3-1,0.3L156.4,165z"/>
		</g>
	</g>
	<g>
		<g>
			<path fill="#FEFDFB" stroke="#D8CABF" stroke-width="2.1643" stroke-miterlimit="10" d="M268.4,198.4c0,0,16.2-6,16.8-18.4
				c0.5-12.4,0.5-22.2,0.5-22.2s2.7-4.3,2.7-11.4s0.5-20-6-28.1c0,0,1.1-13.5-14.1-20c0,0-4.3-12.4-30.3-5.4c0,0-11.9-7.6-23.3-0.5
				c0,0-20.6,8.1-23.3,21.6c0,0-15.1-6.5-19.5,17.3c0,0-23.8,16.8-3.2,27.6c0,0-14.6,16.8-4.3,25.4c0,0-2.8,18.6,11.9,21.1
				c0.8,0.1,3.2,0,3.2,0s-1.6,13.5,19.5,12.4c0,0,23.3,16.8,36.8,1.6c0,0,11.4,1.1,16.2-7.6C252.2,211.9,267.3,207,268.4,198.4z"/>
			<path fill="none" stroke="#E0D5C6" stroke-width="2.1643" stroke-miterlimit="10" d="M180.2,208.5c0,0-3.5-10.8,12.6-23.8
				c18.4-14.8,23.1-22,23.1-22"/>
			<path fill="none" stroke="#E0D5C6" stroke-width="2.1643" stroke-miterlimit="10" d="M268.4,198.4c-31.6,9.7-34.8-5-40.2-18.8
				c-2.8-7.2-1.8-16.2-1.8-16.2s9.4-8.3,22.4-9c6.1-0.3,33.9-12.3,37,3.4"/>
			<path fill="none" stroke="#E0D5C6" stroke-width="2.1643" stroke-miterlimit="10" d="M231.7,223.1c0,0,9.9-4,7.1-25.1"/>
			<path fill="none" stroke="#E0D5C6" stroke-width="2.1643" stroke-miterlimit="10" d="M164.5,156c0,0,5.2,2.7,11.7,3.1
				c0,0,2.2,9.7,33.9,7.2"/>
			<path fill="none" stroke="#E0D5C6" stroke-width="2.1643" stroke-miterlimit="10" d="M191.6,114c0,0,6.3,3.6,10.2,9.9
				c1.5,2.5,11.8,6.7,19.2,18.2"/>
			<path fill="none" stroke="#E0D5C6" stroke-width="2.1643" stroke-miterlimit="10" d="M212.2,93.5c0,0,7.7-4.2,12.3,3.8
				c10.5,18.4-1.3,38.2,5.2,55.3"/>
			<path fill="none" stroke="#E0D5C6" stroke-width="2.1643" stroke-miterlimit="10" d="M259.7,91.7c0,0,17.1,2.4,5.6,27.3"/>
			<g>
				<path fill="#E0D5C6" d="M245.2,175.2c-0.9,0.2-1.9,0.2-2.8,0c-0.5-0.1-0.9-0.2-1.4-0.4c-0.4-0.2-0.9-0.4-1.3-0.6
					c-0.4-0.2-0.8-0.4-1.2-0.7c-0.4-0.3-0.8-0.6-1.1-0.8c-0.4-0.3-0.7-0.6-1.1-0.9c-0.3-0.3-0.7-0.7-1-1c-0.1-0.1-0.3-0.3-0.4-0.4
					l-0.4-0.4c-0.3-0.3-0.6-0.5-0.9-0.7c-0.6-0.4-1.3-0.8-2-1.1c-0.3-0.2-0.7-0.3-1.1-0.4c-0.4-0.1-0.9-0.4-1.3-0.5
					c-0.4-0.2-0.9-0.4-1.3-0.7c-0.2-0.1-0.5-0.3-0.7-0.5c-0.1-0.1-0.2-0.2-0.4-0.3c-0.1-0.1-0.1-0.1-0.2-0.2l-0.1-0.1
					c-0.1-0.1-0.1-0.1-0.3-0.4l-1.7-2.7l3.2-0.2c0.7,0,1.3,0,1.9,0c0.6,0,1.2,0,1.8,0.1c1.2,0.1,2.5,0.4,3.7,0.7
					c0.6,0.2,1.2,0.4,1.8,0.6c0.6,0.3,1.2,0.6,1.8,0.9c0.6,0.3,1.2,0.8,1.6,1.1c0.5,0.4,0.8,0.6,1.3,1c0.9,0.6,1.8,1.2,2.7,1.7
					c1,0.5,1.9,1,3,1.4c1,0.4,2.1,0.8,3.2,1.1c1.1,0.4,2.2,0.6,3.3,1l0,0.2c-2.3-0.2-4.6-0.5-6.8-1.1c-2.2-0.6-4.4-1.5-6.3-2.8
					c-0.5-0.3-1-0.6-1.4-1c-0.5-0.3-0.9-0.7-1.4-0.9c-0.5-0.3-1-0.5-1.5-0.7c-0.5-0.2-1.1-0.4-1.6-0.5c-1.1-0.3-2.2-0.5-3.4-0.6
					c-1.1-0.1-2.3-0.2-3.4-0.2l0.2-0.3c0.2,0.2,0.6,0.5,1,0.7c0.4,0.2,0.8,0.4,1.1,0.6c0.8,0.4,1.6,0.7,2.4,1.1
					c0.8,0.4,1.5,0.9,2.2,1.5c0.7,0.6,1.3,1.2,1.8,1.9c0.5,0.7,1.1,1.3,1.7,1.9c0.3,0.3,0.6,0.6,1,0.9c0.3,0.3,0.7,0.5,1,0.8
					c0.4,0.3,0.7,0.5,1.1,0.7c0.4,0.2,0.8,0.4,1.2,0.5c0.8,0.3,1.7,0.5,2.5,0.4L245.2,175.2z"/>
			</g>
			<g>
				<path fill="#E0D5C6" d="M208.5,189.7c0,0,0.1-0.4,0.3-1c0.2-0.6,0.5-1.5,1-2.6c0.2-0.5,0.5-1.1,0.8-1.6c0.3-0.6,0.6-1.2,0.9-1.8
					c0.4-0.6,0.7-1.2,1.1-1.8c0.4-0.6,0.8-1.2,1.3-1.8c0.5-0.6,1-1.2,1.5-1.7c0.5-0.6,1.1-1.1,1.6-1.5c0.5-0.5,1.1-0.9,1.7-1.3
					c0.6-0.4,1.2-0.7,1.7-0.9c0.3-0.1,0.5-0.2,0.8-0.3c0.3-0.1,0.5-0.2,0.7-0.2c0.5-0.1,0.9-0.2,1.2-0.2c0.3,0,0.6,0,0.8,0
					c0.2,0,0.3,0,0.3,0l0.1,0.2c0,0-0.3,0.1-0.9,0.4c-0.3,0.2-0.6,0.3-1,0.5c-0.4,0.2-0.8,0.5-1.2,0.8c-0.9,0.6-1.9,1.5-2.8,2.4
					c-1,1-1.9,2.1-2.8,3.3c-1.8,2.3-3.4,4.7-4.7,6.5c-1.3,1.8-2.2,3-2.2,3L208.5,189.7z"/>
			</g>
			<g>
				<path fill="#E0D5C6" d="M208.3,180.5c0,0,0-0.2,0-0.6c0-0.2,0-0.4,0.1-0.7c0.1-0.3,0.1-0.6,0.3-0.9c0.2-0.6,0.6-1.3,1-1.9
					c0.2-0.3,0.5-0.6,0.8-0.9c0.3-0.3,0.6-0.6,1-0.8c0.4-0.2,0.7-0.5,1.1-0.7c0.4-0.2,0.7-0.4,1.1-0.5c0.8-0.3,1.5-0.4,2.1-0.4
					c0.3,0,0.6,0,0.9,0c0.3,0,0.5,0.1,0.7,0.1c0.4,0.1,0.6,0.2,0.6,0.2l0.1,0.2c0,0-0.7,0.2-1.8,0.7c-1,0.5-2.4,1.2-3.6,2.1
					c-1.2,0.9-2.3,1.9-3.1,2.8c-0.8,0.8-1.2,1.5-1.2,1.5L208.3,180.5z"/>
			</g>
			<g>
				<path fill="#E0D5C6" d="M179.5,176.1c0,0,0.1-0.1,0.2-0.3c0.1-0.2,0.3-0.5,0.6-0.9c0.3-0.4,0.7-0.8,1.1-1.3
					c0.2-0.2,0.5-0.5,0.8-0.7c0.3-0.2,0.6-0.5,0.9-0.7c0.7-0.5,1.4-0.9,2.3-1.3c0.8-0.4,1.7-0.8,2.7-1.1c1-0.3,1.9-0.6,2.9-0.8
					c1-0.2,2-0.4,3.1-0.5c1-0.1,2-0.2,3-0.3c1-0.1,1.9-0.1,2.8-0.2c0.9-0.1,1.8-0.2,2.6-0.2c0.8-0.1,1.6-0.2,2.3-0.3
					c0.7-0.1,1.4-0.2,2-0.3c0.6-0.1,1.1-0.2,1.5-0.3c0.9-0.2,1.4-0.4,1.4-0.4l0.1,0.2c0,0-0.1,0.1-0.3,0.2c-0.2,0.1-0.5,0.3-0.9,0.5
					c-0.4,0.2-0.9,0.4-1.4,0.7c-0.6,0.2-1.2,0.5-1.9,0.7c-1.4,0.5-3.2,0.9-5,1.2c-1.9,0.3-3.9,0.5-5.9,0.8c-2,0.2-4,0.5-5.8,1
					c-1.8,0.4-3.5,1-4.8,1.7c-0.7,0.3-1.3,0.7-1.8,1c-0.5,0.3-0.9,0.7-1.3,0.9c-0.3,0.3-0.6,0.5-0.8,0.7c-0.2,0.2-0.3,0.2-0.3,0.2
					L179.5,176.1z"/>
			</g>
			<g>
				<path fill="#E0D5C6" d="M183.2,143.5c0,0,0.2-0.1,0.5-0.3c0.3-0.2,0.8-0.4,1.4-0.6c1.2-0.4,2.8-0.4,4.3-0.1
					c1.5,0.3,2.9,1,3.9,1.8c0.5,0.4,0.8,0.8,1.1,1.1c0.2,0.3,0.4,0.5,0.4,0.5l-0.1,0.2c0,0-0.7-0.2-1.8-0.5c-1.1-0.3-2.5-0.7-3.9-1
					c-1.4-0.3-2.9-0.6-4-0.7c-1.1-0.1-1.8-0.2-1.8-0.2L183.2,143.5z"/>
			</g>
			<g>
				<path fill="#E0D5C6" d="M187.3,134.8c0,0,0.3,0,0.7,0c0.4,0,1,0.1,1.7,0.3c0.7,0.2,1.4,0.5,2.1,0.9c0.4,0.2,0.7,0.4,1.1,0.7
					c0.4,0.2,0.7,0.5,1,0.8c0.6,0.6,1.2,1.2,1.7,1.9c0.5,0.7,0.9,1.4,1.1,2c0.3,0.6,0.4,1.2,0.5,1.6c0.1,0.4,0.1,0.7,0.1,0.7
					l-0.2,0.1c0,0-0.6-0.6-1.4-1.5c-0.9-0.9-2-2.1-3.3-3.2c-1.2-1.1-2.5-2.2-3.5-2.9c-1-0.8-1.7-1.2-1.7-1.2L187.3,134.8z"/>
			</g>
			<g>
				<path fill="#E0D5C6" d="M207.7,120.2c0,0,0.2,0.2,0.4,0.7c0.2,0.5,0.6,1,0.9,1.6c0.2,0.3,0.4,0.7,0.6,1c0.2,0.4,0.4,0.7,0.6,1.1
					c0.2,0.4,0.5,0.8,0.7,1.1c0.2,0.4,0.5,0.8,0.7,1.2c0.2,0.4,0.4,0.8,0.7,1.2c0.2,0.4,0.5,0.8,0.7,1.1c0.3,0.3,0.4,0.7,0.7,1.1
					c0.2,0.3,0.4,0.7,0.6,1c0.4,0.6,0.7,1.2,1,1.6c0.3,0.4,0.4,0.7,0.4,0.7l-0.1,0.2c0,0-0.2-0.1-0.6-0.4c-0.2-0.1-0.4-0.3-0.7-0.4
					c-0.3-0.2-0.6-0.4-0.8-0.6c-0.3-0.2-0.6-0.5-0.9-0.8c-0.3-0.3-0.6-0.7-1-1c-0.6-0.7-1.3-1.6-1.8-2.4c-0.5-0.9-1-1.8-1.3-2.7
					c-0.2-0.5-0.3-0.9-0.4-1.3c-0.1-0.4-0.2-0.8-0.3-1.2c-0.2-0.8-0.2-1.4-0.2-1.9c0-0.4,0-0.7,0-0.7L207.7,120.2z"/>
			</g>
			<g>
				<path fill="#E0D5C6" d="M213.9,115c0,0,0,0.1-0.1,0.3c0,0.2-0.1,0.5-0.2,0.9c-0.1,0.4-0.1,0.8-0.1,1.3c0,0.5,0,1.1,0,1.7
					c0.1,0.6,0.1,1.3,0.3,2c0.1,0.7,0.3,1.4,0.5,2.1c0.2,0.7,0.5,1.5,0.7,2.2c0.3,0.8,0.6,1.5,0.9,2.3c0.4,0.8,0.7,1.6,1.1,2.4
					c0.4,0.8,0.7,1.6,1.1,2.3c0.4,0.8,0.6,1.5,0.9,2.3c0.3,0.7,0.5,1.5,0.7,2.1c0.2,0.7,0.3,1.3,0.4,1.9c0.1,0.6,0.1,1.1,0.2,1.5
					c0,0.4,0,0.7,0,1c0,0.2,0,0.3,0,0.3l-0.2,0.1c0,0-0.1-0.4-0.4-1.2c-0.2-0.7-0.6-1.8-1.2-3c-0.6-1.2-1.3-2.6-2.1-4.1
					c-0.8-1.5-1.7-3-2.4-4.7c-0.7-1.7-1.3-3.4-1.6-5c-0.3-1.7-0.3-3.3-0.2-4.6c0-0.3,0.1-0.7,0.2-1c0.1-0.3,0.1-0.6,0.2-0.9
					c0.2-0.5,0.3-1,0.5-1.3c0.2-0.4,0.3-0.6,0.4-0.8c0.1-0.2,0.2-0.3,0.2-0.3L213.9,115z"/>
			</g>
			<g>
				<path fill="#E0D5C6" d="M228.4,147.5c0,0-0.1-0.2-0.2-0.5c-0.1-0.3-0.4-0.7-0.5-1.3c-0.2-0.6-0.4-1.4-0.6-2.2
					c-0.1-0.4-0.1-0.9-0.2-1.4c0-0.5,0-1-0.1-1.6c0-1.1,0.1-2.3,0.3-3.5c0.2-1.2,0.5-2.5,0.9-3.8c0.4-1.3,0.9-2.6,1.5-3.9
					c0.6-1.3,1.2-2.6,1.9-3.8c0.7-1.2,1.4-2.4,2.1-3.6c0.7-1.2,1.4-2.3,2-3.4c0.6-1.1,1.3-2.2,1.8-3.2c0.5-1,1-2,1.5-2.9
					c0.4-0.9,0.8-1.8,1.1-2.5c0.3-0.8,0.6-1.5,0.7-2c0.4-1.1,0.6-1.8,0.6-1.8l0.2,0c0,0,0,0.2,0,0.5c0,0.3-0.1,0.8-0.2,1.4
					c-0.1,0.6-0.2,1.3-0.4,2.2c-0.2,0.8-0.5,1.8-0.8,2.7c-0.7,2-1.6,4.2-2.8,6.6c-1.2,2.3-2.5,4.7-3.9,7.2c-1.3,2.4-2.5,4.9-3.4,7.4
					c-0.4,1.2-0.8,2.4-1.1,3.6c-0.3,1.1-0.5,2.3-0.6,3.3c-0.1,0.5-0.1,1-0.1,1.5c0,0.5,0,0.9,0,1.3c0,0.8,0.1,1.6,0.2,2.2
					c0.1,0.6,0.2,1.1,0.3,1.4c0.1,0.3,0.1,0.5,0.1,0.5L228.4,147.5z"/>
			</g>
			<g>
				<path fill="#E0D5C6" d="M229.2,156.5c0,0,0.2-0.6,0.6-1.5c0.2-0.5,0.5-1.1,0.9-1.7c0.2-0.3,0.4-0.7,0.6-1
					c0.2-0.3,0.5-0.7,0.8-1.1c0.3-0.4,0.6-0.8,0.9-1.1c0.3-0.4,0.7-0.7,1.1-1.1c0.7-0.8,1.5-1.5,2.4-2.3c0.9-0.7,1.8-1.5,2.7-2.2
					c1-0.7,1.9-1.4,2.9-2c1.9-1.3,3.9-2.5,5.7-3.7c0.9-0.6,1.8-1.2,2.5-1.8c0.8-0.6,1.6-1.1,2.2-1.7c0.3-0.3,0.7-0.5,1-0.8
					c0.3-0.3,0.6-0.5,0.8-0.7c0.5-0.5,1-0.9,1.3-1.3c0.7-0.7,1.2-1.2,1.2-1.2l0.2,0.1c0,0-0.3,0.5-0.9,1.4c-0.3,0.5-0.6,1-1.1,1.5
					c-0.2,0.3-0.5,0.6-0.7,0.9c-0.3,0.3-0.6,0.6-0.9,0.9c-0.6,0.7-1.3,1.3-2.1,2c-0.8,0.7-1.6,1.3-2.5,2c-1.8,1.4-3.7,2.7-5.7,4
					c-2,1.3-3.9,2.6-5.7,3.9c-0.9,0.7-1.7,1.3-2.5,2c-0.8,0.7-1.5,1.3-2.1,1.9c-0.3,0.3-0.6,0.6-0.9,0.9c-0.3,0.3-0.5,0.6-0.7,0.9
					c-0.5,0.5-0.9,1-1.1,1.5c-0.6,0.8-0.9,1.3-0.9,1.3L229.2,156.5z"/>
			</g>
			<g>
				<path fill="#E0D5C6" d="M230.5,157.5c0,0,0.2-0.3,0.6-0.8c0.2-0.2,0.4-0.5,0.7-0.8c0.3-0.3,0.6-0.7,1-1c0.4-0.4,0.8-0.7,1.3-1.1
					c0.5-0.4,1-0.7,1.5-1.1c0.6-0.3,1.1-0.7,1.7-1c0.6-0.3,1.2-0.6,1.8-0.9c0.6-0.2,1.3-0.5,1.9-0.7c0.6-0.2,1.3-0.4,1.9-0.5
					c0.6-0.2,1.2-0.2,1.8-0.3c0.6-0.1,1.1-0.1,1.7-0.1c0.5,0,1,0,1.4,0c0.4,0,0.8,0,1.1,0.1c0.6,0.1,1,0.2,1,0.2l0,0.2
					c0,0-1.3,0.3-3.2,0.8c-1.9,0.5-4.4,1.4-6.9,2.4c-2.4,1-4.8,2.2-6.5,3.2c-1.7,1-2.8,1.7-2.8,1.7L230.5,157.5z"/>
			</g>
			<path fill="#FEFDFB" stroke="#E0D5C6" stroke-width="2.1643" stroke-miterlimit="10" d="M229.6,149.7c0,0-0.4-13.4,7.6-21.7
				c7.9-8.3,18.2-24.5,29.3-16.2c0,0,10-0.7,16,6.5"/>
			<g>
				<path fill="#E0D5C6" d="M231.1,150.5c0,0,0-0.2,0-0.5c0-0.3,0-0.7,0.1-1c0.1-0.8,0.3-1.5,0.7-2.2c0.4-0.6,0.9-1.2,1.6-1.7
					c0.3-0.2,0.6-0.4,0.8-0.6c0.2-0.2,0.4-0.2,0.4-0.2l0.2,0c0,0,0,0.1,0,0.3c0,0.2-0.1,0.5-0.2,0.9c-0.2,0.7-0.5,1.6-1,2.4
					c-0.5,0.8-1.1,1.6-1.6,2c-0.3,0.3-0.5,0.4-0.7,0.6c-0.2,0.1-0.3,0.2-0.3,0.2L231.1,150.5z"/>
			</g>
		</g>
	</g>
	<g>
		<path fill="#D7DF23" stroke="#9E9A07" stroke-width="2.1643" stroke-miterlimit="10" d="M193.9,156.5c0,0,6.5,2.5,10.8,6.9
			c4.3,4.3,11.5,16.6,23.8,5.4c0,0,2.9-4.7,2.9-11.2c0,0,3.6-2.2,3.2-7.2c-0.4-5-7.6-8-13.3-10.5c-5-2.2-9.4-7.9-9.4-7.9l-13.7,4.3
			l-5.8,10.5L193.9,156.5z"/>
		<g>
			<path fill="#D7DF23" d="M203.7,159.5c2.3,0.3,4.1,1.9,5.7,3.6s3.2,3.4,5.3,4.2"/>
			<path fill="#9E9A07" d="M203.8,159.4c0,0,0.2,0,0.6,0c0.4,0,0.9,0.2,1.6,0.4c1.3,0.4,2.8,1.5,4.1,2.7c0.6,0.6,1.4,1.1,1.9,1.6
				c0.6,0.5,1,1.1,1.4,1.5c0.4,0.5,0.8,0.9,1,1.1c0.3,0.3,0.4,0.5,0.4,0.5l-0.1,0.2c0,0-0.2,0-0.7,0c-0.4,0-1-0.2-1.7-0.4
				c-0.6-0.3-1.3-0.7-1.9-1.3c-0.6-0.6-1.1-1.3-1.6-2c-1.1-1.3-2.2-2.5-3.2-3.2c-0.5-0.3-1-0.6-1.3-0.7c-0.3-0.1-0.6-0.2-0.6-0.2
				L203.8,159.4z"/>
		</g>
		<g>
			<path fill="#D7DF23" d="M207.7,156.8c2.1,0.7,3.8,2.3,5.5,3.8c1.7,1.4,3.7,2.8,5.9,2.9"/>
			<path fill="#9E9A07" d="M207.8,156.7c0,0,0.2,0,0.6,0.1c0.4,0.1,0.9,0.3,1.5,0.6c1.2,0.5,2.6,1.6,4,2.5c0.7,0.5,1.4,0.8,2,1.2
				c0.6,0.4,1.1,0.8,1.6,1.1c0.2,0.2,0.5,0.3,0.7,0.4c0.2,0.1,0.4,0.2,0.6,0.3c0.3,0.2,0.5,0.3,0.5,0.3l0,0.2c0,0-0.2,0.1-0.6,0.2
				c-0.2,0.1-0.5,0.1-0.8,0.1c-0.3,0-0.6,0-1,0c-0.7-0.1-1.5-0.4-2.2-0.8c-0.7-0.5-1.3-1.2-1.9-1.8c-1.2-1.2-2.3-2.4-3.3-3.2
				c-0.5-0.4-0.9-0.7-1.2-0.9c-0.3-0.2-0.5-0.3-0.5-0.3L207.8,156.7z"/>
		</g>
		<g>
			<path fill="#D7DF23" d="M210.6,154.8c1.8,0.7,3.4,2,4.5,3.7"/>
			<path fill="#9E9A07" d="M210.6,154.7c0,0,0.4,0,1,0.1c0.6,0.1,1.3,0.4,2.1,0.8c0.3,0.2,0.8,0.3,1.1,0.6c0.3,0.3,0.4,0.6,0.5,0.9
				c0.2,0.6,0,1.2,0,1.2l-0.2,0.1c0,0-0.2,0-0.4,0c-0.2,0-0.5-0.1-0.8-0.2c-0.3-0.1-0.5-0.2-0.8-0.5c-0.2-0.2-0.3-0.6-0.5-0.8
				c-0.4-0.5-0.9-1.1-1.3-1.4c-0.4-0.4-0.7-0.6-0.7-0.6L210.6,154.7z"/>
		</g>
		<g>
			<path fill="#D7DF23" d="M213.4,153.1c1.3,0.4,2.4,1.1,3.3,2.1"/>
			<path fill="#9E9A07" d="M213.4,153c0,0,0.3-0.1,0.7,0c0.4,0,1,0.1,1.5,0.3c0.3,0.1,0.6,0.1,0.8,0.3c0.2,0.2,0.3,0.4,0.4,0.7
				c0.1,0.5-0.1,1-0.1,1l-0.2,0.1c0,0-0.5,0.1-0.9,0.1c-0.2,0-0.4,0-0.6-0.2c-0.1-0.1-0.2-0.4-0.3-0.6c-0.3-0.4-0.6-0.7-0.9-1
				c-0.3-0.3-0.5-0.5-0.5-0.5L213.4,153z"/>
		</g>
		<g>
			<path fill="#D7DF23" d="M218.5,144.6c1.6,1.9,3.9,3.1,5.9,4.5c2,1.4,3.9,3.3,4.4,5.7"/>
			<path fill="#9E9A07" d="M218.6,144.5c0,0,0.7,0.6,1.8,1.4c1.2,0.7,2.8,1.5,4.4,2.5c0.8,0.5,1.7,1,2.4,1.6
				c0.7,0.7,1.2,1.5,1.4,2.2c0.1,0.4,0.2,0.7,0.3,1c0,0.3,0.1,0.6,0,0.8c0,0.5-0.1,0.7-0.1,0.7l-0.2,0c0,0-0.2-0.2-0.4-0.5
				c-0.1-0.2-0.3-0.3-0.5-0.5c-0.2-0.2-0.4-0.4-0.6-0.6c-0.5-0.4-1-0.9-1.5-1.5c-0.6-0.6-1.1-1.3-1.8-1.8c-1.4-1.1-2.9-2.3-3.9-3.3
				c-0.5-0.5-0.9-0.9-1.1-1.3c-0.3-0.3-0.4-0.5-0.4-0.5L218.6,144.5z"/>
		</g>
		<g>
			<path fill="#D7DF23" d="M219.1,139.4c3,1.6,5.6,3.9,7.6,6.6"/>
			<path fill="#9E9A07" d="M219.2,139.3c0,0,0.6,0.2,1.5,0.6c0.5,0.2,1,0.4,1.5,0.7c0.5,0.3,1.1,0.7,1.6,1c0.5,0.4,1.1,0.7,1.6,1.2
				c0.4,0.5,0.7,1,0.9,1.4c0.4,0.9,0.4,1.7,0.4,1.7l-0.2,0.1c0,0-0.2-0.1-0.5-0.2c-0.3-0.1-0.7-0.3-1.1-0.6c-0.4-0.3-0.8-0.6-1.2-1
				c-0.4-0.4-0.7-1-1.1-1.4c-0.8-0.9-1.7-1.8-2.4-2.4c-0.7-0.6-1.2-1-1.2-1L219.2,139.3z"/>
		</g>
		<g>
			<path fill="#D7DF23" d="M209,167.2c3.3,2.8,8,3.9,12.2,2.9"/>
			<path fill="#9E9A07" d="M209.1,167.2c0,0,0.2,0.1,0.5,0.3c0.3,0.2,0.7,0.4,1.3,0.7c1.1,0.5,2.6,1,4.1,1.2c0.8,0.1,1.5,0,2.2,0.1
				c0.7,0,1.3,0.1,1.9,0.2c0.6,0.1,1.1,0.2,1.5,0.3c0.4,0.1,0.6,0.2,0.6,0.2l0.1,0.2c0,0-0.7,0.7-2,1.1c-0.3,0.1-0.7,0.2-1,0.2
				c-0.4,0.1-0.8,0.1-1.2,0.1c-0.8-0.1-1.7-0.4-2.5-0.6c-0.8-0.3-1.6-0.6-2.3-1c-0.3-0.2-0.7-0.4-1-0.6c-0.3-0.2-0.6-0.4-0.8-0.6
				c-0.5-0.4-0.9-0.8-1.1-1c-0.2-0.3-0.4-0.4-0.4-0.4L209.1,167.2z"/>
		</g>
	</g>
	<g>
		<path fill="#FCFC83" stroke="#C9C659" stroke-width="2.1643" stroke-miterlimit="10" d="M208.1,135.7c-0.2,0-0.3,0-0.5,0
			c-3.3-0.2-6.6,0.8-9.1,2.9c-2.5,2.1-4,5.4-3.7,8.7c0.2,2.9,2,5.7,4.5,7c5.4-0.1,10.7-3.2,13.5-7.8c1.5-2.4,2.3-5.7,0.7-8
			C212.4,136.7,210.2,135.9,208.1,135.7z"/>
		<g>
			<path fill="#FCFC83" d="M205.1,144.8c2,0.7,3.8,1.9,5.2,3.5"/>
			<path fill="#C9C659" d="M205.2,144.7c0,0,0.4,0,1,0.1c0.6,0.1,1.5,0.3,2.2,0.7c0.4,0.2,0.8,0.3,1.2,0.5c0.3,0.3,0.5,0.6,0.6,0.9
				c0.3,0.6,0.2,1.3,0.2,1.3l-0.2,0.1c0,0-0.2,0-0.4,0c-0.2,0-0.5-0.1-0.8-0.2c-0.3-0.1-0.6-0.2-0.9-0.4c-0.3-0.2-0.4-0.6-0.7-0.9
				c-0.5-0.5-1.1-1-1.6-1.4c-0.5-0.4-0.8-0.6-0.8-0.6L205.2,144.7z"/>
		</g>
	</g>
	<g>
		
			<use xlink:href="#New_Symbol_4"  width="1.6" height="2" id="XMLID_5_" x="-0.8" y="-1" transform="matrix(4.3285 0 0 -4.276 214.4186 149.9802)" overflow="visible"/>
		
			<use xlink:href="#New_Symbol_4"  width="1.6" height="2" id="XMLID_3_" x="-0.8" y="-1" transform="matrix(3.6811 2.2773 2.2496 -3.6364 215.2432 145.1541)" overflow="visible"/>
		
			<use xlink:href="#New_Symbol_4"  width="1.6" height="2" id="XMLID_4_" x="-0.8" y="-1" transform="matrix(4.3285 0 0 -4.276 215.2251 141.8159)" overflow="visible"/>
		
			<use xlink:href="#New_Symbol_4"  width="1.6" height="2" x="-0.8" y="-1" transform="matrix(2.7837 -3.2744 -3.3147 -2.7499 213.2546 137.9694)" overflow="visible"/>
		
			<use xlink:href="#New_Symbol_4"  width="1.6" height="2" x="-0.8" y="-1" transform="matrix(4.097 -1.2983 -1.3504 -4.0897 213.64 135.2203)" overflow="visible"/>
		
			<use xlink:href="#New_Symbol_4"  width="1.6" height="2" x="-0.8" y="-1" transform="matrix(4.097 -1.2983 -1.3504 -4.0897 214.2353 138.4869)" overflow="visible"/>
		
			<use xlink:href="#New_Symbol_4"  width="1.6" height="2" x="-0.8" y="-1" transform="matrix(3.255611e-02 -4.3284 -4.3284 -3.255611e-02 208.7081 134.3572)" overflow="visible"/>
		
			<use xlink:href="#New_Symbol_4"  width="1.6" height="2" id="XMLID_11_" x="-0.8" y="-1" transform="matrix(3.6615 2.3086 2.3086 -3.6615 210.8136 152.5886)" overflow="visible"/>
		
			<use xlink:href="#New_Symbol_4"  width="1.6" height="2" x="-0.8" y="-1" transform="matrix(1.8765 3.9006 3.9006 -1.8765 205.0694 154.8372)" overflow="visible"/>
		
			<use xlink:href="#New_Symbol_4"  width="1.6" height="2" x="-0.8" y="-1" transform="matrix(-0.6757 4.2755 4.2755 0.6757 200.2277 155.9977)" overflow="visible"/>
		
			<use xlink:href="#New_Symbol_4"  width="1.6" height="2" x="-0.8" y="-1" transform="matrix(-3.8287 2.262 2.2017 3.7267 195.739 153.8111)" overflow="visible"/>
		
			<use xlink:href="#New_Symbol_4"  width="1.6" height="2" x="-0.8" y="-1" transform="matrix(-3.9977 0.8432 0.8934 4.2353 193.4978 148.7048)" overflow="visible"/>
		
			<use xlink:href="#New_Symbol_4"  width="1.6" height="2" x="-0.8" y="-1" transform="matrix(-3.8821 -1.2736 -1.3493 4.1129 193.6418 144.932)" overflow="visible"/>
		
			<use xlink:href="#New_Symbol_4"  width="1.6" height="2" x="-0.8" y="-1" transform="matrix(-3.42 -2.2352 -2.3681 3.6233 195.4967 139.2645)" overflow="visible"/>
		
			<use xlink:href="#New_Symbol_4"  width="1.6" height="2" x="-0.8" y="-1" transform="matrix(-1.8257 -3.6551 -3.8723 1.9342 201.2508 134.8923)" overflow="visible"/>
		
			<use xlink:href="#New_Symbol_4"  width="1.6" height="2" x="-0.8" y="-1" transform="matrix(0.2111 -4.0802 -4.3227 -0.2237 204.6221 134.0466)" overflow="visible"/>
	</g>
</g>
</svg>
