<?xml version="1.0" encoding="utf-8"?>
<!-- Generator: Adobe Illustrator 18.1.1, SVG Export Plug-In . SVG Version: 6.00 Build 0)  -->
<svg version="1.1" id="Layer_1" xmlns="http://www.w3.org/2000/svg" xmlns:xlink="http://www.w3.org/1999/xlink" x="0px" y="0px" width="500px" height="500px" viewBox="0 0 500 500" enable-background="new 0 0 500 500" xml:space="preserve"><clipPath id="XMLID_9_">
			<use xlink:href="#XMLID_740_" overflow="visible"/>
		</clipPath><clipPath id="XMLID_8_">
			<use xlink:href="#XMLID_744_" overflow="visible"/>
		</clipPath><clipPath id="SVGID_4_">
			<use xlink:href="#SVGID_3_" overflow="visible"/>
		</clipPath><clipPath id="XMLID_7_">
			<use xlink:href="#XMLID_796_" overflow="visible"/>
		</clipPath><clipPath id="XMLID_6_">
			<use xlink:href="#XMLID_799_" overflow="visible"/>
		</clipPath><clipPath id="XMLID_5_">
			<use xlink:href="#XMLID_764_" overflow="visible"/>
		</clipPath><clipPath id="XMLID_4_">
			<use xlink:href="#XMLID_768_" overflow="visible"/>
		</clipPath><clipPath id="SVGID_2_">
			<use xlink:href="#SVGID_1_" overflow="visible"/>
		</clipPath><clipPath id="XMLID_3_">
			<use xlink:href="#XMLID_789_" overflow="visible"/>
		</clipPath><clipPath id="XMLID_2_">
			<use xlink:href="#XMLID_792_" overflow="visible"/>
		</clipPath>
<symbol id="New_Symbol_5" viewBox="-23.4 -11.8 46.9 23.6">
	<g id="XMLID_791_">
		<defs>
			<path id="XMLID_792_" d="M14-2.8c-0.6-0.3-1.2-0.5-1.8-0.7c0-0.3,0.1-0.5,0.2-0.8c0.2-0.5,0.4-1.1,0.7-1.5
				c-0.1-0.7-0.4-1.5-0.7-2.2c0,0-0.1-0.2-0.1-0.2c-0.3-0.4-0.5-0.9-0.7-1.4c0.1-0.1,0.2-0.1,0.3-0.2c0,0,0.1,0,0.1,0
				C12-9.6,12.1-9.2,12.3-9l-0.2-0.9c0.2,0,0.3,0,0.5,0c0.4,0,0.8,0.1,1.3,0.1c0.2,0.4,0.3,0.8,0.3,1.2c0.2,0.6,0.5,1.2,0.8,1.7
				c0.2,0.3,0.4,0.6,0.5,0.9c0.1,0.2,0.1,0.4,0.1,0.6C14.9-4.6,14.4-3.7,14-2.8z"/>
		</defs>
		<use xlink:href="#XMLID_792_" overflow="visible" fill="#FBD6D7"/>
		
		
			<path id="XMLID_793_" clip-path="url(#XMLID_2_)" fill="#7F5B5E" stroke="#A9878C" stroke-width="0.35" stroke-miterlimit="10" d="
			M11.8-8.4c-0.3-0.5-0.5-1-0.6-1.5c0.9-0.3,1.9-0.4,2.8-0.2c0.3,0.5,0.5,1.1,0.6,1.6c-0.7-0.1-1.4-0.1-2,0c-0.1,0-0.3,0-0.4,0.1
			c-0.1,0-0.1,0.1-0.2,0.2C11.9-8.3,11.8-8.3,11.8-8.4z"/>
		<use xlink:href="#XMLID_792_" overflow="visible" fill="none" stroke="#C57D80" stroke-width="0.35" stroke-miterlimit="10"/>
	</g>
	<g id="XMLID_788_">
		<defs>
			<path id="XMLID_789_" d="M-5.6-1.4C-6.1-1.5-6.5-1.6-7-1.8c-0.4-0.1-0.7-0.3-1-0.5c-0.1-1.5,0.2-3.1,1-4.5
				c-0.1-0.8-0.4-1.5-0.8-2.1c-0.4-0.3-0.7-0.8-0.9-1.2c0.1-0.1,0.1-0.1,0.2-0.2c0,0,0.1,0,0.1,0c0.1,0.2,0.3,0.6,0.5,0.9l-0.4-0.9
				c0.1,0,0.3,0,0.4-0.1c0.3,0,0.7-0.1,1-0.1c0.3,0.2,0.6,0.3,0.9,0.6C-5.4-8.8-5-7.5-4.7-6.3C-5-4.7-5.3-3-5.6-1.4z"/>
		</defs>
		<use xlink:href="#XMLID_789_" overflow="visible" fill="#FBD6D7"/>
		
		
			<path id="XMLID_790_" clip-path="url(#XMLID_3_)" fill="#7F5B5E" stroke="#A9878C" stroke-width="0.35" stroke-miterlimit="10" d="
			M-8.1-8.6C-8-8.5-7.9-8.4-7.8-8.3C-8-8.5-8.5-9.5-5.1-9.1c-0.1-0.6-0.5-1-0.9-1.5c-1-0.4-2.2-0.2-3.1,0.4
			C-8.8-9.6-8.5-9.1-8.1-8.6z"/>
		<use xlink:href="#XMLID_789_" overflow="visible" fill="none" stroke="#C57D80" stroke-width="0.35" stroke-miterlimit="10"/>
	</g>
	<path id="XMLID_785_" fill="#FBD6D7" stroke="#C57D80" stroke-width="0.35" stroke-miterlimit="10" d="M23.1,9.7
		c-0.1,0.3-0.3,0.6-0.5,0.9c0,0.1-0.1,0-0.1-0.1l0,0c0.1-0.3,0.2-0.5,0.3-0.8c0-0.2,0.1-0.5-0.1-0.7c0-0.1-0.1-0.1-0.1-0.1
		c-0.2-0.1-0.4,0-0.6,0.1c-0.2,0.6-0.6,1.2-1.1,1.6c-0.2,0.1-0.4,0.2-0.6,0.3c-0.2,0-0.5-0.1-0.6-0.3c-0.1-0.1-0.1-0.2-0.1-0.4
		c0-1,0.7-1.8,1.8-2.1c-0.3-0.4-0.7-0.6-1.2-0.6c0,0,0,0-0.1,0c-0.5,0-1.1,0.3-1.6,0.5c0.2-0.4,0.4-0.9,0.5-1.3
		c0.6-0.2,1.3-0.3,1.9-0.1c0.6,0.2,1.1,0.8,1.1,1.5c0.3-0.1,0.6-0.1,0.8,0.1c0.3,0.2,0.5,0.5,0.5,0.8C23.3,9.1,23.2,9.4,23.1,9.7z
		 M21.3,8.7C21,8.8,20.7,9,20.5,9.2c-0.2,0.2-0.4,0.5-0.3,0.8c0,0.1,0,0.1,0.1,0.2c0.1,0.1,0.3,0,0.4-0.1c0.4-0.4,0.6-0.8,0.7-1.4
		L21.3,8.7z"/>
	<g>
		<defs>
			<path id="SVGID_1_" d="M19.3,7.7c-0.8,1.2-1.9,2.2-3.1,2.9c-0.4,0.2-0.8,0.4-1.2,0.5c-2,0.7-4.2,0.7-6.2,0
				c-3.7,0.5-7.6,0.3-11.3-0.6c-1.4,0-2.5,0.1-3.9-0.2c-0.8-0.2-1.4-0.5-2-0.8c-0.7-0.1-1.3-0.2-2-0.4c-2.4,0.4-4.9-0.1-7-1.5
				C-18,7.1-18.6,6.5-19,5.7c-0.5-1-0.6-2.1-0.3-3.1c-0.5-1-1.3-1.9-2.3-2.4c-0.4,0.2-1-0.1-1-0.6c0.5-0.4,1-0.8,1.5-1.1
				c0.3-0.2,0.7-0.3,1-0.1c0.8-0.1,1.5,0.3,2,0.9c-0.1-0.1,0-0.3,0-0.4c-0.5-0.2-0.9-0.6-1.1-1.1c0.6,0.1,1.3,0.2,1.9,0.6
				c1.2-0.3,2.8,0,3.6,0.3c0.7-0.2,1.3-0.3,2-0.2l0,0c1.1-0.5,2.3-1,3.3-0.8c1.4-1.2,3.5-0.8,3.5-0.8c1.4,0.5,0,0.1,1.5-0.4
				c0,0,0.4-0.1,0.9-0.3c5.6-2.3,13-1.9,18.4,0.9c0.6,0.3,1,0.7,1.3,1.3c1.4,2.4,2.2,5.2,2.4,8C19.7,6.8,19.6,7.3,19.3,7.7z"/>
		</defs>
		<use xlink:href="#SVGID_1_" overflow="visible" fill="#FBD6D7"/>
		
		<g clip-path="url(#SVGID_2_)">
			<g id="XMLID_783_">
				<path fill="#F7BBBB" d="M-19.7-1.9c0-0.2,0-0.3-0.1-0.5c-1.4,0.2-2.6,1-3.5,2.1c0.3,0.5,0.9,0.9,1.5,0.9c0-0.5,0.4-0.8,0.7-1.1
					c0.4-0.2,0.8-0.4,1.1-0.7C-19.8-1.4-19.7-1.7-19.7-1.9z"/>
				<path fill="#EAACAF" d="M-19.7-1.9c0-0.2,0-0.3-0.1-0.5l0,0l0,0c-0.2,0-0.4,0-0.5,0c-0.2,0-0.4,0.1-0.5,0.1
					c-0.3,0.1-0.7,0.3-1,0.5c-0.6,0.4-1.2,0.8-1.6,1.4l-0.1,0.1l0.1,0.1c0.3,0.6,0.9,1,1.6,1l0.2,0l0-0.2c0-0.2,0.1-0.4,0.3-0.6
					c0.2-0.2,0.4-0.3,0.7-0.5c0.2-0.1,0.5-0.3,0.7-0.5C-19.8-1.3-19.7-1.6-19.7-1.9z M-19.7-1.9c0,0.3-0.2,0.5-0.5,0.7
					c-0.2,0.1-0.5,0.2-0.7,0.4c-0.2,0.1-0.5,0.3-0.7,0.5C-21.8-0.1-22,0.2-22,0.5l0.2-0.2c-0.5,0-1.1-0.3-1.3-0.8l0,0.2
					c0.4-0.5,0.9-1,1.5-1.3c0.3-0.2,0.6-0.3,0.9-0.4c0.3-0.1,0.6-0.3,0.9-0.4l0,0C-19.7-2.3-19.6-2.1-19.7-1.9z"/>
			</g>
			<g id="XMLID_781_">
				<path fill="#FBD6D7" d="M-10.1,7.4c-0.8-1.1-1.3-2.4-1.1-3.8"/>
				<path fill="#F7BBBB" d="M-10.1,7.4c0,0-0.1-0.2-0.3-0.6c-0.2-0.3-0.4-0.8-0.5-1.3c-0.2-0.5-0.2-1-0.3-1.3c0-0.4-0.1-0.6-0.1-0.6
					s-0.1,0.2-0.1,0.6c0,0.4,0,0.9,0.1,1.4c0.2,0.5,0.4,1,0.6,1.3C-10.3,7.3-10.1,7.4-10.1,7.4z"/>
			</g>
			<g id="XMLID_779_">
				<path fill="#FBD6D7" d="M-18.2-0.9c0.3-0.2,0.5-0.1,0.7,0.1s0.2,0.4,0.1,0.6"/>
				<path fill="#C57D80" d="M-18.1-0.9c0,0,0.1,0,0.2,0.1c0.1,0,0.1,0.1,0.1,0.1c0,0,0.1,0,0.1,0.1c0,0,0,0.1,0,0c0,0,0,0,0,0
					c0,0,0.1,0.1,0.1,0.2c0,0.1,0.1,0.1,0.1,0.1c0,0,0.1,0.1,0.1,0.1l0,0c0,0,0-0.1,0-0.2c0-0.1,0-0.3-0.2-0.5C-17.6-1-17.8-1-18-1
					C-18.1-0.9-18.2-0.9-18.1-0.9L-18.1-0.9z"/>
			</g>
			<g id="XMLID_777_">
				<path fill="#FBD6D7" d="M-18.2,4.9c0.2,0.1,0.5,0,0.7-0.1c0.2-0.1,0.4-0.4,0.5-0.6"/>
				<path fill="#F7BBBB" d="M-18.2,4.9c0,0,0.1,0.1,0.2,0.1c0.2,0,0.4,0,0.6-0.1c0.1-0.1,0.2-0.1,0.2-0.2c0.1-0.1,0.1-0.2,0.1-0.2
					C-17,4.3-17,4.2-17,4.2s-0.1,0-0.2,0.1c-0.1,0-0.1,0.1-0.2,0.1c-0.1,0.1-0.1,0.1-0.2,0.1C-17.8,4.8-18.2,4.9-18.2,4.9z"/>
			</g>
			<path id="XMLID_776_" fill="#231F20" d="M-16.8,2C-17,2-17.3,2.3-17.4,2.6s-0.2,0.8-0.1,0.8s0.4-0.2,0.6-0.6S-16.7,2.1-16.8,2z"/>
			<g id="XMLID_774_">
				<path fill="#C57D80" d="M-13.6-1.3c0,0,0.1,0,0.3,0c0.1,0,0.3,0.1,0.5,0.2c0.2,0.1,0.3,0.2,0.5,0.3c0.1,0.1,0.2,0.2,0.2,0.2
					s0-0.1-0.1-0.3c-0.1-0.2-0.3-0.4-0.5-0.5c-0.1-0.1-0.2-0.1-0.4-0.1c-0.1,0-0.2,0-0.3,0C-13.5-1.4-13.6-1.3-13.6-1.3z"/>
			</g>
		</g>
		
			<use xlink:href="#SVGID_1_" overflow="visible" fill="none" stroke="#C57D80" stroke-width="0.35" stroke-linecap="round" stroke-linejoin="round" stroke-miterlimit="10"/>
	</g>
	<path id="XMLID_773_" fill="#FBD6D7" stroke="#C57D80" stroke-width="0.35" stroke-miterlimit="10" d="M-19.8,9.8
		c-0.2,0-0.4,0-0.5,0c-0.1,0-0.2-0.1-0.1-0.2c0.2-0.5,0.6-1,1.1-1.3c0.4-0.3,0.8-0.5,1.1-0.7c0.3,0,0.6-0.1,1-0.1c0,0,0,0,0,0
		c0.1,0,0.3,0.1,0.3,0.4c0,0,0,0.1,0,0.1c0,0.1-0.1,0.1-0.2,0.2c-0.1,0.2-0.3,0.3-0.3,0.5c-0.3,0.2-0.6,0.4-0.9,0.6
		c-0.4,0.2-0.7,0.5-1.1,0.6C-19.6,9.8-19.7,9.8-19.8,9.8z"/>
	<path id="XMLID_772_" fill="#F7BBBB" stroke="#F29C9D" stroke-width="0.35" stroke-miterlimit="10" d="M-19.7,8.9
		C-19.7,9-19.7,9-19.7,8.9c0.7-0.3,1.4-0.8,2-1.4C-18.4,7.8-19.2,8.3-19.7,8.9z"/>
	<g id="XMLID_770_">
		<path fill="#FBD6D7" d="M-15.3,8c-0.4,0.7-1,1.4-1.6,2c-0.2,0.1-0.3,0.3-0.5,0.4c-0.2,0.1-0.4,0.2-0.7,0.3
			c-0.4,0.1-0.8,0.2-1.2,0.2c-0.1,0-0.2-0.1-0.1-0.2c0.2-0.3,0.6-1,0.7-1.4c0.3-0.9,1-1.8,1.9-2.1"/>
		<path fill="#C57D80" d="M-15.3,8c0,0-0.1,0.1-0.3,0.3c-0.2,0.2-0.5,0.5-0.7,0.8c-0.1,0.2-0.3,0.4-0.5,0.5
			c-0.2,0.2-0.4,0.3-0.6,0.5c-0.2,0.1-0.6,0.2-0.7,0.3c-0.3,0.1-0.6,0.1-0.9,0.2c-0.2,0,0,0-0.1,0.1l0.2-0.4
			c0.2-0.3,0.3-0.5,0.4-0.8c0.1-0.3,0.2-0.5,0.3-0.8c0.1-0.2,0.2-0.4,0.4-0.6c0.3-0.3,0.5-0.6,0.7-0.8c0.2-0.2,0.3-0.2,0.3-0.2
			s-0.2,0-0.4,0.1c-0.2,0.1-0.6,0.3-0.9,0.7c-0.2,0.2-0.3,0.4-0.4,0.7c-0.1,0.2-0.2,0.5-0.3,0.8c-0.1,0.3-0.3,0.5-0.4,0.8l-0.2,0.4
			c-0.1,0.1,0,0.4,0.1,0.4c0.2,0.1,0.2,0,0.3,0c0.3-0.1,0.6-0.1,0.9-0.2c0.4-0.1,0.6-0.2,0.9-0.4c0.2-0.2,0.5-0.4,0.6-0.6
			c0.2-0.2,0.4-0.4,0.5-0.6c0.3-0.3,0.5-0.7,0.6-1C-15.4,8.2-15.3,8-15.3,8z"/>
	</g>
	<g id="XMLID_767_">
		<defs>
			<path id="XMLID_768_" d="M18.6-6.1c-1,1-1.8,2.3-2.1,3.7c1.1,1.6,1.8,3.5,2,5.4L8.5,6.3c0.6-5.3,3.7-10.2,8.1-13
				c0-0.9-0.1-1.8-0.4-2.6c-0.4-0.5-0.7-1.1-0.9-1.8c0.2,0,0.4-0.1,0.6-0.1c0.1,0.2,0.2,0.5,0.4,0.8l-0.2-0.8c0.5,0,1,0.1,1.4,0.2
				c0.3,0.5,0.4,1.1,0.4,1.6c0.1,0.6,0.3,1.3,0.4,1.9C18.7-7.1,18.7-6.6,18.6-6.1z"/>
		</defs>
		<use xlink:href="#XMLID_768_" overflow="visible" fill="#FBD6D7"/>
		
		
			<path id="XMLID_769_" clip-path="url(#XMLID_4_)" fill="#7F5B5E" stroke="#A9878C" stroke-width="0.35" stroke-miterlimit="10" d="
			M18.4-9.8c-0.1-0.6-0.2-1.1-0.4-1.7c-1-0.1-2.1-0.1-3.2,0c0.2,0.8,1,1.5,1.5,2.2c0.2-0.4,1.3-0.2,2.4,0.1
			C18.7-9.4,18.4-9.7,18.4-9.8z"/>
		<use xlink:href="#XMLID_768_" overflow="visible" fill="none" stroke="#C57D80" stroke-width="0.35" stroke-miterlimit="10"/>
	</g>
	<path id="XMLID_766_" fill="#FBD6D7" d="M7.6,7.5L10,4l7.3-2c0,0,1.6,0.6,1.5,2.4L7.6,7.5z"/>
	<g id="XMLID_763_">
		<defs>
			<path id="XMLID_764_" d="M-3.8,0.7l-3.9,7.2c-1-2.3-1.3-5-1-7.5C-8.1-1.1-7.3-2.6-6.3-4c0-1.1,0.2-2.1,0.5-3.1
				c-0.1-0.8-0.3-1.5-0.7-2.3c-0.5-0.5-0.9-1.1-1.1-1.7c0.2-0.1,0.4-0.1,0.6-0.2c0.1,0.2,0.2,0.4,0.4,0.7l-0.1-0.7
				c0.5,0,1,0.1,1.4,0.3c0.8,1.4,1.3,2.9,1.6,4.5C-3.6-4.9-3.1-3.3-2.3-2C-3-1.2-3.5-0.3-3.8,0.7z"/>
		</defs>
		<use xlink:href="#XMLID_764_" overflow="visible" fill="#FBD6D7"/>
		
		
			<path id="XMLID_765_" clip-path="url(#XMLID_5_)" fill="#7F5B5E" stroke="#A9878C" stroke-width="0.35" stroke-miterlimit="10" d="
			M-3-9c0,0-2.3-0.9-3.4-0.5C-6.6-9.4-6.5-9-6.5-9C-7-9.6-7.6-10.5-8-11.3c0.9-0.3,1.9-0.3,2.9-0.2c0.4,0.5,0.7,1.1,0.9,1.7
			C-4.2-9.8-2.8-9.2-3-9z"/>
		<use xlink:href="#XMLID_764_" overflow="visible" fill="none" stroke="#C57D80" stroke-width="0.35" stroke-miterlimit="10"/>
	</g>
	<polygon id="XMLID_762_" fill="#FBD6D7" points="-7.5,9.1 -7.9,3.8 -4.3,-2.6 1.3,-0.9 2.3,2 	"/>
	<path id="XMLID_761_" fill="#F7BBBB" stroke="#F29C9D" stroke-width="0.35" stroke-miterlimit="10" d="M-16.2,7.4
		c-0.9,0.2-1.7,0.9-1.9,1.7C-17.3,8.7-16.7,8.1-16.2,7.4C-16.1,7.4-16.2,7.4-16.2,7.4z"/>
</symbol>
<symbol id="New_Symbol_6" viewBox="-22.3 -11.8 44.7 23.6">
	<path id="XMLID_805_" fill="#FBD6D7" stroke="#C57D80" stroke-width="0.35" stroke-miterlimit="10" d="M-21.7-0.3
		c-0.2-0.1-0.3-0.2-0.4-0.4c-0.1-0.1,0-0.2,0.1-0.3c0.5-0.3,1.1-0.4,1.7-0.4c0.4,0,0.9,0.1,1.3,0.1c0.3,0.2,0.5,0.3,0.8,0.5
		c0,0,0,0,0,0c0.1,0.1,0.2,0.2,0,0.5c0,0,0,0.1-0.1,0.1c-0.1,0-0.2,0-0.3,0.1c-0.2,0-0.4,0.1-0.6,0.2c-0.3,0-0.7-0.1-1-0.1
		c-0.4-0.1-0.9-0.1-1.2-0.3C-21.5-0.2-21.6-0.2-21.7-0.3z"/>
	<path id="XMLID_804_" fill="#F7BBBB" stroke="#F29C9D" stroke-width="0.35" stroke-miterlimit="10" d="M-21.1-0.9
		C-21.1-0.9-21.1-0.9-21.1-0.9c0.8,0.2,1.6,0.2,2.4,0.2C-19.4-1-20.3-1-21.1-0.9z"/>
	<path id="XMLID_801_" fill="#FBD6D7" stroke="#C57D80" stroke-width="0.35" stroke-miterlimit="10" d="M22,9.7
		c-0.1,0.3-0.3,0.6-0.5,0.9c0,0.1-0.1,0-0.1-0.1l0,0c0.1-0.3,0.2-0.5,0.3-0.8c0-0.2,0.1-0.5-0.1-0.7c0-0.1-0.1-0.1-0.1-0.1
		c-0.2-0.1-0.4,0-0.6,0.1c-0.2,0.6-0.6,1.2-1.1,1.6c-0.2,0.1-0.4,0.2-0.6,0.3c-0.2,0-0.5-0.1-0.6-0.3c-0.1-0.1-0.1-0.2-0.1-0.4
		c0-1,0.7-1.8,1.8-2.1c-0.3-0.4-0.7-0.6-1.2-0.6c0,0,0,0-0.1,0c-0.5,0-1.1,0.3-1.6,0.5c0.2-0.4,0.4-0.9,0.5-1.3
		c0.6-0.2,1.3-0.3,1.9-0.1c0.6,0.2,1.1,0.8,1.1,1.5c0.3-0.1,0.6-0.1,0.8,0.1c0.3,0.2,0.5,0.5,0.5,0.8C22.2,9.1,22.1,9.4,22,9.7z
		 M20.2,8.7c-0.3,0.1-0.5,0.3-0.7,0.5C19.2,9.4,19,9.7,19.1,10c0,0.1,0,0.1,0.1,0.2c0.1,0.1,0.3,0,0.4-0.1c0.4-0.4,0.6-0.8,0.7-1.4
		L20.2,8.7z"/>
	<g id="XMLID_798_">
		<defs>
			<path id="XMLID_799_" d="M-6.8-1.4c-0.4-0.1-0.9-0.3-1.3-0.4c-0.4-0.1-0.7-0.3-1-0.5c-0.1-1.5,0.3-3.1,1-4.5
				c-0.1-0.8-0.4-1.5-0.8-2.1c-0.4-0.3-0.7-0.8-0.9-1.2c0.1-0.1,0.1-0.1,0.2-0.2c0,0,0.1,0,0.1,0c0.1,0.2,0.3,0.6,0.5,0.9l-0.4-0.9
				c0.1,0,0.3,0,0.4-0.1c0.3,0,0.7-0.1,1-0.1c0.3,0.2,0.6,0.4,0.9,0.6c0.4,1.2,0.8,2.4,1.2,3.7C-6.1-4.6-6.4-3-6.8-1.4z"/>
		</defs>
		<use xlink:href="#XMLID_799_" overflow="visible" fill="#FBD6D7"/>
		
		
			<path id="XMLID_800_" clip-path="url(#XMLID_6_)" fill="#7F5B5E" stroke="#A9878C" stroke-width="0.35" stroke-miterlimit="10" d="
			M-9.1-8.6C-9.1-8.5-9-8.4-8.9-8.3c-0.2-0.2-0.7-1.2,2.7-0.8c-0.1-0.6-0.5-1-0.8-1.5c-1-0.4-2.2-0.3-3.1,0.4
			C-9.9-9.6-9.5-9.1-9.1-8.6z"/>
		<use xlink:href="#XMLID_799_" overflow="visible" fill="none" stroke="#C57D80" stroke-width="0.35" stroke-miterlimit="10"/>
	</g>
	<g id="XMLID_795_">
		<defs>
			<path id="XMLID_796_" d="M12.9-2.8c-0.6-0.3-1.2-0.5-1.8-0.7c0-0.3,0.1-0.5,0.2-0.8c0.2-0.5,0.4-1.1,0.7-1.5
				c-0.1-0.7-0.4-1.5-0.7-2.2c0,0-0.1-0.2-0.1-0.2c-0.3-0.4-0.5-0.9-0.7-1.4c0.1-0.1,0.2-0.1,0.3-0.2c0,0,0.1,0,0.1,0
				C10.9-9.6,11-9.2,11.2-9L11-9.9c0.2,0,0.3,0,0.5,0c0.4,0,0.8,0.1,1.3,0.1c0.2,0.4,0.3,0.8,0.3,1.2c0.2,0.6,0.5,1.2,0.8,1.7
				c0.2,0.3,0.4,0.6,0.5,0.9c0.1,0.2,0.1,0.4,0.1,0.6C13.8-4.6,13.2-3.7,12.9-2.8z"/>
		</defs>
		<use xlink:href="#XMLID_796_" overflow="visible" fill="#FBD6D7"/>
		
		
			<path id="XMLID_797_" clip-path="url(#XMLID_7_)" fill="#7F5B5E" stroke="#A9878C" stroke-width="0.35" stroke-miterlimit="10" d="
			M10.7-8.4c-0.3-0.5-0.5-1-0.6-1.5c0.9-0.3,1.9-0.4,2.8-0.2c0.3,0.5,0.5,1.1,0.6,1.6c-0.7-0.1-1.4-0.1-2,0c-0.1,0-0.3,0-0.4,0.1
			c-0.1,0-0.1,0.1-0.2,0.2C10.8-8.3,10.7-8.3,10.7-8.4z"/>
		<use xlink:href="#XMLID_796_" overflow="visible" fill="none" stroke="#C57D80" stroke-width="0.35" stroke-miterlimit="10"/>
	</g>
	<g id="XMLID_757_">
		<defs>
			<path id="SVGID_3_" d="M15.1,10.5c1.2-0.7,2.3-1.7,3.1-2.8c0.3-0.4,0.4-0.9,0.4-1.4c-0.2-2.8-1-5.5-2.4-8c-0.3-0.5-0.8-1-1.3-1.3
				C9.5-5.7,2.8-5.9-2.8-3.5c-0.4,0.1-0.9,0.3-0.9,0.3c-1.5,0.5-3.1,0.4-4.5-0.1c-0.6-0.6-1.3-1.1-2-1.4c-0.5-0.7-1.5-1.9-2.6-2.5
				c-0.2-0.6-0.6-1.2-1.1-1.6C-14-8.3-14-7.8-13.7-7.3C-13.9-7.3-14-7.2-14-7c0.1-0.8-0.3-1.5-1-1.9c-0.1-0.3-0.5-0.5-0.8-0.5
				c-0.6-0.1-1.3-0.2-1.9-0.1c-0.3,0.3-0.1,1,0.4,1.1c0.4,1,0.5,2.2,0.3,3.3c-0.9,0.6-1.5,1.6-1.8,2.6C-19-1.8-19-1-18.7-0.2
				c0.7,2.3,2.3,4.4,4.5,5.5C-13,7-11.5,8.5-9.8,9.6c2,0.6,4.1,0.9,6.3,0.8c3.7,1,7.5,1.2,11.3,0.6c2,0.7,4.2,0.7,6.2,0
				C14.3,10.9,14.7,10.8,15.1,10.5z"/>
		</defs>
		<use xlink:href="#SVGID_3_" overflow="visible" fill="#FBD6D7"/>
		
		<g id="XMLID_760_" clip-path="url(#SVGID_4_)">
			<path fill="#F7BBBB" d="M-14.5-9c0.1-0.1,0.2-0.3,0.2-0.4c-1.2-0.7-2.7-0.9-4-0.6c-0.1,0.6,0.1,1.2,0.6,1.6
				c0.3-0.4,0.8-0.4,1.3-0.4c0.4,0.1,0.9,0.2,1.3,0.1C-14.9-8.7-14.7-8.8-14.5-9z"/>
			<path fill="#EAACAF" d="M-14.5-9c0.1-0.1,0.2-0.3,0.3-0.4l0,0l0,0c-0.1-0.1-0.3-0.2-0.4-0.3C-14.8-9.9-15-10-15.2-10
				c-0.3-0.1-0.7-0.2-1-0.2c-0.7-0.1-1.4-0.1-2.1,0.1l-0.1,0l0,0.1c-0.1,0.7,0.1,1.3,0.6,1.8l0.1,0.1l0.1-0.1
				c0.1-0.2,0.4-0.3,0.6-0.3c0.3,0,0.5,0,0.8,0.1c0.3,0.1,0.6,0.1,0.9,0C-15-8.7-14.7-8.8-14.5-9z M-14.5-9
				c-0.2,0.2-0.5,0.3-0.8,0.2c-0.3-0.1-0.5-0.1-0.8-0.1C-16.4-9-16.7-9-17-9c-0.3,0-0.6,0.2-0.9,0.4l0.3,0c-0.4-0.3-0.6-0.9-0.5-1.4
				l-0.1,0.1c0.7-0.1,1.3-0.2,2-0.1c0.3,0,0.7,0.1,1,0.2c0.3,0.1,0.6,0.2,1,0.3l0,0C-14.3-9.3-14.4-9.1-14.5-9z"/>
		</g>
		<use xlink:href="#SVGID_3_" overflow="visible" fill="none" stroke="#C57D80" stroke-width="0.35" stroke-miterlimit="10"/>
	</g>
	<g id="XMLID_755_">
		<path fill="#FBD6D7" d="M-13,4.3c0-1.3,0.6-2.7,1.5-3.6"/>
		<path fill="#F7BBBB" d="M-13,4.3c0,0,0.1-0.2,0.1-0.6c0.1-0.4,0.2-0.8,0.4-1.3c0.2-0.5,0.4-0.9,0.6-1.2c0.2-0.3,0.3-0.5,0.3-0.5
			s-0.2,0.1-0.5,0.4c-0.3,0.3-0.6,0.7-0.8,1.2c-0.2,0.5-0.3,1-0.3,1.4C-13,4-13,4.3-13,4.3z"/>
	</g>
	<g id="XMLID_753_">
		<path fill="#FBD6D7" d="M-14-7.3c0.3,0.1,0.5,0.3,0.5,0.5s-0.1,0.4-0.3,0.6"/>
		<path fill="#C57D80" d="M-14-7.2c0,0,0.1,0.1,0.1,0.2c0,0,0,0.1,0,0.1c0,0,0,0.1,0,0.1c0,0,0,0.1,0,0.1c0,0,0,0,0,0.1
			c0,0,0,0.1,0,0.2c0,0.1,0,0.1,0,0.2c0,0.1,0,0.1,0,0.1l0,0c0,0,0.1-0.1,0.1-0.2c0.1-0.1,0.2-0.3,0.2-0.5c0-0.2-0.2-0.4-0.3-0.4
			C-13.9-7.3-14-7.3-14-7.2L-14-7.2z"/>
	</g>
	<g id="XMLID_751_">
		<path fill="#FBD6D7" d="M-17.7-2.8c0.1,0.2,0.4,0.3,0.6,0.4c0.3,0,0.5-0.1,0.7-0.1"/>
		<path fill="#F7BBBB" d="M-17.7-2.8c0,0,0,0.1,0.1,0.3c0.1,0.1,0.3,0.2,0.5,0.3c0.1,0,0.2,0,0.3,0c0.1,0,0.2-0.1,0.2-0.1
			c0.1-0.1,0.2-0.2,0.2-0.2s-0.1,0-0.3,0c-0.1,0-0.2,0-0.2,0c-0.1,0-0.2,0-0.2,0C-17.3-2.6-17.7-2.8-17.7-2.8z"/>
	</g>
	<path id="XMLID_750_" fill="#231F20" d="M-14.8-4.2c-0.1-0.1-0.4-0.1-0.8,0.1c-0.4,0.2-0.6,0.5-0.6,0.6c0.1,0.1,0.4,0.1,0.8-0.1
		C-15-3.8-14.8-4-14.8-4.2z"/>
	<g id="XMLID_748_">
		<path fill="#FBD6D7" d="M-17.1,1.1c-0.8,0.3-1.6,0.5-2.5,0.5c-0.2,0-0.4,0-0.6,0c-0.2,0-0.5-0.1-0.7-0.2c-0.4-0.2-0.7-0.3-1-0.6
			c-0.1-0.1-0.1-0.2,0-0.2c0.4-0.1,1.1-0.4,1.4-0.6c0.8-0.5,1.9-0.8,2.8-0.5"/>
		<path fill="#C57D80" d="M-17.1,1.1c0,0-0.2,0-0.4,0.1c-0.3,0.1-0.7,0.1-1.1,0.2c-0.2,0-0.5,0.1-0.7,0.1c-0.3,0-0.5,0-0.8,0
			c-0.2,0-0.6-0.2-0.8-0.2c-0.3-0.1-0.5-0.3-0.8-0.4c-0.2-0.1-0.1,0-0.1,0l0.4-0.2c0.3-0.1,0.6-0.2,0.8-0.4c0.3-0.2,0.5-0.3,0.7-0.4
			c0.2-0.1,0.5-0.2,0.7-0.2c0.4-0.1,0.8-0.2,1.1-0.2c0.3,0,0.4,0,0.4,0s-0.1-0.1-0.4-0.2c-0.3-0.1-0.7-0.2-1.2-0.1
			c-0.2,0.1-0.5,0.1-0.7,0.2c-0.3,0.1-0.5,0.3-0.7,0.4c-0.2,0.1-0.5,0.2-0.8,0.3L-22,0.5c-0.2,0-0.3,0.3-0.2,0.4
			c0.1,0.2,0.2,0.1,0.3,0.2c0.3,0.1,0.5,0.3,0.8,0.4c0.4,0.1,0.5,0.2,0.9,0.3c0.3,0,0.6,0,0.9,0c0.3,0,0.5-0.1,0.8-0.1
			c0.5-0.1,0.8-0.3,1.1-0.4C-17.2,1.2-17.1,1.1-17.1,1.1z"/>
	</g>
	<g id="XMLID_746_">
		<path fill="#C57D80" d="M-10.2-4.7c0,0,0.1,0.1,0.2,0.2C-9.9-4.4-9.8-4.2-9.8-4c0.1,0.2,0.1,0.4,0.2,0.5c0,0.2,0.1,0.3,0.1,0.3
			s0.1-0.1,0.1-0.3c0-0.2,0-0.4-0.1-0.7c-0.1-0.1-0.1-0.2-0.2-0.3c-0.1-0.1-0.2-0.2-0.3-0.2C-10.1-4.7-10.2-4.7-10.2-4.7z"/>
	</g>
	<g id="XMLID_743_">
		<defs>
			<path id="XMLID_744_" d="M17.5-6.1c-1,1-1.8,2.3-2.1,3.7c1.1,1.6,1.8,3.5,2,5.4L7.4,6.3C8,1,11.1-3.9,15.6-6.7
				c0-0.9-0.1-1.8-0.4-2.6c-0.4-0.5-0.7-1.1-0.9-1.8c0.2,0,0.4-0.1,0.6-0.1c0.1,0.2,0.2,0.5,0.4,0.8L15-11.2c0.5,0,1,0.1,1.4,0.2
				c0.3,0.5,0.4,1.1,0.4,1.6c0.1,0.6,0.3,1.3,0.4,1.9C17.5-7.1,17.6-6.6,17.5-6.1z"/>
		</defs>
		<use xlink:href="#XMLID_744_" overflow="visible" fill="#FBD6D7"/>
		
		
			<path id="XMLID_745_" clip-path="url(#XMLID_8_)" fill="#7F5B5E" stroke="#A9878C" stroke-width="0.35" stroke-miterlimit="10" d="
			M17.2-9.8c-0.1-0.6-0.2-1.1-0.4-1.7c-1-0.1-2.1-0.1-3.2,0c0.2,0.8,1,1.5,1.5,2.2c0.2-0.4,1.3-0.2,2.4,0.1
			C17.6-9.4,17.3-9.7,17.2-9.8z"/>
		<use xlink:href="#XMLID_744_" overflow="visible" fill="none" stroke="#C57D80" stroke-width="0.35" stroke-miterlimit="10"/>
	</g>
	<path id="XMLID_742_" fill="#FBD6D7" d="M6.5,7.5L8.9,4l7.3-2c0,0,1.6,0.6,1.5,2.4L6.5,7.5z"/>
	<g id="XMLID_739_">
		<defs>
			<path id="XMLID_740_" d="M-4.9,0.7l-3.9,7.2c-1-2.3-1.3-5-1-7.5C-9.2-1.1-8.4-2.6-7.4-4c0-1.1,0.2-2.1,0.5-3.1
				C-7-7.9-7.3-8.6-7.6-9.4c-0.5-0.5-0.9-1.1-1.1-1.7c0.2-0.1,0.4-0.1,0.6-0.2c0.1,0.2,0.2,0.4,0.4,0.7l-0.1-0.7
				c0.5,0,1,0.1,1.4,0.3C-5.6-9.6-5-8.1-4.8-6.5C-4.7-4.9-4.2-3.3-3.4-2C-4.1-1.2-4.6-0.3-4.9,0.7z"/>
		</defs>
		<use xlink:href="#XMLID_740_" overflow="visible" fill="#FBD6D7"/>
		
		
			<path id="XMLID_741_" clip-path="url(#XMLID_9_)" fill="#7F5B5E" stroke="#A9878C" stroke-width="0.35" stroke-miterlimit="10" d="
			M-4.1-9c0,0-2.3-0.9-3.4-0.5C-7.7-9.4-7.6-9-7.6-9c-0.5-0.6-1.1-1.5-1.5-2.3c0.9-0.3,1.9-0.3,2.9-0.2c0.4,0.5,0.7,1.1,0.9,1.7
			C-5.3-9.8-3.9-9.2-4.1-9z"/>
		<use xlink:href="#XMLID_740_" overflow="visible" fill="none" stroke="#C57D80" stroke-width="0.35" stroke-miterlimit="10"/>
	</g>
	<polygon id="XMLID_738_" fill="#FBD6D7" points="-8.6,9.1 -9,3.8 -5.4,-2.6 0.2,-0.9 1.2,2 	"/>
	<path id="XMLID_737_" fill="#F7BBBB" stroke="#F29C9D" stroke-width="0.35" stroke-miterlimit="10" d="M-17.4,0.1
		c-0.8-0.4-1.8-0.4-2.6,0.1C-19.1,0.4-18.2,0.4-17.4,0.1C-17.4,0.1-17.4,0.1-17.4,0.1z"/>
</symbol>
<g>
	
		<use xlink:href="#New_Symbol_5" width="46.9" height="23.6" x="-23.4" y="-11.8" transform="matrix(3.0785 0 0 -3.0785 364.4985 418.3745)" overflow="visible"/>
	
		<use xlink:href="#New_Symbol_5" width="46.9" height="23.6" x="-23.4" y="-11.8" transform="matrix(3.0785 0 0 -3.0785 245.1311 340.3784)" overflow="visible"/>
	
		<use xlink:href="#New_Symbol_5" width="46.9" height="23.6" x="-23.4" y="-11.8" transform="matrix(3.0785 0 0 -3.0785 106.7047 181.5439)" overflow="visible"/>
	
		<use xlink:href="#New_Symbol_5" width="46.9" height="23.6" x="-23.4" y="-11.8" transform="matrix(3.0785 0 0 -3.0785 332.6852 85.088)" overflow="visible"/>
	
		<use xlink:href="#New_Symbol_5" width="46.9" height="23.6" x="-23.4" y="-11.8" transform="matrix(3.0785 0 0 -3.0785 393.2953 296.4576)" overflow="visible"/>
	
		<use xlink:href="#New_Symbol_5" width="46.9" height="23.6" x="-23.4" y="-11.8" transform="matrix(3.0785 0 0 -3.0785 393.2953 172.0294)" overflow="visible"/>
	
		<use xlink:href="#New_Symbol_6" width="44.7" height="23.6" x="-22.3" y="-11.8" transform="matrix(3.0785 0 0 -3.0785 140.6522 419.0805)" overflow="visible"/>
	
		<use xlink:href="#New_Symbol_6" width="44.7" height="23.6" x="-22.3" y="-11.8" transform="matrix(3.0785 0 0 -3.0785 103.6767 299.3088)" overflow="visible"/>
	
		<use xlink:href="#New_Symbol_6" width="44.7" height="23.6" x="-22.3" y="-11.8" transform="matrix(3.0785 0 0 -3.0785 160.8355 80.9195)" overflow="visible"/>
	
		<use xlink:href="#New_Symbol_6" width="44.7" height="23.6" x="-22.3" y="-11.8" transform="matrix(3.0785 0 0 -3.0785 245.9642 212.6748)" overflow="visible"/>
</g>
</svg>
